<?xml version="1.0" encoding="utf-8" standalone="no"?>
<!DOCTYPE svg PUBLIC "-//W3C//DTD SVG 1.1//EN"
  "http://www.w3.org/Graphics/SVG/1.1/DTD/svg11.dtd">
<svg xmlns:xlink="http://www.w3.org/1999/xlink" width="432pt" height="288pt" viewBox="0 0 432 288" xmlns="http://www.w3.org/2000/svg" version="1.1">
 <metadata>
  <rdf:RDF xmlns:dc="http://purl.org/dc/elements/1.1/" xmlns:cc="http://creativecommons.org/ns#" xmlns:rdf="http://www.w3.org/1999/02/22-rdf-syntax-ns#">
   <cc:Work>
    <dc:type rdf:resource="http://purl.org/dc/dcmitype/StillImage"/>
    <dc:date>2022-05-17T21:39:14.415603</dc:date>
    <dc:format>image/svg+xml</dc:format>
    <dc:creator>
     <cc:Agent>
      <dc:title>Matplotlib v3.5.2, https://matplotlib.org/</dc:title>
     </cc:Agent>
    </dc:creator>
   </cc:Work>
  </rdf:RDF>
 </metadata>
 <defs>
  <style type="text/css">*{stroke-linejoin: round; stroke-linecap: butt}</style>
 </defs>
 <g id="figure_1">
  <g id="patch_1">
   <path d="M 0 288 
L 432 288 
L 432 0 
L 0 0 
z
" style="fill: #ffffff"/>
  </g>
  <g id="axes_1">
   <g id="patch_2">
    <path d="M 41.781593 258.225354 
L 422.361999 258.225354 
L 422.361999 2.834646 
L 41.781593 2.834646 
z
" style="fill: #ffffff"/>
   </g>
   <g id="line2d_1">
    <path d="M 41.781593 131.237039 
L 42.923334 131.361818 
L 44.065075 131.749662 
L 45.206816 132.413453 
L 46.348558 133.331784 
L 47.680589 134.688126 
L 49.393201 136.919802 
L 50.915522 139.231423 
L 53.199005 143.22729 
L 58.33684 153.044195 
L 60.049452 156.146364 
L 61.381484 158.109978 
L 63.094095 160.157389 
L 65.758158 163.100102 
L 66.8999 164.035213 
L 67.851351 164.537684 
L 68.612511 164.669029 
L 69.183382 164.599107 
L 69.754253 164.339197 
L 70.515413 163.692653 
L 71.466864 162.531765 
L 72.418315 160.951348 
L 73.369766 158.936902 
L 74.511508 155.97848 
L 75.843539 151.842878 
L 77.746441 145.101764 
L 80.220214 135.325101 
L 83.645437 121.506354 
L 85.358049 115.674268 
L 87.260951 109.962144 
L 90.115304 102.214646 
L 91.637626 98.597537 
L 92.589077 96.866755 
L 93.540528 95.521694 
L 94.301689 94.737445 
L 95.06285 94.247569 
L 95.63372 94.110757 
L 96.204591 94.158885 
L 96.775461 94.400798 
L 97.346332 94.857233 
L 98.107493 95.759344 
L 99.058944 97.292835 
L 100.010395 99.30493 
L 101.152136 102.260059 
L 102.484168 106.293388 
L 104.38707 112.992867 
L 109.144325 130.525196 
L 111.237517 136.923523 
L 114.09187 144.881786 
L 117.707384 153.794922 
L 120.561737 160.895465 
L 122.274349 165.884078 
L 123.79667 171.001939 
L 127.983055 185.904419 
L 128.744216 187.682135 
L 129.315086 188.640764 
L 129.885957 189.227187 
L 130.456827 189.460172 
L 131.027698 189.38304 
L 131.598569 188.984196 
L 132.169439 188.250699 
L 132.9306 186.793826 
L 133.691761 184.827707 
L 134.643212 181.691234 
L 135.784953 176.979529 
L 137.116985 170.418309 
L 138.449016 162.639985 
L 139.971338 152.241121 
L 141.87424 137.463569 
L 145.489753 108.937254 
L 147.012075 99.14754 
L 148.344107 92.091944 
L 149.485848 87.320068 
L 150.437299 84.240708 
L 151.19846 82.398993 
L 151.76933 81.425982 
L 152.340201 80.813185 
L 152.911071 80.51521 
L 153.481942 80.510759 
L 154.052813 80.807979 
L 154.623683 81.383107 
L 155.384844 82.47229 
L 158.429487 87.449364 
L 159.000358 87.867445 
L 159.571229 88.039775 
L 160.142099 87.949222 
L 160.90326 87.473936 
L 162.996452 85.753375 
L 163.567323 85.643445 
L 163.947903 85.759092 
L 164.328484 86.081356 
L 164.899354 86.978581 
L 165.470225 88.39605 
L 166.041095 90.358576 
L 166.802256 93.824653 
L 167.753707 99.379806 
L 168.895448 107.559061 
L 170.41777 120.451365 
L 174.033284 151.771165 
L 175.365315 161.151154 
L 176.316766 166.478548 
L 177.077927 169.791653 
L 177.839088 172.124553 
L 178.409959 173.161625 
L 178.790539 173.488078 
L 179.171119 173.527622 
L 179.5517 173.286597 
L 179.93228 172.790365 
L 180.503151 171.636204 
L 181.264312 169.375939 
L 183.738084 161.116521 
L 184.118665 160.557418 
L 184.499245 160.396611 
L 184.879826 160.704947 
L 185.260406 161.503641 
L 185.640986 162.841933 
L 186.211857 165.846997 
L 186.782728 169.973393 
L 187.543888 177.101116 
L 188.87592 192.238839 
L 190.207951 206.686792 
L 190.969112 212.779878 
L 191.539983 215.792623 
L 191.920563 216.920088 
L 192.301143 217.36281 
L 192.491434 217.327802 
L 192.681724 217.116503 
L 193.062304 216.179067 
L 193.442885 214.601911 
L 194.013755 211.149686 
L 194.774916 205.00519 
L 197.819559 178.178585 
L 198.58072 173.948015 
L 199.341881 170.756227 
L 200.293332 167.697729 
L 201.625363 164.205887 
L 202.576814 162.204727 
L 203.147685 161.445423 
L 203.528265 161.175777 
L 203.908846 161.116013 
L 204.289426 161.23274 
L 204.860297 161.712075 
L 206.002038 162.922421 
L 206.382619 163.073569 
L 206.763199 162.930084 
L 207.143779 162.418021 
L 207.52436 161.438879 
L 208.09523 159.026332 
L 208.666101 155.411739 
L 209.427262 148.6514 
L 210.378713 137.560552 
L 213.803936 93.877762 
L 214.565097 87.758257 
L 215.135968 84.822922 
L 215.516548 83.758974 
L 215.897129 83.412556 
L 216.087419 83.484669 
L 216.467999 84.123444 
L 216.84858 85.377779 
L 217.41945 88.128257 
L 219.322352 98.404981 
L 219.702933 99.240387 
L 219.893223 99.365896 
L 220.083513 99.295682 
L 220.464094 98.584709 
L 220.844674 97.136028 
L 221.415545 93.819064 
L 223.508737 79.933704 
L 224.079607 78.204721 
L 224.460188 77.751384 
L 224.840768 77.808945 
L 225.221349 78.252055 
L 225.792219 79.40833 
L 226.55338 81.020091 
L 226.93396 81.447614 
L 227.314541 81.45219 
L 227.695121 80.943064 
L 228.075702 79.855586 
L 228.646572 77.245627 
L 229.407733 72.360103 
L 231.120345 60.936206 
L 231.691216 58.841104 
L 232.071796 58.224132 
L 232.262086 58.16519 
L 232.452376 58.279732 
L 232.832957 59.014961 
L 233.213537 60.385884 
L 233.784408 63.483205 
L 234.545569 69.250648 
L 235.49702 78.369985 
L 237.019341 95.791959 
L 238.351373 110.009224 
L 239.112533 115.905957 
L 239.683404 118.983013 
L 240.254275 120.97067 
L 240.825145 121.978352 
L 241.205726 122.273771 
L 242.347467 122.796885 
L 242.728047 123.374135 
L 243.108628 124.475083 
L 243.489208 126.217332 
L 244.060079 130.246003 
L 244.630949 136.014008 
L 245.39211 146.195633 
L 246.533851 165.294273 
L 248.627044 201.898188 
L 249.388204 211.762388 
L 250.149365 219.076914 
L 250.910526 224.149756 
L 251.481397 226.536142 
L 251.861977 227.508006 
L 252.242558 227.864496 
L 252.432848 227.805708 
L 252.623138 227.591224 
L 253.003718 226.636582 
L 253.384299 224.924329 
L 253.955169 221.18405 
L 254.71633 214.082865 
L 255.667781 202.537122 
L 257.380393 180.320907 
L 257.951264 175.432159 
L 258.331844 173.545872 
L 258.712424 172.804412 
L 258.902715 172.886298 
L 259.093005 173.294722 
L 259.473585 175.055864 
L 259.854166 177.901101 
L 260.425036 184.079916 
L 261.376487 198.003865 
L 262.898809 221.727299 
L 263.469679 227.990483 
L 264.04055 231.821874 
L 264.421131 232.949007 
L 264.611421 233.11155 
L 264.801711 233.013064 
L 264.992001 232.655741 
L 265.372582 231.164175 
L 265.753162 228.67698 
L 266.324033 223.227157 
L 267.085193 213.035228 
L 268.417225 190.865078 
L 269.939546 166.439998 
L 270.890997 154.536178 
L 271.842448 145.462797 
L 272.793899 138.561401 
L 274.696801 127.337074 
L 275.267672 124.780708 
L 275.838543 123.167531 
L 276.219123 122.845897 
L 276.409413 122.938064 
L 276.789994 123.653898 
L 277.170574 125.194073 
L 277.741445 129.086854 
L 278.312315 134.919775 
L 279.073476 145.307021 
L 281.927829 188.613265 
L 282.4987 193.650903 
L 283.06957 196.664847 
L 283.450151 197.54594 
L 283.640441 197.647742 
L 283.830731 197.509907 
L 284.211312 196.525065 
L 284.591892 194.677225 
L 285.162763 190.443352 
L 285.923923 182.844395 
L 286.875375 170.909608 
L 288.017116 153.595614 
L 289.349147 129.487444 
L 290.871469 97.063025 
L 292.774371 56.027947 
L 293.535532 45.097009 
L 294.106402 40.385278 
L 294.486983 38.91057 
L 294.677273 38.642898 
L 294.867563 38.656152 
L 295.057853 38.937448 
L 295.438434 40.271528 
L 296.009304 43.918945 
L 296.770465 51.1291 
L 297.721916 62.950007 
L 299.053948 83.200111 
L 300.385979 103.216647 
L 300.95685 109.276352 
L 301.33743 111.882426 
L 301.71801 113.134756 
L 301.908301 113.211274 
L 302.098591 112.934663 
L 302.479171 111.413004 
L 302.859752 108.67357 
L 303.430622 102.681379 
L 304.382073 89.713786 
L 305.904395 68.6817 
L 306.665556 60.651742 
L 307.426716 54.804025 
L 307.997587 52.036747 
L 308.378167 51.010256 
L 308.758748 50.532494 
L 309.139328 50.428143 
L 309.519909 50.371744 
L 309.900489 50.017526 
L 310.28107 49.086519 
L 310.66165 47.425778 
L 311.232521 43.61648 
L 311.993681 36.707145 
L 313.135423 25.864108 
L 313.516003 23.515662 
L 313.896583 22.320311 
L 314.086874 22.198109 
L 314.277164 22.42247 
L 314.467454 23.014398 
L 314.848034 25.321445 
L 315.228615 29.124169 
L 315.799485 37.82685 
L 316.370356 50.13796 
L 317.512097 81.652493 
L 318.463548 106.028595 
L 319.034419 116.57476 
L 319.414999 121.018528 
L 319.79558 123.014122 
L 319.98587 123.002594 
L 320.17616 122.295641 
L 320.55674 118.921553 
L 321.127611 109.877388 
L 322.079062 88.919963 
L 323.411094 59.06928 
L 323.981964 51.009209 
L 324.362545 48.554598 
L 324.552835 48.283374 
L 324.743125 48.657696 
L 324.933415 49.673436 
L 325.313996 53.461856 
L 325.884866 62.799428 
L 326.455737 76.268539 
L 327.216898 100.327575 
L 329.1198 165.283811 
L 329.69067 176.100335 
L 330.071251 179.692347 
L 330.261541 180.428977 
L 330.451831 180.493157 
L 330.642121 179.900682 
L 331.022702 176.85736 
L 331.783862 166.782635 
L 332.545023 157.892062 
L 332.925604 155.304998 
L 333.306184 154.0158 
L 333.496474 153.914295 
L 333.686765 154.198186 
L 334.067345 155.887111 
L 334.447925 158.956598 
L 335.018796 166.097397 
L 335.970247 182.384367 
L 337.111988 201.60914 
L 337.873149 211.393096 
L 338.44402 215.846987 
L 338.8246 217.25708 
L 339.01489 217.546986 
L 339.20518 217.56595 
L 339.395471 217.296817 
L 339.776051 215.848201 
L 340.156631 213.229385 
L 340.727502 207.283245 
L 341.488663 196.234541 
L 342.440114 182.498903 
L 342.820694 179.70956 
L 343.010984 179.077644 
L 343.201275 178.925639 
L 343.391565 179.201313 
L 343.772145 180.726948 
L 344.343016 184.572898 
L 345.294467 193.239925 
L 346.055628 201.8757 
L 347.007079 215.521204 
L 348.909981 245.317456 
L 349.290561 247.812561 
L 349.480851 248.395203 
L 349.671142 248.558396 
L 349.861432 248.336859 
L 350.242012 246.847049 
L 350.622593 244.118761 
L 351.193463 237.966079 
L 351.954624 226.486409 
L 353.096365 207.968653 
L 353.667236 201.944561 
L 354.238106 198.568934 
L 354.428397 198.016038 
L 354.618687 197.807131 
L 354.808977 197.969197 
L 354.999267 198.499376 
L 355.379848 200.580658 
L 355.950718 205.877791 
L 356.711879 215.862656 
L 358.424491 240.38064 
L 358.805071 242.71524 
L 358.995362 242.966638 
L 359.185652 242.568258 
L 359.566232 239.885887 
L 360.137103 232.355671 
L 361.469134 213.738177 
L 362.230295 205.518593 
L 362.801166 201.136456 
L 363.181746 199.402433 
L 363.372036 198.95717 
L 363.562326 198.821053 
L 363.752617 198.988628 
L 364.133197 200.059682 
L 365.465228 205.422184 
L 366.60697 211.427683 
L 366.98755 212.375567 
L 367.36813 212.858141 
L 367.748711 212.982161 
L 367.939001 212.805987 
L 368.129291 212.383357 
L 368.509872 210.579155 
L 368.890452 207.103395 
L 369.271033 201.499896 
L 369.841903 189.126094 
L 371.554515 147.111333 
L 372.125386 138.644816 
L 372.886546 131.054077 
L 373.647707 125.879887 
L 374.028288 124.117969 
L 374.408868 123.239514 
L 374.599158 123.158827 
L 374.789448 123.376412 
L 374.979739 123.95977 
L 375.360319 126.433271 
L 375.740899 130.743261 
L 376.31177 140.314997 
L 377.263221 156.22671 
L 377.643801 159.735707 
L 377.834092 160.527568 
L 378.024382 160.707302 
L 378.214672 160.337325 
L 378.595252 158.138728 
L 378.975833 154.17489 
L 379.546703 145.608022 
L 380.117574 132.901063 
L 382.781637 63.260124 
L 383.352508 54.315132 
L 383.923378 48.473522 
L 384.303959 46.256349 
L 384.494249 45.871114 
L 384.684539 46.012482 
L 385.065119 47.476153 
L 385.63599 51.364271 
L 386.206861 57.65824 
L 387.348602 73.433931 
L 387.729182 75.623318 
L 387.919472 75.950801 
L 388.109763 75.788467 
L 388.300053 75.156161 
L 388.680633 72.469762 
L 389.251504 65.141243 
L 390.393245 46.499844 
L 391.344696 30.023361 
L 391.725277 26.088243 
L 392.296147 22.608858 
L 392.676728 21.12763 
L 392.867018 20.855317 
L 393.057308 20.907115 
L 393.247598 21.247593 
L 393.628179 22.883775 
L 394.199049 27.489173 
L 394.76992 33.513842 
L 397.053402 61.65082 
L 397.243692 62.637629 
L 397.433983 62.992369 
L 397.624273 62.636642 
L 397.814563 61.558376 
L 398.195143 57.345856 
L 398.766014 46.754223 
L 400.098045 20.092258 
L 400.668916 13.005267 
L 401.049496 10.800445 
L 401.430077 10.135057 
L 401.810657 10.062685 
L 402.000947 10.111824 
L 402.191238 10.283051 
L 402.571818 11.257043 
L 403.142689 14.106311 
L 403.713559 18.084606 
L 404.09414 22.250009 
L 404.66501 31.321252 
L 405.616461 50.909855 
L 406.758203 74.208831 
L 407.329073 81.400132 
L 407.709654 83.698872 
L 407.899944 84.108575 
L 408.090234 84.020858 
L 408.280524 83.429352 
L 408.661105 80.923343 
L 409.612556 73.329407 
L 410.373716 68.546511 
L 411.134877 62.346185 
L 412.086328 51.857601 
L 412.847489 43.75391 
L 413.228069 41.427086 
L 413.60865 40.276859 
L 413.79894 40.283244 
L 413.98923 40.761372 
L 414.369811 43.167228 
L 414.750391 47.326362 
L 417.224164 80.330193 
L 417.604744 81.779969 
L 417.795034 82.006861 
L 417.985325 81.981413 
L 418.175615 81.716052 
L 418.556195 80.545751 
L 419.317356 77.383764 
L 419.507646 77.109791 
L 419.697936 77.427456 
L 420.078517 79.978047 
L 420.649387 86.69414 
L 421.220258 95.863512 
L 422.361999 119.311326 
L 422.361999 119.311326 
" clip-path="url(#p992173dd7d)" style="fill: none; stroke: #009afa"/>
   </g>
   <g id="matplotlib.axis_1">
    <g id="xtick_1">
     <g id="line2d_2">
      <defs>
       <path id="md4e69c9db7" d="M 0 0 
L 0 -2.5 
" style="stroke: #000000; stroke-width: 0.5"/>
      </defs>
      <g>
       <use xlink:href="#md4e69c9db7" x="41.781593" y="258.225354" style="stroke: #000000; stroke-width: 0.5"/>
      </g>
     </g>
     <g id="text_1">
      <!-- $0.0$ -->
      <g transform="translate(35.381593 267.804104)scale(0.08 -0.08)">
       <defs>
        <path id="DejaVuSans-30" d="M 2034 4250 
Q 1547 4250 1301 3770 
Q 1056 3291 1056 2328 
Q 1056 1369 1301 889 
Q 1547 409 2034 409 
Q 2525 409 2770 889 
Q 3016 1369 3016 2328 
Q 3016 3291 2770 3770 
Q 2525 4250 2034 4250 
z
M 2034 4750 
Q 2819 4750 3233 4129 
Q 3647 3509 3647 2328 
Q 3647 1150 3233 529 
Q 2819 -91 2034 -91 
Q 1250 -91 836 529 
Q 422 1150 422 2328 
Q 422 3509 836 4129 
Q 1250 4750 2034 4750 
z
" transform="scale(0.015625)"/>
        <path id="DejaVuSans-2e" d="M 684 794 
L 1344 794 
L 1344 0 
L 684 0 
L 684 794 
z
" transform="scale(0.015625)"/>
       </defs>
       <use xlink:href="#DejaVuSans-30" transform="translate(0 0.78125)"/>
       <use xlink:href="#DejaVuSans-2e" transform="translate(63.623047 0.78125)"/>
       <use xlink:href="#DejaVuSans-30" transform="translate(95.410156 0.78125)"/>
      </g>
     </g>
    </g>
    <g id="xtick_2">
     <g id="line2d_3">
      <g>
       <use xlink:href="#md4e69c9db7" x="136.926694" y="258.225354" style="stroke: #000000; stroke-width: 0.5"/>
      </g>
     </g>
     <g id="text_2">
      <!-- $0.5$ -->
      <g transform="translate(130.526694 267.804104)scale(0.08 -0.08)">
       <defs>
        <path id="DejaVuSans-35" d="M 691 4666 
L 3169 4666 
L 3169 4134 
L 1269 4134 
L 1269 2991 
Q 1406 3038 1543 3061 
Q 1681 3084 1819 3084 
Q 2600 3084 3056 2656 
Q 3513 2228 3513 1497 
Q 3513 744 3044 326 
Q 2575 -91 1722 -91 
Q 1428 -91 1123 -41 
Q 819 9 494 109 
L 494 744 
Q 775 591 1075 516 
Q 1375 441 1709 441 
Q 2250 441 2565 725 
Q 2881 1009 2881 1497 
Q 2881 1984 2565 2268 
Q 2250 2553 1709 2553 
Q 1456 2553 1204 2497 
Q 953 2441 691 2322 
L 691 4666 
z
" transform="scale(0.015625)"/>
       </defs>
       <use xlink:href="#DejaVuSans-30" transform="translate(0 0.78125)"/>
       <use xlink:href="#DejaVuSans-2e" transform="translate(63.623047 0.78125)"/>
       <use xlink:href="#DejaVuSans-35" transform="translate(95.410156 0.78125)"/>
      </g>
     </g>
    </g>
    <g id="xtick_3">
     <g id="line2d_4">
      <g>
       <use xlink:href="#md4e69c9db7" x="232.071796" y="258.225354" style="stroke: #000000; stroke-width: 0.5"/>
      </g>
     </g>
     <g id="text_3">
      <!-- $1.0$ -->
      <g transform="translate(225.671796 267.804104)scale(0.08 -0.08)">
       <defs>
        <path id="DejaVuSans-31" d="M 794 531 
L 1825 531 
L 1825 4091 
L 703 3866 
L 703 4441 
L 1819 4666 
L 2450 4666 
L 2450 531 
L 3481 531 
L 3481 0 
L 794 0 
L 794 531 
z
" transform="scale(0.015625)"/>
       </defs>
       <use xlink:href="#DejaVuSans-31" transform="translate(0 0.78125)"/>
       <use xlink:href="#DejaVuSans-2e" transform="translate(63.623047 0.78125)"/>
       <use xlink:href="#DejaVuSans-30" transform="translate(95.410156 0.78125)"/>
      </g>
     </g>
    </g>
    <g id="xtick_4">
     <g id="line2d_5">
      <g>
       <use xlink:href="#md4e69c9db7" x="327.216898" y="258.225354" style="stroke: #000000; stroke-width: 0.5"/>
      </g>
     </g>
     <g id="text_4">
      <!-- $1.5$ -->
      <g transform="translate(320.816898 267.804104)scale(0.08 -0.08)">
       <use xlink:href="#DejaVuSans-31" transform="translate(0 0.09375)"/>
       <use xlink:href="#DejaVuSans-2e" transform="translate(63.623047 0.09375)"/>
       <use xlink:href="#DejaVuSans-35" transform="translate(95.410156 0.09375)"/>
      </g>
     </g>
    </g>
    <g id="xtick_5">
     <g id="line2d_6">
      <g>
       <use xlink:href="#md4e69c9db7" x="422.361999" y="258.225354" style="stroke: #000000; stroke-width: 0.5"/>
      </g>
     </g>
     <g id="text_5">
      <!-- $2.0$ -->
      <g transform="translate(415.961999 267.804104)scale(0.08 -0.08)">
       <defs>
        <path id="DejaVuSans-32" d="M 1228 531 
L 3431 531 
L 3431 0 
L 469 0 
L 469 531 
Q 828 903 1448 1529 
Q 2069 2156 2228 2338 
Q 2531 2678 2651 2914 
Q 2772 3150 2772 3378 
Q 2772 3750 2511 3984 
Q 2250 4219 1831 4219 
Q 1534 4219 1204 4116 
Q 875 4013 500 3803 
L 500 4441 
Q 881 4594 1212 4672 
Q 1544 4750 1819 4750 
Q 2544 4750 2975 4387 
Q 3406 4025 3406 3419 
Q 3406 3131 3298 2873 
Q 3191 2616 2906 2266 
Q 2828 2175 2409 1742 
Q 1991 1309 1228 531 
z
" transform="scale(0.015625)"/>
       </defs>
       <use xlink:href="#DejaVuSans-32" transform="translate(0 0.78125)"/>
       <use xlink:href="#DejaVuSans-2e" transform="translate(63.623047 0.78125)"/>
       <use xlink:href="#DejaVuSans-30" transform="translate(95.410156 0.78125)"/>
      </g>
     </g>
    </g>
    <g id="text_6">
     <!-- Time (s) -->
     <g transform="translate(209.709999 281.826136)scale(0.11 -0.11)">
      <defs>
       <path id="DejaVuSans-54" d="M -19 4666 
L 3928 4666 
L 3928 4134 
L 2272 4134 
L 2272 0 
L 1638 0 
L 1638 4134 
L -19 4134 
L -19 4666 
z
" transform="scale(0.015625)"/>
       <path id="DejaVuSans-69" d="M 603 3500 
L 1178 3500 
L 1178 0 
L 603 0 
L 603 3500 
z
M 603 4863 
L 1178 4863 
L 1178 4134 
L 603 4134 
L 603 4863 
z
" transform="scale(0.015625)"/>
       <path id="DejaVuSans-6d" d="M 3328 2828 
Q 3544 3216 3844 3400 
Q 4144 3584 4550 3584 
Q 5097 3584 5394 3201 
Q 5691 2819 5691 2113 
L 5691 0 
L 5113 0 
L 5113 2094 
Q 5113 2597 4934 2840 
Q 4756 3084 4391 3084 
Q 3944 3084 3684 2787 
Q 3425 2491 3425 1978 
L 3425 0 
L 2847 0 
L 2847 2094 
Q 2847 2600 2669 2842 
Q 2491 3084 2119 3084 
Q 1678 3084 1418 2786 
Q 1159 2488 1159 1978 
L 1159 0 
L 581 0 
L 581 3500 
L 1159 3500 
L 1159 2956 
Q 1356 3278 1631 3431 
Q 1906 3584 2284 3584 
Q 2666 3584 2933 3390 
Q 3200 3197 3328 2828 
z
" transform="scale(0.015625)"/>
       <path id="DejaVuSans-65" d="M 3597 1894 
L 3597 1613 
L 953 1613 
Q 991 1019 1311 708 
Q 1631 397 2203 397 
Q 2534 397 2845 478 
Q 3156 559 3463 722 
L 3463 178 
Q 3153 47 2828 -22 
Q 2503 -91 2169 -91 
Q 1331 -91 842 396 
Q 353 884 353 1716 
Q 353 2575 817 3079 
Q 1281 3584 2069 3584 
Q 2775 3584 3186 3129 
Q 3597 2675 3597 1894 
z
M 3022 2063 
Q 3016 2534 2758 2815 
Q 2500 3097 2075 3097 
Q 1594 3097 1305 2825 
Q 1016 2553 972 2059 
L 3022 2063 
z
" transform="scale(0.015625)"/>
       <path id="DejaVuSans-20" transform="scale(0.015625)"/>
       <path id="DejaVuSans-28" d="M 1984 4856 
Q 1566 4138 1362 3434 
Q 1159 2731 1159 2009 
Q 1159 1288 1364 580 
Q 1569 -128 1984 -844 
L 1484 -844 
Q 1016 -109 783 600 
Q 550 1309 550 2009 
Q 550 2706 781 3412 
Q 1013 4119 1484 4856 
L 1984 4856 
z
" transform="scale(0.015625)"/>
       <path id="DejaVuSans-73" d="M 2834 3397 
L 2834 2853 
Q 2591 2978 2328 3040 
Q 2066 3103 1784 3103 
Q 1356 3103 1142 2972 
Q 928 2841 928 2578 
Q 928 2378 1081 2264 
Q 1234 2150 1697 2047 
L 1894 2003 
Q 2506 1872 2764 1633 
Q 3022 1394 3022 966 
Q 3022 478 2636 193 
Q 2250 -91 1575 -91 
Q 1294 -91 989 -36 
Q 684 19 347 128 
L 347 722 
Q 666 556 975 473 
Q 1284 391 1588 391 
Q 1994 391 2212 530 
Q 2431 669 2431 922 
Q 2431 1156 2273 1281 
Q 2116 1406 1581 1522 
L 1381 1569 
Q 847 1681 609 1914 
Q 372 2147 372 2553 
Q 372 3047 722 3315 
Q 1072 3584 1716 3584 
Q 2034 3584 2315 3537 
Q 2597 3491 2834 3397 
z
" transform="scale(0.015625)"/>
       <path id="DejaVuSans-29" d="M 513 4856 
L 1013 4856 
Q 1481 4119 1714 3412 
Q 1947 2706 1947 2009 
Q 1947 1309 1714 600 
Q 1481 -109 1013 -844 
L 513 -844 
Q 928 -128 1133 580 
Q 1338 1288 1338 2009 
Q 1338 2731 1133 3434 
Q 928 4138 513 4856 
z
" transform="scale(0.015625)"/>
      </defs>
      <use xlink:href="#DejaVuSans-54"/>
      <use xlink:href="#DejaVuSans-69" x="57.958984"/>
      <use xlink:href="#DejaVuSans-6d" x="85.742188"/>
      <use xlink:href="#DejaVuSans-65" x="183.154297"/>
      <use xlink:href="#DejaVuSans-20" x="244.677734"/>
      <use xlink:href="#DejaVuSans-28" x="276.464844"/>
      <use xlink:href="#DejaVuSans-73" x="315.478516"/>
      <use xlink:href="#DejaVuSans-29" x="367.578125"/>
     </g>
    </g>
   </g>
   <g id="matplotlib.axis_2">
    <g id="ytick_1">
     <g id="line2d_7">
      <defs>
       <path id="me3d77bf986" d="M 0 0 
L 2.5 0 
" style="stroke: #000000; stroke-width: 0.5"/>
      </defs>
      <g>
       <use xlink:href="#me3d77bf986" x="41.781593" y="243.514526" style="stroke: #000000; stroke-width: 0.5"/>
      </g>
     </g>
     <g id="text_7">
      <!-- $-20$ -->
      <g transform="translate(21.321593 246.553901)scale(0.08 -0.08)">
       <defs>
        <path id="DejaVuSans-2212" d="M 678 2272 
L 4684 2272 
L 4684 1741 
L 678 1741 
L 678 2272 
z
" transform="scale(0.015625)"/>
       </defs>
       <use xlink:href="#DejaVuSans-2212" transform="translate(0 0.78125)"/>
       <use xlink:href="#DejaVuSans-32" transform="translate(83.789062 0.78125)"/>
       <use xlink:href="#DejaVuSans-30" transform="translate(147.412109 0.78125)"/>
      </g>
     </g>
    </g>
    <g id="ytick_2">
     <g id="line2d_8">
      <g>
       <use xlink:href="#me3d77bf986" x="41.781593" y="187.375782" style="stroke: #000000; stroke-width: 0.5"/>
      </g>
     </g>
     <g id="text_8">
      <!-- $-10$ -->
      <g transform="translate(21.321593 190.415157)scale(0.08 -0.08)">
       <use xlink:href="#DejaVuSans-2212" transform="translate(0 0.78125)"/>
       <use xlink:href="#DejaVuSans-31" transform="translate(83.789062 0.78125)"/>
       <use xlink:href="#DejaVuSans-30" transform="translate(147.412109 0.78125)"/>
      </g>
     </g>
    </g>
    <g id="ytick_3">
     <g id="line2d_9">
      <g>
       <use xlink:href="#me3d77bf986" x="41.781593" y="131.237039" style="stroke: #000000; stroke-width: 0.5"/>
      </g>
     </g>
     <g id="text_9">
      <!-- $0$ -->
      <g transform="translate(33.161593 134.276414)scale(0.08 -0.08)">
       <use xlink:href="#DejaVuSans-30" transform="translate(0 0.78125)"/>
      </g>
     </g>
    </g>
    <g id="ytick_4">
     <g id="line2d_10">
      <g>
       <use xlink:href="#me3d77bf986" x="41.781593" y="75.098295" style="stroke: #000000; stroke-width: 0.5"/>
      </g>
     </g>
     <g id="text_10">
      <!-- $10$ -->
      <g transform="translate(28.041593 78.13767)scale(0.08 -0.08)">
       <use xlink:href="#DejaVuSans-31" transform="translate(0 0.78125)"/>
       <use xlink:href="#DejaVuSans-30" transform="translate(63.623047 0.78125)"/>
      </g>
     </g>
    </g>
    <g id="ytick_5">
     <g id="line2d_11">
      <g>
       <use xlink:href="#me3d77bf986" x="41.781593" y="18.959551" style="stroke: #000000; stroke-width: 0.5"/>
      </g>
     </g>
     <g id="text_11">
      <!-- $20$ -->
      <g transform="translate(28.041593 21.998926)scale(0.08 -0.08)">
       <use xlink:href="#DejaVuSans-32" transform="translate(0 0.78125)"/>
       <use xlink:href="#DejaVuSans-30" transform="translate(63.623047 0.78125)"/>
      </g>
     </g>
    </g>
    <g id="text_12">
     <!-- Rodriguez Parameter $\theta_x$ (degree) -->
     <g transform="translate(15.011593 221.885)rotate(-90)scale(0.11 -0.11)">
      <defs>
       <path id="DejaVuSans-52" d="M 2841 2188 
Q 3044 2119 3236 1894 
Q 3428 1669 3622 1275 
L 4263 0 
L 3584 0 
L 2988 1197 
Q 2756 1666 2539 1819 
Q 2322 1972 1947 1972 
L 1259 1972 
L 1259 0 
L 628 0 
L 628 4666 
L 2053 4666 
Q 2853 4666 3247 4331 
Q 3641 3997 3641 3322 
Q 3641 2881 3436 2590 
Q 3231 2300 2841 2188 
z
M 1259 4147 
L 1259 2491 
L 2053 2491 
Q 2509 2491 2742 2702 
Q 2975 2913 2975 3322 
Q 2975 3731 2742 3939 
Q 2509 4147 2053 4147 
L 1259 4147 
z
" transform="scale(0.015625)"/>
       <path id="DejaVuSans-6f" d="M 1959 3097 
Q 1497 3097 1228 2736 
Q 959 2375 959 1747 
Q 959 1119 1226 758 
Q 1494 397 1959 397 
Q 2419 397 2687 759 
Q 2956 1122 2956 1747 
Q 2956 2369 2687 2733 
Q 2419 3097 1959 3097 
z
M 1959 3584 
Q 2709 3584 3137 3096 
Q 3566 2609 3566 1747 
Q 3566 888 3137 398 
Q 2709 -91 1959 -91 
Q 1206 -91 779 398 
Q 353 888 353 1747 
Q 353 2609 779 3096 
Q 1206 3584 1959 3584 
z
" transform="scale(0.015625)"/>
       <path id="DejaVuSans-64" d="M 2906 2969 
L 2906 4863 
L 3481 4863 
L 3481 0 
L 2906 0 
L 2906 525 
Q 2725 213 2448 61 
Q 2172 -91 1784 -91 
Q 1150 -91 751 415 
Q 353 922 353 1747 
Q 353 2572 751 3078 
Q 1150 3584 1784 3584 
Q 2172 3584 2448 3432 
Q 2725 3281 2906 2969 
z
M 947 1747 
Q 947 1113 1208 752 
Q 1469 391 1925 391 
Q 2381 391 2643 752 
Q 2906 1113 2906 1747 
Q 2906 2381 2643 2742 
Q 2381 3103 1925 3103 
Q 1469 3103 1208 2742 
Q 947 2381 947 1747 
z
" transform="scale(0.015625)"/>
       <path id="DejaVuSans-72" d="M 2631 2963 
Q 2534 3019 2420 3045 
Q 2306 3072 2169 3072 
Q 1681 3072 1420 2755 
Q 1159 2438 1159 1844 
L 1159 0 
L 581 0 
L 581 3500 
L 1159 3500 
L 1159 2956 
Q 1341 3275 1631 3429 
Q 1922 3584 2338 3584 
Q 2397 3584 2469 3576 
Q 2541 3569 2628 3553 
L 2631 2963 
z
" transform="scale(0.015625)"/>
       <path id="DejaVuSans-67" d="M 2906 1791 
Q 2906 2416 2648 2759 
Q 2391 3103 1925 3103 
Q 1463 3103 1205 2759 
Q 947 2416 947 1791 
Q 947 1169 1205 825 
Q 1463 481 1925 481 
Q 2391 481 2648 825 
Q 2906 1169 2906 1791 
z
M 3481 434 
Q 3481 -459 3084 -895 
Q 2688 -1331 1869 -1331 
Q 1566 -1331 1297 -1286 
Q 1028 -1241 775 -1147 
L 775 -588 
Q 1028 -725 1275 -790 
Q 1522 -856 1778 -856 
Q 2344 -856 2625 -561 
Q 2906 -266 2906 331 
L 2906 616 
Q 2728 306 2450 153 
Q 2172 0 1784 0 
Q 1141 0 747 490 
Q 353 981 353 1791 
Q 353 2603 747 3093 
Q 1141 3584 1784 3584 
Q 2172 3584 2450 3431 
Q 2728 3278 2906 2969 
L 2906 3500 
L 3481 3500 
L 3481 434 
z
" transform="scale(0.015625)"/>
       <path id="DejaVuSans-75" d="M 544 1381 
L 544 3500 
L 1119 3500 
L 1119 1403 
Q 1119 906 1312 657 
Q 1506 409 1894 409 
Q 2359 409 2629 706 
Q 2900 1003 2900 1516 
L 2900 3500 
L 3475 3500 
L 3475 0 
L 2900 0 
L 2900 538 
Q 2691 219 2414 64 
Q 2138 -91 1772 -91 
Q 1169 -91 856 284 
Q 544 659 544 1381 
z
M 1991 3584 
L 1991 3584 
z
" transform="scale(0.015625)"/>
       <path id="DejaVuSans-7a" d="M 353 3500 
L 3084 3500 
L 3084 2975 
L 922 459 
L 3084 459 
L 3084 0 
L 275 0 
L 275 525 
L 2438 3041 
L 353 3041 
L 353 3500 
z
" transform="scale(0.015625)"/>
       <path id="DejaVuSans-50" d="M 1259 4147 
L 1259 2394 
L 2053 2394 
Q 2494 2394 2734 2622 
Q 2975 2850 2975 3272 
Q 2975 3691 2734 3919 
Q 2494 4147 2053 4147 
L 1259 4147 
z
M 628 4666 
L 2053 4666 
Q 2838 4666 3239 4311 
Q 3641 3956 3641 3272 
Q 3641 2581 3239 2228 
Q 2838 1875 2053 1875 
L 1259 1875 
L 1259 0 
L 628 0 
L 628 4666 
z
" transform="scale(0.015625)"/>
       <path id="DejaVuSans-61" d="M 2194 1759 
Q 1497 1759 1228 1600 
Q 959 1441 959 1056 
Q 959 750 1161 570 
Q 1363 391 1709 391 
Q 2188 391 2477 730 
Q 2766 1069 2766 1631 
L 2766 1759 
L 2194 1759 
z
M 3341 1997 
L 3341 0 
L 2766 0 
L 2766 531 
Q 2569 213 2275 61 
Q 1981 -91 1556 -91 
Q 1019 -91 701 211 
Q 384 513 384 1019 
Q 384 1609 779 1909 
Q 1175 2209 1959 2209 
L 2766 2209 
L 2766 2266 
Q 2766 2663 2505 2880 
Q 2244 3097 1772 3097 
Q 1472 3097 1187 3025 
Q 903 2953 641 2809 
L 641 3341 
Q 956 3463 1253 3523 
Q 1550 3584 1831 3584 
Q 2591 3584 2966 3190 
Q 3341 2797 3341 1997 
z
" transform="scale(0.015625)"/>
       <path id="DejaVuSans-74" d="M 1172 4494 
L 1172 3500 
L 2356 3500 
L 2356 3053 
L 1172 3053 
L 1172 1153 
Q 1172 725 1289 603 
Q 1406 481 1766 481 
L 2356 481 
L 2356 0 
L 1766 0 
Q 1100 0 847 248 
Q 594 497 594 1153 
L 594 3053 
L 172 3053 
L 172 3500 
L 594 3500 
L 594 4494 
L 1172 4494 
z
" transform="scale(0.015625)"/>
       <path id="DejaVuSans-Oblique-3b8" d="M 2913 2219 
L 925 2219 
Q 791 1284 928 888 
Q 1100 400 1566 400 
Q 2034 400 2391 891 
Q 2703 1322 2913 2219 
z
M 3009 2750 
Q 3094 3638 2984 3950 
Q 2813 4444 2353 4444 
Q 1875 4444 1525 3956 
Q 1250 3563 1034 2750 
L 3009 2750 
z
M 2444 4913 
Q 3194 4913 3494 4250 
Q 3794 3591 3566 2422 
Q 3341 1256 2781 594 
Q 2225 -72 1475 -72 
Q 722 -72 425 594 
Q 128 1256 353 2422 
Q 581 3591 1134 4250 
Q 1691 4913 2444 4913 
z
" transform="scale(0.015625)"/>
       <path id="DejaVuSans-Oblique-78" d="M 3841 3500 
L 2234 1784 
L 3219 0 
L 2559 0 
L 1819 1388 
L 531 0 
L -166 0 
L 1556 1844 
L 641 3500 
L 1300 3500 
L 1972 2234 
L 3144 3500 
L 3841 3500 
z
" transform="scale(0.015625)"/>
      </defs>
      <use xlink:href="#DejaVuSans-52" transform="translate(0 0.234375)"/>
      <use xlink:href="#DejaVuSans-6f" transform="translate(69.482422 0.234375)"/>
      <use xlink:href="#DejaVuSans-64" transform="translate(130.664062 0.234375)"/>
      <use xlink:href="#DejaVuSans-72" transform="translate(194.140625 0.234375)"/>
      <use xlink:href="#DejaVuSans-69" transform="translate(235.253906 0.234375)"/>
      <use xlink:href="#DejaVuSans-67" transform="translate(263.037109 0.234375)"/>
      <use xlink:href="#DejaVuSans-75" transform="translate(326.513672 0.234375)"/>
      <use xlink:href="#DejaVuSans-65" transform="translate(389.892578 0.234375)"/>
      <use xlink:href="#DejaVuSans-7a" transform="translate(451.416016 0.234375)"/>
      <use xlink:href="#DejaVuSans-20" transform="translate(503.90625 0.234375)"/>
      <use xlink:href="#DejaVuSans-50" transform="translate(535.693359 0.234375)"/>
      <use xlink:href="#DejaVuSans-61" transform="translate(595.996094 0.234375)"/>
      <use xlink:href="#DejaVuSans-72" transform="translate(657.275391 0.234375)"/>
      <use xlink:href="#DejaVuSans-61" transform="translate(698.388672 0.234375)"/>
      <use xlink:href="#DejaVuSans-6d" transform="translate(759.667969 0.234375)"/>
      <use xlink:href="#DejaVuSans-65" transform="translate(857.080078 0.234375)"/>
      <use xlink:href="#DejaVuSans-74" transform="translate(918.603516 0.234375)"/>
      <use xlink:href="#DejaVuSans-65" transform="translate(957.8125 0.234375)"/>
      <use xlink:href="#DejaVuSans-72" transform="translate(1019.335938 0.234375)"/>
      <use xlink:href="#DejaVuSans-20" transform="translate(1060.449219 0.234375)"/>
      <use xlink:href="#DejaVuSans-Oblique-3b8" transform="translate(1092.236328 0.234375)"/>
      <use xlink:href="#DejaVuSans-Oblique-78" transform="translate(1153.417969 -16.171875)scale(0.7)"/>
      <use xlink:href="#DejaVuSans-20" transform="translate(1197.578125 0.234375)"/>
      <use xlink:href="#DejaVuSans-28" transform="translate(1229.365234 0.234375)"/>
      <use xlink:href="#DejaVuSans-64" transform="translate(1268.378906 0.234375)"/>
      <use xlink:href="#DejaVuSans-65" transform="translate(1331.855469 0.234375)"/>
      <use xlink:href="#DejaVuSans-67" transform="translate(1393.378906 0.234375)"/>
      <use xlink:href="#DejaVuSans-72" transform="translate(1456.855469 0.234375)"/>
      <use xlink:href="#DejaVuSans-65" transform="translate(1497.96875 0.234375)"/>
      <use xlink:href="#DejaVuSans-65" transform="translate(1559.492188 0.234375)"/>
      <use xlink:href="#DejaVuSans-29" transform="translate(1621.015625 0.234375)"/>
     </g>
    </g>
   </g>
   <g id="line2d_12">
    <path d="M 41.781593 131.237039 
L 42.852029 131.34627 
L 43.917703 131.684165 
L 44.956435 132.247104 
L 46.086346 133.101294 
L 47.479322 134.457189 
L 48.858549 136.187273 
L 50.435899 138.462154 
L 52.250073 141.513028 
L 54.627442 145.887091 
L 60.898828 157.447552 
L 62.30234 159.241148 
L 65.896158 163.229825 
L 67.032177 164.128139 
L 67.860633 164.53966 
L 68.578401 164.675076 
L 69.258342 164.576978 
L 69.83027 164.282672 
L 70.653571 163.551117 
L 71.560841 162.392804 
L 72.538742 160.721531 
L 73.49165 158.646429 
L 74.717845 155.38434 
L 76.222234 150.577522 
L 78.014859 144.089048 
L 80.508775 134.135717 
L 83.629269 121.582025 
L 85.359549 115.640034 
L 87.34943 109.688308 
L 89.951609 102.666119 
L 91.587804 98.761906 
L 92.596976 96.844553 
L 93.592827 95.44792 
L 94.476337 94.630443 
L 95.293743 94.221743 
L 95.923736 94.151778 
L 96.504082 94.294181 
L 97.033696 94.605173 
L 97.615034 95.144409 
L 98.495149 96.333634 
L 99.419216 98.024591 
L 100.663114 100.937962 
L 101.904215 104.47852 
L 103.503181 109.782768 
L 105.762117 118.172776 
L 108.711413 129.063645 
L 110.54996 134.980344 
L 112.985575 141.898797 
L 115.486175 148.461299 
L 121.698578 164.001149 
L 123.094203 168.391687 
L 124.888454 174.782723 
L 127.420935 183.847251 
L 128.390443 186.559684 
L 129.096995 188.018121 
L 129.735667 188.891368 
L 130.267348 189.275032 
L 130.737249 189.351219 
L 131.223715 189.174934 
L 131.767525 188.682711 
L 132.306064 187.905292 
L 132.930796 186.667399 
L 133.891009 184.117816 
L 134.869665 180.7731 
L 136.068104 175.713803 
L 137.373504 169.058385 
L 138.928131 159.638603 
L 140.418179 149.140083 
L 142.355808 133.775339 
L 145.285156 110.406618 
L 146.648134 101.171991 
L 147.827362 94.540531 
L 148.808287 90.051597 
L 149.813475 86.387215 
L 150.738312 83.819406 
L 151.451863 82.365367 
L 152.162676 81.386988 
L 152.750414 80.940397 
L 153.263555 80.819126 
L 153.794518 80.949753 
L 154.327044 81.325782 
L 154.850986 81.908517 
L 155.748693 83.284033 
L 158.085729 87.303384 
L 158.838899 88.108819 
L 159.399447 88.421387 
L 160.044595 88.459581 
L 160.544513 88.267763 
L 161.356732 87.640796 
L 163.000597 86.142716 
L 163.530025 85.938577 
L 164.06015 86.024349 
L 164.563862 86.445489 
L 165.097295 87.313385 
L 165.629568 88.656057 
L 166.185409 90.593235 
L 166.951572 94.163627 
L 167.726903 98.780469 
L 168.83707 106.873047 
L 170.352285 119.784202 
L 173.831892 149.975564 
L 175.251789 160.086264 
L 176.412566 166.627033 
L 177.206615 169.98412 
L 177.766198 171.722836 
L 178.363851 172.955539 
L 178.964106 173.511124 
L 179.24447 173.532078 
L 179.499837 173.419829 
L 180.007124 172.836396 
L 180.507806 171.823452 
L 181.262481 169.617214 
L 183.863561 161.030103 
L 184.208492 160.541443 
L 184.593947 160.375251 
L 184.784892 160.459367 
L 185.001684 160.699369 
L 185.436476 161.671474 
L 185.853078 163.247146 
L 186.533575 167.201448 
L 187.234674 172.95782 
L 188.260836 183.751821 
L 190.425646 207.714851 
L 191.149638 213.275531 
L 191.59429 215.586107 
L 192.083663 217.034592 
L 192.386335 217.334357 
L 192.537154 217.312673 
L 192.861686 216.885336 
L 193.198086 215.910173 
L 193.754979 213.195939 
L 194.361061 208.913386 
L 195.322207 200.211652 
L 197.25346 182.123858 
L 198.177767 175.70083 
L 198.97564 171.672854 
L 199.799325 168.65875 
L 200.897015 165.629347 
L 202.092953 162.900619 
L 202.916829 161.481954 
L 203.549077 160.847305 
L 204.109913 160.685219 
L 204.563632 160.817206 
L 205.2645 161.335292 
L 206.170086 161.988323 
L 206.463773 162.032945 
L 206.822165 161.878538 
L 207.197432 161.399386 
L 207.530868 160.645644 
L 207.903575 159.384668 
L 208.436891 156.73345 
L 209.005794 152.753578 
L 209.702955 146.314793 
L 210.62793 135.609224 
L 213.901397 94.926213 
L 214.614535 89.115387 
L 215.16965 86.058123 
L 215.53384 84.818816 
L 215.918039 84.188024 
L 216.112519 84.131105 
L 216.456266 84.446575 
L 216.840334 85.383121 
L 217.364934 87.50433 
L 218.17294 91.959195 
L 219.202672 97.397358 
L 219.670048 98.890769 
L 220.051746 99.388307 
L 220.217469 99.379637 
L 220.540888 98.958807 
L 220.892829 97.908858 
L 221.387057 95.51359 
L 222.267431 89.538533 
L 223.336253 82.285066 
L 223.98015 79.366626 
L 224.410816 78.284628 
L 224.695154 77.953923 
L 224.994986 77.905466 
L 225.269976 78.093771 
L 225.757278 78.827089 
L 226.955316 80.974499 
L 227.257753 81.174543 
L 227.582607 81.09586 
L 227.900328 80.679777 
L 228.249784 79.808921 
L 228.739367 77.875928 
L 229.361391 74.413502 
L 231.406752 61.705001 
L 231.888903 60.046825 
L 232.250092 59.436315 
L 232.418208 59.351095 
L 232.594153 59.400609 
L 232.78267 59.611574 
L 233.150591 60.486896 
L 233.563749 62.166148 
L 234.216782 66.150492 
L 234.975263 72.422992 
L 236.163482 84.615531 
L 238.649755 111.203543 
L 239.439429 116.934878 
L 240.038636 119.874973 
L 240.500874 121.37754 
L 240.968292 122.343518 
L 241.443249 122.923399 
L 242.553727 124.040419 
L 242.90978 124.775857 
L 243.284122 125.979829 
L 243.66628 127.795036 
L 244.231584 131.769962 
L 244.925945 138.928964 
L 245.597807 148.109555 
L 246.585507 164.62913 
L 249.100982 208.303097 
L 249.898878 217.773613 
L 250.551289 223.187064 
L 251.174408 226.566325 
L 251.64072 228.063717 
L 251.989461 228.628209 
L 252.317857 228.7142 
L 252.642215 228.351435 
L 252.950024 227.570277 
L 253.408134 225.574443 
L 253.867466 222.551518 
L 254.49708 216.843864 
L 255.477721 205.188461 
L 257.515814 179.651591 
L 258.018331 175.675067 
L 258.371891 173.963852 
L 258.73541 173.260131 
L 258.884391 173.294069 
L 259.037336 173.526031 
L 259.361352 174.670583 
L 259.836448 177.881655 
L 260.388677 183.629895 
L 261.161356 194.298 
L 263.060089 222.041325 
L 263.663466 227.835798 
L 264.176981 230.74389 
L 264.476882 231.528337 
L 264.727238 231.674742 
L 265.005668 231.315095 
L 265.281225 230.443961 
L 265.677581 228.34979 
L 266.239012 223.822285 
L 266.97792 215.369369 
L 267.873905 202.11496 
L 270.524881 160.676531 
L 271.4855 149.622783 
L 272.461856 141.032956 
L 273.653007 132.906957 
L 275.060702 124.863167 
L 275.716094 122.375046 
L 276.118754 121.674445 
L 276.343585 121.629588 
L 276.592671 121.901515 
L 276.85489 122.570506 
L 277.307625 124.665431 
L 277.747814 127.821555 
L 278.379874 134.148908 
L 279.127075 143.989687 
L 280.369271 163.839023 
L 281.515605 181.361141 
L 282.198969 189.149276 
L 282.808689 193.664571 
L 283.245743 195.381859 
L 283.54179 195.830997 
L 283.69097 195.844775 
L 284.002056 195.430533 
L 284.292583 194.523908 
L 284.814987 191.720996 
L 285.447854 186.543857 
L 286.26014 177.705227 
L 287.47586 161.642878 
L 288.664785 143.035743 
L 289.840657 120.674597 
L 291.459928 84.83007 
L 292.852601 55.740053 
L 293.54029 45.380218 
L 294.057571 40.380964 
L 294.453609 38.344608 
L 294.759246 37.824301 
L 294.942522 37.927782 
L 295.184086 38.501316 
L 295.582284 40.40053 
L 296.131142 44.554589 
L 296.976921 53.295384 
L 298.001031 66.500683 
L 299.438779 88.532431 
L 300.5669 104.49944 
L 301.122106 109.91565 
L 301.595162 112.553955 
L 301.836853 113.10425 
L 302.056532 113.117024 
L 302.270559 112.682091 
L 302.558678 111.415744 
L 302.923369 108.766002 
L 303.500978 102.580116 
L 304.443612 89.480676 
L 305.723398 72.245177 
L 306.652598 62.809574 
L 307.392406 57.318013 
L 307.918167 54.738452 
L 308.405903 53.474427 
L 308.744813 53.174669 
L 309.073419 53.189715 
L 309.611109 53.336502 
L 309.856038 53.223955 
L 310.155523 52.768643 
L 310.49763 51.698129 
L 310.887232 49.69272 
L 311.435297 45.543787 
L 312.334599 36.452177 
L 313.332328 26.754511 
L 313.804836 23.992631 
L 314.096173 23.234261 
L 314.299015 23.197115 
L 314.482259 23.534553 
L 314.79521 24.96686 
L 315.122508 27.667031 
L 315.555645 33.181949 
L 316.113659 43.4902 
L 316.905062 63.139389 
L 318.691971 109.61426 
L 319.2958 119.46197 
L 319.723244 123.072932 
L 319.944514 123.679325 
L 320.057225 123.6441 
L 320.271521 122.938388 
L 320.619234 120.084222 
L 321.020353 114.469397 
L 321.634628 102.350841 
L 323.857442 54.693964 
L 324.258916 50.648682 
L 324.580414 49.323448 
L 324.673706 49.274189 
L 324.854087 49.608904 
L 325.122933 51.143313 
L 325.46465 54.803676 
L 325.904819 62.119818 
L 326.45809 75.07715 
L 327.218318 98.70016 
L 329.288631 167.229159 
L 329.799932 176.020315 
L 330.16082 179.085505 
L 330.342535 179.649995 
L 330.438547 179.692076 
L 330.534417 179.563121 
L 330.744103 178.71658 
L 331.069875 176.047908 
L 331.627119 168.956031 
L 332.618323 156.364004 
L 333.003404 153.554603 
L 333.355666 152.397489 
L 333.536018 152.34361 
L 333.725381 152.678257 
L 334.053585 154.185731 
L 334.460766 157.600573 
L 334.938567 163.529987 
L 335.723404 176.548743 
L 337.379027 205.286821 
L 338.093792 213.587647 
L 338.562641 216.927523 
L 338.935194 218.379911 
L 339.199795 218.770479 
L 339.393265 218.709416 
L 339.602944 218.299246 
L 339.895114 217.107976 
L 340.250609 214.6545 
L 340.766452 209.140389 
L 341.471257 198.508768 
L 342.469615 183.245486 
L 342.920133 179.43301 
L 343.190929 178.473017 
L 343.358888 178.352338 
L 343.498778 178.502023 
L 343.729573 179.180386 
L 344.075993 180.994759 
L 344.734079 186.034876 
L 345.663573 194.969575 
L 346.429693 204.503055 
L 347.193133 216.91015 
L 348.836699 245.370071 
L 349.305277 249.534268 
L 349.593593 250.744956 
L 349.783492 250.997315 
L 349.978143 250.82794 
L 350.256625 249.872534 
L 350.585767 247.73297 
L 351.079543 242.667376 
L 351.732915 233.127 
L 353.401224 206.680197 
L 353.878563 202.410617 
L 354.334349 200.129605 
L 354.642443 199.571927 
L 354.804062 199.60693 
L 355.042332 200.074463 
L 355.370207 201.504364 
L 355.8287 204.87808 
L 356.415767 211.195369 
L 357.218961 222.757937 
L 358.336524 238.819908 
L 358.748747 242.028438 
L 358.98044 242.665001 
L 359.119738 242.593811 
L 359.30412 241.967971 
L 359.573612 240.028609 
L 360.000678 235.027382 
L 362.097493 207.306305 
L 362.785297 201.726517 
L 363.188392 199.736337 
L 363.489987 199.109103 
L 363.686452 199.12095 
L 363.886438 199.43342 
L 364.289625 200.684367 
L 365.195348 204.540626 
L 367.13047 213.637477 
L 367.582749 214.592116 
L 367.797743 214.724954 
L 367.998226 214.582084 
L 368.212657 214.068935 
L 368.510522 212.572591 
L 368.875481 209.16698 
L 369.279571 202.972385 
L 369.850284 189.949092 
L 371.727022 142.199335 
L 372.377767 133.100461 
L 373.231093 124.72644 
L 373.855408 120.198102 
L 374.270568 118.371761 
L 374.557534 117.83356 
L 374.713835 117.84385 
L 374.922305 118.25798 
L 375.208098 119.69749 
L 375.540906 122.788167 
L 376.07537 130.568721 
L 377.516363 153.544121 
L 377.879268 156.094406 
L 378.107282 156.62041 
L 378.21304 156.594639 
L 378.399351 156.171422 
L 378.669657 154.80036 
L 379.071412 151.288776 
L 379.466281 146.00179 
L 379.993178 135.691704 
L 380.88088 112.560825 
L 382.663589 66.030721 
L 383.373484 54.08413 
L 383.926325 47.777897 
L 384.271502 45.663319 
L 384.548472 45.070784 
L 384.680489 45.102053 
L 384.890525 45.51563 
L 385.193337 46.818666 
L 385.58474 49.767622 
L 386.023814 54.925911 
L 387.459333 73.679218 
L 387.762575 75.302635 
L 387.963522 75.604204 
L 388.092465 75.442072 
L 388.291746 74.639994 
L 388.606303 72.137522 
L 389.102293 66.050363 
L 389.831226 54.344037 
L 391.446485 26.523208 
L 392.011075 21.264922 
L 392.400947 19.277066 
L 392.685557 18.681054 
L 392.90482 18.682562 
L 393.130261 19.061329 
L 393.423522 20.06433 
L 393.80182 22.168793 
L 394.289683 26.354046 
L 394.889797 33.706087 
L 397.100933 63.34339 
L 397.330984 64.180959 
L 397.461782 64.243568 
L 397.577811 64.030525 
L 397.757491 63.190112 
L 398.014968 60.934968 
L 398.439575 54.956654 
L 399.292216 38.624383 
L 400.106139 24.261705 
L 400.585021 19.126047 
L 401.048758 16.244563 
L 401.617604 14.06043 
L 401.996961 13.379188 
L 402.246233 13.30461 
L 402.512072 13.486721 
L 402.84806 14.06047 
L 403.166376 15.098886 
L 403.503662 16.997597 
L 403.940071 20.866332 
L 404.517068 28.353469 
L 405.13364 39.55162 
L 407.074316 78.045569 
L 407.502483 81.712716 
L 407.780635 82.540095 
L 407.915735 82.504311 
L 408.117844 81.982206 
L 408.491288 79.973466 
L 409.748985 70.838715 
L 410.796649 62.988021 
L 411.420757 56.170132 
L 412.942185 37.972827 
L 413.268929 36.48891 
L 413.453741 36.302571 
L 413.582168 36.451063 
L 413.821203 37.312244 
L 414.140698 39.538175 
L 414.631108 44.77816 
L 415.328044 54.946328 
L 416.86303 78.56175 
L 417.350887 82.953575 
L 417.65381 84.242649 
L 417.864962 84.440738 
L 418.001342 84.291243 
L 418.219459 83.68736 
L 418.780212 81.127294 
L 419.25103 79.32078 
L 419.551585 78.905517 
L 419.707763 79.019709 
L 419.934687 79.67098 
L 420.255025 81.703088 
L 420.647868 86.067004 
L 421.247877 95.769136 
L 422.361999 115.634593 
L 422.361999 115.634593 
" clip-path="url(#p992173dd7d)" style="fill: none; stroke: #e36f47"/>
   </g>
   <g id="patch_3">
    <path d="M 41.781593 258.225354 
L 41.781593 2.834646 
" style="fill: none; stroke: #000000; stroke-linejoin: miter; stroke-linecap: square"/>
   </g>
   <g id="patch_4">
    <path d="M 41.781593 258.225354 
L 422.361999 258.225354 
" style="fill: none; stroke: #000000; stroke-linejoin: miter; stroke-linecap: square"/>
   </g>
   <g id="legend_1">
    <g id="patch_5">
     <path d="M 299.041999 39.119646 
L 418.361999 39.119646 
L 418.361999 6.834646 
L 299.041999 6.834646 
z
" style="fill: #ffffff; stroke: #000000; stroke-linejoin: miter"/>
    </g>
    <g id="line2d_13">
     <path d="M 305.441999 16.513396 
L 313.441999 16.513396 
L 321.441999 16.513396 
" style="fill: none; stroke: #009afa; stroke-linejoin: miter"/>
    </g>
    <g id="text_13">
     <!-- GXBeam -->
     <g transform="translate(327.841999 19.313396)scale(0.08 -0.08)">
      <defs>
       <path id="DejaVuSans-47" d="M 3809 666 
L 3809 1919 
L 2778 1919 
L 2778 2438 
L 4434 2438 
L 4434 434 
Q 4069 175 3628 42 
Q 3188 -91 2688 -91 
Q 1594 -91 976 548 
Q 359 1188 359 2328 
Q 359 3472 976 4111 
Q 1594 4750 2688 4750 
Q 3144 4750 3555 4637 
Q 3966 4525 4313 4306 
L 4313 3634 
Q 3963 3931 3569 4081 
Q 3175 4231 2741 4231 
Q 1884 4231 1454 3753 
Q 1025 3275 1025 2328 
Q 1025 1384 1454 906 
Q 1884 428 2741 428 
Q 3075 428 3337 486 
Q 3600 544 3809 666 
z
" transform="scale(0.015625)"/>
       <path id="DejaVuSans-58" d="M 403 4666 
L 1081 4666 
L 2241 2931 
L 3406 4666 
L 4084 4666 
L 2584 2425 
L 4184 0 
L 3506 0 
L 2194 1984 
L 872 0 
L 191 0 
L 1856 2491 
L 403 4666 
z
" transform="scale(0.015625)"/>
       <path id="DejaVuSans-42" d="M 1259 2228 
L 1259 519 
L 2272 519 
Q 2781 519 3026 730 
Q 3272 941 3272 1375 
Q 3272 1813 3026 2020 
Q 2781 2228 2272 2228 
L 1259 2228 
z
M 1259 4147 
L 1259 2741 
L 2194 2741 
Q 2656 2741 2882 2914 
Q 3109 3088 3109 3444 
Q 3109 3797 2882 3972 
Q 2656 4147 2194 4147 
L 1259 4147 
z
M 628 4666 
L 2241 4666 
Q 2963 4666 3353 4366 
Q 3744 4066 3744 3513 
Q 3744 3084 3544 2831 
Q 3344 2578 2956 2516 
Q 3422 2416 3680 2098 
Q 3938 1781 3938 1306 
Q 3938 681 3513 340 
Q 3088 0 2303 0 
L 628 0 
L 628 4666 
z
" transform="scale(0.015625)"/>
      </defs>
      <use xlink:href="#DejaVuSans-47"/>
      <use xlink:href="#DejaVuSans-58" x="77.490234"/>
      <use xlink:href="#DejaVuSans-42" x="145.996094"/>
      <use xlink:href="#DejaVuSans-65" x="214.599609"/>
      <use xlink:href="#DejaVuSans-61" x="276.123047"/>
      <use xlink:href="#DejaVuSans-6d" x="337.402344"/>
     </g>
    </g>
    <g id="line2d_14">
     <path d="M 305.441999 28.255896 
L 313.441999 28.255896 
L 321.441999 28.255896 
" style="fill: none; stroke: #e36f47; stroke-linejoin: miter"/>
    </g>
    <g id="text_14">
     <!-- DifferentialEquations -->
     <g transform="translate(327.841999 31.055896)scale(0.08 -0.08)">
      <defs>
       <path id="DejaVuSans-44" d="M 1259 4147 
L 1259 519 
L 2022 519 
Q 2988 519 3436 956 
Q 3884 1394 3884 2338 
Q 3884 3275 3436 3711 
Q 2988 4147 2022 4147 
L 1259 4147 
z
M 628 4666 
L 1925 4666 
Q 3281 4666 3915 4102 
Q 4550 3538 4550 2338 
Q 4550 1131 3912 565 
Q 3275 0 1925 0 
L 628 0 
L 628 4666 
z
" transform="scale(0.015625)"/>
       <path id="DejaVuSans-66" d="M 2375 4863 
L 2375 4384 
L 1825 4384 
Q 1516 4384 1395 4259 
Q 1275 4134 1275 3809 
L 1275 3500 
L 2222 3500 
L 2222 3053 
L 1275 3053 
L 1275 0 
L 697 0 
L 697 3053 
L 147 3053 
L 147 3500 
L 697 3500 
L 697 3744 
Q 697 4328 969 4595 
Q 1241 4863 1831 4863 
L 2375 4863 
z
" transform="scale(0.015625)"/>
       <path id="DejaVuSans-6e" d="M 3513 2113 
L 3513 0 
L 2938 0 
L 2938 2094 
Q 2938 2591 2744 2837 
Q 2550 3084 2163 3084 
Q 1697 3084 1428 2787 
Q 1159 2491 1159 1978 
L 1159 0 
L 581 0 
L 581 3500 
L 1159 3500 
L 1159 2956 
Q 1366 3272 1645 3428 
Q 1925 3584 2291 3584 
Q 2894 3584 3203 3211 
Q 3513 2838 3513 2113 
z
" transform="scale(0.015625)"/>
       <path id="DejaVuSans-6c" d="M 603 4863 
L 1178 4863 
L 1178 0 
L 603 0 
L 603 4863 
z
" transform="scale(0.015625)"/>
       <path id="DejaVuSans-45" d="M 628 4666 
L 3578 4666 
L 3578 4134 
L 1259 4134 
L 1259 2753 
L 3481 2753 
L 3481 2222 
L 1259 2222 
L 1259 531 
L 3634 531 
L 3634 0 
L 628 0 
L 628 4666 
z
" transform="scale(0.015625)"/>
       <path id="DejaVuSans-71" d="M 947 1747 
Q 947 1113 1208 752 
Q 1469 391 1925 391 
Q 2381 391 2643 752 
Q 2906 1113 2906 1747 
Q 2906 2381 2643 2742 
Q 2381 3103 1925 3103 
Q 1469 3103 1208 2742 
Q 947 2381 947 1747 
z
M 2906 525 
Q 2725 213 2448 61 
Q 2172 -91 1784 -91 
Q 1150 -91 751 415 
Q 353 922 353 1747 
Q 353 2572 751 3078 
Q 1150 3584 1784 3584 
Q 2172 3584 2448 3432 
Q 2725 3281 2906 2969 
L 2906 3500 
L 3481 3500 
L 3481 -1331 
L 2906 -1331 
L 2906 525 
z
" transform="scale(0.015625)"/>
      </defs>
      <use xlink:href="#DejaVuSans-44"/>
      <use xlink:href="#DejaVuSans-69" x="77.001953"/>
      <use xlink:href="#DejaVuSans-66" x="104.785156"/>
      <use xlink:href="#DejaVuSans-66" x="139.990234"/>
      <use xlink:href="#DejaVuSans-65" x="175.195312"/>
      <use xlink:href="#DejaVuSans-72" x="236.71875"/>
      <use xlink:href="#DejaVuSans-65" x="275.582031"/>
      <use xlink:href="#DejaVuSans-6e" x="337.105469"/>
      <use xlink:href="#DejaVuSans-74" x="400.484375"/>
      <use xlink:href="#DejaVuSans-69" x="439.693359"/>
      <use xlink:href="#DejaVuSans-61" x="467.476562"/>
      <use xlink:href="#DejaVuSans-6c" x="528.755859"/>
      <use xlink:href="#DejaVuSans-45" x="556.539062"/>
      <use xlink:href="#DejaVuSans-71" x="619.722656"/>
      <use xlink:href="#DejaVuSans-75" x="683.199219"/>
      <use xlink:href="#DejaVuSans-61" x="746.578125"/>
      <use xlink:href="#DejaVuSans-74" x="807.857422"/>
      <use xlink:href="#DejaVuSans-69" x="847.066406"/>
      <use xlink:href="#DejaVuSans-6f" x="874.849609"/>
      <use xlink:href="#DejaVuSans-6e" x="936.03125"/>
      <use xlink:href="#DejaVuSans-73" x="999.410156"/>
     </g>
    </g>
   </g>
  </g>
 </g>
 <defs>
  <clipPath id="p992173dd7d">
   <rect x="41.781593" y="2.834646" width="380.580407" height="255.390709"/>
  </clipPath>
 </defs>
</svg>
