<?xml version="1.0" encoding="utf-8" standalone="no"?>
<!DOCTYPE svg PUBLIC "-//W3C//DTD SVG 1.1//EN"
  "http://www.w3.org/Graphics/SVG/1.1/DTD/svg11.dtd">
<svg xmlns:xlink="http://www.w3.org/1999/xlink" width="432pt" height="288pt" viewBox="0 0 432 288" xmlns="http://www.w3.org/2000/svg" version="1.1">
 <metadata>
  <rdf:RDF xmlns:dc="http://purl.org/dc/elements/1.1/" xmlns:cc="http://creativecommons.org/ns#" xmlns:rdf="http://www.w3.org/1999/02/22-rdf-syntax-ns#">
   <cc:Work>
    <dc:type rdf:resource="http://purl.org/dc/dcmitype/StillImage"/>
    <dc:date>2022-05-17T21:39:28.675565</dc:date>
    <dc:format>image/svg+xml</dc:format>
    <dc:creator>
     <cc:Agent>
      <dc:title>Matplotlib v3.5.2, https://matplotlib.org/</dc:title>
     </cc:Agent>
    </dc:creator>
   </cc:Work>
  </rdf:RDF>
 </metadata>
 <defs>
  <style type="text/css">*{stroke-linejoin: round; stroke-linecap: butt}</style>
 </defs>
 <g id="figure_1">
  <g id="patch_1">
   <path d="M 0 288 
L 432 288 
L 432 0 
L 0 0 
z
" style="fill: #ffffff"/>
  </g>
  <g id="axes_1">
   <g id="patch_2">
    <path d="M 70.833821 258.225354 
L 419.805777 258.225354 
L 419.805777 3.732001 
L 70.833821 3.732001 
z
" style="fill: #ffffff"/>
   </g>
   <g id="line2d_1">
    <path d="M 70.833821 46.756767 
L 71.182793 47.493799 
L 72.229709 52.500411 
L 72.578681 52.473779 
L 72.927653 51.666522 
L 73.276625 51.737575 
L 73.625597 52.890593 
L 73.974569 53.510798 
L 74.323541 52.640265 
L 74.672513 51.209864 
L 75.021484 50.66149 
L 75.370456 52.40039 
L 76.0684 58.525857 
L 76.417372 59.086524 
L 76.766344 58.554672 
L 77.115316 58.432995 
L 77.464288 60.353611 
L 78.162232 66.265408 
L 78.511204 66.796494 
L 79.209148 64.187654 
L 79.55812 64.747321 
L 80.256064 69.231307 
L 80.605036 69.752551 
L 81.30298 67.002168 
L 81.651952 67.83921 
L 82.349896 74.011327 
L 82.698868 74.749812 
L 83.396811 70.945763 
L 83.745783 71.90098 
L 84.443727 79.672695 
L 84.792699 81.097842 
L 85.490643 79.178619 
L 85.839615 80.383107 
L 86.537559 86.419715 
L 86.886531 87.273099 
L 87.584475 85.686643 
L 87.933447 86.604998 
L 88.282419 88.193681 
L 88.631391 89.036513 
L 88.980363 89.06111 
L 89.329335 88.923105 
L 89.678307 89.510537 
L 91.423166 98.390486 
L 92.12111 100.399859 
L 92.470082 100.958262 
L 92.819054 101.097257 
L 94.214942 102.812382 
L 94.912886 101.108096 
L 95.261858 101.134275 
L 95.61083 102.53626 
L 96.308774 107.809862 
L 96.657746 109.154712 
L 97.006718 108.702039 
L 97.35569 108.659632 
L 97.704662 110.125844 
L 98.402606 115.579595 
L 98.751577 115.867426 
L 99.449521 112.786417 
L 99.798493 113.838398 
L 100.147465 116.546911 
L 100.496437 118.374177 
L 100.845409 117.390216 
L 101.194381 114.530932 
L 101.543353 113.130817 
L 101.892325 114.94254 
L 102.590269 121.502872 
L 102.939241 120.961944 
L 103.288213 118.523542 
L 103.637185 117.510167 
L 103.986157 119.098095 
L 104.684101 125.339788 
L 105.033073 125.718953 
L 105.382045 124.521419 
L 105.731017 123.822494 
L 106.079989 124.608966 
L 106.777932 127.991996 
L 107.126904 127.976912 
L 107.475876 126.779963 
L 107.824848 126.184887 
L 108.17382 126.876915 
L 108.871764 130.999411 
L 109.220736 131.603623 
L 109.569708 131.335298 
L 109.91868 131.530475 
L 110.267652 132.862206 
L 110.965596 138.551539 
L 111.314568 139.931918 
L 111.66354 140.075145 
L 112.012512 140.340995 
L 113.059428 142.094268 
L 113.4084 141.910547 
L 113.757372 142.18079 
L 114.455316 144.718425 
L 114.804287 144.937214 
L 115.153259 144.270456 
L 115.502231 144.031778 
L 115.851203 145.721421 
L 116.549147 151.386004 
L 116.898119 152.140221 
L 117.247091 151.754501 
L 117.596063 152.081616 
L 117.945035 154.503572 
L 118.294007 157.844712 
L 118.642979 159.334329 
L 118.991951 158.810102 
L 119.340923 157.73734 
L 119.689895 157.955628 
L 120.387839 163.757228 
L 120.736811 164.833073 
L 121.085783 163.618099 
L 121.434755 161.657761 
L 121.783727 161.133808 
L 122.132699 163.338695 
L 122.830642 169.538755 
L 123.179614 169.810813 
L 123.528586 168.768841 
L 123.877558 168.217021 
L 124.22653 170.200057 
L 124.924474 176.617806 
L 125.273446 177.308286 
L 125.97139 174.598198 
L 126.320362 175.589387 
L 126.669334 178.02866 
L 127.018306 179.36206 
L 127.367278 178.266666 
L 127.71625 175.913615 
L 128.065222 174.656735 
L 128.414194 176.372028 
L 128.763166 179.950831 
L 129.112138 182.374452 
L 129.46111 182.827999 
L 129.810082 182.279218 
L 130.159054 182.649266 
L 131.205969 189.511262 
L 131.554941 189.969332 
L 131.903913 189.743424 
L 132.252885 189.88478 
L 132.601857 190.393381 
L 132.950829 190.222539 
L 133.299801 189.367618 
L 133.648773 189.193359 
L 133.997745 189.978541 
L 134.695689 192.283871 
L 135.044661 192.544107 
L 135.393633 192.372367 
L 135.742605 193.292616 
L 136.440549 196.629527 
L 136.789521 197.656222 
L 137.138493 197.601173 
L 137.487465 197.387764 
L 137.836437 198.148638 
L 138.534381 201.522913 
L 138.883352 202.207796 
L 139.232324 201.509799 
L 139.581296 200.359305 
L 139.930268 200.852295 
L 140.977184 207.749255 
L 141.326156 206.909495 
L 141.675128 204.763382 
L 142.0241 204.209203 
L 142.373072 206.414284 
L 143.071016 213.013488 
L 143.419988 212.985793 
L 143.76896 211.588036 
L 144.117932 211.997808 
L 145.164848 222.191486 
L 145.51382 221.42305 
L 145.862792 219.596 
L 146.211764 219.684954 
L 147.258679 225.987605 
L 147.956623 221.919539 
L 148.305595 222.002587 
L 148.654567 224.398245 
L 149.352511 230.53281 
L 149.701483 231.626147 
L 150.050455 232.076985 
L 150.399427 233.488383 
L 151.446343 239.908655 
L 151.795315 240.421324 
L 152.144287 240.25761 
L 152.493259 240.223621 
L 152.842231 240.393254 
L 153.191203 240.935368 
L 153.540175 241.228079 
L 153.889147 241.177937 
L 154.238119 241.282904 
L 154.587091 242.179818 
L 155.982978 247.691988 
L 157.029894 251.022712 
L 157.378866 250.816395 
L 157.727838 250.022351 
L 158.425782 249.438464 
L 158.774754 247.3844 
L 159.82167 236.811311 
L 160.170642 237.867603 
L 160.519614 239.831521 
L 160.868586 240.247363 
L 161.217558 239.428486 
L 161.56653 239.317425 
L 162.264474 240.631898 
L 162.613445 239.546039 
L 163.660361 227.224959 
L 164.009333 226.871106 
L 164.358305 227.772475 
L 164.707277 226.798249 
L 165.754193 215.155371 
L 166.103165 215.62178 
L 166.452137 217.641557 
L 166.801109 218.298098 
L 167.150081 216.013195 
L 167.499053 212.245324 
L 167.848025 209.758572 
L 168.196997 209.881811 
L 168.545969 212.160019 
L 168.894941 212.510221 
L 169.592885 205.92008 
L 169.941857 205.216712 
L 170.290829 208.571758 
L 170.6398 213.344029 
L 170.988772 214.138718 
L 171.337744 209.410605 
L 171.686716 202.765629 
L 172.035688 199.390539 
L 172.38466 200.092904 
L 172.733632 202.332566 
L 173.082604 201.82466 
L 173.780548 191.964524 
L 174.12952 190.133666 
L 174.478492 191.999843 
L 174.827464 195.176144 
L 175.176436 195.810775 
L 175.525408 194.746846 
L 175.87438 194.704692 
L 176.223352 196.825261 
L 176.572324 199.752064 
L 176.921296 200.896445 
L 177.270268 198.579625 
L 177.968212 189.81874 
L 178.317184 188.271191 
L 178.666155 187.862526 
L 179.015127 187.635109 
L 179.364099 186.107333 
L 179.713071 183.961232 
L 180.062043 183.013215 
L 180.411015 183.227926 
L 181.108959 185.74989 
L 181.457931 186.180843 
L 181.806903 187.268769 
L 182.504847 190.463904 
L 182.853819 190.251621 
L 183.202791 187.512762 
L 183.900735 178.603632 
L 184.249707 178.281511 
L 184.598679 179.176624 
L 184.947651 178.809314 
L 185.296623 176.09565 
L 185.645595 170.994466 
L 185.994567 167.615192 
L 186.343539 167.830074 
L 186.69251 169.531583 
L 187.041482 169.428332 
L 187.739426 163.403598 
L 188.088398 162.955746 
L 188.786342 168.97922 
L 189.135314 167.798646 
L 189.833258 158.097521 
L 190.18223 157.659325 
L 190.880174 164.485236 
L 191.229146 163.549297 
L 191.92709 152.301831 
L 192.276062 149.708567 
L 192.625034 150.888486 
L 192.974006 152.918576 
L 193.322978 152.7965 
L 194.020922 148.618482 
L 194.369894 149.052492 
L 195.067837 154.647384 
L 195.416809 154.852797 
L 196.114753 150.899552 
L 196.463725 152.036185 
L 196.812697 154.893423 
L 197.161669 156.47148 
L 197.510641 155.130062 
L 198.208585 146.197917 
L 198.557557 144.977849 
L 199.255501 148.86312 
L 199.604473 148.920014 
L 200.302417 148.028883 
L 200.651389 149.670403 
L 201.000361 151.988214 
L 201.349333 152.382619 
L 201.698305 151.761829 
L 202.047277 151.85165 
L 202.396249 154.222187 
L 202.74522 157.572079 
L 203.094192 158.957931 
L 203.443164 157.010648 
L 203.792136 153.244041 
L 204.141108 150.928705 
L 204.49008 151.38384 
L 204.839052 152.851859 
L 205.188024 152.323418 
L 205.885968 145.207147 
L 206.23494 143.497004 
L 206.583912 143.390588 
L 206.932884 143.58895 
L 207.281856 141.213659 
L 207.630828 137.088155 
L 207.9798 134.563503 
L 208.328772 135.252673 
L 208.677744 138.269636 
L 209.026716 140.307174 
L 209.375688 138.449629 
L 210.073632 127.036172 
L 210.422604 124.371329 
L 210.771575 124.307022 
L 211.120547 124.767343 
L 211.469519 121.572143 
L 212.167463 107.446353 
L 212.516435 103.184043 
L 212.865407 102.979174 
L 213.214379 104.377102 
L 213.563351 103.241538 
L 214.261295 97.082933 
L 214.610267 98.562347 
L 214.959239 102.218898 
L 215.308211 104.604239 
L 215.657183 102.458883 
L 216.355127 91.208221 
L 216.704099 90.038814 
L 217.053071 91.329165 
L 217.402043 91.403446 
L 217.751015 87.485448 
L 218.448959 78.009713 
L 218.79793 77.489386 
L 219.495874 80.941005 
L 219.844846 80.874367 
L 220.193818 81.093041 
L 221.240734 87.283474 
L 221.589706 87.416772 
L 221.938678 86.084454 
L 222.28765 85.715274 
L 223.334566 93.140386 
L 223.683538 94.085225 
L 224.03251 94.143713 
L 224.381482 95.228409 
L 225.428398 102.604422 
L 226.126342 103.879922 
L 226.475314 105.425206 
L 227.173257 111.378162 
L 227.522229 111.904232 
L 228.220173 109.885745 
L 228.569145 112.77749 
L 229.267089 124.922849 
L 229.616061 126.540527 
L 230.314005 120.433268 
L 230.662977 119.706308 
L 231.011949 122.054643 
L 231.360921 123.450372 
L 231.709893 120.435418 
L 232.407837 109.24967 
L 232.756809 108.847662 
L 233.105781 111.583764 
L 233.454753 112.931762 
L 233.803725 111.316101 
L 234.152697 107.909531 
L 234.501668 106.772277 
L 234.85064 110.64949 
L 235.199612 115.79491 
L 235.548584 117.408118 
L 235.897556 113.834943 
L 236.5955 100.726923 
L 236.944472 97.068702 
L 237.293444 95.503195 
L 237.642416 92.061046 
L 238.689332 74.744421 
L 239.038304 72.358057 
L 239.387276 71.463945 
L 239.736248 69.931411 
L 240.783164 62.168748 
L 241.481108 60.297487 
L 241.83008 56.70132 
L 242.876995 39.285687 
L 243.923911 32.485317 
L 244.621855 26.735427 
L 244.970827 26.169521 
L 245.319799 26.561086 
L 245.668771 26.230625 
L 246.017743 25.437065 
L 246.366715 25.18779 
L 246.715687 27.173335 
L 247.064659 30.148005 
L 247.413631 31.794139 
L 247.762603 30.893213 
L 248.111575 28.32766 
L 248.460547 27.077072 
L 248.809519 28.148518 
L 249.856435 37.683434 
L 250.205407 39.083347 
L 250.90335 43.56002 
L 251.252322 45.905495 
L 251.601294 46.883863 
L 252.299238 46.598573 
L 252.64821 48.61824 
L 253.346154 57.420909 
L 253.695126 60.268417 
L 254.39307 62.476073 
L 254.742042 65.970554 
L 255.788958 81.875333 
L 256.13793 83.160922 
L 256.486902 83.640215 
L 256.835874 83.779003 
L 257.184846 84.440149 
L 257.533818 84.317043 
L 258.231762 81.491524 
L 258.580733 81.793003 
L 259.627649 91.756803 
L 259.976621 92.046013 
L 260.325593 90.857812 
L 260.674565 91.367797 
L 261.372509 96.499312 
L 261.721481 97.158361 
L 262.070453 94.275209 
L 263.117369 81.325988 
L 263.815313 73.108053 
L 264.513257 65.776912 
L 264.862229 65.057114 
L 265.211201 65.809336 
L 265.560173 64.672415 
L 265.909145 61.476573 
L 266.607088 53.372822 
L 266.95606 52.076597 
L 267.305032 52.146916 
L 267.654004 51.821193 
L 268.002976 48.596685 
L 269.049892 34.926674 
L 270.794752 22.884187 
L 271.143724 22.839238 
L 271.492696 21.822396 
L 271.841668 19.214454 
L 272.539612 11.889387 
L 272.888584 11.324204 
L 273.237556 13.809774 
L 273.586528 17.240177 
L 273.9355 18.511288 
L 274.982415 15.240663 
L 275.331387 16.992879 
L 275.680359 19.34768 
L 276.029331 20.273566 
L 276.378303 20.539657 
L 276.727275 21.050401 
L 277.774191 26.858517 
L 278.123163 26.957654 
L 278.472135 27.428919 
L 278.821107 30.84796 
L 279.868023 51.222368 
L 280.216995 53.811456 
L 280.565967 55.294241 
L 280.914939 57.922706 
L 282.310827 73.309274 
L 283.00877 77.485199 
L 283.357742 80.622895 
L 283.706714 82.427598 
L 284.404658 83.683612 
L 284.75363 85.413084 
L 285.800546 98.460404 
L 286.149518 99.295885 
L 286.49849 98.291776 
L 286.847462 98.365053 
L 287.196434 99.865073 
L 287.894378 107.203623 
L 288.24335 108.700006 
L 288.592322 108.498859 
L 288.941294 107.865713 
L 289.290266 107.78415 
L 289.639238 107.033129 
L 289.98821 105.0904 
L 290.686153 98.46278 
L 291.035125 96.991308 
L 291.384097 97.314777 
L 291.733069 97.154871 
L 292.082041 95.108978 
L 292.779985 87.168025 
L 293.128957 86.04955 
L 293.477929 87.3795 
L 293.826901 89.347143 
L 294.175873 88.675661 
L 294.524845 85.449901 
L 296.269705 62.41626 
L 296.967649 51.75126 
L 297.316621 49.903017 
L 297.665593 48.671672 
L 298.014565 46.805666 
L 298.712508 39.490399 
L 299.06148 38.629524 
L 299.410452 40.067255 
L 299.759424 42.655718 
L 300.108396 43.547603 
L 300.457368 41.588029 
L 301.155312 34.733919 
L 301.853256 31.485591 
L 302.900172 26.284402 
L 303.249144 27.265801 
L 303.598116 29.682478 
L 303.947088 31.212851 
L 304.29606 30.855828 
L 304.645032 29.60272 
L 304.994004 29.816721 
L 305.342976 32.128722 
L 306.04092 39.417007 
L 306.389892 39.91024 
L 306.738863 39.123045 
L 307.087835 38.976572 
L 307.436807 40.919451 
L 308.483723 51.054251 
L 308.832695 53.568317 
L 309.181667 56.992996 
L 309.879611 64.765779 
L 310.228583 65.944395 
L 310.926527 64.501859 
L 311.275499 66.07091 
L 312.322415 76.70414 
L 313.020359 79.075464 
L 313.369331 82.033744 
L 314.067275 92.492589 
L 314.416246 95.955298 
L 314.765218 97.515675 
L 315.463162 98.063035 
L 315.812134 97.679229 
L 316.161106 95.320773 
L 316.85905 85.278311 
L 317.208022 82.56724 
L 317.556994 82.508913 
L 317.905966 84.532114 
L 318.254938 85.869049 
L 318.60391 84.675888 
L 318.952882 83.079944 
L 319.301854 82.870166 
L 319.999798 86.53149 
L 320.34877 86.366971 
L 320.697742 83.868465 
L 322.442601 60.83763 
L 322.791573 54.466452 
L 323.140545 50.452129 
L 323.489517 49.335047 
L 324.187461 50.519172 
L 324.536433 47.935515 
L 325.234377 40.815129 
L 325.583349 38.873191 
L 325.932321 38.193333 
L 326.281293 36.669894 
L 326.630265 33.623728 
L 327.328209 25.547126 
L 329.073069 14.820123 
L 329.422041 15.424953 
L 330.119985 19.001834 
L 330.468956 18.426273 
L 331.1669 12.058995 
L 331.515872 10.934643 
L 331.864844 12.765334 
L 332.562788 18.041955 
L 333.260732 20.596257 
L 333.609704 23.721551 
L 334.307648 32.062462 
L 334.65662 34.554732 
L 335.005592 35.894094 
L 335.354564 38.274881 
L 336.052508 44.927376 
L 336.40148 46.250992 
L 337.099424 41.695215 
L 337.448396 41.964173 
L 337.797368 45.712842 
L 338.495311 57.000973 
L 340.589143 80.336281 
L 341.287087 82.680864 
L 341.985031 86.871964 
L 342.334003 87.60302 
L 342.682975 85.608595 
L 343.031947 82.959771 
L 343.380919 82.183465 
L 343.729891 84.206966 
L 344.427835 92.992727 
L 344.776807 95.28351 
L 345.125779 95.746594 
L 345.474751 95.524326 
L 346.172695 97.429758 
L 346.521666 97.563109 
L 346.870638 96.562917 
L 347.21961 94.712855 
L 347.568582 93.636232 
L 347.917554 93.123269 
L 348.266526 92.01651 
L 348.615498 89.01853 
L 349.313442 79.626712 
L 349.662414 77.723671 
L 350.011386 78.425925 
L 350.360358 79.471996 
L 350.70933 78.207059 
L 351.058302 74.825381 
L 351.407274 70.233598 
L 351.756246 67.31939 
L 352.45419 66.333815 
L 352.803162 65.379298 
L 353.501106 62.677707 
L 354.19905 62.329817 
L 354.548021 60.713542 
L 355.245965 51.555755 
L 355.594937 49.154962 
L 355.943909 48.76707 
L 356.292881 49.651945 
L 356.641853 48.74361 
L 357.688769 38.12439 
L 358.037741 38.539822 
L 358.735685 42.008458 
L 359.084657 42.987319 
L 359.433629 43.478829 
L 360.131573 46.303446 
L 360.480545 46.907761 
L 360.829517 45.471719 
L 361.178489 43.044539 
L 361.527461 42.407229 
L 361.876433 43.832571 
L 362.574376 49.176574 
L 362.923348 48.569076 
L 363.27232 46.659007 
L 363.621292 45.600262 
L 363.970264 47.440605 
L 365.01718 58.875315 
L 365.715124 62.869289 
L 366.413068 68.209848 
L 366.76204 70.099098 
L 367.111012 70.270272 
L 367.459984 71.331037 
L 368.5069 81.053391 
L 368.855872 81.037828 
L 369.553816 75.436355 
L 369.902788 74.63761 
L 370.949703 80.244883 
L 371.298675 80.314126 
L 371.647647 79.987685 
L 371.996619 81.030944 
L 372.694563 85.149583 
L 373.043535 85.781559 
L 373.392507 85.827405 
L 374.439423 88.894358 
L 374.788395 87.125853 
L 375.835311 71.218801 
L 376.184283 70.251075 
L 376.533255 70.721661 
L 376.882227 70.648347 
L 377.231199 69.078616 
L 377.580171 66.181182 
L 377.929143 64.903026 
L 378.627086 65.98235 
L 378.976058 65.456815 
L 379.674002 60.97654 
L 380.371946 58.197665 
L 380.720918 55.32718 
L 381.767834 38.495661 
L 382.116806 37.26011 
L 382.465778 38.554929 
L 382.81475 38.870625 
L 383.163722 37.743052 
L 383.861666 32.910841 
L 384.210638 32.463901 
L 384.55961 32.82583 
L 384.908582 32.857194 
L 385.606526 30.402007 
L 385.955498 30.421439 
L 386.653441 31.93441 
L 387.002413 31.456632 
L 387.351385 29.941515 
L 387.700357 29.180464 
L 388.049329 30.591574 
L 388.747273 36.951083 
L 389.096245 37.548561 
L 389.445217 35.953735 
L 389.794189 32.963749 
L 390.143161 31.612352 
L 390.492133 32.478234 
L 391.190077 35.009585 
L 391.539049 35.728957 
L 391.888021 37.735035 
L 392.236993 41.080762 
L 392.934937 50.045058 
L 393.981853 54.800529 
L 394.679796 61.774193 
L 395.028768 62.346915 
L 395.37774 60.016541 
L 395.726712 55.999069 
L 396.075684 53.867097 
L 396.424656 54.815948 
L 397.820544 63.962669 
L 398.86746 76.659019 
L 399.216432 77.791313 
L 399.914376 76.617894 
L 400.263348 77.170437 
L 400.61232 78.234785 
L 400.961292 77.149442 
L 401.310264 73.592891 
L 402.008208 65.150827 
L 402.357179 64.570518 
L 403.404095 69.206965 
L 403.753067 69.542177 
L 404.799983 72.612462 
L 405.148955 72.25412 
L 405.846899 67.120998 
L 406.195871 66.223181 
L 406.893815 67.328378 
L 407.242787 66.10629 
L 407.940731 60.239877 
L 408.289703 59.734053 
L 408.987647 63.438202 
L 409.336619 63.95628 
L 410.383534 58.326935 
L 411.081478 56.747259 
L 411.779422 52.77696 
L 412.128394 53.103362 
L 412.477366 55.84868 
L 412.826338 59.559444 
L 413.17531 61.368371 
L 413.524282 60.89778 
L 413.873254 58.936336 
L 414.222226 58.238841 
L 414.92017 61.427519 
L 415.269142 61.608209 
L 415.618114 59.302548 
L 415.967086 55.881087 
L 416.316058 53.976597 
L 416.66503 53.667676 
L 417.711946 56.635607 
L 418.060918 59.268654 
L 419.107833 73.304757 
L 419.456805 73.926276 
L 419.805777 72.505291 
L 419.805777 72.505291 
" clip-path="url(#pfaa608627f)" style="fill: none; stroke: #009afa"/>
   </g>
   <g id="matplotlib.axis_1">
    <g id="xtick_1">
     <g id="line2d_2">
      <defs>
       <path id="m035cd810e9" d="M 0 0 
L 0 -2.5 
" style="stroke: #000000; stroke-width: 0.5"/>
      </defs>
      <g>
       <use xlink:href="#m035cd810e9" x="70.833821" y="258.225354" style="stroke: #000000; stroke-width: 0.5"/>
      </g>
     </g>
     <g id="text_1">
      <!-- $0.00$ -->
      <g transform="translate(61.913821 267.804104)scale(0.08 -0.08)">
       <defs>
        <path id="DejaVuSans-30" d="M 2034 4250 
Q 1547 4250 1301 3770 
Q 1056 3291 1056 2328 
Q 1056 1369 1301 889 
Q 1547 409 2034 409 
Q 2525 409 2770 889 
Q 3016 1369 3016 2328 
Q 3016 3291 2770 3770 
Q 2525 4250 2034 4250 
z
M 2034 4750 
Q 2819 4750 3233 4129 
Q 3647 3509 3647 2328 
Q 3647 1150 3233 529 
Q 2819 -91 2034 -91 
Q 1250 -91 836 529 
Q 422 1150 422 2328 
Q 422 3509 836 4129 
Q 1250 4750 2034 4750 
z
" transform="scale(0.015625)"/>
        <path id="DejaVuSans-2e" d="M 684 794 
L 1344 794 
L 1344 0 
L 684 0 
L 684 794 
z
" transform="scale(0.015625)"/>
       </defs>
       <use xlink:href="#DejaVuSans-30" transform="translate(0 0.78125)"/>
       <use xlink:href="#DejaVuSans-2e" transform="translate(63.623047 0.78125)"/>
       <use xlink:href="#DejaVuSans-30" transform="translate(95.410156 0.78125)"/>
       <use xlink:href="#DejaVuSans-30" transform="translate(159.033203 0.78125)"/>
      </g>
     </g>
    </g>
    <g id="xtick_2">
     <g id="line2d_3">
      <g>
       <use xlink:href="#m035cd810e9" x="158.07681" y="258.225354" style="stroke: #000000; stroke-width: 0.5"/>
      </g>
     </g>
     <g id="text_2">
      <!-- $0.01$ -->
      <g transform="translate(149.15681 267.804104)scale(0.08 -0.08)">
       <defs>
        <path id="DejaVuSans-31" d="M 794 531 
L 1825 531 
L 1825 4091 
L 703 3866 
L 703 4441 
L 1819 4666 
L 2450 4666 
L 2450 531 
L 3481 531 
L 3481 0 
L 794 0 
L 794 531 
z
" transform="scale(0.015625)"/>
       </defs>
       <use xlink:href="#DejaVuSans-30" transform="translate(0 0.78125)"/>
       <use xlink:href="#DejaVuSans-2e" transform="translate(63.623047 0.78125)"/>
       <use xlink:href="#DejaVuSans-30" transform="translate(95.410156 0.78125)"/>
       <use xlink:href="#DejaVuSans-31" transform="translate(159.033203 0.78125)"/>
      </g>
     </g>
    </g>
    <g id="xtick_3">
     <g id="line2d_4">
      <g>
       <use xlink:href="#m035cd810e9" x="245.319799" y="258.225354" style="stroke: #000000; stroke-width: 0.5"/>
      </g>
     </g>
     <g id="text_3">
      <!-- $0.02$ -->
      <g transform="translate(236.399799 267.804104)scale(0.08 -0.08)">
       <defs>
        <path id="DejaVuSans-32" d="M 1228 531 
L 3431 531 
L 3431 0 
L 469 0 
L 469 531 
Q 828 903 1448 1529 
Q 2069 2156 2228 2338 
Q 2531 2678 2651 2914 
Q 2772 3150 2772 3378 
Q 2772 3750 2511 3984 
Q 2250 4219 1831 4219 
Q 1534 4219 1204 4116 
Q 875 4013 500 3803 
L 500 4441 
Q 881 4594 1212 4672 
Q 1544 4750 1819 4750 
Q 2544 4750 2975 4387 
Q 3406 4025 3406 3419 
Q 3406 3131 3298 2873 
Q 3191 2616 2906 2266 
Q 2828 2175 2409 1742 
Q 1991 1309 1228 531 
z
" transform="scale(0.015625)"/>
       </defs>
       <use xlink:href="#DejaVuSans-30" transform="translate(0 0.78125)"/>
       <use xlink:href="#DejaVuSans-2e" transform="translate(63.623047 0.78125)"/>
       <use xlink:href="#DejaVuSans-30" transform="translate(95.410156 0.78125)"/>
       <use xlink:href="#DejaVuSans-32" transform="translate(159.033203 0.78125)"/>
      </g>
     </g>
    </g>
    <g id="xtick_4">
     <g id="line2d_5">
      <g>
       <use xlink:href="#m035cd810e9" x="332.562788" y="258.225354" style="stroke: #000000; stroke-width: 0.5"/>
      </g>
     </g>
     <g id="text_4">
      <!-- $0.03$ -->
      <g transform="translate(323.642788 267.804104)scale(0.08 -0.08)">
       <defs>
        <path id="DejaVuSans-33" d="M 2597 2516 
Q 3050 2419 3304 2112 
Q 3559 1806 3559 1356 
Q 3559 666 3084 287 
Q 2609 -91 1734 -91 
Q 1441 -91 1130 -33 
Q 819 25 488 141 
L 488 750 
Q 750 597 1062 519 
Q 1375 441 1716 441 
Q 2309 441 2620 675 
Q 2931 909 2931 1356 
Q 2931 1769 2642 2001 
Q 2353 2234 1838 2234 
L 1294 2234 
L 1294 2753 
L 1863 2753 
Q 2328 2753 2575 2939 
Q 2822 3125 2822 3475 
Q 2822 3834 2567 4026 
Q 2313 4219 1838 4219 
Q 1578 4219 1281 4162 
Q 984 4106 628 3988 
L 628 4550 
Q 988 4650 1302 4700 
Q 1616 4750 1894 4750 
Q 2613 4750 3031 4423 
Q 3450 4097 3450 3541 
Q 3450 3153 3228 2886 
Q 3006 2619 2597 2516 
z
" transform="scale(0.015625)"/>
       </defs>
       <use xlink:href="#DejaVuSans-30" transform="translate(0 0.78125)"/>
       <use xlink:href="#DejaVuSans-2e" transform="translate(63.623047 0.78125)"/>
       <use xlink:href="#DejaVuSans-30" transform="translate(95.410156 0.78125)"/>
       <use xlink:href="#DejaVuSans-33" transform="translate(159.033203 0.78125)"/>
      </g>
     </g>
    </g>
    <g id="xtick_5">
     <g id="line2d_6">
      <g>
       <use xlink:href="#m035cd810e9" x="419.805777" y="258.225354" style="stroke: #000000; stroke-width: 0.5"/>
      </g>
     </g>
     <g id="text_5">
      <!-- $0.04$ -->
      <g transform="translate(410.885777 267.804104)scale(0.08 -0.08)">
       <defs>
        <path id="DejaVuSans-34" d="M 2419 4116 
L 825 1625 
L 2419 1625 
L 2419 4116 
z
M 2253 4666 
L 3047 4666 
L 3047 1625 
L 3713 1625 
L 3713 1100 
L 3047 1100 
L 3047 0 
L 2419 0 
L 2419 1100 
L 313 1100 
L 313 1709 
L 2253 4666 
z
" transform="scale(0.015625)"/>
       </defs>
       <use xlink:href="#DejaVuSans-30" transform="translate(0 0.78125)"/>
       <use xlink:href="#DejaVuSans-2e" transform="translate(63.623047 0.78125)"/>
       <use xlink:href="#DejaVuSans-30" transform="translate(95.410156 0.78125)"/>
       <use xlink:href="#DejaVuSans-34" transform="translate(159.033203 0.78125)"/>
      </g>
     </g>
    </g>
    <g id="text_6">
     <!-- Time (s) -->
     <g transform="translate(222.958002 281.826136)scale(0.11 -0.11)">
      <defs>
       <path id="DejaVuSans-54" d="M -19 4666 
L 3928 4666 
L 3928 4134 
L 2272 4134 
L 2272 0 
L 1638 0 
L 1638 4134 
L -19 4134 
L -19 4666 
z
" transform="scale(0.015625)"/>
       <path id="DejaVuSans-69" d="M 603 3500 
L 1178 3500 
L 1178 0 
L 603 0 
L 603 3500 
z
M 603 4863 
L 1178 4863 
L 1178 4134 
L 603 4134 
L 603 4863 
z
" transform="scale(0.015625)"/>
       <path id="DejaVuSans-6d" d="M 3328 2828 
Q 3544 3216 3844 3400 
Q 4144 3584 4550 3584 
Q 5097 3584 5394 3201 
Q 5691 2819 5691 2113 
L 5691 0 
L 5113 0 
L 5113 2094 
Q 5113 2597 4934 2840 
Q 4756 3084 4391 3084 
Q 3944 3084 3684 2787 
Q 3425 2491 3425 1978 
L 3425 0 
L 2847 0 
L 2847 2094 
Q 2847 2600 2669 2842 
Q 2491 3084 2119 3084 
Q 1678 3084 1418 2786 
Q 1159 2488 1159 1978 
L 1159 0 
L 581 0 
L 581 3500 
L 1159 3500 
L 1159 2956 
Q 1356 3278 1631 3431 
Q 1906 3584 2284 3584 
Q 2666 3584 2933 3390 
Q 3200 3197 3328 2828 
z
" transform="scale(0.015625)"/>
       <path id="DejaVuSans-65" d="M 3597 1894 
L 3597 1613 
L 953 1613 
Q 991 1019 1311 708 
Q 1631 397 2203 397 
Q 2534 397 2845 478 
Q 3156 559 3463 722 
L 3463 178 
Q 3153 47 2828 -22 
Q 2503 -91 2169 -91 
Q 1331 -91 842 396 
Q 353 884 353 1716 
Q 353 2575 817 3079 
Q 1281 3584 2069 3584 
Q 2775 3584 3186 3129 
Q 3597 2675 3597 1894 
z
M 3022 2063 
Q 3016 2534 2758 2815 
Q 2500 3097 2075 3097 
Q 1594 3097 1305 2825 
Q 1016 2553 972 2059 
L 3022 2063 
z
" transform="scale(0.015625)"/>
       <path id="DejaVuSans-20" transform="scale(0.015625)"/>
       <path id="DejaVuSans-28" d="M 1984 4856 
Q 1566 4138 1362 3434 
Q 1159 2731 1159 2009 
Q 1159 1288 1364 580 
Q 1569 -128 1984 -844 
L 1484 -844 
Q 1016 -109 783 600 
Q 550 1309 550 2009 
Q 550 2706 781 3412 
Q 1013 4119 1484 4856 
L 1984 4856 
z
" transform="scale(0.015625)"/>
       <path id="DejaVuSans-73" d="M 2834 3397 
L 2834 2853 
Q 2591 2978 2328 3040 
Q 2066 3103 1784 3103 
Q 1356 3103 1142 2972 
Q 928 2841 928 2578 
Q 928 2378 1081 2264 
Q 1234 2150 1697 2047 
L 1894 2003 
Q 2506 1872 2764 1633 
Q 3022 1394 3022 966 
Q 3022 478 2636 193 
Q 2250 -91 1575 -91 
Q 1294 -91 989 -36 
Q 684 19 347 128 
L 347 722 
Q 666 556 975 473 
Q 1284 391 1588 391 
Q 1994 391 2212 530 
Q 2431 669 2431 922 
Q 2431 1156 2273 1281 
Q 2116 1406 1581 1522 
L 1381 1569 
Q 847 1681 609 1914 
Q 372 2147 372 2553 
Q 372 3047 722 3315 
Q 1072 3584 1716 3584 
Q 2034 3584 2315 3537 
Q 2597 3491 2834 3397 
z
" transform="scale(0.015625)"/>
       <path id="DejaVuSans-29" d="M 513 4856 
L 1013 4856 
Q 1481 4119 1714 3412 
Q 1947 2706 1947 2009 
Q 1947 1309 1714 600 
Q 1481 -109 1013 -844 
L 513 -844 
Q 928 -128 1133 580 
Q 1338 1288 1338 2009 
Q 1338 2731 1133 3434 
Q 928 4138 513 4856 
z
" transform="scale(0.015625)"/>
      </defs>
      <use xlink:href="#DejaVuSans-54"/>
      <use xlink:href="#DejaVuSans-69" x="57.958984"/>
      <use xlink:href="#DejaVuSans-6d" x="85.742188"/>
      <use xlink:href="#DejaVuSans-65" x="183.154297"/>
      <use xlink:href="#DejaVuSans-20" x="244.677734"/>
      <use xlink:href="#DejaVuSans-28" x="276.464844"/>
      <use xlink:href="#DejaVuSans-73" x="315.478516"/>
      <use xlink:href="#DejaVuSans-29" x="367.578125"/>
     </g>
    </g>
   </g>
   <g id="matplotlib.axis_2">
    <g id="ytick_1">
     <g id="line2d_7">
      <defs>
       <path id="m49e71711c7" d="M 0 0 
L 2.5 0 
" style="stroke: #000000; stroke-width: 0.5"/>
      </defs>
      <g>
       <use xlink:href="#m49e71711c7" x="70.833821" y="247.076485" style="stroke: #000000; stroke-width: 0.5"/>
      </g>
     </g>
     <g id="text_7">
      <!-- $-5.0×10^{-6}$ -->
      <g transform="translate(22.453821 250.11586)scale(0.08 -0.08)">
       <defs>
        <path id="DejaVuSans-2212" d="M 678 2272 
L 4684 2272 
L 4684 1741 
L 678 1741 
L 678 2272 
z
" transform="scale(0.015625)"/>
        <path id="DejaVuSans-35" d="M 691 4666 
L 3169 4666 
L 3169 4134 
L 1269 4134 
L 1269 2991 
Q 1406 3038 1543 3061 
Q 1681 3084 1819 3084 
Q 2600 3084 3056 2656 
Q 3513 2228 3513 1497 
Q 3513 744 3044 326 
Q 2575 -91 1722 -91 
Q 1428 -91 1123 -41 
Q 819 9 494 109 
L 494 744 
Q 775 591 1075 516 
Q 1375 441 1709 441 
Q 2250 441 2565 725 
Q 2881 1009 2881 1497 
Q 2881 1984 2565 2268 
Q 2250 2553 1709 2553 
Q 1456 2553 1204 2497 
Q 953 2441 691 2322 
L 691 4666 
z
" transform="scale(0.015625)"/>
        <path id="DejaVuSans-d7" d="M 4488 3438 
L 3059 2003 
L 4488 575 
L 4116 197 
L 2681 1631 
L 1247 197 
L 878 575 
L 2303 2003 
L 878 3438 
L 1247 3816 
L 2681 2381 
L 4116 3816 
L 4488 3438 
z
" transform="scale(0.015625)"/>
        <path id="DejaVuSans-36" d="M 2113 2584 
Q 1688 2584 1439 2293 
Q 1191 2003 1191 1497 
Q 1191 994 1439 701 
Q 1688 409 2113 409 
Q 2538 409 2786 701 
Q 3034 994 3034 1497 
Q 3034 2003 2786 2293 
Q 2538 2584 2113 2584 
z
M 3366 4563 
L 3366 3988 
Q 3128 4100 2886 4159 
Q 2644 4219 2406 4219 
Q 1781 4219 1451 3797 
Q 1122 3375 1075 2522 
Q 1259 2794 1537 2939 
Q 1816 3084 2150 3084 
Q 2853 3084 3261 2657 
Q 3669 2231 3669 1497 
Q 3669 778 3244 343 
Q 2819 -91 2113 -91 
Q 1303 -91 875 529 
Q 447 1150 447 2328 
Q 447 3434 972 4092 
Q 1497 4750 2381 4750 
Q 2619 4750 2861 4703 
Q 3103 4656 3366 4563 
z
" transform="scale(0.015625)"/>
       </defs>
       <use xlink:href="#DejaVuSans-2212" transform="translate(0 0.765625)"/>
       <use xlink:href="#DejaVuSans-35" transform="translate(83.789062 0.765625)"/>
       <use xlink:href="#DejaVuSans-2e" transform="translate(147.412109 0.765625)"/>
       <use xlink:href="#DejaVuSans-30" transform="translate(179.199219 0.765625)"/>
       <use xlink:href="#DejaVuSans-d7" transform="translate(242.822266 0.765625)"/>
       <use xlink:href="#DejaVuSans-31" transform="translate(326.611328 0.765625)"/>
       <use xlink:href="#DejaVuSans-30" transform="translate(390.234375 0.765625)"/>
       <use xlink:href="#DejaVuSans-2212" transform="translate(454.814453 39.046875)scale(0.7)"/>
       <use xlink:href="#DejaVuSans-36" transform="translate(513.466797 39.046875)scale(0.7)"/>
      </g>
     </g>
    </g>
    <g id="ytick_2">
     <g id="line2d_8">
      <g>
       <use xlink:href="#m49e71711c7" x="70.833821" y="207.012541" style="stroke: #000000; stroke-width: 0.5"/>
      </g>
     </g>
     <g id="text_8">
      <!-- $-4.0×10^{-6}$ -->
      <g transform="translate(22.453821 210.051916)scale(0.08 -0.08)">
       <use xlink:href="#DejaVuSans-2212" transform="translate(0 0.765625)"/>
       <use xlink:href="#DejaVuSans-34" transform="translate(83.789062 0.765625)"/>
       <use xlink:href="#DejaVuSans-2e" transform="translate(147.412109 0.765625)"/>
       <use xlink:href="#DejaVuSans-30" transform="translate(179.199219 0.765625)"/>
       <use xlink:href="#DejaVuSans-d7" transform="translate(242.822266 0.765625)"/>
       <use xlink:href="#DejaVuSans-31" transform="translate(326.611328 0.765625)"/>
       <use xlink:href="#DejaVuSans-30" transform="translate(390.234375 0.765625)"/>
       <use xlink:href="#DejaVuSans-2212" transform="translate(454.814453 39.046875)scale(0.7)"/>
       <use xlink:href="#DejaVuSans-36" transform="translate(513.466797 39.046875)scale(0.7)"/>
      </g>
     </g>
    </g>
    <g id="ytick_3">
     <g id="line2d_9">
      <g>
       <use xlink:href="#m49e71711c7" x="70.833821" y="166.948597" style="stroke: #000000; stroke-width: 0.5"/>
      </g>
     </g>
     <g id="text_9">
      <!-- $-3.0×10^{-6}$ -->
      <g transform="translate(22.453821 169.987972)scale(0.08 -0.08)">
       <use xlink:href="#DejaVuSans-2212" transform="translate(0 0.765625)"/>
       <use xlink:href="#DejaVuSans-33" transform="translate(83.789062 0.765625)"/>
       <use xlink:href="#DejaVuSans-2e" transform="translate(147.412109 0.765625)"/>
       <use xlink:href="#DejaVuSans-30" transform="translate(179.199219 0.765625)"/>
       <use xlink:href="#DejaVuSans-d7" transform="translate(242.822266 0.765625)"/>
       <use xlink:href="#DejaVuSans-31" transform="translate(326.611328 0.765625)"/>
       <use xlink:href="#DejaVuSans-30" transform="translate(390.234375 0.765625)"/>
       <use xlink:href="#DejaVuSans-2212" transform="translate(454.814453 39.046875)scale(0.7)"/>
       <use xlink:href="#DejaVuSans-36" transform="translate(513.466797 39.046875)scale(0.7)"/>
      </g>
     </g>
    </g>
    <g id="ytick_4">
     <g id="line2d_10">
      <g>
       <use xlink:href="#m49e71711c7" x="70.833821" y="126.884654" style="stroke: #000000; stroke-width: 0.5"/>
      </g>
     </g>
     <g id="text_10">
      <!-- $-2.0×10^{-6}$ -->
      <g transform="translate(22.453821 129.924029)scale(0.08 -0.08)">
       <use xlink:href="#DejaVuSans-2212" transform="translate(0 0.765625)"/>
       <use xlink:href="#DejaVuSans-32" transform="translate(83.789062 0.765625)"/>
       <use xlink:href="#DejaVuSans-2e" transform="translate(147.412109 0.765625)"/>
       <use xlink:href="#DejaVuSans-30" transform="translate(179.199219 0.765625)"/>
       <use xlink:href="#DejaVuSans-d7" transform="translate(242.822266 0.765625)"/>
       <use xlink:href="#DejaVuSans-31" transform="translate(326.611328 0.765625)"/>
       <use xlink:href="#DejaVuSans-30" transform="translate(390.234375 0.765625)"/>
       <use xlink:href="#DejaVuSans-2212" transform="translate(454.814453 39.046875)scale(0.7)"/>
       <use xlink:href="#DejaVuSans-36" transform="translate(513.466797 39.046875)scale(0.7)"/>
      </g>
     </g>
    </g>
    <g id="ytick_5">
     <g id="line2d_11">
      <g>
       <use xlink:href="#m49e71711c7" x="70.833821" y="86.82071" style="stroke: #000000; stroke-width: 0.5"/>
      </g>
     </g>
     <g id="text_11">
      <!-- $-1.0×10^{-6}$ -->
      <g transform="translate(22.453821 89.860085)scale(0.08 -0.08)">
       <use xlink:href="#DejaVuSans-2212" transform="translate(0 0.765625)"/>
       <use xlink:href="#DejaVuSans-31" transform="translate(83.789062 0.765625)"/>
       <use xlink:href="#DejaVuSans-2e" transform="translate(147.412109 0.765625)"/>
       <use xlink:href="#DejaVuSans-30" transform="translate(179.199219 0.765625)"/>
       <use xlink:href="#DejaVuSans-d7" transform="translate(242.822266 0.765625)"/>
       <use xlink:href="#DejaVuSans-31" transform="translate(326.611328 0.765625)"/>
       <use xlink:href="#DejaVuSans-30" transform="translate(390.234375 0.765625)"/>
       <use xlink:href="#DejaVuSans-2212" transform="translate(454.814453 39.046875)scale(0.7)"/>
       <use xlink:href="#DejaVuSans-36" transform="translate(513.466797 39.046875)scale(0.7)"/>
      </g>
     </g>
    </g>
    <g id="ytick_6">
     <g id="line2d_12">
      <g>
       <use xlink:href="#m49e71711c7" x="70.833821" y="46.756767" style="stroke: #000000; stroke-width: 0.5"/>
      </g>
     </g>
     <g id="text_12">
      <!-- $0$ -->
      <g transform="translate(62.213821 49.796142)scale(0.08 -0.08)">
       <use xlink:href="#DejaVuSans-30" transform="translate(0 0.78125)"/>
      </g>
     </g>
    </g>
    <g id="ytick_7">
     <g id="line2d_13">
      <g>
       <use xlink:href="#m49e71711c7" x="70.833821" y="6.692823" style="stroke: #000000; stroke-width: 0.5"/>
      </g>
     </g>
     <g id="text_13">
      <!-- $1.0×10^{-6}$ -->
      <g transform="translate(29.173821 9.732198)scale(0.08 -0.08)">
       <use xlink:href="#DejaVuSans-31" transform="translate(0 0.765625)"/>
       <use xlink:href="#DejaVuSans-2e" transform="translate(63.623047 0.765625)"/>
       <use xlink:href="#DejaVuSans-30" transform="translate(95.410156 0.765625)"/>
       <use xlink:href="#DejaVuSans-d7" transform="translate(159.033203 0.765625)"/>
       <use xlink:href="#DejaVuSans-31" transform="translate(242.822266 0.765625)"/>
       <use xlink:href="#DejaVuSans-30" transform="translate(306.445312 0.765625)"/>
       <use xlink:href="#DejaVuSans-2212" transform="translate(371.025391 39.046875)scale(0.7)"/>
       <use xlink:href="#DejaVuSans-36" transform="translate(429.677734 39.046875)scale(0.7)"/>
      </g>
     </g>
    </g>
    <g id="text_14">
     <!-- Rodriguez Parameter $\theta_y$ -->
     <g transform="translate(15.043821 196.868678)rotate(-90)scale(0.11 -0.11)">
      <defs>
       <path id="DejaVuSans-52" d="M 2841 2188 
Q 3044 2119 3236 1894 
Q 3428 1669 3622 1275 
L 4263 0 
L 3584 0 
L 2988 1197 
Q 2756 1666 2539 1819 
Q 2322 1972 1947 1972 
L 1259 1972 
L 1259 0 
L 628 0 
L 628 4666 
L 2053 4666 
Q 2853 4666 3247 4331 
Q 3641 3997 3641 3322 
Q 3641 2881 3436 2590 
Q 3231 2300 2841 2188 
z
M 1259 4147 
L 1259 2491 
L 2053 2491 
Q 2509 2491 2742 2702 
Q 2975 2913 2975 3322 
Q 2975 3731 2742 3939 
Q 2509 4147 2053 4147 
L 1259 4147 
z
" transform="scale(0.015625)"/>
       <path id="DejaVuSans-6f" d="M 1959 3097 
Q 1497 3097 1228 2736 
Q 959 2375 959 1747 
Q 959 1119 1226 758 
Q 1494 397 1959 397 
Q 2419 397 2687 759 
Q 2956 1122 2956 1747 
Q 2956 2369 2687 2733 
Q 2419 3097 1959 3097 
z
M 1959 3584 
Q 2709 3584 3137 3096 
Q 3566 2609 3566 1747 
Q 3566 888 3137 398 
Q 2709 -91 1959 -91 
Q 1206 -91 779 398 
Q 353 888 353 1747 
Q 353 2609 779 3096 
Q 1206 3584 1959 3584 
z
" transform="scale(0.015625)"/>
       <path id="DejaVuSans-64" d="M 2906 2969 
L 2906 4863 
L 3481 4863 
L 3481 0 
L 2906 0 
L 2906 525 
Q 2725 213 2448 61 
Q 2172 -91 1784 -91 
Q 1150 -91 751 415 
Q 353 922 353 1747 
Q 353 2572 751 3078 
Q 1150 3584 1784 3584 
Q 2172 3584 2448 3432 
Q 2725 3281 2906 2969 
z
M 947 1747 
Q 947 1113 1208 752 
Q 1469 391 1925 391 
Q 2381 391 2643 752 
Q 2906 1113 2906 1747 
Q 2906 2381 2643 2742 
Q 2381 3103 1925 3103 
Q 1469 3103 1208 2742 
Q 947 2381 947 1747 
z
" transform="scale(0.015625)"/>
       <path id="DejaVuSans-72" d="M 2631 2963 
Q 2534 3019 2420 3045 
Q 2306 3072 2169 3072 
Q 1681 3072 1420 2755 
Q 1159 2438 1159 1844 
L 1159 0 
L 581 0 
L 581 3500 
L 1159 3500 
L 1159 2956 
Q 1341 3275 1631 3429 
Q 1922 3584 2338 3584 
Q 2397 3584 2469 3576 
Q 2541 3569 2628 3553 
L 2631 2963 
z
" transform="scale(0.015625)"/>
       <path id="DejaVuSans-67" d="M 2906 1791 
Q 2906 2416 2648 2759 
Q 2391 3103 1925 3103 
Q 1463 3103 1205 2759 
Q 947 2416 947 1791 
Q 947 1169 1205 825 
Q 1463 481 1925 481 
Q 2391 481 2648 825 
Q 2906 1169 2906 1791 
z
M 3481 434 
Q 3481 -459 3084 -895 
Q 2688 -1331 1869 -1331 
Q 1566 -1331 1297 -1286 
Q 1028 -1241 775 -1147 
L 775 -588 
Q 1028 -725 1275 -790 
Q 1522 -856 1778 -856 
Q 2344 -856 2625 -561 
Q 2906 -266 2906 331 
L 2906 616 
Q 2728 306 2450 153 
Q 2172 0 1784 0 
Q 1141 0 747 490 
Q 353 981 353 1791 
Q 353 2603 747 3093 
Q 1141 3584 1784 3584 
Q 2172 3584 2450 3431 
Q 2728 3278 2906 2969 
L 2906 3500 
L 3481 3500 
L 3481 434 
z
" transform="scale(0.015625)"/>
       <path id="DejaVuSans-75" d="M 544 1381 
L 544 3500 
L 1119 3500 
L 1119 1403 
Q 1119 906 1312 657 
Q 1506 409 1894 409 
Q 2359 409 2629 706 
Q 2900 1003 2900 1516 
L 2900 3500 
L 3475 3500 
L 3475 0 
L 2900 0 
L 2900 538 
Q 2691 219 2414 64 
Q 2138 -91 1772 -91 
Q 1169 -91 856 284 
Q 544 659 544 1381 
z
M 1991 3584 
L 1991 3584 
z
" transform="scale(0.015625)"/>
       <path id="DejaVuSans-7a" d="M 353 3500 
L 3084 3500 
L 3084 2975 
L 922 459 
L 3084 459 
L 3084 0 
L 275 0 
L 275 525 
L 2438 3041 
L 353 3041 
L 353 3500 
z
" transform="scale(0.015625)"/>
       <path id="DejaVuSans-50" d="M 1259 4147 
L 1259 2394 
L 2053 2394 
Q 2494 2394 2734 2622 
Q 2975 2850 2975 3272 
Q 2975 3691 2734 3919 
Q 2494 4147 2053 4147 
L 1259 4147 
z
M 628 4666 
L 2053 4666 
Q 2838 4666 3239 4311 
Q 3641 3956 3641 3272 
Q 3641 2581 3239 2228 
Q 2838 1875 2053 1875 
L 1259 1875 
L 1259 0 
L 628 0 
L 628 4666 
z
" transform="scale(0.015625)"/>
       <path id="DejaVuSans-61" d="M 2194 1759 
Q 1497 1759 1228 1600 
Q 959 1441 959 1056 
Q 959 750 1161 570 
Q 1363 391 1709 391 
Q 2188 391 2477 730 
Q 2766 1069 2766 1631 
L 2766 1759 
L 2194 1759 
z
M 3341 1997 
L 3341 0 
L 2766 0 
L 2766 531 
Q 2569 213 2275 61 
Q 1981 -91 1556 -91 
Q 1019 -91 701 211 
Q 384 513 384 1019 
Q 384 1609 779 1909 
Q 1175 2209 1959 2209 
L 2766 2209 
L 2766 2266 
Q 2766 2663 2505 2880 
Q 2244 3097 1772 3097 
Q 1472 3097 1187 3025 
Q 903 2953 641 2809 
L 641 3341 
Q 956 3463 1253 3523 
Q 1550 3584 1831 3584 
Q 2591 3584 2966 3190 
Q 3341 2797 3341 1997 
z
" transform="scale(0.015625)"/>
       <path id="DejaVuSans-74" d="M 1172 4494 
L 1172 3500 
L 2356 3500 
L 2356 3053 
L 1172 3053 
L 1172 1153 
Q 1172 725 1289 603 
Q 1406 481 1766 481 
L 2356 481 
L 2356 0 
L 1766 0 
Q 1100 0 847 248 
Q 594 497 594 1153 
L 594 3053 
L 172 3053 
L 172 3500 
L 594 3500 
L 594 4494 
L 1172 4494 
z
" transform="scale(0.015625)"/>
       <path id="DejaVuSans-Oblique-3b8" d="M 2913 2219 
L 925 2219 
Q 791 1284 928 888 
Q 1100 400 1566 400 
Q 2034 400 2391 891 
Q 2703 1322 2913 2219 
z
M 3009 2750 
Q 3094 3638 2984 3950 
Q 2813 4444 2353 4444 
Q 1875 4444 1525 3956 
Q 1250 3563 1034 2750 
L 3009 2750 
z
M 2444 4913 
Q 3194 4913 3494 4250 
Q 3794 3591 3566 2422 
Q 3341 1256 2781 594 
Q 2225 -72 1475 -72 
Q 722 -72 425 594 
Q 128 1256 353 2422 
Q 581 3591 1134 4250 
Q 1691 4913 2444 4913 
z
" transform="scale(0.015625)"/>
       <path id="DejaVuSans-Oblique-79" d="M 1588 -325 
Q 1188 -997 936 -1164 
Q 684 -1331 294 -1331 
L -159 -1331 
L -63 -850 
L 269 -850 
Q 509 -850 678 -719 
Q 847 -588 1056 -206 
L 1234 128 
L 459 3500 
L 1069 3500 
L 1650 819 
L 3256 3500 
L 3859 3500 
L 1588 -325 
z
" transform="scale(0.015625)"/>
      </defs>
      <use xlink:href="#DejaVuSans-52" transform="translate(0 0.234375)"/>
      <use xlink:href="#DejaVuSans-6f" transform="translate(69.482422 0.234375)"/>
      <use xlink:href="#DejaVuSans-64" transform="translate(130.664062 0.234375)"/>
      <use xlink:href="#DejaVuSans-72" transform="translate(194.140625 0.234375)"/>
      <use xlink:href="#DejaVuSans-69" transform="translate(235.253906 0.234375)"/>
      <use xlink:href="#DejaVuSans-67" transform="translate(263.037109 0.234375)"/>
      <use xlink:href="#DejaVuSans-75" transform="translate(326.513672 0.234375)"/>
      <use xlink:href="#DejaVuSans-65" transform="translate(389.892578 0.234375)"/>
      <use xlink:href="#DejaVuSans-7a" transform="translate(451.416016 0.234375)"/>
      <use xlink:href="#DejaVuSans-20" transform="translate(503.90625 0.234375)"/>
      <use xlink:href="#DejaVuSans-50" transform="translate(535.693359 0.234375)"/>
      <use xlink:href="#DejaVuSans-61" transform="translate(595.996094 0.234375)"/>
      <use xlink:href="#DejaVuSans-72" transform="translate(657.275391 0.234375)"/>
      <use xlink:href="#DejaVuSans-61" transform="translate(698.388672 0.234375)"/>
      <use xlink:href="#DejaVuSans-6d" transform="translate(759.667969 0.234375)"/>
      <use xlink:href="#DejaVuSans-65" transform="translate(857.080078 0.234375)"/>
      <use xlink:href="#DejaVuSans-74" transform="translate(918.603516 0.234375)"/>
      <use xlink:href="#DejaVuSans-65" transform="translate(957.8125 0.234375)"/>
      <use xlink:href="#DejaVuSans-72" transform="translate(1019.335938 0.234375)"/>
      <use xlink:href="#DejaVuSans-20" transform="translate(1060.449219 0.234375)"/>
      <use xlink:href="#DejaVuSans-Oblique-3b8" transform="translate(1092.236328 0.234375)"/>
      <use xlink:href="#DejaVuSans-Oblique-79" transform="translate(1153.417969 -16.171875)scale(0.7)"/>
     </g>
    </g>
   </g>
   <g id="patch_3">
    <path d="M 70.833821 258.225354 
L 70.833821 3.732001 
" style="fill: none; stroke: #000000; stroke-linejoin: miter; stroke-linecap: square"/>
   </g>
   <g id="patch_4">
    <path d="M 70.833821 258.225354 
L 419.805777 258.225354 
" style="fill: none; stroke: #000000; stroke-linejoin: miter; stroke-linecap: square"/>
   </g>
  </g>
 </g>
 <defs>
  <clipPath id="pfaa608627f">
   <rect x="70.833821" y="3.732001" width="348.971956" height="254.493353"/>
  </clipPath>
 </defs>
</svg>
