<?xml version="1.0" encoding="utf-8" standalone="no"?>
<!DOCTYPE svg PUBLIC "-//W3C//DTD SVG 1.1//EN"
  "http://www.w3.org/Graphics/SVG/1.1/DTD/svg11.dtd">
<svg xmlns:xlink="http://www.w3.org/1999/xlink" width="432pt" height="288pt" viewBox="0 0 432 288" xmlns="http://www.w3.org/2000/svg" version="1.1">
 <metadata>
  <rdf:RDF xmlns:dc="http://purl.org/dc/elements/1.1/" xmlns:cc="http://creativecommons.org/ns#" xmlns:rdf="http://www.w3.org/1999/02/22-rdf-syntax-ns#">
   <cc:Work>
    <dc:type rdf:resource="http://purl.org/dc/dcmitype/StillImage"/>
    <dc:date>2022-05-17T21:39:27.670960</dc:date>
    <dc:format>image/svg+xml</dc:format>
    <dc:creator>
     <cc:Agent>
      <dc:title>Matplotlib v3.5.2, https://matplotlib.org/</dc:title>
     </cc:Agent>
    </dc:creator>
   </cc:Work>
  </rdf:RDF>
 </metadata>
 <defs>
  <style type="text/css">*{stroke-linejoin: round; stroke-linecap: butt}</style>
 </defs>
 <g id="figure_1">
  <g id="patch_1">
   <path d="M 0 288 
L 432 288 
L 432 0 
L 0 0 
z
" style="fill: #ffffff"/>
  </g>
  <g id="axes_1">
   <g id="patch_2">
    <path d="M 70.743821 258.225354 
L 419.805777 258.225354 
L 419.805777 2.834646 
L 70.743821 2.834646 
z
" style="fill: #ffffff"/>
   </g>
   <g id="line2d_1">
    <path d="M 70.743821 115.300843 
L 71.092883 115.159756 
L 71.441945 114.737736 
L 72.489131 112.924604 
L 73.536317 112.159837 
L 74.583503 110.387945 
L 75.97975 109.11434 
L 77.026936 107.526119 
L 78.074122 106.648433 
L 79.121308 104.935082 
L 80.517556 103.638067 
L 81.21568 102.495162 
L 81.913804 101.836409 
L 82.262866 101.592646 
L 82.960989 100.662794 
L 83.659113 99.607581 
L 84.357237 99.017371 
L 84.706299 98.743725 
L 85.404423 97.751262 
L 86.102547 96.74529 
L 86.800671 96.369248 
L 87.149733 96.001452 
L 88.196919 94.247831 
L 89.244105 93.59211 
L 90.640352 91.535914 
L 91.338476 91.151842 
L 91.687538 90.706753 
L 92.385662 89.437823 
L 93.083786 88.825156 
L 93.432848 88.62093 
L 93.78191 88.249268 
L 94.829096 86.514861 
L 95.876282 85.813572 
L 97.27253 83.750092 
L 97.970654 83.334704 
L 99.715963 81.010916 
L 100.065025 80.77748 
L 100.763149 79.889631 
L 101.461273 78.86109 
L 102.159397 78.266054 
L 102.857521 77.568136 
L 103.904707 76.017228 
L 104.951893 75.237415 
L 106.348141 73.304705 
L 107.046264 72.870054 
L 107.395326 72.417596 
L 108.09345 71.189229 
L 108.791574 70.565013 
L 109.140636 70.384882 
L 109.489698 70.034199 
L 110.536884 68.332381 
L 111.235008 67.897949 
L 111.58407 67.640024 
L 112.980318 65.475695 
L 113.678442 65.121156 
L 114.376566 63.933042 
L 114.725627 63.285303 
L 115.074689 62.879996 
L 115.772813 62.515903 
L 116.121875 62.068931 
L 117.169061 60.261937 
L 118.216247 59.350413 
L 119.612495 57.174004 
L 120.310619 56.553305 
L 121.008743 55.4972 
L 121.706867 54.34966 
L 122.754052 53.327737 
L 124.1503 51.110393 
L 124.848424 50.514676 
L 125.546548 49.402492 
L 126.244672 48.287848 
L 127.64092 46.756102 
L 128.339044 45.489184 
L 128.688106 45.057842 
L 129.38623 44.586569 
L 129.735292 44.138209 
L 130.782477 42.352592 
L 131.480601 41.956751 
L 131.829663 41.565151 
L 132.876849 39.679895 
L 133.924035 38.943395 
L 135.320283 36.825147 
L 136.018407 36.388257 
L 136.367469 35.942322 
L 137.065593 34.670214 
L 137.763717 33.993283 
L 138.112779 33.786403 
L 138.461841 33.433264 
L 139.509026 31.72849 
L 140.905274 30.429977 
L 141.603398 29.285725 
L 142.301522 28.694347 
L 142.650584 28.417374 
L 143.348708 27.40605 
L 144.046832 26.385751 
L 145.44308 25.069434 
L 146.490266 23.492899 
L 147.537451 22.624336 
L 148.584637 20.89087 
L 149.631823 20.137907 
L 151.028071 18.094673 
L 151.726195 17.672446 
L 152.075257 17.208855 
L 152.773381 15.929077 
L 153.122443 15.497803 
L 154.169629 14.767851 
L 155.216814 13.002735 
L 155.565876 12.72348 
L 155.914938 12.607655 
L 156.264 12.35358 
L 157.660248 10.205927 
L 158.00931 10.062685 
L 158.358372 10.102488 
L 158.707434 10.460699 
L 159.75462 12.469575 
L 160.801806 13.176761 
L 162.198054 15.425326 
L 162.547115 15.583866 
L 162.896177 15.892246 
L 163.594301 17.017772 
L 164.292425 18.063837 
L 164.990549 18.637481 
L 165.339611 19.102378 
L 166.386797 21.056361 
L 167.433983 22.05389 
L 170.924602 27.955918 
L 173.018974 31.750963 
L 173.717098 33.079335 
L 174.415222 34.231732 
L 176.160532 38.189278 
L 176.509594 38.788949 
L 177.207718 40.748098 
L 177.905842 42.505983 
L 178.603965 43.5981 
L 178.953027 44.39056 
L 180.000213 47.455158 
L 181.047399 49.499568 
L 182.094585 52.65028 
L 183.490833 55.681398 
L 184.188957 57.929125 
L 185.585205 61.133197 
L 186.63239 64.428238 
L 187.679576 66.982244 
L 189.075824 71.379398 
L 190.12301 74.49404 
L 194.660815 90.389875 
L 196.057063 96.293999 
L 196.755187 98.755123 
L 198.500497 106.149817 
L 199.198621 108.899853 
L 200.245807 113.846423 
L 201.292993 117.71502 
L 202.340179 122.544862 
L 203.387364 125.996146 
L 204.43455 130.56802 
L 205.830798 135.057941 
L 206.528922 137.666137 
L 208.972356 144.211755 
L 210.368604 147.027637 
L 211.066727 148.540423 
L 211.764851 149.408406 
L 212.462975 150.240161 
L 213.510161 151.803884 
L 214.208285 152.357486 
L 214.557347 152.599882 
L 215.255471 153.449641 
L 215.953595 154.285405 
L 217.000781 154.578312 
L 217.349843 154.943867 
L 218.047967 155.861991 
L 219.095152 156.174609 
L 220.4914 157.968926 
L 220.840462 158.004885 
L 221.189524 158.215706 
L 221.538586 158.691339 
L 222.23671 160.044614 
L 222.934834 160.564153 
L 223.283896 160.825358 
L 223.632958 161.342281 
L 224.680144 163.625109 
L 225.72733 164.993063 
L 227.123577 168.189386 
L 227.821701 169.35904 
L 229.217949 173.105566 
L 229.916073 174.515463 
L 232.010445 179.956209 
L 233.057631 182.67397 
L 233.755755 184.625342 
L 235.152002 187.813125 
L 235.850126 189.854136 
L 239.689808 198.408772 
L 240.387932 200.358295 
L 241.435118 202.228199 
L 242.831365 206.157032 
L 243.529489 207.364896 
L 244.227613 209.644258 
L 244.925737 211.90023 
L 246.671047 215.515223 
L 247.718233 217.62879 
L 250.85979 225.998704 
L 254.001348 234.85254 
L 255.048534 237.910398 
L 257.142906 243.099862 
L 258.888215 246.641425 
L 260.633525 249.459354 
L 261.331649 250.022057 
L 262.727897 250.883396 
L 264.124145 250.997061 
L 264.473207 250.964531 
L 265.171331 250.567307 
L 266.567578 249.535183 
L 267.963826 247.605586 
L 269.011012 246.085913 
L 271.105384 242.05899 
L 278.784747 225.574988 
L 280.180995 222.79391 
L 281.228181 220.965937 
L 282.275367 219.081665 
L 284.7188 215.191278 
L 286.46411 212.585849 
L 287.511296 211.026108 
L 288.558482 209.534271 
L 292.747225 204.476071 
L 294.143473 203.135559 
L 296.237845 201.954948 
L 297.983155 201.433603 
L 298.681278 201.719533 
L 300.077526 202.332413 
L 301.473774 203.503955 
L 302.171898 204.231139 
L 303.219084 205.756612 
L 303.917208 206.896448 
L 306.360642 212.01199 
L 308.455013 217.401189 
L 311.247509 225.321276 
L 312.643757 229.1018 
L 314.040005 232.968012 
L 315.436252 236.448855 
L 317.530624 240.8278 
L 318.926872 243.278079 
L 319.624996 244.317409 
L 321.370306 246.189171 
L 323.464677 247.443536 
L 324.511863 247.638296 
L 325.209987 247.813969 
L 325.908111 247.666507 
L 327.653421 246.981062 
L 329.398731 245.883764 
L 331.493102 243.967338 
L 336.030908 237.562131 
L 340.219651 229.763162 
L 341.615899 226.666802 
L 343.012147 223.442233 
L 344.408395 220.155961 
L 346.502766 215.200031 
L 348.597138 210.421917 
L 349.993386 207.698678 
L 350.69151 206.280073 
L 352.43682 203.438155 
L 353.484006 202.244933 
L 354.531191 201.209121 
L 356.625563 200.05465 
L 357.323687 200.130291 
L 358.719935 200.547299 
L 360.116183 201.548613 
L 360.814307 202.2051 
L 362.908678 205.006354 
L 366.74836 212.261319 
L 368.144608 215.329485 
L 369.191794 217.624226 
L 370.23898 219.919584 
L 373.031475 225.844599 
L 374.078661 228.01351 
L 375.474909 230.772685 
L 376.522095 232.632557 
L 378.965528 236.958483 
L 380.012714 238.765594 
L 381.0599 240.302738 
L 382.107086 241.858933 
L 382.80521 242.688584 
L 384.55052 245.026858 
L 385.946768 246.438943 
L 388.739263 248.171653 
L 389.786449 248.571112 
L 390.484573 248.511057 
L 392.229883 247.824387 
L 394.324254 246.196447 
L 396.418626 242.83976 
L 399.211122 236.902584 
L 400.258308 234.159836 
L 401.654556 230.135161 
L 403.748927 224.175875 
L 407.239547 214.303359 
L 410.032043 208.281048 
L 411.42829 205.871194 
L 413.1736 203.755638 
L 414.91891 202.615418 
L 415.617034 202.326406 
L 417.362344 202.273709 
L 419.107653 202.908494 
L 419.805777 203.426393 
L 419.805777 203.426393 
" clip-path="url(#p7db3ced04c)" style="fill: none; stroke: #009afa"/>
   </g>
   <g id="matplotlib.axis_1">
    <g id="xtick_1">
     <g id="line2d_2">
      <defs>
       <path id="ma4144dcb57" d="M 0 0 
L 0 -2.5 
" style="stroke: #000000; stroke-width: 0.5"/>
      </defs>
      <g>
       <use xlink:href="#ma4144dcb57" x="70.743821" y="258.225354" style="stroke: #000000; stroke-width: 0.5"/>
      </g>
     </g>
     <g id="text_1">
      <!-- $0.00$ -->
      <g transform="translate(61.823821 267.804104)scale(0.08 -0.08)">
       <defs>
        <path id="DejaVuSans-30" d="M 2034 4250 
Q 1547 4250 1301 3770 
Q 1056 3291 1056 2328 
Q 1056 1369 1301 889 
Q 1547 409 2034 409 
Q 2525 409 2770 889 
Q 3016 1369 3016 2328 
Q 3016 3291 2770 3770 
Q 2525 4250 2034 4250 
z
M 2034 4750 
Q 2819 4750 3233 4129 
Q 3647 3509 3647 2328 
Q 3647 1150 3233 529 
Q 2819 -91 2034 -91 
Q 1250 -91 836 529 
Q 422 1150 422 2328 
Q 422 3509 836 4129 
Q 1250 4750 2034 4750 
z
" transform="scale(0.015625)"/>
        <path id="DejaVuSans-2e" d="M 684 794 
L 1344 794 
L 1344 0 
L 684 0 
L 684 794 
z
" transform="scale(0.015625)"/>
       </defs>
       <use xlink:href="#DejaVuSans-30" transform="translate(0 0.78125)"/>
       <use xlink:href="#DejaVuSans-2e" transform="translate(63.623047 0.78125)"/>
       <use xlink:href="#DejaVuSans-30" transform="translate(95.410156 0.78125)"/>
       <use xlink:href="#DejaVuSans-30" transform="translate(159.033203 0.78125)"/>
      </g>
     </g>
    </g>
    <g id="xtick_2">
     <g id="line2d_3">
      <g>
       <use xlink:href="#ma4144dcb57" x="158.00931" y="258.225354" style="stroke: #000000; stroke-width: 0.5"/>
      </g>
     </g>
     <g id="text_2">
      <!-- $0.01$ -->
      <g transform="translate(149.08931 267.804104)scale(0.08 -0.08)">
       <defs>
        <path id="DejaVuSans-31" d="M 794 531 
L 1825 531 
L 1825 4091 
L 703 3866 
L 703 4441 
L 1819 4666 
L 2450 4666 
L 2450 531 
L 3481 531 
L 3481 0 
L 794 0 
L 794 531 
z
" transform="scale(0.015625)"/>
       </defs>
       <use xlink:href="#DejaVuSans-30" transform="translate(0 0.78125)"/>
       <use xlink:href="#DejaVuSans-2e" transform="translate(63.623047 0.78125)"/>
       <use xlink:href="#DejaVuSans-30" transform="translate(95.410156 0.78125)"/>
       <use xlink:href="#DejaVuSans-31" transform="translate(159.033203 0.78125)"/>
      </g>
     </g>
    </g>
    <g id="xtick_3">
     <g id="line2d_4">
      <g>
       <use xlink:href="#ma4144dcb57" x="245.274799" y="258.225354" style="stroke: #000000; stroke-width: 0.5"/>
      </g>
     </g>
     <g id="text_3">
      <!-- $0.02$ -->
      <g transform="translate(236.354799 267.804104)scale(0.08 -0.08)">
       <defs>
        <path id="DejaVuSans-32" d="M 1228 531 
L 3431 531 
L 3431 0 
L 469 0 
L 469 531 
Q 828 903 1448 1529 
Q 2069 2156 2228 2338 
Q 2531 2678 2651 2914 
Q 2772 3150 2772 3378 
Q 2772 3750 2511 3984 
Q 2250 4219 1831 4219 
Q 1534 4219 1204 4116 
Q 875 4013 500 3803 
L 500 4441 
Q 881 4594 1212 4672 
Q 1544 4750 1819 4750 
Q 2544 4750 2975 4387 
Q 3406 4025 3406 3419 
Q 3406 3131 3298 2873 
Q 3191 2616 2906 2266 
Q 2828 2175 2409 1742 
Q 1991 1309 1228 531 
z
" transform="scale(0.015625)"/>
       </defs>
       <use xlink:href="#DejaVuSans-30" transform="translate(0 0.78125)"/>
       <use xlink:href="#DejaVuSans-2e" transform="translate(63.623047 0.78125)"/>
       <use xlink:href="#DejaVuSans-30" transform="translate(95.410156 0.78125)"/>
       <use xlink:href="#DejaVuSans-32" transform="translate(159.033203 0.78125)"/>
      </g>
     </g>
    </g>
    <g id="xtick_4">
     <g id="line2d_5">
      <g>
       <use xlink:href="#ma4144dcb57" x="332.540288" y="258.225354" style="stroke: #000000; stroke-width: 0.5"/>
      </g>
     </g>
     <g id="text_4">
      <!-- $0.03$ -->
      <g transform="translate(323.620288 267.804104)scale(0.08 -0.08)">
       <defs>
        <path id="DejaVuSans-33" d="M 2597 2516 
Q 3050 2419 3304 2112 
Q 3559 1806 3559 1356 
Q 3559 666 3084 287 
Q 2609 -91 1734 -91 
Q 1441 -91 1130 -33 
Q 819 25 488 141 
L 488 750 
Q 750 597 1062 519 
Q 1375 441 1716 441 
Q 2309 441 2620 675 
Q 2931 909 2931 1356 
Q 2931 1769 2642 2001 
Q 2353 2234 1838 2234 
L 1294 2234 
L 1294 2753 
L 1863 2753 
Q 2328 2753 2575 2939 
Q 2822 3125 2822 3475 
Q 2822 3834 2567 4026 
Q 2313 4219 1838 4219 
Q 1578 4219 1281 4162 
Q 984 4106 628 3988 
L 628 4550 
Q 988 4650 1302 4700 
Q 1616 4750 1894 4750 
Q 2613 4750 3031 4423 
Q 3450 4097 3450 3541 
Q 3450 3153 3228 2886 
Q 3006 2619 2597 2516 
z
" transform="scale(0.015625)"/>
       </defs>
       <use xlink:href="#DejaVuSans-30" transform="translate(0 0.78125)"/>
       <use xlink:href="#DejaVuSans-2e" transform="translate(63.623047 0.78125)"/>
       <use xlink:href="#DejaVuSans-30" transform="translate(95.410156 0.78125)"/>
       <use xlink:href="#DejaVuSans-33" transform="translate(159.033203 0.78125)"/>
      </g>
     </g>
    </g>
    <g id="xtick_5">
     <g id="line2d_6">
      <g>
       <use xlink:href="#ma4144dcb57" x="419.805777" y="258.225354" style="stroke: #000000; stroke-width: 0.5"/>
      </g>
     </g>
     <g id="text_5">
      <!-- $0.04$ -->
      <g transform="translate(410.885777 267.804104)scale(0.08 -0.08)">
       <defs>
        <path id="DejaVuSans-34" d="M 2419 4116 
L 825 1625 
L 2419 1625 
L 2419 4116 
z
M 2253 4666 
L 3047 4666 
L 3047 1625 
L 3713 1625 
L 3713 1100 
L 3047 1100 
L 3047 0 
L 2419 0 
L 2419 1100 
L 313 1100 
L 313 1709 
L 2253 4666 
z
" transform="scale(0.015625)"/>
       </defs>
       <use xlink:href="#DejaVuSans-30" transform="translate(0 0.78125)"/>
       <use xlink:href="#DejaVuSans-2e" transform="translate(63.623047 0.78125)"/>
       <use xlink:href="#DejaVuSans-30" transform="translate(95.410156 0.78125)"/>
       <use xlink:href="#DejaVuSans-34" transform="translate(159.033203 0.78125)"/>
      </g>
     </g>
    </g>
    <g id="text_6">
     <!-- Time (s) -->
     <g transform="translate(222.913002 281.826136)scale(0.11 -0.11)">
      <defs>
       <path id="DejaVuSans-54" d="M -19 4666 
L 3928 4666 
L 3928 4134 
L 2272 4134 
L 2272 0 
L 1638 0 
L 1638 4134 
L -19 4134 
L -19 4666 
z
" transform="scale(0.015625)"/>
       <path id="DejaVuSans-69" d="M 603 3500 
L 1178 3500 
L 1178 0 
L 603 0 
L 603 3500 
z
M 603 4863 
L 1178 4863 
L 1178 4134 
L 603 4134 
L 603 4863 
z
" transform="scale(0.015625)"/>
       <path id="DejaVuSans-6d" d="M 3328 2828 
Q 3544 3216 3844 3400 
Q 4144 3584 4550 3584 
Q 5097 3584 5394 3201 
Q 5691 2819 5691 2113 
L 5691 0 
L 5113 0 
L 5113 2094 
Q 5113 2597 4934 2840 
Q 4756 3084 4391 3084 
Q 3944 3084 3684 2787 
Q 3425 2491 3425 1978 
L 3425 0 
L 2847 0 
L 2847 2094 
Q 2847 2600 2669 2842 
Q 2491 3084 2119 3084 
Q 1678 3084 1418 2786 
Q 1159 2488 1159 1978 
L 1159 0 
L 581 0 
L 581 3500 
L 1159 3500 
L 1159 2956 
Q 1356 3278 1631 3431 
Q 1906 3584 2284 3584 
Q 2666 3584 2933 3390 
Q 3200 3197 3328 2828 
z
" transform="scale(0.015625)"/>
       <path id="DejaVuSans-65" d="M 3597 1894 
L 3597 1613 
L 953 1613 
Q 991 1019 1311 708 
Q 1631 397 2203 397 
Q 2534 397 2845 478 
Q 3156 559 3463 722 
L 3463 178 
Q 3153 47 2828 -22 
Q 2503 -91 2169 -91 
Q 1331 -91 842 396 
Q 353 884 353 1716 
Q 353 2575 817 3079 
Q 1281 3584 2069 3584 
Q 2775 3584 3186 3129 
Q 3597 2675 3597 1894 
z
M 3022 2063 
Q 3016 2534 2758 2815 
Q 2500 3097 2075 3097 
Q 1594 3097 1305 2825 
Q 1016 2553 972 2059 
L 3022 2063 
z
" transform="scale(0.015625)"/>
       <path id="DejaVuSans-20" transform="scale(0.015625)"/>
       <path id="DejaVuSans-28" d="M 1984 4856 
Q 1566 4138 1362 3434 
Q 1159 2731 1159 2009 
Q 1159 1288 1364 580 
Q 1569 -128 1984 -844 
L 1484 -844 
Q 1016 -109 783 600 
Q 550 1309 550 2009 
Q 550 2706 781 3412 
Q 1013 4119 1484 4856 
L 1984 4856 
z
" transform="scale(0.015625)"/>
       <path id="DejaVuSans-73" d="M 2834 3397 
L 2834 2853 
Q 2591 2978 2328 3040 
Q 2066 3103 1784 3103 
Q 1356 3103 1142 2972 
Q 928 2841 928 2578 
Q 928 2378 1081 2264 
Q 1234 2150 1697 2047 
L 1894 2003 
Q 2506 1872 2764 1633 
Q 3022 1394 3022 966 
Q 3022 478 2636 193 
Q 2250 -91 1575 -91 
Q 1294 -91 989 -36 
Q 684 19 347 128 
L 347 722 
Q 666 556 975 473 
Q 1284 391 1588 391 
Q 1994 391 2212 530 
Q 2431 669 2431 922 
Q 2431 1156 2273 1281 
Q 2116 1406 1581 1522 
L 1381 1569 
Q 847 1681 609 1914 
Q 372 2147 372 2553 
Q 372 3047 722 3315 
Q 1072 3584 1716 3584 
Q 2034 3584 2315 3537 
Q 2597 3491 2834 3397 
z
" transform="scale(0.015625)"/>
       <path id="DejaVuSans-29" d="M 513 4856 
L 1013 4856 
Q 1481 4119 1714 3412 
Q 1947 2706 1947 2009 
Q 1947 1309 1714 600 
Q 1481 -109 1013 -844 
L 513 -844 
Q 928 -128 1133 580 
Q 1338 1288 1338 2009 
Q 1338 2731 1133 3434 
Q 928 4138 513 4856 
z
" transform="scale(0.015625)"/>
      </defs>
      <use xlink:href="#DejaVuSans-54"/>
      <use xlink:href="#DejaVuSans-69" x="57.958984"/>
      <use xlink:href="#DejaVuSans-6d" x="85.742188"/>
      <use xlink:href="#DejaVuSans-65" x="183.154297"/>
      <use xlink:href="#DejaVuSans-20" x="244.677734"/>
      <use xlink:href="#DejaVuSans-28" x="276.464844"/>
      <use xlink:href="#DejaVuSans-73" x="315.478516"/>
      <use xlink:href="#DejaVuSans-29" x="367.578125"/>
     </g>
    </g>
   </g>
   <g id="matplotlib.axis_2">
    <g id="ytick_1">
     <g id="line2d_7">
      <defs>
       <path id="mde7b912331" d="M 0 0 
L 2.5 0 
" style="stroke: #000000; stroke-width: 0.5"/>
      </defs>
      <g>
       <use xlink:href="#mde7b912331" x="70.743821" y="256.0531" style="stroke: #000000; stroke-width: 0.5"/>
      </g>
     </g>
     <g id="text_7">
      <!-- $-4.0×10^{-5}$ -->
      <g transform="translate(22.363821 259.092475)scale(0.08 -0.08)">
       <defs>
        <path id="DejaVuSans-2212" d="M 678 2272 
L 4684 2272 
L 4684 1741 
L 678 1741 
L 678 2272 
z
" transform="scale(0.015625)"/>
        <path id="DejaVuSans-d7" d="M 4488 3438 
L 3059 2003 
L 4488 575 
L 4116 197 
L 2681 1631 
L 1247 197 
L 878 575 
L 2303 2003 
L 878 3438 
L 1247 3816 
L 2681 2381 
L 4116 3816 
L 4488 3438 
z
" transform="scale(0.015625)"/>
        <path id="DejaVuSans-35" d="M 691 4666 
L 3169 4666 
L 3169 4134 
L 1269 4134 
L 1269 2991 
Q 1406 3038 1543 3061 
Q 1681 3084 1819 3084 
Q 2600 3084 3056 2656 
Q 3513 2228 3513 1497 
Q 3513 744 3044 326 
Q 2575 -91 1722 -91 
Q 1428 -91 1123 -41 
Q 819 9 494 109 
L 494 744 
Q 775 591 1075 516 
Q 1375 441 1709 441 
Q 2250 441 2565 725 
Q 2881 1009 2881 1497 
Q 2881 1984 2565 2268 
Q 2250 2553 1709 2553 
Q 1456 2553 1204 2497 
Q 953 2441 691 2322 
L 691 4666 
z
" transform="scale(0.015625)"/>
       </defs>
       <use xlink:href="#DejaVuSans-2212" transform="translate(0 0.684375)"/>
       <use xlink:href="#DejaVuSans-34" transform="translate(83.789062 0.684375)"/>
       <use xlink:href="#DejaVuSans-2e" transform="translate(147.412109 0.684375)"/>
       <use xlink:href="#DejaVuSans-30" transform="translate(179.199219 0.684375)"/>
       <use xlink:href="#DejaVuSans-d7" transform="translate(242.822266 0.684375)"/>
       <use xlink:href="#DejaVuSans-31" transform="translate(326.611328 0.684375)"/>
       <use xlink:href="#DejaVuSans-30" transform="translate(390.234375 0.684375)"/>
       <use xlink:href="#DejaVuSans-2212" transform="translate(454.814453 38.965625)scale(0.7)"/>
       <use xlink:href="#DejaVuSans-35" transform="translate(513.466797 38.965625)scale(0.7)"/>
      </g>
     </g>
    </g>
    <g id="ytick_2">
     <g id="line2d_8">
      <g>
       <use xlink:href="#mde7b912331" x="70.743821" y="185.676972" style="stroke: #000000; stroke-width: 0.5"/>
      </g>
     </g>
     <g id="text_8">
      <!-- $-2.0×10^{-5}$ -->
      <g transform="translate(22.363821 188.716347)scale(0.08 -0.08)">
       <use xlink:href="#DejaVuSans-2212" transform="translate(0 0.684375)"/>
       <use xlink:href="#DejaVuSans-32" transform="translate(83.789062 0.684375)"/>
       <use xlink:href="#DejaVuSans-2e" transform="translate(147.412109 0.684375)"/>
       <use xlink:href="#DejaVuSans-30" transform="translate(179.199219 0.684375)"/>
       <use xlink:href="#DejaVuSans-d7" transform="translate(242.822266 0.684375)"/>
       <use xlink:href="#DejaVuSans-31" transform="translate(326.611328 0.684375)"/>
       <use xlink:href="#DejaVuSans-30" transform="translate(390.234375 0.684375)"/>
       <use xlink:href="#DejaVuSans-2212" transform="translate(454.814453 38.965625)scale(0.7)"/>
       <use xlink:href="#DejaVuSans-35" transform="translate(513.466797 38.965625)scale(0.7)"/>
      </g>
     </g>
    </g>
    <g id="ytick_3">
     <g id="line2d_9">
      <g>
       <use xlink:href="#mde7b912331" x="70.743821" y="115.300843" style="stroke: #000000; stroke-width: 0.5"/>
      </g>
     </g>
     <g id="text_9">
      <!-- $0$ -->
      <g transform="translate(62.123821 118.340218)scale(0.08 -0.08)">
       <use xlink:href="#DejaVuSans-30" transform="translate(0 0.78125)"/>
      </g>
     </g>
    </g>
    <g id="ytick_4">
     <g id="line2d_10">
      <g>
       <use xlink:href="#mde7b912331" x="70.743821" y="44.924715" style="stroke: #000000; stroke-width: 0.5"/>
      </g>
     </g>
     <g id="text_10">
      <!-- $2.0×10^{-5}$ -->
      <g transform="translate(29.083821 47.96409)scale(0.08 -0.08)">
       <use xlink:href="#DejaVuSans-32" transform="translate(0 0.684375)"/>
       <use xlink:href="#DejaVuSans-2e" transform="translate(63.623047 0.684375)"/>
       <use xlink:href="#DejaVuSans-30" transform="translate(95.410156 0.684375)"/>
       <use xlink:href="#DejaVuSans-d7" transform="translate(159.033203 0.684375)"/>
       <use xlink:href="#DejaVuSans-31" transform="translate(242.822266 0.684375)"/>
       <use xlink:href="#DejaVuSans-30" transform="translate(306.445312 0.684375)"/>
       <use xlink:href="#DejaVuSans-2212" transform="translate(371.025391 38.965625)scale(0.7)"/>
       <use xlink:href="#DejaVuSans-35" transform="translate(429.677734 38.965625)scale(0.7)"/>
      </g>
     </g>
    </g>
    <g id="text_11">
     <!-- $u_y$ ($m$) -->
     <g transform="translate(14.953821 147.855)rotate(-90)scale(0.11 -0.11)">
      <defs>
       <path id="DejaVuSans-Oblique-75" d="M 428 1388 
L 838 3500 
L 1416 3500 
L 1006 1409 
Q 975 1256 961 1147 
Q 947 1038 947 966 
Q 947 700 1109 554 
Q 1272 409 1569 409 
Q 2031 409 2368 721 
Q 2706 1034 2809 1563 
L 3194 3500 
L 3769 3500 
L 3091 0 
L 2516 0 
L 2631 550 
Q 2388 244 2052 76 
Q 1716 -91 1338 -91 
Q 878 -91 622 161 
Q 366 413 366 863 
Q 366 956 381 1097 
Q 397 1238 428 1388 
z
" transform="scale(0.015625)"/>
       <path id="DejaVuSans-Oblique-79" d="M 1588 -325 
Q 1188 -997 936 -1164 
Q 684 -1331 294 -1331 
L -159 -1331 
L -63 -850 
L 269 -850 
Q 509 -850 678 -719 
Q 847 -588 1056 -206 
L 1234 128 
L 459 3500 
L 1069 3500 
L 1650 819 
L 3256 3500 
L 3859 3500 
L 1588 -325 
z
" transform="scale(0.015625)"/>
       <path id="DejaVuSans-Oblique-6d" d="M 5747 2113 
L 5338 0 
L 4763 0 
L 5166 2094 
Q 5191 2228 5203 2325 
Q 5216 2422 5216 2491 
Q 5216 2772 5059 2928 
Q 4903 3084 4622 3084 
Q 4203 3084 3875 2770 
Q 3547 2456 3450 1953 
L 3066 0 
L 2491 0 
L 2900 2094 
Q 2925 2209 2937 2307 
Q 2950 2406 2950 2484 
Q 2950 2769 2794 2926 
Q 2638 3084 2363 3084 
Q 1938 3084 1609 2770 
Q 1281 2456 1184 1953 
L 800 0 
L 225 0 
L 909 3500 
L 1484 3500 
L 1375 2956 
Q 1609 3263 1923 3423 
Q 2238 3584 2597 3584 
Q 2978 3584 3223 3384 
Q 3469 3184 3519 2828 
Q 3781 3197 4126 3390 
Q 4472 3584 4856 3584 
Q 5306 3584 5551 3325 
Q 5797 3066 5797 2591 
Q 5797 2488 5784 2364 
Q 5772 2241 5747 2113 
z
" transform="scale(0.015625)"/>
      </defs>
      <use xlink:href="#DejaVuSans-Oblique-75" transform="translate(0 0.125)"/>
      <use xlink:href="#DejaVuSans-Oblique-79" transform="translate(63.378906 -16.28125)scale(0.7)"/>
      <use xlink:href="#DejaVuSans-20" transform="translate(107.539062 0.125)"/>
      <use xlink:href="#DejaVuSans-28" transform="translate(139.326172 0.125)"/>
      <use xlink:href="#DejaVuSans-Oblique-6d" transform="translate(178.339844 0.125)"/>
      <use xlink:href="#DejaVuSans-29" transform="translate(275.751953 0.125)"/>
     </g>
    </g>
   </g>
   <g id="patch_3">
    <path d="M 70.743821 258.225354 
L 70.743821 2.834646 
" style="fill: none; stroke: #000000; stroke-linejoin: miter; stroke-linecap: square"/>
   </g>
   <g id="patch_4">
    <path d="M 70.743821 258.225354 
L 419.805777 258.225354 
" style="fill: none; stroke: #000000; stroke-linejoin: miter; stroke-linecap: square"/>
   </g>
  </g>
 </g>
 <defs>
  <clipPath id="p7db3ced04c">
   <rect x="70.743821" y="2.834646" width="349.061956" height="255.390709"/>
  </clipPath>
 </defs>
</svg>
