<?xml version="1.0" encoding="utf-8" standalone="no"?>
<!DOCTYPE svg PUBLIC "-//W3C//DTD SVG 1.1//EN"
  "http://www.w3.org/Graphics/SVG/1.1/DTD/svg11.dtd">
<svg xmlns:xlink="http://www.w3.org/1999/xlink" width="432pt" height="288pt" viewBox="0 0 432 288" xmlns="http://www.w3.org/2000/svg" version="1.1">
 <metadata>
  <rdf:RDF xmlns:dc="http://purl.org/dc/elements/1.1/" xmlns:cc="http://creativecommons.org/ns#" xmlns:rdf="http://www.w3.org/1999/02/22-rdf-syntax-ns#">
   <cc:Work>
    <dc:type rdf:resource="http://purl.org/dc/dcmitype/StillImage"/>
    <dc:date>2022-05-17T21:40:18.378229</dc:date>
    <dc:format>image/svg+xml</dc:format>
    <dc:creator>
     <cc:Agent>
      <dc:title>Matplotlib v3.5.2, https://matplotlib.org/</dc:title>
     </cc:Agent>
    </dc:creator>
   </cc:Work>
  </rdf:RDF>
 </metadata>
 <defs>
  <style type="text/css">*{stroke-linejoin: round; stroke-linecap: butt}</style>
 </defs>
 <g id="figure_1">
  <g id="patch_1">
   <path d="M 0 288 
L 432 288 
L 432 0 
L 0 0 
z
" style="fill: #ffffff"/>
  </g>
  <g id="axes_1">
   <g id="patch_2">
    <path d="M 64.557544 258.225354 
L 422.361999 258.225354 
L 422.361999 2.834646 
L 64.557544 2.834646 
z
" style="fill: #ffffff"/>
   </g>
   <g id="line2d_1">
    <path d="M 64.557544 117.787718 
L 64.736446 117.624263 
L 64.915348 117.674294 
L 65.452055 118.327347 
L 65.809859 117.788817 
L 66.167664 117.39133 
L 66.525468 117.553007 
L 66.70437 117.43838 
L 67.241077 116.78897 
L 67.598882 117.37043 
L 67.956686 117.832317 
L 68.314491 117.893154 
L 68.672295 118.609347 
L 69.030099 119.357313 
L 69.209002 119.349792 
L 69.566806 119.009827 
L 69.745708 119.010537 
L 70.103513 119.18333 
L 70.282415 119.023797 
L 70.819122 117.906341 
L 70.998024 117.856318 
L 71.355828 117.985144 
L 71.713633 117.523805 
L 71.892535 117.273718 
L 72.071437 117.243355 
L 72.608144 117.642725 
L 72.965948 116.952867 
L 73.323753 116.469542 
L 73.681557 116.396086 
L 74.039362 115.612499 
L 74.397166 114.823597 
L 74.576069 114.800355 
L 74.933873 115.006672 
L 75.47058 114.851008 
L 75.649482 115.104453 
L 76.186189 116.447686 
L 76.901797 117.151779 
L 77.259602 117.902235 
L 77.438504 118.053424 
L 77.975211 117.801875 
L 78.333015 118.262708 
L 78.69082 118.694328 
L 79.048624 118.722054 
L 79.227526 118.910501 
L 79.943135 120.391982 
L 80.479842 120.546619 
L 80.837646 121.028843 
L 81.016549 121.080444 
L 81.374353 120.561961 
L 81.732158 120.160727 
L 82.268864 120.308389 
L 82.805571 119.920659 
L 82.984473 120.059706 
L 83.700082 121.184195 
L 84.057887 121.253311 
L 84.415691 121.704465 
L 84.594593 121.93724 
L 84.773495 121.9854 
L 85.1313 121.504909 
L 85.489104 121.15329 
L 85.846909 121.180377 
L 86.025811 121.057552 
L 86.562518 120.237363 
L 86.74142 120.174588 
L 87.278127 120.40977 
L 87.457029 120.24456 
L 87.993736 119.386523 
L 88.530442 118.82971 
L 89.067149 116.925107 
L 89.424953 115.956314 
L 89.782758 115.206325 
L 90.498367 113.229923 
L 90.856171 113.156672 
L 91.035073 113.12065 
L 91.392878 112.706943 
L 91.750682 112.362027 
L 92.287389 112.503244 
L 92.466291 112.341 
L 93.1819 111.21868 
L 93.718607 111.251787 
L 94.255314 110.770963 
L 94.613118 111.299952 
L 94.970922 111.783682 
L 95.507629 111.788469 
L 96.044336 112.326963 
L 96.223238 112.210897 
L 96.938847 111.238222 
L 97.296651 111.137239 
L 97.654456 110.708984 
L 98.01226 110.396676 
L 98.191163 110.536669 
L 98.727869 111.290914 
L 99.085674 111.386998 
L 99.264576 111.566364 
L 99.801283 112.560033 
L 99.980185 112.587156 
L 100.337989 112.373023 
L 100.516892 112.489248 
L 101.053598 113.140422 
L 101.411403 112.983742 
L 101.590305 113.08558 
L 101.948109 113.909612 
L 102.305914 114.779121 
L 103.021523 115.829399 
L 103.379327 116.719058 
L 103.558229 116.934902 
L 103.737132 116.915769 
L 104.094936 116.700824 
L 104.452741 116.896642 
L 104.631643 116.978158 
L 104.810545 116.870094 
L 105.168349 116.413201 
L 105.347252 116.392909 
L 106.241763 117.422833 
L 106.420665 117.592501 
L 107.494078 119.626151 
L 107.851883 120.071953 
L 108.567492 121.298875 
L 108.925296 121.735844 
L 109.283101 122.802591 
L 109.819807 124.689815 
L 110.177612 125.720268 
L 111.072123 129.144539 
L 111.429927 129.699913 
L 111.966634 130.91236 
L 112.145536 131.097498 
L 112.861145 131.250821 
L 113.576754 132.309259 
L 113.934559 132.403495 
L 114.292363 132.993281 
L 114.650168 133.59271 
L 114.82907 133.561001 
L 115.186874 133.234927 
L 115.544679 133.300547 
L 115.723581 133.360996 
L 115.902483 133.273684 
L 116.618092 132.490046 
L 116.975896 132.808202 
L 117.333701 133.175213 
L 117.870408 133.284814 
L 118.586017 134.341522 
L 119.838332 133.184479 
L 120.375039 131.869542 
L 120.732843 131.508463 
L 121.090648 131.184436 
L 121.806257 129.985697 
L 122.164061 129.868345 
L 122.342963 129.604283 
L 124.310888 124.354099 
L 125.384301 123.502301 
L 126.09991 123.909636 
L 126.815519 123.177361 
L 126.994421 123.15279 
L 127.173323 122.998923 
L 127.531128 122.114026 
L 127.888932 121.327682 
L 128.425639 121.044911 
L 129.141248 119.888871 
L 129.499052 119.848882 
L 129.677955 119.619773 
L 130.93027 116.076532 
L 131.645879 112.992422 
L 132.003684 112.083722 
L 132.719293 109.765824 
L 133.255999 108.98288 
L 134.687217 104.929642 
L 135.223924 102.978358 
L 136.476239 99.858277 
L 136.834044 99.6694 
L 137.191848 98.914879 
L 137.549653 98.189405 
L 137.907457 97.824914 
L 138.265262 97.056777 
L 138.801968 95.752437 
L 139.159773 95.22303 
L 140.054284 94.691109 
L 140.233186 94.875801 
L 140.948795 96.200491 
L 141.306599 96.601107 
L 142.201111 98.050456 
L 142.558915 98.281531 
L 142.91672 98.421631 
L 143.274524 99.038143 
L 143.632328 99.530686 
L 143.990133 99.838587 
L 145.063546 101.504759 
L 145.242448 101.581113 
L 145.779155 101.31157 
L 146.13696 101.115455 
L 146.494764 100.410228 
L 147.031471 99.356469 
L 147.925982 98.479795 
L 148.462689 98.112297 
L 148.999395 98.413088 
L 149.3572 98.044968 
L 149.715004 97.720056 
L 150.072809 97.597224 
L 150.96732 96.826294 
L 151.146222 96.673926 
L 151.325124 96.703099 
L 151.861831 97.298375 
L 152.398538 97.303498 
L 152.935244 97.851492 
L 153.114146 97.793295 
L 153.650853 97.080729 
L 154.724267 95.383167 
L 155.082071 94.615918 
L 155.260973 94.496652 
L 155.79768 94.667147 
L 156.334387 94.419205 
L 156.692191 94.984312 
L 157.049996 95.495343 
L 157.586702 95.702265 
L 157.944507 96.450056 
L 159.01792 99.596129 
L 160.449138 108.6748 
L 160.985845 111.772886 
L 164.384987 129.429228 
L 165.637302 133.767183 
L 165.995107 134.314016 
L 166.352911 135.456015 
L 167.06852 138.139752 
L 167.784129 140.694459 
L 168.320836 142.38363 
L 168.67864 142.707741 
L 169.394249 143.116682 
L 169.573151 143.006909 
L 170.467663 141.886091 
L 170.825467 141.782871 
L 171.183271 141.368408 
L 171.541076 140.853942 
L 172.256685 140.417184 
L 173.330098 138.486714 
L 173.866805 138.184575 
L 174.224609 137.871305 
L 174.403512 138.023306 
L 175.655827 141.007287 
L 176.550338 143.316367 
L 176.908143 143.670865 
L 177.087045 143.766813 
L 177.444849 144.367051 
L 177.802654 144.770969 
L 178.160458 144.777829 
L 179.05497 145.587565 
L 179.591676 145.560231 
L 180.486187 144.593561 
L 181.380698 142.700401 
L 182.27521 141.836101 
L 182.990819 142.341759 
L 183.88533 143.625079 
L 184.422036 144.178887 
L 184.958743 144.511226 
L 185.316547 144.898381 
L 185.674352 144.946002 
L 186.032156 145.0132 
L 186.568863 145.446267 
L 186.926668 145.0782 
L 187.642276 143.910131 
L 188.000081 142.555047 
L 191.220321 126.937395 
L 192.472637 121.143803 
L 193.54605 116.291145 
L 195.15617 109.270624 
L 196.945192 99.920669 
L 197.481899 98.622375 
L 197.839703 98.228384 
L 198.018606 98.196296 
L 198.555312 98.573853 
L 199.092019 99.384682 
L 200.165432 101.180173 
L 201.059944 102.342886 
L 201.59665 102.873168 
L 201.954455 102.885096 
L 202.312259 102.65222 
L 202.670064 102.015101 
L 203.027868 100.858336 
L 203.743477 97.230696 
L 204.459086 92.757109 
L 204.995793 89.575253 
L 205.711401 86.806357 
L 206.248108 85.508224 
L 206.605913 85.329339 
L 206.963717 85.471291 
L 207.500424 85.884919 
L 207.858228 86.664605 
L 208.752739 90.136914 
L 209.64725 95.481571 
L 210.720664 101.87466 
L 211.078468 103.187474 
L 211.436273 103.732734 
L 211.794077 103.792442 
L 211.972979 103.616207 
L 212.330784 102.427999 
L 214.656513 90.600118 
L 215.729926 86.231629 
L 216.266633 85.16688 
L 216.445535 84.933202 
L 216.624437 84.92735 
L 216.80334 85.255159 
L 217.161144 86.772969 
L 217.697851 90.156615 
L 218.234557 95.876874 
L 219.307971 106.825487 
L 219.665775 109.839771 
L 222.886015 126.771511 
L 223.780526 130.657716 
L 224.317233 134.295086 
L 225.032842 142.699313 
L 225.748451 154.349479 
L 226.821864 170.024391 
L 227.358571 174.514593 
L 227.716375 176.417775 
L 228.07418 177.269705 
L 228.431984 177.620487 
L 228.610887 177.462517 
L 228.968691 176.366012 
L 229.505398 174.127344 
L 230.042104 169.848955 
L 230.578811 163.888633 
L 232.725638 135.142028 
L 233.262345 132.167284 
L 233.620149 130.584648 
L 233.799051 130.338248 
L 234.693562 131.020561 
L 235.051367 131.598751 
L 235.588073 131.874481 
L 235.945878 132.919182 
L 236.482585 134.577671 
L 236.840389 136.805763 
L 238.271607 147.275289 
L 238.808314 148.941162 
L 238.987216 149.033438 
L 239.166118 148.714743 
L 239.881727 146.434017 
L 240.597336 143.184941 
L 241.134043 141.81448 
L 241.491847 141.060592 
L 241.849651 140.760399 
L 242.207456 139.803166 
L 242.744163 137.730737 
L 243.817576 132.150187 
L 243.996478 131.753379 
L 244.17538 131.664252 
L 244.354283 131.98297 
L 244.712087 133.846292 
L 245.248794 139.081164 
L 246.501109 154.448845 
L 247.037816 157.49119 
L 247.216718 157.921499 
L 247.395621 157.951256 
L 247.753425 157.223047 
L 248.290132 155.495275 
L 248.826838 152.532891 
L 249.363545 148.218794 
L 249.721349 143.583583 
L 250.258056 133.355714 
L 251.33147 105.419156 
L 252.047078 89.26123 
L 252.583785 82.757937 
L 252.94159 80.603025 
L 253.120492 80.326932 
L 254.015003 80.82506 
L 254.372807 81.024216 
L 254.730612 80.654797 
L 255.088416 80.301974 
L 255.267319 80.271083 
L 255.446221 80.388249 
L 255.625123 80.751571 
L 255.982927 82.545325 
L 256.877439 89.356183 
L 257.414145 92.828315 
L 257.593047 93.270855 
L 257.77195 93.384535 
L 257.950852 93.221872 
L 258.308656 91.988175 
L 259.38207 86.536046 
L 259.560972 86.139154 
L 259.739874 86.018973 
L 259.918776 86.265048 
L 260.276581 87.779411 
L 261.171092 94.241492 
L 261.528896 96.682324 
L 261.886701 97.910409 
L 262.244505 98.383232 
L 262.423408 98.242568 
L 263.496821 95.482042 
L 263.675723 95.03666 
L 263.854625 94.911288 
L 264.033528 95.224547 
L 264.749137 97.221593 
L 265.106941 98.067242 
L 265.285843 98.132766 
L 265.464746 97.788676 
L 266.001452 94.781049 
L 266.359257 91.727663 
L 267.074866 84.714589 
L 267.43267 82.63056 
L 267.611572 82.162084 
L 267.790474 82.214804 
L 268.148279 84.251288 
L 268.684986 89.559918 
L 269.579497 99.710215 
L 269.937301 101.583273 
L 270.116203 101.927147 
L 270.295106 101.616951 
L 270.65291 99.924561 
L 271.368519 94.535858 
L 271.905226 90.578044 
L 272.26303 89.423394 
L 272.620835 88.87966 
L 272.799737 88.893175 
L 273.336444 89.210623 
L 273.694248 88.485654 
L 274.052052 87.3577 
L 274.409857 85.296834 
L 275.841075 72.092897 
L 276.019977 71.716798 
L 276.198879 71.719841 
L 276.556684 72.74938 
L 276.735586 73.774995 
L 277.09339 77.853892 
L 278.882413 103.755548 
L 279.419119 107.69254 
L 279.955826 109.712166 
L 281.029239 117.440716 
L 281.565946 120.952687 
L 281.744848 121.58863 
L 281.92375 121.812619 
L 282.281555 121.769031 
L 282.639359 121.327447 
L 282.997164 120.712588 
L 283.176066 120.88911 
L 283.354968 121.664854 
L 283.712773 125.063201 
L 284.070577 130.525815 
L 284.607284 142.770794 
L 285.680697 169.916188 
L 286.217404 179.687345 
L 286.754111 185.478812 
L 287.290817 188.997374 
L 287.648622 190.249222 
L 287.827524 190.42252 
L 288.006426 190.126298 
L 288.364231 187.918979 
L 288.900937 181.975088 
L 289.258742 175.112466 
L 290.332155 146.300551 
L 291.226666 124.541881 
L 291.763373 117.288538 
L 292.121177 114.430141 
L 292.30008 113.565901 
L 292.478982 113.292031 
L 292.836786 113.905832 
L 293.373493 115.145936 
L 293.731297 116.889639 
L 294.268004 121.07629 
L 294.804711 127.298277 
L 295.341418 137.353602 
L 297.309342 180.55168 
L 297.846049 185.381769 
L 298.024951 185.845329 
L 298.203853 185.430279 
L 298.561658 182.672695 
L 299.098364 176.244387 
L 299.813973 162.197296 
L 301.424093 129.701295 
L 302.139702 120.835815 
L 302.497507 118.273028 
L 302.676409 118.174912 
L 303.034213 118.953781 
L 303.213116 119.855014 
L 303.57092 123.813574 
L 304.286529 136.151455 
L 306.433356 187.186151 
L 307.148965 206.016394 
L 307.506769 211.963621 
L 307.685671 213.351656 
L 307.864573 213.431589 
L 308.043476 212.118824 
L 308.40128 205.428434 
L 308.759085 192.431618 
L 309.653596 147.059733 
L 310.369205 111.78162 
L 311.084814 87.842816 
L 311.442618 81.359354 
L 311.979325 76.116557 
L 312.337129 74.73981 
L 312.694934 74.225731 
L 312.873836 74.367923 
L 313.23164 75.751584 
L 313.768347 79.054089 
L 314.126151 83.839791 
L 315.557369 108.4296 
L 315.736272 108.848483 
L 315.915174 108.013323 
L 316.272978 102.375458 
L 316.809685 85.543476 
L 318.062 38.960781 
L 318.419805 33.293883 
L 318.598707 32.172195 
L 318.777609 32.443118 
L 319.135414 35.394074 
L 319.851023 41.359259 
L 320.208827 42.58518 
L 320.566632 44.009763 
L 320.924436 47.139824 
L 321.282241 52.965089 
L 321.640045 64.756647 
L 322.176752 93.123305 
L 323.071263 147.443951 
L 323.429067 160.04085 
L 323.60797 163.284287 
L 323.786872 164.480299 
L 323.965774 163.956623 
L 324.323578 159.571861 
L 324.681383 151.563956 
L 325.933698 117.20879 
L 326.649307 104.735301 
L 327.901623 84.720232 
L 328.259427 75.366245 
L 328.975036 45.716167 
L 329.690645 20.234894 
L 329.869547 17.601036 
L 330.04845 17.126802 
L 330.227352 18.656635 
L 330.406254 21.794922 
L 330.764059 34.661625 
L 332.374179 117.791619 
L 332.731983 126.41102 
L 333.089788 130.29295 
L 333.26869 130.143093 
L 333.626494 126.39635 
L 334.521005 114.94544 
L 334.699908 115.183492 
L 335.057712 118.291047 
L 336.131125 130.421398 
L 336.310028 130.630466 
L 336.48893 129.379945 
L 336.846734 121.505655 
L 337.562343 93.999397 
L 338.635757 49.912244 
L 338.993561 41.906598 
L 339.530268 36.41069 
L 339.888072 33.538482 
L 340.066974 33.516495 
L 340.424779 36.091953 
L 341.31929 43.981002 
L 341.855997 53.350672 
L 342.213801 62.520696 
L 343.108312 89.48981 
L 343.466117 95.608378 
L 343.823921 98.288439 
L 344.002823 97.734098 
L 344.360628 93.445353 
L 344.897335 87.023516 
L 345.255139 85.329179 
L 345.434041 86.056696 
L 345.612944 88.12507 
L 345.970748 96.759444 
L 346.865259 119.242083 
L 347.223064 123.389379 
L 347.401966 123.546412 
L 347.580868 122.46591 
L 347.938672 117.939755 
L 348.475379 109.767404 
L 348.654281 110.086304 
L 348.833184 112.84256 
L 349.36989 128.564572 
L 350.801108 176.741765 
L 350.98001 179.006123 
L 351.158913 179.854989 
L 351.337815 179.369856 
L 351.695619 174.955781 
L 352.59013 159.616594 
L 352.769033 161.125373 
L 353.484642 173.276703 
L 354.379153 189.485117 
L 354.558055 190.432363 
L 354.736957 189.702923 
L 354.915859 186.50131 
L 355.273664 173.550335 
L 356.168175 135.155324 
L 356.347077 131.968614 
L 356.525979 131.222095 
L 356.704882 132.384247 
L 357.062686 137.830371 
L 357.420491 147.153865 
L 358.493904 184.275221 
L 358.672806 184.78251 
L 358.851708 182.101307 
L 359.209513 167.298578 
L 360.104024 116.451489 
L 360.282926 112.555976 
L 360.461828 112.05032 
L 360.640731 113.902851 
L 360.998535 122.418767 
L 361.35634 136.693433 
L 362.608655 195.00589 
L 362.787557 193.688531 
L 362.96646 187.398109 
L 363.324264 163.276222 
L 364.039873 108.743951 
L 364.397677 100.140643 
L 364.57658 99.804561 
L 364.755482 101.145188 
L 364.934384 104.397658 
L 365.292189 118.729055 
L 365.828895 155.938447 
L 366.365602 197.015938 
L 366.544504 204.744595 
L 366.723406 206.515652 
L 366.902309 201.621605 
L 367.260113 175.000747 
L 367.975722 113.799034 
L 368.333526 100.628657 
L 368.512429 97.938941 
L 368.691331 98.104996 
L 368.870233 101.838327 
L 369.228038 119.140874 
L 369.943647 174.903483 
L 370.301451 199.555801 
L 370.480353 206.563118 
L 370.659255 208.906663 
L 370.838158 206.139475 
L 371.195962 185.64619 
L 371.911571 132.917098 
L 372.269375 119.268502 
L 372.448278 117.347739 
L 372.62718 119.901022 
L 372.984984 137.602485 
L 374.058398 213.008033 
L 374.2373 218.32899 
L 374.416202 218.236266 
L 374.595104 212.30748 
L 374.952909 184.438975 
L 376.026322 76.687637 
L 376.205224 70.513579 
L 376.384127 70.019277 
L 376.563029 74.16872 
L 377.099736 100.235026 
L 377.636442 130.428677 
L 377.815345 133.832064 
L 377.994247 130.669144 
L 378.352051 110.41449 
L 379.783269 14.820989 
L 379.962171 12.54095 
L 380.141073 16.426234 
L 380.498878 40.715737 
L 381.393389 119.714781 
L 381.751194 136.24563 
L 381.930096 137.840101 
L 382.108998 135.515348 
L 382.645705 120.067538 
L 383.003509 102.32874 
L 383.540216 69.36946 
L 383.89802 60.752649 
L 384.076922 62.330445 
L 384.255825 68.648422 
L 385.329238 132.971886 
L 385.50814 135.194665 
L 385.687043 134.135648 
L 386.223749 124.841962 
L 386.402651 123.569021 
L 386.581554 121.227923 
L 386.760456 114.894397 
L 387.11826 86.503921 
L 387.654967 37.544969 
L 387.833869 29.386513 
L 388.012772 28.383779 
L 388.191674 34.878017 
L 389.265087 104.751351 
L 389.443989 105.332189 
L 389.801794 101.594039 
L 389.980696 102.767895 
L 390.517403 118.606924 
L 390.696305 118.52034 
L 390.875207 112.994916 
L 391.769718 61.587699 
L 391.948621 64.271788 
L 392.306425 87.28754 
L 392.843132 122.859357 
L 393.022034 127.32687 
L 393.200936 127.242272 
L 393.558741 121.50849 
L 393.737643 122.388456 
L 394.095447 136.33522 
L 394.274349 143.758906 
L 394.453252 146.251746 
L 394.632154 141.959256 
L 394.989958 117.234279 
L 395.526665 73.771383 
L 395.705567 67.56686 
L 395.88447 66.623275 
L 396.778981 77.748757 
L 396.957883 78.02235 
L 397.136785 77.362754 
L 397.49459 75.395331 
L 397.852394 77.621818 
L 398.031296 77.2798 
L 398.210198 73.634055 
L 398.568003 58.102628 
L 399.462514 11.270345 
L 399.641416 10.062685 
L 399.820319 13.961648 
L 400.178123 33.325982 
L 400.893732 78.688945 
L 401.430439 92.287459 
L 401.967145 118.773362 
L 402.146047 119.234301 
L 402.32495 112.489215 
L 403.040559 68.632632 
L 403.219461 69.0575 
L 404.113972 91.365313 
L 404.471776 122.221838 
L 404.829581 156.908679 
L 405.008483 162.492503 
L 405.187385 159.758531 
L 405.54519 148.268018 
L 405.902994 142.016889 
L 406.081897 132.777304 
L 406.439701 90.297237 
L 406.797505 50.658694 
L 406.976408 46.696843 
L 407.513114 58.030644 
L 407.692017 56.270177 
L 407.870919 58.949603 
L 408.049821 73.060257 
L 408.586528 148.399325 
L 408.76543 158.397103 
L 408.944332 159.824493 
L 409.123234 159.459965 
L 409.302137 162.050247 
L 409.659941 169.267268 
L 409.838843 165.652668 
L 410.37555 138.035352 
L 410.554452 138.376678 
L 410.912257 156.171908 
L 411.270061 172.641623 
L 411.627866 184.675211 
L 411.98567 213.899494 
L 412.343474 245.943558 
L 412.522377 250.997315 
L 412.701279 248.178411 
L 413.059083 232.932981 
L 413.416888 208.791049 
L 414.132497 138.547738 
L 415.20591 88.529797 
L 415.384812 90.758381 
L 415.742617 115.473106 
L 416.100421 139.697897 
L 416.279323 141.299835 
L 416.81603 125.470362 
L 416.994932 125.638257 
L 417.173835 127.628975 
L 417.352737 126.901229 
L 417.531639 119.333342 
L 418.247248 59.759837 
L 418.42615 60.968907 
L 418.605052 64.983648 
L 418.783955 66.457817 
L 418.962857 64.999319 
L 419.141759 65.115176 
L 419.320661 72.330646 
L 419.678466 110.217479 
L 420.215172 171.501772 
L 420.930781 232.193415 
L 421.109684 240.484291 
L 421.288586 241.746405 
L 421.467488 235.05383 
L 422.004195 202.580988 
L 422.361999 195.053218 
L 422.361999 195.053218 
" clip-path="url(#p09e64ba155)" style="fill: none; stroke: #009afa"/>
   </g>
   <g id="matplotlib.axis_1">
    <g id="xtick_1">
     <g id="line2d_2">
      <defs>
       <path id="m411d075483" d="M 0 0 
L 0 -2.5 
" style="stroke: #000000; stroke-width: 0.5"/>
      </defs>
      <g>
       <use xlink:href="#m411d075483" x="64.557544" y="258.225354" style="stroke: #000000; stroke-width: 0.5"/>
      </g>
     </g>
     <g id="text_1">
      <!-- $0.0$ -->
      <g transform="translate(58.157544 267.804104)scale(0.08 -0.08)">
       <defs>
        <path id="DejaVuSans-30" d="M 2034 4250 
Q 1547 4250 1301 3770 
Q 1056 3291 1056 2328 
Q 1056 1369 1301 889 
Q 1547 409 2034 409 
Q 2525 409 2770 889 
Q 3016 1369 3016 2328 
Q 3016 3291 2770 3770 
Q 2525 4250 2034 4250 
z
M 2034 4750 
Q 2819 4750 3233 4129 
Q 3647 3509 3647 2328 
Q 3647 1150 3233 529 
Q 2819 -91 2034 -91 
Q 1250 -91 836 529 
Q 422 1150 422 2328 
Q 422 3509 836 4129 
Q 1250 4750 2034 4750 
z
" transform="scale(0.015625)"/>
        <path id="DejaVuSans-2e" d="M 684 794 
L 1344 794 
L 1344 0 
L 684 0 
L 684 794 
z
" transform="scale(0.015625)"/>
       </defs>
       <use xlink:href="#DejaVuSans-30" transform="translate(0 0.78125)"/>
       <use xlink:href="#DejaVuSans-2e" transform="translate(63.623047 0.78125)"/>
       <use xlink:href="#DejaVuSans-30" transform="translate(95.410156 0.78125)"/>
      </g>
     </g>
    </g>
    <g id="xtick_2">
     <g id="line2d_3">
      <g>
       <use xlink:href="#m411d075483" x="154.008658" y="258.225354" style="stroke: #000000; stroke-width: 0.5"/>
      </g>
     </g>
     <g id="text_2">
      <!-- $0.5$ -->
      <g transform="translate(147.608658 267.804104)scale(0.08 -0.08)">
       <defs>
        <path id="DejaVuSans-35" d="M 691 4666 
L 3169 4666 
L 3169 4134 
L 1269 4134 
L 1269 2991 
Q 1406 3038 1543 3061 
Q 1681 3084 1819 3084 
Q 2600 3084 3056 2656 
Q 3513 2228 3513 1497 
Q 3513 744 3044 326 
Q 2575 -91 1722 -91 
Q 1428 -91 1123 -41 
Q 819 9 494 109 
L 494 744 
Q 775 591 1075 516 
Q 1375 441 1709 441 
Q 2250 441 2565 725 
Q 2881 1009 2881 1497 
Q 2881 1984 2565 2268 
Q 2250 2553 1709 2553 
Q 1456 2553 1204 2497 
Q 953 2441 691 2322 
L 691 4666 
z
" transform="scale(0.015625)"/>
       </defs>
       <use xlink:href="#DejaVuSans-30" transform="translate(0 0.78125)"/>
       <use xlink:href="#DejaVuSans-2e" transform="translate(63.623047 0.78125)"/>
       <use xlink:href="#DejaVuSans-35" transform="translate(95.410156 0.78125)"/>
      </g>
     </g>
    </g>
    <g id="xtick_3">
     <g id="line2d_4">
      <g>
       <use xlink:href="#m411d075483" x="243.459771" y="258.225354" style="stroke: #000000; stroke-width: 0.5"/>
      </g>
     </g>
     <g id="text_3">
      <!-- $1.0$ -->
      <g transform="translate(237.059771 267.804104)scale(0.08 -0.08)">
       <defs>
        <path id="DejaVuSans-31" d="M 794 531 
L 1825 531 
L 1825 4091 
L 703 3866 
L 703 4441 
L 1819 4666 
L 2450 4666 
L 2450 531 
L 3481 531 
L 3481 0 
L 794 0 
L 794 531 
z
" transform="scale(0.015625)"/>
       </defs>
       <use xlink:href="#DejaVuSans-31" transform="translate(0 0.78125)"/>
       <use xlink:href="#DejaVuSans-2e" transform="translate(63.623047 0.78125)"/>
       <use xlink:href="#DejaVuSans-30" transform="translate(95.410156 0.78125)"/>
      </g>
     </g>
    </g>
    <g id="xtick_4">
     <g id="line2d_5">
      <g>
       <use xlink:href="#m411d075483" x="332.910885" y="258.225354" style="stroke: #000000; stroke-width: 0.5"/>
      </g>
     </g>
     <g id="text_4">
      <!-- $1.5$ -->
      <g transform="translate(326.510885 267.804104)scale(0.08 -0.08)">
       <use xlink:href="#DejaVuSans-31" transform="translate(0 0.09375)"/>
       <use xlink:href="#DejaVuSans-2e" transform="translate(63.623047 0.09375)"/>
       <use xlink:href="#DejaVuSans-35" transform="translate(95.410156 0.09375)"/>
      </g>
     </g>
    </g>
    <g id="xtick_5">
     <g id="line2d_6">
      <g>
       <use xlink:href="#m411d075483" x="422.361999" y="258.225354" style="stroke: #000000; stroke-width: 0.5"/>
      </g>
     </g>
     <g id="text_5">
      <!-- $2.0$ -->
      <g transform="translate(415.961999 267.804104)scale(0.08 -0.08)">
       <defs>
        <path id="DejaVuSans-32" d="M 1228 531 
L 3431 531 
L 3431 0 
L 469 0 
L 469 531 
Q 828 903 1448 1529 
Q 2069 2156 2228 2338 
Q 2531 2678 2651 2914 
Q 2772 3150 2772 3378 
Q 2772 3750 2511 3984 
Q 2250 4219 1831 4219 
Q 1534 4219 1204 4116 
Q 875 4013 500 3803 
L 500 4441 
Q 881 4594 1212 4672 
Q 1544 4750 1819 4750 
Q 2544 4750 2975 4387 
Q 3406 4025 3406 3419 
Q 3406 3131 3298 2873 
Q 3191 2616 2906 2266 
Q 2828 2175 2409 1742 
Q 1991 1309 1228 531 
z
" transform="scale(0.015625)"/>
       </defs>
       <use xlink:href="#DejaVuSans-32" transform="translate(0 0.78125)"/>
       <use xlink:href="#DejaVuSans-2e" transform="translate(63.623047 0.78125)"/>
       <use xlink:href="#DejaVuSans-30" transform="translate(95.410156 0.78125)"/>
      </g>
     </g>
    </g>
    <g id="text_6">
     <!-- Time (s) -->
     <g transform="translate(221.097975 281.826136)scale(0.11 -0.11)">
      <defs>
       <path id="DejaVuSans-54" d="M -19 4666 
L 3928 4666 
L 3928 4134 
L 2272 4134 
L 2272 0 
L 1638 0 
L 1638 4134 
L -19 4134 
L -19 4666 
z
" transform="scale(0.015625)"/>
       <path id="DejaVuSans-69" d="M 603 3500 
L 1178 3500 
L 1178 0 
L 603 0 
L 603 3500 
z
M 603 4863 
L 1178 4863 
L 1178 4134 
L 603 4134 
L 603 4863 
z
" transform="scale(0.015625)"/>
       <path id="DejaVuSans-6d" d="M 3328 2828 
Q 3544 3216 3844 3400 
Q 4144 3584 4550 3584 
Q 5097 3584 5394 3201 
Q 5691 2819 5691 2113 
L 5691 0 
L 5113 0 
L 5113 2094 
Q 5113 2597 4934 2840 
Q 4756 3084 4391 3084 
Q 3944 3084 3684 2787 
Q 3425 2491 3425 1978 
L 3425 0 
L 2847 0 
L 2847 2094 
Q 2847 2600 2669 2842 
Q 2491 3084 2119 3084 
Q 1678 3084 1418 2786 
Q 1159 2488 1159 1978 
L 1159 0 
L 581 0 
L 581 3500 
L 1159 3500 
L 1159 2956 
Q 1356 3278 1631 3431 
Q 1906 3584 2284 3584 
Q 2666 3584 2933 3390 
Q 3200 3197 3328 2828 
z
" transform="scale(0.015625)"/>
       <path id="DejaVuSans-65" d="M 3597 1894 
L 3597 1613 
L 953 1613 
Q 991 1019 1311 708 
Q 1631 397 2203 397 
Q 2534 397 2845 478 
Q 3156 559 3463 722 
L 3463 178 
Q 3153 47 2828 -22 
Q 2503 -91 2169 -91 
Q 1331 -91 842 396 
Q 353 884 353 1716 
Q 353 2575 817 3079 
Q 1281 3584 2069 3584 
Q 2775 3584 3186 3129 
Q 3597 2675 3597 1894 
z
M 3022 2063 
Q 3016 2534 2758 2815 
Q 2500 3097 2075 3097 
Q 1594 3097 1305 2825 
Q 1016 2553 972 2059 
L 3022 2063 
z
" transform="scale(0.015625)"/>
       <path id="DejaVuSans-20" transform="scale(0.015625)"/>
       <path id="DejaVuSans-28" d="M 1984 4856 
Q 1566 4138 1362 3434 
Q 1159 2731 1159 2009 
Q 1159 1288 1364 580 
Q 1569 -128 1984 -844 
L 1484 -844 
Q 1016 -109 783 600 
Q 550 1309 550 2009 
Q 550 2706 781 3412 
Q 1013 4119 1484 4856 
L 1984 4856 
z
" transform="scale(0.015625)"/>
       <path id="DejaVuSans-73" d="M 2834 3397 
L 2834 2853 
Q 2591 2978 2328 3040 
Q 2066 3103 1784 3103 
Q 1356 3103 1142 2972 
Q 928 2841 928 2578 
Q 928 2378 1081 2264 
Q 1234 2150 1697 2047 
L 1894 2003 
Q 2506 1872 2764 1633 
Q 3022 1394 3022 966 
Q 3022 478 2636 193 
Q 2250 -91 1575 -91 
Q 1294 -91 989 -36 
Q 684 19 347 128 
L 347 722 
Q 666 556 975 473 
Q 1284 391 1588 391 
Q 1994 391 2212 530 
Q 2431 669 2431 922 
Q 2431 1156 2273 1281 
Q 2116 1406 1581 1522 
L 1381 1569 
Q 847 1681 609 1914 
Q 372 2147 372 2553 
Q 372 3047 722 3315 
Q 1072 3584 1716 3584 
Q 2034 3584 2315 3537 
Q 2597 3491 2834 3397 
z
" transform="scale(0.015625)"/>
       <path id="DejaVuSans-29" d="M 513 4856 
L 1013 4856 
Q 1481 4119 1714 3412 
Q 1947 2706 1947 2009 
Q 1947 1309 1714 600 
Q 1481 -109 1013 -844 
L 513 -844 
Q 928 -128 1133 580 
Q 1338 1288 1338 2009 
Q 1338 2731 1133 3434 
Q 928 4138 513 4856 
z
" transform="scale(0.015625)"/>
      </defs>
      <use xlink:href="#DejaVuSans-54"/>
      <use xlink:href="#DejaVuSans-69" x="57.958984"/>
      <use xlink:href="#DejaVuSans-6d" x="85.742188"/>
      <use xlink:href="#DejaVuSans-65" x="183.154297"/>
      <use xlink:href="#DejaVuSans-20" x="244.677734"/>
      <use xlink:href="#DejaVuSans-28" x="276.464844"/>
      <use xlink:href="#DejaVuSans-73" x="315.478516"/>
      <use xlink:href="#DejaVuSans-29" x="367.578125"/>
     </g>
    </g>
   </g>
   <g id="matplotlib.axis_2">
    <g id="ytick_1">
     <g id="line2d_7">
      <defs>
       <path id="medee1219af" d="M 0 0 
L 2.5 0 
" style="stroke: #000000; stroke-width: 0.5"/>
      </defs>
      <g>
       <use xlink:href="#medee1219af" x="64.557544" y="244.72402" style="stroke: #000000; stroke-width: 0.5"/>
      </g>
     </g>
     <g id="text_7">
      <!-- $-1.0×10^{6}$ -->
      <g transform="translate(20.817544 247.763395)scale(0.08 -0.08)">
       <defs>
        <path id="DejaVuSans-2212" d="M 678 2272 
L 4684 2272 
L 4684 1741 
L 678 1741 
L 678 2272 
z
" transform="scale(0.015625)"/>
        <path id="DejaVuSans-d7" d="M 4488 3438 
L 3059 2003 
L 4488 575 
L 4116 197 
L 2681 1631 
L 1247 197 
L 878 575 
L 2303 2003 
L 878 3438 
L 1247 3816 
L 2681 2381 
L 4116 3816 
L 4488 3438 
z
" transform="scale(0.015625)"/>
        <path id="DejaVuSans-36" d="M 2113 2584 
Q 1688 2584 1439 2293 
Q 1191 2003 1191 1497 
Q 1191 994 1439 701 
Q 1688 409 2113 409 
Q 2538 409 2786 701 
Q 3034 994 3034 1497 
Q 3034 2003 2786 2293 
Q 2538 2584 2113 2584 
z
M 3366 4563 
L 3366 3988 
Q 3128 4100 2886 4159 
Q 2644 4219 2406 4219 
Q 1781 4219 1451 3797 
Q 1122 3375 1075 2522 
Q 1259 2794 1537 2939 
Q 1816 3084 2150 3084 
Q 2853 3084 3261 2657 
Q 3669 2231 3669 1497 
Q 3669 778 3244 343 
Q 2819 -91 2113 -91 
Q 1303 -91 875 529 
Q 447 1150 447 2328 
Q 447 3434 972 4092 
Q 1497 4750 2381 4750 
Q 2619 4750 2861 4703 
Q 3103 4656 3366 4563 
z
" transform="scale(0.015625)"/>
       </defs>
       <use xlink:href="#DejaVuSans-2212" transform="translate(0 0.765625)"/>
       <use xlink:href="#DejaVuSans-31" transform="translate(83.789062 0.765625)"/>
       <use xlink:href="#DejaVuSans-2e" transform="translate(147.412109 0.765625)"/>
       <use xlink:href="#DejaVuSans-30" transform="translate(179.199219 0.765625)"/>
       <use xlink:href="#DejaVuSans-d7" transform="translate(242.822266 0.765625)"/>
       <use xlink:href="#DejaVuSans-31" transform="translate(326.611328 0.765625)"/>
       <use xlink:href="#DejaVuSans-30" transform="translate(390.234375 0.765625)"/>
       <use xlink:href="#DejaVuSans-36" transform="translate(454.814453 39.046875)scale(0.7)"/>
      </g>
     </g>
    </g>
    <g id="ytick_2">
     <g id="line2d_8">
      <g>
       <use xlink:href="#medee1219af" x="64.557544" y="181.255869" style="stroke: #000000; stroke-width: 0.5"/>
      </g>
     </g>
     <g id="text_8">
      <!-- $-5.0×10^{5}$ -->
      <g transform="translate(20.817544 184.295244)scale(0.08 -0.08)">
       <use xlink:href="#DejaVuSans-2212" transform="translate(0 0.684375)"/>
       <use xlink:href="#DejaVuSans-35" transform="translate(83.789062 0.684375)"/>
       <use xlink:href="#DejaVuSans-2e" transform="translate(147.412109 0.684375)"/>
       <use xlink:href="#DejaVuSans-30" transform="translate(179.199219 0.684375)"/>
       <use xlink:href="#DejaVuSans-d7" transform="translate(242.822266 0.684375)"/>
       <use xlink:href="#DejaVuSans-31" transform="translate(326.611328 0.684375)"/>
       <use xlink:href="#DejaVuSans-30" transform="translate(390.234375 0.684375)"/>
       <use xlink:href="#DejaVuSans-35" transform="translate(454.814453 38.965625)scale(0.7)"/>
      </g>
     </g>
    </g>
    <g id="ytick_3">
     <g id="line2d_9">
      <g>
       <use xlink:href="#medee1219af" x="64.557544" y="117.787718" style="stroke: #000000; stroke-width: 0.5"/>
      </g>
     </g>
     <g id="text_9">
      <!-- $0$ -->
      <g transform="translate(55.937544 120.827093)scale(0.08 -0.08)">
       <use xlink:href="#DejaVuSans-30" transform="translate(0 0.78125)"/>
      </g>
     </g>
    </g>
    <g id="ytick_4">
     <g id="line2d_10">
      <g>
       <use xlink:href="#medee1219af" x="64.557544" y="54.319567" style="stroke: #000000; stroke-width: 0.5"/>
      </g>
     </g>
     <g id="text_10">
      <!-- $5.0×10^{5}$ -->
      <g transform="translate(27.537544 57.358942)scale(0.08 -0.08)">
       <use xlink:href="#DejaVuSans-35" transform="translate(0 0.684375)"/>
       <use xlink:href="#DejaVuSans-2e" transform="translate(63.623047 0.684375)"/>
       <use xlink:href="#DejaVuSans-30" transform="translate(95.410156 0.684375)"/>
       <use xlink:href="#DejaVuSans-d7" transform="translate(159.033203 0.684375)"/>
       <use xlink:href="#DejaVuSans-31" transform="translate(242.822266 0.684375)"/>
       <use xlink:href="#DejaVuSans-30" transform="translate(306.445312 0.684375)"/>
       <use xlink:href="#DejaVuSans-35" transform="translate(371.025391 38.965625)scale(0.7)"/>
      </g>
     </g>
    </g>
    <g id="text_11">
     <!-- $F_z$ ($N$) -->
     <g transform="translate(14.529888 146.04)rotate(-90)scale(0.11 -0.11)">
      <defs>
       <path id="DejaVuSans-Oblique-46" d="M 1081 4666 
L 3756 4666 
L 3653 4134 
L 1606 4134 
L 1338 2759 
L 3188 2759 
L 3084 2228 
L 1234 2228 
L 800 0 
L 172 0 
L 1081 4666 
z
" transform="scale(0.015625)"/>
       <path id="DejaVuSans-Oblique-7a" d="M 744 3500 
L 3475 3500 
L 3372 2975 
L 738 459 
L 2913 459 
L 2822 0 
L -19 0 
L 84 525 
L 2719 3041 
L 653 3041 
L 744 3500 
z
" transform="scale(0.015625)"/>
       <path id="DejaVuSans-Oblique-4e" d="M 1081 4666 
L 1931 4666 
L 3219 666 
L 4000 4666 
L 4616 4666 
L 3706 0 
L 2853 0 
L 1569 4025 
L 788 0 
L 172 0 
L 1081 4666 
z
" transform="scale(0.015625)"/>
      </defs>
      <use xlink:href="#DejaVuSans-Oblique-46" transform="translate(0 0.125)"/>
      <use xlink:href="#DejaVuSans-Oblique-7a" transform="translate(57.519531 -16.28125)scale(0.7)"/>
      <use xlink:href="#DejaVuSans-20" transform="translate(96.99707 0.125)"/>
      <use xlink:href="#DejaVuSans-28" transform="translate(128.78418 0.125)"/>
      <use xlink:href="#DejaVuSans-Oblique-4e" transform="translate(167.797852 0.125)"/>
      <use xlink:href="#DejaVuSans-29" transform="translate(242.602539 0.125)"/>
     </g>
    </g>
   </g>
   <g id="patch_3">
    <path d="M 64.557544 258.225354 
L 64.557544 2.834646 
" style="fill: none; stroke: #000000; stroke-linejoin: miter; stroke-linecap: square"/>
   </g>
   <g id="patch_4">
    <path d="M 64.557544 258.225354 
L 422.361999 258.225354 
" style="fill: none; stroke: #000000; stroke-linejoin: miter; stroke-linecap: square"/>
   </g>
  </g>
 </g>
 <defs>
  <clipPath id="p09e64ba155">
   <rect x="64.557544" y="2.834646" width="357.804455" height="255.390709"/>
  </clipPath>
 </defs>
</svg>
