<?xml version="1.0" encoding="utf-8" standalone="no"?>
<!DOCTYPE svg PUBLIC "-//W3C//DTD SVG 1.1//EN"
  "http://www.w3.org/Graphics/SVG/1.1/DTD/svg11.dtd">
<svg height="288pt" version="1.1" viewBox="0 0 432 288" width="432pt" xmlns="http://www.w3.org/2000/svg" xmlns:xlink="http://www.w3.org/1999/xlink">
 <metadata>
  <rdf:RDF xmlns:cc="http://creativecommons.org/ns#" xmlns:dc="http://purl.org/dc/elements/1.1/" xmlns:rdf="http://www.w3.org/1999/02/22-rdf-syntax-ns#">
   <cc:Work>
    <dc:type rdf:resource="http://purl.org/dc/dcmitype/StillImage"/>
    <dc:date>2021-11-10T23:10:52.973303</dc:date>
    <dc:format>image/svg+xml</dc:format>
    <dc:creator>
     <cc:Agent>
      <dc:title>Matplotlib v3.4.3, https://matplotlib.org/</dc:title>
     </cc:Agent>
    </dc:creator>
   </cc:Work>
  </rdf:RDF>
 </metadata>
 <defs>
  <style type="text/css">*{stroke-linecap:butt;stroke-linejoin:round;}</style>
 </defs>
 <g id="figure_1">
  <g id="patch_1">
   <path d="M 0 288 
L 432 288 
L 432 0 
L 0 0 
z
" style="fill:#ffffff;"/>
  </g>
  <g id="axes_1">
   <g id="patch_2">
    <path d="M 63.499984 258.225354 
L 419.805777 258.225354 
L 419.805777 2.834646 
L 63.499984 2.834646 
z
" style="fill:#ffffff;"/>
   </g>
   <g id="line2d_1">
    <path clip-path="url(#pea30e800d6)" d="M 63.499984 226.600488 
L 65.637819 226.49587 
L 66.706737 226.526368 
L 68.13196 226.777848 
L 69.557183 227.276678 
L 71.695018 228.162488 
L 73.832852 229.546648 
L 76.326993 231.464399 
L 77.752216 232.783415 
L 79.533745 234.542372 
L 84.16572 238.881076 
L 89.510307 242.405395 
L 92.004448 243.901899 
L 93.073365 244.514549 
L 94.142283 244.984489 
L 95.567506 245.780097 
L 100.199481 248.234212 
L 101.98101 249.255576 
L 103.762539 250.115064 
L 105.544068 250.815961 
L 106.612985 250.987185 
L 108.038209 250.91926 
L 109.819738 250.594684 
L 111.244961 249.99029 
L 113.02649 248.811753 
L 114.451713 247.57343 
L 115.164324 246.90867 
L 117.302159 244.247724 
L 119.7963 240.722481 
L 123.715663 235.041799 
L 127.635027 230.1637 
L 130.841779 226.89072 
L 132.979614 225.160865 
L 136.542672 222.765128 
L 139.036813 221.13971 
L 140.818341 219.885349 
L 146.162928 216.183246 
L 150.438598 214.190957 
L 152.932738 213.496102 
L 153.64535 213.390058 
L 156.139491 213.561812 
L 156.852102 213.401119 
L 158.277325 212.763796 
L 159.702549 211.96877 
L 160.41516 211.549919 
L 161.127772 210.780018 
L 162.552995 208.739525 
L 164.334524 205.809977 
L 165.403441 203.510867 
L 166.472359 200.838953 
L 168.966499 193.457173 
L 170.391722 188.631386 
L 175.380003 170.470768 
L 177.874144 161.133641 
L 180.368284 151.693706 
L 182.862425 142.368865 
L 185.356566 132.716207 
L 188.919624 118.725123 
L 191.77007 106.98309 
L 196.402045 88.48479 
L 199.608797 77.994484 
L 200.677715 75.228905 
L 202.459244 71.312154 
L 203.884467 68.787666 
L 204.597078 67.916595 
L 205.665996 67.111029 
L 206.734913 66.492566 
L 207.447525 66.184834 
L 208.160136 66.10086 
L 208.872748 66.148395 
L 209.58536 66.383852 
L 211.366888 67.388187 
L 213.861029 68.65633 
L 214.573641 69.249851 
L 216.35517 70.227904 
L 217.424087 70.609091 
L 219.205616 71.116627 
L 219.918228 71.352589 
L 220.630839 71.257398 
L 222.412368 70.646678 
L 223.837591 70.016271 
L 225.262814 68.930452 
L 226.331732 67.916381 
L 228.113261 66.215201 
L 228.825872 65.650014 
L 229.89479 64.407967 
L 232.38893 61.660877 
L 233.814153 60.10578 
L 234.883071 58.682263 
L 236.308294 56.600316 
L 237.733517 54.641783 
L 238.802435 52.988232 
L 240.583963 49.659994 
L 243.078104 44.644546 
L 248.422691 30.555607 
L 250.20422 25.391488 
L 254.123584 16.358759 
L 255.192501 14.412005 
L 256.261418 12.983791 
L 258.755559 10.366356 
L 259.468171 10.101085 
L 260.180782 10.070555 
L 261.962311 10.364426 
L 263.031228 10.882625 
L 263.74384 11.432292 
L 264.456452 12.260482 
L 267.663204 16.887005 
L 269.088427 19.544551 
L 271.938873 25.342493 
L 273.007791 27.580774 
L 275.145625 32.365622 
L 280.133907 42.922876 
L 281.55913 45.472141 
L 284.409576 51.117965 
L 285.478493 52.880427 
L 286.903717 55.012034 
L 288.685246 57.905572 
L 289.754163 58.998573 
L 291.891998 60.936333 
L 292.604609 61.46781 
L 293.317221 61.787463 
L 294.029832 61.894249 
L 294.742444 61.744556 
L 296.167667 61.320508 
L 296.880279 61.052671 
L 297.59289 60.540697 
L 298.305502 59.763252 
L 299.374419 58.172104 
L 302.224866 53.202205 
L 303.293783 50.554623 
L 308.282064 36.917708 
L 309.707287 32.712244 
L 313.626651 22.944374 
L 314.695568 20.693095 
L 315.764486 18.876948 
L 318.614932 14.709927 
L 320.040155 13.725752 
L 321.465378 12.913508 
L 322.534296 12.523037 
L 323.246907 12.408828 
L 323.959519 12.520409 
L 327.166271 13.722357 
L 328.235189 14.584161 
L 331.085635 17.492982 
L 332.154552 18.742741 
L 333.22347 20.511102 
L 337.499139 28.046396 
L 339.99328 33.761321 
L 341.062197 36.155821 
L 348.188313 54.070226 
L 349.969842 57.27647 
L 351.395065 59.679054 
L 352.463982 61.207951 
L 353.176594 61.979136 
L 353.889206 62.455767 
L 356.02704 63.048052 
L 356.739652 63.098134 
L 357.452264 62.856786 
L 358.164875 62.333741 
L 359.590098 60.806523 
L 361.371627 58.479666 
L 362.440545 56.635137 
L 365.647297 49.779018 
L 367.428826 45.570941 
L 369.210355 41.052328 
L 372.060801 34.499464 
L 374.198636 29.739872 
L 378.118 22.350764 
L 382.749975 15.854142 
L 383.462586 15.167295 
L 385.244115 13.7518 
L 386.313033 12.730365 
L 387.025644 12.348126 
L 388.094562 12.14238 
L 389.163479 12.150934 
L 390.945008 12.256754 
L 391.65762 12.511866 
L 392.370231 13.050934 
L 394.508066 15.515514 
L 395.576983 16.899544 
L 396.645901 18.698832 
L 397.714818 21.033559 
L 401.277876 29.726481 
L 404.840934 39.877827 
L 406.266157 43.883427 
L 407.69138 47.973609 
L 409.116604 51.148576 
L 410.898132 54.906574 
L 412.323356 57.477715 
L 413.392273 58.897486 
L 415.886414 60.973799 
L 416.599025 61.272303 
L 417.311637 61.30047 
L 418.380554 61.13287 
L 419.805777 60.649268 
L 419.805777 60.649268 
" style="fill:none;stroke:#009afa;"/>
   </g>
   <g id="matplotlib.axis_1">
    <g id="xtick_1">
     <g id="line2d_2">
      <defs>
       <path d="M 0 0 
L 0 -2.5 
" id="mfb4f8dbd3d" style="stroke:#000000;stroke-width:0.5;"/>
      </defs>
      <g>
       <use style="stroke:#000000;stroke-width:0.5;" x="63.499984" xlink:href="#mfb4f8dbd3d" y="258.225354"/>
      </g>
     </g>
     <g id="text_1">
      <!-- $0.00$ -->
      <g transform="translate(54.579984 267.804104)scale(0.08 -0.08)">
       <defs>
        <path d="M 2034 4250 
Q 1547 4250 1301 3770 
Q 1056 3291 1056 2328 
Q 1056 1369 1301 889 
Q 1547 409 2034 409 
Q 2525 409 2770 889 
Q 3016 1369 3016 2328 
Q 3016 3291 2770 3770 
Q 2525 4250 2034 4250 
z
M 2034 4750 
Q 2819 4750 3233 4129 
Q 3647 3509 3647 2328 
Q 3647 1150 3233 529 
Q 2819 -91 2034 -91 
Q 1250 -91 836 529 
Q 422 1150 422 2328 
Q 422 3509 836 4129 
Q 1250 4750 2034 4750 
z
" id="DejaVuSans-30" transform="scale(0.015625)"/>
        <path d="M 684 794 
L 1344 794 
L 1344 0 
L 684 0 
L 684 794 
z
" id="DejaVuSans-2e" transform="scale(0.015625)"/>
       </defs>
       <use transform="translate(0 0.78125)" xlink:href="#DejaVuSans-30"/>
       <use transform="translate(63.623047 0.78125)" xlink:href="#DejaVuSans-2e"/>
       <use transform="translate(95.410156 0.78125)" xlink:href="#DejaVuSans-30"/>
       <use transform="translate(159.033203 0.78125)" xlink:href="#DejaVuSans-30"/>
      </g>
     </g>
    </g>
    <g id="xtick_2">
     <g id="line2d_3">
      <g>
       <use style="stroke:#000000;stroke-width:0.5;" x="152.576433" xlink:href="#mfb4f8dbd3d" y="258.225354"/>
      </g>
     </g>
     <g id="text_2">
      <!-- $0.01$ -->
      <g transform="translate(143.656433 267.804104)scale(0.08 -0.08)">
       <defs>
        <path d="M 794 531 
L 1825 531 
L 1825 4091 
L 703 3866 
L 703 4441 
L 1819 4666 
L 2450 4666 
L 2450 531 
L 3481 531 
L 3481 0 
L 794 0 
L 794 531 
z
" id="DejaVuSans-31" transform="scale(0.015625)"/>
       </defs>
       <use transform="translate(0 0.78125)" xlink:href="#DejaVuSans-30"/>
       <use transform="translate(63.623047 0.78125)" xlink:href="#DejaVuSans-2e"/>
       <use transform="translate(95.410156 0.78125)" xlink:href="#DejaVuSans-30"/>
       <use transform="translate(159.033203 0.78125)" xlink:href="#DejaVuSans-31"/>
      </g>
     </g>
    </g>
    <g id="xtick_3">
     <g id="line2d_4">
      <g>
       <use style="stroke:#000000;stroke-width:0.5;" x="241.652881" xlink:href="#mfb4f8dbd3d" y="258.225354"/>
      </g>
     </g>
     <g id="text_3">
      <!-- $0.02$ -->
      <g transform="translate(232.732881 267.804104)scale(0.08 -0.08)">
       <defs>
        <path d="M 1228 531 
L 3431 531 
L 3431 0 
L 469 0 
L 469 531 
Q 828 903 1448 1529 
Q 2069 2156 2228 2338 
Q 2531 2678 2651 2914 
Q 2772 3150 2772 3378 
Q 2772 3750 2511 3984 
Q 2250 4219 1831 4219 
Q 1534 4219 1204 4116 
Q 875 4013 500 3803 
L 500 4441 
Q 881 4594 1212 4672 
Q 1544 4750 1819 4750 
Q 2544 4750 2975 4387 
Q 3406 4025 3406 3419 
Q 3406 3131 3298 2873 
Q 3191 2616 2906 2266 
Q 2828 2175 2409 1742 
Q 1991 1309 1228 531 
z
" id="DejaVuSans-32" transform="scale(0.015625)"/>
       </defs>
       <use transform="translate(0 0.78125)" xlink:href="#DejaVuSans-30"/>
       <use transform="translate(63.623047 0.78125)" xlink:href="#DejaVuSans-2e"/>
       <use transform="translate(95.410156 0.78125)" xlink:href="#DejaVuSans-30"/>
       <use transform="translate(159.033203 0.78125)" xlink:href="#DejaVuSans-32"/>
      </g>
     </g>
    </g>
    <g id="xtick_4">
     <g id="line2d_5">
      <g>
       <use style="stroke:#000000;stroke-width:0.5;" x="330.729329" xlink:href="#mfb4f8dbd3d" y="258.225354"/>
      </g>
     </g>
     <g id="text_4">
      <!-- $0.03$ -->
      <g transform="translate(321.809329 267.804104)scale(0.08 -0.08)">
       <defs>
        <path d="M 2597 2516 
Q 3050 2419 3304 2112 
Q 3559 1806 3559 1356 
Q 3559 666 3084 287 
Q 2609 -91 1734 -91 
Q 1441 -91 1130 -33 
Q 819 25 488 141 
L 488 750 
Q 750 597 1062 519 
Q 1375 441 1716 441 
Q 2309 441 2620 675 
Q 2931 909 2931 1356 
Q 2931 1769 2642 2001 
Q 2353 2234 1838 2234 
L 1294 2234 
L 1294 2753 
L 1863 2753 
Q 2328 2753 2575 2939 
Q 2822 3125 2822 3475 
Q 2822 3834 2567 4026 
Q 2313 4219 1838 4219 
Q 1578 4219 1281 4162 
Q 984 4106 628 3988 
L 628 4550 
Q 988 4650 1302 4700 
Q 1616 4750 1894 4750 
Q 2613 4750 3031 4423 
Q 3450 4097 3450 3541 
Q 3450 3153 3228 2886 
Q 3006 2619 2597 2516 
z
" id="DejaVuSans-33" transform="scale(0.015625)"/>
       </defs>
       <use transform="translate(0 0.78125)" xlink:href="#DejaVuSans-30"/>
       <use transform="translate(63.623047 0.78125)" xlink:href="#DejaVuSans-2e"/>
       <use transform="translate(95.410156 0.78125)" xlink:href="#DejaVuSans-30"/>
       <use transform="translate(159.033203 0.78125)" xlink:href="#DejaVuSans-33"/>
      </g>
     </g>
    </g>
    <g id="xtick_5">
     <g id="line2d_6">
      <g>
       <use style="stroke:#000000;stroke-width:0.5;" x="419.805777" xlink:href="#mfb4f8dbd3d" y="258.225354"/>
      </g>
     </g>
     <g id="text_5">
      <!-- $0.04$ -->
      <g transform="translate(410.885777 267.804104)scale(0.08 -0.08)">
       <defs>
        <path d="M 2419 4116 
L 825 1625 
L 2419 1625 
L 2419 4116 
z
M 2253 4666 
L 3047 4666 
L 3047 1625 
L 3713 1625 
L 3713 1100 
L 3047 1100 
L 3047 0 
L 2419 0 
L 2419 1100 
L 313 1100 
L 313 1709 
L 2253 4666 
z
" id="DejaVuSans-34" transform="scale(0.015625)"/>
       </defs>
       <use transform="translate(0 0.78125)" xlink:href="#DejaVuSans-30"/>
       <use transform="translate(63.623047 0.78125)" xlink:href="#DejaVuSans-2e"/>
       <use transform="translate(95.410156 0.78125)" xlink:href="#DejaVuSans-30"/>
       <use transform="translate(159.033203 0.78125)" xlink:href="#DejaVuSans-34"/>
      </g>
     </g>
    </g>
    <g id="text_6">
     <!-- Time (s) -->
     <g transform="translate(219.291084 281.826136)scale(0.11 -0.11)">
      <defs>
       <path d="M -19 4666 
L 3928 4666 
L 3928 4134 
L 2272 4134 
L 2272 0 
L 1638 0 
L 1638 4134 
L -19 4134 
L -19 4666 
z
" id="DejaVuSans-54" transform="scale(0.015625)"/>
       <path d="M 603 3500 
L 1178 3500 
L 1178 0 
L 603 0 
L 603 3500 
z
M 603 4863 
L 1178 4863 
L 1178 4134 
L 603 4134 
L 603 4863 
z
" id="DejaVuSans-69" transform="scale(0.015625)"/>
       <path d="M 3328 2828 
Q 3544 3216 3844 3400 
Q 4144 3584 4550 3584 
Q 5097 3584 5394 3201 
Q 5691 2819 5691 2113 
L 5691 0 
L 5113 0 
L 5113 2094 
Q 5113 2597 4934 2840 
Q 4756 3084 4391 3084 
Q 3944 3084 3684 2787 
Q 3425 2491 3425 1978 
L 3425 0 
L 2847 0 
L 2847 2094 
Q 2847 2600 2669 2842 
Q 2491 3084 2119 3084 
Q 1678 3084 1418 2786 
Q 1159 2488 1159 1978 
L 1159 0 
L 581 0 
L 581 3500 
L 1159 3500 
L 1159 2956 
Q 1356 3278 1631 3431 
Q 1906 3584 2284 3584 
Q 2666 3584 2933 3390 
Q 3200 3197 3328 2828 
z
" id="DejaVuSans-6d" transform="scale(0.015625)"/>
       <path d="M 3597 1894 
L 3597 1613 
L 953 1613 
Q 991 1019 1311 708 
Q 1631 397 2203 397 
Q 2534 397 2845 478 
Q 3156 559 3463 722 
L 3463 178 
Q 3153 47 2828 -22 
Q 2503 -91 2169 -91 
Q 1331 -91 842 396 
Q 353 884 353 1716 
Q 353 2575 817 3079 
Q 1281 3584 2069 3584 
Q 2775 3584 3186 3129 
Q 3597 2675 3597 1894 
z
M 3022 2063 
Q 3016 2534 2758 2815 
Q 2500 3097 2075 3097 
Q 1594 3097 1305 2825 
Q 1016 2553 972 2059 
L 3022 2063 
z
" id="DejaVuSans-65" transform="scale(0.015625)"/>
       <path id="DejaVuSans-20" transform="scale(0.015625)"/>
       <path d="M 1984 4856 
Q 1566 4138 1362 3434 
Q 1159 2731 1159 2009 
Q 1159 1288 1364 580 
Q 1569 -128 1984 -844 
L 1484 -844 
Q 1016 -109 783 600 
Q 550 1309 550 2009 
Q 550 2706 781 3412 
Q 1013 4119 1484 4856 
L 1984 4856 
z
" id="DejaVuSans-28" transform="scale(0.015625)"/>
       <path d="M 2834 3397 
L 2834 2853 
Q 2591 2978 2328 3040 
Q 2066 3103 1784 3103 
Q 1356 3103 1142 2972 
Q 928 2841 928 2578 
Q 928 2378 1081 2264 
Q 1234 2150 1697 2047 
L 1894 2003 
Q 2506 1872 2764 1633 
Q 3022 1394 3022 966 
Q 3022 478 2636 193 
Q 2250 -91 1575 -91 
Q 1294 -91 989 -36 
Q 684 19 347 128 
L 347 722 
Q 666 556 975 473 
Q 1284 391 1588 391 
Q 1994 391 2212 530 
Q 2431 669 2431 922 
Q 2431 1156 2273 1281 
Q 2116 1406 1581 1522 
L 1381 1569 
Q 847 1681 609 1914 
Q 372 2147 372 2553 
Q 372 3047 722 3315 
Q 1072 3584 1716 3584 
Q 2034 3584 2315 3537 
Q 2597 3491 2834 3397 
z
" id="DejaVuSans-73" transform="scale(0.015625)"/>
       <path d="M 513 4856 
L 1013 4856 
Q 1481 4119 1714 3412 
Q 1947 2706 1947 2009 
Q 1947 1309 1714 600 
Q 1481 -109 1013 -844 
L 513 -844 
Q 928 -128 1133 580 
Q 1338 1288 1338 2009 
Q 1338 2731 1133 3434 
Q 928 4138 513 4856 
z
" id="DejaVuSans-29" transform="scale(0.015625)"/>
      </defs>
      <use xlink:href="#DejaVuSans-54"/>
      <use x="57.958984" xlink:href="#DejaVuSans-69"/>
      <use x="85.742188" xlink:href="#DejaVuSans-6d"/>
      <use x="183.154297" xlink:href="#DejaVuSans-65"/>
      <use x="244.677734" xlink:href="#DejaVuSans-20"/>
      <use x="276.464844" xlink:href="#DejaVuSans-28"/>
      <use x="315.478516" xlink:href="#DejaVuSans-73"/>
      <use x="367.578125" xlink:href="#DejaVuSans-29"/>
     </g>
    </g>
   </g>
   <g id="matplotlib.axis_2">
    <g id="ytick_1">
     <g id="line2d_7">
      <defs>
       <path d="M 0 0 
L 2.5 0 
" id="m33cb99a922" style="stroke:#000000;stroke-width:0.5;"/>
      </defs>
      <g>
       <use style="stroke:#000000;stroke-width:0.5;" x="63.499984" xlink:href="#m33cb99a922" y="226.600488"/>
      </g>
     </g>
     <g id="text_7">
      <!-- $0$ -->
      <g transform="translate(54.879984 229.639863)scale(0.08 -0.08)">
       <use transform="translate(0 0.78125)" xlink:href="#DejaVuSans-30"/>
      </g>
     </g>
    </g>
    <g id="ytick_2">
     <g id="line2d_8">
      <g>
       <use style="stroke:#000000;stroke-width:0.5;" x="63.499984" xlink:href="#m33cb99a922" y="179.328999"/>
      </g>
     </g>
     <g id="text_8">
      <!-- $3.00×10^{4}$ -->
      <g transform="translate(21.439984 182.368374)scale(0.08 -0.08)">
       <defs>
        <path d="M 4488 3438 
L 3059 2003 
L 4488 575 
L 4116 197 
L 2681 1631 
L 1247 197 
L 878 575 
L 2303 2003 
L 878 3438 
L 1247 3816 
L 2681 2381 
L 4116 3816 
L 4488 3438 
z
" id="DejaVuSans-d7" transform="scale(0.015625)"/>
       </defs>
       <use transform="translate(0 0.684375)" xlink:href="#DejaVuSans-33"/>
       <use transform="translate(63.623047 0.684375)" xlink:href="#DejaVuSans-2e"/>
       <use transform="translate(95.410156 0.684375)" xlink:href="#DejaVuSans-30"/>
       <use transform="translate(159.033203 0.684375)" xlink:href="#DejaVuSans-30"/>
       <use transform="translate(222.65625 0.684375)" xlink:href="#DejaVuSans-d7"/>
       <use transform="translate(306.445312 0.684375)" xlink:href="#DejaVuSans-31"/>
       <use transform="translate(370.068359 0.684375)" xlink:href="#DejaVuSans-30"/>
       <use transform="translate(434.648438 38.965625)scale(0.7)" xlink:href="#DejaVuSans-34"/>
      </g>
     </g>
    </g>
    <g id="ytick_3">
     <g id="line2d_9">
      <g>
       <use style="stroke:#000000;stroke-width:0.5;" x="63.499984" xlink:href="#m33cb99a922" y="132.057509"/>
      </g>
     </g>
     <g id="text_9">
      <!-- $6.00×10^{4}$ -->
      <g transform="translate(21.439984 135.096884)scale(0.08 -0.08)">
       <defs>
        <path d="M 2113 2584 
Q 1688 2584 1439 2293 
Q 1191 2003 1191 1497 
Q 1191 994 1439 701 
Q 1688 409 2113 409 
Q 2538 409 2786 701 
Q 3034 994 3034 1497 
Q 3034 2003 2786 2293 
Q 2538 2584 2113 2584 
z
M 3366 4563 
L 3366 3988 
Q 3128 4100 2886 4159 
Q 2644 4219 2406 4219 
Q 1781 4219 1451 3797 
Q 1122 3375 1075 2522 
Q 1259 2794 1537 2939 
Q 1816 3084 2150 3084 
Q 2853 3084 3261 2657 
Q 3669 2231 3669 1497 
Q 3669 778 3244 343 
Q 2819 -91 2113 -91 
Q 1303 -91 875 529 
Q 447 1150 447 2328 
Q 447 3434 972 4092 
Q 1497 4750 2381 4750 
Q 2619 4750 2861 4703 
Q 3103 4656 3366 4563 
z
" id="DejaVuSans-36" transform="scale(0.015625)"/>
       </defs>
       <use transform="translate(0 0.684375)" xlink:href="#DejaVuSans-36"/>
       <use transform="translate(63.623047 0.684375)" xlink:href="#DejaVuSans-2e"/>
       <use transform="translate(95.410156 0.684375)" xlink:href="#DejaVuSans-30"/>
       <use transform="translate(159.033203 0.684375)" xlink:href="#DejaVuSans-30"/>
       <use transform="translate(222.65625 0.684375)" xlink:href="#DejaVuSans-d7"/>
       <use transform="translate(306.445312 0.684375)" xlink:href="#DejaVuSans-31"/>
       <use transform="translate(370.068359 0.684375)" xlink:href="#DejaVuSans-30"/>
       <use transform="translate(434.648438 38.965625)scale(0.7)" xlink:href="#DejaVuSans-34"/>
      </g>
     </g>
    </g>
    <g id="ytick_4">
     <g id="line2d_10">
      <g>
       <use style="stroke:#000000;stroke-width:0.5;" x="63.499984" xlink:href="#m33cb99a922" y="84.78602"/>
      </g>
     </g>
     <g id="text_10">
      <!-- $9.00×10^{4}$ -->
      <g transform="translate(21.439984 87.825395)scale(0.08 -0.08)">
       <defs>
        <path d="M 703 97 
L 703 672 
Q 941 559 1184 500 
Q 1428 441 1663 441 
Q 2288 441 2617 861 
Q 2947 1281 2994 2138 
Q 2813 1869 2534 1725 
Q 2256 1581 1919 1581 
Q 1219 1581 811 2004 
Q 403 2428 403 3163 
Q 403 3881 828 4315 
Q 1253 4750 1959 4750 
Q 2769 4750 3195 4129 
Q 3622 3509 3622 2328 
Q 3622 1225 3098 567 
Q 2575 -91 1691 -91 
Q 1453 -91 1209 -44 
Q 966 3 703 97 
z
M 1959 2075 
Q 2384 2075 2632 2365 
Q 2881 2656 2881 3163 
Q 2881 3666 2632 3958 
Q 2384 4250 1959 4250 
Q 1534 4250 1286 3958 
Q 1038 3666 1038 3163 
Q 1038 2656 1286 2365 
Q 1534 2075 1959 2075 
z
" id="DejaVuSans-39" transform="scale(0.015625)"/>
       </defs>
       <use transform="translate(0 0.684375)" xlink:href="#DejaVuSans-39"/>
       <use transform="translate(63.623047 0.684375)" xlink:href="#DejaVuSans-2e"/>
       <use transform="translate(95.410156 0.684375)" xlink:href="#DejaVuSans-30"/>
       <use transform="translate(159.033203 0.684375)" xlink:href="#DejaVuSans-30"/>
       <use transform="translate(222.65625 0.684375)" xlink:href="#DejaVuSans-d7"/>
       <use transform="translate(306.445312 0.684375)" xlink:href="#DejaVuSans-31"/>
       <use transform="translate(370.068359 0.684375)" xlink:href="#DejaVuSans-30"/>
       <use transform="translate(434.648438 38.965625)scale(0.7)" xlink:href="#DejaVuSans-34"/>
      </g>
     </g>
    </g>
    <g id="ytick_5">
     <g id="line2d_11">
      <g>
       <use style="stroke:#000000;stroke-width:0.5;" x="63.499984" xlink:href="#m33cb99a922" y="37.514531"/>
      </g>
     </g>
     <g id="text_11">
      <!-- $1.20×10^{5}$ -->
      <g transform="translate(21.839984 40.553906)scale(0.08 -0.08)">
       <defs>
        <path d="M 691 4666 
L 3169 4666 
L 3169 4134 
L 1269 4134 
L 1269 2991 
Q 1406 3038 1543 3061 
Q 1681 3084 1819 3084 
Q 2600 3084 3056 2656 
Q 3513 2228 3513 1497 
Q 3513 744 3044 326 
Q 2575 -91 1722 -91 
Q 1428 -91 1123 -41 
Q 819 9 494 109 
L 494 744 
Q 775 591 1075 516 
Q 1375 441 1709 441 
Q 2250 441 2565 725 
Q 2881 1009 2881 1497 
Q 2881 1984 2565 2268 
Q 2250 2553 1709 2553 
Q 1456 2553 1204 2497 
Q 953 2441 691 2322 
L 691 4666 
z
" id="DejaVuSans-35" transform="scale(0.015625)"/>
       </defs>
       <use transform="translate(0 0.684375)" xlink:href="#DejaVuSans-31"/>
       <use transform="translate(63.623047 0.684375)" xlink:href="#DejaVuSans-2e"/>
       <use transform="translate(89.910156 0.684375)" xlink:href="#DejaVuSans-32"/>
       <use transform="translate(153.533203 0.684375)" xlink:href="#DejaVuSans-30"/>
       <use transform="translate(217.15625 0.684375)" xlink:href="#DejaVuSans-d7"/>
       <use transform="translate(300.945312 0.684375)" xlink:href="#DejaVuSans-31"/>
       <use transform="translate(364.568359 0.684375)" xlink:href="#DejaVuSans-30"/>
       <use transform="translate(429.148438 38.965625)scale(0.7)" xlink:href="#DejaVuSans-35"/>
      </g>
     </g>
    </g>
    <g id="text_12">
     <!-- $M_z$ at the forewing root ($N$) -->
     <g transform="translate(15.129984 204.285)rotate(-90)scale(0.11 -0.11)">
      <defs>
       <path d="M 1081 4666 
L 2028 4666 
L 2572 1522 
L 4378 4666 
L 5350 4666 
L 4441 0 
L 3828 0 
L 4622 4091 
L 2791 897 
L 2175 897 
L 1581 4103 
L 788 0 
L 172 0 
L 1081 4666 
z
" id="DejaVuSans-Oblique-4d" transform="scale(0.015625)"/>
       <path d="M 744 3500 
L 3475 3500 
L 3372 2975 
L 738 459 
L 2913 459 
L 2822 0 
L -19 0 
L 84 525 
L 2719 3041 
L 653 3041 
L 744 3500 
z
" id="DejaVuSans-Oblique-7a" transform="scale(0.015625)"/>
       <path d="M 2194 1759 
Q 1497 1759 1228 1600 
Q 959 1441 959 1056 
Q 959 750 1161 570 
Q 1363 391 1709 391 
Q 2188 391 2477 730 
Q 2766 1069 2766 1631 
L 2766 1759 
L 2194 1759 
z
M 3341 1997 
L 3341 0 
L 2766 0 
L 2766 531 
Q 2569 213 2275 61 
Q 1981 -91 1556 -91 
Q 1019 -91 701 211 
Q 384 513 384 1019 
Q 384 1609 779 1909 
Q 1175 2209 1959 2209 
L 2766 2209 
L 2766 2266 
Q 2766 2663 2505 2880 
Q 2244 3097 1772 3097 
Q 1472 3097 1187 3025 
Q 903 2953 641 2809 
L 641 3341 
Q 956 3463 1253 3523 
Q 1550 3584 1831 3584 
Q 2591 3584 2966 3190 
Q 3341 2797 3341 1997 
z
" id="DejaVuSans-61" transform="scale(0.015625)"/>
       <path d="M 1172 4494 
L 1172 3500 
L 2356 3500 
L 2356 3053 
L 1172 3053 
L 1172 1153 
Q 1172 725 1289 603 
Q 1406 481 1766 481 
L 2356 481 
L 2356 0 
L 1766 0 
Q 1100 0 847 248 
Q 594 497 594 1153 
L 594 3053 
L 172 3053 
L 172 3500 
L 594 3500 
L 594 4494 
L 1172 4494 
z
" id="DejaVuSans-74" transform="scale(0.015625)"/>
       <path d="M 3513 2113 
L 3513 0 
L 2938 0 
L 2938 2094 
Q 2938 2591 2744 2837 
Q 2550 3084 2163 3084 
Q 1697 3084 1428 2787 
Q 1159 2491 1159 1978 
L 1159 0 
L 581 0 
L 581 4863 
L 1159 4863 
L 1159 2956 
Q 1366 3272 1645 3428 
Q 1925 3584 2291 3584 
Q 2894 3584 3203 3211 
Q 3513 2838 3513 2113 
z
" id="DejaVuSans-68" transform="scale(0.015625)"/>
       <path d="M 2375 4863 
L 2375 4384 
L 1825 4384 
Q 1516 4384 1395 4259 
Q 1275 4134 1275 3809 
L 1275 3500 
L 2222 3500 
L 2222 3053 
L 1275 3053 
L 1275 0 
L 697 0 
L 697 3053 
L 147 3053 
L 147 3500 
L 697 3500 
L 697 3744 
Q 697 4328 969 4595 
Q 1241 4863 1831 4863 
L 2375 4863 
z
" id="DejaVuSans-66" transform="scale(0.015625)"/>
       <path d="M 1959 3097 
Q 1497 3097 1228 2736 
Q 959 2375 959 1747 
Q 959 1119 1226 758 
Q 1494 397 1959 397 
Q 2419 397 2687 759 
Q 2956 1122 2956 1747 
Q 2956 2369 2687 2733 
Q 2419 3097 1959 3097 
z
M 1959 3584 
Q 2709 3584 3137 3096 
Q 3566 2609 3566 1747 
Q 3566 888 3137 398 
Q 2709 -91 1959 -91 
Q 1206 -91 779 398 
Q 353 888 353 1747 
Q 353 2609 779 3096 
Q 1206 3584 1959 3584 
z
" id="DejaVuSans-6f" transform="scale(0.015625)"/>
       <path d="M 2631 2963 
Q 2534 3019 2420 3045 
Q 2306 3072 2169 3072 
Q 1681 3072 1420 2755 
Q 1159 2438 1159 1844 
L 1159 0 
L 581 0 
L 581 3500 
L 1159 3500 
L 1159 2956 
Q 1341 3275 1631 3429 
Q 1922 3584 2338 3584 
Q 2397 3584 2469 3576 
Q 2541 3569 2628 3553 
L 2631 2963 
z
" id="DejaVuSans-72" transform="scale(0.015625)"/>
       <path d="M 269 3500 
L 844 3500 
L 1563 769 
L 2278 3500 
L 2956 3500 
L 3675 769 
L 4391 3500 
L 4966 3500 
L 4050 0 
L 3372 0 
L 2619 2869 
L 1863 0 
L 1184 0 
L 269 3500 
z
" id="DejaVuSans-77" transform="scale(0.015625)"/>
       <path d="M 3513 2113 
L 3513 0 
L 2938 0 
L 2938 2094 
Q 2938 2591 2744 2837 
Q 2550 3084 2163 3084 
Q 1697 3084 1428 2787 
Q 1159 2491 1159 1978 
L 1159 0 
L 581 0 
L 581 3500 
L 1159 3500 
L 1159 2956 
Q 1366 3272 1645 3428 
Q 1925 3584 2291 3584 
Q 2894 3584 3203 3211 
Q 3513 2838 3513 2113 
z
" id="DejaVuSans-6e" transform="scale(0.015625)"/>
       <path d="M 2906 1791 
Q 2906 2416 2648 2759 
Q 2391 3103 1925 3103 
Q 1463 3103 1205 2759 
Q 947 2416 947 1791 
Q 947 1169 1205 825 
Q 1463 481 1925 481 
Q 2391 481 2648 825 
Q 2906 1169 2906 1791 
z
M 3481 434 
Q 3481 -459 3084 -895 
Q 2688 -1331 1869 -1331 
Q 1566 -1331 1297 -1286 
Q 1028 -1241 775 -1147 
L 775 -588 
Q 1028 -725 1275 -790 
Q 1522 -856 1778 -856 
Q 2344 -856 2625 -561 
Q 2906 -266 2906 331 
L 2906 616 
Q 2728 306 2450 153 
Q 2172 0 1784 0 
Q 1141 0 747 490 
Q 353 981 353 1791 
Q 353 2603 747 3093 
Q 1141 3584 1784 3584 
Q 2172 3584 2450 3431 
Q 2728 3278 2906 2969 
L 2906 3500 
L 3481 3500 
L 3481 434 
z
" id="DejaVuSans-67" transform="scale(0.015625)"/>
       <path d="M 1081 4666 
L 1931 4666 
L 3219 666 
L 4000 4666 
L 4616 4666 
L 3706 0 
L 2853 0 
L 1569 4025 
L 788 0 
L 172 0 
L 1081 4666 
z
" id="DejaVuSans-Oblique-4e" transform="scale(0.015625)"/>
      </defs>
      <use transform="translate(0 0.015625)" xlink:href="#DejaVuSans-Oblique-4d"/>
      <use transform="translate(86.279297 -16.390625)scale(0.7)" xlink:href="#DejaVuSans-Oblique-7a"/>
      <use transform="translate(125.756836 0.015625)" xlink:href="#DejaVuSans-20"/>
      <use transform="translate(157.543945 0.015625)" xlink:href="#DejaVuSans-61"/>
      <use transform="translate(218.823242 0.015625)" xlink:href="#DejaVuSans-74"/>
      <use transform="translate(258.032227 0.015625)" xlink:href="#DejaVuSans-20"/>
      <use transform="translate(289.819336 0.015625)" xlink:href="#DejaVuSans-74"/>
      <use transform="translate(329.02832 0.015625)" xlink:href="#DejaVuSans-68"/>
      <use transform="translate(392.407227 0.015625)" xlink:href="#DejaVuSans-65"/>
      <use transform="translate(453.930664 0.015625)" xlink:href="#DejaVuSans-20"/>
      <use transform="translate(485.717773 0.015625)" xlink:href="#DejaVuSans-66"/>
      <use transform="translate(520.922852 0.015625)" xlink:href="#DejaVuSans-6f"/>
      <use transform="translate(582.104492 0.015625)" xlink:href="#DejaVuSans-72"/>
      <use transform="translate(623.217773 0.015625)" xlink:href="#DejaVuSans-65"/>
      <use transform="translate(684.741211 0.015625)" xlink:href="#DejaVuSans-77"/>
      <use transform="translate(766.52832 0.015625)" xlink:href="#DejaVuSans-69"/>
      <use transform="translate(794.311523 0.015625)" xlink:href="#DejaVuSans-6e"/>
      <use transform="translate(857.69043 0.015625)" xlink:href="#DejaVuSans-67"/>
      <use transform="translate(921.166992 0.015625)" xlink:href="#DejaVuSans-20"/>
      <use transform="translate(952.954102 0.015625)" xlink:href="#DejaVuSans-72"/>
      <use transform="translate(994.067383 0.015625)" xlink:href="#DejaVuSans-6f"/>
      <use transform="translate(1055.249023 0.015625)" xlink:href="#DejaVuSans-6f"/>
      <use transform="translate(1116.430664 0.015625)" xlink:href="#DejaVuSans-74"/>
      <use transform="translate(1155.639648 0.015625)" xlink:href="#DejaVuSans-20"/>
      <use transform="translate(1187.426758 0.015625)" xlink:href="#DejaVuSans-28"/>
      <use transform="translate(1226.44043 0.015625)" xlink:href="#DejaVuSans-Oblique-4e"/>
      <use transform="translate(1301.245117 0.015625)" xlink:href="#DejaVuSans-29"/>
     </g>
    </g>
   </g>
   <g id="patch_3">
    <path d="M 63.499984 258.225354 
L 63.499984 2.834646 
" style="fill:none;stroke:#000000;stroke-linecap:square;stroke-linejoin:miter;"/>
   </g>
   <g id="patch_4">
    <path d="M 63.499984 258.225354 
L 419.805777 258.225354 
" style="fill:none;stroke:#000000;stroke-linecap:square;stroke-linejoin:miter;"/>
   </g>
  </g>
 </g>
 <defs>
  <clipPath id="pea30e800d6">
   <rect height="255.390709" width="356.305793" x="63.499984" y="2.834646"/>
  </clipPath>
 </defs>
</svg>
