<?xml version="1.0" encoding="utf-8" standalone="no"?>
<!DOCTYPE svg PUBLIC "-//W3C//DTD SVG 1.1//EN"
  "http://www.w3.org/Graphics/SVG/1.1/DTD/svg11.dtd">
<svg height="288pt" version="1.1" viewBox="0 0 432 288" width="432pt" xmlns="http://www.w3.org/2000/svg" xmlns:xlink="http://www.w3.org/1999/xlink">
 <metadata>
  <rdf:RDF xmlns:cc="http://creativecommons.org/ns#" xmlns:dc="http://purl.org/dc/elements/1.1/" xmlns:rdf="http://www.w3.org/1999/02/22-rdf-syntax-ns#">
   <cc:Work>
    <dc:type rdf:resource="http://purl.org/dc/dcmitype/StillImage"/>
    <dc:date>2021-11-10T23:08:36.876580</dc:date>
    <dc:format>image/svg+xml</dc:format>
    <dc:creator>
     <cc:Agent>
      <dc:title>Matplotlib v3.4.3, https://matplotlib.org/</dc:title>
     </cc:Agent>
    </dc:creator>
   </cc:Work>
  </rdf:RDF>
 </metadata>
 <defs>
  <style type="text/css">*{stroke-linecap:butt;stroke-linejoin:round;}</style>
 </defs>
 <g id="figure_1">
  <g id="patch_1">
   <path d="M 0 288 
L 432 288 
L 432 0 
L 0 0 
z
" style="fill:#ffffff;"/>
  </g>
  <g id="axes_1">
   <g id="patch_2">
    <path d="M 71.231488 258.225354 
L 422.361999 258.225354 
L 422.361999 2.834646 
L 71.231488 2.834646 
z
" style="fill:#ffffff;"/>
   </g>
   <g id="line2d_1">
    <path clip-path="url(#p057112a71c)" d="M 71.231488 129.702202 
L 72.63601 129.780108 
L 73.689401 129.916639 
L 74.216097 129.770086 
L 76.147315 128.977745 
L 76.849576 129.184141 
L 81.238707 131.745088 
L 81.765403 131.622994 
L 82.292099 131.222683 
L 86.505665 126.906702 
L 87.207926 126.475896 
L 87.734622 126.400516 
L 88.963578 126.360408 
L 89.665839 126.156374 
L 90.3681 125.977364 
L 90.894796 125.985894 
L 91.421492 126.249511 
L 92.299318 127.019191 
L 93.70384 128.744817 
L 94.581667 130.419015 
L 95.459493 132.668916 
L 96.68845 135.718931 
L 97.566276 137.187 
L 98.444102 138.26127 
L 99.497494 139.34316 
L 100.199755 139.719999 
L 100.726451 139.759259 
L 102.306538 139.608837 
L 103.535495 139.727479 
L 104.06219 139.584164 
L 104.588886 139.128731 
L 105.466712 138.018852 
L 107.39793 134.934237 
L 108.275757 132.942851 
L 109.855844 129.394171 
L 111.787062 125.73878 
L 112.664888 123.438703 
L 114.596106 117.537078 
L 115.649497 113.487718 
L 117.40515 106.745215 
L 118.282976 104.390583 
L 119.511933 101.819026 
L 120.389759 100.480111 
L 120.916455 100.050934 
L 121.443151 99.828956 
L 122.145412 99.850337 
L 123.549934 100.084455 
L 124.07663 100.368635 
L 124.603325 101.015568 
L 125.305586 102.401528 
L 126.358978 105.311143 
L 127.7635 109.814363 
L 129.168022 115.19349 
L 130.221414 119.011427 
L 131.45037 122.493075 
L 132.679327 126.202887 
L 134.78611 133.736318 
L 135.839502 138.322602 
L 137.419589 146.519054 
L 140.930894 163.991231 
L 142.335416 170.166161 
L 143.915504 176.185521 
L 144.79333 178.745257 
L 145.320026 179.764621 
L 145.846721 180.322941 
L 146.548982 180.645694 
L 147.251243 180.624649 
L 148.12907 180.404438 
L 149.006896 179.830782 
L 150.235853 178.956875 
L 150.762548 178.897602 
L 151.289244 179.085615 
L 153.396027 180.36281 
L 154.449419 180.394662 
L 155.15168 180.33661 
L 155.853941 180.104884 
L 156.380637 179.709459 
L 157.258463 178.561416 
L 160.067507 174.260479 
L 160.769768 172.322926 
L 161.472029 169.772222 
L 162.525421 164.763212 
L 163.403247 159.400913 
L 164.281073 152.677478 
L 166.036726 136.782371 
L 169.1969 108.941407 
L 171.128118 93.978798 
L 172.883771 81.365674 
L 173.761597 76.481553 
L 174.639423 72.876514 
L 175.692815 69.660727 
L 176.570641 67.693412 
L 177.272902 66.624217 
L 178.677424 64.872967 
L 179.20412 63.93902 
L 181.310903 59.612948 
L 182.013164 58.878225 
L 182.53986 58.587846 
L 183.066556 58.525859 
L 183.593251 58.698694 
L 184.119947 59.228269 
L 184.646643 60.117882 
L 185.524469 62.223456 
L 186.753426 65.151457 
L 187.806817 67.085293 
L 188.684644 68.774145 
L 189.56247 71.01739 
L 190.440296 74.008359 
L 191.142557 77.08286 
L 191.844818 81.092386 
L 192.722645 87.463791 
L 199.56969 141.867019 
L 200.974212 151.585138 
L 201.852038 156.093227 
L 202.554299 158.612955 
L 203.432125 160.878729 
L 205.714474 166.06107 
L 206.416735 168.412274 
L 207.118996 171.49159 
L 209.401344 182.557683 
L 209.92804 183.982911 
L 210.454735 184.85232 
L 210.981431 185.185325 
L 211.332562 185.188953 
L 211.683692 184.980031 
L 212.034823 184.522214 
L 212.561519 183.404599 
L 213.088214 181.752966 
L 213.966041 178.144027 
L 214.843867 174.664608 
L 215.370563 173.253229 
L 215.897258 172.529544 
L 216.248389 172.427154 
L 216.775085 172.646089 
L 218.179607 173.336617 
L 218.530737 173.201395 
L 218.881868 172.890448 
L 219.232998 172.357545 
L 219.759694 171.010507 
L 220.28639 168.775026 
L 220.813086 165.456703 
L 221.515347 159.189844 
L 222.568738 147.100682 
L 224.324391 127.54664 
L 226.606739 105.504275 
L 227.660131 94.879372 
L 228.537957 83.541072 
L 230.118044 58.744484 
L 230.99587 46.75859 
L 231.698131 39.463557 
L 232.400392 34.437283 
L 232.927088 32.343699 
L 233.278219 31.786677 
L 233.453784 31.796569 
L 233.629349 31.994188 
L 233.98048 32.919254 
L 234.507176 35.498931 
L 235.385002 41.629195 
L 236.262828 47.625521 
L 236.965089 51.095547 
L 237.66735 53.547721 
L 239.598568 59.01524 
L 239.949698 59.492384 
L 240.300829 59.653752 
L 240.651959 59.516504 
L 241.880916 58.545804 
L 242.232047 58.6614 
L 242.758743 59.245981 
L 245.216656 63.164341 
L 245.743352 64.679174 
L 246.445613 67.625682 
L 247.147874 70.58543 
L 247.499004 71.520059 
L 247.850135 71.936749 
L 248.201265 71.865989 
L 249.254657 70.771632 
L 249.430222 70.836572 
L 249.605788 71.077548 
L 249.956918 72.140007 
L 250.308049 73.980251 
L 250.834744 78.137504 
L 251.537005 85.741607 
L 252.414832 98.012068 
L 253.292658 114.087767 
L 255.750571 163.681282 
L 256.452832 171.989433 
L 257.330659 179.392239 
L 258.208485 184.855125 
L 258.735181 186.981091 
L 259.086311 187.795785 
L 259.613007 188.340709 
L 260.490833 188.941554 
L 260.841964 189.647816 
L 261.36866 191.249554 
L 262.246486 194.145652 
L 262.597616 194.647347 
L 262.773182 194.683279 
L 262.948747 194.538285 
L 263.299877 193.728959 
L 264.002138 190.961762 
L 264.7044 188.401258 
L 265.05553 187.83667 
L 265.231095 187.744971 
L 265.406661 187.790519 
L 265.757791 188.295784 
L 266.460052 190.152508 
L 268.215705 196.045534 
L 268.7424 198.861444 
L 270.146922 207.237707 
L 270.498053 207.982383 
L 270.673618 207.998917 
L 270.849183 207.777453 
L 271.200314 206.633424 
L 271.72701 203.564063 
L 272.604836 198.182772 
L 272.955967 196.947567 
L 273.307097 196.400175 
L 273.658228 196.344119 
L 274.184923 196.789013 
L 274.536054 196.97703 
L 274.887184 196.845015 
L 275.238315 196.325514 
L 275.765011 194.901524 
L 276.642837 192.4755 
L 276.993967 191.888391 
L 277.345098 191.644371 
L 278.222924 191.524093 
L 278.574055 191.005522 
L 278.925185 189.855617 
L 279.276316 187.966321 
L 279.803012 183.430244 
L 280.505273 174.51986 
L 283.314317 135.270466 
L 284.543273 121.117768 
L 286.298926 103.554478 
L 287.001187 93.116912 
L 289.810231 47.164952 
L 290.512492 38.761975 
L 291.039188 34.437196 
L 291.390318 32.980697 
L 291.565884 32.753785 
L 291.741449 32.862095 
L 291.917014 33.303329 
L 292.268145 35.116121 
L 292.79484 39.516535 
L 294.199362 52.322897 
L 294.726058 55.191813 
L 295.252754 56.907777 
L 295.603885 57.562823 
L 295.955015 57.820583 
L 296.13058 57.77634 
L 296.306146 57.586163 
L 296.657276 56.668835 
L 297.008407 54.966577 
L 297.359537 52.30619 
L 297.886233 46.48572 
L 299.641885 24.848491 
L 299.993016 22.632088 
L 300.344146 21.461711 
L 300.519712 21.246072 
L 300.695277 21.276889 
L 300.870842 21.536475 
L 301.221973 22.65026 
L 301.573103 24.508092 
L 302.099799 28.663416 
L 302.80206 36.0455 
L 304.733278 59.14543 
L 305.084408 61.263512 
L 305.435539 62.053243 
L 305.611104 61.920767 
L 305.786669 61.429293 
L 306.1378 59.427748 
L 306.664496 54.315576 
L 308.595713 32.06164 
L 308.946844 30.255001 
L 309.122409 29.968411 
L 309.297974 30.185536 
L 309.47354 30.958389 
L 309.82467 34.300697 
L 310.175801 40.036153 
L 310.702497 52.887229 
L 311.580323 81.971716 
L 313.335975 142.651781 
L 314.038236 158.641558 
L 314.564932 166.392111 
L 315.091628 171.068616 
L 315.442758 172.635605 
L 315.793889 173.297541 
L 315.969454 173.34938 
L 316.671715 172.964401 
L 316.84728 173.131152 
L 317.022846 173.562207 
L 317.373976 175.537564 
L 317.725107 179.384055 
L 318.251803 188.373424 
L 320.18302 226.567043 
L 320.709716 232.196768 
L 321.236412 235.364418 
L 321.763108 236.995093 
L 322.114238 237.366955 
L 322.289803 237.231361 
L 322.465369 236.806225 
L 322.816499 234.832152 
L 323.16763 231.006129 
L 323.694325 221.055985 
L 324.572152 196.504254 
L 325.098848 183.39479 
L 325.449978 178.005043 
L 325.801109 175.962328 
L 325.976674 176.140753 
L 326.152239 177.030203 
L 326.50337 180.686743 
L 327.030065 189.452087 
L 328.785718 221.099589 
L 330.19024 240.303206 
L 330.892501 247.865117 
L 331.243631 250.113082 
L 331.594762 250.997315 
L 331.770327 250.858657 
L 331.945892 250.256082 
L 332.297023 247.510522 
L 332.648154 242.643429 
L 333.350415 228.082015 
L 334.228241 210.25396 
L 334.579371 206.008702 
L 334.930502 204.038116 
L 335.106067 203.81285 
L 335.281632 203.997348 
L 335.632763 205.144026 
L 336.159459 206.95255 
L 336.510589 207.335909 
L 336.686154 207.320584 
L 337.037285 206.965347 
L 337.388415 206.550128 
L 337.563981 206.516334 
L 337.739546 206.704419 
L 337.915111 207.168929 
L 338.266242 209.176123 
L 338.792937 214.736188 
L 340.021894 229.265283 
L 340.373025 231.693322 
L 340.724155 232.762055 
L 340.899721 232.794104 
L 341.075286 232.522504 
L 341.426416 231.213879 
L 341.777547 228.861876 
L 342.304243 223.201127 
L 343.006504 211.995626 
L 344.411026 186.402555 
L 344.937721 180.421794 
L 345.639982 175.372506 
L 346.166678 171.035446 
L 346.693374 164.132672 
L 347.395635 150.855148 
L 348.624592 126.294581 
L 349.151288 120.11727 
L 349.853549 113.41404 
L 350.204679 107.545332 
L 350.731375 94.467642 
L 352.135897 56.114856 
L 352.662593 48.077828 
L 353.013723 44.898477 
L 353.891549 39.379601 
L 354.24268 34.887237 
L 355.647202 11.588369 
L 355.822767 10.722353 
L 355.998333 10.82809 
L 356.173898 11.922519 
L 356.525028 16.770477 
L 357.57842 35.579199 
L 357.753985 36.849178 
L 357.92955 37.20388 
L 358.105116 36.609445 
L 358.456246 32.724002 
L 359.685203 12.385394 
L 359.860768 12.280166 
L 360.036333 13.277319 
L 360.387464 18.15299 
L 361.616421 42.391341 
L 361.791986 43.690631 
L 361.967551 44.112535 
L 362.143116 43.686859 
L 362.494247 40.64327 
L 363.547639 25.707106 
L 363.723204 25.493557 
L 363.898769 26.73913 
L 364.2499 33.596995 
L 365.127726 56.115025 
L 365.478856 58.726212 
L 365.654422 58.403016 
L 365.829987 57.172988 
L 366.181117 52.303712 
L 366.707813 39.667881 
L 367.234509 26.099382 
L 367.585639 21.95452 
L 367.761205 22.505809 
L 367.93677 24.989803 
L 368.2879 34.639967 
L 369.165727 63.061517 
L 369.516857 68.72243 
L 369.692422 69.722288 
L 369.867988 69.51872 
L 370.043553 68.193972 
L 370.394684 62.841691 
L 371.096945 50.265375 
L 371.27251 48.773203 
L 371.448075 48.488612 
L 371.62364 49.530678 
L 371.974771 55.587941 
L 373.028162 81.582468 
L 373.203728 82.960609 
L 373.379293 82.903768 
L 373.554858 81.523926 
L 373.905989 75.854281 
L 374.60825 63.84309 
L 374.783815 62.637257 
L 374.95938 62.655791 
L 375.134945 64.087373 
L 375.486076 71.564653 
L 376.012772 92.627155 
L 376.890598 131.150299 
L 377.241728 139.441868 
L 377.592859 142.923441 
L 377.768424 143.487472 
L 378.29512 144.129231 
L 378.470685 145.123774 
L 378.821816 149.956457 
L 379.348512 164.038924 
L 380.577468 203.229287 
L 380.753034 205.357045 
L 380.928599 205.793507 
L 381.104164 204.556914 
L 381.455295 198.154862 
L 382.508686 174.605644 
L 382.684251 173.170433 
L 382.859817 172.908924 
L 383.035382 173.703774 
L 383.386512 178.089604 
L 384.439904 196.052468 
L 384.615469 196.500384 
L 384.791034 195.87523 
L 385.142165 191.554626 
L 386.019991 175.967034 
L 386.195557 174.472821 
L 386.371122 174.007823 
L 386.546687 174.61929 
L 386.897818 178.665564 
L 387.248948 185.763353 
L 388.477905 216.316089 
L 388.65347 216.774345 
L 388.829035 215.605744 
L 389.180166 209.809986 
L 389.706862 200.454519 
L 390.057992 197.953269 
L 390.233557 197.736037 
L 390.760253 197.923469 
L 390.935818 198.166143 
L 391.111384 198.928988 
L 391.462514 202.779825 
L 392.164775 214.272696 
L 392.34034 215.027664 
L 392.515906 214.11088 
L 392.867036 208.130337 
L 393.569297 194.34984 
L 393.920428 190.829841 
L 394.447124 188.063518 
L 394.622689 187.745637 
L 394.798254 188.263056 
L 394.973819 190.007017 
L 395.32495 197.413453 
L 396.027211 216.337706 
L 396.378341 220.891813 
L 396.553907 221.546877 
L 396.729472 221.501373 
L 397.080602 220.372323 
L 397.782863 216.996856 
L 397.958429 216.761641 
L 398.133994 217.12469 
L 398.309559 218.171206 
L 398.66069 222.27807 
L 399.714081 238.853595 
L 399.889646 239.76178 
L 400.065212 239.559325 
L 400.240777 238.101705 
L 400.591908 231.278817 
L 402.34756 183.906989 
L 402.698691 181.611305 
L 402.874256 181.872357 
L 403.225386 183.10325 
L 403.400952 183.004173 
L 403.576517 181.996916 
L 403.927647 177.280754 
L 404.278778 169.289611 
L 405.507735 134.825532 
L 405.6833 134.313762 
L 405.858865 134.9089 
L 406.209996 138.811257 
L 406.736691 151.033256 
L 407.087822 158.099107 
L 407.263387 159.471299 
L 407.438952 159.309091 
L 407.614518 157.8819 
L 407.965648 151.995499 
L 408.316779 141.44268 
L 409.194605 109.758434 
L 409.721301 99.24556 
L 410.072431 94.797158 
L 410.774692 88.766656 
L 411.125823 81.673985 
L 412.003649 56.211775 
L 412.70591 35.357939 
L 413.057041 31.4126 
L 413.232606 31.690449 
L 413.408171 33.31885 
L 413.934867 43.037014 
L 414.988258 65.322968 
L 415.163824 67.021786 
L 415.339389 67.401555 
L 415.514954 66.436885 
L 416.392781 55.737247 
L 416.568346 55.775189 
L 416.743911 56.512662 
L 417.095042 59.464452 
L 417.446172 65.066679 
L 418.499564 87.14442 
L 418.675129 87.196063 
L 418.850694 85.842767 
L 419.201825 79.546532 
L 419.552955 68.484714 
L 420.781912 21.589974 
L 421.133042 17.480956 
L 421.308608 17.753679 
L 421.659738 20.700645 
L 422.361999 27.480112 
L 422.361999 27.480112 
" style="fill:none;stroke:#009afa;"/>
   </g>
   <g id="matplotlib.axis_1">
    <g id="xtick_1">
     <g id="line2d_2">
      <defs>
       <path d="M 0 0 
L 0 -2.5 
" id="me60522258e" style="stroke:#000000;stroke-width:0.5;"/>
      </defs>
      <g>
       <use style="stroke:#000000;stroke-width:0.5;" x="71.231488" xlink:href="#me60522258e" y="258.225354"/>
      </g>
     </g>
     <g id="text_1">
      <!-- $0.0$ -->
      <g transform="translate(64.831488 267.804104)scale(0.08 -0.08)">
       <defs>
        <path d="M 2034 4250 
Q 1547 4250 1301 3770 
Q 1056 3291 1056 2328 
Q 1056 1369 1301 889 
Q 1547 409 2034 409 
Q 2525 409 2770 889 
Q 3016 1369 3016 2328 
Q 3016 3291 2770 3770 
Q 2525 4250 2034 4250 
z
M 2034 4750 
Q 2819 4750 3233 4129 
Q 3647 3509 3647 2328 
Q 3647 1150 3233 529 
Q 2819 -91 2034 -91 
Q 1250 -91 836 529 
Q 422 1150 422 2328 
Q 422 3509 836 4129 
Q 1250 4750 2034 4750 
z
" id="DejaVuSans-30" transform="scale(0.015625)"/>
        <path d="M 684 794 
L 1344 794 
L 1344 0 
L 684 0 
L 684 794 
z
" id="DejaVuSans-2e" transform="scale(0.015625)"/>
       </defs>
       <use transform="translate(0 0.78125)" xlink:href="#DejaVuSans-30"/>
       <use transform="translate(63.623047 0.78125)" xlink:href="#DejaVuSans-2e"/>
       <use transform="translate(95.410156 0.78125)" xlink:href="#DejaVuSans-30"/>
      </g>
     </g>
    </g>
    <g id="xtick_2">
     <g id="line2d_3">
      <g>
       <use style="stroke:#000000;stroke-width:0.5;" x="159.014116" xlink:href="#me60522258e" y="258.225354"/>
      </g>
     </g>
     <g id="text_2">
      <!-- $0.5$ -->
      <g transform="translate(152.614116 267.804104)scale(0.08 -0.08)">
       <defs>
        <path d="M 691 4666 
L 3169 4666 
L 3169 4134 
L 1269 4134 
L 1269 2991 
Q 1406 3038 1543 3061 
Q 1681 3084 1819 3084 
Q 2600 3084 3056 2656 
Q 3513 2228 3513 1497 
Q 3513 744 3044 326 
Q 2575 -91 1722 -91 
Q 1428 -91 1123 -41 
Q 819 9 494 109 
L 494 744 
Q 775 591 1075 516 
Q 1375 441 1709 441 
Q 2250 441 2565 725 
Q 2881 1009 2881 1497 
Q 2881 1984 2565 2268 
Q 2250 2553 1709 2553 
Q 1456 2553 1204 2497 
Q 953 2441 691 2322 
L 691 4666 
z
" id="DejaVuSans-35" transform="scale(0.015625)"/>
       </defs>
       <use transform="translate(0 0.78125)" xlink:href="#DejaVuSans-30"/>
       <use transform="translate(63.623047 0.78125)" xlink:href="#DejaVuSans-2e"/>
       <use transform="translate(95.410156 0.78125)" xlink:href="#DejaVuSans-35"/>
      </g>
     </g>
    </g>
    <g id="xtick_3">
     <g id="line2d_4">
      <g>
       <use style="stroke:#000000;stroke-width:0.5;" x="246.796743" xlink:href="#me60522258e" y="258.225354"/>
      </g>
     </g>
     <g id="text_3">
      <!-- $1.0$ -->
      <g transform="translate(240.396743 267.804104)scale(0.08 -0.08)">
       <defs>
        <path d="M 794 531 
L 1825 531 
L 1825 4091 
L 703 3866 
L 703 4441 
L 1819 4666 
L 2450 4666 
L 2450 531 
L 3481 531 
L 3481 0 
L 794 0 
L 794 531 
z
" id="DejaVuSans-31" transform="scale(0.015625)"/>
       </defs>
       <use transform="translate(0 0.78125)" xlink:href="#DejaVuSans-31"/>
       <use transform="translate(63.623047 0.78125)" xlink:href="#DejaVuSans-2e"/>
       <use transform="translate(95.410156 0.78125)" xlink:href="#DejaVuSans-30"/>
      </g>
     </g>
    </g>
    <g id="xtick_4">
     <g id="line2d_5">
      <g>
       <use style="stroke:#000000;stroke-width:0.5;" x="334.579371" xlink:href="#me60522258e" y="258.225354"/>
      </g>
     </g>
     <g id="text_4">
      <!-- $1.5$ -->
      <g transform="translate(328.179371 267.804104)scale(0.08 -0.08)">
       <use transform="translate(0 0.09375)" xlink:href="#DejaVuSans-31"/>
       <use transform="translate(63.623047 0.09375)" xlink:href="#DejaVuSans-2e"/>
       <use transform="translate(95.410156 0.09375)" xlink:href="#DejaVuSans-35"/>
      </g>
     </g>
    </g>
    <g id="xtick_5">
     <g id="line2d_6">
      <g>
       <use style="stroke:#000000;stroke-width:0.5;" x="422.361999" xlink:href="#me60522258e" y="258.225354"/>
      </g>
     </g>
     <g id="text_5">
      <!-- $2.0$ -->
      <g transform="translate(415.961999 267.804104)scale(0.08 -0.08)">
       <defs>
        <path d="M 1228 531 
L 3431 531 
L 3431 0 
L 469 0 
L 469 531 
Q 828 903 1448 1529 
Q 2069 2156 2228 2338 
Q 2531 2678 2651 2914 
Q 2772 3150 2772 3378 
Q 2772 3750 2511 3984 
Q 2250 4219 1831 4219 
Q 1534 4219 1204 4116 
Q 875 4013 500 3803 
L 500 4441 
Q 881 4594 1212 4672 
Q 1544 4750 1819 4750 
Q 2544 4750 2975 4387 
Q 3406 4025 3406 3419 
Q 3406 3131 3298 2873 
Q 3191 2616 2906 2266 
Q 2828 2175 2409 1742 
Q 1991 1309 1228 531 
z
" id="DejaVuSans-32" transform="scale(0.015625)"/>
       </defs>
       <use transform="translate(0 0.78125)" xlink:href="#DejaVuSans-32"/>
       <use transform="translate(63.623047 0.78125)" xlink:href="#DejaVuSans-2e"/>
       <use transform="translate(95.410156 0.78125)" xlink:href="#DejaVuSans-30"/>
      </g>
     </g>
    </g>
    <g id="text_6">
     <!-- Time (s) -->
     <g transform="translate(224.434947 281.826136)scale(0.11 -0.11)">
      <defs>
       <path d="M -19 4666 
L 3928 4666 
L 3928 4134 
L 2272 4134 
L 2272 0 
L 1638 0 
L 1638 4134 
L -19 4134 
L -19 4666 
z
" id="DejaVuSans-54" transform="scale(0.015625)"/>
       <path d="M 603 3500 
L 1178 3500 
L 1178 0 
L 603 0 
L 603 3500 
z
M 603 4863 
L 1178 4863 
L 1178 4134 
L 603 4134 
L 603 4863 
z
" id="DejaVuSans-69" transform="scale(0.015625)"/>
       <path d="M 3328 2828 
Q 3544 3216 3844 3400 
Q 4144 3584 4550 3584 
Q 5097 3584 5394 3201 
Q 5691 2819 5691 2113 
L 5691 0 
L 5113 0 
L 5113 2094 
Q 5113 2597 4934 2840 
Q 4756 3084 4391 3084 
Q 3944 3084 3684 2787 
Q 3425 2491 3425 1978 
L 3425 0 
L 2847 0 
L 2847 2094 
Q 2847 2600 2669 2842 
Q 2491 3084 2119 3084 
Q 1678 3084 1418 2786 
Q 1159 2488 1159 1978 
L 1159 0 
L 581 0 
L 581 3500 
L 1159 3500 
L 1159 2956 
Q 1356 3278 1631 3431 
Q 1906 3584 2284 3584 
Q 2666 3584 2933 3390 
Q 3200 3197 3328 2828 
z
" id="DejaVuSans-6d" transform="scale(0.015625)"/>
       <path d="M 3597 1894 
L 3597 1613 
L 953 1613 
Q 991 1019 1311 708 
Q 1631 397 2203 397 
Q 2534 397 2845 478 
Q 3156 559 3463 722 
L 3463 178 
Q 3153 47 2828 -22 
Q 2503 -91 2169 -91 
Q 1331 -91 842 396 
Q 353 884 353 1716 
Q 353 2575 817 3079 
Q 1281 3584 2069 3584 
Q 2775 3584 3186 3129 
Q 3597 2675 3597 1894 
z
M 3022 2063 
Q 3016 2534 2758 2815 
Q 2500 3097 2075 3097 
Q 1594 3097 1305 2825 
Q 1016 2553 972 2059 
L 3022 2063 
z
" id="DejaVuSans-65" transform="scale(0.015625)"/>
       <path id="DejaVuSans-20" transform="scale(0.015625)"/>
       <path d="M 1984 4856 
Q 1566 4138 1362 3434 
Q 1159 2731 1159 2009 
Q 1159 1288 1364 580 
Q 1569 -128 1984 -844 
L 1484 -844 
Q 1016 -109 783 600 
Q 550 1309 550 2009 
Q 550 2706 781 3412 
Q 1013 4119 1484 4856 
L 1984 4856 
z
" id="DejaVuSans-28" transform="scale(0.015625)"/>
       <path d="M 2834 3397 
L 2834 2853 
Q 2591 2978 2328 3040 
Q 2066 3103 1784 3103 
Q 1356 3103 1142 2972 
Q 928 2841 928 2578 
Q 928 2378 1081 2264 
Q 1234 2150 1697 2047 
L 1894 2003 
Q 2506 1872 2764 1633 
Q 3022 1394 3022 966 
Q 3022 478 2636 193 
Q 2250 -91 1575 -91 
Q 1294 -91 989 -36 
Q 684 19 347 128 
L 347 722 
Q 666 556 975 473 
Q 1284 391 1588 391 
Q 1994 391 2212 530 
Q 2431 669 2431 922 
Q 2431 1156 2273 1281 
Q 2116 1406 1581 1522 
L 1381 1569 
Q 847 1681 609 1914 
Q 372 2147 372 2553 
Q 372 3047 722 3315 
Q 1072 3584 1716 3584 
Q 2034 3584 2315 3537 
Q 2597 3491 2834 3397 
z
" id="DejaVuSans-73" transform="scale(0.015625)"/>
       <path d="M 513 4856 
L 1013 4856 
Q 1481 4119 1714 3412 
Q 1947 2706 1947 2009 
Q 1947 1309 1714 600 
Q 1481 -109 1013 -844 
L 513 -844 
Q 928 -128 1133 580 
Q 1338 1288 1338 2009 
Q 1338 2731 1133 3434 
Q 928 4138 513 4856 
z
" id="DejaVuSans-29" transform="scale(0.015625)"/>
      </defs>
      <use xlink:href="#DejaVuSans-54"/>
      <use x="57.958984" xlink:href="#DejaVuSans-69"/>
      <use x="85.742188" xlink:href="#DejaVuSans-6d"/>
      <use x="183.154297" xlink:href="#DejaVuSans-65"/>
      <use x="244.677734" xlink:href="#DejaVuSans-20"/>
      <use x="276.464844" xlink:href="#DejaVuSans-28"/>
      <use x="315.478516" xlink:href="#DejaVuSans-73"/>
      <use x="367.578125" xlink:href="#DejaVuSans-29"/>
     </g>
    </g>
   </g>
   <g id="matplotlib.axis_2">
    <g id="ytick_1">
     <g id="line2d_7">
      <defs>
       <path d="M 0 0 
L 2.5 0 
" id="medcd9ba4f6" style="stroke:#000000;stroke-width:0.5;"/>
      </defs>
      <g>
       <use style="stroke:#000000;stroke-width:0.5;" x="71.231488" xlink:href="#medcd9ba4f6" y="240.946337"/>
      </g>
     </g>
     <g id="text_7">
      <!-- $-1.50×10^{6}$ -->
      <g transform="translate(22.451488 243.985712)scale(0.08 -0.08)">
       <defs>
        <path d="M 678 2272 
L 4684 2272 
L 4684 1741 
L 678 1741 
L 678 2272 
z
" id="DejaVuSans-2212" transform="scale(0.015625)"/>
        <path d="M 4488 3438 
L 3059 2003 
L 4488 575 
L 4116 197 
L 2681 1631 
L 1247 197 
L 878 575 
L 2303 2003 
L 878 3438 
L 1247 3816 
L 2681 2381 
L 4116 3816 
L 4488 3438 
z
" id="DejaVuSans-d7" transform="scale(0.015625)"/>
        <path d="M 2113 2584 
Q 1688 2584 1439 2293 
Q 1191 2003 1191 1497 
Q 1191 994 1439 701 
Q 1688 409 2113 409 
Q 2538 409 2786 701 
Q 3034 994 3034 1497 
Q 3034 2003 2786 2293 
Q 2538 2584 2113 2584 
z
M 3366 4563 
L 3366 3988 
Q 3128 4100 2886 4159 
Q 2644 4219 2406 4219 
Q 1781 4219 1451 3797 
Q 1122 3375 1075 2522 
Q 1259 2794 1537 2939 
Q 1816 3084 2150 3084 
Q 2853 3084 3261 2657 
Q 3669 2231 3669 1497 
Q 3669 778 3244 343 
Q 2819 -91 2113 -91 
Q 1303 -91 875 529 
Q 447 1150 447 2328 
Q 447 3434 972 4092 
Q 1497 4750 2381 4750 
Q 2619 4750 2861 4703 
Q 3103 4656 3366 4563 
z
" id="DejaVuSans-36" transform="scale(0.015625)"/>
       </defs>
       <use transform="translate(0 0.765625)" xlink:href="#DejaVuSans-2212"/>
       <use transform="translate(83.789062 0.765625)" xlink:href="#DejaVuSans-31"/>
       <use transform="translate(147.412109 0.765625)" xlink:href="#DejaVuSans-2e"/>
       <use transform="translate(179.199219 0.765625)" xlink:href="#DejaVuSans-35"/>
       <use transform="translate(242.822266 0.765625)" xlink:href="#DejaVuSans-30"/>
       <use transform="translate(306.445312 0.765625)" xlink:href="#DejaVuSans-d7"/>
       <use transform="translate(390.234375 0.765625)" xlink:href="#DejaVuSans-31"/>
       <use transform="translate(453.857422 0.765625)" xlink:href="#DejaVuSans-30"/>
       <use transform="translate(518.4375 39.046875)scale(0.7)" xlink:href="#DejaVuSans-36"/>
      </g>
     </g>
    </g>
    <g id="ytick_2">
     <g id="line2d_8">
      <g>
       <use style="stroke:#000000;stroke-width:0.5;" x="71.231488" xlink:href="#medcd9ba4f6" y="203.864959"/>
      </g>
     </g>
     <g id="text_8">
      <!-- $-1.00×10^{6}$ -->
      <g transform="translate(22.451488 206.904334)scale(0.08 -0.08)">
       <use transform="translate(0 0.765625)" xlink:href="#DejaVuSans-2212"/>
       <use transform="translate(83.789062 0.765625)" xlink:href="#DejaVuSans-31"/>
       <use transform="translate(147.412109 0.765625)" xlink:href="#DejaVuSans-2e"/>
       <use transform="translate(179.199219 0.765625)" xlink:href="#DejaVuSans-30"/>
       <use transform="translate(242.822266 0.765625)" xlink:href="#DejaVuSans-30"/>
       <use transform="translate(306.445312 0.765625)" xlink:href="#DejaVuSans-d7"/>
       <use transform="translate(390.234375 0.765625)" xlink:href="#DejaVuSans-31"/>
       <use transform="translate(453.857422 0.765625)" xlink:href="#DejaVuSans-30"/>
       <use transform="translate(518.4375 39.046875)scale(0.7)" xlink:href="#DejaVuSans-36"/>
      </g>
     </g>
    </g>
    <g id="ytick_3">
     <g id="line2d_9">
      <g>
       <use style="stroke:#000000;stroke-width:0.5;" x="71.231488" xlink:href="#medcd9ba4f6" y="166.78358"/>
      </g>
     </g>
     <g id="text_9">
      <!-- $-5.00×10^{5}$ -->
      <g transform="translate(22.451488 169.822955)scale(0.08 -0.08)">
       <use transform="translate(0 0.684375)" xlink:href="#DejaVuSans-2212"/>
       <use transform="translate(83.789062 0.684375)" xlink:href="#DejaVuSans-35"/>
       <use transform="translate(147.412109 0.684375)" xlink:href="#DejaVuSans-2e"/>
       <use transform="translate(179.199219 0.684375)" xlink:href="#DejaVuSans-30"/>
       <use transform="translate(242.822266 0.684375)" xlink:href="#DejaVuSans-30"/>
       <use transform="translate(306.445312 0.684375)" xlink:href="#DejaVuSans-d7"/>
       <use transform="translate(390.234375 0.684375)" xlink:href="#DejaVuSans-31"/>
       <use transform="translate(453.857422 0.684375)" xlink:href="#DejaVuSans-30"/>
       <use transform="translate(518.4375 38.965625)scale(0.7)" xlink:href="#DejaVuSans-35"/>
      </g>
     </g>
    </g>
    <g id="ytick_4">
     <g id="line2d_10">
      <g>
       <use style="stroke:#000000;stroke-width:0.5;" x="71.231488" xlink:href="#medcd9ba4f6" y="129.702202"/>
      </g>
     </g>
     <g id="text_10">
      <!-- $0$ -->
      <g transform="translate(62.611488 132.741577)scale(0.08 -0.08)">
       <use transform="translate(0 0.78125)" xlink:href="#DejaVuSans-30"/>
      </g>
     </g>
    </g>
    <g id="ytick_5">
     <g id="line2d_11">
      <g>
       <use style="stroke:#000000;stroke-width:0.5;" x="71.231488" xlink:href="#medcd9ba4f6" y="92.620823"/>
      </g>
     </g>
     <g id="text_11">
      <!-- $5.00×10^{5}$ -->
      <g transform="translate(29.171488 95.660198)scale(0.08 -0.08)">
       <use transform="translate(0 0.684375)" xlink:href="#DejaVuSans-35"/>
       <use transform="translate(63.623047 0.684375)" xlink:href="#DejaVuSans-2e"/>
       <use transform="translate(95.410156 0.684375)" xlink:href="#DejaVuSans-30"/>
       <use transform="translate(159.033203 0.684375)" xlink:href="#DejaVuSans-30"/>
       <use transform="translate(222.65625 0.684375)" xlink:href="#DejaVuSans-d7"/>
       <use transform="translate(306.445312 0.684375)" xlink:href="#DejaVuSans-31"/>
       <use transform="translate(370.068359 0.684375)" xlink:href="#DejaVuSans-30"/>
       <use transform="translate(434.648438 38.965625)scale(0.7)" xlink:href="#DejaVuSans-35"/>
      </g>
     </g>
    </g>
    <g id="ytick_6">
     <g id="line2d_12">
      <g>
       <use style="stroke:#000000;stroke-width:0.5;" x="71.231488" xlink:href="#medcd9ba4f6" y="55.539445"/>
      </g>
     </g>
     <g id="text_12">
      <!-- $1.00×10^{6}$ -->
      <g transform="translate(29.171488 58.57882)scale(0.08 -0.08)">
       <use transform="translate(0 0.765625)" xlink:href="#DejaVuSans-31"/>
       <use transform="translate(63.623047 0.765625)" xlink:href="#DejaVuSans-2e"/>
       <use transform="translate(95.410156 0.765625)" xlink:href="#DejaVuSans-30"/>
       <use transform="translate(159.033203 0.765625)" xlink:href="#DejaVuSans-30"/>
       <use transform="translate(222.65625 0.765625)" xlink:href="#DejaVuSans-d7"/>
       <use transform="translate(306.445312 0.765625)" xlink:href="#DejaVuSans-31"/>
       <use transform="translate(370.068359 0.765625)" xlink:href="#DejaVuSans-30"/>
       <use transform="translate(434.648438 39.046875)scale(0.7)" xlink:href="#DejaVuSans-36"/>
      </g>
     </g>
    </g>
    <g id="ytick_7">
     <g id="line2d_13">
      <g>
       <use style="stroke:#000000;stroke-width:0.5;" x="71.231488" xlink:href="#medcd9ba4f6" y="18.458067"/>
      </g>
     </g>
     <g id="text_13">
      <!-- $1.50×10^{6}$ -->
      <g transform="translate(29.171488 21.497442)scale(0.08 -0.08)">
       <use transform="translate(0 0.765625)" xlink:href="#DejaVuSans-31"/>
       <use transform="translate(63.623047 0.765625)" xlink:href="#DejaVuSans-2e"/>
       <use transform="translate(95.410156 0.765625)" xlink:href="#DejaVuSans-35"/>
       <use transform="translate(159.033203 0.765625)" xlink:href="#DejaVuSans-30"/>
       <use transform="translate(222.65625 0.765625)" xlink:href="#DejaVuSans-d7"/>
       <use transform="translate(306.445312 0.765625)" xlink:href="#DejaVuSans-31"/>
       <use transform="translate(370.068359 0.765625)" xlink:href="#DejaVuSans-30"/>
       <use transform="translate(434.648438 39.046875)scale(0.7)" xlink:href="#DejaVuSans-36"/>
      </g>
     </g>
    </g>
    <g id="text_14">
     <!-- $M_y$ ($Nm$) -->
     <g transform="translate(15.041488 153.245)rotate(-90)scale(0.11 -0.11)">
      <defs>
       <path d="M 1081 4666 
L 2028 4666 
L 2572 1522 
L 4378 4666 
L 5350 4666 
L 4441 0 
L 3828 0 
L 4622 4091 
L 2791 897 
L 2175 897 
L 1581 4103 
L 788 0 
L 172 0 
L 1081 4666 
z
" id="DejaVuSans-Oblique-4d" transform="scale(0.015625)"/>
       <path d="M 1588 -325 
Q 1188 -997 936 -1164 
Q 684 -1331 294 -1331 
L -159 -1331 
L -63 -850 
L 269 -850 
Q 509 -850 678 -719 
Q 847 -588 1056 -206 
L 1234 128 
L 459 3500 
L 1069 3500 
L 1650 819 
L 3256 3500 
L 3859 3500 
L 1588 -325 
z
" id="DejaVuSans-Oblique-79" transform="scale(0.015625)"/>
       <path d="M 1081 4666 
L 1931 4666 
L 3219 666 
L 4000 4666 
L 4616 4666 
L 3706 0 
L 2853 0 
L 1569 4025 
L 788 0 
L 172 0 
L 1081 4666 
z
" id="DejaVuSans-Oblique-4e" transform="scale(0.015625)"/>
       <path d="M 5747 2113 
L 5338 0 
L 4763 0 
L 5166 2094 
Q 5191 2228 5203 2325 
Q 5216 2422 5216 2491 
Q 5216 2772 5059 2928 
Q 4903 3084 4622 3084 
Q 4203 3084 3875 2770 
Q 3547 2456 3450 1953 
L 3066 0 
L 2491 0 
L 2900 2094 
Q 2925 2209 2937 2307 
Q 2950 2406 2950 2484 
Q 2950 2769 2794 2926 
Q 2638 3084 2363 3084 
Q 1938 3084 1609 2770 
Q 1281 2456 1184 1953 
L 800 0 
L 225 0 
L 909 3500 
L 1484 3500 
L 1375 2956 
Q 1609 3263 1923 3423 
Q 2238 3584 2597 3584 
Q 2978 3584 3223 3384 
Q 3469 3184 3519 2828 
Q 3781 3197 4126 3390 
Q 4472 3584 4856 3584 
Q 5306 3584 5551 3325 
Q 5797 3066 5797 2591 
Q 5797 2488 5784 2364 
Q 5772 2241 5747 2113 
z
" id="DejaVuSans-Oblique-6d" transform="scale(0.015625)"/>
      </defs>
      <use transform="translate(0 0.125)" xlink:href="#DejaVuSans-Oblique-4d"/>
      <use transform="translate(86.279297 -16.28125)scale(0.7)" xlink:href="#DejaVuSans-Oblique-79"/>
      <use transform="translate(130.439453 0.125)" xlink:href="#DejaVuSans-20"/>
      <use transform="translate(162.226562 0.125)" xlink:href="#DejaVuSans-28"/>
      <use transform="translate(201.240234 0.125)" xlink:href="#DejaVuSans-Oblique-4e"/>
      <use transform="translate(276.044922 0.125)" xlink:href="#DejaVuSans-Oblique-6d"/>
      <use transform="translate(373.457031 0.125)" xlink:href="#DejaVuSans-29"/>
     </g>
    </g>
   </g>
   <g id="line2d_14">
    <path clip-path="url(#p057112a71c)" d="M 71.231488 129.702202 
L 72.77596 129.809668 
L 73.840187 129.891383 
L 74.693309 129.546748 
L 75.791445 128.999145 
L 76.353506 128.994579 
L 76.966355 129.280291 
L 79.371516 130.65439 
L 81.258323 131.76804 
L 81.734944 131.608409 
L 82.307126 131.196686 
L 86.920945 126.62039 
L 87.411241 126.456405 
L 89.382002 126.214556 
L 90.305332 125.950001 
L 90.756439 125.947298 
L 91.297176 126.197244 
L 92.017778 126.772399 
L 93.328737 128.194562 
L 94.128203 129.45664 
L 94.860808 131.14645 
L 96.968098 136.223522 
L 97.901599 137.592946 
L 98.847064 138.745153 
L 99.499527 139.383932 
L 100.168167 139.672759 
L 100.814747 139.684396 
L 101.808569 139.607067 
L 102.530842 139.704142 
L 103.073877 139.821191 
L 103.797924 139.713821 
L 104.354896 139.305967 
L 105.143311 138.423368 
L 106.830118 135.984489 
L 107.48512 134.738377 
L 109.878631 129.413326 
L 111.433044 126.548705 
L 112.511268 123.826864 
L 114.133114 119.150154 
L 115.218197 115.181777 
L 116.873428 108.50089 
L 118.004625 105.130452 
L 119.418621 101.920592 
L 120.267018 100.610499 
L 120.843365 100.155654 
L 121.419712 99.938865 
L 123.21788 99.844155 
L 123.844681 100.082848 
L 124.484989 100.86371 
L 125.125297 102.086506 
L 126.338511 105.240742 
L 127.699882 109.595877 
L 130.453296 119.582518 
L 132.094501 124.363749 
L 134.586063 132.858614 
L 135.540788 136.973354 
L 142.137775 169.266361 
L 143.735874 175.749209 
L 144.534923 178.17416 
L 145.067623 179.274695 
L 145.600322 179.983528 
L 146.133022 180.402678 
L 146.825076 180.676531 
L 147.290884 180.715598 
L 147.989597 180.496733 
L 148.688309 179.967388 
L 149.620259 179.170684 
L 150.08629 178.96012 
L 150.555726 178.966749 
L 151.266674 179.311703 
L 152.501037 180.01135 
L 154.525742 180.507316 
L 154.903799 180.550039 
L 155.600621 180.308931 
L 156.12943 179.874372 
L 158.841632 176.507067 
L 159.616255 175.282222 
L 160.16059 174.021755 
L 160.977091 171.566845 
L 161.793593 168.418201 
L 162.610094 164.437491 
L 163.3449 159.804002 
L 164.490904 150.651421 
L 170.279263 100.573431 
L 172.52176 83.640468 
L 173.500466 77.972826 
L 174.488769 73.537537 
L 175.549206 69.927849 
L 176.118994 68.584483 
L 176.98126 67.242383 
L 178.157266 65.707077 
L 179.050889 63.976075 
L 180.435532 61.103728 
L 181.374099 59.671009 
L 182.20588 58.693725 
L 182.752469 58.383275 
L 183.193112 58.355042 
L 183.499202 58.516685 
L 183.990318 59.119518 
L 184.635755 60.336756 
L 187.005201 65.396 
L 188.331636 68.057699 
L 189.466287 70.766186 
L 190.224045 73.052537 
L 190.981804 76.205749 
L 191.739562 80.556607 
L 192.8762 88.965636 
L 199.405697 140.824586 
L 200.631394 149.537739 
L 201.474935 154.189696 
L 202.31973 157.681694 
L 203.166228 160.287455 
L 204.013293 162.155248 
L 205.495657 165.081411 
L 206.130956 167.106536 
L 206.766255 169.883809 
L 209.123138 181.452026 
L 209.80795 183.51379 
L 210.27656 184.458747 
L 210.777816 185.087171 
L 211.028444 185.228669 
L 211.279072 185.239964 
L 211.529699 185.119119 
L 212.030955 184.45772 
L 212.47532 183.398257 
L 213.090873 181.289475 
L 214.998894 174.097948 
L 215.519192 173.125593 
L 215.987788 172.692035 
L 216.376003 172.589713 
L 216.814851 172.714223 
L 218.370821 173.392425 
L 218.70295 173.301509 
L 219.073838 172.9575 
L 219.447811 172.223039 
L 219.854443 170.939955 
L 220.300106 168.816288 
L 220.857752 164.953361 
L 221.645997 157.56704 
L 226.309557 108.549896 
L 227.421511 97.52714 
L 228.311243 86.294812 
L 229.746349 64.1801 
L 230.866312 48.109309 
L 231.580737 40.158558 
L 232.17812 35.312638 
L 232.58583 33.156709 
L 232.996795 31.943321 
L 233.202277 31.700778 
L 233.40776 31.706974 
L 233.613242 31.965566 
L 234.026949 33.208568 
L 234.656419 36.485201 
L 237.041463 51.153845 
L 237.91805 54.3634 
L 239.163003 58.237157 
L 239.745678 59.311208 
L 240.110819 59.597677 
L 240.489164 59.568087 
L 241.123418 59.106299 
L 241.706308 58.781175 
L 242.03973 58.790678 
L 242.567919 59.132078 
L 243.352637 60.078465 
L 244.855796 61.876131 
L 245.292201 62.894593 
L 245.74229 64.482419 
L 247.324241 71.026609 
L 247.776985 71.606995 
L 248.003358 71.597929 
L 248.456102 71.161181 
L 248.908847 70.639316 
L 249.136907 70.559269 
L 249.364968 70.693476 
L 249.593028 71.084046 
L 250.049149 72.737842 
L 250.593203 76.259568 
L 251.236445 82.209445 
L 252.049819 92.140317 
L 252.849608 105.371219 
L 253.770391 125.015446 
L 255.20176 155.448309 
L 255.920169 166.261536 
L 256.708436 174.781316 
L 257.518288 181.324728 
L 258.094326 184.666004 
L 258.538726 186.345277 
L 259.001809 187.24842 
L 259.46581 187.558317 
L 260.084477 187.890329 
L 260.515696 188.57615 
L 260.932594 189.746395 
L 262.270393 193.967225 
L 262.508195 194.135972 
L 262.720651 194.037274 
L 263.007561 193.550593 
L 263.470517 192.132406 
L 264.497747 188.643597 
L 264.835171 188.095186 
L 265.076501 187.967797 
L 265.331539 188.050506 
L 265.719886 188.499969 
L 266.311921 189.65055 
L 267.318388 192.16458 
L 267.896487 194.355261 
L 268.523666 197.914663 
L 269.985069 207.110322 
L 270.297154 207.871906 
L 270.441443 207.967839 
L 270.601983 207.880514 
L 270.928843 207.128875 
L 271.427806 204.822916 
L 272.524424 198.88509 
L 273.008174 197.593406 
L 273.391262 197.23291 
L 273.753319 197.191258 
L 274.318492 197.169683 
L 274.648083 196.93767 
L 274.981607 196.441336 
L 275.714591 194.715921 
L 276.463391 193.165309 
L 277.031183 192.548477 
L 277.977503 191.980195 
L 278.356032 191.294936 
L 278.73456 190.058171 
L 279.113088 188.093071 
L 279.68088 183.502859 
L 280.437936 174.622551 
L 281.952735 152.933885 
L 283.52249 131.646397 
L 284.334289 123.45187 
L 285.874131 109.363055 
L 286.601301 99.574884 
L 287.960722 76.852395 
L 289.960332 44.600956 
L 290.608891 36.92061 
L 291.027373 33.989001 
L 291.371491 33.031925 
L 291.486197 33.006196 
L 291.726431 33.391591 
L 292.088431 34.977498 
L 292.658332 39.138619 
L 294.279236 52.0462 
L 295.043083 56.171435 
L 295.481319 57.727458 
L 295.781943 58.335312 
L 295.934945 58.461426 
L 296.087948 58.440258 
L 296.356067 57.99185 
L 296.718921 56.451082 
L 297.136874 53.333472 
L 297.707539 47.08358 
L 299.452417 26.179588 
L 299.928291 22.982174 
L 300.33221 21.465115 
L 300.599627 21.104154 
L 300.791616 21.147281 
L 301.066303 21.633982 
L 301.373272 22.772003 
L 301.78153 25.250828 
L 302.303743 30.078981 
L 302.989365 38.797298 
L 304.376558 57.092843 
L 304.866691 60.822626 
L 305.125103 61.793965 
L 305.264593 62.007959 
L 305.404083 61.996548 
L 305.543573 61.76744 
L 305.824226 60.674799 
L 306.209606 58.028016 
L 306.825104 51.96146 
L 308.861466 29.28933 
L 309.078268 28.527532 
L 309.188025 28.458203 
L 309.297782 28.625191 
L 309.517296 29.735603 
L 309.846816 33.456379 
L 310.298166 42.442493 
L 310.911318 60.460639 
L 313.602111 149.171003 
L 314.224387 161.477299 
L 314.691095 167.743827 
L 315.157802 171.417167 
L 315.468941 172.526535 
L 315.62451 172.732161 
L 315.780079 172.741054 
L 316.092071 172.365968 
L 316.561118 171.712583 
L 316.718173 171.747144 
L 316.875227 172.025338 
L 317.190757 173.571814 
L 317.509669 176.736901 
L 317.998369 184.601262 
L 319.049438 207.573752 
L 319.75915 221.328547 
L 320.301102 228.63631 
L 320.854226 233.228267 
L 321.412056 236.117285 
L 321.790808 237.456405 
L 321.982832 237.863101 
L 322.174856 237.995408 
L 322.34552 237.793449 
L 322.665768 236.348303 
L 322.964937 233.401392 
L 323.413689 225.664202 
L 324.018551 209.461284 
L 325.004568 182.454194 
L 325.3573 177.468202 
L 325.637941 175.959234 
L 325.741813 175.9544 
L 325.931673 176.6359 
L 326.268331 179.783517 
L 326.843148 188.825174 
L 328.474138 216.205743 
L 330.476237 244.701126 
L 331.000091 249.082773 
L 331.298092 250.367777 
L 331.484236 250.646594 
L 331.670379 250.443728 
L 331.856523 249.69767 
L 332.16637 247.153526 
L 332.510483 242.358896 
L 333.125574 230.120492 
L 333.970869 213.519052 
L 334.490194 207.356767 
L 334.794159 205.713778 
L 334.963035 205.399976 
L 335.147776 205.493526 
L 335.438667 206.223057 
L 335.960854 207.678328 
L 336.191451 207.875824 
L 336.42399 207.700648 
L 336.780646 206.871751 
L 337.381498 205.323864 
L 337.504533 205.284483 
L 337.627569 205.430406 
L 337.875795 206.375843 
L 338.251367 209.431017 
L 338.877321 217.232495 
L 339.753657 227.892783 
L 340.158841 230.867797 
L 340.564024 232.515168 
L 340.839901 232.985601 
L 340.980717 232.996128 
L 341.121534 232.834489 
L 341.403166 231.946577 
L 341.792314 229.487831 
L 342.250477 224.728642 
L 342.8133 215.807744 
L 344.606812 183.467968 
L 345.048331 179.643211 
L 345.917767 173.062117 
L 346.41448 166.94386 
L 347.073072 155.717828 
L 348.588798 127.593741 
L 349.714101 116.241393 
L 350.182124 106.798233 
L 351.151966 80.234043 
L 352.096179 56.706951 
L 352.637218 49.245347 
L 353.305989 43.791606 
L 353.769999 39.362283 
L 354.230079 32.161209 
L 355.288275 12.135497 
L 355.562439 10.164039 
L 355.699521 10.062685 
L 355.919783 11.197956 
L 356.222925 15.202858 
L 356.875937 29.165677 
L 357.290222 36.325286 
L 357.543002 38.289704 
L 357.635529 38.469559 
L 357.728055 38.352848 
L 357.922477 37.19722 
L 358.254511 32.778701 
L 359.383207 13.857498 
L 359.556326 13.264779 
L 359.649887 13.388137 
L 359.837009 14.574025 
L 360.179896 19.704511 
L 361.516102 44.816343 
L 361.607138 45.045472 
L 361.698174 44.963764 
L 361.894869 43.737608 
L 362.21185 39.086432 
L 363.094428 22.954838 
L 363.320428 22.075582 
L 363.438693 22.541106 
L 363.675222 25.404747 
L 364.03239 33.823441 
L 364.909691 57.469175 
L 365.165832 60.287595 
L 365.293902 60.630548 
L 365.421972 60.271342 
L 365.692066 57.389865 
L 366.105693 48.5116 
L 367.02548 24.23625 
L 367.191745 22.215197 
L 367.35801 21.754191 
L 367.507611 22.788605 
L 367.830409 29.384962 
L 368.369771 48.120824 
L 368.975438 66.605348 
L 369.299134 71.215576 
L 369.389851 71.600273 
L 369.480568 71.551585 
L 369.673371 70.053678 
L 369.980772 64.25596 
L 370.801256 45.40329 
L 371.051767 43.808429 
L 371.178536 44.165506 
L 371.447376 47.499845 
L 371.850636 57.645572 
L 372.591838 76.734096 
L 372.933247 79.955393 
L 373.056514 79.985395 
L 373.179781 79.417059 
L 373.413264 76.764156 
L 373.85413 67.828414 
L 374.308899 59.055401 
L 374.558304 56.974811 
L 374.685048 57.014198 
L 374.813746 57.919057 
L 375.071141 62.537463 
L 375.436685 75.193897 
L 376.785063 131.915947 
L 377.140692 136.936067 
L 377.382966 137.836185 
L 377.483126 137.827556 
L 377.850769 137.305972 
L 377.977969 137.407199 
L 378.107236 137.913465 
L 378.371567 140.670656 
L 378.761525 149.524984 
L 379.383431 172.282528 
L 380.102826 197.948813 
L 380.385989 202.690005 
L 380.540983 203.549652 
L 380.621179 203.529118 
L 380.794228 202.408444 
L 381.071565 198.037995 
L 382.199959 174.90892 
L 382.332094 174.178285 
L 382.46423 174.107701 
L 382.598425 174.722269 
L 382.868582 178.048772 
L 383.462655 191.438615 
L 383.913002 198.979666 
L 384.143844 199.802817 
L 384.250483 199.413829 
L 384.470514 197.234085 
L 384.926713 188.572551 
L 385.498054 177.710464 
L 385.840859 174.737443 
L 385.955127 174.465121 
L 386.069396 174.579268 
L 386.297932 175.893882 
L 386.574451 179.553326 
L 386.993597 189.483883 
L 387.79598 211.482089 
L 388.005227 213.822114 
L 388.113401 214.126138 
L 388.221575 213.822949 
L 388.407718 212.064041 
L 389.640842 196.114581 
L 389.966731 194.71781 
L 390.130177 194.706796 
L 390.293623 195.465388 
L 390.547923 198.379574 
L 390.986356 207.303342 
L 391.471796 215.91554 
L 391.708826 217.042917 
L 391.830892 216.70536 
L 392.024768 215.047072 
L 392.435482 208.977931 
L 393.669877 188.920168 
L 393.881697 187.553419 
L 393.987607 187.433819 
L 394.17018 188.244619 
L 394.444039 191.548117 
L 394.967264 202.331389 
L 395.683474 216.515118 
L 396.052764 219.754104 
L 396.192079 220.021389 
L 396.310302 219.775028 
L 396.52085 218.481509 
L 397.44828 210.562545 
L 397.57992 210.897396 
L 397.7973 212.590246 
L 398.104473 217.277592 
L 398.631478 229.716302 
L 399.118288 240.277243 
L 399.412218 242.769811 
L 399.510195 242.779161 
L 399.675514 241.899007 
L 399.91009 238.921818 
L 400.330605 229.383751 
L 401.571953 195.964177 
L 401.866343 193.472218 
L 402.073256 192.916068 
L 402.28356 192.941524 
L 402.608185 193.036111 
L 402.831876 192.576672 
L 403.055567 191.238729 
L 403.279259 188.564715 
L 403.624754 180.692439 
L 404.19495 159.124462 
L 404.717601 140.806722 
L 405.06392 134.362118 
L 405.179359 133.596737 
L 405.294799 133.585559 
L 405.525678 135.876344 
L 405.987436 146.280204 
L 406.685844 160.976663 
L 406.918646 163.037272 
L 407.035047 163.00509 
L 407.26785 160.542007 
L 407.624614 151.959548 
L 409.017641 113.063116 
L 409.609685 108.328076 
L 410.239054 102.295311 
L 410.588884 95.506086 
L 411.194208 75.572259 
L 412.217577 42.089877 
L 412.557024 37.802556 
L 412.636346 37.600601 
L 412.705453 37.669016 
L 412.843666 38.378422 
L 413.13427 41.673006 
L 414.262066 56.725407 
L 414.567795 58.319957 
L 414.65127 58.371617 
L 414.81822 57.882114 
L 415.111596 55.195807 
L 415.650061 49.509688 
L 415.843736 49.258335 
L 416.018706 50.055082 
L 416.301764 53.231628 
L 416.713243 61.204437 
L 417.939996 89.229654 
L 418.162291 89.887775 
L 418.275793 89.440759 
L 418.502799 86.812307 
L 418.843307 78.383642 
L 419.43776 54.601766 
L 420.062652 31.349335 
L 420.365474 26.34642 
L 420.526574 25.715975 
L 420.626703 25.889026 
L 420.843649 27.066428 
L 421.318782 29.619411 
L 421.757581 31.518304 
L 422.15317 33.468995 
L 422.314037 33.610217 
L 422.361999 33.531538 
L 422.361999 33.531538 
" style="fill:none;stroke:#e36f47;"/>
   </g>
   <g id="patch_3">
    <path d="M 71.231488 258.225354 
L 71.231488 2.834646 
" style="fill:none;stroke:#000000;stroke-linecap:square;stroke-linejoin:miter;"/>
   </g>
   <g id="patch_4">
    <path d="M 71.231488 258.225354 
L 422.361999 258.225354 
" style="fill:none;stroke:#000000;stroke-linecap:square;stroke-linejoin:miter;"/>
   </g>
   <g id="legend_1">
    <g id="patch_5">
     <path d="M 299.041999 39.119646 
L 418.361999 39.119646 
L 418.361999 6.834646 
L 299.041999 6.834646 
z
" style="fill:#ffffff;stroke:#000000;stroke-linejoin:miter;"/>
    </g>
    <g id="line2d_15">
     <path d="M 305.441999 16.513396 
L 321.441999 16.513396 
" style="fill:none;stroke:#009afa;stroke-linejoin:miter;"/>
    </g>
    <g id="line2d_16"/>
    <g id="text_15">
     <!-- GXBeam -->
     <g transform="translate(327.841999 19.313396)scale(0.08 -0.08)">
      <defs>
       <path d="M 3809 666 
L 3809 1919 
L 2778 1919 
L 2778 2438 
L 4434 2438 
L 4434 434 
Q 4069 175 3628 42 
Q 3188 -91 2688 -91 
Q 1594 -91 976 548 
Q 359 1188 359 2328 
Q 359 3472 976 4111 
Q 1594 4750 2688 4750 
Q 3144 4750 3555 4637 
Q 3966 4525 4313 4306 
L 4313 3634 
Q 3963 3931 3569 4081 
Q 3175 4231 2741 4231 
Q 1884 4231 1454 3753 
Q 1025 3275 1025 2328 
Q 1025 1384 1454 906 
Q 1884 428 2741 428 
Q 3075 428 3337 486 
Q 3600 544 3809 666 
z
" id="DejaVuSans-47" transform="scale(0.015625)"/>
       <path d="M 403 4666 
L 1081 4666 
L 2241 2931 
L 3406 4666 
L 4084 4666 
L 2584 2425 
L 4184 0 
L 3506 0 
L 2194 1984 
L 872 0 
L 191 0 
L 1856 2491 
L 403 4666 
z
" id="DejaVuSans-58" transform="scale(0.015625)"/>
       <path d="M 1259 2228 
L 1259 519 
L 2272 519 
Q 2781 519 3026 730 
Q 3272 941 3272 1375 
Q 3272 1813 3026 2020 
Q 2781 2228 2272 2228 
L 1259 2228 
z
M 1259 4147 
L 1259 2741 
L 2194 2741 
Q 2656 2741 2882 2914 
Q 3109 3088 3109 3444 
Q 3109 3797 2882 3972 
Q 2656 4147 2194 4147 
L 1259 4147 
z
M 628 4666 
L 2241 4666 
Q 2963 4666 3353 4366 
Q 3744 4066 3744 3513 
Q 3744 3084 3544 2831 
Q 3344 2578 2956 2516 
Q 3422 2416 3680 2098 
Q 3938 1781 3938 1306 
Q 3938 681 3513 340 
Q 3088 0 2303 0 
L 628 0 
L 628 4666 
z
" id="DejaVuSans-42" transform="scale(0.015625)"/>
       <path d="M 2194 1759 
Q 1497 1759 1228 1600 
Q 959 1441 959 1056 
Q 959 750 1161 570 
Q 1363 391 1709 391 
Q 2188 391 2477 730 
Q 2766 1069 2766 1631 
L 2766 1759 
L 2194 1759 
z
M 3341 1997 
L 3341 0 
L 2766 0 
L 2766 531 
Q 2569 213 2275 61 
Q 1981 -91 1556 -91 
Q 1019 -91 701 211 
Q 384 513 384 1019 
Q 384 1609 779 1909 
Q 1175 2209 1959 2209 
L 2766 2209 
L 2766 2266 
Q 2766 2663 2505 2880 
Q 2244 3097 1772 3097 
Q 1472 3097 1187 3025 
Q 903 2953 641 2809 
L 641 3341 
Q 956 3463 1253 3523 
Q 1550 3584 1831 3584 
Q 2591 3584 2966 3190 
Q 3341 2797 3341 1997 
z
" id="DejaVuSans-61" transform="scale(0.015625)"/>
      </defs>
      <use xlink:href="#DejaVuSans-47"/>
      <use x="77.490234" xlink:href="#DejaVuSans-58"/>
      <use x="145.996094" xlink:href="#DejaVuSans-42"/>
      <use x="214.599609" xlink:href="#DejaVuSans-65"/>
      <use x="276.123047" xlink:href="#DejaVuSans-61"/>
      <use x="337.402344" xlink:href="#DejaVuSans-6d"/>
     </g>
    </g>
    <g id="line2d_17">
     <path d="M 305.441999 28.255896 
L 321.441999 28.255896 
" style="fill:none;stroke:#e36f47;stroke-linejoin:miter;"/>
    </g>
    <g id="line2d_18"/>
    <g id="text_16">
     <!-- DifferentialEquations -->
     <g transform="translate(327.841999 31.055896)scale(0.08 -0.08)">
      <defs>
       <path d="M 1259 4147 
L 1259 519 
L 2022 519 
Q 2988 519 3436 956 
Q 3884 1394 3884 2338 
Q 3884 3275 3436 3711 
Q 2988 4147 2022 4147 
L 1259 4147 
z
M 628 4666 
L 1925 4666 
Q 3281 4666 3915 4102 
Q 4550 3538 4550 2338 
Q 4550 1131 3912 565 
Q 3275 0 1925 0 
L 628 0 
L 628 4666 
z
" id="DejaVuSans-44" transform="scale(0.015625)"/>
       <path d="M 2375 4863 
L 2375 4384 
L 1825 4384 
Q 1516 4384 1395 4259 
Q 1275 4134 1275 3809 
L 1275 3500 
L 2222 3500 
L 2222 3053 
L 1275 3053 
L 1275 0 
L 697 0 
L 697 3053 
L 147 3053 
L 147 3500 
L 697 3500 
L 697 3744 
Q 697 4328 969 4595 
Q 1241 4863 1831 4863 
L 2375 4863 
z
" id="DejaVuSans-66" transform="scale(0.015625)"/>
       <path d="M 2631 2963 
Q 2534 3019 2420 3045 
Q 2306 3072 2169 3072 
Q 1681 3072 1420 2755 
Q 1159 2438 1159 1844 
L 1159 0 
L 581 0 
L 581 3500 
L 1159 3500 
L 1159 2956 
Q 1341 3275 1631 3429 
Q 1922 3584 2338 3584 
Q 2397 3584 2469 3576 
Q 2541 3569 2628 3553 
L 2631 2963 
z
" id="DejaVuSans-72" transform="scale(0.015625)"/>
       <path d="M 3513 2113 
L 3513 0 
L 2938 0 
L 2938 2094 
Q 2938 2591 2744 2837 
Q 2550 3084 2163 3084 
Q 1697 3084 1428 2787 
Q 1159 2491 1159 1978 
L 1159 0 
L 581 0 
L 581 3500 
L 1159 3500 
L 1159 2956 
Q 1366 3272 1645 3428 
Q 1925 3584 2291 3584 
Q 2894 3584 3203 3211 
Q 3513 2838 3513 2113 
z
" id="DejaVuSans-6e" transform="scale(0.015625)"/>
       <path d="M 1172 4494 
L 1172 3500 
L 2356 3500 
L 2356 3053 
L 1172 3053 
L 1172 1153 
Q 1172 725 1289 603 
Q 1406 481 1766 481 
L 2356 481 
L 2356 0 
L 1766 0 
Q 1100 0 847 248 
Q 594 497 594 1153 
L 594 3053 
L 172 3053 
L 172 3500 
L 594 3500 
L 594 4494 
L 1172 4494 
z
" id="DejaVuSans-74" transform="scale(0.015625)"/>
       <path d="M 603 4863 
L 1178 4863 
L 1178 0 
L 603 0 
L 603 4863 
z
" id="DejaVuSans-6c" transform="scale(0.015625)"/>
       <path d="M 628 4666 
L 3578 4666 
L 3578 4134 
L 1259 4134 
L 1259 2753 
L 3481 2753 
L 3481 2222 
L 1259 2222 
L 1259 531 
L 3634 531 
L 3634 0 
L 628 0 
L 628 4666 
z
" id="DejaVuSans-45" transform="scale(0.015625)"/>
       <path d="M 947 1747 
Q 947 1113 1208 752 
Q 1469 391 1925 391 
Q 2381 391 2643 752 
Q 2906 1113 2906 1747 
Q 2906 2381 2643 2742 
Q 2381 3103 1925 3103 
Q 1469 3103 1208 2742 
Q 947 2381 947 1747 
z
M 2906 525 
Q 2725 213 2448 61 
Q 2172 -91 1784 -91 
Q 1150 -91 751 415 
Q 353 922 353 1747 
Q 353 2572 751 3078 
Q 1150 3584 1784 3584 
Q 2172 3584 2448 3432 
Q 2725 3281 2906 2969 
L 2906 3500 
L 3481 3500 
L 3481 -1331 
L 2906 -1331 
L 2906 525 
z
" id="DejaVuSans-71" transform="scale(0.015625)"/>
       <path d="M 544 1381 
L 544 3500 
L 1119 3500 
L 1119 1403 
Q 1119 906 1312 657 
Q 1506 409 1894 409 
Q 2359 409 2629 706 
Q 2900 1003 2900 1516 
L 2900 3500 
L 3475 3500 
L 3475 0 
L 2900 0 
L 2900 538 
Q 2691 219 2414 64 
Q 2138 -91 1772 -91 
Q 1169 -91 856 284 
Q 544 659 544 1381 
z
M 1991 3584 
L 1991 3584 
z
" id="DejaVuSans-75" transform="scale(0.015625)"/>
       <path d="M 1959 3097 
Q 1497 3097 1228 2736 
Q 959 2375 959 1747 
Q 959 1119 1226 758 
Q 1494 397 1959 397 
Q 2419 397 2687 759 
Q 2956 1122 2956 1747 
Q 2956 2369 2687 2733 
Q 2419 3097 1959 3097 
z
M 1959 3584 
Q 2709 3584 3137 3096 
Q 3566 2609 3566 1747 
Q 3566 888 3137 398 
Q 2709 -91 1959 -91 
Q 1206 -91 779 398 
Q 353 888 353 1747 
Q 353 2609 779 3096 
Q 1206 3584 1959 3584 
z
" id="DejaVuSans-6f" transform="scale(0.015625)"/>
      </defs>
      <use xlink:href="#DejaVuSans-44"/>
      <use x="77.001953" xlink:href="#DejaVuSans-69"/>
      <use x="104.785156" xlink:href="#DejaVuSans-66"/>
      <use x="139.990234" xlink:href="#DejaVuSans-66"/>
      <use x="175.195312" xlink:href="#DejaVuSans-65"/>
      <use x="236.71875" xlink:href="#DejaVuSans-72"/>
      <use x="275.582031" xlink:href="#DejaVuSans-65"/>
      <use x="337.105469" xlink:href="#DejaVuSans-6e"/>
      <use x="400.484375" xlink:href="#DejaVuSans-74"/>
      <use x="439.693359" xlink:href="#DejaVuSans-69"/>
      <use x="467.476562" xlink:href="#DejaVuSans-61"/>
      <use x="528.755859" xlink:href="#DejaVuSans-6c"/>
      <use x="556.539062" xlink:href="#DejaVuSans-45"/>
      <use x="619.722656" xlink:href="#DejaVuSans-71"/>
      <use x="683.199219" xlink:href="#DejaVuSans-75"/>
      <use x="746.578125" xlink:href="#DejaVuSans-61"/>
      <use x="807.857422" xlink:href="#DejaVuSans-74"/>
      <use x="847.066406" xlink:href="#DejaVuSans-69"/>
      <use x="874.849609" xlink:href="#DejaVuSans-6f"/>
      <use x="936.03125" xlink:href="#DejaVuSans-6e"/>
      <use x="999.410156" xlink:href="#DejaVuSans-73"/>
     </g>
    </g>
   </g>
  </g>
 </g>
 <defs>
  <clipPath id="p057112a71c">
   <rect height="255.390709" width="351.130512" x="71.231488" y="2.834646"/>
  </clipPath>
 </defs>
</svg>
