<?xml version="1.0" encoding="utf-8" standalone="no"?>
<!DOCTYPE svg PUBLIC "-//W3C//DTD SVG 1.1//EN"
  "http://www.w3.org/Graphics/SVG/1.1/DTD/svg11.dtd">
<svg height="288pt" version="1.1" viewBox="0 0 432 288" width="432pt" xmlns="http://www.w3.org/2000/svg" xmlns:xlink="http://www.w3.org/1999/xlink">
 <metadata>
  <rdf:RDF xmlns:cc="http://creativecommons.org/ns#" xmlns:dc="http://purl.org/dc/elements/1.1/" xmlns:rdf="http://www.w3.org/1999/02/22-rdf-syntax-ns#">
   <cc:Work>
    <dc:type rdf:resource="http://purl.org/dc/dcmitype/StillImage"/>
    <dc:date>2021-11-10T23:08:37.369262</dc:date>
    <dc:format>image/svg+xml</dc:format>
    <dc:creator>
     <cc:Agent>
      <dc:title>Matplotlib v3.4.3, https://matplotlib.org/</dc:title>
     </cc:Agent>
    </dc:creator>
   </cc:Work>
  </rdf:RDF>
 </metadata>
 <defs>
  <style type="text/css">*{stroke-linecap:butt;stroke-linejoin:round;}</style>
 </defs>
 <g id="figure_1">
  <g id="patch_1">
   <path d="M 0 288 
L 432 288 
L 432 0 
L 0 0 
z
" style="fill:#ffffff;"/>
  </g>
  <g id="axes_1">
   <g id="patch_2">
    <path d="M 64.557544 258.225354 
L 422.361999 258.225354 
L 422.361999 2.834646 
L 64.557544 2.834646 
z
" style="fill:#ffffff;"/>
   </g>
   <g id="line2d_1">
    <path clip-path="url(#p259b7bd2f2)" d="M 64.557544 148.874533 
L 71.713633 148.995032 
L 72.965948 149.018889 
L 74.754971 149.075772 
L 76.365091 148.954928 
L 80.479842 148.72115 
L 84.057887 148.590887 
L 86.74142 148.690581 
L 88.530442 148.66363 
L 89.782758 148.98793 
L 91.392878 149.741264 
L 92.824096 150.962208 
L 95.328727 153.075184 
L 96.759945 153.964827 
L 97.475554 154.080923 
L 98.01226 154.110783 
L 98.548967 153.871398 
L 99.264576 153.416044 
L 100.159087 152.376842 
L 100.695794 151.522497 
L 101.948109 148.91644 
L 103.379327 144.989505 
L 106.77847 135.760739 
L 107.672981 133.742158 
L 108.746394 131.724582 
L 109.99871 129.800904 
L 111.251025 128.462532 
L 111.966634 128.130026 
L 112.503341 128.155658 
L 113.21895 128.524322 
L 113.755656 129.145291 
L 114.471265 130.31452 
L 115.186874 131.996543 
L 115.902483 134.308095 
L 116.796994 137.959281 
L 117.691505 142.358222 
L 118.943821 149.803046 
L 120.732843 162.02733 
L 122.342963 172.314297 
L 123.416377 177.732433 
L 124.131986 180.373046 
L 124.668692 181.73402 
L 125.205399 182.500629 
L 125.563203 182.774883 
L 125.921008 182.796555 
L 126.278812 182.613226 
L 126.636617 182.238899 
L 127.173323 181.264018 
L 127.888932 179.470739 
L 128.783444 176.412261 
L 132.719293 161.011277 
L 133.613804 158.546475 
L 134.508315 156.691989 
L 136.476239 152.6508 
L 137.549653 149.838827 
L 138.444164 147.066943 
L 139.875382 141.513552 
L 142.022208 133.40214 
L 142.91672 130.883122 
L 143.632328 129.462105 
L 144.169035 128.910726 
L 144.52684 128.811636 
L 144.884644 128.916535 
L 145.242448 129.254319 
L 145.779155 130.230832 
L 146.494764 132.255895 
L 147.389275 135.616243 
L 149.3572 142.979261 
L 150.251711 145.376426 
L 150.788418 146.24437 
L 151.325124 146.742714 
L 151.682929 146.837604 
L 152.398538 146.81493 
L 152.935244 146.529281 
L 154.008658 145.652717 
L 155.082071 144.500615 
L 156.334387 143.229393 
L 157.4078 142.609782 
L 158.839018 142.048434 
L 160.270236 140.973299 
L 160.806942 140.208065 
L 161.522551 138.683161 
L 162.417062 135.944002 
L 163.132671 133.006079 
L 166.531814 118.357916 
L 167.247422 116.696743 
L 167.605227 116.277035 
L 167.963031 116.090799 
L 168.320836 116.248161 
L 168.67864 116.821406 
L 169.215347 118.244323 
L 169.752054 120.676362 
L 170.467663 125.146996 
L 171.362174 132.561754 
L 172.793392 147.178382 
L 174.403512 162.989767 
L 175.476925 171.342995 
L 176.729241 179.407354 
L 178.697165 190.274271 
L 180.486187 199.1289 
L 181.201796 201.650503 
L 181.738503 202.993397 
L 182.27521 203.636201 
L 182.633014 203.813023 
L 182.990819 203.614528 
L 183.527525 202.833795 
L 184.064232 201.34679 
L 184.600939 199.293432 
L 185.316547 195.367142 
L 186.211059 189.280113 
L 188.894592 170.732428 
L 189.789103 165.856631 
L 190.504712 162.730622 
L 191.220321 160.550839 
L 192.293734 158.403144 
L 193.009343 157.112983 
L 193.903854 154.770819 
L 194.619463 151.756456 
L 195.15617 148.548135 
L 195.871779 142.727248 
L 196.945192 130.868709 
L 198.37641 114.064465 
L 199.092019 108.144973 
L 199.628726 105.511602 
L 199.98653 104.786754 
L 200.165432 104.758865 
L 200.344335 105.005995 
L 200.702139 106.354451 
L 201.059944 108.714454 
L 201.59665 114.180792 
L 202.312259 125.029827 
L 203.20677 142.756922 
L 204.637988 171.651152 
L 205.174695 179.344154 
L 205.711401 184.185983 
L 206.069206 185.6011 
L 206.248108 185.778973 
L 206.42701 185.615749 
L 206.605913 185.067823 
L 206.963717 182.913871 
L 207.500424 177.682732 
L 208.216033 167.643657 
L 210.005055 142.149903 
L 210.541762 137.195687 
L 211.257371 132.638106 
L 212.151882 128.977092 
L 213.404197 125.347559 
L 215.908828 119.727232 
L 216.624437 116.92447 
L 217.340046 113.088237 
L 218.055655 108.42968 
L 220.202482 92.451854 
L 220.560286 90.990168 
L 220.918091 90.468778 
L 221.096993 90.576277 
L 221.275895 90.903314 
L 221.6337 92.354324 
L 221.991504 94.967471 
L 222.528211 100.771151 
L 223.422722 113.781352 
L 224.85394 134.905392 
L 225.569549 142.110323 
L 226.106255 145.154991 
L 226.46406 145.943957 
L 226.642962 146.022257 
L 226.821864 145.879184 
L 227.179669 144.989988 
L 227.895278 142.069674 
L 228.431984 139.881824 
L 228.789789 139.224745 
L 228.968691 139.183318 
L 229.147593 139.332238 
L 229.326496 139.696214 
L 229.6843 141.23688 
L 230.221007 145.349476 
L 230.757713 151.344795 
L 231.652224 164.42599 
L 235.766976 231.643949 
L 236.482585 238.926706 
L 236.840389 241.000032 
L 237.198194 241.814024 
L 237.377096 241.680017 
L 237.555998 241.156098 
L 237.913802 238.934181 
L 238.271607 235.14082 
L 238.808314 226.73779 
L 239.702825 207.591377 
L 240.95514 180.835618 
L 241.491847 173.40845 
L 241.849651 170.559456 
L 242.207456 169.131639 
L 242.386358 168.915608 
L 242.56526 169.081166 
L 242.923065 170.337873 
L 243.459771 173.41503 
L 244.354283 179.359082 
L 244.712087 180.851303 
L 245.069892 181.47812 
L 245.248794 181.333261 
L 245.606598 180.318745 
L 245.964403 178.573163 
L 246.501109 174.512672 
L 247.753425 164.652003 
L 248.111229 163.162876 
L 248.290132 162.825954 
L 248.469034 162.825916 
L 248.647936 163.242244 
L 249.005741 165.286354 
L 249.363545 168.919046 
L 249.900252 176.900169 
L 251.33147 199.813302 
L 251.868176 204.688638 
L 252.225981 206.365215 
L 252.583785 207.162879 
L 252.762687 207.238776 
L 252.94159 207.05869 
L 253.299394 206.082468 
L 253.657198 204.265325 
L 254.015003 201.048705 
L 254.55171 193.433641 
L 255.088416 182.061223 
L 255.982927 157.138286 
L 257.414145 108.878757 
L 259.739874 27.121949 
L 260.276581 16.240237 
L 260.634385 12.010556 
L 260.99219 10.178824 
L 261.171092 10.087369 
L 261.349994 10.624477 
L 261.707799 13.635016 
L 262.244505 21.813417 
L 262.781212 33.923474 
L 264.928039 88.260447 
L 265.285843 92.506245 
L 265.643648 94.531075 
L 265.82255 94.717182 
L 266.001452 94.352299 
L 266.359257 92.19985 
L 267.074866 85.185024 
L 267.611572 80.51028 
L 267.969377 78.975223 
L 268.148279 78.785383 
L 268.327181 79.008566 
L 268.684986 80.754072 
L 269.04279 84.082756 
L 269.579497 92.26884 
L 270.116203 104.138804 
L 270.831812 126.162269 
L 271.726323 161.785521 
L 273.336444 226.306284 
L 273.87315 240.801839 
L 274.409857 249.011136 
L 274.767661 250.997315 
L 274.946564 250.803145 
L 275.304368 248.415503 
L 275.662172 243.763195 
L 276.198879 232.10888 
L 276.914488 210.912052 
L 278.70351 151.966074 
L 279.598021 130.226549 
L 280.31363 118.018257 
L 280.850337 111.845208 
L 281.565946 105.522081 
L 282.281555 101.467243 
L 282.639359 100.398739 
L 282.818262 100.4191 
L 282.997164 100.768347 
L 283.354968 102.525766 
L 283.712773 106.177021 
L 284.249479 114.681259 
L 286.396306 153.993248 
L 286.933013 158.563698 
L 287.111915 159.339153 
L 287.290817 159.586959 
L 287.46972 159.36785 
L 287.827524 157.71822 
L 288.185328 154.113801 
L 288.722035 145.007117 
L 289.437644 128.216238 
L 290.868862 93.119821 
L 291.763373 77.069078 
L 292.30008 71.3795 
L 292.657884 69.704214 
L 292.836786 69.701101 
L 293.015689 70.249421 
L 293.373493 72.968767 
L 293.731297 78.282686 
L 294.268004 91.056088 
L 294.983613 116.263663 
L 297.309342 208.546992 
L 297.846049 219.029985 
L 298.203853 222.121724 
L 298.382755 222.603751 
L 298.561658 222.426851 
L 298.74056 221.614012 
L 299.098364 218.365785 
L 299.813973 208.641669 
L 300.708484 196.420738 
L 301.245191 192.027252 
L 301.424093 191.483078 
L 301.602996 191.478983 
L 301.781898 191.87077 
L 302.139702 193.660273 
L 302.497507 197.315108 
L 303.213116 209.072556 
L 304.107627 224.919615 
L 304.465431 228.587644 
L 304.644333 229.576405 
L 304.823236 229.88438 
L 305.002138 229.447812 
L 305.359942 226.718378 
L 305.896649 219.015431 
L 306.970062 201.438666 
L 307.327867 198.82683 
L 307.506769 198.442023 
L 307.685671 198.62055 
L 308.043476 200.328556 
L 308.937987 206.973556 
L 309.116889 207.541168 
L 309.295791 207.663851 
L 309.474694 207.203683 
L 309.832498 204.246116 
L 310.190302 198.824577 
L 310.727009 186.870509 
L 312.516031 142.361523 
L 313.052738 132.445478 
L 313.410543 129.107917 
L 313.589445 128.806118 
L 313.768347 129.508725 
L 313.947249 131.37133 
L 314.305054 139.285183 
L 314.84176 161.257803 
L 315.736272 214.322401 
L 316.272978 239.866431 
L 316.630783 248.240102 
L 316.809685 249.098352 
L 316.988587 247.723811 
L 317.346392 239.494318 
L 317.883098 217.737138 
L 319.314316 152.010475 
L 320.208827 121.251513 
L 320.924436 103.370543 
L 321.640045 91.010354 
L 322.355654 82.664968 
L 322.713458 80.1292 
L 323.071263 78.972274 
L 323.250165 79.056729 
L 323.429067 79.735581 
L 323.786872 82.653684 
L 324.323578 89.329379 
L 325.039187 101.370439 
L 325.575894 112.721446 
L 326.470405 137.979758 
L 327.543819 170.580653 
L 328.080525 180.674154 
L 328.617232 185.952487 
L 328.975036 188.295717 
L 329.511743 190.288786 
L 329.690645 190.479504 
L 329.869547 190.075134 
L 330.227352 187.257589 
L 330.585156 182.020997 
L 331.121863 169.39432 
L 332.731983 127.553876 
L 333.089788 123.082997 
L 333.26869 122.792938 
L 333.447592 123.916647 
L 333.805397 130.313024 
L 335.236614 167.130673 
L 335.773321 172.967031 
L 337.204539 183.59617 
L 337.920148 187.900895 
L 338.09905 188.284882 
L 338.277952 187.995649 
L 338.456854 186.975169 
L 338.814659 182.319007 
L 339.351366 170.104582 
L 340.603681 139.659238 
L 340.961486 134.702674 
L 341.140388 133.70154 
L 341.31929 133.852202 
L 341.498192 135.410552 
L 341.855997 142.718609 
L 343.108312 178.474869 
L 343.466117 182.861814 
L 343.645019 183.732335 
L 343.823921 183.74736 
L 344.002823 182.904426 
L 344.360628 178.259754 
L 344.897335 165.151945 
L 345.970748 136.600729 
L 347.044161 118.263067 
L 347.401966 114.685645 
L 347.580868 114.418095 
L 347.75977 115.414124 
L 348.117575 121.222286 
L 348.654281 136.184704 
L 349.548793 164.574014 
L 350.085499 174.412807 
L 350.264401 175.62621 
L 350.443304 175.813467 
L 350.622206 175.153603 
L 350.801108 173.583974 
L 351.158913 166.916139 
L 351.874522 143.297988 
L 352.947935 101.245392 
L 353.842446 66.335767 
L 354.379153 54.903415 
L 354.736957 51.338747 
L 354.915859 50.734743 
L 355.094762 50.86709 
L 355.273664 51.6424 
L 355.631468 55.104711 
L 355.989273 61.138315 
L 356.883784 79.939695 
L 357.241588 82.887628 
L 357.420491 83.053165 
L 357.599393 82.529109 
L 358.136099 80.071455 
L 358.315002 80.527484 
L 358.672806 84.067149 
L 359.209513 91.886346 
L 359.74622 102.804482 
L 360.282926 118.477512 
L 361.35634 156.99366 
L 361.714144 163.448276 
L 361.893046 164.579006 
L 362.071948 164.599163 
L 362.608655 162.128796 
L 363.145362 159.462475 
L 363.503166 155.279105 
L 363.860971 146.410668 
L 364.934384 110.901246 
L 365.292189 106.542502 
L 365.471091 105.892079 
L 365.649993 106.126073 
L 365.828895 107.24859 
L 366.1867 111.725337 
L 366.723406 122.580776 
L 367.260113 142.139693 
L 368.333526 195.435958 
L 369.049135 226.236424 
L 369.40694 236.312697 
L 369.764744 240.752743 
L 369.943647 241.258209 
L 370.122549 240.744868 
L 370.480353 237.186943 
L 371.195962 224.646516 
L 371.732669 210.6263 
L 372.269375 188.997082 
L 373.342789 137.472883 
L 373.879496 124.962564 
L 374.952909 105.851049 
L 375.131811 104.097011 
L 375.310713 103.565984 
L 375.489616 104.517572 
L 375.84742 110.02855 
L 376.384127 117.974413 
L 377.278638 124.66626 
L 378.173149 138.099531 
L 378.352051 138.114825 
L 378.888758 135.059447 
L 379.06766 135.902168 
L 379.246562 138.838007 
L 379.604367 150.908743 
L 380.319976 179.330192 
L 380.67778 184.271885 
L 380.856682 184.60651 
L 381.214487 183.793916 
L 381.751194 181.756057 
L 382.108998 177.984239 
L 383.003509 162.728561 
L 383.182411 163.76822 
L 384.076922 176.354721 
L 384.255825 176.037453 
L 384.613629 172.041633 
L 384.971434 167.578183 
L 385.329238 165.744249 
L 385.687043 164.105274 
L 386.044847 160.061811 
L 387.11826 142.43941 
L 387.297163 143.332064 
L 387.654967 148.128798 
L 388.907283 169.699987 
L 389.265087 174.546753 
L 390.159598 189.093851 
L 390.3385 189.925984 
L 390.517403 189.436 
L 390.696305 187.400598 
L 391.054109 178.492267 
L 392.485327 133.020594 
L 393.379838 115.093787 
L 393.916545 107.407064 
L 394.453252 94.414683 
L 395.168861 74.410878 
L 395.526665 70.219264 
L 395.705567 70.110228 
L 395.88447 71.019748 
L 396.242274 75.374577 
L 396.600078 82.705329 
L 396.957883 94.573204 
L 398.031296 142.17807 
L 398.389101 149.167041 
L 398.568003 150.378975 
L 398.746905 150.464886 
L 398.925807 149.552363 
L 399.10471 147.582161 
L 399.462514 139.608402 
L 399.820319 130.238537 
L 399.999221 127.899354 
L 400.178123 127.748233 
L 400.535927 131.186641 
L 401.072634 138.123955 
L 401.251536 139.42386 
L 401.788243 140.929704 
L 402.146047 142.95415 
L 402.32495 142.600171 
L 402.861656 137.801571 
L 403.219461 137.189538 
L 403.398363 136.203581 
L 404.113972 128.715243 
L 404.292874 128.956661 
L 404.471776 130.552047 
L 405.008483 137.492811 
L 405.187385 136.723262 
L 405.724092 130.359789 
L 405.902994 131.608401 
L 406.976408 148.113168 
L 407.334212 150.061895 
L 407.513114 150.2497 
L 407.692017 150.978756 
L 407.870919 153.07241 
L 408.228723 161.929926 
L 408.76543 185.180437 
L 409.481039 217.439581 
L 410.554452 246.959539 
L 410.733354 248.556974 
L 410.912257 247.895466 
L 411.091159 245.020191 
L 412.343474 213.695468 
L 413.237986 194.100179 
L 413.59579 178.335022 
L 414.311399 136.462363 
L 415.20591 102.132716 
L 415.563715 96.131051 
L 415.742617 95.432921 
L 415.921519 96.001224 
L 416.279323 100.34784 
L 416.81603 111.607533 
L 417.531639 129.099563 
L 417.710541 129.112029 
L 418.068346 127.157371 
L 418.247248 128.174862 
L 418.783955 134.598852 
L 418.962857 134.795179 
L 419.141759 134.571284 
L 419.320661 134.851441 
L 419.678466 136.318347 
L 419.857368 135.84546 
L 420.394075 131.885448 
L 420.572977 131.911739 
L 421.109684 133.940031 
L 421.288586 133.928813 
L 421.467488 133.166936 
L 421.64639 131.44465 
L 422.004195 124.730129 
L 422.361999 116.586007 
L 422.361999 116.586007 
" style="fill:none;stroke:#009afa;"/>
   </g>
   <g id="matplotlib.axis_1">
    <g id="xtick_1">
     <g id="line2d_2">
      <defs>
       <path d="M 0 0 
L 0 -2.5 
" id="m0fb350b75a" style="stroke:#000000;stroke-width:0.5;"/>
      </defs>
      <g>
       <use style="stroke:#000000;stroke-width:0.5;" x="64.557544" xlink:href="#m0fb350b75a" y="258.225354"/>
      </g>
     </g>
     <g id="text_1">
      <!-- $0.0$ -->
      <g transform="translate(58.157544 267.804104)scale(0.08 -0.08)">
       <defs>
        <path d="M 2034 4250 
Q 1547 4250 1301 3770 
Q 1056 3291 1056 2328 
Q 1056 1369 1301 889 
Q 1547 409 2034 409 
Q 2525 409 2770 889 
Q 3016 1369 3016 2328 
Q 3016 3291 2770 3770 
Q 2525 4250 2034 4250 
z
M 2034 4750 
Q 2819 4750 3233 4129 
Q 3647 3509 3647 2328 
Q 3647 1150 3233 529 
Q 2819 -91 2034 -91 
Q 1250 -91 836 529 
Q 422 1150 422 2328 
Q 422 3509 836 4129 
Q 1250 4750 2034 4750 
z
" id="DejaVuSans-30" transform="scale(0.015625)"/>
        <path d="M 684 794 
L 1344 794 
L 1344 0 
L 684 0 
L 684 794 
z
" id="DejaVuSans-2e" transform="scale(0.015625)"/>
       </defs>
       <use transform="translate(0 0.78125)" xlink:href="#DejaVuSans-30"/>
       <use transform="translate(63.623047 0.78125)" xlink:href="#DejaVuSans-2e"/>
       <use transform="translate(95.410156 0.78125)" xlink:href="#DejaVuSans-30"/>
      </g>
     </g>
    </g>
    <g id="xtick_2">
     <g id="line2d_3">
      <g>
       <use style="stroke:#000000;stroke-width:0.5;" x="154.008658" xlink:href="#m0fb350b75a" y="258.225354"/>
      </g>
     </g>
     <g id="text_2">
      <!-- $0.5$ -->
      <g transform="translate(147.608658 267.804104)scale(0.08 -0.08)">
       <defs>
        <path d="M 691 4666 
L 3169 4666 
L 3169 4134 
L 1269 4134 
L 1269 2991 
Q 1406 3038 1543 3061 
Q 1681 3084 1819 3084 
Q 2600 3084 3056 2656 
Q 3513 2228 3513 1497 
Q 3513 744 3044 326 
Q 2575 -91 1722 -91 
Q 1428 -91 1123 -41 
Q 819 9 494 109 
L 494 744 
Q 775 591 1075 516 
Q 1375 441 1709 441 
Q 2250 441 2565 725 
Q 2881 1009 2881 1497 
Q 2881 1984 2565 2268 
Q 2250 2553 1709 2553 
Q 1456 2553 1204 2497 
Q 953 2441 691 2322 
L 691 4666 
z
" id="DejaVuSans-35" transform="scale(0.015625)"/>
       </defs>
       <use transform="translate(0 0.78125)" xlink:href="#DejaVuSans-30"/>
       <use transform="translate(63.623047 0.78125)" xlink:href="#DejaVuSans-2e"/>
       <use transform="translate(95.410156 0.78125)" xlink:href="#DejaVuSans-35"/>
      </g>
     </g>
    </g>
    <g id="xtick_3">
     <g id="line2d_4">
      <g>
       <use style="stroke:#000000;stroke-width:0.5;" x="243.459771" xlink:href="#m0fb350b75a" y="258.225354"/>
      </g>
     </g>
     <g id="text_3">
      <!-- $1.0$ -->
      <g transform="translate(237.059771 267.804104)scale(0.08 -0.08)">
       <defs>
        <path d="M 794 531 
L 1825 531 
L 1825 4091 
L 703 3866 
L 703 4441 
L 1819 4666 
L 2450 4666 
L 2450 531 
L 3481 531 
L 3481 0 
L 794 0 
L 794 531 
z
" id="DejaVuSans-31" transform="scale(0.015625)"/>
       </defs>
       <use transform="translate(0 0.78125)" xlink:href="#DejaVuSans-31"/>
       <use transform="translate(63.623047 0.78125)" xlink:href="#DejaVuSans-2e"/>
       <use transform="translate(95.410156 0.78125)" xlink:href="#DejaVuSans-30"/>
      </g>
     </g>
    </g>
    <g id="xtick_4">
     <g id="line2d_5">
      <g>
       <use style="stroke:#000000;stroke-width:0.5;" x="332.910885" xlink:href="#m0fb350b75a" y="258.225354"/>
      </g>
     </g>
     <g id="text_4">
      <!-- $1.5$ -->
      <g transform="translate(326.510885 267.804104)scale(0.08 -0.08)">
       <use transform="translate(0 0.09375)" xlink:href="#DejaVuSans-31"/>
       <use transform="translate(63.623047 0.09375)" xlink:href="#DejaVuSans-2e"/>
       <use transform="translate(95.410156 0.09375)" xlink:href="#DejaVuSans-35"/>
      </g>
     </g>
    </g>
    <g id="xtick_5">
     <g id="line2d_6">
      <g>
       <use style="stroke:#000000;stroke-width:0.5;" x="422.361999" xlink:href="#m0fb350b75a" y="258.225354"/>
      </g>
     </g>
     <g id="text_5">
      <!-- $2.0$ -->
      <g transform="translate(415.961999 267.804104)scale(0.08 -0.08)">
       <defs>
        <path d="M 1228 531 
L 3431 531 
L 3431 0 
L 469 0 
L 469 531 
Q 828 903 1448 1529 
Q 2069 2156 2228 2338 
Q 2531 2678 2651 2914 
Q 2772 3150 2772 3378 
Q 2772 3750 2511 3984 
Q 2250 4219 1831 4219 
Q 1534 4219 1204 4116 
Q 875 4013 500 3803 
L 500 4441 
Q 881 4594 1212 4672 
Q 1544 4750 1819 4750 
Q 2544 4750 2975 4387 
Q 3406 4025 3406 3419 
Q 3406 3131 3298 2873 
Q 3191 2616 2906 2266 
Q 2828 2175 2409 1742 
Q 1991 1309 1228 531 
z
" id="DejaVuSans-32" transform="scale(0.015625)"/>
       </defs>
       <use transform="translate(0 0.78125)" xlink:href="#DejaVuSans-32"/>
       <use transform="translate(63.623047 0.78125)" xlink:href="#DejaVuSans-2e"/>
       <use transform="translate(95.410156 0.78125)" xlink:href="#DejaVuSans-30"/>
      </g>
     </g>
    </g>
    <g id="text_6">
     <!-- Time (s) -->
     <g transform="translate(221.097975 281.826136)scale(0.11 -0.11)">
      <defs>
       <path d="M -19 4666 
L 3928 4666 
L 3928 4134 
L 2272 4134 
L 2272 0 
L 1638 0 
L 1638 4134 
L -19 4134 
L -19 4666 
z
" id="DejaVuSans-54" transform="scale(0.015625)"/>
       <path d="M 603 3500 
L 1178 3500 
L 1178 0 
L 603 0 
L 603 3500 
z
M 603 4863 
L 1178 4863 
L 1178 4134 
L 603 4134 
L 603 4863 
z
" id="DejaVuSans-69" transform="scale(0.015625)"/>
       <path d="M 3328 2828 
Q 3544 3216 3844 3400 
Q 4144 3584 4550 3584 
Q 5097 3584 5394 3201 
Q 5691 2819 5691 2113 
L 5691 0 
L 5113 0 
L 5113 2094 
Q 5113 2597 4934 2840 
Q 4756 3084 4391 3084 
Q 3944 3084 3684 2787 
Q 3425 2491 3425 1978 
L 3425 0 
L 2847 0 
L 2847 2094 
Q 2847 2600 2669 2842 
Q 2491 3084 2119 3084 
Q 1678 3084 1418 2786 
Q 1159 2488 1159 1978 
L 1159 0 
L 581 0 
L 581 3500 
L 1159 3500 
L 1159 2956 
Q 1356 3278 1631 3431 
Q 1906 3584 2284 3584 
Q 2666 3584 2933 3390 
Q 3200 3197 3328 2828 
z
" id="DejaVuSans-6d" transform="scale(0.015625)"/>
       <path d="M 3597 1894 
L 3597 1613 
L 953 1613 
Q 991 1019 1311 708 
Q 1631 397 2203 397 
Q 2534 397 2845 478 
Q 3156 559 3463 722 
L 3463 178 
Q 3153 47 2828 -22 
Q 2503 -91 2169 -91 
Q 1331 -91 842 396 
Q 353 884 353 1716 
Q 353 2575 817 3079 
Q 1281 3584 2069 3584 
Q 2775 3584 3186 3129 
Q 3597 2675 3597 1894 
z
M 3022 2063 
Q 3016 2534 2758 2815 
Q 2500 3097 2075 3097 
Q 1594 3097 1305 2825 
Q 1016 2553 972 2059 
L 3022 2063 
z
" id="DejaVuSans-65" transform="scale(0.015625)"/>
       <path id="DejaVuSans-20" transform="scale(0.015625)"/>
       <path d="M 1984 4856 
Q 1566 4138 1362 3434 
Q 1159 2731 1159 2009 
Q 1159 1288 1364 580 
Q 1569 -128 1984 -844 
L 1484 -844 
Q 1016 -109 783 600 
Q 550 1309 550 2009 
Q 550 2706 781 3412 
Q 1013 4119 1484 4856 
L 1984 4856 
z
" id="DejaVuSans-28" transform="scale(0.015625)"/>
       <path d="M 2834 3397 
L 2834 2853 
Q 2591 2978 2328 3040 
Q 2066 3103 1784 3103 
Q 1356 3103 1142 2972 
Q 928 2841 928 2578 
Q 928 2378 1081 2264 
Q 1234 2150 1697 2047 
L 1894 2003 
Q 2506 1872 2764 1633 
Q 3022 1394 3022 966 
Q 3022 478 2636 193 
Q 2250 -91 1575 -91 
Q 1294 -91 989 -36 
Q 684 19 347 128 
L 347 722 
Q 666 556 975 473 
Q 1284 391 1588 391 
Q 1994 391 2212 530 
Q 2431 669 2431 922 
Q 2431 1156 2273 1281 
Q 2116 1406 1581 1522 
L 1381 1569 
Q 847 1681 609 1914 
Q 372 2147 372 2553 
Q 372 3047 722 3315 
Q 1072 3584 1716 3584 
Q 2034 3584 2315 3537 
Q 2597 3491 2834 3397 
z
" id="DejaVuSans-73" transform="scale(0.015625)"/>
       <path d="M 513 4856 
L 1013 4856 
Q 1481 4119 1714 3412 
Q 1947 2706 1947 2009 
Q 1947 1309 1714 600 
Q 1481 -109 1013 -844 
L 513 -844 
Q 928 -128 1133 580 
Q 1338 1288 1338 2009 
Q 1338 2731 1133 3434 
Q 928 4138 513 4856 
z
" id="DejaVuSans-29" transform="scale(0.015625)"/>
      </defs>
      <use xlink:href="#DejaVuSans-54"/>
      <use x="57.958984" xlink:href="#DejaVuSans-69"/>
      <use x="85.742188" xlink:href="#DejaVuSans-6d"/>
      <use x="183.154297" xlink:href="#DejaVuSans-65"/>
      <use x="244.677734" xlink:href="#DejaVuSans-20"/>
      <use x="276.464844" xlink:href="#DejaVuSans-28"/>
      <use x="315.478516" xlink:href="#DejaVuSans-73"/>
      <use x="367.578125" xlink:href="#DejaVuSans-29"/>
     </g>
    </g>
   </g>
   <g id="matplotlib.axis_2">
    <g id="ytick_1">
     <g id="line2d_7">
      <defs>
       <path d="M 0 0 
L 2.5 0 
" id="m9eb00bf6e9" style="stroke:#000000;stroke-width:0.5;"/>
      </defs>
      <g>
       <use style="stroke:#000000;stroke-width:0.5;" x="64.557544" xlink:href="#m9eb00bf6e9" y="225.552198"/>
      </g>
     </g>
     <g id="text_7">
      <!-- $-2.0×10^{6}$ -->
      <g transform="translate(20.817544 228.591573)scale(0.08 -0.08)">
       <defs>
        <path d="M 678 2272 
L 4684 2272 
L 4684 1741 
L 678 1741 
L 678 2272 
z
" id="DejaVuSans-2212" transform="scale(0.015625)"/>
        <path d="M 4488 3438 
L 3059 2003 
L 4488 575 
L 4116 197 
L 2681 1631 
L 1247 197 
L 878 575 
L 2303 2003 
L 878 3438 
L 1247 3816 
L 2681 2381 
L 4116 3816 
L 4488 3438 
z
" id="DejaVuSans-d7" transform="scale(0.015625)"/>
        <path d="M 2113 2584 
Q 1688 2584 1439 2293 
Q 1191 2003 1191 1497 
Q 1191 994 1439 701 
Q 1688 409 2113 409 
Q 2538 409 2786 701 
Q 3034 994 3034 1497 
Q 3034 2003 2786 2293 
Q 2538 2584 2113 2584 
z
M 3366 4563 
L 3366 3988 
Q 3128 4100 2886 4159 
Q 2644 4219 2406 4219 
Q 1781 4219 1451 3797 
Q 1122 3375 1075 2522 
Q 1259 2794 1537 2939 
Q 1816 3084 2150 3084 
Q 2853 3084 3261 2657 
Q 3669 2231 3669 1497 
Q 3669 778 3244 343 
Q 2819 -91 2113 -91 
Q 1303 -91 875 529 
Q 447 1150 447 2328 
Q 447 3434 972 4092 
Q 1497 4750 2381 4750 
Q 2619 4750 2861 4703 
Q 3103 4656 3366 4563 
z
" id="DejaVuSans-36" transform="scale(0.015625)"/>
       </defs>
       <use transform="translate(0 0.765625)" xlink:href="#DejaVuSans-2212"/>
       <use transform="translate(83.789062 0.765625)" xlink:href="#DejaVuSans-32"/>
       <use transform="translate(147.412109 0.765625)" xlink:href="#DejaVuSans-2e"/>
       <use transform="translate(179.199219 0.765625)" xlink:href="#DejaVuSans-30"/>
       <use transform="translate(242.822266 0.765625)" xlink:href="#DejaVuSans-d7"/>
       <use transform="translate(326.611328 0.765625)" xlink:href="#DejaVuSans-31"/>
       <use transform="translate(390.234375 0.765625)" xlink:href="#DejaVuSans-30"/>
       <use transform="translate(454.814453 39.046875)scale(0.7)" xlink:href="#DejaVuSans-36"/>
      </g>
     </g>
    </g>
    <g id="ytick_2">
     <g id="line2d_8">
      <g>
       <use style="stroke:#000000;stroke-width:0.5;" x="64.557544" xlink:href="#m9eb00bf6e9" y="187.213365"/>
      </g>
     </g>
     <g id="text_8">
      <!-- $-1.0×10^{6}$ -->
      <g transform="translate(20.817544 190.25274)scale(0.08 -0.08)">
       <use transform="translate(0 0.765625)" xlink:href="#DejaVuSans-2212"/>
       <use transform="translate(83.789062 0.765625)" xlink:href="#DejaVuSans-31"/>
       <use transform="translate(147.412109 0.765625)" xlink:href="#DejaVuSans-2e"/>
       <use transform="translate(179.199219 0.765625)" xlink:href="#DejaVuSans-30"/>
       <use transform="translate(242.822266 0.765625)" xlink:href="#DejaVuSans-d7"/>
       <use transform="translate(326.611328 0.765625)" xlink:href="#DejaVuSans-31"/>
       <use transform="translate(390.234375 0.765625)" xlink:href="#DejaVuSans-30"/>
       <use transform="translate(454.814453 39.046875)scale(0.7)" xlink:href="#DejaVuSans-36"/>
      </g>
     </g>
    </g>
    <g id="ytick_3">
     <g id="line2d_9">
      <g>
       <use style="stroke:#000000;stroke-width:0.5;" x="64.557544" xlink:href="#m9eb00bf6e9" y="148.874533"/>
      </g>
     </g>
     <g id="text_9">
      <!-- $0$ -->
      <g transform="translate(55.937544 151.913908)scale(0.08 -0.08)">
       <use transform="translate(0 0.78125)" xlink:href="#DejaVuSans-30"/>
      </g>
     </g>
    </g>
    <g id="ytick_4">
     <g id="line2d_10">
      <g>
       <use style="stroke:#000000;stroke-width:0.5;" x="64.557544" xlink:href="#m9eb00bf6e9" y="110.5357"/>
      </g>
     </g>
     <g id="text_10">
      <!-- $1.0×10^{6}$ -->
      <g transform="translate(27.537544 113.575075)scale(0.08 -0.08)">
       <use transform="translate(0 0.765625)" xlink:href="#DejaVuSans-31"/>
       <use transform="translate(63.623047 0.765625)" xlink:href="#DejaVuSans-2e"/>
       <use transform="translate(95.410156 0.765625)" xlink:href="#DejaVuSans-30"/>
       <use transform="translate(159.033203 0.765625)" xlink:href="#DejaVuSans-d7"/>
       <use transform="translate(242.822266 0.765625)" xlink:href="#DejaVuSans-31"/>
       <use transform="translate(306.445312 0.765625)" xlink:href="#DejaVuSans-30"/>
       <use transform="translate(371.025391 39.046875)scale(0.7)" xlink:href="#DejaVuSans-36"/>
      </g>
     </g>
    </g>
    <g id="ytick_5">
     <g id="line2d_11">
      <g>
       <use style="stroke:#000000;stroke-width:0.5;" x="64.557544" xlink:href="#m9eb00bf6e9" y="72.196868"/>
      </g>
     </g>
     <g id="text_11">
      <!-- $2.0×10^{6}$ -->
      <g transform="translate(27.537544 75.236243)scale(0.08 -0.08)">
       <use transform="translate(0 0.765625)" xlink:href="#DejaVuSans-32"/>
       <use transform="translate(63.623047 0.765625)" xlink:href="#DejaVuSans-2e"/>
       <use transform="translate(95.410156 0.765625)" xlink:href="#DejaVuSans-30"/>
       <use transform="translate(159.033203 0.765625)" xlink:href="#DejaVuSans-d7"/>
       <use transform="translate(242.822266 0.765625)" xlink:href="#DejaVuSans-31"/>
       <use transform="translate(306.445312 0.765625)" xlink:href="#DejaVuSans-30"/>
       <use transform="translate(371.025391 39.046875)scale(0.7)" xlink:href="#DejaVuSans-36"/>
      </g>
     </g>
    </g>
    <g id="ytick_6">
     <g id="line2d_12">
      <g>
       <use style="stroke:#000000;stroke-width:0.5;" x="64.557544" xlink:href="#m9eb00bf6e9" y="33.858035"/>
      </g>
     </g>
     <g id="text_12">
      <!-- $3.0×10^{6}$ -->
      <g transform="translate(27.537544 36.89741)scale(0.08 -0.08)">
       <defs>
        <path d="M 2597 2516 
Q 3050 2419 3304 2112 
Q 3559 1806 3559 1356 
Q 3559 666 3084 287 
Q 2609 -91 1734 -91 
Q 1441 -91 1130 -33 
Q 819 25 488 141 
L 488 750 
Q 750 597 1062 519 
Q 1375 441 1716 441 
Q 2309 441 2620 675 
Q 2931 909 2931 1356 
Q 2931 1769 2642 2001 
Q 2353 2234 1838 2234 
L 1294 2234 
L 1294 2753 
L 1863 2753 
Q 2328 2753 2575 2939 
Q 2822 3125 2822 3475 
Q 2822 3834 2567 4026 
Q 2313 4219 1838 4219 
Q 1578 4219 1281 4162 
Q 984 4106 628 3988 
L 628 4550 
Q 988 4650 1302 4700 
Q 1616 4750 1894 4750 
Q 2613 4750 3031 4423 
Q 3450 4097 3450 3541 
Q 3450 3153 3228 2886 
Q 3006 2619 2597 2516 
z
" id="DejaVuSans-33" transform="scale(0.015625)"/>
       </defs>
       <use transform="translate(0 0.765625)" xlink:href="#DejaVuSans-33"/>
       <use transform="translate(63.623047 0.765625)" xlink:href="#DejaVuSans-2e"/>
       <use transform="translate(95.410156 0.765625)" xlink:href="#DejaVuSans-30"/>
       <use transform="translate(159.033203 0.765625)" xlink:href="#DejaVuSans-d7"/>
       <use transform="translate(242.822266 0.765625)" xlink:href="#DejaVuSans-31"/>
       <use transform="translate(306.445312 0.765625)" xlink:href="#DejaVuSans-30"/>
       <use transform="translate(371.025391 39.046875)scale(0.7)" xlink:href="#DejaVuSans-36"/>
      </g>
     </g>
    </g>
    <g id="text_13">
     <!-- $M_z$ ($N$) -->
     <g transform="translate(14.529888 147.635)rotate(-90)scale(0.11 -0.11)">
      <defs>
       <path d="M 1081 4666 
L 2028 4666 
L 2572 1522 
L 4378 4666 
L 5350 4666 
L 4441 0 
L 3828 0 
L 4622 4091 
L 2791 897 
L 2175 897 
L 1581 4103 
L 788 0 
L 172 0 
L 1081 4666 
z
" id="DejaVuSans-Oblique-4d" transform="scale(0.015625)"/>
       <path d="M 744 3500 
L 3475 3500 
L 3372 2975 
L 738 459 
L 2913 459 
L 2822 0 
L -19 0 
L 84 525 
L 2719 3041 
L 653 3041 
L 744 3500 
z
" id="DejaVuSans-Oblique-7a" transform="scale(0.015625)"/>
       <path d="M 1081 4666 
L 1931 4666 
L 3219 666 
L 4000 4666 
L 4616 4666 
L 3706 0 
L 2853 0 
L 1569 4025 
L 788 0 
L 172 0 
L 1081 4666 
z
" id="DejaVuSans-Oblique-4e" transform="scale(0.015625)"/>
      </defs>
      <use transform="translate(0 0.125)" xlink:href="#DejaVuSans-Oblique-4d"/>
      <use transform="translate(86.279297 -16.28125)scale(0.7)" xlink:href="#DejaVuSans-Oblique-7a"/>
      <use transform="translate(125.756836 0.125)" xlink:href="#DejaVuSans-20"/>
      <use transform="translate(157.543945 0.125)" xlink:href="#DejaVuSans-28"/>
      <use transform="translate(196.557617 0.125)" xlink:href="#DejaVuSans-Oblique-4e"/>
      <use transform="translate(271.362305 0.125)" xlink:href="#DejaVuSans-29"/>
     </g>
    </g>
   </g>
   <g id="line2d_13">
    <path clip-path="url(#p259b7bd2f2)" d="M 64.557544 148.874533 
L 71.483036 148.983032 
L 72.85229 149.020586 
L 73.379343 149.038805 
L 74.410429 149.079719 
L 75.746521 149.008723 
L 76.83505 148.93073 
L 78.242783 148.913711 
L 80.947561 148.690117 
L 82.50683 148.620313 
L 83.673266 148.58889 
L 87.33015 148.641596 
L 88.635987 148.691664 
L 89.523336 148.922731 
L 90.62479 149.268278 
L 91.734575 150.01291 
L 93.529091 151.624682 
L 95.531955 153.231913 
L 96.636257 153.902927 
L 97.189614 154.042393 
L 97.927424 154.10388 
L 98.90567 153.692707 
L 99.32219 153.343585 
L 100.394412 152.023495 
L 101.50025 149.973294 
L 103.437592 144.923219 
L 105.797891 138.294489 
L 107.171289 134.87597 
L 107.998391 133.143472 
L 109.103811 131.186125 
L 110.212705 129.545241 
L 111.067002 128.635698 
L 111.931525 128.158442 
L 112.219699 128.124205 
L 112.796048 128.340301 
L 113.372396 128.715255 
L 113.948745 129.402564 
L 114.525094 130.395139 
L 115.406046 132.686421 
L 116.293918 135.772918 
L 117.217178 139.879996 
L 118.496996 146.912565 
L 120.10707 157.60871 
L 121.748516 168.616958 
L 122.800671 174.736679 
L 123.502108 177.989385 
L 124.203545 180.449015 
L 124.904982 182.032045 
L 125.255701 182.449242 
L 125.606419 182.653395 
L 125.957138 182.651827 
L 126.577382 182.222816 
L 127.210133 181.182836 
L 127.842884 179.530762 
L 128.79201 176.256435 
L 131.403995 165.693687 
L 132.473457 161.832605 
L 133.283188 159.457921 
L 134.368837 157.1 
L 136.268723 153.180133 
L 137.354373 150.526756 
L 138.440022 147.149887 
L 139.525671 143.042925 
L 142.062603 133.521896 
L 143.011927 130.845872 
L 143.486589 129.890946 
L 143.961364 129.289789 
L 144.436252 129.018122 
L 144.91114 129.138199 
L 145.3895 129.683488 
L 145.87133 130.691005 
L 146.604906 132.912632 
L 147.64918 136.767066 
L 149.10457 142.286097 
L 149.820217 144.395506 
L 150.530283 145.841234 
L 151.069143 146.458902 
L 151.608003 146.766437 
L 152.054107 146.8102 
L 152.552513 146.706674 
L 153.306665 146.282633 
L 154.096011 145.558506 
L 156.286284 143.246088 
L 157.118305 142.699288 
L 157.920162 142.354114 
L 158.676176 142.067154 
L 160.008386 141.361642 
L 160.591372 140.723838 
L 161.035004 139.954813 
L 161.827799 138.02888 
L 162.707284 135.011901 
L 164.046608 129.126677 
L 165.704711 121.650378 
L 166.579189 118.597399 
L 167.041669 117.418331 
L 167.529251 116.699755 
L 167.773042 116.490518 
L 168.022369 116.446661 
L 168.271697 116.566771 
L 168.521024 116.832736 
L 169.019678 117.938495 
L 169.523222 119.800528 
L 170.309123 124.264032 
L 171.14834 130.812593 
L 172.317304 142.276494 
L 174.122734 160.454976 
L 175.336879 170.266467 
L 176.569413 178.194049 
L 178.501624 188.777365 
L 180.117288 197.088654 
L 181.047681 200.60915 
L 181.751909 202.376232 
L 182.194348 203.011016 
L 182.53177 203.235318 
L 182.820751 203.201792 
L 183.148582 202.962746 
L 183.501384 202.476152 
L 183.883416 201.52731 
L 184.460513 199.387844 
L 185.232674 195.388252 
L 186.390916 187.76987 
L 189.09348 169.35635 
L 189.865641 165.378405 
L 190.637803 162.383024 
L 191.409964 160.37605 
L 193.963117 154.840566 
L 194.565084 152.413982 
L 195.167962 148.788793 
L 195.787704 143.564569 
L 196.846105 131.902861 
L 198.568388 112.528566 
L 199.215762 107.659392 
L 199.647344 105.625811 
L 199.863136 105.081271 
L 200.078927 104.887918 
L 200.294718 105.061187 
L 200.51051 105.625767 
L 200.942092 107.942351 
L 201.373675 111.833059 
L 202.021049 120.516689 
L 202.884214 136.363311 
L 204.843623 174.683768 
L 205.532257 182.787255 
L 206.003606 185.269833 
L 206.245448 185.559394 
L 206.50084 185.120025 
L 206.756232 183.946154 
L 207.267015 179.616332 
L 208.033189 169.512165 
L 209.766101 144.560773 
L 210.487875 137.550721 
L 211.186435 132.872558 
L 211.927067 129.597493 
L 212.553395 127.689775 
L 213.631577 125.347943 
L 215.336964 121.719509 
L 216.15272 119.168646 
L 216.915578 116.05889 
L 217.66031 111.833338 
L 218.390493 106.352662 
L 220.08519 93.057333 
L 220.54404 91.213473 
L 220.77534 90.893004 
L 221.006641 90.932326 
L 221.240761 91.352165 
L 221.47488 92.232097 
L 221.82606 94.452634 
L 222.357083 99.513257 
L 223.035388 108.421562 
L 225.33534 140.812159 
L 225.784658 144.070898 
L 226.192572 145.656275 
L 226.416202 145.959903 
L 226.648916 145.876829 
L 226.913561 145.37103 
L 227.408551 143.539715 
L 228.35722 139.604728 
L 228.769363 138.86335 
L 228.978751 138.844904 
L 229.188139 139.093138 
L 229.397527 139.652018 
L 229.816303 141.724005 
L 230.235079 144.952649 
L 230.87407 152.131072 
L 231.732575 165.072089 
L 235.459267 227.072985 
L 236.274686 237.23626 
L 236.646767 240.319045 
L 237.032304 241.949063 
L 237.212645 242.084232 
L 237.393556 241.8097 
L 237.678613 240.507574 
L 238.116906 236.417267 
L 238.612342 229.129233 
L 239.457866 211.890708 
L 240.838635 182.1969 
L 241.481932 173.09166 
L 241.926632 169.656368 
L 242.155954 168.852908 
L 242.385276 168.658855 
L 242.614598 169.044411 
L 243.074595 171.237045 
L 244.68932 181.369329 
L 244.919995 181.720159 
L 245.15067 181.608153 
L 245.381345 181.065175 
L 245.844415 178.73629 
L 246.541601 173.151422 
L 247.652325 163.953696 
L 247.983858 162.254056 
L 248.315392 161.588574 
L 248.481159 161.703605 
L 248.646925 162.130044 
L 248.978459 164.01708 
L 249.38151 168.154417 
L 249.985954 177.276994 
L 251.256735 197.561052 
L 251.795013 202.520581 
L 252.264291 204.740718 
L 252.509559 205.246743 
L 252.756606 205.335494 
L 253.017596 204.996789 
L 253.288001 204.152775 
L 253.696508 201.667078 
L 254.106465 197.454479 
L 254.67586 188.434438 
L 255.268315 175.367865 
L 256.212032 148.918872 
L 257.298576 112.119119 
L 259.630018 29.000313 
L 260.235846 16.390744 
L 260.688584 11.337322 
L 260.966208 10.137327 
L 261.067122 10.062685 
L 261.168037 10.186014 
L 261.386511 11.110526 
L 261.722302 14.194048 
L 262.086973 19.725063 
L 262.609875 31.108618 
L 263.590202 58.812306 
L 264.511637 83.288037 
L 264.960558 91.328705 
L 265.29391 94.874505 
L 265.599658 96.227511 
L 265.756112 96.257776 
L 265.912566 95.882155 
L 266.23927 93.976586 
L 266.918924 87.33861 
L 267.553886 81.68096 
L 267.881069 80.117495 
L 268.050551 79.793523 
L 268.220033 79.826559 
L 268.389515 80.239515 
L 268.728479 82.125697 
L 269.174849 86.828899 
L 269.676458 95.252447 
L 270.300194 110.627187 
L 271.059214 136.360421 
L 273.690294 236.669338 
L 274.268878 247.054325 
L 274.654601 249.971183 
L 274.847462 250.218138 
L 275.040323 249.642084 
L 275.426046 246.118479 
L 275.811769 239.706455 
L 276.390353 225.354211 
L 277.35466 193.430756 
L 278.704689 149.000116 
L 279.477185 130.190298 
L 280.224629 117.786189 
L 280.883565 110.532797 
L 281.710794 104.128955 
L 282.207664 101.472088 
L 282.538911 100.687387 
L 282.68711 100.690233 
L 282.835308 100.93518 
L 283.131705 102.230149 
L 283.428102 104.671887 
L 283.872697 110.441009 
L 284.708383 125.846313 
L 285.853125 147.040715 
L 286.454391 154.951044 
L 286.905422 158.457079 
L 287.184518 159.240331 
L 287.270936 159.247357 
L 287.443771 158.907661 
L 287.721027 157.371888 
L 288.104658 153.287557 
L 288.531094 146.290017 
L 289.243438 130.384489 
L 291.180463 84.690208 
L 291.844764 74.117845 
L 292.32542 69.709532 
L 292.62313 68.592562 
L 292.771985 68.584954 
L 292.920841 68.990643 
L 293.222865 71.04241 
L 293.531944 74.925699 
L 293.96107 83.652738 
L 294.465962 98.553161 
L 295.192851 127.039677 
L 297.026328 202.667864 
L 297.498292 214.008393 
L 297.909888 219.617722 
L 298.199327 221.33201 
L 298.371248 221.522951 
L 298.56888 221.065676 
L 298.864832 219.263976 
L 299.254863 215.132862 
L 301.167708 191.665939 
L 301.424877 190.742424 
L 301.604915 190.681916 
L 301.802244 191.220409 
L 302.018776 192.617215 
L 302.380135 196.764539 
L 303.038921 208.470126 
L 304.001895 225.862197 
L 304.378213 229.469949 
L 304.629092 230.344403 
L 304.754532 230.300637 
L 305.00541 229.218863 
L 305.384948 225.232999 
L 306.003998 215.027755 
L 306.825465 202.199298 
L 307.148768 199.450948 
L 307.372454 198.624228 
L 307.484382 198.550042 
L 307.59631 198.694684 
L 307.820166 199.541238 
L 308.168166 201.923124 
L 308.918838 207.538769 
L 309.158604 208.054061 
L 309.274535 207.891676 
L 309.507294 206.707406 
L 309.77093 203.983618 
L 310.178899 197.303073 
L 310.849425 181.922478 
L 312.961644 130.239054 
L 313.278697 126.044074 
L 313.437223 125.028166 
L 313.595749 124.898511 
L 313.754275 125.806159 
L 314.072197 131.121922 
L 314.390119 141.430459 
L 314.870238 165.614814 
L 316.185746 239.539506 
L 316.538705 246.751297 
L 316.715624 247.264798 
L 316.900699 245.664969 
L 317.270849 236.925247 
L 317.808976 215.420653 
L 319.683575 133.272274 
L 320.444505 108.458177 
L 321.075695 95.832709 
L 321.743022 87.915294 
L 322.361477 82.719203 
L 322.732107 80.83569 
L 322.975491 80.410032 
L 323.154093 80.511676 
L 323.418205 81.403881 
L 323.70418 83.209404 
L 324.09882 87.04874 
L 324.675272 95.181618 
L 325.269448 107.327218 
L 326.016286 127.811656 
L 327.606289 175.018257 
L 328.136799 182.821296 
L 328.835631 189.098771 
L 329.263574 191.523827 
L 329.472398 191.925031 
L 329.567239 191.883785 
L 329.75692 191.280697 
L 330.041443 189.002815 
L 330.344667 184.683217 
L 330.802674 174.963112 
L 331.562417 153.486791 
L 332.680276 121.227181 
L 332.892241 119.20995 
L 332.971413 119.046086 
L 333.050584 119.246405 
L 333.212395 120.72946 
L 333.490094 126.412421 
L 334.91142 165.339454 
L 335.397449 170.669936 
L 336.01702 174.856772 
L 337.035386 181.687779 
L 337.800808 188.298008 
L 337.928378 188.615917 
L 338.055949 188.442751 
L 338.183519 187.786312 
L 338.458776 184.644902 
L 338.87166 176.609597 
L 339.577395 157.728468 
L 340.500271 132.778154 
L 340.8425 128.707148 
L 340.957204 128.538064 
L 341.071908 129.074697 
L 341.301316 132.078456 
L 341.760132 143.900016 
L 342.68083 169.148863 
L 343.211174 178.820885 
L 343.482808 181.255481 
L 343.683168 181.558831 
L 343.894448 180.388989 
L 344.233747 175.65205 
L 344.714631 164.63034 
L 345.642054 143.442033 
L 347.012192 116.562365 
L 347.273788 115.0484 
L 347.360987 115.040873 
L 347.535385 115.790089 
L 347.803265 119.201156 
L 348.219314 129.259132 
L 349.172942 161.229489 
L 349.71369 176.57627 
L 349.984967 180.310818 
L 350.086671 180.721293 
L 350.196003 180.630232 
L 350.419701 178.738846 
L 350.760636 172.744836 
L 351.392995 156.331217 
L 352.16991 129.871708 
L 354.013403 61.162117 
L 354.553947 51.893497 
L 354.759883 50.416813 
L 354.862851 50.264797 
L 354.965819 50.493975 
L 355.182184 52.378612 
L 355.523273 58.78889 
L 356.405272 78.833579 
L 356.697674 81.913436 
L 356.923237 82.841459 
L 357.036019 82.937244 
L 357.269624 82.751374 
L 358.186168 81.189591 
L 358.457917 81.401088 
L 358.648596 81.891156 
L 358.926531 83.670622 
L 359.214428 87.724621 
L 359.538681 95.928354 
L 360.024485 115.498508 
L 360.74557 145.090374 
L 361.195 154.936036 
L 361.645455 159.469454 
L 362.077712 161.666033 
L 362.439249 162.656386 
L 362.559761 162.647204 
L 362.680332 162.324806 
L 362.923718 160.546263 
L 363.177063 156.908234 
L 363.561442 147.56877 
L 364.890168 109.408224 
L 365.328948 104.131164 
L 365.481898 103.506161 
L 365.634847 103.686791 
L 365.804272 104.770686 
L 366.143123 109.649879 
L 366.617436 122.945491 
L 367.245663 148.15399 
L 368.125162 194.832606 
L 368.671918 220.439647 
L 369.092486 230.396292 
L 369.442959 233.63673 
L 369.821241 235.079955 
L 369.947334 235.266321 
L 370.076513 235.229241 
L 370.342666 234.379595 
L 370.616616 232.519164 
L 370.890566 229.016183 
L 371.30365 218.877066 
L 371.877788 196.632877 
L 373.395553 133.809546 
L 373.909996 123.315295 
L 374.544775 115.016766 
L 374.917356 112.299417 
L 375.115621 111.958027 
L 375.216801 112.071195 
L 375.445433 113.046227 
L 375.918782 117.097449 
L 376.752618 124.022147 
L 377.266085 126.935046 
L 377.674373 128.438978 
L 377.93281 128.774136 
L 378.186322 128.9109 
L 378.356418 129.613273 
L 378.566536 132.025237 
L 378.84123 138.230113 
L 379.367007 156.46685 
L 380.004148 177.159768 
L 380.385598 183.799827 
L 380.693259 186.200502 
L 380.805036 186.405496 
L 380.916814 186.267905 
L 381.16881 184.715014 
L 381.436598 181.111159 
L 382.395025 163.373626 
L 382.50324 163.344955 
L 382.723294 164.46741 
L 383.526097 171.136805 
L 383.75031 171.353215 
L 383.982299 171.334681 
L 384.098739 171.28667 
L 384.33162 170.860083 
L 384.68094 169.561582 
L 385.030261 167.005586 
L 385.379581 161.391425 
L 385.894236 153.227212 
L 386.231545 151.061568 
L 386.422236 150.883862 
L 386.829999 151.394601 
L 387.352208 150.724476 
L 387.572667 151.326218 
L 387.950017 153.848214 
L 388.241348 157.810426 
L 389.517546 180.258026 
L 389.855304 182.423414 
L 390.031161 182.461053 
L 390.119089 182.216546 
L 390.298351 180.496744 
L 390.55449 175.858205 
L 391.180602 158.814578 
L 391.866668 141.65307 
L 392.540759 131.602194 
L 393.016602 123.780066 
L 393.634337 109.663339 
L 395.481722 64.947657 
L 395.694667 63.756461 
L 395.815137 64.839478 
L 396.029687 69.437241 
L 396.47767 86.585721 
L 397.73116 136.945102 
L 398.082159 144.902241 
L 398.278705 146.813619 
L 398.376978 146.87646 
L 398.476817 146.550209 
L 398.676494 144.540018 
L 399.563024 132.506492 
L 399.824647 131.379708 
L 399.911854 131.236324 
L 399.999062 131.297775 
L 400.262677 132.360231 
L 401.084203 137.328953 
L 401.269389 137.114774 
L 401.687628 136.289525 
L 401.794778 136.335813 
L 402.120901 136.882106 
L 402.232724 136.809846 
L 402.460667 135.483351 
L 402.802581 130.998801 
L 403.149569 126.442813 
L 403.38766 125.519881 
L 404.166981 126.575876 
L 404.382234 128.178296 
L 404.735135 134.006009 
L 405.088036 139.409385 
L 405.323303 140.599344 
L 405.558571 140.597511 
L 405.676204 140.752709 
L 405.913432 142.425003 
L 406.387887 147.285226 
L 406.625114 147.886197 
L 406.862342 148.342531 
L 407.099569 149.666259 
L 407.520418 152.969652 
L 407.765065 156.185235 
L 408.003693 162.053646 
L 408.405116 178.490476 
L 409.265889 214.566358 
L 410.246286 238.772936 
L 410.484636 240.49638 
L 410.605204 239.821482 
L 410.856362 235.501017 
L 411.657602 216.325225 
L 411.932642 215.387283 
L 412.116881 214.988498 
L 412.451491 213.091255 
L 412.662751 210.501017 
L 412.88096 204.686487 
L 413.207865 187.634838 
L 414.108111 135.357065 
L 415.065238 92.156652 
L 415.339587 87.354175 
L 415.431037 87.269157 
L 415.613937 88.527498 
L 415.990474 94.220578 
L 416.938622 113.125865 
L 417.144144 113.475395 
L 417.32732 115.016652 
L 417.635484 120.480458 
L 418.429447 136.021114 
L 418.776427 138.105173 
L 419.312472 139.544367 
L 419.528686 140.033728 
L 419.768758 141.608036 
L 420.276402 146.216991 
L 420.380412 146.16472 
L 420.54124 145.377865 
L 420.81479 142.181295 
L 421.105669 135.764141 
L 422.06743 109.03555 
L 422.313125 107.365817 
L 422.361999 107.368647 
L 422.361999 107.368647 
" style="fill:none;stroke:#e36f47;"/>
   </g>
   <g id="patch_3">
    <path d="M 64.557544 258.225354 
L 64.557544 2.834646 
" style="fill:none;stroke:#000000;stroke-linecap:square;stroke-linejoin:miter;"/>
   </g>
   <g id="patch_4">
    <path d="M 64.557544 258.225354 
L 422.361999 258.225354 
" style="fill:none;stroke:#000000;stroke-linecap:square;stroke-linejoin:miter;"/>
   </g>
   <g id="legend_1">
    <g id="patch_5">
     <path d="M 299.041999 39.119646 
L 418.361999 39.119646 
L 418.361999 6.834646 
L 299.041999 6.834646 
z
" style="fill:#ffffff;stroke:#000000;stroke-linejoin:miter;"/>
    </g>
    <g id="line2d_14">
     <path d="M 305.441999 16.513396 
L 321.441999 16.513396 
" style="fill:none;stroke:#009afa;stroke-linejoin:miter;"/>
    </g>
    <g id="line2d_15"/>
    <g id="text_14">
     <!-- GXBeam -->
     <g transform="translate(327.841999 19.313396)scale(0.08 -0.08)">
      <defs>
       <path d="M 3809 666 
L 3809 1919 
L 2778 1919 
L 2778 2438 
L 4434 2438 
L 4434 434 
Q 4069 175 3628 42 
Q 3188 -91 2688 -91 
Q 1594 -91 976 548 
Q 359 1188 359 2328 
Q 359 3472 976 4111 
Q 1594 4750 2688 4750 
Q 3144 4750 3555 4637 
Q 3966 4525 4313 4306 
L 4313 3634 
Q 3963 3931 3569 4081 
Q 3175 4231 2741 4231 
Q 1884 4231 1454 3753 
Q 1025 3275 1025 2328 
Q 1025 1384 1454 906 
Q 1884 428 2741 428 
Q 3075 428 3337 486 
Q 3600 544 3809 666 
z
" id="DejaVuSans-47" transform="scale(0.015625)"/>
       <path d="M 403 4666 
L 1081 4666 
L 2241 2931 
L 3406 4666 
L 4084 4666 
L 2584 2425 
L 4184 0 
L 3506 0 
L 2194 1984 
L 872 0 
L 191 0 
L 1856 2491 
L 403 4666 
z
" id="DejaVuSans-58" transform="scale(0.015625)"/>
       <path d="M 1259 2228 
L 1259 519 
L 2272 519 
Q 2781 519 3026 730 
Q 3272 941 3272 1375 
Q 3272 1813 3026 2020 
Q 2781 2228 2272 2228 
L 1259 2228 
z
M 1259 4147 
L 1259 2741 
L 2194 2741 
Q 2656 2741 2882 2914 
Q 3109 3088 3109 3444 
Q 3109 3797 2882 3972 
Q 2656 4147 2194 4147 
L 1259 4147 
z
M 628 4666 
L 2241 4666 
Q 2963 4666 3353 4366 
Q 3744 4066 3744 3513 
Q 3744 3084 3544 2831 
Q 3344 2578 2956 2516 
Q 3422 2416 3680 2098 
Q 3938 1781 3938 1306 
Q 3938 681 3513 340 
Q 3088 0 2303 0 
L 628 0 
L 628 4666 
z
" id="DejaVuSans-42" transform="scale(0.015625)"/>
       <path d="M 2194 1759 
Q 1497 1759 1228 1600 
Q 959 1441 959 1056 
Q 959 750 1161 570 
Q 1363 391 1709 391 
Q 2188 391 2477 730 
Q 2766 1069 2766 1631 
L 2766 1759 
L 2194 1759 
z
M 3341 1997 
L 3341 0 
L 2766 0 
L 2766 531 
Q 2569 213 2275 61 
Q 1981 -91 1556 -91 
Q 1019 -91 701 211 
Q 384 513 384 1019 
Q 384 1609 779 1909 
Q 1175 2209 1959 2209 
L 2766 2209 
L 2766 2266 
Q 2766 2663 2505 2880 
Q 2244 3097 1772 3097 
Q 1472 3097 1187 3025 
Q 903 2953 641 2809 
L 641 3341 
Q 956 3463 1253 3523 
Q 1550 3584 1831 3584 
Q 2591 3584 2966 3190 
Q 3341 2797 3341 1997 
z
" id="DejaVuSans-61" transform="scale(0.015625)"/>
      </defs>
      <use xlink:href="#DejaVuSans-47"/>
      <use x="77.490234" xlink:href="#DejaVuSans-58"/>
      <use x="145.996094" xlink:href="#DejaVuSans-42"/>
      <use x="214.599609" xlink:href="#DejaVuSans-65"/>
      <use x="276.123047" xlink:href="#DejaVuSans-61"/>
      <use x="337.402344" xlink:href="#DejaVuSans-6d"/>
     </g>
    </g>
    <g id="line2d_16">
     <path d="M 305.441999 28.255896 
L 321.441999 28.255896 
" style="fill:none;stroke:#e36f47;stroke-linejoin:miter;"/>
    </g>
    <g id="line2d_17"/>
    <g id="text_15">
     <!-- DifferentialEquations -->
     <g transform="translate(327.841999 31.055896)scale(0.08 -0.08)">
      <defs>
       <path d="M 1259 4147 
L 1259 519 
L 2022 519 
Q 2988 519 3436 956 
Q 3884 1394 3884 2338 
Q 3884 3275 3436 3711 
Q 2988 4147 2022 4147 
L 1259 4147 
z
M 628 4666 
L 1925 4666 
Q 3281 4666 3915 4102 
Q 4550 3538 4550 2338 
Q 4550 1131 3912 565 
Q 3275 0 1925 0 
L 628 0 
L 628 4666 
z
" id="DejaVuSans-44" transform="scale(0.015625)"/>
       <path d="M 2375 4863 
L 2375 4384 
L 1825 4384 
Q 1516 4384 1395 4259 
Q 1275 4134 1275 3809 
L 1275 3500 
L 2222 3500 
L 2222 3053 
L 1275 3053 
L 1275 0 
L 697 0 
L 697 3053 
L 147 3053 
L 147 3500 
L 697 3500 
L 697 3744 
Q 697 4328 969 4595 
Q 1241 4863 1831 4863 
L 2375 4863 
z
" id="DejaVuSans-66" transform="scale(0.015625)"/>
       <path d="M 2631 2963 
Q 2534 3019 2420 3045 
Q 2306 3072 2169 3072 
Q 1681 3072 1420 2755 
Q 1159 2438 1159 1844 
L 1159 0 
L 581 0 
L 581 3500 
L 1159 3500 
L 1159 2956 
Q 1341 3275 1631 3429 
Q 1922 3584 2338 3584 
Q 2397 3584 2469 3576 
Q 2541 3569 2628 3553 
L 2631 2963 
z
" id="DejaVuSans-72" transform="scale(0.015625)"/>
       <path d="M 3513 2113 
L 3513 0 
L 2938 0 
L 2938 2094 
Q 2938 2591 2744 2837 
Q 2550 3084 2163 3084 
Q 1697 3084 1428 2787 
Q 1159 2491 1159 1978 
L 1159 0 
L 581 0 
L 581 3500 
L 1159 3500 
L 1159 2956 
Q 1366 3272 1645 3428 
Q 1925 3584 2291 3584 
Q 2894 3584 3203 3211 
Q 3513 2838 3513 2113 
z
" id="DejaVuSans-6e" transform="scale(0.015625)"/>
       <path d="M 1172 4494 
L 1172 3500 
L 2356 3500 
L 2356 3053 
L 1172 3053 
L 1172 1153 
Q 1172 725 1289 603 
Q 1406 481 1766 481 
L 2356 481 
L 2356 0 
L 1766 0 
Q 1100 0 847 248 
Q 594 497 594 1153 
L 594 3053 
L 172 3053 
L 172 3500 
L 594 3500 
L 594 4494 
L 1172 4494 
z
" id="DejaVuSans-74" transform="scale(0.015625)"/>
       <path d="M 603 4863 
L 1178 4863 
L 1178 0 
L 603 0 
L 603 4863 
z
" id="DejaVuSans-6c" transform="scale(0.015625)"/>
       <path d="M 628 4666 
L 3578 4666 
L 3578 4134 
L 1259 4134 
L 1259 2753 
L 3481 2753 
L 3481 2222 
L 1259 2222 
L 1259 531 
L 3634 531 
L 3634 0 
L 628 0 
L 628 4666 
z
" id="DejaVuSans-45" transform="scale(0.015625)"/>
       <path d="M 947 1747 
Q 947 1113 1208 752 
Q 1469 391 1925 391 
Q 2381 391 2643 752 
Q 2906 1113 2906 1747 
Q 2906 2381 2643 2742 
Q 2381 3103 1925 3103 
Q 1469 3103 1208 2742 
Q 947 2381 947 1747 
z
M 2906 525 
Q 2725 213 2448 61 
Q 2172 -91 1784 -91 
Q 1150 -91 751 415 
Q 353 922 353 1747 
Q 353 2572 751 3078 
Q 1150 3584 1784 3584 
Q 2172 3584 2448 3432 
Q 2725 3281 2906 2969 
L 2906 3500 
L 3481 3500 
L 3481 -1331 
L 2906 -1331 
L 2906 525 
z
" id="DejaVuSans-71" transform="scale(0.015625)"/>
       <path d="M 544 1381 
L 544 3500 
L 1119 3500 
L 1119 1403 
Q 1119 906 1312 657 
Q 1506 409 1894 409 
Q 2359 409 2629 706 
Q 2900 1003 2900 1516 
L 2900 3500 
L 3475 3500 
L 3475 0 
L 2900 0 
L 2900 538 
Q 2691 219 2414 64 
Q 2138 -91 1772 -91 
Q 1169 -91 856 284 
Q 544 659 544 1381 
z
M 1991 3584 
L 1991 3584 
z
" id="DejaVuSans-75" transform="scale(0.015625)"/>
       <path d="M 1959 3097 
Q 1497 3097 1228 2736 
Q 959 2375 959 1747 
Q 959 1119 1226 758 
Q 1494 397 1959 397 
Q 2419 397 2687 759 
Q 2956 1122 2956 1747 
Q 2956 2369 2687 2733 
Q 2419 3097 1959 3097 
z
M 1959 3584 
Q 2709 3584 3137 3096 
Q 3566 2609 3566 1747 
Q 3566 888 3137 398 
Q 2709 -91 1959 -91 
Q 1206 -91 779 398 
Q 353 888 353 1747 
Q 353 2609 779 3096 
Q 1206 3584 1959 3584 
z
" id="DejaVuSans-6f" transform="scale(0.015625)"/>
      </defs>
      <use xlink:href="#DejaVuSans-44"/>
      <use x="77.001953" xlink:href="#DejaVuSans-69"/>
      <use x="104.785156" xlink:href="#DejaVuSans-66"/>
      <use x="139.990234" xlink:href="#DejaVuSans-66"/>
      <use x="175.195312" xlink:href="#DejaVuSans-65"/>
      <use x="236.71875" xlink:href="#DejaVuSans-72"/>
      <use x="275.582031" xlink:href="#DejaVuSans-65"/>
      <use x="337.105469" xlink:href="#DejaVuSans-6e"/>
      <use x="400.484375" xlink:href="#DejaVuSans-74"/>
      <use x="439.693359" xlink:href="#DejaVuSans-69"/>
      <use x="467.476562" xlink:href="#DejaVuSans-61"/>
      <use x="528.755859" xlink:href="#DejaVuSans-6c"/>
      <use x="556.539062" xlink:href="#DejaVuSans-45"/>
      <use x="619.722656" xlink:href="#DejaVuSans-71"/>
      <use x="683.199219" xlink:href="#DejaVuSans-75"/>
      <use x="746.578125" xlink:href="#DejaVuSans-61"/>
      <use x="807.857422" xlink:href="#DejaVuSans-74"/>
      <use x="847.066406" xlink:href="#DejaVuSans-69"/>
      <use x="874.849609" xlink:href="#DejaVuSans-6f"/>
      <use x="936.03125" xlink:href="#DejaVuSans-6e"/>
      <use x="999.410156" xlink:href="#DejaVuSans-73"/>
     </g>
    </g>
   </g>
  </g>
 </g>
 <defs>
  <clipPath id="p259b7bd2f2">
   <rect height="255.390709" width="357.804455" x="64.557544" y="2.834646"/>
  </clipPath>
 </defs>
</svg>
