<?xml version="1.0" encoding="utf-8" standalone="no"?>
<!DOCTYPE svg PUBLIC "-//W3C//DTD SVG 1.1//EN"
  "http://www.w3.org/Graphics/SVG/1.1/DTD/svg11.dtd">
<svg height="288pt" version="1.1" viewBox="0 0 432 288" width="432pt" xmlns="http://www.w3.org/2000/svg" xmlns:xlink="http://www.w3.org/1999/xlink">
 <metadata>
  <rdf:RDF xmlns:cc="http://creativecommons.org/ns#" xmlns:dc="http://purl.org/dc/elements/1.1/" xmlns:rdf="http://www.w3.org/1999/02/22-rdf-syntax-ns#">
   <cc:Work>
    <dc:type rdf:resource="http://purl.org/dc/dcmitype/StillImage"/>
    <dc:date>2021-11-10T23:10:50.790936</dc:date>
    <dc:format>image/svg+xml</dc:format>
    <dc:creator>
     <cc:Agent>
      <dc:title>Matplotlib v3.4.3, https://matplotlib.org/</dc:title>
     </cc:Agent>
    </dc:creator>
   </cc:Work>
  </rdf:RDF>
 </metadata>
 <defs>
  <style type="text/css">*{stroke-linecap:butt;stroke-linejoin:round;}</style>
 </defs>
 <g id="figure_1">
  <g id="patch_1">
   <path d="M 0 288 
L 432 288 
L 432 0 
L 0 0 
z
" style="fill:#ffffff;"/>
  </g>
  <g id="axes_1">
   <g id="patch_2">
    <path d="M 45.258227 258.225354 
L 419.805777 258.225354 
L 419.805777 2.834646 
L 45.258227 2.834646 
z
" style="fill:#ffffff;"/>
   </g>
   <g id="line2d_1">
    <path clip-path="url(#pc5e33fe7a0)" d="M 45.258227 240.144706 
L 45.632775 240.065931 
L 46.007322 239.528548 
L 46.756417 236.71846 
L 47.130965 236.252636 
L 47.505513 236.200024 
L 48.254608 235.672754 
L 52.374631 224.612497 
L 53.123726 223.721291 
L 53.872821 221.337008 
L 54.247368 219.873725 
L 54.621916 218.862046 
L 55.371011 217.893111 
L 55.745559 216.793047 
L 56.494654 213.881863 
L 56.869201 213.016541 
L 57.618296 212.208393 
L 57.992844 211.321663 
L 59.116487 207.428944 
L 59.865582 205.449548 
L 62.487415 197.582353 
L 63.23651 195.60761 
L 64.360152 191.240385 
L 65.109247 189.625087 
L 66.23289 185.757971 
L 66.607438 185.05328 
L 66.981985 184.835849 
L 67.356533 184.343828 
L 68.105628 181.851999 
L 68.854723 180.172246 
L 69.22927 179.773746 
L 69.603818 178.972293 
L 70.352913 176.557124 
L 71.102008 174.908113 
L 71.476556 174.24466 
L 71.851103 173.839544 
L 72.974746 171.300976 
L 73.723841 168.92794 
L 74.472936 167.301475 
L 75.222031 165.289564 
L 75.971126 162.815328 
L 76.720221 161.981898 
L 77.094769 161.135621 
L 78.218412 157.423238 
L 78.592959 157.270133 
L 78.967507 156.803533 
L 79.342054 155.864474 
L 80.465697 152.18534 
L 81.214792 151.461457 
L 81.58934 150.76593 
L 82.338435 148.76636 
L 83.08753 146.069232 
L 83.836625 144.070792 
L 84.58572 142.288151 
L 85.709363 137.787127 
L 86.458458 136.754093 
L 86.833005 135.770398 
L 87.956648 130.898906 
L 88.705743 129.290219 
L 89.080291 128.251417 
L 89.829386 124.856152 
L 90.203933 123.738139 
L 90.578481 123.165112 
L 90.953028 122.79628 
L 91.702123 121.146573 
L 92.451219 118.684032 
L 93.574861 116.176833 
L 93.949409 115.464385 
L 94.698504 113.002523 
L 95.447599 110.671051 
L 96.196694 109.970497 
L 96.571242 109.341 
L 97.694884 105.292412 
L 98.069432 104.5894 
L 98.443979 104.331929 
L 98.818527 103.459852 
L 99.567622 100.919538 
L 99.94217 100.089756 
L 100.691265 99.294435 
L 101.44036 97.769806 
L 101.814907 96.881758 
L 102.189455 96.343362 
L 103.313097 94.23642 
L 104.811288 91.67451 
L 105.185835 91.171537 
L 105.93493 90.864558 
L 106.309478 90.199105 
L 107.433121 86.955517 
L 108.182216 86.141864 
L 109.305858 82.347097 
L 109.680406 81.531544 
L 110.429501 80.759647 
L 112.676786 75.223178 
L 113.425881 72.600367 
L 114.549524 70.041567 
L 114.924072 69.461557 
L 116.047714 66.818761 
L 116.796809 64.473897 
L 117.545904 63.397205 
L 118.294999 61.138072 
L 119.044095 57.9967 
L 119.79319 57.136636 
L 120.167737 56.365035 
L 121.665927 50.91657 
L 122.040475 50.211591 
L 122.78957 47.723348 
L 123.538665 45.182171 
L 125.78595 40.322904 
L 126.535046 38.182196 
L 127.658688 36.315234 
L 128.782331 32.886616 
L 129.156878 32.673573 
L 129.531426 32.787312 
L 129.905974 32.379872 
L 130.280521 31.256115 
L 131.029616 28.467543 
L 131.778711 27.726122 
L 132.153259 26.880272 
L 132.902354 24.157936 
L 133.276901 22.809431 
L 135.149639 19.395565 
L 136.273282 16.117787 
L 136.647829 15.266797 
L 137.396925 14.252313 
L 138.14602 11.611913 
L 138.520567 10.677097 
L 138.895115 10.062685 
L 139.269662 10.147447 
L 139.64421 10.604275 
L 140.393305 13.305438 
L 140.767852 13.202221 
L 141.1424 12.542224 
L 141.516948 12.441947 
L 141.891495 12.03784 
L 142.266043 12.303561 
L 142.64059 13.226348 
L 143.015138 13.688565 
L 144.13878 16.401006 
L 144.513328 16.873141 
L 144.887876 17.665616 
L 145.262423 18.833038 
L 145.636971 19.097501 
L 146.011518 19.772255 
L 146.386066 19.230038 
L 146.760613 19.077456 
L 147.509708 21.297373 
L 147.884256 22.72113 
L 148.258803 23.295162 
L 149.007899 23.851927 
L 149.382446 25.144061 
L 150.131541 28.25978 
L 150.506089 28.851469 
L 151.255184 28.829687 
L 151.629731 29.293972 
L 152.378827 31.532093 
L 153.502469 36.061747 
L 153.877017 37.290471 
L 154.251564 38.103916 
L 155.749754 43.977514 
L 156.124302 44.457263 
L 156.873397 46.030252 
L 157.99704 51.749067 
L 159.120682 55.707604 
L 159.49523 57.481082 
L 160.244325 59.343095 
L 160.618873 59.554545 
L 160.99342 60.108221 
L 161.742515 62.878202 
L 162.866158 66.073915 
L 164.364348 70.982836 
L 165.113443 73.063664 
L 165.487991 73.162735 
L 165.862538 73.846273 
L 166.237086 74.24686 
L 166.611633 74.95373 
L 167.735276 79.277649 
L 168.109824 80.249154 
L 169.233466 83.919803 
L 169.608014 84.837134 
L 169.982561 84.881205 
L 170.357109 85.152958 
L 171.855299 89.187723 
L 172.229847 89.031431 
L 172.604394 89.741271 
L 173.728037 94.213024 
L 174.102584 95.005257 
L 174.477132 95.221588 
L 174.85168 95.188577 
L 175.600775 96.613417 
L 175.975322 97.289339 
L 177.098965 101.881856 
L 178.222607 104.91613 
L 179.34625 109.768452 
L 180.095345 110.491118 
L 180.469893 111.60489 
L 181.593535 116.853769 
L 181.968083 117.757786 
L 182.717178 121.007344 
L 183.466273 125.270404 
L 183.840821 126.431488 
L 184.215368 126.912528 
L 184.589916 127.164757 
L 185.339011 128.908429 
L 186.837201 134.956176 
L 187.586296 136.872324 
L 187.960844 138.290474 
L 188.709939 142.328582 
L 189.084486 143.504553 
L 189.833582 143.686783 
L 190.208129 144.218683 
L 191.331772 149.307501 
L 191.706319 150.343987 
L 192.080867 150.7951 
L 193.579057 155.593134 
L 193.953605 155.731276 
L 195.826342 158.20679 
L 196.575437 160.374463 
L 197.324533 161.313058 
L 197.69908 161.71257 
L 198.448175 162.828316 
L 198.822723 163.037502 
L 199.571818 161.677645 
L 199.946365 161.963932 
L 201.070008 165.122149 
L 201.444556 165.327722 
L 201.819103 165.343572 
L 202.193651 166.603323 
L 202.568198 167.407863 
L 202.942746 168.480488 
L 203.317293 168.848125 
L 203.691841 168.989677 
L 204.066388 168.912533 
L 204.440936 169.137528 
L 204.815484 169.706847 
L 205.190031 169.598173 
L 205.564579 170.388737 
L 207.062769 174.778736 
L 207.811864 175.668761 
L 208.186412 176.418124 
L 208.560959 176.638 
L 208.935507 177.012219 
L 209.684602 178.204708 
L 210.059149 179.179756 
L 210.433697 180.470849 
L 211.182792 181.191008 
L 211.931887 184.015887 
L 212.680982 187.313674 
L 213.05553 187.439402 
L 213.430077 187.68556 
L 213.804625 188.311145 
L 214.55372 191.317931 
L 215.677363 194.702429 
L 216.426458 198.297904 
L 217.175553 200.639684 
L 217.924648 202.156977 
L 219.04829 204.492897 
L 219.797386 206.802892 
L 220.171933 207.965141 
L 220.921028 209.362356 
L 221.670123 212.28256 
L 222.044671 214.022713 
L 222.419218 214.628827 
L 222.793766 214.442759 
L 223.168314 213.836049 
L 223.542861 214.30382 
L 224.666504 218.47308 
L 225.041051 218.762653 
L 225.415599 219.235563 
L 226.164694 221.720267 
L 226.913789 224.542555 
L 227.288337 225.28635 
L 227.662884 225.488617 
L 228.037432 225.943046 
L 228.411979 226.002398 
L 228.786527 226.431828 
L 230.284717 230.919842 
L 231.033812 231.605101 
L 231.782907 234.639005 
L 232.157455 235.221179 
L 232.532002 235.344838 
L 232.90655 234.866416 
L 233.281097 234.689736 
L 234.40474 235.395811 
L 235.528383 237.307743 
L 235.90293 238.41015 
L 236.277478 238.924261 
L 236.652025 239.045809 
L 237.40112 238.823307 
L 237.775668 238.367738 
L 238.150216 238.347983 
L 238.899311 238.810898 
L 239.648406 241.2706 
L 240.022953 242.421759 
L 240.772048 243.240027 
L 241.521143 243.928233 
L 241.895691 244.874823 
L 242.644786 244.987469 
L 243.393881 244.445013 
L 243.768429 244.730864 
L 244.142976 245.267587 
L 245.641167 249.134787 
L 246.015714 249.430798 
L 246.764809 248.959661 
L 247.139357 248.760256 
L 247.513904 248.73301 
L 247.888452 249.062658 
L 248.262999 248.926882 
L 249.012094 249.261936 
L 249.76119 250.343668 
L 250.135737 250.548679 
L 250.510285 250.997315 
L 250.884832 250.68851 
L 251.25938 250.826987 
L 251.633927 250.696802 
L 252.75757 249.039618 
L 253.506665 248.869803 
L 255.004855 250.239274 
L 255.379403 250.043892 
L 255.75395 249.615248 
L 256.877593 247.273299 
L 257.252141 247.053383 
L 258.375783 245.734181 
L 258.750331 245.197963 
L 259.873973 246.53171 
L 260.623069 245.955962 
L 260.997616 245.200883 
L 261.372164 244.087859 
L 261.746711 243.54205 
L 262.121259 242.553823 
L 262.495806 242.209069 
L 262.870354 242.301857 
L 263.244901 242.182668 
L 263.619449 242.301618 
L 263.993996 242.065399 
L 264.743092 241.978691 
L 265.117639 242.367425 
L 265.492187 242.459379 
L 266.241282 241.448207 
L 266.990377 239.916207 
L 267.739472 239.559979 
L 268.11402 239.353997 
L 268.863115 240.210335 
L 269.61221 240.78051 
L 269.986757 240.517194 
L 270.361305 240.047191 
L 270.735852 239.357465 
L 271.1104 239.058634 
L 271.484947 238.369285 
L 271.859495 238.042668 
L 272.234043 238.189521 
L 272.60859 238.145941 
L 272.983138 238.536218 
L 273.732233 238.527276 
L 274.10678 238.506018 
L 274.481328 238.844615 
L 274.855875 239.380503 
L 275.230423 239.370346 
L 275.604971 239.011491 
L 276.728613 236.141929 
L 277.103161 235.957179 
L 277.477708 236.095046 
L 277.852256 236.452424 
L 278.226803 237.036727 
L 278.975898 237.464993 
L 279.724994 236.756748 
L 280.099541 236.166896 
L 280.848636 235.763182 
L 281.972279 233.626397 
L 282.346826 233.298812 
L 282.721374 233.357004 
L 283.095922 233.773365 
L 283.470469 233.91706 
L 284.219564 234.026992 
L 284.968659 233.460424 
L 285.717754 232.026545 
L 286.092302 231.196005 
L 286.466849 230.855744 
L 287.215945 230.81937 
L 287.590492 231.257277 
L 287.96504 231.4249 
L 288.714135 231.937092 
L 289.46323 231.577658 
L 289.837777 231.153596 
L 290.212325 231.111875 
L 290.586873 230.718677 
L 290.96142 230.486623 
L 291.335968 229.896832 
L 291.710515 229.531327 
L 292.085063 229.913635 
L 292.45961 230.579818 
L 293.208705 232.409799 
L 293.583253 232.817566 
L 294.706896 232.687898 
L 295.081443 232.356879 
L 295.455991 232.473617 
L 295.830538 232.38156 
L 296.205086 232.695029 
L 296.579633 232.842518 
L 296.954181 233.315978 
L 297.328728 233.547358 
L 297.703276 234.380484 
L 298.077824 235.75879 
L 298.826919 237.818414 
L 299.201466 237.8582 
L 299.950561 237.475788 
L 300.325109 237.46474 
L 300.699656 237.798084 
L 301.074204 237.971865 
L 302.197847 240.046454 
L 302.572394 241.245495 
L 304.070584 243.197747 
L 304.445132 243.373386 
L 304.819679 243.742917 
L 305.194227 243.59934 
L 305.568775 243.582288 
L 306.31787 244.023967 
L 307.066965 244.776121 
L 308.190607 247.549354 
L 308.565155 248.021868 
L 309.31425 247.126759 
L 309.688798 246.286109 
L 310.437893 246.364853 
L 311.186988 247.265672 
L 311.561535 247.378962 
L 311.936083 247.842002 
L 312.685178 248.143092 
L 313.808821 248.866553 
L 314.183368 248.581895 
L 314.557916 248.049931 
L 315.307011 246.321178 
L 315.681558 246.25708 
L 316.430653 246.899465 
L 316.805201 247.406579 
L 317.554296 247.563306 
L 317.928844 247.944625 
L 318.677939 247.370424 
L 319.052486 246.585494 
L 319.801581 245.650873 
L 320.176129 245.433677 
L 320.550677 245.588068 
L 320.925224 245.172522 
L 321.674319 245.755327 
L 322.048867 245.979988 
L 322.423414 246.382209 
L 323.547057 246.072922 
L 323.921604 245.799836 
L 324.6707 244.476295 
L 325.045247 244.117589 
L 325.419795 244.110835 
L 326.16889 245.402832 
L 326.543437 245.67896 
L 327.292532 245.844047 
L 327.66708 245.545607 
L 328.041628 245.726357 
L 328.416175 245.602919 
L 328.790723 245.048492 
L 329.16527 244.712666 
L 329.539818 244.08174 
L 330.288913 243.315011 
L 331.038008 244.140461 
L 331.787103 245.809498 
L 332.161651 245.669524 
L 332.536198 245.334059 
L 333.659841 243.813296 
L 334.034388 243.532916 
L 334.783483 242.445387 
L 335.532579 242.238618 
L 337.030769 242.779913 
L 337.405316 242.919521 
L 337.779864 242.746341 
L 339.278054 239.263834 
L 340.027149 238.465214 
L 340.776244 238.357704 
L 341.150792 238.8613 
L 341.525339 238.802585 
L 341.899887 238.497024 
L 343.02353 235.894321 
L 343.398077 235.459915 
L 343.772625 235.262903 
L 344.896267 233.355772 
L 345.270815 232.904534 
L 345.645362 232.974531 
L 346.01991 233.211427 
L 346.394457 233.677791 
L 346.769005 233.508012 
L 347.143553 233.634398 
L 347.5181 232.766834 
L 348.267195 230.673443 
L 348.641743 229.754787 
L 349.01629 229.609032 
L 349.390838 229.63488 
L 349.765385 230.0076 
L 350.139933 229.796448 
L 351.638123 230.863795 
L 352.012671 230.812792 
L 352.761766 230.067559 
L 353.136313 229.883659 
L 353.510861 229.327052 
L 353.885408 229.128143 
L 354.634504 229.106891 
L 355.758146 231.182422 
L 356.881789 232.464946 
L 357.256336 232.367267 
L 357.630884 232.392935 
L 358.005432 231.798714 
L 358.379979 231.895848 
L 359.129074 232.841281 
L 359.503622 233.78391 
L 359.878169 233.959446 
L 360.627264 235.01556 
L 361.001812 236.121453 
L 361.750907 237.192735 
L 362.125455 237.284977 
L 362.500002 236.804321 
L 362.87455 236.557552 
L 363.249097 236.562676 
L 363.623645 236.750094 
L 363.998192 237.201558 
L 364.747287 239.118525 
L 365.496383 240.46535 
L 365.87093 240.502346 
L 366.245478 240.822946 
L 366.620025 240.987623 
L 366.994573 241.539895 
L 367.743668 241.10921 
L 368.492763 240.307933 
L 369.616406 241.918507 
L 370.365501 243.353213 
L 370.740048 244.009216 
L 371.489143 243.955236 
L 372.238238 242.961123 
L 373.361881 242.713916 
L 373.736429 242.916485 
L 374.485524 243.687961 
L 374.860071 244.151582 
L 375.234619 244.276055 
L 375.983714 244.175995 
L 376.358261 244.53456 
L 376.732809 244.654833 
L 377.481904 244.069787 
L 377.856452 243.083604 
L 378.230999 242.871558 
L 378.605547 243.19452 
L 378.980094 243.828745 
L 379.354642 244.708175 
L 380.103737 245.983445 
L 380.478285 245.744068 
L 380.852832 245.658925 
L 381.22738 245.227217 
L 381.601927 244.579809 
L 382.351022 244.846937 
L 383.100117 245.164369 
L 383.849212 245.33205 
L 384.22376 245.988642 
L 384.972855 247.612417 
L 385.347403 247.964463 
L 385.72195 247.993987 
L 386.096498 247.7514 
L 386.471045 247.210788 
L 386.845593 247.131256 
L 387.22014 246.540743 
L 387.594688 246.449952 
L 388.343783 247.032658 
L 389.092878 248.30137 
L 389.467426 248.908944 
L 390.216521 249.499977 
L 390.591068 249.491004 
L 390.965616 248.958645 
L 391.340163 248.683613 
L 391.714711 248.175632 
L 392.838354 247.7729 
L 393.212901 247.553671 
L 393.587449 247.750113 
L 393.961996 248.210633 
L 394.711091 249.379946 
L 395.085639 249.218802 
L 395.834734 247.918876 
L 396.583829 246.533547 
L 396.958377 246.009624 
L 397.332924 245.936926 
L 397.707472 245.507879 
L 398.082019 245.70219 
L 399.205662 244.997351 
L 399.58021 244.893542 
L 399.954757 245.019813 
L 400.329305 244.615245 
L 400.703852 243.999154 
L 401.452947 241.170511 
L 401.827495 240.345755 
L 402.202042 239.822282 
L 403.325685 239.884174 
L 403.700233 239.616138 
L 404.07478 239.667375 
L 404.449328 239.2779 
L 405.947518 236.509432 
L 406.322066 235.564128 
L 406.696613 235.036843 
L 407.071161 234.237062 
L 407.445708 233.821808 
L 408.569351 233.805898 
L 409.692993 234.040826 
L 410.067541 233.818236 
L 410.442089 233.100025 
L 410.816636 231.842948 
L 411.191184 231.013731 
L 411.565731 230.506036 
L 411.940279 230.517612 
L 412.689374 231.399052 
L 413.438469 231.550266 
L 413.813017 231.74958 
L 414.187564 231.393636 
L 415.685754 231.539273 
L 416.434849 231.010293 
L 416.809397 230.243094 
L 417.93304 232.425381 
L 418.307587 233.372639 
L 419.056682 233.632202 
L 419.43123 233.421333 
L 419.805777 233.461022 
L 419.805777 233.461022 
" style="fill:none;stroke:#009afa;"/>
   </g>
   <g id="matplotlib.axis_1">
    <g id="xtick_1">
     <g id="line2d_2">
      <defs>
       <path d="M 0 0 
L 0 -2.5 
" id="m2f2187ca23" style="stroke:#000000;stroke-width:0.5;"/>
      </defs>
      <g>
       <use style="stroke:#000000;stroke-width:0.5;" x="45.258227" xlink:href="#m2f2187ca23" y="258.225354"/>
      </g>
     </g>
     <g id="text_1">
      <!-- $0.00$ -->
      <g transform="translate(36.338227 267.804104)scale(0.08 -0.08)">
       <defs>
        <path d="M 2034 4250 
Q 1547 4250 1301 3770 
Q 1056 3291 1056 2328 
Q 1056 1369 1301 889 
Q 1547 409 2034 409 
Q 2525 409 2770 889 
Q 3016 1369 3016 2328 
Q 3016 3291 2770 3770 
Q 2525 4250 2034 4250 
z
M 2034 4750 
Q 2819 4750 3233 4129 
Q 3647 3509 3647 2328 
Q 3647 1150 3233 529 
Q 2819 -91 2034 -91 
Q 1250 -91 836 529 
Q 422 1150 422 2328 
Q 422 3509 836 4129 
Q 1250 4750 2034 4750 
z
" id="DejaVuSans-30" transform="scale(0.015625)"/>
        <path d="M 684 794 
L 1344 794 
L 1344 0 
L 684 0 
L 684 794 
z
" id="DejaVuSans-2e" transform="scale(0.015625)"/>
       </defs>
       <use transform="translate(0 0.78125)" xlink:href="#DejaVuSans-30"/>
       <use transform="translate(63.623047 0.78125)" xlink:href="#DejaVuSans-2e"/>
       <use transform="translate(95.410156 0.78125)" xlink:href="#DejaVuSans-30"/>
       <use transform="translate(159.033203 0.78125)" xlink:href="#DejaVuSans-30"/>
      </g>
     </g>
    </g>
    <g id="xtick_2">
     <g id="line2d_3">
      <g>
       <use style="stroke:#000000;stroke-width:0.5;" x="138.895115" xlink:href="#m2f2187ca23" y="258.225354"/>
      </g>
     </g>
     <g id="text_2">
      <!-- $0.01$ -->
      <g transform="translate(129.975115 267.804104)scale(0.08 -0.08)">
       <defs>
        <path d="M 794 531 
L 1825 531 
L 1825 4091 
L 703 3866 
L 703 4441 
L 1819 4666 
L 2450 4666 
L 2450 531 
L 3481 531 
L 3481 0 
L 794 0 
L 794 531 
z
" id="DejaVuSans-31" transform="scale(0.015625)"/>
       </defs>
       <use transform="translate(0 0.78125)" xlink:href="#DejaVuSans-30"/>
       <use transform="translate(63.623047 0.78125)" xlink:href="#DejaVuSans-2e"/>
       <use transform="translate(95.410156 0.78125)" xlink:href="#DejaVuSans-30"/>
       <use transform="translate(159.033203 0.78125)" xlink:href="#DejaVuSans-31"/>
      </g>
     </g>
    </g>
    <g id="xtick_3">
     <g id="line2d_4">
      <g>
       <use style="stroke:#000000;stroke-width:0.5;" x="232.532002" xlink:href="#m2f2187ca23" y="258.225354"/>
      </g>
     </g>
     <g id="text_3">
      <!-- $0.02$ -->
      <g transform="translate(223.612002 267.804104)scale(0.08 -0.08)">
       <defs>
        <path d="M 1228 531 
L 3431 531 
L 3431 0 
L 469 0 
L 469 531 
Q 828 903 1448 1529 
Q 2069 2156 2228 2338 
Q 2531 2678 2651 2914 
Q 2772 3150 2772 3378 
Q 2772 3750 2511 3984 
Q 2250 4219 1831 4219 
Q 1534 4219 1204 4116 
Q 875 4013 500 3803 
L 500 4441 
Q 881 4594 1212 4672 
Q 1544 4750 1819 4750 
Q 2544 4750 2975 4387 
Q 3406 4025 3406 3419 
Q 3406 3131 3298 2873 
Q 3191 2616 2906 2266 
Q 2828 2175 2409 1742 
Q 1991 1309 1228 531 
z
" id="DejaVuSans-32" transform="scale(0.015625)"/>
       </defs>
       <use transform="translate(0 0.78125)" xlink:href="#DejaVuSans-30"/>
       <use transform="translate(63.623047 0.78125)" xlink:href="#DejaVuSans-2e"/>
       <use transform="translate(95.410156 0.78125)" xlink:href="#DejaVuSans-30"/>
       <use transform="translate(159.033203 0.78125)" xlink:href="#DejaVuSans-32"/>
      </g>
     </g>
    </g>
    <g id="xtick_4">
     <g id="line2d_5">
      <g>
       <use style="stroke:#000000;stroke-width:0.5;" x="326.16889" xlink:href="#m2f2187ca23" y="258.225354"/>
      </g>
     </g>
     <g id="text_4">
      <!-- $0.03$ -->
      <g transform="translate(317.24889 267.804104)scale(0.08 -0.08)">
       <defs>
        <path d="M 2597 2516 
Q 3050 2419 3304 2112 
Q 3559 1806 3559 1356 
Q 3559 666 3084 287 
Q 2609 -91 1734 -91 
Q 1441 -91 1130 -33 
Q 819 25 488 141 
L 488 750 
Q 750 597 1062 519 
Q 1375 441 1716 441 
Q 2309 441 2620 675 
Q 2931 909 2931 1356 
Q 2931 1769 2642 2001 
Q 2353 2234 1838 2234 
L 1294 2234 
L 1294 2753 
L 1863 2753 
Q 2328 2753 2575 2939 
Q 2822 3125 2822 3475 
Q 2822 3834 2567 4026 
Q 2313 4219 1838 4219 
Q 1578 4219 1281 4162 
Q 984 4106 628 3988 
L 628 4550 
Q 988 4650 1302 4700 
Q 1616 4750 1894 4750 
Q 2613 4750 3031 4423 
Q 3450 4097 3450 3541 
Q 3450 3153 3228 2886 
Q 3006 2619 2597 2516 
z
" id="DejaVuSans-33" transform="scale(0.015625)"/>
       </defs>
       <use transform="translate(0 0.78125)" xlink:href="#DejaVuSans-30"/>
       <use transform="translate(63.623047 0.78125)" xlink:href="#DejaVuSans-2e"/>
       <use transform="translate(95.410156 0.78125)" xlink:href="#DejaVuSans-30"/>
       <use transform="translate(159.033203 0.78125)" xlink:href="#DejaVuSans-33"/>
      </g>
     </g>
    </g>
    <g id="xtick_5">
     <g id="line2d_6">
      <g>
       <use style="stroke:#000000;stroke-width:0.5;" x="419.805777" xlink:href="#m2f2187ca23" y="258.225354"/>
      </g>
     </g>
     <g id="text_5">
      <!-- $0.04$ -->
      <g transform="translate(410.885777 267.804104)scale(0.08 -0.08)">
       <defs>
        <path d="M 2419 4116 
L 825 1625 
L 2419 1625 
L 2419 4116 
z
M 2253 4666 
L 3047 4666 
L 3047 1625 
L 3713 1625 
L 3713 1100 
L 3047 1100 
L 3047 0 
L 2419 0 
L 2419 1100 
L 313 1100 
L 313 1709 
L 2253 4666 
z
" id="DejaVuSans-34" transform="scale(0.015625)"/>
       </defs>
       <use transform="translate(0 0.78125)" xlink:href="#DejaVuSans-30"/>
       <use transform="translate(63.623047 0.78125)" xlink:href="#DejaVuSans-2e"/>
       <use transform="translate(95.410156 0.78125)" xlink:href="#DejaVuSans-30"/>
       <use transform="translate(159.033203 0.78125)" xlink:href="#DejaVuSans-34"/>
      </g>
     </g>
    </g>
    <g id="text_6">
     <!-- Time (s) -->
     <g transform="translate(210.170205 281.826136)scale(0.11 -0.11)">
      <defs>
       <path d="M -19 4666 
L 3928 4666 
L 3928 4134 
L 2272 4134 
L 2272 0 
L 1638 0 
L 1638 4134 
L -19 4134 
L -19 4666 
z
" id="DejaVuSans-54" transform="scale(0.015625)"/>
       <path d="M 603 3500 
L 1178 3500 
L 1178 0 
L 603 0 
L 603 3500 
z
M 603 4863 
L 1178 4863 
L 1178 4134 
L 603 4134 
L 603 4863 
z
" id="DejaVuSans-69" transform="scale(0.015625)"/>
       <path d="M 3328 2828 
Q 3544 3216 3844 3400 
Q 4144 3584 4550 3584 
Q 5097 3584 5394 3201 
Q 5691 2819 5691 2113 
L 5691 0 
L 5113 0 
L 5113 2094 
Q 5113 2597 4934 2840 
Q 4756 3084 4391 3084 
Q 3944 3084 3684 2787 
Q 3425 2491 3425 1978 
L 3425 0 
L 2847 0 
L 2847 2094 
Q 2847 2600 2669 2842 
Q 2491 3084 2119 3084 
Q 1678 3084 1418 2786 
Q 1159 2488 1159 1978 
L 1159 0 
L 581 0 
L 581 3500 
L 1159 3500 
L 1159 2956 
Q 1356 3278 1631 3431 
Q 1906 3584 2284 3584 
Q 2666 3584 2933 3390 
Q 3200 3197 3328 2828 
z
" id="DejaVuSans-6d" transform="scale(0.015625)"/>
       <path d="M 3597 1894 
L 3597 1613 
L 953 1613 
Q 991 1019 1311 708 
Q 1631 397 2203 397 
Q 2534 397 2845 478 
Q 3156 559 3463 722 
L 3463 178 
Q 3153 47 2828 -22 
Q 2503 -91 2169 -91 
Q 1331 -91 842 396 
Q 353 884 353 1716 
Q 353 2575 817 3079 
Q 1281 3584 2069 3584 
Q 2775 3584 3186 3129 
Q 3597 2675 3597 1894 
z
M 3022 2063 
Q 3016 2534 2758 2815 
Q 2500 3097 2075 3097 
Q 1594 3097 1305 2825 
Q 1016 2553 972 2059 
L 3022 2063 
z
" id="DejaVuSans-65" transform="scale(0.015625)"/>
       <path id="DejaVuSans-20" transform="scale(0.015625)"/>
       <path d="M 1984 4856 
Q 1566 4138 1362 3434 
Q 1159 2731 1159 2009 
Q 1159 1288 1364 580 
Q 1569 -128 1984 -844 
L 1484 -844 
Q 1016 -109 783 600 
Q 550 1309 550 2009 
Q 550 2706 781 3412 
Q 1013 4119 1484 4856 
L 1984 4856 
z
" id="DejaVuSans-28" transform="scale(0.015625)"/>
       <path d="M 2834 3397 
L 2834 2853 
Q 2591 2978 2328 3040 
Q 2066 3103 1784 3103 
Q 1356 3103 1142 2972 
Q 928 2841 928 2578 
Q 928 2378 1081 2264 
Q 1234 2150 1697 2047 
L 1894 2003 
Q 2506 1872 2764 1633 
Q 3022 1394 3022 966 
Q 3022 478 2636 193 
Q 2250 -91 1575 -91 
Q 1294 -91 989 -36 
Q 684 19 347 128 
L 347 722 
Q 666 556 975 473 
Q 1284 391 1588 391 
Q 1994 391 2212 530 
Q 2431 669 2431 922 
Q 2431 1156 2273 1281 
Q 2116 1406 1581 1522 
L 1381 1569 
Q 847 1681 609 1914 
Q 372 2147 372 2553 
Q 372 3047 722 3315 
Q 1072 3584 1716 3584 
Q 2034 3584 2315 3537 
Q 2597 3491 2834 3397 
z
" id="DejaVuSans-73" transform="scale(0.015625)"/>
       <path d="M 513 4856 
L 1013 4856 
Q 1481 4119 1714 3412 
Q 1947 2706 1947 2009 
Q 1947 1309 1714 600 
Q 1481 -109 1013 -844 
L 513 -844 
Q 928 -128 1133 580 
Q 1338 1288 1338 2009 
Q 1338 2731 1133 3434 
Q 928 4138 513 4856 
z
" id="DejaVuSans-29" transform="scale(0.015625)"/>
      </defs>
      <use xlink:href="#DejaVuSans-54"/>
      <use x="57.958984" xlink:href="#DejaVuSans-69"/>
      <use x="85.742188" xlink:href="#DejaVuSans-6d"/>
      <use x="183.154297" xlink:href="#DejaVuSans-65"/>
      <use x="244.677734" xlink:href="#DejaVuSans-20"/>
      <use x="276.464844" xlink:href="#DejaVuSans-28"/>
      <use x="315.478516" xlink:href="#DejaVuSans-73"/>
      <use x="367.578125" xlink:href="#DejaVuSans-29"/>
     </g>
    </g>
   </g>
   <g id="matplotlib.axis_2">
    <g id="ytick_1">
     <g id="line2d_7">
      <defs>
       <path d="M 0 0 
L 2.5 0 
" id="m8c2d32ef40" style="stroke:#000000;stroke-width:0.5;"/>
      </defs>
      <g>
       <use style="stroke:#000000;stroke-width:0.5;" x="45.258227" xlink:href="#m8c2d32ef40" y="240.144706"/>
      </g>
     </g>
     <g id="text_7">
      <!-- $0$ -->
      <g transform="translate(36.638227 243.184081)scale(0.08 -0.08)">
       <use transform="translate(0 0.78125)" xlink:href="#DejaVuSans-30"/>
      </g>
     </g>
    </g>
    <g id="ytick_2">
     <g id="line2d_8">
      <g>
       <use style="stroke:#000000;stroke-width:0.5;" x="45.258227" xlink:href="#m8c2d32ef40" y="181.878307"/>
      </g>
     </g>
     <g id="text_8">
      <!-- $2000$ -->
      <g transform="translate(21.358227 184.917682)scale(0.08 -0.08)">
       <use transform="translate(0 0.78125)" xlink:href="#DejaVuSans-32"/>
       <use transform="translate(63.623047 0.78125)" xlink:href="#DejaVuSans-30"/>
       <use transform="translate(127.246094 0.78125)" xlink:href="#DejaVuSans-30"/>
       <use transform="translate(190.869141 0.78125)" xlink:href="#DejaVuSans-30"/>
      </g>
     </g>
    </g>
    <g id="ytick_3">
     <g id="line2d_9">
      <g>
       <use style="stroke:#000000;stroke-width:0.5;" x="45.258227" xlink:href="#m8c2d32ef40" y="123.611908"/>
      </g>
     </g>
     <g id="text_9">
      <!-- $4000$ -->
      <g transform="translate(21.358227 126.651283)scale(0.08 -0.08)">
       <use transform="translate(0 0.78125)" xlink:href="#DejaVuSans-34"/>
       <use transform="translate(63.623047 0.78125)" xlink:href="#DejaVuSans-30"/>
       <use transform="translate(127.246094 0.78125)" xlink:href="#DejaVuSans-30"/>
       <use transform="translate(190.869141 0.78125)" xlink:href="#DejaVuSans-30"/>
      </g>
     </g>
    </g>
    <g id="ytick_4">
     <g id="line2d_10">
      <g>
       <use style="stroke:#000000;stroke-width:0.5;" x="45.258227" xlink:href="#m8c2d32ef40" y="65.345509"/>
      </g>
     </g>
     <g id="text_10">
      <!-- $6000$ -->
      <g transform="translate(21.358227 68.384884)scale(0.08 -0.08)">
       <defs>
        <path d="M 2113 2584 
Q 1688 2584 1439 2293 
Q 1191 2003 1191 1497 
Q 1191 994 1439 701 
Q 1688 409 2113 409 
Q 2538 409 2786 701 
Q 3034 994 3034 1497 
Q 3034 2003 2786 2293 
Q 2538 2584 2113 2584 
z
M 3366 4563 
L 3366 3988 
Q 3128 4100 2886 4159 
Q 2644 4219 2406 4219 
Q 1781 4219 1451 3797 
Q 1122 3375 1075 2522 
Q 1259 2794 1537 2939 
Q 1816 3084 2150 3084 
Q 2853 3084 3261 2657 
Q 3669 2231 3669 1497 
Q 3669 778 3244 343 
Q 2819 -91 2113 -91 
Q 1303 -91 875 529 
Q 447 1150 447 2328 
Q 447 3434 972 4092 
Q 1497 4750 2381 4750 
Q 2619 4750 2861 4703 
Q 3103 4656 3366 4563 
z
" id="DejaVuSans-36" transform="scale(0.015625)"/>
       </defs>
       <use transform="translate(0 0.78125)" xlink:href="#DejaVuSans-36"/>
       <use transform="translate(63.623047 0.78125)" xlink:href="#DejaVuSans-30"/>
       <use transform="translate(127.246094 0.78125)" xlink:href="#DejaVuSans-30"/>
       <use transform="translate(190.869141 0.78125)" xlink:href="#DejaVuSans-30"/>
      </g>
     </g>
    </g>
    <g id="ytick_5">
     <g id="line2d_11">
      <g>
       <use style="stroke:#000000;stroke-width:0.5;" x="45.258227" xlink:href="#m8c2d32ef40" y="7.079109"/>
      </g>
     </g>
     <g id="text_11">
      <!-- $8000$ -->
      <g transform="translate(21.358227 10.118484)scale(0.08 -0.08)">
       <defs>
        <path d="M 2034 2216 
Q 1584 2216 1326 1975 
Q 1069 1734 1069 1313 
Q 1069 891 1326 650 
Q 1584 409 2034 409 
Q 2484 409 2743 651 
Q 3003 894 3003 1313 
Q 3003 1734 2745 1975 
Q 2488 2216 2034 2216 
z
M 1403 2484 
Q 997 2584 770 2862 
Q 544 3141 544 3541 
Q 544 4100 942 4425 
Q 1341 4750 2034 4750 
Q 2731 4750 3128 4425 
Q 3525 4100 3525 3541 
Q 3525 3141 3298 2862 
Q 3072 2584 2669 2484 
Q 3125 2378 3379 2068 
Q 3634 1759 3634 1313 
Q 3634 634 3220 271 
Q 2806 -91 2034 -91 
Q 1263 -91 848 271 
Q 434 634 434 1313 
Q 434 1759 690 2068 
Q 947 2378 1403 2484 
z
M 1172 3481 
Q 1172 3119 1398 2916 
Q 1625 2713 2034 2713 
Q 2441 2713 2670 2916 
Q 2900 3119 2900 3481 
Q 2900 3844 2670 4047 
Q 2441 4250 2034 4250 
Q 1625 4250 1398 4047 
Q 1172 3844 1172 3481 
z
" id="DejaVuSans-38" transform="scale(0.015625)"/>
       </defs>
       <use transform="translate(0 0.78125)" xlink:href="#DejaVuSans-38"/>
       <use transform="translate(63.623047 0.78125)" xlink:href="#DejaVuSans-30"/>
       <use transform="translate(127.246094 0.78125)" xlink:href="#DejaVuSans-30"/>
       <use transform="translate(190.869141 0.78125)" xlink:href="#DejaVuSans-30"/>
      </g>
     </g>
    </g>
    <g id="text_12">
     <!-- $F_x$ at the forewing root ($N$) -->
     <g transform="translate(15.048227 202.965)rotate(-90)scale(0.11 -0.11)">
      <defs>
       <path d="M 1081 4666 
L 3756 4666 
L 3653 4134 
L 1606 4134 
L 1338 2759 
L 3188 2759 
L 3084 2228 
L 1234 2228 
L 800 0 
L 172 0 
L 1081 4666 
z
" id="DejaVuSans-Oblique-46" transform="scale(0.015625)"/>
       <path d="M 3841 3500 
L 2234 1784 
L 3219 0 
L 2559 0 
L 1819 1388 
L 531 0 
L -166 0 
L 1556 1844 
L 641 3500 
L 1300 3500 
L 1972 2234 
L 3144 3500 
L 3841 3500 
z
" id="DejaVuSans-Oblique-78" transform="scale(0.015625)"/>
       <path d="M 2194 1759 
Q 1497 1759 1228 1600 
Q 959 1441 959 1056 
Q 959 750 1161 570 
Q 1363 391 1709 391 
Q 2188 391 2477 730 
Q 2766 1069 2766 1631 
L 2766 1759 
L 2194 1759 
z
M 3341 1997 
L 3341 0 
L 2766 0 
L 2766 531 
Q 2569 213 2275 61 
Q 1981 -91 1556 -91 
Q 1019 -91 701 211 
Q 384 513 384 1019 
Q 384 1609 779 1909 
Q 1175 2209 1959 2209 
L 2766 2209 
L 2766 2266 
Q 2766 2663 2505 2880 
Q 2244 3097 1772 3097 
Q 1472 3097 1187 3025 
Q 903 2953 641 2809 
L 641 3341 
Q 956 3463 1253 3523 
Q 1550 3584 1831 3584 
Q 2591 3584 2966 3190 
Q 3341 2797 3341 1997 
z
" id="DejaVuSans-61" transform="scale(0.015625)"/>
       <path d="M 1172 4494 
L 1172 3500 
L 2356 3500 
L 2356 3053 
L 1172 3053 
L 1172 1153 
Q 1172 725 1289 603 
Q 1406 481 1766 481 
L 2356 481 
L 2356 0 
L 1766 0 
Q 1100 0 847 248 
Q 594 497 594 1153 
L 594 3053 
L 172 3053 
L 172 3500 
L 594 3500 
L 594 4494 
L 1172 4494 
z
" id="DejaVuSans-74" transform="scale(0.015625)"/>
       <path d="M 3513 2113 
L 3513 0 
L 2938 0 
L 2938 2094 
Q 2938 2591 2744 2837 
Q 2550 3084 2163 3084 
Q 1697 3084 1428 2787 
Q 1159 2491 1159 1978 
L 1159 0 
L 581 0 
L 581 4863 
L 1159 4863 
L 1159 2956 
Q 1366 3272 1645 3428 
Q 1925 3584 2291 3584 
Q 2894 3584 3203 3211 
Q 3513 2838 3513 2113 
z
" id="DejaVuSans-68" transform="scale(0.015625)"/>
       <path d="M 2375 4863 
L 2375 4384 
L 1825 4384 
Q 1516 4384 1395 4259 
Q 1275 4134 1275 3809 
L 1275 3500 
L 2222 3500 
L 2222 3053 
L 1275 3053 
L 1275 0 
L 697 0 
L 697 3053 
L 147 3053 
L 147 3500 
L 697 3500 
L 697 3744 
Q 697 4328 969 4595 
Q 1241 4863 1831 4863 
L 2375 4863 
z
" id="DejaVuSans-66" transform="scale(0.015625)"/>
       <path d="M 1959 3097 
Q 1497 3097 1228 2736 
Q 959 2375 959 1747 
Q 959 1119 1226 758 
Q 1494 397 1959 397 
Q 2419 397 2687 759 
Q 2956 1122 2956 1747 
Q 2956 2369 2687 2733 
Q 2419 3097 1959 3097 
z
M 1959 3584 
Q 2709 3584 3137 3096 
Q 3566 2609 3566 1747 
Q 3566 888 3137 398 
Q 2709 -91 1959 -91 
Q 1206 -91 779 398 
Q 353 888 353 1747 
Q 353 2609 779 3096 
Q 1206 3584 1959 3584 
z
" id="DejaVuSans-6f" transform="scale(0.015625)"/>
       <path d="M 2631 2963 
Q 2534 3019 2420 3045 
Q 2306 3072 2169 3072 
Q 1681 3072 1420 2755 
Q 1159 2438 1159 1844 
L 1159 0 
L 581 0 
L 581 3500 
L 1159 3500 
L 1159 2956 
Q 1341 3275 1631 3429 
Q 1922 3584 2338 3584 
Q 2397 3584 2469 3576 
Q 2541 3569 2628 3553 
L 2631 2963 
z
" id="DejaVuSans-72" transform="scale(0.015625)"/>
       <path d="M 269 3500 
L 844 3500 
L 1563 769 
L 2278 3500 
L 2956 3500 
L 3675 769 
L 4391 3500 
L 4966 3500 
L 4050 0 
L 3372 0 
L 2619 2869 
L 1863 0 
L 1184 0 
L 269 3500 
z
" id="DejaVuSans-77" transform="scale(0.015625)"/>
       <path d="M 3513 2113 
L 3513 0 
L 2938 0 
L 2938 2094 
Q 2938 2591 2744 2837 
Q 2550 3084 2163 3084 
Q 1697 3084 1428 2787 
Q 1159 2491 1159 1978 
L 1159 0 
L 581 0 
L 581 3500 
L 1159 3500 
L 1159 2956 
Q 1366 3272 1645 3428 
Q 1925 3584 2291 3584 
Q 2894 3584 3203 3211 
Q 3513 2838 3513 2113 
z
" id="DejaVuSans-6e" transform="scale(0.015625)"/>
       <path d="M 2906 1791 
Q 2906 2416 2648 2759 
Q 2391 3103 1925 3103 
Q 1463 3103 1205 2759 
Q 947 2416 947 1791 
Q 947 1169 1205 825 
Q 1463 481 1925 481 
Q 2391 481 2648 825 
Q 2906 1169 2906 1791 
z
M 3481 434 
Q 3481 -459 3084 -895 
Q 2688 -1331 1869 -1331 
Q 1566 -1331 1297 -1286 
Q 1028 -1241 775 -1147 
L 775 -588 
Q 1028 -725 1275 -790 
Q 1522 -856 1778 -856 
Q 2344 -856 2625 -561 
Q 2906 -266 2906 331 
L 2906 616 
Q 2728 306 2450 153 
Q 2172 0 1784 0 
Q 1141 0 747 490 
Q 353 981 353 1791 
Q 353 2603 747 3093 
Q 1141 3584 1784 3584 
Q 2172 3584 2450 3431 
Q 2728 3278 2906 2969 
L 2906 3500 
L 3481 3500 
L 3481 434 
z
" id="DejaVuSans-67" transform="scale(0.015625)"/>
       <path d="M 1081 4666 
L 1931 4666 
L 3219 666 
L 4000 4666 
L 4616 4666 
L 3706 0 
L 2853 0 
L 1569 4025 
L 788 0 
L 172 0 
L 1081 4666 
z
" id="DejaVuSans-Oblique-4e" transform="scale(0.015625)"/>
      </defs>
      <use transform="translate(0 0.015625)" xlink:href="#DejaVuSans-Oblique-46"/>
      <use transform="translate(57.519531 -16.390625)scale(0.7)" xlink:href="#DejaVuSans-Oblique-78"/>
      <use transform="translate(101.679688 0.015625)" xlink:href="#DejaVuSans-20"/>
      <use transform="translate(133.466797 0.015625)" xlink:href="#DejaVuSans-61"/>
      <use transform="translate(194.746094 0.015625)" xlink:href="#DejaVuSans-74"/>
      <use transform="translate(233.955078 0.015625)" xlink:href="#DejaVuSans-20"/>
      <use transform="translate(265.742188 0.015625)" xlink:href="#DejaVuSans-74"/>
      <use transform="translate(304.951172 0.015625)" xlink:href="#DejaVuSans-68"/>
      <use transform="translate(368.330078 0.015625)" xlink:href="#DejaVuSans-65"/>
      <use transform="translate(429.853516 0.015625)" xlink:href="#DejaVuSans-20"/>
      <use transform="translate(461.640625 0.015625)" xlink:href="#DejaVuSans-66"/>
      <use transform="translate(496.845703 0.015625)" xlink:href="#DejaVuSans-6f"/>
      <use transform="translate(558.027344 0.015625)" xlink:href="#DejaVuSans-72"/>
      <use transform="translate(599.140625 0.015625)" xlink:href="#DejaVuSans-65"/>
      <use transform="translate(660.664062 0.015625)" xlink:href="#DejaVuSans-77"/>
      <use transform="translate(742.451172 0.015625)" xlink:href="#DejaVuSans-69"/>
      <use transform="translate(770.234375 0.015625)" xlink:href="#DejaVuSans-6e"/>
      <use transform="translate(833.613281 0.015625)" xlink:href="#DejaVuSans-67"/>
      <use transform="translate(897.089844 0.015625)" xlink:href="#DejaVuSans-20"/>
      <use transform="translate(928.876953 0.015625)" xlink:href="#DejaVuSans-72"/>
      <use transform="translate(969.990234 0.015625)" xlink:href="#DejaVuSans-6f"/>
      <use transform="translate(1031.171875 0.015625)" xlink:href="#DejaVuSans-6f"/>
      <use transform="translate(1092.353516 0.015625)" xlink:href="#DejaVuSans-74"/>
      <use transform="translate(1131.5625 0.015625)" xlink:href="#DejaVuSans-20"/>
      <use transform="translate(1163.349609 0.015625)" xlink:href="#DejaVuSans-28"/>
      <use transform="translate(1202.363281 0.015625)" xlink:href="#DejaVuSans-Oblique-4e"/>
      <use transform="translate(1277.167969 0.015625)" xlink:href="#DejaVuSans-29"/>
     </g>
    </g>
   </g>
   <g id="patch_3">
    <path d="M 45.258227 258.225354 
L 45.258227 2.834646 
" style="fill:none;stroke:#000000;stroke-linecap:square;stroke-linejoin:miter;"/>
   </g>
   <g id="patch_4">
    <path d="M 45.258227 258.225354 
L 419.805777 258.225354 
" style="fill:none;stroke:#000000;stroke-linecap:square;stroke-linejoin:miter;"/>
   </g>
  </g>
 </g>
 <defs>
  <clipPath id="pc5e33fe7a0">
   <rect height="255.390709" width="374.54755" x="45.258227" y="2.834646"/>
  </clipPath>
 </defs>
</svg>
