<?xml version="1.0" encoding="utf-8" standalone="no"?>
<!DOCTYPE svg PUBLIC "-//W3C//DTD SVG 1.1//EN"
  "http://www.w3.org/Graphics/SVG/1.1/DTD/svg11.dtd">
<svg height="288pt" version="1.1" viewBox="0 0 432 288" width="432pt" xmlns="http://www.w3.org/2000/svg" xmlns:xlink="http://www.w3.org/1999/xlink">
 <metadata>
  <rdf:RDF xmlns:cc="http://creativecommons.org/ns#" xmlns:dc="http://purl.org/dc/elements/1.1/" xmlns:rdf="http://www.w3.org/1999/02/22-rdf-syntax-ns#">
   <cc:Work>
    <dc:type rdf:resource="http://purl.org/dc/dcmitype/StillImage"/>
    <dc:date>2021-11-10T23:08:33.434222</dc:date>
    <dc:format>image/svg+xml</dc:format>
    <dc:creator>
     <cc:Agent>
      <dc:title>Matplotlib v3.4.3, https://matplotlib.org/</dc:title>
     </cc:Agent>
    </dc:creator>
   </cc:Work>
  </rdf:RDF>
 </metadata>
 <defs>
  <style type="text/css">*{stroke-linecap:butt;stroke-linejoin:round;}</style>
 </defs>
 <g id="figure_1">
  <g id="patch_1">
   <path d="M 0 288 
L 432 288 
L 432 0 
L 0 0 
z
" style="fill:#ffffff;"/>
  </g>
  <g id="axes_1">
   <g id="patch_2">
    <path d="M 41.781593 258.225354 
L 422.361999 258.225354 
L 422.361999 2.834646 
L 41.781593 2.834646 
z
" style="fill:#ffffff;"/>
   </g>
   <g id="line2d_1">
    <path clip-path="url(#p90a55a4caa)" d="M 41.781593 132.825554 
L 42.923334 132.951238 
L 44.065075 133.341893 
L 45.206816 134.010496 
L 46.348558 134.935483 
L 47.680589 136.301656 
L 49.202911 138.283937 
L 50.725232 140.56779 
L 52.628134 143.851878 
L 55.863068 149.953636 
L 60.049452 157.915435 
L 61.381484 159.893282 
L 63.094095 161.955534 
L 65.758158 164.919577 
L 66.8999 165.861465 
L 67.851351 166.367579 
L 68.612511 166.499877 
L 69.183382 166.429447 
L 69.754253 166.167653 
L 70.515413 165.516422 
L 71.466864 164.34712 
L 72.418315 162.755248 
L 73.369766 160.7262 
L 74.511508 157.746333 
L 75.843539 153.580755 
L 77.746441 146.790778 
L 80.220214 136.943249 
L 83.645437 123.024336 
L 85.358049 117.149976 
L 87.260951 111.396448 
L 90.115304 103.592792 
L 91.637626 99.949465 
L 92.589077 98.206137 
L 93.540528 96.851327 
L 94.301689 96.061393 
L 95.06285 95.567966 
L 95.63372 95.430163 
L 96.204591 95.478639 
L 96.775461 95.722306 
L 97.346332 96.182049 
L 98.107493 97.090699 
L 99.058944 98.635305 
L 100.010395 100.661986 
L 101.152136 103.638534 
L 102.484168 107.701099 
L 104.38707 114.449139 
L 109.144325 132.108552 
L 111.237517 138.553257 
L 114.09187 146.569205 
L 117.707384 155.546948 
L 120.561737 162.69896 
L 122.274349 167.723732 
L 123.79667 172.878691 
L 127.983055 187.889191 
L 128.744216 189.679792 
L 129.315086 190.645371 
L 129.885957 191.236044 
L 130.456827 191.470718 
L 131.027698 191.393027 
L 131.598569 190.991291 
L 132.169439 190.252478 
L 132.9306 188.785045 
L 133.691761 186.804674 
L 134.643212 183.645467 
L 135.784953 178.899609 
L 137.116985 172.290829 
L 138.449016 164.456125 
L 139.971338 153.981885 
L 141.87424 139.097217 
L 145.489753 110.364129 
L 147.012075 100.503455 
L 148.344107 93.396716 
L 149.485848 88.59025 
L 150.437299 85.48857 
L 151.19846 83.633505 
L 151.76933 82.653441 
L 152.340201 82.036202 
L 152.911071 81.736068 
L 153.481942 81.731585 
L 154.052813 82.030959 
L 154.623683 82.610256 
L 155.384844 83.707334 
L 158.429487 88.720485 
L 159.000358 89.141596 
L 159.571229 89.315175 
L 160.142099 89.223966 
L 160.90326 88.745235 
L 162.996452 87.012202 
L 163.567323 86.901475 
L 163.947903 87.01796 
L 164.328484 87.34256 
L 164.899354 88.246289 
L 165.470225 89.674032 
L 166.041095 91.650783 
L 166.802256 95.141984 
L 167.753707 100.737404 
L 168.895448 108.975946 
L 170.41777 121.9617 
L 174.033284 153.508521 
L 175.365315 162.956502 
L 176.316766 168.322512 
L 177.077927 171.659631 
L 177.839088 174.009441 
L 178.409959 175.054031 
L 178.790539 175.382851 
L 179.171119 175.42268 
L 179.5517 175.179909 
L 179.93228 174.68008 
L 180.503151 173.517553 
L 181.264312 171.240904 
L 183.738084 162.921618 
L 184.118665 162.358462 
L 184.499245 162.196489 
L 184.879826 162.507061 
L 185.260406 163.311543 
L 185.640986 164.659536 
L 186.211857 167.686382 
L 186.782728 171.842689 
L 187.543888 179.022077 
L 188.87592 194.269526 
L 190.207951 208.822205 
L 190.969112 214.959457 
L 191.539983 217.99404 
L 191.920563 219.129677 
L 192.301143 219.575608 
L 192.491434 219.540347 
L 192.681724 219.327516 
L 193.062304 218.383285 
L 193.442885 216.794696 
L 194.013755 213.317448 
L 194.774916 207.128414 
L 197.819559 180.107356 
L 198.58072 175.846121 
L 199.341881 172.631198 
L 200.293332 169.55053 
L 201.625363 166.033377 
L 202.576814 164.017712 
L 203.147685 163.252903 
L 203.528265 162.981303 
L 203.908846 162.921106 
L 204.289426 163.038679 
L 204.860297 163.521488 
L 206.002038 164.740608 
L 206.382619 164.892852 
L 206.763199 164.748326 
L 207.143779 164.232552 
L 207.52436 163.246312 
L 208.09523 160.816278 
L 208.666101 157.175484 
L 209.427262 150.366143 
L 210.378713 139.194903 
L 213.803936 95.195479 
L 214.565097 89.031616 
L 215.135968 86.075005 
L 215.516548 85.003344 
L 215.897129 84.654415 
L 216.087419 84.727051 
L 216.467999 85.370456 
L 216.84858 86.633884 
L 217.41945 89.404298 
L 219.322352 99.755513 
L 219.702933 100.596974 
L 219.893223 100.723393 
L 220.083513 100.65267 
L 220.273803 100.389563 
L 220.654384 99.298148 
L 221.225254 96.369219 
L 222.176705 89.518937 
L 223.128156 83.036013 
L 223.699027 80.426201 
L 224.079607 79.408831 
L 224.460188 78.952208 
L 224.840768 79.010186 
L 225.221349 79.456509 
L 225.792219 80.621165 
L 226.55338 82.244609 
L 226.93396 82.675231 
L 227.314541 82.679839 
L 227.695121 82.167023 
L 228.075702 81.071663 
L 228.646572 78.442785 
L 229.407733 73.521849 
L 231.120345 62.015145 
L 231.691216 59.904857 
L 232.071796 59.283413 
L 232.262086 59.224044 
L 232.452376 59.339416 
L 232.832957 60.079975 
L 233.213537 61.460835 
L 233.784408 64.580606 
L 234.545569 70.389855 
L 235.49702 79.575293 
L 237.019341 97.123551 
L 238.351373 111.443869 
L 239.112533 117.383344 
L 239.683404 120.482705 
L 240.254275 122.484769 
L 240.825145 123.499756 
L 241.205726 123.797316 
L 242.347467 124.324222 
L 242.728047 124.905656 
L 243.108628 126.014584 
L 243.489208 127.769462 
L 244.060079 131.827335 
L 244.630949 137.637149 
L 245.39211 147.892576 
L 246.533851 167.129652 
L 248.627044 203.998891 
L 249.388204 213.934592 
L 250.149365 221.302137 
L 250.910526 226.41175 
L 251.481397 228.815434 
L 251.861977 229.794342 
L 252.242558 230.153415 
L 252.432848 230.094201 
L 252.623138 229.878163 
L 253.003718 228.916601 
L 253.384299 227.191937 
L 253.955169 223.424547 
L 254.71633 216.271888 
L 255.667781 204.642456 
L 257.380393 182.265207 
L 257.951264 177.341023 
L 258.331844 175.441063 
L 258.712424 174.694228 
L 258.902715 174.776708 
L 259.093005 175.188093 
L 259.473585 176.962 
L 259.854166 179.827861 
L 260.425036 186.051463 
L 261.376487 200.07634 
L 262.898809 223.971733 
L 263.469679 230.280316 
L 264.04055 234.139479 
L 264.421131 235.274782 
L 264.611421 235.438503 
L 264.801711 235.339303 
L 264.992001 234.979391 
L 265.372582 233.477012 
L 265.753162 230.971789 
L 266.324033 225.482463 
L 267.085193 215.216658 
L 268.417225 192.885807 
L 269.939546 168.283682 
L 270.890997 156.293577 
L 271.842448 147.154427 
L 272.793899 140.203006 
L 274.696801 128.89732 
L 275.267672 126.322424 
L 275.838543 124.697555 
L 276.219123 124.373589 
L 276.409413 124.466424 
L 276.789994 125.187447 
L 277.170574 126.738786 
L 277.741445 130.659783 
L 278.312315 136.534984 
L 279.073476 146.997523 
L 281.927829 190.617672 
L 282.4987 195.691826 
L 283.06957 198.727615 
L 283.450151 199.615096 
L 283.640441 199.717635 
L 283.830731 199.578801 
L 284.211312 198.58682 
L 284.591892 196.725587 
L 285.162763 192.461025 
L 285.923923 184.806986 
L 286.875375 172.78569 
L 288.017116 155.346195 
L 289.349147 131.063277 
L 290.871469 98.40383 
L 292.774371 57.071309 
L 293.535532 46.061138 
L 294.106402 41.315254 
L 294.486983 39.829857 
L 294.677273 39.560245 
L 294.867563 39.573594 
L 295.057853 39.856929 
L 295.438434 41.200679 
L 296.009304 44.874535 
L 296.770465 52.136953 
L 297.721916 64.043544 
L 299.053948 84.44043 
L 300.385979 104.602056 
L 300.95685 110.705686 
L 301.33743 113.330649 
L 301.71801 114.592057 
L 301.908301 114.669129 
L 302.098591 114.390513 
L 302.479171 112.857825 
L 302.859752 110.098534 
L 303.430622 104.062909 
L 304.382073 91.00132 
L 305.904395 69.816783 
L 306.665556 61.728619 
L 307.426716 55.838515 
L 307.997587 53.051179 
L 308.378167 52.017247 
L 308.758748 51.536022 
L 309.139328 51.430915 
L 309.519909 51.374107 
L 309.900489 51.017322 
L 310.28107 50.079566 
L 310.66165 48.406787 
L 311.232521 44.569878 
L 311.993681 37.61046 
L 313.135423 26.688827 
L 313.516003 24.323358 
L 313.896583 23.119343 
L 314.086874 22.996255 
L 314.277164 23.222242 
L 314.467454 23.818461 
L 314.848034 26.142231 
L 315.228615 29.972518 
L 315.799485 38.738281 
L 316.370356 51.138628 
L 317.512097 82.881594 
L 318.463548 107.434386 
L 319.034419 118.056996 
L 319.414999 122.532975 
L 319.79558 124.543033 
L 319.98587 124.531422 
L 320.17616 123.819345 
L 320.55674 120.420799 
L 321.127611 111.311078 
L 322.079062 90.201743 
L 323.411094 60.134687 
L 323.981964 52.016192 
L 324.362545 49.543789 
L 324.552835 49.270599 
L 324.743125 49.647635 
L 324.933415 50.670737 
L 325.313996 54.486617 
L 325.884866 63.891873 
L 326.455737 77.458615 
L 327.216898 101.692043 
L 329.1198 167.119115 
L 329.69067 178.014042 
L 330.071251 181.632091 
L 330.261541 182.37406 
L 330.451831 182.438705 
L 330.642121 181.841936 
L 331.022702 178.776555 
L 331.783862 168.628803 
L 332.545023 159.673786 
L 332.925604 157.06797 
L 333.306184 155.769427 
L 333.496474 155.667186 
L 333.686765 155.953135 
L 334.067345 157.654302 
L 334.447925 160.746039 
L 335.018796 167.938598 
L 335.970247 184.343624 
L 337.111988 203.707748 
L 337.873149 213.562623 
L 338.44402 218.048798 
L 338.8246 219.469112 
L 339.01489 219.761119 
L 339.20518 219.780221 
L 339.395471 219.509137 
L 339.776051 218.050021 
L 340.156631 215.412222 
L 340.727502 209.422981 
L 341.488663 198.294191 
L 342.440114 184.45899 
L 342.820694 181.649428 
L 343.010984 181.012932 
L 343.201275 180.859825 
L 343.391565 181.137498 
L 343.772145 182.674191 
L 344.343016 186.548019 
L 345.294467 195.277868 
L 346.055628 203.97624 
L 347.007079 217.720654 
L 348.909981 247.732883 
L 349.290561 250.246074 
L 349.480851 250.83294 
L 349.671142 250.997315 
L 349.861432 250.774173 
L 350.242012 249.273563 
L 350.622593 246.5255 
L 351.193463 240.32822 
L 351.954624 228.76534 
L 353.096365 210.113357 
L 353.667236 204.0456 
L 354.238106 200.645505 
L 354.428397 200.088602 
L 354.618687 199.87818 
L 354.808977 200.041421 
L 354.999267 200.575443 
L 355.379848 202.67181 
L 355.950718 208.00734 
L 356.711879 218.064581 
L 358.424491 242.760283 
L 358.805071 245.111805 
L 358.995362 245.365026 
L 359.185652 244.963758 
L 359.566232 242.261944 
L 360.137103 234.677145 
L 361.469134 215.924702 
L 362.230295 207.645538 
L 362.801166 203.231637 
L 363.181746 201.485045 
L 363.372036 201.036555 
L 363.562326 200.899452 
L 363.752617 201.068241 
L 364.133197 202.147058 
L 365.465228 207.548431 
L 366.60697 213.59746 
L 366.98755 214.552216 
L 367.36813 215.038287 
L 367.748711 215.163206 
L 367.939001 214.985755 
L 368.129291 214.560061 
L 368.509872 212.742782 
L 368.890452 209.241827 
L 369.271033 203.597711 
L 369.841903 191.134219 
L 371.554515 148.814913 
L 372.125386 140.287027 
L 372.886546 132.641266 
L 373.647707 127.429571 
L 374.028288 125.654882 
L 374.408868 124.770059 
L 374.599158 124.688787 
L 374.789448 124.907949 
L 374.979739 125.495536 
L 375.360319 127.986966 
L 375.740899 132.328197 
L 376.31177 141.969314 
L 377.263221 157.996363 
L 377.643801 161.530795 
L 377.834092 162.328396 
L 378.024382 162.509433 
L 378.214672 162.136774 
L 378.595252 159.922241 
L 378.975833 155.92967 
L 379.546703 147.300706 
L 380.117574 134.50164 
L 382.781637 64.355908 
L 383.352508 55.346078 
L 383.923378 49.462126 
L 384.303959 47.228881 
L 384.494249 46.840854 
L 384.684539 46.983247 
L 385.065119 48.457527 
L 385.63599 52.373828 
L 386.206861 58.713419 
L 387.348602 74.60346 
L 387.729182 76.808717 
L 387.919472 77.138573 
L 388.109763 76.975063 
L 388.300053 76.338174 
L 388.680633 73.632303 
L 389.251504 66.250662 
L 390.393245 47.474141 
L 391.344696 30.878229 
L 391.725277 26.914587 
L 392.296147 23.409981 
L 392.676728 21.918017 
L 392.867018 21.64373 
L 393.057308 21.695904 
L 393.247598 22.038849 
L 393.628179 23.686892 
L 394.199049 28.325671 
L 394.76992 34.394011 
L 397.053402 62.734939 
L 397.243692 63.728901 
L 397.433983 64.086212 
L 397.624273 63.727907 
L 397.814563 62.641826 
L 398.195143 58.39877 
L 398.766014 47.730364 
L 400.098045 20.87514 
L 400.668916 13.736779 
L 401.049496 11.515975 
L 401.430077 10.845764 
L 401.810657 10.772867 
L 402.000947 10.822362 
L 402.191238 10.994831 
L 402.571818 11.975883 
L 403.142689 14.845804 
L 403.713559 18.852936 
L 404.09414 23.048531 
L 404.66501 32.185527 
L 405.616461 51.916119 
L 406.758203 75.383977 
L 407.329073 82.627404 
L 407.709654 84.942807 
L 407.899944 85.35548 
L 408.090234 85.267127 
L 408.280524 84.671333 
L 408.661105 82.147159 
L 409.612556 74.498179 
L 410.373716 69.680614 
L 411.134877 63.435345 
L 412.086328 52.870734 
L 412.847489 44.708304 
L 413.228069 42.364614 
L 413.60865 41.206049 
L 413.79894 41.212481 
L 413.98923 41.694074 
L 414.369811 44.117369 
L 414.750391 48.30665 
L 417.224164 81.549709 
L 417.604744 83.009995 
L 417.795034 83.238531 
L 417.985325 83.212898 
L 418.175615 82.945614 
L 418.556195 81.76683 
L 419.317356 78.581924 
L 419.507646 78.305964 
L 419.697936 78.625932 
L 420.078517 81.195012 
L 420.649387 87.959786 
L 421.220258 97.195622 
L 422.361999 120.813398 
L 422.361999 120.813398 
" style="fill:none;stroke:#009afa;"/>
   </g>
   <g id="matplotlib.axis_1">
    <g id="xtick_1">
     <g id="line2d_2">
      <defs>
       <path d="M 0 0 
L 0 -2.5 
" id="mcb0635dba2" style="stroke:#000000;stroke-width:0.5;"/>
      </defs>
      <g>
       <use style="stroke:#000000;stroke-width:0.5;" x="41.781593" xlink:href="#mcb0635dba2" y="258.225354"/>
      </g>
     </g>
     <g id="text_1">
      <!-- $0.0$ -->
      <g transform="translate(35.381593 267.804104)scale(0.08 -0.08)">
       <defs>
        <path d="M 2034 4250 
Q 1547 4250 1301 3770 
Q 1056 3291 1056 2328 
Q 1056 1369 1301 889 
Q 1547 409 2034 409 
Q 2525 409 2770 889 
Q 3016 1369 3016 2328 
Q 3016 3291 2770 3770 
Q 2525 4250 2034 4250 
z
M 2034 4750 
Q 2819 4750 3233 4129 
Q 3647 3509 3647 2328 
Q 3647 1150 3233 529 
Q 2819 -91 2034 -91 
Q 1250 -91 836 529 
Q 422 1150 422 2328 
Q 422 3509 836 4129 
Q 1250 4750 2034 4750 
z
" id="DejaVuSans-30" transform="scale(0.015625)"/>
        <path d="M 684 794 
L 1344 794 
L 1344 0 
L 684 0 
L 684 794 
z
" id="DejaVuSans-2e" transform="scale(0.015625)"/>
       </defs>
       <use transform="translate(0 0.78125)" xlink:href="#DejaVuSans-30"/>
       <use transform="translate(63.623047 0.78125)" xlink:href="#DejaVuSans-2e"/>
       <use transform="translate(95.410156 0.78125)" xlink:href="#DejaVuSans-30"/>
      </g>
     </g>
    </g>
    <g id="xtick_2">
     <g id="line2d_3">
      <g>
       <use style="stroke:#000000;stroke-width:0.5;" x="136.926694" xlink:href="#mcb0635dba2" y="258.225354"/>
      </g>
     </g>
     <g id="text_2">
      <!-- $0.5$ -->
      <g transform="translate(130.526694 267.804104)scale(0.08 -0.08)">
       <defs>
        <path d="M 691 4666 
L 3169 4666 
L 3169 4134 
L 1269 4134 
L 1269 2991 
Q 1406 3038 1543 3061 
Q 1681 3084 1819 3084 
Q 2600 3084 3056 2656 
Q 3513 2228 3513 1497 
Q 3513 744 3044 326 
Q 2575 -91 1722 -91 
Q 1428 -91 1123 -41 
Q 819 9 494 109 
L 494 744 
Q 775 591 1075 516 
Q 1375 441 1709 441 
Q 2250 441 2565 725 
Q 2881 1009 2881 1497 
Q 2881 1984 2565 2268 
Q 2250 2553 1709 2553 
Q 1456 2553 1204 2497 
Q 953 2441 691 2322 
L 691 4666 
z
" id="DejaVuSans-35" transform="scale(0.015625)"/>
       </defs>
       <use transform="translate(0 0.78125)" xlink:href="#DejaVuSans-30"/>
       <use transform="translate(63.623047 0.78125)" xlink:href="#DejaVuSans-2e"/>
       <use transform="translate(95.410156 0.78125)" xlink:href="#DejaVuSans-35"/>
      </g>
     </g>
    </g>
    <g id="xtick_3">
     <g id="line2d_4">
      <g>
       <use style="stroke:#000000;stroke-width:0.5;" x="232.071796" xlink:href="#mcb0635dba2" y="258.225354"/>
      </g>
     </g>
     <g id="text_3">
      <!-- $1.0$ -->
      <g transform="translate(225.671796 267.804104)scale(0.08 -0.08)">
       <defs>
        <path d="M 794 531 
L 1825 531 
L 1825 4091 
L 703 3866 
L 703 4441 
L 1819 4666 
L 2450 4666 
L 2450 531 
L 3481 531 
L 3481 0 
L 794 0 
L 794 531 
z
" id="DejaVuSans-31" transform="scale(0.015625)"/>
       </defs>
       <use transform="translate(0 0.78125)" xlink:href="#DejaVuSans-31"/>
       <use transform="translate(63.623047 0.78125)" xlink:href="#DejaVuSans-2e"/>
       <use transform="translate(95.410156 0.78125)" xlink:href="#DejaVuSans-30"/>
      </g>
     </g>
    </g>
    <g id="xtick_4">
     <g id="line2d_5">
      <g>
       <use style="stroke:#000000;stroke-width:0.5;" x="327.216898" xlink:href="#mcb0635dba2" y="258.225354"/>
      </g>
     </g>
     <g id="text_4">
      <!-- $1.5$ -->
      <g transform="translate(320.816898 267.804104)scale(0.08 -0.08)">
       <use transform="translate(0 0.09375)" xlink:href="#DejaVuSans-31"/>
       <use transform="translate(63.623047 0.09375)" xlink:href="#DejaVuSans-2e"/>
       <use transform="translate(95.410156 0.09375)" xlink:href="#DejaVuSans-35"/>
      </g>
     </g>
    </g>
    <g id="xtick_5">
     <g id="line2d_6">
      <g>
       <use style="stroke:#000000;stroke-width:0.5;" x="422.361999" xlink:href="#mcb0635dba2" y="258.225354"/>
      </g>
     </g>
     <g id="text_5">
      <!-- $2.0$ -->
      <g transform="translate(415.961999 267.804104)scale(0.08 -0.08)">
       <defs>
        <path d="M 1228 531 
L 3431 531 
L 3431 0 
L 469 0 
L 469 531 
Q 828 903 1448 1529 
Q 2069 2156 2228 2338 
Q 2531 2678 2651 2914 
Q 2772 3150 2772 3378 
Q 2772 3750 2511 3984 
Q 2250 4219 1831 4219 
Q 1534 4219 1204 4116 
Q 875 4013 500 3803 
L 500 4441 
Q 881 4594 1212 4672 
Q 1544 4750 1819 4750 
Q 2544 4750 2975 4387 
Q 3406 4025 3406 3419 
Q 3406 3131 3298 2873 
Q 3191 2616 2906 2266 
Q 2828 2175 2409 1742 
Q 1991 1309 1228 531 
z
" id="DejaVuSans-32" transform="scale(0.015625)"/>
       </defs>
       <use transform="translate(0 0.78125)" xlink:href="#DejaVuSans-32"/>
       <use transform="translate(63.623047 0.78125)" xlink:href="#DejaVuSans-2e"/>
       <use transform="translate(95.410156 0.78125)" xlink:href="#DejaVuSans-30"/>
      </g>
     </g>
    </g>
    <g id="text_6">
     <!-- Time (s) -->
     <g transform="translate(209.709999 281.826136)scale(0.11 -0.11)">
      <defs>
       <path d="M -19 4666 
L 3928 4666 
L 3928 4134 
L 2272 4134 
L 2272 0 
L 1638 0 
L 1638 4134 
L -19 4134 
L -19 4666 
z
" id="DejaVuSans-54" transform="scale(0.015625)"/>
       <path d="M 603 3500 
L 1178 3500 
L 1178 0 
L 603 0 
L 603 3500 
z
M 603 4863 
L 1178 4863 
L 1178 4134 
L 603 4134 
L 603 4863 
z
" id="DejaVuSans-69" transform="scale(0.015625)"/>
       <path d="M 3328 2828 
Q 3544 3216 3844 3400 
Q 4144 3584 4550 3584 
Q 5097 3584 5394 3201 
Q 5691 2819 5691 2113 
L 5691 0 
L 5113 0 
L 5113 2094 
Q 5113 2597 4934 2840 
Q 4756 3084 4391 3084 
Q 3944 3084 3684 2787 
Q 3425 2491 3425 1978 
L 3425 0 
L 2847 0 
L 2847 2094 
Q 2847 2600 2669 2842 
Q 2491 3084 2119 3084 
Q 1678 3084 1418 2786 
Q 1159 2488 1159 1978 
L 1159 0 
L 581 0 
L 581 3500 
L 1159 3500 
L 1159 2956 
Q 1356 3278 1631 3431 
Q 1906 3584 2284 3584 
Q 2666 3584 2933 3390 
Q 3200 3197 3328 2828 
z
" id="DejaVuSans-6d" transform="scale(0.015625)"/>
       <path d="M 3597 1894 
L 3597 1613 
L 953 1613 
Q 991 1019 1311 708 
Q 1631 397 2203 397 
Q 2534 397 2845 478 
Q 3156 559 3463 722 
L 3463 178 
Q 3153 47 2828 -22 
Q 2503 -91 2169 -91 
Q 1331 -91 842 396 
Q 353 884 353 1716 
Q 353 2575 817 3079 
Q 1281 3584 2069 3584 
Q 2775 3584 3186 3129 
Q 3597 2675 3597 1894 
z
M 3022 2063 
Q 3016 2534 2758 2815 
Q 2500 3097 2075 3097 
Q 1594 3097 1305 2825 
Q 1016 2553 972 2059 
L 3022 2063 
z
" id="DejaVuSans-65" transform="scale(0.015625)"/>
       <path id="DejaVuSans-20" transform="scale(0.015625)"/>
       <path d="M 1984 4856 
Q 1566 4138 1362 3434 
Q 1159 2731 1159 2009 
Q 1159 1288 1364 580 
Q 1569 -128 1984 -844 
L 1484 -844 
Q 1016 -109 783 600 
Q 550 1309 550 2009 
Q 550 2706 781 3412 
Q 1013 4119 1484 4856 
L 1984 4856 
z
" id="DejaVuSans-28" transform="scale(0.015625)"/>
       <path d="M 2834 3397 
L 2834 2853 
Q 2591 2978 2328 3040 
Q 2066 3103 1784 3103 
Q 1356 3103 1142 2972 
Q 928 2841 928 2578 
Q 928 2378 1081 2264 
Q 1234 2150 1697 2047 
L 1894 2003 
Q 2506 1872 2764 1633 
Q 3022 1394 3022 966 
Q 3022 478 2636 193 
Q 2250 -91 1575 -91 
Q 1294 -91 989 -36 
Q 684 19 347 128 
L 347 722 
Q 666 556 975 473 
Q 1284 391 1588 391 
Q 1994 391 2212 530 
Q 2431 669 2431 922 
Q 2431 1156 2273 1281 
Q 2116 1406 1581 1522 
L 1381 1569 
Q 847 1681 609 1914 
Q 372 2147 372 2553 
Q 372 3047 722 3315 
Q 1072 3584 1716 3584 
Q 2034 3584 2315 3537 
Q 2597 3491 2834 3397 
z
" id="DejaVuSans-73" transform="scale(0.015625)"/>
       <path d="M 513 4856 
L 1013 4856 
Q 1481 4119 1714 3412 
Q 1947 2706 1947 2009 
Q 1947 1309 1714 600 
Q 1481 -109 1013 -844 
L 513 -844 
Q 928 -128 1133 580 
Q 1338 1288 1338 2009 
Q 1338 2731 1133 3434 
Q 928 4138 513 4856 
z
" id="DejaVuSans-29" transform="scale(0.015625)"/>
      </defs>
      <use xlink:href="#DejaVuSans-54"/>
      <use x="57.958984" xlink:href="#DejaVuSans-69"/>
      <use x="85.742188" xlink:href="#DejaVuSans-6d"/>
      <use x="183.154297" xlink:href="#DejaVuSans-65"/>
      <use x="244.677734" xlink:href="#DejaVuSans-20"/>
      <use x="276.464844" xlink:href="#DejaVuSans-28"/>
      <use x="315.478516" xlink:href="#DejaVuSans-73"/>
      <use x="367.578125" xlink:href="#DejaVuSans-29"/>
     </g>
    </g>
   </g>
   <g id="matplotlib.axis_2">
    <g id="ytick_1">
     <g id="line2d_7">
      <defs>
       <path d="M 0 0 
L 2.5 0 
" id="ma9cf57a652" style="stroke:#000000;stroke-width:0.5;"/>
      </defs>
      <g>
       <use style="stroke:#000000;stroke-width:0.5;" x="41.781593" xlink:href="#ma9cf57a652" y="245.916885"/>
      </g>
     </g>
     <g id="text_7">
      <!-- $-20$ -->
      <g transform="translate(21.321593 248.95626)scale(0.08 -0.08)">
       <defs>
        <path d="M 678 2272 
L 4684 2272 
L 4684 1741 
L 678 1741 
L 678 2272 
z
" id="DejaVuSans-2212" transform="scale(0.015625)"/>
       </defs>
       <use transform="translate(0 0.78125)" xlink:href="#DejaVuSans-2212"/>
       <use transform="translate(83.789062 0.78125)" xlink:href="#DejaVuSans-32"/>
       <use transform="translate(147.412109 0.78125)" xlink:href="#DejaVuSans-30"/>
      </g>
     </g>
    </g>
    <g id="ytick_2">
     <g id="line2d_8">
      <g>
       <use style="stroke:#000000;stroke-width:0.5;" x="41.781593" xlink:href="#ma9cf57a652" y="189.37122"/>
      </g>
     </g>
     <g id="text_8">
      <!-- $-10$ -->
      <g transform="translate(21.321593 192.410595)scale(0.08 -0.08)">
       <use transform="translate(0 0.78125)" xlink:href="#DejaVuSans-2212"/>
       <use transform="translate(83.789062 0.78125)" xlink:href="#DejaVuSans-31"/>
       <use transform="translate(147.412109 0.78125)" xlink:href="#DejaVuSans-30"/>
      </g>
     </g>
    </g>
    <g id="ytick_3">
     <g id="line2d_9">
      <g>
       <use style="stroke:#000000;stroke-width:0.5;" x="41.781593" xlink:href="#ma9cf57a652" y="132.825554"/>
      </g>
     </g>
     <g id="text_9">
      <!-- $0$ -->
      <g transform="translate(33.161593 135.864929)scale(0.08 -0.08)">
       <use transform="translate(0 0.78125)" xlink:href="#DejaVuSans-30"/>
      </g>
     </g>
    </g>
    <g id="ytick_4">
     <g id="line2d_10">
      <g>
       <use style="stroke:#000000;stroke-width:0.5;" x="41.781593" xlink:href="#ma9cf57a652" y="76.279888"/>
      </g>
     </g>
     <g id="text_10">
      <!-- $10$ -->
      <g transform="translate(28.041593 79.319263)scale(0.08 -0.08)">
       <use transform="translate(0 0.78125)" xlink:href="#DejaVuSans-31"/>
       <use transform="translate(63.623047 0.78125)" xlink:href="#DejaVuSans-30"/>
      </g>
     </g>
    </g>
    <g id="ytick_5">
     <g id="line2d_11">
      <g>
       <use style="stroke:#000000;stroke-width:0.5;" x="41.781593" xlink:href="#ma9cf57a652" y="19.734222"/>
      </g>
     </g>
     <g id="text_11">
      <!-- $20$ -->
      <g transform="translate(28.041593 22.773597)scale(0.08 -0.08)">
       <use transform="translate(0 0.78125)" xlink:href="#DejaVuSans-32"/>
       <use transform="translate(63.623047 0.78125)" xlink:href="#DejaVuSans-30"/>
      </g>
     </g>
    </g>
    <g id="text_12">
     <!-- Rodriguez Parameter $\theta_x$ (degree) -->
     <g transform="translate(15.011593 221.885)rotate(-90)scale(0.11 -0.11)">
      <defs>
       <path d="M 2841 2188 
Q 3044 2119 3236 1894 
Q 3428 1669 3622 1275 
L 4263 0 
L 3584 0 
L 2988 1197 
Q 2756 1666 2539 1819 
Q 2322 1972 1947 1972 
L 1259 1972 
L 1259 0 
L 628 0 
L 628 4666 
L 2053 4666 
Q 2853 4666 3247 4331 
Q 3641 3997 3641 3322 
Q 3641 2881 3436 2590 
Q 3231 2300 2841 2188 
z
M 1259 4147 
L 1259 2491 
L 2053 2491 
Q 2509 2491 2742 2702 
Q 2975 2913 2975 3322 
Q 2975 3731 2742 3939 
Q 2509 4147 2053 4147 
L 1259 4147 
z
" id="DejaVuSans-52" transform="scale(0.015625)"/>
       <path d="M 1959 3097 
Q 1497 3097 1228 2736 
Q 959 2375 959 1747 
Q 959 1119 1226 758 
Q 1494 397 1959 397 
Q 2419 397 2687 759 
Q 2956 1122 2956 1747 
Q 2956 2369 2687 2733 
Q 2419 3097 1959 3097 
z
M 1959 3584 
Q 2709 3584 3137 3096 
Q 3566 2609 3566 1747 
Q 3566 888 3137 398 
Q 2709 -91 1959 -91 
Q 1206 -91 779 398 
Q 353 888 353 1747 
Q 353 2609 779 3096 
Q 1206 3584 1959 3584 
z
" id="DejaVuSans-6f" transform="scale(0.015625)"/>
       <path d="M 2906 2969 
L 2906 4863 
L 3481 4863 
L 3481 0 
L 2906 0 
L 2906 525 
Q 2725 213 2448 61 
Q 2172 -91 1784 -91 
Q 1150 -91 751 415 
Q 353 922 353 1747 
Q 353 2572 751 3078 
Q 1150 3584 1784 3584 
Q 2172 3584 2448 3432 
Q 2725 3281 2906 2969 
z
M 947 1747 
Q 947 1113 1208 752 
Q 1469 391 1925 391 
Q 2381 391 2643 752 
Q 2906 1113 2906 1747 
Q 2906 2381 2643 2742 
Q 2381 3103 1925 3103 
Q 1469 3103 1208 2742 
Q 947 2381 947 1747 
z
" id="DejaVuSans-64" transform="scale(0.015625)"/>
       <path d="M 2631 2963 
Q 2534 3019 2420 3045 
Q 2306 3072 2169 3072 
Q 1681 3072 1420 2755 
Q 1159 2438 1159 1844 
L 1159 0 
L 581 0 
L 581 3500 
L 1159 3500 
L 1159 2956 
Q 1341 3275 1631 3429 
Q 1922 3584 2338 3584 
Q 2397 3584 2469 3576 
Q 2541 3569 2628 3553 
L 2631 2963 
z
" id="DejaVuSans-72" transform="scale(0.015625)"/>
       <path d="M 2906 1791 
Q 2906 2416 2648 2759 
Q 2391 3103 1925 3103 
Q 1463 3103 1205 2759 
Q 947 2416 947 1791 
Q 947 1169 1205 825 
Q 1463 481 1925 481 
Q 2391 481 2648 825 
Q 2906 1169 2906 1791 
z
M 3481 434 
Q 3481 -459 3084 -895 
Q 2688 -1331 1869 -1331 
Q 1566 -1331 1297 -1286 
Q 1028 -1241 775 -1147 
L 775 -588 
Q 1028 -725 1275 -790 
Q 1522 -856 1778 -856 
Q 2344 -856 2625 -561 
Q 2906 -266 2906 331 
L 2906 616 
Q 2728 306 2450 153 
Q 2172 0 1784 0 
Q 1141 0 747 490 
Q 353 981 353 1791 
Q 353 2603 747 3093 
Q 1141 3584 1784 3584 
Q 2172 3584 2450 3431 
Q 2728 3278 2906 2969 
L 2906 3500 
L 3481 3500 
L 3481 434 
z
" id="DejaVuSans-67" transform="scale(0.015625)"/>
       <path d="M 544 1381 
L 544 3500 
L 1119 3500 
L 1119 1403 
Q 1119 906 1312 657 
Q 1506 409 1894 409 
Q 2359 409 2629 706 
Q 2900 1003 2900 1516 
L 2900 3500 
L 3475 3500 
L 3475 0 
L 2900 0 
L 2900 538 
Q 2691 219 2414 64 
Q 2138 -91 1772 -91 
Q 1169 -91 856 284 
Q 544 659 544 1381 
z
M 1991 3584 
L 1991 3584 
z
" id="DejaVuSans-75" transform="scale(0.015625)"/>
       <path d="M 353 3500 
L 3084 3500 
L 3084 2975 
L 922 459 
L 3084 459 
L 3084 0 
L 275 0 
L 275 525 
L 2438 3041 
L 353 3041 
L 353 3500 
z
" id="DejaVuSans-7a" transform="scale(0.015625)"/>
       <path d="M 1259 4147 
L 1259 2394 
L 2053 2394 
Q 2494 2394 2734 2622 
Q 2975 2850 2975 3272 
Q 2975 3691 2734 3919 
Q 2494 4147 2053 4147 
L 1259 4147 
z
M 628 4666 
L 2053 4666 
Q 2838 4666 3239 4311 
Q 3641 3956 3641 3272 
Q 3641 2581 3239 2228 
Q 2838 1875 2053 1875 
L 1259 1875 
L 1259 0 
L 628 0 
L 628 4666 
z
" id="DejaVuSans-50" transform="scale(0.015625)"/>
       <path d="M 2194 1759 
Q 1497 1759 1228 1600 
Q 959 1441 959 1056 
Q 959 750 1161 570 
Q 1363 391 1709 391 
Q 2188 391 2477 730 
Q 2766 1069 2766 1631 
L 2766 1759 
L 2194 1759 
z
M 3341 1997 
L 3341 0 
L 2766 0 
L 2766 531 
Q 2569 213 2275 61 
Q 1981 -91 1556 -91 
Q 1019 -91 701 211 
Q 384 513 384 1019 
Q 384 1609 779 1909 
Q 1175 2209 1959 2209 
L 2766 2209 
L 2766 2266 
Q 2766 2663 2505 2880 
Q 2244 3097 1772 3097 
Q 1472 3097 1187 3025 
Q 903 2953 641 2809 
L 641 3341 
Q 956 3463 1253 3523 
Q 1550 3584 1831 3584 
Q 2591 3584 2966 3190 
Q 3341 2797 3341 1997 
z
" id="DejaVuSans-61" transform="scale(0.015625)"/>
       <path d="M 1172 4494 
L 1172 3500 
L 2356 3500 
L 2356 3053 
L 1172 3053 
L 1172 1153 
Q 1172 725 1289 603 
Q 1406 481 1766 481 
L 2356 481 
L 2356 0 
L 1766 0 
Q 1100 0 847 248 
Q 594 497 594 1153 
L 594 3053 
L 172 3053 
L 172 3500 
L 594 3500 
L 594 4494 
L 1172 4494 
z
" id="DejaVuSans-74" transform="scale(0.015625)"/>
       <path d="M 2913 2219 
L 925 2219 
Q 791 1284 928 888 
Q 1100 400 1566 400 
Q 2034 400 2391 891 
Q 2703 1322 2913 2219 
z
M 3009 2750 
Q 3094 3638 2984 3950 
Q 2813 4444 2353 4444 
Q 1875 4444 1525 3956 
Q 1250 3563 1034 2750 
L 3009 2750 
z
M 2444 4913 
Q 3194 4913 3494 4250 
Q 3794 3591 3566 2422 
Q 3341 1256 2781 594 
Q 2225 -72 1475 -72 
Q 722 -72 425 594 
Q 128 1256 353 2422 
Q 581 3591 1134 4250 
Q 1691 4913 2444 4913 
z
" id="DejaVuSans-Oblique-3b8" transform="scale(0.015625)"/>
       <path d="M 3841 3500 
L 2234 1784 
L 3219 0 
L 2559 0 
L 1819 1388 
L 531 0 
L -166 0 
L 1556 1844 
L 641 3500 
L 1300 3500 
L 1972 2234 
L 3144 3500 
L 3841 3500 
z
" id="DejaVuSans-Oblique-78" transform="scale(0.015625)"/>
      </defs>
      <use transform="translate(0 0.234375)" xlink:href="#DejaVuSans-52"/>
      <use transform="translate(69.482422 0.234375)" xlink:href="#DejaVuSans-6f"/>
      <use transform="translate(130.664062 0.234375)" xlink:href="#DejaVuSans-64"/>
      <use transform="translate(194.140625 0.234375)" xlink:href="#DejaVuSans-72"/>
      <use transform="translate(235.253906 0.234375)" xlink:href="#DejaVuSans-69"/>
      <use transform="translate(263.037109 0.234375)" xlink:href="#DejaVuSans-67"/>
      <use transform="translate(326.513672 0.234375)" xlink:href="#DejaVuSans-75"/>
      <use transform="translate(389.892578 0.234375)" xlink:href="#DejaVuSans-65"/>
      <use transform="translate(451.416016 0.234375)" xlink:href="#DejaVuSans-7a"/>
      <use transform="translate(503.90625 0.234375)" xlink:href="#DejaVuSans-20"/>
      <use transform="translate(535.693359 0.234375)" xlink:href="#DejaVuSans-50"/>
      <use transform="translate(595.996094 0.234375)" xlink:href="#DejaVuSans-61"/>
      <use transform="translate(657.275391 0.234375)" xlink:href="#DejaVuSans-72"/>
      <use transform="translate(698.388672 0.234375)" xlink:href="#DejaVuSans-61"/>
      <use transform="translate(759.667969 0.234375)" xlink:href="#DejaVuSans-6d"/>
      <use transform="translate(857.080078 0.234375)" xlink:href="#DejaVuSans-65"/>
      <use transform="translate(918.603516 0.234375)" xlink:href="#DejaVuSans-74"/>
      <use transform="translate(957.8125 0.234375)" xlink:href="#DejaVuSans-65"/>
      <use transform="translate(1019.335938 0.234375)" xlink:href="#DejaVuSans-72"/>
      <use transform="translate(1060.449219 0.234375)" xlink:href="#DejaVuSans-20"/>
      <use transform="translate(1092.236328 0.234375)" xlink:href="#DejaVuSans-Oblique-3b8"/>
      <use transform="translate(1153.417969 -16.171875)scale(0.7)" xlink:href="#DejaVuSans-Oblique-78"/>
      <use transform="translate(1197.578125 0.234375)" xlink:href="#DejaVuSans-20"/>
      <use transform="translate(1229.365234 0.234375)" xlink:href="#DejaVuSans-28"/>
      <use transform="translate(1268.378906 0.234375)" xlink:href="#DejaVuSans-64"/>
      <use transform="translate(1331.855469 0.234375)" xlink:href="#DejaVuSans-65"/>
      <use transform="translate(1393.378906 0.234375)" xlink:href="#DejaVuSans-67"/>
      <use transform="translate(1456.855469 0.234375)" xlink:href="#DejaVuSans-72"/>
      <use transform="translate(1497.96875 0.234375)" xlink:href="#DejaVuSans-65"/>
      <use transform="translate(1559.492188 0.234375)" xlink:href="#DejaVuSans-65"/>
      <use transform="translate(1621.015625 0.234375)" xlink:href="#DejaVuSans-29"/>
     </g>
    </g>
   </g>
   <g id="line2d_12">
    <path clip-path="url(#p90a55a4caa)" d="M 41.781593 132.825554 
L 42.816181 132.928005 
L 43.845464 133.245284 
L 44.890836 133.800791 
L 46.044217 134.667342 
L 47.409434 135.990238 
L 48.723905 137.632295 
L 50.320233 139.92108 
L 52.072008 142.862549 
L 54.200491 146.777917 
L 57.874239 153.894714 
L 59.85502 157.601099 
L 61.218989 159.674702 
L 62.573763 161.339402 
L 65.732175 164.901893 
L 67.031816 165.969516 
L 67.917462 166.398893 
L 68.617615 166.533424 
L 69.190236 166.436631 
L 69.845408 166.098015 
L 70.519938 165.519368 
L 71.365502 164.503304 
L 72.243723 163.094156 
L 73.332518 160.821425 
L 74.364196 158.168392 
L 75.706075 154.048533 
L 77.47937 147.803211 
L 79.899647 138.276688 
L 83.936934 122.014278 
L 85.647084 116.275262 
L 87.400069 111.086374 
L 90.04728 103.832983 
L 91.558116 100.230158 
L 92.784188 98.013688 
L 93.703742 96.773648 
L 94.623296 95.940386 
L 95.242157 95.631368 
L 95.866843 95.559031 
L 96.491529 95.729492 
L 97.130936 96.165133 
L 97.793262 96.84089 
L 98.463077 97.767582 
L 99.501553 99.718847 
L 100.554172 102.196875 
L 101.875265 105.955236 
L 103.359128 110.884763 
L 105.970432 120.719273 
L 108.422316 129.813407 
L 110.104888 135.273219 
L 113.167108 144.139937 
L 115.748017 150.776576 
L 121.521797 165.367848 
L 122.965242 169.873938 
L 124.472654 175.263964 
L 127.250077 185.513337 
L 128.271387 188.42363 
L 129.051659 189.972022 
L 129.586654 190.698878 
L 130.162406 191.137586 
L 130.760704 191.221419 
L 131.359002 190.946185 
L 132.061873 190.168213 
L 132.881405 188.677378 
L 133.800066 186.241572 
L 134.847727 182.638222 
L 135.907992 178.144774 
L 137.299473 171.128132 
L 138.46432 164.212744 
L 139.939291 154.096974 
L 141.891323 138.894664 
L 145.065319 113.580349 
L 146.575449 103.353137 
L 147.810882 96.307172 
L 148.90903 91.126056 
L 149.828434 87.613347 
L 150.789319 84.833133 
L 151.567247 83.277885 
L 152.097643 82.572381 
L 152.628039 82.153981 
L 153.158436 82.007615 
L 153.699232 82.122669 
L 154.264761 82.506486 
L 154.84861 83.202695 
L 155.777716 84.731663 
L 157.99827 88.521528 
L 158.643985 89.201947 
L 159.289701 89.528211 
L 159.900672 89.554635 
L 160.38885 89.381199 
L 161.162046 88.816475 
L 162.838642 87.425889 
L 163.288494 87.280086 
L 163.819168 87.371643 
L 164.176216 87.622291 
L 164.697263 88.340388 
L 165.270941 89.646477 
L 165.985196 91.989761 
L 166.746882 95.357865 
L 167.572814 99.996617 
L 168.499948 106.347917 
L 169.93294 117.968282 
L 174.450161 156.689366 
L 175.68213 164.864969 
L 176.708771 170.130366 
L 177.530084 173.130765 
L 178.159541 174.603626 
L 178.579978 175.180429 
L 179.001213 175.410049 
L 179.424445 175.304477 
L 179.851301 174.88004 
L 180.278158 174.152921 
L 180.920382 172.520113 
L 181.81138 169.441827 
L 183.177685 164.60432 
L 183.864423 163.050388 
L 184.322863 162.614979 
L 184.55239 162.617343 
L 184.781917 162.781302 
L 185.240972 163.665113 
L 185.700027 165.301536 
L 186.159082 167.701377 
L 186.847665 172.716781 
L 187.765774 181.687247 
L 190.521384 211.411374 
L 191.238443 216.216475 
L 191.730016 218.194243 
L 191.980692 218.767175 
L 192.231368 219.039015 
L 192.488605 219.002577 
L 192.760253 218.620964 
L 193.031902 217.896966 
L 193.575198 215.487712 
L 194.118495 211.94073 
L 195.060079 203.832726 
L 197.332808 183.16921 
L 198.170945 177.717891 
L 199.001153 173.749383 
L 199.83321 170.761236 
L 201.046599 167.297707 
L 202.293951 164.221035 
L 203.026521 162.98533 
L 203.519082 162.547725 
L 203.957258 162.460631 
L 204.448538 162.637979 
L 205.009659 163.105002 
L 206.054561 164.046395 
L 206.380801 164.103359 
L 206.726798 163.934602 
L 207.087677 163.440375 
L 207.452651 162.549833 
L 207.943393 160.615943 
L 208.43844 157.727203 
L 209.060996 152.73594 
L 209.866315 144.199592 
L 211.071531 128.553602 
L 213.271578 99.647433 
L 214.067086 91.842583 
L 214.638796 87.748754 
L 215.192425 85.189129 
L 215.579598 84.296512 
L 215.793747 84.123263 
L 216.007895 84.16728 
L 216.227084 84.430985 
L 216.668989 85.597069 
L 217.114423 87.529559 
L 218.005289 92.834392 
L 218.913243 98.070292 
L 219.36982 99.756736 
L 219.598108 100.228865 
L 219.835635 100.429046 
L 220.073162 100.326737 
L 220.310689 99.923344 
L 220.785743 98.265589 
L 221.260797 95.641638 
L 223.562021 80.670843 
L 224.033581 79.305249 
L 224.429346 78.839928 
L 224.627229 78.82083 
L 224.825112 78.929573 
L 225.235189 79.501967 
L 226.915804 82.753655 
L 227.120334 82.795961 
L 227.488293 82.509582 
L 227.81515 81.822297 
L 228.338826 79.868779 
L 228.878708 76.903746 
L 229.968058 69.262422 
L 230.928904 63.167058 
L 231.416742 61.105314 
L 231.907459 60.009689 
L 232.152818 59.870189 
L 232.398177 60.011929 
L 232.643535 60.425457 
L 233.134252 62.014251 
L 233.624969 64.545747 
L 234.361045 69.834868 
L 235.349798 79.093471 
L 236.883862 96.669986 
L 238.286712 111.96531 
L 239.114674 118.515213 
L 239.734707 121.780513 
L 240.258634 123.464698 
L 240.700379 124.256053 
L 241.05831 124.56816 
L 241.566258 124.698837 
L 242.09922 124.834691 
L 242.38183 125.082721 
L 242.669448 125.563713 
L 243.1055 126.868366 
L 243.541552 129.047326 
L 244.001842 132.43845 
L 244.632009 138.895614 
L 245.46816 150.328433 
L 246.641633 170.413621 
L 248.536096 203.1805 
L 249.392087 214.234984 
L 250.144026 221.396252 
L 250.799938 225.918199 
L 251.375166 228.648097 
L 251.753922 229.75946 
L 252.161136 230.292439 
L 252.440894 230.244977 
L 252.723214 229.829618 
L 253.099664 228.676938 
L 253.616453 226.003057 
L 254.17027 221.826994 
L 254.941209 213.96787 
L 255.953817 200.782535 
L 257.386835 182.282214 
L 257.87362 178.032563 
L 258.227895 176.020316 
L 258.588436 175.005598 
L 258.768706 174.910591 
L 258.948976 175.097511 
L 259.274935 176.147268 
L 259.700194 178.823895 
L 260.219167 183.906593 
L 260.89684 193.036119 
L 263.415031 230.106942 
L 263.820833 233.141122 
L 264.226634 234.903882 
L 264.431772 235.310079 
L 264.63691 235.392147 
L 264.842048 235.149322 
L 265.252324 233.70216 
L 265.6626 231.033956 
L 266.278014 224.923896 
L 267.098565 213.48451 
L 268.739668 185.505857 
L 269.970868 166.310918 
L 271.001691 153.779768 
L 271.877792 145.822017 
L 272.933843 138.385208 
L 274.741932 127.305038 
L 275.37246 124.388134 
L 275.822403 123.039949 
L 276.093369 122.630816 
L 276.387953 122.596923 
L 276.688265 123.033021 
L 277.004212 124.041504 
L 277.482638 126.740825 
L 278.059637 131.893865 
L 278.763667 140.722729 
L 279.777372 156.852114 
L 281.421251 182.939878 
L 282.19878 191.730588 
L 282.74452 195.754845 
L 283.126739 197.411472 
L 283.419114 197.999467 
L 283.654332 198.041683 
L 283.909958 197.667076 
L 284.206305 196.715062 
L 284.681297 194.135332 
L 285.3313 188.75808 
L 286.181029 179.26065 
L 287.252564 164.39376 
L 288.587532 142.440374 
L 289.987921 115.599871 
L 293.215283 50.060149 
L 293.822405 43.739334 
L 294.235793 41.30321 
L 294.607997 40.394111 
L 294.74272 40.348894 
L 294.877443 40.443505 
L 295.146889 41.035686 
L 295.443441 42.267799 
L 295.897008 45.21019 
L 296.601137 51.845266 
L 297.535107 63.460346 
L 298.721381 81.665553 
L 300.409983 108.257684 
L 301.031462 114.558346 
L 301.429889 116.866148 
L 301.697643 117.578094 
L 301.840149 117.673639 
L 301.952671 117.612366 
L 302.199769 117.059196 
L 302.459329 115.883795 
L 302.893266 112.664135 
L 303.386379 107.379446 
L 304.322643 94.233052 
L 305.829176 72.781377 
L 306.672261 63.904299 
L 307.348117 58.645667 
L 307.857651 55.939636 
L 308.369872 54.460524 
L 308.715531 54.067732 
L 309.245219 53.96149 
L 309.61437 53.806619 
L 309.990731 53.207599 
L 310.384443 51.868906 
L 310.778155 49.735359 
L 311.347464 45.423887 
L 312.340602 35.714891 
L 313.147606 28.369183 
L 313.563866 25.858705 
L 313.956973 24.698474 
L 314.141951 24.61889 
L 314.304081 24.809168 
L 314.628341 25.961198 
L 314.952601 28.232918 
L 315.406686 33.50946 
L 315.920754 42.660811 
L 316.649069 60.703204 
L 318.581174 111.92913 
L 319.195721 122.2476 
L 319.525389 125.310365 
L 319.762566 126.233988 
L 319.883425 126.274503 
L 320.011828 125.996208 
L 320.268635 124.48135 
L 320.599609 120.829695 
L 321.139872 111.683304 
L 321.961903 93.104799 
L 323.337417 61.272796 
L 323.862168 53.699206 
L 324.265679 50.845681 
L 324.487327 50.443014 
L 324.601514 50.551621 
L 324.849227 51.473528 
L 325.229033 54.60614 
L 325.641168 60.328982 
L 326.16639 71.280343 
L 326.858814 91.583189 
L 328.043168 134.737046 
L 328.964185 164.488796 
L 329.473324 175.422194 
L 329.861743 180.252939 
L 330.120689 181.635693 
L 330.254043 181.780373 
L 330.387398 181.558829 
L 330.654107 180.143486 
L 331.061179 176.100972 
L 332.553778 158.73807 
L 332.971548 156.242661 
L 333.264326 155.4897 
L 333.410715 155.441605 
L 333.557104 155.626827 
L 333.849882 156.698469 
L 334.155135 158.817604 
L 334.613015 163.768112 
L 335.409386 175.912922 
L 337.608745 211.793273 
L 338.172849 216.381894 
L 338.563906 218.061556 
L 338.899616 218.590176 
L 339.140214 218.482206 
L 339.383388 217.987193 
L 339.772008 216.386256 
L 340.180951 213.430532 
L 340.690104 207.514554 
L 341.509571 194.151594 
L 342.215819 184.285567 
L 342.586817 181.350296 
L 342.865065 180.345093 
L 343.057248 180.225022 
L 343.271455 180.583228 
L 343.621002 182.076389 
L 344.128279 185.624744 
L 345.017401 193.88666 
L 346.202869 206.901509 
L 346.875481 217.151788 
L 348.515742 244.615374 
L 348.931261 248.165424 
L 349.365533 249.925914 
L 349.514112 250.129921 
L 349.662691 250.142873 
L 349.81127 249.961138 
L 350.108429 249.000444 
L 350.456687 246.817101 
L 350.90587 242.261894 
L 351.47844 233.838524 
L 353.251374 205.379337 
L 353.815585 200.471466 
L 354.194891 198.88479 
L 354.390119 198.61114 
L 354.592935 198.694961 
L 354.888563 199.414514 
L 355.270459 201.262362 
L 355.740096 204.956872 
L 356.319384 211.715588 
L 357.052435 223.140122 
L 358.123559 239.896012 
L 358.496698 242.885085 
L 358.753065 243.55519 
L 358.881311 243.462942 
L 359.14019 242.465662 
L 359.545943 238.966369 
L 360.229883 229.843022 
L 361.231813 216.61376 
L 362.204105 206.785757 
L 362.744735 202.934612 
L 363.174417 201.179576 
L 363.432151 200.88608 
L 363.633139 201.071262 
L 363.945461 201.950184 
L 364.672729 205.262196 
L 365.587472 208.974897 
L 366.476772 211.77255 
L 367.614165 214.768396 
L 367.759859 214.779071 
L 367.905553 214.549308 
L 368.174874 213.370695 
L 368.54088 210.112835 
L 369.054787 202.510091 
L 369.666234 189.135443 
L 371.385376 147.733936 
L 372.000544 139.806082 
L 372.962451 131.238815 
L 373.71906 125.314416 
L 374.117538 123.641226 
L 374.255407 123.44953 
L 374.395516 123.483924 
L 374.535624 123.753688 
L 374.829794 125.148467 
L 375.231791 128.978115 
L 375.778747 137.015647 
L 377.120308 157.812826 
L 377.503456 161.170422 
L 377.818733 162.213754 
L 377.926259 162.186533 
L 378.159738 161.485638 
L 378.41265 159.809344 
L 378.831502 155.311854 
L 379.408838 146.131798 
L 380.200102 128.25538 
L 382.777771 65.314109 
L 383.57289 53.096332 
L 383.93167 49.8235 
L 384.241808 48.506891 
L 384.458667 48.253993 
L 384.677769 48.442402 
L 384.896871 49.059772 
L 385.240915 51.092893 
L 385.674044 55.768341 
L 387.072894 73.531603 
L 387.515418 76.54844 
L 387.786098 77.08957 
L 387.973149 76.750169 
L 388.257348 75.197991 
L 388.702061 70.897796 
L 389.270198 63.055202 
L 390.181162 46.59134 
L 390.944102 35.081046 
L 391.6078 28.426525 
L 392.003571 26.235022 
L 392.291761 25.642436 
L 392.522842 25.608923 
L 392.816403 25.879831 
L 393.121003 26.445951 
L 393.445902 27.535771 
L 393.846165 29.986264 
L 394.353511 35.096385 
L 395.005295 44.114579 
L 396.536632 66.249706 
L 396.850217 68.173018 
L 397.062606 68.370065 
L 397.274994 67.607828 
L 397.593576 64.709992 
L 398.027011 57.890275 
L 399.016229 36.855133 
L 399.729771 23.729029 
L 400.257635 17.440234 
L 400.713519 13.966107 
L 401.193853 11.812975 
L 401.678758 10.802844 
L 402.179853 10.124258 
L 402.4331 10.091932 
L 402.67125 10.434622 
L 403.008781 11.535726 
L 403.362858 13.494035 
L 403.738223 16.713637 
L 404.113588 21.618761 
L 404.740238 33.909291 
L 406.673409 76.063582 
L 407.089719 80.297161 
L 407.42813 81.73478 
L 407.605458 81.822374 
L 407.795172 81.457821 
L 408.109104 80.096853 
L 409.104869 74.995074 
L 409.475063 74.63678 
L 409.728586 74.377542 
L 409.990401 73.741936 
L 410.39112 71.992061 
L 410.781184 69.199219 
L 411.366747 62.895974 
L 412.535054 49.054235 
L 413.002276 46.2986 
L 413.316522 45.415822 
L 413.50735 45.294836 
L 413.658074 45.429616 
L 413.823606 45.856036 
L 414.095034 47.299569 
L 414.503493 51.291741 
L 415.584897 65.819989 
L 416.593399 78.900668 
L 417.006839 81.604054 
L 417.224314 82.161104 
L 417.448645 82.281447 
L 417.689585 82.090051 
L 417.933077 81.554337 
L 418.302144 80.037383 
L 418.835238 77.836345 
L 419.044211 77.570886 
L 419.1925 77.675734 
L 419.427536 78.48949 
L 419.704201 80.496161 
L 420.254274 86.81303 
L 421.025697 98.418788 
L 422.361999 121.162972 
L 422.361999 121.162972 
" style="fill:none;stroke:#e36f47;"/>
   </g>
   <g id="patch_3">
    <path d="M 41.781593 258.225354 
L 41.781593 2.834646 
" style="fill:none;stroke:#000000;stroke-linecap:square;stroke-linejoin:miter;"/>
   </g>
   <g id="patch_4">
    <path d="M 41.781593 258.225354 
L 422.361999 258.225354 
" style="fill:none;stroke:#000000;stroke-linecap:square;stroke-linejoin:miter;"/>
   </g>
   <g id="legend_1">
    <g id="patch_5">
     <path d="M 299.041999 39.119646 
L 418.361999 39.119646 
L 418.361999 6.834646 
L 299.041999 6.834646 
z
" style="fill:#ffffff;stroke:#000000;stroke-linejoin:miter;"/>
    </g>
    <g id="line2d_13">
     <path d="M 305.441999 16.513396 
L 321.441999 16.513396 
" style="fill:none;stroke:#009afa;stroke-linejoin:miter;"/>
    </g>
    <g id="line2d_14"/>
    <g id="text_13">
     <!-- GXBeam -->
     <g transform="translate(327.841999 19.313396)scale(0.08 -0.08)">
      <defs>
       <path d="M 3809 666 
L 3809 1919 
L 2778 1919 
L 2778 2438 
L 4434 2438 
L 4434 434 
Q 4069 175 3628 42 
Q 3188 -91 2688 -91 
Q 1594 -91 976 548 
Q 359 1188 359 2328 
Q 359 3472 976 4111 
Q 1594 4750 2688 4750 
Q 3144 4750 3555 4637 
Q 3966 4525 4313 4306 
L 4313 3634 
Q 3963 3931 3569 4081 
Q 3175 4231 2741 4231 
Q 1884 4231 1454 3753 
Q 1025 3275 1025 2328 
Q 1025 1384 1454 906 
Q 1884 428 2741 428 
Q 3075 428 3337 486 
Q 3600 544 3809 666 
z
" id="DejaVuSans-47" transform="scale(0.015625)"/>
       <path d="M 403 4666 
L 1081 4666 
L 2241 2931 
L 3406 4666 
L 4084 4666 
L 2584 2425 
L 4184 0 
L 3506 0 
L 2194 1984 
L 872 0 
L 191 0 
L 1856 2491 
L 403 4666 
z
" id="DejaVuSans-58" transform="scale(0.015625)"/>
       <path d="M 1259 2228 
L 1259 519 
L 2272 519 
Q 2781 519 3026 730 
Q 3272 941 3272 1375 
Q 3272 1813 3026 2020 
Q 2781 2228 2272 2228 
L 1259 2228 
z
M 1259 4147 
L 1259 2741 
L 2194 2741 
Q 2656 2741 2882 2914 
Q 3109 3088 3109 3444 
Q 3109 3797 2882 3972 
Q 2656 4147 2194 4147 
L 1259 4147 
z
M 628 4666 
L 2241 4666 
Q 2963 4666 3353 4366 
Q 3744 4066 3744 3513 
Q 3744 3084 3544 2831 
Q 3344 2578 2956 2516 
Q 3422 2416 3680 2098 
Q 3938 1781 3938 1306 
Q 3938 681 3513 340 
Q 3088 0 2303 0 
L 628 0 
L 628 4666 
z
" id="DejaVuSans-42" transform="scale(0.015625)"/>
      </defs>
      <use xlink:href="#DejaVuSans-47"/>
      <use x="77.490234" xlink:href="#DejaVuSans-58"/>
      <use x="145.996094" xlink:href="#DejaVuSans-42"/>
      <use x="214.599609" xlink:href="#DejaVuSans-65"/>
      <use x="276.123047" xlink:href="#DejaVuSans-61"/>
      <use x="337.402344" xlink:href="#DejaVuSans-6d"/>
     </g>
    </g>
    <g id="line2d_15">
     <path d="M 305.441999 28.255896 
L 321.441999 28.255896 
" style="fill:none;stroke:#e36f47;stroke-linejoin:miter;"/>
    </g>
    <g id="line2d_16"/>
    <g id="text_14">
     <!-- DifferentialEquations -->
     <g transform="translate(327.841999 31.055896)scale(0.08 -0.08)">
      <defs>
       <path d="M 1259 4147 
L 1259 519 
L 2022 519 
Q 2988 519 3436 956 
Q 3884 1394 3884 2338 
Q 3884 3275 3436 3711 
Q 2988 4147 2022 4147 
L 1259 4147 
z
M 628 4666 
L 1925 4666 
Q 3281 4666 3915 4102 
Q 4550 3538 4550 2338 
Q 4550 1131 3912 565 
Q 3275 0 1925 0 
L 628 0 
L 628 4666 
z
" id="DejaVuSans-44" transform="scale(0.015625)"/>
       <path d="M 2375 4863 
L 2375 4384 
L 1825 4384 
Q 1516 4384 1395 4259 
Q 1275 4134 1275 3809 
L 1275 3500 
L 2222 3500 
L 2222 3053 
L 1275 3053 
L 1275 0 
L 697 0 
L 697 3053 
L 147 3053 
L 147 3500 
L 697 3500 
L 697 3744 
Q 697 4328 969 4595 
Q 1241 4863 1831 4863 
L 2375 4863 
z
" id="DejaVuSans-66" transform="scale(0.015625)"/>
       <path d="M 3513 2113 
L 3513 0 
L 2938 0 
L 2938 2094 
Q 2938 2591 2744 2837 
Q 2550 3084 2163 3084 
Q 1697 3084 1428 2787 
Q 1159 2491 1159 1978 
L 1159 0 
L 581 0 
L 581 3500 
L 1159 3500 
L 1159 2956 
Q 1366 3272 1645 3428 
Q 1925 3584 2291 3584 
Q 2894 3584 3203 3211 
Q 3513 2838 3513 2113 
z
" id="DejaVuSans-6e" transform="scale(0.015625)"/>
       <path d="M 603 4863 
L 1178 4863 
L 1178 0 
L 603 0 
L 603 4863 
z
" id="DejaVuSans-6c" transform="scale(0.015625)"/>
       <path d="M 628 4666 
L 3578 4666 
L 3578 4134 
L 1259 4134 
L 1259 2753 
L 3481 2753 
L 3481 2222 
L 1259 2222 
L 1259 531 
L 3634 531 
L 3634 0 
L 628 0 
L 628 4666 
z
" id="DejaVuSans-45" transform="scale(0.015625)"/>
       <path d="M 947 1747 
Q 947 1113 1208 752 
Q 1469 391 1925 391 
Q 2381 391 2643 752 
Q 2906 1113 2906 1747 
Q 2906 2381 2643 2742 
Q 2381 3103 1925 3103 
Q 1469 3103 1208 2742 
Q 947 2381 947 1747 
z
M 2906 525 
Q 2725 213 2448 61 
Q 2172 -91 1784 -91 
Q 1150 -91 751 415 
Q 353 922 353 1747 
Q 353 2572 751 3078 
Q 1150 3584 1784 3584 
Q 2172 3584 2448 3432 
Q 2725 3281 2906 2969 
L 2906 3500 
L 3481 3500 
L 3481 -1331 
L 2906 -1331 
L 2906 525 
z
" id="DejaVuSans-71" transform="scale(0.015625)"/>
      </defs>
      <use xlink:href="#DejaVuSans-44"/>
      <use x="77.001953" xlink:href="#DejaVuSans-69"/>
      <use x="104.785156" xlink:href="#DejaVuSans-66"/>
      <use x="139.990234" xlink:href="#DejaVuSans-66"/>
      <use x="175.195312" xlink:href="#DejaVuSans-65"/>
      <use x="236.71875" xlink:href="#DejaVuSans-72"/>
      <use x="275.582031" xlink:href="#DejaVuSans-65"/>
      <use x="337.105469" xlink:href="#DejaVuSans-6e"/>
      <use x="400.484375" xlink:href="#DejaVuSans-74"/>
      <use x="439.693359" xlink:href="#DejaVuSans-69"/>
      <use x="467.476562" xlink:href="#DejaVuSans-61"/>
      <use x="528.755859" xlink:href="#DejaVuSans-6c"/>
      <use x="556.539062" xlink:href="#DejaVuSans-45"/>
      <use x="619.722656" xlink:href="#DejaVuSans-71"/>
      <use x="683.199219" xlink:href="#DejaVuSans-75"/>
      <use x="746.578125" xlink:href="#DejaVuSans-61"/>
      <use x="807.857422" xlink:href="#DejaVuSans-74"/>
      <use x="847.066406" xlink:href="#DejaVuSans-69"/>
      <use x="874.849609" xlink:href="#DejaVuSans-6f"/>
      <use x="936.03125" xlink:href="#DejaVuSans-6e"/>
      <use x="999.410156" xlink:href="#DejaVuSans-73"/>
     </g>
    </g>
   </g>
  </g>
 </g>
 <defs>
  <clipPath id="p90a55a4caa">
   <rect height="255.390709" width="380.580407" x="41.781593" y="2.834646"/>
  </clipPath>
 </defs>
</svg>
