<?xml version="1.0" encoding="utf-8" standalone="no"?>
<!DOCTYPE svg PUBLIC "-//W3C//DTD SVG 1.1//EN"
  "http://www.w3.org/Graphics/SVG/1.1/DTD/svg11.dtd">
<svg height="288pt" version="1.1" viewBox="0 0 432 288" width="432pt" xmlns="http://www.w3.org/2000/svg" xmlns:xlink="http://www.w3.org/1999/xlink">
 <metadata>
  <rdf:RDF xmlns:cc="http://creativecommons.org/ns#" xmlns:dc="http://purl.org/dc/elements/1.1/" xmlns:rdf="http://www.w3.org/1999/02/22-rdf-syntax-ns#">
   <cc:Work>
    <dc:type rdf:resource="http://purl.org/dc/dcmitype/StillImage"/>
    <dc:date>2021-11-10T23:08:35.316345</dc:date>
    <dc:format>image/svg+xml</dc:format>
    <dc:creator>
     <cc:Agent>
      <dc:title>Matplotlib v3.4.3, https://matplotlib.org/</dc:title>
     </cc:Agent>
    </dc:creator>
   </cc:Work>
  </rdf:RDF>
 </metadata>
 <defs>
  <style type="text/css">*{stroke-linecap:butt;stroke-linejoin:round;}</style>
 </defs>
 <g id="figure_1">
  <g id="patch_1">
   <path d="M 0 288 
L 432 288 
L 432 0 
L 0 0 
z
" style="fill:#ffffff;"/>
  </g>
  <g id="axes_1">
   <g id="patch_2">
    <path d="M 66.051544 258.225354 
L 422.361999 258.225354 
L 422.361999 2.834646 
L 66.051544 2.834646 
z
" style="fill:#ffffff;"/>
   </g>
   <g id="line2d_1">
    <path clip-path="url(#pa21c591a26)" d="M 66.051544 121.661463 
L 68.011251 121.629553 
L 68.367562 121.522493 
L 68.723872 121.757006 
L 69.080183 121.748395 
L 69.436493 121.604163 
L 69.614648 121.762325 
L 70.149114 121.664097 
L 70.327269 121.421391 
L 70.505424 121.40636 
L 71.03989 121.745569 
L 71.218045 121.760252 
L 71.574356 121.633591 
L 72.286977 121.755834 
L 72.643287 121.576334 
L 73.177753 121.768959 
L 73.355908 121.876206 
L 74.602995 121.689348 
L 74.959305 121.69506 
L 75.315616 121.612621 
L 75.850081 121.87387 
L 76.028237 121.874443 
L 76.384547 121.586299 
L 76.740857 121.594256 
L 77.097168 121.767419 
L 77.453478 121.489044 
L 77.809789 121.429998 
L 78.166099 121.682518 
L 78.52241 121.513084 
L 78.87872 121.449151 
L 79.235031 121.794721 
L 80.125807 121.614998 
L 80.838428 121.611515 
L 81.016583 121.519145 
L 81.194738 121.603873 
L 81.551049 121.554508 
L 81.729204 121.697134 
L 82.441825 121.342984 
L 82.798135 121.530871 
L 83.332601 121.715084 
L 83.688911 121.517483 
L 84.223377 121.586781 
L 84.401532 121.494467 
L 84.757843 121.186318 
L 85.114153 121.319926 
L 85.470464 121.591883 
L 86.183084 121.565989 
L 87.252016 121.722044 
L 87.786482 121.707251 
L 88.142792 121.805163 
L 88.677258 121.452816 
L 88.855413 121.376037 
L 89.211723 121.592831 
L 89.924344 121.190439 
L 90.280655 121.444572 
L 91.349586 121.486404 
L 92.418517 121.533286 
L 92.596673 121.53561 
L 93.309294 122.321968 
L 93.665604 122.383389 
L 94.55638 123.163724 
L 94.912691 123.373658 
L 95.269001 123.8761 
L 95.625312 124.328891 
L 96.516088 124.782396 
L 97.406864 125.540824 
L 98.29764 126.500169 
L 98.832106 126.650814 
L 99.366571 127.137917 
L 99.722882 127.137835 
L 99.901037 127.034921 
L 100.435503 127.223202 
L 100.791813 127.098337 
L 100.969968 126.861559 
L 101.682589 126.732295 
L 102.573365 125.593149 
L 102.751521 125.458431 
L 103.820452 123.40161 
L 105.245694 119.94118 
L 105.602004 119.111729 
L 106.849091 115.713596 
L 107.383557 114.477938 
L 107.561712 114.222953 
L 108.808798 111.225233 
L 109.87773 109.430449 
L 111.481127 107.317954 
L 111.659282 107.211255 
L 112.193748 106.549957 
L 112.550058 106.290104 
L 112.906369 106.119379 
L 113.262679 106.025545 
L 113.61899 106.009985 
L 114.866076 106.629897 
L 116.113163 108.290376 
L 116.825784 109.619482 
L 118.607336 114.929682 
L 119.141802 117.084934 
L 120.388888 122.354786 
L 121.45782 127.668796 
L 122.704906 134.060685 
L 124.308303 140.968982 
L 125.377235 144.213571 
L 125.9117 145.18065 
L 126.980632 145.594898 
L 127.515097 145.145438 
L 127.693253 145.085306 
L 128.049563 144.513564 
L 128.584029 143.233117 
L 129.118494 141.97357 
L 133.572375 125.031431 
L 133.928686 124.185999 
L 134.284996 123.079987 
L 134.641306 122.413979 
L 134.819462 122.377449 
L 135.532083 121.568817 
L 137.313635 121.259037 
L 137.49179 121.218769 
L 138.026256 120.834952 
L 138.560721 120.603577 
L 139.273342 120.224679 
L 139.985963 119.502149 
L 140.342274 118.791814 
L 141.054895 117.356364 
L 141.411205 116.697937 
L 142.301981 114.593637 
L 143.014602 112.696924 
L 143.727223 111.426961 
L 144.439844 109.911208 
L 144.97431 108.861256 
L 145.33062 108.592585 
L 146.043241 108.040286 
L 146.755862 108.861781 
L 147.112172 109.555321 
L 148.002949 112.51396 
L 149.784501 120.023978 
L 151.744208 126.200865 
L 152.278674 126.719218 
L 152.81314 126.63098 
L 153.16945 126.453183 
L 153.347605 126.511901 
L 153.703916 126.287499 
L 153.882071 126.052368 
L 154.238381 125.344914 
L 154.772847 124.858931 
L 156.732555 121.121509 
L 157.26702 119.992899 
L 157.623331 119.653989 
L 158.157797 118.590557 
L 158.335952 118.459306 
L 158.692262 118.478099 
L 159.226728 117.680196 
L 159.404883 117.550512 
L 159.583038 117.66846 
L 159.761194 117.616173 
L 160.295659 116.801223 
L 160.473814 116.667333 
L 160.65197 116.77837 
L 161.00828 116.503373 
L 161.720901 115.946276 
L 162.255367 114.932317 
L 162.611677 114.132486 
L 162.789832 113.848667 
L 164.036919 109.742017 
L 167.421868 96.032574 
L 167.956334 95.054999 
L 168.312644 94.064891 
L 168.668955 93.897388 
L 168.84711 93.910452 
L 169.203421 93.585358 
L 169.381576 93.683681 
L 170.272352 95.301053 
L 170.628662 96.845532 
L 171.519439 101.714922 
L 173.657301 119.881186 
L 174.548077 127.409436 
L 175.260698 132.459416 
L 175.973319 136.270977 
L 177.576716 142.026087 
L 179.714579 148.818219 
L 180.4272 151.797248 
L 181.852442 157.766743 
L 182.921373 160.208116 
L 183.099528 160.305052 
L 183.633994 161.023747 
L 183.812149 160.975889 
L 184.16846 160.482257 
L 184.346615 160.422732 
L 184.702925 159.885881 
L 185.593702 156.712271 
L 186.128167 153.262529 
L 186.662633 149.665814 
L 188.978651 130.604273 
L 190.047582 123.606961 
L 190.938358 118.910623 
L 191.294669 117.440228 
L 191.829135 116.555757 
L 192.185445 115.87812 
L 192.3636 115.937289 
L 192.719911 116.50113 
L 193.076221 116.381288 
L 193.432532 116.937 
L 193.788842 117.84395 
L 194.145153 118.025641 
L 194.501463 118.710364 
L 194.857773 119.35642 
L 195.035929 119.259479 
L 195.392239 119.519657 
L 195.74855 119.850301 
L 195.926705 119.555338 
L 196.817481 116.719271 
L 197.886412 108.301044 
L 198.777188 99.033804 
L 199.667965 91.19819 
L 200.558741 86.156933 
L 201.093206 85.141429 
L 201.271362 85.090028 
L 201.449517 85.400532 
L 201.805827 86.868473 
L 202.340293 90.496971 
L 202.874759 96.622633 
L 203.409224 104.884032 
L 204.3 123.246389 
L 205.725242 152.453592 
L 206.437863 161.331541 
L 206.794174 163.391356 
L 207.150484 164.117433 
L 207.328639 164.078424 
L 207.506795 163.381049 
L 207.863105 160.628687 
L 208.575726 152.745574 
L 210.535433 124.241652 
L 211.069899 119.436291 
L 211.42621 118.180673 
L 211.960675 117.1502 
L 212.138831 117.013501 
L 212.495141 117.224714 
L 212.673296 117.143095 
L 213.207762 116.491802 
L 213.564072 116.407533 
L 213.920383 115.455523 
L 214.276693 114.276635 
L 214.633004 113.515866 
L 216.770866 106.514783 
L 218.196108 97.87599 
L 218.908729 92.808099 
L 221.402902 67.699991 
L 221.759213 66.19845 
L 222.115523 66.187733 
L 222.293678 66.359672 
L 222.471834 66.935957 
L 222.828144 69.438154 
L 223.540765 78.597254 
L 225.856783 113.473976 
L 226.391249 117.556019 
L 226.747559 119.032 
L 226.925714 119.251937 
L 227.10387 119.126349 
L 227.282025 118.839279 
L 227.638335 117.625473 
L 227.816491 116.767175 
L 229.419888 104.193864 
L 229.598043 103.92405 
L 229.954353 103.994824 
L 230.132509 103.930075 
L 230.310664 104.576457 
L 231.20144 112.282191 
L 232.270371 126.877671 
L 234.051924 155.335289 
L 235.833476 178.753945 
L 236.902407 190.607093 
L 237.436873 195.106611 
L 237.971339 196.659282 
L 238.149494 196.927505 
L 238.327649 196.54923 
L 238.683959 193.324223 
L 239.218425 186.450917 
L 239.752891 174.433269 
L 240.643667 150.430011 
L 241.534443 128.643379 
L 242.068909 120.954629 
L 242.425219 118.586195 
L 242.603374 118.494664 
L 242.959685 119.424628 
L 243.13784 120.070576 
L 243.315995 121.251414 
L 244.384927 134.055986 
L 244.919392 141.296393 
L 245.632013 146.267147 
L 245.810169 146.803018 
L 245.988324 146.331961 
L 246.522789 142.954055 
L 246.8791 139.328952 
L 249.016963 105.90002 
L 249.195118 104.552239 
L 249.373273 104.092536 
L 249.551428 104.21125 
L 249.729584 104.93455 
L 250.085894 108.733727 
L 250.62036 119.887739 
L 252.223757 157.519564 
L 252.580067 162.000664 
L 253.648999 167.975599 
L 253.827154 168.271014 
L 254.183464 169.93889 
L 254.539775 171.255832 
L 254.71793 170.852318 
L 255.252396 168.240746 
L 255.608706 163.96276 
L 256.855793 137.954475 
L 258.102879 106.68875 
L 258.637345 90.442033 
L 260.062587 40.823519 
L 260.953363 18.474564 
L 261.309673 13.687171 
L 261.665984 11.074085 
L 261.844139 10.25129 
L 262.022294 10.334577 
L 262.378605 13.90014 
L 262.91307 22.875744 
L 263.447536 37.90624 
L 264.338312 69.536505 
L 265.229088 100.436839 
L 265.763554 112.268002 
L 266.119865 115.059013 
L 266.29802 115.521336 
L 266.476175 115.166778 
L 266.65433 113.88497 
L 267.010641 108.570039 
L 268.614038 76.94353 
L 268.970348 74.427058 
L 269.148503 73.652121 
L 269.326659 73.427701 
L 269.682969 73.980103 
L 270.03928 75.89338 
L 270.39559 78.402672 
L 270.7519 82.876504 
L 271.286366 94.915229 
L 271.820832 111.694665 
L 274.49316 219.780913 
L 275.027626 229.381788 
L 275.205781 231.421141 
L 275.383936 231.968941 
L 275.562092 231.471935 
L 275.918402 228.974916 
L 276.274712 224.172075 
L 276.809178 208.984973 
L 277.521799 181.966579 
L 278.59073 136.115643 
L 279.303351 113.744777 
L 280.372283 90.947347 
L 281.263059 79.538496 
L 281.619369 77.020697 
L 282.33199 69.400128 
L 282.688301 65.702634 
L 283.222766 59.390469 
L 283.579077 57.983035 
L 283.757232 57.437717 
L 283.935387 57.467222 
L 284.113543 58.65556 
L 284.469853 64.521766 
L 285.182474 81.029611 
L 286.07325 106.169111 
L 286.964026 126.07899 
L 287.854802 140.400634 
L 288.567423 145.1118 
L 288.745578 144.528834 
L 289.280044 138.262237 
L 289.636355 132.855344 
L 291.417907 89.994386 
L 291.774217 82.603384 
L 292.308683 70.783687 
L 292.843149 61.545639 
L 293.199459 55.409298 
L 293.91208 49.346839 
L 294.090235 48.756806 
L 294.26839 49.354919 
L 294.624701 52.711815 
L 294.981011 58.367734 
L 295.337322 68.663011 
L 296.049943 97.707458 
L 297.831495 180.218078 
L 298.187805 190.291175 
L 298.544116 195.088262 
L 298.722271 195.961357 
L 298.900426 196.231443 
L 299.078582 196.039624 
L 299.256737 194.599225 
L 300.147513 178.9279 
L 301.3946 151.338536 
L 301.75091 144.663617 
L 302.285376 139.833858 
L 302.641686 138.134915 
L 302.819841 138.542879 
L 302.997997 139.961554 
L 303.354307 145.43591 
L 303.888773 158.803457 
L 304.779549 185.309208 
L 305.135859 190.508773 
L 305.314015 191.85678 
L 305.49217 192.083506 
L 305.670325 190.713778 
L 306.026636 184.294243 
L 306.561101 170.326489 
L 307.451877 142.778753 
L 307.808188 136.467303 
L 307.986343 134.990162 
L 308.164498 134.628619 
L 308.342653 135.427569 
L 308.698964 138.970863 
L 309.946051 157.274688 
L 310.124206 158.057738 
L 310.302361 157.979163 
L 310.480516 156.828476 
L 310.836827 151.796366 
L 311.371292 135.929653 
L 313.865466 50.865105 
L 314.043621 49.320359 
L 314.221776 48.758825 
L 314.399931 50.103191 
L 314.578086 53.825904 
L 314.934397 70.787507 
L 315.468863 111.239541 
L 316.715949 225.500129 
L 317.07226 237.247319 
L 317.250415 236.352528 
L 317.606725 222.971806 
L 318.141191 190.118572 
L 319.031967 130.932353 
L 319.744588 100.921686 
L 320.813519 76.126979 
L 321.882451 60.481038 
L 322.060606 60.760467 
L 322.416916 62.272348 
L 322.773227 65.389324 
L 323.307693 71.192891 
L 323.842158 73.050767 
L 325.623711 88.059012 
L 325.801866 88.919493 
L 326.158176 92.916504 
L 326.692642 101.361984 
L 327.048952 113.487375 
L 328.296039 166.519485 
L 328.652349 171.266927 
L 328.830505 171.738899 
L 329.00866 171.597078 
L 329.186815 170.638845 
L 329.899436 163.75658 
L 330.077591 163.275114 
L 330.255746 162.26619 
L 330.612057 157.946405 
L 331.146523 147.995855 
L 331.859144 126.426855 
L 332.571764 101.96717 
L 333.284385 77.026916 
L 333.640696 71.840376 
L 333.818851 73.475648 
L 334.175162 84.750535 
L 335.422248 142.599898 
L 336.313024 160.248857 
L 336.84749 170.950633 
L 337.381956 181.713321 
L 337.738266 185.737185 
L 338.094577 187.520474 
L 338.272732 187.053398 
L 338.629042 184.069993 
L 338.985353 174.958554 
L 339.341663 156.739191 
L 340.410594 91.447313 
L 340.94506 69.707151 
L 341.301371 62.209876 
L 341.479526 61.293055 
L 341.657681 62.995932 
L 342.013992 72.499712 
L 342.548457 101.45908 
L 343.082923 126.912746 
L 343.439233 136.597125 
L 343.795544 141.521938 
L 343.973699 142.338004 
L 344.151854 142.232864 
L 344.330009 142.76718 
L 344.508165 142.517493 
L 344.68632 140.823391 
L 344.864475 137.725754 
L 346.111562 101.583105 
L 346.289717 101.053281 
L 346.467872 101.87975 
L 346.646027 101.530356 
L 346.824183 100.074994 
L 347.002338 97.279304 
L 347.536804 78.744559 
L 347.893114 67.212954 
L 348.071269 66.051463 
L 348.249424 67.802533 
L 348.605735 79.120029 
L 348.962045 99.393773 
L 349.852822 159.853781 
L 350.387287 189.474954 
L 350.743598 197.250852 
L 350.921753 198.792933 
L 351.099908 198.494184 
L 351.278063 196.348415 
L 351.456219 190.149906 
L 353.950392 52.346502 
L 354.128547 48.087712 
L 354.306702 46.946912 
L 354.484857 47.319499 
L 354.841168 48.436045 
L 355.197478 49.104617 
L 355.375634 48.85315 
L 355.553789 48.277049 
L 356.088255 44.823697 
L 356.26641 46.000105 
L 356.62272 55.071909 
L 357.335341 75.846332 
L 357.691652 82.86578 
L 357.869807 83.997197 
L 358.047962 82.683609 
L 358.404272 78.558673 
L 358.582428 78.821122 
L 360.36398 100.850604 
L 360.72029 113.93942 
L 361.789222 171.29819 
L 361.967377 175.640437 
L 362.145532 176.656452 
L 362.323687 175.435919 
L 362.679998 172.57902 
L 362.858153 173.146208 
L 363.214464 175.71144 
L 363.392619 174.793105 
L 363.570774 171.464096 
L 363.927085 154.039454 
L 364.46155 105.282214 
L 364.996016 62.349201 
L 365.352326 53.994364 
L 365.530482 53.793296 
L 365.708637 55.061745 
L 366.064947 61.320428 
L 366.421258 70.361302 
L 366.955723 77.469404 
L 367.312034 93.577533 
L 368.737276 182.13357 
L 369.093586 199.686387 
L 369.806207 243.78218 
L 370.162518 250.997315 
L 370.340673 250.915374 
L 370.518828 247.544702 
L 371.765915 206.134931 
L 372.122225 183.355933 
L 373.191156 93.132713 
L 373.369312 86.574183 
L 373.547467 84.301389 
L 373.725622 84.945673 
L 373.903777 85.104341 
L 374.081933 83.204653 
L 374.260088 77.911631 
L 375.329019 28.849482 
L 375.507174 28.339619 
L 375.863485 38.582756 
L 376.219795 49.084092 
L 377.110571 59.90598 
L 377.466882 70.647435 
L 378.179503 97.252737 
L 378.357658 97.707352 
L 379.070279 87.793158 
L 379.248434 88.151023 
L 379.426589 91.381603 
L 379.7829 109.632874 
L 380.317365 146.057764 
L 380.673676 158.929844 
L 381.029986 165.365836 
L 381.208142 165.876922 
L 381.386297 164.437362 
L 382.811539 140.64063 
L 382.989694 140.995687 
L 383.167849 143.27042 
L 383.52416 155.022495 
L 384.058625 177.75956 
L 384.23678 180.087002 
L 384.414936 178.994385 
L 384.593091 174.007085 
L 385.483867 129.064443 
L 385.662022 126.935648 
L 385.840178 126.502934 
L 386.018333 126.490467 
L 386.374643 127.427723 
L 386.552798 125.623319 
L 386.909109 113.320722 
L 387.265419 103.240409 
L 387.443575 104.935301 
L 388.334351 125.819629 
L 388.512506 127.384004 
L 388.690661 125.700243 
L 389.225127 114.350343 
L 389.403282 117.809989 
L 390.115903 152.052727 
L 390.650369 179.215263 
L 390.828524 182.70811 
L 391.006679 180.635178 
L 391.897455 157.852299 
L 392.253766 144.620817 
L 392.966387 127.4933 
L 393.500852 104.470478 
L 394.035318 88.750341 
L 394.391628 83.492865 
L 394.747939 80.132931 
L 395.104249 73.119742 
L 395.81687 57.231527 
L 395.995026 56.464789 
L 396.707646 60.934599 
L 397.063957 67.591023 
L 397.598423 87.161043 
L 398.489199 137.315432 
L 398.667354 136.634786 
L 399.023664 128.917985 
L 399.379975 114.805291 
L 399.736285 97.414234 
L 399.914441 94.872706 
L 400.270751 105.028183 
L 400.627061 113.341575 
L 400.983372 115.788874 
L 401.161527 116.84706 
L 401.339682 114.873721 
L 401.695993 108.376656 
L 401.874148 110.791502 
L 402.230458 125.829314 
L 402.408614 127.627732 
L 402.943079 118.109132 
L 403.29939 123.949513 
L 403.477545 122.846705 
L 403.833856 115.14084 
L 404.012011 115.736406 
L 404.368321 120.857682 
L 404.724632 121.864852 
L 405.080942 124.559893 
L 405.259097 120.801506 
L 405.793563 91.959396 
L 405.971718 91.387422 
L 406.328029 98.422325 
L 406.506184 98.260288 
L 406.684339 96.75928 
L 406.862494 96.580285 
L 407.04065 97.725074 
L 407.218805 97.741553 
L 407.39696 94.498517 
L 407.753271 83.98459 
L 407.931426 83.226214 
L 408.109581 86.412352 
L 408.465891 103.97321 
L 409.534823 177.883737 
L 410.069289 196.915335 
L 410.603754 201.114649 
L 410.960065 205.428218 
L 411.13822 202.375829 
L 411.49453 179.984201 
L 411.850841 158.444145 
L 412.028996 155.409708 
L 412.207151 157.49082 
L 412.563462 168.83194 
L 413.097927 190.054342 
L 413.276083 193.091264 
L 413.454238 188.582201 
L 413.810548 156.60119 
L 414.345014 106.030787 
L 415.23579 50.034573 
L 415.413945 51.287938 
L 415.948411 70.606436 
L 416.482877 100.913127 
L 417.017342 139.596997 
L 417.373653 168.670369 
L 417.551808 171.197869 
L 417.729963 162.641418 
L 418.086274 134.925396 
L 418.264429 129.701575 
L 418.442584 131.29788 
L 418.798895 140.184096 
L 418.97705 141.040695 
L 419.33336 139.349936 
L 419.511516 139.109958 
L 419.689671 137.408856 
L 419.867826 132.653578 
L 420.402292 109.123664 
L 420.580447 108.21713 
L 420.936757 112.492408 
L 421.114913 109.801526 
L 421.649378 93.933946 
L 421.827534 91.843002 
L 422.005689 87.546687 
L 422.361999 68.960223 
L 422.361999 68.960223 
" style="fill:none;stroke:#009afa;"/>
   </g>
   <g id="matplotlib.axis_1">
    <g id="xtick_1">
     <g id="line2d_2">
      <defs>
       <path d="M 0 0 
L 0 -2.5 
" id="md252f78b67" style="stroke:#000000;stroke-width:0.5;"/>
      </defs>
      <g>
       <use style="stroke:#000000;stroke-width:0.5;" x="66.051544" xlink:href="#md252f78b67" y="258.225354"/>
      </g>
     </g>
     <g id="text_1">
      <!-- $0.0$ -->
      <g transform="translate(59.651544 267.804104)scale(0.08 -0.08)">
       <defs>
        <path d="M 2034 4250 
Q 1547 4250 1301 3770 
Q 1056 3291 1056 2328 
Q 1056 1369 1301 889 
Q 1547 409 2034 409 
Q 2525 409 2770 889 
Q 3016 1369 3016 2328 
Q 3016 3291 2770 3770 
Q 2525 4250 2034 4250 
z
M 2034 4750 
Q 2819 4750 3233 4129 
Q 3647 3509 3647 2328 
Q 3647 1150 3233 529 
Q 2819 -91 2034 -91 
Q 1250 -91 836 529 
Q 422 1150 422 2328 
Q 422 3509 836 4129 
Q 1250 4750 2034 4750 
z
" id="DejaVuSans-30" transform="scale(0.015625)"/>
        <path d="M 684 794 
L 1344 794 
L 1344 0 
L 684 0 
L 684 794 
z
" id="DejaVuSans-2e" transform="scale(0.015625)"/>
       </defs>
       <use transform="translate(0 0.78125)" xlink:href="#DejaVuSans-30"/>
       <use transform="translate(63.623047 0.78125)" xlink:href="#DejaVuSans-2e"/>
       <use transform="translate(95.410156 0.78125)" xlink:href="#DejaVuSans-30"/>
      </g>
     </g>
    </g>
    <g id="xtick_2">
     <g id="line2d_3">
      <g>
       <use style="stroke:#000000;stroke-width:0.5;" x="155.129158" xlink:href="#md252f78b67" y="258.225354"/>
      </g>
     </g>
     <g id="text_2">
      <!-- $0.5$ -->
      <g transform="translate(148.729158 267.804104)scale(0.08 -0.08)">
       <defs>
        <path d="M 691 4666 
L 3169 4666 
L 3169 4134 
L 1269 4134 
L 1269 2991 
Q 1406 3038 1543 3061 
Q 1681 3084 1819 3084 
Q 2600 3084 3056 2656 
Q 3513 2228 3513 1497 
Q 3513 744 3044 326 
Q 2575 -91 1722 -91 
Q 1428 -91 1123 -41 
Q 819 9 494 109 
L 494 744 
Q 775 591 1075 516 
Q 1375 441 1709 441 
Q 2250 441 2565 725 
Q 2881 1009 2881 1497 
Q 2881 1984 2565 2268 
Q 2250 2553 1709 2553 
Q 1456 2553 1204 2497 
Q 953 2441 691 2322 
L 691 4666 
z
" id="DejaVuSans-35" transform="scale(0.015625)"/>
       </defs>
       <use transform="translate(0 0.78125)" xlink:href="#DejaVuSans-30"/>
       <use transform="translate(63.623047 0.78125)" xlink:href="#DejaVuSans-2e"/>
       <use transform="translate(95.410156 0.78125)" xlink:href="#DejaVuSans-35"/>
      </g>
     </g>
    </g>
    <g id="xtick_3">
     <g id="line2d_4">
      <g>
       <use style="stroke:#000000;stroke-width:0.5;" x="244.206771" xlink:href="#md252f78b67" y="258.225354"/>
      </g>
     </g>
     <g id="text_3">
      <!-- $1.0$ -->
      <g transform="translate(237.806771 267.804104)scale(0.08 -0.08)">
       <defs>
        <path d="M 794 531 
L 1825 531 
L 1825 4091 
L 703 3866 
L 703 4441 
L 1819 4666 
L 2450 4666 
L 2450 531 
L 3481 531 
L 3481 0 
L 794 0 
L 794 531 
z
" id="DejaVuSans-31" transform="scale(0.015625)"/>
       </defs>
       <use transform="translate(0 0.78125)" xlink:href="#DejaVuSans-31"/>
       <use transform="translate(63.623047 0.78125)" xlink:href="#DejaVuSans-2e"/>
       <use transform="translate(95.410156 0.78125)" xlink:href="#DejaVuSans-30"/>
      </g>
     </g>
    </g>
    <g id="xtick_4">
     <g id="line2d_5">
      <g>
       <use style="stroke:#000000;stroke-width:0.5;" x="333.284385" xlink:href="#md252f78b67" y="258.225354"/>
      </g>
     </g>
     <g id="text_4">
      <!-- $1.5$ -->
      <g transform="translate(326.884385 267.804104)scale(0.08 -0.08)">
       <use transform="translate(0 0.09375)" xlink:href="#DejaVuSans-31"/>
       <use transform="translate(63.623047 0.09375)" xlink:href="#DejaVuSans-2e"/>
       <use transform="translate(95.410156 0.09375)" xlink:href="#DejaVuSans-35"/>
      </g>
     </g>
    </g>
    <g id="xtick_5">
     <g id="line2d_6">
      <g>
       <use style="stroke:#000000;stroke-width:0.5;" x="422.361999" xlink:href="#md252f78b67" y="258.225354"/>
      </g>
     </g>
     <g id="text_5">
      <!-- $2.0$ -->
      <g transform="translate(415.961999 267.804104)scale(0.08 -0.08)">
       <defs>
        <path d="M 1228 531 
L 3431 531 
L 3431 0 
L 469 0 
L 469 531 
Q 828 903 1448 1529 
Q 2069 2156 2228 2338 
Q 2531 2678 2651 2914 
Q 2772 3150 2772 3378 
Q 2772 3750 2511 3984 
Q 2250 4219 1831 4219 
Q 1534 4219 1204 4116 
Q 875 4013 500 3803 
L 500 4441 
Q 881 4594 1212 4672 
Q 1544 4750 1819 4750 
Q 2544 4750 2975 4387 
Q 3406 4025 3406 3419 
Q 3406 3131 3298 2873 
Q 3191 2616 2906 2266 
Q 2828 2175 2409 1742 
Q 1991 1309 1228 531 
z
" id="DejaVuSans-32" transform="scale(0.015625)"/>
       </defs>
       <use transform="translate(0 0.78125)" xlink:href="#DejaVuSans-32"/>
       <use transform="translate(63.623047 0.78125)" xlink:href="#DejaVuSans-2e"/>
       <use transform="translate(95.410156 0.78125)" xlink:href="#DejaVuSans-30"/>
      </g>
     </g>
    </g>
    <g id="text_6">
     <!-- Time (s) -->
     <g transform="translate(221.844975 281.826136)scale(0.11 -0.11)">
      <defs>
       <path d="M -19 4666 
L 3928 4666 
L 3928 4134 
L 2272 4134 
L 2272 0 
L 1638 0 
L 1638 4134 
L -19 4134 
L -19 4666 
z
" id="DejaVuSans-54" transform="scale(0.015625)"/>
       <path d="M 603 3500 
L 1178 3500 
L 1178 0 
L 603 0 
L 603 3500 
z
M 603 4863 
L 1178 4863 
L 1178 4134 
L 603 4134 
L 603 4863 
z
" id="DejaVuSans-69" transform="scale(0.015625)"/>
       <path d="M 3328 2828 
Q 3544 3216 3844 3400 
Q 4144 3584 4550 3584 
Q 5097 3584 5394 3201 
Q 5691 2819 5691 2113 
L 5691 0 
L 5113 0 
L 5113 2094 
Q 5113 2597 4934 2840 
Q 4756 3084 4391 3084 
Q 3944 3084 3684 2787 
Q 3425 2491 3425 1978 
L 3425 0 
L 2847 0 
L 2847 2094 
Q 2847 2600 2669 2842 
Q 2491 3084 2119 3084 
Q 1678 3084 1418 2786 
Q 1159 2488 1159 1978 
L 1159 0 
L 581 0 
L 581 3500 
L 1159 3500 
L 1159 2956 
Q 1356 3278 1631 3431 
Q 1906 3584 2284 3584 
Q 2666 3584 2933 3390 
Q 3200 3197 3328 2828 
z
" id="DejaVuSans-6d" transform="scale(0.015625)"/>
       <path d="M 3597 1894 
L 3597 1613 
L 953 1613 
Q 991 1019 1311 708 
Q 1631 397 2203 397 
Q 2534 397 2845 478 
Q 3156 559 3463 722 
L 3463 178 
Q 3153 47 2828 -22 
Q 2503 -91 2169 -91 
Q 1331 -91 842 396 
Q 353 884 353 1716 
Q 353 2575 817 3079 
Q 1281 3584 2069 3584 
Q 2775 3584 3186 3129 
Q 3597 2675 3597 1894 
z
M 3022 2063 
Q 3016 2534 2758 2815 
Q 2500 3097 2075 3097 
Q 1594 3097 1305 2825 
Q 1016 2553 972 2059 
L 3022 2063 
z
" id="DejaVuSans-65" transform="scale(0.015625)"/>
       <path id="DejaVuSans-20" transform="scale(0.015625)"/>
       <path d="M 1984 4856 
Q 1566 4138 1362 3434 
Q 1159 2731 1159 2009 
Q 1159 1288 1364 580 
Q 1569 -128 1984 -844 
L 1484 -844 
Q 1016 -109 783 600 
Q 550 1309 550 2009 
Q 550 2706 781 3412 
Q 1013 4119 1484 4856 
L 1984 4856 
z
" id="DejaVuSans-28" transform="scale(0.015625)"/>
       <path d="M 2834 3397 
L 2834 2853 
Q 2591 2978 2328 3040 
Q 2066 3103 1784 3103 
Q 1356 3103 1142 2972 
Q 928 2841 928 2578 
Q 928 2378 1081 2264 
Q 1234 2150 1697 2047 
L 1894 2003 
Q 2506 1872 2764 1633 
Q 3022 1394 3022 966 
Q 3022 478 2636 193 
Q 2250 -91 1575 -91 
Q 1294 -91 989 -36 
Q 684 19 347 128 
L 347 722 
Q 666 556 975 473 
Q 1284 391 1588 391 
Q 1994 391 2212 530 
Q 2431 669 2431 922 
Q 2431 1156 2273 1281 
Q 2116 1406 1581 1522 
L 1381 1569 
Q 847 1681 609 1914 
Q 372 2147 372 2553 
Q 372 3047 722 3315 
Q 1072 3584 1716 3584 
Q 2034 3584 2315 3537 
Q 2597 3491 2834 3397 
z
" id="DejaVuSans-73" transform="scale(0.015625)"/>
       <path d="M 513 4856 
L 1013 4856 
Q 1481 4119 1714 3412 
Q 1947 2706 1947 2009 
Q 1947 1309 1714 600 
Q 1481 -109 1013 -844 
L 513 -844 
Q 928 -128 1133 580 
Q 1338 1288 1338 2009 
Q 1338 2731 1133 3434 
Q 928 4138 513 4856 
z
" id="DejaVuSans-29" transform="scale(0.015625)"/>
      </defs>
      <use xlink:href="#DejaVuSans-54"/>
      <use x="57.958984" xlink:href="#DejaVuSans-69"/>
      <use x="85.742188" xlink:href="#DejaVuSans-6d"/>
      <use x="183.154297" xlink:href="#DejaVuSans-65"/>
      <use x="244.677734" xlink:href="#DejaVuSans-20"/>
      <use x="276.464844" xlink:href="#DejaVuSans-28"/>
      <use x="315.478516" xlink:href="#DejaVuSans-73"/>
      <use x="367.578125" xlink:href="#DejaVuSans-29"/>
     </g>
    </g>
   </g>
   <g id="matplotlib.axis_2">
    <g id="ytick_1">
     <g id="line2d_7">
      <defs>
       <path d="M 0 0 
L 2.5 0 
" id="me6d9980312" style="stroke:#000000;stroke-width:0.5;"/>
      </defs>
      <g>
       <use style="stroke:#000000;stroke-width:0.5;" x="66.051544" xlink:href="#me6d9980312" y="215.126437"/>
      </g>
     </g>
     <g id="text_7">
      <!-- $-6.0×10^{5}$ -->
      <g transform="translate(22.311544 218.165812)scale(0.08 -0.08)">
       <defs>
        <path d="M 678 2272 
L 4684 2272 
L 4684 1741 
L 678 1741 
L 678 2272 
z
" id="DejaVuSans-2212" transform="scale(0.015625)"/>
        <path d="M 2113 2584 
Q 1688 2584 1439 2293 
Q 1191 2003 1191 1497 
Q 1191 994 1439 701 
Q 1688 409 2113 409 
Q 2538 409 2786 701 
Q 3034 994 3034 1497 
Q 3034 2003 2786 2293 
Q 2538 2584 2113 2584 
z
M 3366 4563 
L 3366 3988 
Q 3128 4100 2886 4159 
Q 2644 4219 2406 4219 
Q 1781 4219 1451 3797 
Q 1122 3375 1075 2522 
Q 1259 2794 1537 2939 
Q 1816 3084 2150 3084 
Q 2853 3084 3261 2657 
Q 3669 2231 3669 1497 
Q 3669 778 3244 343 
Q 2819 -91 2113 -91 
Q 1303 -91 875 529 
Q 447 1150 447 2328 
Q 447 3434 972 4092 
Q 1497 4750 2381 4750 
Q 2619 4750 2861 4703 
Q 3103 4656 3366 4563 
z
" id="DejaVuSans-36" transform="scale(0.015625)"/>
        <path d="M 4488 3438 
L 3059 2003 
L 4488 575 
L 4116 197 
L 2681 1631 
L 1247 197 
L 878 575 
L 2303 2003 
L 878 3438 
L 1247 3816 
L 2681 2381 
L 4116 3816 
L 4488 3438 
z
" id="DejaVuSans-d7" transform="scale(0.015625)"/>
       </defs>
       <use transform="translate(0 0.684375)" xlink:href="#DejaVuSans-2212"/>
       <use transform="translate(83.789062 0.684375)" xlink:href="#DejaVuSans-36"/>
       <use transform="translate(147.412109 0.684375)" xlink:href="#DejaVuSans-2e"/>
       <use transform="translate(179.199219 0.684375)" xlink:href="#DejaVuSans-30"/>
       <use transform="translate(242.822266 0.684375)" xlink:href="#DejaVuSans-d7"/>
       <use transform="translate(326.611328 0.684375)" xlink:href="#DejaVuSans-31"/>
       <use transform="translate(390.234375 0.684375)" xlink:href="#DejaVuSans-30"/>
       <use transform="translate(454.814453 38.965625)scale(0.7)" xlink:href="#DejaVuSans-35"/>
      </g>
     </g>
    </g>
    <g id="ytick_2">
     <g id="line2d_8">
      <g>
       <use style="stroke:#000000;stroke-width:0.5;" x="66.051544" xlink:href="#me6d9980312" y="168.39395"/>
      </g>
     </g>
     <g id="text_8">
      <!-- $-3.0×10^{5}$ -->
      <g transform="translate(22.311544 171.433325)scale(0.08 -0.08)">
       <defs>
        <path d="M 2597 2516 
Q 3050 2419 3304 2112 
Q 3559 1806 3559 1356 
Q 3559 666 3084 287 
Q 2609 -91 1734 -91 
Q 1441 -91 1130 -33 
Q 819 25 488 141 
L 488 750 
Q 750 597 1062 519 
Q 1375 441 1716 441 
Q 2309 441 2620 675 
Q 2931 909 2931 1356 
Q 2931 1769 2642 2001 
Q 2353 2234 1838 2234 
L 1294 2234 
L 1294 2753 
L 1863 2753 
Q 2328 2753 2575 2939 
Q 2822 3125 2822 3475 
Q 2822 3834 2567 4026 
Q 2313 4219 1838 4219 
Q 1578 4219 1281 4162 
Q 984 4106 628 3988 
L 628 4550 
Q 988 4650 1302 4700 
Q 1616 4750 1894 4750 
Q 2613 4750 3031 4423 
Q 3450 4097 3450 3541 
Q 3450 3153 3228 2886 
Q 3006 2619 2597 2516 
z
" id="DejaVuSans-33" transform="scale(0.015625)"/>
       </defs>
       <use transform="translate(0 0.684375)" xlink:href="#DejaVuSans-2212"/>
       <use transform="translate(83.789062 0.684375)" xlink:href="#DejaVuSans-33"/>
       <use transform="translate(147.412109 0.684375)" xlink:href="#DejaVuSans-2e"/>
       <use transform="translate(179.199219 0.684375)" xlink:href="#DejaVuSans-30"/>
       <use transform="translate(242.822266 0.684375)" xlink:href="#DejaVuSans-d7"/>
       <use transform="translate(326.611328 0.684375)" xlink:href="#DejaVuSans-31"/>
       <use transform="translate(390.234375 0.684375)" xlink:href="#DejaVuSans-30"/>
       <use transform="translate(454.814453 38.965625)scale(0.7)" xlink:href="#DejaVuSans-35"/>
      </g>
     </g>
    </g>
    <g id="ytick_3">
     <g id="line2d_9">
      <g>
       <use style="stroke:#000000;stroke-width:0.5;" x="66.051544" xlink:href="#me6d9980312" y="121.661463"/>
      </g>
     </g>
     <g id="text_9">
      <!-- $0$ -->
      <g transform="translate(57.431544 124.700838)scale(0.08 -0.08)">
       <use transform="translate(0 0.78125)" xlink:href="#DejaVuSans-30"/>
      </g>
     </g>
    </g>
    <g id="ytick_4">
     <g id="line2d_10">
      <g>
       <use style="stroke:#000000;stroke-width:0.5;" x="66.051544" xlink:href="#me6d9980312" y="74.928976"/>
      </g>
     </g>
     <g id="text_10">
      <!-- $3.0×10^{5}$ -->
      <g transform="translate(29.031544 77.968351)scale(0.08 -0.08)">
       <use transform="translate(0 0.684375)" xlink:href="#DejaVuSans-33"/>
       <use transform="translate(63.623047 0.684375)" xlink:href="#DejaVuSans-2e"/>
       <use transform="translate(95.410156 0.684375)" xlink:href="#DejaVuSans-30"/>
       <use transform="translate(159.033203 0.684375)" xlink:href="#DejaVuSans-d7"/>
       <use transform="translate(242.822266 0.684375)" xlink:href="#DejaVuSans-31"/>
       <use transform="translate(306.445312 0.684375)" xlink:href="#DejaVuSans-30"/>
       <use transform="translate(371.025391 38.965625)scale(0.7)" xlink:href="#DejaVuSans-35"/>
      </g>
     </g>
    </g>
    <g id="ytick_5">
     <g id="line2d_11">
      <g>
       <use style="stroke:#000000;stroke-width:0.5;" x="66.051544" xlink:href="#me6d9980312" y="28.196489"/>
      </g>
     </g>
     <g id="text_11">
      <!-- $6.0×10^{5}$ -->
      <g transform="translate(29.031544 31.235864)scale(0.08 -0.08)">
       <use transform="translate(0 0.684375)" xlink:href="#DejaVuSans-36"/>
       <use transform="translate(63.623047 0.684375)" xlink:href="#DejaVuSans-2e"/>
       <use transform="translate(95.410156 0.684375)" xlink:href="#DejaVuSans-30"/>
       <use transform="translate(159.033203 0.684375)" xlink:href="#DejaVuSans-d7"/>
       <use transform="translate(242.822266 0.684375)" xlink:href="#DejaVuSans-31"/>
       <use transform="translate(306.445312 0.684375)" xlink:href="#DejaVuSans-30"/>
       <use transform="translate(371.025391 38.965625)scale(0.7)" xlink:href="#DejaVuSans-35"/>
      </g>
     </g>
    </g>
    <g id="text_12">
     <!-- $F_y$ ($N$) -->
     <g transform="translate(14.901544 146.315)rotate(-90)scale(0.11 -0.11)">
      <defs>
       <path d="M 1081 4666 
L 3756 4666 
L 3653 4134 
L 1606 4134 
L 1338 2759 
L 3188 2759 
L 3084 2228 
L 1234 2228 
L 800 0 
L 172 0 
L 1081 4666 
z
" id="DejaVuSans-Oblique-46" transform="scale(0.015625)"/>
       <path d="M 1588 -325 
Q 1188 -997 936 -1164 
Q 684 -1331 294 -1331 
L -159 -1331 
L -63 -850 
L 269 -850 
Q 509 -850 678 -719 
Q 847 -588 1056 -206 
L 1234 128 
L 459 3500 
L 1069 3500 
L 1650 819 
L 3256 3500 
L 3859 3500 
L 1588 -325 
z
" id="DejaVuSans-Oblique-79" transform="scale(0.015625)"/>
       <path d="M 1081 4666 
L 1931 4666 
L 3219 666 
L 4000 4666 
L 4616 4666 
L 3706 0 
L 2853 0 
L 1569 4025 
L 788 0 
L 172 0 
L 1081 4666 
z
" id="DejaVuSans-Oblique-4e" transform="scale(0.015625)"/>
      </defs>
      <use transform="translate(0 0.125)" xlink:href="#DejaVuSans-Oblique-46"/>
      <use transform="translate(57.519531 -16.28125)scale(0.7)" xlink:href="#DejaVuSans-Oblique-79"/>
      <use transform="translate(101.679688 0.125)" xlink:href="#DejaVuSans-20"/>
      <use transform="translate(133.466797 0.125)" xlink:href="#DejaVuSans-28"/>
      <use transform="translate(172.480469 0.125)" xlink:href="#DejaVuSans-Oblique-4e"/>
      <use transform="translate(247.285156 0.125)" xlink:href="#DejaVuSans-29"/>
     </g>
    </g>
   </g>
   <g id="line2d_12">
    <path clip-path="url(#pa21c591a26)" d="M 66.051544 121.661463 
L 67.444936 121.760802 
L 67.6188 121.751019 
L 68.047444 121.484234 
L 68.568141 121.776583 
L 68.764672 121.718058 
L 68.896563 121.642074 
L 69.028453 121.58718 
L 69.226288 121.650619 
L 69.361547 121.791438 
L 69.496805 121.826564 
L 70.323503 121.527425 
L 70.67877 121.680581 
L 71.177754 121.578537 
L 71.463231 121.703448 
L 71.80339 121.731066 
L 72.011424 121.700429 
L 72.238823 121.611716 
L 72.551139 121.621977 
L 72.948119 121.839289 
L 73.110089 121.79793 
L 73.272346 121.786058 
L 73.436435 121.740451 
L 74.045668 121.829569 
L 74.311655 121.640497 
L 74.579818 121.508789 
L 74.754922 121.617426 
L 75.084823 121.872347 
L 75.423251 121.744971 
L 75.596952 121.599735 
L 76.129626 121.822276 
L 76.90349 121.591145 
L 77.097031 121.683057 
L 77.678478 121.46738 
L 77.978132 121.451982 
L 78.677324 121.635992 
L 78.877093 121.600418 
L 79.176747 121.635493 
L 79.57802 121.807333 
L 79.9845 121.47232 
L 80.289359 121.526046 
L 80.597987 121.761309 
L 80.909963 121.637055 
L 81.117948 121.528166 
L 81.432932 121.627666 
L 81.753932 121.628038 
L 82.167555 121.374843 
L 82.373125 121.446036 
L 83.182397 121.688912 
L 83.710206 121.504381 
L 83.925883 121.493654 
L 84.2494 121.437472 
L 84.690685 121.255519 
L 84.89285 121.383983 
L 85.184748 121.581103 
L 85.295758 121.597786 
L 85.629899 121.400657 
L 85.747215 121.369969 
L 86.216479 121.723351 
L 86.721606 121.668138 
L 87.600495 121.794763 
L 88.474776 121.588425 
L 88.856207 121.586846 
L 89.429313 121.303371 
L 89.929435 121.447669 
L 90.390291 121.334139 
L 91.176209 121.483952 
L 91.86113 121.327367 
L 94.074511 122.589759 
L 94.736599 123.489861 
L 95.415102 123.946526 
L 95.918498 124.342 
L 96.386177 124.540132 
L 97.262786 125.498548 
L 97.62895 125.739391 
L 98.179996 126.425402 
L 98.731042 126.667455 
L 99.098407 127.001429 
L 99.472842 127.029854 
L 99.860455 127.080215 
L 100.463641 127.24571 
L 101.738776 126.562644 
L 102.175332 126.093713 
L 102.393609 126.023373 
L 102.611887 125.822359 
L 105.268818 119.828028 
L 106.846161 115.828665 
L 107.393226 114.493088 
L 107.940292 113.117776 
L 108.487357 111.960875 
L 109.035947 110.885988 
L 110.41181 108.732979 
L 111.239286 107.558412 
L 111.792861 106.985363 
L 113.227716 105.995855 
L 113.514687 105.917019 
L 114.662572 106.53636 
L 115.523485 107.278559 
L 116.687729 109.47096 
L 117.571894 111.624664 
L 119.1184 116.875101 
L 119.765774 119.519488 
L 121.369125 127.132334 
L 122.654463 133.773569 
L 124.400733 141.319759 
L 125.099241 143.321997 
L 125.79775 144.903693 
L 126.147004 145.336113 
L 126.845512 145.45665 
L 127.194766 145.301796 
L 128.127475 144.384723 
L 128.757584 142.882283 
L 129.702747 139.80995 
L 131.309547 133.394618 
L 131.859819 131.242596 
L 132.884742 127.248844 
L 133.416466 125.439829 
L 134.490226 122.759462 
L 135.301063 121.964337 
L 136.111901 121.726374 
L 136.652459 121.220534 
L 137.733575 120.974713 
L 138.274133 120.940262 
L 139.355249 120.254278 
L 139.895807 119.607569 
L 140.436365 118.734352 
L 142.996643 113.244678 
L 144.887363 109.072628 
L 145.360269 108.629198 
L 146.069627 108.185483 
L 146.306079 108.312157 
L 146.545989 108.58707 
L 147.025807 109.68972 
L 147.75632 111.899734 
L 149.356378 118.254498 
L 150.245546 121.833971 
L 150.958205 124.310646 
L 151.665307 125.811498 
L 151.933612 126.290699 
L 152.201917 126.485196 
L 153.182768 126.379784 
L 153.679093 126.124839 
L 154.175419 125.431655 
L 154.692113 125.13675 
L 155.74018 123.02577 
L 156.844909 120.701883 
L 157.121092 120.404171 
L 158.225821 118.67386 
L 158.778185 117.968437 
L 159.270474 117.777315 
L 160.418194 116.829367 
L 161.684386 116.046417 
L 162.748775 114.086803 
L 163.973928 110.02987 
L 165.713858 102.794974 
L 166.134729 100.909647 
L 167.877476 95.262469 
L 168.593296 94.233169 
L 168.836069 93.982139 
L 169.332642 94.113207 
L 169.580928 94.172649 
L 169.829214 94.414789 
L 170.578941 96.786765 
L 171.096828 99.460647 
L 171.908177 104.575886 
L 173.361357 117.181139 
L 174.85698 129.849579 
L 175.461518 133.552171 
L 176.368324 137.904001 
L 177.345411 141.153763 
L 178.265575 143.593809 
L 178.663051 144.808624 
L 180.141064 150.428087 
L 182.05528 157.703925 
L 183.047685 159.925813 
L 183.67015 160.665836 
L 183.971745 160.492592 
L 184.498738 160.121936 
L 184.879175 159.101725 
L 185.453863 156.734207 
L 186.2228 152.227279 
L 187.183971 145.14957 
L 190.259719 122.102726 
L 190.836422 119.410546 
L 191.413125 117.504197 
L 191.797593 116.83718 
L 192.374296 116.595785 
L 192.758764 116.631493 
L 193.536111 116.941005 
L 194.126174 117.954774 
L 195.116606 119.980108 
L 195.516242 120.364208 
L 195.71606 120.325157 
L 196.116603 119.590202 
L 196.524881 118.17234 
L 197.151507 114.034167 
L 197.787738 108.502324 
L 199.71772 91.19964 
L 200.577281 86.346812 
L 201.007062 85.295182 
L 201.221952 85.052697 
L 201.436843 85.307323 
L 201.866623 87.160216 
L 202.296404 90.274808 
L 202.941075 97.804052 
L 203.585746 108.767589 
L 204.875886 135.877713 
L 205.751863 152.380063 
L 206.437622 161.188785 
L 206.907003 163.839586 
L 207.147836 164.113479 
L 207.402161 163.604395 
L 207.656486 162.156205 
L 208.165136 157.36675 
L 208.928112 146.224892 
L 210.153351 127.972358 
L 210.653788 122.790094 
L 211.082304 119.891701 
L 211.51767 118.407187 
L 211.939834 117.305196 
L 212.324906 117.018635 
L 212.467808 117.01674 
L 212.805731 116.491769 
L 213.088306 116.343317 
L 213.245073 116.259975 
L 214.265825 115.08335 
L 214.764758 113.697782 
L 215.075637 112.864217 
L 216.327886 108.189428 
L 217.773412 101.27962 
L 218.515035 96.73319 
L 219.242169 90.035556 
L 220.154114 79.419786 
L 220.929789 71.183115 
L 221.386723 67.890332 
L 221.732226 66.861271 
L 221.963964 66.515844 
L 222.080535 66.541243 
L 222.197106 66.720482 
L 222.430248 67.787875 
L 222.896532 71.464066 
L 223.417354 77.746657 
L 226.077497 116.649367 
L 226.510462 119.112866 
L 226.804838 119.7099 
L 227.011671 119.651708 
L 227.350238 118.591302 
L 227.88549 115.150299 
L 228.966788 106.254762 
L 229.372491 104.424587 
L 229.577702 104.047071 
L 229.786216 103.954318 
L 229.994729 104.148089 
L 230.203243 104.668112 
L 230.620271 107.078082 
L 231.037298 110.413125 
L 231.673621 117.82926 
L 232.528542 130.5831 
L 234.752339 165.018255 
L 237.422215 196.392592 
L 237.806141 198.103 
L 237.98573 198.184314 
L 238.165885 197.852661 
L 238.449752 196.090169 
L 238.886215 190.810636 
L 239.379582 181.708579 
L 240.221576 160.734053 
L 241.406945 131.200255 
L 242.022712 121.748411 
L 242.451669 118.699437 
L 242.680034 118.330469 
L 242.908398 118.8479 
L 243.136762 120.096754 
L 243.593491 124.622169 
L 245.201474 145.526741 
L 245.431186 147.10436 
L 245.660898 147.803542 
L 245.89061 147.583442 
L 246.120321 146.626941 
L 246.350033 144.920605 
L 246.812883 139.218732 
L 247.507157 128.051829 
L 248.711968 108.006543 
L 249.042117 104.795367 
L 249.372267 103.428363 
L 249.537341 103.617847 
L 249.802745 105.239813 
L 250.103784 109.047731 
L 250.613802 119.510062 
L 252.179906 155.903933 
L 252.73578 161.625224 
L 253.218772 164.628362 
L 254.264684 168.947104 
L 254.400765 169.086927 
L 254.536847 169.060138 
L 254.672928 168.903571 
L 254.945091 167.854572 
L 255.231255 165.603942 
L 255.671018 160.394128 
L 256.43494 146.921307 
L 257.53358 122.985791 
L 258.269125 101.68829 
L 260.980156 17.657422 
L 261.45329 11.576552 
L 261.740603 10.128934 
L 261.841097 10.062685 
L 261.949877 10.234786 
L 262.168904 11.423115 
L 262.511306 15.482583 
L 262.885236 22.924809 
L 263.409072 38.026162 
L 264.377506 74.159638 
L 265.311269 105.709472 
L 265.783762 114.889165 
L 266.117414 117.224279 
L 266.254214 117.213028 
L 266.410014 116.577986 
L 266.728485 113.192548 
L 267.229563 103.815214 
L 268.200282 83.504343 
L 268.694873 77.063192 
L 269.032422 75.026724 
L 269.36997 74.163255 
L 269.538745 74.210543 
L 269.675142 74.439136 
L 270.073282 76.261663 
L 270.448437 79.638658 
L 270.804878 85.325502 
L 271.193617 94.067895 
L 271.826776 114.573657 
L 272.807423 156.211336 
L 273.931144 202.88723 
L 274.503123 219.901034 
L 274.887236 227.123994 
L 275.271348 230.921278 
L 275.463404 231.64539 
L 275.65546 231.174011 
L 275.847516 229.67213 
L 276.231628 223.699436 
L 276.61574 213.771155 
L 277.191909 193.343108 
L 279.112469 116.544198 
L 279.881391 97.179646 
L 280.460136 87.436851 
L 281.146211 80.326393 
L 281.968214 72.875927 
L 283.417897 59.02392 
L 283.565477 58.771139 
L 283.713056 59.014511 
L 283.860636 59.74938 
L 284.155795 62.809488 
L 284.598534 70.556377 
L 285.696848 97.817429 
L 286.87103 124.719465 
L 287.672312 139.378832 
L 288.097464 143.363916 
L 288.283215 144.246871 
L 288.376264 144.249867 
L 288.568918 143.828185 
L 288.767683 142.463374 
L 289.0899 138.821311 
L 289.555493 130.341114 
L 290.409168 111.141331 
L 291.549352 85.447881 
L 293.16485 55.524931 
L 293.609552 50.412991 
L 293.91461 48.543347 
L 294.069869 47.968269 
L 294.380388 49.246169 
L 294.730835 53.771192 
L 295.144758 63.914148 
L 295.868613 92.667299 
L 297.7288 179.452125 
L 298.122125 188.559081 
L 298.532003 193.423002 
L 298.803366 194.318325 
L 299.085774 193.033634 
L 299.38049 190.424105 
L 299.588423 187.74291 
L 300.086169 178.740764 
L 302.207385 137.049271 
L 302.406515 135.813461 
L 302.521265 136.05937 
L 302.754984 137.540622 
L 303.133378 143.891706 
L 303.820246 163.245164 
L 304.496104 182.978817 
L 304.870851 189.745852 
L 305.120682 191.921755 
L 305.245597 192.299125 
L 305.370513 192.009252 
L 305.620344 189.654387 
L 306.001504 182.199282 
L 306.722259 161.087275 
L 307.307884 144.979924 
L 307.741213 137.660696 
L 307.96405 135.740619 
L 308.07551 135.684112 
L 308.186971 135.846851 
L 308.298432 136.311081 
L 308.644979 139.867029 
L 309.141837 148.568658 
L 309.631281 156.752367 
L 309.978515 158.825766 
L 310.241051 157.926879 
L 310.511894 154.768357 
L 310.810438 149.175501 
L 311.315042 135.919601 
L 312.313393 102.938743 
L 313.892034 44.420323 
L 314.049898 42.58303 
L 314.207763 42.808791 
L 314.36606 44.924512 
L 314.682655 56.055332 
L 315.000323 76.628613 
L 315.478438 122.250909 
L 316.458777 218.51068 
L 316.804387 233.50348 
L 316.980567 235.576155 
L 317.156747 234.085872 
L 317.525351 220.633502 
L 318.245533 174.220893 
L 318.982575 130.115344 
L 319.733341 100.460138 
L 320.696877 70.264218 
L 321.195031 59.655794 
L 321.498612 56.878928 
L 321.650403 57.004409 
L 321.802194 57.370137 
L 322.227321 62.002576 
L 322.998375 72.9861 
L 323.302654 74.986204 
L 323.568333 75.971789 
L 324.316453 77.750363 
L 324.734529 80.58111 
L 325.31558 85.852077 
L 325.97447 91.429564 
L 326.305423 96.189857 
L 326.659005 104.993327 
L 327.185089 126.433051 
L 328.001938 162.754413 
L 328.281643 169.13055 
L 328.530233 171.20676 
L 328.624777 171.263154 
L 328.916151 170.376484 
L 329.226147 168.766553 
L 329.545291 167.746226 
L 329.860255 166.681982 
L 330.049145 165.564847 
L 330.426924 160.613327 
L 331.544328 134.275028 
L 332.178857 111.305802 
L 333.121965 68.429874 
L 333.34466 65.622577 
L 333.423501 65.735871 
L 333.673709 71.181357 
L 334.057963 90.337859 
L 334.802767 130.224301 
L 335.156217 141.326329 
L 337.010551 175.6288 
L 337.899815 188.257841 
L 338.15389 190.412574 
L 338.280928 190.972955 
L 338.407966 190.026131 
L 338.672057 183.923116 
L 339.083218 162.468826 
L 340.603734 70.072476 
L 340.954432 58.809738 
L 341.182882 57.059596 
L 341.297107 57.600482 
L 341.525557 62.899761 
L 341.868232 77.538659 
L 342.668571 112.868108 
L 343.907785 142.279904 
L 344.116191 143.917131 
L 344.334714 142.254466 
L 344.790047 129.043697 
L 345.294088 113.684367 
L 345.534869 111.425732 
L 345.611755 111.47868 
L 346.03921 113.778694 
L 346.118187 113.756667 
L 346.288723 112.696111 
L 346.475325 109.623081 
L 346.763022 99.845449 
L 347.587317 66.185454 
L 347.760986 63.869052 
L 347.847821 63.623807 
L 347.934656 63.887048 
L 348.114583 67.020771 
L 348.415403 77.782435 
L 348.996631 112.97243 
L 350.185894 197.552609 
L 350.388454 202.241477 
L 350.497329 202.927991 
L 350.608711 202.379404 
L 350.831476 198.074291 
L 351.287733 183.070139 
L 352.028979 151.344999 
L 353.614005 65.398482 
L 354.020582 58.857913 
L 354.437895 55.576894 
L 355.462691 40.088092 
L 355.575427 40.057572 
L 355.802356 43.680678 
L 356.172368 55.06674 
L 356.971853 77.271974 
L 357.308785 80.456791 
L 357.65862 81.438841 
L 357.76382 81.420081 
L 357.974219 81.959689 
L 358.079418 81.79499 
L 358.285214 82.6092 
L 358.366296 82.511403 
L 358.454132 82.448325 
L 358.629805 82.767986 
L 359.337103 77.943582 
L 359.478099 77.552592 
L 359.687931 80.16177 
L 359.862249 84.70375 
L 360.284773 105.788428 
L 361.217284 154.803198 
L 361.68104 165.052874 
L 362.569445 178.603439 
L 362.809463 180.631726 
L 362.929531 180.176437 
L 363.049599 179.042133 
L 363.296596 172.185583 
L 363.551779 159.617352 
L 364.192104 111.662683 
L 364.719021 76.8376 
L 365.275789 56.380626 
L 365.567088 51.028093 
L 365.719399 49.991671 
L 365.871709 51.444959 
L 366.040427 54.17403 
L 366.546581 71.186209 
L 367.670736 126.277811 
L 368.433504 176.576432 
L 369.102179 220.875646 
L 369.538353 235.731618 
L 369.789488 238.808749 
L 370.040623 239.358149 
L 370.16619 238.863386 
L 370.96908 232.015151 
L 371.105483 229.208668 
L 371.516843 208.476378 
L 372.914848 111.486202 
L 374.112305 70.034371 
L 374.504094 60.512994 
L 375.872121 39.430911 
L 375.992412 39.67492 
L 376.112704 40.651357 
L 376.473578 51.675515 
L 377.19413 79.693823 
L 377.454381 81.64694 
L 377.722612 79.117614 
L 378.118322 75.787911 
L 378.237326 75.548455 
L 378.370776 76.729351 
L 378.659676 81.717443 
L 379.289261 105.155439 
L 380.005411 140.399839 
L 380.560869 165.656771 
L 380.759965 168.825708 
L 380.867245 169.035004 
L 380.978556 168.03347 
L 381.340811 157.449363 
L 381.875651 140.375357 
L 382.147999 136.589471 
L 382.285968 136.990405 
L 382.423937 138.571111 
L 382.777433 148.045412 
L 383.345795 165.365492 
L 383.580043 169.212186 
L 383.796466 170.419045 
L 384.142552 167.336405 
L 384.490414 158.19122 
L 385.302092 130.365947 
L 385.649954 123.173291 
L 385.765908 121.832813 
L 386.126121 123.134935 
L 386.292977 124.492439 
L 386.382407 124.725971 
L 386.978361 132.419104 
L 387.080926 132.878642 
L 387.286056 130.842972 
L 387.49839 127.153068 
L 387.906818 117.212546 
L 388.315554 108.102369 
L 388.383818 107.838046 
L 388.457256 107.972406 
L 388.610948 110.001725 
L 389.240723 122.349616 
L 389.737616 139.910619 
L 390.432232 167.35032 
L 390.687301 171.979734 
L 390.776042 172.062901 
L 391.016098 169.045965 
L 391.438302 156.293569 
L 391.785614 146.688105 
L 392.315847 138.356292 
L 394.124821 92.670624 
L 394.631842 88.058785 
L 395.207841 70.200098 
L 395.865999 46.681849 
L 395.984018 44.722614 
L 396.028428 44.924334 
L 396.075323 45.149222 
L 396.139637 45.072494 
L 396.190686 44.993245 
L 396.312703 47.310451 
L 396.749856 61.555796 
L 398.281401 131.411829 
L 398.477126 133.769049 
L 398.576548 133.373183 
L 398.874814 128.914698 
L 399.918751 100.207511 
L 400.005594 100.358922 
L 400.179281 102.01789 
L 400.909727 117.232547 
L 400.996678 117.433611 
L 401.265254 114.446793 
L 401.66725 108.207303 
L 401.880656 108.987828 
L 402.65726 122.699763 
L 402.770755 122.637642 
L 402.884251 121.955188 
L 403.466887 111.445549 
L 403.585435 111.217091 
L 403.703983 111.792717 
L 403.926946 113.233963 
L 404.350131 115.222523 
L 404.57445 117.398928 
L 404.808735 118.920949 
L 405.160163 115.015771 
L 405.628733 105.083593 
L 405.863994 104.190724 
L 406.336467 115.190394 
L 406.454586 114.651492 
L 406.572704 113.577238 
L 407.045178 97.25635 
L 407.407205 87.867476 
L 407.582389 86.105849 
L 407.74995 86.542068 
L 407.902079 91.389609 
L 408.229805 111.294706 
L 408.917454 158.391458 
L 409.950288 189.437503 
L 410.178544 191.723812 
L 410.53423 188.448538 
L 410.904404 176.852149 
L 411.428406 153.775189 
L 411.519703 153.530485 
L 411.611 154.592244 
L 411.976189 173.465752 
L 412.492872 199.816827 
L 412.775683 206.026836 
L 412.920548 202.102228 
L 413.161727 185.983603 
L 414.288446 84.123312 
L 414.803763 51.731107 
L 415.095705 43.072127 
L 415.186773 42.992732 
L 415.368909 47.320481 
L 415.925129 78.260146 
L 416.212362 99.704183 
L 416.735352 145.419087 
L 416.84739 148.10328 
L 416.961268 146.950332 
L 417.551949 129.760512 
L 417.761974 127.646426 
L 417.987549 130.224504 
L 418.215513 136.486538 
L 418.676222 152.289199 
L 418.888277 153.363332 
L 418.985155 152.208259 
L 419.540516 137.548494 
L 419.697128 136.83642 
L 419.779586 137.376706 
L 420.28511 144.924088 
L 420.336021 144.929327 
L 420.450152 143.983325 
L 420.653992 138.170529 
L 420.951638 120.678113 
L 421.908662 59.208648 
L 422.150089 56.81604 
L 422.231709 56.450891 
L 422.361999 57.859937 
L 422.361999 57.859937 
" style="fill:none;stroke:#e36f47;"/>
   </g>
   <g id="patch_3">
    <path d="M 66.051544 258.225354 
L 66.051544 2.834646 
" style="fill:none;stroke:#000000;stroke-linecap:square;stroke-linejoin:miter;"/>
   </g>
   <g id="patch_4">
    <path d="M 66.051544 258.225354 
L 422.361999 258.225354 
" style="fill:none;stroke:#000000;stroke-linecap:square;stroke-linejoin:miter;"/>
   </g>
   <g id="legend_1">
    <g id="patch_5">
     <path d="M 299.041999 39.119646 
L 418.361999 39.119646 
L 418.361999 6.834646 
L 299.041999 6.834646 
z
" style="fill:#ffffff;stroke:#000000;stroke-linejoin:miter;"/>
    </g>
    <g id="line2d_13">
     <path d="M 305.441999 16.513396 
L 321.441999 16.513396 
" style="fill:none;stroke:#009afa;stroke-linejoin:miter;"/>
    </g>
    <g id="line2d_14"/>
    <g id="text_13">
     <!-- GXBeam -->
     <g transform="translate(327.841999 19.313396)scale(0.08 -0.08)">
      <defs>
       <path d="M 3809 666 
L 3809 1919 
L 2778 1919 
L 2778 2438 
L 4434 2438 
L 4434 434 
Q 4069 175 3628 42 
Q 3188 -91 2688 -91 
Q 1594 -91 976 548 
Q 359 1188 359 2328 
Q 359 3472 976 4111 
Q 1594 4750 2688 4750 
Q 3144 4750 3555 4637 
Q 3966 4525 4313 4306 
L 4313 3634 
Q 3963 3931 3569 4081 
Q 3175 4231 2741 4231 
Q 1884 4231 1454 3753 
Q 1025 3275 1025 2328 
Q 1025 1384 1454 906 
Q 1884 428 2741 428 
Q 3075 428 3337 486 
Q 3600 544 3809 666 
z
" id="DejaVuSans-47" transform="scale(0.015625)"/>
       <path d="M 403 4666 
L 1081 4666 
L 2241 2931 
L 3406 4666 
L 4084 4666 
L 2584 2425 
L 4184 0 
L 3506 0 
L 2194 1984 
L 872 0 
L 191 0 
L 1856 2491 
L 403 4666 
z
" id="DejaVuSans-58" transform="scale(0.015625)"/>
       <path d="M 1259 2228 
L 1259 519 
L 2272 519 
Q 2781 519 3026 730 
Q 3272 941 3272 1375 
Q 3272 1813 3026 2020 
Q 2781 2228 2272 2228 
L 1259 2228 
z
M 1259 4147 
L 1259 2741 
L 2194 2741 
Q 2656 2741 2882 2914 
Q 3109 3088 3109 3444 
Q 3109 3797 2882 3972 
Q 2656 4147 2194 4147 
L 1259 4147 
z
M 628 4666 
L 2241 4666 
Q 2963 4666 3353 4366 
Q 3744 4066 3744 3513 
Q 3744 3084 3544 2831 
Q 3344 2578 2956 2516 
Q 3422 2416 3680 2098 
Q 3938 1781 3938 1306 
Q 3938 681 3513 340 
Q 3088 0 2303 0 
L 628 0 
L 628 4666 
z
" id="DejaVuSans-42" transform="scale(0.015625)"/>
       <path d="M 2194 1759 
Q 1497 1759 1228 1600 
Q 959 1441 959 1056 
Q 959 750 1161 570 
Q 1363 391 1709 391 
Q 2188 391 2477 730 
Q 2766 1069 2766 1631 
L 2766 1759 
L 2194 1759 
z
M 3341 1997 
L 3341 0 
L 2766 0 
L 2766 531 
Q 2569 213 2275 61 
Q 1981 -91 1556 -91 
Q 1019 -91 701 211 
Q 384 513 384 1019 
Q 384 1609 779 1909 
Q 1175 2209 1959 2209 
L 2766 2209 
L 2766 2266 
Q 2766 2663 2505 2880 
Q 2244 3097 1772 3097 
Q 1472 3097 1187 3025 
Q 903 2953 641 2809 
L 641 3341 
Q 956 3463 1253 3523 
Q 1550 3584 1831 3584 
Q 2591 3584 2966 3190 
Q 3341 2797 3341 1997 
z
" id="DejaVuSans-61" transform="scale(0.015625)"/>
      </defs>
      <use xlink:href="#DejaVuSans-47"/>
      <use x="77.490234" xlink:href="#DejaVuSans-58"/>
      <use x="145.996094" xlink:href="#DejaVuSans-42"/>
      <use x="214.599609" xlink:href="#DejaVuSans-65"/>
      <use x="276.123047" xlink:href="#DejaVuSans-61"/>
      <use x="337.402344" xlink:href="#DejaVuSans-6d"/>
     </g>
    </g>
    <g id="line2d_15">
     <path d="M 305.441999 28.255896 
L 321.441999 28.255896 
" style="fill:none;stroke:#e36f47;stroke-linejoin:miter;"/>
    </g>
    <g id="line2d_16"/>
    <g id="text_14">
     <!-- DifferentialEquations -->
     <g transform="translate(327.841999 31.055896)scale(0.08 -0.08)">
      <defs>
       <path d="M 1259 4147 
L 1259 519 
L 2022 519 
Q 2988 519 3436 956 
Q 3884 1394 3884 2338 
Q 3884 3275 3436 3711 
Q 2988 4147 2022 4147 
L 1259 4147 
z
M 628 4666 
L 1925 4666 
Q 3281 4666 3915 4102 
Q 4550 3538 4550 2338 
Q 4550 1131 3912 565 
Q 3275 0 1925 0 
L 628 0 
L 628 4666 
z
" id="DejaVuSans-44" transform="scale(0.015625)"/>
       <path d="M 2375 4863 
L 2375 4384 
L 1825 4384 
Q 1516 4384 1395 4259 
Q 1275 4134 1275 3809 
L 1275 3500 
L 2222 3500 
L 2222 3053 
L 1275 3053 
L 1275 0 
L 697 0 
L 697 3053 
L 147 3053 
L 147 3500 
L 697 3500 
L 697 3744 
Q 697 4328 969 4595 
Q 1241 4863 1831 4863 
L 2375 4863 
z
" id="DejaVuSans-66" transform="scale(0.015625)"/>
       <path d="M 2631 2963 
Q 2534 3019 2420 3045 
Q 2306 3072 2169 3072 
Q 1681 3072 1420 2755 
Q 1159 2438 1159 1844 
L 1159 0 
L 581 0 
L 581 3500 
L 1159 3500 
L 1159 2956 
Q 1341 3275 1631 3429 
Q 1922 3584 2338 3584 
Q 2397 3584 2469 3576 
Q 2541 3569 2628 3553 
L 2631 2963 
z
" id="DejaVuSans-72" transform="scale(0.015625)"/>
       <path d="M 3513 2113 
L 3513 0 
L 2938 0 
L 2938 2094 
Q 2938 2591 2744 2837 
Q 2550 3084 2163 3084 
Q 1697 3084 1428 2787 
Q 1159 2491 1159 1978 
L 1159 0 
L 581 0 
L 581 3500 
L 1159 3500 
L 1159 2956 
Q 1366 3272 1645 3428 
Q 1925 3584 2291 3584 
Q 2894 3584 3203 3211 
Q 3513 2838 3513 2113 
z
" id="DejaVuSans-6e" transform="scale(0.015625)"/>
       <path d="M 1172 4494 
L 1172 3500 
L 2356 3500 
L 2356 3053 
L 1172 3053 
L 1172 1153 
Q 1172 725 1289 603 
Q 1406 481 1766 481 
L 2356 481 
L 2356 0 
L 1766 0 
Q 1100 0 847 248 
Q 594 497 594 1153 
L 594 3053 
L 172 3053 
L 172 3500 
L 594 3500 
L 594 4494 
L 1172 4494 
z
" id="DejaVuSans-74" transform="scale(0.015625)"/>
       <path d="M 603 4863 
L 1178 4863 
L 1178 0 
L 603 0 
L 603 4863 
z
" id="DejaVuSans-6c" transform="scale(0.015625)"/>
       <path d="M 628 4666 
L 3578 4666 
L 3578 4134 
L 1259 4134 
L 1259 2753 
L 3481 2753 
L 3481 2222 
L 1259 2222 
L 1259 531 
L 3634 531 
L 3634 0 
L 628 0 
L 628 4666 
z
" id="DejaVuSans-45" transform="scale(0.015625)"/>
       <path d="M 947 1747 
Q 947 1113 1208 752 
Q 1469 391 1925 391 
Q 2381 391 2643 752 
Q 2906 1113 2906 1747 
Q 2906 2381 2643 2742 
Q 2381 3103 1925 3103 
Q 1469 3103 1208 2742 
Q 947 2381 947 1747 
z
M 2906 525 
Q 2725 213 2448 61 
Q 2172 -91 1784 -91 
Q 1150 -91 751 415 
Q 353 922 353 1747 
Q 353 2572 751 3078 
Q 1150 3584 1784 3584 
Q 2172 3584 2448 3432 
Q 2725 3281 2906 2969 
L 2906 3500 
L 3481 3500 
L 3481 -1331 
L 2906 -1331 
L 2906 525 
z
" id="DejaVuSans-71" transform="scale(0.015625)"/>
       <path d="M 544 1381 
L 544 3500 
L 1119 3500 
L 1119 1403 
Q 1119 906 1312 657 
Q 1506 409 1894 409 
Q 2359 409 2629 706 
Q 2900 1003 2900 1516 
L 2900 3500 
L 3475 3500 
L 3475 0 
L 2900 0 
L 2900 538 
Q 2691 219 2414 64 
Q 2138 -91 1772 -91 
Q 1169 -91 856 284 
Q 544 659 544 1381 
z
M 1991 3584 
L 1991 3584 
z
" id="DejaVuSans-75" transform="scale(0.015625)"/>
       <path d="M 1959 3097 
Q 1497 3097 1228 2736 
Q 959 2375 959 1747 
Q 959 1119 1226 758 
Q 1494 397 1959 397 
Q 2419 397 2687 759 
Q 2956 1122 2956 1747 
Q 2956 2369 2687 2733 
Q 2419 3097 1959 3097 
z
M 1959 3584 
Q 2709 3584 3137 3096 
Q 3566 2609 3566 1747 
Q 3566 888 3137 398 
Q 2709 -91 1959 -91 
Q 1206 -91 779 398 
Q 353 888 353 1747 
Q 353 2609 779 3096 
Q 1206 3584 1959 3584 
z
" id="DejaVuSans-6f" transform="scale(0.015625)"/>
      </defs>
      <use xlink:href="#DejaVuSans-44"/>
      <use x="77.001953" xlink:href="#DejaVuSans-69"/>
      <use x="104.785156" xlink:href="#DejaVuSans-66"/>
      <use x="139.990234" xlink:href="#DejaVuSans-66"/>
      <use x="175.195312" xlink:href="#DejaVuSans-65"/>
      <use x="236.71875" xlink:href="#DejaVuSans-72"/>
      <use x="275.582031" xlink:href="#DejaVuSans-65"/>
      <use x="337.105469" xlink:href="#DejaVuSans-6e"/>
      <use x="400.484375" xlink:href="#DejaVuSans-74"/>
      <use x="439.693359" xlink:href="#DejaVuSans-69"/>
      <use x="467.476562" xlink:href="#DejaVuSans-61"/>
      <use x="528.755859" xlink:href="#DejaVuSans-6c"/>
      <use x="556.539062" xlink:href="#DejaVuSans-45"/>
      <use x="619.722656" xlink:href="#DejaVuSans-71"/>
      <use x="683.199219" xlink:href="#DejaVuSans-75"/>
      <use x="746.578125" xlink:href="#DejaVuSans-61"/>
      <use x="807.857422" xlink:href="#DejaVuSans-74"/>
      <use x="847.066406" xlink:href="#DejaVuSans-69"/>
      <use x="874.849609" xlink:href="#DejaVuSans-6f"/>
      <use x="936.03125" xlink:href="#DejaVuSans-6e"/>
      <use x="999.410156" xlink:href="#DejaVuSans-73"/>
     </g>
    </g>
   </g>
  </g>
 </g>
 <defs>
  <clipPath id="pa21c591a26">
   <rect height="255.390709" width="356.310455" x="66.051544" y="2.834646"/>
  </clipPath>
 </defs>
</svg>
