<?xml version="1.0" encoding="utf-8" standalone="no"?>
<!DOCTYPE svg PUBLIC "-//W3C//DTD SVG 1.1//EN"
  "http://www.w3.org/Graphics/SVG/1.1/DTD/svg11.dtd">
<!-- Created with matplotlib (https://matplotlib.org/) -->
<svg height="288pt" version="1.1" viewBox="0 0 432 288" width="432pt" xmlns="http://www.w3.org/2000/svg" xmlns:xlink="http://www.w3.org/1999/xlink">
 <metadata>
  <rdf:RDF xmlns:cc="http://creativecommons.org/ns#" xmlns:dc="http://purl.org/dc/elements/1.1/" xmlns:rdf="http://www.w3.org/1999/02/22-rdf-syntax-ns#">
   <cc:Work>
    <dc:type rdf:resource="http://purl.org/dc/dcmitype/StillImage"/>
    <dc:date>2020-09-18T16:15:28.533302</dc:date>
    <dc:format>image/svg+xml</dc:format>
    <dc:creator>
     <cc:Agent>
      <dc:title>Matplotlib v3.3.1, https://matplotlib.org/</dc:title>
     </cc:Agent>
    </dc:creator>
   </cc:Work>
  </rdf:RDF>
 </metadata>
 <defs>
  <style type="text/css">*{stroke-linecap:butt;stroke-linejoin:round;}</style>
 </defs>
 <g id="figure_1">
  <g id="patch_1">
   <path d="M 0 288 
L 432 288 
L 432 0 
L 0 0 
z
" style="fill:#ffffff;"/>
  </g>
  <g id="axes_1">
   <g id="patch_2">
    <path d="M 59.562041 258.225354 
L 419.805777 258.225354 
L 419.805777 2.834646 
L 59.562041 2.834646 
z
" style="fill:#ffffff;"/>
   </g>
   <g id="line2d_1">
    <path clip-path="url(#p4f4ae1b5b2)" d="M 59.562041 250.997315 
L 59.922284 250.94166 
L 60.282528 250.567978 
L 61.363259 247.807122 
L 62.083747 247.158507 
L 62.44399 246.899698 
L 64.245209 243.629667 
L 65.32594 242.067767 
L 67.847647 238.385333 
L 68.20789 237.681453 
L 68.568134 237.337046 
L 68.928378 237.283149 
L 69.288621 237.062001 
L 70.009109 236.012571 
L 70.369353 235.323817 
L 70.729596 234.966087 
L 71.450084 234.569946 
L 72.170571 233.994379 
L 73.611546 232.114194 
L 74.692278 231.537159 
L 75.773009 229.935578 
L 76.85374 229.210434 
L 77.934471 227.715704 
L 79.015202 226.743498 
L 79.73569 225.993565 
L 80.456177 225.488387 
L 80.816421 225.197111 
L 81.536909 224.066451 
L 82.257396 223.529013 
L 82.61764 223.412379 
L 82.977883 223.16674 
L 84.418858 221.032143 
L 85.139346 220.556843 
L 86.220077 219.143914 
L 86.940565 218.058162 
L 87.661052 217.231259 
L 89.102027 215.324695 
L 89.462271 214.973811 
L 90.182758 213.736446 
L 90.903246 212.535453 
L 91.983977 211.871385 
L 92.344221 211.375581 
L 93.424952 209.352414 
L 94.145439 208.882632 
L 94.505683 208.763536 
L 94.865927 208.345549 
L 95.946658 206.098294 
L 96.306902 205.663299 
L 97.027389 205.228265 
L 97.387633 204.755728 
L 98.828608 202.001678 
L 99.188852 201.673054 
L 99.909339 200.520898 
L 100.629827 198.92503 
L 101.710558 197.63852 
L 102.791289 195.052083 
L 103.87202 193.840929 
L 104.592508 192.045947 
L 104.952751 191.056708 
L 105.673239 189.881627 
L 106.393726 188.849532 
L 108.194945 184.219251 
L 108.915433 182.670235 
L 110.356407 178.274794 
L 111.076895 176.618517 
L 111.797382 174.470735 
L 112.878114 171.096308 
L 119.002257 152.135377 
L 119.722745 149.923897 
L 120.443232 148.085216 
L 121.884207 142.867035 
L 122.604695 140.845635 
L 124.045669 136.340185 
L 125.846888 130.90289 
L 126.567376 129.195869 
L 128.368594 123.660371 
L 129.089082 122.313567 
L 129.809569 120.057231 
L 130.530057 117.60536 
L 131.610788 115.299318 
L 133.77225 109.102397 
L 135.213225 105.226851 
L 138.095175 97.758906 
L 138.455419 97.120612 
L 139.175906 95.036882 
L 139.896394 92.794636 
L 140.977125 90.974249 
L 142.4181 86.683796 
L 142.778344 86.219436 
L 143.138588 85.505705 
L 143.859075 83.369209 
L 144.579562 81.061111 
L 146.020537 78.274563 
L 146.741025 76.005342 
L 147.461512 74.521404 
L 148.182 73.400495 
L 149.262731 70.763949 
L 149.622975 70.041689 
L 149.983219 69.570639 
L 150.343462 69.642395 
L 150.703706 70.547081 
L 151.06395 71.970984 
L 151.424193 72.722868 
L 151.784437 72.978866 
L 152.144681 73.037218 
L 152.504925 72.83832 
L 152.865168 73.192488 
L 153.9459 74.960136 
L 154.666387 75.776331 
L 155.386875 76.401174 
L 155.747118 76.596152 
L 156.107362 76.645602 
L 156.467606 76.981093 
L 156.82785 76.9731 
L 157.188093 77.404795 
L 157.548337 78.200273 
L 158.268824 78.922489 
L 158.629068 78.625267 
L 158.989312 77.859047 
L 159.349556 77.499835 
L 159.709799 77.736186 
L 160.430287 78.744063 
L 160.790531 78.762233 
L 162.231506 76.918628 
L 162.591749 76.879623 
L 162.951993 77.199334 
L 163.672481 77.12853 
L 164.032724 76.424029 
L 164.392968 75.35991 
L 164.753212 74.701387 
L 165.113455 74.596368 
L 165.833943 74.638182 
L 166.194187 74.138714 
L 166.914674 72.423327 
L 167.274918 72.214004 
L 168.355649 70.939307 
L 169.076137 69.483161 
L 169.796624 68.198532 
L 170.517111 66.658237 
L 171.237599 65.342708 
L 171.597843 64.850172 
L 172.31833 63.219166 
L 173.399061 60.641376 
L 173.759305 60.156899 
L 175.20028 57.151804 
L 176.281011 54.496906 
L 177.361742 52.825603 
L 178.08223 51.35227 
L 179.523205 47.508917 
L 179.883449 47.168371 
L 180.243692 47.008671 
L 180.603936 46.550743 
L 180.96418 45.533315 
L 181.684667 42.436266 
L 182.044911 41.489115 
L 182.405155 41.117051 
L 182.765399 40.955251 
L 183.125642 40.521085 
L 183.485886 39.674152 
L 184.566617 35.805714 
L 184.926861 34.83867 
L 186.007592 33.531611 
L 186.367836 32.779626 
L 187.448567 29.100051 
L 188.169055 27.953354 
L 188.529298 27.496622 
L 188.889542 26.845022 
L 189.970273 24.305634 
L 190.690761 22.703774 
L 191.411248 20.746169 
L 191.771492 20.214766 
L 192.491979 19.654715 
L 192.852223 18.981746 
L 193.932954 15.604176 
L 194.293198 15.32708 
L 195.013686 15.34797 
L 195.373929 14.78925 
L 196.454661 11.65784 
L 196.814904 11.540538 
L 197.175148 11.847303 
L 197.535392 12.004138 
L 197.895635 11.870658 
L 198.616123 10.441403 
L 198.976367 10.062685 
L 200.057098 10.641961 
L 200.417342 10.599544 
L 200.777585 10.287532 
L 201.137829 10.161151 
L 201.498073 10.171714 
L 201.858317 10.325606 
L 202.578804 11.021588 
L 203.659535 11.766934 
L 204.380023 12.277655 
L 205.10051 13.061065 
L 207.261973 15.808554 
L 208.342704 17.286544 
L 209.423435 20.360888 
L 209.783679 20.724006 
L 210.143923 20.750914 
L 210.504166 21.030743 
L 210.86441 21.803502 
L 211.945141 25.337428 
L 212.305385 25.91189 
L 212.665629 26.199145 
L 213.386116 27.07383 
L 213.74636 27.829855 
L 214.827091 31.092204 
L 215.187335 31.688459 
L 216.268066 32.41593 
L 216.62831 32.984326 
L 217.348797 34.956657 
L 217.709041 35.966329 
L 218.429528 36.90789 
L 218.789772 36.646745 
L 219.150016 36.767613 
L 219.51026 37.374049 
L 220.590991 40.038682 
L 221.671722 40.597258 
L 222.031966 41.038246 
L 222.752453 42.195684 
L 223.472941 43.013166 
L 223.833185 43.786786 
L 224.553672 44.596162 
L 224.913916 44.641996 
L 225.274159 44.310903 
L 225.634403 44.651759 
L 226.715134 46.437436 
L 227.075378 46.685408 
L 228.156109 46.573179 
L 228.516353 46.659096 
L 228.876597 47.053035 
L 229.236841 47.871228 
L 229.957328 48.612631 
L 230.317572 48.3031 
L 230.677816 47.7036 
L 231.038059 47.840699 
L 232.11879 49.558146 
L 232.479034 49.512876 
L 232.839278 49.048577 
L 233.199522 48.851043 
L 233.559765 49.096325 
L 233.920009 49.498071 
L 234.640497 50.596519 
L 235.00074 50.483498 
L 235.721228 49.920727 
L 236.081472 49.774339 
L 236.801959 50.689452 
L 237.162203 50.719027 
L 237.522447 50.472492 
L 237.88269 49.959996 
L 238.242934 49.653792 
L 238.603178 49.785299 
L 238.963421 50.03866 
L 240.044153 49.200745 
L 240.76464 48.006204 
L 242.205615 43.559693 
L 243.64659 41.317714 
L 245.447809 36.072401 
L 245.808052 35.470582 
L 246.168296 35.342002 
L 246.52854 34.706954 
L 246.888784 33.718884 
L 247.969515 29.378799 
L 248.329759 28.8124 
L 249.050246 28.731421 
L 249.41049 28.208995 
L 249.770734 27.166851 
L 250.491221 24.457624 
L 250.851465 23.547661 
L 251.211709 23.038358 
L 251.571952 23.022139 
L 251.932196 22.677428 
L 252.29244 22.15734 
L 252.652683 21.410265 
L 253.373171 19.450884 
L 253.733415 18.763803 
L 254.093658 18.493483 
L 255.17439 18.23573 
L 255.894877 17.209243 
L 256.615365 16.013537 
L 256.975608 15.965941 
L 257.335852 15.773249 
L 258.05634 16.067188 
L 259.857558 15.558965 
L 260.217802 15.681129 
L 261.298533 16.893745 
L 261.658777 16.984118 
L 262.019021 16.816987 
L 262.739508 17.000828 
L 264.180483 19.386819 
L 264.900971 19.52152 
L 265.261214 20.026903 
L 266.702189 22.937197 
L 267.422677 23.36265 
L 268.143164 24.676361 
L 268.863652 26.692541 
L 269.584139 28.007048 
L 270.304627 28.597483 
L 270.66487 29.19761 
L 271.385358 31.341132 
L 272.105845 33.253292 
L 273.186576 34.468507 
L 273.54682 35.037951 
L 275.348039 39.541111 
L 276.068526 40.497873 
L 276.42877 40.900571 
L 277.149258 42.47669 
L 277.869745 44.824625 
L 278.229989 45.673551 
L 278.590233 46.166999 
L 278.950476 46.146914 
L 279.31072 46.288759 
L 279.670964 46.849189 
L 280.031207 47.835054 
L 280.751695 50.512459 
L 281.111939 51.291959 
L 281.472182 51.417074 
L 281.832426 51.41991 
L 282.19267 51.612235 
L 282.552914 52.12746 
L 283.633645 55.262765 
L 283.993889 55.946401 
L 284.714376 56.162974 
L 285.07462 56.220962 
L 285.434864 56.640415 
L 286.515595 59.427904 
L 286.875838 59.829533 
L 287.95657 59.80268 
L 289.037301 61.258792 
L 289.757788 61.976545 
L 290.478276 62.369037 
L 291.559007 62.387448 
L 292.639738 63.172313 
L 292.999982 63.145869 
L 294.080713 62.045468 
L 294.440957 61.99329 
L 295.161444 62.301204 
L 295.521688 62.26931 
L 296.242176 61.277341 
L 296.962663 60.234353 
L 297.683151 59.95057 
L 298.043394 59.600328 
L 298.403638 59.009501 
L 299.484369 56.509957 
L 300.204857 55.856839 
L 300.925344 55.152235 
L 301.645832 52.976462 
L 302.366319 50.832254 
L 303.44705 49.676021 
L 303.807294 48.727632 
L 304.888025 45.11602 
L 305.608513 43.850563 
L 306.329 42.609976 
L 307.049488 40.657973 
L 308.490463 36.112838 
L 309.571194 34.68132 
L 309.931438 33.872941 
L 311.012169 30.213294 
L 311.372413 29.440844 
L 312.453144 28.555345 
L 312.813388 27.754834 
L 313.894119 24.109451 
L 314.254362 23.616022 
L 314.614606 23.44357 
L 315.335094 23.532276 
L 315.695337 22.964646 
L 316.776069 20.063725 
L 317.136312 19.696658 
L 317.496556 19.808211 
L 317.8568 20.13477 
L 318.217044 20.07463 
L 318.937531 18.859815 
L 319.297775 17.96902 
L 319.658018 17.719028 
L 320.018262 17.665762 
L 321.098993 17.782957 
L 321.819481 17.604114 
L 322.900212 17.007194 
L 323.6207 17.350359 
L 324.341187 17.952575 
L 325.061675 17.800059 
L 325.782162 17.801149 
L 327.583381 19.632779 
L 327.943624 19.820484 
L 328.303868 19.831694 
L 329.024356 20.618508 
L 329.744843 21.905065 
L 330.465331 22.433908 
L 330.825574 22.523712 
L 331.185818 22.809829 
L 331.906306 24.462016 
L 332.266549 25.403516 
L 332.626793 25.998723 
L 332.987037 26.227592 
L 333.707524 26.442249 
L 334.428012 28.189306 
L 335.148499 30.233486 
L 336.22923 31.148832 
L 336.589474 31.758105 
L 338.390693 36.629171 
L 339.471424 37.938081 
L 339.831668 38.566159 
L 341.272643 43.054574 
L 342.713618 45.281617 
L 344.514836 50.260225 
L 344.87508 50.658356 
L 345.235324 50.685204 
L 345.595568 51.137551 
L 346.316055 53.290628 
L 346.676299 54.904656 
L 347.036542 55.983099 
L 347.396786 56.429113 
L 348.117274 56.354181 
L 348.477517 56.664434 
L 348.837761 57.496347 
L 349.558249 59.828199 
L 349.918492 60.435905 
L 350.278736 60.777916 
L 350.63898 60.546231 
L 350.999224 60.646082 
L 351.359467 60.91106 
L 351.719711 61.50561 
L 352.440199 63.000991 
L 352.800442 63.355786 
L 353.160686 63.46861 
L 354.241417 63.016162 
L 355.682392 63.997417 
L 356.763123 63.270545 
L 357.123367 62.970401 
L 357.843855 62.646721 
L 358.564342 62.303498 
L 359.28483 61.676647 
L 360.725804 59.468722 
L 361.086048 59.409365 
L 361.806536 58.651764 
L 362.887267 55.961431 
L 363.247511 55.450117 
L 363.607754 55.240074 
L 363.967998 54.829282 
L 364.688486 53.035346 
L 365.408973 51.077722 
L 365.769217 50.408794 
L 366.489704 49.706382 
L 367.210192 48.117126 
L 368.290923 44.77493 
L 368.651167 44.152718 
L 369.371654 43.41909 
L 369.731898 42.718049 
L 370.092142 41.712745 
L 370.812629 39.355253 
L 371.172873 38.367665 
L 372.613848 36.63308 
L 374.054823 32.595469 
L 375.135554 31.203792 
L 375.495798 30.77959 
L 376.216285 29.417753 
L 376.936773 27.190671 
L 377.297016 26.430967 
L 377.65726 26.019465 
L 378.017504 26.210946 
L 378.377748 26.213998 
L 378.737991 25.847095 
L 379.098235 24.908014 
L 379.818723 22.607645 
L 380.178966 22.090632 
L 380.53921 21.948812 
L 380.899454 22.157811 
L 381.619941 21.810297 
L 382.700672 19.344809 
L 383.060916 18.842696 
L 383.42116 18.948231 
L 384.141647 19.417202 
L 384.501891 19.1929 
L 385.582622 17.17174 
L 385.942866 17.056485 
L 387.023597 17.595863 
L 388.104328 17.076696 
L 388.464572 16.855564 
L 391.346522 17.840835 
L 392.06701 18.126303 
L 393.507985 20.313448 
L 394.228472 20.558768 
L 394.588716 20.846757 
L 396.029691 23.611818 
L 396.389934 23.857289 
L 397.110422 24.853951 
L 397.830909 26.820967 
L 398.551397 28.82072 
L 398.911641 29.470165 
L 399.632128 30.093499 
L 399.992372 30.668011 
L 400.712859 33.131134 
L 401.433347 35.390954 
L 402.153834 36.13084 
L 402.514078 36.679339 
L 402.874322 37.704059 
L 403.955053 41.650244 
L 404.67554 43.005034 
L 405.396028 44.076084 
L 406.116515 45.93226 
L 407.197247 49.368743 
L 407.55749 50.159842 
L 407.917734 50.665842 
L 408.277978 50.957335 
L 408.998465 52.188266 
L 410.079196 55.583409 
L 410.43944 56.185239 
L 410.799684 56.376852 
L 411.159928 56.401793 
L 411.520171 56.54782 
L 411.880415 57.139815 
L 412.961146 60.106606 
L 413.32139 60.465506 
L 413.681634 60.45369 
L 414.402121 60.064645 
L 414.762365 60.334253 
L 415.122609 61.014522 
L 415.843096 62.638654 
L 416.20334 62.6635 
L 416.563584 62.416504 
L 416.923827 61.778395 
L 417.284071 61.667122 
L 417.644315 61.938148 
L 418.364802 62.896471 
L 418.725046 62.865787 
L 419.445534 62.381172 
L 419.805777 62.038048 
L 419.805777 62.038048 
" style="fill:none;stroke:#009afa;"/>
   </g>
   <g id="matplotlib.axis_1">
    <g id="xtick_1">
     <g id="line2d_2">
      <defs>
       <path d="M 0 0 
L 0 -2.5 
" id="md8933aa45d" style="stroke:#000000;stroke-width:0.5;"/>
      </defs>
      <g>
       <use style="stroke:#000000;stroke-width:0.5;" x="59.562041" xlink:href="#md8933aa45d" y="258.225354"/>
      </g>
     </g>
     <g id="text_1">
      <!-- $\mathregular{0.00}$ -->
      <g transform="translate(50.642041 267.804104)scale(0.08 -0.08)">
       <defs>
        <path d="M 31.78125 66.40625 
Q 24.171875 66.40625 20.328125 58.90625 
Q 16.5 51.421875 16.5 36.375 
Q 16.5 21.390625 20.328125 13.890625 
Q 24.171875 6.390625 31.78125 6.390625 
Q 39.453125 6.390625 43.28125 13.890625 
Q 47.125 21.390625 47.125 36.375 
Q 47.125 51.421875 43.28125 58.90625 
Q 39.453125 66.40625 31.78125 66.40625 
z
M 31.78125 74.21875 
Q 44.046875 74.21875 50.515625 64.515625 
Q 56.984375 54.828125 56.984375 36.375 
Q 56.984375 17.96875 50.515625 8.265625 
Q 44.046875 -1.421875 31.78125 -1.421875 
Q 19.53125 -1.421875 13.0625 8.265625 
Q 6.59375 17.96875 6.59375 36.375 
Q 6.59375 54.828125 13.0625 64.515625 
Q 19.53125 74.21875 31.78125 74.21875 
z
" id="DejaVuSans-48"/>
        <path d="M 10.6875 12.40625 
L 21 12.40625 
L 21 0 
L 10.6875 0 
z
" id="DejaVuSans-46"/>
       </defs>
       <use transform="translate(0 0.78125)" xlink:href="#DejaVuSans-48"/>
       <use transform="translate(63.623047 0.78125)" xlink:href="#DejaVuSans-46"/>
       <use transform="translate(95.410156 0.78125)" xlink:href="#DejaVuSans-48"/>
       <use transform="translate(159.033203 0.78125)" xlink:href="#DejaVuSans-48"/>
      </g>
     </g>
    </g>
    <g id="xtick_2">
     <g id="line2d_3">
      <g>
       <use style="stroke:#000000;stroke-width:0.5;" x="149.622975" xlink:href="#md8933aa45d" y="258.225354"/>
      </g>
     </g>
     <g id="text_2">
      <!-- $\mathregular{0.01}$ -->
      <g transform="translate(140.702975 267.804104)scale(0.08 -0.08)">
       <defs>
        <path d="M 12.40625 8.296875 
L 28.515625 8.296875 
L 28.515625 63.921875 
L 10.984375 60.40625 
L 10.984375 69.390625 
L 28.421875 72.90625 
L 38.28125 72.90625 
L 38.28125 8.296875 
L 54.390625 8.296875 
L 54.390625 0 
L 12.40625 0 
z
" id="DejaVuSans-49"/>
       </defs>
       <use transform="translate(0 0.78125)" xlink:href="#DejaVuSans-48"/>
       <use transform="translate(63.623047 0.78125)" xlink:href="#DejaVuSans-46"/>
       <use transform="translate(95.410156 0.78125)" xlink:href="#DejaVuSans-48"/>
       <use transform="translate(159.033203 0.78125)" xlink:href="#DejaVuSans-49"/>
      </g>
     </g>
    </g>
    <g id="xtick_3">
     <g id="line2d_4">
      <g>
       <use style="stroke:#000000;stroke-width:0.5;" x="239.683909" xlink:href="#md8933aa45d" y="258.225354"/>
      </g>
     </g>
     <g id="text_3">
      <!-- $\mathregular{0.02}$ -->
      <g transform="translate(230.763909 267.804104)scale(0.08 -0.08)">
       <defs>
        <path d="M 19.1875 8.296875 
L 53.609375 8.296875 
L 53.609375 0 
L 7.328125 0 
L 7.328125 8.296875 
Q 12.9375 14.109375 22.625 23.890625 
Q 32.328125 33.6875 34.8125 36.53125 
Q 39.546875 41.84375 41.421875 45.53125 
Q 43.3125 49.21875 43.3125 52.78125 
Q 43.3125 58.59375 39.234375 62.25 
Q 35.15625 65.921875 28.609375 65.921875 
Q 23.96875 65.921875 18.8125 64.3125 
Q 13.671875 62.703125 7.8125 59.421875 
L 7.8125 69.390625 
Q 13.765625 71.78125 18.9375 73 
Q 24.125 74.21875 28.421875 74.21875 
Q 39.75 74.21875 46.484375 68.546875 
Q 53.21875 62.890625 53.21875 53.421875 
Q 53.21875 48.921875 51.53125 44.890625 
Q 49.859375 40.875 45.40625 35.40625 
Q 44.1875 33.984375 37.640625 27.21875 
Q 31.109375 20.453125 19.1875 8.296875 
z
" id="DejaVuSans-50"/>
       </defs>
       <use transform="translate(0 0.78125)" xlink:href="#DejaVuSans-48"/>
       <use transform="translate(63.623047 0.78125)" xlink:href="#DejaVuSans-46"/>
       <use transform="translate(95.410156 0.78125)" xlink:href="#DejaVuSans-48"/>
       <use transform="translate(159.033203 0.78125)" xlink:href="#DejaVuSans-50"/>
      </g>
     </g>
    </g>
    <g id="xtick_4">
     <g id="line2d_5">
      <g>
       <use style="stroke:#000000;stroke-width:0.5;" x="329.744843" xlink:href="#md8933aa45d" y="258.225354"/>
      </g>
     </g>
     <g id="text_4">
      <!-- $\mathregular{0.03}$ -->
      <g transform="translate(320.824843 267.804104)scale(0.08 -0.08)">
       <defs>
        <path d="M 40.578125 39.3125 
Q 47.65625 37.796875 51.625 33 
Q 55.609375 28.21875 55.609375 21.1875 
Q 55.609375 10.40625 48.1875 4.484375 
Q 40.765625 -1.421875 27.09375 -1.421875 
Q 22.515625 -1.421875 17.65625 -0.515625 
Q 12.796875 0.390625 7.625 2.203125 
L 7.625 11.71875 
Q 11.71875 9.328125 16.59375 8.109375 
Q 21.484375 6.890625 26.8125 6.890625 
Q 36.078125 6.890625 40.9375 10.546875 
Q 45.796875 14.203125 45.796875 21.1875 
Q 45.796875 27.640625 41.28125 31.265625 
Q 36.765625 34.90625 28.71875 34.90625 
L 20.21875 34.90625 
L 20.21875 43.015625 
L 29.109375 43.015625 
Q 36.375 43.015625 40.234375 45.921875 
Q 44.09375 48.828125 44.09375 54.296875 
Q 44.09375 59.90625 40.109375 62.90625 
Q 36.140625 65.921875 28.71875 65.921875 
Q 24.65625 65.921875 20.015625 65.03125 
Q 15.375 64.15625 9.8125 62.3125 
L 9.8125 71.09375 
Q 15.4375 72.65625 20.34375 73.4375 
Q 25.25 74.21875 29.59375 74.21875 
Q 40.828125 74.21875 47.359375 69.109375 
Q 53.90625 64.015625 53.90625 55.328125 
Q 53.90625 49.265625 50.4375 45.09375 
Q 46.96875 40.921875 40.578125 39.3125 
z
" id="DejaVuSans-51"/>
       </defs>
       <use transform="translate(0 0.78125)" xlink:href="#DejaVuSans-48"/>
       <use transform="translate(63.623047 0.78125)" xlink:href="#DejaVuSans-46"/>
       <use transform="translate(95.410156 0.78125)" xlink:href="#DejaVuSans-48"/>
       <use transform="translate(159.033203 0.78125)" xlink:href="#DejaVuSans-51"/>
      </g>
     </g>
    </g>
    <g id="xtick_5">
     <g id="line2d_6">
      <g>
       <use style="stroke:#000000;stroke-width:0.5;" x="419.805777" xlink:href="#md8933aa45d" y="258.225354"/>
      </g>
     </g>
     <g id="text_5">
      <!-- $\mathregular{0.04}$ -->
      <g transform="translate(410.885777 267.804104)scale(0.08 -0.08)">
       <defs>
        <path d="M 37.796875 64.3125 
L 12.890625 25.390625 
L 37.796875 25.390625 
z
M 35.203125 72.90625 
L 47.609375 72.90625 
L 47.609375 25.390625 
L 58.015625 25.390625 
L 58.015625 17.1875 
L 47.609375 17.1875 
L 47.609375 0 
L 37.796875 0 
L 37.796875 17.1875 
L 4.890625 17.1875 
L 4.890625 26.703125 
z
" id="DejaVuSans-52"/>
       </defs>
       <use transform="translate(0 0.78125)" xlink:href="#DejaVuSans-48"/>
       <use transform="translate(63.623047 0.78125)" xlink:href="#DejaVuSans-46"/>
       <use transform="translate(95.410156 0.78125)" xlink:href="#DejaVuSans-48"/>
       <use transform="translate(159.033203 0.78125)" xlink:href="#DejaVuSans-52"/>
      </g>
     </g>
    </g>
    <g id="text_6">
     <!-- Time (s) -->
     <g transform="translate(217.322112 281.826136)scale(0.11 -0.11)">
      <defs>
       <path d="M -0.296875 72.90625 
L 61.375 72.90625 
L 61.375 64.59375 
L 35.5 64.59375 
L 35.5 0 
L 25.59375 0 
L 25.59375 64.59375 
L -0.296875 64.59375 
z
" id="DejaVuSans-84"/>
       <path d="M 9.421875 54.6875 
L 18.40625 54.6875 
L 18.40625 0 
L 9.421875 0 
z
M 9.421875 75.984375 
L 18.40625 75.984375 
L 18.40625 64.59375 
L 9.421875 64.59375 
z
" id="DejaVuSans-105"/>
       <path d="M 52 44.1875 
Q 55.375 50.25 60.0625 53.125 
Q 64.75 56 71.09375 56 
Q 79.640625 56 84.28125 50.015625 
Q 88.921875 44.046875 88.921875 33.015625 
L 88.921875 0 
L 79.890625 0 
L 79.890625 32.71875 
Q 79.890625 40.578125 77.09375 44.375 
Q 74.3125 48.1875 68.609375 48.1875 
Q 61.625 48.1875 57.5625 43.546875 
Q 53.515625 38.921875 53.515625 30.90625 
L 53.515625 0 
L 44.484375 0 
L 44.484375 32.71875 
Q 44.484375 40.625 41.703125 44.40625 
Q 38.921875 48.1875 33.109375 48.1875 
Q 26.21875 48.1875 22.15625 43.53125 
Q 18.109375 38.875 18.109375 30.90625 
L 18.109375 0 
L 9.078125 0 
L 9.078125 54.6875 
L 18.109375 54.6875 
L 18.109375 46.1875 
Q 21.1875 51.21875 25.484375 53.609375 
Q 29.78125 56 35.6875 56 
Q 41.65625 56 45.828125 52.96875 
Q 50 49.953125 52 44.1875 
z
" id="DejaVuSans-109"/>
       <path d="M 56.203125 29.59375 
L 56.203125 25.203125 
L 14.890625 25.203125 
Q 15.484375 15.921875 20.484375 11.0625 
Q 25.484375 6.203125 34.421875 6.203125 
Q 39.59375 6.203125 44.453125 7.46875 
Q 49.3125 8.734375 54.109375 11.28125 
L 54.109375 2.78125 
Q 49.265625 0.734375 44.1875 -0.34375 
Q 39.109375 -1.421875 33.890625 -1.421875 
Q 20.796875 -1.421875 13.15625 6.1875 
Q 5.515625 13.8125 5.515625 26.8125 
Q 5.515625 40.234375 12.765625 48.109375 
Q 20.015625 56 32.328125 56 
Q 43.359375 56 49.78125 48.890625 
Q 56.203125 41.796875 56.203125 29.59375 
z
M 47.21875 32.234375 
Q 47.125 39.59375 43.09375 43.984375 
Q 39.0625 48.390625 32.421875 48.390625 
Q 24.90625 48.390625 20.390625 44.140625 
Q 15.875 39.890625 15.1875 32.171875 
z
" id="DejaVuSans-101"/>
       <path id="DejaVuSans-32"/>
       <path d="M 31 75.875 
Q 24.46875 64.65625 21.28125 53.65625 
Q 18.109375 42.671875 18.109375 31.390625 
Q 18.109375 20.125 21.3125 9.0625 
Q 24.515625 -2 31 -13.1875 
L 23.1875 -13.1875 
Q 15.875 -1.703125 12.234375 9.375 
Q 8.59375 20.453125 8.59375 31.390625 
Q 8.59375 42.28125 12.203125 53.3125 
Q 15.828125 64.359375 23.1875 75.875 
z
" id="DejaVuSans-40"/>
       <path d="M 44.28125 53.078125 
L 44.28125 44.578125 
Q 40.484375 46.53125 36.375 47.5 
Q 32.28125 48.484375 27.875 48.484375 
Q 21.1875 48.484375 17.84375 46.4375 
Q 14.5 44.390625 14.5 40.28125 
Q 14.5 37.15625 16.890625 35.375 
Q 19.28125 33.59375 26.515625 31.984375 
L 29.59375 31.296875 
Q 39.15625 29.25 43.1875 25.515625 
Q 47.21875 21.78125 47.21875 15.09375 
Q 47.21875 7.46875 41.1875 3.015625 
Q 35.15625 -1.421875 24.609375 -1.421875 
Q 20.21875 -1.421875 15.453125 -0.5625 
Q 10.6875 0.296875 5.421875 2 
L 5.421875 11.28125 
Q 10.40625 8.6875 15.234375 7.390625 
Q 20.0625 6.109375 24.8125 6.109375 
Q 31.15625 6.109375 34.5625 8.28125 
Q 37.984375 10.453125 37.984375 14.40625 
Q 37.984375 18.0625 35.515625 20.015625 
Q 33.0625 21.96875 24.703125 23.78125 
L 21.578125 24.515625 
Q 13.234375 26.265625 9.515625 29.90625 
Q 5.8125 33.546875 5.8125 39.890625 
Q 5.8125 47.609375 11.28125 51.796875 
Q 16.75 56 26.8125 56 
Q 31.78125 56 36.171875 55.265625 
Q 40.578125 54.546875 44.28125 53.078125 
z
" id="DejaVuSans-115"/>
       <path d="M 8.015625 75.875 
L 15.828125 75.875 
Q 23.140625 64.359375 26.78125 53.3125 
Q 30.421875 42.28125 30.421875 31.390625 
Q 30.421875 20.453125 26.78125 9.375 
Q 23.140625 -1.703125 15.828125 -13.1875 
L 8.015625 -13.1875 
Q 14.5 -2 17.703125 9.0625 
Q 20.90625 20.125 20.90625 31.390625 
Q 20.90625 42.671875 17.703125 53.65625 
Q 14.5 64.65625 8.015625 75.875 
z
" id="DejaVuSans-41"/>
      </defs>
      <use xlink:href="#DejaVuSans-84"/>
      <use x="57.958984" xlink:href="#DejaVuSans-105"/>
      <use x="85.742188" xlink:href="#DejaVuSans-109"/>
      <use x="183.154297" xlink:href="#DejaVuSans-101"/>
      <use x="244.677734" xlink:href="#DejaVuSans-32"/>
      <use x="276.464844" xlink:href="#DejaVuSans-40"/>
      <use x="315.478516" xlink:href="#DejaVuSans-115"/>
      <use x="367.578125" xlink:href="#DejaVuSans-41"/>
     </g>
    </g>
   </g>
   <g id="matplotlib.axis_2">
    <g id="ytick_1">
     <g id="line2d_7">
      <defs>
       <path d="M 0 0 
L 2.5 0 
" id="m20486e023b" style="stroke:#000000;stroke-width:0.5;"/>
      </defs>
      <g>
       <use style="stroke:#000000;stroke-width:0.5;" x="59.562041" xlink:href="#m20486e023b" y="250.997315"/>
      </g>
     </g>
     <g id="text_7">
      <!-- $\mathregular{0}$ -->
      <g transform="translate(50.942041 254.03669)scale(0.08 -0.08)">
       <use transform="translate(0 0.78125)" xlink:href="#DejaVuSans-48"/>
      </g>
     </g>
    </g>
    <g id="ytick_2">
     <g id="line2d_8">
      <g>
       <use style="stroke:#000000;stroke-width:0.5;" x="59.562041" xlink:href="#m20486e023b" y="188.251684"/>
      </g>
     </g>
     <g id="text_8">
      <!-- $\mathregular{5.0×10^{3}}$ -->
      <g transform="translate(22.542041 191.291059)scale(0.08 -0.08)">
       <defs>
        <path d="M 10.796875 72.90625 
L 49.515625 72.90625 
L 49.515625 64.59375 
L 19.828125 64.59375 
L 19.828125 46.734375 
Q 21.96875 47.46875 24.109375 47.828125 
Q 26.265625 48.1875 28.421875 48.1875 
Q 40.625 48.1875 47.75 41.5 
Q 54.890625 34.8125 54.890625 23.390625 
Q 54.890625 11.625 47.5625 5.09375 
Q 40.234375 -1.421875 26.90625 -1.421875 
Q 22.3125 -1.421875 17.546875 -0.640625 
Q 12.796875 0.140625 7.71875 1.703125 
L 7.71875 11.625 
Q 12.109375 9.234375 16.796875 8.0625 
Q 21.484375 6.890625 26.703125 6.890625 
Q 35.15625 6.890625 40.078125 11.328125 
Q 45.015625 15.765625 45.015625 23.390625 
Q 45.015625 31 40.078125 35.4375 
Q 35.15625 39.890625 26.703125 39.890625 
Q 22.75 39.890625 18.8125 39.015625 
Q 14.890625 38.140625 10.796875 36.28125 
z
" id="DejaVuSans-53"/>
        <path d="M 70.125 53.71875 
L 47.796875 31.296875 
L 70.125 8.984375 
L 64.3125 3.078125 
L 41.890625 25.484375 
L 19.484375 3.078125 
L 13.71875 8.984375 
L 35.984375 31.296875 
L 13.71875 53.71875 
L 19.484375 59.625 
L 41.890625 37.203125 
L 64.3125 59.625 
z
" id="DejaVuSans-215"/>
       </defs>
       <use transform="translate(0 0.765625)" xlink:href="#DejaVuSans-53"/>
       <use transform="translate(63.623047 0.765625)" xlink:href="#DejaVuSans-46"/>
       <use transform="translate(95.410156 0.765625)" xlink:href="#DejaVuSans-48"/>
       <use transform="translate(159.033203 0.765625)" xlink:href="#DejaVuSans-215"/>
       <use transform="translate(242.822266 0.765625)" xlink:href="#DejaVuSans-49"/>
       <use transform="translate(306.445312 0.765625)" xlink:href="#DejaVuSans-48"/>
       <use transform="translate(371.025391 39.046875)scale(0.7)" xlink:href="#DejaVuSans-51"/>
      </g>
     </g>
    </g>
    <g id="ytick_3">
     <g id="line2d_9">
      <g>
       <use style="stroke:#000000;stroke-width:0.5;" x="59.562041" xlink:href="#m20486e023b" y="125.506052"/>
      </g>
     </g>
     <g id="text_9">
      <!-- $\mathregular{1.0×10^{4}}$ -->
      <g transform="translate(22.542041 128.545427)scale(0.08 -0.08)">
       <use transform="translate(0 0.684375)" xlink:href="#DejaVuSans-49"/>
       <use transform="translate(63.623047 0.684375)" xlink:href="#DejaVuSans-46"/>
       <use transform="translate(95.410156 0.684375)" xlink:href="#DejaVuSans-48"/>
       <use transform="translate(159.033203 0.684375)" xlink:href="#DejaVuSans-215"/>
       <use transform="translate(242.822266 0.684375)" xlink:href="#DejaVuSans-49"/>
       <use transform="translate(306.445312 0.684375)" xlink:href="#DejaVuSans-48"/>
       <use transform="translate(371.025391 38.965625)scale(0.7)" xlink:href="#DejaVuSans-52"/>
      </g>
     </g>
    </g>
    <g id="ytick_4">
     <g id="line2d_10">
      <g>
       <use style="stroke:#000000;stroke-width:0.5;" x="59.562041" xlink:href="#m20486e023b" y="62.76042"/>
      </g>
     </g>
     <g id="text_10">
      <!-- $\mathregular{1.5×10^{4}}$ -->
      <g transform="translate(22.542041 65.799795)scale(0.08 -0.08)">
       <use transform="translate(0 0.684375)" xlink:href="#DejaVuSans-49"/>
       <use transform="translate(63.623047 0.684375)" xlink:href="#DejaVuSans-46"/>
       <use transform="translate(95.410156 0.684375)" xlink:href="#DejaVuSans-53"/>
       <use transform="translate(159.033203 0.684375)" xlink:href="#DejaVuSans-215"/>
       <use transform="translate(242.822266 0.684375)" xlink:href="#DejaVuSans-49"/>
       <use transform="translate(306.445312 0.684375)" xlink:href="#DejaVuSans-48"/>
       <use transform="translate(371.025391 38.965625)scale(0.7)" xlink:href="#DejaVuSans-52"/>
      </g>
     </g>
    </g>
    <g id="text_11">
     <!-- $F_y$ at the forewing root ($N$) -->
     <g transform="translate(15.132041 202.965)rotate(-90)scale(0.11 -0.11)">
      <defs>
       <path d="M 16.890625 72.90625 
L 58.6875 72.90625 
L 57.078125 64.59375 
L 25.09375 64.59375 
L 20.90625 43.109375 
L 49.8125 43.109375 
L 48.1875 34.8125 
L 19.28125 34.8125 
L 12.5 0 
L 2.6875 0 
z
" id="DejaVuSans-Oblique-70"/>
       <path d="M 24.8125 -5.078125 
Q 18.5625 -15.578125 14.625 -18.1875 
Q 10.6875 -20.796875 4.59375 -20.796875 
L -2.484375 -20.796875 
L -0.984375 -13.28125 
L 4.203125 -13.28125 
Q 7.953125 -13.28125 10.59375 -11.234375 
Q 13.234375 -9.1875 16.5 -3.21875 
L 19.28125 2 
L 7.171875 54.6875 
L 16.703125 54.6875 
L 25.78125 12.796875 
L 50.875 54.6875 
L 60.296875 54.6875 
z
" id="DejaVuSans-Oblique-121"/>
       <path d="M 34.28125 27.484375 
Q 23.390625 27.484375 19.1875 25 
Q 14.984375 22.515625 14.984375 16.5 
Q 14.984375 11.71875 18.140625 8.90625 
Q 21.296875 6.109375 26.703125 6.109375 
Q 34.1875 6.109375 38.703125 11.40625 
Q 43.21875 16.703125 43.21875 25.484375 
L 43.21875 27.484375 
z
M 52.203125 31.203125 
L 52.203125 0 
L 43.21875 0 
L 43.21875 8.296875 
Q 40.140625 3.328125 35.546875 0.953125 
Q 30.953125 -1.421875 24.3125 -1.421875 
Q 15.921875 -1.421875 10.953125 3.296875 
Q 6 8.015625 6 15.921875 
Q 6 25.140625 12.171875 29.828125 
Q 18.359375 34.515625 30.609375 34.515625 
L 43.21875 34.515625 
L 43.21875 35.40625 
Q 43.21875 41.609375 39.140625 45 
Q 35.0625 48.390625 27.6875 48.390625 
Q 23 48.390625 18.546875 47.265625 
Q 14.109375 46.140625 10.015625 43.890625 
L 10.015625 52.203125 
Q 14.9375 54.109375 19.578125 55.046875 
Q 24.21875 56 28.609375 56 
Q 40.484375 56 46.34375 49.84375 
Q 52.203125 43.703125 52.203125 31.203125 
z
" id="DejaVuSans-97"/>
       <path d="M 18.3125 70.21875 
L 18.3125 54.6875 
L 36.8125 54.6875 
L 36.8125 47.703125 
L 18.3125 47.703125 
L 18.3125 18.015625 
Q 18.3125 11.328125 20.140625 9.421875 
Q 21.96875 7.515625 27.59375 7.515625 
L 36.8125 7.515625 
L 36.8125 0 
L 27.59375 0 
Q 17.1875 0 13.234375 3.875 
Q 9.28125 7.765625 9.28125 18.015625 
L 9.28125 47.703125 
L 2.6875 47.703125 
L 2.6875 54.6875 
L 9.28125 54.6875 
L 9.28125 70.21875 
z
" id="DejaVuSans-116"/>
       <path d="M 54.890625 33.015625 
L 54.890625 0 
L 45.90625 0 
L 45.90625 32.71875 
Q 45.90625 40.484375 42.875 44.328125 
Q 39.84375 48.1875 33.796875 48.1875 
Q 26.515625 48.1875 22.3125 43.546875 
Q 18.109375 38.921875 18.109375 30.90625 
L 18.109375 0 
L 9.078125 0 
L 9.078125 75.984375 
L 18.109375 75.984375 
L 18.109375 46.1875 
Q 21.34375 51.125 25.703125 53.5625 
Q 30.078125 56 35.796875 56 
Q 45.21875 56 50.046875 50.171875 
Q 54.890625 44.34375 54.890625 33.015625 
z
" id="DejaVuSans-104"/>
       <path d="M 37.109375 75.984375 
L 37.109375 68.5 
L 28.515625 68.5 
Q 23.6875 68.5 21.796875 66.546875 
Q 19.921875 64.59375 19.921875 59.515625 
L 19.921875 54.6875 
L 34.71875 54.6875 
L 34.71875 47.703125 
L 19.921875 47.703125 
L 19.921875 0 
L 10.890625 0 
L 10.890625 47.703125 
L 2.296875 47.703125 
L 2.296875 54.6875 
L 10.890625 54.6875 
L 10.890625 58.5 
Q 10.890625 67.625 15.140625 71.796875 
Q 19.390625 75.984375 28.609375 75.984375 
z
" id="DejaVuSans-102"/>
       <path d="M 30.609375 48.390625 
Q 23.390625 48.390625 19.1875 42.75 
Q 14.984375 37.109375 14.984375 27.296875 
Q 14.984375 17.484375 19.15625 11.84375 
Q 23.34375 6.203125 30.609375 6.203125 
Q 37.796875 6.203125 41.984375 11.859375 
Q 46.1875 17.53125 46.1875 27.296875 
Q 46.1875 37.015625 41.984375 42.703125 
Q 37.796875 48.390625 30.609375 48.390625 
z
M 30.609375 56 
Q 42.328125 56 49.015625 48.375 
Q 55.71875 40.765625 55.71875 27.296875 
Q 55.71875 13.875 49.015625 6.21875 
Q 42.328125 -1.421875 30.609375 -1.421875 
Q 18.84375 -1.421875 12.171875 6.21875 
Q 5.515625 13.875 5.515625 27.296875 
Q 5.515625 40.765625 12.171875 48.375 
Q 18.84375 56 30.609375 56 
z
" id="DejaVuSans-111"/>
       <path d="M 41.109375 46.296875 
Q 39.59375 47.171875 37.8125 47.578125 
Q 36.03125 48 33.890625 48 
Q 26.265625 48 22.1875 43.046875 
Q 18.109375 38.09375 18.109375 28.8125 
L 18.109375 0 
L 9.078125 0 
L 9.078125 54.6875 
L 18.109375 54.6875 
L 18.109375 46.1875 
Q 20.953125 51.171875 25.484375 53.578125 
Q 30.03125 56 36.53125 56 
Q 37.453125 56 38.578125 55.875 
Q 39.703125 55.765625 41.0625 55.515625 
z
" id="DejaVuSans-114"/>
       <path d="M 4.203125 54.6875 
L 13.1875 54.6875 
L 24.421875 12.015625 
L 35.59375 54.6875 
L 46.1875 54.6875 
L 57.421875 12.015625 
L 68.609375 54.6875 
L 77.59375 54.6875 
L 63.28125 0 
L 52.6875 0 
L 40.921875 44.828125 
L 29.109375 0 
L 18.5 0 
z
" id="DejaVuSans-119"/>
       <path d="M 54.890625 33.015625 
L 54.890625 0 
L 45.90625 0 
L 45.90625 32.71875 
Q 45.90625 40.484375 42.875 44.328125 
Q 39.84375 48.1875 33.796875 48.1875 
Q 26.515625 48.1875 22.3125 43.546875 
Q 18.109375 38.921875 18.109375 30.90625 
L 18.109375 0 
L 9.078125 0 
L 9.078125 54.6875 
L 18.109375 54.6875 
L 18.109375 46.1875 
Q 21.34375 51.125 25.703125 53.5625 
Q 30.078125 56 35.796875 56 
Q 45.21875 56 50.046875 50.171875 
Q 54.890625 44.34375 54.890625 33.015625 
z
" id="DejaVuSans-110"/>
       <path d="M 45.40625 27.984375 
Q 45.40625 37.75 41.375 43.109375 
Q 37.359375 48.484375 30.078125 48.484375 
Q 22.859375 48.484375 18.828125 43.109375 
Q 14.796875 37.75 14.796875 27.984375 
Q 14.796875 18.265625 18.828125 12.890625 
Q 22.859375 7.515625 30.078125 7.515625 
Q 37.359375 7.515625 41.375 12.890625 
Q 45.40625 18.265625 45.40625 27.984375 
z
M 54.390625 6.78125 
Q 54.390625 -7.171875 48.1875 -13.984375 
Q 42 -20.796875 29.203125 -20.796875 
Q 24.46875 -20.796875 20.265625 -20.09375 
Q 16.0625 -19.390625 12.109375 -17.921875 
L 12.109375 -9.1875 
Q 16.0625 -11.328125 19.921875 -12.34375 
Q 23.78125 -13.375 27.78125 -13.375 
Q 36.625 -13.375 41.015625 -8.765625 
Q 45.40625 -4.15625 45.40625 5.171875 
L 45.40625 9.625 
Q 42.625 4.78125 38.28125 2.390625 
Q 33.9375 0 27.875 0 
Q 17.828125 0 11.671875 7.65625 
Q 5.515625 15.328125 5.515625 27.984375 
Q 5.515625 40.671875 11.671875 48.328125 
Q 17.828125 56 27.875 56 
Q 33.9375 56 38.28125 53.609375 
Q 42.625 51.21875 45.40625 46.390625 
L 45.40625 54.6875 
L 54.390625 54.6875 
z
" id="DejaVuSans-103"/>
       <path d="M 16.890625 72.90625 
L 30.171875 72.90625 
L 50.296875 10.40625 
L 62.5 72.90625 
L 72.125 72.90625 
L 57.90625 0 
L 44.578125 0 
L 24.515625 62.890625 
L 12.3125 0 
L 2.6875 0 
z
" id="DejaVuSans-Oblique-78"/>
      </defs>
      <use transform="translate(0 0.015625)" xlink:href="#DejaVuSans-Oblique-70"/>
      <use transform="translate(57.519531 -16.390625)scale(0.7)" xlink:href="#DejaVuSans-Oblique-121"/>
      <use transform="translate(101.679688 0.015625)" xlink:href="#DejaVuSans-32"/>
      <use transform="translate(133.466797 0.015625)" xlink:href="#DejaVuSans-97"/>
      <use transform="translate(194.746094 0.015625)" xlink:href="#DejaVuSans-116"/>
      <use transform="translate(233.955078 0.015625)" xlink:href="#DejaVuSans-32"/>
      <use transform="translate(265.742188 0.015625)" xlink:href="#DejaVuSans-116"/>
      <use transform="translate(304.951172 0.015625)" xlink:href="#DejaVuSans-104"/>
      <use transform="translate(368.330078 0.015625)" xlink:href="#DejaVuSans-101"/>
      <use transform="translate(429.853516 0.015625)" xlink:href="#DejaVuSans-32"/>
      <use transform="translate(461.640625 0.015625)" xlink:href="#DejaVuSans-102"/>
      <use transform="translate(496.845703 0.015625)" xlink:href="#DejaVuSans-111"/>
      <use transform="translate(558.027344 0.015625)" xlink:href="#DejaVuSans-114"/>
      <use transform="translate(599.140625 0.015625)" xlink:href="#DejaVuSans-101"/>
      <use transform="translate(660.664062 0.015625)" xlink:href="#DejaVuSans-119"/>
      <use transform="translate(742.451172 0.015625)" xlink:href="#DejaVuSans-105"/>
      <use transform="translate(770.234375 0.015625)" xlink:href="#DejaVuSans-110"/>
      <use transform="translate(833.613281 0.015625)" xlink:href="#DejaVuSans-103"/>
      <use transform="translate(897.089844 0.015625)" xlink:href="#DejaVuSans-32"/>
      <use transform="translate(928.876953 0.015625)" xlink:href="#DejaVuSans-114"/>
      <use transform="translate(969.990234 0.015625)" xlink:href="#DejaVuSans-111"/>
      <use transform="translate(1031.171875 0.015625)" xlink:href="#DejaVuSans-111"/>
      <use transform="translate(1092.353516 0.015625)" xlink:href="#DejaVuSans-116"/>
      <use transform="translate(1131.5625 0.015625)" xlink:href="#DejaVuSans-32"/>
      <use transform="translate(1163.349609 0.015625)" xlink:href="#DejaVuSans-40"/>
      <use transform="translate(1202.363281 0.015625)" xlink:href="#DejaVuSans-Oblique-78"/>
      <use transform="translate(1277.167969 0.015625)" xlink:href="#DejaVuSans-41"/>
     </g>
    </g>
   </g>
   <g id="patch_3">
    <path d="M 59.562041 258.225354 
L 59.562041 2.834646 
" style="fill:none;stroke:#000000;stroke-linecap:square;stroke-linejoin:miter;"/>
   </g>
   <g id="patch_4">
    <path d="M 59.562041 258.225354 
L 419.805777 258.225354 
" style="fill:none;stroke:#000000;stroke-linecap:square;stroke-linejoin:miter;"/>
   </g>
  </g>
 </g>
 <defs>
  <clipPath id="p4f4ae1b5b2">
   <rect height="255.390709" width="360.243737" x="59.562041" y="2.834646"/>
  </clipPath>
 </defs>
</svg>
