<?xml version="1.0" encoding="utf-8" standalone="no"?>
<!DOCTYPE svg PUBLIC "-//W3C//DTD SVG 1.1//EN"
  "http://www.w3.org/Graphics/SVG/1.1/DTD/svg11.dtd">
<!-- Created with matplotlib (https://matplotlib.org/) -->
<svg height="288pt" version="1.1" viewBox="0 0 432 288" width="432pt" xmlns="http://www.w3.org/2000/svg" xmlns:xlink="http://www.w3.org/1999/xlink">
 <metadata>
  <rdf:RDF xmlns:cc="http://creativecommons.org/ns#" xmlns:dc="http://purl.org/dc/elements/1.1/" xmlns:rdf="http://www.w3.org/1999/02/22-rdf-syntax-ns#">
   <cc:Work>
    <dc:type rdf:resource="http://purl.org/dc/dcmitype/StillImage"/>
    <dc:date>2021-06-08T21:23:36.047168</dc:date>
    <dc:format>image/svg+xml</dc:format>
    <dc:creator>
     <cc:Agent>
      <dc:title>Matplotlib v3.3.4, https://matplotlib.org/</dc:title>
     </cc:Agent>
    </dc:creator>
   </cc:Work>
  </rdf:RDF>
 </metadata>
 <defs>
  <style type="text/css">*{stroke-linecap:butt;stroke-linejoin:round;}</style>
 </defs>
 <g id="figure_1">
  <g id="patch_1">
   <path d="M 0 288 
L 432 288 
L 432 0 
L 0 0 
z
" style="fill:#ffffff;"/>
  </g>
  <g id="axes_1">
   <g id="patch_2">
    <path d="M 29.556396 258.225354 
L 422.361999 258.225354 
L 422.361999 2.834646 
L 29.556396 2.834646 
z
" style="fill:#ffffff;"/>
   </g>
   <g id="line2d_1">
    <path clip-path="url(#p0dfeb71f87)" d="M 29.556396 250.997315 
L 31.127618 250.903383 
L 32.502438 250.572231 
L 33.680855 250.067157 
L 34.859271 249.301604 
L 36.037688 248.238358 
L 37.412508 246.67989 
L 38.590925 245.063499 
L 39.769341 243.11456 
L 41.144161 240.440961 
L 42.715383 236.941399 
L 44.483009 232.462766 
L 47.232648 224.838906 
L 49.982287 216.459102 
L 53.71394 204.281859 
L 56.46358 195.751029 
L 58.427608 190.308886 
L 60.195233 186.043159 
L 61.766455 182.781154 
L 63.141275 180.478343 
L 64.516094 178.668312 
L 65.694511 177.455438 
L 66.872928 176.554761 
L 68.247748 175.817889 
L 69.622567 175.334149 
L 70.800984 175.182553 
L 71.782998 175.273571 
L 72.961415 175.613688 
L 73.943429 176.09297 
L 75.121846 176.949045 
L 76.496665 178.302759 
L 78.067888 180.218215 
L 79.442707 182.272246 
L 81.210333 185.397812 
L 83.174361 189.30915 
L 86.906014 196.908069 
L 89.066445 200.682017 
L 90.637667 203.010126 
L 92.405292 205.262553 
L 93.583709 206.459517 
L 94.565723 207.191765 
L 95.547737 207.680325 
L 96.529751 207.920165 
L 97.315362 207.902619 
L 98.100973 207.680899 
L 99.082987 207.135325 
L 100.065002 206.306289 
L 101.047016 205.17801 
L 102.02903 203.702316 
L 103.207446 201.443521 
L 104.582266 198.205806 
L 105.957086 194.365582 
L 107.921114 188.074447 
L 112.634781 171.960853 
L 116.170031 160.411871 
L 118.134059 154.7417 
L 120.098087 149.775979 
L 121.66931 146.379291 
L 123.240532 143.468927 
L 124.418949 141.658068 
L 125.400963 140.498333 
L 126.186574 139.850511 
L 126.972185 139.455197 
L 127.757797 139.32798 
L 128.347005 139.419317 
L 129.132616 139.808274 
L 129.918227 140.491467 
L 130.900241 141.720355 
L 132.078658 143.650428 
L 133.257075 146.017431 
L 134.631895 149.281299 
L 136.595923 154.533498 
L 142.095201 169.660155 
L 144.059229 174.232792 
L 146.612466 179.527078 
L 148.380091 182.773475 
L 149.951313 185.200894 
L 151.522536 187.225229 
L 152.897355 188.624533 
L 154.075772 189.536187 
L 155.057786 190.078886 
L 155.843397 190.315986 
L 156.629008 190.308339 
L 157.41462 190.006651 
L 158.200231 189.377692 
L 158.985842 188.40178 
L 159.771453 187.06068 
L 160.753467 184.849902 
L 161.735481 182.075465 
L 163.110301 177.439824 
L 164.681523 171.346904 
L 166.645551 162.801182 
L 169.591593 148.839896 
L 172.14483 137.002017 
L 174.305261 128.131076 
L 178.822525 111.041858 
L 180.982956 103.341491 
L 182.357775 99.26901 
L 183.339789 96.973208 
L 184.321803 95.269505 
L 185.107415 94.324022 
L 185.893026 93.697689 
L 186.678637 93.350715 
L 187.464248 93.252421 
L 188.24986 93.395057 
L 189.035471 93.770843 
L 189.821082 94.373809 
L 190.803096 95.446679 
L 191.78511 96.913814 
L 192.767124 98.862452 
L 193.749138 101.332173 
L 195.123958 105.456529 
L 197.677194 113.977482 
L 199.444819 120.520595 
L 200.819639 126.490873 
L 201.998056 132.606261 
L 203.765681 143.179726 
L 207.300931 164.56599 
L 209.068556 173.80928 
L 211.228987 183.860561 
L 212.80021 190.170888 
L 214.567835 196.284357 
L 215.746252 199.684858 
L 216.728266 201.806089 
L 217.513877 202.984377 
L 218.299488 203.798052 
L 219.477905 204.65397 
L 221.834739 206.210798 
L 223.405961 207.650981 
L 224.191572 208.265166 
L 224.780781 208.473285 
L 225.173586 208.431923 
L 225.566392 208.221114 
L 226.1556 207.563447 
L 226.744809 206.494434 
L 227.53042 204.448203 
L 228.316031 201.682134 
L 229.101642 198.150224 
L 230.083656 192.69475 
L 231.654879 182.461427 
L 234.011712 165.824768 
L 236.368546 147.403152 
L 238.528977 128.872928 
L 240.689408 110.519348 
L 242.653436 95.79761 
L 244.617464 82.692764 
L 247.563506 64.668053 
L 248.741922 58.868667 
L 249.723936 55.09227 
L 251.098756 50.793369 
L 255.616021 37.323109 
L 256.794437 33.908447 
L 257.383646 32.716255 
L 257.972854 32.006577 
L 258.36566 31.817452 
L 258.758465 31.840269 
L 259.151271 32.054463 
L 259.740479 32.666545 
L 260.329688 33.578238 
L 261.115299 35.217332 
L 262.097313 37.92685 
L 263.27573 42.004663 
L 265.043355 48.988294 
L 266.418175 55.284249 
L 267.989397 63.819923 
L 271.72105 84.434627 
L 272.899467 89.66148 
L 278.00594 110.452825 
L 279.773565 117.828571 
L 280.755579 121.042588 
L 281.54119 122.929943 
L 282.523204 124.627383 
L 284.683635 127.992054 
L 285.469246 129.711945 
L 286.45126 132.499223 
L 287.629677 136.656996 
L 289.2009 142.191087 
L 289.790108 143.675874 
L 290.379316 144.604153 
L 290.772122 144.874262 
L 291.164928 144.846673 
L 291.557733 144.509627 
L 291.950539 143.85006 
L 292.539747 142.249875 
L 293.128956 139.911297 
L 293.914567 135.765195 
L 295.485789 125.648301 
L 296.860609 117.387915 
L 298.235429 110.492316 
L 301.181471 96.615068 
L 302.163485 90.311934 
L 305.109527 69.952913 
L 306.287943 64.095514 
L 307.269957 60.25186 
L 309.430388 52.629513 
L 310.019597 49.170561 
L 311.001611 41.702781 
L 312.965639 26.386628 
L 314.340458 17.605214 
L 315.126069 13.642144 
L 315.715278 11.553369 
L 316.108083 10.711523 
L 316.500889 10.351179 
L 316.697292 10.350257 
L 317.090097 10.680522 
L 317.679306 11.808833 
L 319.054125 14.991037 
L 319.643334 15.803511 
L 320.232542 16.187383 
L 320.821751 16.265233 
L 321.607362 16.082803 
L 322.589376 15.618299 
L 323.178584 15.133344 
L 323.767793 14.362066 
L 324.749807 12.902709 
L 325.142612 12.625779 
L 325.535418 12.700887 
L 325.928224 13.213382 
L 326.321029 14.19484 
L 326.910238 16.511356 
L 327.695849 20.822326 
L 329.070668 30.050218 
L 332.213113 51.211713 
L 333.587933 58.441294 
L 334.962752 65.948176 
L 336.92678 78.281605 
L 338.105197 86.660193 
L 340.265628 102.937624 
L 341.444045 109.342248 
L 343.800879 120.552642 
L 344.979295 124.750566 
L 345.961309 128.444394 
L 346.746921 132.394122 
L 348.318143 140.786493 
L 349.103754 143.600995 
L 350.282171 146.67235 
L 351.264185 148.908714 
L 351.656991 149.447446 
L 352.049796 149.651298 
L 352.442602 149.454612 
L 352.835407 148.842337 
L 353.424616 147.333134 
L 354.40663 144.682638 
L 354.799435 144.049329 
L 355.192241 143.789373 
L 355.585047 143.840366 
L 356.370658 144.064228 
L 356.763463 143.874071 
L 357.352672 143.181403 
L 358.138283 141.792296 
L 358.923894 140.491159 
L 359.3167 140.262852 
L 359.905908 140.364199 
L 360.298714 140.400078 
L 360.691519 140.146731 
L 361.084325 139.501855 
L 361.477131 138.454992 
L 362.066339 136.153355 
L 363.441159 129.989419 
L 364.030367 128.450402 
L 365.208784 125.927551 
L 365.797992 123.575747 
L 366.583604 118.966828 
L 367.565618 113.295464 
L 368.154826 111.064594 
L 369.333243 107.267921 
L 369.922451 103.919769 
L 370.904465 96.236861 
L 371.886479 89.19894 
L 372.868493 84.26391 
L 373.457702 80.995558 
L 374.04691 76.702548 
L 376.207341 58.938521 
L 376.796549 56.335238 
L 379.742591 46.138769 
L 380.135397 45.743652 
L 380.528202 45.781617 
L 380.921008 46.155787 
L 382.295828 48.092822 
L 382.688633 48.075506 
L 383.081439 47.671959 
L 383.670647 46.923865 
L 384.063453 46.702598 
L 384.652661 46.769385 
L 385.24187 47.026864 
L 385.634675 47.428177 
L 387.009495 49.456844 
L 387.795106 49.75042 
L 388.187912 50.192588 
L 388.77712 51.254976 
L 389.366329 52.711968 
L 389.955537 54.953819 
L 391.133954 60.19112 
L 392.705176 65.625201 
L 393.490787 69.296967 
L 394.276399 74.458027 
L 396.044024 87.090097 
L 397.418843 96.600943 
L 398.793663 108.526708 
L 399.579274 114.936774 
L 400.561288 120.506056 
L 401.739705 127.129241 
L 402.525316 133.548991 
L 404.096539 146.695263 
L 406.453372 162.429153 
L 407.631789 171.442822 
L 408.220998 174.864432 
L 410.381428 185.078819 
L 412.149054 197.24882 
L 412.934665 200.989761 
L 416.07711 212.441696 
L 416.469915 212.813653 
L 416.862721 212.612193 
L 417.451929 211.886537 
L 418.630346 210.133248 
L 419.023152 210.012229 
L 419.808763 210.077286 
L 420.201568 209.754676 
L 420.594374 209.060868 
L 421.183582 207.395931 
L 421.969194 204.175708 
L 422.361999 202.501649 
L 422.361999 202.501649 
" style="fill:none;stroke:#009afa;"/>
   </g>
   <g id="matplotlib.axis_1">
    <g id="xtick_1">
     <g id="line2d_2">
      <defs>
       <path d="M 0 0 
L 0 -2.5 
" id="m3d4df54d35" style="stroke:#000000;stroke-width:0.5;"/>
      </defs>
      <g>
       <use style="stroke:#000000;stroke-width:0.5;" x="29.556396" xlink:href="#m3d4df54d35" y="258.225354"/>
      </g>
     </g>
     <g id="text_1">
      <!-- $\mathregular{0.0}$ -->
      <g transform="translate(23.156396 267.804104)scale(0.08 -0.08)">
       <defs>
        <path d="M 31.78125 66.40625 
Q 24.171875 66.40625 20.328125 58.90625 
Q 16.5 51.421875 16.5 36.375 
Q 16.5 21.390625 20.328125 13.890625 
Q 24.171875 6.390625 31.78125 6.390625 
Q 39.453125 6.390625 43.28125 13.890625 
Q 47.125 21.390625 47.125 36.375 
Q 47.125 51.421875 43.28125 58.90625 
Q 39.453125 66.40625 31.78125 66.40625 
z
M 31.78125 74.21875 
Q 44.046875 74.21875 50.515625 64.515625 
Q 56.984375 54.828125 56.984375 36.375 
Q 56.984375 17.96875 50.515625 8.265625 
Q 44.046875 -1.421875 31.78125 -1.421875 
Q 19.53125 -1.421875 13.0625 8.265625 
Q 6.59375 17.96875 6.59375 36.375 
Q 6.59375 54.828125 13.0625 64.515625 
Q 19.53125 74.21875 31.78125 74.21875 
z
" id="DejaVuSans-48"/>
        <path d="M 10.6875 12.40625 
L 21 12.40625 
L 21 0 
L 10.6875 0 
z
" id="DejaVuSans-46"/>
       </defs>
       <use transform="translate(0 0.78125)" xlink:href="#DejaVuSans-48"/>
       <use transform="translate(63.623047 0.78125)" xlink:href="#DejaVuSans-46"/>
       <use transform="translate(95.410156 0.78125)" xlink:href="#DejaVuSans-48"/>
      </g>
     </g>
    </g>
    <g id="xtick_2">
     <g id="line2d_3">
      <g>
       <use style="stroke:#000000;stroke-width:0.5;" x="127.757797" xlink:href="#m3d4df54d35" y="258.225354"/>
      </g>
     </g>
     <g id="text_2">
      <!-- $\mathregular{0.5}$ -->
      <g transform="translate(121.357797 267.804104)scale(0.08 -0.08)">
       <defs>
        <path d="M 10.796875 72.90625 
L 49.515625 72.90625 
L 49.515625 64.59375 
L 19.828125 64.59375 
L 19.828125 46.734375 
Q 21.96875 47.46875 24.109375 47.828125 
Q 26.265625 48.1875 28.421875 48.1875 
Q 40.625 48.1875 47.75 41.5 
Q 54.890625 34.8125 54.890625 23.390625 
Q 54.890625 11.625 47.5625 5.09375 
Q 40.234375 -1.421875 26.90625 -1.421875 
Q 22.3125 -1.421875 17.546875 -0.640625 
Q 12.796875 0.140625 7.71875 1.703125 
L 7.71875 11.625 
Q 12.109375 9.234375 16.796875 8.0625 
Q 21.484375 6.890625 26.703125 6.890625 
Q 35.15625 6.890625 40.078125 11.328125 
Q 45.015625 15.765625 45.015625 23.390625 
Q 45.015625 31 40.078125 35.4375 
Q 35.15625 39.890625 26.703125 39.890625 
Q 22.75 39.890625 18.8125 39.015625 
Q 14.890625 38.140625 10.796875 36.28125 
z
" id="DejaVuSans-53"/>
       </defs>
       <use transform="translate(0 0.78125)" xlink:href="#DejaVuSans-48"/>
       <use transform="translate(63.623047 0.78125)" xlink:href="#DejaVuSans-46"/>
       <use transform="translate(95.410156 0.78125)" xlink:href="#DejaVuSans-53"/>
      </g>
     </g>
    </g>
    <g id="xtick_3">
     <g id="line2d_4">
      <g>
       <use style="stroke:#000000;stroke-width:0.5;" x="225.959197" xlink:href="#m3d4df54d35" y="258.225354"/>
      </g>
     </g>
     <g id="text_3">
      <!-- $\mathregular{1.0}$ -->
      <g transform="translate(219.559197 267.804104)scale(0.08 -0.08)">
       <defs>
        <path d="M 12.40625 8.296875 
L 28.515625 8.296875 
L 28.515625 63.921875 
L 10.984375 60.40625 
L 10.984375 69.390625 
L 28.421875 72.90625 
L 38.28125 72.90625 
L 38.28125 8.296875 
L 54.390625 8.296875 
L 54.390625 0 
L 12.40625 0 
z
" id="DejaVuSans-49"/>
       </defs>
       <use transform="translate(0 0.78125)" xlink:href="#DejaVuSans-49"/>
       <use transform="translate(63.623047 0.78125)" xlink:href="#DejaVuSans-46"/>
       <use transform="translate(95.410156 0.78125)" xlink:href="#DejaVuSans-48"/>
      </g>
     </g>
    </g>
    <g id="xtick_4">
     <g id="line2d_5">
      <g>
       <use style="stroke:#000000;stroke-width:0.5;" x="324.160598" xlink:href="#m3d4df54d35" y="258.225354"/>
      </g>
     </g>
     <g id="text_4">
      <!-- $\mathregular{1.5}$ -->
      <g transform="translate(317.760598 267.804104)scale(0.08 -0.08)">
       <use transform="translate(0 0.09375)" xlink:href="#DejaVuSans-49"/>
       <use transform="translate(63.623047 0.09375)" xlink:href="#DejaVuSans-46"/>
       <use transform="translate(95.410156 0.09375)" xlink:href="#DejaVuSans-53"/>
      </g>
     </g>
    </g>
    <g id="xtick_5">
     <g id="line2d_6">
      <g>
       <use style="stroke:#000000;stroke-width:0.5;" x="422.361999" xlink:href="#m3d4df54d35" y="258.225354"/>
      </g>
     </g>
     <g id="text_5">
      <!-- $\mathregular{2.0}$ -->
      <g transform="translate(415.961999 267.804104)scale(0.08 -0.08)">
       <defs>
        <path d="M 19.1875 8.296875 
L 53.609375 8.296875 
L 53.609375 0 
L 7.328125 0 
L 7.328125 8.296875 
Q 12.9375 14.109375 22.625 23.890625 
Q 32.328125 33.6875 34.8125 36.53125 
Q 39.546875 41.84375 41.421875 45.53125 
Q 43.3125 49.21875 43.3125 52.78125 
Q 43.3125 58.59375 39.234375 62.25 
Q 35.15625 65.921875 28.609375 65.921875 
Q 23.96875 65.921875 18.8125 64.3125 
Q 13.671875 62.703125 7.8125 59.421875 
L 7.8125 69.390625 
Q 13.765625 71.78125 18.9375 73 
Q 24.125 74.21875 28.421875 74.21875 
Q 39.75 74.21875 46.484375 68.546875 
Q 53.21875 62.890625 53.21875 53.421875 
Q 53.21875 48.921875 51.53125 44.890625 
Q 49.859375 40.875 45.40625 35.40625 
Q 44.1875 33.984375 37.640625 27.21875 
Q 31.109375 20.453125 19.1875 8.296875 
z
" id="DejaVuSans-50"/>
       </defs>
       <use transform="translate(0 0.78125)" xlink:href="#DejaVuSans-50"/>
       <use transform="translate(63.623047 0.78125)" xlink:href="#DejaVuSans-46"/>
       <use transform="translate(95.410156 0.78125)" xlink:href="#DejaVuSans-48"/>
      </g>
     </g>
    </g>
    <g id="text_6">
     <!-- Time (s) -->
     <g transform="translate(203.597401 281.826136)scale(0.11 -0.11)">
      <defs>
       <path d="M -0.296875 72.90625 
L 61.375 72.90625 
L 61.375 64.59375 
L 35.5 64.59375 
L 35.5 0 
L 25.59375 0 
L 25.59375 64.59375 
L -0.296875 64.59375 
z
" id="DejaVuSans-84"/>
       <path d="M 9.421875 54.6875 
L 18.40625 54.6875 
L 18.40625 0 
L 9.421875 0 
z
M 9.421875 75.984375 
L 18.40625 75.984375 
L 18.40625 64.59375 
L 9.421875 64.59375 
z
" id="DejaVuSans-105"/>
       <path d="M 52 44.1875 
Q 55.375 50.25 60.0625 53.125 
Q 64.75 56 71.09375 56 
Q 79.640625 56 84.28125 50.015625 
Q 88.921875 44.046875 88.921875 33.015625 
L 88.921875 0 
L 79.890625 0 
L 79.890625 32.71875 
Q 79.890625 40.578125 77.09375 44.375 
Q 74.3125 48.1875 68.609375 48.1875 
Q 61.625 48.1875 57.5625 43.546875 
Q 53.515625 38.921875 53.515625 30.90625 
L 53.515625 0 
L 44.484375 0 
L 44.484375 32.71875 
Q 44.484375 40.625 41.703125 44.40625 
Q 38.921875 48.1875 33.109375 48.1875 
Q 26.21875 48.1875 22.15625 43.53125 
Q 18.109375 38.875 18.109375 30.90625 
L 18.109375 0 
L 9.078125 0 
L 9.078125 54.6875 
L 18.109375 54.6875 
L 18.109375 46.1875 
Q 21.1875 51.21875 25.484375 53.609375 
Q 29.78125 56 35.6875 56 
Q 41.65625 56 45.828125 52.96875 
Q 50 49.953125 52 44.1875 
z
" id="DejaVuSans-109"/>
       <path d="M 56.203125 29.59375 
L 56.203125 25.203125 
L 14.890625 25.203125 
Q 15.484375 15.921875 20.484375 11.0625 
Q 25.484375 6.203125 34.421875 6.203125 
Q 39.59375 6.203125 44.453125 7.46875 
Q 49.3125 8.734375 54.109375 11.28125 
L 54.109375 2.78125 
Q 49.265625 0.734375 44.1875 -0.34375 
Q 39.109375 -1.421875 33.890625 -1.421875 
Q 20.796875 -1.421875 13.15625 6.1875 
Q 5.515625 13.8125 5.515625 26.8125 
Q 5.515625 40.234375 12.765625 48.109375 
Q 20.015625 56 32.328125 56 
Q 43.359375 56 49.78125 48.890625 
Q 56.203125 41.796875 56.203125 29.59375 
z
M 47.21875 32.234375 
Q 47.125 39.59375 43.09375 43.984375 
Q 39.0625 48.390625 32.421875 48.390625 
Q 24.90625 48.390625 20.390625 44.140625 
Q 15.875 39.890625 15.1875 32.171875 
z
" id="DejaVuSans-101"/>
       <path id="DejaVuSans-32"/>
       <path d="M 31 75.875 
Q 24.46875 64.65625 21.28125 53.65625 
Q 18.109375 42.671875 18.109375 31.390625 
Q 18.109375 20.125 21.3125 9.0625 
Q 24.515625 -2 31 -13.1875 
L 23.1875 -13.1875 
Q 15.875 -1.703125 12.234375 9.375 
Q 8.59375 20.453125 8.59375 31.390625 
Q 8.59375 42.28125 12.203125 53.3125 
Q 15.828125 64.359375 23.1875 75.875 
z
" id="DejaVuSans-40"/>
       <path d="M 44.28125 53.078125 
L 44.28125 44.578125 
Q 40.484375 46.53125 36.375 47.5 
Q 32.28125 48.484375 27.875 48.484375 
Q 21.1875 48.484375 17.84375 46.4375 
Q 14.5 44.390625 14.5 40.28125 
Q 14.5 37.15625 16.890625 35.375 
Q 19.28125 33.59375 26.515625 31.984375 
L 29.59375 31.296875 
Q 39.15625 29.25 43.1875 25.515625 
Q 47.21875 21.78125 47.21875 15.09375 
Q 47.21875 7.46875 41.1875 3.015625 
Q 35.15625 -1.421875 24.609375 -1.421875 
Q 20.21875 -1.421875 15.453125 -0.5625 
Q 10.6875 0.296875 5.421875 2 
L 5.421875 11.28125 
Q 10.40625 8.6875 15.234375 7.390625 
Q 20.0625 6.109375 24.8125 6.109375 
Q 31.15625 6.109375 34.5625 8.28125 
Q 37.984375 10.453125 37.984375 14.40625 
Q 37.984375 18.0625 35.515625 20.015625 
Q 33.0625 21.96875 24.703125 23.78125 
L 21.578125 24.515625 
Q 13.234375 26.265625 9.515625 29.90625 
Q 5.8125 33.546875 5.8125 39.890625 
Q 5.8125 47.609375 11.28125 51.796875 
Q 16.75 56 26.8125 56 
Q 31.78125 56 36.171875 55.265625 
Q 40.578125 54.546875 44.28125 53.078125 
z
" id="DejaVuSans-115"/>
       <path d="M 8.015625 75.875 
L 15.828125 75.875 
Q 23.140625 64.359375 26.78125 53.3125 
Q 30.421875 42.28125 30.421875 31.390625 
Q 30.421875 20.453125 26.78125 9.375 
Q 23.140625 -1.703125 15.828125 -13.1875 
L 8.015625 -13.1875 
Q 14.5 -2 17.703125 9.0625 
Q 20.90625 20.125 20.90625 31.390625 
Q 20.90625 42.671875 17.703125 53.65625 
Q 14.5 64.65625 8.015625 75.875 
z
" id="DejaVuSans-41"/>
      </defs>
      <use xlink:href="#DejaVuSans-84"/>
      <use x="57.958984" xlink:href="#DejaVuSans-105"/>
      <use x="85.742188" xlink:href="#DejaVuSans-109"/>
      <use x="183.154297" xlink:href="#DejaVuSans-101"/>
      <use x="244.677734" xlink:href="#DejaVuSans-32"/>
      <use x="276.464844" xlink:href="#DejaVuSans-40"/>
      <use x="315.478516" xlink:href="#DejaVuSans-115"/>
      <use x="367.578125" xlink:href="#DejaVuSans-41"/>
     </g>
    </g>
   </g>
   <g id="matplotlib.axis_2">
    <g id="ytick_1">
     <g id="line2d_7">
      <defs>
       <path d="M 0 0 
L 2.5 0 
" id="m85bc6bc4df" style="stroke:#000000;stroke-width:0.5;"/>
      </defs>
      <g>
       <use style="stroke:#000000;stroke-width:0.5;" x="29.556396" xlink:href="#m85bc6bc4df" y="250.997315"/>
      </g>
     </g>
     <g id="text_7">
      <!-- $\mathregular{0}$ -->
      <g transform="translate(20.936396 254.03669)scale(0.08 -0.08)">
       <use transform="translate(0 0.78125)" xlink:href="#DejaVuSans-48"/>
      </g>
     </g>
    </g>
    <g id="ytick_2">
     <g id="line2d_8">
      <g>
       <use style="stroke:#000000;stroke-width:0.5;" x="29.556396" xlink:href="#m85bc6bc4df" y="188.810109"/>
      </g>
     </g>
     <g id="text_8">
      <!-- $\mathregular{1}$ -->
      <g transform="translate(20.936396 191.849484)scale(0.08 -0.08)">
       <use transform="translate(0 0.09375)" xlink:href="#DejaVuSans-49"/>
      </g>
     </g>
    </g>
    <g id="ytick_3">
     <g id="line2d_9">
      <g>
       <use style="stroke:#000000;stroke-width:0.5;" x="29.556396" xlink:href="#m85bc6bc4df" y="126.622902"/>
      </g>
     </g>
     <g id="text_9">
      <!-- $\mathregular{2}$ -->
      <g transform="translate(20.936396 129.662277)scale(0.08 -0.08)">
       <use transform="translate(0 0.78125)" xlink:href="#DejaVuSans-50"/>
      </g>
     </g>
    </g>
    <g id="ytick_4">
     <g id="line2d_10">
      <g>
       <use style="stroke:#000000;stroke-width:0.5;" x="29.556396" xlink:href="#m85bc6bc4df" y="64.435696"/>
      </g>
     </g>
     <g id="text_10">
      <!-- $\mathregular{3}$ -->
      <g transform="translate(20.936396 67.475071)scale(0.08 -0.08)">
       <defs>
        <path d="M 40.578125 39.3125 
Q 47.65625 37.796875 51.625 33 
Q 55.609375 28.21875 55.609375 21.1875 
Q 55.609375 10.40625 48.1875 4.484375 
Q 40.765625 -1.421875 27.09375 -1.421875 
Q 22.515625 -1.421875 17.65625 -0.515625 
Q 12.796875 0.390625 7.625 2.203125 
L 7.625 11.71875 
Q 11.71875 9.328125 16.59375 8.109375 
Q 21.484375 6.890625 26.8125 6.890625 
Q 36.078125 6.890625 40.9375 10.546875 
Q 45.796875 14.203125 45.796875 21.1875 
Q 45.796875 27.640625 41.28125 31.265625 
Q 36.765625 34.90625 28.71875 34.90625 
L 20.21875 34.90625 
L 20.21875 43.015625 
L 29.109375 43.015625 
Q 36.375 43.015625 40.234375 45.921875 
Q 44.09375 48.828125 44.09375 54.296875 
Q 44.09375 59.90625 40.109375 62.90625 
Q 36.140625 65.921875 28.71875 65.921875 
Q 24.65625 65.921875 20.015625 65.03125 
Q 15.375 64.15625 9.8125 62.3125 
L 9.8125 71.09375 
Q 15.4375 72.65625 20.34375 73.4375 
Q 25.25 74.21875 29.59375 74.21875 
Q 40.828125 74.21875 47.359375 69.109375 
Q 53.90625 64.015625 53.90625 55.328125 
Q 53.90625 49.265625 50.4375 45.09375 
Q 46.96875 40.921875 40.578125 39.3125 
z
" id="DejaVuSans-51"/>
       </defs>
       <use transform="translate(0 0.78125)" xlink:href="#DejaVuSans-51"/>
      </g>
     </g>
    </g>
    <g id="text_11">
     <!-- $u_z$ ($m$) -->
     <g transform="translate(14.648739 147.635)rotate(-90)scale(0.11 -0.11)">
      <defs>
       <path d="M 6.6875 21.6875 
L 13.09375 54.6875 
L 22.125 54.6875 
L 15.71875 22.015625 
Q 15.234375 19.625 15.015625 17.921875 
Q 14.796875 16.21875 14.796875 15.09375 
Q 14.796875 10.9375 17.328125 8.65625 
Q 19.875 6.390625 24.515625 6.390625 
Q 31.734375 6.390625 37 11.265625 
Q 42.28125 16.15625 43.890625 24.421875 
L 49.90625 54.6875 
L 58.890625 54.6875 
L 48.296875 0 
L 39.3125 0 
L 41.109375 8.59375 
Q 37.3125 3.8125 32.0625 1.1875 
Q 26.8125 -1.421875 20.90625 -1.421875 
Q 13.71875 -1.421875 9.71875 2.515625 
Q 5.71875 6.453125 5.71875 13.484375 
Q 5.71875 14.9375 5.953125 17.140625 
Q 6.203125 19.34375 6.6875 21.6875 
z
" id="DejaVuSans-Oblique-117"/>
       <path d="M 11.625 54.6875 
L 54.296875 54.6875 
L 52.6875 46.484375 
L 11.53125 7.171875 
L 45.515625 7.171875 
L 44.09375 0 
L -0.296875 0 
L 1.3125 8.203125 
L 42.484375 47.515625 
L 10.203125 47.515625 
z
" id="DejaVuSans-Oblique-122"/>
       <path d="M 89.796875 33.015625 
L 83.40625 0 
L 74.421875 0 
L 80.71875 32.71875 
Q 81.109375 34.8125 81.296875 36.328125 
Q 81.5 37.84375 81.5 38.921875 
Q 81.5 43.3125 79.046875 45.75 
Q 76.609375 48.1875 72.21875 48.1875 
Q 65.671875 48.1875 60.546875 43.28125 
Q 55.421875 38.375 53.90625 30.515625 
L 47.90625 0 
L 38.921875 0 
L 45.3125 32.71875 
Q 45.703125 34.515625 45.890625 36.046875 
Q 46.09375 37.59375 46.09375 38.8125 
Q 46.09375 43.265625 43.65625 45.71875 
Q 41.21875 48.1875 36.921875 48.1875 
Q 30.28125 48.1875 25.140625 43.28125 
Q 20.015625 38.375 18.5 30.515625 
L 12.5 0 
L 3.515625 0 
L 14.203125 54.6875 
L 23.1875 54.6875 
L 21.484375 46.1875 
Q 25.140625 50.984375 30.046875 53.484375 
Q 34.96875 56 40.578125 56 
Q 46.53125 56 50.359375 52.875 
Q 54.203125 49.75 54.984375 44.1875 
Q 59.078125 49.953125 64.46875 52.96875 
Q 69.875 56 75.875 56 
Q 82.90625 56 86.734375 51.953125 
Q 90.578125 47.90625 90.578125 40.484375 
Q 90.578125 38.875 90.375 36.9375 
Q 90.1875 35.015625 89.796875 33.015625 
z
" id="DejaVuSans-Oblique-109"/>
      </defs>
      <use transform="translate(0 0.125)" xlink:href="#DejaVuSans-Oblique-117"/>
      <use transform="translate(63.378906 -16.28125)scale(0.7)" xlink:href="#DejaVuSans-Oblique-122"/>
      <use transform="translate(102.856445 0.125)" xlink:href="#DejaVuSans-32"/>
      <use transform="translate(134.643555 0.125)" xlink:href="#DejaVuSans-40"/>
      <use transform="translate(173.657227 0.125)" xlink:href="#DejaVuSans-Oblique-109"/>
      <use transform="translate(271.069336 0.125)" xlink:href="#DejaVuSans-41"/>
     </g>
    </g>
   </g>
   <g id="line2d_11">
    <path clip-path="url(#p0dfeb71f87)" d="M 29.556396 250.997315 
L 31.226411 250.887919 
L 32.519918 250.565 
L 33.766784 250.020087 
L 34.921207 249.253082 
L 36.168718 248.10291 
L 37.57327 246.476299 
L 38.90686 244.575028 
L 40.1671 242.380548 
L 41.72715 239.198316 
L 43.328414 235.44532 
L 45.572901 229.519668 
L 48.022623 222.502956 
L 50.943884 213.391464 
L 56.584422 195.388969 
L 58.504826 190.115903 
L 60.389434 185.601222 
L 61.764701 182.780966 
L 63.063347 180.597239 
L 64.36622 178.841721 
L 65.574099 177.562812 
L 66.667931 176.696692 
L 68.071075 175.894979 
L 69.321353 175.405746 
L 70.533568 175.18954 
L 71.58949 175.239598 
L 72.749522 175.524321 
L 73.761198 175.981596 
L 74.796419 176.686599 
L 76.10064 177.883408 
L 77.404862 179.352422 
L 78.763986 181.209982 
L 80.163391 183.496177 
L 81.921003 186.755255 
L 84.772926 192.689556 
L 87.152583 197.36323 
L 88.952829 200.492646 
L 90.631416 202.994055 
L 92.461726 205.332428 
L 93.650489 206.507007 
L 94.738585 207.284913 
L 95.82668 207.776008 
L 96.839559 207.931169 
L 97.717445 207.795816 
L 98.602174 207.418321 
L 99.498165 206.812596 
L 100.409443 205.952783 
L 101.340032 204.772616 
L 102.30403 203.201653 
L 103.319161 201.189686 
L 104.694623 197.90564 
L 106.113913 193.862727 
L 108.251933 186.965117 
L 116.975213 158.067009 
L 118.99572 152.53722 
L 120.634995 148.646405 
L 122.191716 145.443828 
L 123.487475 143.125842 
L 124.846543 141.20252 
L 125.806124 140.238349 
L 126.81168 139.613416 
L 127.817236 139.433572 
L 128.320014 139.527701 
L 129.325571 140.090985 
L 130.229416 140.992495 
L 131.174945 142.268019 
L 132.43565 144.463108 
L 133.696355 147.178034 
L 135.510992 151.724737 
L 137.72587 157.944465 
L 140.879702 166.745323 
L 142.87752 171.720785 
L 145.086759 176.604256 
L 147.295068 181.041079 
L 148.84976 183.727662 
L 150.317263 185.911071 
L 151.877592 187.796251 
L 153.500443 189.292747 
L 154.67529 190.085597 
L 155.4261 190.39759 
L 156.235333 190.504613 
L 157.050511 190.326546 
L 157.865688 189.828206 
L 158.778668 188.844911 
L 159.691647 187.35127 
L 160.604627 185.335194 
L 161.848962 181.842972 
L 163.256909 177.060825 
L 164.793264 171.032834 
L 166.989294 161.396653 
L 170.150077 146.287681 
L 172.400407 136.044384 
L 174.519575 127.441168 
L 179.879511 107.28068 
L 181.602543 101.541602 
L 182.792526 98.349807 
L 183.690461 96.494832 
L 184.597715 95.109289 
L 185.541743 94.134311 
L 186.310444 93.658604 
L 187.091987 93.446428 
L 187.882171 93.491745 
L 188.672356 93.773027 
L 189.718434 94.487274 
L 190.637175 95.435568 
L 191.579531 96.784006 
L 192.469002 98.465116 
L 193.442992 100.784116 
L 194.721919 104.464346 
L 196.813156 111.32429 
L 199.024115 119.225834 
L 200.326821 124.612156 
L 201.63089 131.048358 
L 203.158774 139.866328 
L 207.717554 167.104414 
L 209.725766 177.193338 
L 211.491044 185.06006 
L 213.189065 191.608191 
L 214.66779 196.572816 
L 215.89856 199.968568 
L 216.826008 201.853399 
L 217.753455 203.137236 
L 218.684722 203.979645 
L 220.301119 204.976247 
L 221.731568 205.943176 
L 223.320558 207.433964 
L 224.126514 208.091183 
L 224.529492 208.277352 
L 224.93247 208.325228 
L 225.335448 208.210306 
L 226.044785 207.568046 
L 226.668433 206.523683 
L 227.353123 204.860682 
L 228.155901 202.19227 
L 229.052222 198.235218 
L 230.16665 191.965131 
L 231.96949 180.111054 
L 234.201928 164.118303 
L 236.764389 143.930337 
L 242.303872 98.25687 
L 244.228154 85.345822 
L 247.567275 64.810005 
L 248.743514 59.071416 
L 249.76833 55.126222 
L 251.111546 50.865369 
L 257.179619 33.345874 
L 257.557925 32.763578 
L 257.944263 32.373887 
L 258.3306 32.192189 
L 258.984748 32.326603 
L 259.53765 32.812783 
L 260.107833 33.622697 
L 260.963106 35.377665 
L 261.81838 37.709093 
L 263.011075 41.714595 
L 264.826359 48.702731 
L 266.017789 54.030644 
L 267.546696 62.04865 
L 272.231531 87.543748 
L 273.808347 93.892121 
L 276.494496 104.54837 
L 280.220886 119.842421 
L 281.157727 122.366562 
L 282.094568 124.189647 
L 283.34948 126.021077 
L 284.606322 127.912209 
L 285.45961 129.685941 
L 286.195973 131.688338 
L 287.395675 135.783563 
L 289.089928 141.653065 
L 289.818725 143.430821 
L 290.351241 144.243532 
L 290.716722 144.516492 
L 291.082203 144.535378 
L 291.447685 144.283377 
L 291.838559 143.688427 
L 292.327553 142.448011 
L 292.828941 140.606936 
L 293.599613 136.768704 
L 294.772643 129.424236 
L 296.652539 117.71799 
L 298.003989 110.724987 
L 299.738897 103.165293 
L 300.848631 97.778263 
L 301.751384 92.265128 
L 303.430685 80.098579 
L 304.730167 71.456729 
L 305.7954 65.691196 
L 306.805644 61.285299 
L 307.726445 58.246049 
L 308.755624 55.033216 
L 309.271479 52.799917 
L 310.047837 48.088205 
L 311.302062 38.205961 
L 312.946651 25.768835 
L 314.296942 17.12264 
L 315.199866 12.674377 
L 315.804981 10.796234 
L 316.151617 10.230517 
L 316.510343 10.062685 
L 316.86907 10.287426 
L 317.253368 10.880381 
L 318.150867 12.947864 
L 318.946845 14.633248 
L 319.548457 15.426765 
L 320.157627 15.805866 
L 320.783544 15.892713 
L 321.935845 15.715869 
L 322.434338 15.525553 
L 322.951071 15.128399 
L 323.470802 14.458762 
L 324.770131 12.485139 
L 325.029997 12.328516 
L 325.289862 12.328823 
L 325.734841 12.741218 
L 326.159893 13.670708 
L 326.645838 15.378715 
L 327.377108 19.029176 
L 328.499489 26.157395 
L 332.959169 55.394693 
L 335.01844 66.571227 
L 337.215018 80.456693 
L 338.302268 88.699699 
L 339.861762 100.745999 
L 340.861138 106.682002 
L 342.80376 116.514692 
L 343.850384 121.053183 
L 344.898562 124.675448 
L 345.601082 127.223603 
L 346.338241 130.775556 
L 348.167231 140.577639 
L 349.065898 143.749251 
L 350.583001 148.095962 
L 351.116065 149.333943 
L 351.65796 150.052911 
L 351.930117 150.119854 
L 352.202274 149.968215 
L 352.474431 149.604061 
L 352.989674 148.421054 
L 354.227611 145.018173 
L 354.738525 144.406801 
L 355.249438 144.35326 
L 356.015809 144.511433 
L 356.271265 144.420009 
L 356.782179 143.867695 
L 357.513407 142.478359 
L 358.394664 140.917297 
L 358.835293 140.54856 
L 359.318392 140.568395 
L 360.143553 140.857633 
L 360.421348 140.711731 
L 360.76178 140.253953 
L 361.158151 139.306382 
L 361.601386 137.702607 
L 363.348891 130.24267 
L 363.934479 129.142053 
L 364.567808 128.122593 
L 364.935974 127.165392 
L 365.515692 124.697186 
L 366.490585 118.727593 
L 367.280935 114.417993 
L 367.80633 112.575647 
L 368.944751 109.313827 
L 369.547044 106.13255 
L 370.412056 99.468032 
L 371.274242 92.897694 
L 371.993379 89.039022 
L 372.966505 84.324326 
L 373.575634 80.043348 
L 375.860218 61.128171 
L 376.498066 58.310353 
L 377.801108 53.146803 
L 378.826326 48.670084 
L 379.236414 47.518775 
L 379.646501 46.920716 
L 380.056589 46.845027 
L 380.42089 47.149835 
L 381.715378 48.80552 
L 382.040346 48.793367 
L 382.414209 48.485969 
L 383.441321 47.336138 
L 383.949363 47.083241 
L 384.450004 47.098575 
L 384.83518 47.422836 
L 385.409729 48.383372 
L 385.863979 49.069 
L 386.203115 49.321167 
L 387.388565 49.699588 
L 388.016702 50.255182 
L 388.446764 50.932156 
L 388.882644 52.140475 
L 391.306727 60.717166 
L 392.196873 63.202364 
L 392.654939 64.996501 
L 393.34381 68.775336 
L 396.619701 90.586695 
L 397.522018 98.284012 
L 398.921193 110.78066 
L 399.652324 115.631594 
L 401.203487 124.399613 
L 402.035921 131.075017 
L 403.406896 142.68742 
L 404.392898 148.964016 
L 405.214567 154.438059 
L 406.200569 162.692386 
L 407.022238 169.36033 
L 407.719014 173.729988 
L 408.474482 176.947758 
L 409.46013 181.491357 
L 410.061594 185.324204 
L 411.284374 193.719323 
L 412.336517 199.214818 
L 413.961256 206.987326 
L 414.850832 211.275312 
L 415.308042 212.903426 
L 415.765252 213.806563 
L 415.993857 213.965683 
L 416.451248 213.890905 
L 416.917801 213.464091 
L 417.876753 212.457531 
L 418.258363 212.488097 
L 419.065545 212.99266 
L 419.452496 212.873668 
L 419.81548 212.336035 
L 420.376656 210.985108 
L 420.95742 208.880515 
L 421.934726 204.793677 
L 422.361999 203.788017 
L 422.361999 203.788017 
" style="fill:none;stroke:#e36f47;"/>
   </g>
   <g id="patch_3">
    <path d="M 29.556396 258.225354 
L 29.556396 2.834646 
" style="fill:none;stroke:#000000;stroke-linecap:square;stroke-linejoin:miter;"/>
   </g>
   <g id="patch_4">
    <path d="M 29.556396 258.225354 
L 422.361999 258.225354 
" style="fill:none;stroke:#000000;stroke-linecap:square;stroke-linejoin:miter;"/>
   </g>
   <g id="legend_1">
    <g id="patch_5">
     <path d="M 299.041999 39.119646 
L 418.361999 39.119646 
L 418.361999 6.834646 
L 299.041999 6.834646 
z
" style="fill:#ffffff;stroke:#000000;stroke-linejoin:miter;"/>
    </g>
    <g id="line2d_12">
     <path d="M 305.441999 16.513396 
L 321.441999 16.513396 
" style="fill:none;stroke:#009afa;stroke-linejoin:miter;"/>
    </g>
    <g id="line2d_13"/>
    <g id="text_12">
     <!-- GXBeam -->
     <g transform="translate(327.841999 19.313396)scale(0.08 -0.08)">
      <defs>
       <path d="M 59.515625 10.40625 
L 59.515625 29.984375 
L 43.40625 29.984375 
L 43.40625 38.09375 
L 69.28125 38.09375 
L 69.28125 6.78125 
Q 63.578125 2.734375 56.6875 0.65625 
Q 49.8125 -1.421875 42 -1.421875 
Q 24.90625 -1.421875 15.25 8.5625 
Q 5.609375 18.5625 5.609375 36.375 
Q 5.609375 54.25 15.25 64.234375 
Q 24.90625 74.21875 42 74.21875 
Q 49.125 74.21875 55.546875 72.453125 
Q 61.96875 70.703125 67.390625 67.28125 
L 67.390625 56.78125 
Q 61.921875 61.421875 55.765625 63.765625 
Q 49.609375 66.109375 42.828125 66.109375 
Q 29.4375 66.109375 22.71875 58.640625 
Q 16.015625 51.171875 16.015625 36.375 
Q 16.015625 21.625 22.71875 14.15625 
Q 29.4375 6.6875 42.828125 6.6875 
Q 48.046875 6.6875 52.140625 7.59375 
Q 56.25 8.5 59.515625 10.40625 
z
" id="DejaVuSans-71"/>
       <path d="M 6.296875 72.90625 
L 16.890625 72.90625 
L 35.015625 45.796875 
L 53.21875 72.90625 
L 63.8125 72.90625 
L 40.375 37.890625 
L 65.375 0 
L 54.78125 0 
L 34.28125 31 
L 13.625 0 
L 2.984375 0 
L 29 38.921875 
z
" id="DejaVuSans-88"/>
       <path d="M 19.671875 34.8125 
L 19.671875 8.109375 
L 35.5 8.109375 
Q 43.453125 8.109375 47.28125 11.40625 
Q 51.125 14.703125 51.125 21.484375 
Q 51.125 28.328125 47.28125 31.5625 
Q 43.453125 34.8125 35.5 34.8125 
z
M 19.671875 64.796875 
L 19.671875 42.828125 
L 34.28125 42.828125 
Q 41.5 42.828125 45.03125 45.53125 
Q 48.578125 48.25 48.578125 53.8125 
Q 48.578125 59.328125 45.03125 62.0625 
Q 41.5 64.796875 34.28125 64.796875 
z
M 9.8125 72.90625 
L 35.015625 72.90625 
Q 46.296875 72.90625 52.390625 68.21875 
Q 58.5 63.53125 58.5 54.890625 
Q 58.5 48.1875 55.375 44.234375 
Q 52.25 40.28125 46.1875 39.3125 
Q 53.46875 37.75 57.5 32.78125 
Q 61.53125 27.828125 61.53125 20.40625 
Q 61.53125 10.640625 54.890625 5.3125 
Q 48.25 0 35.984375 0 
L 9.8125 0 
z
" id="DejaVuSans-66"/>
       <path d="M 34.28125 27.484375 
Q 23.390625 27.484375 19.1875 25 
Q 14.984375 22.515625 14.984375 16.5 
Q 14.984375 11.71875 18.140625 8.90625 
Q 21.296875 6.109375 26.703125 6.109375 
Q 34.1875 6.109375 38.703125 11.40625 
Q 43.21875 16.703125 43.21875 25.484375 
L 43.21875 27.484375 
z
M 52.203125 31.203125 
L 52.203125 0 
L 43.21875 0 
L 43.21875 8.296875 
Q 40.140625 3.328125 35.546875 0.953125 
Q 30.953125 -1.421875 24.3125 -1.421875 
Q 15.921875 -1.421875 10.953125 3.296875 
Q 6 8.015625 6 15.921875 
Q 6 25.140625 12.171875 29.828125 
Q 18.359375 34.515625 30.609375 34.515625 
L 43.21875 34.515625 
L 43.21875 35.40625 
Q 43.21875 41.609375 39.140625 45 
Q 35.0625 48.390625 27.6875 48.390625 
Q 23 48.390625 18.546875 47.265625 
Q 14.109375 46.140625 10.015625 43.890625 
L 10.015625 52.203125 
Q 14.9375 54.109375 19.578125 55.046875 
Q 24.21875 56 28.609375 56 
Q 40.484375 56 46.34375 49.84375 
Q 52.203125 43.703125 52.203125 31.203125 
z
" id="DejaVuSans-97"/>
      </defs>
      <use xlink:href="#DejaVuSans-71"/>
      <use x="77.490234" xlink:href="#DejaVuSans-88"/>
      <use x="145.996094" xlink:href="#DejaVuSans-66"/>
      <use x="214.599609" xlink:href="#DejaVuSans-101"/>
      <use x="276.123047" xlink:href="#DejaVuSans-97"/>
      <use x="337.402344" xlink:href="#DejaVuSans-109"/>
     </g>
    </g>
    <g id="line2d_14">
     <path d="M 305.441999 28.255896 
L 321.441999 28.255896 
" style="fill:none;stroke:#e36f47;stroke-linejoin:miter;"/>
    </g>
    <g id="line2d_15"/>
    <g id="text_13">
     <!-- DifferentialEquations -->
     <g transform="translate(327.841999 31.055896)scale(0.08 -0.08)">
      <defs>
       <path d="M 19.671875 64.796875 
L 19.671875 8.109375 
L 31.59375 8.109375 
Q 46.6875 8.109375 53.6875 14.9375 
Q 60.6875 21.78125 60.6875 36.53125 
Q 60.6875 51.171875 53.6875 57.984375 
Q 46.6875 64.796875 31.59375 64.796875 
z
M 9.8125 72.90625 
L 30.078125 72.90625 
Q 51.265625 72.90625 61.171875 64.09375 
Q 71.09375 55.28125 71.09375 36.53125 
Q 71.09375 17.671875 61.125 8.828125 
Q 51.171875 0 30.078125 0 
L 9.8125 0 
z
" id="DejaVuSans-68"/>
       <path d="M 37.109375 75.984375 
L 37.109375 68.5 
L 28.515625 68.5 
Q 23.6875 68.5 21.796875 66.546875 
Q 19.921875 64.59375 19.921875 59.515625 
L 19.921875 54.6875 
L 34.71875 54.6875 
L 34.71875 47.703125 
L 19.921875 47.703125 
L 19.921875 0 
L 10.890625 0 
L 10.890625 47.703125 
L 2.296875 47.703125 
L 2.296875 54.6875 
L 10.890625 54.6875 
L 10.890625 58.5 
Q 10.890625 67.625 15.140625 71.796875 
Q 19.390625 75.984375 28.609375 75.984375 
z
" id="DejaVuSans-102"/>
       <path d="M 41.109375 46.296875 
Q 39.59375 47.171875 37.8125 47.578125 
Q 36.03125 48 33.890625 48 
Q 26.265625 48 22.1875 43.046875 
Q 18.109375 38.09375 18.109375 28.8125 
L 18.109375 0 
L 9.078125 0 
L 9.078125 54.6875 
L 18.109375 54.6875 
L 18.109375 46.1875 
Q 20.953125 51.171875 25.484375 53.578125 
Q 30.03125 56 36.53125 56 
Q 37.453125 56 38.578125 55.875 
Q 39.703125 55.765625 41.0625 55.515625 
z
" id="DejaVuSans-114"/>
       <path d="M 54.890625 33.015625 
L 54.890625 0 
L 45.90625 0 
L 45.90625 32.71875 
Q 45.90625 40.484375 42.875 44.328125 
Q 39.84375 48.1875 33.796875 48.1875 
Q 26.515625 48.1875 22.3125 43.546875 
Q 18.109375 38.921875 18.109375 30.90625 
L 18.109375 0 
L 9.078125 0 
L 9.078125 54.6875 
L 18.109375 54.6875 
L 18.109375 46.1875 
Q 21.34375 51.125 25.703125 53.5625 
Q 30.078125 56 35.796875 56 
Q 45.21875 56 50.046875 50.171875 
Q 54.890625 44.34375 54.890625 33.015625 
z
" id="DejaVuSans-110"/>
       <path d="M 18.3125 70.21875 
L 18.3125 54.6875 
L 36.8125 54.6875 
L 36.8125 47.703125 
L 18.3125 47.703125 
L 18.3125 18.015625 
Q 18.3125 11.328125 20.140625 9.421875 
Q 21.96875 7.515625 27.59375 7.515625 
L 36.8125 7.515625 
L 36.8125 0 
L 27.59375 0 
Q 17.1875 0 13.234375 3.875 
Q 9.28125 7.765625 9.28125 18.015625 
L 9.28125 47.703125 
L 2.6875 47.703125 
L 2.6875 54.6875 
L 9.28125 54.6875 
L 9.28125 70.21875 
z
" id="DejaVuSans-116"/>
       <path d="M 9.421875 75.984375 
L 18.40625 75.984375 
L 18.40625 0 
L 9.421875 0 
z
" id="DejaVuSans-108"/>
       <path d="M 9.8125 72.90625 
L 55.90625 72.90625 
L 55.90625 64.59375 
L 19.671875 64.59375 
L 19.671875 43.015625 
L 54.390625 43.015625 
L 54.390625 34.71875 
L 19.671875 34.71875 
L 19.671875 8.296875 
L 56.78125 8.296875 
L 56.78125 0 
L 9.8125 0 
z
" id="DejaVuSans-69"/>
       <path d="M 14.796875 27.296875 
Q 14.796875 17.390625 18.875 11.75 
Q 22.953125 6.109375 30.078125 6.109375 
Q 37.203125 6.109375 41.296875 11.75 
Q 45.40625 17.390625 45.40625 27.296875 
Q 45.40625 37.203125 41.296875 42.84375 
Q 37.203125 48.484375 30.078125 48.484375 
Q 22.953125 48.484375 18.875 42.84375 
Q 14.796875 37.203125 14.796875 27.296875 
z
M 45.40625 8.203125 
Q 42.578125 3.328125 38.25 0.953125 
Q 33.9375 -1.421875 27.875 -1.421875 
Q 17.96875 -1.421875 11.734375 6.484375 
Q 5.515625 14.40625 5.515625 27.296875 
Q 5.515625 40.1875 11.734375 48.09375 
Q 17.96875 56 27.875 56 
Q 33.9375 56 38.25 53.625 
Q 42.578125 51.265625 45.40625 46.390625 
L 45.40625 54.6875 
L 54.390625 54.6875 
L 54.390625 -20.796875 
L 45.40625 -20.796875 
z
" id="DejaVuSans-113"/>
       <path d="M 8.5 21.578125 
L 8.5 54.6875 
L 17.484375 54.6875 
L 17.484375 21.921875 
Q 17.484375 14.15625 20.5 10.265625 
Q 23.53125 6.390625 29.59375 6.390625 
Q 36.859375 6.390625 41.078125 11.03125 
Q 45.3125 15.671875 45.3125 23.6875 
L 45.3125 54.6875 
L 54.296875 54.6875 
L 54.296875 0 
L 45.3125 0 
L 45.3125 8.40625 
Q 42.046875 3.421875 37.71875 1 
Q 33.40625 -1.421875 27.6875 -1.421875 
Q 18.265625 -1.421875 13.375 4.4375 
Q 8.5 10.296875 8.5 21.578125 
z
M 31.109375 56 
z
" id="DejaVuSans-117"/>
       <path d="M 30.609375 48.390625 
Q 23.390625 48.390625 19.1875 42.75 
Q 14.984375 37.109375 14.984375 27.296875 
Q 14.984375 17.484375 19.15625 11.84375 
Q 23.34375 6.203125 30.609375 6.203125 
Q 37.796875 6.203125 41.984375 11.859375 
Q 46.1875 17.53125 46.1875 27.296875 
Q 46.1875 37.015625 41.984375 42.703125 
Q 37.796875 48.390625 30.609375 48.390625 
z
M 30.609375 56 
Q 42.328125 56 49.015625 48.375 
Q 55.71875 40.765625 55.71875 27.296875 
Q 55.71875 13.875 49.015625 6.21875 
Q 42.328125 -1.421875 30.609375 -1.421875 
Q 18.84375 -1.421875 12.171875 6.21875 
Q 5.515625 13.875 5.515625 27.296875 
Q 5.515625 40.765625 12.171875 48.375 
Q 18.84375 56 30.609375 56 
z
" id="DejaVuSans-111"/>
      </defs>
      <use xlink:href="#DejaVuSans-68"/>
      <use x="77.001953" xlink:href="#DejaVuSans-105"/>
      <use x="104.785156" xlink:href="#DejaVuSans-102"/>
      <use x="139.990234" xlink:href="#DejaVuSans-102"/>
      <use x="175.195312" xlink:href="#DejaVuSans-101"/>
      <use x="236.71875" xlink:href="#DejaVuSans-114"/>
      <use x="275.582031" xlink:href="#DejaVuSans-101"/>
      <use x="337.105469" xlink:href="#DejaVuSans-110"/>
      <use x="400.484375" xlink:href="#DejaVuSans-116"/>
      <use x="439.693359" xlink:href="#DejaVuSans-105"/>
      <use x="467.476562" xlink:href="#DejaVuSans-97"/>
      <use x="528.755859" xlink:href="#DejaVuSans-108"/>
      <use x="556.539062" xlink:href="#DejaVuSans-69"/>
      <use x="619.722656" xlink:href="#DejaVuSans-113"/>
      <use x="683.199219" xlink:href="#DejaVuSans-117"/>
      <use x="746.578125" xlink:href="#DejaVuSans-97"/>
      <use x="807.857422" xlink:href="#DejaVuSans-116"/>
      <use x="847.066406" xlink:href="#DejaVuSans-105"/>
      <use x="874.849609" xlink:href="#DejaVuSans-111"/>
      <use x="936.03125" xlink:href="#DejaVuSans-110"/>
      <use x="999.410156" xlink:href="#DejaVuSans-115"/>
     </g>
    </g>
   </g>
  </g>
 </g>
 <defs>
  <clipPath id="p0dfeb71f87">
   <rect height="255.390709" width="392.805604" x="29.556396" y="2.834646"/>
  </clipPath>
 </defs>
</svg>
