<?xml version="1.0" encoding="utf-8" standalone="no"?>
<!DOCTYPE svg PUBLIC "-//W3C//DTD SVG 1.1//EN"
  "http://www.w3.org/Graphics/SVG/1.1/DTD/svg11.dtd">
<!-- Created with matplotlib (https://matplotlib.org/) -->
<svg height="288pt" version="1.1" viewBox="0 0 432 288" width="432pt" xmlns="http://www.w3.org/2000/svg" xmlns:xlink="http://www.w3.org/1999/xlink">
 <metadata>
  <rdf:RDF xmlns:cc="http://creativecommons.org/ns#" xmlns:dc="http://purl.org/dc/elements/1.1/" xmlns:rdf="http://www.w3.org/1999/02/22-rdf-syntax-ns#">
   <cc:Work>
    <dc:type rdf:resource="http://purl.org/dc/dcmitype/StillImage"/>
    <dc:date>2021-06-08T21:23:38.182209</dc:date>
    <dc:format>image/svg+xml</dc:format>
    <dc:creator>
     <cc:Agent>
      <dc:title>Matplotlib v3.3.4, https://matplotlib.org/</dc:title>
     </cc:Agent>
    </dc:creator>
   </cc:Work>
  </rdf:RDF>
 </metadata>
 <defs>
  <style type="text/css">*{stroke-linecap:butt;stroke-linejoin:round;}</style>
 </defs>
 <g id="figure_1">
  <g id="patch_1">
   <path d="M 0 288 
L 432 288 
L 432 0 
L 0 0 
z
" style="fill:#ffffff;"/>
  </g>
  <g id="axes_1">
   <g id="patch_2">
    <path d="M 64.557544 258.225354 
L 422.361999 258.225354 
L 422.361999 2.834646 
L 64.557544 2.834646 
z
" style="fill:#ffffff;"/>
   </g>
   <g id="line2d_1">
    <path clip-path="url(#p7f0b64ede4)" d="M 64.557544 133.419379 
L 70.819122 133.315461 
L 71.713633 133.239453 
L 72.965948 133.159579 
L 74.218264 133.070136 
L 74.933873 133.008887 
L 76.543993 132.930401 
L 77.259602 132.867909 
L 78.69082 132.884034 
L 79.406429 132.93074 
L 79.943135 132.882619 
L 80.658744 132.902294 
L 81.374353 132.904895 
L 82.089962 132.851668 
L 82.626669 132.865101 
L 87.457029 133.319754 
L 87.993736 133.400756 
L 89.782758 133.393639 
L 95.328727 132.906723 
L 96.581043 133.278009 
L 100.337989 135.253776 
L 101.948109 135.533574 
L 102.484816 135.431222 
L 103.200425 135.099858 
L 103.558229 134.856205 
L 105.883958 132.317584 
L 107.136274 130.757428 
L 108.030785 129.767903 
L 108.567492 129.450896 
L 109.104198 129.154248 
L 110.177612 129.347125 
L 110.714319 129.777478 
L 111.966634 131.348017 
L 113.397852 133.836294 
L 115.186874 137.069883 
L 116.260288 138.391409 
L 117.333701 139.076336 
L 118.228212 139.062557 
L 118.764919 138.7524 
L 119.480528 138.068175 
L 120.196137 137.128795 
L 121.806257 134.857315 
L 123.416377 133.075099 
L 124.48979 132.47108 
L 125.384301 132.310266 
L 127.888932 132.0314 
L 128.604541 131.53298 
L 129.32015 130.918891 
L 130.393564 129.485768 
L 133.792706 124.02406 
L 134.508315 123.451694 
L 135.045021 123.600501 
L 135.581728 123.811659 
L 135.939533 124.258449 
L 136.834044 125.869753 
L 137.37075 127.349118 
L 138.444164 130.968366 
L 140.054284 137.240519 
L 141.306599 141.156933 
L 141.843306 142.326883 
L 142.737817 143.819425 
L 143.453426 144.111328 
L 143.811231 144.133863 
L 144.169035 143.969765 
L 145.421351 142.77512 
L 146.13696 141.864604 
L 147.74708 140.562229 
L 148.104884 140.487789 
L 148.641591 140.275416 
L 149.178297 140.445788 
L 150.251711 141.02486 
L 151.146222 141.675346 
L 151.504026 141.722773 
L 151.861831 141.840178 
L 152.219635 141.780771 
L 152.935244 141.247002 
L 153.650853 140.437379 
L 154.18756 139.380572 
L 155.082071 137.27362 
L 156.155484 133.566915 
L 157.765604 126.886029 
L 159.375724 120.385663 
L 160.270236 117.374788 
L 161.164747 115.091988 
L 161.701453 114.200717 
L 162.595965 113.402543 
L 162.953769 113.537968 
L 163.669378 113.99758 
L 164.206085 114.955881 
L 164.921694 116.564161 
L 165.816205 119.461177 
L 166.889618 123.964289 
L 168.141934 130.255794 
L 170.28876 140.613873 
L 171.183271 144.02081 
L 171.89888 146.010383 
L 172.435587 147.052457 
L 173.151196 147.816697 
L 173.509 148.026831 
L 174.224609 148.089528 
L 175.476925 147.730091 
L 176.013632 147.434571 
L 176.371436 147.25494 
L 177.265947 146.594252 
L 177.802654 146.327111 
L 178.160458 146.305179 
L 178.697165 146.032363 
L 179.591676 146.04551 
L 180.307285 145.808869 
L 181.201796 145.348569 
L 181.738503 144.780647 
L 182.27521 144.260383 
L 183.527525 141.981159 
L 184.064232 140.444142 
L 185.137645 136.260892 
L 186.389961 129.668989 
L 188.178983 118.349134 
L 189.789103 108.21241 
L 190.683614 103.722026 
L 191.399223 100.940621 
L 191.93593 99.751838 
L 192.472637 99.102526 
L 192.651539 99.045605 
L 192.830441 99.155411 
L 193.188246 99.760075 
L 193.724952 101.20985 
L 194.261659 103.790264 
L 194.977268 108.837572 
L 195.692877 115.44098 
L 197.124095 131.98109 
L 198.37641 146.177902 
L 199.092019 152.654068 
L 199.807628 157.008477 
L 200.165432 158.515255 
L 200.523237 159.14278 
L 200.881041 159.118061 
L 201.059944 158.975485 
L 201.417748 158.176047 
L 201.775552 156.709205 
L 202.312259 153.635115 
L 203.385672 145.794922 
L 204.459086 138.088799 
L 204.995793 135.251267 
L 205.532499 133.678188 
L 205.890304 133.353194 
L 206.069206 133.483849 
L 206.42701 134.227177 
L 206.784815 135.601489 
L 207.321521 138.800175 
L 207.858228 143.118158 
L 209.468348 157.393822 
L 210.183957 161.82981 
L 210.720664 163.831268 
L 211.078468 164.59717 
L 211.257371 164.701352 
L 211.615175 164.375912 
L 211.972979 163.66004 
L 212.330784 162.339209 
L 213.046393 158.022373 
L 213.583099 153.397147 
L 214.656513 142.060268 
L 216.266633 125.349291 
L 216.982242 119.638585 
L 217.876753 114.519312 
L 218.592362 112.237003 
L 219.129069 111.041496 
L 220.02358 109.817696 
L 220.560286 109.337744 
L 221.812602 107.698274 
L 222.707113 105.668824 
L 224.85394 99.805419 
L 225.211744 99.466668 
L 225.569549 99.648778 
L 225.927353 100.243405 
L 226.285158 101.464479 
L 226.821864 104.409039 
L 227.537473 110.137369 
L 228.253082 117.837863 
L 229.505398 134.236406 
L 230.757713 150.606572 
L 231.652224 160.329439 
L 232.367833 166.182503 
L 232.90454 169.512544 
L 233.441247 171.318723 
L 233.620149 171.658847 
L 233.799051 171.698869 
L 233.977953 171.463523 
L 234.335758 170.432739 
L 234.693562 168.617999 
L 235.409171 162.403506 
L 237.198194 145.419953 
L 238.092705 140.483709 
L 238.629411 139.06223 
L 238.808314 138.716035 
L 238.987216 138.619343 
L 239.34502 139.202463 
L 239.702825 140.160747 
L 240.060629 141.861461 
L 240.95514 148.70076 
L 241.849651 156.383369 
L 242.386358 159.802026 
L 242.744163 160.880504 
L 242.923065 161.113277 
L 243.101967 161.126671 
L 243.280869 160.927099 
L 243.638674 159.703873 
L 244.17538 156.847241 
L 244.890989 151.593169 
L 245.606598 145.162954 
L 246.322207 136.630556 
L 247.216718 122.946872 
L 249.184643 91.812167 
L 249.900252 84.308516 
L 250.436958 80.807212 
L 250.973665 78.758248 
L 251.33147 78.075063 
L 251.689274 77.960338 
L 251.868176 78.0129 
L 252.225981 78.486508 
L 252.583785 79.613194 
L 252.94159 81.262831 
L 253.478296 85.029478 
L 254.015003 90.61675 
L 254.909514 103.077121 
L 257.414145 142.954257 
L 258.666461 158.952257 
L 259.203168 163.553986 
L 259.560972 165.024512 
L 259.739874 165.254166 
L 259.918776 165.108918 
L 260.276581 163.911189 
L 260.813288 160.157231 
L 262.960114 142.0026 
L 263.496821 140.398817 
L 263.675723 140.081129 
L 263.854625 139.994528 
L 264.033528 140.187392 
L 264.570234 141.429261 
L 264.928039 143.028791 
L 265.643648 148.88045 
L 266.538159 159.633775 
L 267.43267 169.714743 
L 267.969377 172.968208 
L 268.327181 174.085809 
L 268.506083 174.039436 
L 268.863888 173.38849 
L 269.221692 171.818722 
L 269.758399 167.250629 
L 270.65291 158.082446 
L 273.336444 130.140854 
L 273.694248 128.338109 
L 273.87315 127.893256 
L 274.052052 127.80839 
L 274.588759 128.214434 
L 274.946564 129.16897 
L 275.48327 131.056437 
L 276.377781 132.650539 
L 276.914488 132.632671 
L 277.272293 132.775032 
L 278.166804 132.07576 
L 278.345706 132.006108 
L 278.70351 131.240206 
L 279.240217 129.540252 
L 279.598021 127.509936 
L 280.31363 121.15732 
L 281.029239 111.453314 
L 283.354968 80.000016 
L 284.428382 69.100812 
L 284.965088 64.961465 
L 285.322893 63.494896 
L 285.501795 63.215544 
L 285.680697 63.227959 
L 285.859599 63.519487 
L 286.038502 64.17784 
L 286.396306 67.060855 
L 286.754111 71.948961 
L 287.290817 82.800981 
L 288.006426 103.278933 
L 289.974351 165.400656 
L 290.68996 181.211606 
L 291.226666 189.660272 
L 291.584471 193.208535 
L 291.942275 195.144226 
L 292.121177 195.49119 
L 292.30008 195.345806 
L 292.478982 194.5997 
L 292.836786 191.460064 
L 293.194591 186.454792 
L 293.731297 175.538732 
L 295.52032 135.500653 
L 296.057026 129.991095 
L 296.414831 128.182837 
L 296.772635 127.61458 
L 296.951538 127.77089 
L 297.13044 128.249183 
L 297.488244 130.159357 
L 298.024951 135.029456 
L 298.561658 143.169741 
L 299.456169 161.309223 
L 300.35068 178.769925 
L 300.708484 183.356532 
L 301.066289 185.862288 
L 301.245191 186.342949 
L 301.424093 186.064788 
L 301.781898 183.303728 
L 302.318604 177.260211 
L 303.392018 162.640675 
L 303.749822 159.411005 
L 304.286529 157.211588 
L 304.823236 155.495924 
L 305.002138 155.199724 
L 305.18104 154.613003 
L 305.538845 152.294089 
L 306.075551 147.409336 
L 306.612258 138.775826 
L 307.506769 119.255248 
L 308.222378 104.999452 
L 308.580182 100.258207 
L 308.937987 98.444515 
L 309.116889 98.530467 
L 309.295791 98.980243 
L 309.653596 101.120215 
L 310.369205 105.987307 
L 310.727009 106.740969 
L 310.905911 106.628962 
L 311.084814 106.148635 
L 311.442618 104.085083 
L 312.873836 93.807106 
L 313.052738 93.471546 
L 313.23164 93.461706 
L 313.410543 93.811108 
L 313.768347 95.385988 
L 314.483956 99.149036 
L 314.662858 99.594575 
L 314.84176 99.61494 
L 315.020663 99.134383 
L 315.378467 96.170974 
L 315.915174 87.495525 
L 316.630783 75.14993 
L 316.988587 71.946594 
L 317.167489 71.508407 
L 317.346392 71.710656 
L 317.525294 72.650113 
L 317.883098 76.29409 
L 318.419805 84.589986 
L 319.314316 103.118718 
L 320.566632 128.68492 
L 321.461143 144.318467 
L 321.997849 160.764613 
L 322.892361 191.779716 
L 323.250165 198.342739 
L 323.429067 199.792939 
L 323.60797 200.149547 
L 323.786872 199.607882 
L 324.323578 195.725775 
L 324.860285 191.047162 
L 325.396992 184.971443 
L 326.112601 173.307886 
L 326.82821 162.067769 
L 327.186014 159.02209 
L 328.080525 153.131847 
L 328.43833 146.256124 
L 328.975036 127.046477 
L 329.690645 102.128509 
L 329.869547 99.40265 
L 330.04845 98.725433 
L 330.227352 99.718932 
L 330.585156 106.236774 
L 331.121863 125.151052 
L 332.016374 154.808702 
L 332.731983 169.834959 
L 333.26869 178 
L 333.626494 180.192373 
L 333.805397 180.323003 
L 333.984299 179.980871 
L 334.521005 177.303041 
L 334.699908 177.224838 
L 334.87881 178.020263 
L 335.236614 181.992686 
L 336.48893 199.935276 
L 336.667832 200.276431 
L 336.846734 199.460727 
L 337.025637 197.406012 
L 337.383441 188.863472 
L 337.920148 166.069662 
L 339.351366 101.459886 
L 339.888072 84.260317 
L 340.245877 78.910903 
L 340.603681 77.366372 
L 340.782583 77.406169 
L 341.140388 78.609373 
L 341.31929 79.253941 
L 341.498192 79.132825 
L 341.677095 77.87812 
L 342.034899 72.351039 
L 343.287215 47.343667 
L 343.645019 44.900823 
L 343.823921 45.12712 
L 344.002823 46.593428 
L 344.360628 53.434998 
L 346.686357 111.699521 
L 346.865259 113.210753 
L 347.044161 113.528455 
L 347.223064 113.090739 
L 347.580868 110.51391 
L 348.117575 106.295968 
L 348.296477 106.500307 
L 348.654281 109.609422 
L 349.012086 114.734457 
L 349.36989 122.810685 
L 350.443304 150.707013 
L 350.801108 153.650428 
L 350.98001 153.720809 
L 351.158913 153.31282 
L 351.516717 151.43988 
L 351.874522 147.551686 
L 352.947935 133.405142 
L 353.126837 133.13389 
L 353.305739 134.191842 
L 353.663544 139.180191 
L 354.20025 152.220951 
L 354.736957 164.483765 
L 355.094762 167.258097 
L 355.273664 166.748121 
L 355.452566 164.892848 
L 355.989273 154.074387 
L 356.525979 143.230561 
L 356.704882 141.138182 
L 356.883784 140.82928 
L 357.062686 142.558146 
L 357.420491 151.061862 
L 358.136099 171.112538 
L 358.493904 175.921453 
L 359.388415 181.090043 
L 359.567317 181.231676 
L 359.74622 180.41738 
L 359.925122 178.52556 
L 360.282926 171.438915 
L 360.819633 159.894629 
L 361.177437 156.093323 
L 361.535242 154.290458 
L 361.714144 154.217212 
L 361.893046 154.889263 
L 362.250851 157.801912 
L 362.787557 162.944222 
L 362.96646 163.383781 
L 363.145362 162.579159 
L 363.503166 157.873434 
L 364.039873 150.492075 
L 364.397677 147.785845 
L 364.57658 147.721119 
L 364.755482 148.480516 
L 365.292189 152.852814 
L 366.007797 159.497065 
L 366.1867 159.897742 
L 366.365602 159.695171 
L 366.723406 159.122629 
L 366.902309 159.24543 
L 367.081211 159.977544 
L 367.79682 165.685797 
L 367.975722 165.035667 
L 368.333526 160.327474 
L 368.870233 153.344066 
L 369.049135 153.101182 
L 369.228038 154.313141 
L 369.585842 158.268167 
L 369.764744 159.068718 
L 369.943647 158.077331 
L 370.301451 151.170368 
L 372.448278 90.814409 
L 372.62718 89.665288 
L 372.806082 90.638277 
L 373.521691 99.672355 
L 373.700593 98.183052 
L 374.058398 89.224905 
L 374.774007 65.820955 
L 375.131811 60.804844 
L 375.489616 57.297477 
L 375.84742 49.057375 
L 376.205224 39.969677 
L 376.384127 38.410086 
L 376.563029 39.631822 
L 376.920833 47.748313 
L 377.45754 60.734455 
L 377.815345 64.322487 
L 377.994247 65.67044 
L 378.173149 68.143325 
L 378.530953 80.198127 
L 379.06766 104.559662 
L 379.246562 108.460112 
L 379.425465 109.553584 
L 379.604367 108.449999 
L 380.141073 101.303675 
L 380.319976 101.729358 
L 380.498878 105.303284 
L 381.393389 132.838649 
L 381.751194 136.278677 
L 381.930096 139.23018 
L 382.2879 152.634007 
L 383.003509 191.537281 
L 383.182411 193.464619 
L 383.361314 192.023852 
L 384.076922 180.756738 
L 384.434727 178.285695 
L 384.613629 176.042751 
L 384.971434 164.975085 
L 385.50814 142.704618 
L 385.687043 139.278282 
L 385.865945 138.894889 
L 386.044847 141.521336 
L 386.760456 160.613953 
L 386.939358 160.144816 
L 387.297163 153.765036 
L 387.833869 141.000579 
L 389.086185 104.101462 
L 389.265087 103.404826 
L 389.443989 104.384225 
L 389.801794 109.283465 
L 390.159598 119.824339 
L 390.875207 155.867132 
L 391.590816 192.801268 
L 391.948621 200.60091 
L 392.127523 201.915073 
L 392.306425 201.777985 
L 392.485327 200.440357 
L 392.843132 195.16639 
L 393.200936 185.424911 
L 393.737643 166.693093 
L 393.916545 165.127614 
L 394.095447 167.170913 
L 394.453252 178.454401 
L 394.989958 197.329387 
L 395.168861 199.043304 
L 395.347763 197.357001 
L 395.88447 182.793174 
L 396.600078 160.178031 
L 396.957883 143.003368 
L 397.673492 100.548474 
L 397.852394 98.031127 
L 398.031296 98.616304 
L 398.568003 103.918249 
L 399.10471 106.253924 
L 399.283612 108.79739 
L 399.641416 122.699053 
L 399.999221 138.782901 
L 400.178123 141.958096 
L 400.357025 141.135072 
L 400.71483 131.89233 
L 401.251536 115.823888 
L 401.430439 113.790251 
L 401.609341 114.007165 
L 401.967145 118.26517 
L 402.503852 129.366384 
L 403.040559 140.032847 
L 403.398363 145.837913 
L 404.292874 168.799071 
L 404.471776 165.865476 
L 405.187385 142.351656 
L 405.54519 140.447961 
L 405.724092 136.988815 
L 406.081897 122.098341 
L 406.797505 90.18727 
L 407.15531 83.950209 
L 407.334212 83.564313 
L 407.513114 83.696107 
L 407.692017 83.4018 
L 408.049821 80.758933 
L 408.407625 76.820271 
L 408.76543 69.194578 
L 409.302137 54.251514 
L 409.481039 52.757484 
L 409.659941 52.372689 
L 409.838843 50.667084 
L 410.196648 37.022828 
L 410.554452 21.755299 
L 410.733354 19.701383 
L 410.912257 21.547141 
L 411.98567 47.342443 
L 412.343474 62.021979 
L 413.59579 138.198862 
L 414.132497 165.19994 
L 414.311399 167.62391 
L 414.669203 168.321233 
L 414.848106 170.560483 
L 415.20591 181.597587 
L 415.921519 209.086267 
L 416.994932 239.011554 
L 417.173835 240.165937 
L 417.352737 239.156979 
L 417.710541 234.244764 
L 418.068346 223.625876 
L 418.605052 198.939801 
L 418.962857 193.036706 
L 419.141759 190.244186 
L 419.499564 175.394461 
L 420.215172 140.045978 
L 421.109684 94.59172 
L 421.467488 75.632858 
L 421.64639 71.659192 
L 421.825293 72.03705 
L 422.361999 79.405779 
L 422.361999 79.405779 
" style="fill:none;stroke:#009afa;"/>
   </g>
   <g id="matplotlib.axis_1">
    <g id="xtick_1">
     <g id="line2d_2">
      <defs>
       <path d="M 0 0 
L 0 -2.5 
" id="ma60f399f0c" style="stroke:#000000;stroke-width:0.5;"/>
      </defs>
      <g>
       <use style="stroke:#000000;stroke-width:0.5;" x="64.557544" xlink:href="#ma60f399f0c" y="258.225354"/>
      </g>
     </g>
     <g id="text_1">
      <!-- $\mathregular{0.0}$ -->
      <g transform="translate(58.157544 267.804104)scale(0.08 -0.08)">
       <defs>
        <path d="M 31.78125 66.40625 
Q 24.171875 66.40625 20.328125 58.90625 
Q 16.5 51.421875 16.5 36.375 
Q 16.5 21.390625 20.328125 13.890625 
Q 24.171875 6.390625 31.78125 6.390625 
Q 39.453125 6.390625 43.28125 13.890625 
Q 47.125 21.390625 47.125 36.375 
Q 47.125 51.421875 43.28125 58.90625 
Q 39.453125 66.40625 31.78125 66.40625 
z
M 31.78125 74.21875 
Q 44.046875 74.21875 50.515625 64.515625 
Q 56.984375 54.828125 56.984375 36.375 
Q 56.984375 17.96875 50.515625 8.265625 
Q 44.046875 -1.421875 31.78125 -1.421875 
Q 19.53125 -1.421875 13.0625 8.265625 
Q 6.59375 17.96875 6.59375 36.375 
Q 6.59375 54.828125 13.0625 64.515625 
Q 19.53125 74.21875 31.78125 74.21875 
z
" id="DejaVuSans-48"/>
        <path d="M 10.6875 12.40625 
L 21 12.40625 
L 21 0 
L 10.6875 0 
z
" id="DejaVuSans-46"/>
       </defs>
       <use transform="translate(0 0.78125)" xlink:href="#DejaVuSans-48"/>
       <use transform="translate(63.623047 0.78125)" xlink:href="#DejaVuSans-46"/>
       <use transform="translate(95.410156 0.78125)" xlink:href="#DejaVuSans-48"/>
      </g>
     </g>
    </g>
    <g id="xtick_2">
     <g id="line2d_3">
      <g>
       <use style="stroke:#000000;stroke-width:0.5;" x="154.008658" xlink:href="#ma60f399f0c" y="258.225354"/>
      </g>
     </g>
     <g id="text_2">
      <!-- $\mathregular{0.5}$ -->
      <g transform="translate(147.608658 267.804104)scale(0.08 -0.08)">
       <defs>
        <path d="M 10.796875 72.90625 
L 49.515625 72.90625 
L 49.515625 64.59375 
L 19.828125 64.59375 
L 19.828125 46.734375 
Q 21.96875 47.46875 24.109375 47.828125 
Q 26.265625 48.1875 28.421875 48.1875 
Q 40.625 48.1875 47.75 41.5 
Q 54.890625 34.8125 54.890625 23.390625 
Q 54.890625 11.625 47.5625 5.09375 
Q 40.234375 -1.421875 26.90625 -1.421875 
Q 22.3125 -1.421875 17.546875 -0.640625 
Q 12.796875 0.140625 7.71875 1.703125 
L 7.71875 11.625 
Q 12.109375 9.234375 16.796875 8.0625 
Q 21.484375 6.890625 26.703125 6.890625 
Q 35.15625 6.890625 40.078125 11.328125 
Q 45.015625 15.765625 45.015625 23.390625 
Q 45.015625 31 40.078125 35.4375 
Q 35.15625 39.890625 26.703125 39.890625 
Q 22.75 39.890625 18.8125 39.015625 
Q 14.890625 38.140625 10.796875 36.28125 
z
" id="DejaVuSans-53"/>
       </defs>
       <use transform="translate(0 0.78125)" xlink:href="#DejaVuSans-48"/>
       <use transform="translate(63.623047 0.78125)" xlink:href="#DejaVuSans-46"/>
       <use transform="translate(95.410156 0.78125)" xlink:href="#DejaVuSans-53"/>
      </g>
     </g>
    </g>
    <g id="xtick_3">
     <g id="line2d_4">
      <g>
       <use style="stroke:#000000;stroke-width:0.5;" x="243.459771" xlink:href="#ma60f399f0c" y="258.225354"/>
      </g>
     </g>
     <g id="text_3">
      <!-- $\mathregular{1.0}$ -->
      <g transform="translate(237.059771 267.804104)scale(0.08 -0.08)">
       <defs>
        <path d="M 12.40625 8.296875 
L 28.515625 8.296875 
L 28.515625 63.921875 
L 10.984375 60.40625 
L 10.984375 69.390625 
L 28.421875 72.90625 
L 38.28125 72.90625 
L 38.28125 8.296875 
L 54.390625 8.296875 
L 54.390625 0 
L 12.40625 0 
z
" id="DejaVuSans-49"/>
       </defs>
       <use transform="translate(0 0.78125)" xlink:href="#DejaVuSans-49"/>
       <use transform="translate(63.623047 0.78125)" xlink:href="#DejaVuSans-46"/>
       <use transform="translate(95.410156 0.78125)" xlink:href="#DejaVuSans-48"/>
      </g>
     </g>
    </g>
    <g id="xtick_4">
     <g id="line2d_5">
      <g>
       <use style="stroke:#000000;stroke-width:0.5;" x="332.910885" xlink:href="#ma60f399f0c" y="258.225354"/>
      </g>
     </g>
     <g id="text_4">
      <!-- $\mathregular{1.5}$ -->
      <g transform="translate(326.510885 267.804104)scale(0.08 -0.08)">
       <use transform="translate(0 0.09375)" xlink:href="#DejaVuSans-49"/>
       <use transform="translate(63.623047 0.09375)" xlink:href="#DejaVuSans-46"/>
       <use transform="translate(95.410156 0.09375)" xlink:href="#DejaVuSans-53"/>
      </g>
     </g>
    </g>
    <g id="xtick_5">
     <g id="line2d_6">
      <g>
       <use style="stroke:#000000;stroke-width:0.5;" x="422.361999" xlink:href="#ma60f399f0c" y="258.225354"/>
      </g>
     </g>
     <g id="text_5">
      <!-- $\mathregular{2.0}$ -->
      <g transform="translate(415.961999 267.804104)scale(0.08 -0.08)">
       <defs>
        <path d="M 19.1875 8.296875 
L 53.609375 8.296875 
L 53.609375 0 
L 7.328125 0 
L 7.328125 8.296875 
Q 12.9375 14.109375 22.625 23.890625 
Q 32.328125 33.6875 34.8125 36.53125 
Q 39.546875 41.84375 41.421875 45.53125 
Q 43.3125 49.21875 43.3125 52.78125 
Q 43.3125 58.59375 39.234375 62.25 
Q 35.15625 65.921875 28.609375 65.921875 
Q 23.96875 65.921875 18.8125 64.3125 
Q 13.671875 62.703125 7.8125 59.421875 
L 7.8125 69.390625 
Q 13.765625 71.78125 18.9375 73 
Q 24.125 74.21875 28.421875 74.21875 
Q 39.75 74.21875 46.484375 68.546875 
Q 53.21875 62.890625 53.21875 53.421875 
Q 53.21875 48.921875 51.53125 44.890625 
Q 49.859375 40.875 45.40625 35.40625 
Q 44.1875 33.984375 37.640625 27.21875 
Q 31.109375 20.453125 19.1875 8.296875 
z
" id="DejaVuSans-50"/>
       </defs>
       <use transform="translate(0 0.78125)" xlink:href="#DejaVuSans-50"/>
       <use transform="translate(63.623047 0.78125)" xlink:href="#DejaVuSans-46"/>
       <use transform="translate(95.410156 0.78125)" xlink:href="#DejaVuSans-48"/>
      </g>
     </g>
    </g>
    <g id="text_6">
     <!-- Time (s) -->
     <g transform="translate(221.097975 281.826136)scale(0.11 -0.11)">
      <defs>
       <path d="M -0.296875 72.90625 
L 61.375 72.90625 
L 61.375 64.59375 
L 35.5 64.59375 
L 35.5 0 
L 25.59375 0 
L 25.59375 64.59375 
L -0.296875 64.59375 
z
" id="DejaVuSans-84"/>
       <path d="M 9.421875 54.6875 
L 18.40625 54.6875 
L 18.40625 0 
L 9.421875 0 
z
M 9.421875 75.984375 
L 18.40625 75.984375 
L 18.40625 64.59375 
L 9.421875 64.59375 
z
" id="DejaVuSans-105"/>
       <path d="M 52 44.1875 
Q 55.375 50.25 60.0625 53.125 
Q 64.75 56 71.09375 56 
Q 79.640625 56 84.28125 50.015625 
Q 88.921875 44.046875 88.921875 33.015625 
L 88.921875 0 
L 79.890625 0 
L 79.890625 32.71875 
Q 79.890625 40.578125 77.09375 44.375 
Q 74.3125 48.1875 68.609375 48.1875 
Q 61.625 48.1875 57.5625 43.546875 
Q 53.515625 38.921875 53.515625 30.90625 
L 53.515625 0 
L 44.484375 0 
L 44.484375 32.71875 
Q 44.484375 40.625 41.703125 44.40625 
Q 38.921875 48.1875 33.109375 48.1875 
Q 26.21875 48.1875 22.15625 43.53125 
Q 18.109375 38.875 18.109375 30.90625 
L 18.109375 0 
L 9.078125 0 
L 9.078125 54.6875 
L 18.109375 54.6875 
L 18.109375 46.1875 
Q 21.1875 51.21875 25.484375 53.609375 
Q 29.78125 56 35.6875 56 
Q 41.65625 56 45.828125 52.96875 
Q 50 49.953125 52 44.1875 
z
" id="DejaVuSans-109"/>
       <path d="M 56.203125 29.59375 
L 56.203125 25.203125 
L 14.890625 25.203125 
Q 15.484375 15.921875 20.484375 11.0625 
Q 25.484375 6.203125 34.421875 6.203125 
Q 39.59375 6.203125 44.453125 7.46875 
Q 49.3125 8.734375 54.109375 11.28125 
L 54.109375 2.78125 
Q 49.265625 0.734375 44.1875 -0.34375 
Q 39.109375 -1.421875 33.890625 -1.421875 
Q 20.796875 -1.421875 13.15625 6.1875 
Q 5.515625 13.8125 5.515625 26.8125 
Q 5.515625 40.234375 12.765625 48.109375 
Q 20.015625 56 32.328125 56 
Q 43.359375 56 49.78125 48.890625 
Q 56.203125 41.796875 56.203125 29.59375 
z
M 47.21875 32.234375 
Q 47.125 39.59375 43.09375 43.984375 
Q 39.0625 48.390625 32.421875 48.390625 
Q 24.90625 48.390625 20.390625 44.140625 
Q 15.875 39.890625 15.1875 32.171875 
z
" id="DejaVuSans-101"/>
       <path id="DejaVuSans-32"/>
       <path d="M 31 75.875 
Q 24.46875 64.65625 21.28125 53.65625 
Q 18.109375 42.671875 18.109375 31.390625 
Q 18.109375 20.125 21.3125 9.0625 
Q 24.515625 -2 31 -13.1875 
L 23.1875 -13.1875 
Q 15.875 -1.703125 12.234375 9.375 
Q 8.59375 20.453125 8.59375 31.390625 
Q 8.59375 42.28125 12.203125 53.3125 
Q 15.828125 64.359375 23.1875 75.875 
z
" id="DejaVuSans-40"/>
       <path d="M 44.28125 53.078125 
L 44.28125 44.578125 
Q 40.484375 46.53125 36.375 47.5 
Q 32.28125 48.484375 27.875 48.484375 
Q 21.1875 48.484375 17.84375 46.4375 
Q 14.5 44.390625 14.5 40.28125 
Q 14.5 37.15625 16.890625 35.375 
Q 19.28125 33.59375 26.515625 31.984375 
L 29.59375 31.296875 
Q 39.15625 29.25 43.1875 25.515625 
Q 47.21875 21.78125 47.21875 15.09375 
Q 47.21875 7.46875 41.1875 3.015625 
Q 35.15625 -1.421875 24.609375 -1.421875 
Q 20.21875 -1.421875 15.453125 -0.5625 
Q 10.6875 0.296875 5.421875 2 
L 5.421875 11.28125 
Q 10.40625 8.6875 15.234375 7.390625 
Q 20.0625 6.109375 24.8125 6.109375 
Q 31.15625 6.109375 34.5625 8.28125 
Q 37.984375 10.453125 37.984375 14.40625 
Q 37.984375 18.0625 35.515625 20.015625 
Q 33.0625 21.96875 24.703125 23.78125 
L 21.578125 24.515625 
Q 13.234375 26.265625 9.515625 29.90625 
Q 5.8125 33.546875 5.8125 39.890625 
Q 5.8125 47.609375 11.28125 51.796875 
Q 16.75 56 26.8125 56 
Q 31.78125 56 36.171875 55.265625 
Q 40.578125 54.546875 44.28125 53.078125 
z
" id="DejaVuSans-115"/>
       <path d="M 8.015625 75.875 
L 15.828125 75.875 
Q 23.140625 64.359375 26.78125 53.3125 
Q 30.421875 42.28125 30.421875 31.390625 
Q 30.421875 20.453125 26.78125 9.375 
Q 23.140625 -1.703125 15.828125 -13.1875 
L 8.015625 -13.1875 
Q 14.5 -2 17.703125 9.0625 
Q 20.90625 20.125 20.90625 31.390625 
Q 20.90625 42.671875 17.703125 53.65625 
Q 14.5 64.65625 8.015625 75.875 
z
" id="DejaVuSans-41"/>
      </defs>
      <use xlink:href="#DejaVuSans-84"/>
      <use x="57.958984" xlink:href="#DejaVuSans-105"/>
      <use x="85.742188" xlink:href="#DejaVuSans-109"/>
      <use x="183.154297" xlink:href="#DejaVuSans-101"/>
      <use x="244.677734" xlink:href="#DejaVuSans-32"/>
      <use x="276.464844" xlink:href="#DejaVuSans-40"/>
      <use x="315.478516" xlink:href="#DejaVuSans-115"/>
      <use x="367.578125" xlink:href="#DejaVuSans-41"/>
     </g>
    </g>
   </g>
   <g id="matplotlib.axis_2">
    <g id="ytick_1">
     <g id="line2d_7">
      <defs>
       <path d="M 0 0 
L 2.5 0 
" id="mc18dcd39da" style="stroke:#000000;stroke-width:0.5;"/>
      </defs>
      <g>
       <use style="stroke:#000000;stroke-width:0.5;" x="64.557544" xlink:href="#mc18dcd39da" y="230.327266"/>
      </g>
     </g>
     <g id="text_7">
      <!-- $\mathregular{-4.0×10^{6}}$ -->
      <g transform="translate(20.817544 233.366641)scale(0.08 -0.08)">
       <defs>
        <path d="M 10.59375 35.5 
L 73.1875 35.5 
L 73.1875 27.203125 
L 10.59375 27.203125 
z
" id="DejaVuSans-8722"/>
        <path d="M 37.796875 64.3125 
L 12.890625 25.390625 
L 37.796875 25.390625 
z
M 35.203125 72.90625 
L 47.609375 72.90625 
L 47.609375 25.390625 
L 58.015625 25.390625 
L 58.015625 17.1875 
L 47.609375 17.1875 
L 47.609375 0 
L 37.796875 0 
L 37.796875 17.1875 
L 4.890625 17.1875 
L 4.890625 26.703125 
z
" id="DejaVuSans-52"/>
        <path d="M 70.125 53.71875 
L 47.796875 31.296875 
L 70.125 8.984375 
L 64.3125 3.078125 
L 41.890625 25.484375 
L 19.484375 3.078125 
L 13.71875 8.984375 
L 35.984375 31.296875 
L 13.71875 53.71875 
L 19.484375 59.625 
L 41.890625 37.203125 
L 64.3125 59.625 
z
" id="DejaVuSans-215"/>
        <path d="M 33.015625 40.375 
Q 26.375 40.375 22.484375 35.828125 
Q 18.609375 31.296875 18.609375 23.390625 
Q 18.609375 15.53125 22.484375 10.953125 
Q 26.375 6.390625 33.015625 6.390625 
Q 39.65625 6.390625 43.53125 10.953125 
Q 47.40625 15.53125 47.40625 23.390625 
Q 47.40625 31.296875 43.53125 35.828125 
Q 39.65625 40.375 33.015625 40.375 
z
M 52.59375 71.296875 
L 52.59375 62.3125 
Q 48.875 64.0625 45.09375 64.984375 
Q 41.3125 65.921875 37.59375 65.921875 
Q 27.828125 65.921875 22.671875 59.328125 
Q 17.53125 52.734375 16.796875 39.40625 
Q 19.671875 43.65625 24.015625 45.921875 
Q 28.375 48.1875 33.59375 48.1875 
Q 44.578125 48.1875 50.953125 41.515625 
Q 57.328125 34.859375 57.328125 23.390625 
Q 57.328125 12.15625 50.6875 5.359375 
Q 44.046875 -1.421875 33.015625 -1.421875 
Q 20.359375 -1.421875 13.671875 8.265625 
Q 6.984375 17.96875 6.984375 36.375 
Q 6.984375 53.65625 15.1875 63.9375 
Q 23.390625 74.21875 37.203125 74.21875 
Q 40.921875 74.21875 44.703125 73.484375 
Q 48.484375 72.75 52.59375 71.296875 
z
" id="DejaVuSans-54"/>
       </defs>
       <use transform="translate(0 0.765625)" xlink:href="#DejaVuSans-8722"/>
       <use transform="translate(83.789062 0.765625)" xlink:href="#DejaVuSans-52"/>
       <use transform="translate(147.412109 0.765625)" xlink:href="#DejaVuSans-46"/>
       <use transform="translate(179.199219 0.765625)" xlink:href="#DejaVuSans-48"/>
       <use transform="translate(242.822266 0.765625)" xlink:href="#DejaVuSans-215"/>
       <use transform="translate(326.611328 0.765625)" xlink:href="#DejaVuSans-49"/>
       <use transform="translate(390.234375 0.765625)" xlink:href="#DejaVuSans-48"/>
       <use transform="translate(454.814453 39.046875)scale(0.7)" xlink:href="#DejaVuSans-54"/>
      </g>
     </g>
    </g>
    <g id="ytick_2">
     <g id="line2d_8">
      <g>
       <use style="stroke:#000000;stroke-width:0.5;" x="64.557544" xlink:href="#mc18dcd39da" y="181.873323"/>
      </g>
     </g>
     <g id="text_8">
      <!-- $\mathregular{-2.0×10^{6}}$ -->
      <g transform="translate(20.817544 184.912698)scale(0.08 -0.08)">
       <use transform="translate(0 0.765625)" xlink:href="#DejaVuSans-8722"/>
       <use transform="translate(83.789062 0.765625)" xlink:href="#DejaVuSans-50"/>
       <use transform="translate(147.412109 0.765625)" xlink:href="#DejaVuSans-46"/>
       <use transform="translate(179.199219 0.765625)" xlink:href="#DejaVuSans-48"/>
       <use transform="translate(242.822266 0.765625)" xlink:href="#DejaVuSans-215"/>
       <use transform="translate(326.611328 0.765625)" xlink:href="#DejaVuSans-49"/>
       <use transform="translate(390.234375 0.765625)" xlink:href="#DejaVuSans-48"/>
       <use transform="translate(454.814453 39.046875)scale(0.7)" xlink:href="#DejaVuSans-54"/>
      </g>
     </g>
    </g>
    <g id="ytick_3">
     <g id="line2d_9">
      <g>
       <use style="stroke:#000000;stroke-width:0.5;" x="64.557544" xlink:href="#mc18dcd39da" y="133.419379"/>
      </g>
     </g>
     <g id="text_9">
      <!-- $\mathregular{0}$ -->
      <g transform="translate(55.937544 136.458754)scale(0.08 -0.08)">
       <use transform="translate(0 0.78125)" xlink:href="#DejaVuSans-48"/>
      </g>
     </g>
    </g>
    <g id="ytick_4">
     <g id="line2d_10">
      <g>
       <use style="stroke:#000000;stroke-width:0.5;" x="64.557544" xlink:href="#mc18dcd39da" y="84.965436"/>
      </g>
     </g>
     <g id="text_10">
      <!-- $\mathregular{2.0×10^{6}}$ -->
      <g transform="translate(27.537544 88.004811)scale(0.08 -0.08)">
       <use transform="translate(0 0.765625)" xlink:href="#DejaVuSans-50"/>
       <use transform="translate(63.623047 0.765625)" xlink:href="#DejaVuSans-46"/>
       <use transform="translate(95.410156 0.765625)" xlink:href="#DejaVuSans-48"/>
       <use transform="translate(159.033203 0.765625)" xlink:href="#DejaVuSans-215"/>
       <use transform="translate(242.822266 0.765625)" xlink:href="#DejaVuSans-49"/>
       <use transform="translate(306.445312 0.765625)" xlink:href="#DejaVuSans-48"/>
       <use transform="translate(371.025391 39.046875)scale(0.7)" xlink:href="#DejaVuSans-54"/>
      </g>
     </g>
    </g>
    <g id="ytick_5">
     <g id="line2d_11">
      <g>
       <use style="stroke:#000000;stroke-width:0.5;" x="64.557544" xlink:href="#mc18dcd39da" y="36.511492"/>
      </g>
     </g>
     <g id="text_11">
      <!-- $\mathregular{4.0×10^{6}}$ -->
      <g transform="translate(27.537544 39.550867)scale(0.08 -0.08)">
       <use transform="translate(0 0.765625)" xlink:href="#DejaVuSans-52"/>
       <use transform="translate(63.623047 0.765625)" xlink:href="#DejaVuSans-46"/>
       <use transform="translate(95.410156 0.765625)" xlink:href="#DejaVuSans-48"/>
       <use transform="translate(159.033203 0.765625)" xlink:href="#DejaVuSans-215"/>
       <use transform="translate(242.822266 0.765625)" xlink:href="#DejaVuSans-49"/>
       <use transform="translate(306.445312 0.765625)" xlink:href="#DejaVuSans-48"/>
       <use transform="translate(371.025391 39.046875)scale(0.7)" xlink:href="#DejaVuSans-54"/>
      </g>
     </g>
    </g>
    <g id="text_12">
     <!-- $F_x$ ($N$) -->
     <g transform="translate(14.529888 146.315)rotate(-90)scale(0.11 -0.11)">
      <defs>
       <path d="M 16.890625 72.90625 
L 58.6875 72.90625 
L 57.078125 64.59375 
L 25.09375 64.59375 
L 20.90625 43.109375 
L 49.8125 43.109375 
L 48.1875 34.8125 
L 19.28125 34.8125 
L 12.5 0 
L 2.6875 0 
z
" id="DejaVuSans-Oblique-70"/>
       <path d="M 60.015625 54.6875 
L 34.90625 27.875 
L 50.296875 0 
L 39.984375 0 
L 28.421875 21.6875 
L 8.296875 0 
L -2.59375 0 
L 24.3125 28.8125 
L 10.015625 54.6875 
L 20.3125 54.6875 
L 30.8125 34.90625 
L 49.125 54.6875 
z
" id="DejaVuSans-Oblique-120"/>
       <path d="M 16.890625 72.90625 
L 30.171875 72.90625 
L 50.296875 10.40625 
L 62.5 72.90625 
L 72.125 72.90625 
L 57.90625 0 
L 44.578125 0 
L 24.515625 62.890625 
L 12.3125 0 
L 2.6875 0 
z
" id="DejaVuSans-Oblique-78"/>
      </defs>
      <use transform="translate(0 0.125)" xlink:href="#DejaVuSans-Oblique-70"/>
      <use transform="translate(57.519531 -16.28125)scale(0.7)" xlink:href="#DejaVuSans-Oblique-120"/>
      <use transform="translate(101.679688 0.125)" xlink:href="#DejaVuSans-32"/>
      <use transform="translate(133.466797 0.125)" xlink:href="#DejaVuSans-40"/>
      <use transform="translate(172.480469 0.125)" xlink:href="#DejaVuSans-Oblique-78"/>
      <use transform="translate(247.285156 0.125)" xlink:href="#DejaVuSans-41"/>
     </g>
    </g>
   </g>
   <g id="line2d_12">
    <path clip-path="url(#p7f0b64ede4)" d="M 64.557544 133.419379 
L 70.428905 133.318594 
L 71.208867 133.279253 
L 75.729023 132.991881 
L 76.124244 132.936867 
L 76.68907 132.91868 
L 77.1024 132.926297 
L 77.651217 132.888204 
L 78.438253 132.910728 
L 79.03761 132.937766 
L 79.676363 132.888214 
L 80.07884 132.908359 
L 80.592401 132.915744 
L 81.024367 132.864516 
L 81.625872 132.916086 
L 82.170549 132.837748 
L 82.722794 132.876369 
L 83.536342 132.888627 
L 85.196313 133.042725 
L 85.710546 133.060164 
L 86.374265 133.205238 
L 86.79617 133.235436 
L 87.437026 133.358028 
L 88.22176 133.406985 
L 89.040729 133.413479 
L 92.643188 133.042958 
L 94.058181 132.863261 
L 95.419061 132.940397 
L 96.138879 133.176797 
L 97.213052 133.669241 
L 98.694359 134.481969 
L 99.294935 134.788086 
L 99.780983 135.062144 
L 101.508082 135.540388 
L 102.073525 135.540239 
L 103.267924 135.025714 
L 103.901924 134.580624 
L 104.360353 134.104884 
L 104.823455 133.555105 
L 105.291228 133.081435 
L 106.241635 131.833503 
L 108.142447 129.665565 
L 109.128025 129.199814 
L 109.632908 129.231741 
L 110.390233 129.497363 
L 111.407498 130.52267 
L 112.041585 131.480815 
L 113.114539 133.314669 
L 114.402083 135.811071 
L 115.079922 136.85839 
L 116.029459 138.183673 
L 117.021592 139.000504 
L 117.528722 139.110346 
L 118.079573 139.119362 
L 118.661427 138.834868 
L 119.564227 137.95474 
L 122.9405 133.492008 
L 123.93164 132.769974 
L 124.5924 132.467255 
L 125.537864 132.314501 
L 127.18233 132.240646 
L 127.719594 132.087001 
L 128.540876 131.613974 
L 129.379749 130.866809 
L 131.131188 128.250253 
L 131.747639 127.149953 
L 132.685649 125.476569 
L 133.319608 124.488876 
L 133.968778 123.814903 
L 134.293364 123.600435 
L 134.942534 123.551471 
L 135.267119 123.606904 
L 135.916289 124.295852 
L 136.240875 124.686001 
L 136.56546 125.27872 
L 137.539215 127.831943 
L 138.837556 132.520208 
L 140.101397 137.326066 
L 141.098092 140.561106 
L 142.109013 142.971989 
L 142.886959 143.902404 
L 143.40692 144.12954 
L 144.446842 143.706615 
L 147.189238 140.9218 
L 147.861631 140.420724 
L 148.938546 140.348264 
L 150.525216 141.335791 
L 150.931586 141.662184 
L 151.793851 141.78092 
L 152.230889 141.748747 
L 152.688867 141.490034 
L 153.604823 140.602856 
L 154.520779 138.772326 
L 154.978757 137.5951 
L 156.260042 133.128788 
L 159.992242 118.226895 
L 161.071001 115.299 
L 161.940193 113.946629 
L 162.413773 113.632038 
L 162.800471 113.54655 
L 163.236089 113.747469 
L 163.852165 114.338354 
L 164.317803 115.207977 
L 165.143706 117.168894 
L 166.174742 120.847465 
L 166.946211 124.370488 
L 168.545342 132.23089 
L 170.521067 141.617813 
L 171.290496 144.34327 
L 172.068076 146.397336 
L 172.632246 147.17374 
L 173.22121 147.845511 
L 173.542936 148.034835 
L 174.557951 148.18206 
L 174.908021 148.103455 
L 177.457492 146.520075 
L 178.196615 146.220636 
L 178.858693 146.185364 
L 180.691229 145.471299 
L 181.849584 144.757809 
L 182.681212 143.738499 
L 183.097026 143.047392 
L 183.928654 140.797016 
L 184.571623 138.547422 
L 185.793159 133.052769 
L 187.05297 125.72843 
L 189.927577 107.405532 
L 190.768263 103.326931 
L 191.529515 100.586665 
L 191.918376 99.661239 
L 192.325776 99.190168 
L 192.623552 99.03087 
L 192.780815 99.036402 
L 193.104038 99.419667 
L 193.593635 100.762087 
L 194.117585 102.97321 
L 194.673365 106.58017 
L 195.48607 113.567281 
L 196.603704 125.934612 
L 198.57948 148.438582 
L 199.245217 153.971903 
L 199.963716 157.972635 
L 200.21367 158.748476 
L 200.463625 159.133146 
L 200.718353 159.241699 
L 200.974248 159.10509 
L 201.230144 158.629099 
L 201.741935 156.692003 
L 202.515237 152.145278 
L 204.957413 135.235992 
L 205.502696 133.454449 
L 205.783825 133.189111 
L 206.064955 133.40978 
L 206.346084 133.968667 
L 206.643736 134.974868 
L 206.98799 136.728304 
L 207.699892 142.046264 
L 210.025374 161.178071 
L 210.583745 163.679483 
L 211.002183 164.747499 
L 211.285136 164.952521 
L 211.56809 164.745327 
L 211.851043 164.171753 
L 212.294527 162.596737 
L 212.78657 159.710615 
L 213.470393 154.220977 
L 214.403515 144.622569 
L 216.481999 123.198903 
L 217.348188 117.048006 
L 218.022365 113.960551 
L 218.473559 112.515552 
L 219.122433 111.252233 
L 220.111381 110.122198 
L 220.705246 109.613331 
L 221.893256 107.85233 
L 223.098456 104.894384 
L 224.742672 100.153761 
L 225.158456 99.530411 
L 225.367049 99.455097 
L 225.575641 99.536374 
L 225.784233 99.805177 
L 226.201417 100.908306 
L 226.62753 102.818314 
L 227.277658 107.505715 
L 227.965444 114.338895 
L 229.146259 129.26214 
L 231.155196 155.18148 
L 232.079156 164.505114 
L 232.894216 170.150648 
L 233.174491 171.333307 
L 233.454767 172.017062 
L 233.735042 172.165617 
L 234.015317 171.796078 
L 234.295593 170.937761 
L 234.858797 167.407524 
L 235.703604 159.493399 
L 237.118574 145.978133 
L 237.7008 142.062363 
L 238.305859 139.234718 
L 238.622598 138.450822 
L 238.939337 138.201443 
L 239.268747 138.529662 
L 239.608847 139.513068 
L 239.958624 141.181286 
L 240.689179 146.648358 
L 241.79039 156.224524 
L 242.157461 158.647974 
L 242.524531 160.265853 
L 242.891602 160.905784 
L 243.258672 160.604212 
L 243.537732 159.859657 
L 244.10581 157.273133 
L 244.729491 153.090339 
L 245.460737 146.75009 
L 246.277191 136.943517 
L 247.292317 121.014435 
L 248.934513 94.872745 
L 249.679259 86.264479 
L 250.358576 80.951544 
L 250.845384 78.729061 
L 251.213322 77.799823 
L 251.461718 77.503522 
L 251.718639 77.455963 
L 251.982372 77.704956 
L 252.250646 78.272772 
L 252.668746 79.80227 
L 253.136181 82.636612 
L 253.82497 88.991244 
L 254.564514 98.809766 
L 255.927647 120.686498 
L 257.936346 151.549413 
L 258.626171 159.982588 
L 259.137648 163.923104 
L 259.397769 165.00023 
L 259.669143 165.307889 
L 259.80946 165.193451 
L 260.100863 164.371123 
L 260.560155 161.48949 
L 261.199564 155.80899 
L 262.249592 146.155796 
L 262.963878 141.550058 
L 263.499593 139.610914 
L 263.856736 139.186571 
L 264.035308 139.23606 
L 264.213879 139.436261 
L 264.583397 140.537757 
L 264.955705 142.626018 
L 265.339053 145.915644 
L 266.159672 155.773394 
L 267.227015 168.620807 
L 267.678181 172.075183 
L 268.129348 174.006154 
L 268.354931 174.291998 
L 268.592422 174.10545 
L 268.845218 173.534411 
L 269.098015 172.463399 
L 269.616492 168.758715 
L 270.410927 161.102806 
L 271.272639 151.001774 
L 272.594791 135.116828 
L 273.298616 129.498791 
L 273.786511 127.941441 
L 274.046199 127.709318 
L 274.305887 127.89271 
L 274.825263 128.986131 
L 275.604327 131.089783 
L 276.383391 132.07268 
L 277.540814 132.818257 
L 278.202199 133.128797 
L 278.532892 132.787426 
L 278.863655 132.025777 
L 279.156002 130.926956 
L 279.624323 127.969153 
L 280.115367 123.228272 
L 281.093841 110.25293 
L 282.507809 90.407104 
L 284.228243 70.012929 
L 284.886057 64.24366 
L 285.224831 62.36577 
L 285.414433 61.778719 
L 285.608985 61.591089 
L 285.813077 61.974099 
L 286.018043 63.014747 
L 286.427976 66.987711 
L 286.837908 73.491863 
L 287.467599 88.614446 
L 288.785358 130.592822 
L 289.969879 165.819633 
L 290.725377 183.048243 
L 291.2528 191.685448 
L 291.781849 196.406183 
L 292.053609 197.068371 
L 292.32537 196.36065 
L 292.601989 194.397161 
L 292.886444 190.915765 
L 293.455353 180.222553 
L 295.163838 141.019903 
L 295.736263 132.719705 
L 296.308688 127.994402 
L 296.594901 126.738834 
L 296.881113 126.379138 
L 297.031812 126.526566 
L 297.333208 127.50483 
L 297.658369 129.95142 
L 298.158853 136.10111 
L 298.874465 149.398365 
L 300.370081 181.192395 
L 300.766831 185.422967 
L 300.965206 186.349238 
L 301.163581 186.484808 
L 301.31667 186.140959 
L 301.629063 184.233112 
L 302.114128 179.117245 
L 303.468918 162.953886 
L 303.91434 159.843705 
L 304.605052 156.746444 
L 305.191732 154.086254 
L 305.666451 151.024078 
L 306.02249 147.020335 
L 306.620177 137.393499 
L 307.476822 118.678501 
L 308.113201 105.685983 
L 308.513479 100.507929 
L 308.786507 98.651213 
L 308.935136 98.293558 
L 309.084974 98.336496 
L 309.239429 98.723893 
L 309.576745 100.534968 
L 310.267865 105.198968 
L 310.665292 106.180324 
L 310.864006 106.096192 
L 311.063422 105.534474 
L 311.470565 103.159307 
L 312.498456 95.475301 
L 312.909612 94.040046 
L 313.11519 93.925971 
L 313.320768 94.305808 
L 313.674445 96.019212 
L 314.381798 100.087862 
L 314.558637 100.477206 
L 314.735475 100.421616 
L 314.894254 99.943354 
L 315.211813 97.369627 
L 315.689563 89.879296 
L 316.541396 75.287818 
L 316.915368 72.03795 
L 317.102353 71.530592 
L 317.301444 71.832046 
L 317.502146 72.945119 
L 317.941106 77.602937 
L 318.408689 84.758174 
L 319.113524 99.499111 
L 320.055649 120.229638 
L 320.796878 130.808868 
L 321.198116 137.526791 
L 321.599354 148.457577 
L 322.99896 195.857726 
L 323.304849 198.999139 
L 323.460171 199.546933 
L 323.615492 199.605283 
L 323.770814 199.291835 
L 324.236779 197.170568 
L 324.748604 193.941747 
L 325.155075 189.113684 
L 325.778929 177.530036 
L 326.4441 166.032204 
L 326.794155 162.110681 
L 327.108844 160.758762 
L 327.436654 160.364086 
L 327.617379 159.869673 
L 327.798104 158.649545 
L 327.979905 156.306723 
L 328.343507 146.708242 
L 329.638692 99.156516 
L 329.834745 97.071853 
L 330.030797 97.072051 
L 330.22685 99.054427 
L 330.664273 110.152929 
L 332.282554 164.315234 
L 332.755974 175.06636 
L 332.992685 178.217942 
L 333.229395 179.793376 
L 333.466105 179.947455 
L 333.702816 178.676009 
L 334.178998 175.24885 
L 334.344854 175.092593 
L 334.51071 175.707419 
L 334.732032 177.693977 
L 335.174676 185.167066 
L 336.063537 200.259482 
L 336.323453 202.552719 
L 336.456944 202.949456 
L 336.590435 202.753144 
L 336.726796 201.802806 
L 336.976573 197.73165 
L 337.368674 185.443575 
L 338.536506 131.407859 
L 339.305573 94.877361 
L 339.736827 83.767936 
L 339.991273 81.128727 
L 340.215614 80.54489 
L 340.3283 80.672236 
L 340.653257 82.336379 
L 340.925454 83.550383 
L 341.003374 83.616326 
L 341.089289 83.455079 
L 341.362559 80.988229 
L 341.861723 71.232732 
L 343.023572 45.77636 
L 343.261331 43.816846 
L 343.380211 43.868814 
L 343.49909 44.335637 
L 343.869436 48.421772 
L 344.394723 56.969687 
L 344.938036 71.36702 
L 346.079841 107.544748 
L 346.382858 112.139984 
L 346.536946 112.823047 
L 346.691034 112.506571 
L 347.089286 108.76624 
L 347.460396 105.509253 
L 347.850868 103.908109 
L 347.984253 103.872311 
L 348.123314 104.17627 
L 348.401437 106.752436 
L 348.683928 112.248829 
L 350.050553 144.839644 
L 350.527943 151.321378 
L 350.846203 153.206296 
L 351.005333 153.235741 
L 351.164463 152.665124 
L 351.482722 149.5852 
L 351.960112 140.794387 
L 352.603434 128.480227 
L 352.773082 127.682159 
L 352.94273 128.588073 
L 353.2936 135.321604 
L 354.392771 165.451224 
L 354.585583 167.909825 
L 354.778395 168.781779 
L 354.971207 167.711672 
L 355.379548 160.032894 
L 356.045921 144.043945 
L 356.277419 141.744542 
L 356.511248 141.920743 
L 356.745077 144.077804 
L 357.218767 152.287341 
L 358.949706 185.7409 
L 359.171131 186.060597 
L 359.392556 184.321426 
L 359.845659 175.134942 
L 360.531456 157.243598 
L 360.76415 154.393441 
L 360.996844 153.667164 
L 361.229538 155.1371 
L 361.694926 160.390541 
L 361.927621 162.0329 
L 362.160315 162.882314 
L 362.393009 162.578109 
L 362.858397 159.156271 
L 363.893824 150.929687 
L 364.29519 149.985056 
L 364.495873 149.90062 
L 365.028285 150.594372 
L 365.167653 150.740631 
L 365.393481 151.891829 
L 366.138676 159.171313 
L 366.480687 162.399088 
L 367.299189 166.221412 
L 367.446547 166.228106 
L 367.737079 163.773207 
L 368.473933 152.982723 
L 368.607285 153.498766 
L 368.873989 158.312685 
L 369.274045 166.66764 
L 369.416147 167.758002 
L 369.558249 167.446187 
L 369.717589 165.069325 
L 370.05295 154.539852 
L 370.757032 131.403842 
L 371.828999 102.52247 
L 372.188962 96.715336 
L 372.346794 96.238949 
L 372.504626 96.945697 
L 373.17326 103.435643 
L 373.345653 101.251833 
L 374.597767 71.304645 
L 374.900298 66.259597 
L 375.198155 57.610646 
L 375.826444 35.526922 
L 375.989387 33.52494 
L 376.15233 34.081487 
L 376.481501 41.302328 
L 377.002691 56.294146 
L 377.367917 61.034451 
L 377.550529 62.325448 
L 377.733142 64.464946 
L 378.112395 75.523735 
L 378.681275 95.332524 
L 378.870902 97.240996 
L 379.060528 96.666568 
L 379.398859 93.538952 
L 379.568024 93.007561 
L 379.713277 93.873609 
L 380.003783 99.638527 
L 380.584796 115.055348 
L 380.891494 117.903632 
L 381.051452 118.466385 
L 381.21141 119.681631 
L 381.398183 123.299545 
L 381.771729 141.468817 
L 382.332049 178.953532 
L 382.705595 189.321396 
L 382.892368 190.005801 
L 383.079142 189.281114 
L 383.826234 183.728416 
L 384.158074 176.86969 
L 385.18921 145.269943 
L 385.337216 146.887918 
L 385.973777 163.225496 
L 386.166321 164.184946 
L 386.310384 163.548624 
L 386.755111 158.50009 
L 387.372141 150.305935 
L 387.714311 139.453959 
L 388.70238 100.816955 
L 388.978229 97.038404 
L 389.116154 96.934462 
L 389.270613 97.995283 
L 389.425071 100.145711 
L 389.767955 110.884743 
L 390.315418 142.097285 
L 390.883836 177.709733 
L 391.270279 188.522904 
L 391.667319 194.792516 
L 391.86584 195.04653 
L 392.066575 193.218476 
L 392.468044 185.641719 
L 392.869514 175.654157 
L 393.070249 173.758334 
L 393.270984 174.430719 
L 393.471719 176.229374 
L 393.672453 179.14896 
L 394.274658 193.124827 
L 395.093377 198.548978 
L 395.302002 199.007232 
L 395.510627 197.072381 
L 395.719251 191.398322 
L 396.139731 164.358234 
L 396.56059 134.799779 
L 396.981828 115.501788 
L 397.403066 105.255184 
L 397.79937 101.382421 
L 397.985055 101.49387 
L 398.17074 104.365509 
L 399.25797 134.010428 
L 399.416773 132.627373 
L 399.89471 124.362534 
L 400.53196 120.434571 
L 401.328523 114.998779 
L 401.502202 115.959716 
L 402.196919 126.531686 
L 402.581363 141.839386 
L 402.971237 157.703568 
L 403.206416 162.563539 
L 403.452639 164.159059 
L 403.714207 164.217637 
L 403.847087 164.940321 
L 404.249399 168.378429 
L 404.385952 166.608472 
L 404.664267 155.078874 
L 405.245591 125.674319 
L 405.544972 119.322914 
L 406.143735 112.202283 
L 407.041879 94.991136 
L 407.490951 85.464178 
L 407.640642 85.149826 
L 407.940023 85.93495 
L 408.089714 85.087735 
L 408.389095 78.715145 
L 409.360561 46.762622 
L 409.536249 45.365096 
L 409.711936 42.467074 
L 410.071065 26.16871 
L 410.430194 11.141996 
L 410.609758 10.062685 
L 410.789322 12.813063 
L 411.157628 26.457392 
L 412.085636 71.395891 
L 412.651153 92.859305 
L 412.841431 98.212374 
L 413.229843 119.434989 
L 413.605295 141.175792 
L 413.959933 148.083857 
L 414.329216 150.550257 
L 414.513857 154.410229 
L 414.906728 174.433362 
L 415.311883 196.956889 
L 416.977929 249.917888 
L 417.186246 250.997315 
L 417.402909 243.466365 
L 418.10261 205.28499 
L 418.276413 200.598254 
L 418.450217 198.997473 
L 418.62402 199.498494 
L 418.797823 198.898731 
L 418.984974 194.055881 
L 420.207709 132.742615 
L 421.260621 82.209481 
L 421.438665 81.115824 
L 421.61671 81.527627 
L 422.150843 84.325738 
L 422.361999 83.0249 
L 422.361999 83.0249 
" style="fill:none;stroke:#e36f47;"/>
   </g>
   <g id="patch_3">
    <path d="M 64.557544 258.225354 
L 64.557544 2.834646 
" style="fill:none;stroke:#000000;stroke-linecap:square;stroke-linejoin:miter;"/>
   </g>
   <g id="patch_4">
    <path d="M 64.557544 258.225354 
L 422.361999 258.225354 
" style="fill:none;stroke:#000000;stroke-linecap:square;stroke-linejoin:miter;"/>
   </g>
   <g id="legend_1">
    <g id="patch_5">
     <path d="M 299.041999 39.119646 
L 418.361999 39.119646 
L 418.361999 6.834646 
L 299.041999 6.834646 
z
" style="fill:#ffffff;stroke:#000000;stroke-linejoin:miter;"/>
    </g>
    <g id="line2d_13">
     <path d="M 305.441999 16.513396 
L 321.441999 16.513396 
" style="fill:none;stroke:#009afa;stroke-linejoin:miter;"/>
    </g>
    <g id="line2d_14"/>
    <g id="text_13">
     <!-- GXBeam -->
     <g transform="translate(327.841999 19.313396)scale(0.08 -0.08)">
      <defs>
       <path d="M 59.515625 10.40625 
L 59.515625 29.984375 
L 43.40625 29.984375 
L 43.40625 38.09375 
L 69.28125 38.09375 
L 69.28125 6.78125 
Q 63.578125 2.734375 56.6875 0.65625 
Q 49.8125 -1.421875 42 -1.421875 
Q 24.90625 -1.421875 15.25 8.5625 
Q 5.609375 18.5625 5.609375 36.375 
Q 5.609375 54.25 15.25 64.234375 
Q 24.90625 74.21875 42 74.21875 
Q 49.125 74.21875 55.546875 72.453125 
Q 61.96875 70.703125 67.390625 67.28125 
L 67.390625 56.78125 
Q 61.921875 61.421875 55.765625 63.765625 
Q 49.609375 66.109375 42.828125 66.109375 
Q 29.4375 66.109375 22.71875 58.640625 
Q 16.015625 51.171875 16.015625 36.375 
Q 16.015625 21.625 22.71875 14.15625 
Q 29.4375 6.6875 42.828125 6.6875 
Q 48.046875 6.6875 52.140625 7.59375 
Q 56.25 8.5 59.515625 10.40625 
z
" id="DejaVuSans-71"/>
       <path d="M 6.296875 72.90625 
L 16.890625 72.90625 
L 35.015625 45.796875 
L 53.21875 72.90625 
L 63.8125 72.90625 
L 40.375 37.890625 
L 65.375 0 
L 54.78125 0 
L 34.28125 31 
L 13.625 0 
L 2.984375 0 
L 29 38.921875 
z
" id="DejaVuSans-88"/>
       <path d="M 19.671875 34.8125 
L 19.671875 8.109375 
L 35.5 8.109375 
Q 43.453125 8.109375 47.28125 11.40625 
Q 51.125 14.703125 51.125 21.484375 
Q 51.125 28.328125 47.28125 31.5625 
Q 43.453125 34.8125 35.5 34.8125 
z
M 19.671875 64.796875 
L 19.671875 42.828125 
L 34.28125 42.828125 
Q 41.5 42.828125 45.03125 45.53125 
Q 48.578125 48.25 48.578125 53.8125 
Q 48.578125 59.328125 45.03125 62.0625 
Q 41.5 64.796875 34.28125 64.796875 
z
M 9.8125 72.90625 
L 35.015625 72.90625 
Q 46.296875 72.90625 52.390625 68.21875 
Q 58.5 63.53125 58.5 54.890625 
Q 58.5 48.1875 55.375 44.234375 
Q 52.25 40.28125 46.1875 39.3125 
Q 53.46875 37.75 57.5 32.78125 
Q 61.53125 27.828125 61.53125 20.40625 
Q 61.53125 10.640625 54.890625 5.3125 
Q 48.25 0 35.984375 0 
L 9.8125 0 
z
" id="DejaVuSans-66"/>
       <path d="M 34.28125 27.484375 
Q 23.390625 27.484375 19.1875 25 
Q 14.984375 22.515625 14.984375 16.5 
Q 14.984375 11.71875 18.140625 8.90625 
Q 21.296875 6.109375 26.703125 6.109375 
Q 34.1875 6.109375 38.703125 11.40625 
Q 43.21875 16.703125 43.21875 25.484375 
L 43.21875 27.484375 
z
M 52.203125 31.203125 
L 52.203125 0 
L 43.21875 0 
L 43.21875 8.296875 
Q 40.140625 3.328125 35.546875 0.953125 
Q 30.953125 -1.421875 24.3125 -1.421875 
Q 15.921875 -1.421875 10.953125 3.296875 
Q 6 8.015625 6 15.921875 
Q 6 25.140625 12.171875 29.828125 
Q 18.359375 34.515625 30.609375 34.515625 
L 43.21875 34.515625 
L 43.21875 35.40625 
Q 43.21875 41.609375 39.140625 45 
Q 35.0625 48.390625 27.6875 48.390625 
Q 23 48.390625 18.546875 47.265625 
Q 14.109375 46.140625 10.015625 43.890625 
L 10.015625 52.203125 
Q 14.9375 54.109375 19.578125 55.046875 
Q 24.21875 56 28.609375 56 
Q 40.484375 56 46.34375 49.84375 
Q 52.203125 43.703125 52.203125 31.203125 
z
" id="DejaVuSans-97"/>
      </defs>
      <use xlink:href="#DejaVuSans-71"/>
      <use x="77.490234" xlink:href="#DejaVuSans-88"/>
      <use x="145.996094" xlink:href="#DejaVuSans-66"/>
      <use x="214.599609" xlink:href="#DejaVuSans-101"/>
      <use x="276.123047" xlink:href="#DejaVuSans-97"/>
      <use x="337.402344" xlink:href="#DejaVuSans-109"/>
     </g>
    </g>
    <g id="line2d_15">
     <path d="M 305.441999 28.255896 
L 321.441999 28.255896 
" style="fill:none;stroke:#e36f47;stroke-linejoin:miter;"/>
    </g>
    <g id="line2d_16"/>
    <g id="text_14">
     <!-- DifferentialEquations -->
     <g transform="translate(327.841999 31.055896)scale(0.08 -0.08)">
      <defs>
       <path d="M 19.671875 64.796875 
L 19.671875 8.109375 
L 31.59375 8.109375 
Q 46.6875 8.109375 53.6875 14.9375 
Q 60.6875 21.78125 60.6875 36.53125 
Q 60.6875 51.171875 53.6875 57.984375 
Q 46.6875 64.796875 31.59375 64.796875 
z
M 9.8125 72.90625 
L 30.078125 72.90625 
Q 51.265625 72.90625 61.171875 64.09375 
Q 71.09375 55.28125 71.09375 36.53125 
Q 71.09375 17.671875 61.125 8.828125 
Q 51.171875 0 30.078125 0 
L 9.8125 0 
z
" id="DejaVuSans-68"/>
       <path d="M 37.109375 75.984375 
L 37.109375 68.5 
L 28.515625 68.5 
Q 23.6875 68.5 21.796875 66.546875 
Q 19.921875 64.59375 19.921875 59.515625 
L 19.921875 54.6875 
L 34.71875 54.6875 
L 34.71875 47.703125 
L 19.921875 47.703125 
L 19.921875 0 
L 10.890625 0 
L 10.890625 47.703125 
L 2.296875 47.703125 
L 2.296875 54.6875 
L 10.890625 54.6875 
L 10.890625 58.5 
Q 10.890625 67.625 15.140625 71.796875 
Q 19.390625 75.984375 28.609375 75.984375 
z
" id="DejaVuSans-102"/>
       <path d="M 41.109375 46.296875 
Q 39.59375 47.171875 37.8125 47.578125 
Q 36.03125 48 33.890625 48 
Q 26.265625 48 22.1875 43.046875 
Q 18.109375 38.09375 18.109375 28.8125 
L 18.109375 0 
L 9.078125 0 
L 9.078125 54.6875 
L 18.109375 54.6875 
L 18.109375 46.1875 
Q 20.953125 51.171875 25.484375 53.578125 
Q 30.03125 56 36.53125 56 
Q 37.453125 56 38.578125 55.875 
Q 39.703125 55.765625 41.0625 55.515625 
z
" id="DejaVuSans-114"/>
       <path d="M 54.890625 33.015625 
L 54.890625 0 
L 45.90625 0 
L 45.90625 32.71875 
Q 45.90625 40.484375 42.875 44.328125 
Q 39.84375 48.1875 33.796875 48.1875 
Q 26.515625 48.1875 22.3125 43.546875 
Q 18.109375 38.921875 18.109375 30.90625 
L 18.109375 0 
L 9.078125 0 
L 9.078125 54.6875 
L 18.109375 54.6875 
L 18.109375 46.1875 
Q 21.34375 51.125 25.703125 53.5625 
Q 30.078125 56 35.796875 56 
Q 45.21875 56 50.046875 50.171875 
Q 54.890625 44.34375 54.890625 33.015625 
z
" id="DejaVuSans-110"/>
       <path d="M 18.3125 70.21875 
L 18.3125 54.6875 
L 36.8125 54.6875 
L 36.8125 47.703125 
L 18.3125 47.703125 
L 18.3125 18.015625 
Q 18.3125 11.328125 20.140625 9.421875 
Q 21.96875 7.515625 27.59375 7.515625 
L 36.8125 7.515625 
L 36.8125 0 
L 27.59375 0 
Q 17.1875 0 13.234375 3.875 
Q 9.28125 7.765625 9.28125 18.015625 
L 9.28125 47.703125 
L 2.6875 47.703125 
L 2.6875 54.6875 
L 9.28125 54.6875 
L 9.28125 70.21875 
z
" id="DejaVuSans-116"/>
       <path d="M 9.421875 75.984375 
L 18.40625 75.984375 
L 18.40625 0 
L 9.421875 0 
z
" id="DejaVuSans-108"/>
       <path d="M 9.8125 72.90625 
L 55.90625 72.90625 
L 55.90625 64.59375 
L 19.671875 64.59375 
L 19.671875 43.015625 
L 54.390625 43.015625 
L 54.390625 34.71875 
L 19.671875 34.71875 
L 19.671875 8.296875 
L 56.78125 8.296875 
L 56.78125 0 
L 9.8125 0 
z
" id="DejaVuSans-69"/>
       <path d="M 14.796875 27.296875 
Q 14.796875 17.390625 18.875 11.75 
Q 22.953125 6.109375 30.078125 6.109375 
Q 37.203125 6.109375 41.296875 11.75 
Q 45.40625 17.390625 45.40625 27.296875 
Q 45.40625 37.203125 41.296875 42.84375 
Q 37.203125 48.484375 30.078125 48.484375 
Q 22.953125 48.484375 18.875 42.84375 
Q 14.796875 37.203125 14.796875 27.296875 
z
M 45.40625 8.203125 
Q 42.578125 3.328125 38.25 0.953125 
Q 33.9375 -1.421875 27.875 -1.421875 
Q 17.96875 -1.421875 11.734375 6.484375 
Q 5.515625 14.40625 5.515625 27.296875 
Q 5.515625 40.1875 11.734375 48.09375 
Q 17.96875 56 27.875 56 
Q 33.9375 56 38.25 53.625 
Q 42.578125 51.265625 45.40625 46.390625 
L 45.40625 54.6875 
L 54.390625 54.6875 
L 54.390625 -20.796875 
L 45.40625 -20.796875 
z
" id="DejaVuSans-113"/>
       <path d="M 8.5 21.578125 
L 8.5 54.6875 
L 17.484375 54.6875 
L 17.484375 21.921875 
Q 17.484375 14.15625 20.5 10.265625 
Q 23.53125 6.390625 29.59375 6.390625 
Q 36.859375 6.390625 41.078125 11.03125 
Q 45.3125 15.671875 45.3125 23.6875 
L 45.3125 54.6875 
L 54.296875 54.6875 
L 54.296875 0 
L 45.3125 0 
L 45.3125 8.40625 
Q 42.046875 3.421875 37.71875 1 
Q 33.40625 -1.421875 27.6875 -1.421875 
Q 18.265625 -1.421875 13.375 4.4375 
Q 8.5 10.296875 8.5 21.578125 
z
M 31.109375 56 
z
" id="DejaVuSans-117"/>
       <path d="M 30.609375 48.390625 
Q 23.390625 48.390625 19.1875 42.75 
Q 14.984375 37.109375 14.984375 27.296875 
Q 14.984375 17.484375 19.15625 11.84375 
Q 23.34375 6.203125 30.609375 6.203125 
Q 37.796875 6.203125 41.984375 11.859375 
Q 46.1875 17.53125 46.1875 27.296875 
Q 46.1875 37.015625 41.984375 42.703125 
Q 37.796875 48.390625 30.609375 48.390625 
z
M 30.609375 56 
Q 42.328125 56 49.015625 48.375 
Q 55.71875 40.765625 55.71875 27.296875 
Q 55.71875 13.875 49.015625 6.21875 
Q 42.328125 -1.421875 30.609375 -1.421875 
Q 18.84375 -1.421875 12.171875 6.21875 
Q 5.515625 13.875 5.515625 27.296875 
Q 5.515625 40.765625 12.171875 48.375 
Q 18.84375 56 30.609375 56 
z
" id="DejaVuSans-111"/>
      </defs>
      <use xlink:href="#DejaVuSans-68"/>
      <use x="77.001953" xlink:href="#DejaVuSans-105"/>
      <use x="104.785156" xlink:href="#DejaVuSans-102"/>
      <use x="139.990234" xlink:href="#DejaVuSans-102"/>
      <use x="175.195312" xlink:href="#DejaVuSans-101"/>
      <use x="236.71875" xlink:href="#DejaVuSans-114"/>
      <use x="275.582031" xlink:href="#DejaVuSans-101"/>
      <use x="337.105469" xlink:href="#DejaVuSans-110"/>
      <use x="400.484375" xlink:href="#DejaVuSans-116"/>
      <use x="439.693359" xlink:href="#DejaVuSans-105"/>
      <use x="467.476562" xlink:href="#DejaVuSans-97"/>
      <use x="528.755859" xlink:href="#DejaVuSans-108"/>
      <use x="556.539062" xlink:href="#DejaVuSans-69"/>
      <use x="619.722656" xlink:href="#DejaVuSans-113"/>
      <use x="683.199219" xlink:href="#DejaVuSans-117"/>
      <use x="746.578125" xlink:href="#DejaVuSans-97"/>
      <use x="807.857422" xlink:href="#DejaVuSans-116"/>
      <use x="847.066406" xlink:href="#DejaVuSans-105"/>
      <use x="874.849609" xlink:href="#DejaVuSans-111"/>
      <use x="936.03125" xlink:href="#DejaVuSans-110"/>
      <use x="999.410156" xlink:href="#DejaVuSans-115"/>
     </g>
    </g>
   </g>
  </g>
 </g>
 <defs>
  <clipPath id="p7f0b64ede4">
   <rect height="255.390709" width="357.804455" x="64.557544" y="2.834646"/>
  </clipPath>
 </defs>
</svg>
