<?xml version="1.0" encoding="utf-8" standalone="no"?>
<!DOCTYPE svg PUBLIC "-//W3C//DTD SVG 1.1//EN"
  "http://www.w3.org/Graphics/SVG/1.1/DTD/svg11.dtd">
<!-- Created with matplotlib (https://matplotlib.org/) -->
<svg height="288pt" version="1.1" viewBox="0 0 432 288" width="432pt" xmlns="http://www.w3.org/2000/svg" xmlns:xlink="http://www.w3.org/1999/xlink">
 <metadata>
  <rdf:RDF xmlns:cc="http://creativecommons.org/ns#" xmlns:dc="http://purl.org/dc/elements/1.1/" xmlns:rdf="http://www.w3.org/1999/02/22-rdf-syntax-ns#">
   <cc:Work>
    <dc:type rdf:resource="http://purl.org/dc/dcmitype/StillImage"/>
    <dc:date>2021-06-08T21:23:37.212151</dc:date>
    <dc:format>image/svg+xml</dc:format>
    <dc:creator>
     <cc:Agent>
      <dc:title>Matplotlib v3.3.4, https://matplotlib.org/</dc:title>
     </cc:Agent>
    </dc:creator>
   </cc:Work>
  </rdf:RDF>
 </metadata>
 <defs>
  <style type="text/css">*{stroke-linecap:butt;stroke-linejoin:round;}</style>
 </defs>
 <g id="figure_1">
  <g id="patch_1">
   <path d="M 0 288 
L 432 288 
L 432 0 
L 0 0 
z
" style="fill:#ffffff;"/>
  </g>
  <g id="axes_1">
   <g id="patch_2">
    <path d="M 42.933593 258.225354 
L 422.361999 258.225354 
L 422.361999 2.834646 
L 42.933593 2.834646 
z
" style="fill:#ffffff;"/>
   </g>
   <g id="line2d_1">
    <path clip-path="url(#pddbcbe7600)" d="M 42.933593 106.871218 
L 43.69245 106.960357 
L 44.641021 107.261919 
L 45.96902 108.140571 
L 47.297019 109.380183 
L 48.435305 110.868879 
L 50.901589 114.960899 
L 52.419303 117.879488 
L 54.506159 122.784299 
L 56.78273 128.636307 
L 58.679872 133.370687 
L 61.905013 140.425966 
L 67.027297 151.035282 
L 68.355296 152.842783 
L 69.493581 154.046962 
L 70.252438 154.583453 
L 71.201009 154.955071 
L 72.529008 155.077616 
L 73.667294 154.884561 
L 74.236436 154.569294 
L 74.995293 153.916773 
L 75.943864 152.728606 
L 77.271863 150.743056 
L 78.410149 148.762252 
L 81.445576 143.342527 
L 83.342718 140.218566 
L 87.137002 133.274023 
L 89.223858 129.107606 
L 91.121 125.333804 
L 94.535856 117.615988 
L 96.812426 112.301517 
L 98.140426 110.008032 
L 99.658139 107.937934 
L 100.796425 106.816545 
L 102.314138 105.817496 
L 104.590709 104.563758 
L 105.159851 104.476186 
L 106.108422 104.572248 
L 107.246708 104.992316 
L 108.005564 105.494545 
L 108.764421 106.227239 
L 109.902706 107.813125 
L 111.42042 110.391946 
L 112.558705 112.775152 
L 113.696991 115.851528 
L 115.02499 120.161398 
L 116.352989 125.128972 
L 118.439846 134.124751 
L 120.716416 143.355379 
L 122.423844 149.594783 
L 123.941557 154.232907 
L 125.8387 159.158833 
L 126.787271 161.140936 
L 127.735842 162.594326 
L 128.684413 163.635299 
L 129.822698 164.568471 
L 130.771269 165.059976 
L 131.71984 165.263761 
L 133.806696 165.451929 
L 134.565553 165.352596 
L 135.32441 164.998585 
L 135.893552 164.461194 
L 136.652409 163.441642 
L 137.411266 162.029128 
L 138.170123 160.239676 
L 139.118694 157.300567 
L 140.067265 153.664022 
L 141.964407 145.278417 
L 144.051263 135.217356 
L 148.035261 115.809471 
L 149.552975 109.251556 
L 150.880974 104.612695 
L 152.398688 100.219265 
L 153.726687 97.137385 
L 156.192972 92.375374 
L 157.331257 90.541367 
L 158.090114 89.641561 
L 159.038685 88.899986 
L 159.797542 88.532573 
L 160.746113 88.322628 
L 161.50497 88.4088 
L 162.643255 88.815479 
L 165.299254 90.147493 
L 166.058111 90.976972 
L 166.816967 92.175655 
L 167.575824 93.793964 
L 168.524395 96.44506 
L 169.472966 99.918392 
L 170.611251 105.111255 
L 172.887822 117.073731 
L 175.354107 131.201491 
L 177.820391 146.535208 
L 180.666104 164.538001 
L 182.563246 174.707298 
L 184.270674 182.747898 
L 186.736959 193.206977 
L 187.875244 197.365227 
L 188.823815 200.061306 
L 189.582672 201.613824 
L 190.151814 202.418912 
L 190.720957 202.905007 
L 191.2901 203.057017 
L 191.859242 202.891043 
L 192.428385 202.463857 
L 193.376956 201.341895 
L 195.843241 197.919544 
L 196.602097 196.500275 
L 197.550668 194.155309 
L 198.499239 191.059173 
L 199.44781 187.169924 
L 200.396381 182.240415 
L 201.534667 174.920528 
L 204.570094 154.433589 
L 206.846664 141.504092 
L 208.364378 132.648895 
L 209.502663 124.497077 
L 213.296947 95.728397 
L 214.814661 86.172466 
L 219.936944 57.435551 
L 220.885515 54.048706 
L 221.644372 52.030803 
L 222.213515 50.925284 
L 222.782657 50.307945 
L 223.162086 50.209847 
L 223.541514 50.357487 
L 223.920943 50.719221 
L 224.490085 51.601046 
L 226.007799 54.228129 
L 226.766656 55.070301 
L 227.335798 55.432295 
L 227.904941 55.587014 
L 228.284369 55.537194 
L 228.663798 55.338488 
L 229.23294 54.690444 
L 229.802083 53.616444 
L 231.699225 49.390504 
L 232.078653 49.096158 
L 232.458082 49.124421 
L 232.83751 49.47528 
L 233.406653 50.537606 
L 233.975795 52.155589 
L 234.734652 55.177521 
L 235.493509 59.464857 
L 236.252366 65.160771 
L 241.184935 107.893337 
L 243.65122 132.728763 
L 246.117504 159.060992 
L 247.066075 166.217387 
L 248.773503 176.825566 
L 250.291217 185.33159 
L 251.80893 193.772533 
L 254.275215 209.144018 
L 254.844358 211.192324 
L 255.603215 212.952954 
L 256.931214 215.568817 
L 260.156355 223.148051 
L 260.915212 225.828758 
L 262.243212 230.824757 
L 262.62264 231.557183 
L 263.002068 231.744364 
L 263.191783 231.609459 
L 263.571211 230.866226 
L 264.140354 228.719862 
L 265.088925 223.517906 
L 271.539208 185.852455 
L 272.487779 177.690792 
L 274.574635 158.83338 
L 276.282063 145.700816 
L 277.04092 141.180678 
L 277.799776 137.916175 
L 279.507204 131.782815 
L 280.266061 127.885547 
L 284.060345 106.600842 
L 284.629488 104.541001 
L 285.008916 103.673471 
L 285.388344 103.24483 
L 285.578059 103.21016 
L 285.957487 103.515021 
L 286.336915 104.246486 
L 286.906058 105.900115 
L 288.8032 112.04293 
L 289.372343 113.099913 
L 289.751771 113.417238 
L 290.1312 113.388015 
L 290.510628 112.933016 
L 290.890056 111.987467 
L 291.459199 109.67766 
L 292.028342 106.179766 
L 292.787198 99.934926 
L 294.68434 83.177641 
L 295.253483 80.021113 
L 295.632911 78.74922 
L 296.01234 78.212445 
L 296.202054 78.248515 
L 296.391768 78.493443 
L 296.771197 79.612272 
L 297.150625 81.594128 
L 297.719768 86.168659 
L 298.478624 94.588906 
L 299.996338 112.246127 
L 300.755195 118.334739 
L 301.514052 122.526252 
L 302.272909 125.503529 
L 303.031765 127.695708 
L 304.170051 130.596757 
L 304.739193 132.96413 
L 305.308336 136.70896 
L 305.877478 141.9775 
L 306.636335 151.200513 
L 308.154049 170.502672 
L 308.912906 176.967438 
L 309.482048 180.075422 
L 310.051191 182.125466 
L 310.620334 183.444812 
L 310.999762 183.831522 
L 311.37919 183.773862 
L 311.758619 183.346518 
L 312.327761 182.496085 
L 312.517476 182.398748 
L 312.70719 182.511491 
L 312.896904 182.896783 
L 313.276332 184.65987 
L 313.655761 187.90572 
L 314.224903 195.348004 
L 316.31176 226.663026 
L 317.260331 236.225522 
L 318.398616 245.652829 
L 318.967758 249.123135 
L 319.347187 250.300598 
L 319.536901 250.41314 
L 319.726615 250.168385 
L 320.106044 248.565392 
L 320.485472 245.585259 
L 321.434043 234.94449 
L 322.1929 227.718929 
L 322.572328 225.555179 
L 322.951757 224.388568 
L 323.331185 224.070205 
L 323.710614 224.29363 
L 324.279756 225.067677 
L 325.038613 226.135775 
L 325.607756 226.591066 
L 326.176898 226.900796 
L 326.556327 227.586965 
L 326.935755 229.008029 
L 327.504898 232.486099 
L 328.263754 237.362011 
L 328.643183 238.672442 
L 328.832897 238.877985 
L 329.022611 238.737176 
L 329.212325 238.253768 
L 329.591754 236.283146 
L 330.160896 231.190182 
L 331.299182 217.334846 
L 332.627181 201.211743 
L 335.662608 168.276219 
L 336.421465 163.949963 
L 337.55975 158.058991 
L 340.405463 140.825276 
L 340.974606 135.591497 
L 342.871748 116.250101 
L 343.440891 113.327194 
L 344.76889 107.545231 
L 346.855746 95.672461 
L 347.994032 92.283551 
L 348.37346 90.40963 
L 348.752888 87.728745 
L 349.322031 81.929573 
L 350.270602 71.934349 
L 350.65003 69.648195 
L 351.029459 68.524657 
L 351.219173 68.356061 
L 351.408887 68.424163 
L 351.788316 69.095008 
L 352.357458 70.227046 
L 352.547172 70.319473 
L 352.736887 70.188632 
L 353.116315 69.237002 
L 354.064886 65.984284 
L 354.2546 65.756534 
L 354.444314 65.804159 
L 354.634029 66.163893 
L 355.013457 67.911109 
L 355.5826 72.683615 
L 356.531171 81.233959 
L 356.910599 82.957344 
L 357.100313 83.194379 
L 357.290028 82.973781 
L 357.669456 81.289083 
L 358.428313 76.262634 
L 358.618027 75.603533 
L 358.807741 75.384311 
L 358.997455 75.597763 
L 359.376884 77.13683 
L 359.946026 81.275552 
L 360.894597 88.93518 
L 361.084312 89.622554 
L 361.274026 89.739397 
L 361.46374 89.284702 
L 361.843168 87.011514 
L 362.602025 81.318966 
L 362.981454 79.998921 
L 363.171168 79.872592 
L 363.360882 80.080818 
L 363.550596 80.628622 
L 363.930025 82.779074 
L 364.499167 88.259412 
L 365.06831 93.423428 
L 365.258024 94.29672 
L 365.447738 94.629448 
L 365.637452 94.44024 
L 366.016881 92.808102 
L 366.965452 86.602506 
L 367.155166 86.03474 
L 367.34488 85.960272 
L 367.534594 86.452899 
L 367.914023 89.14665 
L 368.483165 96.396559 
L 369.242022 106.124672 
L 369.621451 108.59883 
L 369.811165 109.166081 
L 370.000879 109.342753 
L 370.190593 109.194968 
L 370.759736 108.267753 
L 370.94945 108.420006 
L 371.139164 109.053671 
L 371.518593 111.972403 
L 372.087735 120.15422 
L 373.226021 138.94129 
L 373.605449 142.249695 
L 373.984877 143.460656 
L 374.174592 143.466939 
L 374.55402 143.213826 
L 374.743734 143.372097 
L 374.933448 143.903342 
L 375.312877 146.297575 
L 375.692305 150.766083 
L 376.261448 161.356462 
L 377.020305 175.818731 
L 377.589447 182.502131 
L 377.968876 184.557596 
L 378.348304 185.164307 
L 378.727732 185.5234 
L 378.917447 186.0253 
L 379.296875 188.078611 
L 379.866018 193.512544 
L 381.194017 208.979561 
L 381.573446 210.433481 
L 381.76316 210.416707 
L 381.952874 209.97264 
L 382.332302 208.113348 
L 383.091159 202.384168 
L 383.660302 198.835143 
L 383.850016 198.541951 
L 384.03973 198.877472 
L 384.419159 201.139929 
L 384.988301 205.299783 
L 385.36773 206.449667 
L 385.557444 206.517346 
L 386.316301 206.083065 
L 386.506015 205.883058 
L 386.695729 205.451045 
L 387.075157 203.584472 
L 387.6443 199.821242 
L 387.834014 199.222892 
L 388.023728 199.271237 
L 388.213443 199.996777 
L 388.782585 204.471962 
L 389.351728 208.130849 
L 390.490013 212.640916 
L 390.679727 212.701874 
L 390.869441 212.228515 
L 391.24887 209.726702 
L 391.818013 205.200211 
L 392.007727 204.480431 
L 392.197441 204.27293 
L 392.387155 204.453815 
L 392.956298 205.376538 
L 393.146012 205.321327 
L 393.52544 204.516564 
L 394.094583 202.531749 
L 394.474011 200.168377 
L 394.85344 195.935257 
L 396.750582 169.672904 
L 397.319724 165.664572 
L 397.888867 162.359518 
L 398.647724 155.948637 
L 399.406581 147.767184 
L 400.165437 138.7325 
L 400.544866 137.169094 
L 400.73458 137.082078 
L 401.303723 137.113479 
L 401.683151 137.058762 
L 401.872865 137.081374 
L 402.062579 136.953963 
L 402.252294 136.406611 
L 402.442008 135.15928 
L 402.821436 130.337719 
L 404.528864 103.043221 
L 404.908293 100.583097 
L 405.477435 97.953925 
L 406.236292 93.733476 
L 406.61572 89.347246 
L 407.564291 74.828212 
L 408.323148 66.734143 
L 408.512862 65.990694 
L 408.702577 65.927747 
L 409.082005 66.867881 
L 409.840862 68.810527 
L 410.030576 69.071171 
L 410.22029 68.932025 
L 410.410004 68.153116 
L 410.789433 64.373334 
L 412.307146 43.471396 
L 412.876289 38.840471 
L 413.255717 37.327558 
L 413.82486 36.026207 
L 414.204288 33.846388 
L 414.963145 25.618304 
L 416.291145 11.246273 
L 416.480859 10.75628 
L 416.670573 11.123178 
L 417.050002 13.727598 
L 417.998573 22.882015 
L 418.567715 28.556018 
L 418.947144 30.254807 
L 419.136858 30.36507 
L 419.326572 30.114986 
L 419.895715 28.811026 
L 420.085429 28.700919 
L 420.275143 28.906078 
L 420.654571 30.226503 
L 421.034 32.529119 
L 421.603142 37.753564 
L 422.361999 47.411309 
L 422.361999 47.411309 
" style="fill:none;stroke:#009afa;"/>
   </g>
   <g id="matplotlib.axis_1">
    <g id="xtick_1">
     <g id="line2d_2">
      <defs>
       <path d="M 0 0 
L 0 -2.5 
" id="me2cf647815" style="stroke:#000000;stroke-width:0.5;"/>
      </defs>
      <g>
       <use style="stroke:#000000;stroke-width:0.5;" x="42.933593" xlink:href="#me2cf647815" y="258.225354"/>
      </g>
     </g>
     <g id="text_1">
      <!-- $\mathregular{0.0}$ -->
      <g transform="translate(36.533593 267.804104)scale(0.08 -0.08)">
       <defs>
        <path d="M 31.78125 66.40625 
Q 24.171875 66.40625 20.328125 58.90625 
Q 16.5 51.421875 16.5 36.375 
Q 16.5 21.390625 20.328125 13.890625 
Q 24.171875 6.390625 31.78125 6.390625 
Q 39.453125 6.390625 43.28125 13.890625 
Q 47.125 21.390625 47.125 36.375 
Q 47.125 51.421875 43.28125 58.90625 
Q 39.453125 66.40625 31.78125 66.40625 
z
M 31.78125 74.21875 
Q 44.046875 74.21875 50.515625 64.515625 
Q 56.984375 54.828125 56.984375 36.375 
Q 56.984375 17.96875 50.515625 8.265625 
Q 44.046875 -1.421875 31.78125 -1.421875 
Q 19.53125 -1.421875 13.0625 8.265625 
Q 6.59375 17.96875 6.59375 36.375 
Q 6.59375 54.828125 13.0625 64.515625 
Q 19.53125 74.21875 31.78125 74.21875 
z
" id="DejaVuSans-48"/>
        <path d="M 10.6875 12.40625 
L 21 12.40625 
L 21 0 
L 10.6875 0 
z
" id="DejaVuSans-46"/>
       </defs>
       <use transform="translate(0 0.78125)" xlink:href="#DejaVuSans-48"/>
       <use transform="translate(63.623047 0.78125)" xlink:href="#DejaVuSans-46"/>
       <use transform="translate(95.410156 0.78125)" xlink:href="#DejaVuSans-48"/>
      </g>
     </g>
    </g>
    <g id="xtick_2">
     <g id="line2d_3">
      <g>
       <use style="stroke:#000000;stroke-width:0.5;" x="137.790694" xlink:href="#me2cf647815" y="258.225354"/>
      </g>
     </g>
     <g id="text_2">
      <!-- $\mathregular{0.5}$ -->
      <g transform="translate(131.390694 267.804104)scale(0.08 -0.08)">
       <defs>
        <path d="M 10.796875 72.90625 
L 49.515625 72.90625 
L 49.515625 64.59375 
L 19.828125 64.59375 
L 19.828125 46.734375 
Q 21.96875 47.46875 24.109375 47.828125 
Q 26.265625 48.1875 28.421875 48.1875 
Q 40.625 48.1875 47.75 41.5 
Q 54.890625 34.8125 54.890625 23.390625 
Q 54.890625 11.625 47.5625 5.09375 
Q 40.234375 -1.421875 26.90625 -1.421875 
Q 22.3125 -1.421875 17.546875 -0.640625 
Q 12.796875 0.140625 7.71875 1.703125 
L 7.71875 11.625 
Q 12.109375 9.234375 16.796875 8.0625 
Q 21.484375 6.890625 26.703125 6.890625 
Q 35.15625 6.890625 40.078125 11.328125 
Q 45.015625 15.765625 45.015625 23.390625 
Q 45.015625 31 40.078125 35.4375 
Q 35.15625 39.890625 26.703125 39.890625 
Q 22.75 39.890625 18.8125 39.015625 
Q 14.890625 38.140625 10.796875 36.28125 
z
" id="DejaVuSans-53"/>
       </defs>
       <use transform="translate(0 0.78125)" xlink:href="#DejaVuSans-48"/>
       <use transform="translate(63.623047 0.78125)" xlink:href="#DejaVuSans-46"/>
       <use transform="translate(95.410156 0.78125)" xlink:href="#DejaVuSans-53"/>
      </g>
     </g>
    </g>
    <g id="xtick_3">
     <g id="line2d_4">
      <g>
       <use style="stroke:#000000;stroke-width:0.5;" x="232.647796" xlink:href="#me2cf647815" y="258.225354"/>
      </g>
     </g>
     <g id="text_3">
      <!-- $\mathregular{1.0}$ -->
      <g transform="translate(226.247796 267.804104)scale(0.08 -0.08)">
       <defs>
        <path d="M 12.40625 8.296875 
L 28.515625 8.296875 
L 28.515625 63.921875 
L 10.984375 60.40625 
L 10.984375 69.390625 
L 28.421875 72.90625 
L 38.28125 72.90625 
L 38.28125 8.296875 
L 54.390625 8.296875 
L 54.390625 0 
L 12.40625 0 
z
" id="DejaVuSans-49"/>
       </defs>
       <use transform="translate(0 0.78125)" xlink:href="#DejaVuSans-49"/>
       <use transform="translate(63.623047 0.78125)" xlink:href="#DejaVuSans-46"/>
       <use transform="translate(95.410156 0.78125)" xlink:href="#DejaVuSans-48"/>
      </g>
     </g>
    </g>
    <g id="xtick_4">
     <g id="line2d_5">
      <g>
       <use style="stroke:#000000;stroke-width:0.5;" x="327.504898" xlink:href="#me2cf647815" y="258.225354"/>
      </g>
     </g>
     <g id="text_4">
      <!-- $\mathregular{1.5}$ -->
      <g transform="translate(321.104898 267.804104)scale(0.08 -0.08)">
       <use transform="translate(0 0.09375)" xlink:href="#DejaVuSans-49"/>
       <use transform="translate(63.623047 0.09375)" xlink:href="#DejaVuSans-46"/>
       <use transform="translate(95.410156 0.09375)" xlink:href="#DejaVuSans-53"/>
      </g>
     </g>
    </g>
    <g id="xtick_5">
     <g id="line2d_6">
      <g>
       <use style="stroke:#000000;stroke-width:0.5;" x="422.361999" xlink:href="#me2cf647815" y="258.225354"/>
      </g>
     </g>
     <g id="text_5">
      <!-- $\mathregular{2.0}$ -->
      <g transform="translate(415.961999 267.804104)scale(0.08 -0.08)">
       <defs>
        <path d="M 19.1875 8.296875 
L 53.609375 8.296875 
L 53.609375 0 
L 7.328125 0 
L 7.328125 8.296875 
Q 12.9375 14.109375 22.625 23.890625 
Q 32.328125 33.6875 34.8125 36.53125 
Q 39.546875 41.84375 41.421875 45.53125 
Q 43.3125 49.21875 43.3125 52.78125 
Q 43.3125 58.59375 39.234375 62.25 
Q 35.15625 65.921875 28.609375 65.921875 
Q 23.96875 65.921875 18.8125 64.3125 
Q 13.671875 62.703125 7.8125 59.421875 
L 7.8125 69.390625 
Q 13.765625 71.78125 18.9375 73 
Q 24.125 74.21875 28.421875 74.21875 
Q 39.75 74.21875 46.484375 68.546875 
Q 53.21875 62.890625 53.21875 53.421875 
Q 53.21875 48.921875 51.53125 44.890625 
Q 49.859375 40.875 45.40625 35.40625 
Q 44.1875 33.984375 37.640625 27.21875 
Q 31.109375 20.453125 19.1875 8.296875 
z
" id="DejaVuSans-50"/>
       </defs>
       <use transform="translate(0 0.78125)" xlink:href="#DejaVuSans-50"/>
       <use transform="translate(63.623047 0.78125)" xlink:href="#DejaVuSans-46"/>
       <use transform="translate(95.410156 0.78125)" xlink:href="#DejaVuSans-48"/>
      </g>
     </g>
    </g>
    <g id="text_6">
     <!-- Time (s) -->
     <g transform="translate(210.285999 281.826136)scale(0.11 -0.11)">
      <defs>
       <path d="M -0.296875 72.90625 
L 61.375 72.90625 
L 61.375 64.59375 
L 35.5 64.59375 
L 35.5 0 
L 25.59375 0 
L 25.59375 64.59375 
L -0.296875 64.59375 
z
" id="DejaVuSans-84"/>
       <path d="M 9.421875 54.6875 
L 18.40625 54.6875 
L 18.40625 0 
L 9.421875 0 
z
M 9.421875 75.984375 
L 18.40625 75.984375 
L 18.40625 64.59375 
L 9.421875 64.59375 
z
" id="DejaVuSans-105"/>
       <path d="M 52 44.1875 
Q 55.375 50.25 60.0625 53.125 
Q 64.75 56 71.09375 56 
Q 79.640625 56 84.28125 50.015625 
Q 88.921875 44.046875 88.921875 33.015625 
L 88.921875 0 
L 79.890625 0 
L 79.890625 32.71875 
Q 79.890625 40.578125 77.09375 44.375 
Q 74.3125 48.1875 68.609375 48.1875 
Q 61.625 48.1875 57.5625 43.546875 
Q 53.515625 38.921875 53.515625 30.90625 
L 53.515625 0 
L 44.484375 0 
L 44.484375 32.71875 
Q 44.484375 40.625 41.703125 44.40625 
Q 38.921875 48.1875 33.109375 48.1875 
Q 26.21875 48.1875 22.15625 43.53125 
Q 18.109375 38.875 18.109375 30.90625 
L 18.109375 0 
L 9.078125 0 
L 9.078125 54.6875 
L 18.109375 54.6875 
L 18.109375 46.1875 
Q 21.1875 51.21875 25.484375 53.609375 
Q 29.78125 56 35.6875 56 
Q 41.65625 56 45.828125 52.96875 
Q 50 49.953125 52 44.1875 
z
" id="DejaVuSans-109"/>
       <path d="M 56.203125 29.59375 
L 56.203125 25.203125 
L 14.890625 25.203125 
Q 15.484375 15.921875 20.484375 11.0625 
Q 25.484375 6.203125 34.421875 6.203125 
Q 39.59375 6.203125 44.453125 7.46875 
Q 49.3125 8.734375 54.109375 11.28125 
L 54.109375 2.78125 
Q 49.265625 0.734375 44.1875 -0.34375 
Q 39.109375 -1.421875 33.890625 -1.421875 
Q 20.796875 -1.421875 13.15625 6.1875 
Q 5.515625 13.8125 5.515625 26.8125 
Q 5.515625 40.234375 12.765625 48.109375 
Q 20.015625 56 32.328125 56 
Q 43.359375 56 49.78125 48.890625 
Q 56.203125 41.796875 56.203125 29.59375 
z
M 47.21875 32.234375 
Q 47.125 39.59375 43.09375 43.984375 
Q 39.0625 48.390625 32.421875 48.390625 
Q 24.90625 48.390625 20.390625 44.140625 
Q 15.875 39.890625 15.1875 32.171875 
z
" id="DejaVuSans-101"/>
       <path id="DejaVuSans-32"/>
       <path d="M 31 75.875 
Q 24.46875 64.65625 21.28125 53.65625 
Q 18.109375 42.671875 18.109375 31.390625 
Q 18.109375 20.125 21.3125 9.0625 
Q 24.515625 -2 31 -13.1875 
L 23.1875 -13.1875 
Q 15.875 -1.703125 12.234375 9.375 
Q 8.59375 20.453125 8.59375 31.390625 
Q 8.59375 42.28125 12.203125 53.3125 
Q 15.828125 64.359375 23.1875 75.875 
z
" id="DejaVuSans-40"/>
       <path d="M 44.28125 53.078125 
L 44.28125 44.578125 
Q 40.484375 46.53125 36.375 47.5 
Q 32.28125 48.484375 27.875 48.484375 
Q 21.1875 48.484375 17.84375 46.4375 
Q 14.5 44.390625 14.5 40.28125 
Q 14.5 37.15625 16.890625 35.375 
Q 19.28125 33.59375 26.515625 31.984375 
L 29.59375 31.296875 
Q 39.15625 29.25 43.1875 25.515625 
Q 47.21875 21.78125 47.21875 15.09375 
Q 47.21875 7.46875 41.1875 3.015625 
Q 35.15625 -1.421875 24.609375 -1.421875 
Q 20.21875 -1.421875 15.453125 -0.5625 
Q 10.6875 0.296875 5.421875 2 
L 5.421875 11.28125 
Q 10.40625 8.6875 15.234375 7.390625 
Q 20.0625 6.109375 24.8125 6.109375 
Q 31.15625 6.109375 34.5625 8.28125 
Q 37.984375 10.453125 37.984375 14.40625 
Q 37.984375 18.0625 35.515625 20.015625 
Q 33.0625 21.96875 24.703125 23.78125 
L 21.578125 24.515625 
Q 13.234375 26.265625 9.515625 29.90625 
Q 5.8125 33.546875 5.8125 39.890625 
Q 5.8125 47.609375 11.28125 51.796875 
Q 16.75 56 26.8125 56 
Q 31.78125 56 36.171875 55.265625 
Q 40.578125 54.546875 44.28125 53.078125 
z
" id="DejaVuSans-115"/>
       <path d="M 8.015625 75.875 
L 15.828125 75.875 
Q 23.140625 64.359375 26.78125 53.3125 
Q 30.421875 42.28125 30.421875 31.390625 
Q 30.421875 20.453125 26.78125 9.375 
Q 23.140625 -1.703125 15.828125 -13.1875 
L 8.015625 -13.1875 
Q 14.5 -2 17.703125 9.0625 
Q 20.90625 20.125 20.90625 31.390625 
Q 20.90625 42.671875 17.703125 53.65625 
Q 14.5 64.65625 8.015625 75.875 
z
" id="DejaVuSans-41"/>
      </defs>
      <use xlink:href="#DejaVuSans-84"/>
      <use x="57.958984" xlink:href="#DejaVuSans-105"/>
      <use x="85.742188" xlink:href="#DejaVuSans-109"/>
      <use x="183.154297" xlink:href="#DejaVuSans-101"/>
      <use x="244.677734" xlink:href="#DejaVuSans-32"/>
      <use x="276.464844" xlink:href="#DejaVuSans-40"/>
      <use x="315.478516" xlink:href="#DejaVuSans-115"/>
      <use x="367.578125" xlink:href="#DejaVuSans-41"/>
     </g>
    </g>
   </g>
   <g id="matplotlib.axis_2">
    <g id="ytick_1">
     <g id="line2d_7">
      <defs>
       <path d="M 0 0 
L 2.5 0 
" id="mdf346824a4" style="stroke:#000000;stroke-width:0.5;"/>
      </defs>
      <g>
       <use style="stroke:#000000;stroke-width:0.5;" x="42.933593" xlink:href="#mdf346824a4" y="223.418912"/>
      </g>
     </g>
     <g id="text_7">
      <!-- $\mathregular{-20}$ -->
      <g transform="translate(22.473593 226.458287)scale(0.08 -0.08)">
       <defs>
        <path d="M 10.59375 35.5 
L 73.1875 35.5 
L 73.1875 27.203125 
L 10.59375 27.203125 
z
" id="DejaVuSans-8722"/>
       </defs>
       <use transform="translate(0 0.78125)" xlink:href="#DejaVuSans-8722"/>
       <use transform="translate(83.789062 0.78125)" xlink:href="#DejaVuSans-50"/>
       <use transform="translate(147.412109 0.78125)" xlink:href="#DejaVuSans-48"/>
      </g>
     </g>
    </g>
    <g id="ytick_2">
     <g id="line2d_8">
      <g>
       <use style="stroke:#000000;stroke-width:0.5;" x="42.933593" xlink:href="#mdf346824a4" y="165.145065"/>
      </g>
     </g>
     <g id="text_8">
      <!-- $\mathregular{-10}$ -->
      <g transform="translate(22.473593 168.18444)scale(0.08 -0.08)">
       <use transform="translate(0 0.78125)" xlink:href="#DejaVuSans-8722"/>
       <use transform="translate(83.789062 0.78125)" xlink:href="#DejaVuSans-49"/>
       <use transform="translate(147.412109 0.78125)" xlink:href="#DejaVuSans-48"/>
      </g>
     </g>
    </g>
    <g id="ytick_3">
     <g id="line2d_9">
      <g>
       <use style="stroke:#000000;stroke-width:0.5;" x="42.933593" xlink:href="#mdf346824a4" y="106.871218"/>
      </g>
     </g>
     <g id="text_9">
      <!-- $\mathregular{0}$ -->
      <g transform="translate(34.313593 109.910593)scale(0.08 -0.08)">
       <use transform="translate(0 0.78125)" xlink:href="#DejaVuSans-48"/>
      </g>
     </g>
    </g>
    <g id="ytick_4">
     <g id="line2d_10">
      <g>
       <use style="stroke:#000000;stroke-width:0.5;" x="42.933593" xlink:href="#mdf346824a4" y="48.59737"/>
      </g>
     </g>
     <g id="text_10">
      <!-- $\mathregular{10}$ -->
      <g transform="translate(29.193593 51.636745)scale(0.08 -0.08)">
       <use transform="translate(0 0.78125)" xlink:href="#DejaVuSans-49"/>
       <use transform="translate(63.623047 0.78125)" xlink:href="#DejaVuSans-48"/>
      </g>
     </g>
    </g>
    <g id="text_11">
     <!-- Rodriguez Parameter $\theta_y$ (degree) -->
     <g transform="translate(15.063593 221.885)rotate(-90)scale(0.11 -0.11)">
      <defs>
       <path d="M 44.390625 34.1875 
Q 47.5625 33.109375 50.5625 29.59375 
Q 53.5625 26.078125 56.59375 19.921875 
L 66.609375 0 
L 56 0 
L 46.6875 18.703125 
Q 43.0625 26.03125 39.671875 28.421875 
Q 36.28125 30.8125 30.421875 30.8125 
L 19.671875 30.8125 
L 19.671875 0 
L 9.8125 0 
L 9.8125 72.90625 
L 32.078125 72.90625 
Q 44.578125 72.90625 50.734375 67.671875 
Q 56.890625 62.453125 56.890625 51.90625 
Q 56.890625 45.015625 53.6875 40.46875 
Q 50.484375 35.9375 44.390625 34.1875 
z
M 19.671875 64.796875 
L 19.671875 38.921875 
L 32.078125 38.921875 
Q 39.203125 38.921875 42.84375 42.21875 
Q 46.484375 45.515625 46.484375 51.90625 
Q 46.484375 58.296875 42.84375 61.546875 
Q 39.203125 64.796875 32.078125 64.796875 
z
" id="DejaVuSans-82"/>
       <path d="M 30.609375 48.390625 
Q 23.390625 48.390625 19.1875 42.75 
Q 14.984375 37.109375 14.984375 27.296875 
Q 14.984375 17.484375 19.15625 11.84375 
Q 23.34375 6.203125 30.609375 6.203125 
Q 37.796875 6.203125 41.984375 11.859375 
Q 46.1875 17.53125 46.1875 27.296875 
Q 46.1875 37.015625 41.984375 42.703125 
Q 37.796875 48.390625 30.609375 48.390625 
z
M 30.609375 56 
Q 42.328125 56 49.015625 48.375 
Q 55.71875 40.765625 55.71875 27.296875 
Q 55.71875 13.875 49.015625 6.21875 
Q 42.328125 -1.421875 30.609375 -1.421875 
Q 18.84375 -1.421875 12.171875 6.21875 
Q 5.515625 13.875 5.515625 27.296875 
Q 5.515625 40.765625 12.171875 48.375 
Q 18.84375 56 30.609375 56 
z
" id="DejaVuSans-111"/>
       <path d="M 45.40625 46.390625 
L 45.40625 75.984375 
L 54.390625 75.984375 
L 54.390625 0 
L 45.40625 0 
L 45.40625 8.203125 
Q 42.578125 3.328125 38.25 0.953125 
Q 33.9375 -1.421875 27.875 -1.421875 
Q 17.96875 -1.421875 11.734375 6.484375 
Q 5.515625 14.40625 5.515625 27.296875 
Q 5.515625 40.1875 11.734375 48.09375 
Q 17.96875 56 27.875 56 
Q 33.9375 56 38.25 53.625 
Q 42.578125 51.265625 45.40625 46.390625 
z
M 14.796875 27.296875 
Q 14.796875 17.390625 18.875 11.75 
Q 22.953125 6.109375 30.078125 6.109375 
Q 37.203125 6.109375 41.296875 11.75 
Q 45.40625 17.390625 45.40625 27.296875 
Q 45.40625 37.203125 41.296875 42.84375 
Q 37.203125 48.484375 30.078125 48.484375 
Q 22.953125 48.484375 18.875 42.84375 
Q 14.796875 37.203125 14.796875 27.296875 
z
" id="DejaVuSans-100"/>
       <path d="M 41.109375 46.296875 
Q 39.59375 47.171875 37.8125 47.578125 
Q 36.03125 48 33.890625 48 
Q 26.265625 48 22.1875 43.046875 
Q 18.109375 38.09375 18.109375 28.8125 
L 18.109375 0 
L 9.078125 0 
L 9.078125 54.6875 
L 18.109375 54.6875 
L 18.109375 46.1875 
Q 20.953125 51.171875 25.484375 53.578125 
Q 30.03125 56 36.53125 56 
Q 37.453125 56 38.578125 55.875 
Q 39.703125 55.765625 41.0625 55.515625 
z
" id="DejaVuSans-114"/>
       <path d="M 45.40625 27.984375 
Q 45.40625 37.75 41.375 43.109375 
Q 37.359375 48.484375 30.078125 48.484375 
Q 22.859375 48.484375 18.828125 43.109375 
Q 14.796875 37.75 14.796875 27.984375 
Q 14.796875 18.265625 18.828125 12.890625 
Q 22.859375 7.515625 30.078125 7.515625 
Q 37.359375 7.515625 41.375 12.890625 
Q 45.40625 18.265625 45.40625 27.984375 
z
M 54.390625 6.78125 
Q 54.390625 -7.171875 48.1875 -13.984375 
Q 42 -20.796875 29.203125 -20.796875 
Q 24.46875 -20.796875 20.265625 -20.09375 
Q 16.0625 -19.390625 12.109375 -17.921875 
L 12.109375 -9.1875 
Q 16.0625 -11.328125 19.921875 -12.34375 
Q 23.78125 -13.375 27.78125 -13.375 
Q 36.625 -13.375 41.015625 -8.765625 
Q 45.40625 -4.15625 45.40625 5.171875 
L 45.40625 9.625 
Q 42.625 4.78125 38.28125 2.390625 
Q 33.9375 0 27.875 0 
Q 17.828125 0 11.671875 7.65625 
Q 5.515625 15.328125 5.515625 27.984375 
Q 5.515625 40.671875 11.671875 48.328125 
Q 17.828125 56 27.875 56 
Q 33.9375 56 38.28125 53.609375 
Q 42.625 51.21875 45.40625 46.390625 
L 45.40625 54.6875 
L 54.390625 54.6875 
z
" id="DejaVuSans-103"/>
       <path d="M 8.5 21.578125 
L 8.5 54.6875 
L 17.484375 54.6875 
L 17.484375 21.921875 
Q 17.484375 14.15625 20.5 10.265625 
Q 23.53125 6.390625 29.59375 6.390625 
Q 36.859375 6.390625 41.078125 11.03125 
Q 45.3125 15.671875 45.3125 23.6875 
L 45.3125 54.6875 
L 54.296875 54.6875 
L 54.296875 0 
L 45.3125 0 
L 45.3125 8.40625 
Q 42.046875 3.421875 37.71875 1 
Q 33.40625 -1.421875 27.6875 -1.421875 
Q 18.265625 -1.421875 13.375 4.4375 
Q 8.5 10.296875 8.5 21.578125 
z
M 31.109375 56 
z
" id="DejaVuSans-117"/>
       <path d="M 5.515625 54.6875 
L 48.1875 54.6875 
L 48.1875 46.484375 
L 14.40625 7.171875 
L 48.1875 7.171875 
L 48.1875 0 
L 4.296875 0 
L 4.296875 8.203125 
L 38.09375 47.515625 
L 5.515625 47.515625 
z
" id="DejaVuSans-122"/>
       <path d="M 19.671875 64.796875 
L 19.671875 37.40625 
L 32.078125 37.40625 
Q 38.96875 37.40625 42.71875 40.96875 
Q 46.484375 44.53125 46.484375 51.125 
Q 46.484375 57.671875 42.71875 61.234375 
Q 38.96875 64.796875 32.078125 64.796875 
z
M 9.8125 72.90625 
L 32.078125 72.90625 
Q 44.34375 72.90625 50.609375 67.359375 
Q 56.890625 61.8125 56.890625 51.125 
Q 56.890625 40.328125 50.609375 34.8125 
Q 44.34375 29.296875 32.078125 29.296875 
L 19.671875 29.296875 
L 19.671875 0 
L 9.8125 0 
z
" id="DejaVuSans-80"/>
       <path d="M 34.28125 27.484375 
Q 23.390625 27.484375 19.1875 25 
Q 14.984375 22.515625 14.984375 16.5 
Q 14.984375 11.71875 18.140625 8.90625 
Q 21.296875 6.109375 26.703125 6.109375 
Q 34.1875 6.109375 38.703125 11.40625 
Q 43.21875 16.703125 43.21875 25.484375 
L 43.21875 27.484375 
z
M 52.203125 31.203125 
L 52.203125 0 
L 43.21875 0 
L 43.21875 8.296875 
Q 40.140625 3.328125 35.546875 0.953125 
Q 30.953125 -1.421875 24.3125 -1.421875 
Q 15.921875 -1.421875 10.953125 3.296875 
Q 6 8.015625 6 15.921875 
Q 6 25.140625 12.171875 29.828125 
Q 18.359375 34.515625 30.609375 34.515625 
L 43.21875 34.515625 
L 43.21875 35.40625 
Q 43.21875 41.609375 39.140625 45 
Q 35.0625 48.390625 27.6875 48.390625 
Q 23 48.390625 18.546875 47.265625 
Q 14.109375 46.140625 10.015625 43.890625 
L 10.015625 52.203125 
Q 14.9375 54.109375 19.578125 55.046875 
Q 24.21875 56 28.609375 56 
Q 40.484375 56 46.34375 49.84375 
Q 52.203125 43.703125 52.203125 31.203125 
z
" id="DejaVuSans-97"/>
       <path d="M 18.3125 70.21875 
L 18.3125 54.6875 
L 36.8125 54.6875 
L 36.8125 47.703125 
L 18.3125 47.703125 
L 18.3125 18.015625 
Q 18.3125 11.328125 20.140625 9.421875 
Q 21.96875 7.515625 27.59375 7.515625 
L 36.8125 7.515625 
L 36.8125 0 
L 27.59375 0 
Q 17.1875 0 13.234375 3.875 
Q 9.28125 7.765625 9.28125 18.015625 
L 9.28125 47.703125 
L 2.6875 47.703125 
L 2.6875 54.6875 
L 9.28125 54.6875 
L 9.28125 70.21875 
z
" id="DejaVuSans-116"/>
       <path d="M 45.515625 34.671875 
L 14.453125 34.671875 
Q 12.359375 20.0625 14.5 13.875 
Q 17.1875 6.25 24.46875 6.25 
Q 31.78125 6.25 37.359375 13.921875 
Q 42.234375 20.65625 45.515625 34.671875 
z
M 47.015625 42.96875 
Q 48.34375 56.84375 46.625 61.71875 
Q 43.953125 69.4375 36.765625 69.4375 
Q 29.296875 69.4375 23.828125 61.8125 
Q 19.53125 55.671875 16.15625 42.96875 
z
M 38.1875 76.765625 
Q 49.90625 76.765625 54.59375 66.40625 
Q 59.28125 56.109375 55.71875 37.84375 
Q 52.203125 19.625 43.453125 9.28125 
Q 34.765625 -1.125 23.046875 -1.125 
Q 11.28125 -1.125 6.640625 9.28125 
Q 2 19.625 5.515625 37.84375 
Q 9.078125 56.109375 17.71875 66.40625 
Q 26.421875 76.765625 38.1875 76.765625 
z
" id="DejaVuSans-Oblique-952"/>
       <path d="M 24.8125 -5.078125 
Q 18.5625 -15.578125 14.625 -18.1875 
Q 10.6875 -20.796875 4.59375 -20.796875 
L -2.484375 -20.796875 
L -0.984375 -13.28125 
L 4.203125 -13.28125 
Q 7.953125 -13.28125 10.59375 -11.234375 
Q 13.234375 -9.1875 16.5 -3.21875 
L 19.28125 2 
L 7.171875 54.6875 
L 16.703125 54.6875 
L 25.78125 12.796875 
L 50.875 54.6875 
L 60.296875 54.6875 
z
" id="DejaVuSans-Oblique-121"/>
      </defs>
      <use transform="translate(0 0.234375)" xlink:href="#DejaVuSans-82"/>
      <use transform="translate(69.482422 0.234375)" xlink:href="#DejaVuSans-111"/>
      <use transform="translate(130.664062 0.234375)" xlink:href="#DejaVuSans-100"/>
      <use transform="translate(194.140625 0.234375)" xlink:href="#DejaVuSans-114"/>
      <use transform="translate(235.253906 0.234375)" xlink:href="#DejaVuSans-105"/>
      <use transform="translate(263.037109 0.234375)" xlink:href="#DejaVuSans-103"/>
      <use transform="translate(326.513672 0.234375)" xlink:href="#DejaVuSans-117"/>
      <use transform="translate(389.892578 0.234375)" xlink:href="#DejaVuSans-101"/>
      <use transform="translate(451.416016 0.234375)" xlink:href="#DejaVuSans-122"/>
      <use transform="translate(503.90625 0.234375)" xlink:href="#DejaVuSans-32"/>
      <use transform="translate(535.693359 0.234375)" xlink:href="#DejaVuSans-80"/>
      <use transform="translate(595.996094 0.234375)" xlink:href="#DejaVuSans-97"/>
      <use transform="translate(657.275391 0.234375)" xlink:href="#DejaVuSans-114"/>
      <use transform="translate(698.388672 0.234375)" xlink:href="#DejaVuSans-97"/>
      <use transform="translate(759.667969 0.234375)" xlink:href="#DejaVuSans-109"/>
      <use transform="translate(857.080078 0.234375)" xlink:href="#DejaVuSans-101"/>
      <use transform="translate(918.603516 0.234375)" xlink:href="#DejaVuSans-116"/>
      <use transform="translate(957.8125 0.234375)" xlink:href="#DejaVuSans-101"/>
      <use transform="translate(1019.335938 0.234375)" xlink:href="#DejaVuSans-114"/>
      <use transform="translate(1060.449219 0.234375)" xlink:href="#DejaVuSans-32"/>
      <use transform="translate(1092.236328 0.234375)" xlink:href="#DejaVuSans-Oblique-952"/>
      <use transform="translate(1153.417969 -16.171875)scale(0.7)" xlink:href="#DejaVuSans-Oblique-121"/>
      <use transform="translate(1197.578125 0.234375)" xlink:href="#DejaVuSans-32"/>
      <use transform="translate(1229.365234 0.234375)" xlink:href="#DejaVuSans-40"/>
      <use transform="translate(1268.378906 0.234375)" xlink:href="#DejaVuSans-100"/>
      <use transform="translate(1331.855469 0.234375)" xlink:href="#DejaVuSans-101"/>
      <use transform="translate(1393.378906 0.234375)" xlink:href="#DejaVuSans-103"/>
      <use transform="translate(1456.855469 0.234375)" xlink:href="#DejaVuSans-114"/>
      <use transform="translate(1497.96875 0.234375)" xlink:href="#DejaVuSans-101"/>
      <use transform="translate(1559.492188 0.234375)" xlink:href="#DejaVuSans-101"/>
      <use transform="translate(1621.015625 0.234375)" xlink:href="#DejaVuSans-41"/>
     </g>
    </g>
   </g>
   <g id="line2d_11">
    <path clip-path="url(#pddbcbe7600)" d="M 42.933593 106.871218 
L 43.759755 106.977686 
L 44.671971 107.286168 
L 45.938372 108.12867 
L 47.271045 109.363489 
L 48.25554 110.617964 
L 50.158624 113.702096 
L 51.867523 116.744887 
L 53.182944 119.624406 
L 55.545701 125.381901 
L 59.50184 135.149776 
L 64.955996 147.048536 
L 66.217944 149.655946 
L 67.32938 151.463068 
L 68.46219 152.962552 
L 69.330653 153.903835 
L 70.208267 154.57142 
L 71.038516 154.884113 
L 71.828511 155.033203 
L 73.203546 155.02592 
L 74.045027 154.70955 
L 74.758276 154.125376 
L 75.479838 153.32627 
L 77.099862 151.026295 
L 78.252986 149.037204 
L 80.98307 144.094329 
L 82.918446 140.937846 
L 86.632944 134.271119 
L 93.514896 120.040464 
L 97.001904 111.965096 
L 98.568312 109.37569 
L 99.690232 107.89238 
L 100.615759 107.000252 
L 103.33429 105.114153 
L 104.421368 104.606179 
L 105.545622 104.510479 
L 106.596662 104.69373 
L 107.599265 105.164154 
L 108.208056 105.674627 
L 109.343115 107.043467 
L 111.07407 109.733365 
L 111.972968 111.461237 
L 112.893379 113.650707 
L 114.184329 117.391479 
L 115.512949 121.907984 
L 116.883904 127.433678 
L 120.670121 143.212756 
L 122.391128 149.453637 
L 124.099877 154.656234 
L 125.721163 158.945398 
L 126.823932 161.156407 
L 127.926702 162.746807 
L 128.762869 163.685911 
L 129.613285 164.411917 
L 130.559142 164.885019 
L 131.647185 165.134405 
L 134.09673 165.451441 
L 134.978585 165.127972 
L 135.442036 164.804585 
L 136.391142 163.747589 
L 137.362454 162.089264 
L 138.333766 159.692377 
L 139.305077 156.462355 
L 140.787027 150.455967 
L 142.918126 140.65401 
L 148.722874 112.493759 
L 150.155216 106.929004 
L 151.51013 102.486305 
L 152.590675 99.572482 
L 154.047047 96.382389 
L 156.389788 91.745808 
L 157.539801 90.091395 
L 158.505528 89.095627 
L 159.210661 88.551957 
L 159.953112 88.218331 
L 160.710423 88.130701 
L 161.87287 88.404417 
L 164.51674 89.393554 
L 165.298413 89.996612 
L 166.08583 90.901757 
L 166.873246 92.15361 
L 167.755134 94.054864 
L 168.637021 96.689172 
L 169.518909 100.085769 
L 170.913558 106.561241 
L 172.832043 116.627388 
L 175.880377 134.184407 
L 177.850686 146.777207 
L 180.32361 162.456542 
L 182.00983 171.885055 
L 183.695133 180.051713 
L 186.523051 192.480463 
L 187.866016 197.321687 
L 188.953278 200.34342 
L 189.80173 201.99067 
L 190.375939 202.67648 
L 190.951188 202.974667 
L 191.529425 202.912397 
L 192.107662 202.562925 
L 192.993019 201.676629 
L 194.726765 199.569336 
L 195.867503 197.819563 
L 197.012414 195.43991 
L 197.928576 192.907602 
L 198.828737 189.739164 
L 199.771331 185.43808 
L 200.661513 180.355436 
L 202.044518 171.051758 
L 204.266978 156.020434 
L 205.912308 146.409875 
L 208.098262 134.002002 
L 209.35797 125.130227 
L 213.461637 94.338388 
L 215.027381 84.900563 
L 217.720441 69.231207 
L 219.135977 61.218006 
L 220.063207 57.049495 
L 220.85762 54.235541 
L 221.740924 51.962633 
L 222.335351 50.979306 
L 222.929779 50.547105 
L 223.2284 50.552763 
L 223.825642 50.959692 
L 224.422884 51.787243 
L 226.225678 54.744993 
L 226.861593 55.439654 
L 227.518287 55.871822 
L 227.854168 55.964692 
L 228.203486 55.942319 
L 228.56414 55.761817 
L 228.935056 55.389482 
L 229.709763 54.007599 
L 231.26678 50.208884 
L 231.656034 49.589867 
L 232.045289 49.255254 
L 232.434543 49.235057 
L 232.730468 49.429031 
L 233.332878 50.332237 
L 233.844761 51.59789 
L 234.37212 53.408529 
L 234.978433 56.260329 
L 235.635486 60.416107 
L 236.532106 67.736233 
L 239.045721 89.282272 
L 240.609817 102.748827 
L 242.909 125.008121 
L 244.423654 141.893358 
L 245.661221 155.159278 
L 246.659147 163.455452 
L 247.999264 172.310962 
L 249.549008 181.209792 
L 251.639235 192.474601 
L 254.08809 208.109575 
L 254.852105 210.918149 
L 255.646096 212.872387 
L 257.168004 216.405049 
L 258.329848 219.013002 
L 259.567415 221.565212 
L 260.106323 223.10648 
L 260.943256 226.266516 
L 261.82532 229.733748 
L 262.473263 231.318193 
L 262.80499 231.539846 
L 263.170413 231.266347 
L 263.543593 230.452504 
L 264.289954 227.450503 
L 265.633482 219.946353 
L 271.518676 184.956265 
L 272.819011 173.538706 
L 275.277861 152.099528 
L 276.398059 143.875346 
L 277.137992 140.005383 
L 277.995435 136.791255 
L 279.091329 132.762475 
L 279.986975 128.464226 
L 281.711906 118.657484 
L 283.890223 106.321388 
L 284.466592 104.197251 
L 284.759929 103.484272 
L 285.061574 103.054066 
L 285.36322 102.927391 
L 285.664865 103.062342 
L 285.966511 103.437226 
L 286.569802 104.791982 
L 287.476603 107.713485 
L 288.690642 111.793122 
L 289.297662 113.260682 
L 289.77708 113.796573 
L 290.121892 113.778288 
L 290.472067 113.354615 
L 290.833177 112.433512 
L 291.411483 109.932887 
L 291.992023 106.244493 
L 292.787122 99.724274 
L 294.670418 83.563237 
L 295.19997 80.479681 
L 295.729522 78.665842 
L 295.906039 78.395311 
L 296.09482 78.320333 
L 296.283602 78.479936 
L 296.519772 79.018921 
L 296.992113 81.238483 
L 297.488398 85.1141 
L 298.362239 94.809446 
L 299.882803 112.297715 
L 300.665556 118.571752 
L 301.491541 123.306414 
L 302.239065 126.39512 
L 302.939407 128.275624 
L 304.125612 130.691145 
L 304.552955 132.31345 
L 304.986831 134.805489 
L 305.640838 140.466627 
L 306.512847 150.957597 
L 308.043529 170.124378 
L 308.73618 176.102076 
L 309.412491 180.04694 
L 310.146117 182.86047 
L 310.542689 183.770261 
L 310.952098 184.117606 
L 311.16493 184.031859 
L 311.630418 183.271668 
L 312.126259 182.149663 
L 312.375403 181.836768 
L 312.624547 181.908917 
L 312.873691 182.502149 
L 313.122835 183.72795 
L 313.621123 188.283359 
L 314.318271 198.439419 
L 315.794364 221.309213 
L 316.672847 231.189897 
L 318.141862 244.673699 
L 318.849328 249.623247 
L 319.126892 250.674134 
L 319.280364 250.956165 
L 319.433835 250.997315 
L 319.601039 250.744429 
L 319.941921 249.233938 
L 320.461686 244.714248 
L 322.083124 227.733483 
L 322.468701 225.634849 
L 322.855657 224.57136 
L 323.049825 224.368664 
L 323.245966 224.332897 
L 323.638249 224.5876 
L 324.890582 226.077452 
L 325.35591 226.138909 
L 325.837426 226.098723 
L 326.085545 226.284669 
L 326.336561 226.762841 
L 326.587577 227.59744 
L 327.089609 230.400699 
L 328.093672 237.358087 
L 328.344688 238.413489 
L 328.595704 238.950961 
L 328.849649 238.946868 
L 329.025528 238.602467 
L 329.318757 237.418012 
L 329.788152 234.028014 
L 330.493761 226.641333 
L 335.490081 168.901011 
L 336.270827 164.083214 
L 338.228746 153.130065 
L 340.403078 140.351332 
L 341.012588 134.151056 
L 342.282934 120.073333 
L 342.933709 115.382186 
L 343.784157 111.342046 
L 344.702526 106.726693 
L 346.355391 97.031279 
L 347.030379 94.665778 
L 347.874113 92.453585 
L 348.215214 90.599837 
L 348.747368 86.047655 
L 350.285043 70.499126 
L 350.693972 68.749833 
L 350.898437 68.460714 
L 351.113078 68.476448 
L 351.562035 69.060212 
L 352.038102 69.584737 
L 352.28359 69.526334 
L 352.531551 69.160317 
L 353.027471 67.496099 
L 353.802934 64.417549 
L 354.065823 64.037848 
L 354.328711 64.266642 
L 354.5916 65.168869 
L 355.117377 68.914137 
L 356.547963 82.205436 
L 356.79472 82.631104 
L 357.041477 82.203888 
L 357.534991 79.426751 
L 358.028505 76.054086 
L 358.275262 74.971503 
L 358.522019 74.601943 
L 358.768776 75.037745 
L 359.015534 76.229598 
L 359.509048 80.180569 
L 360.360293 87.656276 
L 360.785916 89.553354 
L 360.998727 89.623801 
L 361.343723 88.341886 
L 361.766033 85.007622 
L 362.43252 79.830671 
L 362.740813 78.77833 
L 362.978401 78.651889 
L 363.103493 78.834344 
L 363.381465 79.866235 
L 363.815197 83.211148 
L 364.808943 93.223155 
L 365.078306 94.073809 
L 365.217202 94.04957 
L 365.500024 93.138976 
L 365.924258 90.268417 
L 366.704988 84.573795 
L 366.891647 84.140502 
L 367.078305 84.308448 
L 367.264963 85.066358 
L 367.63828 88.209977 
L 368.393315 98.489361 
L 368.965891 105.406977 
L 369.32412 107.417845 
L 369.49149 107.740506 
L 369.664252 107.745235 
L 370.017723 106.996021 
L 370.383345 106.022994 
L 370.573624 105.877874 
L 370.763903 106.192227 
L 370.95783 107.102953 
L 371.345684 110.838558 
L 371.882651 119.401126 
L 372.847497 136.027501 
L 373.186853 139.044082 
L 373.533595 140.208383 
L 373.708708 140.194473 
L 374.261397 139.466304 
L 374.455045 139.639376 
L 374.648694 140.27014 
L 375.035992 143.16104 
L 375.438165 148.838308 
L 376.981765 176.999508 
L 377.289828 179.600036 
L 377.597891 180.829821 
L 377.905954 181.229587 
L 378.215595 181.490972 
L 378.554845 182.259382 
L 378.92253 184.174576 
L 379.318652 188.038272 
L 380.705078 206.029833 
L 381.1012 207.917694 
L 381.29926 208.025542 
L 381.497321 207.612766 
L 381.849216 205.797993 
L 383.09962 197.190976 
L 383.25657 197.033991 
L 383.413521 197.244098 
L 383.774651 198.859156 
L 384.603205 203.881044 
L 385.093945 205.43575 
L 385.52074 206.126953 
L 385.741117 206.096778 
L 385.982602 205.515553 
L 386.243748 204.069263 
L 387.106938 198.03019 
L 387.270731 197.827828 
L 387.434525 198.053867 
L 387.79813 199.647309 
L 389.186349 208.240882 
L 389.601765 210.646874 
L 389.812283 211.148155 
L 390.022801 210.930995 
L 390.448534 208.757987 
L 391.087132 205.102612 
L 391.299999 204.584383 
L 391.512865 204.393826 
L 391.725731 204.372131 
L 391.938598 204.46606 
L 392.151464 204.704067 
L 392.577196 205.634179 
L 393.002929 206.720597 
L 393.224162 207.016967 
L 393.445395 206.828957 
L 393.666628 205.993311 
L 394.109094 202.392965 
L 394.777931 193.591838 
L 395.89467 177.856742 
L 396.511832 172.938766 
L 397.496368 166.393599 
L 398.030075 161.539574 
L 399.719481 141.184715 
L 400.057363 139.299287 
L 400.241538 138.801408 
L 400.425713 138.717008 
L 400.794064 139.37459 
L 401.162415 140.144553 
L 401.291563 140.205159 
L 401.480272 139.920158 
L 401.691052 138.99633 
L 402.048747 136.19079 
L 402.446315 131.633398 
L 403.009956 122.255961 
L 403.594702 112.612171 
L 404.052422 107.976411 
L 404.528633 104.638487 
L 404.846108 103.550881 
L 405.163583 102.686669 
L 405.481057 100.554122 
L 405.957269 95.007739 
L 406.592218 84.555288 
L 407.227167 73.548926 
L 407.708364 68.849744 
L 408.046864 66.828082 
L 408.217688 66.497199 
L 408.388513 66.716217 
L 409.137845 69.391307 
L 409.328261 69.541821 
L 409.518677 69.459543 
L 409.709094 69.121918 
L 409.89951 68.420197 
L 410.285209 65.278529 
L 411.661628 48.073823 
L 412.266055 44.147731 
L 413.452154 38.381739 
L 413.843754 34.265375 
L 415.548268 11.769738 
L 415.769088 10.445336 
L 415.989908 10.062685 
L 416.210727 10.532885 
L 416.652542 13.040353 
L 417.332963 19.154094 
L 417.845194 23.731632 
L 418.213808 25.294325 
L 418.398115 25.275484 
L 418.780883 24.179875 
L 419.177807 22.891423 
L 419.376269 22.629145 
L 419.55158 22.819269 
L 419.902203 24.406472 
L 420.627645 29.535892 
L 421.005254 33.991771 
L 421.949277 46.412266 
L 422.138082 47.430635 
L 422.361999 47.848441 
L 422.361999 47.848441 
" style="fill:none;stroke:#e36f47;"/>
   </g>
   <g id="patch_3">
    <path d="M 42.933593 258.225354 
L 42.933593 2.834646 
" style="fill:none;stroke:#000000;stroke-linecap:square;stroke-linejoin:miter;"/>
   </g>
   <g id="patch_4">
    <path d="M 42.933593 258.225354 
L 422.361999 258.225354 
" style="fill:none;stroke:#000000;stroke-linecap:square;stroke-linejoin:miter;"/>
   </g>
   <g id="legend_1">
    <g id="patch_5">
     <path d="M 299.041999 39.119646 
L 418.361999 39.119646 
L 418.361999 6.834646 
L 299.041999 6.834646 
z
" style="fill:#ffffff;stroke:#000000;stroke-linejoin:miter;"/>
    </g>
    <g id="line2d_12">
     <path d="M 305.441999 16.513396 
L 321.441999 16.513396 
" style="fill:none;stroke:#009afa;stroke-linejoin:miter;"/>
    </g>
    <g id="line2d_13"/>
    <g id="text_12">
     <!-- GXBeam -->
     <g transform="translate(327.841999 19.313396)scale(0.08 -0.08)">
      <defs>
       <path d="M 59.515625 10.40625 
L 59.515625 29.984375 
L 43.40625 29.984375 
L 43.40625 38.09375 
L 69.28125 38.09375 
L 69.28125 6.78125 
Q 63.578125 2.734375 56.6875 0.65625 
Q 49.8125 -1.421875 42 -1.421875 
Q 24.90625 -1.421875 15.25 8.5625 
Q 5.609375 18.5625 5.609375 36.375 
Q 5.609375 54.25 15.25 64.234375 
Q 24.90625 74.21875 42 74.21875 
Q 49.125 74.21875 55.546875 72.453125 
Q 61.96875 70.703125 67.390625 67.28125 
L 67.390625 56.78125 
Q 61.921875 61.421875 55.765625 63.765625 
Q 49.609375 66.109375 42.828125 66.109375 
Q 29.4375 66.109375 22.71875 58.640625 
Q 16.015625 51.171875 16.015625 36.375 
Q 16.015625 21.625 22.71875 14.15625 
Q 29.4375 6.6875 42.828125 6.6875 
Q 48.046875 6.6875 52.140625 7.59375 
Q 56.25 8.5 59.515625 10.40625 
z
" id="DejaVuSans-71"/>
       <path d="M 6.296875 72.90625 
L 16.890625 72.90625 
L 35.015625 45.796875 
L 53.21875 72.90625 
L 63.8125 72.90625 
L 40.375 37.890625 
L 65.375 0 
L 54.78125 0 
L 34.28125 31 
L 13.625 0 
L 2.984375 0 
L 29 38.921875 
z
" id="DejaVuSans-88"/>
       <path d="M 19.671875 34.8125 
L 19.671875 8.109375 
L 35.5 8.109375 
Q 43.453125 8.109375 47.28125 11.40625 
Q 51.125 14.703125 51.125 21.484375 
Q 51.125 28.328125 47.28125 31.5625 
Q 43.453125 34.8125 35.5 34.8125 
z
M 19.671875 64.796875 
L 19.671875 42.828125 
L 34.28125 42.828125 
Q 41.5 42.828125 45.03125 45.53125 
Q 48.578125 48.25 48.578125 53.8125 
Q 48.578125 59.328125 45.03125 62.0625 
Q 41.5 64.796875 34.28125 64.796875 
z
M 9.8125 72.90625 
L 35.015625 72.90625 
Q 46.296875 72.90625 52.390625 68.21875 
Q 58.5 63.53125 58.5 54.890625 
Q 58.5 48.1875 55.375 44.234375 
Q 52.25 40.28125 46.1875 39.3125 
Q 53.46875 37.75 57.5 32.78125 
Q 61.53125 27.828125 61.53125 20.40625 
Q 61.53125 10.640625 54.890625 5.3125 
Q 48.25 0 35.984375 0 
L 9.8125 0 
z
" id="DejaVuSans-66"/>
      </defs>
      <use xlink:href="#DejaVuSans-71"/>
      <use x="77.490234" xlink:href="#DejaVuSans-88"/>
      <use x="145.996094" xlink:href="#DejaVuSans-66"/>
      <use x="214.599609" xlink:href="#DejaVuSans-101"/>
      <use x="276.123047" xlink:href="#DejaVuSans-97"/>
      <use x="337.402344" xlink:href="#DejaVuSans-109"/>
     </g>
    </g>
    <g id="line2d_14">
     <path d="M 305.441999 28.255896 
L 321.441999 28.255896 
" style="fill:none;stroke:#e36f47;stroke-linejoin:miter;"/>
    </g>
    <g id="line2d_15"/>
    <g id="text_13">
     <!-- DifferentialEquations -->
     <g transform="translate(327.841999 31.055896)scale(0.08 -0.08)">
      <defs>
       <path d="M 19.671875 64.796875 
L 19.671875 8.109375 
L 31.59375 8.109375 
Q 46.6875 8.109375 53.6875 14.9375 
Q 60.6875 21.78125 60.6875 36.53125 
Q 60.6875 51.171875 53.6875 57.984375 
Q 46.6875 64.796875 31.59375 64.796875 
z
M 9.8125 72.90625 
L 30.078125 72.90625 
Q 51.265625 72.90625 61.171875 64.09375 
Q 71.09375 55.28125 71.09375 36.53125 
Q 71.09375 17.671875 61.125 8.828125 
Q 51.171875 0 30.078125 0 
L 9.8125 0 
z
" id="DejaVuSans-68"/>
       <path d="M 37.109375 75.984375 
L 37.109375 68.5 
L 28.515625 68.5 
Q 23.6875 68.5 21.796875 66.546875 
Q 19.921875 64.59375 19.921875 59.515625 
L 19.921875 54.6875 
L 34.71875 54.6875 
L 34.71875 47.703125 
L 19.921875 47.703125 
L 19.921875 0 
L 10.890625 0 
L 10.890625 47.703125 
L 2.296875 47.703125 
L 2.296875 54.6875 
L 10.890625 54.6875 
L 10.890625 58.5 
Q 10.890625 67.625 15.140625 71.796875 
Q 19.390625 75.984375 28.609375 75.984375 
z
" id="DejaVuSans-102"/>
       <path d="M 54.890625 33.015625 
L 54.890625 0 
L 45.90625 0 
L 45.90625 32.71875 
Q 45.90625 40.484375 42.875 44.328125 
Q 39.84375 48.1875 33.796875 48.1875 
Q 26.515625 48.1875 22.3125 43.546875 
Q 18.109375 38.921875 18.109375 30.90625 
L 18.109375 0 
L 9.078125 0 
L 9.078125 54.6875 
L 18.109375 54.6875 
L 18.109375 46.1875 
Q 21.34375 51.125 25.703125 53.5625 
Q 30.078125 56 35.796875 56 
Q 45.21875 56 50.046875 50.171875 
Q 54.890625 44.34375 54.890625 33.015625 
z
" id="DejaVuSans-110"/>
       <path d="M 9.421875 75.984375 
L 18.40625 75.984375 
L 18.40625 0 
L 9.421875 0 
z
" id="DejaVuSans-108"/>
       <path d="M 9.8125 72.90625 
L 55.90625 72.90625 
L 55.90625 64.59375 
L 19.671875 64.59375 
L 19.671875 43.015625 
L 54.390625 43.015625 
L 54.390625 34.71875 
L 19.671875 34.71875 
L 19.671875 8.296875 
L 56.78125 8.296875 
L 56.78125 0 
L 9.8125 0 
z
" id="DejaVuSans-69"/>
       <path d="M 14.796875 27.296875 
Q 14.796875 17.390625 18.875 11.75 
Q 22.953125 6.109375 30.078125 6.109375 
Q 37.203125 6.109375 41.296875 11.75 
Q 45.40625 17.390625 45.40625 27.296875 
Q 45.40625 37.203125 41.296875 42.84375 
Q 37.203125 48.484375 30.078125 48.484375 
Q 22.953125 48.484375 18.875 42.84375 
Q 14.796875 37.203125 14.796875 27.296875 
z
M 45.40625 8.203125 
Q 42.578125 3.328125 38.25 0.953125 
Q 33.9375 -1.421875 27.875 -1.421875 
Q 17.96875 -1.421875 11.734375 6.484375 
Q 5.515625 14.40625 5.515625 27.296875 
Q 5.515625 40.1875 11.734375 48.09375 
Q 17.96875 56 27.875 56 
Q 33.9375 56 38.25 53.625 
Q 42.578125 51.265625 45.40625 46.390625 
L 45.40625 54.6875 
L 54.390625 54.6875 
L 54.390625 -20.796875 
L 45.40625 -20.796875 
z
" id="DejaVuSans-113"/>
      </defs>
      <use xlink:href="#DejaVuSans-68"/>
      <use x="77.001953" xlink:href="#DejaVuSans-105"/>
      <use x="104.785156" xlink:href="#DejaVuSans-102"/>
      <use x="139.990234" xlink:href="#DejaVuSans-102"/>
      <use x="175.195312" xlink:href="#DejaVuSans-101"/>
      <use x="236.71875" xlink:href="#DejaVuSans-114"/>
      <use x="275.582031" xlink:href="#DejaVuSans-101"/>
      <use x="337.105469" xlink:href="#DejaVuSans-110"/>
      <use x="400.484375" xlink:href="#DejaVuSans-116"/>
      <use x="439.693359" xlink:href="#DejaVuSans-105"/>
      <use x="467.476562" xlink:href="#DejaVuSans-97"/>
      <use x="528.755859" xlink:href="#DejaVuSans-108"/>
      <use x="556.539062" xlink:href="#DejaVuSans-69"/>
      <use x="619.722656" xlink:href="#DejaVuSans-113"/>
      <use x="683.199219" xlink:href="#DejaVuSans-117"/>
      <use x="746.578125" xlink:href="#DejaVuSans-97"/>
      <use x="807.857422" xlink:href="#DejaVuSans-116"/>
      <use x="847.066406" xlink:href="#DejaVuSans-105"/>
      <use x="874.849609" xlink:href="#DejaVuSans-111"/>
      <use x="936.03125" xlink:href="#DejaVuSans-110"/>
      <use x="999.410156" xlink:href="#DejaVuSans-115"/>
     </g>
    </g>
   </g>
  </g>
 </g>
 <defs>
  <clipPath id="pddbcbe7600">
   <rect height="255.390709" width="379.428407" x="42.933593" y="2.834646"/>
  </clipPath>
 </defs>
</svg>
