<?xml version="1.0" encoding="utf-8" standalone="no"?>
<!DOCTYPE svg PUBLIC "-//W3C//DTD SVG 1.1//EN"
  "http://www.w3.org/Graphics/SVG/1.1/DTD/svg11.dtd">
<!-- Created with matplotlib (https://matplotlib.org/) -->
<svg height="288pt" version="1.1" viewBox="0 0 432 288" width="432pt" xmlns="http://www.w3.org/2000/svg" xmlns:xlink="http://www.w3.org/1999/xlink">
 <metadata>
  <rdf:RDF xmlns:cc="http://creativecommons.org/ns#" xmlns:dc="http://purl.org/dc/elements/1.1/" xmlns:rdf="http://www.w3.org/1999/02/22-rdf-syntax-ns#">
   <cc:Work>
    <dc:type rdf:resource="http://purl.org/dc/dcmitype/StillImage"/>
    <dc:date>2021-06-08T21:23:35.154496</dc:date>
    <dc:format>image/svg+xml</dc:format>
    <dc:creator>
     <cc:Agent>
      <dc:title>Matplotlib v3.3.4, https://matplotlib.org/</dc:title>
     </cc:Agent>
    </dc:creator>
   </cc:Work>
  </rdf:RDF>
 </metadata>
 <defs>
  <style type="text/css">*{stroke-linecap:butt;stroke-linejoin:round;}</style>
 </defs>
 <g id="figure_1">
  <g id="patch_1">
   <path d="M 0 288 
L 432 288 
L 432 0 
L 0 0 
z
" style="fill:#ffffff;"/>
  </g>
  <g id="axes_1">
   <g id="patch_2">
    <path d="M 43.915109 258.225354 
L 422.361999 258.225354 
L 422.361999 2.834646 
L 43.915109 2.834646 
z
" style="fill:#ffffff;"/>
   </g>
   <g id="line2d_1">
    <path clip-path="url(#p3082d43494)" d="M 43.915109 10.062685 
L 49.213366 10.163393 
L 51.67327 10.412449 
L 53.565505 10.811759 
L 55.079292 11.35918 
L 56.59308 12.146142 
L 57.917644 13.066416 
L 59.620655 14.533502 
L 61.323666 16.309318 
L 62.837454 18.207417 
L 64.540465 20.679971 
L 66.432699 23.859508 
L 70.406391 30.634477 
L 72.109402 33.117319 
L 74.001637 35.443274 
L 75.326201 36.769471 
L 76.650765 37.781223 
L 77.975329 38.53294 
L 79.299893 39.044137 
L 80.435234 39.274645 
L 81.759798 39.325799 
L 82.895139 39.148661 
L 84.030479 38.723669 
L 85.355044 37.938745 
L 87.058055 36.612864 
L 90.464077 33.837213 
L 91.788641 33.107634 
L 92.923981 32.706491 
L 94.059322 32.526366 
L 95.57311 32.546095 
L 99.736025 32.804069 
L 100.871366 32.590562 
L 102.19593 32.113947 
L 103.709718 31.297668 
L 105.791176 29.888481 
L 111.657102 25.778245 
L 112.981667 25.088054 
L 113.927784 24.801951 
L 114.684678 24.764209 
L 115.441571 24.944016 
L 116.198465 25.382371 
L 116.955359 26.127697 
L 117.712253 27.212122 
L 118.469146 28.654138 
L 119.415264 30.948829 
L 120.550604 34.353537 
L 121.875168 39.046258 
L 127.173425 58.809977 
L 128.308766 61.9619 
L 129.444106 64.461953 
L 130.390223 66.057825 
L 131.336341 67.203999 
L 132.093234 67.794453 
L 132.850128 68.093339 
L 133.417799 68.129072 
L 133.985469 67.98825 
L 134.553139 67.672062 
L 135.12081 67.152342 
L 135.877703 66.119068 
L 136.634597 64.665532 
L 137.580714 62.25621 
L 138.526832 59.218733 
L 139.662172 54.854228 
L 141.74363 45.714923 
L 143.446641 38.563352 
L 144.581982 34.608082 
L 145.528099 32.077343 
L 146.284993 30.644527 
L 146.852663 29.944989 
L 147.420334 29.565209 
L 147.988004 29.510385 
L 148.555674 29.774321 
L 149.123345 30.343179 
L 149.691015 31.207012 
L 150.447909 32.779908 
L 151.394026 35.338143 
L 152.529367 39.082232 
L 154.421601 46.252901 
L 156.692282 54.66383 
L 157.827623 58.14493 
L 158.77374 60.48106 
L 159.719857 62.217117 
L 160.476751 63.151816 
L 161.233645 63.688027 
L 161.801315 63.827725 
L 162.368986 63.750352 
L 162.936656 63.460892 
L 163.69355 62.745966 
L 164.450444 61.673373 
L 165.396561 59.840012 
L 166.342678 57.496723 
L 167.478019 54.05309 
L 168.802583 49.249227 
L 170.884041 40.612419 
L 172.965499 32.215497 
L 174.100839 28.572119 
L 174.857733 26.816854 
L 175.425403 25.954271 
L 175.993074 25.540384 
L 176.371521 25.536831 
L 176.749968 25.768785 
L 177.128414 26.249132 
L 177.696085 27.448759 
L 178.263755 29.253887 
L 179.020649 32.600323 
L 179.777543 36.975129 
L 180.72366 43.75179 
L 181.859001 53.513505 
L 183.372788 68.579896 
L 188.292598 119.609683 
L 189.427938 128.656357 
L 190.374056 134.772989 
L 191.320173 139.549692 
L 192.077067 142.414731 
L 192.83396 144.475818 
L 193.401631 145.51472 
L 193.969301 146.156041 
L 194.536971 146.416375 
L 194.915418 146.372601 
L 195.293865 146.151839 
L 195.861535 145.479464 
L 196.429206 144.354356 
L 196.996876 142.737472 
L 197.75377 139.751985 
L 198.510664 135.757963 
L 199.456781 129.291035 
L 200.402898 121.219846 
L 201.727462 107.62235 
L 206.079601 60.17337 
L 207.214942 50.719634 
L 208.350283 43.168432 
L 209.2964 38.347321 
L 210.053294 35.482393 
L 210.620964 33.947897 
L 211.188635 32.989724 
L 211.567081 32.691838 
L 211.945528 32.674324 
L 212.323975 32.950336 
L 212.702422 33.521823 
L 213.270092 34.936379 
L 213.837763 37.026241 
L 214.594657 40.837846 
L 215.540774 47.13168 
L 216.676114 56.588234 
L 218.189902 71.596376 
L 221.028254 100.549396 
L 222.163594 109.752922 
L 223.109712 115.744038 
L 223.866605 119.304134 
L 224.623499 121.758536 
L 225.191169 122.925457 
L 225.75884 123.603931 
L 226.32651 123.869153 
L 226.89418 123.810943 
L 227.461851 123.500833 
L 228.218745 122.800653 
L 228.975638 121.79922 
L 229.732532 120.446103 
L 230.489426 118.618977 
L 231.24632 116.20075 
L 232.003213 113.012366 
L 232.760107 108.829053 
L 233.517001 103.477659 
L 234.463118 95.1403 
L 235.598459 83.090356 
L 239.193704 42.856208 
L 240.139822 35.421403 
L 240.896715 31.252708 
L 241.464386 29.358989 
L 241.842833 28.736624 
L 242.032056 28.624582 
L 242.22128 28.647281 
L 242.599726 29.10173 
L 242.978173 30.104052 
L 243.545844 32.615031 
L 244.113514 36.302196 
L 244.870408 42.935092 
L 245.816525 53.639278 
L 247.141089 71.732084 
L 253.196239 158.498684 
L 254.710027 177.065577 
L 255.845368 188.61744 
L 256.980708 197.974517 
L 257.926825 204.237283 
L 258.872943 209.065249 
L 259.629836 211.86439 
L 260.38673 213.801137 
L 260.954401 214.754193 
L 261.522071 215.262452 
L 261.900518 215.297486 
L 262.278965 215.032874 
L 262.657412 214.389172 
L 263.035858 213.273774 
L 263.603529 210.617465 
L 264.171199 206.72187 
L 264.928093 199.79933 
L 266.063434 186.938873 
L 267.577221 167.189168 
L 269.847902 134.154461 
L 272.497031 96.231705 
L 273.821595 79.83082 
L 274.767712 70.655819 
L 275.524606 65.386765 
L 276.092276 62.901431 
L 276.470723 61.995908 
L 276.84917 61.724087 
L 277.038393 61.826584 
L 277.41684 62.485825 
L 277.795287 63.723163 
L 278.362958 66.550592 
L 279.119851 71.78256 
L 280.255192 81.628858 
L 283.093544 107.266811 
L 284.039661 113.646009 
L 284.796555 117.539018 
L 285.553448 120.478391 
L 286.499566 123.207851 
L 287.82413 126.139249 
L 289.716364 130.329047 
L 290.662481 132.232359 
L 291.230152 132.895797 
L 291.608599 133.026065 
L 291.987046 132.860338 
L 292.365492 132.421648 
L 292.933163 131.335249 
L 293.87928 128.841069 
L 295.014621 125.219473 
L 295.771514 122.025807 
L 296.528408 117.68791 
L 297.285302 111.961859 
L 298.609866 99.612465 
L 299.93443 87.731713 
L 303.718899 57.704367 
L 304.475793 53.45637 
L 305.043463 51.555526 
L 305.42191 50.939295 
L 305.800357 50.80056 
L 306.178804 51.076767 
L 306.557251 51.698839 
L 307.124921 53.183118 
L 307.692592 55.299719 
L 308.449485 59.20542 
L 309.206379 64.491103 
L 310.152496 73.132895 
L 311.47706 88.140821 
L 312.801625 105.567277 
L 313.558518 118.311999 
L 314.504636 138.299222 
L 318.478328 229.190146 
L 319.235222 241.689515 
L 319.802892 248.037964 
L 320.181339 250.277599 
L 320.370562 250.75528 
L 320.559786 250.821116 
L 320.749009 250.509576 
L 321.127456 248.97249 
L 321.88435 244.050139 
L 322.830467 238.3304 
L 323.587361 235.318498 
L 324.344255 233.314191 
L 325.668819 230.17835 
L 326.993383 226.193887 
L 327.37183 225.817058 
L 327.750277 225.871224 
L 328.128724 226.044573 
L 328.317947 226.030122 
L 328.50717 225.863977 
L 328.696394 225.485846 
L 329.074841 223.874502 
L 329.453288 220.851059 
L 330.020958 213.418106 
L 330.777852 198.82698 
L 331.913192 171.336158 
L 333.805427 126.164214 
L 335.886885 81.349246 
L 336.833002 65.400905 
L 337.589896 55.82705 
L 338.34679 49.054632 
L 338.91446 45.631501 
L 339.48213 43.253497 
L 340.239024 41.110681 
L 340.617471 40.460038 
L 340.995918 40.193733 
L 341.185141 40.23802 
L 341.563588 40.739327 
L 341.942035 41.831221 
L 342.320482 43.570942 
L 342.888152 47.388311 
L 343.83427 55.738228 
L 346.861845 85.982484 
L 349.132526 110.880341 
L 350.078643 117.918943 
L 353.863112 142.036415 
L 354.430782 144.519798 
L 354.998453 146.05517 
L 355.566123 146.858397 
L 356.51224 147.772329 
L 356.890687 147.826354 
L 357.269134 147.393965 
L 357.647581 146.414249 
L 358.215251 144.109824 
L 358.972145 139.916968 
L 359.918262 132.980303 
L 361.43205 121.884539 
L 363.135061 109.397549 
L 364.270402 99.864403 
L 365.594966 86.015763 
L 370.514775 31.063932 
L 371.082446 26.22428 
L 371.650116 23.059841 
L 372.028563 21.769958 
L 372.40701 21.212252 
L 372.596233 21.257436 
L 372.785457 21.531663 
L 373.163904 22.691597 
L 374.110021 27.089428 
L 374.677691 30.246357 
L 375.245361 35.253641 
L 375.813032 42.636105 
L 376.569926 55.992685 
L 379.219054 109.028912 
L 381.111288 141.422895 
L 381.868182 151.702456 
L 382.435852 156.678122 
L 383.38197 162.636728 
L 384.51731 168.995128 
L 386.031098 179.023565 
L 387.355662 187.071889 
L 387.923332 188.878937 
L 389.058673 191.61551 
L 389.626343 192.139922 
L 390.194014 192.507068 
L 390.383237 192.458568 
L 390.57246 192.220443 
L 390.950907 191.003934 
L 391.518578 187.457089 
L 392.653918 178.158589 
L 393.410812 169.423738 
L 394.546153 153.491392 
L 399.276739 79.246371 
L 400.222856 68.536901 
L 403.061208 40.534197 
L 403.818102 35.014498 
L 404.574995 31.070455 
L 405.521113 27.33062 
L 406.845677 23.642183 
L 407.224124 23.354272 
L 407.602571 23.625021 
L 407.981017 24.385363 
L 408.359464 25.71365 
L 408.927135 28.718165 
L 409.494805 33.658396 
L 410.440922 44.820929 
L 411.387039 59.487912 
L 412.711604 84.379715 
L 415.928402 145.318715 
L 416.496072 151.872898 
L 416.874519 153.865557 
L 417.252966 154.695359 
L 417.631413 155.057628 
L 417.820637 155.047395 
L 418.199083 154.572057 
L 418.57753 153.959337 
L 418.955977 153.771816 
L 419.334424 153.724388 
L 419.712871 153.389409 
L 420.091318 152.781287 
L 420.469765 151.777641 
L 421.983552 145.847797 
L 422.361999 144.176034 
L 422.361999 144.176034 
" style="fill:none;stroke:#009afa;"/>
   </g>
   <g id="matplotlib.axis_1">
    <g id="xtick_1">
     <g id="line2d_2">
      <defs>
       <path d="M 0 0 
L 0 -2.5 
" id="m0ba641df33" style="stroke:#000000;stroke-width:0.5;"/>
      </defs>
      <g>
       <use style="stroke:#000000;stroke-width:0.5;" x="43.915109" xlink:href="#m0ba641df33" y="258.225354"/>
      </g>
     </g>
     <g id="text_1">
      <!-- $\mathregular{0.0}$ -->
      <g transform="translate(37.515109 267.804104)scale(0.08 -0.08)">
       <defs>
        <path d="M 31.78125 66.40625 
Q 24.171875 66.40625 20.328125 58.90625 
Q 16.5 51.421875 16.5 36.375 
Q 16.5 21.390625 20.328125 13.890625 
Q 24.171875 6.390625 31.78125 6.390625 
Q 39.453125 6.390625 43.28125 13.890625 
Q 47.125 21.390625 47.125 36.375 
Q 47.125 51.421875 43.28125 58.90625 
Q 39.453125 66.40625 31.78125 66.40625 
z
M 31.78125 74.21875 
Q 44.046875 74.21875 50.515625 64.515625 
Q 56.984375 54.828125 56.984375 36.375 
Q 56.984375 17.96875 50.515625 8.265625 
Q 44.046875 -1.421875 31.78125 -1.421875 
Q 19.53125 -1.421875 13.0625 8.265625 
Q 6.59375 17.96875 6.59375 36.375 
Q 6.59375 54.828125 13.0625 64.515625 
Q 19.53125 74.21875 31.78125 74.21875 
z
" id="DejaVuSans-48"/>
        <path d="M 10.6875 12.40625 
L 21 12.40625 
L 21 0 
L 10.6875 0 
z
" id="DejaVuSans-46"/>
       </defs>
       <use transform="translate(0 0.78125)" xlink:href="#DejaVuSans-48"/>
       <use transform="translate(63.623047 0.78125)" xlink:href="#DejaVuSans-46"/>
       <use transform="translate(95.410156 0.78125)" xlink:href="#DejaVuSans-48"/>
      </g>
     </g>
    </g>
    <g id="xtick_2">
     <g id="line2d_3">
      <g>
       <use style="stroke:#000000;stroke-width:0.5;" x="138.526832" xlink:href="#m0ba641df33" y="258.225354"/>
      </g>
     </g>
     <g id="text_2">
      <!-- $\mathregular{0.5}$ -->
      <g transform="translate(132.126832 267.804104)scale(0.08 -0.08)">
       <defs>
        <path d="M 10.796875 72.90625 
L 49.515625 72.90625 
L 49.515625 64.59375 
L 19.828125 64.59375 
L 19.828125 46.734375 
Q 21.96875 47.46875 24.109375 47.828125 
Q 26.265625 48.1875 28.421875 48.1875 
Q 40.625 48.1875 47.75 41.5 
Q 54.890625 34.8125 54.890625 23.390625 
Q 54.890625 11.625 47.5625 5.09375 
Q 40.234375 -1.421875 26.90625 -1.421875 
Q 22.3125 -1.421875 17.546875 -0.640625 
Q 12.796875 0.140625 7.71875 1.703125 
L 7.71875 11.625 
Q 12.109375 9.234375 16.796875 8.0625 
Q 21.484375 6.890625 26.703125 6.890625 
Q 35.15625 6.890625 40.078125 11.328125 
Q 45.015625 15.765625 45.015625 23.390625 
Q 45.015625 31 40.078125 35.4375 
Q 35.15625 39.890625 26.703125 39.890625 
Q 22.75 39.890625 18.8125 39.015625 
Q 14.890625 38.140625 10.796875 36.28125 
z
" id="DejaVuSans-53"/>
       </defs>
       <use transform="translate(0 0.78125)" xlink:href="#DejaVuSans-48"/>
       <use transform="translate(63.623047 0.78125)" xlink:href="#DejaVuSans-46"/>
       <use transform="translate(95.410156 0.78125)" xlink:href="#DejaVuSans-53"/>
      </g>
     </g>
    </g>
    <g id="xtick_3">
     <g id="line2d_4">
      <g>
       <use style="stroke:#000000;stroke-width:0.5;" x="233.138554" xlink:href="#m0ba641df33" y="258.225354"/>
      </g>
     </g>
     <g id="text_3">
      <!-- $\mathregular{1.0}$ -->
      <g transform="translate(226.738554 267.804104)scale(0.08 -0.08)">
       <defs>
        <path d="M 12.40625 8.296875 
L 28.515625 8.296875 
L 28.515625 63.921875 
L 10.984375 60.40625 
L 10.984375 69.390625 
L 28.421875 72.90625 
L 38.28125 72.90625 
L 38.28125 8.296875 
L 54.390625 8.296875 
L 54.390625 0 
L 12.40625 0 
z
" id="DejaVuSans-49"/>
       </defs>
       <use transform="translate(0 0.78125)" xlink:href="#DejaVuSans-49"/>
       <use transform="translate(63.623047 0.78125)" xlink:href="#DejaVuSans-46"/>
       <use transform="translate(95.410156 0.78125)" xlink:href="#DejaVuSans-48"/>
      </g>
     </g>
    </g>
    <g id="xtick_4">
     <g id="line2d_5">
      <g>
       <use style="stroke:#000000;stroke-width:0.5;" x="327.750277" xlink:href="#m0ba641df33" y="258.225354"/>
      </g>
     </g>
     <g id="text_4">
      <!-- $\mathregular{1.5}$ -->
      <g transform="translate(321.350277 267.804104)scale(0.08 -0.08)">
       <use transform="translate(0 0.09375)" xlink:href="#DejaVuSans-49"/>
       <use transform="translate(63.623047 0.09375)" xlink:href="#DejaVuSans-46"/>
       <use transform="translate(95.410156 0.09375)" xlink:href="#DejaVuSans-53"/>
      </g>
     </g>
    </g>
    <g id="xtick_5">
     <g id="line2d_6">
      <g>
       <use style="stroke:#000000;stroke-width:0.5;" x="422.361999" xlink:href="#m0ba641df33" y="258.225354"/>
      </g>
     </g>
     <g id="text_5">
      <!-- $\mathregular{2.0}$ -->
      <g transform="translate(415.961999 267.804104)scale(0.08 -0.08)">
       <defs>
        <path d="M 19.1875 8.296875 
L 53.609375 8.296875 
L 53.609375 0 
L 7.328125 0 
L 7.328125 8.296875 
Q 12.9375 14.109375 22.625 23.890625 
Q 32.328125 33.6875 34.8125 36.53125 
Q 39.546875 41.84375 41.421875 45.53125 
Q 43.3125 49.21875 43.3125 52.78125 
Q 43.3125 58.59375 39.234375 62.25 
Q 35.15625 65.921875 28.609375 65.921875 
Q 23.96875 65.921875 18.8125 64.3125 
Q 13.671875 62.703125 7.8125 59.421875 
L 7.8125 69.390625 
Q 13.765625 71.78125 18.9375 73 
Q 24.125 74.21875 28.421875 74.21875 
Q 39.75 74.21875 46.484375 68.546875 
Q 53.21875 62.890625 53.21875 53.421875 
Q 53.21875 48.921875 51.53125 44.890625 
Q 49.859375 40.875 45.40625 35.40625 
Q 44.1875 33.984375 37.640625 27.21875 
Q 31.109375 20.453125 19.1875 8.296875 
z
" id="DejaVuSans-50"/>
       </defs>
       <use transform="translate(0 0.78125)" xlink:href="#DejaVuSans-50"/>
       <use transform="translate(63.623047 0.78125)" xlink:href="#DejaVuSans-46"/>
       <use transform="translate(95.410156 0.78125)" xlink:href="#DejaVuSans-48"/>
      </g>
     </g>
    </g>
    <g id="text_6">
     <!-- Time (s) -->
     <g transform="translate(210.776757 281.826136)scale(0.11 -0.11)">
      <defs>
       <path d="M -0.296875 72.90625 
L 61.375 72.90625 
L 61.375 64.59375 
L 35.5 64.59375 
L 35.5 0 
L 25.59375 0 
L 25.59375 64.59375 
L -0.296875 64.59375 
z
" id="DejaVuSans-84"/>
       <path d="M 9.421875 54.6875 
L 18.40625 54.6875 
L 18.40625 0 
L 9.421875 0 
z
M 9.421875 75.984375 
L 18.40625 75.984375 
L 18.40625 64.59375 
L 9.421875 64.59375 
z
" id="DejaVuSans-105"/>
       <path d="M 52 44.1875 
Q 55.375 50.25 60.0625 53.125 
Q 64.75 56 71.09375 56 
Q 79.640625 56 84.28125 50.015625 
Q 88.921875 44.046875 88.921875 33.015625 
L 88.921875 0 
L 79.890625 0 
L 79.890625 32.71875 
Q 79.890625 40.578125 77.09375 44.375 
Q 74.3125 48.1875 68.609375 48.1875 
Q 61.625 48.1875 57.5625 43.546875 
Q 53.515625 38.921875 53.515625 30.90625 
L 53.515625 0 
L 44.484375 0 
L 44.484375 32.71875 
Q 44.484375 40.625 41.703125 44.40625 
Q 38.921875 48.1875 33.109375 48.1875 
Q 26.21875 48.1875 22.15625 43.53125 
Q 18.109375 38.875 18.109375 30.90625 
L 18.109375 0 
L 9.078125 0 
L 9.078125 54.6875 
L 18.109375 54.6875 
L 18.109375 46.1875 
Q 21.1875 51.21875 25.484375 53.609375 
Q 29.78125 56 35.6875 56 
Q 41.65625 56 45.828125 52.96875 
Q 50 49.953125 52 44.1875 
z
" id="DejaVuSans-109"/>
       <path d="M 56.203125 29.59375 
L 56.203125 25.203125 
L 14.890625 25.203125 
Q 15.484375 15.921875 20.484375 11.0625 
Q 25.484375 6.203125 34.421875 6.203125 
Q 39.59375 6.203125 44.453125 7.46875 
Q 49.3125 8.734375 54.109375 11.28125 
L 54.109375 2.78125 
Q 49.265625 0.734375 44.1875 -0.34375 
Q 39.109375 -1.421875 33.890625 -1.421875 
Q 20.796875 -1.421875 13.15625 6.1875 
Q 5.515625 13.8125 5.515625 26.8125 
Q 5.515625 40.234375 12.765625 48.109375 
Q 20.015625 56 32.328125 56 
Q 43.359375 56 49.78125 48.890625 
Q 56.203125 41.796875 56.203125 29.59375 
z
M 47.21875 32.234375 
Q 47.125 39.59375 43.09375 43.984375 
Q 39.0625 48.390625 32.421875 48.390625 
Q 24.90625 48.390625 20.390625 44.140625 
Q 15.875 39.890625 15.1875 32.171875 
z
" id="DejaVuSans-101"/>
       <path id="DejaVuSans-32"/>
       <path d="M 31 75.875 
Q 24.46875 64.65625 21.28125 53.65625 
Q 18.109375 42.671875 18.109375 31.390625 
Q 18.109375 20.125 21.3125 9.0625 
Q 24.515625 -2 31 -13.1875 
L 23.1875 -13.1875 
Q 15.875 -1.703125 12.234375 9.375 
Q 8.59375 20.453125 8.59375 31.390625 
Q 8.59375 42.28125 12.203125 53.3125 
Q 15.828125 64.359375 23.1875 75.875 
z
" id="DejaVuSans-40"/>
       <path d="M 44.28125 53.078125 
L 44.28125 44.578125 
Q 40.484375 46.53125 36.375 47.5 
Q 32.28125 48.484375 27.875 48.484375 
Q 21.1875 48.484375 17.84375 46.4375 
Q 14.5 44.390625 14.5 40.28125 
Q 14.5 37.15625 16.890625 35.375 
Q 19.28125 33.59375 26.515625 31.984375 
L 29.59375 31.296875 
Q 39.15625 29.25 43.1875 25.515625 
Q 47.21875 21.78125 47.21875 15.09375 
Q 47.21875 7.46875 41.1875 3.015625 
Q 35.15625 -1.421875 24.609375 -1.421875 
Q 20.21875 -1.421875 15.453125 -0.5625 
Q 10.6875 0.296875 5.421875 2 
L 5.421875 11.28125 
Q 10.40625 8.6875 15.234375 7.390625 
Q 20.0625 6.109375 24.8125 6.109375 
Q 31.15625 6.109375 34.5625 8.28125 
Q 37.984375 10.453125 37.984375 14.40625 
Q 37.984375 18.0625 35.515625 20.015625 
Q 33.0625 21.96875 24.703125 23.78125 
L 21.578125 24.515625 
Q 13.234375 26.265625 9.515625 29.90625 
Q 5.8125 33.546875 5.8125 39.890625 
Q 5.8125 47.609375 11.28125 51.796875 
Q 16.75 56 26.8125 56 
Q 31.78125 56 36.171875 55.265625 
Q 40.578125 54.546875 44.28125 53.078125 
z
" id="DejaVuSans-115"/>
       <path d="M 8.015625 75.875 
L 15.828125 75.875 
Q 23.140625 64.359375 26.78125 53.3125 
Q 30.421875 42.28125 30.421875 31.390625 
Q 30.421875 20.453125 26.78125 9.375 
Q 23.140625 -1.703125 15.828125 -13.1875 
L 8.015625 -13.1875 
Q 14.5 -2 17.703125 9.0625 
Q 20.90625 20.125 20.90625 31.390625 
Q 20.90625 42.671875 17.703125 53.65625 
Q 14.5 64.65625 8.015625 75.875 
z
" id="DejaVuSans-41"/>
      </defs>
      <use xlink:href="#DejaVuSans-84"/>
      <use x="57.958984" xlink:href="#DejaVuSans-105"/>
      <use x="85.742188" xlink:href="#DejaVuSans-109"/>
      <use x="183.154297" xlink:href="#DejaVuSans-101"/>
      <use x="244.677734" xlink:href="#DejaVuSans-32"/>
      <use x="276.464844" xlink:href="#DejaVuSans-40"/>
      <use x="315.478516" xlink:href="#DejaVuSans-115"/>
      <use x="367.578125" xlink:href="#DejaVuSans-41"/>
     </g>
    </g>
   </g>
   <g id="matplotlib.axis_2">
    <g id="ytick_1">
     <g id="line2d_7">
      <defs>
       <path d="M 0 0 
L 2.5 0 
" id="m4562a13170" style="stroke:#000000;stroke-width:0.5;"/>
      </defs>
      <g>
       <use style="stroke:#000000;stroke-width:0.5;" x="43.915109" xlink:href="#m4562a13170" y="214.510406"/>
      </g>
     </g>
     <g id="text_7">
      <!-- $\mathregular{-0.6}$ -->
      <g transform="translate(20.975109 217.549781)scale(0.08 -0.08)">
       <defs>
        <path d="M 10.59375 35.5 
L 73.1875 35.5 
L 73.1875 27.203125 
L 10.59375 27.203125 
z
" id="DejaVuSans-8722"/>
        <path d="M 33.015625 40.375 
Q 26.375 40.375 22.484375 35.828125 
Q 18.609375 31.296875 18.609375 23.390625 
Q 18.609375 15.53125 22.484375 10.953125 
Q 26.375 6.390625 33.015625 6.390625 
Q 39.65625 6.390625 43.53125 10.953125 
Q 47.40625 15.53125 47.40625 23.390625 
Q 47.40625 31.296875 43.53125 35.828125 
Q 39.65625 40.375 33.015625 40.375 
z
M 52.59375 71.296875 
L 52.59375 62.3125 
Q 48.875 64.0625 45.09375 64.984375 
Q 41.3125 65.921875 37.59375 65.921875 
Q 27.828125 65.921875 22.671875 59.328125 
Q 17.53125 52.734375 16.796875 39.40625 
Q 19.671875 43.65625 24.015625 45.921875 
Q 28.375 48.1875 33.59375 48.1875 
Q 44.578125 48.1875 50.953125 41.515625 
Q 57.328125 34.859375 57.328125 23.390625 
Q 57.328125 12.15625 50.6875 5.359375 
Q 44.046875 -1.421875 33.015625 -1.421875 
Q 20.359375 -1.421875 13.671875 8.265625 
Q 6.984375 17.96875 6.984375 36.375 
Q 6.984375 53.65625 15.1875 63.9375 
Q 23.390625 74.21875 37.203125 74.21875 
Q 40.921875 74.21875 44.703125 73.484375 
Q 48.484375 72.75 52.59375 71.296875 
z
" id="DejaVuSans-54"/>
       </defs>
       <use transform="translate(0 0.78125)" xlink:href="#DejaVuSans-8722"/>
       <use transform="translate(83.789062 0.78125)" xlink:href="#DejaVuSans-48"/>
       <use transform="translate(147.412109 0.78125)" xlink:href="#DejaVuSans-46"/>
       <use transform="translate(179.199219 0.78125)" xlink:href="#DejaVuSans-54"/>
      </g>
     </g>
    </g>
    <g id="ytick_2">
     <g id="line2d_8">
      <g>
       <use style="stroke:#000000;stroke-width:0.5;" x="43.915109" xlink:href="#m4562a13170" y="146.361166"/>
      </g>
     </g>
     <g id="text_8">
      <!-- $\mathregular{-0.4}$ -->
      <g transform="translate(20.975109 149.400541)scale(0.08 -0.08)">
       <defs>
        <path d="M 37.796875 64.3125 
L 12.890625 25.390625 
L 37.796875 25.390625 
z
M 35.203125 72.90625 
L 47.609375 72.90625 
L 47.609375 25.390625 
L 58.015625 25.390625 
L 58.015625 17.1875 
L 47.609375 17.1875 
L 47.609375 0 
L 37.796875 0 
L 37.796875 17.1875 
L 4.890625 17.1875 
L 4.890625 26.703125 
z
" id="DejaVuSans-52"/>
       </defs>
       <use transform="translate(0 0.78125)" xlink:href="#DejaVuSans-8722"/>
       <use transform="translate(83.789062 0.78125)" xlink:href="#DejaVuSans-48"/>
       <use transform="translate(147.412109 0.78125)" xlink:href="#DejaVuSans-46"/>
       <use transform="translate(179.199219 0.78125)" xlink:href="#DejaVuSans-52"/>
      </g>
     </g>
    </g>
    <g id="ytick_3">
     <g id="line2d_9">
      <g>
       <use style="stroke:#000000;stroke-width:0.5;" x="43.915109" xlink:href="#m4562a13170" y="78.211925"/>
      </g>
     </g>
     <g id="text_9">
      <!-- $\mathregular{-0.2}$ -->
      <g transform="translate(21.375109 81.2513)scale(0.08 -0.08)">
       <use transform="translate(0 0.78125)" xlink:href="#DejaVuSans-8722"/>
       <use transform="translate(83.789062 0.78125)" xlink:href="#DejaVuSans-48"/>
       <use transform="translate(147.412109 0.78125)" xlink:href="#DejaVuSans-46"/>
       <use transform="translate(173.699219 0.78125)" xlink:href="#DejaVuSans-50"/>
      </g>
     </g>
    </g>
    <g id="ytick_4">
     <g id="line2d_10">
      <g>
       <use style="stroke:#000000;stroke-width:0.5;" x="43.915109" xlink:href="#m4562a13170" y="10.062685"/>
      </g>
     </g>
     <g id="text_10">
      <!-- $\mathregular{0.0}$ -->
      <g transform="translate(27.615109 13.10206)scale(0.08 -0.08)">
       <use transform="translate(0 0.78125)" xlink:href="#DejaVuSans-48"/>
       <use transform="translate(63.623047 0.78125)" xlink:href="#DejaVuSans-46"/>
       <use transform="translate(95.410156 0.78125)" xlink:href="#DejaVuSans-48"/>
      </g>
     </g>
    </g>
    <g id="text_11">
     <!-- $u_x$ ($m$) -->
     <g transform="translate(14.687453 147.855)rotate(-90)scale(0.11 -0.11)">
      <defs>
       <path d="M 6.6875 21.6875 
L 13.09375 54.6875 
L 22.125 54.6875 
L 15.71875 22.015625 
Q 15.234375 19.625 15.015625 17.921875 
Q 14.796875 16.21875 14.796875 15.09375 
Q 14.796875 10.9375 17.328125 8.65625 
Q 19.875 6.390625 24.515625 6.390625 
Q 31.734375 6.390625 37 11.265625 
Q 42.28125 16.15625 43.890625 24.421875 
L 49.90625 54.6875 
L 58.890625 54.6875 
L 48.296875 0 
L 39.3125 0 
L 41.109375 8.59375 
Q 37.3125 3.8125 32.0625 1.1875 
Q 26.8125 -1.421875 20.90625 -1.421875 
Q 13.71875 -1.421875 9.71875 2.515625 
Q 5.71875 6.453125 5.71875 13.484375 
Q 5.71875 14.9375 5.953125 17.140625 
Q 6.203125 19.34375 6.6875 21.6875 
z
" id="DejaVuSans-Oblique-117"/>
       <path d="M 60.015625 54.6875 
L 34.90625 27.875 
L 50.296875 0 
L 39.984375 0 
L 28.421875 21.6875 
L 8.296875 0 
L -2.59375 0 
L 24.3125 28.8125 
L 10.015625 54.6875 
L 20.3125 54.6875 
L 30.8125 34.90625 
L 49.125 54.6875 
z
" id="DejaVuSans-Oblique-120"/>
       <path d="M 89.796875 33.015625 
L 83.40625 0 
L 74.421875 0 
L 80.71875 32.71875 
Q 81.109375 34.8125 81.296875 36.328125 
Q 81.5 37.84375 81.5 38.921875 
Q 81.5 43.3125 79.046875 45.75 
Q 76.609375 48.1875 72.21875 48.1875 
Q 65.671875 48.1875 60.546875 43.28125 
Q 55.421875 38.375 53.90625 30.515625 
L 47.90625 0 
L 38.921875 0 
L 45.3125 32.71875 
Q 45.703125 34.515625 45.890625 36.046875 
Q 46.09375 37.59375 46.09375 38.8125 
Q 46.09375 43.265625 43.65625 45.71875 
Q 41.21875 48.1875 36.921875 48.1875 
Q 30.28125 48.1875 25.140625 43.28125 
Q 20.015625 38.375 18.5 30.515625 
L 12.5 0 
L 3.515625 0 
L 14.203125 54.6875 
L 23.1875 54.6875 
L 21.484375 46.1875 
Q 25.140625 50.984375 30.046875 53.484375 
Q 34.96875 56 40.578125 56 
Q 46.53125 56 50.359375 52.875 
Q 54.203125 49.75 54.984375 44.1875 
Q 59.078125 49.953125 64.46875 52.96875 
Q 69.875 56 75.875 56 
Q 82.90625 56 86.734375 51.953125 
Q 90.578125 47.90625 90.578125 40.484375 
Q 90.578125 38.875 90.375 36.9375 
Q 90.1875 35.015625 89.796875 33.015625 
z
" id="DejaVuSans-Oblique-109"/>
      </defs>
      <use transform="translate(0 0.125)" xlink:href="#DejaVuSans-Oblique-117"/>
      <use transform="translate(63.378906 -16.28125)scale(0.7)" xlink:href="#DejaVuSans-Oblique-120"/>
      <use transform="translate(107.539062 0.125)" xlink:href="#DejaVuSans-32"/>
      <use transform="translate(139.326172 0.125)" xlink:href="#DejaVuSans-40"/>
      <use transform="translate(178.339844 0.125)" xlink:href="#DejaVuSans-Oblique-109"/>
      <use transform="translate(275.751953 0.125)" xlink:href="#DejaVuSans-41"/>
     </g>
    </g>
   </g>
   <g id="line2d_11">
    <path clip-path="url(#p3082d43494)" d="M 43.915109 10.062685 
L 49.360602 10.172617 
L 51.906696 10.448695 
L 53.614053 10.826016 
L 55.183994 11.406572 
L 56.662022 12.189443 
L 58.075636 13.192674 
L 59.800476 14.703511 
L 61.331936 16.319647 
L 62.893115 18.281574 
L 64.656769 20.864666 
L 66.707462 24.343922 
L 70.388254 30.60813 
L 72.089307 33.087 
L 73.781325 35.203661 
L 75.297619 36.745309 
L 76.557087 37.71694 
L 77.992996 38.545779 
L 79.143137 38.998133 
L 80.372626 39.266026 
L 81.687157 39.335929 
L 82.800474 39.176571 
L 83.796529 38.830953 
L 85.082292 38.120156 
L 86.504038 37.075577 
L 91.056948 33.476604 
L 92.391975 32.862672 
L 93.689777 32.56509 
L 95.04648 32.515073 
L 97.11324 32.708966 
L 99.137717 32.842423 
L 100.524928 32.672074 
L 101.764063 32.293884 
L 103.108073 31.647219 
L 104.882404 30.52259 
L 112.477034 25.300665 
L 113.693921 24.829198 
L 114.655524 24.739117 
L 115.30754 24.867673 
L 115.973657 25.19583 
L 116.644191 25.757737 
L 117.330813 26.601952 
L 118.017435 27.735963 
L 119.047368 29.983128 
L 120.077302 32.842524 
L 121.450546 37.473011 
L 123.817234 46.642189 
L 126.213542 55.667777 
L 127.588438 60.004379 
L 128.688355 62.824157 
L 129.803703 65.076122 
L 130.677899 66.403278 
L 131.664398 67.433238 
L 132.399215 67.883475 
L 133.164215 68.075818 
L 133.982793 67.943 
L 134.842423 67.387561 
L 135.721997 66.302451 
L 136.6465 64.566048 
L 137.615299 62.082074 
L 138.584098 58.935456 
L 140.037297 53.167666 
L 143.944655 36.608152 
L 144.855621 33.688703 
L 145.821757 31.358506 
L 146.545415 30.193273 
L 147.101298 29.648611 
L 147.677275 29.410738 
L 148.13053 29.459237 
L 148.612421 29.731615 
L 149.101135 30.23738 
L 149.77114 31.281505 
L 150.570638 33.010625 
L 151.509222 35.620195 
L 152.719387 39.70077 
L 154.974899 48.35081 
L 156.805693 55.002222 
L 157.926492 58.386929 
L 158.847794 60.61292 
L 159.528366 61.891915 
L 160.261654 62.907505 
L 161.009595 63.549302 
L 161.764946 63.804916 
L 162.546711 63.657543 
L 163.328475 63.100678 
L 164.110239 62.155034 
L 164.810513 60.986974 
L 165.570703 59.396033 
L 166.748772 56.286564 
L 167.973955 52.272863 
L 169.733168 45.408384 
L 173.127344 31.511209 
L 174.208495 28.15883 
L 174.968134 26.491714 
L 175.549327 25.689243 
L 175.936789 25.419469 
L 176.324252 25.381711 
L 176.711714 25.591251 
L 177.202353 26.237076 
L 177.731744 27.428136 
L 178.347767 29.473725 
L 179.054539 32.69247 
L 179.877701 37.555375 
L 180.949721 45.523039 
L 182.179161 56.556735 
L 183.823687 73.429941 
L 187.9313 116.484474 
L 189.285501 127.67512 
L 190.403323 134.975782 
L 191.262409 139.296374 
L 192.126549 142.520134 
L 192.991661 144.718855 
L 193.586358 145.690728 
L 194.19853 146.254687 
L 194.562644 146.378221 
L 194.939131 146.336622 
L 195.315618 146.113906 
L 195.692105 145.701419 
L 196.072755 145.084665 
L 196.834055 143.200973 
L 197.595355 140.391656 
L 198.365845 136.519851 
L 199.25734 130.69644 
L 200.175326 123.162167 
L 201.41903 110.769557 
L 203.703833 84.759851 
L 205.520543 65.268791 
L 206.710839 54.513118 
L 207.815315 46.34386 
L 208.861901 40.277224 
L 209.69955 36.610841 
L 210.327824 34.591915 
L 210.956098 33.245284 
L 211.387069 32.739735 
L 211.81804 32.593734 
L 212.250978 32.819702 
L 212.685885 33.437861 
L 213.122483 34.457407 
L 213.781401 36.751379 
L 214.443279 39.953653 
L 215.335228 45.580605 
L 216.263298 52.858798 
L 217.498524 64.399332 
L 221.667006 105.810169 
L 222.556341 112.236583 
L 223.445676 117.201301 
L 224.041373 119.658399 
L 224.63707 121.443877 
L 225.232767 122.602909 
L 225.828464 123.229253 
L 226.43152 123.414589 
L 227.047336 123.245477 
L 227.687303 122.791748 
L 228.357327 122.083925 
L 229.065462 121.086087 
L 229.819874 119.681033 
L 230.596368 117.743897 
L 231.372863 115.173331 
L 232.149358 111.744945 
L 232.925853 107.224136 
L 233.821864 100.474162 
L 234.858418 90.679476 
L 236.118516 76.540238 
L 238.535289 48.741867 
L 239.519928 39.63788 
L 240.435364 33.260674 
L 241.079978 30.280882 
L 241.602149 28.909183 
L 241.873892 28.587651 
L 242.15284 28.543776 
L 242.436591 28.79851 
L 242.726735 29.373183 
L 243.203073 31.00871 
L 243.72767 33.794304 
L 244.293772 37.924118 
L 245.086314 45.510396 
L 246.118316 57.972185 
L 247.725135 80.775316 
L 251.554134 136.159479 
L 254.145638 170.207516 
L 255.480843 184.798516 
L 256.703617 195.595711 
L 257.819187 203.35056 
L 258.754171 208.209192 
L 259.469964 210.927649 
L 260.255918 213.016817 
L 260.804307 214.004296 
L 261.360819 214.58351 
L 261.644575 214.682292 
L 261.941318 214.616919 
L 262.240601 214.344012 
L 262.556 213.785337 
L 262.886868 212.851016 
L 263.217736 211.523851 
L 263.954429 207.099729 
L 264.69886 200.698671 
L 265.764242 189.080213 
L 267.137591 171.548746 
L 269.360684 139.785985 
L 272.68947 92.356478 
L 273.885867 77.990754 
L 274.806844 69.252976 
L 275.530613 64.337051 
L 276.100645 61.936235 
L 276.427756 61.198803 
L 276.775643 60.942345 
L 276.954802 61.021061 
L 277.313121 61.59041 
L 277.719438 62.858617 
L 278.368887 66.105167 
L 279.238614 72.300434 
L 280.355275 82.224053 
L 282.864643 105.401949 
L 283.967782 113.091961 
L 284.823304 117.519625 
L 285.717612 120.901881 
L 286.620208 123.332966 
L 288.128253 126.380313 
L 289.339152 129.06959 
L 290.635934 131.922643 
L 291.17342 132.557775 
L 291.557959 132.675127 
L 291.942499 132.499341 
L 292.329268 132.05757 
L 292.922424 130.958939 
L 293.751769 128.884272 
L 294.832239 125.557224 
L 295.528916 122.797294 
L 296.233159 119.089048 
L 296.845305 114.879872 
L 297.811424 106.527868 
L 300.071221 86.046986 
L 304.011114 55.495708 
L 304.642391 52.588168 
L 305.073022 51.444497 
L 305.507899 50.961526 
L 305.725338 50.952156 
L 306.160214 51.328337 
L 306.595091 52.138007 
L 307.217008 53.933906 
L 307.96517 57.073787 
L 308.694231 61.317408 
L 309.535423 67.911419 
L 310.4364 76.931647 
L 311.916862 94.160614 
L 312.908419 107.889338 
L 313.653918 121.214162 
L 314.778743 146.311963 
L 317.754332 216.111952 
L 318.984037 239.426216 
L 319.547018 246.82914 
L 320.034058 250.322617 
L 320.206864 250.83975 
L 320.379671 250.997315 
L 320.552478 250.824921 
L 320.91041 249.604274 
L 321.447082 246.436587 
L 322.727108 238.478715 
L 323.306728 236.081884 
L 323.89363 234.388092 
L 325.374053 230.859887 
L 326.584962 226.60749 
L 326.835329 226.144275 
L 327.085695 225.9402 
L 327.336062 225.972913 
L 328.087162 226.610779 
L 328.337528 226.574714 
L 328.587895 226.175133 
L 328.838261 225.290782 
L 329.266974 222.412997 
L 329.793534 216.219013 
L 330.378761 206.05165 
L 331.222266 187.012299 
L 334.232556 115.121339 
L 335.833991 80.686699 
L 336.792535 64.774679 
L 337.538929 55.616132 
L 338.211218 49.878873 
L 338.949336 45.628091 
L 339.753368 42.391213 
L 340.327502 40.923679 
L 340.767075 40.42468 
L 341.071042 40.447248 
L 341.375009 40.839041 
L 341.678975 41.662549 
L 342.162451 43.839291 
L 342.746657 47.659848 
L 343.552176 54.543451 
L 346.552007 83.758654 
L 348.937797 110.407043 
L 349.875672 117.612455 
L 351.297387 126.644886 
L 352.220018 133.100344 
L 353.460528 141.728612 
L 353.980285 144.252242 
L 354.504702 146.010355 
L 355.291327 147.709729 
L 355.999348 148.682057 
L 356.478591 148.943846 
L 356.718212 148.90958 
L 356.964331 148.730745 
L 357.21045 148.378102 
L 357.702687 147.074564 
L 358.194925 144.943205 
L 358.933281 140.258085 
L 362.587547 113.862538 
L 363.822445 104.328157 
L 364.957823 92.686899 
L 367.966017 58.96219 
L 370.517805 29.318319 
L 371.090804 24.929848 
L 371.67108 22.089598 
L 372.013232 21.162839 
L 372.311047 20.906331 
L 372.477181 20.997954 
L 372.809449 21.582403 
L 373.659906 23.937268 
L 374.192677 25.97144 
L 374.578973 28.401676 
L 375.158416 33.870808 
L 375.760116 41.880016 
L 376.361816 52.778738 
L 378.49898 95.330018 
L 381.207934 142.902791 
L 381.954016 150.709663 
L 382.888095 157.899065 
L 385.353508 174.217215 
L 386.617397 182.589352 
L 387.887541 187.913969 
L 388.466589 189.723315 
L 389.476537 192.078225 
L 389.68651 192.339136 
L 389.896484 192.38664 
L 390.106457 192.173049 
L 390.531088 191.044196 
L 391.168035 188.534121 
L 391.592666 186.300943 
L 392.229613 181.452129 
L 393.078876 173.368015 
L 393.961519 162.338786 
L 395.517596 138.640495 
L 398.767032 86.61056 
L 399.778054 74.87532 
L 403.348879 39.337228 
L 404.099785 34.875797 
L 405.841378 27.092356 
L 406.791338 23.949659 
L 407.107992 23.598392 
L 407.266318 23.657264 
L 407.582971 24.179327 
L 407.913512 25.270924 
L 408.610483 28.79121 
L 409.172053 32.642103 
L 409.741825 38.300037 
L 410.511226 48.1614 
L 411.492773 63.783308 
L 413.100104 94.645394 
L 415.345645 141.058507 
L 416.006391 150.263745 
L 416.446975 153.511094 
L 416.887647 155.411179 
L 417.345972 156.560812 
L 417.856878 157.108495 
L 418.408368 157.692976 
L 419.186044 158.596612 
L 419.383992 158.588349 
L 419.55885 158.333413 
L 419.908566 157.024325 
L 421.573713 148.766126 
L 422.361999 146.467868 
L 422.361999 146.467868 
" style="fill:none;stroke:#e36f47;"/>
   </g>
   <g id="patch_3">
    <path d="M 43.915109 258.225354 
L 43.915109 2.834646 
" style="fill:none;stroke:#000000;stroke-linecap:square;stroke-linejoin:miter;"/>
   </g>
   <g id="patch_4">
    <path d="M 43.915109 258.225354 
L 422.361999 258.225354 
" style="fill:none;stroke:#000000;stroke-linecap:square;stroke-linejoin:miter;"/>
   </g>
   <g id="legend_1">
    <g id="patch_5">
     <path d="M 299.041999 39.119646 
L 418.361999 39.119646 
L 418.361999 6.834646 
L 299.041999 6.834646 
z
" style="fill:#ffffff;stroke:#000000;stroke-linejoin:miter;"/>
    </g>
    <g id="line2d_12">
     <path d="M 305.441999 16.513396 
L 321.441999 16.513396 
" style="fill:none;stroke:#009afa;stroke-linejoin:miter;"/>
    </g>
    <g id="line2d_13"/>
    <g id="text_12">
     <!-- GXBeam -->
     <g transform="translate(327.841999 19.313396)scale(0.08 -0.08)">
      <defs>
       <path d="M 59.515625 10.40625 
L 59.515625 29.984375 
L 43.40625 29.984375 
L 43.40625 38.09375 
L 69.28125 38.09375 
L 69.28125 6.78125 
Q 63.578125 2.734375 56.6875 0.65625 
Q 49.8125 -1.421875 42 -1.421875 
Q 24.90625 -1.421875 15.25 8.5625 
Q 5.609375 18.5625 5.609375 36.375 
Q 5.609375 54.25 15.25 64.234375 
Q 24.90625 74.21875 42 74.21875 
Q 49.125 74.21875 55.546875 72.453125 
Q 61.96875 70.703125 67.390625 67.28125 
L 67.390625 56.78125 
Q 61.921875 61.421875 55.765625 63.765625 
Q 49.609375 66.109375 42.828125 66.109375 
Q 29.4375 66.109375 22.71875 58.640625 
Q 16.015625 51.171875 16.015625 36.375 
Q 16.015625 21.625 22.71875 14.15625 
Q 29.4375 6.6875 42.828125 6.6875 
Q 48.046875 6.6875 52.140625 7.59375 
Q 56.25 8.5 59.515625 10.40625 
z
" id="DejaVuSans-71"/>
       <path d="M 6.296875 72.90625 
L 16.890625 72.90625 
L 35.015625 45.796875 
L 53.21875 72.90625 
L 63.8125 72.90625 
L 40.375 37.890625 
L 65.375 0 
L 54.78125 0 
L 34.28125 31 
L 13.625 0 
L 2.984375 0 
L 29 38.921875 
z
" id="DejaVuSans-88"/>
       <path d="M 19.671875 34.8125 
L 19.671875 8.109375 
L 35.5 8.109375 
Q 43.453125 8.109375 47.28125 11.40625 
Q 51.125 14.703125 51.125 21.484375 
Q 51.125 28.328125 47.28125 31.5625 
Q 43.453125 34.8125 35.5 34.8125 
z
M 19.671875 64.796875 
L 19.671875 42.828125 
L 34.28125 42.828125 
Q 41.5 42.828125 45.03125 45.53125 
Q 48.578125 48.25 48.578125 53.8125 
Q 48.578125 59.328125 45.03125 62.0625 
Q 41.5 64.796875 34.28125 64.796875 
z
M 9.8125 72.90625 
L 35.015625 72.90625 
Q 46.296875 72.90625 52.390625 68.21875 
Q 58.5 63.53125 58.5 54.890625 
Q 58.5 48.1875 55.375 44.234375 
Q 52.25 40.28125 46.1875 39.3125 
Q 53.46875 37.75 57.5 32.78125 
Q 61.53125 27.828125 61.53125 20.40625 
Q 61.53125 10.640625 54.890625 5.3125 
Q 48.25 0 35.984375 0 
L 9.8125 0 
z
" id="DejaVuSans-66"/>
       <path d="M 34.28125 27.484375 
Q 23.390625 27.484375 19.1875 25 
Q 14.984375 22.515625 14.984375 16.5 
Q 14.984375 11.71875 18.140625 8.90625 
Q 21.296875 6.109375 26.703125 6.109375 
Q 34.1875 6.109375 38.703125 11.40625 
Q 43.21875 16.703125 43.21875 25.484375 
L 43.21875 27.484375 
z
M 52.203125 31.203125 
L 52.203125 0 
L 43.21875 0 
L 43.21875 8.296875 
Q 40.140625 3.328125 35.546875 0.953125 
Q 30.953125 -1.421875 24.3125 -1.421875 
Q 15.921875 -1.421875 10.953125 3.296875 
Q 6 8.015625 6 15.921875 
Q 6 25.140625 12.171875 29.828125 
Q 18.359375 34.515625 30.609375 34.515625 
L 43.21875 34.515625 
L 43.21875 35.40625 
Q 43.21875 41.609375 39.140625 45 
Q 35.0625 48.390625 27.6875 48.390625 
Q 23 48.390625 18.546875 47.265625 
Q 14.109375 46.140625 10.015625 43.890625 
L 10.015625 52.203125 
Q 14.9375 54.109375 19.578125 55.046875 
Q 24.21875 56 28.609375 56 
Q 40.484375 56 46.34375 49.84375 
Q 52.203125 43.703125 52.203125 31.203125 
z
" id="DejaVuSans-97"/>
      </defs>
      <use xlink:href="#DejaVuSans-71"/>
      <use x="77.490234" xlink:href="#DejaVuSans-88"/>
      <use x="145.996094" xlink:href="#DejaVuSans-66"/>
      <use x="214.599609" xlink:href="#DejaVuSans-101"/>
      <use x="276.123047" xlink:href="#DejaVuSans-97"/>
      <use x="337.402344" xlink:href="#DejaVuSans-109"/>
     </g>
    </g>
    <g id="line2d_14">
     <path d="M 305.441999 28.255896 
L 321.441999 28.255896 
" style="fill:none;stroke:#e36f47;stroke-linejoin:miter;"/>
    </g>
    <g id="line2d_15"/>
    <g id="text_13">
     <!-- DifferentialEquations -->
     <g transform="translate(327.841999 31.055896)scale(0.08 -0.08)">
      <defs>
       <path d="M 19.671875 64.796875 
L 19.671875 8.109375 
L 31.59375 8.109375 
Q 46.6875 8.109375 53.6875 14.9375 
Q 60.6875 21.78125 60.6875 36.53125 
Q 60.6875 51.171875 53.6875 57.984375 
Q 46.6875 64.796875 31.59375 64.796875 
z
M 9.8125 72.90625 
L 30.078125 72.90625 
Q 51.265625 72.90625 61.171875 64.09375 
Q 71.09375 55.28125 71.09375 36.53125 
Q 71.09375 17.671875 61.125 8.828125 
Q 51.171875 0 30.078125 0 
L 9.8125 0 
z
" id="DejaVuSans-68"/>
       <path d="M 37.109375 75.984375 
L 37.109375 68.5 
L 28.515625 68.5 
Q 23.6875 68.5 21.796875 66.546875 
Q 19.921875 64.59375 19.921875 59.515625 
L 19.921875 54.6875 
L 34.71875 54.6875 
L 34.71875 47.703125 
L 19.921875 47.703125 
L 19.921875 0 
L 10.890625 0 
L 10.890625 47.703125 
L 2.296875 47.703125 
L 2.296875 54.6875 
L 10.890625 54.6875 
L 10.890625 58.5 
Q 10.890625 67.625 15.140625 71.796875 
Q 19.390625 75.984375 28.609375 75.984375 
z
" id="DejaVuSans-102"/>
       <path d="M 41.109375 46.296875 
Q 39.59375 47.171875 37.8125 47.578125 
Q 36.03125 48 33.890625 48 
Q 26.265625 48 22.1875 43.046875 
Q 18.109375 38.09375 18.109375 28.8125 
L 18.109375 0 
L 9.078125 0 
L 9.078125 54.6875 
L 18.109375 54.6875 
L 18.109375 46.1875 
Q 20.953125 51.171875 25.484375 53.578125 
Q 30.03125 56 36.53125 56 
Q 37.453125 56 38.578125 55.875 
Q 39.703125 55.765625 41.0625 55.515625 
z
" id="DejaVuSans-114"/>
       <path d="M 54.890625 33.015625 
L 54.890625 0 
L 45.90625 0 
L 45.90625 32.71875 
Q 45.90625 40.484375 42.875 44.328125 
Q 39.84375 48.1875 33.796875 48.1875 
Q 26.515625 48.1875 22.3125 43.546875 
Q 18.109375 38.921875 18.109375 30.90625 
L 18.109375 0 
L 9.078125 0 
L 9.078125 54.6875 
L 18.109375 54.6875 
L 18.109375 46.1875 
Q 21.34375 51.125 25.703125 53.5625 
Q 30.078125 56 35.796875 56 
Q 45.21875 56 50.046875 50.171875 
Q 54.890625 44.34375 54.890625 33.015625 
z
" id="DejaVuSans-110"/>
       <path d="M 18.3125 70.21875 
L 18.3125 54.6875 
L 36.8125 54.6875 
L 36.8125 47.703125 
L 18.3125 47.703125 
L 18.3125 18.015625 
Q 18.3125 11.328125 20.140625 9.421875 
Q 21.96875 7.515625 27.59375 7.515625 
L 36.8125 7.515625 
L 36.8125 0 
L 27.59375 0 
Q 17.1875 0 13.234375 3.875 
Q 9.28125 7.765625 9.28125 18.015625 
L 9.28125 47.703125 
L 2.6875 47.703125 
L 2.6875 54.6875 
L 9.28125 54.6875 
L 9.28125 70.21875 
z
" id="DejaVuSans-116"/>
       <path d="M 9.421875 75.984375 
L 18.40625 75.984375 
L 18.40625 0 
L 9.421875 0 
z
" id="DejaVuSans-108"/>
       <path d="M 9.8125 72.90625 
L 55.90625 72.90625 
L 55.90625 64.59375 
L 19.671875 64.59375 
L 19.671875 43.015625 
L 54.390625 43.015625 
L 54.390625 34.71875 
L 19.671875 34.71875 
L 19.671875 8.296875 
L 56.78125 8.296875 
L 56.78125 0 
L 9.8125 0 
z
" id="DejaVuSans-69"/>
       <path d="M 14.796875 27.296875 
Q 14.796875 17.390625 18.875 11.75 
Q 22.953125 6.109375 30.078125 6.109375 
Q 37.203125 6.109375 41.296875 11.75 
Q 45.40625 17.390625 45.40625 27.296875 
Q 45.40625 37.203125 41.296875 42.84375 
Q 37.203125 48.484375 30.078125 48.484375 
Q 22.953125 48.484375 18.875 42.84375 
Q 14.796875 37.203125 14.796875 27.296875 
z
M 45.40625 8.203125 
Q 42.578125 3.328125 38.25 0.953125 
Q 33.9375 -1.421875 27.875 -1.421875 
Q 17.96875 -1.421875 11.734375 6.484375 
Q 5.515625 14.40625 5.515625 27.296875 
Q 5.515625 40.1875 11.734375 48.09375 
Q 17.96875 56 27.875 56 
Q 33.9375 56 38.25 53.625 
Q 42.578125 51.265625 45.40625 46.390625 
L 45.40625 54.6875 
L 54.390625 54.6875 
L 54.390625 -20.796875 
L 45.40625 -20.796875 
z
" id="DejaVuSans-113"/>
       <path d="M 8.5 21.578125 
L 8.5 54.6875 
L 17.484375 54.6875 
L 17.484375 21.921875 
Q 17.484375 14.15625 20.5 10.265625 
Q 23.53125 6.390625 29.59375 6.390625 
Q 36.859375 6.390625 41.078125 11.03125 
Q 45.3125 15.671875 45.3125 23.6875 
L 45.3125 54.6875 
L 54.296875 54.6875 
L 54.296875 0 
L 45.3125 0 
L 45.3125 8.40625 
Q 42.046875 3.421875 37.71875 1 
Q 33.40625 -1.421875 27.6875 -1.421875 
Q 18.265625 -1.421875 13.375 4.4375 
Q 8.5 10.296875 8.5 21.578125 
z
M 31.109375 56 
z
" id="DejaVuSans-117"/>
       <path d="M 30.609375 48.390625 
Q 23.390625 48.390625 19.1875 42.75 
Q 14.984375 37.109375 14.984375 27.296875 
Q 14.984375 17.484375 19.15625 11.84375 
Q 23.34375 6.203125 30.609375 6.203125 
Q 37.796875 6.203125 41.984375 11.859375 
Q 46.1875 17.53125 46.1875 27.296875 
Q 46.1875 37.015625 41.984375 42.703125 
Q 37.796875 48.390625 30.609375 48.390625 
z
M 30.609375 56 
Q 42.328125 56 49.015625 48.375 
Q 55.71875 40.765625 55.71875 27.296875 
Q 55.71875 13.875 49.015625 6.21875 
Q 42.328125 -1.421875 30.609375 -1.421875 
Q 18.84375 -1.421875 12.171875 6.21875 
Q 5.515625 13.875 5.515625 27.296875 
Q 5.515625 40.765625 12.171875 48.375 
Q 18.84375 56 30.609375 56 
z
" id="DejaVuSans-111"/>
      </defs>
      <use xlink:href="#DejaVuSans-68"/>
      <use x="77.001953" xlink:href="#DejaVuSans-105"/>
      <use x="104.785156" xlink:href="#DejaVuSans-102"/>
      <use x="139.990234" xlink:href="#DejaVuSans-102"/>
      <use x="175.195312" xlink:href="#DejaVuSans-101"/>
      <use x="236.71875" xlink:href="#DejaVuSans-114"/>
      <use x="275.582031" xlink:href="#DejaVuSans-101"/>
      <use x="337.105469" xlink:href="#DejaVuSans-110"/>
      <use x="400.484375" xlink:href="#DejaVuSans-116"/>
      <use x="439.693359" xlink:href="#DejaVuSans-105"/>
      <use x="467.476562" xlink:href="#DejaVuSans-97"/>
      <use x="528.755859" xlink:href="#DejaVuSans-108"/>
      <use x="556.539062" xlink:href="#DejaVuSans-69"/>
      <use x="619.722656" xlink:href="#DejaVuSans-113"/>
      <use x="683.199219" xlink:href="#DejaVuSans-117"/>
      <use x="746.578125" xlink:href="#DejaVuSans-97"/>
      <use x="807.857422" xlink:href="#DejaVuSans-116"/>
      <use x="847.066406" xlink:href="#DejaVuSans-105"/>
      <use x="874.849609" xlink:href="#DejaVuSans-111"/>
      <use x="936.03125" xlink:href="#DejaVuSans-110"/>
      <use x="999.410156" xlink:href="#DejaVuSans-115"/>
     </g>
    </g>
   </g>
  </g>
 </g>
 <defs>
  <clipPath id="p3082d43494">
   <rect height="255.390709" width="378.44689" x="43.915109" y="2.834646"/>
  </clipPath>
 </defs>
</svg>
