<?xml version="1.0" encoding="utf-8" standalone="no"?>
<!DOCTYPE svg PUBLIC "-//W3C//DTD SVG 1.1//EN"
  "http://www.w3.org/Graphics/SVG/1.1/DTD/svg11.dtd">
<!-- Created with matplotlib (https://matplotlib.org/) -->
<svg height="288pt" version="1.1" viewBox="0 0 432 288" width="432pt" xmlns="http://www.w3.org/2000/svg" xmlns:xlink="http://www.w3.org/1999/xlink">
 <metadata>
  <rdf:RDF xmlns:cc="http://creativecommons.org/ns#" xmlns:dc="http://purl.org/dc/elements/1.1/" xmlns:rdf="http://www.w3.org/1999/02/22-rdf-syntax-ns#">
   <cc:Work>
    <dc:type rdf:resource="http://purl.org/dc/dcmitype/StillImage"/>
    <dc:date>2021-06-08T21:23:40.149343</dc:date>
    <dc:format>image/svg+xml</dc:format>
    <dc:creator>
     <cc:Agent>
      <dc:title>Matplotlib v3.3.4, https://matplotlib.org/</dc:title>
     </cc:Agent>
    </dc:creator>
   </cc:Work>
  </rdf:RDF>
 </metadata>
 <defs>
  <style type="text/css">*{stroke-linecap:butt;stroke-linejoin:round;}</style>
 </defs>
 <g id="figure_1">
  <g id="patch_1">
   <path d="M 0 288 
L 432 288 
L 432 0 
L 0 0 
z
" style="fill:#ffffff;"/>
  </g>
  <g id="axes_1">
   <g id="patch_2">
    <path d="M 71.231488 258.225354 
L 422.361999 258.225354 
L 422.361999 2.834646 
L 71.231488 2.834646 
z
" style="fill:#ffffff;"/>
   </g>
   <g id="line2d_1">
    <path clip-path="url(#p4f3b1b980e)" d="M 71.231488 129.810134 
L 72.63601 129.88798 
L 73.689401 130.024404 
L 74.216097 129.877965 
L 76.147315 129.086241 
L 76.849576 129.292476 
L 81.238707 131.851427 
L 81.765403 131.729427 
L 82.292099 131.329433 
L 86.505665 127.016814 
L 87.207926 126.586342 
L 87.734622 126.511024 
L 88.963578 126.470939 
L 89.665839 126.267063 
L 90.3681 126.088198 
L 90.894796 126.09671 
L 91.421492 126.360136 
L 92.299318 127.129203 
L 93.70384 128.853475 
L 94.581667 130.526356 
L 95.459493 132.774527 
L 96.68845 135.822186 
L 97.566276 137.289081 
L 98.444102 138.362508 
L 99.497494 139.44358 
L 100.199755 139.820146 
L 100.726451 139.859368 
L 102.306538 139.709058 
L 103.535495 139.827615 
L 104.06219 139.684403 
L 104.588886 139.229335 
L 105.466712 138.120331 
L 107.39793 135.038119 
L 108.275757 133.048297 
L 109.855844 129.502341 
L 111.787062 125.849835 
L 112.664888 123.551532 
L 114.596106 117.654477 
L 115.649497 113.608327 
L 117.40515 106.871068 
L 118.282976 104.518276 
L 119.511933 101.948704 
L 120.389759 100.610812 
L 120.916455 100.181944 
L 121.443151 99.960176 
L 122.145412 99.981492 
L 123.549934 100.215453 
L 124.07663 100.499438 
L 124.603325 101.145844 
L 125.305586 102.530704 
L 126.358978 105.438055 
L 127.7635 109.937772 
L 129.168022 115.312731 
L 130.221414 119.127695 
L 131.45037 122.606668 
L 132.679327 126.313572 
L 134.78611 133.841076 
L 135.839502 138.423757 
L 137.419589 146.613877 
L 140.930894 164.072462 
L 142.335416 170.242568 
L 143.915504 176.257172 
L 144.79333 178.814887 
L 145.320026 179.833437 
L 145.846721 180.391346 
L 146.548982 180.713828 
L 147.251243 180.692777 
L 148.12907 180.472737 
L 149.006896 179.89955 
L 150.235853 179.02632 
L 150.762548 178.967129 
L 151.289244 179.155025 
L 153.396027 180.431225 
L 154.449419 180.463033 
L 155.15168 180.404952 
L 155.853941 180.173512 
L 156.380637 179.778411 
L 157.258463 178.631218 
L 160.067507 174.333576 
L 160.769768 172.397604 
L 161.472029 169.848861 
L 162.525421 164.84366 
L 163.403247 159.485591 
L 164.281073 152.767514 
L 166.036726 136.88478 
L 169.1969 109.065737 
L 171.128118 94.114692 
L 172.883771 81.51158 
L 173.761597 76.631215 
L 174.639423 73.028855 
L 175.692815 69.815608 
L 176.570641 67.849777 
L 177.272902 66.781256 
L 178.677424 65.031204 
L 179.20412 64.097976 
L 181.310903 59.775354 
L 182.013164 59.041399 
L 182.53986 58.751244 
L 183.066556 58.689255 
L 183.593251 58.862029 
L 184.119947 59.391147 
L 184.646643 60.280085 
L 185.524469 62.383979 
L 186.753426 65.309579 
L 187.806817 67.242082 
L 188.684644 68.92966 
L 189.56247 71.17127 
L 190.440296 74.160029 
L 191.142557 77.232022 
L 191.844818 81.238499 
L 192.722645 87.604537 
L 199.56969 141.965433 
L 200.974212 151.675605 
L 201.852038 156.179969 
L 202.554299 158.697661 
L 203.432125 160.961746 
L 205.714474 166.140396 
L 206.416735 168.489398 
L 207.118996 171.566128 
L 209.401344 182.624299 
L 209.92804 184.048548 
L 210.454735 184.91724 
L 210.981431 185.250105 
L 211.332562 185.253785 
L 211.683692 185.04513 
L 212.034823 184.587741 
L 212.561519 183.471325 
L 213.088214 181.821543 
L 213.966041 178.215926 
L 214.843867 174.739134 
L 215.370563 173.328695 
L 215.897258 172.605324 
L 216.248389 172.502968 
L 216.775085 172.721496 
L 218.179607 173.411487 
L 218.530737 173.276399 
L 218.881868 172.965695 
L 219.232998 172.433395 
L 219.759694 171.087575 
L 220.28639 168.85409 
L 220.813086 165.538366 
L 221.515347 159.27617 
L 222.568738 147.195547 
L 224.324391 127.654786 
L 226.606739 105.629159 
L 227.660131 95.013375 
L 228.537957 83.684735 
L 230.118044 58.908537 
L 230.99587 46.931734 
L 231.698131 39.642104 
L 232.400392 34.619128 
L 232.927088 32.527122 
L 233.278219 31.970353 
L 233.453784 31.980227 
L 233.629349 32.177691 
L 233.98048 33.101871 
L 234.507176 35.679498 
L 235.385002 41.804567 
L 236.262828 47.797081 
L 236.965089 51.265277 
L 237.66735 53.716697 
L 239.598568 59.17976 
L 239.949698 59.655947 
L 240.300829 59.816659 
L 240.651959 59.679627 
L 241.880916 58.708826 
L 242.232047 58.824541 
L 242.758743 59.408823 
L 245.216656 63.325771 
L 245.743352 64.839917 
L 246.445613 67.784542 
L 247.147874 70.742246 
L 247.499004 71.675735 
L 247.850135 72.092009 
L 248.201265 72.020971 
L 249.254657 70.927322 
L 249.430222 70.991971 
L 249.605788 71.233027 
L 249.956918 72.294948 
L 250.308049 74.135036 
L 250.834744 78.289733 
L 251.537005 85.88763 
L 252.414832 98.147929 
L 253.292658 114.210549 
L 255.750571 163.762416 
L 256.452832 172.062846 
L 257.330659 179.460308 
L 258.208485 184.918618 
L 258.735181 187.042345 
L 259.086311 187.856048 
L 259.613007 188.399961 
L 260.490833 189.000838 
L 260.841964 189.706463 
L 261.36866 191.30765 
L 262.246486 194.201383 
L 262.597616 194.702621 
L 262.773182 194.738608 
L 262.948747 194.593788 
L 263.299877 193.785235 
L 264.002138 191.019534 
L 264.7044 188.46167 
L 265.05553 187.897823 
L 265.231095 187.806982 
L 265.406661 187.853124 
L 265.757791 188.358583 
L 266.460052 190.215336 
L 268.215705 196.104566 
L 268.7424 198.91809 
L 270.146922 207.284766 
L 270.498053 208.028244 
L 270.673618 208.045209 
L 270.849183 207.82313 
L 271.200314 206.680107 
L 271.72701 203.613529 
L 272.604836 198.236437 
L 272.955967 197.001318 
L 273.307097 196.453866 
L 273.658228 196.397875 
L 274.184923 196.84162 
L 274.536054 197.029427 
L 274.887184 196.897838 
L 275.238315 196.379091 
L 275.765011 194.957094 
L 276.642837 192.534902 
L 276.993967 191.949259 
L 277.345098 191.706017 
L 278.222924 191.586149 
L 278.574055 191.067213 
L 278.925185 189.916787 
L 279.276316 188.027612 
L 279.803012 183.494776 
L 280.505273 174.592788 
L 283.314317 135.374756 
L 284.543273 121.233895 
L 286.298926 103.680424 
L 287.001187 93.252399 
L 289.810231 47.332025 
L 290.512492 38.934494 
L 291.039188 34.61318 
L 291.390318 33.157533 
L 291.565884 32.931697 
L 291.741449 33.039444 
L 291.917014 33.48071 
L 292.268145 35.292253 
L 292.79484 39.690611 
L 294.199362 52.492855 
L 294.726058 55.360829 
L 295.252754 57.074943 
L 295.603885 57.728729 
L 295.955015 57.985396 
L 296.13058 57.940635 
L 296.306146 57.7501 
L 296.657276 56.832845 
L 297.008407 55.131474 
L 297.359537 52.472859 
L 297.886233 46.656591 
L 299.641885 25.028574 
L 299.993016 22.813213 
L 300.344146 21.644381 
L 300.519712 21.428628 
L 300.695277 21.460587 
L 300.870842 21.720745 
L 301.221973 22.836159 
L 301.573103 24.694322 
L 302.099799 28.850012 
L 302.80206 36.229611 
L 304.733278 59.302437 
L 305.084408 61.416906 
L 305.435539 62.205031 
L 305.611104 62.072937 
L 305.786669 61.582358 
L 306.1378 59.582359 
L 306.664496 54.473799 
L 308.595713 32.238671 
L 308.946844 30.438916 
L 309.122409 30.154482 
L 309.297974 30.37559 
L 309.47354 31.149776 
L 309.82467 34.49535 
L 310.175801 40.228617 
L 310.702497 53.070499 
L 311.580323 82.126706 
L 313.335975 142.76199 
L 314.038236 158.732104 
L 314.564932 166.470462 
L 315.091628 171.140111 
L 315.442758 172.707561 
L 315.793889 173.374319 
L 315.969454 173.427925 
L 316.671715 173.057758 
L 316.84728 173.225275 
L 317.022846 173.657173 
L 317.373976 175.63026 
L 317.725107 179.47131 
L 318.251803 188.446632 
L 320.18302 226.611105 
L 320.709716 232.230475 
L 321.236412 235.385208 
L 321.763108 237.002521 
L 322.114238 237.369306 
L 322.289803 237.229972 
L 322.465369 236.805001 
L 322.816499 234.831121 
L 323.16763 231.010877 
L 323.694325 221.076559 
L 324.572152 196.558489 
L 325.098848 183.462909 
L 325.449978 178.077464 
L 325.801109 176.035327 
L 325.976674 176.211978 
L 326.152239 177.10001 
L 326.50337 180.751911 
L 327.030065 189.510166 
L 328.785718 221.146538 
L 330.19024 240.315385 
L 330.892501 247.86514 
L 331.243631 250.111806 
L 331.594762 250.997315 
L 331.770327 250.863172 
L 331.945892 250.262997 
L 332.297023 247.525168 
L 332.648154 242.664313 
L 333.350415 228.11532 
L 334.228241 210.294677 
L 334.579371 206.053335 
L 334.930502 204.08725 
L 335.106067 203.864332 
L 335.281632 204.05041 
L 335.632763 205.201065 
L 336.159459 207.010645 
L 336.510589 207.392585 
L 336.686154 207.374581 
L 337.037285 207.016846 
L 337.388415 206.598018 
L 337.563981 206.564369 
L 337.739546 206.750273 
L 337.915111 207.21652 
L 338.266242 209.223845 
L 338.792937 214.78429 
L 340.021894 229.300087 
L 340.373025 231.719372 
L 340.724155 232.784175 
L 340.899721 232.81633 
L 341.075286 232.545987 
L 341.426416 231.237033 
L 341.777547 228.885027 
L 342.304243 223.232789 
L 343.006504 212.042813 
L 344.411026 186.480989 
L 344.937721 180.508927 
L 345.639982 175.459366 
L 346.166678 171.115707 
L 346.693374 164.205787 
L 347.395635 150.942088 
L 348.624592 126.405548 
L 349.151288 120.2235 
L 349.853549 113.517645 
L 350.204679 107.656616 
L 350.731375 94.596936 
L 352.135897 56.284115 
L 352.662593 48.237651 
L 353.013723 45.050717 
L 353.891549 39.530195 
L 354.24268 35.047705 
L 355.647202 11.792473 
L 355.822767 10.931026 
L 355.998333 11.035665 
L 356.173898 12.131723 
L 356.525028 16.969273 
L 357.57842 35.754873 
L 357.753985 37.027737 
L 357.92955 37.383713 
L 358.105116 36.791915 
L 358.456246 32.914366 
L 359.685203 12.597939 
L 359.860768 12.491674 
L 360.036333 13.481155 
L 360.387464 18.344633 
L 361.616421 42.531608 
L 361.791986 43.833382 
L 361.967551 44.258174 
L 362.143116 43.837112 
L 362.494247 40.810879 
L 363.547639 25.924985 
L 363.723204 25.714335 
L 363.898769 26.960345 
L 364.2499 33.804482 
L 365.127726 56.259177 
L 365.478856 58.861482 
L 365.654422 58.539768 
L 365.829987 57.316573 
L 366.181117 52.465335 
L 366.707813 39.863672 
L 367.234509 26.319827 
L 367.585639 22.18044 
L 367.761205 22.729002 
L 367.93677 25.208529 
L 368.2879 34.838663 
L 369.165727 63.193877 
L 369.516857 68.840537 
L 369.692422 69.840321 
L 369.867988 69.639796 
L 370.043553 68.320572 
L 370.394684 62.986509 
L 371.096945 50.435393 
L 371.27251 48.938553 
L 371.448075 48.654477 
L 371.62364 49.687151 
L 371.974771 55.737364 
L 373.028162 81.69056 
L 373.203728 83.06907 
L 373.379293 83.016771 
L 373.554858 81.641556 
L 373.905989 76.000364 
L 374.60825 64.04139 
L 374.783815 62.843693 
L 374.95938 62.865867 
L 375.134945 64.290246 
L 375.486076 71.753648 
L 376.012772 92.781402 
L 376.890598 131.247298 
L 377.241728 139.528746 
L 377.592859 143.012883 
L 377.768424 143.579736 
L 378.29512 144.239518 
L 378.470685 145.238388 
L 378.821816 150.05707 
L 379.348512 164.107975 
L 380.577468 203.242449 
L 380.753034 205.370087 
L 380.928599 205.813703 
L 381.104164 204.586822 
L 381.455295 198.207789 
L 382.508686 174.712793 
L 382.684251 173.275781 
L 382.859817 173.015384 
L 383.035382 173.805782 
L 383.386512 178.179532 
L 384.439904 196.070555 
L 384.615469 196.512229 
L 384.791034 195.887626 
L 385.142165 191.579344 
L 386.019991 176.048985 
L 386.195557 174.558966 
L 386.371122 174.099628 
L 386.546687 174.706266 
L 386.897818 178.751912 
L 387.248948 185.841152 
L 388.477905 216.314747 
L 388.65347 216.77101 
L 388.829035 215.607812 
L 389.180166 209.833618 
L 389.706862 200.51448 
L 390.057992 198.01881 
L 390.233557 197.803489 
L 390.760253 198.003803 
L 390.935818 198.248321 
L 391.111384 199.009474 
L 391.462514 202.842255 
L 392.164775 214.27469 
L 392.34034 215.023592 
L 392.515906 214.111616 
L 392.867036 208.145668 
L 393.569297 194.400268 
L 393.920428 190.88756 
L 394.447124 188.136757 
L 394.622689 187.824295 
L 394.798254 188.342512 
L 394.973819 190.08358 
L 395.32495 197.471836 
L 396.027211 216.371058 
L 396.378341 220.921201 
L 396.553907 221.581015 
L 396.729472 221.534956 
L 397.080602 220.41067 
L 397.782863 217.043293 
L 397.958429 216.811815 
L 398.133994 217.171744 
L 398.309559 218.217172 
L 398.66069 222.316676 
L 399.714081 238.856797 
L 399.889646 239.75854 
L 400.065212 239.556439 
L 400.240777 238.099739 
L 400.591908 231.287752 
L 402.34756 183.983154 
L 402.523125 182.30241 
L 402.698691 181.692365 
L 402.874256 181.943929 
L 403.225386 183.172801 
L 403.400952 183.071287 
L 403.576517 182.071468 
L 403.927647 177.36577 
L 404.278778 169.391709 
L 405.507735 134.997083 
L 405.6833 134.487691 
L 405.858865 135.075572 
L 406.209996 138.974337 
L 406.736691 151.1519 
L 407.087822 158.189327 
L 407.263387 159.554729 
L 407.438952 159.392182 
L 407.614518 157.967945 
L 407.965648 152.081365 
L 408.316779 141.538586 
L 409.194605 109.911289 
L 409.721301 99.409411 
L 410.072431 94.958228 
L 410.774692 88.898134 
L 411.125823 81.811149 
L 412.003649 56.389077 
L 412.70591 35.587981 
L 413.057041 31.657774 
L 413.232606 31.934588 
L 413.408171 33.558561 
L 413.759302 39.546081 
L 415.163824 67.132516 
L 415.339389 67.509215 
L 415.514954 66.539702 
L 416.392781 55.890765 
L 416.568346 55.938174 
L 416.919476 57.912894 
L 417.270607 62.041059 
L 417.621737 69.173041 
L 418.323998 85.58846 
L 418.499564 87.207849 
L 418.675129 87.265052 
L 418.850694 85.906557 
L 419.201825 79.632564 
L 419.552955 68.59397 
L 420.781912 21.815927 
L 421.133042 17.72472 
L 421.308608 17.990087 
L 421.659738 20.915098 
L 422.361999 27.651867 
L 422.361999 27.651867 
" style="fill:none;stroke:#009afa;"/>
   </g>
   <g id="matplotlib.axis_1">
    <g id="xtick_1">
     <g id="line2d_2">
      <defs>
       <path d="M 0 0 
L 0 -2.5 
" id="m84f0e5bd92" style="stroke:#000000;stroke-width:0.5;"/>
      </defs>
      <g>
       <use style="stroke:#000000;stroke-width:0.5;" x="71.231488" xlink:href="#m84f0e5bd92" y="258.225354"/>
      </g>
     </g>
     <g id="text_1">
      <!-- $\mathregular{0.0}$ -->
      <g transform="translate(64.831488 267.804104)scale(0.08 -0.08)">
       <defs>
        <path d="M 31.78125 66.40625 
Q 24.171875 66.40625 20.328125 58.90625 
Q 16.5 51.421875 16.5 36.375 
Q 16.5 21.390625 20.328125 13.890625 
Q 24.171875 6.390625 31.78125 6.390625 
Q 39.453125 6.390625 43.28125 13.890625 
Q 47.125 21.390625 47.125 36.375 
Q 47.125 51.421875 43.28125 58.90625 
Q 39.453125 66.40625 31.78125 66.40625 
z
M 31.78125 74.21875 
Q 44.046875 74.21875 50.515625 64.515625 
Q 56.984375 54.828125 56.984375 36.375 
Q 56.984375 17.96875 50.515625 8.265625 
Q 44.046875 -1.421875 31.78125 -1.421875 
Q 19.53125 -1.421875 13.0625 8.265625 
Q 6.59375 17.96875 6.59375 36.375 
Q 6.59375 54.828125 13.0625 64.515625 
Q 19.53125 74.21875 31.78125 74.21875 
z
" id="DejaVuSans-48"/>
        <path d="M 10.6875 12.40625 
L 21 12.40625 
L 21 0 
L 10.6875 0 
z
" id="DejaVuSans-46"/>
       </defs>
       <use transform="translate(0 0.78125)" xlink:href="#DejaVuSans-48"/>
       <use transform="translate(63.623047 0.78125)" xlink:href="#DejaVuSans-46"/>
       <use transform="translate(95.410156 0.78125)" xlink:href="#DejaVuSans-48"/>
      </g>
     </g>
    </g>
    <g id="xtick_2">
     <g id="line2d_3">
      <g>
       <use style="stroke:#000000;stroke-width:0.5;" x="159.014116" xlink:href="#m84f0e5bd92" y="258.225354"/>
      </g>
     </g>
     <g id="text_2">
      <!-- $\mathregular{0.5}$ -->
      <g transform="translate(152.614116 267.804104)scale(0.08 -0.08)">
       <defs>
        <path d="M 10.796875 72.90625 
L 49.515625 72.90625 
L 49.515625 64.59375 
L 19.828125 64.59375 
L 19.828125 46.734375 
Q 21.96875 47.46875 24.109375 47.828125 
Q 26.265625 48.1875 28.421875 48.1875 
Q 40.625 48.1875 47.75 41.5 
Q 54.890625 34.8125 54.890625 23.390625 
Q 54.890625 11.625 47.5625 5.09375 
Q 40.234375 -1.421875 26.90625 -1.421875 
Q 22.3125 -1.421875 17.546875 -0.640625 
Q 12.796875 0.140625 7.71875 1.703125 
L 7.71875 11.625 
Q 12.109375 9.234375 16.796875 8.0625 
Q 21.484375 6.890625 26.703125 6.890625 
Q 35.15625 6.890625 40.078125 11.328125 
Q 45.015625 15.765625 45.015625 23.390625 
Q 45.015625 31 40.078125 35.4375 
Q 35.15625 39.890625 26.703125 39.890625 
Q 22.75 39.890625 18.8125 39.015625 
Q 14.890625 38.140625 10.796875 36.28125 
z
" id="DejaVuSans-53"/>
       </defs>
       <use transform="translate(0 0.78125)" xlink:href="#DejaVuSans-48"/>
       <use transform="translate(63.623047 0.78125)" xlink:href="#DejaVuSans-46"/>
       <use transform="translate(95.410156 0.78125)" xlink:href="#DejaVuSans-53"/>
      </g>
     </g>
    </g>
    <g id="xtick_3">
     <g id="line2d_4">
      <g>
       <use style="stroke:#000000;stroke-width:0.5;" x="246.796743" xlink:href="#m84f0e5bd92" y="258.225354"/>
      </g>
     </g>
     <g id="text_3">
      <!-- $\mathregular{1.0}$ -->
      <g transform="translate(240.396743 267.804104)scale(0.08 -0.08)">
       <defs>
        <path d="M 12.40625 8.296875 
L 28.515625 8.296875 
L 28.515625 63.921875 
L 10.984375 60.40625 
L 10.984375 69.390625 
L 28.421875 72.90625 
L 38.28125 72.90625 
L 38.28125 8.296875 
L 54.390625 8.296875 
L 54.390625 0 
L 12.40625 0 
z
" id="DejaVuSans-49"/>
       </defs>
       <use transform="translate(0 0.78125)" xlink:href="#DejaVuSans-49"/>
       <use transform="translate(63.623047 0.78125)" xlink:href="#DejaVuSans-46"/>
       <use transform="translate(95.410156 0.78125)" xlink:href="#DejaVuSans-48"/>
      </g>
     </g>
    </g>
    <g id="xtick_4">
     <g id="line2d_5">
      <g>
       <use style="stroke:#000000;stroke-width:0.5;" x="334.579371" xlink:href="#m84f0e5bd92" y="258.225354"/>
      </g>
     </g>
     <g id="text_4">
      <!-- $\mathregular{1.5}$ -->
      <g transform="translate(328.179371 267.804104)scale(0.08 -0.08)">
       <use transform="translate(0 0.09375)" xlink:href="#DejaVuSans-49"/>
       <use transform="translate(63.623047 0.09375)" xlink:href="#DejaVuSans-46"/>
       <use transform="translate(95.410156 0.09375)" xlink:href="#DejaVuSans-53"/>
      </g>
     </g>
    </g>
    <g id="xtick_5">
     <g id="line2d_6">
      <g>
       <use style="stroke:#000000;stroke-width:0.5;" x="422.361999" xlink:href="#m84f0e5bd92" y="258.225354"/>
      </g>
     </g>
     <g id="text_5">
      <!-- $\mathregular{2.0}$ -->
      <g transform="translate(415.961999 267.804104)scale(0.08 -0.08)">
       <defs>
        <path d="M 19.1875 8.296875 
L 53.609375 8.296875 
L 53.609375 0 
L 7.328125 0 
L 7.328125 8.296875 
Q 12.9375 14.109375 22.625 23.890625 
Q 32.328125 33.6875 34.8125 36.53125 
Q 39.546875 41.84375 41.421875 45.53125 
Q 43.3125 49.21875 43.3125 52.78125 
Q 43.3125 58.59375 39.234375 62.25 
Q 35.15625 65.921875 28.609375 65.921875 
Q 23.96875 65.921875 18.8125 64.3125 
Q 13.671875 62.703125 7.8125 59.421875 
L 7.8125 69.390625 
Q 13.765625 71.78125 18.9375 73 
Q 24.125 74.21875 28.421875 74.21875 
Q 39.75 74.21875 46.484375 68.546875 
Q 53.21875 62.890625 53.21875 53.421875 
Q 53.21875 48.921875 51.53125 44.890625 
Q 49.859375 40.875 45.40625 35.40625 
Q 44.1875 33.984375 37.640625 27.21875 
Q 31.109375 20.453125 19.1875 8.296875 
z
" id="DejaVuSans-50"/>
       </defs>
       <use transform="translate(0 0.78125)" xlink:href="#DejaVuSans-50"/>
       <use transform="translate(63.623047 0.78125)" xlink:href="#DejaVuSans-46"/>
       <use transform="translate(95.410156 0.78125)" xlink:href="#DejaVuSans-48"/>
      </g>
     </g>
    </g>
    <g id="text_6">
     <!-- Time (s) -->
     <g transform="translate(224.434947 281.826136)scale(0.11 -0.11)">
      <defs>
       <path d="M -0.296875 72.90625 
L 61.375 72.90625 
L 61.375 64.59375 
L 35.5 64.59375 
L 35.5 0 
L 25.59375 0 
L 25.59375 64.59375 
L -0.296875 64.59375 
z
" id="DejaVuSans-84"/>
       <path d="M 9.421875 54.6875 
L 18.40625 54.6875 
L 18.40625 0 
L 9.421875 0 
z
M 9.421875 75.984375 
L 18.40625 75.984375 
L 18.40625 64.59375 
L 9.421875 64.59375 
z
" id="DejaVuSans-105"/>
       <path d="M 52 44.1875 
Q 55.375 50.25 60.0625 53.125 
Q 64.75 56 71.09375 56 
Q 79.640625 56 84.28125 50.015625 
Q 88.921875 44.046875 88.921875 33.015625 
L 88.921875 0 
L 79.890625 0 
L 79.890625 32.71875 
Q 79.890625 40.578125 77.09375 44.375 
Q 74.3125 48.1875 68.609375 48.1875 
Q 61.625 48.1875 57.5625 43.546875 
Q 53.515625 38.921875 53.515625 30.90625 
L 53.515625 0 
L 44.484375 0 
L 44.484375 32.71875 
Q 44.484375 40.625 41.703125 44.40625 
Q 38.921875 48.1875 33.109375 48.1875 
Q 26.21875 48.1875 22.15625 43.53125 
Q 18.109375 38.875 18.109375 30.90625 
L 18.109375 0 
L 9.078125 0 
L 9.078125 54.6875 
L 18.109375 54.6875 
L 18.109375 46.1875 
Q 21.1875 51.21875 25.484375 53.609375 
Q 29.78125 56 35.6875 56 
Q 41.65625 56 45.828125 52.96875 
Q 50 49.953125 52 44.1875 
z
" id="DejaVuSans-109"/>
       <path d="M 56.203125 29.59375 
L 56.203125 25.203125 
L 14.890625 25.203125 
Q 15.484375 15.921875 20.484375 11.0625 
Q 25.484375 6.203125 34.421875 6.203125 
Q 39.59375 6.203125 44.453125 7.46875 
Q 49.3125 8.734375 54.109375 11.28125 
L 54.109375 2.78125 
Q 49.265625 0.734375 44.1875 -0.34375 
Q 39.109375 -1.421875 33.890625 -1.421875 
Q 20.796875 -1.421875 13.15625 6.1875 
Q 5.515625 13.8125 5.515625 26.8125 
Q 5.515625 40.234375 12.765625 48.109375 
Q 20.015625 56 32.328125 56 
Q 43.359375 56 49.78125 48.890625 
Q 56.203125 41.796875 56.203125 29.59375 
z
M 47.21875 32.234375 
Q 47.125 39.59375 43.09375 43.984375 
Q 39.0625 48.390625 32.421875 48.390625 
Q 24.90625 48.390625 20.390625 44.140625 
Q 15.875 39.890625 15.1875 32.171875 
z
" id="DejaVuSans-101"/>
       <path id="DejaVuSans-32"/>
       <path d="M 31 75.875 
Q 24.46875 64.65625 21.28125 53.65625 
Q 18.109375 42.671875 18.109375 31.390625 
Q 18.109375 20.125 21.3125 9.0625 
Q 24.515625 -2 31 -13.1875 
L 23.1875 -13.1875 
Q 15.875 -1.703125 12.234375 9.375 
Q 8.59375 20.453125 8.59375 31.390625 
Q 8.59375 42.28125 12.203125 53.3125 
Q 15.828125 64.359375 23.1875 75.875 
z
" id="DejaVuSans-40"/>
       <path d="M 44.28125 53.078125 
L 44.28125 44.578125 
Q 40.484375 46.53125 36.375 47.5 
Q 32.28125 48.484375 27.875 48.484375 
Q 21.1875 48.484375 17.84375 46.4375 
Q 14.5 44.390625 14.5 40.28125 
Q 14.5 37.15625 16.890625 35.375 
Q 19.28125 33.59375 26.515625 31.984375 
L 29.59375 31.296875 
Q 39.15625 29.25 43.1875 25.515625 
Q 47.21875 21.78125 47.21875 15.09375 
Q 47.21875 7.46875 41.1875 3.015625 
Q 35.15625 -1.421875 24.609375 -1.421875 
Q 20.21875 -1.421875 15.453125 -0.5625 
Q 10.6875 0.296875 5.421875 2 
L 5.421875 11.28125 
Q 10.40625 8.6875 15.234375 7.390625 
Q 20.0625 6.109375 24.8125 6.109375 
Q 31.15625 6.109375 34.5625 8.28125 
Q 37.984375 10.453125 37.984375 14.40625 
Q 37.984375 18.0625 35.515625 20.015625 
Q 33.0625 21.96875 24.703125 23.78125 
L 21.578125 24.515625 
Q 13.234375 26.265625 9.515625 29.90625 
Q 5.8125 33.546875 5.8125 39.890625 
Q 5.8125 47.609375 11.28125 51.796875 
Q 16.75 56 26.8125 56 
Q 31.78125 56 36.171875 55.265625 
Q 40.578125 54.546875 44.28125 53.078125 
z
" id="DejaVuSans-115"/>
       <path d="M 8.015625 75.875 
L 15.828125 75.875 
Q 23.140625 64.359375 26.78125 53.3125 
Q 30.421875 42.28125 30.421875 31.390625 
Q 30.421875 20.453125 26.78125 9.375 
Q 23.140625 -1.703125 15.828125 -13.1875 
L 8.015625 -13.1875 
Q 14.5 -2 17.703125 9.0625 
Q 20.90625 20.125 20.90625 31.390625 
Q 20.90625 42.671875 17.703125 53.65625 
Q 14.5 64.65625 8.015625 75.875 
z
" id="DejaVuSans-41"/>
      </defs>
      <use xlink:href="#DejaVuSans-84"/>
      <use x="57.958984" xlink:href="#DejaVuSans-105"/>
      <use x="85.742188" xlink:href="#DejaVuSans-109"/>
      <use x="183.154297" xlink:href="#DejaVuSans-101"/>
      <use x="244.677734" xlink:href="#DejaVuSans-32"/>
      <use x="276.464844" xlink:href="#DejaVuSans-40"/>
      <use x="315.478516" xlink:href="#DejaVuSans-115"/>
      <use x="367.578125" xlink:href="#DejaVuSans-41"/>
     </g>
    </g>
   </g>
   <g id="matplotlib.axis_2">
    <g id="ytick_1">
     <g id="line2d_7">
      <defs>
       <path d="M 0 0 
L 2.5 0 
" id="m892dd0e4d2" style="stroke:#000000;stroke-width:0.5;"/>
      </defs>
      <g>
       <use style="stroke:#000000;stroke-width:0.5;" x="71.231488" xlink:href="#m892dd0e4d2" y="240.967604"/>
      </g>
     </g>
     <g id="text_7">
      <!-- $\mathregular{-1.50×10^{6}}$ -->
      <g transform="translate(22.451488 244.006979)scale(0.08 -0.08)">
       <defs>
        <path d="M 10.59375 35.5 
L 73.1875 35.5 
L 73.1875 27.203125 
L 10.59375 27.203125 
z
" id="DejaVuSans-8722"/>
        <path d="M 70.125 53.71875 
L 47.796875 31.296875 
L 70.125 8.984375 
L 64.3125 3.078125 
L 41.890625 25.484375 
L 19.484375 3.078125 
L 13.71875 8.984375 
L 35.984375 31.296875 
L 13.71875 53.71875 
L 19.484375 59.625 
L 41.890625 37.203125 
L 64.3125 59.625 
z
" id="DejaVuSans-215"/>
        <path d="M 33.015625 40.375 
Q 26.375 40.375 22.484375 35.828125 
Q 18.609375 31.296875 18.609375 23.390625 
Q 18.609375 15.53125 22.484375 10.953125 
Q 26.375 6.390625 33.015625 6.390625 
Q 39.65625 6.390625 43.53125 10.953125 
Q 47.40625 15.53125 47.40625 23.390625 
Q 47.40625 31.296875 43.53125 35.828125 
Q 39.65625 40.375 33.015625 40.375 
z
M 52.59375 71.296875 
L 52.59375 62.3125 
Q 48.875 64.0625 45.09375 64.984375 
Q 41.3125 65.921875 37.59375 65.921875 
Q 27.828125 65.921875 22.671875 59.328125 
Q 17.53125 52.734375 16.796875 39.40625 
Q 19.671875 43.65625 24.015625 45.921875 
Q 28.375 48.1875 33.59375 48.1875 
Q 44.578125 48.1875 50.953125 41.515625 
Q 57.328125 34.859375 57.328125 23.390625 
Q 57.328125 12.15625 50.6875 5.359375 
Q 44.046875 -1.421875 33.015625 -1.421875 
Q 20.359375 -1.421875 13.671875 8.265625 
Q 6.984375 17.96875 6.984375 36.375 
Q 6.984375 53.65625 15.1875 63.9375 
Q 23.390625 74.21875 37.203125 74.21875 
Q 40.921875 74.21875 44.703125 73.484375 
Q 48.484375 72.75 52.59375 71.296875 
z
" id="DejaVuSans-54"/>
       </defs>
       <use transform="translate(0 0.765625)" xlink:href="#DejaVuSans-8722"/>
       <use transform="translate(83.789062 0.765625)" xlink:href="#DejaVuSans-49"/>
       <use transform="translate(147.412109 0.765625)" xlink:href="#DejaVuSans-46"/>
       <use transform="translate(179.199219 0.765625)" xlink:href="#DejaVuSans-53"/>
       <use transform="translate(242.822266 0.765625)" xlink:href="#DejaVuSans-48"/>
       <use transform="translate(306.445312 0.765625)" xlink:href="#DejaVuSans-215"/>
       <use transform="translate(390.234375 0.765625)" xlink:href="#DejaVuSans-49"/>
       <use transform="translate(453.857422 0.765625)" xlink:href="#DejaVuSans-48"/>
       <use transform="translate(518.4375 39.046875)scale(0.7)" xlink:href="#DejaVuSans-54"/>
      </g>
     </g>
    </g>
    <g id="ytick_2">
     <g id="line2d_8">
      <g>
       <use style="stroke:#000000;stroke-width:0.5;" x="71.231488" xlink:href="#m892dd0e4d2" y="203.915114"/>
      </g>
     </g>
     <g id="text_8">
      <!-- $\mathregular{-1.00×10^{6}}$ -->
      <g transform="translate(22.451488 206.954489)scale(0.08 -0.08)">
       <use transform="translate(0 0.765625)" xlink:href="#DejaVuSans-8722"/>
       <use transform="translate(83.789062 0.765625)" xlink:href="#DejaVuSans-49"/>
       <use transform="translate(147.412109 0.765625)" xlink:href="#DejaVuSans-46"/>
       <use transform="translate(179.199219 0.765625)" xlink:href="#DejaVuSans-48"/>
       <use transform="translate(242.822266 0.765625)" xlink:href="#DejaVuSans-48"/>
       <use transform="translate(306.445312 0.765625)" xlink:href="#DejaVuSans-215"/>
       <use transform="translate(390.234375 0.765625)" xlink:href="#DejaVuSans-49"/>
       <use transform="translate(453.857422 0.765625)" xlink:href="#DejaVuSans-48"/>
       <use transform="translate(518.4375 39.046875)scale(0.7)" xlink:href="#DejaVuSans-54"/>
      </g>
     </g>
    </g>
    <g id="ytick_3">
     <g id="line2d_9">
      <g>
       <use style="stroke:#000000;stroke-width:0.5;" x="71.231488" xlink:href="#m892dd0e4d2" y="166.862624"/>
      </g>
     </g>
     <g id="text_9">
      <!-- $\mathregular{-5.00×10^{5}}$ -->
      <g transform="translate(22.451488 169.901999)scale(0.08 -0.08)">
       <use transform="translate(0 0.684375)" xlink:href="#DejaVuSans-8722"/>
       <use transform="translate(83.789062 0.684375)" xlink:href="#DejaVuSans-53"/>
       <use transform="translate(147.412109 0.684375)" xlink:href="#DejaVuSans-46"/>
       <use transform="translate(179.199219 0.684375)" xlink:href="#DejaVuSans-48"/>
       <use transform="translate(242.822266 0.684375)" xlink:href="#DejaVuSans-48"/>
       <use transform="translate(306.445312 0.684375)" xlink:href="#DejaVuSans-215"/>
       <use transform="translate(390.234375 0.684375)" xlink:href="#DejaVuSans-49"/>
       <use transform="translate(453.857422 0.684375)" xlink:href="#DejaVuSans-48"/>
       <use transform="translate(518.4375 38.965625)scale(0.7)" xlink:href="#DejaVuSans-53"/>
      </g>
     </g>
    </g>
    <g id="ytick_4">
     <g id="line2d_10">
      <g>
       <use style="stroke:#000000;stroke-width:0.5;" x="71.231488" xlink:href="#m892dd0e4d2" y="129.810134"/>
      </g>
     </g>
     <g id="text_10">
      <!-- $\mathregular{0}$ -->
      <g transform="translate(62.611488 132.849509)scale(0.08 -0.08)">
       <use transform="translate(0 0.78125)" xlink:href="#DejaVuSans-48"/>
      </g>
     </g>
    </g>
    <g id="ytick_5">
     <g id="line2d_11">
      <g>
       <use style="stroke:#000000;stroke-width:0.5;" x="71.231488" xlink:href="#m892dd0e4d2" y="92.757644"/>
      </g>
     </g>
     <g id="text_11">
      <!-- $\mathregular{5.00×10^{5}}$ -->
      <g transform="translate(29.171488 95.797019)scale(0.08 -0.08)">
       <use transform="translate(0 0.684375)" xlink:href="#DejaVuSans-53"/>
       <use transform="translate(63.623047 0.684375)" xlink:href="#DejaVuSans-46"/>
       <use transform="translate(95.410156 0.684375)" xlink:href="#DejaVuSans-48"/>
       <use transform="translate(159.033203 0.684375)" xlink:href="#DejaVuSans-48"/>
       <use transform="translate(222.65625 0.684375)" xlink:href="#DejaVuSans-215"/>
       <use transform="translate(306.445312 0.684375)" xlink:href="#DejaVuSans-49"/>
       <use transform="translate(370.068359 0.684375)" xlink:href="#DejaVuSans-48"/>
       <use transform="translate(434.648438 38.965625)scale(0.7)" xlink:href="#DejaVuSans-53"/>
      </g>
     </g>
    </g>
    <g id="ytick_6">
     <g id="line2d_12">
      <g>
       <use style="stroke:#000000;stroke-width:0.5;" x="71.231488" xlink:href="#m892dd0e4d2" y="55.705154"/>
      </g>
     </g>
     <g id="text_12">
      <!-- $\mathregular{1.00×10^{6}}$ -->
      <g transform="translate(29.171488 58.744529)scale(0.08 -0.08)">
       <use transform="translate(0 0.765625)" xlink:href="#DejaVuSans-49"/>
       <use transform="translate(63.623047 0.765625)" xlink:href="#DejaVuSans-46"/>
       <use transform="translate(95.410156 0.765625)" xlink:href="#DejaVuSans-48"/>
       <use transform="translate(159.033203 0.765625)" xlink:href="#DejaVuSans-48"/>
       <use transform="translate(222.65625 0.765625)" xlink:href="#DejaVuSans-215"/>
       <use transform="translate(306.445312 0.765625)" xlink:href="#DejaVuSans-49"/>
       <use transform="translate(370.068359 0.765625)" xlink:href="#DejaVuSans-48"/>
       <use transform="translate(434.648438 39.046875)scale(0.7)" xlink:href="#DejaVuSans-54"/>
      </g>
     </g>
    </g>
    <g id="ytick_7">
     <g id="line2d_13">
      <g>
       <use style="stroke:#000000;stroke-width:0.5;" x="71.231488" xlink:href="#m892dd0e4d2" y="18.652664"/>
      </g>
     </g>
     <g id="text_13">
      <!-- $\mathregular{1.50×10^{6}}$ -->
      <g transform="translate(29.171488 21.692039)scale(0.08 -0.08)">
       <use transform="translate(0 0.765625)" xlink:href="#DejaVuSans-49"/>
       <use transform="translate(63.623047 0.765625)" xlink:href="#DejaVuSans-46"/>
       <use transform="translate(95.410156 0.765625)" xlink:href="#DejaVuSans-53"/>
       <use transform="translate(159.033203 0.765625)" xlink:href="#DejaVuSans-48"/>
       <use transform="translate(222.65625 0.765625)" xlink:href="#DejaVuSans-215"/>
       <use transform="translate(306.445312 0.765625)" xlink:href="#DejaVuSans-49"/>
       <use transform="translate(370.068359 0.765625)" xlink:href="#DejaVuSans-48"/>
       <use transform="translate(434.648438 39.046875)scale(0.7)" xlink:href="#DejaVuSans-54"/>
      </g>
     </g>
    </g>
    <g id="text_14">
     <!-- $M_y$ ($Nm$) -->
     <g transform="translate(15.041488 153.245)rotate(-90)scale(0.11 -0.11)">
      <defs>
       <path d="M 16.890625 72.90625 
L 31.6875 72.90625 
L 40.1875 23.78125 
L 68.40625 72.90625 
L 83.59375 72.90625 
L 69.390625 0 
L 59.8125 0 
L 72.21875 63.921875 
L 43.609375 14.015625 
L 33.984375 14.015625 
L 24.703125 64.109375 
L 12.3125 0 
L 2.6875 0 
z
" id="DejaVuSans-Oblique-77"/>
       <path d="M 24.8125 -5.078125 
Q 18.5625 -15.578125 14.625 -18.1875 
Q 10.6875 -20.796875 4.59375 -20.796875 
L -2.484375 -20.796875 
L -0.984375 -13.28125 
L 4.203125 -13.28125 
Q 7.953125 -13.28125 10.59375 -11.234375 
Q 13.234375 -9.1875 16.5 -3.21875 
L 19.28125 2 
L 7.171875 54.6875 
L 16.703125 54.6875 
L 25.78125 12.796875 
L 50.875 54.6875 
L 60.296875 54.6875 
z
" id="DejaVuSans-Oblique-121"/>
       <path d="M 16.890625 72.90625 
L 30.171875 72.90625 
L 50.296875 10.40625 
L 62.5 72.90625 
L 72.125 72.90625 
L 57.90625 0 
L 44.578125 0 
L 24.515625 62.890625 
L 12.3125 0 
L 2.6875 0 
z
" id="DejaVuSans-Oblique-78"/>
       <path d="M 89.796875 33.015625 
L 83.40625 0 
L 74.421875 0 
L 80.71875 32.71875 
Q 81.109375 34.8125 81.296875 36.328125 
Q 81.5 37.84375 81.5 38.921875 
Q 81.5 43.3125 79.046875 45.75 
Q 76.609375 48.1875 72.21875 48.1875 
Q 65.671875 48.1875 60.546875 43.28125 
Q 55.421875 38.375 53.90625 30.515625 
L 47.90625 0 
L 38.921875 0 
L 45.3125 32.71875 
Q 45.703125 34.515625 45.890625 36.046875 
Q 46.09375 37.59375 46.09375 38.8125 
Q 46.09375 43.265625 43.65625 45.71875 
Q 41.21875 48.1875 36.921875 48.1875 
Q 30.28125 48.1875 25.140625 43.28125 
Q 20.015625 38.375 18.5 30.515625 
L 12.5 0 
L 3.515625 0 
L 14.203125 54.6875 
L 23.1875 54.6875 
L 21.484375 46.1875 
Q 25.140625 50.984375 30.046875 53.484375 
Q 34.96875 56 40.578125 56 
Q 46.53125 56 50.359375 52.875 
Q 54.203125 49.75 54.984375 44.1875 
Q 59.078125 49.953125 64.46875 52.96875 
Q 69.875 56 75.875 56 
Q 82.90625 56 86.734375 51.953125 
Q 90.578125 47.90625 90.578125 40.484375 
Q 90.578125 38.875 90.375 36.9375 
Q 90.1875 35.015625 89.796875 33.015625 
z
" id="DejaVuSans-Oblique-109"/>
      </defs>
      <use transform="translate(0 0.125)" xlink:href="#DejaVuSans-Oblique-77"/>
      <use transform="translate(86.279297 -16.28125)scale(0.7)" xlink:href="#DejaVuSans-Oblique-121"/>
      <use transform="translate(130.439453 0.125)" xlink:href="#DejaVuSans-32"/>
      <use transform="translate(162.226562 0.125)" xlink:href="#DejaVuSans-40"/>
      <use transform="translate(201.240234 0.125)" xlink:href="#DejaVuSans-Oblique-78"/>
      <use transform="translate(276.044922 0.125)" xlink:href="#DejaVuSans-Oblique-109"/>
      <use transform="translate(373.457031 0.125)" xlink:href="#DejaVuSans-41"/>
     </g>
    </g>
   </g>
   <g id="line2d_14">
    <path clip-path="url(#p4f3b1b980e)" d="M 71.231488 129.810134 
L 72.782269 129.918545 
L 73.814804 130.005527 
L 74.664957 129.670542 
L 75.83082 129.101447 
L 76.413971 129.120648 
L 77.067801 129.441467 
L 79.680688 130.980869 
L 80.814627 131.765025 
L 81.306243 131.869879 
L 81.765373 131.698356 
L 82.341888 131.269346 
L 86.664866 126.884998 
L 87.285187 126.58871 
L 88.102912 126.538983 
L 89.276164 126.369498 
L 90.223689 126.077055 
L 90.72833 126.051411 
L 91.232972 126.269643 
L 91.989934 126.854751 
L 93.438168 128.458392 
L 94.18641 129.67927 
L 94.990103 131.579203 
L 96.865771 136.142301 
L 97.615709 137.291437 
L 98.793265 138.785813 
L 99.555387 139.520333 
L 100.181864 139.776313 
L 100.682675 139.804458 
L 102.018171 139.704779 
L 102.598438 139.82755 
L 103.127921 139.921494 
L 103.753785 139.831078 
L 104.242676 139.5115 
L 105.057493 138.636173 
L 106.610383 136.455388 
L 107.492807 134.824914 
L 109.841997 129.587266 
L 111.438557 126.647548 
L 112.371236 124.308274 
L 114.003424 119.682407 
L 114.970618 116.284096 
L 117.413409 106.911675 
L 118.461597 104.159503 
L 119.514538 101.877015 
L 120.368034 100.631857 
L 121.039432 100.193288 
L 121.743324 100.040893 
L 123.477385 100.03247 
L 124.040698 100.390704 
L 124.611699 101.202445 
L 125.212159 102.418737 
L 126.477088 105.773836 
L 127.462816 108.864745 
L 130.772567 120.588649 
L 132.424545 125.569782 
L 134.567312 132.895814 
L 135.399169 136.400513 
L 139.029499 154.500656 
L 141.577746 166.958059 
L 143.807462 176.068405 
L 144.444523 178.012385 
L 145.081585 179.364085 
L 145.610195 180.061658 
L 146.098066 180.448364 
L 146.836958 180.747608 
L 147.336429 180.777995 
L 148.099865 180.508256 
L 148.865258 179.861951 
L 149.630651 179.237856 
L 150.141125 179.020593 
L 150.659588 179.075157 
L 151.44658 179.498668 
L 152.321895 180.018266 
L 153.683683 180.394877 
L 154.798067 180.620889 
L 155.196858 180.562554 
L 155.994439 180.081063 
L 157.269507 178.457231 
L 159.516684 175.538653 
L 159.96612 174.595152 
L 160.819531 172.163376 
L 161.786981 168.523772 
L 162.632193 164.397296 
L 163.477405 158.937452 
L 164.604354 149.757231 
L 169.941468 103.360725 
L 172.710309 82.579942 
L 173.664428 77.319412 
L 174.734133 72.756951 
L 175.469827 70.30652 
L 176.226083 68.536636 
L 177.013504 67.364336 
L 178.18403 65.83003 
L 178.836574 64.61256 
L 180.574898 61.038337 
L 181.662903 59.474851 
L 182.388239 58.730897 
L 183.075771 58.518666 
L 183.400635 58.624905 
L 183.746924 58.948637 
L 184.4703 60.172648 
L 187.559913 66.653637 
L 189.007005 69.799627 
L 190.02537 72.572519 
L 190.746915 75.293146 
L 191.442069 78.865483 
L 192.289819 84.606556 
L 193.903562 97.506797 
L 197.38027 125.465507 
L 201.041434 152.034493 
L 201.948538 156.354181 
L 202.753581 159.180461 
L 203.638855 161.459492 
L 205.857048 166.172264 
L 206.615926 169.186522 
L 207.943227 176.140961 
L 208.744994 180.008343 
L 209.547662 182.859804 
L 210.099433 184.177529 
L 210.667418 185.01474 
L 211.005251 185.251516 
L 211.354563 185.248222 
L 211.703875 184.977692 
L 212.053187 184.438454 
L 212.759536 182.513519 
L 213.81906 178.260311 
L 214.805732 174.63648 
L 215.361083 173.36169 
L 215.777596 172.860022 
L 216.212808 172.633723 
L 216.531625 172.630775 
L 217.027865 172.846281 
L 218.097326 173.376798 
L 218.475868 173.401787 
L 218.873614 173.205866 
L 219.282289 172.636159 
L 219.690965 171.561254 
L 220.11177 169.848612 
L 220.742979 165.888679 
L 221.39103 160.185346 
L 222.497975 148.032369 
L 224.660955 124.135949 
L 226.415353 107.595632 
L 227.416837 97.618533 
L 228.225437 87.538533 
L 229.655599 65.651385 
L 230.916467 47.54038 
L 231.591424 40.104547 
L 232.285614 34.691824 
L 232.750214 32.582109 
L 232.982675 32.006561 
L 233.215136 31.737884 
L 233.447598 31.778855 
L 233.6556 32.085329 
L 234.078122 33.448791 
L 234.721679 36.940856 
L 236.703309 49.636724 
L 237.528452 53.067032 
L 238.908898 57.618742 
L 239.461598 58.933674 
L 240.014297 59.59506 
L 240.294061 59.670231 
L 240.853589 59.383223 
L 241.442078 58.942752 
L 241.738965 58.83709 
L 242.049795 58.863959 
L 242.683892 59.332607 
L 244.798277 61.906355 
L 245.158501 62.691628 
L 245.878948 65.236787 
L 247.147105 70.784095 
L 247.579426 71.680198 
L 247.904439 71.843732 
L 248.217623 71.659717 
L 249.146736 70.736093 
L 249.354173 70.850497 
L 249.561611 71.17704 
L 249.976485 72.546992 
L 250.39136 74.918613 
L 251.076443 80.738628 
L 251.80394 89.018377 
L 252.534795 99.885402 
L 253.448363 117.967774 
L 255.292011 157.252095 
L 255.983323 167.269773 
L 256.794167 175.723667 
L 257.694354 182.589652 
L 258.262307 185.49039 
L 258.647184 186.712077 
L 259.032062 187.357571 
L 259.416939 187.60637 
L 260.062183 187.917483 
L 260.464601 188.502856 
L 260.868621 189.568996 
L 262.307521 194.062787 
L 262.567394 194.197099 
L 262.84147 193.954723 
L 263.127437 193.308303 
L 263.730623 191.210706 
L 264.371795 189.000342 
L 264.710365 188.276915 
L 265.060846 187.981317 
L 265.411328 188.134642 
L 265.93705 188.907591 
L 266.813254 190.848577 
L 267.526361 192.907609 
L 268.079823 195.317214 
L 268.86594 200.335697 
L 269.695923 205.867272 
L 270.120669 207.622521 
L 270.342044 208.024653 
L 270.56342 208.033102 
L 270.784795 207.665772 
L 271.227546 206.004076 
L 272.723747 198.377674 
L 272.981919 197.801878 
L 273.245193 197.491753 
L 273.520518 197.375563 
L 274.397818 197.320735 
L 274.704804 197.079255 
L 275.042974 196.556796 
L 276.557813 193.339936 
L 277.067502 192.854586 
L 277.832034 192.449988 
L 278.086878 192.143581 
L 278.341723 191.616798 
L 278.851411 189.737034 
L 279.430779 185.91294 
L 280.079828 179.208631 
L 281.053401 166.128496 
L 283.492866 132.136426 
L 284.347387 123.548059 
L 285.896289 109.521099 
L 286.657822 99.17338 
L 287.968846 77.16258 
L 289.776503 47.678435 
L 290.398139 39.484305 
L 290.825055 35.579825 
L 291.276895 33.561605 
L 291.50808 33.410924 
L 291.739265 33.824225 
L 292.201636 36.097429 
L 292.933592 41.970543 
L 293.957106 50.394116 
L 294.750877 55.207632 
L 295.301485 57.575814 
L 295.580634 58.347972 
L 295.859783 58.764847 
L 296.138931 58.736168 
L 296.41808 58.146637 
L 296.697229 56.913469 
L 297.255526 52.51703 
L 298.098148 42.283938 
L 299.221644 28.506892 
L 299.824854 23.819177 
L 300.308461 21.761597 
L 300.64264 21.307558 
L 300.821032 21.388732 
L 301.177815 22.163545 
L 301.535633 23.787699 
L 302.079943 27.878219 
L 302.645534 34.270439 
L 304.520403 58.778236 
L 305.010461 61.812078 
L 305.337166 62.369568 
L 305.511868 62.166786 
L 305.68657 61.61862 
L 306.123684 58.941481 
L 306.801512 52.328907 
L 308.898196 28.875996 
L 309.136488 28.209029 
L 309.255634 28.266047 
L 309.498356 29.313371 
L 309.741717 31.716318 
L 310.117016 38.090281 
L 310.637037 51.569491 
L 311.514958 81.669063 
L 312.943721 131.311886 
L 313.74071 152.189002 
L 314.345941 163.172324 
L 314.951171 169.82241 
L 315.354659 171.881948 
L 315.701738 172.381841 
L 315.875278 172.289097 
L 316.569438 171.444934 
L 316.742978 171.565533 
L 316.898795 171.939879 
L 317.210431 173.660577 
L 317.522759 176.906717 
L 317.999475 184.715198 
L 319.065708 208.226439 
L 319.888816 223.855242 
L 320.347677 229.680353 
L 320.808802 233.485506 
L 321.50049 236.934106 
L 321.963917 238.164009 
L 322.170063 238.253561 
L 322.376208 237.91928 
L 322.69132 236.302373 
L 322.953823 233.650013 
L 323.347577 227.102176 
L 323.874346 213.761611 
L 325.000903 182.409966 
L 325.304936 177.857386 
L 325.609785 175.861586 
L 325.76221 175.821124 
L 325.914634 176.388286 
L 326.219483 179.093425 
L 326.692857 186.134258 
L 328.731143 220.110919 
L 330.456559 244.492761 
L 331.001099 249.087496 
L 331.368213 250.504637 
L 331.560608 250.600613 
L 331.753004 250.158365 
L 331.9454 249.098823 
L 332.374664 244.426718 
L 333.036261 231.894003 
L 333.96276 213.372675 
L 334.42735 207.607002 
L 334.659645 205.985251 
L 334.89194 205.222864 
L 335.124235 205.230783 
L 335.588825 206.603967 
L 335.986593 207.679568 
L 336.257952 207.838262 
L 336.475146 207.59161 
L 336.800937 206.776004 
L 337.345324 205.324509 
L 337.56392 205.25992 
L 337.673218 205.441416 
L 337.928286 206.592663 
L 338.324106 210.156656 
L 339.227993 221.881322 
L 339.837543 228.540712 
L 340.233897 231.065905 
L 340.593758 232.303964 
L 340.854782 232.625907 
L 340.995852 232.565819 
L 341.136922 232.362849 
L 341.402842 231.448293 
L 341.747848 229.324882 
L 342.264436 224.054826 
L 342.777842 216.041806 
L 344.736756 181.627498 
L 345.333518 177.366215 
L 345.849007 173.471698 
L 346.248769 169.166075 
L 346.938641 158.308314 
L 347.800058 139.985962 
L 348.374283 129.606125 
L 348.857497 124.687713 
L 349.508051 118.698765 
L 349.919596 112.297144 
L 350.494395 98.708773 
L 352.18015 55.40587 
L 352.648636 49.364736 
L 354.071089 35.783574 
L 354.75974 21.7975 
L 355.289551 12.448202 
L 355.47135 10.755252 
L 355.660566 10.062685 
L 355.849782 10.554302 
L 356.038997 12.229813 
L 356.426846 18.753249 
L 357.282881 36.03323 
L 357.510061 38.069552 
L 357.739528 38.380587 
L 357.968996 36.951584 
L 358.433851 29.903971 
L 359.159374 16.434972 
L 359.402656 14.008681 
L 359.645939 13.553184 
L 359.889221 15.230512 
L 360.349798 23.476314 
L 361.23407 42.799913 
L 361.456395 45.132167 
L 361.684749 45.699414 
L 361.913103 44.321858 
L 362.369811 36.69166 
L 363.054872 23.801816 
L 363.283226 22.36837 
L 363.51158 23.319694 
L 363.739934 26.679558 
L 364.196641 38.690811 
L 364.787461 55.176078 
L 365.181341 60.31427 
L 365.37828 60.389721 
L 365.57522 58.82626 
L 366.007065 50.768519 
L 367.297315 21.181865 
L 367.407249 21.332248 
L 367.651633 24.392504 
L 368.047842 35.774586 
L 368.985053 66.854348 
L 369.350542 71.775649 
L 369.47908 71.940872 
L 369.609944 71.222508 
L 369.871674 67.302296 
L 370.855906 45.527711 
L 371.028644 44.572556 
L 371.201381 45.072159 
L 371.374118 46.991432 
L 371.719593 54.554681 
L 372.594941 77.458919 
L 372.94819 80.561999 
L 373.124814 80.208706 
L 373.43459 76.692084 
L 374.436018 57.453939 
L 374.612106 56.661878 
L 374.79157 57.447571 
L 374.971034 60.013032 
L 375.329961 70.557316 
L 376.077878 106.210196 
L 376.694448 130.33992 
L 377.014255 136.465806 
L 377.337286 138.639995 
L 377.502572 138.720449 
L 377.848755 138.278962 
L 378.027962 138.575432 
L 378.207168 139.74675 
L 378.565581 145.553001 
L 378.93776 156.439782 
L 380.200228 201.270933 
L 380.508782 204.465418 
L 380.651326 204.295883 
L 380.79387 203.167149 
L 381.078957 198.355395 
L 382.16226 174.722155 
L 382.34555 173.592376 
L 382.528839 173.801542 
L 382.712128 175.346119 
L 383.078707 181.920149 
L 383.811865 198.049708 
L 383.995154 199.703313 
L 384.178443 199.889442 
L 384.361733 198.676397 
L 384.707847 193.185453 
L 385.592085 176.097662 
L 385.882575 174.027419 
L 386.027821 173.926138 
L 386.173066 174.431066 
L 386.463557 177.319199 
L 386.84146 185.1749 
L 387.873409 213.579079 
L 388.024789 214.934354 
L 388.176169 215.038103 
L 388.360577 213.666876 
L 388.816624 206.251223 
L 389.330216 199.140679 
L 389.736272 195.944339 
L 390.039427 194.963387 
L 390.207671 195.300281 
L 390.375915 196.461469 
L 390.728662 201.941607 
L 391.470982 216.719769 
L 391.660599 217.969896 
L 391.850217 217.674791 
L 392.045034 215.935912 
L 392.63166 206.539717 
L 393.813604 187.618001 
L 394.010594 187.091024 
L 394.207585 188.076112 
L 394.601566 193.914229 
L 395.806738 218.327446 
L 396.011472 220.069741 
L 396.216205 220.614538 
L 396.422523 219.91178 
L 396.83516 215.776207 
L 397.248541 211.649422 
L 397.455231 211.046163 
L 397.661921 211.805239 
L 397.868612 213.839777 
L 398.257524 220.668526 
L 399.168633 241.162931 
L 399.350855 242.871776 
L 399.533077 243.072389 
L 399.688918 242.127771 
L 400.001099 237.639729 
L 400.470122 225.516079 
L 401.408168 197.762944 
L 401.72085 193.392334 
L 402.061729 191.632913 
L 402.232168 191.495491 
L 402.573048 191.54685 
L 402.743487 191.29948 
L 402.950321 190.455669 
L 403.232698 187.787243 
L 403.563716 181.050944 
L 404.062035 163.168867 
L 404.72125 139.084083 
L 404.994373 133.58358 
L 405.135568 132.216126 
L 405.276762 131.986702 
L 405.417956 132.93894 
L 405.711753 138.204954 
L 406.740043 161.130191 
L 406.886942 162.470326 
L 407.03384 162.627811 
L 407.180739 161.49531 
L 407.474536 155.861325 
L 408.062131 137.624733 
L 408.801237 115.746561 
L 409.114491 111.85214 
L 409.947892 105.208554 
L 410.300322 101.248207 
L 410.652752 93.672725 
L 411.366617 68.907567 
L 412.094967 44.288057 
L 412.459665 37.700118 
L 412.645555 36.825119 
L 412.832284 37.50734 
L 413.205743 42.207385 
L 414.116653 55.645982 
L 414.479047 58.539226 
L 414.660244 58.94774 
L 414.852541 58.476014 
L 415.239034 54.438655 
L 415.647736 50.256713 
L 415.852087 50.017601 
L 416.056438 51.051155 
L 416.46514 56.752704 
L 417.078355 71.187187 
L 417.70803 87.116352 
L 418.024049 90.413599 
L 418.182058 90.4765 
L 418.35262 89.277564 
L 418.693742 82.985797 
L 419.047964 71.156395 
L 420.085656 29.953496 
L 420.417593 25.145805 
L 420.587293 25.020502 
L 420.931717 27.241579 
L 421.281164 29.472317 
L 421.805335 31.901784 
L 422.154782 33.868988 
L 422.329505 34.076399 
L 422.361999 34.024043 
" style="fill:none;stroke:#e36f47;"/>
   </g>
   <g id="patch_3">
    <path d="M 71.231488 258.225354 
L 71.231488 2.834646 
" style="fill:none;stroke:#000000;stroke-linecap:square;stroke-linejoin:miter;"/>
   </g>
   <g id="patch_4">
    <path d="M 71.231488 258.225354 
L 422.361999 258.225354 
" style="fill:none;stroke:#000000;stroke-linecap:square;stroke-linejoin:miter;"/>
   </g>
   <g id="legend_1">
    <g id="patch_5">
     <path d="M 299.041999 39.119646 
L 418.361999 39.119646 
L 418.361999 6.834646 
L 299.041999 6.834646 
z
" style="fill:#ffffff;stroke:#000000;stroke-linejoin:miter;"/>
    </g>
    <g id="line2d_15">
     <path d="M 305.441999 16.513396 
L 321.441999 16.513396 
" style="fill:none;stroke:#009afa;stroke-linejoin:miter;"/>
    </g>
    <g id="line2d_16"/>
    <g id="text_15">
     <!-- GXBeam -->
     <g transform="translate(327.841999 19.313396)scale(0.08 -0.08)">
      <defs>
       <path d="M 59.515625 10.40625 
L 59.515625 29.984375 
L 43.40625 29.984375 
L 43.40625 38.09375 
L 69.28125 38.09375 
L 69.28125 6.78125 
Q 63.578125 2.734375 56.6875 0.65625 
Q 49.8125 -1.421875 42 -1.421875 
Q 24.90625 -1.421875 15.25 8.5625 
Q 5.609375 18.5625 5.609375 36.375 
Q 5.609375 54.25 15.25 64.234375 
Q 24.90625 74.21875 42 74.21875 
Q 49.125 74.21875 55.546875 72.453125 
Q 61.96875 70.703125 67.390625 67.28125 
L 67.390625 56.78125 
Q 61.921875 61.421875 55.765625 63.765625 
Q 49.609375 66.109375 42.828125 66.109375 
Q 29.4375 66.109375 22.71875 58.640625 
Q 16.015625 51.171875 16.015625 36.375 
Q 16.015625 21.625 22.71875 14.15625 
Q 29.4375 6.6875 42.828125 6.6875 
Q 48.046875 6.6875 52.140625 7.59375 
Q 56.25 8.5 59.515625 10.40625 
z
" id="DejaVuSans-71"/>
       <path d="M 6.296875 72.90625 
L 16.890625 72.90625 
L 35.015625 45.796875 
L 53.21875 72.90625 
L 63.8125 72.90625 
L 40.375 37.890625 
L 65.375 0 
L 54.78125 0 
L 34.28125 31 
L 13.625 0 
L 2.984375 0 
L 29 38.921875 
z
" id="DejaVuSans-88"/>
       <path d="M 19.671875 34.8125 
L 19.671875 8.109375 
L 35.5 8.109375 
Q 43.453125 8.109375 47.28125 11.40625 
Q 51.125 14.703125 51.125 21.484375 
Q 51.125 28.328125 47.28125 31.5625 
Q 43.453125 34.8125 35.5 34.8125 
z
M 19.671875 64.796875 
L 19.671875 42.828125 
L 34.28125 42.828125 
Q 41.5 42.828125 45.03125 45.53125 
Q 48.578125 48.25 48.578125 53.8125 
Q 48.578125 59.328125 45.03125 62.0625 
Q 41.5 64.796875 34.28125 64.796875 
z
M 9.8125 72.90625 
L 35.015625 72.90625 
Q 46.296875 72.90625 52.390625 68.21875 
Q 58.5 63.53125 58.5 54.890625 
Q 58.5 48.1875 55.375 44.234375 
Q 52.25 40.28125 46.1875 39.3125 
Q 53.46875 37.75 57.5 32.78125 
Q 61.53125 27.828125 61.53125 20.40625 
Q 61.53125 10.640625 54.890625 5.3125 
Q 48.25 0 35.984375 0 
L 9.8125 0 
z
" id="DejaVuSans-66"/>
       <path d="M 34.28125 27.484375 
Q 23.390625 27.484375 19.1875 25 
Q 14.984375 22.515625 14.984375 16.5 
Q 14.984375 11.71875 18.140625 8.90625 
Q 21.296875 6.109375 26.703125 6.109375 
Q 34.1875 6.109375 38.703125 11.40625 
Q 43.21875 16.703125 43.21875 25.484375 
L 43.21875 27.484375 
z
M 52.203125 31.203125 
L 52.203125 0 
L 43.21875 0 
L 43.21875 8.296875 
Q 40.140625 3.328125 35.546875 0.953125 
Q 30.953125 -1.421875 24.3125 -1.421875 
Q 15.921875 -1.421875 10.953125 3.296875 
Q 6 8.015625 6 15.921875 
Q 6 25.140625 12.171875 29.828125 
Q 18.359375 34.515625 30.609375 34.515625 
L 43.21875 34.515625 
L 43.21875 35.40625 
Q 43.21875 41.609375 39.140625 45 
Q 35.0625 48.390625 27.6875 48.390625 
Q 23 48.390625 18.546875 47.265625 
Q 14.109375 46.140625 10.015625 43.890625 
L 10.015625 52.203125 
Q 14.9375 54.109375 19.578125 55.046875 
Q 24.21875 56 28.609375 56 
Q 40.484375 56 46.34375 49.84375 
Q 52.203125 43.703125 52.203125 31.203125 
z
" id="DejaVuSans-97"/>
      </defs>
      <use xlink:href="#DejaVuSans-71"/>
      <use x="77.490234" xlink:href="#DejaVuSans-88"/>
      <use x="145.996094" xlink:href="#DejaVuSans-66"/>
      <use x="214.599609" xlink:href="#DejaVuSans-101"/>
      <use x="276.123047" xlink:href="#DejaVuSans-97"/>
      <use x="337.402344" xlink:href="#DejaVuSans-109"/>
     </g>
    </g>
    <g id="line2d_17">
     <path d="M 305.441999 28.255896 
L 321.441999 28.255896 
" style="fill:none;stroke:#e36f47;stroke-linejoin:miter;"/>
    </g>
    <g id="line2d_18"/>
    <g id="text_16">
     <!-- DifferentialEquations -->
     <g transform="translate(327.841999 31.055896)scale(0.08 -0.08)">
      <defs>
       <path d="M 19.671875 64.796875 
L 19.671875 8.109375 
L 31.59375 8.109375 
Q 46.6875 8.109375 53.6875 14.9375 
Q 60.6875 21.78125 60.6875 36.53125 
Q 60.6875 51.171875 53.6875 57.984375 
Q 46.6875 64.796875 31.59375 64.796875 
z
M 9.8125 72.90625 
L 30.078125 72.90625 
Q 51.265625 72.90625 61.171875 64.09375 
Q 71.09375 55.28125 71.09375 36.53125 
Q 71.09375 17.671875 61.125 8.828125 
Q 51.171875 0 30.078125 0 
L 9.8125 0 
z
" id="DejaVuSans-68"/>
       <path d="M 37.109375 75.984375 
L 37.109375 68.5 
L 28.515625 68.5 
Q 23.6875 68.5 21.796875 66.546875 
Q 19.921875 64.59375 19.921875 59.515625 
L 19.921875 54.6875 
L 34.71875 54.6875 
L 34.71875 47.703125 
L 19.921875 47.703125 
L 19.921875 0 
L 10.890625 0 
L 10.890625 47.703125 
L 2.296875 47.703125 
L 2.296875 54.6875 
L 10.890625 54.6875 
L 10.890625 58.5 
Q 10.890625 67.625 15.140625 71.796875 
Q 19.390625 75.984375 28.609375 75.984375 
z
" id="DejaVuSans-102"/>
       <path d="M 41.109375 46.296875 
Q 39.59375 47.171875 37.8125 47.578125 
Q 36.03125 48 33.890625 48 
Q 26.265625 48 22.1875 43.046875 
Q 18.109375 38.09375 18.109375 28.8125 
L 18.109375 0 
L 9.078125 0 
L 9.078125 54.6875 
L 18.109375 54.6875 
L 18.109375 46.1875 
Q 20.953125 51.171875 25.484375 53.578125 
Q 30.03125 56 36.53125 56 
Q 37.453125 56 38.578125 55.875 
Q 39.703125 55.765625 41.0625 55.515625 
z
" id="DejaVuSans-114"/>
       <path d="M 54.890625 33.015625 
L 54.890625 0 
L 45.90625 0 
L 45.90625 32.71875 
Q 45.90625 40.484375 42.875 44.328125 
Q 39.84375 48.1875 33.796875 48.1875 
Q 26.515625 48.1875 22.3125 43.546875 
Q 18.109375 38.921875 18.109375 30.90625 
L 18.109375 0 
L 9.078125 0 
L 9.078125 54.6875 
L 18.109375 54.6875 
L 18.109375 46.1875 
Q 21.34375 51.125 25.703125 53.5625 
Q 30.078125 56 35.796875 56 
Q 45.21875 56 50.046875 50.171875 
Q 54.890625 44.34375 54.890625 33.015625 
z
" id="DejaVuSans-110"/>
       <path d="M 18.3125 70.21875 
L 18.3125 54.6875 
L 36.8125 54.6875 
L 36.8125 47.703125 
L 18.3125 47.703125 
L 18.3125 18.015625 
Q 18.3125 11.328125 20.140625 9.421875 
Q 21.96875 7.515625 27.59375 7.515625 
L 36.8125 7.515625 
L 36.8125 0 
L 27.59375 0 
Q 17.1875 0 13.234375 3.875 
Q 9.28125 7.765625 9.28125 18.015625 
L 9.28125 47.703125 
L 2.6875 47.703125 
L 2.6875 54.6875 
L 9.28125 54.6875 
L 9.28125 70.21875 
z
" id="DejaVuSans-116"/>
       <path d="M 9.421875 75.984375 
L 18.40625 75.984375 
L 18.40625 0 
L 9.421875 0 
z
" id="DejaVuSans-108"/>
       <path d="M 9.8125 72.90625 
L 55.90625 72.90625 
L 55.90625 64.59375 
L 19.671875 64.59375 
L 19.671875 43.015625 
L 54.390625 43.015625 
L 54.390625 34.71875 
L 19.671875 34.71875 
L 19.671875 8.296875 
L 56.78125 8.296875 
L 56.78125 0 
L 9.8125 0 
z
" id="DejaVuSans-69"/>
       <path d="M 14.796875 27.296875 
Q 14.796875 17.390625 18.875 11.75 
Q 22.953125 6.109375 30.078125 6.109375 
Q 37.203125 6.109375 41.296875 11.75 
Q 45.40625 17.390625 45.40625 27.296875 
Q 45.40625 37.203125 41.296875 42.84375 
Q 37.203125 48.484375 30.078125 48.484375 
Q 22.953125 48.484375 18.875 42.84375 
Q 14.796875 37.203125 14.796875 27.296875 
z
M 45.40625 8.203125 
Q 42.578125 3.328125 38.25 0.953125 
Q 33.9375 -1.421875 27.875 -1.421875 
Q 17.96875 -1.421875 11.734375 6.484375 
Q 5.515625 14.40625 5.515625 27.296875 
Q 5.515625 40.1875 11.734375 48.09375 
Q 17.96875 56 27.875 56 
Q 33.9375 56 38.25 53.625 
Q 42.578125 51.265625 45.40625 46.390625 
L 45.40625 54.6875 
L 54.390625 54.6875 
L 54.390625 -20.796875 
L 45.40625 -20.796875 
z
" id="DejaVuSans-113"/>
       <path d="M 8.5 21.578125 
L 8.5 54.6875 
L 17.484375 54.6875 
L 17.484375 21.921875 
Q 17.484375 14.15625 20.5 10.265625 
Q 23.53125 6.390625 29.59375 6.390625 
Q 36.859375 6.390625 41.078125 11.03125 
Q 45.3125 15.671875 45.3125 23.6875 
L 45.3125 54.6875 
L 54.296875 54.6875 
L 54.296875 0 
L 45.3125 0 
L 45.3125 8.40625 
Q 42.046875 3.421875 37.71875 1 
Q 33.40625 -1.421875 27.6875 -1.421875 
Q 18.265625 -1.421875 13.375 4.4375 
Q 8.5 10.296875 8.5 21.578125 
z
M 31.109375 56 
z
" id="DejaVuSans-117"/>
       <path d="M 30.609375 48.390625 
Q 23.390625 48.390625 19.1875 42.75 
Q 14.984375 37.109375 14.984375 27.296875 
Q 14.984375 17.484375 19.15625 11.84375 
Q 23.34375 6.203125 30.609375 6.203125 
Q 37.796875 6.203125 41.984375 11.859375 
Q 46.1875 17.53125 46.1875 27.296875 
Q 46.1875 37.015625 41.984375 42.703125 
Q 37.796875 48.390625 30.609375 48.390625 
z
M 30.609375 56 
Q 42.328125 56 49.015625 48.375 
Q 55.71875 40.765625 55.71875 27.296875 
Q 55.71875 13.875 49.015625 6.21875 
Q 42.328125 -1.421875 30.609375 -1.421875 
Q 18.84375 -1.421875 12.171875 6.21875 
Q 5.515625 13.875 5.515625 27.296875 
Q 5.515625 40.765625 12.171875 48.375 
Q 18.84375 56 30.609375 56 
z
" id="DejaVuSans-111"/>
      </defs>
      <use xlink:href="#DejaVuSans-68"/>
      <use x="77.001953" xlink:href="#DejaVuSans-105"/>
      <use x="104.785156" xlink:href="#DejaVuSans-102"/>
      <use x="139.990234" xlink:href="#DejaVuSans-102"/>
      <use x="175.195312" xlink:href="#DejaVuSans-101"/>
      <use x="236.71875" xlink:href="#DejaVuSans-114"/>
      <use x="275.582031" xlink:href="#DejaVuSans-101"/>
      <use x="337.105469" xlink:href="#DejaVuSans-110"/>
      <use x="400.484375" xlink:href="#DejaVuSans-116"/>
      <use x="439.693359" xlink:href="#DejaVuSans-105"/>
      <use x="467.476562" xlink:href="#DejaVuSans-97"/>
      <use x="528.755859" xlink:href="#DejaVuSans-108"/>
      <use x="556.539062" xlink:href="#DejaVuSans-69"/>
      <use x="619.722656" xlink:href="#DejaVuSans-113"/>
      <use x="683.199219" xlink:href="#DejaVuSans-117"/>
      <use x="746.578125" xlink:href="#DejaVuSans-97"/>
      <use x="807.857422" xlink:href="#DejaVuSans-116"/>
      <use x="847.066406" xlink:href="#DejaVuSans-105"/>
      <use x="874.849609" xlink:href="#DejaVuSans-111"/>
      <use x="936.03125" xlink:href="#DejaVuSans-110"/>
      <use x="999.410156" xlink:href="#DejaVuSans-115"/>
     </g>
    </g>
   </g>
  </g>
 </g>
 <defs>
  <clipPath id="p4f3b1b980e">
   <rect height="255.390709" width="351.130512" x="71.231488" y="2.834646"/>
  </clipPath>
 </defs>
</svg>
