<?xml version="1.0" encoding="utf-8" standalone="no"?>
<!DOCTYPE svg PUBLIC "-//W3C//DTD SVG 1.1//EN"
  "http://www.w3.org/Graphics/SVG/1.1/DTD/svg11.dtd">
<!-- Created with matplotlib (https://matplotlib.org/) -->
<svg height="288pt" version="1.1" viewBox="0 0 432 288" width="432pt" xmlns="http://www.w3.org/2000/svg" xmlns:xlink="http://www.w3.org/1999/xlink">
 <metadata>
  <rdf:RDF xmlns:cc="http://creativecommons.org/ns#" xmlns:dc="http://purl.org/dc/elements/1.1/" xmlns:rdf="http://www.w3.org/1999/02/22-rdf-syntax-ns#">
   <cc:Work>
    <dc:type rdf:resource="http://purl.org/dc/dcmitype/StillImage"/>
    <dc:date>2021-03-09T04:26:10.623456</dc:date>
    <dc:format>image/svg+xml</dc:format>
    <dc:creator>
     <cc:Agent>
      <dc:title>Matplotlib v3.3.4, https://matplotlib.org/</dc:title>
     </cc:Agent>
    </dc:creator>
   </cc:Work>
  </rdf:RDF>
 </metadata>
 <defs>
  <style type="text/css">*{stroke-linecap:butt;stroke-linejoin:round;}</style>
 </defs>
 <g id="figure_1">
  <g id="patch_1">
   <path d="M 0 288 
L 432 288 
L 432 0 
L 0 0 
z
" style="fill:#ffffff;"/>
  </g>
  <g id="axes_1">
   <g id="patch_2">
    <path d="M 63.200861 258.225354 
L 419.805777 258.225354 
L 419.805777 3.732057 
L 63.200861 3.732057 
z
" style="fill:#ffffff;"/>
   </g>
   <g id="line2d_1">
    <path clip-path="url(#p5666547ed1)" d="M 63.200861 46.756768 
L 63.557466 47.493801 
L 64.62728 52.500412 
L 64.983885 52.47378 
L 65.34049 51.666523 
L 65.697095 51.737576 
L 66.0537 52.890594 
L 66.410305 53.510799 
L 66.76691 52.640265 
L 67.123515 51.209864 
L 67.48012 50.66149 
L 67.836725 52.40039 
L 68.549935 58.525856 
L 68.906539 59.086523 
L 69.263144 58.554671 
L 69.619749 58.432994 
L 69.976354 60.353613 
L 70.689564 66.265408 
L 71.046169 66.796494 
L 71.759379 64.187656 
L 72.115984 64.74732 
L 72.829194 69.231304 
L 73.185798 69.752549 
L 73.899008 67.002164 
L 74.255613 67.839204 
L 74.968823 74.011323 
L 75.325428 74.749809 
L 76.038638 70.94576 
L 76.395243 71.90098 
L 77.108453 79.672703 
L 77.465057 81.09785 
L 78.178267 79.178623 
L 78.534872 80.383113 
L 79.248082 86.419719 
L 79.604687 87.273093 
L 80.317897 85.686628 
L 80.674502 86.604985 
L 81.031107 88.193667 
L 81.387712 89.036498 
L 81.744316 89.061096 
L 82.100921 88.92309 
L 82.457526 89.510528 
L 84.240551 98.39048 
L 84.953761 100.399857 
L 85.310366 100.958259 
L 85.666971 101.097255 
L 87.09339 102.812382 
L 87.8066 101.108094 
L 88.163205 101.134272 
L 88.51981 102.536258 
L 89.23302 107.809856 
L 89.589625 109.154707 
L 89.94623 108.702037 
L 90.302834 108.659634 
L 90.659439 110.125847 
L 91.372649 115.579602 
L 91.729254 115.867435 
L 92.085859 114.033269 
L 92.442464 112.786429 
L 92.799069 113.838412 
L 93.155674 116.546923 
L 93.512279 118.374184 
L 93.868884 117.390215 
L 94.225489 114.530924 
L 94.582093 113.130806 
L 94.938698 114.942528 
L 95.651908 121.50285 
L 96.008513 120.961917 
L 96.365118 118.523515 
L 96.721723 117.510143 
L 97.078328 119.098078 
L 97.791538 125.339776 
L 98.148143 125.718937 
L 98.504748 124.521404 
L 98.861352 123.822479 
L 99.217957 124.608947 
L 99.931167 127.991964 
L 100.287772 127.976874 
L 100.644377 126.779921 
L 101.000982 126.184848 
L 101.357587 126.876879 
L 102.070797 130.999386 
L 102.427402 131.603606 
L 102.784007 131.335287 
L 103.140611 131.530472 
L 103.497216 132.862211 
L 104.210426 138.551551 
L 104.567031 139.93193 
L 104.923636 140.075152 
L 105.280241 140.340999 
L 106.350056 142.094274 
L 106.706661 141.910546 
L 107.063266 142.180785 
L 107.776475 144.718409 
L 108.13308 144.937196 
L 108.489685 144.270433 
L 108.84629 144.031755 
L 109.202895 145.721399 
L 109.916105 151.385981 
L 110.27271 152.140198 
L 110.629315 151.754482 
L 110.98592 152.081606 
L 111.342525 154.503574 
L 111.699129 157.844714 
L 112.055734 159.334329 
L 112.412339 158.810106 
L 112.768944 157.737347 
L 113.125549 157.955643 
L 113.838759 163.75723 
L 114.195364 164.833063 
L 114.551969 163.618083 
L 114.908574 161.657751 
L 115.265179 161.133797 
L 115.621784 163.33868 
L 116.334993 169.53873 
L 116.691598 169.810793 
L 117.048203 168.76883 
L 117.404808 168.217019 
L 117.761413 170.200054 
L 118.474623 176.617811 
L 118.831228 177.308289 
L 119.544438 174.59819 
L 119.901043 175.589375 
L 120.257647 178.028642 
L 120.614252 179.36204 
L 120.970857 178.26664 
L 121.327462 175.913576 
L 121.684067 174.656693 
L 122.040672 176.371989 
L 122.397277 179.950798 
L 122.753882 182.374421 
L 123.110487 182.827969 
L 123.467092 182.27919 
L 123.823697 182.649247 
L 124.893511 189.511273 
L 125.250116 189.969336 
L 125.606721 189.743426 
L 125.963326 189.884783 
L 126.319931 190.39338 
L 126.676536 190.222535 
L 127.033141 189.367604 
L 127.389746 189.193337 
L 127.746351 189.978513 
L 128.459561 192.283832 
L 128.816165 192.544065 
L 129.17277 192.372331 
L 129.529375 193.292588 
L 130.242585 196.629511 
L 130.59919 197.656205 
L 130.955795 197.601167 
L 131.3124 197.38776 
L 131.669005 198.148641 
L 132.382215 201.522917 
L 132.73882 202.207801 
L 133.095424 201.509804 
L 133.452029 200.359309 
L 133.808634 200.852289 
L 134.878449 207.749224 
L 135.235054 206.909464 
L 135.591659 204.763354 
L 135.948264 204.209179 
L 136.304869 206.414259 
L 137.018079 213.013462 
L 137.374683 212.985757 
L 137.731288 211.588002 
L 138.087893 211.997777 
L 139.157708 222.191453 
L 139.514313 221.423011 
L 139.870918 219.595952 
L 140.227523 219.684908 
L 141.297338 225.987566 
L 142.010547 221.919511 
L 142.367152 222.002559 
L 142.723757 224.39822 
L 143.436967 230.532779 
L 143.793572 231.626123 
L 144.150177 232.076969 
L 144.506782 233.488382 
L 145.576596 239.908673 
L 145.933201 240.421335 
L 146.289806 240.257616 
L 146.646411 240.223619 
L 147.003016 240.393252 
L 147.359621 240.935362 
L 147.716226 241.228069 
L 148.072831 241.177915 
L 148.429436 241.282867 
L 148.786041 242.179774 
L 150.21246 247.691956 
L 151.282275 251.022714 
L 151.63888 250.816399 
L 151.995485 250.022353 
L 152.708695 249.43847 
L 153.0653 247.384409 
L 154.135114 236.811287 
L 154.491719 237.867573 
L 154.848324 239.831486 
L 155.204929 240.247328 
L 155.561534 239.428447 
L 155.918139 239.317392 
L 156.631349 240.631903 
L 156.987954 239.546052 
L 158.057769 227.224962 
L 158.414373 226.871114 
L 158.770978 227.772483 
L 159.127583 226.798253 
L 160.197398 215.155351 
L 160.554003 215.621753 
L 160.910608 217.641524 
L 161.267213 218.298056 
L 161.623818 216.013156 
L 161.980423 212.245293 
L 162.337028 209.758553 
L 162.693632 209.881794 
L 163.050237 212.159983 
L 163.406842 212.51019 
L 164.120052 205.92005 
L 164.476657 205.216677 
L 164.833262 208.571724 
L 165.189867 213.344005 
L 165.546472 214.138711 
L 165.903077 209.410636 
L 166.259682 202.765654 
L 166.616287 199.39056 
L 166.972891 200.092907 
L 167.329496 202.332582 
L 167.686101 201.82469 
L 168.399311 191.964531 
L 168.755916 190.133624 
L 169.112521 191.999782 
L 169.469126 195.176073 
L 169.825731 195.810701 
L 170.182336 194.746767 
L 170.538941 194.704603 
L 170.895546 196.825205 
L 171.25215 199.752026 
L 171.608755 200.896441 
L 171.96536 198.579619 
L 172.67857 189.8187 
L 173.035175 188.271143 
L 173.39178 187.862496 
L 173.748385 187.635056 
L 174.10499 186.107284 
L 174.461595 183.961167 
L 174.8182 183.013171 
L 175.174805 183.22791 
L 175.888014 185.749867 
L 176.244619 186.180801 
L 176.601224 187.268733 
L 177.314434 190.46389 
L 177.671039 190.251599 
L 178.027644 187.512709 
L 178.740854 178.603616 
L 179.097459 178.28153 
L 179.454064 179.176681 
L 179.810668 178.809383 
L 180.167273 176.095742 
L 180.523878 170.994566 
L 180.880483 167.615318 
L 181.237088 167.830188 
L 181.593693 169.531686 
L 181.950298 169.428422 
L 182.663508 163.403638 
L 183.020113 162.955753 
L 183.733323 168.979207 
L 184.089927 167.79866 
L 184.803137 158.097546 
L 185.159742 157.659337 
L 185.872952 164.485259 
L 186.229557 163.54934 
L 186.942767 152.301844 
L 187.299372 149.708541 
L 187.655977 150.888443 
L 188.012582 152.918519 
L 188.369186 152.796409 
L 189.082396 148.618318 
L 189.439001 149.052308 
L 190.152211 154.647214 
L 190.508816 154.852641 
L 191.222026 150.899439 
L 191.578631 152.036098 
L 191.935236 154.893348 
L 192.291841 156.471427 
L 192.648445 155.130023 
L 193.361655 146.197875 
L 193.71826 144.977801 
L 194.43147 148.863038 
L 194.788075 148.919953 
L 195.501285 148.028887 
L 195.85789 149.670405 
L 196.214495 151.988215 
L 196.5711 152.382571 
L 196.927704 151.761753 
L 197.284309 151.85156 
L 197.640914 154.222088 
L 197.997519 157.571987 
L 198.354124 158.95782 
L 198.710729 157.010529 
L 199.067334 153.243921 
L 199.423939 150.9286 
L 199.780544 151.383782 
L 200.137149 152.851854 
L 200.493754 152.323474 
L 201.206963 145.207257 
L 201.563568 143.497142 
L 201.920173 143.390737 
L 202.276778 143.589089 
L 202.633383 141.213748 
L 202.989988 137.088197 
L 203.346593 134.563492 
L 203.703198 135.252676 
L 204.059803 138.269674 
L 204.416408 140.307228 
L 204.773013 138.449692 
L 205.486222 127.036234 
L 205.842827 124.371416 
L 206.199432 124.307145 
L 206.556037 124.767513 
L 206.912642 121.572326 
L 207.625852 107.44653 
L 207.982457 103.184158 
L 208.339062 102.97921 
L 208.695667 104.37709 
L 209.052272 103.241517 
L 209.765481 97.082918 
L 210.122086 98.562304 
L 210.478691 102.218844 
L 210.835296 104.604181 
L 211.191901 102.458856 
L 211.905111 91.208193 
L 212.261716 90.038775 
L 212.618321 91.329168 
L 212.974926 91.403481 
L 213.331531 87.485542 
L 214.04474 78.009772 
L 214.401345 77.489406 
L 215.114555 80.941035 
L 215.47116 80.874382 
L 215.827765 81.093088 
L 216.89758 87.283416 
L 217.254185 87.416669 
L 217.61079 86.0843 
L 217.967395 85.715122 
L 219.037209 93.14032 
L 219.393814 94.085143 
L 219.750419 94.143606 
L 220.107024 95.228317 
L 221.176839 102.604369 
L 221.890049 103.879923 
L 222.246654 105.425196 
L 222.959863 111.378113 
L 223.316468 111.904172 
L 224.029678 109.885664 
L 224.386283 112.777427 
L 225.099493 124.922855 
L 225.456098 126.540528 
L 226.169308 120.433246 
L 226.525913 119.706263 
L 226.882517 122.054611 
L 227.239122 123.450403 
L 227.595727 120.435494 
L 228.308937 109.249704 
L 228.665542 108.847661 
L 229.022147 111.583676 
L 229.378752 112.931703 
L 229.735357 111.31602 
L 230.091962 107.90947 
L 230.448567 106.772208 
L 230.805172 110.649443 
L 231.161776 115.794889 
L 231.518381 117.408071 
L 231.874986 113.834872 
L 232.588196 100.726792 
L 232.944801 97.068594 
L 233.301406 95.503183 
L 233.658011 92.061098 
L 234.727826 74.744605 
L 235.084431 72.358223 
L 235.441035 71.464107 
L 235.79764 69.931538 
L 236.867455 62.168909 
L 237.580665 60.29751 
L 237.93727 56.701305 
L 239.007085 39.285742 
L 240.076899 32.485526 
L 240.790109 26.7356 
L 241.146714 26.169635 
L 241.503319 26.561163 
L 241.859924 26.230677 
L 242.216529 25.437109 
L 242.573134 25.187793 
L 242.929739 27.173291 
L 243.286344 30.147933 
L 243.642949 31.794035 
L 243.999553 30.893114 
L 244.356158 28.327543 
L 244.712763 27.076976 
L 245.069368 28.148427 
L 246.139183 37.683489 
L 246.495788 39.083355 
L 247.208998 43.559952 
L 247.565603 45.905444 
L 247.922208 46.883827 
L 248.635417 46.598529 
L 248.992022 48.618182 
L 249.705232 57.420834 
L 250.061837 60.268358 
L 250.775047 62.476038 
L 251.131652 65.97051 
L 252.201467 81.875209 
L 252.558071 83.160746 
L 252.914676 83.640003 
L 253.271281 83.778755 
L 253.627886 84.439892 
L 253.984491 84.316807 
L 254.697701 81.491457 
L 255.054306 81.792993 
L 256.124121 91.756819 
L 256.480726 92.046041 
L 256.83733 90.857888 
L 257.193935 91.367849 
L 257.907145 96.499261 
L 258.26375 97.158304 
L 258.620355 94.275101 
L 259.69017 81.325945 
L 260.40338 73.10819 
L 261.116589 65.777092 
L 261.473194 65.057289 
L 261.829799 65.809488 
L 262.186404 64.672541 
L 262.543009 61.476641 
L 263.256219 53.372814 
L 263.612824 52.076601 
L 263.969429 52.146913 
L 264.326034 51.821201 
L 264.682639 48.596632 
L 265.752453 34.92672 
L 267.535478 22.884242 
L 267.892083 22.839251 
L 268.248688 21.822418 
L 268.605293 19.214483 
L 269.318503 11.889526 
L 269.675107 11.324371 
L 270.031712 13.809915 
L 270.388317 17.240302 
L 270.744922 18.511405 
L 271.814737 15.240726 
L 272.171342 16.992892 
L 272.527947 19.347667 
L 272.884552 20.273589 
L 273.241157 20.539674 
L 273.597762 21.050395 
L 274.667576 26.858463 
L 275.024181 26.957675 
L 275.380786 27.428952 
L 275.737391 30.847978 
L 276.807206 51.222359 
L 277.163811 53.811451 
L 277.520416 55.294212 
L 277.877021 57.922685 
L 279.30344 73.309202 
L 280.01665 77.485131 
L 280.373255 80.622884 
L 280.72986 82.427547 
L 281.44307 83.683551 
L 281.799675 85.413079 
L 282.869489 98.460347 
L 283.226094 99.295786 
L 283.582699 98.291668 
L 283.939304 98.364967 
L 284.295909 99.865015 
L 285.009119 107.203535 
L 285.365724 108.699877 
L 285.722329 108.498735 
L 286.078934 107.865549 
L 286.435539 107.783987 
L 286.792143 107.032932 
L 287.148748 105.090229 
L 287.861958 98.46261 
L 288.218563 96.991114 
L 288.575168 97.314617 
L 288.931773 97.154767 
L 289.288378 95.108969 
L 290.001588 87.168111 
L 290.358193 86.049677 
L 290.714798 87.379626 
L 291.071402 89.347319 
L 291.428007 88.675793 
L 291.784612 85.449999 
L 293.567637 62.416304 
L 294.280847 51.751357 
L 294.637452 49.903106 
L 294.994057 48.671793 
L 295.350661 46.805794 
L 296.063871 39.490553 
L 296.420476 38.629683 
L 296.777081 40.067331 
L 297.133686 42.655755 
L 297.490291 43.547575 
L 297.846896 41.588025 
L 298.560106 34.733974 
L 299.273316 31.485659 
L 300.34313 26.284595 
L 300.699735 27.265942 
L 301.05634 29.682591 
L 301.412945 31.212878 
L 301.76955 30.855866 
L 302.126155 29.602742 
L 302.48276 29.816781 
L 302.839365 32.128764 
L 303.552575 39.41705 
L 303.909179 39.910305 
L 304.265784 39.123122 
L 304.622389 38.97667 
L 304.978994 40.919581 
L 306.048809 51.054292 
L 306.405414 53.568281 
L 306.762019 56.99286 
L 307.475229 64.765589 
L 307.831834 65.944204 
L 308.545043 64.501613 
L 308.901648 66.070704 
L 309.971463 76.70411 
L 310.684673 79.075437 
L 311.041278 82.033767 
L 311.754488 92.492634 
L 312.111093 95.955297 
L 312.467697 97.515642 
L 313.180907 98.062881 
L 313.537512 97.679061 
L 313.894117 95.32062 
L 314.607327 85.27827 
L 314.963932 82.567226 
L 315.320537 82.508872 
L 315.677142 84.532064 
L 316.033747 85.869038 
L 316.390352 84.675922 
L 316.746956 83.080003 
L 317.103561 82.87019 
L 317.816771 86.531412 
L 318.173376 86.366895 
L 318.529981 83.868412 
L 320.313006 60.837658 
L 320.669611 54.466508 
L 321.026215 50.45217 
L 321.38282 49.335046 
L 322.09603 50.519104 
L 322.452635 47.93544 
L 323.165845 40.815112 
L 323.52245 38.873266 
L 323.879055 38.193446 
L 324.23566 36.670009 
L 324.592265 33.623819 
L 325.305474 25.547305 
L 327.088499 14.820111 
L 327.445104 15.424923 
L 328.158314 19.00174 
L 328.514919 18.426184 
L 329.228129 12.058998 
L 329.584733 10.934698 
L 329.941338 12.765385 
L 330.654548 18.041996 
L 331.367758 20.59633 
L 331.724363 23.72162 
L 332.437573 32.062592 
L 332.794178 34.554921 
L 333.150783 35.894231 
L 333.507388 38.27497 
L 334.220597 44.927396 
L 334.577202 46.251065 
L 335.290412 41.695304 
L 335.647017 41.964169 
L 336.003622 45.7128 
L 336.716832 57.000979 
L 338.499856 77.573885 
L 338.856461 80.336364 
L 339.569671 82.680873 
L 340.282881 86.871896 
L 340.639486 87.602891 
L 340.996091 85.60843 
L 341.352696 82.959592 
L 341.709301 82.183261 
L 342.065906 84.206774 
L 342.779115 92.992451 
L 343.13572 95.283222 
L 343.492325 95.746433 
L 343.84893 95.524245 
L 344.56214 97.429773 
L 344.918745 97.563111 
L 345.27535 96.562921 
L 345.631955 94.712896 
L 345.98856 93.636283 
L 346.345165 93.12331 
L 346.701769 92.016502 
L 347.058374 89.018499 
L 347.771584 79.626596 
L 348.128189 77.723548 
L 348.484794 78.425765 
L 348.841399 79.471873 
L 349.198004 78.20696 
L 349.554609 74.82535 
L 349.911214 70.233553 
L 350.267819 67.319377 
L 350.981028 66.333817 
L 351.337633 65.379281 
L 352.050843 62.677638 
L 352.764053 62.329852 
L 353.120658 60.713655 
L 353.833868 51.555837 
L 354.190473 49.155018 
L 354.547078 48.767122 
L 354.903682 49.652037 
L 355.260287 48.743725 
L 356.330102 38.124435 
L 356.686707 38.539804 
L 357.399917 42.008444 
L 357.756522 42.987365 
L 358.113127 43.478968 
L 358.826337 46.303696 
L 359.182941 46.908041 
L 359.539546 45.47201 
L 359.896151 43.044819 
L 360.252756 42.407453 
L 360.609361 43.83271 
L 361.322571 49.176548 
L 361.679176 48.569044 
L 362.035781 46.658949 
L 362.392386 45.60016 
L 362.748991 47.440413 
L 363.818805 58.875218 
L 364.532015 62.869387 
L 365.245225 68.20998 
L 365.60183 70.099204 
L 365.958435 70.270341 
L 366.31504 71.331072 
L 367.384855 81.053433 
L 367.741459 81.037854 
L 368.454669 75.436272 
L 368.811274 74.637493 
L 369.881089 80.244766 
L 370.237694 80.314021 
L 370.594299 79.987593 
L 370.950904 81.030922 
L 371.664114 85.149556 
L 372.020718 85.78148 
L 372.377323 85.827324 
L 373.447138 88.894354 
L 373.803743 87.125847 
L 374.873558 71.218673 
L 375.230163 70.250932 
L 375.586768 70.721513 
L 375.943373 70.64824 
L 376.299977 69.078548 
L 376.656582 66.18109 
L 377.013187 64.902911 
L 377.726397 65.98223 
L 378.083002 65.456747 
L 378.796212 60.9766 
L 379.509422 58.197775 
L 379.866027 55.327347 
L 380.935841 38.495727 
L 381.292446 37.260084 
L 381.649051 38.554856 
L 382.005656 38.870537 
L 382.362261 37.742955 
L 383.075471 32.910684 
L 383.432076 32.463706 
L 383.788681 32.825666 
L 384.145286 32.857025 
L 384.858495 30.401994 
L 385.2151 30.421544 
L 385.92831 31.934523 
L 386.284915 31.456701 
L 386.64152 29.941549 
L 386.998125 29.180544 
L 387.35473 30.591709 
L 388.06794 36.951232 
L 388.424545 37.548684 
L 388.78115 35.953854 
L 389.137754 32.963862 
L 389.494359 31.612434 
L 389.850964 32.47826 
L 390.564174 35.009552 
L 390.920779 35.728947 
L 391.277384 37.735107 
L 391.633989 41.080861 
L 392.347199 50.045206 
L 393.417013 54.800714 
L 394.130223 61.774423 
L 394.486828 62.347123 
L 394.843433 60.016649 
L 395.200038 55.999042 
L 395.556643 53.866931 
L 395.913248 54.815739 
L 397.339668 63.962536 
L 398.409482 76.659018 
L 398.766087 77.791396 
L 399.479297 76.617988 
L 399.835902 77.170556 
L 400.192507 78.234897 
L 400.549112 77.149547 
L 400.905717 73.59295 
L 401.618927 65.150772 
L 401.975531 64.570422 
L 403.045346 69.206812 
L 403.401951 69.542067 
L 404.471766 72.612225 
L 404.828371 72.253896 
L 405.541581 67.120919 
L 405.898186 66.223147 
L 406.611395 67.328288 
L 406.968 66.106174 
L 407.68121 60.239865 
L 408.037815 59.734073 
L 408.751025 63.438187 
L 409.10763 63.956232 
L 410.177445 58.326851 
L 410.890654 56.747132 
L 411.603864 52.776857 
L 411.960469 53.103333 
L 412.317074 55.848709 
L 412.673679 59.559598 
L 413.030284 61.368521 
L 413.386889 60.897972 
L 413.743494 58.936504 
L 414.100099 58.239061 
L 414.813308 61.4278 
L 415.169913 61.608413 
L 415.526518 59.302628 
L 415.883123 55.881044 
L 416.239728 53.976472 
L 416.596333 53.667527 
L 417.666148 56.635486 
L 418.022753 59.26859 
L 419.092567 73.304858 
L 419.449172 73.926466 
L 419.805777 72.505484 
L 419.805777 72.505484 
" style="fill:none;stroke:#009afa;"/>
   </g>
   <g id="matplotlib.axis_1">
    <g id="xtick_1">
     <g id="line2d_2">
      <defs>
       <path d="M 0 0 
L 0 -2.5 
" id="m43e256cf55" style="stroke:#000000;stroke-width:0.5;"/>
      </defs>
      <g>
       <use style="stroke:#000000;stroke-width:0.5;" x="63.200861" xlink:href="#m43e256cf55" y="258.225354"/>
      </g>
     </g>
     <g id="text_1">
      <!-- $\mathregular{0.00}$ -->
      <g transform="translate(54.280861 267.804104)scale(0.08 -0.08)">
       <defs>
        <path d="M 31.78125 66.40625 
Q 24.171875 66.40625 20.328125 58.90625 
Q 16.5 51.421875 16.5 36.375 
Q 16.5 21.390625 20.328125 13.890625 
Q 24.171875 6.390625 31.78125 6.390625 
Q 39.453125 6.390625 43.28125 13.890625 
Q 47.125 21.390625 47.125 36.375 
Q 47.125 51.421875 43.28125 58.90625 
Q 39.453125 66.40625 31.78125 66.40625 
z
M 31.78125 74.21875 
Q 44.046875 74.21875 50.515625 64.515625 
Q 56.984375 54.828125 56.984375 36.375 
Q 56.984375 17.96875 50.515625 8.265625 
Q 44.046875 -1.421875 31.78125 -1.421875 
Q 19.53125 -1.421875 13.0625 8.265625 
Q 6.59375 17.96875 6.59375 36.375 
Q 6.59375 54.828125 13.0625 64.515625 
Q 19.53125 74.21875 31.78125 74.21875 
z
" id="DejaVuSans-48"/>
        <path d="M 10.6875 12.40625 
L 21 12.40625 
L 21 0 
L 10.6875 0 
z
" id="DejaVuSans-46"/>
       </defs>
       <use transform="translate(0 0.78125)" xlink:href="#DejaVuSans-48"/>
       <use transform="translate(63.623047 0.78125)" xlink:href="#DejaVuSans-46"/>
       <use transform="translate(95.410156 0.78125)" xlink:href="#DejaVuSans-48"/>
       <use transform="translate(159.033203 0.78125)" xlink:href="#DejaVuSans-48"/>
      </g>
     </g>
    </g>
    <g id="xtick_2">
     <g id="line2d_3">
      <g>
       <use style="stroke:#000000;stroke-width:0.5;" x="152.35209" xlink:href="#m43e256cf55" y="258.225354"/>
      </g>
     </g>
     <g id="text_2">
      <!-- $\mathregular{0.01}$ -->
      <g transform="translate(143.43209 267.804104)scale(0.08 -0.08)">
       <defs>
        <path d="M 12.40625 8.296875 
L 28.515625 8.296875 
L 28.515625 63.921875 
L 10.984375 60.40625 
L 10.984375 69.390625 
L 28.421875 72.90625 
L 38.28125 72.90625 
L 38.28125 8.296875 
L 54.390625 8.296875 
L 54.390625 0 
L 12.40625 0 
z
" id="DejaVuSans-49"/>
       </defs>
       <use transform="translate(0 0.78125)" xlink:href="#DejaVuSans-48"/>
       <use transform="translate(63.623047 0.78125)" xlink:href="#DejaVuSans-46"/>
       <use transform="translate(95.410156 0.78125)" xlink:href="#DejaVuSans-48"/>
       <use transform="translate(159.033203 0.78125)" xlink:href="#DejaVuSans-49"/>
      </g>
     </g>
    </g>
    <g id="xtick_3">
     <g id="line2d_4">
      <g>
       <use style="stroke:#000000;stroke-width:0.5;" x="241.503319" xlink:href="#m43e256cf55" y="258.225354"/>
      </g>
     </g>
     <g id="text_3">
      <!-- $\mathregular{0.02}$ -->
      <g transform="translate(232.583319 267.804104)scale(0.08 -0.08)">
       <defs>
        <path d="M 19.1875 8.296875 
L 53.609375 8.296875 
L 53.609375 0 
L 7.328125 0 
L 7.328125 8.296875 
Q 12.9375 14.109375 22.625 23.890625 
Q 32.328125 33.6875 34.8125 36.53125 
Q 39.546875 41.84375 41.421875 45.53125 
Q 43.3125 49.21875 43.3125 52.78125 
Q 43.3125 58.59375 39.234375 62.25 
Q 35.15625 65.921875 28.609375 65.921875 
Q 23.96875 65.921875 18.8125 64.3125 
Q 13.671875 62.703125 7.8125 59.421875 
L 7.8125 69.390625 
Q 13.765625 71.78125 18.9375 73 
Q 24.125 74.21875 28.421875 74.21875 
Q 39.75 74.21875 46.484375 68.546875 
Q 53.21875 62.890625 53.21875 53.421875 
Q 53.21875 48.921875 51.53125 44.890625 
Q 49.859375 40.875 45.40625 35.40625 
Q 44.1875 33.984375 37.640625 27.21875 
Q 31.109375 20.453125 19.1875 8.296875 
z
" id="DejaVuSans-50"/>
       </defs>
       <use transform="translate(0 0.78125)" xlink:href="#DejaVuSans-48"/>
       <use transform="translate(63.623047 0.78125)" xlink:href="#DejaVuSans-46"/>
       <use transform="translate(95.410156 0.78125)" xlink:href="#DejaVuSans-48"/>
       <use transform="translate(159.033203 0.78125)" xlink:href="#DejaVuSans-50"/>
      </g>
     </g>
    </g>
    <g id="xtick_4">
     <g id="line2d_5">
      <g>
       <use style="stroke:#000000;stroke-width:0.5;" x="330.654548" xlink:href="#m43e256cf55" y="258.225354"/>
      </g>
     </g>
     <g id="text_4">
      <!-- $\mathregular{0.03}$ -->
      <g transform="translate(321.734548 267.804104)scale(0.08 -0.08)">
       <defs>
        <path d="M 40.578125 39.3125 
Q 47.65625 37.796875 51.625 33 
Q 55.609375 28.21875 55.609375 21.1875 
Q 55.609375 10.40625 48.1875 4.484375 
Q 40.765625 -1.421875 27.09375 -1.421875 
Q 22.515625 -1.421875 17.65625 -0.515625 
Q 12.796875 0.390625 7.625 2.203125 
L 7.625 11.71875 
Q 11.71875 9.328125 16.59375 8.109375 
Q 21.484375 6.890625 26.8125 6.890625 
Q 36.078125 6.890625 40.9375 10.546875 
Q 45.796875 14.203125 45.796875 21.1875 
Q 45.796875 27.640625 41.28125 31.265625 
Q 36.765625 34.90625 28.71875 34.90625 
L 20.21875 34.90625 
L 20.21875 43.015625 
L 29.109375 43.015625 
Q 36.375 43.015625 40.234375 45.921875 
Q 44.09375 48.828125 44.09375 54.296875 
Q 44.09375 59.90625 40.109375 62.90625 
Q 36.140625 65.921875 28.71875 65.921875 
Q 24.65625 65.921875 20.015625 65.03125 
Q 15.375 64.15625 9.8125 62.3125 
L 9.8125 71.09375 
Q 15.4375 72.65625 20.34375 73.4375 
Q 25.25 74.21875 29.59375 74.21875 
Q 40.828125 74.21875 47.359375 69.109375 
Q 53.90625 64.015625 53.90625 55.328125 
Q 53.90625 49.265625 50.4375 45.09375 
Q 46.96875 40.921875 40.578125 39.3125 
z
" id="DejaVuSans-51"/>
       </defs>
       <use transform="translate(0 0.78125)" xlink:href="#DejaVuSans-48"/>
       <use transform="translate(63.623047 0.78125)" xlink:href="#DejaVuSans-46"/>
       <use transform="translate(95.410156 0.78125)" xlink:href="#DejaVuSans-48"/>
       <use transform="translate(159.033203 0.78125)" xlink:href="#DejaVuSans-51"/>
      </g>
     </g>
    </g>
    <g id="xtick_5">
     <g id="line2d_6">
      <g>
       <use style="stroke:#000000;stroke-width:0.5;" x="419.805777" xlink:href="#m43e256cf55" y="258.225354"/>
      </g>
     </g>
     <g id="text_5">
      <!-- $\mathregular{0.04}$ -->
      <g transform="translate(410.885777 267.804104)scale(0.08 -0.08)">
       <defs>
        <path d="M 37.796875 64.3125 
L 12.890625 25.390625 
L 37.796875 25.390625 
z
M 35.203125 72.90625 
L 47.609375 72.90625 
L 47.609375 25.390625 
L 58.015625 25.390625 
L 58.015625 17.1875 
L 47.609375 17.1875 
L 47.609375 0 
L 37.796875 0 
L 37.796875 17.1875 
L 4.890625 17.1875 
L 4.890625 26.703125 
z
" id="DejaVuSans-52"/>
       </defs>
       <use transform="translate(0 0.78125)" xlink:href="#DejaVuSans-48"/>
       <use transform="translate(63.623047 0.78125)" xlink:href="#DejaVuSans-46"/>
       <use transform="translate(95.410156 0.78125)" xlink:href="#DejaVuSans-48"/>
       <use transform="translate(159.033203 0.78125)" xlink:href="#DejaVuSans-52"/>
      </g>
     </g>
    </g>
    <g id="text_6">
     <!-- Time (s) -->
     <g transform="translate(219.141522 281.826136)scale(0.11 -0.11)">
      <defs>
       <path d="M -0.296875 72.90625 
L 61.375 72.90625 
L 61.375 64.59375 
L 35.5 64.59375 
L 35.5 0 
L 25.59375 0 
L 25.59375 64.59375 
L -0.296875 64.59375 
z
" id="DejaVuSans-84"/>
       <path d="M 9.421875 54.6875 
L 18.40625 54.6875 
L 18.40625 0 
L 9.421875 0 
z
M 9.421875 75.984375 
L 18.40625 75.984375 
L 18.40625 64.59375 
L 9.421875 64.59375 
z
" id="DejaVuSans-105"/>
       <path d="M 52 44.1875 
Q 55.375 50.25 60.0625 53.125 
Q 64.75 56 71.09375 56 
Q 79.640625 56 84.28125 50.015625 
Q 88.921875 44.046875 88.921875 33.015625 
L 88.921875 0 
L 79.890625 0 
L 79.890625 32.71875 
Q 79.890625 40.578125 77.09375 44.375 
Q 74.3125 48.1875 68.609375 48.1875 
Q 61.625 48.1875 57.5625 43.546875 
Q 53.515625 38.921875 53.515625 30.90625 
L 53.515625 0 
L 44.484375 0 
L 44.484375 32.71875 
Q 44.484375 40.625 41.703125 44.40625 
Q 38.921875 48.1875 33.109375 48.1875 
Q 26.21875 48.1875 22.15625 43.53125 
Q 18.109375 38.875 18.109375 30.90625 
L 18.109375 0 
L 9.078125 0 
L 9.078125 54.6875 
L 18.109375 54.6875 
L 18.109375 46.1875 
Q 21.1875 51.21875 25.484375 53.609375 
Q 29.78125 56 35.6875 56 
Q 41.65625 56 45.828125 52.96875 
Q 50 49.953125 52 44.1875 
z
" id="DejaVuSans-109"/>
       <path d="M 56.203125 29.59375 
L 56.203125 25.203125 
L 14.890625 25.203125 
Q 15.484375 15.921875 20.484375 11.0625 
Q 25.484375 6.203125 34.421875 6.203125 
Q 39.59375 6.203125 44.453125 7.46875 
Q 49.3125 8.734375 54.109375 11.28125 
L 54.109375 2.78125 
Q 49.265625 0.734375 44.1875 -0.34375 
Q 39.109375 -1.421875 33.890625 -1.421875 
Q 20.796875 -1.421875 13.15625 6.1875 
Q 5.515625 13.8125 5.515625 26.8125 
Q 5.515625 40.234375 12.765625 48.109375 
Q 20.015625 56 32.328125 56 
Q 43.359375 56 49.78125 48.890625 
Q 56.203125 41.796875 56.203125 29.59375 
z
M 47.21875 32.234375 
Q 47.125 39.59375 43.09375 43.984375 
Q 39.0625 48.390625 32.421875 48.390625 
Q 24.90625 48.390625 20.390625 44.140625 
Q 15.875 39.890625 15.1875 32.171875 
z
" id="DejaVuSans-101"/>
       <path id="DejaVuSans-32"/>
       <path d="M 31 75.875 
Q 24.46875 64.65625 21.28125 53.65625 
Q 18.109375 42.671875 18.109375 31.390625 
Q 18.109375 20.125 21.3125 9.0625 
Q 24.515625 -2 31 -13.1875 
L 23.1875 -13.1875 
Q 15.875 -1.703125 12.234375 9.375 
Q 8.59375 20.453125 8.59375 31.390625 
Q 8.59375 42.28125 12.203125 53.3125 
Q 15.828125 64.359375 23.1875 75.875 
z
" id="DejaVuSans-40"/>
       <path d="M 44.28125 53.078125 
L 44.28125 44.578125 
Q 40.484375 46.53125 36.375 47.5 
Q 32.28125 48.484375 27.875 48.484375 
Q 21.1875 48.484375 17.84375 46.4375 
Q 14.5 44.390625 14.5 40.28125 
Q 14.5 37.15625 16.890625 35.375 
Q 19.28125 33.59375 26.515625 31.984375 
L 29.59375 31.296875 
Q 39.15625 29.25 43.1875 25.515625 
Q 47.21875 21.78125 47.21875 15.09375 
Q 47.21875 7.46875 41.1875 3.015625 
Q 35.15625 -1.421875 24.609375 -1.421875 
Q 20.21875 -1.421875 15.453125 -0.5625 
Q 10.6875 0.296875 5.421875 2 
L 5.421875 11.28125 
Q 10.40625 8.6875 15.234375 7.390625 
Q 20.0625 6.109375 24.8125 6.109375 
Q 31.15625 6.109375 34.5625 8.28125 
Q 37.984375 10.453125 37.984375 14.40625 
Q 37.984375 18.0625 35.515625 20.015625 
Q 33.0625 21.96875 24.703125 23.78125 
L 21.578125 24.515625 
Q 13.234375 26.265625 9.515625 29.90625 
Q 5.8125 33.546875 5.8125 39.890625 
Q 5.8125 47.609375 11.28125 51.796875 
Q 16.75 56 26.8125 56 
Q 31.78125 56 36.171875 55.265625 
Q 40.578125 54.546875 44.28125 53.078125 
z
" id="DejaVuSans-115"/>
       <path d="M 8.015625 75.875 
L 15.828125 75.875 
Q 23.140625 64.359375 26.78125 53.3125 
Q 30.421875 42.28125 30.421875 31.390625 
Q 30.421875 20.453125 26.78125 9.375 
Q 23.140625 -1.703125 15.828125 -13.1875 
L 8.015625 -13.1875 
Q 14.5 -2 17.703125 9.0625 
Q 20.90625 20.125 20.90625 31.390625 
Q 20.90625 42.671875 17.703125 53.65625 
Q 14.5 64.65625 8.015625 75.875 
z
" id="DejaVuSans-41"/>
      </defs>
      <use xlink:href="#DejaVuSans-84"/>
      <use x="57.958984" xlink:href="#DejaVuSans-105"/>
      <use x="85.742188" xlink:href="#DejaVuSans-109"/>
      <use x="183.154297" xlink:href="#DejaVuSans-101"/>
      <use x="244.677734" xlink:href="#DejaVuSans-32"/>
      <use x="276.464844" xlink:href="#DejaVuSans-40"/>
      <use x="315.478516" xlink:href="#DejaVuSans-115"/>
      <use x="367.578125" xlink:href="#DejaVuSans-41"/>
     </g>
    </g>
   </g>
   <g id="matplotlib.axis_2">
    <g id="ytick_1">
     <g id="line2d_7">
      <defs>
       <path d="M 0 0 
L 2.5 0 
" id="ma1ed7b2f82" style="stroke:#000000;stroke-width:0.5;"/>
      </defs>
      <g>
       <use style="stroke:#000000;stroke-width:0.5;" x="63.200861" xlink:href="#ma1ed7b2f82" y="247.076463"/>
      </g>
     </g>
     <g id="text_7">
      <!-- $\mathregular{-5×10^{-6}}$ -->
      <g transform="translate(22.420861 250.115838)scale(0.08 -0.08)">
       <defs>
        <path d="M 10.59375 35.5 
L 73.1875 35.5 
L 73.1875 27.203125 
L 10.59375 27.203125 
z
" id="DejaVuSans-8722"/>
        <path d="M 10.796875 72.90625 
L 49.515625 72.90625 
L 49.515625 64.59375 
L 19.828125 64.59375 
L 19.828125 46.734375 
Q 21.96875 47.46875 24.109375 47.828125 
Q 26.265625 48.1875 28.421875 48.1875 
Q 40.625 48.1875 47.75 41.5 
Q 54.890625 34.8125 54.890625 23.390625 
Q 54.890625 11.625 47.5625 5.09375 
Q 40.234375 -1.421875 26.90625 -1.421875 
Q 22.3125 -1.421875 17.546875 -0.640625 
Q 12.796875 0.140625 7.71875 1.703125 
L 7.71875 11.625 
Q 12.109375 9.234375 16.796875 8.0625 
Q 21.484375 6.890625 26.703125 6.890625 
Q 35.15625 6.890625 40.078125 11.328125 
Q 45.015625 15.765625 45.015625 23.390625 
Q 45.015625 31 40.078125 35.4375 
Q 35.15625 39.890625 26.703125 39.890625 
Q 22.75 39.890625 18.8125 39.015625 
Q 14.890625 38.140625 10.796875 36.28125 
z
" id="DejaVuSans-53"/>
        <path d="M 70.125 53.71875 
L 47.796875 31.296875 
L 70.125 8.984375 
L 64.3125 3.078125 
L 41.890625 25.484375 
L 19.484375 3.078125 
L 13.71875 8.984375 
L 35.984375 31.296875 
L 13.71875 53.71875 
L 19.484375 59.625 
L 41.890625 37.203125 
L 64.3125 59.625 
z
" id="DejaVuSans-215"/>
        <path d="M 33.015625 40.375 
Q 26.375 40.375 22.484375 35.828125 
Q 18.609375 31.296875 18.609375 23.390625 
Q 18.609375 15.53125 22.484375 10.953125 
Q 26.375 6.390625 33.015625 6.390625 
Q 39.65625 6.390625 43.53125 10.953125 
Q 47.40625 15.53125 47.40625 23.390625 
Q 47.40625 31.296875 43.53125 35.828125 
Q 39.65625 40.375 33.015625 40.375 
z
M 52.59375 71.296875 
L 52.59375 62.3125 
Q 48.875 64.0625 45.09375 64.984375 
Q 41.3125 65.921875 37.59375 65.921875 
Q 27.828125 65.921875 22.671875 59.328125 
Q 17.53125 52.734375 16.796875 39.40625 
Q 19.671875 43.65625 24.015625 45.921875 
Q 28.375 48.1875 33.59375 48.1875 
Q 44.578125 48.1875 50.953125 41.515625 
Q 57.328125 34.859375 57.328125 23.390625 
Q 57.328125 12.15625 50.6875 5.359375 
Q 44.046875 -1.421875 33.015625 -1.421875 
Q 20.359375 -1.421875 13.671875 8.265625 
Q 6.984375 17.96875 6.984375 36.375 
Q 6.984375 53.65625 15.1875 63.9375 
Q 23.390625 74.21875 37.203125 74.21875 
Q 40.921875 74.21875 44.703125 73.484375 
Q 48.484375 72.75 52.59375 71.296875 
z
" id="DejaVuSans-54"/>
       </defs>
       <use transform="translate(0 0.765625)" xlink:href="#DejaVuSans-8722"/>
       <use transform="translate(83.789062 0.765625)" xlink:href="#DejaVuSans-53"/>
       <use transform="translate(147.412109 0.765625)" xlink:href="#DejaVuSans-215"/>
       <use transform="translate(231.201172 0.765625)" xlink:href="#DejaVuSans-49"/>
       <use transform="translate(294.824219 0.765625)" xlink:href="#DejaVuSans-48"/>
       <use transform="translate(359.404297 39.046875)scale(0.7)" xlink:href="#DejaVuSans-8722"/>
       <use transform="translate(418.056641 39.046875)scale(0.7)" xlink:href="#DejaVuSans-54"/>
      </g>
     </g>
    </g>
    <g id="ytick_2">
     <g id="line2d_8">
      <g>
       <use style="stroke:#000000;stroke-width:0.5;" x="63.200861" xlink:href="#ma1ed7b2f82" y="207.012524"/>
      </g>
     </g>
     <g id="text_8">
      <!-- $\mathregular{-4×10^{-6}}$ -->
      <g transform="translate(22.420861 210.051899)scale(0.08 -0.08)">
       <use transform="translate(0 0.765625)" xlink:href="#DejaVuSans-8722"/>
       <use transform="translate(83.789062 0.765625)" xlink:href="#DejaVuSans-52"/>
       <use transform="translate(147.412109 0.765625)" xlink:href="#DejaVuSans-215"/>
       <use transform="translate(231.201172 0.765625)" xlink:href="#DejaVuSans-49"/>
       <use transform="translate(294.824219 0.765625)" xlink:href="#DejaVuSans-48"/>
       <use transform="translate(359.404297 39.046875)scale(0.7)" xlink:href="#DejaVuSans-8722"/>
       <use transform="translate(418.056641 39.046875)scale(0.7)" xlink:href="#DejaVuSans-54"/>
      </g>
     </g>
    </g>
    <g id="ytick_3">
     <g id="line2d_9">
      <g>
       <use style="stroke:#000000;stroke-width:0.5;" x="63.200861" xlink:href="#ma1ed7b2f82" y="166.948585"/>
      </g>
     </g>
     <g id="text_9">
      <!-- $\mathregular{-3×10^{-6}}$ -->
      <g transform="translate(22.420861 169.98796)scale(0.08 -0.08)">
       <use transform="translate(0 0.765625)" xlink:href="#DejaVuSans-8722"/>
       <use transform="translate(83.789062 0.765625)" xlink:href="#DejaVuSans-51"/>
       <use transform="translate(147.412109 0.765625)" xlink:href="#DejaVuSans-215"/>
       <use transform="translate(231.201172 0.765625)" xlink:href="#DejaVuSans-49"/>
       <use transform="translate(294.824219 0.765625)" xlink:href="#DejaVuSans-48"/>
       <use transform="translate(359.404297 39.046875)scale(0.7)" xlink:href="#DejaVuSans-8722"/>
       <use transform="translate(418.056641 39.046875)scale(0.7)" xlink:href="#DejaVuSans-54"/>
      </g>
     </g>
    </g>
    <g id="ytick_4">
     <g id="line2d_10">
      <g>
       <use style="stroke:#000000;stroke-width:0.5;" x="63.200861" xlink:href="#ma1ed7b2f82" y="126.884646"/>
      </g>
     </g>
     <g id="text_10">
      <!-- $\mathregular{-2×10^{-6}}$ -->
      <g transform="translate(22.420861 129.924021)scale(0.08 -0.08)">
       <use transform="translate(0 0.765625)" xlink:href="#DejaVuSans-8722"/>
       <use transform="translate(83.789062 0.765625)" xlink:href="#DejaVuSans-50"/>
       <use transform="translate(147.412109 0.765625)" xlink:href="#DejaVuSans-215"/>
       <use transform="translate(231.201172 0.765625)" xlink:href="#DejaVuSans-49"/>
       <use transform="translate(294.824219 0.765625)" xlink:href="#DejaVuSans-48"/>
       <use transform="translate(359.404297 39.046875)scale(0.7)" xlink:href="#DejaVuSans-8722"/>
       <use transform="translate(418.056641 39.046875)scale(0.7)" xlink:href="#DejaVuSans-54"/>
      </g>
     </g>
    </g>
    <g id="ytick_5">
     <g id="line2d_11">
      <g>
       <use style="stroke:#000000;stroke-width:0.5;" x="63.200861" xlink:href="#ma1ed7b2f82" y="86.820707"/>
      </g>
     </g>
     <g id="text_11">
      <!-- $\mathregular{-1×10^{-6}}$ -->
      <g transform="translate(22.420861 89.860082)scale(0.08 -0.08)">
       <use transform="translate(0 0.765625)" xlink:href="#DejaVuSans-8722"/>
       <use transform="translate(83.789062 0.765625)" xlink:href="#DejaVuSans-49"/>
       <use transform="translate(147.412109 0.765625)" xlink:href="#DejaVuSans-215"/>
       <use transform="translate(231.201172 0.765625)" xlink:href="#DejaVuSans-49"/>
       <use transform="translate(294.824219 0.765625)" xlink:href="#DejaVuSans-48"/>
       <use transform="translate(359.404297 39.046875)scale(0.7)" xlink:href="#DejaVuSans-8722"/>
       <use transform="translate(418.056641 39.046875)scale(0.7)" xlink:href="#DejaVuSans-54"/>
      </g>
     </g>
    </g>
    <g id="ytick_6">
     <g id="line2d_12">
      <g>
       <use style="stroke:#000000;stroke-width:0.5;" x="63.200861" xlink:href="#ma1ed7b2f82" y="46.756768"/>
      </g>
     </g>
     <g id="text_12">
      <!-- $\mathregular{0}$ -->
      <g transform="translate(54.580861 49.796143)scale(0.08 -0.08)">
       <use transform="translate(0 0.78125)" xlink:href="#DejaVuSans-48"/>
      </g>
     </g>
    </g>
    <g id="ytick_7">
     <g id="line2d_13">
      <g>
       <use style="stroke:#000000;stroke-width:0.5;" x="63.200861" xlink:href="#ma1ed7b2f82" y="6.692829"/>
      </g>
     </g>
     <g id="text_13">
      <!-- $\mathregular{1×10^{-6}}$ -->
      <g transform="translate(29.140861 9.732204)scale(0.08 -0.08)">
       <use transform="translate(0 0.765625)" xlink:href="#DejaVuSans-49"/>
       <use transform="translate(63.623047 0.765625)" xlink:href="#DejaVuSans-215"/>
       <use transform="translate(147.412109 0.765625)" xlink:href="#DejaVuSans-49"/>
       <use transform="translate(211.035156 0.765625)" xlink:href="#DejaVuSans-48"/>
       <use transform="translate(275.615234 39.046875)scale(0.7)" xlink:href="#DejaVuSans-8722"/>
       <use transform="translate(334.267578 39.046875)scale(0.7)" xlink:href="#DejaVuSans-54"/>
      </g>
     </g>
    </g>
    <g id="text_14">
     <!-- Rodriguez Parameter $\theta_y$ -->
     <g transform="translate(15.010861 196.868706)rotate(-90)scale(0.11 -0.11)">
      <defs>
       <path d="M 44.390625 34.1875 
Q 47.5625 33.109375 50.5625 29.59375 
Q 53.5625 26.078125 56.59375 19.921875 
L 66.609375 0 
L 56 0 
L 46.6875 18.703125 
Q 43.0625 26.03125 39.671875 28.421875 
Q 36.28125 30.8125 30.421875 30.8125 
L 19.671875 30.8125 
L 19.671875 0 
L 9.8125 0 
L 9.8125 72.90625 
L 32.078125 72.90625 
Q 44.578125 72.90625 50.734375 67.671875 
Q 56.890625 62.453125 56.890625 51.90625 
Q 56.890625 45.015625 53.6875 40.46875 
Q 50.484375 35.9375 44.390625 34.1875 
z
M 19.671875 64.796875 
L 19.671875 38.921875 
L 32.078125 38.921875 
Q 39.203125 38.921875 42.84375 42.21875 
Q 46.484375 45.515625 46.484375 51.90625 
Q 46.484375 58.296875 42.84375 61.546875 
Q 39.203125 64.796875 32.078125 64.796875 
z
" id="DejaVuSans-82"/>
       <path d="M 30.609375 48.390625 
Q 23.390625 48.390625 19.1875 42.75 
Q 14.984375 37.109375 14.984375 27.296875 
Q 14.984375 17.484375 19.15625 11.84375 
Q 23.34375 6.203125 30.609375 6.203125 
Q 37.796875 6.203125 41.984375 11.859375 
Q 46.1875 17.53125 46.1875 27.296875 
Q 46.1875 37.015625 41.984375 42.703125 
Q 37.796875 48.390625 30.609375 48.390625 
z
M 30.609375 56 
Q 42.328125 56 49.015625 48.375 
Q 55.71875 40.765625 55.71875 27.296875 
Q 55.71875 13.875 49.015625 6.21875 
Q 42.328125 -1.421875 30.609375 -1.421875 
Q 18.84375 -1.421875 12.171875 6.21875 
Q 5.515625 13.875 5.515625 27.296875 
Q 5.515625 40.765625 12.171875 48.375 
Q 18.84375 56 30.609375 56 
z
" id="DejaVuSans-111"/>
       <path d="M 45.40625 46.390625 
L 45.40625 75.984375 
L 54.390625 75.984375 
L 54.390625 0 
L 45.40625 0 
L 45.40625 8.203125 
Q 42.578125 3.328125 38.25 0.953125 
Q 33.9375 -1.421875 27.875 -1.421875 
Q 17.96875 -1.421875 11.734375 6.484375 
Q 5.515625 14.40625 5.515625 27.296875 
Q 5.515625 40.1875 11.734375 48.09375 
Q 17.96875 56 27.875 56 
Q 33.9375 56 38.25 53.625 
Q 42.578125 51.265625 45.40625 46.390625 
z
M 14.796875 27.296875 
Q 14.796875 17.390625 18.875 11.75 
Q 22.953125 6.109375 30.078125 6.109375 
Q 37.203125 6.109375 41.296875 11.75 
Q 45.40625 17.390625 45.40625 27.296875 
Q 45.40625 37.203125 41.296875 42.84375 
Q 37.203125 48.484375 30.078125 48.484375 
Q 22.953125 48.484375 18.875 42.84375 
Q 14.796875 37.203125 14.796875 27.296875 
z
" id="DejaVuSans-100"/>
       <path d="M 41.109375 46.296875 
Q 39.59375 47.171875 37.8125 47.578125 
Q 36.03125 48 33.890625 48 
Q 26.265625 48 22.1875 43.046875 
Q 18.109375 38.09375 18.109375 28.8125 
L 18.109375 0 
L 9.078125 0 
L 9.078125 54.6875 
L 18.109375 54.6875 
L 18.109375 46.1875 
Q 20.953125 51.171875 25.484375 53.578125 
Q 30.03125 56 36.53125 56 
Q 37.453125 56 38.578125 55.875 
Q 39.703125 55.765625 41.0625 55.515625 
z
" id="DejaVuSans-114"/>
       <path d="M 45.40625 27.984375 
Q 45.40625 37.75 41.375 43.109375 
Q 37.359375 48.484375 30.078125 48.484375 
Q 22.859375 48.484375 18.828125 43.109375 
Q 14.796875 37.75 14.796875 27.984375 
Q 14.796875 18.265625 18.828125 12.890625 
Q 22.859375 7.515625 30.078125 7.515625 
Q 37.359375 7.515625 41.375 12.890625 
Q 45.40625 18.265625 45.40625 27.984375 
z
M 54.390625 6.78125 
Q 54.390625 -7.171875 48.1875 -13.984375 
Q 42 -20.796875 29.203125 -20.796875 
Q 24.46875 -20.796875 20.265625 -20.09375 
Q 16.0625 -19.390625 12.109375 -17.921875 
L 12.109375 -9.1875 
Q 16.0625 -11.328125 19.921875 -12.34375 
Q 23.78125 -13.375 27.78125 -13.375 
Q 36.625 -13.375 41.015625 -8.765625 
Q 45.40625 -4.15625 45.40625 5.171875 
L 45.40625 9.625 
Q 42.625 4.78125 38.28125 2.390625 
Q 33.9375 0 27.875 0 
Q 17.828125 0 11.671875 7.65625 
Q 5.515625 15.328125 5.515625 27.984375 
Q 5.515625 40.671875 11.671875 48.328125 
Q 17.828125 56 27.875 56 
Q 33.9375 56 38.28125 53.609375 
Q 42.625 51.21875 45.40625 46.390625 
L 45.40625 54.6875 
L 54.390625 54.6875 
z
" id="DejaVuSans-103"/>
       <path d="M 8.5 21.578125 
L 8.5 54.6875 
L 17.484375 54.6875 
L 17.484375 21.921875 
Q 17.484375 14.15625 20.5 10.265625 
Q 23.53125 6.390625 29.59375 6.390625 
Q 36.859375 6.390625 41.078125 11.03125 
Q 45.3125 15.671875 45.3125 23.6875 
L 45.3125 54.6875 
L 54.296875 54.6875 
L 54.296875 0 
L 45.3125 0 
L 45.3125 8.40625 
Q 42.046875 3.421875 37.71875 1 
Q 33.40625 -1.421875 27.6875 -1.421875 
Q 18.265625 -1.421875 13.375 4.4375 
Q 8.5 10.296875 8.5 21.578125 
z
M 31.109375 56 
z
" id="DejaVuSans-117"/>
       <path d="M 5.515625 54.6875 
L 48.1875 54.6875 
L 48.1875 46.484375 
L 14.40625 7.171875 
L 48.1875 7.171875 
L 48.1875 0 
L 4.296875 0 
L 4.296875 8.203125 
L 38.09375 47.515625 
L 5.515625 47.515625 
z
" id="DejaVuSans-122"/>
       <path d="M 19.671875 64.796875 
L 19.671875 37.40625 
L 32.078125 37.40625 
Q 38.96875 37.40625 42.71875 40.96875 
Q 46.484375 44.53125 46.484375 51.125 
Q 46.484375 57.671875 42.71875 61.234375 
Q 38.96875 64.796875 32.078125 64.796875 
z
M 9.8125 72.90625 
L 32.078125 72.90625 
Q 44.34375 72.90625 50.609375 67.359375 
Q 56.890625 61.8125 56.890625 51.125 
Q 56.890625 40.328125 50.609375 34.8125 
Q 44.34375 29.296875 32.078125 29.296875 
L 19.671875 29.296875 
L 19.671875 0 
L 9.8125 0 
z
" id="DejaVuSans-80"/>
       <path d="M 34.28125 27.484375 
Q 23.390625 27.484375 19.1875 25 
Q 14.984375 22.515625 14.984375 16.5 
Q 14.984375 11.71875 18.140625 8.90625 
Q 21.296875 6.109375 26.703125 6.109375 
Q 34.1875 6.109375 38.703125 11.40625 
Q 43.21875 16.703125 43.21875 25.484375 
L 43.21875 27.484375 
z
M 52.203125 31.203125 
L 52.203125 0 
L 43.21875 0 
L 43.21875 8.296875 
Q 40.140625 3.328125 35.546875 0.953125 
Q 30.953125 -1.421875 24.3125 -1.421875 
Q 15.921875 -1.421875 10.953125 3.296875 
Q 6 8.015625 6 15.921875 
Q 6 25.140625 12.171875 29.828125 
Q 18.359375 34.515625 30.609375 34.515625 
L 43.21875 34.515625 
L 43.21875 35.40625 
Q 43.21875 41.609375 39.140625 45 
Q 35.0625 48.390625 27.6875 48.390625 
Q 23 48.390625 18.546875 47.265625 
Q 14.109375 46.140625 10.015625 43.890625 
L 10.015625 52.203125 
Q 14.9375 54.109375 19.578125 55.046875 
Q 24.21875 56 28.609375 56 
Q 40.484375 56 46.34375 49.84375 
Q 52.203125 43.703125 52.203125 31.203125 
z
" id="DejaVuSans-97"/>
       <path d="M 18.3125 70.21875 
L 18.3125 54.6875 
L 36.8125 54.6875 
L 36.8125 47.703125 
L 18.3125 47.703125 
L 18.3125 18.015625 
Q 18.3125 11.328125 20.140625 9.421875 
Q 21.96875 7.515625 27.59375 7.515625 
L 36.8125 7.515625 
L 36.8125 0 
L 27.59375 0 
Q 17.1875 0 13.234375 3.875 
Q 9.28125 7.765625 9.28125 18.015625 
L 9.28125 47.703125 
L 2.6875 47.703125 
L 2.6875 54.6875 
L 9.28125 54.6875 
L 9.28125 70.21875 
z
" id="DejaVuSans-116"/>
       <path d="M 45.515625 34.671875 
L 14.453125 34.671875 
Q 12.359375 20.0625 14.5 13.875 
Q 17.1875 6.25 24.46875 6.25 
Q 31.78125 6.25 37.359375 13.921875 
Q 42.234375 20.65625 45.515625 34.671875 
z
M 47.015625 42.96875 
Q 48.34375 56.84375 46.625 61.71875 
Q 43.953125 69.4375 36.765625 69.4375 
Q 29.296875 69.4375 23.828125 61.8125 
Q 19.53125 55.671875 16.15625 42.96875 
z
M 38.1875 76.765625 
Q 49.90625 76.765625 54.59375 66.40625 
Q 59.28125 56.109375 55.71875 37.84375 
Q 52.203125 19.625 43.453125 9.28125 
Q 34.765625 -1.125 23.046875 -1.125 
Q 11.28125 -1.125 6.640625 9.28125 
Q 2 19.625 5.515625 37.84375 
Q 9.078125 56.109375 17.71875 66.40625 
Q 26.421875 76.765625 38.1875 76.765625 
z
" id="DejaVuSans-Oblique-952"/>
       <path d="M 24.8125 -5.078125 
Q 18.5625 -15.578125 14.625 -18.1875 
Q 10.6875 -20.796875 4.59375 -20.796875 
L -2.484375 -20.796875 
L -0.984375 -13.28125 
L 4.203125 -13.28125 
Q 7.953125 -13.28125 10.59375 -11.234375 
Q 13.234375 -9.1875 16.5 -3.21875 
L 19.28125 2 
L 7.171875 54.6875 
L 16.703125 54.6875 
L 25.78125 12.796875 
L 50.875 54.6875 
L 60.296875 54.6875 
z
" id="DejaVuSans-Oblique-121"/>
      </defs>
      <use transform="translate(0 0.234375)" xlink:href="#DejaVuSans-82"/>
      <use transform="translate(69.482422 0.234375)" xlink:href="#DejaVuSans-111"/>
      <use transform="translate(130.664062 0.234375)" xlink:href="#DejaVuSans-100"/>
      <use transform="translate(194.140625 0.234375)" xlink:href="#DejaVuSans-114"/>
      <use transform="translate(235.253906 0.234375)" xlink:href="#DejaVuSans-105"/>
      <use transform="translate(263.037109 0.234375)" xlink:href="#DejaVuSans-103"/>
      <use transform="translate(326.513672 0.234375)" xlink:href="#DejaVuSans-117"/>
      <use transform="translate(389.892578 0.234375)" xlink:href="#DejaVuSans-101"/>
      <use transform="translate(451.416016 0.234375)" xlink:href="#DejaVuSans-122"/>
      <use transform="translate(503.90625 0.234375)" xlink:href="#DejaVuSans-32"/>
      <use transform="translate(535.693359 0.234375)" xlink:href="#DejaVuSans-80"/>
      <use transform="translate(595.996094 0.234375)" xlink:href="#DejaVuSans-97"/>
      <use transform="translate(657.275391 0.234375)" xlink:href="#DejaVuSans-114"/>
      <use transform="translate(698.388672 0.234375)" xlink:href="#DejaVuSans-97"/>
      <use transform="translate(759.667969 0.234375)" xlink:href="#DejaVuSans-109"/>
      <use transform="translate(857.080078 0.234375)" xlink:href="#DejaVuSans-101"/>
      <use transform="translate(918.603516 0.234375)" xlink:href="#DejaVuSans-116"/>
      <use transform="translate(957.8125 0.234375)" xlink:href="#DejaVuSans-101"/>
      <use transform="translate(1019.335938 0.234375)" xlink:href="#DejaVuSans-114"/>
      <use transform="translate(1060.449219 0.234375)" xlink:href="#DejaVuSans-32"/>
      <use transform="translate(1092.236328 0.234375)" xlink:href="#DejaVuSans-Oblique-952"/>
      <use transform="translate(1153.417969 -16.171875)scale(0.7)" xlink:href="#DejaVuSans-Oblique-121"/>
     </g>
    </g>
   </g>
   <g id="patch_3">
    <path d="M 63.200861 258.225354 
L 63.200861 3.732057 
" style="fill:none;stroke:#000000;stroke-linecap:square;stroke-linejoin:miter;"/>
   </g>
   <g id="patch_4">
    <path d="M 63.200861 258.225354 
L 419.805777 258.225354 
" style="fill:none;stroke:#000000;stroke-linecap:square;stroke-linejoin:miter;"/>
   </g>
  </g>
 </g>
 <defs>
  <clipPath id="p5666547ed1">
   <rect height="254.493297" width="356.604917" x="63.200861" y="3.732057"/>
  </clipPath>
 </defs>
</svg>
