<?xml version="1.0" encoding="utf-8" standalone="no"?>
<!DOCTYPE svg PUBLIC "-//W3C//DTD SVG 1.1//EN"
  "http://www.w3.org/Graphics/SVG/1.1/DTD/svg11.dtd">
<!-- Created with matplotlib (https://matplotlib.org/) -->
<svg height="288pt" version="1.1" viewBox="0 0 432 288" width="432pt" xmlns="http://www.w3.org/2000/svg" xmlns:xlink="http://www.w3.org/1999/xlink">
 <metadata>
  <rdf:RDF xmlns:cc="http://creativecommons.org/ns#" xmlns:dc="http://purl.org/dc/elements/1.1/" xmlns:rdf="http://www.w3.org/1999/02/22-rdf-syntax-ns#">
   <cc:Work>
    <dc:type rdf:resource="http://purl.org/dc/dcmitype/StillImage"/>
    <dc:date>2021-03-09T04:25:45.806711</dc:date>
    <dc:format>image/svg+xml</dc:format>
    <dc:creator>
     <cc:Agent>
      <dc:title>Matplotlib v3.3.4, https://matplotlib.org/</dc:title>
     </cc:Agent>
    </dc:creator>
   </cc:Work>
  </rdf:RDF>
 </metadata>
 <defs>
  <style type="text/css">*{stroke-linecap:butt;stroke-linejoin:round;}</style>
 </defs>
 <g id="figure_1">
  <g id="patch_1">
   <path d="M 0 288 
L 432 288 
L 432 0 
L 0 0 
z
" style="fill:#ffffff;"/>
  </g>
  <g id="axes_1">
   <g id="patch_2">
    <path d="M 44.790359 258.225354 
L 422.361999 258.225354 
L 422.361999 2.834646 
L 44.790359 2.834646 
z
" style="fill:#ffffff;"/>
   </g>
   <g id="line2d_1">
    <path clip-path="url(#p3ee356e69b)" d="M 44.790359 183.870905 
L 51.586649 183.77075 
L 54.22965 183.470107 
L 55.928722 183.063322 
L 57.439009 182.505094 
L 58.949296 181.728647 
L 60.837154 180.495157 
L 62.725012 179.012674 
L 64.61287 177.19094 
L 66.311943 175.249963 
L 72.919446 167.260656 
L 74.429733 166.030561 
L 75.562448 165.367119 
L 76.695163 164.984787 
L 77.827878 164.876072 
L 78.960592 164.967819 
L 80.470879 165.325977 
L 82.169951 165.981936 
L 83.680238 166.798807 
L 85.190525 167.884739 
L 86.889597 169.398197 
L 89.532598 172.132897 
L 91.798028 174.378309 
L 93.119529 175.38653 
L 94.252244 175.943602 
L 95.196173 176.175476 
L 96.140102 176.192479 
L 97.272817 175.97422 
L 99.915819 175.34646 
L 101.048533 175.364002 
L 101.992463 175.626874 
L 102.936392 176.179084 
L 103.880321 177.02905 
L 104.82425 178.188265 
L 105.768179 179.67603 
L 106.900894 181.899814 
L 108.222395 185.026339 
L 109.921467 189.679713 
L 112.753254 198.287695 
L 114.829898 204.393085 
L 115.962613 207.151842 
L 116.906542 208.890244 
L 117.661686 209.810959 
L 118.228043 210.169563 
L 118.794401 210.210322 
L 119.171972 210.049257 
L 119.73833 209.509079 
L 120.304687 208.610616 
L 121.05983 206.85069 
L 121.814974 204.447465 
L 122.758903 200.533023 
L 123.891618 194.622509 
L 125.213118 186.432478 
L 130.310336 153.309347 
L 131.631836 146.835971 
L 132.764551 142.278096 
L 133.897266 138.568409 
L 135.029981 135.592329 
L 135.97391 133.666248 
L 136.729053 132.530819 
L 137.484197 131.804555 
L 138.050554 131.541759 
L 138.616912 131.547071 
L 139.183269 131.82156 
L 139.749627 132.382595 
L 140.315984 133.245751 
L 141.071127 134.853301 
L 142.015056 137.532697 
L 143.147771 141.497448 
L 145.601987 151.239031 
L 146.923488 155.957884 
L 147.867417 158.620925 
L 148.62256 160.195195 
L 149.377703 161.221167 
L 149.944061 161.624623 
L 150.510418 161.741677 
L 151.076776 161.612451 
L 151.643133 161.281502 
L 152.587062 160.40176 
L 155.41885 157.399262 
L 156.362779 156.789272 
L 157.306708 156.445982 
L 158.250637 156.369298 
L 159.00578 156.507969 
L 159.949709 156.928429 
L 160.893638 157.601816 
L 161.837568 158.601374 
L 162.592711 159.70337 
L 163.347854 161.138622 
L 164.291783 163.489502 
L 165.235712 166.54465 
L 166.179641 170.409757 
L 167.312356 176.132437 
L 168.822643 185.12174 
L 171.65443 202.355055 
L 172.787145 207.885525 
L 173.731074 211.521306 
L 174.675003 214.246659 
L 175.430147 215.740126 
L 175.996504 216.436228 
L 176.562861 216.759121 
L 176.940433 216.760164 
L 177.318005 216.577041 
L 177.695576 216.208056 
L 178.261934 215.266319 
L 178.828291 213.824568 
L 179.394649 211.82409 
L 180.149792 208.22141 
L 180.904935 203.500822 
L 181.848864 196.00771 
L 182.792794 186.750832 
L 183.925508 173.468645 
L 185.624581 150.550891 
L 187.890011 120.306811 
L 189.211511 105.683041 
L 190.344226 95.554703 
L 191.476941 87.462758 
L 192.609656 81.026226 
L 193.742371 75.852129 
L 195.063872 70.856625 
L 196.196587 67.244126 
L 196.95173 65.424752 
L 197.518088 64.591895 
L 197.895659 64.378954 
L 198.273231 64.476709 
L 198.650802 64.92005 
L 199.028374 65.731145 
L 199.594732 67.657947 
L 200.161089 70.451599 
L 200.916232 75.458412 
L 201.860161 83.513507 
L 203.370448 98.873931 
L 205.447092 119.638568 
L 211.677024 177.367554 
L 212.432167 181.702185 
L 212.998525 183.935227 
L 213.564882 185.282601 
L 213.942454 185.700804 
L 214.320025 185.753289 
L 214.697597 185.455076 
L 215.075169 184.82647 
L 215.641526 183.297538 
L 216.39667 180.290511 
L 217.340599 175.337657 
L 219.9836 160.437625 
L 220.738743 157.684588 
L 221.305101 156.377956 
L 221.871458 155.713384 
L 222.24903 155.59418 
L 222.626602 155.685726 
L 223.192959 156.103736 
L 225.080817 157.952256 
L 225.647175 158.1328 
L 226.213532 158.002115 
L 226.77989 157.543853 
L 227.535033 156.566839 
L 228.856534 154.76869 
L 229.422891 154.325258 
L 229.989249 154.206996 
L 230.36682 154.329138 
L 230.933178 154.817072 
L 231.499535 155.666783 
L 232.065893 156.909988 
L 232.821036 159.232511 
L 233.576179 162.361248 
L 234.520108 167.351058 
L 235.652823 174.646718 
L 237.918253 189.739991 
L 238.673396 193.026761 
L 239.239754 194.587274 
L 239.806111 195.470119 
L 240.372469 195.838532 
L 240.938826 195.834374 
L 241.505184 195.565527 
L 242.260327 194.926698 
L 243.581828 193.499351 
L 244.148185 192.624576 
L 244.714543 191.245699 
L 245.2809 189.045297 
L 245.847257 185.800407 
L 246.602401 179.779395 
L 247.54633 169.828711 
L 248.679045 155.031455 
L 251.510832 115.701377 
L 252.454761 106.196678 
L 253.39869 98.603509 
L 254.342619 92.602233 
L 255.475334 87.049685 
L 256.419263 82.438069 
L 257.174407 77.526204 
L 257.92955 71.103978 
L 260.761337 44.973928 
L 261.516481 40.581098 
L 262.082838 38.373206 
L 262.46041 37.45195 
L 262.837981 37.003703 
L 263.026767 36.96988 
L 263.215553 37.067043 
L 263.593125 37.664532 
L 263.970696 38.824552 
L 264.537054 41.58454 
L 265.292197 46.789001 
L 267.746413 65.364865 
L 269.256699 74.382253 
L 270.766986 83.240232 
L 271.522129 89.124506 
L 272.277272 96.937481 
L 273.032416 106.924697 
L 273.976345 122.318361 
L 275.297845 148.022889 
L 277.752061 196.773267 
L 278.69599 210.821424 
L 279.451133 219.068639 
L 280.017491 223.294974 
L 280.395063 225.096577 
L 280.772634 226.032705 
L 280.96142 226.162681 
L 281.150206 226.070549 
L 281.527777 225.241848 
L 281.905349 223.579068 
L 282.471707 219.716212 
L 283.22685 212.649304 
L 286.058637 183.526128 
L 286.81378 178.233496 
L 287.380138 175.514284 
L 287.75771 174.3722 
L 288.135281 173.759101 
L 288.512853 173.632062 
L 288.890424 173.916105 
L 289.456782 174.79057 
L 290.023139 175.682036 
L 290.400711 175.96363 
L 290.589497 175.946381 
L 290.778283 175.795873 
L 291.155854 175.013792 
L 291.533426 173.500244 
L 291.910998 171.182556 
L 292.477355 166.125818 
L 293.232498 156.749379 
L 295.8755 119.995562 
L 296.441857 115.897648 
L 296.819429 114.428178 
L 297.008215 114.082679 
L 297.197001 113.99422 
L 297.385786 114.155017 
L 297.763358 115.178131 
L 298.14093 117.034191 
L 298.896073 122.479853 
L 300.217574 132.468006 
L 300.783931 134.929197 
L 301.161503 135.638889 
L 301.350289 135.720663 
L 301.539074 135.631991 
L 301.916646 135.005484 
L 302.483003 133.248314 
L 303.615718 129.419697 
L 303.99329 128.974118 
L 304.182076 129.045089 
L 304.370862 129.336392 
L 304.748433 130.613704 
L 305.126005 132.825925 
L 305.692362 137.682979 
L 306.636292 148.524823 
L 308.335364 171.354388 
L 310.412008 199.531026 
L 311.355937 209.071902 
L 312.11108 214.322396 
L 312.677438 216.875356 
L 313.055009 217.921541 
L 313.432581 218.408225 
L 313.621367 218.436035 
L 313.810153 218.315887 
L 314.187724 217.618074 
L 314.565296 216.333191 
L 315.131653 213.486219 
L 317.019512 202.304354 
L 317.585869 200.698545 
L 317.963441 200.243831 
L 318.341012 200.163677 
L 318.90737 200.412338 
L 319.473727 200.6704 
L 319.851299 200.620751 
L 320.228871 200.325957 
L 320.606442 199.770649 
L 321.1728 198.422935 
L 321.739157 196.333878 
L 322.305515 193.091728 
L 322.871872 188.265833 
L 323.627015 179.165207 
L 325.703659 151.300565 
L 326.458803 144.668164 
L 327.213946 139.672756 
L 328.913018 130.21996 
L 329.668162 123.704578 
L 331.178448 110.071369 
L 331.744806 107.072503 
L 332.122377 106.025841 
L 332.499949 105.675922 
L 332.688735 105.715792 
L 333.066306 106.116272 
L 333.632664 107.288458 
L 334.387807 109.548814 
L 335.331736 112.391324 
L 335.898094 113.407378 
L 336.275665 113.738097 
L 336.653237 113.8386 
L 337.030809 113.713635 
L 337.597166 113.210004 
L 338.352309 112.574001 
L 338.729881 112.539912 
L 339.107453 112.788714 
L 339.485024 113.436279 
L 339.862596 114.743164 
L 340.240167 116.975266 
L 340.806525 122.419068 
L 341.561668 133.333924 
L 344.582241 182.405879 
L 347.225243 220.67872 
L 347.980386 227.408046 
L 348.546744 230.785458 
L 349.113101 232.957096 
L 349.490673 233.869918 
L 349.868244 234.264577 
L 350.05703 234.226326 
L 350.245816 234.009403 
L 350.623388 233.01413 
L 351.189745 230.380536 
L 352.32246 224.577961 
L 352.700032 223.865103 
L 352.888817 223.990492 
L 353.077603 224.487653 
L 353.455175 226.636728 
L 354.021532 232.184332 
L 355.154247 244.564989 
L 355.720605 248.595168 
L 356.098176 250.253337 
L 356.475748 250.997315 
L 356.664534 250.980289 
L 356.85332 250.687831 
L 357.230891 249.26516 
L 357.608463 246.7986 
L 358.17482 241.626006 
L 358.929964 232.410197 
L 360.062679 214.431641 
L 360.817822 203.594558 
L 361.384179 198.210613 
L 361.761751 196.548167 
L 361.950537 196.307583 
L 362.139323 196.411553 
L 362.516894 197.436417 
L 363.838395 202.5464 
L 364.027181 202.759516 
L 364.215967 202.76784 
L 364.593538 202.245061 
L 365.726253 199.86233 
L 366.292611 198.737091 
L 366.670182 197.586918 
L 367.23654 194.947685 
L 367.802897 190.751458 
L 368.558041 182.427764 
L 370.257113 162.117092 
L 372.522543 138.527469 
L 373.0889 133.822124 
L 373.466472 132.011038 
L 373.655258 131.583601 
L 373.844043 131.462933 
L 374.032829 131.614751 
L 374.410401 132.520737 
L 375.165544 135.372428 
L 375.920687 139.154707 
L 376.675831 144.510728 
L 377.61976 153.411202 
L 378.941261 166.322775 
L 379.88519 172.97211 
L 380.640333 177.067347 
L 381.395476 179.940179 
L 381.961834 181.345914 
L 382.528191 182.181118 
L 383.47212 183.255644 
L 383.849692 184.102379 
L 384.227264 185.760373 
L 384.604835 188.567734 
L 385.359978 196.609478 
L 387.625408 220.759847 
L 389.513267 236.174189 
L 389.890838 237.374395 
L 390.26841 237.898767 
L 390.457196 237.920391 
L 390.645981 237.78008 
L 391.023553 237.006715 
L 391.967482 234.1319 
L 392.345054 233.641426 
L 392.911411 233.392089 
L 393.666555 233.056809 
L 394.421698 232.523013 
L 394.799269 231.965133 
L 396.309556 228.716291 
L 397.253485 226.556891 
L 397.631057 225.409723 
L 398.008628 223.516484 
L 398.3862 220.442665 
L 398.952558 213.648978 
L 399.707701 201.06968 
L 401.595559 162.570448 
L 404.616132 100.530966 
L 405.371275 92.126783 
L 407.636705 68.328574 
L 408.76942 56.311739 
L 409.713349 47.539786 
L 411.978779 24.024145 
L 412.545137 20.231832 
L 413.111494 17.668417 
L 414.432995 12.298123 
L 414.810566 10.862281 
L 415.188138 10.161879 
L 415.376924 10.062685 
L 415.56571 10.097677 
L 415.943281 10.544949 
L 416.320853 11.535278 
L 416.698425 13.268797 
L 417.264782 17.270174 
L 419.15264 33.144579 
L 419.907784 41.855989 
L 421.040498 55.702886 
L 421.606856 60.535537 
L 421.984428 62.591605 
L 422.361999 63.405733 
L 422.361999 63.405733 
" style="fill:none;stroke:#009afa;"/>
   </g>
   <g id="matplotlib.axis_1">
    <g id="xtick_1">
     <g id="line2d_2">
      <defs>
       <path d="M 0 0 
L 0 -2.5 
" id="mf6fc336d02" style="stroke:#000000;stroke-width:0.5;"/>
      </defs>
      <g>
       <use style="stroke:#000000;stroke-width:0.5;" x="44.790359" xlink:href="#mf6fc336d02" y="258.225354"/>
      </g>
     </g>
     <g id="text_1">
      <!-- $\mathregular{0.0}$ -->
      <g transform="translate(38.390359 267.804104)scale(0.08 -0.08)">
       <defs>
        <path d="M 31.78125 66.40625 
Q 24.171875 66.40625 20.328125 58.90625 
Q 16.5 51.421875 16.5 36.375 
Q 16.5 21.390625 20.328125 13.890625 
Q 24.171875 6.390625 31.78125 6.390625 
Q 39.453125 6.390625 43.28125 13.890625 
Q 47.125 21.390625 47.125 36.375 
Q 47.125 51.421875 43.28125 58.90625 
Q 39.453125 66.40625 31.78125 66.40625 
z
M 31.78125 74.21875 
Q 44.046875 74.21875 50.515625 64.515625 
Q 56.984375 54.828125 56.984375 36.375 
Q 56.984375 17.96875 50.515625 8.265625 
Q 44.046875 -1.421875 31.78125 -1.421875 
Q 19.53125 -1.421875 13.0625 8.265625 
Q 6.59375 17.96875 6.59375 36.375 
Q 6.59375 54.828125 13.0625 64.515625 
Q 19.53125 74.21875 31.78125 74.21875 
z
" id="DejaVuSans-48"/>
        <path d="M 10.6875 12.40625 
L 21 12.40625 
L 21 0 
L 10.6875 0 
z
" id="DejaVuSans-46"/>
       </defs>
       <use transform="translate(0 0.78125)" xlink:href="#DejaVuSans-48"/>
       <use transform="translate(63.623047 0.78125)" xlink:href="#DejaVuSans-46"/>
       <use transform="translate(95.410156 0.78125)" xlink:href="#DejaVuSans-48"/>
      </g>
     </g>
    </g>
    <g id="xtick_2">
     <g id="line2d_3">
      <g>
       <use style="stroke:#000000;stroke-width:0.5;" x="139.183269" xlink:href="#mf6fc336d02" y="258.225354"/>
      </g>
     </g>
     <g id="text_2">
      <!-- $\mathregular{0.5}$ -->
      <g transform="translate(132.783269 267.804104)scale(0.08 -0.08)">
       <defs>
        <path d="M 10.796875 72.90625 
L 49.515625 72.90625 
L 49.515625 64.59375 
L 19.828125 64.59375 
L 19.828125 46.734375 
Q 21.96875 47.46875 24.109375 47.828125 
Q 26.265625 48.1875 28.421875 48.1875 
Q 40.625 48.1875 47.75 41.5 
Q 54.890625 34.8125 54.890625 23.390625 
Q 54.890625 11.625 47.5625 5.09375 
Q 40.234375 -1.421875 26.90625 -1.421875 
Q 22.3125 -1.421875 17.546875 -0.640625 
Q 12.796875 0.140625 7.71875 1.703125 
L 7.71875 11.625 
Q 12.109375 9.234375 16.796875 8.0625 
Q 21.484375 6.890625 26.703125 6.890625 
Q 35.15625 6.890625 40.078125 11.328125 
Q 45.015625 15.765625 45.015625 23.390625 
Q 45.015625 31 40.078125 35.4375 
Q 35.15625 39.890625 26.703125 39.890625 
Q 22.75 39.890625 18.8125 39.015625 
Q 14.890625 38.140625 10.796875 36.28125 
z
" id="DejaVuSans-53"/>
       </defs>
       <use transform="translate(0 0.78125)" xlink:href="#DejaVuSans-48"/>
       <use transform="translate(63.623047 0.78125)" xlink:href="#DejaVuSans-46"/>
       <use transform="translate(95.410156 0.78125)" xlink:href="#DejaVuSans-53"/>
      </g>
     </g>
    </g>
    <g id="xtick_3">
     <g id="line2d_4">
      <g>
       <use style="stroke:#000000;stroke-width:0.5;" x="233.576179" xlink:href="#mf6fc336d02" y="258.225354"/>
      </g>
     </g>
     <g id="text_3">
      <!-- $\mathregular{1.0}$ -->
      <g transform="translate(227.176179 267.804104)scale(0.08 -0.08)">
       <defs>
        <path d="M 12.40625 8.296875 
L 28.515625 8.296875 
L 28.515625 63.921875 
L 10.984375 60.40625 
L 10.984375 69.390625 
L 28.421875 72.90625 
L 38.28125 72.90625 
L 38.28125 8.296875 
L 54.390625 8.296875 
L 54.390625 0 
L 12.40625 0 
z
" id="DejaVuSans-49"/>
       </defs>
       <use transform="translate(0 0.78125)" xlink:href="#DejaVuSans-49"/>
       <use transform="translate(63.623047 0.78125)" xlink:href="#DejaVuSans-46"/>
       <use transform="translate(95.410156 0.78125)" xlink:href="#DejaVuSans-48"/>
      </g>
     </g>
    </g>
    <g id="xtick_4">
     <g id="line2d_5">
      <g>
       <use style="stroke:#000000;stroke-width:0.5;" x="327.969089" xlink:href="#mf6fc336d02" y="258.225354"/>
      </g>
     </g>
     <g id="text_4">
      <!-- $\mathregular{1.5}$ -->
      <g transform="translate(321.569089 267.804104)scale(0.08 -0.08)">
       <use transform="translate(0 0.09375)" xlink:href="#DejaVuSans-49"/>
       <use transform="translate(63.623047 0.09375)" xlink:href="#DejaVuSans-46"/>
       <use transform="translate(95.410156 0.09375)" xlink:href="#DejaVuSans-53"/>
      </g>
     </g>
    </g>
    <g id="xtick_5">
     <g id="line2d_6">
      <g>
       <use style="stroke:#000000;stroke-width:0.5;" x="422.361999" xlink:href="#mf6fc336d02" y="258.225354"/>
      </g>
     </g>
     <g id="text_5">
      <!-- $\mathregular{2.0}$ -->
      <g transform="translate(415.961999 267.804104)scale(0.08 -0.08)">
       <defs>
        <path d="M 19.1875 8.296875 
L 53.609375 8.296875 
L 53.609375 0 
L 7.328125 0 
L 7.328125 8.296875 
Q 12.9375 14.109375 22.625 23.890625 
Q 32.328125 33.6875 34.8125 36.53125 
Q 39.546875 41.84375 41.421875 45.53125 
Q 43.3125 49.21875 43.3125 52.78125 
Q 43.3125 58.59375 39.234375 62.25 
Q 35.15625 65.921875 28.609375 65.921875 
Q 23.96875 65.921875 18.8125 64.3125 
Q 13.671875 62.703125 7.8125 59.421875 
L 7.8125 69.390625 
Q 13.765625 71.78125 18.9375 73 
Q 24.125 74.21875 28.421875 74.21875 
Q 39.75 74.21875 46.484375 68.546875 
Q 53.21875 62.890625 53.21875 53.421875 
Q 53.21875 48.921875 51.53125 44.890625 
Q 49.859375 40.875 45.40625 35.40625 
Q 44.1875 33.984375 37.640625 27.21875 
Q 31.109375 20.453125 19.1875 8.296875 
z
" id="DejaVuSans-50"/>
       </defs>
       <use transform="translate(0 0.78125)" xlink:href="#DejaVuSans-50"/>
       <use transform="translate(63.623047 0.78125)" xlink:href="#DejaVuSans-46"/>
       <use transform="translate(95.410156 0.78125)" xlink:href="#DejaVuSans-48"/>
      </g>
     </g>
    </g>
    <g id="text_6">
     <!-- Time (s) -->
     <g transform="translate(211.214382 281.826136)scale(0.11 -0.11)">
      <defs>
       <path d="M -0.296875 72.90625 
L 61.375 72.90625 
L 61.375 64.59375 
L 35.5 64.59375 
L 35.5 0 
L 25.59375 0 
L 25.59375 64.59375 
L -0.296875 64.59375 
z
" id="DejaVuSans-84"/>
       <path d="M 9.421875 54.6875 
L 18.40625 54.6875 
L 18.40625 0 
L 9.421875 0 
z
M 9.421875 75.984375 
L 18.40625 75.984375 
L 18.40625 64.59375 
L 9.421875 64.59375 
z
" id="DejaVuSans-105"/>
       <path d="M 52 44.1875 
Q 55.375 50.25 60.0625 53.125 
Q 64.75 56 71.09375 56 
Q 79.640625 56 84.28125 50.015625 
Q 88.921875 44.046875 88.921875 33.015625 
L 88.921875 0 
L 79.890625 0 
L 79.890625 32.71875 
Q 79.890625 40.578125 77.09375 44.375 
Q 74.3125 48.1875 68.609375 48.1875 
Q 61.625 48.1875 57.5625 43.546875 
Q 53.515625 38.921875 53.515625 30.90625 
L 53.515625 0 
L 44.484375 0 
L 44.484375 32.71875 
Q 44.484375 40.625 41.703125 44.40625 
Q 38.921875 48.1875 33.109375 48.1875 
Q 26.21875 48.1875 22.15625 43.53125 
Q 18.109375 38.875 18.109375 30.90625 
L 18.109375 0 
L 9.078125 0 
L 9.078125 54.6875 
L 18.109375 54.6875 
L 18.109375 46.1875 
Q 21.1875 51.21875 25.484375 53.609375 
Q 29.78125 56 35.6875 56 
Q 41.65625 56 45.828125 52.96875 
Q 50 49.953125 52 44.1875 
z
" id="DejaVuSans-109"/>
       <path d="M 56.203125 29.59375 
L 56.203125 25.203125 
L 14.890625 25.203125 
Q 15.484375 15.921875 20.484375 11.0625 
Q 25.484375 6.203125 34.421875 6.203125 
Q 39.59375 6.203125 44.453125 7.46875 
Q 49.3125 8.734375 54.109375 11.28125 
L 54.109375 2.78125 
Q 49.265625 0.734375 44.1875 -0.34375 
Q 39.109375 -1.421875 33.890625 -1.421875 
Q 20.796875 -1.421875 13.15625 6.1875 
Q 5.515625 13.8125 5.515625 26.8125 
Q 5.515625 40.234375 12.765625 48.109375 
Q 20.015625 56 32.328125 56 
Q 43.359375 56 49.78125 48.890625 
Q 56.203125 41.796875 56.203125 29.59375 
z
M 47.21875 32.234375 
Q 47.125 39.59375 43.09375 43.984375 
Q 39.0625 48.390625 32.421875 48.390625 
Q 24.90625 48.390625 20.390625 44.140625 
Q 15.875 39.890625 15.1875 32.171875 
z
" id="DejaVuSans-101"/>
       <path id="DejaVuSans-32"/>
       <path d="M 31 75.875 
Q 24.46875 64.65625 21.28125 53.65625 
Q 18.109375 42.671875 18.109375 31.390625 
Q 18.109375 20.125 21.3125 9.0625 
Q 24.515625 -2 31 -13.1875 
L 23.1875 -13.1875 
Q 15.875 -1.703125 12.234375 9.375 
Q 8.59375 20.453125 8.59375 31.390625 
Q 8.59375 42.28125 12.203125 53.3125 
Q 15.828125 64.359375 23.1875 75.875 
z
" id="DejaVuSans-40"/>
       <path d="M 44.28125 53.078125 
L 44.28125 44.578125 
Q 40.484375 46.53125 36.375 47.5 
Q 32.28125 48.484375 27.875 48.484375 
Q 21.1875 48.484375 17.84375 46.4375 
Q 14.5 44.390625 14.5 40.28125 
Q 14.5 37.15625 16.890625 35.375 
Q 19.28125 33.59375 26.515625 31.984375 
L 29.59375 31.296875 
Q 39.15625 29.25 43.1875 25.515625 
Q 47.21875 21.78125 47.21875 15.09375 
Q 47.21875 7.46875 41.1875 3.015625 
Q 35.15625 -1.421875 24.609375 -1.421875 
Q 20.21875 -1.421875 15.453125 -0.5625 
Q 10.6875 0.296875 5.421875 2 
L 5.421875 11.28125 
Q 10.40625 8.6875 15.234375 7.390625 
Q 20.0625 6.109375 24.8125 6.109375 
Q 31.15625 6.109375 34.5625 8.28125 
Q 37.984375 10.453125 37.984375 14.40625 
Q 37.984375 18.0625 35.515625 20.015625 
Q 33.0625 21.96875 24.703125 23.78125 
L 21.578125 24.515625 
Q 13.234375 26.265625 9.515625 29.90625 
Q 5.8125 33.546875 5.8125 39.890625 
Q 5.8125 47.609375 11.28125 51.796875 
Q 16.75 56 26.8125 56 
Q 31.78125 56 36.171875 55.265625 
Q 40.578125 54.546875 44.28125 53.078125 
z
" id="DejaVuSans-115"/>
       <path d="M 8.015625 75.875 
L 15.828125 75.875 
Q 23.140625 64.359375 26.78125 53.3125 
Q 30.421875 42.28125 30.421875 31.390625 
Q 30.421875 20.453125 26.78125 9.375 
Q 23.140625 -1.703125 15.828125 -13.1875 
L 8.015625 -13.1875 
Q 14.5 -2 17.703125 9.0625 
Q 20.90625 20.125 20.90625 31.390625 
Q 20.90625 42.671875 17.703125 53.65625 
Q 14.5 64.65625 8.015625 75.875 
z
" id="DejaVuSans-41"/>
      </defs>
      <use xlink:href="#DejaVuSans-84"/>
      <use x="57.958984" xlink:href="#DejaVuSans-105"/>
      <use x="85.742188" xlink:href="#DejaVuSans-109"/>
      <use x="183.154297" xlink:href="#DejaVuSans-101"/>
      <use x="244.677734" xlink:href="#DejaVuSans-32"/>
      <use x="276.464844" xlink:href="#DejaVuSans-40"/>
      <use x="315.478516" xlink:href="#DejaVuSans-115"/>
      <use x="367.578125" xlink:href="#DejaVuSans-41"/>
     </g>
    </g>
   </g>
   <g id="matplotlib.axis_2">
    <g id="ytick_1">
     <g id="line2d_7">
      <defs>
       <path d="M 0 0 
L 2.5 0 
" id="m05919b7cb8" style="stroke:#000000;stroke-width:0.5;"/>
      </defs>
      <g>
       <use style="stroke:#000000;stroke-width:0.5;" x="44.790359" xlink:href="#m05919b7cb8" y="244.700758"/>
      </g>
     </g>
     <g id="text_7">
      <!-- $\mathregular{-0.2}$ -->
      <g transform="translate(22.250359 247.740133)scale(0.08 -0.08)">
       <defs>
        <path d="M 10.59375 35.5 
L 73.1875 35.5 
L 73.1875 27.203125 
L 10.59375 27.203125 
z
" id="DejaVuSans-8722"/>
       </defs>
       <use transform="translate(0 0.78125)" xlink:href="#DejaVuSans-8722"/>
       <use transform="translate(83.789062 0.78125)" xlink:href="#DejaVuSans-48"/>
       <use transform="translate(147.412109 0.78125)" xlink:href="#DejaVuSans-46"/>
       <use transform="translate(173.699219 0.78125)" xlink:href="#DejaVuSans-50"/>
      </g>
     </g>
    </g>
    <g id="ytick_2">
     <g id="line2d_8">
      <g>
       <use style="stroke:#000000;stroke-width:0.5;" x="44.790359" xlink:href="#m05919b7cb8" y="183.870905"/>
      </g>
     </g>
     <g id="text_8">
      <!-- $\mathregular{0.0}$ -->
      <g transform="translate(28.490359 186.91028)scale(0.08 -0.08)">
       <use transform="translate(0 0.78125)" xlink:href="#DejaVuSans-48"/>
       <use transform="translate(63.623047 0.78125)" xlink:href="#DejaVuSans-46"/>
       <use transform="translate(95.410156 0.78125)" xlink:href="#DejaVuSans-48"/>
      </g>
     </g>
    </g>
    <g id="ytick_3">
     <g id="line2d_9">
      <g>
       <use style="stroke:#000000;stroke-width:0.5;" x="44.790359" xlink:href="#m05919b7cb8" y="123.041051"/>
      </g>
     </g>
     <g id="text_9">
      <!-- $\mathregular{0.2}$ -->
      <g transform="translate(28.970359 126.080426)scale(0.08 -0.08)">
       <use transform="translate(0 0.78125)" xlink:href="#DejaVuSans-48"/>
       <use transform="translate(63.623047 0.78125)" xlink:href="#DejaVuSans-46"/>
       <use transform="translate(89.910156 0.78125)" xlink:href="#DejaVuSans-50"/>
      </g>
     </g>
    </g>
    <g id="ytick_4">
     <g id="line2d_10">
      <g>
       <use style="stroke:#000000;stroke-width:0.5;" x="44.790359" xlink:href="#m05919b7cb8" y="62.211198"/>
      </g>
     </g>
     <g id="text_10">
      <!-- $\mathregular{0.4}$ -->
      <g transform="translate(28.490359 65.250573)scale(0.08 -0.08)">
       <defs>
        <path d="M 37.796875 64.3125 
L 12.890625 25.390625 
L 37.796875 25.390625 
z
M 35.203125 72.90625 
L 47.609375 72.90625 
L 47.609375 25.390625 
L 58.015625 25.390625 
L 58.015625 17.1875 
L 47.609375 17.1875 
L 47.609375 0 
L 37.796875 0 
L 37.796875 17.1875 
L 4.890625 17.1875 
L 4.890625 26.703125 
z
" id="DejaVuSans-52"/>
       </defs>
       <use transform="translate(0 0.78125)" xlink:href="#DejaVuSans-48"/>
       <use transform="translate(63.623047 0.78125)" xlink:href="#DejaVuSans-46"/>
       <use transform="translate(95.410156 0.78125)" xlink:href="#DejaVuSans-52"/>
      </g>
     </g>
    </g>
    <g id="text_11">
     <!-- $u_y$ ($m$) -->
     <g transform="translate(14.840359 147.855)rotate(-90)scale(0.11 -0.11)">
      <defs>
       <path d="M 6.6875 21.6875 
L 13.09375 54.6875 
L 22.125 54.6875 
L 15.71875 22.015625 
Q 15.234375 19.625 15.015625 17.921875 
Q 14.796875 16.21875 14.796875 15.09375 
Q 14.796875 10.9375 17.328125 8.65625 
Q 19.875 6.390625 24.515625 6.390625 
Q 31.734375 6.390625 37 11.265625 
Q 42.28125 16.15625 43.890625 24.421875 
L 49.90625 54.6875 
L 58.890625 54.6875 
L 48.296875 0 
L 39.3125 0 
L 41.109375 8.59375 
Q 37.3125 3.8125 32.0625 1.1875 
Q 26.8125 -1.421875 20.90625 -1.421875 
Q 13.71875 -1.421875 9.71875 2.515625 
Q 5.71875 6.453125 5.71875 13.484375 
Q 5.71875 14.9375 5.953125 17.140625 
Q 6.203125 19.34375 6.6875 21.6875 
z
" id="DejaVuSans-Oblique-117"/>
       <path d="M 24.8125 -5.078125 
Q 18.5625 -15.578125 14.625 -18.1875 
Q 10.6875 -20.796875 4.59375 -20.796875 
L -2.484375 -20.796875 
L -0.984375 -13.28125 
L 4.203125 -13.28125 
Q 7.953125 -13.28125 10.59375 -11.234375 
Q 13.234375 -9.1875 16.5 -3.21875 
L 19.28125 2 
L 7.171875 54.6875 
L 16.703125 54.6875 
L 25.78125 12.796875 
L 50.875 54.6875 
L 60.296875 54.6875 
z
" id="DejaVuSans-Oblique-121"/>
       <path d="M 89.796875 33.015625 
L 83.40625 0 
L 74.421875 0 
L 80.71875 32.71875 
Q 81.109375 34.8125 81.296875 36.328125 
Q 81.5 37.84375 81.5 38.921875 
Q 81.5 43.3125 79.046875 45.75 
Q 76.609375 48.1875 72.21875 48.1875 
Q 65.671875 48.1875 60.546875 43.28125 
Q 55.421875 38.375 53.90625 30.515625 
L 47.90625 0 
L 38.921875 0 
L 45.3125 32.71875 
Q 45.703125 34.515625 45.890625 36.046875 
Q 46.09375 37.59375 46.09375 38.8125 
Q 46.09375 43.265625 43.65625 45.71875 
Q 41.21875 48.1875 36.921875 48.1875 
Q 30.28125 48.1875 25.140625 43.28125 
Q 20.015625 38.375 18.5 30.515625 
L 12.5 0 
L 3.515625 0 
L 14.203125 54.6875 
L 23.1875 54.6875 
L 21.484375 46.1875 
Q 25.140625 50.984375 30.046875 53.484375 
Q 34.96875 56 40.578125 56 
Q 46.53125 56 50.359375 52.875 
Q 54.203125 49.75 54.984375 44.1875 
Q 59.078125 49.953125 64.46875 52.96875 
Q 69.875 56 75.875 56 
Q 82.90625 56 86.734375 51.953125 
Q 90.578125 47.90625 90.578125 40.484375 
Q 90.578125 38.875 90.375 36.9375 
Q 90.1875 35.015625 89.796875 33.015625 
z
" id="DejaVuSans-Oblique-109"/>
      </defs>
      <use transform="translate(0 0.125)" xlink:href="#DejaVuSans-Oblique-117"/>
      <use transform="translate(63.378906 -16.28125)scale(0.7)" xlink:href="#DejaVuSans-Oblique-121"/>
      <use transform="translate(107.539062 0.125)" xlink:href="#DejaVuSans-32"/>
      <use transform="translate(139.326172 0.125)" xlink:href="#DejaVuSans-40"/>
      <use transform="translate(178.339844 0.125)" xlink:href="#DejaVuSans-Oblique-109"/>
      <use transform="translate(275.751953 0.125)" xlink:href="#DejaVuSans-41"/>
     </g>
    </g>
   </g>
   <g id="patch_3">
    <path d="M 44.790359 258.225354 
L 44.790359 2.834646 
" style="fill:none;stroke:#000000;stroke-linecap:square;stroke-linejoin:miter;"/>
   </g>
   <g id="patch_4">
    <path d="M 44.790359 258.225354 
L 422.361999 258.225354 
" style="fill:none;stroke:#000000;stroke-linecap:square;stroke-linejoin:miter;"/>
   </g>
  </g>
 </g>
 <defs>
  <clipPath id="p3ee356e69b">
   <rect height="255.390709" width="377.57164" x="44.790359" y="2.834646"/>
  </clipPath>
 </defs>
</svg>
