<?xml version="1.0" encoding="utf-8" standalone="no"?>
<!DOCTYPE svg PUBLIC "-//W3C//DTD SVG 1.1//EN"
  "http://www.w3.org/Graphics/SVG/1.1/DTD/svg11.dtd">
<svg height="288pt" version="1.1" viewBox="0 0 432 288" width="432pt" xmlns="http://www.w3.org/2000/svg" xmlns:xlink="http://www.w3.org/1999/xlink">
 <metadata>
  <rdf:RDF xmlns:cc="http://creativecommons.org/ns#" xmlns:dc="http://purl.org/dc/elements/1.1/" xmlns:rdf="http://www.w3.org/1999/02/22-rdf-syntax-ns#">
   <cc:Work>
    <dc:type rdf:resource="http://purl.org/dc/dcmitype/StillImage"/>
    <dc:date>2021-09-21T19:10:02.387972</dc:date>
    <dc:format>image/svg+xml</dc:format>
    <dc:creator>
     <cc:Agent>
      <dc:title>Matplotlib v3.4.2, https://matplotlib.org/</dc:title>
     </cc:Agent>
    </dc:creator>
   </cc:Work>
  </rdf:RDF>
 </metadata>
 <defs>
  <style type="text/css">*{stroke-linecap:butt;stroke-linejoin:round;}</style>
 </defs>
 <g id="figure_1">
  <g id="patch_1">
   <path d="M 0 288 
L 432 288 
L 432 0 
L 0 0 
z
" style="fill:#ffffff;"/>
  </g>
  <g id="axes_1">
   <g id="patch_2">
    <path d="M 52.891187 258.225354 
L 419.805777 258.225354 
L 419.805777 2.834646 
L 52.891187 2.834646 
z
" style="fill:#ffffff;"/>
   </g>
   <g id="line2d_1">
    <path clip-path="url(#pae20e4af4c)" d="M 52.891187 230.753096 
L 54.358846 230.874091 
L 55.45959 231.220373 
L 56.927248 231.931626 
L 58.027992 232.733485 
L 59.49565 234.106967 
L 60.963308 235.806823 
L 64.632454 240.299841 
L 68.668515 245.95879 
L 70.503088 248.474055 
L 71.603832 249.621431 
L 72.704575 250.382716 
L 73.805319 250.866269 
L 74.539148 250.997315 
L 75.272977 250.9371 
L 76.373721 250.550673 
L 78.208294 249.536082 
L 81.510525 247.370719 
L 83.345098 246.151687 
L 85.179671 244.916182 
L 86.64733 243.965932 
L 87.748073 243.484055 
L 88.848817 243.243895 
L 89.949561 243.272418 
L 91.050305 243.557153 
L 92.151049 244.119109 
L 93.618707 245.300364 
L 95.45328 246.669638 
L 96.920938 247.57439 
L 98.021682 248.072225 
L 99.122426 248.371429 
L 100.22317 248.463543 
L 101.690828 248.367161 
L 103.158486 248.160887 
L 104.25923 247.720488 
L 105.726888 246.799198 
L 106.827632 245.876614 
L 107.928376 244.694213 
L 109.396034 242.735719 
L 111.964436 239.111869 
L 113.799009 237.055763 
L 114.899753 236.099858 
L 116.000497 235.498986 
L 117.468155 234.995651 
L 119.669643 234.601359 
L 121.137301 234.536092 
L 124.072618 234.800829 
L 125.173362 235.093197 
L 127.007935 235.632633 
L 128.475593 235.783958 
L 129.576337 235.573862 
L 130.67708 235.092298 
L 131.777824 234.265308 
L 132.878568 233.013048 
L 134.713141 230.383241 
L 136.547714 227.506688 
L 140.21686 221.638927 
L 144.986749 214.629519 
L 146.087493 213.190457 
L 149.02281 208.703011 
L 150.490468 206.049375 
L 151.591212 203.674408 
L 153.7927 197.909127 
L 154.893443 194.755423 
L 155.994187 191.003096 
L 158.195675 182.417948 
L 160.030248 174.325888 
L 164.066308 155.861607 
L 166.267796 147.488167 
L 167.368539 144.159216 
L 168.836198 140.641569 
L 170.303856 137.743203 
L 171.771515 135.372382 
L 172.505344 134.463086 
L 173.606087 133.537739 
L 176.17449 131.673249 
L 178.742892 130.650402 
L 179.843636 129.734879 
L 180.944379 128.381018 
L 182.045123 126.580134 
L 183.145867 124.444212 
L 183.879696 122.613125 
L 184.98044 119.183097 
L 187.915756 109.100885 
L 195.254048 82.169889 
L 196.721707 78.133401 
L 198.189365 74.715162 
L 199.290109 72.710424 
L 200.023938 71.695701 
L 200.757767 70.952198 
L 201.491596 70.445913 
L 206.628401 67.759107 
L 207.729144 66.635017 
L 209.196803 64.743598 
L 211.031376 61.82722 
L 212.132119 59.67955 
L 213.232863 56.984001 
L 215.801265 49.642381 
L 216.902009 45.7954 
L 220.571155 32.227108 
L 222.405728 26.412565 
L 223.506472 23.42138 
L 224.240301 21.866618 
L 225.341045 20.134417 
L 226.808703 18.264434 
L 227.542532 17.594543 
L 228.276361 17.224178 
L 229.010191 17.027969 
L 229.74402 16.997257 
L 230.844764 17.232908 
L 232.312422 17.778263 
L 233.046251 18.231 
L 234.146995 19.292443 
L 235.614653 20.814901 
L 236.715397 21.535359 
L 239.283799 23.023181 
L 240.384543 23.165173 
L 241.118372 23.067407 
L 241.852201 22.774303 
L 243.31986 22.054065 
L 244.420603 21.582224 
L 245.154433 21.042357 
L 246.989005 19.396143 
L 248.089749 18.845632 
L 251.025066 17.556166 
L 252.12581 17.362486 
L 252.859639 17.526012 
L 256.528785 19.325767 
L 257.629529 20.452776 
L 259.097187 21.941229 
L 263.500162 25.768084 
L 264.233991 26.076904 
L 265.334735 26.091157 
L 267.536223 25.952562 
L 268.270052 25.538888 
L 269.370795 24.495502 
L 271.205368 22.362366 
L 273.406856 19.550919 
L 276.342173 14.960409 
L 280.011319 10.815063 
L 280.745148 10.378105 
L 281.478977 10.126977 
L 282.579721 10.072414 
L 284.414294 10.218009 
L 285.148123 10.626588 
L 286.615781 12.105742 
L 289.918012 15.259936 
L 292.486415 18.073914 
L 293.587158 18.763938 
L 294.687902 19.34438 
L 296.155561 20.216165 
L 296.88939 20.290913 
L 298.357048 19.972207 
L 299.824706 19.551327 
L 300.92545 19.048002 
L 302.026194 18.322023 
L 304.227681 16.562322 
L 305.328425 16.175143 
L 306.062254 15.87209 
L 307.529913 15.068995 
L 308.263742 14.964129 
L 309.364486 15.16188 
L 310.46523 15.596232 
L 312.666717 16.867271 
L 313.400546 17.474094 
L 314.134375 18.327341 
L 315.968948 20.688062 
L 317.436607 22.324403 
L 319.638094 25.243463 
L 320.738838 26.336291 
L 321.839582 27.059041 
L 324.041069 27.987051 
L 324.774899 28.069764 
L 325.508728 27.81031 
L 326.609471 26.966405 
L 329.177874 24.767878 
L 330.645532 22.810725 
L 333.580849 18.603496 
L 335.048507 16.628541 
L 336.149251 15.072622 
L 336.88308 14.328954 
L 337.983824 13.641682 
L 339.818397 12.660328 
L 340.552226 12.48513 
L 341.65297 12.495489 
L 342.386799 12.752581 
L 346.422859 15.288445 
L 348.257432 17.023713 
L 349.725091 17.887735 
L 351.192749 18.59182 
L 353.027322 19.243391 
L 353.761151 19.239035 
L 354.861895 18.792696 
L 355.962639 18.376355 
L 357.063382 17.977782 
L 357.797212 17.471759 
L 361.833272 13.908418 
L 364.03476 12.422474 
L 364.768589 11.982982 
L 365.502418 11.856953 
L 366.603162 12.092552 
L 368.804649 12.749433 
L 369.538478 13.27941 
L 370.639222 14.39132 
L 372.106881 16.224878 
L 375.042197 20.252708 
L 376.509856 22.733936 
L 377.610599 24.04535 
L 380.179002 26.719718 
L 381.279745 27.47769 
L 382.013575 27.740456 
L 382.747404 27.74754 
L 383.848147 27.401957 
L 385.68272 26.792377 
L 386.41655 26.197501 
L 390.819525 21.233634 
L 393.754841 17.728875 
L 394.488671 17.230543 
L 395.956329 16.396091 
L 397.057073 15.679309 
L 397.790902 15.505259 
L 398.524731 15.597204 
L 400.359304 16.213532 
L 402.560792 17.205268 
L 403.661535 17.972074 
L 405.129194 19.18855 
L 405.863023 19.517409 
L 407.330681 20.033081 
L 408.431425 20.585813 
L 409.165254 20.746135 
L 410.265998 20.660263 
L 411.366742 20.284636 
L 413.935144 18.878909 
L 414.668973 18.260116 
L 415.769717 16.860439 
L 416.870461 15.464103 
L 419.805777 12.3271 
L 419.805777 12.3271 
" style="fill:none;stroke:#009afa;"/>
   </g>
   <g id="matplotlib.axis_1">
    <g id="xtick_1">
     <g id="line2d_2">
      <defs>
       <path d="M 0 0 
L 0 -2.5 
" id="m446d168aa8" style="stroke:#000000;stroke-width:0.5;"/>
      </defs>
      <g>
       <use style="stroke:#000000;stroke-width:0.5;" x="52.891187" xlink:href="#m446d168aa8" y="258.225354"/>
      </g>
     </g>
     <g id="text_1">
      <!-- $0.00$ -->
      <g transform="translate(43.971187 267.804104)scale(0.08 -0.08)">
       <defs>
        <path d="M 2034 4250 
Q 1547 4250 1301 3770 
Q 1056 3291 1056 2328 
Q 1056 1369 1301 889 
Q 1547 409 2034 409 
Q 2525 409 2770 889 
Q 3016 1369 3016 2328 
Q 3016 3291 2770 3770 
Q 2525 4250 2034 4250 
z
M 2034 4750 
Q 2819 4750 3233 4129 
Q 3647 3509 3647 2328 
Q 3647 1150 3233 529 
Q 2819 -91 2034 -91 
Q 1250 -91 836 529 
Q 422 1150 422 2328 
Q 422 3509 836 4129 
Q 1250 4750 2034 4750 
z
" id="DejaVuSans-30" transform="scale(0.015625)"/>
        <path d="M 684 794 
L 1344 794 
L 1344 0 
L 684 0 
L 684 794 
z
" id="DejaVuSans-2e" transform="scale(0.015625)"/>
       </defs>
       <use transform="translate(0 0.78125)" xlink:href="#DejaVuSans-30"/>
       <use transform="translate(63.623047 0.78125)" xlink:href="#DejaVuSans-2e"/>
       <use transform="translate(95.410156 0.78125)" xlink:href="#DejaVuSans-30"/>
       <use transform="translate(159.033203 0.78125)" xlink:href="#DejaVuSans-30"/>
      </g>
     </g>
    </g>
    <g id="xtick_2">
     <g id="line2d_3">
      <g>
       <use style="stroke:#000000;stroke-width:0.5;" x="144.619835" xlink:href="#m446d168aa8" y="258.225354"/>
      </g>
     </g>
     <g id="text_2">
      <!-- $0.01$ -->
      <g transform="translate(135.699835 267.804104)scale(0.08 -0.08)">
       <defs>
        <path d="M 794 531 
L 1825 531 
L 1825 4091 
L 703 3866 
L 703 4441 
L 1819 4666 
L 2450 4666 
L 2450 531 
L 3481 531 
L 3481 0 
L 794 0 
L 794 531 
z
" id="DejaVuSans-31" transform="scale(0.015625)"/>
       </defs>
       <use transform="translate(0 0.78125)" xlink:href="#DejaVuSans-30"/>
       <use transform="translate(63.623047 0.78125)" xlink:href="#DejaVuSans-2e"/>
       <use transform="translate(95.410156 0.78125)" xlink:href="#DejaVuSans-30"/>
       <use transform="translate(159.033203 0.78125)" xlink:href="#DejaVuSans-31"/>
      </g>
     </g>
    </g>
    <g id="xtick_3">
     <g id="line2d_4">
      <g>
       <use style="stroke:#000000;stroke-width:0.5;" x="236.348482" xlink:href="#m446d168aa8" y="258.225354"/>
      </g>
     </g>
     <g id="text_3">
      <!-- $0.02$ -->
      <g transform="translate(227.428482 267.804104)scale(0.08 -0.08)">
       <defs>
        <path d="M 1228 531 
L 3431 531 
L 3431 0 
L 469 0 
L 469 531 
Q 828 903 1448 1529 
Q 2069 2156 2228 2338 
Q 2531 2678 2651 2914 
Q 2772 3150 2772 3378 
Q 2772 3750 2511 3984 
Q 2250 4219 1831 4219 
Q 1534 4219 1204 4116 
Q 875 4013 500 3803 
L 500 4441 
Q 881 4594 1212 4672 
Q 1544 4750 1819 4750 
Q 2544 4750 2975 4387 
Q 3406 4025 3406 3419 
Q 3406 3131 3298 2873 
Q 3191 2616 2906 2266 
Q 2828 2175 2409 1742 
Q 1991 1309 1228 531 
z
" id="DejaVuSans-32" transform="scale(0.015625)"/>
       </defs>
       <use transform="translate(0 0.78125)" xlink:href="#DejaVuSans-30"/>
       <use transform="translate(63.623047 0.78125)" xlink:href="#DejaVuSans-2e"/>
       <use transform="translate(95.410156 0.78125)" xlink:href="#DejaVuSans-30"/>
       <use transform="translate(159.033203 0.78125)" xlink:href="#DejaVuSans-32"/>
      </g>
     </g>
    </g>
    <g id="xtick_4">
     <g id="line2d_5">
      <g>
       <use style="stroke:#000000;stroke-width:0.5;" x="328.07713" xlink:href="#m446d168aa8" y="258.225354"/>
      </g>
     </g>
     <g id="text_4">
      <!-- $0.03$ -->
      <g transform="translate(319.15713 267.804104)scale(0.08 -0.08)">
       <defs>
        <path d="M 2597 2516 
Q 3050 2419 3304 2112 
Q 3559 1806 3559 1356 
Q 3559 666 3084 287 
Q 2609 -91 1734 -91 
Q 1441 -91 1130 -33 
Q 819 25 488 141 
L 488 750 
Q 750 597 1062 519 
Q 1375 441 1716 441 
Q 2309 441 2620 675 
Q 2931 909 2931 1356 
Q 2931 1769 2642 2001 
Q 2353 2234 1838 2234 
L 1294 2234 
L 1294 2753 
L 1863 2753 
Q 2328 2753 2575 2939 
Q 2822 3125 2822 3475 
Q 2822 3834 2567 4026 
Q 2313 4219 1838 4219 
Q 1578 4219 1281 4162 
Q 984 4106 628 3988 
L 628 4550 
Q 988 4650 1302 4700 
Q 1616 4750 1894 4750 
Q 2613 4750 3031 4423 
Q 3450 4097 3450 3541 
Q 3450 3153 3228 2886 
Q 3006 2619 2597 2516 
z
" id="DejaVuSans-33" transform="scale(0.015625)"/>
       </defs>
       <use transform="translate(0 0.78125)" xlink:href="#DejaVuSans-30"/>
       <use transform="translate(63.623047 0.78125)" xlink:href="#DejaVuSans-2e"/>
       <use transform="translate(95.410156 0.78125)" xlink:href="#DejaVuSans-30"/>
       <use transform="translate(159.033203 0.78125)" xlink:href="#DejaVuSans-33"/>
      </g>
     </g>
    </g>
    <g id="xtick_5">
     <g id="line2d_6">
      <g>
       <use style="stroke:#000000;stroke-width:0.5;" x="419.805777" xlink:href="#m446d168aa8" y="258.225354"/>
      </g>
     </g>
     <g id="text_5">
      <!-- $0.04$ -->
      <g transform="translate(410.885777 267.804104)scale(0.08 -0.08)">
       <defs>
        <path d="M 2419 4116 
L 825 1625 
L 2419 1625 
L 2419 4116 
z
M 2253 4666 
L 3047 4666 
L 3047 1625 
L 3713 1625 
L 3713 1100 
L 3047 1100 
L 3047 0 
L 2419 0 
L 2419 1100 
L 313 1100 
L 313 1709 
L 2253 4666 
z
" id="DejaVuSans-34" transform="scale(0.015625)"/>
       </defs>
       <use transform="translate(0 0.78125)" xlink:href="#DejaVuSans-30"/>
       <use transform="translate(63.623047 0.78125)" xlink:href="#DejaVuSans-2e"/>
       <use transform="translate(95.410156 0.78125)" xlink:href="#DejaVuSans-30"/>
       <use transform="translate(159.033203 0.78125)" xlink:href="#DejaVuSans-34"/>
      </g>
     </g>
    </g>
    <g id="text_6">
     <!-- Time (s) -->
     <g transform="translate(213.986685 281.826136)scale(0.11 -0.11)">
      <defs>
       <path d="M -19 4666 
L 3928 4666 
L 3928 4134 
L 2272 4134 
L 2272 0 
L 1638 0 
L 1638 4134 
L -19 4134 
L -19 4666 
z
" id="DejaVuSans-54" transform="scale(0.015625)"/>
       <path d="M 603 3500 
L 1178 3500 
L 1178 0 
L 603 0 
L 603 3500 
z
M 603 4863 
L 1178 4863 
L 1178 4134 
L 603 4134 
L 603 4863 
z
" id="DejaVuSans-69" transform="scale(0.015625)"/>
       <path d="M 3328 2828 
Q 3544 3216 3844 3400 
Q 4144 3584 4550 3584 
Q 5097 3584 5394 3201 
Q 5691 2819 5691 2113 
L 5691 0 
L 5113 0 
L 5113 2094 
Q 5113 2597 4934 2840 
Q 4756 3084 4391 3084 
Q 3944 3084 3684 2787 
Q 3425 2491 3425 1978 
L 3425 0 
L 2847 0 
L 2847 2094 
Q 2847 2600 2669 2842 
Q 2491 3084 2119 3084 
Q 1678 3084 1418 2786 
Q 1159 2488 1159 1978 
L 1159 0 
L 581 0 
L 581 3500 
L 1159 3500 
L 1159 2956 
Q 1356 3278 1631 3431 
Q 1906 3584 2284 3584 
Q 2666 3584 2933 3390 
Q 3200 3197 3328 2828 
z
" id="DejaVuSans-6d" transform="scale(0.015625)"/>
       <path d="M 3597 1894 
L 3597 1613 
L 953 1613 
Q 991 1019 1311 708 
Q 1631 397 2203 397 
Q 2534 397 2845 478 
Q 3156 559 3463 722 
L 3463 178 
Q 3153 47 2828 -22 
Q 2503 -91 2169 -91 
Q 1331 -91 842 396 
Q 353 884 353 1716 
Q 353 2575 817 3079 
Q 1281 3584 2069 3584 
Q 2775 3584 3186 3129 
Q 3597 2675 3597 1894 
z
M 3022 2063 
Q 3016 2534 2758 2815 
Q 2500 3097 2075 3097 
Q 1594 3097 1305 2825 
Q 1016 2553 972 2059 
L 3022 2063 
z
" id="DejaVuSans-65" transform="scale(0.015625)"/>
       <path id="DejaVuSans-20" transform="scale(0.015625)"/>
       <path d="M 1984 4856 
Q 1566 4138 1362 3434 
Q 1159 2731 1159 2009 
Q 1159 1288 1364 580 
Q 1569 -128 1984 -844 
L 1484 -844 
Q 1016 -109 783 600 
Q 550 1309 550 2009 
Q 550 2706 781 3412 
Q 1013 4119 1484 4856 
L 1984 4856 
z
" id="DejaVuSans-28" transform="scale(0.015625)"/>
       <path d="M 2834 3397 
L 2834 2853 
Q 2591 2978 2328 3040 
Q 2066 3103 1784 3103 
Q 1356 3103 1142 2972 
Q 928 2841 928 2578 
Q 928 2378 1081 2264 
Q 1234 2150 1697 2047 
L 1894 2003 
Q 2506 1872 2764 1633 
Q 3022 1394 3022 966 
Q 3022 478 2636 193 
Q 2250 -91 1575 -91 
Q 1294 -91 989 -36 
Q 684 19 347 128 
L 347 722 
Q 666 556 975 473 
Q 1284 391 1588 391 
Q 1994 391 2212 530 
Q 2431 669 2431 922 
Q 2431 1156 2273 1281 
Q 2116 1406 1581 1522 
L 1381 1569 
Q 847 1681 609 1914 
Q 372 2147 372 2553 
Q 372 3047 722 3315 
Q 1072 3584 1716 3584 
Q 2034 3584 2315 3537 
Q 2597 3491 2834 3397 
z
" id="DejaVuSans-73" transform="scale(0.015625)"/>
       <path d="M 513 4856 
L 1013 4856 
Q 1481 4119 1714 3412 
Q 1947 2706 1947 2009 
Q 1947 1309 1714 600 
Q 1481 -109 1013 -844 
L 513 -844 
Q 928 -128 1133 580 
Q 1338 1288 1338 2009 
Q 1338 2731 1133 3434 
Q 928 4138 513 4856 
z
" id="DejaVuSans-29" transform="scale(0.015625)"/>
      </defs>
      <use xlink:href="#DejaVuSans-54"/>
      <use x="57.958984" xlink:href="#DejaVuSans-69"/>
      <use x="85.742188" xlink:href="#DejaVuSans-6d"/>
      <use x="183.154297" xlink:href="#DejaVuSans-65"/>
      <use x="244.677734" xlink:href="#DejaVuSans-20"/>
      <use x="276.464844" xlink:href="#DejaVuSans-28"/>
      <use x="315.478516" xlink:href="#DejaVuSans-73"/>
      <use x="367.578125" xlink:href="#DejaVuSans-29"/>
     </g>
    </g>
   </g>
   <g id="matplotlib.axis_2">
    <g id="ytick_1">
     <g id="line2d_7">
      <defs>
       <path d="M 0 0 
L 2.5 0 
" id="m5f89655b9e" style="stroke:#000000;stroke-width:0.5;"/>
      </defs>
      <g>
       <use style="stroke:#000000;stroke-width:0.5;" x="52.891187" xlink:href="#m5f89655b9e" y="230.753096"/>
      </g>
     </g>
     <g id="text_7">
      <!-- $0.0000$ -->
      <g transform="translate(21.391187 233.792471)scale(0.08 -0.08)">
       <use transform="translate(0 0.78125)" xlink:href="#DejaVuSans-30"/>
       <use transform="translate(63.623047 0.78125)" xlink:href="#DejaVuSans-2e"/>
       <use transform="translate(95.410156 0.78125)" xlink:href="#DejaVuSans-30"/>
       <use transform="translate(159.033203 0.78125)" xlink:href="#DejaVuSans-30"/>
       <use transform="translate(222.65625 0.78125)" xlink:href="#DejaVuSans-30"/>
       <use transform="translate(286.279297 0.78125)" xlink:href="#DejaVuSans-30"/>
      </g>
     </g>
    </g>
    <g id="ytick_2">
     <g id="line2d_8">
      <g>
       <use style="stroke:#000000;stroke-width:0.5;" x="52.891187" xlink:href="#m5f89655b9e" y="188.191198"/>
      </g>
     </g>
     <g id="text_8">
      <!-- $0.0005$ -->
      <g transform="translate(21.391187 191.230573)scale(0.08 -0.08)">
       <defs>
        <path d="M 691 4666 
L 3169 4666 
L 3169 4134 
L 1269 4134 
L 1269 2991 
Q 1406 3038 1543 3061 
Q 1681 3084 1819 3084 
Q 2600 3084 3056 2656 
Q 3513 2228 3513 1497 
Q 3513 744 3044 326 
Q 2575 -91 1722 -91 
Q 1428 -91 1123 -41 
Q 819 9 494 109 
L 494 744 
Q 775 591 1075 516 
Q 1375 441 1709 441 
Q 2250 441 2565 725 
Q 2881 1009 2881 1497 
Q 2881 1984 2565 2268 
Q 2250 2553 1709 2553 
Q 1456 2553 1204 2497 
Q 953 2441 691 2322 
L 691 4666 
z
" id="DejaVuSans-35" transform="scale(0.015625)"/>
       </defs>
       <use transform="translate(0 0.78125)" xlink:href="#DejaVuSans-30"/>
       <use transform="translate(63.623047 0.78125)" xlink:href="#DejaVuSans-2e"/>
       <use transform="translate(95.410156 0.78125)" xlink:href="#DejaVuSans-30"/>
       <use transform="translate(159.033203 0.78125)" xlink:href="#DejaVuSans-30"/>
       <use transform="translate(222.65625 0.78125)" xlink:href="#DejaVuSans-30"/>
       <use transform="translate(286.279297 0.78125)" xlink:href="#DejaVuSans-35"/>
      </g>
     </g>
    </g>
    <g id="ytick_3">
     <g id="line2d_9">
      <g>
       <use style="stroke:#000000;stroke-width:0.5;" x="52.891187" xlink:href="#m5f89655b9e" y="145.629301"/>
      </g>
     </g>
     <g id="text_9">
      <!-- $0.0010$ -->
      <g transform="translate(21.391187 148.668676)scale(0.08 -0.08)">
       <use transform="translate(0 0.78125)" xlink:href="#DejaVuSans-30"/>
       <use transform="translate(63.623047 0.78125)" xlink:href="#DejaVuSans-2e"/>
       <use transform="translate(95.410156 0.78125)" xlink:href="#DejaVuSans-30"/>
       <use transform="translate(159.033203 0.78125)" xlink:href="#DejaVuSans-30"/>
       <use transform="translate(222.65625 0.78125)" xlink:href="#DejaVuSans-31"/>
       <use transform="translate(286.279297 0.78125)" xlink:href="#DejaVuSans-30"/>
      </g>
     </g>
    </g>
    <g id="ytick_4">
     <g id="line2d_10">
      <g>
       <use style="stroke:#000000;stroke-width:0.5;" x="52.891187" xlink:href="#m5f89655b9e" y="103.067403"/>
      </g>
     </g>
     <g id="text_10">
      <!-- $0.0015$ -->
      <g transform="translate(21.391187 106.106778)scale(0.08 -0.08)">
       <use transform="translate(0 0.78125)" xlink:href="#DejaVuSans-30"/>
       <use transform="translate(63.623047 0.78125)" xlink:href="#DejaVuSans-2e"/>
       <use transform="translate(95.410156 0.78125)" xlink:href="#DejaVuSans-30"/>
       <use transform="translate(159.033203 0.78125)" xlink:href="#DejaVuSans-30"/>
       <use transform="translate(222.65625 0.78125)" xlink:href="#DejaVuSans-31"/>
       <use transform="translate(286.279297 0.78125)" xlink:href="#DejaVuSans-35"/>
      </g>
     </g>
    </g>
    <g id="ytick_5">
     <g id="line2d_11">
      <g>
       <use style="stroke:#000000;stroke-width:0.5;" x="52.891187" xlink:href="#m5f89655b9e" y="60.505505"/>
      </g>
     </g>
     <g id="text_11">
      <!-- $0.0020$ -->
      <g transform="translate(21.391187 63.54488)scale(0.08 -0.08)">
       <use transform="translate(0 0.78125)" xlink:href="#DejaVuSans-30"/>
       <use transform="translate(63.623047 0.78125)" xlink:href="#DejaVuSans-2e"/>
       <use transform="translate(95.410156 0.78125)" xlink:href="#DejaVuSans-30"/>
       <use transform="translate(159.033203 0.78125)" xlink:href="#DejaVuSans-30"/>
       <use transform="translate(222.65625 0.78125)" xlink:href="#DejaVuSans-32"/>
       <use transform="translate(286.279297 0.78125)" xlink:href="#DejaVuSans-30"/>
      </g>
     </g>
    </g>
    <g id="ytick_6">
     <g id="line2d_12">
      <g>
       <use style="stroke:#000000;stroke-width:0.5;" x="52.891187" xlink:href="#m5f89655b9e" y="17.943607"/>
      </g>
     </g>
     <g id="text_12">
      <!-- $0.0025$ -->
      <g transform="translate(21.391187 20.982982)scale(0.08 -0.08)">
       <use transform="translate(0 0.78125)" xlink:href="#DejaVuSans-30"/>
       <use transform="translate(63.623047 0.78125)" xlink:href="#DejaVuSans-2e"/>
       <use transform="translate(95.410156 0.78125)" xlink:href="#DejaVuSans-30"/>
       <use transform="translate(159.033203 0.78125)" xlink:href="#DejaVuSans-30"/>
       <use transform="translate(222.65625 0.78125)" xlink:href="#DejaVuSans-32"/>
       <use transform="translate(286.279297 0.78125)" xlink:href="#DejaVuSans-35"/>
      </g>
     </g>
    </g>
    <g id="text_13">
     <!-- Rodriguez Parameter $\theta_x$ -->
     <g transform="translate(15.081187 196.42)rotate(-90)scale(0.11 -0.11)">
      <defs>
       <path d="M 2841 2188 
Q 3044 2119 3236 1894 
Q 3428 1669 3622 1275 
L 4263 0 
L 3584 0 
L 2988 1197 
Q 2756 1666 2539 1819 
Q 2322 1972 1947 1972 
L 1259 1972 
L 1259 0 
L 628 0 
L 628 4666 
L 2053 4666 
Q 2853 4666 3247 4331 
Q 3641 3997 3641 3322 
Q 3641 2881 3436 2590 
Q 3231 2300 2841 2188 
z
M 1259 4147 
L 1259 2491 
L 2053 2491 
Q 2509 2491 2742 2702 
Q 2975 2913 2975 3322 
Q 2975 3731 2742 3939 
Q 2509 4147 2053 4147 
L 1259 4147 
z
" id="DejaVuSans-52" transform="scale(0.015625)"/>
       <path d="M 1959 3097 
Q 1497 3097 1228 2736 
Q 959 2375 959 1747 
Q 959 1119 1226 758 
Q 1494 397 1959 397 
Q 2419 397 2687 759 
Q 2956 1122 2956 1747 
Q 2956 2369 2687 2733 
Q 2419 3097 1959 3097 
z
M 1959 3584 
Q 2709 3584 3137 3096 
Q 3566 2609 3566 1747 
Q 3566 888 3137 398 
Q 2709 -91 1959 -91 
Q 1206 -91 779 398 
Q 353 888 353 1747 
Q 353 2609 779 3096 
Q 1206 3584 1959 3584 
z
" id="DejaVuSans-6f" transform="scale(0.015625)"/>
       <path d="M 2906 2969 
L 2906 4863 
L 3481 4863 
L 3481 0 
L 2906 0 
L 2906 525 
Q 2725 213 2448 61 
Q 2172 -91 1784 -91 
Q 1150 -91 751 415 
Q 353 922 353 1747 
Q 353 2572 751 3078 
Q 1150 3584 1784 3584 
Q 2172 3584 2448 3432 
Q 2725 3281 2906 2969 
z
M 947 1747 
Q 947 1113 1208 752 
Q 1469 391 1925 391 
Q 2381 391 2643 752 
Q 2906 1113 2906 1747 
Q 2906 2381 2643 2742 
Q 2381 3103 1925 3103 
Q 1469 3103 1208 2742 
Q 947 2381 947 1747 
z
" id="DejaVuSans-64" transform="scale(0.015625)"/>
       <path d="M 2631 2963 
Q 2534 3019 2420 3045 
Q 2306 3072 2169 3072 
Q 1681 3072 1420 2755 
Q 1159 2438 1159 1844 
L 1159 0 
L 581 0 
L 581 3500 
L 1159 3500 
L 1159 2956 
Q 1341 3275 1631 3429 
Q 1922 3584 2338 3584 
Q 2397 3584 2469 3576 
Q 2541 3569 2628 3553 
L 2631 2963 
z
" id="DejaVuSans-72" transform="scale(0.015625)"/>
       <path d="M 2906 1791 
Q 2906 2416 2648 2759 
Q 2391 3103 1925 3103 
Q 1463 3103 1205 2759 
Q 947 2416 947 1791 
Q 947 1169 1205 825 
Q 1463 481 1925 481 
Q 2391 481 2648 825 
Q 2906 1169 2906 1791 
z
M 3481 434 
Q 3481 -459 3084 -895 
Q 2688 -1331 1869 -1331 
Q 1566 -1331 1297 -1286 
Q 1028 -1241 775 -1147 
L 775 -588 
Q 1028 -725 1275 -790 
Q 1522 -856 1778 -856 
Q 2344 -856 2625 -561 
Q 2906 -266 2906 331 
L 2906 616 
Q 2728 306 2450 153 
Q 2172 0 1784 0 
Q 1141 0 747 490 
Q 353 981 353 1791 
Q 353 2603 747 3093 
Q 1141 3584 1784 3584 
Q 2172 3584 2450 3431 
Q 2728 3278 2906 2969 
L 2906 3500 
L 3481 3500 
L 3481 434 
z
" id="DejaVuSans-67" transform="scale(0.015625)"/>
       <path d="M 544 1381 
L 544 3500 
L 1119 3500 
L 1119 1403 
Q 1119 906 1312 657 
Q 1506 409 1894 409 
Q 2359 409 2629 706 
Q 2900 1003 2900 1516 
L 2900 3500 
L 3475 3500 
L 3475 0 
L 2900 0 
L 2900 538 
Q 2691 219 2414 64 
Q 2138 -91 1772 -91 
Q 1169 -91 856 284 
Q 544 659 544 1381 
z
M 1991 3584 
L 1991 3584 
z
" id="DejaVuSans-75" transform="scale(0.015625)"/>
       <path d="M 353 3500 
L 3084 3500 
L 3084 2975 
L 922 459 
L 3084 459 
L 3084 0 
L 275 0 
L 275 525 
L 2438 3041 
L 353 3041 
L 353 3500 
z
" id="DejaVuSans-7a" transform="scale(0.015625)"/>
       <path d="M 1259 4147 
L 1259 2394 
L 2053 2394 
Q 2494 2394 2734 2622 
Q 2975 2850 2975 3272 
Q 2975 3691 2734 3919 
Q 2494 4147 2053 4147 
L 1259 4147 
z
M 628 4666 
L 2053 4666 
Q 2838 4666 3239 4311 
Q 3641 3956 3641 3272 
Q 3641 2581 3239 2228 
Q 2838 1875 2053 1875 
L 1259 1875 
L 1259 0 
L 628 0 
L 628 4666 
z
" id="DejaVuSans-50" transform="scale(0.015625)"/>
       <path d="M 2194 1759 
Q 1497 1759 1228 1600 
Q 959 1441 959 1056 
Q 959 750 1161 570 
Q 1363 391 1709 391 
Q 2188 391 2477 730 
Q 2766 1069 2766 1631 
L 2766 1759 
L 2194 1759 
z
M 3341 1997 
L 3341 0 
L 2766 0 
L 2766 531 
Q 2569 213 2275 61 
Q 1981 -91 1556 -91 
Q 1019 -91 701 211 
Q 384 513 384 1019 
Q 384 1609 779 1909 
Q 1175 2209 1959 2209 
L 2766 2209 
L 2766 2266 
Q 2766 2663 2505 2880 
Q 2244 3097 1772 3097 
Q 1472 3097 1187 3025 
Q 903 2953 641 2809 
L 641 3341 
Q 956 3463 1253 3523 
Q 1550 3584 1831 3584 
Q 2591 3584 2966 3190 
Q 3341 2797 3341 1997 
z
" id="DejaVuSans-61" transform="scale(0.015625)"/>
       <path d="M 1172 4494 
L 1172 3500 
L 2356 3500 
L 2356 3053 
L 1172 3053 
L 1172 1153 
Q 1172 725 1289 603 
Q 1406 481 1766 481 
L 2356 481 
L 2356 0 
L 1766 0 
Q 1100 0 847 248 
Q 594 497 594 1153 
L 594 3053 
L 172 3053 
L 172 3500 
L 594 3500 
L 594 4494 
L 1172 4494 
z
" id="DejaVuSans-74" transform="scale(0.015625)"/>
       <path d="M 2913 2219 
L 925 2219 
Q 791 1284 928 888 
Q 1100 400 1566 400 
Q 2034 400 2391 891 
Q 2703 1322 2913 2219 
z
M 3009 2750 
Q 3094 3638 2984 3950 
Q 2813 4444 2353 4444 
Q 1875 4444 1525 3956 
Q 1250 3563 1034 2750 
L 3009 2750 
z
M 2444 4913 
Q 3194 4913 3494 4250 
Q 3794 3591 3566 2422 
Q 3341 1256 2781 594 
Q 2225 -72 1475 -72 
Q 722 -72 425 594 
Q 128 1256 353 2422 
Q 581 3591 1134 4250 
Q 1691 4913 2444 4913 
z
" id="DejaVuSans-Oblique-3b8" transform="scale(0.015625)"/>
       <path d="M 3841 3500 
L 2234 1784 
L 3219 0 
L 2559 0 
L 1819 1388 
L 531 0 
L -166 0 
L 1556 1844 
L 641 3500 
L 1300 3500 
L 1972 2234 
L 3144 3500 
L 3841 3500 
z
" id="DejaVuSans-Oblique-78" transform="scale(0.015625)"/>
      </defs>
      <use transform="translate(0 0.234375)" xlink:href="#DejaVuSans-52"/>
      <use transform="translate(69.482422 0.234375)" xlink:href="#DejaVuSans-6f"/>
      <use transform="translate(130.664062 0.234375)" xlink:href="#DejaVuSans-64"/>
      <use transform="translate(194.140625 0.234375)" xlink:href="#DejaVuSans-72"/>
      <use transform="translate(235.253906 0.234375)" xlink:href="#DejaVuSans-69"/>
      <use transform="translate(263.037109 0.234375)" xlink:href="#DejaVuSans-67"/>
      <use transform="translate(326.513672 0.234375)" xlink:href="#DejaVuSans-75"/>
      <use transform="translate(389.892578 0.234375)" xlink:href="#DejaVuSans-65"/>
      <use transform="translate(451.416016 0.234375)" xlink:href="#DejaVuSans-7a"/>
      <use transform="translate(503.90625 0.234375)" xlink:href="#DejaVuSans-20"/>
      <use transform="translate(535.693359 0.234375)" xlink:href="#DejaVuSans-50"/>
      <use transform="translate(595.996094 0.234375)" xlink:href="#DejaVuSans-61"/>
      <use transform="translate(657.275391 0.234375)" xlink:href="#DejaVuSans-72"/>
      <use transform="translate(698.388672 0.234375)" xlink:href="#DejaVuSans-61"/>
      <use transform="translate(759.667969 0.234375)" xlink:href="#DejaVuSans-6d"/>
      <use transform="translate(857.080078 0.234375)" xlink:href="#DejaVuSans-65"/>
      <use transform="translate(918.603516 0.234375)" xlink:href="#DejaVuSans-74"/>
      <use transform="translate(957.8125 0.234375)" xlink:href="#DejaVuSans-65"/>
      <use transform="translate(1019.335938 0.234375)" xlink:href="#DejaVuSans-72"/>
      <use transform="translate(1060.449219 0.234375)" xlink:href="#DejaVuSans-20"/>
      <use transform="translate(1092.236328 0.234375)" xlink:href="#DejaVuSans-Oblique-3b8"/>
      <use transform="translate(1153.417969 -16.171875)scale(0.7)" xlink:href="#DejaVuSans-Oblique-78"/>
     </g>
    </g>
   </g>
   <g id="patch_3">
    <path d="M 52.891187 258.225354 
L 52.891187 2.834646 
" style="fill:none;stroke:#000000;stroke-linecap:square;stroke-linejoin:miter;"/>
   </g>
   <g id="patch_4">
    <path d="M 52.891187 258.225354 
L 419.805777 258.225354 
" style="fill:none;stroke:#000000;stroke-linecap:square;stroke-linejoin:miter;"/>
   </g>
  </g>
 </g>
 <defs>
  <clipPath id="pae20e4af4c">
   <rect height="255.390709" width="366.91459" x="52.891187" y="2.834646"/>
  </clipPath>
 </defs>
</svg>
