<?xml version="1.0" encoding="utf-8" standalone="no"?>
<!DOCTYPE svg PUBLIC "-//W3C//DTD SVG 1.1//EN"
  "http://www.w3.org/Graphics/SVG/1.1/DTD/svg11.dtd">
<svg height="288pt" version="1.1" viewBox="0 0 432 288" width="432pt" xmlns="http://www.w3.org/2000/svg" xmlns:xlink="http://www.w3.org/1999/xlink">
 <metadata>
  <rdf:RDF xmlns:cc="http://creativecommons.org/ns#" xmlns:dc="http://purl.org/dc/elements/1.1/" xmlns:rdf="http://www.w3.org/1999/02/22-rdf-syntax-ns#">
   <cc:Work>
    <dc:type rdf:resource="http://purl.org/dc/dcmitype/StillImage"/>
    <dc:date>2021-11-15T21:25:38.703568</dc:date>
    <dc:format>image/svg+xml</dc:format>
    <dc:creator>
     <cc:Agent>
      <dc:title>Matplotlib v3.4.3, https://matplotlib.org/</dc:title>
     </cc:Agent>
    </dc:creator>
   </cc:Work>
  </rdf:RDF>
 </metadata>
 <defs>
  <style type="text/css">*{stroke-linecap:butt;stroke-linejoin:round;}</style>
 </defs>
 <g id="figure_1">
  <g id="patch_1">
   <path d="M 0 288 
L 432 288 
L 432 0 
L 0 0 
z
" style="fill:#ffffff;"/>
  </g>
  <g id="axes_1">
   <g id="patch_2">
    <path d="M 42.933593 258.225354 
L 422.361999 258.225354 
L 422.361999 2.834646 
L 42.933593 2.834646 
z
" style="fill:#ffffff;"/>
   </g>
   <g id="line2d_1">
    <path clip-path="url(#pd3f08ada74)" d="M 42.933593 106.562921 
L 43.69245 106.652382 
L 44.641021 106.95503 
L 45.96902 107.836846 
L 47.297019 109.080921 
L 48.435305 110.574977 
L 50.901589 114.681734 
L 52.419303 117.610831 
L 54.506159 122.533307 
L 56.78273 128.406384 
L 58.679872 133.157818 
L 61.905013 140.238491 
L 67.027297 150.886019 
L 68.355296 152.700036 
L 69.493581 153.908554 
L 70.252438 154.446981 
L 71.201009 154.81993 
L 72.529008 154.942909 
L 73.667294 154.749159 
L 74.236436 154.432766 
L 74.995293 153.777898 
L 75.943864 152.585457 
L 77.271863 150.592759 
L 78.410149 148.60482 
L 81.445576 143.16559 
L 83.342718 140.030382 
L 87.137002 133.060826 
L 89.223858 128.879428 
L 91.121 125.091994 
L 94.535856 117.346382 
L 96.812426 112.012728 
L 98.140426 109.710979 
L 99.658139 107.633427 
L 100.796425 106.507997 
L 102.314138 105.505346 
L 104.590709 104.247063 
L 105.159851 104.159202 
L 106.108422 104.255585 
L 107.246708 104.677155 
L 108.005564 105.181217 
L 108.764421 105.916519 
L 109.902706 107.50812 
L 111.42042 110.096242 
L 112.558705 112.488019 
L 113.696991 115.575483 
L 115.02499 119.900904 
L 116.352989 124.886404 
L 118.439846 133.914687 
L 120.716416 143.17863 
L 122.423844 149.440536 
L 123.941557 154.095374 
L 125.8387 159.039037 
L 126.787271 161.028275 
L 127.735842 162.486919 
L 128.684413 163.531591 
L 129.822698 164.468105 
L 130.771269 164.961378 
L 131.71984 165.165874 
L 133.806696 165.354688 
L 134.565553 165.254972 
L 135.32441 164.899694 
L 135.893552 164.360335 
L 136.652409 163.337176 
L 137.411266 161.919541 
L 138.170123 160.123683 
L 139.118694 157.173974 
L 140.067265 153.524335 
L 141.964407 145.108549 
L 144.051263 135.011169 
L 148.035261 115.533155 
L 149.552975 108.951552 
L 150.880974 104.295947 
L 152.398688 99.886725 
L 153.726687 96.793786 
L 156.192972 92.014551 
L 157.331257 90.17394 
L 158.090114 89.270924 
L 159.038685 88.526619 
L 159.797542 88.157933 
L 160.746113 87.947206 
L 161.50497 88.033764 
L 162.643255 88.441957 
L 165.299254 89.77868 
L 166.058111 90.611104 
L 166.816967 91.814061 
L 167.575824 93.438135 
L 168.524395 96.098785 
L 169.472966 99.584667 
L 170.611251 104.796363 
L 172.887822 116.80209 
L 175.354107 130.980702 
L 177.820391 146.369615 
L 180.666104 164.437372 
L 182.563246 174.643402 
L 184.270674 182.713118 
L 186.736959 193.210095 
L 187.875244 197.38336 
L 188.823815 200.089169 
L 189.582672 201.647264 
L 190.151814 202.455276 
L 190.720957 202.943184 
L 191.2901 203.095725 
L 191.859242 202.929203 
L 192.428385 202.500557 
L 193.376956 201.374644 
L 195.843241 197.940326 
L 196.602097 196.51582 
L 197.550668 194.162346 
L 198.499239 191.05488 
L 199.44781 187.151454 
L 200.396381 182.204037 
L 201.534667 174.857728 
L 204.570094 154.297842 
L 206.846664 141.321425 
L 208.364378 132.433725 
L 209.502663 124.252044 
L 213.296947 95.378441 
L 214.814661 85.78766 
L 219.936944 56.947038 
L 220.885515 53.548487 
L 221.644372 51.523755 
L 222.213515 50.41459 
L 222.782657 49.795473 
L 223.162086 49.697171 
L 223.541514 49.845704 
L 223.920943 50.208848 
L 224.490085 51.094188 
L 226.007799 53.730512 
L 226.766656 54.575613 
L 227.335798 54.938688 
L 227.904941 55.093981 
L 228.284369 55.043934 
L 228.663798 54.844561 
L 229.043226 54.462062 
L 229.612369 53.51726 
L 230.371226 51.725332 
L 231.319797 49.465747 
L 231.888939 48.690008 
L 232.268368 48.552196 
L 232.647796 48.744579 
L 233.027224 49.250101 
L 233.596367 50.508521 
L 234.16551 52.308717 
L 234.734652 54.682853 
L 235.493509 58.985784 
L 236.252366 64.702021 
L 241.184935 107.587953 
L 243.65122 132.512687 
L 246.117504 158.940145 
L 247.066075 166.122818 
L 248.773503 176.768744 
L 250.291217 185.304906 
L 251.80893 193.776364 
L 254.275215 209.203477 
L 254.844358 211.259278 
L 255.603215 213.026553 
L 256.931214 215.651821 
L 260.156355 223.258971 
L 260.915212 225.94945 
L 262.243212 230.964264 
L 262.62264 231.699464 
L 263.002068 231.887465 
L 263.191783 231.752492 
L 263.571211 231.006689 
L 264.140354 228.852991 
L 265.088925 223.633243 
L 271.728922 184.339359 
L 272.867207 174.03129 
L 274.574635 158.715442 
L 276.282063 145.536751 
L 277.04092 140.999752 
L 277.799776 137.722969 
L 279.507204 131.56662 
L 280.266061 127.654336 
L 283.870631 107.134409 
L 284.629488 104.225402 
L 285.008916 103.354576 
L 285.388344 102.924147 
L 285.578059 102.889048 
L 285.957487 103.194926 
L 286.336915 103.928342 
L 286.906058 105.586697 
L 288.8032 111.747904 
L 289.372343 112.808536 
L 289.751771 113.126736 
L 290.1312 113.097601 
L 290.510628 112.641479 
L 290.890056 111.692505 
L 291.459199 109.374821 
L 292.028342 105.864813 
L 292.787198 99.598495 
L 294.68434 82.784335 
L 295.253483 79.61649 
L 295.632911 78.339557 
L 296.01234 77.800061 
L 296.202054 77.83583 
L 296.391768 78.080995 
L 296.771197 79.20321 
L 297.150625 81.19205 
L 297.719768 85.783511 
L 298.478624 94.235247 
L 299.996338 111.958516 
L 300.755195 118.069442 
L 301.514052 122.278223 
L 302.272909 125.268022 
L 303.031765 127.467729 
L 304.170051 130.373568 
L 304.739193 132.747889 
L 305.308336 136.506569 
L 305.877478 141.795616 
L 306.636335 151.053601 
L 308.154049 170.423873 
L 308.912906 176.913812 
L 309.482048 180.036088 
L 310.051191 182.096393 
L 310.620334 183.421821 
L 310.999762 183.80841 
L 311.37919 183.748639 
L 311.758619 183.31773 
L 312.327761 182.459511 
L 312.517476 182.359923 
L 312.70719 182.472307 
L 312.896904 182.858743 
L 313.276332 184.626992 
L 313.655761 187.884321 
L 314.224903 195.354716 
L 316.31176 226.7807 
L 317.260331 236.380047 
L 318.398616 245.84915 
L 318.967758 249.334543 
L 319.347187 250.516606 
L 319.536901 250.629476 
L 319.726615 250.383194 
L 320.106044 248.772932 
L 320.485472 245.779034 
L 321.434043 235.09548 
L 322.1929 227.843362 
L 322.572328 225.671492 
L 322.951757 224.500768 
L 323.331185 224.181509 
L 323.710614 224.404981 
L 324.279756 225.181162 
L 325.038613 226.250465 
L 325.607756 226.706225 
L 326.176898 227.017618 
L 326.556327 227.708382 
L 326.935755 229.134725 
L 327.504898 232.626629 
L 328.263754 237.521074 
L 328.643183 238.836793 
L 328.832897 239.043365 
L 329.022611 238.901892 
L 329.212325 238.417941 
L 329.591754 236.442042 
L 330.160896 231.334246 
L 331.299182 217.43233 
L 332.627181 201.248586 
L 335.662608 168.197017 
L 336.421465 163.855523 
L 337.55975 157.941449 
L 340.405463 140.643459 
L 340.974606 135.387711 
L 342.871748 115.974359 
L 343.440891 113.043741 
L 344.76889 107.242797 
L 346.855746 95.327714 
L 347.994032 91.929549 
L 348.37346 90.050233 
L 348.752888 87.357722 
L 349.322031 81.536388 
L 350.270602 71.50185 
L 350.65003 69.210399 
L 351.029459 68.084373 
L 351.219173 67.916576 
L 351.408887 67.984451 
L 351.788316 68.660683 
L 352.357458 69.798179 
L 352.547172 69.890303 
L 352.736887 69.759666 
L 353.116315 68.801161 
L 354.064886 65.524891 
L 354.2546 65.294405 
L 354.444314 65.342495 
L 354.634029 65.702352 
L 355.013457 67.457079 
L 355.5826 72.247878 
L 356.531171 80.83253 
L 356.910599 82.560722 
L 357.100313 82.798116 
L 357.290028 82.574382 
L 357.669456 80.87978 
L 358.428313 75.828965 
L 358.618027 75.168186 
L 358.807741 74.948874 
L 358.997455 75.163692 
L 359.376884 76.712583 
L 359.946026 80.874773 
L 360.894597 88.577109 
L 361.084312 89.267751 
L 361.274026 89.385634 
L 361.46374 88.930007 
L 361.843168 86.644699 
L 362.602025 80.923984 
L 362.981454 79.59684 
L 363.171168 79.471648 
L 363.360882 79.680437 
L 363.550596 80.231269 
L 363.930025 82.391818 
L 364.499167 87.898439 
L 365.06831 93.085532 
L 365.258024 93.963841 
L 365.447738 94.296557 
L 365.637452 94.10335 
L 366.016881 92.459885 
L 366.965452 86.219007 
L 367.155166 85.648307 
L 367.34488 85.572989 
L 367.534594 86.069468 
L 367.914023 88.775256 
L 368.483165 96.059527 
L 369.242022 105.834649 
L 369.621451 108.318459 
L 369.811165 108.886736 
L 370.000879 109.061624 
L 370.190593 108.909307 
L 370.759736 107.973213 
L 370.94945 108.126454 
L 371.139164 108.760631 
L 371.518593 111.690313 
L 371.898021 116.748162 
L 373.415735 140.697214 
L 373.795163 142.936191 
L 373.984877 143.29382 
L 374.174592 143.29563 
L 374.55402 143.034142 
L 374.743734 143.191955 
L 374.933448 143.723605 
L 375.312877 146.122729 
L 375.692305 150.607839 
L 376.261448 161.248713 
L 377.020305 175.771343 
L 377.589447 182.482653 
L 377.968876 184.542999 
L 378.348304 185.14885 
L 378.727732 185.504067 
L 378.917447 186.006229 
L 379.296875 188.064301 
L 379.866018 193.518323 
L 381.194017 209.053025 
L 381.573446 210.511225 
L 381.76316 210.493044 
L 381.952874 210.045259 
L 382.332302 208.174152 
L 383.091159 202.412466 
L 383.660302 198.841015 
L 383.850016 198.546539 
L 384.03973 198.883435 
L 384.419159 201.160076 
L 384.988301 205.343698 
L 385.36773 206.498593 
L 385.557444 206.56564 
L 386.506015 205.93339 
L 386.695729 205.499109 
L 387.075157 203.623457 
L 387.6443 199.834469 
L 387.834014 199.229918 
L 388.023728 199.278279 
L 388.213443 200.00853 
L 388.782585 204.508408 
L 389.351728 208.180827 
L 390.490013 212.713239 
L 390.679727 212.775959 
L 390.869441 212.300717 
L 391.24887 209.783717 
L 391.818013 205.232595 
L 392.007727 204.510894 
L 392.197441 204.305339 
L 392.387155 204.489903 
L 392.956298 205.422631 
L 393.146012 205.368063 
L 393.52544 204.559403 
L 394.094583 202.576119 
L 394.474011 200.208067 
L 394.85344 195.960091 
L 396.750582 169.589266 
L 397.319724 165.568473 
L 397.888867 162.254615 
L 398.647724 155.815391 
L 399.406581 147.599278 
L 400.165437 138.524248 
L 400.544866 136.959919 
L 400.73458 136.876307 
L 401.303723 136.914363 
L 401.683151 136.862632 
L 401.872865 136.888521 
L 402.062579 136.765866 
L 402.252294 136.218909 
L 402.442008 134.968135 
L 402.821436 130.124126 
L 404.528864 102.714512 
L 404.908293 100.254405 
L 405.477435 97.619401 
L 406.236292 93.389472 
L 406.61572 88.98749 
L 407.564291 74.398175 
L 408.323148 66.261803 
L 408.512862 65.517014 
L 408.702577 65.459552 
L 409.082005 66.413209 
L 409.840862 68.370549 
L 410.030576 68.637447 
L 410.22029 68.49907 
L 410.410004 67.721248 
L 410.789433 63.92215 
L 412.307146 42.928111 
L 412.876289 38.280612 
L 413.255717 36.767768 
L 413.82486 35.468119 
L 414.204288 33.281643 
L 414.963145 25.011506 
L 416.291145 10.556198 
L 416.480859 10.062685 
L 416.670573 10.431655 
L 417.050002 13.049978 
L 417.998573 22.254436 
L 418.567715 27.960409 
L 418.947144 29.669824 
L 419.136858 29.778964 
L 419.326572 29.52865 
L 419.895715 28.210529 
L 420.085429 28.095004 
L 420.275143 28.297976 
L 420.654571 29.624086 
L 421.034 31.940611 
L 421.603142 37.186994 
L 422.361999 46.897824 
L 422.361999 46.897824 
" style="fill:none;stroke:#009afa;"/>
   </g>
   <g id="matplotlib.axis_1">
    <g id="xtick_1">
     <g id="line2d_2">
      <defs>
       <path d="M 0 0 
L 0 -2.5 
" id="m83671509bc" style="stroke:#000000;stroke-width:0.5;"/>
      </defs>
      <g>
       <use style="stroke:#000000;stroke-width:0.5;" x="42.933593" xlink:href="#m83671509bc" y="258.225354"/>
      </g>
     </g>
     <g id="text_1">
      <!-- $0.0$ -->
      <g transform="translate(36.533593 267.804104)scale(0.08 -0.08)">
       <defs>
        <path d="M 2034 4250 
Q 1547 4250 1301 3770 
Q 1056 3291 1056 2328 
Q 1056 1369 1301 889 
Q 1547 409 2034 409 
Q 2525 409 2770 889 
Q 3016 1369 3016 2328 
Q 3016 3291 2770 3770 
Q 2525 4250 2034 4250 
z
M 2034 4750 
Q 2819 4750 3233 4129 
Q 3647 3509 3647 2328 
Q 3647 1150 3233 529 
Q 2819 -91 2034 -91 
Q 1250 -91 836 529 
Q 422 1150 422 2328 
Q 422 3509 836 4129 
Q 1250 4750 2034 4750 
z
" id="DejaVuSans-30" transform="scale(0.015625)"/>
        <path d="M 684 794 
L 1344 794 
L 1344 0 
L 684 0 
L 684 794 
z
" id="DejaVuSans-2e" transform="scale(0.015625)"/>
       </defs>
       <use transform="translate(0 0.78125)" xlink:href="#DejaVuSans-30"/>
       <use transform="translate(63.623047 0.78125)" xlink:href="#DejaVuSans-2e"/>
       <use transform="translate(95.410156 0.78125)" xlink:href="#DejaVuSans-30"/>
      </g>
     </g>
    </g>
    <g id="xtick_2">
     <g id="line2d_3">
      <g>
       <use style="stroke:#000000;stroke-width:0.5;" x="137.790694" xlink:href="#m83671509bc" y="258.225354"/>
      </g>
     </g>
     <g id="text_2">
      <!-- $0.5$ -->
      <g transform="translate(131.390694 267.804104)scale(0.08 -0.08)">
       <defs>
        <path d="M 691 4666 
L 3169 4666 
L 3169 4134 
L 1269 4134 
L 1269 2991 
Q 1406 3038 1543 3061 
Q 1681 3084 1819 3084 
Q 2600 3084 3056 2656 
Q 3513 2228 3513 1497 
Q 3513 744 3044 326 
Q 2575 -91 1722 -91 
Q 1428 -91 1123 -41 
Q 819 9 494 109 
L 494 744 
Q 775 591 1075 516 
Q 1375 441 1709 441 
Q 2250 441 2565 725 
Q 2881 1009 2881 1497 
Q 2881 1984 2565 2268 
Q 2250 2553 1709 2553 
Q 1456 2553 1204 2497 
Q 953 2441 691 2322 
L 691 4666 
z
" id="DejaVuSans-35" transform="scale(0.015625)"/>
       </defs>
       <use transform="translate(0 0.78125)" xlink:href="#DejaVuSans-30"/>
       <use transform="translate(63.623047 0.78125)" xlink:href="#DejaVuSans-2e"/>
       <use transform="translate(95.410156 0.78125)" xlink:href="#DejaVuSans-35"/>
      </g>
     </g>
    </g>
    <g id="xtick_3">
     <g id="line2d_4">
      <g>
       <use style="stroke:#000000;stroke-width:0.5;" x="232.647796" xlink:href="#m83671509bc" y="258.225354"/>
      </g>
     </g>
     <g id="text_3">
      <!-- $1.0$ -->
      <g transform="translate(226.247796 267.804104)scale(0.08 -0.08)">
       <defs>
        <path d="M 794 531 
L 1825 531 
L 1825 4091 
L 703 3866 
L 703 4441 
L 1819 4666 
L 2450 4666 
L 2450 531 
L 3481 531 
L 3481 0 
L 794 0 
L 794 531 
z
" id="DejaVuSans-31" transform="scale(0.015625)"/>
       </defs>
       <use transform="translate(0 0.78125)" xlink:href="#DejaVuSans-31"/>
       <use transform="translate(63.623047 0.78125)" xlink:href="#DejaVuSans-2e"/>
       <use transform="translate(95.410156 0.78125)" xlink:href="#DejaVuSans-30"/>
      </g>
     </g>
    </g>
    <g id="xtick_4">
     <g id="line2d_5">
      <g>
       <use style="stroke:#000000;stroke-width:0.5;" x="327.504898" xlink:href="#m83671509bc" y="258.225354"/>
      </g>
     </g>
     <g id="text_4">
      <!-- $1.5$ -->
      <g transform="translate(321.104898 267.804104)scale(0.08 -0.08)">
       <use transform="translate(0 0.09375)" xlink:href="#DejaVuSans-31"/>
       <use transform="translate(63.623047 0.09375)" xlink:href="#DejaVuSans-2e"/>
       <use transform="translate(95.410156 0.09375)" xlink:href="#DejaVuSans-35"/>
      </g>
     </g>
    </g>
    <g id="xtick_5">
     <g id="line2d_6">
      <g>
       <use style="stroke:#000000;stroke-width:0.5;" x="422.361999" xlink:href="#m83671509bc" y="258.225354"/>
      </g>
     </g>
     <g id="text_5">
      <!-- $2.0$ -->
      <g transform="translate(415.961999 267.804104)scale(0.08 -0.08)">
       <defs>
        <path d="M 1228 531 
L 3431 531 
L 3431 0 
L 469 0 
L 469 531 
Q 828 903 1448 1529 
Q 2069 2156 2228 2338 
Q 2531 2678 2651 2914 
Q 2772 3150 2772 3378 
Q 2772 3750 2511 3984 
Q 2250 4219 1831 4219 
Q 1534 4219 1204 4116 
Q 875 4013 500 3803 
L 500 4441 
Q 881 4594 1212 4672 
Q 1544 4750 1819 4750 
Q 2544 4750 2975 4387 
Q 3406 4025 3406 3419 
Q 3406 3131 3298 2873 
Q 3191 2616 2906 2266 
Q 2828 2175 2409 1742 
Q 1991 1309 1228 531 
z
" id="DejaVuSans-32" transform="scale(0.015625)"/>
       </defs>
       <use transform="translate(0 0.78125)" xlink:href="#DejaVuSans-32"/>
       <use transform="translate(63.623047 0.78125)" xlink:href="#DejaVuSans-2e"/>
       <use transform="translate(95.410156 0.78125)" xlink:href="#DejaVuSans-30"/>
      </g>
     </g>
    </g>
    <g id="text_6">
     <!-- Time (s) -->
     <g transform="translate(210.285999 281.826136)scale(0.11 -0.11)">
      <defs>
       <path d="M -19 4666 
L 3928 4666 
L 3928 4134 
L 2272 4134 
L 2272 0 
L 1638 0 
L 1638 4134 
L -19 4134 
L -19 4666 
z
" id="DejaVuSans-54" transform="scale(0.015625)"/>
       <path d="M 603 3500 
L 1178 3500 
L 1178 0 
L 603 0 
L 603 3500 
z
M 603 4863 
L 1178 4863 
L 1178 4134 
L 603 4134 
L 603 4863 
z
" id="DejaVuSans-69" transform="scale(0.015625)"/>
       <path d="M 3328 2828 
Q 3544 3216 3844 3400 
Q 4144 3584 4550 3584 
Q 5097 3584 5394 3201 
Q 5691 2819 5691 2113 
L 5691 0 
L 5113 0 
L 5113 2094 
Q 5113 2597 4934 2840 
Q 4756 3084 4391 3084 
Q 3944 3084 3684 2787 
Q 3425 2491 3425 1978 
L 3425 0 
L 2847 0 
L 2847 2094 
Q 2847 2600 2669 2842 
Q 2491 3084 2119 3084 
Q 1678 3084 1418 2786 
Q 1159 2488 1159 1978 
L 1159 0 
L 581 0 
L 581 3500 
L 1159 3500 
L 1159 2956 
Q 1356 3278 1631 3431 
Q 1906 3584 2284 3584 
Q 2666 3584 2933 3390 
Q 3200 3197 3328 2828 
z
" id="DejaVuSans-6d" transform="scale(0.015625)"/>
       <path d="M 3597 1894 
L 3597 1613 
L 953 1613 
Q 991 1019 1311 708 
Q 1631 397 2203 397 
Q 2534 397 2845 478 
Q 3156 559 3463 722 
L 3463 178 
Q 3153 47 2828 -22 
Q 2503 -91 2169 -91 
Q 1331 -91 842 396 
Q 353 884 353 1716 
Q 353 2575 817 3079 
Q 1281 3584 2069 3584 
Q 2775 3584 3186 3129 
Q 3597 2675 3597 1894 
z
M 3022 2063 
Q 3016 2534 2758 2815 
Q 2500 3097 2075 3097 
Q 1594 3097 1305 2825 
Q 1016 2553 972 2059 
L 3022 2063 
z
" id="DejaVuSans-65" transform="scale(0.015625)"/>
       <path id="DejaVuSans-20" transform="scale(0.015625)"/>
       <path d="M 1984 4856 
Q 1566 4138 1362 3434 
Q 1159 2731 1159 2009 
Q 1159 1288 1364 580 
Q 1569 -128 1984 -844 
L 1484 -844 
Q 1016 -109 783 600 
Q 550 1309 550 2009 
Q 550 2706 781 3412 
Q 1013 4119 1484 4856 
L 1984 4856 
z
" id="DejaVuSans-28" transform="scale(0.015625)"/>
       <path d="M 2834 3397 
L 2834 2853 
Q 2591 2978 2328 3040 
Q 2066 3103 1784 3103 
Q 1356 3103 1142 2972 
Q 928 2841 928 2578 
Q 928 2378 1081 2264 
Q 1234 2150 1697 2047 
L 1894 2003 
Q 2506 1872 2764 1633 
Q 3022 1394 3022 966 
Q 3022 478 2636 193 
Q 2250 -91 1575 -91 
Q 1294 -91 989 -36 
Q 684 19 347 128 
L 347 722 
Q 666 556 975 473 
Q 1284 391 1588 391 
Q 1994 391 2212 530 
Q 2431 669 2431 922 
Q 2431 1156 2273 1281 
Q 2116 1406 1581 1522 
L 1381 1569 
Q 847 1681 609 1914 
Q 372 2147 372 2553 
Q 372 3047 722 3315 
Q 1072 3584 1716 3584 
Q 2034 3584 2315 3537 
Q 2597 3491 2834 3397 
z
" id="DejaVuSans-73" transform="scale(0.015625)"/>
       <path d="M 513 4856 
L 1013 4856 
Q 1481 4119 1714 3412 
Q 1947 2706 1947 2009 
Q 1947 1309 1714 600 
Q 1481 -109 1013 -844 
L 513 -844 
Q 928 -128 1133 580 
Q 1338 1288 1338 2009 
Q 1338 2731 1133 3434 
Q 928 4138 513 4856 
z
" id="DejaVuSans-29" transform="scale(0.015625)"/>
      </defs>
      <use xlink:href="#DejaVuSans-54"/>
      <use x="57.958984" xlink:href="#DejaVuSans-69"/>
      <use x="85.742188" xlink:href="#DejaVuSans-6d"/>
      <use x="183.154297" xlink:href="#DejaVuSans-65"/>
      <use x="244.677734" xlink:href="#DejaVuSans-20"/>
      <use x="276.464844" xlink:href="#DejaVuSans-28"/>
      <use x="315.478516" xlink:href="#DejaVuSans-73"/>
      <use x="367.578125" xlink:href="#DejaVuSans-29"/>
     </g>
    </g>
   </g>
   <g id="matplotlib.axis_2">
    <g id="ytick_1">
     <g id="line2d_7">
      <defs>
       <path d="M 0 0 
L 2.5 0 
" id="ma6c789c462" style="stroke:#000000;stroke-width:0.5;"/>
      </defs>
      <g>
       <use style="stroke:#000000;stroke-width:0.5;" x="42.933593" xlink:href="#ma6c789c462" y="223.530301"/>
      </g>
     </g>
     <g id="text_7">
      <!-- $-20$ -->
      <g transform="translate(22.473593 226.569676)scale(0.08 -0.08)">
       <defs>
        <path d="M 678 2272 
L 4684 2272 
L 4684 1741 
L 678 1741 
L 678 2272 
z
" id="DejaVuSans-2212" transform="scale(0.015625)"/>
       </defs>
       <use transform="translate(0 0.78125)" xlink:href="#DejaVuSans-2212"/>
       <use transform="translate(83.789062 0.78125)" xlink:href="#DejaVuSans-32"/>
       <use transform="translate(147.412109 0.78125)" xlink:href="#DejaVuSans-30"/>
      </g>
     </g>
    </g>
    <g id="ytick_2">
     <g id="line2d_8">
      <g>
       <use style="stroke:#000000;stroke-width:0.5;" x="42.933593" xlink:href="#ma6c789c462" y="165.046611"/>
      </g>
     </g>
     <g id="text_8">
      <!-- $-10$ -->
      <g transform="translate(22.473593 168.085986)scale(0.08 -0.08)">
       <use transform="translate(0 0.78125)" xlink:href="#DejaVuSans-2212"/>
       <use transform="translate(83.789062 0.78125)" xlink:href="#DejaVuSans-31"/>
       <use transform="translate(147.412109 0.78125)" xlink:href="#DejaVuSans-30"/>
      </g>
     </g>
    </g>
    <g id="ytick_3">
     <g id="line2d_9">
      <g>
       <use style="stroke:#000000;stroke-width:0.5;" x="42.933593" xlink:href="#ma6c789c462" y="106.562921"/>
      </g>
     </g>
     <g id="text_9">
      <!-- $0$ -->
      <g transform="translate(34.313593 109.602296)scale(0.08 -0.08)">
       <use transform="translate(0 0.78125)" xlink:href="#DejaVuSans-30"/>
      </g>
     </g>
    </g>
    <g id="ytick_4">
     <g id="line2d_10">
      <g>
       <use style="stroke:#000000;stroke-width:0.5;" x="42.933593" xlink:href="#ma6c789c462" y="48.079231"/>
      </g>
     </g>
     <g id="text_10">
      <!-- $10$ -->
      <g transform="translate(29.193593 51.118606)scale(0.08 -0.08)">
       <use transform="translate(0 0.78125)" xlink:href="#DejaVuSans-31"/>
       <use transform="translate(63.623047 0.78125)" xlink:href="#DejaVuSans-30"/>
      </g>
     </g>
    </g>
    <g id="text_11">
     <!-- Rodriguez Parameter $\theta_y$ (degree) -->
     <g transform="translate(15.063593 221.885)rotate(-90)scale(0.11 -0.11)">
      <defs>
       <path d="M 2841 2188 
Q 3044 2119 3236 1894 
Q 3428 1669 3622 1275 
L 4263 0 
L 3584 0 
L 2988 1197 
Q 2756 1666 2539 1819 
Q 2322 1972 1947 1972 
L 1259 1972 
L 1259 0 
L 628 0 
L 628 4666 
L 2053 4666 
Q 2853 4666 3247 4331 
Q 3641 3997 3641 3322 
Q 3641 2881 3436 2590 
Q 3231 2300 2841 2188 
z
M 1259 4147 
L 1259 2491 
L 2053 2491 
Q 2509 2491 2742 2702 
Q 2975 2913 2975 3322 
Q 2975 3731 2742 3939 
Q 2509 4147 2053 4147 
L 1259 4147 
z
" id="DejaVuSans-52" transform="scale(0.015625)"/>
       <path d="M 1959 3097 
Q 1497 3097 1228 2736 
Q 959 2375 959 1747 
Q 959 1119 1226 758 
Q 1494 397 1959 397 
Q 2419 397 2687 759 
Q 2956 1122 2956 1747 
Q 2956 2369 2687 2733 
Q 2419 3097 1959 3097 
z
M 1959 3584 
Q 2709 3584 3137 3096 
Q 3566 2609 3566 1747 
Q 3566 888 3137 398 
Q 2709 -91 1959 -91 
Q 1206 -91 779 398 
Q 353 888 353 1747 
Q 353 2609 779 3096 
Q 1206 3584 1959 3584 
z
" id="DejaVuSans-6f" transform="scale(0.015625)"/>
       <path d="M 2906 2969 
L 2906 4863 
L 3481 4863 
L 3481 0 
L 2906 0 
L 2906 525 
Q 2725 213 2448 61 
Q 2172 -91 1784 -91 
Q 1150 -91 751 415 
Q 353 922 353 1747 
Q 353 2572 751 3078 
Q 1150 3584 1784 3584 
Q 2172 3584 2448 3432 
Q 2725 3281 2906 2969 
z
M 947 1747 
Q 947 1113 1208 752 
Q 1469 391 1925 391 
Q 2381 391 2643 752 
Q 2906 1113 2906 1747 
Q 2906 2381 2643 2742 
Q 2381 3103 1925 3103 
Q 1469 3103 1208 2742 
Q 947 2381 947 1747 
z
" id="DejaVuSans-64" transform="scale(0.015625)"/>
       <path d="M 2631 2963 
Q 2534 3019 2420 3045 
Q 2306 3072 2169 3072 
Q 1681 3072 1420 2755 
Q 1159 2438 1159 1844 
L 1159 0 
L 581 0 
L 581 3500 
L 1159 3500 
L 1159 2956 
Q 1341 3275 1631 3429 
Q 1922 3584 2338 3584 
Q 2397 3584 2469 3576 
Q 2541 3569 2628 3553 
L 2631 2963 
z
" id="DejaVuSans-72" transform="scale(0.015625)"/>
       <path d="M 2906 1791 
Q 2906 2416 2648 2759 
Q 2391 3103 1925 3103 
Q 1463 3103 1205 2759 
Q 947 2416 947 1791 
Q 947 1169 1205 825 
Q 1463 481 1925 481 
Q 2391 481 2648 825 
Q 2906 1169 2906 1791 
z
M 3481 434 
Q 3481 -459 3084 -895 
Q 2688 -1331 1869 -1331 
Q 1566 -1331 1297 -1286 
Q 1028 -1241 775 -1147 
L 775 -588 
Q 1028 -725 1275 -790 
Q 1522 -856 1778 -856 
Q 2344 -856 2625 -561 
Q 2906 -266 2906 331 
L 2906 616 
Q 2728 306 2450 153 
Q 2172 0 1784 0 
Q 1141 0 747 490 
Q 353 981 353 1791 
Q 353 2603 747 3093 
Q 1141 3584 1784 3584 
Q 2172 3584 2450 3431 
Q 2728 3278 2906 2969 
L 2906 3500 
L 3481 3500 
L 3481 434 
z
" id="DejaVuSans-67" transform="scale(0.015625)"/>
       <path d="M 544 1381 
L 544 3500 
L 1119 3500 
L 1119 1403 
Q 1119 906 1312 657 
Q 1506 409 1894 409 
Q 2359 409 2629 706 
Q 2900 1003 2900 1516 
L 2900 3500 
L 3475 3500 
L 3475 0 
L 2900 0 
L 2900 538 
Q 2691 219 2414 64 
Q 2138 -91 1772 -91 
Q 1169 -91 856 284 
Q 544 659 544 1381 
z
M 1991 3584 
L 1991 3584 
z
" id="DejaVuSans-75" transform="scale(0.015625)"/>
       <path d="M 353 3500 
L 3084 3500 
L 3084 2975 
L 922 459 
L 3084 459 
L 3084 0 
L 275 0 
L 275 525 
L 2438 3041 
L 353 3041 
L 353 3500 
z
" id="DejaVuSans-7a" transform="scale(0.015625)"/>
       <path d="M 1259 4147 
L 1259 2394 
L 2053 2394 
Q 2494 2394 2734 2622 
Q 2975 2850 2975 3272 
Q 2975 3691 2734 3919 
Q 2494 4147 2053 4147 
L 1259 4147 
z
M 628 4666 
L 2053 4666 
Q 2838 4666 3239 4311 
Q 3641 3956 3641 3272 
Q 3641 2581 3239 2228 
Q 2838 1875 2053 1875 
L 1259 1875 
L 1259 0 
L 628 0 
L 628 4666 
z
" id="DejaVuSans-50" transform="scale(0.015625)"/>
       <path d="M 2194 1759 
Q 1497 1759 1228 1600 
Q 959 1441 959 1056 
Q 959 750 1161 570 
Q 1363 391 1709 391 
Q 2188 391 2477 730 
Q 2766 1069 2766 1631 
L 2766 1759 
L 2194 1759 
z
M 3341 1997 
L 3341 0 
L 2766 0 
L 2766 531 
Q 2569 213 2275 61 
Q 1981 -91 1556 -91 
Q 1019 -91 701 211 
Q 384 513 384 1019 
Q 384 1609 779 1909 
Q 1175 2209 1959 2209 
L 2766 2209 
L 2766 2266 
Q 2766 2663 2505 2880 
Q 2244 3097 1772 3097 
Q 1472 3097 1187 3025 
Q 903 2953 641 2809 
L 641 3341 
Q 956 3463 1253 3523 
Q 1550 3584 1831 3584 
Q 2591 3584 2966 3190 
Q 3341 2797 3341 1997 
z
" id="DejaVuSans-61" transform="scale(0.015625)"/>
       <path d="M 1172 4494 
L 1172 3500 
L 2356 3500 
L 2356 3053 
L 1172 3053 
L 1172 1153 
Q 1172 725 1289 603 
Q 1406 481 1766 481 
L 2356 481 
L 2356 0 
L 1766 0 
Q 1100 0 847 248 
Q 594 497 594 1153 
L 594 3053 
L 172 3053 
L 172 3500 
L 594 3500 
L 594 4494 
L 1172 4494 
z
" id="DejaVuSans-74" transform="scale(0.015625)"/>
       <path d="M 2913 2219 
L 925 2219 
Q 791 1284 928 888 
Q 1100 400 1566 400 
Q 2034 400 2391 891 
Q 2703 1322 2913 2219 
z
M 3009 2750 
Q 3094 3638 2984 3950 
Q 2813 4444 2353 4444 
Q 1875 4444 1525 3956 
Q 1250 3563 1034 2750 
L 3009 2750 
z
M 2444 4913 
Q 3194 4913 3494 4250 
Q 3794 3591 3566 2422 
Q 3341 1256 2781 594 
Q 2225 -72 1475 -72 
Q 722 -72 425 594 
Q 128 1256 353 2422 
Q 581 3591 1134 4250 
Q 1691 4913 2444 4913 
z
" id="DejaVuSans-Oblique-3b8" transform="scale(0.015625)"/>
       <path d="M 1588 -325 
Q 1188 -997 936 -1164 
Q 684 -1331 294 -1331 
L -159 -1331 
L -63 -850 
L 269 -850 
Q 509 -850 678 -719 
Q 847 -588 1056 -206 
L 1234 128 
L 459 3500 
L 1069 3500 
L 1650 819 
L 3256 3500 
L 3859 3500 
L 1588 -325 
z
" id="DejaVuSans-Oblique-79" transform="scale(0.015625)"/>
      </defs>
      <use transform="translate(0 0.234375)" xlink:href="#DejaVuSans-52"/>
      <use transform="translate(69.482422 0.234375)" xlink:href="#DejaVuSans-6f"/>
      <use transform="translate(130.664062 0.234375)" xlink:href="#DejaVuSans-64"/>
      <use transform="translate(194.140625 0.234375)" xlink:href="#DejaVuSans-72"/>
      <use transform="translate(235.253906 0.234375)" xlink:href="#DejaVuSans-69"/>
      <use transform="translate(263.037109 0.234375)" xlink:href="#DejaVuSans-67"/>
      <use transform="translate(326.513672 0.234375)" xlink:href="#DejaVuSans-75"/>
      <use transform="translate(389.892578 0.234375)" xlink:href="#DejaVuSans-65"/>
      <use transform="translate(451.416016 0.234375)" xlink:href="#DejaVuSans-7a"/>
      <use transform="translate(503.90625 0.234375)" xlink:href="#DejaVuSans-20"/>
      <use transform="translate(535.693359 0.234375)" xlink:href="#DejaVuSans-50"/>
      <use transform="translate(595.996094 0.234375)" xlink:href="#DejaVuSans-61"/>
      <use transform="translate(657.275391 0.234375)" xlink:href="#DejaVuSans-72"/>
      <use transform="translate(698.388672 0.234375)" xlink:href="#DejaVuSans-61"/>
      <use transform="translate(759.667969 0.234375)" xlink:href="#DejaVuSans-6d"/>
      <use transform="translate(857.080078 0.234375)" xlink:href="#DejaVuSans-65"/>
      <use transform="translate(918.603516 0.234375)" xlink:href="#DejaVuSans-74"/>
      <use transform="translate(957.8125 0.234375)" xlink:href="#DejaVuSans-65"/>
      <use transform="translate(1019.335938 0.234375)" xlink:href="#DejaVuSans-72"/>
      <use transform="translate(1060.449219 0.234375)" xlink:href="#DejaVuSans-20"/>
      <use transform="translate(1092.236328 0.234375)" xlink:href="#DejaVuSans-Oblique-3b8"/>
      <use transform="translate(1153.417969 -16.171875)scale(0.7)" xlink:href="#DejaVuSans-Oblique-79"/>
      <use transform="translate(1197.578125 0.234375)" xlink:href="#DejaVuSans-20"/>
      <use transform="translate(1229.365234 0.234375)" xlink:href="#DejaVuSans-28"/>
      <use transform="translate(1268.378906 0.234375)" xlink:href="#DejaVuSans-64"/>
      <use transform="translate(1331.855469 0.234375)" xlink:href="#DejaVuSans-65"/>
      <use transform="translate(1393.378906 0.234375)" xlink:href="#DejaVuSans-67"/>
      <use transform="translate(1456.855469 0.234375)" xlink:href="#DejaVuSans-72"/>
      <use transform="translate(1497.96875 0.234375)" xlink:href="#DejaVuSans-65"/>
      <use transform="translate(1559.492188 0.234375)" xlink:href="#DejaVuSans-65"/>
      <use transform="translate(1621.015625 0.234375)" xlink:href="#DejaVuSans-29"/>
     </g>
    </g>
   </g>
   <g id="line2d_11">
    <path clip-path="url(#pd3f08ada74)" d="M 42.933593 106.562921 
L 43.747615 106.666943 
L 44.66425 106.975055 
L 45.892981 107.786901 
L 47.332961 109.133105 
L 48.240429 110.300251 
L 50.105458 113.330381 
L 51.824332 116.384749 
L 53.19311 119.38589 
L 55.52624 125.090536 
L 59.54472 135.034888 
L 66.882204 150.62724 
L 68.233279 152.53517 
L 69.359554 153.790524 
L 70.335778 154.498972 
L 71.384141 154.841723 
L 72.625203 154.963812 
L 73.407883 154.838514 
L 74.074716 154.554379 
L 74.969528 153.780326 
L 75.75982 152.814496 
L 77.193493 150.72966 
L 78.187382 149.004539 
L 80.904719 144.040296 
L 82.815778 140.934429 
L 86.915934 133.481945 
L 93.50389 119.803859 
L 96.937955 111.789214 
L 98.528851 109.134561 
L 99.52596 107.769488 
L 100.574857 106.721883 
L 103.403908 104.756629 
L 104.360346 104.303533 
L 105.319298 104.181681 
L 106.27825 104.304875 
L 106.917552 104.495262 
L 107.882271 105.054825 
L 108.858523 106.085536 
L 110.195358 107.992514 
L 111.637687 110.465734 
L 112.719434 112.907165 
L 114.0388 116.658904 
L 115.506193 121.626805 
L 116.874179 127.157999 
L 120.708921 143.189375 
L 122.352382 149.174887 
L 123.995843 154.224937 
L 125.446718 158.172023 
L 126.439566 160.346754 
L 127.432414 161.992338 
L 128.683439 163.516754 
L 129.651412 164.349608 
L 130.42779 164.747744 
L 131.267916 164.991475 
L 134.171645 165.353148 
L 134.931395 165.070722 
L 135.455522 164.708888 
L 136.241713 163.859503 
L 137.037955 162.635341 
L 137.86276 160.880546 
L 138.687565 158.49981 
L 139.788432 154.483167 
L 141.4448 147.434416 
L 143.315585 138.526097 
L 148.42137 113.555854 
L 149.858888 107.735017 
L 151.215588 103.106198 
L 152.449584 99.633506 
L 153.730695 96.74589 
L 156.490125 91.283266 
L 157.40538 89.954204 
L 158.351501 88.930142 
L 159.305325 88.19125 
L 160.25915 87.834155 
L 161.046756 87.870154 
L 162.641185 88.354654 
L 164.339231 88.973307 
L 165.108188 89.501635 
L 165.921981 90.369494 
L 166.692924 91.523482 
L 167.558656 93.267526 
L 168.284154 95.248446 
L 169.192655 98.460315 
L 170.488039 104.221427 
L 172.445254 114.280078 
L 175.272342 130.408457 
L 177.229557 142.54365 
L 180.542624 163.646712 
L 182.391896 173.766785 
L 184.333218 182.897571 
L 186.768306 193.41197 
L 187.997886 197.707318 
L 188.98155 200.38909 
L 189.719298 201.843378 
L 190.21113 202.500221 
L 190.702962 202.871894 
L 191.194794 202.965123 
L 191.694455 202.817521 
L 192.458784 202.208435 
L 193.794102 200.693641 
L 195.163539 198.890191 
L 196.102532 197.310205 
L 196.98479 195.422172 
L 197.8699 192.996687 
L 198.767265 189.869887 
L 199.700672 185.677182 
L 200.583804 180.69354 
L 201.90085 171.894344 
L 204.482131 154.473847 
L 206.147914 144.864366 
L 208.129318 133.502764 
L 209.274175 125.439447 
L 213.75843 91.949104 
L 215.461272 81.934189 
L 217.882258 67.64268 
L 219.188706 60.300944 
L 220.077681 56.32002 
L 220.989139 53.160568 
L 221.674172 51.413507 
L 222.359205 50.254 
L 222.815894 49.88978 
L 223.210692 49.847914 
L 223.610933 50.049602 
L 224.054319 50.526868 
L 224.955501 52.009 
L 226.223603 54.039614 
L 227.038307 54.880917 
L 227.57548 55.194538 
L 228.164299 55.252618 
L 228.595896 55.039281 
L 229.031758 54.566833 
L 229.699535 53.349185 
L 231.610708 48.99872 
L 232.094394 48.598505 
L 232.342458 48.579614 
L 232.590522 48.685067 
L 233.08665 49.257368 
L 233.582778 50.271015 
L 234.078905 51.717839 
L 234.823097 54.83813 
L 235.567289 59.340253 
L 236.559544 67.402335 
L 239.018256 88.550208 
L 240.590211 102.114779 
L 242.951085 125.016822 
L 244.565861 143.128289 
L 245.788139 155.966146 
L 246.731034 163.64102 
L 248.132147 172.87919 
L 249.639094 181.49573 
L 251.593661 192.099548 
L 254.215821 208.625072 
L 254.84675 210.873503 
L 255.620865 212.776613 
L 257.283176 216.627668 
L 258.443084 219.178459 
L 259.6203 221.63359 
L 260.34783 223.889317 
L 262.442997 231.305004 
L 262.724578 231.560794 
L 262.979636 231.516424 
L 263.275184 231.138599 
L 263.722589 229.924117 
L 264.280079 227.528581 
L 265.293515 221.936923 
L 271.507767 184.929853 
L 272.660835 174.864281 
L 275.252928 152.108366 
L 276.366167 143.84896 
L 277.15707 139.690558 
L 278.07232 136.2815 
L 279.012246 132.825045 
L 279.917826 128.544951 
L 281.437372 119.990148 
L 283.987754 105.56282 
L 284.504925 103.750576 
L 284.955238 102.84658 
L 285.286712 102.605074 
L 285.640265 102.708747 
L 286.008814 103.175874 
L 286.507824 104.284815 
L 287.309173 106.780778 
L 289.026686 112.313116 
L 289.533487 113.196325 
L 289.878911 113.422238 
L 290.120617 113.363754 
L 290.365046 113.10218 
L 290.731691 112.294918 
L 291.22055 110.424057 
L 291.810008 107.033172 
L 292.595732 100.881607 
L 294.967706 81.025936 
L 295.50069 78.579777 
L 295.790037 77.838664 
L 296.079384 77.595664 
L 296.224057 77.676448 
L 296.520117 78.285027 
L 296.822891 79.529897 
L 297.262909 82.414158 
L 297.801603 87.485285 
L 298.884853 100.509189 
L 299.968939 112.315595 
L 300.653017 117.709565 
L 301.503147 122.638407 
L 302.266974 125.807271 
L 302.922907 127.607826 
L 304.121602 130.102515 
L 304.487275 131.448812 
L 305.039674 134.633598 
L 305.601768 139.532074 
L 306.377081 148.687066 
L 308.121535 170.541924 
L 308.896847 176.880924 
L 309.480341 180.097658 
L 310.069719 182.430211 
L 310.464306 183.46081 
L 310.858892 183.954527 
L 311.056186 183.966342 
L 311.384319 183.629999 
L 312.517387 181.678164 
L 312.717425 181.914109 
L 312.917463 182.520894 
L 313.323612 185.09368 
L 313.729896 189.508804 
L 314.509472 201.518583 
L 315.713994 220.160839 
L 316.58885 230.236247 
L 318.053634 243.861777 
L 318.779511 249.253449 
L 319.163714 250.765403 
L 319.427668 250.997315 
L 319.559646 250.829661 
L 319.8236 249.901539 
L 320.228365 247.017194 
L 320.890117 239.7813 
L 321.846992 229.547754 
L 322.344809 226.192554 
L 322.745774 224.785747 
L 323.057828 224.372364 
L 323.37162 224.372707 
L 323.698097 224.652271 
L 324.975867 226.073666 
L 325.356058 226.082935 
L 325.870944 226.05294 
L 326.131134 226.281327 
L 326.467483 227.090664 
L 326.837115 228.780781 
L 327.454865 233.030807 
L 328.137033 237.481123 
L 328.50643 238.708252 
L 328.6958 238.892932 
L 328.894026 238.745928 
L 329.099318 238.217497 
L 329.415675 236.670209 
L 329.843096 233.322636 
L 330.633535 224.772853 
L 335.108659 171.596175 
L 335.868436 166.007617 
L 336.760022 161.212497 
L 337.751307 155.639786 
L 339.129113 148.208485 
L 339.85471 144.279173 
L 340.474532 139.525334 
L 341.144522 132.314165 
L 342.29328 119.729233 
L 342.878012 115.453693 
L 343.653128 111.59282 
L 344.733076 106.058995 
L 346.236501 97.108319 
L 346.867046 94.74134 
L 348.039647 91.204156 
L 348.492779 87.893784 
L 349.234219 80.082013 
L 350.136239 70.868817 
L 350.528892 68.619716 
L 350.866177 67.850688 
L 351.097396 67.832576 
L 351.441317 68.235522 
L 352.002394 68.887664 
L 352.21432 68.87417 
L 352.46252 68.566978 
L 352.82398 67.548625 
L 353.957589 63.47677 
L 354.129828 63.41277 
L 354.309743 63.644144 
L 354.582084 64.595955 
L 354.966923 67.170908 
L 355.563239 73.293318 
L 356.297355 80.600831 
L 356.573736 81.993363 
L 356.763942 82.316111 
L 356.86085 82.276523 
L 357.063848 81.786585 
L 357.38212 80.109668 
L 358.286024 74.567365 
L 358.470121 74.253517 
L 358.567853 74.265385 
L 358.7768 74.713568 
L 359.119239 76.555618 
L 359.725468 81.816491 
L 360.384489 87.303201 
L 360.695075 88.746498 
L 360.905253 89.041018 
L 361.011902 88.949906 
L 361.2252 88.271959 
L 361.580663 85.878171 
L 362.526546 78.62551 
L 362.819719 77.905503 
L 362.997628 77.924956 
L 363.204271 78.380677 
L 363.514236 79.978625 
L 363.93571 83.868029 
L 364.786452 92.571472 
L 365.034831 93.508161 
L 365.225698 93.538961 
L 365.434509 92.968562 
L 365.759489 91.095588 
L 366.784202 83.949395 
L 366.899563 83.775245 
L 367.014924 83.824647 
L 367.252193 84.655013 
L 367.618763 87.649505 
L 368.232532 95.727996 
L 368.940831 104.635107 
L 369.300256 106.751851 
L 369.508581 107.131943 
L 369.706036 107.037119 
L 370.017291 106.31241 
L 370.484184 105.217985 
L 370.605991 105.225425 
L 370.731225 105.439486 
L 370.981693 106.640437 
L 371.362767 110.457946 
L 371.931601 119.785836 
L 372.816014 135.241592 
L 373.242604 139.057549 
L 373.527955 139.960994 
L 373.67063 140.016817 
L 374.37707 139.515818 
L 374.615807 140.171711 
L 374.876778 141.764045 
L 375.284797 146.474283 
L 375.82755 156.605642 
L 376.757184 174.226619 
L 377.22928 179.282408 
L 377.602912 180.952833 
L 377.90777 181.393452 
L 378.241633 181.74677 
L 378.482793 182.272729 
L 378.752251 183.370106 
L 379.038238 185.375019 
L 379.46722 190.269583 
L 380.70331 206.296104 
L 381.097212 208.23287 
L 381.228513 208.389768 
L 381.359813 208.313925 
L 381.622415 207.520403 
L 382.016317 205.128824 
L 383.014613 198.265545 
L 383.243045 197.901401 
L 383.357261 198.001752 
L 383.586912 198.726336 
L 384.061299 201.589702 
L 384.663511 204.864095 
L 385.092435 206.137927 
L 385.436561 206.740279 
L 385.677094 206.835886 
L 385.920242 206.414111 
L 386.19281 205.095306 
L 387.165846 198.766868 
L 387.259364 198.708064 
L 387.448043 198.994663 
L 387.742854 200.238841 
L 389.004439 207.598162 
L 389.651021 211.242884 
L 389.892401 211.524044 
L 390.011129 211.326282 
L 390.223975 210.476043 
L 391.291617 205.09824 
L 391.517356 204.888242 
L 391.843985 204.927831 
L 392.109761 205.166822 
L 392.488999 205.882465 
L 393.144663 207.298771 
L 393.312113 207.311979 
L 393.510648 206.914793 
L 393.792663 205.452665 
L 394.150103 202.15505 
L 394.814384 193.327992 
L 396.013006 177.33038 
L 396.564336 173.354125 
L 397.595733 166.410811 
L 398.043311 162.101691 
L 398.801748 151.563761 
L 399.39963 144.554019 
L 399.88184 140.894804 
L 400.193561 139.641199 
L 400.403992 139.428353 
L 400.616775 139.661411 
L 401.17297 140.769859 
L 401.384766 140.673442 
L 401.599168 139.984908 
L 401.917094 137.865037 
L 402.386827 132.858959 
L 402.96644 123.491145 
L 403.671423 112.225281 
L 404.278111 106.768641 
L 404.642124 104.742829 
L 405.256748 102.766238 
L 405.633044 99.519327 
L 406.260205 91.066862 
L 407.551804 70.645634 
L 408.024323 67.351547 
L 408.272122 66.934411 
L 408.404072 67.155874 
L 409.209359 69.636149 
L 409.354896 69.663165 
L 409.503486 69.575913 
L 409.800664 68.915736 
L 410.104033 67.114588 
L 410.407402 63.707578 
L 411.428841 50.288294 
L 412.066374 45.547495 
L 412.740318 42.34618 
L 413.363007 39.455684 
L 413.688364 36.582407 
L 414.242091 29.14 
L 415.312786 14.701256 
L 415.69911 11.506557 
L 415.910167 10.854498 
L 416.020742 10.846357 
L 416.245347 11.3854 
L 416.590368 13.203718 
L 417.135817 17.702796 
L 417.93986 24.624174 
L 418.186243 25.449609 
L 418.309717 25.504913 
L 418.556665 25.061708 
L 419.371347 22.695159 
L 419.464983 22.724292 
L 419.652255 23.149299 
L 420.007396 24.960694 
L 420.615525 29.16351 
L 420.994904 33.58073 
L 421.94285 46.033166 
L 422.1939 47.326232 
L 422.361999 47.618921 
L 422.361999 47.618921 
" style="fill:none;stroke:#e36f47;"/>
   </g>
   <g id="patch_3">
    <path d="M 42.933593 258.225354 
L 42.933593 2.834646 
" style="fill:none;stroke:#000000;stroke-linecap:square;stroke-linejoin:miter;"/>
   </g>
   <g id="patch_4">
    <path d="M 42.933593 258.225354 
L 422.361999 258.225354 
" style="fill:none;stroke:#000000;stroke-linecap:square;stroke-linejoin:miter;"/>
   </g>
   <g id="legend_1">
    <g id="patch_5">
     <path d="M 299.041999 39.119646 
L 418.361999 39.119646 
L 418.361999 6.834646 
L 299.041999 6.834646 
z
" style="fill:#ffffff;stroke:#000000;stroke-linejoin:miter;"/>
    </g>
    <g id="line2d_12">
     <path d="M 305.441999 16.513396 
L 321.441999 16.513396 
" style="fill:none;stroke:#009afa;stroke-linejoin:miter;"/>
    </g>
    <g id="line2d_13"/>
    <g id="text_12">
     <!-- GXBeam -->
     <g transform="translate(327.841999 19.313396)scale(0.08 -0.08)">
      <defs>
       <path d="M 3809 666 
L 3809 1919 
L 2778 1919 
L 2778 2438 
L 4434 2438 
L 4434 434 
Q 4069 175 3628 42 
Q 3188 -91 2688 -91 
Q 1594 -91 976 548 
Q 359 1188 359 2328 
Q 359 3472 976 4111 
Q 1594 4750 2688 4750 
Q 3144 4750 3555 4637 
Q 3966 4525 4313 4306 
L 4313 3634 
Q 3963 3931 3569 4081 
Q 3175 4231 2741 4231 
Q 1884 4231 1454 3753 
Q 1025 3275 1025 2328 
Q 1025 1384 1454 906 
Q 1884 428 2741 428 
Q 3075 428 3337 486 
Q 3600 544 3809 666 
z
" id="DejaVuSans-47" transform="scale(0.015625)"/>
       <path d="M 403 4666 
L 1081 4666 
L 2241 2931 
L 3406 4666 
L 4084 4666 
L 2584 2425 
L 4184 0 
L 3506 0 
L 2194 1984 
L 872 0 
L 191 0 
L 1856 2491 
L 403 4666 
z
" id="DejaVuSans-58" transform="scale(0.015625)"/>
       <path d="M 1259 2228 
L 1259 519 
L 2272 519 
Q 2781 519 3026 730 
Q 3272 941 3272 1375 
Q 3272 1813 3026 2020 
Q 2781 2228 2272 2228 
L 1259 2228 
z
M 1259 4147 
L 1259 2741 
L 2194 2741 
Q 2656 2741 2882 2914 
Q 3109 3088 3109 3444 
Q 3109 3797 2882 3972 
Q 2656 4147 2194 4147 
L 1259 4147 
z
M 628 4666 
L 2241 4666 
Q 2963 4666 3353 4366 
Q 3744 4066 3744 3513 
Q 3744 3084 3544 2831 
Q 3344 2578 2956 2516 
Q 3422 2416 3680 2098 
Q 3938 1781 3938 1306 
Q 3938 681 3513 340 
Q 3088 0 2303 0 
L 628 0 
L 628 4666 
z
" id="DejaVuSans-42" transform="scale(0.015625)"/>
      </defs>
      <use xlink:href="#DejaVuSans-47"/>
      <use x="77.490234" xlink:href="#DejaVuSans-58"/>
      <use x="145.996094" xlink:href="#DejaVuSans-42"/>
      <use x="214.599609" xlink:href="#DejaVuSans-65"/>
      <use x="276.123047" xlink:href="#DejaVuSans-61"/>
      <use x="337.402344" xlink:href="#DejaVuSans-6d"/>
     </g>
    </g>
    <g id="line2d_14">
     <path d="M 305.441999 28.255896 
L 321.441999 28.255896 
" style="fill:none;stroke:#e36f47;stroke-linejoin:miter;"/>
    </g>
    <g id="line2d_15"/>
    <g id="text_13">
     <!-- DifferentialEquations -->
     <g transform="translate(327.841999 31.055896)scale(0.08 -0.08)">
      <defs>
       <path d="M 1259 4147 
L 1259 519 
L 2022 519 
Q 2988 519 3436 956 
Q 3884 1394 3884 2338 
Q 3884 3275 3436 3711 
Q 2988 4147 2022 4147 
L 1259 4147 
z
M 628 4666 
L 1925 4666 
Q 3281 4666 3915 4102 
Q 4550 3538 4550 2338 
Q 4550 1131 3912 565 
Q 3275 0 1925 0 
L 628 0 
L 628 4666 
z
" id="DejaVuSans-44" transform="scale(0.015625)"/>
       <path d="M 2375 4863 
L 2375 4384 
L 1825 4384 
Q 1516 4384 1395 4259 
Q 1275 4134 1275 3809 
L 1275 3500 
L 2222 3500 
L 2222 3053 
L 1275 3053 
L 1275 0 
L 697 0 
L 697 3053 
L 147 3053 
L 147 3500 
L 697 3500 
L 697 3744 
Q 697 4328 969 4595 
Q 1241 4863 1831 4863 
L 2375 4863 
z
" id="DejaVuSans-66" transform="scale(0.015625)"/>
       <path d="M 3513 2113 
L 3513 0 
L 2938 0 
L 2938 2094 
Q 2938 2591 2744 2837 
Q 2550 3084 2163 3084 
Q 1697 3084 1428 2787 
Q 1159 2491 1159 1978 
L 1159 0 
L 581 0 
L 581 3500 
L 1159 3500 
L 1159 2956 
Q 1366 3272 1645 3428 
Q 1925 3584 2291 3584 
Q 2894 3584 3203 3211 
Q 3513 2838 3513 2113 
z
" id="DejaVuSans-6e" transform="scale(0.015625)"/>
       <path d="M 603 4863 
L 1178 4863 
L 1178 0 
L 603 0 
L 603 4863 
z
" id="DejaVuSans-6c" transform="scale(0.015625)"/>
       <path d="M 628 4666 
L 3578 4666 
L 3578 4134 
L 1259 4134 
L 1259 2753 
L 3481 2753 
L 3481 2222 
L 1259 2222 
L 1259 531 
L 3634 531 
L 3634 0 
L 628 0 
L 628 4666 
z
" id="DejaVuSans-45" transform="scale(0.015625)"/>
       <path d="M 947 1747 
Q 947 1113 1208 752 
Q 1469 391 1925 391 
Q 2381 391 2643 752 
Q 2906 1113 2906 1747 
Q 2906 2381 2643 2742 
Q 2381 3103 1925 3103 
Q 1469 3103 1208 2742 
Q 947 2381 947 1747 
z
M 2906 525 
Q 2725 213 2448 61 
Q 2172 -91 1784 -91 
Q 1150 -91 751 415 
Q 353 922 353 1747 
Q 353 2572 751 3078 
Q 1150 3584 1784 3584 
Q 2172 3584 2448 3432 
Q 2725 3281 2906 2969 
L 2906 3500 
L 3481 3500 
L 3481 -1331 
L 2906 -1331 
L 2906 525 
z
" id="DejaVuSans-71" transform="scale(0.015625)"/>
      </defs>
      <use xlink:href="#DejaVuSans-44"/>
      <use x="77.001953" xlink:href="#DejaVuSans-69"/>
      <use x="104.785156" xlink:href="#DejaVuSans-66"/>
      <use x="139.990234" xlink:href="#DejaVuSans-66"/>
      <use x="175.195312" xlink:href="#DejaVuSans-65"/>
      <use x="236.71875" xlink:href="#DejaVuSans-72"/>
      <use x="275.582031" xlink:href="#DejaVuSans-65"/>
      <use x="337.105469" xlink:href="#DejaVuSans-6e"/>
      <use x="400.484375" xlink:href="#DejaVuSans-74"/>
      <use x="439.693359" xlink:href="#DejaVuSans-69"/>
      <use x="467.476562" xlink:href="#DejaVuSans-61"/>
      <use x="528.755859" xlink:href="#DejaVuSans-6c"/>
      <use x="556.539062" xlink:href="#DejaVuSans-45"/>
      <use x="619.722656" xlink:href="#DejaVuSans-71"/>
      <use x="683.199219" xlink:href="#DejaVuSans-75"/>
      <use x="746.578125" xlink:href="#DejaVuSans-61"/>
      <use x="807.857422" xlink:href="#DejaVuSans-74"/>
      <use x="847.066406" xlink:href="#DejaVuSans-69"/>
      <use x="874.849609" xlink:href="#DejaVuSans-6f"/>
      <use x="936.03125" xlink:href="#DejaVuSans-6e"/>
      <use x="999.410156" xlink:href="#DejaVuSans-73"/>
     </g>
    </g>
   </g>
  </g>
 </g>
 <defs>
  <clipPath id="pd3f08ada74">
   <rect height="255.390709" width="379.428407" x="42.933593" y="2.834646"/>
  </clipPath>
 </defs>
</svg>
