<?xml version="1.0" encoding="utf-8" standalone="no"?>
<!DOCTYPE svg PUBLIC "-//W3C//DTD SVG 1.1//EN"
  "http://www.w3.org/Graphics/SVG/1.1/DTD/svg11.dtd">
<svg height="288pt" version="1.1" viewBox="0 0 432 288" width="432pt" xmlns="http://www.w3.org/2000/svg" xmlns:xlink="http://www.w3.org/1999/xlink">
 <metadata>
  <rdf:RDF xmlns:cc="http://creativecommons.org/ns#" xmlns:dc="http://purl.org/dc/elements/1.1/" xmlns:rdf="http://www.w3.org/1999/02/22-rdf-syntax-ns#">
   <cc:Work>
    <dc:type rdf:resource="http://purl.org/dc/dcmitype/StillImage"/>
    <dc:date>2021-11-15T21:25:39.618099</dc:date>
    <dc:format>image/svg+xml</dc:format>
    <dc:creator>
     <cc:Agent>
      <dc:title>Matplotlib v3.4.3, https://matplotlib.org/</dc:title>
     </cc:Agent>
    </dc:creator>
   </cc:Work>
  </rdf:RDF>
 </metadata>
 <defs>
  <style type="text/css">*{stroke-linecap:butt;stroke-linejoin:round;}</style>
 </defs>
 <g id="figure_1">
  <g id="patch_1">
   <path d="M 0 288 
L 432 288 
L 432 0 
L 0 0 
z
" style="fill:#ffffff;"/>
  </g>
  <g id="axes_1">
   <g id="patch_2">
    <path d="M 64.557544 258.225354 
L 422.361999 258.225354 
L 422.361999 2.834646 
L 64.557544 2.834646 
z
" style="fill:#ffffff;"/>
   </g>
   <g id="line2d_1">
    <path clip-path="url(#pd61d7d20d6)" d="M 64.557544 133.151173 
L 70.819122 133.046266 
L 71.713633 132.969544 
L 72.965948 132.88891 
L 74.218264 132.798677 
L 74.933873 132.736815 
L 76.543993 132.657602 
L 77.259602 132.594561 
L 77.796309 132.651739 
L 78.333015 132.621909 
L 78.869722 132.645994 
L 79.406429 132.657985 
L 79.943135 132.609452 
L 80.658744 132.629303 
L 81.195451 132.601245 
L 81.91106 132.614919 
L 82.447767 132.568689 
L 83.163375 132.585974 
L 83.700082 132.586656 
L 84.415691 132.671921 
L 84.952398 132.698681 
L 85.489104 132.818041 
L 86.383616 132.92818 
L 86.920322 132.996169 
L 89.782758 133.125109 
L 95.328727 132.6338 
L 96.581043 133.008502 
L 100.337989 135.002495 
L 101.948109 135.285009 
L 102.484816 135.181627 
L 103.200425 134.847283 
L 103.558229 134.601349 
L 105.883958 132.039272 
L 107.136274 130.464536 
L 108.030785 129.46589 
L 108.567492 129.1458 
L 109.104198 128.84634 
L 110.177612 129.040845 
L 110.714319 129.475379 
L 111.966634 131.060845 
L 113.397852 133.571955 
L 115.186874 136.835567 
L 116.260288 138.169367 
L 117.333701 138.860681 
L 118.04931 138.900176 
L 118.586017 138.660444 
L 119.301625 138.029478 
L 120.017234 137.184842 
L 121.26955 135.344923 
L 122.521866 133.737584 
L 123.595279 132.683931 
L 124.310888 132.271188 
L 125.026497 132.071255 
L 127.352226 131.892075 
L 128.246737 131.549795 
L 129.32015 130.62749 
L 130.393564 129.181026 
L 133.792706 123.668962 
L 134.508315 123.090908 
L 135.045021 123.241332 
L 135.581728 123.454053 
L 135.939533 123.905655 
L 136.834044 125.531532 
L 137.37075 127.024917 
L 138.444164 130.677663 
L 140.054284 137.00787 
L 141.306599 140.960688 
L 141.843306 142.141296 
L 142.737817 143.647626 
L 143.453426 143.942697 
L 143.811231 143.965181 
L 144.169035 143.799344 
L 145.421351 142.594243 
L 146.13696 141.674832 
L 147.74708 140.36035 
L 148.104884 140.285541 
L 148.641591 140.070785 
L 149.178297 140.242924 
L 150.251711 140.827033 
L 151.146222 141.483629 
L 151.504026 141.531723 
L 151.861831 141.65002 
L 152.219635 141.589998 
L 152.935244 141.051322 
L 153.650853 140.234607 
L 154.18756 139.167506 
L 155.082071 137.041527 
L 156.155484 133.300402 
L 157.765604 126.5575 
L 159.375724 119.996297 
L 160.270236 116.958042 
L 161.164747 114.653582 
L 161.701453 113.754552 
L 162.595965 112.948038 
L 162.953769 113.085232 
L 163.669378 113.548778 
L 164.206085 114.516606 
L 164.921694 116.139407 
L 165.816205 119.063512 
L 166.889618 123.60858 
L 168.141934 129.958186 
L 170.28876 140.412884 
L 171.183271 143.850797 
L 171.89888 145.86 
L 172.435587 146.911428 
L 173.151196 147.681871 
L 173.509 147.894972 
L 174.224609 147.956868 
L 175.476925 147.595179 
L 176.013632 147.296881 
L 176.371436 147.115097 
L 177.265947 146.447677 
L 177.802654 146.178 
L 178.160458 146.157007 
L 178.697165 145.880932 
L 179.591676 145.89499 
L 180.66509 145.533778 
L 181.022894 145.366932 
L 182.27521 144.092974 
L 183.527525 141.79243 
L 184.064232 140.241099 
L 185.137645 136.019663 
L 186.389961 129.365333 
L 188.178983 117.941043 
L 189.789103 107.710506 
L 190.683614 103.177874 
L 191.399223 100.37099 
L 191.93593 99.1715 
L 192.472637 98.515136 
L 192.651539 98.457386 
L 192.830441 98.569755 
L 193.188246 99.179708 
L 193.724952 100.642195 
L 194.261659 103.247444 
L 194.977268 108.34141 
L 195.692877 115.005569 
L 197.124095 131.699668 
L 198.37641 146.029171 
L 199.092019 152.564266 
L 199.807628 156.960108 
L 200.165432 158.479524 
L 200.523237 159.11306 
L 200.881041 159.089339 
L 201.059944 158.944337 
L 201.417748 158.138404 
L 201.954455 155.73336 
L 202.670064 151.089619 
L 204.995793 135.00086 
L 205.532499 133.412719 
L 205.890304 133.085052 
L 206.069206 133.216251 
L 206.42701 133.967558 
L 206.784815 135.353739 
L 207.321521 138.582256 
L 207.858228 142.940672 
L 209.468348 157.34855 
L 210.183957 161.824148 
L 210.720664 163.843816 
L 211.078468 164.618522 
L 211.257371 164.721971 
L 211.615175 164.394151 
L 211.972979 163.672956 
L 212.330784 162.337963 
L 213.046393 157.983303 
L 213.583099 153.314288 
L 214.656513 141.871997 
L 216.266633 125.005246 
L 216.982242 119.244127 
L 217.876753 114.075918 
L 218.592362 111.773689 
L 219.129069 110.567021 
L 220.02358 109.332095 
L 220.560286 108.847579 
L 221.812602 107.190116 
L 222.707113 105.143333 
L 224.85394 99.223756 
L 225.211744 98.884321 
L 225.569549 99.067144 
L 225.927353 99.666041 
L 226.285158 100.900235 
L 226.821864 103.8717 
L 227.537473 109.651302 
L 228.253082 117.425376 
L 229.505398 133.97371 
L 230.757713 150.49882 
L 231.652224 160.311351 
L 232.367833 166.220654 
L 232.90454 169.581389 
L 233.441247 171.403914 
L 233.620149 171.745839 
L 233.799051 171.788674 
L 233.977953 171.549255 
L 234.335758 170.510516 
L 234.693562 168.676262 
L 235.409171 162.406187 
L 237.198194 145.261801 
L 238.092705 140.280198 
L 238.629411 138.845826 
L 238.808314 138.495246 
L 238.987216 138.400314 
L 239.34502 138.987563 
L 239.702825 139.954259 
L 240.060629 141.674034 
L 240.95514 148.575885 
L 241.849651 156.328434 
L 242.386358 159.778602 
L 242.744163 160.868545 
L 242.923065 161.100817 
L 243.101967 161.117562 
L 243.280869 160.915366 
L 243.638674 159.681871 
L 244.17538 156.799403 
L 244.890989 151.493 
L 245.606598 145.003952 
L 246.322207 136.393101 
L 247.216718 122.581655 
L 249.184643 91.157036 
L 249.900252 83.585646 
L 250.436958 80.051996 
L 250.973665 77.982674 
L 251.33147 77.296032 
L 251.689274 77.175354 
L 251.868176 77.233347 
L 252.225981 77.706818 
L 252.583785 78.842774 
L 253.120492 81.591326 
L 253.657198 86.00421 
L 254.372807 94.541512 
L 255.267319 108.515444 
L 257.235243 140.275178 
L 258.666461 158.92007 
L 259.203168 163.56544 
L 259.560972 165.052013 
L 259.739874 165.283093 
L 259.918776 165.137583 
L 260.276581 163.929314 
L 260.813288 160.141196 
L 262.960114 141.82049 
L 263.496821 140.202374 
L 263.675723 139.876885 
L 263.854625 139.789411 
L 264.033528 139.988617 
L 264.570234 141.237852 
L 264.928039 142.849102 
L 265.643648 148.75329 
L 266.538159 159.60587 
L 267.43267 169.77796 
L 267.969377 173.064839 
L 268.327181 174.191445 
L 268.506083 174.147697 
L 268.863888 173.488104 
L 269.221692 171.906588 
L 269.758399 167.293128 
L 270.65291 158.040486 
L 273.336444 129.849289 
L 273.694248 128.025445 
L 273.87315 127.57829 
L 274.052052 127.494344 
L 274.588759 127.899763 
L 274.946564 128.862858 
L 275.48327 130.767412 
L 276.377781 132.375191 
L 276.914488 132.357662 
L 277.272293 132.501915 
L 278.166804 131.793355 
L 278.345706 131.722753 
L 278.70351 130.946846 
L 279.240217 129.231077 
L 279.598021 127.179463 
L 280.31363 120.772901 
L 281.029239 110.97933 
L 283.354968 79.237257 
L 284.428382 68.23513 
L 284.965088 64.058279 
L 285.322893 62.579955 
L 285.501795 62.29731 
L 285.680697 62.312593 
L 285.859599 62.604876 
L 286.038502 63.268153 
L 286.396306 66.177958 
L 286.754111 71.113843 
L 287.290817 82.062548 
L 288.006426 102.725213 
L 289.974351 165.426321 
L 290.68996 181.387292 
L 291.226666 189.91544 
L 291.584471 193.49776 
L 291.942275 195.449178 
L 292.121177 195.80223 
L 292.30008 195.65473 
L 292.478982 194.901945 
L 292.836786 191.729509 
L 293.194591 186.68217 
L 293.731297 175.662688 
L 295.52032 135.257049 
L 296.057026 129.694244 
L 296.414831 127.864524 
L 296.772635 127.285434 
L 296.951538 127.445008 
L 297.13044 127.925679 
L 297.488244 129.852482 
L 298.024951 134.769471 
L 298.561658 142.986616 
L 299.456169 161.293529 
L 300.35068 178.92033 
L 300.708484 183.559264 
L 301.066289 186.08081 
L 301.245191 186.571737 
L 301.424093 186.279774 
L 301.781898 183.502884 
L 302.318604 177.405621 
L 303.392018 162.653726 
L 303.749822 159.39379 
L 304.286529 157.171434 
L 304.823236 155.433996 
L 305.002138 155.129643 
L 305.18104 154.532334 
L 305.538845 152.190545 
L 306.075551 147.264036 
L 306.612258 138.551489 
L 307.506769 118.86468 
L 308.222378 104.475898 
L 308.580182 99.687697 
L 308.937987 97.860977 
L 309.116889 97.942732 
L 309.295791 98.397906 
L 309.653596 100.553522 
L 310.190302 104.659084 
L 310.548107 105.992575 
L 310.727009 106.228776 
L 310.905911 106.117246 
L 311.084814 105.631821 
L 311.442618 103.550234 
L 312.873836 93.179862 
L 313.052738 92.840357 
L 313.23164 92.827589 
L 313.410543 93.17847 
L 313.768347 94.764725 
L 314.483956 98.558484 
L 314.662858 99.008736 
L 314.84176 99.030701 
L 315.020663 98.547136 
L 315.378467 95.557542 
L 315.915174 86.805102 
L 316.630783 74.341403 
L 316.988587 71.114004 
L 317.167489 70.66357 
L 317.346392 70.869181 
L 317.525294 71.818375 
L 317.883098 75.48951 
L 318.419805 83.859408 
L 319.314316 102.554732 
L 320.566632 128.37725 
L 321.461143 144.140606 
L 321.997849 160.740369 
L 322.892361 192.033161 
L 323.250165 198.667322 
L 323.429067 200.124533 
L 323.60797 200.498594 
L 323.786872 199.947556 
L 324.323578 196.041246 
L 324.860285 191.324587 
L 325.396992 185.188442 
L 326.112601 173.405745 
L 326.82821 162.069508 
L 327.186014 158.994713 
L 328.080525 153.073328 
L 328.43833 146.143773 
L 328.975036 126.742386 
L 329.690645 101.54871 
L 329.869547 98.816252 
L 330.04845 98.119964 
L 330.227352 99.105493 
L 330.585156 105.684584 
L 331.121863 124.778615 
L 332.016374 154.745589 
L 332.731983 169.907047 
L 333.26869 178.1418 
L 333.626494 180.351211 
L 333.805397 180.47326 
L 333.984299 180.137797 
L 334.521005 177.426899 
L 334.699908 177.34326 
L 334.87881 178.14308 
L 335.236614 182.162559 
L 336.48893 200.308971 
L 336.667832 200.664666 
L 336.846734 199.843924 
L 337.025637 197.752377 
L 337.383441 189.139049 
L 337.920148 166.121811 
L 339.351366 100.900831 
L 339.888072 83.538754 
L 340.245877 78.145674 
L 340.603681 76.56987 
L 340.782583 76.633617 
L 341.140388 77.832435 
L 341.31929 78.500898 
L 341.498192 78.358761 
L 341.677095 77.095911 
L 342.034899 71.508247 
L 343.287215 46.247535 
L 343.645019 43.776234 
L 343.823921 44.005122 
L 344.002823 45.484744 
L 344.360628 52.397934 
L 346.686357 111.243732 
L 346.865259 112.771353 
L 347.044161 113.080364 
L 347.223064 112.645896 
L 347.580868 110.03388 
L 348.117575 105.769751 
L 348.296477 105.993036 
L 348.654281 109.121726 
L 349.012086 114.309007 
L 349.36989 122.474679 
L 350.443304 150.642612 
L 350.801108 153.591878 
L 350.98001 153.674319 
L 351.158913 153.250467 
L 351.516717 151.364105 
L 351.874522 147.413211 
L 352.947935 133.106158 
L 353.126837 132.851362 
L 353.305739 133.89382 
L 353.663544 138.950652 
L 354.20025 152.121587 
L 354.736957 164.500494 
L 355.094762 167.301406 
L 355.273664 166.786186 
L 355.631468 161.816155 
L 356.704882 140.92876 
L 356.883784 140.612941 
L 357.062686 142.351568 
L 357.420491 150.944655 
L 358.136099 171.206751 
L 358.493904 176.067681 
L 359.388415 181.308816 
L 359.567317 181.412566 
L 359.74622 180.612467 
L 359.925122 178.696968 
L 360.282926 171.534337 
L 360.819633 159.889633 
L 361.177437 156.022526 
L 361.535242 154.225097 
L 361.714144 154.149712 
L 361.893046 154.849527 
L 362.250851 157.759119 
L 362.787557 162.934606 
L 362.96646 163.399477 
L 363.145362 162.549084 
L 363.503166 157.833477 
L 364.039873 150.364691 
L 364.397677 147.627014 
L 364.57658 147.566265 
L 364.755482 148.302709 
L 365.292189 152.746052 
L 366.007797 159.488366 
L 366.1867 159.878053 
L 366.723406 159.068767 
L 366.902309 159.188517 
L 367.081211 159.959788 
L 367.439015 163.166062 
L 367.79682 165.691096 
L 367.975722 165.055855 
L 368.333526 160.285512 
L 368.870233 153.225315 
L 369.049135 153.026334 
L 369.228038 154.262152 
L 369.585842 158.282269 
L 369.764744 159.086327 
L 369.943647 158.073547 
L 370.301451 151.093995 
L 372.448278 90.11426 
L 372.62718 88.967362 
L 372.806082 89.968784 
L 373.521691 99.129031 
L 373.700593 97.640733 
L 374.058398 88.566689 
L 374.774007 64.930885 
L 375.131811 59.868231 
L 375.489616 56.330239 
L 375.84742 47.992193 
L 376.205224 38.779381 
L 376.384127 37.211595 
L 376.563029 38.432231 
L 376.920833 46.65952 
L 377.45754 59.789753 
L 377.815345 63.400947 
L 377.994247 64.745679 
L 378.173149 67.230308 
L 378.530953 79.410199 
L 379.06766 104.048281 
L 379.246562 107.995238 
L 379.425465 109.083634 
L 379.604367 107.938119 
L 380.141073 100.676166 
L 380.319976 101.124247 
L 380.498878 104.721506 
L 381.393389 132.568685 
L 381.751194 136.006964 
L 381.930096 138.995204 
L 382.2879 152.53782 
L 383.003509 191.904546 
L 383.182411 193.815137 
L 383.361314 192.362949 
L 384.076922 180.970457 
L 384.434727 178.490476 
L 384.613629 176.198421 
L 384.971434 165.025269 
L 385.50814 142.497511 
L 385.687043 139.020733 
L 385.865945 138.647142 
L 386.044847 141.335 
L 386.760456 160.636455 
L 386.939358 160.18395 
L 387.297163 153.694434 
L 387.833869 140.780713 
L 389.086185 103.50313 
L 389.265087 102.775506 
L 389.443989 103.757927 
L 389.801794 108.69798 
L 390.159598 119.390966 
L 390.696305 145.756623 
L 391.590816 193.154852 
L 391.948621 201.016903 
L 392.127523 202.343618 
L 392.306425 202.173384 
L 392.664229 198.612393 
L 393.022034 191.314096 
L 393.916545 165.122436 
L 394.095447 167.174354 
L 394.453252 178.606687 
L 394.989958 197.709178 
L 395.168861 199.441516 
L 395.347763 197.762694 
L 395.88447 183.047125 
L 396.600078 160.195869 
L 396.957883 142.864977 
L 397.673492 99.841299 
L 397.852394 97.353416 
L 398.031296 97.946449 
L 398.568003 103.351152 
L 399.10471 105.669315 
L 399.283612 108.23794 
L 399.641416 122.346649 
L 399.999221 138.641906 
L 400.178123 141.820672 
L 400.357025 140.96079 
L 400.71483 131.597548 
L 401.251536 115.327701 
L 401.430439 113.287633 
L 401.609341 113.544741 
L 401.967145 117.799046 
L 402.503852 129.014714 
L 403.040559 139.794131 
L 403.398363 145.629542 
L 404.292874 168.943779 
L 404.471776 165.958893 
L 405.187385 142.22108 
L 405.54519 140.282993 
L 405.724092 136.81661 
L 406.081897 121.73331 
L 406.797505 89.48533 
L 407.15531 83.195265 
L 407.334212 82.823594 
L 407.513114 82.920795 
L 407.692017 82.661725 
L 408.049821 79.992187 
L 408.407625 76.058696 
L 408.76543 68.381132 
L 409.302137 53.303558 
L 409.481039 51.775925 
L 409.659941 51.402587 
L 409.838843 49.680446 
L 410.196648 35.87791 
L 410.554452 20.410504 
L 410.733354 18.3201 
L 410.912257 20.192088 
L 411.98567 46.240596 
L 412.343474 61.077363 
L 413.59579 138.014881 
L 414.132497 165.304001 
L 414.311399 167.742294 
L 414.669203 168.391383 
L 414.848106 170.634661 
L 415.20591 181.780025 
L 415.921519 209.482027 
L 416.994932 239.732563 
L 417.173835 240.915516 
L 417.352737 239.921308 
L 417.710541 234.954923 
L 418.068346 224.210084 
L 418.605052 199.245103 
L 418.962857 193.311929 
L 419.141759 190.494502 
L 419.499564 175.545825 
L 420.215172 139.822474 
L 421.109684 93.923194 
L 421.467488 74.81581 
L 421.64639 70.766585 
L 421.825293 71.16268 
L 422.361999 78.639366 
L 422.361999 78.639366 
" style="fill:none;stroke:#009afa;"/>
   </g>
   <g id="matplotlib.axis_1">
    <g id="xtick_1">
     <g id="line2d_2">
      <defs>
       <path d="M 0 0 
L 0 -2.5 
" id="m7dafe87c06" style="stroke:#000000;stroke-width:0.5;"/>
      </defs>
      <g>
       <use style="stroke:#000000;stroke-width:0.5;" x="64.557544" xlink:href="#m7dafe87c06" y="258.225354"/>
      </g>
     </g>
     <g id="text_1">
      <!-- $0.0$ -->
      <g transform="translate(58.157544 267.804104)scale(0.08 -0.08)">
       <defs>
        <path d="M 2034 4250 
Q 1547 4250 1301 3770 
Q 1056 3291 1056 2328 
Q 1056 1369 1301 889 
Q 1547 409 2034 409 
Q 2525 409 2770 889 
Q 3016 1369 3016 2328 
Q 3016 3291 2770 3770 
Q 2525 4250 2034 4250 
z
M 2034 4750 
Q 2819 4750 3233 4129 
Q 3647 3509 3647 2328 
Q 3647 1150 3233 529 
Q 2819 -91 2034 -91 
Q 1250 -91 836 529 
Q 422 1150 422 2328 
Q 422 3509 836 4129 
Q 1250 4750 2034 4750 
z
" id="DejaVuSans-30" transform="scale(0.015625)"/>
        <path d="M 684 794 
L 1344 794 
L 1344 0 
L 684 0 
L 684 794 
z
" id="DejaVuSans-2e" transform="scale(0.015625)"/>
       </defs>
       <use transform="translate(0 0.78125)" xlink:href="#DejaVuSans-30"/>
       <use transform="translate(63.623047 0.78125)" xlink:href="#DejaVuSans-2e"/>
       <use transform="translate(95.410156 0.78125)" xlink:href="#DejaVuSans-30"/>
      </g>
     </g>
    </g>
    <g id="xtick_2">
     <g id="line2d_3">
      <g>
       <use style="stroke:#000000;stroke-width:0.5;" x="154.008658" xlink:href="#m7dafe87c06" y="258.225354"/>
      </g>
     </g>
     <g id="text_2">
      <!-- $0.5$ -->
      <g transform="translate(147.608658 267.804104)scale(0.08 -0.08)">
       <defs>
        <path d="M 691 4666 
L 3169 4666 
L 3169 4134 
L 1269 4134 
L 1269 2991 
Q 1406 3038 1543 3061 
Q 1681 3084 1819 3084 
Q 2600 3084 3056 2656 
Q 3513 2228 3513 1497 
Q 3513 744 3044 326 
Q 2575 -91 1722 -91 
Q 1428 -91 1123 -41 
Q 819 9 494 109 
L 494 744 
Q 775 591 1075 516 
Q 1375 441 1709 441 
Q 2250 441 2565 725 
Q 2881 1009 2881 1497 
Q 2881 1984 2565 2268 
Q 2250 2553 1709 2553 
Q 1456 2553 1204 2497 
Q 953 2441 691 2322 
L 691 4666 
z
" id="DejaVuSans-35" transform="scale(0.015625)"/>
       </defs>
       <use transform="translate(0 0.78125)" xlink:href="#DejaVuSans-30"/>
       <use transform="translate(63.623047 0.78125)" xlink:href="#DejaVuSans-2e"/>
       <use transform="translate(95.410156 0.78125)" xlink:href="#DejaVuSans-35"/>
      </g>
     </g>
    </g>
    <g id="xtick_3">
     <g id="line2d_4">
      <g>
       <use style="stroke:#000000;stroke-width:0.5;" x="243.459771" xlink:href="#m7dafe87c06" y="258.225354"/>
      </g>
     </g>
     <g id="text_3">
      <!-- $1.0$ -->
      <g transform="translate(237.059771 267.804104)scale(0.08 -0.08)">
       <defs>
        <path d="M 794 531 
L 1825 531 
L 1825 4091 
L 703 3866 
L 703 4441 
L 1819 4666 
L 2450 4666 
L 2450 531 
L 3481 531 
L 3481 0 
L 794 0 
L 794 531 
z
" id="DejaVuSans-31" transform="scale(0.015625)"/>
       </defs>
       <use transform="translate(0 0.78125)" xlink:href="#DejaVuSans-31"/>
       <use transform="translate(63.623047 0.78125)" xlink:href="#DejaVuSans-2e"/>
       <use transform="translate(95.410156 0.78125)" xlink:href="#DejaVuSans-30"/>
      </g>
     </g>
    </g>
    <g id="xtick_4">
     <g id="line2d_5">
      <g>
       <use style="stroke:#000000;stroke-width:0.5;" x="332.910885" xlink:href="#m7dafe87c06" y="258.225354"/>
      </g>
     </g>
     <g id="text_4">
      <!-- $1.5$ -->
      <g transform="translate(326.510885 267.804104)scale(0.08 -0.08)">
       <use transform="translate(0 0.09375)" xlink:href="#DejaVuSans-31"/>
       <use transform="translate(63.623047 0.09375)" xlink:href="#DejaVuSans-2e"/>
       <use transform="translate(95.410156 0.09375)" xlink:href="#DejaVuSans-35"/>
      </g>
     </g>
    </g>
    <g id="xtick_5">
     <g id="line2d_6">
      <g>
       <use style="stroke:#000000;stroke-width:0.5;" x="422.361999" xlink:href="#m7dafe87c06" y="258.225354"/>
      </g>
     </g>
     <g id="text_5">
      <!-- $2.0$ -->
      <g transform="translate(415.961999 267.804104)scale(0.08 -0.08)">
       <defs>
        <path d="M 1228 531 
L 3431 531 
L 3431 0 
L 469 0 
L 469 531 
Q 828 903 1448 1529 
Q 2069 2156 2228 2338 
Q 2531 2678 2651 2914 
Q 2772 3150 2772 3378 
Q 2772 3750 2511 3984 
Q 2250 4219 1831 4219 
Q 1534 4219 1204 4116 
Q 875 4013 500 3803 
L 500 4441 
Q 881 4594 1212 4672 
Q 1544 4750 1819 4750 
Q 2544 4750 2975 4387 
Q 3406 4025 3406 3419 
Q 3406 3131 3298 2873 
Q 3191 2616 2906 2266 
Q 2828 2175 2409 1742 
Q 1991 1309 1228 531 
z
" id="DejaVuSans-32" transform="scale(0.015625)"/>
       </defs>
       <use transform="translate(0 0.78125)" xlink:href="#DejaVuSans-32"/>
       <use transform="translate(63.623047 0.78125)" xlink:href="#DejaVuSans-2e"/>
       <use transform="translate(95.410156 0.78125)" xlink:href="#DejaVuSans-30"/>
      </g>
     </g>
    </g>
    <g id="text_6">
     <!-- Time (s) -->
     <g transform="translate(221.097975 281.826136)scale(0.11 -0.11)">
      <defs>
       <path d="M -19 4666 
L 3928 4666 
L 3928 4134 
L 2272 4134 
L 2272 0 
L 1638 0 
L 1638 4134 
L -19 4134 
L -19 4666 
z
" id="DejaVuSans-54" transform="scale(0.015625)"/>
       <path d="M 603 3500 
L 1178 3500 
L 1178 0 
L 603 0 
L 603 3500 
z
M 603 4863 
L 1178 4863 
L 1178 4134 
L 603 4134 
L 603 4863 
z
" id="DejaVuSans-69" transform="scale(0.015625)"/>
       <path d="M 3328 2828 
Q 3544 3216 3844 3400 
Q 4144 3584 4550 3584 
Q 5097 3584 5394 3201 
Q 5691 2819 5691 2113 
L 5691 0 
L 5113 0 
L 5113 2094 
Q 5113 2597 4934 2840 
Q 4756 3084 4391 3084 
Q 3944 3084 3684 2787 
Q 3425 2491 3425 1978 
L 3425 0 
L 2847 0 
L 2847 2094 
Q 2847 2600 2669 2842 
Q 2491 3084 2119 3084 
Q 1678 3084 1418 2786 
Q 1159 2488 1159 1978 
L 1159 0 
L 581 0 
L 581 3500 
L 1159 3500 
L 1159 2956 
Q 1356 3278 1631 3431 
Q 1906 3584 2284 3584 
Q 2666 3584 2933 3390 
Q 3200 3197 3328 2828 
z
" id="DejaVuSans-6d" transform="scale(0.015625)"/>
       <path d="M 3597 1894 
L 3597 1613 
L 953 1613 
Q 991 1019 1311 708 
Q 1631 397 2203 397 
Q 2534 397 2845 478 
Q 3156 559 3463 722 
L 3463 178 
Q 3153 47 2828 -22 
Q 2503 -91 2169 -91 
Q 1331 -91 842 396 
Q 353 884 353 1716 
Q 353 2575 817 3079 
Q 1281 3584 2069 3584 
Q 2775 3584 3186 3129 
Q 3597 2675 3597 1894 
z
M 3022 2063 
Q 3016 2534 2758 2815 
Q 2500 3097 2075 3097 
Q 1594 3097 1305 2825 
Q 1016 2553 972 2059 
L 3022 2063 
z
" id="DejaVuSans-65" transform="scale(0.015625)"/>
       <path id="DejaVuSans-20" transform="scale(0.015625)"/>
       <path d="M 1984 4856 
Q 1566 4138 1362 3434 
Q 1159 2731 1159 2009 
Q 1159 1288 1364 580 
Q 1569 -128 1984 -844 
L 1484 -844 
Q 1016 -109 783 600 
Q 550 1309 550 2009 
Q 550 2706 781 3412 
Q 1013 4119 1484 4856 
L 1984 4856 
z
" id="DejaVuSans-28" transform="scale(0.015625)"/>
       <path d="M 2834 3397 
L 2834 2853 
Q 2591 2978 2328 3040 
Q 2066 3103 1784 3103 
Q 1356 3103 1142 2972 
Q 928 2841 928 2578 
Q 928 2378 1081 2264 
Q 1234 2150 1697 2047 
L 1894 2003 
Q 2506 1872 2764 1633 
Q 3022 1394 3022 966 
Q 3022 478 2636 193 
Q 2250 -91 1575 -91 
Q 1294 -91 989 -36 
Q 684 19 347 128 
L 347 722 
Q 666 556 975 473 
Q 1284 391 1588 391 
Q 1994 391 2212 530 
Q 2431 669 2431 922 
Q 2431 1156 2273 1281 
Q 2116 1406 1581 1522 
L 1381 1569 
Q 847 1681 609 1914 
Q 372 2147 372 2553 
Q 372 3047 722 3315 
Q 1072 3584 1716 3584 
Q 2034 3584 2315 3537 
Q 2597 3491 2834 3397 
z
" id="DejaVuSans-73" transform="scale(0.015625)"/>
       <path d="M 513 4856 
L 1013 4856 
Q 1481 4119 1714 3412 
Q 1947 2706 1947 2009 
Q 1947 1309 1714 600 
Q 1481 -109 1013 -844 
L 513 -844 
Q 928 -128 1133 580 
Q 1338 1288 1338 2009 
Q 1338 2731 1133 3434 
Q 928 4138 513 4856 
z
" id="DejaVuSans-29" transform="scale(0.015625)"/>
      </defs>
      <use xlink:href="#DejaVuSans-54"/>
      <use x="57.958984" xlink:href="#DejaVuSans-69"/>
      <use x="85.742188" xlink:href="#DejaVuSans-6d"/>
      <use x="183.154297" xlink:href="#DejaVuSans-65"/>
      <use x="244.677734" xlink:href="#DejaVuSans-20"/>
      <use x="276.464844" xlink:href="#DejaVuSans-28"/>
      <use x="315.478516" xlink:href="#DejaVuSans-73"/>
      <use x="367.578125" xlink:href="#DejaVuSans-29"/>
     </g>
    </g>
   </g>
   <g id="matplotlib.axis_2">
    <g id="ytick_1">
     <g id="line2d_7">
      <defs>
       <path d="M 0 0 
L 2.5 0 
" id="m70117661bb" style="stroke:#000000;stroke-width:0.5;"/>
      </defs>
      <g>
       <use style="stroke:#000000;stroke-width:0.5;" x="64.557544" xlink:href="#m70117661bb" y="230.958722"/>
      </g>
     </g>
     <g id="text_7">
      <!-- $-4.0×10^{6}$ -->
      <g transform="translate(20.817544 233.998097)scale(0.08 -0.08)">
       <defs>
        <path d="M 678 2272 
L 4684 2272 
L 4684 1741 
L 678 1741 
L 678 2272 
z
" id="DejaVuSans-2212" transform="scale(0.015625)"/>
        <path d="M 2419 4116 
L 825 1625 
L 2419 1625 
L 2419 4116 
z
M 2253 4666 
L 3047 4666 
L 3047 1625 
L 3713 1625 
L 3713 1100 
L 3047 1100 
L 3047 0 
L 2419 0 
L 2419 1100 
L 313 1100 
L 313 1709 
L 2253 4666 
z
" id="DejaVuSans-34" transform="scale(0.015625)"/>
        <path d="M 4488 3438 
L 3059 2003 
L 4488 575 
L 4116 197 
L 2681 1631 
L 1247 197 
L 878 575 
L 2303 2003 
L 878 3438 
L 1247 3816 
L 2681 2381 
L 4116 3816 
L 4488 3438 
z
" id="DejaVuSans-d7" transform="scale(0.015625)"/>
        <path d="M 2113 2584 
Q 1688 2584 1439 2293 
Q 1191 2003 1191 1497 
Q 1191 994 1439 701 
Q 1688 409 2113 409 
Q 2538 409 2786 701 
Q 3034 994 3034 1497 
Q 3034 2003 2786 2293 
Q 2538 2584 2113 2584 
z
M 3366 4563 
L 3366 3988 
Q 3128 4100 2886 4159 
Q 2644 4219 2406 4219 
Q 1781 4219 1451 3797 
Q 1122 3375 1075 2522 
Q 1259 2794 1537 2939 
Q 1816 3084 2150 3084 
Q 2853 3084 3261 2657 
Q 3669 2231 3669 1497 
Q 3669 778 3244 343 
Q 2819 -91 2113 -91 
Q 1303 -91 875 529 
Q 447 1150 447 2328 
Q 447 3434 972 4092 
Q 1497 4750 2381 4750 
Q 2619 4750 2861 4703 
Q 3103 4656 3366 4563 
z
" id="DejaVuSans-36" transform="scale(0.015625)"/>
       </defs>
       <use transform="translate(0 0.765625)" xlink:href="#DejaVuSans-2212"/>
       <use transform="translate(83.789062 0.765625)" xlink:href="#DejaVuSans-34"/>
       <use transform="translate(147.412109 0.765625)" xlink:href="#DejaVuSans-2e"/>
       <use transform="translate(179.199219 0.765625)" xlink:href="#DejaVuSans-30"/>
       <use transform="translate(242.822266 0.765625)" xlink:href="#DejaVuSans-d7"/>
       <use transform="translate(326.611328 0.765625)" xlink:href="#DejaVuSans-31"/>
       <use transform="translate(390.234375 0.765625)" xlink:href="#DejaVuSans-30"/>
       <use transform="translate(454.814453 39.046875)scale(0.7)" xlink:href="#DejaVuSans-36"/>
      </g>
     </g>
    </g>
    <g id="ytick_2">
     <g id="line2d_8">
      <g>
       <use style="stroke:#000000;stroke-width:0.5;" x="64.557544" xlink:href="#m70117661bb" y="182.054948"/>
      </g>
     </g>
     <g id="text_8">
      <!-- $-2.0×10^{6}$ -->
      <g transform="translate(20.817544 185.094323)scale(0.08 -0.08)">
       <use transform="translate(0 0.765625)" xlink:href="#DejaVuSans-2212"/>
       <use transform="translate(83.789062 0.765625)" xlink:href="#DejaVuSans-32"/>
       <use transform="translate(147.412109 0.765625)" xlink:href="#DejaVuSans-2e"/>
       <use transform="translate(179.199219 0.765625)" xlink:href="#DejaVuSans-30"/>
       <use transform="translate(242.822266 0.765625)" xlink:href="#DejaVuSans-d7"/>
       <use transform="translate(326.611328 0.765625)" xlink:href="#DejaVuSans-31"/>
       <use transform="translate(390.234375 0.765625)" xlink:href="#DejaVuSans-30"/>
       <use transform="translate(454.814453 39.046875)scale(0.7)" xlink:href="#DejaVuSans-36"/>
      </g>
     </g>
    </g>
    <g id="ytick_3">
     <g id="line2d_9">
      <g>
       <use style="stroke:#000000;stroke-width:0.5;" x="64.557544" xlink:href="#m70117661bb" y="133.151173"/>
      </g>
     </g>
     <g id="text_9">
      <!-- $0$ -->
      <g transform="translate(55.937544 136.190548)scale(0.08 -0.08)">
       <use transform="translate(0 0.78125)" xlink:href="#DejaVuSans-30"/>
      </g>
     </g>
    </g>
    <g id="ytick_4">
     <g id="line2d_10">
      <g>
       <use style="stroke:#000000;stroke-width:0.5;" x="64.557544" xlink:href="#m70117661bb" y="84.247398"/>
      </g>
     </g>
     <g id="text_10">
      <!-- $2.0×10^{6}$ -->
      <g transform="translate(27.537544 87.286773)scale(0.08 -0.08)">
       <use transform="translate(0 0.765625)" xlink:href="#DejaVuSans-32"/>
       <use transform="translate(63.623047 0.765625)" xlink:href="#DejaVuSans-2e"/>
       <use transform="translate(95.410156 0.765625)" xlink:href="#DejaVuSans-30"/>
       <use transform="translate(159.033203 0.765625)" xlink:href="#DejaVuSans-d7"/>
       <use transform="translate(242.822266 0.765625)" xlink:href="#DejaVuSans-31"/>
       <use transform="translate(306.445312 0.765625)" xlink:href="#DejaVuSans-30"/>
       <use transform="translate(371.025391 39.046875)scale(0.7)" xlink:href="#DejaVuSans-36"/>
      </g>
     </g>
    </g>
    <g id="ytick_5">
     <g id="line2d_11">
      <g>
       <use style="stroke:#000000;stroke-width:0.5;" x="64.557544" xlink:href="#m70117661bb" y="35.343624"/>
      </g>
     </g>
     <g id="text_11">
      <!-- $4.0×10^{6}$ -->
      <g transform="translate(27.537544 38.382999)scale(0.08 -0.08)">
       <use transform="translate(0 0.765625)" xlink:href="#DejaVuSans-34"/>
       <use transform="translate(63.623047 0.765625)" xlink:href="#DejaVuSans-2e"/>
       <use transform="translate(95.410156 0.765625)" xlink:href="#DejaVuSans-30"/>
       <use transform="translate(159.033203 0.765625)" xlink:href="#DejaVuSans-d7"/>
       <use transform="translate(242.822266 0.765625)" xlink:href="#DejaVuSans-31"/>
       <use transform="translate(306.445312 0.765625)" xlink:href="#DejaVuSans-30"/>
       <use transform="translate(371.025391 39.046875)scale(0.7)" xlink:href="#DejaVuSans-36"/>
      </g>
     </g>
    </g>
    <g id="text_12">
     <!-- $F_x$ ($N$) -->
     <g transform="translate(14.529888 146.315)rotate(-90)scale(0.11 -0.11)">
      <defs>
       <path d="M 1081 4666 
L 3756 4666 
L 3653 4134 
L 1606 4134 
L 1338 2759 
L 3188 2759 
L 3084 2228 
L 1234 2228 
L 800 0 
L 172 0 
L 1081 4666 
z
" id="DejaVuSans-Oblique-46" transform="scale(0.015625)"/>
       <path d="M 3841 3500 
L 2234 1784 
L 3219 0 
L 2559 0 
L 1819 1388 
L 531 0 
L -166 0 
L 1556 1844 
L 641 3500 
L 1300 3500 
L 1972 2234 
L 3144 3500 
L 3841 3500 
z
" id="DejaVuSans-Oblique-78" transform="scale(0.015625)"/>
       <path d="M 1081 4666 
L 1931 4666 
L 3219 666 
L 4000 4666 
L 4616 4666 
L 3706 0 
L 2853 0 
L 1569 4025 
L 788 0 
L 172 0 
L 1081 4666 
z
" id="DejaVuSans-Oblique-4e" transform="scale(0.015625)"/>
      </defs>
      <use transform="translate(0 0.125)" xlink:href="#DejaVuSans-Oblique-46"/>
      <use transform="translate(57.519531 -16.28125)scale(0.7)" xlink:href="#DejaVuSans-Oblique-78"/>
      <use transform="translate(101.679688 0.125)" xlink:href="#DejaVuSans-20"/>
      <use transform="translate(133.466797 0.125)" xlink:href="#DejaVuSans-28"/>
      <use transform="translate(172.480469 0.125)" xlink:href="#DejaVuSans-Oblique-4e"/>
      <use transform="translate(247.285156 0.125)" xlink:href="#DejaVuSans-29"/>
     </g>
    </g>
   </g>
   <g id="line2d_12">
    <path clip-path="url(#pd61d7d20d6)" d="M 64.557544 133.151173 
L 70.4696 133.042816 
L 71.084689 133.011929 
L 73.03141 132.865587 
L 73.461553 132.841368 
L 73.88339 132.829821 
L 74.410728 132.775741 
L 74.969249 132.768227 
L 75.454815 132.686046 
L 75.940381 132.716277 
L 76.432525 132.624309 
L 77.433097 132.600363 
L 78.959267 132.645564 
L 79.375331 132.66855 
L 79.898174 132.608636 
L 80.550892 132.65333 
L 81.066289 132.600513 
L 81.606331 132.64679 
L 82.162105 132.561929 
L 82.74979 132.599166 
L 83.470487 132.60525 
L 85.230038 132.764137 
L 85.673333 132.775746 
L 86.393803 132.932367 
L 86.766915 132.955942 
L 87.523469 133.083598 
L 88.180903 133.131445 
L 88.97616 133.151948 
L 89.477467 133.167658 
L 89.99635 133.135658 
L 90.669772 133.090306 
L 91.530114 132.945188 
L 94.488267 132.614241 
L 95.872516 132.783429 
L 99.30081 134.538348 
L 99.927865 134.858917 
L 101.246961 135.260011 
L 102.166809 135.258365 
L 103.386924 134.661194 
L 104.408021 133.781592 
L 104.941855 133.189942 
L 105.475689 132.543743 
L 106.312096 131.473069 
L 107.427306 130.103339 
L 108.263713 129.28539 
L 109.378945 128.8656 
L 110.216759 129.109235 
L 110.496261 129.274238 
L 111.657637 130.554227 
L 113.422117 133.681076 
L 115.188913 136.787919 
L 116.074627 138.007429 
L 116.98438 138.762609 
L 117.611235 138.906971 
L 118.25437 138.867893 
L 118.913783 138.403282 
L 119.902903 137.282632 
L 121.880666 134.519895 
L 123.086401 133.076056 
L 124.292135 132.27342 
L 125.196436 132.060017 
L 127.645971 131.839016 
L 128.666068 131.239785 
L 129.346133 130.624316 
L 130.782404 128.536172 
L 133.250993 124.231849 
L 134.025893 123.411757 
L 134.542492 123.187754 
L 135.317392 123.27113 
L 135.833991 123.831475 
L 136.350591 124.496175 
L 136.86719 125.691499 
L 137.90039 128.736707 
L 140.741687 139.347136 
L 141.902332 142.432039 
L 142.602241 143.432582 
L 143.070374 143.876267 
L 143.30444 143.968705 
L 143.772572 143.841172 
L 144.47477 143.521455 
L 147.065372 140.849121 
L 147.857618 140.216069 
L 148.848037 140.113721 
L 149.391671 140.406442 
L 151.065184 141.503824 
L 152.053697 141.56993 
L 152.547954 141.381353 
L 153.558084 140.445229 
L 154.076616 139.518928 
L 154.854415 137.718496 
L 155.892542 134.237779 
L 157.194185 128.969433 
L 160.110742 117.459297 
L 160.980513 115.047338 
L 161.862103 113.569319 
L 162.40467 113.179955 
L 162.766381 113.077939 
L 163.128092 113.227373 
L 163.671029 113.640683 
L 164.033482 114.21459 
L 164.979137 116.276712 
L 165.808706 119.087438 
L 166.449142 121.653234 
L 171.078677 143.508876 
L 171.929776 145.958287 
L 172.505486 146.873773 
L 173.397686 147.835931 
L 174.596973 148.04236 
L 175.196617 147.758446 
L 178.052503 146.104229 
L 179.04417 145.990356 
L 180.949716 145.170612 
L 181.745194 144.698355 
L 182.764269 143.478069 
L 183.278304 142.389467 
L 184.227329 139.626646 
L 185.252702 135.368976 
L 186.073 131.165671 
L 187.303448 123.68011 
L 189.764343 107.814669 
L 190.584642 103.618486 
L 191.40494 100.428809 
L 191.81509 99.342499 
L 192.432686 98.523999 
L 192.640134 98.412997 
L 192.847581 98.531474 
L 193.267726 99.291841 
L 193.687872 100.509805 
L 194.112036 102.426481 
L 194.748283 106.677087 
L 195.395846 112.186841 
L 196.52241 124.576969 
L 198.586819 148.304231 
L 199.274955 154.018107 
L 199.963092 157.881682 
L 200.426894 158.990195 
L 200.658795 159.203168 
L 200.890696 159.151728 
L 201.122597 158.821053 
L 201.586399 157.346753 
L 202.282102 153.668576 
L 203.209707 146.927155 
L 204.601113 136.848275 
L 205.318964 133.624934 
L 205.561166 133.147272 
L 205.803369 133.022814 
L 206.045571 133.123994 
L 206.303827 133.571305 
L 206.820383 135.53979 
L 207.33694 138.934551 
L 208.333242 147.492163 
L 209.555675 157.997877 
L 210.239565 162.222588 
L 210.807705 164.315695 
L 211.133752 164.864573 
L 211.389091 164.888325 
L 211.63115 164.614043 
L 212.008149 163.734473 
L 212.390332 162.107021 
L 213.069186 157.6134 
L 213.838923 150.592704 
L 216.70683 121.059236 
L 217.284216 117.058648 
L 218.074832 113.289545 
L 218.667794 111.580959 
L 219.15564 110.732907 
L 220.098709 109.635748 
L 220.45858 109.335001 
L 221.658147 107.674048 
L 222.668522 105.47438 
L 223.574565 102.860835 
L 224.775228 99.512742 
L 225.248292 98.872819 
L 225.442441 98.868356 
L 225.753652 99.226361 
L 226.080104 99.942217 
L 226.425937 101.260769 
L 226.950432 104.407214 
L 227.584931 109.883616 
L 228.316096 118.108906 
L 230.148804 142.498118 
L 231.395232 157.780982 
L 232.250221 165.835888 
L 232.896213 170.18638 
L 233.326875 171.745848 
L 233.542205 172.107762 
L 233.757536 172.208361 
L 233.972867 171.9886 
L 234.374347 170.595925 
L 234.749212 168.257572 
L 235.565102 160.922427 
L 237.06928 146.237952 
L 237.853833 141.027987 
L 238.336763 138.980063 
L 238.676531 138.202211 
L 238.861618 138.085011 
L 239.046705 138.114173 
L 239.231792 138.271288 
L 239.433282 138.677483 
L 239.844304 140.426659 
L 240.460835 144.598094 
L 242.253728 159.165061 
L 242.709849 160.710211 
L 242.937909 160.892989 
L 243.171835 160.764437 
L 243.405762 160.309801 
L 243.873615 158.463247 
L 244.575394 154.18112 
L 245.277174 148.422105 
L 245.978953 140.702372 
L 246.680733 130.720188 
L 249.467173 87.801433 
L 250.186782 81.432297 
L 250.695288 78.612864 
L 251.203794 77.109926 
L 251.585174 76.736233 
L 251.839427 76.838484 
L 252.094792 77.179106 
L 252.351269 77.79767 
L 252.754826 79.51547 
L 253.324268 83.367042 
L 253.929336 89.529093 
L 254.698616 100.134603 
L 256.890631 135.633951 
L 258.331258 156.482104 
L 258.955821 162.656129 
L 259.376457 164.843747 
L 259.646701 165.262686 
L 259.821076 165.102013 
L 260.072116 164.405296 
L 260.423417 162.555844 
L 260.989224 157.858147 
L 262.57709 143.820314 
L 263.262464 140.269982 
L 263.688324 139.322496 
L 263.913689 139.109989 
L 264.150104 139.241701 
L 264.393588 139.778632 
L 264.705401 140.999683 
L 265.009028 142.932702 
L 265.470594 147.174146 
L 266.436696 159.244857 
L 267.231798 168.454081 
L 267.784964 172.551627 
L 268.106736 173.820822 
L 268.432813 174.238298 
L 268.758889 173.721064 
L 269.167488 171.963106 
L 269.700954 167.998534 
L 270.446838 160.640686 
L 271.556919 147.400029 
L 272.763585 133.284751 
L 273.289304 129.451818 
L 273.654637 128.029819 
L 273.948387 127.580763 
L 274.146118 127.606159 
L 274.350823 127.790205 
L 274.670053 128.41466 
L 275.729456 130.994892 
L 276.258574 131.66339 
L 277.073579 132.26181 
L 278.024419 132.750291 
L 278.296088 132.650551 
L 278.567757 132.291398 
L 278.839425 131.69652 
L 279.254472 129.932184 
L 279.679437 127.003359 
L 280.283376 120.643147 
L 281.192433 108.059988 
L 282.480909 90.08113 
L 284.180243 69.784705 
L 284.918978 63.230618 
L 285.301656 61.263514 
L 285.567693 60.847619 
L 285.702962 60.991813 
L 285.998424 62.196002 
L 286.418564 66.172527 
L 286.794904 72.053215 
L 287.3242 84.2204 
L 288.184399 110.393137 
L 289.810677 161.450789 
L 290.579891 180.178713 
L 291.230655 191.462518 
L 291.642426 195.651264 
L 291.990405 197.11162 
L 292.10699 197.134094 
L 292.229911 196.868399 
L 292.500101 195.378433 
L 292.786167 192.354204 
L 293.26385 184.278349 
L 293.953471 168.063769 
L 295.00595 143.862796 
L 295.622693 134.177617 
L 296.189266 128.854843 
L 296.62558 126.826418 
L 296.809027 126.534316 
L 297.005341 126.608167 
L 297.201655 127.077883 
L 297.429236 128.236747 
L 297.772417 131.229295 
L 298.233415 137.339683 
L 298.814611 148.09147 
L 300.556981 183.483404 
L 300.918337 186.096239 
L 301.064163 186.427737 
L 301.217842 186.309678 
L 301.391853 185.652969 
L 301.671288 183.63652 
L 302.228016 177.399245 
L 303.412767 163.238258 
L 303.977473 159.29292 
L 304.519412 156.959275 
L 305.155194 154.222834 
L 305.538557 151.926843 
L 306.049709 146.47416 
L 306.560861 138.252156 
L 307.459991 118.607284 
L 308.111386 105.342331 
L 308.530802 99.922612 
L 308.815027 98.147797 
L 308.959445 97.823188 
L 309.111293 97.895256 
L 309.26314 98.306262 
L 309.572416 100.078224 
L 310.202127 104.299418 
L 310.523681 105.403172 
L 310.687807 105.583055 
L 310.860224 105.448029 
L 311.205056 104.170448 
L 311.725974 100.410053 
L 312.438816 95.010277 
L 312.804379 93.466805 
L 312.987161 93.128317 
L 313.169943 93.229038 
L 313.352724 93.723191 
L 313.90107 96.846891 
L 314.449415 99.552488 
L 314.632197 99.77988 
L 314.814979 99.482017 
L 314.99776 98.518272 
L 315.363324 94.530588 
L 316.841451 71.796444 
L 317.027501 71.031361 
L 317.21355 71.048505 
L 317.3996 71.768626 
L 317.709032 74.294765 
L 318.219094 81.090311 
L 318.777526 91.619367 
L 320.304189 124.01689 
L 321.182198 137.027814 
L 321.548052 146.725342 
L 322.284159 175.278647 
L 322.803872 192.252084 
L 323.164573 198.14133 
L 323.434263 199.672723 
L 323.533252 199.794161 
L 323.63224 199.73924 
L 323.998257 198.422856 
L 324.566733 195.331205 
L 324.92325 192.164015 
L 325.41844 184.393602 
L 326.556743 164.152157 
L 326.905773 161.247647 
L 327.138459 160.544765 
L 327.575429 160.079866 
L 327.769397 159.025316 
L 328.044874 155.047603 
L 328.422988 143.842858 
L 329.638047 99.186995 
L 329.850986 96.96543 
L 329.957455 96.836967 
L 330.063924 97.228227 
L 330.294955 100.303903 
L 330.645494 109.534614 
L 332.456027 168.876439 
L 332.939887 177.715887 
L 333.26033 180.033676 
L 333.422111 180.028199 
L 333.591878 179.132217 
L 334.317642 174.75072 
L 334.511235 175.405931 
L 334.712766 177.379337 
L 335.115828 183.857865 
L 336.093574 200.691854 
L 336.446309 203.148656 
L 336.564548 203.132178 
L 336.682786 202.507617 
L 336.92548 199.093079 
L 337.289521 188.527123 
L 338.03484 155.886179 
L 339.511048 88.278234 
L 339.881476 81.781748 
L 340.081302 80.434329 
L 340.240407 80.433065 
L 340.383627 80.820333 
L 340.885509 83.361365 
L 340.973239 83.387172 
L 341.065127 83.225697 
L 341.252133 81.958689 
L 341.537487 77.723396 
L 342.259346 61.401068 
L 342.992036 45.465194 
L 343.285884 43.104661 
L 343.370806 43.160873 
L 343.564527 44.114856 
L 343.98152 49.245099 
L 344.436842 57.218182 
L 344.9243 70.122319 
L 346.206158 108.996722 
L 346.478347 111.546263 
L 346.573055 111.673375 
L 346.768682 110.688222 
L 347.188802 106.56451 
L 347.545805 103.691814 
L 347.778592 102.828093 
L 347.951465 102.576887 
L 348.138815 103.073459 
L 348.341747 104.818182 
L 348.567172 108.488718 
L 349.157215 124.286999 
L 349.815381 139.962687 
L 350.347525 148.599975 
L 350.693881 151.953265 
L 350.931725 152.744747 
L 351.050646 152.615263 
L 351.28849 151.363597 
L 351.526334 148.71475 
L 351.987227 139.978511 
L 352.586332 128.843779 
L 352.702649 128.096347 
L 352.818967 128.141212 
L 353.051601 130.538617 
L 353.401834 138.931678 
L 354.375873 165.716471 
L 354.622723 168.702518 
L 354.728744 169.113678 
L 354.834764 169.030047 
L 354.940785 168.372411 
L 355.264405 163.015777 
L 356.212097 142.011777 
L 356.368133 141.351264 
L 356.524169 141.806814 
L 356.692524 143.325641 
L 357.072847 149.28233 
L 357.856015 165.143642 
L 358.713531 182.66947 
L 358.996415 185.318043 
L 359.083831 185.587337 
L 359.152717 185.513035 
L 359.294191 184.798368 
L 359.513295 182.023643 
L 359.891554 173.292189 
L 360.593817 156.143748 
L 360.88529 153.876061 
L 360.985335 153.873368 
L 361.190096 155.033693 
L 362.111374 162.819584 
L 362.203537 162.867899 
L 362.400575 162.441711 
L 362.723498 160.419165 
L 363.916641 151.208064 
L 364.307155 150.653306 
L 364.508297 150.508865 
L 364.709439 150.589755 
L 364.816939 150.609554 
L 365.163228 151.24253 
L 365.412068 152.43566 
L 365.93662 157.480175 
L 366.478288 162.089595 
L 367.364946 165.825189 
L 367.524811 165.496839 
L 367.654533 164.603508 
L 367.993237 159.415421 
L 368.387187 153.61734 
L 368.481945 153.372147 
L 368.576703 153.729975 
L 368.781009 156.613947 
L 369.410935 168.350496 
L 369.518912 168.070113 
L 369.734865 164.611524 
L 370.169201 149.950364 
L 370.854385 127.66102 
L 372.102671 96.723177 
L 372.32429 95.341815 
L 372.428588 95.605962 
L 372.706945 98.927376 
L 373.000461 102.696631 
L 373.107225 103.03313 
L 373.21399 102.626123 
L 373.440745 98.735404 
L 374.4932 72.756586 
L 374.915767 65.497309 
L 375.266177 54.365257 
L 375.772873 35.706489 
L 376.041961 32.515154 
L 376.176505 33.606955 
L 376.445593 39.791847 
L 377.111773 58.475898 
L 377.458933 61.96086 
L 377.707069 64.405532 
L 377.967767 70.688678 
L 378.802296 96.685515 
L 378.89134 97.084889 
L 378.941095 97.0716 
L 379.050892 96.545274 
L 379.570111 92.705666 
L 379.644321 92.934959 
L 379.801433 94.709431 
L 380.153771 103.534258 
L 380.647624 114.493192 
L 380.865361 116.335049 
L 381.110557 117.372519 
L 381.237608 118.547667 
L 381.507297 125.804055 
L 381.91183 150.941685 
L 382.451208 183.095039 
L 382.706021 188.705443 
L 382.829839 189.334037 
L 382.953657 189.032776 
L 383.696563 183.813802 
L 383.944199 180.35318 
L 384.315652 169.922765 
L 385.041641 144.932364 
L 385.149348 144.339333 
L 385.257054 145.109134 
L 385.472467 149.715781 
L 386.019255 163.035084 
L 386.131672 163.761802 
L 386.244088 163.662983 
L 386.471245 161.783347 
L 387.427562 150.311746 
L 387.881211 134.153248 
L 388.776166 99.903732 
L 389.006491 97.104708 
L 389.087941 96.94175 
L 389.171705 97.216119 
L 389.348083 99.110505 
L 389.623159 105.798062 
L 389.96485 120.661617 
L 391.251578 188.169958 
L 391.603138 193.625392 
L 391.794715 194.725742 
L 391.854833 194.739543 
L 391.983096 194.10153 
L 392.200454 191.004022 
L 393.168117 173.128788 
L 393.275219 173.323428 
L 393.583233 176.868296 
L 394.534546 194.097206 
L 395.089754 197.901008 
L 395.287882 199.140988 
L 395.420854 198.547051 
L 395.555006 196.562203 
L 395.827844 185.94014 
L 396.384346 146.160849 
L 396.859675 120.436149 
L 397.298918 107.480154 
L 397.654 102.916057 
L 397.799113 102.021611 
L 397.877558 102.054615 
L 398.034567 102.974097 
L 398.196826 105.58766 
L 398.624782 118.847668 
L 399.155938 133.057443 
L 399.234701 133.549475 
L 399.299552 133.430419 
L 399.497729 131.373532 
L 399.999839 124.15779 
L 400.453891 122.221088 
L 401.25852 116.05463 
L 401.357739 116.044359 
L 401.456959 116.266445 
L 401.655398 117.872379 
L 402.064211 123.339209 
L 402.380551 132.212272 
L 403.082267 159.777931 
L 403.303748 162.268637 
L 403.525229 162.678117 
L 403.63597 162.799196 
L 403.857451 164.170499 
L 404.178989 166.920204 
L 404.286168 166.506176 
L 404.50777 161.263511 
L 405.537572 119.624235 
L 406.113307 112.340273 
L 406.823009 99.457757 
L 407.414427 84.789375 
L 407.535123 83.721786 
L 407.655818 83.774183 
L 407.981589 84.559823 
L 408.084126 83.923111 
L 408.289201 80.535218 
L 408.613549 69.736323 
L 409.199546 48.78217 
L 409.697266 42.178307 
L 409.958939 31.683394 
L 410.376424 12.39719 
L 410.516545 10.062685 
L 410.659585 10.338096 
L 410.945665 17.175109 
L 411.449911 41.344902 
L 412.113083 71.302771 
L 412.707758 92.429489 
L 412.963673 101.95022 
L 413.875867 146.699157 
L 414.436393 152.534936 
L 414.704852 162.684056 
L 415.543047 203.900822 
L 416.078833 219.535346 
L 417.027751 250.713403 
L 417.140706 250.997315 
L 417.333301 246.327909 
L 418.307786 201.237808 
L 418.424223 200.253369 
L 418.657098 200.225723 
L 418.773535 199.37467 
L 419.006409 193.288134 
L 419.806686 155.499104 
L 421.072816 86.478569 
L 421.320713 81.475368 
L 421.424549 81.228589 
L 421.613139 81.519427 
L 422.119451 84.359451 
L 422.20348 84.287309 
L 422.361999 83.440272 
L 422.361999 83.440272 
" style="fill:none;stroke:#e36f47;"/>
   </g>
   <g id="patch_3">
    <path d="M 64.557544 258.225354 
L 64.557544 2.834646 
" style="fill:none;stroke:#000000;stroke-linecap:square;stroke-linejoin:miter;"/>
   </g>
   <g id="patch_4">
    <path d="M 64.557544 258.225354 
L 422.361999 258.225354 
" style="fill:none;stroke:#000000;stroke-linecap:square;stroke-linejoin:miter;"/>
   </g>
   <g id="legend_1">
    <g id="patch_5">
     <path d="M 299.041999 39.119646 
L 418.361999 39.119646 
L 418.361999 6.834646 
L 299.041999 6.834646 
z
" style="fill:#ffffff;stroke:#000000;stroke-linejoin:miter;"/>
    </g>
    <g id="line2d_13">
     <path d="M 305.441999 16.513396 
L 321.441999 16.513396 
" style="fill:none;stroke:#009afa;stroke-linejoin:miter;"/>
    </g>
    <g id="line2d_14"/>
    <g id="text_13">
     <!-- GXBeam -->
     <g transform="translate(327.841999 19.313396)scale(0.08 -0.08)">
      <defs>
       <path d="M 3809 666 
L 3809 1919 
L 2778 1919 
L 2778 2438 
L 4434 2438 
L 4434 434 
Q 4069 175 3628 42 
Q 3188 -91 2688 -91 
Q 1594 -91 976 548 
Q 359 1188 359 2328 
Q 359 3472 976 4111 
Q 1594 4750 2688 4750 
Q 3144 4750 3555 4637 
Q 3966 4525 4313 4306 
L 4313 3634 
Q 3963 3931 3569 4081 
Q 3175 4231 2741 4231 
Q 1884 4231 1454 3753 
Q 1025 3275 1025 2328 
Q 1025 1384 1454 906 
Q 1884 428 2741 428 
Q 3075 428 3337 486 
Q 3600 544 3809 666 
z
" id="DejaVuSans-47" transform="scale(0.015625)"/>
       <path d="M 403 4666 
L 1081 4666 
L 2241 2931 
L 3406 4666 
L 4084 4666 
L 2584 2425 
L 4184 0 
L 3506 0 
L 2194 1984 
L 872 0 
L 191 0 
L 1856 2491 
L 403 4666 
z
" id="DejaVuSans-58" transform="scale(0.015625)"/>
       <path d="M 1259 2228 
L 1259 519 
L 2272 519 
Q 2781 519 3026 730 
Q 3272 941 3272 1375 
Q 3272 1813 3026 2020 
Q 2781 2228 2272 2228 
L 1259 2228 
z
M 1259 4147 
L 1259 2741 
L 2194 2741 
Q 2656 2741 2882 2914 
Q 3109 3088 3109 3444 
Q 3109 3797 2882 3972 
Q 2656 4147 2194 4147 
L 1259 4147 
z
M 628 4666 
L 2241 4666 
Q 2963 4666 3353 4366 
Q 3744 4066 3744 3513 
Q 3744 3084 3544 2831 
Q 3344 2578 2956 2516 
Q 3422 2416 3680 2098 
Q 3938 1781 3938 1306 
Q 3938 681 3513 340 
Q 3088 0 2303 0 
L 628 0 
L 628 4666 
z
" id="DejaVuSans-42" transform="scale(0.015625)"/>
       <path d="M 2194 1759 
Q 1497 1759 1228 1600 
Q 959 1441 959 1056 
Q 959 750 1161 570 
Q 1363 391 1709 391 
Q 2188 391 2477 730 
Q 2766 1069 2766 1631 
L 2766 1759 
L 2194 1759 
z
M 3341 1997 
L 3341 0 
L 2766 0 
L 2766 531 
Q 2569 213 2275 61 
Q 1981 -91 1556 -91 
Q 1019 -91 701 211 
Q 384 513 384 1019 
Q 384 1609 779 1909 
Q 1175 2209 1959 2209 
L 2766 2209 
L 2766 2266 
Q 2766 2663 2505 2880 
Q 2244 3097 1772 3097 
Q 1472 3097 1187 3025 
Q 903 2953 641 2809 
L 641 3341 
Q 956 3463 1253 3523 
Q 1550 3584 1831 3584 
Q 2591 3584 2966 3190 
Q 3341 2797 3341 1997 
z
" id="DejaVuSans-61" transform="scale(0.015625)"/>
      </defs>
      <use xlink:href="#DejaVuSans-47"/>
      <use x="77.490234" xlink:href="#DejaVuSans-58"/>
      <use x="145.996094" xlink:href="#DejaVuSans-42"/>
      <use x="214.599609" xlink:href="#DejaVuSans-65"/>
      <use x="276.123047" xlink:href="#DejaVuSans-61"/>
      <use x="337.402344" xlink:href="#DejaVuSans-6d"/>
     </g>
    </g>
    <g id="line2d_15">
     <path d="M 305.441999 28.255896 
L 321.441999 28.255896 
" style="fill:none;stroke:#e36f47;stroke-linejoin:miter;"/>
    </g>
    <g id="line2d_16"/>
    <g id="text_14">
     <!-- DifferentialEquations -->
     <g transform="translate(327.841999 31.055896)scale(0.08 -0.08)">
      <defs>
       <path d="M 1259 4147 
L 1259 519 
L 2022 519 
Q 2988 519 3436 956 
Q 3884 1394 3884 2338 
Q 3884 3275 3436 3711 
Q 2988 4147 2022 4147 
L 1259 4147 
z
M 628 4666 
L 1925 4666 
Q 3281 4666 3915 4102 
Q 4550 3538 4550 2338 
Q 4550 1131 3912 565 
Q 3275 0 1925 0 
L 628 0 
L 628 4666 
z
" id="DejaVuSans-44" transform="scale(0.015625)"/>
       <path d="M 2375 4863 
L 2375 4384 
L 1825 4384 
Q 1516 4384 1395 4259 
Q 1275 4134 1275 3809 
L 1275 3500 
L 2222 3500 
L 2222 3053 
L 1275 3053 
L 1275 0 
L 697 0 
L 697 3053 
L 147 3053 
L 147 3500 
L 697 3500 
L 697 3744 
Q 697 4328 969 4595 
Q 1241 4863 1831 4863 
L 2375 4863 
z
" id="DejaVuSans-66" transform="scale(0.015625)"/>
       <path d="M 2631 2963 
Q 2534 3019 2420 3045 
Q 2306 3072 2169 3072 
Q 1681 3072 1420 2755 
Q 1159 2438 1159 1844 
L 1159 0 
L 581 0 
L 581 3500 
L 1159 3500 
L 1159 2956 
Q 1341 3275 1631 3429 
Q 1922 3584 2338 3584 
Q 2397 3584 2469 3576 
Q 2541 3569 2628 3553 
L 2631 2963 
z
" id="DejaVuSans-72" transform="scale(0.015625)"/>
       <path d="M 3513 2113 
L 3513 0 
L 2938 0 
L 2938 2094 
Q 2938 2591 2744 2837 
Q 2550 3084 2163 3084 
Q 1697 3084 1428 2787 
Q 1159 2491 1159 1978 
L 1159 0 
L 581 0 
L 581 3500 
L 1159 3500 
L 1159 2956 
Q 1366 3272 1645 3428 
Q 1925 3584 2291 3584 
Q 2894 3584 3203 3211 
Q 3513 2838 3513 2113 
z
" id="DejaVuSans-6e" transform="scale(0.015625)"/>
       <path d="M 1172 4494 
L 1172 3500 
L 2356 3500 
L 2356 3053 
L 1172 3053 
L 1172 1153 
Q 1172 725 1289 603 
Q 1406 481 1766 481 
L 2356 481 
L 2356 0 
L 1766 0 
Q 1100 0 847 248 
Q 594 497 594 1153 
L 594 3053 
L 172 3053 
L 172 3500 
L 594 3500 
L 594 4494 
L 1172 4494 
z
" id="DejaVuSans-74" transform="scale(0.015625)"/>
       <path d="M 603 4863 
L 1178 4863 
L 1178 0 
L 603 0 
L 603 4863 
z
" id="DejaVuSans-6c" transform="scale(0.015625)"/>
       <path d="M 628 4666 
L 3578 4666 
L 3578 4134 
L 1259 4134 
L 1259 2753 
L 3481 2753 
L 3481 2222 
L 1259 2222 
L 1259 531 
L 3634 531 
L 3634 0 
L 628 0 
L 628 4666 
z
" id="DejaVuSans-45" transform="scale(0.015625)"/>
       <path d="M 947 1747 
Q 947 1113 1208 752 
Q 1469 391 1925 391 
Q 2381 391 2643 752 
Q 2906 1113 2906 1747 
Q 2906 2381 2643 2742 
Q 2381 3103 1925 3103 
Q 1469 3103 1208 2742 
Q 947 2381 947 1747 
z
M 2906 525 
Q 2725 213 2448 61 
Q 2172 -91 1784 -91 
Q 1150 -91 751 415 
Q 353 922 353 1747 
Q 353 2572 751 3078 
Q 1150 3584 1784 3584 
Q 2172 3584 2448 3432 
Q 2725 3281 2906 2969 
L 2906 3500 
L 3481 3500 
L 3481 -1331 
L 2906 -1331 
L 2906 525 
z
" id="DejaVuSans-71" transform="scale(0.015625)"/>
       <path d="M 544 1381 
L 544 3500 
L 1119 3500 
L 1119 1403 
Q 1119 906 1312 657 
Q 1506 409 1894 409 
Q 2359 409 2629 706 
Q 2900 1003 2900 1516 
L 2900 3500 
L 3475 3500 
L 3475 0 
L 2900 0 
L 2900 538 
Q 2691 219 2414 64 
Q 2138 -91 1772 -91 
Q 1169 -91 856 284 
Q 544 659 544 1381 
z
M 1991 3584 
L 1991 3584 
z
" id="DejaVuSans-75" transform="scale(0.015625)"/>
       <path d="M 1959 3097 
Q 1497 3097 1228 2736 
Q 959 2375 959 1747 
Q 959 1119 1226 758 
Q 1494 397 1959 397 
Q 2419 397 2687 759 
Q 2956 1122 2956 1747 
Q 2956 2369 2687 2733 
Q 2419 3097 1959 3097 
z
M 1959 3584 
Q 2709 3584 3137 3096 
Q 3566 2609 3566 1747 
Q 3566 888 3137 398 
Q 2709 -91 1959 -91 
Q 1206 -91 779 398 
Q 353 888 353 1747 
Q 353 2609 779 3096 
Q 1206 3584 1959 3584 
z
" id="DejaVuSans-6f" transform="scale(0.015625)"/>
      </defs>
      <use xlink:href="#DejaVuSans-44"/>
      <use x="77.001953" xlink:href="#DejaVuSans-69"/>
      <use x="104.785156" xlink:href="#DejaVuSans-66"/>
      <use x="139.990234" xlink:href="#DejaVuSans-66"/>
      <use x="175.195312" xlink:href="#DejaVuSans-65"/>
      <use x="236.71875" xlink:href="#DejaVuSans-72"/>
      <use x="275.582031" xlink:href="#DejaVuSans-65"/>
      <use x="337.105469" xlink:href="#DejaVuSans-6e"/>
      <use x="400.484375" xlink:href="#DejaVuSans-74"/>
      <use x="439.693359" xlink:href="#DejaVuSans-69"/>
      <use x="467.476562" xlink:href="#DejaVuSans-61"/>
      <use x="528.755859" xlink:href="#DejaVuSans-6c"/>
      <use x="556.539062" xlink:href="#DejaVuSans-45"/>
      <use x="619.722656" xlink:href="#DejaVuSans-71"/>
      <use x="683.199219" xlink:href="#DejaVuSans-75"/>
      <use x="746.578125" xlink:href="#DejaVuSans-61"/>
      <use x="807.857422" xlink:href="#DejaVuSans-74"/>
      <use x="847.066406" xlink:href="#DejaVuSans-69"/>
      <use x="874.849609" xlink:href="#DejaVuSans-6f"/>
      <use x="936.03125" xlink:href="#DejaVuSans-6e"/>
      <use x="999.410156" xlink:href="#DejaVuSans-73"/>
     </g>
    </g>
   </g>
  </g>
 </g>
 <defs>
  <clipPath id="pd61d7d20d6">
   <rect height="255.390709" width="357.804455" x="64.557544" y="2.834646"/>
  </clipPath>
 </defs>
</svg>
