<?xml version="1.0" encoding="utf-8" standalone="no"?>
<!DOCTYPE svg PUBLIC "-//W3C//DTD SVG 1.1//EN"
  "http://www.w3.org/Graphics/SVG/1.1/DTD/svg11.dtd">
<svg height="288pt" version="1.1" viewBox="0 0 432 288" width="432pt" xmlns="http://www.w3.org/2000/svg" xmlns:xlink="http://www.w3.org/1999/xlink">
 <metadata>
  <rdf:RDF xmlns:cc="http://creativecommons.org/ns#" xmlns:dc="http://purl.org/dc/elements/1.1/" xmlns:rdf="http://www.w3.org/1999/02/22-rdf-syntax-ns#">
   <cc:Work>
    <dc:type rdf:resource="http://purl.org/dc/dcmitype/StillImage"/>
    <dc:date>2021-11-15T21:25:40.988981</dc:date>
    <dc:format>image/svg+xml</dc:format>
    <dc:creator>
     <cc:Agent>
      <dc:title>Matplotlib v3.4.3, https://matplotlib.org/</dc:title>
     </cc:Agent>
    </dc:creator>
   </cc:Work>
  </rdf:RDF>
 </metadata>
 <defs>
  <style type="text/css">*{stroke-linecap:butt;stroke-linejoin:round;}</style>
 </defs>
 <g id="figure_1">
  <g id="patch_1">
   <path d="M 0 288 
L 432 288 
L 432 0 
L 0 0 
z
" style="fill:#ffffff;"/>
  </g>
  <g id="axes_1">
   <g id="patch_2">
    <path d="M 69.557488 258.225354 
L 422.361999 258.225354 
L 422.361999 2.834646 
L 69.557488 2.834646 
z
" style="fill:#ffffff;"/>
   </g>
   <g id="line2d_1">
    <path clip-path="url(#pb6249debf9)" d="M 69.557488 126.836161 
L 69.910292 126.72098 
L 70.263097 127.080697 
L 70.615901 127.019419 
L 70.968706 126.647695 
L 71.674315 126.826791 
L 72.203521 126.242125 
L 72.379924 126.311105 
L 72.90913 126.841203 
L 73.261935 126.864708 
L 73.614739 127.184332 
L 73.967544 127.55282 
L 74.673153 127.252447 
L 75.025958 127.462047 
L 75.378762 127.189912 
L 75.731567 126.860675 
L 76.437176 127.236578 
L 76.78998 126.877806 
L 77.142785 126.934418 
L 77.495589 127.074659 
L 78.3776 126.376336 
L 78.554003 126.312842 
L 79.436014 125.047828 
L 79.788818 125.182023 
L 80.318025 125.007242 
L 80.494427 125.161087 
L 81.200036 126.396709 
L 81.552841 126.58163 
L 82.434852 127.70654 
L 82.787657 128.034803 
L 83.84607 129.463408 
L 84.022473 129.685594 
L 84.904484 131.550564 
L 85.257288 131.976374 
L 85.786495 132.977267 
L 85.962897 133.113946 
L 86.315702 133.116869 
L 86.668506 133.368788 
L 87.021311 133.772847 
L 87.374115 133.915421 
L 87.72692 134.347512 
L 88.256127 135.411924 
L 88.608931 135.701604 
L 88.785333 135.822009 
L 89.490943 136.895105 
L 90.020149 136.925592 
L 90.372954 137.084134 
L 90.725758 137.318602 
L 91.60777 137.284209 
L 91.960574 137.489485 
L 92.313379 137.418239 
L 92.489781 137.375432 
L 93.018988 137.5526 
L 93.19539 137.490458 
L 94.077401 136.349549 
L 94.253803 136.344728 
L 94.78301 135.873479 
L 95.135815 135.487307 
L 95.841424 135.422181 
L 96.547033 134.560748 
L 96.899837 134.373876 
L 97.958251 132.805361 
L 98.487458 131.988451 
L 98.840262 131.508306 
L 99.193067 131.489242 
L 99.545871 131.563554 
L 100.25148 131.058106 
L 100.604285 131.085067 
L 100.957089 130.708334 
L 101.309894 130.065189 
L 102.721112 129.127767 
L 103.073916 129.179051 
L 103.779525 128.654135 
L 104.308732 128.73211 
L 104.661537 128.330384 
L 105.014341 127.846516 
L 105.543548 127.480387 
L 106.249157 126.631328 
L 106.601961 126.688778 
L 106.778364 126.720834 
L 107.131168 126.501664 
L 107.483973 126.491249 
L 107.836777 126.666975 
L 108.189582 126.220329 
L 108.542386 125.623725 
L 109.071593 125.298439 
L 109.424397 124.71201 
L 109.777202 124.09409 
L 111.012018 122.891051 
L 111.541224 122.748254 
L 112.246834 122.14981 
L 112.599638 122.018411 
L 112.952443 121.575627 
L 113.305247 121.048113 
L 113.658052 120.990021 
L 114.010856 121.085851 
L 114.716465 120.811332 
L 115.06927 120.918454 
L 115.422074 120.718483 
L 115.951281 120.161154 
L 116.480488 119.861247 
L 117.186097 119.108383 
L 117.715303 119.109718 
L 118.068108 118.866755 
L 118.420912 118.942362 
L 118.950119 119.58262 
L 119.302924 119.684964 
L 119.479326 119.651565 
L 120.008533 119.997281 
L 120.361337 120.279098 
L 120.714142 120.448087 
L 121.066946 120.858419 
L 121.596153 121.898124 
L 122.830969 123.997539 
L 123.360176 124.201943 
L 123.71298 124.599019 
L 123.889382 124.807207 
L 124.242187 124.73874 
L 124.594991 124.547621 
L 126.535416 125.464966 
L 127.064623 125.057109 
L 128.123037 123.774364 
L 128.299439 123.492517 
L 129.18145 123.029687 
L 129.534255 122.619705 
L 129.887059 122.603132 
L 130.063461 122.659167 
L 130.416266 122.342499 
L 130.945473 121.874483 
L 131.298277 121.671736 
L 132.180288 120.495655 
L 132.533093 120.296967 
L 133.238702 119.704537 
L 133.767909 120.00281 
L 134.473518 119.36583 
L 134.826322 119.436953 
L 135.531931 118.95011 
L 136.590345 119.559395 
L 136.943149 120.236641 
L 137.472356 121.29847 
L 137.825161 121.824984 
L 138.707172 123.930217 
L 139.059976 124.452027 
L 139.765585 126.066808 
L 140.294792 127.356962 
L 141.000401 129.477359 
L 142.235217 131.894156 
L 142.764424 132.411215 
L 143.117228 133.129208 
L 143.646435 134.224799 
L 143.99924 134.767072 
L 145.763262 139.061421 
L 146.292469 139.664113 
L 147.17448 140.305432 
L 147.527285 140.578119 
L 147.880089 140.708588 
L 148.585698 141.014919 
L 148.938503 140.732033 
L 149.996916 138.795731 
L 150.702525 136.468993 
L 152.466548 130.792006 
L 153.172157 128.779453 
L 154.054168 126.214806 
L 154.759777 124.595246 
L 155.112582 124.173226 
L 156.170995 123.573513 
L 156.5238 123.802014 
L 156.876604 124.052762 
L 157.758616 124.050757 
L 158.11142 124.042669 
L 158.287822 123.999957 
L 159.169834 123.287934 
L 159.522638 123.337907 
L 160.228247 122.979104 
L 160.581052 123.001295 
L 160.933856 122.669858 
L 161.286661 122.156617 
L 161.99227 122.03453 
L 162.345074 121.712753 
L 162.697879 121.831854 
L 163.227085 122.499807 
L 163.756292 122.988581 
L 164.461901 124.27417 
L 164.991108 124.853149 
L 165.343913 125.253068 
L 165.696717 125.261487 
L 165.873119 125.220716 
L 166.225924 125.569228 
L 166.578728 126.010951 
L 167.813544 126.396555 
L 168.166349 125.999288 
L 169.04836 123.992729 
L 169.401164 122.892915 
L 173.987623 105.79537 
L 174.340428 105.619917 
L 174.693232 105.472778 
L 175.046037 105.719997 
L 175.398841 106.27238 
L 175.751646 107.087206 
L 176.810059 111.0704 
L 178.397679 120.648458 
L 179.632495 130.063084 
L 181.043713 140.088621 
L 182.102127 146.244693 
L 183.16054 151.003001 
L 184.042552 153.517501 
L 184.395356 153.92349 
L 184.924563 154.261547 
L 185.277367 154.120984 
L 185.630172 153.929344 
L 185.806574 153.926878 
L 186.159379 153.638599 
L 186.688585 152.574133 
L 187.217792 151.081139 
L 187.923401 148.255695 
L 190.040228 136.962866 
L 190.745837 133.259991 
L 191.275044 130.606338 
L 191.804251 128.06288 
L 192.50986 125.932592 
L 192.862664 125.46859 
L 193.215469 125.609325 
L 193.568273 126.113865 
L 193.921078 127.00193 
L 194.979491 131.181097 
L 195.861503 136.051693 
L 198.331134 150.096607 
L 199.036743 151.779836 
L 199.389548 152.198438 
L 200.271559 152.11309 
L 200.977168 151.586847 
L 201.329973 151.109131 
L 202.035582 149.531581 
L 202.388386 148.76608 
L 203.976007 142.754113 
L 204.328811 141.170443 
L 205.563627 133.093669 
L 206.62204 122.680823 
L 209.268074 92.929005 
L 209.797281 89.392625 
L 210.150085 88.295847 
L 210.50289 87.924002 
L 210.679292 87.988538 
L 210.855695 88.257671 
L 211.208499 89.659604 
L 211.561304 91.846829 
L 212.09051 96.825881 
L 213.325326 112.660253 
L 214.207337 123.573774 
L 214.912946 130.334681 
L 215.442153 133.467139 
L 215.97136 135.382034 
L 216.324164 135.910038 
L 216.676969 136.048745 
L 216.853371 136.055871 
L 217.029773 135.91248 
L 217.55898 134.906907 
L 217.911785 133.868278 
L 219.85221 126.048669 
L 220.205014 125.128376 
L 220.557819 124.12588 
L 220.910623 123.713156 
L 221.087025 123.598139 
L 221.616232 122.934883 
L 221.969037 122.90091 
L 222.145439 122.908156 
L 222.674646 122.222832 
L 223.02745 121.874158 
L 224.438668 121.942971 
L 224.791473 122.332895 
L 225.144277 121.974645 
L 225.849886 120.72077 
L 226.731898 117.568511 
L 227.437507 115.632856 
L 227.613909 115.594512 
L 227.966713 116.243825 
L 228.319518 117.51605 
L 228.848725 121.188309 
L 229.554334 127.204163 
L 230.259943 133.545429 
L 231.847563 145.163262 
L 232.200367 146.684816 
L 232.729574 147.890935 
L 232.905976 147.953958 
L 233.082379 147.81626 
L 233.435183 146.840501 
L 233.787988 145.25074 
L 234.669999 139.086174 
L 235.375608 134.314136 
L 235.904815 131.973166 
L 236.081217 131.600001 
L 236.610424 131.508985 
L 236.963228 131.811767 
L 237.668837 133.895846 
L 238.021642 135.330789 
L 240.314871 148.38794 
L 240.844078 150.88333 
L 241.373285 152.343379 
L 241.549687 152.576774 
L 241.726089 152.570155 
L 241.902492 152.396379 
L 242.608101 150.298611 
L 242.960905 148.516483 
L 243.666514 143.002605 
L 244.372123 134.611493 
L 244.90133 126.581686 
L 247.018157 89.71163 
L 247.547364 85.157675 
L 247.900168 83.795754 
L 248.07657 83.872755 
L 248.429375 84.783696 
L 248.78218 86.166959 
L 249.311386 90.210232 
L 250.722604 102.604434 
L 251.604616 110.557893 
L 252.310225 114.149678 
L 252.486627 114.268304 
L 252.839431 113.349574 
L 253.192236 111.739723 
L 254.250649 105.08537 
L 254.427052 104.695525 
L 254.603454 104.601702 
L 254.779856 104.853578 
L 255.132661 106.764909 
L 255.661867 111.707187 
L 256.543879 120.848609 
L 257.602292 128.892211 
L 258.131499 133.057683 
L 259.01351 141.496713 
L 259.719119 148.585725 
L 260.424728 153.92125 
L 261.30674 158.522075 
L 261.835946 161.82731 
L 263.599969 178.870158 
L 264.129176 180.548107 
L 264.305578 180.728578 
L 264.48198 180.440994 
L 265.011187 178.412261 
L 265.363992 177.31982 
L 266.951612 169.245369 
L 267.304416 168.517117 
L 267.657221 166.598623 
L 268.010025 164.419591 
L 268.36283 163.117094 
L 269.068439 159.451543 
L 269.244841 159.243943 
L 269.421243 158.796893 
L 270.126852 155.78504 
L 270.303255 155.392488 
L 270.656059 153.217979 
L 271.185266 149.28094 
L 271.538071 146.513218 
L 272.420082 135.973598 
L 273.125691 121.57518 
L 273.8313 104.773913 
L 274.713311 84.831117 
L 275.771725 64.379202 
L 276.653736 49.286975 
L 277.182943 42.010304 
L 277.535747 39.383551 
L 277.712149 38.760788 
L 277.888552 38.867153 
L 278.064954 39.713364 
L 278.241356 41.287158 
L 278.594161 47.346179 
L 279.123368 61.034298 
L 280.005379 91.42398 
L 281.592999 142.976732 
L 282.47501 165.361048 
L 283.004217 174.048423 
L 283.357022 177.428605 
L 283.709826 179.201693 
L 283.886228 179.386543 
L 284.062631 179.028288 
L 284.415435 177.053361 
L 285.650251 169.051916 
L 286.003055 168.737637 
L 286.179458 168.802738 
L 286.35586 169.074375 
L 286.532262 169.61256 
L 287.061469 172.263106 
L 287.237871 172.502386 
L 287.94348 172.223536 
L 288.119883 171.887627 
L 288.472687 170.350018 
L 289.178296 166.093903 
L 289.883905 158.696706 
L 290.413112 150.374798 
L 291.295123 133.780394 
L 294.117559 74.964988 
L 294.470364 70.661119 
L 295.175973 65.820938 
L 295.352375 65.388301 
L 295.528777 65.671054 
L 295.881582 66.991457 
L 296.234386 69.481151 
L 296.763593 77.190859 
L 297.2928 88.043662 
L 298.174811 115.194703 
L 299.586029 164.64219 
L 300.115236 176.997747 
L 300.644443 186.146705 
L 300.997247 189.303342 
L 301.350052 190.844819 
L 301.526454 190.880556 
L 301.702856 190.414916 
L 302.055661 187.798199 
L 302.408465 184.12645 
L 303.114074 173.730403 
L 304.34889 155.474828 
L 304.878097 150.98644 
L 305.230901 149.360324 
L 305.760108 147.759806 
L 306.289315 147.112276 
L 306.818522 145.721711 
L 306.994924 145.697465 
L 307.524131 146.27587 
L 307.700533 146.360759 
L 308.053337 147.59831 
L 308.406142 149.299338 
L 308.582544 149.482033 
L 308.935349 148.889553 
L 309.111751 148.114708 
L 309.288153 146.72994 
L 309.640958 140.846517 
L 310.170165 124.599842 
L 310.699371 99.908542 
L 311.934187 37.816617 
L 312.286992 28.046158 
L 312.639796 23.2773 
L 312.816198 22.826523 
L 312.992601 24.041861 
L 313.345405 30.433952 
L 314.051014 50.96371 
L 315.991439 116.891086 
L 316.697048 131.218521 
L 317.049853 135.106227 
L 317.402657 136.813139 
L 317.579059 136.651898 
L 317.755462 135.817027 
L 318.284668 130.104375 
L 318.813875 121.770157 
L 319.343082 113.292904 
L 319.872289 108.082173 
L 320.225093 105.907099 
L 320.577898 104.959689 
L 320.7543 104.143711 
L 321.107104 101.046263 
L 321.636311 96.191513 
L 321.989116 94.226153 
L 322.165518 93.873846 
L 322.34192 94.074879 
L 322.694725 95.666401 
L 323.047529 98.504348 
L 323.400334 103.503309 
L 324.105943 118.581783 
L 324.987954 138.43642 
L 325.517161 145.406966 
L 326.399172 154.595146 
L 327.104781 164.72083 
L 327.281183 166.200756 
L 327.457586 166.526423 
L 327.633988 165.175367 
L 327.986792 157.400572 
L 328.515999 136.336867 
L 330.809228 17.043908 
L 330.985631 13.378216 
L 331.162033 12.244185 
L 331.338435 13.761258 
L 331.69124 22.222307 
L 332.044044 37.016527 
L 333.455262 107.913007 
L 334.513676 146.573551 
L 334.86648 151.763743 
L 335.042883 152.491816 
L 335.219285 151.914595 
L 335.395687 150.332658 
L 336.630503 131.267016 
L 337.15971 116.36266 
L 337.688916 93.44509 
L 338.74733 37.570421 
L 339.100134 25.50975 
L 339.452939 21.041555 
L 339.629341 21.231962 
L 339.805744 22.793936 
L 339.982146 25.905533 
L 340.511353 43.642762 
L 342.098973 102.163337 
L 343.157386 125.148292 
L 343.686593 151.140506 
L 345.097811 231.889279 
L 345.450616 236.935367 
L 345.627018 236.357011 
L 345.979822 232.193325 
L 346.332627 224.566933 
L 346.861834 206.281672 
L 349.331465 117.07485 
L 349.68427 113.148034 
L 349.860672 112.593833 
L 350.037074 113.384052 
L 350.389879 117.595128 
L 350.742683 125.692682 
L 351.27189 147.35432 
L 351.801097 164.889804 
L 352.153901 169.947759 
L 352.330304 171.013696 
L 352.506706 171.086147 
L 352.683108 170.64258 
L 353.035913 169.125747 
L 353.212315 169.288164 
L 353.388717 170.800084 
L 353.741522 177.444842 
L 354.270728 188.554698 
L 354.447131 190.591024 
L 354.623533 191.171372 
L 354.799935 190.783837 
L 354.976338 188.850377 
L 355.329142 181.088111 
L 355.681947 169.186556 
L 356.034751 151.373608 
L 356.916762 97.873404 
L 357.269567 86.566624 
L 357.445969 85.594697 
L 357.622371 87.083086 
L 358.151578 98.467409 
L 359.386394 131.454494 
L 359.562796 132.721238 
L 359.739198 132.391266 
L 359.915601 130.533957 
L 360.797612 113.646432 
L 360.974014 114.670675 
L 361.150416 117.986525 
L 361.503221 130.430884 
L 362.20883 165.822123 
L 363.090841 209.437711 
L 363.443646 219.545402 
L 363.620048 220.808328 
L 363.79645 219.773098 
L 363.972853 216.605444 
L 364.325657 202.262016 
L 365.384071 142.811801 
L 365.736875 134.107194 
L 365.913277 133.668877 
L 366.08968 135.640125 
L 366.618886 147.350842 
L 367.148093 164.936002 
L 367.500898 176.421635 
L 367.6773 179.183521 
L 367.853702 179.005797 
L 368.030104 176.355093 
L 369.26492 143.166736 
L 369.441322 143.530566 
L 369.617725 146.722036 
L 369.970529 160.57944 
L 370.499736 196.967159 
L 371.028943 234.02558 
L 371.381747 245.681969 
L 371.55815 246.668571 
L 371.734552 244.78492 
L 372.087356 233.45595 
L 372.792965 204.244206 
L 373.498574 171.697955 
L 373.674977 168.760963 
L 373.851379 167.937793 
L 374.027781 168.377704 
L 374.380586 172.771037 
L 374.73339 178.428916 
L 374.909792 179.228774 
L 375.086195 177.428307 
L 375.438999 166.755053 
L 375.968206 138.993966 
L 376.497413 109.529939 
L 376.673815 104.419772 
L 376.850217 102.961431 
L 377.026619 104.827116 
L 377.379424 115.901698 
L 378.261435 151.422225 
L 378.437838 153.566269 
L 378.61424 152.301846 
L 378.967044 141.676262 
L 379.496251 125.232889 
L 380.20186 112.788199 
L 380.378262 112.473684 
L 380.554665 114.914589 
L 380.907469 124.569719 
L 381.965883 158.6314 
L 382.142285 158.162198 
L 382.318687 154.083721 
L 382.671492 136.798871 
L 384.259112 22.882935 
L 384.435514 18.907341 
L 384.611916 19.91298 
L 384.964721 32.143338 
L 385.67033 65.090305 
L 385.846732 66.491115 
L 386.023135 64.135271 
L 386.375939 57.210224 
L 386.552341 56.596588 
L 386.728744 58.270685 
L 387.25795 65.551495 
L 387.434353 64.752287 
L 387.787157 56.819209 
L 388.139962 50.577376 
L 388.316364 52.691826 
L 388.669168 68.588754 
L 389.903984 152.054509 
L 390.080386 155.846084 
L 390.256789 157.138814 
L 390.433191 156.341711 
L 390.785995 150.823629 
L 391.1388 142.067808 
L 391.491604 125.335273 
L 392.197213 84.676967 
L 392.550018 72.426266 
L 392.72642 69.973386 
L 392.902823 71.139789 
L 393.432029 80.900387 
L 393.784834 81.286686 
L 393.961236 83.859928 
L 394.843247 109.551734 
L 395.01965 109.827426 
L 395.196052 105.475347 
L 396.078063 65.376557 
L 396.254465 66.186832 
L 396.60727 71.763797 
L 396.960074 84.346358 
L 397.665683 109.865015 
L 398.371292 137.15129 
L 398.547695 139.250322 
L 398.900499 140.334578 
L 399.076901 139.789245 
L 399.253304 137.415572 
L 400.311717 111.060185 
L 400.48812 109.885492 
L 400.664522 109.842785 
L 400.840924 110.652161 
L 401.017326 110.768958 
L 401.193729 108.999369 
L 401.722935 100.309914 
L 402.07574 102.891244 
L 402.252142 102.366283 
L 402.428544 97.854101 
L 403.134153 62.753088 
L 403.310556 60.882093 
L 403.486958 62.983042 
L 403.839762 68.793342 
L 404.016165 67.72301 
L 404.368969 61.188571 
L 404.545371 62.02773 
L 405.25098 83.36918 
L 405.427383 81.103055 
L 405.780187 75.203425 
L 405.956589 76.491613 
L 406.309394 81.600871 
L 406.485796 80.046354 
L 406.838601 70.594789 
L 407.015003 70.081291 
L 407.191405 75.106968 
L 407.720612 96.318064 
L 407.897014 99.045871 
L 408.073417 103.854065 
L 408.426221 129.179151 
L 408.779026 153.321983 
L 408.955428 155.145796 
L 409.484635 145.165464 
L 409.661037 144.336588 
L 409.837439 142.262609 
L 410.190244 128.148445 
L 410.543048 113.94597 
L 410.71945 112.926107 
L 410.895853 116.053833 
L 411.777864 143.317346 
L 412.307071 171.131688 
L 412.659875 187.309547 
L 412.836277 190.657356 
L 413.01268 191.401827 
L 413.189082 190.026367 
L 413.365484 186.360947 
L 413.718289 168.598294 
L 414.423898 119.526619 
L 415.305909 100.154914 
L 415.482311 102.659933 
L 415.835116 121.218502 
L 416.364323 151.53308 
L 416.540725 155.134646 
L 416.717127 155.957592 
L 416.893529 155.5218 
L 417.069932 155.811343 
L 417.246334 156.851451 
L 417.422736 156.045354 
L 417.599138 151.594382 
L 419.010356 86.814733 
L 419.186759 83.088993 
L 419.363161 84.024425 
L 419.715965 96.428515 
L 420.245172 115.320431 
L 420.774379 128.506409 
L 421.303586 144.593979 
L 421.479988 141.484488 
L 422.185597 109.724515 
L 422.361999 107.895205 
L 422.361999 107.895205 
" style="fill:none;stroke:#009afa;"/>
   </g>
   <g id="matplotlib.axis_1">
    <g id="xtick_1">
     <g id="line2d_2">
      <defs>
       <path d="M 0 0 
L 0 -2.5 
" id="me1aee712ad" style="stroke:#000000;stroke-width:0.5;"/>
      </defs>
      <g>
       <use style="stroke:#000000;stroke-width:0.5;" x="69.557488" xlink:href="#me1aee712ad" y="258.225354"/>
      </g>
     </g>
     <g id="text_1">
      <!-- $0.0$ -->
      <g transform="translate(63.157488 267.804104)scale(0.08 -0.08)">
       <defs>
        <path d="M 2034 4250 
Q 1547 4250 1301 3770 
Q 1056 3291 1056 2328 
Q 1056 1369 1301 889 
Q 1547 409 2034 409 
Q 2525 409 2770 889 
Q 3016 1369 3016 2328 
Q 3016 3291 2770 3770 
Q 2525 4250 2034 4250 
z
M 2034 4750 
Q 2819 4750 3233 4129 
Q 3647 3509 3647 2328 
Q 3647 1150 3233 529 
Q 2819 -91 2034 -91 
Q 1250 -91 836 529 
Q 422 1150 422 2328 
Q 422 3509 836 4129 
Q 1250 4750 2034 4750 
z
" id="DejaVuSans-30" transform="scale(0.015625)"/>
        <path d="M 684 794 
L 1344 794 
L 1344 0 
L 684 0 
L 684 794 
z
" id="DejaVuSans-2e" transform="scale(0.015625)"/>
       </defs>
       <use transform="translate(0 0.78125)" xlink:href="#DejaVuSans-30"/>
       <use transform="translate(63.623047 0.78125)" xlink:href="#DejaVuSans-2e"/>
       <use transform="translate(95.410156 0.78125)" xlink:href="#DejaVuSans-30"/>
      </g>
     </g>
    </g>
    <g id="xtick_2">
     <g id="line2d_3">
      <g>
       <use style="stroke:#000000;stroke-width:0.5;" x="157.758616" xlink:href="#me1aee712ad" y="258.225354"/>
      </g>
     </g>
     <g id="text_2">
      <!-- $0.5$ -->
      <g transform="translate(151.358616 267.804104)scale(0.08 -0.08)">
       <defs>
        <path d="M 691 4666 
L 3169 4666 
L 3169 4134 
L 1269 4134 
L 1269 2991 
Q 1406 3038 1543 3061 
Q 1681 3084 1819 3084 
Q 2600 3084 3056 2656 
Q 3513 2228 3513 1497 
Q 3513 744 3044 326 
Q 2575 -91 1722 -91 
Q 1428 -91 1123 -41 
Q 819 9 494 109 
L 494 744 
Q 775 591 1075 516 
Q 1375 441 1709 441 
Q 2250 441 2565 725 
Q 2881 1009 2881 1497 
Q 2881 1984 2565 2268 
Q 2250 2553 1709 2553 
Q 1456 2553 1204 2497 
Q 953 2441 691 2322 
L 691 4666 
z
" id="DejaVuSans-35" transform="scale(0.015625)"/>
       </defs>
       <use transform="translate(0 0.78125)" xlink:href="#DejaVuSans-30"/>
       <use transform="translate(63.623047 0.78125)" xlink:href="#DejaVuSans-2e"/>
       <use transform="translate(95.410156 0.78125)" xlink:href="#DejaVuSans-35"/>
      </g>
     </g>
    </g>
    <g id="xtick_3">
     <g id="line2d_4">
      <g>
       <use style="stroke:#000000;stroke-width:0.5;" x="245.959743" xlink:href="#me1aee712ad" y="258.225354"/>
      </g>
     </g>
     <g id="text_3">
      <!-- $1.0$ -->
      <g transform="translate(239.559743 267.804104)scale(0.08 -0.08)">
       <defs>
        <path d="M 794 531 
L 1825 531 
L 1825 4091 
L 703 3866 
L 703 4441 
L 1819 4666 
L 2450 4666 
L 2450 531 
L 3481 531 
L 3481 0 
L 794 0 
L 794 531 
z
" id="DejaVuSans-31" transform="scale(0.015625)"/>
       </defs>
       <use transform="translate(0 0.78125)" xlink:href="#DejaVuSans-31"/>
       <use transform="translate(63.623047 0.78125)" xlink:href="#DejaVuSans-2e"/>
       <use transform="translate(95.410156 0.78125)" xlink:href="#DejaVuSans-30"/>
      </g>
     </g>
    </g>
    <g id="xtick_4">
     <g id="line2d_5">
      <g>
       <use style="stroke:#000000;stroke-width:0.5;" x="334.160871" xlink:href="#me1aee712ad" y="258.225354"/>
      </g>
     </g>
     <g id="text_4">
      <!-- $1.5$ -->
      <g transform="translate(327.760871 267.804104)scale(0.08 -0.08)">
       <use transform="translate(0 0.09375)" xlink:href="#DejaVuSans-31"/>
       <use transform="translate(63.623047 0.09375)" xlink:href="#DejaVuSans-2e"/>
       <use transform="translate(95.410156 0.09375)" xlink:href="#DejaVuSans-35"/>
      </g>
     </g>
    </g>
    <g id="xtick_5">
     <g id="line2d_6">
      <g>
       <use style="stroke:#000000;stroke-width:0.5;" x="422.361999" xlink:href="#me1aee712ad" y="258.225354"/>
      </g>
     </g>
     <g id="text_5">
      <!-- $2.0$ -->
      <g transform="translate(415.961999 267.804104)scale(0.08 -0.08)">
       <defs>
        <path d="M 1228 531 
L 3431 531 
L 3431 0 
L 469 0 
L 469 531 
Q 828 903 1448 1529 
Q 2069 2156 2228 2338 
Q 2531 2678 2651 2914 
Q 2772 3150 2772 3378 
Q 2772 3750 2511 3984 
Q 2250 4219 1831 4219 
Q 1534 4219 1204 4116 
Q 875 4013 500 3803 
L 500 4441 
Q 881 4594 1212 4672 
Q 1544 4750 1819 4750 
Q 2544 4750 2975 4387 
Q 3406 4025 3406 3419 
Q 3406 3131 3298 2873 
Q 3191 2616 2906 2266 
Q 2828 2175 2409 1742 
Q 1991 1309 1228 531 
z
" id="DejaVuSans-32" transform="scale(0.015625)"/>
       </defs>
       <use transform="translate(0 0.78125)" xlink:href="#DejaVuSans-32"/>
       <use transform="translate(63.623047 0.78125)" xlink:href="#DejaVuSans-2e"/>
       <use transform="translate(95.410156 0.78125)" xlink:href="#DejaVuSans-30"/>
      </g>
     </g>
    </g>
    <g id="text_6">
     <!-- Time (s) -->
     <g transform="translate(223.597947 281.826136)scale(0.11 -0.11)">
      <defs>
       <path d="M -19 4666 
L 3928 4666 
L 3928 4134 
L 2272 4134 
L 2272 0 
L 1638 0 
L 1638 4134 
L -19 4134 
L -19 4666 
z
" id="DejaVuSans-54" transform="scale(0.015625)"/>
       <path d="M 603 3500 
L 1178 3500 
L 1178 0 
L 603 0 
L 603 3500 
z
M 603 4863 
L 1178 4863 
L 1178 4134 
L 603 4134 
L 603 4863 
z
" id="DejaVuSans-69" transform="scale(0.015625)"/>
       <path d="M 3328 2828 
Q 3544 3216 3844 3400 
Q 4144 3584 4550 3584 
Q 5097 3584 5394 3201 
Q 5691 2819 5691 2113 
L 5691 0 
L 5113 0 
L 5113 2094 
Q 5113 2597 4934 2840 
Q 4756 3084 4391 3084 
Q 3944 3084 3684 2787 
Q 3425 2491 3425 1978 
L 3425 0 
L 2847 0 
L 2847 2094 
Q 2847 2600 2669 2842 
Q 2491 3084 2119 3084 
Q 1678 3084 1418 2786 
Q 1159 2488 1159 1978 
L 1159 0 
L 581 0 
L 581 3500 
L 1159 3500 
L 1159 2956 
Q 1356 3278 1631 3431 
Q 1906 3584 2284 3584 
Q 2666 3584 2933 3390 
Q 3200 3197 3328 2828 
z
" id="DejaVuSans-6d" transform="scale(0.015625)"/>
       <path d="M 3597 1894 
L 3597 1613 
L 953 1613 
Q 991 1019 1311 708 
Q 1631 397 2203 397 
Q 2534 397 2845 478 
Q 3156 559 3463 722 
L 3463 178 
Q 3153 47 2828 -22 
Q 2503 -91 2169 -91 
Q 1331 -91 842 396 
Q 353 884 353 1716 
Q 353 2575 817 3079 
Q 1281 3584 2069 3584 
Q 2775 3584 3186 3129 
Q 3597 2675 3597 1894 
z
M 3022 2063 
Q 3016 2534 2758 2815 
Q 2500 3097 2075 3097 
Q 1594 3097 1305 2825 
Q 1016 2553 972 2059 
L 3022 2063 
z
" id="DejaVuSans-65" transform="scale(0.015625)"/>
       <path id="DejaVuSans-20" transform="scale(0.015625)"/>
       <path d="M 1984 4856 
Q 1566 4138 1362 3434 
Q 1159 2731 1159 2009 
Q 1159 1288 1364 580 
Q 1569 -128 1984 -844 
L 1484 -844 
Q 1016 -109 783 600 
Q 550 1309 550 2009 
Q 550 2706 781 3412 
Q 1013 4119 1484 4856 
L 1984 4856 
z
" id="DejaVuSans-28" transform="scale(0.015625)"/>
       <path d="M 2834 3397 
L 2834 2853 
Q 2591 2978 2328 3040 
Q 2066 3103 1784 3103 
Q 1356 3103 1142 2972 
Q 928 2841 928 2578 
Q 928 2378 1081 2264 
Q 1234 2150 1697 2047 
L 1894 2003 
Q 2506 1872 2764 1633 
Q 3022 1394 3022 966 
Q 3022 478 2636 193 
Q 2250 -91 1575 -91 
Q 1294 -91 989 -36 
Q 684 19 347 128 
L 347 722 
Q 666 556 975 473 
Q 1284 391 1588 391 
Q 1994 391 2212 530 
Q 2431 669 2431 922 
Q 2431 1156 2273 1281 
Q 2116 1406 1581 1522 
L 1381 1569 
Q 847 1681 609 1914 
Q 372 2147 372 2553 
Q 372 3047 722 3315 
Q 1072 3584 1716 3584 
Q 2034 3584 2315 3537 
Q 2597 3491 2834 3397 
z
" id="DejaVuSans-73" transform="scale(0.015625)"/>
       <path d="M 513 4856 
L 1013 4856 
Q 1481 4119 1714 3412 
Q 1947 2706 1947 2009 
Q 1947 1309 1714 600 
Q 1481 -109 1013 -844 
L 513 -844 
Q 928 -128 1133 580 
Q 1338 1288 1338 2009 
Q 1338 2731 1133 3434 
Q 928 4138 513 4856 
z
" id="DejaVuSans-29" transform="scale(0.015625)"/>
      </defs>
      <use xlink:href="#DejaVuSans-54"/>
      <use x="57.958984" xlink:href="#DejaVuSans-69"/>
      <use x="85.742188" xlink:href="#DejaVuSans-6d"/>
      <use x="183.154297" xlink:href="#DejaVuSans-65"/>
      <use x="244.677734" xlink:href="#DejaVuSans-20"/>
      <use x="276.464844" xlink:href="#DejaVuSans-28"/>
      <use x="315.478516" xlink:href="#DejaVuSans-73"/>
      <use x="367.578125" xlink:href="#DejaVuSans-29"/>
     </g>
    </g>
   </g>
   <g id="matplotlib.axis_2">
    <g id="ytick_1">
     <g id="line2d_7">
      <defs>
       <path d="M 0 0 
L 2.5 0 
" id="m1d83926718" style="stroke:#000000;stroke-width:0.5;"/>
      </defs>
      <g>
       <use style="stroke:#000000;stroke-width:0.5;" x="69.557488" xlink:href="#m1d83926718" y="224.358674"/>
      </g>
     </g>
     <g id="text_7">
      <!-- $-5.00×10^{5}$ -->
      <g transform="translate(20.777488 227.398049)scale(0.08 -0.08)">
       <defs>
        <path d="M 678 2272 
L 4684 2272 
L 4684 1741 
L 678 1741 
L 678 2272 
z
" id="DejaVuSans-2212" transform="scale(0.015625)"/>
        <path d="M 4488 3438 
L 3059 2003 
L 4488 575 
L 4116 197 
L 2681 1631 
L 1247 197 
L 878 575 
L 2303 2003 
L 878 3438 
L 1247 3816 
L 2681 2381 
L 4116 3816 
L 4488 3438 
z
" id="DejaVuSans-d7" transform="scale(0.015625)"/>
       </defs>
       <use transform="translate(0 0.684375)" xlink:href="#DejaVuSans-2212"/>
       <use transform="translate(83.789062 0.684375)" xlink:href="#DejaVuSans-35"/>
       <use transform="translate(147.412109 0.684375)" xlink:href="#DejaVuSans-2e"/>
       <use transform="translate(179.199219 0.684375)" xlink:href="#DejaVuSans-30"/>
       <use transform="translate(242.822266 0.684375)" xlink:href="#DejaVuSans-30"/>
       <use transform="translate(306.445312 0.684375)" xlink:href="#DejaVuSans-d7"/>
       <use transform="translate(390.234375 0.684375)" xlink:href="#DejaVuSans-31"/>
       <use transform="translate(453.857422 0.684375)" xlink:href="#DejaVuSans-30"/>
       <use transform="translate(518.4375 38.965625)scale(0.7)" xlink:href="#DejaVuSans-35"/>
      </g>
     </g>
    </g>
    <g id="ytick_2">
     <g id="line2d_8">
      <g>
       <use style="stroke:#000000;stroke-width:0.5;" x="69.557488" xlink:href="#m1d83926718" y="175.597418"/>
      </g>
     </g>
     <g id="text_8">
      <!-- $-2.50×10^{5}$ -->
      <g transform="translate(20.777488 178.636793)scale(0.08 -0.08)">
       <use transform="translate(0 0.684375)" xlink:href="#DejaVuSans-2212"/>
       <use transform="translate(83.789062 0.684375)" xlink:href="#DejaVuSans-32"/>
       <use transform="translate(147.412109 0.684375)" xlink:href="#DejaVuSans-2e"/>
       <use transform="translate(179.199219 0.684375)" xlink:href="#DejaVuSans-35"/>
       <use transform="translate(242.822266 0.684375)" xlink:href="#DejaVuSans-30"/>
       <use transform="translate(306.445312 0.684375)" xlink:href="#DejaVuSans-d7"/>
       <use transform="translate(390.234375 0.684375)" xlink:href="#DejaVuSans-31"/>
       <use transform="translate(453.857422 0.684375)" xlink:href="#DejaVuSans-30"/>
       <use transform="translate(518.4375 38.965625)scale(0.7)" xlink:href="#DejaVuSans-35"/>
      </g>
     </g>
    </g>
    <g id="ytick_3">
     <g id="line2d_9">
      <g>
       <use style="stroke:#000000;stroke-width:0.5;" x="69.557488" xlink:href="#m1d83926718" y="126.836161"/>
      </g>
     </g>
     <g id="text_9">
      <!-- $0$ -->
      <g transform="translate(60.937488 129.875536)scale(0.08 -0.08)">
       <use transform="translate(0 0.78125)" xlink:href="#DejaVuSans-30"/>
      </g>
     </g>
    </g>
    <g id="ytick_4">
     <g id="line2d_10">
      <g>
       <use style="stroke:#000000;stroke-width:0.5;" x="69.557488" xlink:href="#m1d83926718" y="78.074905"/>
      </g>
     </g>
     <g id="text_10">
      <!-- $2.50×10^{5}$ -->
      <g transform="translate(27.497488 81.11428)scale(0.08 -0.08)">
       <use transform="translate(0 0.684375)" xlink:href="#DejaVuSans-32"/>
       <use transform="translate(63.623047 0.684375)" xlink:href="#DejaVuSans-2e"/>
       <use transform="translate(95.410156 0.684375)" xlink:href="#DejaVuSans-35"/>
       <use transform="translate(159.033203 0.684375)" xlink:href="#DejaVuSans-30"/>
       <use transform="translate(222.65625 0.684375)" xlink:href="#DejaVuSans-d7"/>
       <use transform="translate(306.445312 0.684375)" xlink:href="#DejaVuSans-31"/>
       <use transform="translate(370.068359 0.684375)" xlink:href="#DejaVuSans-30"/>
       <use transform="translate(434.648438 38.965625)scale(0.7)" xlink:href="#DejaVuSans-35"/>
      </g>
     </g>
    </g>
    <g id="ytick_5">
     <g id="line2d_11">
      <g>
       <use style="stroke:#000000;stroke-width:0.5;" x="69.557488" xlink:href="#m1d83926718" y="29.313648"/>
      </g>
     </g>
     <g id="text_11">
      <!-- $5.00×10^{5}$ -->
      <g transform="translate(27.497488 32.353023)scale(0.08 -0.08)">
       <use transform="translate(0 0.684375)" xlink:href="#DejaVuSans-35"/>
       <use transform="translate(63.623047 0.684375)" xlink:href="#DejaVuSans-2e"/>
       <use transform="translate(95.410156 0.684375)" xlink:href="#DejaVuSans-30"/>
       <use transform="translate(159.033203 0.684375)" xlink:href="#DejaVuSans-30"/>
       <use transform="translate(222.65625 0.684375)" xlink:href="#DejaVuSans-d7"/>
       <use transform="translate(306.445312 0.684375)" xlink:href="#DejaVuSans-31"/>
       <use transform="translate(370.068359 0.684375)" xlink:href="#DejaVuSans-30"/>
       <use transform="translate(434.648438 38.965625)scale(0.7)" xlink:href="#DejaVuSans-35"/>
      </g>
     </g>
    </g>
    <g id="text_12">
     <!-- $M_x$ ($Nm$) -->
     <g transform="translate(14.489831 153.245)rotate(-90)scale(0.11 -0.11)">
      <defs>
       <path d="M 1081 4666 
L 2028 4666 
L 2572 1522 
L 4378 4666 
L 5350 4666 
L 4441 0 
L 3828 0 
L 4622 4091 
L 2791 897 
L 2175 897 
L 1581 4103 
L 788 0 
L 172 0 
L 1081 4666 
z
" id="DejaVuSans-Oblique-4d" transform="scale(0.015625)"/>
       <path d="M 3841 3500 
L 2234 1784 
L 3219 0 
L 2559 0 
L 1819 1388 
L 531 0 
L -166 0 
L 1556 1844 
L 641 3500 
L 1300 3500 
L 1972 2234 
L 3144 3500 
L 3841 3500 
z
" id="DejaVuSans-Oblique-78" transform="scale(0.015625)"/>
       <path d="M 1081 4666 
L 1931 4666 
L 3219 666 
L 4000 4666 
L 4616 4666 
L 3706 0 
L 2853 0 
L 1569 4025 
L 788 0 
L 172 0 
L 1081 4666 
z
" id="DejaVuSans-Oblique-4e" transform="scale(0.015625)"/>
       <path d="M 5747 2113 
L 5338 0 
L 4763 0 
L 5166 2094 
Q 5191 2228 5203 2325 
Q 5216 2422 5216 2491 
Q 5216 2772 5059 2928 
Q 4903 3084 4622 3084 
Q 4203 3084 3875 2770 
Q 3547 2456 3450 1953 
L 3066 0 
L 2491 0 
L 2900 2094 
Q 2925 2209 2937 2307 
Q 2950 2406 2950 2484 
Q 2950 2769 2794 2926 
Q 2638 3084 2363 3084 
Q 1938 3084 1609 2770 
Q 1281 2456 1184 1953 
L 800 0 
L 225 0 
L 909 3500 
L 1484 3500 
L 1375 2956 
Q 1609 3263 1923 3423 
Q 2238 3584 2597 3584 
Q 2978 3584 3223 3384 
Q 3469 3184 3519 2828 
Q 3781 3197 4126 3390 
Q 4472 3584 4856 3584 
Q 5306 3584 5551 3325 
Q 5797 3066 5797 2591 
Q 5797 2488 5784 2364 
Q 5772 2241 5747 2113 
z
" id="DejaVuSans-Oblique-6d" transform="scale(0.015625)"/>
      </defs>
      <use transform="translate(0 0.125)" xlink:href="#DejaVuSans-Oblique-4d"/>
      <use transform="translate(86.279297 -16.28125)scale(0.7)" xlink:href="#DejaVuSans-Oblique-78"/>
      <use transform="translate(130.439453 0.125)" xlink:href="#DejaVuSans-20"/>
      <use transform="translate(162.226562 0.125)" xlink:href="#DejaVuSans-28"/>
      <use transform="translate(201.240234 0.125)" xlink:href="#DejaVuSans-Oblique-4e"/>
      <use transform="translate(276.044922 0.125)" xlink:href="#DejaVuSans-Oblique-6d"/>
      <use transform="translate(373.457031 0.125)" xlink:href="#DejaVuSans-29"/>
     </g>
    </g>
   </g>
   <g id="line2d_12">
    <path clip-path="url(#pb6249debf9)" d="M 69.557488 126.836161 
L 69.714317 126.731487 
L 69.851154 126.732406 
L 70.314391 127.115669 
L 70.619433 126.931023 
L 70.882743 126.709261 
L 71.051938 126.70681 
L 71.407714 126.925636 
L 71.53375 126.875923 
L 72.049326 126.257807 
L 72.374517 126.521096 
L 72.6357 126.659429 
L 72.834924 126.637861 
L 72.968853 126.624029 
L 73.30429 127.016964 
L 73.578591 127.385906 
L 73.717794 127.43883 
L 74.139204 127.211595 
L 74.491952 127.485665 
L 74.70397 127.567855 
L 75.064006 127.124846 
L 75.319913 126.978983 
L 75.459014 127.040391 
L 75.760731 127.253662 
L 75.915859 127.235636 
L 76.306378 126.905232 
L 76.627504 127.068745 
L 76.870209 127.185475 
L 77.560431 126.805239 
L 77.824378 126.964803 
L 78.001503 126.878587 
L 78.418209 126.076777 
L 78.669313 125.829035 
L 79.097111 125.566019 
L 79.632429 124.880307 
L 79.8237 124.937833 
L 80.206725 125.278483 
L 80.589749 125.407204 
L 80.781261 125.667239 
L 81.266529 126.535045 
L 81.858483 126.872854 
L 82.648561 127.965471 
L 82.947591 128.172137 
L 83.655809 129.329825 
L 83.962267 129.667286 
L 85.73111 132.895093 
L 85.939971 132.93729 
L 86.148832 132.899256 
L 86.368035 132.988204 
L 86.916044 133.638313 
L 87.379621 133.935167 
L 88.41649 135.418695 
L 88.690337 135.876792 
L 89.085377 136.525138 
L 89.832958 136.840653 
L 90.158904 137.199837 
L 90.378206 137.231487 
L 90.845018 137.000262 
L 91.088608 137.112646 
L 91.456507 137.383215 
L 92.323344 137.651859 
L 92.579711 137.70314 
L 94.003896 136.432004 
L 94.379751 135.976872 
L 94.640813 135.975807 
L 94.904874 135.985344 
L 95.169518 135.748303 
L 95.587577 135.32926 
L 96.153144 135.141904 
L 97.310547 133.735884 
L 97.893445 132.541217 
L 99.06996 131.486235 
L 99.634771 131.708915 
L 99.963198 131.370006 
L 100.314856 131.06107 
L 100.694604 130.849312 
L 101.56394 129.916772 
L 101.867436 129.773299 
L 102.505911 129.099187 
L 103.046304 129.250481 
L 103.617481 128.795244 
L 104.013026 128.944248 
L 104.223286 128.80338 
L 104.86424 127.981846 
L 105.081732 127.836997 
L 105.734209 126.878576 
L 105.956336 126.857657 
L 106.178463 126.972815 
L 106.400589 126.955363 
L 106.881816 126.598701 
L 107.363042 126.809191 
L 107.603655 126.70084 
L 108.087606 126.140086 
L 108.587909 125.806069 
L 109.37747 124.689079 
L 109.640657 124.404535 
L 110.178751 123.496141 
L 110.453657 123.382247 
L 110.728564 123.424641 
L 111.00347 123.228731 
L 111.278377 122.864356 
L 112.103096 122.313999 
L 112.378002 121.839548 
L 112.652909 121.611777 
L 112.927815 121.538514 
L 113.477643 121.097914 
L 113.752557 121.110902 
L 114.027471 121.252249 
L 114.303067 121.221134 
L 114.854259 120.807257 
L 115.426832 120.811544 
L 116.289376 119.854685 
L 116.579347 119.671374 
L 117.159288 119.026866 
L 117.739229 119.167479 
L 118.0292 119.110649 
L 118.31917 119.215164 
L 118.899111 119.668647 
L 119.481336 119.518131 
L 119.772449 119.704683 
L 120.354674 120.235701 
L 120.65101 120.44052 
L 122.829056 123.860676 
L 123.479254 124.490304 
L 123.804353 124.48205 
L 124.129453 124.345156 
L 124.369031 124.447034 
L 124.900047 124.977654 
L 125.489813 125.231404 
L 125.784696 125.468214 
L 126.079579 125.532754 
L 127.268465 124.794777 
L 127.565686 124.313711 
L 127.862907 124.082636 
L 128.160129 124.000812 
L 128.754572 123.173402 
L 129.646236 123.002677 
L 129.948819 122.769472 
L 130.251403 122.681191 
L 130.553986 122.461843 
L 131.159153 121.511847 
L 131.461736 121.325486 
L 132.099601 120.484058 
L 132.770162 120.50568 
L 133.440724 119.91852 
L 133.776004 119.916063 
L 134.651745 119.351746 
L 134.856924 119.339698 
L 135.463117 118.81423 
L 135.673354 118.930894 
L 136.103266 119.403426 
L 136.558075 119.667066 
L 137.545708 121.580307 
L 138.81916 123.725637 
L 140.601992 128.582502 
L 141.875444 131.008866 
L 142.384824 131.672634 
L 143.403586 133.377139 
L 144.422347 136.1549 
L 145.36213 138.097314 
L 147.665568 140.782337 
L 148.357954 140.935356 
L 148.819545 140.863397 
L 149.05034 140.600095 
L 149.956043 138.441572 
L 150.664057 136.336568 
L 153.804651 126.697436 
L 154.62186 124.740975 
L 155.099949 124.18542 
L 156.074649 123.91578 
L 156.561999 124.181998 
L 156.805673 124.147537 
L 157.314338 123.793713 
L 157.825625 123.835998 
L 158.081268 123.841351 
L 158.848198 123.62368 
L 159.103841 123.666887 
L 160.129556 123.224994 
L 160.386247 123.054015 
L 160.899628 122.435394 
L 161.6697 121.91525 
L 161.926391 121.66825 
L 162.183081 121.688094 
L 163.438391 123.221002 
L 163.775429 123.580323 
L 164.118476 123.716976 
L 164.805055 124.454808 
L 165.14907 124.493192 
L 165.502317 124.988359 
L 165.858974 125.537829 
L 167.285966 126.595104 
L 167.643354 126.45567 
L 168.004463 126.146652 
L 168.38196 125.407495 
L 170.688379 118.822544 
L 171.627158 114.645831 
L 172.818625 109.340726 
L 173.556071 106.961161 
L 174.047702 106.203619 
L 174.590099 105.83699 
L 174.865335 105.999418 
L 175.429305 106.765759 
L 175.99697 108.01823 
L 176.583458 110.031695 
L 177.763599 116.601549 
L 179.382836 128.18338 
L 180.550147 136.504577 
L 181.940943 145.450078 
L 182.594047 148.659091 
L 183.456756 151.772193 
L 183.915974 152.682985 
L 184.942441 154.069201 
L 185.784045 153.970343 
L 186.281348 153.431948 
L 186.619249 152.747045 
L 187.355725 150.306399 
L 189.172684 142.009103 
L 189.77931 138.608161 
L 191.396982 129.705858 
L 192.003608 127.201319 
L 192.408026 126.421633 
L 192.812444 126.173234 
L 193.014653 126.130102 
L 193.216862 126.248056 
L 193.62128 126.991371 
L 194.227906 128.473959 
L 195.036742 131.5021 
L 195.850257 136.146562 
L 197.51071 146.327799 
L 198.352763 149.754811 
L 199.00619 151.258455 
L 199.454251 151.677957 
L 200.130629 152.06055 
L 200.80915 151.828565 
L 201.261497 150.968154 
L 201.940017 149.489637 
L 203.756866 143.692119 
L 204.671508 139.082978 
L 205.357489 134.713771 
L 206.272131 126.344087 
L 207.415434 113.505157 
L 209.068367 95.107019 
L 209.577683 91.189843 
L 210.087021 88.79036 
L 210.341691 88.278432 
L 210.59636 88.18809 
L 210.851029 88.510434 
L 211.105698 89.463224 
L 211.706043 93.738251 
L 212.260649 99.574225 
L 214.821428 129.488293 
L 215.324467 132.875661 
L 215.84308 135.038478 
L 216.297427 135.905498 
L 216.60102 136.0295 
L 216.904612 135.708744 
L 217.551633 134.372389 
L 218.277113 131.539993 
L 219.770419 126.329674 
L 220.539748 124.176281 
L 221.892434 122.350778 
L 222.222083 122.18336 
L 222.925128 121.600323 
L 223.753091 121.775769 
L 224.344493 122.333521 
L 225.18572 121.693472 
L 225.390702 121.31808 
L 225.868995 119.724689 
L 227.096006 116.089043 
L 227.353298 115.904185 
L 227.629588 115.986329 
L 227.90946 116.420732 
L 228.194187 117.358937 
L 228.606744 119.779827 
L 229.681104 128.049789 
L 231.225313 141.280669 
L 231.827278 145.142098 
L 232.23028 146.730788 
L 232.431781 147.241398 
L 232.633282 147.43834 
L 232.834783 147.337487 
L 233.238948 146.537549 
L 233.651165 144.867879 
L 234.271654 140.894815 
L 235.119156 135.291588 
L 235.756121 132.184287 
L 236.180765 131.149653 
L 236.393087 130.910327 
L 236.605408 130.907073 
L 237.001278 131.367878 
L 237.370905 132.480618 
L 237.969257 135.282672 
L 240.908324 151.597705 
L 241.243344 152.506631 
L 241.608345 152.857468 
L 241.790846 152.844791 
L 241.98952 152.667064 
L 242.394798 151.741823 
L 242.800075 150.07034 
L 243.218357 147.400343 
L 243.875986 141.276811 
L 244.54568 132.494486 
L 245.445173 116.729158 
L 246.829119 92.381276 
L 247.290434 87.725021 
L 247.751749 85.224615 
L 247.982407 84.870955 
L 248.213065 85.002051 
L 248.443722 85.537094 
L 248.905038 87.900173 
L 249.597011 92.948236 
L 250.750299 104.139009 
L 251.778064 112.802015 
L 252.102517 113.96289 
L 252.342051 114.172326 
L 252.467401 114.044552 
L 252.718101 113.260413 
L 253.470202 108.676193 
L 254.096952 105.351879 
L 254.347652 104.884949 
L 254.474099 104.951265 
L 254.726992 105.757763 
L 255.259325 109.270436 
L 255.686394 113.114351 
L 256.584545 121.745477 
L 258.906645 141.993333 
L 259.795472 149.917736 
L 260.623417 154.128176 
L 261.291096 157.879461 
L 261.974373 163.768262 
L 263.24424 176.360726 
L 263.692514 178.401657 
L 264.051852 179.078239 
L 264.173371 179.110147 
L 264.29489 179.006936 
L 264.809917 177.748229 
L 265.288162 175.841773 
L 266.014374 173.227745 
L 266.827327 170.211182 
L 268.016461 163.829256 
L 268.61559 160.551424 
L 269.122873 158.295738 
L 270.103655 154.49378 
L 270.744573 151.169219 
L 271.512166 145.165086 
L 272.026355 139.510722 
L 272.682087 128.895604 
L 273.664262 108.155238 
L 276.119796 58.270792 
L 276.839942 45.846391 
L 277.302745 40.717074 
L 277.6522 39.288027 
L 277.778492 39.46381 
L 277.905418 39.989691 
L 278.16628 42.442372 
L 278.568089 49.19697 
L 279.23777 66.88354 
L 280.711067 116.412306 
L 281.948294 154.945936 
L 282.593179 168.972363 
L 283.074297 175.636488 
L 283.369202 177.74764 
L 283.585865 178.265859 
L 283.70214 178.277584 
L 283.940475 177.75597 
L 284.310695 175.992314 
L 285.188131 170.722649 
L 285.704947 169.075538 
L 285.83509 168.978935 
L 287.216931 170.372744 
L 287.903963 169.879746 
L 288.441925 168.290762 
L 288.9367 166.013365 
L 289.351552 162.939521 
L 289.91291 156.840207 
L 290.503753 147.327929 
L 291.325831 130.964075 
L 293.469095 85.292988 
L 294.17814 73.795243 
L 294.742276 67.520503 
L 295.233814 64.495003 
L 295.405158 64.119548 
L 295.576502 64.230879 
L 295.747846 64.695741 
L 296.040498 66.450153 
L 296.48902 71.813784 
L 296.937649 80.483407 
L 297.546193 97.020181 
L 298.466714 128.2684 
L 299.740704 169.408843 
L 300.422539 184.484439 
L 300.89661 190.418203 
L 301.209843 192.070133 
L 301.361252 192.343786 
L 301.52129 192.153966 
L 301.701227 191.511258 
L 302.044695 188.74449 
L 302.556887 181.988191 
L 304.277638 156.7527 
L 304.805914 152.135233 
L 305.350244 148.990768 
L 305.915692 146.706669 
L 306.54181 145.156324 
L 307.045041 145.014645 
L 307.171043 145.040596 
L 307.54905 146.135181 
L 308.68307 151.256782 
L 308.810589 151.306034 
L 308.938108 150.98246 
L 309.193145 149.134075 
L 309.57805 142.704132 
L 309.983623 130.988857 
L 310.544128 106.426031 
L 311.924672 38.778594 
L 312.248338 30.363217 
L 312.588352 26.713597 
L 312.758359 26.712103 
L 312.929571 27.832492 
L 313.271997 33.058232 
L 313.79465 46.399987 
L 314.695788 76.325477 
L 316.137608 124.097617 
L 316.678291 134.329065 
L 317.038746 137.369527 
L 317.218974 137.730647 
L 317.40107 137.466573 
L 317.583356 136.565579 
L 317.949092 132.928078 
L 319.495757 112.450717 
L 319.853008 111.00512 
L 320.225011 110.248792 
L 320.411012 109.435 
L 320.785839 106.287708 
L 321.730341 96.875321 
L 322.077314 95.563907 
L 322.235338 95.615711 
L 322.475832 96.360597 
L 322.836574 98.860657 
L 323.197317 102.993918 
L 323.607496 110.241383 
L 325.011886 138.496808 
L 325.478104 143.309675 
L 325.93332 147.416863 
L 326.527692 156.343883 
L 327.018559 163.503012 
L 327.263992 164.613108 
L 327.394922 164.318058 
L 327.656782 160.985667 
L 328.010239 151.610157 
L 328.583826 127.241427 
L 329.638969 67.76312 
L 330.518571 19.163178 
L 330.828786 11.120619 
L 331.038749 10.062685 
L 331.143731 10.638437 
L 331.353694 14.503328 
L 331.695397 26.239316 
L 332.520603 67.165286 
L 333.96898 133.25425 
L 334.436894 146.449425 
L 334.664953 148.647239 
L 334.74865 148.7767 
L 334.832348 148.706391 
L 335.092127 146.697594 
L 336.335002 136.235953 
L 336.639037 129.846026 
L 337.069977 116.359847 
L 337.646891 88.808722 
L 338.597972 41.147558 
L 339.090174 26.620118 
L 339.336275 23.474075 
L 339.459325 22.93392 
L 339.582376 23.5255 
L 339.828477 26.657353 
L 340.181252 36.182123 
L 340.795763 62.547375 
L 341.450789 90.202517 
L 341.85105 99.360435 
L 342.573136 108.68128 
L 342.965885 119.392409 
L 343.378697 138.986835 
L 344.204381 193.626911 
L 344.763851 222.216584 
L 345.184177 234.865136 
L 345.407413 237.814481 
L 345.525765 238.17916 
L 345.644116 237.671969 
L 346.006411 231.259848 
L 346.580998 213.096551 
L 348.820817 128.304056 
L 349.48724 110.486189 
L 349.712868 108.442755 
L 349.829695 108.864182 
L 350.063349 111.963516 
L 350.465561 123.852544 
L 351.695368 165.390352 
L 351.929888 166.743126 
L 352.047148 166.7996 
L 352.281668 166.453552 
L 352.398928 166.545372 
L 352.516189 166.936967 
L 352.824019 169.871034 
L 353.459159 179.913821 
L 354.36548 193.361965 
L 354.595706 194.571214 
L 354.717406 194.329847 
L 354.960807 191.370074 
L 355.204207 184.745645 
L 355.569308 167.719237 
L 357.000549 90.1859 
L 357.213401 88.077533 
L 357.290328 87.927229 
L 357.367256 88.090863 
L 357.610187 90.944723 
L 357.889687 97.236038 
L 358.461493 116.671542 
L 358.917572 129.850795 
L 359.168508 131.846622 
L 359.252153 131.609848 
L 359.509975 128.166062 
L 360.39154 110.785876 
L 360.463722 110.614563 
L 360.535903 110.676222 
L 360.680266 111.640762 
L 360.933008 116.629646 
L 361.276746 128.541156 
L 361.941656 161.81913 
L 362.864922 207.214988 
L 363.238473 219.043228 
L 363.445293 221.045574 
L 363.556884 220.281419 
L 363.745511 216.398259 
L 364.120575 199.45149 
L 365.217577 140.253488 
L 365.515074 133.527725 
L 365.733332 131.936743 
L 365.845594 132.506657 
L 366.079448 135.883407 
L 366.465915 148.530985 
L 367.259204 177.631894 
L 367.451348 178.59988 
L 367.643491 175.886049 
L 367.937309 166.025647 
L 368.626915 141.084678 
L 368.826438 138.409795 
L 368.899893 138.168555 
L 368.973347 138.204551 
L 369.141429 139.616063 
L 369.429022 146.236126 
L 369.834567 163.935246 
L 370.363807 199.729215 
L 371.005808 244.033584 
L 371.232515 250.602703 
L 371.345869 250.997315 
L 371.46001 249.693525 
L 371.688291 242.613585 
L 372.363331 208.011818 
L 373.023515 179.374165 
L 373.30809 174.186305 
L 373.400822 174.190177 
L 373.589702 175.729924 
L 374.354075 188.874503 
L 374.470522 188.89606 
L 374.70508 186.190371 
L 375.059415 173.172275 
L 376.292578 111.122721 
L 376.423907 108.569069 
L 376.556571 108.309322 
L 376.689235 109.547729 
L 376.954563 116.915749 
L 378.086407 154.248787 
L 378.208741 154.198696 
L 378.459603 150.024398 
L 379.035912 130.384348 
L 379.71025 105.79603 
L 379.829827 104.632795 
L 379.891724 104.790768 
L 380.094947 107.58042 
L 380.396172 117.357924 
L 381.561728 165.411107 
L 381.687003 164.638191 
L 381.945238 156.794664 
L 382.477079 126.054444 
L 383.14188 75.442339 
L 383.748522 33.116715 
L 383.992697 25.174629 
L 384.114785 24.442173 
L 384.236872 25.425985 
L 384.481047 32.320398 
L 385.26269 60.045195 
L 385.563154 62.57124 
L 385.775557 63.886756 
L 386.307699 68.666358 
L 386.527107 65.807776 
L 386.86079 54.189251 
L 387.308755 37.991823 
L 387.508168 36.875984 
L 387.707581 40.534177 
L 388.027561 54.200255 
L 388.730745 101.942433 
L 389.722461 158.749347 
L 389.989275 166.662808 
L 390.08065 167.684203 
L 390.172025 167.563228 
L 390.332212 164.725501 
L 390.58981 154.121589 
L 391.181565 117.362732 
L 391.686314 87.922193 
L 391.946299 82.808893 
L 392.170742 81.755548 
L 392.343647 80.84814 
L 392.79259 78.859652 
L 392.87792 78.86368 
L 392.970155 79.338005 
L 393.168819 82.499204 
L 393.471777 92.887536 
L 393.892887 106.903905 
L 394.061689 108.421248 
L 394.232513 107.520263 
L 394.404113 104.374164 
L 394.662027 96.149744 
L 395.350497 70.851419 
L 395.666215 67.301245 
L 395.867413 67.092755 
L 396.129687 68.885312 
L 396.33652 71.928745 
L 396.546163 77.183763 
L 396.889469 93.290774 
L 397.491662 121.046135 
L 397.999269 135.02157 
L 398.219703 137.60312 
L 398.297051 137.648581 
L 398.374518 137.538595 
L 398.534509 135.943627 
L 399.263941 124.233452 
L 399.406881 124.501013 
L 399.621825 123.766435 
L 399.749715 121.984401 
L 400.383218 109.679625 
L 400.454934 109.397549 
L 400.526649 109.502312 
L 400.924113 110.921335 
L 401.010864 110.902542 
L 401.186254 110.411115 
L 401.365056 107.89751 
L 401.651252 100.434849 
L 402.659771 73.535818 
L 403.138088 65.515658 
L 403.351681 64.022128 
L 403.460874 64.067564 
L 403.570067 65.150803 
L 404.221715 77.36694 
L 404.327396 77.02397 
L 404.64444 74.270046 
L 404.757264 74.124193 
L 405.208558 80.333844 
L 405.321382 80.207183 
L 405.434205 79.284705 
L 405.999216 68.845908 
L 406.226649 71.600251 
L 406.573627 76.927484 
L 406.806888 78.126576 
L 406.923519 79.605692 
L 407.156781 88.671566 
L 407.861322 126.703603 
L 408.18254 138.204923 
L 408.591012 155.40809 
L 408.69617 155.865312 
L 408.915169 148.038689 
L 409.62886 119.386002 
L 410.267584 95.403988 
L 410.405747 95.884245 
L 410.682073 107.374888 
L 411.494837 152.098846 
L 412.517175 190.930164 
L 412.584713 191.099748 
L 412.788802 189.053517 
L 412.901679 186.762664 
L 413.170305 173.337279 
L 413.994452 112.59041 
L 414.378979 107.171082 
L 414.633311 104.955126 
L 414.811852 105.641639 
L 414.996602 108.684925 
L 415.273727 118.731759 
L 416.166634 163.409909 
L 416.362882 165.331635 
L 416.465698 164.835167 
L 416.674543 160.020286 
L 417.102291 134.428821 
L 417.50253 115.92208 
L 417.907301 108.670874 
L 418.13587 105.592896 
L 418.364439 100.172084 
L 418.70887 90.347308 
L 418.82368 89.817586 
L 419.0533 95.615579 
L 420.107218 137.126301 
L 420.371015 144.741831 
L 420.449049 144.657908 
L 420.580147 142.585092 
L 421.02795 133.112856 
L 421.239675 129.567973 
L 421.623603 116.014606 
L 422.288551 91.892249 
L 422.361999 90.406392 
L 422.361999 90.406392 
" style="fill:none;stroke:#e36f47;"/>
   </g>
   <g id="patch_3">
    <path d="M 69.557488 258.225354 
L 69.557488 2.834646 
" style="fill:none;stroke:#000000;stroke-linecap:square;stroke-linejoin:miter;"/>
   </g>
   <g id="patch_4">
    <path d="M 69.557488 258.225354 
L 422.361999 258.225354 
" style="fill:none;stroke:#000000;stroke-linecap:square;stroke-linejoin:miter;"/>
   </g>
   <g id="legend_1">
    <g id="patch_5">
     <path d="M 299.041999 39.119646 
L 418.361999 39.119646 
L 418.361999 6.834646 
L 299.041999 6.834646 
z
" style="fill:#ffffff;stroke:#000000;stroke-linejoin:miter;"/>
    </g>
    <g id="line2d_13">
     <path d="M 305.441999 16.513396 
L 321.441999 16.513396 
" style="fill:none;stroke:#009afa;stroke-linejoin:miter;"/>
    </g>
    <g id="line2d_14"/>
    <g id="text_13">
     <!-- GXBeam -->
     <g transform="translate(327.841999 19.313396)scale(0.08 -0.08)">
      <defs>
       <path d="M 3809 666 
L 3809 1919 
L 2778 1919 
L 2778 2438 
L 4434 2438 
L 4434 434 
Q 4069 175 3628 42 
Q 3188 -91 2688 -91 
Q 1594 -91 976 548 
Q 359 1188 359 2328 
Q 359 3472 976 4111 
Q 1594 4750 2688 4750 
Q 3144 4750 3555 4637 
Q 3966 4525 4313 4306 
L 4313 3634 
Q 3963 3931 3569 4081 
Q 3175 4231 2741 4231 
Q 1884 4231 1454 3753 
Q 1025 3275 1025 2328 
Q 1025 1384 1454 906 
Q 1884 428 2741 428 
Q 3075 428 3337 486 
Q 3600 544 3809 666 
z
" id="DejaVuSans-47" transform="scale(0.015625)"/>
       <path d="M 403 4666 
L 1081 4666 
L 2241 2931 
L 3406 4666 
L 4084 4666 
L 2584 2425 
L 4184 0 
L 3506 0 
L 2194 1984 
L 872 0 
L 191 0 
L 1856 2491 
L 403 4666 
z
" id="DejaVuSans-58" transform="scale(0.015625)"/>
       <path d="M 1259 2228 
L 1259 519 
L 2272 519 
Q 2781 519 3026 730 
Q 3272 941 3272 1375 
Q 3272 1813 3026 2020 
Q 2781 2228 2272 2228 
L 1259 2228 
z
M 1259 4147 
L 1259 2741 
L 2194 2741 
Q 2656 2741 2882 2914 
Q 3109 3088 3109 3444 
Q 3109 3797 2882 3972 
Q 2656 4147 2194 4147 
L 1259 4147 
z
M 628 4666 
L 2241 4666 
Q 2963 4666 3353 4366 
Q 3744 4066 3744 3513 
Q 3744 3084 3544 2831 
Q 3344 2578 2956 2516 
Q 3422 2416 3680 2098 
Q 3938 1781 3938 1306 
Q 3938 681 3513 340 
Q 3088 0 2303 0 
L 628 0 
L 628 4666 
z
" id="DejaVuSans-42" transform="scale(0.015625)"/>
       <path d="M 2194 1759 
Q 1497 1759 1228 1600 
Q 959 1441 959 1056 
Q 959 750 1161 570 
Q 1363 391 1709 391 
Q 2188 391 2477 730 
Q 2766 1069 2766 1631 
L 2766 1759 
L 2194 1759 
z
M 3341 1997 
L 3341 0 
L 2766 0 
L 2766 531 
Q 2569 213 2275 61 
Q 1981 -91 1556 -91 
Q 1019 -91 701 211 
Q 384 513 384 1019 
Q 384 1609 779 1909 
Q 1175 2209 1959 2209 
L 2766 2209 
L 2766 2266 
Q 2766 2663 2505 2880 
Q 2244 3097 1772 3097 
Q 1472 3097 1187 3025 
Q 903 2953 641 2809 
L 641 3341 
Q 956 3463 1253 3523 
Q 1550 3584 1831 3584 
Q 2591 3584 2966 3190 
Q 3341 2797 3341 1997 
z
" id="DejaVuSans-61" transform="scale(0.015625)"/>
      </defs>
      <use xlink:href="#DejaVuSans-47"/>
      <use x="77.490234" xlink:href="#DejaVuSans-58"/>
      <use x="145.996094" xlink:href="#DejaVuSans-42"/>
      <use x="214.599609" xlink:href="#DejaVuSans-65"/>
      <use x="276.123047" xlink:href="#DejaVuSans-61"/>
      <use x="337.402344" xlink:href="#DejaVuSans-6d"/>
     </g>
    </g>
    <g id="line2d_15">
     <path d="M 305.441999 28.255896 
L 321.441999 28.255896 
" style="fill:none;stroke:#e36f47;stroke-linejoin:miter;"/>
    </g>
    <g id="line2d_16"/>
    <g id="text_14">
     <!-- DifferentialEquations -->
     <g transform="translate(327.841999 31.055896)scale(0.08 -0.08)">
      <defs>
       <path d="M 1259 4147 
L 1259 519 
L 2022 519 
Q 2988 519 3436 956 
Q 3884 1394 3884 2338 
Q 3884 3275 3436 3711 
Q 2988 4147 2022 4147 
L 1259 4147 
z
M 628 4666 
L 1925 4666 
Q 3281 4666 3915 4102 
Q 4550 3538 4550 2338 
Q 4550 1131 3912 565 
Q 3275 0 1925 0 
L 628 0 
L 628 4666 
z
" id="DejaVuSans-44" transform="scale(0.015625)"/>
       <path d="M 2375 4863 
L 2375 4384 
L 1825 4384 
Q 1516 4384 1395 4259 
Q 1275 4134 1275 3809 
L 1275 3500 
L 2222 3500 
L 2222 3053 
L 1275 3053 
L 1275 0 
L 697 0 
L 697 3053 
L 147 3053 
L 147 3500 
L 697 3500 
L 697 3744 
Q 697 4328 969 4595 
Q 1241 4863 1831 4863 
L 2375 4863 
z
" id="DejaVuSans-66" transform="scale(0.015625)"/>
       <path d="M 2631 2963 
Q 2534 3019 2420 3045 
Q 2306 3072 2169 3072 
Q 1681 3072 1420 2755 
Q 1159 2438 1159 1844 
L 1159 0 
L 581 0 
L 581 3500 
L 1159 3500 
L 1159 2956 
Q 1341 3275 1631 3429 
Q 1922 3584 2338 3584 
Q 2397 3584 2469 3576 
Q 2541 3569 2628 3553 
L 2631 2963 
z
" id="DejaVuSans-72" transform="scale(0.015625)"/>
       <path d="M 3513 2113 
L 3513 0 
L 2938 0 
L 2938 2094 
Q 2938 2591 2744 2837 
Q 2550 3084 2163 3084 
Q 1697 3084 1428 2787 
Q 1159 2491 1159 1978 
L 1159 0 
L 581 0 
L 581 3500 
L 1159 3500 
L 1159 2956 
Q 1366 3272 1645 3428 
Q 1925 3584 2291 3584 
Q 2894 3584 3203 3211 
Q 3513 2838 3513 2113 
z
" id="DejaVuSans-6e" transform="scale(0.015625)"/>
       <path d="M 1172 4494 
L 1172 3500 
L 2356 3500 
L 2356 3053 
L 1172 3053 
L 1172 1153 
Q 1172 725 1289 603 
Q 1406 481 1766 481 
L 2356 481 
L 2356 0 
L 1766 0 
Q 1100 0 847 248 
Q 594 497 594 1153 
L 594 3053 
L 172 3053 
L 172 3500 
L 594 3500 
L 594 4494 
L 1172 4494 
z
" id="DejaVuSans-74" transform="scale(0.015625)"/>
       <path d="M 603 4863 
L 1178 4863 
L 1178 0 
L 603 0 
L 603 4863 
z
" id="DejaVuSans-6c" transform="scale(0.015625)"/>
       <path d="M 628 4666 
L 3578 4666 
L 3578 4134 
L 1259 4134 
L 1259 2753 
L 3481 2753 
L 3481 2222 
L 1259 2222 
L 1259 531 
L 3634 531 
L 3634 0 
L 628 0 
L 628 4666 
z
" id="DejaVuSans-45" transform="scale(0.015625)"/>
       <path d="M 947 1747 
Q 947 1113 1208 752 
Q 1469 391 1925 391 
Q 2381 391 2643 752 
Q 2906 1113 2906 1747 
Q 2906 2381 2643 2742 
Q 2381 3103 1925 3103 
Q 1469 3103 1208 2742 
Q 947 2381 947 1747 
z
M 2906 525 
Q 2725 213 2448 61 
Q 2172 -91 1784 -91 
Q 1150 -91 751 415 
Q 353 922 353 1747 
Q 353 2572 751 3078 
Q 1150 3584 1784 3584 
Q 2172 3584 2448 3432 
Q 2725 3281 2906 2969 
L 2906 3500 
L 3481 3500 
L 3481 -1331 
L 2906 -1331 
L 2906 525 
z
" id="DejaVuSans-71" transform="scale(0.015625)"/>
       <path d="M 544 1381 
L 544 3500 
L 1119 3500 
L 1119 1403 
Q 1119 906 1312 657 
Q 1506 409 1894 409 
Q 2359 409 2629 706 
Q 2900 1003 2900 1516 
L 2900 3500 
L 3475 3500 
L 3475 0 
L 2900 0 
L 2900 538 
Q 2691 219 2414 64 
Q 2138 -91 1772 -91 
Q 1169 -91 856 284 
Q 544 659 544 1381 
z
M 1991 3584 
L 1991 3584 
z
" id="DejaVuSans-75" transform="scale(0.015625)"/>
       <path d="M 1959 3097 
Q 1497 3097 1228 2736 
Q 959 2375 959 1747 
Q 959 1119 1226 758 
Q 1494 397 1959 397 
Q 2419 397 2687 759 
Q 2956 1122 2956 1747 
Q 2956 2369 2687 2733 
Q 2419 3097 1959 3097 
z
M 1959 3584 
Q 2709 3584 3137 3096 
Q 3566 2609 3566 1747 
Q 3566 888 3137 398 
Q 2709 -91 1959 -91 
Q 1206 -91 779 398 
Q 353 888 353 1747 
Q 353 2609 779 3096 
Q 1206 3584 1959 3584 
z
" id="DejaVuSans-6f" transform="scale(0.015625)"/>
      </defs>
      <use xlink:href="#DejaVuSans-44"/>
      <use x="77.001953" xlink:href="#DejaVuSans-69"/>
      <use x="104.785156" xlink:href="#DejaVuSans-66"/>
      <use x="139.990234" xlink:href="#DejaVuSans-66"/>
      <use x="175.195312" xlink:href="#DejaVuSans-65"/>
      <use x="236.71875" xlink:href="#DejaVuSans-72"/>
      <use x="275.582031" xlink:href="#DejaVuSans-65"/>
      <use x="337.105469" xlink:href="#DejaVuSans-6e"/>
      <use x="400.484375" xlink:href="#DejaVuSans-74"/>
      <use x="439.693359" xlink:href="#DejaVuSans-69"/>
      <use x="467.476562" xlink:href="#DejaVuSans-61"/>
      <use x="528.755859" xlink:href="#DejaVuSans-6c"/>
      <use x="556.539062" xlink:href="#DejaVuSans-45"/>
      <use x="619.722656" xlink:href="#DejaVuSans-71"/>
      <use x="683.199219" xlink:href="#DejaVuSans-75"/>
      <use x="746.578125" xlink:href="#DejaVuSans-61"/>
      <use x="807.857422" xlink:href="#DejaVuSans-74"/>
      <use x="847.066406" xlink:href="#DejaVuSans-69"/>
      <use x="874.849609" xlink:href="#DejaVuSans-6f"/>
      <use x="936.03125" xlink:href="#DejaVuSans-6e"/>
      <use x="999.410156" xlink:href="#DejaVuSans-73"/>
     </g>
    </g>
   </g>
  </g>
 </g>
 <defs>
  <clipPath id="pb6249debf9">
   <rect height="255.390709" width="352.804512" x="69.557488" y="2.834646"/>
  </clipPath>
 </defs>
</svg>
