<?xml version="1.0" encoding="utf-8" standalone="no"?>
<!DOCTYPE svg PUBLIC "-//W3C//DTD SVG 1.1//EN"
  "http://www.w3.org/Graphics/SVG/1.1/DTD/svg11.dtd">
<svg height="288pt" version="1.1" viewBox="0 0 432 288" width="432pt" xmlns="http://www.w3.org/2000/svg" xmlns:xlink="http://www.w3.org/1999/xlink">
 <metadata>
  <rdf:RDF xmlns:cc="http://creativecommons.org/ns#" xmlns:dc="http://purl.org/dc/elements/1.1/" xmlns:rdf="http://www.w3.org/1999/02/22-rdf-syntax-ns#">
   <cc:Work>
    <dc:type rdf:resource="http://purl.org/dc/dcmitype/StillImage"/>
    <dc:date>2021-11-15T21:25:41.513281</dc:date>
    <dc:format>image/svg+xml</dc:format>
    <dc:creator>
     <cc:Agent>
      <dc:title>Matplotlib v3.4.3, https://matplotlib.org/</dc:title>
     </cc:Agent>
    </dc:creator>
   </cc:Work>
  </rdf:RDF>
 </metadata>
 <defs>
  <style type="text/css">*{stroke-linecap:butt;stroke-linejoin:round;}</style>
 </defs>
 <g id="figure_1">
  <g id="patch_1">
   <path d="M 0 288 
L 432 288 
L 432 0 
L 0 0 
z
" style="fill:#ffffff;"/>
  </g>
  <g id="axes_1">
   <g id="patch_2">
    <path d="M 71.231488 258.225354 
L 422.361999 258.225354 
L 422.361999 2.834646 
L 71.231488 2.834646 
z
" style="fill:#ffffff;"/>
   </g>
   <g id="line2d_1">
    <path clip-path="url(#pab1646e838)" d="M 71.231488 129.739713 
L 72.63601 129.817596 
L 73.689401 129.954084 
L 74.216097 129.807576 
L 76.147315 129.01548 
L 76.849576 129.221812 
L 81.238707 131.781967 
L 81.765403 131.659911 
L 82.292099 131.259724 
L 86.505665 126.945078 
L 87.207926 126.514406 
L 87.734622 126.439048 
L 88.963578 126.398953 
L 89.665839 126.194982 
L 90.3681 126.016027 
L 90.894796 126.024554 
L 91.421492 126.28809 
L 92.299318 127.057532 
L 93.70384 128.782625 
L 94.581667 130.456305 
L 95.459493 132.70551 
L 96.68845 135.754581 
L 97.566276 137.222196 
L 98.444102 138.296134 
L 99.497494 139.377689 
L 100.199755 139.754412 
L 100.726451 139.793661 
L 102.306538 139.643285 
L 103.535495 139.76189 
L 104.06219 139.618619 
L 104.588886 139.163327 
L 105.466712 138.053792 
L 107.39793 134.97013 
L 108.275757 132.97936 
L 109.855844 129.431778 
L 111.787062 125.777517 
L 112.664888 123.478151 
L 114.596106 117.578352 
L 115.649497 113.530243 
L 117.40515 106.789826 
L 118.282976 104.435922 
L 119.511933 101.86516 
L 120.389759 100.526659 
L 120.916455 100.097615 
L 121.443151 99.875706 
L 122.145412 99.89708 
L 123.549934 100.131126 
L 124.07663 100.415218 
L 124.603325 101.061951 
L 125.305586 102.447482 
L 126.358978 105.356198 
L 127.7635 109.858025 
L 129.168022 115.235489 
L 130.221414 119.052244 
L 131.45037 122.532816 
L 132.679327 126.24148 
L 134.78611 133.772581 
L 135.839502 138.357448 
L 137.419589 146.551365 
L 140.930894 164.018138 
L 142.335416 170.191159 
L 143.915504 176.208657 
L 144.79333 178.767602 
L 145.320026 179.78665 
L 145.846721 180.344798 
L 146.548982 180.667451 
L 147.251243 180.646413 
L 148.12907 180.426269 
L 149.006896 179.85279 
L 150.235853 178.979154 
L 150.762548 178.9199 
L 151.289244 179.107854 
L 153.396027 180.384655 
L 154.449419 180.416496 
L 155.15168 180.358462 
L 155.853941 180.126809 
L 156.380637 179.731506 
L 157.258463 178.583817 
L 160.067507 174.28421 
L 160.769768 172.347257 
L 161.472029 169.797341 
L 162.525421 164.789881 
L 163.403247 159.42924 
L 164.281073 152.707884 
L 166.036726 136.817693 
L 169.1969 108.985339 
L 171.128118 94.027357 
L 172.883771 81.418134 
L 173.761597 76.535523 
L 174.639423 72.931599 
L 175.692815 69.716806 
L 176.570641 67.7501 
L 177.272902 66.681236 
L 178.677424 64.930527 
L 179.20412 63.996869 
L 181.310903 59.672135 
L 182.013164 58.93764 
L 182.53986 58.64735 
L 183.066556 58.585382 
L 183.593251 58.758164 
L 184.119947 59.287575 
L 184.646643 60.176913 
L 185.524469 62.281836 
L 186.753426 65.208931 
L 187.806817 67.142169 
L 188.684644 68.830499 
L 189.56247 71.07305 
L 190.440296 74.063094 
L 191.142557 77.136645 
L 191.844818 81.144931 
L 192.722645 87.514364 
L 199.56969 141.900769 
L 200.974212 151.615882 
L 201.852038 156.122576 
L 202.554299 158.641525 
L 203.432125 160.906598 
L 205.714474 166.087337 
L 206.416735 168.437814 
L 207.118996 171.516178 
L 209.401344 182.578849 
L 209.92804 184.003635 
L 210.454735 184.872776 
L 210.981431 185.205678 
L 211.332562 185.209304 
L 211.683692 185.000447 
L 212.034823 184.542772 
L 212.561519 183.425503 
L 213.088214 181.774381 
L 213.966041 178.166558 
L 214.843867 174.688214 
L 215.370563 173.277272 
L 215.897258 172.553811 
L 216.248389 172.451453 
L 216.775085 172.67032 
L 218.179607 173.360634 
L 218.530737 173.225454 
L 218.881868 172.914603 
L 219.232998 172.381865 
L 219.759694 171.035243 
L 220.28639 168.800454 
L 220.813086 165.483157 
L 221.515347 159.218236 
L 222.568738 147.132813 
L 224.324391 127.584818 
L 226.606739 105.54927 
L 227.660131 94.927653 
L 228.537957 83.592859 
L 230.118044 58.803939 
L 230.99587 46.821752 
L 231.698131 39.528975 
L 232.400392 34.504256 
L 232.927088 32.41132 
L 233.278219 31.85447 
L 233.453784 31.864358 
L 233.629349 32.061916 
L 233.98048 32.986696 
L 234.507176 35.565576 
L 235.385002 41.693944 
L 236.262828 47.688415 
L 236.965089 51.157368 
L 237.66735 53.608784 
L 239.598568 59.074612 
L 239.949698 59.551608 
L 240.300829 59.712926 
L 240.651959 59.575721 
L 241.880916 58.605321 
L 242.232047 58.720881 
L 242.758743 59.305281 
L 245.216656 63.22243 
L 245.743352 64.736794 
L 246.445613 67.682391 
L 247.147874 70.641224 
L 247.499004 71.575564 
L 247.850135 71.992125 
L 248.201265 71.921387 
L 249.254657 70.827368 
L 249.430222 70.892288 
L 249.605788 71.13319 
L 249.956918 72.19532 
L 250.308049 74.034995 
L 250.834744 78.190962 
L 251.537005 85.792713 
L 252.414832 98.05938 
L 253.292658 114.130108 
L 255.750571 163.708285 
L 256.452832 172.013867 
L 257.330659 179.414384 
L 258.208485 184.87558 
L 258.735181 187.000889 
L 259.086311 187.81533 
L 259.613007 188.360086 
L 260.490833 188.960745 
L 260.841964 189.666789 
L 261.36866 191.268031 
L 262.246486 194.163234 
L 262.597616 194.664773 
L 262.773182 194.700694 
L 262.948747 194.555745 
L 263.299877 193.74667 
L 264.002138 190.980328 
L 264.7044 188.420617 
L 265.05553 187.856203 
L 265.231095 187.764532 
L 265.406661 187.810066 
L 265.757791 188.315175 
L 266.460052 190.171325 
L 268.215705 196.062528 
L 268.7424 198.877568 
L 270.146922 207.25124 
L 270.498053 207.995686 
L 270.673618 208.012214 
L 270.849183 207.79082 
L 271.200314 206.647144 
L 271.72701 203.578733 
L 272.604836 198.199106 
L 272.955967 196.964282 
L 273.307097 196.41706 
L 273.658228 196.361021 
L 274.184923 196.805777 
L 274.536054 196.993736 
L 274.887184 196.861762 
L 275.238315 196.342422 
L 275.765011 194.918872 
L 276.642837 192.493598 
L 276.993967 191.90667 
L 277.345098 191.662726 
L 278.222924 191.542486 
L 278.574055 191.024075 
L 278.925185 189.874525 
L 279.276316 187.985814 
L 279.803012 183.45114 
L 280.505273 174.543511 
L 283.314317 135.306255 
L 284.543273 121.157935 
L 286.298926 103.600076 
L 287.001187 93.165737 
L 289.810231 47.227989 
L 290.512492 38.82761 
L 291.039188 34.504169 
L 291.390318 33.04812 
L 291.565884 32.821279 
L 291.741449 32.929555 
L 291.917014 33.370652 
L 292.268145 35.182884 
L 292.79484 39.581937 
L 294.199362 52.384338 
L 294.726058 55.252367 
L 295.252754 56.9678 
L 295.603885 57.622644 
L 295.955015 57.880325 
L 296.13058 57.836095 
L 296.306146 57.645977 
L 296.657276 56.728932 
L 297.008407 55.0272 
L 297.359537 52.367637 
L 297.886233 46.548966 
L 299.641885 24.918429 
L 299.993016 22.702711 
L 300.344146 21.532696 
L 300.519712 21.317125 
L 300.695277 21.347932 
L 300.870842 21.607438 
L 301.221973 22.720878 
L 301.573103 24.578135 
L 302.099799 28.732174 
L 302.80206 36.111975 
L 304.733278 59.204762 
L 305.084408 61.322189 
L 305.435539 62.111676 
L 305.611104 61.979241 
L 305.786669 61.487918 
L 306.1378 59.486993 
L 306.664496 54.376401 
L 308.595713 32.129347 
L 308.946844 30.323268 
L 309.122409 30.036766 
L 309.297974 30.253823 
L 309.47354 31.026438 
L 309.82467 34.367712 
L 310.175801 40.101394 
L 310.702497 52.948496 
L 311.580323 82.023989 
L 313.335975 142.685288 
L 314.038236 158.670119 
L 314.564932 166.418276 
L 315.091628 171.093334 
L 315.442758 172.659839 
L 315.793889 173.32157 
L 315.969454 173.373394 
L 316.671715 172.988533 
L 316.84728 173.155233 
L 317.022846 173.586154 
L 317.373976 175.5609 
L 317.725107 179.406202 
L 318.251803 188.392791 
L 320.18302 226.574598 
L 320.709716 232.202582 
L 321.236412 235.369252 
L 321.763108 236.999423 
L 322.114238 237.37117 
L 322.289803 237.235618 
L 322.465369 236.810613 
L 322.816499 234.837151 
L 323.16763 231.012311 
L 323.694325 221.065245 
L 324.572152 196.521106 
L 325.098848 183.415697 
L 325.449978 178.027617 
L 325.801109 175.985533 
L 325.976674 176.163903 
L 326.152239 177.053077 
L 326.50337 180.708487 
L 327.030065 189.47112 
L 328.785718 221.108835 
L 330.19024 240.306514 
L 330.892501 247.866085 
L 331.243631 250.113355 
L 331.594762 250.997315 
L 331.770327 250.8587 
L 331.945892 250.256311 
L 332.297023 247.511601 
L 332.648154 242.646012 
L 333.350415 228.089102 
L 334.228241 210.26656 
L 334.579371 206.022615 
L 334.930502 204.052638 
L 335.106067 203.827442 
L 335.281632 204.011883 
L 335.632763 205.158207 
L 336.159459 206.966171 
L 336.510589 207.349412 
L 336.686154 207.334091 
L 337.037285 206.978964 
L 337.388415 206.563873 
L 337.563981 206.53009 
L 337.739546 206.718117 
L 337.915111 207.182483 
L 338.266242 209.189056 
L 338.792937 214.747402 
L 340.021894 229.272004 
L 340.373025 231.699292 
L 340.724155 232.767694 
L 340.899721 232.799733 
L 341.075286 232.528217 
L 341.426416 231.219997 
L 341.777547 228.868721 
L 342.304243 223.209723 
L 343.006504 212.007688 
L 344.411026 186.422531 
L 344.937721 180.44362 
L 345.639982 175.395893 
L 346.166678 171.060174 
L 346.693374 164.159536 
L 347.395635 150.886117 
L 348.624592 126.333146 
L 349.151288 120.157745 
L 349.853549 113.456589 
L 350.204679 107.589696 
L 350.731375 94.51605 
L 352.135897 56.175125 
L 352.662593 48.140583 
L 353.013723 44.962215 
L 353.891549 39.445045 
L 354.24268 34.954071 
L 355.647202 11.662408 
L 355.822767 10.79666 
L 355.998333 10.902364 
L 356.173898 11.996455 
L 356.525028 16.842914 
L 357.57842 35.645819 
L 357.753985 36.915405 
L 357.92955 37.269997 
L 358.105116 36.675746 
L 358.456246 32.791505 
L 359.685203 12.459187 
L 359.860768 12.353991 
L 360.036333 13.350835 
L 360.387464 18.224999 
L 361.616421 42.455854 
L 361.791986 43.754742 
L 361.967551 44.176516 
L 362.143116 43.750971 
L 362.494247 40.708324 
L 363.547639 25.776778 
L 363.723204 25.563296 
L 363.898769 26.808484 
L 364.2499 33.664228 
L 365.127726 56.175293 
L 365.478856 58.785674 
L 365.654422 58.462578 
L 365.829987 57.23293 
L 366.181117 52.365159 
L 366.707813 39.733236 
L 367.234509 26.168933 
L 367.585639 22.025354 
L 367.761205 22.576472 
L 367.93677 25.059697 
L 368.2879 34.706878 
L 369.165727 63.119638 
L 369.516857 68.7788 
L 369.692422 69.778349 
L 369.867988 69.574843 
L 370.043553 68.250505 
L 370.394684 62.89988 
L 371.096945 50.327453 
L 371.27251 48.835742 
L 371.448075 48.551239 
L 371.62364 49.592983 
L 371.974771 55.648372 
L 373.028162 81.634861 
L 373.203728 83.012576 
L 373.379293 82.955752 
L 373.554858 81.576337 
L 373.905989 75.908446 
L 374.60825 63.900969 
L 374.783815 62.695509 
L 374.95938 62.714037 
L 375.134945 64.145176 
L 375.486076 71.620144 
L 376.012772 92.676132 
L 376.890598 131.187363 
L 377.241728 139.476367 
L 377.592859 142.956863 
L 377.768424 143.52072 
L 378.29512 144.162281 
L 378.470685 145.156516 
L 378.821816 149.987705 
L 379.348512 164.065816 
L 380.577468 203.244059 
L 380.753034 205.37116 
L 380.928599 205.807487 
L 381.104164 204.571276 
L 381.455295 198.171204 
L 382.508686 174.629268 
L 382.684251 173.194502 
L 382.859817 172.933073 
L 383.035382 173.727678 
L 383.386512 178.112151 
L 384.439904 196.06946 
L 384.615469 196.517238 
L 384.791034 195.892277 
L 385.142165 191.573009 
L 386.019991 175.990237 
L 386.195557 174.496487 
L 386.371122 174.031632 
L 386.546687 174.64291 
L 386.897818 178.687933 
L 387.248948 185.783527 
L 388.477905 216.326814 
L 388.65347 216.784929 
L 388.829035 215.616689 
L 389.180166 209.822724 
L 389.706862 200.47015 
L 390.057992 197.969673 
L 390.233557 197.752509 
L 390.760253 197.939883 
L 390.935818 198.182482 
L 391.111384 198.945091 
L 391.462514 202.794736 
L 392.164775 214.284053 
L 392.34034 215.038788 
L 392.515906 214.122287 
L 392.867036 208.143594 
L 393.569297 194.367358 
L 393.920428 190.848448 
L 394.447124 188.082981 
L 394.622689 187.765198 
L 394.798254 188.282457 
L 394.973819 190.025879 
L 395.32495 197.430024 
L 396.027211 216.348425 
L 396.378341 220.901123 
L 396.553907 221.555984 
L 396.729472 221.510495 
L 397.080602 220.381794 
L 397.782863 217.007371 
L 397.958429 216.772229 
L 398.133994 217.135166 
L 398.309559 218.181357 
L 398.66069 222.286952 
L 399.714081 238.857351 
L 399.889646 239.765254 
L 400.065212 239.562862 
L 400.240777 238.105693 
L 400.591908 231.284915 
L 402.34756 183.927737 
L 402.698691 181.632763 
L 402.874256 181.893735 
L 403.225386 183.124247 
L 403.400952 183.025201 
L 403.576517 182.018255 
L 403.927647 177.303551 
L 404.278778 169.31488 
L 405.507735 134.861459 
L 405.6833 134.349847 
L 405.858865 134.944801 
L 406.209996 138.845952 
L 406.736691 151.06417 
L 407.087822 158.127836 
L 407.263387 159.499604 
L 407.438952 159.337446 
L 407.614518 157.910697 
L 407.965648 152.026116 
L 408.316779 141.476561 
L 409.194605 109.802113 
L 409.721301 99.292491 
L 410.072431 94.845464 
L 410.774692 88.816827 
L 411.125823 81.72635 
L 412.003649 56.272014 
L 412.70591 35.424627 
L 413.057041 31.480509 
L 413.232606 31.758271 
L 413.408171 33.386169 
L 413.934867 43.101327 
L 414.988258 65.380389 
L 415.163824 67.078681 
L 415.339389 67.458333 
L 415.514954 66.493961 
L 416.392781 55.797633 
L 416.568346 55.835563 
L 416.743911 56.572808 
L 417.095042 59.523685 
L 417.446172 65.12418 
L 418.499564 87.195092 
L 418.675129 87.24672 
L 418.850694 85.893842 
L 419.201825 79.599554 
L 419.552955 68.541158 
L 420.781912 21.66092 
L 421.133042 17.553172 
L 421.308608 17.825812 
L 421.659738 20.771866 
L 422.361999 27.549236 
L 422.361999 27.549236 
" style="fill:none;stroke:#009afa;"/>
   </g>
   <g id="matplotlib.axis_1">
    <g id="xtick_1">
     <g id="line2d_2">
      <defs>
       <path d="M 0 0 
L 0 -2.5 
" id="m981d7a46a0" style="stroke:#000000;stroke-width:0.5;"/>
      </defs>
      <g>
       <use style="stroke:#000000;stroke-width:0.5;" x="71.231488" xlink:href="#m981d7a46a0" y="258.225354"/>
      </g>
     </g>
     <g id="text_1">
      <!-- $0.0$ -->
      <g transform="translate(64.831488 267.804104)scale(0.08 -0.08)">
       <defs>
        <path d="M 2034 4250 
Q 1547 4250 1301 3770 
Q 1056 3291 1056 2328 
Q 1056 1369 1301 889 
Q 1547 409 2034 409 
Q 2525 409 2770 889 
Q 3016 1369 3016 2328 
Q 3016 3291 2770 3770 
Q 2525 4250 2034 4250 
z
M 2034 4750 
Q 2819 4750 3233 4129 
Q 3647 3509 3647 2328 
Q 3647 1150 3233 529 
Q 2819 -91 2034 -91 
Q 1250 -91 836 529 
Q 422 1150 422 2328 
Q 422 3509 836 4129 
Q 1250 4750 2034 4750 
z
" id="DejaVuSans-30" transform="scale(0.015625)"/>
        <path d="M 684 794 
L 1344 794 
L 1344 0 
L 684 0 
L 684 794 
z
" id="DejaVuSans-2e" transform="scale(0.015625)"/>
       </defs>
       <use transform="translate(0 0.78125)" xlink:href="#DejaVuSans-30"/>
       <use transform="translate(63.623047 0.78125)" xlink:href="#DejaVuSans-2e"/>
       <use transform="translate(95.410156 0.78125)" xlink:href="#DejaVuSans-30"/>
      </g>
     </g>
    </g>
    <g id="xtick_2">
     <g id="line2d_3">
      <g>
       <use style="stroke:#000000;stroke-width:0.5;" x="159.014116" xlink:href="#m981d7a46a0" y="258.225354"/>
      </g>
     </g>
     <g id="text_2">
      <!-- $0.5$ -->
      <g transform="translate(152.614116 267.804104)scale(0.08 -0.08)">
       <defs>
        <path d="M 691 4666 
L 3169 4666 
L 3169 4134 
L 1269 4134 
L 1269 2991 
Q 1406 3038 1543 3061 
Q 1681 3084 1819 3084 
Q 2600 3084 3056 2656 
Q 3513 2228 3513 1497 
Q 3513 744 3044 326 
Q 2575 -91 1722 -91 
Q 1428 -91 1123 -41 
Q 819 9 494 109 
L 494 744 
Q 775 591 1075 516 
Q 1375 441 1709 441 
Q 2250 441 2565 725 
Q 2881 1009 2881 1497 
Q 2881 1984 2565 2268 
Q 2250 2553 1709 2553 
Q 1456 2553 1204 2497 
Q 953 2441 691 2322 
L 691 4666 
z
" id="DejaVuSans-35" transform="scale(0.015625)"/>
       </defs>
       <use transform="translate(0 0.78125)" xlink:href="#DejaVuSans-30"/>
       <use transform="translate(63.623047 0.78125)" xlink:href="#DejaVuSans-2e"/>
       <use transform="translate(95.410156 0.78125)" xlink:href="#DejaVuSans-35"/>
      </g>
     </g>
    </g>
    <g id="xtick_3">
     <g id="line2d_4">
      <g>
       <use style="stroke:#000000;stroke-width:0.5;" x="246.796743" xlink:href="#m981d7a46a0" y="258.225354"/>
      </g>
     </g>
     <g id="text_3">
      <!-- $1.0$ -->
      <g transform="translate(240.396743 267.804104)scale(0.08 -0.08)">
       <defs>
        <path d="M 794 531 
L 1825 531 
L 1825 4091 
L 703 3866 
L 703 4441 
L 1819 4666 
L 2450 4666 
L 2450 531 
L 3481 531 
L 3481 0 
L 794 0 
L 794 531 
z
" id="DejaVuSans-31" transform="scale(0.015625)"/>
       </defs>
       <use transform="translate(0 0.78125)" xlink:href="#DejaVuSans-31"/>
       <use transform="translate(63.623047 0.78125)" xlink:href="#DejaVuSans-2e"/>
       <use transform="translate(95.410156 0.78125)" xlink:href="#DejaVuSans-30"/>
      </g>
     </g>
    </g>
    <g id="xtick_4">
     <g id="line2d_5">
      <g>
       <use style="stroke:#000000;stroke-width:0.5;" x="334.579371" xlink:href="#m981d7a46a0" y="258.225354"/>
      </g>
     </g>
     <g id="text_4">
      <!-- $1.5$ -->
      <g transform="translate(328.179371 267.804104)scale(0.08 -0.08)">
       <use transform="translate(0 0.09375)" xlink:href="#DejaVuSans-31"/>
       <use transform="translate(63.623047 0.09375)" xlink:href="#DejaVuSans-2e"/>
       <use transform="translate(95.410156 0.09375)" xlink:href="#DejaVuSans-35"/>
      </g>
     </g>
    </g>
    <g id="xtick_5">
     <g id="line2d_6">
      <g>
       <use style="stroke:#000000;stroke-width:0.5;" x="422.361999" xlink:href="#m981d7a46a0" y="258.225354"/>
      </g>
     </g>
     <g id="text_5">
      <!-- $2.0$ -->
      <g transform="translate(415.961999 267.804104)scale(0.08 -0.08)">
       <defs>
        <path d="M 1228 531 
L 3431 531 
L 3431 0 
L 469 0 
L 469 531 
Q 828 903 1448 1529 
Q 2069 2156 2228 2338 
Q 2531 2678 2651 2914 
Q 2772 3150 2772 3378 
Q 2772 3750 2511 3984 
Q 2250 4219 1831 4219 
Q 1534 4219 1204 4116 
Q 875 4013 500 3803 
L 500 4441 
Q 881 4594 1212 4672 
Q 1544 4750 1819 4750 
Q 2544 4750 2975 4387 
Q 3406 4025 3406 3419 
Q 3406 3131 3298 2873 
Q 3191 2616 2906 2266 
Q 2828 2175 2409 1742 
Q 1991 1309 1228 531 
z
" id="DejaVuSans-32" transform="scale(0.015625)"/>
       </defs>
       <use transform="translate(0 0.78125)" xlink:href="#DejaVuSans-32"/>
       <use transform="translate(63.623047 0.78125)" xlink:href="#DejaVuSans-2e"/>
       <use transform="translate(95.410156 0.78125)" xlink:href="#DejaVuSans-30"/>
      </g>
     </g>
    </g>
    <g id="text_6">
     <!-- Time (s) -->
     <g transform="translate(224.434947 281.826136)scale(0.11 -0.11)">
      <defs>
       <path d="M -19 4666 
L 3928 4666 
L 3928 4134 
L 2272 4134 
L 2272 0 
L 1638 0 
L 1638 4134 
L -19 4134 
L -19 4666 
z
" id="DejaVuSans-54" transform="scale(0.015625)"/>
       <path d="M 603 3500 
L 1178 3500 
L 1178 0 
L 603 0 
L 603 3500 
z
M 603 4863 
L 1178 4863 
L 1178 4134 
L 603 4134 
L 603 4863 
z
" id="DejaVuSans-69" transform="scale(0.015625)"/>
       <path d="M 3328 2828 
Q 3544 3216 3844 3400 
Q 4144 3584 4550 3584 
Q 5097 3584 5394 3201 
Q 5691 2819 5691 2113 
L 5691 0 
L 5113 0 
L 5113 2094 
Q 5113 2597 4934 2840 
Q 4756 3084 4391 3084 
Q 3944 3084 3684 2787 
Q 3425 2491 3425 1978 
L 3425 0 
L 2847 0 
L 2847 2094 
Q 2847 2600 2669 2842 
Q 2491 3084 2119 3084 
Q 1678 3084 1418 2786 
Q 1159 2488 1159 1978 
L 1159 0 
L 581 0 
L 581 3500 
L 1159 3500 
L 1159 2956 
Q 1356 3278 1631 3431 
Q 1906 3584 2284 3584 
Q 2666 3584 2933 3390 
Q 3200 3197 3328 2828 
z
" id="DejaVuSans-6d" transform="scale(0.015625)"/>
       <path d="M 3597 1894 
L 3597 1613 
L 953 1613 
Q 991 1019 1311 708 
Q 1631 397 2203 397 
Q 2534 397 2845 478 
Q 3156 559 3463 722 
L 3463 178 
Q 3153 47 2828 -22 
Q 2503 -91 2169 -91 
Q 1331 -91 842 396 
Q 353 884 353 1716 
Q 353 2575 817 3079 
Q 1281 3584 2069 3584 
Q 2775 3584 3186 3129 
Q 3597 2675 3597 1894 
z
M 3022 2063 
Q 3016 2534 2758 2815 
Q 2500 3097 2075 3097 
Q 1594 3097 1305 2825 
Q 1016 2553 972 2059 
L 3022 2063 
z
" id="DejaVuSans-65" transform="scale(0.015625)"/>
       <path id="DejaVuSans-20" transform="scale(0.015625)"/>
       <path d="M 1984 4856 
Q 1566 4138 1362 3434 
Q 1159 2731 1159 2009 
Q 1159 1288 1364 580 
Q 1569 -128 1984 -844 
L 1484 -844 
Q 1016 -109 783 600 
Q 550 1309 550 2009 
Q 550 2706 781 3412 
Q 1013 4119 1484 4856 
L 1984 4856 
z
" id="DejaVuSans-28" transform="scale(0.015625)"/>
       <path d="M 2834 3397 
L 2834 2853 
Q 2591 2978 2328 3040 
Q 2066 3103 1784 3103 
Q 1356 3103 1142 2972 
Q 928 2841 928 2578 
Q 928 2378 1081 2264 
Q 1234 2150 1697 2047 
L 1894 2003 
Q 2506 1872 2764 1633 
Q 3022 1394 3022 966 
Q 3022 478 2636 193 
Q 2250 -91 1575 -91 
Q 1294 -91 989 -36 
Q 684 19 347 128 
L 347 722 
Q 666 556 975 473 
Q 1284 391 1588 391 
Q 1994 391 2212 530 
Q 2431 669 2431 922 
Q 2431 1156 2273 1281 
Q 2116 1406 1581 1522 
L 1381 1569 
Q 847 1681 609 1914 
Q 372 2147 372 2553 
Q 372 3047 722 3315 
Q 1072 3584 1716 3584 
Q 2034 3584 2315 3537 
Q 2597 3491 2834 3397 
z
" id="DejaVuSans-73" transform="scale(0.015625)"/>
       <path d="M 513 4856 
L 1013 4856 
Q 1481 4119 1714 3412 
Q 1947 2706 1947 2009 
Q 1947 1309 1714 600 
Q 1481 -109 1013 -844 
L 513 -844 
Q 928 -128 1133 580 
Q 1338 1288 1338 2009 
Q 1338 2731 1133 3434 
Q 928 4138 513 4856 
z
" id="DejaVuSans-29" transform="scale(0.015625)"/>
      </defs>
      <use xlink:href="#DejaVuSans-54"/>
      <use x="57.958984" xlink:href="#DejaVuSans-69"/>
      <use x="85.742188" xlink:href="#DejaVuSans-6d"/>
      <use x="183.154297" xlink:href="#DejaVuSans-65"/>
      <use x="244.677734" xlink:href="#DejaVuSans-20"/>
      <use x="276.464844" xlink:href="#DejaVuSans-28"/>
      <use x="315.478516" xlink:href="#DejaVuSans-73"/>
      <use x="367.578125" xlink:href="#DejaVuSans-29"/>
     </g>
    </g>
   </g>
   <g id="matplotlib.axis_2">
    <g id="ytick_1">
     <g id="line2d_7">
      <defs>
       <path d="M 0 0 
L 2.5 0 
" id="mdf4207df7b" style="stroke:#000000;stroke-width:0.5;"/>
      </defs>
      <g>
       <use style="stroke:#000000;stroke-width:0.5;" x="71.231488" xlink:href="#mdf4207df7b" y="240.949445"/>
      </g>
     </g>
     <g id="text_7">
      <!-- $-1.50×10^{6}$ -->
      <g transform="translate(22.451488 243.98882)scale(0.08 -0.08)">
       <defs>
        <path d="M 678 2272 
L 4684 2272 
L 4684 1741 
L 678 1741 
L 678 2272 
z
" id="DejaVuSans-2212" transform="scale(0.015625)"/>
        <path d="M 4488 3438 
L 3059 2003 
L 4488 575 
L 4116 197 
L 2681 1631 
L 1247 197 
L 878 575 
L 2303 2003 
L 878 3438 
L 1247 3816 
L 2681 2381 
L 4116 3816 
L 4488 3438 
z
" id="DejaVuSans-d7" transform="scale(0.015625)"/>
        <path d="M 2113 2584 
Q 1688 2584 1439 2293 
Q 1191 2003 1191 1497 
Q 1191 994 1439 701 
Q 1688 409 2113 409 
Q 2538 409 2786 701 
Q 3034 994 3034 1497 
Q 3034 2003 2786 2293 
Q 2538 2584 2113 2584 
z
M 3366 4563 
L 3366 3988 
Q 3128 4100 2886 4159 
Q 2644 4219 2406 4219 
Q 1781 4219 1451 3797 
Q 1122 3375 1075 2522 
Q 1259 2794 1537 2939 
Q 1816 3084 2150 3084 
Q 2853 3084 3261 2657 
Q 3669 2231 3669 1497 
Q 3669 778 3244 343 
Q 2819 -91 2113 -91 
Q 1303 -91 875 529 
Q 447 1150 447 2328 
Q 447 3434 972 4092 
Q 1497 4750 2381 4750 
Q 2619 4750 2861 4703 
Q 3103 4656 3366 4563 
z
" id="DejaVuSans-36" transform="scale(0.015625)"/>
       </defs>
       <use transform="translate(0 0.765625)" xlink:href="#DejaVuSans-2212"/>
       <use transform="translate(83.789062 0.765625)" xlink:href="#DejaVuSans-31"/>
       <use transform="translate(147.412109 0.765625)" xlink:href="#DejaVuSans-2e"/>
       <use transform="translate(179.199219 0.765625)" xlink:href="#DejaVuSans-35"/>
       <use transform="translate(242.822266 0.765625)" xlink:href="#DejaVuSans-30"/>
       <use transform="translate(306.445312 0.765625)" xlink:href="#DejaVuSans-d7"/>
       <use transform="translate(390.234375 0.765625)" xlink:href="#DejaVuSans-31"/>
       <use transform="translate(453.857422 0.765625)" xlink:href="#DejaVuSans-30"/>
       <use transform="translate(518.4375 39.046875)scale(0.7)" xlink:href="#DejaVuSans-36"/>
      </g>
     </g>
    </g>
    <g id="ytick_2">
     <g id="line2d_8">
      <g>
       <use style="stroke:#000000;stroke-width:0.5;" x="71.231488" xlink:href="#mdf4207df7b" y="203.879535"/>
      </g>
     </g>
     <g id="text_8">
      <!-- $-1.00×10^{6}$ -->
      <g transform="translate(22.451488 206.91891)scale(0.08 -0.08)">
       <use transform="translate(0 0.765625)" xlink:href="#DejaVuSans-2212"/>
       <use transform="translate(83.789062 0.765625)" xlink:href="#DejaVuSans-31"/>
       <use transform="translate(147.412109 0.765625)" xlink:href="#DejaVuSans-2e"/>
       <use transform="translate(179.199219 0.765625)" xlink:href="#DejaVuSans-30"/>
       <use transform="translate(242.822266 0.765625)" xlink:href="#DejaVuSans-30"/>
       <use transform="translate(306.445312 0.765625)" xlink:href="#DejaVuSans-d7"/>
       <use transform="translate(390.234375 0.765625)" xlink:href="#DejaVuSans-31"/>
       <use transform="translate(453.857422 0.765625)" xlink:href="#DejaVuSans-30"/>
       <use transform="translate(518.4375 39.046875)scale(0.7)" xlink:href="#DejaVuSans-36"/>
      </g>
     </g>
    </g>
    <g id="ytick_3">
     <g id="line2d_9">
      <g>
       <use style="stroke:#000000;stroke-width:0.5;" x="71.231488" xlink:href="#mdf4207df7b" y="166.809624"/>
      </g>
     </g>
     <g id="text_9">
      <!-- $-5.00×10^{5}$ -->
      <g transform="translate(22.451488 169.848999)scale(0.08 -0.08)">
       <use transform="translate(0 0.684375)" xlink:href="#DejaVuSans-2212"/>
       <use transform="translate(83.789062 0.684375)" xlink:href="#DejaVuSans-35"/>
       <use transform="translate(147.412109 0.684375)" xlink:href="#DejaVuSans-2e"/>
       <use transform="translate(179.199219 0.684375)" xlink:href="#DejaVuSans-30"/>
       <use transform="translate(242.822266 0.684375)" xlink:href="#DejaVuSans-30"/>
       <use transform="translate(306.445312 0.684375)" xlink:href="#DejaVuSans-d7"/>
       <use transform="translate(390.234375 0.684375)" xlink:href="#DejaVuSans-31"/>
       <use transform="translate(453.857422 0.684375)" xlink:href="#DejaVuSans-30"/>
       <use transform="translate(518.4375 38.965625)scale(0.7)" xlink:href="#DejaVuSans-35"/>
      </g>
     </g>
    </g>
    <g id="ytick_4">
     <g id="line2d_10">
      <g>
       <use style="stroke:#000000;stroke-width:0.5;" x="71.231488" xlink:href="#mdf4207df7b" y="129.739713"/>
      </g>
     </g>
     <g id="text_10">
      <!-- $0$ -->
      <g transform="translate(62.611488 132.779088)scale(0.08 -0.08)">
       <use transform="translate(0 0.78125)" xlink:href="#DejaVuSans-30"/>
      </g>
     </g>
    </g>
    <g id="ytick_5">
     <g id="line2d_11">
      <g>
       <use style="stroke:#000000;stroke-width:0.5;" x="71.231488" xlink:href="#mdf4207df7b" y="92.669802"/>
      </g>
     </g>
     <g id="text_11">
      <!-- $5.00×10^{5}$ -->
      <g transform="translate(29.171488 95.709177)scale(0.08 -0.08)">
       <use transform="translate(0 0.684375)" xlink:href="#DejaVuSans-35"/>
       <use transform="translate(63.623047 0.684375)" xlink:href="#DejaVuSans-2e"/>
       <use transform="translate(95.410156 0.684375)" xlink:href="#DejaVuSans-30"/>
       <use transform="translate(159.033203 0.684375)" xlink:href="#DejaVuSans-30"/>
       <use transform="translate(222.65625 0.684375)" xlink:href="#DejaVuSans-d7"/>
       <use transform="translate(306.445312 0.684375)" xlink:href="#DejaVuSans-31"/>
       <use transform="translate(370.068359 0.684375)" xlink:href="#DejaVuSans-30"/>
       <use transform="translate(434.648438 38.965625)scale(0.7)" xlink:href="#DejaVuSans-35"/>
      </g>
     </g>
    </g>
    <g id="ytick_6">
     <g id="line2d_12">
      <g>
       <use style="stroke:#000000;stroke-width:0.5;" x="71.231488" xlink:href="#mdf4207df7b" y="55.599892"/>
      </g>
     </g>
     <g id="text_12">
      <!-- $1.00×10^{6}$ -->
      <g transform="translate(29.171488 58.639267)scale(0.08 -0.08)">
       <use transform="translate(0 0.765625)" xlink:href="#DejaVuSans-31"/>
       <use transform="translate(63.623047 0.765625)" xlink:href="#DejaVuSans-2e"/>
       <use transform="translate(95.410156 0.765625)" xlink:href="#DejaVuSans-30"/>
       <use transform="translate(159.033203 0.765625)" xlink:href="#DejaVuSans-30"/>
       <use transform="translate(222.65625 0.765625)" xlink:href="#DejaVuSans-d7"/>
       <use transform="translate(306.445312 0.765625)" xlink:href="#DejaVuSans-31"/>
       <use transform="translate(370.068359 0.765625)" xlink:href="#DejaVuSans-30"/>
       <use transform="translate(434.648438 39.046875)scale(0.7)" xlink:href="#DejaVuSans-36"/>
      </g>
     </g>
    </g>
    <g id="ytick_7">
     <g id="line2d_13">
      <g>
       <use style="stroke:#000000;stroke-width:0.5;" x="71.231488" xlink:href="#mdf4207df7b" y="18.529981"/>
      </g>
     </g>
     <g id="text_13">
      <!-- $1.50×10^{6}$ -->
      <g transform="translate(29.171488 21.569356)scale(0.08 -0.08)">
       <use transform="translate(0 0.765625)" xlink:href="#DejaVuSans-31"/>
       <use transform="translate(63.623047 0.765625)" xlink:href="#DejaVuSans-2e"/>
       <use transform="translate(95.410156 0.765625)" xlink:href="#DejaVuSans-35"/>
       <use transform="translate(159.033203 0.765625)" xlink:href="#DejaVuSans-30"/>
       <use transform="translate(222.65625 0.765625)" xlink:href="#DejaVuSans-d7"/>
       <use transform="translate(306.445312 0.765625)" xlink:href="#DejaVuSans-31"/>
       <use transform="translate(370.068359 0.765625)" xlink:href="#DejaVuSans-30"/>
       <use transform="translate(434.648438 39.046875)scale(0.7)" xlink:href="#DejaVuSans-36"/>
      </g>
     </g>
    </g>
    <g id="text_14">
     <!-- $M_y$ ($Nm$) -->
     <g transform="translate(15.041488 153.245)rotate(-90)scale(0.11 -0.11)">
      <defs>
       <path d="M 1081 4666 
L 2028 4666 
L 2572 1522 
L 4378 4666 
L 5350 4666 
L 4441 0 
L 3828 0 
L 4622 4091 
L 2791 897 
L 2175 897 
L 1581 4103 
L 788 0 
L 172 0 
L 1081 4666 
z
" id="DejaVuSans-Oblique-4d" transform="scale(0.015625)"/>
       <path d="M 1588 -325 
Q 1188 -997 936 -1164 
Q 684 -1331 294 -1331 
L -159 -1331 
L -63 -850 
L 269 -850 
Q 509 -850 678 -719 
Q 847 -588 1056 -206 
L 1234 128 
L 459 3500 
L 1069 3500 
L 1650 819 
L 3256 3500 
L 3859 3500 
L 1588 -325 
z
" id="DejaVuSans-Oblique-79" transform="scale(0.015625)"/>
       <path d="M 1081 4666 
L 1931 4666 
L 3219 666 
L 4000 4666 
L 4616 4666 
L 3706 0 
L 2853 0 
L 1569 4025 
L 788 0 
L 172 0 
L 1081 4666 
z
" id="DejaVuSans-Oblique-4e" transform="scale(0.015625)"/>
       <path d="M 5747 2113 
L 5338 0 
L 4763 0 
L 5166 2094 
Q 5191 2228 5203 2325 
Q 5216 2422 5216 2491 
Q 5216 2772 5059 2928 
Q 4903 3084 4622 3084 
Q 4203 3084 3875 2770 
Q 3547 2456 3450 1953 
L 3066 0 
L 2491 0 
L 2900 2094 
Q 2925 2209 2937 2307 
Q 2950 2406 2950 2484 
Q 2950 2769 2794 2926 
Q 2638 3084 2363 3084 
Q 1938 3084 1609 2770 
Q 1281 2456 1184 1953 
L 800 0 
L 225 0 
L 909 3500 
L 1484 3500 
L 1375 2956 
Q 1609 3263 1923 3423 
Q 2238 3584 2597 3584 
Q 2978 3584 3223 3384 
Q 3469 3184 3519 2828 
Q 3781 3197 4126 3390 
Q 4472 3584 4856 3584 
Q 5306 3584 5551 3325 
Q 5797 3066 5797 2591 
Q 5797 2488 5784 2364 
Q 5772 2241 5747 2113 
z
" id="DejaVuSans-Oblique-6d" transform="scale(0.015625)"/>
      </defs>
      <use transform="translate(0 0.125)" xlink:href="#DejaVuSans-Oblique-4d"/>
      <use transform="translate(86.279297 -16.28125)scale(0.7)" xlink:href="#DejaVuSans-Oblique-79"/>
      <use transform="translate(130.439453 0.125)" xlink:href="#DejaVuSans-20"/>
      <use transform="translate(162.226562 0.125)" xlink:href="#DejaVuSans-28"/>
      <use transform="translate(201.240234 0.125)" xlink:href="#DejaVuSans-Oblique-4e"/>
      <use transform="translate(276.044922 0.125)" xlink:href="#DejaVuSans-Oblique-6d"/>
      <use transform="translate(373.457031 0.125)" xlink:href="#DejaVuSans-29"/>
     </g>
    </g>
   </g>
   <g id="line2d_14">
    <path clip-path="url(#pab1646e838)" d="M 71.231488 129.739713 
L 72.77596 129.847146 
L 73.840192 129.928835 
L 74.693313 129.584305 
L 75.791464 129.036871 
L 76.353551 129.032322 
L 76.966571 129.318046 
L 79.371011 130.69129 
L 81.258625 131.804893 
L 81.734894 131.645358 
L 82.306705 131.23414 
L 86.92652 126.655926 
L 87.432303 126.492837 
L 89.315092 126.28096 
L 90.273555 125.994788 
L 90.772029 125.989831 
L 91.410754 126.306606 
L 92.067875 126.860874 
L 93.394004 128.324266 
L 94.279343 129.801088 
L 95.314327 132.364495 
L 96.458605 135.253077 
L 97.278774 136.753102 
L 98.708688 138.626032 
L 99.5806 139.469603 
L 100.206595 139.716404 
L 100.811532 139.71935 
L 101.962358 139.638383 
L 102.49235 139.725699 
L 103.086075 139.855836 
L 103.712797 139.779333 
L 104.191116 139.491086 
L 105.129872 138.476183 
L 106.803636 136.064716 
L 107.457629 134.835204 
L 110.076716 129.10622 
L 111.124469 127.240468 
L 111.933612 125.388475 
L 113.848826 120.082791 
L 114.943249 116.311905 
L 117.453047 106.713666 
L 118.318831 104.410036 
L 119.473209 101.866971 
L 120.338993 100.578266 
L 120.918456 100.165058 
L 121.497918 99.971859 
L 123.295596 99.904852 
L 123.926734 100.195037 
L 124.573847 101.055974 
L 125.220961 102.353334 
L 126.311455 105.207792 
L 127.485391 108.860719 
L 130.739313 120.418667 
L 132.239715 124.883182 
L 134.477918 132.483601 
L 135.478988 136.709766 
L 142.445861 170.598545 
L 143.966752 176.557533 
L 144.727198 178.644285 
L 145.234162 179.552511 
L 145.741125 180.145889 
L 146.462269 180.575131 
L 147.133603 180.742281 
L 147.820457 180.595726 
L 148.509558 180.15714 
L 149.658059 179.169048 
L 150.117459 178.971458 
L 150.586083 178.996375 
L 151.248565 179.319576 
L 152.453979 180.012956 
L 153.949753 180.392039 
L 155.078912 180.544594 
L 155.664976 180.291973 
L 156.125545 179.900094 
L 157.580658 178.006847 
L 159.589667 175.358024 
L 160.352958 173.517932 
L 161.118334 171.098753 
L 162.140224 166.899999 
L 162.906642 162.727104 
L 163.67306 157.4049 
L 165.00238 146.155282 
L 169.779968 104.500813 
L 172.579741 83.3073 
L 173.528192 77.884914 
L 174.491966 73.579683 
L 175.491807 70.143489 
L 176.318936 68.267144 
L 177.165932 67.084297 
L 178.04149 65.946428 
L 178.924178 64.314611 
L 180.535733 60.985165 
L 181.487488 59.580393 
L 182.310366 58.674267 
L 182.922249 58.403199 
L 183.334638 58.467741 
L 183.731706 58.820165 
L 184.294261 59.702937 
L 185.047361 61.352731 
L 186.397635 64.321914 
L 188.669133 68.871661 
L 189.675381 71.38992 
L 190.480378 74.056077 
L 191.084127 76.772373 
L 191.889125 81.622615 
L 193.096621 90.797856 
L 198.577592 134.407621 
L 200.511912 148.813347 
L 201.410181 153.902415 
L 202.310582 157.673401 
L 203.210984 160.426212 
L 204.111385 162.360264 
L 205.476838 165.055551 
L 206.159565 167.236257 
L 206.842291 170.283463 
L 209.132536 181.505813 
L 209.842726 183.614336 
L 210.333849 184.572398 
L 210.840771 185.155771 
L 211.094232 185.265512 
L 211.347692 185.241273 
L 211.601153 185.081023 
L 212.108075 184.327186 
L 212.705571 182.709446 
L 213.525043 179.52802 
L 214.612594 175.256778 
L 215.205489 173.670183 
L 215.680577 172.967502 
L 216.190761 172.637026 
L 216.538958 172.641399 
L 217.27517 172.990778 
L 218.181625 173.409665 
L 218.523424 173.400115 
L 218.884444 173.205902 
L 219.245463 172.702253 
L 219.608976 171.80728 
L 219.978523 170.464248 
L 220.542811 167.32287 
L 221.109427 162.847604 
L 221.885296 155.018058 
L 225.401774 116.955224 
L 227.644903 95.033894 
L 228.460713 84.221173 
L 231.388217 42.175082 
L 232.132226 35.708165 
L 232.530789 33.485372 
L 232.931879 32.164963 
L 233.132424 31.846449 
L 233.332969 31.766076 
L 233.533514 31.925953 
L 233.934603 32.941095 
L 234.341437 34.75996 
L 234.957238 38.517817 
L 236.430222 48.267694 
L 237.275479 52.159287 
L 238.639011 56.806345 
L 239.254488 58.501995 
L 239.678142 59.276472 
L 240.101796 59.65132 
L 240.52545 59.608611 
L 241.936007 58.827576 
L 242.284357 58.958708 
L 242.845358 59.486512 
L 244.284259 61.120406 
L 244.722873 61.697456 
L 245.165583 62.594456 
L 245.613196 64.014484 
L 246.514178 68.097136 
L 247.202867 70.762134 
L 247.661994 71.578203 
L 247.891557 71.666245 
L 248.12112 71.571422 
L 249.039373 70.62394 
L 249.268936 70.661911 
L 249.4985 70.943259 
L 249.728063 71.503317 
L 250.187189 73.535811 
L 250.646316 76.739842 
L 251.335005 83.31955 
L 252.023695 91.815657 
L 252.796728 104.40595 
L 253.772545 125.089915 
L 255.144853 154.445158 
L 255.918422 166.238422 
L 256.625152 174.00811 
L 257.521186 181.369828 
L 258.132139 184.872984 
L 258.681507 186.73602 
L 259.098492 187.372445 
L 259.534779 187.602315 
L 259.977084 187.808285 
L 260.271954 188.132213 
L 260.714259 189.083559 
L 261.39084 191.395466 
L 262.10695 193.672962 
L 262.416543 194.087433 
L 262.628106 194.088627 
L 262.852869 193.841322 
L 263.165777 193.120176 
L 263.73223 191.15485 
L 264.445375 188.7758 
L 264.803007 188.146959 
L 265.044893 187.992245 
L 265.298629 188.048549 
L 265.68803 188.466119 
L 266.329708 189.704806 
L 267.340092 192.238957 
L 267.842955 194.115795 
L 268.397009 197.100859 
L 270.125363 207.522644 
L 270.37936 207.923824 
L 270.523785 207.922271 
L 270.66821 207.76667 
L 270.983981 206.915564 
L 271.463973 204.592644 
L 272.548463 198.759981 
L 272.961942 197.6308 
L 273.280434 197.249531 
L 273.622395 197.14255 
L 274.369809 197.116003 
L 274.732062 196.806906 
L 275.139931 196.091445 
L 276.619846 192.935569 
L 277.1116 192.489758 
L 277.991027 191.940208 
L 278.338825 191.31245 
L 278.717165 190.11321 
L 279.117067 188.055476 
L 279.65027 183.795507 
L 280.316773 176.201624 
L 281.516478 159.290397 
L 283.480774 132.131209 
L 284.360059 123.224229 
L 285.838998 109.752778 
L 286.612413 99.375627 
L 287.986501 76.375861 
L 289.982665 44.220959 
L 290.687146 36.164221 
L 291.129399 33.522024 
L 291.448347 32.974518 
L 291.612064 33.120475 
L 291.947577 34.23679 
L 292.433169 37.349133 
L 294.657198 54.330657 
L 295.347811 57.397145 
L 295.671852 58.239279 
L 296.007548 58.556524 
L 296.178079 58.438387 
L 296.494241 57.619814 
L 296.809219 55.977898 
L 297.233862 52.48649 
L 297.835387 45.527394 
L 299.343555 27.216212 
L 299.871383 23.404419 
L 300.322522 21.608175 
L 300.548722 21.252975 
L 300.774922 21.250462 
L 301.001122 21.592023 
L 301.354988 22.806287 
L 301.784691 25.408014 
L 302.327347 30.487096 
L 303.008901 39.22782 
L 304.35277 56.973706 
L 304.837929 60.761535 
L 305.095932 61.808241 
L 305.363699 62.110073 
L 305.497582 61.951597 
L 305.76535 61.052911 
L 306.185639 58.306682 
L 306.842099 51.846155 
L 308.846245 29.363487 
L 309.097054 28.491022 
L 309.222458 28.475861 
L 309.349372 28.787398 
L 309.603199 30.467374 
L 309.98394 35.736989 
L 310.51684 48.246158 
L 311.223701 71.31876 
L 313.10921 136.360656 
L 313.789611 153.367977 
L 314.489157 165.351654 
L 315.027274 170.615617 
L 315.386019 172.287198 
L 315.565391 172.635654 
L 315.744764 172.711632 
L 316.103509 172.308154 
L 316.462253 171.759019 
L 316.641626 171.686707 
L 316.820998 171.893254 
L 317.000371 172.475273 
L 317.359116 175.076725 
L 317.71786 179.751647 
L 318.261935 190.043827 
L 319.822455 222.399144 
L 320.339396 229.075478 
L 320.894753 233.488583 
L 321.455731 236.2749 
L 321.831714 237.521105 
L 322.019768 237.867301 
L 322.207822 237.930798 
L 322.395876 237.615007 
L 322.710422 235.956539 
L 323.069453 231.904304 
L 323.54816 222.511998 
L 324.311959 200.315884 
L 325.014852 182.14629 
L 325.376654 177.191078 
L 325.643378 175.865037 
L 325.728169 175.850736 
L 325.832986 176.081963 
L 326.049581 177.403156 
L 326.390858 181.380139 
L 327.104545 193.550651 
L 328.34375 214.321445 
L 330.463965 244.672699 
L 330.954353 248.903371 
L 331.263096 250.369353 
L 331.472063 250.732714 
L 331.576546 250.6913 
L 331.785513 250.123304 
L 332.012235 248.70509 
L 332.356235 244.796783 
L 332.826493 236.492632 
L 334.132997 211.230459 
L 334.53307 207.154391 
L 334.854084 205.688753 
L 335.010575 205.523856 
L 335.164361 205.65166 
L 335.418585 206.301643 
L 336.054879 207.972164 
L 336.248756 208.022014 
L 336.446528 207.814453 
L 336.842072 206.807786 
L 337.366113 205.439898 
L 337.474674 205.388595 
L 337.588685 205.465616 
L 337.817757 206.170544 
L 338.164884 208.668605 
L 338.757251 215.700501 
L 339.730218 227.656191 
L 340.220085 231.128621 
L 340.571186 232.442614 
L 340.80371 232.851112 
L 340.930067 232.902638 
L 341.056424 232.821255 
L 341.309138 232.216525 
L 341.616041 230.66999 
L 341.990756 227.597112 
L 342.491342 221.260647 
L 343.144246 209.226021 
L 344.267026 187.846248 
L 344.760851 181.893766 
L 345.336649 177.689923 
L 345.89034 173.302979 
L 346.368705 167.583355 
L 347.05805 156.043198 
L 348.59097 127.546176 
L 349.722409 116.137618 
L 350.173849 107.051555 
L 351.075001 82.536337 
L 352.03067 58.099632 
L 352.497484 50.939083 
L 353.081003 45.725626 
L 353.684362 40.553723 
L 354.116117 34.459675 
L 355.52286 10.350696 
L 355.643983 10.062685 
L 355.765106 10.253146 
L 355.990272 11.893135 
L 356.31524 16.883789 
L 357.445957 37.854894 
L 357.675646 38.527282 
L 357.834816 37.933276 
L 358.102873 35.188893 
L 358.575817 26.691748 
L 359.218605 15.32858 
L 359.468351 13.414966 
L 359.551599 13.245358 
L 359.637132 13.33579 
L 359.808198 14.303947 
L 360.085805 17.97485 
L 360.625207 29.94286 
L 361.224478 42.334726 
L 361.480246 44.893912 
L 361.656266 45.303003 
L 361.835628 44.511653 
L 362.130162 40.813394 
L 363.235198 22.396033 
L 363.325642 22.332494 
L 363.416086 22.648782 
L 363.621924 24.784925 
L 363.927706 31.213601 
L 365.006792 59.16399 
L 365.198407 60.737473 
L 365.294215 60.922433 
L 365.390022 60.71614 
L 365.587413 59.100991 
L 365.890297 53.915077 
L 366.474326 38.114328 
L 366.989094 24.936478 
L 367.260402 21.878467 
L 367.342722 21.773057 
L 367.425042 22.08246 
L 367.616274 24.408124 
L 367.903122 31.575775 
L 369.153562 69.879139 
L 369.393952 71.748197 
L 369.486942 71.682021 
L 369.68018 70.11621 
L 369.980923 64.382601 
L 370.822455 45.228498 
L 371.03597 43.914048 
L 371.142727 44.091492 
L 371.3623 46.234559 
L 371.701531 53.571749 
L 372.600566 77.145659 
L 372.924999 80.233928 
L 373.040132 80.317474 
L 373.257618 79.02452 
L 373.540842 74.778533 
L 374.465971 57.425033 
L 374.581865 56.895473 
L 374.697759 57.034062 
L 374.931204 59.526701 
L 375.283858 69.088674 
L 375.800757 92.389726 
L 376.51117 124.357979 
L 376.905945 134.331974 
L 377.170014 137.258602 
L 377.434082 137.991026 
L 377.698151 137.632586 
L 377.834038 137.457285 
L 377.955802 137.507647 
L 378.05698 137.809309 
L 378.296487 139.80944 
L 378.539995 144.046479 
L 378.954456 156.018534 
L 380.368286 202.97373 
L 380.595293 204.003694 
L 380.761117 203.135419 
L 381.031031 199.217504 
L 381.639377 184.495141 
L 382.137009 175.599101 
L 382.401668 174.1293 
L 382.533997 174.395274 
L 382.798656 176.990027 
L 383.195643 185.045795 
L 383.810229 197.949818 
L 384.053245 199.793721 
L 384.174753 199.757969 
L 384.41777 197.910707 
L 384.782294 191.63764 
L 385.538015 177.105525 
L 385.843456 174.627407 
L 385.949154 174.38836 
L 386.054851 174.456722 
L 386.266247 175.556968 
L 386.587955 179.739653 
L 387.029237 190.555865 
L 387.772777 211.292491 
L 388.079176 214.303089 
L 388.190473 214.145538 
L 388.413066 212.16098 
L 389.548723 196.83837 
L 389.87733 194.984464 
L 390.051937 194.655493 
L 390.142878 194.767414 
L 390.324761 195.715004 
L 390.569137 198.710106 
L 391.105173 209.947727 
L 391.492257 216.146899 
L 391.661345 217.046519 
L 391.746605 217.032874 
L 391.918116 216.142045 
L 392.263118 211.80123 
L 393.81776 187.750822 
L 393.922864 187.402388 
L 394.027969 187.454575 
L 394.195969 188.381933 
L 394.451376 191.612548 
L 394.958418 202.13516 
L 395.662391 216.365592 
L 395.993126 219.681653 
L 396.185538 220.226866 
L 396.254155 220.183623 
L 396.391389 219.659675 
L 396.668655 217.263078 
L 397.246151 211.350969 
L 397.466169 210.788786 
L 397.609667 211.221877 
L 397.847564 213.378564 
L 398.186069 219.080029 
L 399.373537 242.773406 
L 399.442809 242.931787 
L 399.515799 242.876976 
L 399.666082 242.069438 
L 399.924204 238.743779 
L 400.279709 230.849906 
L 401.652152 194.872934 
L 401.944259 192.980555 
L 402.139145 192.678474 
L 402.340678 192.738287 
L 402.544952 192.806805 
L 402.649104 192.752055 
L 402.862609 192.188072 
L 403.043147 191.09849 
L 403.335592 187.40411 
L 403.659232 179.435265 
L 404.307787 154.37421 
L 404.840795 137.631151 
L 405.17766 133.348203 
L 405.289948 133.326362 
L 405.514525 135.453523 
L 405.963678 145.504297 
L 406.64854 160.285829 
L 406.880695 162.76919 
L 406.996772 162.979782 
L 407.11285 162.411064 
L 407.345005 158.954932 
L 407.811681 146.125038 
L 408.869992 114.851231 
L 409.20829 111.317741 
L 409.933495 105.479877 
L 410.32497 100.980405 
L 410.737492 91.302046 
L 412.496669 38.293655 
L 412.631105 37.750338 
L 412.698322 37.788014 
L 412.834225 38.416909 
L 413.064033 40.785448 
L 414.416857 57.93925 
L 414.584225 58.513571 
L 414.669983 58.522041 
L 414.847677 57.932649 
L 415.123487 55.31527 
L 415.670238 49.615576 
L 415.838519 49.457196 
L 416.014922 50.224355 
L 416.293689 53.255387 
L 416.701529 61.074809 
L 417.928438 89.182645 
L 418.155923 89.975249 
L 418.269665 89.55462 
L 418.497673 86.949581 
L 418.840468 78.591921 
L 419.426669 55.179946 
L 420.030061 32.198186 
L 420.380462 26.193054 
L 420.521149 25.688843 
L 420.588602 25.756744 
L 420.810943 26.802222 
L 421.340136 29.658514 
L 421.760045 31.506 
L 422.206437 33.644916 
L 422.288899 33.711471 
L 422.361999 33.621121 
L 422.361999 33.621121 
" style="fill:none;stroke:#e36f47;"/>
   </g>
   <g id="patch_3">
    <path d="M 71.231488 258.225354 
L 71.231488 2.834646 
" style="fill:none;stroke:#000000;stroke-linecap:square;stroke-linejoin:miter;"/>
   </g>
   <g id="patch_4">
    <path d="M 71.231488 258.225354 
L 422.361999 258.225354 
" style="fill:none;stroke:#000000;stroke-linecap:square;stroke-linejoin:miter;"/>
   </g>
   <g id="legend_1">
    <g id="patch_5">
     <path d="M 299.041999 39.119646 
L 418.361999 39.119646 
L 418.361999 6.834646 
L 299.041999 6.834646 
z
" style="fill:#ffffff;stroke:#000000;stroke-linejoin:miter;"/>
    </g>
    <g id="line2d_15">
     <path d="M 305.441999 16.513396 
L 321.441999 16.513396 
" style="fill:none;stroke:#009afa;stroke-linejoin:miter;"/>
    </g>
    <g id="line2d_16"/>
    <g id="text_15">
     <!-- GXBeam -->
     <g transform="translate(327.841999 19.313396)scale(0.08 -0.08)">
      <defs>
       <path d="M 3809 666 
L 3809 1919 
L 2778 1919 
L 2778 2438 
L 4434 2438 
L 4434 434 
Q 4069 175 3628 42 
Q 3188 -91 2688 -91 
Q 1594 -91 976 548 
Q 359 1188 359 2328 
Q 359 3472 976 4111 
Q 1594 4750 2688 4750 
Q 3144 4750 3555 4637 
Q 3966 4525 4313 4306 
L 4313 3634 
Q 3963 3931 3569 4081 
Q 3175 4231 2741 4231 
Q 1884 4231 1454 3753 
Q 1025 3275 1025 2328 
Q 1025 1384 1454 906 
Q 1884 428 2741 428 
Q 3075 428 3337 486 
Q 3600 544 3809 666 
z
" id="DejaVuSans-47" transform="scale(0.015625)"/>
       <path d="M 403 4666 
L 1081 4666 
L 2241 2931 
L 3406 4666 
L 4084 4666 
L 2584 2425 
L 4184 0 
L 3506 0 
L 2194 1984 
L 872 0 
L 191 0 
L 1856 2491 
L 403 4666 
z
" id="DejaVuSans-58" transform="scale(0.015625)"/>
       <path d="M 1259 2228 
L 1259 519 
L 2272 519 
Q 2781 519 3026 730 
Q 3272 941 3272 1375 
Q 3272 1813 3026 2020 
Q 2781 2228 2272 2228 
L 1259 2228 
z
M 1259 4147 
L 1259 2741 
L 2194 2741 
Q 2656 2741 2882 2914 
Q 3109 3088 3109 3444 
Q 3109 3797 2882 3972 
Q 2656 4147 2194 4147 
L 1259 4147 
z
M 628 4666 
L 2241 4666 
Q 2963 4666 3353 4366 
Q 3744 4066 3744 3513 
Q 3744 3084 3544 2831 
Q 3344 2578 2956 2516 
Q 3422 2416 3680 2098 
Q 3938 1781 3938 1306 
Q 3938 681 3513 340 
Q 3088 0 2303 0 
L 628 0 
L 628 4666 
z
" id="DejaVuSans-42" transform="scale(0.015625)"/>
       <path d="M 2194 1759 
Q 1497 1759 1228 1600 
Q 959 1441 959 1056 
Q 959 750 1161 570 
Q 1363 391 1709 391 
Q 2188 391 2477 730 
Q 2766 1069 2766 1631 
L 2766 1759 
L 2194 1759 
z
M 3341 1997 
L 3341 0 
L 2766 0 
L 2766 531 
Q 2569 213 2275 61 
Q 1981 -91 1556 -91 
Q 1019 -91 701 211 
Q 384 513 384 1019 
Q 384 1609 779 1909 
Q 1175 2209 1959 2209 
L 2766 2209 
L 2766 2266 
Q 2766 2663 2505 2880 
Q 2244 3097 1772 3097 
Q 1472 3097 1187 3025 
Q 903 2953 641 2809 
L 641 3341 
Q 956 3463 1253 3523 
Q 1550 3584 1831 3584 
Q 2591 3584 2966 3190 
Q 3341 2797 3341 1997 
z
" id="DejaVuSans-61" transform="scale(0.015625)"/>
      </defs>
      <use xlink:href="#DejaVuSans-47"/>
      <use x="77.490234" xlink:href="#DejaVuSans-58"/>
      <use x="145.996094" xlink:href="#DejaVuSans-42"/>
      <use x="214.599609" xlink:href="#DejaVuSans-65"/>
      <use x="276.123047" xlink:href="#DejaVuSans-61"/>
      <use x="337.402344" xlink:href="#DejaVuSans-6d"/>
     </g>
    </g>
    <g id="line2d_17">
     <path d="M 305.441999 28.255896 
L 321.441999 28.255896 
" style="fill:none;stroke:#e36f47;stroke-linejoin:miter;"/>
    </g>
    <g id="line2d_18"/>
    <g id="text_16">
     <!-- DifferentialEquations -->
     <g transform="translate(327.841999 31.055896)scale(0.08 -0.08)">
      <defs>
       <path d="M 1259 4147 
L 1259 519 
L 2022 519 
Q 2988 519 3436 956 
Q 3884 1394 3884 2338 
Q 3884 3275 3436 3711 
Q 2988 4147 2022 4147 
L 1259 4147 
z
M 628 4666 
L 1925 4666 
Q 3281 4666 3915 4102 
Q 4550 3538 4550 2338 
Q 4550 1131 3912 565 
Q 3275 0 1925 0 
L 628 0 
L 628 4666 
z
" id="DejaVuSans-44" transform="scale(0.015625)"/>
       <path d="M 2375 4863 
L 2375 4384 
L 1825 4384 
Q 1516 4384 1395 4259 
Q 1275 4134 1275 3809 
L 1275 3500 
L 2222 3500 
L 2222 3053 
L 1275 3053 
L 1275 0 
L 697 0 
L 697 3053 
L 147 3053 
L 147 3500 
L 697 3500 
L 697 3744 
Q 697 4328 969 4595 
Q 1241 4863 1831 4863 
L 2375 4863 
z
" id="DejaVuSans-66" transform="scale(0.015625)"/>
       <path d="M 2631 2963 
Q 2534 3019 2420 3045 
Q 2306 3072 2169 3072 
Q 1681 3072 1420 2755 
Q 1159 2438 1159 1844 
L 1159 0 
L 581 0 
L 581 3500 
L 1159 3500 
L 1159 2956 
Q 1341 3275 1631 3429 
Q 1922 3584 2338 3584 
Q 2397 3584 2469 3576 
Q 2541 3569 2628 3553 
L 2631 2963 
z
" id="DejaVuSans-72" transform="scale(0.015625)"/>
       <path d="M 3513 2113 
L 3513 0 
L 2938 0 
L 2938 2094 
Q 2938 2591 2744 2837 
Q 2550 3084 2163 3084 
Q 1697 3084 1428 2787 
Q 1159 2491 1159 1978 
L 1159 0 
L 581 0 
L 581 3500 
L 1159 3500 
L 1159 2956 
Q 1366 3272 1645 3428 
Q 1925 3584 2291 3584 
Q 2894 3584 3203 3211 
Q 3513 2838 3513 2113 
z
" id="DejaVuSans-6e" transform="scale(0.015625)"/>
       <path d="M 1172 4494 
L 1172 3500 
L 2356 3500 
L 2356 3053 
L 1172 3053 
L 1172 1153 
Q 1172 725 1289 603 
Q 1406 481 1766 481 
L 2356 481 
L 2356 0 
L 1766 0 
Q 1100 0 847 248 
Q 594 497 594 1153 
L 594 3053 
L 172 3053 
L 172 3500 
L 594 3500 
L 594 4494 
L 1172 4494 
z
" id="DejaVuSans-74" transform="scale(0.015625)"/>
       <path d="M 603 4863 
L 1178 4863 
L 1178 0 
L 603 0 
L 603 4863 
z
" id="DejaVuSans-6c" transform="scale(0.015625)"/>
       <path d="M 628 4666 
L 3578 4666 
L 3578 4134 
L 1259 4134 
L 1259 2753 
L 3481 2753 
L 3481 2222 
L 1259 2222 
L 1259 531 
L 3634 531 
L 3634 0 
L 628 0 
L 628 4666 
z
" id="DejaVuSans-45" transform="scale(0.015625)"/>
       <path d="M 947 1747 
Q 947 1113 1208 752 
Q 1469 391 1925 391 
Q 2381 391 2643 752 
Q 2906 1113 2906 1747 
Q 2906 2381 2643 2742 
Q 2381 3103 1925 3103 
Q 1469 3103 1208 2742 
Q 947 2381 947 1747 
z
M 2906 525 
Q 2725 213 2448 61 
Q 2172 -91 1784 -91 
Q 1150 -91 751 415 
Q 353 922 353 1747 
Q 353 2572 751 3078 
Q 1150 3584 1784 3584 
Q 2172 3584 2448 3432 
Q 2725 3281 2906 2969 
L 2906 3500 
L 3481 3500 
L 3481 -1331 
L 2906 -1331 
L 2906 525 
z
" id="DejaVuSans-71" transform="scale(0.015625)"/>
       <path d="M 544 1381 
L 544 3500 
L 1119 3500 
L 1119 1403 
Q 1119 906 1312 657 
Q 1506 409 1894 409 
Q 2359 409 2629 706 
Q 2900 1003 2900 1516 
L 2900 3500 
L 3475 3500 
L 3475 0 
L 2900 0 
L 2900 538 
Q 2691 219 2414 64 
Q 2138 -91 1772 -91 
Q 1169 -91 856 284 
Q 544 659 544 1381 
z
M 1991 3584 
L 1991 3584 
z
" id="DejaVuSans-75" transform="scale(0.015625)"/>
       <path d="M 1959 3097 
Q 1497 3097 1228 2736 
Q 959 2375 959 1747 
Q 959 1119 1226 758 
Q 1494 397 1959 397 
Q 2419 397 2687 759 
Q 2956 1122 2956 1747 
Q 2956 2369 2687 2733 
Q 2419 3097 1959 3097 
z
M 1959 3584 
Q 2709 3584 3137 3096 
Q 3566 2609 3566 1747 
Q 3566 888 3137 398 
Q 2709 -91 1959 -91 
Q 1206 -91 779 398 
Q 353 888 353 1747 
Q 353 2609 779 3096 
Q 1206 3584 1959 3584 
z
" id="DejaVuSans-6f" transform="scale(0.015625)"/>
      </defs>
      <use xlink:href="#DejaVuSans-44"/>
      <use x="77.001953" xlink:href="#DejaVuSans-69"/>
      <use x="104.785156" xlink:href="#DejaVuSans-66"/>
      <use x="139.990234" xlink:href="#DejaVuSans-66"/>
      <use x="175.195312" xlink:href="#DejaVuSans-65"/>
      <use x="236.71875" xlink:href="#DejaVuSans-72"/>
      <use x="275.582031" xlink:href="#DejaVuSans-65"/>
      <use x="337.105469" xlink:href="#DejaVuSans-6e"/>
      <use x="400.484375" xlink:href="#DejaVuSans-74"/>
      <use x="439.693359" xlink:href="#DejaVuSans-69"/>
      <use x="467.476562" xlink:href="#DejaVuSans-61"/>
      <use x="528.755859" xlink:href="#DejaVuSans-6c"/>
      <use x="556.539062" xlink:href="#DejaVuSans-45"/>
      <use x="619.722656" xlink:href="#DejaVuSans-71"/>
      <use x="683.199219" xlink:href="#DejaVuSans-75"/>
      <use x="746.578125" xlink:href="#DejaVuSans-61"/>
      <use x="807.857422" xlink:href="#DejaVuSans-74"/>
      <use x="847.066406" xlink:href="#DejaVuSans-69"/>
      <use x="874.849609" xlink:href="#DejaVuSans-6f"/>
      <use x="936.03125" xlink:href="#DejaVuSans-6e"/>
      <use x="999.410156" xlink:href="#DejaVuSans-73"/>
     </g>
    </g>
   </g>
  </g>
 </g>
 <defs>
  <clipPath id="pab1646e838">
   <rect height="255.390709" width="351.130512" x="71.231488" y="2.834646"/>
  </clipPath>
 </defs>
</svg>
