<?xml version="1.0" encoding="utf-8" standalone="no"?>
<!DOCTYPE svg PUBLIC "-//W3C//DTD SVG 1.1//EN"
  "http://www.w3.org/Graphics/SVG/1.1/DTD/svg11.dtd">
<svg height="288pt" version="1.1" viewBox="0 0 432 288" width="432pt" xmlns="http://www.w3.org/2000/svg" xmlns:xlink="http://www.w3.org/1999/xlink">
 <metadata>
  <rdf:RDF xmlns:cc="http://creativecommons.org/ns#" xmlns:dc="http://purl.org/dc/elements/1.1/" xmlns:rdf="http://www.w3.org/1999/02/22-rdf-syntax-ns#">
   <cc:Work>
    <dc:type rdf:resource="http://purl.org/dc/dcmitype/StillImage"/>
    <dc:date>2021-11-15T21:25:37.583107</dc:date>
    <dc:format>image/svg+xml</dc:format>
    <dc:creator>
     <cc:Agent>
      <dc:title>Matplotlib v3.4.3, https://matplotlib.org/</dc:title>
     </cc:Agent>
    </dc:creator>
   </cc:Work>
  </rdf:RDF>
 </metadata>
 <defs>
  <style type="text/css">*{stroke-linecap:butt;stroke-linejoin:round;}</style>
 </defs>
 <g id="figure_1">
  <g id="patch_1">
   <path d="M 0 288 
L 432 288 
L 432 0 
L 0 0 
z
" style="fill:#ffffff;"/>
  </g>
  <g id="axes_1">
   <g id="patch_2">
    <path d="M 29.556396 258.225354 
L 422.361999 258.225354 
L 422.361999 2.834646 
L 29.556396 2.834646 
z
" style="fill:#ffffff;"/>
   </g>
   <g id="line2d_1">
    <path clip-path="url(#p097dd217f7)" d="M 29.556396 250.997315 
L 31.127618 250.903272 
L 32.502438 250.571727 
L 33.680855 250.066053 
L 34.859271 249.299592 
L 36.037688 248.235083 
L 37.412508 246.674766 
L 38.590925 245.056457 
L 39.769341 243.105206 
L 41.144161 240.428434 
L 42.715383 236.924718 
L 44.483009 232.44077 
L 47.232648 224.807863 
L 49.982287 216.418114 
L 53.71394 204.226416 
L 56.46358 195.685464 
L 58.427608 190.236865 
L 60.195233 185.966077 
L 61.766455 182.7002 
L 63.141275 180.394657 
L 64.516094 178.582478 
L 65.694511 177.368163 
L 66.872928 176.466416 
L 68.247748 175.728667 
L 69.622567 175.24435 
L 70.800984 175.092572 
L 71.782998 175.183699 
L 72.961415 175.524221 
L 73.943429 176.004074 
L 75.121846 176.861167 
L 76.496665 178.216494 
L 78.067888 180.134235 
L 79.442707 182.190714 
L 81.210333 185.320004 
L 83.174361 189.235996 
L 86.906014 196.843934 
L 89.066445 200.622356 
L 90.637667 202.953229 
L 92.405292 205.20833 
L 93.583709 206.406715 
L 94.565723 207.139831 
L 95.547737 207.628964 
L 96.529751 207.869087 
L 97.315362 207.851517 
L 98.100973 207.629522 
L 99.082987 207.083299 
L 100.065002 206.253273 
L 101.047016 205.123642 
L 102.02903 203.646185 
L 103.207446 201.384694 
L 104.582266 198.143109 
L 105.957086 194.298289 
L 107.921114 187.999627 
L 112.634781 171.86679 
L 116.170031 160.30414 
L 118.134059 154.627304 
L 120.098087 149.65574 
L 121.66931 146.255056 
L 123.240532 143.341265 
L 124.418949 141.528273 
L 125.400963 140.367163 
L 126.186574 139.718571 
L 126.972185 139.322784 
L 127.757797 139.195408 
L 128.347005 139.286848 
L 129.132616 139.676261 
L 129.918227 140.360261 
L 130.900241 141.590601 
L 132.078658 143.522975 
L 133.257075 145.892814 
L 134.631895 149.16061 
L 136.595923 154.419174 
L 142.095201 169.564019 
L 144.059229 174.142058 
L 146.612466 179.442595 
L 148.380091 182.692849 
L 149.951313 185.123149 
L 151.522536 187.149868 
L 152.897355 188.550801 
L 154.075772 189.463509 
L 155.057786 190.006839 
L 155.843397 190.244234 
L 156.629008 190.236583 
L 157.41462 189.934554 
L 158.200231 189.304842 
L 158.985842 188.327759 
L 159.771453 186.98504 
L 160.753467 184.771578 
L 161.735481 181.993772 
L 163.110301 177.352522 
L 164.681523 171.252272 
L 166.645551 162.696344 
L 169.591593 148.718387 
L 172.14483 136.866402 
L 174.305261 127.984844 
L 178.822525 110.875145 
L 180.982956 103.165826 
L 182.357775 99.088564 
L 183.339789 96.79004 
L 184.321803 95.084283 
L 185.107415 94.137651 
L 185.893026 93.510536 
L 186.678637 93.16312 
L 187.464248 93.064678 
L 188.24986 93.20747 
L 189.035471 93.583672 
L 189.821082 94.187341 
L 190.803096 95.261481 
L 191.78511 96.730377 
L 192.767124 98.681314 
L 193.749138 101.153921 
L 195.123958 105.282995 
L 197.677194 113.813887 
L 199.444819 120.365158 
L 200.819639 126.342947 
L 201.998056 132.465923 
L 203.765681 143.052443 
L 207.300931 164.465204 
L 209.068556 173.719643 
L 211.228987 183.782856 
L 212.80021 190.100597 
L 214.567835 196.22086 
L 215.746252 199.624883 
L 216.728266 201.748265 
L 217.513877 202.927752 
L 218.299488 203.742368 
L 219.477905 204.599439 
L 221.834739 206.158229 
L 223.405961 207.5998 
L 224.191572 208.214622 
L 224.780781 208.422975 
L 225.173586 208.381596 
L 225.566392 208.170571 
L 226.1556 207.512171 
L 226.744809 206.441956 
L 227.53042 204.393318 
L 228.316031 201.62395 
L 229.101642 198.08783 
L 230.083656 192.625812 
L 231.654879 182.380228 
L 234.011712 165.723937 
L 236.368546 147.280138 
L 238.528977 128.727324 
L 240.689408 110.351332 
L 242.653436 95.612468 
L 244.617464 82.492516 
L 247.563506 64.446507 
L 248.741922 58.640234 
L 249.723936 54.859352 
L 251.098756 50.555163 
L 255.616021 37.068946 
L 256.794437 33.650168 
L 257.383646 32.456399 
L 257.972854 31.74562 
L 258.36566 31.556098 
L 258.758465 31.578748 
L 259.151271 31.793034 
L 259.740479 32.405621 
L 260.329688 33.318267 
L 261.115299 34.959253 
L 262.097313 37.672084 
L 263.27573 41.754912 
L 265.043355 48.746687 
L 266.418175 55.049979 
L 267.989397 63.595786 
L 271.72105 84.234316 
L 272.899467 89.467292 
L 278.00594 110.284958 
L 279.773565 117.669338 
L 280.755579 120.887322 
L 281.54119 122.77721 
L 282.523204 124.477428 
L 284.683635 127.847862 
L 285.469246 129.569934 
L 286.45126 132.360437 
L 287.629677 136.522956 
L 289.2009 142.062686 
L 289.790108 143.548653 
L 290.379316 144.477574 
L 290.772122 144.747839 
L 291.164928 144.720192 
L 291.557733 144.382813 
L 291.950539 143.722601 
L 292.539747 142.120744 
L 293.128956 139.779421 
L 293.914567 135.628118 
L 295.485789 125.49846 
L 296.860609 117.227963 
L 298.235429 110.323733 
L 301.181471 96.430267 
L 302.163485 90.119065 
L 305.109527 69.735652 
L 306.287943 63.870102 
L 307.269957 60.022368 
L 309.430388 52.393699 
L 310.019597 48.930174 
L 311.001611 41.452714 
L 312.965639 26.119792 
L 314.340458 17.326371 
L 315.126069 13.357506 
L 315.715278 11.26614 
L 316.108083 10.42363 
L 316.500889 10.063327 
L 316.697292 10.062685 
L 317.090097 10.393941 
L 317.679306 11.524372 
L 319.054125 14.711194 
L 319.643334 15.524677 
L 320.232542 15.909093 
L 320.821751 15.987136 
L 321.607362 15.804912 
L 322.589376 15.340459 
L 323.178584 14.854884 
L 323.767793 14.082555 
L 324.749807 12.620993 
L 325.142612 12.343474 
L 325.535418 12.418322 
L 325.928224 12.930919 
L 326.321029 13.91274 
L 326.910238 16.230559 
L 327.695849 20.544779 
L 329.070668 29.782641 
L 332.213113 50.969122 
L 333.587933 58.207352 
L 334.962752 65.723487 
L 336.92678 78.072744 
L 338.105197 86.463072 
L 340.265628 102.759615 
L 341.444045 109.170873 
L 343.800879 120.395727 
L 344.979295 124.597618 
L 345.961309 128.295329 
L 346.746921 132.249856 
L 348.318143 140.651971 
L 349.103754 143.468391 
L 350.282171 146.542495 
L 351.264185 148.784943 
L 351.656991 149.326106 
L 352.049796 149.531536 
L 352.442602 149.335286 
L 352.835407 148.722337 
L 353.424616 147.210648 
L 354.40663 144.555114 
L 354.799435 143.920966 
L 355.192241 143.661123 
L 355.585047 143.712911 
L 356.370658 143.937551 
L 356.763463 143.746587 
L 357.352672 143.051179 
L 358.138283 141.656788 
L 358.923894 140.351157 
L 359.3167 140.121786 
L 359.905908 140.223323 
L 360.298714 140.259725 
L 360.691519 140.006511 
L 361.084325 139.360788 
L 361.477131 138.312316 
L 362.066339 136.006943 
L 363.441159 129.834141 
L 364.030367 128.294627 
L 365.208784 125.771643 
L 365.797992 123.416903 
L 366.583604 118.800869 
L 367.565618 113.119972 
L 368.154826 110.886384 
L 369.333243 107.086081 
L 369.922451 103.733529 
L 370.904465 96.039009 
L 371.886479 88.994062 
L 372.868493 84.058392 
L 373.457702 80.787544 
L 374.04691 76.489341 
L 376.207341 58.698226 
L 376.796549 56.093094 
L 379.742591 45.884745 
L 380.135397 45.48977 
L 380.528202 45.528906 
L 380.921008 45.905128 
L 382.295828 47.84978 
L 382.688633 47.832496 
L 383.081439 47.427534 
L 383.670647 46.676766 
L 384.063453 46.455103 
L 384.652661 46.522405 
L 385.24187 46.780044 
L 385.634675 47.182153 
L 387.009495 49.216169 
L 387.795106 49.508039 
L 388.187912 49.95051 
L 388.77712 51.013475 
L 389.366329 52.470524 
L 389.955537 54.714825 
L 391.133954 59.959615 
L 392.705176 65.397022 
L 393.490787 69.070935 
L 394.276399 74.238766 
L 396.044024 86.88782 
L 397.418843 96.409132 
L 398.793663 108.353122 
L 399.579274 114.771455 
L 400.561288 120.344225 
L 401.739705 126.971915 
L 402.525316 133.401264 
L 404.096539 146.565768 
L 406.453372 162.320278 
L 407.631789 171.348918 
L 408.220998 174.773375 
L 410.381428 184.994668 
L 412.149054 197.183314 
L 412.934665 200.928442 
L 416.07711 212.403278 
L 416.469915 212.77657 
L 416.862721 212.574243 
L 417.451929 211.845626 
L 418.630346 210.085534 
L 419.023152 209.963961 
L 419.808763 210.030768 
L 420.201568 209.708764 
L 420.594374 209.01396 
L 421.183582 207.345677 
L 421.969194 204.119012 
L 422.361999 202.440658 
L 422.361999 202.440658 
" style="fill:none;stroke:#009afa;"/>
   </g>
   <g id="matplotlib.axis_1">
    <g id="xtick_1">
     <g id="line2d_2">
      <defs>
       <path d="M 0 0 
L 0 -2.5 
" id="m0f1e751884" style="stroke:#000000;stroke-width:0.5;"/>
      </defs>
      <g>
       <use style="stroke:#000000;stroke-width:0.5;" x="29.556396" xlink:href="#m0f1e751884" y="258.225354"/>
      </g>
     </g>
     <g id="text_1">
      <!-- $0.0$ -->
      <g transform="translate(23.156396 267.804104)scale(0.08 -0.08)">
       <defs>
        <path d="M 2034 4250 
Q 1547 4250 1301 3770 
Q 1056 3291 1056 2328 
Q 1056 1369 1301 889 
Q 1547 409 2034 409 
Q 2525 409 2770 889 
Q 3016 1369 3016 2328 
Q 3016 3291 2770 3770 
Q 2525 4250 2034 4250 
z
M 2034 4750 
Q 2819 4750 3233 4129 
Q 3647 3509 3647 2328 
Q 3647 1150 3233 529 
Q 2819 -91 2034 -91 
Q 1250 -91 836 529 
Q 422 1150 422 2328 
Q 422 3509 836 4129 
Q 1250 4750 2034 4750 
z
" id="DejaVuSans-30" transform="scale(0.015625)"/>
        <path d="M 684 794 
L 1344 794 
L 1344 0 
L 684 0 
L 684 794 
z
" id="DejaVuSans-2e" transform="scale(0.015625)"/>
       </defs>
       <use transform="translate(0 0.78125)" xlink:href="#DejaVuSans-30"/>
       <use transform="translate(63.623047 0.78125)" xlink:href="#DejaVuSans-2e"/>
       <use transform="translate(95.410156 0.78125)" xlink:href="#DejaVuSans-30"/>
      </g>
     </g>
    </g>
    <g id="xtick_2">
     <g id="line2d_3">
      <g>
       <use style="stroke:#000000;stroke-width:0.5;" x="127.757797" xlink:href="#m0f1e751884" y="258.225354"/>
      </g>
     </g>
     <g id="text_2">
      <!-- $0.5$ -->
      <g transform="translate(121.357797 267.804104)scale(0.08 -0.08)">
       <defs>
        <path d="M 691 4666 
L 3169 4666 
L 3169 4134 
L 1269 4134 
L 1269 2991 
Q 1406 3038 1543 3061 
Q 1681 3084 1819 3084 
Q 2600 3084 3056 2656 
Q 3513 2228 3513 1497 
Q 3513 744 3044 326 
Q 2575 -91 1722 -91 
Q 1428 -91 1123 -41 
Q 819 9 494 109 
L 494 744 
Q 775 591 1075 516 
Q 1375 441 1709 441 
Q 2250 441 2565 725 
Q 2881 1009 2881 1497 
Q 2881 1984 2565 2268 
Q 2250 2553 1709 2553 
Q 1456 2553 1204 2497 
Q 953 2441 691 2322 
L 691 4666 
z
" id="DejaVuSans-35" transform="scale(0.015625)"/>
       </defs>
       <use transform="translate(0 0.78125)" xlink:href="#DejaVuSans-30"/>
       <use transform="translate(63.623047 0.78125)" xlink:href="#DejaVuSans-2e"/>
       <use transform="translate(95.410156 0.78125)" xlink:href="#DejaVuSans-35"/>
      </g>
     </g>
    </g>
    <g id="xtick_3">
     <g id="line2d_4">
      <g>
       <use style="stroke:#000000;stroke-width:0.5;" x="225.959197" xlink:href="#m0f1e751884" y="258.225354"/>
      </g>
     </g>
     <g id="text_3">
      <!-- $1.0$ -->
      <g transform="translate(219.559197 267.804104)scale(0.08 -0.08)">
       <defs>
        <path d="M 794 531 
L 1825 531 
L 1825 4091 
L 703 3866 
L 703 4441 
L 1819 4666 
L 2450 4666 
L 2450 531 
L 3481 531 
L 3481 0 
L 794 0 
L 794 531 
z
" id="DejaVuSans-31" transform="scale(0.015625)"/>
       </defs>
       <use transform="translate(0 0.78125)" xlink:href="#DejaVuSans-31"/>
       <use transform="translate(63.623047 0.78125)" xlink:href="#DejaVuSans-2e"/>
       <use transform="translate(95.410156 0.78125)" xlink:href="#DejaVuSans-30"/>
      </g>
     </g>
    </g>
    <g id="xtick_4">
     <g id="line2d_5">
      <g>
       <use style="stroke:#000000;stroke-width:0.5;" x="324.160598" xlink:href="#m0f1e751884" y="258.225354"/>
      </g>
     </g>
     <g id="text_4">
      <!-- $1.5$ -->
      <g transform="translate(317.760598 267.804104)scale(0.08 -0.08)">
       <use transform="translate(0 0.09375)" xlink:href="#DejaVuSans-31"/>
       <use transform="translate(63.623047 0.09375)" xlink:href="#DejaVuSans-2e"/>
       <use transform="translate(95.410156 0.09375)" xlink:href="#DejaVuSans-35"/>
      </g>
     </g>
    </g>
    <g id="xtick_5">
     <g id="line2d_6">
      <g>
       <use style="stroke:#000000;stroke-width:0.5;" x="422.361999" xlink:href="#m0f1e751884" y="258.225354"/>
      </g>
     </g>
     <g id="text_5">
      <!-- $2.0$ -->
      <g transform="translate(415.961999 267.804104)scale(0.08 -0.08)">
       <defs>
        <path d="M 1228 531 
L 3431 531 
L 3431 0 
L 469 0 
L 469 531 
Q 828 903 1448 1529 
Q 2069 2156 2228 2338 
Q 2531 2678 2651 2914 
Q 2772 3150 2772 3378 
Q 2772 3750 2511 3984 
Q 2250 4219 1831 4219 
Q 1534 4219 1204 4116 
Q 875 4013 500 3803 
L 500 4441 
Q 881 4594 1212 4672 
Q 1544 4750 1819 4750 
Q 2544 4750 2975 4387 
Q 3406 4025 3406 3419 
Q 3406 3131 3298 2873 
Q 3191 2616 2906 2266 
Q 2828 2175 2409 1742 
Q 1991 1309 1228 531 
z
" id="DejaVuSans-32" transform="scale(0.015625)"/>
       </defs>
       <use transform="translate(0 0.78125)" xlink:href="#DejaVuSans-32"/>
       <use transform="translate(63.623047 0.78125)" xlink:href="#DejaVuSans-2e"/>
       <use transform="translate(95.410156 0.78125)" xlink:href="#DejaVuSans-30"/>
      </g>
     </g>
    </g>
    <g id="text_6">
     <!-- Time (s) -->
     <g transform="translate(203.597401 281.826136)scale(0.11 -0.11)">
      <defs>
       <path d="M -19 4666 
L 3928 4666 
L 3928 4134 
L 2272 4134 
L 2272 0 
L 1638 0 
L 1638 4134 
L -19 4134 
L -19 4666 
z
" id="DejaVuSans-54" transform="scale(0.015625)"/>
       <path d="M 603 3500 
L 1178 3500 
L 1178 0 
L 603 0 
L 603 3500 
z
M 603 4863 
L 1178 4863 
L 1178 4134 
L 603 4134 
L 603 4863 
z
" id="DejaVuSans-69" transform="scale(0.015625)"/>
       <path d="M 3328 2828 
Q 3544 3216 3844 3400 
Q 4144 3584 4550 3584 
Q 5097 3584 5394 3201 
Q 5691 2819 5691 2113 
L 5691 0 
L 5113 0 
L 5113 2094 
Q 5113 2597 4934 2840 
Q 4756 3084 4391 3084 
Q 3944 3084 3684 2787 
Q 3425 2491 3425 1978 
L 3425 0 
L 2847 0 
L 2847 2094 
Q 2847 2600 2669 2842 
Q 2491 3084 2119 3084 
Q 1678 3084 1418 2786 
Q 1159 2488 1159 1978 
L 1159 0 
L 581 0 
L 581 3500 
L 1159 3500 
L 1159 2956 
Q 1356 3278 1631 3431 
Q 1906 3584 2284 3584 
Q 2666 3584 2933 3390 
Q 3200 3197 3328 2828 
z
" id="DejaVuSans-6d" transform="scale(0.015625)"/>
       <path d="M 3597 1894 
L 3597 1613 
L 953 1613 
Q 991 1019 1311 708 
Q 1631 397 2203 397 
Q 2534 397 2845 478 
Q 3156 559 3463 722 
L 3463 178 
Q 3153 47 2828 -22 
Q 2503 -91 2169 -91 
Q 1331 -91 842 396 
Q 353 884 353 1716 
Q 353 2575 817 3079 
Q 1281 3584 2069 3584 
Q 2775 3584 3186 3129 
Q 3597 2675 3597 1894 
z
M 3022 2063 
Q 3016 2534 2758 2815 
Q 2500 3097 2075 3097 
Q 1594 3097 1305 2825 
Q 1016 2553 972 2059 
L 3022 2063 
z
" id="DejaVuSans-65" transform="scale(0.015625)"/>
       <path id="DejaVuSans-20" transform="scale(0.015625)"/>
       <path d="M 1984 4856 
Q 1566 4138 1362 3434 
Q 1159 2731 1159 2009 
Q 1159 1288 1364 580 
Q 1569 -128 1984 -844 
L 1484 -844 
Q 1016 -109 783 600 
Q 550 1309 550 2009 
Q 550 2706 781 3412 
Q 1013 4119 1484 4856 
L 1984 4856 
z
" id="DejaVuSans-28" transform="scale(0.015625)"/>
       <path d="M 2834 3397 
L 2834 2853 
Q 2591 2978 2328 3040 
Q 2066 3103 1784 3103 
Q 1356 3103 1142 2972 
Q 928 2841 928 2578 
Q 928 2378 1081 2264 
Q 1234 2150 1697 2047 
L 1894 2003 
Q 2506 1872 2764 1633 
Q 3022 1394 3022 966 
Q 3022 478 2636 193 
Q 2250 -91 1575 -91 
Q 1294 -91 989 -36 
Q 684 19 347 128 
L 347 722 
Q 666 556 975 473 
Q 1284 391 1588 391 
Q 1994 391 2212 530 
Q 2431 669 2431 922 
Q 2431 1156 2273 1281 
Q 2116 1406 1581 1522 
L 1381 1569 
Q 847 1681 609 1914 
Q 372 2147 372 2553 
Q 372 3047 722 3315 
Q 1072 3584 1716 3584 
Q 2034 3584 2315 3537 
Q 2597 3491 2834 3397 
z
" id="DejaVuSans-73" transform="scale(0.015625)"/>
       <path d="M 513 4856 
L 1013 4856 
Q 1481 4119 1714 3412 
Q 1947 2706 1947 2009 
Q 1947 1309 1714 600 
Q 1481 -109 1013 -844 
L 513 -844 
Q 928 -128 1133 580 
Q 1338 1288 1338 2009 
Q 1338 2731 1133 3434 
Q 928 4138 513 4856 
z
" id="DejaVuSans-29" transform="scale(0.015625)"/>
      </defs>
      <use xlink:href="#DejaVuSans-54"/>
      <use x="57.958984" xlink:href="#DejaVuSans-69"/>
      <use x="85.742188" xlink:href="#DejaVuSans-6d"/>
      <use x="183.154297" xlink:href="#DejaVuSans-65"/>
      <use x="244.677734" xlink:href="#DejaVuSans-20"/>
      <use x="276.464844" xlink:href="#DejaVuSans-28"/>
      <use x="315.478516" xlink:href="#DejaVuSans-73"/>
      <use x="367.578125" xlink:href="#DejaVuSans-29"/>
     </g>
    </g>
   </g>
   <g id="matplotlib.axis_2">
    <g id="ytick_1">
     <g id="line2d_7">
      <defs>
       <path d="M 0 0 
L 2.5 0 
" id="m7076e8b65d" style="stroke:#000000;stroke-width:0.5;"/>
      </defs>
      <g>
       <use style="stroke:#000000;stroke-width:0.5;" x="29.556396" xlink:href="#m7076e8b65d" y="250.997315"/>
      </g>
     </g>
     <g id="text_7">
      <!-- $0$ -->
      <g transform="translate(20.936396 254.03669)scale(0.08 -0.08)">
       <use transform="translate(0 0.78125)" xlink:href="#DejaVuSans-30"/>
      </g>
     </g>
    </g>
    <g id="ytick_2">
     <g id="line2d_8">
      <g>
       <use style="stroke:#000000;stroke-width:0.5;" x="29.556396" xlink:href="#m7076e8b65d" y="188.736317"/>
      </g>
     </g>
     <g id="text_8">
      <!-- $1$ -->
      <g transform="translate(20.936396 191.775692)scale(0.08 -0.08)">
       <use transform="translate(0 0.09375)" xlink:href="#DejaVuSans-31"/>
      </g>
     </g>
    </g>
    <g id="ytick_3">
     <g id="line2d_9">
      <g>
       <use style="stroke:#000000;stroke-width:0.5;" x="29.556396" xlink:href="#m7076e8b65d" y="126.475318"/>
      </g>
     </g>
     <g id="text_9">
      <!-- $2$ -->
      <g transform="translate(20.936396 129.514693)scale(0.08 -0.08)">
       <use transform="translate(0 0.78125)" xlink:href="#DejaVuSans-32"/>
      </g>
     </g>
    </g>
    <g id="ytick_4">
     <g id="line2d_10">
      <g>
       <use style="stroke:#000000;stroke-width:0.5;" x="29.556396" xlink:href="#m7076e8b65d" y="64.21432"/>
      </g>
     </g>
     <g id="text_10">
      <!-- $3$ -->
      <g transform="translate(20.936396 67.253695)scale(0.08 -0.08)">
       <defs>
        <path d="M 2597 2516 
Q 3050 2419 3304 2112 
Q 3559 1806 3559 1356 
Q 3559 666 3084 287 
Q 2609 -91 1734 -91 
Q 1441 -91 1130 -33 
Q 819 25 488 141 
L 488 750 
Q 750 597 1062 519 
Q 1375 441 1716 441 
Q 2309 441 2620 675 
Q 2931 909 2931 1356 
Q 2931 1769 2642 2001 
Q 2353 2234 1838 2234 
L 1294 2234 
L 1294 2753 
L 1863 2753 
Q 2328 2753 2575 2939 
Q 2822 3125 2822 3475 
Q 2822 3834 2567 4026 
Q 2313 4219 1838 4219 
Q 1578 4219 1281 4162 
Q 984 4106 628 3988 
L 628 4550 
Q 988 4650 1302 4700 
Q 1616 4750 1894 4750 
Q 2613 4750 3031 4423 
Q 3450 4097 3450 3541 
Q 3450 3153 3228 2886 
Q 3006 2619 2597 2516 
z
" id="DejaVuSans-33" transform="scale(0.015625)"/>
       </defs>
       <use transform="translate(0 0.78125)" xlink:href="#DejaVuSans-33"/>
      </g>
     </g>
    </g>
    <g id="text_11">
     <!-- $u_z$ ($m$) -->
     <g transform="translate(14.648739 147.635)rotate(-90)scale(0.11 -0.11)">
      <defs>
       <path d="M 428 1388 
L 838 3500 
L 1416 3500 
L 1006 1409 
Q 975 1256 961 1147 
Q 947 1038 947 966 
Q 947 700 1109 554 
Q 1272 409 1569 409 
Q 2031 409 2368 721 
Q 2706 1034 2809 1563 
L 3194 3500 
L 3769 3500 
L 3091 0 
L 2516 0 
L 2631 550 
Q 2388 244 2052 76 
Q 1716 -91 1338 -91 
Q 878 -91 622 161 
Q 366 413 366 863 
Q 366 956 381 1097 
Q 397 1238 428 1388 
z
" id="DejaVuSans-Oblique-75" transform="scale(0.015625)"/>
       <path d="M 744 3500 
L 3475 3500 
L 3372 2975 
L 738 459 
L 2913 459 
L 2822 0 
L -19 0 
L 84 525 
L 2719 3041 
L 653 3041 
L 744 3500 
z
" id="DejaVuSans-Oblique-7a" transform="scale(0.015625)"/>
       <path d="M 5747 2113 
L 5338 0 
L 4763 0 
L 5166 2094 
Q 5191 2228 5203 2325 
Q 5216 2422 5216 2491 
Q 5216 2772 5059 2928 
Q 4903 3084 4622 3084 
Q 4203 3084 3875 2770 
Q 3547 2456 3450 1953 
L 3066 0 
L 2491 0 
L 2900 2094 
Q 2925 2209 2937 2307 
Q 2950 2406 2950 2484 
Q 2950 2769 2794 2926 
Q 2638 3084 2363 3084 
Q 1938 3084 1609 2770 
Q 1281 2456 1184 1953 
L 800 0 
L 225 0 
L 909 3500 
L 1484 3500 
L 1375 2956 
Q 1609 3263 1923 3423 
Q 2238 3584 2597 3584 
Q 2978 3584 3223 3384 
Q 3469 3184 3519 2828 
Q 3781 3197 4126 3390 
Q 4472 3584 4856 3584 
Q 5306 3584 5551 3325 
Q 5797 3066 5797 2591 
Q 5797 2488 5784 2364 
Q 5772 2241 5747 2113 
z
" id="DejaVuSans-Oblique-6d" transform="scale(0.015625)"/>
      </defs>
      <use transform="translate(0 0.125)" xlink:href="#DejaVuSans-Oblique-75"/>
      <use transform="translate(63.378906 -16.28125)scale(0.7)" xlink:href="#DejaVuSans-Oblique-7a"/>
      <use transform="translate(102.856445 0.125)" xlink:href="#DejaVuSans-20"/>
      <use transform="translate(134.643555 0.125)" xlink:href="#DejaVuSans-28"/>
      <use transform="translate(173.657227 0.125)" xlink:href="#DejaVuSans-Oblique-6d"/>
      <use transform="translate(271.069336 0.125)" xlink:href="#DejaVuSans-29"/>
     </g>
    </g>
   </g>
   <g id="line2d_11">
    <path clip-path="url(#p097dd217f7)" d="M 29.556396 250.997315 
L 31.220288 250.888803 
L 32.547422 250.554811 
L 33.803256 249.998532 
L 34.971645 249.210358 
L 36.207297 248.058792 
L 37.606899 246.427597 
L 38.859192 244.642907 
L 40.177624 242.350463 
L 41.732886 239.171791 
L 43.361926 235.342724 
L 45.708891 229.120506 
L 48.272929 221.713145 
L 51.416172 211.804701 
L 56.229792 196.372225 
L 58.222974 190.772805 
L 60.133531 186.100547 
L 61.620363 182.97264 
L 62.925798 180.723148 
L 64.223848 178.928967 
L 65.529656 177.516624 
L 66.635066 176.631038 
L 67.918514 175.880112 
L 69.350542 175.307716 
L 70.576781 175.097606 
L 71.648356 175.158708 
L 72.726 175.427281 
L 73.891181 175.96734 
L 75.089386 176.840559 
L 76.313688 178.018552 
L 77.844065 179.825526 
L 79.0684 181.594982 
L 80.626422 184.237151 
L 82.555304 187.961694 
L 87.455818 197.860078 
L 89.229871 200.870955 
L 91.173712 203.677535 
L 92.817901 205.666865 
L 93.810662 206.586249 
L 94.803424 207.269892 
L 95.796185 207.715026 
L 96.794916 207.879855 
L 97.805588 207.717596 
L 98.816259 207.241425 
L 99.936144 206.376979 
L 101.056029 205.111573 
L 102.031062 203.626854 
L 103.168501 201.452666 
L 104.42058 198.550555 
L 105.820277 194.68089 
L 107.805248 188.373907 
L 111.775189 174.810958 
L 115.749508 161.645462 
L 117.805211 155.583987 
L 119.592543 150.922574 
L 121.307981 147.075192 
L 123.022349 143.774445 
L 124.265395 141.804671 
L 125.340295 140.512947 
L 126.154204 139.82429 
L 126.978519 139.398934 
L 127.832403 139.278985 
L 128.40166 139.399489 
L 129.255544 139.878434 
L 130.111761 140.698521 
L 130.969144 141.803714 
L 132.112321 143.688974 
L 133.477474 146.518182 
L 135.220682 150.806652 
L 137.17367 156.196591 
L 140.943677 166.769793 
L 142.933503 171.707985 
L 145.346373 177.010068 
L 147.431994 181.148017 
L 149.043498 183.889711 
L 150.689253 186.261728 
L 152.155936 187.943319 
L 153.65173 189.274605 
L 154.836898 190.031709 
L 155.707201 190.330651 
L 156.3696 190.359415 
L 157.031842 190.197956 
L 157.679008 189.833866 
L 158.39142 189.18177 
L 159.162411 188.137754 
L 159.890658 186.810748 
L 160.710636 184.919688 
L 161.83306 181.736089 
L 163.183873 177.163527 
L 164.759821 170.99701 
L 167.011175 161.109812 
L 170.626644 143.847803 
L 172.954522 133.519433 
L 175.18578 124.741108 
L 180.753446 104.097125 
L 182.026377 100.169666 
L 183.044721 97.636149 
L 184.087379 95.691836 
L 184.885065 94.62933 
L 185.735671 93.857635 
L 186.586302 93.427333 
L 187.396521 93.313664 
L 188.125487 93.438093 
L 188.888692 93.776179 
L 189.79729 94.447158 
L 190.751299 95.474884 
L 191.5908 96.705616 
L 192.427897 98.28818 
L 193.440779 100.69455 
L 194.734033 104.427401 
L 196.800519 111.217319 
L 199.163129 119.709823 
L 200.444601 125.103492 
L 201.629821 131.009279 
L 203.210181 140.16433 
L 207.834881 167.787177 
L 209.775694 177.51554 
L 211.570472 185.501734 
L 213.18131 191.715691 
L 214.83508 197.237946 
L 215.985019 200.336069 
L 216.833238 202.039676 
L 217.521764 203.044044 
L 218.469638 203.996529 
L 219.639421 204.781453 
L 221.538829 205.983273 
L 222.666899 206.98519 
L 224.134438 208.284058 
L 224.635177 208.491305 
L 225.135915 208.474878 
L 225.643095 208.187295 
L 226.156714 207.598509 
L 226.670333 206.704672 
L 227.440762 204.791726 
L 228.211191 202.159365 
L 228.98162 198.762676 
L 230.008859 193.101636 
L 231.806527 181.3914 
L 234.181632 164.435582 
L 236.625742 145.249503 
L 238.954396 124.982903 
L 240.868824 109.097885 
L 242.899152 94.1448 
L 244.904729 81.094297 
L 247.699029 64.084624 
L 248.806712 58.786133 
L 249.867972 54.772265 
L 251.331724 50.218413 
L 255.339267 38.338556 
L 256.538839 34.719142 
L 257.210113 33.253357 
L 257.827213 32.431866 
L 258.362263 32.153042 
L 258.816391 32.213006 
L 259.321954 32.559911 
L 259.872073 33.232171 
L 260.596494 34.540759 
L 261.385567 36.459493 
L 262.41381 39.634369 
L 263.905028 45.076894 
L 265.410919 51.264629 
L 266.746144 57.787468 
L 268.797461 69.183743 
L 271.750579 85.481506 
L 272.985217 90.82397 
L 277.688701 109.889412 
L 279.644611 118.113365 
L 280.63521 121.299157 
L 281.555208 123.472029 
L 282.547726 125.172139 
L 284.958219 128.893669 
L 285.711338 130.648865 
L 286.597003 133.31882 
L 288.23525 139.253575 
L 289.282222 142.607187 
L 289.978886 144.159307 
L 290.476269 144.807757 
L 290.889194 145.009728 
L 291.177819 144.955089 
L 291.477367 144.713935 
L 291.926689 143.975793 
L 292.396862 142.703196 
L 292.991815 140.377446 
L 293.830078 135.926414 
L 295.513539 125.11182 
L 296.935162 116.676568 
L 298.199584 110.334256 
L 301.093961 96.892068 
L 302.087233 90.442906 
L 304.896499 70.906262 
L 306.110722 64.587426 
L 307.131968 60.477218 
L 309.269101 53.176777 
L 309.899943 49.472473 
L 310.882944 41.984866 
L 312.859693 26.735762 
L 314.258862 17.687643 
L 315.127588 13.297058 
L 315.661967 11.468401 
L 316.071858 10.648573 
L 316.345118 10.408444 
L 316.627523 10.414607 
L 316.919073 10.666266 
L 317.440329 11.581375 
L 319.233686 15.380623 
L 319.772112 15.922011 
L 320.333836 16.170623 
L 321.035142 16.197989 
L 322.067837 16.000598 
L 322.603719 15.746518 
L 323.086609 15.305213 
L 323.725662 14.368094 
L 324.721833 12.876718 
L 325.099417 12.67257 
L 325.393487 12.746954 
L 325.704967 13.081392 
L 326.138742 14.017066 
L 326.691855 15.996681 
L 327.39954 19.599557 
L 328.567909 27.077879 
L 332.819004 55.125188 
L 335.227907 68.239469 
L 337.209358 80.781342 
L 338.371805 89.652057 
L 339.913397 101.452667 
L 340.986917 107.734465 
L 342.941617 117.567509 
L 344.074827 122.296052 
L 346.016128 129.572521 
L 347.04784 135.329873 
L 348.112723 140.864358 
L 348.940925 143.892236 
L 350.476065 148.353267 
L 351.216433 150.029635 
L 351.631093 150.525034 
L 351.91048 150.598222 
L 352.192423 150.438382 
L 352.590829 149.824717 
L 353.124771 148.443433 
L 354.254293 145.369636 
L 354.651854 144.869022 
L 354.981346 144.737168 
L 355.502497 144.844783 
L 356.02695 144.932956 
L 356.419894 144.742417 
L 356.889541 144.147432 
L 357.890178 142.236914 
L 358.520935 141.332123 
L 358.959341 141.102683 
L 359.312755 141.172032 
L 360.128398 141.482242 
L 360.416976 141.339993 
L 360.812576 140.777121 
L 361.22556 139.708145 
L 361.76662 137.557583 
L 363.21129 131.157081 
L 363.763901 129.944155 
L 364.705313 128.31194 
L 365.183026 126.74298 
L 365.815807 123.488362 
L 367.315001 114.821362 
L 367.954735 112.736066 
L 368.910921 109.999018 
L 369.433226 107.374216 
L 370.153617 102.108055 
L 371.363136 92.753954 
L 372.101663 88.902865 
L 372.932458 84.798138 
L 373.481935 81.03601 
L 374.380896 72.837981 
L 375.384123 64.233616 
L 376.024878 60.475255 
L 376.806077 57.291433 
L 377.806878 53.210169 
L 378.962724 48.300433 
L 379.370514 47.320371 
L 379.778303 46.878212 
L 380.050163 46.863649 
L 380.457952 47.187521 
L 381.745617 48.718556 
L 382.100977 48.657081 
L 382.464135 48.321552 
L 383.445418 47.245181 
L 384.010205 46.982769 
L 384.383724 46.986976 
L 384.776303 47.258402 
L 385.248601 47.97932 
L 385.924964 48.988814 
L 386.318845 49.208381 
L 387.296317 49.527098 
L 387.922157 50.078096 
L 388.40127 50.807678 
L 388.870561 52.090676 
L 389.637698 55.192948 
L 390.547471 58.535488 
L 391.812409 62.069494 
L 392.493459 64.347729 
L 393.078698 67.238725 
L 394.001385 73.204259 
L 395.743875 84.52688 
L 396.722569 91.166042 
L 397.5842 98.66673 
L 398.984416 111.024044 
L 399.738928 115.88444 
L 401.196285 124.137468 
L 402.0473 130.935766 
L 403.514926 143.105051 
L 404.523827 149.336239 
L 405.302954 154.701072 
L 406.349732 163.603962 
L 407.268648 170.643118 
L 407.911969 174.273525 
L 409.671864 182.398153 
L 410.771778 190.110317 
L 411.763361 195.996749 
L 412.797122 200.793387 
L 413.75703 205.440038 
L 414.876004 210.886433 
L 415.464201 212.801651 
L 415.797173 213.3385 
L 416.148759 213.511131 
L 416.505944 213.409485 
L 416.951562 213.013916 
L 417.783953 212.173461 
L 418.039022 212.126467 
L 418.422504 212.318243 
L 419.07828 212.757047 
L 419.362845 212.721279 
L 419.655003 212.422251 
L 420.145277 211.456272 
L 420.686795 209.869664 
L 421.393428 206.821188 
L 422.011898 204.493875 
L 422.361999 203.688318 
L 422.361999 203.688318 
" style="fill:none;stroke:#e36f47;"/>
   </g>
   <g id="patch_3">
    <path d="M 29.556396 258.225354 
L 29.556396 2.834646 
" style="fill:none;stroke:#000000;stroke-linecap:square;stroke-linejoin:miter;"/>
   </g>
   <g id="patch_4">
    <path d="M 29.556396 258.225354 
L 422.361999 258.225354 
" style="fill:none;stroke:#000000;stroke-linecap:square;stroke-linejoin:miter;"/>
   </g>
   <g id="legend_1">
    <g id="patch_5">
     <path d="M 299.041999 39.119646 
L 418.361999 39.119646 
L 418.361999 6.834646 
L 299.041999 6.834646 
z
" style="fill:#ffffff;stroke:#000000;stroke-linejoin:miter;"/>
    </g>
    <g id="line2d_12">
     <path d="M 305.441999 16.513396 
L 321.441999 16.513396 
" style="fill:none;stroke:#009afa;stroke-linejoin:miter;"/>
    </g>
    <g id="line2d_13"/>
    <g id="text_12">
     <!-- GXBeam -->
     <g transform="translate(327.841999 19.313396)scale(0.08 -0.08)">
      <defs>
       <path d="M 3809 666 
L 3809 1919 
L 2778 1919 
L 2778 2438 
L 4434 2438 
L 4434 434 
Q 4069 175 3628 42 
Q 3188 -91 2688 -91 
Q 1594 -91 976 548 
Q 359 1188 359 2328 
Q 359 3472 976 4111 
Q 1594 4750 2688 4750 
Q 3144 4750 3555 4637 
Q 3966 4525 4313 4306 
L 4313 3634 
Q 3963 3931 3569 4081 
Q 3175 4231 2741 4231 
Q 1884 4231 1454 3753 
Q 1025 3275 1025 2328 
Q 1025 1384 1454 906 
Q 1884 428 2741 428 
Q 3075 428 3337 486 
Q 3600 544 3809 666 
z
" id="DejaVuSans-47" transform="scale(0.015625)"/>
       <path d="M 403 4666 
L 1081 4666 
L 2241 2931 
L 3406 4666 
L 4084 4666 
L 2584 2425 
L 4184 0 
L 3506 0 
L 2194 1984 
L 872 0 
L 191 0 
L 1856 2491 
L 403 4666 
z
" id="DejaVuSans-58" transform="scale(0.015625)"/>
       <path d="M 1259 2228 
L 1259 519 
L 2272 519 
Q 2781 519 3026 730 
Q 3272 941 3272 1375 
Q 3272 1813 3026 2020 
Q 2781 2228 2272 2228 
L 1259 2228 
z
M 1259 4147 
L 1259 2741 
L 2194 2741 
Q 2656 2741 2882 2914 
Q 3109 3088 3109 3444 
Q 3109 3797 2882 3972 
Q 2656 4147 2194 4147 
L 1259 4147 
z
M 628 4666 
L 2241 4666 
Q 2963 4666 3353 4366 
Q 3744 4066 3744 3513 
Q 3744 3084 3544 2831 
Q 3344 2578 2956 2516 
Q 3422 2416 3680 2098 
Q 3938 1781 3938 1306 
Q 3938 681 3513 340 
Q 3088 0 2303 0 
L 628 0 
L 628 4666 
z
" id="DejaVuSans-42" transform="scale(0.015625)"/>
       <path d="M 2194 1759 
Q 1497 1759 1228 1600 
Q 959 1441 959 1056 
Q 959 750 1161 570 
Q 1363 391 1709 391 
Q 2188 391 2477 730 
Q 2766 1069 2766 1631 
L 2766 1759 
L 2194 1759 
z
M 3341 1997 
L 3341 0 
L 2766 0 
L 2766 531 
Q 2569 213 2275 61 
Q 1981 -91 1556 -91 
Q 1019 -91 701 211 
Q 384 513 384 1019 
Q 384 1609 779 1909 
Q 1175 2209 1959 2209 
L 2766 2209 
L 2766 2266 
Q 2766 2663 2505 2880 
Q 2244 3097 1772 3097 
Q 1472 3097 1187 3025 
Q 903 2953 641 2809 
L 641 3341 
Q 956 3463 1253 3523 
Q 1550 3584 1831 3584 
Q 2591 3584 2966 3190 
Q 3341 2797 3341 1997 
z
" id="DejaVuSans-61" transform="scale(0.015625)"/>
      </defs>
      <use xlink:href="#DejaVuSans-47"/>
      <use x="77.490234" xlink:href="#DejaVuSans-58"/>
      <use x="145.996094" xlink:href="#DejaVuSans-42"/>
      <use x="214.599609" xlink:href="#DejaVuSans-65"/>
      <use x="276.123047" xlink:href="#DejaVuSans-61"/>
      <use x="337.402344" xlink:href="#DejaVuSans-6d"/>
     </g>
    </g>
    <g id="line2d_14">
     <path d="M 305.441999 28.255896 
L 321.441999 28.255896 
" style="fill:none;stroke:#e36f47;stroke-linejoin:miter;"/>
    </g>
    <g id="line2d_15"/>
    <g id="text_13">
     <!-- DifferentialEquations -->
     <g transform="translate(327.841999 31.055896)scale(0.08 -0.08)">
      <defs>
       <path d="M 1259 4147 
L 1259 519 
L 2022 519 
Q 2988 519 3436 956 
Q 3884 1394 3884 2338 
Q 3884 3275 3436 3711 
Q 2988 4147 2022 4147 
L 1259 4147 
z
M 628 4666 
L 1925 4666 
Q 3281 4666 3915 4102 
Q 4550 3538 4550 2338 
Q 4550 1131 3912 565 
Q 3275 0 1925 0 
L 628 0 
L 628 4666 
z
" id="DejaVuSans-44" transform="scale(0.015625)"/>
       <path d="M 2375 4863 
L 2375 4384 
L 1825 4384 
Q 1516 4384 1395 4259 
Q 1275 4134 1275 3809 
L 1275 3500 
L 2222 3500 
L 2222 3053 
L 1275 3053 
L 1275 0 
L 697 0 
L 697 3053 
L 147 3053 
L 147 3500 
L 697 3500 
L 697 3744 
Q 697 4328 969 4595 
Q 1241 4863 1831 4863 
L 2375 4863 
z
" id="DejaVuSans-66" transform="scale(0.015625)"/>
       <path d="M 2631 2963 
Q 2534 3019 2420 3045 
Q 2306 3072 2169 3072 
Q 1681 3072 1420 2755 
Q 1159 2438 1159 1844 
L 1159 0 
L 581 0 
L 581 3500 
L 1159 3500 
L 1159 2956 
Q 1341 3275 1631 3429 
Q 1922 3584 2338 3584 
Q 2397 3584 2469 3576 
Q 2541 3569 2628 3553 
L 2631 2963 
z
" id="DejaVuSans-72" transform="scale(0.015625)"/>
       <path d="M 3513 2113 
L 3513 0 
L 2938 0 
L 2938 2094 
Q 2938 2591 2744 2837 
Q 2550 3084 2163 3084 
Q 1697 3084 1428 2787 
Q 1159 2491 1159 1978 
L 1159 0 
L 581 0 
L 581 3500 
L 1159 3500 
L 1159 2956 
Q 1366 3272 1645 3428 
Q 1925 3584 2291 3584 
Q 2894 3584 3203 3211 
Q 3513 2838 3513 2113 
z
" id="DejaVuSans-6e" transform="scale(0.015625)"/>
       <path d="M 1172 4494 
L 1172 3500 
L 2356 3500 
L 2356 3053 
L 1172 3053 
L 1172 1153 
Q 1172 725 1289 603 
Q 1406 481 1766 481 
L 2356 481 
L 2356 0 
L 1766 0 
Q 1100 0 847 248 
Q 594 497 594 1153 
L 594 3053 
L 172 3053 
L 172 3500 
L 594 3500 
L 594 4494 
L 1172 4494 
z
" id="DejaVuSans-74" transform="scale(0.015625)"/>
       <path d="M 603 4863 
L 1178 4863 
L 1178 0 
L 603 0 
L 603 4863 
z
" id="DejaVuSans-6c" transform="scale(0.015625)"/>
       <path d="M 628 4666 
L 3578 4666 
L 3578 4134 
L 1259 4134 
L 1259 2753 
L 3481 2753 
L 3481 2222 
L 1259 2222 
L 1259 531 
L 3634 531 
L 3634 0 
L 628 0 
L 628 4666 
z
" id="DejaVuSans-45" transform="scale(0.015625)"/>
       <path d="M 947 1747 
Q 947 1113 1208 752 
Q 1469 391 1925 391 
Q 2381 391 2643 752 
Q 2906 1113 2906 1747 
Q 2906 2381 2643 2742 
Q 2381 3103 1925 3103 
Q 1469 3103 1208 2742 
Q 947 2381 947 1747 
z
M 2906 525 
Q 2725 213 2448 61 
Q 2172 -91 1784 -91 
Q 1150 -91 751 415 
Q 353 922 353 1747 
Q 353 2572 751 3078 
Q 1150 3584 1784 3584 
Q 2172 3584 2448 3432 
Q 2725 3281 2906 2969 
L 2906 3500 
L 3481 3500 
L 3481 -1331 
L 2906 -1331 
L 2906 525 
z
" id="DejaVuSans-71" transform="scale(0.015625)"/>
       <path d="M 544 1381 
L 544 3500 
L 1119 3500 
L 1119 1403 
Q 1119 906 1312 657 
Q 1506 409 1894 409 
Q 2359 409 2629 706 
Q 2900 1003 2900 1516 
L 2900 3500 
L 3475 3500 
L 3475 0 
L 2900 0 
L 2900 538 
Q 2691 219 2414 64 
Q 2138 -91 1772 -91 
Q 1169 -91 856 284 
Q 544 659 544 1381 
z
M 1991 3584 
L 1991 3584 
z
" id="DejaVuSans-75" transform="scale(0.015625)"/>
       <path d="M 1959 3097 
Q 1497 3097 1228 2736 
Q 959 2375 959 1747 
Q 959 1119 1226 758 
Q 1494 397 1959 397 
Q 2419 397 2687 759 
Q 2956 1122 2956 1747 
Q 2956 2369 2687 2733 
Q 2419 3097 1959 3097 
z
M 1959 3584 
Q 2709 3584 3137 3096 
Q 3566 2609 3566 1747 
Q 3566 888 3137 398 
Q 2709 -91 1959 -91 
Q 1206 -91 779 398 
Q 353 888 353 1747 
Q 353 2609 779 3096 
Q 1206 3584 1959 3584 
z
" id="DejaVuSans-6f" transform="scale(0.015625)"/>
      </defs>
      <use xlink:href="#DejaVuSans-44"/>
      <use x="77.001953" xlink:href="#DejaVuSans-69"/>
      <use x="104.785156" xlink:href="#DejaVuSans-66"/>
      <use x="139.990234" xlink:href="#DejaVuSans-66"/>
      <use x="175.195312" xlink:href="#DejaVuSans-65"/>
      <use x="236.71875" xlink:href="#DejaVuSans-72"/>
      <use x="275.582031" xlink:href="#DejaVuSans-65"/>
      <use x="337.105469" xlink:href="#DejaVuSans-6e"/>
      <use x="400.484375" xlink:href="#DejaVuSans-74"/>
      <use x="439.693359" xlink:href="#DejaVuSans-69"/>
      <use x="467.476562" xlink:href="#DejaVuSans-61"/>
      <use x="528.755859" xlink:href="#DejaVuSans-6c"/>
      <use x="556.539062" xlink:href="#DejaVuSans-45"/>
      <use x="619.722656" xlink:href="#DejaVuSans-71"/>
      <use x="683.199219" xlink:href="#DejaVuSans-75"/>
      <use x="746.578125" xlink:href="#DejaVuSans-61"/>
      <use x="807.857422" xlink:href="#DejaVuSans-74"/>
      <use x="847.066406" xlink:href="#DejaVuSans-69"/>
      <use x="874.849609" xlink:href="#DejaVuSans-6f"/>
      <use x="936.03125" xlink:href="#DejaVuSans-6e"/>
      <use x="999.410156" xlink:href="#DejaVuSans-73"/>
     </g>
    </g>
   </g>
  </g>
 </g>
 <defs>
  <clipPath id="p097dd217f7">
   <rect height="255.390709" width="392.805604" x="29.556396" y="2.834646"/>
  </clipPath>
 </defs>
</svg>
