<?xml version="1.0" encoding="utf-8" standalone="no"?>
<!DOCTYPE svg PUBLIC "-//W3C//DTD SVG 1.1//EN"
  "http://www.w3.org/Graphics/SVG/1.1/DTD/svg11.dtd">
<svg xmlns:xlink="http://www.w3.org/1999/xlink" width="432pt" height="288pt" viewBox="0 0 432 288" xmlns="http://www.w3.org/2000/svg" version="1.1">
 <metadata>
  <rdf:RDF xmlns:dc="http://purl.org/dc/elements/1.1/" xmlns:cc="http://creativecommons.org/ns#" xmlns:rdf="http://www.w3.org/1999/02/22-rdf-syntax-ns#">
   <cc:Work>
    <dc:type rdf:resource="http://purl.org/dc/dcmitype/StillImage"/>
    <dc:date>2023-04-05T00:58:26.643863</dc:date>
    <dc:format>image/svg+xml</dc:format>
    <dc:creator>
     <cc:Agent>
      <dc:title>Matplotlib v3.7.1, https://matplotlib.org/</dc:title>
     </cc:Agent>
    </dc:creator>
   </cc:Work>
  </rdf:RDF>
 </metadata>
 <defs>
  <style type="text/css">*{stroke-linejoin: round; stroke-linecap: butt}</style>
 </defs>
 <g id="figure_1">
  <g id="patch_1">
   <path d="M 0 288 
L 432 288 
L 432 0 
L 0 0 
z
" style="fill: #ffffff"/>
  </g>
  <g id="axes_1">
   <g id="patch_2">
    <path d="M 64.557544 258.225354 
L 422.361999 258.225354 
L 422.361999 2.834646 
L 64.557544 2.834646 
z
" style="fill: #ffffff"/>
   </g>
   <g id="line2d_1">
    <path d="M 64.557544 149.138491 
L 71.713633 149.258596 
L 72.965948 149.282442 
L 74.754971 149.339298 
L 76.365091 149.218298 
L 80.479842 148.985931 
L 83.878984 148.845518 
L 86.920322 148.944488 
L 87.814833 148.895924 
L 89.067149 149.047425 
L 90.140562 149.386918 
L 91.213976 149.87436 
L 92.466291 150.88415 
L 94.970922 153.053495 
L 96.223238 153.906106 
L 96.938847 154.269618 
L 98.01226 154.358989 
L 98.548967 154.120479 
L 99.264576 153.668988 
L 100.159087 152.626036 
L 100.695794 151.777709 
L 101.948109 149.181264 
L 103.558229 144.762608 
L 107.494078 134.413877 
L 108.925296 131.746382 
L 109.99871 130.120376 
L 111.072123 128.907018 
L 111.787732 128.520974 
L 112.324439 128.44472 
L 112.861145 128.624834 
L 113.397852 129.016942 
L 113.934559 129.725409 
L 114.650168 130.998869 
L 115.365776 132.824031 
L 116.260288 135.974947 
L 117.333701 140.772715 
L 118.407114 146.721134 
L 119.838332 156.012027 
L 121.985159 170.40645 
L 123.058572 176.269146 
L 123.953083 179.96981 
L 124.668692 181.903509 
L 125.205399 182.67019 
L 125.563203 182.934883 
L 125.921008 182.959621 
L 126.278812 182.781041 
L 126.636617 182.40374 
L 127.173323 181.435443 
L 127.888932 179.645307 
L 128.783444 176.587674 
L 132.898195 160.675832 
L 133.792706 158.362743 
L 134.866119 156.242857 
L 136.655142 152.482876 
L 137.728555 149.593927 
L 138.623066 146.700923 
L 140.412088 139.685151 
L 142.022208 133.718241 
L 142.91672 131.194204 
L 143.632328 129.784591 
L 144.169035 129.224025 
L 144.52684 129.123487 
L 144.884644 129.240851 
L 145.242448 129.569222 
L 145.600253 130.153222 
L 146.13696 131.482199 
L 146.852569 133.814082 
L 149.536102 143.794912 
L 150.251711 145.650525 
L 150.788418 146.51213 
L 151.325124 146.999112 
L 151.861831 147.106941 
L 152.398538 147.058045 
L 152.935244 146.789348 
L 153.829755 146.068274 
L 154.724267 145.169708 
L 156.334387 143.50485 
L 157.228898 142.952874 
L 159.196822 142.123136 
L 160.091333 141.489445 
L 160.62804 140.802061 
L 161.343649 139.441225 
L 162.059258 137.423905 
L 162.774867 134.889314 
L 164.563889 126.709731 
L 165.995107 120.445626 
L 166.710716 118.226538 
L 167.247422 117.044316 
L 167.784129 116.514142 
L 168.141934 116.467083 
L 168.499738 116.854042 
L 169.036445 118.029123 
L 169.394249 119.298049 
L 170.109858 123.062202 
L 170.825467 128.259979 
L 171.719978 136.338382 
L 174.940218 167.605732 
L 176.192534 176.23762 
L 177.623752 184.605359 
L 180.486187 199.261127 
L 181.201796 201.779423 
L 181.738503 203.116346 
L 182.27521 203.78252 
L 182.633014 203.92644 
L 182.990819 203.73063 
L 183.348623 203.304016 
L 183.706427 202.530592 
L 184.422036 200.189873 
L 184.958743 197.564745 
L 185.853254 191.99727 
L 188.894592 170.947159 
L 189.789103 166.064482 
L 190.504712 162.993374 
L 191.220321 160.797745 
L 192.472637 158.406107 
L 193.009343 157.408411 
L 193.903854 155.049591 
L 194.619463 152.072385 
L 195.15617 148.82527 
L 195.871779 143.03837 
L 196.945192 131.187883 
L 198.37641 114.423271 
L 199.092019 108.481553 
L 199.628726 105.885371 
L 199.98653 105.155749 
L 200.165432 105.12567 
L 200.344335 105.371255 
L 200.702139 106.700341 
L 201.059944 109.063687 
L 201.59665 114.553143 
L 202.133357 122.292677 
L 203.027868 139.231441 
L 204.637988 171.861422 
L 205.353597 181.498345 
L 205.711401 184.334544 
L 206.069206 185.710334 
L 206.248108 185.903276 
L 206.42701 185.75098 
L 206.605913 185.204905 
L 206.963717 183.012457 
L 207.500424 177.774994 
L 208.216033 167.778257 
L 209.826153 144.407467 
L 210.541762 137.48334 
L 211.257371 133.024902 
L 212.151882 129.439742 
L 213.225295 126.27598 
L 214.119806 124.172585 
L 215.551024 121.12051 
L 216.266633 118.724972 
L 216.982242 115.43771 
L 217.876753 109.995253 
L 218.950166 101.719784 
L 220.02358 93.771342 
L 220.560286 91.419938 
L 220.918091 90.837266 
L 221.096993 90.930616 
L 221.275895 91.301124 
L 221.6337 92.815905 
L 221.991504 95.357817 
L 222.528211 101.218494 
L 223.422722 114.254992 
L 224.85394 135.39423 
L 225.569549 142.618801 
L 225.927353 144.836626 
L 226.285158 146.048166 
L 226.46406 146.342446 
L 226.642962 146.409826 
L 226.821864 146.244593 
L 227.179669 145.275015 
L 227.895278 142.269744 
L 228.431984 140.050959 
L 228.789789 139.352075 
L 228.968691 139.281181 
L 229.147593 139.405326 
L 229.326496 139.776565 
L 229.6843 141.352681 
L 230.221007 145.421903 
L 230.757713 151.498508 
L 231.652224 164.662878 
L 235.588073 229.341017 
L 236.303682 237.32992 
L 236.661487 239.957115 
L 237.019291 241.341075 
L 237.198194 241.593384 
L 237.377096 241.491051 
L 237.555998 240.986353 
L 237.913802 238.695252 
L 238.450509 232.55819 
L 238.987216 223.164589 
L 240.060629 199.191266 
L 240.95514 180.864396 
L 241.491847 173.559399 
L 241.849651 170.697312 
L 242.207456 169.384214 
L 242.386358 169.230569 
L 242.56526 169.400289 
L 242.923065 170.661023 
L 243.459771 173.903906 
L 244.354283 179.872852 
L 244.712087 181.292358 
L 245.069892 181.910477 
L 245.248794 181.794199 
L 245.606598 180.739126 
L 246.143305 177.713231 
L 247.037816 170.171391 
L 247.753425 164.809743 
L 248.111229 163.287341 
L 248.290132 162.954983 
L 248.469034 162.95971 
L 248.647936 163.333505 
L 249.005741 165.307166 
L 249.363545 168.951901 
L 249.900252 176.938233 
L 251.33147 200.016876 
L 251.868176 204.919139 
L 252.225981 206.592125 
L 252.583785 207.392209 
L 252.762687 207.457935 
L 252.94159 207.277379 
L 253.299394 206.275778 
L 253.657198 204.496102 
L 254.015003 201.334066 
L 254.55171 193.720745 
L 255.088416 182.424387 
L 255.982927 157.455852 
L 257.414145 109.264555 
L 259.739874 27.549976 
L 260.276581 16.722064 
L 260.634385 12.455126 
L 260.99219 10.632886 
L 261.171092 10.602123 
L 261.349994 11.180597 
L 261.707799 14.204991 
L 262.244505 22.52974 
L 262.960114 39.304251 
L 264.749137 85.898251 
L 265.285843 93.158155 
L 265.643648 95.090022 
L 265.82255 95.186848 
L 266.001452 94.735492 
L 266.359257 92.565709 
L 267.074866 85.39202 
L 267.611572 80.694162 
L 267.969377 79.047573 
L 268.148279 78.847063 
L 268.327181 79.119621 
L 268.684986 80.921111 
L 269.04279 84.255343 
L 269.579497 92.54758 
L 270.116203 104.391294 
L 270.831812 126.487296 
L 271.726323 162.08033 
L 273.336444 226.492741 
L 273.87315 240.88638 
L 274.409857 249.112854 
L 274.767661 250.997315 
L 274.946564 250.777717 
L 275.125466 249.87986 
L 275.48327 246.254181 
L 275.841075 240.257549 
L 276.377781 227.271062 
L 277.272293 198.430143 
L 278.70351 151.884299 
L 279.598021 130.413394 
L 280.31363 118.389479 
L 280.850337 112.179086 
L 281.565946 106.278392 
L 282.102653 103.047052 
L 282.460457 101.647877 
L 282.639359 101.264071 
L 282.818262 101.186586 
L 282.997164 101.46844 
L 283.354968 103.250014 
L 283.712773 106.787557 
L 284.249479 115.233666 
L 286.396306 154.268606 
L 286.754111 157.565721 
L 287.111915 159.280092 
L 287.290817 159.536086 
L 287.46972 159.371374 
L 287.648622 158.728863 
L 288.006426 155.96091 
L 288.364231 151.338464 
L 288.900937 141.11814 
L 290.153253 109.894096 
L 291.047764 89.857186 
L 291.763373 77.946923 
L 292.30008 72.501879 
L 292.657884 70.944306 
L 292.836786 70.950804 
L 293.015689 71.51341 
L 293.373493 74.243569 
L 293.731297 79.461163 
L 294.268004 92.186204 
L 294.804711 110.063756 
L 296.057026 163.242282 
L 296.951538 197.985694 
L 297.488244 212.567613 
L 297.846049 218.836045 
L 298.203853 221.958582 
L 298.382755 222.422227 
L 298.561658 222.266433 
L 298.74056 221.51798 
L 299.098364 218.438599 
L 299.813973 208.665322 
L 300.708484 196.482112 
L 301.245191 192.254199 
L 301.424093 191.656312 
L 301.602996 191.530789 
L 301.781898 191.822652 
L 301.9608 192.522667 
L 302.318604 195.308365 
L 302.855311 202.708555 
L 304.465431 228.699708 
L 304.644333 229.724317 
L 304.823236 230.011046 
L 305.002138 229.557295 
L 305.359942 226.833792 
L 305.717747 222.043917 
L 306.970062 201.066108 
L 307.327867 198.277208 
L 307.506769 197.861399 
L 307.685671 198.012201 
L 307.864573 198.627988 
L 308.222378 200.976111 
L 308.937987 206.1846 
L 309.116889 206.761326 
L 309.295791 206.897194 
L 309.474694 206.465186 
L 309.832498 203.590164 
L 310.190302 198.235577 
L 310.727009 186.624891 
L 312.694934 139.06313 
L 313.23164 130.935546 
L 313.410543 129.721676 
L 313.589445 129.430129 
L 313.768347 130.179415 
L 313.947249 132.100676 
L 314.305054 139.995506 
L 314.662858 153.398054 
L 315.199565 182.043133 
L 316.094076 233.556255 
L 316.45188 245.81233 
L 316.630783 248.871384 
L 316.809685 249.725072 
L 316.988587 248.457765 
L 317.346392 240.2962 
L 317.883098 218.259538 
L 319.493218 145.281102 
L 320.387729 116.210934 
L 321.103338 99.754961 
L 321.818947 88.566825 
L 322.355654 82.640699 
L 322.713458 80.272531 
L 323.071263 79.296136 
L 323.250165 79.53002 
L 323.429067 80.331927 
L 323.786872 83.440296 
L 324.323578 90.551281 
L 325.21809 106.395751 
L 325.933698 123.618844 
L 327.007112 156.178648 
L 327.722721 174.862804 
L 328.259427 182.45932 
L 328.796134 186.506624 
L 329.332841 188.865338 
L 329.511743 189.250956 
L 329.690645 189.245003 
L 329.869547 188.70847 
L 330.227352 185.952241 
L 330.585156 180.80834 
L 331.121863 168.689746 
L 332.731983 128.172573 
L 333.089788 123.792683 
L 333.26869 123.474764 
L 333.447592 124.595808 
L 333.805397 131.029933 
L 335.236614 167.757472 
L 335.773321 173.343239 
L 337.025637 183.312878 
L 337.741246 187.990028 
L 337.920148 188.633981 
L 338.09905 188.812869 
L 338.277952 188.352719 
L 338.456854 187.09606 
L 338.814659 181.910106 
L 339.530268 165.212307 
L 340.603681 139.670769 
L 340.961486 134.381011 
L 341.140388 133.373771 
L 341.31929 133.716986 
L 341.498192 135.491708 
L 341.855997 143.157323 
L 343.108312 178.47667 
L 343.466117 182.862905 
L 343.645019 183.91798 
L 343.823921 184.207794 
L 344.002823 183.620153 
L 344.181726 182.104281 
L 344.53953 176.156909 
L 345.255139 156.412856 
L 345.970748 137.802442 
L 346.865259 121.60198 
L 347.223064 117.022076 
L 347.401966 115.85239 
L 347.580868 115.708575 
L 347.75977 116.74799 
L 348.117575 122.302548 
L 348.654281 137.237841 
L 349.727695 169.655433 
L 350.085499 175.248809 
L 350.264401 176.410723 
L 350.443304 176.464431 
L 350.622206 175.408324 
L 350.98001 169.970391 
L 351.516717 154.446525 
L 352.947935 100.648657 
L 353.842446 66.079957 
L 354.20025 57.978029 
L 354.558055 53.519525 
L 354.915859 51.954559 
L 355.094762 52.103833 
L 355.273664 52.865648 
L 355.631468 56.447409 
L 356.168175 66.854063 
L 356.883784 81.348214 
L 357.241588 83.918074 
L 357.420491 83.796766 
L 357.778295 81.836322 
L 358.136099 80.213757 
L 358.315002 80.434535 
L 358.493904 81.480434 
L 358.851708 85.581953 
L 359.388415 94.609083 
L 359.925122 106.903983 
L 360.461828 125.602923 
L 361.177437 152.699106 
L 361.535242 161.036564 
L 361.893046 164.142918 
L 362.071948 164.130176 
L 362.429753 162.711131 
L 363.145362 159.346981 
L 363.503166 155.261695 
L 363.860971 146.539875 
L 364.934384 111.157886 
L 365.292189 106.558474 
L 365.471091 105.999082 
L 365.649993 106.415106 
L 366.007797 109.495297 
L 366.365602 115.069671 
L 366.723406 123.791809 
L 367.260113 143.882519 
L 369.228038 232.873451 
L 369.585842 239.041196 
L 369.764744 240.130053 
L 369.943647 240.149899 
L 370.122549 239.3132 
L 370.480353 235.564345 
L 371.01706 226.627775 
L 371.553767 214.080646 
L 372.090473 195.049746 
L 373.521691 131.779634 
L 374.2373 119.140328 
L 374.952909 107.716242 
L 375.131811 106.115502 
L 375.310713 105.703135 
L 375.489616 106.615033 
L 375.84742 111.72089 
L 376.384127 119.619193 
L 376.741931 121.547867 
L 377.099736 123.550134 
L 377.45754 127.987372 
L 378.173149 138.027284 
L 378.352051 138.451874 
L 378.888758 136.655628 
L 379.06766 137.766603 
L 379.246562 140.835296 
L 379.604367 152.360703 
L 380.319976 178.680344 
L 380.67778 183.423285 
L 380.856682 183.790412 
L 381.393389 183.053512 
L 381.572291 182.729738 
L 381.751194 182.055599 
L 381.930096 180.751912 
L 382.2879 175.451503 
L 382.824607 165.006555 
L 383.003509 163.857191 
L 383.182411 164.672534 
L 384.076922 175.437846 
L 384.255825 174.744192 
L 384.613629 170.340273 
L 384.971434 165.677417 
L 385.329238 163.948773 
L 385.50814 163.566838 
L 385.687043 162.819058 
L 386.044847 159.306701 
L 386.939358 144.975662 
L 387.11826 144.982753 
L 387.297163 146.295666 
L 387.654967 151.280274 
L 388.72838 169.103932 
L 389.265087 174.955947 
L 390.159598 187.665637 
L 390.3385 188.115285 
L 390.517403 187.007608 
L 390.875207 180.33173 
L 391.411914 162.635393 
L 392.127523 139.639852 
L 392.843132 123.115151 
L 393.379838 114.52536 
L 394.095447 104.861922 
L 395.526665 75.19073 
L 395.705567 75.024368 
L 396.063372 77.27776 
L 396.421176 81.429111 
L 396.778981 89.668225 
L 397.315687 111.913216 
L 398.031296 142.253172 
L 398.389101 148.356527 
L 398.568003 149.453238 
L 398.746905 149.285902 
L 398.925807 147.922678 
L 399.283612 141.640689 
L 399.999221 127.562011 
L 400.178123 127.005153 
L 400.357025 128.222708 
L 401.251536 138.899028 
L 401.967145 141.865772 
L 402.146047 142.32723 
L 402.32495 142.339221 
L 402.503852 141.916363 
L 403.219461 138.111741 
L 403.577265 134.627378 
L 404.113972 128.066 
L 404.292874 128.524637 
L 405.008483 137.171254 
L 405.187385 136.710005 
L 405.724092 132.686934 
L 405.902994 133.643625 
L 406.260799 139.955631 
L 406.797505 148.882011 
L 407.15531 151.819662 
L 407.513114 152.99908 
L 407.692017 154.048472 
L 407.870919 156.256026 
L 408.228723 165.839715 
L 408.944332 196.997098 
L 409.481039 218.784155 
L 410.554452 246.669336 
L 410.733354 248.139972 
L 410.912257 247.236865 
L 411.270061 239.662311 
L 411.98567 218.282556 
L 413.059083 194.159059 
L 413.416888 183.177104 
L 415.027008 108.060274 
L 415.384812 98.949461 
L 415.563715 97.072128 
L 415.742617 96.658547 
L 415.921519 97.1875 
L 416.279323 101.184322 
L 416.81603 112.870838 
L 417.531639 129.302279 
L 417.710541 129.727033 
L 418.068346 128.798146 
L 418.247248 129.926962 
L 418.783955 136.110211 
L 418.962857 136.246235 
L 419.141759 136.114909 
L 419.320661 136.65629 
L 419.678466 137.924603 
L 419.857368 136.820472 
L 420.394075 131.356136 
L 420.572977 131.102894 
L 421.109684 132.112762 
L 421.288586 132.039961 
L 421.467488 131.480559 
L 421.64639 129.956106 
L 422.004195 123.75918 
L 422.361999 116.761267 
L 422.361999 116.761267 
" clip-path="url(#p1c69faf8ed)" style="fill: none; stroke: #009afa"/>
   </g>
   <g id="matplotlib.axis_1">
    <g id="xtick_1">
     <g id="line2d_2">
      <defs>
       <path id="m638c430a71" d="M 0 0 
L 0 -2.5 
" style="stroke: #000000; stroke-width: 0.5"/>
      </defs>
      <g>
       <use xlink:href="#m638c430a71" x="64.557544" y="258.225354" style="stroke: #000000; stroke-width: 0.5"/>
      </g>
     </g>
     <g id="text_1">
      <!-- $0.0$ -->
      <g transform="translate(58.157544 267.804104) scale(0.08 -0.08)">
       <defs>
        <path id="DejaVuSans-30" d="M 2034 4250 
Q 1547 4250 1301 3770 
Q 1056 3291 1056 2328 
Q 1056 1369 1301 889 
Q 1547 409 2034 409 
Q 2525 409 2770 889 
Q 3016 1369 3016 2328 
Q 3016 3291 2770 3770 
Q 2525 4250 2034 4250 
z
M 2034 4750 
Q 2819 4750 3233 4129 
Q 3647 3509 3647 2328 
Q 3647 1150 3233 529 
Q 2819 -91 2034 -91 
Q 1250 -91 836 529 
Q 422 1150 422 2328 
Q 422 3509 836 4129 
Q 1250 4750 2034 4750 
z
" transform="scale(0.015625)"/>
        <path id="DejaVuSans-2e" d="M 684 794 
L 1344 794 
L 1344 0 
L 684 0 
L 684 794 
z
" transform="scale(0.015625)"/>
       </defs>
       <use xlink:href="#DejaVuSans-30" transform="translate(0 0.78125)"/>
       <use xlink:href="#DejaVuSans-2e" transform="translate(63.623047 0.78125)"/>
       <use xlink:href="#DejaVuSans-30" transform="translate(95.410156 0.78125)"/>
      </g>
     </g>
    </g>
    <g id="xtick_2">
     <g id="line2d_3">
      <g>
       <use xlink:href="#m638c430a71" x="154.008658" y="258.225354" style="stroke: #000000; stroke-width: 0.5"/>
      </g>
     </g>
     <g id="text_2">
      <!-- $0.5$ -->
      <g transform="translate(147.608658 267.804104) scale(0.08 -0.08)">
       <defs>
        <path id="DejaVuSans-35" d="M 691 4666 
L 3169 4666 
L 3169 4134 
L 1269 4134 
L 1269 2991 
Q 1406 3038 1543 3061 
Q 1681 3084 1819 3084 
Q 2600 3084 3056 2656 
Q 3513 2228 3513 1497 
Q 3513 744 3044 326 
Q 2575 -91 1722 -91 
Q 1428 -91 1123 -41 
Q 819 9 494 109 
L 494 744 
Q 775 591 1075 516 
Q 1375 441 1709 441 
Q 2250 441 2565 725 
Q 2881 1009 2881 1497 
Q 2881 1984 2565 2268 
Q 2250 2553 1709 2553 
Q 1456 2553 1204 2497 
Q 953 2441 691 2322 
L 691 4666 
z
" transform="scale(0.015625)"/>
       </defs>
       <use xlink:href="#DejaVuSans-30" transform="translate(0 0.78125)"/>
       <use xlink:href="#DejaVuSans-2e" transform="translate(63.623047 0.78125)"/>
       <use xlink:href="#DejaVuSans-35" transform="translate(95.410156 0.78125)"/>
      </g>
     </g>
    </g>
    <g id="xtick_3">
     <g id="line2d_4">
      <g>
       <use xlink:href="#m638c430a71" x="243.459771" y="258.225354" style="stroke: #000000; stroke-width: 0.5"/>
      </g>
     </g>
     <g id="text_3">
      <!-- $1.0$ -->
      <g transform="translate(237.059771 267.804104) scale(0.08 -0.08)">
       <defs>
        <path id="DejaVuSans-31" d="M 794 531 
L 1825 531 
L 1825 4091 
L 703 3866 
L 703 4441 
L 1819 4666 
L 2450 4666 
L 2450 531 
L 3481 531 
L 3481 0 
L 794 0 
L 794 531 
z
" transform="scale(0.015625)"/>
       </defs>
       <use xlink:href="#DejaVuSans-31" transform="translate(0 0.78125)"/>
       <use xlink:href="#DejaVuSans-2e" transform="translate(63.623047 0.78125)"/>
       <use xlink:href="#DejaVuSans-30" transform="translate(95.410156 0.78125)"/>
      </g>
     </g>
    </g>
    <g id="xtick_4">
     <g id="line2d_5">
      <g>
       <use xlink:href="#m638c430a71" x="332.910885" y="258.225354" style="stroke: #000000; stroke-width: 0.5"/>
      </g>
     </g>
     <g id="text_4">
      <!-- $1.5$ -->
      <g transform="translate(326.510885 267.804104) scale(0.08 -0.08)">
       <use xlink:href="#DejaVuSans-31" transform="translate(0 0.09375)"/>
       <use xlink:href="#DejaVuSans-2e" transform="translate(63.623047 0.09375)"/>
       <use xlink:href="#DejaVuSans-35" transform="translate(95.410156 0.09375)"/>
      </g>
     </g>
    </g>
    <g id="xtick_5">
     <g id="line2d_6">
      <g>
       <use xlink:href="#m638c430a71" x="422.361999" y="258.225354" style="stroke: #000000; stroke-width: 0.5"/>
      </g>
     </g>
     <g id="text_5">
      <!-- $2.0$ -->
      <g transform="translate(415.961999 267.804104) scale(0.08 -0.08)">
       <defs>
        <path id="DejaVuSans-32" d="M 1228 531 
L 3431 531 
L 3431 0 
L 469 0 
L 469 531 
Q 828 903 1448 1529 
Q 2069 2156 2228 2338 
Q 2531 2678 2651 2914 
Q 2772 3150 2772 3378 
Q 2772 3750 2511 3984 
Q 2250 4219 1831 4219 
Q 1534 4219 1204 4116 
Q 875 4013 500 3803 
L 500 4441 
Q 881 4594 1212 4672 
Q 1544 4750 1819 4750 
Q 2544 4750 2975 4387 
Q 3406 4025 3406 3419 
Q 3406 3131 3298 2873 
Q 3191 2616 2906 2266 
Q 2828 2175 2409 1742 
Q 1991 1309 1228 531 
z
" transform="scale(0.015625)"/>
       </defs>
       <use xlink:href="#DejaVuSans-32" transform="translate(0 0.78125)"/>
       <use xlink:href="#DejaVuSans-2e" transform="translate(63.623047 0.78125)"/>
       <use xlink:href="#DejaVuSans-30" transform="translate(95.410156 0.78125)"/>
      </g>
     </g>
    </g>
    <g id="text_6">
     <!-- Time (s) -->
     <g transform="translate(221.097975 281.826136) scale(0.11 -0.11)">
      <defs>
       <path id="DejaVuSans-54" d="M -19 4666 
L 3928 4666 
L 3928 4134 
L 2272 4134 
L 2272 0 
L 1638 0 
L 1638 4134 
L -19 4134 
L -19 4666 
z
" transform="scale(0.015625)"/>
       <path id="DejaVuSans-69" d="M 603 3500 
L 1178 3500 
L 1178 0 
L 603 0 
L 603 3500 
z
M 603 4863 
L 1178 4863 
L 1178 4134 
L 603 4134 
L 603 4863 
z
" transform="scale(0.015625)"/>
       <path id="DejaVuSans-6d" d="M 3328 2828 
Q 3544 3216 3844 3400 
Q 4144 3584 4550 3584 
Q 5097 3584 5394 3201 
Q 5691 2819 5691 2113 
L 5691 0 
L 5113 0 
L 5113 2094 
Q 5113 2597 4934 2840 
Q 4756 3084 4391 3084 
Q 3944 3084 3684 2787 
Q 3425 2491 3425 1978 
L 3425 0 
L 2847 0 
L 2847 2094 
Q 2847 2600 2669 2842 
Q 2491 3084 2119 3084 
Q 1678 3084 1418 2786 
Q 1159 2488 1159 1978 
L 1159 0 
L 581 0 
L 581 3500 
L 1159 3500 
L 1159 2956 
Q 1356 3278 1631 3431 
Q 1906 3584 2284 3584 
Q 2666 3584 2933 3390 
Q 3200 3197 3328 2828 
z
" transform="scale(0.015625)"/>
       <path id="DejaVuSans-65" d="M 3597 1894 
L 3597 1613 
L 953 1613 
Q 991 1019 1311 708 
Q 1631 397 2203 397 
Q 2534 397 2845 478 
Q 3156 559 3463 722 
L 3463 178 
Q 3153 47 2828 -22 
Q 2503 -91 2169 -91 
Q 1331 -91 842 396 
Q 353 884 353 1716 
Q 353 2575 817 3079 
Q 1281 3584 2069 3584 
Q 2775 3584 3186 3129 
Q 3597 2675 3597 1894 
z
M 3022 2063 
Q 3016 2534 2758 2815 
Q 2500 3097 2075 3097 
Q 1594 3097 1305 2825 
Q 1016 2553 972 2059 
L 3022 2063 
z
" transform="scale(0.015625)"/>
       <path id="DejaVuSans-20" transform="scale(0.015625)"/>
       <path id="DejaVuSans-28" d="M 1984 4856 
Q 1566 4138 1362 3434 
Q 1159 2731 1159 2009 
Q 1159 1288 1364 580 
Q 1569 -128 1984 -844 
L 1484 -844 
Q 1016 -109 783 600 
Q 550 1309 550 2009 
Q 550 2706 781 3412 
Q 1013 4119 1484 4856 
L 1984 4856 
z
" transform="scale(0.015625)"/>
       <path id="DejaVuSans-73" d="M 2834 3397 
L 2834 2853 
Q 2591 2978 2328 3040 
Q 2066 3103 1784 3103 
Q 1356 3103 1142 2972 
Q 928 2841 928 2578 
Q 928 2378 1081 2264 
Q 1234 2150 1697 2047 
L 1894 2003 
Q 2506 1872 2764 1633 
Q 3022 1394 3022 966 
Q 3022 478 2636 193 
Q 2250 -91 1575 -91 
Q 1294 -91 989 -36 
Q 684 19 347 128 
L 347 722 
Q 666 556 975 473 
Q 1284 391 1588 391 
Q 1994 391 2212 530 
Q 2431 669 2431 922 
Q 2431 1156 2273 1281 
Q 2116 1406 1581 1522 
L 1381 1569 
Q 847 1681 609 1914 
Q 372 2147 372 2553 
Q 372 3047 722 3315 
Q 1072 3584 1716 3584 
Q 2034 3584 2315 3537 
Q 2597 3491 2834 3397 
z
" transform="scale(0.015625)"/>
       <path id="DejaVuSans-29" d="M 513 4856 
L 1013 4856 
Q 1481 4119 1714 3412 
Q 1947 2706 1947 2009 
Q 1947 1309 1714 600 
Q 1481 -109 1013 -844 
L 513 -844 
Q 928 -128 1133 580 
Q 1338 1288 1338 2009 
Q 1338 2731 1133 3434 
Q 928 4138 513 4856 
z
" transform="scale(0.015625)"/>
      </defs>
      <use xlink:href="#DejaVuSans-54"/>
      <use xlink:href="#DejaVuSans-69" x="57.958984"/>
      <use xlink:href="#DejaVuSans-6d" x="85.742188"/>
      <use xlink:href="#DejaVuSans-65" x="183.154297"/>
      <use xlink:href="#DejaVuSans-20" x="244.677734"/>
      <use xlink:href="#DejaVuSans-28" x="276.464844"/>
      <use xlink:href="#DejaVuSans-73" x="315.478516"/>
      <use xlink:href="#DejaVuSans-29" x="367.578125"/>
     </g>
    </g>
   </g>
   <g id="matplotlib.axis_2">
    <g id="ytick_1">
     <g id="line2d_7">
      <defs>
       <path id="m9fe85a75bf" d="M 0 0 
L 2.5 0 
" style="stroke: #000000; stroke-width: 0.5"/>
      </defs>
      <g>
       <use xlink:href="#m9fe85a75bf" x="64.557544" y="225.604213" style="stroke: #000000; stroke-width: 0.5"/>
      </g>
     </g>
     <g id="text_7">
      <!-- $-2.0×10^{6}$ -->
      <g transform="translate(20.817544 228.643588) scale(0.08 -0.08)">
       <defs>
        <path id="DejaVuSans-2212" d="M 678 2272 
L 4684 2272 
L 4684 1741 
L 678 1741 
L 678 2272 
z
" transform="scale(0.015625)"/>
        <path id="DejaVuSans-d7" d="M 4488 3438 
L 3059 2003 
L 4488 575 
L 4116 197 
L 2681 1631 
L 1247 197 
L 878 575 
L 2303 2003 
L 878 3438 
L 1247 3816 
L 2681 2381 
L 4116 3816 
L 4488 3438 
z
" transform="scale(0.015625)"/>
        <path id="DejaVuSans-36" d="M 2113 2584 
Q 1688 2584 1439 2293 
Q 1191 2003 1191 1497 
Q 1191 994 1439 701 
Q 1688 409 2113 409 
Q 2538 409 2786 701 
Q 3034 994 3034 1497 
Q 3034 2003 2786 2293 
Q 2538 2584 2113 2584 
z
M 3366 4563 
L 3366 3988 
Q 3128 4100 2886 4159 
Q 2644 4219 2406 4219 
Q 1781 4219 1451 3797 
Q 1122 3375 1075 2522 
Q 1259 2794 1537 2939 
Q 1816 3084 2150 3084 
Q 2853 3084 3261 2657 
Q 3669 2231 3669 1497 
Q 3669 778 3244 343 
Q 2819 -91 2113 -91 
Q 1303 -91 875 529 
Q 447 1150 447 2328 
Q 447 3434 972 4092 
Q 1497 4750 2381 4750 
Q 2619 4750 2861 4703 
Q 3103 4656 3366 4563 
z
" transform="scale(0.015625)"/>
       </defs>
       <use xlink:href="#DejaVuSans-2212" transform="translate(0 0.765625)"/>
       <use xlink:href="#DejaVuSans-32" transform="translate(83.789062 0.765625)"/>
       <use xlink:href="#DejaVuSans-2e" transform="translate(147.412109 0.765625)"/>
       <use xlink:href="#DejaVuSans-30" transform="translate(179.199219 0.765625)"/>
       <use xlink:href="#DejaVuSans-d7" transform="translate(242.822266 0.765625)"/>
       <use xlink:href="#DejaVuSans-31" transform="translate(326.611328 0.765625)"/>
       <use xlink:href="#DejaVuSans-30" transform="translate(390.234375 0.765625)"/>
       <use xlink:href="#DejaVuSans-36" transform="translate(454.814453 39.046875) scale(0.7)"/>
      </g>
     </g>
    </g>
    <g id="ytick_2">
     <g id="line2d_8">
      <g>
       <use xlink:href="#m9fe85a75bf" x="64.557544" y="187.371352" style="stroke: #000000; stroke-width: 0.5"/>
      </g>
     </g>
     <g id="text_8">
      <!-- $-1.0×10^{6}$ -->
      <g transform="translate(20.817544 190.410727) scale(0.08 -0.08)">
       <use xlink:href="#DejaVuSans-2212" transform="translate(0 0.765625)"/>
       <use xlink:href="#DejaVuSans-31" transform="translate(83.789062 0.765625)"/>
       <use xlink:href="#DejaVuSans-2e" transform="translate(147.412109 0.765625)"/>
       <use xlink:href="#DejaVuSans-30" transform="translate(179.199219 0.765625)"/>
       <use xlink:href="#DejaVuSans-d7" transform="translate(242.822266 0.765625)"/>
       <use xlink:href="#DejaVuSans-31" transform="translate(326.611328 0.765625)"/>
       <use xlink:href="#DejaVuSans-30" transform="translate(390.234375 0.765625)"/>
       <use xlink:href="#DejaVuSans-36" transform="translate(454.814453 39.046875) scale(0.7)"/>
      </g>
     </g>
    </g>
    <g id="ytick_3">
     <g id="line2d_9">
      <g>
       <use xlink:href="#m9fe85a75bf" x="64.557544" y="149.138491" style="stroke: #000000; stroke-width: 0.5"/>
      </g>
     </g>
     <g id="text_9">
      <!-- $0$ -->
      <g transform="translate(55.937544 152.177866) scale(0.08 -0.08)">
       <use xlink:href="#DejaVuSans-30" transform="translate(0 0.78125)"/>
      </g>
     </g>
    </g>
    <g id="ytick_4">
     <g id="line2d_10">
      <g>
       <use xlink:href="#m9fe85a75bf" x="64.557544" y="110.90563" style="stroke: #000000; stroke-width: 0.5"/>
      </g>
     </g>
     <g id="text_10">
      <!-- $1.0×10^{6}$ -->
      <g transform="translate(27.537544 113.945005) scale(0.08 -0.08)">
       <use xlink:href="#DejaVuSans-31" transform="translate(0 0.765625)"/>
       <use xlink:href="#DejaVuSans-2e" transform="translate(63.623047 0.765625)"/>
       <use xlink:href="#DejaVuSans-30" transform="translate(95.410156 0.765625)"/>
       <use xlink:href="#DejaVuSans-d7" transform="translate(159.033203 0.765625)"/>
       <use xlink:href="#DejaVuSans-31" transform="translate(242.822266 0.765625)"/>
       <use xlink:href="#DejaVuSans-30" transform="translate(306.445312 0.765625)"/>
       <use xlink:href="#DejaVuSans-36" transform="translate(371.025391 39.046875) scale(0.7)"/>
      </g>
     </g>
    </g>
    <g id="ytick_5">
     <g id="line2d_11">
      <g>
       <use xlink:href="#m9fe85a75bf" x="64.557544" y="72.672769" style="stroke: #000000; stroke-width: 0.5"/>
      </g>
     </g>
     <g id="text_11">
      <!-- $2.0×10^{6}$ -->
      <g transform="translate(27.537544 75.712144) scale(0.08 -0.08)">
       <use xlink:href="#DejaVuSans-32" transform="translate(0 0.765625)"/>
       <use xlink:href="#DejaVuSans-2e" transform="translate(63.623047 0.765625)"/>
       <use xlink:href="#DejaVuSans-30" transform="translate(95.410156 0.765625)"/>
       <use xlink:href="#DejaVuSans-d7" transform="translate(159.033203 0.765625)"/>
       <use xlink:href="#DejaVuSans-31" transform="translate(242.822266 0.765625)"/>
       <use xlink:href="#DejaVuSans-30" transform="translate(306.445312 0.765625)"/>
       <use xlink:href="#DejaVuSans-36" transform="translate(371.025391 39.046875) scale(0.7)"/>
      </g>
     </g>
    </g>
    <g id="ytick_6">
     <g id="line2d_12">
      <g>
       <use xlink:href="#m9fe85a75bf" x="64.557544" y="34.439908" style="stroke: #000000; stroke-width: 0.5"/>
      </g>
     </g>
     <g id="text_12">
      <!-- $3.0×10^{6}$ -->
      <g transform="translate(27.537544 37.479283) scale(0.08 -0.08)">
       <defs>
        <path id="DejaVuSans-33" d="M 2597 2516 
Q 3050 2419 3304 2112 
Q 3559 1806 3559 1356 
Q 3559 666 3084 287 
Q 2609 -91 1734 -91 
Q 1441 -91 1130 -33 
Q 819 25 488 141 
L 488 750 
Q 750 597 1062 519 
Q 1375 441 1716 441 
Q 2309 441 2620 675 
Q 2931 909 2931 1356 
Q 2931 1769 2642 2001 
Q 2353 2234 1838 2234 
L 1294 2234 
L 1294 2753 
L 1863 2753 
Q 2328 2753 2575 2939 
Q 2822 3125 2822 3475 
Q 2822 3834 2567 4026 
Q 2313 4219 1838 4219 
Q 1578 4219 1281 4162 
Q 984 4106 628 3988 
L 628 4550 
Q 988 4650 1302 4700 
Q 1616 4750 1894 4750 
Q 2613 4750 3031 4423 
Q 3450 4097 3450 3541 
Q 3450 3153 3228 2886 
Q 3006 2619 2597 2516 
z
" transform="scale(0.015625)"/>
       </defs>
       <use xlink:href="#DejaVuSans-33" transform="translate(0 0.765625)"/>
       <use xlink:href="#DejaVuSans-2e" transform="translate(63.623047 0.765625)"/>
       <use xlink:href="#DejaVuSans-30" transform="translate(95.410156 0.765625)"/>
       <use xlink:href="#DejaVuSans-d7" transform="translate(159.033203 0.765625)"/>
       <use xlink:href="#DejaVuSans-31" transform="translate(242.822266 0.765625)"/>
       <use xlink:href="#DejaVuSans-30" transform="translate(306.445312 0.765625)"/>
       <use xlink:href="#DejaVuSans-36" transform="translate(371.025391 39.046875) scale(0.7)"/>
      </g>
     </g>
    </g>
    <g id="text_13">
     <!-- $M_z$ ($N$) -->
     <g transform="translate(14.529888 147.635) rotate(-90) scale(0.11 -0.11)">
      <defs>
       <path id="DejaVuSans-Oblique-4d" d="M 1081 4666 
L 2028 4666 
L 2572 1522 
L 4378 4666 
L 5350 4666 
L 4441 0 
L 3828 0 
L 4622 4091 
L 2791 897 
L 2175 897 
L 1581 4103 
L 788 0 
L 172 0 
L 1081 4666 
z
" transform="scale(0.015625)"/>
       <path id="DejaVuSans-Oblique-7a" d="M 744 3500 
L 3475 3500 
L 3372 2975 
L 738 459 
L 2913 459 
L 2822 0 
L -19 0 
L 84 525 
L 2719 3041 
L 653 3041 
L 744 3500 
z
" transform="scale(0.015625)"/>
       <path id="DejaVuSans-Oblique-4e" d="M 1081 4666 
L 1931 4666 
L 3219 666 
L 4000 4666 
L 4616 4666 
L 3706 0 
L 2853 0 
L 1569 4025 
L 788 0 
L 172 0 
L 1081 4666 
z
" transform="scale(0.015625)"/>
      </defs>
      <use xlink:href="#DejaVuSans-Oblique-4d" transform="translate(0 0.125)"/>
      <use xlink:href="#DejaVuSans-Oblique-7a" transform="translate(86.279297 -16.28125) scale(0.7)"/>
      <use xlink:href="#DejaVuSans-20" transform="translate(125.756836 0.125)"/>
      <use xlink:href="#DejaVuSans-28" transform="translate(157.543945 0.125)"/>
      <use xlink:href="#DejaVuSans-Oblique-4e" transform="translate(196.557617 0.125)"/>
      <use xlink:href="#DejaVuSans-29" transform="translate(271.362305 0.125)"/>
     </g>
    </g>
   </g>
   <g id="line2d_13">
    <path d="M 64.557544 149.138491 
L 71.501266 149.24725 
L 72.584975 149.30299 
L 73.380075 149.303684 
L 74.575317 149.347056 
L 84.666598 148.904927 
L 86.230708 148.971963 
L 89.067284 149.055031 
L 91.280034 149.955676 
L 92.561661 150.938895 
L 94.766 152.88427 
L 96.656271 154.177629 
L 97.124785 154.302127 
L 98.180502 154.271223 
L 99.141762 153.778306 
L 100.082327 152.725825 
L 100.721321 151.722783 
L 101.486292 150.254315 
L 103.456341 145.120557 
L 105.955994 138.125827 
L 106.963367 135.625488 
L 107.98035 133.442693 
L 109.182542 131.325962 
L 110.258554 129.763451 
L 111.177533 128.822967 
L 111.87804 128.448107 
L 112.240411 128.409061 
L 112.801263 128.628098 
L 113.369038 129.002305 
L 113.936813 129.680538 
L 114.507904 130.663614 
L 115.298662 132.68623 
L 116.104566 135.352837 
L 117.205861 140.163818 
L 118.380336 146.55351 
L 119.875794 156.339753 
L 121.765151 169.045652 
L 122.867867 175.4027 
L 123.695413 179.03281 
L 124.52296 181.580162 
L 125.074657 182.529334 
L 125.626355 182.919943 
L 126.142786 182.820019 
L 126.547799 182.501331 
L 127.06988 181.708026 
L 127.632853 180.35004 
L 128.40357 177.914554 
L 129.95771 171.782612 
L 132.149646 163.096234 
L 133.169335 159.938804 
L 134.189024 157.635338 
L 136.432339 152.985486 
L 137.541781 150.164705 
L 138.526777 147.007048 
L 139.579333 142.963519 
L 141.95373 133.981378 
L 143.021633 130.925214 
L 143.662071 129.737813 
L 144.242054 129.185054 
L 144.569401 129.126195 
L 144.90739 129.262553 
L 145.276715 129.624548 
L 145.69154 130.404026 
L 146.378857 132.320969 
L 147.403967 135.988702 
L 149.389098 143.407053 
L 150.177002 145.449568 
L 150.70652 146.310089 
L 151.284231 146.876639 
L 151.863778 147.061973 
L 152.445033 147.003301 
L 153.319479 146.554645 
L 154.193925 145.74962 
L 155.563762 144.169135 
L 157.28556 142.897519 
L 159.867601 141.692076 
L 160.571797 140.961112 
L 161.267043 139.630071 
L 161.852265 138.053189 
L 162.595742 135.477237 
L 163.833854 130.113317 
L 165.83042 121.114874 
L 166.789567 117.944984 
L 167.39279 116.809658 
L 167.846444 116.460966 
L 168.150948 116.48971 
L 168.455451 116.783014 
L 168.917092 117.710677 
L 169.398574 119.364848 
L 170.119264 123.187848 
L 170.713723 127.367644 
L 171.771512 136.927794 
L 174.671151 165.413487 
L 175.794125 173.737849 
L 177.30075 182.737519 
L 179.647333 195.527831 
L 180.707528 200.167553 
L 181.414325 202.329405 
L 182.121121 203.639171 
L 182.47452 203.892525 
L 182.827918 203.85432 
L 183.181316 203.606972 
L 183.459378 203.19528 
L 184.015502 201.68581 
L 184.761055 198.4993 
L 185.666396 193.100005 
L 187.376582 181.063333 
L 189.109025 169.392631 
L 189.92178 165.273937 
L 190.684476 162.372872 
L 191.371479 160.620889 
L 193.1537 156.982269 
L 193.852684 155.339382 
L 194.398655 153.342698 
L 194.954521 150.372775 
L 195.527851 146.090766 
L 196.30322 138.335598 
L 199.030786 108.963657 
L 199.531922 106.168329 
L 199.914094 105.122373 
L 200.130843 105.022013 
L 200.282738 105.180264 
L 200.51759 105.794524 
L 200.834352 107.335307 
L 201.232452 110.539462 
L 201.811865 117.55589 
L 202.527771 129.577252 
L 203.936286 158.78378 
L 204.856774 175.390419 
L 205.365447 181.835141 
L 205.726566 184.681178 
L 206.106024 186.080877 
L 206.311462 186.116591 
L 206.529276 185.625597 
L 206.755926 184.5648 
L 207.233598 180.55339 
L 208.011994 170.404192 
L 209.647631 146.480669 
L 210.465854 138.224396 
L 211.011336 134.329848 
L 211.829559 130.335293 
L 212.647781 127.714217 
L 214.223493 124.209072 
L 215.595416 120.850665 
L 216.416122 118.033702 
L 217.118681 114.864289 
L 217.824308 110.566714 
L 218.81671 102.588681 
L 219.860882 94.209346 
L 220.340928 91.636068 
L 220.711565 90.75008 
L 220.905266 90.654852 
L 221.105008 90.839876 
L 221.317206 91.396393 
L 221.651349 93.069984 
L 222.127164 96.96327 
L 222.729618 104.084073 
L 223.795758 120.15997 
L 224.936784 136.828287 
L 225.533769 142.731587 
L 225.997372 145.384097 
L 226.326649 146.200189 
L 226.575283 146.280792 
L 226.830345 145.931072 
L 227.181769 144.849708 
L 228.58431 139.705383 
L 228.858956 139.487156 
L 228.997528 139.543312 
L 229.275811 140.069631 
L 229.675713 141.753198 
L 230.16219 145.229552 
L 230.770285 151.763522 
L 231.519533 162.535332 
L 232.913897 186.747106 
L 234.600155 214.460935 
L 235.814858 232.327311 
L 236.466699 239.427533 
L 236.924806 242.082434 
L 237.15573 242.510962 
L 237.399871 242.22861 
L 237.644011 241.129387 
L 238.141474 236.529793 
L 238.665548 228.539321 
L 239.516528 210.923636 
L 240.69306 185.225916 
L 241.281393 175.835932 
L 241.869725 170.410917 
L 242.163891 169.313851 
L 242.458057 169.251117 
L 242.752223 170.108341 
L 243.340555 173.67147 
L 244.223053 180.044612 
L 244.517219 181.465809 
L 244.811385 182.212155 
L 245.105551 182.248841 
L 245.399717 181.594501 
L 245.693884 180.216148 
L 246.474124 174.372807 
L 247.750659 164.246712 
L 248.123485 162.870155 
L 248.331856 162.674182 
L 248.472511 162.804914 
L 248.684436 163.452338 
L 248.970727 165.267142 
L 249.409174 169.994888 
L 249.978321 178.891149 
L 251.237565 199.431709 
L 251.741467 204.289921 
L 252.156662 206.538444 
L 252.506834 207.380085 
L 252.728227 207.475147 
L 252.907798 207.328688 
L 253.162947 206.753608 
L 253.493469 205.233122 
L 253.85734 202.350363 
L 254.31819 196.633066 
L 254.888507 186.196002 
L 255.613495 168.239578 
L 256.574299 138.968161 
L 257.699632 98.13296 
L 259.367161 36.762727 
L 260.015116 20.505017 
L 260.484666 13.266702 
L 260.84613 10.505638 
L 261.041006 10.062685 
L 261.143019 10.125242 
L 261.362786 10.92583 
L 261.702477 13.848287 
L 262.154198 20.836869 
L 262.743475 34.230667 
L 264.931168 89.810756 
L 265.273355 93.482094 
L 265.527922 94.745885 
L 265.663538 94.932312 
L 265.818655 94.755945 
L 266.128888 93.295782 
L 266.598619 89.182972 
L 267.555605 80.332936 
L 267.874601 78.894903 
L 268.034098 78.640236 
L 268.197915 78.72095 
L 268.370707 79.1801 
L 268.720089 81.210169 
L 269.071118 84.828884 
L 269.597662 93.232558 
L 270.124206 105.451015 
L 270.788737 126.27117 
L 271.841261 168.566034 
L 273.213629 223.215344 
L 273.857084 240.572633 
L 274.329914 248.014221 
L 274.621332 250.289782 
L 274.842979 250.768558 
L 274.993875 250.459163 
L 275.22022 249.092769 
L 275.522012 245.712083 
L 275.974701 237.380084 
L 276.603711 220.474782 
L 277.707052 182.79288 
L 278.857515 146.51581 
L 279.595461 129.392345 
L 280.236767 118.962884 
L 280.93002 111.196554 
L 281.71394 104.928059 
L 282.207291 102.186712 
L 282.536192 101.356092 
L 282.717771 101.349885 
L 282.868024 101.624333 
L 283.084904 102.509692 
L 283.374901 104.649805 
L 283.805335 109.796597 
L 284.490085 121.587205 
L 285.959898 147.928624 
L 286.597831 155.63826 
L 286.973113 158.17514 
L 287.267032 158.879321 
L 287.430116 158.714887 
L 287.632084 157.947027 
L 287.932078 155.687364 
L 288.317534 150.826102 
L 288.842413 141.173117 
L 289.969011 114.58514 
L 291.218168 86.809849 
L 291.938051 75.298869 
L 292.372127 71.221392 
L 292.686859 69.936303 
L 292.848021 69.969636 
L 293.016562 70.482517 
L 293.355407 73.036112 
L 293.703839 78.216141 
L 294.232198 90.918774 
L 294.95703 116.664078 
L 297.237056 208.280747 
L 297.675697 216.910212 
L 297.968125 220.219501 
L 298.260552 221.57764 
L 298.406766 221.618224 
L 298.559102 221.279708 
L 298.863774 219.516829 
L 299.258244 215.306562 
L 301.094371 192.407724 
L 301.392495 191.153484 
L 301.575305 191.010862 
L 301.70768 191.237987 
L 301.917046 192.208992 
L 302.228371 195.063353 
L 302.690053 201.990042 
L 304.182286 227.644692 
L 304.547484 229.830654 
L 304.669217 230.002474 
L 304.790949 229.867323 
L 305.021397 228.735117 
L 305.347542 225.371598 
L 305.927261 216.181206 
L 306.793315 202.485489 
L 307.195204 199.094162 
L 307.406715 198.463284 
L 307.554576 198.481254 
L 307.707649 198.850413 
L 307.953073 200.065233 
L 308.472238 204.208742 
L 308.998211 207.704364 
L 309.176786 208.03128 
L 309.266592 207.955565 
L 309.447604 207.27395 
L 309.719898 204.931191 
L 310.083569 199.583166 
L 310.654836 187.362633 
L 313.162724 128.907931 
L 313.473901 126.561808 
L 313.572362 126.493404 
L 313.670824 126.797487 
L 313.867747 128.639899 
L 314.146676 134.38527 
L 314.482199 146.401426 
L 315.003885 174.484667 
L 316.127157 238.489689 
L 316.448755 246.877262 
L 316.673838 248.684298 
L 316.799446 248.263894 
L 317.072531 244.192132 
L 317.366352 235.792471 
L 318.013074 208.702189 
L 319.673724 137.696919 
L 320.451863 112.293971 
L 321.024639 100.477582 
L 321.649281 92.326783 
L 322.445408 85.016813 
L 322.849405 82.981687 
L 323.129938 82.519752 
L 323.257808 82.58271 
L 323.436538 82.996891 
L 323.754924 84.616786 
L 324.213742 88.516726 
L 324.707779 95.168425 
L 325.265794 105.914043 
L 325.950992 123.975409 
L 327.806037 176.489119 
L 328.335053 183.21673 
L 329.114308 190.394711 
L 329.455066 192.146875 
L 329.682238 192.346158 
L 329.90941 191.564764 
L 330.136582 189.637912 
L 330.49531 184.26396 
L 331.020372 172.307294 
L 331.802784 148.430022 
L 332.625137 123.79067 
L 332.89838 120.23791 
L 333.019032 119.915691 
L 333.139683 120.430542 
L 333.32066 122.729951 
L 333.622289 129.926938 
L 334.818619 162.843337 
L 335.304775 168.55086 
L 335.902314 172.626148 
L 336.844148 178.82391 
L 337.435045 185.377697 
L 337.894513 189.674447 
L 338.04288 190.042332 
L 338.14419 189.887213 
L 338.299026 189.003039 
L 338.561936 185.895525 
L 338.988193 177.574691 
L 339.737761 157.296153 
L 340.57883 135.523396 
L 340.858719 132.613338 
L 340.930237 132.458937 
L 341.002156 132.570269 
L 341.147514 133.62515 
L 341.366963 137.21194 
L 341.843101 150.289278 
L 342.684133 172.753471 
L 343.184166 181.303777 
L 343.450358 183.528627 
L 343.59764 183.831071 
L 343.678239 183.702089 
L 343.84243 182.800718 
L 344.103297 179.684289 
L 344.570517 169.945544 
L 345.977687 137.451592 
L 347.011522 115.527825 
L 347.309428 113.279419 
L 347.369633 113.190396 
L 347.429838 113.232839 
L 347.564697 113.822591 
L 347.788979 116.373669 
L 348.125541 123.680872 
L 348.775363 144.728232 
L 349.656049 173.521878 
L 349.958255 178.705227 
L 350.146109 179.598053 
L 350.303504 178.963835 
L 350.514722 176.474051 
L 350.940564 167.789522 
L 351.634063 148.420178 
L 352.422664 120.399528 
L 354.030554 61.545259 
L 354.54187 51.703011 
L 354.80757 49.286059 
L 354.9437 49.026398 
L 355.089186 49.569337 
L 355.329627 52.390838 
L 355.760908 62.200235 
L 356.368341 76.214641 
L 356.731217 80.659363 
L 357.012638 81.856332 
L 357.206959 81.889303 
L 357.49844 81.347503 
L 358.303698 79.29621 
L 358.526732 79.290081 
L 358.768138 79.955222 
L 359.009543 81.809271 
L 359.250949 85.498562 
L 359.613057 95.654656 
L 360.216571 122.580856 
L 360.820085 147.232414 
L 361.194843 155.563429 
L 361.579159 159.842517 
L 361.987558 162.060286 
L 362.359406 163.19899 
L 362.551241 163.361919 
L 362.743077 162.941537 
L 362.93572 161.693049 
L 363.225894 157.830564 
L 363.612793 148.718756 
L 364.990042 109.998077 
L 365.356614 104.903206 
L 365.600994 103.586107 
L 365.723185 103.618018 
L 365.850391 104.161486 
L 366.104998 106.943786 
L 366.489398 115.60297 
L 366.989417 133.020252 
L 367.681228 166.064862 
L 368.774082 223.204573 
L 369.138006 231.536685 
L 369.481757 234.761836 
L 369.802967 235.877433 
L 369.942527 235.951601 
L 370.082086 235.801863 
L 370.302401 235.159937 
L 370.536377 233.860635 
L 370.787428 231.363986 
L 371.15422 224.789666 
L 371.617268 210.657168 
L 372.500173 173.459196 
L 373.389584 135.834586 
L 373.912169 122.745658 
L 374.447123 113.779564 
L 374.774859 110.498531 
L 374.995605 109.514832 
L 375.105977 109.444993 
L 375.21635 109.680616 
L 375.437095 111.041333 
L 376.892694 124.055105 
L 377.355221 125.309554 
L 377.702186 125.847848 
L 377.937472 125.843044 
L 378.154547 125.872232 
L 378.317084 126.400336 
L 378.490691 127.949833 
L 378.724981 132.214325 
L 379.126224 145.039587 
L 380.151215 180.536224 
L 380.49321 185.816331 
L 380.75321 187.405801 
L 380.904016 187.486494 
L 381.069885 186.934271 
L 381.329448 184.585554 
L 381.675531 178.116897 
L 382.281176 166.209891 
L 382.454217 165.331739 
L 382.529927 165.383323 
L 382.681345 166.179682 
L 383.059892 170.639403 
L 383.438438 174.39245 
L 383.741275 175.428117 
L 383.968403 175.59263 
L 384.119821 175.469452 
L 384.346949 174.781611 
L 384.717004 172.543425 
L 384.989884 169.823902 
L 385.359617 163.167261 
L 385.950705 152.043596 
L 386.209855 149.849549 
L 386.382621 149.35398 
L 386.555388 149.414245 
L 386.987304 149.924375 
L 387.246454 150.015055 
L 387.41922 150.376307 
L 387.68314 151.705712 
L 388.043587 155.179064 
L 388.494145 162.839732 
L 389.405363 179.698546 
L 389.830496 184.468018 
L 390.058169 185.334172 
L 390.174532 185.147785 
L 390.407258 183.349755 
L 390.765475 176.883154 
L 392.317749 140.629704 
L 393.153589 124.066873 
L 395.469671 67.241038 
L 395.626515 65.596436 
L 395.783358 65.494846 
L 395.940202 67.186369 
L 396.253889 76.020414 
L 398.151217 148.093658 
L 398.368259 150.201301 
L 398.476779 150.066771 
L 398.69382 148.208928 
L 399.856974 135.064266 
L 400.128295 134.536818 
L 400.263956 134.642698 
L 400.467447 135.695691 
L 400.94406 138.770921 
L 401.085901 138.798098 
L 401.557983 138.460257 
L 401.738301 138.480063 
L 401.924233 138.747748 
L 402.306579 139.864392 
L 402.402165 139.651878 
L 402.593338 137.900193 
L 403.293456 128.871023 
L 403.509107 128.308861 
L 403.725521 128.178112 
L 404.228589 128.093505 
L 404.324141 128.315347 
L 404.515244 129.801184 
L 405.32954 140.565452 
L 405.572868 141.072187 
L 405.761747 142.348135 
L 406.748607 151.303084 
L 406.957363 151.404678 
L 407.098636 151.763434 
L 407.455516 153.87824 
L 407.79253 156.738537 
L 408.037557 161.834288 
L 408.431597 177.396168 
L 409.436423 218.767601 
L 410.420274 243.110791 
L 410.532362 243.237893 
L 410.649275 242.439998 
L 410.862265 238.741476 
L 411.766568 217.942393 
L 412.097329 217.151553 
L 412.444791 216.01916 
L 412.65192 214.393071 
L 412.862552 210.072696 
L 413.145732 197.625145 
L 414.72586 110.873804 
L 415.185054 92.671938 
L 415.369086 89.772212 
L 415.461101 89.477141 
L 415.553117 89.800457 
L 415.829165 92.878448 
L 416.10945 98.136669 
L 416.78634 114.519885 
L 416.984727 115.190389 
L 417.088579 115.319057 
L 417.195452 115.744464 
L 417.414149 118.204758 
L 417.960892 129.797455 
L 418.398287 137.777283 
L 418.727273 140.007556 
L 419.082918 140.676491 
L 419.599458 141.353391 
L 419.775839 142.556673 
L 420.292823 147.133352 
L 420.363453 147.123864 
L 420.515868 146.432392 
L 420.751819 144.036898 
L 420.993617 139.812842 
L 421.407478 126.861624 
L 421.909206 112.379856 
L 422.244339 107.062494 
L 422.361999 106.31915 
L 422.361999 106.31915 
" clip-path="url(#p1c69faf8ed)" style="fill: none; stroke: #e36f47"/>
   </g>
   <g id="patch_3">
    <path d="M 64.557544 258.225354 
L 64.557544 2.834646 
" style="fill: none; stroke: #000000; stroke-linejoin: miter; stroke-linecap: square"/>
   </g>
   <g id="patch_4">
    <path d="M 64.557544 258.225354 
L 422.361999 258.225354 
" style="fill: none; stroke: #000000; stroke-linejoin: miter; stroke-linecap: square"/>
   </g>
   <g id="line2d_14">
    <path d="M 64.557544 149.138491 
L 71.49212 149.248183 
L 72.71878 149.29406 
L 73.696792 149.333685 
L 75.27863 149.296675 
L 80.541126 148.96535 
L 81.441176 148.972033 
L 82.374438 148.920964 
L 83.522198 148.833994 
L 89.086305 149.056384 
L 90.818547 149.641557 
L 91.660157 150.232274 
L 93.258775 151.620705 
L 94.637661 152.814341 
L 96.803898 154.209559 
L 97.600029 154.363539 
L 98.285409 154.254872 
L 98.946689 153.894164 
L 99.600861 153.316301 
L 100.388434 152.2757 
L 101.175577 150.886765 
L 102.183823 148.589765 
L 103.90974 143.800321 
L 106.555525 136.606311 
L 107.929348 133.523776 
L 108.996655 131.612397 
L 110.309138 129.743894 
L 111.145917 128.904097 
L 111.70979 128.566725 
L 112.267223 128.459116 
L 112.797443 128.590705 
L 113.292069 128.931175 
L 113.900551 129.6488 
L 114.6375 130.984081 
L 115.415212 132.991925 
L 116.266991 135.949994 
L 117.160809 139.904145 
L 118.170674 145.287516 
L 119.463973 153.366639 
L 122.576828 173.707868 
L 123.525326 178.27373 
L 124.291668 180.949998 
L 124.906541 182.342377 
L 125.303144 182.860634 
L 125.708478 183.081885 
L 126.115994 183.002321 
L 126.539078 182.62285 
L 126.966427 181.962485 
L 127.662447 180.368858 
L 128.458885 177.886103 
L 129.688835 173.074866 
L 131.936031 163.94907 
L 133.040388 160.327502 
L 133.914887 158.015386 
L 135.084079 155.617085 
L 136.609883 152.659452 
L 137.444779 150.545316 
L 138.509166 147.173797 
L 139.868203 142.000669 
L 141.999155 133.780726 
L 142.897734 131.183049 
L 143.484006 129.988145 
L 143.935777 129.391641 
L 144.387829 129.109975 
L 144.803928 129.147845 
L 145.251165 129.516478 
L 145.717397 130.260128 
L 146.222568 131.457478 
L 147.025889 134.075923 
L 149.939705 144.941772 
L 150.511753 146.201199 
L 151.11821 147.058293 
L 151.734324 147.461193 
L 152.326624 147.463925 
L 152.888757 147.186436 
L 153.738136 146.418621 
L 156.392797 143.64567 
L 157.39332 142.926969 
L 159.829315 141.502328 
L 160.411632 140.860729 
L 161.085261 139.759219 
L 161.803829 138.079268 
L 162.511128 135.891481 
L 163.531304 131.883364 
L 166.491124 119.1817 
L 167.073562 117.664115 
L 167.676916 116.793067 
L 167.968831 116.665131 
L 168.259286 116.745305 
L 168.494367 116.968799 
L 168.988415 117.927334 
L 169.516995 119.719673 
L 170.009241 122.120563 
L 170.818583 127.564761 
L 171.828297 136.575862 
L 175.212885 169.609109 
L 176.272203 177.063972 
L 177.661057 185.020475 
L 179.595956 194.821222 
L 180.577502 199.035615 
L 181.337409 201.544855 
L 181.837742 202.709949 
L 182.302797 203.380544 
L 182.784576 203.601775 
L 183.050091 203.499786 
L 183.458428 203.015217 
L 183.976792 201.80853 
L 184.62981 199.361084 
L 185.368175 195.482734 
L 186.412486 188.582398 
L 188.813905 172.003865 
L 189.850206 166.455938 
L 190.714451 162.926822 
L 191.667293 160.016983 
L 194.228864 153.111644 
L 194.790177 150.506503 
L 195.352994 146.957711 
L 196.107181 140.55188 
L 197.088096 129.868155 
L 198.674766 112.39279 
L 199.243977 108.07364 
L 199.655953 106.109539 
L 200.032591 105.330932 
L 200.220275 105.339371 
L 200.40411 105.616706 
L 200.782899 107.05634 
L 201.15365 109.62196 
L 201.677712 115.183331 
L 202.275052 124.059745 
L 203.216719 142.034137 
L 204.77421 172.40707 
L 205.408158 180.769107 
L 205.873427 184.353268 
L 206.124753 185.295049 
L 206.280338 185.521872 
L 206.42825 185.487207 
L 206.707225 184.774474 
L 207.02986 182.955093 
L 207.602822 177.471167 
L 208.352452 167.314341 
L 210.009427 143.874002 
L 210.626195 137.70511 
L 211.334268 132.807052 
L 212.008698 129.766412 
L 212.748258 127.432663 
L 213.906238 124.56261 
L 215.746336 120.15547 
L 216.498679 117.605638 
L 217.176972 114.538551 
L 217.909673 110.239838 
L 218.986035 102.348875 
L 220.080469 94.783314 
L 220.576718 92.704852 
L 220.932593 92.087459 
L 221.118007 92.104532 
L 221.294375 92.35239 
L 221.664124 93.63746 
L 222.027289 95.922915 
L 222.635275 101.881952 
L 223.431863 112.727201 
L 225.127263 136.767939 
L 225.815442 142.931239 
L 226.245229 145.050431 
L 226.606099 145.796067 
L 226.848763 145.811415 
L 227.13259 145.404409 
L 227.468731 144.466986 
L 228.723684 140.283044 
L 229.039378 140.022897 
L 229.202652 140.128316 
L 229.535635 140.915344 
L 229.851425 142.416236 
L 230.35146 146.318744 
L 230.981523 153.696136 
L 231.836899 167.065259 
L 235.118053 222.825732 
L 236.042556 234.426144 
L 236.590611 239.002768 
L 236.973353 240.680337 
L 237.120764 240.937741 
L 237.268985 240.964812 
L 237.4164 240.755048 
L 237.710614 239.61661 
L 238.152065 236.111837 
L 238.593714 230.561195 
L 239.319418 217.786113 
L 241.508879 175.175373 
L 241.976427 170.580796 
L 242.396107 168.643598 
L 242.552599 168.428253 
L 242.697656 168.454792 
L 242.958937 168.998553 
L 243.308862 170.542538 
L 244.096588 175.657072 
L 244.643039 178.69716 
L 245.036893 179.830716 
L 245.232919 179.969832 
L 245.428234 179.813994 
L 245.712935 179.085199 
L 246.151675 176.971191 
L 246.992244 171.113815 
L 247.739471 166.405938 
L 248.147575 164.940698 
L 248.451344 164.643111 
L 248.605581 164.804911 
L 248.920684 165.87738 
L 249.326712 168.830485 
L 249.795948 174.366693 
L 250.777966 190.165573 
L 251.500069 200.463983 
L 252.067972 205.446444 
L 252.349444 206.775933 
L 252.668284 207.448911 
L 252.833423 207.477595 
L 252.988797 207.316691 
L 253.300849 206.454555 
L 253.613266 204.841053 
L 254.118306 200.378735 
L 254.669997 192.306336 
L 255.215123 180.612545 
L 256.022148 157.386882 
L 257.458096 107.108488 
L 259.277026 43.998777 
L 260.035158 24.991042 
L 260.589006 16.361013 
L 260.865506 13.993077 
L 261.166215 12.98258 
L 261.325948 13.120456 
L 261.621548 14.602134 
L 261.892578 17.316231 
L 262.340441 24.376769 
L 263.057617 40.768321 
L 264.750976 82.82478 
L 265.259641 90.294721 
L 265.663682 93.386598 
L 265.895895 94.024008 
L 266.008867 94.052249 
L 266.232236 93.615375 
L 266.475005 92.495377 
L 266.941344 89.077971 
L 267.788415 82.500447 
L 268.08699 81.243701 
L 268.241521 80.959766 
L 268.385471 80.947417 
L 268.635911 81.546529 
L 268.887113 82.981613 
L 269.274038 86.891106 
L 269.797954 95.556641 
L 270.388174 110.054754 
L 271.056153 132.217027 
L 272.235256 180.68171 
L 273.364326 224.390802 
L 273.988376 241.288541 
L 274.474441 248.886366 
L 274.716349 250.598616 
L 274.832048 250.9153 
L 274.949769 250.903773 
L 275.189932 249.849881 
L 275.538469 245.963928 
L 276.041956 236.006133 
L 276.744298 215.861809 
L 278.963066 147.422204 
L 279.791425 130.219774 
L 280.563967 117.921685 
L 281.207411 110.376046 
L 281.83432 105.249976 
L 282.427203 102.181888 
L 282.799416 101.281539 
L 282.989168 101.238665 
L 283.185745 101.559948 
L 283.424621 102.529335 
L 283.704577 104.581166 
L 284.175649 110.431346 
L 284.800572 122.338197 
L 286.361899 154.75107 
L 286.871975 160.091006 
L 287.213503 161.466657 
L 287.392527 161.46624 
L 287.550786 161.053773 
L 287.887761 158.912205 
L 288.286281 154.253742 
L 288.848235 144.249035 
L 289.703287 123.787568 
L 291.108552 89.426658 
L 291.705399 78.998984 
L 292.156668 73.886929 
L 292.491289 71.899757 
L 292.648481 71.540771 
L 292.825028 71.596466 
L 292.999848 72.144538 
L 293.323424 74.496493 
L 293.75962 80.507808 
L 294.199008 89.916019 
L 294.815232 108.509099 
L 295.74342 145.243036 
L 297.064426 197.308296 
L 297.680293 213.621664 
L 298.132576 220.5357 
L 298.380662 222.389585 
L 298.647218 222.906694 
L 298.768717 222.666326 
L 299.041309 221.148024 
L 299.451163 216.781766 
L 300.310295 203.686749 
L 300.918199 195.593474 
L 301.288198 192.589338 
L 301.555067 191.591031 
L 301.693653 191.478535 
L 301.833394 191.645287 
L 302.111156 192.790021 
L 302.513267 196.220641 
L 303.095708 204.19095 
L 304.550281 226.163463 
L 304.892658 228.106868 
L 305.004282 228.271395 
L 305.117378 228.193362 
L 305.373521 227.116686 
L 305.718895 223.829042 
L 306.313028 214.727382 
L 307.12879 202.67219 
L 307.467249 200.294646 
L 307.629491 199.899778 
L 307.715608 199.880771 
L 307.893369 200.222893 
L 308.192192 201.72555 
L 309.09798 207.3375 
L 309.259321 207.543178 
L 309.356512 207.458354 
L 309.551394 206.773015 
L 309.876191 204.043183 
L 310.228558 198.930802 
L 310.885121 184.950065 
L 312.926664 137.046871 
L 313.26401 132.647017 
L 313.50796 131.266329 
L 313.604778 131.224516 
L 313.710605 131.542067 
L 313.931255 133.511542 
L 314.264404 140.030696 
L 314.648413 152.838925 
L 315.271512 183.28247 
L 316.312247 235.039763 
L 316.70821 244.031481 
L 316.898567 245.13242 
L 317.00721 244.810314 
L 317.202886 242.558229 
L 317.480564 236.033406 
L 317.984961 216.759185 
L 320.049712 127.337674 
L 320.808465 107.390164 
L 321.5671 93.288822 
L 322.386019 82.113484 
L 322.837387 78.244463 
L 323.060165 77.328961 
L 323.259866 77.204227 
L 323.455771 77.775056 
L 323.781819 80.240932 
L 324.232341 86.29006 
L 324.987833 100.490525 
L 325.923289 122.374485 
L 328.146422 179.099635 
L 328.644054 184.209945 
L 329.058257 186.524069 
L 329.433878 187.555878 
L 329.591227 187.648445 
L 329.750646 187.483544 
L 329.975575 186.715434 
L 330.246726 184.787165 
L 330.565412 180.901474 
L 331.047414 171.660684 
L 331.959011 147.920577 
L 332.654539 132.06066 
L 333.025128 127.377265 
L 333.229818 126.624154 
L 333.301359 126.717092 
L 333.453943 127.55137 
L 333.682586 130.366313 
L 334.125245 139.891929 
L 335.075132 161.364636 
L 335.618815 168.363624 
L 337.561762 188.144055 
L 337.92562 190.067823 
L 338.058952 190.237083 
L 338.202156 189.988208 
L 338.430238 188.535178 
L 338.695705 185.125673 
L 339.167637 175.32932 
L 340.674797 140.168311 
L 340.990003 136.546534 
L 341.186469 135.799536 
L 341.272598 135.89334 
L 341.44279 136.881081 
L 341.718867 140.738098 
L 342.140797 150.903157 
L 343.107684 175.286488 
L 343.574014 181.347977 
L 343.825728 182.489455 
L 343.937883 182.432558 
L 344.089573 181.766176 
L 344.320018 179.448991 
L 344.705437 172.353924 
L 345.437919 152.654369 
L 346.290269 132.364714 
L 347.079087 118.363949 
L 347.434352 115.232688 
L 347.583338 115.001606 
L 347.730448 115.48869 
L 347.960805 117.705863 
L 348.301953 124.0392 
L 348.88288 140.686652 
L 349.809703 167.058484 
L 350.203916 172.894211 
L 350.445543 174.057191 
L 350.533247 173.988613 
L 350.716274 172.993811 
L 351.013243 169.0443 
L 351.427838 159.681604 
L 352.170741 136.790668 
L 352.993349 104.101351 
L 353.934141 67.363083 
L 354.399792 56.846555 
L 354.770144 52.971922 
L 354.983142 52.326464 
L 355.122683 52.467642 
L 355.31948 53.390104 
L 355.57111 55.783924 
L 355.939077 61.560536 
L 357.030933 80.465904 
L 357.31472 81.759256 
L 357.481976 81.819357 
L 358.013404 81.332527 
L 358.178297 81.703154 
L 358.412057 83.045088 
L 358.747268 86.669446 
L 359.228463 94.640447 
L 359.795138 107.932552 
L 360.468649 130.124138 
L 361.254044 154.936324 
L 361.662138 161.352258 
L 361.963372 162.962443 
L 362.147609 163.102019 
L 362.35364 162.915197 
L 362.847881 162.126929 
L 363.066804 161.26022 
L 363.261956 159.654155 
L 363.574075 154.636169 
L 364.017876 142.192399 
L 364.945621 114.099808 
L 365.336882 108.707332 
L 365.546161 107.800698 
L 365.624781 107.788794 
L 365.774285 108.22738 
L 365.987552 109.831891 
L 366.282993 113.885778 
L 366.696781 123.416788 
L 367.236598 142.712199 
L 368.382392 195.252048 
L 369.155529 227.083409 
L 369.538906 235.428561 
L 369.858076 238.133304 
L 370.059762 238.417822 
L 370.186853 238.189699 
L 370.398882 237.247975 
L 370.706354 234.729436 
L 371.040976 230.19289 
L 371.443446 221.540172 
L 371.876798 207.264532 
L 372.479033 178.835899 
L 373.257976 143.17918 
L 373.776912 128.365936 
L 374.513218 114.137874 
L 374.993072 108.206607 
L 375.23716 107.184048 
L 375.317015 107.196581 
L 375.470862 107.637904 
L 375.815256 109.808918 
L 377.018799 119.046444 
L 377.445526 126.098061 
L 378.043433 135.288306 
L 378.348093 136.861994 
L 378.703733 137.758169 
L 378.910563 139.38907 
L 379.202258 144.496078 
L 379.687689 159.359405 
L 380.249126 175.653395 
L 380.64538 181.255744 
L 380.942515 182.882173 
L 381.204321 183.327617 
L 381.311392 183.271669 
L 381.464988 182.85885 
L 381.673113 181.427173 
L 381.978436 177.124861 
L 382.709219 165.258875 
L 382.860795 164.884107 
L 382.967132 165.238265 
L 383.186365 167.274652 
L 383.796107 174.005689 
L 383.957466 174.252595 
L 384.108907 173.761818 
L 384.388944 171.621315 
L 384.874445 167.993946 
L 385.106378 167.440188 
L 385.396939 166.97604 
L 385.608783 165.771499 
L 385.878059 162.463115 
L 386.863702 147.825083 
L 387.060853 147.43692 
L 387.187143 147.667182 
L 387.406996 148.709945 
L 387.894056 152.500932 
L 388.614826 159.634917 
L 389.033932 166.693454 
L 390.140357 187.464937 
L 390.295311 188.103055 
L 390.346808 188.090645 
L 390.454598 187.688777 
L 390.661525 185.503203 
L 390.971146 179.201296 
L 391.653141 158.950265 
L 392.6786 130.068192 
L 393.215023 121.425416 
L 393.72217 112.979148 
L 394.205178 100.160995 
L 395.163214 72.899967 
L 395.571551 67.555124 
L 395.784623 66.523928 
L 395.845423 66.499119 
L 395.959173 66.831974 
L 396.132189 68.419026 
L 396.356894 72.690406 
L 396.695187 83.846549 
L 397.430493 118.641808 
L 398.027665 142.628778 
L 398.36075 149.593637 
L 398.553722 150.86482 
L 398.604352 150.855472 
L 398.737152 150.189844 
L 398.944653 147.547465 
L 399.898985 132.676029 
L 400.099886 132.343237 
L 400.243847 132.602111 
L 400.547051 133.932078 
L 400.967973 136.984984 
L 401.720473 142.933769 
L 401.905525 143.307049 
L 402.021938 143.234631 
L 402.230225 142.613857 
L 402.566029 140.614186 
L 402.995263 136.271595 
L 403.56103 130.514978 
L 403.671348 130.327691 
L 403.702432 130.355838 
L 403.813813 130.727188 
L 404.112697 133.003908 
L 404.426174 134.740041 
L 404.546814 134.761367 
L 404.783712 134.12836 
L 404.998005 133.746552 
L 405.106252 133.921881 
L 405.288067 134.896643 
L 406.1128 140.745753 
L 406.348539 141.001061 
L 406.682739 141.031549 
L 407.011713 141.02743 
L 407.187728 141.37617 
L 407.389524 142.604673 
L 407.606842 145.444502 
L 407.937453 153.007537 
L 408.52302 172.822075 
L 409.281892 206.892394 
L 409.925172 233.146686 
L 410.30839 241.039921 
L 410.635869 243.837248 
L 410.77988 244.112819 
L 410.904331 243.836652 
L 411.100794 242.349801 
L 411.389915 237.934309 
L 412.981444 205.250424 
L 413.471319 185.039388 
L 414.193146 142.859561 
L 414.797241 113.89734 
L 415.29613 98.903063 
L 415.58003 94.885911 
L 415.700083 94.513289 
L 415.819949 95.001893 
L 416.038001 97.968313 
L 417.379297 123.103655 
L 417.754408 125.318806 
L 418.053318 127.110108 
L 418.574702 132.405233 
L 418.917651 134.626205 
L 419.097324 134.893723 
L 419.282105 134.753425 
L 419.508397 134.565178 
L 419.6273 134.669358 
L 419.822234 135.247271 
L 420.306956 136.962544 
L 420.408772 136.936506 
L 420.584238 136.447276 
L 420.871841 134.646719 
L 421.370321 129.711976 
L 422.036963 121.179601 
L 422.361999 116.298339 
L 422.361999 116.298339 
" clip-path="url(#p1c69faf8ed)" style="fill: none; stroke: #3ea44e"/>
   </g>
   <g id="legend_1">
    <g id="patch_5">
     <path d="M 332.945749 50.862146 
L 418.361999 50.862146 
L 418.361999 6.834646 
L 332.945749 6.834646 
z
" style="fill: #ffffff; stroke: #000000; stroke-linejoin: miter"/>
    </g>
    <g id="line2d_15">
     <path d="M 339.345749 16.513396 
L 347.345749 16.513396 
L 355.345749 16.513396 
" style="fill: none; stroke: #009afa; stroke-linejoin: miter"/>
    </g>
    <g id="text_14">
     <!-- GXBeam -->
     <g transform="translate(361.745749 19.313396) scale(0.08 -0.08)">
      <defs>
       <path id="DejaVuSans-47" d="M 3809 666 
L 3809 1919 
L 2778 1919 
L 2778 2438 
L 4434 2438 
L 4434 434 
Q 4069 175 3628 42 
Q 3188 -91 2688 -91 
Q 1594 -91 976 548 
Q 359 1188 359 2328 
Q 359 3472 976 4111 
Q 1594 4750 2688 4750 
Q 3144 4750 3555 4637 
Q 3966 4525 4313 4306 
L 4313 3634 
Q 3963 3931 3569 4081 
Q 3175 4231 2741 4231 
Q 1884 4231 1454 3753 
Q 1025 3275 1025 2328 
Q 1025 1384 1454 906 
Q 1884 428 2741 428 
Q 3075 428 3337 486 
Q 3600 544 3809 666 
z
" transform="scale(0.015625)"/>
       <path id="DejaVuSans-58" d="M 403 4666 
L 1081 4666 
L 2241 2931 
L 3406 4666 
L 4084 4666 
L 2584 2425 
L 4184 0 
L 3506 0 
L 2194 1984 
L 872 0 
L 191 0 
L 1856 2491 
L 403 4666 
z
" transform="scale(0.015625)"/>
       <path id="DejaVuSans-42" d="M 1259 2228 
L 1259 519 
L 2272 519 
Q 2781 519 3026 730 
Q 3272 941 3272 1375 
Q 3272 1813 3026 2020 
Q 2781 2228 2272 2228 
L 1259 2228 
z
M 1259 4147 
L 1259 2741 
L 2194 2741 
Q 2656 2741 2882 2914 
Q 3109 3088 3109 3444 
Q 3109 3797 2882 3972 
Q 2656 4147 2194 4147 
L 1259 4147 
z
M 628 4666 
L 2241 4666 
Q 2963 4666 3353 4366 
Q 3744 4066 3744 3513 
Q 3744 3084 3544 2831 
Q 3344 2578 2956 2516 
Q 3422 2416 3680 2098 
Q 3938 1781 3938 1306 
Q 3938 681 3513 340 
Q 3088 0 2303 0 
L 628 0 
L 628 4666 
z
" transform="scale(0.015625)"/>
       <path id="DejaVuSans-61" d="M 2194 1759 
Q 1497 1759 1228 1600 
Q 959 1441 959 1056 
Q 959 750 1161 570 
Q 1363 391 1709 391 
Q 2188 391 2477 730 
Q 2766 1069 2766 1631 
L 2766 1759 
L 2194 1759 
z
M 3341 1997 
L 3341 0 
L 2766 0 
L 2766 531 
Q 2569 213 2275 61 
Q 1981 -91 1556 -91 
Q 1019 -91 701 211 
Q 384 513 384 1019 
Q 384 1609 779 1909 
Q 1175 2209 1959 2209 
L 2766 2209 
L 2766 2266 
Q 2766 2663 2505 2880 
Q 2244 3097 1772 3097 
Q 1472 3097 1187 3025 
Q 903 2953 641 2809 
L 641 3341 
Q 956 3463 1253 3523 
Q 1550 3584 1831 3584 
Q 2591 3584 2966 3190 
Q 3341 2797 3341 1997 
z
" transform="scale(0.015625)"/>
      </defs>
      <use xlink:href="#DejaVuSans-47"/>
      <use xlink:href="#DejaVuSans-58" x="77.490234"/>
      <use xlink:href="#DejaVuSans-42" x="145.996094"/>
      <use xlink:href="#DejaVuSans-65" x="214.599609"/>
      <use xlink:href="#DejaVuSans-61" x="276.123047"/>
      <use xlink:href="#DejaVuSans-6d" x="337.402344"/>
     </g>
    </g>
    <g id="line2d_16">
     <path d="M 339.345749 28.255896 
L 347.345749 28.255896 
L 355.345749 28.255896 
" style="fill: none; stroke: #e36f47; stroke-linejoin: miter"/>
    </g>
    <g id="text_15">
     <!-- ODEProblem -->
     <g transform="translate(361.745749 31.055896) scale(0.08 -0.08)">
      <defs>
       <path id="DejaVuSans-4f" d="M 2522 4238 
Q 1834 4238 1429 3725 
Q 1025 3213 1025 2328 
Q 1025 1447 1429 934 
Q 1834 422 2522 422 
Q 3209 422 3611 934 
Q 4013 1447 4013 2328 
Q 4013 3213 3611 3725 
Q 3209 4238 2522 4238 
z
M 2522 4750 
Q 3503 4750 4090 4092 
Q 4678 3434 4678 2328 
Q 4678 1225 4090 567 
Q 3503 -91 2522 -91 
Q 1538 -91 948 565 
Q 359 1222 359 2328 
Q 359 3434 948 4092 
Q 1538 4750 2522 4750 
z
" transform="scale(0.015625)"/>
       <path id="DejaVuSans-44" d="M 1259 4147 
L 1259 519 
L 2022 519 
Q 2988 519 3436 956 
Q 3884 1394 3884 2338 
Q 3884 3275 3436 3711 
Q 2988 4147 2022 4147 
L 1259 4147 
z
M 628 4666 
L 1925 4666 
Q 3281 4666 3915 4102 
Q 4550 3538 4550 2338 
Q 4550 1131 3912 565 
Q 3275 0 1925 0 
L 628 0 
L 628 4666 
z
" transform="scale(0.015625)"/>
       <path id="DejaVuSans-45" d="M 628 4666 
L 3578 4666 
L 3578 4134 
L 1259 4134 
L 1259 2753 
L 3481 2753 
L 3481 2222 
L 1259 2222 
L 1259 531 
L 3634 531 
L 3634 0 
L 628 0 
L 628 4666 
z
" transform="scale(0.015625)"/>
       <path id="DejaVuSans-50" d="M 1259 4147 
L 1259 2394 
L 2053 2394 
Q 2494 2394 2734 2622 
Q 2975 2850 2975 3272 
Q 2975 3691 2734 3919 
Q 2494 4147 2053 4147 
L 1259 4147 
z
M 628 4666 
L 2053 4666 
Q 2838 4666 3239 4311 
Q 3641 3956 3641 3272 
Q 3641 2581 3239 2228 
Q 2838 1875 2053 1875 
L 1259 1875 
L 1259 0 
L 628 0 
L 628 4666 
z
" transform="scale(0.015625)"/>
       <path id="DejaVuSans-72" d="M 2631 2963 
Q 2534 3019 2420 3045 
Q 2306 3072 2169 3072 
Q 1681 3072 1420 2755 
Q 1159 2438 1159 1844 
L 1159 0 
L 581 0 
L 581 3500 
L 1159 3500 
L 1159 2956 
Q 1341 3275 1631 3429 
Q 1922 3584 2338 3584 
Q 2397 3584 2469 3576 
Q 2541 3569 2628 3553 
L 2631 2963 
z
" transform="scale(0.015625)"/>
       <path id="DejaVuSans-6f" d="M 1959 3097 
Q 1497 3097 1228 2736 
Q 959 2375 959 1747 
Q 959 1119 1226 758 
Q 1494 397 1959 397 
Q 2419 397 2687 759 
Q 2956 1122 2956 1747 
Q 2956 2369 2687 2733 
Q 2419 3097 1959 3097 
z
M 1959 3584 
Q 2709 3584 3137 3096 
Q 3566 2609 3566 1747 
Q 3566 888 3137 398 
Q 2709 -91 1959 -91 
Q 1206 -91 779 398 
Q 353 888 353 1747 
Q 353 2609 779 3096 
Q 1206 3584 1959 3584 
z
" transform="scale(0.015625)"/>
       <path id="DejaVuSans-62" d="M 3116 1747 
Q 3116 2381 2855 2742 
Q 2594 3103 2138 3103 
Q 1681 3103 1420 2742 
Q 1159 2381 1159 1747 
Q 1159 1113 1420 752 
Q 1681 391 2138 391 
Q 2594 391 2855 752 
Q 3116 1113 3116 1747 
z
M 1159 2969 
Q 1341 3281 1617 3432 
Q 1894 3584 2278 3584 
Q 2916 3584 3314 3078 
Q 3713 2572 3713 1747 
Q 3713 922 3314 415 
Q 2916 -91 2278 -91 
Q 1894 -91 1617 61 
Q 1341 213 1159 525 
L 1159 0 
L 581 0 
L 581 4863 
L 1159 4863 
L 1159 2969 
z
" transform="scale(0.015625)"/>
       <path id="DejaVuSans-6c" d="M 603 4863 
L 1178 4863 
L 1178 0 
L 603 0 
L 603 4863 
z
" transform="scale(0.015625)"/>
      </defs>
      <use xlink:href="#DejaVuSans-4f"/>
      <use xlink:href="#DejaVuSans-44" x="78.710938"/>
      <use xlink:href="#DejaVuSans-45" x="155.712891"/>
      <use xlink:href="#DejaVuSans-50" x="218.896484"/>
      <use xlink:href="#DejaVuSans-72" x="277.449219"/>
      <use xlink:href="#DejaVuSans-6f" x="316.3125"/>
      <use xlink:href="#DejaVuSans-62" x="377.494141"/>
      <use xlink:href="#DejaVuSans-6c" x="440.970703"/>
      <use xlink:href="#DejaVuSans-65" x="468.753906"/>
      <use xlink:href="#DejaVuSans-6d" x="530.277344"/>
     </g>
    </g>
    <g id="line2d_17">
     <path d="M 339.345749 39.998396 
L 347.345749 39.998396 
L 355.345749 39.998396 
" style="fill: none; stroke: #3ea44e; stroke-linejoin: miter"/>
    </g>
    <g id="text_16">
     <!-- DAEProblem -->
     <g transform="translate(361.745749 42.798396) scale(0.08 -0.08)">
      <defs>
       <path id="DejaVuSans-41" d="M 2188 4044 
L 1331 1722 
L 3047 1722 
L 2188 4044 
z
M 1831 4666 
L 2547 4666 
L 4325 0 
L 3669 0 
L 3244 1197 
L 1141 1197 
L 716 0 
L 50 0 
L 1831 4666 
z
" transform="scale(0.015625)"/>
      </defs>
      <use xlink:href="#DejaVuSans-44"/>
      <use xlink:href="#DejaVuSans-41" x="75.251953"/>
      <use xlink:href="#DejaVuSans-45" x="143.660156"/>
      <use xlink:href="#DejaVuSans-50" x="206.84375"/>
      <use xlink:href="#DejaVuSans-72" x="265.396484"/>
      <use xlink:href="#DejaVuSans-6f" x="304.259766"/>
      <use xlink:href="#DejaVuSans-62" x="365.441406"/>
      <use xlink:href="#DejaVuSans-6c" x="428.917969"/>
      <use xlink:href="#DejaVuSans-65" x="456.701172"/>
      <use xlink:href="#DejaVuSans-6d" x="518.224609"/>
     </g>
    </g>
   </g>
  </g>
 </g>
 <defs>
  <clipPath id="p1c69faf8ed">
   <rect x="64.557544" y="2.834646" width="357.804455" height="255.390709"/>
  </clipPath>
 </defs>
</svg>
