<?xml version="1.0" encoding="utf-8" standalone="no"?>
<!DOCTYPE svg PUBLIC "-//W3C//DTD SVG 1.1//EN"
  "http://www.w3.org/Graphics/SVG/1.1/DTD/svg11.dtd">
<svg xmlns:xlink="http://www.w3.org/1999/xlink" width="432pt" height="288pt" viewBox="0 0 432 288" xmlns="http://www.w3.org/2000/svg" version="1.1">
 <metadata>
  <rdf:RDF xmlns:dc="http://purl.org/dc/elements/1.1/" xmlns:cc="http://creativecommons.org/ns#" xmlns:rdf="http://www.w3.org/1999/02/22-rdf-syntax-ns#">
   <cc:Work>
    <dc:type rdf:resource="http://purl.org/dc/dcmitype/StillImage"/>
    <dc:date>2023-04-05T00:58:24.840495</dc:date>
    <dc:format>image/svg+xml</dc:format>
    <dc:creator>
     <cc:Agent>
      <dc:title>Matplotlib v3.7.1, https://matplotlib.org/</dc:title>
     </cc:Agent>
    </dc:creator>
   </cc:Work>
  </rdf:RDF>
 </metadata>
 <defs>
  <style type="text/css">*{stroke-linejoin: round; stroke-linecap: butt}</style>
 </defs>
 <g id="figure_1">
  <g id="patch_1">
   <path d="M 0 288 
L 432 288 
L 432 0 
L 0 0 
z
" style="fill: #ffffff"/>
  </g>
  <g id="axes_1">
   <g id="patch_2">
    <path d="M 64.557544 258.225354 
L 422.361999 258.225354 
L 422.361999 2.834646 
L 64.557544 2.834646 
z
" style="fill: #ffffff"/>
   </g>
   <g id="line2d_1">
    <path d="M 64.557544 119.538507 
L 64.736446 119.371061 
L 64.915348 119.422313 
L 65.452055 120.09131 
L 65.809859 119.539633 
L 66.167664 119.132442 
L 66.525468 119.298065 
L 66.70437 119.180626 
L 67.241077 118.515375 
L 67.598882 119.111037 
L 67.956686 119.584191 
L 68.314491 119.646506 
L 68.672295 120.380219 
L 69.030099 121.146419 
L 69.209002 121.138648 
L 69.566806 120.790567 
L 69.745708 120.791209 
L 70.103513 120.968196 
L 70.282415 120.804675 
L 70.819122 119.660099 
L 70.998024 119.608727 
L 71.355828 119.740623 
L 71.713633 119.268332 
L 71.892535 119.012051 
L 72.071437 118.980801 
L 72.608144 119.389687 
L 72.965948 118.683292 
L 73.323753 118.188449 
L 73.681557 118.112603 
L 74.039362 117.310137 
L 74.397166 116.502503 
L 74.576069 116.47828 
L 74.933873 116.689444 
L 75.47058 116.53081 
L 75.649482 116.789844 
L 76.186189 118.165173 
L 76.901797 118.887035 
L 77.259602 119.655851 
L 77.438504 119.810897 
L 77.975211 119.553141 
L 78.333015 120.026063 
L 78.69082 120.466485 
L 79.048624 120.495421 
L 79.227526 120.68875 
L 79.943135 122.2057 
L 80.479842 122.367131 
L 80.837646 122.856618 
L 81.016549 122.910716 
L 81.374353 122.382525 
L 81.732158 121.96916 
L 82.268864 122.119915 
L 82.805571 121.722381 
L 82.984473 121.864846 
L 83.700082 123.019003 
L 84.057887 123.088697 
L 84.415691 123.549079 
L 84.594593 123.788803 
L 84.773495 123.838983 
L 85.1313 123.350086 
L 85.489104 122.985332 
L 85.846909 123.010703 
L 86.025811 122.884693 
L 86.562518 122.048284 
L 86.74142 121.982592 
L 87.278127 122.225871 
L 87.457029 122.057307 
L 87.993736 121.172787 
L 88.530442 120.606041 
L 89.067149 118.656631 
L 89.424953 117.6641 
L 89.782758 116.891157 
L 90.498367 114.871604 
L 90.856171 114.781902 
L 91.035073 114.757564 
L 91.392878 114.339989 
L 91.750682 113.972992 
L 92.287389 114.122728 
L 92.466291 113.964727 
L 93.1819 112.814043 
L 93.718607 112.847706 
L 94.255314 112.35767 
L 94.434216 112.533221 
L 94.970922 113.375503 
L 95.507629 113.387708 
L 96.044336 113.9344 
L 96.223238 113.837789 
L 96.938847 112.818744 
L 97.296651 112.739111 
L 97.654456 112.288601 
L 98.01226 111.955843 
L 98.191163 112.109042 
L 98.727869 112.878046 
L 99.085674 112.969993 
L 99.264576 113.166706 
L 99.801283 114.181234 
L 99.980185 114.211835 
L 100.337989 114.004362 
L 100.516892 114.117591 
L 101.053598 114.780972 
L 101.590305 114.721671 
L 101.948109 115.555128 
L 102.305914 116.46591 
L 103.021523 117.519984 
L 103.379327 118.449125 
L 103.558229 118.672642 
L 103.737132 118.646566 
L 104.094936 118.427845 
L 104.810545 118.597745 
L 105.168349 118.142196 
L 105.347252 118.12535 
L 106.599567 119.71399 
L 107.136274 121.098118 
L 108.030785 122.232256 
L 108.38859 122.933649 
L 108.925296 123.576599 
L 109.283101 124.68358 
L 109.819807 126.612049 
L 110.177612 127.661496 
L 111.072123 131.186093 
L 111.60883 132.145888 
L 111.966634 132.9811 
L 112.324439 133.232383 
L 112.682243 133.175029 
L 113.040047 133.593372 
L 113.397852 134.269998 
L 113.755656 134.466374 
L 113.934559 134.520418 
L 114.113461 134.715837 
L 114.650168 135.713433 
L 114.82907 135.715584 
L 115.365776 135.33292 
L 115.902483 135.416197 
L 116.618092 134.571036 
L 116.796994 134.67264 
L 117.333701 135.310117 
L 117.870408 135.408174 
L 118.586017 136.499001 
L 118.943821 136.110701 
L 119.301625 135.807311 
L 119.65943 135.627528 
L 120.017234 134.884562 
L 120.553941 133.676014 
L 121.090648 133.284955 
L 121.806257 132.010344 
L 122.164061 131.894842 
L 122.342963 131.643744 
L 124.48979 126.095894 
L 124.847595 125.907505 
L 125.384301 125.373965 
L 125.742106 125.693379 
L 125.921008 125.865318 
L 126.09991 125.839749 
L 126.815519 125.03036 
L 126.994421 125.019392 
L 127.173323 124.888413 
L 127.531128 124.013895 
L 127.888932 123.149016 
L 128.604541 122.589939 
L 128.962346 121.830432 
L 129.141248 121.651328 
L 129.499052 121.628054 
L 129.677955 121.433054 
L 130.035759 120.342935 
L 130.393564 119.296852 
L 130.751368 118.511834 
L 131.109172 116.89568 
L 131.645879 114.588898 
L 132.003684 113.6948 
L 132.719293 111.292773 
L 133.255999 110.523262 
L 134.687217 106.401844 
L 135.223924 104.328784 
L 136.655142 101.037977 
L 136.834044 100.959911 
L 137.191848 100.246976 
L 137.549653 99.439059 
L 138.086359 98.742481 
L 139.159773 96.388206 
L 140.054284 95.902891 
L 140.233186 96.034907 
L 141.127697 97.623967 
L 141.664404 98.497709 
L 142.201111 99.343904 
L 142.558915 99.607131 
L 142.91672 99.704493 
L 143.274524 100.287697 
L 143.632328 100.86104 
L 143.990133 101.192517 
L 145.242448 102.959427 
L 145.600253 102.772235 
L 146.315862 102.194504 
L 147.210373 100.406991 
L 147.74708 99.901752 
L 148.641591 99.420957 
L 148.999395 99.660574 
L 149.178297 99.590093 
L 149.893906 98.888421 
L 150.609515 98.474983 
L 151.325124 97.884112 
L 152.040733 98.583759 
L 152.398538 98.551088 
L 153.114146 99.039147 
L 153.471951 98.690452 
L 154.366462 97.312067 
L 154.724267 96.682612 
L 155.082071 95.815659 
L 155.260973 95.6124 
L 155.976582 95.807883 
L 156.334387 95.609338 
L 156.513289 95.772693 
L 157.228898 96.842496 
L 157.586702 96.965313 
L 157.765604 97.195398 
L 158.660116 99.527708 
L 159.01792 100.845013 
L 160.270236 108.650763 
L 160.806942 112.527798 
L 161.522551 116.593765 
L 162.059258 119.379011 
L 162.595965 121.915412 
L 164.384987 131.542279 
L 164.921694 133.23408 
L 165.995107 136.575827 
L 166.352911 137.600697 
L 167.426325 141.654041 
L 168.499738 145.0458 
L 169.394249 145.434745 
L 169.573151 145.371745 
L 169.930956 144.863038 
L 170.467663 144.146065 
L 171.183271 143.763198 
L 171.719978 142.997281 
L 172.256685 142.693256 
L 172.614489 142.051063 
L 173.330098 140.680925 
L 174.224609 140.23319 
L 174.403512 140.289994 
L 174.761316 141.053523 
L 175.655827 143.354108 
L 176.729241 146.016238 
L 177.444849 146.711047 
L 177.802654 147.176087 
L 178.339361 147.42955 
L 178.876067 147.900683 
L 179.412774 148.078814 
L 179.591676 148.039147 
L 180.486187 146.989209 
L 181.559601 144.833471 
L 181.917405 144.276704 
L 182.096307 144.167285 
L 182.454112 144.302608 
L 182.990819 144.662696 
L 184.422036 146.652788 
L 184.779841 146.733401 
L 185.137645 147.145019 
L 185.49545 147.451017 
L 186.032156 147.394523 
L 186.568863 147.838552 
L 186.747765 147.730139 
L 187.463374 146.637094 
L 187.821179 145.657147 
L 188.536788 142.218291 
L 189.431299 137.199677 
L 190.146908 133.625536 
L 195.871779 106.560536 
L 196.945192 101.328538 
L 197.481899 99.829543 
L 197.839703 99.508461 
L 198.197508 99.5301 
L 198.555312 99.7762 
L 199.092019 100.724096 
L 201.059944 103.733497 
L 201.775552 104.378298 
L 201.954455 104.357531 
L 202.312259 103.978276 
L 202.670064 103.389521 
L 203.027868 102.313194 
L 203.743477 98.510791 
L 205.532499 88.374947 
L 206.248108 86.432171 
L 206.605913 86.129861 
L 206.963717 86.311723 
L 207.679326 87.051516 
L 208.03713 88.172573 
L 208.931642 92.070455 
L 211.078468 104.726366 
L 211.436273 105.163641 
L 211.794077 105.215531 
L 211.972979 105.081024 
L 212.151882 104.707754 
L 212.509686 103.090411 
L 215.014317 90.202855 
L 215.551024 87.750349 
L 216.266633 86.06648 
L 216.445535 85.785772 
L 216.624437 85.80369 
L 216.80334 86.168596 
L 217.161144 87.648113 
L 217.697851 91.157261 
L 218.234557 96.819347 
L 219.129069 106.351289 
L 219.844677 112.608467 
L 221.454797 120.93094 
L 222.170406 125.181501 
L 223.959429 133.731183 
L 224.317233 136.339768 
L 225.032842 144.935582 
L 225.569549 153.647961 
L 226.46406 168.070772 
L 227.000767 174.800832 
L 227.537473 178.790426 
L 227.895278 180.0784 
L 228.431984 180.76573 
L 228.610887 180.706012 
L 228.968691 179.569273 
L 229.6843 176.039728 
L 230.221007 171.10689 
L 230.757713 164.465105 
L 232.546736 139.127641 
L 232.90454 135.898691 
L 233.441247 133.462333 
L 233.799051 132.535882 
L 233.977953 132.414337 
L 234.335758 132.737017 
L 235.409171 133.940138 
L 235.588073 134.070905 
L 235.945878 134.874378 
L 236.482585 136.856118 
L 236.840389 138.893453 
L 238.629411 151.330336 
L 238.808314 151.668851 
L 238.987216 151.681193 
L 239.34502 150.901537 
L 239.881727 148.966159 
L 240.597336 145.594238 
L 241.134043 144.169416 
L 242.386358 141.525795 
L 242.744163 139.980397 
L 243.638674 134.90177 
L 243.996478 133.782723 
L 244.17538 133.688017 
L 244.354283 134.006283 
L 244.712087 135.854885 
L 245.069892 139.141388 
L 245.964403 151.00712 
L 246.501109 157.137799 
L 246.858914 159.356321 
L 247.216718 160.513738 
L 247.395621 160.66517 
L 247.574523 160.470226 
L 247.932327 159.327127 
L 248.647936 156.288326 
L 249.184643 152.271242 
L 249.542447 148.392589 
L 250.079154 139.441108 
L 250.794763 121.522623 
L 251.868176 93.681407 
L 252.404883 85.37385 
L 252.762687 82.295385 
L 253.120492 81.139968 
L 253.299394 81.133805 
L 253.836101 81.575322 
L 254.193905 81.914371 
L 254.372807 81.886454 
L 254.909514 81.382113 
L 255.446221 81.343366 
L 255.625123 81.607656 
L 255.982927 83.405406 
L 257.593047 94.446537 
L 257.77195 94.679899 
L 257.950852 94.555054 
L 258.308656 93.236255 
L 259.38207 87.517846 
L 259.560972 87.132673 
L 259.739874 87.026932 
L 259.918776 87.213298 
L 260.097679 87.705636 
L 260.455483 89.749677 
L 261.707799 98.647612 
L 262.065603 99.5269 
L 262.244505 99.729352 
L 262.423408 99.638841 
L 262.781212 98.557432 
L 263.139017 97.388012 
L 263.675723 96.420602 
L 263.854625 96.281911 
L 264.033528 96.444341 
L 265.106941 99.32697 
L 265.285843 99.41045 
L 265.464746 99.013728 
L 265.82255 97.243208 
L 266.180354 94.583399 
L 267.43267 83.390477 
L 267.611572 82.837405 
L 267.790474 82.957499 
L 268.148279 84.901802 
L 268.506083 88.252254 
L 269.579497 100.830663 
L 269.937301 103.116668 
L 270.116203 103.52757 
L 270.295106 103.296582 
L 270.65291 101.58383 
L 271.189617 97.531977 
L 271.905226 92.207459 
L 272.26303 90.777405 
L 272.620835 90.235081 
L 272.978639 90.345055 
L 273.157541 90.413377 
L 273.515346 90.184948 
L 273.694248 89.871438 
L 274.052052 88.535942 
L 274.409857 86.173926 
L 275.125466 78.925078 
L 275.841075 72.351028 
L 276.019977 71.714149 
L 276.198879 71.631932 
L 276.377781 71.993501 
L 276.735586 74.034273 
L 277.09339 77.957751 
L 277.808999 89.726339 
L 278.524608 101.249203 
L 279.240217 108.092327 
L 279.776924 110.89307 
L 280.31363 113.951393 
L 281.565946 123.035114 
L 281.92375 124.068279 
L 282.102653 124.062291 
L 283.176066 123.080624 
L 283.354968 123.557217 
L 283.712773 126.956389 
L 284.249479 135.871889 
L 284.965088 154.67124 
L 285.859599 176.63764 
L 286.575208 187.454252 
L 286.933013 190.603667 
L 287.648622 193.963528 
L 287.827524 194.063759 
L 288.006426 193.658273 
L 288.364231 191.850599 
L 288.722035 188.055965 
L 289.258742 178.504761 
L 289.795448 164.742034 
L 291.047764 130.394866 
L 291.584471 120.978782 
L 291.942275 117.165485 
L 292.30008 115.468009 
L 292.657884 114.685146 
L 292.836786 114.893011 
L 293.552395 117.527496 
L 293.9102 119.46777 
L 294.446906 124.383938 
L 294.804711 129.070553 
L 295.52032 142.911845 
L 297.13044 181.147863 
L 297.667146 187.681932 
L 298.024951 189.318622 
L 298.203853 189.057934 
L 298.561658 186.756886 
L 298.919462 182.534833 
L 299.635071 169.541441 
L 301.424093 132.536806 
L 302.139702 123.275039 
L 302.497507 120.772854 
L 302.676409 120.322366 
L 302.855311 120.33181 
L 303.034213 120.779747 
L 303.392018 123.273615 
L 303.928724 130.877635 
L 304.465431 141.793561 
L 306.433356 190.527557 
L 307.327867 213.311924 
L 307.685671 217.386788 
L 307.864573 217.225934 
L 308.043476 215.647404 
L 308.40128 208.829877 
L 308.759085 196.232257 
L 309.653596 149.877555 
L 310.548107 106.281166 
L 311.084814 88.955196 
L 311.62152 79.349716 
L 311.979325 76.143946 
L 312.337129 74.967244 
L 312.694934 74.633601 
L 312.873836 74.754257 
L 313.052738 75.228621 
L 313.410543 77.380732 
L 313.947249 82.257517 
L 314.305054 87.922089 
L 315.378467 108.113472 
L 315.736272 110.687814 
L 315.915174 110.172896 
L 316.094076 108.112055 
L 316.45188 99.640859 
L 317.167489 72.267514 
L 317.883098 43.722498 
L 318.240903 35.546572 
L 318.598707 32.486823 
L 318.777609 32.457876 
L 318.956512 33.332354 
L 320.029925 41.937536 
L 320.566632 43.888918 
L 320.924436 47.006831 
L 321.282241 53.53074 
L 321.640045 65.008169 
L 322.176752 93.775226 
L 323.071263 149.247203 
L 323.429067 162.306877 
L 323.786872 167.336496 
L 323.965774 167.119342 
L 324.144676 165.555432 
L 324.502481 158.93013 
L 325.21809 138.376147 
L 325.933698 119.163271 
L 326.82821 102.909677 
L 327.722721 90.205602 
L 328.080525 81.463555 
L 328.617232 61.830548 
L 329.690645 19.083601 
L 329.869547 16.196252 
L 330.04845 15.382478 
L 330.227352 16.641806 
L 330.406254 20.024071 
L 330.764059 33.268594 
L 331.479668 75.312746 
L 332.195276 112.563748 
L 332.731983 128.980841 
L 333.089788 132.602204 
L 333.26869 132.371071 
L 333.626494 128.833355 
L 334.521005 117.033517 
L 334.699908 117.217402 
L 334.87881 118.488986 
L 335.415517 126.74161 
L 335.773321 131.733347 
L 336.131125 134.071335 
L 336.310028 133.918361 
L 336.48893 132.408118 
L 336.846734 124.697918 
L 337.383441 103.384885 
L 338.635757 49.603903 
L 338.993561 41.318829 
L 339.530268 35.064937 
L 339.888072 32.966066 
L 340.066974 33.058014 
L 340.424779 35.17559 
L 341.31929 42.627896 
L 341.677095 48.252007 
L 342.213801 62.018721 
L 343.287215 95.750035 
L 343.645019 100.095367 
L 343.823921 100.86181 
L 344.002823 100.513155 
L 344.181726 99.097106 
L 345.076237 86.342685 
L 345.255139 86.085039 
L 345.434041 87.054641 
L 345.791846 92.506124 
L 346.328552 106.699728 
L 346.865259 120.418443 
L 347.223064 124.081189 
L 347.401966 124.349398 
L 347.580868 123.706275 
L 347.75977 122.138118 
L 348.475379 110.799447 
L 348.654281 110.834669 
L 348.833184 113.215224 
L 349.190988 123.216651 
L 350.801108 181.80574 
L 351.158913 185.330798 
L 351.337815 184.961511 
L 351.516717 183.368209 
L 351.874522 176.872359 
L 352.411228 165.732092 
L 352.59013 164.740094 
L 352.769033 165.460155 
L 353.126837 170.227272 
L 354.558055 193.862456 
L 354.736957 192.914999 
L 354.915859 189.720012 
L 355.273664 177.488646 
L 356.168175 137.648983 
L 356.525979 132.225021 
L 356.704882 132.599294 
L 356.883784 134.383579 
L 357.241588 141.356272 
L 357.599393 153.07097 
L 358.493904 185.754376 
L 358.672806 186.627369 
L 358.851708 184.235664 
L 359.209513 170.453402 
L 360.104024 120.730866 
L 360.282926 117.048553 
L 360.461828 116.261516 
L 360.640731 117.722668 
L 360.998535 125.491124 
L 361.35634 138.665082 
L 362.071948 178.612542 
L 362.429753 194.585135 
L 362.608655 197.902142 
L 362.787557 196.922832 
L 362.96646 191.312088 
L 363.324264 167.272781 
L 364.039873 112.58104 
L 364.397677 102.35745 
L 364.57658 101.379061 
L 364.755482 102.685698 
L 364.934384 106.10757 
L 365.292189 119.68045 
L 365.828895 156.058538 
L 366.365602 196.797916 
L 366.544504 205.052984 
L 366.723406 207.725491 
L 366.902309 203.707572 
L 367.260113 177.584992 
L 367.975722 115.325935 
L 368.333526 102.160542 
L 368.512429 100.09368 
L 368.691331 100.837048 
L 368.870233 104.38162 
L 369.228038 120.617932 
L 369.764744 162.103192 
L 370.301451 202.975195 
L 370.659255 214.357863 
L 370.838158 211.878417 
L 371.195962 192.064698 
L 372.090473 128.495467 
L 372.269375 122.844071 
L 372.448278 121.020127 
L 372.62718 123.240295 
L 372.984984 138.659728 
L 374.2373 221.077759 
L 374.416202 221.304987 
L 374.595104 215.677656 
L 374.952909 188.65121 
L 376.026322 78.396636 
L 376.205224 71.85359 
L 376.384127 70.831818 
L 376.563029 74.217154 
L 376.920833 89.446217 
L 377.815345 136.077839 
L 377.994247 133.55352 
L 378.352051 114.739523 
L 379.246562 51.405739 
L 379.783269 15.162914 
L 379.962171 12.369414 
L 380.141073 15.917496 
L 380.498878 39.329044 
L 381.572291 130.8969 
L 381.751194 137.354092 
L 381.930096 139.375618 
L 382.108998 137.641543 
L 382.466802 128.301911 
L 382.824607 113.953865 
L 383.89802 60.293077 
L 384.076922 61.300957 
L 384.255825 66.910893 
L 384.613629 89.811643 
L 385.150336 127.435073 
L 385.329238 133.845867 
L 385.50814 136.139955 
L 385.687043 135.162106 
L 386.223749 128.616581 
L 386.402651 127.808145 
L 386.581554 125.675286 
L 386.760456 119.495744 
L 387.11826 91.015104 
L 387.654967 38.950839 
L 387.833869 30.208679 
L 388.012772 28.613632 
L 388.191674 33.849245 
L 388.549478 60.31744 
L 389.086185 99.741814 
L 389.265087 104.395973 
L 389.443989 105.223429 
L 389.801794 103.696683 
L 389.980696 106.038434 
L 390.517403 123.638781 
L 390.696305 124.149761 
L 390.875207 118.444172 
L 391.769718 64.604589 
L 391.948621 65.283736 
L 392.127523 72.493853 
L 392.843132 121.019477 
L 393.022034 125.354558 
L 393.200936 125.350498 
L 393.558741 121.645463 
L 393.737643 123.450097 
L 394.095447 137.92145 
L 394.453252 149.524341 
L 394.632154 146.066651 
L 394.989958 121.216248 
L 395.526665 77.48106 
L 395.88447 65.901295 
L 396.063372 66.419526 
L 396.778981 76.847297 
L 396.957883 75.815883 
L 397.315687 71.533475 
L 397.49459 70.680823 
L 397.673492 71.64881 
L 398.031296 76.559357 
L 398.210198 76.443469 
L 398.389101 72.423254 
L 398.746905 53.699626 
L 399.283612 23.038477 
L 399.641416 14.205191 
L 399.820319 16.617694 
L 400.178123 35.073744 
L 400.71483 67.536196 
L 401.609341 99.511614 
L 401.967145 120.159014 
L 402.146047 122.579764 
L 402.32495 116.342017 
L 402.861656 79.43354 
L 403.040559 75.137506 
L 403.219461 75.769689 
L 404.113972 91.782329 
L 404.471776 119.209227 
L 404.829581 150.73498 
L 405.008483 156.754348 
L 405.187385 155.079371 
L 405.54519 146.401701 
L 405.724092 145.18493 
L 405.902994 142.96679 
L 406.081897 134.194305 
L 406.976408 54.534146 
L 407.334212 59.343868 
L 407.692017 56.21822 
L 407.870919 60.034194 
L 408.049821 74.127951 
L 408.76543 153.011774 
L 409.659941 170.818106 
L 409.838843 168.236378 
L 410.37555 147.16814 
L 410.554452 148.618039 
L 411.627866 186.579628 
L 412.522377 248.479893 
L 412.701279 247.231847 
L 413.059083 233.668664 
L 413.416888 211.35986 
L 414.311399 136.549865 
L 414.669203 121.154831 
L 415.20591 89.825277 
L 415.384812 93.209522 
L 416.100421 138.144953 
L 416.279323 140.059449 
L 416.458226 136.368716 
L 416.81603 126.392078 
L 416.994932 126.330188 
L 417.173835 128.403638 
L 417.352737 127.798076 
L 417.531639 120.544057 
L 418.247248 67.519533 
L 418.42615 66.623691 
L 418.605052 66.93321 
L 418.962857 64.138371 
L 419.141759 66.892702 
L 419.320661 76.693765 
L 421.109684 240.211332 
L 421.288586 242.495975 
L 421.467488 238.240971 
L 422.361999 196.444053 
L 422.361999 196.444053 
" clip-path="url(#pc04273f360)" style="fill: none; stroke: #009afa"/>
   </g>
   <g id="matplotlib.axis_1">
    <g id="xtick_1">
     <g id="line2d_2">
      <defs>
       <path id="mabb4b28ae9" d="M 0 0 
L 0 -2.5 
" style="stroke: #000000; stroke-width: 0.5"/>
      </defs>
      <g>
       <use xlink:href="#mabb4b28ae9" x="64.557544" y="258.225354" style="stroke: #000000; stroke-width: 0.5"/>
      </g>
     </g>
     <g id="text_1">
      <!-- $0.0$ -->
      <g transform="translate(58.157544 267.804104) scale(0.08 -0.08)">
       <defs>
        <path id="DejaVuSans-30" d="M 2034 4250 
Q 1547 4250 1301 3770 
Q 1056 3291 1056 2328 
Q 1056 1369 1301 889 
Q 1547 409 2034 409 
Q 2525 409 2770 889 
Q 3016 1369 3016 2328 
Q 3016 3291 2770 3770 
Q 2525 4250 2034 4250 
z
M 2034 4750 
Q 2819 4750 3233 4129 
Q 3647 3509 3647 2328 
Q 3647 1150 3233 529 
Q 2819 -91 2034 -91 
Q 1250 -91 836 529 
Q 422 1150 422 2328 
Q 422 3509 836 4129 
Q 1250 4750 2034 4750 
z
" transform="scale(0.015625)"/>
        <path id="DejaVuSans-2e" d="M 684 794 
L 1344 794 
L 1344 0 
L 684 0 
L 684 794 
z
" transform="scale(0.015625)"/>
       </defs>
       <use xlink:href="#DejaVuSans-30" transform="translate(0 0.78125)"/>
       <use xlink:href="#DejaVuSans-2e" transform="translate(63.623047 0.78125)"/>
       <use xlink:href="#DejaVuSans-30" transform="translate(95.410156 0.78125)"/>
      </g>
     </g>
    </g>
    <g id="xtick_2">
     <g id="line2d_3">
      <g>
       <use xlink:href="#mabb4b28ae9" x="154.008658" y="258.225354" style="stroke: #000000; stroke-width: 0.5"/>
      </g>
     </g>
     <g id="text_2">
      <!-- $0.5$ -->
      <g transform="translate(147.608658 267.804104) scale(0.08 -0.08)">
       <defs>
        <path id="DejaVuSans-35" d="M 691 4666 
L 3169 4666 
L 3169 4134 
L 1269 4134 
L 1269 2991 
Q 1406 3038 1543 3061 
Q 1681 3084 1819 3084 
Q 2600 3084 3056 2656 
Q 3513 2228 3513 1497 
Q 3513 744 3044 326 
Q 2575 -91 1722 -91 
Q 1428 -91 1123 -41 
Q 819 9 494 109 
L 494 744 
Q 775 591 1075 516 
Q 1375 441 1709 441 
Q 2250 441 2565 725 
Q 2881 1009 2881 1497 
Q 2881 1984 2565 2268 
Q 2250 2553 1709 2553 
Q 1456 2553 1204 2497 
Q 953 2441 691 2322 
L 691 4666 
z
" transform="scale(0.015625)"/>
       </defs>
       <use xlink:href="#DejaVuSans-30" transform="translate(0 0.78125)"/>
       <use xlink:href="#DejaVuSans-2e" transform="translate(63.623047 0.78125)"/>
       <use xlink:href="#DejaVuSans-35" transform="translate(95.410156 0.78125)"/>
      </g>
     </g>
    </g>
    <g id="xtick_3">
     <g id="line2d_4">
      <g>
       <use xlink:href="#mabb4b28ae9" x="243.459771" y="258.225354" style="stroke: #000000; stroke-width: 0.5"/>
      </g>
     </g>
     <g id="text_3">
      <!-- $1.0$ -->
      <g transform="translate(237.059771 267.804104) scale(0.08 -0.08)">
       <defs>
        <path id="DejaVuSans-31" d="M 794 531 
L 1825 531 
L 1825 4091 
L 703 3866 
L 703 4441 
L 1819 4666 
L 2450 4666 
L 2450 531 
L 3481 531 
L 3481 0 
L 794 0 
L 794 531 
z
" transform="scale(0.015625)"/>
       </defs>
       <use xlink:href="#DejaVuSans-31" transform="translate(0 0.78125)"/>
       <use xlink:href="#DejaVuSans-2e" transform="translate(63.623047 0.78125)"/>
       <use xlink:href="#DejaVuSans-30" transform="translate(95.410156 0.78125)"/>
      </g>
     </g>
    </g>
    <g id="xtick_4">
     <g id="line2d_5">
      <g>
       <use xlink:href="#mabb4b28ae9" x="332.910885" y="258.225354" style="stroke: #000000; stroke-width: 0.5"/>
      </g>
     </g>
     <g id="text_4">
      <!-- $1.5$ -->
      <g transform="translate(326.510885 267.804104) scale(0.08 -0.08)">
       <use xlink:href="#DejaVuSans-31" transform="translate(0 0.09375)"/>
       <use xlink:href="#DejaVuSans-2e" transform="translate(63.623047 0.09375)"/>
       <use xlink:href="#DejaVuSans-35" transform="translate(95.410156 0.09375)"/>
      </g>
     </g>
    </g>
    <g id="xtick_5">
     <g id="line2d_6">
      <g>
       <use xlink:href="#mabb4b28ae9" x="422.361999" y="258.225354" style="stroke: #000000; stroke-width: 0.5"/>
      </g>
     </g>
     <g id="text_5">
      <!-- $2.0$ -->
      <g transform="translate(415.961999 267.804104) scale(0.08 -0.08)">
       <defs>
        <path id="DejaVuSans-32" d="M 1228 531 
L 3431 531 
L 3431 0 
L 469 0 
L 469 531 
Q 828 903 1448 1529 
Q 2069 2156 2228 2338 
Q 2531 2678 2651 2914 
Q 2772 3150 2772 3378 
Q 2772 3750 2511 3984 
Q 2250 4219 1831 4219 
Q 1534 4219 1204 4116 
Q 875 4013 500 3803 
L 500 4441 
Q 881 4594 1212 4672 
Q 1544 4750 1819 4750 
Q 2544 4750 2975 4387 
Q 3406 4025 3406 3419 
Q 3406 3131 3298 2873 
Q 3191 2616 2906 2266 
Q 2828 2175 2409 1742 
Q 1991 1309 1228 531 
z
" transform="scale(0.015625)"/>
       </defs>
       <use xlink:href="#DejaVuSans-32" transform="translate(0 0.78125)"/>
       <use xlink:href="#DejaVuSans-2e" transform="translate(63.623047 0.78125)"/>
       <use xlink:href="#DejaVuSans-30" transform="translate(95.410156 0.78125)"/>
      </g>
     </g>
    </g>
    <g id="text_6">
     <!-- Time (s) -->
     <g transform="translate(221.097975 281.826136) scale(0.11 -0.11)">
      <defs>
       <path id="DejaVuSans-54" d="M -19 4666 
L 3928 4666 
L 3928 4134 
L 2272 4134 
L 2272 0 
L 1638 0 
L 1638 4134 
L -19 4134 
L -19 4666 
z
" transform="scale(0.015625)"/>
       <path id="DejaVuSans-69" d="M 603 3500 
L 1178 3500 
L 1178 0 
L 603 0 
L 603 3500 
z
M 603 4863 
L 1178 4863 
L 1178 4134 
L 603 4134 
L 603 4863 
z
" transform="scale(0.015625)"/>
       <path id="DejaVuSans-6d" d="M 3328 2828 
Q 3544 3216 3844 3400 
Q 4144 3584 4550 3584 
Q 5097 3584 5394 3201 
Q 5691 2819 5691 2113 
L 5691 0 
L 5113 0 
L 5113 2094 
Q 5113 2597 4934 2840 
Q 4756 3084 4391 3084 
Q 3944 3084 3684 2787 
Q 3425 2491 3425 1978 
L 3425 0 
L 2847 0 
L 2847 2094 
Q 2847 2600 2669 2842 
Q 2491 3084 2119 3084 
Q 1678 3084 1418 2786 
Q 1159 2488 1159 1978 
L 1159 0 
L 581 0 
L 581 3500 
L 1159 3500 
L 1159 2956 
Q 1356 3278 1631 3431 
Q 1906 3584 2284 3584 
Q 2666 3584 2933 3390 
Q 3200 3197 3328 2828 
z
" transform="scale(0.015625)"/>
       <path id="DejaVuSans-65" d="M 3597 1894 
L 3597 1613 
L 953 1613 
Q 991 1019 1311 708 
Q 1631 397 2203 397 
Q 2534 397 2845 478 
Q 3156 559 3463 722 
L 3463 178 
Q 3153 47 2828 -22 
Q 2503 -91 2169 -91 
Q 1331 -91 842 396 
Q 353 884 353 1716 
Q 353 2575 817 3079 
Q 1281 3584 2069 3584 
Q 2775 3584 3186 3129 
Q 3597 2675 3597 1894 
z
M 3022 2063 
Q 3016 2534 2758 2815 
Q 2500 3097 2075 3097 
Q 1594 3097 1305 2825 
Q 1016 2553 972 2059 
L 3022 2063 
z
" transform="scale(0.015625)"/>
       <path id="DejaVuSans-20" transform="scale(0.015625)"/>
       <path id="DejaVuSans-28" d="M 1984 4856 
Q 1566 4138 1362 3434 
Q 1159 2731 1159 2009 
Q 1159 1288 1364 580 
Q 1569 -128 1984 -844 
L 1484 -844 
Q 1016 -109 783 600 
Q 550 1309 550 2009 
Q 550 2706 781 3412 
Q 1013 4119 1484 4856 
L 1984 4856 
z
" transform="scale(0.015625)"/>
       <path id="DejaVuSans-73" d="M 2834 3397 
L 2834 2853 
Q 2591 2978 2328 3040 
Q 2066 3103 1784 3103 
Q 1356 3103 1142 2972 
Q 928 2841 928 2578 
Q 928 2378 1081 2264 
Q 1234 2150 1697 2047 
L 1894 2003 
Q 2506 1872 2764 1633 
Q 3022 1394 3022 966 
Q 3022 478 2636 193 
Q 2250 -91 1575 -91 
Q 1294 -91 989 -36 
Q 684 19 347 128 
L 347 722 
Q 666 556 975 473 
Q 1284 391 1588 391 
Q 1994 391 2212 530 
Q 2431 669 2431 922 
Q 2431 1156 2273 1281 
Q 2116 1406 1581 1522 
L 1381 1569 
Q 847 1681 609 1914 
Q 372 2147 372 2553 
Q 372 3047 722 3315 
Q 1072 3584 1716 3584 
Q 2034 3584 2315 3537 
Q 2597 3491 2834 3397 
z
" transform="scale(0.015625)"/>
       <path id="DejaVuSans-29" d="M 513 4856 
L 1013 4856 
Q 1481 4119 1714 3412 
Q 1947 2706 1947 2009 
Q 1947 1309 1714 600 
Q 1481 -109 1013 -844 
L 513 -844 
Q 928 -128 1133 580 
Q 1338 1288 1338 2009 
Q 1338 2731 1133 3434 
Q 928 4138 513 4856 
z
" transform="scale(0.015625)"/>
      </defs>
      <use xlink:href="#DejaVuSans-54"/>
      <use xlink:href="#DejaVuSans-69" x="57.958984"/>
      <use xlink:href="#DejaVuSans-6d" x="85.742188"/>
      <use xlink:href="#DejaVuSans-65" x="183.154297"/>
      <use xlink:href="#DejaVuSans-20" x="244.677734"/>
      <use xlink:href="#DejaVuSans-28" x="276.464844"/>
      <use xlink:href="#DejaVuSans-73" x="315.478516"/>
      <use xlink:href="#DejaVuSans-29" x="367.578125"/>
     </g>
    </g>
   </g>
   <g id="matplotlib.axis_2">
    <g id="ytick_1">
     <g id="line2d_7">
      <defs>
       <path id="m58f0ad1832" d="M 0 0 
L 2.5 0 
" style="stroke: #000000; stroke-width: 0.5"/>
      </defs>
      <g>
       <use xlink:href="#m58f0ad1832" x="64.557544" y="249.573802" style="stroke: #000000; stroke-width: 0.5"/>
      </g>
     </g>
     <g id="text_7">
      <!-- $-1.0×10^{6}$ -->
      <g transform="translate(20.817544 252.613177) scale(0.08 -0.08)">
       <defs>
        <path id="DejaVuSans-2212" d="M 678 2272 
L 4684 2272 
L 4684 1741 
L 678 1741 
L 678 2272 
z
" transform="scale(0.015625)"/>
        <path id="DejaVuSans-d7" d="M 4488 3438 
L 3059 2003 
L 4488 575 
L 4116 197 
L 2681 1631 
L 1247 197 
L 878 575 
L 2303 2003 
L 878 3438 
L 1247 3816 
L 2681 2381 
L 4116 3816 
L 4488 3438 
z
" transform="scale(0.015625)"/>
        <path id="DejaVuSans-36" d="M 2113 2584 
Q 1688 2584 1439 2293 
Q 1191 2003 1191 1497 
Q 1191 994 1439 701 
Q 1688 409 2113 409 
Q 2538 409 2786 701 
Q 3034 994 3034 1497 
Q 3034 2003 2786 2293 
Q 2538 2584 2113 2584 
z
M 3366 4563 
L 3366 3988 
Q 3128 4100 2886 4159 
Q 2644 4219 2406 4219 
Q 1781 4219 1451 3797 
Q 1122 3375 1075 2522 
Q 1259 2794 1537 2939 
Q 1816 3084 2150 3084 
Q 2853 3084 3261 2657 
Q 3669 2231 3669 1497 
Q 3669 778 3244 343 
Q 2819 -91 2113 -91 
Q 1303 -91 875 529 
Q 447 1150 447 2328 
Q 447 3434 972 4092 
Q 1497 4750 2381 4750 
Q 2619 4750 2861 4703 
Q 3103 4656 3366 4563 
z
" transform="scale(0.015625)"/>
       </defs>
       <use xlink:href="#DejaVuSans-2212" transform="translate(0 0.765625)"/>
       <use xlink:href="#DejaVuSans-31" transform="translate(83.789062 0.765625)"/>
       <use xlink:href="#DejaVuSans-2e" transform="translate(147.412109 0.765625)"/>
       <use xlink:href="#DejaVuSans-30" transform="translate(179.199219 0.765625)"/>
       <use xlink:href="#DejaVuSans-d7" transform="translate(242.822266 0.765625)"/>
       <use xlink:href="#DejaVuSans-31" transform="translate(326.611328 0.765625)"/>
       <use xlink:href="#DejaVuSans-30" transform="translate(390.234375 0.765625)"/>
       <use xlink:href="#DejaVuSans-36" transform="translate(454.814453 39.046875) scale(0.7)"/>
      </g>
     </g>
    </g>
    <g id="ytick_2">
     <g id="line2d_8">
      <g>
       <use xlink:href="#m58f0ad1832" x="64.557544" y="184.556154" style="stroke: #000000; stroke-width: 0.5"/>
      </g>
     </g>
     <g id="text_8">
      <!-- $-5.0×10^{5}$ -->
      <g transform="translate(20.817544 187.595529) scale(0.08 -0.08)">
       <use xlink:href="#DejaVuSans-2212" transform="translate(0 0.684375)"/>
       <use xlink:href="#DejaVuSans-35" transform="translate(83.789062 0.684375)"/>
       <use xlink:href="#DejaVuSans-2e" transform="translate(147.412109 0.684375)"/>
       <use xlink:href="#DejaVuSans-30" transform="translate(179.199219 0.684375)"/>
       <use xlink:href="#DejaVuSans-d7" transform="translate(242.822266 0.684375)"/>
       <use xlink:href="#DejaVuSans-31" transform="translate(326.611328 0.684375)"/>
       <use xlink:href="#DejaVuSans-30" transform="translate(390.234375 0.684375)"/>
       <use xlink:href="#DejaVuSans-35" transform="translate(454.814453 38.965625) scale(0.7)"/>
      </g>
     </g>
    </g>
    <g id="ytick_3">
     <g id="line2d_9">
      <g>
       <use xlink:href="#m58f0ad1832" x="64.557544" y="119.538507" style="stroke: #000000; stroke-width: 0.5"/>
      </g>
     </g>
     <g id="text_9">
      <!-- $0$ -->
      <g transform="translate(55.937544 122.577882) scale(0.08 -0.08)">
       <use xlink:href="#DejaVuSans-30" transform="translate(0 0.78125)"/>
      </g>
     </g>
    </g>
    <g id="ytick_4">
     <g id="line2d_10">
      <g>
       <use xlink:href="#m58f0ad1832" x="64.557544" y="54.520859" style="stroke: #000000; stroke-width: 0.5"/>
      </g>
     </g>
     <g id="text_10">
      <!-- $5.0×10^{5}$ -->
      <g transform="translate(27.537544 57.560234) scale(0.08 -0.08)">
       <use xlink:href="#DejaVuSans-35" transform="translate(0 0.684375)"/>
       <use xlink:href="#DejaVuSans-2e" transform="translate(63.623047 0.684375)"/>
       <use xlink:href="#DejaVuSans-30" transform="translate(95.410156 0.684375)"/>
       <use xlink:href="#DejaVuSans-d7" transform="translate(159.033203 0.684375)"/>
       <use xlink:href="#DejaVuSans-31" transform="translate(242.822266 0.684375)"/>
       <use xlink:href="#DejaVuSans-30" transform="translate(306.445312 0.684375)"/>
       <use xlink:href="#DejaVuSans-35" transform="translate(371.025391 38.965625) scale(0.7)"/>
      </g>
     </g>
    </g>
    <g id="text_11">
     <!-- $F_z$ ($N$) -->
     <g transform="translate(14.529888 146.04) rotate(-90) scale(0.11 -0.11)">
      <defs>
       <path id="DejaVuSans-Oblique-46" d="M 1081 4666 
L 3756 4666 
L 3653 4134 
L 1606 4134 
L 1338 2759 
L 3188 2759 
L 3084 2228 
L 1234 2228 
L 800 0 
L 172 0 
L 1081 4666 
z
" transform="scale(0.015625)"/>
       <path id="DejaVuSans-Oblique-7a" d="M 744 3500 
L 3475 3500 
L 3372 2975 
L 738 459 
L 2913 459 
L 2822 0 
L -19 0 
L 84 525 
L 2719 3041 
L 653 3041 
L 744 3500 
z
" transform="scale(0.015625)"/>
       <path id="DejaVuSans-Oblique-4e" d="M 1081 4666 
L 1931 4666 
L 3219 666 
L 4000 4666 
L 4616 4666 
L 3706 0 
L 2853 0 
L 1569 4025 
L 788 0 
L 172 0 
L 1081 4666 
z
" transform="scale(0.015625)"/>
      </defs>
      <use xlink:href="#DejaVuSans-Oblique-46" transform="translate(0 0.125)"/>
      <use xlink:href="#DejaVuSans-Oblique-7a" transform="translate(57.519531 -16.28125) scale(0.7)"/>
      <use xlink:href="#DejaVuSans-20" transform="translate(96.99707 0.125)"/>
      <use xlink:href="#DejaVuSans-28" transform="translate(128.78418 0.125)"/>
      <use xlink:href="#DejaVuSans-Oblique-4e" transform="translate(167.797852 0.125)"/>
      <use xlink:href="#DejaVuSans-29" transform="translate(242.602539 0.125)"/>
     </g>
    </g>
   </g>
   <g id="line2d_11">
    <path d="M 64.557544 119.538507 
L 64.801721 119.359194 
L 64.932997 119.454328 
L 65.431435 120.072756 
L 65.639794 119.749322 
L 65.996022 119.235733 
L 66.235185 119.351398 
L 66.431394 119.391759 
L 66.628437 119.130869 
L 67.051289 118.513311 
L 67.209858 118.666412 
L 67.635207 119.289971 
L 68.196841 119.482321 
L 68.864757 120.860948 
L 69.258198 120.74382 
L 69.591028 121.175943 
L 69.770365 121.249457 
L 69.953623 120.988504 
L 70.385757 120.122251 
L 70.582611 120.152048 
L 70.845084 120.174631 
L 71.107557 119.689434 
L 71.435648 119.126887 
L 71.566884 119.190568 
L 71.970346 119.605089 
L 72.174516 119.38133 
L 72.516495 118.878575 
L 72.721937 118.928168 
L 72.981869 119.033368 
L 73.180972 118.768008 
L 73.77828 117.47583 
L 74.176485 117.240861 
L 74.775046 116.189107 
L 74.841623 116.230084 
L 75.107928 116.644174 
L 75.374234 116.958106 
L 75.840269 117.112451 
L 76.108574 117.837207 
L 76.445103 118.701372 
L 76.647774 118.801628 
L 76.918003 118.857388 
L 77.126557 119.173309 
L 77.545421 119.796835 
L 77.759243 119.660146 
L 78.044339 119.499286 
L 78.258161 119.768196 
L 78.685805 120.498212 
L 79.256023 120.807221 
L 79.981831 122.268798 
L 80.324624 122.279248 
L 80.593016 122.605393 
L 80.860196 122.854395 
L 81.001865 122.763237 
L 81.640222 122.018291 
L 82.03279 122.126863 
L 82.680571 121.685587 
L 83.007575 122.317742 
L 83.322497 122.747182 
L 83.852416 122.974108 
L 84.416926 123.798936 
L 84.583374 123.66736 
L 85.007968 123.23383 
L 85.568578 123.185679 
L 86.230708 122.309627 
L 86.719082 122.521902 
L 86.993458 122.230747 
L 87.37483 121.85022 
L 87.854502 121.882226 
L 88.113273 121.321357 
L 88.717072 119.651696 
L 89.067284 118.900994 
L 89.979631 116.092936 
L 90.380422 115.471917 
L 90.892836 114.556706 
L 91.097802 114.594248 
L 91.465375 114.727918 
L 91.744427 114.342758 
L 92.14454 113.72824 
L 92.671589 113.659788 
L 93.442468 112.544245 
L 93.855652 112.782415 
L 94.376459 112.610587 
L 94.680457 113.073521 
L 95.038795 113.669257 
L 95.239914 113.673566 
L 95.655825 113.540859 
L 96.194688 113.787276 
L 96.422014 113.366572 
L 96.7734 112.630832 
L 97.007657 112.573845 
L 97.241914 112.609808 
L 97.47659 112.380879 
L 97.832541 111.9706 
L 98.07425 112.186562 
L 98.54125 112.887555 
L 99.037503 113.062761 
L 99.663053 114.051977 
L 99.975828 113.804076 
L 100.188826 113.746506 
L 100.508323 114.216267 
L 100.721321 114.451568 
L 100.934318 114.385391 
L 101.147316 114.256521 
L 101.253815 114.29927 
L 101.486292 114.767223 
L 101.981981 115.954494 
L 102.379207 116.433627 
L 103.071578 118.124268 
L 103.321544 118.150426 
L 103.610649 118.212059 
L 104.089084 118.611537 
L 104.426951 118.225192 
L 104.764817 117.953143 
L 105.44055 118.464424 
L 105.609484 118.421253 
L 105.778417 118.536187 
L 106.626289 120.118144 
L 106.963367 120.481135 
L 107.468983 121.559073 
L 107.809344 121.688597 
L 107.98035 121.727336 
L 108.151356 121.92611 
L 109.356124 124.868962 
L 109.980358 127.630794 
L 110.545204 129.50082 
L 111.004042 131.162564 
L 111.351024 131.628935 
L 111.698005 132.00556 
L 112.240411 133.006635 
L 112.612005 132.969188 
L 112.801263 133.135465 
L 113.369038 134.403284 
L 114.126071 135.109141 
L 114.507904 135.651384 
L 114.700479 135.666468 
L 115.298662 135.153029 
L 115.701614 135.224709 
L 116.32038 134.485721 
L 116.752008 135.002159 
L 117.205861 135.302167 
L 117.433828 135.392331 
L 117.666018 135.677525 
L 118.139709 136.494926 
L 118.380336 136.430928 
L 118.861589 135.999088 
L 119.109952 135.987197 
L 119.364137 135.74718 
L 119.875794 134.579173 
L 120.669144 133.816711 
L 120.941639 133.2991 
L 121.214134 133.036181 
L 121.489643 133.021318 
L 121.765151 132.69528 
L 122.592018 130.738163 
L 122.867867 130.062025 
L 123.419564 128.025179 
L 124.52296 125.994637 
L 124.798809 126.046125 
L 125.074657 126.296471 
L 125.350506 126.128774 
L 125.626355 125.776989 
L 125.902204 125.78061 
L 126.142786 125.914944 
L 126.383368 125.691133 
L 126.883955 124.506737 
L 127.632853 123.722294 
L 128.0151 122.964809 
L 128.597806 122.960537 
L 129.180511 122.030882 
L 129.569068 121.76841 
L 129.95771 120.547152 
L 130.542527 118.607391 
L 130.933866 117.141007 
L 131.333895 115.353793 
L 132.557522 112.099003 
L 132.965397 111.657869 
L 134.392961 107.023587 
L 134.800837 105.442826 
L 136.024464 102.36975 
L 136.547814 101.750389 
L 137.315685 100.183291 
L 137.618435 99.494908 
L 138.384968 97.39967 
L 139.182047 96.122355 
L 139.446382 95.991446 
L 139.713304 96.247186 
L 140.058427 96.55773 
L 140.415156 96.792993 
L 141.471417 98.232761 
L 141.872962 98.432522 
L 143.270098 100.289597 
L 144.086889 101.971525 
L 144.569401 102.625803 
L 144.90739 103.015516 
L 145.087254 102.979923 
L 145.475163 102.596574 
L 146.628685 100.968687 
L 146.885867 100.527919 
L 148.62259 99.843405 
L 148.869516 99.829489 
L 149.912243 98.467916 
L 150.994458 98.03396 
L 151.574004 98.832752 
L 152.736515 99.209558 
L 153.027997 98.90624 
L 153.610961 97.851773 
L 153.902443 97.593871 
L 154.776889 96.138787 
L 155.563762 96.114373 
L 155.826054 95.871119 
L 156.008492 95.878767 
L 156.555807 96.34324 
L 157.103122 96.038136 
L 158.015313 97.29046 
L 158.38019 98.468332 
L 159.506826 104.331245 
L 160.250565 108.946226 
L 160.899689 112.946462 
L 164.40645 131.411895 
L 165.83042 135.855078 
L 166.503219 138.596946 
L 167.090355 141.138304 
L 168.150948 144.255774 
L 168.609331 144.663329 
L 169.571799 144.802719 
L 169.936776 144.68204 
L 170.301752 144.743158 
L 170.921401 144.477843 
L 171.771512 143.274854 
L 173.130005 140.461806 
L 173.864441 140.230368 
L 174.402247 141.195086 
L 176.074868 144.510556 
L 176.355612 144.699943 
L 176.968553 145.697486 
L 177.632948 146.973097 
L 177.965145 147.302169 
L 178.62954 148.433399 
L 178.961738 148.363555 
L 179.293935 148.147166 
L 180.000732 147.257258 
L 180.707528 145.573117 
L 181.767723 144.555719 
L 182.121121 144.656541 
L 182.47452 144.980517 
L 183.181316 145.16984 
L 183.73744 145.691947 
L 184.293564 145.926413 
L 184.761055 146.443806 
L 185.968194 148.122965 
L 186.169392 148.223115 
L 186.772987 147.984353 
L 186.974185 147.765874 
L 187.275983 146.897406 
L 188.378775 142.356594 
L 189.424147 137.562309 
L 193.231365 119.79846 
L 194.086163 116.243076 
L 195.116641 110.392714 
L 196.210272 104.139113 
L 196.915879 101.509705 
L 197.468138 100.429922 
L 197.802005 100.079568 
L 198.360542 99.957502 
L 198.807371 100.056855 
L 199.248921 100.449341 
L 199.653001 101.186311 
L 200.59678 103.338188 
L 201.152724 104.608792 
L 201.554248 104.998109 
L 201.902637 105.019561 
L 202.094544 104.869804 
L 202.301392 104.423746 
L 202.768757 102.64908 
L 203.40521 99.600957 
L 205.189936 89.977578 
L 205.726566 88.168542 
L 206.311462 86.743523 
L 206.755926 86.00046 
L 206.994372 85.978851 
L 207.472825 86.408246 
L 207.740061 86.915825 
L 208.283926 89.098965 
L 209.102149 93.821704 
L 209.920372 99.462179 
L 210.738595 103.583794 
L 211.011336 104.436413 
L 211.284077 104.69645 
L 211.829559 104.317753 
L 212.1023 103.938563 
L 212.647781 101.982231 
L 213.738745 96.614001 
L 215.213859 88.297534 
L 215.995364 85.808836 
L 216.24585 85.451067 
L 216.416122 85.581065 
L 216.677665 86.307596 
L 217.206885 88.801069 
L 217.647901 91.911896 
L 219.700867 110.467771 
L 220.614928 116.789119 
L 222.368145 125.847085 
L 222.729618 126.93505 
L 223.032029 127.887735 
L 223.499369 130.62788 
L 224.10935 134.728346 
L 224.572516 140.040006 
L 225.533769 153.951355 
L 226.492405 168.344926 
L 227.181769 176.199048 
L 227.675632 179.32663 
L 228.092214 180.813222 
L 228.454104 181.441299 
L 228.58431 181.347764 
L 228.858956 180.498598 
L 229.554094 176.980905 
L 230.040571 172.528986 
L 230.891904 161.639063 
L 232.738843 137.809565 
L 233.278965 134.351552 
L 233.652568 133.034063 
L 234.031602 132.534862 
L 234.410637 132.635187 
L 235.18266 133.082837 
L 235.393393 133.395183 
L 236.025591 135.114939 
L 236.466699 136.948409 
L 237.15573 141.730316 
L 238.141474 148.824332 
L 238.394796 150.022266 
L 238.665548 150.611108 
L 238.944591 150.818007 
L 239.223634 150.685548 
L 239.516528 149.883371 
L 240.398894 146.776209 
L 241.281393 144.735337 
L 241.869725 143.607203 
L 242.458057 140.898835 
L 243.634721 134.092588 
L 243.928887 133.429248 
L 244.223053 133.760866 
L 244.517219 135.06128 
L 244.811385 137.251255 
L 245.399717 144.226899 
L 246.381779 155.593266 
L 246.817157 158.3935 
L 247.201013 159.463553 
L 247.483988 159.700709 
L 247.694991 159.612903 
L 247.990302 159.224184 
L 248.40187 158.310687 
L 248.755077 157.024637 
L 249.042611 155.226383 
L 249.409174 151.264036 
L 249.918251 142.722105 
L 250.474208 129.14998 
L 251.797398 94.634655 
L 252.300324 87.174264 
L 252.728227 83.628622 
L 253.097745 82.255285 
L 253.427365 81.827236 
L 253.85734 81.315892 
L 254.549669 80.327717 
L 254.951684 80.063668 
L 255.141217 80.250145 
L 255.405997 81.0379 
L 255.755851 82.921846 
L 256.273256 87.109225 
L 257.042764 93.175745 
L 257.362829 94.185654 
L 257.527769 94.272625 
L 257.699632 94.1027 
L 257.966222 93.368753 
L 258.420155 91.07896 
L 259.124443 87.519875 
L 259.367161 87.108531 
L 259.551604 87.161057 
L 259.742721 87.551199 
L 260.08809 89.080769 
L 260.753265 93.374085 
L 261.362786 96.883543 
L 261.702477 97.922946 
L 261.932121 98.081093 
L 262.154198 97.86915 
L 263.231437 96.490772 
L 263.449638 96.609776 
L 263.705224 97.06219 
L 264.024155 98.092513 
L 264.651129 100.186461 
L 264.931168 100.394529 
L 265.154404 100.143564 
L 265.392305 99.310873 
L 265.818655 96.323579 
L 267.23661 83.770283 
L 267.396107 83.460848 
L 267.555605 83.532919 
L 267.874601 84.854914 
L 268.370707 89.07364 
L 269.422147 99.913584 
L 269.773177 101.561102 
L 269.948692 101.768977 
L 270.124206 101.546792 
L 270.475236 100.28657 
L 271.064709 96.64933 
L 271.754252 92.960304 
L 272.105532 91.867977 
L 272.371426 91.69503 
L 272.750471 91.567617 
L 273.122274 91.180205 
L 273.39634 90.509926 
L 273.809423 88.667821 
L 274.191616 86.050655 
L 275.672908 73.923849 
L 275.899253 73.403022 
L 276.050149 73.402566 
L 276.276494 73.915424 
L 276.547976 75.333574 
L 276.882388 78.400567 
L 277.58784 87.843101 
L 278.694513 101.894396 
L 279.266297 106.887723 
L 279.886502 112.244583 
L 280.654629 118.534987 
L 281.152326 121.491685 
L 281.387896 122.031264 
L 281.549902 122.073669 
L 281.796165 121.889369 
L 282.042841 121.464637 
L 282.717771 119.839106 
L 282.868024 120.101835 
L 283.142331 121.35642 
L 283.433043 123.831579 
L 283.805335 129.533627 
L 284.490085 144.66492 
L 285.603504 170.543946 
L 286.320223 182.344359 
L 287.070321 191.983955 
L 287.494846 195.007268 
L 287.779917 195.796054 
L 287.932078 195.847739 
L 288.086261 195.414522 
L 288.317534 193.617299 
L 288.747711 187.542476 
L 289.239057 176.688028 
L 291.218168 127.449901 
L 291.804306 120.229879 
L 292.372127 116.429587 
L 292.686859 115.390317 
L 293.016562 115.332363 
L 293.185104 115.337361 
L 293.355407 115.489822 
L 293.529623 116.009897 
L 293.878055 118.138527 
L 294.232198 121.724653 
L 294.771977 130.202207 
L 295.327136 142.038035 
L 296.798415 175.507545 
L 297.38327 183.658573 
L 297.821911 187.104466 
L 297.968125 187.516835 
L 298.114338 187.508342 
L 298.406766 186.540269 
L 298.711438 184.405344 
L 299.137177 178.973835 
L 299.742513 167.516535 
L 301.845579 123.694171 
L 302.228371 120.391864 
L 302.492657 119.620345 
L 302.586488 119.561436 
L 302.690053 119.627816 
L 302.912244 120.354443 
L 303.245531 123.246273 
L 303.705181 129.924261 
L 305.238827 158.501221 
L 305.927261 175.714485 
L 306.926554 207.386017 
L 307.406715 218.580988 
L 307.631112 220.591299 
L 307.707649 220.693377 
L 307.787405 220.489895 
L 307.953073 219.100856 
L 308.209252 214.389364 
L 308.559901 202.515411 
L 309.176786 170.870971 
L 310.265404 115.215966 
L 310.85327 96.616434 
L 311.371925 86.246227 
L 311.921097 79.777962 
L 312.4796 75.17038 
L 312.819962 73.841577 
L 313.04847 73.646436 
L 313.162724 73.809893 
L 313.375439 74.70556 
L 313.670824 77.441854 
L 314.06467 83.918658 
L 315.449474 111.922602 
L 315.539916 112.234664 
L 315.634415 112.190582 
L 315.829375 110.939665 
L 316.127157 106.084367 
L 316.448755 96.797423 
L 317.212046 65.009314 
L 317.850484 43.036227 
L 318.175664 36.924302 
L 318.338254 35.544357 
L 318.500844 35.220126 
L 318.663435 35.671818 
L 319.531558 40.208546 
L 319.770913 40.458141 
L 319.965291 40.241631 
L 320.451863 39.184968 
L 320.549177 39.253063 
L 320.743806 40.147594 
L 321.024639 43.930642 
L 321.333832 52.269364 
L 321.72947 70.449758 
L 322.385732 115.392636 
L 323.01489 152.749181 
L 323.388026 163.969598 
L 323.646461 166.828582 
L 323.699405 166.93239 
L 323.754924 166.903992 
L 323.921864 165.892211 
L 324.154794 162.474186 
L 324.578617 151.549561 
L 325.498026 126.274562 
L 326.048769 116.749929 
L 326.755139 107.727854 
L 327.385678 100.190985 
L 327.700948 93.53331 
L 328.121307 79.224901 
L 328.887136 43.593572 
L 329.455066 21.531101 
L 329.795824 15.619918 
L 329.90941 15.199198 
L 330.022996 15.644262 
L 330.250168 19.272664 
L 330.625212 32.98746 
L 331.426445 78.822024 
L 332.139467 112.17218 
L 332.528003 123.044137 
L 332.89838 128.479998 
L 333.079357 129.471111 
L 333.139683 129.493745 
L 333.260334 129.041566 
L 333.501637 126.43001 
L 334.278028 116.463987 
L 334.332417 116.383344 
L 334.386807 116.437724 
L 334.502016 116.977873 
L 334.751805 119.68969 
L 335.390034 129.859476 
L 335.902314 136.976136 
L 336.073556 137.372454 
L 336.244799 136.353157 
L 336.501663 131.989008 
L 336.929769 118.486773 
L 337.706409 84.593714 
L 338.404079 57.55848 
L 339.157241 38.81856 
L 339.558255 32.568469 
L 339.79953 31.246137 
L 339.923069 31.242573 
L 340.110169 31.896811 
L 340.788558 34.915034 
L 341.002156 36.232827 
L 341.293578 40.199352 
L 341.726175 50.452574 
L 343.450358 97.479468 
L 343.678239 98.324328 
L 343.760334 98.216319 
L 343.924526 97.440103 
L 344.195958 94.859571 
L 344.860425 87.52315 
L 344.962698 87.367348 
L 345.064972 87.690598 
L 345.269519 89.673142 
L 345.76838 98.510403 
L 346.318502 112.455554 
L 346.759116 121.446338 
L 346.954308 122.275946 
L 347.068735 121.860248 
L 347.309428 119.376229 
L 348.125541 109.138087 
L 348.305587 108.904363 
L 348.493497 110.153927 
L 348.775363 115.616191 
L 349.357196 135.685693 
L 350.656048 179.739779 
L 350.868969 181.282423 
L 350.940564 181.163566 
L 351.15826 179.436417 
L 351.80251 173.062093 
L 352.331831 170.280768 
L 352.516638 169.893739 
L 352.610612 169.934975 
L 352.801085 170.768825 
L 352.994084 172.931086 
L 353.387389 180.951856 
L 354.030554 194.022763 
L 354.246806 195.09372 
L 354.35882 194.511412 
L 354.54187 191.851543 
L 354.874829 182.430559 
L 355.50062 155.790485 
L 356.021237 136.432282 
L 356.281565 131.480963 
L 356.458579 130.76471 
L 356.640102 132.271188 
L 356.917485 138.488267 
L 357.304119 154.078196 
L 357.99736 184.60978 
L 358.201173 188.186714 
L 358.303698 188.442092 
L 358.41138 187.529408 
L 358.647435 181.508015 
L 359.009543 164.088563 
L 359.854463 118.666305 
L 360.095868 113.396008 
L 360.216571 112.495145 
L 360.337274 112.783079 
L 360.578679 117.01568 
L 360.943072 131.915234 
L 362.266444 202.245136 
L 362.359406 202.95629 
L 362.455323 202.473217 
L 362.647159 197.548414 
L 362.93572 180.875932 
L 364.104299 94.676317 
L 364.302227 92.320672 
L 364.406272 93.07901 
L 364.634221 99.10945 
L 364.990042 117.330177 
L 365.600994 163.086767 
L 366.104998 200.764741 
L 366.36085 209.132957 
L 366.489398 208.7586 
L 366.746494 198.053102 
L 367.219224 155.226236 
L 367.782611 107.70908 
L 368.107289 94.968066 
L 368.340532 92.403813 
L 368.423459 92.825245 
L 368.596343 96.247922 
L 368.862951 108.632066 
L 369.360354 148.693165 
L 370.082086 209.079938 
L 370.302401 216.877611 
L 370.38031 217.638955 
L 370.458344 217.259869 
L 370.617166 212.879203 
L 370.876391 196.346608 
L 371.809311 125.377389 
L 372.105395 118.495769 
L 372.20409 118.373225 
L 372.302784 119.381006 
L 372.500173 124.971752 
L 372.796257 142.623031 
L 373.912169 228.950616 
L 374.01916 230.768609 
L 374.126151 230.137972 
L 374.340132 221.142932 
L 374.664487 191.518298 
L 375.657841 86.335257 
L 375.878586 75.599538 
L 375.988959 73.596317 
L 376.099331 73.869928 
L 376.320077 80.316583 
L 376.777133 108.312323 
L 377.355221 143.759882 
L 377.470876 145.969054 
L 377.586531 145.576595 
L 377.819621 137.82498 
L 378.317084 105.288272 
L 378.928232 47.607201 
L 379.345881 15.671322 
L 379.579292 10.062685 
L 379.625974 10.202801 
L 379.730209 12.026233 
L 379.938678 21.398739 
L 380.319534 52.510251 
L 381.156406 125.699653 
L 381.415968 132.710618 
L 381.675531 135.0362 
L 381.762051 135.18057 
L 381.848572 134.866363 
L 382.021614 132.198575 
L 382.281176 121.70817 
L 382.757054 86.964918 
L 383.21131 58.527636 
L 383.362729 55.640984 
L 383.438438 55.673038 
L 383.589856 58.335683 
L 383.892694 71.352507 
L 384.919857 128.419745 
L 385.439063 136.049014 
L 385.691555 138.308843 
L 385.777938 138.355854 
L 385.864322 137.738329 
L 386.037088 133.653837 
L 386.296238 118.618867 
L 387.332837 38.968934 
L 387.41922 38.118297 
L 387.505604 38.73637 
L 387.68314 44.290226 
L 388.674369 91.665052 
L 389.034816 99.807844 
L 389.718808 125.468163 
L 389.830496 125.207784 
L 390.058169 118.537067 
L 390.526664 88.962146 
L 390.884881 68.742851 
L 391.123692 63.913922 
L 391.243098 64.863535 
L 391.481909 72.898451 
L 392.078938 101.079203 
L 392.675966 114.164976 
L 393.511806 148.074298 
L 393.631212 147.653777 
L 393.870023 141.701794 
L 394.41536 116.074274 
L 395.007964 86.47091 
L 395.312828 81.104881 
L 395.940202 76.10384 
L 396.097045 76.66164 
L 396.253889 78.779453 
L 396.567576 87.664541 
L 396.957491 98.448313 
L 397.066011 98.769113 
L 397.283053 95.749322 
L 397.717135 83.189745 
L 398.042697 65.675798 
L 398.69382 21.982437 
L 398.911532 16.547427 
L 399.022073 16.328501 
L 399.24552 19.605308 
L 399.924804 34.969605 
L 400.196126 52.791452 
L 400.874429 102.890632 
L 401.085901 108.161993 
L 401.159746 108.371721 
L 401.310415 106.398196 
L 401.647363 95.378963 
L 402.593338 63.744845 
L 402.880098 59.893161 
L 402.978951 59.408032 
L 403.077804 59.833294 
L 403.18563 61.893032 
L 403.401282 72.720263 
L 404.610796 163.422256 
L 404.915221 171.070075 
L 404.974341 170.789282 
L 405.092581 167.79749 
L 405.32954 151.438019 
L 406.084584 86.053654 
L 406.482998 54.176322 
L 406.748607 37.500174 
L 406.818192 36.944963 
L 406.957363 41.3678 
L 407.929549 111.861637 
L 408.573418 167.488152 
L 408.652425 167.199289 
L 408.81811 161.510771 
L 409.2513 145.18034 
L 409.529389 140.820916 
L 409.813846 127.515047 
L 410.112364 115.155632 
L 410.214197 116.1513 
L 410.420274 128.086172 
L 411.265125 197.899782 
L 411.674592 221.072448 
L 412.18002 250.576203 
L 412.243964 250.997315 
L 412.375748 249.212107 
L 412.65192 239.150499 
L 412.933347 221.504485 
L 413.369451 169.745963 
L 413.707403 144.083 
L 414.108295 134.746018 
L 414.638817 124.924876 
L 414.81699 123.579651 
L 414.909006 123.926644 
L 415.093038 128.497552 
L 415.737149 153.698728 
L 415.921181 152.022329 
L 416.397594 144.404913 
L 416.59059 137.396374 
L 416.885534 115.652084 
L 417.414149 68.254601 
L 417.632846 63.208568 
L 417.742195 63.302382 
L 417.960892 63.876769 
L 418.17959 62.78824 
L 418.507635 60.713768 
L 418.616984 61.185151 
L 418.727273 63.446352 
L 418.962696 77.654304 
L 419.825849 175.451107 
L 420.229032 218.680321 
L 420.363453 221.112587 
L 420.515868 216.491036 
L 420.910845 202.277435 
L 421.076389 201.500257 
L 421.159162 201.425336 
L 421.324706 200.548011 
L 421.490937 197.932189 
L 421.741639 189.921369 
L 422.361999 163.079907 
L 422.361999 163.079907 
" clip-path="url(#pc04273f360)" style="fill: none; stroke: #e36f47"/>
   </g>
   <g id="patch_3">
    <path d="M 64.557544 258.225354 
L 64.557544 2.834646 
" style="fill: none; stroke: #000000; stroke-linejoin: miter; stroke-linecap: square"/>
   </g>
   <g id="patch_4">
    <path d="M 64.557544 258.225354 
L 422.361999 258.225354 
" style="fill: none; stroke: #000000; stroke-linejoin: miter; stroke-linecap: square"/>
   </g>
   <g id="line2d_12">
    <path d="M 64.557544 119.538507 
L 64.81096 119.360383 
L 64.956542 119.489478 
L 65.431693 120.072724 
L 65.602087 119.829917 
L 66.006438 119.232454 
L 66.221996 119.33698 
L 66.450604 119.379533 
L 66.625997 119.140248 
L 67.060619 118.514611 
L 67.21909 118.673884 
L 67.709776 119.302136 
L 68.125727 119.352878 
L 68.343343 119.871792 
L 68.75936 120.84731 
L 68.94745 120.836827 
L 69.268162 120.751865 
L 69.484668 121.008929 
L 69.764087 121.249734 
L 69.902216 121.105964 
L 70.553797 120.109979 
L 70.861269 120.152667 
L 71.064124 119.82191 
L 71.460224 119.121128 
L 71.612762 119.207079 
L 72.041716 119.579981 
L 72.252802 119.285863 
L 72.607213 118.850073 
L 72.871342 118.975184 
L 73.071399 118.95316 
L 73.266313 118.605456 
L 73.817481 117.405598 
L 74.308937 117.035176 
L 74.849565 116.198221 
L 75.040443 116.409149 
L 75.526904 117.056431 
L 75.890201 117.223075 
L 76.149815 117.825305 
L 76.597037 118.892058 
L 76.869878 118.955665 
L 77.105984 119.069172 
L 77.798608 119.811128 
L 78.221221 119.64329 
L 78.453619 119.967002 
L 78.947858 120.728474 
L 79.392136 121.044416 
L 79.739291 121.868968 
L 80.073487 122.451073 
L 80.34707 122.462894 
L 80.662271 122.480469 
L 81.126582 122.700206 
L 81.374506 122.443659 
L 81.80381 121.887135 
L 82.072068 121.913897 
L 82.443099 121.972433 
L 82.911134 121.910952 
L 83.123787 122.18103 
L 83.758176 123.156559 
L 84.470414 123.552518 
L 84.755978 123.70603 
L 85.007021 123.55127 
L 85.658562 122.874403 
L 86.177885 122.601107 
L 86.707587 122.160666 
L 87.497999 122.001318 
L 88.376834 120.748898 
L 88.735604 119.814785 
L 89.715927 116.847689 
L 90.555831 114.967994 
L 90.920603 114.74609 
L 91.435795 114.403899 
L 91.942034 114.121694 
L 92.337139 113.890045 
L 92.855157 113.194282 
L 93.258775 112.840531 
L 94.063909 112.549226 
L 94.308311 112.62622 
L 94.746906 113.084194 
L 95.255236 113.518785 
L 95.898552 113.717548 
L 96.276456 113.581862 
L 96.934259 112.834971 
L 97.600029 112.278536 
L 97.954635 112.177442 
L 98.285409 112.323529 
L 98.946689 113.043508 
L 99.880047 113.990141 
L 100.388434 114.233782 
L 100.972843 114.45078 
L 101.561007 114.984497 
L 102.183823 115.993786 
L 103.299751 118.097066 
L 103.693236 118.50375 
L 104.139128 118.655832 
L 104.794753 118.495172 
L 105.206474 118.423029 
L 105.648019 118.567356 
L 106.102993 119.016413 
L 106.762169 120.097948 
L 108.201876 122.595991 
L 108.996655 124.065302 
L 109.536207 125.488441 
L 110.585358 129.171878 
L 111.42734 131.854142 
L 111.984877 132.980859 
L 112.543762 133.608323 
L 115.415212 135.54599 
L 115.8656 135.50617 
L 117.393183 135.058244 
L 117.914998 135.268804 
L 118.944806 135.852773 
L 119.463973 135.785135 
L 119.91261 135.386808 
L 120.393543 134.646213 
L 124.122806 127.443639 
L 124.906541 125.849856 
L 125.505658 125.123062 
L 125.910877 124.906687 
L 127.419995 124.450568 
L 127.91957 123.871807 
L 128.675917 122.573064 
L 130.645948 118.5921 
L 131.399722 116.412461 
L 133.914887 108.056935 
L 136.078839 102.533771 
L 137.187993 99.729324 
L 137.980093 98.400912 
L 138.752669 97.563166 
L 139.636495 96.875005 
L 140.110151 96.651719 
L 140.620729 96.640639 
L 141.146273 96.969574 
L 141.715405 97.72421 
L 143.935777 101.431032 
L 144.60755 101.920507 
L 145.251165 102.158499 
L 145.973425 102.224287 
L 146.486796 102.094741 
L 147.025889 101.724973 
L 147.837549 100.723834 
L 149.136221 98.953539 
L 149.646649 98.584198 
L 150.235905 98.448489 
L 152.326624 98.426046 
L 153.996383 97.744345 
L 155.014078 97.150836 
L 156.392797 96.114573 
L 156.903112 96.051124 
L 157.39332 96.402856 
L 157.990812 97.526634 
L 158.582723 99.401771 
L 159.517507 103.618925 
L 160.697154 110.385018 
L 163.531304 127.715126 
L 164.610133 132.280266 
L 166.491124 138.88386 
L 167.383213 141.542897 
L 168.259286 143.472814 
L 168.988415 144.492388 
L 169.516995 144.899009 
L 170.009241 145.012471 
L 170.561542 144.811432 
L 171.058192 144.333676 
L 171.828297 143.157582 
L 173.064616 141.183913 
L 173.549098 140.768462 
L 174.053879 140.677317 
L 174.516505 140.902391 
L 175.079501 141.5233 
L 175.704058 142.548821 
L 176.721476 144.661931 
L 177.912673 147.143899 
L 178.428327 147.899871 
L 178.873372 148.268983 
L 179.361013 148.320731 
L 179.835938 148.027752 
L 180.577502 147.087186 
L 181.837742 145.345652 
L 182.302797 144.975696 
L 182.784576 144.817971 
L 183.277417 144.889563 
L 183.771602 145.175762 
L 184.405876 145.797892 
L 186.153797 147.814851 
L 186.412486 147.907158 
L 186.688092 147.870883 
L 186.955819 147.68014 
L 187.489792 146.786547 
L 188.039044 145.132354 
L 188.813905 141.694398 
L 190.162005 134.054383 
L 191.90614 124.460887 
L 193.179109 118.816926 
L 195.352994 109.659543 
L 196.90507 102.903369 
L 197.470326 101.236174 
L 197.993241 100.30933 
L 198.320708 100.041573 
L 198.674766 100.007038 
L 199.04012 100.214925 
L 199.655953 100.98826 
L 201.344235 103.653964 
L 201.677712 103.846344 
L 202.072956 103.764204 
L 202.456917 103.301903 
L 202.856316 102.394609 
L 203.375961 100.569412 
L 204.23278 96.38424 
L 205.574176 89.642653 
L 206.124753 87.728987 
L 206.562097 86.764365 
L 206.868762 86.407531 
L 207.21461 86.334097 
L 207.602822 86.678482 
L 207.988252 87.475488 
L 208.522245 89.321344 
L 209.20951 92.808337 
L 210.979946 102.91531 
L 211.50872 104.377111 
L 211.834009 104.624624 
L 212.008698 104.545346 
L 212.360079 103.95943 
L 212.748258 102.727388 
L 213.307899 100.161252 
L 215.568476 88.678736 
L 216.095471 87.113395 
L 216.498679 86.617669 
L 216.669796 86.649569 
L 216.841137 86.848586 
L 217.176972 87.767939 
L 217.608422 90.03219 
L 218.199872 94.953706 
L 220.393062 115.984424 
L 221.294375 121.227431 
L 224.360663 137.581724 
L 224.934463 143.227723 
L 225.699722 153.669184 
L 227.13259 174.218812 
L 227.614004 178.366411 
L 228.079048 180.439921 
L 228.405825 180.837154 
L 228.563652 180.751592 
L 228.871225 180.111519 
L 229.202652 178.790073 
L 229.693445 175.746486 
L 230.35146 169.781434 
L 231.160527 159.791206 
L 232.873384 137.108417 
L 233.339219 133.568177 
L 233.795099 131.818633 
L 234.121473 131.494446 
L 234.427223 131.731683 
L 234.838905 132.587049 
L 235.754548 135.294975 
L 236.452268 137.891472 
L 236.973353 140.615423 
L 238.749796 151.241914 
L 239.039454 151.686577 
L 239.170404 151.679083 
L 239.468684 151.195327 
L 239.878351 149.646674 
L 241.508879 141.926187 
L 243.933912 134.946693 
L 244.096588 134.85452 
L 244.244419 134.952463 
L 244.500282 135.593816 
L 244.76753 136.968231 
L 245.232919 141.047848 
L 246.001795 150.74912 
L 246.760222 159.080466 
L 247.094939 161.071736 
L 247.401432 161.790054 
L 247.532621 161.799646 
L 247.739471 161.494479 
L 247.99972 160.605863 
L 248.451344 158.011331 
L 249.072122 152.698004 
L 249.606331 146.096547 
L 250.190724 135.760896 
L 250.878149 119.475832 
L 252.067972 91.427148 
L 252.511657 85.06171 
L 252.833423 82.35124 
L 253.135049 81.104012 
L 253.300849 80.84907 
L 253.463146 80.824987 
L 253.789694 81.223395 
L 254.630008 82.595662 
L 254.956952 82.74452 
L 255.456791 82.902854 
L 255.734178 83.241848 
L 256.022148 83.991653 
L 256.453251 85.933781 
L 257.596079 92.192354 
L 257.887299 92.854697 
L 258.04943 92.936928 
L 258.199899 92.831908 
L 258.512842 92.120455 
L 259.883581 87.688303 
L 260.035158 87.742474 
L 260.325491 88.371677 
L 260.722103 90.281958 
L 262.340441 100.236907 
L 262.648135 100.62004 
L 262.91757 100.447733 
L 263.345402 99.511234 
L 264.167457 97.452006 
L 264.457073 97.148236 
L 264.881047 97.090939 
L 265.259641 97.031943 
L 265.54278 96.659845 
L 265.895895 95.548145 
L 266.313116 93.207426 
L 267.640268 84.525663 
L 267.788415 84.260757 
L 267.940072 84.263232 
L 268.08699 84.545321 
L 268.385471 85.980293 
L 268.76111 89.264144 
L 270.003191 102.383489 
L 270.275392 103.585085 
L 270.508041 103.826518 
L 270.654849 103.614653 
L 270.909349 102.646113 
L 271.364482 99.509654 
L 272.376647 91.751498 
L 272.746971 90.20994 
L 273.124382 89.392785 
L 273.863567 88.192778 
L 274.243791 86.878104 
L 274.716349 84.09116 
L 275.406563 78.069414 
L 276.041956 72.893139 
L 276.366071 71.654295 
L 276.542141 71.604954 
L 276.744298 72.17296 
L 277.033695 74.193347 
L 277.448344 79.401187 
L 278.116592 91.554234 
L 278.963066 106.337643 
L 279.50467 111.899208 
L 279.952091 114.235149 
L 281.207411 118.682816 
L 282.569267 125.045571 
L 283.424621 127.759893 
L 283.704577 129.506462 
L 284.011204 132.545156 
L 284.478339 139.950892 
L 285.061144 153.583572 
L 286.361899 185.740734 
L 286.871975 192.870374 
L 287.213503 195.228977 
L 287.392527 195.734842 
L 287.550786 195.793475 
L 287.718474 195.482249 
L 288.020571 194.019974 
L 288.427702 190.371151 
L 289.002839 182.231471 
L 289.703287 168.029558 
L 291.849646 118.443115 
L 292.315179 113.451519 
L 292.648481 111.971732 
L 292.825028 111.853806 
L 292.999848 112.14918 
L 293.323424 113.647899 
L 293.75962 117.208406 
L 294.491013 125.775667 
L 295.244437 137.33391 
L 296.116606 154.761207 
L 297.452454 182.621345 
L 297.896729 187.910439 
L 298.132576 189.225653 
L 298.259087 189.453519 
L 298.380662 189.347849 
L 298.647218 187.997455 
L 298.895791 185.391526 
L 299.319465 178.320032 
L 300.046644 161.316781 
L 301.046743 138.530784 
L 301.555067 130.66938 
L 302.111156 125.50222 
L 302.513267 123.7273 
L 302.74693 123.400514 
L 302.872216 123.443438 
L 303.095708 123.925745 
L 303.351518 125.145091 
L 303.739697 128.426678 
L 304.25567 135.517886 
L 304.774167 145.663718 
L 305.502549 164.11842 
L 307.292692 212.650868 
L 307.629491 215.572066 
L 307.715608 215.65636 
L 307.80022 215.458189 
L 307.988002 213.991143 
L 308.294152 208.526294 
L 308.675234 196.819897 
L 309.356512 167.019128 
L 310.781777 103.445561 
L 311.399117 84.690137 
L 311.849452 76.077912 
L 312.2091 72.341115 
L 312.446465 71.321954 
L 312.555914 71.219794 
L 312.680934 71.370962 
L 312.926664 72.441409 
L 313.26401 75.320502 
L 313.822478 82.641631 
L 315.385124 105.8422 
L 315.609136 107.049749 
L 315.717126 107.179189 
L 315.885413 106.714403 
L 316.07746 105.126015 
L 316.414059 99.483089 
L 316.898567 85.513432 
L 318.318333 38.001709 
L 318.639017 33.73978 
L 318.856155 32.678278 
L 318.96442 32.620244 
L 319.165156 33.170656 
L 319.559797 35.735491 
L 320.625669 44.875808 
L 320.977328 49.866047 
L 321.360588 58.673781 
L 321.788467 74.433322 
L 322.386019 106.386232 
L 323.164843 147.739336 
L 323.558645 159.560425 
L 323.781819 162.66483 
L 324.00706 163.353937 
L 324.232341 161.930154 
L 324.540729 157.302836 
L 325.153549 143.006912 
L 326.39734 113.542465 
L 328.280838 71.450872 
L 329.058257 43.996658 
L 329.671373 24.953553 
L 329.975575 20.699722 
L 330.05185 20.401095 
L 330.122689 20.423357 
L 330.246726 21.175811 
L 330.483306 25.16186 
L 330.821632 36.350789 
L 331.414413 66.712299 
L 332.317651 112.478551 
L 332.793848 127.026637 
L 333.123638 131.715272 
L 333.301359 132.336569 
L 333.374418 132.23013 
L 333.528684 131.387385 
L 333.851007 127.622504 
L 334.480878 119.957915 
L 334.691271 119.339362 
L 334.801674 119.52885 
L 335.008996 120.721983 
L 335.458119 125.491997 
L 335.943038 130.03168 
L 336.116335 130.615075 
L 336.208323 130.571056 
L 336.387124 129.632485 
L 336.662692 125.687782 
L 337.02007 116.104631 
L 337.690131 90.021869 
L 338.695705 51.489108 
L 339.167637 41.352839 
L 339.560071 36.833104 
L 339.83124 35.383234 
L 340.016392 35.235483 
L 340.21298 35.816185 
L 340.594204 38.427675 
L 341.362137 45.69258 
L 341.718867 51.627688 
L 342.263744 65.471401 
L 343.398681 96.212383 
L 343.716728 99.132432 
L 343.825728 99.301888 
L 343.937883 99.057366 
L 344.159056 97.472337 
L 344.563422 92.101533 
L 345.064934 86.05042 
L 345.236809 85.368503 
L 345.295437 85.366899 
L 345.437919 85.894028 
L 345.665113 88.304551 
L 346.024657 95.508226 
L 347.147408 121.799862 
L 347.434352 123.871044 
L 347.505255 123.890792 
L 347.655211 123.320572 
L 347.960805 120.220029 
L 348.454184 115.241788 
L 348.529573 115.063718 
L 348.598901 115.104764 
L 348.74963 115.916385 
L 349.012335 119.723989 
L 349.370614 129.274007 
L 350.132659 158.359448 
L 350.716274 176.808194 
L 351.07997 182.824353 
L 351.250851 183.715209 
L 351.336578 183.651535 
L 351.50893 182.505203 
L 351.834762 177.270335 
L 352.457971 165.852221 
L 352.693354 164.300452 
L 352.774742 164.225658 
L 352.920993 164.641941 
L 353.15419 166.589143 
L 353.50931 172.003304 
L 354.519489 190.272206 
L 354.646134 190.611857 
L 354.770144 190.097376 
L 354.983142 187.104275 
L 355.31948 177.199895 
L 356.397291 139.034379 
L 356.668401 136.478119 
L 356.726552 136.420318 
L 356.774036 136.500664 
L 356.900577 137.268752 
L 357.092669 139.948011 
L 357.398218 147.644351 
L 358.616674 183.755197 
L 358.681313 183.730335 
L 358.806122 182.631567 
L 359.004726 178.002908 
L 359.345194 163.134324 
L 360.17115 124.111547 
L 360.468649 119.329468 
L 360.534602 119.112556 
L 360.59866 119.180774 
L 360.717188 120.003031 
L 360.940153 123.809156 
L 361.313585 135.83287 
L 361.895969 164.086119 
L 362.417224 186.386973 
L 362.617789 189.305834 
L 362.670859 189.292331 
L 362.79338 187.900286 
L 363.015822 180.566963 
L 363.341142 161.027313 
L 364.151878 110.947506 
L 364.446321 104.195573 
L 364.569647 103.633677 
L 364.670025 104.113092 
L 364.828628 106.487471 
L 365.063818 113.362458 
L 365.470039 133.60543 
L 366.636238 202.928284 
L 366.696781 203.107422 
L 366.814903 201.640195 
L 367.010436 194.126151 
L 367.341097 170.367151 
L 368.05122 116.56697 
L 368.382392 106.035833 
L 368.564759 104.859425 
L 368.676471 105.6204 
L 368.861358 109.221658 
L 369.155529 120.810497 
L 369.538906 145.883137 
L 370.398882 204.862214 
L 370.605027 208.200609 
L 370.706354 207.516405 
L 370.865781 203.487027 
L 371.160156 188.258919 
L 372.211236 125.196066 
L 372.408843 123.463515 
L 372.549298 124.987744 
L 372.759185 131.113741 
L 373.13091 151.164748 
L 374.179102 218.789155 
L 374.312746 219.667347 
L 374.446518 217.63423 
L 374.692624 206.774128 
L 375.070591 175.208938 
L 376.026755 83.449085 
L 376.283863 76.448728 
L 376.34394 76.090899 
L 376.401052 76.151212 
L 376.510029 77.28984 
L 376.700854 82.300153 
L 377.018799 98.071764 
L 377.567787 127.087449 
L 377.77525 129.337506 
L 377.90092 127.712644 
L 378.17696 118.160332 
L 378.635485 91.113377 
L 379.780761 14.983091 
L 379.856529 14.339798 
L 379.894287 14.351605 
L 379.996681 15.480957 
L 380.192176 21.928422 
L 380.517596 43.552528 
L 381.628109 131.347042 
L 381.864347 136.177445 
L 381.978436 136.75821 
L 382.03591 136.661132 
L 382.161708 135.579402 
L 382.372683 131.182461 
L 382.709219 117.734475 
L 383.796107 65.563196 
L 383.850023 65.409487 
L 383.957466 66.231107 
L 384.1613 71.825845 
L 384.498135 90.396617 
L 385.106378 124.892642 
L 385.460381 132.805887 
L 385.822782 136.096587 
L 385.988922 136.716155 
L 386.03385 136.701856 
L 386.131304 136.263714 
L 386.288198 133.94959 
L 386.518629 125.629348 
L 386.863702 101.432951 
L 387.633682 41.864736 
L 387.85065 37.759262 
L 387.937818 38.472613 
L 388.105749 43.316215 
L 388.51776 65.935661 
L 388.952793 85.352929 
L 390.241973 120.957776 
L 390.295311 120.861834 
L 390.400393 119.696511 
L 390.611101 113.702067 
L 391.028332 92.698914 
L 391.476156 74.374689 
L 391.618169 73.164383 
L 391.653141 73.296563 
L 391.75129 74.550244 
L 391.966776 81.132744 
L 392.6786 106.83292 
L 393.257609 118.908955 
L 394.093187 145.182636 
L 394.153762 145.12 
L 394.260006 144.01373 
L 394.451839 138.933803 
L 394.824299 120.142179 
L 395.516652 83.078476 
L 395.845423 75.853321 
L 396.483542 68.809273 
L 396.648049 68.016451 
L 396.695187 68.027685 
L 396.798462 68.500221 
L 396.979827 70.80696 
L 397.60215 80.754028 
L 397.665829 80.716058 
L 397.800066 79.645912 
L 398.027665 74.962629 
L 398.410978 60.615236 
L 399.288188 22.713256 
L 399.414104 21.75385 
L 399.480118 21.900249 
L 399.662719 24.193766 
L 400.145267 36.041327 
L 400.507064 48.57795 
L 400.859245 69.895119 
L 401.4943 109.40713 
L 401.720473 112.480692 
L 401.849775 111.420684 
L 402.129411 105.002188 
L 403.091665 80.672395 
L 403.347975 77.61375 
L 403.39492 77.574156 
L 403.513359 78.479658 
L 403.671348 82.283774 
L 403.909536 93.797129 
L 404.998005 156.096794 
L 405.226391 160.405141 
L 405.288067 160.630633 
L 405.403813 159.608772 
L 405.5959 153.04433 
L 405.893547 131.853414 
L 406.603214 79.736636 
L 407.125834 54.048053 
L 407.24497 52.549735 
L 407.283977 52.712303 
L 407.389524 54.898704 
L 407.606842 66.603417 
L 409.019182 163.901242 
L 409.22729 166.766323 
L 409.330277 165.806787 
L 409.638816 158.943714 
L 410.212139 148.202108 
L 410.499003 144.871761 
L 410.542064 144.839845 
L 410.635869 145.471265 
L 410.77988 148.654577 
L 411.039497 161.52551 
L 412.031826 223.15669 
L 412.491791 234.940438 
L 412.70116 236.609191 
L 412.786853 236.161741 
L 412.927267 233.784444 
L 413.159794 225.069088 
L 413.471319 203.522459 
L 414.513028 118.510736 
L 414.698978 117.140553 
L 414.797241 117.205228 
L 414.943211 117.38185 
L 414.997265 117.347178 
L 415.139385 116.8802 
L 415.467094 115.432415 
L 415.58003 115.906595 
L 415.760842 118.752763 
L 416.095208 129.645433 
L 416.404707 137.683057 
L 416.499384 138.145844 
L 416.537032 138.014379 
L 416.675121 136.080645 
L 416.986707 125.960053 
L 417.587111 97.946963 
L 418.262845 64.52962 
L 418.4063 63.136735 
L 418.45254 63.258121 
L 418.574702 64.764396 
L 418.798079 70.847719 
L 419.282105 91.407355 
L 419.6273 115.858407 
L 420.20943 180.650251 
L 420.737642 228.4487 
L 420.984267 237.562792 
L 421.052919 237.891064 
L 421.082948 237.714331 
L 421.182291 235.787518 
L 421.370321 227.546591 
L 421.991916 197.627865 
L 422.361999 189.17211 
L 422.361999 189.17211 
" clip-path="url(#pc04273f360)" style="fill: none; stroke: #3ea44e"/>
   </g>
   <g id="legend_1">
    <g id="patch_5">
     <path d="M 332.945749 50.862146 
L 418.361999 50.862146 
L 418.361999 6.834646 
L 332.945749 6.834646 
z
" style="fill: #ffffff; stroke: #000000; stroke-linejoin: miter"/>
    </g>
    <g id="line2d_13">
     <path d="M 339.345749 16.513396 
L 347.345749 16.513396 
L 355.345749 16.513396 
" style="fill: none; stroke: #009afa; stroke-linejoin: miter"/>
    </g>
    <g id="text_12">
     <!-- GXBeam -->
     <g transform="translate(361.745749 19.313396) scale(0.08 -0.08)">
      <defs>
       <path id="DejaVuSans-47" d="M 3809 666 
L 3809 1919 
L 2778 1919 
L 2778 2438 
L 4434 2438 
L 4434 434 
Q 4069 175 3628 42 
Q 3188 -91 2688 -91 
Q 1594 -91 976 548 
Q 359 1188 359 2328 
Q 359 3472 976 4111 
Q 1594 4750 2688 4750 
Q 3144 4750 3555 4637 
Q 3966 4525 4313 4306 
L 4313 3634 
Q 3963 3931 3569 4081 
Q 3175 4231 2741 4231 
Q 1884 4231 1454 3753 
Q 1025 3275 1025 2328 
Q 1025 1384 1454 906 
Q 1884 428 2741 428 
Q 3075 428 3337 486 
Q 3600 544 3809 666 
z
" transform="scale(0.015625)"/>
       <path id="DejaVuSans-58" d="M 403 4666 
L 1081 4666 
L 2241 2931 
L 3406 4666 
L 4084 4666 
L 2584 2425 
L 4184 0 
L 3506 0 
L 2194 1984 
L 872 0 
L 191 0 
L 1856 2491 
L 403 4666 
z
" transform="scale(0.015625)"/>
       <path id="DejaVuSans-42" d="M 1259 2228 
L 1259 519 
L 2272 519 
Q 2781 519 3026 730 
Q 3272 941 3272 1375 
Q 3272 1813 3026 2020 
Q 2781 2228 2272 2228 
L 1259 2228 
z
M 1259 4147 
L 1259 2741 
L 2194 2741 
Q 2656 2741 2882 2914 
Q 3109 3088 3109 3444 
Q 3109 3797 2882 3972 
Q 2656 4147 2194 4147 
L 1259 4147 
z
M 628 4666 
L 2241 4666 
Q 2963 4666 3353 4366 
Q 3744 4066 3744 3513 
Q 3744 3084 3544 2831 
Q 3344 2578 2956 2516 
Q 3422 2416 3680 2098 
Q 3938 1781 3938 1306 
Q 3938 681 3513 340 
Q 3088 0 2303 0 
L 628 0 
L 628 4666 
z
" transform="scale(0.015625)"/>
       <path id="DejaVuSans-61" d="M 2194 1759 
Q 1497 1759 1228 1600 
Q 959 1441 959 1056 
Q 959 750 1161 570 
Q 1363 391 1709 391 
Q 2188 391 2477 730 
Q 2766 1069 2766 1631 
L 2766 1759 
L 2194 1759 
z
M 3341 1997 
L 3341 0 
L 2766 0 
L 2766 531 
Q 2569 213 2275 61 
Q 1981 -91 1556 -91 
Q 1019 -91 701 211 
Q 384 513 384 1019 
Q 384 1609 779 1909 
Q 1175 2209 1959 2209 
L 2766 2209 
L 2766 2266 
Q 2766 2663 2505 2880 
Q 2244 3097 1772 3097 
Q 1472 3097 1187 3025 
Q 903 2953 641 2809 
L 641 3341 
Q 956 3463 1253 3523 
Q 1550 3584 1831 3584 
Q 2591 3584 2966 3190 
Q 3341 2797 3341 1997 
z
" transform="scale(0.015625)"/>
      </defs>
      <use xlink:href="#DejaVuSans-47"/>
      <use xlink:href="#DejaVuSans-58" x="77.490234"/>
      <use xlink:href="#DejaVuSans-42" x="145.996094"/>
      <use xlink:href="#DejaVuSans-65" x="214.599609"/>
      <use xlink:href="#DejaVuSans-61" x="276.123047"/>
      <use xlink:href="#DejaVuSans-6d" x="337.402344"/>
     </g>
    </g>
    <g id="line2d_14">
     <path d="M 339.345749 28.255896 
L 347.345749 28.255896 
L 355.345749 28.255896 
" style="fill: none; stroke: #e36f47; stroke-linejoin: miter"/>
    </g>
    <g id="text_13">
     <!-- ODEProblem -->
     <g transform="translate(361.745749 31.055896) scale(0.08 -0.08)">
      <defs>
       <path id="DejaVuSans-4f" d="M 2522 4238 
Q 1834 4238 1429 3725 
Q 1025 3213 1025 2328 
Q 1025 1447 1429 934 
Q 1834 422 2522 422 
Q 3209 422 3611 934 
Q 4013 1447 4013 2328 
Q 4013 3213 3611 3725 
Q 3209 4238 2522 4238 
z
M 2522 4750 
Q 3503 4750 4090 4092 
Q 4678 3434 4678 2328 
Q 4678 1225 4090 567 
Q 3503 -91 2522 -91 
Q 1538 -91 948 565 
Q 359 1222 359 2328 
Q 359 3434 948 4092 
Q 1538 4750 2522 4750 
z
" transform="scale(0.015625)"/>
       <path id="DejaVuSans-44" d="M 1259 4147 
L 1259 519 
L 2022 519 
Q 2988 519 3436 956 
Q 3884 1394 3884 2338 
Q 3884 3275 3436 3711 
Q 2988 4147 2022 4147 
L 1259 4147 
z
M 628 4666 
L 1925 4666 
Q 3281 4666 3915 4102 
Q 4550 3538 4550 2338 
Q 4550 1131 3912 565 
Q 3275 0 1925 0 
L 628 0 
L 628 4666 
z
" transform="scale(0.015625)"/>
       <path id="DejaVuSans-45" d="M 628 4666 
L 3578 4666 
L 3578 4134 
L 1259 4134 
L 1259 2753 
L 3481 2753 
L 3481 2222 
L 1259 2222 
L 1259 531 
L 3634 531 
L 3634 0 
L 628 0 
L 628 4666 
z
" transform="scale(0.015625)"/>
       <path id="DejaVuSans-50" d="M 1259 4147 
L 1259 2394 
L 2053 2394 
Q 2494 2394 2734 2622 
Q 2975 2850 2975 3272 
Q 2975 3691 2734 3919 
Q 2494 4147 2053 4147 
L 1259 4147 
z
M 628 4666 
L 2053 4666 
Q 2838 4666 3239 4311 
Q 3641 3956 3641 3272 
Q 3641 2581 3239 2228 
Q 2838 1875 2053 1875 
L 1259 1875 
L 1259 0 
L 628 0 
L 628 4666 
z
" transform="scale(0.015625)"/>
       <path id="DejaVuSans-72" d="M 2631 2963 
Q 2534 3019 2420 3045 
Q 2306 3072 2169 3072 
Q 1681 3072 1420 2755 
Q 1159 2438 1159 1844 
L 1159 0 
L 581 0 
L 581 3500 
L 1159 3500 
L 1159 2956 
Q 1341 3275 1631 3429 
Q 1922 3584 2338 3584 
Q 2397 3584 2469 3576 
Q 2541 3569 2628 3553 
L 2631 2963 
z
" transform="scale(0.015625)"/>
       <path id="DejaVuSans-6f" d="M 1959 3097 
Q 1497 3097 1228 2736 
Q 959 2375 959 1747 
Q 959 1119 1226 758 
Q 1494 397 1959 397 
Q 2419 397 2687 759 
Q 2956 1122 2956 1747 
Q 2956 2369 2687 2733 
Q 2419 3097 1959 3097 
z
M 1959 3584 
Q 2709 3584 3137 3096 
Q 3566 2609 3566 1747 
Q 3566 888 3137 398 
Q 2709 -91 1959 -91 
Q 1206 -91 779 398 
Q 353 888 353 1747 
Q 353 2609 779 3096 
Q 1206 3584 1959 3584 
z
" transform="scale(0.015625)"/>
       <path id="DejaVuSans-62" d="M 3116 1747 
Q 3116 2381 2855 2742 
Q 2594 3103 2138 3103 
Q 1681 3103 1420 2742 
Q 1159 2381 1159 1747 
Q 1159 1113 1420 752 
Q 1681 391 2138 391 
Q 2594 391 2855 752 
Q 3116 1113 3116 1747 
z
M 1159 2969 
Q 1341 3281 1617 3432 
Q 1894 3584 2278 3584 
Q 2916 3584 3314 3078 
Q 3713 2572 3713 1747 
Q 3713 922 3314 415 
Q 2916 -91 2278 -91 
Q 1894 -91 1617 61 
Q 1341 213 1159 525 
L 1159 0 
L 581 0 
L 581 4863 
L 1159 4863 
L 1159 2969 
z
" transform="scale(0.015625)"/>
       <path id="DejaVuSans-6c" d="M 603 4863 
L 1178 4863 
L 1178 0 
L 603 0 
L 603 4863 
z
" transform="scale(0.015625)"/>
      </defs>
      <use xlink:href="#DejaVuSans-4f"/>
      <use xlink:href="#DejaVuSans-44" x="78.710938"/>
      <use xlink:href="#DejaVuSans-45" x="155.712891"/>
      <use xlink:href="#DejaVuSans-50" x="218.896484"/>
      <use xlink:href="#DejaVuSans-72" x="277.449219"/>
      <use xlink:href="#DejaVuSans-6f" x="316.3125"/>
      <use xlink:href="#DejaVuSans-62" x="377.494141"/>
      <use xlink:href="#DejaVuSans-6c" x="440.970703"/>
      <use xlink:href="#DejaVuSans-65" x="468.753906"/>
      <use xlink:href="#DejaVuSans-6d" x="530.277344"/>
     </g>
    </g>
    <g id="line2d_15">
     <path d="M 339.345749 39.998396 
L 347.345749 39.998396 
L 355.345749 39.998396 
" style="fill: none; stroke: #3ea44e; stroke-linejoin: miter"/>
    </g>
    <g id="text_14">
     <!-- DAEProblem -->
     <g transform="translate(361.745749 42.798396) scale(0.08 -0.08)">
      <defs>
       <path id="DejaVuSans-41" d="M 2188 4044 
L 1331 1722 
L 3047 1722 
L 2188 4044 
z
M 1831 4666 
L 2547 4666 
L 4325 0 
L 3669 0 
L 3244 1197 
L 1141 1197 
L 716 0 
L 50 0 
L 1831 4666 
z
" transform="scale(0.015625)"/>
      </defs>
      <use xlink:href="#DejaVuSans-44"/>
      <use xlink:href="#DejaVuSans-41" x="75.251953"/>
      <use xlink:href="#DejaVuSans-45" x="143.660156"/>
      <use xlink:href="#DejaVuSans-50" x="206.84375"/>
      <use xlink:href="#DejaVuSans-72" x="265.396484"/>
      <use xlink:href="#DejaVuSans-6f" x="304.259766"/>
      <use xlink:href="#DejaVuSans-62" x="365.441406"/>
      <use xlink:href="#DejaVuSans-6c" x="428.917969"/>
      <use xlink:href="#DejaVuSans-65" x="456.701172"/>
      <use xlink:href="#DejaVuSans-6d" x="518.224609"/>
     </g>
    </g>
   </g>
  </g>
 </g>
 <defs>
  <clipPath id="pc04273f360">
   <rect x="64.557544" y="2.834646" width="357.804455" height="255.390709"/>
  </clipPath>
 </defs>
</svg>
