<?xml version="1.0" encoding="utf-8" standalone="no"?>
<!DOCTYPE svg PUBLIC "-//W3C//DTD SVG 1.1//EN"
  "http://www.w3.org/Graphics/SVG/1.1/DTD/svg11.dtd">
<svg xmlns:xlink="http://www.w3.org/1999/xlink" width="432pt" height="288pt" viewBox="0 0 432 288" xmlns="http://www.w3.org/2000/svg" version="1.1">
 <metadata>
  <rdf:RDF xmlns:dc="http://purl.org/dc/elements/1.1/" xmlns:cc="http://creativecommons.org/ns#" xmlns:rdf="http://www.w3.org/1999/02/22-rdf-syntax-ns#">
   <cc:Work>
    <dc:type rdf:resource="http://purl.org/dc/dcmitype/StillImage"/>
    <dc:date>2023-04-05T00:58:26.102486</dc:date>
    <dc:format>image/svg+xml</dc:format>
    <dc:creator>
     <cc:Agent>
      <dc:title>Matplotlib v3.7.1, https://matplotlib.org/</dc:title>
     </cc:Agent>
    </dc:creator>
   </cc:Work>
  </rdf:RDF>
 </metadata>
 <defs>
  <style type="text/css">*{stroke-linejoin: round; stroke-linecap: butt}</style>
 </defs>
 <g id="figure_1">
  <g id="patch_1">
   <path d="M 0 288 
L 432 288 
L 432 0 
L 0 0 
z
" style="fill: #ffffff"/>
  </g>
  <g id="axes_1">
   <g id="patch_2">
    <path d="M 71.231488 258.225354 
L 422.361999 258.225354 
L 422.361999 2.834646 
L 71.231488 2.834646 
z
" style="fill: #ffffff"/>
   </g>
   <g id="line2d_1">
    <path d="M 71.231488 129.402215 
L 72.63601 129.479718 
L 73.689401 129.615542 
L 74.216097 129.469748 
L 76.147315 128.681506 
L 76.849576 128.886847 
L 81.238707 131.434519 
L 81.765403 131.313072 
L 82.292099 130.914865 
L 86.505665 126.621212 
L 87.207926 126.192624 
L 87.734622 126.117387 
L 88.963578 126.077603 
L 89.665839 125.874909 
L 90.3681 125.696612 
L 90.894796 125.705308 
L 91.421492 125.967041 
L 92.299318 126.733234 
L 93.70384 128.450335 
L 94.581667 130.115068 
L 95.459493 132.353015 
L 96.68845 135.38773 
L 97.566276 136.847861 
L 98.444102 137.916875 
L 99.497494 138.993018 
L 100.199755 139.368065 
L 100.726451 139.408778 
L 102.306538 139.256617 
L 103.535495 139.37526 
L 104.06219 139.234188 
L 104.588886 138.78131 
L 105.466712 137.675966 
L 107.39793 134.604763 
L 108.275757 132.624649 
L 109.855844 129.095154 
L 111.787062 125.458747 
L 112.664888 123.171 
L 114.596106 117.299905 
L 115.649497 113.273091 
L 117.40515 106.567683 
L 118.282976 104.221168 
L 119.511933 101.666387 
L 120.389759 100.335265 
L 120.916455 99.906527 
L 121.443151 99.688014 
L 121.969847 99.682459 
L 123.725499 100.01595 
L 124.252195 100.392586 
L 124.778891 101.162413 
L 125.481152 102.679316 
L 126.710108 106.189839 
L 128.11463 110.891187 
L 130.396979 119.306288 
L 133.732719 129.566224 
L 135.137241 134.814113 
L 136.190632 139.697189 
L 140.755329 162.673193 
L 142.159851 168.953536 
L 143.915504 175.641783 
L 144.617765 177.76418 
L 145.320026 179.20628 
L 145.846721 179.7651 
L 146.548982 180.079523 
L 147.251243 180.059535 
L 148.12907 179.839234 
L 148.831331 179.395892 
L 150.411418 178.347859 
L 150.938114 178.374242 
L 151.46481 178.635666 
L 153.044897 179.692033 
L 153.747158 179.832418 
L 155.50281 179.682204 
L 156.205071 179.320009 
L 156.731767 178.745558 
L 159.189681 175.259967 
L 159.891942 174.092663 
L 160.418638 172.849488 
L 161.296464 169.969073 
L 162.17429 166.062927 
L 163.052116 161.221827 
L 163.929943 155.115174 
L 165.158899 144.507271 
L 168.319074 116.249099 
L 170.250292 100.386574 
L 172.883771 81.330047 
L 173.761597 76.470953 
L 174.639423 72.873692 
L 175.692815 69.683898 
L 176.570641 67.732088 
L 177.272902 66.641297 
L 178.677424 64.895107 
L 179.379685 63.612668 
L 180.959772 60.212508 
L 181.662034 59.234804 
L 182.364295 58.71245 
L 182.89099 58.577494 
L 183.417686 58.67633 
L 183.944382 59.068109 
L 184.471078 59.834643 
L 185.173339 61.362344 
L 186.928991 65.535212 
L 189.21134 70.056035 
L 189.913601 72.107121 
L 190.791427 75.429258 
L 191.493688 78.935138 
L 192.371514 84.680043 
L 193.600471 94.689221 
L 196.058384 114.94047 
L 199.042994 137.614308 
L 200.974212 151.163154 
L 201.852038 155.663806 
L 202.554299 158.178003 
L 203.432125 160.413829 
L 205.714474 165.557878 
L 206.416735 167.893403 
L 207.118996 170.940816 
L 209.401344 182.010081 
L 209.92804 183.442606 
L 210.454735 184.31932 
L 210.805866 184.60291 
L 211.156996 184.681104 
L 211.508127 184.58544 
L 211.859258 184.268145 
L 212.385953 183.319629 
L 212.912649 181.849519 
L 213.790475 178.403265 
L 214.843867 174.110233 
L 215.370563 172.685623 
L 215.897258 171.945029 
L 216.248389 171.821037 
L 216.599519 171.938067 
L 218.179607 172.78214 
L 218.530737 172.656136 
L 218.881868 172.352155 
L 219.232998 171.834952 
L 219.759694 170.498953 
L 220.28639 168.315727 
L 220.813086 165.020152 
L 221.515347 158.807694 
L 222.568738 146.736951 
L 224.148825 129.024175 
L 226.255608 108.579573 
L 227.660131 94.774212 
L 228.537957 83.538096 
L 229.942479 61.560127 
L 230.99587 46.880489 
L 231.698131 39.622264 
L 232.400392 34.597947 
L 232.927088 32.520505 
L 233.278219 31.97637 
L 233.453784 31.978075 
L 233.629349 32.163207 
L 233.98048 33.074108 
L 234.507176 35.658919 
L 235.385002 41.784513 
L 236.438393 48.780882 
L 237.140654 51.911745 
L 238.018481 54.675441 
L 239.598568 59.01072 
L 239.949698 59.480438 
L 240.300829 59.636418 
L 240.651959 59.500312 
L 241.880916 58.505214 
L 242.232047 58.615012 
L 242.583177 58.978482 
L 243.285438 60.099534 
L 244.163265 61.541188 
L 245.041091 62.858676 
L 245.567787 64.164999 
L 246.094482 66.087319 
L 247.323439 71.173501 
L 247.67457 71.868541 
L 248.0257 72.037285 
L 248.376831 71.77436 
L 249.079092 70.93775 
L 249.254657 70.871324 
L 249.430222 70.934486 
L 249.605788 71.161996 
L 249.956918 72.207514 
L 250.308049 74.040276 
L 250.834744 78.172207 
L 251.537005 85.757536 
L 252.414832 97.970209 
L 253.292658 113.901468 
L 255.750571 163.232782 
L 256.452832 171.498751 
L 257.330659 178.840363 
L 258.208485 184.22805 
L 258.735181 186.352616 
L 259.086311 187.178376 
L 259.437442 187.590914 
L 260.490833 188.319503 
L 260.841964 188.985918 
L 261.36866 190.576387 
L 262.246486 193.485862 
L 262.597616 194.00359 
L 262.773182 194.038872 
L 262.948747 193.90523 
L 263.299877 193.132844 
L 263.826573 191.11232 
L 264.7044 187.765477 
L 265.05553 187.173816 
L 265.231095 187.081354 
L 265.406661 187.12972 
L 265.757791 187.625439 
L 266.284487 188.996707 
L 268.040139 194.672818 
L 268.566835 197.193405 
L 270.322488 207.090655 
L 270.498053 207.370017 
L 270.673618 207.392394 
L 270.849183 207.162344 
L 271.200314 206.005689 
L 271.72701 202.918643 
L 272.604836 197.452524 
L 272.955967 196.123248 
L 273.307097 195.528287 
L 273.658228 195.474028 
L 274.711619 196.043463 
L 275.06275 195.727916 
L 275.41388 195.043503 
L 276.993967 191.179037 
L 277.345098 190.963169 
L 278.398489 190.908052 
L 278.74962 190.225119 
L 279.10075 188.779392 
L 279.451881 186.494868 
L 279.978577 181.35516 
L 280.680838 171.825854 
L 282.612056 144.103014 
L 284.192143 124.272213 
L 285.245534 114.215535 
L 286.123361 105.53027 
L 286.825622 95.962069 
L 288.054579 74.574883 
L 289.283535 54.493436 
L 290.336927 40.578354 
L 290.863623 35.554681 
L 291.214753 33.459184 
L 291.565884 32.637622 
L 291.741449 32.72622 
L 291.917014 33.144772 
L 292.268145 34.930083 
L 292.79484 39.358009 
L 294.199362 52.430464 
L 294.726058 55.427307 
L 295.252754 57.216079 
L 295.603885 57.869541 
L 295.955015 58.127412 
L 296.13058 58.086515 
L 296.306146 57.904294 
L 296.657276 57.010322 
L 297.008407 55.293106 
L 297.535102 50.936579 
L 298.237363 42.191584 
L 299.290755 28.329046 
L 299.817451 23.702346 
L 300.168581 21.924882 
L 300.519712 21.167015 
L 300.695277 21.166924 
L 300.870842 21.406772 
L 301.221973 22.528099 
L 301.573103 24.397162 
L 302.099799 28.550231 
L 302.80206 36.000713 
L 304.908843 60.394161 
L 305.259974 61.961179 
L 305.435539 62.238881 
L 305.611104 62.168138 
L 305.786669 61.739721 
L 306.1378 59.815586 
L 306.664496 54.782859 
L 308.595713 32.350444 
L 308.946844 30.568404 
L 309.122409 30.281433 
L 309.297974 30.491689 
L 309.47354 31.240662 
L 309.82467 34.53691 
L 310.175801 40.266025 
L 310.702497 52.981575 
L 311.580323 81.844554 
L 313.335975 142.447088 
L 314.038236 158.427071 
L 314.564932 166.070998 
L 315.091628 170.600059 
L 315.442758 172.090544 
L 315.793889 172.659497 
L 315.969454 172.678756 
L 316.671715 172.22323 
L 316.84728 172.365413 
L 317.022846 172.77914 
L 317.373976 174.713144 
L 317.725107 178.430057 
L 318.251803 187.284255 
L 320.18302 225.484973 
L 320.709716 231.214903 
L 321.236412 234.49023 
L 321.763108 236.164028 
L 322.114238 236.529998 
L 322.289803 236.394566 
L 322.465369 235.972032 
L 322.816499 234.026933 
L 323.16763 230.265604 
L 323.694325 220.563327 
L 324.396586 201.361893 
L 325.098848 183.166665 
L 325.449978 177.704708 
L 325.801109 175.512512 
L 325.976674 175.61871 
L 326.152239 176.46883 
L 326.50337 180.086886 
L 327.030065 188.795627 
L 328.785718 220.580514 
L 330.365805 241.867072 
L 331.068066 248.803776 
L 331.419197 250.621569 
L 331.594762 250.997315 
L 331.770327 250.944934 
L 331.945892 250.405332 
L 332.297023 247.728615 
L 332.648154 242.840509 
L 333.350415 227.961075 
L 334.228241 209.574545 
L 334.579371 205.221168 
L 334.930502 203.164553 
L 335.106067 202.90579 
L 335.281632 203.038466 
L 335.632763 204.080189 
L 336.159459 205.676224 
L 336.335024 205.881039 
L 336.510589 205.895663 
L 336.86172 205.434584 
L 337.388415 204.552464 
L 337.563981 204.528394 
L 337.739546 204.733616 
L 337.915111 205.238087 
L 338.266242 207.335365 
L 338.792937 213.098841 
L 340.021894 228.659446 
L 340.373025 231.287678 
L 340.724155 232.426729 
L 340.899721 232.449041 
L 341.075286 232.162656 
L 341.426416 230.798669 
L 341.777547 228.470947 
L 342.304243 223.03861 
L 342.830938 215.105101 
L 344.762156 181.212885 
L 345.288852 176.706259 
L 346.166678 170.457641 
L 346.693374 163.821628 
L 347.395635 151.017373 
L 348.624592 126.65728 
L 349.151288 120.442034 
L 349.853549 113.702863 
L 350.204679 107.847169 
L 350.731375 94.638608 
L 352.135897 55.423557 
L 352.662593 46.626604 
L 353.013723 43.163888 
L 354.067115 36.157492 
L 354.59381 28.168245 
L 355.471637 13.301029 
L 355.822767 10.95316 
L 355.998333 11.151567 
L 356.173898 12.306792 
L 356.525028 17.158132 
L 357.57842 36.575842 
L 357.753985 38.014489 
L 357.92955 38.530592 
L 358.105116 38.087721 
L 358.456246 34.485437 
L 359.158507 21.045978 
L 359.509638 15.550108 
L 359.685203 14.061208 
L 359.860768 13.611714 
L 360.036333 14.222296 
L 360.387464 18.375122 
L 361.791986 43.222539 
L 361.967551 43.813165 
L 362.143116 43.568551 
L 362.318682 42.537696 
L 362.669812 38.426129 
L 363.547639 25.753466 
L 363.723204 25.536569 
L 363.898769 26.784848 
L 364.2499 33.493826 
L 365.127726 55.654769 
L 365.478856 58.594643 
L 365.654422 58.517242 
L 365.829987 57.539707 
L 366.181117 53.14494 
L 366.707813 41.312457 
L 367.410074 25.095296 
L 367.585639 23.642755 
L 367.761205 23.968996 
L 367.93677 26.146662 
L 368.2879 35.188197 
L 369.165727 62.968907 
L 369.516857 68.49663 
L 369.692422 69.485823 
L 369.867988 69.290231 
L 370.043553 67.973476 
L 370.394684 62.607753 
L 371.096945 49.560221 
L 371.27251 47.901561 
L 371.448075 47.432627 
L 371.62364 48.300232 
L 371.974771 53.946653 
L 373.028162 79.686169 
L 373.203728 81.24133 
L 373.379293 81.433248 
L 373.554858 80.351756 
L 373.905989 75.439287 
L 374.60825 64.25075 
L 374.783815 63.085126 
L 374.95938 63.111554 
L 375.134945 64.518477 
L 375.486076 71.769964 
L 376.012772 92.104268 
L 376.890598 130.30919 
L 377.241728 138.778211 
L 377.592859 142.394892 
L 377.768424 142.954942 
L 378.29512 143.333324 
L 378.470685 144.172479 
L 378.821816 148.580629 
L 379.172946 156.748114 
L 379.875207 180.224117 
L 380.401903 197.705171 
L 380.753034 203.962966 
L 380.928599 204.630518 
L 381.104164 203.665494 
L 381.455295 197.809471 
L 382.508686 174.336342 
L 382.684251 172.768084 
L 382.859817 172.344888 
L 383.035382 173.035387 
L 383.386512 177.351368 
L 384.439904 195.397705 
L 384.615469 196.093468 
L 384.791034 195.72667 
L 384.9666 194.317943 
L 385.31773 188.925289 
L 386.019991 176.167287 
L 386.371122 173.772138 
L 386.546687 174.100745 
L 386.722252 175.365815 
L 387.073383 180.387915 
L 387.600079 193.411038 
L 388.30234 212.647319 
L 388.477905 215.106861 
L 388.65347 215.945795 
L 388.829035 215.167728 
L 389.180166 209.961169 
L 389.706862 200.775405 
L 390.057992 197.980225 
L 390.409123 197.141215 
L 390.935818 196.419997 
L 391.111384 196.863608 
L 391.286949 198.142338 
L 391.638079 203.445953 
L 392.164775 212.549784 
L 392.34034 213.623992 
L 392.515906 213.153664 
L 392.867036 208.162992 
L 393.569297 195.249269 
L 394.095993 190.294653 
L 394.447124 188.137555 
L 394.622689 187.64206 
L 394.798254 187.982668 
L 394.973819 189.491698 
L 395.32495 196.249037 
L 396.202776 218.183735 
L 396.553907 221.484074 
L 396.729472 221.935534 
L 396.905037 221.827679 
L 397.256168 220.712125 
L 397.782863 218.449864 
L 397.958429 218.042202 
L 398.133994 218.071382 
L 398.309559 218.605531 
L 398.66069 221.547622 
L 399.187385 229.461112 
L 399.714081 236.68467 
L 399.889646 237.772912 
L 400.065212 237.783723 
L 400.240777 236.536968 
L 400.591908 230.365478 
L 402.523125 182.501581 
L 402.698691 181.530307 
L 402.874256 181.435668 
L 403.225386 182.040851 
L 403.400952 181.806705 
L 403.576517 180.892628 
L 403.927647 176.939524 
L 404.278778 170.168503 
L 404.805474 154.345164 
L 405.332169 140.171392 
L 405.6833 137.12721 
L 405.858865 137.269782 
L 406.03443 138.294045 
L 406.385561 143.183211 
L 407.087822 157.241668 
L 407.263387 158.488693 
L 407.438952 158.496669 
L 407.614518 157.40606 
L 407.965648 152.302279 
L 408.316779 142.528381 
L 409.37017 107.955046 
L 409.896866 97.763986 
L 410.423562 91.949248 
L 410.774692 88.156548 
L 411.301388 77.949926 
L 412.003649 58.05978 
L 412.70591 37.680043 
L 413.057041 33.158659 
L 413.232606 33.039228 
L 413.408171 34.275488 
L 413.759302 39.643072 
L 415.163824 66.618626 
L 415.339389 67.156071 
L 415.514954 66.406236 
L 416.392781 57.265995 
L 416.568346 57.150865 
L 416.743911 57.718566 
L 417.095042 60.081426 
L 417.446172 64.737063 
L 418.499564 84.957777 
L 418.675129 85.363874 
L 418.850694 84.429738 
L 419.201825 78.648393 
L 419.552955 68.122267 
L 420.781912 22.805939 
L 421.133042 18.345611 
L 421.308608 18.216016 
L 421.659738 20.260859 
L 422.186434 25.1414 
L 422.361999 27.340855 
L 422.361999 27.340855 
" clip-path="url(#p49da834413)" style="fill: none; stroke: #009afa"/>
   </g>
   <g id="matplotlib.axis_1">
    <g id="xtick_1">
     <g id="line2d_2">
      <defs>
       <path id="m2062867b4b" d="M 0 0 
L 0 -2.5 
" style="stroke: #000000; stroke-width: 0.5"/>
      </defs>
      <g>
       <use xlink:href="#m2062867b4b" x="71.231488" y="258.225354" style="stroke: #000000; stroke-width: 0.5"/>
      </g>
     </g>
     <g id="text_1">
      <!-- $0.0$ -->
      <g transform="translate(64.831488 267.804104) scale(0.08 -0.08)">
       <defs>
        <path id="DejaVuSans-30" d="M 2034 4250 
Q 1547 4250 1301 3770 
Q 1056 3291 1056 2328 
Q 1056 1369 1301 889 
Q 1547 409 2034 409 
Q 2525 409 2770 889 
Q 3016 1369 3016 2328 
Q 3016 3291 2770 3770 
Q 2525 4250 2034 4250 
z
M 2034 4750 
Q 2819 4750 3233 4129 
Q 3647 3509 3647 2328 
Q 3647 1150 3233 529 
Q 2819 -91 2034 -91 
Q 1250 -91 836 529 
Q 422 1150 422 2328 
Q 422 3509 836 4129 
Q 1250 4750 2034 4750 
z
" transform="scale(0.015625)"/>
        <path id="DejaVuSans-2e" d="M 684 794 
L 1344 794 
L 1344 0 
L 684 0 
L 684 794 
z
" transform="scale(0.015625)"/>
       </defs>
       <use xlink:href="#DejaVuSans-30" transform="translate(0 0.78125)"/>
       <use xlink:href="#DejaVuSans-2e" transform="translate(63.623047 0.78125)"/>
       <use xlink:href="#DejaVuSans-30" transform="translate(95.410156 0.78125)"/>
      </g>
     </g>
    </g>
    <g id="xtick_2">
     <g id="line2d_3">
      <g>
       <use xlink:href="#m2062867b4b" x="159.014116" y="258.225354" style="stroke: #000000; stroke-width: 0.5"/>
      </g>
     </g>
     <g id="text_2">
      <!-- $0.5$ -->
      <g transform="translate(152.614116 267.804104) scale(0.08 -0.08)">
       <defs>
        <path id="DejaVuSans-35" d="M 691 4666 
L 3169 4666 
L 3169 4134 
L 1269 4134 
L 1269 2991 
Q 1406 3038 1543 3061 
Q 1681 3084 1819 3084 
Q 2600 3084 3056 2656 
Q 3513 2228 3513 1497 
Q 3513 744 3044 326 
Q 2575 -91 1722 -91 
Q 1428 -91 1123 -41 
Q 819 9 494 109 
L 494 744 
Q 775 591 1075 516 
Q 1375 441 1709 441 
Q 2250 441 2565 725 
Q 2881 1009 2881 1497 
Q 2881 1984 2565 2268 
Q 2250 2553 1709 2553 
Q 1456 2553 1204 2497 
Q 953 2441 691 2322 
L 691 4666 
z
" transform="scale(0.015625)"/>
       </defs>
       <use xlink:href="#DejaVuSans-30" transform="translate(0 0.78125)"/>
       <use xlink:href="#DejaVuSans-2e" transform="translate(63.623047 0.78125)"/>
       <use xlink:href="#DejaVuSans-35" transform="translate(95.410156 0.78125)"/>
      </g>
     </g>
    </g>
    <g id="xtick_3">
     <g id="line2d_4">
      <g>
       <use xlink:href="#m2062867b4b" x="246.796743" y="258.225354" style="stroke: #000000; stroke-width: 0.5"/>
      </g>
     </g>
     <g id="text_3">
      <!-- $1.0$ -->
      <g transform="translate(240.396743 267.804104) scale(0.08 -0.08)">
       <defs>
        <path id="DejaVuSans-31" d="M 794 531 
L 1825 531 
L 1825 4091 
L 703 3866 
L 703 4441 
L 1819 4666 
L 2450 4666 
L 2450 531 
L 3481 531 
L 3481 0 
L 794 0 
L 794 531 
z
" transform="scale(0.015625)"/>
       </defs>
       <use xlink:href="#DejaVuSans-31" transform="translate(0 0.78125)"/>
       <use xlink:href="#DejaVuSans-2e" transform="translate(63.623047 0.78125)"/>
       <use xlink:href="#DejaVuSans-30" transform="translate(95.410156 0.78125)"/>
      </g>
     </g>
    </g>
    <g id="xtick_4">
     <g id="line2d_5">
      <g>
       <use xlink:href="#m2062867b4b" x="334.579371" y="258.225354" style="stroke: #000000; stroke-width: 0.5"/>
      </g>
     </g>
     <g id="text_4">
      <!-- $1.5$ -->
      <g transform="translate(328.179371 267.804104) scale(0.08 -0.08)">
       <use xlink:href="#DejaVuSans-31" transform="translate(0 0.09375)"/>
       <use xlink:href="#DejaVuSans-2e" transform="translate(63.623047 0.09375)"/>
       <use xlink:href="#DejaVuSans-35" transform="translate(95.410156 0.09375)"/>
      </g>
     </g>
    </g>
    <g id="xtick_5">
     <g id="line2d_6">
      <g>
       <use xlink:href="#m2062867b4b" x="422.361999" y="258.225354" style="stroke: #000000; stroke-width: 0.5"/>
      </g>
     </g>
     <g id="text_5">
      <!-- $2.0$ -->
      <g transform="translate(415.961999 267.804104) scale(0.08 -0.08)">
       <defs>
        <path id="DejaVuSans-32" d="M 1228 531 
L 3431 531 
L 3431 0 
L 469 0 
L 469 531 
Q 828 903 1448 1529 
Q 2069 2156 2228 2338 
Q 2531 2678 2651 2914 
Q 2772 3150 2772 3378 
Q 2772 3750 2511 3984 
Q 2250 4219 1831 4219 
Q 1534 4219 1204 4116 
Q 875 4013 500 3803 
L 500 4441 
Q 881 4594 1212 4672 
Q 1544 4750 1819 4750 
Q 2544 4750 2975 4387 
Q 3406 4025 3406 3419 
Q 3406 3131 3298 2873 
Q 3191 2616 2906 2266 
Q 2828 2175 2409 1742 
Q 1991 1309 1228 531 
z
" transform="scale(0.015625)"/>
       </defs>
       <use xlink:href="#DejaVuSans-32" transform="translate(0 0.78125)"/>
       <use xlink:href="#DejaVuSans-2e" transform="translate(63.623047 0.78125)"/>
       <use xlink:href="#DejaVuSans-30" transform="translate(95.410156 0.78125)"/>
      </g>
     </g>
    </g>
    <g id="text_6">
     <!-- Time (s) -->
     <g transform="translate(224.434947 281.826136) scale(0.11 -0.11)">
      <defs>
       <path id="DejaVuSans-54" d="M -19 4666 
L 3928 4666 
L 3928 4134 
L 2272 4134 
L 2272 0 
L 1638 0 
L 1638 4134 
L -19 4134 
L -19 4666 
z
" transform="scale(0.015625)"/>
       <path id="DejaVuSans-69" d="M 603 3500 
L 1178 3500 
L 1178 0 
L 603 0 
L 603 3500 
z
M 603 4863 
L 1178 4863 
L 1178 4134 
L 603 4134 
L 603 4863 
z
" transform="scale(0.015625)"/>
       <path id="DejaVuSans-6d" d="M 3328 2828 
Q 3544 3216 3844 3400 
Q 4144 3584 4550 3584 
Q 5097 3584 5394 3201 
Q 5691 2819 5691 2113 
L 5691 0 
L 5113 0 
L 5113 2094 
Q 5113 2597 4934 2840 
Q 4756 3084 4391 3084 
Q 3944 3084 3684 2787 
Q 3425 2491 3425 1978 
L 3425 0 
L 2847 0 
L 2847 2094 
Q 2847 2600 2669 2842 
Q 2491 3084 2119 3084 
Q 1678 3084 1418 2786 
Q 1159 2488 1159 1978 
L 1159 0 
L 581 0 
L 581 3500 
L 1159 3500 
L 1159 2956 
Q 1356 3278 1631 3431 
Q 1906 3584 2284 3584 
Q 2666 3584 2933 3390 
Q 3200 3197 3328 2828 
z
" transform="scale(0.015625)"/>
       <path id="DejaVuSans-65" d="M 3597 1894 
L 3597 1613 
L 953 1613 
Q 991 1019 1311 708 
Q 1631 397 2203 397 
Q 2534 397 2845 478 
Q 3156 559 3463 722 
L 3463 178 
Q 3153 47 2828 -22 
Q 2503 -91 2169 -91 
Q 1331 -91 842 396 
Q 353 884 353 1716 
Q 353 2575 817 3079 
Q 1281 3584 2069 3584 
Q 2775 3584 3186 3129 
Q 3597 2675 3597 1894 
z
M 3022 2063 
Q 3016 2534 2758 2815 
Q 2500 3097 2075 3097 
Q 1594 3097 1305 2825 
Q 1016 2553 972 2059 
L 3022 2063 
z
" transform="scale(0.015625)"/>
       <path id="DejaVuSans-20" transform="scale(0.015625)"/>
       <path id="DejaVuSans-28" d="M 1984 4856 
Q 1566 4138 1362 3434 
Q 1159 2731 1159 2009 
Q 1159 1288 1364 580 
Q 1569 -128 1984 -844 
L 1484 -844 
Q 1016 -109 783 600 
Q 550 1309 550 2009 
Q 550 2706 781 3412 
Q 1013 4119 1484 4856 
L 1984 4856 
z
" transform="scale(0.015625)"/>
       <path id="DejaVuSans-73" d="M 2834 3397 
L 2834 2853 
Q 2591 2978 2328 3040 
Q 2066 3103 1784 3103 
Q 1356 3103 1142 2972 
Q 928 2841 928 2578 
Q 928 2378 1081 2264 
Q 1234 2150 1697 2047 
L 1894 2003 
Q 2506 1872 2764 1633 
Q 3022 1394 3022 966 
Q 3022 478 2636 193 
Q 2250 -91 1575 -91 
Q 1294 -91 989 -36 
Q 684 19 347 128 
L 347 722 
Q 666 556 975 473 
Q 1284 391 1588 391 
Q 1994 391 2212 530 
Q 2431 669 2431 922 
Q 2431 1156 2273 1281 
Q 2116 1406 1581 1522 
L 1381 1569 
Q 847 1681 609 1914 
Q 372 2147 372 2553 
Q 372 3047 722 3315 
Q 1072 3584 1716 3584 
Q 2034 3584 2315 3537 
Q 2597 3491 2834 3397 
z
" transform="scale(0.015625)"/>
       <path id="DejaVuSans-29" d="M 513 4856 
L 1013 4856 
Q 1481 4119 1714 3412 
Q 1947 2706 1947 2009 
Q 1947 1309 1714 600 
Q 1481 -109 1013 -844 
L 513 -844 
Q 928 -128 1133 580 
Q 1338 1288 1338 2009 
Q 1338 2731 1133 3434 
Q 928 4138 513 4856 
z
" transform="scale(0.015625)"/>
      </defs>
      <use xlink:href="#DejaVuSans-54"/>
      <use xlink:href="#DejaVuSans-69" x="57.958984"/>
      <use xlink:href="#DejaVuSans-6d" x="85.742188"/>
      <use xlink:href="#DejaVuSans-65" x="183.154297"/>
      <use xlink:href="#DejaVuSans-20" x="244.677734"/>
      <use xlink:href="#DejaVuSans-28" x="276.464844"/>
      <use xlink:href="#DejaVuSans-73" x="315.478516"/>
      <use xlink:href="#DejaVuSans-29" x="367.578125"/>
     </g>
    </g>
   </g>
   <g id="matplotlib.axis_2">
    <g id="ytick_1">
     <g id="line2d_7">
      <defs>
       <path id="md5a6071a96" d="M 0 0 
L 2.5 0 
" style="stroke: #000000; stroke-width: 0.5"/>
      </defs>
      <g>
       <use xlink:href="#md5a6071a96" x="71.231488" y="240.070704" style="stroke: #000000; stroke-width: 0.5"/>
      </g>
     </g>
     <g id="text_7">
      <!-- $-1.50×10^{6}$ -->
      <g transform="translate(22.451488 243.110079) scale(0.08 -0.08)">
       <defs>
        <path id="DejaVuSans-2212" d="M 678 2272 
L 4684 2272 
L 4684 1741 
L 678 1741 
L 678 2272 
z
" transform="scale(0.015625)"/>
        <path id="DejaVuSans-d7" d="M 4488 3438 
L 3059 2003 
L 4488 575 
L 4116 197 
L 2681 1631 
L 1247 197 
L 878 575 
L 2303 2003 
L 878 3438 
L 1247 3816 
L 2681 2381 
L 4116 3816 
L 4488 3438 
z
" transform="scale(0.015625)"/>
        <path id="DejaVuSans-36" d="M 2113 2584 
Q 1688 2584 1439 2293 
Q 1191 2003 1191 1497 
Q 1191 994 1439 701 
Q 1688 409 2113 409 
Q 2538 409 2786 701 
Q 3034 994 3034 1497 
Q 3034 2003 2786 2293 
Q 2538 2584 2113 2584 
z
M 3366 4563 
L 3366 3988 
Q 3128 4100 2886 4159 
Q 2644 4219 2406 4219 
Q 1781 4219 1451 3797 
Q 1122 3375 1075 2522 
Q 1259 2794 1537 2939 
Q 1816 3084 2150 3084 
Q 2853 3084 3261 2657 
Q 3669 2231 3669 1497 
Q 3669 778 3244 343 
Q 2819 -91 2113 -91 
Q 1303 -91 875 529 
Q 447 1150 447 2328 
Q 447 3434 972 4092 
Q 1497 4750 2381 4750 
Q 2619 4750 2861 4703 
Q 3103 4656 3366 4563 
z
" transform="scale(0.015625)"/>
       </defs>
       <use xlink:href="#DejaVuSans-2212" transform="translate(0 0.765625)"/>
       <use xlink:href="#DejaVuSans-31" transform="translate(83.789062 0.765625)"/>
       <use xlink:href="#DejaVuSans-2e" transform="translate(147.412109 0.765625)"/>
       <use xlink:href="#DejaVuSans-35" transform="translate(179.199219 0.765625)"/>
       <use xlink:href="#DejaVuSans-30" transform="translate(242.822266 0.765625)"/>
       <use xlink:href="#DejaVuSans-d7" transform="translate(306.445312 0.765625)"/>
       <use xlink:href="#DejaVuSans-31" transform="translate(390.234375 0.765625)"/>
       <use xlink:href="#DejaVuSans-30" transform="translate(453.857422 0.765625)"/>
       <use xlink:href="#DejaVuSans-36" transform="translate(518.4375 39.046875) scale(0.7)"/>
      </g>
     </g>
    </g>
    <g id="ytick_2">
     <g id="line2d_8">
      <g>
       <use xlink:href="#md5a6071a96" x="71.231488" y="203.181208" style="stroke: #000000; stroke-width: 0.5"/>
      </g>
     </g>
     <g id="text_8">
      <!-- $-1.00×10^{6}$ -->
      <g transform="translate(22.451488 206.220583) scale(0.08 -0.08)">
       <use xlink:href="#DejaVuSans-2212" transform="translate(0 0.765625)"/>
       <use xlink:href="#DejaVuSans-31" transform="translate(83.789062 0.765625)"/>
       <use xlink:href="#DejaVuSans-2e" transform="translate(147.412109 0.765625)"/>
       <use xlink:href="#DejaVuSans-30" transform="translate(179.199219 0.765625)"/>
       <use xlink:href="#DejaVuSans-30" transform="translate(242.822266 0.765625)"/>
       <use xlink:href="#DejaVuSans-d7" transform="translate(306.445312 0.765625)"/>
       <use xlink:href="#DejaVuSans-31" transform="translate(390.234375 0.765625)"/>
       <use xlink:href="#DejaVuSans-30" transform="translate(453.857422 0.765625)"/>
       <use xlink:href="#DejaVuSans-36" transform="translate(518.4375 39.046875) scale(0.7)"/>
      </g>
     </g>
    </g>
    <g id="ytick_3">
     <g id="line2d_9">
      <g>
       <use xlink:href="#md5a6071a96" x="71.231488" y="166.291711" style="stroke: #000000; stroke-width: 0.5"/>
      </g>
     </g>
     <g id="text_9">
      <!-- $-5.00×10^{5}$ -->
      <g transform="translate(22.451488 169.331086) scale(0.08 -0.08)">
       <use xlink:href="#DejaVuSans-2212" transform="translate(0 0.684375)"/>
       <use xlink:href="#DejaVuSans-35" transform="translate(83.789062 0.684375)"/>
       <use xlink:href="#DejaVuSans-2e" transform="translate(147.412109 0.684375)"/>
       <use xlink:href="#DejaVuSans-30" transform="translate(179.199219 0.684375)"/>
       <use xlink:href="#DejaVuSans-30" transform="translate(242.822266 0.684375)"/>
       <use xlink:href="#DejaVuSans-d7" transform="translate(306.445312 0.684375)"/>
       <use xlink:href="#DejaVuSans-31" transform="translate(390.234375 0.684375)"/>
       <use xlink:href="#DejaVuSans-30" transform="translate(453.857422 0.684375)"/>
       <use xlink:href="#DejaVuSans-35" transform="translate(518.4375 38.965625) scale(0.7)"/>
      </g>
     </g>
    </g>
    <g id="ytick_4">
     <g id="line2d_10">
      <g>
       <use xlink:href="#md5a6071a96" x="71.231488" y="129.402215" style="stroke: #000000; stroke-width: 0.5"/>
      </g>
     </g>
     <g id="text_10">
      <!-- $0$ -->
      <g transform="translate(62.611488 132.44159) scale(0.08 -0.08)">
       <use xlink:href="#DejaVuSans-30" transform="translate(0 0.78125)"/>
      </g>
     </g>
    </g>
    <g id="ytick_5">
     <g id="line2d_11">
      <g>
       <use xlink:href="#md5a6071a96" x="71.231488" y="92.512719" style="stroke: #000000; stroke-width: 0.5"/>
      </g>
     </g>
     <g id="text_11">
      <!-- $5.00×10^{5}$ -->
      <g transform="translate(29.171488 95.552094) scale(0.08 -0.08)">
       <use xlink:href="#DejaVuSans-35" transform="translate(0 0.684375)"/>
       <use xlink:href="#DejaVuSans-2e" transform="translate(63.623047 0.684375)"/>
       <use xlink:href="#DejaVuSans-30" transform="translate(95.410156 0.684375)"/>
       <use xlink:href="#DejaVuSans-30" transform="translate(159.033203 0.684375)"/>
       <use xlink:href="#DejaVuSans-d7" transform="translate(222.65625 0.684375)"/>
       <use xlink:href="#DejaVuSans-31" transform="translate(306.445312 0.684375)"/>
       <use xlink:href="#DejaVuSans-30" transform="translate(370.068359 0.684375)"/>
       <use xlink:href="#DejaVuSans-35" transform="translate(434.648438 38.965625) scale(0.7)"/>
      </g>
     </g>
    </g>
    <g id="ytick_6">
     <g id="line2d_12">
      <g>
       <use xlink:href="#md5a6071a96" x="71.231488" y="55.623222" style="stroke: #000000; stroke-width: 0.5"/>
      </g>
     </g>
     <g id="text_12">
      <!-- $1.00×10^{6}$ -->
      <g transform="translate(29.171488 58.662597) scale(0.08 -0.08)">
       <use xlink:href="#DejaVuSans-31" transform="translate(0 0.765625)"/>
       <use xlink:href="#DejaVuSans-2e" transform="translate(63.623047 0.765625)"/>
       <use xlink:href="#DejaVuSans-30" transform="translate(95.410156 0.765625)"/>
       <use xlink:href="#DejaVuSans-30" transform="translate(159.033203 0.765625)"/>
       <use xlink:href="#DejaVuSans-d7" transform="translate(222.65625 0.765625)"/>
       <use xlink:href="#DejaVuSans-31" transform="translate(306.445312 0.765625)"/>
       <use xlink:href="#DejaVuSans-30" transform="translate(370.068359 0.765625)"/>
       <use xlink:href="#DejaVuSans-36" transform="translate(434.648438 39.046875) scale(0.7)"/>
      </g>
     </g>
    </g>
    <g id="ytick_7">
     <g id="line2d_13">
      <g>
       <use xlink:href="#md5a6071a96" x="71.231488" y="18.733726" style="stroke: #000000; stroke-width: 0.5"/>
      </g>
     </g>
     <g id="text_13">
      <!-- $1.50×10^{6}$ -->
      <g transform="translate(29.171488 21.773101) scale(0.08 -0.08)">
       <use xlink:href="#DejaVuSans-31" transform="translate(0 0.765625)"/>
       <use xlink:href="#DejaVuSans-2e" transform="translate(63.623047 0.765625)"/>
       <use xlink:href="#DejaVuSans-35" transform="translate(95.410156 0.765625)"/>
       <use xlink:href="#DejaVuSans-30" transform="translate(159.033203 0.765625)"/>
       <use xlink:href="#DejaVuSans-d7" transform="translate(222.65625 0.765625)"/>
       <use xlink:href="#DejaVuSans-31" transform="translate(306.445312 0.765625)"/>
       <use xlink:href="#DejaVuSans-30" transform="translate(370.068359 0.765625)"/>
       <use xlink:href="#DejaVuSans-36" transform="translate(434.648438 39.046875) scale(0.7)"/>
      </g>
     </g>
    </g>
    <g id="text_14">
     <!-- $M_y$ ($Nm$) -->
     <g transform="translate(15.041488 153.245) rotate(-90) scale(0.11 -0.11)">
      <defs>
       <path id="DejaVuSans-Oblique-4d" d="M 1081 4666 
L 2028 4666 
L 2572 1522 
L 4378 4666 
L 5350 4666 
L 4441 0 
L 3828 0 
L 4622 4091 
L 2791 897 
L 2175 897 
L 1581 4103 
L 788 0 
L 172 0 
L 1081 4666 
z
" transform="scale(0.015625)"/>
       <path id="DejaVuSans-Oblique-79" d="M 1588 -325 
Q 1188 -997 936 -1164 
Q 684 -1331 294 -1331 
L -159 -1331 
L -63 -850 
L 269 -850 
Q 509 -850 678 -719 
Q 847 -588 1056 -206 
L 1234 128 
L 459 3500 
L 1069 3500 
L 1650 819 
L 3256 3500 
L 3859 3500 
L 1588 -325 
z
" transform="scale(0.015625)"/>
       <path id="DejaVuSans-Oblique-4e" d="M 1081 4666 
L 1931 4666 
L 3219 666 
L 4000 4666 
L 4616 4666 
L 3706 0 
L 2853 0 
L 1569 4025 
L 788 0 
L 172 0 
L 1081 4666 
z
" transform="scale(0.015625)"/>
       <path id="DejaVuSans-Oblique-6d" d="M 5747 2113 
L 5338 0 
L 4763 0 
L 5166 2094 
Q 5191 2228 5203 2325 
Q 5216 2422 5216 2491 
Q 5216 2772 5059 2928 
Q 4903 3084 4622 3084 
Q 4203 3084 3875 2770 
Q 3547 2456 3450 1953 
L 3066 0 
L 2491 0 
L 2900 2094 
Q 2925 2209 2937 2307 
Q 2950 2406 2950 2484 
Q 2950 2769 2794 2926 
Q 2638 3084 2363 3084 
Q 1938 3084 1609 2770 
Q 1281 2456 1184 1953 
L 800 0 
L 225 0 
L 909 3500 
L 1484 3500 
L 1375 2956 
Q 1609 3263 1923 3423 
Q 2238 3584 2597 3584 
Q 2978 3584 3223 3384 
Q 3469 3184 3519 2828 
Q 3781 3197 4126 3390 
Q 4472 3584 4856 3584 
Q 5306 3584 5551 3325 
Q 5797 3066 5797 2591 
Q 5797 2488 5784 2364 
Q 5772 2241 5747 2113 
z
" transform="scale(0.015625)"/>
      </defs>
      <use xlink:href="#DejaVuSans-Oblique-4d" transform="translate(0 0.125)"/>
      <use xlink:href="#DejaVuSans-Oblique-79" transform="translate(86.279297 -16.28125) scale(0.7)"/>
      <use xlink:href="#DejaVuSans-20" transform="translate(130.439453 0.125)"/>
      <use xlink:href="#DejaVuSans-28" transform="translate(162.226562 0.125)"/>
      <use xlink:href="#DejaVuSans-Oblique-4e" transform="translate(201.240234 0.125)"/>
      <use xlink:href="#DejaVuSans-Oblique-6d" transform="translate(276.044922 0.125)"/>
      <use xlink:href="#DejaVuSans-29" transform="translate(373.457031 0.125)"/>
     </g>
    </g>
   </g>
   <g id="line2d_14">
    <path d="M 71.231488 129.402215 
L 72.783956 129.510427 
L 73.83433 129.591938 
L 74.688728 129.250273 
L 75.791767 128.703012 
L 76.407023 128.713325 
L 77.015384 129.007852 
L 79.498679 130.432648 
L 81.062404 131.439193 
L 81.454412 131.421229 
L 82.042423 131.109406 
L 82.633051 130.533292 
L 83.838943 129.258952 
L 85.796788 127.304148 
L 86.568379 126.555267 
L 87.230055 126.20783 
L 87.925602 126.154476 
L 89.257153 125.984689 
L 90.320946 125.666694 
L 90.802115 125.678684 
L 91.390448 125.972684 
L 92.03468 126.504057 
L 93.469766 128.102504 
L 94.263196 129.4295 
L 95.196869 131.700523 
L 96.572705 135.131954 
L 97.36612 136.507156 
L 98.821136 138.371218 
L 99.577637 139.083761 
L 100.281186 139.346408 
L 100.876481 139.323137 
L 101.854026 139.25554 
L 102.501607 139.343423 
L 103.191269 139.467232 
L 103.885823 139.320689 
L 104.399086 138.912942 
L 105.272937 137.903623 
L 107.034257 135.303949 
L 107.70901 133.895483 
L 109.866625 129.132343 
L 111.517707 126.076195 
L 112.515546 123.543337 
L 114.012167 119.287685 
L 115.024119 115.725761 
L 117.322407 106.871409 
L 118.389613 104.026979 
L 119.503982 101.605909 
L 120.250149 100.473353 
L 120.82844 100.014635 
L 121.421594 99.788498 
L 123.121497 99.688331 
L 123.814212 99.916027 
L 124.286489 100.424405 
L 125.015801 101.697878 
L 126.033032 104.22481 
L 127.372031 108.246956 
L 128.724881 113.395989 
L 129.807696 117.393297 
L 130.89051 120.570307 
L 132.577813 125.689443 
L 134.458464 132.075339 
L 135.411778 136.034576 
L 138.563498 151.652503 
L 141.765639 167.190617 
L 143.82101 175.504228 
L 144.59376 177.765316 
L 145.186862 178.891297 
L 145.744383 179.559557 
L 146.402015 179.956305 
L 147.104781 180.144786 
L 147.69512 180.044135 
L 148.232026 179.785666 
L 150.259118 178.366026 
L 150.852133 178.516143 
L 153.300772 179.674991 
L 154.994109 179.963281 
L 155.513751 179.795858 
L 156.056138 179.389431 
L 157.193611 177.938266 
L 158.337792 176.562333 
L 159.195927 175.458389 
L 159.768017 174.43136 
L 160.540214 172.422771 
L 161.334719 169.736262 
L 162.229895 165.926213 
L 163.125072 160.825012 
L 164.135646 153.240132 
L 166.018896 136.666431 
L 169.877877 103.4876 
L 172.743205 82.112012 
L 173.64447 77.182268 
L 174.645135 72.887873 
L 175.40759 70.29274 
L 176.02776 68.744377 
L 176.658919 67.643277 
L 178.499539 65.122153 
L 181.21975 59.938326 
L 182.197754 58.777061 
L 182.849756 58.425961 
L 183.175757 58.426197 
L 183.501759 58.614588 
L 184.174566 59.510174 
L 184.868179 60.965053 
L 186.255405 64.074315 
L 188.734133 69.025497 
L 189.883913 71.968418 
L 190.574972 74.377894 
L 191.266031 77.644829 
L 192.055813 82.663275 
L 193.231447 91.713748 
L 198.650738 134.655223 
L 200.613271 149.083002 
L 201.554577 154.201882 
L 202.319479 157.302635 
L 203.196469 159.979008 
L 203.997378 161.724976 
L 205.591789 164.928689 
L 206.20308 166.957375 
L 206.987723 170.570702 
L 209.073289 180.819251 
L 209.767356 182.937132 
L 210.341343 184.078432 
L 210.777516 184.598907 
L 211.246279 184.760463 
L 211.481043 184.672668 
L 211.743295 184.434032 
L 212.277015 183.467948 
L 212.812323 181.88767 
L 213.882937 177.577719 
L 214.685898 174.556146 
L 215.221205 173.177696 
L 215.756513 172.420891 
L 216.29182 172.139878 
L 216.827127 172.263181 
L 218.313847 172.873062 
L 218.729952 172.761988 
L 219.077687 172.398439 
L 219.528523 171.441617 
L 219.926554 170.078362 
L 220.427632 167.456986 
L 221.033538 162.892002 
L 221.861934 154.650197 
L 225.567704 115.074157 
L 227.55925 95.906358 
L 228.40121 85.022336 
L 230.145861 58.306501 
L 231.106962 45.528946 
L 231.829497 38.317421 
L 232.332282 34.83236 
L 232.740803 33.054276 
L 233.150442 32.204479 
L 233.389143 32.164099 
L 233.627844 32.466411 
L 233.985896 33.516501 
L 234.463298 35.772459 
L 235.209219 40.588954 
L 236.447576 48.54149 
L 237.172468 51.849822 
L 238.288363 55.67707 
L 239.087625 58.091451 
L 239.711164 59.317803 
L 240.157054 59.65712 
L 240.610288 59.553308 
L 241.577645 58.920417 
L 242.091945 58.940388 
L 242.63962 59.378262 
L 244.947676 62.250122 
L 245.525034 63.847063 
L 246.391071 67.67299 
L 246.96843 70.174029 
L 247.545788 71.603872 
L 247.834467 71.80726 
L 248.123146 71.712192 
L 248.989184 70.796624 
L 249.277863 70.826624 
L 249.70956 71.608156 
L 250.091505 73.172066 
L 250.553338 76.130035 
L 251.182416 81.746258 
L 251.923954 90.340759 
L 252.635175 101.201831 
L 253.495223 118.323849 
L 255.3773 157.557096 
L 256.129317 167.912533 
L 256.92748 175.901678 
L 257.755507 182.116437 
L 258.3223 184.983985 
L 258.792044 186.350476 
L 259.225782 186.927471 
L 260.282741 187.768905 
L 260.685293 188.679703 
L 261.299892 190.801411 
L 262.109683 193.497153 
L 262.40742 193.905131 
L 262.649438 193.905384 
L 262.904023 193.581459 
L 263.262739 192.65644 
L 264.811857 187.931776 
L 265.142472 187.772061 
L 265.45636 187.938304 
L 265.855986 188.458919 
L 266.604754 189.939446 
L 267.348752 191.719609 
L 267.867645 193.590279 
L 268.453268 196.720758 
L 269.973562 206.171696 
L 270.286607 206.944918 
L 270.44313 207.048194 
L 270.599652 206.964315 
L 270.912698 206.279972 
L 271.413652 204.018186 
L 272.619338 197.733748 
L 272.96382 196.870808 
L 273.308302 196.476176 
L 273.751368 196.412243 
L 274.310952 196.400356 
L 274.648847 196.172352 
L 274.995167 195.652161 
L 275.727086 193.957238 
L 276.443875 192.496908 
L 276.955362 191.925428 
L 277.594576 191.628038 
L 277.96478 191.345793 
L 278.334984 190.727646 
L 278.705189 189.617753 
L 279.149434 187.389072 
L 279.65064 183.481334 
L 280.327235 175.983738 
L 281.426436 160.786777 
L 283.568079 131.266885 
L 284.418068 122.651343 
L 285.910298 108.515132 
L 286.653475 98.231915 
L 287.981477 75.834972 
L 289.786889 46.904131 
L 290.515184 37.883195 
L 290.979133 34.394516 
L 291.332886 33.289192 
L 291.524875 33.257926 
L 291.722132 33.623553 
L 292.027579 34.892268 
L 292.544479 38.467155 
L 294.370782 52.627997 
L 295.105623 56.275982 
L 295.594574 57.821158 
L 295.932668 58.310885 
L 296.103634 58.306845 
L 296.274601 58.096993 
L 296.622138 56.959829 
L 296.975278 54.785122 
L 297.515051 49.61338 
L 299.714434 24.91783 
L 300.144894 22.759237 
L 300.431867 22.021311 
L 300.71884 21.834683 
L 300.868334 21.947772 
L 301.167323 22.593057 
L 301.554436 24.248496 
L 302.029671 27.621529 
L 302.644045 34.14962 
L 303.708669 48.806968 
L 304.469163 57.791761 
L 304.922233 60.989684 
L 305.249303 61.964752 
L 305.358326 62.01665 
L 305.578306 61.707822 
L 305.804895 60.853019 
L 306.147708 58.683561 
L 306.745018 53.183058 
L 307.850215 40.213126 
L 308.687451 31.514934 
L 309.014336 29.751927 
L 309.210467 29.496658 
L 309.343351 29.738746 
L 309.550918 30.856978 
L 309.846238 34.096832 
L 310.253477 41.713603 
L 310.854647 58.567622 
L 312.177841 105.521938 
L 313.231013 139.098228 
L 313.981095 156.627191 
L 314.638948 166.912274 
L 315.087439 171.013747 
L 315.40831 172.507876 
L 315.698185 172.937877 
L 315.891435 172.841809 
L 316.245638 172.199026 
L 316.664064 171.568576 
L 316.833702 171.659373 
L 317.006381 172.092205 
L 317.2676 173.564372 
L 317.62515 177.37925 
L 318.108702 185.495108 
L 320.118999 224.498124 
L 320.597671 229.500696 
L 321.275499 233.998296 
L 321.875245 236.646731 
L 322.161742 237.25068 
L 322.352741 237.215279 
L 322.543739 236.700218 
L 322.830237 234.800566 
L 323.141301 230.972718 
L 323.527824 223.45512 
L 324.13594 206.51246 
L 324.980863 183.498462 
L 325.383838 177.616574 
L 325.648676 176.144933 
L 325.758018 176.084368 
L 325.871841 176.340033 
L 326.102301 177.767829 
L 326.465897 182.030355 
L 327.30478 195.969201 
L 328.641575 217.081334 
L 330.742143 246.446873 
L 331.188012 249.378686 
L 331.410946 250.008505 
L 331.522414 250.082881 
L 331.633881 249.985864 
L 331.856815 249.236359 
L 332.083354 247.638647 
L 332.463809 242.949772 
L 333.122619 230.402888 
L 334.108308 211.626672 
L 334.567099 206.532764 
L 334.922302 204.730087 
L 335.159104 204.481576 
L 335.336706 204.666547 
L 336.200566 206.089334 
L 336.385953 205.948092 
L 336.67974 205.384631 
L 337.430978 203.73525 
L 337.599026 203.853709 
L 337.767075 204.322603 
L 338.019148 205.764923 
L 338.439269 209.936778 
L 340.176655 229.781599 
L 340.653639 232.013973 
L 340.931527 232.602324 
L 341.10275 232.643197 
L 341.278908 232.388205 
L 341.521377 231.509685 
L 341.836368 229.442043 
L 342.241254 225.229123 
L 342.73369 217.543688 
L 344.787565 181.051504 
L 345.38758 176.463097 
L 345.929455 172.054362 
L 346.406388 166.394403 
L 347.044925 155.945673 
L 348.709345 126.312754 
L 349.594721 117.935022 
L 350.055734 109.765724 
L 350.718917 92.537281 
L 352.132232 55.215587 
L 352.633041 48.119781 
L 353.203514 43.373103 
L 353.727207 38.944818 
L 354.098569 34.055683 
L 354.733002 21.78775 
L 355.305106 12.170288 
L 355.572286 10.224512 
L 355.685972 10.062685 
L 355.806884 10.35231 
L 356.001672 11.815236 
L 356.343992 17.047026 
L 357.428972 37.631832 
L 357.599287 38.543552 
L 357.687842 38.619168 
L 357.865979 37.962236 
L 358.138188 35.072566 
L 358.612958 26.393973 
L 359.197921 15.800016 
L 359.498545 13.259903 
L 359.604218 13.076459 
L 359.717419 13.318468 
L 359.954322 15.263573 
L 360.309676 21.290573 
L 361.375738 42.897595 
L 361.61264 44.354779 
L 361.731092 44.317851 
L 361.967994 42.702622 
L 362.335763 36.807557 
L 363.113691 22.834879 
L 363.296147 21.881455 
L 363.387375 21.95325 
L 363.572732 23.290895 
L 363.855119 28.262237 
L 364.42385 44.846423 
L 364.90081 57.22181 
L 365.19095 60.873117 
L 365.385187 61.268529 
L 365.598782 59.844597 
L 365.940261 54.045083 
L 366.539817 37.454731 
L 367.029402 24.866488 
L 367.27926 21.889674 
L 367.405411 21.741073 
L 367.531561 22.578007 
L 367.783862 27.078722 
L 368.247774 42.173985 
L 368.972084 65.890573 
L 369.269777 70.955088 
L 369.429547 71.947178 
L 369.513394 71.94024 
L 369.686418 70.771109 
L 369.950725 66.285331 
L 370.988758 44.561412 
L 371.126621 44.312841 
L 371.273442 45.099353 
L 371.503054 48.41831 
L 371.927608 59.551411 
L 372.563784 76.850123 
L 372.849098 80.792324 
L 373.042806 81.621966 
L 373.139659 81.454794 
L 373.333367 79.970761 
L 373.623928 75.211629 
L 374.502964 58.103185 
L 374.71144 57.439263 
L 374.815879 57.956707 
L 375.025869 60.869773 
L 375.340855 69.904031 
L 375.879106 94.285876 
L 376.637303 126.603282 
L 376.962245 133.806328 
L 377.287187 136.593377 
L 377.400593 136.786416 
L 377.513998 136.713065 
L 377.967714 135.800595 
L 378.081211 135.976315 
L 378.308207 137.522509 
L 378.535203 141.000795 
L 378.93044 151.516457 
L 379.5964 177.342929 
L 380.19405 197.37811 
L 380.474253 201.566459 
L 380.627688 202.112716 
L 380.729978 201.814961 
L 380.938551 199.726924 
L 381.274167 193.111146 
L 382.094807 175.035567 
L 382.349528 172.78429 
L 382.434435 172.552 
L 382.519341 172.600435 
L 382.689155 173.575644 
L 382.943876 177.155594 
L 383.570082 191.575086 
L 383.941568 197.644959 
L 384.164459 198.620517 
L 384.313053 198.104479 
L 384.535945 195.804642 
L 384.90743 189.026106 
L 385.551104 177.092021 
L 385.897434 174.358203 
L 386.049803 174.204232 
L 386.206943 174.727964 
L 386.460322 177.023375 
L 386.79941 183.04794 
L 387.392814 199.968552 
L 387.901446 211.92786 
L 388.155762 213.623781 
L 388.241556 213.428683 
L 388.418418 211.981482 
L 388.860572 205.015268 
L 389.391158 197.830316 
L 389.924071 193.93529 
L 390.120012 193.432304 
L 390.2237 193.560358 
L 390.43729 194.913231 
L 390.774909 200.069949 
L 391.472008 213.64876 
L 391.706365 215.129002 
L 391.823543 214.999692 
L 392.0579 213.259678 
L 392.526614 206.328121 
L 393.698399 187.627849 
L 393.932756 186.212862 
L 394.049934 186.229735 
L 394.284291 187.755536 
L 394.661703 193.742944 
L 395.817362 216.99974 
L 396.125198 219.316729 
L 396.279116 219.453146 
L 396.433034 218.88934 
L 396.74087 216.038918 
L 397.324852 210.099035 
L 397.537844 209.706129 
L 397.750837 210.760635 
L 398.070327 214.855773 
L 398.496312 224.111209 
L 399.135291 239.006652 
L 399.45742 241.940712 
L 399.56706 241.89905 
L 399.78634 240.288033 
L 400.143619 234.097602 
L 400.609574 221.221497 
L 401.413156 198.678943 
L 401.7808 194.360652 
L 402.033742 193.605276 
L 402.212227 193.73932 
L 402.774466 194.639957 
L 402.962073 194.240999 
L 403.14968 193.100351 
L 403.437503 189.168765 
L 403.754946 180.814936 
L 405.124611 136.951727 
L 405.298664 136.154413 
L 405.414699 136.60203 
L 405.589103 138.651104 
L 406.008799 147.71931 
L 406.714017 162.082051 
L 406.974672 164.19547 
L 407.039836 164.143205 
L 407.176411 163.178569 
L 407.452655 158.081422 
L 407.984254 141.767363 
L 408.83061 114.995359 
L 409.153411 110.716988 
L 410.440783 99.378235 
L 410.753014 92.002094 
L 411.572567 64.067379 
L 412.288791 42.367026 
L 412.562017 38.847205 
L 412.697527 38.460019 
L 412.833037 38.864772 
L 413.039741 40.661714 
L 413.612535 48.88878 
L 414.262247 56.870542 
L 414.539948 58.534646 
L 414.617858 58.644648 
L 414.698299 58.576827 
L 414.868293 57.824613 
L 415.138323 55.03651 
L 415.68012 48.610313 
L 415.860719 48.231447 
L 416.041318 48.834312 
L 416.320332 51.517429 
L 416.698241 58.544612 
L 417.291821 74.857018 
L 417.828366 87.820001 
L 418.150293 90.684045 
L 418.257602 90.707675 
L 418.364911 90.195212 
L 418.579529 87.484556 
L 418.90878 79.159721 
L 419.498019 55.319473 
L 420.149997 31.582111 
L 420.40073 27.767659 
L 420.550303 27.133773 
L 420.627486 27.170831 
L 420.859037 28.144044 
L 421.507185 31.325565 
L 421.999872 34.015709 
L 422.246534 34.929183 
L 422.361999 34.896145 
L 422.361999 34.896145 
" clip-path="url(#p49da834413)" style="fill: none; stroke: #e36f47"/>
   </g>
   <g id="patch_3">
    <path d="M 71.231488 258.225354 
L 71.231488 2.834646 
" style="fill: none; stroke: #000000; stroke-linejoin: miter; stroke-linecap: square"/>
   </g>
   <g id="patch_4">
    <path d="M 71.231488 258.225354 
L 422.361999 258.225354 
" style="fill: none; stroke: #000000; stroke-linejoin: miter; stroke-linecap: square"/>
   </g>
   <g id="line2d_15">
    <path d="M 71.231488 129.402215 
L 72.789233 129.511885 
L 73.884529 129.578223 
L 74.749243 129.214338 
L 75.793625 128.701599 
L 76.400185 128.709367 
L 77.027483 129.014397 
L 79.701444 130.582607 
L 80.836617 131.355098 
L 81.331537 131.451499 
L 81.752599 131.292175 
L 82.397566 130.800781 
L 86.85648 126.370755 
L 87.552112 126.147419 
L 89.594555 125.873476 
L 90.34769 125.672451 
L 90.962475 125.731917 
L 91.472319 126.014879 
L 92.448556 126.90295 
L 93.512088 128.154376 
L 94.199635 129.32487 
L 94.958566 131.05037 
L 96.827305 135.641278 
L 97.717342 137.028073 
L 99.00128 138.567337 
L 99.714373 139.145122 
L 100.306828 139.373267 
L 100.999092 139.346372 
L 102.114017 139.263726 
L 103.883183 139.30767 
L 104.43576 138.921784 
L 105.112129 138.148664 
L 106.568875 136.055468 
L 107.544744 134.287795 
L 108.902322 131.135013 
L 110.074777 128.694184 
L 111.779625 125.478287 
L 112.868795 122.619014 
L 114.582993 117.309976 
L 115.869042 112.451728 
L 117.227045 107.195526 
L 118.051262 104.714558 
L 119.056993 102.498352 
L 120.122998 100.763615 
L 120.889941 99.936367 
L 121.582521 99.594203 
L 122.197695 99.582393 
L 123.081611 99.847621 
L 123.844599 100.26044 
L 124.353579 100.705492 
L 124.865689 101.382704 
L 125.554044 102.748838 
L 126.287325 104.747555 
L 127.67537 109.357275 
L 131.64172 123.044447 
L 133.159327 127.484163 
L 134.403735 131.980735 
L 135.864392 138.109023 
L 137.353198 145.486335 
L 139.872746 158.304174 
L 142.507198 170.449837 
L 143.543243 174.295008 
L 144.485318 177.094362 
L 145.374851 179.073811 
L 146.119193 180.092164 
L 146.665384 180.419981 
L 147.22862 180.419858 
L 147.826105 180.148807 
L 150.201361 178.697872 
L 151.12876 178.516401 
L 151.898694 178.635458 
L 152.695026 179.026402 
L 153.981301 179.784631 
L 154.476949 179.911632 
L 155.021059 179.86561 
L 155.582437 179.61861 
L 156.479873 178.905319 
L 157.658125 177.573927 
L 158.74864 175.920209 
L 159.7404 173.9831 
L 160.54203 172.05752 
L 161.353785 169.585109 
L 162.093679 166.610847 
L 162.921993 162.211859 
L 163.816671 156.157565 
L 165.019462 146.325578 
L 167.603679 122.370408 
L 169.417847 106.849846 
L 171.549297 90.626366 
L 172.998935 81.101585 
L 173.967816 75.886261 
L 174.990744 71.615666 
L 175.745633 69.349733 
L 176.501374 67.769934 
L 177.458021 66.417741 
L 179.13944 64.221459 
L 180.475597 61.938208 
L 181.988816 59.414621 
L 182.730401 58.666045 
L 183.202852 58.500747 
L 183.659792 58.616476 
L 184.124147 59.020823 
L 184.59887 59.709534 
L 185.314635 61.152372 
L 189.540392 71.160136 
L 190.300175 73.45138 
L 191.083997 76.63851 
L 191.870743 80.958694 
L 192.91526 88.440771 
L 194.493113 102.017005 
L 196.687778 120.49512 
L 198.857677 136.342275 
L 200.698495 148.731302 
L 201.820261 154.799658 
L 202.668165 158.218133 
L 203.405683 160.431152 
L 204.544177 163.02251 
L 205.635685 165.578489 
L 206.380221 167.921068 
L 207.304324 171.723381 
L 209.454888 181.240854 
L 210.158116 183.238179 
L 210.729724 184.242654 
L 211.227644 184.650775 
L 211.608616 184.655988 
L 211.986856 184.381497 
L 212.344263 183.853181 
L 212.856692 182.635248 
L 213.496707 180.4375 
L 215.441659 173.039989 
L 215.932311 172.048919 
L 216.277138 171.658183 
L 216.658076 171.476876 
L 217.207278 171.534585 
L 218.186592 171.825795 
L 218.613784 171.742995 
L 219.0194 171.41879 
L 219.425691 170.770551 
L 219.942856 169.340207 
L 220.506468 166.800984 
L 221.140402 162.497083 
L 221.868938 155.64629 
L 223.06564 141.667963 
L 224.689753 123.406067 
L 226.63925 104.735947 
L 227.859283 92.393529 
L 228.806181 80.319498 
L 231.702909 39.981463 
L 232.335521 35.061249 
L 232.805555 32.808341 
L 233.132326 31.970684 
L 233.442227 31.733992 
L 233.604857 31.825534 
L 233.932935 32.450354 
L 234.396126 34.266865 
L 234.893742 37.225718 
L 237.167771 52.440841 
L 237.789005 54.643865 
L 238.610618 56.656536 
L 239.517878 58.374149 
L 240.05571 58.968517 
L 240.431313 59.083957 
L 240.866096 58.924899 
L 242.02145 58.207242 
L 242.312566 58.287271 
L 242.733618 58.716107 
L 243.282125 59.75233 
L 245.341067 64.710562 
L 246.182461 67.285593 
L 247.421682 71.243416 
L 247.817846 71.819281 
L 248.080109 71.916248 
L 248.447488 71.727033 
L 249.291352 70.964589 
L 249.551809 71.061444 
L 249.86703 71.628935 
L 250.219602 72.987771 
L 250.606126 75.440759 
L 251.112704 80.105946 
L 251.846571 89.266275 
L 252.692627 102.742114 
L 253.691592 122.502127 
L 255.363883 156.802641 
L 256.148029 167.916929 
L 256.76085 174.015775 
L 257.656734 180.467404 
L 258.449361 184.722201 
L 258.993497 186.778085 
L 259.547862 188.070356 
L 260.25944 189.018409 
L 260.811232 189.853353 
L 261.416462 191.304869 
L 262.454334 194.008175 
L 262.765095 194.306605 
L 263.062958 194.190067 
L 263.347875 193.686426 
L 263.737089 192.447428 
L 265.187197 187.003423 
L 265.481126 186.68758 
L 265.765785 186.773738 
L 266.02904 187.174601 
L 266.436717 188.292014 
L 267.118179 190.955672 
L 268.586496 197.653577 
L 270.385217 206.663537 
L 270.671597 207.083785 
L 270.820425 207.07872 
L 271.116252 206.592212 
L 271.503285 205.047234 
L 272.129509 201.065227 
L 272.981692 195.855975 
L 273.340495 194.633944 
L 273.734318 194.082932 
L 274.030604 194.09603 
L 275.174248 194.738277 
L 275.537664 194.404815 
L 276.023332 193.457908 
L 277.121174 191.014098 
L 277.583849 190.565611 
L 278.049804 190.491996 
L 278.521392 190.408444 
L 278.771189 190.139353 
L 279.089259 189.35336 
L 279.460431 187.555475 
L 279.845395 184.469635 
L 280.39929 177.820158 
L 281.417651 161.501555 
L 282.450721 145.915641 
L 283.840296 128.939312 
L 285.588818 110.031303 
L 286.591791 98.610601 
L 287.366435 87.108922 
L 290.065351 43.261543 
L 290.787127 36.505305 
L 291.192114 34.184019 
L 291.490319 33.271517 
L 291.748943 33.080811 
L 291.893045 33.226719 
L 292.177702 34.046804 
L 292.492542 35.737628 
L 292.96218 39.542885 
L 294.913701 57.543692 
L 295.241215 58.897364 
L 295.574045 59.554698 
L 295.730315 59.623351 
L 296.024898 59.363242 
L 296.29027 58.723267 
L 296.731822 56.876889 
L 297.194296 53.93743 
L 297.868095 47.810877 
L 298.790787 36.594032 
L 299.656259 26.421964 
L 300.218316 22.242686 
L 300.573915 21.041586 
L 300.828948 20.910844 
L 301.07404 21.348582 
L 301.341547 22.423759 
L 301.743756 25.097386 
L 302.328129 30.782409 
L 304.748744 57.406743 
L 305.218686 59.828435 
L 305.444219 60.3856 
L 305.69096 60.49141 
L 305.952298 59.995441 
L 306.310949 58.268157 
L 306.687305 55.187077 
L 307.193296 49.341534 
L 308.662144 31.09745 
L 308.998117 29.447681 
L 309.198475 29.369057 
L 309.362664 29.872714 
L 309.610322 31.658911 
L 309.937082 35.919791 
L 310.421801 45.872332 
L 311.126402 65.893824 
L 312.549307 114.310828 
L 313.578647 146.988864 
L 314.263726 161.922294 
L 314.726758 167.986518 
L 315.085685 170.622129 
L 315.420593 171.76105 
L 315.633371 171.99273 
L 315.84701 171.971159 
L 316.527457 171.599327 
L 316.784456 171.910094 
L 317.043001 172.769962 
L 317.380509 174.961375 
L 317.802949 179.655373 
L 318.390252 189.472869 
L 320.474024 228.317261 
L 320.985569 233.379065 
L 321.477314 236.147174 
L 321.761006 236.927667 
L 321.958091 237.119862 
L 322.161316 236.988754 
L 322.428314 236.235499 
L 322.702691 234.649941 
L 323.063615 231.073929 
L 323.447176 225.16722 
L 324.02535 212.288463 
L 325.300618 181.917752 
L 325.620585 178.249731 
L 325.841625 177.132063 
L 325.954667 177.000364 
L 326.062704 177.140803 
L 326.256997 178.008212 
L 326.553619 180.669004 
L 327.061617 187.996897 
L 328.098531 207.653947 
L 329.329191 229.67468 
L 330.182648 240.861162 
L 330.864535 247.224862 
L 331.321633 249.743108 
L 331.63039 250.362838 
L 331.773664 250.289702 
L 331.964905 249.783825 
L 332.197073 248.473807 
L 332.529087 245.153826 
L 332.960043 238.332555 
L 333.84082 219.391205 
L 334.464517 208.0291 
L 334.892355 203.751203 
L 335.185646 202.691024 
L 335.336678 202.6505 
L 335.501957 202.903853 
L 335.923522 204.280245 
L 336.386953 205.600498 
L 336.703249 205.928537 
L 336.997057 205.918227 
L 337.387939 205.891742 
L 337.635105 206.162719 
L 337.902629 206.946331 
L 338.261198 209.026448 
L 338.755421 213.675144 
L 340.25629 228.989334 
L 340.618128 230.701979 
L 340.825793 231.093328 
L 341.018592 231.069621 
L 341.189286 230.744486 
L 341.46326 229.640119 
L 341.840578 226.962641 
L 342.301225 221.934514 
L 342.952135 211.770015 
L 344.678153 182.156595 
L 345.183658 177.917788 
L 346.293186 170.524758 
L 346.789521 164.045753 
L 347.448538 151.920303 
L 348.901519 123.89609 
L 350.380489 103.698982 
L 351.02804 86.985394 
L 352.203436 56.128811 
L 352.661379 48.626894 
L 353.06576 44.902019 
L 354.139432 38.087333 
L 354.618667 31.080576 
L 355.667457 14.44929 
L 355.909203 13.302917 
L 356.0309 13.355104 
L 356.166799 13.916966 
L 356.443496 16.573655 
L 356.88591 23.76058 
L 357.555985 34.48512 
L 357.821719 36.498763 
L 357.997414 36.779878 
L 358.121595 36.444964 
L 358.310104 35.112526 
L 358.609955 31.233095 
L 359.670299 15.239822 
L 359.869117 14.635542 
L 359.991597 14.883254 
L 360.186497 16.251455 
L 360.520615 21.059462 
L 361.807609 43.478056 
L 362.028762 44.248648 
L 362.150605 44.126353 
L 362.336049 43.237712 
L 362.641414 40.197809 
L 363.535344 29.677165 
L 363.604601 29.539876 
L 363.67375 29.585078 
L 363.784247 30.053257 
L 364.007417 32.489476 
L 364.364319 39.692065 
L 365.106139 55.346209 
L 365.432487 58.070131 
L 365.560071 58.231209 
L 365.694433 57.863592 
L 365.901768 56.257852 
L 366.200556 51.889753 
L 366.683071 40.892199 
L 367.389083 25.450681 
L 367.626346 23.982468 
L 367.675662 24.041928 
L 367.797176 24.748179 
L 367.978701 27.239153 
L 368.318033 35.641257 
L 369.329347 63.438284 
L 369.61955 66.429021 
L 369.74368 66.779611 
L 369.799262 66.759289 
L 369.923601 66.330825 
L 370.147963 64.328109 
L 370.524188 58.440172 
L 371.097324 49.759827 
L 371.317738 48.707399 
L 371.420656 48.868409 
L 371.570423 49.877735 
L 371.826313 53.596352 
L 372.300729 64.968469 
L 372.888538 78.155245 
L 373.146672 80.687014 
L 373.27505 80.978439 
L 373.409475 80.621978 
L 373.614339 78.938629 
L 373.99716 73.277526 
L 374.683145 63.289495 
L 374.892582 62.668163 
L 375.014699 63.186842 
L 375.208984 65.481171 
L 375.525858 73.057867 
L 376.01036 92.007428 
L 376.962247 131.173888 
L 377.365282 139.283704 
L 377.717488 142.188888 
L 378.403311 145.149999 
L 378.670148 148.450175 
L 379.05847 156.678632 
L 379.582454 173.29709 
L 380.475806 201.805567 
L 380.751901 205.186206 
L 380.875226 205.490632 
L 380.978748 205.190654 
L 381.149735 203.661694 
L 381.469549 197.946193 
L 382.619729 173.863204 
L 382.847314 173.002345 
L 382.974716 173.349096 
L 383.171762 174.981729 
L 383.50072 180.001822 
L 384.317372 193.132593 
L 384.568367 194.196981 
L 384.673807 194.036391 
L 384.822423 193.198635 
L 385.097236 189.94876 
L 386.246819 173.225214 
L 386.369802 173.002636 
L 386.413019 173.033258 
L 386.558575 173.559391 
L 386.807096 175.978927 
L 387.132795 182.00445 
L 387.719307 198.553045 
L 388.243654 211.137563 
L 388.494372 213.412331 
L 388.579914 213.518331 
L 388.620939 213.454981 
L 388.744713 212.856354 
L 389.000245 210.156453 
L 389.889438 199.436718 
L 390.377469 196.439676 
L 390.589581 195.973896 
L 390.696639 196.059041 
L 390.841091 196.590893 
L 391.100617 198.836599 
L 391.556664 205.604597 
L 392.001127 211.010807 
L 392.225938 211.677861 
L 392.322256 211.465518 
L 392.533722 210.084218 
L 392.923263 205.40633 
L 394.256374 188.06713 
L 394.465482 187.427423 
L 394.573031 187.650732 
L 394.730373 188.704146 
L 394.972433 191.954729 
L 395.454354 202.529477 
L 396.176531 217.567198 
L 396.565357 221.318476 
L 396.78629 221.935153 
L 396.901038 221.861193 
L 397.084271 221.267087 
L 397.515809 218.605784 
L 397.845951 217.141858 
L 397.946789 217.051356 
L 398.008035 217.099993 
L 398.126474 217.427557 
L 398.375728 219.116304 
L 398.761016 223.925535 
L 399.598853 235.376675 
L 399.780155 236.153618 
L 399.842139 236.178524 
L 399.972147 235.811943 
L 400.15086 234.384856 
L 400.465254 229.486706 
L 400.914713 218.284984 
L 402.105489 185.756295 
L 402.450483 182.171709 
L 402.756419 180.899589 
L 403.356501 179.244262 
L 403.599859 177.419504 
L 403.911715 172.811011 
L 404.305608 162.754878 
L 405.270002 135.955203 
L 405.546013 133.025909 
L 405.664186 132.774351 
L 405.774058 133.097561 
L 405.97276 134.965434 
L 406.351062 141.66501 
L 407.019109 153.249699 
L 407.298034 155.08252 
L 407.351317 155.095681 
L 407.470766 154.664109 
L 407.668798 152.476834 
L 407.994224 145.280365 
L 408.845168 118.374496 
L 409.365457 105.242472 
L 409.783837 99.679374 
L 410.673726 90.026713 
L 411.118045 82.050216 
L 411.655547 67.297264 
L 412.592033 41.372838 
L 412.965453 36.178451 
L 413.156415 35.293709 
L 413.212944 35.29368 
L 413.331438 35.696555 
L 413.521766 37.459536 
L 413.904544 44.212188 
L 414.659431 57.858253 
L 414.983309 60.437921 
L 415.227053 61.056073 
L 415.317963 61.024941 
L 415.481613 60.629551 
L 415.764389 59.055038 
L 416.323413 55.728633 
L 416.41489 55.669045 
L 416.515826 55.860025 
L 416.690494 56.844762 
L 416.993329 60.297978 
L 417.524204 69.581096 
L 418.339304 83.641205 
L 418.525461 84.502887 
L 418.607771 84.372133 
L 418.744982 83.416513 
L 418.981896 79.663995 
L 419.378228 68.569276 
L 420.899636 19.683108 
L 421.124121 18.508778 
L 421.204295 18.695309 
L 421.349918 19.701346 
L 421.810504 25.356826 
L 422.216111 28.851201 
L 422.361999 29.524456 
L 422.361999 29.524456 
" clip-path="url(#p49da834413)" style="fill: none; stroke: #3ea44e"/>
   </g>
   <g id="legend_1">
    <g id="patch_5">
     <path d="M 332.945749 50.862146 
L 418.361999 50.862146 
L 418.361999 6.834646 
L 332.945749 6.834646 
z
" style="fill: #ffffff; stroke: #000000; stroke-linejoin: miter"/>
    </g>
    <g id="line2d_16">
     <path d="M 339.345749 16.513396 
L 347.345749 16.513396 
L 355.345749 16.513396 
" style="fill: none; stroke: #009afa; stroke-linejoin: miter"/>
    </g>
    <g id="text_15">
     <!-- GXBeam -->
     <g transform="translate(361.745749 19.313396) scale(0.08 -0.08)">
      <defs>
       <path id="DejaVuSans-47" d="M 3809 666 
L 3809 1919 
L 2778 1919 
L 2778 2438 
L 4434 2438 
L 4434 434 
Q 4069 175 3628 42 
Q 3188 -91 2688 -91 
Q 1594 -91 976 548 
Q 359 1188 359 2328 
Q 359 3472 976 4111 
Q 1594 4750 2688 4750 
Q 3144 4750 3555 4637 
Q 3966 4525 4313 4306 
L 4313 3634 
Q 3963 3931 3569 4081 
Q 3175 4231 2741 4231 
Q 1884 4231 1454 3753 
Q 1025 3275 1025 2328 
Q 1025 1384 1454 906 
Q 1884 428 2741 428 
Q 3075 428 3337 486 
Q 3600 544 3809 666 
z
" transform="scale(0.015625)"/>
       <path id="DejaVuSans-58" d="M 403 4666 
L 1081 4666 
L 2241 2931 
L 3406 4666 
L 4084 4666 
L 2584 2425 
L 4184 0 
L 3506 0 
L 2194 1984 
L 872 0 
L 191 0 
L 1856 2491 
L 403 4666 
z
" transform="scale(0.015625)"/>
       <path id="DejaVuSans-42" d="M 1259 2228 
L 1259 519 
L 2272 519 
Q 2781 519 3026 730 
Q 3272 941 3272 1375 
Q 3272 1813 3026 2020 
Q 2781 2228 2272 2228 
L 1259 2228 
z
M 1259 4147 
L 1259 2741 
L 2194 2741 
Q 2656 2741 2882 2914 
Q 3109 3088 3109 3444 
Q 3109 3797 2882 3972 
Q 2656 4147 2194 4147 
L 1259 4147 
z
M 628 4666 
L 2241 4666 
Q 2963 4666 3353 4366 
Q 3744 4066 3744 3513 
Q 3744 3084 3544 2831 
Q 3344 2578 2956 2516 
Q 3422 2416 3680 2098 
Q 3938 1781 3938 1306 
Q 3938 681 3513 340 
Q 3088 0 2303 0 
L 628 0 
L 628 4666 
z
" transform="scale(0.015625)"/>
       <path id="DejaVuSans-61" d="M 2194 1759 
Q 1497 1759 1228 1600 
Q 959 1441 959 1056 
Q 959 750 1161 570 
Q 1363 391 1709 391 
Q 2188 391 2477 730 
Q 2766 1069 2766 1631 
L 2766 1759 
L 2194 1759 
z
M 3341 1997 
L 3341 0 
L 2766 0 
L 2766 531 
Q 2569 213 2275 61 
Q 1981 -91 1556 -91 
Q 1019 -91 701 211 
Q 384 513 384 1019 
Q 384 1609 779 1909 
Q 1175 2209 1959 2209 
L 2766 2209 
L 2766 2266 
Q 2766 2663 2505 2880 
Q 2244 3097 1772 3097 
Q 1472 3097 1187 3025 
Q 903 2953 641 2809 
L 641 3341 
Q 956 3463 1253 3523 
Q 1550 3584 1831 3584 
Q 2591 3584 2966 3190 
Q 3341 2797 3341 1997 
z
" transform="scale(0.015625)"/>
      </defs>
      <use xlink:href="#DejaVuSans-47"/>
      <use xlink:href="#DejaVuSans-58" x="77.490234"/>
      <use xlink:href="#DejaVuSans-42" x="145.996094"/>
      <use xlink:href="#DejaVuSans-65" x="214.599609"/>
      <use xlink:href="#DejaVuSans-61" x="276.123047"/>
      <use xlink:href="#DejaVuSans-6d" x="337.402344"/>
     </g>
    </g>
    <g id="line2d_17">
     <path d="M 339.345749 28.255896 
L 347.345749 28.255896 
L 355.345749 28.255896 
" style="fill: none; stroke: #e36f47; stroke-linejoin: miter"/>
    </g>
    <g id="text_16">
     <!-- ODEProblem -->
     <g transform="translate(361.745749 31.055896) scale(0.08 -0.08)">
      <defs>
       <path id="DejaVuSans-4f" d="M 2522 4238 
Q 1834 4238 1429 3725 
Q 1025 3213 1025 2328 
Q 1025 1447 1429 934 
Q 1834 422 2522 422 
Q 3209 422 3611 934 
Q 4013 1447 4013 2328 
Q 4013 3213 3611 3725 
Q 3209 4238 2522 4238 
z
M 2522 4750 
Q 3503 4750 4090 4092 
Q 4678 3434 4678 2328 
Q 4678 1225 4090 567 
Q 3503 -91 2522 -91 
Q 1538 -91 948 565 
Q 359 1222 359 2328 
Q 359 3434 948 4092 
Q 1538 4750 2522 4750 
z
" transform="scale(0.015625)"/>
       <path id="DejaVuSans-44" d="M 1259 4147 
L 1259 519 
L 2022 519 
Q 2988 519 3436 956 
Q 3884 1394 3884 2338 
Q 3884 3275 3436 3711 
Q 2988 4147 2022 4147 
L 1259 4147 
z
M 628 4666 
L 1925 4666 
Q 3281 4666 3915 4102 
Q 4550 3538 4550 2338 
Q 4550 1131 3912 565 
Q 3275 0 1925 0 
L 628 0 
L 628 4666 
z
" transform="scale(0.015625)"/>
       <path id="DejaVuSans-45" d="M 628 4666 
L 3578 4666 
L 3578 4134 
L 1259 4134 
L 1259 2753 
L 3481 2753 
L 3481 2222 
L 1259 2222 
L 1259 531 
L 3634 531 
L 3634 0 
L 628 0 
L 628 4666 
z
" transform="scale(0.015625)"/>
       <path id="DejaVuSans-50" d="M 1259 4147 
L 1259 2394 
L 2053 2394 
Q 2494 2394 2734 2622 
Q 2975 2850 2975 3272 
Q 2975 3691 2734 3919 
Q 2494 4147 2053 4147 
L 1259 4147 
z
M 628 4666 
L 2053 4666 
Q 2838 4666 3239 4311 
Q 3641 3956 3641 3272 
Q 3641 2581 3239 2228 
Q 2838 1875 2053 1875 
L 1259 1875 
L 1259 0 
L 628 0 
L 628 4666 
z
" transform="scale(0.015625)"/>
       <path id="DejaVuSans-72" d="M 2631 2963 
Q 2534 3019 2420 3045 
Q 2306 3072 2169 3072 
Q 1681 3072 1420 2755 
Q 1159 2438 1159 1844 
L 1159 0 
L 581 0 
L 581 3500 
L 1159 3500 
L 1159 2956 
Q 1341 3275 1631 3429 
Q 1922 3584 2338 3584 
Q 2397 3584 2469 3576 
Q 2541 3569 2628 3553 
L 2631 2963 
z
" transform="scale(0.015625)"/>
       <path id="DejaVuSans-6f" d="M 1959 3097 
Q 1497 3097 1228 2736 
Q 959 2375 959 1747 
Q 959 1119 1226 758 
Q 1494 397 1959 397 
Q 2419 397 2687 759 
Q 2956 1122 2956 1747 
Q 2956 2369 2687 2733 
Q 2419 3097 1959 3097 
z
M 1959 3584 
Q 2709 3584 3137 3096 
Q 3566 2609 3566 1747 
Q 3566 888 3137 398 
Q 2709 -91 1959 -91 
Q 1206 -91 779 398 
Q 353 888 353 1747 
Q 353 2609 779 3096 
Q 1206 3584 1959 3584 
z
" transform="scale(0.015625)"/>
       <path id="DejaVuSans-62" d="M 3116 1747 
Q 3116 2381 2855 2742 
Q 2594 3103 2138 3103 
Q 1681 3103 1420 2742 
Q 1159 2381 1159 1747 
Q 1159 1113 1420 752 
Q 1681 391 2138 391 
Q 2594 391 2855 752 
Q 3116 1113 3116 1747 
z
M 1159 2969 
Q 1341 3281 1617 3432 
Q 1894 3584 2278 3584 
Q 2916 3584 3314 3078 
Q 3713 2572 3713 1747 
Q 3713 922 3314 415 
Q 2916 -91 2278 -91 
Q 1894 -91 1617 61 
Q 1341 213 1159 525 
L 1159 0 
L 581 0 
L 581 4863 
L 1159 4863 
L 1159 2969 
z
" transform="scale(0.015625)"/>
       <path id="DejaVuSans-6c" d="M 603 4863 
L 1178 4863 
L 1178 0 
L 603 0 
L 603 4863 
z
" transform="scale(0.015625)"/>
      </defs>
      <use xlink:href="#DejaVuSans-4f"/>
      <use xlink:href="#DejaVuSans-44" x="78.710938"/>
      <use xlink:href="#DejaVuSans-45" x="155.712891"/>
      <use xlink:href="#DejaVuSans-50" x="218.896484"/>
      <use xlink:href="#DejaVuSans-72" x="277.449219"/>
      <use xlink:href="#DejaVuSans-6f" x="316.3125"/>
      <use xlink:href="#DejaVuSans-62" x="377.494141"/>
      <use xlink:href="#DejaVuSans-6c" x="440.970703"/>
      <use xlink:href="#DejaVuSans-65" x="468.753906"/>
      <use xlink:href="#DejaVuSans-6d" x="530.277344"/>
     </g>
    </g>
    <g id="line2d_18">
     <path d="M 339.345749 39.998396 
L 347.345749 39.998396 
L 355.345749 39.998396 
" style="fill: none; stroke: #3ea44e; stroke-linejoin: miter"/>
    </g>
    <g id="text_17">
     <!-- DAEProblem -->
     <g transform="translate(361.745749 42.798396) scale(0.08 -0.08)">
      <defs>
       <path id="DejaVuSans-41" d="M 2188 4044 
L 1331 1722 
L 3047 1722 
L 2188 4044 
z
M 1831 4666 
L 2547 4666 
L 4325 0 
L 3669 0 
L 3244 1197 
L 1141 1197 
L 716 0 
L 50 0 
L 1831 4666 
z
" transform="scale(0.015625)"/>
      </defs>
      <use xlink:href="#DejaVuSans-44"/>
      <use xlink:href="#DejaVuSans-41" x="75.251953"/>
      <use xlink:href="#DejaVuSans-45" x="143.660156"/>
      <use xlink:href="#DejaVuSans-50" x="206.84375"/>
      <use xlink:href="#DejaVuSans-72" x="265.396484"/>
      <use xlink:href="#DejaVuSans-6f" x="304.259766"/>
      <use xlink:href="#DejaVuSans-62" x="365.441406"/>
      <use xlink:href="#DejaVuSans-6c" x="428.917969"/>
      <use xlink:href="#DejaVuSans-65" x="456.701172"/>
      <use xlink:href="#DejaVuSans-6d" x="518.224609"/>
     </g>
    </g>
   </g>
  </g>
 </g>
 <defs>
  <clipPath id="p49da834413">
   <rect x="71.231488" y="2.834646" width="351.130512" height="255.390709"/>
  </clipPath>
 </defs>
</svg>
