<?xml version="1.0" encoding="utf-8" standalone="no"?>
<!DOCTYPE svg PUBLIC "-//W3C//DTD SVG 1.1//EN"
  "http://www.w3.org/Graphics/SVG/1.1/DTD/svg11.dtd">
<svg xmlns:xlink="http://www.w3.org/1999/xlink" width="432pt" height="288pt" viewBox="0 0 432 288" xmlns="http://www.w3.org/2000/svg" version="1.1">
 <metadata>
  <rdf:RDF xmlns:dc="http://purl.org/dc/elements/1.1/" xmlns:cc="http://creativecommons.org/ns#" xmlns:rdf="http://www.w3.org/1999/02/22-rdf-syntax-ns#">
   <cc:Work>
    <dc:type rdf:resource="http://purl.org/dc/dcmitype/StillImage"/>
    <dc:date>2023-04-05T00:58:20.984774</dc:date>
    <dc:format>image/svg+xml</dc:format>
    <dc:creator>
     <cc:Agent>
      <dc:title>Matplotlib v3.7.1, https://matplotlib.org/</dc:title>
     </cc:Agent>
    </dc:creator>
   </cc:Work>
  </rdf:RDF>
 </metadata>
 <defs>
  <style type="text/css">*{stroke-linejoin: round; stroke-linecap: butt}</style>
 </defs>
 <g id="figure_1">
  <g id="patch_1">
   <path d="M 0 288 
L 432 288 
L 432 0 
L 0 0 
z
" style="fill: #ffffff"/>
  </g>
  <g id="axes_1">
   <g id="patch_2">
    <path d="M 44.790359 258.225354 
L 422.361999 258.225354 
L 422.361999 2.834646 
L 44.790359 2.834646 
z
" style="fill: #ffffff"/>
   </g>
   <g id="line2d_1">
    <path d="M 44.790359 182.017909 
L 51.586649 181.918074 
L 54.22965 181.618362 
L 55.928722 181.212813 
L 57.439009 180.656294 
L 58.949296 179.882227 
L 60.837154 178.652325 
L 62.725012 177.174427 
L 64.61287 175.358246 
L 66.311943 173.423285 
L 72.919446 165.457962 
L 74.429733 164.231915 
L 75.562448 163.57059 
L 76.695163 163.189508 
L 77.827878 163.081347 
L 78.960592 163.173096 
L 80.470879 163.530311 
L 82.169951 164.184507 
L 83.680238 164.999058 
L 85.190525 166.082071 
L 86.889597 167.591085 
L 89.721384 170.515707 
L 91.986814 172.719551 
L 93.119529 173.56058 
L 94.252244 174.115849 
L 95.196173 174.346747 
L 96.140102 174.363518 
L 97.272817 174.145713 
L 99.915819 173.519748 
L 101.048533 173.537581 
L 101.992463 173.799923 
L 102.936392 174.350399 
L 103.880321 175.197994 
L 104.82425 176.353984 
L 105.768179 177.837155 
L 106.900894 180.054285 
L 108.222395 183.171269 
L 109.921467 187.810351 
L 112.753254 196.391198 
L 114.829898 202.477436 
L 115.962613 205.227554 
L 116.906542 206.960322 
L 117.661686 207.877481 
L 118.228043 208.235445 
L 118.794401 208.275535 
L 119.171972 208.115344 
L 119.73833 207.576506 
L 120.304687 206.680719 
L 121.05983 204.926255 
L 121.814974 202.53084 
L 122.758903 198.628532 
L 123.891618 192.736795 
L 125.213118 184.572361 
L 130.310336 151.552232 
L 131.631836 145.098024 
L 132.764551 140.552996 
L 133.897266 136.854521 
L 135.029981 133.8874 
L 135.97391 131.964823 
L 136.729053 130.831047 
L 137.484197 130.105364 
L 138.050554 129.843304 
L 138.616912 129.84629 
L 139.183269 130.121123 
L 139.749627 130.678537 
L 140.315984 131.53937 
L 141.071127 133.141711 
L 142.015056 135.814786 
L 143.147771 139.769713 
L 147.489845 155.86598 
L 148.433774 158.066413 
L 149.188918 159.228053 
L 149.755275 159.732788 
L 150.321632 159.940585 
L 150.88799 159.887185 
L 151.454347 159.620883 
L 152.209491 158.998986 
L 153.530991 157.535406 
L 155.041278 155.940274 
L 155.985207 155.233319 
L 156.929136 154.78892 
L 157.873065 154.605009 
L 158.628209 154.65324 
L 159.572138 154.962518 
L 160.516067 155.528753 
L 161.459996 156.380765 
L 162.403925 157.614712 
L 163.159068 158.954942 
L 163.914212 160.669841 
L 164.858141 163.420792 
L 165.80207 166.938966 
L 166.745999 171.294122 
L 168.0675 178.627481 
L 172.409573 204.23088 
L 173.353503 208.212694 
L 174.297432 211.29178 
L 175.052575 213.092571 
L 175.618932 214.035196 
L 176.18529 214.606839 
L 176.751647 214.806232 
L 177.129219 214.717994 
L 177.506791 214.446231 
L 178.073148 213.669577 
L 178.639505 212.406118 
L 179.205863 210.608197 
L 179.961006 207.29212 
L 180.71615 202.869586 
L 181.660079 195.756369 
L 182.604008 186.881522 
L 183.736723 174.015028 
L 185.247009 154.058428 
L 187.890011 118.678727 
L 189.211511 104.104015 
L 190.344226 94.004068 
L 191.476941 85.92558 
L 192.609656 79.490519 
L 193.742371 74.313837 
L 195.063872 69.319178 
L 196.196587 65.715994 
L 196.95173 63.90399 
L 197.518088 63.076135 
L 197.895659 62.864462 
L 198.273231 62.96661 
L 198.650802 63.412782 
L 199.028374 64.224253 
L 199.594732 66.153516 
L 200.161089 68.945021 
L 200.916232 73.942949 
L 201.860161 81.975266 
L 203.370448 97.270443 
L 205.447092 117.917104 
L 209.60038 157.637327 
L 211.110667 171.35059 
L 212.054596 177.875678 
L 212.809739 181.443028 
L 213.376096 183.081933 
L 213.753668 183.688439 
L 214.13124 183.919461 
L 214.508811 183.794292 
L 214.886383 183.328884 
L 215.45274 182.031782 
L 216.019098 180.077939 
L 216.774241 176.607422 
L 217.906956 170.181759 
L 219.606028 160.461347 
L 220.361172 157.20815 
L 220.927529 155.477079 
L 221.493887 154.412538 
L 221.871458 154.049656 
L 222.24903 153.939786 
L 222.626602 154.03843 
L 223.192959 154.466526 
L 225.080817 156.306288 
L 225.647175 156.47255 
L 226.213532 156.327628 
L 226.77989 155.850126 
L 227.535033 154.847719 
L 228.856534 153.028712 
L 229.422891 152.588604 
L 229.989249 152.476552 
L 230.36682 152.60512 
L 230.933178 153.101631 
L 231.499535 153.963591 
L 232.065893 155.209655 
L 232.821036 157.53054 
L 233.576179 160.649316 
L 234.520108 165.607138 
L 235.652823 172.845511 
L 237.918253 187.823554 
L 238.673396 191.081627 
L 239.239754 192.626915 
L 239.806111 193.498632 
L 240.372469 193.864649 
L 240.938826 193.865874 
L 241.505184 193.609489 
L 242.260327 192.996243 
L 243.581828 191.621188 
L 244.148185 190.778256 
L 244.714543 189.431964 
L 245.2809 187.262435 
L 245.847257 184.043983 
L 246.602401 178.043912 
L 247.54633 168.109659 
L 248.679045 153.333597 
L 251.510832 114.102408 
L 252.454761 104.654985 
L 253.39869 97.123624 
L 254.342619 91.175138 
L 255.475334 85.661245 
L 256.419263 81.075161 
L 257.174407 76.177198 
L 257.92955 69.770531 
L 260.761337 43.646949 
L 261.516481 39.270763 
L 262.082838 37.064217 
L 262.46041 36.141018 
L 262.837981 35.685692 
L 263.026767 35.646863 
L 263.215553 35.738369 
L 263.593125 36.320943 
L 263.970696 37.459907 
L 264.537054 40.195305 
L 265.292197 45.376453 
L 267.746413 63.867916 
L 269.256699 72.785418 
L 270.766986 81.574653 
L 271.522129 87.445622 
L 272.277272 95.250442 
L 273.032416 105.243497 
L 273.976345 120.66172 
L 275.297845 146.377869 
L 277.752061 195.031683 
L 278.69599 209.005028 
L 279.451133 217.190235 
L 280.017491 221.387962 
L 280.395063 223.169793 
L 280.772634 224.09401 
L 280.96142 224.226066 
L 281.150206 224.137314 
L 281.338992 223.830599 
L 281.716563 222.583684 
L 282.282921 219.263529 
L 283.038064 212.709221 
L 284.737136 194.437368 
L 285.869851 183.5141 
L 286.624995 177.879628 
L 287.191352 174.817413 
L 287.75771 172.906378 
L 288.135281 172.288461 
L 288.512853 172.142965 
L 288.890424 172.394576 
L 289.456782 173.202235 
L 290.023139 174.019125 
L 290.400711 174.246786 
L 290.589497 174.199896 
L 290.967068 173.689387 
L 291.34464 172.50373 
L 291.722212 170.550424 
L 292.288569 166.086283 
L 293.043712 157.41485 
L 294.176427 140.643001 
L 295.309142 124.416457 
L 296.064286 116.723251 
L 296.630643 113.391867 
L 297.008215 112.451946 
L 297.197001 112.363851 
L 297.385786 112.521338 
L 297.763358 113.536338 
L 298.14093 115.372805 
L 298.896073 120.737473 
L 300.217574 130.541029 
L 300.783931 132.93062 
L 301.161503 133.60884 
L 301.350289 133.673957 
L 301.539074 133.568497 
L 301.916646 132.913584 
L 302.483003 131.128781 
L 303.426933 127.746277 
L 303.804504 126.978759 
L 303.99329 126.849495 
L 304.182076 126.924212 
L 304.370862 127.21929 
L 304.748433 128.509741 
L 305.126005 130.739975 
L 305.692362 135.631031 
L 306.636292 146.54291 
L 308.335364 169.49322 
L 310.412008 197.610494 
L 311.355937 207.059222 
L 312.11108 212.235704 
L 312.677438 214.752239 
L 313.055009 215.783472 
L 313.432581 216.267279 
L 313.621367 216.296285 
L 313.810153 216.178731 
L 314.187724 215.494392 
L 314.565296 214.240732 
L 315.131653 211.462919 
L 317.019512 200.590297 
L 317.585869 199.045258 
L 317.963441 198.627825 
L 318.341012 198.584677 
L 318.90737 198.885381 
L 319.473727 199.17556 
L 319.851299 199.150984 
L 320.228871 198.886567 
L 320.606442 198.353884 
L 321.1728 197.032038 
L 321.739157 194.949616 
L 322.305515 191.704729 
L 322.871872 186.847922 
L 323.627015 177.720132 
L 325.703659 149.848069 
L 326.458803 143.286891 
L 327.213946 138.392232 
L 328.913018 129.196636 
L 329.668162 122.744499 
L 331.178448 109.164111 
L 331.744806 106.151392 
L 332.122377 105.076801 
L 332.499949 104.685772 
L 332.877521 104.821263 
L 333.255092 105.321517 
L 333.82145 106.575162 
L 335.709308 111.717731 
L 336.086879 112.12208 
L 336.464451 112.265823 
L 336.842023 112.164628 
L 337.40838 111.606647 
L 338.163523 110.749656 
L 338.541095 110.572642 
L 338.918667 110.678177 
L 339.296238 111.126914 
L 339.67381 112.089807 
L 340.051382 113.854067 
L 340.428953 116.666553 
L 340.995311 123.026943 
L 341.750454 134.756532 
L 344.015884 172.407233 
L 347.414029 220.339428 
L 348.169172 226.440724 
L 348.735529 229.408042 
L 349.301887 231.317357 
L 349.679458 232.022613 
L 349.868244 232.163248 
L 350.05703 232.139593 
L 350.245816 231.939058 
L 350.623388 231.006097 
L 351.189745 228.563778 
L 352.32246 223.142518 
L 352.700032 222.509956 
L 352.888817 222.656134 
L 353.077603 223.161831 
L 353.455175 225.285458 
L 354.021532 230.731807 
L 355.154247 242.879342 
L 355.720605 246.808293 
L 356.098176 248.39366 
L 356.475748 249.052013 
L 356.664534 248.982129 
L 356.85332 248.627152 
L 357.230891 247.066473 
L 357.797249 242.900613 
L 358.552392 234.960789 
L 359.307535 224.497957 
L 360.817822 202.224815 
L 361.384179 197.137624 
L 361.761751 195.574711 
L 361.950537 195.360009 
L 362.139323 195.48756 
L 362.516894 196.558148 
L 363.649609 201.31174 
L 364.027181 201.911086 
L 364.215967 201.906538 
L 364.593538 201.358932 
L 366.481396 196.641888 
L 367.047754 194.353394 
L 367.614111 190.785573 
L 368.180469 185.456304 
L 369.50197 169.226548 
L 371.201042 150.519283 
L 372.900114 133.978634 
L 373.277686 131.577476 
L 373.655258 130.388395 
L 373.844043 130.256558 
L 374.032829 130.39597 
L 374.410401 131.28812 
L 375.165544 134.186936 
L 375.920687 137.933844 
L 376.675831 142.973936 
L 377.61976 151.314694 
L 378.941261 163.543771 
L 379.88519 170.167383 
L 380.640333 174.391633 
L 381.395476 177.449487 
L 381.961834 179.04154 
L 382.528191 180.081179 
L 383.47212 181.512247 
L 383.849692 182.451657 
L 384.227264 184.144552 
L 384.604835 186.948822 
L 385.548764 196.979055 
L 388.00298 221.977237 
L 389.324481 233.295798 
L 389.702052 234.93364 
L 390.079624 235.84899 
L 390.457196 236.137558 
L 390.645981 236.01704 
L 391.023553 235.231671 
L 391.967482 232.336961 
L 392.345054 231.85661 
L 392.911411 231.617069 
L 394.610484 230.987719 
L 395.176841 230.314778 
L 395.931984 228.946182 
L 397.253485 225.750249 
L 397.631057 224.474672 
L 398.008628 222.441041 
L 398.3862 219.277061 
L 398.952558 212.376291 
L 399.707701 199.65215 
L 401.595559 161.052243 
L 404.427346 103.725622 
L 405.18249 94.47485 
L 407.825491 66.462301 
L 408.76942 56.306019 
L 409.902135 45.271613 
L 411.978779 23.906661 
L 412.545137 19.952134 
L 413.111494 17.3038 
L 414.810566 10.87602 
L 415.188138 10.361905 
L 415.376924 10.360092 
L 415.754496 10.711848 
L 416.132067 11.499833 
L 416.509639 12.890083 
L 417.075996 16.402386 
L 418.397497 27.568264 
L 419.530212 37.953346 
L 421.41807 58.378193 
L 421.984428 61.526504 
L 422.361999 62.213104 
L 422.361999 62.213104 
" clip-path="url(#pb5e21d4acd)" style="fill: none; stroke: #009afa"/>
   </g>
   <g id="matplotlib.axis_1">
    <g id="xtick_1">
     <g id="line2d_2">
      <defs>
       <path id="m0f1a627cb5" d="M 0 0 
L 0 -2.5 
" style="stroke: #000000; stroke-width: 0.5"/>
      </defs>
      <g>
       <use xlink:href="#m0f1a627cb5" x="44.790359" y="258.225354" style="stroke: #000000; stroke-width: 0.5"/>
      </g>
     </g>
     <g id="text_1">
      <!-- $0.0$ -->
      <g transform="translate(38.390359 267.804104) scale(0.08 -0.08)">
       <defs>
        <path id="DejaVuSans-30" d="M 2034 4250 
Q 1547 4250 1301 3770 
Q 1056 3291 1056 2328 
Q 1056 1369 1301 889 
Q 1547 409 2034 409 
Q 2525 409 2770 889 
Q 3016 1369 3016 2328 
Q 3016 3291 2770 3770 
Q 2525 4250 2034 4250 
z
M 2034 4750 
Q 2819 4750 3233 4129 
Q 3647 3509 3647 2328 
Q 3647 1150 3233 529 
Q 2819 -91 2034 -91 
Q 1250 -91 836 529 
Q 422 1150 422 2328 
Q 422 3509 836 4129 
Q 1250 4750 2034 4750 
z
" transform="scale(0.015625)"/>
        <path id="DejaVuSans-2e" d="M 684 794 
L 1344 794 
L 1344 0 
L 684 0 
L 684 794 
z
" transform="scale(0.015625)"/>
       </defs>
       <use xlink:href="#DejaVuSans-30" transform="translate(0 0.78125)"/>
       <use xlink:href="#DejaVuSans-2e" transform="translate(63.623047 0.78125)"/>
       <use xlink:href="#DejaVuSans-30" transform="translate(95.410156 0.78125)"/>
      </g>
     </g>
    </g>
    <g id="xtick_2">
     <g id="line2d_3">
      <g>
       <use xlink:href="#m0f1a627cb5" x="139.183269" y="258.225354" style="stroke: #000000; stroke-width: 0.5"/>
      </g>
     </g>
     <g id="text_2">
      <!-- $0.5$ -->
      <g transform="translate(132.783269 267.804104) scale(0.08 -0.08)">
       <defs>
        <path id="DejaVuSans-35" d="M 691 4666 
L 3169 4666 
L 3169 4134 
L 1269 4134 
L 1269 2991 
Q 1406 3038 1543 3061 
Q 1681 3084 1819 3084 
Q 2600 3084 3056 2656 
Q 3513 2228 3513 1497 
Q 3513 744 3044 326 
Q 2575 -91 1722 -91 
Q 1428 -91 1123 -41 
Q 819 9 494 109 
L 494 744 
Q 775 591 1075 516 
Q 1375 441 1709 441 
Q 2250 441 2565 725 
Q 2881 1009 2881 1497 
Q 2881 1984 2565 2268 
Q 2250 2553 1709 2553 
Q 1456 2553 1204 2497 
Q 953 2441 691 2322 
L 691 4666 
z
" transform="scale(0.015625)"/>
       </defs>
       <use xlink:href="#DejaVuSans-30" transform="translate(0 0.78125)"/>
       <use xlink:href="#DejaVuSans-2e" transform="translate(63.623047 0.78125)"/>
       <use xlink:href="#DejaVuSans-35" transform="translate(95.410156 0.78125)"/>
      </g>
     </g>
    </g>
    <g id="xtick_3">
     <g id="line2d_4">
      <g>
       <use xlink:href="#m0f1a627cb5" x="233.576179" y="258.225354" style="stroke: #000000; stroke-width: 0.5"/>
      </g>
     </g>
     <g id="text_3">
      <!-- $1.0$ -->
      <g transform="translate(227.176179 267.804104) scale(0.08 -0.08)">
       <defs>
        <path id="DejaVuSans-31" d="M 794 531 
L 1825 531 
L 1825 4091 
L 703 3866 
L 703 4441 
L 1819 4666 
L 2450 4666 
L 2450 531 
L 3481 531 
L 3481 0 
L 794 0 
L 794 531 
z
" transform="scale(0.015625)"/>
       </defs>
       <use xlink:href="#DejaVuSans-31" transform="translate(0 0.78125)"/>
       <use xlink:href="#DejaVuSans-2e" transform="translate(63.623047 0.78125)"/>
       <use xlink:href="#DejaVuSans-30" transform="translate(95.410156 0.78125)"/>
      </g>
     </g>
    </g>
    <g id="xtick_4">
     <g id="line2d_5">
      <g>
       <use xlink:href="#m0f1a627cb5" x="327.969089" y="258.225354" style="stroke: #000000; stroke-width: 0.5"/>
      </g>
     </g>
     <g id="text_4">
      <!-- $1.5$ -->
      <g transform="translate(321.569089 267.804104) scale(0.08 -0.08)">
       <use xlink:href="#DejaVuSans-31" transform="translate(0 0.09375)"/>
       <use xlink:href="#DejaVuSans-2e" transform="translate(63.623047 0.09375)"/>
       <use xlink:href="#DejaVuSans-35" transform="translate(95.410156 0.09375)"/>
      </g>
     </g>
    </g>
    <g id="xtick_5">
     <g id="line2d_6">
      <g>
       <use xlink:href="#m0f1a627cb5" x="422.361999" y="258.225354" style="stroke: #000000; stroke-width: 0.5"/>
      </g>
     </g>
     <g id="text_5">
      <!-- $2.0$ -->
      <g transform="translate(415.961999 267.804104) scale(0.08 -0.08)">
       <defs>
        <path id="DejaVuSans-32" d="M 1228 531 
L 3431 531 
L 3431 0 
L 469 0 
L 469 531 
Q 828 903 1448 1529 
Q 2069 2156 2228 2338 
Q 2531 2678 2651 2914 
Q 2772 3150 2772 3378 
Q 2772 3750 2511 3984 
Q 2250 4219 1831 4219 
Q 1534 4219 1204 4116 
Q 875 4013 500 3803 
L 500 4441 
Q 881 4594 1212 4672 
Q 1544 4750 1819 4750 
Q 2544 4750 2975 4387 
Q 3406 4025 3406 3419 
Q 3406 3131 3298 2873 
Q 3191 2616 2906 2266 
Q 2828 2175 2409 1742 
Q 1991 1309 1228 531 
z
" transform="scale(0.015625)"/>
       </defs>
       <use xlink:href="#DejaVuSans-32" transform="translate(0 0.78125)"/>
       <use xlink:href="#DejaVuSans-2e" transform="translate(63.623047 0.78125)"/>
       <use xlink:href="#DejaVuSans-30" transform="translate(95.410156 0.78125)"/>
      </g>
     </g>
    </g>
    <g id="text_6">
     <!-- Time (s) -->
     <g transform="translate(211.214382 281.826136) scale(0.11 -0.11)">
      <defs>
       <path id="DejaVuSans-54" d="M -19 4666 
L 3928 4666 
L 3928 4134 
L 2272 4134 
L 2272 0 
L 1638 0 
L 1638 4134 
L -19 4134 
L -19 4666 
z
" transform="scale(0.015625)"/>
       <path id="DejaVuSans-69" d="M 603 3500 
L 1178 3500 
L 1178 0 
L 603 0 
L 603 3500 
z
M 603 4863 
L 1178 4863 
L 1178 4134 
L 603 4134 
L 603 4863 
z
" transform="scale(0.015625)"/>
       <path id="DejaVuSans-6d" d="M 3328 2828 
Q 3544 3216 3844 3400 
Q 4144 3584 4550 3584 
Q 5097 3584 5394 3201 
Q 5691 2819 5691 2113 
L 5691 0 
L 5113 0 
L 5113 2094 
Q 5113 2597 4934 2840 
Q 4756 3084 4391 3084 
Q 3944 3084 3684 2787 
Q 3425 2491 3425 1978 
L 3425 0 
L 2847 0 
L 2847 2094 
Q 2847 2600 2669 2842 
Q 2491 3084 2119 3084 
Q 1678 3084 1418 2786 
Q 1159 2488 1159 1978 
L 1159 0 
L 581 0 
L 581 3500 
L 1159 3500 
L 1159 2956 
Q 1356 3278 1631 3431 
Q 1906 3584 2284 3584 
Q 2666 3584 2933 3390 
Q 3200 3197 3328 2828 
z
" transform="scale(0.015625)"/>
       <path id="DejaVuSans-65" d="M 3597 1894 
L 3597 1613 
L 953 1613 
Q 991 1019 1311 708 
Q 1631 397 2203 397 
Q 2534 397 2845 478 
Q 3156 559 3463 722 
L 3463 178 
Q 3153 47 2828 -22 
Q 2503 -91 2169 -91 
Q 1331 -91 842 396 
Q 353 884 353 1716 
Q 353 2575 817 3079 
Q 1281 3584 2069 3584 
Q 2775 3584 3186 3129 
Q 3597 2675 3597 1894 
z
M 3022 2063 
Q 3016 2534 2758 2815 
Q 2500 3097 2075 3097 
Q 1594 3097 1305 2825 
Q 1016 2553 972 2059 
L 3022 2063 
z
" transform="scale(0.015625)"/>
       <path id="DejaVuSans-20" transform="scale(0.015625)"/>
       <path id="DejaVuSans-28" d="M 1984 4856 
Q 1566 4138 1362 3434 
Q 1159 2731 1159 2009 
Q 1159 1288 1364 580 
Q 1569 -128 1984 -844 
L 1484 -844 
Q 1016 -109 783 600 
Q 550 1309 550 2009 
Q 550 2706 781 3412 
Q 1013 4119 1484 4856 
L 1984 4856 
z
" transform="scale(0.015625)"/>
       <path id="DejaVuSans-73" d="M 2834 3397 
L 2834 2853 
Q 2591 2978 2328 3040 
Q 2066 3103 1784 3103 
Q 1356 3103 1142 2972 
Q 928 2841 928 2578 
Q 928 2378 1081 2264 
Q 1234 2150 1697 2047 
L 1894 2003 
Q 2506 1872 2764 1633 
Q 3022 1394 3022 966 
Q 3022 478 2636 193 
Q 2250 -91 1575 -91 
Q 1294 -91 989 -36 
Q 684 19 347 128 
L 347 722 
Q 666 556 975 473 
Q 1284 391 1588 391 
Q 1994 391 2212 530 
Q 2431 669 2431 922 
Q 2431 1156 2273 1281 
Q 2116 1406 1581 1522 
L 1381 1569 
Q 847 1681 609 1914 
Q 372 2147 372 2553 
Q 372 3047 722 3315 
Q 1072 3584 1716 3584 
Q 2034 3584 2315 3537 
Q 2597 3491 2834 3397 
z
" transform="scale(0.015625)"/>
       <path id="DejaVuSans-29" d="M 513 4856 
L 1013 4856 
Q 1481 4119 1714 3412 
Q 1947 2706 1947 2009 
Q 1947 1309 1714 600 
Q 1481 -109 1013 -844 
L 513 -844 
Q 928 -128 1133 580 
Q 1338 1288 1338 2009 
Q 1338 2731 1133 3434 
Q 928 4138 513 4856 
z
" transform="scale(0.015625)"/>
      </defs>
      <use xlink:href="#DejaVuSans-54"/>
      <use xlink:href="#DejaVuSans-69" x="57.958984"/>
      <use xlink:href="#DejaVuSans-6d" x="85.742188"/>
      <use xlink:href="#DejaVuSans-65" x="183.154297"/>
      <use xlink:href="#DejaVuSans-20" x="244.677734"/>
      <use xlink:href="#DejaVuSans-28" x="276.464844"/>
      <use xlink:href="#DejaVuSans-73" x="315.478516"/>
      <use xlink:href="#DejaVuSans-29" x="367.578125"/>
     </g>
    </g>
   </g>
   <g id="matplotlib.axis_2">
    <g id="ytick_1">
     <g id="line2d_7">
      <defs>
       <path id="mdf6339fe51" d="M 0 0 
L 2.5 0 
" style="stroke: #000000; stroke-width: 0.5"/>
      </defs>
      <g>
       <use xlink:href="#mdf6339fe51" x="44.790359" y="242.668306" style="stroke: #000000; stroke-width: 0.5"/>
      </g>
     </g>
     <g id="text_7">
      <!-- $-0.2$ -->
      <g transform="translate(22.250359 245.707681) scale(0.08 -0.08)">
       <defs>
        <path id="DejaVuSans-2212" d="M 678 2272 
L 4684 2272 
L 4684 1741 
L 678 1741 
L 678 2272 
z
" transform="scale(0.015625)"/>
       </defs>
       <use xlink:href="#DejaVuSans-2212" transform="translate(0 0.78125)"/>
       <use xlink:href="#DejaVuSans-30" transform="translate(83.789062 0.78125)"/>
       <use xlink:href="#DejaVuSans-2e" transform="translate(147.412109 0.78125)"/>
       <use xlink:href="#DejaVuSans-32" transform="translate(173.699219 0.78125)"/>
      </g>
     </g>
    </g>
    <g id="ytick_2">
     <g id="line2d_8">
      <g>
       <use xlink:href="#mdf6339fe51" x="44.790359" y="182.017909" style="stroke: #000000; stroke-width: 0.5"/>
      </g>
     </g>
     <g id="text_8">
      <!-- $0.0$ -->
      <g transform="translate(28.490359 185.057284) scale(0.08 -0.08)">
       <use xlink:href="#DejaVuSans-30" transform="translate(0 0.78125)"/>
       <use xlink:href="#DejaVuSans-2e" transform="translate(63.623047 0.78125)"/>
       <use xlink:href="#DejaVuSans-30" transform="translate(95.410156 0.78125)"/>
      </g>
     </g>
    </g>
    <g id="ytick_3">
     <g id="line2d_9">
      <g>
       <use xlink:href="#mdf6339fe51" x="44.790359" y="121.367512" style="stroke: #000000; stroke-width: 0.5"/>
      </g>
     </g>
     <g id="text_9">
      <!-- $0.2$ -->
      <g transform="translate(28.970359 124.406887) scale(0.08 -0.08)">
       <use xlink:href="#DejaVuSans-30" transform="translate(0 0.78125)"/>
       <use xlink:href="#DejaVuSans-2e" transform="translate(63.623047 0.78125)"/>
       <use xlink:href="#DejaVuSans-32" transform="translate(89.910156 0.78125)"/>
      </g>
     </g>
    </g>
    <g id="ytick_4">
     <g id="line2d_10">
      <g>
       <use xlink:href="#mdf6339fe51" x="44.790359" y="60.717115" style="stroke: #000000; stroke-width: 0.5"/>
      </g>
     </g>
     <g id="text_10">
      <!-- $0.4$ -->
      <g transform="translate(28.490359 63.75649) scale(0.08 -0.08)">
       <defs>
        <path id="DejaVuSans-34" d="M 2419 4116 
L 825 1625 
L 2419 1625 
L 2419 4116 
z
M 2253 4666 
L 3047 4666 
L 3047 1625 
L 3713 1625 
L 3713 1100 
L 3047 1100 
L 3047 0 
L 2419 0 
L 2419 1100 
L 313 1100 
L 313 1709 
L 2253 4666 
z
" transform="scale(0.015625)"/>
       </defs>
       <use xlink:href="#DejaVuSans-30" transform="translate(0 0.78125)"/>
       <use xlink:href="#DejaVuSans-2e" transform="translate(63.623047 0.78125)"/>
       <use xlink:href="#DejaVuSans-34" transform="translate(95.410156 0.78125)"/>
      </g>
     </g>
    </g>
    <g id="text_11">
     <!-- $u_y$ ($m$) -->
     <g transform="translate(14.840359 147.855) rotate(-90) scale(0.11 -0.11)">
      <defs>
       <path id="DejaVuSans-Oblique-75" d="M 428 1388 
L 838 3500 
L 1416 3500 
L 1006 1409 
Q 975 1256 961 1147 
Q 947 1038 947 966 
Q 947 700 1109 554 
Q 1272 409 1569 409 
Q 2031 409 2368 721 
Q 2706 1034 2809 1563 
L 3194 3500 
L 3769 3500 
L 3091 0 
L 2516 0 
L 2631 550 
Q 2388 244 2052 76 
Q 1716 -91 1338 -91 
Q 878 -91 622 161 
Q 366 413 366 863 
Q 366 956 381 1097 
Q 397 1238 428 1388 
z
" transform="scale(0.015625)"/>
       <path id="DejaVuSans-Oblique-79" d="M 1588 -325 
Q 1188 -997 936 -1164 
Q 684 -1331 294 -1331 
L -159 -1331 
L -63 -850 
L 269 -850 
Q 509 -850 678 -719 
Q 847 -588 1056 -206 
L 1234 128 
L 459 3500 
L 1069 3500 
L 1650 819 
L 3256 3500 
L 3859 3500 
L 1588 -325 
z
" transform="scale(0.015625)"/>
       <path id="DejaVuSans-Oblique-6d" d="M 5747 2113 
L 5338 0 
L 4763 0 
L 5166 2094 
Q 5191 2228 5203 2325 
Q 5216 2422 5216 2491 
Q 5216 2772 5059 2928 
Q 4903 3084 4622 3084 
Q 4203 3084 3875 2770 
Q 3547 2456 3450 1953 
L 3066 0 
L 2491 0 
L 2900 2094 
Q 2925 2209 2937 2307 
Q 2950 2406 2950 2484 
Q 2950 2769 2794 2926 
Q 2638 3084 2363 3084 
Q 1938 3084 1609 2770 
Q 1281 2456 1184 1953 
L 800 0 
L 225 0 
L 909 3500 
L 1484 3500 
L 1375 2956 
Q 1609 3263 1923 3423 
Q 2238 3584 2597 3584 
Q 2978 3584 3223 3384 
Q 3469 3184 3519 2828 
Q 3781 3197 4126 3390 
Q 4472 3584 4856 3584 
Q 5306 3584 5551 3325 
Q 5797 3066 5797 2591 
Q 5797 2488 5784 2364 
Q 5772 2241 5747 2113 
z
" transform="scale(0.015625)"/>
      </defs>
      <use xlink:href="#DejaVuSans-Oblique-75" transform="translate(0 0.125)"/>
      <use xlink:href="#DejaVuSans-Oblique-79" transform="translate(63.378906 -16.28125) scale(0.7)"/>
      <use xlink:href="#DejaVuSans-20" transform="translate(107.539062 0.125)"/>
      <use xlink:href="#DejaVuSans-28" transform="translate(139.326172 0.125)"/>
      <use xlink:href="#DejaVuSans-Oblique-6d" transform="translate(178.339844 0.125)"/>
      <use xlink:href="#DejaVuSans-29" transform="translate(275.751953 0.125)"/>
     </g>
    </g>
   </g>
   <g id="line2d_11">
    <path d="M 44.790359 182.017909 
L 51.702232 181.909371 
L 54.240366 181.617225 
L 55.993862 181.193615 
L 57.619813 180.575388 
L 59.172666 179.750196 
L 61.13582 178.440601 
L 62.816783 177.091485 
L 64.665514 175.303153 
L 66.370582 173.349638 
L 72.472421 165.886367 
L 73.90142 164.617604 
L 75.154617 163.771673 
L 76.142113 163.337578 
L 77.2767 163.104108 
L 78.415207 163.104231 
L 79.776128 163.334303 
L 81.395227 163.852187 
L 82.952032 164.567982 
L 84.421294 165.494689 
L 86.000983 166.762315 
L 87.931979 168.63948 
L 92.063871 172.787675 
L 93.318643 173.678131 
L 94.352056 174.151634 
L 95.299912 174.357893 
L 96.298482 174.334751 
L 97.500266 174.072718 
L 99.64061 173.549612 
L 100.832852 173.501035 
L 101.840553 173.73486 
L 102.624785 174.134683 
L 103.441662 174.762618 
L 104.289437 175.651299 
L 105.158445 176.834509 
L 106.322081 178.863285 
L 107.486434 181.378596 
L 108.941876 185.06312 
L 110.952434 190.878975 
L 115.255822 203.60876 
L 116.331844 205.997996 
L 117.192662 207.389326 
L 117.838275 208.044123 
L 118.268684 208.263804 
L 118.699093 208.29952 
L 119.129502 208.140817 
L 119.559911 207.784229 
L 120.205524 206.868073 
L 120.956401 205.21045 
L 121.64693 203.12128 
L 122.453772 199.986213 
L 123.467816 195.053742 
L 124.687799 187.921468 
L 126.462358 176.062477 
L 129.047933 158.800607 
L 130.406666 151.010114 
L 131.666974 144.916277 
L 132.764362 140.540555 
L 134.034355 136.432035 
L 135.139931 133.596103 
L 136.002548 131.886461 
L 136.919893 130.596835 
L 137.53326 130.064341 
L 138.148431 129.814225 
L 138.763601 129.872787 
L 139.378772 130.264024 
L 139.993942 131.017378 
L 140.824287 132.587811 
L 141.67862 134.816623 
L 142.833724 138.629053 
L 144.545898 145.304762 
L 146.541844 152.947213 
L 147.596313 156.171872 
L 148.404076 158.022625 
L 149.074115 159.087561 
L 149.649079 159.652669 
L 150.155495 159.900123 
L 150.73728 159.917435 
L 151.384469 159.647443 
L 152.074511 159.103409 
L 153.147247 157.949059 
L 154.915331 156.048678 
L 155.991349 155.211613 
L 156.811219 154.796431 
L 157.702768 154.584082 
L 158.632085 154.630716 
L 159.606616 154.949654 
L 160.419759 155.418735 
L 161.283531 156.160099 
L 162.172291 157.256678 
L 163.061052 158.760233 
L 164.112702 161.173174 
L 165.164352 164.46358 
L 166.238373 168.878623 
L 167.35714 174.590533 
L 168.848828 183.474726 
L 171.634607 200.374656 
L 172.802278 206.03299 
L 173.757689 209.698387 
L 174.606944 212.160539 
L 175.381173 213.725382 
L 175.977263 214.478078 
L 176.472182 214.798189 
L 176.950296 214.837832 
L 177.357246 214.646283 
L 177.807159 214.167952 
L 178.286082 213.323334 
L 178.854663 211.830267 
L 179.507444 209.421599 
L 180.245043 205.756149 
L 181.064599 200.459259 
L 181.969823 193.052404 
L 182.996222 182.650078 
L 184.234375 167.61493 
L 186.574801 135.528444 
L 188.178058 115.069034 
L 189.355552 102.576188 
L 190.507215 92.641724 
L 191.578882 85.194439 
L 192.669016 79.145041 
L 193.758373 74.256266 
L 195.348663 68.267031 
L 196.457017 64.896024 
L 197.032635 63.658648 
L 197.608252 62.943988 
L 197.896061 62.824418 
L 198.18387 62.882039 
L 198.471678 63.13025 
L 198.759487 63.579979 
L 199.335104 65.11977 
L 199.910722 67.5575 
L 200.486339 70.899933 
L 201.349765 77.472216 
L 202.501 88.399917 
L 206.059084 123.654949 
L 209.180117 153.575112 
L 210.938071 170.033994 
L 211.828232 176.514636 
L 212.572701 180.450157 
L 213.156729 182.501915 
L 213.645483 183.510224 
L 214.029875 183.86183 
L 214.342495 183.867647 
L 214.659841 183.625564 
L 215.067432 182.961269 
L 215.583981 181.579141 
L 216.211197 179.183419 
L 217.028287 175.127448 
L 218.608615 165.784446 
L 219.800638 159.300832 
L 220.570666 156.23808 
L 221.116081 154.804088 
L 221.586627 154.074645 
L 221.914944 153.824833 
L 222.262964 153.761273 
L 222.63867 153.88391 
L 223.227169 154.346415 
L 225.064167 156.088093 
L 225.508917 156.260254 
L 225.957035 156.243891 
L 226.436502 155.996218 
L 226.923866 155.518128 
L 227.964068 154.032156 
L 228.811554 152.909477 
L 229.415088 152.455527 
L 230.035784 152.381844 
L 230.656619 152.709332 
L 231.277454 153.438279 
L 231.898289 154.622702 
L 232.519124 156.330389 
L 233.139959 158.604709 
L 234.071211 163.0412 
L 235.312881 170.560533 
L 238.10412 188.891364 
L 238.717425 191.315077 
L 239.239883 192.655618 
L 239.746514 193.414696 
L 240.201297 193.746555 
L 240.647444 193.829681 
L 241.17865 193.687688 
L 241.918726 193.21228 
L 243.480867 191.863269 
L 244.09444 191.048718 
L 244.54817 190.072842 
L 245.03448 188.466412 
L 245.569636 185.851319 
L 246.182383 181.662141 
L 246.94116 174.776946 
L 247.826971 164.651327 
L 249.075654 147.42227 
L 251.123142 118.793628 
L 252.128703 107.809013 
L 253.181798 98.684942 
L 254.144167 92.234693 
L 255.070237 87.517537 
L 256.469349 80.748178 
L 257.170296 76.042476 
L 257.99335 68.926281 
L 260.602444 44.418832 
L 261.343289 39.702137 
L 261.898922 37.254622 
L 262.414954 35.898643 
L 262.706173 35.54925 
L 262.98127 35.504612 
L 263.252794 35.741848 
L 263.617441 36.508946 
L 264.085081 38.224183 
L 264.685059 41.508285 
L 265.60252 48.113706 
L 267.728189 63.759953 
L 269.021697 71.391652 
L 270.757491 81.34288 
L 271.495618 87.25797 
L 272.24859 95.1847 
L 273.116501 106.890295 
L 274.117265 123.597971 
L 275.451033 149.984024 
L 277.596828 192.782676 
L 278.612647 208.330312 
L 279.39087 217.071299 
L 279.9757 221.518413 
L 280.425109 223.546851 
L 280.749443 224.217562 
L 280.997946 224.279821 
L 281.17674 224.085199 
L 281.46602 223.358248 
L 281.884577 221.465899 
L 282.433253 217.68427 
L 283.195041 210.677278 
L 286.228338 180.420901 
L 286.963701 175.693813 
L 287.533301 173.330021 
L 287.918444 172.416678 
L 288.308996 172.017652 
L 288.699548 172.064859 
L 289.244392 172.632379 
L 290.17014 173.746528 
L 290.478723 173.80348 
L 290.787306 173.54994 
L 291.095889 172.903982 
L 291.404471 171.7893 
L 291.880267 169.048837 
L 292.457282 163.98602 
L 293.194777 154.974023 
L 294.51826 134.943259 
L 295.503235 121.600638 
L 296.078683 116.098336 
L 296.547616 113.288761 
L 296.905732 112.234002 
L 297.149893 112.056223 
L 297.39644 112.300802 
L 297.653356 112.978798 
L 298.03873 114.720634 
L 298.653546 118.880273 
L 300.268034 130.881659 
L 300.760134 132.815133 
L 301.055922 133.365036 
L 301.292715 133.478769 
L 301.544463 133.302287 
L 301.902795 132.589858 
L 302.457825 130.712727 
L 303.496898 126.991387 
L 303.784719 126.51497 
L 303.9766 126.440372 
L 304.174315 126.597366 
L 304.483487 127.360136 
L 304.90228 129.427978 
L 305.469488 133.961086 
L 306.291028 142.965077 
L 307.873897 163.452304 
L 310.716255 201.200287 
L 311.565786 208.822557 
L 312.248237 213.150101 
L 312.762954 215.352734 
L 313.1061 216.266204 
L 313.476185 216.704445 
L 313.663397 216.697707 
L 314.000631 216.292754 
L 314.308305 215.492809 
L 314.821758 213.327512 
L 315.588284 208.777094 
L 316.678982 202.33955 
L 317.239652 200.241143 
L 317.693126 199.325997 
L 318.026215 199.06544 
L 318.365887 199.085659 
L 318.915876 199.432099 
L 319.456184 199.716787 
L 319.82476 199.689914 
L 320.146701 199.469925 
L 320.52554 198.947271 
L 321.039977 197.763308 
L 321.58416 195.820407 
L 322.138638 192.790115 
L 322.693115 188.264031 
L 323.372103 180.464119 
L 325.831297 148.895016 
L 326.672622 141.912131 
L 327.462554 137.261497 
L 328.656136 130.891053 
L 329.296972 125.921551 
L 330.316825 115.90488 
L 331.125781 108.720526 
L 331.667891 105.736278 
L 332.029297 104.753803 
L 332.300351 104.476437 
L 332.541249 104.486156 
L 332.849441 104.767975 
L 333.279686 105.550378 
L 333.932336 107.299817 
L 335.173121 110.712794 
L 335.772559 111.761182 
L 336.28197 112.284088 
L 336.660757 112.362854 
L 337.047208 112.1444 
L 337.834042 111.262261 
L 338.743575 110.333639 
L 339.017383 110.272449 
L 339.246242 110.424148 
L 339.504556 110.91642 
L 339.779835 111.925746 
L 340.173867 114.410651 
L 340.686714 119.547198 
L 341.373335 129.225953 
L 346.248417 206.017701 
L 347.147359 217.096566 
L 347.904396 223.973349 
L 348.657977 229.053942 
L 349.161799 231.347069 
L 349.498532 232.151665 
L 349.778573 232.330034 
L 349.989887 232.172982 
L 350.255531 231.636498 
L 350.665077 230.144278 
L 351.219124 227.114239 
L 352.081479 222.21728 
L 352.35619 221.440037 
L 352.53933 221.300748 
L 352.72247 221.504652 
L 353.009244 222.539149 
L 353.402362 225.250281 
L 354.120058 232.446664 
L 355.127475 242.139622 
L 355.76433 246.234127 
L 356.146443 247.5765 
L 356.401185 247.936538 
L 356.655927 247.864481 
L 356.910669 247.377766 
L 357.292783 245.894274 
L 357.680434 243.443023 
L 358.221164 238.330455 
L 358.946418 228.487956 
L 360.885807 199.773482 
L 361.32435 196.348982 
L 361.691543 195.145204 
L 361.820484 195.082015 
L 361.949425 195.184221 
L 362.207307 195.787918 
L 363.538323 200.237915 
L 363.809622 200.535154 
L 364.051008 200.534034 
L 364.294629 200.3018 
L 365.029027 198.998035 
L 365.626017 198.215117 
L 366.197606 197.444684 
L 366.560347 196.591521 
L 366.899303 195.257779 
L 367.345364 192.405666 
L 367.93815 186.80442 
L 369.32893 170.493885 
L 371.123217 150.692291 
L 372.728222 133.864197 
L 373.194103 131.36211 
L 373.543514 130.515306 
L 373.776455 130.365623 
L 374.014871 130.508139 
L 374.380707 131.199727 
L 374.868787 132.724415 
L 375.712272 136.183958 
L 376.252412 139.292946 
L 376.826457 144.049004 
L 379.062573 164.426629 
L 380.15818 171.785685 
L 381.128292 176.856987 
L 381.607643 178.356283 
L 382.007103 178.931832 
L 382.566346 179.225925 
L 382.999264 179.537113 
L 383.315391 180.000112 
L 383.665668 180.992242 
L 384.03029 182.845175 
L 384.577224 187.213268 
L 385.579935 197.674559 
L 386.90836 211.556063 
L 387.803594 220.97071 
L 388.641894 229.367362 
L 389.271906 233.557445 
L 389.649913 235.021957 
L 389.901917 235.392408 
L 390.02792 235.37968 
L 390.279924 235.002381 
L 391.66595 231.643643 
L 392.043957 231.369228 
L 392.431793 231.325598 
L 392.871427 231.561086 
L 393.496769 231.897478 
L 393.818475 231.798962 
L 394.149492 231.430448 
L 394.811526 230.108043 
L 395.783031 228.126677 
L 396.241094 227.68594 
L 396.699158 227.347159 
L 397.042706 226.736639 
L 397.386254 225.583834 
L 397.850536 222.9903 
L 398.30734 218.761121 
L 398.899977 210.658847 
L 400.230977 188.152566 
L 401.602071 161.922512 
L 402.924303 131.203229 
L 403.826587 111.78885 
L 404.515206 101.86154 
L 405.255396 94.505675 
L 406.2554 84.239624 
L 408.624237 58.577195 
L 409.224389 52.683632 
L 410.544047 36.21732 
L 411.355732 27.126447 
L 411.969764 22.506292 
L 412.636572 19.222707 
L 413.652312 14.379046 
L 414.303996 11.260828 
L 414.691458 10.329369 
L 414.982757 10.153644 
L 415.176955 10.276078 
L 415.468254 10.738842 
L 415.865377 11.869633 
L 416.373635 14.303225 
L 418.648743 27.063639 
L 419.155489 32.018991 
L 420.111194 44.526202 
L 421.09271 56.224326 
L 421.530885 59.306279 
L 421.884191 60.395626 
L 422.149427 60.535804 
L 422.361999 60.372696 
L 422.361999 60.372696 
" clip-path="url(#pb5e21d4acd)" style="fill: none; stroke: #e36f47"/>
   </g>
   <g id="patch_3">
    <path d="M 44.790359 258.225354 
L 44.790359 2.834646 
" style="fill: none; stroke: #000000; stroke-linejoin: miter; stroke-linecap: square"/>
   </g>
   <g id="patch_4">
    <path d="M 44.790359 258.225354 
L 422.361999 258.225354 
" style="fill: none; stroke: #000000; stroke-linejoin: miter; stroke-linecap: square"/>
   </g>
   <g id="line2d_12">
    <path d="M 44.790359 182.017909 
L 51.717898 181.908339 
L 54.203647 181.623401 
L 55.897578 181.223448 
L 57.543397 180.609595 
L 59.083546 179.802784 
L 60.889409 178.61622 
L 62.683441 177.208951 
L 64.457899 175.521769 
L 66.194112 173.566549 
L 68.998177 169.966094 
L 71.756739 166.632518 
L 73.270674 165.140965 
L 74.651296 164.081735 
L 75.801555 163.463572 
L 76.799548 163.17163 
L 77.862826 163.080594 
L 79.088369 163.19336 
L 80.495008 163.538556 
L 82.064281 164.1363 
L 83.640037 164.972725 
L 85.099774 166.007762 
L 86.802636 167.505633 
L 89.326612 170.097215 
L 91.684544 172.445006 
L 93.069536 173.521512 
L 94.249514 174.113058 
L 95.135796 174.337651 
L 96.217261 174.365006 
L 97.363539 174.1494 
L 100.046262 173.528349 
L 101.095588 173.566991 
L 101.912696 173.790314 
L 102.730137 174.217945 
L 103.711062 175.031474 
L 104.744925 176.256573 
L 105.744596 177.803411 
L 106.835448 179.903951 
L 108.016284 182.632189 
L 109.749654 187.297128 
L 112.221979 194.727273 
L 114.772986 202.239204 
L 115.891223 204.985493 
L 116.769626 206.66561 
L 117.350948 207.477164 
L 117.979402 208.038938 
L 118.6005 208.234996 
L 119.213188 208.045168 
L 119.736836 207.56097 
L 120.262904 206.76263 
L 120.823285 205.561826 
L 121.704306 202.946913 
L 122.547396 199.63938 
L 123.560412 194.696062 
L 124.79132 187.471269 
L 126.83311 173.745918 
L 129.26279 157.662432 
L 130.704124 149.591845 
L 131.814732 144.396546 
L 132.945938 139.995951 
L 134.041651 136.516001 
L 135.202088 133.603792 
L 136.133136 131.829703 
L 137.084311 130.571151 
L 137.725168 130.077714 
L 138.289289 129.906664 
L 138.897803 130.021087 
L 139.415904 130.375042 
L 139.964245 131.012804 
L 140.529239 131.952162 
L 141.429964 134.018374 
L 142.494732 137.263497 
L 143.678225 141.624456 
L 146.90119 153.92183 
L 147.892786 156.749275 
L 148.676403 158.395399 
L 149.232001 159.215195 
L 149.75986 159.72356 
L 150.370431 159.995755 
L 150.957911 159.966281 
L 151.477192 159.735096 
L 152.355339 159.014778 
L 153.914683 157.258051 
L 155.263026 155.859647 
L 156.362984 155.084111 
L 157.174718 154.774777 
L 157.987368 154.688409 
L 158.758208 154.797931 
L 159.544082 155.087178 
L 160.335904 155.559567 
L 161.266671 156.373931 
L 162.077249 157.356484 
L 162.905439 158.68607 
L 163.88803 160.794246 
L 164.685459 163.017381 
L 165.684835 166.552646 
L 166.694628 171.017567 
L 168.021819 178.129848 
L 170.260015 191.921671 
L 171.744409 200.643863 
L 172.825258 205.963141 
L 173.668105 209.294408 
L 174.514095 211.848669 
L 175.09369 213.130702 
L 175.637266 213.985245 
L 176.127539 214.465174 
L 176.683564 214.669201 
L 177.150019 214.550659 
L 177.544703 214.23207 
L 177.916903 213.736959 
L 178.435882 212.707558 
L 178.922385 211.357401 
L 179.693866 208.383672 
L 180.517722 203.992982 
L 181.505095 196.98592 
L 182.397473 188.990141 
L 183.431564 177.843744 
L 184.858404 159.808957 
L 188.344658 114.069336 
L 189.485837 102.074649 
L 190.729554 91.443715 
L 191.813217 84.088952 
L 192.917326 78.134543 
L 194.041411 73.28328 
L 195.328625 68.703176 
L 196.32912 65.786349 
L 197.080346 64.189284 
L 197.587522 63.551579 
L 197.956165 63.37488 
L 198.277845 63.448495 
L 198.588698 63.741369 
L 198.928686 64.329985 
L 199.491793 65.958919 
L 200.033919 68.3234 
L 200.75836 72.685189 
L 201.583841 79.169453 
L 202.811601 90.97649 
L 206.296652 125.956224 
L 211.601217 174.925217 
L 212.441813 179.909672 
L 213.010687 182.2147 
L 213.421926 183.320337 
L 213.837848 183.964778 
L 214.230877 184.149168 
L 214.657152 183.904067 
L 215.064888 183.261853 
L 215.525724 182.094503 
L 216.169778 179.76778 
L 217.009954 175.758314 
L 218.531414 167.051866 
L 219.743689 160.527738 
L 220.597453 157.106948 
L 221.137753 155.651713 
L 221.65192 154.807446 
L 222.091483 154.477397 
L 222.554799 154.461118 
L 223.068605 154.742005 
L 223.890132 155.539588 
L 224.920308 156.511455 
L 225.445275 156.782348 
L 225.892852 156.82672 
L 226.327526 156.682666 
L 226.886968 156.225846 
L 227.673122 155.189321 
L 228.911658 153.48311 
L 229.504709 153.034134 
L 229.924714 152.945618 
L 230.383509 153.083286 
L 230.838297 153.461663 
L 231.342946 154.15969 
L 232.010886 155.541706 
L 232.77196 157.801393 
L 233.548999 160.914266 
L 234.539779 165.999926 
L 235.831737 174.075297 
L 237.969761 187.847017 
L 238.681191 191.031727 
L 239.338784 192.938324 
L 239.916039 193.862973 
L 240.451595 194.235446 
L 240.910647 194.282304 
L 241.404391 194.123052 
L 242.060669 193.641011 
L 242.788449 192.817962 
L 243.631643 191.530041 
L 244.290611 190.131852 
L 244.823553 188.526877 
L 245.460902 185.742397 
L 245.980964 182.570303 
L 246.691383 176.806645 
L 247.598428 167.227108 
L 248.800767 151.524556 
L 251.651731 112.170292 
L 252.597328 102.797684 
L 253.499926 95.89479 
L 254.560407 89.633445 
L 257.137811 76.032902 
L 257.979758 69.208147 
L 260.942717 42.948936 
L 261.58601 39.529852 
L 262.118751 37.579989 
L 262.54223 36.597224 
L 262.860827 36.198283 
L 263.173831 36.107235 
L 263.45766 36.299322 
L 263.782344 36.862094 
L 264.216337 38.2193 
L 264.74346 40.813339 
L 265.395824 45.289834 
L 268.38583 67.979128 
L 271.307989 86.037937 
L 272.084545 93.141717 
L 272.889723 102.846542 
L 273.748652 116.037311 
L 274.993649 139.39811 
L 277.935003 196.710326 
L 278.848468 209.651047 
L 279.557875 216.958559 
L 280.103036 220.78366 
L 280.598775 222.838315 
L 280.879164 223.383021 
L 281.172878 223.469599 
L 281.472163 223.050625 
L 281.776623 222.109995 
L 282.209848 219.921566 
L 282.713001 216.259256 
L 283.54378 208.221562 
L 286.026551 182.083425 
L 286.796709 176.580703 
L 287.426681 173.578533 
L 287.926599 172.22333 
L 288.221729 171.846817 
L 288.493349 171.761333 
L 288.748278 171.885542 
L 289.142081 172.388051 
L 290.416167 174.478531 
L 290.674409 174.516601 
L 290.899321 174.330328 
L 291.138424 173.868748 
L 291.531216 172.441682 
L 291.940711 169.992312 
L 292.521885 164.803246 
L 293.289237 155.255552 
L 295.892131 119.237557 
L 296.39746 115.441184 
L 296.776692 113.758899 
L 297.03996 113.192518 
L 297.30837 113.11324 
L 297.587313 113.541679 
L 297.857129 114.418434 
L 298.277936 116.571333 
L 298.910402 121.08932 
L 300.339941 131.664084 
L 300.853492 133.864923 
L 301.201693 134.615412 
L 301.471165 134.784859 
L 301.669322 134.695809 
L 301.992385 134.208593 
L 302.480646 132.857208 
L 303.771698 128.898888 
L 304.03366 128.658663 
L 304.280098 128.759485 
L 304.512192 129.178216 
L 304.842072 130.345221 
L 305.268886 132.837693 
L 305.878687 138.062886 
L 306.752045 147.87523 
L 308.166335 166.625192 
L 310.560883 199.109114 
L 311.393289 207.210295 
L 312.108487 212.146357 
L 312.681879 214.730664 
L 313.137894 215.892578 
L 313.463966 216.215291 
L 313.670856 216.192933 
L 313.989357 215.810269 
L 314.397391 214.717237 
L 314.903022 212.515204 
L 315.68599 207.793349 
L 316.862769 200.581108 
L 317.454904 198.336621 
L 317.894741 197.50127 
L 318.218611 197.274453 
L 318.573365 197.292059 
L 319.783193 197.667462 
L 320.172711 197.40996 
L 320.595458 196.810261 
L 321.095698 195.68135 
L 321.646198 193.859133 
L 322.137973 191.493096 
L 322.702224 187.493389 
L 323.316457 181.219995 
L 324.125383 170.367535 
L 325.585391 150.560455 
L 326.389943 142.788863 
L 327.174923 137.364419 
L 328.089643 132.814564 
L 328.783423 129.024286 
L 329.414458 124.220874 
L 331.637375 105.589267 
L 332.01833 104.285902 
L 332.393445 103.709858 
L 332.657556 103.645898 
L 332.950277 103.819528 
L 333.329239 104.324531 
L 333.880125 105.48738 
L 334.685884 107.806031 
L 335.674593 110.499071 
L 336.161924 111.304949 
L 336.601553 111.660786 
L 336.972346 111.681068 
L 337.355307 111.46851 
L 338.442696 110.669487 
L 338.828337 110.716409 
L 339.13212 110.98659 
L 339.486931 111.669258 
L 339.838673 112.903471 
L 340.26538 115.418622 
L 340.714946 119.510044 
L 341.336422 127.582495 
L 342.302393 143.889917 
L 343.919815 171.096546 
L 347.32226 221.114092 
L 348.026519 227.529498 
L 348.596069 231.029651 
L 349.161024 233.231371 
L 349.61207 234.162927 
L 349.899276 234.33589 
L 350.15379 234.188711 
L 350.481837 233.574711 
L 350.905119 232.138487 
L 351.548582 229.003697 
L 352.349812 225.214112 
L 352.675907 224.504744 
L 352.823757 224.464269 
L 352.961652 224.608908 
L 353.217241 225.371686 
L 353.561123 227.399674 
L 354.089069 232.293599 
L 355.504504 246.594245 
L 356.00092 249.574764 
L 356.399144 250.817937 
L 356.585711 250.997315 
L 356.735369 250.942427 
L 356.924063 250.617153 
L 357.186496 249.69907 
L 357.546855 247.627241 
L 358.086016 243.070961 
L 358.760772 235.270277 
L 359.672422 221.570599 
L 360.936015 202.959757 
L 361.482787 197.934709 
L 361.833248 196.320402 
L 362.044054 195.979908 
L 362.186485 195.997195 
L 362.407326 196.363547 
L 362.804011 197.745161 
L 363.746161 201.298925 
L 364.072764 201.782165 
L 364.301424 201.816782 
L 364.567615 201.589134 
L 365.050779 200.736911 
L 366.492704 197.60409 
L 366.957456 195.881678 
L 367.421011 193.249848 
L 367.958043 188.664488 
L 368.72594 179.64156 
L 370.613179 156.918907 
L 372.584406 136.710023 
L 373.172795 132.163772 
L 373.543516 130.598405 
L 373.801636 130.152222 
L 373.976901 130.119512 
L 374.178268 130.306643 
L 374.513779 131.024742 
L 375.028707 132.80032 
L 375.666173 135.87407 
L 376.361033 140.279481 
L 377.097019 146.438227 
L 379.747415 170.970243 
L 380.518571 175.685755 
L 381.165485 178.299428 
L 381.665504 179.547607 
L 382.112873 180.15412 
L 382.636016 180.461577 
L 383.297073 180.801769 
L 383.620687 181.284433 
L 383.922625 182.196014 
L 384.295273 184.189896 
L 384.838798 188.736555 
L 385.989847 200.933073 
L 387.574747 218.015216 
L 389.122798 232.094905 
L 389.617745 234.533083 
L 390.005021 235.563735 
L 390.287568 235.803868 
L 390.493376 235.708314 
L 390.792036 235.229315 
L 392.245995 232.264919 
L 392.776588 231.903364 
L 393.903504 231.335966 
L 394.500529 230.609616 
L 395.327756 229.192202 
L 396.374642 226.875745 
L 397.431979 224.289668 
L 397.821861 222.568681 
L 398.286127 219.381483 
L 398.816367 213.846255 
L 399.46252 204.267678 
L 400.45663 185.688629 
L 402.245114 147.020635 
L 404.093669 106.664537 
L 404.853729 95.466597 
L 405.605092 87.635625 
L 406.968084 74.354848 
L 408.779529 55.459811 
L 410.140017 41.612573 
L 411.658376 25.967792 
L 412.352331 21.064836 
L 413.267674 16.524733 
L 414.275628 12.348632 
L 414.90577 10.582702 
L 415.26757 10.103379 
L 415.513652 10.090376 
L 415.748994 10.3342 
L 416.075592 11.065667 
L 416.486757 12.565777 
L 417.055387 15.600392 
L 418.091201 22.654288 
L 418.854664 29.195729 
L 419.611794 37.718221 
L 421.472652 60.199702 
L 421.92846 62.796789 
L 422.255889 63.558873 
L 422.361999 63.627988 
L 422.361999 63.627988 
" clip-path="url(#pb5e21d4acd)" style="fill: none; stroke: #3ea44e"/>
   </g>
   <g id="legend_1">
    <g id="patch_5">
     <path d="M 332.945749 50.862146 
L 418.361999 50.862146 
L 418.361999 6.834646 
L 332.945749 6.834646 
z
" style="fill: #ffffff; stroke: #000000; stroke-linejoin: miter"/>
    </g>
    <g id="line2d_13">
     <path d="M 339.345749 16.513396 
L 347.345749 16.513396 
L 355.345749 16.513396 
" style="fill: none; stroke: #009afa; stroke-linejoin: miter"/>
    </g>
    <g id="text_12">
     <!-- GXBeam -->
     <g transform="translate(361.745749 19.313396) scale(0.08 -0.08)">
      <defs>
       <path id="DejaVuSans-47" d="M 3809 666 
L 3809 1919 
L 2778 1919 
L 2778 2438 
L 4434 2438 
L 4434 434 
Q 4069 175 3628 42 
Q 3188 -91 2688 -91 
Q 1594 -91 976 548 
Q 359 1188 359 2328 
Q 359 3472 976 4111 
Q 1594 4750 2688 4750 
Q 3144 4750 3555 4637 
Q 3966 4525 4313 4306 
L 4313 3634 
Q 3963 3931 3569 4081 
Q 3175 4231 2741 4231 
Q 1884 4231 1454 3753 
Q 1025 3275 1025 2328 
Q 1025 1384 1454 906 
Q 1884 428 2741 428 
Q 3075 428 3337 486 
Q 3600 544 3809 666 
z
" transform="scale(0.015625)"/>
       <path id="DejaVuSans-58" d="M 403 4666 
L 1081 4666 
L 2241 2931 
L 3406 4666 
L 4084 4666 
L 2584 2425 
L 4184 0 
L 3506 0 
L 2194 1984 
L 872 0 
L 191 0 
L 1856 2491 
L 403 4666 
z
" transform="scale(0.015625)"/>
       <path id="DejaVuSans-42" d="M 1259 2228 
L 1259 519 
L 2272 519 
Q 2781 519 3026 730 
Q 3272 941 3272 1375 
Q 3272 1813 3026 2020 
Q 2781 2228 2272 2228 
L 1259 2228 
z
M 1259 4147 
L 1259 2741 
L 2194 2741 
Q 2656 2741 2882 2914 
Q 3109 3088 3109 3444 
Q 3109 3797 2882 3972 
Q 2656 4147 2194 4147 
L 1259 4147 
z
M 628 4666 
L 2241 4666 
Q 2963 4666 3353 4366 
Q 3744 4066 3744 3513 
Q 3744 3084 3544 2831 
Q 3344 2578 2956 2516 
Q 3422 2416 3680 2098 
Q 3938 1781 3938 1306 
Q 3938 681 3513 340 
Q 3088 0 2303 0 
L 628 0 
L 628 4666 
z
" transform="scale(0.015625)"/>
       <path id="DejaVuSans-61" d="M 2194 1759 
Q 1497 1759 1228 1600 
Q 959 1441 959 1056 
Q 959 750 1161 570 
Q 1363 391 1709 391 
Q 2188 391 2477 730 
Q 2766 1069 2766 1631 
L 2766 1759 
L 2194 1759 
z
M 3341 1997 
L 3341 0 
L 2766 0 
L 2766 531 
Q 2569 213 2275 61 
Q 1981 -91 1556 -91 
Q 1019 -91 701 211 
Q 384 513 384 1019 
Q 384 1609 779 1909 
Q 1175 2209 1959 2209 
L 2766 2209 
L 2766 2266 
Q 2766 2663 2505 2880 
Q 2244 3097 1772 3097 
Q 1472 3097 1187 3025 
Q 903 2953 641 2809 
L 641 3341 
Q 956 3463 1253 3523 
Q 1550 3584 1831 3584 
Q 2591 3584 2966 3190 
Q 3341 2797 3341 1997 
z
" transform="scale(0.015625)"/>
      </defs>
      <use xlink:href="#DejaVuSans-47"/>
      <use xlink:href="#DejaVuSans-58" x="77.490234"/>
      <use xlink:href="#DejaVuSans-42" x="145.996094"/>
      <use xlink:href="#DejaVuSans-65" x="214.599609"/>
      <use xlink:href="#DejaVuSans-61" x="276.123047"/>
      <use xlink:href="#DejaVuSans-6d" x="337.402344"/>
     </g>
    </g>
    <g id="line2d_14">
     <path d="M 339.345749 28.255896 
L 347.345749 28.255896 
L 355.345749 28.255896 
" style="fill: none; stroke: #e36f47; stroke-linejoin: miter"/>
    </g>
    <g id="text_13">
     <!-- ODEProblem -->
     <g transform="translate(361.745749 31.055896) scale(0.08 -0.08)">
      <defs>
       <path id="DejaVuSans-4f" d="M 2522 4238 
Q 1834 4238 1429 3725 
Q 1025 3213 1025 2328 
Q 1025 1447 1429 934 
Q 1834 422 2522 422 
Q 3209 422 3611 934 
Q 4013 1447 4013 2328 
Q 4013 3213 3611 3725 
Q 3209 4238 2522 4238 
z
M 2522 4750 
Q 3503 4750 4090 4092 
Q 4678 3434 4678 2328 
Q 4678 1225 4090 567 
Q 3503 -91 2522 -91 
Q 1538 -91 948 565 
Q 359 1222 359 2328 
Q 359 3434 948 4092 
Q 1538 4750 2522 4750 
z
" transform="scale(0.015625)"/>
       <path id="DejaVuSans-44" d="M 1259 4147 
L 1259 519 
L 2022 519 
Q 2988 519 3436 956 
Q 3884 1394 3884 2338 
Q 3884 3275 3436 3711 
Q 2988 4147 2022 4147 
L 1259 4147 
z
M 628 4666 
L 1925 4666 
Q 3281 4666 3915 4102 
Q 4550 3538 4550 2338 
Q 4550 1131 3912 565 
Q 3275 0 1925 0 
L 628 0 
L 628 4666 
z
" transform="scale(0.015625)"/>
       <path id="DejaVuSans-45" d="M 628 4666 
L 3578 4666 
L 3578 4134 
L 1259 4134 
L 1259 2753 
L 3481 2753 
L 3481 2222 
L 1259 2222 
L 1259 531 
L 3634 531 
L 3634 0 
L 628 0 
L 628 4666 
z
" transform="scale(0.015625)"/>
       <path id="DejaVuSans-50" d="M 1259 4147 
L 1259 2394 
L 2053 2394 
Q 2494 2394 2734 2622 
Q 2975 2850 2975 3272 
Q 2975 3691 2734 3919 
Q 2494 4147 2053 4147 
L 1259 4147 
z
M 628 4666 
L 2053 4666 
Q 2838 4666 3239 4311 
Q 3641 3956 3641 3272 
Q 3641 2581 3239 2228 
Q 2838 1875 2053 1875 
L 1259 1875 
L 1259 0 
L 628 0 
L 628 4666 
z
" transform="scale(0.015625)"/>
       <path id="DejaVuSans-72" d="M 2631 2963 
Q 2534 3019 2420 3045 
Q 2306 3072 2169 3072 
Q 1681 3072 1420 2755 
Q 1159 2438 1159 1844 
L 1159 0 
L 581 0 
L 581 3500 
L 1159 3500 
L 1159 2956 
Q 1341 3275 1631 3429 
Q 1922 3584 2338 3584 
Q 2397 3584 2469 3576 
Q 2541 3569 2628 3553 
L 2631 2963 
z
" transform="scale(0.015625)"/>
       <path id="DejaVuSans-6f" d="M 1959 3097 
Q 1497 3097 1228 2736 
Q 959 2375 959 1747 
Q 959 1119 1226 758 
Q 1494 397 1959 397 
Q 2419 397 2687 759 
Q 2956 1122 2956 1747 
Q 2956 2369 2687 2733 
Q 2419 3097 1959 3097 
z
M 1959 3584 
Q 2709 3584 3137 3096 
Q 3566 2609 3566 1747 
Q 3566 888 3137 398 
Q 2709 -91 1959 -91 
Q 1206 -91 779 398 
Q 353 888 353 1747 
Q 353 2609 779 3096 
Q 1206 3584 1959 3584 
z
" transform="scale(0.015625)"/>
       <path id="DejaVuSans-62" d="M 3116 1747 
Q 3116 2381 2855 2742 
Q 2594 3103 2138 3103 
Q 1681 3103 1420 2742 
Q 1159 2381 1159 1747 
Q 1159 1113 1420 752 
Q 1681 391 2138 391 
Q 2594 391 2855 752 
Q 3116 1113 3116 1747 
z
M 1159 2969 
Q 1341 3281 1617 3432 
Q 1894 3584 2278 3584 
Q 2916 3584 3314 3078 
Q 3713 2572 3713 1747 
Q 3713 922 3314 415 
Q 2916 -91 2278 -91 
Q 1894 -91 1617 61 
Q 1341 213 1159 525 
L 1159 0 
L 581 0 
L 581 4863 
L 1159 4863 
L 1159 2969 
z
" transform="scale(0.015625)"/>
       <path id="DejaVuSans-6c" d="M 603 4863 
L 1178 4863 
L 1178 0 
L 603 0 
L 603 4863 
z
" transform="scale(0.015625)"/>
      </defs>
      <use xlink:href="#DejaVuSans-4f"/>
      <use xlink:href="#DejaVuSans-44" x="78.710938"/>
      <use xlink:href="#DejaVuSans-45" x="155.712891"/>
      <use xlink:href="#DejaVuSans-50" x="218.896484"/>
      <use xlink:href="#DejaVuSans-72" x="277.449219"/>
      <use xlink:href="#DejaVuSans-6f" x="316.3125"/>
      <use xlink:href="#DejaVuSans-62" x="377.494141"/>
      <use xlink:href="#DejaVuSans-6c" x="440.970703"/>
      <use xlink:href="#DejaVuSans-65" x="468.753906"/>
      <use xlink:href="#DejaVuSans-6d" x="530.277344"/>
     </g>
    </g>
    <g id="line2d_15">
     <path d="M 339.345749 39.998396 
L 347.345749 39.998396 
L 355.345749 39.998396 
" style="fill: none; stroke: #3ea44e; stroke-linejoin: miter"/>
    </g>
    <g id="text_14">
     <!-- DAEProblem -->
     <g transform="translate(361.745749 42.798396) scale(0.08 -0.08)">
      <defs>
       <path id="DejaVuSans-41" d="M 2188 4044 
L 1331 1722 
L 3047 1722 
L 2188 4044 
z
M 1831 4666 
L 2547 4666 
L 4325 0 
L 3669 0 
L 3244 1197 
L 1141 1197 
L 716 0 
L 50 0 
L 1831 4666 
z
" transform="scale(0.015625)"/>
      </defs>
      <use xlink:href="#DejaVuSans-44"/>
      <use xlink:href="#DejaVuSans-41" x="75.251953"/>
      <use xlink:href="#DejaVuSans-45" x="143.660156"/>
      <use xlink:href="#DejaVuSans-50" x="206.84375"/>
      <use xlink:href="#DejaVuSans-72" x="265.396484"/>
      <use xlink:href="#DejaVuSans-6f" x="304.259766"/>
      <use xlink:href="#DejaVuSans-62" x="365.441406"/>
      <use xlink:href="#DejaVuSans-6c" x="428.917969"/>
      <use xlink:href="#DejaVuSans-65" x="456.701172"/>
      <use xlink:href="#DejaVuSans-6d" x="518.224609"/>
     </g>
    </g>
   </g>
  </g>
 </g>
 <defs>
  <clipPath id="pb5e21d4acd">
   <rect x="44.790359" y="2.834646" width="377.57164" height="255.390709"/>
  </clipPath>
 </defs>
</svg>
