<?xml version="1.0" encoding="utf-8" standalone="no"?>
<!DOCTYPE svg PUBLIC "-//W3C//DTD SVG 1.1//EN"
  "http://www.w3.org/Graphics/SVG/1.1/DTD/svg11.dtd">
<svg xmlns:xlink="http://www.w3.org/1999/xlink" width="432pt" height="288pt" viewBox="0 0 432 288" xmlns="http://www.w3.org/2000/svg" version="1.1">
 <metadata>
  <rdf:RDF xmlns:dc="http://purl.org/dc/elements/1.1/" xmlns:cc="http://creativecommons.org/ns#" xmlns:rdf="http://www.w3.org/1999/02/22-rdf-syntax-ns#">
   <cc:Work>
    <dc:type rdf:resource="http://purl.org/dc/dcmitype/StillImage"/>
    <dc:date>2023-04-05T00:58:22.409950</dc:date>
    <dc:format>image/svg+xml</dc:format>
    <dc:creator>
     <cc:Agent>
      <dc:title>Matplotlib v3.7.1, https://matplotlib.org/</dc:title>
     </cc:Agent>
    </dc:creator>
   </cc:Work>
  </rdf:RDF>
 </metadata>
 <defs>
  <style type="text/css">*{stroke-linejoin: round; stroke-linecap: butt}</style>
 </defs>
 <g id="figure_1">
  <g id="patch_1">
   <path d="M 0 288 
L 432 288 
L 432 0 
L 0 0 
z
" style="fill: #ffffff"/>
  </g>
  <g id="axes_1">
   <g id="patch_2">
    <path d="M 42.933593 258.225354 
L 422.361999 258.225354 
L 422.361999 2.834646 
L 42.933593 2.834646 
z
" style="fill: #ffffff"/>
   </g>
   <g id="line2d_1">
    <path d="M 42.933593 106.006461 
L 43.69245 106.096065 
L 44.641021 106.399198 
L 45.96902 107.282424 
L 47.297019 108.528493 
L 48.435305 110.024939 
L 50.901589 114.1383 
L 52.419303 117.072041 
L 54.506159 122.002393 
L 56.78273 127.884765 
L 58.679872 132.643931 
L 61.905013 139.735874 
L 67.027297 150.400032 
L 68.355296 152.217145 
L 69.493581 153.427463 
L 70.252438 153.967065 
L 71.201009 154.34098 
L 72.529008 154.463577 
L 73.667294 154.269074 
L 74.236436 153.952605 
L 74.995293 153.296762 
L 75.943864 152.102086 
L 77.082149 150.405122 
L 78.410149 148.115395 
L 81.445576 142.666415 
L 83.342718 139.527272 
L 87.137002 132.545945 
L 89.223858 128.356809 
L 91.121 124.564886 
L 94.535856 116.806391 
L 96.812426 111.463697 
L 98.140426 109.157585 
L 99.658139 107.076812 
L 100.796425 105.950387 
L 102.314138 104.944841 
L 104.590709 103.687871 
L 105.159851 103.597303 
L 106.108422 103.694862 
L 107.056993 104.033693 
L 107.81585 104.471878 
L 108.764421 105.356717 
L 109.902706 106.951821 
L 111.42042 109.544018 
L 112.558705 111.940681 
L 113.696991 115.034107 
L 115.02499 119.366814 
L 116.352989 124.359478 
L 118.250131 132.575539 
L 120.336988 141.18905 
L 122.423844 148.952179 
L 123.941557 153.61669 
L 125.8387 158.564558 
L 126.976985 160.888612 
L 127.925556 162.261039 
L 128.874127 163.243056 
L 130.012412 164.123755 
L 130.960983 164.564992 
L 131.909554 164.731224 
L 133.99641 164.89054 
L 134.755267 164.730223 
L 135.32441 164.437392 
L 135.893552 163.90298 
L 136.652409 162.871878 
L 137.411266 161.457493 
L 138.359837 159.133343 
L 139.308408 156.033197 
L 140.446693 151.440468 
L 142.533549 141.963157 
L 146.327833 123.236139 
L 148.983832 110.732402 
L 150.122118 106.305247 
L 151.450117 101.99736 
L 152.778116 98.36996 
L 154.106116 95.458588 
L 156.762115 90.452925 
L 157.710686 89.109636 
L 158.469542 88.363282 
L 159.418113 87.736443 
L 160.17697 87.464451 
L 160.935827 87.366023 
L 161.694684 87.502039 
L 163.022683 88.022127 
L 165.10954 89.042052 
L 165.678682 89.555436 
L 166.437539 90.571278 
L 167.196396 91.98707 
L 167.955253 93.840796 
L 168.903824 96.820912 
L 169.852395 100.648881 
L 171.180394 107.150223 
L 173.646679 120.514883 
L 176.302678 136.21913 
L 178.579248 150.919721 
L 180.666104 163.980858 
L 182.563246 174.186237 
L 184.270674 182.267254 
L 186.736959 192.785245 
L 187.875244 196.979406 
L 188.823815 199.701859 
L 189.582672 201.275 
L 190.151814 202.083568 
L 190.720957 202.57179 
L 191.2901 202.729261 
L 191.859242 202.561996 
L 192.428385 202.127431 
L 193.376956 200.988308 
L 195.843241 197.517956 
L 196.602097 196.095227 
L 197.360954 194.270539 
L 198.309525 191.32976 
L 199.258096 187.599444 
L 200.206667 182.869203 
L 201.155238 177.049481 
L 205.518665 148.224623 
L 208.743806 129.373997 
L 210.071806 119.190074 
L 212.348376 101.42755 
L 214.245518 88.635853 
L 215.763232 79.880887 
L 217.660374 68.755583 
L 219.178088 59.867133 
L 220.126659 55.609965 
L 221.07523 52.39758 
L 221.834086 50.511758 
L 222.403229 49.546206 
L 222.782657 49.176789 
L 223.162086 49.073035 
L 223.541514 49.220057 
L 223.920943 49.585215 
L 224.490085 50.463829 
L 226.007799 53.109497 
L 226.766656 53.939472 
L 227.335798 54.303986 
L 227.904941 54.444006 
L 228.474083 54.314775 
L 228.853512 54.027471 
L 229.422655 53.233174 
L 230.181511 51.567362 
L 231.509511 48.474548 
L 231.888939 48.021318 
L 232.268368 47.881409 
L 232.647796 48.07513 
L 233.027224 48.579272 
L 233.596367 49.847643 
L 234.16551 51.65434 
L 234.734652 54.034279 
L 235.493509 58.33896 
L 236.252366 64.054066 
L 241.184935 107.041381 
L 243.65122 132.008465 
L 246.117504 158.496643 
L 247.066075 165.702755 
L 248.773503 176.368724 
L 250.291217 184.944983 
L 251.80893 193.4294 
L 254.275215 208.866419 
L 254.844358 210.904779 
L 255.603215 212.636313 
L 256.931214 215.180698 
L 260.156355 222.752937 
L 260.915212 225.489234 
L 262.243212 230.593232 
L 262.62264 231.385663 
L 263.002068 231.604503 
L 263.191783 231.475241 
L 263.571211 230.737513 
L 263.950639 229.424364 
L 264.519782 226.62348 
L 268.883209 201.294931 
L 271.539208 185.434058 
L 272.487779 177.27902 
L 274.764349 156.621459 
L 276.282063 144.937377 
L 277.04092 140.3655 
L 277.799776 137.082534 
L 279.696918 130.210641 
L 280.645489 125.0216 
L 283.491202 108.439732 
L 284.250059 104.93392 
L 284.819202 103.0986 
L 285.19863 102.418104 
L 285.578059 102.211769 
L 285.957487 102.474298 
L 286.336915 103.183164 
L 286.906058 104.850775 
L 288.8032 111.080066 
L 289.372343 112.135473 
L 289.751771 112.458083 
L 290.1312 112.424204 
L 290.510628 111.966759 
L 290.890056 111.033357 
L 291.459199 108.715386 
L 292.028342 105.241844 
L 292.787198 98.980525 
L 294.68434 81.999547 
L 295.253483 78.797407 
L 295.632911 77.517176 
L 296.01234 76.974991 
L 296.202054 77.007071 
L 296.391768 77.254053 
L 296.771197 78.398158 
L 297.150625 80.42487 
L 297.719768 85.040591 
L 298.478624 93.49699 
L 299.996338 111.344305 
L 300.755195 117.567878 
L 301.514052 121.804129 
L 302.272909 124.79732 
L 303.031765 126.952627 
L 304.170051 129.833749 
L 304.739193 132.208506 
L 305.308336 135.933752 
L 305.877478 141.21806 
L 306.636335 150.427506 
L 308.154049 169.904538 
L 308.912906 176.431451 
L 309.482048 179.58794 
L 310.051191 181.633484 
L 310.620334 182.927795 
L 310.999762 183.330796 
L 311.189476 183.353902 
L 311.568905 183.075617 
L 312.517476 181.899812 
L 312.70719 182.008361 
L 312.896904 182.386178 
L 313.276332 184.146425 
L 313.655761 187.388687 
L 314.224903 194.817485 
L 316.31176 226.358008 
L 317.260331 236.038002 
L 318.398616 245.553473 
L 318.967758 249.052603 
L 319.347187 250.258172 
L 319.536901 250.396097 
L 319.726615 250.177722 
L 319.916329 249.589572 
L 320.295758 247.297469 
L 320.8649 241.596336 
L 322.003186 229.084718 
L 322.572328 225.275799 
L 322.951757 224.032645 
L 323.331185 223.674854 
L 323.710614 223.867115 
L 324.279756 224.615149 
L 325.228327 225.86462 
L 325.79747 226.137291 
L 326.176898 226.332467 
L 326.556327 227.002594 
L 326.935755 228.456112 
L 327.504898 232.046283 
L 328.263754 237.119097 
L 328.643183 238.525033 
L 328.832897 238.747945 
L 329.022611 238.617477 
L 329.212325 238.136821 
L 329.591754 236.17698 
L 330.160896 231.135017 
L 331.109467 219.550215 
L 332.627181 200.802676 
L 334.334609 180.776529 
L 335.28318 170.486083 
L 335.852323 166.39242 
L 336.611179 162.65638 
L 337.55975 157.893695 
L 340.405463 140.749114 
L 340.974606 135.511837 
L 342.871748 115.443335 
L 343.440891 112.452624 
L 344.958604 105.635344 
L 346.666032 95.529566 
L 347.235175 93.729053 
L 347.994032 91.450113 
L 348.37346 89.633522 
L 348.752888 86.952884 
L 349.322031 81.130097 
L 350.270602 70.852704 
L 350.65003 68.345712 
L 351.029459 67.086324 
L 351.219173 66.892327 
L 351.408887 66.946343 
L 351.788316 67.568469 
L 352.357458 68.648597 
L 352.547172 68.754523 
L 352.736887 68.655372 
L 353.116315 67.848519 
L 354.064886 64.863633 
L 354.2546 64.659185 
L 354.444314 64.724045 
L 354.634029 65.095801 
L 355.013457 66.822616 
L 355.5826 71.503066 
L 356.531171 80.315911 
L 356.910599 82.246151 
L 357.100313 82.553903 
L 357.290028 82.37711 
L 357.669456 80.71334 
L 358.618027 75.03386 
L 358.807741 74.764991 
L 358.997455 74.921731 
L 359.376884 76.324992 
L 359.946026 80.214785 
L 360.894597 87.453972 
L 361.084312 88.10625 
L 361.274026 88.231916 
L 361.46374 87.816663 
L 361.843168 85.632173 
L 362.791739 78.986983 
L 362.981454 78.446813 
L 363.171168 78.272395 
L 363.360882 78.447704 
L 363.550596 78.965075 
L 363.930025 81.048015 
L 364.499167 86.481044 
L 365.06831 91.842092 
L 365.447738 93.252686 
L 365.637452 93.143877 
L 365.827167 92.563759 
L 366.206595 90.414767 
L 366.965452 85.538413 
L 367.155166 84.952615 
L 367.34488 84.849313 
L 367.534594 85.288162 
L 367.914023 87.857806 
L 368.483165 94.985024 
L 369.242022 104.761181 
L 369.621451 107.418484 
L 369.811165 108.03452 
L 370.000879 108.231251 
L 370.190593 108.099247 
L 370.759736 107.212033 
L 370.94945 107.329958 
L 371.139164 107.900269 
L 371.518593 110.675242 
L 371.898021 115.63541 
L 373.415735 139.97806 
L 373.795163 142.459967 
L 373.984877 142.930433 
L 374.174592 143.035047 
L 374.55402 142.945867 
L 374.743734 143.140156 
L 374.933448 143.662424 
L 375.312877 145.946196 
L 375.692305 150.294192 
L 376.261448 160.763877 
L 377.020305 175.269976 
L 377.589447 182.147806 
L 377.968876 184.27867 
L 378.348304 184.859743 
L 378.727732 185.106043 
L 378.917447 185.527754 
L 379.296875 187.386216 
L 379.676303 190.539445 
L 380.245446 197.240043 
L 381.004303 206.690288 
L 381.383731 209.371503 
L 381.573446 209.933272 
L 381.76316 209.985607 
L 381.952874 209.59894 
L 382.332302 207.870225 
L 382.901445 203.824853 
L 383.470588 199.458263 
L 383.850016 198.158359 
L 384.03973 198.41137 
L 384.419159 200.616317 
L 384.988301 204.864278 
L 385.36773 206.100294 
L 385.557444 206.228127 
L 386.506015 206.01469 
L 386.695729 205.643656 
L 387.075157 203.736145 
L 387.6443 199.607287 
L 387.834014 198.880053 
L 388.023728 198.821057 
L 388.213443 199.45412 
L 388.592871 202.188713 
L 389.162014 206.483016 
L 390.110585 211.223033 
L 390.490013 212.593715 
L 390.679727 212.706242 
L 390.869441 212.2557 
L 391.24887 209.77708 
L 391.818013 205.194386 
L 392.197441 203.988767 
L 392.387155 204.003135 
L 392.956298 204.511243 
L 393.146012 204.357204 
L 393.52544 203.504256 
L 394.094583 201.579892 
L 394.474011 199.428854 
L 394.85344 195.692893 
L 395.422582 187.143941 
L 396.371153 173.149865 
L 396.940296 167.575586 
L 397.699153 162.749547 
L 398.268295 158.925582 
L 399.027152 152.426466 
L 399.786009 143.244214 
L 400.165437 139.295356 
L 400.544866 137.4724 
L 401.114008 136.762258 
L 401.493437 136.259456 
L 402.062579 135.967411 
L 402.252294 135.413585 
L 402.442008 134.201702 
L 402.821436 129.716622 
L 404.718578 101.061091 
L 405.667149 95.635614 
L 406.236292 92.501048 
L 406.61572 88.263554 
L 407.754006 72.402515 
L 408.323148 66.67807 
L 408.512862 65.795253 
L 408.702577 65.511226 
L 408.892291 65.641069 
L 409.461433 66.82019 
L 410.030576 67.969113 
L 410.22029 67.793624 
L 410.410004 67.045562 
L 410.789433 63.678027 
L 412.686575 39.656808 
L 413.066003 37.362632 
L 413.445432 36.067449 
L 413.82486 35.047833 
L 414.204288 32.894062 
L 414.963145 25.019088 
L 416.291145 11.331895 
L 416.480859 10.760346 
L 416.670573 10.964877 
L 417.050002 13.132275 
L 417.808858 19.794072 
L 418.567715 27.273367 
L 418.947144 29.071593 
L 419.136858 29.30273 
L 419.326572 29.164296 
L 420.085429 27.71927 
L 420.275143 27.786407 
L 420.464857 28.157424 
L 420.844286 29.710127 
L 421.223714 32.418519 
L 421.792857 38.726283 
L 422.361999 45.561698 
L 422.361999 45.561698 
" clip-path="url(#pe3c166ebb7)" style="fill: none; stroke: #009afa"/>
   </g>
   <g id="matplotlib.axis_1">
    <g id="xtick_1">
     <g id="line2d_2">
      <defs>
       <path id="m9793a93490" d="M 0 0 
L 0 -2.5 
" style="stroke: #000000; stroke-width: 0.5"/>
      </defs>
      <g>
       <use xlink:href="#m9793a93490" x="42.933593" y="258.225354" style="stroke: #000000; stroke-width: 0.5"/>
      </g>
     </g>
     <g id="text_1">
      <!-- $0.0$ -->
      <g transform="translate(36.533593 267.804104) scale(0.08 -0.08)">
       <defs>
        <path id="DejaVuSans-30" d="M 2034 4250 
Q 1547 4250 1301 3770 
Q 1056 3291 1056 2328 
Q 1056 1369 1301 889 
Q 1547 409 2034 409 
Q 2525 409 2770 889 
Q 3016 1369 3016 2328 
Q 3016 3291 2770 3770 
Q 2525 4250 2034 4250 
z
M 2034 4750 
Q 2819 4750 3233 4129 
Q 3647 3509 3647 2328 
Q 3647 1150 3233 529 
Q 2819 -91 2034 -91 
Q 1250 -91 836 529 
Q 422 1150 422 2328 
Q 422 3509 836 4129 
Q 1250 4750 2034 4750 
z
" transform="scale(0.015625)"/>
        <path id="DejaVuSans-2e" d="M 684 794 
L 1344 794 
L 1344 0 
L 684 0 
L 684 794 
z
" transform="scale(0.015625)"/>
       </defs>
       <use xlink:href="#DejaVuSans-30" transform="translate(0 0.78125)"/>
       <use xlink:href="#DejaVuSans-2e" transform="translate(63.623047 0.78125)"/>
       <use xlink:href="#DejaVuSans-30" transform="translate(95.410156 0.78125)"/>
      </g>
     </g>
    </g>
    <g id="xtick_2">
     <g id="line2d_3">
      <g>
       <use xlink:href="#m9793a93490" x="137.790694" y="258.225354" style="stroke: #000000; stroke-width: 0.5"/>
      </g>
     </g>
     <g id="text_2">
      <!-- $0.5$ -->
      <g transform="translate(131.390694 267.804104) scale(0.08 -0.08)">
       <defs>
        <path id="DejaVuSans-35" d="M 691 4666 
L 3169 4666 
L 3169 4134 
L 1269 4134 
L 1269 2991 
Q 1406 3038 1543 3061 
Q 1681 3084 1819 3084 
Q 2600 3084 3056 2656 
Q 3513 2228 3513 1497 
Q 3513 744 3044 326 
Q 2575 -91 1722 -91 
Q 1428 -91 1123 -41 
Q 819 9 494 109 
L 494 744 
Q 775 591 1075 516 
Q 1375 441 1709 441 
Q 2250 441 2565 725 
Q 2881 1009 2881 1497 
Q 2881 1984 2565 2268 
Q 2250 2553 1709 2553 
Q 1456 2553 1204 2497 
Q 953 2441 691 2322 
L 691 4666 
z
" transform="scale(0.015625)"/>
       </defs>
       <use xlink:href="#DejaVuSans-30" transform="translate(0 0.78125)"/>
       <use xlink:href="#DejaVuSans-2e" transform="translate(63.623047 0.78125)"/>
       <use xlink:href="#DejaVuSans-35" transform="translate(95.410156 0.78125)"/>
      </g>
     </g>
    </g>
    <g id="xtick_3">
     <g id="line2d_4">
      <g>
       <use xlink:href="#m9793a93490" x="232.647796" y="258.225354" style="stroke: #000000; stroke-width: 0.5"/>
      </g>
     </g>
     <g id="text_3">
      <!-- $1.0$ -->
      <g transform="translate(226.247796 267.804104) scale(0.08 -0.08)">
       <defs>
        <path id="DejaVuSans-31" d="M 794 531 
L 1825 531 
L 1825 4091 
L 703 3866 
L 703 4441 
L 1819 4666 
L 2450 4666 
L 2450 531 
L 3481 531 
L 3481 0 
L 794 0 
L 794 531 
z
" transform="scale(0.015625)"/>
       </defs>
       <use xlink:href="#DejaVuSans-31" transform="translate(0 0.78125)"/>
       <use xlink:href="#DejaVuSans-2e" transform="translate(63.623047 0.78125)"/>
       <use xlink:href="#DejaVuSans-30" transform="translate(95.410156 0.78125)"/>
      </g>
     </g>
    </g>
    <g id="xtick_4">
     <g id="line2d_5">
      <g>
       <use xlink:href="#m9793a93490" x="327.504898" y="258.225354" style="stroke: #000000; stroke-width: 0.5"/>
      </g>
     </g>
     <g id="text_4">
      <!-- $1.5$ -->
      <g transform="translate(321.104898 267.804104) scale(0.08 -0.08)">
       <use xlink:href="#DejaVuSans-31" transform="translate(0 0.09375)"/>
       <use xlink:href="#DejaVuSans-2e" transform="translate(63.623047 0.09375)"/>
       <use xlink:href="#DejaVuSans-35" transform="translate(95.410156 0.09375)"/>
      </g>
     </g>
    </g>
    <g id="xtick_5">
     <g id="line2d_6">
      <g>
       <use xlink:href="#m9793a93490" x="422.361999" y="258.225354" style="stroke: #000000; stroke-width: 0.5"/>
      </g>
     </g>
     <g id="text_5">
      <!-- $2.0$ -->
      <g transform="translate(415.961999 267.804104) scale(0.08 -0.08)">
       <defs>
        <path id="DejaVuSans-32" d="M 1228 531 
L 3431 531 
L 3431 0 
L 469 0 
L 469 531 
Q 828 903 1448 1529 
Q 2069 2156 2228 2338 
Q 2531 2678 2651 2914 
Q 2772 3150 2772 3378 
Q 2772 3750 2511 3984 
Q 2250 4219 1831 4219 
Q 1534 4219 1204 4116 
Q 875 4013 500 3803 
L 500 4441 
Q 881 4594 1212 4672 
Q 1544 4750 1819 4750 
Q 2544 4750 2975 4387 
Q 3406 4025 3406 3419 
Q 3406 3131 3298 2873 
Q 3191 2616 2906 2266 
Q 2828 2175 2409 1742 
Q 1991 1309 1228 531 
z
" transform="scale(0.015625)"/>
       </defs>
       <use xlink:href="#DejaVuSans-32" transform="translate(0 0.78125)"/>
       <use xlink:href="#DejaVuSans-2e" transform="translate(63.623047 0.78125)"/>
       <use xlink:href="#DejaVuSans-30" transform="translate(95.410156 0.78125)"/>
      </g>
     </g>
    </g>
    <g id="text_6">
     <!-- Time (s) -->
     <g transform="translate(210.285999 281.826136) scale(0.11 -0.11)">
      <defs>
       <path id="DejaVuSans-54" d="M -19 4666 
L 3928 4666 
L 3928 4134 
L 2272 4134 
L 2272 0 
L 1638 0 
L 1638 4134 
L -19 4134 
L -19 4666 
z
" transform="scale(0.015625)"/>
       <path id="DejaVuSans-69" d="M 603 3500 
L 1178 3500 
L 1178 0 
L 603 0 
L 603 3500 
z
M 603 4863 
L 1178 4863 
L 1178 4134 
L 603 4134 
L 603 4863 
z
" transform="scale(0.015625)"/>
       <path id="DejaVuSans-6d" d="M 3328 2828 
Q 3544 3216 3844 3400 
Q 4144 3584 4550 3584 
Q 5097 3584 5394 3201 
Q 5691 2819 5691 2113 
L 5691 0 
L 5113 0 
L 5113 2094 
Q 5113 2597 4934 2840 
Q 4756 3084 4391 3084 
Q 3944 3084 3684 2787 
Q 3425 2491 3425 1978 
L 3425 0 
L 2847 0 
L 2847 2094 
Q 2847 2600 2669 2842 
Q 2491 3084 2119 3084 
Q 1678 3084 1418 2786 
Q 1159 2488 1159 1978 
L 1159 0 
L 581 0 
L 581 3500 
L 1159 3500 
L 1159 2956 
Q 1356 3278 1631 3431 
Q 1906 3584 2284 3584 
Q 2666 3584 2933 3390 
Q 3200 3197 3328 2828 
z
" transform="scale(0.015625)"/>
       <path id="DejaVuSans-65" d="M 3597 1894 
L 3597 1613 
L 953 1613 
Q 991 1019 1311 708 
Q 1631 397 2203 397 
Q 2534 397 2845 478 
Q 3156 559 3463 722 
L 3463 178 
Q 3153 47 2828 -22 
Q 2503 -91 2169 -91 
Q 1331 -91 842 396 
Q 353 884 353 1716 
Q 353 2575 817 3079 
Q 1281 3584 2069 3584 
Q 2775 3584 3186 3129 
Q 3597 2675 3597 1894 
z
M 3022 2063 
Q 3016 2534 2758 2815 
Q 2500 3097 2075 3097 
Q 1594 3097 1305 2825 
Q 1016 2553 972 2059 
L 3022 2063 
z
" transform="scale(0.015625)"/>
       <path id="DejaVuSans-20" transform="scale(0.015625)"/>
       <path id="DejaVuSans-28" d="M 1984 4856 
Q 1566 4138 1362 3434 
Q 1159 2731 1159 2009 
Q 1159 1288 1364 580 
Q 1569 -128 1984 -844 
L 1484 -844 
Q 1016 -109 783 600 
Q 550 1309 550 2009 
Q 550 2706 781 3412 
Q 1013 4119 1484 4856 
L 1984 4856 
z
" transform="scale(0.015625)"/>
       <path id="DejaVuSans-73" d="M 2834 3397 
L 2834 2853 
Q 2591 2978 2328 3040 
Q 2066 3103 1784 3103 
Q 1356 3103 1142 2972 
Q 928 2841 928 2578 
Q 928 2378 1081 2264 
Q 1234 2150 1697 2047 
L 1894 2003 
Q 2506 1872 2764 1633 
Q 3022 1394 3022 966 
Q 3022 478 2636 193 
Q 2250 -91 1575 -91 
Q 1294 -91 989 -36 
Q 684 19 347 128 
L 347 722 
Q 666 556 975 473 
Q 1284 391 1588 391 
Q 1994 391 2212 530 
Q 2431 669 2431 922 
Q 2431 1156 2273 1281 
Q 2116 1406 1581 1522 
L 1381 1569 
Q 847 1681 609 1914 
Q 372 2147 372 2553 
Q 372 3047 722 3315 
Q 1072 3584 1716 3584 
Q 2034 3584 2315 3537 
Q 2597 3491 2834 3397 
z
" transform="scale(0.015625)"/>
       <path id="DejaVuSans-29" d="M 513 4856 
L 1013 4856 
Q 1481 4119 1714 3412 
Q 1947 2706 1947 2009 
Q 1947 1309 1714 600 
Q 1481 -109 1013 -844 
L 513 -844 
Q 928 -128 1133 580 
Q 1338 1288 1338 2009 
Q 1338 2731 1133 3434 
Q 928 4138 513 4856 
z
" transform="scale(0.015625)"/>
      </defs>
      <use xlink:href="#DejaVuSans-54"/>
      <use xlink:href="#DejaVuSans-69" x="57.958984"/>
      <use xlink:href="#DejaVuSans-6d" x="85.742188"/>
      <use xlink:href="#DejaVuSans-65" x="183.154297"/>
      <use xlink:href="#DejaVuSans-20" x="244.677734"/>
      <use xlink:href="#DejaVuSans-28" x="276.464844"/>
      <use xlink:href="#DejaVuSans-73" x="315.478516"/>
      <use xlink:href="#DejaVuSans-29" x="367.578125"/>
     </g>
    </g>
   </g>
   <g id="matplotlib.axis_2">
    <g id="ytick_1">
     <g id="line2d_7">
      <defs>
       <path id="md373575aea" d="M 0 0 
L 2.5 0 
" style="stroke: #000000; stroke-width: 0.5"/>
      </defs>
      <g>
       <use xlink:href="#md373575aea" x="42.933593" y="223.161076" style="stroke: #000000; stroke-width: 0.5"/>
      </g>
     </g>
     <g id="text_7">
      <!-- $-20$ -->
      <g transform="translate(22.473593 226.200451) scale(0.08 -0.08)">
       <defs>
        <path id="DejaVuSans-2212" d="M 678 2272 
L 4684 2272 
L 4684 1741 
L 678 1741 
L 678 2272 
z
" transform="scale(0.015625)"/>
       </defs>
       <use xlink:href="#DejaVuSans-2212" transform="translate(0 0.78125)"/>
       <use xlink:href="#DejaVuSans-32" transform="translate(83.789062 0.78125)"/>
       <use xlink:href="#DejaVuSans-30" transform="translate(147.412109 0.78125)"/>
      </g>
     </g>
    </g>
    <g id="ytick_2">
     <g id="line2d_8">
      <g>
       <use xlink:href="#md373575aea" x="42.933593" y="164.583769" style="stroke: #000000; stroke-width: 0.5"/>
      </g>
     </g>
     <g id="text_8">
      <!-- $-10$ -->
      <g transform="translate(22.473593 167.623144) scale(0.08 -0.08)">
       <use xlink:href="#DejaVuSans-2212" transform="translate(0 0.78125)"/>
       <use xlink:href="#DejaVuSans-31" transform="translate(83.789062 0.78125)"/>
       <use xlink:href="#DejaVuSans-30" transform="translate(147.412109 0.78125)"/>
      </g>
     </g>
    </g>
    <g id="ytick_3">
     <g id="line2d_9">
      <g>
       <use xlink:href="#md373575aea" x="42.933593" y="106.006461" style="stroke: #000000; stroke-width: 0.5"/>
      </g>
     </g>
     <g id="text_9">
      <!-- $0$ -->
      <g transform="translate(34.313593 109.045836) scale(0.08 -0.08)">
       <use xlink:href="#DejaVuSans-30" transform="translate(0 0.78125)"/>
      </g>
     </g>
    </g>
    <g id="ytick_4">
     <g id="line2d_10">
      <g>
       <use xlink:href="#md373575aea" x="42.933593" y="47.429153" style="stroke: #000000; stroke-width: 0.5"/>
      </g>
     </g>
     <g id="text_10">
      <!-- $10$ -->
      <g transform="translate(29.193593 50.468528) scale(0.08 -0.08)">
       <use xlink:href="#DejaVuSans-31" transform="translate(0 0.78125)"/>
       <use xlink:href="#DejaVuSans-30" transform="translate(63.623047 0.78125)"/>
      </g>
     </g>
    </g>
    <g id="text_11">
     <!-- Rodriguez Parameter $\theta_y$ (degree) -->
     <g transform="translate(15.063593 221.885) rotate(-90) scale(0.11 -0.11)">
      <defs>
       <path id="DejaVuSans-52" d="M 2841 2188 
Q 3044 2119 3236 1894 
Q 3428 1669 3622 1275 
L 4263 0 
L 3584 0 
L 2988 1197 
Q 2756 1666 2539 1819 
Q 2322 1972 1947 1972 
L 1259 1972 
L 1259 0 
L 628 0 
L 628 4666 
L 2053 4666 
Q 2853 4666 3247 4331 
Q 3641 3997 3641 3322 
Q 3641 2881 3436 2590 
Q 3231 2300 2841 2188 
z
M 1259 4147 
L 1259 2491 
L 2053 2491 
Q 2509 2491 2742 2702 
Q 2975 2913 2975 3322 
Q 2975 3731 2742 3939 
Q 2509 4147 2053 4147 
L 1259 4147 
z
" transform="scale(0.015625)"/>
       <path id="DejaVuSans-6f" d="M 1959 3097 
Q 1497 3097 1228 2736 
Q 959 2375 959 1747 
Q 959 1119 1226 758 
Q 1494 397 1959 397 
Q 2419 397 2687 759 
Q 2956 1122 2956 1747 
Q 2956 2369 2687 2733 
Q 2419 3097 1959 3097 
z
M 1959 3584 
Q 2709 3584 3137 3096 
Q 3566 2609 3566 1747 
Q 3566 888 3137 398 
Q 2709 -91 1959 -91 
Q 1206 -91 779 398 
Q 353 888 353 1747 
Q 353 2609 779 3096 
Q 1206 3584 1959 3584 
z
" transform="scale(0.015625)"/>
       <path id="DejaVuSans-64" d="M 2906 2969 
L 2906 4863 
L 3481 4863 
L 3481 0 
L 2906 0 
L 2906 525 
Q 2725 213 2448 61 
Q 2172 -91 1784 -91 
Q 1150 -91 751 415 
Q 353 922 353 1747 
Q 353 2572 751 3078 
Q 1150 3584 1784 3584 
Q 2172 3584 2448 3432 
Q 2725 3281 2906 2969 
z
M 947 1747 
Q 947 1113 1208 752 
Q 1469 391 1925 391 
Q 2381 391 2643 752 
Q 2906 1113 2906 1747 
Q 2906 2381 2643 2742 
Q 2381 3103 1925 3103 
Q 1469 3103 1208 2742 
Q 947 2381 947 1747 
z
" transform="scale(0.015625)"/>
       <path id="DejaVuSans-72" d="M 2631 2963 
Q 2534 3019 2420 3045 
Q 2306 3072 2169 3072 
Q 1681 3072 1420 2755 
Q 1159 2438 1159 1844 
L 1159 0 
L 581 0 
L 581 3500 
L 1159 3500 
L 1159 2956 
Q 1341 3275 1631 3429 
Q 1922 3584 2338 3584 
Q 2397 3584 2469 3576 
Q 2541 3569 2628 3553 
L 2631 2963 
z
" transform="scale(0.015625)"/>
       <path id="DejaVuSans-67" d="M 2906 1791 
Q 2906 2416 2648 2759 
Q 2391 3103 1925 3103 
Q 1463 3103 1205 2759 
Q 947 2416 947 1791 
Q 947 1169 1205 825 
Q 1463 481 1925 481 
Q 2391 481 2648 825 
Q 2906 1169 2906 1791 
z
M 3481 434 
Q 3481 -459 3084 -895 
Q 2688 -1331 1869 -1331 
Q 1566 -1331 1297 -1286 
Q 1028 -1241 775 -1147 
L 775 -588 
Q 1028 -725 1275 -790 
Q 1522 -856 1778 -856 
Q 2344 -856 2625 -561 
Q 2906 -266 2906 331 
L 2906 616 
Q 2728 306 2450 153 
Q 2172 0 1784 0 
Q 1141 0 747 490 
Q 353 981 353 1791 
Q 353 2603 747 3093 
Q 1141 3584 1784 3584 
Q 2172 3584 2450 3431 
Q 2728 3278 2906 2969 
L 2906 3500 
L 3481 3500 
L 3481 434 
z
" transform="scale(0.015625)"/>
       <path id="DejaVuSans-75" d="M 544 1381 
L 544 3500 
L 1119 3500 
L 1119 1403 
Q 1119 906 1312 657 
Q 1506 409 1894 409 
Q 2359 409 2629 706 
Q 2900 1003 2900 1516 
L 2900 3500 
L 3475 3500 
L 3475 0 
L 2900 0 
L 2900 538 
Q 2691 219 2414 64 
Q 2138 -91 1772 -91 
Q 1169 -91 856 284 
Q 544 659 544 1381 
z
M 1991 3584 
L 1991 3584 
z
" transform="scale(0.015625)"/>
       <path id="DejaVuSans-7a" d="M 353 3500 
L 3084 3500 
L 3084 2975 
L 922 459 
L 3084 459 
L 3084 0 
L 275 0 
L 275 525 
L 2438 3041 
L 353 3041 
L 353 3500 
z
" transform="scale(0.015625)"/>
       <path id="DejaVuSans-50" d="M 1259 4147 
L 1259 2394 
L 2053 2394 
Q 2494 2394 2734 2622 
Q 2975 2850 2975 3272 
Q 2975 3691 2734 3919 
Q 2494 4147 2053 4147 
L 1259 4147 
z
M 628 4666 
L 2053 4666 
Q 2838 4666 3239 4311 
Q 3641 3956 3641 3272 
Q 3641 2581 3239 2228 
Q 2838 1875 2053 1875 
L 1259 1875 
L 1259 0 
L 628 0 
L 628 4666 
z
" transform="scale(0.015625)"/>
       <path id="DejaVuSans-61" d="M 2194 1759 
Q 1497 1759 1228 1600 
Q 959 1441 959 1056 
Q 959 750 1161 570 
Q 1363 391 1709 391 
Q 2188 391 2477 730 
Q 2766 1069 2766 1631 
L 2766 1759 
L 2194 1759 
z
M 3341 1997 
L 3341 0 
L 2766 0 
L 2766 531 
Q 2569 213 2275 61 
Q 1981 -91 1556 -91 
Q 1019 -91 701 211 
Q 384 513 384 1019 
Q 384 1609 779 1909 
Q 1175 2209 1959 2209 
L 2766 2209 
L 2766 2266 
Q 2766 2663 2505 2880 
Q 2244 3097 1772 3097 
Q 1472 3097 1187 3025 
Q 903 2953 641 2809 
L 641 3341 
Q 956 3463 1253 3523 
Q 1550 3584 1831 3584 
Q 2591 3584 2966 3190 
Q 3341 2797 3341 1997 
z
" transform="scale(0.015625)"/>
       <path id="DejaVuSans-74" d="M 1172 4494 
L 1172 3500 
L 2356 3500 
L 2356 3053 
L 1172 3053 
L 1172 1153 
Q 1172 725 1289 603 
Q 1406 481 1766 481 
L 2356 481 
L 2356 0 
L 1766 0 
Q 1100 0 847 248 
Q 594 497 594 1153 
L 594 3053 
L 172 3053 
L 172 3500 
L 594 3500 
L 594 4494 
L 1172 4494 
z
" transform="scale(0.015625)"/>
       <path id="DejaVuSans-Oblique-3b8" d="M 2913 2219 
L 925 2219 
Q 791 1284 928 888 
Q 1100 400 1566 400 
Q 2034 400 2391 891 
Q 2703 1322 2913 2219 
z
M 3009 2750 
Q 3094 3638 2984 3950 
Q 2813 4444 2353 4444 
Q 1875 4444 1525 3956 
Q 1250 3563 1034 2750 
L 3009 2750 
z
M 2444 4913 
Q 3194 4913 3494 4250 
Q 3794 3591 3566 2422 
Q 3341 1256 2781 594 
Q 2225 -72 1475 -72 
Q 722 -72 425 594 
Q 128 1256 353 2422 
Q 581 3591 1134 4250 
Q 1691 4913 2444 4913 
z
" transform="scale(0.015625)"/>
       <path id="DejaVuSans-Oblique-79" d="M 1588 -325 
Q 1188 -997 936 -1164 
Q 684 -1331 294 -1331 
L -159 -1331 
L -63 -850 
L 269 -850 
Q 509 -850 678 -719 
Q 847 -588 1056 -206 
L 1234 128 
L 459 3500 
L 1069 3500 
L 1650 819 
L 3256 3500 
L 3859 3500 
L 1588 -325 
z
" transform="scale(0.015625)"/>
      </defs>
      <use xlink:href="#DejaVuSans-52" transform="translate(0 0.234375)"/>
      <use xlink:href="#DejaVuSans-6f" transform="translate(69.482422 0.234375)"/>
      <use xlink:href="#DejaVuSans-64" transform="translate(130.664062 0.234375)"/>
      <use xlink:href="#DejaVuSans-72" transform="translate(194.140625 0.234375)"/>
      <use xlink:href="#DejaVuSans-69" transform="translate(235.253906 0.234375)"/>
      <use xlink:href="#DejaVuSans-67" transform="translate(263.037109 0.234375)"/>
      <use xlink:href="#DejaVuSans-75" transform="translate(326.513672 0.234375)"/>
      <use xlink:href="#DejaVuSans-65" transform="translate(389.892578 0.234375)"/>
      <use xlink:href="#DejaVuSans-7a" transform="translate(451.416016 0.234375)"/>
      <use xlink:href="#DejaVuSans-20" transform="translate(503.90625 0.234375)"/>
      <use xlink:href="#DejaVuSans-50" transform="translate(535.693359 0.234375)"/>
      <use xlink:href="#DejaVuSans-61" transform="translate(595.996094 0.234375)"/>
      <use xlink:href="#DejaVuSans-72" transform="translate(657.275391 0.234375)"/>
      <use xlink:href="#DejaVuSans-61" transform="translate(698.388672 0.234375)"/>
      <use xlink:href="#DejaVuSans-6d" transform="translate(759.667969 0.234375)"/>
      <use xlink:href="#DejaVuSans-65" transform="translate(857.080078 0.234375)"/>
      <use xlink:href="#DejaVuSans-74" transform="translate(918.603516 0.234375)"/>
      <use xlink:href="#DejaVuSans-65" transform="translate(957.8125 0.234375)"/>
      <use xlink:href="#DejaVuSans-72" transform="translate(1019.335938 0.234375)"/>
      <use xlink:href="#DejaVuSans-20" transform="translate(1060.449219 0.234375)"/>
      <use xlink:href="#DejaVuSans-Oblique-3b8" transform="translate(1092.236328 0.234375)"/>
      <use xlink:href="#DejaVuSans-Oblique-79" transform="translate(1153.417969 -16.171875) scale(0.7)"/>
      <use xlink:href="#DejaVuSans-20" transform="translate(1197.578125 0.234375)"/>
      <use xlink:href="#DejaVuSans-28" transform="translate(1229.365234 0.234375)"/>
      <use xlink:href="#DejaVuSans-64" transform="translate(1268.378906 0.234375)"/>
      <use xlink:href="#DejaVuSans-65" transform="translate(1331.855469 0.234375)"/>
      <use xlink:href="#DejaVuSans-67" transform="translate(1393.378906 0.234375)"/>
      <use xlink:href="#DejaVuSans-72" transform="translate(1456.855469 0.234375)"/>
      <use xlink:href="#DejaVuSans-65" transform="translate(1497.96875 0.234375)"/>
      <use xlink:href="#DejaVuSans-65" transform="translate(1559.492188 0.234375)"/>
      <use xlink:href="#DejaVuSans-29" transform="translate(1621.015625 0.234375)"/>
     </g>
    </g>
   </g>
   <g id="line2d_11">
    <path d="M 42.933593 106.006461 
L 43.774011 106.116798 
L 44.661899 106.417941 
L 45.914353 107.250345 
L 47.303491 108.547922 
L 48.210656 109.704684 
L 50.018624 112.642883 
L 51.664021 115.52281 
L 53.063477 118.545018 
L 55.826137 125.329214 
L 59.290049 133.983055 
L 63.816672 143.820488 
L 66.329193 149.220156 
L 67.467755 151.037927 
L 68.644675 152.563203 
L 69.497862 153.429675 
L 70.31708 154.010331 
L 71.369331 154.359257 
L 72.519559 154.47996 
L 73.213296 154.409284 
L 74.002335 154.119954 
L 74.669711 153.588944 
L 75.470255 152.715315 
L 76.97221 150.592719 
L 78.219568 148.455064 
L 81.057061 143.311254 
L 82.899388 140.28618 
L 86.833963 133.142502 
L 93.304824 119.736881 
L 95.096407 115.354508 
L 96.527604 112.05069 
L 97.824722 109.681558 
L 99.251683 107.556437 
L 100.26434 106.441783 
L 101.321974 105.62909 
L 103.890707 103.92748 
L 104.767906 103.668004 
L 105.645466 103.645124 
L 106.815545 103.891585 
L 107.693104 104.343944 
L 108.495867 105.101134 
L 109.42103 106.284052 
L 111.050109 108.825942 
L 111.874095 110.394543 
L 112.906386 112.842298 
L 114.178106 116.547013 
L 115.475682 120.966403 
L 116.773259 126.183868 
L 121.060213 144.037899 
L 122.560023 149.372538 
L 124.079073 153.992557 
L 125.662313 158.231941 
L 126.678021 160.346007 
L 127.605516 161.782243 
L 128.531036 162.919399 
L 129.699786 163.953774 
L 130.510161 164.359806 
L 131.340221 164.582107 
L 134.288992 164.91938 
L 134.901617 164.692462 
L 135.516188 164.25022 
L 136.441669 163.202012 
L 137.368963 161.593198 
L 137.987158 160.165915 
L 138.883497 157.459932 
L 140.104853 152.805328 
L 141.846028 145.212029 
L 144.325788 133.092277 
L 148.504557 112.784832 
L 149.919387 107.102274 
L 151.344019 102.289413 
L 152.464769 99.170159 
L 153.765155 96.242504 
L 156.401266 90.982949 
L 157.573976 89.290437 
L 158.561309 88.274707 
L 159.416773 87.669622 
L 160.297348 87.356803 
L 160.892769 87.376538 
L 162.138173 87.706323 
L 164.60409 88.637893 
L 165.353602 89.254546 
L 166.103114 90.119126 
L 166.852626 91.314661 
L 167.602138 92.879354 
L 168.35165 94.961512 
L 169.316139 98.463678 
L 170.57836 104.16168 
L 172.428461 113.704818 
L 175.179439 129.396353 
L 177.247785 142.207159 
L 180.621665 163.680489 
L 182.352346 173.15383 
L 184.112239 181.499778 
L 186.77994 193.09406 
L 187.953009 197.219168 
L 188.891149 199.83814 
L 189.630534 201.36852 
L 190.308252 202.275665 
L 190.735704 202.568611 
L 191.202351 202.654899 
L 191.711822 202.503357 
L 192.442708 201.927906 
L 193.725749 200.496661 
L 195.057728 198.794169 
L 195.924543 197.403293 
L 196.792215 195.657162 
L 197.659887 193.410385 
L 198.52756 190.588 
L 199.395232 186.978362 
L 200.262904 182.435168 
L 201.4198 175.071781 
L 204.901847 151.815589 
L 206.727654 141.628172 
L 208.131763 133.404535 
L 209.34288 124.816156 
L 213.638434 92.509024 
L 215.291373 82.598288 
L 217.754177 67.96561 
L 219.320388 59.113854 
L 220.275285 54.965428 
L 221.101706 52.221223 
L 221.851711 50.401547 
L 222.448864 49.493512 
L 222.850805 49.204879 
L 223.252747 49.177662 
L 223.660052 49.403861 
L 224.093925 49.895239 
L 224.991184 51.37058 
L 226.221664 53.312891 
L 227.008086 54.117258 
L 227.563833 54.445231 
L 228.155647 54.509968 
L 228.466242 54.385766 
L 229.08999 53.755042 
L 229.713878 52.599044 
L 231.585543 48.39262 
L 231.897487 48.084197 
L 232.209431 47.971636 
L 232.521375 48.055916 
L 232.833319 48.333567 
L 233.457207 49.42197 
L 234.081095 51.185393 
L 234.704983 53.722146 
L 235.328871 57.211173 
L 236.264951 64.314326 
L 241.539499 110.629131 
L 243.439069 129.773102 
L 246.157083 158.777957 
L 247.220641 166.678167 
L 248.897406 177.197801 
L 250.360925 184.981289 
L 251.516257 191.455768 
L 252.953764 201.352677 
L 253.845752 206.787871 
L 254.530454 209.737238 
L 255.210255 211.701983 
L 258.199864 218.392461 
L 259.806967 221.776801 
L 260.551455 224.289069 
L 262.288444 230.794436 
L 262.652256 231.333587 
L 262.930779 231.392085 
L 263.212742 231.132828 
L 263.507706 230.525582 
L 263.909658 229.194291 
L 264.587337 226.005296 
L 266.247682 216.596106 
L 271.354115 186.451927 
L 272.382563 177.707103 
L 275.431648 151.011813 
L 276.462406 143.621889 
L 277.244528 139.642252 
L 278.196652 136.133366 
L 279.206852 132.219108 
L 280.216542 127.12318 
L 282.311484 114.879459 
L 283.781047 106.602016 
L 284.357149 104.281814 
L 284.849928 103.049788 
L 285.199557 102.652574 
L 285.558879 102.628652 
L 285.928369 102.982081 
L 286.488659 104.100911 
L 287.257297 106.349727 
L 288.899866 111.426023 
L 289.365017 112.326372 
L 289.675117 112.652329 
L 289.985217 112.71689 
L 290.295317 112.478124 
L 290.605418 111.896116 
L 291.07706 110.320707 
L 291.690072 107.054808 
L 292.460375 101.253816 
L 295.059251 79.727673 
L 295.575476 77.50877 
L 295.928905 76.773931 
L 296.166613 76.702159 
L 296.411462 77.014499 
L 296.658023 77.740455 
L 297.040082 79.671849 
L 297.556441 83.744498 
L 298.275761 91.627486 
L 299.950201 110.800269 
L 300.697339 116.697085 
L 301.589298 121.845557 
L 302.336426 124.973283 
L 302.91236 126.625662 
L 304.436057 130.199555 
L 304.894651 132.516342 
L 305.36439 136.048386 
L 305.95746 142.161462 
L 307.102061 157.128988 
L 308.145781 169.526332 
L 308.892297 175.702902 
L 309.601128 179.680886 
L 310.286563 182.293829 
L 310.70935 183.195342 
L 311.020929 183.406821 
L 311.190005 183.345752 
L 311.534319 182.865072 
L 312.396401 181.186126 
L 312.568817 181.17977 
L 312.752589 181.429087 
L 312.940722 182.014236 
L 313.316989 184.345701 
L 313.776935 189.327547 
L 314.499304 200.4534 
L 315.732766 219.574644 
L 316.666038 230.305059 
L 318.282142 245.462242 
L 318.878082 249.584624 
L 319.245086 250.855828 
L 319.397775 250.997315 
L 319.556981 250.874699 
L 319.735191 250.398925 
L 320.024744 248.86579 
L 320.435443 245.272185 
L 322.202978 227.254971 
L 322.652525 225.190014 
L 323.002861 224.487091 
L 323.237973 224.341992 
L 323.478874 224.388966 
L 323.960676 224.836984 
L 324.807724 225.733748 
L 325.218841 225.826945 
L 325.930744 225.794484 
L 326.202055 226.09643 
L 326.4576 226.739941 
L 326.789863 228.184128 
L 327.363694 232.000887 
L 328.195323 237.526307 
L 328.55245 238.673214 
L 328.781634 238.845863 
L 328.954663 238.668545 
L 329.192188 237.997842 
L 329.527926 236.234141 
L 330.043462 231.932675 
L 330.858705 222.799748 
L 334.809858 174.827408 
L 335.489277 168.862761 
L 336.239308 164.171765 
L 340.068154 143.576038 
L 340.718881 137.826985 
L 342.901304 115.72649 
L 343.639053 112.065065 
L 344.738318 106.627888 
L 346.397425 97.301495 
L 347.013527 95.215512 
L 347.908814 92.732965 
L 348.295526 90.425013 
L 348.801826 85.798326 
L 350.376937 69.860868 
L 350.72491 68.415913 
L 350.943296 68.068082 
L 351.190351 68.072098 
L 351.551823 68.484817 
L 352.011925 68.960166 
L 352.287987 68.911735 
L 352.57157 68.478492 
L 352.962339 67.250047 
L 353.891347 63.810654 
L 354.107477 63.595779 
L 354.323606 63.792825 
L 354.546517 64.471629 
L 354.924836 66.749368 
L 355.436826 71.702686 
L 356.332808 80.758995 
L 356.588802 82.056001 
L 356.844797 82.414711 
L 356.972795 82.241563 
L 357.231212 81.260927 
L 357.769894 77.591308 
L 358.247001 74.732769 
L 358.535982 74.123411 
L 358.634562 74.165022 
L 358.834857 74.639384 
L 359.140001 76.254449 
L 359.754568 81.455715 
L 360.478544 87.225869 
L 360.793379 88.422464 
L 360.903712 88.541899 
L 361.024188 88.474607 
L 361.266684 87.703348 
L 361.652337 84.978233 
L 362.435105 78.483948 
L 362.7051 77.363966 
L 362.976414 77.058892 
L 363.112731 77.21317 
L 363.385365 78.152127 
L 363.764255 80.920704 
L 364.991031 92.760552 
L 365.163677 93.07028 
L 365.254282 93.04131 
L 365.44125 92.607484 
L 365.726858 91.136779 
L 366.922544 83.356664 
L 367.074811 83.434565 
L 367.238791 83.968476 
L 367.489961 85.630976 
L 367.961266 90.903358 
L 369.068132 104.915046 
L 369.382109 106.44402 
L 369.591428 106.695053 
L 369.800746 106.481744 
L 370.219793 105.344964 
L 370.535 104.716018 
L 370.645966 104.723577 
L 370.871243 105.294249 
L 371.097555 106.716798 
L 371.437926 110.428753 
L 372.015968 120.190231 
L 372.83527 134.706163 
L 373.186399 138.259942 
L 373.537528 139.76018 
L 373.777116 139.839097 
L 374.267297 139.306102 
L 374.389942 139.352538 
L 374.635231 139.933389 
L 374.880521 141.299295 
L 375.252671 145.18978 
L 375.777212 154.434068 
L 376.894708 175.37493 
L 377.319553 179.543945 
L 377.658353 181.015223 
L 377.962865 181.495675 
L 378.398499 182.094047 
L 378.666142 182.927474 
L 378.941391 184.4624 
L 379.308389 187.943572 
L 379.950637 197.040933 
L 380.60438 205.550716 
L 381.005804 208.430335 
L 381.246658 209.06759 
L 381.407227 209.04233 
L 381.567797 208.684474 
L 381.888936 207.150698 
L 382.513204 202.49138 
L 383.039126 199.276173 
L 383.293177 198.829292 
L 383.475373 199.069229 
L 383.750184 200.208272 
L 384.941034 206.566599 
L 385.399054 207.586627 
L 385.682877 207.799402 
L 385.873992 207.591972 
L 386.065107 206.971583 
L 386.35178 205.210964 
L 387.116241 199.875068 
L 387.309872 199.598572 
L 387.413626 199.694277 
L 387.633648 200.358031 
L 388.352675 204.110172 
L 389.235802 209.32245 
L 389.615668 211.335182 
L 389.868912 211.837517 
L 389.995534 211.72006 
L 390.248778 210.763746 
L 391.261754 205.09891 
L 391.64162 204.543153 
L 392.021486 204.468981 
L 392.284607 204.64955 
L 392.726402 205.488563 
L 393.193176 206.275871 
L 393.35482 206.22605 
L 393.516464 205.890281 
L 393.84443 204.151557 
L 394.343397 199.066719 
L 395.422166 183.790399 
L 395.997562 176.814676 
L 396.572957 172.780861 
L 397.611522 166.134363 
L 398.085425 161.844553 
L 398.784599 152.25144 
L 399.503895 143.895627 
L 400.03816 140.220561 
L 400.30069 139.394115 
L 400.491906 139.32004 
L 400.689074 139.637077 
L 401.195891 140.740694 
L 401.398617 140.69904 
L 401.601344 140.159263 
L 401.912362 138.28294 
L 402.369731 133.639907 
L 402.828715 126.694235 
L 403.735436 111.874178 
L 404.300182 106.789801 
L 404.690881 104.764664 
L 405.382518 102.55476 
L 405.734595 99.27429 
L 406.326984 91.279028 
L 407.589711 71.083634 
L 408.08892 67.460724 
L 408.273937 67.084916 
L 408.366445 67.140996 
L 408.556679 67.652624 
L 409.055497 69.328737 
L 409.264069 69.545328 
L 409.480043 69.505552 
L 409.698575 69.196094 
L 409.941415 68.303986 
L 410.269863 65.606505 
L 410.811591 57.83845 
L 411.389295 50.608915 
L 411.991875 45.937357 
L 412.513673 43.445538 
L 413.538628 39.158138 
L 413.909562 35.293159 
L 415.731576 12.854644 
L 415.935282 12.236581 
L 416.037135 12.211671 
L 416.241794 12.62251 
L 416.554563 14.078432 
L 416.999168 17.388919 
L 418.042782 26.322254 
L 418.274697 26.80623 
L 418.390654 26.728308 
L 418.630482 26.08345 
L 419.432504 23.381499 
L 419.566774 23.424213 
L 419.729567 23.799372 
L 420.100126 25.502726 
L 420.571104 28.397837 
L 420.910919 31.927723 
L 422.148381 47.288054 
L 422.361999 47.950741 
L 422.361999 47.950741 
" clip-path="url(#pe3c166ebb7)" style="fill: none; stroke: #e36f47"/>
   </g>
   <g id="patch_3">
    <path d="M 42.933593 258.225354 
L 42.933593 2.834646 
" style="fill: none; stroke: #000000; stroke-linejoin: miter; stroke-linecap: square"/>
   </g>
   <g id="patch_4">
    <path d="M 42.933593 258.225354 
L 422.361999 258.225354 
" style="fill: none; stroke: #000000; stroke-linejoin: miter; stroke-linecap: square"/>
   </g>
   <g id="line2d_12">
    <path d="M 42.933593 106.006461 
L 43.77545 106.116985 
L 44.711246 106.445861 
L 45.977523 107.303159 
L 47.33482 108.583147 
L 48.262877 109.783077 
L 50.253437 113.031947 
L 52.00396 116.207598 
L 53.312807 119.130749 
L 55.652289 124.887779 
L 59.321566 134.058416 
L 66.914053 150.207238 
L 68.100955 151.893443 
L 69.239855 153.190999 
L 70.032584 153.841556 
L 70.889906 154.242785 
L 71.876136 154.426123 
L 72.941376 154.441329 
L 73.711937 154.253664 
L 74.352138 153.869864 
L 75.100192 153.167002 
L 76.168698 151.788683 
L 77.533941 149.684208 
L 78.93623 147.107092 
L 80.759475 143.762839 
L 84.907295 136.780835 
L 86.749537 133.352581 
L 92.93549 120.528582 
L 97.768106 109.72686 
L 98.96236 107.96748 
L 100.336837 106.385358 
L 101.409715 105.476598 
L 102.697103 104.695143 
L 104.459279 103.83732 
L 105.465099 103.620869 
L 106.277755 103.72261 
L 107.141422 104.092049 
L 107.994821 104.679058 
L 108.886504 105.542698 
L 109.852248 106.827168 
L 110.926967 108.662773 
L 112.255054 111.377973 
L 113.26037 113.826918 
L 114.384106 117.156262 
L 115.851009 122.406827 
L 117.722407 130.094278 
L 120.793442 143.028337 
L 122.549948 149.309431 
L 124.15097 154.265221 
L 125.379801 157.445618 
L 126.629984 160.128216 
L 127.821429 162.135368 
L 128.738849 163.238206 
L 129.534052 163.88467 
L 130.385922 164.334859 
L 131.52269 164.695684 
L 132.623791 164.854758 
L 133.789935 164.78529 
L 134.725562 164.504318 
L 135.681414 163.912464 
L 136.325423 163.253377 
L 136.892318 162.442421 
L 137.777678 160.665993 
L 138.575511 158.510066 
L 139.744046 154.494252 
L 141.118442 148.730707 
L 142.980292 139.817811 
L 148.419297 113.341819 
L 150.145074 106.218758 
L 151.336096 102.139831 
L 152.594552 98.661949 
L 153.949525 95.663012 
L 155.616529 92.547365 
L 156.917129 90.479063 
L 157.998301 89.084398 
L 159.04735 88.100829 
L 159.769069 87.68149 
L 160.629663 87.474075 
L 161.399739 87.526072 
L 162.616945 87.897821 
L 164.158111 88.630082 
L 165.17885 89.338709 
L 165.965229 90.12359 
L 166.771062 91.254155 
L 167.550489 92.769533 
L 168.305688 94.727415 
L 169.192139 97.714199 
L 170.262439 102.277449 
L 171.598123 109.072413 
L 174.173093 123.671228 
L 177.236338 142.028697 
L 181.844405 170.549528 
L 183.473643 178.67597 
L 185.34216 186.818164 
L 187.391743 194.816858 
L 188.550739 198.577153 
L 189.383563 200.679221 
L 190.141516 202.02894 
L 190.679458 202.619105 
L 191.239785 202.897951 
L 191.788997 202.853032 
L 192.29653 202.563746 
L 193.056432 201.788088 
L 194.212154 200.16487 
L 195.778747 197.592862 
L 196.852615 195.407926 
L 197.829919 192.837258 
L 198.76578 189.673871 
L 199.668591 185.809535 
L 200.673692 180.381319 
L 201.96706 171.752071 
L 204.607169 153.378776 
L 206.331011 143.341177 
L 208.564903 130.483445 
L 209.72526 122.25176 
L 213.814416 91.303354 
L 215.432108 81.508136 
L 220.148202 55.550675 
L 220.949968 52.668052 
L 221.737901 50.610472 
L 222.399037 49.4776 
L 222.914117 49.022118 
L 223.373645 48.969011 
L 223.801944 49.225854 
L 224.34229 49.925706 
L 225.216793 51.598027 
L 226.239192 53.478925 
L 226.867856 54.227959 
L 227.487657 54.589835 
L 227.960336 54.616668 
L 228.415507 54.433543 
L 228.978374 53.902154 
L 229.586776 52.931806 
L 230.403581 51.104136 
L 231.519849 48.634922 
L 231.984009 48.074062 
L 232.375589 47.956935 
L 232.620482 48.067563 
L 233.013985 48.545293 
L 233.479864 49.562565 
L 234.034589 51.341162 
L 234.735222 54.380943 
L 235.502385 58.771659 
L 236.393753 65.363708 
L 240.624399 100.999143 
L 242.074716 115.172448 
L 244.417948 140.273859 
L 245.969382 156.707873 
L 246.898494 164.345099 
L 247.947253 171.143712 
L 254.462571 209.574567 
L 255.072535 211.61244 
L 255.765143 213.064256 
L 257.54848 216.079087 
L 258.763363 219.022722 
L 260.148913 222.811575 
L 261.084021 226.141007 
L 262.238931 230.344197 
L 262.676224 231.282567 
L 263.002504 231.543645 
L 263.312266 231.388545 
L 263.579001 230.926354 
L 263.968346 229.723217 
L 264.491946 227.268214 
L 265.536841 220.913911 
L 266.92916 212.834808 
L 269.550478 198.252387 
L 271.518749 186.17615 
L 272.488474 178.320874 
L 275.824342 148.327044 
L 276.908835 141.38583 
L 277.828013 136.957369 
L 278.855614 133.309973 
L 279.760796 130.021647 
L 280.478559 126.594338 
L 281.520628 120.295952 
L 283.176236 110.191588 
L 284.115562 105.785503 
L 284.80923 103.544315 
L 285.3561 102.579228 
L 285.692951 102.390083 
L 285.987521 102.49128 
L 286.294802 102.860374 
L 286.763116 103.902646 
L 287.425848 106.137282 
L 288.832082 111.255597 
L 289.346633 112.3342 
L 289.767304 112.681216 
L 290.026815 112.634956 
L 290.374656 112.252623 
L 290.758914 111.401809 
L 291.299344 109.446975 
L 291.883376 106.348674 
L 292.654502 100.766479 
L 293.843224 89.864221 
L 294.843783 81.392812 
L 295.384853 78.407331 
L 295.77801 77.270206 
L 296.021719 77.04702 
L 296.288346 77.23374 
L 296.570745 77.915373 
L 297.007171 79.903999 
L 297.503717 83.427276 
L 298.170433 89.863971 
L 300.876666 118.34982 
L 301.608796 122.717623 
L 302.252857 125.246395 
L 302.959243 127.042618 
L 303.932648 129.273099 
L 304.470969 131.294514 
L 304.93603 133.896218 
L 305.551998 138.729267 
L 306.312927 146.717204 
L 308.919965 176.782752 
L 309.515066 180.393299 
L 310.011084 182.220528 
L 310.419346 183.084012 
L 310.745665 183.424014 
L 311.052612 183.486015 
L 311.343584 183.337827 
L 311.909397 182.685803 
L 312.370507 182.281993 
L 312.600768 182.349113 
L 312.815559 182.682888 
L 313.136351 183.815456 
L 313.456418 185.837275 
L 313.866458 189.799075 
L 314.477222 198.085908 
L 316.471915 227.147365 
L 317.478362 237.532512 
L 318.409855 245.047948 
L 319.020925 248.335993 
L 319.381281 249.19353 
L 319.564575 249.234651 
L 319.779035 248.911501 
L 320.095005 247.686068 
L 320.501762 244.87009 
L 321.150912 238.380849 
L 322.212132 227.953238 
L 322.753839 224.82178 
L 323.123053 223.739507 
L 323.419436 223.397011 
L 323.64229 223.378825 
L 323.984615 223.628168 
L 324.615577 224.522689 
L 325.591547 225.850584 
L 326.271552 226.697001 
L 326.626152 227.532559 
L 327.04099 229.176639 
L 327.677089 232.932444 
L 328.411438 236.98358 
L 328.723315 237.816034 
L 328.957375 237.925587 
L 329.169773 237.605595 
L 329.458154 236.516566 
L 329.79994 234.288996 
L 330.289637 229.62703 
L 331.191223 218.494064 
L 332.822699 198.335547 
L 335.450439 169.742403 
L 336.072278 165.730514 
L 338.526803 152.134437 
L 340.789004 136.816141 
L 341.603184 128.006247 
L 342.601806 117.484423 
L 343.220083 113.309199 
L 343.903104 110.23414 
L 344.805594 106.202166 
L 345.618914 101.095895 
L 346.5493 95.377948 
L 347.140924 92.978847 
L 348.233313 89.048957 
L 348.724319 85.918102 
L 349.254311 80.904203 
L 350.41942 69.246181 
L 350.832074 67.031822 
L 351.13107 66.322985 
L 351.328018 66.23436 
L 351.534595 66.405524 
L 351.924801 67.172485 
L 352.410707 68.084612 
L 352.698201 68.216443 
L 352.944408 68.012467 
L 353.30393 67.277064 
L 354.211407 65.174098 
L 354.381824 65.13074 
L 354.547236 65.292866 
L 354.764218 65.84876 
L 355.111947 67.576354 
L 355.607377 71.484268 
L 356.665421 80.294736 
L 356.991677 81.464925 
L 357.166457 81.573329 
L 357.29812 81.409072 
L 357.560978 80.510827 
L 358.075271 77.484561 
L 358.575012 75.118575 
L 358.794455 74.769274 
L 358.944016 74.816795 
L 359.127715 75.181169 
L 359.429229 76.428252 
L 359.858158 79.266668 
L 360.982357 87.29574 
L 361.241862 87.807855 
L 361.351592 87.769895 
L 361.535588 87.37554 
L 361.820251 86.071986 
L 362.893852 80.099053 
L 363.160004 79.799809 
L 363.332648 79.969545 
L 363.595906 80.7742 
L 363.962586 82.95412 
L 364.523137 88.040372 
L 365.120128 92.823898 
L 365.368993 93.653465 
L 365.503127 93.737046 
L 365.628041 93.593884 
L 365.885279 92.712747 
L 366.346537 89.884467 
L 366.965862 86.240536 
L 367.258486 85.633167 
L 367.414482 85.777804 
L 367.634713 86.606144 
L 367.939385 88.938303 
L 368.462177 95.255249 
L 369.319093 105.390323 
L 369.685726 107.58981 
L 369.982583 108.221499 
L 370.155624 108.230775 
L 370.766927 107.943659 
L 370.992427 108.390755 
L 371.267164 109.751479 
L 371.621472 113.100043 
L 372.130326 120.802929 
L 373.226479 138.458002 
L 373.623398 141.778531 
L 373.941317 142.799001 
L 374.17458 142.936372 
L 374.629931 143.008934 
L 374.860644 143.448395 
L 375.148986 144.781409 
L 375.436539 147.292259 
L 375.836564 152.942207 
L 377.531774 180.768079 
L 377.883126 182.833927 
L 378.221429 183.719209 
L 378.779484 184.862916 
L 379.131533 186.353167 
L 379.472293 188.754168 
L 379.955924 193.872953 
L 381.132309 207.306334 
L 381.465373 208.76716 
L 381.636484 208.957141 
L 381.797078 208.815379 
L 382.030034 208.121344 
L 382.389854 206.118861 
L 383.733593 197.465606 
L 383.886942 197.544451 
L 384.108074 198.199167 
L 384.531327 200.525779 
L 385.105219 203.37358 
L 385.534873 204.434885 
L 385.98517 204.983272 
L 386.200923 204.964356 
L 386.414209 204.597506 
L 386.684179 203.508059 
L 387.693484 198.344166 
L 387.849076 198.397966 
L 388.029016 198.824942 
L 388.357357 200.311158 
L 389.192559 205.473509 
L 390.242261 211.928802 
L 390.448923 212.149397 
L 390.593287 211.948973 
L 390.836185 211.033036 
L 391.991318 205.46247 
L 392.333495 205.010916 
L 392.765086 204.816451 
L 393.519453 204.555767 
L 393.763555 204.136743 
L 394.066223 203.002706 
L 394.425669 200.438835 
L 394.919574 194.72034 
L 396.910232 168.686383 
L 397.82571 162.464382 
L 398.541431 157.040803 
L 399.12341 150.235237 
L 399.913482 141.180467 
L 400.413551 137.676339 
L 400.792684 136.231584 
L 401.060259 135.921766 
L 401.303729 136.013238 
L 401.638801 136.117842 
L 401.824832 135.850178 
L 402.033761 135.08449 
L 402.374239 132.705827 
L 402.79436 128.124266 
L 403.406026 118.731264 
L 404.256202 105.671969 
L 404.810415 100.65692 
L 405.299107 98.068111 
L 405.831687 95.506268 
L 406.205035 92.229851 
L 406.836313 84.467654 
L 408.044538 68.84973 
L 408.433493 66.784549 
L 408.712735 66.271079 
L 408.869889 66.349216 
L 409.106102 66.865209 
L 409.681908 68.270052 
L 409.827725 68.259511 
L 410.023026 67.89182 
L 410.286037 66.746192 
L 410.67039 63.757524 
L 411.158664 57.737098 
L 412.252643 43.252006 
L 412.809325 39.273021 
L 414.438954 29.200335 
L 415.0504 21.54514 
L 415.716474 13.978503 
L 416.185 10.812176 
L 416.457865 10.081223 
L 416.560664 10.084936 
L 416.707252 10.381 
L 416.947055 11.58252 
L 417.358809 15.122598 
L 418.383556 24.146045 
L 418.773644 26.09317 
L 419.055888 26.575521 
L 419.189079 26.515738 
L 419.397795 26.142464 
L 419.935495 25.117136 
L 420.07934 25.205666 
L 420.290729 25.7999 
L 420.595189 27.578803 
L 421.310389 33.675699 
L 421.884931 40.098541 
L 422.361999 45.88832 
L 422.361999 45.88832 
" clip-path="url(#pe3c166ebb7)" style="fill: none; stroke: #3ea44e"/>
   </g>
   <g id="legend_1">
    <g id="patch_5">
     <path d="M 332.945749 50.862146 
L 418.361999 50.862146 
L 418.361999 6.834646 
L 332.945749 6.834646 
z
" style="fill: #ffffff; stroke: #000000; stroke-linejoin: miter"/>
    </g>
    <g id="line2d_13">
     <path d="M 339.345749 16.513396 
L 347.345749 16.513396 
L 355.345749 16.513396 
" style="fill: none; stroke: #009afa; stroke-linejoin: miter"/>
    </g>
    <g id="text_12">
     <!-- GXBeam -->
     <g transform="translate(361.745749 19.313396) scale(0.08 -0.08)">
      <defs>
       <path id="DejaVuSans-47" d="M 3809 666 
L 3809 1919 
L 2778 1919 
L 2778 2438 
L 4434 2438 
L 4434 434 
Q 4069 175 3628 42 
Q 3188 -91 2688 -91 
Q 1594 -91 976 548 
Q 359 1188 359 2328 
Q 359 3472 976 4111 
Q 1594 4750 2688 4750 
Q 3144 4750 3555 4637 
Q 3966 4525 4313 4306 
L 4313 3634 
Q 3963 3931 3569 4081 
Q 3175 4231 2741 4231 
Q 1884 4231 1454 3753 
Q 1025 3275 1025 2328 
Q 1025 1384 1454 906 
Q 1884 428 2741 428 
Q 3075 428 3337 486 
Q 3600 544 3809 666 
z
" transform="scale(0.015625)"/>
       <path id="DejaVuSans-58" d="M 403 4666 
L 1081 4666 
L 2241 2931 
L 3406 4666 
L 4084 4666 
L 2584 2425 
L 4184 0 
L 3506 0 
L 2194 1984 
L 872 0 
L 191 0 
L 1856 2491 
L 403 4666 
z
" transform="scale(0.015625)"/>
       <path id="DejaVuSans-42" d="M 1259 2228 
L 1259 519 
L 2272 519 
Q 2781 519 3026 730 
Q 3272 941 3272 1375 
Q 3272 1813 3026 2020 
Q 2781 2228 2272 2228 
L 1259 2228 
z
M 1259 4147 
L 1259 2741 
L 2194 2741 
Q 2656 2741 2882 2914 
Q 3109 3088 3109 3444 
Q 3109 3797 2882 3972 
Q 2656 4147 2194 4147 
L 1259 4147 
z
M 628 4666 
L 2241 4666 
Q 2963 4666 3353 4366 
Q 3744 4066 3744 3513 
Q 3744 3084 3544 2831 
Q 3344 2578 2956 2516 
Q 3422 2416 3680 2098 
Q 3938 1781 3938 1306 
Q 3938 681 3513 340 
Q 3088 0 2303 0 
L 628 0 
L 628 4666 
z
" transform="scale(0.015625)"/>
      </defs>
      <use xlink:href="#DejaVuSans-47"/>
      <use xlink:href="#DejaVuSans-58" x="77.490234"/>
      <use xlink:href="#DejaVuSans-42" x="145.996094"/>
      <use xlink:href="#DejaVuSans-65" x="214.599609"/>
      <use xlink:href="#DejaVuSans-61" x="276.123047"/>
      <use xlink:href="#DejaVuSans-6d" x="337.402344"/>
     </g>
    </g>
    <g id="line2d_14">
     <path d="M 339.345749 28.255896 
L 347.345749 28.255896 
L 355.345749 28.255896 
" style="fill: none; stroke: #e36f47; stroke-linejoin: miter"/>
    </g>
    <g id="text_13">
     <!-- ODEProblem -->
     <g transform="translate(361.745749 31.055896) scale(0.08 -0.08)">
      <defs>
       <path id="DejaVuSans-4f" d="M 2522 4238 
Q 1834 4238 1429 3725 
Q 1025 3213 1025 2328 
Q 1025 1447 1429 934 
Q 1834 422 2522 422 
Q 3209 422 3611 934 
Q 4013 1447 4013 2328 
Q 4013 3213 3611 3725 
Q 3209 4238 2522 4238 
z
M 2522 4750 
Q 3503 4750 4090 4092 
Q 4678 3434 4678 2328 
Q 4678 1225 4090 567 
Q 3503 -91 2522 -91 
Q 1538 -91 948 565 
Q 359 1222 359 2328 
Q 359 3434 948 4092 
Q 1538 4750 2522 4750 
z
" transform="scale(0.015625)"/>
       <path id="DejaVuSans-44" d="M 1259 4147 
L 1259 519 
L 2022 519 
Q 2988 519 3436 956 
Q 3884 1394 3884 2338 
Q 3884 3275 3436 3711 
Q 2988 4147 2022 4147 
L 1259 4147 
z
M 628 4666 
L 1925 4666 
Q 3281 4666 3915 4102 
Q 4550 3538 4550 2338 
Q 4550 1131 3912 565 
Q 3275 0 1925 0 
L 628 0 
L 628 4666 
z
" transform="scale(0.015625)"/>
       <path id="DejaVuSans-45" d="M 628 4666 
L 3578 4666 
L 3578 4134 
L 1259 4134 
L 1259 2753 
L 3481 2753 
L 3481 2222 
L 1259 2222 
L 1259 531 
L 3634 531 
L 3634 0 
L 628 0 
L 628 4666 
z
" transform="scale(0.015625)"/>
       <path id="DejaVuSans-62" d="M 3116 1747 
Q 3116 2381 2855 2742 
Q 2594 3103 2138 3103 
Q 1681 3103 1420 2742 
Q 1159 2381 1159 1747 
Q 1159 1113 1420 752 
Q 1681 391 2138 391 
Q 2594 391 2855 752 
Q 3116 1113 3116 1747 
z
M 1159 2969 
Q 1341 3281 1617 3432 
Q 1894 3584 2278 3584 
Q 2916 3584 3314 3078 
Q 3713 2572 3713 1747 
Q 3713 922 3314 415 
Q 2916 -91 2278 -91 
Q 1894 -91 1617 61 
Q 1341 213 1159 525 
L 1159 0 
L 581 0 
L 581 4863 
L 1159 4863 
L 1159 2969 
z
" transform="scale(0.015625)"/>
       <path id="DejaVuSans-6c" d="M 603 4863 
L 1178 4863 
L 1178 0 
L 603 0 
L 603 4863 
z
" transform="scale(0.015625)"/>
      </defs>
      <use xlink:href="#DejaVuSans-4f"/>
      <use xlink:href="#DejaVuSans-44" x="78.710938"/>
      <use xlink:href="#DejaVuSans-45" x="155.712891"/>
      <use xlink:href="#DejaVuSans-50" x="218.896484"/>
      <use xlink:href="#DejaVuSans-72" x="277.449219"/>
      <use xlink:href="#DejaVuSans-6f" x="316.3125"/>
      <use xlink:href="#DejaVuSans-62" x="377.494141"/>
      <use xlink:href="#DejaVuSans-6c" x="440.970703"/>
      <use xlink:href="#DejaVuSans-65" x="468.753906"/>
      <use xlink:href="#DejaVuSans-6d" x="530.277344"/>
     </g>
    </g>
    <g id="line2d_15">
     <path d="M 339.345749 39.998396 
L 347.345749 39.998396 
L 355.345749 39.998396 
" style="fill: none; stroke: #3ea44e; stroke-linejoin: miter"/>
    </g>
    <g id="text_14">
     <!-- DAEProblem -->
     <g transform="translate(361.745749 42.798396) scale(0.08 -0.08)">
      <defs>
       <path id="DejaVuSans-41" d="M 2188 4044 
L 1331 1722 
L 3047 1722 
L 2188 4044 
z
M 1831 4666 
L 2547 4666 
L 4325 0 
L 3669 0 
L 3244 1197 
L 1141 1197 
L 716 0 
L 50 0 
L 1831 4666 
z
" transform="scale(0.015625)"/>
      </defs>
      <use xlink:href="#DejaVuSans-44"/>
      <use xlink:href="#DejaVuSans-41" x="75.251953"/>
      <use xlink:href="#DejaVuSans-45" x="143.660156"/>
      <use xlink:href="#DejaVuSans-50" x="206.84375"/>
      <use xlink:href="#DejaVuSans-72" x="265.396484"/>
      <use xlink:href="#DejaVuSans-6f" x="304.259766"/>
      <use xlink:href="#DejaVuSans-62" x="365.441406"/>
      <use xlink:href="#DejaVuSans-6c" x="428.917969"/>
      <use xlink:href="#DejaVuSans-65" x="456.701172"/>
      <use xlink:href="#DejaVuSans-6d" x="518.224609"/>
     </g>
    </g>
   </g>
  </g>
 </g>
 <defs>
  <clipPath id="pe3c166ebb7">
   <rect x="42.933593" y="2.834646" width="379.428407" height="255.390709"/>
  </clipPath>
 </defs>
</svg>
