<?xml version="1.0" encoding="utf-8" standalone="no"?>
<!DOCTYPE svg PUBLIC "-//W3C//DTD SVG 1.1//EN"
  "http://www.w3.org/Graphics/SVG/1.1/DTD/svg11.dtd">
<svg xmlns:xlink="http://www.w3.org/1999/xlink" width="432pt" height="288pt" viewBox="0 0 432 288" xmlns="http://www.w3.org/2000/svg" version="1.1">
 <metadata>
  <rdf:RDF xmlns:dc="http://purl.org/dc/elements/1.1/" xmlns:cc="http://creativecommons.org/ns#" xmlns:rdf="http://www.w3.org/1999/02/22-rdf-syntax-ns#">
   <cc:Work>
    <dc:type rdf:resource="http://purl.org/dc/dcmitype/StillImage"/>
    <dc:date>2023-04-05T00:58:24.339498</dc:date>
    <dc:format>image/svg+xml</dc:format>
    <dc:creator>
     <cc:Agent>
      <dc:title>Matplotlib v3.7.1, https://matplotlib.org/</dc:title>
     </cc:Agent>
    </dc:creator>
   </cc:Work>
  </rdf:RDF>
 </metadata>
 <defs>
  <style type="text/css">*{stroke-linejoin: round; stroke-linecap: butt}</style>
 </defs>
 <g id="figure_1">
  <g id="patch_1">
   <path d="M 0 288 
L 432 288 
L 432 0 
L 0 0 
z
" style="fill: #ffffff"/>
  </g>
  <g id="axes_1">
   <g id="patch_2">
    <path d="M 66.051544 258.225354 
L 422.361999 258.225354 
L 422.361999 2.834646 
L 66.051544 2.834646 
z
" style="fill: #ffffff"/>
   </g>
   <g id="line2d_1">
    <path d="M 66.051544 122.905569 
L 68.011251 122.873574 
L 68.367562 122.766073 
L 68.723872 123.001338 
L 69.080183 122.993005 
L 69.436493 122.848257 
L 69.614648 123.006642 
L 70.149114 122.908271 
L 70.327269 122.663936 
L 70.505424 122.650071 
L 71.03989 122.990989 
L 71.218045 123.004611 
L 71.574356 122.878166 
L 72.286977 123.001297 
L 72.643287 122.821128 
L 73.177753 123.014502 
L 73.355908 123.121344 
L 74.602995 122.93032 
L 74.959305 122.939817 
L 75.315616 122.859541 
L 75.850081 123.124416 
L 76.028237 123.120303 
L 76.384547 122.832827 
L 76.740857 122.833892 
L 77.097168 123.013796 
L 77.453478 122.736557 
L 77.809789 122.664775 
L 78.166099 122.925469 
L 78.52241 122.766632 
L 78.87872 122.687372 
L 79.235031 123.034297 
L 80.125807 122.870854 
L 80.838428 122.848514 
L 81.016583 122.761643 
L 81.194738 122.857121 
L 81.551049 122.795739 
L 81.729204 122.953557 
L 82.085514 122.808371 
L 82.263669 122.778385 
L 82.441825 122.572075 
L 82.97629 122.83982 
L 83.154446 122.975131 
L 83.332601 122.966061 
L 83.510756 122.787951 
L 84.045222 122.787983 
L 84.223377 122.835428 
L 84.401532 122.739128 
L 84.757843 122.441443 
L 85.114153 122.545595 
L 85.470464 122.831594 
L 86.183084 122.791564 
L 87.073861 123.025066 
L 87.430171 122.96017 
L 88.142792 123.036088 
L 88.677258 122.683947 
L 88.855413 122.625102 
L 89.211723 122.818262 
L 89.924344 122.443175 
L 90.280655 122.656837 
L 90.81512 122.645053 
L 90.993276 122.602622 
L 91.705897 122.840624 
L 92.596673 122.782128 
L 93.309294 123.568345 
L 93.665604 123.649534 
L 95.269001 125.148645 
L 95.625312 125.554794 
L 95.981622 125.725078 
L 96.159777 125.707965 
L 97.763174 127.213522 
L 98.119485 127.685556 
L 99.010261 128.150806 
L 99.366571 128.413877 
L 99.722882 128.36662 
L 100.079192 128.397175 
L 100.435503 128.497565 
L 100.613658 128.47691 
L 101.148124 128.139565 
L 101.682589 127.987374 
L 102.39521 126.998776 
L 102.751521 126.686668 
L 103.464142 125.382734 
L 103.998607 124.19972 
L 105.78016 119.824763 
L 106.49278 117.881026 
L 108.986954 112.078308 
L 109.521419 111.161245 
L 110.055885 110.362307 
L 111.124816 108.867179 
L 112.550058 107.460312 
L 113.440834 107.164974 
L 114.153455 107.332752 
L 114.509766 107.435893 
L 115.044231 108.062972 
L 116.647628 110.400851 
L 117.538405 112.781667 
L 118.963646 117.475696 
L 121.992285 131.760763 
L 123.417527 138.708747 
L 124.486458 142.921092 
L 125.377235 145.552189 
L 125.9117 146.510026 
L 126.980632 146.922767 
L 128.049563 145.826397 
L 128.762184 144.189426 
L 129.118494 143.260852 
L 130.187426 139.38784 
L 132.325288 130.635103 
L 133.037909 128.010002 
L 133.39422 126.782454 
L 134.641306 123.64729 
L 134.997617 123.402545 
L 135.532083 122.85055 
L 135.888393 122.807059 
L 136.244703 122.786033 
L 137.669945 122.317983 
L 138.560721 121.812429 
L 138.917032 121.680955 
L 139.629653 121.1869 
L 139.985963 120.773138 
L 140.342274 120.073175 
L 140.876739 118.911421 
L 141.767516 117.1245 
L 143.192757 113.613447 
L 144.439844 111.116103 
L 144.97431 110.082884 
L 145.33062 109.783519 
L 146.043241 109.258041 
L 146.399551 109.652233 
L 146.934017 110.364678 
L 147.646638 112.389906 
L 148.002949 113.76488 
L 150.140811 122.621116 
L 151.566053 127.035794 
L 152.100519 127.914939 
L 152.278674 128.021231 
L 152.991295 127.731063 
L 153.347605 127.740377 
L 153.882071 127.280926 
L 154.416537 126.386753 
L 155.307313 125.166598 
L 155.663623 124.497882 
L 156.019934 123.859859 
L 156.554399 122.766156 
L 157.26702 121.299619 
L 157.623331 120.804722 
L 157.979641 120.131699 
L 158.157797 119.811717 
L 158.870417 119.46931 
L 159.226728 118.956761 
L 159.939349 118.611888 
L 160.295659 118.109309 
L 160.830125 117.858037 
L 161.186435 117.615712 
L 161.720901 117.058501 
L 162.077212 116.54081 
L 162.967988 114.508489 
L 163.502453 113.006211 
L 164.393229 109.462701 
L 167.421868 97.18587 
L 167.956334 96.138539 
L 168.312644 95.224463 
L 168.668955 95.047477 
L 168.84711 95.031466 
L 169.203421 94.714298 
L 169.381576 94.856784 
L 170.272352 96.439072 
L 170.628662 98.019529 
L 171.519439 102.923225 
L 173.479146 119.376758 
L 174.369922 127.22869 
L 175.082543 132.547174 
L 175.795164 136.795084 
L 176.68594 140.285277 
L 178.467492 145.969942 
L 179.001958 147.436913 
L 180.249045 152.376288 
L 181.852442 159.095898 
L 182.565063 161.201846 
L 183.455839 162.33927 
L 183.633994 162.399897 
L 183.812149 162.309025 
L 184.16846 161.946212 
L 184.346615 161.872625 
L 184.52477 161.652531 
L 184.881081 160.612526 
L 185.771857 157.064629 
L 186.840788 149.422646 
L 188.26603 137.617501 
L 190.225737 123.861141 
L 191.472824 118.436752 
L 192.185445 117.129314 
L 192.898066 117.682874 
L 193.076221 117.663703 
L 193.254376 117.897859 
L 193.788842 119.030208 
L 194.323308 119.650542 
L 194.679618 120.353797 
L 194.857773 120.615164 
L 195.214084 120.598015 
L 195.570394 121.003331 
L 195.74855 121.029793 
L 195.926705 120.834503 
L 196.817481 117.851237 
L 197.530102 112.615329 
L 198.064568 107.468308 
L 198.955344 98.322742 
L 199.489809 93.504595 
L 200.380585 87.939401 
L 200.736896 86.832114 
L 201.093206 86.182337 
L 201.271362 86.187456 
L 201.627672 87.129781 
L 201.983983 88.90519 
L 202.340293 91.693855 
L 202.874759 97.750974 
L 203.409224 106.259073 
L 204.121845 120.389869 
L 205.368932 147.61968 
L 205.903398 156.400154 
L 206.437863 162.976386 
L 206.794174 164.623614 
L 207.150484 165.439406 
L 207.328639 165.450565 
L 207.506795 164.873894 
L 208.04126 160.25901 
L 208.575726 153.94977 
L 210.357278 127.210329 
L 210.891744 121.993329 
L 211.248054 119.854178 
L 211.604365 118.797516 
L 211.960675 118.499531 
L 212.316986 118.383017 
L 212.673296 118.445242 
L 212.851451 118.426192 
L 213.029607 118.265402 
L 213.385917 117.798664 
L 213.742228 117.372315 
L 213.920383 117.051688 
L 214.633004 114.739861 
L 214.989314 113.739608 
L 215.52378 111.918381 
L 216.058246 110.401586 
L 217.127177 105.721082 
L 218.196108 99.083013 
L 219.086884 92.084716 
L 220.155816 80.927883 
L 220.868437 72.975526 
L 221.581058 67.736188 
L 221.759213 67.012015 
L 221.937368 66.773197 
L 222.115523 67.014892 
L 222.471834 68.071336 
L 222.828144 70.322946 
L 223.36261 77.209598 
L 224.075231 88.668727 
L 224.966007 103.410034 
L 225.678628 113.038963 
L 226.213093 117.968045 
L 226.569404 119.947646 
L 226.925714 120.619616 
L 227.10387 120.537634 
L 227.282025 120.2778 
L 227.638335 118.995394 
L 227.994646 116.59297 
L 229.241732 106.02128 
L 229.598043 104.97913 
L 229.954353 104.868554 
L 230.132509 104.927992 
L 230.310664 105.613767 
L 231.20144 113.415322 
L 232.270371 128.1897 
L 234.230079 159.351969 
L 235.120855 171.577228 
L 236.546097 188.620691 
L 237.615028 197.176474 
L 238.149494 198.233797 
L 238.327649 197.844415 
L 238.683959 194.602834 
L 239.218425 187.7173 
L 239.752891 175.640393 
L 240.643667 151.656081 
L 241.534443 129.685516 
L 242.068909 122.15955 
L 242.425219 119.701594 
L 242.603374 119.549947 
L 242.78153 119.961545 
L 243.315995 122.712335 
L 243.850461 129.3373 
L 245.275703 145.594901 
L 245.810169 148.337348 
L 245.988324 148.093153 
L 246.344634 145.809701 
L 246.700945 142.840947 
L 247.057255 138.108233 
L 248.838807 108.824316 
L 249.195118 105.601444 
L 249.373273 104.980963 
L 249.551428 104.99307 
L 249.729584 105.721224 
L 250.085894 109.582319 
L 250.62036 120.835045 
L 252.223757 158.994807 
L 252.580067 163.55793 
L 253.470843 168.950633 
L 254.539775 172.736064 
L 254.71793 172.51881 
L 255.252396 169.757653 
L 255.608706 165.621438 
L 256.499482 147.982085 
L 257.924724 113.197904 
L 258.993655 78.454937 
L 260.240742 36.597374 
L 261.131518 16.188873 
L 261.487829 12.500801 
L 261.844139 10.687382 
L 262.022294 10.99389 
L 262.378605 14.470296 
L 262.91307 23.790222 
L 263.447536 38.895109 
L 264.338312 70.926514 
L 265.229088 102.320474 
L 265.763554 113.75324 
L 266.119865 116.910127 
L 266.29802 117.01482 
L 266.476175 116.272141 
L 266.832485 112.726142 
L 267.188796 106.258669 
L 268.435882 79.836956 
L 268.792193 75.90244 
L 269.148503 74.293245 
L 269.504814 74.182797 
L 269.682969 74.586559 
L 270.03928 76.560998 
L 270.573745 81.472808 
L 270.930056 87.206213 
L 271.464521 101.207681 
L 271.998987 120.31395 
L 274.315005 216.864462 
L 274.849471 228.616204 
L 275.205781 233.168645 
L 275.383936 233.855853 
L 275.562092 233.428101 
L 275.918402 230.625946 
L 276.274712 225.155523 
L 276.809178 210.866108 
L 277.521799 182.839848 
L 278.947041 124.526029 
L 279.659662 105.651109 
L 280.550438 88.862415 
L 281.441214 79.062498 
L 281.97568 74.930654 
L 283.400922 59.755608 
L 283.579077 58.873546 
L 283.757232 58.7985 
L 283.935387 59.381157 
L 284.113543 60.431709 
L 284.469853 65.136027 
L 285.004319 77.936052 
L 286.964026 127.960656 
L 287.676647 139.000062 
L 288.032958 143.139411 
L 288.389268 144.996168 
L 288.567423 145.138896 
L 288.745578 144.727495 
L 288.923734 143.709764 
L 289.280044 139.492291 
L 289.81451 128.873545 
L 292.308683 72.447719 
L 293.199459 57.492946 
L 293.91208 51.057066 
L 294.090235 50.517393 
L 294.26839 51.08715 
L 294.624701 54.527325 
L 294.981011 60.07291 
L 295.337322 70.198759 
L 296.049943 98.757095 
L 297.831495 181.433216 
L 298.365961 194.550113 
L 298.722271 197.691771 
L 298.900426 197.744571 
L 299.078582 197.02409 
L 299.434892 193.619057 
L 300.147513 179.891949 
L 301.75091 146.345255 
L 302.285376 140.529205 
L 302.641686 138.967392 
L 302.819841 139.649688 
L 303.176152 143.503883 
L 303.532462 150.164958 
L 304.066928 166.004044 
L 304.957704 190.505351 
L 305.314015 193.93668 
L 305.49217 193.769656 
L 305.84848 190.016266 
L 306.204791 182.410095 
L 307.095567 153.92049 
L 307.630033 139.912639 
L 307.986343 135.83466 
L 308.164498 135.37566 
L 308.342653 135.920414 
L 308.698964 139.508284 
L 309.946051 157.948276 
L 310.124206 158.696867 
L 310.302361 158.394226 
L 310.480516 157.254622 
L 310.836827 152.220605 
L 311.193137 142.888588 
L 312.618379 92.762906 
L 313.68731 55.473875 
L 314.043621 50.04223 
L 314.221776 49.859711 
L 314.399931 51.403038 
L 314.578086 55.552491 
L 314.934397 71.988136 
L 315.468863 113.201496 
L 316.715949 228.541054 
L 317.07226 239.022968 
L 317.250415 238.113871 
L 317.606725 226.217955 
L 318.141191 192.247754 
L 319.031967 132.343631 
L 319.566433 107.57242 
L 320.279054 88.561396 
L 320.991675 73.494028 
L 321.704296 61.815069 
L 321.882451 60.995637 
L 322.060606 60.906932 
L 322.416916 62.225104 
L 322.773227 65.838153 
L 323.307693 71.746448 
L 323.664003 73.396207 
L 324.732934 81.995271 
L 325.2674 88.445533 
L 325.980021 93.911449 
L 326.514487 100.330712 
L 326.870797 109.183089 
L 327.583418 138.336946 
L 328.296039 167.377129 
L 328.652349 172.190999 
L 328.830505 172.659509 
L 329.00866 172.035989 
L 329.36497 168.442879 
L 329.721281 164.673895 
L 330.433902 160.373887 
L 330.790212 155.754611 
L 331.324678 143.465004 
L 333.462541 75.11397 
L 333.640696 73.832886 
L 333.818851 75.096048 
L 333.997006 79.199005 
L 334.353317 94.739712 
L 335.244093 139.912993 
L 335.600403 148.870117 
L 336.669335 169.416263 
L 337.2038 180.079987 
L 337.738266 187.87319 
L 338.094577 190.000291 
L 338.272732 189.848316 
L 338.450887 188.917867 
L 338.629042 186.793776 
L 338.985353 175.921624 
L 339.519818 145.438616 
L 340.410594 92.520337 
L 341.123215 65.302296 
L 341.301371 62.074378 
L 341.479526 61.257939 
L 341.657681 62.822264 
L 341.835836 66.548548 
L 342.192147 81.504856 
L 343.082923 128.396658 
L 343.439233 136.904796 
L 343.795544 142.113605 
L 344.330009 145.911137 
L 344.508165 145.99918 
L 344.68632 144.867091 
L 344.864475 141.69779 
L 345.398941 121.855095 
L 345.755251 109.103865 
L 346.111562 102.794221 
L 346.289717 102.499434 
L 346.467872 102.900412 
L 346.646027 102.810475 
L 346.824183 101.441334 
L 347.180493 92.457216 
L 347.893114 69.267186 
L 348.071269 67.720559 
L 348.249424 69.325376 
L 348.605735 81.371635 
L 349.140201 114.749923 
L 350.209132 183.275992 
L 350.565442 196.195742 
L 350.743598 199.094341 
L 350.921753 199.953888 
L 351.099908 198.462757 
L 351.456219 187.961084 
L 352.88146 110.488423 
L 353.950392 52.480078 
L 354.128547 48.783134 
L 354.306702 47.570779 
L 354.484857 48.005442 
L 355.019323 51.247649 
L 355.197478 51.304605 
L 355.375634 50.588816 
L 355.910099 46.113752 
L 356.088255 46.623761 
L 356.26641 48.959705 
L 356.800875 64.056532 
L 357.335341 79.601813 
L 357.691652 84.517268 
L 357.869807 84.183932 
L 358.582428 78.287678 
L 358.760583 79.487539 
L 359.295049 87.480271 
L 359.829514 94.974274 
L 360.185825 98.765019 
L 360.36398 102.099882 
L 360.72029 115.569922 
L 361.789222 172.753258 
L 361.967377 175.999918 
L 362.145532 176.717525 
L 362.501843 174.503742 
L 362.679998 174.288865 
L 362.858153 174.670908 
L 363.214464 176.31142 
L 363.392619 175.491136 
L 363.570774 172.468767 
L 363.748929 166.214217 
L 364.10524 141.520978 
L 364.996016 63.913051 
L 365.352326 53.000623 
L 365.530482 52.313449 
L 365.708637 53.813571 
L 366.777568 75.296596 
L 367.133879 88.289212 
L 367.668344 122.261363 
L 368.380965 168.540282 
L 369.449897 226.834387 
L 369.806207 244.183896 
L 370.162518 250.997315 
L 370.340673 250.034644 
L 370.696983 240.744134 
L 371.231449 223.049934 
L 371.587759 213.194985 
L 371.94407 195.880501 
L 372.478535 151.241517 
L 373.013001 101.379291 
L 373.369312 85.294183 
L 373.547467 83.610879 
L 373.903777 83.352286 
L 374.081933 81.671879 
L 374.438243 70.012388 
L 375.150864 35.642082 
L 375.329019 32.859348 
L 375.507174 33.716608 
L 375.863485 42.487881 
L 376.39795 54.989482 
L 376.754261 57.739971 
L 376.932416 59.086638 
L 377.110571 61.819219 
L 377.466882 73.24616 
L 378.001348 92.837304 
L 378.179503 96.021678 
L 378.357658 96.939549 
L 378.535813 96.042755 
L 379.070279 89.681306 
L 379.248434 90.790271 
L 379.426589 95.198263 
L 379.7829 113.11451 
L 380.495521 153.19597 
L 380.851831 162.993624 
L 381.208142 166.344489 
L 381.386297 166.136337 
L 381.564452 164.658562 
L 381.920763 158.000107 
L 382.455228 147.102647 
L 382.811539 142.914059 
L 382.989694 142.916633 
L 383.167849 144.986071 
L 383.52416 157.382389 
L 384.058625 177.530286 
L 384.23678 179.340776 
L 384.414936 177.513533 
L 384.593091 171.727128 
L 385.483867 126.887795 
L 385.662022 124.956582 
L 385.840178 125.091543 
L 386.374643 128.817552 
L 386.552798 126.694167 
L 387.265419 108.204619 
L 387.443575 109.680677 
L 387.97804 124.603054 
L 388.334351 133.319318 
L 388.512506 133.804475 
L 388.690661 130.485249 
L 389.046972 121.317673 
L 389.225127 120.072391 
L 389.403282 122.189184 
L 389.759593 134.113647 
L 390.650369 175.881466 
L 390.828524 177.728102 
L 391.006679 177.268375 
L 391.36299 170.225913 
L 393.322697 111.962631 
L 393.857163 94.217052 
L 394.391628 86.895436 
L 395.104249 78.641988 
L 395.638715 65.866519 
L 395.81687 63.761375 
L 396.173181 65.118914 
L 396.351336 64.580744 
L 396.707646 65.019315 
L 396.885802 66.550362 
L 397.242112 72.760753 
L 397.420267 77.858536 
L 397.776578 98.068543 
L 398.311043 132.817721 
L 398.489199 137.023406 
L 398.667354 137.300142 
L 398.845509 133.835589 
L 399.20182 119.772723 
L 399.736285 98.752067 
L 399.914441 97.427009 
L 400.092596 99.147586 
L 400.805217 117.830754 
L 400.983372 117.840577 
L 401.161527 116.154837 
L 401.517838 111.322807 
L 401.695993 112.44091 
L 401.874148 115.137982 
L 402.408614 127.004621 
L 402.586769 127.610408 
L 402.764924 126.16066 
L 402.943079 123.639032 
L 403.29939 123.29301 
L 403.477545 122.228188 
L 403.6557 120.457309 
L 404.012011 113.91494 
L 404.190166 114.613793 
L 404.902787 125.858823 
L 405.080942 123.173864 
L 405.437253 111.196216 
L 405.793563 97.092635 
L 405.971718 93.789714 
L 406.149874 94.833747 
L 406.506184 100.908501 
L 406.684339 101.846245 
L 407.04065 99.50949 
L 407.218805 99.499905 
L 407.39696 98.425553 
L 407.575115 95.853805 
L 407.931426 88.829822 
L 408.109581 91.135386 
L 408.465891 111.072382 
L 409.534823 182.939549 
L 409.891133 192.627938 
L 410.781909 205.39311 
L 410.960065 205.203424 
L 411.13822 202.976543 
L 411.316375 195.991231 
L 411.850841 158.527313 
L 412.028996 154.492726 
L 412.385306 159.950759 
L 412.919772 176.129611 
L 413.097927 184.945536 
L 413.276083 187.951759 
L 413.454238 182.790993 
L 413.810548 149.505966 
L 414.345014 106.926955 
L 415.23579 55.196578 
L 415.413945 53.586742 
L 415.592101 57.520419 
L 416.482877 100.15978 
L 417.373653 165.874227 
L 417.551808 170.053344 
L 417.729963 164.426632 
L 418.264429 134.615093 
L 418.442584 137.178264 
L 418.798895 146.948345 
L 418.97705 145.703381 
L 419.33336 140.353337 
L 419.511516 140.57561 
L 419.689671 138.874925 
L 420.402292 110.687847 
L 420.758602 113.272352 
L 420.936757 111.639257 
L 421.649378 94.870771 
L 422.005689 85.439102 
L 422.361999 70.770385 
L 422.361999 70.770385 
" clip-path="url(#p11982d98f7)" style="fill: none; stroke: #009afa"/>
   </g>
   <g id="matplotlib.axis_1">
    <g id="xtick_1">
     <g id="line2d_2">
      <defs>
       <path id="mb42f78825f" d="M 0 0 
L 0 -2.5 
" style="stroke: #000000; stroke-width: 0.5"/>
      </defs>
      <g>
       <use xlink:href="#mb42f78825f" x="66.051544" y="258.225354" style="stroke: #000000; stroke-width: 0.5"/>
      </g>
     </g>
     <g id="text_1">
      <!-- $0.0$ -->
      <g transform="translate(59.651544 267.804104) scale(0.08 -0.08)">
       <defs>
        <path id="DejaVuSans-30" d="M 2034 4250 
Q 1547 4250 1301 3770 
Q 1056 3291 1056 2328 
Q 1056 1369 1301 889 
Q 1547 409 2034 409 
Q 2525 409 2770 889 
Q 3016 1369 3016 2328 
Q 3016 3291 2770 3770 
Q 2525 4250 2034 4250 
z
M 2034 4750 
Q 2819 4750 3233 4129 
Q 3647 3509 3647 2328 
Q 3647 1150 3233 529 
Q 2819 -91 2034 -91 
Q 1250 -91 836 529 
Q 422 1150 422 2328 
Q 422 3509 836 4129 
Q 1250 4750 2034 4750 
z
" transform="scale(0.015625)"/>
        <path id="DejaVuSans-2e" d="M 684 794 
L 1344 794 
L 1344 0 
L 684 0 
L 684 794 
z
" transform="scale(0.015625)"/>
       </defs>
       <use xlink:href="#DejaVuSans-30" transform="translate(0 0.78125)"/>
       <use xlink:href="#DejaVuSans-2e" transform="translate(63.623047 0.78125)"/>
       <use xlink:href="#DejaVuSans-30" transform="translate(95.410156 0.78125)"/>
      </g>
     </g>
    </g>
    <g id="xtick_2">
     <g id="line2d_3">
      <g>
       <use xlink:href="#mb42f78825f" x="155.129158" y="258.225354" style="stroke: #000000; stroke-width: 0.5"/>
      </g>
     </g>
     <g id="text_2">
      <!-- $0.5$ -->
      <g transform="translate(148.729158 267.804104) scale(0.08 -0.08)">
       <defs>
        <path id="DejaVuSans-35" d="M 691 4666 
L 3169 4666 
L 3169 4134 
L 1269 4134 
L 1269 2991 
Q 1406 3038 1543 3061 
Q 1681 3084 1819 3084 
Q 2600 3084 3056 2656 
Q 3513 2228 3513 1497 
Q 3513 744 3044 326 
Q 2575 -91 1722 -91 
Q 1428 -91 1123 -41 
Q 819 9 494 109 
L 494 744 
Q 775 591 1075 516 
Q 1375 441 1709 441 
Q 2250 441 2565 725 
Q 2881 1009 2881 1497 
Q 2881 1984 2565 2268 
Q 2250 2553 1709 2553 
Q 1456 2553 1204 2497 
Q 953 2441 691 2322 
L 691 4666 
z
" transform="scale(0.015625)"/>
       </defs>
       <use xlink:href="#DejaVuSans-30" transform="translate(0 0.78125)"/>
       <use xlink:href="#DejaVuSans-2e" transform="translate(63.623047 0.78125)"/>
       <use xlink:href="#DejaVuSans-35" transform="translate(95.410156 0.78125)"/>
      </g>
     </g>
    </g>
    <g id="xtick_3">
     <g id="line2d_4">
      <g>
       <use xlink:href="#mb42f78825f" x="244.206771" y="258.225354" style="stroke: #000000; stroke-width: 0.5"/>
      </g>
     </g>
     <g id="text_3">
      <!-- $1.0$ -->
      <g transform="translate(237.806771 267.804104) scale(0.08 -0.08)">
       <defs>
        <path id="DejaVuSans-31" d="M 794 531 
L 1825 531 
L 1825 4091 
L 703 3866 
L 703 4441 
L 1819 4666 
L 2450 4666 
L 2450 531 
L 3481 531 
L 3481 0 
L 794 0 
L 794 531 
z
" transform="scale(0.015625)"/>
       </defs>
       <use xlink:href="#DejaVuSans-31" transform="translate(0 0.78125)"/>
       <use xlink:href="#DejaVuSans-2e" transform="translate(63.623047 0.78125)"/>
       <use xlink:href="#DejaVuSans-30" transform="translate(95.410156 0.78125)"/>
      </g>
     </g>
    </g>
    <g id="xtick_4">
     <g id="line2d_5">
      <g>
       <use xlink:href="#mb42f78825f" x="333.284385" y="258.225354" style="stroke: #000000; stroke-width: 0.5"/>
      </g>
     </g>
     <g id="text_4">
      <!-- $1.5$ -->
      <g transform="translate(326.884385 267.804104) scale(0.08 -0.08)">
       <use xlink:href="#DejaVuSans-31" transform="translate(0 0.09375)"/>
       <use xlink:href="#DejaVuSans-2e" transform="translate(63.623047 0.09375)"/>
       <use xlink:href="#DejaVuSans-35" transform="translate(95.410156 0.09375)"/>
      </g>
     </g>
    </g>
    <g id="xtick_5">
     <g id="line2d_6">
      <g>
       <use xlink:href="#mb42f78825f" x="422.361999" y="258.225354" style="stroke: #000000; stroke-width: 0.5"/>
      </g>
     </g>
     <g id="text_5">
      <!-- $2.0$ -->
      <g transform="translate(415.961999 267.804104) scale(0.08 -0.08)">
       <defs>
        <path id="DejaVuSans-32" d="M 1228 531 
L 3431 531 
L 3431 0 
L 469 0 
L 469 531 
Q 828 903 1448 1529 
Q 2069 2156 2228 2338 
Q 2531 2678 2651 2914 
Q 2772 3150 2772 3378 
Q 2772 3750 2511 3984 
Q 2250 4219 1831 4219 
Q 1534 4219 1204 4116 
Q 875 4013 500 3803 
L 500 4441 
Q 881 4594 1212 4672 
Q 1544 4750 1819 4750 
Q 2544 4750 2975 4387 
Q 3406 4025 3406 3419 
Q 3406 3131 3298 2873 
Q 3191 2616 2906 2266 
Q 2828 2175 2409 1742 
Q 1991 1309 1228 531 
z
" transform="scale(0.015625)"/>
       </defs>
       <use xlink:href="#DejaVuSans-32" transform="translate(0 0.78125)"/>
       <use xlink:href="#DejaVuSans-2e" transform="translate(63.623047 0.78125)"/>
       <use xlink:href="#DejaVuSans-30" transform="translate(95.410156 0.78125)"/>
      </g>
     </g>
    </g>
    <g id="text_6">
     <!-- Time (s) -->
     <g transform="translate(221.844975 281.826136) scale(0.11 -0.11)">
      <defs>
       <path id="DejaVuSans-54" d="M -19 4666 
L 3928 4666 
L 3928 4134 
L 2272 4134 
L 2272 0 
L 1638 0 
L 1638 4134 
L -19 4134 
L -19 4666 
z
" transform="scale(0.015625)"/>
       <path id="DejaVuSans-69" d="M 603 3500 
L 1178 3500 
L 1178 0 
L 603 0 
L 603 3500 
z
M 603 4863 
L 1178 4863 
L 1178 4134 
L 603 4134 
L 603 4863 
z
" transform="scale(0.015625)"/>
       <path id="DejaVuSans-6d" d="M 3328 2828 
Q 3544 3216 3844 3400 
Q 4144 3584 4550 3584 
Q 5097 3584 5394 3201 
Q 5691 2819 5691 2113 
L 5691 0 
L 5113 0 
L 5113 2094 
Q 5113 2597 4934 2840 
Q 4756 3084 4391 3084 
Q 3944 3084 3684 2787 
Q 3425 2491 3425 1978 
L 3425 0 
L 2847 0 
L 2847 2094 
Q 2847 2600 2669 2842 
Q 2491 3084 2119 3084 
Q 1678 3084 1418 2786 
Q 1159 2488 1159 1978 
L 1159 0 
L 581 0 
L 581 3500 
L 1159 3500 
L 1159 2956 
Q 1356 3278 1631 3431 
Q 1906 3584 2284 3584 
Q 2666 3584 2933 3390 
Q 3200 3197 3328 2828 
z
" transform="scale(0.015625)"/>
       <path id="DejaVuSans-65" d="M 3597 1894 
L 3597 1613 
L 953 1613 
Q 991 1019 1311 708 
Q 1631 397 2203 397 
Q 2534 397 2845 478 
Q 3156 559 3463 722 
L 3463 178 
Q 3153 47 2828 -22 
Q 2503 -91 2169 -91 
Q 1331 -91 842 396 
Q 353 884 353 1716 
Q 353 2575 817 3079 
Q 1281 3584 2069 3584 
Q 2775 3584 3186 3129 
Q 3597 2675 3597 1894 
z
M 3022 2063 
Q 3016 2534 2758 2815 
Q 2500 3097 2075 3097 
Q 1594 3097 1305 2825 
Q 1016 2553 972 2059 
L 3022 2063 
z
" transform="scale(0.015625)"/>
       <path id="DejaVuSans-20" transform="scale(0.015625)"/>
       <path id="DejaVuSans-28" d="M 1984 4856 
Q 1566 4138 1362 3434 
Q 1159 2731 1159 2009 
Q 1159 1288 1364 580 
Q 1569 -128 1984 -844 
L 1484 -844 
Q 1016 -109 783 600 
Q 550 1309 550 2009 
Q 550 2706 781 3412 
Q 1013 4119 1484 4856 
L 1984 4856 
z
" transform="scale(0.015625)"/>
       <path id="DejaVuSans-73" d="M 2834 3397 
L 2834 2853 
Q 2591 2978 2328 3040 
Q 2066 3103 1784 3103 
Q 1356 3103 1142 2972 
Q 928 2841 928 2578 
Q 928 2378 1081 2264 
Q 1234 2150 1697 2047 
L 1894 2003 
Q 2506 1872 2764 1633 
Q 3022 1394 3022 966 
Q 3022 478 2636 193 
Q 2250 -91 1575 -91 
Q 1294 -91 989 -36 
Q 684 19 347 128 
L 347 722 
Q 666 556 975 473 
Q 1284 391 1588 391 
Q 1994 391 2212 530 
Q 2431 669 2431 922 
Q 2431 1156 2273 1281 
Q 2116 1406 1581 1522 
L 1381 1569 
Q 847 1681 609 1914 
Q 372 2147 372 2553 
Q 372 3047 722 3315 
Q 1072 3584 1716 3584 
Q 2034 3584 2315 3537 
Q 2597 3491 2834 3397 
z
" transform="scale(0.015625)"/>
       <path id="DejaVuSans-29" d="M 513 4856 
L 1013 4856 
Q 1481 4119 1714 3412 
Q 1947 2706 1947 2009 
Q 1947 1309 1714 600 
Q 1481 -109 1013 -844 
L 513 -844 
Q 928 -128 1133 580 
Q 1338 1288 1338 2009 
Q 1338 2731 1133 3434 
Q 928 4138 513 4856 
z
" transform="scale(0.015625)"/>
      </defs>
      <use xlink:href="#DejaVuSans-54"/>
      <use xlink:href="#DejaVuSans-69" x="57.958984"/>
      <use xlink:href="#DejaVuSans-6d" x="85.742188"/>
      <use xlink:href="#DejaVuSans-65" x="183.154297"/>
      <use xlink:href="#DejaVuSans-20" x="244.677734"/>
      <use xlink:href="#DejaVuSans-28" x="276.464844"/>
      <use xlink:href="#DejaVuSans-73" x="315.478516"/>
      <use xlink:href="#DejaVuSans-29" x="367.578125"/>
     </g>
    </g>
   </g>
   <g id="matplotlib.axis_2">
    <g id="ytick_1">
     <g id="line2d_7">
      <defs>
       <path id="md53beba872" d="M 0 0 
L 2.5 0 
" style="stroke: #000000; stroke-width: 0.5"/>
      </defs>
      <g>
       <use xlink:href="#md53beba872" x="66.051544" y="216.740505" style="stroke: #000000; stroke-width: 0.5"/>
      </g>
     </g>
     <g id="text_7">
      <!-- $-6.0×10^{5}$ -->
      <g transform="translate(22.311544 219.77988) scale(0.08 -0.08)">
       <defs>
        <path id="DejaVuSans-2212" d="M 678 2272 
L 4684 2272 
L 4684 1741 
L 678 1741 
L 678 2272 
z
" transform="scale(0.015625)"/>
        <path id="DejaVuSans-36" d="M 2113 2584 
Q 1688 2584 1439 2293 
Q 1191 2003 1191 1497 
Q 1191 994 1439 701 
Q 1688 409 2113 409 
Q 2538 409 2786 701 
Q 3034 994 3034 1497 
Q 3034 2003 2786 2293 
Q 2538 2584 2113 2584 
z
M 3366 4563 
L 3366 3988 
Q 3128 4100 2886 4159 
Q 2644 4219 2406 4219 
Q 1781 4219 1451 3797 
Q 1122 3375 1075 2522 
Q 1259 2794 1537 2939 
Q 1816 3084 2150 3084 
Q 2853 3084 3261 2657 
Q 3669 2231 3669 1497 
Q 3669 778 3244 343 
Q 2819 -91 2113 -91 
Q 1303 -91 875 529 
Q 447 1150 447 2328 
Q 447 3434 972 4092 
Q 1497 4750 2381 4750 
Q 2619 4750 2861 4703 
Q 3103 4656 3366 4563 
z
" transform="scale(0.015625)"/>
        <path id="DejaVuSans-d7" d="M 4488 3438 
L 3059 2003 
L 4488 575 
L 4116 197 
L 2681 1631 
L 1247 197 
L 878 575 
L 2303 2003 
L 878 3438 
L 1247 3816 
L 2681 2381 
L 4116 3816 
L 4488 3438 
z
" transform="scale(0.015625)"/>
       </defs>
       <use xlink:href="#DejaVuSans-2212" transform="translate(0 0.684375)"/>
       <use xlink:href="#DejaVuSans-36" transform="translate(83.789062 0.684375)"/>
       <use xlink:href="#DejaVuSans-2e" transform="translate(147.412109 0.684375)"/>
       <use xlink:href="#DejaVuSans-30" transform="translate(179.199219 0.684375)"/>
       <use xlink:href="#DejaVuSans-d7" transform="translate(242.822266 0.684375)"/>
       <use xlink:href="#DejaVuSans-31" transform="translate(326.611328 0.684375)"/>
       <use xlink:href="#DejaVuSans-30" transform="translate(390.234375 0.684375)"/>
       <use xlink:href="#DejaVuSans-35" transform="translate(454.814453 38.965625) scale(0.7)"/>
      </g>
     </g>
    </g>
    <g id="ytick_2">
     <g id="line2d_8">
      <g>
       <use xlink:href="#md53beba872" x="66.051544" y="169.823037" style="stroke: #000000; stroke-width: 0.5"/>
      </g>
     </g>
     <g id="text_8">
      <!-- $-3.0×10^{5}$ -->
      <g transform="translate(22.311544 172.862412) scale(0.08 -0.08)">
       <defs>
        <path id="DejaVuSans-33" d="M 2597 2516 
Q 3050 2419 3304 2112 
Q 3559 1806 3559 1356 
Q 3559 666 3084 287 
Q 2609 -91 1734 -91 
Q 1441 -91 1130 -33 
Q 819 25 488 141 
L 488 750 
Q 750 597 1062 519 
Q 1375 441 1716 441 
Q 2309 441 2620 675 
Q 2931 909 2931 1356 
Q 2931 1769 2642 2001 
Q 2353 2234 1838 2234 
L 1294 2234 
L 1294 2753 
L 1863 2753 
Q 2328 2753 2575 2939 
Q 2822 3125 2822 3475 
Q 2822 3834 2567 4026 
Q 2313 4219 1838 4219 
Q 1578 4219 1281 4162 
Q 984 4106 628 3988 
L 628 4550 
Q 988 4650 1302 4700 
Q 1616 4750 1894 4750 
Q 2613 4750 3031 4423 
Q 3450 4097 3450 3541 
Q 3450 3153 3228 2886 
Q 3006 2619 2597 2516 
z
" transform="scale(0.015625)"/>
       </defs>
       <use xlink:href="#DejaVuSans-2212" transform="translate(0 0.684375)"/>
       <use xlink:href="#DejaVuSans-33" transform="translate(83.789062 0.684375)"/>
       <use xlink:href="#DejaVuSans-2e" transform="translate(147.412109 0.684375)"/>
       <use xlink:href="#DejaVuSans-30" transform="translate(179.199219 0.684375)"/>
       <use xlink:href="#DejaVuSans-d7" transform="translate(242.822266 0.684375)"/>
       <use xlink:href="#DejaVuSans-31" transform="translate(326.611328 0.684375)"/>
       <use xlink:href="#DejaVuSans-30" transform="translate(390.234375 0.684375)"/>
       <use xlink:href="#DejaVuSans-35" transform="translate(454.814453 38.965625) scale(0.7)"/>
      </g>
     </g>
    </g>
    <g id="ytick_3">
     <g id="line2d_9">
      <g>
       <use xlink:href="#md53beba872" x="66.051544" y="122.905569" style="stroke: #000000; stroke-width: 0.5"/>
      </g>
     </g>
     <g id="text_9">
      <!-- $0$ -->
      <g transform="translate(57.431544 125.944944) scale(0.08 -0.08)">
       <use xlink:href="#DejaVuSans-30" transform="translate(0 0.78125)"/>
      </g>
     </g>
    </g>
    <g id="ytick_4">
     <g id="line2d_10">
      <g>
       <use xlink:href="#md53beba872" x="66.051544" y="75.988101" style="stroke: #000000; stroke-width: 0.5"/>
      </g>
     </g>
     <g id="text_10">
      <!-- $3.0×10^{5}$ -->
      <g transform="translate(29.031544 79.027476) scale(0.08 -0.08)">
       <use xlink:href="#DejaVuSans-33" transform="translate(0 0.684375)"/>
       <use xlink:href="#DejaVuSans-2e" transform="translate(63.623047 0.684375)"/>
       <use xlink:href="#DejaVuSans-30" transform="translate(95.410156 0.684375)"/>
       <use xlink:href="#DejaVuSans-d7" transform="translate(159.033203 0.684375)"/>
       <use xlink:href="#DejaVuSans-31" transform="translate(242.822266 0.684375)"/>
       <use xlink:href="#DejaVuSans-30" transform="translate(306.445312 0.684375)"/>
       <use xlink:href="#DejaVuSans-35" transform="translate(371.025391 38.965625) scale(0.7)"/>
      </g>
     </g>
    </g>
    <g id="ytick_5">
     <g id="line2d_11">
      <g>
       <use xlink:href="#md53beba872" x="66.051544" y="29.070633" style="stroke: #000000; stroke-width: 0.5"/>
      </g>
     </g>
     <g id="text_11">
      <!-- $6.0×10^{5}$ -->
      <g transform="translate(29.031544 32.110008) scale(0.08 -0.08)">
       <use xlink:href="#DejaVuSans-36" transform="translate(0 0.684375)"/>
       <use xlink:href="#DejaVuSans-2e" transform="translate(63.623047 0.684375)"/>
       <use xlink:href="#DejaVuSans-30" transform="translate(95.410156 0.684375)"/>
       <use xlink:href="#DejaVuSans-d7" transform="translate(159.033203 0.684375)"/>
       <use xlink:href="#DejaVuSans-31" transform="translate(242.822266 0.684375)"/>
       <use xlink:href="#DejaVuSans-30" transform="translate(306.445312 0.684375)"/>
       <use xlink:href="#DejaVuSans-35" transform="translate(371.025391 38.965625) scale(0.7)"/>
      </g>
     </g>
    </g>
    <g id="text_12">
     <!-- $F_y$ ($N$) -->
     <g transform="translate(14.901544 146.315) rotate(-90) scale(0.11 -0.11)">
      <defs>
       <path id="DejaVuSans-Oblique-46" d="M 1081 4666 
L 3756 4666 
L 3653 4134 
L 1606 4134 
L 1338 2759 
L 3188 2759 
L 3084 2228 
L 1234 2228 
L 800 0 
L 172 0 
L 1081 4666 
z
" transform="scale(0.015625)"/>
       <path id="DejaVuSans-Oblique-79" d="M 1588 -325 
Q 1188 -997 936 -1164 
Q 684 -1331 294 -1331 
L -159 -1331 
L -63 -850 
L 269 -850 
Q 509 -850 678 -719 
Q 847 -588 1056 -206 
L 1234 128 
L 459 3500 
L 1069 3500 
L 1650 819 
L 3256 3500 
L 3859 3500 
L 1588 -325 
z
" transform="scale(0.015625)"/>
       <path id="DejaVuSans-Oblique-4e" d="M 1081 4666 
L 1931 4666 
L 3219 666 
L 4000 4666 
L 4616 4666 
L 3706 0 
L 2853 0 
L 1569 4025 
L 788 0 
L 172 0 
L 1081 4666 
z
" transform="scale(0.015625)"/>
      </defs>
      <use xlink:href="#DejaVuSans-Oblique-46" transform="translate(0 0.125)"/>
      <use xlink:href="#DejaVuSans-Oblique-79" transform="translate(57.519531 -16.28125) scale(0.7)"/>
      <use xlink:href="#DejaVuSans-20" transform="translate(101.679688 0.125)"/>
      <use xlink:href="#DejaVuSans-28" transform="translate(133.466797 0.125)"/>
      <use xlink:href="#DejaVuSans-Oblique-4e" transform="translate(172.480469 0.125)"/>
      <use xlink:href="#DejaVuSans-29" transform="translate(247.285156 0.125)"/>
     </g>
    </g>
   </g>
   <g id="line2d_12">
    <path d="M 66.051544 122.905569 
L 67.436383 122.999291 
L 67.579282 123.036261 
L 68.01568 122.726247 
L 68.429605 122.954411 
L 68.587512 123.006874 
L 68.798055 122.980511 
L 69.226482 122.89053 
L 69.337584 122.995804 
L 69.448685 123.102126 
L 69.504235 123.061943 
L 69.849434 122.855837 
L 70.216343 122.685241 
L 70.732571 122.904442 
L 70.894838 122.84661 
L 71.790077 122.981116 
L 72.31283 122.845899 
L 72.508863 122.826319 
L 72.704896 122.897281 
L 72.835584 123.003675 
L 72.966273 123.051042 
L 73.096961 123.044242 
L 73.230077 123.073997 
L 73.433394 122.999941 
L 74.250041 122.949918 
L 74.506784 122.79269 
L 74.638965 122.744207 
L 75.101598 123.13189 
L 75.630322 122.874589 
L 76.027488 123.08632 
L 76.425279 122.927424 
L 76.624174 122.816397 
L 77.554343 122.776765 
L 77.889467 122.677605 
L 78.844986 122.856836 
L 79.127143 122.861762 
L 79.482025 123.064543 
L 80.262766 122.769471 
L 80.760182 122.991274 
L 81.283518 122.767895 
L 81.545637 122.876923 
L 81.752789 122.86572 
L 82.083503 122.636793 
L 82.286125 122.651926 
L 83.297451 122.929896 
L 83.533708 122.801635 
L 83.936079 122.736875 
L 84.343128 122.610513 
L 84.587357 122.504944 
L 84.738144 122.482737 
L 85.109089 122.833767 
L 85.344232 122.775625 
L 85.500994 122.704629 
L 85.662252 122.624483 
L 86.507893 122.925514 
L 86.974847 122.950381 
L 87.34841 123.067917 
L 88.546058 122.861481 
L 88.852149 122.856472 
L 89.42302 122.534915 
L 89.852504 122.728972 
L 90.370467 122.553865 
L 90.905328 122.80409 
L 91.466503 122.620298 
L 91.664545 122.563527 
L 91.970709 122.645738 
L 92.662455 123.046807 
L 92.847023 123.081548 
L 93.731041 123.645149 
L 93.938731 123.723661 
L 94.15767 123.970035 
L 94.596099 124.647592 
L 96.708568 126.229394 
L 97.019975 126.663674 
L 97.337544 126.810652 
L 97.556588 126.924099 
L 98.249523 127.732965 
L 98.599441 127.836568 
L 99.307952 128.348544 
L 99.708437 128.303598 
L 100.081538 128.434318 
L 100.28371 128.512175 
L 100.595179 128.457821 
L 101.746157 127.810178 
L 102.276428 127.309657 
L 102.488537 127.242357 
L 102.826097 126.604184 
L 103.319716 125.535373 
L 103.715284 124.779356 
L 104.404764 123.295804 
L 104.941584 121.941553 
L 106.090933 118.929269 
L 106.595617 117.655874 
L 107.944633 114.318211 
L 108.448138 113.207377 
L 108.952456 112.208564 
L 110.490212 109.761246 
L 111.422821 108.479363 
L 112.304106 107.696275 
L 112.822405 107.317849 
L 113.535313 107.057796 
L 114.847695 107.885676 
L 115.4131 108.301085 
L 116.182634 109.616067 
L 117.182699 111.754416 
L 117.813159 113.630086 
L 119.409979 119.211343 
L 121.400173 128.702809 
L 122.471567 134.279684 
L 124.393091 142.735152 
L 125.217182 145.035282 
L 125.766576 146.291653 
L 126.041273 146.64412 
L 126.590667 146.894719 
L 126.865364 146.873557 
L 127.946705 146.005871 
L 128.488011 145.013754 
L 129.630984 141.365433 
L 130.985124 135.882217 
L 131.761009 132.88213 
L 133.158331 127.396383 
L 134.376849 124.196722 
L 135.189194 123.225015 
L 136.001539 123.015764 
L 136.813883 122.389508 
L 137.220056 122.320967 
L 137.626228 122.160369 
L 138.18028 122.177039 
L 139.647037 121.111815 
L 140.167032 120.343915 
L 140.760082 119.203841 
L 141.521163 117.587739 
L 142.177613 116.058436 
L 144.435437 110.943711 
L 144.825773 110.179443 
L 146.065892 109.300508 
L 146.245005 109.286279 
L 146.433675 109.442291 
L 147.289488 111.424649 
L 148.811873 116.989035 
L 150.787593 125.062011 
L 151.840808 127.397534 
L 152.416107 127.854882 
L 152.70467 127.707168 
L 153.281797 127.819647 
L 153.862327 127.008927 
L 154.152591 126.928023 
L 154.733121 126.249475 
L 155.023386 125.868117 
L 156.677769 122.311068 
L 156.938965 122.071028 
L 157.847348 120.503465 
L 158.75573 119.37618 
L 159.821891 118.482711 
L 160.132249 118.209204 
L 160.604368 118.067927 
L 161.037712 117.664893 
L 161.423925 117.637593 
L 161.664893 117.228264 
L 162.073369 116.504598 
L 162.412785 116.061098 
L 163.334338 113.539784 
L 164.638283 108.347703 
L 167.032535 98.62203 
L 167.711471 96.513408 
L 168.457406 95.112707 
L 168.758579 94.917163 
L 169.212397 94.873166 
L 169.515629 94.883989 
L 169.822104 95.4837 
L 170.454814 97.193585 
L 171.354221 101.783936 
L 172.393791 109.595799 
L 174.634253 129.565819 
L 175.437595 134.72447 
L 175.984946 137.50066 
L 176.82366 140.995322 
L 178.985616 147.293362 
L 179.978047 151.283574 
L 181.364625 157.416591 
L 182.420393 160.692672 
L 183.476161 162.374727 
L 184.180007 162.284592 
L 184.456908 161.941998 
L 185.01071 160.382425 
L 185.534688 157.991436 
L 186.454352 152.234855 
L 187.756681 141.910402 
L 190.00514 124.749729 
L 190.710577 120.99687 
L 191.504415 118.318413 
L 191.802424 117.98341 
L 192.412862 117.668176 
L 193.337346 117.90874 
L 193.724049 118.38657 
L 194.265433 119.383218 
L 194.884242 120.784985 
L 195.506386 121.55399 
L 195.662265 121.498106 
L 195.984774 121.034309 
L 196.310457 120.223364 
L 196.639521 118.615323 
L 197.341991 113.605384 
L 200.233012 88.820131 
L 200.71074 86.815449 
L 201.058761 85.932012 
L 201.210022 85.906661 
L 201.365034 86.116728 
L 201.680473 87.013651 
L 201.996982 88.68421 
L 202.476223 93.119029 
L 202.917556 98.386307 
L 203.685661 111.695416 
L 206.09673 159.230569 
L 206.631119 164.444275 
L 207.008994 165.992417 
L 207.213574 165.966014 
L 207.430478 165.249819 
L 207.893632 162.140684 
L 208.370087 156.32631 
L 209.449404 139.28338 
L 210.26421 127.997924 
L 210.807415 122.964349 
L 211.350619 120.26818 
L 211.893823 118.801789 
L 212.437027 118.224815 
L 213.523436 117.126026 
L 213.795038 116.984735 
L 214.338242 115.801617 
L 214.881446 114.469723 
L 215.514811 112.300135 
L 215.913117 110.864036 
L 217.799998 101.835395 
L 218.590513 96.910807 
L 219.53982 87.64269 
L 221.104786 70.0566 
L 221.553549 67.731906 
L 221.894746 66.863337 
L 222.049665 66.874292 
L 222.211703 67.255601 
L 222.489409 68.665102 
L 222.903243 71.994538 
L 223.383194 77.847375 
L 224.503627 95.77481 
L 225.613618 113.010019 
L 226.129896 118.211828 
L 226.509178 120.38602 
L 226.740258 120.927473 
L 226.898553 120.944392 
L 227.062655 120.721042 
L 227.310252 119.986335 
L 227.646781 118.126382 
L 228.386379 111.952932 
L 229.018725 107.19658 
L 229.393422 105.813432 
L 229.666921 105.389227 
L 229.804914 105.361846 
L 229.943475 105.518118 
L 230.220596 106.462263 
L 230.722491 109.43271 
L 231.206936 114.009478 
L 231.933603 123.16475 
L 233.364166 146.561144 
L 234.440517 162.617337 
L 237.242898 196.589432 
L 237.699092 199.399475 
L 237.929052 199.952439 
L 238.172173 199.529024 
L 238.415295 197.944875 
L 238.91068 192.07491 
L 239.432567 182.013744 
L 240.279993 160.513671 
L 241.158675 137.637898 
L 241.744551 126.295306 
L 242.330426 120.295147 
L 242.623364 119.362906 
L 242.916302 119.96469 
L 243.209239 121.768656 
L 243.795115 128.54099 
L 244.966866 144.734739 
L 245.259804 147.448864 
L 245.552742 148.857109 
L 245.845679 148.874837 
L 246.138617 147.730286 
L 246.431555 145.139177 
L 247.261634 133.385217 
L 248.784698 108.544763 
L 249.198581 105.238303 
L 249.339274 104.815598 
L 249.40962 104.839339 
L 249.479967 104.909301 
L 249.694717 106.005849 
L 249.979544 109.066734 
L 250.346925 115.512068 
L 251.066685 133.858332 
L 251.888361 153.982641 
L 252.398191 161.557158 
L 252.867348 165.502296 
L 253.436527 168.554663 
L 254.132745 171.570818 
L 254.486959 171.997639 
L 254.637063 171.880974 
L 254.789339 171.488698 
L 255.019851 170.253587 
L 255.464455 165.92156 
L 255.969001 158.250338 
L 256.966754 138.094329 
L 257.891717 114.811525 
L 258.833466 83.42836 
L 260.356763 32.098359 
L 260.915677 18.837553 
L 261.428056 11.742897 
L 261.714597 10.170155 
L 261.816183 10.062685 
L 262.035033 10.70958 
L 262.258963 12.454476 
L 262.60199 17.317129 
L 263.074721 28.402573 
L 263.685958 48.27262 
L 265.394537 108.039828 
L 265.810819 115.282685 
L 266.047727 116.940574 
L 266.182777 117.115059 
L 266.317827 116.82343 
L 266.626765 114.134755 
L 267.090171 106.082332 
L 268.360826 80.218845 
L 268.678489 76.665326 
L 269.013692 74.75337 
L 269.361615 73.949278 
L 269.536397 74.155699 
L 269.885961 75.483494 
L 270.235524 77.704917 
L 270.585088 82.08756 
L 271.109433 92.651389 
L 271.696446 111.014757 
L 272.5564 146.372399 
L 273.927367 204.204948 
L 274.610221 223.949034 
L 275.092463 231.377888 
L 275.385018 233.570197 
L 275.534073 233.701762 
L 275.684339 233.138229 
L 275.984871 230.280023 
L 276.285404 225.173931 
L 276.736202 212.77298 
L 277.43433 186.170874 
L 279.049007 120.946885 
L 279.741159 102.149681 
L 280.334655 90.989647 
L 280.942235 83.492621 
L 282.137858 72.081927 
L 283.251381 60.644222 
L 283.503374 59.64825 
L 283.611977 59.619491 
L 283.723638 59.907262 
L 283.955237 61.528065 
L 284.319209 66.22045 
L 284.789221 75.777775 
L 286.98041 126.629761 
L 287.733171 139.974407 
L 288.12499 143.972997 
L 288.34186 144.855858 
L 288.493386 144.877712 
L 288.646924 144.403332 
L 288.877232 142.846597 
L 289.215058 138.651377 
L 289.794908 127.443193 
L 293.388802 53.941049 
L 293.894069 48.908092 
L 294.067558 48.257367 
L 294.241047 48.541645 
L 294.414535 49.641401 
L 294.767199 54.258772 
L 295.12555 63.097736 
L 295.673285 83.577695 
L 296.594686 130.118756 
L 297.468305 171.776682 
L 297.905114 185.521104 
L 298.341924 193.351365 
L 298.63313 195.666617 
L 298.778733 195.744185 
L 299.076037 194.553259 
L 299.379436 192.170579 
L 299.77226 186.067231 
L 300.804884 164.134471 
L 301.897599 142.184682 
L 302.278846 137.853885 
L 302.41996 137.403619 
L 302.492706 137.440203 
L 302.646694 138.089183 
L 302.903185 140.861486 
L 303.189739 146.583498 
L 303.970216 169.194594 
L 304.554517 185.314179 
L 304.91819 191.02378 
L 305.160639 192.83632 
L 305.281863 192.942355 
L 305.403088 192.451148 
L 305.61961 190.210296 
L 305.944393 184.177783 
L 306.546113 167.159545 
L 307.34221 145.219198 
L 307.813086 137.664967 
L 308.033951 136.532199 
L 308.110167 136.512565 
L 308.265807 136.930322 
L 308.514892 138.7035 
L 308.860485 143.430828 
L 309.828946 159.213076 
L 310.009202 159.938379 
L 310.099693 159.896594 
L 310.280769 158.993346 
L 310.552383 155.698424 
L 310.926402 148.028327 
L 311.621092 128.101741 
L 312.492862 97.770116 
L 313.830509 47.788836 
L 314.12466 44.656792 
L 314.22271 44.849771 
L 314.418811 47.574095 
L 314.680189 56.851437 
L 315.018717 78.696302 
L 315.540078 129.196424 
L 316.372189 213.495484 
L 316.778972 234.581817 
L 317.003064 237.602579 
L 317.115135 236.715129 
L 317.373231 229.631783 
L 317.804758 207.192713 
L 319.096424 128.334535 
L 319.960923 96.687029 
L 320.877385 69.765534 
L 321.265017 62.895325 
L 321.600747 60.746218 
L 321.677579 60.646137 
L 321.755672 60.70896 
L 321.911858 61.440539 
L 322.149657 64.096625 
L 323.10592 76.619736 
L 323.397579 78.228647 
L 323.587065 78.350717 
L 323.801289 78.278625 
L 324.058644 78.548698 
L 324.564854 79.542019 
L 324.799665 80.966914 
L 325.527831 86.116595 
L 325.902478 89.228507 
L 326.259985 93.517458 
L 326.548291 99.640826 
L 326.945041 113.834178 
L 328.305503 167.878616 
L 328.514805 169.956472 
L 328.619456 170.309061 
L 328.72766 170.248569 
L 329.390549 168.06671 
L 329.616772 168.127824 
L 329.729884 168.046545 
L 329.956107 167.472177 
L 330.182331 166.211989 
L 330.408554 163.779788 
L 330.878897 154.911317 
L 331.536558 139.030106 
L 332.060923 121.065335 
L 333.332006 67.171859 
L 333.39208 67.016205 
L 333.512228 67.984139 
L 333.692449 72.434747 
L 334.052892 89.37341 
L 334.929496 133.906863 
L 335.415739 145.590507 
L 336.519115 164.904149 
L 338.149732 192.064328 
L 338.344955 193.086837 
L 338.444949 192.462319 
L 338.598333 189.699666 
L 338.859439 180.288388 
L 339.282599 155.752881 
L 340.517835 78.867087 
L 340.920313 63.816443 
L 341.129166 60.655281 
L 341.199033 60.468867 
L 341.270252 60.769709 
L 341.414247 62.976978 
L 341.705155 73.291037 
L 342.832837 122.534872 
L 344.00678 145.635047 
L 344.088533 146.000261 
L 344.170286 145.937956 
L 344.340214 144.309786 
L 344.61541 137.440355 
L 345.285876 116.237173 
L 345.48957 113.836204 
L 345.591416 113.520577 
L 345.693263 113.679591 
L 346.140206 115.742037 
L 346.192219 115.596599 
L 346.351927 113.956978 
L 346.577348 108.226974 
L 347.010545 88.6246 
L 347.562854 64.925538 
L 347.808582 60.959546 
L 347.877011 60.825758 
L 347.949539 61.153278 
L 348.100356 63.384583 
L 348.350102 71.308255 
L 348.801933 96.029462 
L 349.564913 156.340331 
L 350.16026 196.324506 
L 350.447644 203.456483 
L 350.534398 203.569389 
L 350.674366 202.093175 
L 350.955454 194.958126 
L 351.604386 170.961319 
L 352.269421 139.239919 
L 353.527606 71.32077 
L 353.86577 63.619112 
L 354.762868 51.359703 
L 355.445443 38.287051 
L 355.526723 37.978739 
L 355.609518 38.186294 
L 355.779798 40.356136 
L 356.125412 50.503506 
L 356.914521 75.903429 
L 357.285502 81.398918 
L 357.575766 82.523461 
L 357.962784 82.939679 
L 358.164632 82.81818 
L 358.367593 82.334612 
L 358.678403 80.900152 
L 359.033672 77.669984 
L 359.394268 74.198646 
L 359.514467 74.256018 
L 359.634666 75.464006 
L 359.875063 81.876716 
L 360.235659 100.256127 
L 361.199524 156.669015 
L 361.577815 165.940109 
L 362.239649 176.013047 
L 362.705462 181.097197 
L 362.896497 181.717868 
L 362.992014 181.269674 
L 363.183852 178.253365 
L 363.472815 167.613544 
L 363.955615 136.326073 
L 364.761401 81.321444 
L 365.351277 58.344587 
L 365.716318 51.991598 
L 365.837998 51.839074 
L 365.959678 52.642959 
L 366.213125 57.14792 
L 366.594681 70.224679 
L 367.564422 114.587498 
L 368.257466 160.321039 
L 369.268893 230.984841 
L 369.641747 241.282078 
L 369.889911 243.130661 
L 370.022425 242.687496 
L 370.370787 239.206644 
L 371.002775 232.404084 
L 371.275814 224.212769 
L 371.644705 203.969328 
L 372.904935 119.808532 
L 374.540646 55.642116 
L 374.973558 49.152889 
L 375.852852 39.968487 
L 375.962764 40.163922 
L 376.182588 43.04855 
L 376.512323 54.354818 
L 377.08255 77.447173 
L 377.312801 81.033023 
L 377.427973 81.176758 
L 377.658317 78.745432 
L 378.122965 71.774467 
L 378.240325 71.615964 
L 378.388539 72.753041 
L 378.615547 77.048506 
L 378.965514 88.487352 
L 379.618468 119.918502 
L 380.668032 170.861883 
L 380.791403 172.030655 
L 380.855565 172.007364 
L 381.000138 170.553495 
L 381.242299 164.439156 
L 382.103894 138.146847 
L 382.190053 137.712052 
L 382.276213 137.826127 
L 382.448532 139.700634 
L 382.696244 145.926945 
L 383.676355 175.21941 
L 383.827141 176.01863 
L 383.902535 175.952595 
L 384.053321 175.039011 
L 384.2795 171.69269 
L 384.581073 162.050007 
L 385.514119 125.489715 
L 385.844671 118.848115 
L 385.930694 118.495838 
L 386.016716 118.637002 
L 386.446829 121.304203 
L 386.704897 124.01718 
L 387.13501 130.177174 
L 387.221032 130.260595 
L 387.393078 128.94989 
L 387.82794 121.510071 
L 388.456088 110.186789 
L 388.545824 110.40945 
L 388.725295 112.398659 
L 389.263708 122.697072 
L 389.644372 135.414195 
L 390.778498 178.312328 
L 390.897406 178.543222 
L 391.13522 175.008289 
L 392.799919 131.230092 
L 393.870083 95.110594 
L 394.532051 88.675664 
L 394.678162 87.662502 
L 394.824273 85.458465 
L 395.12218 75.819248 
L 395.894336 49.412457 
L 396.050525 45.62828 
L 396.206713 44.640967 
L 396.362902 46.758499 
L 396.831468 61.200512 
L 397.171634 78.094767 
L 397.820039 112.067753 
L 398.360376 137.20806 
L 398.468444 138.482136 
L 398.576511 138.164746 
L 399.009449 132.177894 
L 399.230785 126.719839 
L 399.815849 107.423164 
L 400.01849 106.259528 
L 400.153584 106.292748 
L 400.288678 107.056736 
L 400.49132 110.662311 
L 400.896602 119.306822 
L 400.964149 119.094797 
L 401.174738 115.35452 
L 401.477182 110.114526 
L 401.64485 109.447502 
L 401.733856 109.422995 
L 401.824415 109.556116 
L 401.914974 109.983667 
L 402.104757 112.835796 
L 402.675882 127.310672 
L 402.866257 125.038767 
L 403.373076 117.179553 
L 403.695582 113.625285 
L 403.803337 113.418489 
L 404.018846 115.072696 
L 404.209152 116.526142 
L 404.304304 116.478327 
L 404.589763 114.731727 
L 404.684915 114.755753 
L 404.988069 116.214894 
L 405.105816 115.108251 
L 405.341666 108.650623 
L 405.580678 103.351432 
L 405.64297 103.209394 
L 405.767553 104.511882 
L 406.5493 119.010565 
L 406.68155 117.541239 
L 406.883095 110.227958 
L 407.375233 90.630134 
L 407.660282 87.393424 
L 407.772151 86.933817 
L 407.812758 87.042619 
L 407.893971 87.963664 
L 408.041885 92.944283 
L 408.349493 115.733595 
L 408.790769 145.11857 
L 409.490393 177.184671 
L 409.964172 193.800603 
L 410.163512 198.399534 
L 410.264919 198.342807 
L 410.470137 194.672183 
L 410.910282 182.99448 
L 411.515338 153.743962 
L 411.719217 160.25711 
L 412.761218 210.630824 
L 412.831718 210.23202 
L 412.972716 205.486139 
L 413.330538 179.043491 
L 414.848494 52.617727 
L 415.123389 45.896031 
L 415.215021 44.977626 
L 415.306653 45.198144 
L 415.489916 50.533476 
L 416.231204 97.4588 
L 416.809621 149.477709 
L 416.9084 149.15452 
L 417.652593 131.981973 
L 417.761485 130.816817 
L 417.870377 131.027722 
L 418.088161 136.17244 
L 418.632621 152.000232 
L 418.857837 155.713477 
L 418.976889 155.24085 
L 419.216329 147.616235 
L 419.540669 137.676082 
L 419.575831 137.51563 
L 419.610993 137.541696 
L 419.737082 138.786158 
L 420.175881 144.233118 
L 420.371797 145.235233 
L 420.445254 145.137982 
L 420.601898 142.867284 
L 420.836865 132.105445 
L 421.911096 62.553847 
L 422.161397 59.714746 
L 422.361999 59.482635 
L 422.361999 59.482635 
" clip-path="url(#p11982d98f7)" style="fill: none; stroke: #e36f47"/>
   </g>
   <g id="patch_3">
    <path d="M 66.051544 258.225354 
L 66.051544 2.834646 
" style="fill: none; stroke: #000000; stroke-linejoin: miter; stroke-linecap: square"/>
   </g>
   <g id="patch_4">
    <path d="M 66.051544 258.225354 
L 422.361999 258.225354 
" style="fill: none; stroke: #000000; stroke-linejoin: miter; stroke-linecap: square"/>
   </g>
   <g id="line2d_13">
    <path d="M 66.051544 122.905569 
L 67.466389 123.015369 
L 67.644678 122.986409 
L 67.977094 122.775173 
L 68.141021 122.776977 
L 68.556376 123.036049 
L 68.852314 122.942842 
L 69.204279 122.944624 
L 69.410944 123.043489 
L 69.551667 123.096846 
L 69.567629 123.08261 
L 70.094697 122.725931 
L 70.384764 122.787758 
L 70.661322 122.876171 
L 70.91644 122.841605 
L 71.154972 122.861327 
L 71.397297 122.947959 
L 71.693841 123.018554 
L 71.909039 122.962383 
L 72.377024 122.814177 
L 73.439068 122.995066 
L 73.844661 123.055413 
L 74.178703 123.032193 
L 74.685276 122.77985 
L 75.40265 123.009211 
L 75.762221 122.884281 
L 76.410398 122.977391 
L 76.851377 122.797462 
L 77.505319 122.843402 
L 77.995311 122.674105 
L 79.831128 122.957021 
L 80.433668 122.771887 
L 80.989119 122.951697 
L 81.564241 122.762877 
L 82.029971 122.797423 
L 82.551398 122.683966 
L 83.356554 122.946175 
L 84.39332 122.623233 
L 85.256087 122.678048 
L 85.79482 122.819335 
L 86.332897 122.812244 
L 86.984627 123.03415 
L 90.301049 122.617563 
L 90.89283 122.715537 
L 92.202896 122.715826 
L 92.615148 122.936223 
L 93.492485 123.575708 
L 94.041115 123.923265 
L 96.114851 125.709357 
L 96.621059 126.101287 
L 98.418221 127.790682 
L 99.453907 128.358286 
L 100.009855 128.42421 
L 100.794543 128.35364 
L 101.406138 128.051398 
L 102.091987 127.460712 
L 102.9005 126.433863 
L 103.520716 125.29276 
L 105.023826 121.693257 
L 106.741864 117.247749 
L 108.303093 113.58294 
L 109.242251 111.633903 
L 110.305101 109.978006 
L 111.612104 108.350258 
L 112.445389 107.605307 
L 113.006908 107.294851 
L 113.562013 107.183698 
L 114.090019 107.284547 
L 114.785023 107.725426 
L 115.421275 108.419502 
L 116.176772 109.598702 
L 116.916733 111.133267 
L 117.769614 113.419986 
L 118.66657 116.433792 
L 119.957303 121.633989 
L 121.387463 128.473912 
L 123.828571 140.370733 
L 124.773108 143.804637 
L 125.53625 145.78616 
L 126.148555 146.750543 
L 126.543503 147.036402 
L 126.947144 147.048871 
L 127.352959 146.790409 
L 127.774276 146.26455 
L 128.421457 145.026494 
L 129.149004 143.109481 
L 130.15572 139.631168 
L 133.431137 126.854819 
L 134.24844 124.69771 
L 134.823006 123.557047 
L 135.408458 122.776589 
L 136.010651 122.387059 
L 136.52869 122.318182 
L 137.803031 122.385764 
L 138.378727 122.198618 
L 138.892887 121.855204 
L 139.694383 121.006921 
L 140.601022 119.611432 
L 141.547624 117.67935 
L 144.648451 110.620491 
L 145.313426 109.803526 
L 145.767304 109.557149 
L 146.186395 109.597802 
L 146.628827 109.953694 
L 147.127476 110.767263 
L 147.638703 112.061806 
L 148.451655 114.992021 
L 151.077194 125.825153 
L 151.646854 127.15145 
L 152.250779 127.983678 
L 152.86432 128.270138 
L 153.148393 128.228048 
L 153.753163 127.808758 
L 154.285518 127.12243 
L 155.348693 125.196511 
L 157.24934 121.638771 
L 158.499688 119.815098 
L 159.371001 118.848156 
L 161.789727 116.566251 
L 162.41248 115.518066 
L 163.139733 113.835402 
L 163.845436 111.713426 
L 164.879057 107.791532 
L 167.291558 98.061956 
L 167.84926 96.546206 
L 168.447868 95.474542 
L 168.740344 95.188286 
L 169.03104 95.074245 
L 169.320283 95.141756 
L 169.554382 95.336101 
L 170.046368 96.180154 
L 170.572741 97.775471 
L 171.062931 99.931246 
L 171.868893 104.849838 
L 172.874392 112.961941 
L 175.090681 131.997692 
L 175.969035 137.4896 
L 176.73397 140.975918 
L 177.515524 143.599983 
L 179.674731 150.182771 
L 182.343799 159.846575 
L 183.075737 161.434413 
L 183.549853 161.967174 
L 183.784923 162.055537 
L 184.049329 161.998362 
L 184.455962 161.562459 
L 184.767828 160.919721 
L 185.178758 159.641651 
L 185.856769 156.495466 
L 186.613769 151.630527 
L 187.938749 141.082856 
L 189.530418 128.73592 
L 190.517798 122.991413 
L 191.131548 120.46253 
L 191.681687 118.898722 
L 192.171442 118.022613 
L 192.630551 117.588424 
L 193.098135 117.493386 
L 193.616855 117.758893 
L 194.136054 118.333744 
L 195.398112 119.934192 
L 195.740395 119.985853 
L 196.036303 119.724717 
L 196.300862 119.21231 
L 196.681363 117.934581 
L 197.246445 114.827686 
L 197.846458 110.095733 
L 200.175598 89.544147 
L 200.585854 87.544502 
L 200.96092 86.562945 
L 201.14782 86.412848 
L 201.330887 86.499543 
L 201.522252 86.849231 
L 201.88263 88.258902 
L 202.267087 90.896824 
L 202.796476 96.507278 
L 203.375123 105.154435 
L 204.29033 122.887056 
L 205.837432 153.599087 
L 206.479366 161.65613 
L 206.89822 164.379274 
L 207.182579 164.992671 
L 207.329874 164.917443 
L 207.607684 164.07294 
L 207.928972 162.023102 
L 208.499542 156.018735 
L 209.415126 142.737653 
L 210.415487 128.706937 
L 211.034757 122.633979 
L 211.510291 119.745566 
L 211.862565 118.49644 
L 212.215407 117.820228 
L 212.713061 117.444665 
L 213.43357 117.072508 
L 213.804438 116.639876 
L 214.378104 115.484927 
L 215.174557 113.115896 
L 216.431936 108.468311 
L 217.358254 104.226941 
L 218.310681 98.692374 
L 219.152027 92.137435 
L 220.125582 82.396451 
L 221.076957 73.031237 
L 221.59121 69.632951 
L 221.958295 68.45833 
L 222.133926 68.33477 
L 222.318331 68.533099 
L 222.680868 69.933481 
L 223.037509 72.609511 
L 223.607253 79.28161 
L 224.613778 95.282087 
L 225.579912 109.822813 
L 226.259282 116.701083 
L 226.636115 118.838874 
L 226.965485 119.651834 
L 227.172743 119.687579 
L 227.423471 119.267891 
L 227.78053 117.889871 
L 228.282501 114.80247 
L 229.37285 107.471773 
L 229.679139 106.365376 
L 229.84659 106.083158 
L 230.009182 106.049967 
L 230.173834 106.265653 
L 230.497926 107.427779 
L 230.976414 110.828405 
L 231.623217 118.069723 
L 232.468758 130.663087 
L 234.907464 169.268211 
L 236.278453 185.449346 
L 237.082561 193.206068 
L 237.604289 196.261466 
L 237.894232 196.886192 
L 238.041835 196.851416 
L 238.188634 196.563542 
L 238.48162 195.196218 
L 238.921228 191.09972 
L 239.361032 184.602099 
L 240.083706 169.597071 
L 241.935643 127.090023 
L 242.417858 121.450822 
L 242.729621 119.857286 
L 242.877823 119.661319 
L 243.011208 119.780756 
L 243.303387 120.943674 
L 243.708028 124.272156 
L 244.437034 133.247466 
L 245.242937 142.599086 
L 245.647405 145.113863 
L 245.881868 145.586066 
L 245.972515 145.561459 
L 246.167014 145.114357 
L 246.450527 143.557886 
L 246.887435 139.347846 
L 247.64038 128.903592 
L 248.727763 113.667371 
L 249.177501 109.557546 
L 249.488898 108.255151 
L 249.644882 108.218659 
L 249.795688 108.62132 
L 250.049215 110.329393 
L 250.424358 115.272674 
L 250.957809 126.539685 
L 252.349638 159.105047 
L 252.900295 165.951565 
L 253.376834 169.028885 
L 253.84165 170.731483 
L 254.31787 171.850722 
L 254.493562 172.04181 
L 254.657012 172.042474 
L 254.820802 171.821753 
L 255.169482 170.429469 
L 255.527818 167.195856 
L 255.913039 161.644794 
L 256.429927 151.138448 
L 257.439423 124.81429 
L 259.196989 72.157151 
L 260.410691 37.178035 
L 261.128785 21.988952 
L 261.539829 16.43005 
L 261.839282 14.334753 
L 261.998348 13.999029 
L 262.156833 14.236532 
L 262.413032 15.869825 
L 262.71806 19.835074 
L 263.166789 29.407925 
L 263.869324 51.04489 
L 265.409075 101.793132 
L 265.915616 111.255841 
L 266.197573 113.846626 
L 266.44164 114.495189 
L 266.549213 114.32409 
L 266.771293 113.139082 
L 267.125905 109.203094 
L 267.726546 98.696448 
L 268.73116 80.690816 
L 269.150505 76.374262 
L 269.527942 74.692991 
L 269.660614 74.577302 
L 269.794561 74.699868 
L 270.03229 75.49864 
L 270.292562 77.231126 
L 270.63936 81.070324 
L 271.022735 87.696341 
L 271.541734 101.259484 
L 272.260752 128.250074 
L 274.356564 215.659816 
L 274.862254 228.213511 
L 275.207155 233.109483 
L 275.448054 234.529386 
L 275.565283 234.597935 
L 275.692007 234.202598 
L 275.920883 232.250718 
L 276.275542 226.129189 
L 276.772518 211.85166 
L 277.536557 181.062673 
L 278.718883 132.429458 
L 279.338414 114.809435 
L 279.950758 103.003129 
L 281.15604 85.30219 
L 282.117119 74.099843 
L 283.571114 59.998361 
L 283.881324 58.639986 
L 284.004749 58.538922 
L 284.137923 58.770789 
L 284.4293 60.675619 
L 284.752642 65.226737 
L 285.214141 76.051205 
L 286.067736 104.455398 
L 286.929763 130.417598 
L 287.437709 140.065313 
L 287.777811 144.04279 
L 288.113686 146.151991 
L 288.280673 146.550756 
L 288.449254 146.520939 
L 288.700365 145.670016 
L 288.98694 143.517082 
L 289.405717 138.198736 
L 289.968342 127.529892 
L 291.05325 100.917556 
L 292.250951 72.942455 
L 293.033559 59.418408 
L 293.539995 54.081592 
L 293.86222 52.551312 
L 294.019972 52.409393 
L 294.161149 52.650004 
L 294.430436 54.138188 
L 294.734148 57.569446 
L 295.186506 66.434044 
L 295.775212 84.853625 
L 296.519125 116.996868 
L 297.846081 176.040665 
L 298.416429 192.352758 
L 298.777274 197.853862 
L 299.03607 199.331517 
L 299.163784 199.312213 
L 299.284777 198.855878 
L 299.556231 196.347319 
L 299.964373 189.300737 
L 300.681471 171.156391 
L 301.55329 149.63751 
L 302.059492 142.134875 
L 302.336657 140.119449 
L 302.613259 139.585132 
L 302.748623 139.853425 
L 303.013691 141.388321 
L 303.371142 145.563159 
L 303.848443 154.766945 
L 305.383147 189.729845 
L 305.606929 191.100763 
L 305.737222 191.109187 
L 305.862002 190.540248 
L 306.103697 187.858178 
L 306.410011 181.673657 
L 306.984822 164.347389 
L 307.695676 143.841901 
L 308.02427 138.895191 
L 308.278569 137.729183 
L 308.371329 137.856596 
L 308.565603 138.960478 
L 308.867644 142.414418 
L 309.92148 156.405731 
L 310.125712 157.17297 
L 310.234257 157.169022 
L 310.449557 156.271053 
L 310.696768 153.724945 
L 311.148354 145.223872 
L 311.761379 127.927277 
L 312.66904 94.973044 
L 313.719544 56.286543 
L 314.05889 51.177179 
L 314.164275 50.976792 
L 314.275681 51.567234 
L 314.482668 54.972372 
L 314.838933 68.050694 
L 315.226956 92.162025 
L 315.944987 155.278151 
L 316.677997 214.89398 
L 317.047702 229.306994 
L 317.239828 231.169308 
L 317.338926 230.62181 
L 317.546265 226.366676 
L 317.918493 210.019133 
L 318.752764 155.678863 
L 319.490045 114.871478 
L 320.091856 93.859105 
L 320.683136 81.049257 
L 321.400656 70.109506 
L 321.880201 65.326488 
L 322.208408 64.039007 
L 322.321511 63.978497 
L 322.449051 64.098697 
L 322.803465 65.112488 
L 323.777327 69.086083 
L 324.08296 71.448618 
L 324.532447 76.912603 
L 325.55944 90.562825 
L 326.421399 99.876651 
L 326.798037 107.54081 
L 327.317538 124.210868 
L 328.467781 165.52147 
L 328.822801 170.303979 
L 329.03537 170.789877 
L 329.169519 170.386492 
L 329.447844 168.45185 
L 330.785304 155.957674 
L 331.203855 148.365291 
L 331.718192 134.40566 
L 333.546883 79.505125 
L 333.673228 79.24312 
L 333.825175 80.419515 
L 334.052864 85.205221 
L 334.428566 99.334826 
L 335.313477 134.958287 
L 335.899456 147.951755 
L 336.656668 164.679459 
L 337.641824 187.425248 
L 338.043676 192.014568 
L 338.217119 192.631721 
L 338.278182 192.603168 
L 338.410956 192.020483 
L 338.621581 189.338136 
L 338.862569 183.024213 
L 339.213007 167.188689 
L 340.850397 77.549493 
L 341.224302 68.088129 
L 341.430752 66.097692 
L 341.525415 66.071245 
L 341.700349 67.559593 
L 341.970262 73.755565 
L 342.396765 91.315868 
L 343.16822 124.688851 
L 343.634744 136.395646 
L 344.153654 144.116153 
L 344.338398 145.207237 
L 344.416397 145.273166 
L 344.557106 144.710528 
L 344.81241 141.290183 
L 345.171005 131.533348 
L 345.898999 109.693402 
L 346.24678 105.143607 
L 346.74708 100.23589 
L 347.049104 93.809817 
L 348.04207 68.759879 
L 348.121191 68.828739 
L 348.271464 70.373835 
L 348.538078 77.626802 
L 348.906896 95.505804 
L 350.581646 190.526751 
L 350.833165 195.099453 
L 350.92554 195.626532 
L 351.015428 195.523843 
L 351.168443 193.973679 
L 351.462554 186.608845 
L 352.043488 162.635514 
L 352.83038 122.249588 
L 353.979676 58.986338 
L 354.363259 50.637799 
L 354.604159 48.896626 
L 354.864172 48.414135 
L 355.052371 48.107429 
L 355.26448 47.349095 
L 355.849993 44.921784 
L 355.992542 45.392918 
L 356.216424 47.714084 
L 356.518076 53.781985 
L 357.511525 76.823984 
L 357.75288 78.506368 
L 357.933541 78.863394 
L 358.282089 79.008848 
L 358.446294 79.488764 
L 358.679078 81.161264 
L 359.012889 85.618892 
L 360.289596 107.572813 
L 360.668206 120.607854 
L 361.835638 168.369161 
L 362.148442 171.489352 
L 362.737801 174.136944 
L 363.202493 177.763056 
L 363.26362 177.755921 
L 363.378843 177.022703 
L 363.508727 174.778288 
L 363.744286 166.127329 
L 364.110446 141.236197 
L 365.125124 64.464246 
L 365.440578 56.193822 
L 365.641569 55.025602 
L 365.783393 55.646654 
L 366.010565 58.352599 
L 366.465731 67.340068 
L 366.868919 79.672934 
L 367.355051 103.395577 
L 369.759467 236.672569 
L 370.077304 243.543011 
L 370.217428 244.160929 
L 370.341058 243.759324 
L 370.564723 241.514751 
L 371.191871 231.763151 
L 371.522957 223.278973 
L 371.841268 208.305241 
L 372.227705 178.383373 
L 373.103103 104.006797 
L 373.463008 92.208637 
L 374.122291 78.892831 
L 374.646587 56.707227 
L 375.084326 42.22057 
L 375.326572 39.732787 
L 375.387398 39.677016 
L 375.433928 39.746965 
L 375.572251 40.39068 
L 376.077796 43.082455 
L 376.476261 43.538028 
L 376.651016 44.829249 
L 376.89151 49.345449 
L 377.247955 62.447995 
L 377.891907 87.694335 
L 378.158754 91.627234 
L 378.29563 92.067502 
L 378.419648 91.869755 
L 378.744111 91.063993 
L 378.886027 91.751015 
L 379.091993 94.86485 
L 379.38247 103.746504 
L 380.954637 161.641422 
L 381.251979 164.59604 
L 381.314563 164.669115 
L 381.434895 164.231893 
L 381.635752 161.874981 
L 381.985204 154.066353 
L 382.539657 141.641435 
L 382.734983 140.511366 
L 382.826247 140.960944 
L 382.980704 143.287415 
L 383.242688 151.300893 
L 383.957138 175.845713 
L 384.064075 176.427371 
L 384.117823 176.269888 
L 384.268632 174.32717 
L 384.547499 166.041002 
L 385.324164 139.311462 
L 385.614462 136.620785 
L 385.97535 134.654361 
L 386.231164 131.306081 
L 387.119155 116.644241 
L 387.251992 117.354713 
L 387.861338 123.090743 
L 387.904266 122.971834 
L 388.037975 121.812166 
L 388.300662 116.405552 
L 388.805661 105.633091 
L 388.85797 105.443888 
L 388.901613 105.485267 
L 388.995133 106.196724 
L 389.173092 109.833024 
L 389.471751 121.554514 
L 390.639443 175.173762 
L 390.883814 178.372077 
L 390.994509 178.688386 
L 391.043431 178.59998 
L 391.213518 177.225786 
L 391.461585 172.614962 
L 392.09369 154.665272 
L 393.895428 103.247274 
L 394.442553 88.606863 
L 395.391851 60.047489 
L 395.790238 54.65021 
L 396.1848 51.9407 
L 396.408992 51.393521 
L 396.525433 51.652988 
L 396.711369 53.456688 
L 396.905201 57.961208 
L 397.216553 72.086304 
L 398.365437 135.0536 
L 398.510985 135.933702 
L 398.608141 135.389143 
L 398.7966 132.098373 
L 399.203724 119.173539 
L 399.641847 108.365233 
L 399.8795 106.707228 
L 400.04211 106.656618 
L 400.539299 107.327162 
L 400.708001 108.063 
L 400.949029 110.470975 
L 401.935423 123.078925 
L 402.106867 123.289753 
L 402.268094 123.048385 
L 402.586775 121.967272 
L 402.901431 120.102258 
L 403.561424 115.315505 
L 403.592061 115.365584 
L 403.698956 115.925502 
L 403.891261 118.431017 
L 404.501064 127.65015 
L 404.560982 127.592214 
L 404.680926 126.764914 
L 404.966022 122.019496 
L 405.603113 111.162466 
L 406.669015 97.9972 
L 407.029958 89.038386 
L 407.492964 77.73085 
L 407.577224 77.290985 
L 407.619732 77.352809 
L 407.725762 78.36319 
L 407.945105 84.060772 
L 408.35177 103.260301 
L 410.209172 202.999845 
L 410.4027 205.599941 
L 410.454485 205.593366 
L 410.548536 204.837219 
L 410.730793 201.009516 
L 411.73549 173.50907 
L 411.785994 173.505565 
L 411.893353 174.26289 
L 412.07496 177.741746 
L 412.826833 196.048194 
L 412.915979 196.253027 
L 413.020612 195.687522 
L 413.198217 192.455382 
L 413.456256 181.5451 
L 413.779778 156.658618 
L 414.828827 67.302752 
L 415.214048 49.496871 
L 415.380112 47.17837 
L 415.436477 47.382889 
L 415.553662 49.538727 
L 415.788405 60.862716 
L 416.282761 103.517606 
L 416.698866 131.027475 
L 417.211546 147.931283 
L 417.510417 153.101642 
L 417.553559 153.248899 
L 417.607048 153.18893 
L 417.718788 152.226403 
L 417.979288 146.700566 
L 418.511796 135.25167 
L 418.691623 134.289899 
L 418.726457 134.295448 
L 418.81296 134.532625 
L 419.110955 136.667408 
L 419.334211 137.650009 
L 419.428805 137.484649 
L 419.578399 136.421602 
L 419.89858 131.71383 
L 421.10586 108.910006 
L 422.301169 68.90812 
L 422.361999 68.11908 
L 422.361999 68.11908 
" clip-path="url(#p11982d98f7)" style="fill: none; stroke: #3ea44e"/>
   </g>
   <g id="legend_1">
    <g id="patch_5">
     <path d="M 332.945749 50.862146 
L 418.361999 50.862146 
L 418.361999 6.834646 
L 332.945749 6.834646 
z
" style="fill: #ffffff; stroke: #000000; stroke-linejoin: miter"/>
    </g>
    <g id="line2d_14">
     <path d="M 339.345749 16.513396 
L 347.345749 16.513396 
L 355.345749 16.513396 
" style="fill: none; stroke: #009afa; stroke-linejoin: miter"/>
    </g>
    <g id="text_13">
     <!-- GXBeam -->
     <g transform="translate(361.745749 19.313396) scale(0.08 -0.08)">
      <defs>
       <path id="DejaVuSans-47" d="M 3809 666 
L 3809 1919 
L 2778 1919 
L 2778 2438 
L 4434 2438 
L 4434 434 
Q 4069 175 3628 42 
Q 3188 -91 2688 -91 
Q 1594 -91 976 548 
Q 359 1188 359 2328 
Q 359 3472 976 4111 
Q 1594 4750 2688 4750 
Q 3144 4750 3555 4637 
Q 3966 4525 4313 4306 
L 4313 3634 
Q 3963 3931 3569 4081 
Q 3175 4231 2741 4231 
Q 1884 4231 1454 3753 
Q 1025 3275 1025 2328 
Q 1025 1384 1454 906 
Q 1884 428 2741 428 
Q 3075 428 3337 486 
Q 3600 544 3809 666 
z
" transform="scale(0.015625)"/>
       <path id="DejaVuSans-58" d="M 403 4666 
L 1081 4666 
L 2241 2931 
L 3406 4666 
L 4084 4666 
L 2584 2425 
L 4184 0 
L 3506 0 
L 2194 1984 
L 872 0 
L 191 0 
L 1856 2491 
L 403 4666 
z
" transform="scale(0.015625)"/>
       <path id="DejaVuSans-42" d="M 1259 2228 
L 1259 519 
L 2272 519 
Q 2781 519 3026 730 
Q 3272 941 3272 1375 
Q 3272 1813 3026 2020 
Q 2781 2228 2272 2228 
L 1259 2228 
z
M 1259 4147 
L 1259 2741 
L 2194 2741 
Q 2656 2741 2882 2914 
Q 3109 3088 3109 3444 
Q 3109 3797 2882 3972 
Q 2656 4147 2194 4147 
L 1259 4147 
z
M 628 4666 
L 2241 4666 
Q 2963 4666 3353 4366 
Q 3744 4066 3744 3513 
Q 3744 3084 3544 2831 
Q 3344 2578 2956 2516 
Q 3422 2416 3680 2098 
Q 3938 1781 3938 1306 
Q 3938 681 3513 340 
Q 3088 0 2303 0 
L 628 0 
L 628 4666 
z
" transform="scale(0.015625)"/>
       <path id="DejaVuSans-61" d="M 2194 1759 
Q 1497 1759 1228 1600 
Q 959 1441 959 1056 
Q 959 750 1161 570 
Q 1363 391 1709 391 
Q 2188 391 2477 730 
Q 2766 1069 2766 1631 
L 2766 1759 
L 2194 1759 
z
M 3341 1997 
L 3341 0 
L 2766 0 
L 2766 531 
Q 2569 213 2275 61 
Q 1981 -91 1556 -91 
Q 1019 -91 701 211 
Q 384 513 384 1019 
Q 384 1609 779 1909 
Q 1175 2209 1959 2209 
L 2766 2209 
L 2766 2266 
Q 2766 2663 2505 2880 
Q 2244 3097 1772 3097 
Q 1472 3097 1187 3025 
Q 903 2953 641 2809 
L 641 3341 
Q 956 3463 1253 3523 
Q 1550 3584 1831 3584 
Q 2591 3584 2966 3190 
Q 3341 2797 3341 1997 
z
" transform="scale(0.015625)"/>
      </defs>
      <use xlink:href="#DejaVuSans-47"/>
      <use xlink:href="#DejaVuSans-58" x="77.490234"/>
      <use xlink:href="#DejaVuSans-42" x="145.996094"/>
      <use xlink:href="#DejaVuSans-65" x="214.599609"/>
      <use xlink:href="#DejaVuSans-61" x="276.123047"/>
      <use xlink:href="#DejaVuSans-6d" x="337.402344"/>
     </g>
    </g>
    <g id="line2d_15">
     <path d="M 339.345749 28.255896 
L 347.345749 28.255896 
L 355.345749 28.255896 
" style="fill: none; stroke: #e36f47; stroke-linejoin: miter"/>
    </g>
    <g id="text_14">
     <!-- ODEProblem -->
     <g transform="translate(361.745749 31.055896) scale(0.08 -0.08)">
      <defs>
       <path id="DejaVuSans-4f" d="M 2522 4238 
Q 1834 4238 1429 3725 
Q 1025 3213 1025 2328 
Q 1025 1447 1429 934 
Q 1834 422 2522 422 
Q 3209 422 3611 934 
Q 4013 1447 4013 2328 
Q 4013 3213 3611 3725 
Q 3209 4238 2522 4238 
z
M 2522 4750 
Q 3503 4750 4090 4092 
Q 4678 3434 4678 2328 
Q 4678 1225 4090 567 
Q 3503 -91 2522 -91 
Q 1538 -91 948 565 
Q 359 1222 359 2328 
Q 359 3434 948 4092 
Q 1538 4750 2522 4750 
z
" transform="scale(0.015625)"/>
       <path id="DejaVuSans-44" d="M 1259 4147 
L 1259 519 
L 2022 519 
Q 2988 519 3436 956 
Q 3884 1394 3884 2338 
Q 3884 3275 3436 3711 
Q 2988 4147 2022 4147 
L 1259 4147 
z
M 628 4666 
L 1925 4666 
Q 3281 4666 3915 4102 
Q 4550 3538 4550 2338 
Q 4550 1131 3912 565 
Q 3275 0 1925 0 
L 628 0 
L 628 4666 
z
" transform="scale(0.015625)"/>
       <path id="DejaVuSans-45" d="M 628 4666 
L 3578 4666 
L 3578 4134 
L 1259 4134 
L 1259 2753 
L 3481 2753 
L 3481 2222 
L 1259 2222 
L 1259 531 
L 3634 531 
L 3634 0 
L 628 0 
L 628 4666 
z
" transform="scale(0.015625)"/>
       <path id="DejaVuSans-50" d="M 1259 4147 
L 1259 2394 
L 2053 2394 
Q 2494 2394 2734 2622 
Q 2975 2850 2975 3272 
Q 2975 3691 2734 3919 
Q 2494 4147 2053 4147 
L 1259 4147 
z
M 628 4666 
L 2053 4666 
Q 2838 4666 3239 4311 
Q 3641 3956 3641 3272 
Q 3641 2581 3239 2228 
Q 2838 1875 2053 1875 
L 1259 1875 
L 1259 0 
L 628 0 
L 628 4666 
z
" transform="scale(0.015625)"/>
       <path id="DejaVuSans-72" d="M 2631 2963 
Q 2534 3019 2420 3045 
Q 2306 3072 2169 3072 
Q 1681 3072 1420 2755 
Q 1159 2438 1159 1844 
L 1159 0 
L 581 0 
L 581 3500 
L 1159 3500 
L 1159 2956 
Q 1341 3275 1631 3429 
Q 1922 3584 2338 3584 
Q 2397 3584 2469 3576 
Q 2541 3569 2628 3553 
L 2631 2963 
z
" transform="scale(0.015625)"/>
       <path id="DejaVuSans-6f" d="M 1959 3097 
Q 1497 3097 1228 2736 
Q 959 2375 959 1747 
Q 959 1119 1226 758 
Q 1494 397 1959 397 
Q 2419 397 2687 759 
Q 2956 1122 2956 1747 
Q 2956 2369 2687 2733 
Q 2419 3097 1959 3097 
z
M 1959 3584 
Q 2709 3584 3137 3096 
Q 3566 2609 3566 1747 
Q 3566 888 3137 398 
Q 2709 -91 1959 -91 
Q 1206 -91 779 398 
Q 353 888 353 1747 
Q 353 2609 779 3096 
Q 1206 3584 1959 3584 
z
" transform="scale(0.015625)"/>
       <path id="DejaVuSans-62" d="M 3116 1747 
Q 3116 2381 2855 2742 
Q 2594 3103 2138 3103 
Q 1681 3103 1420 2742 
Q 1159 2381 1159 1747 
Q 1159 1113 1420 752 
Q 1681 391 2138 391 
Q 2594 391 2855 752 
Q 3116 1113 3116 1747 
z
M 1159 2969 
Q 1341 3281 1617 3432 
Q 1894 3584 2278 3584 
Q 2916 3584 3314 3078 
Q 3713 2572 3713 1747 
Q 3713 922 3314 415 
Q 2916 -91 2278 -91 
Q 1894 -91 1617 61 
Q 1341 213 1159 525 
L 1159 0 
L 581 0 
L 581 4863 
L 1159 4863 
L 1159 2969 
z
" transform="scale(0.015625)"/>
       <path id="DejaVuSans-6c" d="M 603 4863 
L 1178 4863 
L 1178 0 
L 603 0 
L 603 4863 
z
" transform="scale(0.015625)"/>
      </defs>
      <use xlink:href="#DejaVuSans-4f"/>
      <use xlink:href="#DejaVuSans-44" x="78.710938"/>
      <use xlink:href="#DejaVuSans-45" x="155.712891"/>
      <use xlink:href="#DejaVuSans-50" x="218.896484"/>
      <use xlink:href="#DejaVuSans-72" x="277.449219"/>
      <use xlink:href="#DejaVuSans-6f" x="316.3125"/>
      <use xlink:href="#DejaVuSans-62" x="377.494141"/>
      <use xlink:href="#DejaVuSans-6c" x="440.970703"/>
      <use xlink:href="#DejaVuSans-65" x="468.753906"/>
      <use xlink:href="#DejaVuSans-6d" x="530.277344"/>
     </g>
    </g>
    <g id="line2d_16">
     <path d="M 339.345749 39.998396 
L 347.345749 39.998396 
L 355.345749 39.998396 
" style="fill: none; stroke: #3ea44e; stroke-linejoin: miter"/>
    </g>
    <g id="text_15">
     <!-- DAEProblem -->
     <g transform="translate(361.745749 42.798396) scale(0.08 -0.08)">
      <defs>
       <path id="DejaVuSans-41" d="M 2188 4044 
L 1331 1722 
L 3047 1722 
L 2188 4044 
z
M 1831 4666 
L 2547 4666 
L 4325 0 
L 3669 0 
L 3244 1197 
L 1141 1197 
L 716 0 
L 50 0 
L 1831 4666 
z
" transform="scale(0.015625)"/>
      </defs>
      <use xlink:href="#DejaVuSans-44"/>
      <use xlink:href="#DejaVuSans-41" x="75.251953"/>
      <use xlink:href="#DejaVuSans-45" x="143.660156"/>
      <use xlink:href="#DejaVuSans-50" x="206.84375"/>
      <use xlink:href="#DejaVuSans-72" x="265.396484"/>
      <use xlink:href="#DejaVuSans-6f" x="304.259766"/>
      <use xlink:href="#DejaVuSans-62" x="365.441406"/>
      <use xlink:href="#DejaVuSans-6c" x="428.917969"/>
      <use xlink:href="#DejaVuSans-65" x="456.701172"/>
      <use xlink:href="#DejaVuSans-6d" x="518.224609"/>
     </g>
    </g>
   </g>
  </g>
 </g>
 <defs>
  <clipPath id="p11982d98f7">
   <rect x="66.051544" y="2.834646" width="356.310455" height="255.390709"/>
  </clipPath>
 </defs>
</svg>
