<?xml version="1.0" encoding="utf-8" standalone="no"?>
<!DOCTYPE svg PUBLIC "-//W3C//DTD SVG 1.1//EN"
  "http://www.w3.org/Graphics/SVG/1.1/DTD/svg11.dtd">
<svg xmlns:xlink="http://www.w3.org/1999/xlink" width="432pt" height="288pt" viewBox="0 0 432 288" xmlns="http://www.w3.org/2000/svg" version="1.1">
 <metadata>
  <rdf:RDF xmlns:dc="http://purl.org/dc/elements/1.1/" xmlns:cc="http://creativecommons.org/ns#" xmlns:rdf="http://www.w3.org/1999/02/22-rdf-syntax-ns#">
   <cc:Work>
    <dc:type rdf:resource="http://purl.org/dc/dcmitype/StillImage"/>
    <dc:date>2023-04-05T00:58:25.354160</dc:date>
    <dc:format>image/svg+xml</dc:format>
    <dc:creator>
     <cc:Agent>
      <dc:title>Matplotlib v3.7.1, https://matplotlib.org/</dc:title>
     </cc:Agent>
    </dc:creator>
   </cc:Work>
  </rdf:RDF>
 </metadata>
 <defs>
  <style type="text/css">*{stroke-linejoin: round; stroke-linecap: butt}</style>
 </defs>
 <g id="figure_1">
  <g id="patch_1">
   <path d="M 0 288 
L 432 288 
L 432 0 
L 0 0 
z
" style="fill: #ffffff"/>
  </g>
  <g id="axes_1">
   <g id="patch_2">
    <path d="M 69.557488 258.225354 
L 422.361999 258.225354 
L 422.361999 2.834646 
L 69.557488 2.834646 
z
" style="fill: #ffffff"/>
   </g>
   <g id="line2d_1">
    <path d="M 69.557488 125.343006 
L 69.910292 125.22737 
L 70.263097 125.58851 
L 70.615901 125.526987 
L 70.968706 125.153796 
L 71.674315 125.333584 
L 72.203521 124.746621 
L 72.379924 124.815899 
L 72.90913 125.348063 
L 73.261935 125.371639 
L 73.614739 125.692597 
L 73.967544 126.062516 
L 74.673153 125.761017 
L 75.025958 125.971404 
L 75.378762 125.698037 
L 75.731567 125.367809 
L 76.437176 125.744677 
L 76.78998 125.385129 
L 77.142785 125.441881 
L 77.495589 125.58195 
L 78.3776 124.88188 
L 78.554003 124.816879 
L 79.436014 123.548182 
L 79.788818 123.682477 
L 80.318025 123.507535 
L 80.494427 123.662155 
L 81.200036 124.900475 
L 81.552841 125.088438 
L 82.434852 126.217894 
L 82.787657 126.54382 
L 83.84607 127.977952 
L 84.022473 128.205598 
L 84.904484 130.073713 
L 85.257288 130.504856 
L 85.786495 131.507146 
L 85.962897 131.643453 
L 86.315702 131.650698 
L 86.668506 131.901763 
L 87.021311 132.304809 
L 87.374115 132.452322 
L 87.72692 132.88327 
L 88.256127 133.955293 
L 88.608931 134.241352 
L 88.785333 134.365484 
L 89.490943 135.443531 
L 90.549356 135.801328 
L 90.902161 135.842906 
L 91.431367 135.697598 
L 91.960574 136.039274 
L 92.313379 135.967181 
L 92.666183 135.992428 
L 93.018988 136.101979 
L 93.19539 136.037098 
L 94.077401 134.895473 
L 94.430206 134.772329 
L 95.312217 134.019898 
L 95.841424 133.953211 
L 96.547033 133.101628 
L 96.899837 132.897952 
L 98.840262 130.029093 
L 99.193067 130.01551 
L 99.545871 130.083298 
L 100.25148 129.588676 
L 100.604285 129.598399 
L 100.957089 129.226491 
L 101.309894 128.600912 
L 102.544709 127.636753 
L 103.250318 127.532794 
L 103.603123 127.210567 
L 103.779525 127.16006 
L 104.308732 127.253688 
L 104.661537 126.831099 
L 105.014341 126.359993 
L 105.543548 126.000828 
L 106.249157 125.123947 
L 106.954766 125.108422 
L 107.30757 124.970632 
L 107.836777 125.155077 
L 108.189582 124.724728 
L 108.542386 124.148875 
L 109.071593 123.816891 
L 109.424397 123.216591 
L 109.777202 122.574209 
L 111.18842 121.340297 
L 111.541224 121.246461 
L 112.246834 120.64028 
L 112.599638 120.514367 
L 112.952443 120.064274 
L 113.305247 119.536424 
L 113.658052 119.472001 
L 114.010856 119.569454 
L 114.716465 119.290454 
L 115.245672 119.34112 
L 115.598476 118.995424 
L 115.951281 118.63753 
L 116.480488 118.344637 
L 117.186097 117.57327 
L 117.715303 117.583024 
L 118.24451 117.322649 
L 118.420912 117.417288 
L 119.126521 118.16881 
L 119.655728 118.20368 
L 120.890544 119.075903 
L 121.243349 119.720352 
L 121.948958 120.931806 
L 123.007371 122.556341 
L 123.360176 122.675361 
L 124.065785 123.329727 
L 124.771394 123.122633 
L 125.3006 123.518314 
L 126.006209 123.683344 
L 126.535416 123.967015 
L 126.888221 123.740592 
L 128.123037 122.272814 
L 128.475841 121.889379 
L 129.005048 121.768989 
L 129.710657 121.04091 
L 130.063461 121.120648 
L 130.416266 120.878776 
L 130.945473 120.352046 
L 131.298277 120.176892 
L 131.651082 119.631438 
L 132.003886 119.050076 
L 132.709495 118.594118 
L 133.0623 118.146649 
L 133.238702 118.140104 
L 133.767909 118.469616 
L 134.64992 117.861638 
L 135.002725 117.813133 
L 135.531931 117.421495 
L 135.884736 117.653298 
L 136.23754 117.884818 
L 136.590345 118.044354 
L 136.943149 118.6756 
L 137.472356 119.784547 
L 137.825161 120.304593 
L 138.883574 122.670785 
L 139.236379 123.293258 
L 140.823999 127.540676 
L 141.353206 128.682081 
L 142.235217 130.438515 
L 142.940826 131.214869 
L 143.822837 133.018303 
L 144.175642 133.741164 
L 145.58686 137.271415 
L 146.116067 138.077622 
L 146.645273 138.407289 
L 146.998078 138.668825 
L 147.527285 139.137855 
L 148.232894 139.466283 
L 148.585698 139.560865 
L 148.938503 139.294472 
L 149.644112 138.019124 
L 150.173319 136.875556 
L 150.878928 134.407929 
L 152.64295 128.82005 
L 154.936179 122.802369 
L 155.465386 122.473357 
L 156.347397 122.108903 
L 157.053006 122.591528 
L 158.464225 122.380829 
L 158.993431 121.791163 
L 159.875443 121.663208 
L 160.228247 121.476343 
L 160.757454 121.399386 
L 161.463063 120.560004 
L 162.168672 120.395535 
L 162.521476 120.194 
L 162.697879 120.288292 
L 163.403488 121.170259 
L 163.756292 121.475952 
L 164.638303 122.94733 
L 164.991108 123.311609 
L 165.520315 123.854806 
L 166.049522 123.839716 
L 167.107935 124.699903 
L 167.989946 124.79879 
L 168.342751 124.204139 
L 169.224762 122.033518 
L 170.63598 117.016444 
L 171.517991 113.574312 
L 172.047198 111.345189 
L 173.105612 106.803314 
L 173.811221 104.429856 
L 174.164025 104.005028 
L 174.51683 103.916665 
L 175.046037 104.134799 
L 175.398841 104.615168 
L 175.751646 105.541051 
L 176.633657 108.642093 
L 177.868473 115.396588 
L 179.456093 127.113542 
L 180.514507 134.777968 
L 181.749322 142.804623 
L 182.807736 148.175131 
L 183.513345 150.667553 
L 184.042552 152.103898 
L 184.395356 152.576849 
L 184.924563 152.894371 
L 185.982976 152.394849 
L 186.335781 151.951692 
L 186.864988 150.755803 
L 187.570597 148.426668 
L 188.276206 145.073374 
L 189.334619 139.307613 
L 191.804251 126.616795 
L 192.333458 124.847128 
L 192.686262 124.141719 
L 193.039067 123.93464 
L 193.391871 124.247758 
L 193.744676 124.997712 
L 194.273882 126.76696 
L 195.155894 130.563574 
L 196.214307 136.686317 
L 198.331134 148.694028 
L 198.860341 150.033614 
L 199.213146 150.647079 
L 199.389548 150.805152 
L 199.918755 150.730706 
L 200.271559 150.649668 
L 201.15357 149.985755 
L 201.506375 149.253554 
L 202.035582 148.077131 
L 202.388386 147.298222 
L 203.623202 142.868901 
L 204.681616 137.529428 
L 205.563627 131.580419 
L 206.445638 123.319664 
L 209.268074 91.200055 
L 209.797281 87.744675 
L 210.150085 86.498923 
L 210.326488 86.185007 
L 210.50289 86.118342 
L 210.679292 86.270195 
L 211.032097 87.19252 
L 211.384901 88.867169 
L 211.914108 93.276162 
L 212.619717 101.641507 
L 214.38374 123.945759 
L 215.089349 130.159763 
L 215.618555 132.86702 
L 215.97136 134.031481 
L 216.324164 134.521943 
L 216.676969 134.656065 
L 216.853371 134.640636 
L 217.206176 134.198802 
L 217.735382 133.009504 
L 218.088187 131.715142 
L 219.675807 124.799879 
L 220.910623 122.072903 
L 221.263428 121.798021 
L 221.792634 121.218705 
L 222.321841 121.18331 
L 223.380255 120.326153 
L 224.085864 120.442531 
L 224.438668 120.510331 
L 224.967875 120.772519 
L 225.320679 120.377661 
L 225.849886 119.249376 
L 226.555495 116.579986 
L 227.084702 115.010699 
L 227.437507 114.349351 
L 227.613909 114.228747 
L 227.790311 114.337538 
L 227.966713 114.654098 
L 228.319518 116.031471 
L 228.848725 119.66735 
L 229.554334 125.738367 
L 230.436345 133.634681 
L 231.671161 142.567276 
L 232.200367 145.32336 
L 232.553172 146.222352 
L 232.905976 146.515417 
L 233.082379 146.372565 
L 233.258781 146.08158 
L 233.611586 144.761647 
L 234.140792 141.611056 
L 235.728413 131.021837 
L 236.081217 130.097846 
L 236.610424 129.903476 
L 236.786826 129.996999 
L 237.139631 130.813325 
L 238.021642 133.806719 
L 240.844078 149.439948 
L 241.373285 150.93109 
L 241.726089 151.303018 
L 241.902492 151.185141 
L 242.255296 150.224949 
L 242.960905 147.200614 
L 243.666514 141.718533 
L 244.195721 135.549048 
L 245.077732 122.08641 
L 246.841755 90.508205 
L 247.370961 84.543348 
L 247.723766 82.466783 
L 247.900168 82.022179 
L 248.07657 82.028076 
L 248.429375 82.970547 
L 248.78218 84.546292 
L 249.311386 88.39438 
L 250.546202 99.283615 
L 251.781018 110.148197 
L 252.310225 112.552747 
L 252.486627 112.754301 
L 252.663029 112.513058 
L 253.015834 111.227608 
L 253.54504 107.918573 
L 254.074247 104.249927 
L 254.427052 103.134726 
L 254.603454 103.089456 
L 254.779856 103.384643 
L 255.132661 105.18338 
L 255.661867 110.109449 
L 256.720281 120.951275 
L 258.660706 136.24181 
L 260.424728 152.425232 
L 261.835946 160.509128 
L 262.365153 166.053649 
L 263.247164 175.456639 
L 263.599969 177.76317 
L 263.952774 178.851521 
L 264.305578 179.397866 
L 264.48198 179.258612 
L 264.834785 177.999073 
L 265.716796 174.029857 
L 266.77521 168.706972 
L 267.304416 166.749746 
L 267.657221 165.12102 
L 268.892037 158.55799 
L 269.244841 157.410282 
L 269.597646 156.388464 
L 270.656059 151.744466 
L 271.538071 144.881348 
L 272.24368 136.867027 
L 272.772886 128.065907 
L 273.654898 107.840248 
L 274.889713 79.613384 
L 276.477334 49.962837 
L 277.182943 40.224819 
L 277.535747 37.217702 
L 277.712149 36.662805 
L 277.888552 36.876971 
L 278.064954 37.75491 
L 278.417758 41.612204 
L 278.770563 48.917489 
L 279.476172 70.477304 
L 281.592999 141.743588 
L 282.47501 164.466782 
L 283.004217 173.087505 
L 283.357022 176.492185 
L 283.709826 178.028683 
L 283.886228 178.118661 
L 284.062631 177.813491 
L 284.415435 176.192364 
L 284.944642 172.186357 
L 285.473849 168.347107 
L 285.826653 167.319094 
L 286.003055 167.123395 
L 286.179458 167.10101 
L 286.35586 167.343528 
L 286.708665 168.662177 
L 287.061469 170.207972 
L 287.414274 170.890576 
L 287.590676 170.942903 
L 287.767078 170.85193 
L 287.94348 170.5982 
L 288.472687 168.794421 
L 289.001894 166.122536 
L 289.531101 161.43001 
L 290.060307 155.070359 
L 290.942319 139.976633 
L 292.000732 117.784723 
L 293.941157 76.5893 
L 294.646766 67.289796 
L 295.175973 64.332175 
L 295.352375 63.863912 
L 295.528777 63.849146 
L 295.70518 64.234059 
L 296.057984 66.26823 
L 296.410789 69.837197 
L 296.939995 78.635859 
L 297.469202 91.171742 
L 298.351213 120.081727 
L 299.409627 157.980628 
L 299.938834 172.495371 
L 300.46804 182.916255 
L 300.820845 187.111473 
L 301.173649 189.584599 
L 301.350052 190.299327 
L 301.526454 190.422761 
L 301.702856 189.797517 
L 302.055661 187.106557 
L 302.584868 181.144394 
L 304.525292 152.364655 
L 305.054499 148.237499 
L 305.583706 146.141624 
L 305.93651 145.215251 
L 306.289315 144.873121 
L 306.994924 143.63123 
L 307.347728 143.74825 
L 307.524131 143.984182 
L 307.876935 144.96262 
L 308.406142 147.083038 
L 308.758946 147.679053 
L 308.935349 147.39816 
L 309.111751 146.626482 
L 309.464556 142.340448 
L 309.81736 134.633645 
L 310.346567 115.709184 
L 312.286992 26.517257 
L 312.639796 21.789999 
L 312.816198 21.582601 
L 312.992601 22.814564 
L 313.345405 28.720414 
L 313.874612 43.511028 
L 316.344243 123.51128 
L 316.87345 131.580417 
L 317.226255 134.316083 
L 317.402657 134.957822 
L 317.579059 134.880378 
L 317.755462 134.062005 
L 318.108266 130.617373 
L 318.637473 123.054731 
L 319.519484 109.000647 
L 320.048691 104.906028 
L 320.577898 102.700422 
L 320.930702 100.843538 
L 321.989116 92.635929 
L 322.165518 92.305686 
L 322.34192 92.509047 
L 322.694725 94.390415 
L 323.047529 97.325234 
L 323.400334 101.881981 
L 323.92954 112.654479 
L 324.987954 136.778651 
L 325.517161 143.875282 
L 326.575574 155.558064 
L 327.104781 162.731604 
L 327.281183 164.164144 
L 327.457586 164.369956 
L 327.633988 163.083786 
L 327.986792 155.62788 
L 328.339597 142.575639 
L 329.045206 104.72921 
L 330.456424 28.651898 
L 330.809228 15.745182 
L 330.985631 12.173104 
L 331.162033 10.867435 
L 331.338435 11.940098 
L 331.69124 20.20486 
L 332.220447 44.827435 
L 333.27886 98.794455 
L 334.337274 139.940903 
L 334.690078 148.576694 
L 335.042883 151.849262 
L 335.219285 151.227867 
L 335.572089 146.05862 
L 336.101296 137.044349 
L 336.630503 129.601023 
L 336.983307 121.0602 
L 337.512514 100.624549 
L 339.100134 23.371167 
L 339.452939 18.88707 
L 339.629341 19.250582 
L 339.805744 21.189829 
L 340.158548 29.657778 
L 340.864157 55.120747 
L 341.922571 97.413461 
L 342.451777 107.472386 
L 342.804582 113.754581 
L 343.157386 123.793884 
L 343.686593 149.190748 
L 345.097811 231.194853 
L 345.274213 234.625827 
L 345.450616 235.700603 
L 345.627018 234.77212 
L 345.979822 229.165607 
L 346.509029 216.502886 
L 347.214638 190.130332 
L 348.978661 123.379323 
L 349.507868 113.136366 
L 349.68427 111.525169 
L 349.860672 110.987987 
L 350.037074 111.565419 
L 350.389879 115.338877 
L 350.742683 123.435968 
L 351.27189 145.975278 
L 351.801097 165.406356 
L 352.153901 170.625824 
L 352.330304 171.136068 
L 352.506706 170.815926 
L 353.035913 168.458498 
L 353.212315 168.665637 
L 353.388717 169.849783 
L 353.741522 176.093732 
L 354.270728 188.004783 
L 354.447131 189.904252 
L 354.623533 190.439561 
L 354.799935 189.517768 
L 355.15274 183.685653 
L 355.505544 173.137391 
L 356.034751 149.247813 
L 357.093165 89.620483 
L 357.269567 85.101258 
L 357.445969 83.487945 
L 357.622371 84.467943 
L 357.975176 90.625379 
L 358.504383 104.74807 
L 359.209992 127.079341 
L 359.562796 131.431814 
L 359.739198 130.798794 
L 360.092003 124.349521 
L 360.62121 113.535454 
L 360.797612 112.833088 
L 360.974014 114.342997 
L 361.326819 124.103444 
L 362.032428 156.013747 
L 363.267244 212.972806 
L 363.620048 219.917938 
L 363.79645 219.860786 
L 363.972853 217.081516 
L 364.325657 202.395674 
L 365.384071 140.583912 
L 365.736875 133.180632 
L 365.913277 132.814998 
L 366.08968 134.413431 
L 366.442484 140.411037 
L 366.795289 149.43859 
L 367.6773 176.306693 
L 367.853702 176.575309 
L 368.030104 174.224738 
L 368.559311 158.46295 
L 369.088518 145.772588 
L 369.26492 143.884227 
L 369.441322 143.719803 
L 369.617725 145.90004 
L 369.970529 158.909098 
L 370.499736 195.746628 
L 371.028943 233.302743 
L 371.381747 245.980432 
L 371.55815 247.409732 
L 371.734552 245.580003 
L 372.087356 235.323494 
L 372.969368 194.436978 
L 373.498574 172.846254 
L 373.851379 167.32166 
L 374.027781 167.257826 
L 374.204183 168.392368 
L 374.909792 176.219446 
L 375.086195 175.198037 
L 375.262597 171.712382 
L 375.615401 158.401793 
L 376.673815 103.011581 
L 376.850217 101.135121 
L 377.026619 102.56812 
L 377.379424 112.758255 
L 378.437838 153.203155 
L 378.61424 152.189562 
L 378.967044 141.337496 
L 379.496251 124.541937 
L 380.025458 114.279431 
L 380.20186 112.445616 
L 380.378262 112.321457 
L 380.554665 114.094024 
L 380.907469 122.27591 
L 381.965883 155.469672 
L 382.142285 155.490741 
L 382.318687 151.936442 
L 382.671492 134.263603 
L 384.435514 16.80532 
L 384.611916 16.914371 
L 384.788319 21.114994 
L 385.317526 49.557333 
L 385.67033 63.562306 
L 385.846732 64.754861 
L 386.023135 62.834751 
L 386.375939 56.535465 
L 386.552341 55.528845 
L 386.728744 56.871103 
L 387.25795 65.354961 
L 387.434353 64.290683 
L 388.139962 50.036328 
L 388.316364 51.996543 
L 388.669168 66.725539 
L 389.198375 107.86464 
L 389.727582 144.872517 
L 390.080386 156.500051 
L 390.256789 157.930375 
L 390.433191 157.241805 
L 390.785995 152.016292 
L 391.1388 141.842108 
L 391.668007 113.512329 
L 392.373616 76.519542 
L 392.72642 68.333849 
L 392.902823 69.09576 
L 393.432029 76.432352 
L 393.784834 78.11881 
L 393.961236 80.230304 
L 394.314041 90.442944 
L 394.843247 109.41791 
L 395.01965 109.583906 
L 395.196052 104.597486 
L 396.078063 61.620928 
L 396.254465 60.856873 
L 396.430868 63.747042 
L 396.960074 84.733802 
L 398.19489 128.799519 
L 398.547695 139.519341 
L 398.724097 141.531996 
L 398.900499 141.451858 
L 399.253304 136.802987 
L 399.606108 129.463477 
L 400.48812 107.084445 
L 401.193729 101.91321 
L 401.546533 98.993291 
L 401.722935 99.404584 
L 402.07574 102.361434 
L 402.252142 101.936198 
L 402.428544 98.06869 
L 403.310556 61.531364 
L 403.839762 65.838161 
L 404.016165 63.996938 
L 404.368969 59.103876 
L 404.545371 60.70333 
L 405.074578 74.803134 
L 405.25098 74.830591 
L 405.780187 68.421784 
L 406.132992 75.840254 
L 406.309394 79.247242 
L 406.485796 79.189999 
L 406.838601 72.638249 
L 407.015003 72.611107 
L 407.191405 77.227345 
L 407.720612 95.538202 
L 407.897014 98.16658 
L 408.073417 102.78677 
L 408.426221 126.536052 
L 408.779026 148.591405 
L 408.955428 150.927217 
L 409.308232 147.893293 
L 409.484635 147.515051 
L 409.661037 146.833882 
L 409.837439 143.441974 
L 410.543048 114.823608 
L 410.71945 114.875444 
L 411.072255 121.457697 
L 411.777864 141.89521 
L 412.307071 165.145174 
L 412.659875 178.739668 
L 412.836277 181.670988 
L 413.01268 181.905673 
L 413.189082 180.763678 
L 413.365484 177.574779 
L 413.718289 162.375499 
L 414.423898 122.301199 
L 414.953104 105.820575 
L 415.305909 97.18713 
L 415.482311 99.925684 
L 415.835116 121.394962 
L 416.364323 151.696107 
L 416.540725 154.621685 
L 416.717127 155.39431 
L 417.069932 154.389805 
L 417.246334 154.346735 
L 417.422736 152.901799 
L 417.599138 149.220101 
L 417.951943 132.348578 
L 418.48115 108.509912 
L 419.186759 83.540986 
L 419.363161 85.422273 
L 420.06877 107.095602 
L 420.421574 115.501227 
L 421.303586 143.257253 
L 421.479988 140.992017 
L 422.361999 104.613689 
L 422.361999 104.613689 
" clip-path="url(#p303b456c61)" style="fill: none; stroke: #009afa"/>
   </g>
   <g id="matplotlib.axis_1">
    <g id="xtick_1">
     <g id="line2d_2">
      <defs>
       <path id="md74e66687d" d="M 0 0 
L 0 -2.5 
" style="stroke: #000000; stroke-width: 0.5"/>
      </defs>
      <g>
       <use xlink:href="#md74e66687d" x="69.557488" y="258.225354" style="stroke: #000000; stroke-width: 0.5"/>
      </g>
     </g>
     <g id="text_1">
      <!-- $0.0$ -->
      <g transform="translate(63.157488 267.804104) scale(0.08 -0.08)">
       <defs>
        <path id="DejaVuSans-30" d="M 2034 4250 
Q 1547 4250 1301 3770 
Q 1056 3291 1056 2328 
Q 1056 1369 1301 889 
Q 1547 409 2034 409 
Q 2525 409 2770 889 
Q 3016 1369 3016 2328 
Q 3016 3291 2770 3770 
Q 2525 4250 2034 4250 
z
M 2034 4750 
Q 2819 4750 3233 4129 
Q 3647 3509 3647 2328 
Q 3647 1150 3233 529 
Q 2819 -91 2034 -91 
Q 1250 -91 836 529 
Q 422 1150 422 2328 
Q 422 3509 836 4129 
Q 1250 4750 2034 4750 
z
" transform="scale(0.015625)"/>
        <path id="DejaVuSans-2e" d="M 684 794 
L 1344 794 
L 1344 0 
L 684 0 
L 684 794 
z
" transform="scale(0.015625)"/>
       </defs>
       <use xlink:href="#DejaVuSans-30" transform="translate(0 0.78125)"/>
       <use xlink:href="#DejaVuSans-2e" transform="translate(63.623047 0.78125)"/>
       <use xlink:href="#DejaVuSans-30" transform="translate(95.410156 0.78125)"/>
      </g>
     </g>
    </g>
    <g id="xtick_2">
     <g id="line2d_3">
      <g>
       <use xlink:href="#md74e66687d" x="157.758616" y="258.225354" style="stroke: #000000; stroke-width: 0.5"/>
      </g>
     </g>
     <g id="text_2">
      <!-- $0.5$ -->
      <g transform="translate(151.358616 267.804104) scale(0.08 -0.08)">
       <defs>
        <path id="DejaVuSans-35" d="M 691 4666 
L 3169 4666 
L 3169 4134 
L 1269 4134 
L 1269 2991 
Q 1406 3038 1543 3061 
Q 1681 3084 1819 3084 
Q 2600 3084 3056 2656 
Q 3513 2228 3513 1497 
Q 3513 744 3044 326 
Q 2575 -91 1722 -91 
Q 1428 -91 1123 -41 
Q 819 9 494 109 
L 494 744 
Q 775 591 1075 516 
Q 1375 441 1709 441 
Q 2250 441 2565 725 
Q 2881 1009 2881 1497 
Q 2881 1984 2565 2268 
Q 2250 2553 1709 2553 
Q 1456 2553 1204 2497 
Q 953 2441 691 2322 
L 691 4666 
z
" transform="scale(0.015625)"/>
       </defs>
       <use xlink:href="#DejaVuSans-30" transform="translate(0 0.78125)"/>
       <use xlink:href="#DejaVuSans-2e" transform="translate(63.623047 0.78125)"/>
       <use xlink:href="#DejaVuSans-35" transform="translate(95.410156 0.78125)"/>
      </g>
     </g>
    </g>
    <g id="xtick_3">
     <g id="line2d_4">
      <g>
       <use xlink:href="#md74e66687d" x="245.959743" y="258.225354" style="stroke: #000000; stroke-width: 0.5"/>
      </g>
     </g>
     <g id="text_3">
      <!-- $1.0$ -->
      <g transform="translate(239.559743 267.804104) scale(0.08 -0.08)">
       <defs>
        <path id="DejaVuSans-31" d="M 794 531 
L 1825 531 
L 1825 4091 
L 703 3866 
L 703 4441 
L 1819 4666 
L 2450 4666 
L 2450 531 
L 3481 531 
L 3481 0 
L 794 0 
L 794 531 
z
" transform="scale(0.015625)"/>
       </defs>
       <use xlink:href="#DejaVuSans-31" transform="translate(0 0.78125)"/>
       <use xlink:href="#DejaVuSans-2e" transform="translate(63.623047 0.78125)"/>
       <use xlink:href="#DejaVuSans-30" transform="translate(95.410156 0.78125)"/>
      </g>
     </g>
    </g>
    <g id="xtick_4">
     <g id="line2d_5">
      <g>
       <use xlink:href="#md74e66687d" x="334.160871" y="258.225354" style="stroke: #000000; stroke-width: 0.5"/>
      </g>
     </g>
     <g id="text_4">
      <!-- $1.5$ -->
      <g transform="translate(327.760871 267.804104) scale(0.08 -0.08)">
       <use xlink:href="#DejaVuSans-31" transform="translate(0 0.09375)"/>
       <use xlink:href="#DejaVuSans-2e" transform="translate(63.623047 0.09375)"/>
       <use xlink:href="#DejaVuSans-35" transform="translate(95.410156 0.09375)"/>
      </g>
     </g>
    </g>
    <g id="xtick_5">
     <g id="line2d_6">
      <g>
       <use xlink:href="#md74e66687d" x="422.361999" y="258.225354" style="stroke: #000000; stroke-width: 0.5"/>
      </g>
     </g>
     <g id="text_5">
      <!-- $2.0$ -->
      <g transform="translate(415.961999 267.804104) scale(0.08 -0.08)">
       <defs>
        <path id="DejaVuSans-32" d="M 1228 531 
L 3431 531 
L 3431 0 
L 469 0 
L 469 531 
Q 828 903 1448 1529 
Q 2069 2156 2228 2338 
Q 2531 2678 2651 2914 
Q 2772 3150 2772 3378 
Q 2772 3750 2511 3984 
Q 2250 4219 1831 4219 
Q 1534 4219 1204 4116 
Q 875 4013 500 3803 
L 500 4441 
Q 881 4594 1212 4672 
Q 1544 4750 1819 4750 
Q 2544 4750 2975 4387 
Q 3406 4025 3406 3419 
Q 3406 3131 3298 2873 
Q 3191 2616 2906 2266 
Q 2828 2175 2409 1742 
Q 1991 1309 1228 531 
z
" transform="scale(0.015625)"/>
       </defs>
       <use xlink:href="#DejaVuSans-32" transform="translate(0 0.78125)"/>
       <use xlink:href="#DejaVuSans-2e" transform="translate(63.623047 0.78125)"/>
       <use xlink:href="#DejaVuSans-30" transform="translate(95.410156 0.78125)"/>
      </g>
     </g>
    </g>
    <g id="text_6">
     <!-- Time (s) -->
     <g transform="translate(223.597947 281.826136) scale(0.11 -0.11)">
      <defs>
       <path id="DejaVuSans-54" d="M -19 4666 
L 3928 4666 
L 3928 4134 
L 2272 4134 
L 2272 0 
L 1638 0 
L 1638 4134 
L -19 4134 
L -19 4666 
z
" transform="scale(0.015625)"/>
       <path id="DejaVuSans-69" d="M 603 3500 
L 1178 3500 
L 1178 0 
L 603 0 
L 603 3500 
z
M 603 4863 
L 1178 4863 
L 1178 4134 
L 603 4134 
L 603 4863 
z
" transform="scale(0.015625)"/>
       <path id="DejaVuSans-6d" d="M 3328 2828 
Q 3544 3216 3844 3400 
Q 4144 3584 4550 3584 
Q 5097 3584 5394 3201 
Q 5691 2819 5691 2113 
L 5691 0 
L 5113 0 
L 5113 2094 
Q 5113 2597 4934 2840 
Q 4756 3084 4391 3084 
Q 3944 3084 3684 2787 
Q 3425 2491 3425 1978 
L 3425 0 
L 2847 0 
L 2847 2094 
Q 2847 2600 2669 2842 
Q 2491 3084 2119 3084 
Q 1678 3084 1418 2786 
Q 1159 2488 1159 1978 
L 1159 0 
L 581 0 
L 581 3500 
L 1159 3500 
L 1159 2956 
Q 1356 3278 1631 3431 
Q 1906 3584 2284 3584 
Q 2666 3584 2933 3390 
Q 3200 3197 3328 2828 
z
" transform="scale(0.015625)"/>
       <path id="DejaVuSans-65" d="M 3597 1894 
L 3597 1613 
L 953 1613 
Q 991 1019 1311 708 
Q 1631 397 2203 397 
Q 2534 397 2845 478 
Q 3156 559 3463 722 
L 3463 178 
Q 3153 47 2828 -22 
Q 2503 -91 2169 -91 
Q 1331 -91 842 396 
Q 353 884 353 1716 
Q 353 2575 817 3079 
Q 1281 3584 2069 3584 
Q 2775 3584 3186 3129 
Q 3597 2675 3597 1894 
z
M 3022 2063 
Q 3016 2534 2758 2815 
Q 2500 3097 2075 3097 
Q 1594 3097 1305 2825 
Q 1016 2553 972 2059 
L 3022 2063 
z
" transform="scale(0.015625)"/>
       <path id="DejaVuSans-20" transform="scale(0.015625)"/>
       <path id="DejaVuSans-28" d="M 1984 4856 
Q 1566 4138 1362 3434 
Q 1159 2731 1159 2009 
Q 1159 1288 1364 580 
Q 1569 -128 1984 -844 
L 1484 -844 
Q 1016 -109 783 600 
Q 550 1309 550 2009 
Q 550 2706 781 3412 
Q 1013 4119 1484 4856 
L 1984 4856 
z
" transform="scale(0.015625)"/>
       <path id="DejaVuSans-73" d="M 2834 3397 
L 2834 2853 
Q 2591 2978 2328 3040 
Q 2066 3103 1784 3103 
Q 1356 3103 1142 2972 
Q 928 2841 928 2578 
Q 928 2378 1081 2264 
Q 1234 2150 1697 2047 
L 1894 2003 
Q 2506 1872 2764 1633 
Q 3022 1394 3022 966 
Q 3022 478 2636 193 
Q 2250 -91 1575 -91 
Q 1294 -91 989 -36 
Q 684 19 347 128 
L 347 722 
Q 666 556 975 473 
Q 1284 391 1588 391 
Q 1994 391 2212 530 
Q 2431 669 2431 922 
Q 2431 1156 2273 1281 
Q 2116 1406 1581 1522 
L 1381 1569 
Q 847 1681 609 1914 
Q 372 2147 372 2553 
Q 372 3047 722 3315 
Q 1072 3584 1716 3584 
Q 2034 3584 2315 3537 
Q 2597 3491 2834 3397 
z
" transform="scale(0.015625)"/>
       <path id="DejaVuSans-29" d="M 513 4856 
L 1013 4856 
Q 1481 4119 1714 3412 
Q 1947 2706 1947 2009 
Q 1947 1309 1714 600 
Q 1481 -109 1013 -844 
L 513 -844 
Q 928 -128 1133 580 
Q 1338 1288 1338 2009 
Q 1338 2731 1133 3434 
Q 928 4138 513 4856 
z
" transform="scale(0.015625)"/>
      </defs>
      <use xlink:href="#DejaVuSans-54"/>
      <use xlink:href="#DejaVuSans-69" x="57.958984"/>
      <use xlink:href="#DejaVuSans-6d" x="85.742188"/>
      <use xlink:href="#DejaVuSans-65" x="183.154297"/>
      <use xlink:href="#DejaVuSans-20" x="244.677734"/>
      <use xlink:href="#DejaVuSans-28" x="276.464844"/>
      <use xlink:href="#DejaVuSans-73" x="315.478516"/>
      <use xlink:href="#DejaVuSans-29" x="367.578125"/>
     </g>
    </g>
   </g>
   <g id="matplotlib.axis_2">
    <g id="ytick_1">
     <g id="line2d_7">
      <defs>
       <path id="m9402288e15" d="M 0 0 
L 2.5 0 
" style="stroke: #000000; stroke-width: 0.5"/>
      </defs>
      <g>
       <use xlink:href="#m9402288e15" x="69.557488" y="223.251155" style="stroke: #000000; stroke-width: 0.5"/>
      </g>
     </g>
     <g id="text_7">
      <!-- $-5.00×10^{5}$ -->
      <g transform="translate(20.777488 226.29053) scale(0.08 -0.08)">
       <defs>
        <path id="DejaVuSans-2212" d="M 678 2272 
L 4684 2272 
L 4684 1741 
L 678 1741 
L 678 2272 
z
" transform="scale(0.015625)"/>
        <path id="DejaVuSans-d7" d="M 4488 3438 
L 3059 2003 
L 4488 575 
L 4116 197 
L 2681 1631 
L 1247 197 
L 878 575 
L 2303 2003 
L 878 3438 
L 1247 3816 
L 2681 2381 
L 4116 3816 
L 4488 3438 
z
" transform="scale(0.015625)"/>
       </defs>
       <use xlink:href="#DejaVuSans-2212" transform="translate(0 0.684375)"/>
       <use xlink:href="#DejaVuSans-35" transform="translate(83.789062 0.684375)"/>
       <use xlink:href="#DejaVuSans-2e" transform="translate(147.412109 0.684375)"/>
       <use xlink:href="#DejaVuSans-30" transform="translate(179.199219 0.684375)"/>
       <use xlink:href="#DejaVuSans-30" transform="translate(242.822266 0.684375)"/>
       <use xlink:href="#DejaVuSans-d7" transform="translate(306.445312 0.684375)"/>
       <use xlink:href="#DejaVuSans-31" transform="translate(390.234375 0.684375)"/>
       <use xlink:href="#DejaVuSans-30" transform="translate(453.857422 0.684375)"/>
       <use xlink:href="#DejaVuSans-35" transform="translate(518.4375 38.965625) scale(0.7)"/>
      </g>
     </g>
    </g>
    <g id="ytick_2">
     <g id="line2d_8">
      <g>
       <use xlink:href="#m9402288e15" x="69.557488" y="174.297081" style="stroke: #000000; stroke-width: 0.5"/>
      </g>
     </g>
     <g id="text_8">
      <!-- $-2.50×10^{5}$ -->
      <g transform="translate(20.777488 177.336456) scale(0.08 -0.08)">
       <use xlink:href="#DejaVuSans-2212" transform="translate(0 0.684375)"/>
       <use xlink:href="#DejaVuSans-32" transform="translate(83.789062 0.684375)"/>
       <use xlink:href="#DejaVuSans-2e" transform="translate(147.412109 0.684375)"/>
       <use xlink:href="#DejaVuSans-35" transform="translate(179.199219 0.684375)"/>
       <use xlink:href="#DejaVuSans-30" transform="translate(242.822266 0.684375)"/>
       <use xlink:href="#DejaVuSans-d7" transform="translate(306.445312 0.684375)"/>
       <use xlink:href="#DejaVuSans-31" transform="translate(390.234375 0.684375)"/>
       <use xlink:href="#DejaVuSans-30" transform="translate(453.857422 0.684375)"/>
       <use xlink:href="#DejaVuSans-35" transform="translate(518.4375 38.965625) scale(0.7)"/>
      </g>
     </g>
    </g>
    <g id="ytick_3">
     <g id="line2d_9">
      <g>
       <use xlink:href="#m9402288e15" x="69.557488" y="125.343006" style="stroke: #000000; stroke-width: 0.5"/>
      </g>
     </g>
     <g id="text_9">
      <!-- $0$ -->
      <g transform="translate(60.937488 128.382381) scale(0.08 -0.08)">
       <use xlink:href="#DejaVuSans-30" transform="translate(0 0.78125)"/>
      </g>
     </g>
    </g>
    <g id="ytick_4">
     <g id="line2d_10">
      <g>
       <use xlink:href="#m9402288e15" x="69.557488" y="76.388932" style="stroke: #000000; stroke-width: 0.5"/>
      </g>
     </g>
     <g id="text_10">
      <!-- $2.50×10^{5}$ -->
      <g transform="translate(27.497488 79.428307) scale(0.08 -0.08)">
       <use xlink:href="#DejaVuSans-32" transform="translate(0 0.684375)"/>
       <use xlink:href="#DejaVuSans-2e" transform="translate(63.623047 0.684375)"/>
       <use xlink:href="#DejaVuSans-35" transform="translate(95.410156 0.684375)"/>
       <use xlink:href="#DejaVuSans-30" transform="translate(159.033203 0.684375)"/>
       <use xlink:href="#DejaVuSans-d7" transform="translate(222.65625 0.684375)"/>
       <use xlink:href="#DejaVuSans-31" transform="translate(306.445312 0.684375)"/>
       <use xlink:href="#DejaVuSans-30" transform="translate(370.068359 0.684375)"/>
       <use xlink:href="#DejaVuSans-35" transform="translate(434.648438 38.965625) scale(0.7)"/>
      </g>
     </g>
    </g>
    <g id="ytick_5">
     <g id="line2d_11">
      <g>
       <use xlink:href="#m9402288e15" x="69.557488" y="27.434857" style="stroke: #000000; stroke-width: 0.5"/>
      </g>
     </g>
     <g id="text_11">
      <!-- $5.00×10^{5}$ -->
      <g transform="translate(27.497488 30.474232) scale(0.08 -0.08)">
       <use xlink:href="#DejaVuSans-35" transform="translate(0 0.684375)"/>
       <use xlink:href="#DejaVuSans-2e" transform="translate(63.623047 0.684375)"/>
       <use xlink:href="#DejaVuSans-30" transform="translate(95.410156 0.684375)"/>
       <use xlink:href="#DejaVuSans-30" transform="translate(159.033203 0.684375)"/>
       <use xlink:href="#DejaVuSans-d7" transform="translate(222.65625 0.684375)"/>
       <use xlink:href="#DejaVuSans-31" transform="translate(306.445312 0.684375)"/>
       <use xlink:href="#DejaVuSans-30" transform="translate(370.068359 0.684375)"/>
       <use xlink:href="#DejaVuSans-35" transform="translate(434.648438 38.965625) scale(0.7)"/>
      </g>
     </g>
    </g>
    <g id="text_12">
     <!-- $M_x$ ($Nm$) -->
     <g transform="translate(14.489831 153.245) rotate(-90) scale(0.11 -0.11)">
      <defs>
       <path id="DejaVuSans-Oblique-4d" d="M 1081 4666 
L 2028 4666 
L 2572 1522 
L 4378 4666 
L 5350 4666 
L 4441 0 
L 3828 0 
L 4622 4091 
L 2791 897 
L 2175 897 
L 1581 4103 
L 788 0 
L 172 0 
L 1081 4666 
z
" transform="scale(0.015625)"/>
       <path id="DejaVuSans-Oblique-78" d="M 3841 3500 
L 2234 1784 
L 3219 0 
L 2559 0 
L 1819 1388 
L 531 0 
L -166 0 
L 1556 1844 
L 641 3500 
L 1300 3500 
L 1972 2234 
L 3144 3500 
L 3841 3500 
z
" transform="scale(0.015625)"/>
       <path id="DejaVuSans-Oblique-4e" d="M 1081 4666 
L 1931 4666 
L 3219 666 
L 4000 4666 
L 4616 4666 
L 3706 0 
L 2853 0 
L 1569 4025 
L 788 0 
L 172 0 
L 1081 4666 
z
" transform="scale(0.015625)"/>
       <path id="DejaVuSans-Oblique-6d" d="M 5747 2113 
L 5338 0 
L 4763 0 
L 5166 2094 
Q 5191 2228 5203 2325 
Q 5216 2422 5216 2491 
Q 5216 2772 5059 2928 
Q 4903 3084 4622 3084 
Q 4203 3084 3875 2770 
Q 3547 2456 3450 1953 
L 3066 0 
L 2491 0 
L 2900 2094 
Q 2925 2209 2937 2307 
Q 2950 2406 2950 2484 
Q 2950 2769 2794 2926 
Q 2638 3084 2363 3084 
Q 1938 3084 1609 2770 
Q 1281 2456 1184 1953 
L 800 0 
L 225 0 
L 909 3500 
L 1484 3500 
L 1375 2956 
Q 1609 3263 1923 3423 
Q 2238 3584 2597 3584 
Q 2978 3584 3223 3384 
Q 3469 3184 3519 2828 
Q 3781 3197 4126 3390 
Q 4472 3584 4856 3584 
Q 5306 3584 5551 3325 
Q 5797 3066 5797 2591 
Q 5797 2488 5784 2364 
Q 5772 2241 5747 2113 
z
" transform="scale(0.015625)"/>
      </defs>
      <use xlink:href="#DejaVuSans-Oblique-4d" transform="translate(0 0.125)"/>
      <use xlink:href="#DejaVuSans-Oblique-78" transform="translate(86.279297 -16.28125) scale(0.7)"/>
      <use xlink:href="#DejaVuSans-20" transform="translate(130.439453 0.125)"/>
      <use xlink:href="#DejaVuSans-28" transform="translate(162.226562 0.125)"/>
      <use xlink:href="#DejaVuSans-Oblique-4e" transform="translate(201.240234 0.125)"/>
      <use xlink:href="#DejaVuSans-Oblique-6d" transform="translate(276.044922 0.125)"/>
      <use xlink:href="#DejaVuSans-29" transform="translate(373.457031 0.125)"/>
     </g>
    </g>
   </g>
   <g id="line2d_12">
    <path d="M 69.557488 125.343006 
L 69.711735 125.240706 
L 69.859691 125.247571 
L 70.338935 125.618234 
L 70.624615 125.430298 
L 70.882644 125.215562 
L 71.070193 125.229364 
L 71.405153 125.432521 
L 71.55087 125.36102 
L 72.016385 124.752906 
L 72.329093 124.959906 
L 72.592143 125.152753 
L 72.866198 125.124665 
L 73.03121 125.186504 
L 73.318008 125.558096 
L 73.620757 125.943325 
L 73.742909 125.927412 
L 74.139507 125.720331 
L 74.464268 125.967688 
L 74.697465 126.080299 
L 74.998627 125.746229 
L 75.239556 125.510183 
L 75.43366 125.520753 
L 75.757166 125.763948 
L 75.886568 125.770808 
L 76.339477 125.415705 
L 77.000915 125.61166 
L 77.607792 125.351623 
L 77.864092 125.463465 
L 78.060412 125.309544 
L 78.649374 124.340342 
L 79.107454 124.043628 
L 79.632211 123.373576 
L 79.763503 123.377448 
L 80.223026 123.777693 
L 80.551256 123.881783 
L 80.748194 124.107435 
L 81.27893 125.036566 
L 81.950862 125.523535 
L 82.434151 126.41572 
L 82.926097 126.659518 
L 83.909989 128.100835 
L 84.192228 128.709855 
L 84.639585 129.718779 
L 85.10424 130.296869 
L 85.702172 131.412839 
L 85.911706 131.45555 
L 86.260928 131.437436 
L 87.507873 132.660764 
L 88.06022 133.649988 
L 88.427514 133.945685 
L 88.815564 134.66252 
L 89.139356 135.09975 
L 89.467599 135.13633 
L 89.722138 135.262288 
L 90.182442 135.777975 
L 90.459858 135.751067 
L 90.832533 135.554266 
L 91.023052 135.615424 
L 91.409341 135.935573 
L 92.133745 136.04812 
L 92.528895 136.264054 
L 92.698998 136.164184 
L 93.209308 135.6241 
L 93.72473 135.387791 
L 94.5325 134.507272 
L 95.120569 134.371713 
L 95.524772 133.898036 
L 95.906559 133.822345 
L 96.180686 133.657343 
L 96.96463 132.728077 
L 97.278669 132.330873 
L 98.038776 130.931141 
L 98.546016 130.573172 
L 98.959715 130.048224 
L 99.175117 130.048777 
L 99.612795 130.238524 
L 99.91286 129.955287 
L 100.326017 129.572677 
L 100.640461 129.407696 
L 100.864611 129.157853 
L 101.438652 128.484224 
L 102.016525 128.127826 
L 102.486667 127.606341 
L 103.157855 127.666396 
L 103.658427 127.319107 
L 104.069633 127.439982 
L 104.275236 127.245366 
L 104.795871 126.537014 
L 105.110903 126.31635 
L 105.530945 125.627071 
L 105.740967 125.381294 
L 105.970195 125.371354 
L 106.329116 125.491602 
L 107.119167 125.189142 
L 107.39486 125.323906 
L 107.646888 125.151788 
L 108.064866 124.661138 
L 108.536616 124.367782 
L 110.377437 121.869072 
L 110.733318 121.913774 
L 111.038367 121.647708 
L 111.370734 121.25085 
L 111.869285 121.099284 
L 112.710738 120.080641 
L 113.047971 119.924778 
L 113.558898 119.532687 
L 114.345565 119.642445 
L 114.902518 119.250011 
L 115.354944 119.306083 
L 115.697077 118.915849 
L 116.03921 118.456052 
L 116.574036 118.104245 
L 117.127051 117.473342 
L 118.246733 117.592743 
L 118.809844 118.073456 
L 119.195309 117.980356 
L 119.589552 117.979563 
L 120.809791 119.105322 
L 121.4701 120.290394 
L 121.923826 121.025101 
L 122.390898 121.924796 
L 123.598216 122.971016 
L 124.102723 122.767879 
L 124.361509 122.918451 
L 124.884986 123.392793 
L 125.422361 123.638636 
L 125.965679 123.992811 
L 127.052984 123.524209 
L 127.596973 122.69072 
L 128.140961 122.464406 
L 128.684949 121.660518 
L 129.772926 121.289214 
L 130.51936 120.913949 
L 131.196279 119.923123 
L 131.562933 119.660708 
L 132.128291 118.842436 
L 132.894375 118.759096 
L 133.277417 118.36777 
L 133.852149 118.29119 
L 134.42788 117.789078 
L 134.812919 117.803923 
L 135.400709 117.206156 
L 136.406149 117.877948 
L 136.808325 118.709602 
L 137.210501 119.54261 
L 137.612676 120.103544 
L 138.21594 121.290592 
L 138.618116 121.768889 
L 139.22138 123.438315 
L 140.22682 126.069114 
L 140.866062 127.63844 
L 142.050922 129.767155 
L 143.334672 131.84372 
L 144.934509 136.031944 
L 145.39657 136.800897 
L 145.951783 137.473694 
L 146.481263 138.19401 
L 147.047327 138.855036 
L 147.556612 139.393479 
L 147.975493 139.54544 
L 148.784528 139.605982 
L 149.148693 139.020823 
L 150.235434 136.333093 
L 151.246218 133.285831 
L 151.760762 131.781024 
L 153.203609 126.97175 
L 154.241563 124.117081 
L 154.786536 122.980183 
L 155.643708 122.458095 
L 155.929432 122.401791 
L 156.504249 122.704599 
L 156.791658 122.626182 
L 157.366476 122.279861 
L 157.941294 122.359344 
L 158.516112 122.089731 
L 159.033363 122.172981 
L 159.730504 121.782726 
L 160.090282 121.732752 
L 160.45006 121.373132 
L 160.809838 120.939037 
L 161.529393 120.47535 
L 161.889171 120.068614 
L 162.06906 120.082184 
L 163.1098 121.118019 
L 163.609032 121.862766 
L 164.150171 122.228852 
L 164.634498 122.808526 
L 165.254173 123.056492 
L 166.084086 124.127717 
L 166.449012 124.46322 
L 166.917915 124.976506 
L 167.264546 124.981823 
L 167.911205 124.766218 
L 168.218379 124.191394 
L 170.508405 117.816192 
L 171.253929 114.713089 
L 172.933474 107.179914 
L 173.464155 105.382388 
L 174.025469 104.425504 
L 174.435021 104.053768 
L 174.853372 104.205024 
L 175.273252 104.715161 
L 175.93167 106.001786 
L 176.383249 107.435995 
L 177.336935 112.239428 
L 178.409192 119.406801 
L 181.707892 142.731382 
L 182.363002 146.345382 
L 183.387478 150.382353 
L 184.432857 152.444781 
L 184.781317 152.769439 
L 185.478237 152.866984 
L 185.826697 152.708586 
L 186.175157 152.381819 
L 186.797793 150.966047 
L 187.346146 149.005146 
L 189.469937 138.908805 
L 191.582087 127.183907 
L 192.064343 125.337445 
L 192.446171 124.716418 
L 192.912249 124.387437 
L 193.169889 124.503173 
L 193.564507 125.133923 
L 194.071032 126.313373 
L 194.751598 128.574411 
L 195.361112 131.502051 
L 196.126908 136.361889 
L 197.738549 145.958184 
L 198.292157 148.131756 
L 199.023447 149.998113 
L 199.752142 150.713303 
L 200.066254 150.784326 
L 200.719704 150.751535 
L 201.050143 150.189996 
L 201.931314 148.276323 
L 203.53955 143.401848 
L 204.40112 139.388153 
L 205.37651 133.205042 
L 206.338707 124.127017 
L 207.42246 111.566101 
L 209.127976 92.347959 
L 209.768796 87.795977 
L 210.239793 86.245393 
L 210.475677 85.931223 
L 210.739179 86.077709 
L 211.007311 86.986749 
L 211.544374 90.389549 
L 212.082233 95.715322 
L 213.426881 112.702603 
L 214.23367 122.374317 
L 215.040459 129.720086 
L 215.578319 132.67046 
L 216.116178 134.293372 
L 216.385108 134.662639 
L 216.654037 134.662135 
L 217.132011 134.032636 
L 217.5501 133.140928 
L 218.879123 128.002991 
L 219.464918 126.008633 
L 220.769479 122.660745 
L 221.305028 121.725805 
L 221.661043 121.25805 
L 222.376769 120.758533 
L 222.690624 120.456534 
L 223.085072 120.470054 
L 223.672477 120.497312 
L 224.290097 121.131731 
L 225.281658 120.323262 
L 225.817458 118.593298 
L 226.692479 115.520727 
L 227.071945 114.598437 
L 227.336418 114.349278 
L 227.549538 114.360648 
L 227.768623 114.558898 
L 227.987709 115.005794 
L 228.284238 116.250302 
L 228.984318 121.041665 
L 229.562696 125.777042 
L 231.163764 139.921508 
L 231.699595 143.593658 
L 232.248384 146.018056 
L 232.488223 146.490544 
L 232.728062 146.555564 
L 232.967901 146.316582 
L 233.32766 145.403257 
L 233.687418 143.797935 
L 234.186358 140.49483 
L 235.223824 133.49891 
L 235.739689 131.077323 
L 236.102716 129.975605 
L 236.476454 129.590678 
L 236.663323 129.572228 
L 236.850192 129.667706 
L 237.037061 129.962881 
L 237.4108 131.142044 
L 238.006084 133.867533 
L 240.715763 148.972468 
L 241.232515 150.625856 
L 241.507658 151.024919 
L 241.782801 151.078337 
L 242.071602 150.777547 
L 242.361528 150.146603 
L 242.651583 149.097132 
L 243.231694 145.552526 
L 243.811805 140.160508 
L 244.391916 132.89394 
L 245.262082 118.045352 
L 246.712359 91.576807 
L 247.29247 85.337613 
L 247.582525 83.479401 
L 247.872581 82.618389 
L 248.162636 82.591255 
L 248.452691 83.287831 
L 249.074921 86.833306 
L 249.734248 92.115707 
L 251.930353 111.611463 
L 252.209512 112.289472 
L 252.327973 112.310324 
L 252.506169 112.043752 
L 252.752158 111.115658 
L 253.250888 108.143542 
L 254.070563 103.399072 
L 254.311618 102.858214 
L 254.442897 102.908913 
L 254.628425 103.396901 
L 254.98726 105.22959 
L 255.463037 108.928831 
L 257.106656 123.688869 
L 257.875031 129.836159 
L 258.967001 140.76064 
L 259.747803 147.875142 
L 260.442517 151.810311 
L 261.069144 155.076086 
L 261.704675 159.929314 
L 262.581665 169.441937 
L 263.194712 175.301236 
L 263.612582 177.498521 
L 263.947526 178.440407 
L 264.173961 178.440504 
L 264.453877 178.000762 
L 264.840874 176.983356 
L 267.585793 166.240511 
L 268.932518 159.091408 
L 270.033401 154.804424 
L 270.352197 153.329325 
L 271.213198 147.587819 
L 271.905446 140.412985 
L 272.424633 132.666316 
L 273.314989 114.477387 
L 275.477979 68.403154 
L 276.904403 42.336518 
L 277.350766 37.528019 
L 277.573948 36.411826 
L 277.722735 36.348554 
L 277.871523 36.879865 
L 278.094705 38.657864 
L 278.466674 44.11549 
L 278.97027 56.202748 
L 279.767636 81.659903 
L 281.877449 151.191203 
L 282.571932 166.652485 
L 283.050602 173.473166 
L 283.437421 176.155672 
L 283.67935 176.549143 
L 283.841502 176.381726 
L 284.084731 175.673648 
L 284.490112 173.55954 
L 285.259771 169.575776 
L 285.614366 168.584683 
L 285.805547 168.578821 
L 286.074685 169.03002 
L 286.934482 170.59854 
L 287.255801 170.734284 
L 287.689944 170.6858 
L 287.865975 170.490666 
L 288.130021 169.838148 
L 288.769181 167.473803 
L 289.154843 164.972182 
L 289.735579 159.432534 
L 290.270839 151.534246 
L 290.999378 137.889321 
L 294.040732 75.330875 
L 294.657844 67.531222 
L 295.158139 63.743786 
L 295.329921 63.208593 
L 295.501703 63.102913 
L 295.673484 63.336387 
L 295.845266 63.906525 
L 296.20009 66.711468 
L 296.737381 74.680287 
L 297.284782 87.957112 
L 298.120524 114.508803 
L 299.562229 162.697611 
L 300.289118 180.158655 
L 300.73974 186.933947 
L 301.097866 189.68962 
L 301.336617 190.336983 
L 301.455992 190.267722 
L 301.667609 189.553959 
L 302.000955 187.159328 
L 302.372015 182.682519 
L 304.471887 153.067118 
L 305.021545 149.450882 
L 305.593661 146.882759 
L 306.31385 144.602882 
L 306.768305 143.823761 
L 307.089893 143.703091 
L 307.304285 143.909947 
L 307.620003 144.75331 
L 308.27689 147.671485 
L 308.671022 148.956326 
L 308.80454 148.996476 
L 308.940198 148.669516 
L 309.15889 147.14128 
L 309.469591 142.607176 
L 309.890855 131.871759 
L 310.409477 110.574147 
L 312.118828 29.663502 
L 312.411488 24.36208 
L 312.607149 23.004624 
L 312.710735 22.928458 
L 312.816816 23.285421 
L 313.028976 25.241067 
L 313.354859 31.172715 
L 314.015092 49.388329 
L 315.189669 89.984571 
L 316.07493 118.818781 
L 316.59116 130.057617 
L 316.943465 134.143619 
L 317.22103 135.338518 
L 317.318057 135.377232 
L 317.513381 134.8409 
L 317.817864 132.408868 
L 318.274572 126.192518 
L 319.310923 110.959857 
L 319.631559 108.344652 
L 319.952196 107.124271 
L 320.272832 106.214105 
L 320.618641 103.826637 
L 321.971905 91.305391 
L 322.163814 91.024236 
L 322.259769 91.101713 
L 322.440723 91.66864 
L 322.745595 93.835387 
L 323.214772 99.415488 
L 323.667651 108.224623 
L 324.921499 135.096993 
L 325.469012 141.537496 
L 326.072395 148.00193 
L 327.298235 165.309352 
L 327.394646 165.034379 
L 327.587469 163.035654 
L 327.883903 156.611285 
L 328.298388 141.551484 
L 329.127358 98.846825 
L 330.641345 15.751687 
L 330.977341 10.105346 
L 331.08934 10.062685 
L 331.201338 10.976911 
L 331.425336 15.607287 
L 331.907138 34.141575 
L 334.267506 140.765626 
L 334.56492 146.585109 
L 334.743368 147.608701 
L 334.802851 147.62881 
L 334.921816 147.309824 
L 335.188194 145.505912 
L 335.729768 141.731219 
L 336.113238 139.821133 
L 336.354605 136.839851 
L 336.689444 129.752098 
L 337.110498 116.000488 
L 337.701472 86.541378 
L 338.671451 37.518976 
L 339.123115 24.628483 
L 339.422532 21.194114 
L 339.473719 21.102353 
L 339.525422 21.154737 
L 339.681069 22.153114 
L 339.940495 26.384527 
L 340.319941 37.768384 
L 341.075067 70.883508 
L 341.653227 91.169163 
L 342.068161 97.763465 
L 342.498784 103.426922 
L 342.852976 111.669067 
L 343.201623 125.397522 
L 343.73604 157.531972 
L 344.69829 216.257259 
L 345.196881 232.54807 
L 345.47256 236.034481 
L 345.565066 236.127339 
L 345.750078 234.771187 
L 346.044273 229.210658 
L 346.522954 214.408782 
L 349.340448 113.755294 
L 349.618375 109.3667 
L 349.803659 108.725006 
L 349.992809 110.273505 
L 350.281206 116.581044 
L 350.870694 137.397708 
L 351.518713 159.493504 
L 351.797415 163.31525 
L 352.009199 163.924409 
L 352.380029 163.785264 
L 352.541617 164.410987 
L 352.788505 166.842213 
L 353.399993 176.95771 
L 354.454053 192.488252 
L 354.619372 193.164262 
L 354.654956 193.153942 
L 354.737196 192.897083 
L 354.882633 191.573341 
L 355.088197 187.593396 
L 355.368097 177.783065 
L 355.817892 152.315946 
L 356.777152 95.206592 
L 357.119407 87.271355 
L 357.290534 86.492159 
L 357.379511 86.787801 
L 357.558496 88.629263 
L 357.832004 94.201228 
L 358.309038 109.625852 
L 358.896789 128.05915 
L 359.097753 130.431806 
L 359.198846 130.527417 
L 359.305023 129.864794 
L 359.53778 126.185592 
L 360.370892 108.619444 
L 360.489908 107.941112 
L 360.608924 108.119019 
L 360.846956 111.198472 
L 361.204004 122.081855 
L 361.801337 151.206559 
L 362.92289 207.595867 
L 363.292457 218.505953 
L 363.481612 219.831784 
L 363.576189 219.17815 
L 363.76614 215.14337 
L 364.05226 203.010218 
L 365.328166 136.51913 
L 365.553646 132.544726 
L 365.671272 131.776906 
L 365.791755 131.905473 
L 366.032721 134.853234 
L 366.39417 145.508563 
L 367.270159 179.051268 
L 367.396911 180.257189 
L 367.523663 179.84496 
L 367.763191 174.892854 
L 368.331425 151.383172 
L 368.71755 140.354308 
L 368.941052 138.495597 
L 369.016662 138.585803 
L 369.177193 139.946904 
L 369.435289 145.540449 
L 369.791307 159.77655 
L 370.282026 190.409888 
L 371.1067 246.521311 
L 371.340246 250.997315 
L 371.424187 250.683308 
L 371.595849 247.178819 
L 371.961111 231.114684 
L 373.002309 179.723452 
L 373.294256 172.742653 
L 373.391571 172.065266 
L 373.488887 172.244785 
L 373.683518 174.698307 
L 374.274798 185.290761 
L 374.484268 186.247333 
L 374.589205 185.714788 
L 374.800196 182.027852 
L 375.116684 169.689668 
L 376.310483 110.381032 
L 376.528143 106.902221 
L 376.636973 107.01466 
L 376.854634 110.597189 
L 377.300187 125.735892 
L 377.984144 148.99748 
L 378.212222 151.293059 
L 378.326261 150.67155 
L 378.558259 146.418747 
L 379.045993 130.548889 
L 379.771899 104.991925 
L 379.902458 104.262202 
L 379.993017 104.794265 
L 380.177136 108.121439 
L 380.48011 118.412606 
L 381.6469 164.268709 
L 381.732211 163.668532 
L 381.902835 159.517828 
L 382.244082 142.458327 
L 383.011887 89.902873 
L 383.833051 30.969293 
L 384.057005 24.3651 
L 384.131657 23.723039 
L 384.206308 23.882195 
L 384.355611 26.380089 
L 384.654216 37.243844 
L 385.243053 59.208984 
L 385.51212 62.990281 
L 385.955022 66.589681 
L 386.289162 69.46078 
L 386.374339 69.166067 
L 386.544691 66.510401 
L 386.800219 57.727744 
L 387.396452 35.08807 
L 387.481628 34.387074 
L 387.566805 34.608666 
L 387.737157 37.587134 
L 387.992685 47.217377 
L 388.434298 74.613248 
L 389.411676 138.041613 
L 389.865898 159.999462 
L 390.070482 164.47294 
L 390.174962 164.97264 
L 390.28509 163.980586 
L 390.509582 157.129903 
L 390.97153 130.718499 
L 391.795689 81.962558 
L 392.031164 78.848061 
L 392.384375 78.397775 
L 392.737586 77.056082 
L 392.855323 77.28979 
L 393.090798 79.715587 
L 393.326272 85.525945 
L 394.032695 107.690275 
L 394.150432 107.558848 
L 394.39509 103.839657 
L 394.665178 95.715912 
L 395.390208 68.213604 
L 395.690811 64.376127 
L 395.845463 63.76821 
L 396.000115 64.049646 
L 396.154767 65.256066 
L 396.46407 71.021097 
L 396.773374 83.189942 
L 397.5265 120.795123 
L 398.061521 136.192749 
L 398.27553 138.254982 
L 398.382534 137.956274 
L 398.596542 135.307608 
L 399.348224 122.639351 
L 399.568549 122.632195 
L 399.678712 122.086537 
L 399.885225 118.557849 
L 400.372106 108.237153 
L 400.438988 108.121364 
L 400.572753 108.685481 
L 400.974048 111.043134 
L 401.107813 111.17666 
L 401.243354 110.743347 
L 401.383212 109.281199 
L 401.604589 104.11156 
L 402.775334 69.743522 
L 403.152337 62.315763 
L 403.347281 60.443851 
L 403.4536 60.188901 
L 403.559919 60.760221 
L 403.772557 64.711434 
L 404.199335 73.588039 
L 404.293552 73.514969 
L 404.670417 70.319015 
L 404.764634 70.651419 
L 405.042433 75.019764 
L 405.275609 77.616627 
L 405.333903 77.470498 
L 405.450727 76.083963 
L 406.0566 64.680422 
L 406.182364 65.547438 
L 406.639416 70.5625 
L 406.835839 71.423393 
L 406.966788 73.42972 
L 407.172627 81.578994 
L 407.955916 122.942265 
L 408.237726 135.513074 
L 408.62626 153.952298 
L 408.695704 154.248292 
L 408.844002 150.873436 
L 410.18313 94.835124 
L 410.28354 93.214078 
L 410.383949 93.361692 
L 410.587148 99.090269 
L 411.022962 126.536247 
L 411.521128 151.916446 
L 412.583374 191.288628 
L 412.651452 191.414399 
L 412.71953 191.190689 
L 412.855686 189.489037 
L 413.065103 182.20034 
L 413.344326 161.507875 
L 413.894224 117.481781 
L 414.15775 110.662324 
L 414.580939 106.156233 
L 414.661762 105.812093 
L 414.74674 105.886488 
L 414.922424 107.804043 
L 415.194614 115.865765 
L 415.557534 135.975403 
L 416.011185 160.738123 
L 416.291529 167.062877 
L 416.480941 167.934403 
L 416.57609 166.758082 
L 416.766447 159.805549 
L 417.591111 116.29319 
L 417.914572 110.22504 
L 418.238034 105.456391 
L 418.778064 89.296649 
L 418.892317 89.573007 
L 419.128739 96.202798 
L 420.39138 143.080879 
L 420.464114 142.93248 
L 420.696769 138.57906 
L 421.17597 129.836585 
L 421.420816 123.191676 
L 422.361999 87.373861 
L 422.361999 87.373861 
" clip-path="url(#p303b456c61)" style="fill: none; stroke: #e36f47"/>
   </g>
   <g id="patch_3">
    <path d="M 69.557488 258.225354 
L 69.557488 2.834646 
" style="fill: none; stroke: #000000; stroke-linejoin: miter; stroke-linecap: square"/>
   </g>
   <g id="patch_4">
    <path d="M 69.557488 258.225354 
L 422.361999 258.225354 
" style="fill: none; stroke: #000000; stroke-linejoin: miter; stroke-linecap: square"/>
   </g>
   <g id="line2d_13">
    <path d="M 69.557488 125.343006 
L 69.716858 125.236054 
L 69.856664 125.242648 
L 70.364019 125.613211 
L 70.652975 125.392519 
L 70.897849 125.210946 
L 71.11069 125.263487 
L 71.400333 125.425286 
L 71.570941 125.340373 
L 72.089373 124.76546 
L 72.853533 125.155268 
L 73.057388 125.186019 
L 73.434159 125.748548 
L 73.681839 125.942146 
L 73.829896 125.895946 
L 74.121907 125.745082 
L 74.294361 125.801913 
L 74.711343 126.082636 
L 74.875798 125.927163 
L 75.308918 125.474848 
L 75.586201 125.648053 
L 75.84628 125.767233 
L 76.161179 125.529662 
L 76.395161 125.438277 
L 76.655679 125.590853 
L 76.909248 125.677776 
L 77.145213 125.499928 
L 77.460749 125.279296 
L 77.716452 125.395544 
L 77.95237 125.421439 
L 78.144561 125.18275 
L 78.729114 124.251045 
L 79.172616 123.99217 
L 79.741412 123.350421 
L 79.982484 123.541868 
L 80.417546 123.872641 
L 80.731783 124.079602 
L 81.096207 124.735598 
L 81.473979 125.209343 
L 81.930577 125.465043 
L 82.913101 126.715785 
L 83.14456 126.9605 
L 84.600507 129.603229 
L 84.980451 130.248326 
L 85.497088 130.973021 
L 85.95592 131.597617 
L 86.276858 131.607697 
L 86.562755 131.670067 
L 86.908467 132.083186 
L 87.407625 132.645924 
L 87.792496 133.07893 
L 88.764826 134.484572 
L 89.805102 135.450771 
L 90.284598 135.597965 
L 90.802518 135.80818 
L 91.48658 135.734774 
L 92.320397 136.137457 
L 93.043929 135.931233 
L 93.397684 135.63287 
L 94.217556 134.83179 
L 95.55215 134.06976 
L 95.958598 133.750904 
L 97.459672 131.949814 
L 98.176164 130.875288 
L 98.771443 130.244709 
L 99.217266 130.076548 
L 99.955026 129.863358 
L 100.587249 129.501348 
L 101.218695 128.759989 
L 101.729984 128.265904 
L 102.92006 127.569587 
L 104.386396 127.056689 
L 105.063345 126.394987 
L 106.043866 125.380497 
L 106.657979 125.103405 
L 107.758313 124.979728 
L 108.359778 124.536618 
L 109.232424 123.476044 
L 110.522383 121.854105 
L 111.393299 121.19943 
L 112.591936 120.409312 
L 113.907621 119.439159 
L 114.669751 119.259001 
L 115.494837 119.062403 
L 116.322073 118.504013 
L 117.391472 117.660141 
L 117.99799 117.460591 
L 118.441441 117.509403 
L 119.189505 117.902403 
L 120.766674 119.215713 
L 121.425677 119.954516 
L 122.42143 121.498782 
L 123.184744 122.637146 
L 123.696657 123.143893 
L 124.348925 123.447315 
L 125.356235 123.528025 
L 127.029955 123.502995 
L 127.701256 123.150106 
L 128.45689 122.367309 
L 129.653915 121.036093 
L 130.46228 120.500809 
L 131.541501 119.814431 
L 133.778637 117.952319 
L 134.498527 117.790434 
L 135.465616 117.867153 
L 136.274094 118.130648 
L 136.815215 118.535652 
L 137.358403 119.237367 
L 137.945634 120.349988 
L 139.341168 123.756499 
L 141.4262 128.579453 
L 143.160553 132.214372 
L 147.068316 139.075131 
L 147.597918 139.411105 
L 148.039466 139.434274 
L 148.488878 139.245216 
L 149.1235 138.659958 
L 149.835667 137.571326 
L 150.609272 135.80483 
L 151.4094 133.316754 
L 153.746522 125.449978 
L 154.60493 123.633774 
L 155.212291 122.754441 
L 155.79734 122.183362 
L 156.39616 121.862294 
L 156.923276 121.786801 
L 157.746512 121.960305 
L 158.749986 122.2367 
L 159.293815 122.194105 
L 159.857936 121.943204 
L 161.958721 120.591354 
L 162.584067 120.605552 
L 163.190484 120.873932 
L 164.072115 121.642785 
L 165.224619 123.141966 
L 166.389129 124.606149 
L 166.877658 124.925819 
L 167.41258 124.947606 
L 167.920847 124.618258 
L 168.505958 123.823977 
L 169.246108 122.226594 
L 170.066652 119.719636 
L 170.946276 116.24289 
L 173.05024 107.208774 
L 173.811412 105.031206 
L 174.333639 104.163334 
L 174.804487 103.882031 
L 175.077995 103.955721 
L 175.542979 104.505217 
L 176.04952 105.736902 
L 176.548286 107.595505 
L 177.291304 111.448972 
L 178.393438 118.886988 
L 181.587968 141.836734 
L 182.521789 146.887047 
L 183.224987 149.730113 
L 183.956188 151.736377 
L 184.446856 152.552509 
L 184.948384 152.968496 
L 185.430213 152.983297 
L 185.899664 152.637665 
L 186.394225 151.883388 
L 186.95667 150.534625 
L 187.512541 148.703361 
L 188.430425 144.754124 
L 189.709634 138.009455 
L 191.313462 129.43595 
L 192.077496 126.29179 
L 192.622787 124.807496 
L 193.099316 124.171521 
L 193.406758 124.123523 
L 193.770431 124.445748 
L 194.217214 125.394289 
L 194.632904 126.792158 
L 195.353994 130.248491 
L 196.3817 136.757126 
L 197.970256 146.871067 
L 198.525208 149.327198 
L 199.104406 150.992183 
L 199.461486 151.566968 
L 199.859095 151.830311 
L 200.236064 151.753989 
L 200.612953 151.404098 
L 201.128561 150.555659 
L 201.800562 148.933166 
L 202.768037 145.822601 
L 203.879236 141.343787 
L 204.761544 136.817504 
L 205.529861 131.645149 
L 206.436063 123.617441 
L 207.457268 112.313946 
L 209.146443 93.479012 
L 209.720776 89.117819 
L 210.22107 86.890179 
L 210.410214 86.487013 
L 210.603858 86.338756 
L 210.801288 86.469039 
L 211.155936 87.422045 
L 211.510433 89.2776 
L 212.025504 93.442639 
L 212.82917 102.598276 
L 214.775917 126.485558 
L 215.489338 131.877597 
L 216.065969 134.326111 
L 216.424577 135.063349 
L 216.81919 135.279818 
L 217.003754 135.191671 
L 217.431827 134.586448 
L 217.839615 133.56279 
L 218.4582 131.357239 
L 220.766681 122.155648 
L 221.317394 121.136218 
L 221.828002 120.619187 
L 222.560683 120.252245 
L 223.396456 120.101208 
L 224.104085 120.230651 
L 224.826757 120.385727 
L 225.294001 120.201162 
L 225.70615 119.681874 
L 226.211704 118.545287 
L 227.325574 115.563532 
L 227.693307 115.217703 
L 227.883412 115.2951 
L 228.188849 115.843076 
L 228.561975 117.263726 
L 229.093323 120.603242 
L 229.952053 127.954537 
L 231.11616 137.725601 
L 231.901852 142.649148 
L 232.385787 144.662992 
L 232.704966 145.438633 
L 233.034607 145.711593 
L 233.331595 145.470993 
L 233.655866 144.681003 
L 234.177636 142.388817 
L 235.228396 135.841425 
L 235.815378 132.815878 
L 236.284865 131.462782 
L 236.590283 131.182772 
L 236.751937 131.22477 
L 237.053415 131.626097 
L 237.459344 132.732172 
L 238.109436 135.441416 
L 239.422226 142.303623 
L 240.585373 147.990502 
L 241.161684 149.879199 
L 241.454188 150.402952 
L 241.730315 150.5593 
L 242.024428 150.322933 
L 242.298183 149.710258 
L 242.688613 148.17978 
L 243.255291 144.648103 
L 243.873002 139.100929 
L 244.497127 131.575746 
L 245.342533 118.265725 
L 247.126476 88.642634 
L 247.618358 84.019697 
L 247.900698 82.545793 
L 248.181421 81.959001 
L 248.29982 81.965213 
L 248.466245 82.211872 
L 248.727944 83.112832 
L 249.120002 85.422518 
L 249.846324 91.472291 
L 252.020411 110.594977 
L 252.437009 112.186321 
L 252.644353 112.438713 
L 252.813101 112.371611 
L 253.056731 111.853274 
L 253.497716 109.945541 
L 254.308748 105.868753 
L 254.567726 105.236256 
L 254.725192 105.145254 
L 254.885138 105.307255 
L 255.202408 106.407159 
L 255.663302 109.655257 
L 257.789117 128.309304 
L 258.625003 134.359075 
L 259.63157 143.822322 
L 260.649161 152.653374 
L 262.455011 166.135365 
L 263.733184 177.878118 
L 264.13497 179.710939 
L 264.437873 180.156373 
L 264.576575 180.099822 
L 264.87997 179.473879 
L 265.283729 177.791912 
L 266.001539 173.488955 
L 267.593183 163.83946 
L 268.865009 157.227584 
L 269.394217 155.426021 
L 270.784073 151.727461 
L 271.163131 149.64466 
L 271.693789 145.307499 
L 272.269528 138.497387 
L 272.901137 128.038746 
L 273.737685 109.275001 
L 275.446413 68.681817 
L 276.428745 51.015654 
L 277.135177 41.685918 
L 277.590174 38.396976 
L 277.835638 37.96083 
L 277.966548 38.196825 
L 278.205057 39.560921 
L 278.486026 42.833612 
L 278.875517 50.421152 
L 279.360248 64.23616 
L 280.527441 106.551128 
L 281.500952 138.399863 
L 282.402816 161.332192 
L 283.004863 172.141329 
L 283.497069 177.321598 
L 283.798048 178.711176 
L 283.966945 178.926397 
L 284.131319 178.777856 
L 284.382646 177.9379 
L 284.749658 175.65513 
L 285.944512 166.950499 
L 286.266457 165.990535 
L 286.405119 165.862919 
L 286.563617 165.917349 
L 286.849123 166.476809 
L 287.408813 168.525402 
L 287.828677 169.89686 
L 288.102061 170.310365 
L 288.262359 170.310354 
L 288.432783 170.092328 
L 288.765306 168.99235 
L 289.102062 166.960844 
L 289.599977 162.293194 
L 290.159849 154.721154 
L 290.998439 139.440299 
L 293.236444 91.539479 
L 294.306096 70.451512 
L 294.807549 64.319425 
L 295.126604 62.352337 
L 295.282803 61.972891 
L 295.422591 61.957632 
L 295.556704 62.225004 
L 295.842423 63.677253 
L 296.277876 68.019064 
L 296.745002 75.217616 
L 297.386995 88.961099 
L 298.201666 112.155908 
L 300.376003 180.411065 
L 300.764587 186.40481 
L 301.168713 189.414218 
L 301.294848 189.725781 
L 301.44041 189.752522 
L 301.653644 189.193101 
L 301.878756 187.922488 
L 302.261437 184.492926 
L 302.861184 176.823373 
L 304.76233 150.062218 
L 305.260565 146.427017 
L 305.626032 145.051673 
L 305.98508 144.529493 
L 306.264826 144.504422 
L 306.644234 144.699286 
L 307.135538 145.227739 
L 307.745993 146.284203 
L 308.563836 147.871219 
L 308.739054 147.851104 
L 308.900665 147.539159 
L 309.149305 146.286449 
L 309.401101 143.756605 
L 309.685312 138.934458 
L 310.081859 128.063928 
L 310.596091 106.868934 
L 312.340994 27.388648 
L 312.641066 22.328699 
L 312.849643 21.15713 
L 312.949707 21.267538 
L 313.175626 23.031352 
L 313.519508 29.279032 
L 313.98242 42.845525 
L 314.910754 78.89305 
L 315.774955 110.181138 
L 316.281119 122.851493 
L 316.76799 130.342289 
L 317.100896 132.982372 
L 317.373313 133.727061 
L 317.492671 133.679464 
L 317.644071 133.319206 
L 317.894571 132.052222 
L 318.274186 128.868084 
L 319.040385 119.878263 
L 319.988278 109.140328 
L 321.858432 91.773657 
L 322.133116 91.202051 
L 322.315115 91.489723 
L 322.590214 92.877986 
L 322.975603 96.533443 
L 323.432152 103.213569 
L 324.118456 117.443903 
L 325.049984 137.142955 
L 325.704014 146.093668 
L 326.607276 157.747631 
L 327.176782 164.547738 
L 327.365414 165.3457 
L 327.468353 165.26661 
L 327.649134 164.092872 
L 327.846668 161.140544 
L 328.15866 152.788296 
L 328.619024 133.023713 
L 329.462986 83.816044 
L 330.428325 30.323823 
L 330.887602 15.037386 
L 331.123569 11.808339 
L 331.19783 11.54052 
L 331.266579 11.620748 
L 331.411637 12.822312 
L 331.605965 16.555717 
L 331.933534 27.627153 
L 332.610088 61.422236 
L 333.653592 111.692215 
L 334.420786 139.198139 
L 334.850368 148.038504 
L 335.087856 149.862004 
L 335.164201 149.991142 
L 335.234581 149.930327 
L 335.358262 149.449362 
L 335.638289 147.050677 
L 336.229663 139.343049 
L 336.67251 131.215462 
L 337.063714 120.25537 
L 337.588533 98.648261 
L 339.236999 21.987281 
L 339.525454 18.041626 
L 339.603096 17.788832 
L 339.684168 17.894741 
L 339.864854 19.455493 
L 340.129181 24.741929 
L 340.542562 38.363806 
L 342.227081 101.71817 
L 343.02625 119.500385 
L 343.492597 137.99541 
L 344.034033 169.730942 
L 344.973554 224.5674 
L 345.322673 234.156697 
L 345.575465 236.21407 
L 345.650576 236.101867 
L 345.790606 235.102065 
L 346.070653 230.467233 
L 346.512853 217.807169 
L 347.491099 180.110698 
L 349.000484 124.672884 
L 349.486968 113.846745 
L 349.778286 110.964251 
L 349.909674 110.6137 
L 349.972387 110.66222 
L 350.105474 111.24687 
L 350.318088 113.623539 
L 350.6041 119.820853 
L 351.072132 136.312781 
L 351.79351 161.67145 
L 352.160175 167.978187 
L 352.419069 169.447702 
L 352.584223 169.45073 
L 353.02725 168.614909 
L 353.093499 168.685962 
L 353.219388 169.131912 
L 353.434807 170.974086 
L 353.814183 177.05313 
L 354.471455 187.660108 
L 354.735126 188.922024 
L 354.813605 188.807992 
L 354.965967 187.881304 
L 355.196877 184.578423 
L 355.528322 175.563696 
L 355.924691 158.137314 
L 357.319079 88.893934 
L 357.514026 87.02911 
L 357.5864 86.969299 
L 357.690559 87.428423 
L 357.877416 89.657154 
L 358.223688 97.31052 
L 359.438248 128.262505 
L 359.636218 129.183425 
L 359.764135 128.707476 
L 360.000854 125.896597 
L 360.726033 115.571643 
L 360.78467 115.571188 
L 360.900362 116.169088 
L 361.101099 119.096924 
L 361.398575 127.344255 
L 361.926905 149.384068 
L 363.393957 215.148825 
L 363.679529 219.189488 
L 363.729214 219.249717 
L 363.845123 218.578009 
L 364.017474 215.424612 
L 364.321059 203.900559 
L 364.965304 165.117529 
L 365.47621 141.226746 
L 365.803682 135.122031 
L 366.000661 134.491516 
L 366.133749 135.087055 
L 366.340103 137.435728 
L 366.641053 143.881323 
L 367.127002 160.697655 
L 367.591116 174.584059 
L 367.783917 176.276583 
L 367.842069 176.187966 
L 367.95179 175.282926 
L 368.174479 170.878826 
L 369.190359 144.859248 
L 369.316519 144.346398 
L 369.368102 144.413906 
L 369.492825 145.296194 
L 369.717352 149.71816 
L 369.996019 160.820354 
L 370.45969 191.084224 
L 371.125013 233.420842 
L 371.428188 241.986427 
L 371.585387 243.195803 
L 371.639329 243.130963 
L 371.758134 242.172127 
L 371.978471 237.645121 
L 372.33837 223.846141 
L 373.452332 175.163787 
L 373.766583 170.385937 
L 373.944153 169.736789 
L 374.073886 170.106718 
L 374.32941 172.348346 
L 374.733304 175.818959 
L 374.788972 175.880448 
L 374.917773 175.387341 
L 375.116087 172.697906 
L 375.358754 166.08794 
L 375.759673 147.743443 
L 376.533213 108.561628 
L 376.745806 105.202009 
L 376.811295 104.995342 
L 376.867789 105.098105 
L 377.043309 106.848328 
L 377.338921 113.698876 
L 377.782413 130.980755 
L 378.19374 145.724274 
L 378.398303 148.015132 
L 378.461849 147.89657 
L 378.593695 146.546363 
L 378.910818 139.131372 
L 379.877854 113.42574 
L 380.066213 111.88884 
L 380.135488 111.790009 
L 380.186131 111.874422 
L 380.311893 112.642751 
L 380.524106 115.639155 
L 380.83761 123.638948 
L 381.362068 144.658462 
L 381.779457 158.31911 
L 381.93843 159.505502 
L 382.036481 158.748361 
L 382.241698 153.552381 
L 382.599425 135.851469 
L 383.263325 89.732358 
L 384.135996 27.668047 
L 384.388188 21.454279 
L 384.44091 21.239557 
L 384.49413 21.394794 
L 384.643454 23.66757 
L 384.919578 33.064358 
L 385.509699 53.482021 
L 385.740818 55.88074 
L 385.913488 56.148206 
L 386.122371 56.23284 
L 386.290289 56.878956 
L 386.792292 59.947537 
L 386.849016 59.905453 
L 386.964841 59.342936 
L 387.185846 56.50942 
L 387.846735 46.037566 
L 387.895455 46.021 
L 388.001055 46.613477 
L 388.156245 49.172536 
L 388.41886 58.405164 
L 388.786602 80.842904 
L 389.677898 139.13131 
L 390.126119 154.115957 
L 390.379317 157.325959 
L 390.438108 157.448756 
L 390.494358 157.333342 
L 390.63874 155.969862 
L 390.847023 151.279831 
L 391.193546 137.001314 
L 392.391517 78.39715 
L 392.628016 76.778957 
L 392.906354 76.471582 
L 393.246646 76.172576 
L 393.360177 76.56184 
L 393.563741 78.742431 
L 393.795466 84.026851 
L 394.547943 104.062357 
L 394.652702 104.339508 
L 394.778722 103.427222 
L 394.970868 99.597978 
L 395.387877 84.581224 
L 395.891788 68.271991 
L 396.156014 65.471109 
L 396.215964 65.422661 
L 396.328125 65.837593 
L 396.552116 68.378575 
L 396.845166 74.830049 
L 397.212821 88.404639 
L 398.204099 129.437592 
L 398.601553 136.298837 
L 398.795085 137.458689 
L 398.886418 137.379312 
L 399.028473 136.419765 
L 399.271886 132.789502 
L 400.921068 103.097116 
L 401.057162 102.52875 
L 401.107823 102.573783 
L 401.266932 103.376672 
L 401.586969 105.114534 
L 401.685092 104.820941 
L 401.835385 103.159927 
L 402.136412 96.014269 
L 402.842657 78.123528 
L 403.96318 59.831901 
L 403.996197 59.839241 
L 404.119802 60.407035 
L 404.367712 63.295424 
L 404.795763 67.794686 
L 405.291995 70.873486 
L 405.894625 76.48611 
L 406.002198 76.167244 
L 406.376034 74.183049 
L 406.415051 74.221342 
L 406.531288 74.845345 
L 406.780071 78.28418 
L 407.52848 92.67194 
L 407.925726 110.899758 
L 408.413142 129.197941 
L 409.152463 146.397596 
L 409.205634 146.450656 
L 409.303496 145.784064 
L 409.512381 141.637628 
L 410.520374 116.994213 
L 410.707235 115.463363 
L 410.753344 115.476484 
L 410.845239 116.033461 
L 410.997723 118.581068 
L 411.258158 127.319456 
L 412.562452 180.298484 
L 412.874377 185.202047 
L 412.962001 185.384476 
L 413.059107 184.848855 
L 413.228523 182.029489 
L 413.479621 173.519193 
L 413.864224 150.337303 
L 414.523084 109.045095 
L 414.757942 105.388189 
L 414.80606 105.288505 
L 414.854581 105.346589 
L 414.994901 106.175042 
L 415.284381 109.591122 
L 415.620653 116.208657 
L 415.962875 128.075851 
L 416.754589 158.908821 
L 416.872149 159.527133 
L 416.967734 159.00766 
L 417.146477 155.831896 
L 417.448925 145.00321 
L 418.507171 100.714949 
L 418.847881 96.660936 
L 419.244853 93.847457 
L 419.325143 93.767996 
L 419.364003 93.854288 
L 419.500323 95.001185 
L 419.665515 98.487209 
L 420.045416 113.550142 
L 420.567716 132.269071 
L 420.892664 137.143408 
L 420.966767 137.285433 
L 421.003519 137.187173 
L 421.134349 135.855442 
L 421.345093 130.652014 
L 422.361999 99.964939 
L 422.361999 99.964939 
" clip-path="url(#p303b456c61)" style="fill: none; stroke: #3ea44e"/>
   </g>
   <g id="legend_1">
    <g id="patch_5">
     <path d="M 332.945749 50.862146 
L 418.361999 50.862146 
L 418.361999 6.834646 
L 332.945749 6.834646 
z
" style="fill: #ffffff; stroke: #000000; stroke-linejoin: miter"/>
    </g>
    <g id="line2d_14">
     <path d="M 339.345749 16.513396 
L 347.345749 16.513396 
L 355.345749 16.513396 
" style="fill: none; stroke: #009afa; stroke-linejoin: miter"/>
    </g>
    <g id="text_13">
     <!-- GXBeam -->
     <g transform="translate(361.745749 19.313396) scale(0.08 -0.08)">
      <defs>
       <path id="DejaVuSans-47" d="M 3809 666 
L 3809 1919 
L 2778 1919 
L 2778 2438 
L 4434 2438 
L 4434 434 
Q 4069 175 3628 42 
Q 3188 -91 2688 -91 
Q 1594 -91 976 548 
Q 359 1188 359 2328 
Q 359 3472 976 4111 
Q 1594 4750 2688 4750 
Q 3144 4750 3555 4637 
Q 3966 4525 4313 4306 
L 4313 3634 
Q 3963 3931 3569 4081 
Q 3175 4231 2741 4231 
Q 1884 4231 1454 3753 
Q 1025 3275 1025 2328 
Q 1025 1384 1454 906 
Q 1884 428 2741 428 
Q 3075 428 3337 486 
Q 3600 544 3809 666 
z
" transform="scale(0.015625)"/>
       <path id="DejaVuSans-58" d="M 403 4666 
L 1081 4666 
L 2241 2931 
L 3406 4666 
L 4084 4666 
L 2584 2425 
L 4184 0 
L 3506 0 
L 2194 1984 
L 872 0 
L 191 0 
L 1856 2491 
L 403 4666 
z
" transform="scale(0.015625)"/>
       <path id="DejaVuSans-42" d="M 1259 2228 
L 1259 519 
L 2272 519 
Q 2781 519 3026 730 
Q 3272 941 3272 1375 
Q 3272 1813 3026 2020 
Q 2781 2228 2272 2228 
L 1259 2228 
z
M 1259 4147 
L 1259 2741 
L 2194 2741 
Q 2656 2741 2882 2914 
Q 3109 3088 3109 3444 
Q 3109 3797 2882 3972 
Q 2656 4147 2194 4147 
L 1259 4147 
z
M 628 4666 
L 2241 4666 
Q 2963 4666 3353 4366 
Q 3744 4066 3744 3513 
Q 3744 3084 3544 2831 
Q 3344 2578 2956 2516 
Q 3422 2416 3680 2098 
Q 3938 1781 3938 1306 
Q 3938 681 3513 340 
Q 3088 0 2303 0 
L 628 0 
L 628 4666 
z
" transform="scale(0.015625)"/>
       <path id="DejaVuSans-61" d="M 2194 1759 
Q 1497 1759 1228 1600 
Q 959 1441 959 1056 
Q 959 750 1161 570 
Q 1363 391 1709 391 
Q 2188 391 2477 730 
Q 2766 1069 2766 1631 
L 2766 1759 
L 2194 1759 
z
M 3341 1997 
L 3341 0 
L 2766 0 
L 2766 531 
Q 2569 213 2275 61 
Q 1981 -91 1556 -91 
Q 1019 -91 701 211 
Q 384 513 384 1019 
Q 384 1609 779 1909 
Q 1175 2209 1959 2209 
L 2766 2209 
L 2766 2266 
Q 2766 2663 2505 2880 
Q 2244 3097 1772 3097 
Q 1472 3097 1187 3025 
Q 903 2953 641 2809 
L 641 3341 
Q 956 3463 1253 3523 
Q 1550 3584 1831 3584 
Q 2591 3584 2966 3190 
Q 3341 2797 3341 1997 
z
" transform="scale(0.015625)"/>
      </defs>
      <use xlink:href="#DejaVuSans-47"/>
      <use xlink:href="#DejaVuSans-58" x="77.490234"/>
      <use xlink:href="#DejaVuSans-42" x="145.996094"/>
      <use xlink:href="#DejaVuSans-65" x="214.599609"/>
      <use xlink:href="#DejaVuSans-61" x="276.123047"/>
      <use xlink:href="#DejaVuSans-6d" x="337.402344"/>
     </g>
    </g>
    <g id="line2d_15">
     <path d="M 339.345749 28.255896 
L 347.345749 28.255896 
L 355.345749 28.255896 
" style="fill: none; stroke: #e36f47; stroke-linejoin: miter"/>
    </g>
    <g id="text_14">
     <!-- ODEProblem -->
     <g transform="translate(361.745749 31.055896) scale(0.08 -0.08)">
      <defs>
       <path id="DejaVuSans-4f" d="M 2522 4238 
Q 1834 4238 1429 3725 
Q 1025 3213 1025 2328 
Q 1025 1447 1429 934 
Q 1834 422 2522 422 
Q 3209 422 3611 934 
Q 4013 1447 4013 2328 
Q 4013 3213 3611 3725 
Q 3209 4238 2522 4238 
z
M 2522 4750 
Q 3503 4750 4090 4092 
Q 4678 3434 4678 2328 
Q 4678 1225 4090 567 
Q 3503 -91 2522 -91 
Q 1538 -91 948 565 
Q 359 1222 359 2328 
Q 359 3434 948 4092 
Q 1538 4750 2522 4750 
z
" transform="scale(0.015625)"/>
       <path id="DejaVuSans-44" d="M 1259 4147 
L 1259 519 
L 2022 519 
Q 2988 519 3436 956 
Q 3884 1394 3884 2338 
Q 3884 3275 3436 3711 
Q 2988 4147 2022 4147 
L 1259 4147 
z
M 628 4666 
L 1925 4666 
Q 3281 4666 3915 4102 
Q 4550 3538 4550 2338 
Q 4550 1131 3912 565 
Q 3275 0 1925 0 
L 628 0 
L 628 4666 
z
" transform="scale(0.015625)"/>
       <path id="DejaVuSans-45" d="M 628 4666 
L 3578 4666 
L 3578 4134 
L 1259 4134 
L 1259 2753 
L 3481 2753 
L 3481 2222 
L 1259 2222 
L 1259 531 
L 3634 531 
L 3634 0 
L 628 0 
L 628 4666 
z
" transform="scale(0.015625)"/>
       <path id="DejaVuSans-50" d="M 1259 4147 
L 1259 2394 
L 2053 2394 
Q 2494 2394 2734 2622 
Q 2975 2850 2975 3272 
Q 2975 3691 2734 3919 
Q 2494 4147 2053 4147 
L 1259 4147 
z
M 628 4666 
L 2053 4666 
Q 2838 4666 3239 4311 
Q 3641 3956 3641 3272 
Q 3641 2581 3239 2228 
Q 2838 1875 2053 1875 
L 1259 1875 
L 1259 0 
L 628 0 
L 628 4666 
z
" transform="scale(0.015625)"/>
       <path id="DejaVuSans-72" d="M 2631 2963 
Q 2534 3019 2420 3045 
Q 2306 3072 2169 3072 
Q 1681 3072 1420 2755 
Q 1159 2438 1159 1844 
L 1159 0 
L 581 0 
L 581 3500 
L 1159 3500 
L 1159 2956 
Q 1341 3275 1631 3429 
Q 1922 3584 2338 3584 
Q 2397 3584 2469 3576 
Q 2541 3569 2628 3553 
L 2631 2963 
z
" transform="scale(0.015625)"/>
       <path id="DejaVuSans-6f" d="M 1959 3097 
Q 1497 3097 1228 2736 
Q 959 2375 959 1747 
Q 959 1119 1226 758 
Q 1494 397 1959 397 
Q 2419 397 2687 759 
Q 2956 1122 2956 1747 
Q 2956 2369 2687 2733 
Q 2419 3097 1959 3097 
z
M 1959 3584 
Q 2709 3584 3137 3096 
Q 3566 2609 3566 1747 
Q 3566 888 3137 398 
Q 2709 -91 1959 -91 
Q 1206 -91 779 398 
Q 353 888 353 1747 
Q 353 2609 779 3096 
Q 1206 3584 1959 3584 
z
" transform="scale(0.015625)"/>
       <path id="DejaVuSans-62" d="M 3116 1747 
Q 3116 2381 2855 2742 
Q 2594 3103 2138 3103 
Q 1681 3103 1420 2742 
Q 1159 2381 1159 1747 
Q 1159 1113 1420 752 
Q 1681 391 2138 391 
Q 2594 391 2855 752 
Q 3116 1113 3116 1747 
z
M 1159 2969 
Q 1341 3281 1617 3432 
Q 1894 3584 2278 3584 
Q 2916 3584 3314 3078 
Q 3713 2572 3713 1747 
Q 3713 922 3314 415 
Q 2916 -91 2278 -91 
Q 1894 -91 1617 61 
Q 1341 213 1159 525 
L 1159 0 
L 581 0 
L 581 4863 
L 1159 4863 
L 1159 2969 
z
" transform="scale(0.015625)"/>
       <path id="DejaVuSans-6c" d="M 603 4863 
L 1178 4863 
L 1178 0 
L 603 0 
L 603 4863 
z
" transform="scale(0.015625)"/>
      </defs>
      <use xlink:href="#DejaVuSans-4f"/>
      <use xlink:href="#DejaVuSans-44" x="78.710938"/>
      <use xlink:href="#DejaVuSans-45" x="155.712891"/>
      <use xlink:href="#DejaVuSans-50" x="218.896484"/>
      <use xlink:href="#DejaVuSans-72" x="277.449219"/>
      <use xlink:href="#DejaVuSans-6f" x="316.3125"/>
      <use xlink:href="#DejaVuSans-62" x="377.494141"/>
      <use xlink:href="#DejaVuSans-6c" x="440.970703"/>
      <use xlink:href="#DejaVuSans-65" x="468.753906"/>
      <use xlink:href="#DejaVuSans-6d" x="530.277344"/>
     </g>
    </g>
    <g id="line2d_16">
     <path d="M 339.345749 39.998396 
L 347.345749 39.998396 
L 355.345749 39.998396 
" style="fill: none; stroke: #3ea44e; stroke-linejoin: miter"/>
    </g>
    <g id="text_15">
     <!-- DAEProblem -->
     <g transform="translate(361.745749 42.798396) scale(0.08 -0.08)">
      <defs>
       <path id="DejaVuSans-41" d="M 2188 4044 
L 1331 1722 
L 3047 1722 
L 2188 4044 
z
M 1831 4666 
L 2547 4666 
L 4325 0 
L 3669 0 
L 3244 1197 
L 1141 1197 
L 716 0 
L 50 0 
L 1831 4666 
z
" transform="scale(0.015625)"/>
      </defs>
      <use xlink:href="#DejaVuSans-44"/>
      <use xlink:href="#DejaVuSans-41" x="75.251953"/>
      <use xlink:href="#DejaVuSans-45" x="143.660156"/>
      <use xlink:href="#DejaVuSans-50" x="206.84375"/>
      <use xlink:href="#DejaVuSans-72" x="265.396484"/>
      <use xlink:href="#DejaVuSans-6f" x="304.259766"/>
      <use xlink:href="#DejaVuSans-62" x="365.441406"/>
      <use xlink:href="#DejaVuSans-6c" x="428.917969"/>
      <use xlink:href="#DejaVuSans-65" x="456.701172"/>
      <use xlink:href="#DejaVuSans-6d" x="518.224609"/>
     </g>
    </g>
   </g>
  </g>
 </g>
 <defs>
  <clipPath id="p303b456c61">
   <rect x="69.557488" y="2.834646" width="352.804512" height="255.390709"/>
  </clipPath>
 </defs>
</svg>
