<?xml version="1.0" encoding="utf-8" standalone="no"?>
<!DOCTYPE svg PUBLIC "-//W3C//DTD SVG 1.1//EN"
  "http://www.w3.org/Graphics/SVG/1.1/DTD/svg11.dtd">
<svg xmlns:xlink="http://www.w3.org/1999/xlink" width="432pt" height="288pt" viewBox="0 0 432 288" xmlns="http://www.w3.org/2000/svg" version="1.1">
 <metadata>
  <rdf:RDF xmlns:dc="http://purl.org/dc/elements/1.1/" xmlns:cc="http://creativecommons.org/ns#" xmlns:rdf="http://www.w3.org/1999/02/22-rdf-syntax-ns#">
   <cc:Work>
    <dc:type rdf:resource="http://purl.org/dc/dcmitype/StillImage"/>
    <dc:date>2023-04-05T00:58:23.288338</dc:date>
    <dc:format>image/svg+xml</dc:format>
    <dc:creator>
     <cc:Agent>
      <dc:title>Matplotlib v3.7.1, https://matplotlib.org/</dc:title>
     </cc:Agent>
    </dc:creator>
   </cc:Work>
  </rdf:RDF>
 </metadata>
 <defs>
  <style type="text/css">*{stroke-linejoin: round; stroke-linecap: butt}</style>
 </defs>
 <g id="figure_1">
  <g id="patch_1">
   <path d="M 0 288 
L 432 288 
L 432 0 
L 0 0 
z
" style="fill: #ffffff"/>
  </g>
  <g id="axes_1">
   <g id="patch_2">
    <path d="M 36.567899 258.225354 
L 422.361999 258.225354 
L 422.361999 2.834646 
L 36.567899 2.834646 
z
" style="fill: #ffffff"/>
   </g>
   <g id="line2d_1">
    <path d="M 36.567899 135.641886 
L 41.390325 135.540395 
L 44.283781 135.227297 
L 47.370134 134.691411 
L 49.684898 133.977656 
L 52.385457 132.82727 
L 54.700222 131.957139 
L 56.436295 131.132116 
L 58.172368 130.056335 
L 63.380589 126.548001 
L 65.309559 125.413817 
L 68.395912 123.768678 
L 69.746191 123.305351 
L 72.253853 122.503286 
L 74.182824 121.706467 
L 76.497588 120.665104 
L 77.462073 120.408205 
L 78.619456 120.327707 
L 79.583941 120.478818 
L 80.548426 120.860505 
L 82.091603 121.688197 
L 85.949544 124.078299 
L 86.914029 124.364067 
L 88.071411 124.465752 
L 89.035896 124.302058 
L 90.193279 123.809972 
L 92.315146 122.901951 
L 93.086735 122.765145 
L 94.244117 122.792911 
L 95.015705 123.045184 
L 95.787293 123.524241 
L 96.751779 124.41557 
L 97.716264 125.615966 
L 98.680749 127.146905 
L 99.838131 129.464579 
L 101.188411 132.757438 
L 102.924484 137.660081 
L 104.853455 143.865427 
L 106.975322 151.280638 
L 109.09719 158.600702 
L 110.254572 161.831567 
L 111.219057 163.833395 
L 111.797748 164.607781 
L 112.37644 165.0232 
L 112.762234 165.078008 
L 113.148028 164.940572 
L 113.726719 164.403883 
L 114.30541 163.470523 
L 114.884101 162.147002 
L 115.655689 159.710109 
L 116.620175 155.660452 
L 117.777557 149.490929 
L 119.706527 137.57059 
L 121.635498 126.004969 
L 122.79288 120.376189 
L 123.757366 116.58402 
L 124.914748 112.891327 
L 126.07213 109.953028 
L 127.422409 107.145506 
L 131.087453 100.152753 
L 132.051939 98.854033 
L 132.823527 98.251263 
L 133.402218 98.04056 
L 133.788012 98.060605 
L 134.366703 98.37017 
L 134.945394 98.974613 
L 135.716983 100.24898 
L 136.681468 102.410135 
L 137.83885 105.605732 
L 141.1181 115.295561 
L 141.889688 116.870322 
L 142.468379 117.680882 
L 143.047071 118.139812 
L 143.432865 118.228746 
L 143.818659 118.136956 
L 144.39735 117.689534 
L 144.976041 116.933799 
L 145.747629 115.590069 
L 149.219776 108.645164 
L 149.991364 107.730363 
L 150.762953 107.046472 
L 151.920335 106.404222 
L 152.88482 106.131495 
L 153.849305 106.100674 
L 155.199585 106.354648 
L 155.971173 106.727622 
L 156.742761 107.38329 
L 157.514349 108.43999 
L 158.285938 109.965107 
L 159.057526 112.024855 
L 159.829114 114.682881 
L 160.600702 118.069401 
L 161.565187 123.306086 
L 162.915467 132.061556 
L 166.966305 159.292825 
L 168.316584 166.078241 
L 169.859761 172.520936 
L 171.017143 176.440601 
L 171.981628 179.024119 
L 172.753216 180.45758 
L 173.331907 180.987116 
L 173.717702 181.025067 
L 174.103496 180.717608 
L 174.48929 180.049339 
L 174.875084 178.982969 
L 175.453775 176.557371 
L 176.032466 173.116354 
L 176.804054 166.83162 
L 177.575643 158.523231 
L 178.540128 145.264734 
L 179.890407 122.704877 
L 181.819378 90.394537 
L 182.783863 78.129899 
L 183.555451 71.276063 
L 184.134142 68.066285 
L 184.519936 66.82797 
L 184.90573 66.244608 
L 185.098627 66.167218 
L 185.484422 66.37168 
L 185.870216 66.985937 
L 186.641804 68.933949 
L 187.606289 71.370373 
L 187.992083 71.980011 
L 188.377877 72.242912 
L 188.570774 72.202743 
L 188.956568 71.739822 
L 189.342363 70.768278 
L 189.728157 69.245692 
L 190.306848 65.866492 
L 191.078436 59.666559 
L 193.200304 41.158861 
L 193.778995 38.403883 
L 194.164789 37.519653 
L 194.357686 37.38304 
L 194.550583 37.454213 
L 194.74348 37.737856 
L 195.129274 38.933603 
L 195.515068 40.906917 
L 196.093759 45.158297 
L 196.865348 52.878403 
L 198.215627 69.475301 
L 199.565906 85.457721 
L 200.916186 98.528862 
L 204.195435 128.786417 
L 205.738612 142.514326 
L 206.703097 149.276757 
L 207.281788 152.16141 
L 207.860479 154.10944 
L 208.246274 154.874202 
L 208.632068 155.25338 
L 209.017862 155.284229 
L 209.403656 154.976153 
L 209.78945 154.369874 
L 210.368141 152.922167 
L 210.946832 150.789227 
L 211.525523 147.89406 
L 212.297112 142.742792 
L 213.261597 134.359897 
L 216.155053 106.564405 
L 216.733744 103.656941 
L 217.119538 102.714274 
L 217.312435 102.53349 
L 217.505332 102.552264 
L 217.698229 102.768968 
L 218.084023 103.750327 
L 218.662714 106.278588 
L 220.784582 117.303675 
L 221.170376 118.134511 
L 221.55617 118.356286 
L 221.749067 118.241839 
L 222.134861 117.538254 
L 222.713552 115.463685 
L 223.678038 110.575715 
L 224.449626 107.014248 
L 225.028317 105.335941 
L 225.414111 104.864814 
L 225.607008 104.829946 
L 225.799905 104.933501 
L 226.185699 105.538559 
L 226.571493 106.599334 
L 227.150184 108.883302 
L 228.11467 113.916659 
L 231.39392 133.359611 
L 234.094478 149.932935 
L 234.673169 151.48553 
L 235.058963 151.96601 
L 235.444758 152.103028 
L 236.023449 151.955822 
L 237.952419 151.219228 
L 238.724007 151.205232 
L 239.109802 151.393906 
L 239.88139 152.228159 
L 240.460081 152.78754 
L 240.845875 152.792568 
L 241.231669 152.313243 
L 241.617463 151.283721 
L 242.196154 148.573308 
L 242.967743 143.440527 
L 244.510919 130.837826 
L 245.861198 117.919296 
L 247.018581 107.364345 
L 247.597272 103.639772 
L 248.175963 101.25477 
L 248.754654 99.899675 
L 249.333345 99.103615 
L 250.683625 97.425067 
L 251.262316 96.151271 
L 251.841007 94.191107 
L 252.226801 92.169798 
L 252.612595 89.268489 
L 253.191286 82.64907 
L 253.769977 72.957795 
L 254.734463 51.628147 
L 255.891845 26.668186 
L 256.470536 17.855233 
L 257.049227 12.504302 
L 257.435021 11.028207 
L 257.627918 10.885506 
L 257.820815 11.116263 
L 258.013712 11.716923 
L 258.399507 14.00402 
L 258.978198 19.902922 
L 259.556889 28.373271 
L 260.521374 46.676423 
L 262.064551 77.241244 
L 262.643242 85.167105 
L 263.029036 88.701418 
L 263.41483 90.683243 
L 263.607727 91.088819 
L 263.800624 91.130084 
L 263.993521 90.833718 
L 264.379315 89.311014 
L 264.958006 85.077137 
L 265.922492 75.15547 
L 267.272771 60.983268 
L 267.851462 57.281558 
L 268.237256 56.271896 
L 268.430153 56.261672 
L 268.62305 56.6013 
L 269.008844 58.333249 
L 269.394638 61.388041 
L 269.97333 68.390647 
L 270.744918 81.605678 
L 271.709403 102.907629 
L 273.252579 143.32744 
L 274.795756 182.737904 
L 275.760241 202.449205 
L 276.531829 214.865042 
L 277.11052 221.744028 
L 277.496315 224.846534 
L 277.882109 226.539869 
L 278.075006 226.81036 
L 278.267903 226.694098 
L 278.4608 226.188287 
L 278.846594 224.005594 
L 279.232388 220.327323 
L 279.811079 212.43244 
L 280.775564 195.121654 
L 282.704535 159.610882 
L 283.66902 146.280207 
L 284.247711 140.825974 
L 284.633505 138.48734 
L 285.019299 137.327176 
L 285.212197 137.158402 
L 285.405094 137.250962 
L 285.597991 137.609133 
L 285.983785 139.038339 
L 286.755373 143.5344 
L 287.526961 147.863382 
L 287.912755 149.035417 
L 288.105652 149.245986 
L 288.298549 149.152251 
L 288.491446 148.729024 
L 288.87724 146.865843 
L 289.263035 143.579894 
L 289.841726 135.967142 
L 290.613314 121.545809 
L 293.120976 68.368145 
L 293.699667 61.735403 
L 294.085461 59.537458 
L 294.278358 59.148701 
L 294.471255 59.225981 
L 294.664152 59.761967 
L 295.049946 62.195239 
L 295.628637 68.73182 
L 296.593123 83.93021 
L 297.557608 97.742073 
L 297.943402 101.268757 
L 298.329196 103.228636 
L 298.522093 103.591093 
L 298.71499 103.548087 
L 298.907887 103.115235 
L 299.293681 101.20908 
L 299.872372 96.267949 
L 301.415549 80.192417 
L 301.801343 78.443025 
L 301.99424 78.206346 
L 302.187137 78.415004 
L 302.380034 79.067336 
L 302.765828 81.588239 
L 303.344519 87.590307 
L 305.27349 112.708147 
L 306.430872 129.459054 
L 308.166946 156.488475 
L 308.745637 162.496695 
L 309.131431 165.023294 
L 309.517225 166.301125 
L 309.710122 166.524045 
L 309.903019 166.510225 
L 310.095916 166.276684 
L 310.48171 165.162621 
L 310.867504 163.076117 
L 311.446195 158.004566 
L 312.024887 150.435009 
L 313.953857 121.347796 
L 314.339651 119.389651 
L 314.532548 119.485575 
L 314.725445 120.360407 
L 315.111239 124.418455 
L 315.497033 131.330806 
L 316.268622 150.909089 
L 317.426004 180.424991 
L 318.004695 189.181261 
L 318.390489 191.499653 
L 318.583386 191.49563 
L 318.776283 190.735227 
L 319.162077 187.113122 
L 319.547871 180.892349 
L 320.126563 167.364338 
L 320.898151 142.308626 
L 323.020018 63.973362 
L 323.405812 57.61857 
L 323.791607 54.980971 
L 323.984504 54.822124 
L 324.177401 55.28966 
L 324.563195 57.915098 
L 324.948989 62.783019 
L 325.52768 74.623698 
L 327.263753 119.358294 
L 327.649548 123.939404 
L 327.842445 125.003287 
L 328.035342 125.264761 
L 328.228239 124.773216 
L 328.614033 121.801808 
L 329.192724 113.820294 
L 330.543003 92.841439 
L 330.928797 89.69875 
L 331.314592 88.221302 
L 331.507489 88.078652 
L 331.700386 88.309569 
L 332.08618 89.863059 
L 332.471974 92.759479 
L 333.436459 103.030204 
L 334.400944 112.28028 
L 334.979635 116.010277 
L 335.36543 116.990976 
L 335.558327 117.036552 
L 335.751224 116.862511 
L 336.137018 116.028769 
L 336.715709 113.823652 
L 337.2944 110.419638 
L 338.065988 105.299779 
L 338.258885 104.678129 
L 338.451782 104.539456 
L 338.644679 104.959974 
L 338.837576 105.969739 
L 339.223371 109.742993 
L 339.802062 118.758999 
L 342.309723 163.914607 
L 343.274209 179.456871 
L 345.588973 222.940252 
L 346.167664 229.006695 
L 346.553459 231.591621 
L 346.939253 233.079805 
L 347.325047 233.711674 
L 347.517944 233.781241 
L 347.710841 233.659048 
L 347.903738 233.281656 
L 348.289532 231.51664 
L 348.675326 228.060697 
L 349.254017 219.618441 
L 350.990091 190.600598 
L 351.182988 189.266196 
L 351.375885 188.85426 
L 351.568782 189.47927 
L 351.761679 191.197851 
L 352.147473 197.707948 
L 352.919061 217.719401 
L 353.690649 235.439141 
L 354.269341 243.530299 
L 354.655135 246.950129 
L 355.040929 248.712095 
L 355.233826 248.793761 
L 355.426723 248.269454 
L 355.812517 245.391169 
L 356.391208 237.357004 
L 357.162796 223.043379 
L 357.934384 203.984668 
L 359.284664 166.703084 
L 359.863355 156.958695 
L 360.249149 154.540844 
L 360.442046 154.793001 
L 360.634943 156.008391 
L 361.020737 160.977764 
L 362.563914 187.373419 
L 362.949708 189.592422 
L 363.142605 189.8306 
L 363.335502 189.655107 
L 363.914193 188.588127 
L 364.10709 188.577835 
L 364.299987 188.833072 
L 364.878678 190.535547 
L 365.264472 191.492856 
L 365.650266 191.816033 
L 365.843164 191.699042 
L 366.036061 191.330919 
L 366.421855 189.49478 
L 366.807649 185.824249 
L 367.38634 177.034284 
L 369.894002 133.386418 
L 371.630075 101.440094 
L 372.208766 91.958941 
L 372.59456 89.142083 
L 372.787457 88.924367 
L 372.980354 89.386505 
L 373.366148 91.691827 
L 374.909325 103.539201 
L 375.488016 112.15953 
L 376.259604 129.114418 
L 377.416987 155.418397 
L 377.802781 160.465542 
L 378.188575 163.176805 
L 378.574369 164.264505 
L 378.767266 164.360469 
L 378.960163 164.136653 
L 379.15306 163.516589 
L 379.538854 160.848228 
L 380.117545 153.650473 
L 381.467825 132.261186 
L 382.43231 117.403883 
L 383.011001 111.50815 
L 383.203898 110.525142 
L 383.396795 110.409548 
L 383.589692 111.359909 
L 383.975486 116.620549 
L 385.518663 150.568772 
L 386.868942 185.250112 
L 388.412118 208.144886 
L 388.605015 208.790142 
L 388.797912 208.67513 
L 389.183707 207.109967 
L 389.569501 204.438289 
L 389.955295 200.123797 
L 391.305574 180.687829 
L 391.498471 180.156844 
L 391.691368 180.147669 
L 392.077162 180.798021 
L 392.462956 181.800856 
L 392.848751 183.530419 
L 393.427442 187.947817 
L 394.777721 201.142039 
L 395.742206 210.45205 
L 397.285383 222.781387 
L 397.47828 222.827151 
L 397.671177 222.048979 
L 398.056971 218.195244 
L 398.635662 208.628433 
L 399.600147 187.1951 
L 401.336221 150.5328 
L 402.493603 128.193146 
L 403.458088 107.478048 
L 404.036779 98.615437 
L 404.422574 95.810227 
L 405.194162 93.195337 
L 405.579956 91.536603 
L 405.96575 90.368031 
L 406.158647 89.225753 
L 406.544441 84.807554 
L 407.316029 75.123685 
L 408.087618 66.851864 
L 408.280515 66.040488 
L 408.473412 65.809348 
L 408.666309 65.776288 
L 408.859206 65.582181 
L 409.052103 65.001001 
L 409.437897 62.600351 
L 410.209485 55.10831 
L 410.981073 47.694941 
L 411.366867 46.102619 
L 411.752661 45.423424 
L 411.945559 45.376263 
L 412.138456 45.70274 
L 412.52425 47.468158 
L 413.102941 50.323117 
L 413.295838 50.885788 
L 413.488735 51.087721 
L 413.681632 50.771145 
L 413.874529 49.732176 
L 414.260323 45.681431 
L 415.031911 36.816967 
L 415.8035 31.379873 
L 416.189294 29.429116 
L 416.382191 29.126491 
L 416.575088 29.5096 
L 416.767985 30.68965 
L 417.153779 35.052206 
L 418.118264 50.31723 
L 419.661441 78.226324 
L 420.433029 92.189832 
L 420.818823 96.956543 
L 421.204617 99.243329 
L 421.397514 99.543513 
L 421.590411 99.310339 
L 421.783308 98.465093 
L 422.169102 94.726276 
L 422.361999 91.805894 
L 422.361999 91.805894 
" clip-path="url(#pd9ce900de7)" style="fill: none; stroke: #009afa"/>
   </g>
   <g id="matplotlib.axis_1">
    <g id="xtick_1">
     <g id="line2d_2">
      <defs>
       <path id="mb126b401b3" d="M 0 0 
L 0 -2.5 
" style="stroke: #000000; stroke-width: 0.5"/>
      </defs>
      <g>
       <use xlink:href="#mb126b401b3" x="36.567899" y="258.225354" style="stroke: #000000; stroke-width: 0.5"/>
      </g>
     </g>
     <g id="text_1">
      <!-- $0.0$ -->
      <g transform="translate(30.167899 267.804104) scale(0.08 -0.08)">
       <defs>
        <path id="DejaVuSans-30" d="M 2034 4250 
Q 1547 4250 1301 3770 
Q 1056 3291 1056 2328 
Q 1056 1369 1301 889 
Q 1547 409 2034 409 
Q 2525 409 2770 889 
Q 3016 1369 3016 2328 
Q 3016 3291 2770 3770 
Q 2525 4250 2034 4250 
z
M 2034 4750 
Q 2819 4750 3233 4129 
Q 3647 3509 3647 2328 
Q 3647 1150 3233 529 
Q 2819 -91 2034 -91 
Q 1250 -91 836 529 
Q 422 1150 422 2328 
Q 422 3509 836 4129 
Q 1250 4750 2034 4750 
z
" transform="scale(0.015625)"/>
        <path id="DejaVuSans-2e" d="M 684 794 
L 1344 794 
L 1344 0 
L 684 0 
L 684 794 
z
" transform="scale(0.015625)"/>
       </defs>
       <use xlink:href="#DejaVuSans-30" transform="translate(0 0.78125)"/>
       <use xlink:href="#DejaVuSans-2e" transform="translate(63.623047 0.78125)"/>
       <use xlink:href="#DejaVuSans-30" transform="translate(95.410156 0.78125)"/>
      </g>
     </g>
    </g>
    <g id="xtick_2">
     <g id="line2d_3">
      <g>
       <use xlink:href="#mb126b401b3" x="133.016424" y="258.225354" style="stroke: #000000; stroke-width: 0.5"/>
      </g>
     </g>
     <g id="text_2">
      <!-- $0.5$ -->
      <g transform="translate(126.616424 267.804104) scale(0.08 -0.08)">
       <defs>
        <path id="DejaVuSans-35" d="M 691 4666 
L 3169 4666 
L 3169 4134 
L 1269 4134 
L 1269 2991 
Q 1406 3038 1543 3061 
Q 1681 3084 1819 3084 
Q 2600 3084 3056 2656 
Q 3513 2228 3513 1497 
Q 3513 744 3044 326 
Q 2575 -91 1722 -91 
Q 1428 -91 1123 -41 
Q 819 9 494 109 
L 494 744 
Q 775 591 1075 516 
Q 1375 441 1709 441 
Q 2250 441 2565 725 
Q 2881 1009 2881 1497 
Q 2881 1984 2565 2268 
Q 2250 2553 1709 2553 
Q 1456 2553 1204 2497 
Q 953 2441 691 2322 
L 691 4666 
z
" transform="scale(0.015625)"/>
       </defs>
       <use xlink:href="#DejaVuSans-30" transform="translate(0 0.78125)"/>
       <use xlink:href="#DejaVuSans-2e" transform="translate(63.623047 0.78125)"/>
       <use xlink:href="#DejaVuSans-35" transform="translate(95.410156 0.78125)"/>
      </g>
     </g>
    </g>
    <g id="xtick_3">
     <g id="line2d_4">
      <g>
       <use xlink:href="#mb126b401b3" x="229.464949" y="258.225354" style="stroke: #000000; stroke-width: 0.5"/>
      </g>
     </g>
     <g id="text_3">
      <!-- $1.0$ -->
      <g transform="translate(223.064949 267.804104) scale(0.08 -0.08)">
       <defs>
        <path id="DejaVuSans-31" d="M 794 531 
L 1825 531 
L 1825 4091 
L 703 3866 
L 703 4441 
L 1819 4666 
L 2450 4666 
L 2450 531 
L 3481 531 
L 3481 0 
L 794 0 
L 794 531 
z
" transform="scale(0.015625)"/>
       </defs>
       <use xlink:href="#DejaVuSans-31" transform="translate(0 0.78125)"/>
       <use xlink:href="#DejaVuSans-2e" transform="translate(63.623047 0.78125)"/>
       <use xlink:href="#DejaVuSans-30" transform="translate(95.410156 0.78125)"/>
      </g>
     </g>
    </g>
    <g id="xtick_4">
     <g id="line2d_5">
      <g>
       <use xlink:href="#mb126b401b3" x="325.913474" y="258.225354" style="stroke: #000000; stroke-width: 0.5"/>
      </g>
     </g>
     <g id="text_4">
      <!-- $1.5$ -->
      <g transform="translate(319.513474 267.804104) scale(0.08 -0.08)">
       <use xlink:href="#DejaVuSans-31" transform="translate(0 0.09375)"/>
       <use xlink:href="#DejaVuSans-2e" transform="translate(63.623047 0.09375)"/>
       <use xlink:href="#DejaVuSans-35" transform="translate(95.410156 0.09375)"/>
      </g>
     </g>
    </g>
    <g id="xtick_5">
     <g id="line2d_6">
      <g>
       <use xlink:href="#mb126b401b3" x="422.361999" y="258.225354" style="stroke: #000000; stroke-width: 0.5"/>
      </g>
     </g>
     <g id="text_5">
      <!-- $2.0$ -->
      <g transform="translate(415.961999 267.804104) scale(0.08 -0.08)">
       <defs>
        <path id="DejaVuSans-32" d="M 1228 531 
L 3431 531 
L 3431 0 
L 469 0 
L 469 531 
Q 828 903 1448 1529 
Q 2069 2156 2228 2338 
Q 2531 2678 2651 2914 
Q 2772 3150 2772 3378 
Q 2772 3750 2511 3984 
Q 2250 4219 1831 4219 
Q 1534 4219 1204 4116 
Q 875 4013 500 3803 
L 500 4441 
Q 881 4594 1212 4672 
Q 1544 4750 1819 4750 
Q 2544 4750 2975 4387 
Q 3406 4025 3406 3419 
Q 3406 3131 3298 2873 
Q 3191 2616 2906 2266 
Q 2828 2175 2409 1742 
Q 1991 1309 1228 531 
z
" transform="scale(0.015625)"/>
       </defs>
       <use xlink:href="#DejaVuSans-32" transform="translate(0 0.78125)"/>
       <use xlink:href="#DejaVuSans-2e" transform="translate(63.623047 0.78125)"/>
       <use xlink:href="#DejaVuSans-30" transform="translate(95.410156 0.78125)"/>
      </g>
     </g>
    </g>
    <g id="text_6">
     <!-- Time (s) -->
     <g transform="translate(207.103152 281.826136) scale(0.11 -0.11)">
      <defs>
       <path id="DejaVuSans-54" d="M -19 4666 
L 3928 4666 
L 3928 4134 
L 2272 4134 
L 2272 0 
L 1638 0 
L 1638 4134 
L -19 4134 
L -19 4666 
z
" transform="scale(0.015625)"/>
       <path id="DejaVuSans-69" d="M 603 3500 
L 1178 3500 
L 1178 0 
L 603 0 
L 603 3500 
z
M 603 4863 
L 1178 4863 
L 1178 4134 
L 603 4134 
L 603 4863 
z
" transform="scale(0.015625)"/>
       <path id="DejaVuSans-6d" d="M 3328 2828 
Q 3544 3216 3844 3400 
Q 4144 3584 4550 3584 
Q 5097 3584 5394 3201 
Q 5691 2819 5691 2113 
L 5691 0 
L 5113 0 
L 5113 2094 
Q 5113 2597 4934 2840 
Q 4756 3084 4391 3084 
Q 3944 3084 3684 2787 
Q 3425 2491 3425 1978 
L 3425 0 
L 2847 0 
L 2847 2094 
Q 2847 2600 2669 2842 
Q 2491 3084 2119 3084 
Q 1678 3084 1418 2786 
Q 1159 2488 1159 1978 
L 1159 0 
L 581 0 
L 581 3500 
L 1159 3500 
L 1159 2956 
Q 1356 3278 1631 3431 
Q 1906 3584 2284 3584 
Q 2666 3584 2933 3390 
Q 3200 3197 3328 2828 
z
" transform="scale(0.015625)"/>
       <path id="DejaVuSans-65" d="M 3597 1894 
L 3597 1613 
L 953 1613 
Q 991 1019 1311 708 
Q 1631 397 2203 397 
Q 2534 397 2845 478 
Q 3156 559 3463 722 
L 3463 178 
Q 3153 47 2828 -22 
Q 2503 -91 2169 -91 
Q 1331 -91 842 396 
Q 353 884 353 1716 
Q 353 2575 817 3079 
Q 1281 3584 2069 3584 
Q 2775 3584 3186 3129 
Q 3597 2675 3597 1894 
z
M 3022 2063 
Q 3016 2534 2758 2815 
Q 2500 3097 2075 3097 
Q 1594 3097 1305 2825 
Q 1016 2553 972 2059 
L 3022 2063 
z
" transform="scale(0.015625)"/>
       <path id="DejaVuSans-20" transform="scale(0.015625)"/>
       <path id="DejaVuSans-28" d="M 1984 4856 
Q 1566 4138 1362 3434 
Q 1159 2731 1159 2009 
Q 1159 1288 1364 580 
Q 1569 -128 1984 -844 
L 1484 -844 
Q 1016 -109 783 600 
Q 550 1309 550 2009 
Q 550 2706 781 3412 
Q 1013 4119 1484 4856 
L 1984 4856 
z
" transform="scale(0.015625)"/>
       <path id="DejaVuSans-73" d="M 2834 3397 
L 2834 2853 
Q 2591 2978 2328 3040 
Q 2066 3103 1784 3103 
Q 1356 3103 1142 2972 
Q 928 2841 928 2578 
Q 928 2378 1081 2264 
Q 1234 2150 1697 2047 
L 1894 2003 
Q 2506 1872 2764 1633 
Q 3022 1394 3022 966 
Q 3022 478 2636 193 
Q 2250 -91 1575 -91 
Q 1294 -91 989 -36 
Q 684 19 347 128 
L 347 722 
Q 666 556 975 473 
Q 1284 391 1588 391 
Q 1994 391 2212 530 
Q 2431 669 2431 922 
Q 2431 1156 2273 1281 
Q 2116 1406 1581 1522 
L 1381 1569 
Q 847 1681 609 1914 
Q 372 2147 372 2553 
Q 372 3047 722 3315 
Q 1072 3584 1716 3584 
Q 2034 3584 2315 3537 
Q 2597 3491 2834 3397 
z
" transform="scale(0.015625)"/>
       <path id="DejaVuSans-29" d="M 513 4856 
L 1013 4856 
Q 1481 4119 1714 3412 
Q 1947 2706 1947 2009 
Q 1947 1309 1714 600 
Q 1481 -109 1013 -844 
L 513 -844 
Q 928 -128 1133 580 
Q 1338 1288 1338 2009 
Q 1338 2731 1133 3434 
Q 928 4138 513 4856 
z
" transform="scale(0.015625)"/>
      </defs>
      <use xlink:href="#DejaVuSans-54"/>
      <use xlink:href="#DejaVuSans-69" x="57.958984"/>
      <use xlink:href="#DejaVuSans-6d" x="85.742188"/>
      <use xlink:href="#DejaVuSans-65" x="183.154297"/>
      <use xlink:href="#DejaVuSans-20" x="244.677734"/>
      <use xlink:href="#DejaVuSans-28" x="276.464844"/>
      <use xlink:href="#DejaVuSans-73" x="315.478516"/>
      <use xlink:href="#DejaVuSans-29" x="367.578125"/>
     </g>
    </g>
   </g>
   <g id="matplotlib.axis_2">
    <g id="ytick_1">
     <g id="line2d_7">
      <defs>
       <path id="m0c8fe1cec2" d="M 0 0 
L 2.5 0 
" style="stroke: #000000; stroke-width: 0.5"/>
      </defs>
      <g>
       <use xlink:href="#m0c8fe1cec2" x="36.567899" y="236.554351" style="stroke: #000000; stroke-width: 0.5"/>
      </g>
     </g>
     <g id="text_7">
      <!-- $-3$ -->
      <g transform="translate(21.227899 239.593726) scale(0.08 -0.08)">
       <defs>
        <path id="DejaVuSans-2212" d="M 678 2272 
L 4684 2272 
L 4684 1741 
L 678 1741 
L 678 2272 
z
" transform="scale(0.015625)"/>
        <path id="DejaVuSans-33" d="M 2597 2516 
Q 3050 2419 3304 2112 
Q 3559 1806 3559 1356 
Q 3559 666 3084 287 
Q 2609 -91 1734 -91 
Q 1441 -91 1130 -33 
Q 819 25 488 141 
L 488 750 
Q 750 597 1062 519 
Q 1375 441 1716 441 
Q 2309 441 2620 675 
Q 2931 909 2931 1356 
Q 2931 1769 2642 2001 
Q 2353 2234 1838 2234 
L 1294 2234 
L 1294 2753 
L 1863 2753 
Q 2328 2753 2575 2939 
Q 2822 3125 2822 3475 
Q 2822 3834 2567 4026 
Q 2313 4219 1838 4219 
Q 1578 4219 1281 4162 
Q 984 4106 628 3988 
L 628 4550 
Q 988 4650 1302 4700 
Q 1616 4750 1894 4750 
Q 2613 4750 3031 4423 
Q 3450 4097 3450 3541 
Q 3450 3153 3228 2886 
Q 3006 2619 2597 2516 
z
" transform="scale(0.015625)"/>
       </defs>
       <use xlink:href="#DejaVuSans-2212" transform="translate(0 0.78125)"/>
       <use xlink:href="#DejaVuSans-33" transform="translate(83.789062 0.78125)"/>
      </g>
     </g>
    </g>
    <g id="ytick_2">
     <g id="line2d_8">
      <g>
       <use xlink:href="#m0c8fe1cec2" x="36.567899" y="202.916863" style="stroke: #000000; stroke-width: 0.5"/>
      </g>
     </g>
     <g id="text_8">
      <!-- $-2$ -->
      <g transform="translate(21.227899 205.956238) scale(0.08 -0.08)">
       <use xlink:href="#DejaVuSans-2212" transform="translate(0 0.78125)"/>
       <use xlink:href="#DejaVuSans-32" transform="translate(83.789062 0.78125)"/>
      </g>
     </g>
    </g>
    <g id="ytick_3">
     <g id="line2d_9">
      <g>
       <use xlink:href="#m0c8fe1cec2" x="36.567899" y="169.279374" style="stroke: #000000; stroke-width: 0.5"/>
      </g>
     </g>
     <g id="text_9">
      <!-- $-1$ -->
      <g transform="translate(21.227899 172.318749) scale(0.08 -0.08)">
       <use xlink:href="#DejaVuSans-2212" transform="translate(0 0.09375)"/>
       <use xlink:href="#DejaVuSans-31" transform="translate(83.789062 0.09375)"/>
      </g>
     </g>
    </g>
    <g id="ytick_4">
     <g id="line2d_10">
      <g>
       <use xlink:href="#m0c8fe1cec2" x="36.567899" y="135.641886" style="stroke: #000000; stroke-width: 0.5"/>
      </g>
     </g>
     <g id="text_10">
      <!-- $0$ -->
      <g transform="translate(27.947899 138.681261) scale(0.08 -0.08)">
       <use xlink:href="#DejaVuSans-30" transform="translate(0 0.78125)"/>
      </g>
     </g>
    </g>
    <g id="ytick_5">
     <g id="line2d_11">
      <g>
       <use xlink:href="#m0c8fe1cec2" x="36.567899" y="102.004397" style="stroke: #000000; stroke-width: 0.5"/>
      </g>
     </g>
     <g id="text_11">
      <!-- $1$ -->
      <g transform="translate(27.947899 105.043772) scale(0.08 -0.08)">
       <use xlink:href="#DejaVuSans-31" transform="translate(0 0.09375)"/>
      </g>
     </g>
    </g>
    <g id="ytick_6">
     <g id="line2d_12">
      <g>
       <use xlink:href="#m0c8fe1cec2" x="36.567899" y="68.366909" style="stroke: #000000; stroke-width: 0.5"/>
      </g>
     </g>
     <g id="text_12">
      <!-- $2$ -->
      <g transform="translate(27.947899 71.406284) scale(0.08 -0.08)">
       <use xlink:href="#DejaVuSans-32" transform="translate(0 0.78125)"/>
      </g>
     </g>
    </g>
    <g id="ytick_7">
     <g id="line2d_13">
      <g>
       <use xlink:href="#m0c8fe1cec2" x="36.567899" y="34.729421" style="stroke: #000000; stroke-width: 0.5"/>
      </g>
     </g>
     <g id="text_13">
      <!-- $3$ -->
      <g transform="translate(27.947899 37.768796) scale(0.08 -0.08)">
       <use xlink:href="#DejaVuSans-33" transform="translate(0 0.78125)"/>
      </g>
     </g>
    </g>
    <g id="text_14">
     <!-- Rodriguez Parameter $\theta_z$ (degree) -->
     <g transform="translate(14.917899 221.61) rotate(-90) scale(0.11 -0.11)">
      <defs>
       <path id="DejaVuSans-52" d="M 2841 2188 
Q 3044 2119 3236 1894 
Q 3428 1669 3622 1275 
L 4263 0 
L 3584 0 
L 2988 1197 
Q 2756 1666 2539 1819 
Q 2322 1972 1947 1972 
L 1259 1972 
L 1259 0 
L 628 0 
L 628 4666 
L 2053 4666 
Q 2853 4666 3247 4331 
Q 3641 3997 3641 3322 
Q 3641 2881 3436 2590 
Q 3231 2300 2841 2188 
z
M 1259 4147 
L 1259 2491 
L 2053 2491 
Q 2509 2491 2742 2702 
Q 2975 2913 2975 3322 
Q 2975 3731 2742 3939 
Q 2509 4147 2053 4147 
L 1259 4147 
z
" transform="scale(0.015625)"/>
       <path id="DejaVuSans-6f" d="M 1959 3097 
Q 1497 3097 1228 2736 
Q 959 2375 959 1747 
Q 959 1119 1226 758 
Q 1494 397 1959 397 
Q 2419 397 2687 759 
Q 2956 1122 2956 1747 
Q 2956 2369 2687 2733 
Q 2419 3097 1959 3097 
z
M 1959 3584 
Q 2709 3584 3137 3096 
Q 3566 2609 3566 1747 
Q 3566 888 3137 398 
Q 2709 -91 1959 -91 
Q 1206 -91 779 398 
Q 353 888 353 1747 
Q 353 2609 779 3096 
Q 1206 3584 1959 3584 
z
" transform="scale(0.015625)"/>
       <path id="DejaVuSans-64" d="M 2906 2969 
L 2906 4863 
L 3481 4863 
L 3481 0 
L 2906 0 
L 2906 525 
Q 2725 213 2448 61 
Q 2172 -91 1784 -91 
Q 1150 -91 751 415 
Q 353 922 353 1747 
Q 353 2572 751 3078 
Q 1150 3584 1784 3584 
Q 2172 3584 2448 3432 
Q 2725 3281 2906 2969 
z
M 947 1747 
Q 947 1113 1208 752 
Q 1469 391 1925 391 
Q 2381 391 2643 752 
Q 2906 1113 2906 1747 
Q 2906 2381 2643 2742 
Q 2381 3103 1925 3103 
Q 1469 3103 1208 2742 
Q 947 2381 947 1747 
z
" transform="scale(0.015625)"/>
       <path id="DejaVuSans-72" d="M 2631 2963 
Q 2534 3019 2420 3045 
Q 2306 3072 2169 3072 
Q 1681 3072 1420 2755 
Q 1159 2438 1159 1844 
L 1159 0 
L 581 0 
L 581 3500 
L 1159 3500 
L 1159 2956 
Q 1341 3275 1631 3429 
Q 1922 3584 2338 3584 
Q 2397 3584 2469 3576 
Q 2541 3569 2628 3553 
L 2631 2963 
z
" transform="scale(0.015625)"/>
       <path id="DejaVuSans-67" d="M 2906 1791 
Q 2906 2416 2648 2759 
Q 2391 3103 1925 3103 
Q 1463 3103 1205 2759 
Q 947 2416 947 1791 
Q 947 1169 1205 825 
Q 1463 481 1925 481 
Q 2391 481 2648 825 
Q 2906 1169 2906 1791 
z
M 3481 434 
Q 3481 -459 3084 -895 
Q 2688 -1331 1869 -1331 
Q 1566 -1331 1297 -1286 
Q 1028 -1241 775 -1147 
L 775 -588 
Q 1028 -725 1275 -790 
Q 1522 -856 1778 -856 
Q 2344 -856 2625 -561 
Q 2906 -266 2906 331 
L 2906 616 
Q 2728 306 2450 153 
Q 2172 0 1784 0 
Q 1141 0 747 490 
Q 353 981 353 1791 
Q 353 2603 747 3093 
Q 1141 3584 1784 3584 
Q 2172 3584 2450 3431 
Q 2728 3278 2906 2969 
L 2906 3500 
L 3481 3500 
L 3481 434 
z
" transform="scale(0.015625)"/>
       <path id="DejaVuSans-75" d="M 544 1381 
L 544 3500 
L 1119 3500 
L 1119 1403 
Q 1119 906 1312 657 
Q 1506 409 1894 409 
Q 2359 409 2629 706 
Q 2900 1003 2900 1516 
L 2900 3500 
L 3475 3500 
L 3475 0 
L 2900 0 
L 2900 538 
Q 2691 219 2414 64 
Q 2138 -91 1772 -91 
Q 1169 -91 856 284 
Q 544 659 544 1381 
z
M 1991 3584 
L 1991 3584 
z
" transform="scale(0.015625)"/>
       <path id="DejaVuSans-7a" d="M 353 3500 
L 3084 3500 
L 3084 2975 
L 922 459 
L 3084 459 
L 3084 0 
L 275 0 
L 275 525 
L 2438 3041 
L 353 3041 
L 353 3500 
z
" transform="scale(0.015625)"/>
       <path id="DejaVuSans-50" d="M 1259 4147 
L 1259 2394 
L 2053 2394 
Q 2494 2394 2734 2622 
Q 2975 2850 2975 3272 
Q 2975 3691 2734 3919 
Q 2494 4147 2053 4147 
L 1259 4147 
z
M 628 4666 
L 2053 4666 
Q 2838 4666 3239 4311 
Q 3641 3956 3641 3272 
Q 3641 2581 3239 2228 
Q 2838 1875 2053 1875 
L 1259 1875 
L 1259 0 
L 628 0 
L 628 4666 
z
" transform="scale(0.015625)"/>
       <path id="DejaVuSans-61" d="M 2194 1759 
Q 1497 1759 1228 1600 
Q 959 1441 959 1056 
Q 959 750 1161 570 
Q 1363 391 1709 391 
Q 2188 391 2477 730 
Q 2766 1069 2766 1631 
L 2766 1759 
L 2194 1759 
z
M 3341 1997 
L 3341 0 
L 2766 0 
L 2766 531 
Q 2569 213 2275 61 
Q 1981 -91 1556 -91 
Q 1019 -91 701 211 
Q 384 513 384 1019 
Q 384 1609 779 1909 
Q 1175 2209 1959 2209 
L 2766 2209 
L 2766 2266 
Q 2766 2663 2505 2880 
Q 2244 3097 1772 3097 
Q 1472 3097 1187 3025 
Q 903 2953 641 2809 
L 641 3341 
Q 956 3463 1253 3523 
Q 1550 3584 1831 3584 
Q 2591 3584 2966 3190 
Q 3341 2797 3341 1997 
z
" transform="scale(0.015625)"/>
       <path id="DejaVuSans-74" d="M 1172 4494 
L 1172 3500 
L 2356 3500 
L 2356 3053 
L 1172 3053 
L 1172 1153 
Q 1172 725 1289 603 
Q 1406 481 1766 481 
L 2356 481 
L 2356 0 
L 1766 0 
Q 1100 0 847 248 
Q 594 497 594 1153 
L 594 3053 
L 172 3053 
L 172 3500 
L 594 3500 
L 594 4494 
L 1172 4494 
z
" transform="scale(0.015625)"/>
       <path id="DejaVuSans-Oblique-3b8" d="M 2913 2219 
L 925 2219 
Q 791 1284 928 888 
Q 1100 400 1566 400 
Q 2034 400 2391 891 
Q 2703 1322 2913 2219 
z
M 3009 2750 
Q 3094 3638 2984 3950 
Q 2813 4444 2353 4444 
Q 1875 4444 1525 3956 
Q 1250 3563 1034 2750 
L 3009 2750 
z
M 2444 4913 
Q 3194 4913 3494 4250 
Q 3794 3591 3566 2422 
Q 3341 1256 2781 594 
Q 2225 -72 1475 -72 
Q 722 -72 425 594 
Q 128 1256 353 2422 
Q 581 3591 1134 4250 
Q 1691 4913 2444 4913 
z
" transform="scale(0.015625)"/>
       <path id="DejaVuSans-Oblique-7a" d="M 744 3500 
L 3475 3500 
L 3372 2975 
L 738 459 
L 2913 459 
L 2822 0 
L -19 0 
L 84 525 
L 2719 3041 
L 653 3041 
L 744 3500 
z
" transform="scale(0.015625)"/>
      </defs>
      <use xlink:href="#DejaVuSans-52" transform="translate(0 0.234375)"/>
      <use xlink:href="#DejaVuSans-6f" transform="translate(69.482422 0.234375)"/>
      <use xlink:href="#DejaVuSans-64" transform="translate(130.664062 0.234375)"/>
      <use xlink:href="#DejaVuSans-72" transform="translate(194.140625 0.234375)"/>
      <use xlink:href="#DejaVuSans-69" transform="translate(235.253906 0.234375)"/>
      <use xlink:href="#DejaVuSans-67" transform="translate(263.037109 0.234375)"/>
      <use xlink:href="#DejaVuSans-75" transform="translate(326.513672 0.234375)"/>
      <use xlink:href="#DejaVuSans-65" transform="translate(389.892578 0.234375)"/>
      <use xlink:href="#DejaVuSans-7a" transform="translate(451.416016 0.234375)"/>
      <use xlink:href="#DejaVuSans-20" transform="translate(503.90625 0.234375)"/>
      <use xlink:href="#DejaVuSans-50" transform="translate(535.693359 0.234375)"/>
      <use xlink:href="#DejaVuSans-61" transform="translate(595.996094 0.234375)"/>
      <use xlink:href="#DejaVuSans-72" transform="translate(657.275391 0.234375)"/>
      <use xlink:href="#DejaVuSans-61" transform="translate(698.388672 0.234375)"/>
      <use xlink:href="#DejaVuSans-6d" transform="translate(759.667969 0.234375)"/>
      <use xlink:href="#DejaVuSans-65" transform="translate(857.080078 0.234375)"/>
      <use xlink:href="#DejaVuSans-74" transform="translate(918.603516 0.234375)"/>
      <use xlink:href="#DejaVuSans-65" transform="translate(957.8125 0.234375)"/>
      <use xlink:href="#DejaVuSans-72" transform="translate(1019.335938 0.234375)"/>
      <use xlink:href="#DejaVuSans-20" transform="translate(1060.449219 0.234375)"/>
      <use xlink:href="#DejaVuSans-Oblique-3b8" transform="translate(1092.236328 0.234375)"/>
      <use xlink:href="#DejaVuSans-Oblique-7a" transform="translate(1153.417969 -16.171875) scale(0.7)"/>
      <use xlink:href="#DejaVuSans-20" transform="translate(1192.895508 0.234375)"/>
      <use xlink:href="#DejaVuSans-28" transform="translate(1224.682617 0.234375)"/>
      <use xlink:href="#DejaVuSans-64" transform="translate(1263.696289 0.234375)"/>
      <use xlink:href="#DejaVuSans-65" transform="translate(1327.172852 0.234375)"/>
      <use xlink:href="#DejaVuSans-67" transform="translate(1388.696289 0.234375)"/>
      <use xlink:href="#DejaVuSans-72" transform="translate(1452.172852 0.234375)"/>
      <use xlink:href="#DejaVuSans-65" transform="translate(1493.286133 0.234375)"/>
      <use xlink:href="#DejaVuSans-65" transform="translate(1554.80957 0.234375)"/>
      <use xlink:href="#DejaVuSans-29" transform="translate(1616.333008 0.234375)"/>
     </g>
    </g>
   </g>
   <g id="line2d_14">
    <path d="M 36.567899 135.641886 
L 41.52047 135.534074 
L 46.152141 134.958914 
L 47.871814 134.561789 
L 49.970224 133.866498 
L 57.2024 130.694406 
L 58.919188 129.517738 
L 61.001539 127.993536 
L 65.680545 125.19238 
L 68.719432 123.644258 
L 74.756817 121.435855 
L 76.919903 120.531161 
L 78.364256 120.303795 
L 79.191837 120.402963 
L 80.284727 120.737265 
L 81.593945 121.395347 
L 83.756268 122.805837 
L 85.245216 123.749105 
L 86.308299 124.195036 
L 87.395975 124.452403 
L 88.177409 124.463729 
L 89.197726 124.225301 
L 90.425681 123.680265 
L 91.930007 123.029656 
L 93.08889 122.755086 
L 93.830841 122.720228 
L 94.601038 122.87698 
L 95.387729 123.249532 
L 96.496464 124.148822 
L 97.362701 125.11963 
L 98.547695 126.903778 
L 99.43961 128.60833 
L 100.62932 131.345476 
L 102.116457 135.289837 
L 103.970331 140.950072 
L 106.246069 148.689465 
L 109.227576 159.013359 
L 110.327031 162.046233 
L 111.206595 163.846354 
L 111.866269 164.686791 
L 112.306051 164.982561 
L 112.745833 165.056294 
L 113.185615 164.916455 
L 113.625397 164.54018 
L 114.301129 163.490676 
L 114.937059 162.01835 
L 115.674656 159.6616 
L 116.534214 156.023087 
L 117.602801 150.445657 
L 119.243752 140.453835 
L 121.437829 127.067113 
L 122.660369 120.976369 
L 123.815387 116.381798 
L 125.059145 112.446749 
L 126.176402 109.723468 
L 128.035494 105.915371 
L 130.703758 100.765136 
L 131.95905 98.952875 
L 132.587617 98.349934 
L 133.216184 98.028085 
L 133.844751 98.090039 
L 134.410369 98.43253 
L 135.172697 99.342718 
L 135.959536 100.773525 
L 136.943085 103.08487 
L 138.247799 106.84969 
L 140.962896 114.947311 
L 141.827961 116.798814 
L 142.438035 117.66808 
L 142.942903 118.090116 
L 143.411223 118.195361 
L 143.910034 118.057349 
L 144.454246 117.6107 
L 145.083262 116.750184 
L 145.904771 115.218869 
L 148.925169 109.083737 
L 149.993773 107.711083 
L 150.804337 106.972755 
L 151.709655 106.42566 
L 152.645951 106.13754 
L 153.884534 106.060092 
L 155.005324 106.2188 
L 155.900673 106.622029 
L 156.506083 107.132762 
L 157.111493 107.849296 
L 157.772382 108.893815 
L 158.48875 110.402039 
L 159.205118 112.417336 
L 159.921486 115.033639 
L 160.660713 118.392921 
L 161.803843 124.813434 
L 163.328016 134.985539 
L 166.174462 154.655855 
L 167.584498 162.570074 
L 168.886122 168.681844 
L 170.220311 173.863615 
L 171.457158 177.766409 
L 172.322708 179.891432 
L 172.888436 180.784691 
L 173.301993 181.089261 
L 173.635003 181.099579 
L 173.968014 180.87803 
L 174.386227 180.230165 
L 174.804929 179.151695 
L 175.307371 177.229908 
L 175.893553 174.056463 
L 176.565973 169.055501 
L 177.252723 162.302607 
L 178.050721 152.291739 
L 179.163165 135.086259 
L 182.369748 82.685437 
L 183.163568 74.183045 
L 183.762423 69.82854 
L 184.28132 67.506774 
L 184.656962 66.587041 
L 184.974195 66.265837 
L 185.205928 66.256 
L 185.458063 66.425865 
L 185.863362 67.02577 
L 186.553067 68.635393 
L 187.666942 71.486533 
L 188.201414 72.222514 
L 188.585338 72.270631 
L 188.974706 71.821154 
L 189.410673 70.620546 
L 189.889905 68.393281 
L 190.404944 65.019 
L 191.24423 57.843843 
L 192.713741 44.482154 
L 193.301893 40.514988 
L 193.890046 38.039117 
L 194.184123 37.457828 
L 194.478199 37.346956 
L 194.772275 37.715968 
L 195.066352 38.572176 
L 195.654505 41.705607 
L 196.242657 46.518169 
L 197.124886 56.112525 
L 199.852108 88.378704 
L 201.443711 103.355518 
L 204.780945 134.353602 
L 206.013213 144.811443 
L 206.788365 149.747569 
L 207.439224 152.638724 
L 208.004073 154.233829 
L 208.463801 154.944272 
L 208.811015 155.145528 
L 209.175644 155.080686 
L 209.49298 154.802591 
L 209.892265 154.151824 
L 210.386332 152.888408 
L 210.902208 150.96706 
L 211.534668 147.737273 
L 212.335465 142.275324 
L 213.285447 133.943447 
L 214.996016 116.071825 
L 215.913946 107.7575 
L 216.447841 104.448031 
L 216.884864 102.838393 
L 217.214298 102.341897 
L 217.382031 102.320155 
L 217.549764 102.444621 
L 217.905364 103.163462 
L 218.289251 104.54718 
L 218.890566 107.585745 
L 220.326418 115.384694 
L 220.767569 116.999686 
L 221.222004 117.939921 
L 221.449222 118.092011 
L 221.679881 118.026267 
L 221.924836 117.71109 
L 222.418778 116.35407 
L 222.931006 114.143488 
L 224.295693 107.308752 
L 224.897435 105.431384 
L 225.213241 104.959182 
L 225.530276 104.852256 
L 225.847454 105.09744 
L 226.164631 105.658948 
L 226.798987 107.547701 
L 227.433342 110.256851 
L 228.384874 115.307063 
L 231.556649 134.373986 
L 233.860648 149.206078 
L 234.421686 151.092217 
L 234.869816 151.834454 
L 235.251992 152.041426 
L 235.661146 151.978977 
L 236.62351 151.467024 
L 237.782167 150.964284 
L 238.334184 150.965909 
L 238.791749 151.191316 
L 239.27759 151.680467 
L 240.515704 153.128604 
L 240.758317 153.125379 
L 241.006389 152.922484 
L 241.33917 152.280278 
L 241.78771 150.733371 
L 242.345681 147.797129 
L 243.200882 141.841006 
L 244.368892 132.1431 
L 245.889291 117.361453 
L 246.951305 108.000252 
L 247.641132 103.759414 
L 248.211374 101.457821 
L 248.768446 100.03948 
L 249.555126 98.755104 
L 251.228405 96.379439 
L 251.714734 95.039749 
L 252.13398 93.132291 
L 252.510955 90.46012 
L 252.984924 85.432274 
L 253.57288 76.309548 
L 254.413858 58.64423 
L 255.961629 25.154152 
L 256.512038 16.958901 
L 257.079771 11.769001 
L 257.45826 10.24549 
L 257.647505 10.062685 
L 257.836749 10.268668 
L 258.025994 10.858734 
L 258.404483 13.150885 
L 258.931752 18.708846 
L 259.60288 29.195718 
L 260.542685 48.239603 
L 261.940342 76.345755 
L 262.600826 85.493175 
L 263.064157 89.382519 
L 263.384492 90.800943 
L 263.628543 91.19632 
L 263.791243 91.149903 
L 264.035294 90.647095 
L 264.360694 89.223656 
L 264.848795 85.691915 
L 265.562181 78.468284 
L 267.345799 59.320684 
L 267.814323 56.718738 
L 268.141313 55.957392 
L 268.280502 55.920371 
L 268.427392 56.070858 
L 268.661755 56.711113 
L 268.979538 58.362375 
L 269.434297 62.268339 
L 270.024051 69.753493 
L 270.711592 81.568434 
L 271.598165 100.738711 
L 272.896573 134.415199 
L 274.809883 183.526587 
L 275.877755 205.345562 
L 276.69908 218.126303 
L 277.252087 223.908591 
L 277.665516 226.334464 
L 277.91943 226.95264 
L 278.102118 226.971248 
L 278.295587 226.596143 
L 278.608639 225.151103 
L 279.049103 221.497675 
L 279.612425 214.419956 
L 280.499095 199.650563 
L 283.263725 151.05308 
L 284.015103 142.471972 
L 284.597107 138.484172 
L 284.990637 137.268837 
L 285.190166 137.101442 
L 285.389694 137.218748 
L 285.788752 138.193479 
L 286.345461 140.779573 
L 287.606672 147.451329 
L 287.921975 148.293436 
L 288.079626 148.479748 
L 288.237278 148.479543 
L 288.394929 148.271084 
L 288.710232 147.185077 
L 289.038737 145.084026 
L 289.497781 140.415618 
L 290.019931 132.732612 
L 290.788685 117.518892 
L 293.115746 67.669469 
L 293.687943 61.167609 
L 294.049425 59.14232 
L 294.298382 58.749413 
L 294.423122 58.855308 
L 294.675038 59.654699 
L 295.068804 62.377034 
L 295.593825 68.446096 
L 296.428397 81.655848 
L 297.393674 96.317661 
L 297.89649 101.226763 
L 298.260327 103.095673 
L 298.493926 103.5206 
L 298.656163 103.465423 
L 298.824682 103.113425 
L 299.094378 101.958987 
L 299.468568 99.280129 
L 300.035685 93.382558 
L 301.202436 80.561562 
L 301.600516 78.261612 
L 301.810352 77.790322 
L 301.916421 77.760776 
L 302.130377 78.12759 
L 302.457607 79.740366 
L 302.923894 83.885673 
L 303.763325 94.208624 
L 306.510481 131.087902 
L 308.163576 156.450585 
L 308.685719 161.587211 
L 309.152953 164.476545 
L 309.499647 165.671229 
L 309.850265 166.152973 
L 310.025574 166.137137 
L 310.200883 165.942676 
L 310.551501 164.971207 
L 310.913665 163.055851 
L 311.296244 159.876611 
L 311.850405 153.099741 
L 312.689685 139.171991 
L 313.599903 124.573832 
L 314.030302 120.591798 
L 314.263221 119.768714 
L 314.3775 119.751163 
L 314.500635 120.028225 
L 314.693667 121.087771 
L 315.012816 124.468997 
L 315.460056 132.240698 
L 316.101141 147.904491 
L 317.515087 183.382408 
L 318.013415 190.311482 
L 318.307825 192.046258 
L 318.409135 192.204084 
L 318.514562 192.132255 
L 318.725415 191.290332 
L 319.049567 188.299503 
L 319.502809 181.055298 
L 320.069362 167.627263 
L 320.749225 145.372739 
L 322.922148 66.480306 
L 323.308938 60.53297 
L 323.729127 57.279029 
L 324.021019 56.632621 
L 324.166965 56.788348 
L 324.458857 58.142355 
L 324.71869 60.651236 
L 325.186443 68.434587 
L 325.834946 84.690364 
L 327.095116 117.353 
L 327.504851 123.236024 
L 327.830294 125.257902 
L 327.970443 125.385077 
L 328.132175 124.985435 
L 328.403482 123.066484 
L 328.770414 118.351232 
L 330.512643 92.082374 
L 330.944227 89.578038 
L 331.234183 88.90487 
L 331.392791 88.881343 
L 331.55616 89.107911 
L 331.836378 90.061354 
L 332.233532 92.46139 
L 332.83165 97.682576 
L 334.794422 116.105157 
L 335.189289 117.71286 
L 335.544422 118.290029 
L 335.735323 118.313278 
L 335.928564 118.117416 
L 336.187338 117.42564 
L 336.518504 115.688754 
L 336.990393 111.744771 
L 337.788669 104.697085 
L 338.081334 103.600078 
L 338.182108 103.527518 
L 338.282882 103.621536 
L 338.485194 104.313402 
L 338.797779 106.601309 
L 339.238876 111.766548 
L 339.94571 123.391938 
L 341.568187 151.776878 
L 342.613748 167.569026 
L 343.646315 188.440962 
L 344.818199 211.285686 
L 345.588269 222.105227 
L 346.282917 228.693623 
L 347.154233 234.962632 
L 347.463654 236.105355 
L 347.67175 236.197827 
L 347.831762 235.842712 
L 348.104205 234.378365 
L 348.464389 230.891967 
L 348.978809 223.378831 
L 349.66983 209.878879 
L 350.644529 190.797745 
L 350.925222 188.062557 
L 351.112351 187.436872 
L 351.205915 187.515193 
L 351.400691 188.528156 
L 351.69542 192.117842 
L 352.214895 202.829826 
L 353.533149 232.054899 
L 354.183873 241.618428 
L 354.574308 245.243964 
L 354.964742 246.948282 
L 355.094887 247.082003 
L 355.225032 247.016186 
L 355.485322 246.338473 
L 355.875756 244.041662 
L 356.271849 240.023561 
L 356.686228 233.648917 
L 357.264701 220.570657 
L 358.287034 190.010526 
L 359.228244 164.957294 
L 359.760438 156.036015 
L 359.99512 154.220716 
L 360.118402 153.908238 
L 360.241684 154.057757 
L 360.502058 155.855974 
L 360.897305 161.688909 
L 361.980099 180.146528 
L 362.39591 184.302429 
L 362.781157 186.279589 
L 363.030084 186.699014 
L 363.279204 186.720255 
L 363.622393 186.721412 
L 363.863155 187.060561 
L 364.204057 188.211318 
L 365.547999 193.906542 
L 365.691479 193.789323 
L 365.917194 192.994856 
L 366.229982 190.674937 
L 366.75295 184.386526 
L 367.854772 167.312856 
L 370.468209 122.201385 
L 371.766343 96.513327 
L 372.123363 93.08843 
L 372.480383 91.45725 
L 372.718397 91.155625 
L 372.837403 91.209232 
L 373.086606 91.706338 
L 373.460409 93.197684 
L 374.208624 97.482564 
L 374.749864 101.626612 
L 375.185119 107.110976 
L 375.654701 116.377693 
L 377.498317 157.425319 
L 377.933054 161.062711 
L 378.306209 162.729828 
L 378.586076 163.247836 
L 378.772654 163.224063 
L 378.959232 162.857723 
L 379.239099 161.638039 
L 379.740546 158.041285 
L 380.230336 153.21523 
L 380.720127 145.798199 
L 382.550726 113.281133 
L 382.91611 110.053823 
L 383.102392 109.580449 
L 383.195532 109.687351 
L 383.381814 110.588836 
L 383.661236 113.498427 
L 384.22008 122.865202 
L 384.873187 137.280372 
L 386.233439 170.484912 
L 386.937085 187.320293 
L 387.531167 201.010165 
L 387.907564 206.027106 
L 388.293803 208.861318 
L 388.551295 209.717096 
L 388.680042 209.791101 
L 388.808788 209.577924 
L 389.066281 208.09555 
L 389.323773 204.990249 
L 390.739983 182.732482 
L 391.126222 180.77628 
L 391.383715 180.224664 
L 391.512461 180.177662 
L 391.641207 180.299103 
L 391.927131 181.204197 
L 392.387406 184.075729 
L 393.365989 190.388083 
L 394.380666 196.651828 
L 395.087205 202.821817 
L 395.672254 210.41219 
L 396.374312 219.837028 
L 396.725342 222.282674 
L 396.959361 222.968475 
L 397.077094 223.052648 
L 397.196281 222.933477 
L 397.437209 221.912379 
L 397.783496 218.296853 
L 398.315903 208.79964 
L 399.421555 188.177976 
L 401.149977 159.142494 
L 402.034319 137.650593 
L 403.359192 104.105319 
L 403.741662 100.091318 
L 404.126552 98.037975 
L 404.326966 97.670174 
L 404.531936 97.707489 
L 404.811265 97.861681 
L 404.954459 97.708373 
L 405.169249 96.970408 
L 405.527233 94.617576 
L 406.057964 89.900081 
L 406.443758 84.277177 
L 407.046936 75.730335 
L 407.494792 72.850419 
L 407.84946 71.744421 
L 407.94352 71.733174 
L 408.131641 72.018057 
L 408.425305 72.489421 
L 408.525544 72.403115 
L 408.728153 71.578727 
L 409.044324 68.512554 
L 410.066992 53.52506 
L 410.728183 44.835517 
L 411.026887 43.151222 
L 411.294364 42.708712 
L 411.45247 42.918342 
L 411.669007 43.841949 
L 412.195781 47.871844 
L 412.665999 50.716164 
L 412.887288 51.216006 
L 413.030388 51.157081 
L 413.246514 50.460079 
L 413.534681 48.430153 
L 414.921271 36.395997 
L 415.620337 33.557747 
L 415.827461 33.402624 
L 416.035069 33.869154 
L 416.457131 35.808341 
L 416.791293 38.200973 
L 417.734513 46.06006 
L 418.206124 49.387181 
L 418.567878 53.864542 
L 419.08566 63.838519 
L 420.456255 92.381045 
L 420.975821 99.192381 
L 421.243562 100.745049 
L 421.332809 100.859902 
L 421.422797 100.755717 
L 421.602773 99.882097 
L 421.873785 97.001925 
L 422.361999 88.388072 
L 422.361999 88.388072 
" clip-path="url(#pd9ce900de7)" style="fill: none; stroke: #e36f47"/>
   </g>
   <g id="patch_3">
    <path d="M 36.567899 258.225354 
L 36.567899 2.834646 
" style="fill: none; stroke: #000000; stroke-linejoin: miter; stroke-linecap: square"/>
   </g>
   <g id="patch_4">
    <path d="M 36.567899 258.225354 
L 422.361999 258.225354 
" style="fill: none; stroke: #000000; stroke-linejoin: miter; stroke-linecap: square"/>
   </g>
   <g id="line2d_15">
    <path d="M 36.567899 135.641886 
L 41.559122 135.530808 
L 46.138209 134.959752 
L 47.826135 134.575656 
L 49.973185 133.865011 
L 56.586507 131.052807 
L 58.246728 130.010132 
L 63.61523 126.395253 
L 67.406324 124.251792 
L 68.89152 123.569341 
L 74.352518 121.625885 
L 76.913867 120.531825 
L 77.957596 120.340969 
L 78.998464 120.360012 
L 79.952708 120.598844 
L 81.118946 121.13135 
L 82.76839 122.122365 
L 85.612071 123.917858 
L 86.800699 124.342854 
L 87.705287 124.461146 
L 88.581417 124.405957 
L 89.537913 124.145525 
L 91.128632 123.406421 
L 92.322374 122.934888 
L 93.286112 122.762883 
L 94.099299 122.801026 
L 94.934201 123.043633 
L 95.769444 123.5235 
L 96.771731 124.439877 
L 97.828109 125.794152 
L 98.849549 127.467705 
L 99.964158 129.731724 
L 101.170709 132.680006 
L 102.720664 137.043959 
L 104.609252 143.028528 
L 107.581361 153.350431 
L 109.522955 159.76415 
L 110.407889 162.10182 
L 111.350796 163.930361 
L 111.985419 164.692413 
L 112.61145 165.018684 
L 113.146502 164.931845 
L 113.684026 164.485149 
L 114.256611 163.604089 
L 114.879944 162.173568 
L 115.734007 159.444892 
L 116.784136 154.955032 
L 118.030691 148.224688 
L 122.642996 121.113004 
L 123.812716 116.326825 
L 124.906156 112.886337 
L 126.073514 109.998553 
L 127.762836 106.50393 
L 130.564178 101.228381 
L 131.808918 99.323626 
L 132.422173 98.665527 
L 133.003189 98.279519 
L 133.525866 98.157532 
L 134.100494 98.286995 
L 134.695175 98.718468 
L 135.312045 99.481122 
L 136.1373 100.973693 
L 136.993214 103.015341 
L 138.293087 106.774062 
L 140.90242 114.512111 
L 141.91561 116.688301 
L 142.453948 117.482229 
L 142.988159 117.978209 
L 143.573099 118.167406 
L 144.128893 118.002489 
L 144.768716 117.423316 
L 145.578074 116.18404 
L 146.789078 113.673809 
L 148.635293 109.802829 
L 149.737918 108.099764 
L 150.570265 107.220483 
L 151.399676 106.667455 
L 152.230024 106.374519 
L 153.281111 106.263095 
L 154.37555 106.365479 
L 155.363531 106.682132 
L 156.238563 107.238101 
L 157.02156 108.05102 
L 157.757079 109.172714 
L 158.519058 110.791051 
L 159.346349 113.177977 
L 160.09512 115.972418 
L 161.126904 120.838448 
L 162.200194 127.033318 
L 163.788849 137.711226 
L 166.556254 156.657293 
L 167.955077 164.450894 
L 169.116656 169.710288 
L 170.264287 173.966064 
L 171.505207 177.639165 
L 172.395586 179.56281 
L 172.884146 180.25135 
L 173.338706 180.581003 
L 173.620947 180.605827 
L 173.878478 180.492297 
L 174.127222 180.247981 
L 174.688866 179.15465 
L 175.251026 177.220858 
L 175.977086 173.327549 
L 176.617516 168.467123 
L 177.308515 161.639993 
L 178.228323 150.035058 
L 179.268455 133.985326 
L 182.234528 85.63281 
L 183.041211 76.322223 
L 183.638609 71.345161 
L 184.240473 68.060336 
L 184.628073 66.825996 
L 185.05851 66.184627 
L 185.254601 66.119919 
L 185.47487 66.196187 
L 185.868947 66.668635 
L 186.414011 67.840164 
L 187.920659 71.537203 
L 188.283414 71.964694 
L 188.615712 72.04348 
L 188.938371 71.781537 
L 189.209358 71.276363 
L 189.680914 69.731539 
L 190.185268 67.13468 
L 190.803051 62.75343 
L 191.977345 52.225383 
L 193.06923 43.049049 
L 193.715538 39.423287 
L 194.06293 38.287551 
L 194.444354 37.776965 
L 194.6383 37.824017 
L 194.826392 38.06911 
L 195.192232 39.103599 
L 195.553581 40.825903 
L 196.145356 45.02244 
L 196.954413 53.017317 
L 198.269481 69.073456 
L 199.960047 89.087276 
L 201.426033 103.325658 
L 206.157841 145.553666 
L 207.011433 150.872103 
L 207.685516 153.718807 
L 208.250693 155.119571 
L 208.657983 155.590146 
L 209.08836 155.627851 
L 209.490478 155.264451 
L 210.032357 154.206662 
L 210.550533 152.610649 
L 211.16184 150.002228 
L 211.860556 146.028783 
L 212.706148 139.806177 
L 213.735198 130.421029 
L 216.010576 108.840004 
L 216.581135 105.426614 
L 216.932865 104.081745 
L 217.281013 103.37302 
L 217.570866 103.260125 
L 217.892062 103.619752 
L 218.203553 104.411873 
L 218.728549 106.548893 
L 219.72582 112.053837 
L 220.620577 116.504863 
L 221.156976 118.129333 
L 221.467514 118.575681 
L 221.751231 118.638311 
L 222.058441 118.330573 
L 222.471123 117.332946 
L 222.948828 115.473795 
L 225.000712 106.155365 
L 225.461009 105.386356 
L 225.733965 105.300714 
L 226.046655 105.536514 
L 226.352574 106.091101 
L 226.827514 107.509903 
L 227.528008 110.570352 
L 228.486812 115.95236 
L 234.079433 149.622966 
L 234.681134 151.597542 
L 235.184156 152.433842 
L 235.659978 152.687707 
L 236.197023 152.612826 
L 237.575376 152.256287 
L 239.393807 152.128383 
L 240.412712 152.10009 
L 240.779916 151.86029 
L 241.235543 151.162118 
L 241.608488 150.149363 
L 242.029631 148.439576 
L 242.560724 145.459739 
L 243.474858 138.783206 
L 245.195899 124.03719 
L 247.336964 105.474232 
L 247.934137 102.043623 
L 248.392307 100.279184 
L 248.900326 99.10274 
L 249.339681 98.562951 
L 250.75452 97.31267 
L 251.256501 96.176466 
L 251.645712 94.766407 
L 252.104788 92.302406 
L 252.681993 87.588855 
L 253.275425 80.366638 
L 253.896618 69.936043 
L 254.930916 47.770451 
L 256.018658 25.529016 
L 256.61052 17.215692 
L 257.025022 13.63304 
L 257.427454 12.027617 
L 257.6053 11.898787 
L 257.709262 11.983004 
L 257.984453 12.747621 
L 258.234875 14.087621 
L 258.629099 17.303827 
L 259.220088 24.222497 
L 259.997166 36.128601 
L 261.450106 62.841834 
L 262.523231 80.766815 
L 263.166606 87.730816 
L 263.555495 89.991553 
L 263.803311 90.628765 
L 263.910813 90.71475 
L 264.053038 90.657759 
L 264.321453 90.04749 
L 264.725415 88.028366 
L 265.247171 83.900378 
L 266.245592 73.676776 
L 267.264958 63.781513 
L 267.872636 59.705622 
L 268.166646 58.544513 
L 268.488752 58.02538 
L 268.638686 58.078514 
L 268.81192 58.387505 
L 269.149264 59.780481 
L 269.471661 62.112709 
L 269.974036 67.682073 
L 270.669325 78.966935 
L 271.633828 99.909771 
L 273.188562 139.795883 
L 275.078243 186.674403 
L 276.088882 206.030551 
L 276.834392 216.487321 
L 277.368367 221.65363 
L 277.798061 224.201896 
L 278.098172 225.037581 
L 278.243029 225.145458 
L 278.403975 225.031745 
L 278.715065 224.099415 
L 279.013155 222.315984 
L 279.493444 217.656128 
L 280.187836 207.489343 
L 281.162339 188.802663 
L 282.691856 159.255197 
L 283.552905 146.762785 
L 284.173318 140.515491 
L 284.663107 137.44383 
L 284.99897 136.353823 
L 285.300527 136.093406 
L 285.578062 136.441892 
L 285.838543 137.248544 
L 286.345851 139.916252 
L 287.80662 149.116821 
L 288.160297 149.919091 
L 288.28074 149.951935 
L 288.414594 149.830739 
L 288.682086 149.064935 
L 288.969493 147.430426 
L 289.394414 143.448889 
L 289.974257 135.170919 
L 290.762667 119.70871 
L 293.137969 69.399863 
L 293.654303 63.153401 
L 294.041793 60.464073 
L 294.310795 59.679694 
L 294.460337 59.633673 
L 294.58505 59.807556 
L 294.892643 61.044744 
L 295.207529 63.443181 
L 295.70349 69.19852 
L 296.594361 83.113886 
L 297.561395 97.357877 
L 298.114546 102.465902 
L 298.479481 104.137584 
L 298.747269 104.468209 
L 298.938935 104.253278 
L 299.149285 103.607374 
L 299.476319 101.826671 
L 299.940022 97.966409 
L 301.708603 81.441942 
L 302.053292 80.597144 
L 302.16472 80.59949 
L 302.381423 80.98737 
L 302.718924 82.537035 
L 303.204487 86.428502 
L 303.966213 94.927274 
L 305.679471 117.283228 
L 306.778904 134.871876 
L 308.126166 156.400042 
L 308.765716 163.355427 
L 309.276099 166.618862 
L 309.591434 167.610008 
L 309.819953 167.865416 
L 310.056327 167.738018 
L 310.293351 167.221774 
L 310.647162 165.730742 
L 311.09247 162.584669 
L 311.629302 156.833142 
L 312.372401 145.708711 
L 313.802038 122.911869 
L 314.181548 119.6395 
L 314.448387 118.765624 
L 314.565289 118.807513 
L 314.819291 119.849922 
L 315.170319 123.458108 
L 315.619734 131.434706 
L 316.313138 148.80573 
L 317.450851 177.901433 
L 317.947313 186.002587 
L 318.276325 188.897457 
L 318.482596 189.627597 
L 318.595161 189.671449 
L 318.792846 189.152795 
L 319.008851 187.746357 
L 319.350015 183.849778 
L 319.853426 174.698307 
L 320.440175 159.391263 
L 321.233064 131.67616 
L 322.975679 67.318774 
L 323.477866 57.61094 
L 323.82767 54.373631 
L 324.056935 53.704207 
L 324.134286 53.717598 
L 324.299938 54.129982 
L 324.583314 55.990722 
L 324.953268 60.524361 
L 325.441784 70.026995 
L 326.197692 90.561686 
L 327.087583 113.833878 
L 327.52904 120.920857 
L 327.833132 123.347722 
L 328.049733 123.816271 
L 328.175712 123.627021 
L 328.402107 122.505784 
L 328.744934 119.18694 
L 329.27087 111.529181 
L 330.501784 92.826986 
L 331.003139 88.446401 
L 331.390353 86.772771 
L 331.61866 86.509765 
L 331.779682 86.654037 
L 332.052028 87.509064 
L 332.43986 89.944025 
L 332.988374 95.248314 
L 334.733929 113.663317 
L 335.214602 116.355848 
L 335.504098 117.07448 
L 335.700057 117.202562 
L 335.936635 117.030031 
L 336.206569 116.471857 
L 336.615167 115.013205 
L 337.120295 112.287841 
L 338.118979 106.399581 
L 338.395409 105.873058 
L 338.557214 105.993592 
L 338.783676 106.754891 
L 339.080195 108.818493 
L 339.50344 113.679794 
L 340.140796 124.141136 
L 342.586794 168.041256 
L 343.426213 183.083171 
L 345.503855 223.511575 
L 346.141567 231.126471 
L 346.679953 234.986664 
L 347.076842 236.431947 
L 347.331202 236.812841 
L 347.488895 236.840242 
L 347.649467 236.693619 
L 347.931048 235.955902 
L 348.220573 234.450547 
L 348.663986 230.469855 
L 349.212435 222.899962 
L 350.204132 205.162854 
L 350.906277 194.00558 
L 351.23713 191.253261 
L 351.450305 190.848649 
L 351.592147 191.252519 
L 351.779785 192.63415 
L 352.062832 196.457907 
L 352.503409 205.717565 
L 353.983689 239.834216 
L 354.55576 247.364195 
L 354.962657 250.342762 
L 355.232951 250.997315 
L 355.372793 250.876297 
L 355.563226 250.199838 
L 355.829682 248.309451 
L 356.275818 243.082189 
L 356.913825 232.452142 
L 357.581964 217.598678 
L 358.638791 187.428885 
L 359.528762 164.816601 
L 360.000068 157.388355 
L 360.275526 155.370997 
L 360.454162 155.127264 
L 360.581605 155.478115 
L 360.804538 157.101735 
L 361.18645 162.395342 
L 362.609984 185.851652 
L 362.982815 188.240998 
L 363.24146 188.920284 
L 363.485005 189.116158 
L 364.027007 189.365851 
L 364.356411 189.998549 
L 364.937766 191.872496 
L 365.476237 193.315796 
L 365.750899 193.540241 
L 365.902618 193.423499 
L 366.105395 192.921247 
L 366.391729 191.388842 
L 366.71655 188.321609 
L 367.213496 181.135073 
L 369.103811 147.329445 
L 372.323928 90.421643 
L 372.679351 88.311377 
L 372.868566 88.068213 
L 372.991891 88.177412 
L 373.253996 88.916936 
L 373.766934 91.377865 
L 374.35689 95.218359 
L 374.847841 99.964751 
L 375.35926 107.222937 
L 375.980118 119.816409 
L 377.772806 159.997694 
L 378.265774 164.653098 
L 378.696374 166.818547 
L 378.946426 167.180259 
L 379.086405 167.025163 
L 379.302903 166.220573 
L 379.607337 163.927123 
L 380.066476 158.423989 
L 380.779248 146.830924 
L 382.68153 113.201932 
L 383.085522 109.803368 
L 383.241443 109.457386 
L 383.351256 109.600109 
L 383.528314 110.516784 
L 383.833073 113.887074 
L 384.393194 123.64154 
L 385.197763 141.412975 
L 387.051045 188.292674 
L 387.900161 204.103642 
L 388.279086 207.564657 
L 388.577222 208.521798 
L 388.735144 208.520302 
L 388.904666 208.17127 
L 389.168552 206.913944 
L 389.477245 204.248405 
L 389.950275 197.743874 
L 390.87091 184.609055 
L 391.28419 181.779862 
L 391.590152 180.856954 
L 391.775432 180.712583 
L 391.947142 180.842642 
L 392.199501 181.4612 
L 392.601502 183.257949 
L 393.653479 189.492531 
L 394.261457 194.577063 
L 397.008622 220.397743 
L 397.287445 221.129606 
L 397.414063 221.097529 
L 397.61898 220.565382 
L 397.887043 218.97157 
L 398.251034 215.135618 
L 398.797438 206.248656 
L 400.105767 179.907863 
L 402.414034 126.76873 
L 403.469684 103.047125 
L 403.95244 96.29597 
L 404.472447 92.025564 
L 404.881239 90.120619 
L 405.240173 89.378396 
L 405.554357 88.660748 
L 405.869464 87.15622 
L 406.353827 83.441411 
L 406.905197 77.349266 
L 407.553763 70.312253 
L 407.917282 68.459942 
L 409.151947 63.763368 
L 409.571007 60.334256 
L 410.91086 48.123011 
L 411.292724 46.449208 
L 411.492559 46.237966 
L 411.662191 46.459182 
L 411.858077 47.144428 
L 412.24764 49.471564 
L 412.775836 52.531763 
L 413.008502 53.005884 
L 413.133773 52.958135 
L 413.320323 52.519559 
L 413.61741 51.084851 
L 414.099529 47.38703 
L 414.802382 39.807522 
L 415.543299 32.302135 
L 415.991498 29.748457 
L 416.297713 29.007589 
L 416.463334 29.016534 
L 416.65879 29.447322 
L 416.939824 30.836069 
L 417.393974 34.536919 
L 417.942184 40.94963 
L 418.581315 51.240373 
L 419.348065 67.512216 
L 420.660783 96.029075 
L 421.11426 101.199368 
L 421.403372 102.514062 
L 421.554994 102.557176 
L 421.672069 102.277741 
L 421.876927 101.11425 
L 422.201709 97.528021 
L 422.361999 95.055636 
L 422.361999 95.055636 
" clip-path="url(#pd9ce900de7)" style="fill: none; stroke: #3ea44e"/>
   </g>
   <g id="legend_1">
    <g id="patch_5">
     <path d="M 332.945749 50.862146 
L 418.361999 50.862146 
L 418.361999 6.834646 
L 332.945749 6.834646 
z
" style="fill: #ffffff; stroke: #000000; stroke-linejoin: miter"/>
    </g>
    <g id="line2d_16">
     <path d="M 339.345749 16.513396 
L 347.345749 16.513396 
L 355.345749 16.513396 
" style="fill: none; stroke: #009afa; stroke-linejoin: miter"/>
    </g>
    <g id="text_15">
     <!-- GXBeam -->
     <g transform="translate(361.745749 19.313396) scale(0.08 -0.08)">
      <defs>
       <path id="DejaVuSans-47" d="M 3809 666 
L 3809 1919 
L 2778 1919 
L 2778 2438 
L 4434 2438 
L 4434 434 
Q 4069 175 3628 42 
Q 3188 -91 2688 -91 
Q 1594 -91 976 548 
Q 359 1188 359 2328 
Q 359 3472 976 4111 
Q 1594 4750 2688 4750 
Q 3144 4750 3555 4637 
Q 3966 4525 4313 4306 
L 4313 3634 
Q 3963 3931 3569 4081 
Q 3175 4231 2741 4231 
Q 1884 4231 1454 3753 
Q 1025 3275 1025 2328 
Q 1025 1384 1454 906 
Q 1884 428 2741 428 
Q 3075 428 3337 486 
Q 3600 544 3809 666 
z
" transform="scale(0.015625)"/>
       <path id="DejaVuSans-58" d="M 403 4666 
L 1081 4666 
L 2241 2931 
L 3406 4666 
L 4084 4666 
L 2584 2425 
L 4184 0 
L 3506 0 
L 2194 1984 
L 872 0 
L 191 0 
L 1856 2491 
L 403 4666 
z
" transform="scale(0.015625)"/>
       <path id="DejaVuSans-42" d="M 1259 2228 
L 1259 519 
L 2272 519 
Q 2781 519 3026 730 
Q 3272 941 3272 1375 
Q 3272 1813 3026 2020 
Q 2781 2228 2272 2228 
L 1259 2228 
z
M 1259 4147 
L 1259 2741 
L 2194 2741 
Q 2656 2741 2882 2914 
Q 3109 3088 3109 3444 
Q 3109 3797 2882 3972 
Q 2656 4147 2194 4147 
L 1259 4147 
z
M 628 4666 
L 2241 4666 
Q 2963 4666 3353 4366 
Q 3744 4066 3744 3513 
Q 3744 3084 3544 2831 
Q 3344 2578 2956 2516 
Q 3422 2416 3680 2098 
Q 3938 1781 3938 1306 
Q 3938 681 3513 340 
Q 3088 0 2303 0 
L 628 0 
L 628 4666 
z
" transform="scale(0.015625)"/>
      </defs>
      <use xlink:href="#DejaVuSans-47"/>
      <use xlink:href="#DejaVuSans-58" x="77.490234"/>
      <use xlink:href="#DejaVuSans-42" x="145.996094"/>
      <use xlink:href="#DejaVuSans-65" x="214.599609"/>
      <use xlink:href="#DejaVuSans-61" x="276.123047"/>
      <use xlink:href="#DejaVuSans-6d" x="337.402344"/>
     </g>
    </g>
    <g id="line2d_17">
     <path d="M 339.345749 28.255896 
L 347.345749 28.255896 
L 355.345749 28.255896 
" style="fill: none; stroke: #e36f47; stroke-linejoin: miter"/>
    </g>
    <g id="text_16">
     <!-- ODEProblem -->
     <g transform="translate(361.745749 31.055896) scale(0.08 -0.08)">
      <defs>
       <path id="DejaVuSans-4f" d="M 2522 4238 
Q 1834 4238 1429 3725 
Q 1025 3213 1025 2328 
Q 1025 1447 1429 934 
Q 1834 422 2522 422 
Q 3209 422 3611 934 
Q 4013 1447 4013 2328 
Q 4013 3213 3611 3725 
Q 3209 4238 2522 4238 
z
M 2522 4750 
Q 3503 4750 4090 4092 
Q 4678 3434 4678 2328 
Q 4678 1225 4090 567 
Q 3503 -91 2522 -91 
Q 1538 -91 948 565 
Q 359 1222 359 2328 
Q 359 3434 948 4092 
Q 1538 4750 2522 4750 
z
" transform="scale(0.015625)"/>
       <path id="DejaVuSans-44" d="M 1259 4147 
L 1259 519 
L 2022 519 
Q 2988 519 3436 956 
Q 3884 1394 3884 2338 
Q 3884 3275 3436 3711 
Q 2988 4147 2022 4147 
L 1259 4147 
z
M 628 4666 
L 1925 4666 
Q 3281 4666 3915 4102 
Q 4550 3538 4550 2338 
Q 4550 1131 3912 565 
Q 3275 0 1925 0 
L 628 0 
L 628 4666 
z
" transform="scale(0.015625)"/>
       <path id="DejaVuSans-45" d="M 628 4666 
L 3578 4666 
L 3578 4134 
L 1259 4134 
L 1259 2753 
L 3481 2753 
L 3481 2222 
L 1259 2222 
L 1259 531 
L 3634 531 
L 3634 0 
L 628 0 
L 628 4666 
z
" transform="scale(0.015625)"/>
       <path id="DejaVuSans-62" d="M 3116 1747 
Q 3116 2381 2855 2742 
Q 2594 3103 2138 3103 
Q 1681 3103 1420 2742 
Q 1159 2381 1159 1747 
Q 1159 1113 1420 752 
Q 1681 391 2138 391 
Q 2594 391 2855 752 
Q 3116 1113 3116 1747 
z
M 1159 2969 
Q 1341 3281 1617 3432 
Q 1894 3584 2278 3584 
Q 2916 3584 3314 3078 
Q 3713 2572 3713 1747 
Q 3713 922 3314 415 
Q 2916 -91 2278 -91 
Q 1894 -91 1617 61 
Q 1341 213 1159 525 
L 1159 0 
L 581 0 
L 581 4863 
L 1159 4863 
L 1159 2969 
z
" transform="scale(0.015625)"/>
       <path id="DejaVuSans-6c" d="M 603 4863 
L 1178 4863 
L 1178 0 
L 603 0 
L 603 4863 
z
" transform="scale(0.015625)"/>
      </defs>
      <use xlink:href="#DejaVuSans-4f"/>
      <use xlink:href="#DejaVuSans-44" x="78.710938"/>
      <use xlink:href="#DejaVuSans-45" x="155.712891"/>
      <use xlink:href="#DejaVuSans-50" x="218.896484"/>
      <use xlink:href="#DejaVuSans-72" x="277.449219"/>
      <use xlink:href="#DejaVuSans-6f" x="316.3125"/>
      <use xlink:href="#DejaVuSans-62" x="377.494141"/>
      <use xlink:href="#DejaVuSans-6c" x="440.970703"/>
      <use xlink:href="#DejaVuSans-65" x="468.753906"/>
      <use xlink:href="#DejaVuSans-6d" x="530.277344"/>
     </g>
    </g>
    <g id="line2d_18">
     <path d="M 339.345749 39.998396 
L 347.345749 39.998396 
L 355.345749 39.998396 
" style="fill: none; stroke: #3ea44e; stroke-linejoin: miter"/>
    </g>
    <g id="text_17">
     <!-- DAEProblem -->
     <g transform="translate(361.745749 42.798396) scale(0.08 -0.08)">
      <defs>
       <path id="DejaVuSans-41" d="M 2188 4044 
L 1331 1722 
L 3047 1722 
L 2188 4044 
z
M 1831 4666 
L 2547 4666 
L 4325 0 
L 3669 0 
L 3244 1197 
L 1141 1197 
L 716 0 
L 50 0 
L 1831 4666 
z
" transform="scale(0.015625)"/>
      </defs>
      <use xlink:href="#DejaVuSans-44"/>
      <use xlink:href="#DejaVuSans-41" x="75.251953"/>
      <use xlink:href="#DejaVuSans-45" x="143.660156"/>
      <use xlink:href="#DejaVuSans-50" x="206.84375"/>
      <use xlink:href="#DejaVuSans-72" x="265.396484"/>
      <use xlink:href="#DejaVuSans-6f" x="304.259766"/>
      <use xlink:href="#DejaVuSans-62" x="365.441406"/>
      <use xlink:href="#DejaVuSans-6c" x="428.917969"/>
      <use xlink:href="#DejaVuSans-65" x="456.701172"/>
      <use xlink:href="#DejaVuSans-6d" x="518.224609"/>
     </g>
    </g>
   </g>
  </g>
 </g>
 <defs>
  <clipPath id="pd9ce900de7">
   <rect x="36.567899" y="2.834646" width="385.7941" height="255.390709"/>
  </clipPath>
 </defs>
</svg>
