<?xml version="1.0" encoding="utf-8" standalone="no"?>
<!DOCTYPE svg PUBLIC "-//W3C//DTD SVG 1.1//EN"
  "http://www.w3.org/Graphics/SVG/1.1/DTD/svg11.dtd">
<svg xmlns:xlink="http://www.w3.org/1999/xlink" width="432pt" height="288pt" viewBox="0 0 432 288" xmlns="http://www.w3.org/2000/svg" version="1.1">
 <metadata>
  <rdf:RDF xmlns:dc="http://purl.org/dc/elements/1.1/" xmlns:cc="http://creativecommons.org/ns#" xmlns:rdf="http://www.w3.org/1999/02/22-rdf-syntax-ns#">
   <cc:Work>
    <dc:type rdf:resource="http://purl.org/dc/dcmitype/StillImage"/>
    <dc:date>2023-04-05T01:03:46.852051</dc:date>
    <dc:format>image/svg+xml</dc:format>
    <dc:creator>
     <cc:Agent>
      <dc:title>Matplotlib v3.7.1, https://matplotlib.org/</dc:title>
     </cc:Agent>
    </dc:creator>
   </cc:Work>
  </rdf:RDF>
 </metadata>
 <defs>
  <style type="text/css">*{stroke-linejoin: round; stroke-linecap: butt}</style>
 </defs>
 <g id="figure_1">
  <g id="patch_1">
   <path d="M 0 288 
L 432 288 
L 432 0 
L 0 0 
z
" style="fill: #ffffff"/>
  </g>
  <g id="axes_1">
   <g id="patch_2">
    <path d="M 41.781593 258.225354 
L 422.361999 258.225354 
L 422.361999 2.834646 
L 41.781593 2.834646 
z
" style="fill: #ffffff"/>
   </g>
   <g id="line2d_1">
    <path d="M 41.781593 133.890645 
L 42.923334 134.01556 
L 44.065075 134.403823 
L 45.206816 135.068332 
L 46.348558 135.987658 
L 47.680589 137.345446 
L 49.393201 139.579523 
L 50.915522 141.893636 
L 53.199005 145.893757 
L 58.33684 155.720822 
L 60.049452 158.826344 
L 61.381484 160.791733 
L 63.094095 162.840883 
L 65.758158 165.785978 
L 66.8999 166.721939 
L 67.851351 167.225158 
L 68.612511 167.356639 
L 69.373672 167.222054 
L 69.944543 166.894283 
L 70.705704 166.174436 
L 71.657155 164.932618 
L 72.608606 163.266337 
L 73.560057 161.158883 
L 74.892088 157.547614 
L 76.41441 152.582431 
L 78.317312 145.586525 
L 80.981375 134.799549 
L 83.455147 124.856338 
L 85.167759 118.920247 
L 87.260951 112.594622 
L 90.115304 104.841473 
L 91.637626 101.220338 
L 92.589077 99.487813 
L 93.540528 98.14189 
L 94.301689 97.357942 
L 95.06285 96.867687 
L 95.63372 96.729419 
L 96.204591 96.778827 
L 96.775461 97.019928 
L 97.346332 97.476809 
L 98.107493 98.381757 
L 99.058944 99.916264 
L 100.010395 101.929969 
L 101.152136 104.887904 
L 102.484168 108.923424 
L 104.38707 115.62868 
L 109.144325 133.172197 
L 111.237517 139.574938 
L 114.09187 147.539903 
L 117.707384 156.459105 
L 120.561737 163.56444 
L 122.464639 169.159561 
L 123.986961 174.380807 
L 127.792765 188.085262 
L 128.553925 189.999316 
L 129.315086 191.352641 
L 129.885957 191.941726 
L 130.456827 192.173348 
L 131.027698 192.095291 
L 131.598569 191.6966 
L 132.169439 190.964319 
L 132.9306 189.50485 
L 133.691761 187.53735 
L 134.643212 184.397787 
L 135.784953 179.684778 
L 137.116985 173.123338 
L 138.449016 165.343697 
L 139.971338 154.938908 
L 141.87424 140.144671 
L 145.489753 111.585391 
L 147.012075 101.78682 
L 148.344107 94.728057 
L 149.485848 89.951415 
L 150.437299 86.868541 
L 151.19846 85.025956 
L 151.76933 84.04971 
L 152.340201 83.432764 
L 152.911071 83.13676 
L 153.481942 83.127648 
L 154.052813 83.422148 
L 154.623683 83.9948 
L 155.384844 85.084871 
L 158.429487 90.074388 
L 159.000358 90.491389 
L 159.571229 90.664379 
L 160.142099 90.574291 
L 160.90326 90.097806 
L 162.996452 88.354923 
L 163.567323 88.243295 
L 163.947903 88.354385 
L 164.328484 88.668943 
L 164.899354 89.564111 
L 165.470225 90.982125 
L 166.041095 92.941974 
L 166.802256 96.411631 
L 167.753707 101.970773 
L 168.895448 110.161211 
L 170.41777 123.059889 
L 173.842994 152.922144 
L 175.175025 162.570406 
L 176.126476 168.170837 
L 177.077927 172.451242 
L 177.839088 174.795138 
L 178.409959 175.837416 
L 178.790539 176.169556 
L 179.171119 176.213126 
L 179.5517 175.973174 
L 179.93228 175.475521 
L 180.503151 174.314461 
L 181.264312 172.051561 
L 183.738084 163.732327 
L 184.118665 163.166757 
L 184.499245 163.000385 
L 184.879826 163.302612 
L 185.260406 164.098621 
L 185.640986 165.433897 
L 186.211857 168.451377 
L 186.782728 172.591617 
L 187.543888 179.735717 
L 188.87592 194.930423 
L 190.207951 209.421769 
L 190.969112 215.524953 
L 191.539983 218.53569 
L 191.920563 219.671572 
L 192.301143 220.102484 
L 192.491434 220.05514 
L 192.872014 219.451488 
L 193.252594 218.186215 
L 193.823465 215.132249 
L 194.584626 209.348997 
L 195.916657 196.755571 
L 197.248689 184.903027 
L 198.00985 179.68694 
L 198.77101 175.777297 
L 199.532171 172.814766 
L 200.673912 169.374184 
L 202.005944 166.070874 
L 202.767105 164.6265 
L 203.337975 163.994756 
L 203.718556 163.826635 
L 204.099136 163.867831 
L 204.670007 164.229756 
L 206.192328 165.765673 
L 206.572909 165.785453 
L 206.953489 165.469817 
L 207.33407 164.746065 
L 207.71465 163.520437 
L 208.285521 160.706194 
L 208.856391 156.656346 
L 209.617552 149.357225 
L 210.569003 137.770461 
L 213.613646 98.358891 
L 214.374807 91.680392 
L 214.945678 88.270035 
L 215.326258 86.83556 
L 215.706838 86.144611 
L 215.897129 86.064254 
L 216.087419 86.149265 
L 216.467999 86.808251 
L 216.84858 88.077259 
L 217.41945 90.862871 
L 219.322352 101.220439 
L 219.702933 102.065987 
L 219.893223 102.196171 
L 220.083513 102.124384 
L 220.273803 101.856874 
L 220.654384 100.748637 
L 221.225254 97.802601 
L 222.176705 90.927829 
L 223.128156 84.434278 
L 223.699027 81.823757 
L 224.079607 80.806406 
L 224.460188 80.360707 
L 224.650478 80.341113 
L 225.031058 80.628547 
L 225.601929 81.642105 
L 226.74367 84.001269 
L 227.124251 84.243502 
L 227.314541 84.190643 
L 227.695121 83.683325 
L 228.075702 82.595195 
L 228.646572 79.969611 
L 229.407733 75.02591 
L 231.120345 63.495193 
L 231.691216 61.371536 
L 232.071796 60.756498 
L 232.262086 60.697235 
L 232.452376 60.808785 
L 232.832957 61.541433 
L 233.213537 62.922879 
L 233.784408 66.055957 
L 234.545569 71.853113 
L 235.49702 81.042262 
L 237.019341 98.538131 
L 238.161082 111.035723 
L 238.922243 117.416944 
L 239.493114 120.836773 
L 240.063984 123.155967 
L 240.634855 124.430942 
L 241.015436 124.833031 
L 241.586306 125.029523 
L 242.157177 125.227347 
L 242.537757 125.609311 
L 242.918338 126.399032 
L 243.298918 127.778482 
L 243.679498 129.864947 
L 244.250369 134.466355 
L 245.01153 143.260954 
L 245.962981 157.781289 
L 249.197914 212.109242 
L 249.959075 220.05103 
L 250.720236 225.627107 
L 251.291106 228.420801 
L 251.861977 230.03099 
L 252.242558 230.374061 
L 252.432848 230.308241 
L 252.813428 229.693045 
L 253.194009 228.355886 
L 253.764879 225.021616 
L 254.33575 220.309921 
L 255.096911 212.167576 
L 256.238652 197.101659 
L 257.380393 182.651731 
L 257.951264 177.82403 
L 258.331844 175.963612 
L 258.712424 175.285995 
L 258.902715 175.400214 
L 259.093005 175.826105 
L 259.473585 177.610664 
L 259.854166 180.539854 
L 260.425036 186.806789 
L 261.376487 200.876107 
L 262.898809 224.636651 
L 263.469679 230.914403 
L 264.04055 234.659353 
L 264.421131 235.725669 
L 264.611421 235.845229 
L 264.801711 235.696688 
L 265.182291 234.642517 
L 265.562872 232.606228 
L 266.133742 227.725748 
L 266.894903 218.246136 
L 268.036644 199.77537 
L 269.749256 171.660159 
L 270.700707 159.298907 
L 271.652158 149.800833 
L 272.603609 142.623056 
L 274.125931 133.376454 
L 275.077382 128.343737 
L 275.648253 126.384835 
L 276.028833 125.753907 
L 276.219123 125.683517 
L 276.409413 125.785368 
L 276.789994 126.523826 
L 277.170574 128.071714 
L 277.741445 132.009527 
L 278.312315 137.882315 
L 279.073476 148.359783 
L 281.927829 191.882438 
L 282.4987 196.893299 
L 283.06957 199.889232 
L 283.450151 200.728694 
L 283.640441 200.808691 
L 283.830731 200.655648 
L 284.211312 199.653561 
L 284.591892 197.771318 
L 285.162763 193.473282 
L 285.923923 185.734333 
L 286.875375 173.750344 
L 288.017116 156.384755 
L 289.349147 132.308634 
L 290.681179 104.213215 
L 292.774371 58.925166 
L 293.535532 47.927096 
L 294.106402 43.177639 
L 294.486983 41.682032 
L 294.677273 41.399542 
L 294.867563 41.408324 
L 295.057853 41.687429 
L 295.438434 42.977803 
L 295.819014 45.161948 
L 296.389885 49.855637 
L 297.151045 58.145713 
L 298.102496 71.005128 
L 300.766559 110.237628 
L 301.33743 114.600249 
L 301.71801 115.861562 
L 301.908301 115.960557 
L 302.098591 115.703267 
L 302.479171 114.154894 
L 302.859752 111.362986 
L 303.430622 105.309975 
L 304.382073 92.187576 
L 305.904395 70.913142 
L 306.665556 62.78576 
L 307.426716 56.925525 
L 307.997587 54.122641 
L 308.378167 53.08967 
L 308.758748 52.624571 
L 309.139328 52.523963 
L 309.519909 52.471011 
L 309.900489 52.116215 
L 310.28107 51.205494 
L 310.66165 49.579951 
L 311.232521 45.802297 
L 311.993681 38.971694 
L 313.135423 28.283447 
L 313.516003 25.921466 
L 313.896583 24.720977 
L 314.086874 24.606153 
L 314.277164 24.83634 
L 314.467454 25.423986 
L 314.848034 27.703985 
L 315.228615 31.504854 
L 315.799485 40.210862 
L 316.370356 52.523853 
L 317.512097 84.101219 
L 318.463548 108.546748 
L 319.034419 119.075415 
L 319.414999 123.538122 
L 319.79558 125.512333 
L 319.98587 125.479292 
L 320.17616 124.754834 
L 320.55674 121.347394 
L 321.127611 112.200001 
L 322.079062 91.08845 
L 323.411094 61.222871 
L 323.981964 53.14063 
L 324.362545 50.677539 
L 324.552835 50.425407 
L 324.743125 50.84047 
L 325.123705 53.570429 
L 325.504286 58.485366 
L 326.075156 69.323968 
L 326.646027 84.264824 
L 327.597478 117.103503 
L 328.929509 163.330743 
L 329.50038 176.036271 
L 329.88096 181.008171 
L 330.261541 183.165847 
L 330.451831 183.20896 
L 330.642121 182.573308 
L 331.022702 179.45408 
L 331.783862 169.151119 
L 332.354733 162.072097 
L 332.925604 157.773843 
L 333.306184 156.566974 
L 333.496474 156.489048 
L 333.686765 156.775461 
L 334.067345 158.431109 
L 334.447925 161.494365 
L 335.018796 168.585306 
L 335.970247 184.92037 
L 337.111988 203.951712 
L 337.873149 213.605428 
L 338.44402 218.014146 
L 338.8246 219.37961 
L 339.01489 219.632935 
L 339.20518 219.610828 
L 339.395471 219.301078 
L 339.776051 217.789857 
L 340.156631 215.160074 
L 340.727502 209.299883 
L 341.488663 198.344785 
L 342.440114 184.529849 
L 342.820694 181.79255 
L 343.010984 181.236324 
L 343.201275 181.175453 
L 343.391565 181.535636 
L 343.772145 183.174956 
L 344.343016 187.116112 
L 345.294467 195.824824 
L 346.055628 204.689629 
L 347.007079 218.492367 
L 348.909981 248.130493 
L 349.290561 250.437732 
L 349.480851 250.920386 
L 349.671142 250.997315 
L 349.861432 250.690693 
L 350.242012 249.046714 
L 350.622593 246.225523 
L 351.193463 240.171284 
L 351.954624 228.841189 
L 353.096365 210.165795 
L 353.667236 204.406489 
L 354.238106 201.170302 
L 354.428397 200.64266 
L 354.618687 200.447419 
L 354.808977 200.610518 
L 354.999267 201.137011 
L 355.379848 203.227929 
L 355.950718 208.657178 
L 356.711879 219.122341 
L 358.234201 241.672159 
L 358.614781 245.173434 
L 358.805071 246.115185 
L 358.995362 246.402874 
L 359.185652 246.001467 
L 359.566232 243.221991 
L 360.137103 235.558557 
L 361.469134 216.598609 
L 362.420585 206.744713 
L 362.991456 202.732082 
L 363.372036 201.5044 
L 363.562326 201.429911 
L 363.752617 201.686866 
L 364.133197 202.873764 
L 365.465228 208.381534 
L 366.79726 215.079895 
L 367.17784 215.922624 
L 367.558421 216.212518 
L 367.748711 216.146146 
L 367.939001 215.900703 
L 368.319581 214.707688 
L 368.700162 212.20544 
L 369.080742 207.830066 
L 369.651613 197.071822 
L 370.793354 166.959203 
L 371.554515 150.355846 
L 372.125386 142.158363 
L 372.886546 134.808005 
L 373.647707 129.70063 
L 374.028288 128.166419 
L 374.408868 127.456124 
L 374.599158 127.435047 
L 374.789448 127.68392 
L 374.979739 128.267031 
L 375.360319 130.676036 
L 375.740899 135.009957 
L 376.50206 148.122454 
L 377.263221 160.533511 
L 377.643801 163.996645 
L 377.834092 164.744867 
L 378.024382 164.828639 
L 378.214672 164.294079 
L 378.595252 161.639938 
L 379.166123 154.758357 
L 379.736994 144.604551 
L 380.498155 124.870864 
L 382.210766 78.326592 
L 382.971927 62.382806 
L 383.542798 54.624634 
L 384.113668 49.746913 
L 384.303959 48.976937 
L 384.494249 48.732686 
L 384.684539 48.989693 
L 385.065119 50.615364 
L 385.63599 54.54266 
L 386.01657 58.269419 
L 386.587441 66.46355 
L 387.158312 74.661097 
L 387.538892 77.899629 
L 387.729182 78.720711 
L 387.919472 79.043249 
L 388.109763 78.891168 
L 388.300053 78.268104 
L 388.680633 75.514161 
L 389.251504 68.21995 
L 390.393245 49.988627 
L 391.344696 33.079051 
L 391.725277 29.133107 
L 392.296147 25.721981 
L 392.676728 24.135777 
L 392.867018 23.654399 
L 393.057308 23.490551 
L 393.247598 23.70325 
L 393.437888 24.309902 
L 393.818469 26.579806 
L 394.389339 31.706154 
L 394.96021 38.849433 
L 396.292241 56.89849 
L 397.053402 64.447081 
L 397.243692 65.436236 
L 397.433983 65.803388 
L 397.624273 65.452334 
L 397.814563 64.333405 
L 398.195143 59.822411 
L 398.766014 48.835151 
L 400.098045 21.47973 
L 400.668916 14.272002 
L 401.049496 11.679985 
L 401.430077 10.436664 
L 401.810657 10.062685 
L 402.000947 10.189366 
L 402.381528 11.107768 
L 402.762108 12.798793 
L 403.523269 17.672981 
L 403.90385 21.281311 
L 404.47472 29.571399 
L 405.235881 44.852714 
L 406.567912 73.224693 
L 407.138783 81.467561 
L 407.519363 85.090119 
L 407.899944 86.693908 
L 408.090234 86.694372 
L 408.280524 86.192352 
L 408.661105 83.886401 
L 409.612556 76.749538 
L 410.754297 70.097666 
L 411.325167 65.228641 
L 413.037779 47.007078 
L 413.41836 45.062856 
L 413.60865 44.483547 
L 413.79894 44.284298 
L 413.98923 44.556586 
L 414.17952 45.368055 
L 414.560101 48.539884 
L 415.130972 55.911335 
L 416.843583 79.753306 
L 417.224164 82.628103 
L 417.604744 84.019664 
L 417.985325 84.463084 
L 418.175615 84.384023 
L 418.365905 84.055809 
L 418.746485 82.626005 
L 419.317356 80.139864 
L 419.507646 79.888261 
L 419.697936 80.19432 
L 419.888227 81.128225 
L 420.268807 84.634585 
L 420.839678 92.044062 
L 421.410548 102.22324 
L 422.361999 122.273192 
L 422.361999 122.273192 
" clip-path="url(#p40398a7152)" style="fill: none; stroke: #009afa"/>
   </g>
   <g id="matplotlib.axis_1">
    <g id="xtick_1">
     <g id="line2d_2">
      <defs>
       <path id="m5ff6c0123e" d="M 0 0 
L 0 -2.5 
" style="stroke: #000000; stroke-width: 0.5"/>
      </defs>
      <g>
       <use xlink:href="#m5ff6c0123e" x="41.781593" y="258.225354" style="stroke: #000000; stroke-width: 0.5"/>
      </g>
     </g>
     <g id="text_1">
      <!-- $0.0$ -->
      <g transform="translate(35.381593 267.804104) scale(0.08 -0.08)">
       <defs>
        <path id="DejaVuSans-30" d="M 2034 4250 
Q 1547 4250 1301 3770 
Q 1056 3291 1056 2328 
Q 1056 1369 1301 889 
Q 1547 409 2034 409 
Q 2525 409 2770 889 
Q 3016 1369 3016 2328 
Q 3016 3291 2770 3770 
Q 2525 4250 2034 4250 
z
M 2034 4750 
Q 2819 4750 3233 4129 
Q 3647 3509 3647 2328 
Q 3647 1150 3233 529 
Q 2819 -91 2034 -91 
Q 1250 -91 836 529 
Q 422 1150 422 2328 
Q 422 3509 836 4129 
Q 1250 4750 2034 4750 
z
" transform="scale(0.015625)"/>
        <path id="DejaVuSans-2e" d="M 684 794 
L 1344 794 
L 1344 0 
L 684 0 
L 684 794 
z
" transform="scale(0.015625)"/>
       </defs>
       <use xlink:href="#DejaVuSans-30" transform="translate(0 0.78125)"/>
       <use xlink:href="#DejaVuSans-2e" transform="translate(63.623047 0.78125)"/>
       <use xlink:href="#DejaVuSans-30" transform="translate(95.410156 0.78125)"/>
      </g>
     </g>
    </g>
    <g id="xtick_2">
     <g id="line2d_3">
      <g>
       <use xlink:href="#m5ff6c0123e" x="136.926694" y="258.225354" style="stroke: #000000; stroke-width: 0.5"/>
      </g>
     </g>
     <g id="text_2">
      <!-- $0.5$ -->
      <g transform="translate(130.526694 267.804104) scale(0.08 -0.08)">
       <defs>
        <path id="DejaVuSans-35" d="M 691 4666 
L 3169 4666 
L 3169 4134 
L 1269 4134 
L 1269 2991 
Q 1406 3038 1543 3061 
Q 1681 3084 1819 3084 
Q 2600 3084 3056 2656 
Q 3513 2228 3513 1497 
Q 3513 744 3044 326 
Q 2575 -91 1722 -91 
Q 1428 -91 1123 -41 
Q 819 9 494 109 
L 494 744 
Q 775 591 1075 516 
Q 1375 441 1709 441 
Q 2250 441 2565 725 
Q 2881 1009 2881 1497 
Q 2881 1984 2565 2268 
Q 2250 2553 1709 2553 
Q 1456 2553 1204 2497 
Q 953 2441 691 2322 
L 691 4666 
z
" transform="scale(0.015625)"/>
       </defs>
       <use xlink:href="#DejaVuSans-30" transform="translate(0 0.78125)"/>
       <use xlink:href="#DejaVuSans-2e" transform="translate(63.623047 0.78125)"/>
       <use xlink:href="#DejaVuSans-35" transform="translate(95.410156 0.78125)"/>
      </g>
     </g>
    </g>
    <g id="xtick_3">
     <g id="line2d_4">
      <g>
       <use xlink:href="#m5ff6c0123e" x="232.071796" y="258.225354" style="stroke: #000000; stroke-width: 0.5"/>
      </g>
     </g>
     <g id="text_3">
      <!-- $1.0$ -->
      <g transform="translate(225.671796 267.804104) scale(0.08 -0.08)">
       <defs>
        <path id="DejaVuSans-31" d="M 794 531 
L 1825 531 
L 1825 4091 
L 703 3866 
L 703 4441 
L 1819 4666 
L 2450 4666 
L 2450 531 
L 3481 531 
L 3481 0 
L 794 0 
L 794 531 
z
" transform="scale(0.015625)"/>
       </defs>
       <use xlink:href="#DejaVuSans-31" transform="translate(0 0.78125)"/>
       <use xlink:href="#DejaVuSans-2e" transform="translate(63.623047 0.78125)"/>
       <use xlink:href="#DejaVuSans-30" transform="translate(95.410156 0.78125)"/>
      </g>
     </g>
    </g>
    <g id="xtick_4">
     <g id="line2d_5">
      <g>
       <use xlink:href="#m5ff6c0123e" x="327.216898" y="258.225354" style="stroke: #000000; stroke-width: 0.5"/>
      </g>
     </g>
     <g id="text_4">
      <!-- $1.5$ -->
      <g transform="translate(320.816898 267.804104) scale(0.08 -0.08)">
       <use xlink:href="#DejaVuSans-31" transform="translate(0 0.09375)"/>
       <use xlink:href="#DejaVuSans-2e" transform="translate(63.623047 0.09375)"/>
       <use xlink:href="#DejaVuSans-35" transform="translate(95.410156 0.09375)"/>
      </g>
     </g>
    </g>
    <g id="xtick_5">
     <g id="line2d_6">
      <g>
       <use xlink:href="#m5ff6c0123e" x="422.361999" y="258.225354" style="stroke: #000000; stroke-width: 0.5"/>
      </g>
     </g>
     <g id="text_5">
      <!-- $2.0$ -->
      <g transform="translate(415.961999 267.804104) scale(0.08 -0.08)">
       <defs>
        <path id="DejaVuSans-32" d="M 1228 531 
L 3431 531 
L 3431 0 
L 469 0 
L 469 531 
Q 828 903 1448 1529 
Q 2069 2156 2228 2338 
Q 2531 2678 2651 2914 
Q 2772 3150 2772 3378 
Q 2772 3750 2511 3984 
Q 2250 4219 1831 4219 
Q 1534 4219 1204 4116 
Q 875 4013 500 3803 
L 500 4441 
Q 881 4594 1212 4672 
Q 1544 4750 1819 4750 
Q 2544 4750 2975 4387 
Q 3406 4025 3406 3419 
Q 3406 3131 3298 2873 
Q 3191 2616 2906 2266 
Q 2828 2175 2409 1742 
Q 1991 1309 1228 531 
z
" transform="scale(0.015625)"/>
       </defs>
       <use xlink:href="#DejaVuSans-32" transform="translate(0 0.78125)"/>
       <use xlink:href="#DejaVuSans-2e" transform="translate(63.623047 0.78125)"/>
       <use xlink:href="#DejaVuSans-30" transform="translate(95.410156 0.78125)"/>
      </g>
     </g>
    </g>
    <g id="text_6">
     <!-- Time (s) -->
     <g transform="translate(209.709999 281.826136) scale(0.11 -0.11)">
      <defs>
       <path id="DejaVuSans-54" d="M -19 4666 
L 3928 4666 
L 3928 4134 
L 2272 4134 
L 2272 0 
L 1638 0 
L 1638 4134 
L -19 4134 
L -19 4666 
z
" transform="scale(0.015625)"/>
       <path id="DejaVuSans-69" d="M 603 3500 
L 1178 3500 
L 1178 0 
L 603 0 
L 603 3500 
z
M 603 4863 
L 1178 4863 
L 1178 4134 
L 603 4134 
L 603 4863 
z
" transform="scale(0.015625)"/>
       <path id="DejaVuSans-6d" d="M 3328 2828 
Q 3544 3216 3844 3400 
Q 4144 3584 4550 3584 
Q 5097 3584 5394 3201 
Q 5691 2819 5691 2113 
L 5691 0 
L 5113 0 
L 5113 2094 
Q 5113 2597 4934 2840 
Q 4756 3084 4391 3084 
Q 3944 3084 3684 2787 
Q 3425 2491 3425 1978 
L 3425 0 
L 2847 0 
L 2847 2094 
Q 2847 2600 2669 2842 
Q 2491 3084 2119 3084 
Q 1678 3084 1418 2786 
Q 1159 2488 1159 1978 
L 1159 0 
L 581 0 
L 581 3500 
L 1159 3500 
L 1159 2956 
Q 1356 3278 1631 3431 
Q 1906 3584 2284 3584 
Q 2666 3584 2933 3390 
Q 3200 3197 3328 2828 
z
" transform="scale(0.015625)"/>
       <path id="DejaVuSans-65" d="M 3597 1894 
L 3597 1613 
L 953 1613 
Q 991 1019 1311 708 
Q 1631 397 2203 397 
Q 2534 397 2845 478 
Q 3156 559 3463 722 
L 3463 178 
Q 3153 47 2828 -22 
Q 2503 -91 2169 -91 
Q 1331 -91 842 396 
Q 353 884 353 1716 
Q 353 2575 817 3079 
Q 1281 3584 2069 3584 
Q 2775 3584 3186 3129 
Q 3597 2675 3597 1894 
z
M 3022 2063 
Q 3016 2534 2758 2815 
Q 2500 3097 2075 3097 
Q 1594 3097 1305 2825 
Q 1016 2553 972 2059 
L 3022 2063 
z
" transform="scale(0.015625)"/>
       <path id="DejaVuSans-20" transform="scale(0.015625)"/>
       <path id="DejaVuSans-28" d="M 1984 4856 
Q 1566 4138 1362 3434 
Q 1159 2731 1159 2009 
Q 1159 1288 1364 580 
Q 1569 -128 1984 -844 
L 1484 -844 
Q 1016 -109 783 600 
Q 550 1309 550 2009 
Q 550 2706 781 3412 
Q 1013 4119 1484 4856 
L 1984 4856 
z
" transform="scale(0.015625)"/>
       <path id="DejaVuSans-73" d="M 2834 3397 
L 2834 2853 
Q 2591 2978 2328 3040 
Q 2066 3103 1784 3103 
Q 1356 3103 1142 2972 
Q 928 2841 928 2578 
Q 928 2378 1081 2264 
Q 1234 2150 1697 2047 
L 1894 2003 
Q 2506 1872 2764 1633 
Q 3022 1394 3022 966 
Q 3022 478 2636 193 
Q 2250 -91 1575 -91 
Q 1294 -91 989 -36 
Q 684 19 347 128 
L 347 722 
Q 666 556 975 473 
Q 1284 391 1588 391 
Q 1994 391 2212 530 
Q 2431 669 2431 922 
Q 2431 1156 2273 1281 
Q 2116 1406 1581 1522 
L 1381 1569 
Q 847 1681 609 1914 
Q 372 2147 372 2553 
Q 372 3047 722 3315 
Q 1072 3584 1716 3584 
Q 2034 3584 2315 3537 
Q 2597 3491 2834 3397 
z
" transform="scale(0.015625)"/>
       <path id="DejaVuSans-29" d="M 513 4856 
L 1013 4856 
Q 1481 4119 1714 3412 
Q 1947 2706 1947 2009 
Q 1947 1309 1714 600 
Q 1481 -109 1013 -844 
L 513 -844 
Q 928 -128 1133 580 
Q 1338 1288 1338 2009 
Q 1338 2731 1133 3434 
Q 928 4138 513 4856 
z
" transform="scale(0.015625)"/>
      </defs>
      <use xlink:href="#DejaVuSans-54"/>
      <use xlink:href="#DejaVuSans-69" x="57.958984"/>
      <use xlink:href="#DejaVuSans-6d" x="85.742188"/>
      <use xlink:href="#DejaVuSans-65" x="183.154297"/>
      <use xlink:href="#DejaVuSans-20" x="244.677734"/>
      <use xlink:href="#DejaVuSans-28" x="276.464844"/>
      <use xlink:href="#DejaVuSans-73" x="315.478516"/>
      <use xlink:href="#DejaVuSans-29" x="367.578125"/>
     </g>
    </g>
   </g>
   <g id="matplotlib.axis_2">
    <g id="ytick_1">
     <g id="line2d_7">
      <defs>
       <path id="m9f9a7bafed" d="M 0 0 
L 2.5 0 
" style="stroke: #000000; stroke-width: 0.5"/>
      </defs>
      <g>
       <use xlink:href="#m9f9a7bafed" x="41.781593" y="246.28971" style="stroke: #000000; stroke-width: 0.5"/>
      </g>
     </g>
     <g id="text_7">
      <!-- $-20$ -->
      <g transform="translate(21.321593 249.329085) scale(0.08 -0.08)">
       <defs>
        <path id="DejaVuSans-2212" d="M 678 2272 
L 4684 2272 
L 4684 1741 
L 678 1741 
L 678 2272 
z
" transform="scale(0.015625)"/>
       </defs>
       <use xlink:href="#DejaVuSans-2212" transform="translate(0 0.78125)"/>
       <use xlink:href="#DejaVuSans-32" transform="translate(83.789062 0.78125)"/>
       <use xlink:href="#DejaVuSans-30" transform="translate(147.412109 0.78125)"/>
      </g>
     </g>
    </g>
    <g id="ytick_2">
     <g id="line2d_8">
      <g>
       <use xlink:href="#m9f9a7bafed" x="41.781593" y="190.090178" style="stroke: #000000; stroke-width: 0.5"/>
      </g>
     </g>
     <g id="text_8">
      <!-- $-10$ -->
      <g transform="translate(21.321593 193.129553) scale(0.08 -0.08)">
       <use xlink:href="#DejaVuSans-2212" transform="translate(0 0.78125)"/>
       <use xlink:href="#DejaVuSans-31" transform="translate(83.789062 0.78125)"/>
       <use xlink:href="#DejaVuSans-30" transform="translate(147.412109 0.78125)"/>
      </g>
     </g>
    </g>
    <g id="ytick_3">
     <g id="line2d_9">
      <g>
       <use xlink:href="#m9f9a7bafed" x="41.781593" y="133.890645" style="stroke: #000000; stroke-width: 0.5"/>
      </g>
     </g>
     <g id="text_9">
      <!-- $0$ -->
      <g transform="translate(33.161593 136.93002) scale(0.08 -0.08)">
       <use xlink:href="#DejaVuSans-30" transform="translate(0 0.78125)"/>
      </g>
     </g>
    </g>
    <g id="ytick_4">
     <g id="line2d_10">
      <g>
       <use xlink:href="#m9f9a7bafed" x="41.781593" y="77.691112" style="stroke: #000000; stroke-width: 0.5"/>
      </g>
     </g>
     <g id="text_10">
      <!-- $10$ -->
      <g transform="translate(28.041593 80.730487) scale(0.08 -0.08)">
       <use xlink:href="#DejaVuSans-31" transform="translate(0 0.78125)"/>
       <use xlink:href="#DejaVuSans-30" transform="translate(63.623047 0.78125)"/>
      </g>
     </g>
    </g>
    <g id="ytick_5">
     <g id="line2d_11">
      <g>
       <use xlink:href="#m9f9a7bafed" x="41.781593" y="21.49158" style="stroke: #000000; stroke-width: 0.5"/>
      </g>
     </g>
     <g id="text_11">
      <!-- $20$ -->
      <g transform="translate(28.041593 24.530955) scale(0.08 -0.08)">
       <use xlink:href="#DejaVuSans-32" transform="translate(0 0.78125)"/>
       <use xlink:href="#DejaVuSans-30" transform="translate(63.623047 0.78125)"/>
      </g>
     </g>
    </g>
    <g id="text_12">
     <!-- Rodriguez Parameter $\theta_x$ (degree) -->
     <g transform="translate(15.011593 221.885) rotate(-90) scale(0.11 -0.11)">
      <defs>
       <path id="DejaVuSans-52" d="M 2841 2188 
Q 3044 2119 3236 1894 
Q 3428 1669 3622 1275 
L 4263 0 
L 3584 0 
L 2988 1197 
Q 2756 1666 2539 1819 
Q 2322 1972 1947 1972 
L 1259 1972 
L 1259 0 
L 628 0 
L 628 4666 
L 2053 4666 
Q 2853 4666 3247 4331 
Q 3641 3997 3641 3322 
Q 3641 2881 3436 2590 
Q 3231 2300 2841 2188 
z
M 1259 4147 
L 1259 2491 
L 2053 2491 
Q 2509 2491 2742 2702 
Q 2975 2913 2975 3322 
Q 2975 3731 2742 3939 
Q 2509 4147 2053 4147 
L 1259 4147 
z
" transform="scale(0.015625)"/>
       <path id="DejaVuSans-6f" d="M 1959 3097 
Q 1497 3097 1228 2736 
Q 959 2375 959 1747 
Q 959 1119 1226 758 
Q 1494 397 1959 397 
Q 2419 397 2687 759 
Q 2956 1122 2956 1747 
Q 2956 2369 2687 2733 
Q 2419 3097 1959 3097 
z
M 1959 3584 
Q 2709 3584 3137 3096 
Q 3566 2609 3566 1747 
Q 3566 888 3137 398 
Q 2709 -91 1959 -91 
Q 1206 -91 779 398 
Q 353 888 353 1747 
Q 353 2609 779 3096 
Q 1206 3584 1959 3584 
z
" transform="scale(0.015625)"/>
       <path id="DejaVuSans-64" d="M 2906 2969 
L 2906 4863 
L 3481 4863 
L 3481 0 
L 2906 0 
L 2906 525 
Q 2725 213 2448 61 
Q 2172 -91 1784 -91 
Q 1150 -91 751 415 
Q 353 922 353 1747 
Q 353 2572 751 3078 
Q 1150 3584 1784 3584 
Q 2172 3584 2448 3432 
Q 2725 3281 2906 2969 
z
M 947 1747 
Q 947 1113 1208 752 
Q 1469 391 1925 391 
Q 2381 391 2643 752 
Q 2906 1113 2906 1747 
Q 2906 2381 2643 2742 
Q 2381 3103 1925 3103 
Q 1469 3103 1208 2742 
Q 947 2381 947 1747 
z
" transform="scale(0.015625)"/>
       <path id="DejaVuSans-72" d="M 2631 2963 
Q 2534 3019 2420 3045 
Q 2306 3072 2169 3072 
Q 1681 3072 1420 2755 
Q 1159 2438 1159 1844 
L 1159 0 
L 581 0 
L 581 3500 
L 1159 3500 
L 1159 2956 
Q 1341 3275 1631 3429 
Q 1922 3584 2338 3584 
Q 2397 3584 2469 3576 
Q 2541 3569 2628 3553 
L 2631 2963 
z
" transform="scale(0.015625)"/>
       <path id="DejaVuSans-67" d="M 2906 1791 
Q 2906 2416 2648 2759 
Q 2391 3103 1925 3103 
Q 1463 3103 1205 2759 
Q 947 2416 947 1791 
Q 947 1169 1205 825 
Q 1463 481 1925 481 
Q 2391 481 2648 825 
Q 2906 1169 2906 1791 
z
M 3481 434 
Q 3481 -459 3084 -895 
Q 2688 -1331 1869 -1331 
Q 1566 -1331 1297 -1286 
Q 1028 -1241 775 -1147 
L 775 -588 
Q 1028 -725 1275 -790 
Q 1522 -856 1778 -856 
Q 2344 -856 2625 -561 
Q 2906 -266 2906 331 
L 2906 616 
Q 2728 306 2450 153 
Q 2172 0 1784 0 
Q 1141 0 747 490 
Q 353 981 353 1791 
Q 353 2603 747 3093 
Q 1141 3584 1784 3584 
Q 2172 3584 2450 3431 
Q 2728 3278 2906 2969 
L 2906 3500 
L 3481 3500 
L 3481 434 
z
" transform="scale(0.015625)"/>
       <path id="DejaVuSans-75" d="M 544 1381 
L 544 3500 
L 1119 3500 
L 1119 1403 
Q 1119 906 1312 657 
Q 1506 409 1894 409 
Q 2359 409 2629 706 
Q 2900 1003 2900 1516 
L 2900 3500 
L 3475 3500 
L 3475 0 
L 2900 0 
L 2900 538 
Q 2691 219 2414 64 
Q 2138 -91 1772 -91 
Q 1169 -91 856 284 
Q 544 659 544 1381 
z
M 1991 3584 
L 1991 3584 
z
" transform="scale(0.015625)"/>
       <path id="DejaVuSans-7a" d="M 353 3500 
L 3084 3500 
L 3084 2975 
L 922 459 
L 3084 459 
L 3084 0 
L 275 0 
L 275 525 
L 2438 3041 
L 353 3041 
L 353 3500 
z
" transform="scale(0.015625)"/>
       <path id="DejaVuSans-50" d="M 1259 4147 
L 1259 2394 
L 2053 2394 
Q 2494 2394 2734 2622 
Q 2975 2850 2975 3272 
Q 2975 3691 2734 3919 
Q 2494 4147 2053 4147 
L 1259 4147 
z
M 628 4666 
L 2053 4666 
Q 2838 4666 3239 4311 
Q 3641 3956 3641 3272 
Q 3641 2581 3239 2228 
Q 2838 1875 2053 1875 
L 1259 1875 
L 1259 0 
L 628 0 
L 628 4666 
z
" transform="scale(0.015625)"/>
       <path id="DejaVuSans-61" d="M 2194 1759 
Q 1497 1759 1228 1600 
Q 959 1441 959 1056 
Q 959 750 1161 570 
Q 1363 391 1709 391 
Q 2188 391 2477 730 
Q 2766 1069 2766 1631 
L 2766 1759 
L 2194 1759 
z
M 3341 1997 
L 3341 0 
L 2766 0 
L 2766 531 
Q 2569 213 2275 61 
Q 1981 -91 1556 -91 
Q 1019 -91 701 211 
Q 384 513 384 1019 
Q 384 1609 779 1909 
Q 1175 2209 1959 2209 
L 2766 2209 
L 2766 2266 
Q 2766 2663 2505 2880 
Q 2244 3097 1772 3097 
Q 1472 3097 1187 3025 
Q 903 2953 641 2809 
L 641 3341 
Q 956 3463 1253 3523 
Q 1550 3584 1831 3584 
Q 2591 3584 2966 3190 
Q 3341 2797 3341 1997 
z
" transform="scale(0.015625)"/>
       <path id="DejaVuSans-74" d="M 1172 4494 
L 1172 3500 
L 2356 3500 
L 2356 3053 
L 1172 3053 
L 1172 1153 
Q 1172 725 1289 603 
Q 1406 481 1766 481 
L 2356 481 
L 2356 0 
L 1766 0 
Q 1100 0 847 248 
Q 594 497 594 1153 
L 594 3053 
L 172 3053 
L 172 3500 
L 594 3500 
L 594 4494 
L 1172 4494 
z
" transform="scale(0.015625)"/>
       <path id="DejaVuSans-Oblique-3b8" d="M 2913 2219 
L 925 2219 
Q 791 1284 928 888 
Q 1100 400 1566 400 
Q 2034 400 2391 891 
Q 2703 1322 2913 2219 
z
M 3009 2750 
Q 3094 3638 2984 3950 
Q 2813 4444 2353 4444 
Q 1875 4444 1525 3956 
Q 1250 3563 1034 2750 
L 3009 2750 
z
M 2444 4913 
Q 3194 4913 3494 4250 
Q 3794 3591 3566 2422 
Q 3341 1256 2781 594 
Q 2225 -72 1475 -72 
Q 722 -72 425 594 
Q 128 1256 353 2422 
Q 581 3591 1134 4250 
Q 1691 4913 2444 4913 
z
" transform="scale(0.015625)"/>
       <path id="DejaVuSans-Oblique-78" d="M 3841 3500 
L 2234 1784 
L 3219 0 
L 2559 0 
L 1819 1388 
L 531 0 
L -166 0 
L 1556 1844 
L 641 3500 
L 1300 3500 
L 1972 2234 
L 3144 3500 
L 3841 3500 
z
" transform="scale(0.015625)"/>
      </defs>
      <use xlink:href="#DejaVuSans-52" transform="translate(0 0.234375)"/>
      <use xlink:href="#DejaVuSans-6f" transform="translate(69.482422 0.234375)"/>
      <use xlink:href="#DejaVuSans-64" transform="translate(130.664062 0.234375)"/>
      <use xlink:href="#DejaVuSans-72" transform="translate(194.140625 0.234375)"/>
      <use xlink:href="#DejaVuSans-69" transform="translate(235.253906 0.234375)"/>
      <use xlink:href="#DejaVuSans-67" transform="translate(263.037109 0.234375)"/>
      <use xlink:href="#DejaVuSans-75" transform="translate(326.513672 0.234375)"/>
      <use xlink:href="#DejaVuSans-65" transform="translate(389.892578 0.234375)"/>
      <use xlink:href="#DejaVuSans-7a" transform="translate(451.416016 0.234375)"/>
      <use xlink:href="#DejaVuSans-20" transform="translate(503.90625 0.234375)"/>
      <use xlink:href="#DejaVuSans-50" transform="translate(535.693359 0.234375)"/>
      <use xlink:href="#DejaVuSans-61" transform="translate(595.996094 0.234375)"/>
      <use xlink:href="#DejaVuSans-72" transform="translate(657.275391 0.234375)"/>
      <use xlink:href="#DejaVuSans-61" transform="translate(698.388672 0.234375)"/>
      <use xlink:href="#DejaVuSans-6d" transform="translate(759.667969 0.234375)"/>
      <use xlink:href="#DejaVuSans-65" transform="translate(857.080078 0.234375)"/>
      <use xlink:href="#DejaVuSans-74" transform="translate(918.603516 0.234375)"/>
      <use xlink:href="#DejaVuSans-65" transform="translate(957.8125 0.234375)"/>
      <use xlink:href="#DejaVuSans-72" transform="translate(1019.335938 0.234375)"/>
      <use xlink:href="#DejaVuSans-20" transform="translate(1060.449219 0.234375)"/>
      <use xlink:href="#DejaVuSans-Oblique-3b8" transform="translate(1092.236328 0.234375)"/>
      <use xlink:href="#DejaVuSans-Oblique-78" transform="translate(1153.417969 -16.171875) scale(0.7)"/>
      <use xlink:href="#DejaVuSans-20" transform="translate(1197.578125 0.234375)"/>
      <use xlink:href="#DejaVuSans-28" transform="translate(1229.365234 0.234375)"/>
      <use xlink:href="#DejaVuSans-64" transform="translate(1268.378906 0.234375)"/>
      <use xlink:href="#DejaVuSans-65" transform="translate(1331.855469 0.234375)"/>
      <use xlink:href="#DejaVuSans-67" transform="translate(1393.378906 0.234375)"/>
      <use xlink:href="#DejaVuSans-72" transform="translate(1456.855469 0.234375)"/>
      <use xlink:href="#DejaVuSans-65" transform="translate(1497.96875 0.234375)"/>
      <use xlink:href="#DejaVuSans-65" transform="translate(1559.492188 0.234375)"/>
      <use xlink:href="#DejaVuSans-29" transform="translate(1621.015625 0.234375)"/>
     </g>
    </g>
   </g>
   <g id="patch_3">
    <path d="M 41.781593 258.225354 
L 41.781593 2.834646 
" style="fill: none; stroke: #000000; stroke-linejoin: miter; stroke-linecap: square"/>
   </g>
   <g id="patch_4">
    <path d="M 41.781593 258.225354 
L 422.361999 258.225354 
" style="fill: none; stroke: #000000; stroke-linejoin: miter; stroke-linecap: square"/>
   </g>
  </g>
 </g>
 <defs>
  <clipPath id="p40398a7152">
   <rect x="41.781593" y="2.834646" width="380.580407" height="255.390709"/>
  </clipPath>
 </defs>
</svg>
