<?xml version="1.0" encoding="utf-8" standalone="no"?>
<!DOCTYPE svg PUBLIC "-//W3C//DTD SVG 1.1//EN"
  "http://www.w3.org/Graphics/SVG/1.1/DTD/svg11.dtd">
<svg xmlns:xlink="http://www.w3.org/1999/xlink" width="432pt" height="288pt" viewBox="0 0 432 288" xmlns="http://www.w3.org/2000/svg" version="1.1">
 <metadata>
  <rdf:RDF xmlns:dc="http://purl.org/dc/elements/1.1/" xmlns:cc="http://creativecommons.org/ns#" xmlns:rdf="http://www.w3.org/1999/02/22-rdf-syntax-ns#">
   <cc:Work>
    <dc:type rdf:resource="http://purl.org/dc/dcmitype/StillImage"/>
    <dc:date>2022-03-14T21:37:05.683706</dc:date>
    <dc:format>image/svg+xml</dc:format>
    <dc:creator>
     <cc:Agent>
      <dc:title>Matplotlib v3.5.1, https://matplotlib.org/</dc:title>
     </cc:Agent>
    </dc:creator>
   </cc:Work>
  </rdf:RDF>
 </metadata>
 <defs>
  <style type="text/css">*{stroke-linejoin: round; stroke-linecap: butt}</style>
 </defs>
 <g id="figure_1">
  <g id="patch_1">
   <path d="M 0 288 
L 432 288 
L 432 0 
L 0 0 
z
" style="fill: #ffffff"/>
  </g>
  <g id="axes_1">
   <g id="patch_2">
    <path d="M 64.651984 258.225354 
L 419.805777 258.225354 
L 419.805777 2.834646 
L 64.651984 2.834646 
z
" style="fill: #ffffff"/>
   </g>
   <g id="line2d_1">
    <path d="M 64.651984 250.997315 
L 65.007138 250.94166 
L 65.362292 250.567978 
L 66.427753 247.807122 
L 67.138061 247.158507 
L 67.493215 246.899698 
L 69.268984 243.629667 
L 70.334445 242.067767 
L 72.820522 238.385333 
L 73.175675 237.681453 
L 73.530829 237.337046 
L 73.885983 237.283149 
L 74.241137 237.062001 
L 74.951444 236.012571 
L 75.306598 235.323817 
L 75.661752 234.966086 
L 76.37206 234.569947 
L 77.082367 233.994379 
L 78.502982 232.114194 
L 79.568444 231.537159 
L 80.633905 229.935578 
L 81.699366 229.210435 
L 82.764828 227.715704 
L 83.830289 226.743498 
L 84.540597 225.993565 
L 85.250904 225.488387 
L 85.606058 225.197111 
L 86.316366 224.066451 
L 87.026673 223.529012 
L 87.381827 223.412378 
L 87.736981 223.16674 
L 89.157596 221.032143 
L 89.867904 220.556843 
L 90.933365 219.143915 
L 91.643673 218.058162 
L 92.35398 217.23126 
L 93.774595 215.324695 
L 94.129749 214.97381 
L 94.840057 213.736446 
L 95.550364 212.535453 
L 96.615826 211.871385 
L 96.97098 211.375582 
L 98.036441 209.352414 
L 98.746749 208.882632 
L 99.101902 208.763535 
L 99.457056 208.345549 
L 100.522518 206.098294 
L 100.877671 205.663298 
L 101.587979 205.228265 
L 101.943133 204.755729 
L 103.363748 202.001677 
L 103.718902 201.673053 
L 104.429209 200.520899 
L 105.139517 198.92503 
L 106.204978 197.63852 
L 107.27044 195.052083 
L 108.335901 193.840928 
L 109.046209 192.045947 
L 109.756516 190.392757 
L 110.821978 188.849532 
L 112.597746 184.219251 
L 113.308054 182.670235 
L 114.728669 178.274794 
L 115.438977 176.618516 
L 116.149284 174.470736 
L 117.214746 171.096308 
L 123.25236 152.135377 
L 123.962668 149.923897 
L 124.672975 148.085216 
L 126.093591 142.867035 
L 126.803898 140.845635 
L 128.224513 136.340184 
L 130.000282 130.90289 
L 130.71059 129.195869 
L 132.486359 123.660371 
L 133.196666 122.313567 
L 133.906974 120.057231 
L 134.617282 117.60536 
L 135.682743 115.299319 
L 138.523973 106.923018 
L 139.589435 104.287211 
L 142.430665 97.120612 
L 143.140973 95.036883 
L 143.85128 92.794636 
L 144.916742 90.97425 
L 146.337357 86.683795 
L 146.692511 86.219436 
L 147.047664 85.505705 
L 147.757972 83.369209 
L 148.46828 81.06111 
L 149.888895 78.274563 
L 150.599202 76.005342 
L 151.30951 74.521403 
L 152.019817 73.400495 
L 153.085279 70.763948 
L 153.795586 69.570639 
L 154.15074 69.642395 
L 154.505894 70.547081 
L 154.861048 71.970984 
L 155.216202 72.722867 
L 155.571355 72.978865 
L 155.926509 73.037218 
L 156.281663 72.83832 
L 156.636817 73.192488 
L 157.702278 74.960136 
L 158.412586 75.776329 
L 159.122893 76.401173 
L 159.478047 76.596151 
L 159.833201 76.645602 
L 160.188355 76.981091 
L 160.543509 76.973099 
L 160.898662 77.404792 
L 161.253816 78.200273 
L 161.964124 78.922489 
L 162.319277 78.625265 
L 162.674431 77.859045 
L 163.029585 77.499833 
L 163.384739 77.736185 
L 164.095046 78.744062 
L 164.4502 78.762231 
L 165.870815 76.918627 
L 166.225969 76.879622 
L 166.581123 77.199333 
L 167.291431 77.12853 
L 167.646584 76.424027 
L 168.001738 75.359908 
L 168.356892 74.701385 
L 168.712046 74.596368 
L 169.422353 74.638182 
L 169.777507 74.138712 
L 170.487815 72.423327 
L 170.842969 72.214006 
L 171.90843 70.939306 
L 172.618737 69.483162 
L 173.329045 68.198531 
L 174.039353 66.658237 
L 174.74966 65.342712 
L 175.104814 64.850173 
L 175.815122 63.219165 
L 176.880583 60.641378 
L 177.235737 60.156901 
L 178.656352 57.151806 
L 179.721813 54.496908 
L 180.787275 52.825603 
L 181.497582 51.352272 
L 182.918197 47.508915 
L 183.273351 47.168373 
L 183.628505 47.008675 
L 183.983659 46.550749 
L 184.338813 45.533316 
L 185.04912 42.436264 
L 185.404274 41.489115 
L 185.759428 41.117054 
L 186.114582 40.955256 
L 186.469735 40.521088 
L 186.824889 39.674153 
L 187.890351 35.805711 
L 188.245504 34.838674 
L 189.310966 33.531613 
L 189.66612 32.779624 
L 190.731581 29.100055 
L 191.441888 27.953354 
L 191.797042 27.496623 
L 192.152196 26.845018 
L 193.217657 24.305639 
L 193.927965 22.703774 
L 194.638273 20.746168 
L 194.993426 20.214768 
L 195.703734 19.654718 
L 196.058888 18.981747 
L 197.124349 15.604173 
L 197.479503 15.327083 
L 198.189811 15.347973 
L 198.544964 14.789248 
L 199.610426 11.657839 
L 199.96558 11.540541 
L 200.320733 11.847303 
L 200.675887 12.004141 
L 201.031041 11.870654 
L 201.741348 10.441397 
L 202.096502 10.062685 
L 203.161964 10.641958 
L 203.517117 10.599542 
L 203.872271 10.287529 
L 204.227425 10.16115 
L 204.582579 10.171714 
L 204.937733 10.325607 
L 205.64804 11.021586 
L 206.713502 11.766932 
L 207.423809 12.277652 
L 208.134117 13.061062 
L 210.26504 15.808554 
L 211.330501 17.286545 
L 212.395962 20.360887 
L 212.751116 20.724006 
L 213.10627 20.750914 
L 213.461424 21.030743 
L 213.816577 21.803505 
L 214.882039 25.337423 
L 215.237193 25.911892 
L 215.592346 26.199145 
L 216.302654 27.073829 
L 216.657808 27.829852 
L 217.723269 31.092207 
L 218.078423 31.688459 
L 219.143884 32.415929 
L 219.499038 32.984326 
L 220.209346 34.956657 
L 220.5645 35.966328 
L 221.274807 36.907889 
L 221.629961 36.646745 
L 221.985115 36.76761 
L 222.340268 37.374049 
L 223.40573 40.038681 
L 224.471191 40.59726 
L 224.826345 41.038248 
L 225.536653 42.19568 
L 226.24696 43.013162 
L 226.602114 43.78679 
L 227.312422 44.596164 
L 227.667575 44.641993 
L 228.022729 44.310901 
L 228.377883 44.651757 
L 229.443344 46.437437 
L 229.798498 46.68541 
L 230.863959 46.573176 
L 231.219113 46.659093 
L 231.574267 47.053037 
L 231.929421 47.871231 
L 232.639728 48.612631 
L 232.994882 48.303096 
L 233.350036 47.703599 
L 233.70519 47.8407 
L 234.770651 49.558147 
L 235.125805 49.51287 
L 235.480959 49.048577 
L 235.836113 48.851043 
L 236.191266 49.096328 
L 236.54642 49.49807 
L 237.256728 50.596516 
L 237.611882 50.4835 
L 238.322189 49.920731 
L 238.677343 49.774339 
L 239.387651 50.68945 
L 239.742804 50.719031 
L 240.097958 50.472484 
L 240.453112 49.959999 
L 240.808266 49.653789 
L 241.163419 49.785306 
L 241.518573 50.038659 
L 242.584035 49.20074 
L 243.294342 48.006208 
L 244.714957 43.559691 
L 246.135573 41.31771 
L 247.911342 36.072404 
L 248.266495 35.470582 
L 248.621649 35.342007 
L 248.976803 34.706953 
L 249.331957 33.718887 
L 250.397418 29.3788 
L 250.752572 28.812402 
L 251.462879 28.73142 
L 251.818033 28.208992 
L 252.173187 27.166854 
L 252.883495 24.457627 
L 253.238648 23.547656 
L 253.593802 23.03836 
L 253.948956 23.022139 
L 254.30411 22.67743 
L 254.659264 22.157342 
L 255.014417 21.410265 
L 255.724725 19.450881 
L 256.079879 18.763804 
L 256.435033 18.493477 
L 257.500494 18.235731 
L 258.210802 17.209244 
L 258.921109 16.01354 
L 259.276263 15.965941 
L 259.631417 15.773251 
L 260.341724 16.067186 
L 262.117493 15.558958 
L 262.472647 15.681126 
L 263.538108 16.893745 
L 263.893262 16.98412 
L 264.248416 16.816985 
L 264.958724 17.000825 
L 266.379339 19.386818 
L 267.089646 19.521517 
L 267.4448 20.026902 
L 268.865415 22.937199 
L 269.575723 23.362651 
L 270.286031 24.676365 
L 270.996338 26.692539 
L 271.706646 28.007047 
L 272.416953 28.597487 
L 272.772107 29.197612 
L 273.482415 31.341129 
L 274.192722 33.25329 
L 275.258184 34.468511 
L 275.613337 35.037953 
L 277.389106 39.541115 
L 278.099414 40.497873 
L 278.454568 40.900569 
L 279.164875 42.476693 
L 279.875183 44.824629 
L 280.230337 45.673548 
L 280.585491 46.167 
L 280.940644 46.14691 
L 281.295798 46.288763 
L 281.650952 46.849187 
L 282.006106 47.835059 
L 282.716413 50.512462 
L 283.071567 51.291953 
L 283.426721 51.417077 
L 283.781875 51.419909 
L 284.137028 51.612243 
L 284.492182 52.127462 
L 285.557644 55.262762 
L 285.912797 55.9464 
L 286.623105 56.162976 
L 286.978259 56.220963 
L 287.333413 56.640411 
L 288.398874 59.427906 
L 288.754028 59.829538 
L 289.819489 59.802677 
L 290.88495 61.258792 
L 291.595258 61.976546 
L 292.305566 62.369036 
L 293.371027 62.387447 
L 294.436488 63.172315 
L 294.791642 63.14586 
L 295.857104 62.045472 
L 296.212257 61.993281 
L 296.922565 62.301198 
L 297.277719 62.269315 
L 297.988026 61.277344 
L 298.698334 60.234356 
L 299.408642 59.950571 
L 299.763795 59.600325 
L 300.118949 59.0095 
L 301.18441 56.509953 
L 301.894718 55.856837 
L 302.605026 55.152239 
L 303.315333 52.97646 
L 304.025641 50.832259 
L 305.091102 49.676017 
L 305.446256 48.727626 
L 306.511717 45.116023 
L 307.222025 43.850561 
L 307.932333 42.609974 
L 308.64264 40.657975 
L 310.063255 36.112835 
L 311.128717 34.681323 
L 311.48387 33.872943 
L 312.549332 30.21329 
L 312.904486 29.44084 
L 313.969947 28.555353 
L 314.325101 27.754827 
L 315.390562 24.109457 
L 315.745716 23.616022 
L 316.10087 23.443574 
L 316.811177 23.532272 
L 317.166331 22.964641 
L 318.231793 20.063728 
L 318.586946 19.696663 
L 318.9421 19.808213 
L 319.297254 20.134768 
L 319.652408 20.074625 
L 320.362715 18.859817 
L 320.717869 17.969022 
L 321.073023 17.719032 
L 321.428177 17.665758 
L 322.493638 17.782958 
L 323.203946 17.604111 
L 324.269407 17.007199 
L 325.334868 17.674116 
L 325.690022 17.952576 
L 326.40033 17.800062 
L 327.110637 17.801155 
L 328.886406 19.632772 
L 329.24156 19.820487 
L 329.596714 19.831695 
L 330.307022 20.618507 
L 331.017329 21.90506 
L 331.727637 22.433913 
L 332.08279 22.523715 
L 332.437944 22.80983 
L 333.148252 24.462014 
L 333.503406 25.403518 
L 333.858559 25.998725 
L 334.213713 26.227596 
L 334.924021 26.44225 
L 335.634328 28.189305 
L 336.344636 30.233486 
L 337.410097 31.148836 
L 337.765251 31.758099 
L 339.54102 36.629172 
L 340.606481 37.93808 
L 340.961635 38.566166 
L 342.38225 43.054576 
L 343.802866 45.28162 
L 345.578635 50.260229 
L 345.933788 50.658354 
L 346.288942 50.685205 
L 346.644096 51.137544 
L 347.354404 53.290627 
L 347.709557 54.904664 
L 348.064711 55.983102 
L 348.419865 56.429114 
L 349.130173 56.354179 
L 349.485326 56.664434 
L 349.84048 57.496352 
L 350.550788 59.828199 
L 350.905941 60.435898 
L 351.261095 60.777914 
L 351.616249 60.546224 
L 351.971403 60.646088 
L 352.326557 60.911059 
L 352.68171 61.505617 
L 353.392018 63.000991 
L 353.747172 63.355777 
L 354.102326 63.468611 
L 355.167787 63.016158 
L 356.588402 63.997413 
L 357.653864 63.270548 
L 358.009017 62.970391 
L 358.719325 62.646717 
L 359.429633 62.303494 
L 360.13994 61.676639 
L 361.560555 59.468725 
L 361.915709 59.409372 
L 362.626017 58.651765 
L 363.691478 55.961434 
L 364.046632 55.450124 
L 364.401786 55.240076 
L 364.756939 54.829275 
L 365.467247 53.035339 
L 366.177555 51.077721 
L 366.532708 50.4088 
L 367.243016 49.706385 
L 367.953324 48.117136 
L 369.018785 44.774925 
L 369.373939 44.152723 
L 370.084246 43.419094 
L 370.4394 42.718045 
L 370.794554 41.712751 
L 371.504861 39.355257 
L 371.860015 38.367658 
L 373.28063 36.633083 
L 374.701246 32.595468 
L 375.766707 31.203794 
L 376.121861 30.77958 
L 376.832168 29.417752 
L 377.542476 27.19067 
L 377.89763 26.430968 
L 378.252784 26.019464 
L 378.607937 26.210949 
L 378.963091 26.213999 
L 379.318245 25.847094 
L 379.673399 24.908015 
L 380.383706 22.607649 
L 380.73886 22.090625 
L 381.094014 21.948815 
L 381.449168 22.157804 
L 382.159475 21.810296 
L 383.224937 19.344809 
L 383.58009 18.84269 
L 383.935244 18.948243 
L 384.645552 19.417208 
L 385.000706 19.192889 
L 386.066167 17.171748 
L 386.421321 17.056485 
L 387.486782 17.595862 
L 388.552244 17.076694 
L 388.907397 16.855567 
L 391.748628 17.840837 
L 392.458935 18.126301 
L 393.87955 20.313445 
L 394.589858 20.558762 
L 394.945012 20.846755 
L 396.365627 23.611817 
L 396.720781 23.857287 
L 397.431088 24.85395 
L 398.141396 26.820967 
L 398.851704 28.820713 
L 399.206857 29.470164 
L 399.917165 30.093505 
L 400.272319 30.668011 
L 400.982626 33.131127 
L 401.692934 35.390948 
L 402.403241 36.130843 
L 402.758395 36.679349 
L 403.113549 37.704054 
L 404.17901 41.650249 
L 404.889318 43.005041 
L 405.599626 44.076082 
L 406.309933 45.932258 
L 407.375395 49.368751 
L 407.730548 50.159837 
L 408.085702 50.665842 
L 408.440856 50.957326 
L 409.151164 52.188266 
L 410.216625 55.583408 
L 410.571779 56.18523 
L 410.926932 56.376855 
L 411.282086 56.401792 
L 411.63724 56.54783 
L 411.992394 57.139812 
L 413.057855 60.106608 
L 413.413009 60.465502 
L 413.768163 60.453697 
L 414.47847 60.064647 
L 414.833624 60.334242 
L 415.188778 61.014522 
L 415.899086 62.638664 
L 416.254239 62.663498 
L 416.609393 62.416512 
L 416.964547 61.778385 
L 417.319701 61.667124 
L 417.674855 61.938139 
L 418.385162 62.896469 
L 418.740316 62.865794 
L 419.450624 62.381169 
L 419.805777 62.038042 
L 419.805777 62.038042 
" clip-path="url(#p98c8b03411)" style="fill: none; stroke: #009afa"/>
   </g>
   <g id="matplotlib.axis_1">
    <g id="xtick_1">
     <g id="line2d_2">
      <defs>
       <path id="mf6704c4381" d="M 0 0 
L 0 -2.5 
" style="stroke: #000000; stroke-width: 0.5"/>
      </defs>
      <g>
       <use xlink:href="#mf6704c4381" x="64.651984" y="258.225354" style="stroke: #000000; stroke-width: 0.5"/>
      </g>
     </g>
     <g id="text_1">
      <!-- $0.00$ -->
      <g transform="translate(55.731984 267.804104)scale(0.08 -0.08)">
       <defs>
        <path id="DejaVuSans-30" d="M 2034 4250 
Q 1547 4250 1301 3770 
Q 1056 3291 1056 2328 
Q 1056 1369 1301 889 
Q 1547 409 2034 409 
Q 2525 409 2770 889 
Q 3016 1369 3016 2328 
Q 3016 3291 2770 3770 
Q 2525 4250 2034 4250 
z
M 2034 4750 
Q 2819 4750 3233 4129 
Q 3647 3509 3647 2328 
Q 3647 1150 3233 529 
Q 2819 -91 2034 -91 
Q 1250 -91 836 529 
Q 422 1150 422 2328 
Q 422 3509 836 4129 
Q 1250 4750 2034 4750 
z
" transform="scale(0.015625)"/>
        <path id="DejaVuSans-2e" d="M 684 794 
L 1344 794 
L 1344 0 
L 684 0 
L 684 794 
z
" transform="scale(0.015625)"/>
       </defs>
       <use xlink:href="#DejaVuSans-30" transform="translate(0 0.78125)"/>
       <use xlink:href="#DejaVuSans-2e" transform="translate(63.623047 0.78125)"/>
       <use xlink:href="#DejaVuSans-30" transform="translate(95.410156 0.78125)"/>
       <use xlink:href="#DejaVuSans-30" transform="translate(159.033203 0.78125)"/>
      </g>
     </g>
    </g>
    <g id="xtick_2">
     <g id="line2d_3">
      <g>
       <use xlink:href="#mf6704c4381" x="153.440433" y="258.225354" style="stroke: #000000; stroke-width: 0.5"/>
      </g>
     </g>
     <g id="text_2">
      <!-- $0.01$ -->
      <g transform="translate(144.520433 267.804104)scale(0.08 -0.08)">
       <defs>
        <path id="DejaVuSans-31" d="M 794 531 
L 1825 531 
L 1825 4091 
L 703 3866 
L 703 4441 
L 1819 4666 
L 2450 4666 
L 2450 531 
L 3481 531 
L 3481 0 
L 794 0 
L 794 531 
z
" transform="scale(0.015625)"/>
       </defs>
       <use xlink:href="#DejaVuSans-30" transform="translate(0 0.78125)"/>
       <use xlink:href="#DejaVuSans-2e" transform="translate(63.623047 0.78125)"/>
       <use xlink:href="#DejaVuSans-30" transform="translate(95.410156 0.78125)"/>
       <use xlink:href="#DejaVuSans-31" transform="translate(159.033203 0.78125)"/>
      </g>
     </g>
    </g>
    <g id="xtick_3">
     <g id="line2d_4">
      <g>
       <use xlink:href="#mf6704c4381" x="242.228881" y="258.225354" style="stroke: #000000; stroke-width: 0.5"/>
      </g>
     </g>
     <g id="text_3">
      <!-- $0.02$ -->
      <g transform="translate(233.308881 267.804104)scale(0.08 -0.08)">
       <defs>
        <path id="DejaVuSans-32" d="M 1228 531 
L 3431 531 
L 3431 0 
L 469 0 
L 469 531 
Q 828 903 1448 1529 
Q 2069 2156 2228 2338 
Q 2531 2678 2651 2914 
Q 2772 3150 2772 3378 
Q 2772 3750 2511 3984 
Q 2250 4219 1831 4219 
Q 1534 4219 1204 4116 
Q 875 4013 500 3803 
L 500 4441 
Q 881 4594 1212 4672 
Q 1544 4750 1819 4750 
Q 2544 4750 2975 4387 
Q 3406 4025 3406 3419 
Q 3406 3131 3298 2873 
Q 3191 2616 2906 2266 
Q 2828 2175 2409 1742 
Q 1991 1309 1228 531 
z
" transform="scale(0.015625)"/>
       </defs>
       <use xlink:href="#DejaVuSans-30" transform="translate(0 0.78125)"/>
       <use xlink:href="#DejaVuSans-2e" transform="translate(63.623047 0.78125)"/>
       <use xlink:href="#DejaVuSans-30" transform="translate(95.410156 0.78125)"/>
       <use xlink:href="#DejaVuSans-32" transform="translate(159.033203 0.78125)"/>
      </g>
     </g>
    </g>
    <g id="xtick_4">
     <g id="line2d_5">
      <g>
       <use xlink:href="#mf6704c4381" x="331.017329" y="258.225354" style="stroke: #000000; stroke-width: 0.5"/>
      </g>
     </g>
     <g id="text_4">
      <!-- $0.03$ -->
      <g transform="translate(322.097329 267.804104)scale(0.08 -0.08)">
       <defs>
        <path id="DejaVuSans-33" d="M 2597 2516 
Q 3050 2419 3304 2112 
Q 3559 1806 3559 1356 
Q 3559 666 3084 287 
Q 2609 -91 1734 -91 
Q 1441 -91 1130 -33 
Q 819 25 488 141 
L 488 750 
Q 750 597 1062 519 
Q 1375 441 1716 441 
Q 2309 441 2620 675 
Q 2931 909 2931 1356 
Q 2931 1769 2642 2001 
Q 2353 2234 1838 2234 
L 1294 2234 
L 1294 2753 
L 1863 2753 
Q 2328 2753 2575 2939 
Q 2822 3125 2822 3475 
Q 2822 3834 2567 4026 
Q 2313 4219 1838 4219 
Q 1578 4219 1281 4162 
Q 984 4106 628 3988 
L 628 4550 
Q 988 4650 1302 4700 
Q 1616 4750 1894 4750 
Q 2613 4750 3031 4423 
Q 3450 4097 3450 3541 
Q 3450 3153 3228 2886 
Q 3006 2619 2597 2516 
z
" transform="scale(0.015625)"/>
       </defs>
       <use xlink:href="#DejaVuSans-30" transform="translate(0 0.78125)"/>
       <use xlink:href="#DejaVuSans-2e" transform="translate(63.623047 0.78125)"/>
       <use xlink:href="#DejaVuSans-30" transform="translate(95.410156 0.78125)"/>
       <use xlink:href="#DejaVuSans-33" transform="translate(159.033203 0.78125)"/>
      </g>
     </g>
    </g>
    <g id="xtick_5">
     <g id="line2d_6">
      <g>
       <use xlink:href="#mf6704c4381" x="419.805777" y="258.225354" style="stroke: #000000; stroke-width: 0.5"/>
      </g>
     </g>
     <g id="text_5">
      <!-- $0.04$ -->
      <g transform="translate(410.885777 267.804104)scale(0.08 -0.08)">
       <defs>
        <path id="DejaVuSans-34" d="M 2419 4116 
L 825 1625 
L 2419 1625 
L 2419 4116 
z
M 2253 4666 
L 3047 4666 
L 3047 1625 
L 3713 1625 
L 3713 1100 
L 3047 1100 
L 3047 0 
L 2419 0 
L 2419 1100 
L 313 1100 
L 313 1709 
L 2253 4666 
z
" transform="scale(0.015625)"/>
       </defs>
       <use xlink:href="#DejaVuSans-30" transform="translate(0 0.78125)"/>
       <use xlink:href="#DejaVuSans-2e" transform="translate(63.623047 0.78125)"/>
       <use xlink:href="#DejaVuSans-30" transform="translate(95.410156 0.78125)"/>
       <use xlink:href="#DejaVuSans-34" transform="translate(159.033203 0.78125)"/>
      </g>
     </g>
    </g>
    <g id="text_6">
     <!-- Time (s) -->
     <g transform="translate(219.867084 281.826136)scale(0.11 -0.11)">
      <defs>
       <path id="DejaVuSans-54" d="M -19 4666 
L 3928 4666 
L 3928 4134 
L 2272 4134 
L 2272 0 
L 1638 0 
L 1638 4134 
L -19 4134 
L -19 4666 
z
" transform="scale(0.015625)"/>
       <path id="DejaVuSans-69" d="M 603 3500 
L 1178 3500 
L 1178 0 
L 603 0 
L 603 3500 
z
M 603 4863 
L 1178 4863 
L 1178 4134 
L 603 4134 
L 603 4863 
z
" transform="scale(0.015625)"/>
       <path id="DejaVuSans-6d" d="M 3328 2828 
Q 3544 3216 3844 3400 
Q 4144 3584 4550 3584 
Q 5097 3584 5394 3201 
Q 5691 2819 5691 2113 
L 5691 0 
L 5113 0 
L 5113 2094 
Q 5113 2597 4934 2840 
Q 4756 3084 4391 3084 
Q 3944 3084 3684 2787 
Q 3425 2491 3425 1978 
L 3425 0 
L 2847 0 
L 2847 2094 
Q 2847 2600 2669 2842 
Q 2491 3084 2119 3084 
Q 1678 3084 1418 2786 
Q 1159 2488 1159 1978 
L 1159 0 
L 581 0 
L 581 3500 
L 1159 3500 
L 1159 2956 
Q 1356 3278 1631 3431 
Q 1906 3584 2284 3584 
Q 2666 3584 2933 3390 
Q 3200 3197 3328 2828 
z
" transform="scale(0.015625)"/>
       <path id="DejaVuSans-65" d="M 3597 1894 
L 3597 1613 
L 953 1613 
Q 991 1019 1311 708 
Q 1631 397 2203 397 
Q 2534 397 2845 478 
Q 3156 559 3463 722 
L 3463 178 
Q 3153 47 2828 -22 
Q 2503 -91 2169 -91 
Q 1331 -91 842 396 
Q 353 884 353 1716 
Q 353 2575 817 3079 
Q 1281 3584 2069 3584 
Q 2775 3584 3186 3129 
Q 3597 2675 3597 1894 
z
M 3022 2063 
Q 3016 2534 2758 2815 
Q 2500 3097 2075 3097 
Q 1594 3097 1305 2825 
Q 1016 2553 972 2059 
L 3022 2063 
z
" transform="scale(0.015625)"/>
       <path id="DejaVuSans-20" transform="scale(0.015625)"/>
       <path id="DejaVuSans-28" d="M 1984 4856 
Q 1566 4138 1362 3434 
Q 1159 2731 1159 2009 
Q 1159 1288 1364 580 
Q 1569 -128 1984 -844 
L 1484 -844 
Q 1016 -109 783 600 
Q 550 1309 550 2009 
Q 550 2706 781 3412 
Q 1013 4119 1484 4856 
L 1984 4856 
z
" transform="scale(0.015625)"/>
       <path id="DejaVuSans-73" d="M 2834 3397 
L 2834 2853 
Q 2591 2978 2328 3040 
Q 2066 3103 1784 3103 
Q 1356 3103 1142 2972 
Q 928 2841 928 2578 
Q 928 2378 1081 2264 
Q 1234 2150 1697 2047 
L 1894 2003 
Q 2506 1872 2764 1633 
Q 3022 1394 3022 966 
Q 3022 478 2636 193 
Q 2250 -91 1575 -91 
Q 1294 -91 989 -36 
Q 684 19 347 128 
L 347 722 
Q 666 556 975 473 
Q 1284 391 1588 391 
Q 1994 391 2212 530 
Q 2431 669 2431 922 
Q 2431 1156 2273 1281 
Q 2116 1406 1581 1522 
L 1381 1569 
Q 847 1681 609 1914 
Q 372 2147 372 2553 
Q 372 3047 722 3315 
Q 1072 3584 1716 3584 
Q 2034 3584 2315 3537 
Q 2597 3491 2834 3397 
z
" transform="scale(0.015625)"/>
       <path id="DejaVuSans-29" d="M 513 4856 
L 1013 4856 
Q 1481 4119 1714 3412 
Q 1947 2706 1947 2009 
Q 1947 1309 1714 600 
Q 1481 -109 1013 -844 
L 513 -844 
Q 928 -128 1133 580 
Q 1338 1288 1338 2009 
Q 1338 2731 1133 3434 
Q 928 4138 513 4856 
z
" transform="scale(0.015625)"/>
      </defs>
      <use xlink:href="#DejaVuSans-54"/>
      <use xlink:href="#DejaVuSans-69" x="57.958984"/>
      <use xlink:href="#DejaVuSans-6d" x="85.742188"/>
      <use xlink:href="#DejaVuSans-65" x="183.154297"/>
      <use xlink:href="#DejaVuSans-20" x="244.677734"/>
      <use xlink:href="#DejaVuSans-28" x="276.464844"/>
      <use xlink:href="#DejaVuSans-73" x="315.478516"/>
      <use xlink:href="#DejaVuSans-29" x="367.578125"/>
     </g>
    </g>
   </g>
   <g id="matplotlib.axis_2">
    <g id="ytick_1">
     <g id="line2d_7">
      <defs>
       <path id="m83d612a4ab" d="M 0 0 
L 2.5 0 
" style="stroke: #000000; stroke-width: 0.5"/>
      </defs>
      <g>
       <use xlink:href="#m83d612a4ab" x="64.651984" y="250.997315" style="stroke: #000000; stroke-width: 0.5"/>
      </g>
     </g>
     <g id="text_7">
      <!-- $0$ -->
      <g transform="translate(56.031984 254.03669)scale(0.08 -0.08)">
       <use xlink:href="#DejaVuSans-30" transform="translate(0 0.78125)"/>
      </g>
     </g>
    </g>
    <g id="ytick_2">
     <g id="line2d_8">
      <g>
       <use xlink:href="#m83d612a4ab" x="64.651984" y="188.251684" style="stroke: #000000; stroke-width: 0.5"/>
      </g>
     </g>
     <g id="text_8">
      <!-- $5.00×10^{3}$ -->
      <g transform="translate(22.591984 191.291059)scale(0.08 -0.08)">
       <defs>
        <path id="DejaVuSans-35" d="M 691 4666 
L 3169 4666 
L 3169 4134 
L 1269 4134 
L 1269 2991 
Q 1406 3038 1543 3061 
Q 1681 3084 1819 3084 
Q 2600 3084 3056 2656 
Q 3513 2228 3513 1497 
Q 3513 744 3044 326 
Q 2575 -91 1722 -91 
Q 1428 -91 1123 -41 
Q 819 9 494 109 
L 494 744 
Q 775 591 1075 516 
Q 1375 441 1709 441 
Q 2250 441 2565 725 
Q 2881 1009 2881 1497 
Q 2881 1984 2565 2268 
Q 2250 2553 1709 2553 
Q 1456 2553 1204 2497 
Q 953 2441 691 2322 
L 691 4666 
z
" transform="scale(0.015625)"/>
        <path id="DejaVuSans-d7" d="M 4488 3438 
L 3059 2003 
L 4488 575 
L 4116 197 
L 2681 1631 
L 1247 197 
L 878 575 
L 2303 2003 
L 878 3438 
L 1247 3816 
L 2681 2381 
L 4116 3816 
L 4488 3438 
z
" transform="scale(0.015625)"/>
       </defs>
       <use xlink:href="#DejaVuSans-35" transform="translate(0 0.765625)"/>
       <use xlink:href="#DejaVuSans-2e" transform="translate(63.623047 0.765625)"/>
       <use xlink:href="#DejaVuSans-30" transform="translate(95.410156 0.765625)"/>
       <use xlink:href="#DejaVuSans-30" transform="translate(159.033203 0.765625)"/>
       <use xlink:href="#DejaVuSans-d7" transform="translate(222.65625 0.765625)"/>
       <use xlink:href="#DejaVuSans-31" transform="translate(306.445312 0.765625)"/>
       <use xlink:href="#DejaVuSans-30" transform="translate(370.068359 0.765625)"/>
       <use xlink:href="#DejaVuSans-33" transform="translate(434.648438 39.046875)scale(0.7)"/>
      </g>
     </g>
    </g>
    <g id="ytick_3">
     <g id="line2d_9">
      <g>
       <use xlink:href="#m83d612a4ab" x="64.651984" y="125.506052" style="stroke: #000000; stroke-width: 0.5"/>
      </g>
     </g>
     <g id="text_9">
      <!-- $1.00×10^{4}$ -->
      <g transform="translate(22.591984 128.545427)scale(0.08 -0.08)">
       <use xlink:href="#DejaVuSans-31" transform="translate(0 0.684375)"/>
       <use xlink:href="#DejaVuSans-2e" transform="translate(63.623047 0.684375)"/>
       <use xlink:href="#DejaVuSans-30" transform="translate(95.410156 0.684375)"/>
       <use xlink:href="#DejaVuSans-30" transform="translate(159.033203 0.684375)"/>
       <use xlink:href="#DejaVuSans-d7" transform="translate(222.65625 0.684375)"/>
       <use xlink:href="#DejaVuSans-31" transform="translate(306.445312 0.684375)"/>
       <use xlink:href="#DejaVuSans-30" transform="translate(370.068359 0.684375)"/>
       <use xlink:href="#DejaVuSans-34" transform="translate(434.648438 38.965625)scale(0.7)"/>
      </g>
     </g>
    </g>
    <g id="ytick_4">
     <g id="line2d_10">
      <g>
       <use xlink:href="#m83d612a4ab" x="64.651984" y="62.76042" style="stroke: #000000; stroke-width: 0.5"/>
      </g>
     </g>
     <g id="text_10">
      <!-- $1.50×10^{4}$ -->
      <g transform="translate(22.591984 65.799795)scale(0.08 -0.08)">
       <use xlink:href="#DejaVuSans-31" transform="translate(0 0.684375)"/>
       <use xlink:href="#DejaVuSans-2e" transform="translate(63.623047 0.684375)"/>
       <use xlink:href="#DejaVuSans-35" transform="translate(95.410156 0.684375)"/>
       <use xlink:href="#DejaVuSans-30" transform="translate(159.033203 0.684375)"/>
       <use xlink:href="#DejaVuSans-d7" transform="translate(222.65625 0.684375)"/>
       <use xlink:href="#DejaVuSans-31" transform="translate(306.445312 0.684375)"/>
       <use xlink:href="#DejaVuSans-30" transform="translate(370.068359 0.684375)"/>
       <use xlink:href="#DejaVuSans-34" transform="translate(434.648438 38.965625)scale(0.7)"/>
      </g>
     </g>
    </g>
    <g id="text_11">
     <!-- $F_y$ at the forewing root ($N$) -->
     <g transform="translate(15.181984 202.965)rotate(-90)scale(0.11 -0.11)">
      <defs>
       <path id="DejaVuSans-Oblique-46" d="M 1081 4666 
L 3756 4666 
L 3653 4134 
L 1606 4134 
L 1338 2759 
L 3188 2759 
L 3084 2228 
L 1234 2228 
L 800 0 
L 172 0 
L 1081 4666 
z
" transform="scale(0.015625)"/>
       <path id="DejaVuSans-Oblique-79" d="M 1588 -325 
Q 1188 -997 936 -1164 
Q 684 -1331 294 -1331 
L -159 -1331 
L -63 -850 
L 269 -850 
Q 509 -850 678 -719 
Q 847 -588 1056 -206 
L 1234 128 
L 459 3500 
L 1069 3500 
L 1650 819 
L 3256 3500 
L 3859 3500 
L 1588 -325 
z
" transform="scale(0.015625)"/>
       <path id="DejaVuSans-61" d="M 2194 1759 
Q 1497 1759 1228 1600 
Q 959 1441 959 1056 
Q 959 750 1161 570 
Q 1363 391 1709 391 
Q 2188 391 2477 730 
Q 2766 1069 2766 1631 
L 2766 1759 
L 2194 1759 
z
M 3341 1997 
L 3341 0 
L 2766 0 
L 2766 531 
Q 2569 213 2275 61 
Q 1981 -91 1556 -91 
Q 1019 -91 701 211 
Q 384 513 384 1019 
Q 384 1609 779 1909 
Q 1175 2209 1959 2209 
L 2766 2209 
L 2766 2266 
Q 2766 2663 2505 2880 
Q 2244 3097 1772 3097 
Q 1472 3097 1187 3025 
Q 903 2953 641 2809 
L 641 3341 
Q 956 3463 1253 3523 
Q 1550 3584 1831 3584 
Q 2591 3584 2966 3190 
Q 3341 2797 3341 1997 
z
" transform="scale(0.015625)"/>
       <path id="DejaVuSans-74" d="M 1172 4494 
L 1172 3500 
L 2356 3500 
L 2356 3053 
L 1172 3053 
L 1172 1153 
Q 1172 725 1289 603 
Q 1406 481 1766 481 
L 2356 481 
L 2356 0 
L 1766 0 
Q 1100 0 847 248 
Q 594 497 594 1153 
L 594 3053 
L 172 3053 
L 172 3500 
L 594 3500 
L 594 4494 
L 1172 4494 
z
" transform="scale(0.015625)"/>
       <path id="DejaVuSans-68" d="M 3513 2113 
L 3513 0 
L 2938 0 
L 2938 2094 
Q 2938 2591 2744 2837 
Q 2550 3084 2163 3084 
Q 1697 3084 1428 2787 
Q 1159 2491 1159 1978 
L 1159 0 
L 581 0 
L 581 4863 
L 1159 4863 
L 1159 2956 
Q 1366 3272 1645 3428 
Q 1925 3584 2291 3584 
Q 2894 3584 3203 3211 
Q 3513 2838 3513 2113 
z
" transform="scale(0.015625)"/>
       <path id="DejaVuSans-66" d="M 2375 4863 
L 2375 4384 
L 1825 4384 
Q 1516 4384 1395 4259 
Q 1275 4134 1275 3809 
L 1275 3500 
L 2222 3500 
L 2222 3053 
L 1275 3053 
L 1275 0 
L 697 0 
L 697 3053 
L 147 3053 
L 147 3500 
L 697 3500 
L 697 3744 
Q 697 4328 969 4595 
Q 1241 4863 1831 4863 
L 2375 4863 
z
" transform="scale(0.015625)"/>
       <path id="DejaVuSans-6f" d="M 1959 3097 
Q 1497 3097 1228 2736 
Q 959 2375 959 1747 
Q 959 1119 1226 758 
Q 1494 397 1959 397 
Q 2419 397 2687 759 
Q 2956 1122 2956 1747 
Q 2956 2369 2687 2733 
Q 2419 3097 1959 3097 
z
M 1959 3584 
Q 2709 3584 3137 3096 
Q 3566 2609 3566 1747 
Q 3566 888 3137 398 
Q 2709 -91 1959 -91 
Q 1206 -91 779 398 
Q 353 888 353 1747 
Q 353 2609 779 3096 
Q 1206 3584 1959 3584 
z
" transform="scale(0.015625)"/>
       <path id="DejaVuSans-72" d="M 2631 2963 
Q 2534 3019 2420 3045 
Q 2306 3072 2169 3072 
Q 1681 3072 1420 2755 
Q 1159 2438 1159 1844 
L 1159 0 
L 581 0 
L 581 3500 
L 1159 3500 
L 1159 2956 
Q 1341 3275 1631 3429 
Q 1922 3584 2338 3584 
Q 2397 3584 2469 3576 
Q 2541 3569 2628 3553 
L 2631 2963 
z
" transform="scale(0.015625)"/>
       <path id="DejaVuSans-77" d="M 269 3500 
L 844 3500 
L 1563 769 
L 2278 3500 
L 2956 3500 
L 3675 769 
L 4391 3500 
L 4966 3500 
L 4050 0 
L 3372 0 
L 2619 2869 
L 1863 0 
L 1184 0 
L 269 3500 
z
" transform="scale(0.015625)"/>
       <path id="DejaVuSans-6e" d="M 3513 2113 
L 3513 0 
L 2938 0 
L 2938 2094 
Q 2938 2591 2744 2837 
Q 2550 3084 2163 3084 
Q 1697 3084 1428 2787 
Q 1159 2491 1159 1978 
L 1159 0 
L 581 0 
L 581 3500 
L 1159 3500 
L 1159 2956 
Q 1366 3272 1645 3428 
Q 1925 3584 2291 3584 
Q 2894 3584 3203 3211 
Q 3513 2838 3513 2113 
z
" transform="scale(0.015625)"/>
       <path id="DejaVuSans-67" d="M 2906 1791 
Q 2906 2416 2648 2759 
Q 2391 3103 1925 3103 
Q 1463 3103 1205 2759 
Q 947 2416 947 1791 
Q 947 1169 1205 825 
Q 1463 481 1925 481 
Q 2391 481 2648 825 
Q 2906 1169 2906 1791 
z
M 3481 434 
Q 3481 -459 3084 -895 
Q 2688 -1331 1869 -1331 
Q 1566 -1331 1297 -1286 
Q 1028 -1241 775 -1147 
L 775 -588 
Q 1028 -725 1275 -790 
Q 1522 -856 1778 -856 
Q 2344 -856 2625 -561 
Q 2906 -266 2906 331 
L 2906 616 
Q 2728 306 2450 153 
Q 2172 0 1784 0 
Q 1141 0 747 490 
Q 353 981 353 1791 
Q 353 2603 747 3093 
Q 1141 3584 1784 3584 
Q 2172 3584 2450 3431 
Q 2728 3278 2906 2969 
L 2906 3500 
L 3481 3500 
L 3481 434 
z
" transform="scale(0.015625)"/>
       <path id="DejaVuSans-Oblique-4e" d="M 1081 4666 
L 1931 4666 
L 3219 666 
L 4000 4666 
L 4616 4666 
L 3706 0 
L 2853 0 
L 1569 4025 
L 788 0 
L 172 0 
L 1081 4666 
z
" transform="scale(0.015625)"/>
      </defs>
      <use xlink:href="#DejaVuSans-Oblique-46" transform="translate(0 0.015625)"/>
      <use xlink:href="#DejaVuSans-Oblique-79" transform="translate(57.519531 -16.390625)scale(0.7)"/>
      <use xlink:href="#DejaVuSans-20" transform="translate(101.679688 0.015625)"/>
      <use xlink:href="#DejaVuSans-61" transform="translate(133.466797 0.015625)"/>
      <use xlink:href="#DejaVuSans-74" transform="translate(194.746094 0.015625)"/>
      <use xlink:href="#DejaVuSans-20" transform="translate(233.955078 0.015625)"/>
      <use xlink:href="#DejaVuSans-74" transform="translate(265.742188 0.015625)"/>
      <use xlink:href="#DejaVuSans-68" transform="translate(304.951172 0.015625)"/>
      <use xlink:href="#DejaVuSans-65" transform="translate(368.330078 0.015625)"/>
      <use xlink:href="#DejaVuSans-20" transform="translate(429.853516 0.015625)"/>
      <use xlink:href="#DejaVuSans-66" transform="translate(461.640625 0.015625)"/>
      <use xlink:href="#DejaVuSans-6f" transform="translate(496.845703 0.015625)"/>
      <use xlink:href="#DejaVuSans-72" transform="translate(558.027344 0.015625)"/>
      <use xlink:href="#DejaVuSans-65" transform="translate(599.140625 0.015625)"/>
      <use xlink:href="#DejaVuSans-77" transform="translate(660.664062 0.015625)"/>
      <use xlink:href="#DejaVuSans-69" transform="translate(742.451172 0.015625)"/>
      <use xlink:href="#DejaVuSans-6e" transform="translate(770.234375 0.015625)"/>
      <use xlink:href="#DejaVuSans-67" transform="translate(833.613281 0.015625)"/>
      <use xlink:href="#DejaVuSans-20" transform="translate(897.089844 0.015625)"/>
      <use xlink:href="#DejaVuSans-72" transform="translate(928.876953 0.015625)"/>
      <use xlink:href="#DejaVuSans-6f" transform="translate(969.990234 0.015625)"/>
      <use xlink:href="#DejaVuSans-6f" transform="translate(1031.171875 0.015625)"/>
      <use xlink:href="#DejaVuSans-74" transform="translate(1092.353516 0.015625)"/>
      <use xlink:href="#DejaVuSans-20" transform="translate(1131.5625 0.015625)"/>
      <use xlink:href="#DejaVuSans-28" transform="translate(1163.349609 0.015625)"/>
      <use xlink:href="#DejaVuSans-Oblique-4e" transform="translate(1202.363281 0.015625)"/>
      <use xlink:href="#DejaVuSans-29" transform="translate(1277.167969 0.015625)"/>
     </g>
    </g>
   </g>
   <g id="patch_3">
    <path d="M 64.651984 258.225354 
L 64.651984 2.834646 
" style="fill: none; stroke: #000000; stroke-linejoin: miter; stroke-linecap: square"/>
   </g>
   <g id="patch_4">
    <path d="M 64.651984 258.225354 
L 419.805777 258.225354 
" style="fill: none; stroke: #000000; stroke-linejoin: miter; stroke-linecap: square"/>
   </g>
  </g>
 </g>
 <defs>
  <clipPath id="p98c8b03411">
   <rect x="64.651984" y="2.834646" width="355.153793" height="255.390709"/>
  </clipPath>
 </defs>
</svg>
