<?xml version="1.0" encoding="utf-8" standalone="no"?>
<!DOCTYPE svg PUBLIC "-//W3C//DTD SVG 1.1//EN"
  "http://www.w3.org/Graphics/SVG/1.1/DTD/svg11.dtd">
<svg xmlns:xlink="http://www.w3.org/1999/xlink" width="432pt" height="288pt" viewBox="0 0 432 288" xmlns="http://www.w3.org/2000/svg" version="1.1">
 <metadata>
  <rdf:RDF xmlns:dc="http://purl.org/dc/elements/1.1/" xmlns:cc="http://creativecommons.org/ns#" xmlns:rdf="http://www.w3.org/1999/02/22-rdf-syntax-ns#">
   <cc:Work>
    <dc:type rdf:resource="http://purl.org/dc/dcmitype/StillImage"/>
    <dc:date>2022-03-14T21:37:48.598570</dc:date>
    <dc:format>image/svg+xml</dc:format>
    <dc:creator>
     <cc:Agent>
      <dc:title>Matplotlib v3.5.1, https://matplotlib.org/</dc:title>
     </cc:Agent>
    </dc:creator>
   </cc:Work>
  </rdf:RDF>
 </metadata>
 <defs>
  <style type="text/css">*{stroke-linejoin: round; stroke-linecap: butt}</style>
 </defs>
 <g id="figure_1">
  <g id="patch_1">
   <path d="M 0 288 
L 432 288 
L 432 0 
L 0 0 
z
" style="fill: #ffffff"/>
  </g>
  <g id="axes_1">
   <g id="patch_2">
    <path d="M 27.130896 258.225354 
L 423.633507 258.225354 
L 423.633507 2.834646 
L 27.130896 2.834646 
z
" style="fill: #ffffff"/>
   </g>
   <g id="matplotlib.axis_1">
    <g id="xtick_1">
     <g id="line2d_1">
      <path d="M 27.130896 258.225354 
L 27.130896 2.834646 
" clip-path="url(#pf8a96aa7a6)" style="fill: none; stroke: #000000; stroke-opacity: 0.1; stroke-width: 0.5; stroke-linecap: square"/>
     </g>
     <g id="line2d_2">
      <defs>
       <path id="m516401cf65" d="M 0 0 
L 0 -2.5 
" style="stroke: #000000; stroke-width: 0.5"/>
      </defs>
      <g>
       <use xlink:href="#m516401cf65" x="27.130896" y="258.225354" style="stroke: #000000; stroke-width: 0.5"/>
      </g>
     </g>
     <g id="text_1">
      <!-- $0$ -->
      <g transform="translate(24.570896 267.804104)scale(0.08 -0.08)">
       <defs>
        <path id="DejaVuSans-30" d="M 2034 4250 
Q 1547 4250 1301 3770 
Q 1056 3291 1056 2328 
Q 1056 1369 1301 889 
Q 1547 409 2034 409 
Q 2525 409 2770 889 
Q 3016 1369 3016 2328 
Q 3016 3291 2770 3770 
Q 2525 4250 2034 4250 
z
M 2034 4750 
Q 2819 4750 3233 4129 
Q 3647 3509 3647 2328 
Q 3647 1150 3233 529 
Q 2819 -91 2034 -91 
Q 1250 -91 836 529 
Q 422 1150 422 2328 
Q 422 3509 836 4129 
Q 1250 4750 2034 4750 
z
" transform="scale(0.015625)"/>
       </defs>
       <use xlink:href="#DejaVuSans-30" transform="translate(0 0.78125)"/>
      </g>
     </g>
    </g>
    <g id="xtick_2">
     <g id="line2d_3">
      <path d="M 126.256549 258.225354 
L 126.256549 2.834646 
" clip-path="url(#pf8a96aa7a6)" style="fill: none; stroke: #000000; stroke-opacity: 0.1; stroke-width: 0.5; stroke-linecap: square"/>
     </g>
     <g id="line2d_4">
      <g>
       <use xlink:href="#m516401cf65" x="126.256549" y="258.225354" style="stroke: #000000; stroke-width: 0.5"/>
      </g>
     </g>
     <g id="text_2">
      <!-- $10$ -->
      <g transform="translate(121.136549 267.804104)scale(0.08 -0.08)">
       <defs>
        <path id="DejaVuSans-31" d="M 794 531 
L 1825 531 
L 1825 4091 
L 703 3866 
L 703 4441 
L 1819 4666 
L 2450 4666 
L 2450 531 
L 3481 531 
L 3481 0 
L 794 0 
L 794 531 
z
" transform="scale(0.015625)"/>
       </defs>
       <use xlink:href="#DejaVuSans-31" transform="translate(0 0.78125)"/>
       <use xlink:href="#DejaVuSans-30" transform="translate(63.623047 0.78125)"/>
      </g>
     </g>
    </g>
    <g id="xtick_3">
     <g id="line2d_5">
      <path d="M 225.382202 258.225354 
L 225.382202 2.834646 
" clip-path="url(#pf8a96aa7a6)" style="fill: none; stroke: #000000; stroke-opacity: 0.1; stroke-width: 0.5; stroke-linecap: square"/>
     </g>
     <g id="line2d_6">
      <g>
       <use xlink:href="#m516401cf65" x="225.382202" y="258.225354" style="stroke: #000000; stroke-width: 0.5"/>
      </g>
     </g>
     <g id="text_3">
      <!-- $20$ -->
      <g transform="translate(220.262202 267.804104)scale(0.08 -0.08)">
       <defs>
        <path id="DejaVuSans-32" d="M 1228 531 
L 3431 531 
L 3431 0 
L 469 0 
L 469 531 
Q 828 903 1448 1529 
Q 2069 2156 2228 2338 
Q 2531 2678 2651 2914 
Q 2772 3150 2772 3378 
Q 2772 3750 2511 3984 
Q 2250 4219 1831 4219 
Q 1534 4219 1204 4116 
Q 875 4013 500 3803 
L 500 4441 
Q 881 4594 1212 4672 
Q 1544 4750 1819 4750 
Q 2544 4750 2975 4387 
Q 3406 4025 3406 3419 
Q 3406 3131 3298 2873 
Q 3191 2616 2906 2266 
Q 2828 2175 2409 1742 
Q 1991 1309 1228 531 
z
" transform="scale(0.015625)"/>
       </defs>
       <use xlink:href="#DejaVuSans-32" transform="translate(0 0.78125)"/>
       <use xlink:href="#DejaVuSans-30" transform="translate(63.623047 0.78125)"/>
      </g>
     </g>
    </g>
    <g id="xtick_4">
     <g id="line2d_7">
      <path d="M 324.507854 258.225354 
L 324.507854 2.834646 
" clip-path="url(#pf8a96aa7a6)" style="fill: none; stroke: #000000; stroke-opacity: 0.1; stroke-width: 0.5; stroke-linecap: square"/>
     </g>
     <g id="line2d_8">
      <g>
       <use xlink:href="#m516401cf65" x="324.507854" y="258.225354" style="stroke: #000000; stroke-width: 0.5"/>
      </g>
     </g>
     <g id="text_4">
      <!-- $30$ -->
      <g transform="translate(319.387854 267.804104)scale(0.08 -0.08)">
       <defs>
        <path id="DejaVuSans-33" d="M 2597 2516 
Q 3050 2419 3304 2112 
Q 3559 1806 3559 1356 
Q 3559 666 3084 287 
Q 2609 -91 1734 -91 
Q 1441 -91 1130 -33 
Q 819 25 488 141 
L 488 750 
Q 750 597 1062 519 
Q 1375 441 1716 441 
Q 2309 441 2620 675 
Q 2931 909 2931 1356 
Q 2931 1769 2642 2001 
Q 2353 2234 1838 2234 
L 1294 2234 
L 1294 2753 
L 1863 2753 
Q 2328 2753 2575 2939 
Q 2822 3125 2822 3475 
Q 2822 3834 2567 4026 
Q 2313 4219 1838 4219 
Q 1578 4219 1281 4162 
Q 984 4106 628 3988 
L 628 4550 
Q 988 4650 1302 4700 
Q 1616 4750 1894 4750 
Q 2613 4750 3031 4423 
Q 3450 4097 3450 3541 
Q 3450 3153 3228 2886 
Q 3006 2619 2597 2516 
z
" transform="scale(0.015625)"/>
       </defs>
       <use xlink:href="#DejaVuSans-33" transform="translate(0 0.78125)"/>
       <use xlink:href="#DejaVuSans-30" transform="translate(63.623047 0.78125)"/>
      </g>
     </g>
    </g>
    <g id="xtick_5">
     <g id="line2d_9">
      <path d="M 423.633507 258.225354 
L 423.633507 2.834646 
" clip-path="url(#pf8a96aa7a6)" style="fill: none; stroke: #000000; stroke-opacity: 0.1; stroke-width: 0.5; stroke-linecap: square"/>
     </g>
     <g id="line2d_10">
      <g>
       <use xlink:href="#m516401cf65" x="423.633507" y="258.225354" style="stroke: #000000; stroke-width: 0.5"/>
      </g>
     </g>
     <g id="text_5">
      <!-- $40$ -->
      <g transform="translate(418.513507 267.804104)scale(0.08 -0.08)">
       <defs>
        <path id="DejaVuSans-34" d="M 2419 4116 
L 825 1625 
L 2419 1625 
L 2419 4116 
z
M 2253 4666 
L 3047 4666 
L 3047 1625 
L 3713 1625 
L 3713 1100 
L 3047 1100 
L 3047 0 
L 2419 0 
L 2419 1100 
L 313 1100 
L 313 1709 
L 2253 4666 
z
" transform="scale(0.015625)"/>
       </defs>
       <use xlink:href="#DejaVuSans-34" transform="translate(0 0.78125)"/>
       <use xlink:href="#DejaVuSans-30" transform="translate(63.623047 0.78125)"/>
      </g>
     </g>
    </g>
    <g id="text_6">
     <!-- Rotor Speed (RPM) -->
     <g transform="translate(173.745795 281.826136)scale(0.11 -0.11)">
      <defs>
       <path id="DejaVuSans-52" d="M 2841 2188 
Q 3044 2119 3236 1894 
Q 3428 1669 3622 1275 
L 4263 0 
L 3584 0 
L 2988 1197 
Q 2756 1666 2539 1819 
Q 2322 1972 1947 1972 
L 1259 1972 
L 1259 0 
L 628 0 
L 628 4666 
L 2053 4666 
Q 2853 4666 3247 4331 
Q 3641 3997 3641 3322 
Q 3641 2881 3436 2590 
Q 3231 2300 2841 2188 
z
M 1259 4147 
L 1259 2491 
L 2053 2491 
Q 2509 2491 2742 2702 
Q 2975 2913 2975 3322 
Q 2975 3731 2742 3939 
Q 2509 4147 2053 4147 
L 1259 4147 
z
" transform="scale(0.015625)"/>
       <path id="DejaVuSans-6f" d="M 1959 3097 
Q 1497 3097 1228 2736 
Q 959 2375 959 1747 
Q 959 1119 1226 758 
Q 1494 397 1959 397 
Q 2419 397 2687 759 
Q 2956 1122 2956 1747 
Q 2956 2369 2687 2733 
Q 2419 3097 1959 3097 
z
M 1959 3584 
Q 2709 3584 3137 3096 
Q 3566 2609 3566 1747 
Q 3566 888 3137 398 
Q 2709 -91 1959 -91 
Q 1206 -91 779 398 
Q 353 888 353 1747 
Q 353 2609 779 3096 
Q 1206 3584 1959 3584 
z
" transform="scale(0.015625)"/>
       <path id="DejaVuSans-74" d="M 1172 4494 
L 1172 3500 
L 2356 3500 
L 2356 3053 
L 1172 3053 
L 1172 1153 
Q 1172 725 1289 603 
Q 1406 481 1766 481 
L 2356 481 
L 2356 0 
L 1766 0 
Q 1100 0 847 248 
Q 594 497 594 1153 
L 594 3053 
L 172 3053 
L 172 3500 
L 594 3500 
L 594 4494 
L 1172 4494 
z
" transform="scale(0.015625)"/>
       <path id="DejaVuSans-72" d="M 2631 2963 
Q 2534 3019 2420 3045 
Q 2306 3072 2169 3072 
Q 1681 3072 1420 2755 
Q 1159 2438 1159 1844 
L 1159 0 
L 581 0 
L 581 3500 
L 1159 3500 
L 1159 2956 
Q 1341 3275 1631 3429 
Q 1922 3584 2338 3584 
Q 2397 3584 2469 3576 
Q 2541 3569 2628 3553 
L 2631 2963 
z
" transform="scale(0.015625)"/>
       <path id="DejaVuSans-20" transform="scale(0.015625)"/>
       <path id="DejaVuSans-53" d="M 3425 4513 
L 3425 3897 
Q 3066 4069 2747 4153 
Q 2428 4238 2131 4238 
Q 1616 4238 1336 4038 
Q 1056 3838 1056 3469 
Q 1056 3159 1242 3001 
Q 1428 2844 1947 2747 
L 2328 2669 
Q 3034 2534 3370 2195 
Q 3706 1856 3706 1288 
Q 3706 609 3251 259 
Q 2797 -91 1919 -91 
Q 1588 -91 1214 -16 
Q 841 59 441 206 
L 441 856 
Q 825 641 1194 531 
Q 1563 422 1919 422 
Q 2459 422 2753 634 
Q 3047 847 3047 1241 
Q 3047 1584 2836 1778 
Q 2625 1972 2144 2069 
L 1759 2144 
Q 1053 2284 737 2584 
Q 422 2884 422 3419 
Q 422 4038 858 4394 
Q 1294 4750 2059 4750 
Q 2388 4750 2728 4690 
Q 3069 4631 3425 4513 
z
" transform="scale(0.015625)"/>
       <path id="DejaVuSans-70" d="M 1159 525 
L 1159 -1331 
L 581 -1331 
L 581 3500 
L 1159 3500 
L 1159 2969 
Q 1341 3281 1617 3432 
Q 1894 3584 2278 3584 
Q 2916 3584 3314 3078 
Q 3713 2572 3713 1747 
Q 3713 922 3314 415 
Q 2916 -91 2278 -91 
Q 1894 -91 1617 61 
Q 1341 213 1159 525 
z
M 3116 1747 
Q 3116 2381 2855 2742 
Q 2594 3103 2138 3103 
Q 1681 3103 1420 2742 
Q 1159 2381 1159 1747 
Q 1159 1113 1420 752 
Q 1681 391 2138 391 
Q 2594 391 2855 752 
Q 3116 1113 3116 1747 
z
" transform="scale(0.015625)"/>
       <path id="DejaVuSans-65" d="M 3597 1894 
L 3597 1613 
L 953 1613 
Q 991 1019 1311 708 
Q 1631 397 2203 397 
Q 2534 397 2845 478 
Q 3156 559 3463 722 
L 3463 178 
Q 3153 47 2828 -22 
Q 2503 -91 2169 -91 
Q 1331 -91 842 396 
Q 353 884 353 1716 
Q 353 2575 817 3079 
Q 1281 3584 2069 3584 
Q 2775 3584 3186 3129 
Q 3597 2675 3597 1894 
z
M 3022 2063 
Q 3016 2534 2758 2815 
Q 2500 3097 2075 3097 
Q 1594 3097 1305 2825 
Q 1016 2553 972 2059 
L 3022 2063 
z
" transform="scale(0.015625)"/>
       <path id="DejaVuSans-64" d="M 2906 2969 
L 2906 4863 
L 3481 4863 
L 3481 0 
L 2906 0 
L 2906 525 
Q 2725 213 2448 61 
Q 2172 -91 1784 -91 
Q 1150 -91 751 415 
Q 353 922 353 1747 
Q 353 2572 751 3078 
Q 1150 3584 1784 3584 
Q 2172 3584 2448 3432 
Q 2725 3281 2906 2969 
z
M 947 1747 
Q 947 1113 1208 752 
Q 1469 391 1925 391 
Q 2381 391 2643 752 
Q 2906 1113 2906 1747 
Q 2906 2381 2643 2742 
Q 2381 3103 1925 3103 
Q 1469 3103 1208 2742 
Q 947 2381 947 1747 
z
" transform="scale(0.015625)"/>
       <path id="DejaVuSans-28" d="M 1984 4856 
Q 1566 4138 1362 3434 
Q 1159 2731 1159 2009 
Q 1159 1288 1364 580 
Q 1569 -128 1984 -844 
L 1484 -844 
Q 1016 -109 783 600 
Q 550 1309 550 2009 
Q 550 2706 781 3412 
Q 1013 4119 1484 4856 
L 1984 4856 
z
" transform="scale(0.015625)"/>
       <path id="DejaVuSans-50" d="M 1259 4147 
L 1259 2394 
L 2053 2394 
Q 2494 2394 2734 2622 
Q 2975 2850 2975 3272 
Q 2975 3691 2734 3919 
Q 2494 4147 2053 4147 
L 1259 4147 
z
M 628 4666 
L 2053 4666 
Q 2838 4666 3239 4311 
Q 3641 3956 3641 3272 
Q 3641 2581 3239 2228 
Q 2838 1875 2053 1875 
L 1259 1875 
L 1259 0 
L 628 0 
L 628 4666 
z
" transform="scale(0.015625)"/>
       <path id="DejaVuSans-4d" d="M 628 4666 
L 1569 4666 
L 2759 1491 
L 3956 4666 
L 4897 4666 
L 4897 0 
L 4281 0 
L 4281 4097 
L 3078 897 
L 2444 897 
L 1241 4097 
L 1241 0 
L 628 0 
L 628 4666 
z
" transform="scale(0.015625)"/>
       <path id="DejaVuSans-29" d="M 513 4856 
L 1013 4856 
Q 1481 4119 1714 3412 
Q 1947 2706 1947 2009 
Q 1947 1309 1714 600 
Q 1481 -109 1013 -844 
L 513 -844 
Q 928 -128 1133 580 
Q 1338 1288 1338 2009 
Q 1338 2731 1133 3434 
Q 928 4138 513 4856 
z
" transform="scale(0.015625)"/>
      </defs>
      <use xlink:href="#DejaVuSans-52"/>
      <use xlink:href="#DejaVuSans-6f" x="64.982422"/>
      <use xlink:href="#DejaVuSans-74" x="126.164062"/>
      <use xlink:href="#DejaVuSans-6f" x="165.373047"/>
      <use xlink:href="#DejaVuSans-72" x="226.554688"/>
      <use xlink:href="#DejaVuSans-20" x="267.667969"/>
      <use xlink:href="#DejaVuSans-53" x="299.455078"/>
      <use xlink:href="#DejaVuSans-70" x="362.931641"/>
      <use xlink:href="#DejaVuSans-65" x="426.408203"/>
      <use xlink:href="#DejaVuSans-65" x="487.931641"/>
      <use xlink:href="#DejaVuSans-64" x="549.455078"/>
      <use xlink:href="#DejaVuSans-20" x="612.931641"/>
      <use xlink:href="#DejaVuSans-28" x="644.71875"/>
      <use xlink:href="#DejaVuSans-52" x="683.732422"/>
      <use xlink:href="#DejaVuSans-50" x="753.214844"/>
      <use xlink:href="#DejaVuSans-4d" x="813.517578"/>
      <use xlink:href="#DejaVuSans-29" x="899.796875"/>
     </g>
    </g>
   </g>
   <g id="matplotlib.axis_2">
    <g id="ytick_1">
     <g id="line2d_11">
      <path d="M 27.130896 250.997315 
L 423.633507 250.997315 
" clip-path="url(#pf8a96aa7a6)" style="fill: none; stroke: #000000; stroke-opacity: 0.1; stroke-width: 0.5; stroke-linecap: square"/>
     </g>
     <g id="line2d_12">
      <defs>
       <path id="m7ad31a0cd2" d="M 0 0 
L 2.5 0 
" style="stroke: #000000; stroke-width: 0.5"/>
      </defs>
      <g>
       <use xlink:href="#m7ad31a0cd2" x="27.130896" y="250.997315" style="stroke: #000000; stroke-width: 0.5"/>
      </g>
     </g>
     <g id="text_7">
      <!-- $0$ -->
      <g transform="translate(18.510896 254.03669)scale(0.08 -0.08)">
       <use xlink:href="#DejaVuSans-30" transform="translate(0 0.78125)"/>
      </g>
     </g>
    </g>
    <g id="ytick_2">
     <g id="line2d_13">
      <path d="M 27.130896 202.810389 
L 423.633507 202.810389 
" clip-path="url(#pf8a96aa7a6)" style="fill: none; stroke: #000000; stroke-opacity: 0.1; stroke-width: 0.5; stroke-linecap: square"/>
     </g>
     <g id="line2d_14">
      <g>
       <use xlink:href="#m7ad31a0cd2" x="27.130896" y="202.810389" style="stroke: #000000; stroke-width: 0.5"/>
      </g>
     </g>
     <g id="text_8">
      <!-- $1$ -->
      <g transform="translate(18.510896 205.849764)scale(0.08 -0.08)">
       <use xlink:href="#DejaVuSans-31" transform="translate(0 0.09375)"/>
      </g>
     </g>
    </g>
    <g id="ytick_3">
     <g id="line2d_15">
      <path d="M 27.130896 154.623463 
L 423.633507 154.623463 
" clip-path="url(#pf8a96aa7a6)" style="fill: none; stroke: #000000; stroke-opacity: 0.1; stroke-width: 0.5; stroke-linecap: square"/>
     </g>
     <g id="line2d_16">
      <g>
       <use xlink:href="#m7ad31a0cd2" x="27.130896" y="154.623463" style="stroke: #000000; stroke-width: 0.5"/>
      </g>
     </g>
     <g id="text_9">
      <!-- $2$ -->
      <g transform="translate(18.510896 157.662838)scale(0.08 -0.08)">
       <use xlink:href="#DejaVuSans-32" transform="translate(0 0.78125)"/>
      </g>
     </g>
    </g>
    <g id="ytick_4">
     <g id="line2d_17">
      <path d="M 27.130896 106.436537 
L 423.633507 106.436537 
" clip-path="url(#pf8a96aa7a6)" style="fill: none; stroke: #000000; stroke-opacity: 0.1; stroke-width: 0.5; stroke-linecap: square"/>
     </g>
     <g id="line2d_18">
      <g>
       <use xlink:href="#m7ad31a0cd2" x="27.130896" y="106.436537" style="stroke: #000000; stroke-width: 0.5"/>
      </g>
     </g>
     <g id="text_10">
      <!-- $3$ -->
      <g transform="translate(18.510896 109.475912)scale(0.08 -0.08)">
       <use xlink:href="#DejaVuSans-33" transform="translate(0 0.78125)"/>
      </g>
     </g>
    </g>
    <g id="ytick_5">
     <g id="line2d_19">
      <path d="M 27.130896 58.249611 
L 423.633507 58.249611 
" clip-path="url(#pf8a96aa7a6)" style="fill: none; stroke: #000000; stroke-opacity: 0.1; stroke-width: 0.5; stroke-linecap: square"/>
     </g>
     <g id="line2d_20">
      <g>
       <use xlink:href="#m7ad31a0cd2" x="27.130896" y="58.249611" style="stroke: #000000; stroke-width: 0.5"/>
      </g>
     </g>
     <g id="text_11">
      <!-- $4$ -->
      <g transform="translate(18.510896 61.288986)scale(0.08 -0.08)">
       <use xlink:href="#DejaVuSans-34" transform="translate(0 0.09375)"/>
      </g>
     </g>
    </g>
    <g id="ytick_6">
     <g id="line2d_21">
      <path d="M 27.130896 10.062685 
L 423.633507 10.062685 
" clip-path="url(#pf8a96aa7a6)" style="fill: none; stroke: #000000; stroke-opacity: 0.1; stroke-width: 0.5; stroke-linecap: square"/>
     </g>
     <g id="line2d_22">
      <g>
       <use xlink:href="#m7ad31a0cd2" x="27.130896" y="10.062685" style="stroke: #000000; stroke-width: 0.5"/>
      </g>
     </g>
     <g id="text_12">
      <!-- $5$ -->
      <g transform="translate(18.510896 13.10206)scale(0.08 -0.08)">
       <defs>
        <path id="DejaVuSans-35" d="M 691 4666 
L 3169 4666 
L 3169 4134 
L 1269 4134 
L 1269 2991 
Q 1406 3038 1543 3061 
Q 1681 3084 1819 3084 
Q 2600 3084 3056 2656 
Q 3513 2228 3513 1497 
Q 3513 744 3044 326 
Q 2575 -91 1722 -91 
Q 1428 -91 1123 -41 
Q 819 9 494 109 
L 494 744 
Q 775 591 1075 516 
Q 1375 441 1709 441 
Q 2250 441 2565 725 
Q 2881 1009 2881 1497 
Q 2881 1984 2565 2268 
Q 2250 2553 1709 2553 
Q 1456 2553 1204 2497 
Q 953 2441 691 2322 
L 691 4666 
z
" transform="scale(0.015625)"/>
       </defs>
       <use xlink:href="#DejaVuSans-35" transform="translate(0 0.09375)"/>
      </g>
     </g>
    </g>
    <g id="text_13">
     <!-- Frequency (Hz) -->
     <g transform="translate(12.223239 172.005156)rotate(-90)scale(0.11 -0.11)">
      <defs>
       <path id="DejaVuSans-46" d="M 628 4666 
L 3309 4666 
L 3309 4134 
L 1259 4134 
L 1259 2759 
L 3109 2759 
L 3109 2228 
L 1259 2228 
L 1259 0 
L 628 0 
L 628 4666 
z
" transform="scale(0.015625)"/>
       <path id="DejaVuSans-71" d="M 947 1747 
Q 947 1113 1208 752 
Q 1469 391 1925 391 
Q 2381 391 2643 752 
Q 2906 1113 2906 1747 
Q 2906 2381 2643 2742 
Q 2381 3103 1925 3103 
Q 1469 3103 1208 2742 
Q 947 2381 947 1747 
z
M 2906 525 
Q 2725 213 2448 61 
Q 2172 -91 1784 -91 
Q 1150 -91 751 415 
Q 353 922 353 1747 
Q 353 2572 751 3078 
Q 1150 3584 1784 3584 
Q 2172 3584 2448 3432 
Q 2725 3281 2906 2969 
L 2906 3500 
L 3481 3500 
L 3481 -1331 
L 2906 -1331 
L 2906 525 
z
" transform="scale(0.015625)"/>
       <path id="DejaVuSans-75" d="M 544 1381 
L 544 3500 
L 1119 3500 
L 1119 1403 
Q 1119 906 1312 657 
Q 1506 409 1894 409 
Q 2359 409 2629 706 
Q 2900 1003 2900 1516 
L 2900 3500 
L 3475 3500 
L 3475 0 
L 2900 0 
L 2900 538 
Q 2691 219 2414 64 
Q 2138 -91 1772 -91 
Q 1169 -91 856 284 
Q 544 659 544 1381 
z
M 1991 3584 
L 1991 3584 
z
" transform="scale(0.015625)"/>
       <path id="DejaVuSans-6e" d="M 3513 2113 
L 3513 0 
L 2938 0 
L 2938 2094 
Q 2938 2591 2744 2837 
Q 2550 3084 2163 3084 
Q 1697 3084 1428 2787 
Q 1159 2491 1159 1978 
L 1159 0 
L 581 0 
L 581 3500 
L 1159 3500 
L 1159 2956 
Q 1366 3272 1645 3428 
Q 1925 3584 2291 3584 
Q 2894 3584 3203 3211 
Q 3513 2838 3513 2113 
z
" transform="scale(0.015625)"/>
       <path id="DejaVuSans-63" d="M 3122 3366 
L 3122 2828 
Q 2878 2963 2633 3030 
Q 2388 3097 2138 3097 
Q 1578 3097 1268 2742 
Q 959 2388 959 1747 
Q 959 1106 1268 751 
Q 1578 397 2138 397 
Q 2388 397 2633 464 
Q 2878 531 3122 666 
L 3122 134 
Q 2881 22 2623 -34 
Q 2366 -91 2075 -91 
Q 1284 -91 818 406 
Q 353 903 353 1747 
Q 353 2603 823 3093 
Q 1294 3584 2113 3584 
Q 2378 3584 2631 3529 
Q 2884 3475 3122 3366 
z
" transform="scale(0.015625)"/>
       <path id="DejaVuSans-79" d="M 2059 -325 
Q 1816 -950 1584 -1140 
Q 1353 -1331 966 -1331 
L 506 -1331 
L 506 -850 
L 844 -850 
Q 1081 -850 1212 -737 
Q 1344 -625 1503 -206 
L 1606 56 
L 191 3500 
L 800 3500 
L 1894 763 
L 2988 3500 
L 3597 3500 
L 2059 -325 
z
" transform="scale(0.015625)"/>
       <path id="DejaVuSans-48" d="M 628 4666 
L 1259 4666 
L 1259 2753 
L 3553 2753 
L 3553 4666 
L 4184 4666 
L 4184 0 
L 3553 0 
L 3553 2222 
L 1259 2222 
L 1259 0 
L 628 0 
L 628 4666 
z
" transform="scale(0.015625)"/>
       <path id="DejaVuSans-7a" d="M 353 3500 
L 3084 3500 
L 3084 2975 
L 922 459 
L 3084 459 
L 3084 0 
L 275 0 
L 275 525 
L 2438 3041 
L 353 3041 
L 353 3500 
z
" transform="scale(0.015625)"/>
      </defs>
      <use xlink:href="#DejaVuSans-46"/>
      <use xlink:href="#DejaVuSans-72" x="50.269531"/>
      <use xlink:href="#DejaVuSans-65" x="89.132812"/>
      <use xlink:href="#DejaVuSans-71" x="150.65625"/>
      <use xlink:href="#DejaVuSans-75" x="214.132812"/>
      <use xlink:href="#DejaVuSans-65" x="277.511719"/>
      <use xlink:href="#DejaVuSans-6e" x="339.035156"/>
      <use xlink:href="#DejaVuSans-63" x="402.414062"/>
      <use xlink:href="#DejaVuSans-79" x="457.394531"/>
      <use xlink:href="#DejaVuSans-20" x="516.574219"/>
      <use xlink:href="#DejaVuSans-28" x="548.361328"/>
      <use xlink:href="#DejaVuSans-48" x="587.375"/>
      <use xlink:href="#DejaVuSans-7a" x="662.570312"/>
      <use xlink:href="#DejaVuSans-29" x="715.060547"/>
     </g>
    </g>
   </g>
   <g id="line2d_23">
    <path d="M 27.130896 201.375066 
L 37.043461 201.359398 
L 46.956026 201.312437 
L 56.868592 201.234302 
L 66.781157 201.125193 
L 76.693722 200.985386 
L 86.606287 200.815234 
L 96.518853 200.615156 
L 106.431418 200.385642 
L 116.343983 200.127241 
L 126.256549 199.840561 
L 136.169114 199.526262 
L 146.081679 199.185047 
L 155.994244 198.817662 
L 165.90681 198.424887 
L 175.819375 198.007529 
L 185.73194 197.566419 
L 195.644506 197.102406 
L 205.557071 196.61635 
L 215.469636 196.109118 
L 225.382202 195.58158 
L 235.294767 195.034606 
L 245.207332 194.469058 
L 255.119897 193.88579 
L 265.032463 193.285645 
L 274.945028 192.669449 
L 284.857593 192.038014 
L 294.770159 191.392132 
L 304.682724 190.732574 
L 314.595289 190.060091 
L 324.507854 189.37541 
L 334.42042 188.679237 
L 344.332985 187.972254 
L 354.24555 187.255119 
L 364.158116 186.528469 
L 374.070681 185.792916 
L 383.983246 185.049053 
L 393.895812 184.297451 
L 403.808377 183.538661 
L 413.720942 182.773215 
L 423.633507 182.001632 
" clip-path="url(#pf8a96aa7a6)" style="fill: none; stroke: #ff0000"/>
   </g>
   <g id="line2d_24">
    <path d="M 27.130896 200.805533 
L 37.043461 200.789335 
L 46.956026 200.740786 
L 56.868592 200.660015 
L 66.781157 200.547233 
L 76.693722 200.402737 
L 86.606287 200.2269 
L 96.518853 200.020173 
L 106.431418 199.783076 
L 116.343983 199.516195 
L 126.256549 199.220178 
L 136.169114 198.895726 
L 146.081679 198.543588 
L 155.994244 198.164557 
L 165.90681 197.75946 
L 175.819375 197.329155 
L 185.73194 196.874523 
L 195.644506 196.396461 
L 205.557071 195.895881 
L 215.469636 195.373697 
L 225.382202 194.830829 
L 235.294767 194.268191 
L 245.207332 193.686692 
L 255.119897 193.087228 
L 265.032463 192.470682 
L 274.945028 191.837921 
L 284.857593 191.189793 
L 294.770159 190.527122 
L 304.682724 189.850713 
L 314.595289 189.161346 
L 324.507854 188.459774 
L 334.42042 187.746728 
L 344.332985 187.022911 
L 354.24555 186.289001 
L 364.158116 185.545652 
L 374.070681 184.793492 
L 383.983246 184.033125 
L 393.895812 183.265132 
L 403.808377 182.490074 
L 413.720942 181.708489 
L 423.633507 180.920899 
" clip-path="url(#pf8a96aa7a6)" style="fill: none; stroke: #ff0000"/>
   </g>
   <g id="patch_3">
    <path d="M 27.130896 258.225354 
L 27.130896 2.834646 
" style="fill: none; stroke: #000000; stroke-linejoin: miter; stroke-linecap: square"/>
   </g>
   <g id="patch_4">
    <path d="M 27.130896 258.225354 
L 423.633507 258.225354 
" style="fill: none; stroke: #000000; stroke-linejoin: miter; stroke-linecap: square"/>
   </g>
   <g id="line2d_25">
    <path d="M 27.130896 170.613539 
L 37.043461 170.613106 
L 46.956026 170.611787 
L 56.868592 170.609513 
L 66.781157 170.606177 
L 76.693722 170.601631 
L 86.606287 170.595695 
L 96.518853 170.588163 
L 106.431418 170.578806 
L 116.343983 170.567382 
L 126.256549 170.553638 
L 136.169114 170.537323 
L 146.081679 170.518184 
L 155.994244 170.495979 
L 165.90681 170.470475 
L 175.819375 170.441455 
L 185.73194 170.408717 
L 195.644506 170.372075 
L 205.557071 170.331363 
L 215.469636 170.286434 
L 225.382202 170.237158 
L 235.294767 170.183423 
L 245.207332 170.125133 
L 255.119897 170.06221 
L 265.032463 169.994588 
L 274.945028 169.922217 
L 284.857593 169.845057 
L 294.770159 169.763081 
L 304.682724 169.67627 
L 314.595289 169.584615 
L 324.507854 169.488114 
L 334.42042 169.38677 
L 344.332985 169.280593 
L 354.24555 169.169596 
L 364.158116 169.053795 
L 374.070681 168.933208 
L 383.983246 168.807852 
L 393.895812 168.677744 
L 403.808377 168.5429 
L 413.720942 168.403328 
L 423.633507 168.259032 
" clip-path="url(#pf8a96aa7a6)" style="fill: none; stroke: #ff0000"/>
   </g>
   <g id="line2d_26">
    <path d="M 27.130896 168.087143 
L 37.043461 168.086972 
L 46.956026 168.086431 
L 56.868592 168.085438 
L 66.781157 168.083861 
L 76.693722 168.081521 
L 86.606287 168.078202 
L 96.518853 168.073656 
L 106.431418 168.06761 
L 116.343983 168.05978 
L 126.256549 168.049874 
L 136.169114 168.037599 
L 146.081679 168.022673 
L 155.994244 168.004821 
L 165.90681 167.983789 
L 175.819375 167.95934 
L 185.73194 167.931256 
L 195.644506 167.899344 
L 205.557071 167.863433 
L 215.469636 167.823373 
L 225.382202 167.779035 
L 235.294767 167.730311 
L 245.207332 167.677111 
L 255.119897 167.619363 
L 265.032463 167.557011 
L 274.945028 167.490011 
L 284.857593 167.418335 
L 294.770159 167.341964 
L 304.682724 167.260888 
L 314.595289 167.175109 
L 324.507854 167.084633 
L 334.42042 166.989475 
L 344.332985 166.889653 
L 354.24555 166.785191 
L 364.158116 166.676116 
L 374.070681 166.562457 
L 383.983246 166.444245 
L 393.895812 166.321512 
L 403.808377 166.194292 
L 413.720942 166.062614 
L 423.633507 165.926509 
" clip-path="url(#pf8a96aa7a6)" style="fill: none; stroke: #ff0000"/>
   </g>
   <g id="line2d_27">
    <path d="M 27.130896 147.849808 
L 37.043461 147.825345 
L 46.956026 147.752022 
L 56.868592 147.63004 
L 66.781157 147.459725 
L 76.693722 147.241529 
L 86.606287 146.976013 
L 96.518853 146.663844 
L 106.431418 146.305777 
L 116.343983 145.902648 
L 126.256549 145.45536 
L 136.169114 144.964872 
L 146.081679 144.432187 
L 155.994244 143.858343 
L 165.90681 143.244406 
L 175.819375 142.591457 
L 185.73194 141.900592 
L 195.644506 141.172909 
L 205.557071 140.409509 
L 215.469636 139.611489 
L 225.382202 138.779938 
L 235.294767 137.915936 
L 245.207332 137.020552 
L 255.119897 136.094837 
L 265.032463 135.13983 
L 274.945028 134.156549 
L 284.857593 133.145997 
L 294.770159 132.109156 
L 304.682724 131.046986 
L 314.595289 129.96043 
L 324.507854 128.850406 
L 334.42042 127.717812 
L 344.332985 126.563525 
L 354.24555 125.388396 
L 364.158116 124.193259 
L 374.070681 122.978921 
L 383.983246 121.746169 
L 393.895812 120.495767 
L 403.808377 119.228456 
L 413.720942 117.944957 
L 423.633507 116.645967 
" clip-path="url(#pf8a96aa7a6)" style="fill: none; stroke: #ff0000"/>
   </g>
   <g id="line2d_28">
    <path d="M 27.130896 146.295006 
L 37.043461 146.269712 
L 46.956026 146.193899 
L 56.868592 146.06777 
L 66.781157 145.891658 
L 76.693722 145.66602 
L 86.606287 145.391432 
L 96.518853 145.068576 
L 106.431418 144.69823 
L 116.343983 144.281258 
L 126.256549 143.818597 
L 136.169114 143.311246 
L 146.081679 142.760257 
L 155.994244 142.16672 
L 165.90681 141.53176 
L 175.819375 140.856521 
L 185.73194 140.142167 
L 195.644506 139.389867 
L 205.557071 138.600796 
L 215.469636 137.776126 
L 225.382202 136.917024 
L 235.294767 136.024646 
L 245.207332 135.100136 
L 255.119897 134.144625 
L 265.032463 133.159224 
L 274.945028 132.145029 
L 284.857593 131.103111 
L 294.770159 130.034524 
L 304.682724 128.940297 
L 314.595289 127.821438 
L 324.507854 126.678931 
L 334.42042 125.513734 
L 344.332985 124.326783 
L 354.24555 123.11899 
L 364.158116 121.89124 
L 374.070681 120.644395 
L 383.983246 119.379291 
L 393.895812 118.096743 
L 403.808377 116.797538 
L 413.720942 115.482441 
L 423.633507 114.152193 
" clip-path="url(#pf8a96aa7a6)" style="fill: none; stroke: #ff0000"/>
   </g>
   <g id="line2d_29">
    <path d="M 27.130896 82.18601 
L 37.043461 82.178115 
L 46.956026 82.154362 
L 56.868592 82.11456 
L 66.781157 82.058405 
L 76.693722 81.98551 
L 86.606287 81.895436 
L 96.518853 81.787715 
L 106.431418 81.661886 
L 116.343983 81.517509 
L 126.256549 81.354187 
L 136.169114 81.171575 
L 146.081679 80.969385 
L 155.994244 80.74739 
L 165.90681 80.505419 
L 175.819375 80.243361 
L 185.73194 79.961154 
L 195.644506 79.658784 
L 205.557071 79.33628 
L 215.469636 78.993705 
L 225.382202 78.631158 
L 235.294767 78.248764 
L 245.207332 77.846671 
L 255.119897 77.42505 
L 265.032463 76.984086 
L 274.945028 76.52398 
L 284.857593 76.044944 
L 294.770159 75.547199 
L 304.682724 75.030975 
L 314.595289 74.496504 
L 324.507854 73.944027 
L 334.42042 73.373784 
L 344.332985 72.78602 
L 354.24555 72.180979 
L 364.158116 71.558907 
L 374.070681 70.920048 
L 383.983246 70.264646 
L 393.895812 69.592944 
L 403.808377 68.905184 
L 413.720942 68.201603 
L 423.633507 67.48244 
" clip-path="url(#pf8a96aa7a6)" style="fill: none; stroke: #ff0000"/>
   </g>
   <g id="line2d_30">
    <path d="M 27.130896 77.751608 
L 37.043461 77.726737 
L 46.956026 77.652199 
L 56.868592 77.528221 
L 66.781157 77.355183 
L 76.693722 77.133622 
L 86.606287 76.864236 
L 96.518853 76.547904 
L 106.431418 76.1857 
L 116.343983 75.77893 
L 126.256549 75.329174 
L 136.169114 74.838339 
L 146.081679 74.308735 
L 155.994244 73.743157 
L 165.90681 73.144982 
L 175.819375 72.518257 
L 185.73194 71.867772 
L 195.644506 71.19904 
L 205.557071 70.518164 
L 215.469636 69.831492 
L 225.382202 69.145056 
L 235.294767 68.463894 
L 245.207332 67.791423 
L 255.119897 67.129131 
L 265.032463 66.47667 
L 274.945028 65.832304 
L 284.857593 65.193481 
L 294.770159 64.557353 
L 304.682724 63.921139 
L 314.595289 63.282333 
L 324.507854 62.638786 
L 334.42042 61.988716 
L 344.332985 61.330677 
L 354.24555 60.663517 
L 364.158116 59.986327 
L 374.070681 59.298401 
L 383.983246 58.599195 
L 393.895812 57.888297 
L 403.808377 57.1654 
L 413.720942 56.430286 
L 423.633507 55.682801 
" clip-path="url(#pf8a96aa7a6)" style="fill: none; stroke: #ff0000"/>
   </g>
   <g id="line2d_31">
    <path d="M 27.130896 74.49825 
L 37.043461 74.469091 
L 46.956026 74.381702 
L 56.868592 74.236347 
L 66.781157 74.033451 
L 76.693722 73.773589 
L 86.606287 73.457463 
L 96.518853 73.085892 
L 106.431418 72.659801 
L 116.343983 72.18023 
L 126.256549 71.648361 
L 136.169114 71.06558 
L 146.081679 70.433606 
L 155.994244 69.754751 
L 165.90681 69.032443 
L 175.819375 68.272324 
L 185.73194 67.484462 
L 195.644506 66.686478 
L 205.557071 65.901088 
L 215.469636 65.135344 
L 225.382202 64.366888 
L 235.294767 63.566505 
L 245.207332 62.715298 
L 255.119897 61.80415 
L 265.032463 60.82998 
L 274.945028 59.793164 
L 284.857593 58.695938 
L 294.770159 57.541398 
L 304.682724 56.332887 
L 314.595289 55.073664 
L 324.507854 53.766748 
L 334.42042 52.414868 
L 344.332985 51.020462 
L 354.24555 49.585708 
L 364.158116 48.112559 
L 374.070681 46.602776 
L 383.983246 45.057963 
L 393.895812 43.479592 
L 403.808377 41.869025 
L 413.720942 40.227532 
L 423.633507 38.556304 
" clip-path="url(#pf8a96aa7a6)" style="fill: none; stroke: #ff0000"/>
   </g>
   <g id="line2d_32">
    <path d="M 27.130896 69.837858 
L 37.043461 69.825655 
L 46.956026 69.789 
L 56.868592 69.727756 
L 66.781157 69.641686 
L 76.693722 69.53044 
L 86.606287 69.393538 
L 96.518853 69.23034 
L 106.431418 69.040002 
L 116.343983 68.821424 
L 126.256549 68.573156 
L 136.169114 68.293267 
L 146.081679 67.979144 
L 155.994244 67.627138 
L 165.90681 67.231946 
L 175.819375 66.785419 
L 185.73194 66.274292 
L 195.644506 65.677059 
L 205.557071 64.966579 
L 215.469636 64.131176 
L 225.382202 63.188936 
L 235.294767 62.165848 
L 245.207332 61.079236 
L 255.119897 59.938616 
L 265.032463 58.749337 
L 274.945028 57.514708 
L 284.857593 56.237021 
L 294.770159 54.918031 
L 304.682724 53.559193 
L 314.595289 52.161785 
L 324.507854 50.726982 
L 334.42042 49.255885 
L 344.332985 47.749552 
L 354.24555 46.209006 
L 364.158116 44.635245 
L 374.070681 43.029246 
L 383.983246 41.391971 
L 393.895812 39.724364 
L 403.808377 38.027355 
L 413.720942 36.30186 
L 423.633507 34.548779 
" clip-path="url(#pf8a96aa7a6)" style="fill: none; stroke: #ff0000"/>
   </g>
   <g id="PathCollection_1">
    <defs>
     <path id="ma59d84af64" d="M 0 2 
C 0.530406 2 1.03916 1.789267 1.414214 1.414214 
C 1.789267 1.03916 2 0.530406 2 0 
C 2 -0.530406 1.789267 -1.03916 1.414214 -1.414214 
C 1.03916 -1.789267 0.530406 -2 0 -2 
C -0.530406 -2 -1.03916 -1.789267 -1.414214 -1.414214 
C -1.789267 -1.03916 -2 -0.530406 -2 0 
C -2 0.530406 -1.789267 1.03916 -1.414214 1.414214 
C -1.03916 1.789267 -0.530406 2 0 2 
z
" style="stroke: #000000"/>
    </defs>
    <g clip-path="url(#pf8a96aa7a6)">
     <use xlink:href="#ma59d84af64" x="26.01712" y="83.412824" style="stroke: #000000"/>
     <use xlink:href="#ma59d84af64" x="226.496374" y="54.146012" style="stroke: #000000"/>
     <use xlink:href="#ma59d84af64" x="226.496374" y="61.641488" style="stroke: #000000"/>
     <use xlink:href="#ma59d84af64" x="226.496374" y="71.278874" style="stroke: #000000"/>
     <use xlink:href="#ma59d84af64" x="227.609555" y="131.781414" style="stroke: #000000"/>
     <use xlink:href="#ma59d84af64" x="266.591709" y="131.816591" style="stroke: #000000"/>
     <use xlink:href="#ma59d84af64" x="306.687045" y="127.033557" style="stroke: #000000"/>
     <use xlink:href="#ma59d84af64" x="326.735208" y="125.981154" style="stroke: #000000"/>
     <use xlink:href="#ma59d84af64" x="343.441845" y="124.390022" style="stroke: #000000"/>
     <use xlink:href="#ma59d84af64" x="356.806957" y="123.86623" style="stroke: #000000"/>
     <use xlink:href="#ma59d84af64" x="365.717362" y="120.661799" style="stroke: #000000"/>
     <use xlink:href="#ma59d84af64" x="366.831535" y="127.088008" style="stroke: #000000"/>
     <use xlink:href="#ma59d84af64" x="366.831535" y="135.119323" style="stroke: #000000"/>
     <use xlink:href="#ma59d84af64" x="306.687045" y="132.388088" style="stroke: #000000"/>
     <use xlink:href="#ma59d84af64" x="226.496374" y="139.811284" style="stroke: #000000"/>
     <use xlink:href="#ma59d84af64" x="126.256549" y="143.469153" style="stroke: #000000"/>
     <use xlink:href="#ma59d84af64" x="126.256549" y="146.145937" style="stroke: #000000"/>
     <use xlink:href="#ma59d84af64" x="126.256549" y="152.035825" style="stroke: #000000"/>
     <use xlink:href="#ma59d84af64" x="420.291982" y="184.425149" style="stroke: #000000"/>
     <use xlink:href="#ma59d84af64" x="396.903284" y="187.61657" style="stroke: #000000"/>
     <use xlink:href="#ma59d84af64" x="384.651353" y="190.28227" style="stroke: #000000"/>
     <use xlink:href="#ma59d84af64" x="385.765525" y="187.60645" style="stroke: #000000"/>
     <use xlink:href="#ma59d84af64" x="365.717362" y="190.800762" style="stroke: #000000"/>
     <use xlink:href="#ma59d84af64" x="344.556018" y="191.317325" style="stroke: #000000"/>
     <use xlink:href="#ma59d84af64" x="331.190906" y="192.911349" style="stroke: #000000"/>
     <use xlink:href="#ma59d84af64" x="306.687045" y="193.959897" style="stroke: #000000"/>
     <use xlink:href="#ma59d84af64" x="227.609555" y="198.707754" style="stroke: #000000"/>
     <use xlink:href="#ma59d84af64" x="227.609555" y="193.889062" style="stroke: #000000"/>
     <use xlink:href="#ma59d84af64" x="306.687045" y="189.676561" style="stroke: #000000"/>
     <use xlink:href="#ma59d84af64" x="344.556018" y="185.962794" style="stroke: #000000"/>
     <use xlink:href="#ma59d84af64" x="364.60319" y="184.375035" style="stroke: #000000"/>
     <use xlink:href="#ma59d84af64" x="177.489642" y="196.521032" style="stroke: #000000"/>
     <use xlink:href="#ma59d84af64" x="177.489642" y="200.803886" style="stroke: #000000"/>
     <use xlink:href="#ma59d84af64" x="126.256549" y="201.293465" style="stroke: #000000"/>
     <use xlink:href="#ma59d84af64" x="27.130896" y="199.597767" style="stroke: #000000"/>
     <use xlink:href="#ma59d84af64" x="27.130896" y="148.1987" style="stroke: #000000"/>
    </g>
   </g>
   <g id="PathCollection_2">
    <defs>
     <path id="m64d4272acc" d="M -2 2 
L 2 -2 
M -2 -2 
L 2 2 
" style="stroke: #000000"/>
    </defs>
    <g clip-path="url(#pf8a96aa7a6)">
     <use xlink:href="#m64d4272acc" x="27.130896" y="78.595095" style="stroke: #000000"/>
     <use xlink:href="#m64d4272acc" x="26.01712" y="129.99368" style="stroke: #000000"/>
     <use xlink:href="#m64d4272acc" x="26.01712" y="164.259885" style="stroke: #000000"/>
     <use xlink:href="#m64d4272acc" x="126.256549" y="164.885351" style="stroke: #000000"/>
     <use xlink:href="#m64d4272acc" x="177.489642" y="166.537681" style="stroke: #000000"/>
     <use xlink:href="#m64d4272acc" x="226.496374" y="170.329992" style="stroke: #000000"/>
     <use xlink:href="#m64d4272acc" x="326.735208" y="172.026171" style="stroke: #000000"/>
     <use xlink:href="#m64d4272acc" x="344.556018" y="178.467318" style="stroke: #000000"/>
     <use xlink:href="#m64d4272acc" x="374.627767" y="176.352876" style="stroke: #000000"/>
     <use xlink:href="#m64d4272acc" x="384.651353" y="175.826192" style="stroke: #000000"/>
     <use xlink:href="#m64d4272acc" x="419.178801" y="177.463584" style="stroke: #000000"/>
     <use xlink:href="#m64d4272acc" x="416.950456" y="152.29748" style="stroke: #000000"/>
     <use xlink:href="#m64d4272acc" x="393.561758" y="152.811635" style="stroke: #000000"/>
     <use xlink:href="#m64d4272acc" x="382.424" y="152.266159" style="stroke: #000000"/>
     <use xlink:href="#m64d4272acc" x="373.513595" y="151.72261" style="stroke: #000000"/>
     <use xlink:href="#m64d4272acc" x="364.60319" y="150.644187" style="stroke: #000000"/>
     <use xlink:href="#m64d4272acc" x="344.556018" y="150.090519" style="stroke: #000000"/>
     <use xlink:href="#m64d4272acc" x="326.735208" y="149.539261" style="stroke: #000000"/>
     <use xlink:href="#m64d4272acc" x="269.933235" y="150.023539" style="stroke: #000000"/>
     <use xlink:href="#m64d4272acc" x="325.622027" y="134.011024" style="stroke: #000000"/>
     <use xlink:href="#m64d4272acc" x="266.591709" y="140.382781" style="stroke: #000000"/>
     <use xlink:href="#m64d4272acc" x="226.496374" y="143.559263" style="stroke: #000000"/>
     <use xlink:href="#m64d4272acc" x="225.382202" y="136.59818" style="stroke: #000000"/>
     <use xlink:href="#m64d4272acc" x="126.256549" y="131.154503" style="stroke: #000000"/>
     <use xlink:href="#m64d4272acc" x="125.142773" y="79.754472" style="stroke: #000000"/>
     <use xlink:href="#m64d4272acc" x="175.262289" y="80.334643" style="stroke: #000000"/>
     <use xlink:href="#m64d4272acc" x="126.256549" y="64.764001" style="stroke: #000000"/>
     <use xlink:href="#m64d4272acc" x="226.496374" y="77.703637" style="stroke: #000000"/>
     <use xlink:href="#m64d4272acc" x="266.591709" y="78.275134" style="stroke: #000000"/>
     <use xlink:href="#m64d4272acc" x="267.705882" y="65.426572" style="stroke: #000000"/>
     <use xlink:href="#m64d4272acc" x="305.573864" y="75.633526" style="stroke: #000000"/>
     <use xlink:href="#m64d4272acc" x="324.507854" y="74.579678" style="stroke: #000000"/>
     <use xlink:href="#m64d4272acc" x="344.556018" y="74.062151" style="stroke: #000000"/>
     <use xlink:href="#m64d4272acc" x="354.579604" y="73.000593" style="stroke: #000000"/>
     <use xlink:href="#m64d4272acc" x="365.717362" y="74.081425" style="stroke: #000000"/>
     <use xlink:href="#m64d4272acc" x="375.740948" y="73.554742" style="stroke: #000000"/>
     <use xlink:href="#m64d4272acc" x="375.740948" y="73.554742" style="stroke: #000000"/>
     <use xlink:href="#m64d4272acc" x="385.765525" y="73.028541" style="stroke: #000000"/>
     <use xlink:href="#m64d4272acc" x="394.67593" y="71.965537" style="stroke: #000000"/>
     <use xlink:href="#m64d4272acc" x="373.513595" y="55.348758" style="stroke: #000000"/>
     <use xlink:href="#m64d4272acc" x="383.538172" y="50.539221" style="stroke: #000000"/>
    </g>
   </g>
   <g id="line2d_33">
    <path d="M 28.244672 199.598731 
L 98.412252 200.197694 
L 167.466056 200.259855 
L 227.609555 197.636559 
L 305.573864 193.958933 
L 365.717362 190.265405 
L 394.67593 187.61416 
L 421.406154 183.890756 
" clip-path="url(#pf8a96aa7a6)" style="fill: none; stroke-dasharray: 3.7,1.6; stroke-dashoffset: 0; stroke: #000000"/>
   </g>
   <g id="line2d_34">
    <path d="M 27.130896 163.725492 
L 95.070924 164.322046 
L 175.262289 166.535753 
L 227.609555 170.330955 
L 324.507854 172.024244 
L 375.740948 175.282644 
" clip-path="url(#pf8a96aa7a6)" style="fill: none; stroke: #000000"/>
   </g>
   <g id="line2d_35">
    <path d="M 26.01712 148.197736 
L 102.867355 148.266644 
L 126.256549 149.35856 
L 220.927495 147.301942 
L 292.208752 136.122575 
L 330.076734 134.550717 
L 366.831535 126.017294 
" clip-path="url(#pf8a96aa7a6)" style="fill: none; stroke: #000000"/>
   </g>
   <g id="line2d_36">
    <path d="M 26.01712 148.197736 
L 127.370721 143.470117 
L 179.717987 141.375431 
L 287.753054 129.1586 
L 365.717362 120.661799 
" clip-path="url(#pf8a96aa7a6)" style="fill: none; stroke: #000000"/>
   </g>
   <g id="line2d_37">
    <path d="M 27.130896 130.53 
L 67.226628 130.56614 
L 124.028997 130.617218 
L 191.968926 133.891038 
L 227.609555 135.529394 
L 268.819063 148.95138 
L 331.190906 150.078472 
L 374.627767 150.65286 
" clip-path="url(#pf8a96aa7a6)" style="fill: none; stroke-dasharray: 3.7,1.6; stroke-dashoffset: 0; stroke: #000000"/>
   </g>
   <g id="line2d_38">
    <path d="M 26.01712 78.058774 
L 125.142773 79.754472 
L 177.489642 78.7305 
L 227.609555 77.705082 
L 279.956821 76.145753 
L 332.304087 74.586424 
L 364.60319 73.009266 
L 395.789111 70.895788 
" clip-path="url(#pf8a96aa7a6)" style="fill: none; stroke: #000000"/>
   </g>
   <g id="line2d_39">
    <path d="M 27.130896 250.997315 
L 433 218.113825 
" clip-path="url(#pf8a96aa7a6)" style="fill: none; stroke-dasharray: 1.85,0.8; stroke-dashoffset: 0; stroke: #000000; stroke-width: 0.5"/>
   </g>
   <g id="line2d_40">
    <path d="M 27.130896 250.997315 
L 433 185.230335 
" clip-path="url(#pf8a96aa7a6)" style="fill: none; stroke-dasharray: 1.85,0.8; stroke-dashoffset: 0; stroke: #000000; stroke-width: 0.5"/>
   </g>
   <g id="line2d_41">
    <path d="M 27.130896 250.997315 
L 433 152.346845 
" clip-path="url(#pf8a96aa7a6)" style="fill: none; stroke-dasharray: 1.85,0.8; stroke-dashoffset: 0; stroke: #000000; stroke-width: 0.5"/>
   </g>
   <g id="line2d_42">
    <path d="M 27.130896 250.997315 
L 433 119.463355 
" clip-path="url(#pf8a96aa7a6)" style="fill: none; stroke-dasharray: 1.85,0.8; stroke-dashoffset: 0; stroke: #000000; stroke-width: 0.5"/>
   </g>
   <g id="line2d_43">
    <path d="M 27.130896 250.997315 
L 433 86.579865 
" clip-path="url(#pf8a96aa7a6)" style="fill: none; stroke-dasharray: 1.85,0.8; stroke-dashoffset: 0; stroke: #000000; stroke-width: 0.5"/>
   </g>
   <g id="line2d_44">
    <path d="M 27.130896 250.997315 
L 433 53.696375 
" clip-path="url(#pf8a96aa7a6)" style="fill: none; stroke-dasharray: 1.85,0.8; stroke-dashoffset: 0; stroke: #000000; stroke-width: 0.5"/>
   </g>
   <g id="line2d_45">
    <path d="M 27.130896 250.997315 
" clip-path="url(#pf8a96aa7a6)" style="fill: none; stroke: #000000"/>
   </g>
   <g id="line2d_46">
    <path d="M 27.130896 250.997315 
" clip-path="url(#pf8a96aa7a6)" style="fill: none; stroke: #ff0000"/>
   </g>
   <g id="text_14">
    <!-- 1 P -->
    <g transform="translate(490.192591 211.191572)scale(0.1 -0.1)">
     <use xlink:href="#DejaVuSans-31"/>
     <use xlink:href="#DejaVuSans-20" x="63.623047"/>
     <use xlink:href="#DejaVuSans-50" x="95.410156"/>
    </g>
   </g>
   <g id="text_15">
    <!-- 2 P -->
    <g transform="translate(490.192591 170.553931)scale(0.1 -0.1)">
     <use xlink:href="#DejaVuSans-32"/>
     <use xlink:href="#DejaVuSans-20" x="63.623047"/>
     <use xlink:href="#DejaVuSans-50" x="95.410156"/>
    </g>
   </g>
   <g id="text_16">
    <!-- 3 P -->
    <g transform="translate(490.192591 129.91629)scale(0.1 -0.1)">
     <use xlink:href="#DejaVuSans-33"/>
     <use xlink:href="#DejaVuSans-20" x="63.623047"/>
     <use xlink:href="#DejaVuSans-50" x="95.410156"/>
    </g>
   </g>
   <g id="text_17">
    <!-- 4 P -->
    <g transform="translate(490.192591 89.278649)scale(0.1 -0.1)">
     <use xlink:href="#DejaVuSans-34"/>
     <use xlink:href="#DejaVuSans-20" x="63.623047"/>
     <use xlink:href="#DejaVuSans-50" x="95.410156"/>
    </g>
   </g>
   <g id="text_18">
    <!-- 5 P -->
    <g transform="translate(490.192591 48.641008)scale(0.1 -0.1)">
     <use xlink:href="#DejaVuSans-35"/>
     <use xlink:href="#DejaVuSans-20" x="63.623047"/>
     <use xlink:href="#DejaVuSans-50" x="95.410156"/>
    </g>
   </g>
   <g id="text_19">
    <!-- 6 P -->
    <g transform="translate(490.192591 8.003367)scale(0.1 -0.1)">
     <defs>
      <path id="DejaVuSans-36" d="M 2113 2584 
Q 1688 2584 1439 2293 
Q 1191 2003 1191 1497 
Q 1191 994 1439 701 
Q 1688 409 2113 409 
Q 2538 409 2786 701 
Q 3034 994 3034 1497 
Q 3034 2003 2786 2293 
Q 2538 2584 2113 2584 
z
M 3366 4563 
L 3366 3988 
Q 3128 4100 2886 4159 
Q 2644 4219 2406 4219 
Q 1781 4219 1451 3797 
Q 1122 3375 1075 2522 
Q 1259 2794 1537 2939 
Q 1816 3084 2150 3084 
Q 2853 3084 3261 2657 
Q 3669 2231 3669 1497 
Q 3669 778 3244 343 
Q 2819 -91 2113 -91 
Q 1303 -91 875 529 
Q 447 1150 447 2328 
Q 447 3434 972 4092 
Q 1497 4750 2381 4750 
Q 2619 4750 2861 4703 
Q 3103 4656 3366 4563 
z
" transform="scale(0.015625)"/>
     </defs>
     <use xlink:href="#DejaVuSans-36"/>
     <use xlink:href="#DejaVuSans-20" x="63.623047"/>
     <use xlink:href="#DejaVuSans-50" x="95.410156"/>
    </g>
   </g>
   <g id="legend_1">
    <g id="patch_5">
     <path d="M 31.130896 74.347146 
L 119.679646 74.347146 
L 119.679646 6.834646 
L 31.130896 6.834646 
z
" style="fill: #ffffff; stroke: #000000; stroke-linejoin: miter"/>
    </g>
    <g id="line2d_47">
     <path d="M 37.530896 16.513396 
L 45.530896 16.513396 
L 53.530896 16.513396 
" style="fill: none"/>
     <defs>
      <path id="m7f989eabd8" d="M 0 3.2 
C 0.84865 3.2 1.662656 2.862828 2.262742 2.262742 
C 2.862828 1.662656 3.2 0.84865 3.2 0 
C 3.2 -0.84865 2.862828 -1.662656 2.262742 -2.262742 
C 1.662656 -2.862828 0.84865 -3.2 0 -3.2 
C -0.84865 -3.2 -1.662656 -2.862828 -2.262742 -2.262742 
C -2.862828 -1.662656 -3.2 -0.84865 -3.2 0 
C -3.2 0.84865 -2.862828 1.662656 -2.262742 2.262742 
C -1.662656 2.862828 -0.84865 3.2 0 3.2 
z
" style="stroke: #000000; stroke-width: 1.6"/>
     </defs>
     <g>
      <use xlink:href="#m7f989eabd8" x="45.530896" y="16.513396" style="stroke: #000000; stroke-width: 1.6"/>
     </g>
    </g>
    <g id="text_20">
     <!-- Flatwise -->
     <g transform="translate(59.930896 19.313396)scale(0.08 -0.08)">
      <defs>
       <path id="DejaVuSans-6c" d="M 603 4863 
L 1178 4863 
L 1178 0 
L 603 0 
L 603 4863 
z
" transform="scale(0.015625)"/>
       <path id="DejaVuSans-61" d="M 2194 1759 
Q 1497 1759 1228 1600 
Q 959 1441 959 1056 
Q 959 750 1161 570 
Q 1363 391 1709 391 
Q 2188 391 2477 730 
Q 2766 1069 2766 1631 
L 2766 1759 
L 2194 1759 
z
M 3341 1997 
L 3341 0 
L 2766 0 
L 2766 531 
Q 2569 213 2275 61 
Q 1981 -91 1556 -91 
Q 1019 -91 701 211 
Q 384 513 384 1019 
Q 384 1609 779 1909 
Q 1175 2209 1959 2209 
L 2766 2209 
L 2766 2266 
Q 2766 2663 2505 2880 
Q 2244 3097 1772 3097 
Q 1472 3097 1187 3025 
Q 903 2953 641 2809 
L 641 3341 
Q 956 3463 1253 3523 
Q 1550 3584 1831 3584 
Q 2591 3584 2966 3190 
Q 3341 2797 3341 1997 
z
" transform="scale(0.015625)"/>
       <path id="DejaVuSans-77" d="M 269 3500 
L 844 3500 
L 1563 769 
L 2278 3500 
L 2956 3500 
L 3675 769 
L 4391 3500 
L 4966 3500 
L 4050 0 
L 3372 0 
L 2619 2869 
L 1863 0 
L 1184 0 
L 269 3500 
z
" transform="scale(0.015625)"/>
       <path id="DejaVuSans-69" d="M 603 3500 
L 1178 3500 
L 1178 0 
L 603 0 
L 603 3500 
z
M 603 4863 
L 1178 4863 
L 1178 4134 
L 603 4134 
L 603 4863 
z
" transform="scale(0.015625)"/>
       <path id="DejaVuSans-73" d="M 2834 3397 
L 2834 2853 
Q 2591 2978 2328 3040 
Q 2066 3103 1784 3103 
Q 1356 3103 1142 2972 
Q 928 2841 928 2578 
Q 928 2378 1081 2264 
Q 1234 2150 1697 2047 
L 1894 2003 
Q 2506 1872 2764 1633 
Q 3022 1394 3022 966 
Q 3022 478 2636 193 
Q 2250 -91 1575 -91 
Q 1294 -91 989 -36 
Q 684 19 347 128 
L 347 722 
Q 666 556 975 473 
Q 1284 391 1588 391 
Q 1994 391 2212 530 
Q 2431 669 2431 922 
Q 2431 1156 2273 1281 
Q 2116 1406 1581 1522 
L 1381 1569 
Q 847 1681 609 1914 
Q 372 2147 372 2553 
Q 372 3047 722 3315 
Q 1072 3584 1716 3584 
Q 2034 3584 2315 3537 
Q 2597 3491 2834 3397 
z
" transform="scale(0.015625)"/>
      </defs>
      <use xlink:href="#DejaVuSans-46"/>
      <use xlink:href="#DejaVuSans-6c" x="57.519531"/>
      <use xlink:href="#DejaVuSans-61" x="85.302734"/>
      <use xlink:href="#DejaVuSans-74" x="146.582031"/>
      <use xlink:href="#DejaVuSans-77" x="185.791016"/>
      <use xlink:href="#DejaVuSans-69" x="267.578125"/>
      <use xlink:href="#DejaVuSans-73" x="295.361328"/>
      <use xlink:href="#DejaVuSans-65" x="347.460938"/>
     </g>
    </g>
    <g id="line2d_48">
     <path d="M 37.530896 28.255896 
L 45.530896 28.255896 
L 53.530896 28.255896 
" style="fill: none"/>
     <defs>
      <path id="m3e3ffdfb9f" d="M -3.2 3.2 
L 3.2 -3.2 
M -3.2 -3.2 
L 3.2 3.2 
" style="stroke: #000000; stroke-width: 1.6"/>
     </defs>
     <g>
      <use xlink:href="#m3e3ffdfb9f" x="45.530896" y="28.255896" style="stroke: #000000; stroke-width: 1.6"/>
     </g>
    </g>
    <g id="text_21">
     <!-- Lead-Lag -->
     <g transform="translate(59.930896 31.055896)scale(0.08 -0.08)">
      <defs>
       <path id="DejaVuSans-4c" d="M 628 4666 
L 1259 4666 
L 1259 531 
L 3531 531 
L 3531 0 
L 628 0 
L 628 4666 
z
" transform="scale(0.015625)"/>
       <path id="DejaVuSans-2d" d="M 313 2009 
L 1997 2009 
L 1997 1497 
L 313 1497 
L 313 2009 
z
" transform="scale(0.015625)"/>
       <path id="DejaVuSans-67" d="M 2906 1791 
Q 2906 2416 2648 2759 
Q 2391 3103 1925 3103 
Q 1463 3103 1205 2759 
Q 947 2416 947 1791 
Q 947 1169 1205 825 
Q 1463 481 1925 481 
Q 2391 481 2648 825 
Q 2906 1169 2906 1791 
z
M 3481 434 
Q 3481 -459 3084 -895 
Q 2688 -1331 1869 -1331 
Q 1566 -1331 1297 -1286 
Q 1028 -1241 775 -1147 
L 775 -588 
Q 1028 -725 1275 -790 
Q 1522 -856 1778 -856 
Q 2344 -856 2625 -561 
Q 2906 -266 2906 331 
L 2906 616 
Q 2728 306 2450 153 
Q 2172 0 1784 0 
Q 1141 0 747 490 
Q 353 981 353 1791 
Q 353 2603 747 3093 
Q 1141 3584 1784 3584 
Q 2172 3584 2450 3431 
Q 2728 3278 2906 2969 
L 2906 3500 
L 3481 3500 
L 3481 434 
z
" transform="scale(0.015625)"/>
      </defs>
      <use xlink:href="#DejaVuSans-4c"/>
      <use xlink:href="#DejaVuSans-65" x="53.962891"/>
      <use xlink:href="#DejaVuSans-61" x="115.486328"/>
      <use xlink:href="#DejaVuSans-64" x="176.765625"/>
      <use xlink:href="#DejaVuSans-2d" x="240.242188"/>
      <use xlink:href="#DejaVuSans-4c" x="276.326172"/>
      <use xlink:href="#DejaVuSans-61" x="332.039062"/>
      <use xlink:href="#DejaVuSans-67" x="393.318359"/>
     </g>
    </g>
    <g id="line2d_49">
     <path d="M 37.530896 39.998396 
L 45.530896 39.998396 
L 53.530896 39.998396 
" style="fill: none; stroke-dasharray: 3.7,1.6; stroke-dashoffset: 0; stroke: #000000; stroke-linejoin: miter"/>
    </g>
    <g id="text_22">
     <!-- Tower Mode -->
     <g transform="translate(59.930896 42.798396)scale(0.08 -0.08)">
      <defs>
       <path id="DejaVuSans-54" d="M -19 4666 
L 3928 4666 
L 3928 4134 
L 2272 4134 
L 2272 0 
L 1638 0 
L 1638 4134 
L -19 4134 
L -19 4666 
z
" transform="scale(0.015625)"/>
      </defs>
      <use xlink:href="#DejaVuSans-54"/>
      <use xlink:href="#DejaVuSans-6f" x="44.083984"/>
      <use xlink:href="#DejaVuSans-77" x="105.265625"/>
      <use xlink:href="#DejaVuSans-65" x="187.052734"/>
      <use xlink:href="#DejaVuSans-72" x="248.576172"/>
      <use xlink:href="#DejaVuSans-20" x="289.689453"/>
      <use xlink:href="#DejaVuSans-4d" x="321.476562"/>
      <use xlink:href="#DejaVuSans-6f" x="407.755859"/>
      <use xlink:href="#DejaVuSans-64" x="468.9375"/>
      <use xlink:href="#DejaVuSans-65" x="532.414062"/>
     </g>
    </g>
    <g id="line2d_50">
     <path d="M 37.530896 51.740896 
L 45.530896 51.740896 
L 53.530896 51.740896 
" style="fill: none; stroke: #000000; stroke-linejoin: miter"/>
    </g>
    <g id="text_23">
     <!-- Experimental -->
     <g transform="translate(59.930896 54.540896)scale(0.08 -0.08)">
      <defs>
       <path id="DejaVuSans-45" d="M 628 4666 
L 3578 4666 
L 3578 4134 
L 1259 4134 
L 1259 2753 
L 3481 2753 
L 3481 2222 
L 1259 2222 
L 1259 531 
L 3634 531 
L 3634 0 
L 628 0 
L 628 4666 
z
" transform="scale(0.015625)"/>
       <path id="DejaVuSans-78" d="M 3513 3500 
L 2247 1797 
L 3578 0 
L 2900 0 
L 1881 1375 
L 863 0 
L 184 0 
L 1544 1831 
L 300 3500 
L 978 3500 
L 1906 2253 
L 2834 3500 
L 3513 3500 
z
" transform="scale(0.015625)"/>
       <path id="DejaVuSans-6d" d="M 3328 2828 
Q 3544 3216 3844 3400 
Q 4144 3584 4550 3584 
Q 5097 3584 5394 3201 
Q 5691 2819 5691 2113 
L 5691 0 
L 5113 0 
L 5113 2094 
Q 5113 2597 4934 2840 
Q 4756 3084 4391 3084 
Q 3944 3084 3684 2787 
Q 3425 2491 3425 1978 
L 3425 0 
L 2847 0 
L 2847 2094 
Q 2847 2600 2669 2842 
Q 2491 3084 2119 3084 
Q 1678 3084 1418 2786 
Q 1159 2488 1159 1978 
L 1159 0 
L 581 0 
L 581 3500 
L 1159 3500 
L 1159 2956 
Q 1356 3278 1631 3431 
Q 1906 3584 2284 3584 
Q 2666 3584 2933 3390 
Q 3200 3197 3328 2828 
z
" transform="scale(0.015625)"/>
      </defs>
      <use xlink:href="#DejaVuSans-45"/>
      <use xlink:href="#DejaVuSans-78" x="63.183594"/>
      <use xlink:href="#DejaVuSans-70" x="122.363281"/>
      <use xlink:href="#DejaVuSans-65" x="185.839844"/>
      <use xlink:href="#DejaVuSans-72" x="247.363281"/>
      <use xlink:href="#DejaVuSans-69" x="288.476562"/>
      <use xlink:href="#DejaVuSans-6d" x="316.259766"/>
      <use xlink:href="#DejaVuSans-65" x="413.671875"/>
      <use xlink:href="#DejaVuSans-6e" x="475.195312"/>
      <use xlink:href="#DejaVuSans-74" x="538.574219"/>
      <use xlink:href="#DejaVuSans-61" x="577.783203"/>
      <use xlink:href="#DejaVuSans-6c" x="639.0625"/>
     </g>
    </g>
    <g id="line2d_51">
     <path d="M 37.530896 63.483396 
L 45.530896 63.483396 
L 53.530896 63.483396 
" style="fill: none; stroke: #ff0000; stroke-linejoin: miter"/>
    </g>
    <g id="text_24">
     <!-- GXBeam -->
     <g transform="translate(59.930896 66.283396)scale(0.08 -0.08)">
      <defs>
       <path id="DejaVuSans-47" d="M 3809 666 
L 3809 1919 
L 2778 1919 
L 2778 2438 
L 4434 2438 
L 4434 434 
Q 4069 175 3628 42 
Q 3188 -91 2688 -91 
Q 1594 -91 976 548 
Q 359 1188 359 2328 
Q 359 3472 976 4111 
Q 1594 4750 2688 4750 
Q 3144 4750 3555 4637 
Q 3966 4525 4313 4306 
L 4313 3634 
Q 3963 3931 3569 4081 
Q 3175 4231 2741 4231 
Q 1884 4231 1454 3753 
Q 1025 3275 1025 2328 
Q 1025 1384 1454 906 
Q 1884 428 2741 428 
Q 3075 428 3337 486 
Q 3600 544 3809 666 
z
" transform="scale(0.015625)"/>
       <path id="DejaVuSans-58" d="M 403 4666 
L 1081 4666 
L 2241 2931 
L 3406 4666 
L 4084 4666 
L 2584 2425 
L 4184 0 
L 3506 0 
L 2194 1984 
L 872 0 
L 191 0 
L 1856 2491 
L 403 4666 
z
" transform="scale(0.015625)"/>
       <path id="DejaVuSans-42" d="M 1259 2228 
L 1259 519 
L 2272 519 
Q 2781 519 3026 730 
Q 3272 941 3272 1375 
Q 3272 1813 3026 2020 
Q 2781 2228 2272 2228 
L 1259 2228 
z
M 1259 4147 
L 1259 2741 
L 2194 2741 
Q 2656 2741 2882 2914 
Q 3109 3088 3109 3444 
Q 3109 3797 2882 3972 
Q 2656 4147 2194 4147 
L 1259 4147 
z
M 628 4666 
L 2241 4666 
Q 2963 4666 3353 4366 
Q 3744 4066 3744 3513 
Q 3744 3084 3544 2831 
Q 3344 2578 2956 2516 
Q 3422 2416 3680 2098 
Q 3938 1781 3938 1306 
Q 3938 681 3513 340 
Q 3088 0 2303 0 
L 628 0 
L 628 4666 
z
" transform="scale(0.015625)"/>
      </defs>
      <use xlink:href="#DejaVuSans-47"/>
      <use xlink:href="#DejaVuSans-58" x="77.490234"/>
      <use xlink:href="#DejaVuSans-42" x="145.996094"/>
      <use xlink:href="#DejaVuSans-65" x="214.599609"/>
      <use xlink:href="#DejaVuSans-61" x="276.123047"/>
      <use xlink:href="#DejaVuSans-6d" x="337.402344"/>
     </g>
    </g>
   </g>
  </g>
 </g>
 <defs>
  <clipPath id="pf8a96aa7a6">
   <rect x="27.130896" y="2.834646" width="396.502612" height="255.390709"/>
  </clipPath>
 </defs>
</svg>
