<?xml version="1.0" encoding="utf-8" standalone="no"?>
<!DOCTYPE svg PUBLIC "-//W3C//DTD SVG 1.1//EN"
  "http://www.w3.org/Graphics/SVG/1.1/DTD/svg11.dtd">
<svg xmlns:xlink="http://www.w3.org/1999/xlink" width="432pt" height="288pt" viewBox="0 0 432 288" xmlns="http://www.w3.org/2000/svg" version="1.1">
 <metadata>
  <rdf:RDF xmlns:dc="http://purl.org/dc/elements/1.1/" xmlns:cc="http://creativecommons.org/ns#" xmlns:rdf="http://www.w3.org/1999/02/22-rdf-syntax-ns#">
   <cc:Work>
    <dc:type rdf:resource="http://purl.org/dc/dcmitype/StillImage"/>
    <dc:date>2022-03-14T21:37:55.198371</dc:date>
    <dc:format>image/svg+xml</dc:format>
    <dc:creator>
     <cc:Agent>
      <dc:title>Matplotlib v3.5.1, https://matplotlib.org/</dc:title>
     </cc:Agent>
    </dc:creator>
   </cc:Work>
  </rdf:RDF>
 </metadata>
 <defs>
  <style type="text/css">*{stroke-linejoin: round; stroke-linecap: butt}</style>
 </defs>
 <g id="figure_1">
  <g id="patch_1">
   <path d="M 0 288 
L 432 288 
L 432 0 
L 0 0 
z
" style="fill: #ffffff"/>
  </g>
  <g id="axes_1">
   <g id="patch_2">
    <path d="M 44.790359 258.225354 
L 422.361999 258.225354 
L 422.361999 2.834646 
L 44.790359 2.834646 
z
" style="fill: #ffffff"/>
   </g>
   <g id="line2d_1">
    <path d="M 44.790359 183.875896 
L 51.586649 183.775809 
L 54.22965 183.475251 
L 55.928722 183.068537 
L 57.439009 182.510382 
L 58.949296 181.734013 
L 60.837154 180.50063 
L 62.725012 179.018249 
L 64.61287 177.196611 
L 66.311943 175.255725 
L 72.919446 167.266733 
L 74.429733 166.036701 
L 75.562448 165.373306 
L 76.695163 164.991017 
L 77.827878 164.882344 
L 78.960592 164.97414 
L 80.470879 165.332371 
L 82.169951 165.988417 
L 83.680238 166.80535 
L 85.190525 167.891308 
L 86.889597 169.404743 
L 89.532598 172.139313 
L 91.798028 174.384567 
L 93.119529 175.392701 
L 94.252244 175.949718 
L 95.196173 176.181559 
L 96.140102 176.198546 
L 97.272817 175.980293 
L 99.915819 175.352583 
L 101.048533 175.370144 
L 101.992463 175.633021 
L 102.936392 176.18523 
L 103.880321 177.035184 
L 104.82425 178.194388 
L 105.768179 179.682136 
L 106.900894 181.905888 
L 108.222395 185.032361 
L 109.921467 189.685628 
L 112.753254 198.293261 
L 114.829898 204.398268 
L 115.962613 207.156794 
L 116.906542 208.895014 
L 117.661686 209.815602 
L 118.228043 210.174113 
L 118.794401 210.214807 
L 119.171972 210.053705 
L 119.73833 209.513487 
L 120.304687 208.615014 
L 121.05983 206.855097 
L 121.814974 204.451931 
L 122.758903 200.537622 
L 123.891618 194.627355 
L 125.213118 186.437709 
L 130.310336 153.316203 
L 131.631836 146.843101 
L 132.764551 142.285423 
L 133.897266 138.575925 
L 135.029981 135.600061 
L 135.97391 133.674197 
L 136.729053 132.538952 
L 137.484197 131.812871 
L 138.050554 131.550205 
L 138.616912 131.555644 
L 139.183269 131.830244 
L 139.749627 132.391373 
L 140.315984 133.254607 
L 141.071127 134.862221 
L 142.015056 137.541639 
L 143.147771 141.50635 
L 145.601987 151.247528 
L 146.923488 155.966056 
L 147.867417 158.628865 
L 148.62256 160.202966 
L 149.377703 161.228808 
L 149.944061 161.632205 
L 150.510418 161.749217 
L 151.076776 161.619978 
L 151.643133 161.289017 
L 152.587062 160.409258 
L 155.41885 157.406615 
L 156.362779 156.796542 
L 157.306708 156.453192 
L 158.250637 156.376502 
L 159.00578 156.515177 
L 159.949709 156.935665 
L 160.893638 157.609095 
L 161.837568 158.608722 
L 162.592711 159.710796 
L 163.347854 161.14612 
L 164.291783 163.497108 
L 165.235712 166.552322 
L 166.179641 170.41743 
L 167.312356 176.140013 
L 168.822643 185.129099 
L 171.65443 202.362186 
L 172.787145 207.892646 
L 173.731074 211.528418 
L 174.675003 214.25371 
L 175.430147 215.74708 
L 175.996504 216.443064 
L 176.562861 216.765834 
L 176.940433 216.766775 
L 177.318005 216.583541 
L 177.695576 216.214457 
L 178.261934 215.272521 
L 178.828291 213.830588 
L 179.394649 211.829891 
L 180.149792 208.226938 
L 180.904935 203.506032 
L 181.848864 196.012542 
L 182.792794 186.755343 
L 183.925508 173.473036 
L 185.624581 150.555886 
L 187.890011 120.313359 
L 189.211511 105.690067 
L 190.344226 95.561725 
L 191.476941 87.469669 
L 192.609656 81.033318 
L 193.742371 75.85985 
L 195.063872 70.865403 
L 196.196587 67.253788 
L 196.95173 65.434933 
L 197.518088 64.60242 
L 197.895659 64.389694 
L 198.273231 64.487633 
L 198.650802 64.931158 
L 199.028374 65.742428 
L 199.594732 67.669454 
L 200.161089 70.463328 
L 200.916232 75.470388 
L 201.860161 83.525663 
L 203.370448 98.885959 
L 205.447092 119.649963 
L 211.677024 177.374075 
L 212.432167 181.707657 
L 212.998525 183.940016 
L 213.564882 185.286818 
L 213.942454 185.704696 
L 214.320025 185.756909 
L 214.697597 185.458491 
L 215.075169 184.82972 
L 215.641526 183.300627 
L 216.39667 180.293575 
L 217.340599 175.340806 
L 219.9836 160.440778 
L 220.738743 157.687739 
L 221.305101 156.381015 
L 221.871458 155.716221 
L 222.24903 155.596827 
L 222.626602 155.688188 
L 223.192959 156.105945 
L 225.080817 157.954827 
L 225.647175 158.13567 
L 226.213532 158.005309 
L 226.77989 157.547332 
L 227.535033 156.570774 
L 228.856534 154.773346 
L 229.422891 154.330002 
L 229.989249 154.211607 
L 230.36682 154.333559 
L 230.933178 154.821165 
L 231.499535 155.670479 
L 232.065893 156.913391 
L 232.821036 159.235561 
L 233.576179 162.364187 
L 234.520108 167.354276 
L 235.652823 174.651149 
L 237.918253 189.747182 
L 238.673396 193.03441 
L 239.239754 194.595273 
L 239.806111 195.478552 
L 240.372469 195.847373 
L 240.938826 195.843559 
L 241.505184 195.574878 
L 242.260327 194.936062 
L 243.581828 193.508097 
L 244.148185 192.632916 
L 244.714543 191.253655 
L 245.2809 189.052958 
L 245.847257 185.807791 
L 246.602401 179.786457 
L 247.54633 169.835393 
L 248.679045 155.03864 
L 251.510832 115.709247 
L 252.454761 106.20347 
L 253.39869 98.608924 
L 254.342619 92.606285 
L 255.475334 87.052696 
L 256.419263 82.440919 
L 257.174407 77.529637 
L 257.92955 71.108509 
L 260.761337 44.980423 
L 261.516481 40.587761 
L 262.082838 38.379958 
L 262.46041 37.458484 
L 262.837981 37.009885 
L 263.026767 36.975821 
L 263.215553 37.072687 
L 263.593125 37.669307 
L 263.970696 38.828429 
L 264.537054 41.586997 
L 265.292197 46.790011 
L 267.746413 65.365999 
L 269.256699 74.386188 
L 270.766986 83.248138 
L 271.522129 89.133669 
L 272.277272 96.946896 
L 273.032416 106.933577 
L 273.976345 122.326224 
L 275.297845 148.030233 
L 277.752061 196.781043 
L 278.69599 210.829667 
L 279.451133 219.076258 
L 280.017491 223.301299 
L 280.395063 225.101907 
L 280.772634 226.037065 
L 280.96142 226.166537 
L 281.150206 226.07395 
L 281.527777 225.244656 
L 281.905349 223.581528 
L 282.471707 219.718651 
L 283.22685 212.652224 
L 286.058637 183.528647 
L 286.81378 178.235015 
L 287.380138 175.514943 
L 287.75771 174.372134 
L 288.135281 173.758246 
L 288.512853 173.630349 
L 288.890424 173.913425 
L 289.456782 174.786513 
L 290.023139 175.676836 
L 290.400711 175.957915 
L 290.589497 175.940567 
L 290.778283 175.789999 
L 291.155854 175.007838 
L 291.533426 173.494336 
L 291.910998 171.176777 
L 292.477355 166.11988 
L 293.232498 156.74255 
L 295.8755 119.988127 
L 296.441857 115.891535 
L 296.819429 114.423066 
L 297.008215 114.078197 
L 297.197001 113.990293 
L 297.385786 114.151718 
L 297.763358 115.176364 
L 298.14093 117.034123 
L 298.896073 122.483456 
L 300.217574 132.475817 
L 300.783931 134.937615 
L 301.161503 135.647734 
L 301.350289 135.729669 
L 301.539074 135.64133 
L 301.916646 135.015667 
L 302.483003 133.260153 
L 303.615718 129.434504 
L 303.99329 128.989355 
L 304.182076 129.060394 
L 304.370862 129.351725 
L 304.748433 130.628944 
L 305.126005 132.841168 
L 305.692362 137.698472 
L 306.636292 148.541377 
L 308.335364 171.370429 
L 310.412008 199.546983 
L 311.355937 209.088326 
L 312.11108 214.337351 
L 312.677438 216.888368 
L 313.055009 217.933002 
L 313.432581 218.41797 
L 313.621367 218.445046 
L 313.810153 218.324034 
L 314.187724 217.6249 
L 314.565296 216.339025 
L 315.131653 213.491663 
L 317.019512 202.308012 
L 317.585869 200.699691 
L 317.963441 200.242802 
L 318.341012 200.159969 
L 318.90737 200.404035 
L 319.473727 200.658444 
L 319.851299 200.607512 
L 320.228871 200.312657 
L 320.606442 199.758205 
L 321.1728 198.413023 
L 321.739157 196.327205 
L 322.305515 193.088588 
L 322.871872 188.266039 
L 323.627015 179.169243 
L 325.703659 151.303652 
L 326.458803 144.66672 
L 327.213946 139.667137 
L 328.913018 130.205281 
L 329.668162 123.691638 
L 331.178448 110.071255 
L 331.744806 107.076072 
L 332.122377 106.030752 
L 332.499949 105.681705 
L 332.688735 105.72207 
L 333.066306 106.123307 
L 333.632664 107.296082 
L 334.387807 109.554463 
L 335.331736 112.393168 
L 335.898094 113.409044 
L 336.275665 113.740456 
L 336.653237 113.84163 
L 337.030809 113.71676 
L 337.597166 113.212287 
L 338.352309 112.571779 
L 338.729881 112.534387 
L 339.107453 112.780171 
L 339.485024 113.425658 
L 339.862596 114.731102 
L 340.240167 116.962336 
L 340.806525 122.405783 
L 341.561668 133.321611 
L 344.582241 182.40373 
L 347.225243 220.668989 
L 347.980386 227.39065 
L 348.546744 230.764942 
L 349.113101 232.935617 
L 349.490673 233.848682 
L 349.868244 234.244077 
L 350.05703 234.206668 
L 350.245816 233.990563 
L 350.623388 232.996739 
L 351.189745 230.364311 
L 352.32246 224.565282 
L 352.700032 223.854848 
L 352.888817 223.98165 
L 353.077603 224.479909 
L 353.455175 226.630847 
L 354.021532 232.179202 
L 355.154247 244.559717 
L 355.720605 248.592315 
L 356.098176 250.251977 
L 356.475748 250.997315 
L 356.664534 250.980862 
L 356.85332 250.689393 
L 357.230891 249.269148 
L 357.608463 246.805288 
L 358.17482 241.635456 
L 358.929964 232.418513 
L 360.062679 214.432972 
L 360.817822 203.588364 
L 361.384179 198.201646 
L 361.761751 196.540056 
L 361.950537 196.300478 
L 362.139323 196.405543 
L 362.516894 197.432736 
L 363.838395 202.551753 
L 364.027181 202.767048 
L 364.215967 202.777703 
L 364.593538 202.25834 
L 365.726253 199.878669 
L 366.292611 198.755508 
L 366.670182 197.605835 
L 367.23654 194.964136 
L 367.802897 190.763429 
L 368.558041 182.434171 
L 370.257113 162.113189 
L 372.522543 138.541762 
L 373.0889 133.840614 
L 373.466472 132.029934 
L 373.655258 131.602006 
L 373.844043 131.480768 
L 374.032829 131.631736 
L 374.410401 132.536847 
L 375.165544 135.389642 
L 375.920687 139.169951 
L 376.675831 144.521339 
L 377.61976 153.420815 
L 378.941261 166.334948 
L 379.88519 172.983467 
L 380.640333 177.070356 
L 381.395476 179.939872 
L 381.961834 181.345237 
L 382.528191 182.176254 
L 383.47212 183.246062 
L 383.849692 184.09155 
L 384.227264 185.747693 
L 384.604835 188.553872 
L 385.359978 196.599986 
L 387.625408 220.75515 
L 389.513267 236.154257 
L 389.890838 237.351633 
L 390.26841 237.875772 
L 390.457196 237.897842 
L 390.645981 237.7577 
L 391.023553 236.983073 
L 391.967482 234.105246 
L 392.345054 233.617177 
L 392.911411 233.372185 
L 393.666555 233.039888 
L 394.421698 232.508228 
L 394.799269 231.951387 
L 396.309556 228.698724 
L 397.253485 226.535338 
L 397.631057 225.386561 
L 398.008628 223.492219 
L 398.3862 220.417557 
L 398.952558 213.62362 
L 399.707701 201.044683 
L 401.595559 162.553466 
L 404.616132 100.516624 
L 405.371275 92.116553 
L 407.636705 68.326398 
L 408.76942 56.31601 
L 409.713349 47.551916 
L 412.167565 22.631072 
L 412.733922 19.268902 
L 413.677852 15.566788 
L 414.999352 10.420167 
L 415.376924 10.062685 
L 415.56571 10.09677 
L 415.943281 10.543105 
L 416.320853 11.533819 
L 416.698425 13.268844 
L 417.264782 17.271196 
L 419.15264 33.155509 
L 419.907784 41.861784 
L 421.040498 55.7109 
L 421.606856 60.545134 
L 421.984428 62.602704 
L 422.361999 63.418853 
L 422.361999 63.418853 
" clip-path="url(#p56a68a14f3)" style="fill: none; stroke: #009afa"/>
   </g>
   <g id="matplotlib.axis_1">
    <g id="xtick_1">
     <g id="line2d_2">
      <defs>
       <path id="mbb6c59eba5" d="M 0 0 
L 0 -2.5 
" style="stroke: #000000; stroke-width: 0.5"/>
      </defs>
      <g>
       <use xlink:href="#mbb6c59eba5" x="44.790359" y="258.225354" style="stroke: #000000; stroke-width: 0.5"/>
      </g>
     </g>
     <g id="text_1">
      <!-- $0.0$ -->
      <g transform="translate(38.390359 267.804104)scale(0.08 -0.08)">
       <defs>
        <path id="DejaVuSans-30" d="M 2034 4250 
Q 1547 4250 1301 3770 
Q 1056 3291 1056 2328 
Q 1056 1369 1301 889 
Q 1547 409 2034 409 
Q 2525 409 2770 889 
Q 3016 1369 3016 2328 
Q 3016 3291 2770 3770 
Q 2525 4250 2034 4250 
z
M 2034 4750 
Q 2819 4750 3233 4129 
Q 3647 3509 3647 2328 
Q 3647 1150 3233 529 
Q 2819 -91 2034 -91 
Q 1250 -91 836 529 
Q 422 1150 422 2328 
Q 422 3509 836 4129 
Q 1250 4750 2034 4750 
z
" transform="scale(0.015625)"/>
        <path id="DejaVuSans-2e" d="M 684 794 
L 1344 794 
L 1344 0 
L 684 0 
L 684 794 
z
" transform="scale(0.015625)"/>
       </defs>
       <use xlink:href="#DejaVuSans-30" transform="translate(0 0.78125)"/>
       <use xlink:href="#DejaVuSans-2e" transform="translate(63.623047 0.78125)"/>
       <use xlink:href="#DejaVuSans-30" transform="translate(95.410156 0.78125)"/>
      </g>
     </g>
    </g>
    <g id="xtick_2">
     <g id="line2d_3">
      <g>
       <use xlink:href="#mbb6c59eba5" x="139.183269" y="258.225354" style="stroke: #000000; stroke-width: 0.5"/>
      </g>
     </g>
     <g id="text_2">
      <!-- $0.5$ -->
      <g transform="translate(132.783269 267.804104)scale(0.08 -0.08)">
       <defs>
        <path id="DejaVuSans-35" d="M 691 4666 
L 3169 4666 
L 3169 4134 
L 1269 4134 
L 1269 2991 
Q 1406 3038 1543 3061 
Q 1681 3084 1819 3084 
Q 2600 3084 3056 2656 
Q 3513 2228 3513 1497 
Q 3513 744 3044 326 
Q 2575 -91 1722 -91 
Q 1428 -91 1123 -41 
Q 819 9 494 109 
L 494 744 
Q 775 591 1075 516 
Q 1375 441 1709 441 
Q 2250 441 2565 725 
Q 2881 1009 2881 1497 
Q 2881 1984 2565 2268 
Q 2250 2553 1709 2553 
Q 1456 2553 1204 2497 
Q 953 2441 691 2322 
L 691 4666 
z
" transform="scale(0.015625)"/>
       </defs>
       <use xlink:href="#DejaVuSans-30" transform="translate(0 0.78125)"/>
       <use xlink:href="#DejaVuSans-2e" transform="translate(63.623047 0.78125)"/>
       <use xlink:href="#DejaVuSans-35" transform="translate(95.410156 0.78125)"/>
      </g>
     </g>
    </g>
    <g id="xtick_3">
     <g id="line2d_4">
      <g>
       <use xlink:href="#mbb6c59eba5" x="233.576179" y="258.225354" style="stroke: #000000; stroke-width: 0.5"/>
      </g>
     </g>
     <g id="text_3">
      <!-- $1.0$ -->
      <g transform="translate(227.176179 267.804104)scale(0.08 -0.08)">
       <defs>
        <path id="DejaVuSans-31" d="M 794 531 
L 1825 531 
L 1825 4091 
L 703 3866 
L 703 4441 
L 1819 4666 
L 2450 4666 
L 2450 531 
L 3481 531 
L 3481 0 
L 794 0 
L 794 531 
z
" transform="scale(0.015625)"/>
       </defs>
       <use xlink:href="#DejaVuSans-31" transform="translate(0 0.78125)"/>
       <use xlink:href="#DejaVuSans-2e" transform="translate(63.623047 0.78125)"/>
       <use xlink:href="#DejaVuSans-30" transform="translate(95.410156 0.78125)"/>
      </g>
     </g>
    </g>
    <g id="xtick_4">
     <g id="line2d_5">
      <g>
       <use xlink:href="#mbb6c59eba5" x="327.969089" y="258.225354" style="stroke: #000000; stroke-width: 0.5"/>
      </g>
     </g>
     <g id="text_4">
      <!-- $1.5$ -->
      <g transform="translate(321.569089 267.804104)scale(0.08 -0.08)">
       <use xlink:href="#DejaVuSans-31" transform="translate(0 0.09375)"/>
       <use xlink:href="#DejaVuSans-2e" transform="translate(63.623047 0.09375)"/>
       <use xlink:href="#DejaVuSans-35" transform="translate(95.410156 0.09375)"/>
      </g>
     </g>
    </g>
    <g id="xtick_5">
     <g id="line2d_6">
      <g>
       <use xlink:href="#mbb6c59eba5" x="422.361999" y="258.225354" style="stroke: #000000; stroke-width: 0.5"/>
      </g>
     </g>
     <g id="text_5">
      <!-- $2.0$ -->
      <g transform="translate(415.961999 267.804104)scale(0.08 -0.08)">
       <defs>
        <path id="DejaVuSans-32" d="M 1228 531 
L 3431 531 
L 3431 0 
L 469 0 
L 469 531 
Q 828 903 1448 1529 
Q 2069 2156 2228 2338 
Q 2531 2678 2651 2914 
Q 2772 3150 2772 3378 
Q 2772 3750 2511 3984 
Q 2250 4219 1831 4219 
Q 1534 4219 1204 4116 
Q 875 4013 500 3803 
L 500 4441 
Q 881 4594 1212 4672 
Q 1544 4750 1819 4750 
Q 2544 4750 2975 4387 
Q 3406 4025 3406 3419 
Q 3406 3131 3298 2873 
Q 3191 2616 2906 2266 
Q 2828 2175 2409 1742 
Q 1991 1309 1228 531 
z
" transform="scale(0.015625)"/>
       </defs>
       <use xlink:href="#DejaVuSans-32" transform="translate(0 0.78125)"/>
       <use xlink:href="#DejaVuSans-2e" transform="translate(63.623047 0.78125)"/>
       <use xlink:href="#DejaVuSans-30" transform="translate(95.410156 0.78125)"/>
      </g>
     </g>
    </g>
    <g id="text_6">
     <!-- Time (s) -->
     <g transform="translate(211.214382 281.826136)scale(0.11 -0.11)">
      <defs>
       <path id="DejaVuSans-54" d="M -19 4666 
L 3928 4666 
L 3928 4134 
L 2272 4134 
L 2272 0 
L 1638 0 
L 1638 4134 
L -19 4134 
L -19 4666 
z
" transform="scale(0.015625)"/>
       <path id="DejaVuSans-69" d="M 603 3500 
L 1178 3500 
L 1178 0 
L 603 0 
L 603 3500 
z
M 603 4863 
L 1178 4863 
L 1178 4134 
L 603 4134 
L 603 4863 
z
" transform="scale(0.015625)"/>
       <path id="DejaVuSans-6d" d="M 3328 2828 
Q 3544 3216 3844 3400 
Q 4144 3584 4550 3584 
Q 5097 3584 5394 3201 
Q 5691 2819 5691 2113 
L 5691 0 
L 5113 0 
L 5113 2094 
Q 5113 2597 4934 2840 
Q 4756 3084 4391 3084 
Q 3944 3084 3684 2787 
Q 3425 2491 3425 1978 
L 3425 0 
L 2847 0 
L 2847 2094 
Q 2847 2600 2669 2842 
Q 2491 3084 2119 3084 
Q 1678 3084 1418 2786 
Q 1159 2488 1159 1978 
L 1159 0 
L 581 0 
L 581 3500 
L 1159 3500 
L 1159 2956 
Q 1356 3278 1631 3431 
Q 1906 3584 2284 3584 
Q 2666 3584 2933 3390 
Q 3200 3197 3328 2828 
z
" transform="scale(0.015625)"/>
       <path id="DejaVuSans-65" d="M 3597 1894 
L 3597 1613 
L 953 1613 
Q 991 1019 1311 708 
Q 1631 397 2203 397 
Q 2534 397 2845 478 
Q 3156 559 3463 722 
L 3463 178 
Q 3153 47 2828 -22 
Q 2503 -91 2169 -91 
Q 1331 -91 842 396 
Q 353 884 353 1716 
Q 353 2575 817 3079 
Q 1281 3584 2069 3584 
Q 2775 3584 3186 3129 
Q 3597 2675 3597 1894 
z
M 3022 2063 
Q 3016 2534 2758 2815 
Q 2500 3097 2075 3097 
Q 1594 3097 1305 2825 
Q 1016 2553 972 2059 
L 3022 2063 
z
" transform="scale(0.015625)"/>
       <path id="DejaVuSans-20" transform="scale(0.015625)"/>
       <path id="DejaVuSans-28" d="M 1984 4856 
Q 1566 4138 1362 3434 
Q 1159 2731 1159 2009 
Q 1159 1288 1364 580 
Q 1569 -128 1984 -844 
L 1484 -844 
Q 1016 -109 783 600 
Q 550 1309 550 2009 
Q 550 2706 781 3412 
Q 1013 4119 1484 4856 
L 1984 4856 
z
" transform="scale(0.015625)"/>
       <path id="DejaVuSans-73" d="M 2834 3397 
L 2834 2853 
Q 2591 2978 2328 3040 
Q 2066 3103 1784 3103 
Q 1356 3103 1142 2972 
Q 928 2841 928 2578 
Q 928 2378 1081 2264 
Q 1234 2150 1697 2047 
L 1894 2003 
Q 2506 1872 2764 1633 
Q 3022 1394 3022 966 
Q 3022 478 2636 193 
Q 2250 -91 1575 -91 
Q 1294 -91 989 -36 
Q 684 19 347 128 
L 347 722 
Q 666 556 975 473 
Q 1284 391 1588 391 
Q 1994 391 2212 530 
Q 2431 669 2431 922 
Q 2431 1156 2273 1281 
Q 2116 1406 1581 1522 
L 1381 1569 
Q 847 1681 609 1914 
Q 372 2147 372 2553 
Q 372 3047 722 3315 
Q 1072 3584 1716 3584 
Q 2034 3584 2315 3537 
Q 2597 3491 2834 3397 
z
" transform="scale(0.015625)"/>
       <path id="DejaVuSans-29" d="M 513 4856 
L 1013 4856 
Q 1481 4119 1714 3412 
Q 1947 2706 1947 2009 
Q 1947 1309 1714 600 
Q 1481 -109 1013 -844 
L 513 -844 
Q 928 -128 1133 580 
Q 1338 1288 1338 2009 
Q 1338 2731 1133 3434 
Q 928 4138 513 4856 
z
" transform="scale(0.015625)"/>
      </defs>
      <use xlink:href="#DejaVuSans-54"/>
      <use xlink:href="#DejaVuSans-69" x="57.958984"/>
      <use xlink:href="#DejaVuSans-6d" x="85.742188"/>
      <use xlink:href="#DejaVuSans-65" x="183.154297"/>
      <use xlink:href="#DejaVuSans-20" x="244.677734"/>
      <use xlink:href="#DejaVuSans-28" x="276.464844"/>
      <use xlink:href="#DejaVuSans-73" x="315.478516"/>
      <use xlink:href="#DejaVuSans-29" x="367.578125"/>
     </g>
    </g>
   </g>
   <g id="matplotlib.axis_2">
    <g id="ytick_1">
     <g id="line2d_7">
      <defs>
       <path id="m8cd18594a7" d="M 0 0 
L 2.5 0 
" style="stroke: #000000; stroke-width: 0.5"/>
      </defs>
      <g>
       <use xlink:href="#m8cd18594a7" x="44.790359" y="244.702765" style="stroke: #000000; stroke-width: 0.5"/>
      </g>
     </g>
     <g id="text_7">
      <!-- $-0.2$ -->
      <g transform="translate(22.250359 247.74214)scale(0.08 -0.08)">
       <defs>
        <path id="DejaVuSans-2212" d="M 678 2272 
L 4684 2272 
L 4684 1741 
L 678 1741 
L 678 2272 
z
" transform="scale(0.015625)"/>
       </defs>
       <use xlink:href="#DejaVuSans-2212" transform="translate(0 0.78125)"/>
       <use xlink:href="#DejaVuSans-30" transform="translate(83.789062 0.78125)"/>
       <use xlink:href="#DejaVuSans-2e" transform="translate(147.412109 0.78125)"/>
       <use xlink:href="#DejaVuSans-32" transform="translate(173.699219 0.78125)"/>
      </g>
     </g>
    </g>
    <g id="ytick_2">
     <g id="line2d_8">
      <g>
       <use xlink:href="#m8cd18594a7" x="44.790359" y="183.875896" style="stroke: #000000; stroke-width: 0.5"/>
      </g>
     </g>
     <g id="text_8">
      <!-- $0.0$ -->
      <g transform="translate(28.490359 186.915271)scale(0.08 -0.08)">
       <use xlink:href="#DejaVuSans-30" transform="translate(0 0.78125)"/>
       <use xlink:href="#DejaVuSans-2e" transform="translate(63.623047 0.78125)"/>
       <use xlink:href="#DejaVuSans-30" transform="translate(95.410156 0.78125)"/>
      </g>
     </g>
    </g>
    <g id="ytick_3">
     <g id="line2d_9">
      <g>
       <use xlink:href="#m8cd18594a7" x="44.790359" y="123.049027" style="stroke: #000000; stroke-width: 0.5"/>
      </g>
     </g>
     <g id="text_9">
      <!-- $0.2$ -->
      <g transform="translate(28.970359 126.088402)scale(0.08 -0.08)">
       <use xlink:href="#DejaVuSans-30" transform="translate(0 0.78125)"/>
       <use xlink:href="#DejaVuSans-2e" transform="translate(63.623047 0.78125)"/>
       <use xlink:href="#DejaVuSans-32" transform="translate(89.910156 0.78125)"/>
      </g>
     </g>
    </g>
    <g id="ytick_4">
     <g id="line2d_10">
      <g>
       <use xlink:href="#m8cd18594a7" x="44.790359" y="62.222159" style="stroke: #000000; stroke-width: 0.5"/>
      </g>
     </g>
     <g id="text_10">
      <!-- $0.4$ -->
      <g transform="translate(28.490359 65.261534)scale(0.08 -0.08)">
       <defs>
        <path id="DejaVuSans-34" d="M 2419 4116 
L 825 1625 
L 2419 1625 
L 2419 4116 
z
M 2253 4666 
L 3047 4666 
L 3047 1625 
L 3713 1625 
L 3713 1100 
L 3047 1100 
L 3047 0 
L 2419 0 
L 2419 1100 
L 313 1100 
L 313 1709 
L 2253 4666 
z
" transform="scale(0.015625)"/>
       </defs>
       <use xlink:href="#DejaVuSans-30" transform="translate(0 0.78125)"/>
       <use xlink:href="#DejaVuSans-2e" transform="translate(63.623047 0.78125)"/>
       <use xlink:href="#DejaVuSans-34" transform="translate(95.410156 0.78125)"/>
      </g>
     </g>
    </g>
    <g id="text_11">
     <!-- $u_y$ ($m$) -->
     <g transform="translate(14.840359 147.855)rotate(-90)scale(0.11 -0.11)">
      <defs>
       <path id="DejaVuSans-Oblique-75" d="M 428 1388 
L 838 3500 
L 1416 3500 
L 1006 1409 
Q 975 1256 961 1147 
Q 947 1038 947 966 
Q 947 700 1109 554 
Q 1272 409 1569 409 
Q 2031 409 2368 721 
Q 2706 1034 2809 1563 
L 3194 3500 
L 3769 3500 
L 3091 0 
L 2516 0 
L 2631 550 
Q 2388 244 2052 76 
Q 1716 -91 1338 -91 
Q 878 -91 622 161 
Q 366 413 366 863 
Q 366 956 381 1097 
Q 397 1238 428 1388 
z
" transform="scale(0.015625)"/>
       <path id="DejaVuSans-Oblique-79" d="M 1588 -325 
Q 1188 -997 936 -1164 
Q 684 -1331 294 -1331 
L -159 -1331 
L -63 -850 
L 269 -850 
Q 509 -850 678 -719 
Q 847 -588 1056 -206 
L 1234 128 
L 459 3500 
L 1069 3500 
L 1650 819 
L 3256 3500 
L 3859 3500 
L 1588 -325 
z
" transform="scale(0.015625)"/>
       <path id="DejaVuSans-Oblique-6d" d="M 5747 2113 
L 5338 0 
L 4763 0 
L 5166 2094 
Q 5191 2228 5203 2325 
Q 5216 2422 5216 2491 
Q 5216 2772 5059 2928 
Q 4903 3084 4622 3084 
Q 4203 3084 3875 2770 
Q 3547 2456 3450 1953 
L 3066 0 
L 2491 0 
L 2900 2094 
Q 2925 2209 2937 2307 
Q 2950 2406 2950 2484 
Q 2950 2769 2794 2926 
Q 2638 3084 2363 3084 
Q 1938 3084 1609 2770 
Q 1281 2456 1184 1953 
L 800 0 
L 225 0 
L 909 3500 
L 1484 3500 
L 1375 2956 
Q 1609 3263 1923 3423 
Q 2238 3584 2597 3584 
Q 2978 3584 3223 3384 
Q 3469 3184 3519 2828 
Q 3781 3197 4126 3390 
Q 4472 3584 4856 3584 
Q 5306 3584 5551 3325 
Q 5797 3066 5797 2591 
Q 5797 2488 5784 2364 
Q 5772 2241 5747 2113 
z
" transform="scale(0.015625)"/>
      </defs>
      <use xlink:href="#DejaVuSans-Oblique-75" transform="translate(0 0.125)"/>
      <use xlink:href="#DejaVuSans-Oblique-79" transform="translate(63.378906 -16.28125)scale(0.7)"/>
      <use xlink:href="#DejaVuSans-20" transform="translate(107.539062 0.125)"/>
      <use xlink:href="#DejaVuSans-28" transform="translate(139.326172 0.125)"/>
      <use xlink:href="#DejaVuSans-Oblique-6d" transform="translate(178.339844 0.125)"/>
      <use xlink:href="#DejaVuSans-29" transform="translate(275.751953 0.125)"/>
     </g>
    </g>
   </g>
   <g id="patch_3">
    <path d="M 44.790359 258.225354 
L 44.790359 2.834646 
" style="fill: none; stroke: #000000; stroke-linejoin: miter; stroke-linecap: square"/>
   </g>
   <g id="patch_4">
    <path d="M 44.790359 258.225354 
L 422.361999 258.225354 
" style="fill: none; stroke: #000000; stroke-linejoin: miter; stroke-linecap: square"/>
   </g>
  </g>
 </g>
 <defs>
  <clipPath id="p56a68a14f3">
   <rect x="44.790359" y="2.834646" width="377.57164" height="255.390709"/>
  </clipPath>
 </defs>
</svg>
