<?xml version="1.0" encoding="utf-8" standalone="no"?>
<!DOCTYPE svg PUBLIC "-//W3C//DTD SVG 1.1//EN"
  "http://www.w3.org/Graphics/SVG/1.1/DTD/svg11.dtd">
<svg xmlns:xlink="http://www.w3.org/1999/xlink" width="432pt" height="288pt" viewBox="0 0 432 288" xmlns="http://www.w3.org/2000/svg" version="1.1">
 <metadata>
  <rdf:RDF xmlns:dc="http://purl.org/dc/elements/1.1/" xmlns:cc="http://creativecommons.org/ns#" xmlns:rdf="http://www.w3.org/1999/02/22-rdf-syntax-ns#">
   <cc:Work>
    <dc:type rdf:resource="http://purl.org/dc/dcmitype/StillImage"/>
    <dc:date>2022-10-27T16:43:51.218557</dc:date>
    <dc:format>image/svg+xml</dc:format>
    <dc:creator>
     <cc:Agent>
      <dc:title>Matplotlib v3.6.1, https://matplotlib.org/</dc:title>
     </cc:Agent>
    </dc:creator>
   </cc:Work>
  </rdf:RDF>
 </metadata>
 <defs>
  <style type="text/css">*{stroke-linejoin: round; stroke-linecap: butt}</style>
 </defs>
 <g id="figure_1">
  <g id="patch_1">
   <path d="M 0 288 
L 432 288 
L 432 0 
L 0 0 
z
" style="fill: #ffffff"/>
  </g>
  <g id="axes_1">
   <g id="patch_2">
    <path d="M 41.781593 258.225354 
L 422.361999 258.225354 
L 422.361999 2.834646 
L 41.781593 2.834646 
z
" style="fill: #ffffff"/>
   </g>
   <g id="line2d_1">
    <path d="M 41.781593 132.952689 
L 42.923334 133.076657 
L 44.065075 133.46198 
L 45.206816 134.121455 
L 46.348558 135.033818 
L 47.680589 136.381321 
L 49.393201 138.598475 
L 50.915522 140.89506 
L 53.199005 144.864881 
L 58.33684 154.617509 
L 60.049452 157.699508 
L 61.381484 159.65001 
L 63.094095 161.683638 
L 65.758158 164.606425 
L 66.8999 165.535296 
L 67.851351 166.034704 
L 68.612511 166.165189 
L 69.373672 166.031623 
L 69.944543 165.706335 
L 70.705704 164.99194 
L 71.657155 163.759529 
L 72.608606 162.105869 
L 73.560057 160.014379 
L 74.892088 156.430463 
L 76.41441 151.50289 
L 78.317312 144.559976 
L 80.981375 133.854708 
L 83.455147 123.986813 
L 85.167759 118.095687 
L 87.260951 111.817976 
L 90.115304 104.123555 
L 91.637626 100.529849 
L 92.589077 98.810447 
L 93.540528 97.474719 
L 94.301689 96.696709 
L 95.06285 96.210167 
L 95.63372 96.072947 
L 96.204591 96.121981 
L 96.775461 96.361256 
L 97.346332 96.814675 
L 98.107493 97.712769 
L 99.058944 99.235652 
L 100.010395 101.234104 
L 101.152136 104.169634 
L 102.484168 108.174586 
L 104.38707 114.829052 
L 109.144325 132.239682 
L 111.237517 138.593925 
L 114.09187 146.498558 
L 117.707384 155.3502 
L 120.561737 162.401715 
L 122.464639 167.954454 
L 123.986961 173.136151 
L 127.792765 186.736799 
L 128.553925 188.636354 
L 129.315086 189.979428 
L 129.885957 190.564052 
L 130.456827 190.793919 
L 131.027698 190.716453 
L 131.598569 190.320782 
L 132.169439 189.594048 
L 132.9306 188.145635 
L 133.691761 186.193038 
L 134.643212 183.077255 
L 135.784953 178.399946 
L 137.116985 171.888207 
L 138.449016 164.167494 
L 139.971338 153.841518 
L 141.87424 139.159342 
L 145.489753 110.81639 
L 147.012075 101.09204 
L 148.344107 94.086744 
L 149.485848 89.346284 
L 150.437299 86.286762 
L 151.19846 84.458134 
L 151.76933 83.489282 
L 152.340201 82.877009 
L 152.911071 82.583247 
L 153.481942 82.574204 
L 154.052813 82.866474 
L 154.623683 83.434789 
L 155.384844 84.516602 
L 158.429487 89.468326 
L 159.000358 89.882168 
L 159.571229 90.053847 
L 160.142099 89.964441 
L 160.90326 89.491566 
L 162.996452 87.761885 
L 163.567323 87.651103 
L 163.947903 87.761351 
L 164.328484 88.073526 
L 164.899354 88.961914 
L 165.470225 90.369187 
L 166.041095 92.314191 
L 166.802256 95.757566 
L 167.753707 101.274599 
L 168.895448 109.402997 
L 170.41777 122.203972 
L 173.842994 151.84003 
L 175.175025 161.415209 
L 176.126476 166.973219 
L 177.077927 171.221202 
L 177.839088 173.547344 
L 178.409959 174.581727 
L 178.790539 174.911351 
L 179.171119 174.954591 
L 179.5517 174.716456 
L 179.93228 174.222573 
L 180.503151 173.070307 
L 181.264312 170.824548 
L 183.738084 162.568329 
L 184.118665 162.007043 
L 184.499245 161.841932 
L 184.879826 162.14187 
L 185.260406 162.931849 
L 185.640986 164.257011 
L 186.211857 167.251635 
L 186.782728 171.360513 
L 187.543888 178.450499 
L 188.87592 193.530111 
L 190.207951 207.911689 
L 190.969112 213.968643 
L 191.539983 216.956575 
L 191.920563 218.083853 
L 192.301143 218.511501 
L 192.491434 218.464516 
L 192.872014 217.865436 
L 193.252594 216.609747 
L 193.823465 213.578914 
L 194.584626 207.839468 
L 195.916657 195.341433 
L 197.248689 183.578669 
L 198.00985 178.402092 
L 198.77101 174.522063 
L 199.532171 171.581972 
L 200.673912 168.167451 
L 202.005944 164.889163 
L 202.767105 163.455729 
L 203.337975 162.828771 
L 203.718556 162.661923 
L 204.099136 162.702807 
L 204.670007 163.061991 
L 206.192328 164.586274 
L 206.572909 164.605904 
L 206.953489 164.292658 
L 207.33407 163.574389 
L 207.71465 162.358044 
L 208.285521 159.565118 
L 208.856391 155.545947 
L 209.617552 148.302114 
L 210.569003 136.803116 
L 213.613646 97.690076 
L 214.374807 91.062164 
L 214.945678 87.67764 
L 215.326258 86.254031 
L 215.706838 85.568315 
L 215.897129 85.488567 
L 216.087419 85.572934 
L 216.467999 86.226929 
L 216.84858 87.486324 
L 217.41945 90.250836 
L 219.322352 100.529949 
L 219.702933 101.369092 
L 219.893223 101.49829 
L 220.083513 101.427046 
L 220.464094 100.705357 
L 220.844674 99.239779 
L 221.415545 95.910307 
L 223.508737 82.000253 
L 224.079607 80.270546 
L 224.460188 79.828222 
L 224.650478 79.808777 
L 225.031058 80.094033 
L 225.601929 81.099914 
L 226.74367 83.441208 
L 227.124251 83.681606 
L 227.314541 83.629148 
L 227.695121 83.125673 
L 228.075702 82.045785 
L 228.646572 79.440089 
L 229.407733 74.533835 
L 231.120345 63.09046 
L 231.691216 60.982888 
L 232.071796 60.372509 
L 232.262086 60.313695 
L 232.452376 60.4244 
L 232.832957 61.151499 
L 233.213537 62.522481 
L 233.784408 65.631826 
L 234.545569 71.385071 
L 235.49702 80.504615 
L 237.019341 97.867959 
L 238.161082 110.270886 
L 238.922243 116.603771 
L 239.493114 119.997695 
L 240.063984 122.299322 
L 240.634855 123.56464 
L 241.015436 123.963683 
L 241.586306 124.158687 
L 242.157177 124.355012 
L 242.537757 124.734083 
L 242.918338 125.517822 
L 243.298918 126.886823 
L 243.679498 128.957483 
L 244.250369 133.524038 
L 245.01153 142.25202 
L 245.962981 156.662368 
L 249.197914 210.578805 
L 249.959075 218.460436 
L 250.720236 223.994277 
L 251.291106 226.766809 
L 251.861977 228.364802 
L 252.242558 228.705274 
L 252.432848 228.639952 
L 252.813428 228.029417 
L 253.194009 226.702387 
L 253.764879 223.393373 
L 254.33575 218.717366 
L 255.096911 210.636697 
L 256.238652 195.6849 
L 257.380393 181.344425 
L 257.951264 176.553292 
L 258.331844 174.706967 
L 258.712424 174.034483 
L 258.902715 174.147836 
L 259.093005 174.570501 
L 259.473585 176.341543 
L 259.854166 179.248545 
L 260.425036 185.46801 
L 261.376487 199.430758 
L 262.898809 223.011323 
L 263.469679 229.241523 
L 264.04055 232.958106 
L 264.421131 234.016345 
L 264.611421 234.135 
L 264.801711 233.987584 
L 265.182291 232.941398 
L 265.562872 230.920533 
L 266.133742 226.077021 
L 266.894903 216.669214 
L 268.036644 198.338359 
L 269.749256 170.436111 
L 270.700707 158.168491 
L 271.652158 148.742362 
L 272.603609 141.618954 
L 274.125931 132.442392 
L 275.077382 127.447797 
L 275.648253 125.503733 
L 276.028833 124.877584 
L 276.219123 124.807727 
L 276.409413 124.908806 
L 276.789994 125.641671 
L 277.170574 127.177834 
L 277.741445 131.085819 
L 278.312315 136.914123 
L 279.073476 147.312228 
L 281.927829 190.505212 
L 282.4987 195.478118 
L 283.06957 198.451358 
L 283.450151 199.284461 
L 283.640441 199.363853 
L 283.830731 199.211969 
L 284.211312 198.217472 
L 284.591892 196.349487 
L 285.162763 192.084007 
L 285.923923 184.403678 
L 286.875375 172.510463 
L 288.017116 155.276413 
L 289.349147 131.382661 
L 290.681179 103.500056 
L 292.774371 58.555049 
L 293.535532 47.640285 
L 294.106402 42.926804 
L 294.486983 41.442526 
L 294.677273 41.162176 
L 294.867563 41.170891 
L 295.057853 41.447882 
L 295.438434 42.728482 
L 295.819014 44.896083 
L 296.389885 49.554218 
L 297.151045 57.781499 
L 298.102496 70.543509 
L 300.766559 109.478835 
L 301.33743 113.808411 
L 301.71801 115.06017 
L 301.908301 115.158415 
L 302.098591 114.903074 
L 302.479171 113.36643 
L 302.859752 110.595669 
L 303.430622 104.588508 
L 304.382073 91.565507 
L 305.904395 70.45222 
L 306.665556 62.3864 
L 307.426716 56.570554 
L 307.997587 53.788901 
L 308.378167 52.763755 
L 308.758748 52.302178 
L 309.139328 52.202333 
L 309.519909 52.149782 
L 309.900489 51.797673 
L 310.28107 50.893851 
L 310.66165 49.28062 
L 311.232521 45.531581 
L 311.993681 38.752718 
L 313.135423 28.145431 
L 313.516003 25.801341 
L 313.896583 24.609945 
L 314.086874 24.495991 
L 314.277164 24.724434 
L 314.467454 25.307629 
L 314.848034 27.570358 
L 315.228615 31.342436 
L 315.799485 39.982499 
L 316.370356 52.202224 
L 317.512097 83.540401 
L 318.463548 107.800763 
L 319.034419 118.249679 
L 319.414999 122.678582 
L 319.79558 124.63784 
L 319.98587 124.605049 
L 320.17616 123.886078 
L 320.55674 120.504449 
L 321.127611 111.426344 
L 322.079062 90.474706 
L 323.411094 60.835349 
L 323.981964 52.814328 
L 324.362545 50.369894 
L 324.552835 50.119672 
L 324.743125 50.531592 
L 325.123705 53.240872 
L 325.504286 58.11858 
L 326.075156 68.875083 
L 326.646027 83.702767 
L 327.597478 116.292704 
L 328.929509 162.169787 
L 329.50038 174.779075 
L 329.88096 179.713315 
L 330.261541 181.854647 
L 330.451831 181.897433 
L 330.642121 181.266596 
L 331.022702 178.170995 
L 331.783862 167.946076 
L 332.354733 160.920676 
L 332.925604 156.654979 
L 333.306184 155.457252 
L 333.496474 155.379916 
L 333.686765 155.664159 
L 334.067345 157.307266 
L 334.447925 160.347319 
L 335.018796 167.384549 
L 335.970247 183.59588 
L 337.111988 202.483065 
L 337.873149 212.063658 
L 338.44402 216.438982 
L 338.8246 217.794103 
L 339.01489 218.045509 
L 339.20518 218.02357 
L 339.395471 217.716165 
L 339.776051 216.216391 
L 340.156631 213.606528 
L 340.727502 207.790726 
L 341.488663 196.91861 
L 342.440114 183.208317 
L 342.820694 180.491753 
L 343.010984 179.939739 
L 343.201275 179.87933 
L 343.391565 180.236784 
L 343.772145 181.863687 
L 344.343016 185.77499 
L 345.294467 194.417736 
L 346.055628 203.215393 
L 347.007079 216.91358 
L 348.909981 246.327207 
L 349.290561 248.616969 
L 349.480851 249.095968 
L 349.671142 249.172314 
L 349.861432 248.868014 
L 350.242012 247.236488 
L 350.622593 244.436667 
L 351.193463 238.428287 
L 351.954624 227.184013 
L 353.096365 208.650079 
L 353.667236 202.934398 
L 354.238106 199.722724 
L 354.428397 199.199079 
L 354.618687 199.005317 
L 354.808977 199.16718 
L 354.999267 199.689685 
L 355.379848 201.764765 
L 355.950718 207.15289 
L 356.711879 217.538782 
L 358.234201 239.917792 
L 358.614781 243.392546 
L 358.805071 244.327165 
L 358.995362 244.612674 
L 359.185652 244.214308 
L 359.566232 241.455885 
L 360.137103 233.850499 
L 361.469134 215.034167 
L 362.420585 205.254911 
L 362.991456 201.272675 
L 363.372036 200.054291 
L 363.562326 199.980367 
L 363.752617 200.235375 
L 364.133197 201.413283 
L 365.465228 206.879334 
L 366.79726 213.526957 
L 367.17784 214.363302 
L 367.558421 214.651 
L 367.748711 214.585131 
L 367.939001 214.341547 
L 368.319581 213.157568 
L 368.700162 210.674275 
L 369.080742 206.332042 
L 369.651613 195.655289 
L 370.793354 165.770763 
L 371.554515 149.293171 
L 372.125386 141.157781 
L 372.886546 133.863099 
L 373.647707 128.794412 
L 374.028288 127.271822 
L 374.408868 126.566907 
L 374.599158 126.545989 
L 374.789448 126.792977 
L 374.979739 127.371671 
L 375.360319 129.762429 
L 375.740899 134.063522 
L 376.50206 147.076696 
L 377.263221 159.393743 
L 377.643801 162.830646 
L 377.834092 163.5732 
L 378.024382 163.656337 
L 378.214672 163.125826 
L 378.595252 160.49179 
L 379.166123 153.662335 
L 379.736994 143.58544 
L 380.498155 124.001229 
L 382.210766 77.809516 
L 382.971927 61.986498 
L 383.542798 54.287092 
L 384.113668 49.446318 
L 384.303959 48.682174 
L 384.494249 48.439774 
L 384.684539 48.694834 
L 385.065119 50.308191 
L 385.63599 54.205738 
L 386.01657 57.904269 
L 386.587441 66.036332 
L 387.158312 74.171785 
L 387.538892 77.385786 
L 387.729182 78.200649 
L 387.919472 78.520744 
L 388.109763 78.369814 
L 388.300053 77.751471 
L 388.680633 75.018387 
L 389.251504 67.779427 
L 390.393245 49.686201 
L 391.344696 32.904709 
L 391.725277 28.988655 
L 392.296147 25.603367 
L 392.676728 24.029178 
L 392.867018 23.551446 
L 393.057308 23.38884 
L 393.247598 23.599927 
L 393.437888 24.201984 
L 393.818469 26.454694 
L 394.389339 31.542211 
L 394.96021 38.631382 
L 396.292241 56.543724 
L 397.053402 64.035136 
L 397.243692 65.016799 
L 397.433983 65.38117 
L 397.624273 65.032776 
L 397.814563 63.922322 
L 398.195143 59.445497 
L 398.766014 48.541462 
L 400.098045 21.39325 
L 400.668916 14.240117 
L 401.049496 11.667735 
L 401.430077 10.433831 
L 401.810657 10.062685 
L 402.000947 10.188406 
L 402.381528 11.099852 
L 402.762108 12.778068 
L 403.523269 17.615336 
L 403.90385 21.196333 
L 404.47472 29.423627 
L 405.235881 44.589191 
L 406.567912 72.746262 
L 407.138783 80.926692 
L 407.519363 84.521811 
L 407.899944 86.113451 
L 408.090234 86.113912 
L 408.280524 85.615695 
L 408.661105 83.32721 
L 409.612556 76.244407 
L 410.754297 69.642921 
L 411.325167 64.810777 
L 413.037779 46.727236 
L 413.41836 44.797742 
L 413.60865 44.22282 
L 413.79894 44.025081 
L 413.98923 44.295306 
L 414.17952 45.100628 
L 414.560101 48.248432 
L 415.130972 55.564046 
L 416.843583 79.225422 
L 417.224164 82.078444 
L 417.604744 83.459464 
L 417.985325 83.899526 
L 418.175615 83.821064 
L 418.365905 83.495336 
L 418.746485 82.076361 
L 419.317356 79.609052 
L 419.507646 79.359355 
L 419.697936 79.663096 
L 419.888227 80.589926 
L 420.268807 84.069727 
L 420.839678 91.42308 
L 421.410548 101.525153 
L 422.361999 121.423234 
L 422.361999 121.423234 
" clip-path="url(#p658d2a3c88)" style="fill: none; stroke: #009afa"/>
   </g>
   <g id="matplotlib.axis_1">
    <g id="xtick_1">
     <g id="line2d_2">
      <defs>
       <path id="me8605e77a9" d="M 0 0 
L 0 -2.5 
" style="stroke: #000000; stroke-width: 0.5"/>
      </defs>
      <g>
       <use xlink:href="#me8605e77a9" x="41.781593" y="258.225354" style="stroke: #000000; stroke-width: 0.5"/>
      </g>
     </g>
     <g id="text_1">
      <!-- $0.0$ -->
      <g transform="translate(35.381593 267.804104) scale(0.08 -0.08)">
       <defs>
        <path id="DejaVuSans-30" d="M 2034 4250 
Q 1547 4250 1301 3770 
Q 1056 3291 1056 2328 
Q 1056 1369 1301 889 
Q 1547 409 2034 409 
Q 2525 409 2770 889 
Q 3016 1369 3016 2328 
Q 3016 3291 2770 3770 
Q 2525 4250 2034 4250 
z
M 2034 4750 
Q 2819 4750 3233 4129 
Q 3647 3509 3647 2328 
Q 3647 1150 3233 529 
Q 2819 -91 2034 -91 
Q 1250 -91 836 529 
Q 422 1150 422 2328 
Q 422 3509 836 4129 
Q 1250 4750 2034 4750 
z
" transform="scale(0.015625)"/>
        <path id="DejaVuSans-2e" d="M 684 794 
L 1344 794 
L 1344 0 
L 684 0 
L 684 794 
z
" transform="scale(0.015625)"/>
       </defs>
       <use xlink:href="#DejaVuSans-30" transform="translate(0 0.78125)"/>
       <use xlink:href="#DejaVuSans-2e" transform="translate(63.623047 0.78125)"/>
       <use xlink:href="#DejaVuSans-30" transform="translate(95.410156 0.78125)"/>
      </g>
     </g>
    </g>
    <g id="xtick_2">
     <g id="line2d_3">
      <g>
       <use xlink:href="#me8605e77a9" x="136.926694" y="258.225354" style="stroke: #000000; stroke-width: 0.5"/>
      </g>
     </g>
     <g id="text_2">
      <!-- $0.5$ -->
      <g transform="translate(130.526694 267.804104) scale(0.08 -0.08)">
       <defs>
        <path id="DejaVuSans-35" d="M 691 4666 
L 3169 4666 
L 3169 4134 
L 1269 4134 
L 1269 2991 
Q 1406 3038 1543 3061 
Q 1681 3084 1819 3084 
Q 2600 3084 3056 2656 
Q 3513 2228 3513 1497 
Q 3513 744 3044 326 
Q 2575 -91 1722 -91 
Q 1428 -91 1123 -41 
Q 819 9 494 109 
L 494 744 
Q 775 591 1075 516 
Q 1375 441 1709 441 
Q 2250 441 2565 725 
Q 2881 1009 2881 1497 
Q 2881 1984 2565 2268 
Q 2250 2553 1709 2553 
Q 1456 2553 1204 2497 
Q 953 2441 691 2322 
L 691 4666 
z
" transform="scale(0.015625)"/>
       </defs>
       <use xlink:href="#DejaVuSans-30" transform="translate(0 0.78125)"/>
       <use xlink:href="#DejaVuSans-2e" transform="translate(63.623047 0.78125)"/>
       <use xlink:href="#DejaVuSans-35" transform="translate(95.410156 0.78125)"/>
      </g>
     </g>
    </g>
    <g id="xtick_3">
     <g id="line2d_4">
      <g>
       <use xlink:href="#me8605e77a9" x="232.071796" y="258.225354" style="stroke: #000000; stroke-width: 0.5"/>
      </g>
     </g>
     <g id="text_3">
      <!-- $1.0$ -->
      <g transform="translate(225.671796 267.804104) scale(0.08 -0.08)">
       <defs>
        <path id="DejaVuSans-31" d="M 794 531 
L 1825 531 
L 1825 4091 
L 703 3866 
L 703 4441 
L 1819 4666 
L 2450 4666 
L 2450 531 
L 3481 531 
L 3481 0 
L 794 0 
L 794 531 
z
" transform="scale(0.015625)"/>
       </defs>
       <use xlink:href="#DejaVuSans-31" transform="translate(0 0.78125)"/>
       <use xlink:href="#DejaVuSans-2e" transform="translate(63.623047 0.78125)"/>
       <use xlink:href="#DejaVuSans-30" transform="translate(95.410156 0.78125)"/>
      </g>
     </g>
    </g>
    <g id="xtick_4">
     <g id="line2d_5">
      <g>
       <use xlink:href="#me8605e77a9" x="327.216898" y="258.225354" style="stroke: #000000; stroke-width: 0.5"/>
      </g>
     </g>
     <g id="text_4">
      <!-- $1.5$ -->
      <g transform="translate(320.816898 267.804104) scale(0.08 -0.08)">
       <use xlink:href="#DejaVuSans-31" transform="translate(0 0.09375)"/>
       <use xlink:href="#DejaVuSans-2e" transform="translate(63.623047 0.09375)"/>
       <use xlink:href="#DejaVuSans-35" transform="translate(95.410156 0.09375)"/>
      </g>
     </g>
    </g>
    <g id="xtick_5">
     <g id="line2d_6">
      <g>
       <use xlink:href="#me8605e77a9" x="422.361999" y="258.225354" style="stroke: #000000; stroke-width: 0.5"/>
      </g>
     </g>
     <g id="text_5">
      <!-- $2.0$ -->
      <g transform="translate(415.961999 267.804104) scale(0.08 -0.08)">
       <defs>
        <path id="DejaVuSans-32" d="M 1228 531 
L 3431 531 
L 3431 0 
L 469 0 
L 469 531 
Q 828 903 1448 1529 
Q 2069 2156 2228 2338 
Q 2531 2678 2651 2914 
Q 2772 3150 2772 3378 
Q 2772 3750 2511 3984 
Q 2250 4219 1831 4219 
Q 1534 4219 1204 4116 
Q 875 4013 500 3803 
L 500 4441 
Q 881 4594 1212 4672 
Q 1544 4750 1819 4750 
Q 2544 4750 2975 4387 
Q 3406 4025 3406 3419 
Q 3406 3131 3298 2873 
Q 3191 2616 2906 2266 
Q 2828 2175 2409 1742 
Q 1991 1309 1228 531 
z
" transform="scale(0.015625)"/>
       </defs>
       <use xlink:href="#DejaVuSans-32" transform="translate(0 0.78125)"/>
       <use xlink:href="#DejaVuSans-2e" transform="translate(63.623047 0.78125)"/>
       <use xlink:href="#DejaVuSans-30" transform="translate(95.410156 0.78125)"/>
      </g>
     </g>
    </g>
    <g id="text_6">
     <!-- Time (s) -->
     <g transform="translate(209.709999 281.826136) scale(0.11 -0.11)">
      <defs>
       <path id="DejaVuSans-54" d="M -19 4666 
L 3928 4666 
L 3928 4134 
L 2272 4134 
L 2272 0 
L 1638 0 
L 1638 4134 
L -19 4134 
L -19 4666 
z
" transform="scale(0.015625)"/>
       <path id="DejaVuSans-69" d="M 603 3500 
L 1178 3500 
L 1178 0 
L 603 0 
L 603 3500 
z
M 603 4863 
L 1178 4863 
L 1178 4134 
L 603 4134 
L 603 4863 
z
" transform="scale(0.015625)"/>
       <path id="DejaVuSans-6d" d="M 3328 2828 
Q 3544 3216 3844 3400 
Q 4144 3584 4550 3584 
Q 5097 3584 5394 3201 
Q 5691 2819 5691 2113 
L 5691 0 
L 5113 0 
L 5113 2094 
Q 5113 2597 4934 2840 
Q 4756 3084 4391 3084 
Q 3944 3084 3684 2787 
Q 3425 2491 3425 1978 
L 3425 0 
L 2847 0 
L 2847 2094 
Q 2847 2600 2669 2842 
Q 2491 3084 2119 3084 
Q 1678 3084 1418 2786 
Q 1159 2488 1159 1978 
L 1159 0 
L 581 0 
L 581 3500 
L 1159 3500 
L 1159 2956 
Q 1356 3278 1631 3431 
Q 1906 3584 2284 3584 
Q 2666 3584 2933 3390 
Q 3200 3197 3328 2828 
z
" transform="scale(0.015625)"/>
       <path id="DejaVuSans-65" d="M 3597 1894 
L 3597 1613 
L 953 1613 
Q 991 1019 1311 708 
Q 1631 397 2203 397 
Q 2534 397 2845 478 
Q 3156 559 3463 722 
L 3463 178 
Q 3153 47 2828 -22 
Q 2503 -91 2169 -91 
Q 1331 -91 842 396 
Q 353 884 353 1716 
Q 353 2575 817 3079 
Q 1281 3584 2069 3584 
Q 2775 3584 3186 3129 
Q 3597 2675 3597 1894 
z
M 3022 2063 
Q 3016 2534 2758 2815 
Q 2500 3097 2075 3097 
Q 1594 3097 1305 2825 
Q 1016 2553 972 2059 
L 3022 2063 
z
" transform="scale(0.015625)"/>
       <path id="DejaVuSans-20" transform="scale(0.015625)"/>
       <path id="DejaVuSans-28" d="M 1984 4856 
Q 1566 4138 1362 3434 
Q 1159 2731 1159 2009 
Q 1159 1288 1364 580 
Q 1569 -128 1984 -844 
L 1484 -844 
Q 1016 -109 783 600 
Q 550 1309 550 2009 
Q 550 2706 781 3412 
Q 1013 4119 1484 4856 
L 1984 4856 
z
" transform="scale(0.015625)"/>
       <path id="DejaVuSans-73" d="M 2834 3397 
L 2834 2853 
Q 2591 2978 2328 3040 
Q 2066 3103 1784 3103 
Q 1356 3103 1142 2972 
Q 928 2841 928 2578 
Q 928 2378 1081 2264 
Q 1234 2150 1697 2047 
L 1894 2003 
Q 2506 1872 2764 1633 
Q 3022 1394 3022 966 
Q 3022 478 2636 193 
Q 2250 -91 1575 -91 
Q 1294 -91 989 -36 
Q 684 19 347 128 
L 347 722 
Q 666 556 975 473 
Q 1284 391 1588 391 
Q 1994 391 2212 530 
Q 2431 669 2431 922 
Q 2431 1156 2273 1281 
Q 2116 1406 1581 1522 
L 1381 1569 
Q 847 1681 609 1914 
Q 372 2147 372 2553 
Q 372 3047 722 3315 
Q 1072 3584 1716 3584 
Q 2034 3584 2315 3537 
Q 2597 3491 2834 3397 
z
" transform="scale(0.015625)"/>
       <path id="DejaVuSans-29" d="M 513 4856 
L 1013 4856 
Q 1481 4119 1714 3412 
Q 1947 2706 1947 2009 
Q 1947 1309 1714 600 
Q 1481 -109 1013 -844 
L 513 -844 
Q 928 -128 1133 580 
Q 1338 1288 1338 2009 
Q 1338 2731 1133 3434 
Q 928 4138 513 4856 
z
" transform="scale(0.015625)"/>
      </defs>
      <use xlink:href="#DejaVuSans-54"/>
      <use xlink:href="#DejaVuSans-69" x="57.958984"/>
      <use xlink:href="#DejaVuSans-6d" x="85.742188"/>
      <use xlink:href="#DejaVuSans-65" x="183.154297"/>
      <use xlink:href="#DejaVuSans-20" x="244.677734"/>
      <use xlink:href="#DejaVuSans-28" x="276.464844"/>
      <use xlink:href="#DejaVuSans-73" x="315.478516"/>
      <use xlink:href="#DejaVuSans-29" x="367.578125"/>
     </g>
    </g>
   </g>
   <g id="matplotlib.axis_2">
    <g id="ytick_1">
     <g id="line2d_7">
      <defs>
       <path id="meea3691d0e" d="M 0 0 
L 2.5 0 
" style="stroke: #000000; stroke-width: 0.5"/>
      </defs>
      <g>
       <use xlink:href="#meea3691d0e" x="41.781593" y="244.500367" style="stroke: #000000; stroke-width: 0.5"/>
      </g>
     </g>
     <g id="text_7">
      <!-- $-20$ -->
      <g transform="translate(21.321593 247.539742) scale(0.08 -0.08)">
       <defs>
        <path id="DejaVuSans-2212" d="M 678 2272 
L 4684 2272 
L 4684 1741 
L 678 1741 
L 678 2272 
z
" transform="scale(0.015625)"/>
       </defs>
       <use xlink:href="#DejaVuSans-2212" transform="translate(0 0.78125)"/>
       <use xlink:href="#DejaVuSans-32" transform="translate(83.789062 0.78125)"/>
       <use xlink:href="#DejaVuSans-30" transform="translate(147.412109 0.78125)"/>
      </g>
     </g>
    </g>
    <g id="ytick_2">
     <g id="line2d_8">
      <g>
       <use xlink:href="#meea3691d0e" x="41.781593" y="188.726528" style="stroke: #000000; stroke-width: 0.5"/>
      </g>
     </g>
     <g id="text_8">
      <!-- $-10$ -->
      <g transform="translate(21.321593 191.765903) scale(0.08 -0.08)">
       <use xlink:href="#DejaVuSans-2212" transform="translate(0 0.78125)"/>
       <use xlink:href="#DejaVuSans-31" transform="translate(83.789062 0.78125)"/>
       <use xlink:href="#DejaVuSans-30" transform="translate(147.412109 0.78125)"/>
      </g>
     </g>
    </g>
    <g id="ytick_3">
     <g id="line2d_9">
      <g>
       <use xlink:href="#meea3691d0e" x="41.781593" y="132.952689" style="stroke: #000000; stroke-width: 0.5"/>
      </g>
     </g>
     <g id="text_9">
      <!-- $0$ -->
      <g transform="translate(33.161593 135.992064) scale(0.08 -0.08)">
       <use xlink:href="#DejaVuSans-30" transform="translate(0 0.78125)"/>
      </g>
     </g>
    </g>
    <g id="ytick_4">
     <g id="line2d_10">
      <g>
       <use xlink:href="#meea3691d0e" x="41.781593" y="77.178849" style="stroke: #000000; stroke-width: 0.5"/>
      </g>
     </g>
     <g id="text_10">
      <!-- $10$ -->
      <g transform="translate(28.041593 80.218224) scale(0.08 -0.08)">
       <use xlink:href="#DejaVuSans-31" transform="translate(0 0.78125)"/>
       <use xlink:href="#DejaVuSans-30" transform="translate(63.623047 0.78125)"/>
      </g>
     </g>
    </g>
    <g id="ytick_5">
     <g id="line2d_11">
      <g>
       <use xlink:href="#meea3691d0e" x="41.781593" y="21.40501" style="stroke: #000000; stroke-width: 0.5"/>
      </g>
     </g>
     <g id="text_11">
      <!-- $20$ -->
      <g transform="translate(28.041593 24.444385) scale(0.08 -0.08)">
       <use xlink:href="#DejaVuSans-32" transform="translate(0 0.78125)"/>
       <use xlink:href="#DejaVuSans-30" transform="translate(63.623047 0.78125)"/>
      </g>
     </g>
    </g>
    <g id="text_12">
     <!-- Rodriguez Parameter $\theta_x$ (degree) -->
     <g transform="translate(15.011593 221.885) rotate(-90) scale(0.11 -0.11)">
      <defs>
       <path id="DejaVuSans-52" d="M 2841 2188 
Q 3044 2119 3236 1894 
Q 3428 1669 3622 1275 
L 4263 0 
L 3584 0 
L 2988 1197 
Q 2756 1666 2539 1819 
Q 2322 1972 1947 1972 
L 1259 1972 
L 1259 0 
L 628 0 
L 628 4666 
L 2053 4666 
Q 2853 4666 3247 4331 
Q 3641 3997 3641 3322 
Q 3641 2881 3436 2590 
Q 3231 2300 2841 2188 
z
M 1259 4147 
L 1259 2491 
L 2053 2491 
Q 2509 2491 2742 2702 
Q 2975 2913 2975 3322 
Q 2975 3731 2742 3939 
Q 2509 4147 2053 4147 
L 1259 4147 
z
" transform="scale(0.015625)"/>
       <path id="DejaVuSans-6f" d="M 1959 3097 
Q 1497 3097 1228 2736 
Q 959 2375 959 1747 
Q 959 1119 1226 758 
Q 1494 397 1959 397 
Q 2419 397 2687 759 
Q 2956 1122 2956 1747 
Q 2956 2369 2687 2733 
Q 2419 3097 1959 3097 
z
M 1959 3584 
Q 2709 3584 3137 3096 
Q 3566 2609 3566 1747 
Q 3566 888 3137 398 
Q 2709 -91 1959 -91 
Q 1206 -91 779 398 
Q 353 888 353 1747 
Q 353 2609 779 3096 
Q 1206 3584 1959 3584 
z
" transform="scale(0.015625)"/>
       <path id="DejaVuSans-64" d="M 2906 2969 
L 2906 4863 
L 3481 4863 
L 3481 0 
L 2906 0 
L 2906 525 
Q 2725 213 2448 61 
Q 2172 -91 1784 -91 
Q 1150 -91 751 415 
Q 353 922 353 1747 
Q 353 2572 751 3078 
Q 1150 3584 1784 3584 
Q 2172 3584 2448 3432 
Q 2725 3281 2906 2969 
z
M 947 1747 
Q 947 1113 1208 752 
Q 1469 391 1925 391 
Q 2381 391 2643 752 
Q 2906 1113 2906 1747 
Q 2906 2381 2643 2742 
Q 2381 3103 1925 3103 
Q 1469 3103 1208 2742 
Q 947 2381 947 1747 
z
" transform="scale(0.015625)"/>
       <path id="DejaVuSans-72" d="M 2631 2963 
Q 2534 3019 2420 3045 
Q 2306 3072 2169 3072 
Q 1681 3072 1420 2755 
Q 1159 2438 1159 1844 
L 1159 0 
L 581 0 
L 581 3500 
L 1159 3500 
L 1159 2956 
Q 1341 3275 1631 3429 
Q 1922 3584 2338 3584 
Q 2397 3584 2469 3576 
Q 2541 3569 2628 3553 
L 2631 2963 
z
" transform="scale(0.015625)"/>
       <path id="DejaVuSans-67" d="M 2906 1791 
Q 2906 2416 2648 2759 
Q 2391 3103 1925 3103 
Q 1463 3103 1205 2759 
Q 947 2416 947 1791 
Q 947 1169 1205 825 
Q 1463 481 1925 481 
Q 2391 481 2648 825 
Q 2906 1169 2906 1791 
z
M 3481 434 
Q 3481 -459 3084 -895 
Q 2688 -1331 1869 -1331 
Q 1566 -1331 1297 -1286 
Q 1028 -1241 775 -1147 
L 775 -588 
Q 1028 -725 1275 -790 
Q 1522 -856 1778 -856 
Q 2344 -856 2625 -561 
Q 2906 -266 2906 331 
L 2906 616 
Q 2728 306 2450 153 
Q 2172 0 1784 0 
Q 1141 0 747 490 
Q 353 981 353 1791 
Q 353 2603 747 3093 
Q 1141 3584 1784 3584 
Q 2172 3584 2450 3431 
Q 2728 3278 2906 2969 
L 2906 3500 
L 3481 3500 
L 3481 434 
z
" transform="scale(0.015625)"/>
       <path id="DejaVuSans-75" d="M 544 1381 
L 544 3500 
L 1119 3500 
L 1119 1403 
Q 1119 906 1312 657 
Q 1506 409 1894 409 
Q 2359 409 2629 706 
Q 2900 1003 2900 1516 
L 2900 3500 
L 3475 3500 
L 3475 0 
L 2900 0 
L 2900 538 
Q 2691 219 2414 64 
Q 2138 -91 1772 -91 
Q 1169 -91 856 284 
Q 544 659 544 1381 
z
M 1991 3584 
L 1991 3584 
z
" transform="scale(0.015625)"/>
       <path id="DejaVuSans-7a" d="M 353 3500 
L 3084 3500 
L 3084 2975 
L 922 459 
L 3084 459 
L 3084 0 
L 275 0 
L 275 525 
L 2438 3041 
L 353 3041 
L 353 3500 
z
" transform="scale(0.015625)"/>
       <path id="DejaVuSans-50" d="M 1259 4147 
L 1259 2394 
L 2053 2394 
Q 2494 2394 2734 2622 
Q 2975 2850 2975 3272 
Q 2975 3691 2734 3919 
Q 2494 4147 2053 4147 
L 1259 4147 
z
M 628 4666 
L 2053 4666 
Q 2838 4666 3239 4311 
Q 3641 3956 3641 3272 
Q 3641 2581 3239 2228 
Q 2838 1875 2053 1875 
L 1259 1875 
L 1259 0 
L 628 0 
L 628 4666 
z
" transform="scale(0.015625)"/>
       <path id="DejaVuSans-61" d="M 2194 1759 
Q 1497 1759 1228 1600 
Q 959 1441 959 1056 
Q 959 750 1161 570 
Q 1363 391 1709 391 
Q 2188 391 2477 730 
Q 2766 1069 2766 1631 
L 2766 1759 
L 2194 1759 
z
M 3341 1997 
L 3341 0 
L 2766 0 
L 2766 531 
Q 2569 213 2275 61 
Q 1981 -91 1556 -91 
Q 1019 -91 701 211 
Q 384 513 384 1019 
Q 384 1609 779 1909 
Q 1175 2209 1959 2209 
L 2766 2209 
L 2766 2266 
Q 2766 2663 2505 2880 
Q 2244 3097 1772 3097 
Q 1472 3097 1187 3025 
Q 903 2953 641 2809 
L 641 3341 
Q 956 3463 1253 3523 
Q 1550 3584 1831 3584 
Q 2591 3584 2966 3190 
Q 3341 2797 3341 1997 
z
" transform="scale(0.015625)"/>
       <path id="DejaVuSans-74" d="M 1172 4494 
L 1172 3500 
L 2356 3500 
L 2356 3053 
L 1172 3053 
L 1172 1153 
Q 1172 725 1289 603 
Q 1406 481 1766 481 
L 2356 481 
L 2356 0 
L 1766 0 
Q 1100 0 847 248 
Q 594 497 594 1153 
L 594 3053 
L 172 3053 
L 172 3500 
L 594 3500 
L 594 4494 
L 1172 4494 
z
" transform="scale(0.015625)"/>
       <path id="DejaVuSans-Oblique-3b8" d="M 2913 2219 
L 925 2219 
Q 791 1284 928 888 
Q 1100 400 1566 400 
Q 2034 400 2391 891 
Q 2703 1322 2913 2219 
z
M 3009 2750 
Q 3094 3638 2984 3950 
Q 2813 4444 2353 4444 
Q 1875 4444 1525 3956 
Q 1250 3563 1034 2750 
L 3009 2750 
z
M 2444 4913 
Q 3194 4913 3494 4250 
Q 3794 3591 3566 2422 
Q 3341 1256 2781 594 
Q 2225 -72 1475 -72 
Q 722 -72 425 594 
Q 128 1256 353 2422 
Q 581 3591 1134 4250 
Q 1691 4913 2444 4913 
z
" transform="scale(0.015625)"/>
       <path id="DejaVuSans-Oblique-78" d="M 3841 3500 
L 2234 1784 
L 3219 0 
L 2559 0 
L 1819 1388 
L 531 0 
L -166 0 
L 1556 1844 
L 641 3500 
L 1300 3500 
L 1972 2234 
L 3144 3500 
L 3841 3500 
z
" transform="scale(0.015625)"/>
      </defs>
      <use xlink:href="#DejaVuSans-52" transform="translate(0 0.234375)"/>
      <use xlink:href="#DejaVuSans-6f" transform="translate(69.482422 0.234375)"/>
      <use xlink:href="#DejaVuSans-64" transform="translate(130.664062 0.234375)"/>
      <use xlink:href="#DejaVuSans-72" transform="translate(194.140625 0.234375)"/>
      <use xlink:href="#DejaVuSans-69" transform="translate(235.253906 0.234375)"/>
      <use xlink:href="#DejaVuSans-67" transform="translate(263.037109 0.234375)"/>
      <use xlink:href="#DejaVuSans-75" transform="translate(326.513672 0.234375)"/>
      <use xlink:href="#DejaVuSans-65" transform="translate(389.892578 0.234375)"/>
      <use xlink:href="#DejaVuSans-7a" transform="translate(451.416016 0.234375)"/>
      <use xlink:href="#DejaVuSans-20" transform="translate(503.90625 0.234375)"/>
      <use xlink:href="#DejaVuSans-50" transform="translate(535.693359 0.234375)"/>
      <use xlink:href="#DejaVuSans-61" transform="translate(595.996094 0.234375)"/>
      <use xlink:href="#DejaVuSans-72" transform="translate(657.275391 0.234375)"/>
      <use xlink:href="#DejaVuSans-61" transform="translate(698.388672 0.234375)"/>
      <use xlink:href="#DejaVuSans-6d" transform="translate(759.667969 0.234375)"/>
      <use xlink:href="#DejaVuSans-65" transform="translate(857.080078 0.234375)"/>
      <use xlink:href="#DejaVuSans-74" transform="translate(918.603516 0.234375)"/>
      <use xlink:href="#DejaVuSans-65" transform="translate(957.8125 0.234375)"/>
      <use xlink:href="#DejaVuSans-72" transform="translate(1019.335938 0.234375)"/>
      <use xlink:href="#DejaVuSans-20" transform="translate(1060.449219 0.234375)"/>
      <use xlink:href="#DejaVuSans-Oblique-3b8" transform="translate(1092.236328 0.234375)"/>
      <use xlink:href="#DejaVuSans-Oblique-78" transform="translate(1153.417969 -16.171875) scale(0.7)"/>
      <use xlink:href="#DejaVuSans-20" transform="translate(1197.578125 0.234375)"/>
      <use xlink:href="#DejaVuSans-28" transform="translate(1229.365234 0.234375)"/>
      <use xlink:href="#DejaVuSans-64" transform="translate(1268.378906 0.234375)"/>
      <use xlink:href="#DejaVuSans-65" transform="translate(1331.855469 0.234375)"/>
      <use xlink:href="#DejaVuSans-67" transform="translate(1393.378906 0.234375)"/>
      <use xlink:href="#DejaVuSans-72" transform="translate(1456.855469 0.234375)"/>
      <use xlink:href="#DejaVuSans-65" transform="translate(1497.96875 0.234375)"/>
      <use xlink:href="#DejaVuSans-65" transform="translate(1559.492188 0.234375)"/>
      <use xlink:href="#DejaVuSans-29" transform="translate(1621.015625 0.234375)"/>
     </g>
    </g>
   </g>
   <g id="line2d_12">
    <path d="M 41.781593 132.952689 
L 42.843608 133.059362 
L 43.931476 133.402754 
L 44.997236 133.982513 
L 46.101609 134.818639 
L 47.466572 136.137701 
L 48.8398 137.845169 
L 50.447488 140.148612 
L 52.346824 143.327112 
L 55.238739 148.653296 
L 60.551616 158.487226 
L 61.904188 160.300399 
L 65.667143 164.525231 
L 66.997956 165.617049 
L 67.93774 166.068728 
L 68.676796 166.192671 
L 69.257039 166.074405 
L 69.962671 165.681246 
L 70.677463 165.026997 
L 71.584204 163.881477 
L 72.450895 162.409599 
L 73.565471 160.010966 
L 74.685805 157.02348 
L 76.090197 152.605354 
L 77.870327 146.249819 
L 80.205162 137.057779 
L 83.665751 123.218449 
L 85.421588 117.287936 
L 87.282628 111.777635 
L 90.103863 104.122027 
L 91.4905 100.837797 
L 92.600852 98.794305 
L 93.495646 97.509803 
L 94.282706 96.698318 
L 95.081721 96.183524 
L 95.713035 96.045849 
L 96.3566 96.152095 
L 97.032657 96.552448 
L 97.737102 97.227823 
L 98.481847 98.231895 
L 99.519715 100.156056 
L 100.635567 102.764341 
L 101.806239 106.047755 
L 103.309231 110.943687 
L 105.449062 118.841423 
L 108.590499 130.398478 
L 110.258827 135.698278 
L 113.188473 144.097523 
L 115.799901 150.753253 
L 121.57391 165.270545 
L 123.03904 169.855182 
L 124.61647 175.523074 
L 127.432812 185.746276 
L 128.311772 188.144096 
L 129.08133 189.631729 
L 129.633969 190.35241 
L 130.186609 190.748243 
L 130.743448 190.82031 
L 131.307092 190.582359 
L 131.897853 189.9935 
L 132.498214 189.061823 
L 133.12132 187.738703 
L 134.139341 184.804607 
L 135.181983 180.985986 
L 136.572172 174.688911 
L 137.962361 167.123538 
L 139.244577 158.890761 
L 140.884769 146.940155 
L 146.350715 105.096278 
L 147.702616 97.249567 
L 148.931984 91.441329 
L 149.894364 87.829775 
L 150.757117 85.359952 
L 151.463731 83.906598 
L 152.17248 82.964086 
L 152.704576 82.581661 
L 153.246179 82.479772 
L 153.841331 82.660222 
L 154.48232 83.199529 
L 155.205504 84.209688 
L 156.951648 87.317161 
L 157.76463 88.62037 
L 158.411616 89.405743 
L 159.058602 89.847866 
L 159.712726 89.965077 
L 160.373989 89.772292 
L 161.035252 89.299558 
L 162.810455 87.785392 
L 163.488652 87.612727 
L 163.805421 87.686157 
L 164.150899 87.908668 
L 164.496377 88.310853 
L 165.189169 89.699559 
L 165.883795 91.846016 
L 166.578422 94.737396 
L 167.620361 100.444773 
L 168.827606 108.932383 
L 170.38767 121.98261 
L 174.06404 153.643053 
L 175.407749 162.969012 
L 176.375017 168.305456 
L 177.231757 171.844589 
L 177.834741 173.563862 
L 178.352366 174.508859 
L 178.78372 174.901619 
L 179.128804 174.957277 
L 179.473887 174.794658 
L 179.905241 174.293617 
L 180.425835 173.29744 
L 181.043833 171.558323 
L 182.073901 167.830412 
L 183.219536 163.856322 
L 183.807743 162.511734 
L 184.160754 162.08476 
L 184.513766 161.984836 
L 184.749107 162.12915 
L 185.080135 162.662741 
L 185.453664 163.723672 
L 185.961826 165.969864 
L 186.542799 169.676736 
L 187.304251 176.278829 
L 188.379635 187.972203 
L 190.175207 207.733347 
L 190.843019 213.208666 
L 191.384043 216.32234 
L 191.770202 217.733942 
L 192.159704 218.447392 
L 192.368299 218.529742 
L 192.594587 218.381403 
L 192.827618 217.974941 
L 193.341736 216.216246 
L 193.883881 213.187997 
L 194.787318 206.018785 
L 197.391827 182.547671 
L 198.368518 176.486715 
L 199.345209 172.264903 
L 200.3219 169.164396 
L 202.007687 164.834369 
L 202.77221 163.42812 
L 203.308965 162.861729 
L 203.76282 162.7232 
L 204.218161 162.862099 
L 204.764571 163.317284 
L 206.264919 164.763059 
L 206.588577 164.728278 
L 206.924365 164.431348 
L 207.261905 163.821587 
L 207.682846 162.542356 
L 208.17515 160.20596 
L 208.73651 156.403954 
L 209.423458 150.102189 
L 210.343799 139.337208 
L 212.227812 113.865282 
L 213.446971 99.050098 
L 214.233965 91.816474 
L 214.89037 87.690268 
L 215.317132 86.081613 
L 215.647174 85.458063 
L 215.891101 85.336595 
L 216.155626 85.517108 
L 216.440001 86.06103 
L 216.881963 87.565063 
L 217.454704 90.483535 
L 219.158406 99.996074 
L 219.588192 101.075542 
L 219.90646 101.262995 
L 220.074414 101.143959 
L 220.414351 100.447081 
L 220.771621 99.103658 
L 221.358451 95.761561 
L 223.439075 82.06712 
L 223.895789 80.549574 
L 224.354314 79.856018 
L 224.600743 79.80237 
L 224.847172 79.945006 
L 225.34003 80.712046 
L 226.665803 83.446224 
L 226.957264 83.654433 
L 227.254579 83.596265 
L 227.551893 83.217369 
L 227.856394 82.475159 
L 228.481345 79.863955 
L 229.116466 75.991768 
L 231.021831 63.190223 
L 231.656953 60.874564 
L 231.974513 60.356613 
L 232.292074 60.305086 
L 232.609635 60.712435 
L 232.927196 61.549133 
L 233.562317 64.432205 
L 234.197439 68.710494 
L 235.150121 77.126359 
L 236.359229 90.406439 
L 238.251587 111.322211 
L 239.069501 117.753817 
L 239.700626 121.056071 
L 240.192445 122.641529 
L 240.684264 123.514092 
L 241.075341 123.807287 
L 241.574397 123.877531 
L 242.107772 123.974716 
L 242.449208 124.287252 
L 242.812958 125.003199 
L 243.213903 126.390919 
L 243.621968 128.608167 
L 244.159401 132.880054 
L 244.840183 140.43711 
L 245.660687 152.307428 
L 246.982343 175.498932 
L 248.477681 200.983697 
L 249.392124 212.799673 
L 250.17393 220.132045 
L 250.826358 224.541053 
L 251.394736 227.181824 
L 251.847875 228.4032 
L 252.148558 228.753648 
L 252.407383 228.747227 
L 252.678375 228.408423 
L 253.030411 227.444501 
L 253.453571 225.515818 
L 254.021595 221.663259 
L 254.685159 215.503305 
L 255.487478 205.919149 
L 257.533841 179.890757 
L 258.022415 176.182034 
L 258.352424 174.693965 
L 258.708286 174.081675 
L 258.891804 174.190352 
L 259.075322 174.590045 
L 259.467057 176.3767 
L 259.860392 179.371155 
L 260.450393 185.870013 
L 261.342005 199.12502 
L 263.009616 224.771034 
L 263.640837 230.963059 
L 264.070663 233.473019 
L 264.407079 234.454437 
L 264.615738 234.626321 
L 264.761861 234.546875 
L 264.984364 234.111321 
L 265.296444 232.874016 
L 265.690902 230.315751 
L 266.245656 224.95183 
L 266.95891 215.463748 
L 268.171581 195.456319 
L 269.794898 169.259335 
L 270.769255 156.952162 
L 271.647064 148.558153 
L 272.6084 141.611393 
L 274.391474 130.973798 
L 275.246852 126.883847 
L 275.762689 125.324759 
L 276.075827 124.887162 
L 276.334554 124.883525 
L 276.599775 125.235891 
L 276.88368 126.039457 
L 277.268054 127.904764 
L 277.756674 131.591591 
L 278.363521 138.142342 
L 279.205496 150.091976 
L 281.677344 187.874854 
L 282.346082 194.381666 
L 282.920358 197.857987 
L 283.295965 198.987921 
L 283.568693 199.221442 
L 283.715232 199.145387 
L 284.027169 198.538354 
L 284.360615 197.266635 
L 284.886141 194.069003 
L 285.610178 187.616395 
L 286.521283 176.968222 
L 287.627953 161.034799 
L 288.987968 137.675292 
L 290.308707 110.981222 
L 292.959923 54.907307 
L 293.587808 46.769623 
L 294.052304 42.970703 
L 294.43272 41.297126 
L 294.697859 40.869789 
L 294.89016 40.909994 
L 295.106265 41.287182 
L 295.471121 42.673233 
L 295.970399 45.910608 
L 296.612418 51.88929 
L 297.508741 62.715105 
L 298.708473 80.438248 
L 300.442913 106.508686 
L 300.988361 111.775712 
L 301.458849 114.308719 
L 301.771855 114.868431 
L 301.931415 114.803036 
L 302.185535 114.22001 
L 302.536575 112.491754 
L 302.991231 108.818304 
L 303.569845 102.226064 
L 304.656247 86.695912 
L 305.829052 70.641288 
L 306.731652 61.361724 
L 307.465076 55.960573 
L 308.00907 53.390479 
L 308.477259 52.242022 
L 308.864788 51.892344 
L 309.728576 51.527158 
L 310.099459 50.787333 
L 310.533528 49.087756 
L 311.032045 46.019086 
L 311.71511 40.253022 
L 313.1629 27.137516 
L 313.666949 24.615889 
L 313.90448 24.120024 
L 314.023245 24.056678 
L 314.247989 24.284457 
L 314.459947 24.92911 
L 314.75509 26.564426 
L 315.133418 30.01944 
L 315.608394 36.730441 
L 316.205843 49.051215 
L 317.150054 74.423601 
L 318.412455 107.099086 
L 319.038729 118.56394 
L 319.447773 123.032822 
L 319.733185 124.364446 
L 319.833022 124.454592 
L 319.93286 124.347816 
L 320.132535 123.554931 
L 320.445943 120.865142 
L 320.884038 114.631419 
L 321.541182 101.541077 
L 323.580865 57.138037 
L 324.055586 52.237385 
L 324.292946 51.183899 
L 324.411626 51.010446 
L 324.536192 51.070585 
L 324.81251 52.032034 
L 325.089283 54.06516 
L 325.512746 59.180283 
L 326.047257 69.185204 
L 326.632762 84.772224 
L 327.582415 117.456357 
L 328.89913 162.343552 
L 329.492855 175.316487 
L 329.854573 179.789119 
L 330.127084 181.295113 
L 330.309565 181.424096 
L 330.492854 180.893176 
L 330.767789 179.039962 
L 331.317657 172.971226 
L 332.411736 160.426549 
L 332.890362 157.154136 
L 333.225367 156.07078 
L 333.449507 155.949681 
L 333.62158 156.20352 
L 333.858895 157.07089 
L 334.223051 159.577784 
L 334.675184 164.483241 
L 335.374903 174.774673 
L 337.789403 212.28738 
L 338.265091 215.835525 
L 338.655989 217.450266 
L 338.920195 217.913973 
L 339.109013 217.958514 
L 339.306281 217.759984 
L 339.603429 216.988961 
L 339.907833 215.569125 
L 340.333056 212.284526 
L 340.854395 205.872192 
L 342.434859 183.889315 
L 342.786073 182.060212 
L 343.029847 181.69643 
L 343.207661 181.850188 
L 343.487315 182.69969 
L 343.892521 184.935045 
L 344.614674 190.612434 
L 346.011367 203.952101 
L 346.683102 212.542499 
L 347.559825 227.494928 
L 348.36601 240.210333 
L 348.841891 244.859514 
L 349.249153 246.905414 
L 349.521091 247.424534 
L 349.6903 247.436166 
L 349.862351 247.206675 
L 350.101154 246.474142 
L 350.440032 244.566135 
L 350.891414 240.439924 
L 351.430415 233.331342 
L 353.349432 205.412111 
L 353.862277 201.484458 
L 354.183619 200.217478 
L 354.411266 199.896905 
L 354.535512 199.913862 
L 354.791515 200.334186 
L 355.175519 201.821999 
L 355.559523 204.314436 
L 356.071529 209.31375 
L 356.711536 218.028753 
L 358.347448 242.220403 
L 358.69611 243.870506 
L 358.815035 243.960543 
L 358.933959 243.815183 
L 359.171808 242.845945 
L 359.528582 239.867087 
L 360.123205 232.160813 
L 361.391573 215.283455 
L 362.23064 206.837469 
L 362.802029 202.63499 
L 363.23057 200.736173 
L 363.516265 200.321511 
L 363.659112 200.379991 
L 363.944806 200.951847 
L 364.49759 203.05234 
L 365.976315 208.754702 
L 367.550939 214.152632 
L 367.742813 214.388551 
L 367.935583 214.224992 
L 368.12925 213.565612 
L 368.41975 211.587145 
L 368.82604 206.954434 
L 369.343614 198.117466 
L 370.068802 180.943009 
L 371.170397 154.947991 
L 371.745918 146.301719 
L 372.450769 139.504499 
L 374.001485 127.333382 
L 374.248709 126.552264 
L 374.372573 126.406028 
L 374.496437 126.438259 
L 374.744166 127.081822 
L 374.994106 128.566143 
L 375.444673 133.33477 
L 376.14258 144.23789 
L 377.151736 159.3139 
L 377.603388 163.083919 
L 377.85133 163.76585 
L 377.986 163.672299 
L 378.215875 162.792982 
L 378.571215 159.932021 
L 379.024635 154.209685 
L 379.659423 142.783596 
L 380.570959 120.91159 
L 382.77749 66.31595 
L 383.564924 53.326822 
L 383.938316 49.612102 
L 384.21836 48.278896 
L 384.405056 47.965436 
L 384.591752 48.01401 
L 384.808603 48.479187 
L 385.100872 49.844606 
L 385.412292 52.405238 
L 385.894701 58.676753 
L 386.884312 72.14565 
L 387.432161 77.170165 
L 387.758617 78.644806 
L 387.874404 78.755694 
L 387.990191 78.627425 
L 388.227769 77.664266 
L 388.592797 74.803799 
L 389.08457 69.072687 
L 389.699285 59.25247 
L 390.928717 38.457771 
L 391.666376 30.293444 
L 392.035206 27.802194 
L 392.306882 26.832329 
L 392.599583 26.380394 
L 392.91211 26.219846 
L 393.225373 26.356833 
L 393.480646 26.832325 
L 393.757614 27.909196 
L 394.173818 30.880548 
L 394.730768 37.024199 
L 395.662414 50.643732 
L 396.461419 61.725041 
L 396.790944 64.453353 
L 397.010628 65.222226 
L 397.12047 65.235745 
L 397.340153 64.502452 
L 397.677722 61.54039 
L 398.121921 54.817923 
L 400.114065 19.583231 
L 400.589114 15.726935 
L 401.097961 13.410367 
L 401.509141 12.587282 
L 402.293209 11.777214 
L 402.52772 11.864295 
L 402.762231 12.323473 
L 403.074798 13.446533 
L 403.480878 15.849972 
L 403.909687 20.059543 
L 404.338823 26.695345 
L 404.989274 40.910637 
L 406.526159 75.242733 
L 406.989476 81.012611 
L 407.351457 83.207292 
L 407.570412 83.597464 
L 407.727263 83.460045 
L 407.990662 82.612397 
L 408.453529 80.045041 
L 408.954292 77.285982 
L 409.272203 76.587323 
L 409.821334 75.945798 
L 410.134083 75.014679 
L 410.47405 73.270334 
L 410.92734 69.624337 
L 411.562391 62.159615 
L 412.511454 50.586559 
L 413.016869 47.197832 
L 413.360501 45.949291 
L 413.59355 45.706087 
L 413.745455 45.818293 
L 413.906046 46.193555 
L 414.178074 47.601593 
L 414.568966 51.45023 
L 415.669494 66.068683 
L 416.702857 78.915697 
L 417.045695 81.037199 
L 417.275997 81.634032 
L 417.5063 81.757036 
L 417.736702 81.653824 
L 417.967204 81.319355 
L 418.312958 80.212197 
L 418.802609 78.657161 
L 419.060739 78.454243 
L 419.189803 78.604222 
L 419.456639 79.627627 
L 419.763598 82.020627 
L 420.3712 89.072592 
L 421.20814 101.445821 
L 422.361999 120.640118 
L 422.361999 120.640118 
" clip-path="url(#p658d2a3c88)" style="fill: none; stroke: #e36f47"/>
   </g>
   <g id="patch_3">
    <path d="M 41.781593 258.225354 
L 41.781593 2.834646 
" style="fill: none; stroke: #000000; stroke-linejoin: miter; stroke-linecap: square"/>
   </g>
   <g id="patch_4">
    <path d="M 41.781593 258.225354 
L 422.361999 258.225354 
" style="fill: none; stroke: #000000; stroke-linejoin: miter; stroke-linecap: square"/>
   </g>
   <g id="line2d_13">
    <path d="M 41.781593 132.952689 
L 42.855665 133.061922 
L 43.926344 133.400511 
L 44.993125 133.979568 
L 46.140824 134.852715 
L 47.518607 136.19631 
L 48.939143 137.977292 
L 50.541455 140.296012 
L 52.575598 143.732713 
L 55.95136 150.01923 
L 59.904939 157.469332 
L 61.223434 159.437565 
L 62.598415 161.105463 
L 65.930904 164.767153 
L 67.117095 165.686751 
L 67.954922 166.066328 
L 68.700733 166.180907 
L 69.346249 166.041617 
L 70.048494 165.614122 
L 70.81201 164.879424 
L 71.677663 163.730078 
L 72.530061 162.261662 
L 73.551192 160.03332 
L 74.716219 156.942264 
L 76.219239 152.171486 
L 78.052961 145.568633 
L 80.514898 135.790245 
L 83.638743 123.314148 
L 85.243518 117.846841 
L 87.136131 112.160102 
L 89.910748 104.664738 
L 91.335537 101.216472 
L 92.528219 98.899127 
L 93.381492 97.665978 
L 94.265517 96.75057 
L 95.049376 96.25162 
L 95.604982 96.099787 
L 96.35565 96.186876 
L 97.02242 96.552906 
L 97.733305 97.235635 
L 98.535502 98.349349 
L 99.359122 99.841122 
L 100.435256 102.272424 
L 101.726553 105.834788 
L 103.221557 110.659684 
L 105.318076 118.306812 
L 108.645535 130.569182 
L 110.530679 136.578006 
L 112.878589 143.226941 
L 115.237388 149.417831 
L 121.88613 166.074082 
L 123.54225 171.422155 
L 125.966046 180.279186 
L 127.611738 185.905504 
L 128.644973 188.571984 
L 129.21448 189.621285 
L 129.794345 190.341305 
L 130.362754 190.69057 
L 130.909673 190.691932 
L 131.471757 190.361235 
L 132.008977 189.746665 
L 132.59872 188.757626 
L 133.52471 186.589879 
L 134.507576 183.525681 
L 135.456964 179.866371 
L 136.638939 174.410224 
L 137.996102 166.986694 
L 139.462583 157.60735 
L 141.162326 145.056444 
L 146.236674 105.714398 
L 147.58756 97.763297 
L 148.795159 92.110144 
L 149.917526 88.045564 
L 150.823234 85.588276 
L 151.464995 84.304899 
L 152.084436 83.43727 
L 152.627834 82.980238 
L 153.134575 82.808753 
L 153.687533 82.893772 
L 154.243298 83.247911 
L 155.061504 84.193762 
L 156.11119 85.923811 
L 157.997162 89.143808 
L 158.739955 89.977091 
L 159.338792 90.344649 
L 159.835005 90.424664 
L 160.382317 90.284991 
L 161.085295 89.815593 
L 163.144185 88.020907 
L 163.63945 87.898331 
L 164.142751 88.048598 
L 164.657291 88.553255 
L 165.186777 89.498981 
L 165.716077 90.916182 
L 166.527239 94.044662 
L 167.283263 97.985112 
L 168.251085 104.323419 
L 169.497021 114.135318 
L 174.895327 159.304288 
L 175.968977 165.869905 
L 176.982471 170.637477 
L 177.760096 173.185138 
L 178.311505 174.336844 
L 178.85367 174.90698 
L 179.343665 174.933992 
L 179.707094 174.657555 
L 180.111981 174.065868 
L 180.620148 172.938384 
L 181.309106 170.854201 
L 183.711052 162.784995 
L 184.24203 161.981812 
L 184.622491 161.86884 
L 184.824571 161.988755 
L 185.257324 162.70445 
L 185.695801 164.107748 
L 186.275389 167.0511 
L 186.86474 171.289291 
L 187.630094 178.435106 
L 189.064943 194.726894 
L 190.347798 208.446831 
L 191.088926 214.230734 
L 191.597996 216.872717 
L 192.092881 218.265788 
L 192.360194 218.516708 
L 192.525679 218.494673 
L 192.825376 218.113441 
L 193.151545 217.212557 
L 193.519412 215.623603 
L 194.14531 211.69015 
L 195.090785 203.592368 
L 197.330853 182.890637 
L 198.262235 176.696607 
L 198.992445 173.149717 
L 199.824499 170.168195 
L 200.836126 167.389477 
L 202.185547 164.336441 
L 202.96562 163.046653 
L 203.576504 162.467558 
L 204.115966 162.329755 
L 204.57488 162.473588 
L 205.310454 163.04023 
L 206.040184 163.619759 
L 206.502701 163.725975 
L 206.830546 163.572943 
L 207.204282 163.088366 
L 207.536773 162.326563 
L 207.915776 161.0228 
L 208.495458 158.042099 
L 209.079656 153.781729 
L 209.921718 145.558318 
L 210.94773 133.043071 
L 213.542753 100.158244 
L 214.403432 92.349021 
L 215.06285 88.351957 
L 215.539475 86.695258 
L 215.884303 86.166056 
L 216.059591 86.110735 
L 216.227466 86.189583 
L 216.554617 86.69861 
L 216.907141 87.730569 
L 217.429176 90.018926 
L 219.534249 100.745391 
L 219.894912 101.413312 
L 220.191644 101.484656 
L 220.49558 101.088516 
L 220.811532 100.182689 
L 221.307021 97.856427 
L 222.139067 92.272313 
L 223.346946 84.041216 
L 223.876096 81.613201 
L 224.32724 80.384071 
L 224.618227 80.005546 
L 224.892429 79.922798 
L 225.172482 80.077901 
L 225.643732 80.750965 
L 227.062004 83.25322 
L 227.3701 83.354856 
L 227.667886 83.169431 
L 227.967877 82.668426 
L 228.391229 81.40488 
L 229.001479 78.520636 
L 229.820765 73.282856 
L 231.106875 64.994474 
L 231.678508 62.532858 
L 232.044397 61.622596 
L 232.317741 61.327652 
L 232.576116 61.364276 
L 232.906387 61.859599 
L 233.330382 63.210922 
L 233.86099 65.940942 
L 234.468384 70.270895 
L 235.399592 78.781366 
L 236.749562 93.540244 
L 238.312063 110.40016 
L 239.186967 117.410488 
L 239.856732 121.025574 
L 240.338059 122.723605 
L 240.770778 123.705429 
L 241.229364 124.315997 
L 242.04386 124.896534 
L 242.541047 125.423446 
L 242.872855 126.065072 
L 243.234896 127.172305 
L 243.781836 129.890626 
L 244.301498 133.852997 
L 244.833459 139.384257 
L 245.585457 149.539281 
L 246.664075 167.650603 
L 248.896353 206.576816 
L 249.70266 216.686306 
L 250.433187 223.140892 
L 251.075559 226.866347 
L 251.518361 228.478043 
L 251.844239 229.18276 
L 252.154599 229.46445 
L 252.481863 229.327223 
L 252.768391 228.81876 
L 253.073922 227.854915 
L 253.5691 225.336368 
L 254.097996 221.361979 
L 254.856932 213.644617 
L 255.936197 199.969859 
L 257.351262 182.212231 
L 257.949081 177.092872 
L 258.431023 174.816268 
L 258.714568 174.363339 
L 258.850523 174.388957 
L 259.117714 174.900576 
L 259.402494 176.1083 
L 259.831845 179.153861 
L 260.304843 184.022732 
L 261.134217 195.385726 
L 263.09686 224.123186 
L 263.749623 230.063894 
L 264.144981 232.148166 
L 264.410911 232.879684 
L 264.683298 233.080727 
L 264.939567 232.782372 
L 265.183735 232.079391 
L 265.566255 230.20693 
L 266.052138 226.569418 
L 266.727973 219.380427 
L 267.578936 207.394702 
L 270.716048 159.397186 
L 271.698532 149.024058 
L 272.719235 140.899362 
L 274.117415 132.077114 
L 275.204504 126.313358 
L 275.701371 124.587197 
L 276.044115 123.974515 
L 276.321266 123.896026 
L 276.6271 124.286165 
L 276.92527 125.171324 
L 277.389155 127.553246 
L 277.888659 131.455223 
L 278.610628 139.369523 
L 279.596035 153.689175 
L 281.600141 184.91459 
L 282.277111 192.182731 
L 282.753622 195.591038 
L 283.227317 197.501269 
L 283.541893 197.964534 
L 283.695806 197.9631 
L 283.868461 197.787565 
L 284.224379 196.86295 
L 284.579356 195.220999 
L 285.109482 191.545296 
L 285.881652 184.012049 
L 287.016141 169.892896 
L 288.308729 150.788217 
L 289.3647 132.03564 
L 290.772157 102.510997 
L 292.806088 59.0549 
L 293.581342 47.514483 
L 294.012631 43.388713 
L 294.456736 41.038327 
L 294.752937 40.5257 
L 294.884426 40.554494 
L 295.132966 41.010278 
L 295.50394 42.564362 
L 296.041464 46.30639 
L 296.823173 53.921831 
L 297.794281 65.864738 
L 299.022893 84.101625 
L 300.50808 105.780495 
L 301.137384 111.935258 
L 301.594433 114.409033 
L 301.887917 114.979488 
L 302.059416 114.929991 
L 302.262163 114.507714 
L 302.596171 112.976987 
L 302.960649 110.20683 
L 303.572241 103.44928 
L 304.691595 87.559524 
L 305.82714 72.529459 
L 306.679788 63.886938 
L 307.382004 58.580491 
L 307.927765 55.823774 
L 308.33949 54.651259 
L 308.694685 54.220001 
L 309.03184 54.168747 
L 309.774077 54.235675 
L 310.081202 53.874541 
L 310.408522 53.011417 
L 310.806645 51.198364 
L 311.344083 47.466317 
L 312.159781 39.742717 
L 313.335794 28.586456 
L 313.768533 26.144413 
L 314.056849 25.373815 
L 314.253066 25.298376 
L 314.444923 25.601476 
L 314.743835 26.856302 
L 315.044521 29.123172 
L 315.518509 34.814183 
L 316.030559 43.865528 
L 316.744212 60.824003 
L 318.795808 113.314577 
L 319.365279 121.765115 
L 319.689809 124.323086 
L 319.89442 124.985747 
L 320.005309 125.026907 
L 320.199151 124.560138 
L 320.412168 123.272169 
L 320.747205 119.715591 
L 321.242902 111.586525 
L 322.076543 93.226456 
L 323.518887 61.313009 
L 324.02025 54.296479 
L 324.382586 51.58496 
L 324.634056 51.015689 
L 324.721405 51.076711 
L 324.905262 51.63907 
L 325.158704 53.357013 
L 325.543539 57.934539 
L 326.062956 67.521467 
L 326.669283 83.173202 
L 327.556382 112.951305 
L 329.038616 163.183738 
L 329.593815 174.925275 
L 330.009963 179.809198 
L 330.260935 181.094471 
L 330.441957 181.264916 
L 330.626303 180.816945 
L 330.914344 178.976473 
L 331.397468 173.512279 
L 332.693392 157.298928 
L 333.088258 154.871746 
L 333.370701 154.155902 
L 333.550007 154.149953 
L 333.762906 154.592095 
L 334.101821 156.278101 
L 334.479399 159.501824 
L 334.984993 165.783555 
L 335.811828 179.529114 
L 337.374621 205.932769 
L 338.066417 213.828861 
L 338.59745 217.457861 
L 338.97739 218.739617 
L 339.218606 218.986516 
L 339.398023 218.876494 
L 339.650876 218.282522 
L 339.954403 216.873701 
L 340.399234 213.414306 
L 340.883357 207.798001 
L 341.649736 195.885202 
L 342.418566 184.512522 
L 342.812236 181.050028 
L 343.137988 179.794156 
L 343.351565 179.710822 
L 343.501062 179.956849 
L 343.741178 180.793047 
L 344.199611 183.507029 
L 344.950669 189.648508 
L 345.862782 198.960031 
L 346.599861 208.809098 
L 347.49992 224.172504 
L 348.686457 244.398835 
L 349.156796 249.026568 
L 349.527182 250.751016 
L 349.776917 250.997315 
L 349.946595 250.773586 
L 350.187787 249.949338 
L 350.528265 247.854944 
L 350.976726 243.59243 
L 351.607116 235.041694 
L 353.558035 205.814164 
L 354.015738 202.50593 
L 354.423869 200.940144 
L 354.639099 200.662026 
L 354.777362 200.692831 
L 354.989228 201.063805 
L 355.285354 202.232005 
L 355.689151 204.97117 
L 356.225635 210.423628 
L 356.970774 220.77498 
L 358.38479 241.192749 
L 358.754203 243.872767 
L 359.00333 244.414746 
L 359.114472 244.292867 
L 359.293694 243.62334 
L 359.585702 241.382091 
L 360.06216 235.504866 
L 361.848394 211.324823 
L 362.658275 203.927644 
L 363.153506 201.101814 
L 363.417689 200.436877 
L 363.608518 200.35727 
L 363.785455 200.552978 
L 364.107335 201.393543 
L 364.816568 204.127878 
L 365.573168 207.817404 
L 366.730019 213.619981 
L 367.309945 215.54473 
L 367.645785 216.112631 
L 367.839193 216.1665 
L 368.011604 216.001308 
L 368.24669 215.380618 
L 368.517208 213.959794 
L 368.879525 210.542636 
L 369.302172 203.953594 
L 369.885837 190.519399 
L 371.657769 146.203766 
L 372.275572 137.655573 
L 373.076139 129.838825 
L 373.793484 124.61255 
L 374.261002 122.627429 
L 374.570778 122.120924 
L 374.696052 122.148801 
L 374.839954 122.380409 
L 375.049155 123.153716 
L 375.343584 125.237908 
L 375.749929 130.056837 
L 376.507077 142.786255 
L 377.369663 156.147093 
L 377.740948 159.274148 
L 377.984512 160.104804 
L 378.128291 160.144061 
L 378.298227 159.794011 
L 378.577216 158.402345 
L 378.959566 155.060776 
L 379.40417 149.072868 
L 379.937689 138.544208 
L 380.895167 113.772343 
L 382.670504 68.037385 
L 383.400601 55.840012 
L 383.93881 49.862421 
L 384.295452 47.907746 
L 384.543128 47.525793 
L 384.721511 47.675382 
L 384.950113 48.306696 
L 385.267454 49.933865 
L 385.655512 53.225183 
L 386.143676 59.508067 
L 387.29688 75.02531 
L 387.694191 77.706614 
L 387.924096 78.237351 
L 388.040258 78.180413 
L 388.196696 77.748887 
L 388.477925 76.003606 
L 388.909456 71.461353 
L 389.597243 61.528055 
L 390.544053 43.917023 
L 391.300665 31.77262 
L 391.885651 25.645516 
L 392.328231 22.783225 
L 392.637444 21.809593 
L 392.843641 21.626007 
L 393.029781 21.74518 
L 393.288727 22.300292 
L 393.602534 23.541449 
L 393.968385 25.884217 
L 394.451827 30.717688 
L 395.177381 40.849769 
L 396.702348 62.740018 
L 397.110541 65.714435 
L 397.314992 66.216843 
L 397.422796 66.181767 
L 397.59213 65.69331 
L 397.847941 63.953346 
L 398.229638 59.30373 
L 398.841478 48.26587 
L 400.108882 24.608562 
L 400.601434 19.16725 
L 401.109602 15.736505 
L 401.62432 13.67764 
L 401.967202 13.065306 
L 402.234009 12.984861 
L 402.495611 13.191426 
L 402.764174 13.692569 
L 403.098968 14.846467 
L 403.453299 16.924973 
L 403.926128 21.254389 
L 404.446784 28.260067 
L 405.074809 40.148071 
L 406.96338 78.551054 
L 407.394283 82.764704 
L 407.716375 84.075509 
L 407.901356 84.145262 
L 408.065304 83.84909 
L 408.343401 82.763902 
L 408.917295 79.336729 
L 409.946368 73.244638 
L 410.574703 69.484972 
L 411.090152 64.864713 
L 411.791204 56.318638 
L 412.818061 43.776644 
L 413.171809 41.613366 
L 413.422344 41.097625 
L 413.539932 41.134743 
L 413.710699 41.487389 
L 413.995762 42.798707 
L 414.394693 45.934468 
L 414.882272 51.591735 
L 415.73813 64.904018 
L 416.725363 78.988341 
L 417.232922 83.899775 
L 417.578293 85.54425 
L 417.782907 85.802939 
L 417.946895 85.676068 
L 418.207807 85.020496 
L 419.485636 80.980692 
L 419.624981 81.039894 
L 419.831171 81.514526 
L 420.114658 83.030672 
L 420.470171 86.440927 
L 420.998991 94.124263 
L 422.361999 118.448646 
L 422.361999 118.448646 
" clip-path="url(#p658d2a3c88)" style="fill: none; stroke: #3ea44e"/>
   </g>
   <g id="legend_1">
    <g id="patch_5">
     <path d="M 332.945749 50.862146 
L 418.361999 50.862146 
L 418.361999 6.834646 
L 332.945749 6.834646 
z
" style="fill: #ffffff; stroke: #000000; stroke-linejoin: miter"/>
    </g>
    <g id="line2d_14">
     <path d="M 339.345749 16.513396 
L 347.345749 16.513396 
L 355.345749 16.513396 
" style="fill: none; stroke: #009afa; stroke-linejoin: miter"/>
    </g>
    <g id="text_13">
     <!-- GXBeam -->
     <g transform="translate(361.745749 19.313396) scale(0.08 -0.08)">
      <defs>
       <path id="DejaVuSans-47" d="M 3809 666 
L 3809 1919 
L 2778 1919 
L 2778 2438 
L 4434 2438 
L 4434 434 
Q 4069 175 3628 42 
Q 3188 -91 2688 -91 
Q 1594 -91 976 548 
Q 359 1188 359 2328 
Q 359 3472 976 4111 
Q 1594 4750 2688 4750 
Q 3144 4750 3555 4637 
Q 3966 4525 4313 4306 
L 4313 3634 
Q 3963 3931 3569 4081 
Q 3175 4231 2741 4231 
Q 1884 4231 1454 3753 
Q 1025 3275 1025 2328 
Q 1025 1384 1454 906 
Q 1884 428 2741 428 
Q 3075 428 3337 486 
Q 3600 544 3809 666 
z
" transform="scale(0.015625)"/>
       <path id="DejaVuSans-58" d="M 403 4666 
L 1081 4666 
L 2241 2931 
L 3406 4666 
L 4084 4666 
L 2584 2425 
L 4184 0 
L 3506 0 
L 2194 1984 
L 872 0 
L 191 0 
L 1856 2491 
L 403 4666 
z
" transform="scale(0.015625)"/>
       <path id="DejaVuSans-42" d="M 1259 2228 
L 1259 519 
L 2272 519 
Q 2781 519 3026 730 
Q 3272 941 3272 1375 
Q 3272 1813 3026 2020 
Q 2781 2228 2272 2228 
L 1259 2228 
z
M 1259 4147 
L 1259 2741 
L 2194 2741 
Q 2656 2741 2882 2914 
Q 3109 3088 3109 3444 
Q 3109 3797 2882 3972 
Q 2656 4147 2194 4147 
L 1259 4147 
z
M 628 4666 
L 2241 4666 
Q 2963 4666 3353 4366 
Q 3744 4066 3744 3513 
Q 3744 3084 3544 2831 
Q 3344 2578 2956 2516 
Q 3422 2416 3680 2098 
Q 3938 1781 3938 1306 
Q 3938 681 3513 340 
Q 3088 0 2303 0 
L 628 0 
L 628 4666 
z
" transform="scale(0.015625)"/>
      </defs>
      <use xlink:href="#DejaVuSans-47"/>
      <use xlink:href="#DejaVuSans-58" x="77.490234"/>
      <use xlink:href="#DejaVuSans-42" x="145.996094"/>
      <use xlink:href="#DejaVuSans-65" x="214.599609"/>
      <use xlink:href="#DejaVuSans-61" x="276.123047"/>
      <use xlink:href="#DejaVuSans-6d" x="337.402344"/>
     </g>
    </g>
    <g id="line2d_15">
     <path d="M 339.345749 28.255896 
L 347.345749 28.255896 
L 355.345749 28.255896 
" style="fill: none; stroke: #e36f47; stroke-linejoin: miter"/>
    </g>
    <g id="text_14">
     <!-- ODEProblem -->
     <g transform="translate(361.745749 31.055896) scale(0.08 -0.08)">
      <defs>
       <path id="DejaVuSans-4f" d="M 2522 4238 
Q 1834 4238 1429 3725 
Q 1025 3213 1025 2328 
Q 1025 1447 1429 934 
Q 1834 422 2522 422 
Q 3209 422 3611 934 
Q 4013 1447 4013 2328 
Q 4013 3213 3611 3725 
Q 3209 4238 2522 4238 
z
M 2522 4750 
Q 3503 4750 4090 4092 
Q 4678 3434 4678 2328 
Q 4678 1225 4090 567 
Q 3503 -91 2522 -91 
Q 1538 -91 948 565 
Q 359 1222 359 2328 
Q 359 3434 948 4092 
Q 1538 4750 2522 4750 
z
" transform="scale(0.015625)"/>
       <path id="DejaVuSans-44" d="M 1259 4147 
L 1259 519 
L 2022 519 
Q 2988 519 3436 956 
Q 3884 1394 3884 2338 
Q 3884 3275 3436 3711 
Q 2988 4147 2022 4147 
L 1259 4147 
z
M 628 4666 
L 1925 4666 
Q 3281 4666 3915 4102 
Q 4550 3538 4550 2338 
Q 4550 1131 3912 565 
Q 3275 0 1925 0 
L 628 0 
L 628 4666 
z
" transform="scale(0.015625)"/>
       <path id="DejaVuSans-45" d="M 628 4666 
L 3578 4666 
L 3578 4134 
L 1259 4134 
L 1259 2753 
L 3481 2753 
L 3481 2222 
L 1259 2222 
L 1259 531 
L 3634 531 
L 3634 0 
L 628 0 
L 628 4666 
z
" transform="scale(0.015625)"/>
       <path id="DejaVuSans-62" d="M 3116 1747 
Q 3116 2381 2855 2742 
Q 2594 3103 2138 3103 
Q 1681 3103 1420 2742 
Q 1159 2381 1159 1747 
Q 1159 1113 1420 752 
Q 1681 391 2138 391 
Q 2594 391 2855 752 
Q 3116 1113 3116 1747 
z
M 1159 2969 
Q 1341 3281 1617 3432 
Q 1894 3584 2278 3584 
Q 2916 3584 3314 3078 
Q 3713 2572 3713 1747 
Q 3713 922 3314 415 
Q 2916 -91 2278 -91 
Q 1894 -91 1617 61 
Q 1341 213 1159 525 
L 1159 0 
L 581 0 
L 581 4863 
L 1159 4863 
L 1159 2969 
z
" transform="scale(0.015625)"/>
       <path id="DejaVuSans-6c" d="M 603 4863 
L 1178 4863 
L 1178 0 
L 603 0 
L 603 4863 
z
" transform="scale(0.015625)"/>
      </defs>
      <use xlink:href="#DejaVuSans-4f"/>
      <use xlink:href="#DejaVuSans-44" x="78.710938"/>
      <use xlink:href="#DejaVuSans-45" x="155.712891"/>
      <use xlink:href="#DejaVuSans-50" x="218.896484"/>
      <use xlink:href="#DejaVuSans-72" x="277.449219"/>
      <use xlink:href="#DejaVuSans-6f" x="316.3125"/>
      <use xlink:href="#DejaVuSans-62" x="377.494141"/>
      <use xlink:href="#DejaVuSans-6c" x="440.970703"/>
      <use xlink:href="#DejaVuSans-65" x="468.753906"/>
      <use xlink:href="#DejaVuSans-6d" x="530.277344"/>
     </g>
    </g>
    <g id="line2d_16">
     <path d="M 339.345749 39.998396 
L 347.345749 39.998396 
L 355.345749 39.998396 
" style="fill: none; stroke: #3ea44e; stroke-linejoin: miter"/>
    </g>
    <g id="text_15">
     <!-- DAEProblem -->
     <g transform="translate(361.745749 42.798396) scale(0.08 -0.08)">
      <defs>
       <path id="DejaVuSans-41" d="M 2188 4044 
L 1331 1722 
L 3047 1722 
L 2188 4044 
z
M 1831 4666 
L 2547 4666 
L 4325 0 
L 3669 0 
L 3244 1197 
L 1141 1197 
L 716 0 
L 50 0 
L 1831 4666 
z
" transform="scale(0.015625)"/>
      </defs>
      <use xlink:href="#DejaVuSans-44"/>
      <use xlink:href="#DejaVuSans-41" x="75.251953"/>
      <use xlink:href="#DejaVuSans-45" x="143.660156"/>
      <use xlink:href="#DejaVuSans-50" x="206.84375"/>
      <use xlink:href="#DejaVuSans-72" x="265.396484"/>
      <use xlink:href="#DejaVuSans-6f" x="304.259766"/>
      <use xlink:href="#DejaVuSans-62" x="365.441406"/>
      <use xlink:href="#DejaVuSans-6c" x="428.917969"/>
      <use xlink:href="#DejaVuSans-65" x="456.701172"/>
      <use xlink:href="#DejaVuSans-6d" x="518.224609"/>
     </g>
    </g>
   </g>
  </g>
 </g>
 <defs>
  <clipPath id="p658d2a3c88">
   <rect x="41.781593" y="2.834646" width="380.580407" height="255.390709"/>
  </clipPath>
 </defs>
</svg>
