<?xml version="1.0" encoding="utf-8" standalone="no"?>
<!DOCTYPE svg PUBLIC "-//W3C//DTD SVG 1.1//EN"
  "http://www.w3.org/Graphics/SVG/1.1/DTD/svg11.dtd">
<svg height="288pt" version="1.1" viewBox="0 0 432 288" width="432pt" xmlns="http://www.w3.org/2000/svg" xmlns:xlink="http://www.w3.org/1999/xlink">
 <metadata>
  <rdf:RDF xmlns:cc="http://creativecommons.org/ns#" xmlns:dc="http://purl.org/dc/elements/1.1/" xmlns:rdf="http://www.w3.org/1999/02/22-rdf-syntax-ns#">
   <cc:Work>
    <dc:type rdf:resource="http://purl.org/dc/dcmitype/StillImage"/>
    <dc:date>2021-10-12T23:42:39.265212</dc:date>
    <dc:format>image/svg+xml</dc:format>
    <dc:creator>
     <cc:Agent>
      <dc:title>Matplotlib v3.4.2, https://matplotlib.org/</dc:title>
     </cc:Agent>
    </dc:creator>
   </cc:Work>
  </rdf:RDF>
 </metadata>
 <defs>
  <style type="text/css">*{stroke-linecap:butt;stroke-linejoin:round;}</style>
 </defs>
 <g id="figure_1">
  <g id="patch_1">
   <path d="M 0 288 
L 432 288 
L 432 0 
L 0 0 
z
" style="fill:#ffffff;"/>
  </g>
  <g id="axes_1">
   <g id="patch_2">
    <path d="M 42.933593 258.225354 
L 422.361999 258.225354 
L 422.361999 2.834646 
L 42.933593 2.834646 
z
" style="fill:#ffffff;"/>
   </g>
   <g id="line2d_1">
    <path clip-path="url(#p8dd556d3ee)" d="M 42.933593 106.690075 
L 43.69245 106.77969 
L 44.641021 107.08286 
L 45.96902 107.966197 
L 47.297019 109.212418 
L 48.435305 110.70905 
L 50.901589 114.822888 
L 52.419303 117.757038 
L 54.506159 122.688 
L 56.78273 128.571208 
L 58.679872 133.330831 
L 61.905013 140.423726 
L 67.027297 151.089608 
L 68.355296 152.906745 
L 69.493581 154.117345 
L 70.252438 154.656697 
L 71.201009 155.030296 
L 72.529008 155.153494 
L 73.667294 154.959409 
L 74.236436 154.642462 
L 74.995293 153.986462 
L 75.943864 152.79196 
L 77.082149 151.095107 
L 78.410149 148.804458 
L 81.445576 143.355837 
L 83.342718 140.215221 
L 87.137002 133.233652 
L 89.223858 129.04502 
L 91.121 125.251098 
L 94.535856 117.492133 
L 96.812426 112.149327 
L 98.140426 109.843613 
L 99.658139 107.762479 
L 100.796425 106.635111 
L 102.314138 105.630735 
L 104.590709 104.370313 
L 105.159851 104.282274 
L 106.108422 104.378848 
L 107.246708 104.801156 
L 108.005564 105.306063 
L 108.764421 106.042663 
L 109.902706 107.637004 
L 111.42042 110.229575 
L 112.558705 112.625487 
L 113.696991 115.718265 
L 115.02499 120.051114 
L 116.352989 125.045174 
L 118.439846 134.088915 
L 120.716416 143.368758 
L 122.423844 149.641429 
L 123.941557 154.304281 
L 125.8387 159.256471 
L 126.787271 161.249141 
L 127.735842 162.710281 
L 128.684413 163.756804 
L 129.822698 164.694951 
L 130.771269 165.189077 
L 131.71984 165.393948 
L 133.806696 165.583119 
L 134.565553 165.483257 
L 135.32441 165.127358 
L 135.893552 164.587102 
L 136.652409 163.562115 
L 137.411266 162.14207 
L 138.170123 160.343076 
L 139.118694 157.388297 
L 140.067265 153.732364 
L 141.964407 145.302049 
L 144.051263 135.187346 
L 148.035261 115.675985 
L 149.552975 109.083104 
L 150.880974 104.419511 
L 152.398688 100.002657 
L 153.726687 96.904344 
L 156.192972 92.116945 
L 157.331257 90.273158 
L 158.090114 89.368556 
L 159.038685 88.623027 
L 159.797542 88.253655 
L 160.746113 88.04259 
L 161.50497 88.129222 
L 162.643255 88.53807 
L 165.299254 89.877185 
L 166.058111 90.711086 
L 166.816967 91.91616 
L 167.575824 93.543098 
L 168.524395 96.208328 
L 169.472966 99.700179 
L 170.611251 104.920729 
L 172.887822 116.946985 
L 175.354107 131.15007 
L 177.820391 146.56554 
L 180.666104 164.664319 
L 182.563246 174.887835 
L 184.270674 182.971305 
L 186.736959 193.486149 
L 187.875244 197.666568 
L 188.823815 200.377022 
L 189.582672 201.937818 
L 190.151814 202.747198 
L 190.720957 203.235885 
L 191.2901 203.388705 
L 191.859242 203.221846 
L 192.428385 202.792383 
L 193.376956 201.664439 
L 195.843241 198.223841 
L 196.602097 196.797005 
L 197.550668 194.439537 
L 198.499239 191.326893 
L 199.44781 187.416908 
L 200.396381 182.461116 
L 201.534667 175.102202 
L 204.570094 154.506033 
L 206.846664 141.507601 
L 208.364378 132.60519 
L 209.502663 124.40991 
L 213.296947 95.487844 
L 214.814661 85.880965 
L 219.936944 56.990834 
L 220.885515 53.585932 
L 221.644372 51.55727 
L 222.213515 50.445856 
L 222.782657 49.825226 
L 223.162086 49.726604 
L 223.541514 49.875031 
L 223.920943 50.238695 
L 224.490085 51.125221 
L 226.007799 53.766311 
L 226.766656 54.612973 
L 227.335798 54.976897 
L 227.904941 55.13244 
L 228.284369 55.082355 
L 228.663798 54.88259 
L 229.23294 54.23109 
L 229.802083 53.151365 
L 231.699225 48.902893 
L 232.078653 48.606978 
L 232.458082 48.635391 
L 232.83751 48.988121 
L 233.406653 50.056111 
L 233.975795 51.682721 
L 234.734652 54.720764 
L 235.493509 59.030959 
L 236.252366 64.757242 
L 241.184935 107.717644 
L 243.65122 132.685484 
L 246.117504 159.158108 
L 247.066075 166.352658 
L 248.773503 177.017397 
L 250.291217 185.568772 
L 251.80893 194.05472 
L 254.275215 209.50816 
L 254.844358 211.567387 
L 255.603215 213.337404 
L 256.931214 215.967215 
L 260.156355 223.586858 
L 260.915212 226.281858 
L 262.243212 231.304493 
L 262.62264 232.040825 
L 263.002068 232.229003 
L 263.191783 232.09338 
L 263.571211 231.346184 
L 264.140354 229.188376 
L 265.088925 223.958685 
L 271.539208 186.092414 
L 272.487779 177.887236 
L 274.574635 158.929283 
L 276.282063 145.7267 
L 277.04092 141.182462 
L 277.799776 137.900554 
L 279.507204 131.734493 
L 280.266061 127.816446 
L 284.060345 106.418258 
L 284.629488 104.347435 
L 285.008916 103.475279 
L 285.388344 103.044352 
L 285.578059 103.009498 
L 285.957487 103.315984 
L 286.336915 104.051349 
L 286.906058 105.713795 
L 288.8032 111.889361 
L 289.372343 112.95198 
L 289.751771 113.270997 
L 290.1312 113.241617 
L 290.510628 112.784193 
L 290.890056 111.833603 
L 291.459199 109.511481 
L 292.028342 105.994937 
L 292.787198 99.716801 
L 294.68434 82.870172 
L 295.253483 79.696814 
L 295.632911 78.41814 
L 296.01234 77.878503 
L 296.202054 77.914766 
L 296.391768 78.160999 
L 296.771197 79.285794 
L 297.150625 81.278216 
L 297.719768 85.877137 
L 298.478624 94.342278 
L 299.996338 112.093642 
L 300.755195 118.214716 
L 301.514052 122.428577 
L 302.272909 125.421728 
L 303.031765 127.625595 
L 304.170051 130.542111 
L 304.739193 132.922106 
L 305.308336 136.686903 
L 305.877478 141.983532 
L 306.636335 151.255719 
L 308.154049 170.660791 
L 308.912906 177.160025 
L 309.482048 180.28458 
L 310.051191 182.345554 
L 310.620334 183.671934 
L 310.999762 184.060707 
L 311.37919 184.002739 
L 311.758619 183.573116 
L 312.327761 182.718149 
L 312.517476 182.620294 
L 312.70719 182.733637 
L 312.896904 183.120984 
L 313.276332 184.893471 
L 313.655761 188.156627 
L 314.224903 195.63859 
L 316.31176 227.120573 
L 317.260331 236.734054 
L 318.398616 246.211624 
L 318.967758 249.700433 
L 319.347187 250.884174 
L 319.536901 250.997315 
L 319.726615 250.751256 
L 320.106044 249.139716 
L 320.485472 246.143694 
L 321.434043 235.446192 
L 322.1929 228.182107 
L 322.572328 226.00682 
L 322.951757 224.833989 
L 323.331185 224.513929 
L 323.710614 224.738545 
L 324.279756 225.516719 
L 325.038613 226.590511 
L 325.607756 227.04823 
L 326.176898 227.359611 
L 326.556327 228.049439 
L 326.935755 229.478079 
L 327.504898 232.974694 
L 328.263754 237.876602 
L 328.643183 239.19402 
L 328.832897 239.400659 
L 329.022611 239.259099 
L 329.212325 238.773114 
L 329.591754 236.791985 
L 330.160896 231.671867 
L 331.299182 217.742658 
L 332.627181 201.533593 
L 335.662608 168.422468 
L 336.421465 164.073146 
L 337.55975 158.150765 
L 340.405463 140.825165 
L 340.974606 135.563482 
L 342.871748 116.118963 
L 343.440891 113.180472 
L 344.76889 107.367682 
L 346.855746 95.43161 
L 347.994032 92.024632 
L 348.37346 90.140719 
L 348.752888 87.445541 
L 349.322031 81.61545 
L 350.270602 71.566934 
L 350.65003 69.268591 
L 351.029459 68.139063 
L 351.219173 67.969568 
L 351.408887 68.038033 
L 351.788316 68.712455 
L 352.357458 69.850529 
L 352.547172 69.943448 
L 352.736887 69.811909 
L 353.116315 68.855206 
L 354.064886 65.585146 
L 354.2546 65.356181 
L 354.444314 65.40406 
L 354.634029 65.765712 
L 355.013457 67.522244 
L 355.5826 72.320195 
L 356.531171 80.916127 
L 356.910599 82.648701 
L 357.100313 82.887 
L 357.290028 82.665225 
L 357.669456 80.971545 
L 358.428313 75.918297 
L 358.618027 75.255682 
L 358.807741 75.03529 
L 358.997455 75.249881 
L 359.376884 76.797153 
L 359.946026 80.957942 
L 360.894597 88.658408 
L 361.084312 89.349447 
L 361.274026 89.466913 
L 361.46374 89.009793 
L 361.843168 86.724486 
L 362.602025 81.001587 
L 362.981454 79.674504 
L 363.171168 79.547501 
L 363.360882 79.756838 
L 363.550596 80.307562 
L 363.930025 82.46948 
L 364.499167 87.979038 
L 365.06831 93.170587 
L 365.258024 94.048534 
L 365.447738 94.383037 
L 365.637452 94.192819 
L 366.016881 92.551979 
L 366.965452 86.313298 
L 367.155166 85.742504 
L 367.34488 85.667639 
L 367.534594 86.162893 
L 367.914023 88.871005 
L 368.483165 96.159569 
L 369.242022 105.939549 
L 369.621451 108.426898 
L 369.811165 108.997174 
L 370.000879 109.174788 
L 370.190593 109.026215 
L 370.759736 108.094056 
L 370.94945 108.247121 
L 371.139164 108.884164 
L 371.518593 111.818458 
L 372.087735 120.043898 
L 373.226021 138.931135 
L 373.605449 142.257179 
L 373.984877 143.474596 
L 374.174592 143.480913 
L 374.55402 143.22645 
L 374.743734 143.385565 
L 374.933448 143.919643 
L 375.312877 146.326641 
L 375.692305 150.818974 
L 376.261448 161.465816 
L 377.020305 176.005193 
L 377.589447 182.724228 
L 377.968876 184.790652 
L 378.348304 185.400597 
L 378.727732 185.761605 
L 378.917447 186.266181 
L 379.296875 188.33044 
L 379.866018 193.793345 
L 381.194017 209.342826 
L 381.573446 210.804498 
L 381.76316 210.787635 
L 381.952874 210.3412 
L 382.332302 208.471995 
L 383.091159 202.712269 
L 383.660302 199.144322 
L 383.850016 198.849567 
L 384.03973 199.186876 
L 384.419159 201.461396 
L 384.988301 205.643429 
L 385.36773 206.799443 
L 385.557444 206.867484 
L 386.316301 206.430887 
L 386.506015 206.229814 
L 386.695729 205.795497 
L 387.075157 203.918972 
L 387.6443 200.135678 
L 387.834014 199.534138 
L 388.023728 199.58274 
L 388.213443 200.31215 
L 388.782585 204.811195 
L 389.351728 208.489589 
L 390.490013 213.023702 
L 390.679727 213.084986 
L 390.869441 212.609103 
L 391.24887 210.093951 
L 391.818013 205.543326 
L 392.007727 204.819708 
L 392.197441 204.611101 
L 392.387155 204.79295 
L 392.956298 205.720593 
L 393.146012 205.665088 
L 393.52544 204.856034 
L 394.094583 202.860637 
L 394.474011 200.484664 
L 394.85344 196.228974 
L 396.750582 169.826599 
L 397.319724 165.796896 
L 397.888867 162.474221 
L 398.647724 156.029159 
L 399.406581 147.804085 
L 400.165437 138.721232 
L 400.544866 137.149489 
L 400.73458 137.06201 
L 401.303723 137.093578 
L 401.683151 137.038569 
L 401.872865 137.061302 
L 402.062579 136.933211 
L 402.252294 136.382941 
L 402.442008 135.12896 
L 402.821436 130.281692 
L 404.528864 102.841669 
L 404.908293 100.368428 
L 405.477435 97.725238 
L 406.236292 93.482287 
L 406.61572 89.072671 
L 407.564291 74.476226 
L 408.323148 66.339003 
L 408.512862 65.591589 
L 408.702577 65.528308 
L 409.082005 66.473454 
L 409.840862 68.426457 
L 410.030576 68.688491 
L 410.22029 68.548603 
L 410.410004 67.765541 
L 410.789433 63.965607 
L 412.307146 42.952226 
L 412.876289 38.296611 
L 413.255717 36.775631 
L 413.82486 35.467342 
L 414.204288 33.275901 
L 414.963145 25.003948 
L 416.291145 10.55529 
L 416.480859 10.062685 
L 416.670573 10.431539 
L 417.050002 13.049844 
L 417.998573 22.253069 
L 418.567715 27.957324 
L 418.947144 29.665171 
L 419.136858 29.776022 
L 419.326572 29.524604 
L 419.895715 28.213693 
L 420.085429 28.102998 
L 420.275143 28.309251 
L 420.654571 29.636716 
L 421.034 31.951609 
L 421.603142 37.203909 
L 422.361999 46.913146 
L 422.361999 46.913146 
" style="fill:none;stroke:#009afa;"/>
   </g>
   <g id="matplotlib.axis_1">
    <g id="xtick_1">
     <g id="line2d_2">
      <defs>
       <path d="M 0 0 
L 0 -2.5 
" id="m5f592f9909" style="stroke:#000000;stroke-width:0.5;"/>
      </defs>
      <g>
       <use style="stroke:#000000;stroke-width:0.5;" x="42.933593" xlink:href="#m5f592f9909" y="258.225354"/>
      </g>
     </g>
     <g id="text_1">
      <!-- $0.0$ -->
      <g transform="translate(36.533593 267.804104)scale(0.08 -0.08)">
       <defs>
        <path d="M 2034 4250 
Q 1547 4250 1301 3770 
Q 1056 3291 1056 2328 
Q 1056 1369 1301 889 
Q 1547 409 2034 409 
Q 2525 409 2770 889 
Q 3016 1369 3016 2328 
Q 3016 3291 2770 3770 
Q 2525 4250 2034 4250 
z
M 2034 4750 
Q 2819 4750 3233 4129 
Q 3647 3509 3647 2328 
Q 3647 1150 3233 529 
Q 2819 -91 2034 -91 
Q 1250 -91 836 529 
Q 422 1150 422 2328 
Q 422 3509 836 4129 
Q 1250 4750 2034 4750 
z
" id="DejaVuSans-30" transform="scale(0.015625)"/>
        <path d="M 684 794 
L 1344 794 
L 1344 0 
L 684 0 
L 684 794 
z
" id="DejaVuSans-2e" transform="scale(0.015625)"/>
       </defs>
       <use transform="translate(0 0.78125)" xlink:href="#DejaVuSans-30"/>
       <use transform="translate(63.623047 0.78125)" xlink:href="#DejaVuSans-2e"/>
       <use transform="translate(95.410156 0.78125)" xlink:href="#DejaVuSans-30"/>
      </g>
     </g>
    </g>
    <g id="xtick_2">
     <g id="line2d_3">
      <g>
       <use style="stroke:#000000;stroke-width:0.5;" x="137.790694" xlink:href="#m5f592f9909" y="258.225354"/>
      </g>
     </g>
     <g id="text_2">
      <!-- $0.5$ -->
      <g transform="translate(131.390694 267.804104)scale(0.08 -0.08)">
       <defs>
        <path d="M 691 4666 
L 3169 4666 
L 3169 4134 
L 1269 4134 
L 1269 2991 
Q 1406 3038 1543 3061 
Q 1681 3084 1819 3084 
Q 2600 3084 3056 2656 
Q 3513 2228 3513 1497 
Q 3513 744 3044 326 
Q 2575 -91 1722 -91 
Q 1428 -91 1123 -41 
Q 819 9 494 109 
L 494 744 
Q 775 591 1075 516 
Q 1375 441 1709 441 
Q 2250 441 2565 725 
Q 2881 1009 2881 1497 
Q 2881 1984 2565 2268 
Q 2250 2553 1709 2553 
Q 1456 2553 1204 2497 
Q 953 2441 691 2322 
L 691 4666 
z
" id="DejaVuSans-35" transform="scale(0.015625)"/>
       </defs>
       <use transform="translate(0 0.78125)" xlink:href="#DejaVuSans-30"/>
       <use transform="translate(63.623047 0.78125)" xlink:href="#DejaVuSans-2e"/>
       <use transform="translate(95.410156 0.78125)" xlink:href="#DejaVuSans-35"/>
      </g>
     </g>
    </g>
    <g id="xtick_3">
     <g id="line2d_4">
      <g>
       <use style="stroke:#000000;stroke-width:0.5;" x="232.647796" xlink:href="#m5f592f9909" y="258.225354"/>
      </g>
     </g>
     <g id="text_3">
      <!-- $1.0$ -->
      <g transform="translate(226.247796 267.804104)scale(0.08 -0.08)">
       <defs>
        <path d="M 794 531 
L 1825 531 
L 1825 4091 
L 703 3866 
L 703 4441 
L 1819 4666 
L 2450 4666 
L 2450 531 
L 3481 531 
L 3481 0 
L 794 0 
L 794 531 
z
" id="DejaVuSans-31" transform="scale(0.015625)"/>
       </defs>
       <use transform="translate(0 0.78125)" xlink:href="#DejaVuSans-31"/>
       <use transform="translate(63.623047 0.78125)" xlink:href="#DejaVuSans-2e"/>
       <use transform="translate(95.410156 0.78125)" xlink:href="#DejaVuSans-30"/>
      </g>
     </g>
    </g>
    <g id="xtick_4">
     <g id="line2d_5">
      <g>
       <use style="stroke:#000000;stroke-width:0.5;" x="327.504898" xlink:href="#m5f592f9909" y="258.225354"/>
      </g>
     </g>
     <g id="text_4">
      <!-- $1.5$ -->
      <g transform="translate(321.104898 267.804104)scale(0.08 -0.08)">
       <use transform="translate(0 0.09375)" xlink:href="#DejaVuSans-31"/>
       <use transform="translate(63.623047 0.09375)" xlink:href="#DejaVuSans-2e"/>
       <use transform="translate(95.410156 0.09375)" xlink:href="#DejaVuSans-35"/>
      </g>
     </g>
    </g>
    <g id="xtick_5">
     <g id="line2d_6">
      <g>
       <use style="stroke:#000000;stroke-width:0.5;" x="422.361999" xlink:href="#m5f592f9909" y="258.225354"/>
      </g>
     </g>
     <g id="text_5">
      <!-- $2.0$ -->
      <g transform="translate(415.961999 267.804104)scale(0.08 -0.08)">
       <defs>
        <path d="M 1228 531 
L 3431 531 
L 3431 0 
L 469 0 
L 469 531 
Q 828 903 1448 1529 
Q 2069 2156 2228 2338 
Q 2531 2678 2651 2914 
Q 2772 3150 2772 3378 
Q 2772 3750 2511 3984 
Q 2250 4219 1831 4219 
Q 1534 4219 1204 4116 
Q 875 4013 500 3803 
L 500 4441 
Q 881 4594 1212 4672 
Q 1544 4750 1819 4750 
Q 2544 4750 2975 4387 
Q 3406 4025 3406 3419 
Q 3406 3131 3298 2873 
Q 3191 2616 2906 2266 
Q 2828 2175 2409 1742 
Q 1991 1309 1228 531 
z
" id="DejaVuSans-32" transform="scale(0.015625)"/>
       </defs>
       <use transform="translate(0 0.78125)" xlink:href="#DejaVuSans-32"/>
       <use transform="translate(63.623047 0.78125)" xlink:href="#DejaVuSans-2e"/>
       <use transform="translate(95.410156 0.78125)" xlink:href="#DejaVuSans-30"/>
      </g>
     </g>
    </g>
    <g id="text_6">
     <!-- Time (s) -->
     <g transform="translate(210.285999 281.826136)scale(0.11 -0.11)">
      <defs>
       <path d="M -19 4666 
L 3928 4666 
L 3928 4134 
L 2272 4134 
L 2272 0 
L 1638 0 
L 1638 4134 
L -19 4134 
L -19 4666 
z
" id="DejaVuSans-54" transform="scale(0.015625)"/>
       <path d="M 603 3500 
L 1178 3500 
L 1178 0 
L 603 0 
L 603 3500 
z
M 603 4863 
L 1178 4863 
L 1178 4134 
L 603 4134 
L 603 4863 
z
" id="DejaVuSans-69" transform="scale(0.015625)"/>
       <path d="M 3328 2828 
Q 3544 3216 3844 3400 
Q 4144 3584 4550 3584 
Q 5097 3584 5394 3201 
Q 5691 2819 5691 2113 
L 5691 0 
L 5113 0 
L 5113 2094 
Q 5113 2597 4934 2840 
Q 4756 3084 4391 3084 
Q 3944 3084 3684 2787 
Q 3425 2491 3425 1978 
L 3425 0 
L 2847 0 
L 2847 2094 
Q 2847 2600 2669 2842 
Q 2491 3084 2119 3084 
Q 1678 3084 1418 2786 
Q 1159 2488 1159 1978 
L 1159 0 
L 581 0 
L 581 3500 
L 1159 3500 
L 1159 2956 
Q 1356 3278 1631 3431 
Q 1906 3584 2284 3584 
Q 2666 3584 2933 3390 
Q 3200 3197 3328 2828 
z
" id="DejaVuSans-6d" transform="scale(0.015625)"/>
       <path d="M 3597 1894 
L 3597 1613 
L 953 1613 
Q 991 1019 1311 708 
Q 1631 397 2203 397 
Q 2534 397 2845 478 
Q 3156 559 3463 722 
L 3463 178 
Q 3153 47 2828 -22 
Q 2503 -91 2169 -91 
Q 1331 -91 842 396 
Q 353 884 353 1716 
Q 353 2575 817 3079 
Q 1281 3584 2069 3584 
Q 2775 3584 3186 3129 
Q 3597 2675 3597 1894 
z
M 3022 2063 
Q 3016 2534 2758 2815 
Q 2500 3097 2075 3097 
Q 1594 3097 1305 2825 
Q 1016 2553 972 2059 
L 3022 2063 
z
" id="DejaVuSans-65" transform="scale(0.015625)"/>
       <path id="DejaVuSans-20" transform="scale(0.015625)"/>
       <path d="M 1984 4856 
Q 1566 4138 1362 3434 
Q 1159 2731 1159 2009 
Q 1159 1288 1364 580 
Q 1569 -128 1984 -844 
L 1484 -844 
Q 1016 -109 783 600 
Q 550 1309 550 2009 
Q 550 2706 781 3412 
Q 1013 4119 1484 4856 
L 1984 4856 
z
" id="DejaVuSans-28" transform="scale(0.015625)"/>
       <path d="M 2834 3397 
L 2834 2853 
Q 2591 2978 2328 3040 
Q 2066 3103 1784 3103 
Q 1356 3103 1142 2972 
Q 928 2841 928 2578 
Q 928 2378 1081 2264 
Q 1234 2150 1697 2047 
L 1894 2003 
Q 2506 1872 2764 1633 
Q 3022 1394 3022 966 
Q 3022 478 2636 193 
Q 2250 -91 1575 -91 
Q 1294 -91 989 -36 
Q 684 19 347 128 
L 347 722 
Q 666 556 975 473 
Q 1284 391 1588 391 
Q 1994 391 2212 530 
Q 2431 669 2431 922 
Q 2431 1156 2273 1281 
Q 2116 1406 1581 1522 
L 1381 1569 
Q 847 1681 609 1914 
Q 372 2147 372 2553 
Q 372 3047 722 3315 
Q 1072 3584 1716 3584 
Q 2034 3584 2315 3537 
Q 2597 3491 2834 3397 
z
" id="DejaVuSans-73" transform="scale(0.015625)"/>
       <path d="M 513 4856 
L 1013 4856 
Q 1481 4119 1714 3412 
Q 1947 2706 1947 2009 
Q 1947 1309 1714 600 
Q 1481 -109 1013 -844 
L 513 -844 
Q 928 -128 1133 580 
Q 1338 1288 1338 2009 
Q 1338 2731 1133 3434 
Q 928 4138 513 4856 
z
" id="DejaVuSans-29" transform="scale(0.015625)"/>
      </defs>
      <use xlink:href="#DejaVuSans-54"/>
      <use x="57.958984" xlink:href="#DejaVuSans-69"/>
      <use x="85.742188" xlink:href="#DejaVuSans-6d"/>
      <use x="183.154297" xlink:href="#DejaVuSans-65"/>
      <use x="244.677734" xlink:href="#DejaVuSans-20"/>
      <use x="276.464844" xlink:href="#DejaVuSans-28"/>
      <use x="315.478516" xlink:href="#DejaVuSans-73"/>
      <use x="367.578125" xlink:href="#DejaVuSans-29"/>
     </g>
    </g>
   </g>
   <g id="matplotlib.axis_2">
    <g id="ytick_1">
     <g id="line2d_7">
      <defs>
       <path d="M 0 0 
L 2.5 0 
" id="me37e8eaca2" style="stroke:#000000;stroke-width:0.5;"/>
      </defs>
      <g>
       <use style="stroke:#000000;stroke-width:0.5;" x="42.933593" xlink:href="#me37e8eaca2" y="223.859163"/>
      </g>
     </g>
     <g id="text_7">
      <!-- $-20$ -->
      <g transform="translate(22.473593 226.898538)scale(0.08 -0.08)">
       <defs>
        <path d="M 678 2272 
L 4684 2272 
L 4684 1741 
L 678 1741 
L 678 2272 
z
" id="DejaVuSans-2212" transform="scale(0.015625)"/>
       </defs>
       <use transform="translate(0 0.78125)" xlink:href="#DejaVuSans-2212"/>
       <use transform="translate(83.789062 0.78125)" xlink:href="#DejaVuSans-32"/>
       <use transform="translate(147.412109 0.78125)" xlink:href="#DejaVuSans-30"/>
      </g>
     </g>
    </g>
    <g id="ytick_2">
     <g id="line2d_8">
      <g>
       <use style="stroke:#000000;stroke-width:0.5;" x="42.933593" xlink:href="#me37e8eaca2" y="165.274619"/>
      </g>
     </g>
     <g id="text_8">
      <!-- $-10$ -->
      <g transform="translate(22.473593 168.313994)scale(0.08 -0.08)">
       <use transform="translate(0 0.78125)" xlink:href="#DejaVuSans-2212"/>
       <use transform="translate(83.789062 0.78125)" xlink:href="#DejaVuSans-31"/>
       <use transform="translate(147.412109 0.78125)" xlink:href="#DejaVuSans-30"/>
      </g>
     </g>
    </g>
    <g id="ytick_3">
     <g id="line2d_9">
      <g>
       <use style="stroke:#000000;stroke-width:0.5;" x="42.933593" xlink:href="#me37e8eaca2" y="106.690075"/>
      </g>
     </g>
     <g id="text_9">
      <!-- $0$ -->
      <g transform="translate(34.313593 109.72945)scale(0.08 -0.08)">
       <use transform="translate(0 0.78125)" xlink:href="#DejaVuSans-30"/>
      </g>
     </g>
    </g>
    <g id="ytick_4">
     <g id="line2d_10">
      <g>
       <use style="stroke:#000000;stroke-width:0.5;" x="42.933593" xlink:href="#me37e8eaca2" y="48.105531"/>
      </g>
     </g>
     <g id="text_10">
      <!-- $10$ -->
      <g transform="translate(29.193593 51.144906)scale(0.08 -0.08)">
       <use transform="translate(0 0.78125)" xlink:href="#DejaVuSans-31"/>
       <use transform="translate(63.623047 0.78125)" xlink:href="#DejaVuSans-30"/>
      </g>
     </g>
    </g>
    <g id="text_11">
     <!-- Rodriguez Parameter $\theta_y$ (degree) -->
     <g transform="translate(15.063593 221.885)rotate(-90)scale(0.11 -0.11)">
      <defs>
       <path d="M 2841 2188 
Q 3044 2119 3236 1894 
Q 3428 1669 3622 1275 
L 4263 0 
L 3584 0 
L 2988 1197 
Q 2756 1666 2539 1819 
Q 2322 1972 1947 1972 
L 1259 1972 
L 1259 0 
L 628 0 
L 628 4666 
L 2053 4666 
Q 2853 4666 3247 4331 
Q 3641 3997 3641 3322 
Q 3641 2881 3436 2590 
Q 3231 2300 2841 2188 
z
M 1259 4147 
L 1259 2491 
L 2053 2491 
Q 2509 2491 2742 2702 
Q 2975 2913 2975 3322 
Q 2975 3731 2742 3939 
Q 2509 4147 2053 4147 
L 1259 4147 
z
" id="DejaVuSans-52" transform="scale(0.015625)"/>
       <path d="M 1959 3097 
Q 1497 3097 1228 2736 
Q 959 2375 959 1747 
Q 959 1119 1226 758 
Q 1494 397 1959 397 
Q 2419 397 2687 759 
Q 2956 1122 2956 1747 
Q 2956 2369 2687 2733 
Q 2419 3097 1959 3097 
z
M 1959 3584 
Q 2709 3584 3137 3096 
Q 3566 2609 3566 1747 
Q 3566 888 3137 398 
Q 2709 -91 1959 -91 
Q 1206 -91 779 398 
Q 353 888 353 1747 
Q 353 2609 779 3096 
Q 1206 3584 1959 3584 
z
" id="DejaVuSans-6f" transform="scale(0.015625)"/>
       <path d="M 2906 2969 
L 2906 4863 
L 3481 4863 
L 3481 0 
L 2906 0 
L 2906 525 
Q 2725 213 2448 61 
Q 2172 -91 1784 -91 
Q 1150 -91 751 415 
Q 353 922 353 1747 
Q 353 2572 751 3078 
Q 1150 3584 1784 3584 
Q 2172 3584 2448 3432 
Q 2725 3281 2906 2969 
z
M 947 1747 
Q 947 1113 1208 752 
Q 1469 391 1925 391 
Q 2381 391 2643 752 
Q 2906 1113 2906 1747 
Q 2906 2381 2643 2742 
Q 2381 3103 1925 3103 
Q 1469 3103 1208 2742 
Q 947 2381 947 1747 
z
" id="DejaVuSans-64" transform="scale(0.015625)"/>
       <path d="M 2631 2963 
Q 2534 3019 2420 3045 
Q 2306 3072 2169 3072 
Q 1681 3072 1420 2755 
Q 1159 2438 1159 1844 
L 1159 0 
L 581 0 
L 581 3500 
L 1159 3500 
L 1159 2956 
Q 1341 3275 1631 3429 
Q 1922 3584 2338 3584 
Q 2397 3584 2469 3576 
Q 2541 3569 2628 3553 
L 2631 2963 
z
" id="DejaVuSans-72" transform="scale(0.015625)"/>
       <path d="M 2906 1791 
Q 2906 2416 2648 2759 
Q 2391 3103 1925 3103 
Q 1463 3103 1205 2759 
Q 947 2416 947 1791 
Q 947 1169 1205 825 
Q 1463 481 1925 481 
Q 2391 481 2648 825 
Q 2906 1169 2906 1791 
z
M 3481 434 
Q 3481 -459 3084 -895 
Q 2688 -1331 1869 -1331 
Q 1566 -1331 1297 -1286 
Q 1028 -1241 775 -1147 
L 775 -588 
Q 1028 -725 1275 -790 
Q 1522 -856 1778 -856 
Q 2344 -856 2625 -561 
Q 2906 -266 2906 331 
L 2906 616 
Q 2728 306 2450 153 
Q 2172 0 1784 0 
Q 1141 0 747 490 
Q 353 981 353 1791 
Q 353 2603 747 3093 
Q 1141 3584 1784 3584 
Q 2172 3584 2450 3431 
Q 2728 3278 2906 2969 
L 2906 3500 
L 3481 3500 
L 3481 434 
z
" id="DejaVuSans-67" transform="scale(0.015625)"/>
       <path d="M 544 1381 
L 544 3500 
L 1119 3500 
L 1119 1403 
Q 1119 906 1312 657 
Q 1506 409 1894 409 
Q 2359 409 2629 706 
Q 2900 1003 2900 1516 
L 2900 3500 
L 3475 3500 
L 3475 0 
L 2900 0 
L 2900 538 
Q 2691 219 2414 64 
Q 2138 -91 1772 -91 
Q 1169 -91 856 284 
Q 544 659 544 1381 
z
M 1991 3584 
L 1991 3584 
z
" id="DejaVuSans-75" transform="scale(0.015625)"/>
       <path d="M 353 3500 
L 3084 3500 
L 3084 2975 
L 922 459 
L 3084 459 
L 3084 0 
L 275 0 
L 275 525 
L 2438 3041 
L 353 3041 
L 353 3500 
z
" id="DejaVuSans-7a" transform="scale(0.015625)"/>
       <path d="M 1259 4147 
L 1259 2394 
L 2053 2394 
Q 2494 2394 2734 2622 
Q 2975 2850 2975 3272 
Q 2975 3691 2734 3919 
Q 2494 4147 2053 4147 
L 1259 4147 
z
M 628 4666 
L 2053 4666 
Q 2838 4666 3239 4311 
Q 3641 3956 3641 3272 
Q 3641 2581 3239 2228 
Q 2838 1875 2053 1875 
L 1259 1875 
L 1259 0 
L 628 0 
L 628 4666 
z
" id="DejaVuSans-50" transform="scale(0.015625)"/>
       <path d="M 2194 1759 
Q 1497 1759 1228 1600 
Q 959 1441 959 1056 
Q 959 750 1161 570 
Q 1363 391 1709 391 
Q 2188 391 2477 730 
Q 2766 1069 2766 1631 
L 2766 1759 
L 2194 1759 
z
M 3341 1997 
L 3341 0 
L 2766 0 
L 2766 531 
Q 2569 213 2275 61 
Q 1981 -91 1556 -91 
Q 1019 -91 701 211 
Q 384 513 384 1019 
Q 384 1609 779 1909 
Q 1175 2209 1959 2209 
L 2766 2209 
L 2766 2266 
Q 2766 2663 2505 2880 
Q 2244 3097 1772 3097 
Q 1472 3097 1187 3025 
Q 903 2953 641 2809 
L 641 3341 
Q 956 3463 1253 3523 
Q 1550 3584 1831 3584 
Q 2591 3584 2966 3190 
Q 3341 2797 3341 1997 
z
" id="DejaVuSans-61" transform="scale(0.015625)"/>
       <path d="M 1172 4494 
L 1172 3500 
L 2356 3500 
L 2356 3053 
L 1172 3053 
L 1172 1153 
Q 1172 725 1289 603 
Q 1406 481 1766 481 
L 2356 481 
L 2356 0 
L 1766 0 
Q 1100 0 847 248 
Q 594 497 594 1153 
L 594 3053 
L 172 3053 
L 172 3500 
L 594 3500 
L 594 4494 
L 1172 4494 
z
" id="DejaVuSans-74" transform="scale(0.015625)"/>
       <path d="M 2913 2219 
L 925 2219 
Q 791 1284 928 888 
Q 1100 400 1566 400 
Q 2034 400 2391 891 
Q 2703 1322 2913 2219 
z
M 3009 2750 
Q 3094 3638 2984 3950 
Q 2813 4444 2353 4444 
Q 1875 4444 1525 3956 
Q 1250 3563 1034 2750 
L 3009 2750 
z
M 2444 4913 
Q 3194 4913 3494 4250 
Q 3794 3591 3566 2422 
Q 3341 1256 2781 594 
Q 2225 -72 1475 -72 
Q 722 -72 425 594 
Q 128 1256 353 2422 
Q 581 3591 1134 4250 
Q 1691 4913 2444 4913 
z
" id="DejaVuSans-Oblique-3b8" transform="scale(0.015625)"/>
       <path d="M 1588 -325 
Q 1188 -997 936 -1164 
Q 684 -1331 294 -1331 
L -159 -1331 
L -63 -850 
L 269 -850 
Q 509 -850 678 -719 
Q 847 -588 1056 -206 
L 1234 128 
L 459 3500 
L 1069 3500 
L 1650 819 
L 3256 3500 
L 3859 3500 
L 1588 -325 
z
" id="DejaVuSans-Oblique-79" transform="scale(0.015625)"/>
      </defs>
      <use transform="translate(0 0.234375)" xlink:href="#DejaVuSans-52"/>
      <use transform="translate(69.482422 0.234375)" xlink:href="#DejaVuSans-6f"/>
      <use transform="translate(130.664062 0.234375)" xlink:href="#DejaVuSans-64"/>
      <use transform="translate(194.140625 0.234375)" xlink:href="#DejaVuSans-72"/>
      <use transform="translate(235.253906 0.234375)" xlink:href="#DejaVuSans-69"/>
      <use transform="translate(263.037109 0.234375)" xlink:href="#DejaVuSans-67"/>
      <use transform="translate(326.513672 0.234375)" xlink:href="#DejaVuSans-75"/>
      <use transform="translate(389.892578 0.234375)" xlink:href="#DejaVuSans-65"/>
      <use transform="translate(451.416016 0.234375)" xlink:href="#DejaVuSans-7a"/>
      <use transform="translate(503.90625 0.234375)" xlink:href="#DejaVuSans-20"/>
      <use transform="translate(535.693359 0.234375)" xlink:href="#DejaVuSans-50"/>
      <use transform="translate(595.996094 0.234375)" xlink:href="#DejaVuSans-61"/>
      <use transform="translate(657.275391 0.234375)" xlink:href="#DejaVuSans-72"/>
      <use transform="translate(698.388672 0.234375)" xlink:href="#DejaVuSans-61"/>
      <use transform="translate(759.667969 0.234375)" xlink:href="#DejaVuSans-6d"/>
      <use transform="translate(857.080078 0.234375)" xlink:href="#DejaVuSans-65"/>
      <use transform="translate(918.603516 0.234375)" xlink:href="#DejaVuSans-74"/>
      <use transform="translate(957.8125 0.234375)" xlink:href="#DejaVuSans-65"/>
      <use transform="translate(1019.335938 0.234375)" xlink:href="#DejaVuSans-72"/>
      <use transform="translate(1060.449219 0.234375)" xlink:href="#DejaVuSans-20"/>
      <use transform="translate(1092.236328 0.234375)" xlink:href="#DejaVuSans-Oblique-3b8"/>
      <use transform="translate(1153.417969 -16.171875)scale(0.7)" xlink:href="#DejaVuSans-Oblique-79"/>
      <use transform="translate(1197.578125 0.234375)" xlink:href="#DejaVuSans-20"/>
      <use transform="translate(1229.365234 0.234375)" xlink:href="#DejaVuSans-28"/>
      <use transform="translate(1268.378906 0.234375)" xlink:href="#DejaVuSans-64"/>
      <use transform="translate(1331.855469 0.234375)" xlink:href="#DejaVuSans-65"/>
      <use transform="translate(1393.378906 0.234375)" xlink:href="#DejaVuSans-67"/>
      <use transform="translate(1456.855469 0.234375)" xlink:href="#DejaVuSans-72"/>
      <use transform="translate(1497.96875 0.234375)" xlink:href="#DejaVuSans-65"/>
      <use transform="translate(1559.492188 0.234375)" xlink:href="#DejaVuSans-65"/>
      <use transform="translate(1621.015625 0.234375)" xlink:href="#DejaVuSans-29"/>
     </g>
    </g>
   </g>
   <g id="patch_3">
    <path d="M 42.933593 258.225354 
L 42.933593 2.834646 
" style="fill:none;stroke:#000000;stroke-linecap:square;stroke-linejoin:miter;"/>
   </g>
   <g id="patch_4">
    <path d="M 42.933593 258.225354 
L 422.361999 258.225354 
" style="fill:none;stroke:#000000;stroke-linecap:square;stroke-linejoin:miter;"/>
   </g>
  </g>
 </g>
 <defs>
  <clipPath id="p8dd556d3ee">
   <rect height="255.390709" width="379.428407" x="42.933593" y="2.834646"/>
  </clipPath>
 </defs>
</svg>
