<?xml version="1.0" encoding="utf-8" standalone="no"?>
<!DOCTYPE svg PUBLIC "-//W3C//DTD SVG 1.1//EN"
  "http://www.w3.org/Graphics/SVG/1.1/DTD/svg11.dtd">
<svg xmlns:xlink="http://www.w3.org/1999/xlink" width="432pt" height="288pt" viewBox="0 0 432 288" xmlns="http://www.w3.org/2000/svg" version="1.1">
 <metadata>
  <rdf:RDF xmlns:dc="http://purl.org/dc/elements/1.1/" xmlns:cc="http://creativecommons.org/ns#" xmlns:rdf="http://www.w3.org/1999/02/22-rdf-syntax-ns#">
   <cc:Work>
    <dc:type rdf:resource="http://purl.org/dc/dcmitype/StillImage"/>
    <dc:date>2023-02-17T20:55:15.695119</dc:date>
    <dc:format>image/svg+xml</dc:format>
    <dc:creator>
     <cc:Agent>
      <dc:title>Matplotlib v3.7.0, https://matplotlib.org/</dc:title>
     </cc:Agent>
    </dc:creator>
   </cc:Work>
  </rdf:RDF>
 </metadata>
 <defs>
  <style type="text/css">*{stroke-linejoin: round; stroke-linecap: butt}</style>
 </defs>
 <g id="figure_1">
  <g id="patch_1">
   <path d="M 0 288 
L 432 288 
L 432 0 
L 0 0 
z
" style="fill: #ffffff"/>
  </g>
  <g id="axes_1">
   <g id="patch_2">
    <path d="M 44.790359 258.225354 
L 422.361999 258.225354 
L 422.361999 2.834646 
L 44.790359 2.834646 
z
" style="fill: #ffffff"/>
   </g>
   <g id="line2d_1">
    <path d="M 44.790359 182.015294 
L 51.586649 181.915461 
L 54.22965 181.615755 
L 55.928722 181.210212 
L 57.439009 180.653704 
L 58.949296 179.87965 
L 60.837154 178.649771 
L 62.725012 177.1719 
L 64.61287 175.355751 
L 66.311943 173.420825 
L 72.919446 165.455645 
L 74.429733 164.22962 
L 75.562448 163.568307 
L 76.695163 163.187231 
L 77.827878 163.079072 
L 78.960592 163.17082 
L 80.470879 163.528029 
L 82.169951 164.182213 
L 83.680238 164.996749 
L 85.190525 166.079743 
L 86.889597 167.58873 
L 89.721384 170.513299 
L 91.986814 172.717103 
L 93.119529 173.558118 
L 94.252244 174.113376 
L 95.196173 174.34427 
L 96.140102 174.361041 
L 97.272817 174.14324 
L 99.915819 173.517286 
L 101.048533 173.535119 
L 101.992463 173.797456 
L 102.936392 174.347922 
L 103.880321 175.195502 
L 104.82425 176.351471 
L 105.768179 177.834616 
L 106.900894 180.051705 
L 108.222395 183.168634 
L 109.921467 187.807632 
L 112.753254 196.388325 
L 114.829898 202.474453 
L 115.962613 205.224523 
L 116.906542 206.95726 
L 117.661686 207.874402 
L 118.228043 208.23236 
L 118.794401 208.272449 
L 119.171972 208.11226 
L 119.73833 207.573432 
L 120.304687 206.677661 
L 121.05983 204.923228 
L 121.814974 202.527856 
L 122.758903 198.625619 
L 123.891618 192.733988 
L 125.213118 184.5697 
L 130.310336 151.550165 
L 131.631836 145.096073 
L 132.764551 140.551127 
L 133.897266 136.852718 
L 135.029981 133.88565 
L 135.97391 131.963107 
L 136.729053 130.829352 
L 137.484197 130.103682 
L 138.050554 129.841627 
L 138.616912 129.844613 
L 139.183269 130.119441 
L 139.749627 130.676845 
L 140.315984 131.537663 
L 141.071127 133.139975 
L 142.015056 135.813002 
L 143.147771 139.767858 
L 147.489845 155.863836 
L 148.433774 158.064229 
L 149.188918 159.225848 
L 149.755275 159.730574 
L 150.321632 159.938367 
L 150.88799 159.884968 
L 151.454347 159.618671 
L 152.209491 158.996785 
L 153.530991 157.533231 
L 155.041278 155.938128 
L 155.985207 155.231186 
L 156.929136 154.786795 
L 157.873065 154.602887 
L 158.628209 154.651117 
L 159.572138 154.960389 
L 160.516067 155.526615 
L 161.459996 156.378611 
L 162.403925 157.612536 
L 163.159068 158.952742 
L 163.914212 160.66761 
L 164.858141 163.418512 
L 165.80207 166.936622 
L 166.745999 171.2917 
L 168.0675 178.624927 
L 172.409573 204.227866 
L 173.353503 208.209609 
L 174.297432 211.288639 
L 175.052575 213.089398 
L 175.618932 214.032006 
L 176.18529 214.603638 
L 176.751647 214.803028 
L 177.129219 214.714792 
L 177.506791 214.443034 
L 178.073148 213.666393 
L 178.639505 212.402958 
L 179.205863 210.605069 
L 179.961006 207.289051 
L 180.71615 202.866597 
L 181.660079 195.753507 
L 182.604008 186.878819 
L 183.736723 174.012557 
L 185.247009 154.056316 
L 187.890011 118.67725 
L 189.211511 104.1028 
L 190.344226 94.003035 
L 191.476941 85.924693 
L 192.609656 79.489746 
L 193.742371 74.313158 
L 195.063872 69.318588 
L 196.196587 65.71547 
L 196.95173 63.903498 
L 197.518088 63.075658 
L 197.895659 62.863989 
L 198.273231 62.966135 
L 198.650802 63.412299 
L 199.028374 64.223755 
L 199.594732 66.152984 
L 200.161089 68.944438 
L 200.916232 73.942276 
L 201.860161 81.974449 
L 203.370448 97.269352 
L 205.447092 117.915642 
L 209.60038 157.635151 
L 211.110667 171.348167 
L 212.054596 177.873138 
L 212.809739 181.440424 
L 213.376096 183.079299 
L 213.753668 183.685794 
L 214.13124 183.916812 
L 214.508811 183.791646 
L 214.886383 183.326246 
L 215.45274 182.029167 
L 216.019098 180.075359 
L 216.774241 176.604905 
L 217.906956 170.179357 
L 219.606028 160.45912 
L 220.361172 157.205981 
L 220.927529 155.474941 
L 221.493887 154.410419 
L 221.871458 154.047544 
L 222.24903 153.937676 
L 222.626602 154.036318 
L 223.192959 154.464406 
L 225.080817 156.304135 
L 225.647175 156.470394 
L 226.213532 156.325475 
L 226.77989 155.847981 
L 227.535033 154.845593 
L 228.856534 153.026618 
L 229.422891 152.586518 
L 229.989249 152.474468 
L 230.36682 152.603034 
L 230.933178 153.099536 
L 231.499535 153.961481 
L 232.065893 155.207522 
L 232.821036 157.528366 
L 233.576179 160.647085 
L 234.520108 165.604818 
L 235.652823 172.843061 
L 237.918253 187.820835 
L 238.673396 191.07885 
L 239.239754 192.62411 
L 239.806111 193.495811 
L 240.372469 193.861822 
L 240.938826 193.863046 
L 241.505184 193.606666 
L 242.260327 192.993431 
L 243.581828 191.618401 
L 244.148185 190.775484 
L 244.714543 189.429216 
L 245.2809 187.259726 
L 245.847257 184.041332 
L 246.602401 178.041369 
L 247.54633 168.107294 
L 248.679045 153.331498 
L 251.510832 114.101014 
L 252.454761 104.653761 
L 253.39869 97.122535 
L 254.342619 91.174156 
L 255.475334 85.660362 
L 256.419263 81.07436 
L 257.174407 76.176485 
L 257.92955 69.769933 
L 260.761337 43.646821 
L 261.516481 39.270714 
L 262.082838 37.064207 
L 262.46041 36.141025 
L 262.837981 35.685707 
L 263.026767 35.646878 
L 263.215553 35.738383 
L 263.593125 36.320946 
L 263.970696 37.45989 
L 264.537054 40.19524 
L 265.292197 45.376294 
L 267.746413 63.867425 
L 269.256699 72.784766 
L 270.766986 81.573843 
L 271.522129 87.444707 
L 272.277272 95.249387 
L 273.032416 105.242262 
L 273.976345 120.660208 
L 275.297845 146.375895 
L 277.752061 195.028835 
L 278.69599 209.001928 
L 279.451133 217.186988 
L 280.017491 221.384639 
L 280.395063 223.166439 
L 280.772634 224.090639 
L 280.96142 224.222693 
L 281.150206 224.133942 
L 281.338992 223.827233 
L 281.716563 222.58034 
L 282.282921 219.260245 
L 283.038064 212.706055 
L 284.737136 194.434531 
L 285.869851 183.511459 
L 286.624995 177.877087 
L 287.191352 174.814927 
L 287.75771 172.903928 
L 288.135281 172.286021 
L 288.512853 172.140528 
L 288.890424 172.392134 
L 289.456782 173.199779 
L 290.023139 174.016654 
L 290.400711 174.244311 
L 290.589497 174.197422 
L 290.967068 173.686922 
L 291.34464 172.501286 
L 291.722212 170.548016 
L 292.288569 166.083955 
L 293.043712 157.412677 
L 294.176427 140.64113 
L 295.309142 124.414877 
L 296.064286 116.72181 
L 296.630643 113.390485 
L 297.008215 112.450581 
L 297.197001 112.362488 
L 297.385786 112.519972 
L 297.763358 113.534954 
L 298.14093 115.371388 
L 298.896073 120.73596 
L 300.217574 130.539339 
L 300.783931 132.928888 
L 301.161503 133.607095 
L 301.350289 133.672211 
L 301.539074 133.566753 
L 301.916646 132.911851 
L 302.483003 131.127081 
L 303.426933 127.744638 
L 303.804504 126.977134 
L 303.99329 126.847872 
L 304.182076 126.922587 
L 304.370862 127.21766 
L 304.748433 128.508088 
L 305.126005 130.738281 
L 305.692362 135.62925 
L 306.636292 146.540933 
L 308.335364 169.490831 
L 310.412008 197.607599 
L 311.355937 207.056157 
L 312.11108 212.232547 
L 312.677438 214.749036 
L 313.055009 215.78025 
L 313.432581 216.264049 
L 313.621367 216.293055 
L 313.810153 216.175503 
L 314.187724 215.491176 
L 314.565296 214.237539 
L 315.131653 211.459775 
L 317.019512 200.587349 
L 317.585869 199.042337 
L 317.963441 198.624912 
L 318.341012 198.581765 
L 318.90737 198.882464 
L 319.473727 199.172637 
L 319.851299 199.148061 
L 320.228871 198.88365 
L 320.606442 198.350976 
L 321.1728 197.029153 
L 321.739157 194.946769 
L 322.305515 191.701941 
L 322.871872 186.845221 
L 323.627015 177.717595 
L 325.703659 149.846032 
L 326.458803 143.284973 
L 327.213946 138.390401 
L 328.913018 129.194971 
L 329.668162 122.74295 
L 331.178448 109.162806 
L 331.744806 106.150141 
L 332.122377 105.075569 
L 332.499949 104.684547 
L 332.877521 104.820036 
L 333.255092 105.32028 
L 333.82145 106.573903 
L 335.709308 111.71638 
L 336.086879 112.120722 
L 336.464451 112.264462 
L 336.842023 112.163268 
L 337.40838 111.605298 
L 338.163523 110.748322 
L 338.541095 110.571311 
L 338.918667 110.676844 
L 339.296238 111.125573 
L 339.67381 112.088449 
L 340.051382 113.852677 
L 340.428953 116.665113 
L 340.995311 123.025389 
L 341.750454 134.754767 
L 344.015884 172.404791 
L 347.414029 220.336125 
L 348.169172 226.437311 
L 348.735529 229.404576 
L 349.301887 231.313856 
L 349.679458 232.0191 
L 349.868244 232.159732 
L 350.05703 232.136078 
L 350.245816 231.935546 
L 350.623388 231.002602 
L 351.189745 228.560327 
L 352.32246 223.139165 
L 352.700032 222.506613 
L 352.888817 222.652789 
L 353.077603 223.158477 
L 353.455175 225.282066 
L 354.021532 230.728317 
L 355.154247 242.875634 
L 355.720605 246.804514 
L 356.098176 248.389852 
L 356.475748 249.048194 
L 356.664534 248.978311 
L 356.85332 248.623341 
L 357.230891 247.06269 
L 357.797249 242.896904 
L 358.552392 234.957223 
L 359.307535 224.494579 
L 360.817822 202.221837 
L 361.384179 197.134738 
L 361.761751 195.571853 
L 361.950537 195.357155 
L 362.139323 195.484703 
L 362.516894 196.555272 
L 363.649609 201.308779 
L 364.027181 201.908114 
L 364.215967 201.903566 
L 364.593538 201.35597 
L 366.481396 196.63901 
L 367.047754 194.350557 
L 367.614111 190.782801 
L 368.180469 185.453628 
L 369.50197 169.224163 
L 371.201042 150.517234 
L 372.900114 133.976883 
L 373.277686 131.575768 
L 373.655258 130.386709 
L 373.844043 130.254873 
L 374.032829 130.394283 
L 374.410401 131.286417 
L 375.165544 134.185181 
L 375.920687 137.932021 
L 376.675831 142.972023 
L 377.61976 151.312631 
L 378.941261 163.541489 
L 379.88519 170.164981 
L 380.640333 174.389156 
L 381.395476 177.446955 
L 381.961834 179.038978 
L 382.528191 180.078599 
L 383.47212 181.509642 
L 383.849692 182.449035 
L 384.227264 184.1419 
L 384.604835 186.946119 
L 385.548764 196.976171 
L 388.00298 221.973905 
L 389.324481 233.292262 
L 389.702052 234.930074 
L 390.079624 235.845408 
L 390.457196 236.133971 
L 390.645981 236.013455 
L 391.023553 235.2281 
L 391.967482 232.333442 
L 392.345054 231.853099 
L 392.911411 231.613563 
L 394.610484 230.984224 
L 395.176841 230.311295 
L 395.931984 228.942724 
L 397.253485 225.746848 
L 397.631057 224.471294 
L 398.008628 222.4377 
L 398.3862 219.273777 
L 398.952558 212.373131 
L 399.707701 199.649218 
L 401.595559 161.050005 
L 404.427346 103.724414 
L 405.18249 94.473808 
L 407.825491 66.461763 
L 408.76942 56.305664 
L 409.902135 45.271456 
L 411.978779 23.906888 
L 412.545137 19.952432 
L 413.111494 17.304145 
L 414.810566 10.876481 
L 415.188138 10.362375 
L 415.376924 10.360562 
L 415.754496 10.712312 
L 416.132067 11.500283 
L 416.509639 12.890508 
L 417.075996 16.402748 
L 418.397497 27.568425 
L 419.530212 37.95332 
L 421.41807 58.3778 
L 421.984428 61.526054 
L 422.361999 62.212643 
L 422.361999 62.212643 
" clip-path="url(#p731109d492)" style="fill: none; stroke: #009afa"/>
   </g>
   <g id="matplotlib.axis_1">
    <g id="xtick_1">
     <g id="line2d_2">
      <defs>
       <path id="mf16f769198" d="M 0 0 
L 0 -2.5 
" style="stroke: #000000; stroke-width: 0.5"/>
      </defs>
      <g>
       <use xlink:href="#mf16f769198" x="44.790359" y="258.225354" style="stroke: #000000; stroke-width: 0.5"/>
      </g>
     </g>
     <g id="text_1">
      <!-- $0.0$ -->
      <g transform="translate(38.390359 267.804104) scale(0.08 -0.08)">
       <defs>
        <path id="DejaVuSans-30" d="M 2034 4250 
Q 1547 4250 1301 3770 
Q 1056 3291 1056 2328 
Q 1056 1369 1301 889 
Q 1547 409 2034 409 
Q 2525 409 2770 889 
Q 3016 1369 3016 2328 
Q 3016 3291 2770 3770 
Q 2525 4250 2034 4250 
z
M 2034 4750 
Q 2819 4750 3233 4129 
Q 3647 3509 3647 2328 
Q 3647 1150 3233 529 
Q 2819 -91 2034 -91 
Q 1250 -91 836 529 
Q 422 1150 422 2328 
Q 422 3509 836 4129 
Q 1250 4750 2034 4750 
z
" transform="scale(0.015625)"/>
        <path id="DejaVuSans-2e" d="M 684 794 
L 1344 794 
L 1344 0 
L 684 0 
L 684 794 
z
" transform="scale(0.015625)"/>
       </defs>
       <use xlink:href="#DejaVuSans-30" transform="translate(0 0.78125)"/>
       <use xlink:href="#DejaVuSans-2e" transform="translate(63.623047 0.78125)"/>
       <use xlink:href="#DejaVuSans-30" transform="translate(95.410156 0.78125)"/>
      </g>
     </g>
    </g>
    <g id="xtick_2">
     <g id="line2d_3">
      <g>
       <use xlink:href="#mf16f769198" x="139.183269" y="258.225354" style="stroke: #000000; stroke-width: 0.5"/>
      </g>
     </g>
     <g id="text_2">
      <!-- $0.5$ -->
      <g transform="translate(132.783269 267.804104) scale(0.08 -0.08)">
       <defs>
        <path id="DejaVuSans-35" d="M 691 4666 
L 3169 4666 
L 3169 4134 
L 1269 4134 
L 1269 2991 
Q 1406 3038 1543 3061 
Q 1681 3084 1819 3084 
Q 2600 3084 3056 2656 
Q 3513 2228 3513 1497 
Q 3513 744 3044 326 
Q 2575 -91 1722 -91 
Q 1428 -91 1123 -41 
Q 819 9 494 109 
L 494 744 
Q 775 591 1075 516 
Q 1375 441 1709 441 
Q 2250 441 2565 725 
Q 2881 1009 2881 1497 
Q 2881 1984 2565 2268 
Q 2250 2553 1709 2553 
Q 1456 2553 1204 2497 
Q 953 2441 691 2322 
L 691 4666 
z
" transform="scale(0.015625)"/>
       </defs>
       <use xlink:href="#DejaVuSans-30" transform="translate(0 0.78125)"/>
       <use xlink:href="#DejaVuSans-2e" transform="translate(63.623047 0.78125)"/>
       <use xlink:href="#DejaVuSans-35" transform="translate(95.410156 0.78125)"/>
      </g>
     </g>
    </g>
    <g id="xtick_3">
     <g id="line2d_4">
      <g>
       <use xlink:href="#mf16f769198" x="233.576179" y="258.225354" style="stroke: #000000; stroke-width: 0.5"/>
      </g>
     </g>
     <g id="text_3">
      <!-- $1.0$ -->
      <g transform="translate(227.176179 267.804104) scale(0.08 -0.08)">
       <defs>
        <path id="DejaVuSans-31" d="M 794 531 
L 1825 531 
L 1825 4091 
L 703 3866 
L 703 4441 
L 1819 4666 
L 2450 4666 
L 2450 531 
L 3481 531 
L 3481 0 
L 794 0 
L 794 531 
z
" transform="scale(0.015625)"/>
       </defs>
       <use xlink:href="#DejaVuSans-31" transform="translate(0 0.78125)"/>
       <use xlink:href="#DejaVuSans-2e" transform="translate(63.623047 0.78125)"/>
       <use xlink:href="#DejaVuSans-30" transform="translate(95.410156 0.78125)"/>
      </g>
     </g>
    </g>
    <g id="xtick_4">
     <g id="line2d_5">
      <g>
       <use xlink:href="#mf16f769198" x="327.969089" y="258.225354" style="stroke: #000000; stroke-width: 0.5"/>
      </g>
     </g>
     <g id="text_4">
      <!-- $1.5$ -->
      <g transform="translate(321.569089 267.804104) scale(0.08 -0.08)">
       <use xlink:href="#DejaVuSans-31" transform="translate(0 0.09375)"/>
       <use xlink:href="#DejaVuSans-2e" transform="translate(63.623047 0.09375)"/>
       <use xlink:href="#DejaVuSans-35" transform="translate(95.410156 0.09375)"/>
      </g>
     </g>
    </g>
    <g id="xtick_5">
     <g id="line2d_6">
      <g>
       <use xlink:href="#mf16f769198" x="422.361999" y="258.225354" style="stroke: #000000; stroke-width: 0.5"/>
      </g>
     </g>
     <g id="text_5">
      <!-- $2.0$ -->
      <g transform="translate(415.961999 267.804104) scale(0.08 -0.08)">
       <defs>
        <path id="DejaVuSans-32" d="M 1228 531 
L 3431 531 
L 3431 0 
L 469 0 
L 469 531 
Q 828 903 1448 1529 
Q 2069 2156 2228 2338 
Q 2531 2678 2651 2914 
Q 2772 3150 2772 3378 
Q 2772 3750 2511 3984 
Q 2250 4219 1831 4219 
Q 1534 4219 1204 4116 
Q 875 4013 500 3803 
L 500 4441 
Q 881 4594 1212 4672 
Q 1544 4750 1819 4750 
Q 2544 4750 2975 4387 
Q 3406 4025 3406 3419 
Q 3406 3131 3298 2873 
Q 3191 2616 2906 2266 
Q 2828 2175 2409 1742 
Q 1991 1309 1228 531 
z
" transform="scale(0.015625)"/>
       </defs>
       <use xlink:href="#DejaVuSans-32" transform="translate(0 0.78125)"/>
       <use xlink:href="#DejaVuSans-2e" transform="translate(63.623047 0.78125)"/>
       <use xlink:href="#DejaVuSans-30" transform="translate(95.410156 0.78125)"/>
      </g>
     </g>
    </g>
    <g id="text_6">
     <!-- Time (s) -->
     <g transform="translate(211.214382 281.826136) scale(0.11 -0.11)">
      <defs>
       <path id="DejaVuSans-54" d="M -19 4666 
L 3928 4666 
L 3928 4134 
L 2272 4134 
L 2272 0 
L 1638 0 
L 1638 4134 
L -19 4134 
L -19 4666 
z
" transform="scale(0.015625)"/>
       <path id="DejaVuSans-69" d="M 603 3500 
L 1178 3500 
L 1178 0 
L 603 0 
L 603 3500 
z
M 603 4863 
L 1178 4863 
L 1178 4134 
L 603 4134 
L 603 4863 
z
" transform="scale(0.015625)"/>
       <path id="DejaVuSans-6d" d="M 3328 2828 
Q 3544 3216 3844 3400 
Q 4144 3584 4550 3584 
Q 5097 3584 5394 3201 
Q 5691 2819 5691 2113 
L 5691 0 
L 5113 0 
L 5113 2094 
Q 5113 2597 4934 2840 
Q 4756 3084 4391 3084 
Q 3944 3084 3684 2787 
Q 3425 2491 3425 1978 
L 3425 0 
L 2847 0 
L 2847 2094 
Q 2847 2600 2669 2842 
Q 2491 3084 2119 3084 
Q 1678 3084 1418 2786 
Q 1159 2488 1159 1978 
L 1159 0 
L 581 0 
L 581 3500 
L 1159 3500 
L 1159 2956 
Q 1356 3278 1631 3431 
Q 1906 3584 2284 3584 
Q 2666 3584 2933 3390 
Q 3200 3197 3328 2828 
z
" transform="scale(0.015625)"/>
       <path id="DejaVuSans-65" d="M 3597 1894 
L 3597 1613 
L 953 1613 
Q 991 1019 1311 708 
Q 1631 397 2203 397 
Q 2534 397 2845 478 
Q 3156 559 3463 722 
L 3463 178 
Q 3153 47 2828 -22 
Q 2503 -91 2169 -91 
Q 1331 -91 842 396 
Q 353 884 353 1716 
Q 353 2575 817 3079 
Q 1281 3584 2069 3584 
Q 2775 3584 3186 3129 
Q 3597 2675 3597 1894 
z
M 3022 2063 
Q 3016 2534 2758 2815 
Q 2500 3097 2075 3097 
Q 1594 3097 1305 2825 
Q 1016 2553 972 2059 
L 3022 2063 
z
" transform="scale(0.015625)"/>
       <path id="DejaVuSans-20" transform="scale(0.015625)"/>
       <path id="DejaVuSans-28" d="M 1984 4856 
Q 1566 4138 1362 3434 
Q 1159 2731 1159 2009 
Q 1159 1288 1364 580 
Q 1569 -128 1984 -844 
L 1484 -844 
Q 1016 -109 783 600 
Q 550 1309 550 2009 
Q 550 2706 781 3412 
Q 1013 4119 1484 4856 
L 1984 4856 
z
" transform="scale(0.015625)"/>
       <path id="DejaVuSans-73" d="M 2834 3397 
L 2834 2853 
Q 2591 2978 2328 3040 
Q 2066 3103 1784 3103 
Q 1356 3103 1142 2972 
Q 928 2841 928 2578 
Q 928 2378 1081 2264 
Q 1234 2150 1697 2047 
L 1894 2003 
Q 2506 1872 2764 1633 
Q 3022 1394 3022 966 
Q 3022 478 2636 193 
Q 2250 -91 1575 -91 
Q 1294 -91 989 -36 
Q 684 19 347 128 
L 347 722 
Q 666 556 975 473 
Q 1284 391 1588 391 
Q 1994 391 2212 530 
Q 2431 669 2431 922 
Q 2431 1156 2273 1281 
Q 2116 1406 1581 1522 
L 1381 1569 
Q 847 1681 609 1914 
Q 372 2147 372 2553 
Q 372 3047 722 3315 
Q 1072 3584 1716 3584 
Q 2034 3584 2315 3537 
Q 2597 3491 2834 3397 
z
" transform="scale(0.015625)"/>
       <path id="DejaVuSans-29" d="M 513 4856 
L 1013 4856 
Q 1481 4119 1714 3412 
Q 1947 2706 1947 2009 
Q 1947 1309 1714 600 
Q 1481 -109 1013 -844 
L 513 -844 
Q 928 -128 1133 580 
Q 1338 1288 1338 2009 
Q 1338 2731 1133 3434 
Q 928 4138 513 4856 
z
" transform="scale(0.015625)"/>
      </defs>
      <use xlink:href="#DejaVuSans-54"/>
      <use xlink:href="#DejaVuSans-69" x="57.958984"/>
      <use xlink:href="#DejaVuSans-6d" x="85.742188"/>
      <use xlink:href="#DejaVuSans-65" x="183.154297"/>
      <use xlink:href="#DejaVuSans-20" x="244.677734"/>
      <use xlink:href="#DejaVuSans-28" x="276.464844"/>
      <use xlink:href="#DejaVuSans-73" x="315.478516"/>
      <use xlink:href="#DejaVuSans-29" x="367.578125"/>
     </g>
    </g>
   </g>
   <g id="matplotlib.axis_2">
    <g id="ytick_1">
     <g id="line2d_7">
      <defs>
       <path id="m4e549ace47" d="M 0 0 
L 2.5 0 
" style="stroke: #000000; stroke-width: 0.5"/>
      </defs>
      <g>
       <use xlink:href="#m4e549ace47" x="44.790359" y="242.664601" style="stroke: #000000; stroke-width: 0.5"/>
      </g>
     </g>
     <g id="text_7">
      <!-- $-0.2$ -->
      <g transform="translate(22.250359 245.703976) scale(0.08 -0.08)">
       <defs>
        <path id="DejaVuSans-2212" d="M 678 2272 
L 4684 2272 
L 4684 1741 
L 678 1741 
L 678 2272 
z
" transform="scale(0.015625)"/>
       </defs>
       <use xlink:href="#DejaVuSans-2212" transform="translate(0 0.78125)"/>
       <use xlink:href="#DejaVuSans-30" transform="translate(83.789062 0.78125)"/>
       <use xlink:href="#DejaVuSans-2e" transform="translate(147.412109 0.78125)"/>
       <use xlink:href="#DejaVuSans-32" transform="translate(173.699219 0.78125)"/>
      </g>
     </g>
    </g>
    <g id="ytick_2">
     <g id="line2d_8">
      <g>
       <use xlink:href="#m4e549ace47" x="44.790359" y="182.015294" style="stroke: #000000; stroke-width: 0.5"/>
      </g>
     </g>
     <g id="text_8">
      <!-- $0.0$ -->
      <g transform="translate(28.490359 185.054669) scale(0.08 -0.08)">
       <use xlink:href="#DejaVuSans-30" transform="translate(0 0.78125)"/>
       <use xlink:href="#DejaVuSans-2e" transform="translate(63.623047 0.78125)"/>
       <use xlink:href="#DejaVuSans-30" transform="translate(95.410156 0.78125)"/>
      </g>
     </g>
    </g>
    <g id="ytick_3">
     <g id="line2d_9">
      <g>
       <use xlink:href="#m4e549ace47" x="44.790359" y="121.365987" style="stroke: #000000; stroke-width: 0.5"/>
      </g>
     </g>
     <g id="text_9">
      <!-- $0.2$ -->
      <g transform="translate(28.970359 124.405362) scale(0.08 -0.08)">
       <use xlink:href="#DejaVuSans-30" transform="translate(0 0.78125)"/>
       <use xlink:href="#DejaVuSans-2e" transform="translate(63.623047 0.78125)"/>
       <use xlink:href="#DejaVuSans-32" transform="translate(89.910156 0.78125)"/>
      </g>
     </g>
    </g>
    <g id="ytick_4">
     <g id="line2d_10">
      <g>
       <use xlink:href="#m4e549ace47" x="44.790359" y="60.71668" style="stroke: #000000; stroke-width: 0.5"/>
      </g>
     </g>
     <g id="text_10">
      <!-- $0.4$ -->
      <g transform="translate(28.490359 63.756055) scale(0.08 -0.08)">
       <defs>
        <path id="DejaVuSans-34" d="M 2419 4116 
L 825 1625 
L 2419 1625 
L 2419 4116 
z
M 2253 4666 
L 3047 4666 
L 3047 1625 
L 3713 1625 
L 3713 1100 
L 3047 1100 
L 3047 0 
L 2419 0 
L 2419 1100 
L 313 1100 
L 313 1709 
L 2253 4666 
z
" transform="scale(0.015625)"/>
       </defs>
       <use xlink:href="#DejaVuSans-30" transform="translate(0 0.78125)"/>
       <use xlink:href="#DejaVuSans-2e" transform="translate(63.623047 0.78125)"/>
       <use xlink:href="#DejaVuSans-34" transform="translate(95.410156 0.78125)"/>
      </g>
     </g>
    </g>
    <g id="text_11">
     <!-- $u_y$ ($m$) -->
     <g transform="translate(14.840359 147.855) rotate(-90) scale(0.11 -0.11)">
      <defs>
       <path id="DejaVuSans-Oblique-75" d="M 428 1388 
L 838 3500 
L 1416 3500 
L 1006 1409 
Q 975 1256 961 1147 
Q 947 1038 947 966 
Q 947 700 1109 554 
Q 1272 409 1569 409 
Q 2031 409 2368 721 
Q 2706 1034 2809 1563 
L 3194 3500 
L 3769 3500 
L 3091 0 
L 2516 0 
L 2631 550 
Q 2388 244 2052 76 
Q 1716 -91 1338 -91 
Q 878 -91 622 161 
Q 366 413 366 863 
Q 366 956 381 1097 
Q 397 1238 428 1388 
z
" transform="scale(0.015625)"/>
       <path id="DejaVuSans-Oblique-79" d="M 1588 -325 
Q 1188 -997 936 -1164 
Q 684 -1331 294 -1331 
L -159 -1331 
L -63 -850 
L 269 -850 
Q 509 -850 678 -719 
Q 847 -588 1056 -206 
L 1234 128 
L 459 3500 
L 1069 3500 
L 1650 819 
L 3256 3500 
L 3859 3500 
L 1588 -325 
z
" transform="scale(0.015625)"/>
       <path id="DejaVuSans-Oblique-6d" d="M 5747 2113 
L 5338 0 
L 4763 0 
L 5166 2094 
Q 5191 2228 5203 2325 
Q 5216 2422 5216 2491 
Q 5216 2772 5059 2928 
Q 4903 3084 4622 3084 
Q 4203 3084 3875 2770 
Q 3547 2456 3450 1953 
L 3066 0 
L 2491 0 
L 2900 2094 
Q 2925 2209 2937 2307 
Q 2950 2406 2950 2484 
Q 2950 2769 2794 2926 
Q 2638 3084 2363 3084 
Q 1938 3084 1609 2770 
Q 1281 2456 1184 1953 
L 800 0 
L 225 0 
L 909 3500 
L 1484 3500 
L 1375 2956 
Q 1609 3263 1923 3423 
Q 2238 3584 2597 3584 
Q 2978 3584 3223 3384 
Q 3469 3184 3519 2828 
Q 3781 3197 4126 3390 
Q 4472 3584 4856 3584 
Q 5306 3584 5551 3325 
Q 5797 3066 5797 2591 
Q 5797 2488 5784 2364 
Q 5772 2241 5747 2113 
z
" transform="scale(0.015625)"/>
      </defs>
      <use xlink:href="#DejaVuSans-Oblique-75" transform="translate(0 0.125)"/>
      <use xlink:href="#DejaVuSans-Oblique-79" transform="translate(63.378906 -16.28125) scale(0.7)"/>
      <use xlink:href="#DejaVuSans-20" transform="translate(107.539062 0.125)"/>
      <use xlink:href="#DejaVuSans-28" transform="translate(139.326172 0.125)"/>
      <use xlink:href="#DejaVuSans-Oblique-6d" transform="translate(178.339844 0.125)"/>
      <use xlink:href="#DejaVuSans-29" transform="translate(275.751953 0.125)"/>
     </g>
    </g>
   </g>
   <g id="line2d_11">
    <path d="M 44.790359 182.015294 
L 51.723073 181.905269 
L 54.249638 181.612987 
L 56.002487 181.18834 
L 57.618152 180.573555 
L 59.195985 179.733626 
L 61.160848 178.420029 
L 62.834667 177.07309 
L 64.671921 175.293917 
L 66.370695 173.347037 
L 72.450697 165.90558 
L 73.898709 164.617423 
L 75.214675 163.736096 
L 76.278381 163.293662 
L 77.340987 163.096487 
L 78.570297 163.117226 
L 79.931457 163.371704 
L 81.515649 163.897153 
L 83.117718 164.656647 
L 84.546577 165.583744 
L 86.119143 166.866255 
L 88.132529 168.845442 
L 91.941091 172.681343 
L 93.072398 173.527657 
L 94.122669 174.065107 
L 95.010622 174.31832 
L 95.898575 174.366646 
L 97.09833 174.176456 
L 100.039447 173.501289 
L 101.00113 173.517844 
L 101.761036 173.703202 
L 102.564539 174.094285 
L 103.398464 174.721265 
L 104.267444 175.622473 
L 105.15586 176.828061 
L 106.349143 178.914063 
L 107.548569 181.521656 
L 109.047851 185.349746 
L 111.228887 191.715324 
L 115.034244 203.041258 
L 116.161635 205.659383 
L 117.063547 207.212061 
L 117.74191 207.967672 
L 118.194795 208.235738 
L 118.64768 208.302241 
L 119.100565 208.154607 
L 119.55345 207.787972 
L 120.006335 207.198225 
L 120.685662 205.876994 
L 121.452086 203.763797 
L 122.236019 200.902555 
L 123.212331 196.387642 
L 124.36585 189.905834 
L 125.92424 179.765791 
L 129.319555 157.14789 
L 130.719981 149.382752 
L 131.978373 143.587901 
L 133.269266 138.792868 
L 134.305289 135.674331 
L 135.409924 133.009824 
L 136.298098 131.406278 
L 136.912457 130.603147 
L 137.526816 130.066955 
L 138.141176 129.813658 
L 138.755535 129.868302 
L 139.369894 130.254172 
L 139.984254 131.001029 
L 140.598613 132.096858 
L 141.428327 134.103625 
L 142.505102 137.467105 
L 143.797232 142.294501 
L 146.774525 153.725002 
L 147.796096 156.683091 
L 148.558175 158.304668 
L 149.167839 159.198675 
L 149.777502 159.734994 
L 150.390482 159.937474 
L 150.858931 159.885795 
L 151.50121 159.569357 
L 152.339041 158.842357 
L 155.945215 155.239108 
L 156.814255 154.793167 
L 157.763459 154.576879 
L 158.498431 154.605648 
L 159.265543 154.80686 
L 160.136424 155.230186 
L 161.094774 155.972574 
L 162.063222 157.098982 
L 163.036718 158.71091 
L 164.039548 160.977613 
L 164.747213 163.037137 
L 165.809762 166.98124 
L 166.87231 171.98661 
L 168.289042 180.016414 
L 172.128761 202.915383 
L 173.204502 207.684579 
L 174.146492 210.918093 
L 174.963838 212.959925 
L 175.605302 214.051708 
L 176.207351 214.658482 
L 176.69469 214.847117 
L 177.137582 214.773613 
L 177.578776 214.443837 
L 178.05667 213.770129 
L 178.548787 212.698047 
L 179.126528 210.916994 
L 179.786803 208.150285 
L 180.529612 204.062365 
L 181.354956 198.260798 
L 182.26475 190.274956 
L 183.370067 178.36343 
L 184.702552 161.396934 
L 188.508541 111.317933 
L 189.714186 99.247423 
L 190.756714 90.761304 
L 191.87803 83.393312 
L 192.872804 78.155857 
L 193.994325 73.301455 
L 195.445101 67.937661 
L 196.329495 65.227568 
L 196.954072 63.799075 
L 197.59087 62.95606 
L 197.909269 62.822573 
L 198.227668 62.906689 
L 198.546068 63.226273 
L 198.864467 63.795415 
L 199.501265 65.729571 
L 200.138063 68.770267 
L 200.774862 72.899602 
L 201.730059 80.866489 
L 203.481558 98.526237 
L 205.677213 120.103283 
L 209.521044 156.955559 
L 211.011157 170.627724 
L 211.902788 176.970799 
L 212.632441 180.69989 
L 213.237908 182.711025 
L 213.668292 183.539146 
L 214.065345 183.872265 
L 214.385651 183.846565 
L 214.718067 183.551965 
L 215.136609 182.807485 
L 215.654661 181.343698 
L 216.289099 178.83497 
L 217.119759 174.620557 
L 220.314029 157.127696 
L 220.98288 155.093666 
L 221.440444 154.249743 
L 221.943769 153.809918 
L 222.29489 153.762347 
L 222.674994 153.902077 
L 223.27693 154.393075 
L 224.985583 156.038285 
L 225.455349 156.246729 
L 225.926212 156.249195 
L 226.42582 156.00211 
L 226.928601 155.510062 
L 227.997155 153.980056 
L 228.872914 152.845074 
L 229.492022 152.421965 
L 230.128554 152.403453 
L 230.765086 152.804521 
L 231.401618 153.63411 
L 232.03815 154.957387 
L 232.674681 156.844068 
L 233.311213 159.328755 
L 234.266011 164.107449 
L 235.539075 172.08962 
L 237.952658 188.146152 
L 238.587279 190.877153 
L 239.147464 192.459989 
L 239.691351 193.351305 
L 240.189487 193.738169 
L 240.63889 193.82706 
L 241.165013 193.690887 
L 241.903112 193.221169 
L 243.436279 191.906373 
L 244.045606 191.127716 
L 244.497793 190.200052 
L 244.982977 188.666331 
L 245.520641 186.127506 
L 246.104188 182.2652 
L 246.82624 175.929543 
L 247.694129 166.297814 
L 248.869291 150.432169 
L 251.238963 117.40219 
L 252.258636 106.559245 
L 253.329738 97.576819 
L 254.217106 91.815666 
L 255.212774 86.870915 
L 256.39195 81.191506 
L 257.132613 76.327605 
L 257.959796 69.243326 
L 260.763082 43.265495 
L 261.473379 39.041125 
L 262.006102 36.897709 
L 262.518594 35.739072 
L 262.798762 35.502728 
L 263.044408 35.534607 
L 263.290055 35.796675 
L 263.658712 36.627531 
L 264.116229 38.366467 
L 264.761305 41.998538 
L 265.747261 49.239848 
L 267.578727 62.780225 
L 268.866954 70.546542 
L 270.864927 82.103771 
L 271.559326 87.849645 
L 272.321179 96.057579 
L 273.172262 107.733217 
L 274.204429 125.197097 
L 275.616737 153.452728 
L 277.567554 192.270565 
L 278.506875 206.914311 
L 279.297661 216.183173 
L 279.932993 221.257721 
L 280.369283 223.360478 
L 280.701522 224.157453 
L 280.923014 224.2988 
L 281.14498 224.130843 
L 281.481492 223.302247 
L 281.940707 221.138952 
L 282.528529 216.898803 
L 283.437748 208.171692 
L 285.934906 182.762751 
L 286.66139 177.420416 
L 287.206253 174.537298 
L 287.751116 172.74452 
L 288.119878 172.146316 
L 288.48864 171.98825 
L 288.857402 172.180853 
L 289.547485 173.054329 
L 290.179612 173.749435 
L 290.432463 173.810396 
L 290.685313 173.670844 
L 290.940231 173.281391 
L 291.32536 172.120648 
L 291.735383 170.016593 
L 292.266268 165.869738 
L 292.922782 158.588471 
L 293.890361 144.657754 
L 295.379219 123.044923 
L 296.021923 116.543499 
L 296.485991 113.565068 
L 296.845507 112.343488 
L 297.093149 112.057884 
L 297.340854 112.208362 
L 297.591954 112.778172 
L 297.973695 114.370056 
L 298.482683 117.593271 
L 300.5197 132.025031 
L 300.896938 133.12541 
L 301.21478 133.470735 
L 301.46792 133.385082 
L 301.736759 132.979641 
L 302.107914 131.980722 
L 302.900441 128.94066 
L 303.529372 126.916859 
L 303.8048 126.495896 
L 303.989246 126.441685 
L 304.179564 126.603646 
L 304.479198 127.343731 
L 304.889869 129.348658 
L 305.44903 133.76637 
L 306.247302 142.438974 
L 307.78234 162.200031 
L 310.737466 201.418711 
L 311.575413 208.891773 
L 312.248762 213.14986 
L 312.756908 215.329838 
L 313.095672 216.242817 
L 313.46288 216.695902 
L 313.649817 216.700513 
L 313.836754 216.549575 
L 314.157539 215.931921 
L 314.529634 214.674373 
L 315.112255 211.731401 
L 317.056967 200.803651 
L 317.538736 199.558793 
L 317.905345 199.120822 
L 318.221428 199.045587 
L 318.614267 199.215322 
L 319.554717 199.728842 
L 319.90553 199.650501 
L 320.220506 199.388142 
L 320.59117 198.824329 
L 321.090469 197.613321 
L 321.601442 195.741995 
L 322.122349 192.895672 
L 322.643256 188.737531 
L 323.27829 181.675207 
L 324.52291 164.100008 
L 325.46813 152.522201 
L 326.43312 143.686766 
L 327.15883 138.856906 
L 329.024333 128.205932 
L 329.783127 121.316271 
L 331.166415 108.434272 
L 331.622787 105.91389 
L 331.987885 104.827419 
L 332.261709 104.494577 
L 332.506606 104.471452 
L 332.825131 104.735654 
L 333.238005 105.457181 
L 333.86666 107.104678 
L 335.225381 110.821582 
L 335.828102 111.83529 
L 336.342843 112.316149 
L 336.6469 112.364584 
L 337.033202 112.155512 
L 337.754413 111.354764 
L 338.736733 110.336428 
L 339.014945 110.271154 
L 339.246172 110.423484 
L 339.505831 110.918879 
L 339.783139 111.940049 
L 340.18155 114.471498 
L 340.701866 119.727787 
L 341.40876 129.793378 
L 345.771141 199.051987 
L 346.866457 213.956896 
L 347.695316 222.278631 
L 348.461382 227.881029 
L 349.080876 231.057164 
L 349.480634 232.122075 
L 349.753117 232.328814 
L 349.935706 232.233089 
L 350.210958 231.748488 
L 350.569258 230.556553 
L 351.05446 228.103419 
L 352.190216 221.832564 
L 352.473258 221.309763 
L 352.663163 221.396988 
L 352.856886 221.878649 
L 353.153069 223.369982 
L 353.657035 227.601075 
L 355.413721 244.232152 
L 355.917836 246.881772 
L 356.295923 247.837022 
L 356.54798 247.943306 
L 356.800038 247.635479 
L 357.052096 246.93042 
L 357.430182 245.133645 
L 357.957404 241.073097 
L 358.562645 234.075114 
L 359.448931 220.373825 
L 360.567122 203.391869 
L 361.090805 197.917653 
L 361.441746 195.7909 
L 361.690444 195.14399 
L 361.82061 195.079693 
L 361.950776 195.183818 
L 362.211108 195.797515 
L 363.554415 200.261348 
L 363.828262 200.541449 
L 364.102108 200.500701 
L 364.375955 200.180678 
L 365.736497 198.087825 
L 366.218401 197.404407 
L 366.57867 196.5321 
L 366.920801 195.147883 
L 367.370888 192.200676 
L 367.965114 186.511275 
L 369.539236 168.025757 
L 371.898769 141.91895 
L 372.701032 134.061044 
L 373.159467 131.48995 
L 373.503294 130.571826 
L 373.732512 130.369339 
L 373.968281 130.457313 
L 374.2106 130.815022 
L 374.69524 132.12443 
L 375.422957 134.888163 
L 376.089393 138.225615 
L 376.645356 142.389703 
L 377.589894 151.735011 
L 378.610301 160.937491 
L 379.770035 169.36222 
L 380.816136 175.425929 
L 381.416702 177.870482 
L 381.792645 178.685157 
L 382.169474 179.042996 
L 383.076938 179.623189 
L 383.411034 180.206574 
L 383.777017 181.458387 
L 384.15044 183.653178 
L 384.710574 188.486773 
L 385.901061 201.308751 
L 386.946607 211.910979 
L 387.790344 220.816326 
L 388.603714 229.05148 
L 389.229921 233.335631 
L 389.605646 234.900161 
L 389.856128 235.361224 
L 389.98137 235.39598 
L 390.231853 235.102458 
L 390.732818 233.652975 
L 391.359025 232.061465 
L 391.859991 231.470364 
L 392.235715 231.313331 
L 392.653665 231.410507 
L 393.555126 231.8948 
L 393.825075 231.791031 
L 394.233498 231.292887 
L 394.937624 229.818229 
L 395.750502 228.16937 
L 396.234344 227.687862 
L 396.781724 227.240108 
L 397.110151 226.552811 
L 397.439988 225.347478 
L 397.886943 222.719286 
L 398.332323 218.471724 
L 398.968244 209.590221 
L 400.328157 186.413463 
L 401.621429 161.507874 
L 402.930822 131.044553 
L 403.887317 110.752497 
L 404.567098 101.257605 
L 405.366312 93.467259 
L 406.39851 82.607927 
L 408.335894 60.986084 
L 409.227293 52.650251 
L 410.548516 36.161298 
L 411.369703 27.000978 
L 411.961591 22.554874 
L 412.613646 19.323641 
L 413.704471 14.096793 
L 414.318177 11.213405 
L 414.71278 10.302439 
L 414.912011 10.157394 
L 415.113171 10.218274 
L 415.414911 10.63336 
L 415.820145 11.706222 
L 416.331106 14.074718 
L 418.614223 26.792241 
L 419.127268 31.700251 
L 420.050828 43.713434 
L 421.057717 55.899519 
L 421.556308 59.425135 
L 421.898148 60.415978 
L 422.15637 60.532947 
L 422.361999 60.372376 
L 422.361999 60.372376 
" clip-path="url(#p731109d492)" style="fill: none; stroke: #e36f47"/>
   </g>
   <g id="patch_3">
    <path d="M 44.790359 258.225354 
L 44.790359 2.834646 
" style="fill: none; stroke: #000000; stroke-linejoin: miter; stroke-linecap: square"/>
   </g>
   <g id="patch_4">
    <path d="M 44.790359 258.225354 
L 422.361999 258.225354 
" style="fill: none; stroke: #000000; stroke-linejoin: miter; stroke-linecap: square"/>
   </g>
   <g id="line2d_12">
    <path d="M 44.790359 182.015294 
L 51.717898 181.905727 
L 54.203648 181.620793 
L 55.897577 181.220848 
L 57.543397 180.607005 
L 59.083546 179.800209 
L 60.889409 178.613667 
L 62.683441 177.206423 
L 64.457899 175.519272 
L 66.194112 173.564086 
L 68.998177 169.963696 
L 71.756739 166.63018 
L 73.270674 165.138654 
L 74.651296 164.079442 
L 75.801555 163.461291 
L 76.799548 163.169354 
L 77.862826 163.07832 
L 79.088369 163.191083 
L 80.495008 163.536274 
L 82.064281 164.134007 
L 83.640037 164.970417 
L 85.099774 166.005435 
L 86.802636 167.503279 
L 89.326612 170.094815 
L 91.684544 172.442563 
L 93.069536 173.51905 
L 94.249513 174.110585 
L 95.135796 174.335175 
L 96.217261 174.362529 
L 97.363539 174.146926 
L 100.046262 173.525887 
L 101.095587 173.564528 
L 101.912695 173.787847 
L 102.730137 174.215471 
L 103.711062 175.028984 
L 104.744925 176.254061 
L 105.744595 177.800871 
L 106.835448 179.901373 
L 108.016283 182.62956 
L 109.749653 187.294415 
L 112.221978 194.724425 
L 114.772983 202.236218 
L 115.891217 204.982453 
L 116.769618 206.662539 
L 117.350939 207.474081 
L 117.979393 208.03585 
L 118.600491 208.23191 
L 119.213181 208.04209 
L 119.73683 207.557904 
L 120.262897 206.759583 
L 120.823278 205.558806 
L 121.7043 202.943942 
L 122.547391 199.63647 
L 123.56041 194.693229 
L 124.791317 187.468573 
L 126.833106 173.743476 
L 129.26278 157.660312 
L 130.704115 149.589857 
L 131.814722 144.394652 
L 132.945928 139.994127 
L 134.041641 136.51423 
L 135.202077 133.602073 
L 136.133125 131.828008 
L 137.084302 130.56947 
L 137.725159 130.076038 
L 138.289277 129.904987 
L 138.89779 130.019401 
L 139.415895 130.373346 
L 139.964234 131.01109 
L 140.529228 131.950426 
L 141.429953 134.016592 
L 142.494725 137.261661 
L 143.678222 141.622553 
L 146.901188 153.919713 
L 147.892782 156.747104 
L 148.676397 158.3932 
L 149.231995 159.212982 
L 149.759852 159.72134 
L 150.370422 159.993535 
L 150.957904 159.964064 
L 151.477187 159.732884 
L 152.355333 159.012583 
L 153.914674 157.255891 
L 155.263014 155.857513 
L 156.362972 155.081986 
L 157.174709 154.772654 
L 157.987359 154.686285 
L 158.758198 154.795803 
L 159.544075 155.085044 
L 160.335895 155.557422 
L 161.266663 156.37177 
L 162.07725 157.354314 
L 162.905442 158.683881 
L 163.888035 160.792026 
L 164.685465 163.015128 
L 165.684842 166.550335 
L 166.694635 171.015183 
L 168.021827 178.12735 
L 170.260017 191.918892 
L 171.744401 200.640871 
L 172.825248 205.960053 
L 173.668095 209.291271 
L 174.514086 211.845497 
L 175.093682 213.127512 
L 175.637258 213.982046 
L 176.127532 214.461972 
L 176.683558 214.666 
L 177.150012 214.547464 
L 177.544697 214.228884 
L 177.916893 213.733789 
L 178.435874 212.704411 
L 178.922374 211.354292 
L 179.693851 208.380652 
L 180.517709 203.990054 
L 181.505078 196.983171 
L 182.397436 188.987762 
L 183.431447 177.842571 
L 184.858353 159.807423 
L 188.344619 114.068388 
L 189.485821 102.073627 
L 190.729537 91.442851 
L 191.813193 84.088244 
L 192.917308 78.13388 
L 194.041383 73.282729 
L 195.328578 68.702751 
L 196.329087 65.785906 
L 197.080322 64.188825 
L 197.5875 63.551111 
L 197.956143 63.374399 
L 198.27782 63.447997 
L 198.588681 63.740857 
L 198.928671 64.329451 
L 199.491778 65.958334 
L 200.033907 68.322768 
L 200.758343 72.684417 
L 201.583819 79.168497 
L 202.811588 90.975372 
L 206.296646 125.954566 
L 211.601213 174.922704 
L 212.441815 179.907104 
L 213.010685 182.212073 
L 213.42192 183.317688 
L 213.837843 183.962124 
L 214.230872 184.146517 
L 214.657152 183.901419 
L 215.064895 183.259203 
L 215.525739 182.091843 
L 216.169792 179.765148 
L 217.009953 175.755821 
L 218.531411 167.04954 
L 219.743687 160.525522 
L 220.59745 157.104793 
L 221.137751 155.64958 
L 221.651918 154.805324 
L 222.091481 154.475279 
L 222.554797 154.459 
L 223.068603 154.739879 
L 223.89013 155.537448 
L 224.920306 156.509298 
L 225.445272 156.780187 
L 225.892849 156.824559 
L 226.327523 156.68051 
L 226.886964 156.223701 
L 227.673118 155.187196 
L 228.911653 153.481015 
L 229.504704 153.032044 
L 229.924709 152.943526 
L 230.383505 153.08119 
L 230.838294 153.459559 
L 231.342943 154.157571 
L 232.010883 155.539559 
L 232.771956 157.799202 
L 233.548996 160.912018 
L 234.539775 165.99758 
L 235.831737 174.072824 
L 237.969597 187.843433 
L 238.680943 191.02804 
L 239.338531 192.934964 
L 239.915832 193.85992 
L 240.451481 194.232573 
L 240.911141 194.279411 
L 241.405513 194.119646 
L 242.062373 193.636588 
L 242.790166 192.812907 
L 243.633924 191.523163 
L 244.292187 190.125093 
L 244.824406 188.521127 
L 245.461833 185.734814 
L 245.981944 182.560873 
L 246.69283 176.790731 
L 247.599342 167.21398 
L 248.801567 151.511166 
L 251.652109 112.164693 
L 252.597666 102.793589 
L 253.50029 95.891289 
L 254.560699 89.630981 
L 257.13802 76.030728 
L 257.979817 69.207017 
L 260.94273 42.948735 
L 261.586028 39.529718 
L 262.118752 37.579963 
L 262.542183 36.597295 
L 262.860767 36.198327 
L 263.173774 36.107226 
L 263.45759 36.299246 
L 263.782262 36.86191 
L 264.21628 38.219076 
L 264.743398 40.812955 
L 265.395796 45.289541 
L 268.385771 67.978224 
L 271.307841 86.035851 
L 272.084424 93.13943 
L 272.889618 102.843953 
L 273.748549 116.034193 
L 274.993644 139.396231 
L 277.934976 196.707041 
L 278.848431 209.647495 
L 279.55784 216.955018 
L 280.103008 220.780189 
L 280.598752 222.834901 
L 280.879148 223.379643 
L 281.172858 223.466245 
L 281.472136 223.047325 
L 281.776599 222.106739 
L 282.209813 219.918457 
L 282.712959 216.256335 
L 283.543755 208.218695 
L 286.026517 182.081084 
L 286.796673 176.578391 
L 287.42665 173.576172 
L 287.926568 172.220936 
L 288.221713 171.844386 
L 288.493327 171.758889 
L 288.748259 171.883082 
L 289.142067 172.385573 
L 290.416136 174.475998 
L 290.674383 174.514086 
L 290.899291 174.327843 
L 291.138401 173.866282 
L 291.531188 172.43931 
L 291.940672 169.990123 
L 292.521844 164.801302 
L 293.28925 155.253167 
L 295.892247 119.234979 
L 296.39756 115.439161 
L 296.77683 113.757059 
L 297.040148 113.190883 
L 297.308491 113.111913 
L 297.58744 113.540579 
L 297.857645 114.419091 
L 298.278783 116.575036 
L 298.911267 121.094623 
L 300.340286 131.664241 
L 300.85369 133.863745 
L 301.201968 134.613968 
L 301.471469 134.783054 
L 301.669719 134.693657 
L 301.992763 134.206005 
L 302.480803 132.854907 
L 303.770817 128.898497 
L 304.032584 128.657222 
L 304.278839 128.756371 
L 304.511209 129.174036 
L 304.833549 130.304872 
L 305.25927 132.768406 
L 305.869816 137.973571 
L 306.748349 147.827981 
L 308.164577 166.598252 
L 310.562559 199.124917 
L 311.395452 207.225102 
L 312.110772 212.156042 
L 312.684471 214.736457 
L 313.141697 215.895733 
L 313.470595 216.214238 
L 313.679744 216.18491 
L 313.895641 215.963537 
L 314.197763 215.331361 
L 314.627072 213.821008 
L 315.20662 210.823185 
L 317.228012 199.040304 
L 317.69023 197.803195 
L 318.105134 197.31963 
L 318.460014 197.261129 
L 319.025395 197.506824 
L 319.614579 197.692939 
L 319.984592 197.566882 
L 320.394276 197.134498 
L 320.906988 196.157968 
L 321.444191 194.607941 
L 321.954233 192.477287 
L 322.41965 189.692377 
L 323.020938 184.490623 
L 323.692021 176.455795 
L 326.064725 145.63017 
L 326.824264 139.551932 
L 327.58701 135.186801 
L 328.87165 128.438495 
L 329.550286 123.01109 
L 331.448629 106.527599 
L 331.928101 104.524567 
L 332.305239 103.788934 
L 332.586809 103.639404 
L 332.877459 103.755672 
L 333.261472 104.214082 
L 333.794036 105.275802 
L 334.572291 107.457057 
L 335.675776 110.501026 
L 336.163327 111.306048 
L 336.602825 111.660548 
L 336.973492 111.679906 
L 337.356357 111.466791 
L 338.445237 110.668186 
L 338.832248 110.717802 
L 339.135159 110.990022 
L 339.508463 111.72643 
L 339.875401 113.071963 
L 340.304119 115.710306 
L 340.751542 119.909889 
L 341.383505 128.294316 
L 342.353746 144.817764 
L 343.892709 170.681665 
L 347.305269 220.928728 
L 348.019506 227.474604 
L 348.5971 231.032798 
L 349.16383 233.239852 
L 349.615815 234.168951 
L 349.90467 234.337292 
L 350.156252 234.187026 
L 350.488015 233.559187 
L 350.906169 232.134147 
L 351.61442 228.652566 
L 352.345023 225.228252 
L 352.670044 224.508547 
L 352.818424 224.460813 
L 352.955557 224.597545 
L 353.216716 225.369427 
L 353.56365 227.419863 
L 354.092646 232.333702 
L 355.511275 246.643583 
L 356.006657 249.599766 
L 356.402614 250.823048 
L 356.589543 250.997315 
L 356.73884 250.938058 
L 356.925017 250.613666 
L 357.247945 249.408081 
L 357.684004 246.620257 
L 358.225085 241.651519 
L 358.888272 233.54265 
L 359.921262 217.560063 
L 360.935646 202.964462 
L 361.480236 197.951701 
L 361.828869 196.333179 
L 362.038801 195.984126 
L 362.181827 195.995184 
L 362.401423 196.350971 
L 362.798371 197.723735 
L 363.744672 201.295664 
L 364.070737 201.779958 
L 364.299989 201.816108 
L 364.56682 201.588948 
L 365.051116 200.735518 
L 366.491509 197.607391 
L 366.955703 195.890108 
L 367.419675 193.259306 
L 367.95648 188.679043 
L 368.724822 179.654149 
L 370.611658 156.93446 
L 372.584623 136.705815 
L 373.180162 132.120818 
L 373.550173 130.580098 
L 373.807328 130.14773 
L 373.981072 130.120766 
L 374.182729 130.312446 
L 374.516462 131.03061 
L 374.971747 132.568904 
L 375.608968 135.559738 
L 376.306996 139.890925 
L 377.048424 145.978012 
L 379.874293 171.856115 
L 380.631467 176.228232 
L 381.222667 178.47434 
L 381.724424 179.652407 
L 382.174845 180.206784 
L 382.691803 180.480081 
L 383.29971 180.802272 
L 383.624027 181.290358 
L 383.928683 182.219086 
L 384.299241 184.214656 
L 384.84399 188.783844 
L 386.036775 201.472774 
L 387.507359 217.361588 
L 389.172318 232.393942 
L 389.696408 234.801753 
L 390.054014 235.63267 
L 390.285894 235.799897 
L 390.493881 235.704682 
L 390.797304 235.215769 
L 392.260823 232.245374 
L 392.796078 231.891746 
L 393.874231 231.358897 
L 394.418092 230.724123 
L 395.213099 229.409352 
L 396.102867 227.496846 
L 397.525907 223.938391 
L 397.926985 221.96184 
L 398.387643 218.485731 
L 398.903582 212.719579 
L 399.560865 202.594548 
L 400.578156 183.193367 
L 402.474424 141.699308 
L 404.022013 107.933505 
L 404.760401 96.635457 
L 405.508566 88.513352 
L 407.087067 73.023257 
L 408.56609 57.461969 
L 410.098443 42.0704 
L 411.647978 26.056954 
L 412.319168 21.252591 
L 413.193195 16.873511 
L 414.231971 12.501042 
L 414.846106 10.708599 
L 415.208552 10.146673 
L 415.461993 10.070423 
L 415.691329 10.251143 
L 416.025039 10.924445 
L 416.470315 12.493599 
L 417.025082 15.413355 
L 418.041978 22.285568 
L 418.827083 28.925856 
L 419.57906 37.30363 
L 421.499255 60.399363 
L 421.939703 62.838916 
L 422.22165 63.522259 
L 422.361999 63.631694 
L 422.361999 63.631694 
" clip-path="url(#p731109d492)" style="fill: none; stroke: #3ea44e"/>
   </g>
   <g id="legend_1">
    <g id="patch_5">
     <path d="M 332.945749 50.862146 
L 418.361999 50.862146 
L 418.361999 6.834646 
L 332.945749 6.834646 
z
" style="fill: #ffffff; stroke: #000000; stroke-linejoin: miter"/>
    </g>
    <g id="line2d_13">
     <path d="M 339.345749 16.513396 
L 347.345749 16.513396 
L 355.345749 16.513396 
" style="fill: none; stroke: #009afa; stroke-linejoin: miter"/>
    </g>
    <g id="text_12">
     <!-- GXBeam -->
     <g transform="translate(361.745749 19.313396) scale(0.08 -0.08)">
      <defs>
       <path id="DejaVuSans-47" d="M 3809 666 
L 3809 1919 
L 2778 1919 
L 2778 2438 
L 4434 2438 
L 4434 434 
Q 4069 175 3628 42 
Q 3188 -91 2688 -91 
Q 1594 -91 976 548 
Q 359 1188 359 2328 
Q 359 3472 976 4111 
Q 1594 4750 2688 4750 
Q 3144 4750 3555 4637 
Q 3966 4525 4313 4306 
L 4313 3634 
Q 3963 3931 3569 4081 
Q 3175 4231 2741 4231 
Q 1884 4231 1454 3753 
Q 1025 3275 1025 2328 
Q 1025 1384 1454 906 
Q 1884 428 2741 428 
Q 3075 428 3337 486 
Q 3600 544 3809 666 
z
" transform="scale(0.015625)"/>
       <path id="DejaVuSans-58" d="M 403 4666 
L 1081 4666 
L 2241 2931 
L 3406 4666 
L 4084 4666 
L 2584 2425 
L 4184 0 
L 3506 0 
L 2194 1984 
L 872 0 
L 191 0 
L 1856 2491 
L 403 4666 
z
" transform="scale(0.015625)"/>
       <path id="DejaVuSans-42" d="M 1259 2228 
L 1259 519 
L 2272 519 
Q 2781 519 3026 730 
Q 3272 941 3272 1375 
Q 3272 1813 3026 2020 
Q 2781 2228 2272 2228 
L 1259 2228 
z
M 1259 4147 
L 1259 2741 
L 2194 2741 
Q 2656 2741 2882 2914 
Q 3109 3088 3109 3444 
Q 3109 3797 2882 3972 
Q 2656 4147 2194 4147 
L 1259 4147 
z
M 628 4666 
L 2241 4666 
Q 2963 4666 3353 4366 
Q 3744 4066 3744 3513 
Q 3744 3084 3544 2831 
Q 3344 2578 2956 2516 
Q 3422 2416 3680 2098 
Q 3938 1781 3938 1306 
Q 3938 681 3513 340 
Q 3088 0 2303 0 
L 628 0 
L 628 4666 
z
" transform="scale(0.015625)"/>
       <path id="DejaVuSans-61" d="M 2194 1759 
Q 1497 1759 1228 1600 
Q 959 1441 959 1056 
Q 959 750 1161 570 
Q 1363 391 1709 391 
Q 2188 391 2477 730 
Q 2766 1069 2766 1631 
L 2766 1759 
L 2194 1759 
z
M 3341 1997 
L 3341 0 
L 2766 0 
L 2766 531 
Q 2569 213 2275 61 
Q 1981 -91 1556 -91 
Q 1019 -91 701 211 
Q 384 513 384 1019 
Q 384 1609 779 1909 
Q 1175 2209 1959 2209 
L 2766 2209 
L 2766 2266 
Q 2766 2663 2505 2880 
Q 2244 3097 1772 3097 
Q 1472 3097 1187 3025 
Q 903 2953 641 2809 
L 641 3341 
Q 956 3463 1253 3523 
Q 1550 3584 1831 3584 
Q 2591 3584 2966 3190 
Q 3341 2797 3341 1997 
z
" transform="scale(0.015625)"/>
      </defs>
      <use xlink:href="#DejaVuSans-47"/>
      <use xlink:href="#DejaVuSans-58" x="77.490234"/>
      <use xlink:href="#DejaVuSans-42" x="145.996094"/>
      <use xlink:href="#DejaVuSans-65" x="214.599609"/>
      <use xlink:href="#DejaVuSans-61" x="276.123047"/>
      <use xlink:href="#DejaVuSans-6d" x="337.402344"/>
     </g>
    </g>
    <g id="line2d_14">
     <path d="M 339.345749 28.255896 
L 347.345749 28.255896 
L 355.345749 28.255896 
" style="fill: none; stroke: #e36f47; stroke-linejoin: miter"/>
    </g>
    <g id="text_13">
     <!-- ODEProblem -->
     <g transform="translate(361.745749 31.055896) scale(0.08 -0.08)">
      <defs>
       <path id="DejaVuSans-4f" d="M 2522 4238 
Q 1834 4238 1429 3725 
Q 1025 3213 1025 2328 
Q 1025 1447 1429 934 
Q 1834 422 2522 422 
Q 3209 422 3611 934 
Q 4013 1447 4013 2328 
Q 4013 3213 3611 3725 
Q 3209 4238 2522 4238 
z
M 2522 4750 
Q 3503 4750 4090 4092 
Q 4678 3434 4678 2328 
Q 4678 1225 4090 567 
Q 3503 -91 2522 -91 
Q 1538 -91 948 565 
Q 359 1222 359 2328 
Q 359 3434 948 4092 
Q 1538 4750 2522 4750 
z
" transform="scale(0.015625)"/>
       <path id="DejaVuSans-44" d="M 1259 4147 
L 1259 519 
L 2022 519 
Q 2988 519 3436 956 
Q 3884 1394 3884 2338 
Q 3884 3275 3436 3711 
Q 2988 4147 2022 4147 
L 1259 4147 
z
M 628 4666 
L 1925 4666 
Q 3281 4666 3915 4102 
Q 4550 3538 4550 2338 
Q 4550 1131 3912 565 
Q 3275 0 1925 0 
L 628 0 
L 628 4666 
z
" transform="scale(0.015625)"/>
       <path id="DejaVuSans-45" d="M 628 4666 
L 3578 4666 
L 3578 4134 
L 1259 4134 
L 1259 2753 
L 3481 2753 
L 3481 2222 
L 1259 2222 
L 1259 531 
L 3634 531 
L 3634 0 
L 628 0 
L 628 4666 
z
" transform="scale(0.015625)"/>
       <path id="DejaVuSans-50" d="M 1259 4147 
L 1259 2394 
L 2053 2394 
Q 2494 2394 2734 2622 
Q 2975 2850 2975 3272 
Q 2975 3691 2734 3919 
Q 2494 4147 2053 4147 
L 1259 4147 
z
M 628 4666 
L 2053 4666 
Q 2838 4666 3239 4311 
Q 3641 3956 3641 3272 
Q 3641 2581 3239 2228 
Q 2838 1875 2053 1875 
L 1259 1875 
L 1259 0 
L 628 0 
L 628 4666 
z
" transform="scale(0.015625)"/>
       <path id="DejaVuSans-72" d="M 2631 2963 
Q 2534 3019 2420 3045 
Q 2306 3072 2169 3072 
Q 1681 3072 1420 2755 
Q 1159 2438 1159 1844 
L 1159 0 
L 581 0 
L 581 3500 
L 1159 3500 
L 1159 2956 
Q 1341 3275 1631 3429 
Q 1922 3584 2338 3584 
Q 2397 3584 2469 3576 
Q 2541 3569 2628 3553 
L 2631 2963 
z
" transform="scale(0.015625)"/>
       <path id="DejaVuSans-6f" d="M 1959 3097 
Q 1497 3097 1228 2736 
Q 959 2375 959 1747 
Q 959 1119 1226 758 
Q 1494 397 1959 397 
Q 2419 397 2687 759 
Q 2956 1122 2956 1747 
Q 2956 2369 2687 2733 
Q 2419 3097 1959 3097 
z
M 1959 3584 
Q 2709 3584 3137 3096 
Q 3566 2609 3566 1747 
Q 3566 888 3137 398 
Q 2709 -91 1959 -91 
Q 1206 -91 779 398 
Q 353 888 353 1747 
Q 353 2609 779 3096 
Q 1206 3584 1959 3584 
z
" transform="scale(0.015625)"/>
       <path id="DejaVuSans-62" d="M 3116 1747 
Q 3116 2381 2855 2742 
Q 2594 3103 2138 3103 
Q 1681 3103 1420 2742 
Q 1159 2381 1159 1747 
Q 1159 1113 1420 752 
Q 1681 391 2138 391 
Q 2594 391 2855 752 
Q 3116 1113 3116 1747 
z
M 1159 2969 
Q 1341 3281 1617 3432 
Q 1894 3584 2278 3584 
Q 2916 3584 3314 3078 
Q 3713 2572 3713 1747 
Q 3713 922 3314 415 
Q 2916 -91 2278 -91 
Q 1894 -91 1617 61 
Q 1341 213 1159 525 
L 1159 0 
L 581 0 
L 581 4863 
L 1159 4863 
L 1159 2969 
z
" transform="scale(0.015625)"/>
       <path id="DejaVuSans-6c" d="M 603 4863 
L 1178 4863 
L 1178 0 
L 603 0 
L 603 4863 
z
" transform="scale(0.015625)"/>
      </defs>
      <use xlink:href="#DejaVuSans-4f"/>
      <use xlink:href="#DejaVuSans-44" x="78.710938"/>
      <use xlink:href="#DejaVuSans-45" x="155.712891"/>
      <use xlink:href="#DejaVuSans-50" x="218.896484"/>
      <use xlink:href="#DejaVuSans-72" x="277.449219"/>
      <use xlink:href="#DejaVuSans-6f" x="316.3125"/>
      <use xlink:href="#DejaVuSans-62" x="377.494141"/>
      <use xlink:href="#DejaVuSans-6c" x="440.970703"/>
      <use xlink:href="#DejaVuSans-65" x="468.753906"/>
      <use xlink:href="#DejaVuSans-6d" x="530.277344"/>
     </g>
    </g>
    <g id="line2d_15">
     <path d="M 339.345749 39.998396 
L 347.345749 39.998396 
L 355.345749 39.998396 
" style="fill: none; stroke: #3ea44e; stroke-linejoin: miter"/>
    </g>
    <g id="text_14">
     <!-- DAEProblem -->
     <g transform="translate(361.745749 42.798396) scale(0.08 -0.08)">
      <defs>
       <path id="DejaVuSans-41" d="M 2188 4044 
L 1331 1722 
L 3047 1722 
L 2188 4044 
z
M 1831 4666 
L 2547 4666 
L 4325 0 
L 3669 0 
L 3244 1197 
L 1141 1197 
L 716 0 
L 50 0 
L 1831 4666 
z
" transform="scale(0.015625)"/>
      </defs>
      <use xlink:href="#DejaVuSans-44"/>
      <use xlink:href="#DejaVuSans-41" x="75.251953"/>
      <use xlink:href="#DejaVuSans-45" x="143.660156"/>
      <use xlink:href="#DejaVuSans-50" x="206.84375"/>
      <use xlink:href="#DejaVuSans-72" x="265.396484"/>
      <use xlink:href="#DejaVuSans-6f" x="304.259766"/>
      <use xlink:href="#DejaVuSans-62" x="365.441406"/>
      <use xlink:href="#DejaVuSans-6c" x="428.917969"/>
      <use xlink:href="#DejaVuSans-65" x="456.701172"/>
      <use xlink:href="#DejaVuSans-6d" x="518.224609"/>
     </g>
    </g>
   </g>
  </g>
 </g>
 <defs>
  <clipPath id="p731109d492">
   <rect x="44.790359" y="2.834646" width="377.57164" height="255.390709"/>
  </clipPath>
 </defs>
</svg>
