<?xml version="1.0" encoding="utf-8" standalone="no"?>
<!DOCTYPE svg PUBLIC "-//W3C//DTD SVG 1.1//EN"
  "http://www.w3.org/Graphics/SVG/1.1/DTD/svg11.dtd">
<svg xmlns:xlink="http://www.w3.org/1999/xlink" width="432pt" height="288pt" viewBox="0 0 432 288" xmlns="http://www.w3.org/2000/svg" version="1.1">
 <metadata>
  <rdf:RDF xmlns:dc="http://purl.org/dc/elements/1.1/" xmlns:cc="http://creativecommons.org/ns#" xmlns:rdf="http://www.w3.org/1999/02/22-rdf-syntax-ns#">
   <cc:Work>
    <dc:type rdf:resource="http://purl.org/dc/dcmitype/StillImage"/>
    <dc:date>2023-02-17T20:53:29.601554</dc:date>
    <dc:format>image/svg+xml</dc:format>
    <dc:creator>
     <cc:Agent>
      <dc:title>Matplotlib v3.7.0, https://matplotlib.org/</dc:title>
     </cc:Agent>
    </dc:creator>
   </cc:Work>
  </rdf:RDF>
 </metadata>
 <defs>
  <style type="text/css">*{stroke-linejoin: round; stroke-linecap: butt}</style>
 </defs>
 <g id="figure_1">
  <g id="patch_1">
   <path d="M 0 288 
L 432 288 
L 432 0 
L 0 0 
z
" style="fill: #ffffff"/>
  </g>
  <g id="axes_1">
   <g id="patch_2">
    <path d="M 66.051544 258.225354 
L 422.361999 258.225354 
L 422.361999 2.834646 
L 66.051544 2.834646 
z
" style="fill: #ffffff"/>
   </g>
   <g id="line2d_1">
    <path d="M 66.051544 122.905516 
L 68.011251 122.873521 
L 68.367562 122.76602 
L 68.723872 123.001285 
L 69.080183 122.992952 
L 69.436493 122.848204 
L 69.614648 123.006589 
L 70.149114 122.908218 
L 70.327269 122.663882 
L 70.505424 122.650018 
L 71.03989 122.990936 
L 71.218045 123.004558 
L 71.574356 122.878112 
L 72.286977 123.001244 
L 72.643287 122.821075 
L 73.177753 123.014449 
L 73.355908 123.121291 
L 74.602995 122.930267 
L 74.959305 122.939764 
L 75.315616 122.859488 
L 75.850081 123.124363 
L 76.028237 123.12025 
L 76.384547 122.832774 
L 76.740857 122.833839 
L 77.097168 123.013743 
L 77.453478 122.736504 
L 77.809789 122.664722 
L 78.166099 122.925416 
L 78.52241 122.766579 
L 78.87872 122.687319 
L 79.235031 123.034244 
L 80.125807 122.870801 
L 80.838428 122.848461 
L 81.016583 122.76159 
L 81.194738 122.857068 
L 81.551049 122.795686 
L 81.729204 122.953504 
L 82.085514 122.808318 
L 82.263669 122.778332 
L 82.441825 122.572022 
L 82.97629 122.839767 
L 83.154446 122.975078 
L 83.332601 122.966008 
L 83.510756 122.787898 
L 84.045222 122.78793 
L 84.223377 122.835375 
L 84.401532 122.739075 
L 84.757843 122.441389 
L 85.114153 122.545542 
L 85.470464 122.831541 
L 86.183084 122.791511 
L 87.073861 123.025013 
L 87.430171 122.960117 
L 88.142792 123.036035 
L 88.677258 122.683894 
L 88.855413 122.625049 
L 89.211723 122.818209 
L 89.924344 122.443122 
L 90.280655 122.656783 
L 90.81512 122.645 
L 90.993276 122.602569 
L 91.705897 122.840571 
L 92.596673 122.782075 
L 93.309294 123.568293 
L 93.665604 123.649481 
L 95.269001 125.148593 
L 95.625312 125.554743 
L 95.981622 125.725026 
L 96.159777 125.707913 
L 97.763174 127.21347 
L 98.119485 127.685505 
L 99.010261 128.150756 
L 99.366571 128.413826 
L 99.722882 128.36657 
L 100.079192 128.397124 
L 100.435503 128.497514 
L 100.613658 128.47686 
L 101.148124 128.139514 
L 101.682589 127.987323 
L 102.39521 126.998724 
L 102.751521 126.686616 
L 103.464142 125.382682 
L 103.998607 124.199667 
L 105.78016 119.824708 
L 106.49278 117.880971 
L 108.986954 112.07825 
L 109.521419 111.161187 
L 110.055885 110.362248 
L 111.124816 108.86712 
L 112.550058 107.460253 
L 113.440834 107.164915 
L 114.153455 107.332692 
L 114.509766 107.435833 
L 115.044231 108.062913 
L 116.647628 110.400793 
L 117.538405 112.78161 
L 118.963646 117.475641 
L 121.992285 131.760714 
L 123.417527 138.7087 
L 124.486458 142.921047 
L 125.377235 145.552145 
L 125.9117 146.509983 
L 126.980632 146.922724 
L 128.049563 145.826354 
L 128.762184 144.189382 
L 129.118494 143.260807 
L 130.187426 139.387793 
L 132.325288 130.635053 
L 133.037909 128.009951 
L 133.39422 126.782403 
L 134.641306 123.647238 
L 134.997617 123.402492 
L 135.532083 122.850497 
L 135.888393 122.807006 
L 136.244703 122.78598 
L 137.669945 122.31793 
L 138.560721 121.812376 
L 138.917032 121.680901 
L 139.629653 121.186846 
L 139.985963 120.773084 
L 140.342274 120.073121 
L 140.876739 118.911367 
L 141.767516 117.124444 
L 143.192757 113.61339 
L 144.439844 111.116045 
L 144.97431 110.082826 
L 145.33062 109.78346 
L 146.043241 109.257982 
L 146.399551 109.652175 
L 146.934017 110.36462 
L 147.646638 112.389849 
L 148.002949 113.764823 
L 150.140811 122.621063 
L 151.566053 127.035743 
L 152.100519 127.914888 
L 152.278674 128.02118 
L 152.991295 127.731012 
L 153.347605 127.740326 
L 153.882071 127.280875 
L 154.416537 126.386702 
L 155.307313 125.166546 
L 155.663623 124.49783 
L 156.019934 123.859807 
L 156.554399 122.766103 
L 157.26702 121.299566 
L 157.623331 120.804669 
L 157.979641 120.131645 
L 158.157797 119.811662 
L 158.870417 119.469256 
L 159.226728 118.956706 
L 159.939349 118.611834 
L 160.295659 118.109254 
L 160.830125 117.857982 
L 161.186435 117.615656 
L 161.720901 117.058446 
L 162.077212 116.540755 
L 162.967988 114.508433 
L 163.502453 113.006154 
L 164.393229 109.462643 
L 167.421868 97.185806 
L 167.956334 96.138475 
L 168.312644 95.224399 
L 168.668955 95.047412 
L 168.84711 95.031401 
L 169.203421 94.714233 
L 169.381576 94.85672 
L 170.272352 96.439008 
L 170.628662 98.019465 
L 171.519439 102.923164 
L 173.479146 119.376704 
L 174.369922 127.228639 
L 175.082543 132.547125 
L 175.795164 136.795037 
L 176.68594 140.285231 
L 178.467492 145.969899 
L 179.001958 147.43687 
L 180.249045 152.376247 
L 181.852442 159.09586 
L 182.565063 161.201808 
L 183.455839 162.339234 
L 183.633994 162.39986 
L 183.812149 162.308988 
L 184.16846 161.946175 
L 184.346615 161.872588 
L 184.52477 161.652494 
L 184.881081 160.612488 
L 185.771857 157.06459 
L 186.840788 149.422604 
L 188.26603 137.617454 
L 190.225737 123.861088 
L 191.472824 118.436697 
L 192.185445 117.129259 
L 192.898066 117.682819 
L 193.076221 117.663648 
L 193.254376 117.897804 
L 193.788842 119.030153 
L 194.323308 119.650487 
L 194.679618 120.353743 
L 194.857773 120.61511 
L 195.214084 120.597961 
L 195.570394 121.003278 
L 195.74855 121.029739 
L 195.926705 120.834449 
L 196.817481 117.851182 
L 197.530102 112.615272 
L 198.064568 107.468249 
L 198.955344 98.322679 
L 199.489809 93.50453 
L 200.380585 87.939334 
L 200.736896 86.832046 
L 201.093206 86.182269 
L 201.271362 86.187387 
L 201.627672 87.129713 
L 201.983983 88.905123 
L 202.340293 91.693789 
L 202.874759 97.750911 
L 203.409224 106.259013 
L 204.121845 120.389815 
L 205.368932 147.619637 
L 205.903398 156.400115 
L 206.437863 162.97635 
L 206.794174 164.623578 
L 207.150484 165.43937 
L 207.328639 165.450529 
L 207.506795 164.873858 
L 208.04126 160.258972 
L 208.575726 153.94973 
L 210.357278 127.210278 
L 210.891744 121.993276 
L 211.248054 119.854123 
L 211.604365 118.797461 
L 211.960675 118.499476 
L 212.316986 118.382962 
L 212.673296 118.445187 
L 212.851451 118.426137 
L 213.029607 118.265347 
L 213.385917 117.798609 
L 213.742228 117.37226 
L 213.920383 117.051632 
L 214.633004 114.739804 
L 214.989314 113.739551 
L 215.52378 111.918324 
L 216.058246 110.401528 
L 217.127177 105.721022 
L 218.196108 99.08295 
L 219.086884 92.084651 
L 220.155816 80.927813 
L 220.868437 72.975452 
L 221.581058 67.736112 
L 221.759213 67.011939 
L 221.937368 66.773121 
L 222.115523 67.014816 
L 222.471834 68.07126 
L 222.828144 70.322871 
L 223.36261 77.209526 
L 224.075231 88.66866 
L 224.966007 103.409973 
L 225.678628 113.038906 
L 226.213093 117.96799 
L 226.569404 119.947591 
L 226.925714 120.619562 
L 227.10387 120.53758 
L 227.282025 120.277746 
L 227.638335 118.995339 
L 227.994646 116.592914 
L 229.241732 106.02122 
L 229.598043 104.979069 
L 229.954353 104.868494 
L 230.132509 104.927931 
L 230.310664 105.613706 
L 231.20144 113.415265 
L 232.270371 128.18965 
L 234.230079 159.351931 
L 235.120855 171.577195 
L 236.546097 188.620666 
L 237.615028 197.176452 
L 238.149494 198.233775 
L 238.327649 197.844393 
L 238.683959 194.602811 
L 239.218425 187.717274 
L 239.752891 175.640362 
L 240.643667 151.656039 
L 241.534443 129.685465 
L 242.068909 122.159496 
L 242.425219 119.70154 
L 242.603374 119.549892 
L 242.78153 119.961491 
L 243.315995 122.712281 
L 243.850461 129.33725 
L 245.275703 145.594857 
L 245.810169 148.337305 
L 245.988324 148.093111 
L 246.344634 145.809657 
L 246.700945 142.840902 
L 247.057255 138.108187 
L 248.838807 108.824258 
L 249.195118 105.601384 
L 249.373273 104.980902 
L 249.551428 104.993009 
L 249.729584 105.721164 
L 250.085894 109.58226 
L 250.62036 120.834991 
L 252.223757 158.994769 
L 252.580067 163.557893 
L 253.470843 168.950599 
L 254.539775 172.736032 
L 254.71793 172.518778 
L 255.252396 169.757619 
L 255.608706 165.621402 
L 256.499482 147.982042 
L 257.924724 113.197847 
L 258.993655 78.454866 
L 260.240742 36.597285 
L 261.131518 16.188776 
L 261.487829 12.500703 
L 261.844139 10.687283 
L 262.022294 10.99379 
L 262.378605 14.470198 
L 262.91307 23.790128 
L 263.447536 38.895022 
L 264.338312 70.926439 
L 265.229088 102.320412 
L 265.763554 113.753183 
L 266.119865 116.910072 
L 266.29802 117.014765 
L 266.476175 116.272085 
L 266.832485 112.726085 
L 267.188796 106.258609 
L 268.435882 79.836886 
L 268.792193 75.902367 
L 269.148503 74.293172 
L 269.504814 74.182723 
L 269.682969 74.586486 
L 270.03928 76.560926 
L 270.573745 81.472737 
L 270.930056 87.206145 
L 271.464521 101.207619 
L 271.998987 120.313896 
L 274.315005 216.864448 
L 274.849471 228.616195 
L 275.205781 233.168638 
L 275.383936 233.855846 
L 275.562092 233.428094 
L 275.918402 230.625937 
L 276.274712 225.155512 
L 276.809178 210.866092 
L 277.521799 182.839819 
L 278.947041 124.525977 
L 279.659662 105.651049 
L 280.550438 88.862348 
L 281.441214 79.062427 
L 281.97568 74.930581 
L 283.400922 59.755529 
L 283.579077 58.873467 
L 283.757232 58.79842 
L 283.935387 59.381077 
L 284.113543 60.43163 
L 284.469853 65.13595 
L 285.004319 77.93598 
L 286.964026 127.960605 
L 287.676647 139.000016 
L 288.032958 143.139366 
L 288.389268 144.996124 
L 288.567423 145.138853 
L 288.745578 144.727451 
L 288.923734 143.70972 
L 289.280044 139.492244 
L 289.81451 128.873495 
L 292.308683 72.447645 
L 293.199459 57.492865 
L 293.91208 51.056984 
L 294.090235 50.51731 
L 294.26839 51.087067 
L 294.624701 54.527243 
L 294.981011 60.072831 
L 295.337322 70.198684 
L 296.049943 98.757032 
L 297.831495 181.433187 
L 298.365961 194.55009 
L 298.722271 197.691749 
L 298.900426 197.744549 
L 299.078582 197.024068 
L 299.434892 193.619033 
L 300.147513 179.891919 
L 301.75091 146.345211 
L 302.285376 140.52916 
L 302.641686 138.967345 
L 302.819841 139.649641 
L 303.176152 143.503838 
L 303.532462 150.164916 
L 304.066928 166.004009 
L 304.957704 190.505325 
L 305.314015 193.936657 
L 305.49217 193.769633 
L 305.84848 190.01624 
L 306.204791 182.410067 
L 307.095567 153.92045 
L 307.630033 139.912593 
L 307.986343 135.834612 
L 308.164498 135.375612 
L 308.342653 135.920366 
L 308.698964 139.508237 
L 309.946051 157.948238 
L 310.124206 158.696829 
L 310.302361 158.394187 
L 310.480516 157.254583 
L 310.836827 152.220565 
L 311.193137 142.888543 
L 312.618379 92.76284 
L 313.68731 55.473794 
L 314.043621 50.042147 
L 314.221776 49.859628 
L 314.399931 51.402956 
L 314.578086 55.55241 
L 314.934397 71.988061 
L 315.468863 113.201438 
L 316.715949 228.541044 
L 317.07226 239.022963 
L 317.250415 238.113865 
L 317.606725 226.217944 
L 318.141191 192.24773 
L 319.031967 132.343582 
L 319.566433 107.57236 
L 320.279054 88.561329 
L 320.991675 73.493955 
L 321.704296 61.814991 
L 321.882451 60.995558 
L 322.060606 60.906853 
L 322.416916 62.225026 
L 322.773227 65.838076 
L 323.307693 71.746374 
L 323.664003 73.396133 
L 324.732934 81.995201 
L 325.2674 88.445465 
L 325.980021 93.911384 
L 326.514487 100.330649 
L 326.870797 109.18303 
L 327.583418 138.336899 
L 328.296039 167.377094 
L 328.652349 172.190966 
L 328.830505 172.659477 
L 329.00866 172.035956 
L 329.36497 168.442845 
L 329.721281 164.673859 
L 330.433902 160.37385 
L 330.790212 155.754571 
L 331.324678 143.46496 
L 333.462541 75.113897 
L 333.640696 73.832812 
L 333.818851 75.095975 
L 333.997006 79.198934 
L 334.353317 94.739647 
L 335.244093 139.912947 
L 335.600403 148.870075 
L 336.669335 169.416229 
L 337.2038 180.079957 
L 337.738266 187.873164 
L 338.094577 190.000266 
L 338.272732 189.84829 
L 338.450887 188.917842 
L 338.629042 186.793749 
L 338.985353 175.921593 
L 339.519818 145.438572 
L 340.410594 92.520271 
L 341.123215 65.302219 
L 341.301371 62.0743 
L 341.479526 61.257861 
L 341.657681 62.822186 
L 341.835836 66.548471 
L 342.192147 81.504786 
L 343.082923 128.396607 
L 343.439233 136.904749 
L 343.795544 142.11356 
L 344.330009 145.911093 
L 344.508165 145.999137 
L 344.68632 144.867047 
L 344.864475 141.697744 
L 345.398941 121.855041 
L 345.755251 109.103806 
L 346.111562 102.79416 
L 346.289717 102.499373 
L 346.467872 102.900351 
L 346.646027 102.810414 
L 346.824183 101.441272 
L 347.180493 92.457151 
L 347.893114 69.267111 
L 348.071269 67.720483 
L 348.249424 69.325301 
L 348.605735 81.371564 
L 349.140201 114.749866 
L 350.209132 183.275964 
L 350.565442 196.195719 
L 350.743598 199.09432 
L 350.921753 199.953867 
L 351.099908 198.462736 
L 351.456219 187.961057 
L 352.88146 110.488365 
L 353.950392 52.479996 
L 354.128547 48.78305 
L 354.306702 47.570695 
L 354.484857 48.005358 
L 355.019323 51.247566 
L 355.197478 51.304522 
L 355.375634 50.588733 
L 355.910099 46.113667 
L 356.088255 46.623676 
L 356.26641 48.959621 
L 356.800875 64.056455 
L 357.335341 79.601742 
L 357.691652 84.517199 
L 357.869807 84.183863 
L 358.582428 78.287607 
L 358.760583 79.487468 
L 359.295049 87.480203 
L 359.829514 94.974209 
L 360.185825 98.764956 
L 360.36398 102.09982 
L 360.72029 115.569866 
L 361.789222 172.753225 
L 361.967377 175.999887 
L 362.145532 176.717494 
L 362.501843 174.50371 
L 362.679998 174.288833 
L 362.858153 174.670876 
L 363.214464 176.311389 
L 363.392619 175.491105 
L 363.570774 172.468735 
L 363.748929 166.214182 
L 364.10524 141.520932 
L 364.996016 63.912973 
L 365.352326 53.000541 
L 365.530482 52.313367 
L 365.708637 53.813489 
L 366.777568 75.296523 
L 367.133879 88.289144 
L 367.668344 122.26131 
L 368.380965 168.540248 
L 369.449897 226.834377 
L 369.806207 244.183893 
L 370.162518 250.997315 
L 370.340673 250.034644 
L 370.696983 240.74413 
L 371.231449 223.049923 
L 371.587759 213.19497 
L 371.94407 195.880478 
L 372.478535 151.241476 
L 373.013001 101.379229 
L 373.369312 85.294115 
L 373.547467 83.61081 
L 373.903777 83.352217 
L 374.081933 81.671809 
L 374.438243 70.012313 
L 375.150864 35.641992 
L 375.329019 32.859257 
L 375.507174 33.716518 
L 375.863485 42.487794 
L 376.39795 54.9894 
L 376.754261 57.739891 
L 376.932416 59.086559 
L 377.110571 61.819141 
L 377.466882 73.246087 
L 378.001348 92.837238 
L 378.179503 96.021614 
L 378.357658 96.939485 
L 378.535813 96.042691 
L 379.070279 89.68124 
L 379.248434 90.790205 
L 379.426589 95.198199 
L 379.7829 113.114453 
L 380.495521 153.195929 
L 380.851831 162.993588 
L 381.208142 166.344454 
L 381.386297 166.136302 
L 381.564452 164.658526 
L 381.920763 158.000069 
L 382.455228 147.102604 
L 382.811539 142.914014 
L 382.989694 142.916588 
L 383.167849 144.986027 
L 383.52416 157.38235 
L 384.058625 177.530255 
L 384.23678 179.340746 
L 384.414936 177.513503 
L 384.593091 171.727095 
L 385.483867 126.887743 
L 385.662022 124.95653 
L 385.840178 125.09149 
L 386.374643 128.817501 
L 386.552798 126.694115 
L 387.265419 108.20456 
L 387.443575 109.680619 
L 387.97804 124.603002 
L 388.334351 133.319269 
L 388.512506 133.804426 
L 388.690661 130.485199 
L 389.046972 121.317619 
L 389.225127 120.072337 
L 389.403282 122.18913 
L 389.759593 134.113599 
L 390.650369 175.881435 
L 390.828524 177.728071 
L 391.006679 177.268344 
L 391.36299 170.22588 
L 393.322697 111.962574 
L 393.857163 94.216987 
L 394.391628 86.895368 
L 395.104249 78.641917 
L 395.638715 65.866442 
L 395.81687 63.761297 
L 396.173181 65.118837 
L 396.351336 64.580667 
L 396.707646 65.019238 
L 396.885802 66.550286 
L 397.242112 72.760679 
L 397.420267 77.858464 
L 397.776578 98.06848 
L 398.311043 132.817672 
L 398.489199 137.023358 
L 398.667354 137.300095 
L 398.845509 133.835541 
L 399.20182 119.772668 
L 399.736285 98.752004 
L 399.914441 97.426945 
L 400.092596 99.147523 
L 400.805217 117.830699 
L 400.983372 117.840522 
L 401.161527 116.154781 
L 401.517838 111.322749 
L 401.695993 112.440852 
L 401.874148 115.137925 
L 402.408614 127.004569 
L 402.586769 127.610357 
L 402.764924 126.160608 
L 402.943079 123.63898 
L 403.29939 123.292957 
L 403.477545 122.228135 
L 403.6557 120.457255 
L 404.012011 113.914883 
L 404.190166 114.613737 
L 404.902787 125.858772 
L 405.080942 123.173811 
L 405.437253 111.196158 
L 405.793563 97.092571 
L 405.971718 93.789649 
L 406.149874 94.833682 
L 406.506184 100.908439 
L 406.684339 101.846183 
L 407.04065 99.509427 
L 407.218805 99.499842 
L 407.39696 98.42549 
L 407.575115 95.85374 
L 407.931426 88.829755 
L 408.109581 91.13532 
L 408.465891 111.072324 
L 409.534823 182.93952 
L 409.891133 192.627914 
L 410.781909 205.393091 
L 410.960065 205.203405 
L 411.13822 202.976523 
L 411.316375 195.991208 
L 411.850841 158.527275 
L 412.028996 154.492686 
L 412.385306 159.950721 
L 412.919772 176.12958 
L 413.097927 184.945509 
L 413.276083 187.951733 
L 413.454238 182.790965 
L 413.810548 149.505924 
L 414.345014 106.926896 
L 415.23579 55.196497 
L 415.413945 53.58666 
L 415.592101 57.520339 
L 416.482877 100.159717 
L 417.373653 165.874192 
L 417.551808 170.05331 
L 417.729963 164.426596 
L 418.264429 134.615045 
L 418.442584 137.178217 
L 418.798895 146.948301 
L 418.97705 145.703337 
L 419.33336 140.353291 
L 419.511516 140.575564 
L 419.689671 138.874878 
L 420.402292 110.687789 
L 420.758602 113.272295 
L 420.936757 111.6392 
L 421.649378 94.870707 
L 422.005689 85.439033 
L 422.361999 70.77031 
L 422.361999 70.77031 
" clip-path="url(#pd88e692aaf)" style="fill: none; stroke: #009afa"/>
   </g>
   <g id="matplotlib.axis_1">
    <g id="xtick_1">
     <g id="line2d_2">
      <defs>
       <path id="ma21e085663" d="M 0 0 
L 0 -2.5 
" style="stroke: #000000; stroke-width: 0.5"/>
      </defs>
      <g>
       <use xlink:href="#ma21e085663" x="66.051544" y="258.225354" style="stroke: #000000; stroke-width: 0.5"/>
      </g>
     </g>
     <g id="text_1">
      <!-- $0.0$ -->
      <g transform="translate(59.651544 267.804104) scale(0.08 -0.08)">
       <defs>
        <path id="DejaVuSans-30" d="M 2034 4250 
Q 1547 4250 1301 3770 
Q 1056 3291 1056 2328 
Q 1056 1369 1301 889 
Q 1547 409 2034 409 
Q 2525 409 2770 889 
Q 3016 1369 3016 2328 
Q 3016 3291 2770 3770 
Q 2525 4250 2034 4250 
z
M 2034 4750 
Q 2819 4750 3233 4129 
Q 3647 3509 3647 2328 
Q 3647 1150 3233 529 
Q 2819 -91 2034 -91 
Q 1250 -91 836 529 
Q 422 1150 422 2328 
Q 422 3509 836 4129 
Q 1250 4750 2034 4750 
z
" transform="scale(0.015625)"/>
        <path id="DejaVuSans-2e" d="M 684 794 
L 1344 794 
L 1344 0 
L 684 0 
L 684 794 
z
" transform="scale(0.015625)"/>
       </defs>
       <use xlink:href="#DejaVuSans-30" transform="translate(0 0.78125)"/>
       <use xlink:href="#DejaVuSans-2e" transform="translate(63.623047 0.78125)"/>
       <use xlink:href="#DejaVuSans-30" transform="translate(95.410156 0.78125)"/>
      </g>
     </g>
    </g>
    <g id="xtick_2">
     <g id="line2d_3">
      <g>
       <use xlink:href="#ma21e085663" x="155.129158" y="258.225354" style="stroke: #000000; stroke-width: 0.5"/>
      </g>
     </g>
     <g id="text_2">
      <!-- $0.5$ -->
      <g transform="translate(148.729158 267.804104) scale(0.08 -0.08)">
       <defs>
        <path id="DejaVuSans-35" d="M 691 4666 
L 3169 4666 
L 3169 4134 
L 1269 4134 
L 1269 2991 
Q 1406 3038 1543 3061 
Q 1681 3084 1819 3084 
Q 2600 3084 3056 2656 
Q 3513 2228 3513 1497 
Q 3513 744 3044 326 
Q 2575 -91 1722 -91 
Q 1428 -91 1123 -41 
Q 819 9 494 109 
L 494 744 
Q 775 591 1075 516 
Q 1375 441 1709 441 
Q 2250 441 2565 725 
Q 2881 1009 2881 1497 
Q 2881 1984 2565 2268 
Q 2250 2553 1709 2553 
Q 1456 2553 1204 2497 
Q 953 2441 691 2322 
L 691 4666 
z
" transform="scale(0.015625)"/>
       </defs>
       <use xlink:href="#DejaVuSans-30" transform="translate(0 0.78125)"/>
       <use xlink:href="#DejaVuSans-2e" transform="translate(63.623047 0.78125)"/>
       <use xlink:href="#DejaVuSans-35" transform="translate(95.410156 0.78125)"/>
      </g>
     </g>
    </g>
    <g id="xtick_3">
     <g id="line2d_4">
      <g>
       <use xlink:href="#ma21e085663" x="244.206771" y="258.225354" style="stroke: #000000; stroke-width: 0.5"/>
      </g>
     </g>
     <g id="text_3">
      <!-- $1.0$ -->
      <g transform="translate(237.806771 267.804104) scale(0.08 -0.08)">
       <defs>
        <path id="DejaVuSans-31" d="M 794 531 
L 1825 531 
L 1825 4091 
L 703 3866 
L 703 4441 
L 1819 4666 
L 2450 4666 
L 2450 531 
L 3481 531 
L 3481 0 
L 794 0 
L 794 531 
z
" transform="scale(0.015625)"/>
       </defs>
       <use xlink:href="#DejaVuSans-31" transform="translate(0 0.78125)"/>
       <use xlink:href="#DejaVuSans-2e" transform="translate(63.623047 0.78125)"/>
       <use xlink:href="#DejaVuSans-30" transform="translate(95.410156 0.78125)"/>
      </g>
     </g>
    </g>
    <g id="xtick_4">
     <g id="line2d_5">
      <g>
       <use xlink:href="#ma21e085663" x="333.284385" y="258.225354" style="stroke: #000000; stroke-width: 0.5"/>
      </g>
     </g>
     <g id="text_4">
      <!-- $1.5$ -->
      <g transform="translate(326.884385 267.804104) scale(0.08 -0.08)">
       <use xlink:href="#DejaVuSans-31" transform="translate(0 0.09375)"/>
       <use xlink:href="#DejaVuSans-2e" transform="translate(63.623047 0.09375)"/>
       <use xlink:href="#DejaVuSans-35" transform="translate(95.410156 0.09375)"/>
      </g>
     </g>
    </g>
    <g id="xtick_5">
     <g id="line2d_6">
      <g>
       <use xlink:href="#ma21e085663" x="422.361999" y="258.225354" style="stroke: #000000; stroke-width: 0.5"/>
      </g>
     </g>
     <g id="text_5">
      <!-- $2.0$ -->
      <g transform="translate(415.961999 267.804104) scale(0.08 -0.08)">
       <defs>
        <path id="DejaVuSans-32" d="M 1228 531 
L 3431 531 
L 3431 0 
L 469 0 
L 469 531 
Q 828 903 1448 1529 
Q 2069 2156 2228 2338 
Q 2531 2678 2651 2914 
Q 2772 3150 2772 3378 
Q 2772 3750 2511 3984 
Q 2250 4219 1831 4219 
Q 1534 4219 1204 4116 
Q 875 4013 500 3803 
L 500 4441 
Q 881 4594 1212 4672 
Q 1544 4750 1819 4750 
Q 2544 4750 2975 4387 
Q 3406 4025 3406 3419 
Q 3406 3131 3298 2873 
Q 3191 2616 2906 2266 
Q 2828 2175 2409 1742 
Q 1991 1309 1228 531 
z
" transform="scale(0.015625)"/>
       </defs>
       <use xlink:href="#DejaVuSans-32" transform="translate(0 0.78125)"/>
       <use xlink:href="#DejaVuSans-2e" transform="translate(63.623047 0.78125)"/>
       <use xlink:href="#DejaVuSans-30" transform="translate(95.410156 0.78125)"/>
      </g>
     </g>
    </g>
    <g id="text_6">
     <!-- Time (s) -->
     <g transform="translate(221.844975 281.826136) scale(0.11 -0.11)">
      <defs>
       <path id="DejaVuSans-54" d="M -19 4666 
L 3928 4666 
L 3928 4134 
L 2272 4134 
L 2272 0 
L 1638 0 
L 1638 4134 
L -19 4134 
L -19 4666 
z
" transform="scale(0.015625)"/>
       <path id="DejaVuSans-69" d="M 603 3500 
L 1178 3500 
L 1178 0 
L 603 0 
L 603 3500 
z
M 603 4863 
L 1178 4863 
L 1178 4134 
L 603 4134 
L 603 4863 
z
" transform="scale(0.015625)"/>
       <path id="DejaVuSans-6d" d="M 3328 2828 
Q 3544 3216 3844 3400 
Q 4144 3584 4550 3584 
Q 5097 3584 5394 3201 
Q 5691 2819 5691 2113 
L 5691 0 
L 5113 0 
L 5113 2094 
Q 5113 2597 4934 2840 
Q 4756 3084 4391 3084 
Q 3944 3084 3684 2787 
Q 3425 2491 3425 1978 
L 3425 0 
L 2847 0 
L 2847 2094 
Q 2847 2600 2669 2842 
Q 2491 3084 2119 3084 
Q 1678 3084 1418 2786 
Q 1159 2488 1159 1978 
L 1159 0 
L 581 0 
L 581 3500 
L 1159 3500 
L 1159 2956 
Q 1356 3278 1631 3431 
Q 1906 3584 2284 3584 
Q 2666 3584 2933 3390 
Q 3200 3197 3328 2828 
z
" transform="scale(0.015625)"/>
       <path id="DejaVuSans-65" d="M 3597 1894 
L 3597 1613 
L 953 1613 
Q 991 1019 1311 708 
Q 1631 397 2203 397 
Q 2534 397 2845 478 
Q 3156 559 3463 722 
L 3463 178 
Q 3153 47 2828 -22 
Q 2503 -91 2169 -91 
Q 1331 -91 842 396 
Q 353 884 353 1716 
Q 353 2575 817 3079 
Q 1281 3584 2069 3584 
Q 2775 3584 3186 3129 
Q 3597 2675 3597 1894 
z
M 3022 2063 
Q 3016 2534 2758 2815 
Q 2500 3097 2075 3097 
Q 1594 3097 1305 2825 
Q 1016 2553 972 2059 
L 3022 2063 
z
" transform="scale(0.015625)"/>
       <path id="DejaVuSans-20" transform="scale(0.015625)"/>
       <path id="DejaVuSans-28" d="M 1984 4856 
Q 1566 4138 1362 3434 
Q 1159 2731 1159 2009 
Q 1159 1288 1364 580 
Q 1569 -128 1984 -844 
L 1484 -844 
Q 1016 -109 783 600 
Q 550 1309 550 2009 
Q 550 2706 781 3412 
Q 1013 4119 1484 4856 
L 1984 4856 
z
" transform="scale(0.015625)"/>
       <path id="DejaVuSans-73" d="M 2834 3397 
L 2834 2853 
Q 2591 2978 2328 3040 
Q 2066 3103 1784 3103 
Q 1356 3103 1142 2972 
Q 928 2841 928 2578 
Q 928 2378 1081 2264 
Q 1234 2150 1697 2047 
L 1894 2003 
Q 2506 1872 2764 1633 
Q 3022 1394 3022 966 
Q 3022 478 2636 193 
Q 2250 -91 1575 -91 
Q 1294 -91 989 -36 
Q 684 19 347 128 
L 347 722 
Q 666 556 975 473 
Q 1284 391 1588 391 
Q 1994 391 2212 530 
Q 2431 669 2431 922 
Q 2431 1156 2273 1281 
Q 2116 1406 1581 1522 
L 1381 1569 
Q 847 1681 609 1914 
Q 372 2147 372 2553 
Q 372 3047 722 3315 
Q 1072 3584 1716 3584 
Q 2034 3584 2315 3537 
Q 2597 3491 2834 3397 
z
" transform="scale(0.015625)"/>
       <path id="DejaVuSans-29" d="M 513 4856 
L 1013 4856 
Q 1481 4119 1714 3412 
Q 1947 2706 1947 2009 
Q 1947 1309 1714 600 
Q 1481 -109 1013 -844 
L 513 -844 
Q 928 -128 1133 580 
Q 1338 1288 1338 2009 
Q 1338 2731 1133 3434 
Q 928 4138 513 4856 
z
" transform="scale(0.015625)"/>
      </defs>
      <use xlink:href="#DejaVuSans-54"/>
      <use xlink:href="#DejaVuSans-69" x="57.958984"/>
      <use xlink:href="#DejaVuSans-6d" x="85.742188"/>
      <use xlink:href="#DejaVuSans-65" x="183.154297"/>
      <use xlink:href="#DejaVuSans-20" x="244.677734"/>
      <use xlink:href="#DejaVuSans-28" x="276.464844"/>
      <use xlink:href="#DejaVuSans-73" x="315.478516"/>
      <use xlink:href="#DejaVuSans-29" x="367.578125"/>
     </g>
    </g>
   </g>
   <g id="matplotlib.axis_2">
    <g id="ytick_1">
     <g id="line2d_7">
      <defs>
       <path id="mfe7bd4e18a" d="M 0 0 
L 2.5 0 
" style="stroke: #000000; stroke-width: 0.5"/>
      </defs>
      <g>
       <use xlink:href="#mfe7bd4e18a" x="66.051544" y="216.740491" style="stroke: #000000; stroke-width: 0.5"/>
      </g>
     </g>
     <g id="text_7">
      <!-- $-6.0×10^{5}$ -->
      <g transform="translate(22.311544 219.779866) scale(0.08 -0.08)">
       <defs>
        <path id="DejaVuSans-2212" d="M 678 2272 
L 4684 2272 
L 4684 1741 
L 678 1741 
L 678 2272 
z
" transform="scale(0.015625)"/>
        <path id="DejaVuSans-36" d="M 2113 2584 
Q 1688 2584 1439 2293 
Q 1191 2003 1191 1497 
Q 1191 994 1439 701 
Q 1688 409 2113 409 
Q 2538 409 2786 701 
Q 3034 994 3034 1497 
Q 3034 2003 2786 2293 
Q 2538 2584 2113 2584 
z
M 3366 4563 
L 3366 3988 
Q 3128 4100 2886 4159 
Q 2644 4219 2406 4219 
Q 1781 4219 1451 3797 
Q 1122 3375 1075 2522 
Q 1259 2794 1537 2939 
Q 1816 3084 2150 3084 
Q 2853 3084 3261 2657 
Q 3669 2231 3669 1497 
Q 3669 778 3244 343 
Q 2819 -91 2113 -91 
Q 1303 -91 875 529 
Q 447 1150 447 2328 
Q 447 3434 972 4092 
Q 1497 4750 2381 4750 
Q 2619 4750 2861 4703 
Q 3103 4656 3366 4563 
z
" transform="scale(0.015625)"/>
        <path id="DejaVuSans-d7" d="M 4488 3438 
L 3059 2003 
L 4488 575 
L 4116 197 
L 2681 1631 
L 1247 197 
L 878 575 
L 2303 2003 
L 878 3438 
L 1247 3816 
L 2681 2381 
L 4116 3816 
L 4488 3438 
z
" transform="scale(0.015625)"/>
       </defs>
       <use xlink:href="#DejaVuSans-2212" transform="translate(0 0.684375)"/>
       <use xlink:href="#DejaVuSans-36" transform="translate(83.789062 0.684375)"/>
       <use xlink:href="#DejaVuSans-2e" transform="translate(147.412109 0.684375)"/>
       <use xlink:href="#DejaVuSans-30" transform="translate(179.199219 0.684375)"/>
       <use xlink:href="#DejaVuSans-d7" transform="translate(242.822266 0.684375)"/>
       <use xlink:href="#DejaVuSans-31" transform="translate(326.611328 0.684375)"/>
       <use xlink:href="#DejaVuSans-30" transform="translate(390.234375 0.684375)"/>
       <use xlink:href="#DejaVuSans-35" transform="translate(454.814453 38.965625) scale(0.7)"/>
      </g>
     </g>
    </g>
    <g id="ytick_2">
     <g id="line2d_8">
      <g>
       <use xlink:href="#mfe7bd4e18a" x="66.051544" y="169.823003" style="stroke: #000000; stroke-width: 0.5"/>
      </g>
     </g>
     <g id="text_8">
      <!-- $-3.0×10^{5}$ -->
      <g transform="translate(22.311544 172.862378) scale(0.08 -0.08)">
       <defs>
        <path id="DejaVuSans-33" d="M 2597 2516 
Q 3050 2419 3304 2112 
Q 3559 1806 3559 1356 
Q 3559 666 3084 287 
Q 2609 -91 1734 -91 
Q 1441 -91 1130 -33 
Q 819 25 488 141 
L 488 750 
Q 750 597 1062 519 
Q 1375 441 1716 441 
Q 2309 441 2620 675 
Q 2931 909 2931 1356 
Q 2931 1769 2642 2001 
Q 2353 2234 1838 2234 
L 1294 2234 
L 1294 2753 
L 1863 2753 
Q 2328 2753 2575 2939 
Q 2822 3125 2822 3475 
Q 2822 3834 2567 4026 
Q 2313 4219 1838 4219 
Q 1578 4219 1281 4162 
Q 984 4106 628 3988 
L 628 4550 
Q 988 4650 1302 4700 
Q 1616 4750 1894 4750 
Q 2613 4750 3031 4423 
Q 3450 4097 3450 3541 
Q 3450 3153 3228 2886 
Q 3006 2619 2597 2516 
z
" transform="scale(0.015625)"/>
       </defs>
       <use xlink:href="#DejaVuSans-2212" transform="translate(0 0.684375)"/>
       <use xlink:href="#DejaVuSans-33" transform="translate(83.789062 0.684375)"/>
       <use xlink:href="#DejaVuSans-2e" transform="translate(147.412109 0.684375)"/>
       <use xlink:href="#DejaVuSans-30" transform="translate(179.199219 0.684375)"/>
       <use xlink:href="#DejaVuSans-d7" transform="translate(242.822266 0.684375)"/>
       <use xlink:href="#DejaVuSans-31" transform="translate(326.611328 0.684375)"/>
       <use xlink:href="#DejaVuSans-30" transform="translate(390.234375 0.684375)"/>
       <use xlink:href="#DejaVuSans-35" transform="translate(454.814453 38.965625) scale(0.7)"/>
      </g>
     </g>
    </g>
    <g id="ytick_3">
     <g id="line2d_9">
      <g>
       <use xlink:href="#mfe7bd4e18a" x="66.051544" y="122.905516" style="stroke: #000000; stroke-width: 0.5"/>
      </g>
     </g>
     <g id="text_9">
      <!-- $0$ -->
      <g transform="translate(57.431544 125.944891) scale(0.08 -0.08)">
       <use xlink:href="#DejaVuSans-30" transform="translate(0 0.78125)"/>
      </g>
     </g>
    </g>
    <g id="ytick_4">
     <g id="line2d_10">
      <g>
       <use xlink:href="#mfe7bd4e18a" x="66.051544" y="75.988029" style="stroke: #000000; stroke-width: 0.5"/>
      </g>
     </g>
     <g id="text_10">
      <!-- $3.0×10^{5}$ -->
      <g transform="translate(29.031544 79.027404) scale(0.08 -0.08)">
       <use xlink:href="#DejaVuSans-33" transform="translate(0 0.684375)"/>
       <use xlink:href="#DejaVuSans-2e" transform="translate(63.623047 0.684375)"/>
       <use xlink:href="#DejaVuSans-30" transform="translate(95.410156 0.684375)"/>
       <use xlink:href="#DejaVuSans-d7" transform="translate(159.033203 0.684375)"/>
       <use xlink:href="#DejaVuSans-31" transform="translate(242.822266 0.684375)"/>
       <use xlink:href="#DejaVuSans-30" transform="translate(306.445312 0.684375)"/>
       <use xlink:href="#DejaVuSans-35" transform="translate(371.025391 38.965625) scale(0.7)"/>
      </g>
     </g>
    </g>
    <g id="ytick_5">
     <g id="line2d_11">
      <g>
       <use xlink:href="#mfe7bd4e18a" x="66.051544" y="29.070541" style="stroke: #000000; stroke-width: 0.5"/>
      </g>
     </g>
     <g id="text_11">
      <!-- $6.0×10^{5}$ -->
      <g transform="translate(29.031544 32.109916) scale(0.08 -0.08)">
       <use xlink:href="#DejaVuSans-36" transform="translate(0 0.684375)"/>
       <use xlink:href="#DejaVuSans-2e" transform="translate(63.623047 0.684375)"/>
       <use xlink:href="#DejaVuSans-30" transform="translate(95.410156 0.684375)"/>
       <use xlink:href="#DejaVuSans-d7" transform="translate(159.033203 0.684375)"/>
       <use xlink:href="#DejaVuSans-31" transform="translate(242.822266 0.684375)"/>
       <use xlink:href="#DejaVuSans-30" transform="translate(306.445312 0.684375)"/>
       <use xlink:href="#DejaVuSans-35" transform="translate(371.025391 38.965625) scale(0.7)"/>
      </g>
     </g>
    </g>
    <g id="text_12">
     <!-- $F_y$ ($N$) -->
     <g transform="translate(14.901544 146.315) rotate(-90) scale(0.11 -0.11)">
      <defs>
       <path id="DejaVuSans-Oblique-46" d="M 1081 4666 
L 3756 4666 
L 3653 4134 
L 1606 4134 
L 1338 2759 
L 3188 2759 
L 3084 2228 
L 1234 2228 
L 800 0 
L 172 0 
L 1081 4666 
z
" transform="scale(0.015625)"/>
       <path id="DejaVuSans-Oblique-79" d="M 1588 -325 
Q 1188 -997 936 -1164 
Q 684 -1331 294 -1331 
L -159 -1331 
L -63 -850 
L 269 -850 
Q 509 -850 678 -719 
Q 847 -588 1056 -206 
L 1234 128 
L 459 3500 
L 1069 3500 
L 1650 819 
L 3256 3500 
L 3859 3500 
L 1588 -325 
z
" transform="scale(0.015625)"/>
       <path id="DejaVuSans-Oblique-4e" d="M 1081 4666 
L 1931 4666 
L 3219 666 
L 4000 4666 
L 4616 4666 
L 3706 0 
L 2853 0 
L 1569 4025 
L 788 0 
L 172 0 
L 1081 4666 
z
" transform="scale(0.015625)"/>
      </defs>
      <use xlink:href="#DejaVuSans-Oblique-46" transform="translate(0 0.125)"/>
      <use xlink:href="#DejaVuSans-Oblique-79" transform="translate(57.519531 -16.28125) scale(0.7)"/>
      <use xlink:href="#DejaVuSans-20" transform="translate(101.679688 0.125)"/>
      <use xlink:href="#DejaVuSans-28" transform="translate(133.466797 0.125)"/>
      <use xlink:href="#DejaVuSans-Oblique-4e" transform="translate(172.480469 0.125)"/>
      <use xlink:href="#DejaVuSans-29" transform="translate(247.285156 0.125)"/>
     </g>
    </g>
   </g>
   <g id="line2d_12">
    <path d="M 66.051544 122.905516 
L 67.436383 122.999238 
L 67.579282 123.036208 
L 68.01568 122.726194 
L 68.429605 122.954359 
L 68.587513 123.00682 
L 68.798056 122.980458 
L 69.226483 122.890477 
L 69.337584 122.995751 
L 69.448685 123.102074 
L 69.504235 123.061891 
L 69.849433 122.855785 
L 70.216339 122.685187 
L 70.732561 122.904398 
L 70.894825 122.846554 
L 71.790022 122.981076 
L 72.312727 122.845883 
L 72.508742 122.82613 
L 72.704756 122.897266 
L 72.835433 123.00335 
L 72.966109 123.051153 
L 73.096786 123.044032 
L 73.229859 123.074141 
L 73.433063 122.999693 
L 74.249468 122.950707 
L 74.506375 122.792847 
L 74.638778 122.744076 
L 75.102188 123.131884 
L 75.631801 122.876052 
L 76.029463 123.086742 
L 76.427578 122.924646 
L 76.626636 122.816684 
L 77.558036 122.774158 
L 77.894671 122.679177 
L 78.847554 122.856935 
L 79.127376 122.862048 
L 79.479342 123.063968 
L 80.32406 122.802792 
L 80.676915 122.987669 
L 80.822372 122.955769 
L 81.09296 122.785651 
L 81.283481 122.767825 
L 81.550043 122.878302 
L 81.759477 122.859642 
L 82.138978 122.606219 
L 82.475445 122.719148 
L 82.965218 122.985496 
L 83.399543 122.829922 
L 83.932548 122.735263 
L 84.326109 122.62846 
L 84.563951 122.516727 
L 84.711418 122.462095 
L 85.197497 122.844103 
L 85.694975 122.642777 
L 86.239044 122.943582 
L 86.404607 122.957155 
L 86.764027 122.92164 
L 87.984502 122.897968 
L 88.23129 122.792968 
L 88.560776 122.86752 
L 88.845569 122.859224 
L 89.400377 122.527615 
L 89.905017 122.714115 
L 90.241818 122.556927 
L 90.410763 122.580438 
L 90.917597 122.800172 
L 91.353232 122.669067 
L 91.826826 122.547266 
L 93.208368 123.418848 
L 93.501161 123.61821 
L 94.0095 123.781533 
L 94.323848 124.258313 
L 94.751972 124.774457 
L 95.394158 125.205805 
L 96.21203 125.733486 
L 96.41061 125.833004 
L 97.149554 126.73363 
L 97.467151 126.841135 
L 98.464627 127.777153 
L 98.7979 128.018398 
L 99.248197 128.336907 
L 100.043191 128.413641 
L 100.297895 128.506803 
L 100.481046 128.528169 
L 101.335247 128.075621 
L 101.639996 127.931201 
L 102.251597 127.313942 
L 102.456165 127.268251 
L 102.780399 126.725649 
L 103.245026 125.6476 
L 103.761883 124.669227 
L 104.31196 123.453339 
L 104.744902 122.493773 
L 106.21874 118.667247 
L 107.915579 114.368463 
L 108.440907 113.226389 
L 108.969735 112.178781 
L 110.398146 109.897296 
L 111.469454 108.427297 
L 112.638797 107.409847 
L 113.466016 107.035453 
L 114.504766 107.576628 
L 115.602492 108.59239 
L 116.964406 111.262178 
L 117.584003 112.881813 
L 119.368022 119.036701 
L 121.13198 127.23021 
L 122.785509 135.723129 
L 124.666736 143.604773 
L 125.684292 146.129599 
L 125.93868 146.547637 
L 126.447458 146.841714 
L 126.701847 146.911654 
L 127.210625 146.635626 
L 127.68499 146.334532 
L 128.212694 145.594981 
L 128.601674 144.689289 
L 129.807991 140.593289 
L 131.63787 133.433325 
L 132.453261 130.254036 
L 133.312978 126.971454 
L 133.742836 125.848573 
L 134.172695 124.547886 
L 134.817482 123.61848 
L 135.247341 123.200104 
L 135.892128 123.084979 
L 136.966774 122.388838 
L 138.464452 121.96312 
L 139.893194 120.783479 
L 140.68614 119.381836 
L 142.256554 115.886728 
L 143.686618 112.637419 
L 144.6255 110.48509 
L 144.888581 110.120199 
L 145.317802 109.73784 
L 145.64154 109.408499 
L 146.140153 109.28707 
L 146.322057 109.323465 
L 146.511463 109.575988 
L 147.349848 111.611773 
L 149.080103 118.154781 
L 150.002597 122.107318 
L 151.034156 125.671816 
L 151.56247 127.022278 
L 152.114529 127.680262 
L 152.405252 127.856275 
L 152.695976 127.71419 
L 153.277423 127.82049 
L 153.858869 127.009756 
L 154.149593 126.92678 
L 154.73104 126.251355 
L 155.021763 125.869611 
L 156.677393 122.307933 
L 156.938547 122.070663 
L 157.846767 120.502771 
L 158.754987 119.376135 
L 159.820445 118.486733 
L 160.144103 118.204527 
L 160.627139 118.044696 
L 161.066954 117.661799 
L 161.455117 117.604994 
L 161.775406 116.977646 
L 162.09785 116.479014 
L 162.372534 116.147953 
L 162.688511 115.223113 
L 163.158148 114.038884 
L 163.486262 112.944891 
L 164.069378 110.782692 
L 164.478566 109.102723 
L 165.820791 103.129154 
L 167.449453 97.214971 
L 168.019664 95.885768 
L 168.617936 94.954809 
L 169.367962 94.820948 
L 169.518258 94.884854 
L 169.822028 95.481828 
L 170.450051 97.171004 
L 171.344352 101.719152 
L 172.386954 109.53127 
L 174.635066 129.570704 
L 175.444753 134.765583 
L 175.996048 137.548943 
L 176.840245 141.044902 
L 179.049498 147.503729 
L 180.338291 153.020948 
L 181.01929 155.986338 
L 181.70029 158.469421 
L 182.721789 161.200157 
L 183.402789 162.35032 
L 184.083789 162.320035 
L 184.385019 162.068338 
L 184.924397 160.686426 
L 185.463775 158.366417 
L 186.329531 153.106556 
L 187.388517 144.989754 
L 189.602849 127.371848 
L 190.526617 121.767686 
L 191.256045 118.996249 
L 191.615751 118.140654 
L 192.070945 117.814419 
L 192.461904 117.674514 
L 193.487962 118.056148 
L 194.122678 119.042958 
L 195.23351 121.301094 
L 195.551189 121.55503 
L 195.790386 121.352089 
L 196.192397 120.583964 
L 196.519261 119.302176 
L 197.105873 115.492488 
L 197.788313 109.50732 
L 199.97059 90.429027 
L 200.529239 87.476578 
L 201.000123 86.013859 
L 201.150896 85.88584 
L 201.305952 86.013587 
L 201.621619 86.810061 
L 201.940981 88.300747 
L 202.317979 91.529552 
L 202.901904 98.161758 
L 203.656283 111.107227 
L 206.08673 159.100393 
L 206.633513 164.455654 
L 207.00372 165.984397 
L 207.213591 165.965277 
L 207.42378 165.281163 
L 207.903418 162.052372 
L 208.406498 155.80894 
L 210.74785 123.408618 
L 211.345184 120.28637 
L 211.643851 119.279352 
L 211.942518 118.743201 
L 212.539853 118.094172 
L 213.940448 116.78653 
L 214.96086 114.172667 
L 215.573107 112.135829 
L 216.134119 109.864299 
L 217.507407 103.444457 
L 218.556741 97.192623 
L 219.427311 88.919053 
L 221.343044 68.617693 
L 221.749507 67.119391 
L 221.948013 66.829001 
L 222.051591 66.878805 
L 222.213594 67.261076 
L 222.489381 68.661944 
L 222.901731 71.981961 
L 223.380481 77.807776 
L 224.488382 95.510955 
L 225.609111 112.950156 
L 226.126424 118.186151 
L 226.5064 120.375409 
L 226.737293 120.923586 
L 226.894764 120.947286 
L 227.057841 120.732098 
L 227.30443 120.007723 
L 227.641157 118.16316 
L 228.279304 112.901262 
L 229.010863 107.239917 
L 229.384316 105.831582 
L 229.657187 105.398822 
L 229.795196 105.3622 
L 229.934079 105.500429 
L 230.211845 106.417339 
L 230.716318 109.391781 
L 231.081907 112.629792 
L 231.93495 123.185867 
L 233.378063 146.789164 
L 234.273272 160.448758 
L 236.474823 187.616263 
L 237.368914 197.608471 
L 237.836369 199.818428 
L 238.081886 199.828239 
L 238.327403 198.633742 
L 238.818438 193.438988 
L 239.354168 183.730489 
L 240.195848 162.809622 
L 241.377838 132.912049 
L 241.972048 123.350476 
L 242.269153 120.685722 
L 242.566258 119.415681 
L 242.863363 119.759763 
L 243.160468 121.38922 
L 243.754678 127.99 
L 244.943098 144.474321 
L 245.240203 147.29901 
L 245.537308 148.82585 
L 245.834413 148.893107 
L 246.131518 147.769551 
L 246.428623 145.176625 
L 247.277662 133.110849 
L 248.819406 108.202173 
L 249.164324 105.414163 
L 249.38043 104.807157 
L 249.528164 105.050386 
L 249.755263 106.51176 
L 250.118777 111.157526 
L 250.627049 122.100281 
L 252.144741 158.284624 
L 252.598109 163.493252 
L 253.038231 166.522033 
L 253.891356 170.748373 
L 254.221043 171.736493 
L 254.437056 171.978107 
L 254.585689 171.94449 
L 254.73823 171.664078 
L 254.969342 170.579291 
L 255.279434 167.977507 
L 255.782208 161.458511 
L 256.522256 147.630852 
L 257.548049 124.454906 
L 258.257783 103.471318 
L 259.64455 54.489016 
L 260.502008 28.112661 
L 261.008387 17.229483 
L 261.43741 11.662628 
L 261.720331 10.159657 
L 261.820446 10.062685 
L 262.036907 10.717429 
L 262.258376 12.449703 
L 262.599168 17.266047 
L 263.071982 28.325161 
L 263.681046 48.086013 
L 265.395 108.046933 
L 265.816895 115.348894 
L 266.061488 116.985884 
L 266.203557 117.096147 
L 266.345626 116.691583 
L 266.671924 113.522788 
L 267.166001 104.492735 
L 268.324248 80.755146 
L 268.655176 76.855679 
L 268.993359 74.841008 
L 269.355771 73.947545 
L 269.536976 74.157802 
L 269.908426 75.597075 
L 270.279875 78.120791 
L 270.651325 83.175573 
L 271.208499 95.256096 
L 271.906581 118.772485 
L 272.847869 159.484389 
L 274.021029 207.396844 
L 274.691754 225.569106 
L 275.138905 231.855177 
L 275.36248 233.484911 
L 275.474268 233.738754 
L 275.586055 233.586929 
L 275.80963 232.19806 
L 276.116773 228.3411 
L 276.507484 219.687175 
L 277.102082 199.798279 
L 278.134746 155.277821 
L 279.07648 120.064817 
L 279.779468 101.287196 
L 280.319567 91.212645 
L 280.9536 83.387145 
L 282.057361 72.911171 
L 283.398429 59.936671 
L 283.596446 59.610231 
L 283.704597 59.832885 
L 283.924035 61.234634 
L 284.279821 65.603554 
L 284.742482 74.668829 
L 287.256767 132.162995 
L 287.830971 141.225855 
L 288.194877 144.369945 
L 288.416524 144.926554 
L 288.491562 144.885181 
L 288.644133 144.417422 
L 288.87299 142.892505 
L 289.207873 138.77617 
L 289.784933 127.651178 
L 293.328245 54.68924 
L 293.825223 49.408045 
L 293.992022 48.433067 
L 294.160877 48.289963 
L 294.329732 49.00347 
L 294.667442 52.58909 
L 295.0059 59.670175 
L 295.51479 76.902681 
L 296.195744 108.780742 
L 297.499604 172.998258 
L 297.937977 186.27849 
L 298.37836 193.787809 
L 298.598887 195.545126 
L 298.714144 195.79772 
L 298.829401 195.647592 
L 299.075044 194.558146 
L 299.323096 192.73472 
L 299.639414 188.494501 
L 300.493925 171.331565 
L 301.763292 144.402646 
L 302.218953 138.258364 
L 302.413171 137.406756 
L 302.482019 137.421887 
L 302.627207 137.968338 
L 302.875002 140.455158 
L 303.15312 145.705286 
L 303.79417 163.669801 
L 304.586189 185.945581 
L 304.945002 191.314981 
L 305.185546 192.902748 
L 305.305817 192.890589 
L 305.534047 191.293495 
L 305.857919 186.052201 
L 306.356903 173.052147 
L 307.409934 143.812601 
L 307.805742 137.730322 
L 308.023097 136.547332 
L 308.098276 136.502552 
L 308.251348 136.867174 
L 308.497737 138.542586 
L 308.84043 143.080605 
L 309.806701 159.050135 
L 309.987023 159.903757 
L 310.077183 159.929844 
L 310.257915 159.168495 
L 310.529013 156.069038 
L 310.897141 148.735997 
L 311.584058 129.250924 
L 312.463938 98.938414 
L 313.757711 49.322017 
L 314.051354 44.939954 
L 314.149235 44.635744 
L 314.247116 45.01042 
L 314.442879 48.151206 
L 314.70574 58.126847 
L 315.046418 80.91494 
L 315.570436 132.57712 
L 316.401661 215.616985 
L 316.805526 235.277665 
L 317.028614 237.535808 
L 317.140157 236.326127 
L 317.394043 228.813622 
L 317.819113 206.274443 
L 319.095062 128.402571 
L 319.952787 96.969804 
L 320.876781 69.788694 
L 321.291648 62.607453 
L 321.575088 60.81224 
L 321.700144 60.654004 
L 321.831337 60.97296 
L 322.034218 62.605483 
L 322.705238 72.188453 
L 323.252321 77.676212 
L 323.468764 78.342487 
L 323.64816 78.327624 
L 323.881138 78.319259 
L 324.151975 78.696108 
L 324.49956 79.322381 
L 324.740147 80.522384 
L 326.023921 90.49611 
L 326.382429 95.68643 
L 326.665606 103.215184 
L 327.151905 122.961416 
L 328.05907 162.913476 
L 328.361899 168.620281 
L 328.565053 170.169765 
L 328.667265 170.324339 
L 328.771277 170.126646 
L 329.304507 168.078273 
L 329.755197 168.007261 
L 329.983505 167.370623 
L 330.211813 165.975115 
L 330.554274 161.448361 
L 331.315658 144.938788 
L 331.861948 128.836891 
L 332.366723 106.175732 
L 333.124417 70.791137 
L 333.375497 67.015724 
L 333.438268 67.189354 
L 333.563808 68.899729 
L 333.814889 77.212134 
L 334.332954 106.035021 
L 334.84099 130.987607 
L 335.304821 143.302724 
L 336.046725 156.547146 
L 338.276402 193.021625 
L 338.325974 193.101849 
L 338.376141 192.985394 
L 338.528468 191.24067 
L 338.736204 185.412186 
L 339.106511 167.049482 
L 340.836434 66.040803 
L 341.114773 60.751599 
L 341.184893 60.480339 
L 341.255679 60.678127 
L 341.399428 62.648886 
L 341.6901 72.594752 
L 342.863743 123.212456 
L 344.091862 146.004087 
L 344.172841 145.924863 
L 344.342403 144.263298 
L 344.61725 137.382852 
L 345.290256 116.152845 
L 345.492091 113.820136 
L 345.593008 113.529398 
L 345.693926 113.688528 
L 346.145945 115.731905 
L 346.198003 115.567132 
L 346.357206 113.868444 
L 346.582078 108.065829 
L 347.015 88.39405 
L 347.56843 64.779203 
L 347.815896 60.925523 
L 347.88468 60.836896 
L 348.032882 62.133783 
L 348.273517 68.362761 
L 348.624638 84.978258 
L 349.19668 125.803663 
L 350.080921 192.562574 
L 350.379971 202.726803 
L 350.528135 203.590909 
L 350.676299 202.067453 
L 350.972627 194.411032 
L 351.659585 168.698138 
L 352.253692 140.126422 
L 353.531546 71.197496 
L 353.9061 63.099594 
L 354.68131 53.085847 
L 355.434515 38.368128 
L 355.518167 37.989884 
L 355.603656 38.155919 
L 355.778982 40.345784 
L 356.132853 50.759678 
L 356.943105 76.530349 
L 357.230297 80.938393 
L 357.528157 82.439233 
L 357.82866 82.852425 
L 358.028996 82.928865 
L 358.234085 82.695093 
L 358.545808 81.638872 
L 358.888613 79.221198 
L 359.376033 74.279436 
L 359.497888 74.190783 
L 359.619743 75.241878 
L 359.863453 81.440754 
L 360.23302 100.099122 
L 361.24303 158.068279 
L 361.638536 167.033976 
L 362.40159 178.025177 
L 362.81582 181.656363 
L 362.921442 181.648866 
L 363.027064 180.934403 
L 363.238308 176.815341 
L 363.555174 163.299848 
L 364.083284 126.489718 
L 364.728438 82.971139 
L 365.327672 59.032907 
L 365.695527 52.106526 
L 365.818145 51.793455 
L 365.940764 52.457261 
L 366.195996 56.734638 
L 366.580157 69.622258 
L 367.538173 113.147964 
L 368.163023 153.228729 
L 369.268098 230.96492 
L 369.650526 241.39836 
L 369.83905 243.043224 
L 369.903449 243.119306 
L 370.038088 242.590497 
L 370.778778 235.704829 
L 371.029517 231.839898 
L 371.299286 223.254095 
L 371.662732 202.694362 
L 372.810211 123.883032 
L 374.42664 58.452034 
L 374.854889 50.522499 
L 375.836162 39.99622 
L 375.945193 40.089677 
L 376.054223 40.924304 
L 376.272284 45.339391 
L 376.714033 63.64292 
L 377.172667 79.382597 
L 377.402731 81.223544 
L 377.517763 80.59561 
L 377.86286 75.073306 
L 378.093422 71.966419 
L 378.208952 71.564544 
L 378.263681 71.68693 
L 378.429644 73.313423 
L 378.713894 79.707835 
L 379.131589 95.718792 
L 379.993212 140.433716 
L 380.573847 168.854337 
L 380.811413 172.065015 
L 380.879868 171.895318 
L 381.025048 170.114916 
L 381.270348 163.500601 
L 382.040051 138.817144 
L 382.211096 137.689291 
L 382.296619 137.931792 
L 382.467664 140.0455 
L 382.783612 148.889162 
L 383.551697 173.526268 
L 383.782123 175.922465 
L 383.858931 176.030611 
L 384.012548 175.383571 
L 384.242973 172.414785 
L 384.473399 166.251536 
L 385.746575 119.99209 
L 385.919244 118.502561 
L 386.005579 118.590482 
L 386.350917 120.724208 
L 386.60992 122.750844 
L 387.228519 130.244149 
L 387.383169 129.074383 
L 387.777645 122.536155 
L 388.433894 110.243861 
L 388.515925 110.273104 
L 388.679988 111.74778 
L 389.181157 120.775366 
L 389.528741 130.932863 
L 390.854703 178.648329 
L 390.974571 177.896214 
L 391.214307 173.071263 
L 392.173251 150.239874 
L 392.532856 140.547868 
L 393.252064 112.787167 
L 393.611668 99.433561 
L 393.971272 93.966237 
L 394.51922 88.735871 
L 394.665258 87.761051 
L 394.811296 85.719303 
L 395.109599 76.34358 
L 395.81602 51.912856 
L 396.107241 44.902091 
L 396.252851 44.962874 
L 396.544072 51.674745 
L 396.965246 66.84224 
L 398.425973 138.218515 
L 398.538336 138.445991 
L 398.763063 135.816102 
L 399.101205 130.35395 
L 399.443788 118.291909 
L 399.813542 107.423263 
L 400.018065 106.264331 
L 400.154414 106.316234 
L 400.290762 107.105302 
L 400.495285 110.746672 
L 400.904331 119.329909 
L 400.972505 119.047093 
L 401.184932 115.136703 
L 401.489069 109.992135 
L 401.658971 109.427983 
L 401.748495 109.446353 
L 401.838563 109.624841 
L 402.02325 111.226719 
L 402.307467 119.280339 
L 402.591702 126.998992 
L 402.686447 127.312043 
L 402.875937 124.878045 
L 403.375603 117.144235 
L 403.692257 113.667364 
L 403.79839 113.413102 
L 404.010657 114.944267 
L 404.200036 116.49525 
L 404.294726 116.519755 
L 404.673485 114.719528 
L 404.956183 116.212256 
L 405.009827 116.124663 
L 405.117116 114.917965 
L 405.388767 107.205162 
L 405.616733 103.176673 
L 405.67625 103.33224 
L 405.85551 106.330755 
L 406.420655 118.272053 
L 406.550097 118.981545 
L 406.67954 117.561066 
L 406.877262 110.537044 
L 407.36231 90.824239 
L 407.6411 87.545779 
L 407.752546 86.972863 
L 407.789519 86.989542 
L 407.863466 87.525359 
L 407.996709 90.926312 
L 408.219378 104.764348 
L 408.786447 144.923679 
L 409.574825 179.606566 
L 410.250876 198.460218 
L 410.453513 195.078919 
L 410.905038 183.198663 
L 411.480133 153.67173 
L 411.595153 155.15501 
L 412.071936 178.629061 
L 412.772914 210.681463 
L 412.850027 209.927383 
L 413.004252 203.819907 
L 413.399028 172.924896 
L 414.768597 55.966132 
L 415.048711 47.177966 
L 415.235454 44.940819 
L 415.328825 45.504364 
L 415.515568 51.810996 
L 416.27056 101.316809 
L 416.755284 148.293178 
L 416.8551 149.717995 
L 417.060016 144.991274 
L 417.385777 136.648457 
L 417.822449 130.735311 
L 417.931617 131.879646 
L 418.931778 155.677145 
L 419.054072 153.64736 
L 419.606821 137.501452 
L 419.736874 138.762639 
L 420.181677 144.288145 
L 420.38102 145.228515 
L 420.452575 145.079469 
L 420.606851 142.726584 
L 420.842287 131.775485 
L 421.964332 61.494118 
L 422.206347 59.585655 
L 422.361999 59.48886 
L 422.361999 59.48886 
" clip-path="url(#pd88e692aaf)" style="fill: none; stroke: #e36f47"/>
   </g>
   <g id="patch_3">
    <path d="M 66.051544 258.225354 
L 66.051544 2.834646 
" style="fill: none; stroke: #000000; stroke-linejoin: miter; stroke-linecap: square"/>
   </g>
   <g id="patch_4">
    <path d="M 66.051544 258.225354 
L 422.361999 258.225354 
" style="fill: none; stroke: #000000; stroke-linejoin: miter; stroke-linecap: square"/>
   </g>
   <g id="line2d_13">
    <path d="M 66.051544 122.905516 
L 67.466389 123.015316 
L 67.644678 122.986356 
L 67.977094 122.77512 
L 68.141021 122.776924 
L 68.556376 123.035996 
L 68.852314 122.942789 
L 69.204279 122.944571 
L 69.410944 123.043436 
L 69.551667 123.096793 
L 69.567629 123.082557 
L 70.094697 122.725878 
L 70.384764 122.787705 
L 70.661322 122.876118 
L 70.91644 122.841552 
L 71.154972 122.861274 
L 71.397297 122.947906 
L 71.693841 123.018501 
L 71.909039 122.96233 
L 72.377024 122.814124 
L 73.439068 122.995012 
L 73.844661 123.05536 
L 74.178703 123.03214 
L 74.685276 122.779796 
L 75.40265 123.009158 
L 75.762221 122.884228 
L 76.410398 122.977338 
L 76.851377 122.797408 
L 77.505319 122.843348 
L 77.995311 122.674052 
L 79.831128 122.956968 
L 80.433668 122.771834 
L 80.989119 122.951644 
L 81.564241 122.762824 
L 82.029971 122.79737 
L 82.551398 122.683913 
L 83.356554 122.946122 
L 84.39332 122.62318 
L 85.256087 122.677995 
L 85.79482 122.819282 
L 86.332897 122.812191 
L 86.984627 123.034097 
L 90.301049 122.61751 
L 90.89283 122.715483 
L 92.202896 122.715773 
L 92.615148 122.93617 
L 93.492485 123.575655 
L 94.041115 123.923213 
L 96.114851 125.709305 
L 96.621059 126.101236 
L 98.418221 127.790631 
L 99.453907 128.358235 
L 100.009855 128.424159 
L 100.794543 128.35359 
L 101.406138 128.051347 
L 102.091987 127.460661 
L 102.9005 126.433812 
L 103.520716 125.292708 
L 105.023826 121.693203 
L 106.741864 117.247694 
L 108.303093 113.582884 
L 109.242251 111.633846 
L 110.305101 109.977948 
L 111.612104 108.350199 
L 112.445389 107.605247 
L 113.006908 107.294792 
L 113.562013 107.183639 
L 114.090019 107.284487 
L 114.785023 107.725366 
L 115.421275 108.419443 
L 116.176772 109.598644 
L 116.916733 111.133209 
L 117.769614 113.419929 
L 118.66657 116.433736 
L 119.957303 121.633935 
L 121.387463 128.473861 
L 123.828571 140.370687 
L 124.773108 143.804592 
L 125.53625 145.786116 
L 126.148555 146.7505 
L 126.543503 147.036359 
L 126.947144 147.048828 
L 127.352959 146.790366 
L 127.774276 146.264507 
L 128.421457 145.02645 
L 129.149004 143.109437 
L 130.15572 139.631122 
L 133.431137 126.854767 
L 134.24844 124.697658 
L 134.823006 123.556994 
L 135.408458 122.776536 
L 136.010651 122.387006 
L 136.52869 122.318129 
L 137.803031 122.385711 
L 138.378727 122.198565 
L 138.892887 121.85515 
L 139.694383 121.006867 
L 140.601022 119.611378 
L 141.547624 117.679295 
L 144.648451 110.620433 
L 145.313426 109.803468 
L 145.767304 109.557091 
L 146.186395 109.597744 
L 146.628827 109.953636 
L 147.127476 110.767205 
L 147.638703 112.061748 
L 148.451655 114.991965 
L 151.077194 125.825102 
L 151.646854 127.151399 
L 152.250779 127.983627 
L 152.86432 128.270088 
L 153.148393 128.227997 
L 153.753163 127.808707 
L 154.285518 127.122378 
L 155.348693 125.196458 
L 157.24934 121.638718 
L 158.499688 119.815044 
L 159.371001 118.848101 
L 161.789727 116.566196 
L 162.41248 115.51801 
L 163.139733 113.835346 
L 163.845436 111.713368 
L 164.879057 107.791473 
L 167.291558 98.061892 
L 167.84926 96.546142 
L 168.447868 95.474478 
L 168.740344 95.188222 
L 169.03104 95.07418 
L 169.320283 95.141691 
L 169.554382 95.336036 
L 170.046368 96.18009 
L 170.572741 97.775407 
L 171.062931 99.931184 
L 171.868893 104.849778 
L 172.874392 112.961884 
L 175.090681 131.997643 
L 175.969035 137.489553 
L 176.73397 140.975872 
L 177.515524 143.599939 
L 179.674731 150.182729 
L 182.343799 159.846537 
L 183.075737 161.434376 
L 183.549853 161.967137 
L 183.784923 162.0555 
L 184.049329 161.998325 
L 184.455962 161.562422 
L 184.767828 160.919684 
L 185.178758 159.641613 
L 185.856769 156.495427 
L 186.613769 151.630485 
L 187.938749 141.08281 
L 189.530418 128.735869 
L 190.517798 122.99136 
L 191.131548 120.462476 
L 191.681687 118.898667 
L 192.171442 118.022558 
L 192.630551 117.588369 
L 193.098135 117.493331 
L 193.616855 117.758838 
L 194.136054 118.333689 
L 195.398112 119.934138 
L 195.740395 119.985799 
L 196.036303 119.724662 
L 196.300862 119.212256 
L 196.681363 117.934526 
L 197.246445 114.82763 
L 197.846458 110.095675 
L 200.175598 89.544081 
L 200.585854 87.544434 
L 200.96092 86.562877 
L 201.14782 86.41278 
L 201.330887 86.499475 
L 201.522252 86.849163 
L 201.88263 88.258835 
L 202.267087 90.896757 
L 202.796476 96.507214 
L 203.375123 105.154375 
L 204.29033 122.887003 
L 205.837432 153.599047 
L 206.479366 161.656093 
L 206.89822 164.379238 
L 207.182579 164.992636 
L 207.329874 164.917408 
L 207.607684 164.072904 
L 207.928972 162.023065 
L 208.499542 156.018695 
L 209.415126 142.737608 
L 210.415487 128.706886 
L 211.034757 122.633926 
L 211.510291 119.745511 
L 211.862565 118.496385 
L 212.215407 117.820173 
L 212.713061 117.44461 
L 213.43357 117.072452 
L 213.804438 116.63982 
L 214.378104 115.484871 
L 215.174557 113.115839 
L 216.431936 108.468252 
L 217.358254 104.226881 
L 218.310681 98.69231 
L 219.152027 92.137369 
L 220.125582 82.396381 
L 221.076957 73.031163 
L 221.59121 69.632875 
L 221.958295 68.458254 
L 222.133926 68.334694 
L 222.318331 68.533024 
L 222.680868 69.933406 
L 223.037509 72.609437 
L 223.607253 79.281539 
L 224.613778 95.282023 
L 225.579912 109.822755 
L 226.259282 116.701027 
L 226.636115 118.838819 
L 226.965485 119.65178 
L 227.172743 119.687524 
L 227.423471 119.267836 
L 227.78053 117.889816 
L 228.282501 114.802413 
L 229.37285 107.471713 
L 229.679139 106.365316 
L 229.84659 106.083098 
L 230.009182 106.049907 
L 230.173834 106.265593 
L 230.497926 107.427719 
L 230.976414 110.828346 
L 231.623217 118.069668 
L 232.468758 130.663037 
L 234.907464 169.268177 
L 236.278453 185.449319 
L 237.082561 193.206044 
L 237.604289 196.261443 
L 237.894232 196.886169 
L 238.041835 196.851393 
L 238.188634 196.56352 
L 238.48162 195.196195 
L 238.921228 191.099695 
L 239.361032 184.602071 
L 240.083706 169.597037 
L 241.935643 127.089972 
L 242.417858 121.450769 
L 242.729621 119.857231 
L 242.877823 119.661264 
L 243.011208 119.780702 
L 243.303387 120.94362 
L 243.708028 124.272104 
L 244.437034 133.247417 
L 245.242937 142.599041 
L 245.647405 145.113819 
L 245.881868 145.586022 
L 245.972515 145.561415 
L 246.167014 145.114313 
L 246.450527 143.557842 
L 246.887435 139.3478 
L 247.64038 128.903541 
L 248.727763 113.667315 
L 249.177501 109.557488 
L 249.488898 108.255092 
L 249.644882 108.2186 
L 249.795688 108.621261 
L 250.049215 110.329334 
L 250.424358 115.272618 
L 250.957809 126.539633 
L 252.349638 159.105009 
L 252.900295 165.95153 
L 253.376834 169.028852 
L 253.84165 170.73145 
L 254.31787 171.850689 
L 254.493562 172.041777 
L 254.657012 172.042441 
L 254.820802 171.82172 
L 255.169482 170.429436 
L 255.527818 167.195821 
L 255.913039 161.644757 
L 256.429927 151.138406 
L 257.439423 124.814237 
L 259.196989 72.157077 
L 260.410691 37.177946 
L 261.128785 21.988857 
L 261.539829 16.429952 
L 261.839282 14.334655 
L 261.998348 13.998931 
L 262.156833 14.236434 
L 262.413032 15.869728 
L 262.71806 19.834978 
L 263.166789 29.407833 
L 263.869324 51.044807 
L 265.409075 101.79307 
L 265.915616 111.255783 
L 266.197573 113.846569 
L 266.44164 114.495132 
L 266.549213 114.324033 
L 266.771293 113.139025 
L 267.125905 109.203035 
L 267.726546 98.696384 
L 268.73116 80.690746 
L 269.150505 76.37419 
L 269.527942 74.692918 
L 269.660614 74.577229 
L 269.794561 74.699795 
L 270.03229 75.498568 
L 270.292562 77.231054 
L 270.63936 81.070254 
L 271.022735 87.696273 
L 271.541734 101.259422 
L 272.260752 128.250023 
L 274.356564 215.659802 
L 274.862254 228.213502 
L 275.207155 233.109476 
L 275.448054 234.529379 
L 275.565283 234.597928 
L 275.692007 234.202591 
L 275.920883 232.25071 
L 276.275542 226.129179 
L 276.772518 211.851644 
L 277.536557 181.062644 
L 278.718883 132.429409 
L 279.338414 114.809379 
L 279.950758 103.003068 
L 281.15604 85.302122 
L 282.117119 74.09977 
L 283.571114 59.998282 
L 283.881324 58.639906 
L 284.004749 58.538842 
L 284.137923 58.77071 
L 284.4293 60.67554 
L 284.752642 65.22666 
L 285.214141 76.051132 
L 286.067736 104.455338 
L 286.929763 130.417548 
L 287.437709 140.065267 
L 287.777811 144.042745 
L 288.113686 146.151948 
L 288.280673 146.550713 
L 288.449254 146.520896 
L 288.700365 145.669972 
L 288.98694 143.517037 
L 289.405717 138.198689 
L 289.968342 127.529841 
L 291.05325 100.917494 
L 292.250951 72.942381 
L 293.033559 59.418329 
L 293.539995 54.08151 
L 293.86222 52.551229 
L 294.019972 52.409311 
L 294.161149 52.649922 
L 294.430436 54.138107 
L 294.734148 57.569366 
L 295.186506 66.433967 
L 295.775212 84.853556 
L 296.519125 116.996813 
L 297.846081 176.040634 
L 298.416429 192.352734 
L 298.777274 197.85384 
L 299.03607 199.331496 
L 299.163784 199.312191 
L 299.284777 198.855856 
L 299.556231 196.347297 
L 299.964373 189.300711 
L 300.681471 171.156358 
L 301.55329 149.637468 
L 302.059492 142.13483 
L 302.336657 140.119403 
L 302.613259 139.585086 
L 302.748623 139.853379 
L 303.013691 141.388276 
L 303.371142 145.563115 
L 303.848443 154.766905 
L 305.383147 189.72982 
L 305.606929 191.100738 
L 305.737222 191.109163 
L 305.862002 190.540223 
L 306.103697 187.858152 
L 306.410011 181.673628 
L 306.984822 164.347353 
L 307.695676 143.841857 
L 308.02427 138.895144 
L 308.278569 137.729136 
L 308.371329 137.856549 
L 308.565603 138.960432 
L 308.867644 142.414373 
L 309.92148 156.405692 
L 310.125712 157.172931 
L 310.234257 157.168983 
L 310.449557 156.271014 
L 310.696768 153.724905 
L 311.148354 145.223828 
L 311.761379 127.927226 
L 312.66904 94.97298 
L 313.719544 56.286463 
L 314.05889 51.177096 
L 314.164275 50.976709 
L 314.275681 51.567151 
L 314.482668 54.972291 
L 314.838933 68.050619 
L 315.226956 92.161959 
L 315.944987 155.278111 
L 316.677997 214.893965 
L 317.047702 229.306986 
L 317.239828 231.1693 
L 317.338926 230.621801 
L 317.546265 226.366666 
L 317.918493 210.019116 
L 318.752764 155.678823 
L 319.490045 114.871421 
L 320.091856 93.85904 
L 320.683136 81.049187 
L 321.400656 70.109431 
L 321.880201 65.326411 
L 322.208408 64.038929 
L 322.321511 63.97842 
L 322.449051 64.09862 
L 322.803465 65.112411 
L 323.777327 69.086007 
L 324.08296 71.448543 
L 324.532447 76.91253 
L 325.55944 90.562758 
L 326.421399 99.876589 
L 326.798037 107.540751 
L 327.317538 124.210816 
L 328.467781 165.521435 
L 328.822801 170.303946 
L 329.03537 170.789844 
L 329.169519 170.386458 
L 329.447844 168.451815 
L 330.785304 155.957635 
L 331.203855 148.365249 
L 331.718192 134.405612 
L 333.546883 79.505054 
L 333.673228 79.243048 
L 333.825175 80.419444 
L 334.052864 85.205153 
L 334.428566 99.334763 
L 335.313477 134.958239 
L 335.899456 147.951712 
L 336.656668 164.679423 
L 337.641824 187.425221 
L 338.043676 192.014544 
L 338.217119 192.631697 
L 338.278182 192.603143 
L 338.410956 192.020459 
L 338.621581 189.33811 
L 338.862569 183.024185 
L 339.213007 167.188654 
L 340.850397 77.549421 
L 341.224302 68.088053 
L 341.430752 66.097615 
L 341.525415 66.071169 
L 341.700349 67.559517 
L 341.970262 73.755491 
L 342.396765 91.315802 
L 343.16822 124.688798 
L 343.634744 136.395599 
L 344.153654 144.116109 
L 344.338398 145.207194 
L 344.416397 145.273122 
L 344.557106 144.710484 
L 344.81241 141.290138 
L 345.171005 131.533298 
L 345.898999 109.693344 
L 346.24678 105.143547 
L 346.74708 100.235828 
L 347.049104 93.809752 
L 348.04207 68.759804 
L 348.121191 68.828663 
L 348.271464 70.37376 
L 348.538078 77.62673 
L 348.906896 95.505739 
L 350.581646 190.526726 
L 350.833165 195.09943 
L 350.92554 195.626509 
L 351.015428 195.523821 
L 351.168443 193.973656 
L 351.462554 186.608819 
L 352.043488 162.635477 
L 352.83038 122.249535 
L 353.979676 58.986259 
L 354.363259 50.637716 
L 354.604159 48.896543 
L 354.864172 48.414051 
L 355.052371 48.107345 
L 355.26448 47.34901 
L 355.849993 44.921699 
L 355.992542 45.392833 
L 356.216424 47.714 
L 356.518076 53.781903 
L 357.511525 76.823912 
L 357.75288 78.506296 
L 357.933541 78.863323 
L 358.282089 79.008777 
L 358.446294 79.488693 
L 358.679078 81.161194 
L 359.012889 85.618823 
L 360.289596 107.572754 
L 360.668206 120.6078 
L 361.835638 168.369127 
L 362.148442 171.489319 
L 362.737801 174.136912 
L 363.202493 177.763026 
L 363.26362 177.755891 
L 363.378843 177.022673 
L 363.508727 174.778257 
L 363.744286 166.127294 
L 364.110446 141.236152 
L 365.125124 64.464168 
L 365.440578 56.193742 
L 365.641569 55.025521 
L 365.783393 55.646573 
L 366.010565 58.352519 
L 366.465731 67.339992 
L 366.868919 79.672863 
L 367.355051 103.395516 
L 369.759467 236.672564 
L 370.077304 243.543008 
L 370.217428 244.160926 
L 370.341058 243.759321 
L 370.564723 241.514748 
L 371.191871 231.763143 
L 371.522957 223.278961 
L 371.841268 208.305223 
L 372.227705 178.383343 
L 373.103103 104.006736 
L 373.463008 92.208571 
L 374.122291 78.892759 
L 374.646587 56.707147 
L 375.084326 42.220483 
L 375.326572 39.732699 
L 375.387398 39.676929 
L 375.433928 39.746878 
L 375.572251 40.390593 
L 376.077796 43.082369 
L 376.476261 43.537942 
L 376.651016 44.829164 
L 376.89151 49.345365 
L 377.247955 62.447917 
L 377.891907 87.694268 
L 378.158754 91.627168 
L 378.29563 92.067436 
L 378.419648 91.869689 
L 378.744111 91.063927 
L 378.886027 91.750949 
L 379.091993 94.864785 
L 379.38247 103.746443 
L 380.954637 161.641385 
L 381.251979 164.596005 
L 381.314563 164.669079 
L 381.434895 164.231857 
L 381.635752 161.874944 
L 381.985204 154.066313 
L 382.539657 141.64139 
L 382.734983 140.511321 
L 382.826247 140.960898 
L 382.980704 143.28737 
L 383.242688 151.300852 
L 383.957138 175.845682 
L 384.064075 176.42734 
L 384.117823 176.269857 
L 384.268632 174.327138 
L 384.547499 166.040966 
L 385.324164 139.311416 
L 385.614462 136.620737 
L 385.97535 134.654313 
L 386.231164 131.306031 
L 387.119155 116.644186 
L 387.251992 117.354657 
L 387.861338 123.09069 
L 387.904266 122.971781 
L 388.037975 121.812113 
L 388.300662 116.405496 
L 388.805661 105.633031 
L 388.85797 105.443828 
L 388.901613 105.485206 
L 388.995133 106.196664 
L 389.173092 109.832965 
L 389.471751 121.554461 
L 390.639443 175.173731 
L 390.883814 178.372047 
L 390.994509 178.688357 
L 391.043431 178.59995 
L 391.213518 177.225755 
L 391.461585 172.61493 
L 392.09369 154.665232 
L 393.895428 103.247213 
L 394.442553 88.606795 
L 395.391851 60.04741 
L 395.790238 54.650129 
L 396.1848 51.940617 
L 396.408992 51.393438 
L 396.525433 51.652905 
L 396.711369 53.456606 
L 396.905201 57.961128 
L 397.216553 72.08623 
L 398.365437 135.053552 
L 398.510985 135.933654 
L 398.608141 135.389096 
L 398.7966 132.098323 
L 399.203724 119.173485 
L 399.641847 108.365174 
L 399.8795 106.707169 
L 400.04211 106.656559 
L 400.539299 107.327102 
L 400.708001 108.06294 
L 400.949029 110.470917 
L 401.935423 123.078872 
L 402.106867 123.2897 
L 402.268094 123.048332 
L 402.586775 121.967219 
L 402.901431 120.102204 
L 403.561424 115.315448 
L 403.592061 115.365528 
L 403.698956 115.925446 
L 403.891261 118.430962 
L 404.501064 127.650099 
L 404.560982 127.592163 
L 404.680926 126.764862 
L 404.966022 122.019443 
L 405.603113 111.162408 
L 406.669015 97.997137 
L 407.029958 89.038319 
L 407.492964 77.730778 
L 407.577224 77.290913 
L 407.619732 77.352737 
L 407.725762 78.363119 
L 407.945105 84.060703 
L 408.35177 103.260239 
L 410.209172 202.999825 
L 410.4027 205.599923 
L 410.454485 205.593347 
L 410.548536 204.8372 
L 410.730793 201.009495 
L 411.73549 173.509038 
L 411.785994 173.505533 
L 411.893353 174.262858 
L 412.07496 177.741716 
L 412.826833 196.048172 
L 412.915979 196.253004 
L 413.020612 195.687499 
L 413.198217 192.455358 
L 413.456256 181.545071 
L 413.779778 156.658579 
L 414.828827 67.302676 
L 415.214048 49.496787 
L 415.380112 47.178286 
L 415.436477 47.382805 
L 415.553662 49.538643 
L 415.788405 60.862637 
L 416.282761 103.517545 
L 416.698866 131.027425 
L 417.211546 147.931241 
L 417.510417 153.101601 
L 417.553559 153.248859 
L 417.607048 153.18889 
L 417.718788 152.226362 
L 417.979288 146.700523 
L 418.511796 135.251622 
L 418.691623 134.28985 
L 418.726457 134.295399 
L 418.81296 134.532577 
L 419.110955 136.667361 
L 419.334211 137.649962 
L 419.428805 137.484602 
L 419.578399 136.421555 
L 419.89858 131.71378 
L 421.10586 108.909947 
L 422.301169 68.908045 
L 422.361999 68.119005 
L 422.361999 68.119005 
" clip-path="url(#pd88e692aaf)" style="fill: none; stroke: #3ea44e"/>
   </g>
   <g id="legend_1">
    <g id="patch_5">
     <path d="M 332.945749 50.862146 
L 418.361999 50.862146 
L 418.361999 6.834646 
L 332.945749 6.834646 
z
" style="fill: #ffffff; stroke: #000000; stroke-linejoin: miter"/>
    </g>
    <g id="line2d_14">
     <path d="M 339.345749 16.513396 
L 347.345749 16.513396 
L 355.345749 16.513396 
" style="fill: none; stroke: #009afa; stroke-linejoin: miter"/>
    </g>
    <g id="text_13">
     <!-- GXBeam -->
     <g transform="translate(361.745749 19.313396) scale(0.08 -0.08)">
      <defs>
       <path id="DejaVuSans-47" d="M 3809 666 
L 3809 1919 
L 2778 1919 
L 2778 2438 
L 4434 2438 
L 4434 434 
Q 4069 175 3628 42 
Q 3188 -91 2688 -91 
Q 1594 -91 976 548 
Q 359 1188 359 2328 
Q 359 3472 976 4111 
Q 1594 4750 2688 4750 
Q 3144 4750 3555 4637 
Q 3966 4525 4313 4306 
L 4313 3634 
Q 3963 3931 3569 4081 
Q 3175 4231 2741 4231 
Q 1884 4231 1454 3753 
Q 1025 3275 1025 2328 
Q 1025 1384 1454 906 
Q 1884 428 2741 428 
Q 3075 428 3337 486 
Q 3600 544 3809 666 
z
" transform="scale(0.015625)"/>
       <path id="DejaVuSans-58" d="M 403 4666 
L 1081 4666 
L 2241 2931 
L 3406 4666 
L 4084 4666 
L 2584 2425 
L 4184 0 
L 3506 0 
L 2194 1984 
L 872 0 
L 191 0 
L 1856 2491 
L 403 4666 
z
" transform="scale(0.015625)"/>
       <path id="DejaVuSans-42" d="M 1259 2228 
L 1259 519 
L 2272 519 
Q 2781 519 3026 730 
Q 3272 941 3272 1375 
Q 3272 1813 3026 2020 
Q 2781 2228 2272 2228 
L 1259 2228 
z
M 1259 4147 
L 1259 2741 
L 2194 2741 
Q 2656 2741 2882 2914 
Q 3109 3088 3109 3444 
Q 3109 3797 2882 3972 
Q 2656 4147 2194 4147 
L 1259 4147 
z
M 628 4666 
L 2241 4666 
Q 2963 4666 3353 4366 
Q 3744 4066 3744 3513 
Q 3744 3084 3544 2831 
Q 3344 2578 2956 2516 
Q 3422 2416 3680 2098 
Q 3938 1781 3938 1306 
Q 3938 681 3513 340 
Q 3088 0 2303 0 
L 628 0 
L 628 4666 
z
" transform="scale(0.015625)"/>
       <path id="DejaVuSans-61" d="M 2194 1759 
Q 1497 1759 1228 1600 
Q 959 1441 959 1056 
Q 959 750 1161 570 
Q 1363 391 1709 391 
Q 2188 391 2477 730 
Q 2766 1069 2766 1631 
L 2766 1759 
L 2194 1759 
z
M 3341 1997 
L 3341 0 
L 2766 0 
L 2766 531 
Q 2569 213 2275 61 
Q 1981 -91 1556 -91 
Q 1019 -91 701 211 
Q 384 513 384 1019 
Q 384 1609 779 1909 
Q 1175 2209 1959 2209 
L 2766 2209 
L 2766 2266 
Q 2766 2663 2505 2880 
Q 2244 3097 1772 3097 
Q 1472 3097 1187 3025 
Q 903 2953 641 2809 
L 641 3341 
Q 956 3463 1253 3523 
Q 1550 3584 1831 3584 
Q 2591 3584 2966 3190 
Q 3341 2797 3341 1997 
z
" transform="scale(0.015625)"/>
      </defs>
      <use xlink:href="#DejaVuSans-47"/>
      <use xlink:href="#DejaVuSans-58" x="77.490234"/>
      <use xlink:href="#DejaVuSans-42" x="145.996094"/>
      <use xlink:href="#DejaVuSans-65" x="214.599609"/>
      <use xlink:href="#DejaVuSans-61" x="276.123047"/>
      <use xlink:href="#DejaVuSans-6d" x="337.402344"/>
     </g>
    </g>
    <g id="line2d_15">
     <path d="M 339.345749 28.255896 
L 347.345749 28.255896 
L 355.345749 28.255896 
" style="fill: none; stroke: #e36f47; stroke-linejoin: miter"/>
    </g>
    <g id="text_14">
     <!-- ODEProblem -->
     <g transform="translate(361.745749 31.055896) scale(0.08 -0.08)">
      <defs>
       <path id="DejaVuSans-4f" d="M 2522 4238 
Q 1834 4238 1429 3725 
Q 1025 3213 1025 2328 
Q 1025 1447 1429 934 
Q 1834 422 2522 422 
Q 3209 422 3611 934 
Q 4013 1447 4013 2328 
Q 4013 3213 3611 3725 
Q 3209 4238 2522 4238 
z
M 2522 4750 
Q 3503 4750 4090 4092 
Q 4678 3434 4678 2328 
Q 4678 1225 4090 567 
Q 3503 -91 2522 -91 
Q 1538 -91 948 565 
Q 359 1222 359 2328 
Q 359 3434 948 4092 
Q 1538 4750 2522 4750 
z
" transform="scale(0.015625)"/>
       <path id="DejaVuSans-44" d="M 1259 4147 
L 1259 519 
L 2022 519 
Q 2988 519 3436 956 
Q 3884 1394 3884 2338 
Q 3884 3275 3436 3711 
Q 2988 4147 2022 4147 
L 1259 4147 
z
M 628 4666 
L 1925 4666 
Q 3281 4666 3915 4102 
Q 4550 3538 4550 2338 
Q 4550 1131 3912 565 
Q 3275 0 1925 0 
L 628 0 
L 628 4666 
z
" transform="scale(0.015625)"/>
       <path id="DejaVuSans-45" d="M 628 4666 
L 3578 4666 
L 3578 4134 
L 1259 4134 
L 1259 2753 
L 3481 2753 
L 3481 2222 
L 1259 2222 
L 1259 531 
L 3634 531 
L 3634 0 
L 628 0 
L 628 4666 
z
" transform="scale(0.015625)"/>
       <path id="DejaVuSans-50" d="M 1259 4147 
L 1259 2394 
L 2053 2394 
Q 2494 2394 2734 2622 
Q 2975 2850 2975 3272 
Q 2975 3691 2734 3919 
Q 2494 4147 2053 4147 
L 1259 4147 
z
M 628 4666 
L 2053 4666 
Q 2838 4666 3239 4311 
Q 3641 3956 3641 3272 
Q 3641 2581 3239 2228 
Q 2838 1875 2053 1875 
L 1259 1875 
L 1259 0 
L 628 0 
L 628 4666 
z
" transform="scale(0.015625)"/>
       <path id="DejaVuSans-72" d="M 2631 2963 
Q 2534 3019 2420 3045 
Q 2306 3072 2169 3072 
Q 1681 3072 1420 2755 
Q 1159 2438 1159 1844 
L 1159 0 
L 581 0 
L 581 3500 
L 1159 3500 
L 1159 2956 
Q 1341 3275 1631 3429 
Q 1922 3584 2338 3584 
Q 2397 3584 2469 3576 
Q 2541 3569 2628 3553 
L 2631 2963 
z
" transform="scale(0.015625)"/>
       <path id="DejaVuSans-6f" d="M 1959 3097 
Q 1497 3097 1228 2736 
Q 959 2375 959 1747 
Q 959 1119 1226 758 
Q 1494 397 1959 397 
Q 2419 397 2687 759 
Q 2956 1122 2956 1747 
Q 2956 2369 2687 2733 
Q 2419 3097 1959 3097 
z
M 1959 3584 
Q 2709 3584 3137 3096 
Q 3566 2609 3566 1747 
Q 3566 888 3137 398 
Q 2709 -91 1959 -91 
Q 1206 -91 779 398 
Q 353 888 353 1747 
Q 353 2609 779 3096 
Q 1206 3584 1959 3584 
z
" transform="scale(0.015625)"/>
       <path id="DejaVuSans-62" d="M 3116 1747 
Q 3116 2381 2855 2742 
Q 2594 3103 2138 3103 
Q 1681 3103 1420 2742 
Q 1159 2381 1159 1747 
Q 1159 1113 1420 752 
Q 1681 391 2138 391 
Q 2594 391 2855 752 
Q 3116 1113 3116 1747 
z
M 1159 2969 
Q 1341 3281 1617 3432 
Q 1894 3584 2278 3584 
Q 2916 3584 3314 3078 
Q 3713 2572 3713 1747 
Q 3713 922 3314 415 
Q 2916 -91 2278 -91 
Q 1894 -91 1617 61 
Q 1341 213 1159 525 
L 1159 0 
L 581 0 
L 581 4863 
L 1159 4863 
L 1159 2969 
z
" transform="scale(0.015625)"/>
       <path id="DejaVuSans-6c" d="M 603 4863 
L 1178 4863 
L 1178 0 
L 603 0 
L 603 4863 
z
" transform="scale(0.015625)"/>
      </defs>
      <use xlink:href="#DejaVuSans-4f"/>
      <use xlink:href="#DejaVuSans-44" x="78.710938"/>
      <use xlink:href="#DejaVuSans-45" x="155.712891"/>
      <use xlink:href="#DejaVuSans-50" x="218.896484"/>
      <use xlink:href="#DejaVuSans-72" x="277.449219"/>
      <use xlink:href="#DejaVuSans-6f" x="316.3125"/>
      <use xlink:href="#DejaVuSans-62" x="377.494141"/>
      <use xlink:href="#DejaVuSans-6c" x="440.970703"/>
      <use xlink:href="#DejaVuSans-65" x="468.753906"/>
      <use xlink:href="#DejaVuSans-6d" x="530.277344"/>
     </g>
    </g>
    <g id="line2d_16">
     <path d="M 339.345749 39.998396 
L 347.345749 39.998396 
L 355.345749 39.998396 
" style="fill: none; stroke: #3ea44e; stroke-linejoin: miter"/>
    </g>
    <g id="text_15">
     <!-- DAEProblem -->
     <g transform="translate(361.745749 42.798396) scale(0.08 -0.08)">
      <defs>
       <path id="DejaVuSans-41" d="M 2188 4044 
L 1331 1722 
L 3047 1722 
L 2188 4044 
z
M 1831 4666 
L 2547 4666 
L 4325 0 
L 3669 0 
L 3244 1197 
L 1141 1197 
L 716 0 
L 50 0 
L 1831 4666 
z
" transform="scale(0.015625)"/>
      </defs>
      <use xlink:href="#DejaVuSans-44"/>
      <use xlink:href="#DejaVuSans-41" x="75.251953"/>
      <use xlink:href="#DejaVuSans-45" x="143.660156"/>
      <use xlink:href="#DejaVuSans-50" x="206.84375"/>
      <use xlink:href="#DejaVuSans-72" x="265.396484"/>
      <use xlink:href="#DejaVuSans-6f" x="304.259766"/>
      <use xlink:href="#DejaVuSans-62" x="365.441406"/>
      <use xlink:href="#DejaVuSans-6c" x="428.917969"/>
      <use xlink:href="#DejaVuSans-65" x="456.701172"/>
      <use xlink:href="#DejaVuSans-6d" x="518.224609"/>
     </g>
    </g>
   </g>
  </g>
 </g>
 <defs>
  <clipPath id="pd88e692aaf">
   <rect x="66.051544" y="2.834646" width="356.310455" height="255.390709"/>
  </clipPath>
 </defs>
</svg>
