<?xml version="1.0" encoding="utf-8" standalone="no"?>
<!DOCTYPE svg PUBLIC "-//W3C//DTD SVG 1.1//EN"
  "http://www.w3.org/Graphics/SVG/1.1/DTD/svg11.dtd">
<svg xmlns:xlink="http://www.w3.org/1999/xlink" width="432pt" height="288pt" viewBox="0 0 432 288" xmlns="http://www.w3.org/2000/svg" version="1.1">
 <metadata>
  <rdf:RDF xmlns:dc="http://purl.org/dc/elements/1.1/" xmlns:cc="http://creativecommons.org/ns#" xmlns:rdf="http://www.w3.org/1999/02/22-rdf-syntax-ns#">
   <cc:Work>
    <dc:type rdf:resource="http://purl.org/dc/dcmitype/StillImage"/>
    <dc:date>2023-02-17T20:53:25.688501</dc:date>
    <dc:format>image/svg+xml</dc:format>
    <dc:creator>
     <cc:Agent>
      <dc:title>Matplotlib v3.7.0, https://matplotlib.org/</dc:title>
     </cc:Agent>
    </dc:creator>
   </cc:Work>
  </rdf:RDF>
 </metadata>
 <defs>
  <style type="text/css">*{stroke-linejoin: round; stroke-linecap: butt}</style>
 </defs>
 <g id="figure_1">
  <g id="patch_1">
   <path d="M 0 288 
L 432 288 
L 432 0 
L 0 0 
z
" style="fill: #ffffff"/>
  </g>
  <g id="axes_1">
   <g id="patch_2">
    <path d="M 43.915109 258.225354 
L 422.361999 258.225354 
L 422.361999 2.834646 
L 43.915109 2.834646 
z
" style="fill: #ffffff"/>
   </g>
   <g id="line2d_1">
    <path d="M 43.915109 10.062685 
L 49.213366 10.163351 
L 51.67327 10.412383 
L 53.565505 10.811662 
L 55.079292 11.359089 
L 56.59308 12.146034 
L 57.917644 13.066396 
L 59.620655 14.533558 
L 61.323666 16.309562 
L 62.837454 18.207572 
L 64.540465 20.680037 
L 66.432699 23.859918 
L 70.406391 30.635676 
L 72.109402 33.118299 
L 74.001637 35.44347 
L 75.326201 36.769484 
L 76.650765 37.780942 
L 77.975329 38.532313 
L 79.299893 39.0441 
L 80.435234 39.275153 
L 81.759798 39.326362 
L 82.895139 39.149494 
L 84.030479 38.724702 
L 85.355044 37.93985 
L 87.058055 36.613354 
L 90.464077 33.837829 
L 91.788641 33.107517 
L 92.923981 32.706375 
L 94.059322 32.526296 
L 95.57311 32.546261 
L 99.736025 32.8064 
L 100.871366 32.593219 
L 102.19593 32.115917 
L 103.709718 31.299513 
L 105.791176 29.890115 
L 111.657102 25.779703 
L 112.981667 25.09037 
L 113.927784 24.804583 
L 114.684678 24.76718 
L 115.441571 24.946395 
L 116.198465 25.384357 
L 116.955359 26.129127 
L 117.712253 27.213456 
L 118.469146 28.655315 
L 119.415264 30.949991 
L 120.550604 34.354512 
L 121.875168 39.04682 
L 127.173425 58.813801 
L 128.308766 61.967225 
L 129.444106 64.467851 
L 130.390223 66.063646 
L 131.336341 67.2094 
L 132.093234 67.800306 
L 132.850128 68.097857 
L 133.417799 68.134716 
L 133.985469 67.993308 
L 134.553139 67.67612 
L 135.12081 67.15789 
L 135.877703 66.123749 
L 136.634597 64.672111 
L 137.580714 62.26176 
L 138.526832 59.224932 
L 139.662172 54.862409 
L 141.74363 45.724155 
L 143.446641 38.571011 
L 144.581982 34.616101 
L 145.528099 32.083947 
L 146.284993 30.650685 
L 146.852663 29.950844 
L 147.420334 29.571898 
L 147.988004 29.516571 
L 148.555674 29.780992 
L 149.123345 30.350661 
L 149.691015 31.214645 
L 150.447909 32.78818 
L 151.394026 35.345947 
L 152.529367 39.090363 
L 154.421601 46.261591 
L 156.692282 54.67237 
L 157.827623 58.154963 
L 158.77374 60.490973 
L 159.719857 62.225989 
L 160.476751 63.162304 
L 161.233645 63.696106 
L 161.801315 63.837078 
L 162.368986 63.758244 
L 162.936656 63.469015 
L 163.504326 62.966782 
L 164.26122 61.982658 
L 165.018114 60.641785 
L 165.964231 58.50075 
L 167.099572 55.283034 
L 168.424136 50.705284 
L 170.127147 43.836398 
L 172.965499 32.221765 
L 174.100839 28.577275 
L 174.857733 26.823354 
L 175.425403 25.958952 
L 175.80385 25.631558 
L 176.182297 25.517786 
L 176.560744 25.628917 
L 176.939191 25.983777 
L 177.506861 26.991172 
L 178.074532 28.590971 
L 178.831425 31.67138 
L 179.588319 35.795505 
L 180.534436 42.296765 
L 181.669777 51.781719 
L 183.183565 66.601869 
L 188.671045 122.843225 
L 189.806385 131.298765 
L 190.752502 136.889201 
L 191.69862 141.138252 
L 192.455513 143.590258 
L 193.212407 145.259465 
L 193.780078 146.020689 
L 194.347748 146.399089 
L 194.726195 146.438255 
L 195.104642 146.301118 
L 195.672312 145.759159 
L 196.239982 144.784608 
L 196.807653 143.331979 
L 197.564546 140.592445 
L 198.32144 136.859111 
L 199.078334 132.087827 
L 200.024451 124.670163 
L 201.159792 113.776835 
L 202.862803 94.744005 
L 205.322708 67.469123 
L 206.647272 55.213745 
L 207.782612 46.692365 
L 208.72873 41.063475 
L 209.674847 36.78692 
L 210.431741 34.390535 
L 210.999411 33.23794 
L 211.377858 32.804715 
L 211.756305 32.649652 
L 212.134752 32.783064 
L 212.513199 33.209765 
L 212.891646 33.932796 
L 213.459316 35.578754 
L 214.026986 37.893722 
L 214.78388 41.991161 
L 215.729997 48.596291 
L 216.865338 58.34783 
L 218.379125 73.581971 
L 221.028254 100.507104 
L 222.163594 109.72294 
L 223.109712 115.732748 
L 223.866605 119.310181 
L 224.623499 121.776841 
L 225.191169 122.946444 
L 225.75884 123.620958 
L 226.32651 123.881994 
L 226.89418 123.81525 
L 227.461851 123.496343 
L 228.218745 122.786111 
L 228.975638 121.784907 
L 229.732532 120.43276 
L 230.489426 118.615279 
L 231.24632 116.207735 
L 232.003213 113.034588 
L 232.760107 108.863087 
L 233.517001 103.516565 
L 234.463118 95.180989 
L 235.598459 83.123127 
L 239.193704 42.855315 
L 240.139822 35.414514 
L 240.896715 31.244375 
L 241.464386 29.350929 
L 241.842833 28.732523 
L 242.032056 28.622098 
L 242.22128 28.646154 
L 242.599726 29.105335 
L 242.978173 30.113515 
L 243.545844 32.631899 
L 244.113514 36.327452 
L 244.870408 42.970751 
L 245.816525 53.688035 
L 247.141089 71.785963 
L 253.196239 158.521079 
L 254.710027 177.078711 
L 255.845368 188.604366 
L 256.980708 197.917984 
L 257.926825 204.136551 
L 258.872943 208.935144 
L 259.629836 211.731304 
L 260.38673 213.671715 
L 260.954401 214.639396 
L 261.522071 215.173893 
L 261.900518 215.229386 
L 262.278965 214.98004 
L 262.657412 214.354098 
L 263.035858 213.268784 
L 263.603529 210.64099 
L 264.171199 206.759932 
L 264.928093 199.828783 
L 266.063434 186.89328 
L 267.577221 167.064602 
L 269.847902 134.027862 
L 272.497031 96.214829 
L 273.821595 79.850775 
L 274.767712 70.689576 
L 275.524606 65.428826 
L 276.092276 62.932239 
L 276.470723 62.028623 
L 276.84917 61.758796 
L 277.038393 61.859083 
L 277.41684 62.516386 
L 277.795287 63.75685 
L 278.362958 66.58973 
L 279.119851 71.833364 
L 280.255192 81.707713 
L 283.093544 107.351299 
L 284.039661 113.741685 
L 284.796555 117.637671 
L 285.553448 120.59248 
L 286.499566 123.332026 
L 287.82413 126.282055 
L 291.040928 132.851735 
L 291.419375 133.104643 
L 291.797822 133.084398 
L 292.176269 132.774017 
L 292.743939 131.836303 
L 293.500833 129.986882 
L 294.636174 126.612421 
L 295.393068 123.827827 
L 296.149961 120.12441 
L 296.906855 115.117539 
L 297.852972 107.024628 
L 300.123654 86.401529 
L 304.097346 55.357496 
L 304.665016 52.659697 
L 305.043463 51.509895 
L 305.42191 50.876494 
L 305.800357 50.716703 
L 306.178804 50.97284 
L 306.557251 51.574787 
L 307.124921 53.039584 
L 307.692592 55.149936 
L 308.449485 59.075479 
L 309.206379 64.384078 
L 310.152496 73.053393 
L 311.47706 88.060042 
L 312.801625 105.49193 
L 313.558518 118.246235 
L 314.504636 138.240712 
L 318.478328 229.265833 
L 319.235222 241.799527 
L 319.802892 248.179842 
L 320.181339 250.443408 
L 320.370562 250.928752 
L 320.559786 250.997315 
L 320.749009 250.683454 
L 321.127456 249.130272 
L 321.88435 244.173844 
L 322.830467 238.37843 
L 323.587361 235.311203 
L 324.344255 233.261375 
L 325.668819 230.14635 
L 326.993383 226.196767 
L 327.37183 225.878886 
L 327.750277 225.990881 
L 328.128724 226.20432 
L 328.317947 226.20876 
L 328.50717 226.06202 
L 328.696394 225.701737 
L 329.074841 224.111471 
L 329.453288 221.095141 
L 330.020958 213.702378 
L 330.777852 199.192104 
L 331.913192 171.619508 
L 333.805427 126.366393 
L 335.886885 81.572119 
L 336.833002 65.718864 
L 337.589896 56.07467 
L 338.34679 49.240524 
L 338.91446 45.806749 
L 339.671354 42.726838 
L 340.239024 41.161515 
L 340.617471 40.501146 
L 340.995918 40.243838 
L 341.185141 40.292804 
L 341.563588 40.786192 
L 341.942035 41.845824 
L 342.320482 43.517524 
L 342.888152 47.172826 
L 343.83427 55.352129 
L 346.672621 83.622082 
L 349.321749 112.175332 
L 350.267867 119.056432 
L 353.863112 142.081342 
L 354.430782 144.561793 
L 354.998453 146.135141 
L 355.566123 147.014256 
L 356.51224 147.960363 
L 356.890687 147.981547 
L 357.269134 147.528249 
L 357.647581 146.549288 
L 358.215251 144.257462 
L 358.972145 140.04339 
L 359.918262 133.130545 
L 361.43205 122.330183 
L 362.945837 111.287984 
L 364.081178 102.129132 
L 365.216519 90.654625 
L 368.244094 56.788114 
L 369.947105 37.267257 
L 370.893222 27.798863 
L 371.460892 24.075787 
L 372.028563 21.875921 
L 372.40701 21.278708 
L 372.596233 21.29424 
L 372.785457 21.530201 
L 373.163904 22.594512 
L 373.920797 25.982954 
L 374.677691 30.14439 
L 375.245361 35.257337 
L 375.813032 42.694719 
L 376.569926 55.97466 
L 379.219054 108.376321 
L 381.300512 143.771576 
L 381.868182 151.205971 
L 382.435852 156.19651 
L 383.38197 162.287622 
L 384.51731 168.88444 
L 386.031098 179.317585 
L 387.355662 187.474383 
L 387.923332 189.120993 
L 389.058673 191.93506 
L 389.815567 192.789674 
L 390.194014 193.047851 
L 390.383237 192.994792 
L 390.57246 192.736949 
L 390.950907 191.460415 
L 391.518578 187.868023 
L 392.464695 180.266478 
L 393.221589 171.962126 
L 394.546153 154.059496 
L 397.573728 106.225419 
L 399.465962 78.059617 
L 400.601303 65.754537 
L 403.439655 37.963868 
L 404.385772 32.146621 
L 405.331889 27.940734 
L 406.278006 24.98147 
L 406.845677 23.342929 
L 407.224124 22.918234 
L 407.413347 22.945806 
L 407.791794 23.378166 
L 408.170241 24.341796 
L 408.548688 25.880423 
L 408.927135 28.095944 
L 409.494805 33.076834 
L 410.440922 43.93695 
L 411.387039 58.321954 
L 412.711604 83.047118 
L 415.928402 143.995569 
L 416.496072 150.460502 
L 416.874519 152.651652 
L 417.252966 153.813772 
L 417.631413 154.425129 
L 417.820637 154.482723 
L 418.199083 154.130989 
L 418.57753 153.661664 
L 418.955977 153.544309 
L 419.334424 153.557055 
L 419.712871 153.342726 
L 420.091318 152.839489 
L 420.469765 151.901912 
L 421.605105 147.535253 
L 422.361999 144.276393 
L 422.361999 144.276393 
" clip-path="url(#p8cc20b9f11)" style="fill: none; stroke: #009afa"/>
   </g>
   <g id="matplotlib.axis_1">
    <g id="xtick_1">
     <g id="line2d_2">
      <defs>
       <path id="m9e522f8419" d="M 0 0 
L 0 -2.5 
" style="stroke: #000000; stroke-width: 0.5"/>
      </defs>
      <g>
       <use xlink:href="#m9e522f8419" x="43.915109" y="258.225354" style="stroke: #000000; stroke-width: 0.5"/>
      </g>
     </g>
     <g id="text_1">
      <!-- $0.0$ -->
      <g transform="translate(37.515109 267.804104) scale(0.08 -0.08)">
       <defs>
        <path id="DejaVuSans-30" d="M 2034 4250 
Q 1547 4250 1301 3770 
Q 1056 3291 1056 2328 
Q 1056 1369 1301 889 
Q 1547 409 2034 409 
Q 2525 409 2770 889 
Q 3016 1369 3016 2328 
Q 3016 3291 2770 3770 
Q 2525 4250 2034 4250 
z
M 2034 4750 
Q 2819 4750 3233 4129 
Q 3647 3509 3647 2328 
Q 3647 1150 3233 529 
Q 2819 -91 2034 -91 
Q 1250 -91 836 529 
Q 422 1150 422 2328 
Q 422 3509 836 4129 
Q 1250 4750 2034 4750 
z
" transform="scale(0.015625)"/>
        <path id="DejaVuSans-2e" d="M 684 794 
L 1344 794 
L 1344 0 
L 684 0 
L 684 794 
z
" transform="scale(0.015625)"/>
       </defs>
       <use xlink:href="#DejaVuSans-30" transform="translate(0 0.78125)"/>
       <use xlink:href="#DejaVuSans-2e" transform="translate(63.623047 0.78125)"/>
       <use xlink:href="#DejaVuSans-30" transform="translate(95.410156 0.78125)"/>
      </g>
     </g>
    </g>
    <g id="xtick_2">
     <g id="line2d_3">
      <g>
       <use xlink:href="#m9e522f8419" x="138.526832" y="258.225354" style="stroke: #000000; stroke-width: 0.5"/>
      </g>
     </g>
     <g id="text_2">
      <!-- $0.5$ -->
      <g transform="translate(132.126832 267.804104) scale(0.08 -0.08)">
       <defs>
        <path id="DejaVuSans-35" d="M 691 4666 
L 3169 4666 
L 3169 4134 
L 1269 4134 
L 1269 2991 
Q 1406 3038 1543 3061 
Q 1681 3084 1819 3084 
Q 2600 3084 3056 2656 
Q 3513 2228 3513 1497 
Q 3513 744 3044 326 
Q 2575 -91 1722 -91 
Q 1428 -91 1123 -41 
Q 819 9 494 109 
L 494 744 
Q 775 591 1075 516 
Q 1375 441 1709 441 
Q 2250 441 2565 725 
Q 2881 1009 2881 1497 
Q 2881 1984 2565 2268 
Q 2250 2553 1709 2553 
Q 1456 2553 1204 2497 
Q 953 2441 691 2322 
L 691 4666 
z
" transform="scale(0.015625)"/>
       </defs>
       <use xlink:href="#DejaVuSans-30" transform="translate(0 0.78125)"/>
       <use xlink:href="#DejaVuSans-2e" transform="translate(63.623047 0.78125)"/>
       <use xlink:href="#DejaVuSans-35" transform="translate(95.410156 0.78125)"/>
      </g>
     </g>
    </g>
    <g id="xtick_3">
     <g id="line2d_4">
      <g>
       <use xlink:href="#m9e522f8419" x="233.138554" y="258.225354" style="stroke: #000000; stroke-width: 0.5"/>
      </g>
     </g>
     <g id="text_3">
      <!-- $1.0$ -->
      <g transform="translate(226.738554 267.804104) scale(0.08 -0.08)">
       <defs>
        <path id="DejaVuSans-31" d="M 794 531 
L 1825 531 
L 1825 4091 
L 703 3866 
L 703 4441 
L 1819 4666 
L 2450 4666 
L 2450 531 
L 3481 531 
L 3481 0 
L 794 0 
L 794 531 
z
" transform="scale(0.015625)"/>
       </defs>
       <use xlink:href="#DejaVuSans-31" transform="translate(0 0.78125)"/>
       <use xlink:href="#DejaVuSans-2e" transform="translate(63.623047 0.78125)"/>
       <use xlink:href="#DejaVuSans-30" transform="translate(95.410156 0.78125)"/>
      </g>
     </g>
    </g>
    <g id="xtick_4">
     <g id="line2d_5">
      <g>
       <use xlink:href="#m9e522f8419" x="327.750277" y="258.225354" style="stroke: #000000; stroke-width: 0.5"/>
      </g>
     </g>
     <g id="text_4">
      <!-- $1.5$ -->
      <g transform="translate(321.350277 267.804104) scale(0.08 -0.08)">
       <use xlink:href="#DejaVuSans-31" transform="translate(0 0.09375)"/>
       <use xlink:href="#DejaVuSans-2e" transform="translate(63.623047 0.09375)"/>
       <use xlink:href="#DejaVuSans-35" transform="translate(95.410156 0.09375)"/>
      </g>
     </g>
    </g>
    <g id="xtick_5">
     <g id="line2d_6">
      <g>
       <use xlink:href="#m9e522f8419" x="422.361999" y="258.225354" style="stroke: #000000; stroke-width: 0.5"/>
      </g>
     </g>
     <g id="text_5">
      <!-- $2.0$ -->
      <g transform="translate(415.961999 267.804104) scale(0.08 -0.08)">
       <defs>
        <path id="DejaVuSans-32" d="M 1228 531 
L 3431 531 
L 3431 0 
L 469 0 
L 469 531 
Q 828 903 1448 1529 
Q 2069 2156 2228 2338 
Q 2531 2678 2651 2914 
Q 2772 3150 2772 3378 
Q 2772 3750 2511 3984 
Q 2250 4219 1831 4219 
Q 1534 4219 1204 4116 
Q 875 4013 500 3803 
L 500 4441 
Q 881 4594 1212 4672 
Q 1544 4750 1819 4750 
Q 2544 4750 2975 4387 
Q 3406 4025 3406 3419 
Q 3406 3131 3298 2873 
Q 3191 2616 2906 2266 
Q 2828 2175 2409 1742 
Q 1991 1309 1228 531 
z
" transform="scale(0.015625)"/>
       </defs>
       <use xlink:href="#DejaVuSans-32" transform="translate(0 0.78125)"/>
       <use xlink:href="#DejaVuSans-2e" transform="translate(63.623047 0.78125)"/>
       <use xlink:href="#DejaVuSans-30" transform="translate(95.410156 0.78125)"/>
      </g>
     </g>
    </g>
    <g id="text_6">
     <!-- Time (s) -->
     <g transform="translate(210.776757 281.826136) scale(0.11 -0.11)">
      <defs>
       <path id="DejaVuSans-54" d="M -19 4666 
L 3928 4666 
L 3928 4134 
L 2272 4134 
L 2272 0 
L 1638 0 
L 1638 4134 
L -19 4134 
L -19 4666 
z
" transform="scale(0.015625)"/>
       <path id="DejaVuSans-69" d="M 603 3500 
L 1178 3500 
L 1178 0 
L 603 0 
L 603 3500 
z
M 603 4863 
L 1178 4863 
L 1178 4134 
L 603 4134 
L 603 4863 
z
" transform="scale(0.015625)"/>
       <path id="DejaVuSans-6d" d="M 3328 2828 
Q 3544 3216 3844 3400 
Q 4144 3584 4550 3584 
Q 5097 3584 5394 3201 
Q 5691 2819 5691 2113 
L 5691 0 
L 5113 0 
L 5113 2094 
Q 5113 2597 4934 2840 
Q 4756 3084 4391 3084 
Q 3944 3084 3684 2787 
Q 3425 2491 3425 1978 
L 3425 0 
L 2847 0 
L 2847 2094 
Q 2847 2600 2669 2842 
Q 2491 3084 2119 3084 
Q 1678 3084 1418 2786 
Q 1159 2488 1159 1978 
L 1159 0 
L 581 0 
L 581 3500 
L 1159 3500 
L 1159 2956 
Q 1356 3278 1631 3431 
Q 1906 3584 2284 3584 
Q 2666 3584 2933 3390 
Q 3200 3197 3328 2828 
z
" transform="scale(0.015625)"/>
       <path id="DejaVuSans-65" d="M 3597 1894 
L 3597 1613 
L 953 1613 
Q 991 1019 1311 708 
Q 1631 397 2203 397 
Q 2534 397 2845 478 
Q 3156 559 3463 722 
L 3463 178 
Q 3153 47 2828 -22 
Q 2503 -91 2169 -91 
Q 1331 -91 842 396 
Q 353 884 353 1716 
Q 353 2575 817 3079 
Q 1281 3584 2069 3584 
Q 2775 3584 3186 3129 
Q 3597 2675 3597 1894 
z
M 3022 2063 
Q 3016 2534 2758 2815 
Q 2500 3097 2075 3097 
Q 1594 3097 1305 2825 
Q 1016 2553 972 2059 
L 3022 2063 
z
" transform="scale(0.015625)"/>
       <path id="DejaVuSans-20" transform="scale(0.015625)"/>
       <path id="DejaVuSans-28" d="M 1984 4856 
Q 1566 4138 1362 3434 
Q 1159 2731 1159 2009 
Q 1159 1288 1364 580 
Q 1569 -128 1984 -844 
L 1484 -844 
Q 1016 -109 783 600 
Q 550 1309 550 2009 
Q 550 2706 781 3412 
Q 1013 4119 1484 4856 
L 1984 4856 
z
" transform="scale(0.015625)"/>
       <path id="DejaVuSans-73" d="M 2834 3397 
L 2834 2853 
Q 2591 2978 2328 3040 
Q 2066 3103 1784 3103 
Q 1356 3103 1142 2972 
Q 928 2841 928 2578 
Q 928 2378 1081 2264 
Q 1234 2150 1697 2047 
L 1894 2003 
Q 2506 1872 2764 1633 
Q 3022 1394 3022 966 
Q 3022 478 2636 193 
Q 2250 -91 1575 -91 
Q 1294 -91 989 -36 
Q 684 19 347 128 
L 347 722 
Q 666 556 975 473 
Q 1284 391 1588 391 
Q 1994 391 2212 530 
Q 2431 669 2431 922 
Q 2431 1156 2273 1281 
Q 2116 1406 1581 1522 
L 1381 1569 
Q 847 1681 609 1914 
Q 372 2147 372 2553 
Q 372 3047 722 3315 
Q 1072 3584 1716 3584 
Q 2034 3584 2315 3537 
Q 2597 3491 2834 3397 
z
" transform="scale(0.015625)"/>
       <path id="DejaVuSans-29" d="M 513 4856 
L 1013 4856 
Q 1481 4119 1714 3412 
Q 1947 2706 1947 2009 
Q 1947 1309 1714 600 
Q 1481 -109 1013 -844 
L 513 -844 
Q 928 -128 1133 580 
Q 1338 1288 1338 2009 
Q 1338 2731 1133 3434 
Q 928 4138 513 4856 
z
" transform="scale(0.015625)"/>
      </defs>
      <use xlink:href="#DejaVuSans-54"/>
      <use xlink:href="#DejaVuSans-69" x="57.958984"/>
      <use xlink:href="#DejaVuSans-6d" x="85.742188"/>
      <use xlink:href="#DejaVuSans-65" x="183.154297"/>
      <use xlink:href="#DejaVuSans-20" x="244.677734"/>
      <use xlink:href="#DejaVuSans-28" x="276.464844"/>
      <use xlink:href="#DejaVuSans-73" x="315.478516"/>
      <use xlink:href="#DejaVuSans-29" x="367.578125"/>
     </g>
    </g>
   </g>
   <g id="matplotlib.axis_2">
    <g id="ytick_1">
     <g id="line2d_7">
      <defs>
       <path id="mb290c434d2" d="M 0 0 
L 2.5 0 
" style="stroke: #000000; stroke-width: 0.5"/>
      </defs>
      <g>
       <use xlink:href="#mb290c434d2" x="43.915109" y="214.520201" style="stroke: #000000; stroke-width: 0.5"/>
      </g>
     </g>
     <g id="text_7">
      <!-- $-0.6$ -->
      <g transform="translate(20.975109 217.559576) scale(0.08 -0.08)">
       <defs>
        <path id="DejaVuSans-2212" d="M 678 2272 
L 4684 2272 
L 4684 1741 
L 678 1741 
L 678 2272 
z
" transform="scale(0.015625)"/>
        <path id="DejaVuSans-36" d="M 2113 2584 
Q 1688 2584 1439 2293 
Q 1191 2003 1191 1497 
Q 1191 994 1439 701 
Q 1688 409 2113 409 
Q 2538 409 2786 701 
Q 3034 994 3034 1497 
Q 3034 2003 2786 2293 
Q 2538 2584 2113 2584 
z
M 3366 4563 
L 3366 3988 
Q 3128 4100 2886 4159 
Q 2644 4219 2406 4219 
Q 1781 4219 1451 3797 
Q 1122 3375 1075 2522 
Q 1259 2794 1537 2939 
Q 1816 3084 2150 3084 
Q 2853 3084 3261 2657 
Q 3669 2231 3669 1497 
Q 3669 778 3244 343 
Q 2819 -91 2113 -91 
Q 1303 -91 875 529 
Q 447 1150 447 2328 
Q 447 3434 972 4092 
Q 1497 4750 2381 4750 
Q 2619 4750 2861 4703 
Q 3103 4656 3366 4563 
z
" transform="scale(0.015625)"/>
       </defs>
       <use xlink:href="#DejaVuSans-2212" transform="translate(0 0.78125)"/>
       <use xlink:href="#DejaVuSans-30" transform="translate(83.789062 0.78125)"/>
       <use xlink:href="#DejaVuSans-2e" transform="translate(147.412109 0.78125)"/>
       <use xlink:href="#DejaVuSans-36" transform="translate(179.199219 0.78125)"/>
      </g>
     </g>
    </g>
    <g id="ytick_2">
     <g id="line2d_8">
      <g>
       <use xlink:href="#mb290c434d2" x="43.915109" y="146.367695" style="stroke: #000000; stroke-width: 0.5"/>
      </g>
     </g>
     <g id="text_8">
      <!-- $-0.4$ -->
      <g transform="translate(20.975109 149.40707) scale(0.08 -0.08)">
       <defs>
        <path id="DejaVuSans-34" d="M 2419 4116 
L 825 1625 
L 2419 1625 
L 2419 4116 
z
M 2253 4666 
L 3047 4666 
L 3047 1625 
L 3713 1625 
L 3713 1100 
L 3047 1100 
L 3047 0 
L 2419 0 
L 2419 1100 
L 313 1100 
L 313 1709 
L 2253 4666 
z
" transform="scale(0.015625)"/>
       </defs>
       <use xlink:href="#DejaVuSans-2212" transform="translate(0 0.78125)"/>
       <use xlink:href="#DejaVuSans-30" transform="translate(83.789062 0.78125)"/>
       <use xlink:href="#DejaVuSans-2e" transform="translate(147.412109 0.78125)"/>
       <use xlink:href="#DejaVuSans-34" transform="translate(179.199219 0.78125)"/>
      </g>
     </g>
    </g>
    <g id="ytick_3">
     <g id="line2d_9">
      <g>
       <use xlink:href="#mb290c434d2" x="43.915109" y="78.21519" style="stroke: #000000; stroke-width: 0.5"/>
      </g>
     </g>
     <g id="text_9">
      <!-- $-0.2$ -->
      <g transform="translate(21.375109 81.254565) scale(0.08 -0.08)">
       <use xlink:href="#DejaVuSans-2212" transform="translate(0 0.78125)"/>
       <use xlink:href="#DejaVuSans-30" transform="translate(83.789062 0.78125)"/>
       <use xlink:href="#DejaVuSans-2e" transform="translate(147.412109 0.78125)"/>
       <use xlink:href="#DejaVuSans-32" transform="translate(173.699219 0.78125)"/>
      </g>
     </g>
    </g>
    <g id="ytick_4">
     <g id="line2d_10">
      <g>
       <use xlink:href="#mb290c434d2" x="43.915109" y="10.062685" style="stroke: #000000; stroke-width: 0.5"/>
      </g>
     </g>
     <g id="text_10">
      <!-- $0.0$ -->
      <g transform="translate(27.615109 13.10206) scale(0.08 -0.08)">
       <use xlink:href="#DejaVuSans-30" transform="translate(0 0.78125)"/>
       <use xlink:href="#DejaVuSans-2e" transform="translate(63.623047 0.78125)"/>
       <use xlink:href="#DejaVuSans-30" transform="translate(95.410156 0.78125)"/>
      </g>
     </g>
    </g>
    <g id="text_11">
     <!-- $u_x$ ($m$) -->
     <g transform="translate(14.687453 147.855) rotate(-90) scale(0.11 -0.11)">
      <defs>
       <path id="DejaVuSans-Oblique-75" d="M 428 1388 
L 838 3500 
L 1416 3500 
L 1006 1409 
Q 975 1256 961 1147 
Q 947 1038 947 966 
Q 947 700 1109 554 
Q 1272 409 1569 409 
Q 2031 409 2368 721 
Q 2706 1034 2809 1563 
L 3194 3500 
L 3769 3500 
L 3091 0 
L 2516 0 
L 2631 550 
Q 2388 244 2052 76 
Q 1716 -91 1338 -91 
Q 878 -91 622 161 
Q 366 413 366 863 
Q 366 956 381 1097 
Q 397 1238 428 1388 
z
" transform="scale(0.015625)"/>
       <path id="DejaVuSans-Oblique-78" d="M 3841 3500 
L 2234 1784 
L 3219 0 
L 2559 0 
L 1819 1388 
L 531 0 
L -166 0 
L 1556 1844 
L 641 3500 
L 1300 3500 
L 1972 2234 
L 3144 3500 
L 3841 3500 
z
" transform="scale(0.015625)"/>
       <path id="DejaVuSans-Oblique-6d" d="M 5747 2113 
L 5338 0 
L 4763 0 
L 5166 2094 
Q 5191 2228 5203 2325 
Q 5216 2422 5216 2491 
Q 5216 2772 5059 2928 
Q 4903 3084 4622 3084 
Q 4203 3084 3875 2770 
Q 3547 2456 3450 1953 
L 3066 0 
L 2491 0 
L 2900 2094 
Q 2925 2209 2937 2307 
Q 2950 2406 2950 2484 
Q 2950 2769 2794 2926 
Q 2638 3084 2363 3084 
Q 1938 3084 1609 2770 
Q 1281 2456 1184 1953 
L 800 0 
L 225 0 
L 909 3500 
L 1484 3500 
L 1375 2956 
Q 1609 3263 1923 3423 
Q 2238 3584 2597 3584 
Q 2978 3584 3223 3384 
Q 3469 3184 3519 2828 
Q 3781 3197 4126 3390 
Q 4472 3584 4856 3584 
Q 5306 3584 5551 3325 
Q 5797 3066 5797 2591 
Q 5797 2488 5784 2364 
Q 5772 2241 5747 2113 
z
" transform="scale(0.015625)"/>
      </defs>
      <use xlink:href="#DejaVuSans-Oblique-75" transform="translate(0 0.125)"/>
      <use xlink:href="#DejaVuSans-Oblique-78" transform="translate(63.378906 -16.28125) scale(0.7)"/>
      <use xlink:href="#DejaVuSans-20" transform="translate(107.539062 0.125)"/>
      <use xlink:href="#DejaVuSans-28" transform="translate(139.326172 0.125)"/>
      <use xlink:href="#DejaVuSans-Oblique-6d" transform="translate(178.339844 0.125)"/>
      <use xlink:href="#DejaVuSans-29" transform="translate(275.751953 0.125)"/>
     </g>
    </g>
   </g>
   <g id="line2d_11">
    <path d="M 43.915109 10.062685 
L 49.364039 10.172793 
L 51.899104 10.447338 
L 53.66867 10.841913 
L 55.217673 11.421396 
L 56.709043 12.218178 
L 58.102367 13.213459 
L 59.824549 14.726353 
L 61.359375 16.351143 
L 62.990203 18.413351 
L 64.70084 20.935062 
L 66.768961 24.452601 
L 70.326011 30.510845 
L 72.093789 33.094109 
L 73.830201 35.260387 
L 75.319284 36.765466 
L 76.607812 37.752013 
L 77.987935 38.544655 
L 79.174165 39.008683 
L 80.483607 39.282327 
L 81.714558 39.336275 
L 82.807942 39.1764 
L 83.826739 38.8194 
L 85.012362 38.167816 
L 86.40088 37.162344 
L 91.206469 33.399298 
L 92.344334 32.885175 
L 93.39668 32.61264 
L 94.716605 32.51395 
L 96.5445 32.645513 
L 99.096395 32.847344 
L 100.289495 32.722951 
L 101.587749 32.364769 
L 102.98875 31.717018 
L 104.771985 30.602919 
L 112.927289 25.109316 
L 114.00913 24.788405 
L 114.898718 24.789781 
L 115.583564 25.000486 
L 116.26841 25.435713 
L 116.953257 26.124919 
L 117.638103 27.09659 
L 118.551231 28.841369 
L 119.464359 31.090015 
L 120.697359 34.849614 
L 122.156038 40.135928 
L 126.838609 57.776833 
L 128.105927 61.445435 
L 129.172574 63.928215 
L 130.264218 65.879728 
L 131.031532 66.88618 
L 131.832895 67.624047 
L 132.59238 68.024184 
L 133.354043 68.146551 
L 133.898582 68.044365 
L 134.456259 67.769495 
L 135.020854 67.284106 
L 135.633699 66.51361 
L 136.251269 65.464646 
L 137.177624 63.371615 
L 138.10398 60.658374 
L 139.33912 56.158288 
L 141.027419 48.901777 
L 143.509574 38.313348 
L 144.675189 34.318734 
L 145.58599 31.950315 
L 146.327553 30.592118 
L 146.92029 29.891657 
L 147.476336 29.553804 
L 147.942552 29.510076 
L 148.457089 29.712067 
L 149.034164 30.245095 
L 149.653369 31.155736 
L 150.384142 32.645893 
L 151.328928 35.152847 
L 152.535904 39.112885 
L 154.457228 46.402197 
L 156.631329 54.472386 
L 157.777823 58.026498 
L 158.749806 60.446701 
L 159.531243 61.938757 
L 160.391234 63.085247 
L 160.988997 63.576562 
L 161.58676 63.819217 
L 162.184523 63.81765 
L 162.84587 63.534223 
L 163.570801 62.893733 
L 164.295733 61.92215 
L 165.302128 60.051928 
L 166.38709 57.38517 
L 167.472052 54.078777 
L 168.918668 48.798556 
L 171.356027 38.626285 
L 173.123584 31.641809 
L 174.173654 28.374944 
L 174.924216 26.697016 
L 175.54032 25.829042 
L 175.956595 25.543992 
L 176.353695 25.519625 
L 176.753232 25.76012 
L 177.201189 26.366218 
L 177.682272 27.420179 
L 178.262399 29.268317 
L 178.931672 32.176388 
L 179.774358 36.970834 
L 180.701312 43.585084 
L 181.885008 53.780522 
L 183.405372 68.947347 
L 188.489573 121.349336 
L 189.69705 130.570154 
L 190.739445 136.814271 
L 191.611535 140.754569 
L 192.464813 143.537988 
L 193.230989 145.208958 
L 193.847105 146.038996 
L 194.312621 146.365702 
L 194.846956 146.42303 
L 195.414357 146.085476 
L 196.014824 145.25817 
L 196.649269 143.81006 
L 197.283713 141.738971 
L 197.918158 138.984471 
L 198.869825 133.518369 
L 199.925905 125.487253 
L 200.99188 115.420195 
L 202.509209 98.730235 
L 205.337011 67.296232 
L 206.692481 54.857835 
L 207.80466 46.585968 
L 208.799111 40.744066 
L 209.663621 36.872473 
L 210.382775 34.551785 
L 210.95483 33.337368 
L 211.399994 32.808485 
L 211.799972 32.660557 
L 212.132716 32.780536 
L 212.51975 33.20909 
L 212.939793 34.028413 
L 213.463974 35.571925 
L 214.094263 38.192983 
L 214.837156 42.296015 
L 215.727655 48.538414 
L 216.763584 57.378407 
L 218.126656 70.949543 
L 221.133037 101.520136 
L 222.195455 110.032095 
L 223.200584 116.265769 
L 224.024926 119.916589 
L 224.695963 121.928487 
L 225.386808 123.188612 
L 225.875883 123.657141 
L 226.372379 123.830559 
L 226.89392 123.75829 
L 227.415461 123.479564 
L 228.279737 122.68018 
L 229.190594 121.416633 
L 229.818305 120.231849 
L 230.449432 118.710295 
L 231.080558 116.781454 
L 231.711684 114.340738 
L 232.342811 111.259494 
L 233.2895 105.190035 
L 234.236189 97.274127 
L 235.498442 84.1696 
L 239.259251 42.15668 
L 240.151501 35.244401 
L 240.819696 31.531425 
L 241.365049 29.582657 
L 241.77432 28.813055 
L 242.096559 28.639205 
L 242.325214 28.750962 
L 242.62215 29.190344 
L 242.964569 30.109796 
L 243.424812 32.040006 
L 244.004414 35.587442 
L 244.734447 41.735208 
L 245.633267 51.562116 
L 246.828856 67.414306 
L 249.382365 105.271846 
L 252.076419 143.475746 
L 254.275236 172.137566 
L 255.5527 185.923343 
L 256.652825 195.595633 
L 257.699911 202.983933 
L 258.578629 207.762394 
L 259.465054 211.273332 
L 260.239707 213.402663 
L 260.831497 214.522282 
L 261.423286 215.179091 
L 261.817813 215.297242 
L 262.152699 215.13915 
L 262.559264 214.544054 
L 263.001544 213.291514 
L 263.447303 211.310554 
L 264.005949 207.774362 
L 264.686344 201.993194 
L 265.636205 191.89561 
L 267.031023 174.3807 
L 268.963776 146.946488 
L 272.832778 91.506768 
L 274.046665 77.215144 
L 274.975384 68.792209 
L 275.634929 64.609146 
L 276.12017 62.662808 
L 276.483359 61.883627 
L 276.782451 61.688011 
L 277.024524 61.818968 
L 277.278269 62.223126 
L 277.630057 63.212525 
L 278.094886 65.220673 
L 278.765355 69.307087 
L 279.645058 76.252834 
L 281.130471 90.082038 
L 282.863497 105.635838 
L 283.85322 112.595517 
L 284.658392 116.953422 
L 285.487134 120.359667 
L 286.375495 123.041225 
L 287.453362 125.454452 
L 289.171112 129.126933 
L 290.675651 132.453381 
L 291.154714 133.022295 
L 291.547349 133.164629 
L 291.912931 133.023596 
L 292.321409 132.580121 
L 292.92265 131.483486 
L 293.793955 129.312886 
L 294.821081 126.175355 
L 295.545423 123.336872 
L 296.200903 119.948531 
L 296.904861 115.145477 
L 297.905745 106.425648 
L 300.130463 86.269826 
L 303.972184 56.135435 
L 304.590114 53.062763 
L 305.046174 51.660786 
L 305.400262 51.083894 
L 305.75435 50.920667 
L 306.108438 51.114451 
L 306.462527 51.608303 
L 307.010472 52.875496 
L 307.634245 55.017543 
L 308.287818 58.122637 
L 309.029544 62.912199 
L 309.818682 69.627195 
L 310.872718 80.806455 
L 312.339364 98.516734 
L 313.21722 111.905844 
L 314.106508 129.542375 
L 315.516015 163.192167 
L 317.607743 212.130644 
L 318.872086 237.046365 
L 319.49271 245.870041 
L 319.95158 249.694438 
L 320.229133 250.719568 
L 320.419524 250.878722 
L 320.620037 250.617909 
L 320.923553 249.544304 
L 321.449831 246.495352 
L 322.737747 238.551514 
L 323.409596 235.867167 
L 324.001831 234.298054 
L 325.378895 231.179717 
L 326.775603 226.651539 
L 327.099459 226.362398 
L 327.411246 226.447355 
L 328.313739 227.10414 
L 328.506637 226.90299 
L 328.744872 226.295027 
L 329.042666 224.849654 
L 329.403588 221.915255 
L 329.896235 215.677433 
L 330.51989 204.409133 
L 331.455741 182.647102 
L 333.877795 124.791247 
L 335.844849 81.82732 
L 336.755711 66.465012 
L 337.555818 56.395854 
L 338.240169 50.439441 
L 338.903965 46.417494 
L 339.688135 42.953787 
L 340.28766 41.150451 
L 340.716408 40.453453 
L 341.020041 40.304662 
L 341.254923 40.425844 
L 341.521467 40.857526 
L 341.874113 41.943891 
L 342.333931 44.17035 
L 342.985882 48.6105 
L 343.851886 56.205372 
L 346.855991 85.793727 
L 348.897279 108.742916 
L 349.898622 116.545647 
L 351.19217 124.773058 
L 352.206319 131.735804 
L 353.500236 140.712057 
L 354.141106 143.660928 
L 354.694867 145.313081 
L 355.462915 146.856431 
L 356.110042 147.747184 
L 356.506821 148.015513 
L 356.774174 148.026353 
L 357.041527 147.864967 
L 357.30888 147.497362 
L 357.725531 146.452548 
L 358.270953 144.159313 
L 358.892269 140.342624 
L 363.894183 104.222808 
L 365.076543 92.032742 
L 368.319935 55.610701 
L 370.772992 28.03461 
L 371.335552 24.403146 
L 371.78762 22.550322 
L 372.135032 21.831945 
L 372.36664 21.753136 
L 372.598248 21.988078 
L 372.94566 22.777098 
L 373.999852 26.027846 
L 374.365197 27.789425 
L 374.853913 31.43579 
L 375.465863 38.095412 
L 376.062698 47.215644 
L 376.852629 63.391001 
L 378.038665 87.372612 
L 381.303697 144.622136 
L 381.95634 151.577557 
L 382.888287 159.033474 
L 385.977539 180.380965 
L 386.674559 184.71571 
L 387.920967 190.038202 
L 388.516185 191.818273 
L 389.2792 193.378963 
L 389.661145 193.827202 
L 389.915775 193.801128 
L 390.170406 193.405924 
L 390.552351 192.195167 
L 391.316241 188.81155 
L 391.825502 185.548974 
L 392.637163 178.333605 
L 393.416494 169.829143 
L 394.476116 155.107592 
L 396.938903 116.939855 
L 398.919547 85.428099 
L 399.869269 74.333311 
L 403.473981 37.485835 
L 404.160283 33.297131 
L 405.705238 26.142867 
L 406.844907 22.186703 
L 407.104239 21.841682 
L 407.276178 21.838946 
L 407.480582 22.053687 
L 407.774837 22.75012 
L 408.211206 24.534408 
L 408.978066 28.817639 
L 409.498451 33.254041 
L 410.193254 41.194214 
L 411.24721 56.549021 
L 412.586693 80.44349 
L 413.763187 104.787847 
L 415.090221 131.637812 
L 415.892119 144.269943 
L 416.406957 148.743558 
L 416.96067 151.335059 
L 417.424471 152.513201 
L 419.354407 155.385561 
L 419.524405 155.333421 
L 419.738685 154.917319 
L 420.113583 153.442447 
L 421.853956 145.993727 
L 422.361999 144.564727 
L 422.361999 144.564727 
" clip-path="url(#p8cc20b9f11)" style="fill: none; stroke: #e36f47"/>
   </g>
   <g id="patch_3">
    <path d="M 43.915109 258.225354 
L 43.915109 2.834646 
" style="fill: none; stroke: #000000; stroke-linejoin: miter; stroke-linecap: square"/>
   </g>
   <g id="patch_4">
    <path d="M 43.915109 258.225354 
L 422.361999 258.225354 
" style="fill: none; stroke: #000000; stroke-linejoin: miter; stroke-linecap: square"/>
   </g>
   <g id="line2d_12">
    <path d="M 43.915109 10.062685 
L 49.377964 10.173667 
L 51.892107 10.44611 
L 53.66569 10.840869 
L 55.2076 11.416459 
L 56.697709 12.211209 
L 58.117291 13.225303 
L 59.83947 14.740155 
L 61.440047 16.444897 
L 63.062622 18.513197 
L 64.795484 21.084327 
L 66.857002 24.607357 
L 70.447341 30.701951 
L 72.129026 33.141862 
L 73.955366 35.396377 
L 75.382256 36.819597 
L 76.665105 37.79129 
L 78.021818 38.558443 
L 79.238943 39.02836 
L 80.431513 39.276309 
L 81.813153 39.326429 
L 82.854844 39.161568 
L 83.921221 38.77714 
L 85.09352 38.117769 
L 86.693279 36.923271 
L 90.639168 33.726577 
L 92.025265 33.005569 
L 93.191256 32.642128 
L 94.377252 32.501375 
L 95.876342 32.56433 
L 99.299101 32.837662 
L 100.621285 32.666378 
L 101.989197 32.220328 
L 103.524021 31.430492 
L 105.564765 30.061592 
L 111.732596 25.726792 
L 113.057248 25.065672 
L 114.059963 24.797527 
L 114.879499 24.80573 
L 115.480782 24.978885 
L 116.348862 25.527369 
L 116.959124 26.151973 
L 117.896349 27.535705 
L 118.770776 29.313723 
L 119.838391 32.110621 
L 121.00735 35.859523 
L 122.603678 41.790606 
L 126.148043 55.410957 
L 127.627639 60.115153 
L 128.791064 63.110945 
L 129.757232 65.066049 
L 130.571019 66.331342 
L 131.434477 67.303648 
L 132.275042 67.891881 
L 133.102486 68.119833 
L 133.636693 68.073315 
L 134.223133 67.837406 
L 134.828183 67.380408 
L 135.469628 66.645623 
L 136.121287 65.620235 
L 137.065351 63.608399 
L 137.943897 61.16215 
L 139.026572 57.427616 
L 140.47513 51.475196 
L 143.703004 37.683581 
L 144.683294 34.3693 
L 145.601201 31.956426 
L 146.262644 30.693635 
L 147.035079 29.765489 
L 147.519825 29.493211 
L 148.041971 29.468692 
L 148.598858 29.744351 
L 149.12794 30.284404 
L 149.739927 31.227771 
L 150.591163 33.058409 
L 151.444843 35.420383 
L 152.672991 39.533314 
L 155.193723 49.18712 
L 156.811624 55.000433 
L 158.147147 58.93061 
L 159.194598 61.258086 
L 159.989459 62.52679 
L 160.813293 63.373934 
L 161.473882 63.710952 
L 162.074804 63.758681 
L 162.549996 63.625943 
L 163.288861 63.127922 
L 164.088138 62.199876 
L 164.82604 60.993468 
L 165.844138 58.794678 
L 166.873413 55.96975 
L 168.209643 51.481676 
L 169.847046 44.997394 
L 173.091606 31.781577 
L 173.939557 29.07671 
L 174.815116 26.97323 
L 175.340061 26.130982 
L 175.924985 25.626307 
L 176.282619 25.567268 
L 176.581593 25.674536 
L 176.977192 26.048073 
L 177.350254 26.652534 
L 177.870436 27.919951 
L 178.358067 29.566682 
L 179.131336 33.088169 
L 179.957102 38.032522 
L 181.06742 46.409355 
L 182.256403 57.165311 
L 184.091607 76.0983 
L 187.598927 112.914863 
L 188.946006 124.718975 
L 189.986239 132.237011 
L 190.907494 137.573334 
L 191.837659 141.656333 
L 192.56313 143.949967 
L 193.229542 145.404456 
L 193.814167 146.193415 
L 194.265682 146.502704 
L 194.60693 146.565519 
L 195.005229 146.452325 
L 195.424728 146.112583 
L 196.005825 145.255796 
L 196.558119 144.003889 
L 197.247925 141.797547 
L 198.069969 138.160075 
L 198.975157 132.794332 
L 199.873007 126.017726 
L 200.847421 117.09492 
L 202.302661 101.411857 
L 205.633622 64.486943 
L 206.889846 53.240419 
L 207.857788 46.141828 
L 208.741081 40.921827 
L 209.694393 36.650072 
L 210.46959 34.252986 
L 211.112652 33.050212 
L 211.58916 32.653939 
L 211.955196 32.652097 
L 212.32831 32.930521 
L 212.727844 33.549748 
L 213.150025 34.569382 
L 213.748407 36.657249 
L 214.476289 40.190309 
L 215.312561 45.51043 
L 216.378613 53.989271 
L 217.708366 66.611638 
L 221.627235 105.506383 
L 222.606623 112.594543 
L 223.430054 117.23249 
L 224.161513 120.289901 
L 224.854534 122.277088 
L 225.437416 123.318415 
L 225.999438 123.85094 
L 226.433837 123.995719 
L 226.904662 123.937192 
L 227.524636 123.589269 
L 228.305528 122.820451 
L 229.057646 121.78113 
L 229.785359 120.445656 
L 230.551348 118.563302 
L 231.396225 115.738251 
L 232.179045 112.221841 
L 232.978939 107.505074 
L 233.81211 101.203554 
L 234.806663 91.864166 
L 236.107952 77.362314 
L 238.748842 47.347704 
L 239.840277 37.842508 
L 240.661885 32.620261 
L 241.224398 30.226431 
L 241.642712 29.14598 
L 241.940489 28.762737 
L 242.243378 28.712932 
L 242.541089 29.003889 
L 242.878323 29.743618 
L 243.372017 31.608938 
L 243.877823 34.463882 
L 244.648551 40.552271 
L 245.463949 49.046378 
L 246.575694 63.269673 
L 248.398434 90.019396 
L 251.548459 136.121614 
L 254.022678 168.884634 
L 255.347231 183.670065 
L 256.495574 193.987809 
L 257.598703 201.842916 
L 258.562105 207.243549 
L 259.350011 210.646165 
L 260.173763 213.218646 
L 260.844971 214.602566 
L 261.360574 215.225161 
L 261.74729 215.404844 
L 262.03809 215.346405 
L 262.327025 215.094449 
L 262.653142 214.53907 
L 263.089304 213.274712 
L 263.574152 211.069749 
L 264.115389 207.544501 
L 264.768361 201.869175 
L 265.698564 191.734097 
L 267.199656 172.701636 
L 269.218733 144.196599 
L 272.876171 91.930879 
L 274.084499 77.589618 
L 274.948478 69.632857 
L 275.550501 65.602823 
L 276.029478 63.403954 
L 276.523562 62.134095 
L 276.864386 61.866566 
L 277.139991 62.014165 
L 277.444102 62.547381 
L 277.883171 63.971379 
L 278.515789 67.243349 
L 279.226841 72.307964 
L 280.396393 82.641796 
L 282.895455 105.379825 
L 284.007323 113.181489 
L 284.812525 117.445473 
L 285.710511 120.901774 
L 286.646784 123.462201 
L 290.110303 131.286087 
L 290.834235 132.435612 
L 291.227937 132.771534 
L 291.638381 132.854782 
L 291.926699 132.738707 
L 292.360198 132.292667 
L 292.880374 131.363338 
L 293.532342 129.730886 
L 294.58548 126.471453 
L 295.468183 123.170002 
L 296.215004 119.489771 
L 297.018483 114.14254 
L 297.990297 105.82226 
L 300.480762 83.542005 
L 304.344497 54.025137 
L 304.890115 51.788567 
L 305.36094 50.761839 
L 305.733332 50.512616 
L 305.98867 50.598042 
L 306.35322 51.033061 
L 306.857023 52.143418 
L 307.442295 54.070236 
L 308.028044 56.689429 
L 308.710237 60.747733 
L 309.450356 66.505392 
L 310.403107 75.857664 
L 311.73908 91.469062 
L 312.884701 107.067976 
L 313.738138 121.728105 
L 314.756302 143.520476 
L 318.454609 227.651457 
L 319.28825 241.088373 
L 319.830494 246.923666 
L 320.258573 249.383568 
L 320.460915 249.854761 
L 320.666974 249.902153 
L 320.860952 249.583862 
L 321.20458 248.311562 
L 321.805639 244.761958 
L 322.936148 237.931334 
L 323.602254 235.152018 
L 324.32387 233.032161 
L 326.167469 228.108755 
L 326.873804 226.194705 
L 327.287569 225.601318 
L 327.626488 225.449432 
L 328.324664 225.340224 
L 328.566499 225.012373 
L 328.82653 224.280719 
L 329.118846 222.834877 
L 329.486692 219.872434 
L 329.969431 213.858101 
L 330.614432 202.330617 
L 331.52628 181.426241 
L 334.258822 116.269821 
L 335.962103 80.680198 
L 336.975779 64.170094 
L 337.80435 54.198546 
L 338.443078 48.688884 
L 339.125363 44.614216 
L 339.723336 42.200408 
L 340.29813 40.678221 
L 340.717877 40.082626 
L 341.000019 39.970844 
L 341.240321 40.079418 
L 341.517984 40.456939 
L 341.901543 41.463796 
L 342.370153 43.525791 
L 342.965573 47.42465 
L 343.801413 54.670166 
L 346.122161 77.914638 
L 347.512666 93.418399 
L 348.914807 108.514035 
L 349.8199 115.909561 
L 351.095924 124.262507 
L 354.387701 143.679569 
L 355.007451 145.566973 
L 355.586166 146.642335 
L 356.309134 147.517374 
L 356.714556 147.708045 
L 356.967659 147.61946 
L 357.281812 147.219404 
L 357.666299 146.259676 
L 358.160245 144.324984 
L 358.81566 140.71881 
L 359.776904 133.849081 
L 364.553998 96.467393 
L 366.085945 80.101859 
L 370.493219 31.337986 
L 371.199674 25.74336 
L 371.752729 22.978657 
L 372.200613 21.73352 
L 372.469016 21.488366 
L 372.665353 21.573053 
L 372.933596 22.037481 
L 373.353584 23.403322 
L 374.189228 27.12982 
L 374.692397 30.152734 
L 375.202954 34.708515 
L 375.808845 42.439186 
L 376.478058 53.972195 
L 380.421573 129.519238 
L 381.516803 146.753845 
L 382.134366 153.19123 
L 382.831216 158.207634 
L 383.714764 162.913051 
L 384.450755 167.23642 
L 387.068437 184.149695 
L 387.783165 186.941474 
L 388.499789 189.085778 
L 389.278362 190.597701 
L 389.985299 191.694345 
L 390.213216 191.759172 
L 390.419501 191.574893 
L 390.675467 190.974532 
L 391.062292 189.353783 
L 391.719206 185.384713 
L 392.411174 179.747574 
L 393.299681 170.329746 
L 394.200215 158.459273 
L 395.938713 131.544586 
L 399.023758 82.527934 
L 399.971552 71.068441 
L 401.832292 52.346572 
L 403.014007 40.949536 
L 403.829476 35.03317 
L 404.561936 31.335914 
L 405.647553 27.197757 
L 406.372839 24.925689 
L 406.932399 23.915954 
L 407.32142 23.560307 
L 407.524882 23.58765 
L 407.761785 23.874888 
L 408.028086 24.560564 
L 408.412924 26.235633 
L 408.955854 29.750477 
L 409.612994 35.447279 
L 410.317275 43.748791 
L 411.24297 57.59537 
L 412.278794 76.491979 
L 415.853639 144.996885 
L 416.473138 151.8689 
L 416.891565 154.307278 
L 417.209004 155.045035 
L 417.544227 155.287766 
L 418.128315 155.384772 
L 418.542535 155.222578 
L 419.745536 154.318504 
L 420.085244 153.700415 
L 420.437305 152.523892 
L 421.271183 148.495584 
L 422.361999 144.103119 
L 422.361999 144.103119 
" clip-path="url(#p8cc20b9f11)" style="fill: none; stroke: #3ea44e"/>
   </g>
   <g id="legend_1">
    <g id="patch_5">
     <path d="M 332.945749 50.862146 
L 418.361999 50.862146 
L 418.361999 6.834646 
L 332.945749 6.834646 
z
" style="fill: #ffffff; stroke: #000000; stroke-linejoin: miter"/>
    </g>
    <g id="line2d_13">
     <path d="M 339.345749 16.513396 
L 347.345749 16.513396 
L 355.345749 16.513396 
" style="fill: none; stroke: #009afa; stroke-linejoin: miter"/>
    </g>
    <g id="text_12">
     <!-- GXBeam -->
     <g transform="translate(361.745749 19.313396) scale(0.08 -0.08)">
      <defs>
       <path id="DejaVuSans-47" d="M 3809 666 
L 3809 1919 
L 2778 1919 
L 2778 2438 
L 4434 2438 
L 4434 434 
Q 4069 175 3628 42 
Q 3188 -91 2688 -91 
Q 1594 -91 976 548 
Q 359 1188 359 2328 
Q 359 3472 976 4111 
Q 1594 4750 2688 4750 
Q 3144 4750 3555 4637 
Q 3966 4525 4313 4306 
L 4313 3634 
Q 3963 3931 3569 4081 
Q 3175 4231 2741 4231 
Q 1884 4231 1454 3753 
Q 1025 3275 1025 2328 
Q 1025 1384 1454 906 
Q 1884 428 2741 428 
Q 3075 428 3337 486 
Q 3600 544 3809 666 
z
" transform="scale(0.015625)"/>
       <path id="DejaVuSans-58" d="M 403 4666 
L 1081 4666 
L 2241 2931 
L 3406 4666 
L 4084 4666 
L 2584 2425 
L 4184 0 
L 3506 0 
L 2194 1984 
L 872 0 
L 191 0 
L 1856 2491 
L 403 4666 
z
" transform="scale(0.015625)"/>
       <path id="DejaVuSans-42" d="M 1259 2228 
L 1259 519 
L 2272 519 
Q 2781 519 3026 730 
Q 3272 941 3272 1375 
Q 3272 1813 3026 2020 
Q 2781 2228 2272 2228 
L 1259 2228 
z
M 1259 4147 
L 1259 2741 
L 2194 2741 
Q 2656 2741 2882 2914 
Q 3109 3088 3109 3444 
Q 3109 3797 2882 3972 
Q 2656 4147 2194 4147 
L 1259 4147 
z
M 628 4666 
L 2241 4666 
Q 2963 4666 3353 4366 
Q 3744 4066 3744 3513 
Q 3744 3084 3544 2831 
Q 3344 2578 2956 2516 
Q 3422 2416 3680 2098 
Q 3938 1781 3938 1306 
Q 3938 681 3513 340 
Q 3088 0 2303 0 
L 628 0 
L 628 4666 
z
" transform="scale(0.015625)"/>
       <path id="DejaVuSans-61" d="M 2194 1759 
Q 1497 1759 1228 1600 
Q 959 1441 959 1056 
Q 959 750 1161 570 
Q 1363 391 1709 391 
Q 2188 391 2477 730 
Q 2766 1069 2766 1631 
L 2766 1759 
L 2194 1759 
z
M 3341 1997 
L 3341 0 
L 2766 0 
L 2766 531 
Q 2569 213 2275 61 
Q 1981 -91 1556 -91 
Q 1019 -91 701 211 
Q 384 513 384 1019 
Q 384 1609 779 1909 
Q 1175 2209 1959 2209 
L 2766 2209 
L 2766 2266 
Q 2766 2663 2505 2880 
Q 2244 3097 1772 3097 
Q 1472 3097 1187 3025 
Q 903 2953 641 2809 
L 641 3341 
Q 956 3463 1253 3523 
Q 1550 3584 1831 3584 
Q 2591 3584 2966 3190 
Q 3341 2797 3341 1997 
z
" transform="scale(0.015625)"/>
      </defs>
      <use xlink:href="#DejaVuSans-47"/>
      <use xlink:href="#DejaVuSans-58" x="77.490234"/>
      <use xlink:href="#DejaVuSans-42" x="145.996094"/>
      <use xlink:href="#DejaVuSans-65" x="214.599609"/>
      <use xlink:href="#DejaVuSans-61" x="276.123047"/>
      <use xlink:href="#DejaVuSans-6d" x="337.402344"/>
     </g>
    </g>
    <g id="line2d_14">
     <path d="M 339.345749 28.255896 
L 347.345749 28.255896 
L 355.345749 28.255896 
" style="fill: none; stroke: #e36f47; stroke-linejoin: miter"/>
    </g>
    <g id="text_13">
     <!-- ODEProblem -->
     <g transform="translate(361.745749 31.055896) scale(0.08 -0.08)">
      <defs>
       <path id="DejaVuSans-4f" d="M 2522 4238 
Q 1834 4238 1429 3725 
Q 1025 3213 1025 2328 
Q 1025 1447 1429 934 
Q 1834 422 2522 422 
Q 3209 422 3611 934 
Q 4013 1447 4013 2328 
Q 4013 3213 3611 3725 
Q 3209 4238 2522 4238 
z
M 2522 4750 
Q 3503 4750 4090 4092 
Q 4678 3434 4678 2328 
Q 4678 1225 4090 567 
Q 3503 -91 2522 -91 
Q 1538 -91 948 565 
Q 359 1222 359 2328 
Q 359 3434 948 4092 
Q 1538 4750 2522 4750 
z
" transform="scale(0.015625)"/>
       <path id="DejaVuSans-44" d="M 1259 4147 
L 1259 519 
L 2022 519 
Q 2988 519 3436 956 
Q 3884 1394 3884 2338 
Q 3884 3275 3436 3711 
Q 2988 4147 2022 4147 
L 1259 4147 
z
M 628 4666 
L 1925 4666 
Q 3281 4666 3915 4102 
Q 4550 3538 4550 2338 
Q 4550 1131 3912 565 
Q 3275 0 1925 0 
L 628 0 
L 628 4666 
z
" transform="scale(0.015625)"/>
       <path id="DejaVuSans-45" d="M 628 4666 
L 3578 4666 
L 3578 4134 
L 1259 4134 
L 1259 2753 
L 3481 2753 
L 3481 2222 
L 1259 2222 
L 1259 531 
L 3634 531 
L 3634 0 
L 628 0 
L 628 4666 
z
" transform="scale(0.015625)"/>
       <path id="DejaVuSans-50" d="M 1259 4147 
L 1259 2394 
L 2053 2394 
Q 2494 2394 2734 2622 
Q 2975 2850 2975 3272 
Q 2975 3691 2734 3919 
Q 2494 4147 2053 4147 
L 1259 4147 
z
M 628 4666 
L 2053 4666 
Q 2838 4666 3239 4311 
Q 3641 3956 3641 3272 
Q 3641 2581 3239 2228 
Q 2838 1875 2053 1875 
L 1259 1875 
L 1259 0 
L 628 0 
L 628 4666 
z
" transform="scale(0.015625)"/>
       <path id="DejaVuSans-72" d="M 2631 2963 
Q 2534 3019 2420 3045 
Q 2306 3072 2169 3072 
Q 1681 3072 1420 2755 
Q 1159 2438 1159 1844 
L 1159 0 
L 581 0 
L 581 3500 
L 1159 3500 
L 1159 2956 
Q 1341 3275 1631 3429 
Q 1922 3584 2338 3584 
Q 2397 3584 2469 3576 
Q 2541 3569 2628 3553 
L 2631 2963 
z
" transform="scale(0.015625)"/>
       <path id="DejaVuSans-6f" d="M 1959 3097 
Q 1497 3097 1228 2736 
Q 959 2375 959 1747 
Q 959 1119 1226 758 
Q 1494 397 1959 397 
Q 2419 397 2687 759 
Q 2956 1122 2956 1747 
Q 2956 2369 2687 2733 
Q 2419 3097 1959 3097 
z
M 1959 3584 
Q 2709 3584 3137 3096 
Q 3566 2609 3566 1747 
Q 3566 888 3137 398 
Q 2709 -91 1959 -91 
Q 1206 -91 779 398 
Q 353 888 353 1747 
Q 353 2609 779 3096 
Q 1206 3584 1959 3584 
z
" transform="scale(0.015625)"/>
       <path id="DejaVuSans-62" d="M 3116 1747 
Q 3116 2381 2855 2742 
Q 2594 3103 2138 3103 
Q 1681 3103 1420 2742 
Q 1159 2381 1159 1747 
Q 1159 1113 1420 752 
Q 1681 391 2138 391 
Q 2594 391 2855 752 
Q 3116 1113 3116 1747 
z
M 1159 2969 
Q 1341 3281 1617 3432 
Q 1894 3584 2278 3584 
Q 2916 3584 3314 3078 
Q 3713 2572 3713 1747 
Q 3713 922 3314 415 
Q 2916 -91 2278 -91 
Q 1894 -91 1617 61 
Q 1341 213 1159 525 
L 1159 0 
L 581 0 
L 581 4863 
L 1159 4863 
L 1159 2969 
z
" transform="scale(0.015625)"/>
       <path id="DejaVuSans-6c" d="M 603 4863 
L 1178 4863 
L 1178 0 
L 603 0 
L 603 4863 
z
" transform="scale(0.015625)"/>
      </defs>
      <use xlink:href="#DejaVuSans-4f"/>
      <use xlink:href="#DejaVuSans-44" x="78.710938"/>
      <use xlink:href="#DejaVuSans-45" x="155.712891"/>
      <use xlink:href="#DejaVuSans-50" x="218.896484"/>
      <use xlink:href="#DejaVuSans-72" x="277.449219"/>
      <use xlink:href="#DejaVuSans-6f" x="316.3125"/>
      <use xlink:href="#DejaVuSans-62" x="377.494141"/>
      <use xlink:href="#DejaVuSans-6c" x="440.970703"/>
      <use xlink:href="#DejaVuSans-65" x="468.753906"/>
      <use xlink:href="#DejaVuSans-6d" x="530.277344"/>
     </g>
    </g>
    <g id="line2d_15">
     <path d="M 339.345749 39.998396 
L 347.345749 39.998396 
L 355.345749 39.998396 
" style="fill: none; stroke: #3ea44e; stroke-linejoin: miter"/>
    </g>
    <g id="text_14">
     <!-- DAEProblem -->
     <g transform="translate(361.745749 42.798396) scale(0.08 -0.08)">
      <defs>
       <path id="DejaVuSans-41" d="M 2188 4044 
L 1331 1722 
L 3047 1722 
L 2188 4044 
z
M 1831 4666 
L 2547 4666 
L 4325 0 
L 3669 0 
L 3244 1197 
L 1141 1197 
L 716 0 
L 50 0 
L 1831 4666 
z
" transform="scale(0.015625)"/>
      </defs>
      <use xlink:href="#DejaVuSans-44"/>
      <use xlink:href="#DejaVuSans-41" x="75.251953"/>
      <use xlink:href="#DejaVuSans-45" x="143.660156"/>
      <use xlink:href="#DejaVuSans-50" x="206.84375"/>
      <use xlink:href="#DejaVuSans-72" x="265.396484"/>
      <use xlink:href="#DejaVuSans-6f" x="304.259766"/>
      <use xlink:href="#DejaVuSans-62" x="365.441406"/>
      <use xlink:href="#DejaVuSans-6c" x="428.917969"/>
      <use xlink:href="#DejaVuSans-65" x="456.701172"/>
      <use xlink:href="#DejaVuSans-6d" x="518.224609"/>
     </g>
    </g>
   </g>
  </g>
 </g>
 <defs>
  <clipPath id="p8cc20b9f11">
   <rect x="43.915109" y="2.834646" width="378.44689" height="255.390709"/>
  </clipPath>
 </defs>
</svg>
