<?xml version="1.0" encoding="utf-8" standalone="no"?>
<!DOCTYPE svg PUBLIC "-//W3C//DTD SVG 1.1//EN"
  "http://www.w3.org/Graphics/SVG/1.1/DTD/svg11.dtd">
<svg xmlns:xlink="http://www.w3.org/1999/xlink" width="432pt" height="288pt" viewBox="0 0 432 288" xmlns="http://www.w3.org/2000/svg" version="1.1">
 <metadata>
  <rdf:RDF xmlns:dc="http://purl.org/dc/elements/1.1/" xmlns:cc="http://creativecommons.org/ns#" xmlns:rdf="http://www.w3.org/1999/02/22-rdf-syntax-ns#">
   <cc:Work>
    <dc:type rdf:resource="http://purl.org/dc/dcmitype/StillImage"/>
    <dc:date>2023-02-17T20:53:30.881526</dc:date>
    <dc:format>image/svg+xml</dc:format>
    <dc:creator>
     <cc:Agent>
      <dc:title>Matplotlib v3.7.0, https://matplotlib.org/</dc:title>
     </cc:Agent>
    </dc:creator>
   </cc:Work>
  </rdf:RDF>
 </metadata>
 <defs>
  <style type="text/css">*{stroke-linejoin: round; stroke-linecap: butt}</style>
 </defs>
 <g id="figure_1">
  <g id="patch_1">
   <path d="M 0 288 
L 432 288 
L 432 0 
L 0 0 
z
" style="fill: #ffffff"/>
  </g>
  <g id="axes_1">
   <g id="patch_2">
    <path d="M 69.557488 258.225354 
L 422.361999 258.225354 
L 422.361999 2.834646 
L 69.557488 2.834646 
z
" style="fill: #ffffff"/>
   </g>
   <g id="line2d_1">
    <path d="M 69.557488 125.361164 
L 69.910292 125.245557 
L 70.263097 125.606604 
L 70.615901 125.545097 
L 70.968706 125.172002 
L 71.674315 125.351744 
L 72.203521 124.764932 
L 72.379924 124.834192 
L 72.90913 125.36622 
L 73.261935 125.38979 
L 73.614739 125.710665 
L 73.967544 126.080488 
L 74.673153 125.779067 
L 75.025958 125.9894 
L 75.378762 125.716104 
L 75.731567 125.38596 
L 76.437176 125.762731 
L 76.78998 125.403276 
L 77.142785 125.460013 
L 77.495589 125.600046 
L 78.3776 124.900157 
L 78.554003 124.835172 
L 79.436014 123.566801 
L 79.788818 123.701062 
L 80.318025 123.526164 
L 80.494427 123.680745 
L 81.200036 124.918746 
L 81.552841 125.106661 
L 82.434852 126.235827 
L 82.787657 126.561669 
L 83.84607 127.995431 
L 84.022473 128.223019 
L 84.904484 130.090653 
L 85.257288 130.521685 
L 85.786495 131.523717 
L 85.962897 131.659989 
L 86.315702 131.667232 
L 86.668506 131.918233 
L 87.021311 132.321175 
L 87.374115 132.46865 
L 87.72692 132.899487 
L 88.256127 133.971234 
L 88.608931 134.25722 
L 88.785333 134.38132 
L 89.490943 135.459089 
L 90.549356 135.816795 
L 90.902161 135.858362 
L 91.431367 135.713091 
L 91.960574 136.054679 
L 92.313379 135.982605 
L 92.666183 136.007846 
L 93.018988 136.117368 
L 93.19539 136.052503 
L 94.077401 134.911173 
L 94.430206 134.78806 
L 95.312217 134.035823 
L 95.841424 133.969153 
L 96.547033 133.117789 
L 96.899837 132.914166 
L 98.840262 130.046044 
L 99.193067 130.032465 
L 99.545871 130.100236 
L 100.25148 129.605741 
L 100.604285 129.615462 
L 100.957089 129.243649 
L 101.309894 128.618231 
L 102.544709 127.65432 
L 103.250318 127.550388 
L 103.603123 127.228244 
L 103.779525 127.177749 
L 104.308732 127.271353 
L 104.661537 126.848873 
L 105.014341 126.377889 
L 105.543548 126.018817 
L 106.249157 125.142161 
L 106.954766 125.12664 
L 107.30757 124.988885 
L 107.836777 125.173283 
L 108.189582 124.743044 
L 108.542386 124.16734 
L 109.071593 123.835441 
L 109.424397 123.235296 
L 109.777202 122.593079 
L 111.18842 121.359484 
L 111.541224 121.265672 
L 112.246834 120.659648 
L 112.599638 120.533767 
L 112.952443 120.083789 
L 113.305247 119.556076 
L 113.658052 119.491669 
L 114.010856 119.589097 
L 114.716465 119.310169 
L 115.245672 119.360822 
L 115.598476 119.015215 
L 115.951281 118.657413 
L 116.480488 118.364595 
L 117.186097 117.593426 
L 117.715303 117.603179 
L 118.24451 117.34287 
L 118.420912 117.437485 
L 119.126521 118.188814 
L 119.655728 118.223674 
L 120.890544 119.095673 
L 121.243349 119.739957 
L 121.948958 120.951098 
L 123.007371 122.575215 
L 123.360176 122.694205 
L 124.065785 123.348402 
L 124.771394 123.141361 
L 125.3006 123.536941 
L 126.006209 123.701928 
L 126.535416 123.985526 
L 126.888221 123.759161 
L 128.123037 122.291761 
L 128.475841 121.908425 
L 129.005048 121.788066 
L 129.710657 121.060175 
L 130.063461 121.139892 
L 130.416266 120.898082 
L 130.945473 120.371487 
L 131.298277 120.196379 
L 131.651082 119.651065 
L 132.003886 119.069853 
L 132.709495 118.614012 
L 133.0623 118.166658 
L 133.238702 118.160115 
L 133.767909 118.489542 
L 134.64992 117.881721 
L 135.002725 117.833228 
L 135.531931 117.441691 
L 135.884736 117.673434 
L 136.23754 117.904894 
L 136.590345 118.064389 
L 136.943149 118.695473 
L 137.472356 119.804135 
L 137.825161 120.324047 
L 138.883574 122.68963 
L 139.236379 123.311943 
L 140.823999 127.558268 
L 141.353206 128.699379 
L 142.235217 130.455362 
L 142.940826 131.231516 
L 143.822837 133.034485 
L 144.175642 133.757161 
L 145.58686 137.286503 
L 146.116067 138.092503 
L 146.645273 138.422085 
L 146.998078 138.683554 
L 147.527285 139.152463 
L 148.232894 139.480807 
L 148.585698 139.575364 
L 148.938503 139.309039 
L 149.644112 138.034019 
L 150.173319 136.890746 
L 150.878928 134.423754 
L 152.64295 128.837313 
L 154.936179 122.82118 
L 155.465386 122.492253 
L 156.347397 122.127892 
L 157.053006 122.610393 
L 158.464225 122.399748 
L 158.993431 121.810234 
L 159.875443 121.682312 
L 160.228247 121.495496 
L 160.757454 121.418558 
L 161.463063 120.579392 
L 162.168672 120.414966 
L 162.521476 120.213482 
L 162.697879 120.30775 
L 163.403488 121.18949 
L 163.756292 121.495104 
L 164.638303 122.966104 
L 164.991108 123.330289 
L 165.520315 123.873347 
L 166.049522 123.858261 
L 167.107935 124.718226 
L 167.989946 124.817088 
L 168.342751 124.22259 
L 169.224762 122.052527 
L 170.63598 117.036744 
L 171.517991 113.595497 
L 172.047198 111.366948 
L 173.105612 106.826242 
L 173.811221 104.453394 
L 174.164025 104.028676 
L 174.51683 103.940335 
L 175.046037 104.158413 
L 175.398841 104.638659 
L 175.751646 105.564304 
L 176.633657 108.664548 
L 177.868473 115.417305 
L 179.456093 127.131244 
L 180.514507 134.793698 
L 181.749322 142.818288 
L 182.807736 148.187413 
L 183.513345 150.679195 
L 184.042552 152.115169 
L 184.395356 152.587999 
L 184.924563 152.90544 
L 185.982976 152.406046 
L 186.335781 151.963002 
L 186.864988 150.767422 
L 187.570597 148.438886 
L 188.276206 145.086455 
L 189.334619 139.322177 
L 191.804251 126.634625 
L 192.333458 124.865413 
L 192.686262 124.160186 
L 193.039067 123.95316 
L 193.391871 124.266198 
L 193.744676 125.015959 
L 194.273882 126.784751 
L 195.155894 130.580388 
L 196.214307 136.701556 
L 198.331134 148.706177 
L 198.860341 150.045419 
L 199.213146 150.658726 
L 199.389548 150.816758 
L 199.918755 150.742331 
L 200.271559 150.661314 
L 201.15357 149.997572 
L 201.506375 149.265559 
L 202.035582 148.089439 
L 202.388386 147.31073 
L 203.623202 142.882549 
L 204.681616 137.544449 
L 205.563627 131.596971 
L 206.445638 123.338342 
L 209.268074 91.226998 
L 209.797281 87.772507 
L 210.150085 86.527075 
L 210.326488 86.21324 
L 210.50289 86.146592 
L 210.679292 86.298406 
L 211.032097 87.220493 
L 211.384901 88.894712 
L 211.914108 93.30257 
L 212.619717 101.665763 
L 214.38374 123.964276 
L 215.089349 130.176681 
L 215.618555 132.883241 
L 215.97136 134.047403 
L 216.324164 134.537738 
L 216.676969 134.671826 
L 216.853371 134.656401 
L 217.206176 134.21468 
L 217.735382 133.025689 
L 218.088187 131.73166 
L 219.675807 124.818176 
L 220.910623 122.091901 
L 221.263428 121.817091 
L 221.792634 121.237923 
L 222.321841 121.202537 
L 223.380255 120.345601 
L 224.085864 120.46195 
L 224.438668 120.529732 
L 224.967875 120.791853 
L 225.320679 120.397096 
L 225.849886 119.269102 
L 226.555495 116.600398 
L 227.084702 115.031515 
L 227.437507 114.370337 
L 227.613909 114.249765 
L 227.790311 114.358527 
L 227.966713 114.675005 
L 228.319518 116.052024 
L 228.848725 119.686967 
L 229.554334 125.756423 
L 230.436345 133.650705 
L 231.671161 142.581002 
L 232.200367 145.336377 
L 232.553172 146.235137 
L 232.905976 146.528127 
L 233.082379 146.385311 
L 233.258781 146.094401 
L 233.611586 144.774808 
L 234.140792 141.625028 
L 235.728413 131.038533 
L 236.081217 130.11478 
L 236.610424 129.92046 
L 236.786826 130.013959 
L 237.139631 130.830075 
L 238.021642 133.822699 
L 240.844078 149.451905 
L 241.373285 150.942663 
L 241.726089 151.314496 
L 241.902492 151.196649 
L 242.255296 150.236704 
L 242.960905 147.213148 
L 243.666514 141.732477 
L 244.195721 135.564579 
L 245.077732 122.105406 
L 246.841755 90.535326 
L 247.370961 84.572004 
L 247.723766 82.495973 
L 247.900168 82.051483 
L 248.07657 82.057379 
L 248.429375 82.999607 
L 248.78218 84.574946 
L 249.311386 88.422045 
L 250.546202 99.308478 
L 251.781018 110.170264 
L 252.310225 112.574195 
L 252.486627 112.775698 
L 252.663029 112.534516 
L 253.015834 111.249397 
L 253.54504 107.941214 
L 254.074247 104.273511 
L 254.427052 103.158597 
L 254.603454 103.113339 
L 254.779856 103.40845 
L 255.132661 105.206725 
L 255.661867 110.131526 
L 256.720281 120.970562 
L 258.660706 136.257163 
L 260.424728 152.436421 
L 261.835946 160.518237 
L 262.365153 166.061331 
L 263.247164 175.461902 
L 263.599969 177.76784 
L 263.952774 178.855911 
L 264.305578 179.402114 
L 264.48198 179.262896 
L 264.834785 178.003682 
L 265.716796 174.035487 
L 266.77521 168.713972 
L 267.304416 166.757249 
L 267.657221 165.128942 
L 268.892037 158.567601 
L 269.244841 157.420189 
L 269.597646 156.398633 
L 270.656059 151.75583 
L 271.538071 144.894478 
L 272.24368 136.882219 
L 272.772886 128.083364 
L 273.654898 107.862909 
L 274.889713 79.643308 
L 276.477334 50.000391 
L 277.182943 40.264878 
L 277.535747 37.258535 
L 277.712149 36.703781 
L 277.888552 36.917892 
L 278.064954 37.795605 
L 278.417758 41.651906 
L 278.770563 48.955312 
L 279.476172 70.509579 
L 281.592999 141.757526 
L 282.47501 164.474873 
L 283.004217 173.093378 
L 283.357022 176.497182 
L 283.709826 178.033284 
L 283.886228 178.123238 
L 284.062631 177.818148 
L 284.415435 176.197438 
L 284.944642 172.192461 
L 285.473849 168.354199 
L 285.826653 167.32645 
L 286.003055 167.130802 
L 286.179458 167.108422 
L 286.35586 167.350878 
L 286.708665 168.669188 
L 287.061469 170.214586 
L 287.414274 170.897014 
L 287.590676 170.949327 
L 287.767078 170.858377 
L 287.94348 170.604713 
L 288.472687 168.801398 
L 289.001894 166.130201 
L 289.531101 161.438882 
L 290.060307 155.080867 
L 290.942319 139.991025 
L 292.000732 117.804825 
L 293.941157 76.620002 
L 294.646766 67.322891 
L 295.175973 64.366031 
L 295.352375 63.897888 
L 295.528777 63.883126 
L 295.70518 64.267941 
L 296.057984 66.301588 
L 296.410789 69.869636 
L 296.939995 78.666034 
L 297.469202 91.198692 
L 298.351213 120.101238 
L 299.409627 157.990388 
L 299.938834 172.501396 
L 300.46804 182.919598 
L 300.820845 187.113736 
L 301.173649 189.586227 
L 301.350052 190.30077 
L 301.526454 190.424173 
L 301.702856 189.79909 
L 302.055661 187.108822 
L 302.584868 181.148193 
L 304.525292 152.37586 
L 305.054499 148.249766 
L 305.583706 146.15443 
L 305.93651 145.228295 
L 306.289315 144.886253 
L 306.994924 143.644681 
L 307.347728 143.761672 
L 307.524131 143.997542 
L 307.876935 144.975729 
L 308.406142 147.095601 
L 308.758946 147.691463 
L 308.935349 147.410643 
L 309.111751 146.639163 
L 309.464556 142.354232 
L 309.81736 134.649411 
L 310.346567 115.729821 
L 312.286992 26.560843 
L 312.639796 21.834801 
L 312.816198 21.627456 
L 312.992601 22.859103 
L 313.345405 28.763433 
L 313.874612 43.550242 
L 316.344243 123.529909 
L 316.87345 131.59697 
L 317.226255 134.331931 
L 317.402657 134.973505 
L 317.579059 134.896082 
L 317.755462 134.077919 
L 318.108266 130.634173 
L 318.637473 123.073477 
L 319.519484 109.023009 
L 320.048691 104.929444 
L 320.577898 102.724405 
L 320.930702 100.868 
L 321.989116 92.662503 
L 322.165518 92.332344 
L 322.34192 92.535653 
L 322.694725 94.416537 
L 323.047529 97.3506 
L 323.400334 101.906175 
L 323.92954 112.675901 
L 324.987954 136.793866 
L 325.517161 143.888671 
L 326.575574 155.568447 
L 327.104781 162.740141 
L 327.281183 164.172313 
L 327.457586 164.378072 
L 327.633988 163.092232 
L 327.986792 155.638245 
L 328.339597 142.589362 
L 329.045206 104.752672 
L 330.456424 28.694935 
L 330.809228 15.79154 
L 330.985631 12.22038 
L 331.162033 10.915048 
L 331.338435 11.987435 
L 331.69124 20.25007 
L 332.220447 44.866309 
L 333.27886 98.819443 
L 334.337274 139.955304 
L 334.690078 148.588873 
L 335.042883 151.860599 
L 335.219285 151.239364 
L 335.572089 146.071447 
L 336.101296 137.059495 
L 336.630503 129.618085 
L 336.983307 121.079459 
L 337.512514 100.649067 
L 339.100134 23.415563 
L 339.452939 18.932619 
L 339.629341 19.296038 
L 339.805744 21.234786 
L 340.158548 29.700556 
L 340.864157 55.156973 
L 341.922571 97.438805 
L 342.451777 107.495142 
L 342.804582 113.77572 
L 343.157386 123.81244 
L 343.686593 149.202769 
L 345.097811 231.185774 
L 345.274213 234.615865 
L 345.450616 235.690364 
L 345.627018 234.76212 
L 345.979822 229.15705 
L 346.509029 216.497587 
L 347.214638 190.131819 
L 348.978661 123.397985 
L 349.507868 113.157664 
L 349.68427 111.546882 
L 349.860672 111.009838 
L 350.037074 111.587122 
L 350.389879 115.359608 
L 350.742683 123.454616 
L 351.27189 145.988126 
L 351.801097 165.414205 
L 352.153901 170.63233 
L 352.330304 171.142442 
L 352.506706 170.822383 
L 353.035913 168.465562 
L 353.212315 168.672647 
L 353.388717 169.856489 
L 353.741522 176.098831 
L 354.270728 188.006817 
L 354.447131 189.905798 
L 354.623533 190.440968 
L 354.799935 189.519413 
L 355.15274 183.688798 
L 355.505544 173.143251 
L 356.034751 149.259819 
L 357.093165 89.647832 
L 357.269567 85.12977 
L 357.445969 83.516872 
L 357.622371 84.496618 
L 357.975176 90.65247 
L 358.504383 104.771526 
L 359.209992 127.097052 
L 359.562796 131.448404 
L 359.739198 130.815547 
L 360.092003 124.367934 
L 360.62121 113.556649 
L 360.797612 112.854464 
L 360.974014 114.363985 
L 361.326819 124.12192 
L 362.032428 156.024012 
L 363.267244 212.968416 
L 363.620048 219.91176 
L 363.79645 219.854623 
L 363.972853 217.076068 
L 364.325657 202.394005 
L 365.384071 140.598148 
L 365.736875 133.196773 
L 365.913277 132.831233 
L 366.08968 134.429255 
L 366.442484 140.425317 
L 366.795289 149.450548 
L 367.6773 176.311737 
L 367.853702 176.580284 
L 368.030104 174.230318 
L 368.559311 158.472585 
L 369.088518 145.785489 
L 369.26492 143.897614 
L 369.441322 143.733232 
L 369.617725 145.912908 
L 369.970529 158.918619 
L 370.499736 195.74667 
L 371.028943 233.293121 
L 371.381747 245.967549 
L 371.55815 247.396481 
L 371.734552 245.567223 
L 372.087356 235.313352 
L 372.969368 194.437357 
L 373.498574 172.852189 
L 373.851379 167.329016 
L 374.027781 167.265199 
L 374.204183 168.399448 
L 374.909792 176.224513 
L 375.086195 175.203366 
L 375.262597 171.718608 
L 375.615401 158.411444 
L 376.673815 103.035484 
L 376.850217 101.159507 
L 377.026619 102.592138 
L 377.379424 112.77965 
L 378.437838 153.214143 
L 378.61424 152.200812 
L 378.967044 141.351538 
L 379.496251 124.560301 
L 380.025458 114.300435 
L 380.20186 112.467092 
L 380.378262 112.342965 
L 380.554665 114.115076 
L 380.907469 122.294857 
L 381.965883 155.480078 
L 382.142285 155.501141 
L 382.318687 151.947757 
L 382.671492 134.279465 
L 384.435514 16.851405 
L 384.611916 16.960428 
L 384.788319 21.15997 
L 385.317526 49.594991 
L 385.67033 63.59636 
L 385.846732 64.788608 
L 386.023135 62.868992 
L 386.375939 56.571327 
L 386.552341 55.564966 
L 386.728744 56.906879 
L 387.25795 65.388554 
L 387.434353 64.324549 
L 388.139962 50.073862 
L 388.316364 52.033573 
L 388.669168 66.758779 
L 389.198375 107.887294 
L 389.727582 144.88565 
L 390.080386 156.510191 
L 390.256789 157.940147 
L 390.433191 157.251755 
L 390.785995 152.027586 
L 391.1388 141.85602 
L 391.668007 113.533531 
L 392.373616 76.550262 
L 392.72642 68.366675 
L 392.902823 69.12839 
L 393.432029 76.463095 
L 393.784834 78.149119 
L 393.961236 80.260069 
L 394.314041 90.470082 
L 394.843247 109.440165 
L 395.01965 109.606118 
L 395.196052 104.620981 
L 396.078063 61.655482 
L 396.254465 60.891623 
L 396.430868 63.781049 
L 396.960074 84.762408 
L 398.19489 128.816787 
L 398.547695 139.533851 
L 398.724097 141.545988 
L 398.900499 141.465871 
L 399.253304 136.818195 
L 399.606108 129.480574 
L 400.48812 107.107301 
L 401.193729 101.937397 
L 401.546533 99.018228 
L 401.722935 99.429416 
L 402.07574 102.385504 
L 402.252142 101.960379 
L 402.428544 98.093866 
L 403.310556 61.565941 
L 403.839762 65.871629 
L 404.016165 64.030881 
L 404.368969 59.139078 
L 404.545371 60.73812 
L 405.074578 74.834295 
L 405.25098 74.861746 
L 405.780187 68.454587 
L 406.132992 75.871149 
L 406.309394 79.27726 
L 406.485796 79.220032 
L 406.838601 72.669968 
L 407.015003 72.642832 
L 407.191405 77.257883 
L 407.720612 95.564028 
L 407.897014 98.19173 
L 408.073417 102.810732 
L 408.426221 126.553902 
L 408.779026 148.60358 
L 408.955428 150.938792 
L 409.308232 147.905648 
L 409.484635 147.527503 
L 409.661037 146.846509 
L 409.837439 143.455474 
L 410.543048 114.844472 
L 410.71945 114.896295 
L 411.072255 121.476854 
L 411.777864 141.909109 
L 412.307071 165.15309 
L 412.659875 178.744086 
L 412.836277 181.674651 
L 413.01268 181.909277 
L 413.189082 180.767575 
L 413.365484 177.579497 
L 413.718289 162.384127 
L 414.423898 122.320139 
L 414.953104 105.843755 
L 415.305909 97.212532 
L 415.482311 99.950382 
L 415.835116 121.414135 
L 416.364323 151.707484 
L 416.540725 154.632309 
L 416.717127 155.404735 
L 417.069932 154.400488 
L 417.246334 154.35743 
L 417.422736 152.912866 
L 417.599138 149.232115 
L 417.951943 132.364932 
L 418.48115 108.5324 
L 419.186759 83.5699 
L 419.363161 85.450702 
L 420.06877 107.118455 
L 420.421574 115.521916 
L 421.303586 143.270801 
L 421.479988 141.006148 
L 422.361999 104.63718 
L 422.361999 104.63718 
" clip-path="url(#pa6cb9d5b52)" style="fill: none; stroke: #009afa"/>
   </g>
   <g id="matplotlib.axis_1">
    <g id="xtick_1">
     <g id="line2d_2">
      <defs>
       <path id="m64e2167630" d="M 0 0 
L 0 -2.5 
" style="stroke: #000000; stroke-width: 0.5"/>
      </defs>
      <g>
       <use xlink:href="#m64e2167630" x="69.557488" y="258.225354" style="stroke: #000000; stroke-width: 0.5"/>
      </g>
     </g>
     <g id="text_1">
      <!-- $0.0$ -->
      <g transform="translate(63.157488 267.804104) scale(0.08 -0.08)">
       <defs>
        <path id="DejaVuSans-30" d="M 2034 4250 
Q 1547 4250 1301 3770 
Q 1056 3291 1056 2328 
Q 1056 1369 1301 889 
Q 1547 409 2034 409 
Q 2525 409 2770 889 
Q 3016 1369 3016 2328 
Q 3016 3291 2770 3770 
Q 2525 4250 2034 4250 
z
M 2034 4750 
Q 2819 4750 3233 4129 
Q 3647 3509 3647 2328 
Q 3647 1150 3233 529 
Q 2819 -91 2034 -91 
Q 1250 -91 836 529 
Q 422 1150 422 2328 
Q 422 3509 836 4129 
Q 1250 4750 2034 4750 
z
" transform="scale(0.015625)"/>
        <path id="DejaVuSans-2e" d="M 684 794 
L 1344 794 
L 1344 0 
L 684 0 
L 684 794 
z
" transform="scale(0.015625)"/>
       </defs>
       <use xlink:href="#DejaVuSans-30" transform="translate(0 0.78125)"/>
       <use xlink:href="#DejaVuSans-2e" transform="translate(63.623047 0.78125)"/>
       <use xlink:href="#DejaVuSans-30" transform="translate(95.410156 0.78125)"/>
      </g>
     </g>
    </g>
    <g id="xtick_2">
     <g id="line2d_3">
      <g>
       <use xlink:href="#m64e2167630" x="157.758616" y="258.225354" style="stroke: #000000; stroke-width: 0.5"/>
      </g>
     </g>
     <g id="text_2">
      <!-- $0.5$ -->
      <g transform="translate(151.358616 267.804104) scale(0.08 -0.08)">
       <defs>
        <path id="DejaVuSans-35" d="M 691 4666 
L 3169 4666 
L 3169 4134 
L 1269 4134 
L 1269 2991 
Q 1406 3038 1543 3061 
Q 1681 3084 1819 3084 
Q 2600 3084 3056 2656 
Q 3513 2228 3513 1497 
Q 3513 744 3044 326 
Q 2575 -91 1722 -91 
Q 1428 -91 1123 -41 
Q 819 9 494 109 
L 494 744 
Q 775 591 1075 516 
Q 1375 441 1709 441 
Q 2250 441 2565 725 
Q 2881 1009 2881 1497 
Q 2881 1984 2565 2268 
Q 2250 2553 1709 2553 
Q 1456 2553 1204 2497 
Q 953 2441 691 2322 
L 691 4666 
z
" transform="scale(0.015625)"/>
       </defs>
       <use xlink:href="#DejaVuSans-30" transform="translate(0 0.78125)"/>
       <use xlink:href="#DejaVuSans-2e" transform="translate(63.623047 0.78125)"/>
       <use xlink:href="#DejaVuSans-35" transform="translate(95.410156 0.78125)"/>
      </g>
     </g>
    </g>
    <g id="xtick_3">
     <g id="line2d_4">
      <g>
       <use xlink:href="#m64e2167630" x="245.959743" y="258.225354" style="stroke: #000000; stroke-width: 0.5"/>
      </g>
     </g>
     <g id="text_3">
      <!-- $1.0$ -->
      <g transform="translate(239.559743 267.804104) scale(0.08 -0.08)">
       <defs>
        <path id="DejaVuSans-31" d="M 794 531 
L 1825 531 
L 1825 4091 
L 703 3866 
L 703 4441 
L 1819 4666 
L 2450 4666 
L 2450 531 
L 3481 531 
L 3481 0 
L 794 0 
L 794 531 
z
" transform="scale(0.015625)"/>
       </defs>
       <use xlink:href="#DejaVuSans-31" transform="translate(0 0.78125)"/>
       <use xlink:href="#DejaVuSans-2e" transform="translate(63.623047 0.78125)"/>
       <use xlink:href="#DejaVuSans-30" transform="translate(95.410156 0.78125)"/>
      </g>
     </g>
    </g>
    <g id="xtick_4">
     <g id="line2d_5">
      <g>
       <use xlink:href="#m64e2167630" x="334.160871" y="258.225354" style="stroke: #000000; stroke-width: 0.5"/>
      </g>
     </g>
     <g id="text_4">
      <!-- $1.5$ -->
      <g transform="translate(327.760871 267.804104) scale(0.08 -0.08)">
       <use xlink:href="#DejaVuSans-31" transform="translate(0 0.09375)"/>
       <use xlink:href="#DejaVuSans-2e" transform="translate(63.623047 0.09375)"/>
       <use xlink:href="#DejaVuSans-35" transform="translate(95.410156 0.09375)"/>
      </g>
     </g>
    </g>
    <g id="xtick_5">
     <g id="line2d_6">
      <g>
       <use xlink:href="#m64e2167630" x="422.361999" y="258.225354" style="stroke: #000000; stroke-width: 0.5"/>
      </g>
     </g>
     <g id="text_5">
      <!-- $2.0$ -->
      <g transform="translate(415.961999 267.804104) scale(0.08 -0.08)">
       <defs>
        <path id="DejaVuSans-32" d="M 1228 531 
L 3431 531 
L 3431 0 
L 469 0 
L 469 531 
Q 828 903 1448 1529 
Q 2069 2156 2228 2338 
Q 2531 2678 2651 2914 
Q 2772 3150 2772 3378 
Q 2772 3750 2511 3984 
Q 2250 4219 1831 4219 
Q 1534 4219 1204 4116 
Q 875 4013 500 3803 
L 500 4441 
Q 881 4594 1212 4672 
Q 1544 4750 1819 4750 
Q 2544 4750 2975 4387 
Q 3406 4025 3406 3419 
Q 3406 3131 3298 2873 
Q 3191 2616 2906 2266 
Q 2828 2175 2409 1742 
Q 1991 1309 1228 531 
z
" transform="scale(0.015625)"/>
       </defs>
       <use xlink:href="#DejaVuSans-32" transform="translate(0 0.78125)"/>
       <use xlink:href="#DejaVuSans-2e" transform="translate(63.623047 0.78125)"/>
       <use xlink:href="#DejaVuSans-30" transform="translate(95.410156 0.78125)"/>
      </g>
     </g>
    </g>
    <g id="text_6">
     <!-- Time (s) -->
     <g transform="translate(223.597947 281.826136) scale(0.11 -0.11)">
      <defs>
       <path id="DejaVuSans-54" d="M -19 4666 
L 3928 4666 
L 3928 4134 
L 2272 4134 
L 2272 0 
L 1638 0 
L 1638 4134 
L -19 4134 
L -19 4666 
z
" transform="scale(0.015625)"/>
       <path id="DejaVuSans-69" d="M 603 3500 
L 1178 3500 
L 1178 0 
L 603 0 
L 603 3500 
z
M 603 4863 
L 1178 4863 
L 1178 4134 
L 603 4134 
L 603 4863 
z
" transform="scale(0.015625)"/>
       <path id="DejaVuSans-6d" d="M 3328 2828 
Q 3544 3216 3844 3400 
Q 4144 3584 4550 3584 
Q 5097 3584 5394 3201 
Q 5691 2819 5691 2113 
L 5691 0 
L 5113 0 
L 5113 2094 
Q 5113 2597 4934 2840 
Q 4756 3084 4391 3084 
Q 3944 3084 3684 2787 
Q 3425 2491 3425 1978 
L 3425 0 
L 2847 0 
L 2847 2094 
Q 2847 2600 2669 2842 
Q 2491 3084 2119 3084 
Q 1678 3084 1418 2786 
Q 1159 2488 1159 1978 
L 1159 0 
L 581 0 
L 581 3500 
L 1159 3500 
L 1159 2956 
Q 1356 3278 1631 3431 
Q 1906 3584 2284 3584 
Q 2666 3584 2933 3390 
Q 3200 3197 3328 2828 
z
" transform="scale(0.015625)"/>
       <path id="DejaVuSans-65" d="M 3597 1894 
L 3597 1613 
L 953 1613 
Q 991 1019 1311 708 
Q 1631 397 2203 397 
Q 2534 397 2845 478 
Q 3156 559 3463 722 
L 3463 178 
Q 3153 47 2828 -22 
Q 2503 -91 2169 -91 
Q 1331 -91 842 396 
Q 353 884 353 1716 
Q 353 2575 817 3079 
Q 1281 3584 2069 3584 
Q 2775 3584 3186 3129 
Q 3597 2675 3597 1894 
z
M 3022 2063 
Q 3016 2534 2758 2815 
Q 2500 3097 2075 3097 
Q 1594 3097 1305 2825 
Q 1016 2553 972 2059 
L 3022 2063 
z
" transform="scale(0.015625)"/>
       <path id="DejaVuSans-20" transform="scale(0.015625)"/>
       <path id="DejaVuSans-28" d="M 1984 4856 
Q 1566 4138 1362 3434 
Q 1159 2731 1159 2009 
Q 1159 1288 1364 580 
Q 1569 -128 1984 -844 
L 1484 -844 
Q 1016 -109 783 600 
Q 550 1309 550 2009 
Q 550 2706 781 3412 
Q 1013 4119 1484 4856 
L 1984 4856 
z
" transform="scale(0.015625)"/>
       <path id="DejaVuSans-73" d="M 2834 3397 
L 2834 2853 
Q 2591 2978 2328 3040 
Q 2066 3103 1784 3103 
Q 1356 3103 1142 2972 
Q 928 2841 928 2578 
Q 928 2378 1081 2264 
Q 1234 2150 1697 2047 
L 1894 2003 
Q 2506 1872 2764 1633 
Q 3022 1394 3022 966 
Q 3022 478 2636 193 
Q 2250 -91 1575 -91 
Q 1294 -91 989 -36 
Q 684 19 347 128 
L 347 722 
Q 666 556 975 473 
Q 1284 391 1588 391 
Q 1994 391 2212 530 
Q 2431 669 2431 922 
Q 2431 1156 2273 1281 
Q 2116 1406 1581 1522 
L 1381 1569 
Q 847 1681 609 1914 
Q 372 2147 372 2553 
Q 372 3047 722 3315 
Q 1072 3584 1716 3584 
Q 2034 3584 2315 3537 
Q 2597 3491 2834 3397 
z
" transform="scale(0.015625)"/>
       <path id="DejaVuSans-29" d="M 513 4856 
L 1013 4856 
Q 1481 4119 1714 3412 
Q 1947 2706 1947 2009 
Q 1947 1309 1714 600 
Q 1481 -109 1013 -844 
L 513 -844 
Q 928 -128 1133 580 
Q 1338 1288 1338 2009 
Q 1338 2731 1133 3434 
Q 928 4138 513 4856 
z
" transform="scale(0.015625)"/>
      </defs>
      <use xlink:href="#DejaVuSans-54"/>
      <use xlink:href="#DejaVuSans-69" x="57.958984"/>
      <use xlink:href="#DejaVuSans-6d" x="85.742188"/>
      <use xlink:href="#DejaVuSans-65" x="183.154297"/>
      <use xlink:href="#DejaVuSans-20" x="244.677734"/>
      <use xlink:href="#DejaVuSans-28" x="276.464844"/>
      <use xlink:href="#DejaVuSans-73" x="315.478516"/>
      <use xlink:href="#DejaVuSans-29" x="367.578125"/>
     </g>
    </g>
   </g>
   <g id="matplotlib.axis_2">
    <g id="ytick_1">
     <g id="line2d_7">
      <defs>
       <path id="mdc70224fd7" d="M 0 0 
L 2.5 0 
" style="stroke: #000000; stroke-width: 0.5"/>
      </defs>
      <g>
       <use xlink:href="#mdc70224fd7" x="69.557488" y="223.24412" style="stroke: #000000; stroke-width: 0.5"/>
      </g>
     </g>
     <g id="text_7">
      <!-- $-5.00×10^{5}$ -->
      <g transform="translate(20.777488 226.283495) scale(0.08 -0.08)">
       <defs>
        <path id="DejaVuSans-2212" d="M 678 2272 
L 4684 2272 
L 4684 1741 
L 678 1741 
L 678 2272 
z
" transform="scale(0.015625)"/>
        <path id="DejaVuSans-d7" d="M 4488 3438 
L 3059 2003 
L 4488 575 
L 4116 197 
L 2681 1631 
L 1247 197 
L 878 575 
L 2303 2003 
L 878 3438 
L 1247 3816 
L 2681 2381 
L 4116 3816 
L 4488 3438 
z
" transform="scale(0.015625)"/>
       </defs>
       <use xlink:href="#DejaVuSans-2212" transform="translate(0 0.684375)"/>
       <use xlink:href="#DejaVuSans-35" transform="translate(83.789062 0.684375)"/>
       <use xlink:href="#DejaVuSans-2e" transform="translate(147.412109 0.684375)"/>
       <use xlink:href="#DejaVuSans-30" transform="translate(179.199219 0.684375)"/>
       <use xlink:href="#DejaVuSans-30" transform="translate(242.822266 0.684375)"/>
       <use xlink:href="#DejaVuSans-d7" transform="translate(306.445312 0.684375)"/>
       <use xlink:href="#DejaVuSans-31" transform="translate(390.234375 0.684375)"/>
       <use xlink:href="#DejaVuSans-30" transform="translate(453.857422 0.684375)"/>
       <use xlink:href="#DejaVuSans-35" transform="translate(518.4375 38.965625) scale(0.7)"/>
      </g>
     </g>
    </g>
    <g id="ytick_2">
     <g id="line2d_8">
      <g>
       <use xlink:href="#mdc70224fd7" x="69.557488" y="174.302642" style="stroke: #000000; stroke-width: 0.5"/>
      </g>
     </g>
     <g id="text_8">
      <!-- $-2.50×10^{5}$ -->
      <g transform="translate(20.777488 177.342017) scale(0.08 -0.08)">
       <use xlink:href="#DejaVuSans-2212" transform="translate(0 0.684375)"/>
       <use xlink:href="#DejaVuSans-32" transform="translate(83.789062 0.684375)"/>
       <use xlink:href="#DejaVuSans-2e" transform="translate(147.412109 0.684375)"/>
       <use xlink:href="#DejaVuSans-35" transform="translate(179.199219 0.684375)"/>
       <use xlink:href="#DejaVuSans-30" transform="translate(242.822266 0.684375)"/>
       <use xlink:href="#DejaVuSans-d7" transform="translate(306.445312 0.684375)"/>
       <use xlink:href="#DejaVuSans-31" transform="translate(390.234375 0.684375)"/>
       <use xlink:href="#DejaVuSans-30" transform="translate(453.857422 0.684375)"/>
       <use xlink:href="#DejaVuSans-35" transform="translate(518.4375 38.965625) scale(0.7)"/>
      </g>
     </g>
    </g>
    <g id="ytick_3">
     <g id="line2d_9">
      <g>
       <use xlink:href="#mdc70224fd7" x="69.557488" y="125.361164" style="stroke: #000000; stroke-width: 0.5"/>
      </g>
     </g>
     <g id="text_9">
      <!-- $0$ -->
      <g transform="translate(60.937488 128.400539) scale(0.08 -0.08)">
       <use xlink:href="#DejaVuSans-30" transform="translate(0 0.78125)"/>
      </g>
     </g>
    </g>
    <g id="ytick_4">
     <g id="line2d_10">
      <g>
       <use xlink:href="#mdc70224fd7" x="69.557488" y="76.419686" style="stroke: #000000; stroke-width: 0.5"/>
      </g>
     </g>
     <g id="text_10">
      <!-- $2.50×10^{5}$ -->
      <g transform="translate(27.497488 79.459061) scale(0.08 -0.08)">
       <use xlink:href="#DejaVuSans-32" transform="translate(0 0.684375)"/>
       <use xlink:href="#DejaVuSans-2e" transform="translate(63.623047 0.684375)"/>
       <use xlink:href="#DejaVuSans-35" transform="translate(95.410156 0.684375)"/>
       <use xlink:href="#DejaVuSans-30" transform="translate(159.033203 0.684375)"/>
       <use xlink:href="#DejaVuSans-d7" transform="translate(222.65625 0.684375)"/>
       <use xlink:href="#DejaVuSans-31" transform="translate(306.445312 0.684375)"/>
       <use xlink:href="#DejaVuSans-30" transform="translate(370.068359 0.684375)"/>
       <use xlink:href="#DejaVuSans-35" transform="translate(434.648438 38.965625) scale(0.7)"/>
      </g>
     </g>
    </g>
    <g id="ytick_5">
     <g id="line2d_11">
      <g>
       <use xlink:href="#mdc70224fd7" x="69.557488" y="27.478207" style="stroke: #000000; stroke-width: 0.5"/>
      </g>
     </g>
     <g id="text_11">
      <!-- $5.00×10^{5}$ -->
      <g transform="translate(27.497488 30.517582) scale(0.08 -0.08)">
       <use xlink:href="#DejaVuSans-35" transform="translate(0 0.684375)"/>
       <use xlink:href="#DejaVuSans-2e" transform="translate(63.623047 0.684375)"/>
       <use xlink:href="#DejaVuSans-30" transform="translate(95.410156 0.684375)"/>
       <use xlink:href="#DejaVuSans-30" transform="translate(159.033203 0.684375)"/>
       <use xlink:href="#DejaVuSans-d7" transform="translate(222.65625 0.684375)"/>
       <use xlink:href="#DejaVuSans-31" transform="translate(306.445312 0.684375)"/>
       <use xlink:href="#DejaVuSans-30" transform="translate(370.068359 0.684375)"/>
       <use xlink:href="#DejaVuSans-35" transform="translate(434.648438 38.965625) scale(0.7)"/>
      </g>
     </g>
    </g>
    <g id="text_12">
     <!-- $M_x$ ($Nm$) -->
     <g transform="translate(14.489831 153.245) rotate(-90) scale(0.11 -0.11)">
      <defs>
       <path id="DejaVuSans-Oblique-4d" d="M 1081 4666 
L 2028 4666 
L 2572 1522 
L 4378 4666 
L 5350 4666 
L 4441 0 
L 3828 0 
L 4622 4091 
L 2791 897 
L 2175 897 
L 1581 4103 
L 788 0 
L 172 0 
L 1081 4666 
z
" transform="scale(0.015625)"/>
       <path id="DejaVuSans-Oblique-78" d="M 3841 3500 
L 2234 1784 
L 3219 0 
L 2559 0 
L 1819 1388 
L 531 0 
L -166 0 
L 1556 1844 
L 641 3500 
L 1300 3500 
L 1972 2234 
L 3144 3500 
L 3841 3500 
z
" transform="scale(0.015625)"/>
       <path id="DejaVuSans-Oblique-4e" d="M 1081 4666 
L 1931 4666 
L 3219 666 
L 4000 4666 
L 4616 4666 
L 3706 0 
L 2853 0 
L 1569 4025 
L 788 0 
L 172 0 
L 1081 4666 
z
" transform="scale(0.015625)"/>
       <path id="DejaVuSans-Oblique-6d" d="M 5747 2113 
L 5338 0 
L 4763 0 
L 5166 2094 
Q 5191 2228 5203 2325 
Q 5216 2422 5216 2491 
Q 5216 2772 5059 2928 
Q 4903 3084 4622 3084 
Q 4203 3084 3875 2770 
Q 3547 2456 3450 1953 
L 3066 0 
L 2491 0 
L 2900 2094 
Q 2925 2209 2937 2307 
Q 2950 2406 2950 2484 
Q 2950 2769 2794 2926 
Q 2638 3084 2363 3084 
Q 1938 3084 1609 2770 
Q 1281 2456 1184 1953 
L 800 0 
L 225 0 
L 909 3500 
L 1484 3500 
L 1375 2956 
Q 1609 3263 1923 3423 
Q 2238 3584 2597 3584 
Q 2978 3584 3223 3384 
Q 3469 3184 3519 2828 
Q 3781 3197 4126 3390 
Q 4472 3584 4856 3584 
Q 5306 3584 5551 3325 
Q 5797 3066 5797 2591 
Q 5797 2488 5784 2364 
Q 5772 2241 5747 2113 
z
" transform="scale(0.015625)"/>
      </defs>
      <use xlink:href="#DejaVuSans-Oblique-4d" transform="translate(0 0.125)"/>
      <use xlink:href="#DejaVuSans-Oblique-78" transform="translate(86.279297 -16.28125) scale(0.7)"/>
      <use xlink:href="#DejaVuSans-20" transform="translate(130.439453 0.125)"/>
      <use xlink:href="#DejaVuSans-28" transform="translate(162.226562 0.125)"/>
      <use xlink:href="#DejaVuSans-Oblique-4e" transform="translate(201.240234 0.125)"/>
      <use xlink:href="#DejaVuSans-Oblique-6d" transform="translate(276.044922 0.125)"/>
      <use xlink:href="#DejaVuSans-29" transform="translate(373.457031 0.125)"/>
     </g>
    </g>
   </g>
   <g id="line2d_12">
    <path d="M 69.557488 125.361164 
L 69.711735 125.258889 
L 69.859691 125.265753 
L 70.338935 125.636321 
L 70.624614 125.448433 
L 70.882644 125.233752 
L 71.070193 125.247551 
L 71.405153 125.450655 
L 71.55087 125.379172 
L 72.016386 124.771216 
L 72.329093 124.978164 
L 72.592144 125.17096 
L 72.866198 125.142878 
L 73.03121 125.204702 
L 73.318007 125.576196 
L 73.620753 125.961325 
L 73.742905 125.945423 
L 74.139499 125.73839 
L 74.464253 125.98567 
L 74.697443 126.098281 
L 74.998587 125.764357 
L 75.239501 125.528314 
L 75.433587 125.53879 
L 75.757064 125.781924 
L 75.886454 125.788958 
L 76.339321 125.433806 
L 77.000512 125.629959 
L 77.607236 125.369244 
L 77.863576 125.481722 
L 78.060227 125.328016 
L 78.650178 124.358533 
L 79.109029 124.059457 
L 79.634327 123.391124 
L 79.765727 123.398286 
L 80.159925 123.772799 
L 80.685522 124.021683 
L 81.484545 125.15989 
L 81.685006 125.195548 
L 81.955726 125.552249 
L 82.434958 126.433942 
L 82.922863 126.672405 
L 85.903074 131.477505 
L 86.23623 131.443068 
L 86.514276 131.719323 
L 86.958253 132.217016 
L 87.417675 132.549374 
L 87.73074 133.165622 
L 88.168788 133.736767 
L 88.58313 134.228819 
L 89.15985 135.129564 
L 89.796785 135.372433 
L 90.248117 135.803069 
L 90.521039 135.720056 
L 90.862834 135.566065 
L 91.027145 135.635779 
L 91.446455 135.959955 
L 91.98025 135.981003 
L 92.593893 136.268902 
L 92.926138 135.904645 
L 93.259625 135.623019 
L 93.760663 135.357624 
L 94.17887 134.725786 
L 94.437679 134.515227 
L 94.984596 134.496726 
L 95.268439 134.170949 
L 95.647361 133.862625 
L 96.084943 133.771865 
L 96.4471 133.296402 
L 96.836291 132.818735 
L 97.137712 132.548114 
L 97.445626 131.975939 
L 97.975515 131.003427 
L 99.147902 130.049977 
L 99.617833 130.24992 
L 99.930211 129.944743 
L 100.349507 129.583956 
L 100.663978 129.410849 
L 100.991652 128.98625 
L 101.431644 128.504604 
L 101.981633 128.188033 
L 102.4275 127.64795 
L 102.656811 127.681395 
L 103.061336 127.762532 
L 103.738892 127.362633 
L 104.010915 127.471159 
L 104.192263 127.373634 
L 104.996931 126.423741 
L 105.198792 126.223644 
L 105.815063 125.368288 
L 106.14985 125.483947 
L 106.385002 125.491794 
L 106.896773 125.116371 
L 107.579011 125.240657 
L 108.184388 124.611885 
L 108.504956 124.421179 
L 110.490667 121.907211 
L 110.836212 121.89023 
L 111.529758 121.218754 
L 111.878263 121.110537 
L 112.583766 120.141021 
L 113.114149 119.886075 
L 113.467738 119.579753 
L 113.821327 119.641135 
L 114.174916 119.746919 
L 114.528505 119.495534 
L 114.890976 119.271557 
L 115.279174 119.34041 
L 115.481697 119.237659 
L 116.095631 118.433641 
L 116.505421 118.204999 
L 117.122539 117.496565 
L 118.258567 117.622973 
L 118.804454 118.093107 
L 119.180496 118.010503 
L 119.574943 117.992707 
L 120.790032 119.084996 
L 121.432908 120.264257 
L 121.884123 120.959144 
L 122.349354 121.892238 
L 123.577885 122.988356 
L 124.095956 122.787545 
L 124.36222 122.935561 
L 124.901962 123.420342 
L 125.454377 123.682587 
L 125.733215 123.922849 
L 126.012053 124.008304 
L 127.09216 123.496489 
L 127.595932 122.710608 
L 128.099703 122.520758 
L 128.85536 121.602465 
L 129.359132 121.619842 
L 130.114789 121.174162 
L 130.366675 121.093132 
L 130.749455 120.52786 
L 131.106999 120.001663 
L 131.492151 119.760824 
L 132.284259 118.851179 
L 132.686599 118.944041 
L 133.491278 118.367104 
L 133.692448 118.38496 
L 133.893618 118.274521 
L 134.29663 117.842884 
L 134.902156 117.752752 
L 135.30584 117.251817 
L 135.518655 117.28103 
L 135.944284 117.724188 
L 136.369912 117.864108 
L 136.582727 118.17604 
L 137.22117 119.577571 
L 137.646799 120.187653 
L 138.285242 121.389276 
L 138.71087 121.975741 
L 140.958622 127.842597 
L 141.904979 129.602338 
L 142.356594 130.287264 
L 142.969603 131.149607 
L 143.273907 131.703153 
L 145.324626 136.7357 
L 146.150897 137.815786 
L 146.634164 138.351974 
L 147.896462 139.552241 
L 148.858058 139.550397 
L 149.225716 138.859257 
L 150.289097 136.179578 
L 151.268384 133.244682 
L 151.769081 131.769494 
L 153.19014 127.032536 
L 154.227022 124.172811 
L 154.77365 123.013765 
L 155.637238 122.482127 
L 155.925101 122.419509 
L 156.500826 122.722946 
L 156.788689 122.647348 
L 157.364415 122.298992 
L 157.94014 122.378715 
L 158.515866 122.10856 
L 159.033034 122.191866 
L 159.909915 121.79293 
L 160.269628 121.614857 
L 160.989055 120.858051 
L 161.348768 120.696645 
L 161.888338 120.08911 
L 162.068195 120.100378 
L 163.132094 121.177026 
L 163.637986 121.899897 
L 164.100918 122.18424 
L 164.738557 122.854271 
L 165.134329 122.939606 
L 165.407702 123.327104 
L 165.902752 124.039278 
L 166.461844 124.497649 
L 166.932379 125.001115 
L 167.280941 124.997918 
L 167.928081 124.764765 
L 168.235991 124.165904 
L 170.522285 117.785708 
L 171.262766 114.692392 
L 172.928758 107.221703 
L 173.456272 105.423328 
L 174.015833 104.463757 
L 174.427347 104.078801 
L 174.846602 104.223816 
L 175.268387 104.729724 
L 175.927657 106.017534 
L 176.380719 107.446667 
L 177.339834 112.277259 
L 178.420185 119.507166 
L 181.781496 143.208196 
L 182.419552 146.61351 
L 183.394 150.411653 
L 184.405449 152.41219 
L 184.742598 152.762116 
L 185.416897 152.891582 
L 185.754046 152.761443 
L 186.091196 152.499858 
L 186.428345 151.926917 
L 186.993647 150.385188 
L 187.794753 147.029573 
L 188.519292 143.670292 
L 190.114747 135.137594 
L 191.422166 127.948004 
L 192.037781 125.426992 
L 192.41897 124.762655 
L 192.885541 124.411957 
L 193.140743 124.494272 
L 193.462472 124.961285 
L 194.034948 126.230196 
L 194.724023 128.483207 
L 195.268633 131.021853 
L 195.975662 135.375367 
L 197.38972 144.208728 
L 198.258588 148.044911 
L 198.985495 149.955341 
L 199.596326 150.583082 
L 199.893667 150.789506 
L 200.642406 150.824964 
L 200.858323 150.571498 
L 201.833701 148.581884 
L 203.715151 142.668332 
L 204.483119 138.922355 
L 205.4617 132.502076 
L 206.433465 123.1434 
L 207.712955 108.108846 
L 209.122754 92.421314 
L 209.764534 87.845876 
L 210.262664 86.229853 
L 210.51173 85.942896 
L 210.79162 86.222029 
L 211.071511 87.332707 
L 211.647129 91.266336 
L 212.238586 97.552081 
L 214.800947 127.935085 
L 215.390546 131.781115 
L 215.789153 133.49081 
L 216.193302 134.444411 
L 216.395376 134.686592 
L 216.59745 134.71222 
L 217.001599 134.246723 
L 217.405747 133.545545 
L 217.809896 132.203508 
L 219.271579 126.572276 
L 220.64879 122.838308 
L 221.19441 121.955197 
L 221.616227 121.310972 
L 222.898036 120.464862 
L 223.269465 120.451932 
L 223.585216 120.437101 
L 223.820296 120.737513 
L 224.18297 121.178823 
L 224.399913 121.057462 
L 224.80508 120.77076 
L 225.101355 120.660457 
L 225.338374 120.193374 
L 226.320304 116.939313 
L 226.99515 114.750676 
L 227.331562 114.37273 
L 227.545076 114.380114 
L 227.7646 114.573496 
L 227.984124 115.015837 
L 228.281135 116.253991 
L 228.979551 121.027671 
L 229.557127 125.742855 
L 231.155074 139.865049 
L 231.689971 143.552491 
L 232.240038 146.005916 
L 232.481366 146.496561 
L 232.722694 146.570876 
L 232.964022 146.335498 
L 233.205351 145.807509 
L 233.567343 144.419361 
L 234.057951 141.456327 
L 235.237585 133.432751 
L 235.758114 131.025804 
L 236.123985 129.951349 
L 236.504755 129.599631 
L 236.695139 129.594988 
L 236.885524 129.722316 
L 237.269126 130.64998 
L 237.874517 133.163396 
L 240.886832 149.685198 
L 241.430144 150.955505 
L 241.705401 151.111704 
L 241.988286 150.909109 
L 242.279284 150.374509 
L 242.570283 149.450755 
L 243.158646 146.112388 
L 243.747009 140.868857 
L 244.335372 133.720396 
L 245.217917 118.866437 
L 246.688825 91.933762 
L 247.277188 85.489961 
L 247.571369 83.561101 
L 247.865551 82.657316 
L 248.159733 82.618632 
L 248.453914 83.320663 
L 249.112012 87.11967 
L 249.751465 92.302633 
L 251.916714 111.581922 
L 252.196894 112.295834 
L 252.376825 112.294609 
L 252.558579 111.917121 
L 252.869241 110.533666 
L 254.310782 102.882477 
L 254.438045 102.925536 
L 254.610755 103.354101 
L 254.955355 105.059727 
L 255.421197 108.560462 
L 257.29958 125.092084 
L 258.083 131.804707 
L 259.872499 148.698832 
L 260.569985 152.396417 
L 261.014101 154.727399 
L 261.71977 160.080396 
L 262.596038 169.607716 
L 263.201847 175.356755 
L 263.614438 177.509151 
L 263.946207 178.443258 
L 264.171166 178.451256 
L 264.451461 178.009463 
L 264.837299 176.999946 
L 267.478326 166.779581 
L 269.839915 155.556199 
L 270.331422 153.460501 
L 271.04071 148.962131 
L 271.592401 143.9112 
L 272.144093 137.237195 
L 272.86025 124.349616 
L 276.698205 45.401407 
L 277.251644 38.405505 
L 277.555764 36.502053 
L 277.652481 36.34846 
L 277.749197 36.435663 
L 277.942631 37.363121 
L 278.23278 40.359627 
L 278.649589 48.007748 
L 279.279099 65.346184 
L 280.486349 106.617622 
L 281.790309 148.789564 
L 282.474883 164.883411 
L 283.040264 173.366166 
L 283.356491 175.820265 
L 283.602011 176.514126 
L 283.76669 176.501249 
L 284.013709 175.940425 
L 284.343067 174.434058 
L 285.340526 169.273308 
L 285.638491 168.570473 
L 285.765015 168.5512 
L 285.961519 168.812336 
L 287.029692 170.682944 
L 287.352255 170.744755 
L 287.696296 170.680766 
L 287.869975 170.492688 
L 288.221623 169.545129 
L 288.865292 166.979811 
L 289.315112 163.636209 
L 289.808791 158.541367 
L 290.431432 148.830999 
L 291.191817 133.830229 
L 293.988758 76.166237 
L 294.597882 68.142327 
L 295.08997 64.132395 
L 295.422322 63.135276 
L 295.589515 63.215454 
L 295.756709 63.604101 
L 296.091466 65.63434 
L 296.59435 72.183462 
L 297.10004 83.004816 
L 297.983175 109.654941 
L 299.598307 163.724349 
L 300.288136 180.143883 
L 300.751752 187.063616 
L 301.132553 189.844569 
L 301.322953 190.328088 
L 301.418154 190.319953 
L 301.633155 189.724053 
L 301.937915 187.723079 
L 302.322228 183.396959 
L 303.282605 168.168818 
L 303.966079 158.28999 
L 304.643363 151.75229 
L 305.294194 148.104635 
L 305.981248 145.572113 
L 306.457601 144.29445 
L 306.897375 143.743743 
L 307.111166 143.729512 
L 307.324956 143.957363 
L 307.642616 144.85009 
L 308.733797 149.025616 
L 308.866516 148.910368 
L 309.004248 148.370473 
L 309.222583 146.451875 
L 309.535475 141.303532 
L 309.957435 129.649334 
L 310.473663 107.45735 
L 312.088132 30.504205 
L 312.473065 23.800522 
L 312.674066 22.948698 
L 312.7809 23.160841 
L 312.995127 24.866583 
L 313.325224 30.552989 
L 313.985416 48.509764 
L 315.117085 87.383824 
L 316.102358 119.552108 
L 316.62122 130.548741 
L 316.97381 134.37022 
L 317.252612 135.385866 
L 317.348439 135.360606 
L 317.540092 134.717871 
L 317.844157 132.139493 
L 318.297491 125.842902 
L 319.160132 112.616526 
L 319.635648 108.343211 
L 319.95266 107.145692 
L 320.269671 106.249455 
L 320.612529 103.906029 
L 321.983801 91.297025 
L 322.189193 91.057898 
L 322.383081 91.45527 
L 322.628024 92.867717 
L 323.021401 96.804551 
L 323.461163 103.780579 
L 324.227518 121.520119 
L 324.901241 134.821079 
L 325.462485 141.491212 
L 326.070209 147.9843 
L 327.238083 165.249123 
L 327.326828 165.291228 
L 327.513755 164.028942 
L 327.796705 158.89854 
L 328.187374 146.245517 
L 328.887021 112.275103 
L 330.779439 12.495256 
L 331.005501 10.062685 
L 331.118531 10.261178 
L 331.344593 13.580919 
L 331.691978 24.929638 
L 332.346744 55.910511 
L 333.651038 117.036509 
L 334.375392 143.514937 
L 334.624002 147.120936 
L 334.81046 147.640329 
L 334.97703 147.04072 
L 335.365693 144.013243 
L 335.762818 141.619418 
L 336.086568 140.046165 
L 336.325032 137.328793 
L 336.659236 130.538461 
L 337.111077 115.99272 
L 337.687292 87.354359 
L 338.696921 36.6281 
L 339.152853 24.129502 
L 339.404224 21.312393 
L 339.506968 21.162497 
L 339.611124 21.588065 
L 339.820707 24.097005 
L 340.14109 31.720464 
L 340.586071 48.75569 
L 341.638611 90.854338 
L 342.053731 97.622873 
L 342.556126 104.482006 
L 342.899002 113.151115 
L 343.30202 130.544353 
L 343.940001 171.723103 
L 344.62955 213.195925 
L 345.110083 230.512477 
L 345.382225 235.408156 
L 345.568135 236.109732 
L 345.755219 234.694856 
L 346.048609 229.095165 
L 346.531518 214.09297 
L 349.350182 113.564197 
L 349.632588 109.269643 
L 349.726723 108.765405 
L 349.820859 108.797979 
L 350.012378 110.584793 
L 350.303555 117.241642 
L 350.890839 138.206262 
L 351.528362 159.708093 
L 351.822962 163.481146 
L 351.972042 163.918954 
L 352.122361 163.855291 
L 352.355267 163.757863 
L 352.519454 164.290545 
L 352.769182 166.59512 
L 353.304709 175.365919 
L 354.406485 192.098422 
L 354.622053 193.163435 
L 354.711399 193.015279 
L 354.859804 191.864428 
L 355.068144 188.099966 
L 355.347259 178.695326 
L 355.79537 153.800366 
L 356.78452 94.966259 
L 357.135178 87.14763 
L 357.310994 86.545791 
L 357.492899 87.804609 
L 357.7746 92.812886 
L 358.166094 104.518792 
L 358.966612 129.224547 
L 359.173733 130.588563 
L 359.27978 130.104456 
L 359.513164 126.704483 
L 360.357756 108.763613 
L 360.478412 107.995575 
L 360.599068 108.095694 
L 360.719724 109.121502 
L 360.968962 114.167621 
L 361.342819 127.923198 
L 362.105096 167.987474 
L 362.991575 210.247475 
L 363.297146 218.575369 
L 363.506312 219.745168 
L 363.715477 216.556406 
L 364.029226 204.205254 
L 365.412175 134.666735 
L 365.646042 131.88759 
L 365.767454 131.820706 
L 365.888865 132.686216 
L 366.131689 137.080361 
L 366.495925 149.648616 
L 367.255906 178.827507 
L 367.382785 180.210686 
L 367.509664 179.977751 
L 367.746161 175.407289 
L 368.188751 157.479322 
L 368.609238 142.46183 
L 368.870477 138.746293 
L 368.958027 138.503953 
L 369.045576 138.731784 
L 369.226918 140.714318 
L 369.506893 147.835986 
L 369.88572 164.709828 
L 370.419619 200.94414 
L 371.053174 244.401322 
L 371.286335 250.653678 
L 371.366063 250.997315 
L 371.450335 250.375627 
L 371.622845 246.314103 
L 371.981657 230.017312 
L 373.009212 179.490888 
L 373.297779 172.712494 
L 373.393969 172.065733 
L 373.490158 172.256965 
L 373.682537 174.679247 
L 374.372709 186.031568 
L 374.477468 186.254666 
L 374.582226 185.771709 
L 374.792945 182.223294 
L 375.109022 170.07817 
L 376.401915 108.35244 
L 376.61783 106.930393 
L 376.833745 110.115304 
L 377.27672 124.852345 
L 377.959012 148.484601 
L 378.186813 151.280496 
L 378.300713 150.915589 
L 378.529006 147.142886 
L 378.974326 133.295964 
L 379.848271 104.364258 
L 379.892236 104.275946 
L 379.936202 104.387377 
L 380.074053 105.937154 
L 380.310723 112.072303 
L 380.711634 129.014312 
L 381.508637 163.187516 
L 381.674672 164.183999 
L 381.844034 161.382058 
L 382.098078 150.73814 
L 382.775527 108.261648 
L 383.933574 27.229198 
L 384.161732 23.739524 
L 384.237785 24.223965 
L 384.38989 27.342728 
L 384.770154 42.350059 
L 385.286516 60.158232 
L 385.562902 63.372095 
L 385.862704 65.586995 
L 386.277825 69.486003 
L 386.36331 69.270343 
L 386.53428 66.788496 
L 386.790736 58.169002 
L 387.42109 34.830178 
L 387.497654 34.396418 
L 387.574218 34.705863 
L 387.727346 37.373656 
L 388.036716 49.439242 
L 388.52406 81.141141 
L 389.424154 138.799593 
L 389.851806 159.559801 
L 390.148138 164.974344 
L 390.254584 164.415393 
L 390.472546 158.672866 
L 390.927344 133.564527 
L 391.758164 83.061533 
L 391.995542 79.025213 
L 392.232919 78.727333 
L 392.351607 78.539901 
L 392.707673 77.107173 
L 392.826362 77.202547 
L 392.94505 77.894787 
L 393.182428 81.563971 
L 393.538493 93.59098 
L 393.894559 105.977729 
L 394.013248 107.605347 
L 394.131936 107.693631 
L 394.378091 104.236449 
L 394.651225 96.253899 
L 395.51122 66.205712 
L 395.788866 63.934259 
L 395.933044 63.848699 
L 396.077221 64.56537 
L 396.365577 68.64335 
L 396.653932 77.653623 
L 397.882687 132.05139 
L 398.216461 138.075929 
L 398.327719 138.234974 
L 398.550235 136.080364 
L 399.330082 122.694008 
L 399.556223 122.661265 
L 399.669294 122.173827 
L 399.880636 118.698822 
L 400.372927 108.245325 
L 400.44043 108.134477 
L 400.575437 108.718993 
L 400.980458 111.08854 
L 401.115465 111.190409 
L 401.252115 110.694158 
L 401.393306 109.1387 
L 401.615974 103.792665 
L 402.598608 75.174926 
L 403.067672 63.532168 
L 403.353971 60.446544 
L 403.458196 60.239219 
L 403.562421 60.827634 
L 403.77087 64.699187 
L 404.191227 73.589801 
L 404.284984 73.589804 
L 404.660016 70.356457 
L 404.753774 70.60026 
L 404.968986 73.672035 
L 405.286798 77.654365 
L 405.393574 76.970162 
L 405.609844 72.423091 
L 405.958644 65.021305 
L 406.017927 64.724158 
L 406.077209 64.77178 
L 406.197847 65.764339 
L 406.641595 70.60127 
L 406.833848 71.439003 
L 406.962017 73.353639 
L 407.164843 81.183182 
L 408.006125 124.638269 
L 408.298346 139.141121 
L 408.625945 153.957132 
L 408.694468 154.269116 
L 408.840435 151.025357 
L 410.271307 93.34469 
L 410.370045 93.261612 
L 410.570688 98.404704 
L 410.903883 118.354667 
L 411.473319 150.018306 
L 412.563033 191.183289 
L 412.639091 191.415144 
L 412.71515 191.214098 
L 412.867266 189.258683 
L 413.096329 180.510474 
L 413.405382 155.744287 
L 413.918649 116.506154 
L 414.201 110.090918 
L 414.582796 106.170557 
L 414.66591 105.834583 
L 414.753459 105.940298 
L 414.935765 108.07133 
L 415.213123 116.664102 
L 415.582934 137.654363 
L 416.045197 161.85733 
L 416.330497 167.508028 
L 416.425778 168.054576 
L 416.521058 167.604695 
L 416.711618 162.471744 
L 417.759023 112.649637 
L 418.407585 100.467173 
L 418.731867 89.894141 
L 418.847879 89.202081 
L 418.96553 90.968773 
L 419.86319 121.428873 
L 420.330184 142.50814 
L 420.400512 143.119248 
L 420.471363 142.881959 
L 420.701828 138.47357 
L 421.56917 117.080612 
L 422.287756 89.277367 
L 422.361999 87.403561 
L 422.361999 87.403561 
" clip-path="url(#pa6cb9d5b52)" style="fill: none; stroke: #e36f47"/>
   </g>
   <g id="patch_3">
    <path d="M 69.557488 258.225354 
L 69.557488 2.834646 
" style="fill: none; stroke: #000000; stroke-linejoin: miter; stroke-linecap: square"/>
   </g>
   <g id="patch_4">
    <path d="M 69.557488 258.225354 
L 422.361999 258.225354 
" style="fill: none; stroke: #000000; stroke-linejoin: miter; stroke-linecap: square"/>
   </g>
   <g id="line2d_13">
    <path d="M 69.557488 125.361164 
L 69.716858 125.254239 
L 69.856664 125.260831 
L 70.364019 125.631299 
L 70.652975 125.410664 
L 70.897849 125.229137 
L 71.11069 125.281665 
L 71.400333 125.443423 
L 71.570941 125.358531 
L 72.089373 124.783766 
L 72.853533 125.173474 
L 73.057388 125.204217 
L 73.434159 125.766601 
L 73.681839 125.960149 
L 73.829896 125.913961 
L 74.121907 125.763136 
L 74.294361 125.819953 
L 74.711343 126.100603 
L 74.875798 125.94517 
L 75.308918 125.492972 
L 75.586201 125.666132 
L 75.84628 125.785282 
L 76.161179 125.547771 
L 76.395161 125.45641 
L 76.655679 125.608947 
L 76.909248 125.695848 
L 77.145213 125.518045 
L 77.460749 125.29747 
L 77.716452 125.413688 
L 77.95237 125.439576 
L 78.144561 125.200949 
L 78.729114 124.269484 
L 79.172616 124.010675 
L 79.741412 123.369091 
L 79.982484 123.560488 
L 80.417546 123.891177 
L 80.731783 124.098084 
L 81.096207 124.753911 
L 81.473979 125.227534 
L 81.930577 125.483169 
L 82.913101 126.733589 
L 83.14456 126.978242 
L 84.600507 129.62029 
L 84.980451 130.265221 
L 85.497088 130.989729 
L 85.95592 131.614166 
L 86.276858 131.624242 
L 86.562755 131.686596 
L 86.908467 132.099609 
L 87.407625 132.662202 
L 87.792496 133.095097 
L 88.764826 134.500377 
L 89.805102 135.466328 
L 90.284598 135.613484 
L 90.802518 135.823645 
L 91.48658 135.750257 
L 92.320397 136.152837 
L 93.043929 135.946666 
L 93.397684 135.64838 
L 94.217556 134.847506 
L 95.55215 134.085672 
L 95.958598 133.766898 
L 97.459672 131.966271 
L 98.176164 130.892022 
L 98.771443 130.261606 
L 99.217266 130.093487 
L 99.955026 129.880352 
L 100.587249 129.518435 
L 101.218695 128.777267 
L 101.729984 128.28331 
L 102.92006 127.587172 
L 104.386396 127.074406 
L 105.063345 126.412874 
L 106.043866 125.398645 
L 106.657979 125.121624 
L 107.758313 124.997978 
L 108.359778 124.554983 
L 109.232424 123.494682 
L 110.522383 121.87316 
L 111.393299 121.218654 
L 112.591936 120.428739 
L 113.907621 119.458836 
L 114.669751 119.278724 
L 115.494837 119.082176 
L 116.322073 118.52393 
L 117.391472 117.680275 
L 117.99799 117.480776 
L 118.441441 117.529576 
L 119.189505 117.922475 
L 120.766674 119.235447 
L 121.425677 119.97406 
L 122.42143 121.517929 
L 123.184744 122.656 
L 123.696657 123.162616 
L 124.348925 123.46596 
L 125.356235 123.546649 
L 127.029955 123.521626 
L 127.701256 123.168828 
L 128.45689 122.386232 
L 129.653915 121.055359 
L 130.46228 120.520213 
L 131.541501 119.834011 
L 133.778637 117.972378 
L 134.498527 117.810535 
L 135.465616 117.887234 
L 136.274094 118.150662 
L 136.815215 118.555561 
L 137.358403 119.257096 
L 137.945634 120.36943 
L 139.341168 123.775064 
L 141.4262 128.596778 
L 143.160553 132.230761 
L 147.068316 139.089755 
L 147.597918 139.425642 
L 148.039466 139.448805 
L 148.488878 139.259797 
L 149.1235 138.674689 
L 149.835667 137.586337 
L 150.609272 135.820295 
L 151.4094 133.33286 
L 153.746522 125.468108 
L 154.60493 123.652372 
L 155.212291 122.773265 
L 155.79734 122.202333 
L 156.39616 121.881347 
L 156.923276 121.805873 
L 157.746512 121.979333 
L 158.749986 122.255657 
L 159.293815 122.213072 
L 159.857936 121.962236 
L 161.958721 120.610734 
L 162.584067 120.624929 
L 163.190484 120.89324 
L 164.072115 121.661895 
L 165.224619 123.16069 
L 166.389129 124.624496 
L 166.877658 124.944084 
L 167.41258 124.965865 
L 167.920847 124.636602 
L 168.505958 123.842525 
L 169.246108 122.245554 
L 170.066652 119.73924 
L 170.946276 116.263389 
L 173.05024 107.231598 
L 173.811412 105.05459 
L 174.333639 104.186941 
L 174.804487 103.90571 
L 175.077995 103.979381 
L 175.542979 104.528736 
L 176.04952 105.760104 
L 176.548286 107.618229 
L 177.291304 111.470704 
L 178.393438 118.906807 
L 181.587968 141.850647 
L 182.521789 146.899661 
L 183.224987 149.741995 
L 183.956188 151.747744 
L 184.446856 152.563665 
L 184.948384 152.979545 
L 185.430213 152.994342 
L 185.899664 152.6488 
L 186.394225 151.894716 
L 186.95667 150.5463 
L 187.512541 148.715507 
L 188.430425 144.767287 
L 189.709634 138.024353 
L 191.313462 129.453054 
L 192.077496 126.309704 
L 192.622787 124.825791 
L 193.099316 124.18998 
L 193.406758 124.141994 
L 193.770431 124.464136 
L 194.217214 125.412433 
L 194.632904 126.809942 
L 195.353994 130.265386 
L 196.3817 136.772346 
L 197.970256 146.883685 
L 198.525208 149.339184 
L 199.104406 151.00374 
L 199.461486 151.578378 
L 199.859095 151.841653 
L 200.236064 151.765351 
L 200.612953 151.41555 
L 201.128561 150.567329 
L 201.800562 148.945254 
L 202.768037 145.835489 
L 203.879236 141.357828 
L 204.761544 136.832709 
L 205.529861 131.661685 
L 206.436063 123.636042 
L 207.457268 112.335456 
L 209.146443 93.505368 
L 209.720776 89.145298 
L 210.22107 86.918231 
L 210.410214 86.515168 
L 210.603858 86.36695 
L 210.801288 86.497199 
L 211.155936 87.44996 
L 211.510433 89.305037 
L 212.025504 93.469005 
L 212.82917 102.622286 
L 214.775917 126.503421 
L 215.489338 131.894073 
L 216.065969 134.341957 
L 216.424577 135.079006 
L 216.81919 135.295419 
L 217.003754 135.207294 
L 217.431827 134.602227 
L 217.839615 133.578833 
L 218.4582 131.373849 
L 220.766681 122.174625 
L 221.317394 121.155458 
L 221.828002 120.63856 
L 222.560683 120.271712 
L 223.396456 120.120714 
L 224.104085 120.250124 
L 224.826757 120.40516 
L 225.294001 120.220643 
L 225.70615 119.701488 
L 226.211704 118.565193 
L 227.325574 115.584206 
L 227.693307 115.238466 
L 227.883412 115.315843 
L 228.188849 115.863678 
L 228.561975 117.283963 
L 229.093323 120.622619 
L 229.952053 127.972022 
L 231.11616 137.740573 
L 231.901852 142.662852 
L 232.385787 144.676178 
L 232.704966 145.451619 
L 233.034607 145.724509 
L 233.331595 145.483972 
L 233.655866 144.694185 
L 234.177636 142.402588 
L 235.228396 135.856881 
L 235.815378 132.832113 
L 236.284865 131.479364 
L 236.590283 131.199426 
L 236.751937 131.241414 
L 237.053415 131.642638 
L 237.459344 132.748428 
L 238.109436 135.456975 
L 239.422226 142.317417 
L 240.585373 148.002832 
L 241.161684 149.891043 
L 241.454188 150.414661 
L 241.730315 150.570969 
L 242.024428 150.334663 
L 242.298183 149.722146 
L 242.688613 148.192062 
L 243.255291 144.661293 
L 243.873002 139.115546 
L 244.497127 131.592299 
L 245.342533 118.285704 
L 247.126476 88.670235 
L 247.618358 84.048487 
L 247.900698 82.574963 
L 248.181421 81.988321 
L 248.29982 81.994532 
L 248.466245 82.241127 
L 248.727944 83.141856 
L 249.120002 85.450947 
L 249.846324 91.499164 
L 252.020411 110.61693 
L 252.437009 112.207863 
L 252.644353 112.460191 
L 252.813101 112.393106 
L 253.056731 111.874902 
L 253.497716 109.967661 
L 254.308748 105.891921 
L 254.567726 105.259587 
L 254.725192 105.168608 
L 254.885138 105.330568 
L 255.202408 106.430189 
L 255.663302 109.677451 
L 257.789117 128.326698 
L 258.625003 134.374913 
L 259.63157 143.835724 
L 260.649161 152.664504 
L 262.455011 166.143026 
L 263.733184 177.882758 
L 264.13497 179.715107 
L 264.437873 180.160427 
L 264.576575 180.10389 
L 264.87997 179.478108 
L 265.283729 177.796574 
L 266.001539 173.494725 
L 267.593183 163.847712 
L 268.865009 157.237537 
L 269.394217 155.436438 
L 270.784073 151.738829 
L 271.163131 149.656564 
L 271.693789 145.320519 
L 272.269528 138.51216 
L 272.901137 128.05621 
L 273.737685 109.297293 
L 275.446413 68.714554 
L 276.428745 51.052936 
L 277.135177 41.725601 
L 277.590174 38.437505 
L 277.835638 38.001472 
L 277.966548 38.237406 
L 278.205057 39.60115 
L 278.486026 42.873 
L 278.875517 50.458588 
L 279.360248 64.27004 
L 280.527441 106.574121 
L 281.500952 138.41466 
L 282.402816 161.341089 
L 283.004863 172.147444 
L 283.497069 177.326381 
L 283.798048 178.715601 
L 283.966945 178.930767 
L 284.131319 178.782264 
L 284.382646 177.942524 
L 284.749658 175.660342 
L 285.944512 166.95795 
L 286.266457 165.998233 
L 286.405119 165.870651 
L 286.563617 165.925066 
L 286.849123 166.484383 
L 287.408813 168.532449 
L 287.828677 169.903554 
L 288.102061 170.316952 
L 288.262359 170.316941 
L 288.432783 170.098972 
L 288.765306 168.999276 
L 289.102062 166.968293 
L 289.599977 162.301844 
L 290.159849 154.731752 
L 290.998439 139.454829 
L 293.236444 91.566334 
L 294.306096 70.483793 
L 294.807549 64.353285 
L 295.126604 62.386702 
L 295.282803 62.007354 
L 295.422591 61.992098 
L 295.556704 62.259402 
L 295.842423 63.711278 
L 296.277876 68.051971 
L 296.745002 75.248671 
L 297.386995 88.988618 
L 298.201666 112.177458 
L 300.376003 180.415053 
L 300.764587 186.407256 
L 301.168713 189.415889 
L 301.294848 189.727372 
L 301.44041 189.754107 
L 301.653644 189.19483 
L 301.878756 187.924543 
L 302.261437 184.495864 
L 302.861184 176.828284 
L 304.76233 150.074015 
L 305.260565 146.439749 
L 305.626032 145.064759 
L 305.98508 144.542713 
L 306.264826 144.517649 
L 306.644234 144.712463 
L 307.135538 145.24078 
L 307.745993 146.296973 
L 308.563836 147.88358 
L 308.739054 147.86347 
L 308.900665 147.551605 
L 309.149305 146.299218 
L 309.401101 143.770024 
L 309.685312 138.949118 
L 310.081859 128.081385 
L 310.596091 106.891845 
L 312.340994 27.43201 
L 312.641066 22.373363 
L 312.849643 21.202096 
L 312.949707 21.312475 
L 313.175626 23.075835 
L 313.519508 29.321908 
L 313.98242 42.884909 
L 314.910754 78.923159 
L 315.774955 110.203197 
L 316.281119 122.870292 
L 316.76799 130.35916 
L 317.100896 132.998564 
L 317.373313 133.743061 
L 317.492671 133.695477 
L 317.644071 133.335312 
L 317.894571 132.068653 
L 318.274186 128.885334 
L 319.040385 119.897827 
L 319.988278 109.162654 
L 321.858432 91.800452 
L 322.133116 91.228993 
L 322.315115 91.516591 
L 322.590214 92.904497 
L 322.975603 96.559013 
L 323.432152 103.23742 
L 324.118456 117.464093 
L 325.049984 137.158076 
L 325.704014 146.106486 
L 326.607276 157.75745 
L 327.176782 164.555808 
L 327.365414 165.353564 
L 327.468353 165.274494 
L 327.649134 164.101059 
L 327.846668 161.14949 
L 328.15866 152.799392 
L 328.619024 133.039894 
L 329.462986 83.844887 
L 330.428325 30.36643 
L 330.887602 15.083926 
L 331.123569 11.855709 
L 331.19783 11.58796 
L 331.266579 11.668167 
L 331.411637 12.869422 
L 331.605965 16.601866 
L 331.933534 27.670454 
L 332.610088 61.456841 
L 333.653592 111.713885 
L 334.420786 139.212731 
L 334.850368 148.050822 
L 335.087856 149.873852 
L 335.164201 150.002957 
L 335.234581 149.942158 
L 335.358262 149.461317 
L 335.638289 147.063249 
L 336.229663 139.357604 
L 336.67251 131.232108 
L 337.063714 120.274836 
L 337.588533 98.673287 
L 339.236999 22.032033 
L 339.525454 18.087393 
L 339.603096 17.834664 
L 339.684168 17.940545 
L 339.864854 19.500896 
L 340.129181 24.785972 
L 340.542562 38.404344 
L 342.227081 101.742406 
L 343.02625 119.520045 
L 343.492597 138.010312 
L 344.034033 169.737679 
L 344.973554 224.560027 
L 345.322673 234.146856 
L 345.575465 236.203699 
L 345.650576 236.091525 
L 345.790606 235.091981 
L 346.070653 230.458341 
L 346.512853 217.801535 
L 347.491099 180.114764 
L 349.000484 124.691214 
L 349.486968 113.867861 
L 349.778286 110.986109 
L 349.909674 110.635648 
L 349.972387 110.684154 
L 350.105474 111.268654 
L 350.318088 113.644712 
L 350.6041 119.840431 
L 351.072132 136.328116 
L 351.79351 161.68026 
L 352.160175 167.985374 
L 352.419069 169.454511 
L 352.584223 169.457538 
L 353.02725 168.621933 
L 353.093499 168.692967 
L 353.219388 169.138802 
L 353.434807 170.980502 
L 353.814183 177.057982 
L 354.471455 187.662231 
L 354.735126 188.923822 
L 354.813605 188.809819 
L 354.965967 187.883369 
L 355.196877 184.581339 
L 355.528322 175.568932 
L 355.924691 158.147033 
L 357.319079 88.92147 
L 357.514026 87.057126 
L 357.5864 86.99733 
L 357.690559 87.456336 
L 357.877416 89.684493 
L 358.223688 97.33589 
L 359.438248 128.279911 
L 359.636218 129.200595 
L 359.764135 128.724768 
L 360.000854 125.914612 
L 360.726033 115.592315 
L 360.78467 115.59186 
L 360.900362 116.189606 
L 361.101099 119.116688 
L 361.398575 127.361897 
L 361.926905 149.396039 
L 363.393957 215.143875 
L 363.679529 219.183498 
L 363.729214 219.243711 
L 363.845123 218.572176 
L 364.017474 215.419591 
L 364.321059 203.898503 
L 364.965304 165.125452 
L 365.47621 141.240816 
L 365.803682 135.137673 
L 366.000661 134.507319 
L 366.133749 135.102705 
L 366.340103 137.450773 
L 366.641053 143.89471 
L 367.127002 160.706716 
L 367.591116 174.589547 
L 367.783917 176.281634 
L 367.842069 176.193041 
L 367.95179 175.288233 
L 368.174479 170.885266 
L 369.190359 144.872384 
L 369.316519 144.359666 
L 369.368102 144.427156 
L 369.492825 145.309218 
L 369.717352 149.730045 
L 369.996019 160.829383 
L 370.45969 191.085466 
L 371.125013 233.41119 
L 371.428188 241.974571 
L 371.585387 243.183636 
L 371.639329 243.118813 
L 371.758134 242.160223 
L 371.978471 237.634382 
L 372.33837 223.838952 
L 373.452332 175.169125 
L 373.766583 170.392505 
L 373.944153 169.743523 
L 374.073886 170.113357 
L 374.32941 172.354409 
L 374.733304 175.824128 
L 374.788972 175.885601 
L 374.917773 175.392622 
L 375.116087 172.703879 
L 375.358754 166.095614 
L 375.759673 147.755837 
L 376.533213 108.584104 
L 376.745806 105.225349 
L 376.811295 105.018735 
L 376.867789 105.121472 
L 377.043309 106.871244 
L 377.338921 113.72003 
L 377.782413 130.997462 
L 378.19374 145.737187 
L 378.398303 148.027456 
L 378.461849 147.908924 
L 378.593695 146.559065 
L 378.910818 139.145982 
L 379.877854 113.446964 
L 380.066213 111.910459 
L 380.135488 111.811654 
L 380.186131 111.896045 
L 380.311893 112.664176 
L 380.524106 115.659809 
L 380.83761 123.657544 
L 381.362068 144.671649 
L 381.779457 158.328783 
L 381.93843 159.514869 
L 382.036481 158.757923 
L 382.241698 153.56328 
L 382.599425 135.866922 
L 383.263325 89.759678 
L 384.135996 27.711337 
L 384.388188 21.499168 
L 384.44091 21.284501 
L 384.49413 21.439698 
L 384.643454 23.711889 
L 384.919578 33.106259 
L 385.509699 53.518669 
L 385.740818 55.916771 
L 385.913488 56.184168 
L 386.122371 56.26878 
L 386.290289 56.914729 
L 386.792292 59.982521 
L 386.849016 59.940448 
L 386.964841 59.378076 
L 387.185846 56.545289 
L 387.846735 46.076129 
L 387.895455 46.059568 
L 388.001055 46.651892 
L 388.156245 49.210292 
L 388.41886 58.440545 
L 388.786602 80.872512 
L 389.677898 139.14592 
L 390.126119 154.126711 
L 390.379317 157.335887 
L 390.438108 157.458653 
L 390.494358 157.343268 
L 390.63874 155.980139 
L 390.847023 151.291315 
L 391.193546 137.016472 
L 392.391517 78.427387 
L 392.628016 76.80961 
L 392.906354 76.502314 
L 393.246646 76.203386 
L 393.360177 76.592549 
L 393.563741 78.772579 
L 393.795466 84.055639 
L 394.547943 104.08599 
L 394.652702 104.363069 
L 394.778722 103.451018 
L 394.970868 99.62276 
L 395.387877 84.60987 
L 395.891788 68.304833 
L 396.156014 65.504672 
L 396.215964 65.456236 
L 396.328125 65.871061 
L 396.552116 68.41139 
L 396.845166 74.861204 
L 397.212821 88.432301 
L 398.204099 129.454696 
L 398.601553 136.314175 
L 398.795085 137.473729 
L 398.886418 137.394372 
L 399.028473 136.435072 
L 399.271886 132.805743 
L 400.921068 103.120998 
L 401.057162 102.552778 
L 401.107823 102.597799 
L 401.266932 103.400481 
L 401.586969 105.137896 
L 401.685092 104.844379 
L 401.835385 103.183792 
L 402.136412 96.039973 
L 402.842657 78.153835 
L 403.96318 59.866915 
L 403.996197 59.874253 
L 404.119802 60.441901 
L 404.367712 63.329547 
L 404.795763 67.827651 
L 405.291995 70.905658 
L 405.894625 76.516838 
L 406.002198 76.198055 
L 406.376034 74.21437 
L 406.415051 74.252654 
L 406.531288 74.876495 
L 406.780071 78.314446 
L 407.52848 92.698504 
L 407.925726 110.921631 
L 408.413142 129.215106 
L 409.152463 146.410336 
L 409.205634 146.463382 
L 409.303496 145.796962 
L 409.512381 141.651593 
L 410.520374 117.014519 
L 410.707235 115.484063 
L 410.753344 115.49718 
L 410.845239 116.054014 
L 410.997723 118.600965 
L 411.258158 127.337105 
L 412.562452 180.302501 
L 412.874377 185.204802 
L 412.962001 185.387184 
L 413.059107 184.851701 
L 413.228523 182.03306 
L 413.479621 173.524954 
L 413.864224 150.349029 
L 414.523084 109.067446 
L 414.757942 105.411481 
L 414.80606 105.311822 
L 414.854581 105.369891 
L 414.994901 106.198132 
L 415.284381 109.613332 
L 415.620653 116.229165 
L 415.962875 128.093305 
L 416.754589 158.918342 
L 416.872149 159.536495 
L 416.967734 159.017155 
L 417.146477 155.842209 
L 417.448925 145.016309 
L 418.507171 100.739444 
L 418.847881 96.686474 
L 419.244853 93.873718 
L 419.325143 93.794277 
L 419.364003 93.880548 
L 419.500323 95.027149 
L 419.665515 98.512277 
L 420.045416 113.571333 
L 420.567716 132.285446 
L 420.892664 137.158529 
L 420.966767 137.300517 
L 421.003519 137.202282 
L 421.134349 135.870894 
L 421.345093 130.668806 
L 422.361999 99.989627 
L 422.361999 99.989627 
" clip-path="url(#pa6cb9d5b52)" style="fill: none; stroke: #3ea44e"/>
   </g>
   <g id="legend_1">
    <g id="patch_5">
     <path d="M 332.945749 50.862146 
L 418.361999 50.862146 
L 418.361999 6.834646 
L 332.945749 6.834646 
z
" style="fill: #ffffff; stroke: #000000; stroke-linejoin: miter"/>
    </g>
    <g id="line2d_14">
     <path d="M 339.345749 16.513396 
L 347.345749 16.513396 
L 355.345749 16.513396 
" style="fill: none; stroke: #009afa; stroke-linejoin: miter"/>
    </g>
    <g id="text_13">
     <!-- GXBeam -->
     <g transform="translate(361.745749 19.313396) scale(0.08 -0.08)">
      <defs>
       <path id="DejaVuSans-47" d="M 3809 666 
L 3809 1919 
L 2778 1919 
L 2778 2438 
L 4434 2438 
L 4434 434 
Q 4069 175 3628 42 
Q 3188 -91 2688 -91 
Q 1594 -91 976 548 
Q 359 1188 359 2328 
Q 359 3472 976 4111 
Q 1594 4750 2688 4750 
Q 3144 4750 3555 4637 
Q 3966 4525 4313 4306 
L 4313 3634 
Q 3963 3931 3569 4081 
Q 3175 4231 2741 4231 
Q 1884 4231 1454 3753 
Q 1025 3275 1025 2328 
Q 1025 1384 1454 906 
Q 1884 428 2741 428 
Q 3075 428 3337 486 
Q 3600 544 3809 666 
z
" transform="scale(0.015625)"/>
       <path id="DejaVuSans-58" d="M 403 4666 
L 1081 4666 
L 2241 2931 
L 3406 4666 
L 4084 4666 
L 2584 2425 
L 4184 0 
L 3506 0 
L 2194 1984 
L 872 0 
L 191 0 
L 1856 2491 
L 403 4666 
z
" transform="scale(0.015625)"/>
       <path id="DejaVuSans-42" d="M 1259 2228 
L 1259 519 
L 2272 519 
Q 2781 519 3026 730 
Q 3272 941 3272 1375 
Q 3272 1813 3026 2020 
Q 2781 2228 2272 2228 
L 1259 2228 
z
M 1259 4147 
L 1259 2741 
L 2194 2741 
Q 2656 2741 2882 2914 
Q 3109 3088 3109 3444 
Q 3109 3797 2882 3972 
Q 2656 4147 2194 4147 
L 1259 4147 
z
M 628 4666 
L 2241 4666 
Q 2963 4666 3353 4366 
Q 3744 4066 3744 3513 
Q 3744 3084 3544 2831 
Q 3344 2578 2956 2516 
Q 3422 2416 3680 2098 
Q 3938 1781 3938 1306 
Q 3938 681 3513 340 
Q 3088 0 2303 0 
L 628 0 
L 628 4666 
z
" transform="scale(0.015625)"/>
       <path id="DejaVuSans-61" d="M 2194 1759 
Q 1497 1759 1228 1600 
Q 959 1441 959 1056 
Q 959 750 1161 570 
Q 1363 391 1709 391 
Q 2188 391 2477 730 
Q 2766 1069 2766 1631 
L 2766 1759 
L 2194 1759 
z
M 3341 1997 
L 3341 0 
L 2766 0 
L 2766 531 
Q 2569 213 2275 61 
Q 1981 -91 1556 -91 
Q 1019 -91 701 211 
Q 384 513 384 1019 
Q 384 1609 779 1909 
Q 1175 2209 1959 2209 
L 2766 2209 
L 2766 2266 
Q 2766 2663 2505 2880 
Q 2244 3097 1772 3097 
Q 1472 3097 1187 3025 
Q 903 2953 641 2809 
L 641 3341 
Q 956 3463 1253 3523 
Q 1550 3584 1831 3584 
Q 2591 3584 2966 3190 
Q 3341 2797 3341 1997 
z
" transform="scale(0.015625)"/>
      </defs>
      <use xlink:href="#DejaVuSans-47"/>
      <use xlink:href="#DejaVuSans-58" x="77.490234"/>
      <use xlink:href="#DejaVuSans-42" x="145.996094"/>
      <use xlink:href="#DejaVuSans-65" x="214.599609"/>
      <use xlink:href="#DejaVuSans-61" x="276.123047"/>
      <use xlink:href="#DejaVuSans-6d" x="337.402344"/>
     </g>
    </g>
    <g id="line2d_15">
     <path d="M 339.345749 28.255896 
L 347.345749 28.255896 
L 355.345749 28.255896 
" style="fill: none; stroke: #e36f47; stroke-linejoin: miter"/>
    </g>
    <g id="text_14">
     <!-- ODEProblem -->
     <g transform="translate(361.745749 31.055896) scale(0.08 -0.08)">
      <defs>
       <path id="DejaVuSans-4f" d="M 2522 4238 
Q 1834 4238 1429 3725 
Q 1025 3213 1025 2328 
Q 1025 1447 1429 934 
Q 1834 422 2522 422 
Q 3209 422 3611 934 
Q 4013 1447 4013 2328 
Q 4013 3213 3611 3725 
Q 3209 4238 2522 4238 
z
M 2522 4750 
Q 3503 4750 4090 4092 
Q 4678 3434 4678 2328 
Q 4678 1225 4090 567 
Q 3503 -91 2522 -91 
Q 1538 -91 948 565 
Q 359 1222 359 2328 
Q 359 3434 948 4092 
Q 1538 4750 2522 4750 
z
" transform="scale(0.015625)"/>
       <path id="DejaVuSans-44" d="M 1259 4147 
L 1259 519 
L 2022 519 
Q 2988 519 3436 956 
Q 3884 1394 3884 2338 
Q 3884 3275 3436 3711 
Q 2988 4147 2022 4147 
L 1259 4147 
z
M 628 4666 
L 1925 4666 
Q 3281 4666 3915 4102 
Q 4550 3538 4550 2338 
Q 4550 1131 3912 565 
Q 3275 0 1925 0 
L 628 0 
L 628 4666 
z
" transform="scale(0.015625)"/>
       <path id="DejaVuSans-45" d="M 628 4666 
L 3578 4666 
L 3578 4134 
L 1259 4134 
L 1259 2753 
L 3481 2753 
L 3481 2222 
L 1259 2222 
L 1259 531 
L 3634 531 
L 3634 0 
L 628 0 
L 628 4666 
z
" transform="scale(0.015625)"/>
       <path id="DejaVuSans-50" d="M 1259 4147 
L 1259 2394 
L 2053 2394 
Q 2494 2394 2734 2622 
Q 2975 2850 2975 3272 
Q 2975 3691 2734 3919 
Q 2494 4147 2053 4147 
L 1259 4147 
z
M 628 4666 
L 2053 4666 
Q 2838 4666 3239 4311 
Q 3641 3956 3641 3272 
Q 3641 2581 3239 2228 
Q 2838 1875 2053 1875 
L 1259 1875 
L 1259 0 
L 628 0 
L 628 4666 
z
" transform="scale(0.015625)"/>
       <path id="DejaVuSans-72" d="M 2631 2963 
Q 2534 3019 2420 3045 
Q 2306 3072 2169 3072 
Q 1681 3072 1420 2755 
Q 1159 2438 1159 1844 
L 1159 0 
L 581 0 
L 581 3500 
L 1159 3500 
L 1159 2956 
Q 1341 3275 1631 3429 
Q 1922 3584 2338 3584 
Q 2397 3584 2469 3576 
Q 2541 3569 2628 3553 
L 2631 2963 
z
" transform="scale(0.015625)"/>
       <path id="DejaVuSans-6f" d="M 1959 3097 
Q 1497 3097 1228 2736 
Q 959 2375 959 1747 
Q 959 1119 1226 758 
Q 1494 397 1959 397 
Q 2419 397 2687 759 
Q 2956 1122 2956 1747 
Q 2956 2369 2687 2733 
Q 2419 3097 1959 3097 
z
M 1959 3584 
Q 2709 3584 3137 3096 
Q 3566 2609 3566 1747 
Q 3566 888 3137 398 
Q 2709 -91 1959 -91 
Q 1206 -91 779 398 
Q 353 888 353 1747 
Q 353 2609 779 3096 
Q 1206 3584 1959 3584 
z
" transform="scale(0.015625)"/>
       <path id="DejaVuSans-62" d="M 3116 1747 
Q 3116 2381 2855 2742 
Q 2594 3103 2138 3103 
Q 1681 3103 1420 2742 
Q 1159 2381 1159 1747 
Q 1159 1113 1420 752 
Q 1681 391 2138 391 
Q 2594 391 2855 752 
Q 3116 1113 3116 1747 
z
M 1159 2969 
Q 1341 3281 1617 3432 
Q 1894 3584 2278 3584 
Q 2916 3584 3314 3078 
Q 3713 2572 3713 1747 
Q 3713 922 3314 415 
Q 2916 -91 2278 -91 
Q 1894 -91 1617 61 
Q 1341 213 1159 525 
L 1159 0 
L 581 0 
L 581 4863 
L 1159 4863 
L 1159 2969 
z
" transform="scale(0.015625)"/>
       <path id="DejaVuSans-6c" d="M 603 4863 
L 1178 4863 
L 1178 0 
L 603 0 
L 603 4863 
z
" transform="scale(0.015625)"/>
      </defs>
      <use xlink:href="#DejaVuSans-4f"/>
      <use xlink:href="#DejaVuSans-44" x="78.710938"/>
      <use xlink:href="#DejaVuSans-45" x="155.712891"/>
      <use xlink:href="#DejaVuSans-50" x="218.896484"/>
      <use xlink:href="#DejaVuSans-72" x="277.449219"/>
      <use xlink:href="#DejaVuSans-6f" x="316.3125"/>
      <use xlink:href="#DejaVuSans-62" x="377.494141"/>
      <use xlink:href="#DejaVuSans-6c" x="440.970703"/>
      <use xlink:href="#DejaVuSans-65" x="468.753906"/>
      <use xlink:href="#DejaVuSans-6d" x="530.277344"/>
     </g>
    </g>
    <g id="line2d_16">
     <path d="M 339.345749 39.998396 
L 347.345749 39.998396 
L 355.345749 39.998396 
" style="fill: none; stroke: #3ea44e; stroke-linejoin: miter"/>
    </g>
    <g id="text_15">
     <!-- DAEProblem -->
     <g transform="translate(361.745749 42.798396) scale(0.08 -0.08)">
      <defs>
       <path id="DejaVuSans-41" d="M 2188 4044 
L 1331 1722 
L 3047 1722 
L 2188 4044 
z
M 1831 4666 
L 2547 4666 
L 4325 0 
L 3669 0 
L 3244 1197 
L 1141 1197 
L 716 0 
L 50 0 
L 1831 4666 
z
" transform="scale(0.015625)"/>
      </defs>
      <use xlink:href="#DejaVuSans-44"/>
      <use xlink:href="#DejaVuSans-41" x="75.251953"/>
      <use xlink:href="#DejaVuSans-45" x="143.660156"/>
      <use xlink:href="#DejaVuSans-50" x="206.84375"/>
      <use xlink:href="#DejaVuSans-72" x="265.396484"/>
      <use xlink:href="#DejaVuSans-6f" x="304.259766"/>
      <use xlink:href="#DejaVuSans-62" x="365.441406"/>
      <use xlink:href="#DejaVuSans-6c" x="428.917969"/>
      <use xlink:href="#DejaVuSans-65" x="456.701172"/>
      <use xlink:href="#DejaVuSans-6d" x="518.224609"/>
     </g>
    </g>
   </g>
  </g>
 </g>
 <defs>
  <clipPath id="pa6cb9d5b52">
   <rect x="69.557488" y="2.834646" width="352.804512" height="255.390709"/>
  </clipPath>
 </defs>
</svg>
