<?xml version="1.0" encoding="utf-8" standalone="no"?>
<!DOCTYPE svg PUBLIC "-//W3C//DTD SVG 1.1//EN"
  "http://www.w3.org/Graphics/SVG/1.1/DTD/svg11.dtd">
<svg xmlns:xlink="http://www.w3.org/1999/xlink" width="432pt" height="288pt" viewBox="0 0 432 288" xmlns="http://www.w3.org/2000/svg" version="1.1">
 <metadata>
  <rdf:RDF xmlns:dc="http://purl.org/dc/elements/1.1/" xmlns:cc="http://creativecommons.org/ns#" xmlns:rdf="http://www.w3.org/1999/02/22-rdf-syntax-ns#">
   <cc:Work>
    <dc:type rdf:resource="http://purl.org/dc/dcmitype/StillImage"/>
    <dc:date>2023-02-17T20:53:28.563507</dc:date>
    <dc:format>image/svg+xml</dc:format>
    <dc:creator>
     <cc:Agent>
      <dc:title>Matplotlib v3.7.0, https://matplotlib.org/</dc:title>
     </cc:Agent>
    </dc:creator>
   </cc:Work>
  </rdf:RDF>
 </metadata>
 <defs>
  <style type="text/css">*{stroke-linejoin: round; stroke-linecap: butt}</style>
 </defs>
 <g id="figure_1">
  <g id="patch_1">
   <path d="M 0 288 
L 432 288 
L 432 0 
L 0 0 
z
" style="fill: #ffffff"/>
  </g>
  <g id="axes_1">
   <g id="patch_2">
    <path d="M 36.567899 258.225354 
L 422.361999 258.225354 
L 422.361999 2.834646 
L 36.567899 2.834646 
z
" style="fill: #ffffff"/>
   </g>
   <g id="line2d_1">
    <path d="M 36.567899 135.634429 
L 41.390325 135.532932 
L 44.283781 135.219814 
L 47.370134 134.683893 
L 49.684898 133.970092 
L 52.385457 132.819632 
L 54.700222 131.949444 
L 56.436295 131.124368 
L 58.172368 130.048517 
L 63.380589 126.539957 
L 65.309559 125.405699 
L 68.395912 123.760454 
L 69.746191 123.297097 
L 72.253853 122.49498 
L 74.182824 121.69811 
L 76.497588 120.65668 
L 77.462073 120.399764 
L 78.619456 120.319261 
L 79.583941 120.470381 
L 80.548426 120.852093 
L 82.091603 121.679839 
L 85.949544 124.070095 
L 86.914029 124.355881 
L 88.071411 124.457573 
L 89.035896 124.293869 
L 90.193279 123.80175 
L 92.315146 122.893671 
L 93.086735 122.756856 
L 94.244117 122.784624 
L 95.015705 123.036913 
L 95.787293 123.516001 
L 96.751779 124.407388 
L 97.716264 125.607862 
L 98.680749 127.138899 
L 99.838131 129.456723 
L 101.188411 132.749795 
L 102.924484 137.652755 
L 104.853455 143.858502 
L 106.975322 151.274193 
L 109.09719 158.594729 
L 110.254572 161.825804 
L 111.219057 163.82776 
L 111.797748 164.602196 
L 112.37644 165.017642 
L 112.762234 165.072454 
L 113.148028 164.935009 
L 113.726719 164.398286 
L 114.30541 163.464865 
L 114.884101 162.141259 
L 115.655689 159.704208 
L 116.620175 155.654289 
L 117.777557 149.484368 
L 119.706527 137.563258 
L 121.635498 125.996889 
L 122.79288 120.367746 
L 123.757366 116.575331 
L 124.914748 112.8824 
L 126.07213 109.943911 
L 127.422409 107.136207 
L 131.087453 100.143002 
L 132.051939 98.844199 
L 132.823527 98.241389 
L 133.402218 98.030673 
L 133.788012 98.05072 
L 134.366703 98.360304 
L 134.945394 98.964787 
L 135.716983 100.239236 
L 136.681468 102.40053 
L 137.83885 105.596334 
L 141.1181 115.286789 
L 141.889688 116.861652 
L 142.468379 117.672265 
L 143.047071 118.131224 
L 143.432865 118.220164 
L 143.818659 118.128368 
L 144.39735 117.680917 
L 144.976041 116.925134 
L 145.747629 115.581317 
L 149.219776 108.635962 
L 149.991364 107.721102 
L 150.762953 107.037167 
L 151.920335 106.394876 
L 152.88482 106.122131 
L 153.849305 106.091308 
L 155.199585 106.345298 
L 155.971173 106.718296 
L 156.742761 107.374007 
L 157.514349 108.430775 
L 158.285938 109.95599 
L 159.057526 112.015872 
L 159.829114 114.67407 
L 160.600702 118.060808 
L 161.565187 123.297832 
L 162.915467 132.053868 
L 166.966305 159.286897 
L 168.316584 166.072751 
L 169.859761 172.515863 
L 171.017143 176.435782 
L 171.981628 179.019467 
L 172.753216 180.45302 
L 173.331907 180.982591 
L 173.717702 181.020544 
L 174.103496 180.713065 
L 174.48929 180.044753 
L 174.875084 178.978314 
L 175.453775 176.552559 
L 176.032466 173.11132 
L 176.804054 166.826179 
L 177.575643 158.517254 
L 178.540128 145.2579 
L 179.890407 122.696584 
L 181.819378 90.384155 
L 182.783863 78.118725 
L 183.555451 71.264446 
L 184.134142 68.05446 
L 184.519936 66.816065 
L 184.90573 66.232666 
L 185.098627 66.15527 
L 185.484422 66.359745 
L 185.870216 66.974042 
L 186.641804 68.92218 
L 187.606289 71.358762 
L 187.992083 71.968439 
L 188.377877 72.231358 
L 188.570774 72.191186 
L 188.956568 71.728234 
L 189.342363 70.756628 
L 189.728157 69.233944 
L 190.306848 65.854525 
L 191.078436 59.654191 
L 193.200304 41.145297 
L 193.778995 38.390141 
L 194.164789 37.505853 
L 194.357686 37.369232 
L 194.550583 37.44041 
L 194.74348 37.724071 
L 195.129274 38.919895 
L 195.515068 40.893337 
L 196.093759 45.144991 
L 196.865348 52.865597 
L 198.215627 69.463567 
L 199.565906 85.44702 
L 200.916186 98.519007 
L 204.195435 128.778517 
L 205.738612 142.507314 
L 206.703097 149.270182 
L 207.281788 152.155021 
L 207.860479 154.103177 
L 208.246274 154.867989 
L 208.632068 155.247191 
L 209.017862 155.278042 
L 209.403656 154.969946 
L 209.78945 154.363628 
L 210.368141 152.915828 
L 210.946832 150.782749 
L 211.525523 147.887396 
L 212.297112 142.735795 
L 213.261597 134.352357 
L 216.155053 106.555068 
L 216.733744 103.647416 
L 217.119538 102.704689 
L 217.312435 102.523894 
L 217.505332 102.542669 
L 217.698229 102.759387 
L 218.084023 103.740809 
L 218.662714 106.269234 
L 220.784582 117.295033 
L 221.170376 118.125922 
L 221.55617 118.347712 
L 221.749067 118.233258 
L 222.134861 117.529627 
L 222.713552 115.454924 
L 223.678038 110.566638 
L 224.449626 107.004941 
L 225.028317 105.326526 
L 225.414111 104.855368 
L 225.607008 104.820498 
L 225.799905 104.924059 
L 226.185699 105.529156 
L 226.571493 106.59 
L 227.150184 108.874116 
L 228.11467 113.907798 
L 231.39392 133.352007 
L 234.094478 149.926403 
L 234.673169 151.479097 
L 235.058963 151.959609 
L 235.444758 152.096635 
L 236.023449 151.94942 
L 237.952419 151.212778 
L 238.724007 151.198782 
L 239.109802 151.387467 
L 239.88139 152.221775 
L 240.460081 152.781191 
L 240.845875 152.78622 
L 241.231669 152.306864 
L 241.617463 151.277275 
L 242.196154 148.566687 
L 242.967743 143.433575 
L 244.510919 130.830059 
L 245.861198 117.910694 
L 247.018581 107.355061 
L 247.597272 103.630247 
L 248.175963 101.245091 
L 248.754654 99.889908 
L 249.333345 99.093796 
L 250.683625 97.41514 
L 251.262316 96.141262 
L 251.841007 94.180971 
L 252.226801 92.159531 
L 252.612595 89.258035 
L 253.191286 82.638188 
L 253.769977 72.946287 
L 254.734463 51.61526 
L 255.891845 26.653686 
L 256.470536 17.840163 
L 257.049227 12.488886 
L 257.435021 11.012695 
L 257.627918 10.869985 
L 257.820815 11.100757 
L 258.013712 11.701456 
L 258.399507 13.9887 
L 258.978198 19.887985 
L 259.556889 28.358881 
L 260.521374 46.663216 
L 262.064551 77.230012 
L 262.643242 85.156386 
L 263.029036 88.690927 
L 263.41483 90.67288 
L 263.607727 91.078483 
L 263.800624 91.11975 
L 263.993521 90.823365 
L 264.379315 89.300563 
L 264.958006 85.066412 
L 265.922492 75.144104 
L 267.272771 60.970986 
L 267.851462 57.269036 
L 268.237256 56.259309 
L 268.430153 56.249084 
L 268.62305 56.588735 
L 269.008844 58.320796 
L 269.394638 61.375785 
L 269.97333 68.378843 
L 270.744918 81.594729 
L 271.709403 102.898056 
L 273.252579 143.32048 
L 274.795756 182.733492 
L 275.760241 202.446067 
L 276.531829 214.862707 
L 277.11052 221.742137 
L 277.496315 224.844844 
L 277.882109 226.538288 
L 278.075006 226.808796 
L 278.267903 226.692528 
L 278.4608 226.186684 
L 278.846594 224.003849 
L 279.232388 220.32534 
L 279.811079 212.429948 
L 280.775564 195.118042 
L 282.704535 159.604975 
L 283.66902 146.273438 
L 284.247711 140.818852 
L 284.633505 138.480067 
L 285.019299 137.319828 
L 285.212197 137.151043 
L 285.405094 137.24361 
L 285.597991 137.601803 
L 285.983785 139.031102 
L 286.755373 143.527454 
L 287.526961 147.856716 
L 287.912755 149.028826 
L 288.105652 149.239409 
L 288.298549 149.145667 
L 288.491446 148.722413 
L 288.87724 146.859112 
L 289.263035 143.57295 
L 289.841726 135.959706 
L 290.613314 121.537442 
L 293.120976 68.35634 
L 293.699667 61.723169 
L 294.085461 59.525082 
L 294.278358 59.1363 
L 294.471255 59.213585 
L 294.664152 59.749606 
L 295.049946 62.183035 
L 295.628637 68.720039 
L 296.593123 83.919411 
L 297.557608 97.732167 
L 297.943402 101.259078 
L 298.329196 103.219085 
L 298.522093 103.581565 
L 298.71499 103.538556 
L 298.907887 103.105676 
L 299.293681 101.199398 
L 299.872372 96.257947 
L 301.415549 80.181376 
L 301.801343 78.431871 
L 301.99424 78.195177 
L 302.187137 78.403849 
L 302.380034 79.056222 
L 302.765828 81.577288 
L 303.344519 87.579744 
L 305.27349 112.699208 
L 306.430872 129.451198 
L 308.166946 156.482365 
L 308.745637 162.490974 
L 309.131431 165.017737 
L 309.517225 166.29565 
L 309.710122 166.518584 
L 309.903019 166.504764 
L 310.095916 166.271208 
L 310.48171 165.157073 
L 310.867504 163.070434 
L 311.446195 157.998555 
L 312.024887 150.428509 
L 313.953857 121.339416 
L 314.339651 119.381144 
L 314.532548 119.477074 
L 314.725445 120.351963 
L 315.111239 124.410273 
L 315.497033 131.323071 
L 316.268622 150.902619 
L 317.426004 180.42043 
L 318.004695 189.177265 
L 318.390489 191.495807 
L 318.583386 191.491784 
L 318.776283 190.731332 
L 319.162077 187.108992 
L 319.547871 180.887817 
L 320.126563 167.358932 
L 320.898151 142.3016 
L 323.020018 63.961273 
L 323.405812 57.60607 
L 323.791607 54.9683 
L 323.984504 54.809444 
L 324.177401 55.27701 
L 324.563195 57.902617 
L 324.948989 62.770853 
L 325.52768 74.612297 
L 327.263753 119.349784 
L 327.649548 123.931191 
L 327.842445 124.995143 
L 328.035342 125.256634 
L 328.228239 124.765057 
L 328.614033 121.793457 
L 329.192724 113.811427 
L 330.543003 92.831216 
L 330.928797 89.688323 
L 331.314592 88.210781 
L 331.507489 88.068121 
L 331.700386 88.299053 
L 332.08618 89.852644 
L 332.471974 92.749251 
L 333.436459 103.020639 
L 334.400944 112.271314 
L 334.979635 116.001552 
L 335.36543 116.982313 
L 335.558327 117.027893 
L 335.751224 116.85384 
L 336.137018 116.020045 
L 336.715709 113.814785 
L 337.2944 110.410551 
L 338.065988 105.290361 
L 338.258885 104.668671 
L 338.451782 104.529989 
L 338.644679 104.950535 
L 338.837576 105.960364 
L 339.223371 109.733863 
L 339.802062 118.750451 
L 342.309723 163.908978 
L 343.274209 179.452246 
L 345.588973 222.938438 
L 346.167664 229.005274 
L 346.553459 231.590366 
L 346.939253 233.078646 
L 347.325047 233.710557 
L 347.517944 233.780129 
L 347.710841 233.657928 
L 347.903738 233.280511 
L 348.289532 231.515381 
L 348.675326 228.059214 
L 349.254017 219.616413 
L 350.990091 190.596694 
L 351.182988 189.262205 
L 351.375885 188.850243 
L 351.568782 189.475293 
L 351.761679 191.193986 
L 352.147473 197.704503 
L 352.919061 217.71725 
L 353.690649 235.438136 
L 354.269341 243.529817 
L 354.655135 246.949867 
L 355.040929 248.711947 
L 355.233826 248.793618 
L 355.426723 248.269278 
L 355.812517 245.390806 
L 356.391208 237.356122 
L 357.162796 223.041572 
L 357.934384 203.981629 
L 359.284664 166.697635 
L 359.863355 156.952616 
L 360.249149 154.534609 
L 360.442046 154.786783 
L 360.634943 156.002251 
L 361.020737 160.971945 
L 362.563914 187.369306 
L 362.949708 189.588453 
L 363.142605 189.826646 
L 363.335502 189.651142 
L 363.914193 188.584093 
L 364.10709 188.5738 
L 364.299987 188.829054 
L 364.878678 190.531639 
L 365.264472 191.489009 
L 365.650266 191.812208 
L 365.843164 191.695209 
L 366.036061 191.327063 
L 366.421855 189.490804 
L 366.807649 185.820036 
L 367.38634 177.029503 
L 369.894002 133.378816 
L 371.630075 101.430426 
L 372.208766 91.948661 
L 372.59456 89.131621 
L 372.787457 88.913891 
L 372.980354 89.376058 
L 373.366148 91.681529 
L 374.909325 103.529669 
L 375.488016 112.150556 
L 376.259604 129.106539 
L 377.416987 155.412219 
L 377.802781 160.45969 
L 378.188575 163.171129 
L 378.574369 164.258898 
L 378.767266 164.354869 
L 378.960163 164.131039 
L 379.15306 163.510934 
L 379.538854 160.842401 
L 380.117545 153.644181 
L 381.467825 132.253511 
L 382.43231 117.395248 
L 383.011001 111.499133 
L 383.203898 110.516062 
L 383.396795 110.400461 
L 383.589692 111.350883 
L 383.975486 116.611863 
L 385.518663 150.56228 
L 386.868942 185.245862 
L 388.412118 208.142116 
L 388.605015 208.787414 
L 388.797912 208.672394 
L 389.183707 207.10713 
L 389.569501 204.435279 
L 389.955295 200.120508 
L 391.305574 180.683284 
L 391.498471 180.152265 
L 391.691368 180.143089 
L 392.077162 180.793483 
L 392.462956 181.796383 
L 392.848751 183.526058 
L 393.427442 187.943742 
L 394.777721 201.138816 
L 395.742206 210.449429 
L 397.285383 222.779563 
L 397.47828 222.82533 
L 397.671177 222.047108 
L 398.056971 218.193123 
L 398.635662 208.625694 
L 399.600147 187.190976 
L 401.336221 150.526306 
L 402.493603 128.185208 
L 403.458088 107.468771 
L 404.036779 98.605587 
L 404.422574 95.800195 
L 405.194162 93.185136 
L 405.579956 91.526296 
L 405.96575 90.357648 
L 406.158647 89.215297 
L 406.544441 84.796812 
L 407.316029 75.112317 
L 408.087618 66.839961 
L 408.280515 66.028533 
L 408.473412 65.797377 
L 408.666309 65.764315 
L 408.859206 65.570196 
L 409.052103 64.988978 
L 409.437897 62.588173 
L 410.209485 55.095648 
L 410.981073 47.681799 
L 411.366867 46.089375 
L 411.752661 45.410136 
L 411.945559 45.362972 
L 412.138456 45.68947 
L 412.52425 47.455002 
L 413.102941 50.310146 
L 413.295838 50.872853 
L 413.488735 51.074799 
L 413.681632 50.758202 
L 413.874529 49.719166 
L 414.260323 45.66816 
L 415.031911 36.803122 
L 415.8035 31.365677 
L 416.189294 29.414793 
L 416.382191 29.11215 
L 416.575088 29.495283 
L 416.767985 30.675409 
L 417.153779 35.038247 
L 418.118264 50.304258 
L 419.661441 78.215156 
L 420.433029 92.179567 
L 420.818823 96.946585 
L 421.204617 99.233519 
L 421.397514 99.533723 
L 421.590411 99.300534 
L 421.783308 98.455233 
L 422.169102 94.716175 
L 422.361999 91.795604 
L 422.361999 91.795604 
" clip-path="url(#pe9005a47b2)" style="fill: none; stroke: #009afa"/>
   </g>
   <g id="matplotlib.axis_1">
    <g id="xtick_1">
     <g id="line2d_2">
      <defs>
       <path id="mc0d058ee18" d="M 0 0 
L 0 -2.5 
" style="stroke: #000000; stroke-width: 0.5"/>
      </defs>
      <g>
       <use xlink:href="#mc0d058ee18" x="36.567899" y="258.225354" style="stroke: #000000; stroke-width: 0.5"/>
      </g>
     </g>
     <g id="text_1">
      <!-- $0.0$ -->
      <g transform="translate(30.167899 267.804104) scale(0.08 -0.08)">
       <defs>
        <path id="DejaVuSans-30" d="M 2034 4250 
Q 1547 4250 1301 3770 
Q 1056 3291 1056 2328 
Q 1056 1369 1301 889 
Q 1547 409 2034 409 
Q 2525 409 2770 889 
Q 3016 1369 3016 2328 
Q 3016 3291 2770 3770 
Q 2525 4250 2034 4250 
z
M 2034 4750 
Q 2819 4750 3233 4129 
Q 3647 3509 3647 2328 
Q 3647 1150 3233 529 
Q 2819 -91 2034 -91 
Q 1250 -91 836 529 
Q 422 1150 422 2328 
Q 422 3509 836 4129 
Q 1250 4750 2034 4750 
z
" transform="scale(0.015625)"/>
        <path id="DejaVuSans-2e" d="M 684 794 
L 1344 794 
L 1344 0 
L 684 0 
L 684 794 
z
" transform="scale(0.015625)"/>
       </defs>
       <use xlink:href="#DejaVuSans-30" transform="translate(0 0.78125)"/>
       <use xlink:href="#DejaVuSans-2e" transform="translate(63.623047 0.78125)"/>
       <use xlink:href="#DejaVuSans-30" transform="translate(95.410156 0.78125)"/>
      </g>
     </g>
    </g>
    <g id="xtick_2">
     <g id="line2d_3">
      <g>
       <use xlink:href="#mc0d058ee18" x="133.016424" y="258.225354" style="stroke: #000000; stroke-width: 0.5"/>
      </g>
     </g>
     <g id="text_2">
      <!-- $0.5$ -->
      <g transform="translate(126.616424 267.804104) scale(0.08 -0.08)">
       <defs>
        <path id="DejaVuSans-35" d="M 691 4666 
L 3169 4666 
L 3169 4134 
L 1269 4134 
L 1269 2991 
Q 1406 3038 1543 3061 
Q 1681 3084 1819 3084 
Q 2600 3084 3056 2656 
Q 3513 2228 3513 1497 
Q 3513 744 3044 326 
Q 2575 -91 1722 -91 
Q 1428 -91 1123 -41 
Q 819 9 494 109 
L 494 744 
Q 775 591 1075 516 
Q 1375 441 1709 441 
Q 2250 441 2565 725 
Q 2881 1009 2881 1497 
Q 2881 1984 2565 2268 
Q 2250 2553 1709 2553 
Q 1456 2553 1204 2497 
Q 953 2441 691 2322 
L 691 4666 
z
" transform="scale(0.015625)"/>
       </defs>
       <use xlink:href="#DejaVuSans-30" transform="translate(0 0.78125)"/>
       <use xlink:href="#DejaVuSans-2e" transform="translate(63.623047 0.78125)"/>
       <use xlink:href="#DejaVuSans-35" transform="translate(95.410156 0.78125)"/>
      </g>
     </g>
    </g>
    <g id="xtick_3">
     <g id="line2d_4">
      <g>
       <use xlink:href="#mc0d058ee18" x="229.464949" y="258.225354" style="stroke: #000000; stroke-width: 0.5"/>
      </g>
     </g>
     <g id="text_3">
      <!-- $1.0$ -->
      <g transform="translate(223.064949 267.804104) scale(0.08 -0.08)">
       <defs>
        <path id="DejaVuSans-31" d="M 794 531 
L 1825 531 
L 1825 4091 
L 703 3866 
L 703 4441 
L 1819 4666 
L 2450 4666 
L 2450 531 
L 3481 531 
L 3481 0 
L 794 0 
L 794 531 
z
" transform="scale(0.015625)"/>
       </defs>
       <use xlink:href="#DejaVuSans-31" transform="translate(0 0.78125)"/>
       <use xlink:href="#DejaVuSans-2e" transform="translate(63.623047 0.78125)"/>
       <use xlink:href="#DejaVuSans-30" transform="translate(95.410156 0.78125)"/>
      </g>
     </g>
    </g>
    <g id="xtick_4">
     <g id="line2d_5">
      <g>
       <use xlink:href="#mc0d058ee18" x="325.913474" y="258.225354" style="stroke: #000000; stroke-width: 0.5"/>
      </g>
     </g>
     <g id="text_4">
      <!-- $1.5$ -->
      <g transform="translate(319.513474 267.804104) scale(0.08 -0.08)">
       <use xlink:href="#DejaVuSans-31" transform="translate(0 0.09375)"/>
       <use xlink:href="#DejaVuSans-2e" transform="translate(63.623047 0.09375)"/>
       <use xlink:href="#DejaVuSans-35" transform="translate(95.410156 0.09375)"/>
      </g>
     </g>
    </g>
    <g id="xtick_5">
     <g id="line2d_6">
      <g>
       <use xlink:href="#mc0d058ee18" x="422.361999" y="258.225354" style="stroke: #000000; stroke-width: 0.5"/>
      </g>
     </g>
     <g id="text_5">
      <!-- $2.0$ -->
      <g transform="translate(415.961999 267.804104) scale(0.08 -0.08)">
       <defs>
        <path id="DejaVuSans-32" d="M 1228 531 
L 3431 531 
L 3431 0 
L 469 0 
L 469 531 
Q 828 903 1448 1529 
Q 2069 2156 2228 2338 
Q 2531 2678 2651 2914 
Q 2772 3150 2772 3378 
Q 2772 3750 2511 3984 
Q 2250 4219 1831 4219 
Q 1534 4219 1204 4116 
Q 875 4013 500 3803 
L 500 4441 
Q 881 4594 1212 4672 
Q 1544 4750 1819 4750 
Q 2544 4750 2975 4387 
Q 3406 4025 3406 3419 
Q 3406 3131 3298 2873 
Q 3191 2616 2906 2266 
Q 2828 2175 2409 1742 
Q 1991 1309 1228 531 
z
" transform="scale(0.015625)"/>
       </defs>
       <use xlink:href="#DejaVuSans-32" transform="translate(0 0.78125)"/>
       <use xlink:href="#DejaVuSans-2e" transform="translate(63.623047 0.78125)"/>
       <use xlink:href="#DejaVuSans-30" transform="translate(95.410156 0.78125)"/>
      </g>
     </g>
    </g>
    <g id="text_6">
     <!-- Time (s) -->
     <g transform="translate(207.103152 281.826136) scale(0.11 -0.11)">
      <defs>
       <path id="DejaVuSans-54" d="M -19 4666 
L 3928 4666 
L 3928 4134 
L 2272 4134 
L 2272 0 
L 1638 0 
L 1638 4134 
L -19 4134 
L -19 4666 
z
" transform="scale(0.015625)"/>
       <path id="DejaVuSans-69" d="M 603 3500 
L 1178 3500 
L 1178 0 
L 603 0 
L 603 3500 
z
M 603 4863 
L 1178 4863 
L 1178 4134 
L 603 4134 
L 603 4863 
z
" transform="scale(0.015625)"/>
       <path id="DejaVuSans-6d" d="M 3328 2828 
Q 3544 3216 3844 3400 
Q 4144 3584 4550 3584 
Q 5097 3584 5394 3201 
Q 5691 2819 5691 2113 
L 5691 0 
L 5113 0 
L 5113 2094 
Q 5113 2597 4934 2840 
Q 4756 3084 4391 3084 
Q 3944 3084 3684 2787 
Q 3425 2491 3425 1978 
L 3425 0 
L 2847 0 
L 2847 2094 
Q 2847 2600 2669 2842 
Q 2491 3084 2119 3084 
Q 1678 3084 1418 2786 
Q 1159 2488 1159 1978 
L 1159 0 
L 581 0 
L 581 3500 
L 1159 3500 
L 1159 2956 
Q 1356 3278 1631 3431 
Q 1906 3584 2284 3584 
Q 2666 3584 2933 3390 
Q 3200 3197 3328 2828 
z
" transform="scale(0.015625)"/>
       <path id="DejaVuSans-65" d="M 3597 1894 
L 3597 1613 
L 953 1613 
Q 991 1019 1311 708 
Q 1631 397 2203 397 
Q 2534 397 2845 478 
Q 3156 559 3463 722 
L 3463 178 
Q 3153 47 2828 -22 
Q 2503 -91 2169 -91 
Q 1331 -91 842 396 
Q 353 884 353 1716 
Q 353 2575 817 3079 
Q 1281 3584 2069 3584 
Q 2775 3584 3186 3129 
Q 3597 2675 3597 1894 
z
M 3022 2063 
Q 3016 2534 2758 2815 
Q 2500 3097 2075 3097 
Q 1594 3097 1305 2825 
Q 1016 2553 972 2059 
L 3022 2063 
z
" transform="scale(0.015625)"/>
       <path id="DejaVuSans-20" transform="scale(0.015625)"/>
       <path id="DejaVuSans-28" d="M 1984 4856 
Q 1566 4138 1362 3434 
Q 1159 2731 1159 2009 
Q 1159 1288 1364 580 
Q 1569 -128 1984 -844 
L 1484 -844 
Q 1016 -109 783 600 
Q 550 1309 550 2009 
Q 550 2706 781 3412 
Q 1013 4119 1484 4856 
L 1984 4856 
z
" transform="scale(0.015625)"/>
       <path id="DejaVuSans-73" d="M 2834 3397 
L 2834 2853 
Q 2591 2978 2328 3040 
Q 2066 3103 1784 3103 
Q 1356 3103 1142 2972 
Q 928 2841 928 2578 
Q 928 2378 1081 2264 
Q 1234 2150 1697 2047 
L 1894 2003 
Q 2506 1872 2764 1633 
Q 3022 1394 3022 966 
Q 3022 478 2636 193 
Q 2250 -91 1575 -91 
Q 1294 -91 989 -36 
Q 684 19 347 128 
L 347 722 
Q 666 556 975 473 
Q 1284 391 1588 391 
Q 1994 391 2212 530 
Q 2431 669 2431 922 
Q 2431 1156 2273 1281 
Q 2116 1406 1581 1522 
L 1381 1569 
Q 847 1681 609 1914 
Q 372 2147 372 2553 
Q 372 3047 722 3315 
Q 1072 3584 1716 3584 
Q 2034 3584 2315 3537 
Q 2597 3491 2834 3397 
z
" transform="scale(0.015625)"/>
       <path id="DejaVuSans-29" d="M 513 4856 
L 1013 4856 
Q 1481 4119 1714 3412 
Q 1947 2706 1947 2009 
Q 1947 1309 1714 600 
Q 1481 -109 1013 -844 
L 513 -844 
Q 928 -128 1133 580 
Q 1338 1288 1338 2009 
Q 1338 2731 1133 3434 
Q 928 4138 513 4856 
z
" transform="scale(0.015625)"/>
      </defs>
      <use xlink:href="#DejaVuSans-54"/>
      <use xlink:href="#DejaVuSans-69" x="57.958984"/>
      <use xlink:href="#DejaVuSans-6d" x="85.742188"/>
      <use xlink:href="#DejaVuSans-65" x="183.154297"/>
      <use xlink:href="#DejaVuSans-20" x="244.677734"/>
      <use xlink:href="#DejaVuSans-28" x="276.464844"/>
      <use xlink:href="#DejaVuSans-73" x="315.478516"/>
      <use xlink:href="#DejaVuSans-29" x="367.578125"/>
     </g>
    </g>
   </g>
   <g id="matplotlib.axis_2">
    <g id="ytick_1">
     <g id="line2d_7">
      <defs>
       <path id="m2ba3f0f2ce" d="M 0 0 
L 2.5 0 
" style="stroke: #000000; stroke-width: 0.5"/>
      </defs>
      <g>
       <use xlink:href="#m2ba3f0f2ce" x="36.567899" y="236.553418" style="stroke: #000000; stroke-width: 0.5"/>
      </g>
     </g>
     <g id="text_7">
      <!-- $-3$ -->
      <g transform="translate(21.227899 239.592793) scale(0.08 -0.08)">
       <defs>
        <path id="DejaVuSans-2212" d="M 678 2272 
L 4684 2272 
L 4684 1741 
L 678 1741 
L 678 2272 
z
" transform="scale(0.015625)"/>
        <path id="DejaVuSans-33" d="M 2597 2516 
Q 3050 2419 3304 2112 
Q 3559 1806 3559 1356 
Q 3559 666 3084 287 
Q 2609 -91 1734 -91 
Q 1441 -91 1130 -33 
Q 819 25 488 141 
L 488 750 
Q 750 597 1062 519 
Q 1375 441 1716 441 
Q 2309 441 2620 675 
Q 2931 909 2931 1356 
Q 2931 1769 2642 2001 
Q 2353 2234 1838 2234 
L 1294 2234 
L 1294 2753 
L 1863 2753 
Q 2328 2753 2575 2939 
Q 2822 3125 2822 3475 
Q 2822 3834 2567 4026 
Q 2313 4219 1838 4219 
Q 1578 4219 1281 4162 
Q 984 4106 628 3988 
L 628 4550 
Q 988 4650 1302 4700 
Q 1616 4750 1894 4750 
Q 2613 4750 3031 4423 
Q 3450 4097 3450 3541 
Q 3450 3153 3228 2886 
Q 3006 2619 2597 2516 
z
" transform="scale(0.015625)"/>
       </defs>
       <use xlink:href="#DejaVuSans-2212" transform="translate(0 0.78125)"/>
       <use xlink:href="#DejaVuSans-33" transform="translate(83.789062 0.78125)"/>
      </g>
     </g>
    </g>
    <g id="ytick_2">
     <g id="line2d_8">
      <g>
       <use xlink:href="#m2ba3f0f2ce" x="36.567899" y="202.913755" style="stroke: #000000; stroke-width: 0.5"/>
      </g>
     </g>
     <g id="text_8">
      <!-- $-2$ -->
      <g transform="translate(21.227899 205.95313) scale(0.08 -0.08)">
       <use xlink:href="#DejaVuSans-2212" transform="translate(0 0.78125)"/>
       <use xlink:href="#DejaVuSans-32" transform="translate(83.789062 0.78125)"/>
      </g>
     </g>
    </g>
    <g id="ytick_3">
     <g id="line2d_9">
      <g>
       <use xlink:href="#m2ba3f0f2ce" x="36.567899" y="169.274092" style="stroke: #000000; stroke-width: 0.5"/>
      </g>
     </g>
     <g id="text_9">
      <!-- $-1$ -->
      <g transform="translate(21.227899 172.313467) scale(0.08 -0.08)">
       <use xlink:href="#DejaVuSans-2212" transform="translate(0 0.09375)"/>
       <use xlink:href="#DejaVuSans-31" transform="translate(83.789062 0.09375)"/>
      </g>
     </g>
    </g>
    <g id="ytick_4">
     <g id="line2d_10">
      <g>
       <use xlink:href="#m2ba3f0f2ce" x="36.567899" y="135.634429" style="stroke: #000000; stroke-width: 0.5"/>
      </g>
     </g>
     <g id="text_10">
      <!-- $0$ -->
      <g transform="translate(27.947899 138.673804) scale(0.08 -0.08)">
       <use xlink:href="#DejaVuSans-30" transform="translate(0 0.78125)"/>
      </g>
     </g>
    </g>
    <g id="ytick_5">
     <g id="line2d_11">
      <g>
       <use xlink:href="#m2ba3f0f2ce" x="36.567899" y="101.994767" style="stroke: #000000; stroke-width: 0.5"/>
      </g>
     </g>
     <g id="text_11">
      <!-- $1$ -->
      <g transform="translate(27.947899 105.034142) scale(0.08 -0.08)">
       <use xlink:href="#DejaVuSans-31" transform="translate(0 0.09375)"/>
      </g>
     </g>
    </g>
    <g id="ytick_6">
     <g id="line2d_12">
      <g>
       <use xlink:href="#m2ba3f0f2ce" x="36.567899" y="68.355104" style="stroke: #000000; stroke-width: 0.5"/>
      </g>
     </g>
     <g id="text_12">
      <!-- $2$ -->
      <g transform="translate(27.947899 71.394479) scale(0.08 -0.08)">
       <use xlink:href="#DejaVuSans-32" transform="translate(0 0.78125)"/>
      </g>
     </g>
    </g>
    <g id="ytick_7">
     <g id="line2d_13">
      <g>
       <use xlink:href="#m2ba3f0f2ce" x="36.567899" y="34.715441" style="stroke: #000000; stroke-width: 0.5"/>
      </g>
     </g>
     <g id="text_13">
      <!-- $3$ -->
      <g transform="translate(27.947899 37.754816) scale(0.08 -0.08)">
       <use xlink:href="#DejaVuSans-33" transform="translate(0 0.78125)"/>
      </g>
     </g>
    </g>
    <g id="text_14">
     <!-- Rodriguez Parameter $\theta_z$ (degree) -->
     <g transform="translate(14.917899 221.61) rotate(-90) scale(0.11 -0.11)">
      <defs>
       <path id="DejaVuSans-52" d="M 2841 2188 
Q 3044 2119 3236 1894 
Q 3428 1669 3622 1275 
L 4263 0 
L 3584 0 
L 2988 1197 
Q 2756 1666 2539 1819 
Q 2322 1972 1947 1972 
L 1259 1972 
L 1259 0 
L 628 0 
L 628 4666 
L 2053 4666 
Q 2853 4666 3247 4331 
Q 3641 3997 3641 3322 
Q 3641 2881 3436 2590 
Q 3231 2300 2841 2188 
z
M 1259 4147 
L 1259 2491 
L 2053 2491 
Q 2509 2491 2742 2702 
Q 2975 2913 2975 3322 
Q 2975 3731 2742 3939 
Q 2509 4147 2053 4147 
L 1259 4147 
z
" transform="scale(0.015625)"/>
       <path id="DejaVuSans-6f" d="M 1959 3097 
Q 1497 3097 1228 2736 
Q 959 2375 959 1747 
Q 959 1119 1226 758 
Q 1494 397 1959 397 
Q 2419 397 2687 759 
Q 2956 1122 2956 1747 
Q 2956 2369 2687 2733 
Q 2419 3097 1959 3097 
z
M 1959 3584 
Q 2709 3584 3137 3096 
Q 3566 2609 3566 1747 
Q 3566 888 3137 398 
Q 2709 -91 1959 -91 
Q 1206 -91 779 398 
Q 353 888 353 1747 
Q 353 2609 779 3096 
Q 1206 3584 1959 3584 
z
" transform="scale(0.015625)"/>
       <path id="DejaVuSans-64" d="M 2906 2969 
L 2906 4863 
L 3481 4863 
L 3481 0 
L 2906 0 
L 2906 525 
Q 2725 213 2448 61 
Q 2172 -91 1784 -91 
Q 1150 -91 751 415 
Q 353 922 353 1747 
Q 353 2572 751 3078 
Q 1150 3584 1784 3584 
Q 2172 3584 2448 3432 
Q 2725 3281 2906 2969 
z
M 947 1747 
Q 947 1113 1208 752 
Q 1469 391 1925 391 
Q 2381 391 2643 752 
Q 2906 1113 2906 1747 
Q 2906 2381 2643 2742 
Q 2381 3103 1925 3103 
Q 1469 3103 1208 2742 
Q 947 2381 947 1747 
z
" transform="scale(0.015625)"/>
       <path id="DejaVuSans-72" d="M 2631 2963 
Q 2534 3019 2420 3045 
Q 2306 3072 2169 3072 
Q 1681 3072 1420 2755 
Q 1159 2438 1159 1844 
L 1159 0 
L 581 0 
L 581 3500 
L 1159 3500 
L 1159 2956 
Q 1341 3275 1631 3429 
Q 1922 3584 2338 3584 
Q 2397 3584 2469 3576 
Q 2541 3569 2628 3553 
L 2631 2963 
z
" transform="scale(0.015625)"/>
       <path id="DejaVuSans-67" d="M 2906 1791 
Q 2906 2416 2648 2759 
Q 2391 3103 1925 3103 
Q 1463 3103 1205 2759 
Q 947 2416 947 1791 
Q 947 1169 1205 825 
Q 1463 481 1925 481 
Q 2391 481 2648 825 
Q 2906 1169 2906 1791 
z
M 3481 434 
Q 3481 -459 3084 -895 
Q 2688 -1331 1869 -1331 
Q 1566 -1331 1297 -1286 
Q 1028 -1241 775 -1147 
L 775 -588 
Q 1028 -725 1275 -790 
Q 1522 -856 1778 -856 
Q 2344 -856 2625 -561 
Q 2906 -266 2906 331 
L 2906 616 
Q 2728 306 2450 153 
Q 2172 0 1784 0 
Q 1141 0 747 490 
Q 353 981 353 1791 
Q 353 2603 747 3093 
Q 1141 3584 1784 3584 
Q 2172 3584 2450 3431 
Q 2728 3278 2906 2969 
L 2906 3500 
L 3481 3500 
L 3481 434 
z
" transform="scale(0.015625)"/>
       <path id="DejaVuSans-75" d="M 544 1381 
L 544 3500 
L 1119 3500 
L 1119 1403 
Q 1119 906 1312 657 
Q 1506 409 1894 409 
Q 2359 409 2629 706 
Q 2900 1003 2900 1516 
L 2900 3500 
L 3475 3500 
L 3475 0 
L 2900 0 
L 2900 538 
Q 2691 219 2414 64 
Q 2138 -91 1772 -91 
Q 1169 -91 856 284 
Q 544 659 544 1381 
z
M 1991 3584 
L 1991 3584 
z
" transform="scale(0.015625)"/>
       <path id="DejaVuSans-7a" d="M 353 3500 
L 3084 3500 
L 3084 2975 
L 922 459 
L 3084 459 
L 3084 0 
L 275 0 
L 275 525 
L 2438 3041 
L 353 3041 
L 353 3500 
z
" transform="scale(0.015625)"/>
       <path id="DejaVuSans-50" d="M 1259 4147 
L 1259 2394 
L 2053 2394 
Q 2494 2394 2734 2622 
Q 2975 2850 2975 3272 
Q 2975 3691 2734 3919 
Q 2494 4147 2053 4147 
L 1259 4147 
z
M 628 4666 
L 2053 4666 
Q 2838 4666 3239 4311 
Q 3641 3956 3641 3272 
Q 3641 2581 3239 2228 
Q 2838 1875 2053 1875 
L 1259 1875 
L 1259 0 
L 628 0 
L 628 4666 
z
" transform="scale(0.015625)"/>
       <path id="DejaVuSans-61" d="M 2194 1759 
Q 1497 1759 1228 1600 
Q 959 1441 959 1056 
Q 959 750 1161 570 
Q 1363 391 1709 391 
Q 2188 391 2477 730 
Q 2766 1069 2766 1631 
L 2766 1759 
L 2194 1759 
z
M 3341 1997 
L 3341 0 
L 2766 0 
L 2766 531 
Q 2569 213 2275 61 
Q 1981 -91 1556 -91 
Q 1019 -91 701 211 
Q 384 513 384 1019 
Q 384 1609 779 1909 
Q 1175 2209 1959 2209 
L 2766 2209 
L 2766 2266 
Q 2766 2663 2505 2880 
Q 2244 3097 1772 3097 
Q 1472 3097 1187 3025 
Q 903 2953 641 2809 
L 641 3341 
Q 956 3463 1253 3523 
Q 1550 3584 1831 3584 
Q 2591 3584 2966 3190 
Q 3341 2797 3341 1997 
z
" transform="scale(0.015625)"/>
       <path id="DejaVuSans-74" d="M 1172 4494 
L 1172 3500 
L 2356 3500 
L 2356 3053 
L 1172 3053 
L 1172 1153 
Q 1172 725 1289 603 
Q 1406 481 1766 481 
L 2356 481 
L 2356 0 
L 1766 0 
Q 1100 0 847 248 
Q 594 497 594 1153 
L 594 3053 
L 172 3053 
L 172 3500 
L 594 3500 
L 594 4494 
L 1172 4494 
z
" transform="scale(0.015625)"/>
       <path id="DejaVuSans-Oblique-3b8" d="M 2913 2219 
L 925 2219 
Q 791 1284 928 888 
Q 1100 400 1566 400 
Q 2034 400 2391 891 
Q 2703 1322 2913 2219 
z
M 3009 2750 
Q 3094 3638 2984 3950 
Q 2813 4444 2353 4444 
Q 1875 4444 1525 3956 
Q 1250 3563 1034 2750 
L 3009 2750 
z
M 2444 4913 
Q 3194 4913 3494 4250 
Q 3794 3591 3566 2422 
Q 3341 1256 2781 594 
Q 2225 -72 1475 -72 
Q 722 -72 425 594 
Q 128 1256 353 2422 
Q 581 3591 1134 4250 
Q 1691 4913 2444 4913 
z
" transform="scale(0.015625)"/>
       <path id="DejaVuSans-Oblique-7a" d="M 744 3500 
L 3475 3500 
L 3372 2975 
L 738 459 
L 2913 459 
L 2822 0 
L -19 0 
L 84 525 
L 2719 3041 
L 653 3041 
L 744 3500 
z
" transform="scale(0.015625)"/>
      </defs>
      <use xlink:href="#DejaVuSans-52" transform="translate(0 0.234375)"/>
      <use xlink:href="#DejaVuSans-6f" transform="translate(69.482422 0.234375)"/>
      <use xlink:href="#DejaVuSans-64" transform="translate(130.664062 0.234375)"/>
      <use xlink:href="#DejaVuSans-72" transform="translate(194.140625 0.234375)"/>
      <use xlink:href="#DejaVuSans-69" transform="translate(235.253906 0.234375)"/>
      <use xlink:href="#DejaVuSans-67" transform="translate(263.037109 0.234375)"/>
      <use xlink:href="#DejaVuSans-75" transform="translate(326.513672 0.234375)"/>
      <use xlink:href="#DejaVuSans-65" transform="translate(389.892578 0.234375)"/>
      <use xlink:href="#DejaVuSans-7a" transform="translate(451.416016 0.234375)"/>
      <use xlink:href="#DejaVuSans-20" transform="translate(503.90625 0.234375)"/>
      <use xlink:href="#DejaVuSans-50" transform="translate(535.693359 0.234375)"/>
      <use xlink:href="#DejaVuSans-61" transform="translate(595.996094 0.234375)"/>
      <use xlink:href="#DejaVuSans-72" transform="translate(657.275391 0.234375)"/>
      <use xlink:href="#DejaVuSans-61" transform="translate(698.388672 0.234375)"/>
      <use xlink:href="#DejaVuSans-6d" transform="translate(759.667969 0.234375)"/>
      <use xlink:href="#DejaVuSans-65" transform="translate(857.080078 0.234375)"/>
      <use xlink:href="#DejaVuSans-74" transform="translate(918.603516 0.234375)"/>
      <use xlink:href="#DejaVuSans-65" transform="translate(957.8125 0.234375)"/>
      <use xlink:href="#DejaVuSans-72" transform="translate(1019.335938 0.234375)"/>
      <use xlink:href="#DejaVuSans-20" transform="translate(1060.449219 0.234375)"/>
      <use xlink:href="#DejaVuSans-Oblique-3b8" transform="translate(1092.236328 0.234375)"/>
      <use xlink:href="#DejaVuSans-Oblique-7a" transform="translate(1153.417969 -16.171875) scale(0.7)"/>
      <use xlink:href="#DejaVuSans-20" transform="translate(1192.895508 0.234375)"/>
      <use xlink:href="#DejaVuSans-28" transform="translate(1224.682617 0.234375)"/>
      <use xlink:href="#DejaVuSans-64" transform="translate(1263.696289 0.234375)"/>
      <use xlink:href="#DejaVuSans-65" transform="translate(1327.172852 0.234375)"/>
      <use xlink:href="#DejaVuSans-67" transform="translate(1388.696289 0.234375)"/>
      <use xlink:href="#DejaVuSans-72" transform="translate(1452.172852 0.234375)"/>
      <use xlink:href="#DejaVuSans-65" transform="translate(1493.286133 0.234375)"/>
      <use xlink:href="#DejaVuSans-65" transform="translate(1554.80957 0.234375)"/>
      <use xlink:href="#DejaVuSans-29" transform="translate(1616.333008 0.234375)"/>
     </g>
    </g>
   </g>
   <g id="line2d_14">
    <path d="M 36.567899 135.634429 
L 41.520461 135.526611 
L 46.152419 134.95137 
L 47.874363 134.553563 
L 49.976812 133.856198 
L 57.298124 130.627863 
L 58.99428 129.450114 
L 61.08734 127.931955 
L 65.575849 125.243823 
L 68.454416 123.728811 
L 75.101191 121.262609 
L 76.707224 120.576741 
L 78.14469 120.304288 
L 78.978501 120.352089 
L 80.239131 120.710869 
L 81.535219 121.353152 
L 83.617423 122.699958 
L 85.357356 123.799484 
L 86.56487 124.265759 
L 87.681725 124.47367 
L 88.580601 124.385305 
L 89.624763 124.051558 
L 92.364518 122.889837 
L 93.538107 122.703609 
L 94.296159 122.7829 
L 95.081526 123.066073 
L 95.91893 123.626376 
L 96.788402 124.444606 
L 97.691522 125.558757 
L 98.606256 126.997229 
L 99.757888 129.289096 
L 101.135082 132.609903 
L 102.512275 136.4363 
L 104.504452 142.688292 
L 106.919889 151.108601 
L 108.929592 158.085512 
L 110.093161 161.458281 
L 111.024017 163.529975 
L 111.722159 164.536573 
L 112.187587 164.919199 
L 112.653015 165.053334 
L 113.118443 164.946229 
L 113.583871 164.58142 
L 114.177986 163.712988 
L 114.840808 162.268981 
L 115.518922 160.214247 
L 116.327806 156.968636 
L 117.378289 151.699096 
L 118.824925 143.101994 
L 121.64362 125.938405 
L 122.743734 120.598652 
L 123.906193 116.054122 
L 125.105127 112.314463 
L 126.466827 109.083985 
L 129.752344 102.472963 
L 131.011463 100.267307 
L 131.955803 98.946571 
L 132.585363 98.341859 
L 133.214923 98.018511 
L 133.844483 98.079981 
L 134.410009 98.422441 
L 135.172209 99.332265 
L 135.958907 100.76238 
L 136.94228 103.07318 
L 138.246247 106.835639 
L 140.968589 114.952623 
L 141.850824 116.829991 
L 142.453326 117.676506 
L 142.959155 118.089634 
L 143.429151 118.186191 
L 143.927615 118.039008 
L 144.473504 117.581083 
L 145.103934 116.707779 
L 146.067061 114.870918 
L 148.760633 109.325862 
L 149.790455 107.927044 
L 150.793801 106.97117 
L 151.702252 106.419516 
L 152.641156 106.129055 
L 153.884199 106.05074 
L 155.013075 106.211747 
L 155.914672 106.622059 
L 156.52404 107.141639 
L 157.133408 107.870142 
L 157.807595 108.949193 
L 158.5466 110.534022 
L 159.285605 112.673634 
L 160.311539 116.709434 
L 161.417564 122.490868 
L 162.892265 131.929014 
L 166.65343 157.503154 
L 168.058381 164.917845 
L 169.406684 170.817338 
L 170.664643 175.357486 
L 171.843233 178.803614 
L 172.522176 180.255363 
L 173.015036 180.907432 
L 173.438346 181.114847 
L 173.778651 181.03007 
L 174.119784 180.686798 
L 174.549307 179.858478 
L 175.064734 178.242187 
L 175.666066 175.408646 
L 176.267398 171.455999 
L 176.955242 165.43855 
L 177.742485 156.418646 
L 178.663675 143.193184 
L 180.146243 118.038413 
L 181.91177 88.840609 
L 182.764442 78.075728 
L 183.441797 71.917812 
L 184.028903 68.465937 
L 184.453939 66.995739 
L 184.84536 66.338029 
L 185.180067 66.236858 
L 185.429676 66.386187 
L 185.829666 66.951241 
L 186.519605 68.534425 
L 187.821697 71.754241 
L 188.190586 72.203123 
L 188.584346 72.259491 
L 188.980882 71.797984 
L 189.410692 70.608784 
L 189.885245 68.407561 
L 190.429954 64.819386 
L 191.314432 57.170126 
L 192.590637 45.451222 
L 193.237399 40.86984 
L 193.884161 38.041698 
L 194.207542 37.417752 
L 194.530923 37.363741 
L 194.854304 37.891889 
L 195.392596 40.072394 
L 196.037326 44.651624 
L 196.694176 51.129187 
L 198.019993 67.282072 
L 199.596253 85.720033 
L 201.028866 99.584932 
L 206.332183 147.029682 
L 207.044935 151.016877 
L 207.661961 153.360054 
L 208.17984 154.560364 
L 208.586373 155.04062 
L 208.947667 155.146517 
L 209.248544 155.029216 
L 209.648455 154.582281 
L 210.133272 153.594715 
L 210.633256 152.042493 
L 211.252987 149.288382 
L 211.907823 145.373393 
L 212.772074 138.669205 
L 213.860858 128.096841 
L 215.781829 108.77234 
L 216.450259 104.426794 
L 216.893258 102.808428 
L 217.226355 102.325738 
L 217.396005 102.315424 
L 217.565654 102.454102 
L 217.92324 103.205401 
L 218.309399 104.624753 
L 219.125855 108.928598 
L 220.174387 114.693008 
L 220.858452 117.244154 
L 221.327957 118.028932 
L 221.56271 118.078878 
L 221.809495 117.882369 
L 222.061279 117.418929 
L 222.567414 115.775888 
L 223.364914 111.881952 
L 224.210807 107.655 
L 224.812797 105.610822 
L 225.122134 105.048185 
L 225.440342 104.836537 
L 225.758551 104.985286 
L 226.080241 105.472087 
L 226.72362 107.266211 
L 227.366999 109.934049 
L 228.332067 114.996787 
L 231.227273 132.23026 
L 234.071376 150.03562 
L 234.528789 151.322123 
L 234.91072 151.866387 
L 235.308635 152.040909 
L 235.755338 151.932174 
L 238.059763 150.926881 
L 238.550646 151.036935 
L 239.027186 151.392464 
L 239.675124 152.215471 
L 240.384738 153.057841 
L 240.702691 153.135368 
L 240.950437 152.981354 
L 241.285966 152.406139 
L 241.667296 151.21702 
L 242.202235 148.640868 
L 242.954886 143.668771 
L 244.157489 134.015213 
L 245.538475 120.861795 
L 246.832209 108.885455 
L 247.573546 104.091789 
L 248.121372 101.747702 
L 248.65329 100.270989 
L 249.379262 98.992705 
L 251.423093 95.91062 
L 251.872052 94.421002 
L 252.314245 91.975444 
L 252.74055 88.266036 
L 253.281904 81.208306 
L 253.965677 68.581798 
L 256.302554 19.724068 
L 256.891154 13.088614 
L 257.29334 10.704764 
L 257.494433 10.165286 
L 257.695525 10.062685 
L 257.896618 10.39847 
L 258.298804 12.349192 
L 258.70099 15.934075 
L 259.33038 24.523708 
L 260.134318 39.547407 
L 262.109362 79.043907 
L 262.71455 86.637242 
L 263.198701 90.09426 
L 263.561814 91.134823 
L 263.682852 91.197313 
L 263.90965 90.958486 
L 264.22693 89.897771 
L 264.649971 87.297194 
L 265.276147 81.576081 
L 266.45886 67.942192 
L 267.271044 59.870979 
L 267.726334 57.066004 
L 268.049758 56.063941 
L 268.260874 55.902119 
L 268.409608 56.029328 
L 268.645913 56.6398 
L 268.967326 58.270115 
L 269.394499 61.845016 
L 269.929801 68.374181 
L 270.627021 79.946002 
L 271.52741 99.057908 
L 272.786353 131.412082 
L 274.820215 183.756179 
L 275.877902 205.345182 
L 276.698923 218.122258 
L 277.251681 223.903541 
L 277.66197 226.319677 
L 277.913944 226.944576 
L 278.095039 226.97552 
L 278.287628 226.618143 
L 278.599072 225.208422 
L 279.03848 221.604671 
L 279.604229 214.536491 
L 280.479281 200.007806 
L 283.189182 152.080519 
L 283.918265 143.370656 
L 284.467557 139.13893 
L 284.834231 137.60237 
L 285.202881 137.093316 
L 285.387206 137.208137 
L 285.755856 138.073254 
L 286.238714 140.198678 
L 287.760915 147.928116 
L 288.119078 148.491254 
L 288.238465 148.471999 
L 288.482647 148.053275 
L 288.739122 147.033804 
L 289.141987 144.206223 
L 289.588582 139.245287 
L 290.213195 129.29824 
L 291.052424 111.525704 
L 292.895267 71.131686 
L 293.520164 62.659645 
L 293.98303 59.37392 
L 294.225915 58.767338 
L 294.347569 58.755111 
L 294.590876 59.290471 
L 294.840586 60.57528 
L 295.22909 63.95046 
L 295.749985 70.664554 
L 297.827717 100.699401 
L 298.253927 103.066045 
L 298.483213 103.504612 
L 298.643288 103.470525 
L 298.809026 103.149101 
L 299.075804 102.051244 
L 299.446854 99.456529 
L 300.011353 93.656558 
L 301.275162 80.005 
L 301.673751 78.024456 
L 301.87982 77.743928 
L 301.985784 77.806407 
L 302.197713 78.347553 
L 302.534332 80.276872 
L 303.009233 84.811726 
L 304.212441 99.944076 
L 306.166368 125.632038 
L 308.433359 159.361791 
L 309.005295 163.721912 
L 309.510065 165.690392 
L 309.856719 166.149739 
L 310.030045 166.128633 
L 310.203372 165.932982 
L 310.550026 164.971663 
L 310.908045 163.087462 
L 311.288498 159.947627 
L 311.886235 152.573443 
L 312.716354 138.691474 
L 313.658066 123.865907 
L 314.076816 120.337131 
L 314.30855 119.722303 
L 314.405731 119.779201 
L 314.570046 120.313373 
L 314.792271 121.912203 
L 315.163123 126.707783 
L 315.625149 135.852973 
L 316.466854 157.9578 
L 317.422272 181.61451 
L 317.876336 188.870012 
L 318.246315 191.836977 
L 318.440402 192.204467 
L 318.542605 192.069917 
L 318.74701 191.149438 
L 319.057818 188.193903 
L 319.49071 181.286724 
L 320.037188 168.511087 
L 320.692961 147.441222 
L 321.847195 100.454135 
L 322.586655 74.434587 
L 323.081054 63.632561 
L 323.496054 58.708372 
L 323.78184 57.056109 
L 323.929714 56.686204 
L 324.077587 56.641033 
L 324.225461 56.931719 
L 324.521208 58.614718 
L 324.919878 63.483668 
L 325.355968 72.179164 
L 326.216018 95.587915 
L 327.048809 116.46483 
L 327.473815 122.909496 
L 327.803312 125.174159 
L 327.942623 125.387037 
L 328.101095 125.098661 
L 328.279998 124.11781 
L 328.645452 120.181213 
L 329.218305 110.522512 
L 330.084687 96.363189 
L 330.627039 91.234893 
L 331.013984 89.331134 
L 331.265237 88.87086 
L 331.426558 88.897466 
L 331.647115 89.331433 
L 331.93031 90.517765 
L 332.394004 93.696387 
L 333.1311 100.705664 
L 334.621916 115.034013 
L 335.093741 117.416821 
L 335.468678 118.217941 
L 335.716926 118.311141 
L 335.909382 118.138957 
L 336.169954 117.480946 
L 336.476938 115.951546 
L 336.935678 112.255843 
L 337.886511 104.182273 
L 338.083095 103.587629 
L 338.1841 103.51831 
L 338.285105 103.616315 
L 338.489682 104.32716 
L 338.803527 106.645877 
L 339.240599 111.781392 
L 339.895655 122.457318 
L 341.647424 152.869046 
L 342.626025 167.784929 
L 343.671741 188.981537 
L 344.82473 211.390524 
L 345.554484 221.713015 
L 346.261787 228.51817 
L 347.154643 234.96359 
L 347.471027 236.117768 
L 347.683723 236.183506 
L 347.836028 235.827259 
L 348.098566 234.418063 
L 348.435723 231.227476 
L 348.956679 223.750729 
L 349.647711 210.353207 
L 350.652586 190.688226 
L 350.940171 187.9712 
L 351.13216 187.427402 
L 351.228288 187.569417 
L 351.427203 188.74932 
L 351.735245 192.767396 
L 352.271803 204.193887 
L 353.381169 229.28586 
L 354.032191 239.750349 
L 354.559943 245.142791 
L 354.955758 246.93113 
L 355.092029 247.081156 
L 355.228301 247.01192 
L 355.500844 246.27593 
L 355.773388 244.793488 
L 356.185615 241.057168 
L 356.613847 234.938405 
L 357.127799 224.089687 
L 357.888548 202.282958 
L 359.14653 166.757117 
L 359.718339 156.51323 
L 359.95943 154.389589 
L 360.086985 153.937901 
L 360.21454 153.978833 
L 360.342719 154.517136 
L 360.608249 157.108798 
L 361.139307 166.227813 
L 361.964373 179.945446 
L 362.380603 184.181943 
L 362.759083 186.209692 
L 363.001662 186.673281 
L 363.244717 186.724414 
L 363.582994 186.695891 
L 363.773439 186.884704 
L 364.060133 187.63167 
L 364.564586 190.012991 
L 365.288806 193.462083 
L 365.562658 193.903739 
L 365.708438 193.752475 
L 365.936803 192.886363 
L 366.255455 190.425391 
L 366.781905 183.976694 
L 367.868476 167.080177 
L 370.46013 122.36434 
L 371.750181 96.708155 
L 372.104338 93.211096 
L 372.458495 91.504202 
L 372.6946 91.150262 
L 372.812652 91.177188 
L 373.060944 91.623168 
L 373.433382 93.057952 
L 374.180687 97.294901 
L 374.733191 101.456583 
L 375.163838 106.767153 
L 375.644359 116.128715 
L 377.523289 157.689926 
L 377.962734 161.23283 
L 378.333131 162.801148 
L 378.610929 163.257297 
L 378.796128 163.191577 
L 378.981326 162.784159 
L 379.259124 161.517255 
L 379.758109 157.888715 
L 380.257094 152.881684 
L 380.756079 145.13253 
L 382.536813 113.441815 
L 382.903713 110.107286 
L 383.09067 109.573781 
L 383.184148 109.652264 
L 383.371105 110.503794 
L 383.651541 113.362059 
L 384.15388 121.604689 
L 384.827072 136.097941 
L 386.435539 174.783385 
L 387.859099 205.524537 
L 388.247567 208.615958 
L 388.50714 209.63087 
L 388.636927 209.793622 
L 388.766714 209.67957 
L 389.026287 208.425687 
L 389.285861 205.546002 
L 389.805008 195.954622 
L 390.324155 186.911396 
L 390.713515 182.920326 
L 391.102876 180.850278 
L 391.362449 180.242756 
L 391.492236 180.169229 
L 391.622023 180.265158 
L 391.910744 181.124878 
L 392.373434 183.972054 
L 393.461759 190.93519 
L 394.407714 196.849884 
L 395.107062 203.034697 
L 395.715369 211.044671 
L 396.445337 220.484812 
L 396.810321 222.60809 
L 397.053643 223.048523 
L 397.176443 222.966973 
L 397.42373 221.999121 
L 397.671017 219.747735 
L 398.095355 213.12514 
L 399.851506 181.489711 
L 400.955768 163.103423 
L 401.690564 146.59525 
L 403.573986 101.527059 
L 403.984282 98.589221 
L 404.295553 97.685764 
L 404.489646 97.667708 
L 404.821863 97.84913 
L 404.961402 97.684668 
L 405.171632 96.947998 
L 405.522015 94.647375 
L 406.045665 90.028707 
L 406.422989 84.618905 
L 407.049117 75.69897 
L 407.49164 72.85495 
L 407.842945 71.737901 
L 407.93648 71.717377 
L 408.123552 71.988453 
L 408.416519 72.4776 
L 408.516724 72.407877 
L 408.718229 71.629105 
L 409.032775 68.644344 
L 409.957008 55.175977 
L 410.704228 45.023227 
L 411.031426 43.122941 
L 411.220463 42.724022 
L 411.397852 42.788761 
L 411.563594 43.287893 
L 411.896275 45.436534 
L 412.567878 50.278398 
L 412.820387 51.124779 
L 412.974763 51.205251 
L 413.129139 50.917155 
L 413.360704 49.783999 
L 413.764503 46.124185 
L 414.544655 38.721138 
L 415.050144 35.782721 
L 415.662322 33.461061 
L 415.766512 33.365826 
L 415.870701 33.438478 
L 416.07908 34.012749 
L 416.508323 36.095203 
L 416.97401 39.881078 
L 417.683217 45.716338 
L 418.274224 50.034726 
L 418.647938 55.166012 
L 419.337428 69.510885 
L 420.376645 91.038857 
L 420.974648 99.172243 
L 421.234357 100.710891 
L 421.320926 100.846983 
L 421.407981 100.778372 
L 421.58209 100.017351 
L 421.844093 97.39083 
L 422.280814 89.997761 
L 422.361999 88.377537 
L 422.361999 88.377537 
" clip-path="url(#pe9005a47b2)" style="fill: none; stroke: #e36f47"/>
   </g>
   <g id="patch_3">
    <path d="M 36.567899 258.225354 
L 36.567899 2.834646 
" style="fill: none; stroke: #000000; stroke-linejoin: miter; stroke-linecap: square"/>
   </g>
   <g id="patch_4">
    <path d="M 36.567899 258.225354 
L 422.361999 258.225354 
" style="fill: none; stroke: #000000; stroke-linejoin: miter; stroke-linecap: square"/>
   </g>
   <g id="line2d_15">
    <path d="M 36.567899 135.634429 
L 41.559122 135.523344 
L 46.138209 134.952251 
L 47.826135 134.56813 
L 49.973185 133.857439 
L 56.586507 131.045054 
L 58.246728 130.002311 
L 63.61523 126.387199 
L 67.406324 124.243599 
L 68.89152 123.561104 
L 74.352518 121.617522 
L 76.913867 120.523392 
L 77.957596 120.332523 
L 78.998464 120.351567 
L 79.952708 120.590415 
L 81.118946 121.122956 
L 82.76839 122.114035 
L 85.612071 123.909643 
L 86.800699 124.334667 
L 87.705287 124.452967 
L 88.581417 124.397775 
L 89.537913 124.137325 
L 91.128632 123.398173 
L 92.322374 122.92661 
L 93.286112 122.754594 
L 94.099299 122.79274 
L 94.934201 123.035362 
L 95.769444 123.51526 
L 96.771731 124.431697 
L 97.828109 125.786059 
L 98.849549 127.45972 
L 99.964158 129.723885 
L 101.170709 132.672358 
L 102.720664 137.036593 
L 104.609252 143.021549 
L 107.581361 153.344119 
L 109.522955 159.758253 
L 110.407889 162.096074 
L 111.350796 163.924733 
L 111.985419 164.686834 
L 112.61145 165.013127 
L 113.146502 164.926282 
L 113.684026 164.479557 
L 114.256611 163.59844 
L 114.879944 162.167827 
L 115.734007 159.438974 
L 116.784136 154.948824 
L 118.030691 148.218045 
L 122.642996 121.104608 
L 123.812716 116.31812 
L 124.906156 112.87741 
L 126.073514 109.989439 
L 127.762836 106.494589 
L 130.564178 101.2187 
L 131.808918 99.313822 
L 132.422173 98.65568 
L 133.003189 98.269648 
L 133.525866 98.147653 
L 134.100494 98.277124 
L 134.695175 98.708625 
L 135.312045 99.471328 
L 136.1373 100.963995 
L 136.993214 103.005775 
L 138.293087 106.76474 
L 140.90242 114.503288 
L 141.91561 116.679619 
L 142.453948 117.473598 
L 142.988159 117.96961 
L 143.573099 118.15882 
L 144.128893 117.993892 
L 144.768716 117.414682 
L 145.578074 116.175326 
L 146.789078 113.664932 
L 148.635293 109.793703 
L 149.737918 108.090528 
L 150.570265 107.211189 
L 151.399676 106.658126 
L 152.230024 106.365171 
L 153.281111 106.25374 
L 154.37555 106.35613 
L 155.363531 106.672804 
L 156.238563 107.228809 
L 157.02156 108.04178 
L 157.757079 109.163547 
L 158.519058 110.781988 
L 159.346349 113.169069 
L 160.09512 115.96369 
L 161.126904 120.830034 
L 162.200194 127.025305 
L 163.788849 137.703903 
L 166.556254 156.651195 
L 167.955077 164.445299 
L 169.116656 169.705033 
L 170.264287 173.961085 
L 171.505207 177.634424 
L 172.395586 179.558193 
L 172.884146 180.246777 
L 173.338706 180.576451 
L 173.620947 180.601277 
L 173.878478 180.487739 
L 174.127222 180.243408 
L 174.688866 179.150007 
L 175.251026 177.216089 
L 175.977086 173.322529 
L 176.617516 168.461788 
L 177.308515 161.634217 
L 178.228323 150.028532 
L 179.268455 133.977762 
L 182.234528 85.622121 
L 183.041211 76.310932 
L 183.638609 71.333548 
L 184.240473 68.048511 
L 184.628073 66.814091 
L 185.05851 66.172681 
L 185.254601 66.107969 
L 185.47487 66.184242 
L 185.868947 66.65672 
L 186.414011 67.828324 
L 187.920659 71.525602 
L 188.283414 71.953121 
L 188.615712 72.031913 
L 188.938371 71.769952 
L 189.209358 71.264745 
L 189.680914 69.719822 
L 190.185268 67.122795 
L 190.803051 62.741262 
L 191.977345 52.212535 
L 193.06923 43.035607 
L 193.715538 39.40961 
L 194.06293 38.273802 
L 194.444354 37.763182 
L 194.6383 37.810238 
L 194.826392 38.055346 
L 195.192232 39.089902 
L 195.553581 40.812317 
L 196.145356 45.009125 
L 196.954413 53.00452 
L 198.269481 69.061696 
L 199.960047 89.07681 
L 201.426033 103.316113 
L 206.157841 145.54685 
L 207.011433 150.865631 
L 207.685516 153.712519 
L 208.250693 155.113374 
L 208.657983 155.583978 
L 209.08836 155.621687 
L 209.490478 155.258262 
L 210.032357 154.200406 
L 210.550533 152.60429 
L 211.16184 149.9957 
L 211.860556 146.021998 
L 212.706148 139.79899 
L 213.735198 130.413235 
L 216.010576 108.830814 
L 216.581135 105.417205 
L 216.932865 104.072249 
L 217.281013 103.363478 
L 217.570866 103.250576 
L 217.892062 103.610225 
L 218.203553 104.402398 
L 218.728549 106.539556 
L 219.72582 112.044856 
L 220.620577 116.496169 
L 221.156976 118.120745 
L 221.467514 118.567121 
L 221.751231 118.629756 
L 222.058441 118.321998 
L 222.471123 117.324306 
L 222.948828 115.465035 
L 225.000712 106.146002 
L 225.461009 105.376944 
L 225.733965 105.291296 
L 226.046655 105.527112 
L 226.352574 106.081735 
L 226.827514 107.500628 
L 227.528008 110.561274 
L 228.486812 115.94363 
L 234.079433 149.616413 
L 234.681134 151.591116 
L 235.184156 152.427471 
L 235.659978 152.681352 
L 236.197023 152.606467 
L 237.575376 152.249904 
L 239.393807 152.121992 
L 240.412712 152.093698 
L 240.779916 151.853881 
L 241.235543 151.155665 
L 241.608488 150.142845 
L 242.029631 148.432947 
L 242.560724 145.452918 
L 243.474858 138.775953 
L 245.195899 124.028983 
L 247.336964 105.464825 
L 247.934137 102.033994 
L 248.392307 100.269441 
L 248.900326 99.092921 
L 249.339681 98.553098 
L 250.75452 97.302736 
L 251.256501 96.166458 
L 251.645712 94.756308 
L 252.104788 92.292148 
L 252.681993 87.578292 
L 253.275425 80.355608 
L 253.896618 69.924339 
L 254.930916 47.757314 
L 256.018658 25.514442 
L 256.61052 17.200581 
L 257.025022 13.617696 
L 257.427454 12.01217 
L 257.6053 11.883331 
L 257.709262 11.967554 
L 257.984453 12.73222 
L 258.234875 14.072307 
L 258.629099 17.288721 
L 259.220088 24.207838 
L 259.997166 36.114712 
L 261.450106 62.829672 
L 262.523231 80.755812 
L 263.166606 87.720263 
L 263.555495 89.981145 
L 263.803311 90.618399 
L 263.910813 90.704389 
L 264.053038 90.647395 
L 264.321453 90.037086 
L 264.725415 88.017832 
L 265.247171 83.889577 
L 266.245592 73.665314 
L 267.264958 63.769411 
L 267.872636 59.693257 
L 268.166646 58.532073 
L 268.488752 58.012906 
L 268.638686 58.066044 
L 268.81192 58.375055 
L 269.149264 59.768121 
L 269.471661 62.1005 
L 269.974036 67.670223 
L 270.669325 78.955815 
L 271.633828 99.900005 
L 273.188562 139.788694 
L 275.078243 186.670246 
L 276.088882 206.027644 
L 276.834392 216.48509 
L 277.368367 221.651733 
L 277.798061 224.200164 
L 278.098172 225.035903 
L 278.243029 225.143787 
L 278.403975 225.030067 
L 278.715065 224.097676 
L 279.013155 222.31413 
L 279.493444 217.653973 
L 280.187836 207.486531 
L 281.162339 188.798642 
L 282.691856 159.249266 
L 283.552905 146.756048 
L 284.173318 140.50835 
L 284.663107 137.43649 
L 284.99897 136.346413 
L 285.300527 136.085979 
L 285.578062 136.434487 
L 285.838543 137.241191 
L 286.345851 139.909072 
L 287.80662 149.110236 
L 288.160297 149.912557 
L 288.28074 149.945403 
L 288.414594 149.824199 
L 288.682086 149.058346 
L 288.969493 147.423731 
L 289.394414 143.441937 
L 289.974257 135.163432 
L 290.762667 119.700224 
L 293.137969 69.388125 
L 293.654303 63.141259 
L 294.041793 60.451757 
L 294.310795 59.667327 
L 294.460337 59.621304 
L 294.58505 59.795198 
L 294.892643 61.032465 
L 295.207529 63.431057 
L 295.70349 69.186769 
L 296.594361 83.103034 
L 297.561395 97.347946 
L 298.114546 102.456301 
L 298.479481 104.128091 
L 298.747269 104.458738 
L 298.938935 104.243792 
L 299.149285 103.597847 
L 299.476319 101.817028 
L 299.940022 97.956517 
L 301.708603 81.430982 
L 302.053292 80.58613 
L 302.16472 80.588475 
L 302.381423 80.976381 
L 302.718924 82.526146 
L 303.204487 86.417865 
L 303.966213 94.917185 
L 305.679471 117.274585 
L 306.778904 134.86437 
L 308.126166 156.393927 
L 308.765716 163.349762 
L 309.276099 166.613408 
L 309.591434 167.604618 
L 309.819953 167.860043 
L 310.056327 167.732636 
L 310.293351 167.216359 
L 310.647162 165.72523 
L 311.09247 162.578954 
L 311.629302 156.827055 
L 312.372401 145.701905 
L 313.802038 122.90359 
L 314.181548 119.631009 
L 314.448387 118.757076 
L 314.565289 118.798968 
L 314.819291 119.841445 
L 315.170319 123.449864 
L 315.619734 131.426977 
L 316.313138 148.799124 
L 317.450851 177.896708 
L 317.947313 185.998385 
L 318.276325 188.893443 
L 318.482596 189.62363 
L 318.595161 189.667485 
L 318.792846 189.148797 
L 319.008851 187.742268 
L 319.350015 183.845437 
L 319.853426 174.693375 
L 320.440175 159.385341 
L 321.233064 131.668447 
L 322.975679 67.306901 
L 323.477866 57.59844 
L 323.82767 54.360921 
L 324.056935 53.691454 
L 324.134286 53.704846 
L 324.299938 54.117257 
L 324.583314 55.978117 
L 324.953268 60.512049 
L 325.441784 70.015297 
L 326.197692 90.551315 
L 327.087583 113.825012 
L 327.52904 120.912449 
L 327.833132 123.339471 
L 328.049733 123.80805 
L 328.175712 123.618788 
L 328.402107 122.497479 
L 328.744934 119.17842 
L 329.27087 111.520166 
L 330.501784 92.816762 
L 331.003139 88.435893 
L 331.390353 86.762155 
L 331.61866 86.499132 
L 331.779682 86.643413 
L 332.052028 87.498496 
L 332.43986 89.933615 
L 332.988374 95.238247 
L 334.733929 113.654439 
L 335.214602 116.347144 
L 335.504098 117.065823 
L 335.700057 117.193913 
L 335.936635 117.021371 
L 336.206569 116.463161 
L 336.615167 115.004415 
L 337.120295 112.278875 
L 338.118979 106.390234 
L 338.395409 105.863677 
L 338.557214 105.984219 
L 338.783676 106.745568 
L 339.080195 108.809303 
L 339.50344 113.670918 
L 340.140796 124.132936 
L 342.586794 168.035894 
L 343.426213 183.078781 
L 345.503855 223.509798 
L 346.141567 231.125187 
L 346.679953 234.985629 
L 347.076842 236.431005 
L 347.331202 236.811924 
L 347.488895 236.839327 
L 347.649467 236.692694 
L 347.931048 235.95493 
L 348.220573 234.449477 
L 348.663986 230.468528 
L 349.212435 222.898146 
L 350.204132 205.159891 
L 350.906277 194.001896 
L 351.23713 191.249399 
L 351.450305 190.844761 
L 351.592147 191.248657 
L 351.779785 192.630378 
L 352.062832 196.454381 
L 352.503409 205.714638 
L 353.983689 239.833494 
L 354.55576 247.363961 
L 354.962657 250.34272 
L 355.232951 250.997315 
L 355.372793 250.876289 
L 355.563226 250.199786 
L 355.829682 248.309277 
L 356.275818 243.081677 
L 356.913825 232.450944 
L 357.581964 217.596519 
L 358.638791 187.424776 
L 359.528762 164.81103 
L 360.000068 157.382304 
L 360.275526 155.364816 
L 360.454162 155.121067 
L 360.581605 155.47194 
L 360.804538 157.095665 
L 361.18645 162.389615 
L 362.609984 185.847441 
L 362.982815 188.236941 
L 363.24146 188.916271 
L 363.485005 189.112158 
L 364.027007 189.361867 
L 364.356411 189.994606 
L 364.937766 191.868674 
L 365.476237 193.312067 
L 365.750899 193.536527 
L 365.902618 193.419778 
L 366.105395 192.917493 
L 366.391729 191.384989 
L 366.71655 188.317558 
L 367.213496 181.130557 
L 369.103811 147.322744 
L 372.323928 90.411264 
L 372.679351 88.300861 
L 372.868566 88.057681 
L 372.991891 88.166887 
L 373.253996 88.906459 
L 373.766934 91.367547 
L 374.35689 95.208289 
L 374.847841 99.954988 
L 375.35926 107.213644 
L 375.980118 119.807929 
L 377.772806 159.991812 
L 378.265774 164.647517 
L 378.696374 166.813106 
L 378.946426 167.174841 
L 379.086405 167.019735 
L 379.302903 166.215093 
L 379.607337 163.921494 
L 380.066476 158.418005 
L 380.779248 146.824191 
L 382.68153 113.193025 
L 383.085522 109.794241 
L 383.241443 109.448237 
L 383.351256 109.59097 
L 383.528314 110.507703 
L 383.833073 113.878211 
L 384.393194 123.633307 
L 385.197763 141.405892 
L 387.051045 188.288621 
L 387.900161 204.100611 
L 388.279086 207.561849 
L 388.577222 208.519052 
L 388.735144 208.517556 
L 388.904666 208.168502 
L 389.168552 206.911095 
L 389.477245 204.245383 
L 389.950275 197.740431 
L 390.87091 184.604764 
L 391.28419 181.775388 
L 391.590152 180.85242 
L 391.775432 180.70804 
L 391.947142 180.838107 
L 392.199501 181.456705 
L 392.601502 183.253571 
L 393.653479 189.488555 
L 394.261457 194.573416 
L 397.008622 220.395765 
L 397.287445 221.127675 
L 397.414063 221.095596 
L 397.61898 220.563415 
L 397.887043 218.9695 
L 398.251034 215.1333 
L 398.797438 206.245764 
L 400.105767 179.903268 
L 402.414034 126.7607 
L 403.469684 103.037561 
L 403.95244 96.28597 
L 404.472447 92.015288 
L 404.881239 90.11022 
L 405.240173 89.367949 
L 405.554357 88.650254 
L 405.869464 87.145629 
L 406.353827 83.43058 
L 406.905197 77.338042 
L 407.553763 70.300573 
L 407.917282 68.448143 
L 409.151947 63.751265 
L 409.571007 60.321931 
L 410.91086 48.109897 
L 411.292724 46.435986 
L 411.492559 46.224731 
L 411.662191 46.445961 
L 411.858077 47.131251 
L 412.24764 49.458537 
L 412.775836 52.518934 
L 413.008502 52.993086 
L 413.133773 52.945334 
L 413.320323 52.50673 
L 413.61741 51.071929 
L 414.099529 47.373869 
L 414.802382 39.793871 
L 415.543299 32.287999 
L 415.991498 29.734156 
L 416.297713 28.993239 
L 416.463334 29.002185 
L 416.65879 29.433001 
L 416.939824 30.821838 
L 417.393974 34.522927 
L 417.942184 40.936052 
L 418.581315 51.227461 
L 419.348065 67.500355 
L 420.660783 96.019058 
L 421.11426 101.189685 
L 421.403372 102.504464 
L 421.554994 102.547581 
L 421.672069 102.268128 
L 421.876927 101.104561 
L 422.201709 97.518101 
L 422.361999 95.045556 
L 422.361999 95.045556 
" clip-path="url(#pe9005a47b2)" style="fill: none; stroke: #3ea44e"/>
   </g>
   <g id="legend_1">
    <g id="patch_5">
     <path d="M 332.945749 50.862146 
L 418.361999 50.862146 
L 418.361999 6.834646 
L 332.945749 6.834646 
z
" style="fill: #ffffff; stroke: #000000; stroke-linejoin: miter"/>
    </g>
    <g id="line2d_16">
     <path d="M 339.345749 16.513396 
L 347.345749 16.513396 
L 355.345749 16.513396 
" style="fill: none; stroke: #009afa; stroke-linejoin: miter"/>
    </g>
    <g id="text_15">
     <!-- GXBeam -->
     <g transform="translate(361.745749 19.313396) scale(0.08 -0.08)">
      <defs>
       <path id="DejaVuSans-47" d="M 3809 666 
L 3809 1919 
L 2778 1919 
L 2778 2438 
L 4434 2438 
L 4434 434 
Q 4069 175 3628 42 
Q 3188 -91 2688 -91 
Q 1594 -91 976 548 
Q 359 1188 359 2328 
Q 359 3472 976 4111 
Q 1594 4750 2688 4750 
Q 3144 4750 3555 4637 
Q 3966 4525 4313 4306 
L 4313 3634 
Q 3963 3931 3569 4081 
Q 3175 4231 2741 4231 
Q 1884 4231 1454 3753 
Q 1025 3275 1025 2328 
Q 1025 1384 1454 906 
Q 1884 428 2741 428 
Q 3075 428 3337 486 
Q 3600 544 3809 666 
z
" transform="scale(0.015625)"/>
       <path id="DejaVuSans-58" d="M 403 4666 
L 1081 4666 
L 2241 2931 
L 3406 4666 
L 4084 4666 
L 2584 2425 
L 4184 0 
L 3506 0 
L 2194 1984 
L 872 0 
L 191 0 
L 1856 2491 
L 403 4666 
z
" transform="scale(0.015625)"/>
       <path id="DejaVuSans-42" d="M 1259 2228 
L 1259 519 
L 2272 519 
Q 2781 519 3026 730 
Q 3272 941 3272 1375 
Q 3272 1813 3026 2020 
Q 2781 2228 2272 2228 
L 1259 2228 
z
M 1259 4147 
L 1259 2741 
L 2194 2741 
Q 2656 2741 2882 2914 
Q 3109 3088 3109 3444 
Q 3109 3797 2882 3972 
Q 2656 4147 2194 4147 
L 1259 4147 
z
M 628 4666 
L 2241 4666 
Q 2963 4666 3353 4366 
Q 3744 4066 3744 3513 
Q 3744 3084 3544 2831 
Q 3344 2578 2956 2516 
Q 3422 2416 3680 2098 
Q 3938 1781 3938 1306 
Q 3938 681 3513 340 
Q 3088 0 2303 0 
L 628 0 
L 628 4666 
z
" transform="scale(0.015625)"/>
      </defs>
      <use xlink:href="#DejaVuSans-47"/>
      <use xlink:href="#DejaVuSans-58" x="77.490234"/>
      <use xlink:href="#DejaVuSans-42" x="145.996094"/>
      <use xlink:href="#DejaVuSans-65" x="214.599609"/>
      <use xlink:href="#DejaVuSans-61" x="276.123047"/>
      <use xlink:href="#DejaVuSans-6d" x="337.402344"/>
     </g>
    </g>
    <g id="line2d_17">
     <path d="M 339.345749 28.255896 
L 347.345749 28.255896 
L 355.345749 28.255896 
" style="fill: none; stroke: #e36f47; stroke-linejoin: miter"/>
    </g>
    <g id="text_16">
     <!-- ODEProblem -->
     <g transform="translate(361.745749 31.055896) scale(0.08 -0.08)">
      <defs>
       <path id="DejaVuSans-4f" d="M 2522 4238 
Q 1834 4238 1429 3725 
Q 1025 3213 1025 2328 
Q 1025 1447 1429 934 
Q 1834 422 2522 422 
Q 3209 422 3611 934 
Q 4013 1447 4013 2328 
Q 4013 3213 3611 3725 
Q 3209 4238 2522 4238 
z
M 2522 4750 
Q 3503 4750 4090 4092 
Q 4678 3434 4678 2328 
Q 4678 1225 4090 567 
Q 3503 -91 2522 -91 
Q 1538 -91 948 565 
Q 359 1222 359 2328 
Q 359 3434 948 4092 
Q 1538 4750 2522 4750 
z
" transform="scale(0.015625)"/>
       <path id="DejaVuSans-44" d="M 1259 4147 
L 1259 519 
L 2022 519 
Q 2988 519 3436 956 
Q 3884 1394 3884 2338 
Q 3884 3275 3436 3711 
Q 2988 4147 2022 4147 
L 1259 4147 
z
M 628 4666 
L 1925 4666 
Q 3281 4666 3915 4102 
Q 4550 3538 4550 2338 
Q 4550 1131 3912 565 
Q 3275 0 1925 0 
L 628 0 
L 628 4666 
z
" transform="scale(0.015625)"/>
       <path id="DejaVuSans-45" d="M 628 4666 
L 3578 4666 
L 3578 4134 
L 1259 4134 
L 1259 2753 
L 3481 2753 
L 3481 2222 
L 1259 2222 
L 1259 531 
L 3634 531 
L 3634 0 
L 628 0 
L 628 4666 
z
" transform="scale(0.015625)"/>
       <path id="DejaVuSans-62" d="M 3116 1747 
Q 3116 2381 2855 2742 
Q 2594 3103 2138 3103 
Q 1681 3103 1420 2742 
Q 1159 2381 1159 1747 
Q 1159 1113 1420 752 
Q 1681 391 2138 391 
Q 2594 391 2855 752 
Q 3116 1113 3116 1747 
z
M 1159 2969 
Q 1341 3281 1617 3432 
Q 1894 3584 2278 3584 
Q 2916 3584 3314 3078 
Q 3713 2572 3713 1747 
Q 3713 922 3314 415 
Q 2916 -91 2278 -91 
Q 1894 -91 1617 61 
Q 1341 213 1159 525 
L 1159 0 
L 581 0 
L 581 4863 
L 1159 4863 
L 1159 2969 
z
" transform="scale(0.015625)"/>
       <path id="DejaVuSans-6c" d="M 603 4863 
L 1178 4863 
L 1178 0 
L 603 0 
L 603 4863 
z
" transform="scale(0.015625)"/>
      </defs>
      <use xlink:href="#DejaVuSans-4f"/>
      <use xlink:href="#DejaVuSans-44" x="78.710938"/>
      <use xlink:href="#DejaVuSans-45" x="155.712891"/>
      <use xlink:href="#DejaVuSans-50" x="218.896484"/>
      <use xlink:href="#DejaVuSans-72" x="277.449219"/>
      <use xlink:href="#DejaVuSans-6f" x="316.3125"/>
      <use xlink:href="#DejaVuSans-62" x="377.494141"/>
      <use xlink:href="#DejaVuSans-6c" x="440.970703"/>
      <use xlink:href="#DejaVuSans-65" x="468.753906"/>
      <use xlink:href="#DejaVuSans-6d" x="530.277344"/>
     </g>
    </g>
    <g id="line2d_18">
     <path d="M 339.345749 39.998396 
L 347.345749 39.998396 
L 355.345749 39.998396 
" style="fill: none; stroke: #3ea44e; stroke-linejoin: miter"/>
    </g>
    <g id="text_17">
     <!-- DAEProblem -->
     <g transform="translate(361.745749 42.798396) scale(0.08 -0.08)">
      <defs>
       <path id="DejaVuSans-41" d="M 2188 4044 
L 1331 1722 
L 3047 1722 
L 2188 4044 
z
M 1831 4666 
L 2547 4666 
L 4325 0 
L 3669 0 
L 3244 1197 
L 1141 1197 
L 716 0 
L 50 0 
L 1831 4666 
z
" transform="scale(0.015625)"/>
      </defs>
      <use xlink:href="#DejaVuSans-44"/>
      <use xlink:href="#DejaVuSans-41" x="75.251953"/>
      <use xlink:href="#DejaVuSans-45" x="143.660156"/>
      <use xlink:href="#DejaVuSans-50" x="206.84375"/>
      <use xlink:href="#DejaVuSans-72" x="265.396484"/>
      <use xlink:href="#DejaVuSans-6f" x="304.259766"/>
      <use xlink:href="#DejaVuSans-62" x="365.441406"/>
      <use xlink:href="#DejaVuSans-6c" x="428.917969"/>
      <use xlink:href="#DejaVuSans-65" x="456.701172"/>
      <use xlink:href="#DejaVuSans-6d" x="518.224609"/>
     </g>
    </g>
   </g>
  </g>
 </g>
 <defs>
  <clipPath id="pe9005a47b2">
   <rect x="36.567899" y="2.834646" width="385.7941" height="255.390709"/>
  </clipPath>
 </defs>
</svg>
