<?xml version="1.0" encoding="utf-8" standalone="no"?>
<!DOCTYPE svg PUBLIC "-//W3C//DTD SVG 1.1//EN"
  "http://www.w3.org/Graphics/SVG/1.1/DTD/svg11.dtd">
<svg xmlns:xlink="http://www.w3.org/1999/xlink" width="432pt" height="288pt" viewBox="0 0 432 288" xmlns="http://www.w3.org/2000/svg" version="1.1">
 <metadata>
  <rdf:RDF xmlns:dc="http://purl.org/dc/elements/1.1/" xmlns:cc="http://creativecommons.org/ns#" xmlns:rdf="http://www.w3.org/1999/02/22-rdf-syntax-ns#">
   <cc:Work>
    <dc:type rdf:resource="http://purl.org/dc/dcmitype/StillImage"/>
    <dc:date>2026-03-27T22:39:40.149543</dc:date>
    <dc:format>image/svg+xml</dc:format>
    <dc:creator>
     <cc:Agent>
      <dc:title>Matplotlib v3.10.8, https://matplotlib.org/</dc:title>
     </cc:Agent>
    </dc:creator>
   </cc:Work>
  </rdf:RDF>
 </metadata>
 <defs>
  <style type="text/css">*{stroke-linejoin: round; stroke-linecap: butt}</style>
 </defs>
 <g id="figure_1">
  <g id="patch_1">
   <path d="M 0 288 
L 432 288 
L 432 0 
L 0 0 
z
" style="fill: #ffffff"/>
  </g>
  <g id="axes_1">
   <g id="patch_2">
    <path d="M 64.557544 258.225354 
L 422.361999 258.225354 
L 422.361999 2.834646 
L 64.557544 2.834646 
z
" style="fill: #ffffff"/>
   </g>
   <g id="line2d_1">
    <path d="M 64.557544 133.045306 
L 70.819122 132.939368 
L 71.713633 132.861858 
L 72.429242 132.793198 
L 73.144851 132.754811 
L 75.649482 132.616387 
L 76.543993 132.547985 
L 77.259602 132.482233 
L 77.796309 132.541078 
L 78.333015 132.511729 
L 78.869722 132.533431 
L 79.406429 132.546394 
L 79.943135 132.496789 
L 80.658744 132.520328 
L 81.195451 132.491215 
L 81.732158 132.52147 
L 83.52118 132.453656 
L 89.424953 133.071363 
L 91.57178 132.850411 
L 92.645194 132.650528 
L 94.613118 132.5138 
L 95.865434 132.698168 
L 96.938847 133.090292 
L 97.833358 133.589434 
L 98.370065 133.921982 
L 98.906771 134.254458 
L 99.443478 134.476879 
L 100.159087 134.872109 
L 100.874696 135.134313 
L 101.2325 135.220526 
L 102.484816 135.088668 
L 103.200425 134.75908 
L 103.558229 134.510799 
L 105.883958 131.936722 
L 107.494078 129.856593 
L 107.851883 129.438321 
L 109.283101 128.712465 
L 110.535416 129.170031 
L 111.60883 130.345855 
L 112.682243 132.080563 
L 113.934559 134.491451 
L 115.186874 136.7645 
L 116.260288 138.117042 
L 117.333701 138.808803 
L 118.04931 138.833563 
L 118.586017 138.61435 
L 119.122723 138.165011 
L 120.017234 137.10476 
L 122.164061 134.040188 
L 123.416377 132.703086 
L 124.131986 132.254352 
L 125.026497 131.940735 
L 127.71003 131.681297 
L 128.246737 131.428385 
L 129.32015 130.497739 
L 130.393564 129.042517 
L 132.003684 126.16996 
L 133.434901 123.801003 
L 134.508315 122.89403 
L 134.866119 122.966644 
L 135.76063 123.438507 
L 136.476239 124.665267 
L 137.012946 125.790815 
L 137.907457 128.574857 
L 138.623066 131.292844 
L 140.412088 138.165121 
L 141.485502 141.417181 
L 142.201111 142.787555 
L 142.737817 143.645853 
L 143.274524 143.882953 
L 143.811231 143.945665 
L 144.169035 143.811658 
L 144.705742 143.237982 
L 146.673666 141.16907 
L 147.74708 140.295487 
L 148.999395 140.085647 
L 150.251711 140.773282 
L 151.325124 141.476791 
L 152.219635 141.53484 
L 152.756342 141.208802 
L 153.650853 140.171935 
L 154.18756 139.122693 
L 155.082071 136.957229 
L 155.976582 133.86391 
L 157.4078 127.904881 
L 159.733529 118.467219 
L 160.62804 115.719279 
L 161.522551 113.687816 
L 162.059258 113.130607 
L 162.595965 112.679874 
L 162.774867 112.681502 
L 163.669378 113.290701 
L 164.027182 113.889042 
L 164.742791 115.401426 
L 165.4584 117.565759 
L 166.352911 120.974235 
L 167.605227 126.93331 
L 169.752054 137.983387 
L 171.004369 143.237389 
L 171.719978 145.419673 
L 172.435587 146.940274 
L 172.972294 147.525424 
L 173.509 147.902323 
L 174.045707 147.986727 
L 174.403512 147.930682 
L 174.940218 147.775567 
L 175.298023 147.735836 
L 177.981556 146.167482 
L 178.339361 146.095342 
L 178.697165 145.909989 
L 179.949481 145.861938 
L 180.66509 145.484801 
L 181.022894 145.379776 
L 182.27521 144.047301 
L 182.990819 142.89324 
L 184.064232 140.2537 
L 185.316547 135.060011 
L 186.568863 128.162756 
L 188.178983 117.753515 
L 189.431299 109.598048 
L 190.504712 103.593558 
L 191.399223 99.970988 
L 191.757028 99.028235 
L 192.293734 98.315694 
L 192.651539 98.079199 
L 192.830441 98.151222 
L 193.188246 98.752137 
L 193.724952 100.284219 
L 194.261659 102.869923 
L 194.798366 106.549248 
L 195.692877 114.683269 
L 197.124095 131.54777 
L 198.37641 145.958015 
L 199.270921 153.953761 
L 199.98653 157.893557 
L 200.344335 159.022485 
L 200.702139 159.348576 
L 200.881041 159.297347 
L 201.238846 158.740885 
L 201.59665 157.604672 
L 201.954455 155.948376 
L 202.848966 149.926216 
L 204.81689 135.796871 
L 205.353597 133.727739 
L 205.711401 133.09074 
L 205.890304 133.010899 
L 206.069206 133.100025 
L 206.42701 133.779936 
L 206.784815 135.210182 
L 207.321521 138.464856 
L 207.858228 142.768233 
L 209.64725 158.563133 
L 210.183957 161.849503 
L 210.720664 163.908638 
L 211.078468 164.739505 
L 211.257371 164.825899 
L 211.615175 164.530332 
L 211.972979 163.915312 
L 212.330784 162.542607 
L 213.046393 158.244802 
L 213.762002 151.84716 
L 214.835415 140.066462 
L 216.266633 124.899394 
L 216.982242 119.050071 
L 217.697851 114.682995 
L 218.41346 111.879624 
L 218.950166 110.546747 
L 219.665775 109.270938 
L 220.739189 108.15943 
L 221.454797 107.360217 
L 222.349309 105.706018 
L 223.601624 102.162177 
L 224.138331 100.564937 
L 225.032842 98.651944 
L 225.390646 98.548381 
L 225.569549 98.663599 
L 225.927353 99.343613 
L 226.46406 101.480674 
L 227.000767 104.949818 
L 227.895278 113.172459 
L 228.968691 126.588859 
L 231.115518 154.597889 
L 232.010029 163.473844 
L 232.725638 168.578084 
L 233.262345 171.020308 
L 233.620149 171.7687 
L 233.799051 171.889815 
L 233.977953 171.744679 
L 234.335758 170.756312 
L 234.693562 168.920964 
L 235.230269 164.500694 
L 237.377096 144.210215 
L 238.092705 140.349108 
L 238.629411 138.646453 
L 238.987216 138.264003 
L 239.166118 138.373502 
L 239.523922 139.150614 
L 239.881727 140.533098 
L 240.418434 143.965855 
L 241.312945 151.847472 
L 242.207456 158.925099 
L 242.56526 160.56099 
L 242.923065 161.335627 
L 243.101967 161.351536 
L 243.280869 161.062622 
L 243.638674 159.819639 
L 244.17538 156.946353 
L 245.069892 150.13002 
L 245.7855 143.121452 
L 246.501109 133.781279 
L 247.395621 119.371487 
L 249.005741 93.057673 
L 249.721349 84.625503 
L 250.258056 80.396859 
L 250.794763 77.878037 
L 251.152567 76.957841 
L 251.510372 76.536933 
L 251.689274 76.528423 
L 252.047078 76.841835 
L 252.404883 77.63038 
L 252.762687 79.048778 
L 253.299394 82.435937 
L 253.836101 87.356558 
L 254.55171 96.708914 
L 255.625123 114.405511 
L 257.235243 140.369244 
L 258.666461 159.112125 
L 259.203168 163.645609 
L 259.560972 165.185255 
L 259.739874 165.450115 
L 259.918776 165.330446 
L 260.276581 164.045355 
L 260.634385 161.696587 
L 261.349994 154.986761 
L 262.423408 144.994738 
L 262.960114 141.701096 
L 263.317919 140.548075 
L 263.675723 139.845352 
L 263.854625 139.740866 
L 264.033528 139.901217 
L 264.391332 140.742913 
L 264.749137 141.974855 
L 265.106941 144.16692 
L 265.643648 148.781338 
L 266.359257 157.614044 
L 267.43267 170.013093 
L 267.969377 173.517329 
L 268.327181 174.45042 
L 268.506083 174.397717 
L 268.863888 173.690264 
L 269.221692 172.024303 
L 269.937301 165.91331 
L 271.189617 152.410118 
L 272.978639 132.439401 
L 273.515346 128.512113 
L 273.87315 127.32278 
L 274.052052 127.170854 
L 274.230955 127.191289 
L 274.588759 127.669649 
L 274.946564 128.744073 
L 275.662172 130.93714 
L 276.198879 132.005212 
L 276.556684 132.128299 
L 277.451195 131.972367 
L 277.987901 131.569267 
L 278.345706 131.195445 
L 278.882413 130.065568 
L 279.240217 128.891687 
L 279.598021 126.808965 
L 280.134728 122.455277 
L 280.671435 116.035783 
L 283.533871 76.778168 
L 284.428382 67.657667 
L 284.965088 63.616276 
L 285.322893 62.138442 
L 285.501795 61.789356 
L 285.680697 61.745267 
L 285.859599 62.083016 
L 286.217404 64.11413 
L 286.575208 67.848994 
L 286.933013 73.648602 
L 287.46972 86.26214 
L 288.185328 108.408773 
L 289.974351 165.618706 
L 290.68996 181.660664 
L 291.226666 190.046131 
L 291.763373 194.929977 
L 291.942275 195.630656 
L 292.121177 195.815048 
L 292.30008 195.542586 
L 292.478982 194.854191 
L 292.836786 191.980238 
L 293.373493 183.5015 
L 294.089102 166.99456 
L 295.162515 141.40892 
L 295.699222 133.186789 
L 296.057026 129.848306 
L 296.414831 128.231491 
L 296.772635 127.63569 
L 296.951538 127.729203 
L 297.13044 128.210326 
L 297.488244 130.113911 
L 297.846049 133.114931 
L 298.382755 140.278557 
L 299.098364 153.588822 
L 300.35068 178.784061 
L 300.887387 184.860184 
L 301.245191 186.267388 
L 301.424093 185.951265 
L 301.781898 183.344434 
L 302.318604 176.83261 
L 303.392018 162.284718 
L 303.749822 159.240083 
L 304.107627 157.750945 
L 305.359942 153.996901 
L 305.896649 149.761026 
L 306.254453 145.38019 
L 306.970062 131.796863 
L 308.40128 101.800391 
L 308.759085 98.475839 
L 308.937987 97.944494 
L 309.116889 98.004119 
L 309.295791 98.419619 
L 309.653596 100.342284 
L 310.369205 105.125136 
L 310.548107 105.568493 
L 310.727009 105.696977 
L 310.905911 105.465841 
L 311.084814 104.885025 
L 311.442618 102.61454 
L 312.873836 92.19939 
L 313.052738 92.003238 
L 313.23164 92.107981 
L 313.410543 92.438366 
L 313.768347 93.986353 
L 314.483956 98.162372 
L 314.662858 98.578367 
L 314.84176 98.510317 
L 315.020663 97.928536 
L 315.378467 94.885814 
L 315.915174 86.037794 
L 316.630783 73.532963 
L 316.988587 70.307698 
L 317.167489 69.97451 
L 317.346392 70.362344 
L 317.704196 73.085455 
L 318.240903 80.825682 
L 319.135414 98.517768 
L 320.387729 125.055825 
L 321.461143 144.064039 
L 321.997849 160.858513 
L 322.892361 192.646869 
L 323.250165 199.453011 
L 323.429067 200.946676 
L 323.60797 201.247745 
L 323.786872 200.567529 
L 324.323578 196.123151 
L 325.21809 187.672871 
L 325.754796 179.660063 
L 326.82821 162.055317 
L 327.186014 158.644398 
L 328.080525 152.835293 
L 328.43833 145.829653 
L 328.975036 126.324348 
L 329.511743 105.924203 
L 329.869547 99.337638 
L 330.04845 98.787389 
L 330.227352 99.925667 
L 330.585156 106.76315 
L 331.121863 124.982395 
L 331.837472 149.337345 
L 332.553081 166.188125 
L 333.089788 176.394557 
L 333.447592 180.251188 
L 333.626494 180.982097 
L 333.805397 180.981184 
L 333.984299 180.389031 
L 334.521005 177.869866 
L 334.699908 177.970192 
L 334.87881 178.993337 
L 335.236614 183.28564 
L 336.310028 199.180519 
L 336.48893 200.20114 
L 336.667832 200.283047 
L 336.846734 199.250596 
L 337.204539 193.25801 
L 337.562343 181.816164 
L 338.456854 140.869783 
L 339.530268 93.629415 
L 339.888072 82.63041 
L 340.245877 77.1151 
L 340.424779 76.200776 
L 340.603681 76.153294 
L 341.31929 78.040297 
L 341.498192 77.370236 
L 341.855997 73.446615 
L 342.392703 62.575394 
L 343.108312 48.786466 
L 343.466117 45.309111 
L 343.645019 44.684061 
L 343.823921 45.021313 
L 344.002823 46.514465 
L 344.360628 52.486548 
L 345.255139 73.90402 
L 346.686357 110.66575 
L 346.865259 111.978514 
L 347.044161 112.241124 
L 347.223064 111.628109 
L 348.117575 105.565876 
L 348.296477 106.036862 
L 348.654281 109.399034 
L 349.190988 118.869817 
L 350.622206 150.409416 
L 350.98001 152.600446 
L 351.158913 152.790065 
L 351.337815 152.478801 
L 351.695619 150.323014 
L 352.053424 146.399647 
L 352.947935 133.159302 
L 353.126837 132.546302 
L 353.305739 133.387847 
L 353.663544 138.965383 
L 354.736957 164.43051 
L 354.915859 166.227698 
L 355.094762 166.699275 
L 355.273664 165.822236 
L 355.631468 160.797178 
L 356.525979 143.185078 
L 356.704882 141.620423 
L 356.883784 141.712919 
L 357.062686 143.609636 
L 357.420491 151.627702 
L 358.136099 170.311716 
L 358.672806 177.413036 
L 359.209513 181.973278 
L 359.388415 182.771739 
L 359.567317 182.849795 
L 359.74622 181.824048 
L 360.104024 175.864345 
L 360.819633 159.071903 
L 361.177437 154.999882 
L 361.35634 154.184928 
L 361.535242 154.031924 
L 361.714144 154.532055 
L 362.071948 156.934427 
L 362.787557 163.238942 
L 362.96646 163.178497 
L 363.145362 162.091621 
L 363.503166 157.696581 
L 364.218775 148.584654 
L 364.397677 147.64887 
L 364.57658 147.414336 
L 364.755482 147.783109 
L 365.113286 149.821284 
L 366.365602 159.525159 
L 366.723406 160.195692 
L 366.902309 160.85648 
L 367.260113 163.858903 
L 367.617918 167.343671 
L 367.79682 167.972066 
L 367.975722 167.200923 
L 368.333526 161.795623 
L 368.870233 152.832344 
L 369.049135 152.443417 
L 369.228038 153.643967 
L 369.764744 159.140984 
L 369.943647 158.622314 
L 370.122549 156.004846 
L 370.659255 139.997443 
L 371.195962 125.769456 
L 371.732669 111.907708 
L 372.448278 91.41649 
L 372.62718 90.053697 
L 372.806082 90.743228 
L 373.342789 97.011889 
L 373.521691 97.223969 
L 373.700593 95.367611 
L 374.058398 85.907159 
L 374.774007 62.512153 
L 375.131811 58.963606 
L 375.310713 58.107353 
L 375.489616 56.435619 
L 375.84742 48.507468 
L 376.205224 39.473284 
L 376.384127 37.677965 
L 376.563029 38.583501 
L 376.920833 46.509976 
L 377.45754 60.456383 
L 377.815345 63.967948 
L 377.994247 65.043652 
L 378.173149 67.21107 
L 378.530953 78.167106 
L 379.06766 101.13803 
L 379.246562 105.279786 
L 379.425465 106.777975 
L 379.604367 106.141655 
L 380.141073 100.685491 
L 380.319976 101.796459 
L 380.67778 112.490525 
L 381.214487 131.965758 
L 381.572291 135.710235 
L 381.751194 136.461497 
L 381.930096 138.420401 
L 382.108998 142.936283 
L 382.466802 161.118218 
L 383.003509 189.303648 
L 383.182411 191.576711 
L 383.361314 190.282248 
L 384.076922 179.176953 
L 384.434727 176.738216 
L 384.613629 174.434005 
L 384.971434 164.043771 
L 385.50814 142.287053 
L 385.687043 139.164709 
L 385.865945 139.383964 
L 386.044847 142.694192 
L 386.581554 158.563597 
L 386.760456 160.49669 
L 386.939358 159.299695 
L 387.833869 140.419626 
L 388.370576 125.120548 
L 388.907283 109.721252 
L 389.086185 107.077109 
L 389.265087 106.174123 
L 389.443989 106.792782 
L 389.801794 111.229783 
L 390.159598 120.167885 
L 390.517403 135.988115 
L 391.590816 194.192672 
L 391.948621 200.047198 
L 392.127523 199.97645 
L 392.485327 198.250675 
L 392.664229 196.772379 
L 393.022034 190.231555 
L 393.916545 166.067876 
L 394.095447 167.898377 
L 394.453252 179.12596 
L 394.811056 190.69013 
L 394.989958 193.96802 
L 395.168861 195.102002 
L 395.347763 193.813715 
L 395.705567 185.737447 
L 396.778981 154.327522 
L 397.852394 97.146584 
L 398.031296 97.764386 
L 398.568003 104.792143 
L 398.925807 106.581741 
L 399.10471 108.58027 
L 399.462514 117.909107 
L 400.178123 142.231567 
L 400.357025 141.970908 
L 400.71483 132.490022 
L 401.251536 116.762262 
L 401.430439 114.938497 
L 401.609341 115.3435 
L 401.967145 121.108577 
L 402.503852 130.531724 
L 403.219461 141.018275 
L 403.577265 149.953595 
L 404.113972 167.568062 
L 404.292874 168.822612 
L 404.471776 165.890659 
L 405.187385 142.261574 
L 405.54519 138.284228 
L 405.724092 134.66915 
L 406.081897 119.868736 
L 406.618603 93.067252 
L 406.976408 84.567352 
L 407.15531 83.740124 
L 407.513114 84.987375 
L 407.692017 84.45842 
L 408.049821 79.764914 
L 408.586528 69.930921 
L 409.481039 51.521078 
L 409.659941 51.006907 
L 409.838843 49.007798 
L 410.017746 43.959766 
L 410.554452 19.930407 
L 410.733354 17.313763 
L 410.912257 18.829787 
L 411.98567 44.153646 
L 412.343474 60.268735 
L 413.416888 128.679147 
L 414.132497 161.398866 
L 414.311399 164.008027 
L 414.490301 164.796806 
L 414.669203 166.471579 
L 415.027008 176.266174 
L 416.100421 212.847631 
L 417.173835 241.159552 
L 417.352737 240.638376 
L 417.710541 236.716214 
L 417.889444 232.914076 
L 418.247248 218.3947 
L 418.605052 203.356438 
L 419.141759 190.162347 
L 421.109684 96.011773 
L 421.467488 77.238974 
L 421.64639 72.75893 
L 421.825293 72.373366 
L 422.361999 78.392333 
L 422.361999 78.392333 
" clip-path="url(#p3385bb202b)" style="fill: none; stroke: #009afa"/>
   </g>
   <g id="matplotlib.axis_1">
    <g id="xtick_1">
     <g id="line2d_2">
      <defs>
       <path id="md5c4f1317d" d="M 0 0 
L 0 -2.5 
" style="stroke: #000000; stroke-width: 0.5"/>
      </defs>
      <g>
       <use xlink:href="#md5c4f1317d" x="64.557544" y="258.225354" style="stroke: #000000; stroke-width: 0.5"/>
      </g>
     </g>
     <g id="text_1">
      <!-- $0.0$ -->
      <g transform="translate(58.157544 267.804104) scale(0.08 -0.08)">
       <defs>
        <path id="DejaVuSans-30" d="M 2034 4250 
Q 1547 4250 1301 3770 
Q 1056 3291 1056 2328 
Q 1056 1369 1301 889 
Q 1547 409 2034 409 
Q 2525 409 2770 889 
Q 3016 1369 3016 2328 
Q 3016 3291 2770 3770 
Q 2525 4250 2034 4250 
z
M 2034 4750 
Q 2819 4750 3233 4129 
Q 3647 3509 3647 2328 
Q 3647 1150 3233 529 
Q 2819 -91 2034 -91 
Q 1250 -91 836 529 
Q 422 1150 422 2328 
Q 422 3509 836 4129 
Q 1250 4750 2034 4750 
z
" transform="scale(0.015625)"/>
        <path id="DejaVuSans-2e" d="M 684 794 
L 1344 794 
L 1344 0 
L 684 0 
L 684 794 
z
" transform="scale(0.015625)"/>
       </defs>
       <use xlink:href="#DejaVuSans-30" transform="translate(0 0.78125)"/>
       <use xlink:href="#DejaVuSans-2e" transform="translate(63.623047 0.78125)"/>
       <use xlink:href="#DejaVuSans-30" transform="translate(95.410156 0.78125)"/>
      </g>
     </g>
    </g>
    <g id="xtick_2">
     <g id="line2d_3">
      <g>
       <use xlink:href="#md5c4f1317d" x="154.008658" y="258.225354" style="stroke: #000000; stroke-width: 0.5"/>
      </g>
     </g>
     <g id="text_2">
      <!-- $0.5$ -->
      <g transform="translate(147.608658 267.804104) scale(0.08 -0.08)">
       <defs>
        <path id="DejaVuSans-35" d="M 691 4666 
L 3169 4666 
L 3169 4134 
L 1269 4134 
L 1269 2991 
Q 1406 3038 1543 3061 
Q 1681 3084 1819 3084 
Q 2600 3084 3056 2656 
Q 3513 2228 3513 1497 
Q 3513 744 3044 326 
Q 2575 -91 1722 -91 
Q 1428 -91 1123 -41 
Q 819 9 494 109 
L 494 744 
Q 775 591 1075 516 
Q 1375 441 1709 441 
Q 2250 441 2565 725 
Q 2881 1009 2881 1497 
Q 2881 1984 2565 2268 
Q 2250 2553 1709 2553 
Q 1456 2553 1204 2497 
Q 953 2441 691 2322 
L 691 4666 
z
" transform="scale(0.015625)"/>
       </defs>
       <use xlink:href="#DejaVuSans-30" transform="translate(0 0.78125)"/>
       <use xlink:href="#DejaVuSans-2e" transform="translate(63.623047 0.78125)"/>
       <use xlink:href="#DejaVuSans-35" transform="translate(95.410156 0.78125)"/>
      </g>
     </g>
    </g>
    <g id="xtick_3">
     <g id="line2d_4">
      <g>
       <use xlink:href="#md5c4f1317d" x="243.459771" y="258.225354" style="stroke: #000000; stroke-width: 0.5"/>
      </g>
     </g>
     <g id="text_3">
      <!-- $1.0$ -->
      <g transform="translate(237.059771 267.804104) scale(0.08 -0.08)">
       <defs>
        <path id="DejaVuSans-31" d="M 794 531 
L 1825 531 
L 1825 4091 
L 703 3866 
L 703 4441 
L 1819 4666 
L 2450 4666 
L 2450 531 
L 3481 531 
L 3481 0 
L 794 0 
L 794 531 
z
" transform="scale(0.015625)"/>
       </defs>
       <use xlink:href="#DejaVuSans-31" transform="translate(0 0.78125)"/>
       <use xlink:href="#DejaVuSans-2e" transform="translate(63.623047 0.78125)"/>
       <use xlink:href="#DejaVuSans-30" transform="translate(95.410156 0.78125)"/>
      </g>
     </g>
    </g>
    <g id="xtick_4">
     <g id="line2d_5">
      <g>
       <use xlink:href="#md5c4f1317d" x="332.910885" y="258.225354" style="stroke: #000000; stroke-width: 0.5"/>
      </g>
     </g>
     <g id="text_4">
      <!-- $1.5$ -->
      <g transform="translate(326.510885 267.804104) scale(0.08 -0.08)">
       <use xlink:href="#DejaVuSans-31" transform="translate(0 0.09375)"/>
       <use xlink:href="#DejaVuSans-2e" transform="translate(63.623047 0.09375)"/>
       <use xlink:href="#DejaVuSans-35" transform="translate(95.410156 0.09375)"/>
      </g>
     </g>
    </g>
    <g id="xtick_5">
     <g id="line2d_6">
      <g>
       <use xlink:href="#md5c4f1317d" x="422.361999" y="258.225354" style="stroke: #000000; stroke-width: 0.5"/>
      </g>
     </g>
     <g id="text_5">
      <!-- $2.0$ -->
      <g transform="translate(415.961999 267.804104) scale(0.08 -0.08)">
       <defs>
        <path id="DejaVuSans-32" d="M 1228 531 
L 3431 531 
L 3431 0 
L 469 0 
L 469 531 
Q 828 903 1448 1529 
Q 2069 2156 2228 2338 
Q 2531 2678 2651 2914 
Q 2772 3150 2772 3378 
Q 2772 3750 2511 3984 
Q 2250 4219 1831 4219 
Q 1534 4219 1204 4116 
Q 875 4013 500 3803 
L 500 4441 
Q 881 4594 1212 4672 
Q 1544 4750 1819 4750 
Q 2544 4750 2975 4387 
Q 3406 4025 3406 3419 
Q 3406 3131 3298 2873 
Q 3191 2616 2906 2266 
Q 2828 2175 2409 1742 
Q 1991 1309 1228 531 
z
" transform="scale(0.015625)"/>
       </defs>
       <use xlink:href="#DejaVuSans-32" transform="translate(0 0.78125)"/>
       <use xlink:href="#DejaVuSans-2e" transform="translate(63.623047 0.78125)"/>
       <use xlink:href="#DejaVuSans-30" transform="translate(95.410156 0.78125)"/>
      </g>
     </g>
    </g>
    <g id="text_6">
     <!-- Time (s) -->
     <g transform="translate(221.097975 281.826136) scale(0.11 -0.11)">
      <defs>
       <path id="DejaVuSans-54" d="M -19 4666 
L 3928 4666 
L 3928 4134 
L 2272 4134 
L 2272 0 
L 1638 0 
L 1638 4134 
L -19 4134 
L -19 4666 
z
" transform="scale(0.015625)"/>
       <path id="DejaVuSans-69" d="M 603 3500 
L 1178 3500 
L 1178 0 
L 603 0 
L 603 3500 
z
M 603 4863 
L 1178 4863 
L 1178 4134 
L 603 4134 
L 603 4863 
z
" transform="scale(0.015625)"/>
       <path id="DejaVuSans-6d" d="M 3328 2828 
Q 3544 3216 3844 3400 
Q 4144 3584 4550 3584 
Q 5097 3584 5394 3201 
Q 5691 2819 5691 2113 
L 5691 0 
L 5113 0 
L 5113 2094 
Q 5113 2597 4934 2840 
Q 4756 3084 4391 3084 
Q 3944 3084 3684 2787 
Q 3425 2491 3425 1978 
L 3425 0 
L 2847 0 
L 2847 2094 
Q 2847 2600 2669 2842 
Q 2491 3084 2119 3084 
Q 1678 3084 1418 2786 
Q 1159 2488 1159 1978 
L 1159 0 
L 581 0 
L 581 3500 
L 1159 3500 
L 1159 2956 
Q 1356 3278 1631 3431 
Q 1906 3584 2284 3584 
Q 2666 3584 2933 3390 
Q 3200 3197 3328 2828 
z
" transform="scale(0.015625)"/>
       <path id="DejaVuSans-65" d="M 3597 1894 
L 3597 1613 
L 953 1613 
Q 991 1019 1311 708 
Q 1631 397 2203 397 
Q 2534 397 2845 478 
Q 3156 559 3463 722 
L 3463 178 
Q 3153 47 2828 -22 
Q 2503 -91 2169 -91 
Q 1331 -91 842 396 
Q 353 884 353 1716 
Q 353 2575 817 3079 
Q 1281 3584 2069 3584 
Q 2775 3584 3186 3129 
Q 3597 2675 3597 1894 
z
M 3022 2063 
Q 3016 2534 2758 2815 
Q 2500 3097 2075 3097 
Q 1594 3097 1305 2825 
Q 1016 2553 972 2059 
L 3022 2063 
z
" transform="scale(0.015625)"/>
       <path id="DejaVuSans-20" transform="scale(0.015625)"/>
       <path id="DejaVuSans-28" d="M 1984 4856 
Q 1566 4138 1362 3434 
Q 1159 2731 1159 2009 
Q 1159 1288 1364 580 
Q 1569 -128 1984 -844 
L 1484 -844 
Q 1016 -109 783 600 
Q 550 1309 550 2009 
Q 550 2706 781 3412 
Q 1013 4119 1484 4856 
L 1984 4856 
z
" transform="scale(0.015625)"/>
       <path id="DejaVuSans-73" d="M 2834 3397 
L 2834 2853 
Q 2591 2978 2328 3040 
Q 2066 3103 1784 3103 
Q 1356 3103 1142 2972 
Q 928 2841 928 2578 
Q 928 2378 1081 2264 
Q 1234 2150 1697 2047 
L 1894 2003 
Q 2506 1872 2764 1633 
Q 3022 1394 3022 966 
Q 3022 478 2636 193 
Q 2250 -91 1575 -91 
Q 1294 -91 989 -36 
Q 684 19 347 128 
L 347 722 
Q 666 556 975 473 
Q 1284 391 1588 391 
Q 1994 391 2212 530 
Q 2431 669 2431 922 
Q 2431 1156 2273 1281 
Q 2116 1406 1581 1522 
L 1381 1569 
Q 847 1681 609 1914 
Q 372 2147 372 2553 
Q 372 3047 722 3315 
Q 1072 3584 1716 3584 
Q 2034 3584 2315 3537 
Q 2597 3491 2834 3397 
z
" transform="scale(0.015625)"/>
       <path id="DejaVuSans-29" d="M 513 4856 
L 1013 4856 
Q 1481 4119 1714 3412 
Q 1947 2706 1947 2009 
Q 1947 1309 1714 600 
Q 1481 -109 1013 -844 
L 513 -844 
Q 928 -128 1133 580 
Q 1338 1288 1338 2009 
Q 1338 2731 1133 3434 
Q 928 4138 513 4856 
z
" transform="scale(0.015625)"/>
      </defs>
      <use xlink:href="#DejaVuSans-54"/>
      <use xlink:href="#DejaVuSans-69" transform="translate(57.958984 0)"/>
      <use xlink:href="#DejaVuSans-6d" transform="translate(85.742188 0)"/>
      <use xlink:href="#DejaVuSans-65" transform="translate(183.154297 0)"/>
      <use xlink:href="#DejaVuSans-20" transform="translate(244.677734 0)"/>
      <use xlink:href="#DejaVuSans-28" transform="translate(276.464844 0)"/>
      <use xlink:href="#DejaVuSans-73" transform="translate(315.478516 0)"/>
      <use xlink:href="#DejaVuSans-29" transform="translate(367.578125 0)"/>
     </g>
    </g>
   </g>
   <g id="matplotlib.axis_2">
    <g id="ytick_1">
     <g id="line2d_7">
      <defs>
       <path id="m3d3201c6b3" d="M 0 0 
L 2.5 0 
" style="stroke: #000000; stroke-width: 0.5"/>
      </defs>
      <g>
       <use xlink:href="#m3d3201c6b3" x="64.557544" y="231.686747" style="stroke: #000000; stroke-width: 0.5"/>
      </g>
     </g>
     <g id="text_7">
      <!-- $-4.0×10^{6}$ -->
      <g transform="translate(20.817544 234.726122) scale(0.08 -0.08)">
       <defs>
        <path id="DejaVuSans-2212" d="M 678 2272 
L 4684 2272 
L 4684 1741 
L 678 1741 
L 678 2272 
z
" transform="scale(0.015625)"/>
        <path id="DejaVuSans-34" d="M 2419 4116 
L 825 1625 
L 2419 1625 
L 2419 4116 
z
M 2253 4666 
L 3047 4666 
L 3047 1625 
L 3713 1625 
L 3713 1100 
L 3047 1100 
L 3047 0 
L 2419 0 
L 2419 1100 
L 313 1100 
L 313 1709 
L 2253 4666 
z
" transform="scale(0.015625)"/>
        <path id="DejaVuSans-d7" d="M 4488 3438 
L 3059 2003 
L 4488 575 
L 4116 197 
L 2681 1631 
L 1247 197 
L 878 575 
L 2303 2003 
L 878 3438 
L 1247 3816 
L 2681 2381 
L 4116 3816 
L 4488 3438 
z
" transform="scale(0.015625)"/>
        <path id="DejaVuSans-36" d="M 2113 2584 
Q 1688 2584 1439 2293 
Q 1191 2003 1191 1497 
Q 1191 994 1439 701 
Q 1688 409 2113 409 
Q 2538 409 2786 701 
Q 3034 994 3034 1497 
Q 3034 2003 2786 2293 
Q 2538 2584 2113 2584 
z
M 3366 4563 
L 3366 3988 
Q 3128 4100 2886 4159 
Q 2644 4219 2406 4219 
Q 1781 4219 1451 3797 
Q 1122 3375 1075 2522 
Q 1259 2794 1537 2939 
Q 1816 3084 2150 3084 
Q 2853 3084 3261 2657 
Q 3669 2231 3669 1497 
Q 3669 778 3244 343 
Q 2819 -91 2113 -91 
Q 1303 -91 875 529 
Q 447 1150 447 2328 
Q 447 3434 972 4092 
Q 1497 4750 2381 4750 
Q 2619 4750 2861 4703 
Q 3103 4656 3366 4563 
z
" transform="scale(0.015625)"/>
       </defs>
       <use xlink:href="#DejaVuSans-2212" transform="translate(0 0.765625)"/>
       <use xlink:href="#DejaVuSans-34" transform="translate(83.789062 0.765625)"/>
       <use xlink:href="#DejaVuSans-2e" transform="translate(147.412109 0.765625)"/>
       <use xlink:href="#DejaVuSans-30" transform="translate(179.199219 0.765625)"/>
       <use xlink:href="#DejaVuSans-d7" transform="translate(242.822266 0.765625)"/>
       <use xlink:href="#DejaVuSans-31" transform="translate(326.611328 0.765625)"/>
       <use xlink:href="#DejaVuSans-30" transform="translate(390.234375 0.765625)"/>
       <use xlink:href="#DejaVuSans-36" transform="translate(454.814453 39.046875) scale(0.7)"/>
      </g>
     </g>
    </g>
    <g id="ytick_2">
     <g id="line2d_8">
      <g>
       <use xlink:href="#m3d3201c6b3" x="64.557544" y="182.366027" style="stroke: #000000; stroke-width: 0.5"/>
      </g>
     </g>
     <g id="text_8">
      <!-- $-2.0×10^{6}$ -->
      <g transform="translate(20.817544 185.405402) scale(0.08 -0.08)">
       <use xlink:href="#DejaVuSans-2212" transform="translate(0 0.765625)"/>
       <use xlink:href="#DejaVuSans-32" transform="translate(83.789062 0.765625)"/>
       <use xlink:href="#DejaVuSans-2e" transform="translate(147.412109 0.765625)"/>
       <use xlink:href="#DejaVuSans-30" transform="translate(179.199219 0.765625)"/>
       <use xlink:href="#DejaVuSans-d7" transform="translate(242.822266 0.765625)"/>
       <use xlink:href="#DejaVuSans-31" transform="translate(326.611328 0.765625)"/>
       <use xlink:href="#DejaVuSans-30" transform="translate(390.234375 0.765625)"/>
       <use xlink:href="#DejaVuSans-36" transform="translate(454.814453 39.046875) scale(0.7)"/>
      </g>
     </g>
    </g>
    <g id="ytick_3">
     <g id="line2d_9">
      <g>
       <use xlink:href="#m3d3201c6b3" x="64.557544" y="133.045306" style="stroke: #000000; stroke-width: 0.5"/>
      </g>
     </g>
     <g id="text_9">
      <!-- $0$ -->
      <g transform="translate(55.937544 136.084681) scale(0.08 -0.08)">
       <use xlink:href="#DejaVuSans-30" transform="translate(0 0.78125)"/>
      </g>
     </g>
    </g>
    <g id="ytick_4">
     <g id="line2d_10">
      <g>
       <use xlink:href="#m3d3201c6b3" x="64.557544" y="83.724586" style="stroke: #000000; stroke-width: 0.5"/>
      </g>
     </g>
     <g id="text_10">
      <!-- $2.0×10^{6}$ -->
      <g transform="translate(27.537544 86.763961) scale(0.08 -0.08)">
       <use xlink:href="#DejaVuSans-32" transform="translate(0 0.765625)"/>
       <use xlink:href="#DejaVuSans-2e" transform="translate(63.623047 0.765625)"/>
       <use xlink:href="#DejaVuSans-30" transform="translate(95.410156 0.765625)"/>
       <use xlink:href="#DejaVuSans-d7" transform="translate(159.033203 0.765625)"/>
       <use xlink:href="#DejaVuSans-31" transform="translate(242.822266 0.765625)"/>
       <use xlink:href="#DejaVuSans-30" transform="translate(306.445312 0.765625)"/>
       <use xlink:href="#DejaVuSans-36" transform="translate(371.025391 39.046875) scale(0.7)"/>
      </g>
     </g>
    </g>
    <g id="ytick_5">
     <g id="line2d_11">
      <g>
       <use xlink:href="#m3d3201c6b3" x="64.557544" y="34.403865" style="stroke: #000000; stroke-width: 0.5"/>
      </g>
     </g>
     <g id="text_11">
      <!-- $4.0×10^{6}$ -->
      <g transform="translate(27.537544 37.44324) scale(0.08 -0.08)">
       <use xlink:href="#DejaVuSans-34" transform="translate(0 0.765625)"/>
       <use xlink:href="#DejaVuSans-2e" transform="translate(63.623047 0.765625)"/>
       <use xlink:href="#DejaVuSans-30" transform="translate(95.410156 0.765625)"/>
       <use xlink:href="#DejaVuSans-d7" transform="translate(159.033203 0.765625)"/>
       <use xlink:href="#DejaVuSans-31" transform="translate(242.822266 0.765625)"/>
       <use xlink:href="#DejaVuSans-30" transform="translate(306.445312 0.765625)"/>
       <use xlink:href="#DejaVuSans-36" transform="translate(371.025391 39.046875) scale(0.7)"/>
      </g>
     </g>
    </g>
    <g id="text_12">
     <!-- $F_x$ ($N$) -->
     <g transform="translate(14.529888 146.315) rotate(-90) scale(0.11 -0.11)">
      <defs>
       <path id="DejaVuSans-Oblique-46" d="M 1081 4666 
L 3756 4666 
L 3653 4134 
L 1606 4134 
L 1338 2759 
L 3188 2759 
L 3084 2228 
L 1234 2228 
L 800 0 
L 172 0 
L 1081 4666 
z
" transform="scale(0.015625)"/>
       <path id="DejaVuSans-Oblique-78" d="M 3841 3500 
L 2234 1784 
L 3219 0 
L 2559 0 
L 1819 1388 
L 531 0 
L -166 0 
L 1556 1844 
L 641 3500 
L 1300 3500 
L 1972 2234 
L 3144 3500 
L 3841 3500 
z
" transform="scale(0.015625)"/>
       <path id="DejaVuSans-Oblique-4e" d="M 1081 4666 
L 1931 4666 
L 3219 666 
L 4000 4666 
L 4616 4666 
L 3706 0 
L 2853 0 
L 1569 4025 
L 788 0 
L 172 0 
L 1081 4666 
z
" transform="scale(0.015625)"/>
      </defs>
      <use xlink:href="#DejaVuSans-Oblique-46" transform="translate(0 0.125)"/>
      <use xlink:href="#DejaVuSans-Oblique-78" transform="translate(57.519531 -16.28125) scale(0.7)"/>
      <use xlink:href="#DejaVuSans-20" transform="translate(101.679688 0.125)"/>
      <use xlink:href="#DejaVuSans-28" transform="translate(133.466797 0.125)"/>
      <use xlink:href="#DejaVuSans-Oblique-4e" transform="translate(172.480469 0.125)"/>
      <use xlink:href="#DejaVuSans-29" transform="translate(247.285156 0.125)"/>
     </g>
    </g>
   </g>
   <g id="line2d_12">
    <path d="M 64.557544 133.045306 
L 70.448163 132.939161 
L 71.035812 132.906911 
L 75.243353 132.592894 
L 75.704394 132.605225 
L 76.035004 132.571347 
L 76.834865 132.551049 
L 84.803102 132.614428 
L 85.364331 132.644491 
L 85.747181 132.683164 
L 86.225743 132.829806 
L 86.806031 132.859404 
L 87.555952 132.977203 
L 88.056614 133.005764 
L 88.727056 133.072006 
L 89.50756 133.064968 
L 89.966441 133.035941 
L 90.835688 132.967156 
L 92.767506 132.633093 
L 93.948743 132.485311 
L 94.582578 132.501764 
L 96.03696 132.748946 
L 98.385686 133.97123 
L 99.869173 134.745507 
L 101.771913 135.236618 
L 102.153979 135.165071 
L 102.706626 134.99992 
L 103.137369 134.792641 
L 103.799797 134.275469 
L 104.16474 133.992717 
L 105.077099 132.948817 
L 106.35954 131.284511 
L 107.377258 130.00259 
L 108.606496 128.984115 
L 109.311272 128.703859 
L 110.016048 128.892891 
L 110.370185 129.027286 
L 111.314675 129.982637 
L 111.711239 130.511374 
L 113.696049 134.070413 
L 115.747114 137.558473 
L 116.404796 138.216165 
L 117.085342 138.749035 
L 117.799409 138.845996 
L 118.283546 138.780611 
L 118.77714 138.451101 
L 119.809265 137.320275 
L 121.997706 134.266482 
L 123.384277 132.739865 
L 124.493818 132.089619 
L 125.603359 131.908355 
L 127.149569 131.847238 
L 127.779266 131.650844 
L 128.63901 131.121683 
L 129.285075 130.55135 
L 130.805799 128.316345 
L 131.940508 126.254043 
L 133.3401 123.92081 
L 134.273161 123.040792 
L 135.206222 123.000107 
L 135.672753 123.453568 
L 136.372548 124.339679 
L 137.048041 125.992153 
L 137.785912 128.178949 
L 140.968411 139.911193 
L 142.201788 142.866098 
L 142.904381 143.740836 
L 143.273902 143.917274 
L 144.088674 143.745147 
L 144.574492 143.35519 
L 147.127579 140.735212 
L 147.641592 140.265978 
L 148.724266 140.050603 
L 149.28869 140.297077 
L 150.739331 141.302758 
L 151.385653 141.491556 
L 152.031976 141.543441 
L 152.355138 141.438902 
L 153.324622 140.67866 
L 153.970945 139.641263 
L 154.617267 138.263753 
L 155.432286 135.735149 
L 156.516052 131.643702 
L 159.58972 118.881185 
L 160.653389 115.516693 
L 161.375214 114.02264 
L 161.862169 113.281593 
L 162.497128 112.819972 
L 162.806791 112.801718 
L 163.470647 113.148786 
L 163.841607 113.616817 
L 164.75145 115.405862 
L 165.35131 117.22998 
L 166.406711 121.284781 
L 168.80632 133.169834 
L 169.804518 138.126806 
L 170.979744 143.122641 
L 171.834481 145.753092 
L 172.28496 146.58517 
L 173.205565 147.748106 
L 174.207366 148.053595 
L 174.738742 148.054673 
L 175.2906 147.700432 
L 175.842458 147.455099 
L 176.997108 146.602638 
L 178.307237 146.104113 
L 178.962748 146.016774 
L 179.290504 145.839597 
L 180.000837 145.685785 
L 181.77667 144.642261 
L 182.84217 143.351859 
L 183.756061 141.118992 
L 184.314786 139.274752 
L 185.568134 133.843132 
L 186.744963 127.182169 
L 190.625862 103.078646 
L 191.496429 99.708604 
L 191.899342 98.831383 
L 192.548547 97.977259 
L 192.792567 98.066211 
L 193.117927 98.546832 
L 193.524627 99.518875 
L 193.931326 101.087753 
L 194.419366 103.885712 
L 195.239725 110.335553 
L 196.175407 120.260331 
L 199.177509 153.295316 
L 199.814267 157.311476 
L 200.242625 158.720456 
L 200.555303 159.22803 
L 200.793197 159.307218 
L 201.03114 159.096396 
L 201.34875 158.331984 
L 201.853445 156.155817 
L 202.352746 153.299377 
L 203.751613 142.780955 
L 204.688286 136.422358 
L 205.209146 133.913809 
L 205.580279 133.112487 
L 205.768375 132.961053 
L 205.956472 132.968991 
L 206.171813 133.230589 
L 206.620702 134.527101 
L 207.128182 137.393689 
L 207.971986 144.096758 
L 209.483619 157.524848 
L 210.088272 161.522938 
L 210.692926 164.114776 
L 210.995252 164.821448 
L 211.297579 165.016611 
L 211.599906 164.775052 
L 211.831689 164.369789 
L 212.295257 162.700016 
L 212.990608 158.322763 
L 213.68596 152.202577 
L 217.050568 118.277777 
L 217.822466 113.981622 
L 218.454772 111.764229 
L 218.948378 110.681257 
L 219.930514 109.361355 
L 220.455782 108.910821 
L 221.714288 107.128368 
L 222.78463 104.728725 
L 224.011106 101.045968 
L 224.617105 99.411448 
L 225.136119 98.525033 
L 225.361492 98.461294 
L 225.59312 98.644567 
L 225.983357 99.334348 
L 226.306084 100.429033 
L 226.809464 103.176079 
L 227.349578 107.480804 
L 228.069228 114.996663 
L 229.391289 132.213115 
L 231.255111 156.278405 
L 232.108302 164.700606 
L 232.755777 169.488801 
L 233.114057 171.159898 
L 233.485223 172.1072 
L 233.678224 172.283018 
L 233.871225 172.204808 
L 234.064226 171.840943 
L 234.450228 170.24066 
L 235.040677 165.871707 
L 235.900457 157.341379 
L 237.048269 146.376961 
L 237.787486 141.349522 
L 238.302563 139.045586 
L 238.571234 138.383386 
L 238.850758 138.110082 
L 239.130281 138.127587 
L 239.411296 138.629275 
L 240.006599 141.40784 
L 240.614804 146.019201 
L 242.135317 158.758405 
L 242.43942 160.226805 
L 242.743522 160.960377 
L 243.047625 161.105434 
L 243.351727 160.658816 
L 243.65583 159.619606 
L 244.264035 156.410438 
L 244.87224 152.104473 
L 245.480446 146.453701 
L 246.359175 135.588474 
L 247.485975 117.231096 
L 248.94814 93.833821 
L 249.692984 85.162868 
L 250.345002 79.993615 
L 250.872223 77.55137 
L 251.26781 76.575388 
L 251.597466 76.29678 
L 251.867853 76.371773 
L 252.135234 76.725893 
L 252.431214 77.545863 
L 252.822054 79.374212 
L 253.332028 82.881204 
L 253.831897 87.834318 
L 254.610163 98.190662 
L 256.024116 120.993308 
L 257.877964 149.835773 
L 258.669303 159.666895 
L 259.164933 163.568469 
L 259.467151 164.71982 
L 259.656852 164.937865 
L 259.789785 164.881205 
L 259.998857 164.467271 
L 260.29922 163.209158 
L 260.796609 159.634512 
L 262.841019 142.786476 
L 263.343399 140.654792 
L 263.782468 139.806427 
L 264.031584 139.721913 
L 264.247314 139.983335 
L 264.564972 140.881232 
L 264.921491 142.726311 
L 265.320551 146.041306 
L 266.028383 154.135274 
L 267.232097 168.485976 
L 267.781104 172.420996 
L 268.198268 173.89827 
L 268.351167 174.038018 
L 268.507707 173.983833 
L 268.820786 173.362837 
L 269.139083 171.977324 
L 269.786115 167.158577 
L 270.594906 158.974237 
L 271.877795 143.355723 
L 272.762244 133.401252 
L 273.197165 130.117721 
L 273.647556 128.289837 
L 273.872839 127.91648 
L 274.098123 127.894737 
L 274.436049 128.271968 
L 274.773975 129.03811 
L 275.539545 131.001084 
L 276.146627 131.799579 
L 276.687462 132.115933 
L 277.920586 132.594424 
L 278.166292 132.529753 
L 278.476671 132.178739 
L 278.782215 131.571369 
L 279.064107 130.552144 
L 279.513643 127.831691 
L 280.024475 123.113497 
L 280.841292 112.608022 
L 282.964555 83.44302 
L 284.373918 67.40748 
L 285.038406 62.046416 
L 285.36455 60.679438 
L 285.536279 60.416318 
L 285.71199 60.551716 
L 285.888645 61.143895 
L 286.15427 62.897711 
L 286.516407 66.943961 
L 286.981666 75.343767 
L 287.569909 90.524042 
L 288.88806 132.811914 
L 290.081482 167.983159 
L 290.81719 184.379513 
L 291.366163 192.924317 
L 291.728927 196.272151 
L 291.997051 197.303894 
L 292.139341 197.325855 
L 292.28983 196.97806 
L 292.602487 194.952017 
L 292.930882 190.779009 
L 293.437738 181.240601 
L 295.33234 138.506664 
L 295.854162 131.943508 
L 296.303785 128.432077 
L 296.579466 127.293615 
L 296.855148 126.833898 
L 296.992988 126.862606 
L 297.130829 127.117035 
L 297.406511 128.363154 
L 297.820033 131.896818 
L 298.371396 139.679981 
L 299.041543 153.059167 
L 300.335322 180.611331 
L 300.74077 185.250043 
L 301.006735 186.495186 
L 301.121943 186.589386 
L 301.241078 186.416018 
L 301.422361 185.666496 
L 301.736048 183.223413 
L 302.254796 177.149572 
L 303.374777 163.514447 
L 303.941539 159.347859 
L 304.543164 156.654719 
L 305.333865 152.986148 
L 305.751755 149.661197 
L 306.25267 143.358529 
L 306.864963 132.181608 
L 308.412424 101.474623 
L 308.765092 98.665414 
L 308.99379 98.067884 
L 309.153429 98.182564 
L 309.403616 99.192848 
L 310.547338 105.785321 
L 310.738772 105.946018 
L 310.932383 105.673275 
L 311.238414 104.455646 
L 311.668807 101.424777 
L 312.43443 95.674926 
L 312.872155 93.852836 
L 313.091017 93.613445 
L 313.297814 93.904295 
L 313.589913 95.066255 
L 314.490546 99.361289 
L 314.661933 99.467132 
L 314.83332 99.10016 
L 315.095802 97.421424 
L 315.451883 92.898271 
L 316.805342 71.285811 
L 317.078556 70.023607 
L 317.217939 70.010884 
L 317.371199 70.464543 
L 317.691004 72.756056 
L 318.177349 78.800689 
L 318.82581 90.79287 
L 320.532205 126.068907 
L 321.163051 135.764289 
L 321.548391 145.85198 
L 322.157433 169.460898 
L 322.808968 192.383316 
L 323.167357 198.641045 
L 323.409757 200.329345 
L 323.55764 200.55261 
L 323.663022 200.447588 
L 323.875851 199.799514 
L 324.346668 197.528995 
L 324.768773 194.452787 
L 325.151792 189.782936 
L 325.652069 180.418797 
L 326.53569 164.545957 
L 326.929485 161.295239 
L 327.133356 160.70191 
L 327.337227 160.623452 
L 327.541098 160.590066 
L 327.744969 159.822581 
L 327.93685 157.757582 
L 328.213829 151.788384 
L 328.617699 136.954081 
L 329.464605 102.717784 
L 329.791979 96.717417 
L 330.010228 95.968055 
L 330.119352 96.61091 
L 330.339069 99.873203 
L 330.718405 110.481803 
L 332.515317 170.341789 
L 333.014704 179.006805 
L 333.261192 180.60068 
L 333.322814 180.664031 
L 333.384436 180.604003 
L 333.569302 179.803111 
L 334.348271 174.745164 
L 334.403497 174.801887 
L 334.522532 175.28152 
L 334.777671 177.892007 
L 335.259019 186.374662 
L 336.110094 201.347591 
L 336.45065 203.971419 
L 336.535789 204.081366 
L 336.620928 203.898275 
L 336.791206 202.518463 
L 337.046623 197.664436 
L 337.452548 183.742577 
L 338.396978 139.918224 
L 339.486441 89.798482 
L 339.848668 82.478322 
L 340.096276 80.59546 
L 340.226049 80.432757 
L 340.357343 80.703549 
L 340.987886 83.082763 
L 341.133114 82.668407 
L 341.352785 80.62756 
L 341.710549 74.012554 
L 343.179874 42.916292 
L 343.379278 42.359179 
L 343.521674 42.9443 
L 343.761055 45.317557 
L 344.293258 53.513644 
L 344.76737 64.122908 
L 345.574307 90.59354 
L 346.14126 106.507161 
L 346.424737 110.276758 
L 346.566475 110.75472 
L 346.637344 110.676743 
L 346.779083 109.996059 
L 347.204298 105.888982 
L 347.566521 103.084278 
L 347.895566 102.063154 
L 347.984383 102.040148 
L 348.0732 102.163987 
L 348.255196 103.061821 
L 348.44882 105.273996 
L 348.836066 113.753921 
L 349.835105 138.98046 
L 350.496448 149.032828 
L 350.850701 151.525804 
L 350.994239 151.771649 
L 351.140017 151.531685 
L 351.367066 150.088988 
L 351.692427 145.766079 
L 352.783325 128.135787 
L 352.880191 128.477031 
L 353.073923 130.691504 
L 353.451017 139.811783 
L 354.400337 166.023801 
L 354.714048 169.493157 
L 354.780095 169.63783 
L 354.846141 169.556574 
L 354.988958 168.622422 
L 355.23182 164.822503 
L 356.292628 142.346794 
L 356.381474 142.070549 
L 356.475194 142.146848 
L 356.662888 143.32755 
L 356.948248 147.241102 
L 357.745771 162.823442 
L 358.720324 182.791675 
L 358.961359 185.234755 
L 359.081877 185.666909 
L 359.202394 185.544688 
L 359.443429 183.58139 
L 359.804981 176.264928 
L 360.648602 155.511256 
L 360.889637 153.595977 
L 361.014971 153.60777 
L 361.270899 155.226368 
L 362.052256 162.09726 
L 362.251155 162.273929 
L 362.453224 161.608818 
L 362.864788 158.809041 
L 363.664755 152.319479 
L 364.058267 150.934399 
L 364.257287 150.739747 
L 364.813037 150.863725 
L 364.931833 150.964264 
L 365.169534 151.63776 
L 365.526084 153.892193 
L 366.761655 163.942777 
L 367.265773 165.978773 
L 367.391803 166.180434 
L 367.517832 166.039958 
L 367.643862 165.393861 
L 367.949023 161.287395 
L 368.450017 153.824495 
L 368.537771 153.796556 
L 368.719277 155.43659 
L 369.086732 163.463453 
L 369.397426 168.72502 
L 369.460208 168.937357 
L 369.524614 168.776003 
L 369.655038 167.260585 
L 369.931761 159.720656 
L 371.155374 119.262726 
L 372.106284 96.089923 
L 372.303303 94.191626 
L 372.401812 94.148886 
L 372.598831 95.809048 
L 373.091377 102.170484 
L 373.190388 102.148782 
L 373.388409 99.91298 
L 373.698256 91.691284 
L 374.232628 77.130102 
L 375.105281 61.514938 
L 376.097767 32.021995 
L 376.208043 33.026596 
L 376.428595 37.95903 
L 377.237352 60.661153 
L 377.934554 69.993422 
L 378.886327 98.302178 
L 378.968499 98.367883 
L 379.103583 97.703856 
L 379.62304 93.595349 
L 379.674639 93.749523 
L 379.830908 95.383761 
L 380.093556 101.414067 
L 380.612498 113.709841 
L 380.898155 116.272637 
L 381.236388 117.667054 
L 381.409376 120.442974 
L 381.668858 130.980759 
L 382.67202 186.556352 
L 382.896735 188.172301 
L 383.046546 187.435802 
L 383.945408 179.136716 
L 384.245029 171.408168 
L 385.17668 142.158998 
L 385.252506 142.541607 
L 385.411183 145.164027 
L 386.177932 162.734371 
L 386.263867 162.866235 
L 386.435737 161.890409 
L 386.974404 157.747881 
L 387.205262 156.067745 
L 387.438118 152.181561 
L 387.764634 142.441153 
L 389.024314 98.536006 
L 389.110532 98.106826 
L 389.19675 98.194253 
L 389.379264 100.029556 
L 389.684623 107.424515 
L 390.018425 121.876468 
L 391.210579 187.493046 
L 391.572722 192.906342 
L 391.81415 194.479013 
L 391.934864 194.363996 
L 392.176293 191.599855 
L 393.142007 171.39122 
L 393.262721 171.120153 
L 393.383436 171.715083 
L 393.624864 175.08617 
L 394.55998 193.244034 
L 395.009902 196.372675 
L 395.318081 199.639179 
L 395.476449 199.429291 
L 395.634817 196.540149 
L 395.951552 181.926036 
L 396.962891 118.837492 
L 397.439706 105.883626 
L 397.725795 102.663633 
L 397.916521 102.308106 
L 398.011884 102.694108 
L 398.20261 105.029207 
L 398.489101 113.143837 
L 399.073613 132.068202 
L 399.277143 134.302052 
L 399.378908 134.244653 
L 399.571963 132.213446 
L 400.05899 125.824064 
L 400.454728 124.58834 
L 400.771318 120.951842 
L 401.168825 117.162821 
L 401.414275 116.28404 
L 401.502125 116.321238 
L 401.687593 117.251777 
L 401.976607 120.712295 
L 402.272338 126.543544 
L 402.568069 137.415743 
L 403.070222 158.207519 
L 403.293773 161.070636 
L 403.740874 162.227899 
L 404.259069 165.879644 
L 404.357283 165.073411 
L 404.553713 159.919719 
L 404.993913 136.130429 
L 405.352296 122.397792 
L 405.723867 117.179585 
L 406.155619 110.773596 
L 406.943805 95.139933 
L 407.443699 82.653966 
L 407.586525 81.675922 
L 407.699144 81.833197 
L 407.999863 83.215362 
L 408.055104 83.165293 
L 408.174699 82.392319 
L 408.378869 78.698327 
L 408.676019 68.529439 
L 409.19012 49.993034 
L 409.465162 47.05284 
L 409.651316 44.902197 
L 409.84494 39.21346 
L 410.555527 10.062685 
L 410.669664 10.1307 
L 410.874033 13.856522 
L 411.177286 25.134307 
L 412.585436 88.347142 
L 412.963717 100.69221 
L 413.351753 125.96077 
L 413.678257 142.88942 
L 413.923135 146.978104 
L 414.350844 150.34645 
L 414.594208 155.988659 
L 414.863653 169.591994 
L 415.413896 198.688792 
L 416.535295 232.801877 
L 417.024996 250.105748 
L 417.12999 250.997315 
L 417.237865 249.954845 
L 417.453614 242.01179 
L 418.209125 203.98825 
L 418.425133 200.46985 
L 418.86747 197.1239 
L 419.107408 189.209792 
L 420.255427 129.487338 
L 421.26459 83.277111 
L 421.426443 82.469938 
L 421.590974 82.63546 
L 421.755641 82.99106 
L 421.920549 83.909216 
L 422.252298 86.42528 
L 422.361999 86.29029 
L 422.361999 86.29029 
" clip-path="url(#p3385bb202b)" style="fill: none; stroke: #e36f47"/>
   </g>
   <g id="patch_3">
    <path d="M 64.557544 258.225354 
L 64.557544 2.834646 
" style="fill: none; stroke: #000000; stroke-linejoin: miter; stroke-linecap: square"/>
   </g>
   <g id="patch_4">
    <path d="M 64.557544 258.225354 
L 422.361999 258.225354 
" style="fill: none; stroke: #000000; stroke-linejoin: miter; stroke-linecap: square"/>
   </g>
   <g id="line2d_13">
    <path d="M 64.557544 133.045306 
L 70.416013 132.937151 
L 71.67564 132.862288 
L 74.466365 132.658554 
L 75.131179 132.623702 
L 75.67164 132.5893 
L 76.201757 132.555055 
L 76.74384 132.521875 
L 77.34036 132.516456 
L 77.931269 132.52327 
L 78.573105 132.522946 
L 79.338307 132.550885 
L 82.154186 132.465216 
L 82.746962 132.483458 
L 84.470087 132.56489 
L 85.281353 132.660578 
L 87.961851 133.032001 
L 90.112238 133.018859 
L 91.546921 132.842511 
L 94.746921 132.49575 
L 95.768855 132.641529 
L 96.934269 133.102081 
L 100.749236 135.079369 
L 101.561208 135.214849 
L 102.381694 135.107531 
L 103.131055 134.781517 
L 103.909904 134.190256 
L 105.002522 133.017124 
L 108.202079 129.225624 
L 108.996849 128.799461 
L 109.536432 128.735779 
L 110.043729 128.861256 
L 110.585583 129.197796 
L 111.427555 130.097589 
L 112.267448 131.351083 
L 113.684693 133.953266 
L 115.160057 136.676614 
L 116.078182 137.931626 
L 116.686411 138.476855 
L 117.393222 138.813033 
L 117.915029 138.854642 
L 118.440332 138.712139 
L 118.944808 138.396628 
L 119.701057 137.618615 
L 120.915073 135.885971 
L 122.320606 133.887647 
L 123.354325 132.795802 
L 124.291628 132.169964 
L 125.106061 131.886706 
L 126.325413 131.75614 
L 127.66237 131.578045 
L 128.458808 131.216265 
L 129.192224 130.613874 
L 129.928209 129.730235 
L 131.148201 127.795493 
L 133.318817 124.189845 
L 133.91433 123.503214 
L 134.502987 123.103813 
L 135.083672 123.055006 
L 135.579944 123.324105 
L 136.078431 123.901933 
L 136.609451 124.855314 
L 137.444439 126.994569 
L 138.508807 130.603656 
L 141.146093 140.369751 
L 141.998936 142.468137 
L 142.607782 143.424045 
L 143.166669 143.906144 
L 143.70338 144.036027 
L 144.150925 143.922686 
L 144.803519 143.456427 
L 145.716811 142.415385 
L 147.025236 140.879648 
L 147.836915 140.288347 
L 148.351066 140.123888 
L 148.879487 140.118816 
L 149.64594 140.351154 
L 151.733644 141.332939 
L 152.326021 141.323693 
L 152.888113 141.047763 
L 153.456765 140.450433 
L 153.995731 139.567576 
L 154.748058 137.835687 
L 155.564912 135.381269 
L 156.673859 131.307587 
L 160.411184 116.388117 
L 161.322431 114.142191 
L 162.052953 113.043138 
L 162.511468 112.697991 
L 163.005255 112.636761 
L 163.531838 112.9363 
L 164.032214 113.575443 
L 164.610935 114.744422 
L 165.415414 117.104509 
L 166.222584 120.233462 
L 167.383933 125.715743 
L 170.562944 141.735862 
L 171.297688 144.419562 
L 172.046455 146.366699 
L 172.560194 147.234791 
L 173.065605 147.754396 
L 173.55007 147.988744 
L 174.054951 148.016329 
L 174.735515 147.80532 
L 175.878122 147.132274 
L 177.173082 146.402502 
L 178.17542 146.10669 
L 180.808696 145.651518 
L 181.583406 145.100678 
L 182.302478 144.208835 
L 183.049768 142.79535 
L 183.771824 140.89636 
L 184.630182 137.900745 
L 185.625759 133.39811 
L 186.688566 127.424221 
L 189.019134 112.248808 
L 190.162696 105.574322 
L 190.985822 101.757611 
L 191.668046 99.502903 
L 192.135316 98.567498 
L 192.396561 98.296648 
L 192.655672 98.225099 
L 192.914574 98.363136 
L 193.176572 98.728465 
L 193.700588 100.180346 
L 194.188496 102.428242 
L 194.788447 106.39882 
L 195.540912 113.089618 
L 196.698188 126.003143 
L 198.665749 148.495539 
L 199.439454 154.839671 
L 200.027468 157.947445 
L 200.395544 159.032292 
L 200.777787 159.426983 
L 200.953819 159.358141 
L 201.340132 158.669943 
L 201.674308 157.514163 
L 202.270991 154.353292 
L 203.212835 147.496263 
L 204.586195 137.409858 
L 205.260986 134.227359 
L 205.567947 133.436703 
L 205.866903 133.122949 
L 206.117335 133.223432 
L 206.419274 133.791977 
L 206.858014 135.466931 
L 207.395779 138.745312 
L 208.155385 145.021292 
L 209.699115 158.472045 
L 210.299324 162.0801 
L 210.794143 163.901022 
L 211.155948 164.516905 
L 211.330798 164.594613 
L 211.505057 164.529906 
L 211.830308 164.033597 
L 212.169862 163.004922 
L 212.743605 160.138415 
L 213.30483 156.085437 
L 214.090858 148.741986 
L 216.839087 120.598629 
L 217.606592 115.492863 
L 218.298772 112.415566 
L 218.854618 110.814935 
L 219.555875 109.489848 
L 222.19958 105.388852 
L 223.081379 103.260838 
L 224.559843 99.510736 
L 224.932724 98.919963 
L 225.325912 98.675801 
L 225.604931 98.81353 
L 225.917062 99.357618 
L 226.248853 100.439747 
L 226.727404 102.961962 
L 227.331738 107.723124 
L 228.079844 115.67023 
L 229.369273 132.575315 
L 230.983604 153.40519 
L 231.838835 161.833747 
L 232.577736 167.091563 
L 233.173407 169.716993 
L 233.503129 170.450491 
L 233.796364 170.61486 
L 233.958973 170.492265 
L 234.282298 169.768701 
L 234.716042 167.775401 
L 235.258511 163.765315 
L 236.307731 153.442051 
L 237.123132 146.262179 
L 237.712708 142.645284 
L 238.304103 140.41879 
L 238.752219 139.639989 
L 239.042177 139.574165 
L 239.321896 139.861128 
L 239.604118 140.517882 
L 240.002129 142.080607 
L 240.574982 145.53319 
L 242.69977 160.298695 
L 242.960721 160.840724 
L 243.204434 160.898884 
L 243.435822 160.552283 
L 243.806974 159.231111 
L 244.246307 156.643107 
L 244.908312 151.307028 
L 245.841685 141.907083 
L 246.758058 129.998569 
L 247.806056 113.043253 
L 249.151053 91.834482 
L 249.926438 83.021517 
L 250.42742 79.355163 
L 250.871912 77.471521 
L 251.258788 76.744143 
L 251.537827 76.648611 
L 251.829159 76.865039 
L 252.249605 77.672791 
L 252.738022 79.368016 
L 253.207298 81.946558 
L 253.701206 85.887023 
L 254.394638 93.736441 
L 255.188581 105.783073 
L 257.85309 149.111436 
L 258.792299 159.656071 
L 259.386087 163.93803 
L 259.699685 165.028527 
L 259.854614 165.215458 
L 260.00183 165.170219 
L 260.29988 164.421151 
L 260.69287 162.19435 
L 261.278982 156.933295 
L 262.623963 143.661769 
L 263.1824 140.398936 
L 263.568179 139.318202 
L 263.783346 139.13954 
L 264.035596 139.309691 
L 264.312829 139.953379 
L 264.759818 141.938506 
L 265.266698 145.461607 
L 266.014305 152.756722 
L 267.796844 171.968483 
L 268.249189 174.194812 
L 268.516176 174.638608 
L 268.644057 174.615521 
L 268.893401 174.13584 
L 269.162078 173.00097 
L 269.564314 170.228185 
L 270.161367 164.354763 
L 273.001086 133.551341 
L 273.616303 129.292831 
L 273.991674 127.768692 
L 274.246845 127.274132 
L 274.477078 127.200137 
L 274.719348 127.462997 
L 275.080679 128.341643 
L 276.280425 131.735453 
L 276.650719 132.138456 
L 277.039384 132.20971 
L 277.452938 131.990642 
L 277.974721 131.36511 
L 278.522393 130.258115 
L 278.967565 128.869756 
L 279.510815 126.277412 
L 280.120206 121.833325 
L 280.718254 115.641216 
L 281.53213 104.538821 
L 283.186033 80.979098 
L 284.176426 70.328284 
L 284.8057 65.332446 
L 285.207452 63.392746 
L 285.50678 62.845713 
L 285.64239 62.892287 
L 285.781412 63.146748 
L 286.080264 64.454527 
L 286.377838 66.858279 
L 286.886568 73.682831 
L 287.408466 84.334494 
L 288.114298 104.10464 
L 290.462696 176.82737 
L 291.074001 187.792664 
L 291.523992 192.64008 
L 291.823869 194.262666 
L 291.963658 194.572442 
L 292.127548 194.575257 
L 292.281437 194.228133 
L 292.618878 192.313863 
L 292.965053 188.795124 
L 293.455873 181.41601 
L 294.179065 166.679246 
L 295.601113 136.57249 
L 296.103053 130.228122 
L 296.426951 128.003385 
L 296.656569 127.305283 
L 296.770119 127.215727 
L 296.90297 127.313478 
L 297.170888 128.131905 
L 297.551259 130.582962 
L 297.987263 135.061603 
L 298.616842 144.345923 
L 299.832818 167.515164 
L 300.475565 177.800667 
L 300.969228 182.490874 
L 301.221815 183.537187 
L 301.347552 183.699866 
L 301.479227 183.616469 
L 301.755959 182.627746 
L 302.174444 179.28205 
L 302.814118 171.361718 
L 303.691768 160.473706 
L 304.227491 156.437455 
L 304.57402 155.09848 
L 304.940902 154.394224 
L 305.311791 153.746386 
L 305.669007 152.430247 
L 305.979613 150.276859 
L 306.364397 145.846004 
L 306.904448 136.182437 
L 308.633323 100.191817 
L 309.004165 97.496992 
L 309.179194 97.172297 
L 309.248444 97.198868 
L 309.433336 97.651909 
L 309.744463 99.378201 
L 310.559379 104.78267 
L 310.861405 105.443492 
L 310.972982 105.390748 
L 311.167043 104.904837 
L 311.489715 103.082068 
L 312.077916 97.640858 
L 312.796312 91.526848 
L 313.151057 90.248073 
L 313.255497 90.157282 
L 313.379815 90.215854 
L 313.600459 90.740247 
L 314.027022 92.882192 
L 314.64466 96.168443 
L 314.905676 96.581637 
L 315.037487 96.414391 
L 315.267709 95.425861 
L 315.604541 92.33428 
L 316.163424 83.90899 
L 316.908917 73.070957 
L 317.211695 71.098277 
L 317.402341 70.903509 
L 317.585106 71.507554 
L 317.890564 74.169189 
L 318.329962 81.032672 
L 319.07907 97.474263 
L 320.370051 125.859682 
L 321.586902 148.536002 
L 322.178852 166.583962 
L 322.963264 190.956579 
L 323.376529 198.028799 
L 323.682974 199.863208 
L 323.793837 199.909085 
L 324.019512 199.198446 
L 324.343472 196.821508 
L 324.92276 190.465431 
L 325.739582 178.724151 
L 326.745237 163.96963 
L 327.310007 158.834688 
L 327.941151 153.64798 
L 328.304203 147.948774 
L 328.730999 136.63596 
L 329.839479 103.707514 
L 330.060218 102.084227 
L 330.130354 102.098096 
L 330.256543 102.759874 
L 330.495306 106.114071 
L 330.833732 114.740655 
L 332.536239 165.095045 
L 333.122182 173.690337 
L 333.52105 176.949014 
L 333.755585 177.761715 
L 333.991048 177.915515 
L 334.41304 177.74511 
L 334.557707 177.971112 
L 334.758194 178.806629 
L 335.011584 180.893793 
L 335.461928 186.914471 
L 336.21228 196.84641 
L 336.483684 198.44726 
L 336.574953 198.588531 
L 336.666592 198.492937 
L 336.844818 197.541114 
L 337.107252 194.027792 
L 337.440636 185.611648 
L 337.953872 165.515189 
L 339.694973 92.204409 
L 340.161489 82.309425 
L 340.55641 78.731787 
L 340.841646 77.84152 
L 341.240801 77.07398 
L 341.500989 75.794292 
L 341.77792 73.052858 
L 342.248097 65.265215 
L 343.138874 49.966441 
L 343.520502 46.737809 
L 343.710248 46.420379 
L 343.874738 46.972339 
L 344.103826 49.017222 
L 344.500504 55.383956 
L 345.175994 70.787232 
L 346.580672 105.09914 
L 346.914677 108.441498 
L 347.099356 109.080789 
L 347.248498 109.074342 
L 347.451158 108.553301 
L 347.907701 107.284092 
L 348.043096 107.363634 
L 348.246527 108.106048 
L 348.542225 110.539322 
L 348.951888 116.28788 
L 349.523855 128.197158 
L 350.454425 147.645883 
L 350.875959 152.095058 
L 351.091511 153.046545 
L 351.260623 153.158421 
L 351.441166 152.664996 
L 351.682682 151.054059 
L 352.067123 146.541501 
L 352.875847 135.959073 
L 353.098728 135.206052 
L 353.184176 135.352261 
L 353.361599 136.466039 
L 353.631678 140.133717 
L 354.285385 154.245284 
L 354.708898 161.210615 
L 354.975169 162.847339 
L 355.047348 162.893967 
L 355.186525 162.534658 
L 355.439648 160.518752 
L 355.787872 155.487653 
L 356.595795 142.760418 
L 356.775308 142.140473 
L 356.901923 142.559385 
L 357.09396 144.566438 
L 357.399495 150.560029 
L 358.479837 174.482678 
L 359.006553 180.692705 
L 359.28332 182.283098 
L 359.412314 182.364402 
L 359.539737 181.931549 
L 359.732182 180.246281 
L 360.030491 175.435901 
L 361.007178 157.988107 
L 361.315711 156.121039 
L 361.451554 155.946766 
L 361.50742 155.983421 
L 361.663568 156.395581 
L 361.964597 158.257157 
L 362.671301 163.270917 
L 362.793928 163.440345 
L 362.848166 163.409599 
L 363.016128 162.906349 
L 363.262293 161.179327 
L 363.866249 154.484251 
L 364.448121 149.082874 
L 364.732762 148.033312 
L 364.837371 148.017714 
L 364.955029 148.246447 
L 365.14428 149.135207 
L 365.559539 152.620258 
L 366.243842 158.286817 
L 366.886922 161.439842 
L 367.714947 165.01298 
L 367.83107 164.834372 
L 368.014217 163.787277 
L 368.337068 159.854719 
L 368.82158 153.742061 
L 369.009667 153.18983 
L 369.097776 153.387308 
L 369.28587 154.531031 
L 369.633994 156.807687 
L 369.696983 156.892276 
L 369.763791 156.793778 
L 369.900928 155.909688 
L 370.154763 151.823426 
L 371.588526 116.790377 
L 372.491066 94.574825 
L 372.69752 93.563939 
L 372.840428 93.925884 
L 373.393109 97.001693 
L 373.457894 96.879035 
L 373.585047 96.04591 
L 373.779917 93.115959 
L 374.180728 81.934855 
L 374.768633 65.77601 
L 376.283149 39.879442 
L 376.3431 39.860448 
L 376.458505 40.414952 
L 376.63966 42.757852 
L 377.104322 53.427815 
L 377.446247 59.304709 
L 377.776341 61.522106 
L 377.974939 63.144896 
L 378.2369 68.013259 
L 378.638316 82.005334 
L 379.131958 98.732571 
L 379.406518 102.169163 
L 379.470338 102.314493 
L 379.540697 102.265579 
L 379.729253 101.481495 
L 379.940581 100.931847 
L 380.002857 101.071096 
L 380.13978 102.103813 
L 380.357488 105.968546 
L 381.505049 132.016487 
L 381.771775 136.76254 
L 382.043778 146.414437 
L 383.018295 186.841604 
L 383.185494 187.738649 
L 383.272129 187.551973 
L 383.48149 186.111023 
L 383.956172 182.808406 
L 384.275155 180.875573 
L 384.496829 177.965093 
L 384.765054 171.248206 
L 385.607582 146.278678 
L 385.647776 146.169018 
L 385.68422 146.191374 
L 385.777769 146.738903 
L 385.987674 149.914136 
L 386.518889 158.2743 
L 386.62837 158.508637 
L 386.742443 158.125142 
L 386.971659 155.93129 
L 387.452322 148.505431 
L 387.841734 138.987806 
L 389.028986 104.810268 
L 389.208742 103.998411 
L 389.26695 104.055575 
L 389.390306 104.651475 
L 389.60578 107.102138 
L 389.918649 113.616178 
L 390.290679 126.465371 
L 390.803107 153.783174 
L 391.421913 184.207231 
L 391.864488 195.157992 
L 392.208947 199.209544 
L 392.30154 199.469258 
L 392.330638 199.457871 
L 392.404832 199.210545 
L 392.536951 197.950629 
L 392.774285 193.159471 
L 393.585275 173.724453 
L 393.709235 173.406962 
L 393.798606 173.778732 
L 393.964567 175.669662 
L 394.357064 184.086636 
L 394.787163 192.097848 
L 395.030408 193.350147 
L 395.142816 193.160802 
L 395.380204 191.791074 
L 395.727509 188.383786 
L 396.009691 183.013436 
L 396.2907 172.745636 
L 396.863625 139.504773 
L 397.380624 115.76715 
L 397.787637 105.825403 
L 398.186571 100.206324 
L 398.426646 99.133849 
L 398.521943 99.425574 
L 398.711149 101.48503 
L 398.966777 107.446457 
L 399.79198 130.389833 
L 399.902924 130.879114 
L 399.952576 130.826906 
L 400.105292 129.774387 
L 400.525594 123.655759 
L 400.938523 119.11929 
L 401.418483 116.294786 
L 401.635855 115.918365 
L 401.755284 116.184788 
L 401.939281 117.401017 
L 402.237646 121.338193 
L 402.701894 131.148529 
L 403.237681 148.147199 
L 403.675469 159.373652 
L 403.863346 160.658158 
L 403.963623 160.569234 
L 404.426944 158.907459 
L 404.487257 158.944967 
L 404.666926 159.144377 
L 404.72532 159.091262 
L 404.841084 158.527555 
L 404.998423 156.288543 
L 405.22734 149.23409 
L 406.338942 106.227157 
L 407.431874 87.336447 
L 408.21758 76.473909 
L 408.778994 70.681089 
L 409.085674 63.126873 
L 410.009679 34.638537 
L 410.504839 29.276779 
L 411.106451 19.099592 
L 411.16077 19.220279 
L 411.280774 20.555432 
L 411.511808 27.224497 
L 411.94221 49.439077 
L 413.425091 129.443853 
L 414.329908 165.462842 
L 414.666186 171.177908 
L 415.060751 176.992563 
L 415.361798 186.72887 
L 416.417621 229.051205 
L 416.933717 235.732184 
L 417.438375 240.550433 
L 417.539501 240.72784 
L 417.649989 240.20228 
L 417.812822 237.552334 
L 418.057811 228.582142 
L 419.042407 184.449942 
L 419.460994 176.087563 
L 419.757392 163.244898 
L 420.830193 107.932466 
L 421.878071 71.982071 
L 422.00074 71.427102 
L 422.085812 71.831999 
L 422.271532 74.386915 
L 422.361999 76.078711 
L 422.361999 76.078711 
" clip-path="url(#p3385bb202b)" style="fill: none; stroke: #3ea44e"/>
   </g>
   <g id="legend_1">
    <g id="patch_5">
     <path d="M 332.945749 50.862146 
L 418.361999 50.862146 
L 418.361999 6.834646 
L 332.945749 6.834646 
z
" style="fill: #ffffff; stroke: #000000; stroke-linejoin: miter"/>
    </g>
    <g id="line2d_14">
     <path d="M 339.345749 16.513396 
L 347.345749 16.513396 
L 355.345749 16.513396 
" style="fill: none; stroke: #009afa; stroke-linejoin: miter"/>
    </g>
    <g id="text_13">
     <!-- GXBeam -->
     <g transform="translate(361.745749 19.313396) scale(0.08 -0.08)">
      <defs>
       <path id="DejaVuSans-47" d="M 3809 666 
L 3809 1919 
L 2778 1919 
L 2778 2438 
L 4434 2438 
L 4434 434 
Q 4069 175 3628 42 
Q 3188 -91 2688 -91 
Q 1594 -91 976 548 
Q 359 1188 359 2328 
Q 359 3472 976 4111 
Q 1594 4750 2688 4750 
Q 3144 4750 3555 4637 
Q 3966 4525 4313 4306 
L 4313 3634 
Q 3963 3931 3569 4081 
Q 3175 4231 2741 4231 
Q 1884 4231 1454 3753 
Q 1025 3275 1025 2328 
Q 1025 1384 1454 906 
Q 1884 428 2741 428 
Q 3075 428 3337 486 
Q 3600 544 3809 666 
z
" transform="scale(0.015625)"/>
       <path id="DejaVuSans-58" d="M 403 4666 
L 1081 4666 
L 2241 2931 
L 3406 4666 
L 4084 4666 
L 2584 2425 
L 4184 0 
L 3506 0 
L 2194 1984 
L 872 0 
L 191 0 
L 1856 2491 
L 403 4666 
z
" transform="scale(0.015625)"/>
       <path id="DejaVuSans-42" d="M 1259 2228 
L 1259 519 
L 2272 519 
Q 2781 519 3026 730 
Q 3272 941 3272 1375 
Q 3272 1813 3026 2020 
Q 2781 2228 2272 2228 
L 1259 2228 
z
M 1259 4147 
L 1259 2741 
L 2194 2741 
Q 2656 2741 2882 2914 
Q 3109 3088 3109 3444 
Q 3109 3797 2882 3972 
Q 2656 4147 2194 4147 
L 1259 4147 
z
M 628 4666 
L 2241 4666 
Q 2963 4666 3353 4366 
Q 3744 4066 3744 3513 
Q 3744 3084 3544 2831 
Q 3344 2578 2956 2516 
Q 3422 2416 3680 2098 
Q 3938 1781 3938 1306 
Q 3938 681 3513 340 
Q 3088 0 2303 0 
L 628 0 
L 628 4666 
z
" transform="scale(0.015625)"/>
       <path id="DejaVuSans-61" d="M 2194 1759 
Q 1497 1759 1228 1600 
Q 959 1441 959 1056 
Q 959 750 1161 570 
Q 1363 391 1709 391 
Q 2188 391 2477 730 
Q 2766 1069 2766 1631 
L 2766 1759 
L 2194 1759 
z
M 3341 1997 
L 3341 0 
L 2766 0 
L 2766 531 
Q 2569 213 2275 61 
Q 1981 -91 1556 -91 
Q 1019 -91 701 211 
Q 384 513 384 1019 
Q 384 1609 779 1909 
Q 1175 2209 1959 2209 
L 2766 2209 
L 2766 2266 
Q 2766 2663 2505 2880 
Q 2244 3097 1772 3097 
Q 1472 3097 1187 3025 
Q 903 2953 641 2809 
L 641 3341 
Q 956 3463 1253 3523 
Q 1550 3584 1831 3584 
Q 2591 3584 2966 3190 
Q 3341 2797 3341 1997 
z
" transform="scale(0.015625)"/>
      </defs>
      <use xlink:href="#DejaVuSans-47"/>
      <use xlink:href="#DejaVuSans-58" transform="translate(77.490234 0)"/>
      <use xlink:href="#DejaVuSans-42" transform="translate(145.996094 0)"/>
      <use xlink:href="#DejaVuSans-65" transform="translate(214.599609 0)"/>
      <use xlink:href="#DejaVuSans-61" transform="translate(276.123047 0)"/>
      <use xlink:href="#DejaVuSans-6d" transform="translate(337.402344 0)"/>
     </g>
    </g>
    <g id="line2d_15">
     <path d="M 339.345749 28.255896 
L 347.345749 28.255896 
L 355.345749 28.255896 
" style="fill: none; stroke: #e36f47; stroke-linejoin: miter"/>
    </g>
    <g id="text_14">
     <!-- ODEProblem -->
     <g transform="translate(361.745749 31.055896) scale(0.08 -0.08)">
      <defs>
       <path id="DejaVuSans-4f" d="M 2522 4238 
Q 1834 4238 1429 3725 
Q 1025 3213 1025 2328 
Q 1025 1447 1429 934 
Q 1834 422 2522 422 
Q 3209 422 3611 934 
Q 4013 1447 4013 2328 
Q 4013 3213 3611 3725 
Q 3209 4238 2522 4238 
z
M 2522 4750 
Q 3503 4750 4090 4092 
Q 4678 3434 4678 2328 
Q 4678 1225 4090 567 
Q 3503 -91 2522 -91 
Q 1538 -91 948 565 
Q 359 1222 359 2328 
Q 359 3434 948 4092 
Q 1538 4750 2522 4750 
z
" transform="scale(0.015625)"/>
       <path id="DejaVuSans-44" d="M 1259 4147 
L 1259 519 
L 2022 519 
Q 2988 519 3436 956 
Q 3884 1394 3884 2338 
Q 3884 3275 3436 3711 
Q 2988 4147 2022 4147 
L 1259 4147 
z
M 628 4666 
L 1925 4666 
Q 3281 4666 3915 4102 
Q 4550 3538 4550 2338 
Q 4550 1131 3912 565 
Q 3275 0 1925 0 
L 628 0 
L 628 4666 
z
" transform="scale(0.015625)"/>
       <path id="DejaVuSans-45" d="M 628 4666 
L 3578 4666 
L 3578 4134 
L 1259 4134 
L 1259 2753 
L 3481 2753 
L 3481 2222 
L 1259 2222 
L 1259 531 
L 3634 531 
L 3634 0 
L 628 0 
L 628 4666 
z
" transform="scale(0.015625)"/>
       <path id="DejaVuSans-50" d="M 1259 4147 
L 1259 2394 
L 2053 2394 
Q 2494 2394 2734 2622 
Q 2975 2850 2975 3272 
Q 2975 3691 2734 3919 
Q 2494 4147 2053 4147 
L 1259 4147 
z
M 628 4666 
L 2053 4666 
Q 2838 4666 3239 4311 
Q 3641 3956 3641 3272 
Q 3641 2581 3239 2228 
Q 2838 1875 2053 1875 
L 1259 1875 
L 1259 0 
L 628 0 
L 628 4666 
z
" transform="scale(0.015625)"/>
       <path id="DejaVuSans-72" d="M 2631 2963 
Q 2534 3019 2420 3045 
Q 2306 3072 2169 3072 
Q 1681 3072 1420 2755 
Q 1159 2438 1159 1844 
L 1159 0 
L 581 0 
L 581 3500 
L 1159 3500 
L 1159 2956 
Q 1341 3275 1631 3429 
Q 1922 3584 2338 3584 
Q 2397 3584 2469 3576 
Q 2541 3569 2628 3553 
L 2631 2963 
z
" transform="scale(0.015625)"/>
       <path id="DejaVuSans-6f" d="M 1959 3097 
Q 1497 3097 1228 2736 
Q 959 2375 959 1747 
Q 959 1119 1226 758 
Q 1494 397 1959 397 
Q 2419 397 2687 759 
Q 2956 1122 2956 1747 
Q 2956 2369 2687 2733 
Q 2419 3097 1959 3097 
z
M 1959 3584 
Q 2709 3584 3137 3096 
Q 3566 2609 3566 1747 
Q 3566 888 3137 398 
Q 2709 -91 1959 -91 
Q 1206 -91 779 398 
Q 353 888 353 1747 
Q 353 2609 779 3096 
Q 1206 3584 1959 3584 
z
" transform="scale(0.015625)"/>
       <path id="DejaVuSans-62" d="M 3116 1747 
Q 3116 2381 2855 2742 
Q 2594 3103 2138 3103 
Q 1681 3103 1420 2742 
Q 1159 2381 1159 1747 
Q 1159 1113 1420 752 
Q 1681 391 2138 391 
Q 2594 391 2855 752 
Q 3116 1113 3116 1747 
z
M 1159 2969 
Q 1341 3281 1617 3432 
Q 1894 3584 2278 3584 
Q 2916 3584 3314 3078 
Q 3713 2572 3713 1747 
Q 3713 922 3314 415 
Q 2916 -91 2278 -91 
Q 1894 -91 1617 61 
Q 1341 213 1159 525 
L 1159 0 
L 581 0 
L 581 4863 
L 1159 4863 
L 1159 2969 
z
" transform="scale(0.015625)"/>
       <path id="DejaVuSans-6c" d="M 603 4863 
L 1178 4863 
L 1178 0 
L 603 0 
L 603 4863 
z
" transform="scale(0.015625)"/>
      </defs>
      <use xlink:href="#DejaVuSans-4f"/>
      <use xlink:href="#DejaVuSans-44" transform="translate(78.710938 0)"/>
      <use xlink:href="#DejaVuSans-45" transform="translate(155.712891 0)"/>
      <use xlink:href="#DejaVuSans-50" transform="translate(218.896484 0)"/>
      <use xlink:href="#DejaVuSans-72" transform="translate(277.449219 0)"/>
      <use xlink:href="#DejaVuSans-6f" transform="translate(316.3125 0)"/>
      <use xlink:href="#DejaVuSans-62" transform="translate(377.494141 0)"/>
      <use xlink:href="#DejaVuSans-6c" transform="translate(440.970703 0)"/>
      <use xlink:href="#DejaVuSans-65" transform="translate(468.753906 0)"/>
      <use xlink:href="#DejaVuSans-6d" transform="translate(530.277344 0)"/>
     </g>
    </g>
    <g id="line2d_16">
     <path d="M 339.345749 39.998396 
L 347.345749 39.998396 
L 355.345749 39.998396 
" style="fill: none; stroke: #3ea44e; stroke-linejoin: miter"/>
    </g>
    <g id="text_15">
     <!-- DAEProblem -->
     <g transform="translate(361.745749 42.798396) scale(0.08 -0.08)">
      <defs>
       <path id="DejaVuSans-41" d="M 2188 4044 
L 1331 1722 
L 3047 1722 
L 2188 4044 
z
M 1831 4666 
L 2547 4666 
L 4325 0 
L 3669 0 
L 3244 1197 
L 1141 1197 
L 716 0 
L 50 0 
L 1831 4666 
z
" transform="scale(0.015625)"/>
      </defs>
      <use xlink:href="#DejaVuSans-44"/>
      <use xlink:href="#DejaVuSans-41" transform="translate(75.251953 0)"/>
      <use xlink:href="#DejaVuSans-45" transform="translate(143.660156 0)"/>
      <use xlink:href="#DejaVuSans-50" transform="translate(206.84375 0)"/>
      <use xlink:href="#DejaVuSans-72" transform="translate(265.396484 0)"/>
      <use xlink:href="#DejaVuSans-6f" transform="translate(304.259766 0)"/>
      <use xlink:href="#DejaVuSans-62" transform="translate(365.441406 0)"/>
      <use xlink:href="#DejaVuSans-6c" transform="translate(428.917969 0)"/>
      <use xlink:href="#DejaVuSans-65" transform="translate(456.701172 0)"/>
      <use xlink:href="#DejaVuSans-6d" transform="translate(518.224609 0)"/>
     </g>
    </g>
   </g>
  </g>
 </g>
 <defs>
  <clipPath id="p3385bb202b">
   <rect x="64.557544" y="2.834646" width="357.804455" height="255.390709"/>
  </clipPath>
 </defs>
</svg>
