<?xml version="1.0" encoding="utf-8" standalone="no"?>
<!DOCTYPE svg PUBLIC "-//W3C//DTD SVG 1.1//EN"
  "http://www.w3.org/Graphics/SVG/1.1/DTD/svg11.dtd">
<svg xmlns:xlink="http://www.w3.org/1999/xlink" width="432pt" height="288pt" viewBox="0 0 432 288" xmlns="http://www.w3.org/2000/svg" version="1.1">
 <metadata>
  <rdf:RDF xmlns:dc="http://purl.org/dc/elements/1.1/" xmlns:cc="http://creativecommons.org/ns#" xmlns:rdf="http://www.w3.org/1999/02/22-rdf-syntax-ns#">
   <cc:Work>
    <dc:type rdf:resource="http://purl.org/dc/dcmitype/StillImage"/>
    <dc:date>2026-03-27T22:39:38.987881</dc:date>
    <dc:format>image/svg+xml</dc:format>
    <dc:creator>
     <cc:Agent>
      <dc:title>Matplotlib v3.10.8, https://matplotlib.org/</dc:title>
     </cc:Agent>
    </dc:creator>
   </cc:Work>
  </rdf:RDF>
 </metadata>
 <defs>
  <style type="text/css">*{stroke-linejoin: round; stroke-linecap: butt}</style>
 </defs>
 <g id="figure_1">
  <g id="patch_1">
   <path d="M 0 288 
L 432 288 
L 432 0 
L 0 0 
z
" style="fill: #ffffff"/>
  </g>
  <g id="axes_1">
   <g id="patch_2">
    <path d="M 44.790359 258.225354 
L 422.361999 258.225354 
L 422.361999 2.834646 
L 44.790359 2.834646 
z
" style="fill: #ffffff"/>
   </g>
   <g id="line2d_1">
    <path d="M 44.790359 182.03402 
L 51.586649 181.934195 
L 54.22965 181.634515 
L 55.928722 181.229008 
L 57.439009 180.672548 
L 58.949296 179.898562 
L 60.837154 178.66879 
L 62.725012 177.191047 
L 64.61287 175.375056 
L 66.311943 173.440299 
L 72.919446 165.475813 
L 74.429733 164.249895 
L 75.562448 163.588639 
L 76.695163 163.207597 
L 77.827878 163.099448 
L 78.960592 163.191187 
L 80.470879 163.548365 
L 82.169951 164.202492 
L 83.680238 165.016957 
L 85.190525 166.099856 
L 86.889597 167.608712 
L 89.721384 170.533027 
L 91.986814 172.736639 
L 93.119529 173.57758 
L 94.252244 174.13279 
L 95.196173 174.363664 
L 96.140102 174.380433 
L 97.272817 174.162651 
L 99.915819 173.536751 
L 101.048533 173.554583 
L 101.992463 173.816897 
L 102.936392 174.367316 
L 103.880321 175.214821 
L 104.82425 176.37069 
L 105.768179 177.853705 
L 106.900894 180.070602 
L 108.222395 183.187259 
L 109.921467 187.825853 
L 112.753254 196.405798 
L 114.829898 202.491396 
L 115.962613 205.241226 
L 116.906542 206.973812 
L 117.661686 207.890874 
L 118.228043 208.248801 
L 118.794401 208.288887 
L 119.171972 208.128712 
L 119.73833 207.589931 
L 120.304687 206.694238 
L 121.05983 204.939958 
L 121.814974 202.544795 
L 122.758903 198.642898 
L 123.891618 192.751779 
L 125.213118 184.588203 
L 130.310336 151.571545 
L 131.631836 145.118015 
L 132.764551 140.573465 
L 133.897266 136.875378 
L 135.029981 133.908569 
L 135.97391 131.986193 
L 136.729053 130.852537 
L 137.484197 130.12693 
L 138.050554 129.864898 
L 138.616912 129.867884 
L 139.183269 130.142688 
L 139.749627 130.700043 
L 140.315984 131.560786 
L 141.071127 133.162959 
L 142.015056 135.835753 
L 143.147771 139.790264 
L 147.489845 155.88484 
L 148.433774 158.085041 
L 149.188918 159.246558 
L 149.755275 159.751241 
L 150.321632 159.959016 
L 150.88799 159.905621 
L 151.454347 159.639348 
L 152.209491 159.017516 
L 153.530991 157.55409 
L 155.041278 155.959125 
L 155.985207 155.252245 
L 156.929136 154.807892 
L 157.873065 154.624 
L 158.628209 154.672227 
L 159.572138 154.981472 
L 160.516067 155.547648 
L 161.459996 156.39957 
L 162.403925 157.633388 
L 163.159068 158.973477 
L 163.914212 160.688195 
L 164.858141 163.438857 
L 165.80207 166.956661 
L 166.745999 171.311359 
L 168.0675 178.643948 
L 172.409573 204.244656 
L 173.353503 208.226052 
L 174.297432 211.304814 
L 175.052575 213.105416 
L 175.618932 214.047942 
L 176.18529 214.619525 
L 176.751647 214.818897 
L 177.129219 214.730669 
L 177.506791 214.458934 
L 178.073148 213.682361 
L 178.639505 212.419036 
L 179.205863 210.621303 
L 179.961006 207.305575 
L 180.71615 202.883506 
L 181.660079 195.771035 
L 182.604008 186.897121 
L 183.736723 174.03198 
L 185.247009 154.077477 
L 187.890011 118.701494 
L 189.211511 104.128314 
L 190.344226 94.029428 
L 191.476941 85.95179 
L 192.609656 79.517404 
L 193.742371 74.341267 
L 195.063872 69.347132 
L 196.196587 65.744328 
L 196.95173 63.932514 
L 197.518088 63.104746 
L 197.895659 62.893095 
L 198.273231 62.995232 
L 198.650802 63.441358 
L 199.028374 64.252743 
L 199.594732 66.181803 
L 200.161089 68.973015 
L 200.916232 73.970417 
L 201.860161 82.00189 
L 203.370448 97.29546 
L 205.447092 117.939952 
L 209.60038 157.656 
L 211.110667 171.367822 
L 212.054596 177.892224 
L 212.809739 181.459199 
L 213.376096 183.097932 
L 213.753668 183.704374 
L 214.13124 183.935372 
L 214.508811 183.810217 
L 214.886383 183.344857 
L 215.45274 182.047891 
L 216.019098 180.094254 
L 216.774241 176.624101 
L 217.906956 170.199114 
L 219.606028 160.479724 
L 220.361172 157.226868 
L 220.927529 155.495979 
L 221.493887 154.43155 
L 221.871458 154.068706 
L 222.24903 153.958848 
L 222.626602 154.057481 
L 223.192959 154.485532 
L 225.080817 156.3251 
L 225.647175 156.491345 
L 226.213532 156.346438 
L 226.77989 155.868986 
L 227.535033 154.866685 
L 228.856534 153.047869 
L 229.422891 152.607808 
L 229.989249 152.495767 
L 230.36682 152.624322 
L 230.933178 153.12078 
L 231.499535 153.98265 
L 232.065893 155.228583 
L 232.821036 157.549225 
L 233.576179 160.667672 
L 234.520108 165.624973 
L 235.652823 172.862586 
L 237.918253 187.839055 
L 238.673396 191.096785 
L 239.239754 192.641911 
L 239.806111 193.513536 
L 240.372469 193.879515 
L 240.938826 193.880739 
L 241.505184 193.624382 
L 242.260327 193.0112 
L 243.581828 191.636289 
L 244.148185 190.793446 
L 244.714543 189.447295 
L 245.2809 187.277994 
L 245.847257 184.05988 
L 246.602401 178.06044 
L 247.54633 168.127231 
L 248.679045 153.352722 
L 251.510832 114.125656 
L 252.454761 104.679226 
L 253.39869 97.148656 
L 254.342619 91.200795 
L 255.475334 85.687482 
L 256.419263 81.10188 
L 257.174407 76.204432 
L 257.92955 69.798438 
L 260.761337 43.677601 
L 261.516481 39.301875 
L 262.082838 37.095561 
L 262.46041 36.172459 
L 262.837981 35.717181 
L 263.026767 35.678356 
L 263.215553 35.769852 
L 263.593125 36.352365 
L 263.970696 37.491209 
L 264.537054 40.226321 
L 265.292197 45.406923 
L 267.746413 63.896444 
L 269.256699 72.813008 
L 270.766986 81.60132 
L 271.522129 87.471672 
L 272.277272 95.275672 
L 273.032416 105.267676 
L 273.976345 120.684278 
L 275.297845 146.397725 
L 277.752061 195.046426 
L 278.69599 209.018302 
L 279.451133 217.202649 
L 280.017491 221.399935 
L 280.395063 223.181579 
L 280.772634 224.105699 
L 280.96142 224.237741 
L 281.150206 224.148998 
L 281.338992 223.842316 
L 281.716563 222.595531 
L 282.282921 219.275725 
L 283.038064 212.722107 
L 284.737136 194.452174 
L 285.869851 183.530054 
L 286.624995 177.896173 
L 287.191352 174.83428 
L 287.75771 172.923447 
L 288.135281 172.305594 
L 288.512853 172.160114 
L 288.890424 172.411698 
L 289.456782 173.219272 
L 290.023139 174.036076 
L 290.400711 174.263713 
L 290.589497 174.216828 
L 290.967068 173.706373 
L 291.34464 172.52084 
L 291.722212 170.56774 
L 292.288569 166.104068 
L 293.043712 157.433546 
L 294.176427 140.66346 
L 295.309142 124.438621 
L 296.064286 116.746224 
L 296.630643 113.415189 
L 297.008215 112.475367 
L 297.197001 112.387282 
L 297.385786 112.544752 
L 297.763358 113.559646 
L 298.14093 115.39592 
L 298.896073 120.760024 
L 300.217574 130.56255 
L 300.783931 132.95189 
L 301.161503 133.630038 
L 301.350289 133.695148 
L 301.539074 133.5897 
L 301.916646 132.934855 
L 302.483003 131.15024 
L 303.426933 127.768091 
L 303.804504 127.000654 
L 303.99329 126.871404 
L 304.182076 126.946112 
L 304.370862 127.241159 
L 304.748433 128.531475 
L 305.126005 130.761474 
L 305.692362 135.652016 
L 306.636292 146.562749 
L 308.335364 169.510647 
L 310.412008 197.624966 
L 311.355937 207.072701 
L 312.11108 212.248639 
L 312.677438 214.76491 
L 313.055009 215.796034 
L 313.432581 216.27979 
L 313.621367 216.308794 
L 313.810153 216.191252 
L 314.187724 215.506985 
L 314.565296 214.253457 
L 315.131653 211.475935 
L 317.019512 200.604456 
L 317.585869 199.059579 
L 317.963441 198.64219 
L 318.341012 198.599047 
L 318.90737 198.89972 
L 319.473727 199.189868 
L 319.851299 199.165294 
L 320.228871 198.900905 
L 320.606442 198.368278 
L 321.1728 197.046571 
L 321.739157 194.964368 
L 322.305515 191.719822 
L 322.871872 186.863525 
L 323.627015 177.736695 
L 325.703659 149.867561 
L 326.458803 143.307072 
L 327.213946 138.412927 
L 328.913018 129.218298 
L 329.668162 122.766839 
L 331.178448 109.187878 
L 331.744806 106.175476 
L 332.122377 105.100997 
L 332.499949 104.71001 
L 332.877521 104.845487 
L 333.255092 105.345687 
L 333.82145 106.599201 
L 335.709308 111.74123 
L 336.086879 112.145536 
L 336.464451 112.289264 
L 336.842023 112.188079 
L 337.40838 111.630157 
L 338.163523 110.773257 
L 338.541095 110.596261 
L 338.918667 110.701785 
L 339.296238 111.150475 
L 339.67381 112.113266 
L 340.051382 113.877341 
L 340.428953 116.689532 
L 340.995311 123.049254 
L 341.750454 134.77761 
L 344.015884 172.424354 
L 347.414029 220.351512 
L 348.169172 226.452166 
L 348.735529 229.419173 
L 349.301887 231.328287 
L 349.679458 232.033469 
L 349.868244 232.174089 
L 350.05703 232.150437 
L 350.245816 231.949922 
L 350.623388 231.017059 
L 351.189745 228.574997 
L 352.32246 223.154307 
L 352.700032 222.521811 
L 352.888817 222.667974 
L 353.077603 223.173618 
L 353.455175 225.297022 
L 354.021532 230.742798 
L 355.154247 242.889057 
L 355.720605 246.817595 
L 356.098176 248.402795 
L 356.475748 249.061079 
L 356.664534 248.991203 
L 356.85332 248.636263 
L 357.230891 247.075748 
L 357.797249 242.910326 
L 358.552392 234.971336 
L 359.307535 224.509603 
L 360.817822 202.238802 
L 361.384179 197.152146 
L 361.761751 195.589397 
L 361.950537 195.374718 
L 362.139323 195.502255 
L 362.516894 196.572731 
L 363.649609 201.325823 
L 364.027181 201.925106 
L 364.215967 201.920558 
L 364.593538 201.37301 
L 366.481396 196.656462 
L 367.047754 194.368208 
L 367.614111 190.800762 
L 368.180469 185.472054 
L 369.50197 169.244003 
L 371.201042 150.538704 
L 372.900114 133.999793 
L 373.277686 131.598887 
L 373.655258 130.409932 
L 373.844043 130.278108 
L 374.032829 130.417506 
L 374.410401 131.309562 
L 375.165544 134.208074 
L 375.920687 137.954587 
L 376.675831 142.99415 
L 377.61976 151.334031 
L 378.941261 163.561824 
L 379.88519 170.184739 
L 380.640333 174.408545 
L 381.395476 177.466078 
L 381.961834 179.057963 
L 382.528191 180.097493 
L 383.47212 181.528411 
L 383.849692 182.467722 
L 384.227264 184.16044 
L 384.604835 186.964415 
L 385.548764 196.993593 
L 388.00298 221.989149 
L 389.324481 233.30652 
L 389.702052 234.94419 
L 390.079624 235.859443 
L 390.457196 236.147982 
L 390.645981 236.027476 
L 391.023553 235.24219 
L 391.967482 232.347784 
L 392.345054 231.867483 
L 392.911411 231.627967 
L 394.610484 230.998683 
L 395.176841 230.325813 
L 395.931984 228.957361 
L 397.253485 225.761763 
L 397.631057 224.486321 
L 398.008628 222.452903 
L 398.3862 219.289256 
L 398.952558 212.389211 
L 399.707701 199.666408 
L 401.595559 161.070557 
L 404.427346 103.74996 
L 405.18249 94.500161 
L 407.825491 66.490555 
L 408.76942 56.335341 
L 409.902135 45.302095 
L 411.978779 23.939388 
L 412.545137 19.985277 
L 413.111494 17.337221 
L 414.810566 10.910117 
L 415.188138 10.396055 
L 415.376924 10.394243 
L 415.754496 10.745961 
L 416.132067 11.533864 
L 416.509639 12.923968 
L 417.075996 16.435902 
L 418.397497 27.600606 
L 419.530212 37.984596 
L 421.41807 58.407297 
L 421.984428 61.555277 
L 422.361999 62.241806 
L 422.361999 62.241806 
" clip-path="url(#p1f37c9f214)" style="fill: none; stroke: #009afa"/>
   </g>
   <g id="matplotlib.axis_1">
    <g id="xtick_1">
     <g id="line2d_2">
      <defs>
       <path id="m675bdb5776" d="M 0 0 
L 0 -2.5 
" style="stroke: #000000; stroke-width: 0.5"/>
      </defs>
      <g>
       <use xlink:href="#m675bdb5776" x="44.790359" y="258.225354" style="stroke: #000000; stroke-width: 0.5"/>
      </g>
     </g>
     <g id="text_1">
      <!-- $0.0$ -->
      <g transform="translate(38.390359 267.804104) scale(0.08 -0.08)">
       <defs>
        <path id="DejaVuSans-30" d="M 2034 4250 
Q 1547 4250 1301 3770 
Q 1056 3291 1056 2328 
Q 1056 1369 1301 889 
Q 1547 409 2034 409 
Q 2525 409 2770 889 
Q 3016 1369 3016 2328 
Q 3016 3291 2770 3770 
Q 2525 4250 2034 4250 
z
M 2034 4750 
Q 2819 4750 3233 4129 
Q 3647 3509 3647 2328 
Q 3647 1150 3233 529 
Q 2819 -91 2034 -91 
Q 1250 -91 836 529 
Q 422 1150 422 2328 
Q 422 3509 836 4129 
Q 1250 4750 2034 4750 
z
" transform="scale(0.015625)"/>
        <path id="DejaVuSans-2e" d="M 684 794 
L 1344 794 
L 1344 0 
L 684 0 
L 684 794 
z
" transform="scale(0.015625)"/>
       </defs>
       <use xlink:href="#DejaVuSans-30" transform="translate(0 0.78125)"/>
       <use xlink:href="#DejaVuSans-2e" transform="translate(63.623047 0.78125)"/>
       <use xlink:href="#DejaVuSans-30" transform="translate(95.410156 0.78125)"/>
      </g>
     </g>
    </g>
    <g id="xtick_2">
     <g id="line2d_3">
      <g>
       <use xlink:href="#m675bdb5776" x="139.183269" y="258.225354" style="stroke: #000000; stroke-width: 0.5"/>
      </g>
     </g>
     <g id="text_2">
      <!-- $0.5$ -->
      <g transform="translate(132.783269 267.804104) scale(0.08 -0.08)">
       <defs>
        <path id="DejaVuSans-35" d="M 691 4666 
L 3169 4666 
L 3169 4134 
L 1269 4134 
L 1269 2991 
Q 1406 3038 1543 3061 
Q 1681 3084 1819 3084 
Q 2600 3084 3056 2656 
Q 3513 2228 3513 1497 
Q 3513 744 3044 326 
Q 2575 -91 1722 -91 
Q 1428 -91 1123 -41 
Q 819 9 494 109 
L 494 744 
Q 775 591 1075 516 
Q 1375 441 1709 441 
Q 2250 441 2565 725 
Q 2881 1009 2881 1497 
Q 2881 1984 2565 2268 
Q 2250 2553 1709 2553 
Q 1456 2553 1204 2497 
Q 953 2441 691 2322 
L 691 4666 
z
" transform="scale(0.015625)"/>
       </defs>
       <use xlink:href="#DejaVuSans-30" transform="translate(0 0.78125)"/>
       <use xlink:href="#DejaVuSans-2e" transform="translate(63.623047 0.78125)"/>
       <use xlink:href="#DejaVuSans-35" transform="translate(95.410156 0.78125)"/>
      </g>
     </g>
    </g>
    <g id="xtick_3">
     <g id="line2d_4">
      <g>
       <use xlink:href="#m675bdb5776" x="233.576179" y="258.225354" style="stroke: #000000; stroke-width: 0.5"/>
      </g>
     </g>
     <g id="text_3">
      <!-- $1.0$ -->
      <g transform="translate(227.176179 267.804104) scale(0.08 -0.08)">
       <defs>
        <path id="DejaVuSans-31" d="M 794 531 
L 1825 531 
L 1825 4091 
L 703 3866 
L 703 4441 
L 1819 4666 
L 2450 4666 
L 2450 531 
L 3481 531 
L 3481 0 
L 794 0 
L 794 531 
z
" transform="scale(0.015625)"/>
       </defs>
       <use xlink:href="#DejaVuSans-31" transform="translate(0 0.78125)"/>
       <use xlink:href="#DejaVuSans-2e" transform="translate(63.623047 0.78125)"/>
       <use xlink:href="#DejaVuSans-30" transform="translate(95.410156 0.78125)"/>
      </g>
     </g>
    </g>
    <g id="xtick_4">
     <g id="line2d_5">
      <g>
       <use xlink:href="#m675bdb5776" x="327.969089" y="258.225354" style="stroke: #000000; stroke-width: 0.5"/>
      </g>
     </g>
     <g id="text_4">
      <!-- $1.5$ -->
      <g transform="translate(321.569089 267.804104) scale(0.08 -0.08)">
       <use xlink:href="#DejaVuSans-31" transform="translate(0 0.09375)"/>
       <use xlink:href="#DejaVuSans-2e" transform="translate(63.623047 0.09375)"/>
       <use xlink:href="#DejaVuSans-35" transform="translate(95.410156 0.09375)"/>
      </g>
     </g>
    </g>
    <g id="xtick_5">
     <g id="line2d_6">
      <g>
       <use xlink:href="#m675bdb5776" x="422.361999" y="258.225354" style="stroke: #000000; stroke-width: 0.5"/>
      </g>
     </g>
     <g id="text_5">
      <!-- $2.0$ -->
      <g transform="translate(415.961999 267.804104) scale(0.08 -0.08)">
       <defs>
        <path id="DejaVuSans-32" d="M 1228 531 
L 3431 531 
L 3431 0 
L 469 0 
L 469 531 
Q 828 903 1448 1529 
Q 2069 2156 2228 2338 
Q 2531 2678 2651 2914 
Q 2772 3150 2772 3378 
Q 2772 3750 2511 3984 
Q 2250 4219 1831 4219 
Q 1534 4219 1204 4116 
Q 875 4013 500 3803 
L 500 4441 
Q 881 4594 1212 4672 
Q 1544 4750 1819 4750 
Q 2544 4750 2975 4387 
Q 3406 4025 3406 3419 
Q 3406 3131 3298 2873 
Q 3191 2616 2906 2266 
Q 2828 2175 2409 1742 
Q 1991 1309 1228 531 
z
" transform="scale(0.015625)"/>
       </defs>
       <use xlink:href="#DejaVuSans-32" transform="translate(0 0.78125)"/>
       <use xlink:href="#DejaVuSans-2e" transform="translate(63.623047 0.78125)"/>
       <use xlink:href="#DejaVuSans-30" transform="translate(95.410156 0.78125)"/>
      </g>
     </g>
    </g>
    <g id="text_6">
     <!-- Time (s) -->
     <g transform="translate(211.214382 281.826136) scale(0.11 -0.11)">
      <defs>
       <path id="DejaVuSans-54" d="M -19 4666 
L 3928 4666 
L 3928 4134 
L 2272 4134 
L 2272 0 
L 1638 0 
L 1638 4134 
L -19 4134 
L -19 4666 
z
" transform="scale(0.015625)"/>
       <path id="DejaVuSans-69" d="M 603 3500 
L 1178 3500 
L 1178 0 
L 603 0 
L 603 3500 
z
M 603 4863 
L 1178 4863 
L 1178 4134 
L 603 4134 
L 603 4863 
z
" transform="scale(0.015625)"/>
       <path id="DejaVuSans-6d" d="M 3328 2828 
Q 3544 3216 3844 3400 
Q 4144 3584 4550 3584 
Q 5097 3584 5394 3201 
Q 5691 2819 5691 2113 
L 5691 0 
L 5113 0 
L 5113 2094 
Q 5113 2597 4934 2840 
Q 4756 3084 4391 3084 
Q 3944 3084 3684 2787 
Q 3425 2491 3425 1978 
L 3425 0 
L 2847 0 
L 2847 2094 
Q 2847 2600 2669 2842 
Q 2491 3084 2119 3084 
Q 1678 3084 1418 2786 
Q 1159 2488 1159 1978 
L 1159 0 
L 581 0 
L 581 3500 
L 1159 3500 
L 1159 2956 
Q 1356 3278 1631 3431 
Q 1906 3584 2284 3584 
Q 2666 3584 2933 3390 
Q 3200 3197 3328 2828 
z
" transform="scale(0.015625)"/>
       <path id="DejaVuSans-65" d="M 3597 1894 
L 3597 1613 
L 953 1613 
Q 991 1019 1311 708 
Q 1631 397 2203 397 
Q 2534 397 2845 478 
Q 3156 559 3463 722 
L 3463 178 
Q 3153 47 2828 -22 
Q 2503 -91 2169 -91 
Q 1331 -91 842 396 
Q 353 884 353 1716 
Q 353 2575 817 3079 
Q 1281 3584 2069 3584 
Q 2775 3584 3186 3129 
Q 3597 2675 3597 1894 
z
M 3022 2063 
Q 3016 2534 2758 2815 
Q 2500 3097 2075 3097 
Q 1594 3097 1305 2825 
Q 1016 2553 972 2059 
L 3022 2063 
z
" transform="scale(0.015625)"/>
       <path id="DejaVuSans-20" transform="scale(0.015625)"/>
       <path id="DejaVuSans-28" d="M 1984 4856 
Q 1566 4138 1362 3434 
Q 1159 2731 1159 2009 
Q 1159 1288 1364 580 
Q 1569 -128 1984 -844 
L 1484 -844 
Q 1016 -109 783 600 
Q 550 1309 550 2009 
Q 550 2706 781 3412 
Q 1013 4119 1484 4856 
L 1984 4856 
z
" transform="scale(0.015625)"/>
       <path id="DejaVuSans-73" d="M 2834 3397 
L 2834 2853 
Q 2591 2978 2328 3040 
Q 2066 3103 1784 3103 
Q 1356 3103 1142 2972 
Q 928 2841 928 2578 
Q 928 2378 1081 2264 
Q 1234 2150 1697 2047 
L 1894 2003 
Q 2506 1872 2764 1633 
Q 3022 1394 3022 966 
Q 3022 478 2636 193 
Q 2250 -91 1575 -91 
Q 1294 -91 989 -36 
Q 684 19 347 128 
L 347 722 
Q 666 556 975 473 
Q 1284 391 1588 391 
Q 1994 391 2212 530 
Q 2431 669 2431 922 
Q 2431 1156 2273 1281 
Q 2116 1406 1581 1522 
L 1381 1569 
Q 847 1681 609 1914 
Q 372 2147 372 2553 
Q 372 3047 722 3315 
Q 1072 3584 1716 3584 
Q 2034 3584 2315 3537 
Q 2597 3491 2834 3397 
z
" transform="scale(0.015625)"/>
       <path id="DejaVuSans-29" d="M 513 4856 
L 1013 4856 
Q 1481 4119 1714 3412 
Q 1947 2706 1947 2009 
Q 1947 1309 1714 600 
Q 1481 -109 1013 -844 
L 513 -844 
Q 928 -128 1133 580 
Q 1338 1288 1338 2009 
Q 1338 2731 1133 3434 
Q 928 4138 513 4856 
z
" transform="scale(0.015625)"/>
      </defs>
      <use xlink:href="#DejaVuSans-54"/>
      <use xlink:href="#DejaVuSans-69" transform="translate(57.958984 0)"/>
      <use xlink:href="#DejaVuSans-6d" transform="translate(85.742188 0)"/>
      <use xlink:href="#DejaVuSans-65" transform="translate(183.154297 0)"/>
      <use xlink:href="#DejaVuSans-20" transform="translate(244.677734 0)"/>
      <use xlink:href="#DejaVuSans-28" transform="translate(276.464844 0)"/>
      <use xlink:href="#DejaVuSans-73" transform="translate(315.478516 0)"/>
      <use xlink:href="#DejaVuSans-29" transform="translate(367.578125 0)"/>
     </g>
    </g>
   </g>
   <g id="matplotlib.axis_2">
    <g id="ytick_1">
     <g id="line2d_7">
      <defs>
       <path id="me767c47d1c" d="M 0 0 
L 2.5 0 
" style="stroke: #000000; stroke-width: 0.5"/>
      </defs>
      <g>
       <use xlink:href="#me767c47d1c" x="44.790359" y="242.678043" style="stroke: #000000; stroke-width: 0.5"/>
      </g>
     </g>
     <g id="text_7">
      <!-- $-0.2$ -->
      <g transform="translate(22.250359 245.717418) scale(0.08 -0.08)">
       <defs>
        <path id="DejaVuSans-2212" d="M 678 2272 
L 4684 2272 
L 4684 1741 
L 678 1741 
L 678 2272 
z
" transform="scale(0.015625)"/>
       </defs>
       <use xlink:href="#DejaVuSans-2212" transform="translate(0 0.78125)"/>
       <use xlink:href="#DejaVuSans-30" transform="translate(83.789062 0.78125)"/>
       <use xlink:href="#DejaVuSans-2e" transform="translate(147.412109 0.78125)"/>
       <use xlink:href="#DejaVuSans-32" transform="translate(173.699219 0.78125)"/>
      </g>
     </g>
    </g>
    <g id="ytick_2">
     <g id="line2d_8">
      <g>
       <use xlink:href="#me767c47d1c" x="44.790359" y="182.03402" style="stroke: #000000; stroke-width: 0.5"/>
      </g>
     </g>
     <g id="text_8">
      <!-- $0.0$ -->
      <g transform="translate(28.490359 185.073395) scale(0.08 -0.08)">
       <use xlink:href="#DejaVuSans-30" transform="translate(0 0.78125)"/>
       <use xlink:href="#DejaVuSans-2e" transform="translate(63.623047 0.78125)"/>
       <use xlink:href="#DejaVuSans-30" transform="translate(95.410156 0.78125)"/>
      </g>
     </g>
    </g>
    <g id="ytick_3">
     <g id="line2d_9">
      <g>
       <use xlink:href="#me767c47d1c" x="44.790359" y="121.389997" style="stroke: #000000; stroke-width: 0.5"/>
      </g>
     </g>
     <g id="text_9">
      <!-- $0.2$ -->
      <g transform="translate(28.970359 124.429372) scale(0.08 -0.08)">
       <use xlink:href="#DejaVuSans-30" transform="translate(0 0.78125)"/>
       <use xlink:href="#DejaVuSans-2e" transform="translate(63.623047 0.78125)"/>
       <use xlink:href="#DejaVuSans-32" transform="translate(89.910156 0.78125)"/>
      </g>
     </g>
    </g>
    <g id="ytick_4">
     <g id="line2d_10">
      <g>
       <use xlink:href="#me767c47d1c" x="44.790359" y="60.745974" style="stroke: #000000; stroke-width: 0.5"/>
      </g>
     </g>
     <g id="text_10">
      <!-- $0.4$ -->
      <g transform="translate(28.490359 63.785349) scale(0.08 -0.08)">
       <defs>
        <path id="DejaVuSans-34" d="M 2419 4116 
L 825 1625 
L 2419 1625 
L 2419 4116 
z
M 2253 4666 
L 3047 4666 
L 3047 1625 
L 3713 1625 
L 3713 1100 
L 3047 1100 
L 3047 0 
L 2419 0 
L 2419 1100 
L 313 1100 
L 313 1709 
L 2253 4666 
z
" transform="scale(0.015625)"/>
       </defs>
       <use xlink:href="#DejaVuSans-30" transform="translate(0 0.78125)"/>
       <use xlink:href="#DejaVuSans-2e" transform="translate(63.623047 0.78125)"/>
       <use xlink:href="#DejaVuSans-34" transform="translate(95.410156 0.78125)"/>
      </g>
     </g>
    </g>
    <g id="text_11">
     <!-- $u_y$ ($m$) -->
     <g transform="translate(14.840359 147.855) rotate(-90) scale(0.11 -0.11)">
      <defs>
       <path id="DejaVuSans-Oblique-75" d="M 428 1388 
L 838 3500 
L 1416 3500 
L 1006 1409 
Q 975 1256 961 1147 
Q 947 1038 947 966 
Q 947 700 1109 554 
Q 1272 409 1569 409 
Q 2031 409 2368 721 
Q 2706 1034 2809 1563 
L 3194 3500 
L 3769 3500 
L 3091 0 
L 2516 0 
L 2631 550 
Q 2388 244 2052 76 
Q 1716 -91 1338 -91 
Q 878 -91 622 161 
Q 366 413 366 863 
Q 366 956 381 1097 
Q 397 1238 428 1388 
z
" transform="scale(0.015625)"/>
       <path id="DejaVuSans-Oblique-79" d="M 1588 -325 
Q 1188 -997 936 -1164 
Q 684 -1331 294 -1331 
L -159 -1331 
L -63 -850 
L 269 -850 
Q 509 -850 678 -719 
Q 847 -588 1056 -206 
L 1234 128 
L 459 3500 
L 1069 3500 
L 1650 819 
L 3256 3500 
L 3859 3500 
L 1588 -325 
z
" transform="scale(0.015625)"/>
       <path id="DejaVuSans-Oblique-6d" d="M 5747 2113 
L 5338 0 
L 4763 0 
L 5166 2094 
Q 5191 2228 5203 2325 
Q 5216 2422 5216 2491 
Q 5216 2772 5059 2928 
Q 4903 3084 4622 3084 
Q 4203 3084 3875 2770 
Q 3547 2456 3450 1953 
L 3066 0 
L 2491 0 
L 2900 2094 
Q 2925 2209 2937 2307 
Q 2950 2406 2950 2484 
Q 2950 2769 2794 2926 
Q 2638 3084 2363 3084 
Q 1938 3084 1609 2770 
Q 1281 2456 1184 1953 
L 800 0 
L 225 0 
L 909 3500 
L 1484 3500 
L 1375 2956 
Q 1609 3263 1923 3423 
Q 2238 3584 2597 3584 
Q 2978 3584 3223 3384 
Q 3469 3184 3519 2828 
Q 3781 3197 4126 3390 
Q 4472 3584 4856 3584 
Q 5306 3584 5551 3325 
Q 5797 3066 5797 2591 
Q 5797 2488 5784 2364 
Q 5772 2241 5747 2113 
z
" transform="scale(0.015625)"/>
      </defs>
      <use xlink:href="#DejaVuSans-Oblique-75" transform="translate(0 0.125)"/>
      <use xlink:href="#DejaVuSans-Oblique-79" transform="translate(63.378906 -16.28125) scale(0.7)"/>
      <use xlink:href="#DejaVuSans-20" transform="translate(107.539062 0.125)"/>
      <use xlink:href="#DejaVuSans-28" transform="translate(139.326172 0.125)"/>
      <use xlink:href="#DejaVuSans-Oblique-6d" transform="translate(178.339844 0.125)"/>
      <use xlink:href="#DejaVuSans-29" transform="translate(275.751953 0.125)"/>
     </g>
    </g>
   </g>
   <g id="line2d_11">
    <path d="M 44.790359 182.03402 
L 51.695426 181.925978 
L 54.189969 181.642083 
L 55.927511 181.230215 
L 57.605058 180.598351 
L 59.165814 179.770645 
L 61.140025 178.454064 
L 62.784804 177.136401 
L 64.640059 175.346739 
L 66.348928 173.393553 
L 72.520259 165.856931 
L 73.987693 164.568528 
L 75.257891 163.732944 
L 76.241546 163.324904 
L 77.318669 163.118633 
L 78.589353 163.13967 
L 80.000205 163.410144 
L 81.641713 163.968329 
L 83.230283 164.740847 
L 84.608111 165.649235 
L 86.200581 166.960475 
L 88.318659 169.059793 
L 91.830614 172.605417 
L 93.133955 173.585325 
L 94.130624 174.087643 
L 95.177435 174.36184 
L 96.224666 174.360401 
L 97.486771 174.093429 
L 99.735517 173.553587 
L 100.722127 173.509395 
L 101.744927 173.716967 
L 102.549331 174.104286 
L 103.375834 174.720508 
L 104.234663 175.602873 
L 105.111263 176.779842 
L 106.281602 178.800432 
L 107.45244 181.315549 
L 108.915988 185.008615 
L 110.840329 190.555651 
L 115.157491 203.374858 
L 116.1421 205.636376 
L 116.880556 206.960066 
L 117.619013 207.87787 
L 118.111317 208.217544 
L 118.603622 208.32144 
L 119.095926 208.173681 
L 119.588231 207.767195 
L 120.080535 207.09599 
L 120.817551 205.577629 
L 121.53634 203.506904 
L 122.387253 200.286889 
L 123.354137 195.67055 
L 124.542407 188.842315 
L 126.1917 177.94941 
L 129.227905 157.720866 
L 130.623262 149.898856 
L 131.92204 143.844908 
L 133.031444 139.618358 
L 134.202544 135.978982 
L 135.418967 133.013998 
L 136.415355 131.255549 
L 137.097384 130.437525 
L 137.779414 129.949007 
L 138.461443 129.826602 
L 139.143472 130.094236 
L 139.825502 130.796624 
L 140.426032 131.77751 
L 141.204577 133.531267 
L 142.037389 135.937061 
L 143.286607 140.330818 
L 147.33684 155.474185 
L 148.219925 157.672499 
L 148.984841 158.990422 
L 149.559447 159.602911 
L 150.068277 159.892248 
L 150.641966 159.951185 
L 151.152555 159.793416 
L 151.839337 159.331398 
L 152.873909 158.282835 
L 154.959829 156.02729 
L 156.044512 155.197374 
L 156.87254 154.792687 
L 157.766969 154.597745 
L 158.71011 154.665551 
L 159.688433 155.007002 
L 160.497871 155.493704 
L 161.349776 156.247725 
L 162.223294 157.350183 
L 163.096813 158.848792 
L 164.132518 161.244741 
L 165.170105 164.502306 
L 166.236618 168.888016 
L 167.360982 174.628817 
L 168.860135 183.561366 
L 171.656689 200.50684 
L 172.900221 206.463864 
L 173.831604 209.956245 
L 174.719694 212.44195 
L 175.458836 213.858686 
L 176.025999 214.534608 
L 176.510423 214.82397 
L 176.981023 214.843452 
L 177.430907 214.600388 
L 177.903965 214.038956 
L 178.401944 213.07601 
L 178.997185 211.382392 
L 179.680657 208.665582 
L 180.45316 204.548696 
L 181.311497 198.617429 
L 182.256891 190.369189 
L 183.312651 179.056093 
L 184.646825 162.168419 
L 188.552457 110.858651 
L 189.768823 98.785638 
L 190.831476 90.242712 
L 191.828268 83.712029 
L 192.843344 78.324058 
L 194.00098 73.303105 
L 195.520227 67.713905 
L 196.446872 64.950236 
L 197.08493 63.598649 
L 197.722988 62.904508 
L 198.042017 62.85929 
L 198.361046 63.040033 
L 198.680075 63.463808 
L 198.999104 64.14306 
L 199.637161 66.313921 
L 200.200779 69.158309 
L 200.934546 74.122345 
L 201.912901 82.612727 
L 204.180622 105.690666 
L 206.34149 126.291516 
L 209.162663 153.42023 
L 210.940879 170.074418 
L 211.885345 176.883866 
L 212.592532 180.551241 
L 213.188832 182.603829 
L 213.692535 183.589808 
L 214.083069 183.896199 
L 214.397375 183.859345 
L 214.722471 183.564818 
L 215.134267 182.83145 
L 215.647693 181.385838 
L 216.282779 178.88243 
L 217.113037 174.677308 
L 220.307355 157.173558 
L 220.976919 155.12869 
L 221.431186 154.283569 
L 221.930393 153.836798 
L 222.280834 153.781835 
L 222.658907 153.914038 
L 223.254243 154.391703 
L 224.914918 156.013031 
L 225.371136 156.244412 
L 225.827353 156.288102 
L 226.314429 156.100626 
L 226.810469 155.665742 
L 227.590524 154.618129 
L 228.712537 153.035458 
L 229.304043 152.530705 
L 229.932233 152.384628 
L 230.574039 152.662366 
L 231.215845 153.365581 
L 231.857651 154.548481 
L 232.499457 156.286375 
L 233.141263 158.628454 
L 234.103972 163.23576 
L 235.066681 168.961878 
L 238.375045 190.094005 
L 238.946997 191.996236 
L 239.514484 193.140308 
L 240.023191 193.664368 
L 240.495139 193.839652 
L 240.980696 193.780846 
L 241.606858 193.454166 
L 242.830121 192.477839 
L 243.787939 191.521853 
L 244.284312 190.706057 
L 244.763728 189.458134 
L 245.259115 187.499178 
L 245.824035 184.284081 
L 246.475347 179.231858 
L 247.328913 170.619362 
L 248.349301 157.797673 
L 251.96777 109.430725 
L 252.947469 100.549168 
L 253.955006 93.388467 
L 254.899859 88.332743 
L 256.644674 79.716617 
L 257.391611 74.313388 
L 258.373235 65.245983 
L 260.338282 46.489785 
L 261.186248 40.600312 
L 261.869026 37.392235 
L 262.381109 35.990315 
L 262.722498 35.570047 
L 262.999074 35.543115 
L 263.280485 35.813505 
L 263.66238 36.669753 
L 264.060662 38.146466 
L 264.612227 41.084016 
L 265.431711 46.828657 
L 267.855305 64.603911 
L 269.176789 72.254521 
L 270.682694 80.856663 
L 271.413453 86.540675 
L 272.160928 94.181366 
L 273.022871 105.522355 
L 274.035595 122.140626 
L 275.375423 148.427154 
L 277.623153 193.252774 
L 278.629368 208.56239 
L 279.40047 217.172164 
L 280.019468 221.782759 
L 280.440377 223.605202 
L 280.757538 224.237536 
L 280.968978 224.304204 
L 281.184265 224.084282 
L 281.514188 223.201369 
L 281.96667 220.999244 
L 282.540742 216.811871 
L 283.436143 208.204989 
L 285.958645 182.583352 
L 286.677372 177.34032 
L 287.220604 174.495115 
L 287.763836 172.735402 
L 288.130937 172.155015 
L 288.498038 172.008883 
L 288.865139 172.207348 
L 289.485057 172.985901 
L 290.06688 173.689733 
L 290.357792 173.830699 
L 290.648704 173.724641 
L 290.939615 173.302035 
L 291.230527 172.495976 
L 291.672861 170.417927 
L 292.228609 166.2376 
L 292.831446 159.751374 
L 293.712759 147.411712 
L 295.531214 121.308471 
L 296.116013 115.839922 
L 296.570163 113.217694 
L 296.920105 112.23505 
L 297.159081 112.081076 
L 297.399309 112.329468 
L 297.653254 113.0021 
L 298.034171 114.718688 
L 298.641822 118.812647 
L 300.340658 131.265783 
L 300.771405 132.866108 
L 301.07103 133.402064 
L 301.310102 133.497386 
L 301.567214 133.293718 
L 301.931116 132.53498 
L 302.489343 130.610414 
L 303.432157 127.172043 
L 303.79732 126.525645 
L 303.980853 126.46324 
L 304.171129 126.614956 
L 304.469907 127.334886 
L 304.878522 129.301436 
L 305.323355 132.646583 
L 306.014967 139.740667 
L 307.375224 156.757773 
L 311.115007 205.104429 
L 311.908373 211.205485 
L 312.592659 214.742839 
L 313.105873 216.278698 
L 313.474298 216.716156 
L 313.660647 216.711583 
L 313.996289 216.313904 
L 314.400844 215.187804 
L 314.906539 212.898613 
L 315.815429 207.321194 
L 316.74514 202.051176 
L 317.309083 200.070406 
L 317.729504 199.296333 
L 318.043515 199.074773 
L 318.378579 199.104837 
L 318.931735 199.457836 
L 319.509239 199.741064 
L 319.849994 199.694339 
L 320.222118 199.403311 
L 320.671638 198.681736 
L 321.144944 197.464942 
L 321.657242 195.50626 
L 322.195077 192.418974 
L 322.720259 188.014963 
L 323.330125 181.028321 
L 325.935824 147.939348 
L 326.777709 141.211087 
L 327.551667 136.841795 
L 328.598854 131.288477 
L 329.252842 126.329851 
L 330.178417 117.328745 
L 331.075512 109.109868 
L 331.614568 105.973127 
L 331.973938 104.879927 
L 332.243466 104.531148 
L 332.49474 104.493041 
L 332.814146 104.747225 
L 333.225192 105.454754 
L 333.812623 106.971924 
L 335.290155 110.977548 
L 335.898792 111.949757 
L 336.341712 112.340384 
L 336.645561 112.389475 
L 337.032555 112.18072 
L 337.754391 111.3795 
L 338.73805 110.360439 
L 339.015816 110.296156 
L 339.246077 110.448201 
L 339.505562 110.942878 
L 339.782824 111.96324 
L 340.17962 114.480512 
L 340.696528 119.687454 
L 341.406895 129.786289 
L 345.828301 199.934841 
L 346.900004 214.36396 
L 347.702398 222.353108 
L 348.536511 228.357391 
L 349.143832 231.297377 
L 349.511589 232.181057 
L 349.779498 232.340426 
L 349.97268 232.205366 
L 350.24444 231.677111 
L 350.645742 230.242411 
L 351.191529 227.295448 
L 352.173804 221.899394 
L 352.455066 221.335926 
L 352.642574 221.384452 
L 352.835227 221.819895 
L 353.132454 223.25319 
L 353.542753 226.515785 
L 355.585917 245.311662 
L 356.094619 247.459018 
L 356.34897 247.907492 
L 356.603321 247.923373 
L 356.857672 247.521669 
L 357.239198 246.166443 
L 357.625806 243.858039 
L 358.166907 238.944761 
L 358.825341 230.341447 
L 361.047247 198.293525 
L 361.390765 196.029598 
L 361.6337 195.246882 
L 361.884475 195.128642 
L 362.135308 195.590204 
L 362.637704 197.442222 
L 363.290994 199.723909 
L 363.68997 200.456968 
L 363.955955 200.578721 
L 364.221939 200.406824 
L 364.620916 199.765198 
L 365.380622 198.511165 
L 366.241178 197.37894 
L 366.605572 196.463606 
L 366.960026 194.961957 
L 367.420745 191.811404 
L 368.032742 185.790398 
L 372.843653 133.107921 
L 373.309126 131.016145 
L 373.658232 130.4252 
L 373.890968 130.420983 
L 374.134748 130.700273 
L 374.500418 131.545283 
L 375.110387 133.648941 
L 375.884904 137.076356 
L 376.432681 140.64297 
L 377.110502 146.866739 
L 378.52623 160.277822 
L 379.694551 168.886192 
L 380.716446 174.936156 
L 381.348793 177.680793 
L 381.74401 178.629135 
L 382.139227 179.044014 
L 383.122349 179.700368 
L 383.454596 180.334223 
L 383.816185 181.661591 
L 384.269598 184.566537 
L 384.938185 190.789585 
L 388.980062 231.858465 
L 389.489594 234.532328 
L 389.744361 235.233128 
L 389.999127 235.404298 
L 390.253894 235.070554 
L 390.763427 233.569361 
L 391.27296 232.23361 
L 391.782492 231.544668 
L 392.164642 231.340007 
L 392.571991 231.383368 
L 393.661417 231.888791 
L 393.991136 231.651202 
L 394.492487 230.815748 
L 395.962223 227.922944 
L 396.968537 226.922559 
L 397.271279 226.045907 
L 397.682087 224.106695 
L 398.10919 220.844715 
L 398.659803 214.244169 
L 399.578524 199.543211 
L 401.266492 168.860515 
L 402.358284 144.815902 
L 403.90967 110.404981 
L 404.603109 100.874853 
L 405.533597 91.869055 
L 406.619525 79.939561 
L 407.835466 65.633955 
L 409.90327 44.447684 
L 411.385296 26.892762 
L 412.045322 22.102322 
L 412.767839 18.68603 
L 413.680915 14.257043 
L 414.352784 11.132505 
L 414.739253 10.304553 
L 414.932957 10.187762 
L 415.127129 10.262731 
L 415.418877 10.674 
L 415.813444 11.715892 
L 416.313382 14.012629 
L 418.674412 27.302847 
L 419.1808 32.343577 
L 420.205414 45.81763 
L 421.118565 56.487029 
L 421.548378 59.418052 
L 421.896161 60.442295 
L 422.158718 60.560928 
L 422.361999 60.401473 
L 422.361999 60.401473 
" clip-path="url(#p1f37c9f214)" style="fill: none; stroke: #e36f47"/>
   </g>
   <g id="patch_3">
    <path d="M 44.790359 258.225354 
L 44.790359 2.834646 
" style="fill: none; stroke: #000000; stroke-linejoin: miter; stroke-linecap: square"/>
   </g>
   <g id="patch_4">
    <path d="M 44.790359 258.225354 
L 422.361999 258.225354 
" style="fill: none; stroke: #000000; stroke-linejoin: miter; stroke-linecap: square"/>
   </g>
   <g id="line2d_12">
    <path d="M 44.790359 182.03402 
L 51.718448 181.924427 
L 54.204474 181.639417 
L 55.898418 181.239395 
L 57.543486 180.625821 
L 59.083426 179.819207 
L 60.889218 178.632835 
L 62.683254 177.22574 
L 64.457684 175.538797 
L 66.193778 173.583965 
L 68.997872 169.983873 
L 71.756842 166.650147 
L 73.270786 165.158766 
L 74.651317 164.099732 
L 75.801564 163.481645 
L 76.79956 163.189735 
L 77.862841 163.098711 
L 79.088378 163.211466 
L 80.494932 163.5566 
L 82.064404 164.15436 
L 83.640187 164.990736 
L 85.099967 166.025725 
L 86.802809 167.523451 
L 89.326756 170.114746 
L 91.684748 172.462323 
L 93.069763 173.538679 
L 94.249741 174.130099 
L 95.136034 174.354623 
L 96.217488 174.381919 
L 97.36375 174.166303 
L 100.046333 173.545368 
L 101.09562 173.584017 
L 101.912702 173.807313 
L 102.730133 174.234895 
L 103.711053 175.048332 
L 104.744919 176.273302 
L 105.744587 177.819971 
L 106.835414 179.920234 
L 108.016226 182.648114 
L 109.749586 187.312511 
L 112.221898 194.741821 
L 114.772819 202.252765 
L 115.890876 204.998458 
L 116.769125 206.678346 
L 117.350402 207.48999 
L 117.978815 208.05198 
L 118.599993 208.248372 
L 119.212758 208.05884 
L 119.736447 207.574894 
L 120.262473 206.776946 
L 120.82283 205.576608 
L 121.703948 202.962087 
L 122.547084 199.655025 
L 123.560299 194.711467 
L 124.791151 187.487895 
L 126.832881 173.764498 
L 129.26218 157.684829 
L 130.70355 149.614306 
L 131.814043 144.419582 
L 132.945286 140.018793 
L 134.041037 136.538662 
L 135.201326 133.62667 
L 136.13239 131.852324 
L 137.083732 130.593271 
L 137.72457 130.099621 
L 138.288546 129.928326 
L 138.897001 130.042321 
L 139.415298 130.396046 
L 139.963518 131.033272 
L 140.528507 131.972159 
L 141.429229 134.037596 
L 142.494358 137.283064 
L 143.677657 141.642614 
L 146.901097 153.940617 
L 147.893107 156.768846 
L 148.676891 158.41486 
L 149.232565 159.234404 
L 149.760585 159.742556 
L 150.371277 160.014362 
L 150.958532 159.98457 
L 151.47763 159.753312 
L 152.355942 159.032737 
L 153.915496 157.275863 
L 155.264191 155.877519 
L 156.364466 155.102313 
L 157.17589 154.793499 
L 157.988729 154.707457 
L 158.7597 154.817318 
L 159.545118 155.106654 
L 160.337035 155.579311 
L 161.267607 156.393759 
L 162.077214 157.375184 
L 162.905384 158.704581 
L 163.887774 160.812001 
L 164.685143 163.034555 
L 165.684525 166.569193 
L 166.694295 171.033255 
L 168.021431 178.14415 
L 170.259951 191.936363 
L 171.744851 200.660422 
L 172.825788 205.979091 
L 173.668604 209.309426 
L 174.514567 211.862879 
L 175.094169 213.14448 
L 175.637699 213.998577 
L 176.127926 214.478178 
L 176.682985 214.681892 
L 177.149965 214.563407 
L 177.547302 214.242023 
L 177.917588 213.748658 
L 178.437554 212.716467 
L 178.923179 211.367915 
L 179.691942 208.405798 
L 180.515045 204.02321 
L 181.504914 197.001974 
L 182.393036 189.049142 
L 183.41899 178.006894 
L 184.850809 159.929094 
L 188.338112 114.167403 
L 189.482245 102.133448 
L 190.725429 91.500462 
L 191.806436 84.156254 
L 192.912134 78.186322 
L 194.035235 73.334805 
L 195.318246 68.764608 
L 196.321374 65.834221 
L 197.074527 64.22737 
L 197.581804 63.584882 
L 197.950389 63.404114 
L 198.27108 63.47313 
L 198.583757 63.763413 
L 198.924303 64.348972 
L 199.487706 65.972312 
L 200.030666 68.334847 
L 200.753466 72.678815 
L 201.577597 79.141981 
L 202.807643 90.961384 
L 206.294721 125.960341 
L 211.600015 174.93389 
L 212.442417 179.929113 
L 213.009661 182.22765 
L 213.419916 183.332273 
L 213.835869 183.978959 
L 214.228907 184.165365 
L 214.657679 183.919628 
L 215.064309 183.279222 
L 215.526963 182.107095 
L 216.171496 179.77717 
L 217.010713 175.771323 
L 218.533604 167.05714 
L 219.745356 160.538586 
L 220.599697 157.118717 
L 221.139882 155.666271 
L 221.653488 154.824841 
L 222.092957 154.496036 
L 222.556237 154.480686 
L 223.069475 154.761795 
L 223.891689 155.560227 
L 224.921833 156.531401 
L 225.446986 156.801727 
L 225.894615 156.845391 
L 226.329391 156.700549 
L 226.889467 156.242149 
L 227.675242 155.205229 
L 228.914532 153.499345 
L 229.507517 153.052139 
L 229.927517 152.964979 
L 230.385889 153.103897 
L 230.8401 153.482849 
L 231.344849 154.182004 
L 232.012968 155.565834 
L 232.774191 157.827889 
L 233.550907 160.941325 
L 234.541931 166.030059 
L 235.806211 173.921586 
L 238.052789 188.291546 
L 238.775342 191.381067 
L 239.430606 193.143472 
L 240.008826 193.971826 
L 240.473358 194.256729 
L 240.928761 194.294889 
L 241.397809 194.141629 
L 241.951977 193.754776 
L 242.704852 192.940564 
L 243.538659 191.707287 
L 244.210287 190.343952 
L 244.743237 188.818423 
L 245.403108 186.057259 
L 245.952956 182.779568 
L 246.647482 177.226855 
L 247.569845 167.581298 
L 248.764668 152.054809 
L 251.761333 110.979797 
L 252.705461 101.900258 
L 253.641507 94.984404 
L 254.674923 89.073313 
L 257.015273 76.910559 
L 257.873608 70.185977 
L 259.257773 56.872603 
L 260.41491 46.644292 
L 261.227055 41.326361 
L 261.887316 38.36287 
L 262.415036 36.872477 
L 262.868955 36.225246 
L 263.18066 36.141514 
L 263.465915 36.341303 
L 263.7916 36.915281 
L 264.22211 38.272525 
L 264.749526 40.877841 
L 265.398732 45.339566 
L 268.390495 68.036192 
L 271.314186 86.1144 
L 272.089225 93.215511 
L 272.893035 102.913579 
L 273.751874 116.110656 
L 274.992715 139.394065 
L 277.946107 196.897225 
L 278.865287 209.860741 
L 279.574837 217.108582 
L 280.116514 220.864571 
L 280.573269 222.773572 
L 280.84485 223.347844 
L 281.135731 223.49344 
L 281.423841 223.160241 
L 281.73723 222.268199 
L 282.162415 220.215543 
L 282.661159 216.694683 
L 283.502778 208.668655 
L 286.168813 180.93644 
L 286.936004 175.805891 
L 287.573351 173.097078 
L 288.060147 172.026676 
L 288.339761 171.792263 
L 288.598109 171.802448 
L 288.870451 172.018605 
L 289.35335 172.778613 
L 290.254608 174.355808 
L 290.532837 174.540011 
L 290.775341 174.474885 
L 290.99977 174.18592 
L 291.374885 173.128911 
L 291.780445 171.085726 
L 292.191905 168.006082 
L 292.759495 162.15521 
L 293.601617 150.745899 
L 295.534589 122.93405 
L 296.209602 116.671995 
L 296.725699 113.947022 
L 296.989029 113.285173 
L 297.271318 113.115808 
L 297.541349 113.45702 
L 297.818664 114.287603 
L 298.228595 116.294615 
L 298.845261 120.59559 
L 300.284814 131.374976 
L 300.81203 133.756212 
L 301.166525 134.590288 
L 301.437227 134.806656 
L 301.626971 134.754105 
L 301.948443 134.323308 
L 302.350294 133.299675 
L 303.884322 128.782328 
L 304.145881 128.688996 
L 304.382756 128.930015 
L 304.701468 129.788997 
L 305.142942 132.013575 
L 305.726444 136.619509 
L 306.479282 144.614514 
L 307.821846 161.8504 
L 310.881397 202.525908 
L 311.695046 209.53032 
L 312.342914 213.356664 
L 312.922603 215.450073 
L 313.268 216.077898 
L 313.483752 216.225274 
L 313.694392 216.183352 
L 313.917679 215.937159 
L 314.213312 215.295709 
L 314.638562 213.777923 
L 315.214495 210.782541 
L 317.241864 198.994669 
L 317.702339 197.782493 
L 318.1135 197.314706 
L 318.467658 197.260994 
L 319.033367 197.508266 
L 319.622346 197.689259 
L 319.993748 197.557344 
L 320.401602 197.121027 
L 320.91648 196.133547 
L 321.462815 194.542566 
L 321.96709 192.41377 
L 322.441844 189.537618 
L 323.035331 184.348132 
L 323.71326 176.179051 
L 326.059201 145.686946 
L 326.810272 139.649398 
L 327.573745 135.25389 
L 328.860455 128.521143 
L 329.554231 122.98572 
L 331.452872 106.519768 
L 331.932283 104.528143 
L 332.308585 103.800903 
L 332.60374 103.654834 
L 332.899396 103.788782 
L 333.29068 104.275543 
L 333.833646 105.386117 
L 334.620622 107.618064 
L 335.620258 110.394076 
L 336.125118 111.269926 
L 336.563881 111.656227 
L 336.936852 111.702957 
L 337.32599 111.506183 
L 338.468621 110.684749 
L 338.762131 110.709192 
L 339.069362 110.933091 
L 339.36507 111.405147 
L 339.684606 112.307397 
L 340.115412 114.41571 
L 340.576819 118.109944 
L 341.104263 124.284344 
L 341.867618 136.203804 
L 344.384797 178.117741 
L 347.332573 221.230694 
L 348.037406 227.612378 
L 348.638927 231.238137 
L 349.186804 233.304995 
L 349.642572 234.198129 
L 349.930928 234.333245 
L 350.191615 234.141438 
L 350.52444 233.460096 
L 350.97135 231.857991 
L 351.742471 227.973625 
L 352.350677 225.211766 
L 352.677015 224.503115 
L 352.824789 224.463504 
L 352.962491 224.608588 
L 353.218382 225.373513 
L 353.5626 227.405712 
L 354.090362 232.30006 
L 355.506432 246.601455 
L 356.0012 249.57198 
L 356.399423 250.81705 
L 356.586939 250.997315 
L 356.73698 250.941358 
L 356.926199 250.613234 
L 357.24905 249.406563 
L 357.685391 246.614619 
L 358.225317 241.655135 
L 358.888295 233.550112 
L 359.921865 217.559933 
L 360.936042 202.966434 
L 361.489925 197.891362 
L 361.842668 196.294905 
L 362.055569 195.971969 
L 362.196797 196.002263 
L 362.421443 196.394307 
L 362.817408 197.795505 
L 363.69748 201.177822 
L 364.023439 201.738843 
L 364.255772 201.826161 
L 364.511863 201.656074 
L 364.886003 201.064634 
L 366.353638 198.000167 
L 366.857963 196.317619 
L 367.336607 193.816833 
L 367.857914 189.652856 
L 368.537731 182.020386 
L 370.890327 153.956193 
L 372.880176 134.170801 
L 373.389982 131.130418 
L 373.737487 130.234449 
L 373.976233 130.136286 
L 374.177569 130.321555 
L 374.512582 131.035269 
L 374.964842 132.555027 
L 375.596581 135.504237 
L 376.294288 139.811787 
L 377.033409 145.848275 
L 379.948838 172.372639 
L 380.678125 176.453161 
L 381.279033 178.648259 
L 381.777773 179.745735 
L 382.226124 180.248825 
L 382.802556 180.519858 
L 383.29616 180.796371 
L 383.61947 181.276806 
L 383.921169 182.185551 
L 384.295157 184.185285 
L 384.83892 188.734267 
L 386.026903 201.358486 
L 387.503013 217.315948 
L 389.170418 232.368382 
L 389.66454 234.680915 
L 390.060621 235.626799 
L 390.289387 235.784806 
L 390.495657 235.68712 
L 390.793446 235.208418 
L 392.276195 232.225103 
L 392.80991 231.880662 
L 393.889574 231.338603 
L 394.434719 230.690608 
L 395.229973 229.361895 
L 396.163584 227.336525 
L 397.510991 223.973838 
L 397.907578 222.057479 
L 398.355166 218.762346 
L 398.875703 213.071602 
L 399.538426 202.970879 
L 400.553077 183.704939 
L 402.432058 142.671954 
L 404.039159 107.610551 
L 404.785995 96.296307 
L 405.49604 88.619614 
L 407.086822 73.023291 
L 408.581422 57.316864 
L 410.089189 42.165446 
L 411.695117 25.653052 
L 412.368305 20.972801 
L 413.30392 16.357631 
L 414.291228 12.300208 
L 414.917052 10.563086 
L 415.28013 10.096867 
L 415.524843 10.095774 
L 415.764029 10.356578 
L 416.089219 11.102463 
L 416.536968 12.785836 
L 417.110264 15.929152 
L 418.143504 23.041443 
L 418.92116 29.847084 
L 419.683527 38.628858 
L 421.390824 59.553727 
L 421.851336 62.491397 
L 422.164739 63.441813 
L 422.361999 63.636187 
L 422.361999 63.636187 
" clip-path="url(#p1f37c9f214)" style="fill: none; stroke: #3ea44e"/>
   </g>
   <g id="legend_1">
    <g id="patch_5">
     <path d="M 332.945749 50.862146 
L 418.361999 50.862146 
L 418.361999 6.834646 
L 332.945749 6.834646 
z
" style="fill: #ffffff; stroke: #000000; stroke-linejoin: miter"/>
    </g>
    <g id="line2d_13">
     <path d="M 339.345749 16.513396 
L 347.345749 16.513396 
L 355.345749 16.513396 
" style="fill: none; stroke: #009afa; stroke-linejoin: miter"/>
    </g>
    <g id="text_12">
     <!-- GXBeam -->
     <g transform="translate(361.745749 19.313396) scale(0.08 -0.08)">
      <defs>
       <path id="DejaVuSans-47" d="M 3809 666 
L 3809 1919 
L 2778 1919 
L 2778 2438 
L 4434 2438 
L 4434 434 
Q 4069 175 3628 42 
Q 3188 -91 2688 -91 
Q 1594 -91 976 548 
Q 359 1188 359 2328 
Q 359 3472 976 4111 
Q 1594 4750 2688 4750 
Q 3144 4750 3555 4637 
Q 3966 4525 4313 4306 
L 4313 3634 
Q 3963 3931 3569 4081 
Q 3175 4231 2741 4231 
Q 1884 4231 1454 3753 
Q 1025 3275 1025 2328 
Q 1025 1384 1454 906 
Q 1884 428 2741 428 
Q 3075 428 3337 486 
Q 3600 544 3809 666 
z
" transform="scale(0.015625)"/>
       <path id="DejaVuSans-58" d="M 403 4666 
L 1081 4666 
L 2241 2931 
L 3406 4666 
L 4084 4666 
L 2584 2425 
L 4184 0 
L 3506 0 
L 2194 1984 
L 872 0 
L 191 0 
L 1856 2491 
L 403 4666 
z
" transform="scale(0.015625)"/>
       <path id="DejaVuSans-42" d="M 1259 2228 
L 1259 519 
L 2272 519 
Q 2781 519 3026 730 
Q 3272 941 3272 1375 
Q 3272 1813 3026 2020 
Q 2781 2228 2272 2228 
L 1259 2228 
z
M 1259 4147 
L 1259 2741 
L 2194 2741 
Q 2656 2741 2882 2914 
Q 3109 3088 3109 3444 
Q 3109 3797 2882 3972 
Q 2656 4147 2194 4147 
L 1259 4147 
z
M 628 4666 
L 2241 4666 
Q 2963 4666 3353 4366 
Q 3744 4066 3744 3513 
Q 3744 3084 3544 2831 
Q 3344 2578 2956 2516 
Q 3422 2416 3680 2098 
Q 3938 1781 3938 1306 
Q 3938 681 3513 340 
Q 3088 0 2303 0 
L 628 0 
L 628 4666 
z
" transform="scale(0.015625)"/>
       <path id="DejaVuSans-61" d="M 2194 1759 
Q 1497 1759 1228 1600 
Q 959 1441 959 1056 
Q 959 750 1161 570 
Q 1363 391 1709 391 
Q 2188 391 2477 730 
Q 2766 1069 2766 1631 
L 2766 1759 
L 2194 1759 
z
M 3341 1997 
L 3341 0 
L 2766 0 
L 2766 531 
Q 2569 213 2275 61 
Q 1981 -91 1556 -91 
Q 1019 -91 701 211 
Q 384 513 384 1019 
Q 384 1609 779 1909 
Q 1175 2209 1959 2209 
L 2766 2209 
L 2766 2266 
Q 2766 2663 2505 2880 
Q 2244 3097 1772 3097 
Q 1472 3097 1187 3025 
Q 903 2953 641 2809 
L 641 3341 
Q 956 3463 1253 3523 
Q 1550 3584 1831 3584 
Q 2591 3584 2966 3190 
Q 3341 2797 3341 1997 
z
" transform="scale(0.015625)"/>
      </defs>
      <use xlink:href="#DejaVuSans-47"/>
      <use xlink:href="#DejaVuSans-58" transform="translate(77.490234 0)"/>
      <use xlink:href="#DejaVuSans-42" transform="translate(145.996094 0)"/>
      <use xlink:href="#DejaVuSans-65" transform="translate(214.599609 0)"/>
      <use xlink:href="#DejaVuSans-61" transform="translate(276.123047 0)"/>
      <use xlink:href="#DejaVuSans-6d" transform="translate(337.402344 0)"/>
     </g>
    </g>
    <g id="line2d_14">
     <path d="M 339.345749 28.255896 
L 347.345749 28.255896 
L 355.345749 28.255896 
" style="fill: none; stroke: #e36f47; stroke-linejoin: miter"/>
    </g>
    <g id="text_13">
     <!-- ODEProblem -->
     <g transform="translate(361.745749 31.055896) scale(0.08 -0.08)">
      <defs>
       <path id="DejaVuSans-4f" d="M 2522 4238 
Q 1834 4238 1429 3725 
Q 1025 3213 1025 2328 
Q 1025 1447 1429 934 
Q 1834 422 2522 422 
Q 3209 422 3611 934 
Q 4013 1447 4013 2328 
Q 4013 3213 3611 3725 
Q 3209 4238 2522 4238 
z
M 2522 4750 
Q 3503 4750 4090 4092 
Q 4678 3434 4678 2328 
Q 4678 1225 4090 567 
Q 3503 -91 2522 -91 
Q 1538 -91 948 565 
Q 359 1222 359 2328 
Q 359 3434 948 4092 
Q 1538 4750 2522 4750 
z
" transform="scale(0.015625)"/>
       <path id="DejaVuSans-44" d="M 1259 4147 
L 1259 519 
L 2022 519 
Q 2988 519 3436 956 
Q 3884 1394 3884 2338 
Q 3884 3275 3436 3711 
Q 2988 4147 2022 4147 
L 1259 4147 
z
M 628 4666 
L 1925 4666 
Q 3281 4666 3915 4102 
Q 4550 3538 4550 2338 
Q 4550 1131 3912 565 
Q 3275 0 1925 0 
L 628 0 
L 628 4666 
z
" transform="scale(0.015625)"/>
       <path id="DejaVuSans-45" d="M 628 4666 
L 3578 4666 
L 3578 4134 
L 1259 4134 
L 1259 2753 
L 3481 2753 
L 3481 2222 
L 1259 2222 
L 1259 531 
L 3634 531 
L 3634 0 
L 628 0 
L 628 4666 
z
" transform="scale(0.015625)"/>
       <path id="DejaVuSans-50" d="M 1259 4147 
L 1259 2394 
L 2053 2394 
Q 2494 2394 2734 2622 
Q 2975 2850 2975 3272 
Q 2975 3691 2734 3919 
Q 2494 4147 2053 4147 
L 1259 4147 
z
M 628 4666 
L 2053 4666 
Q 2838 4666 3239 4311 
Q 3641 3956 3641 3272 
Q 3641 2581 3239 2228 
Q 2838 1875 2053 1875 
L 1259 1875 
L 1259 0 
L 628 0 
L 628 4666 
z
" transform="scale(0.015625)"/>
       <path id="DejaVuSans-72" d="M 2631 2963 
Q 2534 3019 2420 3045 
Q 2306 3072 2169 3072 
Q 1681 3072 1420 2755 
Q 1159 2438 1159 1844 
L 1159 0 
L 581 0 
L 581 3500 
L 1159 3500 
L 1159 2956 
Q 1341 3275 1631 3429 
Q 1922 3584 2338 3584 
Q 2397 3584 2469 3576 
Q 2541 3569 2628 3553 
L 2631 2963 
z
" transform="scale(0.015625)"/>
       <path id="DejaVuSans-6f" d="M 1959 3097 
Q 1497 3097 1228 2736 
Q 959 2375 959 1747 
Q 959 1119 1226 758 
Q 1494 397 1959 397 
Q 2419 397 2687 759 
Q 2956 1122 2956 1747 
Q 2956 2369 2687 2733 
Q 2419 3097 1959 3097 
z
M 1959 3584 
Q 2709 3584 3137 3096 
Q 3566 2609 3566 1747 
Q 3566 888 3137 398 
Q 2709 -91 1959 -91 
Q 1206 -91 779 398 
Q 353 888 353 1747 
Q 353 2609 779 3096 
Q 1206 3584 1959 3584 
z
" transform="scale(0.015625)"/>
       <path id="DejaVuSans-62" d="M 3116 1747 
Q 3116 2381 2855 2742 
Q 2594 3103 2138 3103 
Q 1681 3103 1420 2742 
Q 1159 2381 1159 1747 
Q 1159 1113 1420 752 
Q 1681 391 2138 391 
Q 2594 391 2855 752 
Q 3116 1113 3116 1747 
z
M 1159 2969 
Q 1341 3281 1617 3432 
Q 1894 3584 2278 3584 
Q 2916 3584 3314 3078 
Q 3713 2572 3713 1747 
Q 3713 922 3314 415 
Q 2916 -91 2278 -91 
Q 1894 -91 1617 61 
Q 1341 213 1159 525 
L 1159 0 
L 581 0 
L 581 4863 
L 1159 4863 
L 1159 2969 
z
" transform="scale(0.015625)"/>
       <path id="DejaVuSans-6c" d="M 603 4863 
L 1178 4863 
L 1178 0 
L 603 0 
L 603 4863 
z
" transform="scale(0.015625)"/>
      </defs>
      <use xlink:href="#DejaVuSans-4f"/>
      <use xlink:href="#DejaVuSans-44" transform="translate(78.710938 0)"/>
      <use xlink:href="#DejaVuSans-45" transform="translate(155.712891 0)"/>
      <use xlink:href="#DejaVuSans-50" transform="translate(218.896484 0)"/>
      <use xlink:href="#DejaVuSans-72" transform="translate(277.449219 0)"/>
      <use xlink:href="#DejaVuSans-6f" transform="translate(316.3125 0)"/>
      <use xlink:href="#DejaVuSans-62" transform="translate(377.494141 0)"/>
      <use xlink:href="#DejaVuSans-6c" transform="translate(440.970703 0)"/>
      <use xlink:href="#DejaVuSans-65" transform="translate(468.753906 0)"/>
      <use xlink:href="#DejaVuSans-6d" transform="translate(530.277344 0)"/>
     </g>
    </g>
    <g id="line2d_15">
     <path d="M 339.345749 39.998396 
L 347.345749 39.998396 
L 355.345749 39.998396 
" style="fill: none; stroke: #3ea44e; stroke-linejoin: miter"/>
    </g>
    <g id="text_14">
     <!-- DAEProblem -->
     <g transform="translate(361.745749 42.798396) scale(0.08 -0.08)">
      <defs>
       <path id="DejaVuSans-41" d="M 2188 4044 
L 1331 1722 
L 3047 1722 
L 2188 4044 
z
M 1831 4666 
L 2547 4666 
L 4325 0 
L 3669 0 
L 3244 1197 
L 1141 1197 
L 716 0 
L 50 0 
L 1831 4666 
z
" transform="scale(0.015625)"/>
      </defs>
      <use xlink:href="#DejaVuSans-44"/>
      <use xlink:href="#DejaVuSans-41" transform="translate(75.251953 0)"/>
      <use xlink:href="#DejaVuSans-45" transform="translate(143.660156 0)"/>
      <use xlink:href="#DejaVuSans-50" transform="translate(206.84375 0)"/>
      <use xlink:href="#DejaVuSans-72" transform="translate(265.396484 0)"/>
      <use xlink:href="#DejaVuSans-6f" transform="translate(304.259766 0)"/>
      <use xlink:href="#DejaVuSans-62" transform="translate(365.441406 0)"/>
      <use xlink:href="#DejaVuSans-6c" transform="translate(428.917969 0)"/>
      <use xlink:href="#DejaVuSans-65" transform="translate(456.701172 0)"/>
      <use xlink:href="#DejaVuSans-6d" transform="translate(518.224609 0)"/>
     </g>
    </g>
   </g>
  </g>
 </g>
 <defs>
  <clipPath id="p1f37c9f214">
   <rect x="44.790359" y="2.834646" width="377.57164" height="255.390709"/>
  </clipPath>
 </defs>
</svg>
