<?xml version="1.0" encoding="utf-8" standalone="no"?>
<!DOCTYPE svg PUBLIC "-//W3C//DTD SVG 1.1//EN"
  "http://www.w3.org/Graphics/SVG/1.1/DTD/svg11.dtd">
<svg height="288pt" version="1.1" viewBox="0 0 432 288" width="432pt" xmlns="http://www.w3.org/2000/svg" xmlns:xlink="http://www.w3.org/1999/xlink">
 <metadata>
  <rdf:RDF xmlns:cc="http://creativecommons.org/ns#" xmlns:dc="http://purl.org/dc/elements/1.1/" xmlns:rdf="http://www.w3.org/1999/02/22-rdf-syntax-ns#">
   <cc:Work>
    <dc:type rdf:resource="http://purl.org/dc/dcmitype/StillImage"/>
    <dc:date>2021-09-22T00:17:27.066732</dc:date>
    <dc:format>image/svg+xml</dc:format>
    <dc:creator>
     <cc:Agent>
      <dc:title>Matplotlib v3.4.2, https://matplotlib.org/</dc:title>
     </cc:Agent>
    </dc:creator>
   </cc:Work>
  </rdf:RDF>
 </metadata>
 <defs>
  <style type="text/css">*{stroke-linecap:butt;stroke-linejoin:round;}</style>
 </defs>
 <g id="figure_1">
  <g id="patch_1">
   <path d="M 0 288 
L 432 288 
L 432 0 
L 0 0 
z
" style="fill:#ffffff;"/>
  </g>
  <g id="axes_1">
   <g id="patch_2">
    <path d="M 42.933593 258.225354 
L 422.361999 258.225354 
L 422.361999 2.834646 
L 42.933593 2.834646 
z
" style="fill:#ffffff;"/>
   </g>
   <g id="line2d_1">
    <path clip-path="url(#pa82fb3280e)" d="M 42.933593 106.871218 
L 43.69245 106.960357 
L 44.641021 107.261919 
L 45.96902 108.140571 
L 47.297019 109.380183 
L 48.435305 110.868879 
L 50.901589 114.960899 
L 52.419303 117.879488 
L 54.506159 122.784299 
L 56.78273 128.636307 
L 58.679872 133.370687 
L 61.905013 140.425966 
L 67.027297 151.035282 
L 68.355296 152.842783 
L 69.493581 154.046962 
L 70.252438 154.583453 
L 71.201009 154.955071 
L 72.529008 155.077616 
L 73.667294 154.884561 
L 74.236436 154.569294 
L 74.995293 153.916773 
L 75.943864 152.728606 
L 77.271863 150.743056 
L 78.410149 148.762252 
L 81.445576 143.342527 
L 83.342718 140.218566 
L 87.137002 133.274023 
L 89.223858 129.107606 
L 91.121 125.333804 
L 94.535856 117.615988 
L 96.812426 112.301517 
L 98.140426 110.008032 
L 99.658139 107.937934 
L 100.796425 106.816545 
L 102.314138 105.817496 
L 104.590709 104.563758 
L 105.159851 104.476186 
L 106.108422 104.572248 
L 107.246708 104.992316 
L 108.005564 105.494545 
L 108.764421 106.227239 
L 109.902706 107.813125 
L 111.42042 110.391946 
L 112.558705 112.775152 
L 113.696991 115.851528 
L 115.02499 120.161398 
L 116.352989 125.128972 
L 118.439846 134.124751 
L 120.716416 143.355379 
L 122.423844 149.594783 
L 123.941557 154.232907 
L 125.8387 159.158833 
L 126.787271 161.140936 
L 127.735842 162.594326 
L 128.684413 163.635299 
L 129.822698 164.568471 
L 130.771269 165.059976 
L 131.71984 165.263761 
L 133.806696 165.451929 
L 134.565553 165.352596 
L 135.32441 164.998585 
L 135.893552 164.461194 
L 136.652409 163.441642 
L 137.411266 162.029128 
L 138.170123 160.239676 
L 139.118694 157.300567 
L 140.067265 153.664022 
L 141.964407 145.278417 
L 144.051263 135.217356 
L 148.035261 115.809471 
L 149.552975 109.251556 
L 150.880974 104.612695 
L 152.398688 100.219265 
L 153.726687 97.137385 
L 156.192972 92.375374 
L 157.331257 90.541367 
L 158.090114 89.641561 
L 159.038685 88.899986 
L 159.797542 88.532573 
L 160.746113 88.322628 
L 161.50497 88.4088 
L 162.643255 88.815479 
L 165.299254 90.147493 
L 166.058111 90.976972 
L 166.816967 92.175655 
L 167.575824 93.793964 
L 168.524395 96.44506 
L 169.472966 99.918392 
L 170.611251 105.111255 
L 172.887822 117.073731 
L 175.354107 131.201491 
L 177.820391 146.535208 
L 180.666104 164.538001 
L 182.563246 174.707298 
L 184.270674 182.747898 
L 186.736959 193.206977 
L 187.875244 197.365227 
L 188.823815 200.061306 
L 189.582672 201.613824 
L 190.151814 202.418912 
L 190.720957 202.905007 
L 191.2901 203.057017 
L 191.859242 202.891043 
L 192.428385 202.463857 
L 193.376956 201.341895 
L 195.843241 197.919544 
L 196.602097 196.500275 
L 197.550668 194.155309 
L 198.499239 191.059173 
L 199.44781 187.169924 
L 200.396381 182.240415 
L 201.534667 174.920528 
L 204.570094 154.433589 
L 206.846664 141.504092 
L 208.364378 132.648895 
L 209.502663 124.497077 
L 213.296947 95.728397 
L 214.814661 86.172466 
L 219.936944 57.435551 
L 220.885515 54.048706 
L 221.644372 52.030803 
L 222.213515 50.925284 
L 222.782657 50.307945 
L 223.162086 50.209847 
L 223.541514 50.357487 
L 223.920943 50.719221 
L 224.490085 51.601046 
L 226.007799 54.228129 
L 226.766656 55.070301 
L 227.335798 55.432295 
L 227.904941 55.587014 
L 228.284369 55.537194 
L 228.663798 55.338488 
L 229.23294 54.690444 
L 229.802083 53.616444 
L 231.699225 49.390504 
L 232.078653 49.096158 
L 232.458082 49.124421 
L 232.83751 49.47528 
L 233.406653 50.537606 
L 233.975795 52.155589 
L 234.734652 55.177521 
L 235.493509 59.464857 
L 236.252366 65.160771 
L 241.184935 107.893337 
L 243.65122 132.728763 
L 246.117504 159.060992 
L 247.066075 166.217387 
L 248.773503 176.825566 
L 250.291217 185.33159 
L 251.80893 193.772533 
L 254.275215 209.144018 
L 254.844358 211.192324 
L 255.603215 212.952954 
L 256.931214 215.568817 
L 260.156355 223.148051 
L 260.915212 225.828758 
L 262.243212 230.824757 
L 262.62264 231.557183 
L 263.002068 231.744364 
L 263.191783 231.609459 
L 263.571211 230.866226 
L 264.140354 228.719862 
L 265.088925 223.517906 
L 271.539208 185.852455 
L 272.487779 177.690792 
L 274.574635 158.83338 
L 276.282063 145.700816 
L 277.04092 141.180678 
L 277.799776 137.916175 
L 279.507204 131.782815 
L 280.266061 127.885547 
L 284.060345 106.600842 
L 284.629488 104.541001 
L 285.008916 103.673471 
L 285.388344 103.24483 
L 285.578059 103.21016 
L 285.957487 103.515021 
L 286.336915 104.246486 
L 286.906058 105.900115 
L 288.8032 112.04293 
L 289.372343 113.099913 
L 289.751771 113.417238 
L 290.1312 113.388015 
L 290.510628 112.933016 
L 290.890056 111.987467 
L 291.459199 109.67766 
L 292.028342 106.179766 
L 292.787198 99.934926 
L 294.68434 83.177641 
L 295.253483 80.021113 
L 295.632911 78.74922 
L 296.01234 78.212445 
L 296.202054 78.248515 
L 296.391768 78.493443 
L 296.771197 79.612272 
L 297.150625 81.594128 
L 297.719768 86.168659 
L 298.478624 94.588906 
L 299.996338 112.246127 
L 300.755195 118.334739 
L 301.514052 122.526252 
L 302.272909 125.503529 
L 303.031765 127.695708 
L 304.170051 130.596757 
L 304.739193 132.96413 
L 305.308336 136.70896 
L 305.877478 141.9775 
L 306.636335 151.200513 
L 308.154049 170.502672 
L 308.912906 176.967438 
L 309.482048 180.075422 
L 310.051191 182.125466 
L 310.620334 183.444812 
L 310.999762 183.831522 
L 311.37919 183.773862 
L 311.758619 183.346518 
L 312.327761 182.496085 
L 312.517476 182.398748 
L 312.70719 182.511491 
L 312.896904 182.896783 
L 313.276332 184.65987 
L 313.655761 187.90572 
L 314.224903 195.348004 
L 316.31176 226.663026 
L 317.260331 236.225522 
L 318.398616 245.652829 
L 318.967758 249.123135 
L 319.347187 250.300598 
L 319.536901 250.41314 
L 319.726615 250.168385 
L 320.106044 248.565392 
L 320.485472 245.585259 
L 321.434043 234.94449 
L 322.1929 227.718929 
L 322.572328 225.555179 
L 322.951757 224.388568 
L 323.331185 224.070205 
L 323.710614 224.29363 
L 324.279756 225.067677 
L 325.038613 226.135775 
L 325.607756 226.591066 
L 326.176898 226.900796 
L 326.556327 227.586965 
L 326.935755 229.008029 
L 327.504898 232.486099 
L 328.263754 237.362011 
L 328.643183 238.672442 
L 328.832897 238.877985 
L 329.022611 238.737176 
L 329.212325 238.253768 
L 329.591754 236.283146 
L 330.160896 231.190182 
L 331.299182 217.334846 
L 332.627181 201.211743 
L 335.662608 168.276219 
L 336.421465 163.949963 
L 337.55975 158.058991 
L 340.405463 140.825276 
L 340.974606 135.591497 
L 342.871748 116.250101 
L 343.440891 113.327194 
L 344.76889 107.545231 
L 346.855746 95.672461 
L 347.994032 92.283551 
L 348.37346 90.40963 
L 348.752888 87.728745 
L 349.322031 81.929573 
L 350.270602 71.934349 
L 350.65003 69.648195 
L 351.029459 68.524657 
L 351.219173 68.356061 
L 351.408887 68.424163 
L 351.788316 69.095008 
L 352.357458 70.227046 
L 352.547172 70.319473 
L 352.736887 70.188632 
L 353.116315 69.237002 
L 354.064886 65.984284 
L 354.2546 65.756534 
L 354.444314 65.804159 
L 354.634029 66.163893 
L 355.013457 67.911109 
L 355.5826 72.683615 
L 356.531171 81.233959 
L 356.910599 82.957344 
L 357.100313 83.194379 
L 357.290028 82.973781 
L 357.669456 81.289083 
L 358.428313 76.262634 
L 358.618027 75.603533 
L 358.807741 75.384311 
L 358.997455 75.597763 
L 359.376884 77.13683 
L 359.946026 81.275552 
L 360.894597 88.93518 
L 361.084312 89.622554 
L 361.274026 89.739397 
L 361.46374 89.284702 
L 361.843168 87.011514 
L 362.602025 81.318966 
L 362.981454 79.998921 
L 363.171168 79.872592 
L 363.360882 80.080818 
L 363.550596 80.628622 
L 363.930025 82.779074 
L 364.499167 88.259412 
L 365.06831 93.423428 
L 365.258024 94.29672 
L 365.447738 94.629448 
L 365.637452 94.44024 
L 366.016881 92.808102 
L 366.965452 86.602506 
L 367.155166 86.03474 
L 367.34488 85.960272 
L 367.534594 86.452899 
L 367.914023 89.14665 
L 368.483165 96.396559 
L 369.242022 106.124672 
L 369.621451 108.59883 
L 369.811165 109.166081 
L 370.000879 109.342753 
L 370.190593 109.194968 
L 370.759736 108.267753 
L 370.94945 108.420006 
L 371.139164 109.053671 
L 371.518593 111.972403 
L 372.087735 120.15422 
L 373.226021 138.94129 
L 373.605449 142.249695 
L 373.984877 143.460656 
L 374.174592 143.466939 
L 374.55402 143.213826 
L 374.743734 143.372097 
L 374.933448 143.903342 
L 375.312877 146.297575 
L 375.692305 150.766083 
L 376.261448 161.356462 
L 377.020305 175.818731 
L 377.589447 182.502131 
L 377.968876 184.557596 
L 378.348304 185.164307 
L 378.727732 185.5234 
L 378.917447 186.0253 
L 379.296875 188.078611 
L 379.866018 193.512544 
L 381.194017 208.979561 
L 381.573446 210.433481 
L 381.76316 210.416707 
L 381.952874 209.97264 
L 382.332302 208.113348 
L 383.091159 202.384168 
L 383.660302 198.835143 
L 383.850016 198.541951 
L 384.03973 198.877472 
L 384.419159 201.139929 
L 384.988301 205.299783 
L 385.36773 206.449667 
L 385.557444 206.517346 
L 386.316301 206.083065 
L 386.506015 205.883058 
L 386.695729 205.451045 
L 387.075157 203.584472 
L 387.6443 199.821242 
L 387.834014 199.222892 
L 388.023728 199.271237 
L 388.213443 199.996777 
L 388.782585 204.471962 
L 389.351728 208.130849 
L 390.490013 212.640916 
L 390.679727 212.701874 
L 390.869441 212.228515 
L 391.24887 209.726702 
L 391.818013 205.200211 
L 392.007727 204.480431 
L 392.197441 204.27293 
L 392.387155 204.453815 
L 392.956298 205.376538 
L 393.146012 205.321327 
L 393.52544 204.516564 
L 394.094583 202.531749 
L 394.474011 200.168377 
L 394.85344 195.935257 
L 396.750582 169.672904 
L 397.319724 165.664572 
L 397.888867 162.359518 
L 398.647724 155.948637 
L 399.406581 147.767184 
L 400.165437 138.7325 
L 400.544866 137.169094 
L 400.73458 137.082078 
L 401.303723 137.113479 
L 401.683151 137.058762 
L 401.872865 137.081374 
L 402.062579 136.953963 
L 402.252294 136.406611 
L 402.442008 135.15928 
L 402.821436 130.337719 
L 404.528864 103.043221 
L 404.908293 100.583097 
L 405.477435 97.953925 
L 406.236292 93.733476 
L 406.61572 89.347246 
L 407.564291 74.828212 
L 408.323148 66.734143 
L 408.512862 65.990694 
L 408.702577 65.927747 
L 409.082005 66.867881 
L 409.840862 68.810527 
L 410.030576 69.071171 
L 410.22029 68.932025 
L 410.410004 68.153116 
L 410.789433 64.373334 
L 412.307146 43.471396 
L 412.876289 38.840471 
L 413.255717 37.327558 
L 413.82486 36.026207 
L 414.204288 33.846388 
L 414.963145 25.618304 
L 416.291145 11.246273 
L 416.480859 10.75628 
L 416.670573 11.123178 
L 417.050002 13.727598 
L 417.998573 22.882015 
L 418.567715 28.556018 
L 418.947144 30.254807 
L 419.136858 30.36507 
L 419.326572 30.114986 
L 419.895715 28.811026 
L 420.085429 28.700919 
L 420.275143 28.906078 
L 420.654571 30.226503 
L 421.034 32.529119 
L 421.603142 37.753564 
L 422.361999 47.411309 
L 422.361999 47.411309 
" style="fill:none;stroke:#009afa;"/>
   </g>
   <g id="matplotlib.axis_1">
    <g id="xtick_1">
     <g id="line2d_2">
      <defs>
       <path d="M 0 0 
L 0 -2.5 
" id="me92c84bebb" style="stroke:#000000;stroke-width:0.5;"/>
      </defs>
      <g>
       <use style="stroke:#000000;stroke-width:0.5;" x="42.933593" xlink:href="#me92c84bebb" y="258.225354"/>
      </g>
     </g>
     <g id="text_1">
      <!-- $0.0$ -->
      <g transform="translate(36.533593 267.804104)scale(0.08 -0.08)">
       <defs>
        <path d="M 2034 4250 
Q 1547 4250 1301 3770 
Q 1056 3291 1056 2328 
Q 1056 1369 1301 889 
Q 1547 409 2034 409 
Q 2525 409 2770 889 
Q 3016 1369 3016 2328 
Q 3016 3291 2770 3770 
Q 2525 4250 2034 4250 
z
M 2034 4750 
Q 2819 4750 3233 4129 
Q 3647 3509 3647 2328 
Q 3647 1150 3233 529 
Q 2819 -91 2034 -91 
Q 1250 -91 836 529 
Q 422 1150 422 2328 
Q 422 3509 836 4129 
Q 1250 4750 2034 4750 
z
" id="DejaVuSans-30" transform="scale(0.015625)"/>
        <path d="M 684 794 
L 1344 794 
L 1344 0 
L 684 0 
L 684 794 
z
" id="DejaVuSans-2e" transform="scale(0.015625)"/>
       </defs>
       <use transform="translate(0 0.78125)" xlink:href="#DejaVuSans-30"/>
       <use transform="translate(63.623047 0.78125)" xlink:href="#DejaVuSans-2e"/>
       <use transform="translate(95.410156 0.78125)" xlink:href="#DejaVuSans-30"/>
      </g>
     </g>
    </g>
    <g id="xtick_2">
     <g id="line2d_3">
      <g>
       <use style="stroke:#000000;stroke-width:0.5;" x="137.790694" xlink:href="#me92c84bebb" y="258.225354"/>
      </g>
     </g>
     <g id="text_2">
      <!-- $0.5$ -->
      <g transform="translate(131.390694 267.804104)scale(0.08 -0.08)">
       <defs>
        <path d="M 691 4666 
L 3169 4666 
L 3169 4134 
L 1269 4134 
L 1269 2991 
Q 1406 3038 1543 3061 
Q 1681 3084 1819 3084 
Q 2600 3084 3056 2656 
Q 3513 2228 3513 1497 
Q 3513 744 3044 326 
Q 2575 -91 1722 -91 
Q 1428 -91 1123 -41 
Q 819 9 494 109 
L 494 744 
Q 775 591 1075 516 
Q 1375 441 1709 441 
Q 2250 441 2565 725 
Q 2881 1009 2881 1497 
Q 2881 1984 2565 2268 
Q 2250 2553 1709 2553 
Q 1456 2553 1204 2497 
Q 953 2441 691 2322 
L 691 4666 
z
" id="DejaVuSans-35" transform="scale(0.015625)"/>
       </defs>
       <use transform="translate(0 0.78125)" xlink:href="#DejaVuSans-30"/>
       <use transform="translate(63.623047 0.78125)" xlink:href="#DejaVuSans-2e"/>
       <use transform="translate(95.410156 0.78125)" xlink:href="#DejaVuSans-35"/>
      </g>
     </g>
    </g>
    <g id="xtick_3">
     <g id="line2d_4">
      <g>
       <use style="stroke:#000000;stroke-width:0.5;" x="232.647796" xlink:href="#me92c84bebb" y="258.225354"/>
      </g>
     </g>
     <g id="text_3">
      <!-- $1.0$ -->
      <g transform="translate(226.247796 267.804104)scale(0.08 -0.08)">
       <defs>
        <path d="M 794 531 
L 1825 531 
L 1825 4091 
L 703 3866 
L 703 4441 
L 1819 4666 
L 2450 4666 
L 2450 531 
L 3481 531 
L 3481 0 
L 794 0 
L 794 531 
z
" id="DejaVuSans-31" transform="scale(0.015625)"/>
       </defs>
       <use transform="translate(0 0.78125)" xlink:href="#DejaVuSans-31"/>
       <use transform="translate(63.623047 0.78125)" xlink:href="#DejaVuSans-2e"/>
       <use transform="translate(95.410156 0.78125)" xlink:href="#DejaVuSans-30"/>
      </g>
     </g>
    </g>
    <g id="xtick_4">
     <g id="line2d_5">
      <g>
       <use style="stroke:#000000;stroke-width:0.5;" x="327.504898" xlink:href="#me92c84bebb" y="258.225354"/>
      </g>
     </g>
     <g id="text_4">
      <!-- $1.5$ -->
      <g transform="translate(321.104898 267.804104)scale(0.08 -0.08)">
       <use transform="translate(0 0.09375)" xlink:href="#DejaVuSans-31"/>
       <use transform="translate(63.623047 0.09375)" xlink:href="#DejaVuSans-2e"/>
       <use transform="translate(95.410156 0.09375)" xlink:href="#DejaVuSans-35"/>
      </g>
     </g>
    </g>
    <g id="xtick_5">
     <g id="line2d_6">
      <g>
       <use style="stroke:#000000;stroke-width:0.5;" x="422.361999" xlink:href="#me92c84bebb" y="258.225354"/>
      </g>
     </g>
     <g id="text_5">
      <!-- $2.0$ -->
      <g transform="translate(415.961999 267.804104)scale(0.08 -0.08)">
       <defs>
        <path d="M 1228 531 
L 3431 531 
L 3431 0 
L 469 0 
L 469 531 
Q 828 903 1448 1529 
Q 2069 2156 2228 2338 
Q 2531 2678 2651 2914 
Q 2772 3150 2772 3378 
Q 2772 3750 2511 3984 
Q 2250 4219 1831 4219 
Q 1534 4219 1204 4116 
Q 875 4013 500 3803 
L 500 4441 
Q 881 4594 1212 4672 
Q 1544 4750 1819 4750 
Q 2544 4750 2975 4387 
Q 3406 4025 3406 3419 
Q 3406 3131 3298 2873 
Q 3191 2616 2906 2266 
Q 2828 2175 2409 1742 
Q 1991 1309 1228 531 
z
" id="DejaVuSans-32" transform="scale(0.015625)"/>
       </defs>
       <use transform="translate(0 0.78125)" xlink:href="#DejaVuSans-32"/>
       <use transform="translate(63.623047 0.78125)" xlink:href="#DejaVuSans-2e"/>
       <use transform="translate(95.410156 0.78125)" xlink:href="#DejaVuSans-30"/>
      </g>
     </g>
    </g>
    <g id="text_6">
     <!-- Time (s) -->
     <g transform="translate(210.285999 281.826136)scale(0.11 -0.11)">
      <defs>
       <path d="M -19 4666 
L 3928 4666 
L 3928 4134 
L 2272 4134 
L 2272 0 
L 1638 0 
L 1638 4134 
L -19 4134 
L -19 4666 
z
" id="DejaVuSans-54" transform="scale(0.015625)"/>
       <path d="M 603 3500 
L 1178 3500 
L 1178 0 
L 603 0 
L 603 3500 
z
M 603 4863 
L 1178 4863 
L 1178 4134 
L 603 4134 
L 603 4863 
z
" id="DejaVuSans-69" transform="scale(0.015625)"/>
       <path d="M 3328 2828 
Q 3544 3216 3844 3400 
Q 4144 3584 4550 3584 
Q 5097 3584 5394 3201 
Q 5691 2819 5691 2113 
L 5691 0 
L 5113 0 
L 5113 2094 
Q 5113 2597 4934 2840 
Q 4756 3084 4391 3084 
Q 3944 3084 3684 2787 
Q 3425 2491 3425 1978 
L 3425 0 
L 2847 0 
L 2847 2094 
Q 2847 2600 2669 2842 
Q 2491 3084 2119 3084 
Q 1678 3084 1418 2786 
Q 1159 2488 1159 1978 
L 1159 0 
L 581 0 
L 581 3500 
L 1159 3500 
L 1159 2956 
Q 1356 3278 1631 3431 
Q 1906 3584 2284 3584 
Q 2666 3584 2933 3390 
Q 3200 3197 3328 2828 
z
" id="DejaVuSans-6d" transform="scale(0.015625)"/>
       <path d="M 3597 1894 
L 3597 1613 
L 953 1613 
Q 991 1019 1311 708 
Q 1631 397 2203 397 
Q 2534 397 2845 478 
Q 3156 559 3463 722 
L 3463 178 
Q 3153 47 2828 -22 
Q 2503 -91 2169 -91 
Q 1331 -91 842 396 
Q 353 884 353 1716 
Q 353 2575 817 3079 
Q 1281 3584 2069 3584 
Q 2775 3584 3186 3129 
Q 3597 2675 3597 1894 
z
M 3022 2063 
Q 3016 2534 2758 2815 
Q 2500 3097 2075 3097 
Q 1594 3097 1305 2825 
Q 1016 2553 972 2059 
L 3022 2063 
z
" id="DejaVuSans-65" transform="scale(0.015625)"/>
       <path id="DejaVuSans-20" transform="scale(0.015625)"/>
       <path d="M 1984 4856 
Q 1566 4138 1362 3434 
Q 1159 2731 1159 2009 
Q 1159 1288 1364 580 
Q 1569 -128 1984 -844 
L 1484 -844 
Q 1016 -109 783 600 
Q 550 1309 550 2009 
Q 550 2706 781 3412 
Q 1013 4119 1484 4856 
L 1984 4856 
z
" id="DejaVuSans-28" transform="scale(0.015625)"/>
       <path d="M 2834 3397 
L 2834 2853 
Q 2591 2978 2328 3040 
Q 2066 3103 1784 3103 
Q 1356 3103 1142 2972 
Q 928 2841 928 2578 
Q 928 2378 1081 2264 
Q 1234 2150 1697 2047 
L 1894 2003 
Q 2506 1872 2764 1633 
Q 3022 1394 3022 966 
Q 3022 478 2636 193 
Q 2250 -91 1575 -91 
Q 1294 -91 989 -36 
Q 684 19 347 128 
L 347 722 
Q 666 556 975 473 
Q 1284 391 1588 391 
Q 1994 391 2212 530 
Q 2431 669 2431 922 
Q 2431 1156 2273 1281 
Q 2116 1406 1581 1522 
L 1381 1569 
Q 847 1681 609 1914 
Q 372 2147 372 2553 
Q 372 3047 722 3315 
Q 1072 3584 1716 3584 
Q 2034 3584 2315 3537 
Q 2597 3491 2834 3397 
z
" id="DejaVuSans-73" transform="scale(0.015625)"/>
       <path d="M 513 4856 
L 1013 4856 
Q 1481 4119 1714 3412 
Q 1947 2706 1947 2009 
Q 1947 1309 1714 600 
Q 1481 -109 1013 -844 
L 513 -844 
Q 928 -128 1133 580 
Q 1338 1288 1338 2009 
Q 1338 2731 1133 3434 
Q 928 4138 513 4856 
z
" id="DejaVuSans-29" transform="scale(0.015625)"/>
      </defs>
      <use xlink:href="#DejaVuSans-54"/>
      <use x="57.958984" xlink:href="#DejaVuSans-69"/>
      <use x="85.742188" xlink:href="#DejaVuSans-6d"/>
      <use x="183.154297" xlink:href="#DejaVuSans-65"/>
      <use x="244.677734" xlink:href="#DejaVuSans-20"/>
      <use x="276.464844" xlink:href="#DejaVuSans-28"/>
      <use x="315.478516" xlink:href="#DejaVuSans-73"/>
      <use x="367.578125" xlink:href="#DejaVuSans-29"/>
     </g>
    </g>
   </g>
   <g id="matplotlib.axis_2">
    <g id="ytick_1">
     <g id="line2d_7">
      <defs>
       <path d="M 0 0 
L 2.5 0 
" id="m8a46c04258" style="stroke:#000000;stroke-width:0.5;"/>
      </defs>
      <g>
       <use style="stroke:#000000;stroke-width:0.5;" x="42.933593" xlink:href="#m8a46c04258" y="223.418912"/>
      </g>
     </g>
     <g id="text_7">
      <!-- $-20$ -->
      <g transform="translate(22.473593 226.458287)scale(0.08 -0.08)">
       <defs>
        <path d="M 678 2272 
L 4684 2272 
L 4684 1741 
L 678 1741 
L 678 2272 
z
" id="DejaVuSans-2212" transform="scale(0.015625)"/>
       </defs>
       <use transform="translate(0 0.78125)" xlink:href="#DejaVuSans-2212"/>
       <use transform="translate(83.789062 0.78125)" xlink:href="#DejaVuSans-32"/>
       <use transform="translate(147.412109 0.78125)" xlink:href="#DejaVuSans-30"/>
      </g>
     </g>
    </g>
    <g id="ytick_2">
     <g id="line2d_8">
      <g>
       <use style="stroke:#000000;stroke-width:0.5;" x="42.933593" xlink:href="#m8a46c04258" y="165.145065"/>
      </g>
     </g>
     <g id="text_8">
      <!-- $-10$ -->
      <g transform="translate(22.473593 168.18444)scale(0.08 -0.08)">
       <use transform="translate(0 0.78125)" xlink:href="#DejaVuSans-2212"/>
       <use transform="translate(83.789062 0.78125)" xlink:href="#DejaVuSans-31"/>
       <use transform="translate(147.412109 0.78125)" xlink:href="#DejaVuSans-30"/>
      </g>
     </g>
    </g>
    <g id="ytick_3">
     <g id="line2d_9">
      <g>
       <use style="stroke:#000000;stroke-width:0.5;" x="42.933593" xlink:href="#m8a46c04258" y="106.871218"/>
      </g>
     </g>
     <g id="text_9">
      <!-- $0$ -->
      <g transform="translate(34.313593 109.910593)scale(0.08 -0.08)">
       <use transform="translate(0 0.78125)" xlink:href="#DejaVuSans-30"/>
      </g>
     </g>
    </g>
    <g id="ytick_4">
     <g id="line2d_10">
      <g>
       <use style="stroke:#000000;stroke-width:0.5;" x="42.933593" xlink:href="#m8a46c04258" y="48.59737"/>
      </g>
     </g>
     <g id="text_10">
      <!-- $10$ -->
      <g transform="translate(29.193593 51.636745)scale(0.08 -0.08)">
       <use transform="translate(0 0.78125)" xlink:href="#DejaVuSans-31"/>
       <use transform="translate(63.623047 0.78125)" xlink:href="#DejaVuSans-30"/>
      </g>
     </g>
    </g>
    <g id="text_11">
     <!-- Rodriguez Parameter $\theta_y$ (degree) -->
     <g transform="translate(15.063593 221.885)rotate(-90)scale(0.11 -0.11)">
      <defs>
       <path d="M 2841 2188 
Q 3044 2119 3236 1894 
Q 3428 1669 3622 1275 
L 4263 0 
L 3584 0 
L 2988 1197 
Q 2756 1666 2539 1819 
Q 2322 1972 1947 1972 
L 1259 1972 
L 1259 0 
L 628 0 
L 628 4666 
L 2053 4666 
Q 2853 4666 3247 4331 
Q 3641 3997 3641 3322 
Q 3641 2881 3436 2590 
Q 3231 2300 2841 2188 
z
M 1259 4147 
L 1259 2491 
L 2053 2491 
Q 2509 2491 2742 2702 
Q 2975 2913 2975 3322 
Q 2975 3731 2742 3939 
Q 2509 4147 2053 4147 
L 1259 4147 
z
" id="DejaVuSans-52" transform="scale(0.015625)"/>
       <path d="M 1959 3097 
Q 1497 3097 1228 2736 
Q 959 2375 959 1747 
Q 959 1119 1226 758 
Q 1494 397 1959 397 
Q 2419 397 2687 759 
Q 2956 1122 2956 1747 
Q 2956 2369 2687 2733 
Q 2419 3097 1959 3097 
z
M 1959 3584 
Q 2709 3584 3137 3096 
Q 3566 2609 3566 1747 
Q 3566 888 3137 398 
Q 2709 -91 1959 -91 
Q 1206 -91 779 398 
Q 353 888 353 1747 
Q 353 2609 779 3096 
Q 1206 3584 1959 3584 
z
" id="DejaVuSans-6f" transform="scale(0.015625)"/>
       <path d="M 2906 2969 
L 2906 4863 
L 3481 4863 
L 3481 0 
L 2906 0 
L 2906 525 
Q 2725 213 2448 61 
Q 2172 -91 1784 -91 
Q 1150 -91 751 415 
Q 353 922 353 1747 
Q 353 2572 751 3078 
Q 1150 3584 1784 3584 
Q 2172 3584 2448 3432 
Q 2725 3281 2906 2969 
z
M 947 1747 
Q 947 1113 1208 752 
Q 1469 391 1925 391 
Q 2381 391 2643 752 
Q 2906 1113 2906 1747 
Q 2906 2381 2643 2742 
Q 2381 3103 1925 3103 
Q 1469 3103 1208 2742 
Q 947 2381 947 1747 
z
" id="DejaVuSans-64" transform="scale(0.015625)"/>
       <path d="M 2631 2963 
Q 2534 3019 2420 3045 
Q 2306 3072 2169 3072 
Q 1681 3072 1420 2755 
Q 1159 2438 1159 1844 
L 1159 0 
L 581 0 
L 581 3500 
L 1159 3500 
L 1159 2956 
Q 1341 3275 1631 3429 
Q 1922 3584 2338 3584 
Q 2397 3584 2469 3576 
Q 2541 3569 2628 3553 
L 2631 2963 
z
" id="DejaVuSans-72" transform="scale(0.015625)"/>
       <path d="M 2906 1791 
Q 2906 2416 2648 2759 
Q 2391 3103 1925 3103 
Q 1463 3103 1205 2759 
Q 947 2416 947 1791 
Q 947 1169 1205 825 
Q 1463 481 1925 481 
Q 2391 481 2648 825 
Q 2906 1169 2906 1791 
z
M 3481 434 
Q 3481 -459 3084 -895 
Q 2688 -1331 1869 -1331 
Q 1566 -1331 1297 -1286 
Q 1028 -1241 775 -1147 
L 775 -588 
Q 1028 -725 1275 -790 
Q 1522 -856 1778 -856 
Q 2344 -856 2625 -561 
Q 2906 -266 2906 331 
L 2906 616 
Q 2728 306 2450 153 
Q 2172 0 1784 0 
Q 1141 0 747 490 
Q 353 981 353 1791 
Q 353 2603 747 3093 
Q 1141 3584 1784 3584 
Q 2172 3584 2450 3431 
Q 2728 3278 2906 2969 
L 2906 3500 
L 3481 3500 
L 3481 434 
z
" id="DejaVuSans-67" transform="scale(0.015625)"/>
       <path d="M 544 1381 
L 544 3500 
L 1119 3500 
L 1119 1403 
Q 1119 906 1312 657 
Q 1506 409 1894 409 
Q 2359 409 2629 706 
Q 2900 1003 2900 1516 
L 2900 3500 
L 3475 3500 
L 3475 0 
L 2900 0 
L 2900 538 
Q 2691 219 2414 64 
Q 2138 -91 1772 -91 
Q 1169 -91 856 284 
Q 544 659 544 1381 
z
M 1991 3584 
L 1991 3584 
z
" id="DejaVuSans-75" transform="scale(0.015625)"/>
       <path d="M 353 3500 
L 3084 3500 
L 3084 2975 
L 922 459 
L 3084 459 
L 3084 0 
L 275 0 
L 275 525 
L 2438 3041 
L 353 3041 
L 353 3500 
z
" id="DejaVuSans-7a" transform="scale(0.015625)"/>
       <path d="M 1259 4147 
L 1259 2394 
L 2053 2394 
Q 2494 2394 2734 2622 
Q 2975 2850 2975 3272 
Q 2975 3691 2734 3919 
Q 2494 4147 2053 4147 
L 1259 4147 
z
M 628 4666 
L 2053 4666 
Q 2838 4666 3239 4311 
Q 3641 3956 3641 3272 
Q 3641 2581 3239 2228 
Q 2838 1875 2053 1875 
L 1259 1875 
L 1259 0 
L 628 0 
L 628 4666 
z
" id="DejaVuSans-50" transform="scale(0.015625)"/>
       <path d="M 2194 1759 
Q 1497 1759 1228 1600 
Q 959 1441 959 1056 
Q 959 750 1161 570 
Q 1363 391 1709 391 
Q 2188 391 2477 730 
Q 2766 1069 2766 1631 
L 2766 1759 
L 2194 1759 
z
M 3341 1997 
L 3341 0 
L 2766 0 
L 2766 531 
Q 2569 213 2275 61 
Q 1981 -91 1556 -91 
Q 1019 -91 701 211 
Q 384 513 384 1019 
Q 384 1609 779 1909 
Q 1175 2209 1959 2209 
L 2766 2209 
L 2766 2266 
Q 2766 2663 2505 2880 
Q 2244 3097 1772 3097 
Q 1472 3097 1187 3025 
Q 903 2953 641 2809 
L 641 3341 
Q 956 3463 1253 3523 
Q 1550 3584 1831 3584 
Q 2591 3584 2966 3190 
Q 3341 2797 3341 1997 
z
" id="DejaVuSans-61" transform="scale(0.015625)"/>
       <path d="M 1172 4494 
L 1172 3500 
L 2356 3500 
L 2356 3053 
L 1172 3053 
L 1172 1153 
Q 1172 725 1289 603 
Q 1406 481 1766 481 
L 2356 481 
L 2356 0 
L 1766 0 
Q 1100 0 847 248 
Q 594 497 594 1153 
L 594 3053 
L 172 3053 
L 172 3500 
L 594 3500 
L 594 4494 
L 1172 4494 
z
" id="DejaVuSans-74" transform="scale(0.015625)"/>
       <path d="M 2913 2219 
L 925 2219 
Q 791 1284 928 888 
Q 1100 400 1566 400 
Q 2034 400 2391 891 
Q 2703 1322 2913 2219 
z
M 3009 2750 
Q 3094 3638 2984 3950 
Q 2813 4444 2353 4444 
Q 1875 4444 1525 3956 
Q 1250 3563 1034 2750 
L 3009 2750 
z
M 2444 4913 
Q 3194 4913 3494 4250 
Q 3794 3591 3566 2422 
Q 3341 1256 2781 594 
Q 2225 -72 1475 -72 
Q 722 -72 425 594 
Q 128 1256 353 2422 
Q 581 3591 1134 4250 
Q 1691 4913 2444 4913 
z
" id="DejaVuSans-Oblique-3b8" transform="scale(0.015625)"/>
       <path d="M 1588 -325 
Q 1188 -997 936 -1164 
Q 684 -1331 294 -1331 
L -159 -1331 
L -63 -850 
L 269 -850 
Q 509 -850 678 -719 
Q 847 -588 1056 -206 
L 1234 128 
L 459 3500 
L 1069 3500 
L 1650 819 
L 3256 3500 
L 3859 3500 
L 1588 -325 
z
" id="DejaVuSans-Oblique-79" transform="scale(0.015625)"/>
      </defs>
      <use transform="translate(0 0.234375)" xlink:href="#DejaVuSans-52"/>
      <use transform="translate(69.482422 0.234375)" xlink:href="#DejaVuSans-6f"/>
      <use transform="translate(130.664062 0.234375)" xlink:href="#DejaVuSans-64"/>
      <use transform="translate(194.140625 0.234375)" xlink:href="#DejaVuSans-72"/>
      <use transform="translate(235.253906 0.234375)" xlink:href="#DejaVuSans-69"/>
      <use transform="translate(263.037109 0.234375)" xlink:href="#DejaVuSans-67"/>
      <use transform="translate(326.513672 0.234375)" xlink:href="#DejaVuSans-75"/>
      <use transform="translate(389.892578 0.234375)" xlink:href="#DejaVuSans-65"/>
      <use transform="translate(451.416016 0.234375)" xlink:href="#DejaVuSans-7a"/>
      <use transform="translate(503.90625 0.234375)" xlink:href="#DejaVuSans-20"/>
      <use transform="translate(535.693359 0.234375)" xlink:href="#DejaVuSans-50"/>
      <use transform="translate(595.996094 0.234375)" xlink:href="#DejaVuSans-61"/>
      <use transform="translate(657.275391 0.234375)" xlink:href="#DejaVuSans-72"/>
      <use transform="translate(698.388672 0.234375)" xlink:href="#DejaVuSans-61"/>
      <use transform="translate(759.667969 0.234375)" xlink:href="#DejaVuSans-6d"/>
      <use transform="translate(857.080078 0.234375)" xlink:href="#DejaVuSans-65"/>
      <use transform="translate(918.603516 0.234375)" xlink:href="#DejaVuSans-74"/>
      <use transform="translate(957.8125 0.234375)" xlink:href="#DejaVuSans-65"/>
      <use transform="translate(1019.335938 0.234375)" xlink:href="#DejaVuSans-72"/>
      <use transform="translate(1060.449219 0.234375)" xlink:href="#DejaVuSans-20"/>
      <use transform="translate(1092.236328 0.234375)" xlink:href="#DejaVuSans-Oblique-3b8"/>
      <use transform="translate(1153.417969 -16.171875)scale(0.7)" xlink:href="#DejaVuSans-Oblique-79"/>
      <use transform="translate(1197.578125 0.234375)" xlink:href="#DejaVuSans-20"/>
      <use transform="translate(1229.365234 0.234375)" xlink:href="#DejaVuSans-28"/>
      <use transform="translate(1268.378906 0.234375)" xlink:href="#DejaVuSans-64"/>
      <use transform="translate(1331.855469 0.234375)" xlink:href="#DejaVuSans-65"/>
      <use transform="translate(1393.378906 0.234375)" xlink:href="#DejaVuSans-67"/>
      <use transform="translate(1456.855469 0.234375)" xlink:href="#DejaVuSans-72"/>
      <use transform="translate(1497.96875 0.234375)" xlink:href="#DejaVuSans-65"/>
      <use transform="translate(1559.492188 0.234375)" xlink:href="#DejaVuSans-65"/>
      <use transform="translate(1621.015625 0.234375)" xlink:href="#DejaVuSans-29"/>
     </g>
    </g>
   </g>
   <g id="line2d_11">
    <path clip-path="url(#pa82fb3280e)" d="M 42.933593 106.871218 
L 43.759755 106.977686 
L 44.671971 107.286168 
L 45.938372 108.12867 
L 47.271045 109.363489 
L 48.25554 110.617964 
L 50.158624 113.702096 
L 51.867523 116.744887 
L 53.182944 119.624406 
L 55.545701 125.381901 
L 59.50184 135.149776 
L 64.955996 147.048536 
L 66.217944 149.655946 
L 67.32938 151.463068 
L 68.46219 152.962552 
L 69.330653 153.903835 
L 70.208267 154.57142 
L 71.038516 154.884113 
L 71.828511 155.033203 
L 73.203546 155.02592 
L 74.045027 154.70955 
L 74.758276 154.125376 
L 75.479838 153.32627 
L 77.099862 151.026295 
L 78.252986 149.037204 
L 80.98307 144.094329 
L 82.918446 140.937846 
L 86.632944 134.271119 
L 93.514896 120.040464 
L 97.001904 111.965096 
L 98.568312 109.37569 
L 99.690232 107.89238 
L 100.615759 107.000252 
L 103.33429 105.114153 
L 104.421368 104.606179 
L 105.545622 104.510479 
L 106.596662 104.69373 
L 107.599265 105.164154 
L 108.208056 105.674627 
L 109.343115 107.043467 
L 111.07407 109.733365 
L 111.972968 111.461237 
L 112.893379 113.650707 
L 114.184329 117.391479 
L 115.512949 121.907984 
L 116.883904 127.433678 
L 120.670121 143.212756 
L 122.391128 149.453637 
L 124.099877 154.656234 
L 125.721163 158.945398 
L 126.823932 161.156407 
L 127.926702 162.746807 
L 128.762869 163.685911 
L 129.613285 164.411917 
L 130.559142 164.885019 
L 131.647185 165.134405 
L 134.09673 165.451441 
L 134.978585 165.127972 
L 135.442036 164.804585 
L 136.391142 163.747589 
L 137.362454 162.089264 
L 138.333766 159.692377 
L 139.305077 156.462355 
L 140.787027 150.455967 
L 142.918126 140.65401 
L 148.722874 112.493759 
L 150.155216 106.929004 
L 151.51013 102.486305 
L 152.590675 99.572482 
L 154.047047 96.382389 
L 156.389788 91.745808 
L 157.539801 90.091395 
L 158.505528 89.095627 
L 159.210661 88.551957 
L 159.953112 88.218331 
L 160.710423 88.130701 
L 161.87287 88.404417 
L 164.51674 89.393554 
L 165.298413 89.996612 
L 166.08583 90.901757 
L 166.873246 92.15361 
L 167.755134 94.054864 
L 168.637021 96.689172 
L 169.518909 100.085769 
L 170.913558 106.561241 
L 172.832043 116.627388 
L 175.880377 134.184407 
L 177.850686 146.777207 
L 180.32361 162.456542 
L 182.00983 171.885055 
L 183.695133 180.051713 
L 186.523051 192.480463 
L 187.866016 197.321687 
L 188.953278 200.34342 
L 189.80173 201.99067 
L 190.375939 202.67648 
L 190.951188 202.974667 
L 191.529425 202.912397 
L 192.107662 202.562925 
L 192.993019 201.676629 
L 194.726765 199.569336 
L 195.867503 197.819563 
L 197.012414 195.43991 
L 197.928576 192.907602 
L 198.828737 189.739164 
L 199.771331 185.43808 
L 200.661513 180.355436 
L 202.044518 171.051758 
L 204.266978 156.020434 
L 205.912308 146.409875 
L 208.098262 134.002002 
L 209.35797 125.130227 
L 213.461637 94.338388 
L 215.027381 84.900563 
L 217.720441 69.231207 
L 219.135977 61.218006 
L 220.063207 57.049495 
L 220.85762 54.235541 
L 221.740924 51.962633 
L 222.335351 50.979306 
L 222.929779 50.547105 
L 223.2284 50.552763 
L 223.825642 50.959692 
L 224.422884 51.787243 
L 226.225678 54.744993 
L 226.861593 55.439654 
L 227.518287 55.871822 
L 227.854168 55.964692 
L 228.203486 55.942319 
L 228.56414 55.761817 
L 228.935056 55.389482 
L 229.709763 54.007599 
L 231.26678 50.208884 
L 231.656034 49.589867 
L 232.045289 49.255254 
L 232.434543 49.235057 
L 232.730468 49.429031 
L 233.332878 50.332237 
L 233.844761 51.59789 
L 234.37212 53.408529 
L 234.978433 56.260329 
L 235.635486 60.416107 
L 236.532106 67.736233 
L 239.045721 89.282272 
L 240.609817 102.748827 
L 242.909 125.008121 
L 244.423654 141.893358 
L 245.661221 155.159278 
L 246.659147 163.455452 
L 247.999264 172.310962 
L 249.549008 181.209792 
L 251.639235 192.474601 
L 254.08809 208.109575 
L 254.852105 210.918149 
L 255.646096 212.872387 
L 257.168004 216.405049 
L 258.329848 219.013002 
L 259.567415 221.565212 
L 260.106323 223.10648 
L 260.943256 226.266516 
L 261.82532 229.733748 
L 262.473263 231.318193 
L 262.80499 231.539846 
L 263.170413 231.266347 
L 263.543593 230.452504 
L 264.289954 227.450503 
L 265.633482 219.946353 
L 271.518676 184.956265 
L 272.819011 173.538706 
L 275.277861 152.099528 
L 276.398059 143.875346 
L 277.137992 140.005383 
L 277.995435 136.791255 
L 279.091329 132.762475 
L 279.986975 128.464226 
L 281.711906 118.657484 
L 283.890223 106.321388 
L 284.466592 104.197251 
L 284.759929 103.484272 
L 285.061574 103.054066 
L 285.36322 102.927391 
L 285.664865 103.062342 
L 285.966511 103.437226 
L 286.569802 104.791982 
L 287.476603 107.713485 
L 288.690642 111.793122 
L 289.297662 113.260682 
L 289.77708 113.796573 
L 290.121892 113.778288 
L 290.472067 113.354615 
L 290.833177 112.433512 
L 291.411483 109.932887 
L 291.992023 106.244493 
L 292.787122 99.724274 
L 294.670418 83.563237 
L 295.19997 80.479681 
L 295.729522 78.665842 
L 295.906039 78.395311 
L 296.09482 78.320333 
L 296.283602 78.479936 
L 296.519772 79.018921 
L 296.992113 81.238483 
L 297.488398 85.1141 
L 298.362239 94.809446 
L 299.882803 112.297715 
L 300.665556 118.571752 
L 301.491541 123.306414 
L 302.239065 126.39512 
L 302.939407 128.275624 
L 304.125612 130.691145 
L 304.552955 132.31345 
L 304.986831 134.805489 
L 305.640838 140.466627 
L 306.512847 150.957597 
L 308.043529 170.124378 
L 308.73618 176.102076 
L 309.412491 180.04694 
L 310.146117 182.86047 
L 310.542689 183.770261 
L 310.952098 184.117606 
L 311.16493 184.031859 
L 311.630418 183.271668 
L 312.126259 182.149663 
L 312.375403 181.836768 
L 312.624547 181.908917 
L 312.873691 182.502149 
L 313.122835 183.72795 
L 313.621123 188.283359 
L 314.318271 198.439419 
L 315.794364 221.309213 
L 316.672847 231.189897 
L 318.141862 244.673699 
L 318.849328 249.623247 
L 319.126892 250.674134 
L 319.280364 250.956165 
L 319.433835 250.997315 
L 319.601039 250.744429 
L 319.941921 249.233938 
L 320.461686 244.714248 
L 322.083124 227.733483 
L 322.468701 225.634849 
L 322.855657 224.57136 
L 323.049825 224.368664 
L 323.245966 224.332897 
L 323.638249 224.5876 
L 324.890582 226.077452 
L 325.35591 226.138909 
L 325.837426 226.098723 
L 326.085545 226.284669 
L 326.336561 226.762841 
L 326.587577 227.59744 
L 327.089609 230.400699 
L 328.093672 237.358087 
L 328.344688 238.413489 
L 328.595704 238.950961 
L 328.849649 238.946868 
L 329.025528 238.602467 
L 329.318757 237.418012 
L 329.788152 234.028014 
L 330.493761 226.641333 
L 335.490081 168.901011 
L 336.270827 164.083214 
L 338.228746 153.130065 
L 340.403078 140.351332 
L 341.012588 134.151056 
L 342.282934 120.073333 
L 342.933709 115.382186 
L 343.784157 111.342046 
L 344.702526 106.726693 
L 346.355391 97.031279 
L 347.030379 94.665778 
L 347.874113 92.453585 
L 348.215214 90.599837 
L 348.747368 86.047655 
L 350.285043 70.499126 
L 350.693972 68.749833 
L 350.898437 68.460714 
L 351.113078 68.476448 
L 351.562035 69.060212 
L 352.038102 69.584737 
L 352.28359 69.526334 
L 352.531551 69.160317 
L 353.027471 67.496099 
L 353.802934 64.417549 
L 354.065823 64.037848 
L 354.328711 64.266642 
L 354.5916 65.168869 
L 355.117377 68.914137 
L 356.547963 82.205436 
L 356.79472 82.631104 
L 357.041477 82.203888 
L 357.534991 79.426751 
L 358.028505 76.054086 
L 358.275262 74.971503 
L 358.522019 74.601943 
L 358.768776 75.037745 
L 359.015534 76.229598 
L 359.509048 80.180569 
L 360.360293 87.656276 
L 360.785916 89.553354 
L 360.998727 89.623801 
L 361.343723 88.341886 
L 361.766033 85.007622 
L 362.43252 79.830671 
L 362.740813 78.77833 
L 362.978401 78.651889 
L 363.103493 78.834344 
L 363.381465 79.866235 
L 363.815197 83.211148 
L 364.808943 93.223155 
L 365.078306 94.073809 
L 365.217202 94.04957 
L 365.500024 93.138976 
L 365.924258 90.268417 
L 366.704988 84.573795 
L 366.891647 84.140502 
L 367.078305 84.308448 
L 367.264963 85.066358 
L 367.63828 88.209977 
L 368.393315 98.489361 
L 368.965891 105.406977 
L 369.32412 107.417845 
L 369.49149 107.740506 
L 369.664252 107.745235 
L 370.017723 106.996021 
L 370.383345 106.022994 
L 370.573624 105.877874 
L 370.763903 106.192227 
L 370.95783 107.102953 
L 371.345684 110.838558 
L 371.882651 119.401126 
L 372.847497 136.027501 
L 373.186853 139.044082 
L 373.533595 140.208383 
L 373.708708 140.194473 
L 374.261397 139.466304 
L 374.455045 139.639376 
L 374.648694 140.27014 
L 375.035992 143.16104 
L 375.438165 148.838308 
L 376.981765 176.999508 
L 377.289828 179.600036 
L 377.597891 180.829821 
L 377.905954 181.229587 
L 378.215595 181.490972 
L 378.554845 182.259382 
L 378.92253 184.174576 
L 379.318652 188.038272 
L 380.705078 206.029833 
L 381.1012 207.917694 
L 381.29926 208.025542 
L 381.497321 207.612766 
L 381.849216 205.797993 
L 383.09962 197.190976 
L 383.25657 197.033991 
L 383.413521 197.244098 
L 383.774651 198.859156 
L 384.603205 203.881044 
L 385.093945 205.43575 
L 385.52074 206.126953 
L 385.741117 206.096778 
L 385.982602 205.515553 
L 386.243748 204.069263 
L 387.106938 198.03019 
L 387.270731 197.827828 
L 387.434525 198.053867 
L 387.79813 199.647309 
L 389.186349 208.240882 
L 389.601765 210.646874 
L 389.812283 211.148155 
L 390.022801 210.930995 
L 390.448534 208.757987 
L 391.087132 205.102612 
L 391.299999 204.584383 
L 391.512865 204.393826 
L 391.725731 204.372131 
L 391.938598 204.46606 
L 392.151464 204.704067 
L 392.577196 205.634179 
L 393.002929 206.720597 
L 393.224162 207.016967 
L 393.445395 206.828957 
L 393.666628 205.993311 
L 394.109094 202.392965 
L 394.777931 193.591838 
L 395.89467 177.856742 
L 396.511832 172.938766 
L 397.496368 166.393599 
L 398.030075 161.539574 
L 399.719481 141.184715 
L 400.057363 139.299287 
L 400.241538 138.801408 
L 400.425713 138.717008 
L 400.794064 139.37459 
L 401.162415 140.144553 
L 401.291563 140.205159 
L 401.480272 139.920158 
L 401.691052 138.99633 
L 402.048747 136.19079 
L 402.446315 131.633398 
L 403.009956 122.255961 
L 403.594702 112.612171 
L 404.052422 107.976411 
L 404.528633 104.638487 
L 404.846108 103.550881 
L 405.163583 102.686669 
L 405.481057 100.554122 
L 405.957269 95.007739 
L 406.592218 84.555288 
L 407.227167 73.548926 
L 407.708364 68.849744 
L 408.046864 66.828082 
L 408.217688 66.497199 
L 408.388513 66.716217 
L 409.137845 69.391307 
L 409.328261 69.541821 
L 409.518677 69.459543 
L 409.709094 69.121918 
L 409.89951 68.420197 
L 410.285209 65.278529 
L 411.661628 48.073823 
L 412.266055 44.147731 
L 413.452154 38.381739 
L 413.843754 34.265375 
L 415.548268 11.769738 
L 415.769088 10.445336 
L 415.989908 10.062685 
L 416.210727 10.532885 
L 416.652542 13.040353 
L 417.332963 19.154094 
L 417.845194 23.731632 
L 418.213808 25.294325 
L 418.398115 25.275484 
L 418.780883 24.179875 
L 419.177807 22.891423 
L 419.376269 22.629145 
L 419.55158 22.819269 
L 419.902203 24.406472 
L 420.627645 29.535892 
L 421.005254 33.991771 
L 421.949277 46.412266 
L 422.138082 47.430635 
L 422.361999 47.848441 
L 422.361999 47.848441 
" style="fill:none;stroke:#e36f47;"/>
   </g>
   <g id="patch_3">
    <path d="M 42.933593 258.225354 
L 42.933593 2.834646 
" style="fill:none;stroke:#000000;stroke-linecap:square;stroke-linejoin:miter;"/>
   </g>
   <g id="patch_4">
    <path d="M 42.933593 258.225354 
L 422.361999 258.225354 
" style="fill:none;stroke:#000000;stroke-linecap:square;stroke-linejoin:miter;"/>
   </g>
   <g id="legend_1">
    <g id="patch_5">
     <path d="M 299.041999 39.119646 
L 418.361999 39.119646 
L 418.361999 6.834646 
L 299.041999 6.834646 
z
" style="fill:#ffffff;stroke:#000000;stroke-linejoin:miter;"/>
    </g>
    <g id="line2d_12">
     <path d="M 305.441999 16.513396 
L 321.441999 16.513396 
" style="fill:none;stroke:#009afa;stroke-linejoin:miter;"/>
    </g>
    <g id="line2d_13"/>
    <g id="text_12">
     <!-- GXBeam -->
     <g transform="translate(327.841999 19.313396)scale(0.08 -0.08)">
      <defs>
       <path d="M 3809 666 
L 3809 1919 
L 2778 1919 
L 2778 2438 
L 4434 2438 
L 4434 434 
Q 4069 175 3628 42 
Q 3188 -91 2688 -91 
Q 1594 -91 976 548 
Q 359 1188 359 2328 
Q 359 3472 976 4111 
Q 1594 4750 2688 4750 
Q 3144 4750 3555 4637 
Q 3966 4525 4313 4306 
L 4313 3634 
Q 3963 3931 3569 4081 
Q 3175 4231 2741 4231 
Q 1884 4231 1454 3753 
Q 1025 3275 1025 2328 
Q 1025 1384 1454 906 
Q 1884 428 2741 428 
Q 3075 428 3337 486 
Q 3600 544 3809 666 
z
" id="DejaVuSans-47" transform="scale(0.015625)"/>
       <path d="M 403 4666 
L 1081 4666 
L 2241 2931 
L 3406 4666 
L 4084 4666 
L 2584 2425 
L 4184 0 
L 3506 0 
L 2194 1984 
L 872 0 
L 191 0 
L 1856 2491 
L 403 4666 
z
" id="DejaVuSans-58" transform="scale(0.015625)"/>
       <path d="M 1259 2228 
L 1259 519 
L 2272 519 
Q 2781 519 3026 730 
Q 3272 941 3272 1375 
Q 3272 1813 3026 2020 
Q 2781 2228 2272 2228 
L 1259 2228 
z
M 1259 4147 
L 1259 2741 
L 2194 2741 
Q 2656 2741 2882 2914 
Q 3109 3088 3109 3444 
Q 3109 3797 2882 3972 
Q 2656 4147 2194 4147 
L 1259 4147 
z
M 628 4666 
L 2241 4666 
Q 2963 4666 3353 4366 
Q 3744 4066 3744 3513 
Q 3744 3084 3544 2831 
Q 3344 2578 2956 2516 
Q 3422 2416 3680 2098 
Q 3938 1781 3938 1306 
Q 3938 681 3513 340 
Q 3088 0 2303 0 
L 628 0 
L 628 4666 
z
" id="DejaVuSans-42" transform="scale(0.015625)"/>
      </defs>
      <use xlink:href="#DejaVuSans-47"/>
      <use x="77.490234" xlink:href="#DejaVuSans-58"/>
      <use x="145.996094" xlink:href="#DejaVuSans-42"/>
      <use x="214.599609" xlink:href="#DejaVuSans-65"/>
      <use x="276.123047" xlink:href="#DejaVuSans-61"/>
      <use x="337.402344" xlink:href="#DejaVuSans-6d"/>
     </g>
    </g>
    <g id="line2d_14">
     <path d="M 305.441999 28.255896 
L 321.441999 28.255896 
" style="fill:none;stroke:#e36f47;stroke-linejoin:miter;"/>
    </g>
    <g id="line2d_15"/>
    <g id="text_13">
     <!-- DifferentialEquations -->
     <g transform="translate(327.841999 31.055896)scale(0.08 -0.08)">
      <defs>
       <path d="M 1259 4147 
L 1259 519 
L 2022 519 
Q 2988 519 3436 956 
Q 3884 1394 3884 2338 
Q 3884 3275 3436 3711 
Q 2988 4147 2022 4147 
L 1259 4147 
z
M 628 4666 
L 1925 4666 
Q 3281 4666 3915 4102 
Q 4550 3538 4550 2338 
Q 4550 1131 3912 565 
Q 3275 0 1925 0 
L 628 0 
L 628 4666 
z
" id="DejaVuSans-44" transform="scale(0.015625)"/>
       <path d="M 2375 4863 
L 2375 4384 
L 1825 4384 
Q 1516 4384 1395 4259 
Q 1275 4134 1275 3809 
L 1275 3500 
L 2222 3500 
L 2222 3053 
L 1275 3053 
L 1275 0 
L 697 0 
L 697 3053 
L 147 3053 
L 147 3500 
L 697 3500 
L 697 3744 
Q 697 4328 969 4595 
Q 1241 4863 1831 4863 
L 2375 4863 
z
" id="DejaVuSans-66" transform="scale(0.015625)"/>
       <path d="M 3513 2113 
L 3513 0 
L 2938 0 
L 2938 2094 
Q 2938 2591 2744 2837 
Q 2550 3084 2163 3084 
Q 1697 3084 1428 2787 
Q 1159 2491 1159 1978 
L 1159 0 
L 581 0 
L 581 3500 
L 1159 3500 
L 1159 2956 
Q 1366 3272 1645 3428 
Q 1925 3584 2291 3584 
Q 2894 3584 3203 3211 
Q 3513 2838 3513 2113 
z
" id="DejaVuSans-6e" transform="scale(0.015625)"/>
       <path d="M 603 4863 
L 1178 4863 
L 1178 0 
L 603 0 
L 603 4863 
z
" id="DejaVuSans-6c" transform="scale(0.015625)"/>
       <path d="M 628 4666 
L 3578 4666 
L 3578 4134 
L 1259 4134 
L 1259 2753 
L 3481 2753 
L 3481 2222 
L 1259 2222 
L 1259 531 
L 3634 531 
L 3634 0 
L 628 0 
L 628 4666 
z
" id="DejaVuSans-45" transform="scale(0.015625)"/>
       <path d="M 947 1747 
Q 947 1113 1208 752 
Q 1469 391 1925 391 
Q 2381 391 2643 752 
Q 2906 1113 2906 1747 
Q 2906 2381 2643 2742 
Q 2381 3103 1925 3103 
Q 1469 3103 1208 2742 
Q 947 2381 947 1747 
z
M 2906 525 
Q 2725 213 2448 61 
Q 2172 -91 1784 -91 
Q 1150 -91 751 415 
Q 353 922 353 1747 
Q 353 2572 751 3078 
Q 1150 3584 1784 3584 
Q 2172 3584 2448 3432 
Q 2725 3281 2906 2969 
L 2906 3500 
L 3481 3500 
L 3481 -1331 
L 2906 -1331 
L 2906 525 
z
" id="DejaVuSans-71" transform="scale(0.015625)"/>
      </defs>
      <use xlink:href="#DejaVuSans-44"/>
      <use x="77.001953" xlink:href="#DejaVuSans-69"/>
      <use x="104.785156" xlink:href="#DejaVuSans-66"/>
      <use x="139.990234" xlink:href="#DejaVuSans-66"/>
      <use x="175.195312" xlink:href="#DejaVuSans-65"/>
      <use x="236.71875" xlink:href="#DejaVuSans-72"/>
      <use x="275.582031" xlink:href="#DejaVuSans-65"/>
      <use x="337.105469" xlink:href="#DejaVuSans-6e"/>
      <use x="400.484375" xlink:href="#DejaVuSans-74"/>
      <use x="439.693359" xlink:href="#DejaVuSans-69"/>
      <use x="467.476562" xlink:href="#DejaVuSans-61"/>
      <use x="528.755859" xlink:href="#DejaVuSans-6c"/>
      <use x="556.539062" xlink:href="#DejaVuSans-45"/>
      <use x="619.722656" xlink:href="#DejaVuSans-71"/>
      <use x="683.199219" xlink:href="#DejaVuSans-75"/>
      <use x="746.578125" xlink:href="#DejaVuSans-61"/>
      <use x="807.857422" xlink:href="#DejaVuSans-74"/>
      <use x="847.066406" xlink:href="#DejaVuSans-69"/>
      <use x="874.849609" xlink:href="#DejaVuSans-6f"/>
      <use x="936.03125" xlink:href="#DejaVuSans-6e"/>
      <use x="999.410156" xlink:href="#DejaVuSans-73"/>
     </g>
    </g>
   </g>
  </g>
 </g>
 <defs>
  <clipPath id="pa82fb3280e">
   <rect height="255.390709" width="379.428407" x="42.933593" y="2.834646"/>
  </clipPath>
 </defs>
</svg>
