<?xml version="1.0" encoding="utf-8" standalone="no"?>
<!DOCTYPE svg PUBLIC "-//W3C//DTD SVG 1.1//EN"
  "http://www.w3.org/Graphics/SVG/1.1/DTD/svg11.dtd">
<svg height="288pt" version="1.1" viewBox="0 0 432 288" width="432pt" xmlns="http://www.w3.org/2000/svg" xmlns:xlink="http://www.w3.org/1999/xlink">
 <metadata>
  <rdf:RDF xmlns:cc="http://creativecommons.org/ns#" xmlns:dc="http://purl.org/dc/elements/1.1/" xmlns:rdf="http://www.w3.org/1999/02/22-rdf-syntax-ns#">
   <cc:Work>
    <dc:type rdf:resource="http://purl.org/dc/dcmitype/StillImage"/>
    <dc:date>2021-09-22T00:17:25.131333</dc:date>
    <dc:format>image/svg+xml</dc:format>
    <dc:creator>
     <cc:Agent>
      <dc:title>Matplotlib v3.4.2, https://matplotlib.org/</dc:title>
     </cc:Agent>
    </dc:creator>
   </cc:Work>
  </rdf:RDF>
 </metadata>
 <defs>
  <style type="text/css">*{stroke-linecap:butt;stroke-linejoin:round;}</style>
 </defs>
 <g id="figure_1">
  <g id="patch_1">
   <path d="M 0 288 
L 432 288 
L 432 0 
L 0 0 
z
" style="fill:#ffffff;"/>
  </g>
  <g id="axes_1">
   <g id="patch_2">
    <path d="M 43.915109 258.225354 
L 422.361999 258.225354 
L 422.361999 2.834646 
L 43.915109 2.834646 
z
" style="fill:#ffffff;"/>
   </g>
   <g id="line2d_1">
    <path clip-path="url(#pc93b2c6b97)" d="M 43.915109 10.062685 
L 49.213366 10.163393 
L 51.67327 10.412449 
L 53.565505 10.811759 
L 55.079292 11.35918 
L 56.59308 12.146142 
L 57.917644 13.066416 
L 59.620655 14.533502 
L 61.323666 16.309318 
L 62.837454 18.207417 
L 64.540465 20.679971 
L 66.432699 23.859508 
L 70.406391 30.634477 
L 72.109402 33.117319 
L 74.001637 35.443274 
L 75.326201 36.769471 
L 76.650765 37.781223 
L 77.975329 38.53294 
L 79.299893 39.044137 
L 80.435234 39.274645 
L 81.759798 39.325799 
L 82.895139 39.148661 
L 84.030479 38.723669 
L 85.355044 37.938745 
L 87.058055 36.612864 
L 90.464077 33.837213 
L 91.788641 33.107634 
L 92.923981 32.706491 
L 94.059322 32.526366 
L 95.57311 32.546095 
L 99.736025 32.804069 
L 100.871366 32.590562 
L 102.19593 32.113947 
L 103.709718 31.297668 
L 105.791176 29.888481 
L 111.657102 25.778245 
L 112.981667 25.088054 
L 113.927784 24.801951 
L 114.684678 24.764209 
L 115.441571 24.944016 
L 116.198465 25.382371 
L 116.955359 26.127697 
L 117.712253 27.212122 
L 118.469146 28.654138 
L 119.415264 30.948829 
L 120.550604 34.353537 
L 121.875168 39.046258 
L 127.173425 58.809977 
L 128.308766 61.9619 
L 129.444106 64.461953 
L 130.390223 66.057825 
L 131.336341 67.203999 
L 132.093234 67.794453 
L 132.850128 68.093339 
L 133.417799 68.129072 
L 133.985469 67.98825 
L 134.553139 67.672062 
L 135.12081 67.152342 
L 135.877703 66.119068 
L 136.634597 64.665532 
L 137.580714 62.25621 
L 138.526832 59.218733 
L 139.662172 54.854228 
L 141.74363 45.714923 
L 143.446641 38.563352 
L 144.581982 34.608082 
L 145.528099 32.077343 
L 146.284993 30.644527 
L 146.852663 29.944989 
L 147.420334 29.565209 
L 147.988004 29.510385 
L 148.555674 29.774321 
L 149.123345 30.343179 
L 149.691015 31.207012 
L 150.447909 32.779908 
L 151.394026 35.338143 
L 152.529367 39.082232 
L 154.421601 46.252901 
L 156.692282 54.66383 
L 157.827623 58.14493 
L 158.77374 60.48106 
L 159.719857 62.217117 
L 160.476751 63.151816 
L 161.233645 63.688027 
L 161.801315 63.827725 
L 162.368986 63.750352 
L 162.936656 63.460892 
L 163.69355 62.745966 
L 164.450444 61.673373 
L 165.396561 59.840012 
L 166.342678 57.496723 
L 167.478019 54.05309 
L 168.802583 49.249227 
L 170.884041 40.612419 
L 172.965499 32.215497 
L 174.100839 28.572119 
L 174.857733 26.816854 
L 175.425403 25.954271 
L 175.993074 25.540384 
L 176.371521 25.536831 
L 176.749968 25.768785 
L 177.128414 26.249132 
L 177.696085 27.448759 
L 178.263755 29.253887 
L 179.020649 32.600323 
L 179.777543 36.975129 
L 180.72366 43.75179 
L 181.859001 53.513505 
L 183.372788 68.579896 
L 188.292598 119.609683 
L 189.427938 128.656357 
L 190.374056 134.772989 
L 191.320173 139.549692 
L 192.077067 142.414731 
L 192.83396 144.475818 
L 193.401631 145.51472 
L 193.969301 146.156041 
L 194.536971 146.416375 
L 194.915418 146.372601 
L 195.293865 146.151839 
L 195.861535 145.479464 
L 196.429206 144.354356 
L 196.996876 142.737472 
L 197.75377 139.751985 
L 198.510664 135.757963 
L 199.456781 129.291035 
L 200.402898 121.219846 
L 201.727462 107.62235 
L 206.079601 60.17337 
L 207.214942 50.719634 
L 208.350283 43.168432 
L 209.2964 38.347321 
L 210.053294 35.482393 
L 210.620964 33.947897 
L 211.188635 32.989724 
L 211.567081 32.691838 
L 211.945528 32.674324 
L 212.323975 32.950336 
L 212.702422 33.521823 
L 213.270092 34.936379 
L 213.837763 37.026241 
L 214.594657 40.837846 
L 215.540774 47.13168 
L 216.676114 56.588234 
L 218.189902 71.596376 
L 221.028254 100.549396 
L 222.163594 109.752922 
L 223.109712 115.744038 
L 223.866605 119.304134 
L 224.623499 121.758536 
L 225.191169 122.925457 
L 225.75884 123.603931 
L 226.32651 123.869153 
L 226.89418 123.810943 
L 227.461851 123.500833 
L 228.218745 122.800653 
L 228.975638 121.79922 
L 229.732532 120.446103 
L 230.489426 118.618977 
L 231.24632 116.20075 
L 232.003213 113.012366 
L 232.760107 108.829053 
L 233.517001 103.477659 
L 234.463118 95.1403 
L 235.598459 83.090356 
L 239.193704 42.856208 
L 240.139822 35.421403 
L 240.896715 31.252708 
L 241.464386 29.358989 
L 241.842833 28.736624 
L 242.032056 28.624582 
L 242.22128 28.647281 
L 242.599726 29.10173 
L 242.978173 30.104052 
L 243.545844 32.615031 
L 244.113514 36.302196 
L 244.870408 42.935092 
L 245.816525 53.639278 
L 247.141089 71.732084 
L 253.196239 158.498684 
L 254.710027 177.065577 
L 255.845368 188.61744 
L 256.980708 197.974517 
L 257.926825 204.237283 
L 258.872943 209.065249 
L 259.629836 211.86439 
L 260.38673 213.801137 
L 260.954401 214.754193 
L 261.522071 215.262452 
L 261.900518 215.297486 
L 262.278965 215.032874 
L 262.657412 214.389172 
L 263.035858 213.273774 
L 263.603529 210.617465 
L 264.171199 206.72187 
L 264.928093 199.79933 
L 266.063434 186.938873 
L 267.577221 167.189168 
L 269.847902 134.154461 
L 272.497031 96.231705 
L 273.821595 79.83082 
L 274.767712 70.655819 
L 275.524606 65.386765 
L 276.092276 62.901431 
L 276.470723 61.995908 
L 276.84917 61.724087 
L 277.038393 61.826584 
L 277.41684 62.485825 
L 277.795287 63.723163 
L 278.362958 66.550592 
L 279.119851 71.78256 
L 280.255192 81.628858 
L 283.093544 107.266811 
L 284.039661 113.646009 
L 284.796555 117.539018 
L 285.553448 120.478391 
L 286.499566 123.207851 
L 287.82413 126.139249 
L 289.716364 130.329047 
L 290.662481 132.232359 
L 291.230152 132.895797 
L 291.608599 133.026065 
L 291.987046 132.860338 
L 292.365492 132.421648 
L 292.933163 131.335249 
L 293.87928 128.841069 
L 295.014621 125.219473 
L 295.771514 122.025807 
L 296.528408 117.68791 
L 297.285302 111.961859 
L 298.609866 99.612465 
L 299.93443 87.731713 
L 303.718899 57.704367 
L 304.475793 53.45637 
L 305.043463 51.555526 
L 305.42191 50.939295 
L 305.800357 50.80056 
L 306.178804 51.076767 
L 306.557251 51.698839 
L 307.124921 53.183118 
L 307.692592 55.299719 
L 308.449485 59.20542 
L 309.206379 64.491103 
L 310.152496 73.132895 
L 311.47706 88.140821 
L 312.801625 105.567277 
L 313.558518 118.311998 
L 314.504636 138.299222 
L 318.478328 229.190146 
L 319.235222 241.689515 
L 319.802892 248.037963 
L 320.181339 250.277599 
L 320.370562 250.75528 
L 320.559786 250.821116 
L 320.749009 250.509576 
L 321.127456 248.97249 
L 321.88435 244.050139 
L 322.830467 238.3304 
L 323.587361 235.318498 
L 324.344255 233.314191 
L 325.668819 230.17835 
L 326.993383 226.193887 
L 327.37183 225.817058 
L 327.750277 225.871224 
L 328.128724 226.044573 
L 328.317947 226.030122 
L 328.50717 225.863977 
L 328.696394 225.485846 
L 329.074841 223.874502 
L 329.453288 220.851059 
L 330.020958 213.418106 
L 330.777852 198.82698 
L 331.913192 171.336158 
L 333.805427 126.164214 
L 335.886885 81.349246 
L 336.833002 65.400905 
L 337.589896 55.82705 
L 338.34679 49.054632 
L 338.91446 45.631501 
L 339.48213 43.253497 
L 340.239024 41.110681 
L 340.617471 40.460038 
L 340.995918 40.193733 
L 341.185141 40.23802 
L 341.563588 40.739327 
L 341.942035 41.831221 
L 342.320482 43.570942 
L 342.888152 47.388311 
L 343.83427 55.738228 
L 346.861845 85.982484 
L 349.132526 110.880341 
L 350.078643 117.918943 
L 353.863112 142.036415 
L 354.430782 144.519798 
L 354.998453 146.05517 
L 355.566123 146.858397 
L 356.51224 147.772329 
L 356.890687 147.826354 
L 357.269134 147.393965 
L 357.647581 146.414249 
L 358.215251 144.109824 
L 358.972145 139.916968 
L 359.918262 132.980303 
L 361.43205 121.884539 
L 363.135061 109.397549 
L 364.270402 99.864403 
L 365.594966 86.015763 
L 370.514775 31.063932 
L 371.082446 26.22428 
L 371.650116 23.059841 
L 372.028563 21.769958 
L 372.40701 21.212252 
L 372.596233 21.257436 
L 372.785457 21.531663 
L 373.163904 22.691597 
L 374.110021 27.089428 
L 374.677691 30.246357 
L 375.245361 35.253641 
L 375.813032 42.636105 
L 376.569926 55.992685 
L 379.219054 109.028912 
L 381.111288 141.422895 
L 381.868182 151.702456 
L 382.435852 156.678122 
L 383.38197 162.636728 
L 384.51731 168.995128 
L 386.031098 179.023565 
L 387.355662 187.071889 
L 387.923332 188.878937 
L 389.058673 191.61551 
L 389.626343 192.139922 
L 390.194014 192.507068 
L 390.383237 192.458568 
L 390.57246 192.220443 
L 390.950907 191.003934 
L 391.518578 187.457089 
L 392.653918 178.158589 
L 393.410812 169.423738 
L 394.546153 153.491392 
L 399.276739 79.246371 
L 400.222856 68.536901 
L 403.061208 40.534197 
L 403.818102 35.014498 
L 404.574995 31.070455 
L 405.521113 27.33062 
L 406.845677 23.642183 
L 407.224124 23.354272 
L 407.602571 23.625021 
L 407.981017 24.385363 
L 408.359464 25.71365 
L 408.927135 28.718165 
L 409.494805 33.658396 
L 410.440922 44.820929 
L 411.387039 59.487912 
L 412.711604 84.379715 
L 415.928402 145.318715 
L 416.496072 151.872898 
L 416.874519 153.865557 
L 417.252966 154.695359 
L 417.631413 155.057628 
L 417.820637 155.047395 
L 418.199083 154.572057 
L 418.57753 153.959337 
L 418.955977 153.771816 
L 419.334424 153.724388 
L 419.712871 153.389409 
L 420.091318 152.781287 
L 420.469765 151.777641 
L 421.983552 145.847797 
L 422.361999 144.176034 
L 422.361999 144.176034 
" style="fill:none;stroke:#009afa;"/>
   </g>
   <g id="matplotlib.axis_1">
    <g id="xtick_1">
     <g id="line2d_2">
      <defs>
       <path d="M 0 0 
L 0 -2.5 
" id="mc8655f654e" style="stroke:#000000;stroke-width:0.5;"/>
      </defs>
      <g>
       <use style="stroke:#000000;stroke-width:0.5;" x="43.915109" xlink:href="#mc8655f654e" y="258.225354"/>
      </g>
     </g>
     <g id="text_1">
      <!-- $0.0$ -->
      <g transform="translate(37.515109 267.804104)scale(0.08 -0.08)">
       <defs>
        <path d="M 2034 4250 
Q 1547 4250 1301 3770 
Q 1056 3291 1056 2328 
Q 1056 1369 1301 889 
Q 1547 409 2034 409 
Q 2525 409 2770 889 
Q 3016 1369 3016 2328 
Q 3016 3291 2770 3770 
Q 2525 4250 2034 4250 
z
M 2034 4750 
Q 2819 4750 3233 4129 
Q 3647 3509 3647 2328 
Q 3647 1150 3233 529 
Q 2819 -91 2034 -91 
Q 1250 -91 836 529 
Q 422 1150 422 2328 
Q 422 3509 836 4129 
Q 1250 4750 2034 4750 
z
" id="DejaVuSans-30" transform="scale(0.015625)"/>
        <path d="M 684 794 
L 1344 794 
L 1344 0 
L 684 0 
L 684 794 
z
" id="DejaVuSans-2e" transform="scale(0.015625)"/>
       </defs>
       <use transform="translate(0 0.78125)" xlink:href="#DejaVuSans-30"/>
       <use transform="translate(63.623047 0.78125)" xlink:href="#DejaVuSans-2e"/>
       <use transform="translate(95.410156 0.78125)" xlink:href="#DejaVuSans-30"/>
      </g>
     </g>
    </g>
    <g id="xtick_2">
     <g id="line2d_3">
      <g>
       <use style="stroke:#000000;stroke-width:0.5;" x="138.526832" xlink:href="#mc8655f654e" y="258.225354"/>
      </g>
     </g>
     <g id="text_2">
      <!-- $0.5$ -->
      <g transform="translate(132.126832 267.804104)scale(0.08 -0.08)">
       <defs>
        <path d="M 691 4666 
L 3169 4666 
L 3169 4134 
L 1269 4134 
L 1269 2991 
Q 1406 3038 1543 3061 
Q 1681 3084 1819 3084 
Q 2600 3084 3056 2656 
Q 3513 2228 3513 1497 
Q 3513 744 3044 326 
Q 2575 -91 1722 -91 
Q 1428 -91 1123 -41 
Q 819 9 494 109 
L 494 744 
Q 775 591 1075 516 
Q 1375 441 1709 441 
Q 2250 441 2565 725 
Q 2881 1009 2881 1497 
Q 2881 1984 2565 2268 
Q 2250 2553 1709 2553 
Q 1456 2553 1204 2497 
Q 953 2441 691 2322 
L 691 4666 
z
" id="DejaVuSans-35" transform="scale(0.015625)"/>
       </defs>
       <use transform="translate(0 0.78125)" xlink:href="#DejaVuSans-30"/>
       <use transform="translate(63.623047 0.78125)" xlink:href="#DejaVuSans-2e"/>
       <use transform="translate(95.410156 0.78125)" xlink:href="#DejaVuSans-35"/>
      </g>
     </g>
    </g>
    <g id="xtick_3">
     <g id="line2d_4">
      <g>
       <use style="stroke:#000000;stroke-width:0.5;" x="233.138554" xlink:href="#mc8655f654e" y="258.225354"/>
      </g>
     </g>
     <g id="text_3">
      <!-- $1.0$ -->
      <g transform="translate(226.738554 267.804104)scale(0.08 -0.08)">
       <defs>
        <path d="M 794 531 
L 1825 531 
L 1825 4091 
L 703 3866 
L 703 4441 
L 1819 4666 
L 2450 4666 
L 2450 531 
L 3481 531 
L 3481 0 
L 794 0 
L 794 531 
z
" id="DejaVuSans-31" transform="scale(0.015625)"/>
       </defs>
       <use transform="translate(0 0.78125)" xlink:href="#DejaVuSans-31"/>
       <use transform="translate(63.623047 0.78125)" xlink:href="#DejaVuSans-2e"/>
       <use transform="translate(95.410156 0.78125)" xlink:href="#DejaVuSans-30"/>
      </g>
     </g>
    </g>
    <g id="xtick_4">
     <g id="line2d_5">
      <g>
       <use style="stroke:#000000;stroke-width:0.5;" x="327.750277" xlink:href="#mc8655f654e" y="258.225354"/>
      </g>
     </g>
     <g id="text_4">
      <!-- $1.5$ -->
      <g transform="translate(321.350277 267.804104)scale(0.08 -0.08)">
       <use transform="translate(0 0.09375)" xlink:href="#DejaVuSans-31"/>
       <use transform="translate(63.623047 0.09375)" xlink:href="#DejaVuSans-2e"/>
       <use transform="translate(95.410156 0.09375)" xlink:href="#DejaVuSans-35"/>
      </g>
     </g>
    </g>
    <g id="xtick_5">
     <g id="line2d_6">
      <g>
       <use style="stroke:#000000;stroke-width:0.5;" x="422.361999" xlink:href="#mc8655f654e" y="258.225354"/>
      </g>
     </g>
     <g id="text_5">
      <!-- $2.0$ -->
      <g transform="translate(415.961999 267.804104)scale(0.08 -0.08)">
       <defs>
        <path d="M 1228 531 
L 3431 531 
L 3431 0 
L 469 0 
L 469 531 
Q 828 903 1448 1529 
Q 2069 2156 2228 2338 
Q 2531 2678 2651 2914 
Q 2772 3150 2772 3378 
Q 2772 3750 2511 3984 
Q 2250 4219 1831 4219 
Q 1534 4219 1204 4116 
Q 875 4013 500 3803 
L 500 4441 
Q 881 4594 1212 4672 
Q 1544 4750 1819 4750 
Q 2544 4750 2975 4387 
Q 3406 4025 3406 3419 
Q 3406 3131 3298 2873 
Q 3191 2616 2906 2266 
Q 2828 2175 2409 1742 
Q 1991 1309 1228 531 
z
" id="DejaVuSans-32" transform="scale(0.015625)"/>
       </defs>
       <use transform="translate(0 0.78125)" xlink:href="#DejaVuSans-32"/>
       <use transform="translate(63.623047 0.78125)" xlink:href="#DejaVuSans-2e"/>
       <use transform="translate(95.410156 0.78125)" xlink:href="#DejaVuSans-30"/>
      </g>
     </g>
    </g>
    <g id="text_6">
     <!-- Time (s) -->
     <g transform="translate(210.776757 281.826136)scale(0.11 -0.11)">
      <defs>
       <path d="M -19 4666 
L 3928 4666 
L 3928 4134 
L 2272 4134 
L 2272 0 
L 1638 0 
L 1638 4134 
L -19 4134 
L -19 4666 
z
" id="DejaVuSans-54" transform="scale(0.015625)"/>
       <path d="M 603 3500 
L 1178 3500 
L 1178 0 
L 603 0 
L 603 3500 
z
M 603 4863 
L 1178 4863 
L 1178 4134 
L 603 4134 
L 603 4863 
z
" id="DejaVuSans-69" transform="scale(0.015625)"/>
       <path d="M 3328 2828 
Q 3544 3216 3844 3400 
Q 4144 3584 4550 3584 
Q 5097 3584 5394 3201 
Q 5691 2819 5691 2113 
L 5691 0 
L 5113 0 
L 5113 2094 
Q 5113 2597 4934 2840 
Q 4756 3084 4391 3084 
Q 3944 3084 3684 2787 
Q 3425 2491 3425 1978 
L 3425 0 
L 2847 0 
L 2847 2094 
Q 2847 2600 2669 2842 
Q 2491 3084 2119 3084 
Q 1678 3084 1418 2786 
Q 1159 2488 1159 1978 
L 1159 0 
L 581 0 
L 581 3500 
L 1159 3500 
L 1159 2956 
Q 1356 3278 1631 3431 
Q 1906 3584 2284 3584 
Q 2666 3584 2933 3390 
Q 3200 3197 3328 2828 
z
" id="DejaVuSans-6d" transform="scale(0.015625)"/>
       <path d="M 3597 1894 
L 3597 1613 
L 953 1613 
Q 991 1019 1311 708 
Q 1631 397 2203 397 
Q 2534 397 2845 478 
Q 3156 559 3463 722 
L 3463 178 
Q 3153 47 2828 -22 
Q 2503 -91 2169 -91 
Q 1331 -91 842 396 
Q 353 884 353 1716 
Q 353 2575 817 3079 
Q 1281 3584 2069 3584 
Q 2775 3584 3186 3129 
Q 3597 2675 3597 1894 
z
M 3022 2063 
Q 3016 2534 2758 2815 
Q 2500 3097 2075 3097 
Q 1594 3097 1305 2825 
Q 1016 2553 972 2059 
L 3022 2063 
z
" id="DejaVuSans-65" transform="scale(0.015625)"/>
       <path id="DejaVuSans-20" transform="scale(0.015625)"/>
       <path d="M 1984 4856 
Q 1566 4138 1362 3434 
Q 1159 2731 1159 2009 
Q 1159 1288 1364 580 
Q 1569 -128 1984 -844 
L 1484 -844 
Q 1016 -109 783 600 
Q 550 1309 550 2009 
Q 550 2706 781 3412 
Q 1013 4119 1484 4856 
L 1984 4856 
z
" id="DejaVuSans-28" transform="scale(0.015625)"/>
       <path d="M 2834 3397 
L 2834 2853 
Q 2591 2978 2328 3040 
Q 2066 3103 1784 3103 
Q 1356 3103 1142 2972 
Q 928 2841 928 2578 
Q 928 2378 1081 2264 
Q 1234 2150 1697 2047 
L 1894 2003 
Q 2506 1872 2764 1633 
Q 3022 1394 3022 966 
Q 3022 478 2636 193 
Q 2250 -91 1575 -91 
Q 1294 -91 989 -36 
Q 684 19 347 128 
L 347 722 
Q 666 556 975 473 
Q 1284 391 1588 391 
Q 1994 391 2212 530 
Q 2431 669 2431 922 
Q 2431 1156 2273 1281 
Q 2116 1406 1581 1522 
L 1381 1569 
Q 847 1681 609 1914 
Q 372 2147 372 2553 
Q 372 3047 722 3315 
Q 1072 3584 1716 3584 
Q 2034 3584 2315 3537 
Q 2597 3491 2834 3397 
z
" id="DejaVuSans-73" transform="scale(0.015625)"/>
       <path d="M 513 4856 
L 1013 4856 
Q 1481 4119 1714 3412 
Q 1947 2706 1947 2009 
Q 1947 1309 1714 600 
Q 1481 -109 1013 -844 
L 513 -844 
Q 928 -128 1133 580 
Q 1338 1288 1338 2009 
Q 1338 2731 1133 3434 
Q 928 4138 513 4856 
z
" id="DejaVuSans-29" transform="scale(0.015625)"/>
      </defs>
      <use xlink:href="#DejaVuSans-54"/>
      <use x="57.958984" xlink:href="#DejaVuSans-69"/>
      <use x="85.742188" xlink:href="#DejaVuSans-6d"/>
      <use x="183.154297" xlink:href="#DejaVuSans-65"/>
      <use x="244.677734" xlink:href="#DejaVuSans-20"/>
      <use x="276.464844" xlink:href="#DejaVuSans-28"/>
      <use x="315.478516" xlink:href="#DejaVuSans-73"/>
      <use x="367.578125" xlink:href="#DejaVuSans-29"/>
     </g>
    </g>
   </g>
   <g id="matplotlib.axis_2">
    <g id="ytick_1">
     <g id="line2d_7">
      <defs>
       <path d="M 0 0 
L 2.5 0 
" id="m09e7808e20" style="stroke:#000000;stroke-width:0.5;"/>
      </defs>
      <g>
       <use style="stroke:#000000;stroke-width:0.5;" x="43.915109" xlink:href="#m09e7808e20" y="214.510406"/>
      </g>
     </g>
     <g id="text_7">
      <!-- $-0.6$ -->
      <g transform="translate(20.975109 217.549781)scale(0.08 -0.08)">
       <defs>
        <path d="M 678 2272 
L 4684 2272 
L 4684 1741 
L 678 1741 
L 678 2272 
z
" id="DejaVuSans-2212" transform="scale(0.015625)"/>
        <path d="M 2113 2584 
Q 1688 2584 1439 2293 
Q 1191 2003 1191 1497 
Q 1191 994 1439 701 
Q 1688 409 2113 409 
Q 2538 409 2786 701 
Q 3034 994 3034 1497 
Q 3034 2003 2786 2293 
Q 2538 2584 2113 2584 
z
M 3366 4563 
L 3366 3988 
Q 3128 4100 2886 4159 
Q 2644 4219 2406 4219 
Q 1781 4219 1451 3797 
Q 1122 3375 1075 2522 
Q 1259 2794 1537 2939 
Q 1816 3084 2150 3084 
Q 2853 3084 3261 2657 
Q 3669 2231 3669 1497 
Q 3669 778 3244 343 
Q 2819 -91 2113 -91 
Q 1303 -91 875 529 
Q 447 1150 447 2328 
Q 447 3434 972 4092 
Q 1497 4750 2381 4750 
Q 2619 4750 2861 4703 
Q 3103 4656 3366 4563 
z
" id="DejaVuSans-36" transform="scale(0.015625)"/>
       </defs>
       <use transform="translate(0 0.78125)" xlink:href="#DejaVuSans-2212"/>
       <use transform="translate(83.789062 0.78125)" xlink:href="#DejaVuSans-30"/>
       <use transform="translate(147.412109 0.78125)" xlink:href="#DejaVuSans-2e"/>
       <use transform="translate(179.199219 0.78125)" xlink:href="#DejaVuSans-36"/>
      </g>
     </g>
    </g>
    <g id="ytick_2">
     <g id="line2d_8">
      <g>
       <use style="stroke:#000000;stroke-width:0.5;" x="43.915109" xlink:href="#m09e7808e20" y="146.361166"/>
      </g>
     </g>
     <g id="text_8">
      <!-- $-0.4$ -->
      <g transform="translate(20.975109 149.400541)scale(0.08 -0.08)">
       <defs>
        <path d="M 2419 4116 
L 825 1625 
L 2419 1625 
L 2419 4116 
z
M 2253 4666 
L 3047 4666 
L 3047 1625 
L 3713 1625 
L 3713 1100 
L 3047 1100 
L 3047 0 
L 2419 0 
L 2419 1100 
L 313 1100 
L 313 1709 
L 2253 4666 
z
" id="DejaVuSans-34" transform="scale(0.015625)"/>
       </defs>
       <use transform="translate(0 0.78125)" xlink:href="#DejaVuSans-2212"/>
       <use transform="translate(83.789062 0.78125)" xlink:href="#DejaVuSans-30"/>
       <use transform="translate(147.412109 0.78125)" xlink:href="#DejaVuSans-2e"/>
       <use transform="translate(179.199219 0.78125)" xlink:href="#DejaVuSans-34"/>
      </g>
     </g>
    </g>
    <g id="ytick_3">
     <g id="line2d_9">
      <g>
       <use style="stroke:#000000;stroke-width:0.5;" x="43.915109" xlink:href="#m09e7808e20" y="78.211925"/>
      </g>
     </g>
     <g id="text_9">
      <!-- $-0.2$ -->
      <g transform="translate(21.375109 81.2513)scale(0.08 -0.08)">
       <use transform="translate(0 0.78125)" xlink:href="#DejaVuSans-2212"/>
       <use transform="translate(83.789062 0.78125)" xlink:href="#DejaVuSans-30"/>
       <use transform="translate(147.412109 0.78125)" xlink:href="#DejaVuSans-2e"/>
       <use transform="translate(173.699219 0.78125)" xlink:href="#DejaVuSans-32"/>
      </g>
     </g>
    </g>
    <g id="ytick_4">
     <g id="line2d_10">
      <g>
       <use style="stroke:#000000;stroke-width:0.5;" x="43.915109" xlink:href="#m09e7808e20" y="10.062685"/>
      </g>
     </g>
     <g id="text_10">
      <!-- $0.0$ -->
      <g transform="translate(27.615109 13.10206)scale(0.08 -0.08)">
       <use transform="translate(0 0.78125)" xlink:href="#DejaVuSans-30"/>
       <use transform="translate(63.623047 0.78125)" xlink:href="#DejaVuSans-2e"/>
       <use transform="translate(95.410156 0.78125)" xlink:href="#DejaVuSans-30"/>
      </g>
     </g>
    </g>
    <g id="text_11">
     <!-- $u_x$ ($m$) -->
     <g transform="translate(14.687453 147.855)rotate(-90)scale(0.11 -0.11)">
      <defs>
       <path d="M 428 1388 
L 838 3500 
L 1416 3500 
L 1006 1409 
Q 975 1256 961 1147 
Q 947 1038 947 966 
Q 947 700 1109 554 
Q 1272 409 1569 409 
Q 2031 409 2368 721 
Q 2706 1034 2809 1563 
L 3194 3500 
L 3769 3500 
L 3091 0 
L 2516 0 
L 2631 550 
Q 2388 244 2052 76 
Q 1716 -91 1338 -91 
Q 878 -91 622 161 
Q 366 413 366 863 
Q 366 956 381 1097 
Q 397 1238 428 1388 
z
" id="DejaVuSans-Oblique-75" transform="scale(0.015625)"/>
       <path d="M 3841 3500 
L 2234 1784 
L 3219 0 
L 2559 0 
L 1819 1388 
L 531 0 
L -166 0 
L 1556 1844 
L 641 3500 
L 1300 3500 
L 1972 2234 
L 3144 3500 
L 3841 3500 
z
" id="DejaVuSans-Oblique-78" transform="scale(0.015625)"/>
       <path d="M 5747 2113 
L 5338 0 
L 4763 0 
L 5166 2094 
Q 5191 2228 5203 2325 
Q 5216 2422 5216 2491 
Q 5216 2772 5059 2928 
Q 4903 3084 4622 3084 
Q 4203 3084 3875 2770 
Q 3547 2456 3450 1953 
L 3066 0 
L 2491 0 
L 2900 2094 
Q 2925 2209 2937 2307 
Q 2950 2406 2950 2484 
Q 2950 2769 2794 2926 
Q 2638 3084 2363 3084 
Q 1938 3084 1609 2770 
Q 1281 2456 1184 1953 
L 800 0 
L 225 0 
L 909 3500 
L 1484 3500 
L 1375 2956 
Q 1609 3263 1923 3423 
Q 2238 3584 2597 3584 
Q 2978 3584 3223 3384 
Q 3469 3184 3519 2828 
Q 3781 3197 4126 3390 
Q 4472 3584 4856 3584 
Q 5306 3584 5551 3325 
Q 5797 3066 5797 2591 
Q 5797 2488 5784 2364 
Q 5772 2241 5747 2113 
z
" id="DejaVuSans-Oblique-6d" transform="scale(0.015625)"/>
      </defs>
      <use transform="translate(0 0.125)" xlink:href="#DejaVuSans-Oblique-75"/>
      <use transform="translate(63.378906 -16.28125)scale(0.7)" xlink:href="#DejaVuSans-Oblique-78"/>
      <use transform="translate(107.539062 0.125)" xlink:href="#DejaVuSans-20"/>
      <use transform="translate(139.326172 0.125)" xlink:href="#DejaVuSans-28"/>
      <use transform="translate(178.339844 0.125)" xlink:href="#DejaVuSans-Oblique-6d"/>
      <use transform="translate(275.751953 0.125)" xlink:href="#DejaVuSans-29"/>
     </g>
    </g>
   </g>
   <g id="line2d_11">
    <path clip-path="url(#pc93b2c6b97)" d="M 43.915109 10.062685 
L 49.360602 10.172617 
L 51.906696 10.448695 
L 53.614053 10.826016 
L 55.183994 11.406572 
L 56.662022 12.189443 
L 58.075636 13.192674 
L 59.800476 14.703511 
L 61.331936 16.319647 
L 62.893115 18.281574 
L 64.656769 20.864666 
L 66.707462 24.343922 
L 70.388254 30.60813 
L 72.089307 33.087 
L 73.781325 35.203661 
L 75.297619 36.745309 
L 76.557087 37.71694 
L 77.992996 38.545779 
L 79.143137 38.998133 
L 80.372626 39.266026 
L 81.687157 39.335929 
L 82.800474 39.176571 
L 83.796529 38.830953 
L 85.082292 38.120156 
L 86.504038 37.075577 
L 91.056948 33.476604 
L 92.391975 32.862672 
L 93.689777 32.56509 
L 95.04648 32.515073 
L 97.11324 32.708966 
L 99.137717 32.842423 
L 100.524928 32.672074 
L 101.764063 32.293884 
L 103.108073 31.647219 
L 104.882404 30.52259 
L 112.477034 25.300665 
L 113.693921 24.829198 
L 114.655524 24.739117 
L 115.30754 24.867673 
L 115.973657 25.19583 
L 116.644191 25.757737 
L 117.330813 26.601952 
L 118.017435 27.735963 
L 119.047368 29.983128 
L 120.077302 32.842524 
L 121.450546 37.473011 
L 123.817234 46.642189 
L 126.213542 55.667777 
L 127.588438 60.004379 
L 128.688355 62.824157 
L 129.803703 65.076122 
L 130.677899 66.403278 
L 131.664398 67.433238 
L 132.399215 67.883475 
L 133.164215 68.075818 
L 133.982793 67.943 
L 134.842423 67.387561 
L 135.721997 66.302451 
L 136.6465 64.566048 
L 137.615299 62.082074 
L 138.584098 58.935456 
L 140.037297 53.167666 
L 143.944655 36.608152 
L 144.855621 33.688703 
L 145.821757 31.358506 
L 146.545415 30.193273 
L 147.101298 29.648611 
L 147.677275 29.410738 
L 148.13053 29.459237 
L 148.612421 29.731615 
L 149.101135 30.23738 
L 149.77114 31.281505 
L 150.570638 33.010625 
L 151.509222 35.620195 
L 152.719387 39.70077 
L 154.974899 48.35081 
L 156.805693 55.002222 
L 157.926492 58.386929 
L 158.847794 60.61292 
L 159.528366 61.891915 
L 160.261654 62.907505 
L 161.009595 63.549302 
L 161.764946 63.804916 
L 162.546711 63.657543 
L 163.328475 63.100678 
L 164.110239 62.155034 
L 164.810513 60.986974 
L 165.570703 59.396033 
L 166.748772 56.286564 
L 167.973955 52.272863 
L 169.733168 45.408384 
L 173.127344 31.511209 
L 174.208495 28.15883 
L 174.968134 26.491714 
L 175.549327 25.689243 
L 175.936789 25.419469 
L 176.324252 25.381711 
L 176.711714 25.591251 
L 177.202353 26.237076 
L 177.731744 27.428136 
L 178.347767 29.473725 
L 179.054539 32.69247 
L 179.877701 37.555375 
L 180.949721 45.523039 
L 182.179161 56.556735 
L 183.823687 73.429941 
L 187.9313 116.484474 
L 189.285501 127.67512 
L 190.403323 134.975782 
L 191.262409 139.296374 
L 192.126549 142.520134 
L 192.991661 144.718855 
L 193.586358 145.690728 
L 194.19853 146.254687 
L 194.562644 146.378221 
L 194.939131 146.336622 
L 195.315618 146.113906 
L 195.692105 145.701419 
L 196.072755 145.084665 
L 196.834055 143.200973 
L 197.595355 140.391656 
L 198.365845 136.519851 
L 199.25734 130.69644 
L 200.175326 123.162167 
L 201.41903 110.769557 
L 203.703833 84.759851 
L 205.520543 65.268791 
L 206.710839 54.513118 
L 207.815315 46.34386 
L 208.861901 40.277224 
L 209.69955 36.610841 
L 210.327824 34.591915 
L 210.956098 33.245284 
L 211.387069 32.739735 
L 211.81804 32.593734 
L 212.250978 32.819702 
L 212.685885 33.437861 
L 213.122483 34.457407 
L 213.781401 36.751379 
L 214.443279 39.953653 
L 215.335228 45.580605 
L 216.263298 52.858798 
L 217.498524 64.399332 
L 221.667006 105.810169 
L 222.556341 112.236583 
L 223.445676 117.201301 
L 224.041373 119.658399 
L 224.63707 121.443877 
L 225.232767 122.602909 
L 225.828464 123.229253 
L 226.43152 123.414589 
L 227.047336 123.245477 
L 227.687303 122.791748 
L 228.357327 122.083925 
L 229.065462 121.086087 
L 229.819874 119.681033 
L 230.596368 117.743897 
L 231.372863 115.173331 
L 232.149358 111.744945 
L 232.925853 107.224136 
L 233.821864 100.474162 
L 234.858418 90.679476 
L 236.118516 76.540238 
L 238.535289 48.741867 
L 239.519928 39.63788 
L 240.435364 33.260674 
L 241.079978 30.280882 
L 241.602149 28.909183 
L 241.873892 28.587651 
L 242.15284 28.543776 
L 242.436591 28.79851 
L 242.726735 29.373183 
L 243.203073 31.00871 
L 243.72767 33.794304 
L 244.293772 37.924118 
L 245.086314 45.510396 
L 246.118316 57.972185 
L 247.725135 80.775316 
L 251.554134 136.159479 
L 254.145638 170.207516 
L 255.480843 184.798516 
L 256.703617 195.595711 
L 257.819187 203.35056 
L 258.754171 208.209192 
L 259.469964 210.927649 
L 260.255918 213.016817 
L 260.804307 214.004296 
L 261.360819 214.58351 
L 261.644575 214.682292 
L 261.941318 214.616919 
L 262.240601 214.344012 
L 262.556 213.785337 
L 262.886868 212.851016 
L 263.217736 211.523851 
L 263.954429 207.099729 
L 264.69886 200.698671 
L 265.764242 189.080213 
L 267.137591 171.548746 
L 269.360684 139.785985 
L 272.68947 92.356478 
L 273.885867 77.990754 
L 274.806844 69.252976 
L 275.530613 64.337051 
L 276.100645 61.936235 
L 276.427756 61.198803 
L 276.775643 60.942345 
L 276.954802 61.021061 
L 277.313121 61.59041 
L 277.719438 62.858617 
L 278.368887 66.105167 
L 279.238614 72.300434 
L 280.355275 82.224053 
L 282.864643 105.401949 
L 283.967782 113.091961 
L 284.823304 117.519625 
L 285.717612 120.901881 
L 286.620208 123.332966 
L 288.128253 126.380313 
L 289.339152 129.06959 
L 290.635934 131.922643 
L 291.17342 132.557775 
L 291.557959 132.675127 
L 291.942499 132.499341 
L 292.329268 132.05757 
L 292.922424 130.958939 
L 293.751769 128.884272 
L 294.832239 125.557224 
L 295.528916 122.797294 
L 296.233159 119.089048 
L 296.845305 114.879872 
L 297.811424 106.527868 
L 300.071221 86.046986 
L 304.011114 55.495708 
L 304.642391 52.588168 
L 305.073022 51.444497 
L 305.507899 50.961526 
L 305.725338 50.952156 
L 306.160214 51.328337 
L 306.595091 52.138007 
L 307.217008 53.933906 
L 307.96517 57.073787 
L 308.694231 61.317408 
L 309.535423 67.911419 
L 310.4364 76.931647 
L 311.916862 94.160614 
L 312.908419 107.889338 
L 313.653918 121.214162 
L 314.778743 146.311963 
L 317.754332 216.111952 
L 318.984037 239.426216 
L 319.547018 246.82914 
L 320.034058 250.322617 
L 320.206864 250.83975 
L 320.379671 250.997315 
L 320.552478 250.824921 
L 320.91041 249.604274 
L 321.447082 246.436587 
L 322.727108 238.478715 
L 323.306728 236.081884 
L 323.89363 234.388092 
L 325.374053 230.859887 
L 326.584962 226.60749 
L 326.835329 226.144275 
L 327.085695 225.9402 
L 327.336062 225.972913 
L 328.087162 226.610779 
L 328.337528 226.574714 
L 328.587895 226.175133 
L 328.838261 225.290782 
L 329.266974 222.412997 
L 329.793534 216.219013 
L 330.378761 206.05165 
L 331.222266 187.012299 
L 334.232556 115.121339 
L 335.833991 80.686699 
L 336.792535 64.774679 
L 337.538929 55.616132 
L 338.211218 49.878873 
L 338.949336 45.628091 
L 339.753368 42.391213 
L 340.327502 40.923679 
L 340.767075 40.42468 
L 341.071042 40.447248 
L 341.375009 40.839041 
L 341.678975 41.662549 
L 342.162451 43.839291 
L 342.746657 47.659848 
L 343.552176 54.543451 
L 346.552007 83.758654 
L 348.937797 110.407043 
L 349.875672 117.612455 
L 351.297387 126.644886 
L 352.220018 133.100344 
L 353.460528 141.728612 
L 353.980285 144.252242 
L 354.504702 146.010355 
L 355.291327 147.709729 
L 355.999348 148.682057 
L 356.478591 148.943846 
L 356.718212 148.90958 
L 356.964331 148.730745 
L 357.21045 148.378102 
L 357.702687 147.074564 
L 358.194925 144.943205 
L 358.933281 140.258085 
L 362.587547 113.862538 
L 363.822445 104.328157 
L 364.957823 92.686899 
L 367.966017 58.96219 
L 370.517805 29.318319 
L 371.090804 24.929848 
L 371.67108 22.089598 
L 372.013232 21.162839 
L 372.311047 20.906331 
L 372.477181 20.997954 
L 372.809449 21.582403 
L 373.659906 23.937268 
L 374.192677 25.97144 
L 374.578973 28.401676 
L 375.158416 33.870808 
L 375.760116 41.880016 
L 376.361816 52.778738 
L 378.49898 95.330018 
L 381.207934 142.902791 
L 381.954016 150.709663 
L 382.888095 157.899065 
L 385.353508 174.217215 
L 386.617397 182.589352 
L 387.887541 187.913969 
L 388.466589 189.723315 
L 389.476537 192.078225 
L 389.68651 192.339136 
L 389.896484 192.38664 
L 390.106457 192.173049 
L 390.531088 191.044196 
L 391.168035 188.534121 
L 391.592666 186.300943 
L 392.229613 181.452129 
L 393.078876 173.368015 
L 393.961519 162.338786 
L 395.517596 138.640495 
L 398.767032 86.61056 
L 399.778054 74.87532 
L 403.348879 39.337228 
L 404.099785 34.875797 
L 405.841378 27.092356 
L 406.791338 23.949659 
L 407.107992 23.598392 
L 407.266318 23.657264 
L 407.582971 24.179327 
L 407.913512 25.270924 
L 408.610483 28.79121 
L 409.172053 32.642103 
L 409.741825 38.300037 
L 410.511226 48.1614 
L 411.492773 63.783308 
L 413.100104 94.645394 
L 415.345645 141.058507 
L 416.006391 150.263745 
L 416.446975 153.511094 
L 416.887647 155.411179 
L 417.345972 156.560812 
L 417.856878 157.108495 
L 418.408368 157.692976 
L 419.186044 158.596612 
L 419.383992 158.588349 
L 419.55885 158.333413 
L 419.908566 157.024325 
L 421.573713 148.766126 
L 422.361999 146.467868 
L 422.361999 146.467868 
" style="fill:none;stroke:#e36f47;"/>
   </g>
   <g id="patch_3">
    <path d="M 43.915109 258.225354 
L 43.915109 2.834646 
" style="fill:none;stroke:#000000;stroke-linecap:square;stroke-linejoin:miter;"/>
   </g>
   <g id="patch_4">
    <path d="M 43.915109 258.225354 
L 422.361999 258.225354 
" style="fill:none;stroke:#000000;stroke-linecap:square;stroke-linejoin:miter;"/>
   </g>
   <g id="legend_1">
    <g id="patch_5">
     <path d="M 299.041999 39.119646 
L 418.361999 39.119646 
L 418.361999 6.834646 
L 299.041999 6.834646 
z
" style="fill:#ffffff;stroke:#000000;stroke-linejoin:miter;"/>
    </g>
    <g id="line2d_12">
     <path d="M 305.441999 16.513396 
L 321.441999 16.513396 
" style="fill:none;stroke:#009afa;stroke-linejoin:miter;"/>
    </g>
    <g id="line2d_13"/>
    <g id="text_12">
     <!-- GXBeam -->
     <g transform="translate(327.841999 19.313396)scale(0.08 -0.08)">
      <defs>
       <path d="M 3809 666 
L 3809 1919 
L 2778 1919 
L 2778 2438 
L 4434 2438 
L 4434 434 
Q 4069 175 3628 42 
Q 3188 -91 2688 -91 
Q 1594 -91 976 548 
Q 359 1188 359 2328 
Q 359 3472 976 4111 
Q 1594 4750 2688 4750 
Q 3144 4750 3555 4637 
Q 3966 4525 4313 4306 
L 4313 3634 
Q 3963 3931 3569 4081 
Q 3175 4231 2741 4231 
Q 1884 4231 1454 3753 
Q 1025 3275 1025 2328 
Q 1025 1384 1454 906 
Q 1884 428 2741 428 
Q 3075 428 3337 486 
Q 3600 544 3809 666 
z
" id="DejaVuSans-47" transform="scale(0.015625)"/>
       <path d="M 403 4666 
L 1081 4666 
L 2241 2931 
L 3406 4666 
L 4084 4666 
L 2584 2425 
L 4184 0 
L 3506 0 
L 2194 1984 
L 872 0 
L 191 0 
L 1856 2491 
L 403 4666 
z
" id="DejaVuSans-58" transform="scale(0.015625)"/>
       <path d="M 1259 2228 
L 1259 519 
L 2272 519 
Q 2781 519 3026 730 
Q 3272 941 3272 1375 
Q 3272 1813 3026 2020 
Q 2781 2228 2272 2228 
L 1259 2228 
z
M 1259 4147 
L 1259 2741 
L 2194 2741 
Q 2656 2741 2882 2914 
Q 3109 3088 3109 3444 
Q 3109 3797 2882 3972 
Q 2656 4147 2194 4147 
L 1259 4147 
z
M 628 4666 
L 2241 4666 
Q 2963 4666 3353 4366 
Q 3744 4066 3744 3513 
Q 3744 3084 3544 2831 
Q 3344 2578 2956 2516 
Q 3422 2416 3680 2098 
Q 3938 1781 3938 1306 
Q 3938 681 3513 340 
Q 3088 0 2303 0 
L 628 0 
L 628 4666 
z
" id="DejaVuSans-42" transform="scale(0.015625)"/>
       <path d="M 2194 1759 
Q 1497 1759 1228 1600 
Q 959 1441 959 1056 
Q 959 750 1161 570 
Q 1363 391 1709 391 
Q 2188 391 2477 730 
Q 2766 1069 2766 1631 
L 2766 1759 
L 2194 1759 
z
M 3341 1997 
L 3341 0 
L 2766 0 
L 2766 531 
Q 2569 213 2275 61 
Q 1981 -91 1556 -91 
Q 1019 -91 701 211 
Q 384 513 384 1019 
Q 384 1609 779 1909 
Q 1175 2209 1959 2209 
L 2766 2209 
L 2766 2266 
Q 2766 2663 2505 2880 
Q 2244 3097 1772 3097 
Q 1472 3097 1187 3025 
Q 903 2953 641 2809 
L 641 3341 
Q 956 3463 1253 3523 
Q 1550 3584 1831 3584 
Q 2591 3584 2966 3190 
Q 3341 2797 3341 1997 
z
" id="DejaVuSans-61" transform="scale(0.015625)"/>
      </defs>
      <use xlink:href="#DejaVuSans-47"/>
      <use x="77.490234" xlink:href="#DejaVuSans-58"/>
      <use x="145.996094" xlink:href="#DejaVuSans-42"/>
      <use x="214.599609" xlink:href="#DejaVuSans-65"/>
      <use x="276.123047" xlink:href="#DejaVuSans-61"/>
      <use x="337.402344" xlink:href="#DejaVuSans-6d"/>
     </g>
    </g>
    <g id="line2d_14">
     <path d="M 305.441999 28.255896 
L 321.441999 28.255896 
" style="fill:none;stroke:#e36f47;stroke-linejoin:miter;"/>
    </g>
    <g id="line2d_15"/>
    <g id="text_13">
     <!-- DifferentialEquations -->
     <g transform="translate(327.841999 31.055896)scale(0.08 -0.08)">
      <defs>
       <path d="M 1259 4147 
L 1259 519 
L 2022 519 
Q 2988 519 3436 956 
Q 3884 1394 3884 2338 
Q 3884 3275 3436 3711 
Q 2988 4147 2022 4147 
L 1259 4147 
z
M 628 4666 
L 1925 4666 
Q 3281 4666 3915 4102 
Q 4550 3538 4550 2338 
Q 4550 1131 3912 565 
Q 3275 0 1925 0 
L 628 0 
L 628 4666 
z
" id="DejaVuSans-44" transform="scale(0.015625)"/>
       <path d="M 2375 4863 
L 2375 4384 
L 1825 4384 
Q 1516 4384 1395 4259 
Q 1275 4134 1275 3809 
L 1275 3500 
L 2222 3500 
L 2222 3053 
L 1275 3053 
L 1275 0 
L 697 0 
L 697 3053 
L 147 3053 
L 147 3500 
L 697 3500 
L 697 3744 
Q 697 4328 969 4595 
Q 1241 4863 1831 4863 
L 2375 4863 
z
" id="DejaVuSans-66" transform="scale(0.015625)"/>
       <path d="M 2631 2963 
Q 2534 3019 2420 3045 
Q 2306 3072 2169 3072 
Q 1681 3072 1420 2755 
Q 1159 2438 1159 1844 
L 1159 0 
L 581 0 
L 581 3500 
L 1159 3500 
L 1159 2956 
Q 1341 3275 1631 3429 
Q 1922 3584 2338 3584 
Q 2397 3584 2469 3576 
Q 2541 3569 2628 3553 
L 2631 2963 
z
" id="DejaVuSans-72" transform="scale(0.015625)"/>
       <path d="M 3513 2113 
L 3513 0 
L 2938 0 
L 2938 2094 
Q 2938 2591 2744 2837 
Q 2550 3084 2163 3084 
Q 1697 3084 1428 2787 
Q 1159 2491 1159 1978 
L 1159 0 
L 581 0 
L 581 3500 
L 1159 3500 
L 1159 2956 
Q 1366 3272 1645 3428 
Q 1925 3584 2291 3584 
Q 2894 3584 3203 3211 
Q 3513 2838 3513 2113 
z
" id="DejaVuSans-6e" transform="scale(0.015625)"/>
       <path d="M 1172 4494 
L 1172 3500 
L 2356 3500 
L 2356 3053 
L 1172 3053 
L 1172 1153 
Q 1172 725 1289 603 
Q 1406 481 1766 481 
L 2356 481 
L 2356 0 
L 1766 0 
Q 1100 0 847 248 
Q 594 497 594 1153 
L 594 3053 
L 172 3053 
L 172 3500 
L 594 3500 
L 594 4494 
L 1172 4494 
z
" id="DejaVuSans-74" transform="scale(0.015625)"/>
       <path d="M 603 4863 
L 1178 4863 
L 1178 0 
L 603 0 
L 603 4863 
z
" id="DejaVuSans-6c" transform="scale(0.015625)"/>
       <path d="M 628 4666 
L 3578 4666 
L 3578 4134 
L 1259 4134 
L 1259 2753 
L 3481 2753 
L 3481 2222 
L 1259 2222 
L 1259 531 
L 3634 531 
L 3634 0 
L 628 0 
L 628 4666 
z
" id="DejaVuSans-45" transform="scale(0.015625)"/>
       <path d="M 947 1747 
Q 947 1113 1208 752 
Q 1469 391 1925 391 
Q 2381 391 2643 752 
Q 2906 1113 2906 1747 
Q 2906 2381 2643 2742 
Q 2381 3103 1925 3103 
Q 1469 3103 1208 2742 
Q 947 2381 947 1747 
z
M 2906 525 
Q 2725 213 2448 61 
Q 2172 -91 1784 -91 
Q 1150 -91 751 415 
Q 353 922 353 1747 
Q 353 2572 751 3078 
Q 1150 3584 1784 3584 
Q 2172 3584 2448 3432 
Q 2725 3281 2906 2969 
L 2906 3500 
L 3481 3500 
L 3481 -1331 
L 2906 -1331 
L 2906 525 
z
" id="DejaVuSans-71" transform="scale(0.015625)"/>
       <path d="M 544 1381 
L 544 3500 
L 1119 3500 
L 1119 1403 
Q 1119 906 1312 657 
Q 1506 409 1894 409 
Q 2359 409 2629 706 
Q 2900 1003 2900 1516 
L 2900 3500 
L 3475 3500 
L 3475 0 
L 2900 0 
L 2900 538 
Q 2691 219 2414 64 
Q 2138 -91 1772 -91 
Q 1169 -91 856 284 
Q 544 659 544 1381 
z
M 1991 3584 
L 1991 3584 
z
" id="DejaVuSans-75" transform="scale(0.015625)"/>
       <path d="M 1959 3097 
Q 1497 3097 1228 2736 
Q 959 2375 959 1747 
Q 959 1119 1226 758 
Q 1494 397 1959 397 
Q 2419 397 2687 759 
Q 2956 1122 2956 1747 
Q 2956 2369 2687 2733 
Q 2419 3097 1959 3097 
z
M 1959 3584 
Q 2709 3584 3137 3096 
Q 3566 2609 3566 1747 
Q 3566 888 3137 398 
Q 2709 -91 1959 -91 
Q 1206 -91 779 398 
Q 353 888 353 1747 
Q 353 2609 779 3096 
Q 1206 3584 1959 3584 
z
" id="DejaVuSans-6f" transform="scale(0.015625)"/>
      </defs>
      <use xlink:href="#DejaVuSans-44"/>
      <use x="77.001953" xlink:href="#DejaVuSans-69"/>
      <use x="104.785156" xlink:href="#DejaVuSans-66"/>
      <use x="139.990234" xlink:href="#DejaVuSans-66"/>
      <use x="175.195312" xlink:href="#DejaVuSans-65"/>
      <use x="236.71875" xlink:href="#DejaVuSans-72"/>
      <use x="275.582031" xlink:href="#DejaVuSans-65"/>
      <use x="337.105469" xlink:href="#DejaVuSans-6e"/>
      <use x="400.484375" xlink:href="#DejaVuSans-74"/>
      <use x="439.693359" xlink:href="#DejaVuSans-69"/>
      <use x="467.476562" xlink:href="#DejaVuSans-61"/>
      <use x="528.755859" xlink:href="#DejaVuSans-6c"/>
      <use x="556.539062" xlink:href="#DejaVuSans-45"/>
      <use x="619.722656" xlink:href="#DejaVuSans-71"/>
      <use x="683.199219" xlink:href="#DejaVuSans-75"/>
      <use x="746.578125" xlink:href="#DejaVuSans-61"/>
      <use x="807.857422" xlink:href="#DejaVuSans-74"/>
      <use x="847.066406" xlink:href="#DejaVuSans-69"/>
      <use x="874.849609" xlink:href="#DejaVuSans-6f"/>
      <use x="936.03125" xlink:href="#DejaVuSans-6e"/>
      <use x="999.410156" xlink:href="#DejaVuSans-73"/>
     </g>
    </g>
   </g>
  </g>
 </g>
 <defs>
  <clipPath id="pc93b2c6b97">
   <rect height="255.390709" width="378.44689" x="43.915109" y="2.834646"/>
  </clipPath>
 </defs>
</svg>
