<?xml version="1.0" encoding="utf-8" standalone="no"?>
<!DOCTYPE svg PUBLIC "-//W3C//DTD SVG 1.1//EN"
  "http://www.w3.org/Graphics/SVG/1.1/DTD/svg11.dtd">
<svg height="288pt" version="1.1" viewBox="0 0 432 288" width="432pt" xmlns="http://www.w3.org/2000/svg" xmlns:xlink="http://www.w3.org/1999/xlink">
 <metadata>
  <rdf:RDF xmlns:cc="http://creativecommons.org/ns#" xmlns:dc="http://purl.org/dc/elements/1.1/" xmlns:rdf="http://www.w3.org/1999/02/22-rdf-syntax-ns#">
   <cc:Work>
    <dc:type rdf:resource="http://purl.org/dc/dcmitype/StillImage"/>
    <dc:date>2021-09-22T00:17:27.449290</dc:date>
    <dc:format>image/svg+xml</dc:format>
    <dc:creator>
     <cc:Agent>
      <dc:title>Matplotlib v3.4.2, https://matplotlib.org/</dc:title>
     </cc:Agent>
    </dc:creator>
   </cc:Work>
  </rdf:RDF>
 </metadata>
 <defs>
  <style type="text/css">*{stroke-linecap:butt;stroke-linejoin:round;}</style>
 </defs>
 <g id="figure_1">
  <g id="patch_1">
   <path d="M 0 288 
L 432 288 
L 432 0 
L 0 0 
z
" style="fill:#ffffff;"/>
  </g>
  <g id="axes_1">
   <g id="patch_2">
    <path d="M 36.567899 258.225354 
L 422.361999 258.225354 
L 422.361999 2.834646 
L 36.567899 2.834646 
z
" style="fill:#ffffff;"/>
   </g>
   <g id="line2d_1">
    <path clip-path="url(#pffd52905cb)" d="M 36.567899 136.888536 
L 41.390325 136.786434 
L 44.283781 136.471453 
L 47.370134 135.932153 
L 49.684898 135.213985 
L 52.385457 134.056936 
L 54.507325 133.259736 
L 56.243398 132.45299 
L 57.786574 131.54069 
L 63.573486 127.611637 
L 65.88825 126.269258 
L 68.395912 124.943109 
L 69.746191 124.476836 
L 72.253853 123.668668 
L 74.182824 122.866889 
L 76.497588 121.818453 
L 77.462073 121.560177 
L 78.619456 121.478216 
L 79.583941 121.631094 
L 80.548426 122.015508 
L 82.091603 122.845617 
L 85.756647 125.169644 
L 86.721132 125.499941 
L 87.878514 125.647675 
L 88.842999 125.530287 
L 89.807485 125.170127 
L 92.315146 124.069759 
L 93.086735 123.933648 
L 94.244117 123.960981 
L 95.015705 124.212323 
L 95.787293 124.695373 
L 96.751779 125.590487 
L 97.716264 126.798812 
L 98.680749 128.340931 
L 99.838131 130.672045 
L 101.188411 133.9842 
L 102.924484 138.917126 
L 104.853455 145.161246 
L 106.975322 152.624922 
L 109.290087 160.58139 
L 110.447469 163.696432 
L 111.219057 165.257941 
L 111.797748 166.036579 
L 112.37644 166.455115 
L 112.762234 166.5082 
L 113.148028 166.372286 
L 113.726719 165.832084 
L 114.30541 164.893533 
L 114.884101 163.562265 
L 115.655689 161.106425 
L 116.620175 157.032948 
L 117.777557 150.826051 
L 119.706527 138.82851 
L 121.635498 127.190639 
L 122.79288 121.522755 
L 123.757366 117.708914 
L 124.914748 113.994777 
L 126.07213 111.035274 
L 127.422409 108.210798 
L 131.087453 101.183543 
L 132.051939 99.87703 
L 132.823527 99.269626 
L 133.402218 99.055785 
L 133.980909 99.149072 
L 134.5596 99.557667 
L 135.138291 100.270089 
L 135.90988 101.659826 
L 136.874365 103.942913 
L 138.031747 107.253502 
L 140.925203 115.938865 
L 141.696791 117.653191 
L 142.468379 118.818168 
L 143.047071 119.276413 
L 143.432865 119.370482 
L 143.818659 119.278573 
L 144.39735 118.826065 
L 144.976041 118.06998 
L 145.747629 116.717582 
L 149.219776 109.723324 
L 149.991364 108.795932 
L 150.762953 108.106352 
L 151.920335 107.450792 
L 152.88482 107.176576 
L 153.849305 107.151548 
L 155.199585 107.412289 
L 155.971173 107.788653 
L 156.742761 108.458842 
L 157.514349 109.525541 
L 158.285938 111.066522 
L 159.057526 113.133806 
L 159.829114 115.81553 
L 160.600702 119.220091 
L 161.565187 124.489176 
L 162.915467 133.296854 
L 166.966305 160.711388 
L 168.123687 166.6516 
L 169.473966 172.536869 
L 170.631349 176.755235 
L 171.788731 180.106756 
L 172.560319 181.711836 
L 173.13901 182.398727 
L 173.524804 182.580818 
L 173.910599 182.448121 
L 174.296393 181.948616 
L 174.682187 181.084137 
L 175.260878 178.967654 
L 175.839569 175.856704 
L 176.611157 170.011559 
L 177.382745 162.178542 
L 178.347231 149.462213 
L 179.504613 130.645549 
L 182.012275 88.577499 
L 182.783863 79.00922 
L 183.555451 72.095459 
L 184.134142 68.860385 
L 184.519936 67.609342 
L 184.90573 67.016604 
L 185.098627 66.931294 
L 185.291525 66.970895 
L 185.677319 67.39632 
L 186.25601 68.664363 
L 187.799186 72.531283 
L 188.18498 72.994918 
L 188.570774 73.038826 
L 188.956568 72.588866 
L 189.342363 71.637453 
L 189.728157 70.115825 
L 190.306848 66.725738 
L 191.078436 60.493736 
L 193.200304 41.869572 
L 193.778995 39.069392 
L 194.164789 38.170704 
L 194.357686 38.023103 
L 194.550583 38.086583 
L 194.74348 38.367724 
L 195.129274 39.561673 
L 195.515068 41.515943 
L 196.093759 45.779195 
L 196.865348 53.524496 
L 198.215627 70.246751 
L 199.565906 86.379473 
L 200.916186 99.612731 
L 204.388333 131.907772 
L 205.931509 145.33437 
L 206.703097 150.586533 
L 207.474685 154.23126 
L 208.053376 155.851617 
L 208.439171 156.425449 
L 208.824965 156.63274 
L 209.210759 156.48616 
L 209.596553 156.03498 
L 209.982347 155.283506 
L 210.561038 153.615651 
L 211.139729 151.224445 
L 211.911317 146.80057 
L 212.682906 140.897372 
L 213.647391 131.722491 
L 215.769258 110.391407 
L 216.34795 106.411222 
L 216.733744 104.635376 
L 217.119538 103.673184 
L 217.312435 103.480001 
L 217.505332 103.48484 
L 217.698229 103.692899 
L 218.084023 104.664649 
L 218.662714 107.169665 
L 220.784582 118.224107 
L 221.170376 119.076162 
L 221.55617 119.323817 
L 221.749067 119.218111 
L 222.134861 118.536783 
L 222.520655 117.293704 
L 223.292243 113.706561 
L 224.449626 108.135437 
L 225.028317 106.44884 
L 225.414111 105.965502 
L 225.607008 105.92487 
L 225.799905 106.01999 
L 226.185699 106.604514 
L 226.571493 107.648584 
L 227.150184 109.889993 
L 227.921773 113.815766 
L 230.04364 126.336762 
L 231.779714 137.070982 
L 233.708684 149.696435 
L 234.287375 152.022758 
L 234.673169 152.955241 
L 235.058963 153.449247 
L 235.444758 153.602482 
L 236.023449 153.4628 
L 238.145316 152.60104 
L 238.724007 152.587874 
L 239.109802 152.76794 
L 240.652978 154.111133 
L 240.845875 154.041252 
L 241.231669 153.53048 
L 241.617463 152.476553 
L 242.196154 149.732483 
L 242.967743 144.595991 
L 244.510919 132.004316 
L 245.668301 120.967528 
L 247.018581 108.475164 
L 247.597272 104.71872 
L 248.175963 102.34055 
L 248.754654 100.913161 
L 249.333345 100.087028 
L 250.683625 98.347077 
L 251.262316 97.066766 
L 251.64811 95.912957 
L 252.033904 94.211794 
L 252.419698 91.773646 
L 252.805492 88.313917 
L 253.384183 80.620054 
L 253.962874 69.913617 
L 256.277639 20.967791 
L 256.85633 14.326133 
L 257.242124 11.993843 
L 257.435021 11.419225 
L 257.627918 11.226162 
L 257.820815 11.413369 
L 258.013712 11.989535 
L 258.399507 14.273085 
L 258.978198 20.115658 
L 259.556889 28.626821 
L 260.521374 47.118013 
L 262.064551 78.00413 
L 262.643242 86.059958 
L 263.029036 89.688738 
L 263.41483 91.711444 
L 263.607727 92.144676 
L 263.800624 92.236429 
L 263.993521 91.993648 
L 264.379315 90.51239 
L 264.958006 86.305702 
L 265.729594 78.580007 
L 267.272771 62.079941 
L 267.851462 58.338728 
L 268.237256 57.25889 
L 268.430153 57.242495 
L 268.62305 57.578663 
L 269.008844 59.243074 
L 269.394638 62.240939 
L 269.97333 69.248903 
L 270.744918 82.409368 
L 271.709403 103.703328 
L 273.252579 144.328968 
L 274.795756 183.921143 
L 275.760241 203.844095 
L 276.724726 219.033638 
L 277.303417 225.118497 
L 277.689212 227.573794 
L 277.882109 228.212983 
L 278.075006 228.465424 
L 278.267903 228.35341 
L 278.4608 227.863858 
L 278.846594 225.652506 
L 279.425285 219.558994 
L 280.003976 210.783929 
L 281.354256 185.171592 
L 282.704535 160.605866 
L 283.66902 147.046004 
L 284.247711 141.50832 
L 284.633505 139.149878 
L 285.019299 137.983896 
L 285.212197 137.814983 
L 285.405094 137.918138 
L 285.597991 138.300757 
L 285.983785 139.800568 
L 286.562476 143.199918 
L 287.526961 149.008716 
L 287.912755 150.307436 
L 288.105652 150.5693 
L 288.298549 150.512618 
L 288.491446 150.132648 
L 288.87724 148.374059 
L 289.263035 145.132768 
L 289.841726 137.515718 
L 290.613314 122.936392 
L 293.313873 66.408939 
L 293.699667 62.35275 
L 294.085461 60.096718 
L 294.278358 59.681725 
L 294.471255 59.755809 
L 294.664152 60.308471 
L 295.049946 62.752593 
L 295.43574 66.823197 
L 296.207328 78.349175 
L 297.364711 96.61782 
L 297.943402 102.633179 
L 298.329196 104.637767 
L 298.522093 105.021225 
L 298.71499 105.008179 
L 298.907887 104.605215 
L 299.293681 102.742991 
L 299.872372 97.823677 
L 301.415549 81.666791 
L 301.801343 79.907148 
L 301.99424 79.66644 
L 302.187137 79.862096 
L 302.380034 80.50136 
L 302.765828 82.999734 
L 303.344519 88.949675 
L 305.080593 111.42614 
L 306.237975 127.584198 
L 308.359843 160.32888 
L 308.938534 165.555951 
L 309.324328 167.521805 
L 309.710122 168.34086 
L 309.903019 168.350148 
L 310.095916 168.138059 
L 310.48171 167.038948 
L 310.867504 164.937402 
L 311.446195 159.822023 
L 312.024887 152.198344 
L 313.953857 122.560073 
L 314.339651 120.485342 
L 314.532548 120.525847 
L 314.725445 121.36569 
L 315.111239 125.45213 
L 315.497033 132.395886 
L 316.268622 151.926363 
L 317.426004 181.539679 
L 318.004695 190.256689 
L 318.390489 192.584612 
L 318.583386 192.593207 
L 318.776283 191.835795 
L 319.162077 188.223815 
L 319.547871 182.051521 
L 320.126563 168.54701 
L 320.898151 143.588343 
L 323.020018 65.10088 
L 323.405812 58.679509 
L 323.791607 55.937424 
L 323.984504 55.717634 
L 324.177401 56.130779 
L 324.563195 58.648361 
L 324.948989 63.438546 
L 325.52768 75.122547 
L 327.456651 122.136643 
L 327.842445 125.153968 
L 328.035342 125.458888 
L 328.228239 125.007601 
L 328.614033 122.079319 
L 329.192724 114.121845 
L 330.543003 93.374961 
L 330.928797 90.323627 
L 331.314592 88.92564 
L 331.507489 88.831297 
L 331.700386 89.104711 
L 332.08618 90.699497 
L 332.471974 93.576198 
L 333.243562 101.800372 
L 334.208047 111.808956 
L 334.786738 116.362116 
L 335.172533 118.23203 
L 335.558327 118.879369 
L 335.751224 118.834221 
L 335.944121 118.60722 
L 336.329915 117.611151 
L 336.908606 114.992444 
L 337.487297 111.017209 
L 338.065988 107.205963 
L 338.258885 106.565615 
L 338.451782 106.372694 
L 338.644679 106.709737 
L 338.837576 107.644248 
L 339.223371 111.332703 
L 339.802062 120.312419 
L 342.309723 165.228575 
L 343.081312 177.396598 
L 344.045797 197.716725 
L 345.010282 216.791645 
L 345.78187 227.775147 
L 346.360561 232.960055 
L 346.746356 235.020719 
L 347.13215 235.937485 
L 347.517944 236.139914 
L 347.710841 235.980965 
L 347.903738 235.584469 
L 348.289532 233.804339 
L 348.675326 230.402714 
L 349.254017 221.784582 
L 350.990091 191.209964 
L 351.182988 189.798393 
L 351.375885 189.339427 
L 351.568782 189.953309 
L 351.761679 191.692479 
L 352.147473 198.385176 
L 353.111958 223.960452 
L 353.690649 237.010137 
L 354.269341 245.29798 
L 354.848032 250.081026 
L 355.040929 250.806175 
L 355.233826 250.997315 
L 355.426723 250.625566 
L 355.61962 249.670988 
L 356.005414 245.993523 
L 356.584105 237.253579 
L 357.355693 222.161666 
L 358.127282 201.243833 
L 359.284664 167.863957 
L 359.863355 157.402388 
L 360.249149 154.707338 
L 360.442046 154.927025 
L 360.634943 156.151112 
L 361.020737 161.080449 
L 362.563914 187.525814 
L 362.949708 189.80562 
L 363.142605 190.032668 
L 363.335502 189.830778 
L 363.721296 189.159115 
L 363.914193 189.097567 
L 364.10709 189.341013 
L 364.492884 190.5682 
L 365.264472 193.471566 
L 365.457369 193.761498 
L 365.650266 193.827454 
L 365.843164 193.666541 
L 366.036061 193.238539 
L 366.421855 191.244891 
L 366.807649 187.346681 
L 367.38634 178.244745 
L 368.736619 154.70356 
L 370.086899 131.385775 
L 371.437178 105.809624 
L 372.015869 94.672476 
L 372.401663 90.283687 
L 372.59456 89.304296 
L 372.787457 89.109787 
L 372.980354 89.590987 
L 373.366148 91.879595 
L 374.909325 103.131913 
L 375.295119 108.594645 
L 375.87381 120.420705 
L 377.609884 160.841933 
L 377.995678 165.286692 
L 378.381472 167.321758 
L 378.574369 167.728666 
L 378.767266 167.824858 
L 378.960163 167.568087 
L 379.15306 166.885018 
L 379.538854 164.080399 
L 380.117545 156.823262 
L 381.467825 134.401825 
L 382.43231 118.545809 
L 383.011001 112.242243 
L 383.203898 111.229004 
L 383.396795 111.129192 
L 383.589692 112.092744 
L 383.975486 117.26361 
L 385.132869 142.872878 
L 385.71156 157.28128 
L 386.676045 183.538068 
L 387.833427 202.945119 
L 388.219221 208.656133 
L 388.412118 210.217174 
L 388.605015 210.790471 
L 388.797912 210.598331 
L 389.183707 208.895087 
L 389.569501 205.88703 
L 390.148192 198.494199 
L 391.112677 183.807549 
L 391.498471 182.065027 
L 391.691368 182.019073 
L 391.884265 182.261131 
L 392.270059 183.281961 
L 392.848751 185.869674 
L 393.427442 190.001806 
L 397.285383 223.842126 
L 397.47828 224.081205 
L 397.671177 223.433061 
L 398.056971 219.832563 
L 398.635662 210.573566 
L 399.600147 189.694284 
L 400.75753 165.422248 
L 403.843882 99.628265 
L 404.229677 95.189446 
L 404.422574 94.199499 
L 405.001265 93.026536 
L 405.579956 90.409542 
L 405.96575 89.539359 
L 406.158647 88.49756 
L 406.544441 83.994703 
L 407.316029 74.015996 
L 408.087618 66.225247 
L 408.280515 65.617321 
L 408.473412 65.698987 
L 408.859206 66.226814 
L 409.052103 65.829568 
L 409.437897 63.327018 
L 410.209485 55.867906 
L 410.981073 48.007381 
L 411.366867 46.589339 
L 411.559764 46.373597 
L 411.752661 46.334812 
L 411.945559 46.512053 
L 412.138456 47.013221 
L 412.52425 49.044454 
L 413.102941 52.253894 
L 413.295838 52.746907 
L 413.488735 52.827682 
L 413.681632 52.36656 
L 413.874529 51.190517 
L 414.260323 46.6273 
L 415.031911 36.5546 
L 415.8035 30.3859 
L 416.189294 28.281925 
L 416.382191 27.84596 
L 416.575088 28.154837 
L 416.767985 29.308855 
L 417.153779 33.482378 
L 417.925367 45.004163 
L 419.661441 76.631398 
L 420.433029 92.16386 
L 420.818823 97.635972 
L 421.204617 100.352214 
L 421.397514 100.7778 
L 421.590411 100.704839 
L 421.783308 100.1031 
L 421.976205 98.845733 
L 422.361999 94.044191 
L 422.361999 94.044191 
" style="fill:none;stroke:#009afa;"/>
   </g>
   <g id="matplotlib.axis_1">
    <g id="xtick_1">
     <g id="line2d_2">
      <defs>
       <path d="M 0 0 
L 0 -2.5 
" id="mc10b2a7b2b" style="stroke:#000000;stroke-width:0.5;"/>
      </defs>
      <g>
       <use style="stroke:#000000;stroke-width:0.5;" x="36.567899" xlink:href="#mc10b2a7b2b" y="258.225354"/>
      </g>
     </g>
     <g id="text_1">
      <!-- $0.0$ -->
      <g transform="translate(30.167899 267.804104)scale(0.08 -0.08)">
       <defs>
        <path d="M 2034 4250 
Q 1547 4250 1301 3770 
Q 1056 3291 1056 2328 
Q 1056 1369 1301 889 
Q 1547 409 2034 409 
Q 2525 409 2770 889 
Q 3016 1369 3016 2328 
Q 3016 3291 2770 3770 
Q 2525 4250 2034 4250 
z
M 2034 4750 
Q 2819 4750 3233 4129 
Q 3647 3509 3647 2328 
Q 3647 1150 3233 529 
Q 2819 -91 2034 -91 
Q 1250 -91 836 529 
Q 422 1150 422 2328 
Q 422 3509 836 4129 
Q 1250 4750 2034 4750 
z
" id="DejaVuSans-30" transform="scale(0.015625)"/>
        <path d="M 684 794 
L 1344 794 
L 1344 0 
L 684 0 
L 684 794 
z
" id="DejaVuSans-2e" transform="scale(0.015625)"/>
       </defs>
       <use transform="translate(0 0.78125)" xlink:href="#DejaVuSans-30"/>
       <use transform="translate(63.623047 0.78125)" xlink:href="#DejaVuSans-2e"/>
       <use transform="translate(95.410156 0.78125)" xlink:href="#DejaVuSans-30"/>
      </g>
     </g>
    </g>
    <g id="xtick_2">
     <g id="line2d_3">
      <g>
       <use style="stroke:#000000;stroke-width:0.5;" x="133.016424" xlink:href="#mc10b2a7b2b" y="258.225354"/>
      </g>
     </g>
     <g id="text_2">
      <!-- $0.5$ -->
      <g transform="translate(126.616424 267.804104)scale(0.08 -0.08)">
       <defs>
        <path d="M 691 4666 
L 3169 4666 
L 3169 4134 
L 1269 4134 
L 1269 2991 
Q 1406 3038 1543 3061 
Q 1681 3084 1819 3084 
Q 2600 3084 3056 2656 
Q 3513 2228 3513 1497 
Q 3513 744 3044 326 
Q 2575 -91 1722 -91 
Q 1428 -91 1123 -41 
Q 819 9 494 109 
L 494 744 
Q 775 591 1075 516 
Q 1375 441 1709 441 
Q 2250 441 2565 725 
Q 2881 1009 2881 1497 
Q 2881 1984 2565 2268 
Q 2250 2553 1709 2553 
Q 1456 2553 1204 2497 
Q 953 2441 691 2322 
L 691 4666 
z
" id="DejaVuSans-35" transform="scale(0.015625)"/>
       </defs>
       <use transform="translate(0 0.78125)" xlink:href="#DejaVuSans-30"/>
       <use transform="translate(63.623047 0.78125)" xlink:href="#DejaVuSans-2e"/>
       <use transform="translate(95.410156 0.78125)" xlink:href="#DejaVuSans-35"/>
      </g>
     </g>
    </g>
    <g id="xtick_3">
     <g id="line2d_4">
      <g>
       <use style="stroke:#000000;stroke-width:0.5;" x="229.464949" xlink:href="#mc10b2a7b2b" y="258.225354"/>
      </g>
     </g>
     <g id="text_3">
      <!-- $1.0$ -->
      <g transform="translate(223.064949 267.804104)scale(0.08 -0.08)">
       <defs>
        <path d="M 794 531 
L 1825 531 
L 1825 4091 
L 703 3866 
L 703 4441 
L 1819 4666 
L 2450 4666 
L 2450 531 
L 3481 531 
L 3481 0 
L 794 0 
L 794 531 
z
" id="DejaVuSans-31" transform="scale(0.015625)"/>
       </defs>
       <use transform="translate(0 0.78125)" xlink:href="#DejaVuSans-31"/>
       <use transform="translate(63.623047 0.78125)" xlink:href="#DejaVuSans-2e"/>
       <use transform="translate(95.410156 0.78125)" xlink:href="#DejaVuSans-30"/>
      </g>
     </g>
    </g>
    <g id="xtick_4">
     <g id="line2d_5">
      <g>
       <use style="stroke:#000000;stroke-width:0.5;" x="325.913474" xlink:href="#mc10b2a7b2b" y="258.225354"/>
      </g>
     </g>
     <g id="text_4">
      <!-- $1.5$ -->
      <g transform="translate(319.513474 267.804104)scale(0.08 -0.08)">
       <use transform="translate(0 0.09375)" xlink:href="#DejaVuSans-31"/>
       <use transform="translate(63.623047 0.09375)" xlink:href="#DejaVuSans-2e"/>
       <use transform="translate(95.410156 0.09375)" xlink:href="#DejaVuSans-35"/>
      </g>
     </g>
    </g>
    <g id="xtick_5">
     <g id="line2d_6">
      <g>
       <use style="stroke:#000000;stroke-width:0.5;" x="422.361999" xlink:href="#mc10b2a7b2b" y="258.225354"/>
      </g>
     </g>
     <g id="text_5">
      <!-- $2.0$ -->
      <g transform="translate(415.961999 267.804104)scale(0.08 -0.08)">
       <defs>
        <path d="M 1228 531 
L 3431 531 
L 3431 0 
L 469 0 
L 469 531 
Q 828 903 1448 1529 
Q 2069 2156 2228 2338 
Q 2531 2678 2651 2914 
Q 2772 3150 2772 3378 
Q 2772 3750 2511 3984 
Q 2250 4219 1831 4219 
Q 1534 4219 1204 4116 
Q 875 4013 500 3803 
L 500 4441 
Q 881 4594 1212 4672 
Q 1544 4750 1819 4750 
Q 2544 4750 2975 4387 
Q 3406 4025 3406 3419 
Q 3406 3131 3298 2873 
Q 3191 2616 2906 2266 
Q 2828 2175 2409 1742 
Q 1991 1309 1228 531 
z
" id="DejaVuSans-32" transform="scale(0.015625)"/>
       </defs>
       <use transform="translate(0 0.78125)" xlink:href="#DejaVuSans-32"/>
       <use transform="translate(63.623047 0.78125)" xlink:href="#DejaVuSans-2e"/>
       <use transform="translate(95.410156 0.78125)" xlink:href="#DejaVuSans-30"/>
      </g>
     </g>
    </g>
    <g id="text_6">
     <!-- Time (s) -->
     <g transform="translate(207.103152 281.826136)scale(0.11 -0.11)">
      <defs>
       <path d="M -19 4666 
L 3928 4666 
L 3928 4134 
L 2272 4134 
L 2272 0 
L 1638 0 
L 1638 4134 
L -19 4134 
L -19 4666 
z
" id="DejaVuSans-54" transform="scale(0.015625)"/>
       <path d="M 603 3500 
L 1178 3500 
L 1178 0 
L 603 0 
L 603 3500 
z
M 603 4863 
L 1178 4863 
L 1178 4134 
L 603 4134 
L 603 4863 
z
" id="DejaVuSans-69" transform="scale(0.015625)"/>
       <path d="M 3328 2828 
Q 3544 3216 3844 3400 
Q 4144 3584 4550 3584 
Q 5097 3584 5394 3201 
Q 5691 2819 5691 2113 
L 5691 0 
L 5113 0 
L 5113 2094 
Q 5113 2597 4934 2840 
Q 4756 3084 4391 3084 
Q 3944 3084 3684 2787 
Q 3425 2491 3425 1978 
L 3425 0 
L 2847 0 
L 2847 2094 
Q 2847 2600 2669 2842 
Q 2491 3084 2119 3084 
Q 1678 3084 1418 2786 
Q 1159 2488 1159 1978 
L 1159 0 
L 581 0 
L 581 3500 
L 1159 3500 
L 1159 2956 
Q 1356 3278 1631 3431 
Q 1906 3584 2284 3584 
Q 2666 3584 2933 3390 
Q 3200 3197 3328 2828 
z
" id="DejaVuSans-6d" transform="scale(0.015625)"/>
       <path d="M 3597 1894 
L 3597 1613 
L 953 1613 
Q 991 1019 1311 708 
Q 1631 397 2203 397 
Q 2534 397 2845 478 
Q 3156 559 3463 722 
L 3463 178 
Q 3153 47 2828 -22 
Q 2503 -91 2169 -91 
Q 1331 -91 842 396 
Q 353 884 353 1716 
Q 353 2575 817 3079 
Q 1281 3584 2069 3584 
Q 2775 3584 3186 3129 
Q 3597 2675 3597 1894 
z
M 3022 2063 
Q 3016 2534 2758 2815 
Q 2500 3097 2075 3097 
Q 1594 3097 1305 2825 
Q 1016 2553 972 2059 
L 3022 2063 
z
" id="DejaVuSans-65" transform="scale(0.015625)"/>
       <path id="DejaVuSans-20" transform="scale(0.015625)"/>
       <path d="M 1984 4856 
Q 1566 4138 1362 3434 
Q 1159 2731 1159 2009 
Q 1159 1288 1364 580 
Q 1569 -128 1984 -844 
L 1484 -844 
Q 1016 -109 783 600 
Q 550 1309 550 2009 
Q 550 2706 781 3412 
Q 1013 4119 1484 4856 
L 1984 4856 
z
" id="DejaVuSans-28" transform="scale(0.015625)"/>
       <path d="M 2834 3397 
L 2834 2853 
Q 2591 2978 2328 3040 
Q 2066 3103 1784 3103 
Q 1356 3103 1142 2972 
Q 928 2841 928 2578 
Q 928 2378 1081 2264 
Q 1234 2150 1697 2047 
L 1894 2003 
Q 2506 1872 2764 1633 
Q 3022 1394 3022 966 
Q 3022 478 2636 193 
Q 2250 -91 1575 -91 
Q 1294 -91 989 -36 
Q 684 19 347 128 
L 347 722 
Q 666 556 975 473 
Q 1284 391 1588 391 
Q 1994 391 2212 530 
Q 2431 669 2431 922 
Q 2431 1156 2273 1281 
Q 2116 1406 1581 1522 
L 1381 1569 
Q 847 1681 609 1914 
Q 372 2147 372 2553 
Q 372 3047 722 3315 
Q 1072 3584 1716 3584 
Q 2034 3584 2315 3537 
Q 2597 3491 2834 3397 
z
" id="DejaVuSans-73" transform="scale(0.015625)"/>
       <path d="M 513 4856 
L 1013 4856 
Q 1481 4119 1714 3412 
Q 1947 2706 1947 2009 
Q 1947 1309 1714 600 
Q 1481 -109 1013 -844 
L 513 -844 
Q 928 -128 1133 580 
Q 1338 1288 1338 2009 
Q 1338 2731 1133 3434 
Q 928 4138 513 4856 
z
" id="DejaVuSans-29" transform="scale(0.015625)"/>
      </defs>
      <use xlink:href="#DejaVuSans-54"/>
      <use x="57.958984" xlink:href="#DejaVuSans-69"/>
      <use x="85.742188" xlink:href="#DejaVuSans-6d"/>
      <use x="183.154297" xlink:href="#DejaVuSans-65"/>
      <use x="244.677734" xlink:href="#DejaVuSans-20"/>
      <use x="276.464844" xlink:href="#DejaVuSans-28"/>
      <use x="315.478516" xlink:href="#DejaVuSans-73"/>
      <use x="367.578125" xlink:href="#DejaVuSans-29"/>
     </g>
    </g>
   </g>
   <g id="matplotlib.axis_2">
    <g id="ytick_1">
     <g id="line2d_7">
      <defs>
       <path d="M 0 0 
L 2.5 0 
" id="m42cafac803" style="stroke:#000000;stroke-width:0.5;"/>
      </defs>
      <g>
       <use style="stroke:#000000;stroke-width:0.5;" x="36.567899" xlink:href="#m42cafac803" y="238.415198"/>
      </g>
     </g>
     <g id="text_7">
      <!-- $-3$ -->
      <g transform="translate(21.227899 241.454573)scale(0.08 -0.08)">
       <defs>
        <path d="M 678 2272 
L 4684 2272 
L 4684 1741 
L 678 1741 
L 678 2272 
z
" id="DejaVuSans-2212" transform="scale(0.015625)"/>
        <path d="M 2597 2516 
Q 3050 2419 3304 2112 
Q 3559 1806 3559 1356 
Q 3559 666 3084 287 
Q 2609 -91 1734 -91 
Q 1441 -91 1130 -33 
Q 819 25 488 141 
L 488 750 
Q 750 597 1062 519 
Q 1375 441 1716 441 
Q 2309 441 2620 675 
Q 2931 909 2931 1356 
Q 2931 1769 2642 2001 
Q 2353 2234 1838 2234 
L 1294 2234 
L 1294 2753 
L 1863 2753 
Q 2328 2753 2575 2939 
Q 2822 3125 2822 3475 
Q 2822 3834 2567 4026 
Q 2313 4219 1838 4219 
Q 1578 4219 1281 4162 
Q 984 4106 628 3988 
L 628 4550 
Q 988 4650 1302 4700 
Q 1616 4750 1894 4750 
Q 2613 4750 3031 4423 
Q 3450 4097 3450 3541 
Q 3450 3153 3228 2886 
Q 3006 2619 2597 2516 
z
" id="DejaVuSans-33" transform="scale(0.015625)"/>
       </defs>
       <use transform="translate(0 0.78125)" xlink:href="#DejaVuSans-2212"/>
       <use transform="translate(83.789062 0.78125)" xlink:href="#DejaVuSans-33"/>
      </g>
     </g>
    </g>
    <g id="ytick_2">
     <g id="line2d_8">
      <g>
       <use style="stroke:#000000;stroke-width:0.5;" x="36.567899" xlink:href="#m42cafac803" y="204.572977"/>
      </g>
     </g>
     <g id="text_8">
      <!-- $-2$ -->
      <g transform="translate(21.227899 207.612352)scale(0.08 -0.08)">
       <use transform="translate(0 0.78125)" xlink:href="#DejaVuSans-2212"/>
       <use transform="translate(83.789062 0.78125)" xlink:href="#DejaVuSans-32"/>
      </g>
     </g>
    </g>
    <g id="ytick_3">
     <g id="line2d_9">
      <g>
       <use style="stroke:#000000;stroke-width:0.5;" x="36.567899" xlink:href="#m42cafac803" y="170.730756"/>
      </g>
     </g>
     <g id="text_9">
      <!-- $-1$ -->
      <g transform="translate(21.227899 173.770131)scale(0.08 -0.08)">
       <use transform="translate(0 0.09375)" xlink:href="#DejaVuSans-2212"/>
       <use transform="translate(83.789062 0.09375)" xlink:href="#DejaVuSans-31"/>
      </g>
     </g>
    </g>
    <g id="ytick_4">
     <g id="line2d_10">
      <g>
       <use style="stroke:#000000;stroke-width:0.5;" x="36.567899" xlink:href="#m42cafac803" y="136.888536"/>
      </g>
     </g>
     <g id="text_10">
      <!-- $0$ -->
      <g transform="translate(27.947899 139.927911)scale(0.08 -0.08)">
       <use transform="translate(0 0.78125)" xlink:href="#DejaVuSans-30"/>
      </g>
     </g>
    </g>
    <g id="ytick_5">
     <g id="line2d_11">
      <g>
       <use style="stroke:#000000;stroke-width:0.5;" x="36.567899" xlink:href="#m42cafac803" y="103.046315"/>
      </g>
     </g>
     <g id="text_11">
      <!-- $1$ -->
      <g transform="translate(27.947899 106.08569)scale(0.08 -0.08)">
       <use transform="translate(0 0.09375)" xlink:href="#DejaVuSans-31"/>
      </g>
     </g>
    </g>
    <g id="ytick_6">
     <g id="line2d_12">
      <g>
       <use style="stroke:#000000;stroke-width:0.5;" x="36.567899" xlink:href="#m42cafac803" y="69.204094"/>
      </g>
     </g>
     <g id="text_12">
      <!-- $2$ -->
      <g transform="translate(27.947899 72.243469)scale(0.08 -0.08)">
       <use transform="translate(0 0.78125)" xlink:href="#DejaVuSans-32"/>
      </g>
     </g>
    </g>
    <g id="ytick_7">
     <g id="line2d_13">
      <g>
       <use style="stroke:#000000;stroke-width:0.5;" x="36.567899" xlink:href="#m42cafac803" y="35.361874"/>
      </g>
     </g>
     <g id="text_13">
      <!-- $3$ -->
      <g transform="translate(27.947899 38.401249)scale(0.08 -0.08)">
       <use transform="translate(0 0.78125)" xlink:href="#DejaVuSans-33"/>
      </g>
     </g>
    </g>
    <g id="text_14">
     <!-- Rodriguez Parameter $\theta_z$ (degree) -->
     <g transform="translate(14.917899 221.61)rotate(-90)scale(0.11 -0.11)">
      <defs>
       <path d="M 2841 2188 
Q 3044 2119 3236 1894 
Q 3428 1669 3622 1275 
L 4263 0 
L 3584 0 
L 2988 1197 
Q 2756 1666 2539 1819 
Q 2322 1972 1947 1972 
L 1259 1972 
L 1259 0 
L 628 0 
L 628 4666 
L 2053 4666 
Q 2853 4666 3247 4331 
Q 3641 3997 3641 3322 
Q 3641 2881 3436 2590 
Q 3231 2300 2841 2188 
z
M 1259 4147 
L 1259 2491 
L 2053 2491 
Q 2509 2491 2742 2702 
Q 2975 2913 2975 3322 
Q 2975 3731 2742 3939 
Q 2509 4147 2053 4147 
L 1259 4147 
z
" id="DejaVuSans-52" transform="scale(0.015625)"/>
       <path d="M 1959 3097 
Q 1497 3097 1228 2736 
Q 959 2375 959 1747 
Q 959 1119 1226 758 
Q 1494 397 1959 397 
Q 2419 397 2687 759 
Q 2956 1122 2956 1747 
Q 2956 2369 2687 2733 
Q 2419 3097 1959 3097 
z
M 1959 3584 
Q 2709 3584 3137 3096 
Q 3566 2609 3566 1747 
Q 3566 888 3137 398 
Q 2709 -91 1959 -91 
Q 1206 -91 779 398 
Q 353 888 353 1747 
Q 353 2609 779 3096 
Q 1206 3584 1959 3584 
z
" id="DejaVuSans-6f" transform="scale(0.015625)"/>
       <path d="M 2906 2969 
L 2906 4863 
L 3481 4863 
L 3481 0 
L 2906 0 
L 2906 525 
Q 2725 213 2448 61 
Q 2172 -91 1784 -91 
Q 1150 -91 751 415 
Q 353 922 353 1747 
Q 353 2572 751 3078 
Q 1150 3584 1784 3584 
Q 2172 3584 2448 3432 
Q 2725 3281 2906 2969 
z
M 947 1747 
Q 947 1113 1208 752 
Q 1469 391 1925 391 
Q 2381 391 2643 752 
Q 2906 1113 2906 1747 
Q 2906 2381 2643 2742 
Q 2381 3103 1925 3103 
Q 1469 3103 1208 2742 
Q 947 2381 947 1747 
z
" id="DejaVuSans-64" transform="scale(0.015625)"/>
       <path d="M 2631 2963 
Q 2534 3019 2420 3045 
Q 2306 3072 2169 3072 
Q 1681 3072 1420 2755 
Q 1159 2438 1159 1844 
L 1159 0 
L 581 0 
L 581 3500 
L 1159 3500 
L 1159 2956 
Q 1341 3275 1631 3429 
Q 1922 3584 2338 3584 
Q 2397 3584 2469 3576 
Q 2541 3569 2628 3553 
L 2631 2963 
z
" id="DejaVuSans-72" transform="scale(0.015625)"/>
       <path d="M 2906 1791 
Q 2906 2416 2648 2759 
Q 2391 3103 1925 3103 
Q 1463 3103 1205 2759 
Q 947 2416 947 1791 
Q 947 1169 1205 825 
Q 1463 481 1925 481 
Q 2391 481 2648 825 
Q 2906 1169 2906 1791 
z
M 3481 434 
Q 3481 -459 3084 -895 
Q 2688 -1331 1869 -1331 
Q 1566 -1331 1297 -1286 
Q 1028 -1241 775 -1147 
L 775 -588 
Q 1028 -725 1275 -790 
Q 1522 -856 1778 -856 
Q 2344 -856 2625 -561 
Q 2906 -266 2906 331 
L 2906 616 
Q 2728 306 2450 153 
Q 2172 0 1784 0 
Q 1141 0 747 490 
Q 353 981 353 1791 
Q 353 2603 747 3093 
Q 1141 3584 1784 3584 
Q 2172 3584 2450 3431 
Q 2728 3278 2906 2969 
L 2906 3500 
L 3481 3500 
L 3481 434 
z
" id="DejaVuSans-67" transform="scale(0.015625)"/>
       <path d="M 544 1381 
L 544 3500 
L 1119 3500 
L 1119 1403 
Q 1119 906 1312 657 
Q 1506 409 1894 409 
Q 2359 409 2629 706 
Q 2900 1003 2900 1516 
L 2900 3500 
L 3475 3500 
L 3475 0 
L 2900 0 
L 2900 538 
Q 2691 219 2414 64 
Q 2138 -91 1772 -91 
Q 1169 -91 856 284 
Q 544 659 544 1381 
z
M 1991 3584 
L 1991 3584 
z
" id="DejaVuSans-75" transform="scale(0.015625)"/>
       <path d="M 353 3500 
L 3084 3500 
L 3084 2975 
L 922 459 
L 3084 459 
L 3084 0 
L 275 0 
L 275 525 
L 2438 3041 
L 353 3041 
L 353 3500 
z
" id="DejaVuSans-7a" transform="scale(0.015625)"/>
       <path d="M 1259 4147 
L 1259 2394 
L 2053 2394 
Q 2494 2394 2734 2622 
Q 2975 2850 2975 3272 
Q 2975 3691 2734 3919 
Q 2494 4147 2053 4147 
L 1259 4147 
z
M 628 4666 
L 2053 4666 
Q 2838 4666 3239 4311 
Q 3641 3956 3641 3272 
Q 3641 2581 3239 2228 
Q 2838 1875 2053 1875 
L 1259 1875 
L 1259 0 
L 628 0 
L 628 4666 
z
" id="DejaVuSans-50" transform="scale(0.015625)"/>
       <path d="M 2194 1759 
Q 1497 1759 1228 1600 
Q 959 1441 959 1056 
Q 959 750 1161 570 
Q 1363 391 1709 391 
Q 2188 391 2477 730 
Q 2766 1069 2766 1631 
L 2766 1759 
L 2194 1759 
z
M 3341 1997 
L 3341 0 
L 2766 0 
L 2766 531 
Q 2569 213 2275 61 
Q 1981 -91 1556 -91 
Q 1019 -91 701 211 
Q 384 513 384 1019 
Q 384 1609 779 1909 
Q 1175 2209 1959 2209 
L 2766 2209 
L 2766 2266 
Q 2766 2663 2505 2880 
Q 2244 3097 1772 3097 
Q 1472 3097 1187 3025 
Q 903 2953 641 2809 
L 641 3341 
Q 956 3463 1253 3523 
Q 1550 3584 1831 3584 
Q 2591 3584 2966 3190 
Q 3341 2797 3341 1997 
z
" id="DejaVuSans-61" transform="scale(0.015625)"/>
       <path d="M 1172 4494 
L 1172 3500 
L 2356 3500 
L 2356 3053 
L 1172 3053 
L 1172 1153 
Q 1172 725 1289 603 
Q 1406 481 1766 481 
L 2356 481 
L 2356 0 
L 1766 0 
Q 1100 0 847 248 
Q 594 497 594 1153 
L 594 3053 
L 172 3053 
L 172 3500 
L 594 3500 
L 594 4494 
L 1172 4494 
z
" id="DejaVuSans-74" transform="scale(0.015625)"/>
       <path d="M 2913 2219 
L 925 2219 
Q 791 1284 928 888 
Q 1100 400 1566 400 
Q 2034 400 2391 891 
Q 2703 1322 2913 2219 
z
M 3009 2750 
Q 3094 3638 2984 3950 
Q 2813 4444 2353 4444 
Q 1875 4444 1525 3956 
Q 1250 3563 1034 2750 
L 3009 2750 
z
M 2444 4913 
Q 3194 4913 3494 4250 
Q 3794 3591 3566 2422 
Q 3341 1256 2781 594 
Q 2225 -72 1475 -72 
Q 722 -72 425 594 
Q 128 1256 353 2422 
Q 581 3591 1134 4250 
Q 1691 4913 2444 4913 
z
" id="DejaVuSans-Oblique-3b8" transform="scale(0.015625)"/>
       <path d="M 744 3500 
L 3475 3500 
L 3372 2975 
L 738 459 
L 2913 459 
L 2822 0 
L -19 0 
L 84 525 
L 2719 3041 
L 653 3041 
L 744 3500 
z
" id="DejaVuSans-Oblique-7a" transform="scale(0.015625)"/>
      </defs>
      <use transform="translate(0 0.234375)" xlink:href="#DejaVuSans-52"/>
      <use transform="translate(69.482422 0.234375)" xlink:href="#DejaVuSans-6f"/>
      <use transform="translate(130.664062 0.234375)" xlink:href="#DejaVuSans-64"/>
      <use transform="translate(194.140625 0.234375)" xlink:href="#DejaVuSans-72"/>
      <use transform="translate(235.253906 0.234375)" xlink:href="#DejaVuSans-69"/>
      <use transform="translate(263.037109 0.234375)" xlink:href="#DejaVuSans-67"/>
      <use transform="translate(326.513672 0.234375)" xlink:href="#DejaVuSans-75"/>
      <use transform="translate(389.892578 0.234375)" xlink:href="#DejaVuSans-65"/>
      <use transform="translate(451.416016 0.234375)" xlink:href="#DejaVuSans-7a"/>
      <use transform="translate(503.90625 0.234375)" xlink:href="#DejaVuSans-20"/>
      <use transform="translate(535.693359 0.234375)" xlink:href="#DejaVuSans-50"/>
      <use transform="translate(595.996094 0.234375)" xlink:href="#DejaVuSans-61"/>
      <use transform="translate(657.275391 0.234375)" xlink:href="#DejaVuSans-72"/>
      <use transform="translate(698.388672 0.234375)" xlink:href="#DejaVuSans-61"/>
      <use transform="translate(759.667969 0.234375)" xlink:href="#DejaVuSans-6d"/>
      <use transform="translate(857.080078 0.234375)" xlink:href="#DejaVuSans-65"/>
      <use transform="translate(918.603516 0.234375)" xlink:href="#DejaVuSans-74"/>
      <use transform="translate(957.8125 0.234375)" xlink:href="#DejaVuSans-65"/>
      <use transform="translate(1019.335938 0.234375)" xlink:href="#DejaVuSans-72"/>
      <use transform="translate(1060.449219 0.234375)" xlink:href="#DejaVuSans-20"/>
      <use transform="translate(1092.236328 0.234375)" xlink:href="#DejaVuSans-Oblique-3b8"/>
      <use transform="translate(1153.417969 -16.171875)scale(0.7)" xlink:href="#DejaVuSans-Oblique-7a"/>
      <use transform="translate(1192.895508 0.234375)" xlink:href="#DejaVuSans-20"/>
      <use transform="translate(1224.682617 0.234375)" xlink:href="#DejaVuSans-28"/>
      <use transform="translate(1263.696289 0.234375)" xlink:href="#DejaVuSans-64"/>
      <use transform="translate(1327.172852 0.234375)" xlink:href="#DejaVuSans-65"/>
      <use transform="translate(1388.696289 0.234375)" xlink:href="#DejaVuSans-67"/>
      <use transform="translate(1452.172852 0.234375)" xlink:href="#DejaVuSans-72"/>
      <use transform="translate(1493.286133 0.234375)" xlink:href="#DejaVuSans-65"/>
      <use transform="translate(1554.80957 0.234375)" xlink:href="#DejaVuSans-65"/>
      <use transform="translate(1616.333008 0.234375)" xlink:href="#DejaVuSans-29"/>
     </g>
    </g>
   </g>
   <g id="line2d_14">
    <path clip-path="url(#pffd52905cb)" d="M 36.567899 136.888536 
L 41.482906 136.783411 
L 45.851204 136.244901 
L 47.637233 135.861583 
L 49.824452 135.152854 
L 55.914346 132.601515 
L 57.296395 131.833499 
L 59.237003 130.453863 
L 61.372975 128.933659 
L 65.556769 126.415905 
L 68.376255 124.904325 
L 71.942694 123.7282 
L 73.554155 123.097643 
L 77.639516 121.452478 
L 78.534306 121.376427 
L 79.484327 121.532838 
L 80.48802 121.877959 
L 82.02515 122.705492 
L 86.27157 125.219166 
L 87.535053 125.505952 
L 88.229185 125.493273 
L 89.386072 125.193829 
L 92.862605 123.818955 
L 93.682805 123.738236 
L 94.590432 123.899447 
L 95.539939 124.378382 
L 96.552742 125.235246 
L 97.624642 126.506477 
L 98.718819 128.243588 
L 99.87415 130.60151 
L 101.299047 134.092729 
L 102.937476 138.770807 
L 104.966045 145.292166 
L 107.701405 154.979772 
L 109.34635 160.429217 
L 110.364924 163.197309 
L 111.058927 164.659712 
L 111.758879 165.641497 
L 112.458832 166.095484 
L 112.808808 166.112001 
L 113.158784 165.991948 
L 113.50876 165.725013 
L 114.208713 164.721086 
L 114.908665 163.151238 
L 115.608618 160.947275 
L 116.30857 158.098666 
L 117.358499 152.832529 
L 118.825303 144.09392 
L 121.585354 127.159988 
L 122.706625 121.637801 
L 123.837138 117.143101 
L 125.015112 113.387942 
L 126.388539 110.083602 
L 129.260486 104.274187 
L 130.628362 101.715868 
L 131.593392 100.231945 
L 132.580999 99.159458 
L 133.074803 98.858581 
L 133.568606 98.789944 
L 134.06241 98.955911 
L 134.556214 99.32319 
L 135.443925 100.507699 
L 136.372577 102.394724 
L 137.610778 105.623516 
L 141.568413 116.987388 
L 142.344515 118.247187 
L 142.806569 118.689906 
L 143.297816 118.888107 
L 143.796018 118.800584 
L 144.301942 118.45591 
L 144.839322 117.811713 
L 145.691391 116.325232 
L 147.30576 112.771114 
L 148.478877 110.399962 
L 149.324394 109.092712 
L 150.288321 107.98032 
L 151.096642 107.340734 
L 151.927556 106.92841 
L 152.792711 106.737166 
L 154.078792 106.735522 
L 155.173209 106.96401 
L 155.93567 107.354793 
L 156.705686 108.047052 
L 157.502628 109.123027 
L 158.299569 110.632954 
L 159.09651 112.714471 
L 159.81038 115.204104 
L 160.585328 118.594701 
L 161.786269 125.253987 
L 163.483579 136.621075 
L 165.970211 153.908082 
L 167.287302 161.520973 
L 168.645664 168.091322 
L 169.967709 173.346178 
L 171.152663 177.188943 
L 172.140124 179.748849 
L 172.756304 180.820249 
L 173.219983 181.229423 
L 173.610448 181.264213 
L 173.891671 181.097615 
L 174.330941 180.480741 
L 174.821575 179.235501 
L 175.346049 177.19698 
L 175.884183 174.274589 
L 176.454196 170.169425 
L 177.071769 164.464163 
L 177.977427 153.5697 
L 178.943514 139.04653 
L 182.566367 80.740651 
L 183.380036 72.82794 
L 183.931863 69.351388 
L 184.483689 67.355333 
L 184.760527 66.855514 
L 185.037366 66.651276 
L 185.317483 66.706987 
L 185.608131 67.001674 
L 186.191973 68.11811 
L 187.950702 72.340473 
L 188.244671 72.624332 
L 188.53864 72.659971 
L 188.841761 72.403241 
L 189.144882 71.809931 
L 189.448003 70.845809 
L 189.768938 69.411395 
L 190.523918 64.476782 
L 191.67955 54.09218 
L 192.84367 43.939962 
L 193.578909 39.625585 
L 194.017159 38.255122 
L 194.315786 37.912718 
L 194.46833 37.921599 
L 194.773418 38.340984 
L 195.078505 39.2869 
L 195.536137 41.662647 
L 196.036914 45.464029 
L 196.757289 52.72474 
L 198.135735 69.691682 
L 199.458779 85.158981 
L 200.839158 98.583203 
L 206.424859 147.812885 
L 207.071509 151.348832 
L 207.730516 153.807046 
L 208.171859 154.825888 
L 208.615209 155.373298 
L 209.060284 155.466059 
L 209.507084 155.147737 
L 209.956903 154.407581 
L 210.406722 153.236588 
L 211.086264 150.568009 
L 211.782108 146.652363 
L 212.507178 141.328398 
L 213.521281 131.942729 
L 215.962138 107.554179 
L 216.433531 104.630633 
L 216.922761 102.830503 
L 217.194073 102.411214 
L 217.476969 102.410228 
L 217.770691 102.853092 
L 218.072891 103.727325 
L 218.677292 106.470575 
L 220.494785 116.326089 
L 221.102047 118.095551 
L 221.405678 118.442936 
L 221.709309 118.399754 
L 222.01294 117.962254 
L 222.320322 117.143679 
L 222.935086 114.604743 
L 224.590898 106.602314 
L 224.946077 105.642332 
L 225.312782 105.136944 
L 225.689921 105.126806 
L 226.081839 105.631506 
L 226.477624 106.600493 
L 227.269194 109.609975 
L 228.456549 115.918223 
L 231.420322 134.098556 
L 233.780172 149.630476 
L 234.36697 151.772441 
L 234.766627 152.547346 
L 235.167207 152.853736 
L 235.56871 152.836616 
L 236.170963 152.514181 
L 237.560549 151.673073 
L 238.092857 151.528899 
L 238.510265 151.576225 
L 238.943499 151.832187 
L 239.558428 152.501552 
L 240.259643 153.343403 
L 240.640977 153.491787 
L 240.836736 153.413163 
L 241.23562 152.824201 
L 241.644664 151.572858 
L 242.273828 148.471271 
L 243.119574 142.672892 
L 244.334715 132.610512 
L 245.817757 117.988558 
L 246.942316 107.761495 
L 247.568006 103.732072 
L 248.238051 100.879217 
L 248.775009 99.461959 
L 249.532083 98.180489 
L 251.264948 95.792821 
L 251.650029 94.789294 
L 252.041782 93.209078 
L 252.441709 90.661941 
L 252.849093 86.773528 
L 253.487507 77.607256 
L 254.168333 64.083587 
L 256.06433 23.459723 
L 256.563628 16.394144 
L 257.108772 11.612307 
L 257.38415 10.431117 
L 257.667808 10.062685 
L 257.951466 10.55516 
L 258.235124 11.899792 
L 258.524388 14.110122 
L 259.131986 21.371578 
L 259.7908 32.594674 
L 262.444033 84.095743 
L 263.004038 89.659141 
L 263.28404 91.257527 
L 263.564042 92.077766 
L 263.844045 92.144292 
L 264.124047 91.518811 
L 264.40405 90.274721 
L 264.964054 86.203148 
L 265.677177 78.883155 
L 267.281703 61.596339 
L 267.795948 58.542154 
L 268.118847 57.702203 
L 268.288679 57.621157 
L 268.458512 57.798059 
L 268.808503 58.981771 
L 269.167434 61.318032 
L 269.655038 66.243898 
L 270.310119 75.629303 
L 271.144391 91.522647 
L 272.176471 115.849461 
L 275.131388 189.833636 
L 276.015388 206.521797 
L 276.687669 216.406061 
L 277.143005 221.200575 
L 277.598341 224.122959 
L 277.839734 224.812224 
L 278.087957 224.886098 
L 278.336179 224.309017 
L 278.590187 223.040225 
L 279.098203 218.605362 
L 279.613361 211.922188 
L 280.427958 198.295621 
L 282.758077 156.149358 
L 283.678195 143.959195 
L 284.291608 138.738291 
L 284.598314 137.161052 
L 284.90502 136.317786 
L 285.213622 136.174127 
L 285.522224 136.690179 
L 285.830826 137.771242 
L 286.44803 141.052872 
L 287.552695 147.273041 
L 287.903291 148.329071 
L 288.078589 148.546395 
L 288.259341 148.531648 
L 288.442926 148.234084 
L 288.822513 146.624559 
L 289.214518 143.51129 
L 289.804798 136.127004 
L 290.40947 125.481765 
L 291.468809 101.931762 
L 292.707607 75.463504 
L 293.246043 67.293354 
L 293.784479 62.34703 
L 294.168377 61.096439 
L 294.40851 61.286842 
L 294.648642 62.210593 
L 295.14108 66.161431 
L 295.645691 72.60172 
L 297.827962 104.695713 
L 298.22312 106.96567 
L 298.489803 107.503063 
L 298.623847 107.479956 
L 298.896428 106.843195 
L 299.175963 105.416602 
L 299.607553 101.869321 
L 300.390292 92.812552 
L 301.117698 84.86391 
L 301.499179 82.310939 
L 301.713437 81.602953 
L 301.927695 81.459036 
L 302.141953 81.898251 
L 302.356969 82.892512 
L 302.795961 86.417589 
L 303.6826 97.053859 
L 306.658672 136.126045 
L 308.069778 156.932466 
L 308.66669 162.636775 
L 309.082967 165.052081 
L 309.52828 166.405779 
L 309.772667 166.652158 
L 310.023504 166.534023 
L 310.276827 166.042724 
L 310.530151 165.140863 
L 311.036799 161.787327 
L 311.543447 156.18324 
L 312.279119 144.433266 
L 313.717085 119.402883 
L 314.15165 115.8879 
L 314.296827 115.513729 
L 314.442005 115.586268 
L 314.587183 116.10494 
L 314.899693 118.704426 
L 315.226178 123.452815 
L 315.723467 134.085066 
L 317.877013 186.825225 
L 318.223613 190.009704 
L 318.399775 190.658942 
L 318.575936 190.636566 
L 318.752098 189.959107 
L 319.129536 186.416026 
L 319.657562 177.304435 
L 320.205877 163.04023 
L 320.988808 134.863636 
L 322.596699 69.972433 
L 323.019477 59.77488 
L 323.491118 53.317354 
L 323.728432 51.709849 
L 323.965746 51.016937 
L 324.218028 51.297628 
L 324.470309 52.73067 
L 324.725536 55.460247 
L 325.235991 64.750633 
L 326.001672 85.730431 
L 327.022581 113.4444 
L 327.459617 120.716278 
L 327.757765 123.297969 
L 327.9964 123.836178 
L 328.115717 123.633419 
L 328.354353 122.286654 
L 328.712306 118.340807 
L 329.312746 108.39338 
L 330.027889 97.045404 
L 330.572352 91.444904 
L 331.021007 88.816423 
L 331.289788 88.15415 
L 331.405166 88.095907 
L 331.563954 88.236503 
L 331.832117 89.004278 
L 332.25801 91.403122 
L 332.808393 96.250673 
L 334.731642 114.722815 
L 335.13128 116.430444 
L 335.45528 117.102634 
L 335.673722 117.256811 
L 335.892165 117.153613 
L 336.110607 116.724557 
L 336.45764 115.304793 
L 336.945416 111.67434 
L 337.72927 105.194068 
L 338.008571 104.033582 
L 338.149595 103.878988 
L 338.295648 104.074828 
L 338.588288 105.484455 
L 339.028048 109.700823 
L 339.647784 118.949826 
L 342.165972 162.346593 
L 342.92038 175.389177 
L 345.251801 219.008053 
L 345.938114 226.303385 
L 346.796004 232.342532 
L 347.146494 234.196212 
L 347.512331 235.024878 
L 347.69525 234.86522 
L 347.890649 234.194888 
L 348.277231 231.350095 
L 348.867908 223.78132 
L 349.491593 212.53498 
L 350.608667 191.065715 
L 350.858274 188.574303 
L 351.10788 187.772289 
L 351.360001 188.868277 
L 351.612121 191.831341 
L 352.122867 202.32072 
L 353.454612 234.000777 
L 353.98921 242.775676 
L 354.466702 247.8669 
L 354.710976 249.240818 
L 354.955249 249.772046 
L 355.199523 249.519305 
L 355.443797 248.554543 
L 355.945591 244.633931 
L 356.447384 237.92892 
L 356.949178 227.997827 
L 357.701869 207.311361 
L 359.103705 167.036767 
L 359.536468 158.610194 
L 359.969232 154.26968 
L 360.185614 154.138094 
L 360.370269 155.189659 
L 360.642876 158.509168 
L 361.174244 168.58854 
L 361.861332 181.067951 
L 362.391945 187.085835 
L 362.685951 188.751206 
L 362.99184 189.32774 
L 363.150726 189.29823 
L 363.715683 188.918761 
L 363.976027 189.285396 
L 364.402264 190.793187 
L 365.2744 194.482818 
L 365.427618 194.760327 
L 365.599423 194.775954 
L 365.771227 194.403851 
L 365.961017 193.510382 
L 366.340597 190.145482 
L 366.909967 182.32562 
L 368.264122 159.221283 
L 369.704767 135.689242 
L 370.48978 121.669454 
L 371.678071 97.853832 
L 372.186149 92.745941 
L 372.537528 91.425654 
L 372.714398 91.320861 
L 372.892449 91.523725 
L 373.257512 92.763622 
L 373.848205 96.220725 
L 374.650921 102.018785 
L 375.059842 106.598611 
L 375.468763 113.572132 
L 376.377034 135.691303 
L 377.003497 149.680764 
L 377.474948 156.416589 
L 377.99236 160.512239 
L 378.395128 161.948076 
L 378.596511 162.187833 
L 378.797895 162.016549 
L 378.999279 161.367502 
L 379.402046 158.785918 
L 380.006197 152.892247 
L 380.610348 143.943209 
L 382.121744 116.8636 
L 382.600496 111.271463 
L 382.919664 109.383696 
L 383.127269 109.353248 
L 383.334874 110.355406 
L 383.64554 113.643146 
L 384.302372 124.525593 
L 384.902651 137.528717 
L 386.06932 165.333861 
L 386.848544 182.317085 
L 387.403102 194.435699 
L 387.808539 199.536667 
L 388.217128 201.825083 
L 388.421422 202.222327 
L 388.629759 202.176816 
L 388.838095 201.492854 
L 389.052145 199.889642 
L 389.480244 193.703363 
L 390.345995 179.414978 
L 390.77887 176.472398 
L 390.995307 175.873339 
L 391.211745 175.647813 
L 391.428182 175.761781 
L 391.64462 176.236937 
L 392.077495 178.453076 
L 394.542246 196.719851 
L 395.223531 203.303041 
L 396.478564 216.970108 
L 396.678774 217.744731 
L 396.878985 218.023828 
L 397.079196 217.805168 
L 397.279407 216.999544 
L 397.621857 214.017676 
L 398.137182 205.689336 
L 399.511381 180.375253 
L 400.806748 158.368209 
L 401.70795 138.633315 
L 403.279842 101.267244 
L 403.745241 96.733445 
L 404.068042 95.24545 
L 404.390842 94.697848 
L 404.875044 94.625344 
L 405.036444 94.273534 
L 405.359245 92.446267 
L 406.166247 85.277302 
L 407.134649 72.604227 
L 407.633007 70.093847 
L 407.806698 69.69534 
L 407.980388 69.639779 
L 408.34351 70.073302 
L 408.532941 69.950418 
L 408.722371 69.124074 
L 409.109593 64.984889 
L 410.481121 46.823688 
L 410.881055 44.000313 
L 411.081406 43.526913 
L 411.281756 43.609793 
L 411.482107 44.194348 
L 411.891511 46.653005 
L 412.51547 50.947906 
L 412.729103 51.519004 
L 412.920293 51.52369 
L 413.111483 51.059399 
L 413.302673 50.045229 
L 413.700843 46.235921 
L 414.535856 38.177351 
L 414.984905 35.859852 
L 415.658478 33.343846 
L 415.883003 33.335516 
L 416.107527 33.903101 
L 416.556754 36.147351 
L 418.144213 49.071649 
L 418.519011 53.997977 
L 419.124386 66.671433 
L 420.225641 90.790862 
L 420.79052 98.808921 
L 421.174464 101.569247 
L 421.366436 101.586904 
L 421.558409 100.615005 
L 421.942353 96.045181 
L 422.361999 88.161881 
L 422.361999 88.161881 
" style="fill:none;stroke:#e36f47;"/>
   </g>
   <g id="patch_3">
    <path d="M 36.567899 258.225354 
L 36.567899 2.834646 
" style="fill:none;stroke:#000000;stroke-linecap:square;stroke-linejoin:miter;"/>
   </g>
   <g id="patch_4">
    <path d="M 36.567899 258.225354 
L 422.361999 258.225354 
" style="fill:none;stroke:#000000;stroke-linecap:square;stroke-linejoin:miter;"/>
   </g>
   <g id="legend_1">
    <g id="patch_5">
     <path d="M 299.041999 39.119646 
L 418.361999 39.119646 
L 418.361999 6.834646 
L 299.041999 6.834646 
z
" style="fill:#ffffff;stroke:#000000;stroke-linejoin:miter;"/>
    </g>
    <g id="line2d_15">
     <path d="M 305.441999 16.513396 
L 321.441999 16.513396 
" style="fill:none;stroke:#009afa;stroke-linejoin:miter;"/>
    </g>
    <g id="line2d_16"/>
    <g id="text_15">
     <!-- GXBeam -->
     <g transform="translate(327.841999 19.313396)scale(0.08 -0.08)">
      <defs>
       <path d="M 3809 666 
L 3809 1919 
L 2778 1919 
L 2778 2438 
L 4434 2438 
L 4434 434 
Q 4069 175 3628 42 
Q 3188 -91 2688 -91 
Q 1594 -91 976 548 
Q 359 1188 359 2328 
Q 359 3472 976 4111 
Q 1594 4750 2688 4750 
Q 3144 4750 3555 4637 
Q 3966 4525 4313 4306 
L 4313 3634 
Q 3963 3931 3569 4081 
Q 3175 4231 2741 4231 
Q 1884 4231 1454 3753 
Q 1025 3275 1025 2328 
Q 1025 1384 1454 906 
Q 1884 428 2741 428 
Q 3075 428 3337 486 
Q 3600 544 3809 666 
z
" id="DejaVuSans-47" transform="scale(0.015625)"/>
       <path d="M 403 4666 
L 1081 4666 
L 2241 2931 
L 3406 4666 
L 4084 4666 
L 2584 2425 
L 4184 0 
L 3506 0 
L 2194 1984 
L 872 0 
L 191 0 
L 1856 2491 
L 403 4666 
z
" id="DejaVuSans-58" transform="scale(0.015625)"/>
       <path d="M 1259 2228 
L 1259 519 
L 2272 519 
Q 2781 519 3026 730 
Q 3272 941 3272 1375 
Q 3272 1813 3026 2020 
Q 2781 2228 2272 2228 
L 1259 2228 
z
M 1259 4147 
L 1259 2741 
L 2194 2741 
Q 2656 2741 2882 2914 
Q 3109 3088 3109 3444 
Q 3109 3797 2882 3972 
Q 2656 4147 2194 4147 
L 1259 4147 
z
M 628 4666 
L 2241 4666 
Q 2963 4666 3353 4366 
Q 3744 4066 3744 3513 
Q 3744 3084 3544 2831 
Q 3344 2578 2956 2516 
Q 3422 2416 3680 2098 
Q 3938 1781 3938 1306 
Q 3938 681 3513 340 
Q 3088 0 2303 0 
L 628 0 
L 628 4666 
z
" id="DejaVuSans-42" transform="scale(0.015625)"/>
      </defs>
      <use xlink:href="#DejaVuSans-47"/>
      <use x="77.490234" xlink:href="#DejaVuSans-58"/>
      <use x="145.996094" xlink:href="#DejaVuSans-42"/>
      <use x="214.599609" xlink:href="#DejaVuSans-65"/>
      <use x="276.123047" xlink:href="#DejaVuSans-61"/>
      <use x="337.402344" xlink:href="#DejaVuSans-6d"/>
     </g>
    </g>
    <g id="line2d_17">
     <path d="M 305.441999 28.255896 
L 321.441999 28.255896 
" style="fill:none;stroke:#e36f47;stroke-linejoin:miter;"/>
    </g>
    <g id="line2d_18"/>
    <g id="text_16">
     <!-- DifferentialEquations -->
     <g transform="translate(327.841999 31.055896)scale(0.08 -0.08)">
      <defs>
       <path d="M 1259 4147 
L 1259 519 
L 2022 519 
Q 2988 519 3436 956 
Q 3884 1394 3884 2338 
Q 3884 3275 3436 3711 
Q 2988 4147 2022 4147 
L 1259 4147 
z
M 628 4666 
L 1925 4666 
Q 3281 4666 3915 4102 
Q 4550 3538 4550 2338 
Q 4550 1131 3912 565 
Q 3275 0 1925 0 
L 628 0 
L 628 4666 
z
" id="DejaVuSans-44" transform="scale(0.015625)"/>
       <path d="M 2375 4863 
L 2375 4384 
L 1825 4384 
Q 1516 4384 1395 4259 
Q 1275 4134 1275 3809 
L 1275 3500 
L 2222 3500 
L 2222 3053 
L 1275 3053 
L 1275 0 
L 697 0 
L 697 3053 
L 147 3053 
L 147 3500 
L 697 3500 
L 697 3744 
Q 697 4328 969 4595 
Q 1241 4863 1831 4863 
L 2375 4863 
z
" id="DejaVuSans-66" transform="scale(0.015625)"/>
       <path d="M 3513 2113 
L 3513 0 
L 2938 0 
L 2938 2094 
Q 2938 2591 2744 2837 
Q 2550 3084 2163 3084 
Q 1697 3084 1428 2787 
Q 1159 2491 1159 1978 
L 1159 0 
L 581 0 
L 581 3500 
L 1159 3500 
L 1159 2956 
Q 1366 3272 1645 3428 
Q 1925 3584 2291 3584 
Q 2894 3584 3203 3211 
Q 3513 2838 3513 2113 
z
" id="DejaVuSans-6e" transform="scale(0.015625)"/>
       <path d="M 603 4863 
L 1178 4863 
L 1178 0 
L 603 0 
L 603 4863 
z
" id="DejaVuSans-6c" transform="scale(0.015625)"/>
       <path d="M 628 4666 
L 3578 4666 
L 3578 4134 
L 1259 4134 
L 1259 2753 
L 3481 2753 
L 3481 2222 
L 1259 2222 
L 1259 531 
L 3634 531 
L 3634 0 
L 628 0 
L 628 4666 
z
" id="DejaVuSans-45" transform="scale(0.015625)"/>
       <path d="M 947 1747 
Q 947 1113 1208 752 
Q 1469 391 1925 391 
Q 2381 391 2643 752 
Q 2906 1113 2906 1747 
Q 2906 2381 2643 2742 
Q 2381 3103 1925 3103 
Q 1469 3103 1208 2742 
Q 947 2381 947 1747 
z
M 2906 525 
Q 2725 213 2448 61 
Q 2172 -91 1784 -91 
Q 1150 -91 751 415 
Q 353 922 353 1747 
Q 353 2572 751 3078 
Q 1150 3584 1784 3584 
Q 2172 3584 2448 3432 
Q 2725 3281 2906 2969 
L 2906 3500 
L 3481 3500 
L 3481 -1331 
L 2906 -1331 
L 2906 525 
z
" id="DejaVuSans-71" transform="scale(0.015625)"/>
      </defs>
      <use xlink:href="#DejaVuSans-44"/>
      <use x="77.001953" xlink:href="#DejaVuSans-69"/>
      <use x="104.785156" xlink:href="#DejaVuSans-66"/>
      <use x="139.990234" xlink:href="#DejaVuSans-66"/>
      <use x="175.195312" xlink:href="#DejaVuSans-65"/>
      <use x="236.71875" xlink:href="#DejaVuSans-72"/>
      <use x="275.582031" xlink:href="#DejaVuSans-65"/>
      <use x="337.105469" xlink:href="#DejaVuSans-6e"/>
      <use x="400.484375" xlink:href="#DejaVuSans-74"/>
      <use x="439.693359" xlink:href="#DejaVuSans-69"/>
      <use x="467.476562" xlink:href="#DejaVuSans-61"/>
      <use x="528.755859" xlink:href="#DejaVuSans-6c"/>
      <use x="556.539062" xlink:href="#DejaVuSans-45"/>
      <use x="619.722656" xlink:href="#DejaVuSans-71"/>
      <use x="683.199219" xlink:href="#DejaVuSans-75"/>
      <use x="746.578125" xlink:href="#DejaVuSans-61"/>
      <use x="807.857422" xlink:href="#DejaVuSans-74"/>
      <use x="847.066406" xlink:href="#DejaVuSans-69"/>
      <use x="874.849609" xlink:href="#DejaVuSans-6f"/>
      <use x="936.03125" xlink:href="#DejaVuSans-6e"/>
      <use x="999.410156" xlink:href="#DejaVuSans-73"/>
     </g>
    </g>
   </g>
  </g>
 </g>
 <defs>
  <clipPath id="pffd52905cb">
   <rect height="255.390709" width="385.7941" x="36.567899" y="2.834646"/>
  </clipPath>
 </defs>
</svg>
