<?xml version="1.0" encoding="utf-8" standalone="no"?>
<!DOCTYPE svg PUBLIC "-//W3C//DTD SVG 1.1//EN"
  "http://www.w3.org/Graphics/SVG/1.1/DTD/svg11.dtd">
<svg height="288pt" version="1.1" viewBox="0 0 432 288" width="432pt" xmlns="http://www.w3.org/2000/svg" xmlns:xlink="http://www.w3.org/1999/xlink">
 <metadata>
  <rdf:RDF xmlns:cc="http://creativecommons.org/ns#" xmlns:dc="http://purl.org/dc/elements/1.1/" xmlns:rdf="http://www.w3.org/1999/02/22-rdf-syntax-ns#">
   <cc:Work>
    <dc:type rdf:resource="http://purl.org/dc/dcmitype/StillImage"/>
    <dc:date>2021-09-22T00:17:25.943662</dc:date>
    <dc:format>image/svg+xml</dc:format>
    <dc:creator>
     <cc:Agent>
      <dc:title>Matplotlib v3.4.2, https://matplotlib.org/</dc:title>
     </cc:Agent>
    </dc:creator>
   </cc:Work>
  </rdf:RDF>
 </metadata>
 <defs>
  <style type="text/css">*{stroke-linecap:butt;stroke-linejoin:round;}</style>
 </defs>
 <g id="figure_1">
  <g id="patch_1">
   <path d="M 0 288 
L 432 288 
L 432 0 
L 0 0 
z
" style="fill:#ffffff;"/>
  </g>
  <g id="axes_1">
   <g id="patch_2">
    <path d="M 29.556396 258.225354 
L 422.361999 258.225354 
L 422.361999 2.834646 
L 29.556396 2.834646 
z
" style="fill:#ffffff;"/>
   </g>
   <g id="line2d_1">
    <path clip-path="url(#pe6ad9b0873)" d="M 29.556396 250.997315 
L 31.127618 250.903383 
L 32.502438 250.572231 
L 33.680855 250.067157 
L 34.859271 249.301604 
L 36.037688 248.238358 
L 37.412508 246.67989 
L 38.590925 245.063499 
L 39.769341 243.11456 
L 41.144161 240.440961 
L 42.715383 236.941399 
L 44.483009 232.462766 
L 47.232648 224.838906 
L 49.982287 216.459102 
L 53.71394 204.281859 
L 56.46358 195.751029 
L 58.427608 190.308886 
L 60.195233 186.043159 
L 61.766455 182.781154 
L 63.141275 180.478343 
L 64.516094 178.668312 
L 65.694511 177.455438 
L 66.872928 176.554761 
L 68.247748 175.817889 
L 69.622567 175.334149 
L 70.800984 175.182553 
L 71.782998 175.273571 
L 72.961415 175.613688 
L 73.943429 176.09297 
L 75.121846 176.949045 
L 76.496665 178.302759 
L 78.067888 180.218215 
L 79.442707 182.272246 
L 81.210333 185.397812 
L 83.174361 189.30915 
L 86.906014 196.908069 
L 89.066445 200.682017 
L 90.637667 203.010126 
L 92.405292 205.262553 
L 93.583709 206.459517 
L 94.565723 207.191765 
L 95.547737 207.680325 
L 96.529751 207.920165 
L 97.315362 207.902619 
L 98.100973 207.680899 
L 99.082987 207.135325 
L 100.065002 206.306289 
L 101.047016 205.17801 
L 102.02903 203.702316 
L 103.207446 201.443521 
L 104.582266 198.205806 
L 105.957086 194.365582 
L 107.921114 188.074447 
L 112.634781 171.960853 
L 116.170031 160.411871 
L 118.134059 154.7417 
L 120.098087 149.775979 
L 121.66931 146.379291 
L 123.240532 143.468927 
L 124.418949 141.658068 
L 125.400963 140.498333 
L 126.186574 139.850511 
L 126.972185 139.455197 
L 127.757797 139.32798 
L 128.347005 139.419317 
L 129.132616 139.808274 
L 129.918227 140.491467 
L 130.900241 141.720355 
L 132.078658 143.650428 
L 133.257075 146.017431 
L 134.631895 149.281299 
L 136.595923 154.533498 
L 142.095201 169.660155 
L 144.059229 174.232792 
L 146.612466 179.527078 
L 148.380091 182.773475 
L 149.951313 185.200894 
L 151.522536 187.225229 
L 152.897355 188.624533 
L 154.075772 189.536187 
L 155.057786 190.078886 
L 155.843397 190.315986 
L 156.629008 190.308339 
L 157.41462 190.006651 
L 158.200231 189.377692 
L 158.985842 188.40178 
L 159.771453 187.06068 
L 160.753467 184.849902 
L 161.735481 182.075465 
L 163.110301 177.439824 
L 164.681523 171.346904 
L 166.645551 162.801182 
L 169.591593 148.839896 
L 172.14483 137.002017 
L 174.305261 128.131076 
L 178.822525 111.041858 
L 180.982956 103.341491 
L 182.357775 99.26901 
L 183.339789 96.973208 
L 184.321803 95.269505 
L 185.107415 94.324022 
L 185.893026 93.697689 
L 186.678637 93.350715 
L 187.464248 93.252421 
L 188.24986 93.395057 
L 189.035471 93.770843 
L 189.821082 94.373809 
L 190.803096 95.446679 
L 191.78511 96.913814 
L 192.767124 98.862452 
L 193.749138 101.332173 
L 195.123958 105.456529 
L 197.677194 113.977482 
L 199.444819 120.520595 
L 200.819639 126.490873 
L 201.998056 132.606261 
L 203.765681 143.179726 
L 207.300931 164.56599 
L 209.068556 173.80928 
L 211.228987 183.860561 
L 212.80021 190.170888 
L 214.567835 196.284357 
L 215.746252 199.684858 
L 216.728266 201.806089 
L 217.513877 202.984377 
L 218.299488 203.798052 
L 219.477905 204.65397 
L 221.834739 206.210798 
L 223.405961 207.650981 
L 224.191572 208.265166 
L 224.780781 208.473285 
L 225.173586 208.431923 
L 225.566392 208.221114 
L 226.1556 207.563447 
L 226.744809 206.494434 
L 227.53042 204.448203 
L 228.316031 201.682134 
L 229.101642 198.150224 
L 230.083656 192.69475 
L 231.654879 182.461427 
L 234.011712 165.824768 
L 236.368546 147.403152 
L 238.528977 128.872928 
L 240.689408 110.519348 
L 242.653436 95.79761 
L 244.617464 82.692764 
L 247.563506 64.668053 
L 248.741922 58.868667 
L 249.723936 55.09227 
L 251.098756 50.793369 
L 255.616021 37.323109 
L 256.794437 33.908447 
L 257.383646 32.716255 
L 257.972854 32.006577 
L 258.36566 31.817452 
L 258.758465 31.840269 
L 259.151271 32.054463 
L 259.740479 32.666545 
L 260.329688 33.578238 
L 261.115299 35.217332 
L 262.097313 37.92685 
L 263.27573 42.004663 
L 265.043355 48.988294 
L 266.418175 55.284249 
L 267.989397 63.819923 
L 271.72105 84.434627 
L 272.899467 89.66148 
L 278.00594 110.452825 
L 279.773565 117.828571 
L 280.755579 121.042588 
L 281.54119 122.929944 
L 282.523204 124.627383 
L 284.683635 127.992054 
L 285.469246 129.711945 
L 286.45126 132.499223 
L 287.629677 136.656996 
L 289.2009 142.191087 
L 289.790108 143.675874 
L 290.379316 144.604153 
L 290.772122 144.874262 
L 291.164928 144.846673 
L 291.557733 144.509627 
L 291.950539 143.85006 
L 292.539747 142.249875 
L 293.128956 139.911297 
L 293.914567 135.765195 
L 295.485789 125.648301 
L 296.860609 117.387915 
L 298.235429 110.492316 
L 301.181471 96.615068 
L 302.163485 90.311934 
L 305.109527 69.952913 
L 306.287943 64.095514 
L 307.269957 60.25186 
L 309.430388 52.629513 
L 310.019597 49.170561 
L 311.001611 41.702781 
L 312.965639 26.386628 
L 314.340458 17.605214 
L 315.126069 13.642144 
L 315.715278 11.553369 
L 316.108083 10.711523 
L 316.500889 10.351179 
L 316.697292 10.350257 
L 317.090097 10.680522 
L 317.679306 11.808833 
L 319.054125 14.991037 
L 319.643334 15.803511 
L 320.232542 16.187383 
L 320.821751 16.265233 
L 321.607362 16.082803 
L 322.589376 15.618299 
L 323.178584 15.133344 
L 323.767793 14.362066 
L 324.749807 12.902709 
L 325.142612 12.625779 
L 325.535418 12.700887 
L 325.928224 13.213382 
L 326.321029 14.19484 
L 326.910238 16.511356 
L 327.695849 20.822326 
L 329.070668 30.050218 
L 332.213113 51.211713 
L 333.587933 58.441294 
L 334.962752 65.948176 
L 336.92678 78.281605 
L 338.105197 86.660193 
L 340.265628 102.937624 
L 341.444045 109.342248 
L 343.800879 120.552642 
L 344.979295 124.750566 
L 345.961309 128.444394 
L 346.746921 132.394122 
L 348.318143 140.786493 
L 349.103754 143.600995 
L 350.282171 146.67235 
L 351.264185 148.908714 
L 351.656991 149.447446 
L 352.049796 149.651298 
L 352.442602 149.454612 
L 352.835407 148.842337 
L 353.424616 147.333134 
L 354.40663 144.682638 
L 354.799435 144.049329 
L 355.192241 143.789373 
L 355.585047 143.840366 
L 356.370658 144.064228 
L 356.763463 143.874071 
L 357.352672 143.181403 
L 358.138283 141.792296 
L 358.923894 140.491159 
L 359.3167 140.262852 
L 359.905908 140.3642 
L 360.298714 140.400078 
L 360.691519 140.146731 
L 361.084325 139.501855 
L 361.477131 138.454992 
L 362.066339 136.153355 
L 363.441159 129.989419 
L 364.030367 128.450402 
L 365.208784 125.927551 
L 365.797992 123.575747 
L 366.583604 118.966828 
L 367.565618 113.295464 
L 368.154826 111.064594 
L 369.333243 107.267921 
L 369.922451 103.919769 
L 370.904465 96.236861 
L 371.886479 89.19894 
L 372.868493 84.26391 
L 373.457702 80.995558 
L 374.04691 76.702548 
L 376.207341 58.938521 
L 376.796549 56.335238 
L 379.742591 46.138769 
L 380.135397 45.743652 
L 380.528202 45.781617 
L 380.921008 46.155787 
L 382.295828 48.092822 
L 382.688633 48.075506 
L 383.081439 47.671959 
L 383.670647 46.923865 
L 384.063453 46.702598 
L 384.652661 46.769385 
L 385.24187 47.026864 
L 385.634675 47.428177 
L 387.009495 49.456844 
L 387.795106 49.75042 
L 388.187912 50.192588 
L 388.77712 51.254976 
L 389.366329 52.711968 
L 389.955537 54.953819 
L 391.133954 60.19112 
L 392.705176 65.625201 
L 393.490787 69.296967 
L 394.276399 74.458027 
L 396.044024 87.090097 
L 397.418843 96.600943 
L 398.793663 108.526708 
L 399.579274 114.936774 
L 400.561288 120.506056 
L 401.739705 127.129241 
L 402.525316 133.548991 
L 404.096539 146.695263 
L 406.453372 162.429153 
L 407.631789 171.442822 
L 408.220998 174.864432 
L 410.381428 185.078819 
L 412.149054 197.24882 
L 412.934665 200.989761 
L 416.07711 212.441696 
L 416.469915 212.813653 
L 416.862721 212.612193 
L 417.451929 211.886537 
L 418.630346 210.133248 
L 419.023152 210.012229 
L 419.808763 210.077286 
L 420.201568 209.754676 
L 420.594374 209.060868 
L 421.183582 207.395931 
L 421.969194 204.175708 
L 422.361999 202.501649 
L 422.361999 202.501649 
" style="fill:none;stroke:#009afa;"/>
   </g>
   <g id="matplotlib.axis_1">
    <g id="xtick_1">
     <g id="line2d_2">
      <defs>
       <path d="M 0 0 
L 0 -2.5 
" id="mef2a49990f" style="stroke:#000000;stroke-width:0.5;"/>
      </defs>
      <g>
       <use style="stroke:#000000;stroke-width:0.5;" x="29.556396" xlink:href="#mef2a49990f" y="258.225354"/>
      </g>
     </g>
     <g id="text_1">
      <!-- $0.0$ -->
      <g transform="translate(23.156396 267.804104)scale(0.08 -0.08)">
       <defs>
        <path d="M 2034 4250 
Q 1547 4250 1301 3770 
Q 1056 3291 1056 2328 
Q 1056 1369 1301 889 
Q 1547 409 2034 409 
Q 2525 409 2770 889 
Q 3016 1369 3016 2328 
Q 3016 3291 2770 3770 
Q 2525 4250 2034 4250 
z
M 2034 4750 
Q 2819 4750 3233 4129 
Q 3647 3509 3647 2328 
Q 3647 1150 3233 529 
Q 2819 -91 2034 -91 
Q 1250 -91 836 529 
Q 422 1150 422 2328 
Q 422 3509 836 4129 
Q 1250 4750 2034 4750 
z
" id="DejaVuSans-30" transform="scale(0.015625)"/>
        <path d="M 684 794 
L 1344 794 
L 1344 0 
L 684 0 
L 684 794 
z
" id="DejaVuSans-2e" transform="scale(0.015625)"/>
       </defs>
       <use transform="translate(0 0.78125)" xlink:href="#DejaVuSans-30"/>
       <use transform="translate(63.623047 0.78125)" xlink:href="#DejaVuSans-2e"/>
       <use transform="translate(95.410156 0.78125)" xlink:href="#DejaVuSans-30"/>
      </g>
     </g>
    </g>
    <g id="xtick_2">
     <g id="line2d_3">
      <g>
       <use style="stroke:#000000;stroke-width:0.5;" x="127.757797" xlink:href="#mef2a49990f" y="258.225354"/>
      </g>
     </g>
     <g id="text_2">
      <!-- $0.5$ -->
      <g transform="translate(121.357797 267.804104)scale(0.08 -0.08)">
       <defs>
        <path d="M 691 4666 
L 3169 4666 
L 3169 4134 
L 1269 4134 
L 1269 2991 
Q 1406 3038 1543 3061 
Q 1681 3084 1819 3084 
Q 2600 3084 3056 2656 
Q 3513 2228 3513 1497 
Q 3513 744 3044 326 
Q 2575 -91 1722 -91 
Q 1428 -91 1123 -41 
Q 819 9 494 109 
L 494 744 
Q 775 591 1075 516 
Q 1375 441 1709 441 
Q 2250 441 2565 725 
Q 2881 1009 2881 1497 
Q 2881 1984 2565 2268 
Q 2250 2553 1709 2553 
Q 1456 2553 1204 2497 
Q 953 2441 691 2322 
L 691 4666 
z
" id="DejaVuSans-35" transform="scale(0.015625)"/>
       </defs>
       <use transform="translate(0 0.78125)" xlink:href="#DejaVuSans-30"/>
       <use transform="translate(63.623047 0.78125)" xlink:href="#DejaVuSans-2e"/>
       <use transform="translate(95.410156 0.78125)" xlink:href="#DejaVuSans-35"/>
      </g>
     </g>
    </g>
    <g id="xtick_3">
     <g id="line2d_4">
      <g>
       <use style="stroke:#000000;stroke-width:0.5;" x="225.959197" xlink:href="#mef2a49990f" y="258.225354"/>
      </g>
     </g>
     <g id="text_3">
      <!-- $1.0$ -->
      <g transform="translate(219.559197 267.804104)scale(0.08 -0.08)">
       <defs>
        <path d="M 794 531 
L 1825 531 
L 1825 4091 
L 703 3866 
L 703 4441 
L 1819 4666 
L 2450 4666 
L 2450 531 
L 3481 531 
L 3481 0 
L 794 0 
L 794 531 
z
" id="DejaVuSans-31" transform="scale(0.015625)"/>
       </defs>
       <use transform="translate(0 0.78125)" xlink:href="#DejaVuSans-31"/>
       <use transform="translate(63.623047 0.78125)" xlink:href="#DejaVuSans-2e"/>
       <use transform="translate(95.410156 0.78125)" xlink:href="#DejaVuSans-30"/>
      </g>
     </g>
    </g>
    <g id="xtick_4">
     <g id="line2d_5">
      <g>
       <use style="stroke:#000000;stroke-width:0.5;" x="324.160598" xlink:href="#mef2a49990f" y="258.225354"/>
      </g>
     </g>
     <g id="text_4">
      <!-- $1.5$ -->
      <g transform="translate(317.760598 267.804104)scale(0.08 -0.08)">
       <use transform="translate(0 0.09375)" xlink:href="#DejaVuSans-31"/>
       <use transform="translate(63.623047 0.09375)" xlink:href="#DejaVuSans-2e"/>
       <use transform="translate(95.410156 0.09375)" xlink:href="#DejaVuSans-35"/>
      </g>
     </g>
    </g>
    <g id="xtick_5">
     <g id="line2d_6">
      <g>
       <use style="stroke:#000000;stroke-width:0.5;" x="422.361999" xlink:href="#mef2a49990f" y="258.225354"/>
      </g>
     </g>
     <g id="text_5">
      <!-- $2.0$ -->
      <g transform="translate(415.961999 267.804104)scale(0.08 -0.08)">
       <defs>
        <path d="M 1228 531 
L 3431 531 
L 3431 0 
L 469 0 
L 469 531 
Q 828 903 1448 1529 
Q 2069 2156 2228 2338 
Q 2531 2678 2651 2914 
Q 2772 3150 2772 3378 
Q 2772 3750 2511 3984 
Q 2250 4219 1831 4219 
Q 1534 4219 1204 4116 
Q 875 4013 500 3803 
L 500 4441 
Q 881 4594 1212 4672 
Q 1544 4750 1819 4750 
Q 2544 4750 2975 4387 
Q 3406 4025 3406 3419 
Q 3406 3131 3298 2873 
Q 3191 2616 2906 2266 
Q 2828 2175 2409 1742 
Q 1991 1309 1228 531 
z
" id="DejaVuSans-32" transform="scale(0.015625)"/>
       </defs>
       <use transform="translate(0 0.78125)" xlink:href="#DejaVuSans-32"/>
       <use transform="translate(63.623047 0.78125)" xlink:href="#DejaVuSans-2e"/>
       <use transform="translate(95.410156 0.78125)" xlink:href="#DejaVuSans-30"/>
      </g>
     </g>
    </g>
    <g id="text_6">
     <!-- Time (s) -->
     <g transform="translate(203.597401 281.826136)scale(0.11 -0.11)">
      <defs>
       <path d="M -19 4666 
L 3928 4666 
L 3928 4134 
L 2272 4134 
L 2272 0 
L 1638 0 
L 1638 4134 
L -19 4134 
L -19 4666 
z
" id="DejaVuSans-54" transform="scale(0.015625)"/>
       <path d="M 603 3500 
L 1178 3500 
L 1178 0 
L 603 0 
L 603 3500 
z
M 603 4863 
L 1178 4863 
L 1178 4134 
L 603 4134 
L 603 4863 
z
" id="DejaVuSans-69" transform="scale(0.015625)"/>
       <path d="M 3328 2828 
Q 3544 3216 3844 3400 
Q 4144 3584 4550 3584 
Q 5097 3584 5394 3201 
Q 5691 2819 5691 2113 
L 5691 0 
L 5113 0 
L 5113 2094 
Q 5113 2597 4934 2840 
Q 4756 3084 4391 3084 
Q 3944 3084 3684 2787 
Q 3425 2491 3425 1978 
L 3425 0 
L 2847 0 
L 2847 2094 
Q 2847 2600 2669 2842 
Q 2491 3084 2119 3084 
Q 1678 3084 1418 2786 
Q 1159 2488 1159 1978 
L 1159 0 
L 581 0 
L 581 3500 
L 1159 3500 
L 1159 2956 
Q 1356 3278 1631 3431 
Q 1906 3584 2284 3584 
Q 2666 3584 2933 3390 
Q 3200 3197 3328 2828 
z
" id="DejaVuSans-6d" transform="scale(0.015625)"/>
       <path d="M 3597 1894 
L 3597 1613 
L 953 1613 
Q 991 1019 1311 708 
Q 1631 397 2203 397 
Q 2534 397 2845 478 
Q 3156 559 3463 722 
L 3463 178 
Q 3153 47 2828 -22 
Q 2503 -91 2169 -91 
Q 1331 -91 842 396 
Q 353 884 353 1716 
Q 353 2575 817 3079 
Q 1281 3584 2069 3584 
Q 2775 3584 3186 3129 
Q 3597 2675 3597 1894 
z
M 3022 2063 
Q 3016 2534 2758 2815 
Q 2500 3097 2075 3097 
Q 1594 3097 1305 2825 
Q 1016 2553 972 2059 
L 3022 2063 
z
" id="DejaVuSans-65" transform="scale(0.015625)"/>
       <path id="DejaVuSans-20" transform="scale(0.015625)"/>
       <path d="M 1984 4856 
Q 1566 4138 1362 3434 
Q 1159 2731 1159 2009 
Q 1159 1288 1364 580 
Q 1569 -128 1984 -844 
L 1484 -844 
Q 1016 -109 783 600 
Q 550 1309 550 2009 
Q 550 2706 781 3412 
Q 1013 4119 1484 4856 
L 1984 4856 
z
" id="DejaVuSans-28" transform="scale(0.015625)"/>
       <path d="M 2834 3397 
L 2834 2853 
Q 2591 2978 2328 3040 
Q 2066 3103 1784 3103 
Q 1356 3103 1142 2972 
Q 928 2841 928 2578 
Q 928 2378 1081 2264 
Q 1234 2150 1697 2047 
L 1894 2003 
Q 2506 1872 2764 1633 
Q 3022 1394 3022 966 
Q 3022 478 2636 193 
Q 2250 -91 1575 -91 
Q 1294 -91 989 -36 
Q 684 19 347 128 
L 347 722 
Q 666 556 975 473 
Q 1284 391 1588 391 
Q 1994 391 2212 530 
Q 2431 669 2431 922 
Q 2431 1156 2273 1281 
Q 2116 1406 1581 1522 
L 1381 1569 
Q 847 1681 609 1914 
Q 372 2147 372 2553 
Q 372 3047 722 3315 
Q 1072 3584 1716 3584 
Q 2034 3584 2315 3537 
Q 2597 3491 2834 3397 
z
" id="DejaVuSans-73" transform="scale(0.015625)"/>
       <path d="M 513 4856 
L 1013 4856 
Q 1481 4119 1714 3412 
Q 1947 2706 1947 2009 
Q 1947 1309 1714 600 
Q 1481 -109 1013 -844 
L 513 -844 
Q 928 -128 1133 580 
Q 1338 1288 1338 2009 
Q 1338 2731 1133 3434 
Q 928 4138 513 4856 
z
" id="DejaVuSans-29" transform="scale(0.015625)"/>
      </defs>
      <use xlink:href="#DejaVuSans-54"/>
      <use x="57.958984" xlink:href="#DejaVuSans-69"/>
      <use x="85.742188" xlink:href="#DejaVuSans-6d"/>
      <use x="183.154297" xlink:href="#DejaVuSans-65"/>
      <use x="244.677734" xlink:href="#DejaVuSans-20"/>
      <use x="276.464844" xlink:href="#DejaVuSans-28"/>
      <use x="315.478516" xlink:href="#DejaVuSans-73"/>
      <use x="367.578125" xlink:href="#DejaVuSans-29"/>
     </g>
    </g>
   </g>
   <g id="matplotlib.axis_2">
    <g id="ytick_1">
     <g id="line2d_7">
      <defs>
       <path d="M 0 0 
L 2.5 0 
" id="md6d48f58db" style="stroke:#000000;stroke-width:0.5;"/>
      </defs>
      <g>
       <use style="stroke:#000000;stroke-width:0.5;" x="29.556396" xlink:href="#md6d48f58db" y="250.997315"/>
      </g>
     </g>
     <g id="text_7">
      <!-- $0$ -->
      <g transform="translate(20.936396 254.03669)scale(0.08 -0.08)">
       <use transform="translate(0 0.78125)" xlink:href="#DejaVuSans-30"/>
      </g>
     </g>
    </g>
    <g id="ytick_2">
     <g id="line2d_8">
      <g>
       <use style="stroke:#000000;stroke-width:0.5;" x="29.556396" xlink:href="#md6d48f58db" y="188.810109"/>
      </g>
     </g>
     <g id="text_8">
      <!-- $1$ -->
      <g transform="translate(20.936396 191.849484)scale(0.08 -0.08)">
       <use transform="translate(0 0.09375)" xlink:href="#DejaVuSans-31"/>
      </g>
     </g>
    </g>
    <g id="ytick_3">
     <g id="line2d_9">
      <g>
       <use style="stroke:#000000;stroke-width:0.5;" x="29.556396" xlink:href="#md6d48f58db" y="126.622902"/>
      </g>
     </g>
     <g id="text_9">
      <!-- $2$ -->
      <g transform="translate(20.936396 129.662277)scale(0.08 -0.08)">
       <use transform="translate(0 0.78125)" xlink:href="#DejaVuSans-32"/>
      </g>
     </g>
    </g>
    <g id="ytick_4">
     <g id="line2d_10">
      <g>
       <use style="stroke:#000000;stroke-width:0.5;" x="29.556396" xlink:href="#md6d48f58db" y="64.435696"/>
      </g>
     </g>
     <g id="text_10">
      <!-- $3$ -->
      <g transform="translate(20.936396 67.475071)scale(0.08 -0.08)">
       <defs>
        <path d="M 2597 2516 
Q 3050 2419 3304 2112 
Q 3559 1806 3559 1356 
Q 3559 666 3084 287 
Q 2609 -91 1734 -91 
Q 1441 -91 1130 -33 
Q 819 25 488 141 
L 488 750 
Q 750 597 1062 519 
Q 1375 441 1716 441 
Q 2309 441 2620 675 
Q 2931 909 2931 1356 
Q 2931 1769 2642 2001 
Q 2353 2234 1838 2234 
L 1294 2234 
L 1294 2753 
L 1863 2753 
Q 2328 2753 2575 2939 
Q 2822 3125 2822 3475 
Q 2822 3834 2567 4026 
Q 2313 4219 1838 4219 
Q 1578 4219 1281 4162 
Q 984 4106 628 3988 
L 628 4550 
Q 988 4650 1302 4700 
Q 1616 4750 1894 4750 
Q 2613 4750 3031 4423 
Q 3450 4097 3450 3541 
Q 3450 3153 3228 2886 
Q 3006 2619 2597 2516 
z
" id="DejaVuSans-33" transform="scale(0.015625)"/>
       </defs>
       <use transform="translate(0 0.78125)" xlink:href="#DejaVuSans-33"/>
      </g>
     </g>
    </g>
    <g id="text_11">
     <!-- $u_z$ ($m$) -->
     <g transform="translate(14.648739 147.635)rotate(-90)scale(0.11 -0.11)">
      <defs>
       <path d="M 428 1388 
L 838 3500 
L 1416 3500 
L 1006 1409 
Q 975 1256 961 1147 
Q 947 1038 947 966 
Q 947 700 1109 554 
Q 1272 409 1569 409 
Q 2031 409 2368 721 
Q 2706 1034 2809 1563 
L 3194 3500 
L 3769 3500 
L 3091 0 
L 2516 0 
L 2631 550 
Q 2388 244 2052 76 
Q 1716 -91 1338 -91 
Q 878 -91 622 161 
Q 366 413 366 863 
Q 366 956 381 1097 
Q 397 1238 428 1388 
z
" id="DejaVuSans-Oblique-75" transform="scale(0.015625)"/>
       <path d="M 744 3500 
L 3475 3500 
L 3372 2975 
L 738 459 
L 2913 459 
L 2822 0 
L -19 0 
L 84 525 
L 2719 3041 
L 653 3041 
L 744 3500 
z
" id="DejaVuSans-Oblique-7a" transform="scale(0.015625)"/>
       <path d="M 5747 2113 
L 5338 0 
L 4763 0 
L 5166 2094 
Q 5191 2228 5203 2325 
Q 5216 2422 5216 2491 
Q 5216 2772 5059 2928 
Q 4903 3084 4622 3084 
Q 4203 3084 3875 2770 
Q 3547 2456 3450 1953 
L 3066 0 
L 2491 0 
L 2900 2094 
Q 2925 2209 2937 2307 
Q 2950 2406 2950 2484 
Q 2950 2769 2794 2926 
Q 2638 3084 2363 3084 
Q 1938 3084 1609 2770 
Q 1281 2456 1184 1953 
L 800 0 
L 225 0 
L 909 3500 
L 1484 3500 
L 1375 2956 
Q 1609 3263 1923 3423 
Q 2238 3584 2597 3584 
Q 2978 3584 3223 3384 
Q 3469 3184 3519 2828 
Q 3781 3197 4126 3390 
Q 4472 3584 4856 3584 
Q 5306 3584 5551 3325 
Q 5797 3066 5797 2591 
Q 5797 2488 5784 2364 
Q 5772 2241 5747 2113 
z
" id="DejaVuSans-Oblique-6d" transform="scale(0.015625)"/>
      </defs>
      <use transform="translate(0 0.125)" xlink:href="#DejaVuSans-Oblique-75"/>
      <use transform="translate(63.378906 -16.28125)scale(0.7)" xlink:href="#DejaVuSans-Oblique-7a"/>
      <use transform="translate(102.856445 0.125)" xlink:href="#DejaVuSans-20"/>
      <use transform="translate(134.643555 0.125)" xlink:href="#DejaVuSans-28"/>
      <use transform="translate(173.657227 0.125)" xlink:href="#DejaVuSans-Oblique-6d"/>
      <use transform="translate(271.069336 0.125)" xlink:href="#DejaVuSans-29"/>
     </g>
    </g>
   </g>
   <g id="line2d_11">
    <path clip-path="url(#pe6ad9b0873)" d="M 29.556396 250.997315 
L 31.226411 250.887919 
L 32.519918 250.565 
L 33.766784 250.020087 
L 34.921207 249.253082 
L 36.168718 248.10291 
L 37.57327 246.476299 
L 38.90686 244.575028 
L 40.1671 242.380548 
L 41.72715 239.198316 
L 43.328414 235.44532 
L 45.572901 229.519668 
L 48.022623 222.502956 
L 50.943884 213.391464 
L 56.584422 195.388969 
L 58.504826 190.115903 
L 60.389434 185.601222 
L 61.764701 182.780966 
L 63.063347 180.597239 
L 64.36622 178.841721 
L 65.574099 177.562812 
L 66.667931 176.696692 
L 68.071075 175.894979 
L 69.321353 175.405746 
L 70.533568 175.18954 
L 71.58949 175.239598 
L 72.749522 175.524321 
L 73.761198 175.981596 
L 74.796419 176.686599 
L 76.10064 177.883408 
L 77.404862 179.352422 
L 78.763986 181.209982 
L 80.163391 183.496177 
L 81.921003 186.755255 
L 84.772926 192.689556 
L 87.152583 197.36323 
L 88.952829 200.492646 
L 90.631416 202.994055 
L 92.461726 205.332428 
L 93.650489 206.507007 
L 94.738585 207.284913 
L 95.82668 207.776008 
L 96.839559 207.931169 
L 97.717445 207.795816 
L 98.602174 207.418321 
L 99.498165 206.812596 
L 100.409443 205.952783 
L 101.340032 204.772616 
L 102.30403 203.201653 
L 103.319161 201.189686 
L 104.694623 197.90564 
L 106.113913 193.862727 
L 108.251933 186.965117 
L 116.975213 158.067009 
L 118.99572 152.53722 
L 120.634995 148.646405 
L 122.191716 145.443828 
L 123.487475 143.125842 
L 124.846543 141.20252 
L 125.806124 140.238349 
L 126.81168 139.613416 
L 127.817236 139.433572 
L 128.320014 139.527701 
L 129.325571 140.090985 
L 130.229416 140.992495 
L 131.174945 142.268019 
L 132.43565 144.463108 
L 133.696355 147.178034 
L 135.510992 151.724737 
L 137.72587 157.944465 
L 140.879702 166.745323 
L 142.87752 171.720785 
L 145.086759 176.604256 
L 147.295068 181.041079 
L 148.84976 183.727662 
L 150.317263 185.911071 
L 151.877592 187.796251 
L 153.500443 189.292747 
L 154.67529 190.085597 
L 155.4261 190.39759 
L 156.235333 190.504613 
L 157.050511 190.326546 
L 157.865688 189.828206 
L 158.778668 188.844911 
L 159.691647 187.35127 
L 160.604627 185.335194 
L 161.848962 181.842972 
L 163.256909 177.060825 
L 164.793264 171.032834 
L 166.989294 161.396653 
L 170.150077 146.287681 
L 172.400407 136.044384 
L 174.519575 127.441168 
L 179.879511 107.28068 
L 181.602543 101.541602 
L 182.792526 98.349807 
L 183.690461 96.494832 
L 184.597715 95.109289 
L 185.541743 94.134311 
L 186.310444 93.658604 
L 187.091987 93.446428 
L 187.882171 93.491745 
L 188.672356 93.773027 
L 189.718434 94.487274 
L 190.637175 95.435568 
L 191.579531 96.784006 
L 192.469002 98.465116 
L 193.442992 100.784116 
L 194.721919 104.464346 
L 196.813156 111.32429 
L 199.024115 119.225834 
L 200.326821 124.612156 
L 201.63089 131.048358 
L 203.158774 139.866328 
L 207.717554 167.104414 
L 209.725766 177.193338 
L 211.491044 185.06006 
L 213.189065 191.608191 
L 214.66779 196.572816 
L 215.89856 199.968568 
L 216.826008 201.853399 
L 217.753455 203.137236 
L 218.684722 203.979645 
L 220.301119 204.976247 
L 221.731568 205.943176 
L 223.320558 207.433964 
L 224.126514 208.091183 
L 224.529492 208.277352 
L 224.93247 208.325228 
L 225.335448 208.210306 
L 226.044785 207.568046 
L 226.668433 206.523683 
L 227.353123 204.860682 
L 228.155901 202.19227 
L 229.052222 198.235218 
L 230.16665 191.965131 
L 231.96949 180.111054 
L 234.201928 164.118303 
L 236.764389 143.930337 
L 242.303872 98.25687 
L 244.228154 85.345822 
L 247.567275 64.810005 
L 248.743514 59.071416 
L 249.76833 55.126222 
L 251.111546 50.865369 
L 257.179619 33.345874 
L 257.557925 32.763578 
L 257.944263 32.373887 
L 258.3306 32.192189 
L 258.984748 32.326603 
L 259.53765 32.812783 
L 260.107833 33.622697 
L 260.963106 35.377665 
L 261.81838 37.709093 
L 263.011075 41.714595 
L 264.826359 48.702731 
L 266.017789 54.030644 
L 267.546696 62.04865 
L 272.231531 87.543748 
L 273.808347 93.892121 
L 276.494496 104.54837 
L 280.220886 119.842421 
L 281.157727 122.366562 
L 282.094568 124.189647 
L 283.34948 126.021077 
L 284.606322 127.912209 
L 285.45961 129.685941 
L 286.195973 131.688338 
L 287.395675 135.783563 
L 289.089928 141.653065 
L 289.818725 143.430821 
L 290.351241 144.243532 
L 290.716722 144.516492 
L 291.082203 144.535378 
L 291.447685 144.283377 
L 291.838559 143.688427 
L 292.327553 142.448011 
L 292.828941 140.606936 
L 293.599613 136.768704 
L 294.772643 129.424236 
L 296.652539 117.71799 
L 298.003989 110.724987 
L 299.738897 103.165293 
L 300.848631 97.778263 
L 301.751384 92.265128 
L 303.430685 80.098579 
L 304.730167 71.456729 
L 305.7954 65.691196 
L 306.805644 61.285299 
L 307.726445 58.246049 
L 308.755624 55.033216 
L 309.271479 52.799917 
L 310.047837 48.088205 
L 311.302062 38.205961 
L 312.946651 25.768835 
L 314.296942 17.12264 
L 315.199866 12.674377 
L 315.804981 10.796234 
L 316.151617 10.230517 
L 316.510343 10.062685 
L 316.86907 10.287426 
L 317.253368 10.880381 
L 318.150867 12.947864 
L 318.946845 14.633248 
L 319.548457 15.426765 
L 320.157627 15.805866 
L 320.783544 15.892713 
L 321.935845 15.715869 
L 322.434338 15.525553 
L 322.951071 15.128399 
L 323.470802 14.458762 
L 324.770131 12.485139 
L 325.029997 12.328516 
L 325.289862 12.328823 
L 325.734841 12.741218 
L 326.159893 13.670708 
L 326.645838 15.378715 
L 327.377108 19.029176 
L 328.499489 26.157395 
L 332.959169 55.394693 
L 335.01844 66.571227 
L 337.215018 80.456693 
L 338.302268 88.699699 
L 339.861762 100.745999 
L 340.861138 106.682002 
L 342.80376 116.514692 
L 343.850384 121.053183 
L 344.898562 124.675448 
L 345.601082 127.223603 
L 346.338241 130.775556 
L 348.167231 140.577639 
L 349.065898 143.749251 
L 350.583001 148.095962 
L 351.116065 149.333943 
L 351.65796 150.052911 
L 351.930117 150.119854 
L 352.202274 149.968215 
L 352.474431 149.604061 
L 352.989674 148.421054 
L 354.227611 145.018173 
L 354.738525 144.406801 
L 355.249438 144.35326 
L 356.015809 144.511433 
L 356.271265 144.420009 
L 356.782179 143.867695 
L 357.513407 142.478359 
L 358.394664 140.917297 
L 358.835293 140.54856 
L 359.318392 140.568395 
L 360.143553 140.857633 
L 360.421348 140.711731 
L 360.76178 140.253953 
L 361.158151 139.306382 
L 361.601386 137.702607 
L 363.348891 130.24267 
L 363.934479 129.142053 
L 364.567808 128.122593 
L 364.935974 127.165392 
L 365.515692 124.697186 
L 366.490585 118.727593 
L 367.280935 114.417993 
L 367.80633 112.575647 
L 368.944751 109.313827 
L 369.547044 106.13255 
L 370.412056 99.468032 
L 371.274242 92.897694 
L 371.993379 89.039022 
L 372.966505 84.324326 
L 373.575634 80.043348 
L 375.860218 61.128171 
L 376.498066 58.310353 
L 377.801108 53.146803 
L 378.826326 48.670084 
L 379.236414 47.518775 
L 379.646501 46.920716 
L 380.056589 46.845027 
L 380.42089 47.149835 
L 381.715378 48.80552 
L 382.040346 48.793367 
L 382.414209 48.485969 
L 383.441321 47.336138 
L 383.949363 47.083241 
L 384.450004 47.098575 
L 384.83518 47.422836 
L 385.409729 48.383372 
L 385.863979 49.069 
L 386.203115 49.321167 
L 387.388565 49.699588 
L 388.016702 50.255182 
L 388.446764 50.932156 
L 388.882644 52.140475 
L 391.306727 60.717166 
L 392.196873 63.202364 
L 392.654939 64.996501 
L 393.34381 68.775336 
L 396.619701 90.586695 
L 397.522018 98.284012 
L 398.921193 110.78066 
L 399.652324 115.631594 
L 401.203487 124.399613 
L 402.035921 131.075017 
L 403.406896 142.68742 
L 404.392898 148.964016 
L 405.214567 154.438059 
L 406.200569 162.692386 
L 407.022238 169.36033 
L 407.719014 173.729988 
L 408.474482 176.947758 
L 409.46013 181.491357 
L 410.061594 185.324204 
L 411.284374 193.719323 
L 412.336517 199.214818 
L 413.961256 206.987326 
L 414.850832 211.275312 
L 415.308042 212.903426 
L 415.765252 213.806563 
L 415.993857 213.965683 
L 416.451248 213.890905 
L 416.917801 213.464091 
L 417.876753 212.457531 
L 418.258363 212.488097 
L 419.065545 212.99266 
L 419.452496 212.873668 
L 419.81548 212.336035 
L 420.376656 210.985108 
L 420.95742 208.880515 
L 421.934726 204.793677 
L 422.361999 203.788017 
L 422.361999 203.788017 
" style="fill:none;stroke:#e36f47;"/>
   </g>
   <g id="patch_3">
    <path d="M 29.556396 258.225354 
L 29.556396 2.834646 
" style="fill:none;stroke:#000000;stroke-linecap:square;stroke-linejoin:miter;"/>
   </g>
   <g id="patch_4">
    <path d="M 29.556396 258.225354 
L 422.361999 258.225354 
" style="fill:none;stroke:#000000;stroke-linecap:square;stroke-linejoin:miter;"/>
   </g>
   <g id="legend_1">
    <g id="patch_5">
     <path d="M 299.041999 39.119646 
L 418.361999 39.119646 
L 418.361999 6.834646 
L 299.041999 6.834646 
z
" style="fill:#ffffff;stroke:#000000;stroke-linejoin:miter;"/>
    </g>
    <g id="line2d_12">
     <path d="M 305.441999 16.513396 
L 321.441999 16.513396 
" style="fill:none;stroke:#009afa;stroke-linejoin:miter;"/>
    </g>
    <g id="line2d_13"/>
    <g id="text_12">
     <!-- GXBeam -->
     <g transform="translate(327.841999 19.313396)scale(0.08 -0.08)">
      <defs>
       <path d="M 3809 666 
L 3809 1919 
L 2778 1919 
L 2778 2438 
L 4434 2438 
L 4434 434 
Q 4069 175 3628 42 
Q 3188 -91 2688 -91 
Q 1594 -91 976 548 
Q 359 1188 359 2328 
Q 359 3472 976 4111 
Q 1594 4750 2688 4750 
Q 3144 4750 3555 4637 
Q 3966 4525 4313 4306 
L 4313 3634 
Q 3963 3931 3569 4081 
Q 3175 4231 2741 4231 
Q 1884 4231 1454 3753 
Q 1025 3275 1025 2328 
Q 1025 1384 1454 906 
Q 1884 428 2741 428 
Q 3075 428 3337 486 
Q 3600 544 3809 666 
z
" id="DejaVuSans-47" transform="scale(0.015625)"/>
       <path d="M 403 4666 
L 1081 4666 
L 2241 2931 
L 3406 4666 
L 4084 4666 
L 2584 2425 
L 4184 0 
L 3506 0 
L 2194 1984 
L 872 0 
L 191 0 
L 1856 2491 
L 403 4666 
z
" id="DejaVuSans-58" transform="scale(0.015625)"/>
       <path d="M 1259 2228 
L 1259 519 
L 2272 519 
Q 2781 519 3026 730 
Q 3272 941 3272 1375 
Q 3272 1813 3026 2020 
Q 2781 2228 2272 2228 
L 1259 2228 
z
M 1259 4147 
L 1259 2741 
L 2194 2741 
Q 2656 2741 2882 2914 
Q 3109 3088 3109 3444 
Q 3109 3797 2882 3972 
Q 2656 4147 2194 4147 
L 1259 4147 
z
M 628 4666 
L 2241 4666 
Q 2963 4666 3353 4366 
Q 3744 4066 3744 3513 
Q 3744 3084 3544 2831 
Q 3344 2578 2956 2516 
Q 3422 2416 3680 2098 
Q 3938 1781 3938 1306 
Q 3938 681 3513 340 
Q 3088 0 2303 0 
L 628 0 
L 628 4666 
z
" id="DejaVuSans-42" transform="scale(0.015625)"/>
       <path d="M 2194 1759 
Q 1497 1759 1228 1600 
Q 959 1441 959 1056 
Q 959 750 1161 570 
Q 1363 391 1709 391 
Q 2188 391 2477 730 
Q 2766 1069 2766 1631 
L 2766 1759 
L 2194 1759 
z
M 3341 1997 
L 3341 0 
L 2766 0 
L 2766 531 
Q 2569 213 2275 61 
Q 1981 -91 1556 -91 
Q 1019 -91 701 211 
Q 384 513 384 1019 
Q 384 1609 779 1909 
Q 1175 2209 1959 2209 
L 2766 2209 
L 2766 2266 
Q 2766 2663 2505 2880 
Q 2244 3097 1772 3097 
Q 1472 3097 1187 3025 
Q 903 2953 641 2809 
L 641 3341 
Q 956 3463 1253 3523 
Q 1550 3584 1831 3584 
Q 2591 3584 2966 3190 
Q 3341 2797 3341 1997 
z
" id="DejaVuSans-61" transform="scale(0.015625)"/>
      </defs>
      <use xlink:href="#DejaVuSans-47"/>
      <use x="77.490234" xlink:href="#DejaVuSans-58"/>
      <use x="145.996094" xlink:href="#DejaVuSans-42"/>
      <use x="214.599609" xlink:href="#DejaVuSans-65"/>
      <use x="276.123047" xlink:href="#DejaVuSans-61"/>
      <use x="337.402344" xlink:href="#DejaVuSans-6d"/>
     </g>
    </g>
    <g id="line2d_14">
     <path d="M 305.441999 28.255896 
L 321.441999 28.255896 
" style="fill:none;stroke:#e36f47;stroke-linejoin:miter;"/>
    </g>
    <g id="line2d_15"/>
    <g id="text_13">
     <!-- DifferentialEquations -->
     <g transform="translate(327.841999 31.055896)scale(0.08 -0.08)">
      <defs>
       <path d="M 1259 4147 
L 1259 519 
L 2022 519 
Q 2988 519 3436 956 
Q 3884 1394 3884 2338 
Q 3884 3275 3436 3711 
Q 2988 4147 2022 4147 
L 1259 4147 
z
M 628 4666 
L 1925 4666 
Q 3281 4666 3915 4102 
Q 4550 3538 4550 2338 
Q 4550 1131 3912 565 
Q 3275 0 1925 0 
L 628 0 
L 628 4666 
z
" id="DejaVuSans-44" transform="scale(0.015625)"/>
       <path d="M 2375 4863 
L 2375 4384 
L 1825 4384 
Q 1516 4384 1395 4259 
Q 1275 4134 1275 3809 
L 1275 3500 
L 2222 3500 
L 2222 3053 
L 1275 3053 
L 1275 0 
L 697 0 
L 697 3053 
L 147 3053 
L 147 3500 
L 697 3500 
L 697 3744 
Q 697 4328 969 4595 
Q 1241 4863 1831 4863 
L 2375 4863 
z
" id="DejaVuSans-66" transform="scale(0.015625)"/>
       <path d="M 2631 2963 
Q 2534 3019 2420 3045 
Q 2306 3072 2169 3072 
Q 1681 3072 1420 2755 
Q 1159 2438 1159 1844 
L 1159 0 
L 581 0 
L 581 3500 
L 1159 3500 
L 1159 2956 
Q 1341 3275 1631 3429 
Q 1922 3584 2338 3584 
Q 2397 3584 2469 3576 
Q 2541 3569 2628 3553 
L 2631 2963 
z
" id="DejaVuSans-72" transform="scale(0.015625)"/>
       <path d="M 3513 2113 
L 3513 0 
L 2938 0 
L 2938 2094 
Q 2938 2591 2744 2837 
Q 2550 3084 2163 3084 
Q 1697 3084 1428 2787 
Q 1159 2491 1159 1978 
L 1159 0 
L 581 0 
L 581 3500 
L 1159 3500 
L 1159 2956 
Q 1366 3272 1645 3428 
Q 1925 3584 2291 3584 
Q 2894 3584 3203 3211 
Q 3513 2838 3513 2113 
z
" id="DejaVuSans-6e" transform="scale(0.015625)"/>
       <path d="M 1172 4494 
L 1172 3500 
L 2356 3500 
L 2356 3053 
L 1172 3053 
L 1172 1153 
Q 1172 725 1289 603 
Q 1406 481 1766 481 
L 2356 481 
L 2356 0 
L 1766 0 
Q 1100 0 847 248 
Q 594 497 594 1153 
L 594 3053 
L 172 3053 
L 172 3500 
L 594 3500 
L 594 4494 
L 1172 4494 
z
" id="DejaVuSans-74" transform="scale(0.015625)"/>
       <path d="M 603 4863 
L 1178 4863 
L 1178 0 
L 603 0 
L 603 4863 
z
" id="DejaVuSans-6c" transform="scale(0.015625)"/>
       <path d="M 628 4666 
L 3578 4666 
L 3578 4134 
L 1259 4134 
L 1259 2753 
L 3481 2753 
L 3481 2222 
L 1259 2222 
L 1259 531 
L 3634 531 
L 3634 0 
L 628 0 
L 628 4666 
z
" id="DejaVuSans-45" transform="scale(0.015625)"/>
       <path d="M 947 1747 
Q 947 1113 1208 752 
Q 1469 391 1925 391 
Q 2381 391 2643 752 
Q 2906 1113 2906 1747 
Q 2906 2381 2643 2742 
Q 2381 3103 1925 3103 
Q 1469 3103 1208 2742 
Q 947 2381 947 1747 
z
M 2906 525 
Q 2725 213 2448 61 
Q 2172 -91 1784 -91 
Q 1150 -91 751 415 
Q 353 922 353 1747 
Q 353 2572 751 3078 
Q 1150 3584 1784 3584 
Q 2172 3584 2448 3432 
Q 2725 3281 2906 2969 
L 2906 3500 
L 3481 3500 
L 3481 -1331 
L 2906 -1331 
L 2906 525 
z
" id="DejaVuSans-71" transform="scale(0.015625)"/>
       <path d="M 544 1381 
L 544 3500 
L 1119 3500 
L 1119 1403 
Q 1119 906 1312 657 
Q 1506 409 1894 409 
Q 2359 409 2629 706 
Q 2900 1003 2900 1516 
L 2900 3500 
L 3475 3500 
L 3475 0 
L 2900 0 
L 2900 538 
Q 2691 219 2414 64 
Q 2138 -91 1772 -91 
Q 1169 -91 856 284 
Q 544 659 544 1381 
z
M 1991 3584 
L 1991 3584 
z
" id="DejaVuSans-75" transform="scale(0.015625)"/>
       <path d="M 1959 3097 
Q 1497 3097 1228 2736 
Q 959 2375 959 1747 
Q 959 1119 1226 758 
Q 1494 397 1959 397 
Q 2419 397 2687 759 
Q 2956 1122 2956 1747 
Q 2956 2369 2687 2733 
Q 2419 3097 1959 3097 
z
M 1959 3584 
Q 2709 3584 3137 3096 
Q 3566 2609 3566 1747 
Q 3566 888 3137 398 
Q 2709 -91 1959 -91 
Q 1206 -91 779 398 
Q 353 888 353 1747 
Q 353 2609 779 3096 
Q 1206 3584 1959 3584 
z
" id="DejaVuSans-6f" transform="scale(0.015625)"/>
      </defs>
      <use xlink:href="#DejaVuSans-44"/>
      <use x="77.001953" xlink:href="#DejaVuSans-69"/>
      <use x="104.785156" xlink:href="#DejaVuSans-66"/>
      <use x="139.990234" xlink:href="#DejaVuSans-66"/>
      <use x="175.195312" xlink:href="#DejaVuSans-65"/>
      <use x="236.71875" xlink:href="#DejaVuSans-72"/>
      <use x="275.582031" xlink:href="#DejaVuSans-65"/>
      <use x="337.105469" xlink:href="#DejaVuSans-6e"/>
      <use x="400.484375" xlink:href="#DejaVuSans-74"/>
      <use x="439.693359" xlink:href="#DejaVuSans-69"/>
      <use x="467.476562" xlink:href="#DejaVuSans-61"/>
      <use x="528.755859" xlink:href="#DejaVuSans-6c"/>
      <use x="556.539062" xlink:href="#DejaVuSans-45"/>
      <use x="619.722656" xlink:href="#DejaVuSans-71"/>
      <use x="683.199219" xlink:href="#DejaVuSans-75"/>
      <use x="746.578125" xlink:href="#DejaVuSans-61"/>
      <use x="807.857422" xlink:href="#DejaVuSans-74"/>
      <use x="847.066406" xlink:href="#DejaVuSans-69"/>
      <use x="874.849609" xlink:href="#DejaVuSans-6f"/>
      <use x="936.03125" xlink:href="#DejaVuSans-6e"/>
      <use x="999.410156" xlink:href="#DejaVuSans-73"/>
     </g>
    </g>
   </g>
  </g>
 </g>
 <defs>
  <clipPath id="pe6ad9b0873">
   <rect height="255.390709" width="392.805604" x="29.556396" y="2.834646"/>
  </clipPath>
 </defs>
</svg>
