<?xml version="1.0" encoding="utf-8" standalone="no"?>
<!DOCTYPE svg PUBLIC "-//W3C//DTD SVG 1.1//EN"
  "http://www.w3.org/Graphics/SVG/1.1/DTD/svg11.dtd">
<!-- Created with matplotlib (https://matplotlib.org/) -->
<svg height="288pt" version="1.1" viewBox="0 0 432 288" width="432pt" xmlns="http://www.w3.org/2000/svg" xmlns:xlink="http://www.w3.org/1999/xlink">
 <metadata>
  <rdf:RDF xmlns:cc="http://creativecommons.org/ns#" xmlns:dc="http://purl.org/dc/elements/1.1/" xmlns:rdf="http://www.w3.org/1999/02/22-rdf-syntax-ns#">
   <cc:Work>
    <dc:type rdf:resource="http://purl.org/dc/dcmitype/StillImage"/>
    <dc:date>2021-07-12T15:34:53.990480</dc:date>
    <dc:format>image/svg+xml</dc:format>
    <dc:creator>
     <cc:Agent>
      <dc:title>Matplotlib v3.3.4, https://matplotlib.org/</dc:title>
     </cc:Agent>
    </dc:creator>
   </cc:Work>
  </rdf:RDF>
 </metadata>
 <defs>
  <style type="text/css">*{stroke-linecap:butt;stroke-linejoin:round;}</style>
 </defs>
 <g id="figure_1">
  <g id="patch_1">
   <path d="M 0 288 
L 432 288 
L 432 0 
L 0 0 
z
" style="fill:#ffffff;"/>
  </g>
  <g id="axes_1">
   <g id="patch_2">
    <path d="M 34.763856 256.493435 
L 429.165354 256.493435 
L 429.165354 8.166565 
L 34.763856 8.166565 
z
" style="fill:#ffffff;"/>
   </g>
   <g id="matplotlib.axis_1">
    <g id="xtick_1">
     <g id="line2d_1">
      <defs>
       <path d="M 0 0 
L 0 -2.5 
" id="md079e2f439" style="stroke:#000000;stroke-width:0.5;"/>
      </defs>
      <g>
       <use style="stroke:#000000;stroke-width:0.5;" x="34.763856" xlink:href="#md079e2f439" y="256.493435"/>
      </g>
     </g>
     <g id="text_1">
      <!-- $\mathregular{-0.25}$ -->
      <g transform="translate(22.723856 266.072185)scale(0.08 -0.08)">
       <defs>
        <path d="M 10.59375 35.5 
L 73.1875 35.5 
L 73.1875 27.203125 
L 10.59375 27.203125 
z
" id="DejaVuSans-8722"/>
        <path d="M 31.78125 66.40625 
Q 24.171875 66.40625 20.328125 58.90625 
Q 16.5 51.421875 16.5 36.375 
Q 16.5 21.390625 20.328125 13.890625 
Q 24.171875 6.390625 31.78125 6.390625 
Q 39.453125 6.390625 43.28125 13.890625 
Q 47.125 21.390625 47.125 36.375 
Q 47.125 51.421875 43.28125 58.90625 
Q 39.453125 66.40625 31.78125 66.40625 
z
M 31.78125 74.21875 
Q 44.046875 74.21875 50.515625 64.515625 
Q 56.984375 54.828125 56.984375 36.375 
Q 56.984375 17.96875 50.515625 8.265625 
Q 44.046875 -1.421875 31.78125 -1.421875 
Q 19.53125 -1.421875 13.0625 8.265625 
Q 6.59375 17.96875 6.59375 36.375 
Q 6.59375 54.828125 13.0625 64.515625 
Q 19.53125 74.21875 31.78125 74.21875 
z
" id="DejaVuSans-48"/>
        <path d="M 10.6875 12.40625 
L 21 12.40625 
L 21 0 
L 10.6875 0 
z
" id="DejaVuSans-46"/>
        <path d="M 19.1875 8.296875 
L 53.609375 8.296875 
L 53.609375 0 
L 7.328125 0 
L 7.328125 8.296875 
Q 12.9375 14.109375 22.625 23.890625 
Q 32.328125 33.6875 34.8125 36.53125 
Q 39.546875 41.84375 41.421875 45.53125 
Q 43.3125 49.21875 43.3125 52.78125 
Q 43.3125 58.59375 39.234375 62.25 
Q 35.15625 65.921875 28.609375 65.921875 
Q 23.96875 65.921875 18.8125 64.3125 
Q 13.671875 62.703125 7.8125 59.421875 
L 7.8125 69.390625 
Q 13.765625 71.78125 18.9375 73 
Q 24.125 74.21875 28.421875 74.21875 
Q 39.75 74.21875 46.484375 68.546875 
Q 53.21875 62.890625 53.21875 53.421875 
Q 53.21875 48.921875 51.53125 44.890625 
Q 49.859375 40.875 45.40625 35.40625 
Q 44.1875 33.984375 37.640625 27.21875 
Q 31.109375 20.453125 19.1875 8.296875 
z
" id="DejaVuSans-50"/>
        <path d="M 10.796875 72.90625 
L 49.515625 72.90625 
L 49.515625 64.59375 
L 19.828125 64.59375 
L 19.828125 46.734375 
Q 21.96875 47.46875 24.109375 47.828125 
Q 26.265625 48.1875 28.421875 48.1875 
Q 40.625 48.1875 47.75 41.5 
Q 54.890625 34.8125 54.890625 23.390625 
Q 54.890625 11.625 47.5625 5.09375 
Q 40.234375 -1.421875 26.90625 -1.421875 
Q 22.3125 -1.421875 17.546875 -0.640625 
Q 12.796875 0.140625 7.71875 1.703125 
L 7.71875 11.625 
Q 12.109375 9.234375 16.796875 8.0625 
Q 21.484375 6.890625 26.703125 6.890625 
Q 35.15625 6.890625 40.078125 11.328125 
Q 45.015625 15.765625 45.015625 23.390625 
Q 45.015625 31 40.078125 35.4375 
Q 35.15625 39.890625 26.703125 39.890625 
Q 22.75 39.890625 18.8125 39.015625 
Q 14.890625 38.140625 10.796875 36.28125 
z
" id="DejaVuSans-53"/>
       </defs>
       <use transform="translate(0 0.78125)" xlink:href="#DejaVuSans-8722"/>
       <use transform="translate(83.789062 0.78125)" xlink:href="#DejaVuSans-48"/>
       <use transform="translate(147.412109 0.78125)" xlink:href="#DejaVuSans-46"/>
       <use transform="translate(173.699219 0.78125)" xlink:href="#DejaVuSans-50"/>
       <use transform="translate(237.322266 0.78125)" xlink:href="#DejaVuSans-53"/>
      </g>
     </g>
    </g>
    <g id="xtick_2">
     <g id="line2d_2">
      <g>
       <use style="stroke:#000000;stroke-width:0.5;" x="107.80117" xlink:href="#md079e2f439" y="256.493435"/>
      </g>
     </g>
     <g id="text_2">
      <!-- $\mathregular{0.00}$ -->
      <g transform="translate(98.88117 266.072185)scale(0.08 -0.08)">
       <use transform="translate(0 0.78125)" xlink:href="#DejaVuSans-48"/>
       <use transform="translate(63.623047 0.78125)" xlink:href="#DejaVuSans-46"/>
       <use transform="translate(95.410156 0.78125)" xlink:href="#DejaVuSans-48"/>
       <use transform="translate(159.033203 0.78125)" xlink:href="#DejaVuSans-48"/>
      </g>
     </g>
    </g>
    <g id="xtick_3">
     <g id="line2d_3">
      <g>
       <use style="stroke:#000000;stroke-width:0.5;" x="180.838485" xlink:href="#md079e2f439" y="256.493435"/>
      </g>
     </g>
     <g id="text_3">
      <!-- $\mathregular{0.25}$ -->
      <g transform="translate(172.118485 266.072185)scale(0.08 -0.08)">
       <use transform="translate(0 0.78125)" xlink:href="#DejaVuSans-48"/>
       <use transform="translate(63.623047 0.78125)" xlink:href="#DejaVuSans-46"/>
       <use transform="translate(89.910156 0.78125)" xlink:href="#DejaVuSans-50"/>
       <use transform="translate(153.533203 0.78125)" xlink:href="#DejaVuSans-53"/>
      </g>
     </g>
    </g>
    <g id="xtick_4">
     <g id="line2d_4">
      <g>
       <use style="stroke:#000000;stroke-width:0.5;" x="253.875799" xlink:href="#md079e2f439" y="256.493435"/>
      </g>
     </g>
     <g id="text_4">
      <!-- $\mathregular{0.50}$ -->
      <g transform="translate(244.955799 266.072185)scale(0.08 -0.08)">
       <use transform="translate(0 0.78125)" xlink:href="#DejaVuSans-48"/>
       <use transform="translate(63.623047 0.78125)" xlink:href="#DejaVuSans-46"/>
       <use transform="translate(95.410156 0.78125)" xlink:href="#DejaVuSans-53"/>
       <use transform="translate(159.033203 0.78125)" xlink:href="#DejaVuSans-48"/>
      </g>
     </g>
    </g>
    <g id="xtick_5">
     <g id="line2d_5">
      <g>
       <use style="stroke:#000000;stroke-width:0.5;" x="326.913114" xlink:href="#md079e2f439" y="256.493435"/>
      </g>
     </g>
     <g id="text_5">
      <!-- $\mathregular{0.75}$ -->
      <g transform="translate(318.313114 266.072185)scale(0.08 -0.08)">
       <defs>
        <path d="M 8.203125 72.90625 
L 55.078125 72.90625 
L 55.078125 68.703125 
L 28.609375 0 
L 18.3125 0 
L 43.21875 64.59375 
L 8.203125 64.59375 
z
" id="DejaVuSans-55"/>
       </defs>
       <use transform="translate(0 0.78125)" xlink:href="#DejaVuSans-48"/>
       <use transform="translate(63.623047 0.78125)" xlink:href="#DejaVuSans-46"/>
       <use transform="translate(87.660156 0.78125)" xlink:href="#DejaVuSans-55"/>
       <use transform="translate(151.283203 0.78125)" xlink:href="#DejaVuSans-53"/>
      </g>
     </g>
    </g>
    <g id="xtick_6">
     <g id="line2d_6">
      <g>
       <use style="stroke:#000000;stroke-width:0.5;" x="399.950429" xlink:href="#md079e2f439" y="256.493435"/>
      </g>
     </g>
     <g id="text_6">
      <!-- $\mathregular{1.00}$ -->
      <g transform="translate(391.030429 266.072185)scale(0.08 -0.08)">
       <defs>
        <path d="M 12.40625 8.296875 
L 28.515625 8.296875 
L 28.515625 63.921875 
L 10.984375 60.40625 
L 10.984375 69.390625 
L 28.421875 72.90625 
L 38.28125 72.90625 
L 38.28125 8.296875 
L 54.390625 8.296875 
L 54.390625 0 
L 12.40625 0 
z
" id="DejaVuSans-49"/>
       </defs>
       <use transform="translate(0 0.78125)" xlink:href="#DejaVuSans-49"/>
       <use transform="translate(63.623047 0.78125)" xlink:href="#DejaVuSans-46"/>
       <use transform="translate(95.410156 0.78125)" xlink:href="#DejaVuSans-48"/>
       <use transform="translate(159.033203 0.78125)" xlink:href="#DejaVuSans-48"/>
      </g>
     </g>
    </g>
    <g id="text_7">
     <!-- x/L -->
     <g transform="translate(223.791949 280.094216)scale(0.11 -0.11)">
      <defs>
       <path d="M 54.890625 54.6875 
L 35.109375 28.078125 
L 55.90625 0 
L 45.3125 0 
L 29.390625 21.484375 
L 13.484375 0 
L 2.875 0 
L 24.125 28.609375 
L 4.6875 54.6875 
L 15.28125 54.6875 
L 29.78125 35.203125 
L 44.28125 54.6875 
z
" id="DejaVuSans-120"/>
       <path d="M 25.390625 72.90625 
L 33.6875 72.90625 
L 8.296875 -9.28125 
L 0 -9.28125 
z
" id="DejaVuSans-47"/>
       <path d="M 9.8125 72.90625 
L 19.671875 72.90625 
L 19.671875 8.296875 
L 55.171875 8.296875 
L 55.171875 0 
L 9.8125 0 
z
" id="DejaVuSans-76"/>
      </defs>
      <use xlink:href="#DejaVuSans-120"/>
      <use x="59.179688" xlink:href="#DejaVuSans-47"/>
      <use x="92.871094" xlink:href="#DejaVuSans-76"/>
     </g>
    </g>
   </g>
   <g id="matplotlib.axis_2">
    <g id="ytick_1">
     <g id="line2d_7">
      <defs>
       <path d="M 0 0 
L 2.5 0 
" id="mf4d42badc5" style="stroke:#000000;stroke-width:0.5;"/>
      </defs>
      <g>
       <use style="stroke:#000000;stroke-width:0.5;" x="34.763856" xlink:href="#mf4d42badc5" y="241.885972"/>
      </g>
     </g>
     <g id="text_8">
      <!-- $\mathregular{0.0}$ -->
      <g transform="translate(18.463856 244.925347)scale(0.08 -0.08)">
       <use transform="translate(0 0.78125)" xlink:href="#DejaVuSans-48"/>
       <use transform="translate(63.623047 0.78125)" xlink:href="#DejaVuSans-46"/>
       <use transform="translate(95.410156 0.78125)" xlink:href="#DejaVuSans-48"/>
      </g>
     </g>
    </g>
    <g id="ytick_2">
     <g id="line2d_8">
      <g>
       <use style="stroke:#000000;stroke-width:0.5;" x="34.763856" xlink:href="#mf4d42badc5" y="183.45612"/>
      </g>
     </g>
     <g id="text_9">
      <!-- $\mathregular{0.2}$ -->
      <g transform="translate(18.943856 186.495495)scale(0.08 -0.08)">
       <use transform="translate(0 0.78125)" xlink:href="#DejaVuSans-48"/>
       <use transform="translate(63.623047 0.78125)" xlink:href="#DejaVuSans-46"/>
       <use transform="translate(89.910156 0.78125)" xlink:href="#DejaVuSans-50"/>
      </g>
     </g>
    </g>
    <g id="ytick_3">
     <g id="line2d_9">
      <g>
       <use style="stroke:#000000;stroke-width:0.5;" x="34.763856" xlink:href="#mf4d42badc5" y="125.026269"/>
      </g>
     </g>
     <g id="text_10">
      <!-- $\mathregular{0.4}$ -->
      <g transform="translate(18.463856 128.065644)scale(0.08 -0.08)">
       <defs>
        <path d="M 37.796875 64.3125 
L 12.890625 25.390625 
L 37.796875 25.390625 
z
M 35.203125 72.90625 
L 47.609375 72.90625 
L 47.609375 25.390625 
L 58.015625 25.390625 
L 58.015625 17.1875 
L 47.609375 17.1875 
L 47.609375 0 
L 37.796875 0 
L 37.796875 17.1875 
L 4.890625 17.1875 
L 4.890625 26.703125 
z
" id="DejaVuSans-52"/>
       </defs>
       <use transform="translate(0 0.78125)" xlink:href="#DejaVuSans-48"/>
       <use transform="translate(63.623047 0.78125)" xlink:href="#DejaVuSans-46"/>
       <use transform="translate(95.410156 0.78125)" xlink:href="#DejaVuSans-52"/>
      </g>
     </g>
    </g>
    <g id="ytick_4">
     <g id="line2d_10">
      <g>
       <use style="stroke:#000000;stroke-width:0.5;" x="34.763856" xlink:href="#mf4d42badc5" y="66.596417"/>
      </g>
     </g>
     <g id="text_11">
      <!-- $\mathregular{0.6}$ -->
      <g transform="translate(18.463856 69.635792)scale(0.08 -0.08)">
       <defs>
        <path d="M 33.015625 40.375 
Q 26.375 40.375 22.484375 35.828125 
Q 18.609375 31.296875 18.609375 23.390625 
Q 18.609375 15.53125 22.484375 10.953125 
Q 26.375 6.390625 33.015625 6.390625 
Q 39.65625 6.390625 43.53125 10.953125 
Q 47.40625 15.53125 47.40625 23.390625 
Q 47.40625 31.296875 43.53125 35.828125 
Q 39.65625 40.375 33.015625 40.375 
z
M 52.59375 71.296875 
L 52.59375 62.3125 
Q 48.875 64.0625 45.09375 64.984375 
Q 41.3125 65.921875 37.59375 65.921875 
Q 27.828125 65.921875 22.671875 59.328125 
Q 17.53125 52.734375 16.796875 39.40625 
Q 19.671875 43.65625 24.015625 45.921875 
Q 28.375 48.1875 33.59375 48.1875 
Q 44.578125 48.1875 50.953125 41.515625 
Q 57.328125 34.859375 57.328125 23.390625 
Q 57.328125 12.15625 50.6875 5.359375 
Q 44.046875 -1.421875 33.015625 -1.421875 
Q 20.359375 -1.421875 13.671875 8.265625 
Q 6.984375 17.96875 6.984375 36.375 
Q 6.984375 53.65625 15.1875 63.9375 
Q 23.390625 74.21875 37.203125 74.21875 
Q 40.921875 74.21875 44.703125 73.484375 
Q 48.484375 72.75 52.59375 71.296875 
z
" id="DejaVuSans-54"/>
       </defs>
       <use transform="translate(0 0.78125)" xlink:href="#DejaVuSans-48"/>
       <use transform="translate(63.623047 0.78125)" xlink:href="#DejaVuSans-46"/>
       <use transform="translate(95.410156 0.78125)" xlink:href="#DejaVuSans-54"/>
      </g>
     </g>
    </g>
    <g id="ytick_5">
     <g id="line2d_11">
      <g>
       <use style="stroke:#000000;stroke-width:0.5;" x="34.763856" xlink:href="#mf4d42badc5" y="8.166565"/>
      </g>
     </g>
     <g id="text_12">
      <!-- $\mathregular{0.8}$ -->
      <g transform="translate(18.703856 11.20594)scale(0.08 -0.08)">
       <defs>
        <path d="M 31.78125 34.625 
Q 24.75 34.625 20.71875 30.859375 
Q 16.703125 27.09375 16.703125 20.515625 
Q 16.703125 13.921875 20.71875 10.15625 
Q 24.75 6.390625 31.78125 6.390625 
Q 38.8125 6.390625 42.859375 10.171875 
Q 46.921875 13.96875 46.921875 20.515625 
Q 46.921875 27.09375 42.890625 30.859375 
Q 38.875 34.625 31.78125 34.625 
z
M 21.921875 38.8125 
Q 15.578125 40.375 12.03125 44.71875 
Q 8.5 49.078125 8.5 55.328125 
Q 8.5 64.0625 14.71875 69.140625 
Q 20.953125 74.21875 31.78125 74.21875 
Q 42.671875 74.21875 48.875 69.140625 
Q 55.078125 64.0625 55.078125 55.328125 
Q 55.078125 49.078125 51.53125 44.71875 
Q 48 40.375 41.703125 38.8125 
Q 48.828125 37.15625 52.796875 32.3125 
Q 56.78125 27.484375 56.78125 20.515625 
Q 56.78125 9.90625 50.3125 4.234375 
Q 43.84375 -1.421875 31.78125 -1.421875 
Q 19.734375 -1.421875 13.25 4.234375 
Q 6.78125 9.90625 6.78125 20.515625 
Q 6.78125 27.484375 10.78125 32.3125 
Q 14.796875 37.15625 21.921875 38.8125 
z
M 18.3125 54.390625 
Q 18.3125 48.734375 21.84375 45.5625 
Q 25.390625 42.390625 31.78125 42.390625 
Q 38.140625 42.390625 41.71875 45.5625 
Q 45.3125 48.734375 45.3125 54.390625 
Q 45.3125 60.0625 41.71875 63.234375 
Q 38.140625 66.40625 31.78125 66.40625 
Q 25.390625 66.40625 21.84375 63.234375 
Q 18.3125 60.0625 18.3125 54.390625 
z
" id="DejaVuSans-56"/>
       </defs>
       <use transform="translate(0 0.78125)" xlink:href="#DejaVuSans-48"/>
       <use transform="translate(63.623047 0.78125)" xlink:href="#DejaVuSans-46"/>
       <use transform="translate(92.785156 0.78125)" xlink:href="#DejaVuSans-56"/>
      </g>
     </g>
    </g>
    <g id="text_13">
     <!-- y/L -->
     <g transform="translate(12.1762 140.502656)rotate(-90)scale(0.11 -0.11)">
      <defs>
       <path d="M 32.171875 -5.078125 
Q 28.375 -14.84375 24.75 -17.8125 
Q 21.140625 -20.796875 15.09375 -20.796875 
L 7.90625 -20.796875 
L 7.90625 -13.28125 
L 13.1875 -13.28125 
Q 16.890625 -13.28125 18.9375 -11.515625 
Q 21 -9.765625 23.484375 -3.21875 
L 25.09375 0.875 
L 2.984375 54.6875 
L 12.5 54.6875 
L 29.59375 11.921875 
L 46.6875 54.6875 
L 56.203125 54.6875 
z
" id="DejaVuSans-121"/>
      </defs>
      <use xlink:href="#DejaVuSans-121"/>
      <use x="59.179688" xlink:href="#DejaVuSans-47"/>
      <use x="92.871094" xlink:href="#DejaVuSans-76"/>
     </g>
    </g>
   </g>
   <g id="patch_3">
    <path d="M 34.763856 256.493435 
L 34.763856 8.166565 
" style="fill:none;stroke:#000000;stroke-linecap:square;stroke-linejoin:miter;"/>
   </g>
   <g id="patch_4">
    <path d="M 34.763856 256.493435 
L 429.165354 256.493435 
" style="fill:none;stroke:#000000;stroke-linecap:square;stroke-linejoin:miter;"/>
   </g>
   <g id="PathCollection_1">
    <defs>
     <path d="M 0 2 
C 0.530406 2 1.03916 1.789267 1.414214 1.414214 
C 1.789267 1.03916 2 0.530406 2 0 
C 2 -0.530406 1.789267 -1.03916 1.414214 -1.414214 
C 1.03916 -1.789267 0.530406 -2 0 -2 
C -0.530406 -2 -1.03916 -1.789267 -1.414214 -1.414214 
C -1.789267 -1.03916 -2 -0.530406 -2 0 
C -2 0.530406 -1.789267 1.03916 -1.414214 1.414214 
C -1.03916 1.789267 -0.530406 2 0 2 
z
" id="mbcd3a2899a" style="stroke:#000000;"/>
    </defs>
    <g clip-path="url(#pc3fe0930b9)">
     <use style="fill:#009afa;stroke:#000000;" x="107.80117" xlink:href="#mbcd3a2899a" y="241.885972"/>
     <use style="fill:#009afa;stroke:#000000;" x="126.060499" xlink:href="#mbcd3a2899a" y="241.885972"/>
     <use style="fill:#009afa;stroke:#000000;" x="144.319828" xlink:href="#mbcd3a2899a" y="241.885972"/>
     <use style="fill:#009afa;stroke:#000000;" x="162.579156" xlink:href="#mbcd3a2899a" y="241.885972"/>
     <use style="fill:#009afa;stroke:#000000;" x="180.838485" xlink:href="#mbcd3a2899a" y="241.885972"/>
     <use style="fill:#009afa;stroke:#000000;" x="199.097814" xlink:href="#mbcd3a2899a" y="241.885972"/>
     <use style="fill:#009afa;stroke:#000000;" x="217.357142" xlink:href="#mbcd3a2899a" y="241.885972"/>
     <use style="fill:#009afa;stroke:#000000;" x="235.616471" xlink:href="#mbcd3a2899a" y="241.885972"/>
     <use style="fill:#009afa;stroke:#000000;" x="253.875799" xlink:href="#mbcd3a2899a" y="241.885972"/>
     <use style="fill:#009afa;stroke:#000000;" x="272.135128" xlink:href="#mbcd3a2899a" y="241.885972"/>
     <use style="fill:#009afa;stroke:#000000;" x="290.394457" xlink:href="#mbcd3a2899a" y="241.885972"/>
     <use style="fill:#009afa;stroke:#000000;" x="308.653785" xlink:href="#mbcd3a2899a" y="241.885972"/>
     <use style="fill:#009afa;stroke:#000000;" x="326.913114" xlink:href="#mbcd3a2899a" y="241.885972"/>
     <use style="fill:#009afa;stroke:#000000;" x="345.172443" xlink:href="#mbcd3a2899a" y="241.885972"/>
     <use style="fill:#009afa;stroke:#000000;" x="363.431771" xlink:href="#mbcd3a2899a" y="241.885972"/>
     <use style="fill:#009afa;stroke:#000000;" x="381.6911" xlink:href="#mbcd3a2899a" y="241.885972"/>
     <use style="fill:#009afa;stroke:#000000;" x="399.950429" xlink:href="#mbcd3a2899a" y="241.885972"/>
    </g>
   </g>
   <g id="line2d_12">
    <path clip-path="url(#pc3fe0930b9)" d="M 107.80117 241.885972 
L 110.752173 241.885972 
L 113.703176 241.885972 
L 116.654178 241.885972 
L 119.605181 241.885972 
L 122.556183 241.885972 
L 125.507186 241.885972 
L 128.458189 241.885972 
L 131.409191 241.885972 
L 134.360194 241.885972 
L 137.311196 241.885972 
L 140.262199 241.885972 
L 143.213202 241.885972 
L 146.164204 241.885972 
L 149.115207 241.885972 
L 152.06621 241.885972 
L 155.017212 241.885972 
L 157.968215 241.885972 
L 160.919217 241.885972 
L 163.87022 241.885972 
L 166.821223 241.885972 
L 169.772225 241.885972 
L 172.723228 241.885972 
L 175.67423 241.885972 
L 178.625233 241.885972 
L 181.576236 241.885972 
L 184.527238 241.885972 
L 187.478241 241.885972 
L 190.429243 241.885972 
L 193.380246 241.885972 
L 196.331249 241.885972 
L 199.282251 241.885972 
L 202.233254 241.885972 
L 205.184256 241.885972 
L 208.135259 241.885972 
L 211.086262 241.885972 
L 214.037264 241.885972 
L 216.988267 241.885972 
L 219.939269 241.885972 
L 222.890272 241.885972 
L 225.841275 241.885972 
L 228.792277 241.885972 
L 231.74328 241.885972 
L 234.694283 241.885972 
L 237.645285 241.885972 
L 240.596288 241.885972 
L 243.54729 241.885972 
L 246.498293 241.885972 
L 249.449296 241.885972 
L 252.400298 241.885972 
L 255.351301 241.885972 
L 258.302303 241.885972 
L 261.253306 241.885972 
L 264.204309 241.885972 
L 267.155311 241.885972 
L 270.106314 241.885972 
L 273.057316 241.885972 
L 276.008319 241.885972 
L 278.959322 241.885972 
L 281.910324 241.885972 
L 284.861327 241.885972 
L 287.812329 241.885972 
L 290.763332 241.885972 
L 293.714335 241.885972 
L 296.665337 241.885972 
L 299.61634 241.885972 
L 302.567342 241.885972 
L 305.518345 241.885972 
L 308.469348 241.885972 
L 311.42035 241.885972 
L 314.371353 241.885972 
L 317.322356 241.885972 
L 320.273358 241.885972 
L 323.224361 241.885972 
L 326.175363 241.885972 
L 329.126366 241.885972 
L 332.077369 241.885972 
L 335.028371 241.885972 
L 337.979374 241.885972 
L 340.930376 241.885972 
L 343.881379 241.885972 
L 346.832382 241.885972 
L 349.783384 241.885972 
L 352.734387 241.885972 
L 355.685389 241.885972 
L 358.636392 241.885972 
L 361.587395 241.885972 
L 364.538397 241.885972 
L 367.4894 241.885972 
L 370.440402 241.885972 
L 373.391405 241.885972 
L 376.342408 241.885972 
L 379.29341 241.885972 
L 382.244413 241.885972 
L 385.195415 241.885972 
L 388.146418 241.885972 
L 391.097421 241.885972 
L 394.048423 241.885972 
L 396.999426 241.885972 
L 399.950429 241.885972 
" style="fill:none;stroke:#009afa;"/>
   </g>
   <g id="PathCollection_2">
    <defs>
     <path d="M 0 2 
C 0.530406 2 1.03916 1.789267 1.414214 1.414214 
C 1.789267 1.03916 2 0.530406 2 0 
C 2 -0.530406 1.789267 -1.03916 1.414214 -1.414214 
C 1.03916 -1.789267 0.530406 -2 0 -2 
C -0.530406 -2 -1.03916 -1.789267 -1.414214 -1.414214 
C -1.789267 -1.03916 -2 -0.530406 -2 0 
C -2 0.530406 -1.789267 1.03916 -1.414214 1.414214 
C -1.03916 1.789267 -0.530406 2 0 2 
z
" id="m1d0ee9828f" style="stroke:#000000;"/>
    </defs>
    <g clip-path="url(#pc3fe0930b9)">
     <use style="fill:#e36f47;stroke:#000000;" x="107.80117" xlink:href="#m1d0ee9828f" y="241.885972"/>
     <use style="fill:#e36f47;stroke:#000000;" x="126.04642" xlink:href="#m1d0ee9828f" y="241.169068"/>
     <use style="fill:#e36f47;stroke:#000000;" x="144.179167" xlink:href="#m1d0ee9828f" y="239.022777"/>
     <use style="fill:#e36f47;stroke:#000000;" x="162.087603" xlink:href="#m1d0ee9828f" y="235.460332"/>
     <use style="fill:#e36f47;stroke:#000000;" x="179.661301" xlink:href="#m1d0ee9828f" y="230.503699"/>
     <use style="fill:#e36f47;stroke:#000000;" x="196.7919" xlink:href="#m1d0ee9828f" y="224.183442"/>
     <use style="fill:#e36f47;stroke:#000000;" x="213.37377" xlink:href="#m1d0ee9828f" y="216.538531"/>
     <use style="fill:#e36f47;stroke:#000000;" x="229.304664" xlink:href="#m1d0ee9828f" y="207.616104"/>
     <use style="fill:#e36f47;stroke:#000000;" x="244.486349" xlink:href="#m1d0ee9828f" y="197.471177"/>
     <use style="fill:#e36f47;stroke:#000000;" x="258.82521" xlink:href="#m1d0ee9828f" y="186.166305"/>
     <use style="fill:#e36f47;stroke:#000000;" x="272.232831" xlink:href="#m1d0ee9828f" y="173.771193"/>
     <use style="fill:#e36f47;stroke:#000000;" x="284.626535" xlink:href="#m1d0ee9828f" y="160.362272"/>
     <use style="fill:#e36f47;stroke:#000000;" x="295.9299" xlink:href="#m1d0ee9828f" y="146.022222"/>
     <use style="fill:#e36f47;stroke:#000000;" x="306.073222" xlink:href="#m1d0ee9828f" y="130.839466"/>
     <use style="fill:#e36f47;stroke:#000000;" x="314.993954" xlink:href="#m1d0ee9828f" y="114.907622"/>
     <use style="fill:#e36f47;stroke:#000000;" x="322.637084" xlink:href="#m1d0ee9828f" y="98.324931"/>
     <use style="fill:#e36f47;stroke:#000000;" x="328.955481" xlink:href="#m1d0ee9828f" y="81.193646"/>
    </g>
   </g>
   <g id="line2d_13">
    <path clip-path="url(#pc3fe0930b9)" d="M 107.80117 241.885972 
L 110.752094 241.867243 
L 113.702542 241.81106 
L 116.652039 241.717431 
L 119.60011 241.586372 
L 122.54628 241.417904 
L 125.490074 241.212054 
L 128.431019 240.968855 
L 131.368639 240.688346 
L 134.302463 240.370573 
L 137.232016 240.015587 
L 140.156828 239.623444 
L 143.076426 239.194208 
L 145.990342 238.727949 
L 148.898104 238.224741 
L 151.799245 237.684665 
L 154.693296 237.107809 
L 157.579793 236.494265 
L 160.45827 235.844132 
L 163.328262 235.157516 
L 166.189308 234.434526 
L 169.040947 233.675279 
L 171.882719 232.879897 
L 174.714166 232.04851 
L 177.534833 231.181249 
L 180.344264 230.278256 
L 183.142007 229.339676 
L 185.927611 228.365659 
L 188.700628 227.356364 
L 191.46061 226.311951 
L 194.207114 225.232591 
L 196.939696 224.118457 
L 199.657916 222.969727 
L 202.361336 221.786588 
L 205.049521 220.56923 
L 207.722037 219.317849 
L 210.378455 218.032646 
L 213.018345 216.713829 
L 215.641284 215.361611 
L 218.246847 213.976208 
L 220.834615 212.557845 
L 223.404172 211.10675 
L 225.955103 209.623156 
L 228.486997 208.107303 
L 230.999447 206.559435 
L 233.492047 204.979801 
L 235.964396 203.368655 
L 238.416096 201.726258 
L 240.846751 200.052875 
L 243.255971 198.348773 
L 245.643366 196.614229 
L 248.008552 194.849521 
L 250.351149 193.054935 
L 252.670778 191.230758 
L 254.967066 189.377286 
L 257.239643 187.494816 
L 259.488143 185.583652 
L 261.712203 183.644102 
L 263.911466 181.676478 
L 266.085576 179.681097 
L 268.234184 177.658282 
L 270.356944 175.608357 
L 272.453513 173.531653 
L 274.523553 171.428505 
L 276.566731 169.299251 
L 278.582718 167.144235 
L 280.57119 164.963803 
L 282.531825 162.758308 
L 284.464308 160.528104 
L 286.368327 158.273551 
L 288.243576 155.995011 
L 290.089752 153.692853 
L 291.906558 151.367447 
L 293.693702 149.019167 
L 295.450895 146.648393 
L 297.177855 144.255505 
L 298.874302 141.840891 
L 300.539964 139.404937 
L 302.174573 136.948038 
L 303.777865 134.470588 
L 305.349581 131.972988 
L 306.889468 129.455639 
L 308.397279 126.918947 
L 309.872771 124.363321 
L 311.315705 121.789173 
L 312.725849 119.196916 
L 314.102976 116.58697 
L 315.446865 113.959754 
L 316.757298 111.315692 
L 318.034064 108.655209 
L 319.276958 105.978735 
L 320.48578 103.286701 
L 321.660334 100.57954 
L 322.800432 97.857688 
L 323.90589 95.121584 
L 324.976529 92.37167 
L 326.012177 89.608387 
L 327.012668 86.832181 
L 327.97784 84.0435 
L 328.907538 81.242793 
" style="fill:none;stroke:#e36f47;"/>
   </g>
   <g id="PathCollection_3">
    <defs>
     <path d="M 0 2 
C 0.530406 2 1.03916 1.789267 1.414214 1.414214 
C 1.789267 1.03916 2 0.530406 2 0 
C 2 -0.530406 1.789267 -1.03916 1.414214 -1.414214 
C 1.03916 -1.789267 0.530406 -2 0 -2 
C -0.530406 -2 -1.03916 -1.789267 -1.414214 -1.414214 
C -1.789267 -1.03916 -2 -0.530406 -2 0 
C -2 0.530406 -1.789267 1.03916 -1.414214 1.414214 
C -1.03916 1.789267 -0.530406 2 0 2 
z
" id="macecf25e38" style="stroke:#000000;"/>
    </defs>
    <g clip-path="url(#pc3fe0930b9)">
     <use style="fill:#3ea44e;stroke:#000000;" x="107.80117" xlink:href="#macecf25e38" y="241.885972"/>
     <use style="fill:#3ea44e;stroke:#000000;" x="126.004183" xlink:href="#macecf25e38" y="240.452994"/>
     <use style="fill:#3ea44e;stroke:#000000;" x="143.758745" xlink:href="#macecf25e38" y="236.189359"/>
     <use style="fill:#3ea44e;stroke:#000000;" x="160.627453" xlink:href="#macecf25e38" y="229.200097"/>
     <use style="fill:#3ea44e;stroke:#000000;" x="176.194716" xlink:href="#macecf25e38" y="219.657381"/>
     <use style="fill:#3ea44e;stroke:#000000;" x="190.076994" xlink:href="#macecf25e38" y="207.796293"/>
     <use style="fill:#3ea44e;stroke:#000000;" x="201.932249" xlink:href="#macecf25e38" y="193.909031"/>
     <use style="fill:#3ea44e;stroke:#000000;" x="211.468361" xlink:href="#macecf25e38" y="178.337723"/>
     <use style="fill:#3ea44e;stroke:#000000;" x="218.450334" xlink:href="#macecf25e38" y="161.465997"/>
     <use style="fill:#3ea44e;stroke:#000000;" x="222.706082" xlink:href="#macecf25e38" y="143.709542"/>
     <use style="fill:#3ea44e;stroke:#000000;" x="224.130678" xlink:href="#macecf25e38" y="125.505872"/>
     <use style="fill:#3ea44e;stroke:#000000;" x="222.688939" xlink:href="#macecf25e38" y="107.303552"/>
     <use style="fill:#3ea44e;stroke:#000000;" x="218.416304" xlink:href="#macecf25e38" y="89.551152"/>
     <use style="fill:#3ea44e;stroke:#000000;" x="211.417972" xlink:href="#macecf25e38" y="72.686206"/>
     <use style="fill:#3ea44e;stroke:#000000;" x="201.86632" xlink:href="#macecf25e38" y="57.124424"/>
     <use style="fill:#3ea44e;stroke:#000000;" x="189.996673" xlink:href="#macecf25e38" y="43.249463"/>
     <use style="fill:#3ea44e;stroke:#000000;" x="176.101517" xlink:href="#macecf25e38" y="31.403462"/>
    </g>
   </g>
   <g id="line2d_14">
    <path clip-path="url(#pc3fe0930b9)" d="M 107.80117 241.885972 
L 110.751856 241.848516 
L 113.70064 241.736172 
L 116.645622 241.549013 
L 119.584905 241.287159 
L 122.516593 240.950779 
L 125.438798 240.54009 
L 128.349637 240.055356 
L 131.247233 239.49689 
L 134.12972 238.865052 
L 136.995239 238.160249 
L 139.841945 237.382935 
L 142.668002 236.53361 
L 145.471589 235.612824 
L 148.250899 234.621168 
L 151.004142 233.559282 
L 153.729543 232.42785 
L 156.425346 231.227601 
L 159.089813 229.959309 
L 161.721227 228.623791 
L 164.317893 227.221908 
L 166.878137 225.754564 
L 169.400309 224.222703 
L 171.882783 222.627314 
L 174.323961 220.969423 
L 176.722268 219.2501 
L 179.07616 217.470453 
L 181.384118 215.631629 
L 183.644657 213.734812 
L 185.856318 211.781225 
L 188.017677 209.772127 
L 190.127341 207.708812 
L 192.183951 205.592611 
L 194.18618 203.424888 
L 196.132739 201.207038 
L 198.022373 198.940492 
L 199.853864 196.626709 
L 201.626033 194.267182 
L 203.337736 191.863431 
L 204.987872 189.417005 
L 206.575376 186.92948 
L 208.099225 184.40246 
L 209.558438 181.837572 
L 210.952073 179.236471 
L 212.279234 176.600832 
L 213.539064 173.932354 
L 214.730752 171.232756 
L 215.85353 168.503778 
L 216.906674 165.747179 
L 217.889505 162.964736 
L 218.801391 160.158241 
L 219.641743 157.329503 
L 220.410019 154.480346 
L 221.105726 151.612604 
L 221.728414 148.728127 
L 222.277682 145.828773 
L 222.753176 142.916411 
L 223.15459 139.992917 
L 223.481665 137.060176 
L 223.734191 134.120077 
L 223.912003 131.174516 
L 224.014989 128.22539 
L 224.043081 125.274601 
L 223.996262 122.324049 
L 223.874562 119.375636 
L 223.678058 116.431263 
L 223.406878 113.492826 
L 223.061197 110.56222 
L 222.641237 107.641332 
L 222.147268 104.732047 
L 221.57961 101.836237 
L 220.938628 98.95577 
L 220.224735 96.092502 
L 219.438391 93.248277 
L 218.580103 90.42493 
L 217.650425 87.624279 
L 216.649954 84.848129 
L 215.579336 82.09827 
L 214.439261 79.376473 
L 213.230464 76.684493 
L 211.953723 74.024064 
L 210.609862 71.396901 
L 209.199746 68.804697 
L 207.724285 66.249122 
L 206.184428 63.731824 
L 204.581169 61.254424 
L 202.91554 58.81852 
L 201.188615 56.425681 
L 199.401508 54.077449 
L 197.555368 51.775337 
L 195.651388 49.520829 
L 193.690792 47.315378 
L 191.674845 45.160405 
L 189.604847 43.057299 
L 187.48213 41.007416 
L 185.308064 39.012075 
L 183.084048 37.072564 
L 180.811517 35.190132 
L 178.491934 33.365992 
L 176.126795 31.60132 
" style="fill:none;stroke:#3ea44e;"/>
   </g>
   <g id="PathCollection_4">
    <defs>
     <path d="M 0 2 
C 0.530406 2 1.03916 1.789267 1.414214 1.414214 
C 1.789267 1.03916 2 0.530406 2 0 
C 2 -0.530406 1.789267 -1.03916 1.414214 -1.414214 
C 1.03916 -1.789267 0.530406 -2 0 -2 
C -0.530406 -2 -1.03916 -1.789267 -1.414214 -1.414214 
C -1.789267 -1.03916 -2 -0.530406 -2 0 
C -2 0.530406 -1.789267 1.03916 -1.414214 1.414214 
C -1.03916 1.789267 -0.530406 2 0 2 
z
" id="m59e882aa32" style="stroke:#000000;"/>
    </defs>
    <g clip-path="url(#pc3fe0930b9)">
     <use style="fill:#c371d2;stroke:#000000;" x="107.80117" xlink:href="#m59e882aa32" y="241.885972"/>
     <use style="fill:#c371d2;stroke:#000000;" x="125.933787" xlink:href="#m59e882aa32" y="239.738581"/>
     <use style="fill:#c371d2;stroke:#000000;" x="143.063228" xlink:href="#m59e882aa32" y="233.415184"/>
     <use style="fill:#c371d2;stroke:#000000;" x="158.24177" xlink:href="#m59e882aa32" y="223.265557"/>
     <use style="fill:#c371d2;stroke:#000000;" x="170.629538" xlink:href="#m59e882aa32" y="209.851151"/>
     <use style="fill:#c371d2;stroke:#000000;" x="179.540948" xlink:href="#m59e882aa32" y="193.914092"/>
     <use style="fill:#c371d2;stroke:#000000;" x="184.482639" xlink:href="#m59e882aa32" y="176.336186"/>
     <use style="fill:#c371d2;stroke:#000000;" x="185.180799" xlink:href="#m59e882aa32" y="158.090209"/>
     <use style="fill:#c371d2;stroke:#000000;" x="181.596379" xlink:href="#m59e882aa32" y="140.186159"/>
     <use style="fill:#c371d2;stroke:#000000;" x="173.927347" xlink:href="#m59e882aa32" y="123.615431"/>
     <use style="fill:#c371d2;stroke:#000000;" x="162.597872" xlink:href="#m59e882aa32" y="109.296"/>
     <use style="fill:#c371d2;stroke:#000000;" x="148.235015" xlink:href="#m59e882aa32" y="98.021631"/>
     <use style="fill:#c371d2;stroke:#000000;" x="131.634221" xlink:href="#m59e882aa32" y="90.417901"/>
     <use style="fill:#c371d2;stroke:#000000;" x="113.715514" xlink:href="#m59e882aa32" y="86.907481"/>
     <use style="fill:#c371d2;stroke:#000000;" x="95.469862" xlink:href="#m59e882aa32" y="87.614056"/>
     <use style="fill:#c371d2;stroke:#000000;" x="77.895703" xlink:href="#m59e882aa32" y="92.569055"/>
     <use style="fill:#c371d2;stroke:#000000;" x="61.967531" xlink:href="#m59e882aa32" y="101.496341"/>
    </g>
   </g>
   <g id="line2d_15">
    <path clip-path="url(#pc3fe0930b9)" d="M 107.80117 241.885972 
L 110.75146 241.829792 
L 113.697472 241.661333 
L 116.634934 241.380839 
L 119.559589 240.988717 
L 122.467195 240.485536 
L 125.353537 239.872025 
L 128.214429 239.149074 
L 131.045725 238.317731 
L 133.843317 237.379201 
L 136.603152 236.334845 
L 139.321226 235.186177 
L 141.993599 233.934863 
L 144.616396 232.582717 
L 147.185815 231.1317 
L 149.698129 229.583915 
L 152.149697 227.941606 
L 154.536964 226.207155 
L 156.856469 224.383076 
L 159.104848 222.472015 
L 161.278842 220.476742 
L 163.375298 218.400149 
L 165.391177 216.245249 
L 167.323556 214.015165 
L 169.169633 211.71313 
L 170.926732 209.342483 
L 172.592305 206.90666 
L 174.163936 204.409194 
L 175.639349 201.853705 
L 177.016402 199.243899 
L 178.2931 196.58356 
L 179.467591 193.876544 
L 180.538173 191.126777 
L 181.503293 188.338245 
L 182.361552 185.514993 
L 183.111706 182.661112 
L 183.752666 179.780742 
L 184.283504 176.878058 
L 184.70345 173.957269 
L 185.011895 171.022609 
L 185.208392 168.078335 
L 185.292656 165.128714 
L 185.264565 162.178023 
L 185.124159 159.230541 
L 184.871642 156.290541 
L 184.507381 153.362286 
L 184.031902 150.450022 
L 183.445897 147.55797 
L 182.750214 144.690325 
L 181.945861 141.851244 
L 181.034007 139.044843 
L 180.015971 136.275192 
L 178.893231 133.546306 
L 177.667414 130.862142 
L 176.340298 128.226591 
L 174.913807 125.643475 
L 173.390009 123.11654 
L 171.771113 120.649448 
L 170.059467 118.245778 
L 168.257552 115.909013 
L 166.367982 113.642543 
L 164.393495 111.449653 
L 162.336955 109.333523 
L 160.201343 107.297222 
L 157.989755 105.3437 
L 155.7054 103.475792 
L 153.351587 101.696204 
L 150.931731 100.007518 
L 148.44934 98.412182 
L 145.908012 96.912509 
L 143.311434 95.510673 
L 140.663368 94.208707 
L 137.967656 93.008499 
L 135.228206 91.911788 
L 132.448988 90.920166 
L 129.634034 90.035069 
L 126.787424 89.25778 
L 123.913286 88.589428 
L 121.015787 88.030981 
L 118.099128 87.583249 
L 115.167538 87.24688 
L 112.225268 87.022363 
L 109.276583 86.910023 
L 106.325758 86.910023 
L 103.377073 87.022363 
L 100.434803 87.24688 
L 97.503213 87.583249 
L 94.586553 88.030981 
L 91.689054 88.589428 
L 88.814916 89.25778 
L 85.968307 90.035069 
L 83.153352 90.920166 
L 80.374135 91.911788 
L 77.634684 93.008499 
L 74.938972 94.208707 
L 72.290907 95.510673 
L 69.694329 96.912509 
L 67.153001 98.412182 
L 64.67061 100.007518 
L 62.250754 101.696204 
" style="fill:none;stroke:#c371d2;"/>
   </g>
   <g id="PathCollection_5">
    <defs>
     <path d="M 0 2 
C 0.530406 2 1.03916 1.789267 1.414214 1.414214 
C 1.789267 1.03916 2 0.530406 2 0 
C 2 -0.530406 1.789267 -1.03916 1.414214 -1.414214 
C 1.03916 -1.789267 0.530406 -2 0 -2 
C -0.530406 -2 -1.03916 -1.789267 -1.414214 -1.414214 
C -1.789267 -1.03916 -2 -0.530406 -2 0 
C -2 0.530406 -1.789267 1.03916 -1.414214 1.414214 
C -1.03916 1.789267 -0.530406 2 0 2 
z
" id="m78a65b9724" style="stroke:#000000;"/>
    </defs>
    <g clip-path="url(#pc3fe0930b9)">
     <use style="fill:#ac8e18;stroke:#000000;" x="107.80117" xlink:href="#m78a65b9724" y="241.885972"/>
     <use style="fill:#ac8e18;stroke:#000000;" x="125.835234" xlink:href="#m78a65b9724" y="239.026663"/>
     <use style="fill:#ac8e18;stroke:#000000;" x="142.100335" xlink:href="#m78a65b9724" y="230.7291"/>
     <use style="fill:#ac8e18;stroke:#000000;" x="155.000777" xlink:href="#m78a65b9724" y="217.80696"/>
     <use style="fill:#ac8e18;stroke:#000000;" x="163.270476" xlink:href="#m78a65b9724" y="201.527674"/>
     <use style="fill:#ac8e18;stroke:#000000;" x="166.097146" xlink:href="#m78a65b9724" y="183.488466"/>
     <use style="fill:#ac8e18;stroke:#000000;" x="163.202179" xlink:href="#m78a65b9724" y="165.460093"/>
     <use style="fill:#ac8e18;stroke:#000000;" x="154.868433" xlink:href="#m78a65b9724" y="149.213501"/>
     <use style="fill:#ac8e18;stroke:#000000;" x="141.913184" xlink:href="#m78a65b9724" y="136.346309"/>
     <use style="fill:#ac8e18;stroke:#000000;" x="125.608896" xlink:href="#m78a65b9724" y="128.126013"/>
     <use style="fill:#ac8e18;stroke:#000000;" x="107.559497" xlink:href="#m78a65b9724" y="125.365165"/>
     <use style="fill:#ac8e18;stroke:#000000;" x="89.508477" xlink:href="#m78a65b9724" y="128.115389"/>
     <use style="fill:#ac8e18;stroke:#000000;" x="73.199357" xlink:href="#m78a65b9724" y="136.326096"/>
     <use style="fill:#ac8e18;stroke:#000000;" x="60.236548" xlink:href="#m78a65b9724" y="149.18567"/>
     <use style="fill:#ac8e18;stroke:#000000;" x="51.893257" xlink:href="#m78a65b9724" y="165.427363"/>
     <use style="fill:#ac8e18;stroke:#000000;" x="48.987702" xlink:href="#m78a65b9724" y="183.454033"/>
     <use style="fill:#ac8e18;stroke:#000000;" x="51.803778" xlink:href="#m78a65b9724" y="201.494897"/>
    </g>
   </g>
   <g id="line2d_16">
    <path clip-path="url(#pc3fe0930b9)" d="M 107.80117 241.885972 
L 110.750905 241.811072 
L 113.693038 241.586565 
L 116.619984 241.213031 
L 119.524202 240.691431 
L 122.398205 240.02311 
L 125.234586 239.209791 
L 128.026035 238.25357 
L 130.765357 237.156911 
L 133.445492 235.92264 
L 136.059532 234.55394 
L 138.600739 233.054337 
L 141.062566 231.427697 
L 143.438665 229.678213 
L 145.722914 227.810392 
L 147.909424 225.829049 
L 149.992561 223.739292 
L 151.966955 221.546505 
L 153.827517 219.256341 
L 155.569453 216.874701 
L 157.188273 214.407726 
L 158.679804 211.861772 
L 160.040202 209.243402 
L 161.265961 206.559364 
L 162.353922 203.816576 
L 163.301281 201.022106 
L 164.105595 198.183159 
L 164.764792 195.307049 
L 165.277173 192.401191 
L 165.641418 189.473074 
L 165.856587 186.530244 
L 165.922126 183.580286 
L 165.837866 180.630804 
L 165.604024 177.689399 
L 165.221204 174.763652 
L 164.69039 171.861104 
L 164.012953 168.989237 
L 163.190637 166.155451 
L 162.225562 163.36705 
L 161.120216 160.631222 
L 159.877447 157.955018 
L 158.500458 155.345334 
L 156.992799 152.808898 
L 155.358355 150.352246 
L 153.601339 147.98171 
L 151.726279 145.7034 
L 149.738008 143.523188 
L 147.64165 141.446694 
L 145.442609 139.479268 
L 143.146552 137.625982 
L 140.759397 135.891613 
L 138.287297 134.28063 
L 135.736623 132.797185 
L 133.113949 131.445103 
L 130.426035 130.227867 
L 127.679808 129.148616 
L 124.882347 128.21013 
L 122.040861 127.414828 
L 119.162674 126.764761 
L 116.255205 126.261604 
L 113.325946 125.906653 
L 110.382448 125.700824 
L 107.432298 125.644646 
L 104.483097 125.738265 
L 101.542449 125.98144 
L 98.617932 126.373543 
L 95.717083 126.913564 
L 92.84738 127.600112 
L 90.016218 128.431416 
L 87.230894 129.405334 
L 84.498587 130.519357 
L 81.82634 131.770612 
L 79.221039 133.155875 
L 76.6894 134.671575 
L 74.237947 136.313807 
L 71.872999 138.078337 
L 69.60065 139.960617 
L 67.426759 141.955797 
L 65.356927 144.058733 
L 63.396489 146.264006 
L 61.550499 148.565933 
L 59.823713 150.958579 
L 58.220583 153.435779 
L 56.74524 155.991148 
L 55.401487 158.618099 
L 54.192788 161.309863 
L 53.122256 164.0595 
L 52.192652 166.859926 
L 51.406372 169.703921 
L 50.765441 172.584156 
L 50.271513 175.493208 
L 49.925859 178.423578 
L 49.729371 181.367714 
L 49.682556 184.318028 
L 49.785533 187.266916 
L 50.038038 190.206778 
L 50.43942 193.130036 
L 50.988644 196.029157 
L 51.684294 198.896667 
L 52.524579 201.725177 
" style="fill:none;stroke:#ac8e18;"/>
   </g>
   <g id="PathCollection_6">
    <defs>
     <path d="M 0 2 
C 0.530406 2 1.03916 1.789267 1.414214 1.414214 
C 1.789267 1.03916 2 0.530406 2 0 
C 2 -0.530406 1.789267 -1.03916 1.414214 -1.414214 
C 1.03916 -1.789267 0.530406 -2 0 -2 
C -0.530406 -2 -1.03916 -1.789267 -1.414214 -1.414214 
C -1.789267 -1.03916 -2 -0.530406 -2 0 
C -2 0.530406 -1.789267 1.03916 -1.414214 1.414214 
C -1.03916 1.789267 -0.530406 2 0 2 
z
" id="m301bd8fbf8" style="stroke:#000000;"/>
    </defs>
    <g clip-path="url(#pc3fe0930b9)">
     <use style="fill:#00aaae;stroke:#000000;" x="107.80117" xlink:href="#m301bd8fbf8" y="241.885972"/>
     <use style="fill:#00aaae;stroke:#000000;" x="125.775397" xlink:href="#m301bd8fbf8" y="238.671902"/>
     <use style="fill:#00aaae;stroke:#000000;" x="141.521852" xlink:href="#m301bd8fbf8" y="229.427863"/>
     <use style="fill:#00aaae;stroke:#000000;" x="153.088372" xlink:href="#m301bd8fbf8" y="215.299215"/>
     <use style="fill:#00aaae;stroke:#000000;" x="159.040074" xlink:href="#m301bd8fbf8" y="198.037109"/>
     <use style="fill:#00aaae;stroke:#000000;" x="158.637305" xlink:href="#m301bd8fbf8" y="179.782223"/>
     <use style="fill:#00aaae;stroke:#000000;" x="151.927951" xlink:href="#m301bd8fbf8" y="162.800243"/>
     <use style="fill:#00aaae;stroke:#000000;" x="139.742714" xlink:href="#m301bd8fbf8" y="149.2016"/>
     <use style="fill:#00aaae;stroke:#000000;" x="123.593903" xlink:href="#m301bd8fbf8" y="140.679923"/>
     <use style="fill:#00aaae;stroke:#000000;" x="105.490168" xlink:href="#m301bd8fbf8" y="138.3013"/>
     <use style="fill:#00aaae;stroke:#000000;" x="87.630368" xlink:href="#m301bd8fbf8" y="142.10007"/>
     <use style="fill:#00aaae;stroke:#000000;" x="72.203033" xlink:href="#m301bd8fbf8" y="151.867384"/>
     <use style="fill:#00aaae;stroke:#000000;" x="61.126056" xlink:href="#m301bd8fbf8" y="166.383019"/>
     <use style="fill:#00aaae;stroke:#000000;" x="55.773563" xlink:href="#m301bd8fbf8" y="183.840221"/>
     <use style="fill:#00aaae;stroke:#000000;" x="56.807691" xlink:href="#m301bd8fbf8" y="202.070242"/>
     <use style="fill:#00aaae;stroke:#000000;" x="64.09816" xlink:href="#m301bd8fbf8" y="218.810975"/>
     <use style="fill:#00aaae;stroke:#000000;" x="76.739504" xlink:href="#m301bd8fbf8" y="231.986691"/>
    </g>
   </g>
   <g id="line2d_17">
    <path clip-path="url(#pc3fe0930b9)" d="M 107.80117 241.885972 
L 110.750569 241.801714 
L 113.690346 241.549217 
L 116.610915 241.129302 
L 119.502748 240.543341 
L 122.356413 239.793244 
L 125.162602 238.881458 
L 127.912161 237.810957 
L 130.596123 236.585233 
L 133.205732 235.208283 
L 135.732476 233.6846 
L 138.168115 232.019153 
L 140.504703 230.217375 
L 142.734619 228.285142 
L 144.850589 226.228757 
L 146.845711 224.054927 
L 148.713479 221.770744 
L 150.447799 219.383657 
L 152.043014 216.901453 
L 153.493922 214.332229 
L 154.79579 211.684364 
L 155.944371 208.966495 
L 156.935919 206.187488 
L 157.767199 203.356406 
L 158.435501 200.482485 
L 158.938644 197.575099 
L 159.274987 194.64373 
L 159.443433 191.697941 
L 159.443433 188.747339 
L 159.274987 185.80155 
L 158.938644 182.870181 
L 158.435501 179.962795 
L 157.767199 177.088874 
L 156.935919 174.257793 
L 155.944371 171.478785 
L 154.79579 168.760916 
L 153.493922 166.113051 
L 152.043014 163.543827 
L 150.447799 161.061623 
L 148.713479 158.674536 
L 146.845711 156.390353 
L 144.850589 154.216523 
L 142.734619 152.160138 
L 140.504703 150.227905 
L 138.168115 148.426127 
L 135.732476 146.76068 
L 133.205732 145.236997 
L 130.596123 143.860047 
L 127.912161 142.634323 
L 125.162602 141.563822 
L 122.356413 140.652036 
L 119.502748 139.901939 
L 116.610915 139.315978 
L 113.690346 138.896064 
L 110.750569 138.643566 
L 107.80117 138.559308 
L 104.851772 138.643566 
L 101.911994 138.896064 
L 98.991426 139.315978 
L 96.099593 139.901939 
L 93.245928 140.652036 
L 90.439739 141.563822 
L 87.69018 142.634323 
L 85.006218 143.860047 
L 82.396609 145.236997 
L 79.869865 146.76068 
L 77.434226 148.426127 
L 75.097638 150.227905 
L 72.867722 152.160138 
L 70.751752 154.216523 
L 68.756629 156.390353 
L 66.888862 158.674536 
L 65.154542 161.061623 
L 63.559326 163.543827 
L 62.108419 166.113051 
L 60.806551 168.760916 
L 59.65797 171.478785 
L 58.666422 174.257793 
L 57.835142 177.088874 
L 57.16684 179.962795 
L 56.663697 182.870181 
L 56.327354 185.80155 
L 56.158907 188.747339 
L 56.158907 191.697941 
L 56.327354 194.64373 
L 56.663697 197.575099 
L 57.16684 200.482485 
L 57.835142 203.356406 
L 58.666422 206.187488 
L 59.65797 208.966495 
L 60.806551 211.684364 
L 62.108419 214.332229 
L 63.559326 216.901453 
L 65.154542 219.383657 
L 66.888862 221.770744 
L 68.756629 224.054927 
L 70.751752 226.228757 
L 72.867722 228.285142 
L 75.097638 230.217375 
L 77.434226 232.019153 
" style="fill:none;stroke:#00aaae;"/>
   </g>
   <g id="PathCollection_7">
    <defs>
     <path d="M 0 2 
C 0.530406 2 1.03916 1.789267 1.414214 1.414214 
C 1.789267 1.03916 2 0.530406 2 0 
C 2 -0.530406 1.789267 -1.03916 1.414214 -1.414214 
C 1.03916 -1.789267 0.530406 -2 0 -2 
C -0.530406 -2 -1.03916 -1.789267 -1.414214 -1.414214 
C -1.789267 -1.03916 -2 -0.530406 -2 0 
C -2 0.530406 -1.789267 1.03916 -1.414214 1.414214 
C -1.03916 1.789267 -0.530406 2 0 2 
z
" id="m1a99fd3dc4" style="stroke:#000000;"/>
    </defs>
    <g clip-path="url(#pc3fe0930b9)">
     <use style="fill:#ed5e93;stroke:#000000;" x="107.80117" xlink:href="#m1a99fd3dc4" y="241.885972"/>
     <use style="fill:#ed5e93;stroke:#000000;" x="125.708522" xlink:href="#m1a99fd3dc4" y="238.31808"/>
     <use style="fill:#ed5e93;stroke:#000000;" x="140.880762" xlink:href="#m1a99fd3dc4" y="228.159035"/>
     <use style="fill:#ed5e93;stroke:#000000;" x="150.999605" xlink:href="#m1a99fd3dc4" y="212.959953"/>
     <use style="fill:#ed5e93;stroke:#000000;" x="154.517243" xlink:href="#m1a99fd3dc4" y="195.042662"/>
     <use style="fill:#ed5e93;stroke:#000000;" x="150.893222" xlink:href="#m1a99fd3dc4" y="177.146586"/>
     <use style="fill:#ed5e93;stroke:#000000;" x="140.678603" xlink:href="#m1a99fd3dc4" y="162.011704"/>
     <use style="fill:#ed5e93;stroke:#000000;" x="125.434599" xlink:href="#m1a99fd3dc4" y="151.960663"/>
     <use style="fill:#ed5e93;stroke:#000000;" x="107.497943" xlink:href="#m1a99fd3dc4" y="148.543143"/>
     <use style="fill:#ed5e93;stroke:#000000;" x="89.558133" xlink:href="#m1a99fd3dc4" y="151.944069"/>
     <use style="fill:#ed5e93;stroke:#000000;" x="74.30485" xlink:href="#m1a99fd3dc4" y="161.981024"/>
     <use style="fill:#ed5e93;stroke:#000000;" x="64.076267" xlink:href="#m1a99fd3dc4" y="177.106472"/>
     <use style="fill:#ed5e93;stroke:#000000;" x="60.435742" xlink:href="#m1a99fd3dc4" y="194.999198"/>
     <use style="fill:#ed5e93;stroke:#000000;" x="63.936861" xlink:href="#m1a99fd3dc4" y="212.919724"/>
     <use style="fill:#ed5e93;stroke:#000000;" x="74.041692" xlink:href="#m1a99fd3dc4" y="228.128125"/>
     <use style="fill:#ed5e93;stroke:#000000;" x="89.204565" xlink:href="#m1a99fd3dc4" y="238.301146"/>
     <use style="fill:#ed5e93;stroke:#000000;" x="107.108622" xlink:href="#m1a99fd3dc4" y="241.885534"/>
    </g>
   </g>
   <g id="line2d_18">
    <path clip-path="url(#pc3fe0930b9)" d="M 107.80117 241.885972 
L 110.750192 241.792358 
L 113.68734 241.511895 
L 116.600785 241.04571 
L 119.478798 240.395683 
L 122.309789 239.564429 
L 125.082359 238.555296 
L 127.785344 237.372347 
L 130.407859 236.020346 
L 132.939346 234.504738 
L 135.36961 232.831623 
L 137.688865 231.007741 
L 139.887773 229.040434 
L 141.95748 226.937624 
L 143.889651 224.70778 
L 145.676507 222.359879 
L 147.310852 219.903375 
L 148.786106 217.348161 
L 150.096328 214.704525 
L 151.236242 211.983111 
L 152.201259 209.19488 
L 152.987491 206.351056 
L 153.591775 203.463092 
L 154.011676 200.542617 
L 154.245504 197.60139 
L 154.292316 194.651254 
L 154.151925 191.704088 
L 153.824897 188.77176 
L 153.312546 185.866078 
L 152.616938 182.998741 
L 151.740872 180.181295 
L 150.687877 177.425084 
L 149.462192 174.741209 
L 148.068752 172.140474 
L 146.51317 169.633353 
L 144.801708 167.22994 
L 142.941257 164.939915 
L 140.93931 162.772496 
L 138.803928 160.736413 
L 136.543708 158.839864 
L 134.167752 157.090484 
L 131.685627 155.49532 
L 129.107328 154.060793 
L 126.443237 152.79268 
L 123.704081 151.696087 
L 120.900889 150.77543 
L 118.044949 150.034416 
L 115.147761 149.476029 
L 112.220991 149.102517 
L 109.276424 148.915384 
L 106.325917 148.915384 
L 103.38135 149.102517 
L 100.45458 149.476029 
L 97.557392 150.034416 
L 94.701452 150.77543 
L 91.89826 151.696087 
L 89.159104 152.79268 
L 86.495012 154.060793 
L 83.916713 155.49532 
L 81.434589 157.090484 
L 79.058633 158.839864 
L 76.798413 160.736413 
L 74.663031 162.772496 
L 72.661084 164.939915 
L 70.800633 167.22994 
L 69.089171 169.633353 
L 67.533588 172.140474 
L 66.140149 174.741209 
L 64.914464 177.425084 
L 63.861469 180.181295 
L 62.985403 182.998741 
L 62.289794 185.866078 
L 61.777444 188.77176 
L 61.450415 191.704088 
L 61.310025 194.651254 
L 61.356837 197.60139 
L 61.590665 200.542617 
L 62.010566 203.463092 
L 62.614849 206.351056 
L 63.401082 209.19488 
L 64.366099 211.983111 
L 65.506013 214.704525 
L 66.816235 217.348161 
L 68.291488 219.903375 
L 69.925834 222.359879 
L 71.712689 224.70778 
L 73.644861 226.937624 
L 75.714568 229.040434 
L 77.913476 231.007741 
L 80.232731 232.831623 
L 82.662995 234.504738 
L 85.194481 236.020346 
L 87.816997 237.372347 
L 90.519982 238.555296 
L 93.292552 239.564429 
L 96.123543 240.395683 
L 99.001556 241.04571 
L 101.915001 241.511895 
L 104.852149 241.792358 
L 107.80117 241.885972 
" style="fill:none;stroke:#ed5e93;"/>
   </g>
   <g id="legend_1">
    <g id="patch_5">
     <path d="M 350.680354 126.649065 
L 425.165354 126.649065 
L 425.165354 12.166565 
L 350.680354 12.166565 
z
" style="fill:#ffffff;stroke:#000000;stroke-linejoin:miter;"/>
    </g>
    <g id="line2d_19">
     <path d="M 357.080354 21.845315 
L 373.080354 21.845315 
" style="fill:none;"/>
    </g>
    <g id="line2d_20">
     <defs>
      <path d="M 0 3.2 
C 0.84865 3.2 1.662656 2.862828 2.262742 2.262742 
C 2.862828 1.662656 3.2 0.84865 3.2 0 
C 3.2 -0.84865 2.862828 -1.662656 2.262742 -2.262742 
C 1.662656 -2.862828 0.84865 -3.2 0 -3.2 
C -0.84865 -3.2 -1.662656 -2.862828 -2.262742 -2.262742 
C -2.862828 -1.662656 -3.2 -0.84865 -3.2 0 
C -3.2 0.84865 -2.862828 1.662656 -2.262742 2.262742 
C -1.662656 2.862828 -0.84865 3.2 0 3.2 
z
" id="m56dacb5d4a" style="stroke:#000000;stroke-width:1.6;"/>
     </defs>
     <g>
      <use style="stroke:#000000;stroke-width:1.6;" x="365.080354" xlink:href="#m56dacb5d4a" y="21.845315"/>
     </g>
    </g>
    <g id="text_14">
     <!-- GXBeam -->
     <g transform="translate(379.480354 24.645315)scale(0.08 -0.08)">
      <defs>
       <path d="M 59.515625 10.40625 
L 59.515625 29.984375 
L 43.40625 29.984375 
L 43.40625 38.09375 
L 69.28125 38.09375 
L 69.28125 6.78125 
Q 63.578125 2.734375 56.6875 0.65625 
Q 49.8125 -1.421875 42 -1.421875 
Q 24.90625 -1.421875 15.25 8.5625 
Q 5.609375 18.5625 5.609375 36.375 
Q 5.609375 54.25 15.25 64.234375 
Q 24.90625 74.21875 42 74.21875 
Q 49.125 74.21875 55.546875 72.453125 
Q 61.96875 70.703125 67.390625 67.28125 
L 67.390625 56.78125 
Q 61.921875 61.421875 55.765625 63.765625 
Q 49.609375 66.109375 42.828125 66.109375 
Q 29.4375 66.109375 22.71875 58.640625 
Q 16.015625 51.171875 16.015625 36.375 
Q 16.015625 21.625 22.71875 14.15625 
Q 29.4375 6.6875 42.828125 6.6875 
Q 48.046875 6.6875 52.140625 7.59375 
Q 56.25 8.5 59.515625 10.40625 
z
" id="DejaVuSans-71"/>
       <path d="M 6.296875 72.90625 
L 16.890625 72.90625 
L 35.015625 45.796875 
L 53.21875 72.90625 
L 63.8125 72.90625 
L 40.375 37.890625 
L 65.375 0 
L 54.78125 0 
L 34.28125 31 
L 13.625 0 
L 2.984375 0 
L 29 38.921875 
z
" id="DejaVuSans-88"/>
       <path d="M 19.671875 34.8125 
L 19.671875 8.109375 
L 35.5 8.109375 
Q 43.453125 8.109375 47.28125 11.40625 
Q 51.125 14.703125 51.125 21.484375 
Q 51.125 28.328125 47.28125 31.5625 
Q 43.453125 34.8125 35.5 34.8125 
z
M 19.671875 64.796875 
L 19.671875 42.828125 
L 34.28125 42.828125 
Q 41.5 42.828125 45.03125 45.53125 
Q 48.578125 48.25 48.578125 53.8125 
Q 48.578125 59.328125 45.03125 62.0625 
Q 41.5 64.796875 34.28125 64.796875 
z
M 9.8125 72.90625 
L 35.015625 72.90625 
Q 46.296875 72.90625 52.390625 68.21875 
Q 58.5 63.53125 58.5 54.890625 
Q 58.5 48.1875 55.375 44.234375 
Q 52.25 40.28125 46.1875 39.3125 
Q 53.46875 37.75 57.5 32.78125 
Q 61.53125 27.828125 61.53125 20.40625 
Q 61.53125 10.640625 54.890625 5.3125 
Q 48.25 0 35.984375 0 
L 9.8125 0 
z
" id="DejaVuSans-66"/>
       <path d="M 56.203125 29.59375 
L 56.203125 25.203125 
L 14.890625 25.203125 
Q 15.484375 15.921875 20.484375 11.0625 
Q 25.484375 6.203125 34.421875 6.203125 
Q 39.59375 6.203125 44.453125 7.46875 
Q 49.3125 8.734375 54.109375 11.28125 
L 54.109375 2.78125 
Q 49.265625 0.734375 44.1875 -0.34375 
Q 39.109375 -1.421875 33.890625 -1.421875 
Q 20.796875 -1.421875 13.15625 6.1875 
Q 5.515625 13.8125 5.515625 26.8125 
Q 5.515625 40.234375 12.765625 48.109375 
Q 20.015625 56 32.328125 56 
Q 43.359375 56 49.78125 48.890625 
Q 56.203125 41.796875 56.203125 29.59375 
z
M 47.21875 32.234375 
Q 47.125 39.59375 43.09375 43.984375 
Q 39.0625 48.390625 32.421875 48.390625 
Q 24.90625 48.390625 20.390625 44.140625 
Q 15.875 39.890625 15.1875 32.171875 
z
" id="DejaVuSans-101"/>
       <path d="M 34.28125 27.484375 
Q 23.390625 27.484375 19.1875 25 
Q 14.984375 22.515625 14.984375 16.5 
Q 14.984375 11.71875 18.140625 8.90625 
Q 21.296875 6.109375 26.703125 6.109375 
Q 34.1875 6.109375 38.703125 11.40625 
Q 43.21875 16.703125 43.21875 25.484375 
L 43.21875 27.484375 
z
M 52.203125 31.203125 
L 52.203125 0 
L 43.21875 0 
L 43.21875 8.296875 
Q 40.140625 3.328125 35.546875 0.953125 
Q 30.953125 -1.421875 24.3125 -1.421875 
Q 15.921875 -1.421875 10.953125 3.296875 
Q 6 8.015625 6 15.921875 
Q 6 25.140625 12.171875 29.828125 
Q 18.359375 34.515625 30.609375 34.515625 
L 43.21875 34.515625 
L 43.21875 35.40625 
Q 43.21875 41.609375 39.140625 45 
Q 35.0625 48.390625 27.6875 48.390625 
Q 23 48.390625 18.546875 47.265625 
Q 14.109375 46.140625 10.015625 43.890625 
L 10.015625 52.203125 
Q 14.9375 54.109375 19.578125 55.046875 
Q 24.21875 56 28.609375 56 
Q 40.484375 56 46.34375 49.84375 
Q 52.203125 43.703125 52.203125 31.203125 
z
" id="DejaVuSans-97"/>
       <path d="M 52 44.1875 
Q 55.375 50.25 60.0625 53.125 
Q 64.75 56 71.09375 56 
Q 79.640625 56 84.28125 50.015625 
Q 88.921875 44.046875 88.921875 33.015625 
L 88.921875 0 
L 79.890625 0 
L 79.890625 32.71875 
Q 79.890625 40.578125 77.09375 44.375 
Q 74.3125 48.1875 68.609375 48.1875 
Q 61.625 48.1875 57.5625 43.546875 
Q 53.515625 38.921875 53.515625 30.90625 
L 53.515625 0 
L 44.484375 0 
L 44.484375 32.71875 
Q 44.484375 40.625 41.703125 44.40625 
Q 38.921875 48.1875 33.109375 48.1875 
Q 26.21875 48.1875 22.15625 43.53125 
Q 18.109375 38.875 18.109375 30.90625 
L 18.109375 0 
L 9.078125 0 
L 9.078125 54.6875 
L 18.109375 54.6875 
L 18.109375 46.1875 
Q 21.1875 51.21875 25.484375 53.609375 
Q 29.78125 56 35.6875 56 
Q 41.65625 56 45.828125 52.96875 
Q 50 49.953125 52 44.1875 
z
" id="DejaVuSans-109"/>
      </defs>
      <use xlink:href="#DejaVuSans-71"/>
      <use x="77.490234" xlink:href="#DejaVuSans-88"/>
      <use x="145.996094" xlink:href="#DejaVuSans-66"/>
      <use x="214.599609" xlink:href="#DejaVuSans-101"/>
      <use x="276.123047" xlink:href="#DejaVuSans-97"/>
      <use x="337.402344" xlink:href="#DejaVuSans-109"/>
     </g>
    </g>
    <g id="line2d_21">
     <path d="M 357.080354 33.587815 
L 373.080354 33.587815 
" style="fill:none;stroke:#000000;stroke-linejoin:miter;"/>
    </g>
    <g id="line2d_22"/>
    <g id="text_15">
     <!-- Analytical -->
     <g transform="translate(379.480354 36.387815)scale(0.08 -0.08)">
      <defs>
       <path d="M 34.1875 63.1875 
L 20.796875 26.90625 
L 47.609375 26.90625 
z
M 28.609375 72.90625 
L 39.796875 72.90625 
L 67.578125 0 
L 57.328125 0 
L 50.6875 18.703125 
L 17.828125 18.703125 
L 11.1875 0 
L 0.78125 0 
z
" id="DejaVuSans-65"/>
       <path d="M 54.890625 33.015625 
L 54.890625 0 
L 45.90625 0 
L 45.90625 32.71875 
Q 45.90625 40.484375 42.875 44.328125 
Q 39.84375 48.1875 33.796875 48.1875 
Q 26.515625 48.1875 22.3125 43.546875 
Q 18.109375 38.921875 18.109375 30.90625 
L 18.109375 0 
L 9.078125 0 
L 9.078125 54.6875 
L 18.109375 54.6875 
L 18.109375 46.1875 
Q 21.34375 51.125 25.703125 53.5625 
Q 30.078125 56 35.796875 56 
Q 45.21875 56 50.046875 50.171875 
Q 54.890625 44.34375 54.890625 33.015625 
z
" id="DejaVuSans-110"/>
       <path d="M 9.421875 75.984375 
L 18.40625 75.984375 
L 18.40625 0 
L 9.421875 0 
z
" id="DejaVuSans-108"/>
       <path d="M 18.3125 70.21875 
L 18.3125 54.6875 
L 36.8125 54.6875 
L 36.8125 47.703125 
L 18.3125 47.703125 
L 18.3125 18.015625 
Q 18.3125 11.328125 20.140625 9.421875 
Q 21.96875 7.515625 27.59375 7.515625 
L 36.8125 7.515625 
L 36.8125 0 
L 27.59375 0 
Q 17.1875 0 13.234375 3.875 
Q 9.28125 7.765625 9.28125 18.015625 
L 9.28125 47.703125 
L 2.6875 47.703125 
L 2.6875 54.6875 
L 9.28125 54.6875 
L 9.28125 70.21875 
z
" id="DejaVuSans-116"/>
       <path d="M 9.421875 54.6875 
L 18.40625 54.6875 
L 18.40625 0 
L 9.421875 0 
z
M 9.421875 75.984375 
L 18.40625 75.984375 
L 18.40625 64.59375 
L 9.421875 64.59375 
z
" id="DejaVuSans-105"/>
       <path d="M 48.78125 52.59375 
L 48.78125 44.1875 
Q 44.96875 46.296875 41.140625 47.34375 
Q 37.3125 48.390625 33.40625 48.390625 
Q 24.65625 48.390625 19.8125 42.84375 
Q 14.984375 37.3125 14.984375 27.296875 
Q 14.984375 17.28125 19.8125 11.734375 
Q 24.65625 6.203125 33.40625 6.203125 
Q 37.3125 6.203125 41.140625 7.25 
Q 44.96875 8.296875 48.78125 10.40625 
L 48.78125 2.09375 
Q 45.015625 0.34375 40.984375 -0.53125 
Q 36.96875 -1.421875 32.421875 -1.421875 
Q 20.0625 -1.421875 12.78125 6.34375 
Q 5.515625 14.109375 5.515625 27.296875 
Q 5.515625 40.671875 12.859375 48.328125 
Q 20.21875 56 33.015625 56 
Q 37.15625 56 41.109375 55.140625 
Q 45.0625 54.296875 48.78125 52.59375 
z
" id="DejaVuSans-99"/>
      </defs>
      <use xlink:href="#DejaVuSans-65"/>
      <use x="68.408203" xlink:href="#DejaVuSans-110"/>
      <use x="131.787109" xlink:href="#DejaVuSans-97"/>
      <use x="193.066406" xlink:href="#DejaVuSans-108"/>
      <use x="220.849609" xlink:href="#DejaVuSans-121"/>
      <use x="280.029297" xlink:href="#DejaVuSans-116"/>
      <use x="319.238281" xlink:href="#DejaVuSans-105"/>
      <use x="347.021484" xlink:href="#DejaVuSans-99"/>
      <use x="402.001953" xlink:href="#DejaVuSans-97"/>
      <use x="463.28125" xlink:href="#DejaVuSans-108"/>
     </g>
    </g>
    <g id="line2d_23">
     <path d="M 357.080354 45.330315 
L 373.080354 45.330315 
" style="fill:none;stroke:#009afa;stroke-linejoin:miter;"/>
    </g>
    <g id="line2d_24"/>
    <g id="text_16">
     <!-- =0.0 -->
     <g transform="translate(379.480354 48.130315)scale(0.08 -0.08)">
      <defs>
       <path d="M 30.953125 67.4375 
L 56.203125 0 
L 46.6875 0 
L 31.34375 40.4375 
L 12.5 0 
L 2.984375 0 
L 26.953125 52.4375 
L 23.34375 62.109375 
Q 21.046875 68.265625 15.828125 68.265625 
L 11.140625 68.265625 
L 11.140625 75.984375 
L 16.84375 75.875 
Q 27.875 75.734375 30.953125 67.4375 
z
" id="DejaVuSans-955"/>
       <path d="M 10.59375 45.40625 
L 73.1875 45.40625 
L 73.1875 37.203125 
L 10.59375 37.203125 
z
M 10.59375 25.484375 
L 73.1875 25.484375 
L 73.1875 17.1875 
L 10.59375 17.1875 
z
" id="DejaVuSans-61"/>
      </defs>
      <use xlink:href="#DejaVuSans-955"/>
      <use x="59.179688" xlink:href="#DejaVuSans-61"/>
      <use x="142.96875" xlink:href="#DejaVuSans-48"/>
      <use x="206.591797" xlink:href="#DejaVuSans-46"/>
      <use x="238.378906" xlink:href="#DejaVuSans-48"/>
     </g>
    </g>
    <g id="line2d_25">
     <path d="M 357.080354 57.072815 
L 373.080354 57.072815 
" style="fill:none;stroke:#e36f47;stroke-linejoin:miter;"/>
    </g>
    <g id="line2d_26"/>
    <g id="text_17">
     <!-- =0.4 -->
     <g transform="translate(379.480354 59.872815)scale(0.08 -0.08)">
      <use xlink:href="#DejaVuSans-955"/>
      <use x="59.179688" xlink:href="#DejaVuSans-61"/>
      <use x="142.96875" xlink:href="#DejaVuSans-48"/>
      <use x="206.591797" xlink:href="#DejaVuSans-46"/>
      <use x="238.378906" xlink:href="#DejaVuSans-52"/>
     </g>
    </g>
    <g id="line2d_27">
     <path d="M 357.080354 68.815315 
L 373.080354 68.815315 
" style="fill:none;stroke:#3ea44e;stroke-linejoin:miter;"/>
    </g>
    <g id="line2d_28"/>
    <g id="text_18">
     <!-- =0.8 -->
     <g transform="translate(379.480354 71.615315)scale(0.08 -0.08)">
      <use xlink:href="#DejaVuSans-955"/>
      <use x="59.179688" xlink:href="#DejaVuSans-61"/>
      <use x="142.96875" xlink:href="#DejaVuSans-48"/>
      <use x="206.591797" xlink:href="#DejaVuSans-46"/>
      <use x="238.378906" xlink:href="#DejaVuSans-56"/>
     </g>
    </g>
    <g id="line2d_29">
     <path d="M 357.080354 80.557815 
L 373.080354 80.557815 
" style="fill:none;stroke:#c371d2;stroke-linejoin:miter;"/>
    </g>
    <g id="line2d_30"/>
    <g id="text_19">
     <!-- =1.2 -->
     <g transform="translate(379.480354 83.357815)scale(0.08 -0.08)">
      <use xlink:href="#DejaVuSans-955"/>
      <use x="59.179688" xlink:href="#DejaVuSans-61"/>
      <use x="142.96875" xlink:href="#DejaVuSans-49"/>
      <use x="206.591797" xlink:href="#DejaVuSans-46"/>
      <use x="238.378906" xlink:href="#DejaVuSans-50"/>
     </g>
    </g>
    <g id="line2d_31">
     <path d="M 357.080354 92.300315 
L 373.080354 92.300315 
" style="fill:none;stroke:#ac8e18;stroke-linejoin:miter;"/>
    </g>
    <g id="line2d_32"/>
    <g id="text_20">
     <!-- =1.6 -->
     <g transform="translate(379.480354 95.100315)scale(0.08 -0.08)">
      <use xlink:href="#DejaVuSans-955"/>
      <use x="59.179688" xlink:href="#DejaVuSans-61"/>
      <use x="142.96875" xlink:href="#DejaVuSans-49"/>
      <use x="206.591797" xlink:href="#DejaVuSans-46"/>
      <use x="238.378906" xlink:href="#DejaVuSans-54"/>
     </g>
    </g>
    <g id="line2d_33">
     <path d="M 357.080354 104.042815 
L 373.080354 104.042815 
" style="fill:none;stroke:#00aaae;stroke-linejoin:miter;"/>
    </g>
    <g id="line2d_34"/>
    <g id="text_21">
     <!-- =1.8 -->
     <g transform="translate(379.480354 106.842815)scale(0.08 -0.08)">
      <use xlink:href="#DejaVuSans-955"/>
      <use x="59.179688" xlink:href="#DejaVuSans-61"/>
      <use x="142.96875" xlink:href="#DejaVuSans-49"/>
      <use x="206.591797" xlink:href="#DejaVuSans-46"/>
      <use x="238.378906" xlink:href="#DejaVuSans-56"/>
     </g>
    </g>
    <g id="line2d_35">
     <path d="M 357.080354 115.785315 
L 373.080354 115.785315 
" style="fill:none;stroke:#ed5e93;stroke-linejoin:miter;"/>
    </g>
    <g id="line2d_36"/>
    <g id="text_22">
     <!-- =2.0 -->
     <g transform="translate(379.480354 118.585315)scale(0.08 -0.08)">
      <use xlink:href="#DejaVuSans-955"/>
      <use x="59.179688" xlink:href="#DejaVuSans-61"/>
      <use x="142.96875" xlink:href="#DejaVuSans-50"/>
      <use x="206.591797" xlink:href="#DejaVuSans-46"/>
      <use x="238.378906" xlink:href="#DejaVuSans-48"/>
     </g>
    </g>
   </g>
  </g>
 </g>
 <defs>
  <clipPath id="pc3fe0930b9">
   <rect height="248.326869" width="394.401498" x="34.763856" y="8.166565"/>
  </clipPath>
 </defs>
</svg>
