<?xml version="1.0" encoding="utf-8" standalone="no"?>
<!DOCTYPE svg PUBLIC "-//W3C//DTD SVG 1.1//EN"
  "http://www.w3.org/Graphics/SVG/1.1/DTD/svg11.dtd">
<!-- Created with matplotlib (https://matplotlib.org/) -->
<svg height="288pt" version="1.1" viewBox="0 0 432 288" width="432pt" xmlns="http://www.w3.org/2000/svg" xmlns:xlink="http://www.w3.org/1999/xlink">
 <metadata>
  <rdf:RDF xmlns:cc="http://creativecommons.org/ns#" xmlns:dc="http://purl.org/dc/elements/1.1/" xmlns:rdf="http://www.w3.org/1999/02/22-rdf-syntax-ns#">
   <cc:Work>
    <dc:type rdf:resource="http://purl.org/dc/dcmitype/StillImage"/>
    <dc:date>2021-07-12T15:35:55.318883</dc:date>
    <dc:format>image/svg+xml</dc:format>
    <dc:creator>
     <cc:Agent>
      <dc:title>Matplotlib v3.3.4, https://matplotlib.org/</dc:title>
     </cc:Agent>
    </dc:creator>
   </cc:Work>
  </rdf:RDF>
 </metadata>
 <defs>
  <style type="text/css">*{stroke-linecap:butt;stroke-linejoin:round;}</style>
 </defs>
 <g id="figure_1">
  <g id="patch_1">
   <path d="M 0 288 
L 432 288 
L 432 0 
L 0 0 
z
" style="fill:#ffffff;"/>
  </g>
  <g id="axes_1">
   <g id="patch_2">
    <path d="M 64.557544 258.225354 
L 422.361999 258.225354 
L 422.361999 2.834646 
L 64.557544 2.834646 
z
" style="fill:#ffffff;"/>
   </g>
   <g id="line2d_1">
    <path clip-path="url(#p6a52f5ac6e)" d="M 64.557544 134.339368 
L 70.819122 134.225801 
L 71.713633 134.142735 
L 72.429242 134.069232 
L 73.144851 134.027759 
L 75.649482 133.879249 
L 76.543993 133.804988 
L 77.259602 133.736694 
L 77.796309 133.798576 
L 78.154113 133.807559 
L 78.69082 133.754316 
L 79.406429 133.805358 
L 79.943135 133.752769 
L 80.658744 133.774271 
L 81.195451 133.743843 
L 81.732158 133.774179 
L 83.52118 133.703206 
L 89.246051 134.39248 
L 94.613118 133.779401 
L 95.686531 133.907963 
L 96.938847 134.390069 
L 97.833358 134.932978 
L 98.191163 135.137426 
L 98.906771 135.64478 
L 99.264576 135.779089 
L 100.337989 136.344087 
L 100.874696 136.581569 
L 101.411403 136.663716 
L 101.769207 136.614714 
L 102.305914 136.61665 
L 103.379327 136.06967 
L 104.631643 134.817761 
L 107.672981 130.657802 
L 108.209687 130.270391 
L 109.283101 129.702456 
L 110.356514 130.025305 
L 111.072123 130.785438 
L 111.60883 131.436127 
L 112.861145 133.654439 
L 114.650168 137.390544 
L 115.723581 139.142766 
L 116.260288 139.773049 
L 117.333701 140.521572 
L 118.04931 140.564438 
L 118.586017 140.30463 
L 119.301625 139.621527 
L 120.017234 138.706896 
L 121.26955 136.714692 
L 122.521866 134.974167 
L 123.595279 133.833209 
L 124.310888 133.386446 
L 125.026497 133.170377 
L 127.352226 132.975932 
L 128.246737 132.605337 
L 129.32015 131.606709 
L 130.393564 130.040522 
L 133.792706 124.071695 
L 134.508315 123.446185 
L 135.045021 123.608809 
L 135.581728 123.839573 
L 135.939533 124.327847 
L 136.834044 126.088761 
L 137.37075 127.705484 
L 138.444164 131.660779 
L 140.054284 138.515299 
L 141.306599 142.795351 
L 141.843306 144.073931 
L 142.737817 145.705055 
L 143.453426 146.024062 
L 143.811231 146.048689 
L 144.169035 145.869354 
L 145.421351 144.563787 
L 146.13696 143.568729 
L 147.74708 142.145429 
L 148.104884 142.064077 
L 148.641591 141.831986 
L 148.999395 141.936169 
L 150.072809 142.544003 
L 150.430613 142.803768 
L 150.96732 143.308102 
L 152.040733 143.531912 
L 152.398538 143.360673 
L 152.935244 142.893783 
L 153.650853 142.008986 
L 154.18756 140.854056 
L 155.082071 138.551473 
L 156.155484 134.500603 
L 157.765604 127.199398 
L 159.375724 120.095474 
L 160.270236 116.80504 
L 161.164747 114.310283 
L 161.701453 113.336257 
L 162.417062 112.543092 
L 162.595965 112.463973 
L 162.953769 112.611972 
L 163.669378 113.11426 
L 164.206085 114.161539 
L 164.921694 115.919147 
L 165.816205 119.08515 
L 166.889618 124.006375 
L 168.141934 130.882044 
L 170.28876 142.201868 
L 171.183271 145.925138 
L 171.89888 148.099443 
L 172.435587 149.238273 
L 173.151196 150.073473 
L 173.509 150.303118 
L 174.224609 150.371636 
L 175.476925 149.978825 
L 176.013632 149.655866 
L 176.371436 149.459557 
L 177.087045 148.881035 
L 177.802654 148.445579 
L 178.160458 148.421611 
L 178.697165 148.123464 
L 179.412774 148.182989 
L 180.307285 147.879218 
L 181.201796 147.37618 
L 181.738503 146.755526 
L 182.27521 146.186956 
L 183.527525 143.696107 
L 184.064232 142.016378 
L 185.137645 137.444714 
L 186.389961 130.240755 
L 188.178983 117.869854 
L 189.789103 106.791938 
L 190.683614 101.884623 
L 191.399223 98.844965 
L 191.93593 97.545803 
L 192.472637 96.836203 
L 192.651539 96.773997 
L 192.830441 96.893999 
L 193.188246 97.554806 
L 193.724952 99.139192 
L 194.261659 101.959196 
L 194.977268 107.475146 
L 195.692877 114.691679 
L 197.124095 132.767533 
L 198.37641 148.282516 
L 199.092019 155.359993 
L 199.807628 160.118707 
L 200.165432 161.765389 
L 200.523237 162.451179 
L 200.881041 162.424166 
L 201.059944 162.268352 
L 201.417748 161.394685 
L 201.775552 159.791648 
L 202.312259 156.432129 
L 203.385672 147.863976 
L 204.459086 139.442342 
L 204.995793 136.341346 
L 205.532499 134.622207 
L 205.890304 134.267037 
L 206.069206 134.409824 
L 206.42701 135.222169 
L 206.784815 136.724086 
L 207.321521 140.219769 
L 207.858228 144.938675 
L 209.468348 160.539831 
L 210.183957 165.3877 
L 210.720664 167.574993 
L 211.078468 168.412008 
L 211.257371 168.525863 
L 211.615175 168.170207 
L 211.972979 167.387866 
L 212.330784 165.944396 
L 213.046393 161.226743 
L 213.583099 156.172066 
L 214.656513 143.782561 
L 216.266633 125.519974 
L 216.982242 119.27903 
L 217.876753 113.684434 
L 218.592362 111.190214 
L 219.129069 109.883704 
L 220.02358 108.546274 
L 220.560286 108.021759 
L 221.812602 106.230064 
L 222.707113 104.01218 
L 224.85394 97.60436 
L 225.211744 97.234155 
L 225.569549 97.433175 
L 225.927353 98.083013 
L 226.285158 99.417464 
L 226.821864 102.635425 
L 227.537473 108.895629 
L 228.253082 117.311112 
L 229.505398 135.232255 
L 230.757713 153.122387 
L 231.652224 163.748019 
L 232.367833 170.144539 
L 232.90454 173.783774 
L 233.441247 175.757655 
L 233.620149 176.12936 
L 233.799051 176.173098 
L 233.977953 175.915901 
L 234.335758 174.789409 
L 234.693562 172.80617 
L 235.409171 166.014664 
L 237.198194 147.454191 
L 238.092705 142.059618 
L 238.629411 140.506156 
L 238.808314 140.127817 
L 238.987216 140.022147 
L 239.34502 140.659409 
L 239.702825 141.706669 
L 240.060629 143.565294 
L 240.95514 151.039621 
L 241.849651 159.435558 
L 242.386358 163.171637 
L 242.744163 164.350251 
L 242.923065 164.604636 
L 243.101967 164.619274 
L 243.280869 164.401172 
L 243.638674 163.06437 
L 244.17538 159.942501 
L 244.890989 154.200589 
L 245.606598 147.17333 
L 246.322207 137.848701 
L 247.216718 122.894491 
L 249.184643 88.868937 
L 249.900252 80.668573 
L 250.436958 76.842174 
L 250.973665 74.602964 
L 251.33147 73.856346 
L 251.689274 73.730968 
L 251.868176 73.788411 
L 252.225981 74.305993 
L 252.583785 75.537292 
L 252.94159 77.340098 
L 253.478296 81.456477 
L 254.015003 87.562525 
L 254.909514 101.179839 
L 257.414145 144.759556 
L 258.666461 162.242967 
L 259.203168 167.271965 
L 259.560972 168.879029 
L 259.739874 169.130006 
L 259.918776 168.971272 
L 260.276581 167.662334 
L 260.813288 163.559823 
L 262.960114 143.719538 
L 263.496821 141.966844 
L 263.675723 141.61966 
L 263.854625 141.525018 
L 264.033528 141.735789 
L 264.570234 143.092965 
L 264.928039 144.841011 
L 265.643648 151.235995 
L 266.538159 162.987764 
L 267.43267 174.004746 
L 267.969377 177.560295 
L 268.327181 178.781665 
L 268.506083 178.730986 
L 268.863888 178.0196 
L 269.221692 176.304079 
L 269.758399 171.31184 
L 270.65291 161.292393 
L 273.336444 130.756432 
L 273.694248 128.786303 
L 273.87315 128.300146 
L 274.052052 128.207399 
L 274.588759 128.651145 
L 274.946564 129.694309 
L 275.48327 131.757027 
L 276.377781 133.499141 
L 276.914488 133.479614 
L 277.272293 133.635193 
L 278.166804 132.870994 
L 278.345706 132.794875 
L 278.70351 131.957859 
L 279.240217 130.100064 
L 279.598021 127.881234 
L 280.31363 120.938779 
L 281.029239 110.333759 
L 283.354968 75.96003 
L 284.428382 64.048838 
L 284.965088 59.525154 
L 285.322893 57.922414 
L 285.501795 57.617124 
L 285.680697 57.630693 
L 285.859599 57.949288 
L 286.038502 58.66877 
L 286.396306 61.819472 
L 286.754111 67.161437 
L 287.290817 79.021064 
L 288.006426 101.400389 
L 289.974351 169.290098 
L 290.68996 186.569091 
L 291.226666 195.802213 
L 291.584471 199.679931 
L 291.942275 201.795351 
L 292.121177 202.17453 
L 292.30008 202.015647 
L 292.478982 201.200266 
L 292.836786 197.769116 
L 293.194591 192.299105 
L 293.731297 180.369491 
L 295.52032 136.613887 
L 296.057026 130.592768 
L 296.414831 128.616614 
L 296.772635 127.995594 
L 296.951538 128.166418 
L 297.13044 128.68912 
L 297.488244 130.776653 
L 298.024951 136.09894 
L 298.561658 144.995048 
L 299.456169 164.818777 
L 300.35068 183.9007 
L 300.708484 188.913172 
L 301.066289 191.651587 
L 301.245191 192.176878 
L 301.424093 191.872889 
L 301.781898 188.855466 
L 302.318604 182.25081 
L 303.392018 166.273853 
L 303.749822 162.74431 
L 304.286529 160.340677 
L 304.823236 158.465714 
L 305.002138 158.142012 
L 305.18104 157.500814 
L 305.538845 154.966589 
L 306.075551 149.628288 
L 306.612258 140.193159 
L 307.506769 118.860101 
L 308.222378 103.280657 
L 308.580182 98.099189 
L 308.937987 96.117097 
L 309.116889 96.211029 
L 309.295791 96.702567 
L 309.653596 99.041234 
L 310.190302 103.484908 
L 310.548107 104.931447 
L 310.727009 105.183874 
L 310.905911 105.061467 
L 311.084814 104.536542 
L 311.442618 102.281389 
L 312.873836 91.049105 
L 313.052738 90.682388 
L 313.23164 90.671635 
L 313.410543 91.053479 
L 313.768347 92.774586 
L 314.483956 96.887032 
L 314.662858 97.373939 
L 314.84176 97.396195 
L 315.020663 96.871019 
L 315.378467 93.632457 
L 315.915174 84.151495 
L 316.630783 70.659615 
L 316.988587 67.15885 
L 317.167489 66.679977 
L 317.346392 66.901006 
L 317.525294 67.927691 
L 317.883098 71.91001 
L 318.419805 80.976178 
L 319.314316 101.225298 
L 320.566632 129.165316 
L 321.461143 146.250433 
L 321.997849 164.223599 
L 322.892361 198.118447 
L 323.250165 205.290845 
L 323.429067 206.875695 
L 323.60797 207.265414 
L 323.786872 206.673456 
L 324.323578 202.430896 
L 324.860285 197.317876 
L 325.396992 190.678028 
L 326.112601 177.931512 
L 326.82821 165.647753 
L 327.186014 162.319283 
L 328.080525 155.882133 
L 328.43833 148.368001 
L 328.975036 127.374743 
L 329.690645 100.143148 
L 329.869547 97.164194 
L 330.04845 96.424098 
L 330.227352 97.509843 
L 330.585156 104.632865 
L 331.121863 125.303329 
L 332.016374 157.714684 
L 332.731983 174.136125 
L 333.26869 183.059288 
L 333.626494 185.455222 
L 333.805397 185.597981 
L 333.984299 185.224082 
L 334.521005 182.297616 
L 334.699908 182.212152 
L 334.87881 183.081432 
L 335.236614 187.422693 
L 336.48893 207.031248 
L 336.667832 207.40408 
L 336.846734 206.512638 
L 337.025637 204.267143 
L 337.383441 194.93143 
L 337.920148 170.021221 
L 339.351366 99.412444 
L 339.888072 80.615899 
L 340.245877 74.769794 
L 340.603681 73.081853 
L 340.782583 73.125346 
L 341.140388 74.440266 
L 341.31929 75.144683 
L 341.498192 75.012321 
L 341.677095 73.641117 
L 342.034899 67.600848 
L 343.287215 40.271548 
L 343.645019 37.601887 
L 343.823921 37.849195 
L 344.002823 39.45165 
L 344.360628 46.928458 
L 346.686357 110.602826 
L 346.865259 112.254376 
L 347.044161 112.601576 
L 347.223064 112.123218 
L 347.580868 109.307131 
L 348.117575 104.697554 
L 348.296477 104.920867 
L 348.654281 108.318662 
L 349.012086 113.919556 
L 349.36989 122.745659 
L 350.443304 153.232154 
L 350.801108 156.448864 
L 350.98001 156.52578 
L 351.158913 156.079909 
L 351.337815 155.304575 
L 351.695619 152.162137 
L 352.411228 141.467048 
L 352.947935 134.323809 
L 353.126837 134.027371 
L 353.305739 135.183554 
L 353.663544 140.635069 
L 354.20025 154.88666 
L 354.736957 168.288074 
L 355.094762 171.320002 
L 355.273664 170.762674 
L 355.452566 168.73514 
L 355.989273 156.912187 
L 356.525979 145.061515 
L 356.704882 142.774859 
L 356.883784 142.437276 
L 357.062686 144.326667 
L 357.420491 153.61995 
L 358.136099 175.532326 
L 358.493904 180.787748 
L 359.388415 186.436241 
L 359.567317 186.591024 
L 359.74622 185.701121 
L 359.925122 183.633646 
L 360.282926 175.889007 
L 360.819633 163.272838 
L 361.177437 159.118581 
L 361.535242 157.148321 
L 361.714144 157.068274 
L 361.893046 157.802725 
L 362.250851 160.985812 
L 362.787557 166.605584 
L 362.96646 167.085956 
L 363.145362 166.206625 
L 363.503166 161.063975 
L 364.039873 152.997259 
L 364.397677 150.039756 
L 364.57658 149.96902 
L 364.755482 150.798927 
L 365.292189 155.577192 
L 366.007797 162.83836 
L 366.1867 163.276239 
L 366.365602 163.05486 
L 366.723406 162.429158 
L 366.902309 162.56336 
L 367.081211 163.363452 
L 367.79682 169.601714 
L 367.975722 168.89122 
L 368.333526 163.745872 
L 368.870233 156.114056 
L 369.049135 155.848621 
L 369.228038 157.173109 
L 369.585842 161.495359 
L 369.764744 162.370241 
L 369.943647 161.286804 
L 370.301451 153.738531 
L 372.448278 87.778537 
L 372.62718 86.52272 
L 372.806082 87.586051 
L 373.521691 97.458941 
L 373.700593 95.831356 
L 374.058398 86.041448 
L 374.774007 60.464448 
L 375.131811 54.982592 
L 375.489616 51.149567 
L 375.84742 42.144373 
L 376.205224 32.212884 
L 376.384127 30.508486 
L 376.563029 31.84366 
L 376.920833 40.713765 
L 377.45754 54.905667 
L 377.815345 58.826846 
L 377.994247 60.299957 
L 378.173149 63.002449 
L 378.530953 76.176536 
L 379.06766 102.800033 
L 379.246562 107.062639 
L 379.425465 108.257639 
L 379.604367 107.051587 
L 380.141073 99.241728 
L 380.319976 99.706936 
L 380.498878 103.6127 
L 381.393389 133.704717 
L 381.751194 137.464151 
L 381.930096 140.6897 
L 382.2879 155.338068 
L 383.003509 197.853501 
L 383.182411 199.959792 
L 383.361314 198.385251 
L 384.076922 186.071988 
L 384.434727 183.37151 
L 384.613629 180.920309 
L 384.971434 168.825013 
L 385.50814 144.486738 
L 385.687043 140.742268 
L 385.865945 140.323277 
L 386.044847 143.193589 
L 386.760456 164.05895 
L 386.939358 163.546254 
L 387.297163 156.574113 
L 387.833869 142.62448 
L 389.086185 102.29929 
L 389.265087 101.537971 
L 389.443989 102.608307 
L 389.801794 107.96244 
L 390.159598 119.482031 
L 390.875207 158.871389 
L 391.590816 199.234849 
L 391.948621 207.758686 
L 392.127523 209.194869 
L 392.306425 209.045052 
L 392.485327 207.583226 
L 392.843132 201.819573 
L 393.200936 191.1736 
L 393.737643 170.702537 
L 393.916545 168.991704 
L 394.095447 171.224723 
L 394.453252 183.555879 
L 394.989958 204.183404 
L 395.168861 206.056457 
L 395.347763 204.213581 
L 395.88447 188.297506 
L 396.600078 163.582554 
L 396.957883 144.813228 
L 397.673492 98.416407 
L 397.852394 95.665325 
L 398.031296 96.304836 
L 398.568003 102.099065 
L 399.10471 104.651607 
L 399.283612 107.431234 
L 399.641416 122.623662 
L 399.999221 140.200891 
L 400.178123 143.670902 
L 400.357025 142.77146 
L 400.71483 132.670532 
L 401.251536 115.110139 
L 401.430439 112.887679 
L 401.609341 113.124734 
L 401.967145 117.778094 
L 402.503852 129.910053 
L 403.040559 141.566894 
L 403.398363 147.910959 
L 404.292874 173.004055 
L 404.471776 169.798077 
L 405.187385 144.101004 
L 405.54519 142.020551 
L 405.724092 138.240225 
L 406.081897 121.967174 
L 406.797505 87.093168 
L 407.15531 80.276998 
L 407.334212 79.855271 
L 407.513114 79.999302 
L 407.692017 79.677669 
L 408.049821 76.789412 
L 408.407625 72.485047 
L 408.76543 64.15131 
L 409.302137 47.820786 
L 409.481039 46.188037 
L 409.659941 45.767514 
L 409.838843 43.903543 
L 410.196648 28.992421 
L 410.554452 12.307306 
L 410.733354 10.062685 
L 410.912257 12.079821 
L 411.98567 40.27021 
L 412.343474 56.312737 
L 413.59579 139.562624 
L 414.132497 169.070745 
L 414.311399 171.719781 
L 414.669203 172.481849 
L 414.848106 174.929014 
L 415.20591 186.99091 
L 415.921519 217.031906 
L 416.994932 249.735748 
L 417.173835 250.997315 
L 417.352737 249.894676 
L 417.710541 244.526364 
L 418.068346 232.921514 
L 418.605052 205.943343 
L 418.962857 199.492148 
L 419.141759 196.440343 
L 419.499564 180.211825 
L 420.215172 141.581245 
L 421.109684 91.90657 
L 421.467488 71.187383 
L 421.64639 66.844763 
L 421.825293 67.257705 
L 422.361999 75.310619 
L 422.361999 75.310619 
" style="fill:none;stroke:#009afa;"/>
   </g>
   <g id="matplotlib.axis_1">
    <g id="xtick_1">
     <g id="line2d_2">
      <defs>
       <path d="M 0 0 
L 0 -2.5 
" id="ma8e66b31f7" style="stroke:#000000;stroke-width:0.5;"/>
      </defs>
      <g>
       <use style="stroke:#000000;stroke-width:0.5;" x="64.557544" xlink:href="#ma8e66b31f7" y="258.225354"/>
      </g>
     </g>
     <g id="text_1">
      <!-- $\mathregular{0.0}$ -->
      <g transform="translate(58.157544 267.804104)scale(0.08 -0.08)">
       <defs>
        <path d="M 31.78125 66.40625 
Q 24.171875 66.40625 20.328125 58.90625 
Q 16.5 51.421875 16.5 36.375 
Q 16.5 21.390625 20.328125 13.890625 
Q 24.171875 6.390625 31.78125 6.390625 
Q 39.453125 6.390625 43.28125 13.890625 
Q 47.125 21.390625 47.125 36.375 
Q 47.125 51.421875 43.28125 58.90625 
Q 39.453125 66.40625 31.78125 66.40625 
z
M 31.78125 74.21875 
Q 44.046875 74.21875 50.515625 64.515625 
Q 56.984375 54.828125 56.984375 36.375 
Q 56.984375 17.96875 50.515625 8.265625 
Q 44.046875 -1.421875 31.78125 -1.421875 
Q 19.53125 -1.421875 13.0625 8.265625 
Q 6.59375 17.96875 6.59375 36.375 
Q 6.59375 54.828125 13.0625 64.515625 
Q 19.53125 74.21875 31.78125 74.21875 
z
" id="DejaVuSans-48"/>
        <path d="M 10.6875 12.40625 
L 21 12.40625 
L 21 0 
L 10.6875 0 
z
" id="DejaVuSans-46"/>
       </defs>
       <use transform="translate(0 0.78125)" xlink:href="#DejaVuSans-48"/>
       <use transform="translate(63.623047 0.78125)" xlink:href="#DejaVuSans-46"/>
       <use transform="translate(95.410156 0.78125)" xlink:href="#DejaVuSans-48"/>
      </g>
     </g>
    </g>
    <g id="xtick_2">
     <g id="line2d_3">
      <g>
       <use style="stroke:#000000;stroke-width:0.5;" x="154.008658" xlink:href="#ma8e66b31f7" y="258.225354"/>
      </g>
     </g>
     <g id="text_2">
      <!-- $\mathregular{0.5}$ -->
      <g transform="translate(147.608658 267.804104)scale(0.08 -0.08)">
       <defs>
        <path d="M 10.796875 72.90625 
L 49.515625 72.90625 
L 49.515625 64.59375 
L 19.828125 64.59375 
L 19.828125 46.734375 
Q 21.96875 47.46875 24.109375 47.828125 
Q 26.265625 48.1875 28.421875 48.1875 
Q 40.625 48.1875 47.75 41.5 
Q 54.890625 34.8125 54.890625 23.390625 
Q 54.890625 11.625 47.5625 5.09375 
Q 40.234375 -1.421875 26.90625 -1.421875 
Q 22.3125 -1.421875 17.546875 -0.640625 
Q 12.796875 0.140625 7.71875 1.703125 
L 7.71875 11.625 
Q 12.109375 9.234375 16.796875 8.0625 
Q 21.484375 6.890625 26.703125 6.890625 
Q 35.15625 6.890625 40.078125 11.328125 
Q 45.015625 15.765625 45.015625 23.390625 
Q 45.015625 31 40.078125 35.4375 
Q 35.15625 39.890625 26.703125 39.890625 
Q 22.75 39.890625 18.8125 39.015625 
Q 14.890625 38.140625 10.796875 36.28125 
z
" id="DejaVuSans-53"/>
       </defs>
       <use transform="translate(0 0.78125)" xlink:href="#DejaVuSans-48"/>
       <use transform="translate(63.623047 0.78125)" xlink:href="#DejaVuSans-46"/>
       <use transform="translate(95.410156 0.78125)" xlink:href="#DejaVuSans-53"/>
      </g>
     </g>
    </g>
    <g id="xtick_3">
     <g id="line2d_4">
      <g>
       <use style="stroke:#000000;stroke-width:0.5;" x="243.459771" xlink:href="#ma8e66b31f7" y="258.225354"/>
      </g>
     </g>
     <g id="text_3">
      <!-- $\mathregular{1.0}$ -->
      <g transform="translate(237.059771 267.804104)scale(0.08 -0.08)">
       <defs>
        <path d="M 12.40625 8.296875 
L 28.515625 8.296875 
L 28.515625 63.921875 
L 10.984375 60.40625 
L 10.984375 69.390625 
L 28.421875 72.90625 
L 38.28125 72.90625 
L 38.28125 8.296875 
L 54.390625 8.296875 
L 54.390625 0 
L 12.40625 0 
z
" id="DejaVuSans-49"/>
       </defs>
       <use transform="translate(0 0.78125)" xlink:href="#DejaVuSans-49"/>
       <use transform="translate(63.623047 0.78125)" xlink:href="#DejaVuSans-46"/>
       <use transform="translate(95.410156 0.78125)" xlink:href="#DejaVuSans-48"/>
      </g>
     </g>
    </g>
    <g id="xtick_4">
     <g id="line2d_5">
      <g>
       <use style="stroke:#000000;stroke-width:0.5;" x="332.910885" xlink:href="#ma8e66b31f7" y="258.225354"/>
      </g>
     </g>
     <g id="text_4">
      <!-- $\mathregular{1.5}$ -->
      <g transform="translate(326.510885 267.804104)scale(0.08 -0.08)">
       <use transform="translate(0 0.09375)" xlink:href="#DejaVuSans-49"/>
       <use transform="translate(63.623047 0.09375)" xlink:href="#DejaVuSans-46"/>
       <use transform="translate(95.410156 0.09375)" xlink:href="#DejaVuSans-53"/>
      </g>
     </g>
    </g>
    <g id="xtick_5">
     <g id="line2d_6">
      <g>
       <use style="stroke:#000000;stroke-width:0.5;" x="422.361999" xlink:href="#ma8e66b31f7" y="258.225354"/>
      </g>
     </g>
     <g id="text_5">
      <!-- $\mathregular{2.0}$ -->
      <g transform="translate(415.961999 267.804104)scale(0.08 -0.08)">
       <defs>
        <path d="M 19.1875 8.296875 
L 53.609375 8.296875 
L 53.609375 0 
L 7.328125 0 
L 7.328125 8.296875 
Q 12.9375 14.109375 22.625 23.890625 
Q 32.328125 33.6875 34.8125 36.53125 
Q 39.546875 41.84375 41.421875 45.53125 
Q 43.3125 49.21875 43.3125 52.78125 
Q 43.3125 58.59375 39.234375 62.25 
Q 35.15625 65.921875 28.609375 65.921875 
Q 23.96875 65.921875 18.8125 64.3125 
Q 13.671875 62.703125 7.8125 59.421875 
L 7.8125 69.390625 
Q 13.765625 71.78125 18.9375 73 
Q 24.125 74.21875 28.421875 74.21875 
Q 39.75 74.21875 46.484375 68.546875 
Q 53.21875 62.890625 53.21875 53.421875 
Q 53.21875 48.921875 51.53125 44.890625 
Q 49.859375 40.875 45.40625 35.40625 
Q 44.1875 33.984375 37.640625 27.21875 
Q 31.109375 20.453125 19.1875 8.296875 
z
" id="DejaVuSans-50"/>
       </defs>
       <use transform="translate(0 0.78125)" xlink:href="#DejaVuSans-50"/>
       <use transform="translate(63.623047 0.78125)" xlink:href="#DejaVuSans-46"/>
       <use transform="translate(95.410156 0.78125)" xlink:href="#DejaVuSans-48"/>
      </g>
     </g>
    </g>
    <g id="text_6">
     <!-- Time (s) -->
     <g transform="translate(221.097975 281.826136)scale(0.11 -0.11)">
      <defs>
       <path d="M -0.296875 72.90625 
L 61.375 72.90625 
L 61.375 64.59375 
L 35.5 64.59375 
L 35.5 0 
L 25.59375 0 
L 25.59375 64.59375 
L -0.296875 64.59375 
z
" id="DejaVuSans-84"/>
       <path d="M 9.421875 54.6875 
L 18.40625 54.6875 
L 18.40625 0 
L 9.421875 0 
z
M 9.421875 75.984375 
L 18.40625 75.984375 
L 18.40625 64.59375 
L 9.421875 64.59375 
z
" id="DejaVuSans-105"/>
       <path d="M 52 44.1875 
Q 55.375 50.25 60.0625 53.125 
Q 64.75 56 71.09375 56 
Q 79.640625 56 84.28125 50.015625 
Q 88.921875 44.046875 88.921875 33.015625 
L 88.921875 0 
L 79.890625 0 
L 79.890625 32.71875 
Q 79.890625 40.578125 77.09375 44.375 
Q 74.3125 48.1875 68.609375 48.1875 
Q 61.625 48.1875 57.5625 43.546875 
Q 53.515625 38.921875 53.515625 30.90625 
L 53.515625 0 
L 44.484375 0 
L 44.484375 32.71875 
Q 44.484375 40.625 41.703125 44.40625 
Q 38.921875 48.1875 33.109375 48.1875 
Q 26.21875 48.1875 22.15625 43.53125 
Q 18.109375 38.875 18.109375 30.90625 
L 18.109375 0 
L 9.078125 0 
L 9.078125 54.6875 
L 18.109375 54.6875 
L 18.109375 46.1875 
Q 21.1875 51.21875 25.484375 53.609375 
Q 29.78125 56 35.6875 56 
Q 41.65625 56 45.828125 52.96875 
Q 50 49.953125 52 44.1875 
z
" id="DejaVuSans-109"/>
       <path d="M 56.203125 29.59375 
L 56.203125 25.203125 
L 14.890625 25.203125 
Q 15.484375 15.921875 20.484375 11.0625 
Q 25.484375 6.203125 34.421875 6.203125 
Q 39.59375 6.203125 44.453125 7.46875 
Q 49.3125 8.734375 54.109375 11.28125 
L 54.109375 2.78125 
Q 49.265625 0.734375 44.1875 -0.34375 
Q 39.109375 -1.421875 33.890625 -1.421875 
Q 20.796875 -1.421875 13.15625 6.1875 
Q 5.515625 13.8125 5.515625 26.8125 
Q 5.515625 40.234375 12.765625 48.109375 
Q 20.015625 56 32.328125 56 
Q 43.359375 56 49.78125 48.890625 
Q 56.203125 41.796875 56.203125 29.59375 
z
M 47.21875 32.234375 
Q 47.125 39.59375 43.09375 43.984375 
Q 39.0625 48.390625 32.421875 48.390625 
Q 24.90625 48.390625 20.390625 44.140625 
Q 15.875 39.890625 15.1875 32.171875 
z
" id="DejaVuSans-101"/>
       <path id="DejaVuSans-32"/>
       <path d="M 31 75.875 
Q 24.46875 64.65625 21.28125 53.65625 
Q 18.109375 42.671875 18.109375 31.390625 
Q 18.109375 20.125 21.3125 9.0625 
Q 24.515625 -2 31 -13.1875 
L 23.1875 -13.1875 
Q 15.875 -1.703125 12.234375 9.375 
Q 8.59375 20.453125 8.59375 31.390625 
Q 8.59375 42.28125 12.203125 53.3125 
Q 15.828125 64.359375 23.1875 75.875 
z
" id="DejaVuSans-40"/>
       <path d="M 44.28125 53.078125 
L 44.28125 44.578125 
Q 40.484375 46.53125 36.375 47.5 
Q 32.28125 48.484375 27.875 48.484375 
Q 21.1875 48.484375 17.84375 46.4375 
Q 14.5 44.390625 14.5 40.28125 
Q 14.5 37.15625 16.890625 35.375 
Q 19.28125 33.59375 26.515625 31.984375 
L 29.59375 31.296875 
Q 39.15625 29.25 43.1875 25.515625 
Q 47.21875 21.78125 47.21875 15.09375 
Q 47.21875 7.46875 41.1875 3.015625 
Q 35.15625 -1.421875 24.609375 -1.421875 
Q 20.21875 -1.421875 15.453125 -0.5625 
Q 10.6875 0.296875 5.421875 2 
L 5.421875 11.28125 
Q 10.40625 8.6875 15.234375 7.390625 
Q 20.0625 6.109375 24.8125 6.109375 
Q 31.15625 6.109375 34.5625 8.28125 
Q 37.984375 10.453125 37.984375 14.40625 
Q 37.984375 18.0625 35.515625 20.015625 
Q 33.0625 21.96875 24.703125 23.78125 
L 21.578125 24.515625 
Q 13.234375 26.265625 9.515625 29.90625 
Q 5.8125 33.546875 5.8125 39.890625 
Q 5.8125 47.609375 11.28125 51.796875 
Q 16.75 56 26.8125 56 
Q 31.78125 56 36.171875 55.265625 
Q 40.578125 54.546875 44.28125 53.078125 
z
" id="DejaVuSans-115"/>
       <path d="M 8.015625 75.875 
L 15.828125 75.875 
Q 23.140625 64.359375 26.78125 53.3125 
Q 30.421875 42.28125 30.421875 31.390625 
Q 30.421875 20.453125 26.78125 9.375 
Q 23.140625 -1.703125 15.828125 -13.1875 
L 8.015625 -13.1875 
Q 14.5 -2 17.703125 9.0625 
Q 20.90625 20.125 20.90625 31.390625 
Q 20.90625 42.671875 17.703125 53.65625 
Q 14.5 64.65625 8.015625 75.875 
z
" id="DejaVuSans-41"/>
      </defs>
      <use xlink:href="#DejaVuSans-84"/>
      <use x="57.958984" xlink:href="#DejaVuSans-105"/>
      <use x="85.742188" xlink:href="#DejaVuSans-109"/>
      <use x="183.154297" xlink:href="#DejaVuSans-101"/>
      <use x="244.677734" xlink:href="#DejaVuSans-32"/>
      <use x="276.464844" xlink:href="#DejaVuSans-40"/>
      <use x="315.478516" xlink:href="#DejaVuSans-115"/>
      <use x="367.578125" xlink:href="#DejaVuSans-41"/>
     </g>
    </g>
   </g>
   <g id="matplotlib.axis_2">
    <g id="ytick_1">
     <g id="line2d_7">
      <defs>
       <path d="M 0 0 
L 2.5 0 
" id="m2a6d87a573" style="stroke:#000000;stroke-width:0.5;"/>
      </defs>
      <g>
       <use style="stroke:#000000;stroke-width:0.5;" x="64.557544" xlink:href="#m2a6d87a573" y="240.245127"/>
      </g>
     </g>
     <g id="text_7">
      <!-- $\mathregular{-4.0×10^{6}}$ -->
      <g transform="translate(20.817544 243.284502)scale(0.08 -0.08)">
       <defs>
        <path d="M 10.59375 35.5 
L 73.1875 35.5 
L 73.1875 27.203125 
L 10.59375 27.203125 
z
" id="DejaVuSans-8722"/>
        <path d="M 37.796875 64.3125 
L 12.890625 25.390625 
L 37.796875 25.390625 
z
M 35.203125 72.90625 
L 47.609375 72.90625 
L 47.609375 25.390625 
L 58.015625 25.390625 
L 58.015625 17.1875 
L 47.609375 17.1875 
L 47.609375 0 
L 37.796875 0 
L 37.796875 17.1875 
L 4.890625 17.1875 
L 4.890625 26.703125 
z
" id="DejaVuSans-52"/>
        <path d="M 70.125 53.71875 
L 47.796875 31.296875 
L 70.125 8.984375 
L 64.3125 3.078125 
L 41.890625 25.484375 
L 19.484375 3.078125 
L 13.71875 8.984375 
L 35.984375 31.296875 
L 13.71875 53.71875 
L 19.484375 59.625 
L 41.890625 37.203125 
L 64.3125 59.625 
z
" id="DejaVuSans-215"/>
        <path d="M 33.015625 40.375 
Q 26.375 40.375 22.484375 35.828125 
Q 18.609375 31.296875 18.609375 23.390625 
Q 18.609375 15.53125 22.484375 10.953125 
Q 26.375 6.390625 33.015625 6.390625 
Q 39.65625 6.390625 43.53125 10.953125 
Q 47.40625 15.53125 47.40625 23.390625 
Q 47.40625 31.296875 43.53125 35.828125 
Q 39.65625 40.375 33.015625 40.375 
z
M 52.59375 71.296875 
L 52.59375 62.3125 
Q 48.875 64.0625 45.09375 64.984375 
Q 41.3125 65.921875 37.59375 65.921875 
Q 27.828125 65.921875 22.671875 59.328125 
Q 17.53125 52.734375 16.796875 39.40625 
Q 19.671875 43.65625 24.015625 45.921875 
Q 28.375 48.1875 33.59375 48.1875 
Q 44.578125 48.1875 50.953125 41.515625 
Q 57.328125 34.859375 57.328125 23.390625 
Q 57.328125 12.15625 50.6875 5.359375 
Q 44.046875 -1.421875 33.015625 -1.421875 
Q 20.359375 -1.421875 13.671875 8.265625 
Q 6.984375 17.96875 6.984375 36.375 
Q 6.984375 53.65625 15.1875 63.9375 
Q 23.390625 74.21875 37.203125 74.21875 
Q 40.921875 74.21875 44.703125 73.484375 
Q 48.484375 72.75 52.59375 71.296875 
z
" id="DejaVuSans-54"/>
       </defs>
       <use transform="translate(0 0.765625)" xlink:href="#DejaVuSans-8722"/>
       <use transform="translate(83.789062 0.765625)" xlink:href="#DejaVuSans-52"/>
       <use transform="translate(147.412109 0.765625)" xlink:href="#DejaVuSans-46"/>
       <use transform="translate(179.199219 0.765625)" xlink:href="#DejaVuSans-48"/>
       <use transform="translate(242.822266 0.765625)" xlink:href="#DejaVuSans-215"/>
       <use transform="translate(326.611328 0.765625)" xlink:href="#DejaVuSans-49"/>
       <use transform="translate(390.234375 0.765625)" xlink:href="#DejaVuSans-48"/>
       <use transform="translate(454.814453 39.046875)scale(0.7)" xlink:href="#DejaVuSans-54"/>
      </g>
     </g>
    </g>
    <g id="ytick_2">
     <g id="line2d_8">
      <g>
       <use style="stroke:#000000;stroke-width:0.5;" x="64.557544" xlink:href="#m2a6d87a573" y="187.292248"/>
      </g>
     </g>
     <g id="text_8">
      <!-- $\mathregular{-2.0×10^{6}}$ -->
      <g transform="translate(20.817544 190.331623)scale(0.08 -0.08)">
       <use transform="translate(0 0.765625)" xlink:href="#DejaVuSans-8722"/>
       <use transform="translate(83.789062 0.765625)" xlink:href="#DejaVuSans-50"/>
       <use transform="translate(147.412109 0.765625)" xlink:href="#DejaVuSans-46"/>
       <use transform="translate(179.199219 0.765625)" xlink:href="#DejaVuSans-48"/>
       <use transform="translate(242.822266 0.765625)" xlink:href="#DejaVuSans-215"/>
       <use transform="translate(326.611328 0.765625)" xlink:href="#DejaVuSans-49"/>
       <use transform="translate(390.234375 0.765625)" xlink:href="#DejaVuSans-48"/>
       <use transform="translate(454.814453 39.046875)scale(0.7)" xlink:href="#DejaVuSans-54"/>
      </g>
     </g>
    </g>
    <g id="ytick_3">
     <g id="line2d_9">
      <g>
       <use style="stroke:#000000;stroke-width:0.5;" x="64.557544" xlink:href="#m2a6d87a573" y="134.339368"/>
      </g>
     </g>
     <g id="text_9">
      <!-- $\mathregular{0}$ -->
      <g transform="translate(55.937544 137.378743)scale(0.08 -0.08)">
       <use transform="translate(0 0.78125)" xlink:href="#DejaVuSans-48"/>
      </g>
     </g>
    </g>
    <g id="ytick_4">
     <g id="line2d_10">
      <g>
       <use style="stroke:#000000;stroke-width:0.5;" x="64.557544" xlink:href="#m2a6d87a573" y="81.386488"/>
      </g>
     </g>
     <g id="text_10">
      <!-- $\mathregular{2.0×10^{6}}$ -->
      <g transform="translate(27.537544 84.425863)scale(0.08 -0.08)">
       <use transform="translate(0 0.765625)" xlink:href="#DejaVuSans-50"/>
       <use transform="translate(63.623047 0.765625)" xlink:href="#DejaVuSans-46"/>
       <use transform="translate(95.410156 0.765625)" xlink:href="#DejaVuSans-48"/>
       <use transform="translate(159.033203 0.765625)" xlink:href="#DejaVuSans-215"/>
       <use transform="translate(242.822266 0.765625)" xlink:href="#DejaVuSans-49"/>
       <use transform="translate(306.445312 0.765625)" xlink:href="#DejaVuSans-48"/>
       <use transform="translate(371.025391 39.046875)scale(0.7)" xlink:href="#DejaVuSans-54"/>
      </g>
     </g>
    </g>
    <g id="ytick_5">
     <g id="line2d_11">
      <g>
       <use style="stroke:#000000;stroke-width:0.5;" x="64.557544" xlink:href="#m2a6d87a573" y="28.433608"/>
      </g>
     </g>
     <g id="text_11">
      <!-- $\mathregular{4.0×10^{6}}$ -->
      <g transform="translate(27.537544 31.472983)scale(0.08 -0.08)">
       <use transform="translate(0 0.765625)" xlink:href="#DejaVuSans-52"/>
       <use transform="translate(63.623047 0.765625)" xlink:href="#DejaVuSans-46"/>
       <use transform="translate(95.410156 0.765625)" xlink:href="#DejaVuSans-48"/>
       <use transform="translate(159.033203 0.765625)" xlink:href="#DejaVuSans-215"/>
       <use transform="translate(242.822266 0.765625)" xlink:href="#DejaVuSans-49"/>
       <use transform="translate(306.445312 0.765625)" xlink:href="#DejaVuSans-48"/>
       <use transform="translate(371.025391 39.046875)scale(0.7)" xlink:href="#DejaVuSans-54"/>
      </g>
     </g>
    </g>
    <g id="text_12">
     <!-- $F_x$ ($N$) -->
     <g transform="translate(14.529888 146.315)rotate(-90)scale(0.11 -0.11)">
      <defs>
       <path d="M 16.890625 72.90625 
L 58.6875 72.90625 
L 57.078125 64.59375 
L 25.09375 64.59375 
L 20.90625 43.109375 
L 49.8125 43.109375 
L 48.1875 34.8125 
L 19.28125 34.8125 
L 12.5 0 
L 2.6875 0 
z
" id="DejaVuSans-Oblique-70"/>
       <path d="M 60.015625 54.6875 
L 34.90625 27.875 
L 50.296875 0 
L 39.984375 0 
L 28.421875 21.6875 
L 8.296875 0 
L -2.59375 0 
L 24.3125 28.8125 
L 10.015625 54.6875 
L 20.3125 54.6875 
L 30.8125 34.90625 
L 49.125 54.6875 
z
" id="DejaVuSans-Oblique-120"/>
       <path d="M 16.890625 72.90625 
L 30.171875 72.90625 
L 50.296875 10.40625 
L 62.5 72.90625 
L 72.125 72.90625 
L 57.90625 0 
L 44.578125 0 
L 24.515625 62.890625 
L 12.3125 0 
L 2.6875 0 
z
" id="DejaVuSans-Oblique-78"/>
      </defs>
      <use transform="translate(0 0.125)" xlink:href="#DejaVuSans-Oblique-70"/>
      <use transform="translate(57.519531 -16.28125)scale(0.7)" xlink:href="#DejaVuSans-Oblique-120"/>
      <use transform="translate(101.679688 0.125)" xlink:href="#DejaVuSans-32"/>
      <use transform="translate(133.466797 0.125)" xlink:href="#DejaVuSans-40"/>
      <use transform="translate(172.480469 0.125)" xlink:href="#DejaVuSans-Oblique-78"/>
      <use transform="translate(247.285156 0.125)" xlink:href="#DejaVuSans-41"/>
     </g>
    </g>
   </g>
   <g id="patch_3">
    <path d="M 64.557544 258.225354 
L 64.557544 2.834646 
" style="fill:none;stroke:#000000;stroke-linecap:square;stroke-linejoin:miter;"/>
   </g>
   <g id="patch_4">
    <path d="M 64.557544 258.225354 
L 422.361999 258.225354 
" style="fill:none;stroke:#000000;stroke-linecap:square;stroke-linejoin:miter;"/>
   </g>
  </g>
 </g>
 <defs>
  <clipPath id="p6a52f5ac6e">
   <rect height="255.390709" width="357.804455" x="64.557544" y="2.834646"/>
  </clipPath>
 </defs>
</svg>
