<?xml version="1.0" encoding="utf-8" standalone="no"?>
<!DOCTYPE svg PUBLIC "-//W3C//DTD SVG 1.1//EN"
  "http://www.w3.org/Graphics/SVG/1.1/DTD/svg11.dtd">
<!-- Created with matplotlib (https://matplotlib.org/) -->
<svg height="288pt" version="1.1" viewBox="0 0 432 288" width="432pt" xmlns="http://www.w3.org/2000/svg" xmlns:xlink="http://www.w3.org/1999/xlink">
 <metadata>
  <rdf:RDF xmlns:cc="http://creativecommons.org/ns#" xmlns:dc="http://purl.org/dc/elements/1.1/" xmlns:rdf="http://www.w3.org/1999/02/22-rdf-syntax-ns#">
   <cc:Work>
    <dc:type rdf:resource="http://purl.org/dc/dcmitype/StillImage"/>
    <dc:date>2021-07-12T15:34:17.967077</dc:date>
    <dc:format>image/svg+xml</dc:format>
    <dc:creator>
     <cc:Agent>
      <dc:title>Matplotlib v3.3.4, https://matplotlib.org/</dc:title>
     </cc:Agent>
    </dc:creator>
   </cc:Work>
  </rdf:RDF>
 </metadata>
 <defs>
  <style type="text/css">*{stroke-linecap:butt;stroke-linejoin:round;}</style>
 </defs>
 <g id="figure_1">
  <g id="patch_1">
   <path d="M 0 288 
L 432 288 
L 432 0 
L 0 0 
z
" style="fill:#ffffff;"/>
  </g>
  <g id="axes_1">
   <g id="patch_2">
    <path d="M 66.051544 258.225354 
L 422.361999 258.225354 
L 422.361999 2.834646 
L 66.051544 2.834646 
z
" style="fill:#ffffff;"/>
   </g>
   <g id="line2d_1">
    <path clip-path="url(#pd4d405646f)" d="M 66.051544 121.522442 
L 68.011251 121.490519 
L 68.367562 121.383411 
L 68.723872 121.618024 
L 69.080183 121.609416 
L 69.436493 121.465118 
L 69.614648 121.623347 
L 70.149114 121.525082 
L 70.327269 121.282242 
L 70.505424 121.267255 
L 71.03989 121.60664 
L 71.218045 121.621274 
L 71.574356 121.49463 
L 72.286977 121.616803 
L 72.643287 121.4374 
L 73.177753 121.630092 
L 73.355908 121.737136 
L 74.602995 121.550329 
L 74.959305 121.555962 
L 75.315616 121.47357 
L 75.850081 121.734912 
L 76.028237 121.735593 
L 76.384547 121.447274 
L 76.740857 121.455002 
L 77.097168 121.628664 
L 77.453478 121.350219 
L 77.809789 121.290467 
L 78.166099 121.543504 
L 78.52241 121.374454 
L 78.87872 121.309773 
L 79.235031 121.65563 
L 80.125807 121.476233 
L 80.838428 121.472352 
L 81.016583 121.380024 
L 81.194738 121.464985 
L 81.551049 121.415371 
L 81.729204 121.558179 
L 82.441825 121.204144 
L 82.798135 121.39201 
L 83.332601 121.576702 
L 83.688911 121.377759 
L 84.223377 121.447345 
L 84.401532 121.356152 
L 84.757843 121.0467 
L 85.114153 121.180219 
L 85.470464 121.453473 
L 86.183084 121.42639 
L 87.252016 121.582876 
L 87.786482 121.568083 
L 88.142792 121.666359 
L 88.677258 121.313807 
L 88.855413 121.236427 
L 89.211723 121.454024 
L 89.924344 121.050504 
L 90.280655 121.305621 
L 91.349586 121.347322 
L 92.774828 121.603667 
L 93.487449 122.210739 
L 93.665604 122.243634 
L 94.55638 123.024994 
L 94.734535 123.072557 
L 95.090846 123.439903 
L 95.625312 124.190769 
L 96.516088 124.645288 
L 97.406864 125.403491 
L 98.29764 126.363368 
L 98.832106 126.514166 
L 99.366571 127.001478 
L 99.722882 127.001768 
L 99.901037 126.898406 
L 100.613658 127.073504 
L 101.504434 126.618498 
L 101.682589 126.596238 
L 102.573365 125.455993 
L 102.751521 125.322172 
L 103.820452 123.263861 
L 105.245694 119.80206 
L 105.602004 118.971878 
L 106.849091 115.57196 
L 107.383557 114.335501 
L 107.561712 114.080646 
L 108.808798 111.082319 
L 109.87773 109.286381 
L 111.481127 107.172273 
L 111.659282 107.066352 
L 112.193748 106.404375 
L 112.550058 106.144212 
L 112.906369 105.972963 
L 113.262679 105.879911 
L 113.61899 105.864161 
L 114.33161 106.06052 
L 114.509766 106.106174 
L 115.578697 107.355205 
L 116.291318 108.461181 
L 116.825784 109.476465 
L 118.429181 114.238497 
L 118.963646 116.120091 
L 122.526751 132.95817 
L 123.417527 137.211844 
L 124.308303 140.838724 
L 125.377235 144.08472 
L 125.9117 145.052631 
L 126.980632 145.466324 
L 127.515097 145.016072 
L 127.693253 144.957331 
L 128.049563 144.384254 
L 128.584029 143.103688 
L 129.118494 141.84365 
L 133.572375 124.894342 
L 133.928686 124.047663 
L 134.284996 122.941082 
L 134.641306 122.275085 
L 134.819462 122.237717 
L 135.532083 121.429874 
L 137.313635 121.120153 
L 137.49179 121.079782 
L 138.026256 120.696303 
L 138.560721 120.464471 
L 139.273342 120.085487 
L 139.985963 119.363177 
L 140.342274 118.652787 
L 141.054895 117.215351 
L 141.411205 116.557368 
L 142.301981 114.451753 
L 143.014602 112.554476 
L 143.727223 111.281734 
L 144.617999 109.382078 
L 145.152465 108.515927 
L 145.508775 108.289018 
L 145.865086 107.927192 
L 146.043241 107.8965 
L 146.755862 108.714283 
L 147.112172 109.411497 
L 148.002949 112.371341 
L 149.784501 119.883712 
L 151.744208 126.065171 
L 152.278674 126.583837 
L 152.991295 126.373766 
L 153.16945 126.315856 
L 153.347605 126.376112 
L 153.703916 126.150768 
L 153.882071 125.916566 
L 154.238381 125.207024 
L 154.772847 124.721092 
L 156.554399 121.458097 
L 157.26702 119.851517 
L 157.623331 119.513542 
L 158.157797 118.449424 
L 158.335952 118.31874 
L 158.692262 118.336965 
L 159.226728 117.539518 
L 159.404883 117.410774 
L 159.583038 117.527952 
L 159.761194 117.47637 
L 160.295659 116.66176 
L 160.473814 116.526761 
L 160.65197 116.63852 
L 161.00828 116.362345 
L 161.720901 115.807097 
L 162.255367 114.792387 
L 162.611677 113.990583 
L 162.789832 113.709086 
L 164.036919 109.597957 
L 167.421868 95.887295 
L 168.134489 94.329583 
L 168.4908 93.774032 
L 169.025265 93.635526 
L 169.203421 93.42874 
L 169.381576 93.535517 
L 170.272352 95.146387 
L 170.628662 96.689855 
L 171.519439 101.566959 
L 173.479146 117.959633 
L 174.369922 125.840883 
L 175.260698 132.323958 
L 175.795164 135.422984 
L 177.042251 140.011326 
L 177.933027 142.930239 
L 178.289337 143.964077 
L 180.07089 150.022657 
L 181.674287 157.136112 
L 182.743218 159.999 
L 183.099528 160.184748 
L 183.633994 160.903588 
L 183.812149 160.855634 
L 184.16846 160.363418 
L 184.346615 160.301751 
L 184.702925 159.766748 
L 185.771857 155.62704 
L 187.018943 146.373565 
L 188.978651 130.471193 
L 190.047582 123.47137 
L 190.938358 118.771243 
L 191.294669 117.29914 
L 191.829135 116.413187 
L 192.185445 115.739441 
L 192.3636 115.794365 
L 192.719911 116.360835 
L 193.076221 116.241315 
L 193.432532 116.794585 
L 193.788842 117.704412 
L 193.966997 117.736804 
L 194.145153 117.887938 
L 194.501463 118.569758 
L 194.857773 119.217635 
L 195.035929 119.120285 
L 195.392239 119.383266 
L 195.74855 119.712106 
L 195.926705 119.417571 
L 196.817481 116.579644 
L 197.886412 108.154553 
L 198.777188 98.87995 
L 199.667965 91.041759 
L 200.558741 86.001869 
L 201.093206 84.9848 
L 201.271362 84.932616 
L 201.449517 85.244397 
L 201.805827 86.710902 
L 202.340293 90.34064 
L 202.874759 96.467824 
L 203.409224 104.732062 
L 204.3 123.103376 
L 205.725242 152.326854 
L 206.437863 161.207951 
L 206.794174 163.275865 
L 207.150484 163.993594 
L 207.328639 163.961489 
L 207.506795 163.259065 
L 207.863105 160.516712 
L 208.575726 152.61739 
L 210.535433 124.101526 
L 211.069899 119.294989 
L 211.42621 118.041483 
L 211.960675 117.011434 
L 212.138831 116.872016 
L 212.495141 117.085353 
L 212.673296 117.003417 
L 213.207762 116.357476 
L 213.564072 116.269994 
L 213.920383 115.323223 
L 214.276693 114.146089 
L 214.633004 113.376908 
L 216.592711 107.059849 
L 216.949022 105.358099 
L 218.730574 94.116032 
L 219.443195 87.368192 
L 220.155816 79.589691 
L 220.868437 72.189505 
L 221.581058 66.561576 
L 221.759213 66.035485 
L 222.115523 66.022256 
L 222.293678 66.196419 
L 222.471834 66.769818 
L 222.828144 69.276507 
L 223.540765 78.432276 
L 225.856783 113.338467 
L 226.391249 117.426114 
L 226.747559 118.891605 
L 226.925714 119.12356 
L 227.10387 118.98602 
L 227.282025 118.704627 
L 227.638335 117.47893 
L 227.816491 116.628621 
L 229.419888 104.046183 
L 229.598043 103.771294 
L 229.954353 103.842926 
L 230.132509 103.780255 
L 230.310664 104.422772 
L 231.20144 112.138515 
L 232.270371 126.746811 
L 234.230079 157.702939 
L 235.477165 174.242832 
L 236.724252 188.741758 
L 237.436873 195.002346 
L 237.971339 196.55796 
L 238.149494 196.822213 
L 238.327649 196.445355 
L 238.683959 193.220526 
L 239.218425 186.33777 
L 239.752891 174.317888 
L 240.643667 150.296164 
L 241.534443 128.498056 
L 242.068909 120.810247 
L 242.425219 118.443912 
L 242.603374 118.346596 
L 242.959685 119.279065 
L 243.13784 119.928497 
L 243.315995 121.112861 
L 244.384927 133.927289 
L 244.919392 141.172989 
L 245.632013 146.149838 
L 245.810169 146.685366 
L 245.988324 146.218243 
L 246.522789 142.839593 
L 246.8791 139.199249 
L 249.016963 105.751719 
L 249.195118 104.395467 
L 249.373273 103.92979 
L 249.551428 104.059646 
L 249.729584 104.781131 
L 250.085894 108.580286 
L 250.62036 119.741666 
L 252.223757 157.394646 
L 252.580067 161.875576 
L 253.648999 167.855838 
L 253.827154 168.163808 
L 254.183464 169.823272 
L 254.539775 171.14435 
L 254.71793 170.739427 
L 255.252396 168.123923 
L 255.608706 163.850443 
L 256.855793 137.832867 
L 258.102879 106.560283 
L 258.637345 90.294769 
L 260.062587 40.650741 
L 260.953363 18.286287 
L 261.309673 13.502165 
L 261.665984 10.889779 
L 261.844139 10.062685 
L 262.022294 10.138943 
L 262.378605 13.704606 
L 262.91307 22.681316 
L 263.447536 37.7198 
L 264.338312 69.371793 
L 265.229088 100.29795 
L 265.763554 112.130097 
L 266.119865 114.946732 
L 266.29802 115.391031 
L 266.476175 115.049764 
L 266.65433 113.758217 
L 267.010641 108.447211 
L 268.614038 76.795629 
L 268.970348 74.258022 
L 269.148503 73.50575 
L 269.326659 73.241341 
L 269.682969 73.832542 
L 270.03928 75.742399 
L 270.39559 78.218904 
L 270.7519 82.709702 
L 271.286366 94.737588 
L 271.820832 111.523984 
L 274.49316 219.688663 
L 275.027626 229.283834 
L 275.205781 231.329236 
L 275.383936 231.88536 
L 275.562092 231.373644 
L 275.918402 228.887197 
L 276.274712 224.070072 
L 276.809178 208.882475 
L 277.521799 181.846492 
L 278.59073 135.979871 
L 279.303351 113.58382 
L 280.372283 90.787126 
L 281.263059 79.390474 
L 281.619369 76.882146 
L 282.33199 69.249243 
L 282.688301 65.543224 
L 283.222766 59.217125 
L 283.579077 57.800402 
L 283.757232 57.24513 
L 283.935387 57.291328 
L 284.113543 58.479366 
L 284.469853 64.347361 
L 285.182474 80.879218 
L 286.07325 106.060302 
L 286.964026 125.964244 
L 287.854802 140.27007 
L 288.567423 144.986356 
L 288.745578 144.400649 
L 289.280044 138.140011 
L 289.636355 132.702992 
L 291.596062 86.536859 
L 292.486838 67.90247 
L 293.377614 53.472018 
L 293.91208 49.19537 
L 294.090235 48.623507 
L 294.26839 49.198755 
L 294.624701 52.567878 
L 294.981011 58.200192 
L 295.337322 68.478541 
L 296.049943 97.544161 
L 297.831495 180.076674 
L 298.187805 190.174939 
L 298.544116 194.979268 
L 298.722271 195.864487 
L 298.900426 196.111179 
L 299.078582 195.933445 
L 299.256737 194.493738 
L 300.147513 178.819617 
L 301.3946 151.206151 
L 301.75091 144.523954 
L 302.285376 139.670636 
L 302.641686 138.000037 
L 302.819841 138.361275 
L 303.176152 142.159252 
L 303.532462 149.19858 
L 304.066928 164.384035 
L 304.779549 185.197851 
L 305.135859 190.451433 
L 305.314015 191.759252 
L 305.49217 191.992236 
L 305.670325 190.639507 
L 306.026636 184.209994 
L 306.561101 170.223655 
L 307.451877 142.669391 
L 307.808188 136.312464 
L 307.986343 134.896323 
L 308.164498 134.481791 
L 308.342653 135.297213 
L 308.698964 138.815662 
L 309.946051 157.153632 
L 310.124206 157.921828 
L 310.302361 157.839042 
L 310.480516 156.708486 
L 310.836827 151.675167 
L 311.371292 135.825682 
L 313.865466 50.665602 
L 314.221776 48.587934 
L 314.399931 49.917182 
L 314.578086 53.682551 
L 314.934397 70.603714 
L 315.468863 111.075462 
L 316.715949 225.441974 
L 317.07226 237.176351 
L 317.250415 236.296462 
L 317.606725 222.89525 
L 318.141191 189.997208 
L 319.031967 130.74649 
L 319.744588 100.770197 
L 320.813519 75.968085 
L 321.704296 61.279132 
L 321.882451 60.307635 
L 322.060606 60.537876 
L 322.595072 63.325455 
L 323.485848 71.598972 
L 323.664003 72.07894 
L 323.842158 72.910274 
L 325.445555 87.331872 
L 325.801866 88.785289 
L 326.158176 92.742945 
L 326.692642 101.176052 
L 327.048952 113.309639 
L 328.296039 166.344174 
L 328.652349 171.156033 
L 328.830505 171.542597 
L 329.00866 171.425489 
L 329.186815 170.507504 
L 329.899436 163.551231 
L 330.077591 163.160621 
L 330.255746 162.141955 
L 330.612057 157.873773 
L 331.146523 147.910916 
L 331.859144 126.273067 
L 332.571764 101.846366 
L 333.284385 76.823067 
L 333.640696 71.712317 
L 333.818851 73.283705 
L 334.175162 84.646542 
L 335.422248 142.505368 
L 337.2038 179.053406 
L 337.738266 185.658673 
L 338.094577 187.380241 
L 338.272732 186.9448 
L 338.629042 183.926345 
L 338.985353 174.818558 
L 339.341663 156.562576 
L 340.410594 91.273976 
L 340.94506 69.572051 
L 341.301371 61.975362 
L 341.479526 61.184274 
L 341.657681 62.823392 
L 342.013992 72.422294 
L 342.370302 90.652286 
L 342.904768 120.695778 
L 343.439233 136.549209 
L 343.795544 141.506238 
L 343.973699 142.314813 
L 344.151854 142.304645 
L 344.330009 142.773046 
L 344.508165 142.47486 
L 344.68632 140.875025 
L 344.864475 137.653641 
L 346.111562 101.364901 
L 346.289717 100.905852 
L 346.467872 101.611447 
L 346.646027 101.353116 
L 346.824183 99.921649 
L 347.002338 97.027159 
L 347.536804 78.508133 
L 347.893114 67.047828 
L 348.071269 65.825877 
L 348.249424 67.672146 
L 348.605735 78.94583 
L 348.962045 99.248866 
L 349.852822 159.722896 
L 350.387287 189.379408 
L 350.743598 197.134256 
L 350.921753 198.753381 
L 351.099908 198.419048 
L 351.278063 196.214889 
L 351.456219 190.078003 
L 353.772237 59.136771 
L 354.128547 47.868392 
L 354.306702 46.74065 
L 354.484857 47.078438 
L 354.841168 48.347934 
L 355.197478 49.089971 
L 355.375634 48.771379 
L 355.553789 48.127235 
L 356.088255 44.71544 
L 356.26641 45.981186 
L 356.444565 49.397547 
L 357.513496 79.789205 
L 357.869807 83.787587 
L 358.047962 82.472168 
L 358.404272 78.295158 
L 358.582428 78.584473 
L 360.36398 100.572677 
L 360.72029 113.716375 
L 361.789222 171.305457 
L 361.967377 175.58979 
L 362.145532 176.563839 
L 362.323687 175.46054 
L 362.501843 173.309 
L 362.679998 172.552882 
L 362.858153 173.171583 
L 363.214464 175.744246 
L 363.392619 174.801951 
L 363.570774 171.430534 
L 363.927085 153.945579 
L 364.46155 105.080562 
L 364.996016 62.114024 
L 365.352326 53.792575 
L 365.530482 53.610486 
L 365.708637 54.881307 
L 366.064947 61.098524 
L 366.421258 70.1198 
L 366.955723 77.244351 
L 367.312034 93.382124 
L 368.737276 181.98876 
L 369.093586 199.668324 
L 369.806207 243.765744 
L 370.162518 250.997315 
L 370.340673 250.876554 
L 370.518828 247.417181 
L 371.765915 206.027101 
L 372.122225 183.164442 
L 373.191156 92.918927 
L 373.547467 84.141319 
L 373.903777 85.095634 
L 374.081933 83.087761 
L 374.260088 77.840702 
L 375.329019 28.639622 
L 375.507174 28.261811 
L 375.863485 38.466938 
L 376.219795 49.022912 
L 376.576106 52.362102 
L 376.932416 56.61407 
L 377.288727 64.350327 
L 377.645037 78.057107 
L 378.001348 93.540535 
L 378.179503 97.150708 
L 378.357658 97.504117 
L 379.070279 87.488913 
L 379.248434 87.904395 
L 379.426589 91.091569 
L 379.7829 109.459435 
L 380.317365 145.898703 
L 380.673676 158.751064 
L 381.029986 165.079303 
L 381.208142 165.656497 
L 381.386297 164.241066 
L 382.811539 140.585337 
L 382.989694 140.766039 
L 383.167849 143.183986 
L 383.52416 154.898334 
L 384.058625 177.742089 
L 384.23678 180.079604 
L 384.414936 178.954471 
L 384.593091 173.910037 
L 385.483867 128.905269 
L 385.662022 126.709488 
L 385.840178 126.382843 
L 386.018333 126.422727 
L 386.374643 127.330244 
L 386.552798 125.495692 
L 386.909109 113.194768 
L 387.265419 103.037877 
L 387.443575 104.803357 
L 388.334351 125.641908 
L 388.512506 127.238363 
L 388.690661 125.432249 
L 389.225127 114.108174 
L 389.403282 117.688708 
L 389.937748 143.356656 
L 390.828524 182.71951 
L 391.006679 180.550002 
L 391.897455 157.662922 
L 392.253766 144.61031 
L 392.966387 127.338541 
L 393.500852 104.217138 
L 394.035318 88.594545 
L 394.391628 83.390486 
L 394.747939 80.109816 
L 395.104249 72.977007 
L 395.81687 57.175532 
L 395.995026 56.22859 
L 396.707646 60.9651 
L 397.063957 67.394803 
L 397.598423 86.862654 
L 398.489199 137.035445 
L 398.667354 136.541247 
L 399.023664 128.58272 
L 399.379975 114.698791 
L 399.736285 97.380456 
L 399.914441 94.65529 
L 400.092596 98.480051 
L 400.448906 110.207287 
L 400.627061 113.232844 
L 401.161527 116.709307 
L 401.339682 114.74068 
L 401.695993 108.270267 
L 401.874148 110.55963 
L 402.230458 125.645254 
L 402.408614 127.463463 
L 402.943079 118.086681 
L 403.29939 123.894606 
L 403.477545 122.733224 
L 403.833856 114.903769 
L 404.012011 115.473989 
L 404.368321 120.670906 
L 404.724632 121.809707 
L 405.080942 124.470833 
L 405.259097 120.675837 
L 405.793563 91.631429 
L 405.971718 91.034273 
L 406.328029 98.183731 
L 406.506184 98.186003 
L 406.684339 96.817708 
L 406.862494 96.42439 
L 407.04065 97.63612 
L 407.218805 97.701698 
L 407.39696 94.26066 
L 407.753271 83.840466 
L 407.931426 82.860774 
L 408.109581 86.135045 
L 408.465891 103.674086 
L 409.534823 177.598027 
L 410.069289 196.616237 
L 410.781909 203.890878 
L 410.960065 205.598631 
L 411.13822 202.273623 
L 411.49453 180.039409 
L 411.850841 158.318285 
L 412.028996 155.406293 
L 412.207151 157.116428 
L 412.563462 168.810178 
L 413.097927 190.143806 
L 413.276083 192.900618 
L 413.454238 188.400493 
L 413.810548 156.286649 
L 414.345014 105.739835 
L 415.23579 50.091166 
L 415.413945 51.191079 
L 415.948411 70.32906 
L 416.304721 89.363666 
L 417.017342 139.545149 
L 417.373653 168.785891 
L 417.551808 171.04811 
L 417.729963 162.487402 
L 418.086274 134.706828 
L 418.264429 129.610522 
L 418.442584 131.123042 
L 418.798895 140.051681 
L 418.97705 140.870617 
L 419.155205 140.322212 
L 419.33336 139.256558 
L 419.511516 139.041283 
L 419.689671 137.367862 
L 419.867826 132.308338 
L 420.402292 108.879153 
L 420.580447 108.023524 
L 420.936757 112.303859 
L 421.114913 109.604866 
L 421.649378 93.779343 
L 421.827534 91.734205 
L 422.005689 87.214802 
L 422.361999 68.703739 
L 422.361999 68.703739 
" style="fill:none;stroke:#009afa;"/>
   </g>
   <g id="matplotlib.axis_1">
    <g id="xtick_1">
     <g id="line2d_2">
      <defs>
       <path d="M 0 0 
L 0 -2.5 
" id="m1dc0e67b6d" style="stroke:#000000;stroke-width:0.5;"/>
      </defs>
      <g>
       <use style="stroke:#000000;stroke-width:0.5;" x="66.051544" xlink:href="#m1dc0e67b6d" y="258.225354"/>
      </g>
     </g>
     <g id="text_1">
      <!-- $\mathregular{0.0}$ -->
      <g transform="translate(59.651544 267.804104)scale(0.08 -0.08)">
       <defs>
        <path d="M 31.78125 66.40625 
Q 24.171875 66.40625 20.328125 58.90625 
Q 16.5 51.421875 16.5 36.375 
Q 16.5 21.390625 20.328125 13.890625 
Q 24.171875 6.390625 31.78125 6.390625 
Q 39.453125 6.390625 43.28125 13.890625 
Q 47.125 21.390625 47.125 36.375 
Q 47.125 51.421875 43.28125 58.90625 
Q 39.453125 66.40625 31.78125 66.40625 
z
M 31.78125 74.21875 
Q 44.046875 74.21875 50.515625 64.515625 
Q 56.984375 54.828125 56.984375 36.375 
Q 56.984375 17.96875 50.515625 8.265625 
Q 44.046875 -1.421875 31.78125 -1.421875 
Q 19.53125 -1.421875 13.0625 8.265625 
Q 6.59375 17.96875 6.59375 36.375 
Q 6.59375 54.828125 13.0625 64.515625 
Q 19.53125 74.21875 31.78125 74.21875 
z
" id="DejaVuSans-48"/>
        <path d="M 10.6875 12.40625 
L 21 12.40625 
L 21 0 
L 10.6875 0 
z
" id="DejaVuSans-46"/>
       </defs>
       <use transform="translate(0 0.78125)" xlink:href="#DejaVuSans-48"/>
       <use transform="translate(63.623047 0.78125)" xlink:href="#DejaVuSans-46"/>
       <use transform="translate(95.410156 0.78125)" xlink:href="#DejaVuSans-48"/>
      </g>
     </g>
    </g>
    <g id="xtick_2">
     <g id="line2d_3">
      <g>
       <use style="stroke:#000000;stroke-width:0.5;" x="155.129158" xlink:href="#m1dc0e67b6d" y="258.225354"/>
      </g>
     </g>
     <g id="text_2">
      <!-- $\mathregular{0.5}$ -->
      <g transform="translate(148.729158 267.804104)scale(0.08 -0.08)">
       <defs>
        <path d="M 10.796875 72.90625 
L 49.515625 72.90625 
L 49.515625 64.59375 
L 19.828125 64.59375 
L 19.828125 46.734375 
Q 21.96875 47.46875 24.109375 47.828125 
Q 26.265625 48.1875 28.421875 48.1875 
Q 40.625 48.1875 47.75 41.5 
Q 54.890625 34.8125 54.890625 23.390625 
Q 54.890625 11.625 47.5625 5.09375 
Q 40.234375 -1.421875 26.90625 -1.421875 
Q 22.3125 -1.421875 17.546875 -0.640625 
Q 12.796875 0.140625 7.71875 1.703125 
L 7.71875 11.625 
Q 12.109375 9.234375 16.796875 8.0625 
Q 21.484375 6.890625 26.703125 6.890625 
Q 35.15625 6.890625 40.078125 11.328125 
Q 45.015625 15.765625 45.015625 23.390625 
Q 45.015625 31 40.078125 35.4375 
Q 35.15625 39.890625 26.703125 39.890625 
Q 22.75 39.890625 18.8125 39.015625 
Q 14.890625 38.140625 10.796875 36.28125 
z
" id="DejaVuSans-53"/>
       </defs>
       <use transform="translate(0 0.78125)" xlink:href="#DejaVuSans-48"/>
       <use transform="translate(63.623047 0.78125)" xlink:href="#DejaVuSans-46"/>
       <use transform="translate(95.410156 0.78125)" xlink:href="#DejaVuSans-53"/>
      </g>
     </g>
    </g>
    <g id="xtick_3">
     <g id="line2d_4">
      <g>
       <use style="stroke:#000000;stroke-width:0.5;" x="244.206771" xlink:href="#m1dc0e67b6d" y="258.225354"/>
      </g>
     </g>
     <g id="text_3">
      <!-- $\mathregular{1.0}$ -->
      <g transform="translate(237.806771 267.804104)scale(0.08 -0.08)">
       <defs>
        <path d="M 12.40625 8.296875 
L 28.515625 8.296875 
L 28.515625 63.921875 
L 10.984375 60.40625 
L 10.984375 69.390625 
L 28.421875 72.90625 
L 38.28125 72.90625 
L 38.28125 8.296875 
L 54.390625 8.296875 
L 54.390625 0 
L 12.40625 0 
z
" id="DejaVuSans-49"/>
       </defs>
       <use transform="translate(0 0.78125)" xlink:href="#DejaVuSans-49"/>
       <use transform="translate(63.623047 0.78125)" xlink:href="#DejaVuSans-46"/>
       <use transform="translate(95.410156 0.78125)" xlink:href="#DejaVuSans-48"/>
      </g>
     </g>
    </g>
    <g id="xtick_4">
     <g id="line2d_5">
      <g>
       <use style="stroke:#000000;stroke-width:0.5;" x="333.284385" xlink:href="#m1dc0e67b6d" y="258.225354"/>
      </g>
     </g>
     <g id="text_4">
      <!-- $\mathregular{1.5}$ -->
      <g transform="translate(326.884385 267.804104)scale(0.08 -0.08)">
       <use transform="translate(0 0.09375)" xlink:href="#DejaVuSans-49"/>
       <use transform="translate(63.623047 0.09375)" xlink:href="#DejaVuSans-46"/>
       <use transform="translate(95.410156 0.09375)" xlink:href="#DejaVuSans-53"/>
      </g>
     </g>
    </g>
    <g id="xtick_5">
     <g id="line2d_6">
      <g>
       <use style="stroke:#000000;stroke-width:0.5;" x="422.361999" xlink:href="#m1dc0e67b6d" y="258.225354"/>
      </g>
     </g>
     <g id="text_5">
      <!-- $\mathregular{2.0}$ -->
      <g transform="translate(415.961999 267.804104)scale(0.08 -0.08)">
       <defs>
        <path d="M 19.1875 8.296875 
L 53.609375 8.296875 
L 53.609375 0 
L 7.328125 0 
L 7.328125 8.296875 
Q 12.9375 14.109375 22.625 23.890625 
Q 32.328125 33.6875 34.8125 36.53125 
Q 39.546875 41.84375 41.421875 45.53125 
Q 43.3125 49.21875 43.3125 52.78125 
Q 43.3125 58.59375 39.234375 62.25 
Q 35.15625 65.921875 28.609375 65.921875 
Q 23.96875 65.921875 18.8125 64.3125 
Q 13.671875 62.703125 7.8125 59.421875 
L 7.8125 69.390625 
Q 13.765625 71.78125 18.9375 73 
Q 24.125 74.21875 28.421875 74.21875 
Q 39.75 74.21875 46.484375 68.546875 
Q 53.21875 62.890625 53.21875 53.421875 
Q 53.21875 48.921875 51.53125 44.890625 
Q 49.859375 40.875 45.40625 35.40625 
Q 44.1875 33.984375 37.640625 27.21875 
Q 31.109375 20.453125 19.1875 8.296875 
z
" id="DejaVuSans-50"/>
       </defs>
       <use transform="translate(0 0.78125)" xlink:href="#DejaVuSans-50"/>
       <use transform="translate(63.623047 0.78125)" xlink:href="#DejaVuSans-46"/>
       <use transform="translate(95.410156 0.78125)" xlink:href="#DejaVuSans-48"/>
      </g>
     </g>
    </g>
    <g id="text_6">
     <!-- Time (s) -->
     <g transform="translate(221.844975 281.826136)scale(0.11 -0.11)">
      <defs>
       <path d="M -0.296875 72.90625 
L 61.375 72.90625 
L 61.375 64.59375 
L 35.5 64.59375 
L 35.5 0 
L 25.59375 0 
L 25.59375 64.59375 
L -0.296875 64.59375 
z
" id="DejaVuSans-84"/>
       <path d="M 9.421875 54.6875 
L 18.40625 54.6875 
L 18.40625 0 
L 9.421875 0 
z
M 9.421875 75.984375 
L 18.40625 75.984375 
L 18.40625 64.59375 
L 9.421875 64.59375 
z
" id="DejaVuSans-105"/>
       <path d="M 52 44.1875 
Q 55.375 50.25 60.0625 53.125 
Q 64.75 56 71.09375 56 
Q 79.640625 56 84.28125 50.015625 
Q 88.921875 44.046875 88.921875 33.015625 
L 88.921875 0 
L 79.890625 0 
L 79.890625 32.71875 
Q 79.890625 40.578125 77.09375 44.375 
Q 74.3125 48.1875 68.609375 48.1875 
Q 61.625 48.1875 57.5625 43.546875 
Q 53.515625 38.921875 53.515625 30.90625 
L 53.515625 0 
L 44.484375 0 
L 44.484375 32.71875 
Q 44.484375 40.625 41.703125 44.40625 
Q 38.921875 48.1875 33.109375 48.1875 
Q 26.21875 48.1875 22.15625 43.53125 
Q 18.109375 38.875 18.109375 30.90625 
L 18.109375 0 
L 9.078125 0 
L 9.078125 54.6875 
L 18.109375 54.6875 
L 18.109375 46.1875 
Q 21.1875 51.21875 25.484375 53.609375 
Q 29.78125 56 35.6875 56 
Q 41.65625 56 45.828125 52.96875 
Q 50 49.953125 52 44.1875 
z
" id="DejaVuSans-109"/>
       <path d="M 56.203125 29.59375 
L 56.203125 25.203125 
L 14.890625 25.203125 
Q 15.484375 15.921875 20.484375 11.0625 
Q 25.484375 6.203125 34.421875 6.203125 
Q 39.59375 6.203125 44.453125 7.46875 
Q 49.3125 8.734375 54.109375 11.28125 
L 54.109375 2.78125 
Q 49.265625 0.734375 44.1875 -0.34375 
Q 39.109375 -1.421875 33.890625 -1.421875 
Q 20.796875 -1.421875 13.15625 6.1875 
Q 5.515625 13.8125 5.515625 26.8125 
Q 5.515625 40.234375 12.765625 48.109375 
Q 20.015625 56 32.328125 56 
Q 43.359375 56 49.78125 48.890625 
Q 56.203125 41.796875 56.203125 29.59375 
z
M 47.21875 32.234375 
Q 47.125 39.59375 43.09375 43.984375 
Q 39.0625 48.390625 32.421875 48.390625 
Q 24.90625 48.390625 20.390625 44.140625 
Q 15.875 39.890625 15.1875 32.171875 
z
" id="DejaVuSans-101"/>
       <path id="DejaVuSans-32"/>
       <path d="M 31 75.875 
Q 24.46875 64.65625 21.28125 53.65625 
Q 18.109375 42.671875 18.109375 31.390625 
Q 18.109375 20.125 21.3125 9.0625 
Q 24.515625 -2 31 -13.1875 
L 23.1875 -13.1875 
Q 15.875 -1.703125 12.234375 9.375 
Q 8.59375 20.453125 8.59375 31.390625 
Q 8.59375 42.28125 12.203125 53.3125 
Q 15.828125 64.359375 23.1875 75.875 
z
" id="DejaVuSans-40"/>
       <path d="M 44.28125 53.078125 
L 44.28125 44.578125 
Q 40.484375 46.53125 36.375 47.5 
Q 32.28125 48.484375 27.875 48.484375 
Q 21.1875 48.484375 17.84375 46.4375 
Q 14.5 44.390625 14.5 40.28125 
Q 14.5 37.15625 16.890625 35.375 
Q 19.28125 33.59375 26.515625 31.984375 
L 29.59375 31.296875 
Q 39.15625 29.25 43.1875 25.515625 
Q 47.21875 21.78125 47.21875 15.09375 
Q 47.21875 7.46875 41.1875 3.015625 
Q 35.15625 -1.421875 24.609375 -1.421875 
Q 20.21875 -1.421875 15.453125 -0.5625 
Q 10.6875 0.296875 5.421875 2 
L 5.421875 11.28125 
Q 10.40625 8.6875 15.234375 7.390625 
Q 20.0625 6.109375 24.8125 6.109375 
Q 31.15625 6.109375 34.5625 8.28125 
Q 37.984375 10.453125 37.984375 14.40625 
Q 37.984375 18.0625 35.515625 20.015625 
Q 33.0625 21.96875 24.703125 23.78125 
L 21.578125 24.515625 
Q 13.234375 26.265625 9.515625 29.90625 
Q 5.8125 33.546875 5.8125 39.890625 
Q 5.8125 47.609375 11.28125 51.796875 
Q 16.75 56 26.8125 56 
Q 31.78125 56 36.171875 55.265625 
Q 40.578125 54.546875 44.28125 53.078125 
z
" id="DejaVuSans-115"/>
       <path d="M 8.015625 75.875 
L 15.828125 75.875 
Q 23.140625 64.359375 26.78125 53.3125 
Q 30.421875 42.28125 30.421875 31.390625 
Q 30.421875 20.453125 26.78125 9.375 
Q 23.140625 -1.703125 15.828125 -13.1875 
L 8.015625 -13.1875 
Q 14.5 -2 17.703125 9.0625 
Q 20.90625 20.125 20.90625 31.390625 
Q 20.90625 42.671875 17.703125 53.65625 
Q 14.5 64.65625 8.015625 75.875 
z
" id="DejaVuSans-41"/>
      </defs>
      <use xlink:href="#DejaVuSans-84"/>
      <use x="57.958984" xlink:href="#DejaVuSans-105"/>
      <use x="85.742188" xlink:href="#DejaVuSans-109"/>
      <use x="183.154297" xlink:href="#DejaVuSans-101"/>
      <use x="244.677734" xlink:href="#DejaVuSans-32"/>
      <use x="276.464844" xlink:href="#DejaVuSans-40"/>
      <use x="315.478516" xlink:href="#DejaVuSans-115"/>
      <use x="367.578125" xlink:href="#DejaVuSans-41"/>
     </g>
    </g>
   </g>
   <g id="matplotlib.axis_2">
    <g id="ytick_1">
     <g id="line2d_7">
      <defs>
       <path d="M 0 0 
L 2.5 0 
" id="m275d2677c1" style="stroke:#000000;stroke-width:0.5;"/>
      </defs>
      <g>
       <use style="stroke:#000000;stroke-width:0.5;" x="66.051544" xlink:href="#m275d2677c1" y="215.028471"/>
      </g>
     </g>
     <g id="text_7">
      <!-- $\mathregular{-6.0×10^{5}}$ -->
      <g transform="translate(22.311544 218.067846)scale(0.08 -0.08)">
       <defs>
        <path d="M 10.59375 35.5 
L 73.1875 35.5 
L 73.1875 27.203125 
L 10.59375 27.203125 
z
" id="DejaVuSans-8722"/>
        <path d="M 33.015625 40.375 
Q 26.375 40.375 22.484375 35.828125 
Q 18.609375 31.296875 18.609375 23.390625 
Q 18.609375 15.53125 22.484375 10.953125 
Q 26.375 6.390625 33.015625 6.390625 
Q 39.65625 6.390625 43.53125 10.953125 
Q 47.40625 15.53125 47.40625 23.390625 
Q 47.40625 31.296875 43.53125 35.828125 
Q 39.65625 40.375 33.015625 40.375 
z
M 52.59375 71.296875 
L 52.59375 62.3125 
Q 48.875 64.0625 45.09375 64.984375 
Q 41.3125 65.921875 37.59375 65.921875 
Q 27.828125 65.921875 22.671875 59.328125 
Q 17.53125 52.734375 16.796875 39.40625 
Q 19.671875 43.65625 24.015625 45.921875 
Q 28.375 48.1875 33.59375 48.1875 
Q 44.578125 48.1875 50.953125 41.515625 
Q 57.328125 34.859375 57.328125 23.390625 
Q 57.328125 12.15625 50.6875 5.359375 
Q 44.046875 -1.421875 33.015625 -1.421875 
Q 20.359375 -1.421875 13.671875 8.265625 
Q 6.984375 17.96875 6.984375 36.375 
Q 6.984375 53.65625 15.1875 63.9375 
Q 23.390625 74.21875 37.203125 74.21875 
Q 40.921875 74.21875 44.703125 73.484375 
Q 48.484375 72.75 52.59375 71.296875 
z
" id="DejaVuSans-54"/>
        <path d="M 70.125 53.71875 
L 47.796875 31.296875 
L 70.125 8.984375 
L 64.3125 3.078125 
L 41.890625 25.484375 
L 19.484375 3.078125 
L 13.71875 8.984375 
L 35.984375 31.296875 
L 13.71875 53.71875 
L 19.484375 59.625 
L 41.890625 37.203125 
L 64.3125 59.625 
z
" id="DejaVuSans-215"/>
       </defs>
       <use transform="translate(0 0.684375)" xlink:href="#DejaVuSans-8722"/>
       <use transform="translate(83.789062 0.684375)" xlink:href="#DejaVuSans-54"/>
       <use transform="translate(147.412109 0.684375)" xlink:href="#DejaVuSans-46"/>
       <use transform="translate(179.199219 0.684375)" xlink:href="#DejaVuSans-48"/>
       <use transform="translate(242.822266 0.684375)" xlink:href="#DejaVuSans-215"/>
       <use transform="translate(326.611328 0.684375)" xlink:href="#DejaVuSans-49"/>
       <use transform="translate(390.234375 0.684375)" xlink:href="#DejaVuSans-48"/>
       <use transform="translate(454.814453 38.965625)scale(0.7)" xlink:href="#DejaVuSans-53"/>
      </g>
     </g>
    </g>
    <g id="ytick_2">
     <g id="line2d_8">
      <g>
       <use style="stroke:#000000;stroke-width:0.5;" x="66.051544" xlink:href="#m275d2677c1" y="168.275456"/>
      </g>
     </g>
     <g id="text_8">
      <!-- $\mathregular{-3.0×10^{5}}$ -->
      <g transform="translate(22.311544 171.314831)scale(0.08 -0.08)">
       <defs>
        <path d="M 40.578125 39.3125 
Q 47.65625 37.796875 51.625 33 
Q 55.609375 28.21875 55.609375 21.1875 
Q 55.609375 10.40625 48.1875 4.484375 
Q 40.765625 -1.421875 27.09375 -1.421875 
Q 22.515625 -1.421875 17.65625 -0.515625 
Q 12.796875 0.390625 7.625 2.203125 
L 7.625 11.71875 
Q 11.71875 9.328125 16.59375 8.109375 
Q 21.484375 6.890625 26.8125 6.890625 
Q 36.078125 6.890625 40.9375 10.546875 
Q 45.796875 14.203125 45.796875 21.1875 
Q 45.796875 27.640625 41.28125 31.265625 
Q 36.765625 34.90625 28.71875 34.90625 
L 20.21875 34.90625 
L 20.21875 43.015625 
L 29.109375 43.015625 
Q 36.375 43.015625 40.234375 45.921875 
Q 44.09375 48.828125 44.09375 54.296875 
Q 44.09375 59.90625 40.109375 62.90625 
Q 36.140625 65.921875 28.71875 65.921875 
Q 24.65625 65.921875 20.015625 65.03125 
Q 15.375 64.15625 9.8125 62.3125 
L 9.8125 71.09375 
Q 15.4375 72.65625 20.34375 73.4375 
Q 25.25 74.21875 29.59375 74.21875 
Q 40.828125 74.21875 47.359375 69.109375 
Q 53.90625 64.015625 53.90625 55.328125 
Q 53.90625 49.265625 50.4375 45.09375 
Q 46.96875 40.921875 40.578125 39.3125 
z
" id="DejaVuSans-51"/>
       </defs>
       <use transform="translate(0 0.684375)" xlink:href="#DejaVuSans-8722"/>
       <use transform="translate(83.789062 0.684375)" xlink:href="#DejaVuSans-51"/>
       <use transform="translate(147.412109 0.684375)" xlink:href="#DejaVuSans-46"/>
       <use transform="translate(179.199219 0.684375)" xlink:href="#DejaVuSans-48"/>
       <use transform="translate(242.822266 0.684375)" xlink:href="#DejaVuSans-215"/>
       <use transform="translate(326.611328 0.684375)" xlink:href="#DejaVuSans-49"/>
       <use transform="translate(390.234375 0.684375)" xlink:href="#DejaVuSans-48"/>
       <use transform="translate(454.814453 38.965625)scale(0.7)" xlink:href="#DejaVuSans-53"/>
      </g>
     </g>
    </g>
    <g id="ytick_3">
     <g id="line2d_9">
      <g>
       <use style="stroke:#000000;stroke-width:0.5;" x="66.051544" xlink:href="#m275d2677c1" y="121.522442"/>
      </g>
     </g>
     <g id="text_9">
      <!-- $\mathregular{0}$ -->
      <g transform="translate(57.431544 124.561817)scale(0.08 -0.08)">
       <use transform="translate(0 0.78125)" xlink:href="#DejaVuSans-48"/>
      </g>
     </g>
    </g>
    <g id="ytick_4">
     <g id="line2d_10">
      <g>
       <use style="stroke:#000000;stroke-width:0.5;" x="66.051544" xlink:href="#m275d2677c1" y="74.769428"/>
      </g>
     </g>
     <g id="text_10">
      <!-- $\mathregular{3.0×10^{5}}$ -->
      <g transform="translate(29.031544 77.808803)scale(0.08 -0.08)">
       <use transform="translate(0 0.684375)" xlink:href="#DejaVuSans-51"/>
       <use transform="translate(63.623047 0.684375)" xlink:href="#DejaVuSans-46"/>
       <use transform="translate(95.410156 0.684375)" xlink:href="#DejaVuSans-48"/>
       <use transform="translate(159.033203 0.684375)" xlink:href="#DejaVuSans-215"/>
       <use transform="translate(242.822266 0.684375)" xlink:href="#DejaVuSans-49"/>
       <use transform="translate(306.445312 0.684375)" xlink:href="#DejaVuSans-48"/>
       <use transform="translate(371.025391 38.965625)scale(0.7)" xlink:href="#DejaVuSans-53"/>
      </g>
     </g>
    </g>
    <g id="ytick_5">
     <g id="line2d_11">
      <g>
       <use style="stroke:#000000;stroke-width:0.5;" x="66.051544" xlink:href="#m275d2677c1" y="28.016413"/>
      </g>
     </g>
     <g id="text_11">
      <!-- $\mathregular{6.0×10^{5}}$ -->
      <g transform="translate(29.031544 31.055788)scale(0.08 -0.08)">
       <use transform="translate(0 0.684375)" xlink:href="#DejaVuSans-54"/>
       <use transform="translate(63.623047 0.684375)" xlink:href="#DejaVuSans-46"/>
       <use transform="translate(95.410156 0.684375)" xlink:href="#DejaVuSans-48"/>
       <use transform="translate(159.033203 0.684375)" xlink:href="#DejaVuSans-215"/>
       <use transform="translate(242.822266 0.684375)" xlink:href="#DejaVuSans-49"/>
       <use transform="translate(306.445312 0.684375)" xlink:href="#DejaVuSans-48"/>
       <use transform="translate(371.025391 38.965625)scale(0.7)" xlink:href="#DejaVuSans-53"/>
      </g>
     </g>
    </g>
    <g id="text_12">
     <!-- $F_y$ ($N$) -->
     <g transform="translate(14.901544 146.315)rotate(-90)scale(0.11 -0.11)">
      <defs>
       <path d="M 16.890625 72.90625 
L 58.6875 72.90625 
L 57.078125 64.59375 
L 25.09375 64.59375 
L 20.90625 43.109375 
L 49.8125 43.109375 
L 48.1875 34.8125 
L 19.28125 34.8125 
L 12.5 0 
L 2.6875 0 
z
" id="DejaVuSans-Oblique-70"/>
       <path d="M 24.8125 -5.078125 
Q 18.5625 -15.578125 14.625 -18.1875 
Q 10.6875 -20.796875 4.59375 -20.796875 
L -2.484375 -20.796875 
L -0.984375 -13.28125 
L 4.203125 -13.28125 
Q 7.953125 -13.28125 10.59375 -11.234375 
Q 13.234375 -9.1875 16.5 -3.21875 
L 19.28125 2 
L 7.171875 54.6875 
L 16.703125 54.6875 
L 25.78125 12.796875 
L 50.875 54.6875 
L 60.296875 54.6875 
z
" id="DejaVuSans-Oblique-121"/>
       <path d="M 16.890625 72.90625 
L 30.171875 72.90625 
L 50.296875 10.40625 
L 62.5 72.90625 
L 72.125 72.90625 
L 57.90625 0 
L 44.578125 0 
L 24.515625 62.890625 
L 12.3125 0 
L 2.6875 0 
z
" id="DejaVuSans-Oblique-78"/>
      </defs>
      <use transform="translate(0 0.125)" xlink:href="#DejaVuSans-Oblique-70"/>
      <use transform="translate(57.519531 -16.28125)scale(0.7)" xlink:href="#DejaVuSans-Oblique-121"/>
      <use transform="translate(101.679688 0.125)" xlink:href="#DejaVuSans-32"/>
      <use transform="translate(133.466797 0.125)" xlink:href="#DejaVuSans-40"/>
      <use transform="translate(172.480469 0.125)" xlink:href="#DejaVuSans-Oblique-78"/>
      <use transform="translate(247.285156 0.125)" xlink:href="#DejaVuSans-41"/>
     </g>
    </g>
   </g>
   <g id="line2d_12">
    <path clip-path="url(#pd4d405646f)" d="M 66.051544 121.522442 
L 67.448795 121.624435 
L 67.625203 121.604914 
L 68.042179 121.343224 
L 68.539451 121.652153 
L 69.0104 121.428586 
L 69.156605 121.535805 
L 69.308228 121.55317 
L 69.459851 121.720364 
L 70.124723 121.327765 
L 70.294039 121.351127 
L 70.527065 121.455731 
L 70.784313 121.48496 
L 70.985935 121.484055 
L 71.244496 121.494514 
L 71.632653 121.668344 
L 72.513824 121.435684 
L 72.675097 121.526977 
L 72.83637 121.607308 
L 72.997643 121.662737 
L 73.158916 121.703386 
L 73.743768 121.652513 
L 74.082079 121.684538 
L 74.717584 121.433434 
L 75.086115 121.734514 
L 75.477296 121.55255 
L 75.676517 121.509392 
L 76.174568 121.662674 
L 76.466264 121.501376 
L 76.661136 121.423999 
L 77.407108 121.469897 
L 77.824429 121.28397 
L 78.211991 121.393854 
L 78.461045 121.472417 
L 78.631798 121.52374 
L 78.807268 121.434715 
L 79.586511 121.659642 
L 80.068589 121.333721 
L 80.371914 121.473795 
L 80.696795 121.602157 
L 80.920759 121.485705 
L 81.120981 121.392519 
L 81.325616 121.395643 
L 81.533392 121.507074 
L 81.849766 121.402035 
L 82.166141 121.2354 
L 82.380893 121.312298 
L 83.186222 121.549462 
L 84.368825 121.215088 
L 84.591608 121.102608 
L 84.835524 121.179605 
L 85.201398 121.446499 
L 85.456137 121.317589 
L 85.838244 121.312764 
L 86.347721 121.557426 
L 87.634391 121.648808 
L 88.449958 121.448064 
L 88.91953 121.404144 
L 89.415621 121.166524 
L 90.045059 121.264725 
L 90.296834 121.173728 
L 91.307537 121.314842 
L 91.699345 121.167343 
L 91.964665 121.251845 
L 93.679435 122.233176 
L 93.990123 122.351167 
L 94.932912 123.462459 
L 95.408081 123.801527 
L 95.922633 124.205741 
L 96.437185 124.455982 
L 97.294771 125.369416 
L 97.644812 125.625359 
L 98.210754 126.309819 
L 98.657965 126.463676 
L 99.138853 126.896328 
L 100.728946 126.975493 
L 101.150872 126.694784 
L 101.656768 126.510936 
L 102.189177 125.954051 
L 102.548581 125.769952 
L 102.910513 124.994833 
L 103.467592 123.92067 
L 104.041907 122.58405 
L 104.86051 120.809388 
L 106.194134 117.365434 
L 108.592196 111.541258 
L 109.5601 109.772901 
L 111.0278 107.680597 
L 111.797444 106.834691 
L 113.336385 105.788715 
L 113.539337 105.762781 
L 115.178262 106.800555 
L 115.58854 107.248619 
L 117.145687 110.326847 
L 117.864155 112.436731 
L 119.215295 117.065474 
L 120.405486 122.217851 
L 123.376834 136.946657 
L 124.123662 140.1495 
L 124.749945 142.313636 
L 125.672584 144.555484 
L 125.987042 145.074528 
L 126.61596 145.339696 
L 126.895559 145.34444 
L 127.738986 144.765951 
L 128.038991 144.385582 
L 128.639002 143.103742 
L 129.553683 140.275053 
L 131.117215 133.952817 
L 131.780156 131.436962 
L 133.125187 126.154394 
L 134.32061 122.882983 
L 135.28686 121.804676 
L 135.931027 121.71688 
L 136.575194 121.122694 
L 137.219361 120.968828 
L 137.868764 120.818666 
L 138.196084 120.834404 
L 139.178043 120.250309 
L 139.505363 119.983353 
L 140.160002 119.098866 
L 140.814642 117.815997 
L 144.719847 109.22361 
L 145.235558 108.549064 
L 146.009123 108.027018 
L 146.272926 108.131872 
L 146.537962 108.406272 
L 147.068033 109.644385 
L 147.909127 112.308506 
L 149.21058 117.392833 
L 149.9128 120.444537 
L 151.091877 124.522666 
L 151.955089 126.158402 
L 152.386695 126.347744 
L 152.831366 126.343458 
L 153.276037 126.192243 
L 153.736812 125.876977 
L 154.197586 125.247967 
L 154.658361 124.962465 
L 155.57991 123.164384 
L 156.501459 121.08599 
L 158.255028 118.357373 
L 159.187993 117.555359 
L 159.498982 117.420787 
L 160.120958 116.754894 
L 160.431947 116.673209 
L 161.053923 116.321608 
L 161.499055 116.123407 
L 162.681008 114.085395 
L 163.3164 112.315046 
L 164.451568 108.159105 
L 165.253423 104.730584 
L 166.367816 99.890596 
L 166.949455 97.949449 
L 167.387891 96.500356 
L 168.202817 94.430895 
L 168.526607 94.176052 
L 169.048744 93.746136 
L 169.233763 93.793595 
L 169.995369 94.599536 
L 170.807444 97.59321 
L 171.485531 101.460955 
L 171.970738 104.806083 
L 173.352689 117.015696 
L 174.775997 129.156245 
L 175.429332 133.353989 
L 176.452468 138.237456 
L 177.507157 141.555989 
L 177.874616 142.380464 
L 179.711908 148.222237 
L 180.817755 153.216864 
L 181.497713 155.697235 
L 182.23644 157.995845 
L 182.861183 159.498077 
L 183.556753 160.325311 
L 183.920957 160.489265 
L 184.220264 160.270846 
L 184.519571 159.859293 
L 184.823949 159.230026 
L 185.432704 156.746642 
L 186.135783 152.752811 
L 187.153268 145.37038 
L 190.002228 123.661634 
L 190.61272 120.197259 
L 191.465536 117.307564 
L 191.834163 116.743725 
L 192.483576 116.519389 
L 193.19989 116.658654 
L 193.662686 117.005396 
L 193.999377 117.533864 
L 195.217199 120.022072 
L 195.591727 120.235501 
L 195.792769 120.123397 
L 196.200758 119.257932 
L 196.628238 117.474141 
L 197.2902 112.794886 
L 198.188139 104.632886 
L 199.788987 90.576696 
L 200.520033 86.464294 
L 200.772622 85.512451 
L 201.025865 85.048108 
L 201.284817 84.962272 
L 201.543769 85.368037 
L 201.812271 86.516388 
L 202.349274 90.551823 
L 202.886278 96.8934 
L 203.423281 105.388711 
L 204.544003 128.606535 
L 205.666037 150.742689 
L 206.227273 158.753202 
L 206.799308 163.351201 
L 207.090726 163.967706 
L 207.382143 163.396123 
L 207.726159 161.51746 
L 208.094335 157.916976 
L 208.830687 147.587484 
L 209.960437 130.272965 
L 210.713603 122.146451 
L 211.092106 119.600571 
L 211.206285 119.57421 
L 211.434644 118.504535 
L 211.782617 117.694135 
L 212.404317 116.627671 
L 212.533619 116.80187 
L 212.792222 116.566227 
L 212.930934 116.458894 
L 213.215941 116.092339 
L 214.000778 115.501701 
L 214.163629 114.891168 
L 214.326481 114.923218 
L 214.489333 114.24146 
L 214.652184 114.093607 
L 214.97876 113.09765 
L 216.535423 107.387312 
L 217.978441 100.307847 
L 219.389486 88.407689 
L 221.341653 68.035982 
L 221.525794 66.938379 
L 221.894076 66.256123 
L 222.262357 66.787366 
L 222.462301 67.666862 
L 222.862189 70.885568 
L 223.474461 78.358504 
L 226.043937 116.307491 
L 226.495353 119.124501 
L 226.721061 119.72282 
L 226.946769 119.821565 
L 227.172477 119.304994 
L 227.638352 117.222081 
L 229.352006 104.610896 
L 229.600592 104.090473 
L 229.849177 103.909264 
L 230.097763 104.403916 
L 230.594934 106.767957 
L 230.952411 109.536256 
L 231.715612 118.069669 
L 232.771529 134.089139 
L 234.358084 159.459842 
L 237.102884 193.122168 
L 237.667726 197.429571 
L 237.956741 198.045716 
L 238.245757 197.419987 
L 238.543587 195.239472 
L 239.153266 186.372734 
L 239.795225 171.896139 
L 241.548498 128.269345 
L 241.914115 122.781855 
L 242.279732 119.305072 
L 242.645349 118.147144 
L 243.010966 119.038553 
L 243.298717 121.135558 
L 243.874218 127.944572 
L 245.11775 144.766064 
L 245.484242 147.432102 
L 245.671399 147.844817 
L 245.888085 147.849152 
L 246.104771 147.026933 
L 246.551662 143.085797 
L 247.23999 133.064279 
L 248.848853 106.852372 
L 249.078691 104.813766 
L 249.308528 103.882971 
L 249.538366 104.07632 
L 249.768204 105.262648 
L 249.998041 107.688614 
L 250.457716 115.997963 
L 252.332795 157.341304 
L 252.844949 161.851756 
L 253.526668 165.528151 
L 254.160989 168.179503 
L 254.503821 168.431252 
L 254.683121 168.196181 
L 254.865101 167.709316 
L 255.236719 165.098468 
L 255.810278 157.959408 
L 256.592811 143.570902 
L 257.50361 123.90209 
L 258.242791 102.897494 
L 260.863359 20.212412 
L 261.334167 13.060031 
L 261.666572 10.624768 
L 261.840195 10.220447 
L 262.013977 10.526943 
L 262.372356 13.535821 
L 262.742051 19.364765 
L 263.296595 34.17865 
L 264.035986 60.50353 
L 265.151923 101.110562 
L 265.729881 114.02987 
L 266.120322 117.205987 
L 266.322989 117.034741 
L 266.527796 115.670522 
L 266.945886 109.747218 
L 268.65049 77.752051 
L 269.101696 74.995281 
L 269.334528 74.460921 
L 269.577462 74.472487 
L 269.827826 75.084405 
L 270.078738 76.289283 
L 270.33053 78.205497 
L 270.586721 81.252511 
L 271.10406 91.603771 
L 271.647843 107.603852 
L 272.560324 144.232814 
L 273.939345 202.05386 
L 274.630287 221.850391 
L 274.975889 227.399006 
L 275.321491 230.237329 
L 275.627612 230.408118 
L 275.86559 228.69128 
L 276.103568 225.474245 
L 276.579524 214.369626 
L 277.241607 191.034357 
L 279.102884 116.929971 
L 279.873468 97.21533 
L 280.464049 87.294169 
L 281.089602 80.598496 
L 281.932133 72.865252 
L 283.306463 58.918039 
L 283.525235 58.370661 
L 283.63462 58.364329 
L 283.872359 59.449356 
L 284.110933 61.88856 
L 284.497579 68.300286 
L 285.278479 87.155742 
L 286.765667 122.309143 
L 287.583138 137.644233 
L 288.001641 142.354528 
L 288.210892 143.528707 
L 288.420144 143.93908 
L 288.629396 143.299581 
L 289.097299 138.371143 
L 289.581276 129.710777 
L 291.86295 79.409233 
L 293.213859 55.222427 
L 293.780637 49.203962 
L 294.064026 48.205481 
L 294.347414 49.116163 
L 294.630803 52.274928 
L 294.914624 57.619744 
L 295.487889 76.114634 
L 296.35622 117.264837 
L 297.452957 170.29652 
L 298.040597 187.531866 
L 298.366493 192.406515 
L 298.706901 194.715731 
L 298.88521 195.065893 
L 299.065257 194.197701 
L 299.425352 190.458289 
L 299.785447 185.336657 
L 302.126446 137.372416 
L 302.457776 135.277579 
L 302.623512 135.832887 
L 302.954983 140.302713 
L 303.461259 152.357276 
L 304.689754 187.061472 
L 304.915137 190.507452 
L 305.140539 192.16877 
L 305.36594 192.24353 
L 305.57597 190.686393 
L 305.867953 185.754723 
L 306.226563 176.182949 
L 307.5702 138.967984 
L 307.908877 134.931276 
L 308.134662 134.147113 
L 308.247555 134.508442 
L 308.489981 136.541862 
L 308.992013 144.477674 
L 309.68968 157.298291 
L 309.866979 158.797763 
L 310.044278 158.945537 
L 310.236204 158.01377 
L 310.636489 153.166882 
L 311.062552 143.599529 
L 311.938169 117.134381 
L 312.818584 81.859288 
L 313.478896 54.42517 
L 313.890407 43.464512 
L 314.081815 41.584732 
L 314.273222 42.508291 
L 314.46463 46.523626 
L 314.847445 64.552062 
L 315.23026 95.96088 
L 316.570113 224.861875 
L 316.956501 235.908658 
L 317.15899 234.883381 
L 317.361479 229.465735 
L 317.778192 207.200693 
L 318.968141 131.147833 
L 319.965525 92.463244 
L 320.90961 64.360512 
L 321.343657 57.357409 
L 321.622106 56.065818 
L 321.76133 56.554755 
L 322.186979 60.802652 
L 323.241765 73.501806 
L 323.880805 76.237 
L 324.201285 76.802335 
L 324.521766 79.082757 
L 325.782779 90.054575 
L 326.099438 92.803334 
L 326.417331 98.6467 
L 326.901707 113.267737 
L 328.202763 167.964177 
L 328.377516 170.432599 
L 328.552269 171.292249 
L 328.901776 170.116269 
L 330.027344 164.852559 
L 330.431837 159.439978 
L 331.077558 145.591644 
L 331.756448 127.689021 
L 332.241241 108.087633 
L 333.159794 67.109143 
L 333.376674 65.08797 
L 333.593554 67.797516 
L 333.810435 75.124423 
L 334.911997 132.285525 
L 335.26568 142.384987 
L 337.580803 184.477184 
L 338.063581 191.430244 
L 338.225503 192.010271 
L 338.387426 191.263596 
L 338.549349 188.67632 
L 338.88211 175.767027 
L 340.937315 57.507163 
L 341.148306 54.675034 
L 341.253802 55.029862 
L 341.465683 58.650739 
L 341.784839 70.297101 
L 342.635922 108.786039 
L 343.8967 141.605962 
L 344.17082 144.282515 
L 344.311963 142.856539 
L 344.59425 135.991049 
L 345.35268 113.509679 
L 345.511862 111.865531 
L 345.671043 112.168556 
L 346.002262 114.520182 
L 346.167872 114.321692 
L 346.333481 112.767684 
L 346.664701 104.583378 
L 347.733027 65.108748 
L 347.861631 64.584456 
L 347.992326 65.342445 
L 348.260218 71.482872 
L 348.682658 91.348431 
L 349.269889 133.964654 
L 350.063183 192.475523 
L 350.420697 203.491593 
L 350.605833 203.360362 
L 350.976104 195.951083 
L 351.556692 174.594787 
L 352.154761 145.880713 
L 353.39685 71.951173 
L 353.822323 60.124168 
L 354.250227 55.091428 
L 354.464179 53.342181 
L 354.862497 47.009378 
L 355.231822 40.553475 
L 355.41678 38.863447 
L 355.622564 39.563921 
L 355.840737 43.700749 
L 357.202765 81.116408 
L 357.695759 83.886236 
L 357.942633 84.473894 
L 358.189507 84.359573 
L 358.43638 84.532137 
L 358.683254 84.845656 
L 358.930128 83.298239 
L 359.177002 80.565578 
L 359.3929 79.580201 
L 359.608799 80.814049 
L 359.966337 89.22862 
L 360.5348 119.585219 
L 361.107196 148.257963 
L 361.503387 159.026058 
L 362.315926 173.895232 
L 362.726453 179.444001 
L 362.931716 179.758352 
L 363.13698 176.889907 
L 363.547506 160.225937 
L 364.093312 119.656422 
L 364.664302 80.465734 
L 365.213188 58.182577 
L 365.560657 52.195858 
L 365.713167 51.186249 
L 365.835346 51.613041 
L 365.989768 53.640078 
L 366.296819 62.278641 
L 366.816328 83.476779 
L 367.77764 132.170007 
L 369.532741 235.458789 
L 369.842853 239.447697 
L 370.006931 239.725592 
L 370.376558 239.36798 
L 370.561371 238.316837 
L 370.930997 233.971062 
L 371.117175 230.027687 
L 371.303353 223.353468 
L 371.667564 198.793472 
L 372.636857 120.765177 
L 373.100512 102.260308 
L 374.273314 65.588769 
L 374.782579 56.180852 
L 375.472225 44.511965 
L 375.832986 39.145084 
L 376.013367 38.707429 
L 376.193748 41.646812 
L 376.73489 63.398944 
L 377.308397 83.034974 
L 377.504515 83.869779 
L 378.097142 78.531576 
L 378.29707 79.200874 
L 378.496998 80.88811 
L 378.696926 84.148262 
L 379.096782 97.154839 
L 379.959648 136.943296 
L 380.426942 160.114931 
L 380.738471 166.652529 
L 380.894236 166.763714 
L 381.062174 164.26147 
L 381.47929 150.187626 
L 381.954624 137.69194 
L 382.113649 135.797241 
L 382.272675 135.600597 
L 382.4317 137.134979 
L 382.74975 145.556489 
L 383.387595 166.07458 
L 383.706518 170.488856 
L 383.865979 170.606279 
L 384.02544 169.659402 
L 384.184902 167.681043 
L 384.485132 159.305114 
L 385.052284 138.112005 
L 385.62183 124.857424 
L 385.764475 123.891758 
L 385.90712 124.318234 
L 386.23742 126.306302 
L 386.40257 126.50719 
L 386.567719 127.40943 
L 387.063169 132.885562 
L 387.228319 131.495555 
L 387.887104 118.273909 
L 388.319215 107.070117 
L 388.445419 106.764715 
L 388.571622 108.023065 
L 389.348901 125.031536 
L 390.30659 163.480227 
L 390.493966 170.110937 
L 390.689508 172.717603 
L 390.88505 170.533403 
L 391.276134 160.269045 
L 391.86276 143.933175 
L 392.253844 139.204314 
L 393.039493 119.825634 
L 393.628729 100.326552 
L 394.414378 88.871552 
L 394.61079 87.448632 
L 394.807202 82.779444 
L 395.440423 61.584333 
L 395.862571 47.429277 
L 396.08443 45.665612 
L 396.528148 56.940285 
L 396.750007 63.696338 
L 397.989415 123.466107 
L 398.1654 130.185757 
L 398.341386 131.954881 
L 398.693358 129.018029 
L 398.869343 127.036492 
L 399.221315 114.422949 
L 399.525632 103.347982 
L 399.982332 97.724813 
L 400.136476 97.436895 
L 400.29062 100.278011 
L 400.753052 115.675601 
L 400.907196 115.506498 
L 401.215484 112.595858 
L 401.369628 111.724945 
L 401.523772 110.136441 
L 401.856605 105.715376 
L 402.023197 108.416195 
L 402.458774 121.334624 
L 402.547415 121.562426 
L 403.142259 118.021697 
L 403.595971 109.301521 
L 403.718421 110.742704 
L 404.103598 118.324921 
L 404.362721 116.64655 
L 404.492282 116.901292 
L 404.886139 122.524898 
L 405.018288 120.228063 
L 405.422228 107.039489 
L 405.69402 105.340412 
L 405.972587 104.447344 
L 406.112752 105.674638 
L 406.53325 113.719488 
L 406.673415 110.113732 
L 407.093912 90.897769 
L 407.654575 84.738961 
L 407.794741 85.118758 
L 407.934907 90.062358 
L 409.107341 167.423223 
L 410.136976 191.566407 
L 410.497176 187.666945 
L 410.677275 186.208683 
L 410.857375 180.643053 
L 411.229194 158.403804 
L 411.417748 153.901121 
L 411.606303 156.933105 
L 411.983688 173.124038 
L 412.553333 204.328208 
L 412.745316 205.069773 
L 412.900819 201.052277 
L 413.257127 177.319254 
L 414.014658 107.585499 
L 414.769693 52.404514 
L 415.087613 43.460351 
L 415.259381 42.496476 
L 415.431148 49.351573 
L 416.474149 129.33244 
L 416.652508 143.400784 
L 416.831842 147.873991 
L 417.011175 145.998995 
L 417.383039 134.05691 
L 417.573587 126.783969 
L 417.764135 124.213159 
L 418.054983 130.637514 
L 418.841342 152.336471 
L 419.011487 150.018578 
L 419.351777 137.940622 
L 419.521922 135.433059 
L 419.692067 135.251259 
L 419.862212 136.167091 
L 420.376886 144.084854 
L 420.551271 141.520194 
L 420.900758 122.393349 
L 421.776267 61.563335 
L 421.951369 59.128744 
L 422.126471 59.048634 
L 422.361999 59.481436 
L 422.361999 59.481436 
" style="fill:none;stroke:#e36f47;"/>
   </g>
   <g id="patch_3">
    <path d="M 66.051544 258.225354 
L 66.051544 2.834646 
" style="fill:none;stroke:#000000;stroke-linecap:square;stroke-linejoin:miter;"/>
   </g>
   <g id="patch_4">
    <path d="M 66.051544 258.225354 
L 422.361999 258.225354 
" style="fill:none;stroke:#000000;stroke-linecap:square;stroke-linejoin:miter;"/>
   </g>
   <g id="legend_1">
    <g id="patch_5">
     <path d="M 299.041999 39.119646 
L 418.361999 39.119646 
L 418.361999 6.834646 
L 299.041999 6.834646 
z
" style="fill:#ffffff;stroke:#000000;stroke-linejoin:miter;"/>
    </g>
    <g id="line2d_13">
     <path d="M 305.441999 16.513396 
L 321.441999 16.513396 
" style="fill:none;stroke:#009afa;stroke-linejoin:miter;"/>
    </g>
    <g id="line2d_14"/>
    <g id="text_13">
     <!-- GXBeam -->
     <g transform="translate(327.841999 19.313396)scale(0.08 -0.08)">
      <defs>
       <path d="M 59.515625 10.40625 
L 59.515625 29.984375 
L 43.40625 29.984375 
L 43.40625 38.09375 
L 69.28125 38.09375 
L 69.28125 6.78125 
Q 63.578125 2.734375 56.6875 0.65625 
Q 49.8125 -1.421875 42 -1.421875 
Q 24.90625 -1.421875 15.25 8.5625 
Q 5.609375 18.5625 5.609375 36.375 
Q 5.609375 54.25 15.25 64.234375 
Q 24.90625 74.21875 42 74.21875 
Q 49.125 74.21875 55.546875 72.453125 
Q 61.96875 70.703125 67.390625 67.28125 
L 67.390625 56.78125 
Q 61.921875 61.421875 55.765625 63.765625 
Q 49.609375 66.109375 42.828125 66.109375 
Q 29.4375 66.109375 22.71875 58.640625 
Q 16.015625 51.171875 16.015625 36.375 
Q 16.015625 21.625 22.71875 14.15625 
Q 29.4375 6.6875 42.828125 6.6875 
Q 48.046875 6.6875 52.140625 7.59375 
Q 56.25 8.5 59.515625 10.40625 
z
" id="DejaVuSans-71"/>
       <path d="M 6.296875 72.90625 
L 16.890625 72.90625 
L 35.015625 45.796875 
L 53.21875 72.90625 
L 63.8125 72.90625 
L 40.375 37.890625 
L 65.375 0 
L 54.78125 0 
L 34.28125 31 
L 13.625 0 
L 2.984375 0 
L 29 38.921875 
z
" id="DejaVuSans-88"/>
       <path d="M 19.671875 34.8125 
L 19.671875 8.109375 
L 35.5 8.109375 
Q 43.453125 8.109375 47.28125 11.40625 
Q 51.125 14.703125 51.125 21.484375 
Q 51.125 28.328125 47.28125 31.5625 
Q 43.453125 34.8125 35.5 34.8125 
z
M 19.671875 64.796875 
L 19.671875 42.828125 
L 34.28125 42.828125 
Q 41.5 42.828125 45.03125 45.53125 
Q 48.578125 48.25 48.578125 53.8125 
Q 48.578125 59.328125 45.03125 62.0625 
Q 41.5 64.796875 34.28125 64.796875 
z
M 9.8125 72.90625 
L 35.015625 72.90625 
Q 46.296875 72.90625 52.390625 68.21875 
Q 58.5 63.53125 58.5 54.890625 
Q 58.5 48.1875 55.375 44.234375 
Q 52.25 40.28125 46.1875 39.3125 
Q 53.46875 37.75 57.5 32.78125 
Q 61.53125 27.828125 61.53125 20.40625 
Q 61.53125 10.640625 54.890625 5.3125 
Q 48.25 0 35.984375 0 
L 9.8125 0 
z
" id="DejaVuSans-66"/>
       <path d="M 34.28125 27.484375 
Q 23.390625 27.484375 19.1875 25 
Q 14.984375 22.515625 14.984375 16.5 
Q 14.984375 11.71875 18.140625 8.90625 
Q 21.296875 6.109375 26.703125 6.109375 
Q 34.1875 6.109375 38.703125 11.40625 
Q 43.21875 16.703125 43.21875 25.484375 
L 43.21875 27.484375 
z
M 52.203125 31.203125 
L 52.203125 0 
L 43.21875 0 
L 43.21875 8.296875 
Q 40.140625 3.328125 35.546875 0.953125 
Q 30.953125 -1.421875 24.3125 -1.421875 
Q 15.921875 -1.421875 10.953125 3.296875 
Q 6 8.015625 6 15.921875 
Q 6 25.140625 12.171875 29.828125 
Q 18.359375 34.515625 30.609375 34.515625 
L 43.21875 34.515625 
L 43.21875 35.40625 
Q 43.21875 41.609375 39.140625 45 
Q 35.0625 48.390625 27.6875 48.390625 
Q 23 48.390625 18.546875 47.265625 
Q 14.109375 46.140625 10.015625 43.890625 
L 10.015625 52.203125 
Q 14.9375 54.109375 19.578125 55.046875 
Q 24.21875 56 28.609375 56 
Q 40.484375 56 46.34375 49.84375 
Q 52.203125 43.703125 52.203125 31.203125 
z
" id="DejaVuSans-97"/>
      </defs>
      <use xlink:href="#DejaVuSans-71"/>
      <use x="77.490234" xlink:href="#DejaVuSans-88"/>
      <use x="145.996094" xlink:href="#DejaVuSans-66"/>
      <use x="214.599609" xlink:href="#DejaVuSans-101"/>
      <use x="276.123047" xlink:href="#DejaVuSans-97"/>
      <use x="337.402344" xlink:href="#DejaVuSans-109"/>
     </g>
    </g>
    <g id="line2d_15">
     <path d="M 305.441999 28.255896 
L 321.441999 28.255896 
" style="fill:none;stroke:#e36f47;stroke-linejoin:miter;"/>
    </g>
    <g id="line2d_16"/>
    <g id="text_14">
     <!-- DifferentialEquations -->
     <g transform="translate(327.841999 31.055896)scale(0.08 -0.08)">
      <defs>
       <path d="M 19.671875 64.796875 
L 19.671875 8.109375 
L 31.59375 8.109375 
Q 46.6875 8.109375 53.6875 14.9375 
Q 60.6875 21.78125 60.6875 36.53125 
Q 60.6875 51.171875 53.6875 57.984375 
Q 46.6875 64.796875 31.59375 64.796875 
z
M 9.8125 72.90625 
L 30.078125 72.90625 
Q 51.265625 72.90625 61.171875 64.09375 
Q 71.09375 55.28125 71.09375 36.53125 
Q 71.09375 17.671875 61.125 8.828125 
Q 51.171875 0 30.078125 0 
L 9.8125 0 
z
" id="DejaVuSans-68"/>
       <path d="M 37.109375 75.984375 
L 37.109375 68.5 
L 28.515625 68.5 
Q 23.6875 68.5 21.796875 66.546875 
Q 19.921875 64.59375 19.921875 59.515625 
L 19.921875 54.6875 
L 34.71875 54.6875 
L 34.71875 47.703125 
L 19.921875 47.703125 
L 19.921875 0 
L 10.890625 0 
L 10.890625 47.703125 
L 2.296875 47.703125 
L 2.296875 54.6875 
L 10.890625 54.6875 
L 10.890625 58.5 
Q 10.890625 67.625 15.140625 71.796875 
Q 19.390625 75.984375 28.609375 75.984375 
z
" id="DejaVuSans-102"/>
       <path d="M 41.109375 46.296875 
Q 39.59375 47.171875 37.8125 47.578125 
Q 36.03125 48 33.890625 48 
Q 26.265625 48 22.1875 43.046875 
Q 18.109375 38.09375 18.109375 28.8125 
L 18.109375 0 
L 9.078125 0 
L 9.078125 54.6875 
L 18.109375 54.6875 
L 18.109375 46.1875 
Q 20.953125 51.171875 25.484375 53.578125 
Q 30.03125 56 36.53125 56 
Q 37.453125 56 38.578125 55.875 
Q 39.703125 55.765625 41.0625 55.515625 
z
" id="DejaVuSans-114"/>
       <path d="M 54.890625 33.015625 
L 54.890625 0 
L 45.90625 0 
L 45.90625 32.71875 
Q 45.90625 40.484375 42.875 44.328125 
Q 39.84375 48.1875 33.796875 48.1875 
Q 26.515625 48.1875 22.3125 43.546875 
Q 18.109375 38.921875 18.109375 30.90625 
L 18.109375 0 
L 9.078125 0 
L 9.078125 54.6875 
L 18.109375 54.6875 
L 18.109375 46.1875 
Q 21.34375 51.125 25.703125 53.5625 
Q 30.078125 56 35.796875 56 
Q 45.21875 56 50.046875 50.171875 
Q 54.890625 44.34375 54.890625 33.015625 
z
" id="DejaVuSans-110"/>
       <path d="M 18.3125 70.21875 
L 18.3125 54.6875 
L 36.8125 54.6875 
L 36.8125 47.703125 
L 18.3125 47.703125 
L 18.3125 18.015625 
Q 18.3125 11.328125 20.140625 9.421875 
Q 21.96875 7.515625 27.59375 7.515625 
L 36.8125 7.515625 
L 36.8125 0 
L 27.59375 0 
Q 17.1875 0 13.234375 3.875 
Q 9.28125 7.765625 9.28125 18.015625 
L 9.28125 47.703125 
L 2.6875 47.703125 
L 2.6875 54.6875 
L 9.28125 54.6875 
L 9.28125 70.21875 
z
" id="DejaVuSans-116"/>
       <path d="M 9.421875 75.984375 
L 18.40625 75.984375 
L 18.40625 0 
L 9.421875 0 
z
" id="DejaVuSans-108"/>
       <path d="M 9.8125 72.90625 
L 55.90625 72.90625 
L 55.90625 64.59375 
L 19.671875 64.59375 
L 19.671875 43.015625 
L 54.390625 43.015625 
L 54.390625 34.71875 
L 19.671875 34.71875 
L 19.671875 8.296875 
L 56.78125 8.296875 
L 56.78125 0 
L 9.8125 0 
z
" id="DejaVuSans-69"/>
       <path d="M 14.796875 27.296875 
Q 14.796875 17.390625 18.875 11.75 
Q 22.953125 6.109375 30.078125 6.109375 
Q 37.203125 6.109375 41.296875 11.75 
Q 45.40625 17.390625 45.40625 27.296875 
Q 45.40625 37.203125 41.296875 42.84375 
Q 37.203125 48.484375 30.078125 48.484375 
Q 22.953125 48.484375 18.875 42.84375 
Q 14.796875 37.203125 14.796875 27.296875 
z
M 45.40625 8.203125 
Q 42.578125 3.328125 38.25 0.953125 
Q 33.9375 -1.421875 27.875 -1.421875 
Q 17.96875 -1.421875 11.734375 6.484375 
Q 5.515625 14.40625 5.515625 27.296875 
Q 5.515625 40.1875 11.734375 48.09375 
Q 17.96875 56 27.875 56 
Q 33.9375 56 38.25 53.625 
Q 42.578125 51.265625 45.40625 46.390625 
L 45.40625 54.6875 
L 54.390625 54.6875 
L 54.390625 -20.796875 
L 45.40625 -20.796875 
z
" id="DejaVuSans-113"/>
       <path d="M 8.5 21.578125 
L 8.5 54.6875 
L 17.484375 54.6875 
L 17.484375 21.921875 
Q 17.484375 14.15625 20.5 10.265625 
Q 23.53125 6.390625 29.59375 6.390625 
Q 36.859375 6.390625 41.078125 11.03125 
Q 45.3125 15.671875 45.3125 23.6875 
L 45.3125 54.6875 
L 54.296875 54.6875 
L 54.296875 0 
L 45.3125 0 
L 45.3125 8.40625 
Q 42.046875 3.421875 37.71875 1 
Q 33.40625 -1.421875 27.6875 -1.421875 
Q 18.265625 -1.421875 13.375 4.4375 
Q 8.5 10.296875 8.5 21.578125 
z
M 31.109375 56 
z
" id="DejaVuSans-117"/>
       <path d="M 30.609375 48.390625 
Q 23.390625 48.390625 19.1875 42.75 
Q 14.984375 37.109375 14.984375 27.296875 
Q 14.984375 17.484375 19.15625 11.84375 
Q 23.34375 6.203125 30.609375 6.203125 
Q 37.796875 6.203125 41.984375 11.859375 
Q 46.1875 17.53125 46.1875 27.296875 
Q 46.1875 37.015625 41.984375 42.703125 
Q 37.796875 48.390625 30.609375 48.390625 
z
M 30.609375 56 
Q 42.328125 56 49.015625 48.375 
Q 55.71875 40.765625 55.71875 27.296875 
Q 55.71875 13.875 49.015625 6.21875 
Q 42.328125 -1.421875 30.609375 -1.421875 
Q 18.84375 -1.421875 12.171875 6.21875 
Q 5.515625 13.875 5.515625 27.296875 
Q 5.515625 40.765625 12.171875 48.375 
Q 18.84375 56 30.609375 56 
z
" id="DejaVuSans-111"/>
      </defs>
      <use xlink:href="#DejaVuSans-68"/>
      <use x="77.001953" xlink:href="#DejaVuSans-105"/>
      <use x="104.785156" xlink:href="#DejaVuSans-102"/>
      <use x="139.990234" xlink:href="#DejaVuSans-102"/>
      <use x="175.195312" xlink:href="#DejaVuSans-101"/>
      <use x="236.71875" xlink:href="#DejaVuSans-114"/>
      <use x="275.582031" xlink:href="#DejaVuSans-101"/>
      <use x="337.105469" xlink:href="#DejaVuSans-110"/>
      <use x="400.484375" xlink:href="#DejaVuSans-116"/>
      <use x="439.693359" xlink:href="#DejaVuSans-105"/>
      <use x="467.476562" xlink:href="#DejaVuSans-97"/>
      <use x="528.755859" xlink:href="#DejaVuSans-108"/>
      <use x="556.539062" xlink:href="#DejaVuSans-69"/>
      <use x="619.722656" xlink:href="#DejaVuSans-113"/>
      <use x="683.199219" xlink:href="#DejaVuSans-117"/>
      <use x="746.578125" xlink:href="#DejaVuSans-97"/>
      <use x="807.857422" xlink:href="#DejaVuSans-116"/>
      <use x="847.066406" xlink:href="#DejaVuSans-105"/>
      <use x="874.849609" xlink:href="#DejaVuSans-111"/>
      <use x="936.03125" xlink:href="#DejaVuSans-110"/>
      <use x="999.410156" xlink:href="#DejaVuSans-115"/>
     </g>
    </g>
   </g>
  </g>
 </g>
 <defs>
  <clipPath id="pd4d405646f">
   <rect height="255.390709" width="356.310455" x="66.051544" y="2.834646"/>
  </clipPath>
 </defs>
</svg>
