<?xml version="1.0" encoding="utf-8" standalone="no"?>
<!DOCTYPE svg PUBLIC "-//W3C//DTD SVG 1.1//EN"
  "http://www.w3.org/Graphics/SVG/1.1/DTD/svg11.dtd">
<!-- Created with matplotlib (https://matplotlib.org/) -->
<svg height="288pt" version="1.1" viewBox="0 0 432 288" width="432pt" xmlns="http://www.w3.org/2000/svg" xmlns:xlink="http://www.w3.org/1999/xlink">
 <metadata>
  <rdf:RDF xmlns:cc="http://creativecommons.org/ns#" xmlns:dc="http://purl.org/dc/elements/1.1/" xmlns:rdf="http://www.w3.org/1999/02/22-rdf-syntax-ns#">
   <cc:Work>
    <dc:type rdf:resource="http://purl.org/dc/dcmitype/StillImage"/>
    <dc:date>2021-07-12T15:36:17.918504</dc:date>
    <dc:format>image/svg+xml</dc:format>
    <dc:creator>
     <cc:Agent>
      <dc:title>Matplotlib v3.3.4, https://matplotlib.org/</dc:title>
     </cc:Agent>
    </dc:creator>
   </cc:Work>
  </rdf:RDF>
 </metadata>
 <defs>
  <style type="text/css">*{stroke-linecap:butt;stroke-linejoin:round;}</style>
 </defs>
 <g id="figure_1">
  <g id="patch_1">
   <path d="M 0 288 
L 432 288 
L 432 0 
L 0 0 
z
" style="fill:#ffffff;"/>
  </g>
  <g id="axes_1">
   <g id="patch_2">
    <path d="M 70.743821 258.225354 
L 419.805777 258.225354 
L 419.805777 2.834646 
L 70.743821 2.834646 
z
" style="fill:#ffffff;"/>
   </g>
   <g id="line2d_1">
    <path clip-path="url(#p253a05f0e0)" d="M 70.743821 115.301857 
L 71.092883 115.160768 
L 71.441945 114.738744 
L 72.489131 112.925595 
L 73.536317 112.160821 
L 74.583503 110.388911 
L 75.97975 109.115296 
L 77.026936 107.527059 
L 78.074122 106.649365 
L 79.121308 104.935996 
L 80.517556 103.638971 
L 81.21568 102.496053 
L 81.913804 101.837294 
L 82.262866 101.593529 
L 82.960989 100.66367 
L 83.659113 99.608444 
L 84.357237 99.018229 
L 84.706299 98.744581 
L 85.404423 97.75211 
L 86.102547 96.746125 
L 86.800671 96.37008 
L 87.149733 96.002282 
L 88.196919 94.248641 
L 89.244105 93.592917 
L 90.640352 91.536695 
L 91.338476 91.152623 
L 91.687538 90.707532 
L 92.385662 89.438586 
L 93.083786 88.825911 
L 93.432848 88.621685 
L 93.78191 88.250021 
L 94.829096 86.515592 
L 95.876282 85.8143 
L 97.27253 83.750794 
L 97.970654 83.335405 
L 99.715963 81.011589 
L 100.065025 80.778152 
L 100.763149 79.890296 
L 101.461273 78.861741 
L 102.159397 78.266697 
L 102.857521 77.568777 
L 103.904707 76.017846 
L 104.951893 75.23803 
L 106.348141 73.305293 
L 107.046264 72.870642 
L 107.395326 72.418183 
L 108.09345 71.189798 
L 108.791574 70.565573 
L 109.140636 70.385443 
L 109.489698 70.034761 
L 110.536884 68.332919 
L 111.235008 67.898484 
L 111.58407 67.640563 
L 112.980318 65.476205 
L 113.678442 65.121671 
L 114.376566 63.933549 
L 114.725627 63.285799 
L 115.074689 62.880483 
L 115.772813 62.516395 
L 116.121875 62.069425 
L 117.169061 60.262406 
L 118.216247 59.350884 
L 119.612495 57.174449 
L 120.310619 56.553753 
L 121.008743 55.497643 
L 121.706867 54.350086 
L 122.754052 53.328164 
L 124.1503 51.110795 
L 124.848424 50.515079 
L 125.546548 49.402891 
L 126.244672 48.288228 
L 127.64092 46.756481 
L 128.339044 45.489542 
L 128.688106 45.058192 
L 129.38623 44.586923 
L 129.735292 44.138566 
L 130.782477 42.352916 
L 131.480601 41.957078 
L 131.829663 41.565482 
L 132.876849 39.680192 
L 133.924035 38.943696 
L 135.320283 36.825409 
L 136.018407 36.388526 
L 136.367469 35.942591 
L 137.065593 34.670458 
L 137.763717 33.993513 
L 138.112779 33.786638 
L 138.461841 33.433502 
L 139.509026 31.728694 
L 140.905274 30.430179 
L 141.603398 29.285902 
L 142.301522 28.694514 
L 142.650584 28.417545 
L 143.348708 27.406214 
L 144.046832 26.385893 
L 145.44308 25.069574 
L 146.490266 23.493007 
L 147.537451 22.624451 
L 148.584637 20.890955 
L 149.631823 20.137998 
L 151.028071 18.094731 
L 151.726195 17.672514 
L 152.075257 17.208929 
L 152.773381 15.929128 
L 153.122443 15.49784 
L 154.169629 14.767905 
L 155.216814 13.002755 
L 155.565876 12.723495 
L 155.914938 12.607677 
L 156.264 12.353614 
L 157.660248 10.205923 
L 158.00931 10.062685 
L 158.358372 10.102502 
L 158.707434 10.460726 
L 159.75462 12.469601 
L 160.801806 13.176815 
L 162.198054 15.425388 
L 162.547115 15.583937 
L 162.896177 15.892328 
L 163.594301 17.017869 
L 164.292425 18.063932 
L 164.990549 18.637591 
L 165.339611 19.1025 
L 166.386797 21.056494 
L 167.433983 22.054045 
L 170.924602 27.956134 
L 173.018974 31.751224 
L 173.717098 33.079606 
L 174.415222 34.232035 
L 176.160532 38.189608 
L 176.509594 38.789294 
L 177.207718 40.748452 
L 177.905842 42.506338 
L 178.603965 43.598476 
L 178.953027 44.390944 
L 180.000213 47.455545 
L 181.047399 49.499976 
L 182.094585 52.650689 
L 183.490833 55.68182 
L 184.188957 57.929541 
L 185.585205 61.133611 
L 186.63239 64.428642 
L 187.679576 66.982636 
L 189.075824 71.379762 
L 190.12301 74.494391 
L 194.660815 90.3901 
L 196.057063 96.294174 
L 196.755187 98.755287 
L 198.500497 106.149931 
L 199.198621 108.899949 
L 200.245807 113.846498 
L 201.292993 117.715082 
L 202.340179 122.544917 
L 203.387364 125.9962 
L 204.43455 130.568085 
L 205.830798 135.058033 
L 206.528922 137.666252 
L 208.972356 144.211978 
L 210.368604 147.027955 
L 211.066727 148.540793 
L 211.764851 149.408829 
L 212.462975 150.240652 
L 213.510161 151.804472 
L 214.208285 152.358152 
L 214.557347 152.600592 
L 215.255471 153.450427 
L 215.953595 154.286269 
L 217.000781 154.579313 
L 217.349843 154.944908 
L 218.047967 155.863122 
L 219.095152 156.175881 
L 220.4914 157.970386 
L 220.840462 158.006392 
L 221.189524 158.217253 
L 221.538586 158.692927 
L 222.23671 160.046294 
L 222.934834 160.565927 
L 223.283896 160.827171 
L 223.632958 161.344133 
L 224.680144 163.627091 
L 225.72733 164.995154 
L 227.123577 168.191625 
L 227.821701 169.361335 
L 229.217949 173.107985 
L 229.916073 174.517926 
L 232.010445 179.958799 
L 233.057631 182.676616 
L 233.755755 184.628009 
L 235.152002 187.815843 
L 235.850126 189.856867 
L 239.689808 198.41153 
L 240.387932 200.361055 
L 241.435118 202.23094 
L 242.831365 206.159741 
L 243.529489 207.367573 
L 244.227613 209.646894 
L 244.925737 211.902845 
L 246.671047 215.517689 
L 247.718233 217.631152 
L 250.85979 226.000663 
L 254.001348 234.853977 
L 255.048534 237.911657 
L 257.142906 243.100745 
L 258.888215 246.642014 
L 260.633525 249.459676 
L 261.331649 250.022296 
L 262.727897 250.883478 
L 264.124145 250.997035 
L 264.473207 250.964488 
L 265.171331 250.567256 
L 266.567578 249.53511 
L 267.963826 247.60557 
L 269.011012 246.085973 
L 271.105384 242.059281 
L 278.784747 225.576721 
L 280.180995 222.795903 
L 281.228181 220.96815 
L 282.275367 219.08405 
L 284.7188 215.194054 
L 286.46411 212.588848 
L 287.511296 211.029252 
L 288.558482 209.537503 
L 292.747225 204.47964 
L 294.143473 203.13921 
L 296.237845 201.958679 
L 297.983155 201.437369 
L 298.681278 201.723306 
L 300.077526 202.336163 
L 301.473774 203.507672 
L 302.171898 204.234803 
L 303.219084 205.760212 
L 303.917208 206.899979 
L 306.360642 212.015185 
L 308.455013 217.404001 
L 311.247509 225.323418 
L 312.643757 229.103554 
L 314.040005 232.969365 
L 315.436252 236.449781 
L 317.530624 240.828109 
L 318.926872 243.278002 
L 319.624996 244.31716 
L 321.370306 246.188527 
L 323.464677 247.442534 
L 324.511863 247.637146 
L 325.209987 247.812776 
L 325.908111 247.665284 
L 327.653421 246.979823 
L 329.398731 245.882613 
L 331.493102 243.966459 
L 336.030908 237.562264 
L 340.219651 229.764486 
L 341.615899 226.668548 
L 343.012147 223.444362 
L 344.408395 220.158475 
L 346.502766 215.203093 
L 348.597138 210.425461 
L 349.993386 207.702518 
L 350.69151 206.284028 
L 352.43682 203.442407 
L 353.484006 202.249316 
L 354.531191 201.213634 
L 356.625563 200.05933 
L 357.323687 200.135005 
L 358.719935 200.552036 
L 360.116183 201.553341 
L 360.814307 202.209792 
L 362.908678 205.010874 
L 366.74836 212.265216 
L 368.144608 215.333068 
L 369.191794 217.627497 
L 370.23898 219.92257 
L 373.031475 225.846641 
L 374.078661 228.015177 
L 375.474909 230.773817 
L 376.522095 232.633301 
L 378.965528 236.958294 
L 380.012714 238.765035 
L 381.0599 240.301804 
L 382.107086 241.857682 
L 382.80521 242.687107 
L 384.55052 245.024946 
L 385.946768 246.436767 
L 388.739263 248.169201 
L 389.786449 248.568639 
L 390.484573 248.508634 
L 392.229883 247.822133 
L 394.324254 246.194609 
L 396.418626 242.838516 
L 399.211122 236.90237 
L 400.258308 234.160063 
L 401.654556 230.135986 
L 403.748927 224.177621 
L 407.239547 214.306543 
L 410.032043 208.285203 
L 411.42829 205.875726 
L 413.1736 203.760583 
L 414.91891 202.620665 
L 415.617034 202.331722 
L 417.362344 202.279177 
L 419.107653 202.914017 
L 419.805777 203.431911 
L 419.805777 203.431911 
" style="fill:none;stroke:#009afa;"/>
   </g>
   <g id="matplotlib.axis_1">
    <g id="xtick_1">
     <g id="line2d_2">
      <defs>
       <path d="M 0 0 
L 0 -2.5 
" id="m28c2af5470" style="stroke:#000000;stroke-width:0.5;"/>
      </defs>
      <g>
       <use style="stroke:#000000;stroke-width:0.5;" x="70.743821" xlink:href="#m28c2af5470" y="258.225354"/>
      </g>
     </g>
     <g id="text_1">
      <!-- $\mathregular{0.00}$ -->
      <g transform="translate(61.823821 267.804104)scale(0.08 -0.08)">
       <defs>
        <path d="M 31.78125 66.40625 
Q 24.171875 66.40625 20.328125 58.90625 
Q 16.5 51.421875 16.5 36.375 
Q 16.5 21.390625 20.328125 13.890625 
Q 24.171875 6.390625 31.78125 6.390625 
Q 39.453125 6.390625 43.28125 13.890625 
Q 47.125 21.390625 47.125 36.375 
Q 47.125 51.421875 43.28125 58.90625 
Q 39.453125 66.40625 31.78125 66.40625 
z
M 31.78125 74.21875 
Q 44.046875 74.21875 50.515625 64.515625 
Q 56.984375 54.828125 56.984375 36.375 
Q 56.984375 17.96875 50.515625 8.265625 
Q 44.046875 -1.421875 31.78125 -1.421875 
Q 19.53125 -1.421875 13.0625 8.265625 
Q 6.59375 17.96875 6.59375 36.375 
Q 6.59375 54.828125 13.0625 64.515625 
Q 19.53125 74.21875 31.78125 74.21875 
z
" id="DejaVuSans-48"/>
        <path d="M 10.6875 12.40625 
L 21 12.40625 
L 21 0 
L 10.6875 0 
z
" id="DejaVuSans-46"/>
       </defs>
       <use transform="translate(0 0.78125)" xlink:href="#DejaVuSans-48"/>
       <use transform="translate(63.623047 0.78125)" xlink:href="#DejaVuSans-46"/>
       <use transform="translate(95.410156 0.78125)" xlink:href="#DejaVuSans-48"/>
       <use transform="translate(159.033203 0.78125)" xlink:href="#DejaVuSans-48"/>
      </g>
     </g>
    </g>
    <g id="xtick_2">
     <g id="line2d_3">
      <g>
       <use style="stroke:#000000;stroke-width:0.5;" x="158.00931" xlink:href="#m28c2af5470" y="258.225354"/>
      </g>
     </g>
     <g id="text_2">
      <!-- $\mathregular{0.01}$ -->
      <g transform="translate(149.08931 267.804104)scale(0.08 -0.08)">
       <defs>
        <path d="M 12.40625 8.296875 
L 28.515625 8.296875 
L 28.515625 63.921875 
L 10.984375 60.40625 
L 10.984375 69.390625 
L 28.421875 72.90625 
L 38.28125 72.90625 
L 38.28125 8.296875 
L 54.390625 8.296875 
L 54.390625 0 
L 12.40625 0 
z
" id="DejaVuSans-49"/>
       </defs>
       <use transform="translate(0 0.78125)" xlink:href="#DejaVuSans-48"/>
       <use transform="translate(63.623047 0.78125)" xlink:href="#DejaVuSans-46"/>
       <use transform="translate(95.410156 0.78125)" xlink:href="#DejaVuSans-48"/>
       <use transform="translate(159.033203 0.78125)" xlink:href="#DejaVuSans-49"/>
      </g>
     </g>
    </g>
    <g id="xtick_3">
     <g id="line2d_4">
      <g>
       <use style="stroke:#000000;stroke-width:0.5;" x="245.274799" xlink:href="#m28c2af5470" y="258.225354"/>
      </g>
     </g>
     <g id="text_3">
      <!-- $\mathregular{0.02}$ -->
      <g transform="translate(236.354799 267.804104)scale(0.08 -0.08)">
       <defs>
        <path d="M 19.1875 8.296875 
L 53.609375 8.296875 
L 53.609375 0 
L 7.328125 0 
L 7.328125 8.296875 
Q 12.9375 14.109375 22.625 23.890625 
Q 32.328125 33.6875 34.8125 36.53125 
Q 39.546875 41.84375 41.421875 45.53125 
Q 43.3125 49.21875 43.3125 52.78125 
Q 43.3125 58.59375 39.234375 62.25 
Q 35.15625 65.921875 28.609375 65.921875 
Q 23.96875 65.921875 18.8125 64.3125 
Q 13.671875 62.703125 7.8125 59.421875 
L 7.8125 69.390625 
Q 13.765625 71.78125 18.9375 73 
Q 24.125 74.21875 28.421875 74.21875 
Q 39.75 74.21875 46.484375 68.546875 
Q 53.21875 62.890625 53.21875 53.421875 
Q 53.21875 48.921875 51.53125 44.890625 
Q 49.859375 40.875 45.40625 35.40625 
Q 44.1875 33.984375 37.640625 27.21875 
Q 31.109375 20.453125 19.1875 8.296875 
z
" id="DejaVuSans-50"/>
       </defs>
       <use transform="translate(0 0.78125)" xlink:href="#DejaVuSans-48"/>
       <use transform="translate(63.623047 0.78125)" xlink:href="#DejaVuSans-46"/>
       <use transform="translate(95.410156 0.78125)" xlink:href="#DejaVuSans-48"/>
       <use transform="translate(159.033203 0.78125)" xlink:href="#DejaVuSans-50"/>
      </g>
     </g>
    </g>
    <g id="xtick_4">
     <g id="line2d_5">
      <g>
       <use style="stroke:#000000;stroke-width:0.5;" x="332.540288" xlink:href="#m28c2af5470" y="258.225354"/>
      </g>
     </g>
     <g id="text_4">
      <!-- $\mathregular{0.03}$ -->
      <g transform="translate(323.620288 267.804104)scale(0.08 -0.08)">
       <defs>
        <path d="M 40.578125 39.3125 
Q 47.65625 37.796875 51.625 33 
Q 55.609375 28.21875 55.609375 21.1875 
Q 55.609375 10.40625 48.1875 4.484375 
Q 40.765625 -1.421875 27.09375 -1.421875 
Q 22.515625 -1.421875 17.65625 -0.515625 
Q 12.796875 0.390625 7.625 2.203125 
L 7.625 11.71875 
Q 11.71875 9.328125 16.59375 8.109375 
Q 21.484375 6.890625 26.8125 6.890625 
Q 36.078125 6.890625 40.9375 10.546875 
Q 45.796875 14.203125 45.796875 21.1875 
Q 45.796875 27.640625 41.28125 31.265625 
Q 36.765625 34.90625 28.71875 34.90625 
L 20.21875 34.90625 
L 20.21875 43.015625 
L 29.109375 43.015625 
Q 36.375 43.015625 40.234375 45.921875 
Q 44.09375 48.828125 44.09375 54.296875 
Q 44.09375 59.90625 40.109375 62.90625 
Q 36.140625 65.921875 28.71875 65.921875 
Q 24.65625 65.921875 20.015625 65.03125 
Q 15.375 64.15625 9.8125 62.3125 
L 9.8125 71.09375 
Q 15.4375 72.65625 20.34375 73.4375 
Q 25.25 74.21875 29.59375 74.21875 
Q 40.828125 74.21875 47.359375 69.109375 
Q 53.90625 64.015625 53.90625 55.328125 
Q 53.90625 49.265625 50.4375 45.09375 
Q 46.96875 40.921875 40.578125 39.3125 
z
" id="DejaVuSans-51"/>
       </defs>
       <use transform="translate(0 0.78125)" xlink:href="#DejaVuSans-48"/>
       <use transform="translate(63.623047 0.78125)" xlink:href="#DejaVuSans-46"/>
       <use transform="translate(95.410156 0.78125)" xlink:href="#DejaVuSans-48"/>
       <use transform="translate(159.033203 0.78125)" xlink:href="#DejaVuSans-51"/>
      </g>
     </g>
    </g>
    <g id="xtick_5">
     <g id="line2d_6">
      <g>
       <use style="stroke:#000000;stroke-width:0.5;" x="419.805777" xlink:href="#m28c2af5470" y="258.225354"/>
      </g>
     </g>
     <g id="text_5">
      <!-- $\mathregular{0.04}$ -->
      <g transform="translate(410.885777 267.804104)scale(0.08 -0.08)">
       <defs>
        <path d="M 37.796875 64.3125 
L 12.890625 25.390625 
L 37.796875 25.390625 
z
M 35.203125 72.90625 
L 47.609375 72.90625 
L 47.609375 25.390625 
L 58.015625 25.390625 
L 58.015625 17.1875 
L 47.609375 17.1875 
L 47.609375 0 
L 37.796875 0 
L 37.796875 17.1875 
L 4.890625 17.1875 
L 4.890625 26.703125 
z
" id="DejaVuSans-52"/>
       </defs>
       <use transform="translate(0 0.78125)" xlink:href="#DejaVuSans-48"/>
       <use transform="translate(63.623047 0.78125)" xlink:href="#DejaVuSans-46"/>
       <use transform="translate(95.410156 0.78125)" xlink:href="#DejaVuSans-48"/>
       <use transform="translate(159.033203 0.78125)" xlink:href="#DejaVuSans-52"/>
      </g>
     </g>
    </g>
    <g id="text_6">
     <!-- Time (s) -->
     <g transform="translate(222.913002 281.826136)scale(0.11 -0.11)">
      <defs>
       <path d="M -0.296875 72.90625 
L 61.375 72.90625 
L 61.375 64.59375 
L 35.5 64.59375 
L 35.5 0 
L 25.59375 0 
L 25.59375 64.59375 
L -0.296875 64.59375 
z
" id="DejaVuSans-84"/>
       <path d="M 9.421875 54.6875 
L 18.40625 54.6875 
L 18.40625 0 
L 9.421875 0 
z
M 9.421875 75.984375 
L 18.40625 75.984375 
L 18.40625 64.59375 
L 9.421875 64.59375 
z
" id="DejaVuSans-105"/>
       <path d="M 52 44.1875 
Q 55.375 50.25 60.0625 53.125 
Q 64.75 56 71.09375 56 
Q 79.640625 56 84.28125 50.015625 
Q 88.921875 44.046875 88.921875 33.015625 
L 88.921875 0 
L 79.890625 0 
L 79.890625 32.71875 
Q 79.890625 40.578125 77.09375 44.375 
Q 74.3125 48.1875 68.609375 48.1875 
Q 61.625 48.1875 57.5625 43.546875 
Q 53.515625 38.921875 53.515625 30.90625 
L 53.515625 0 
L 44.484375 0 
L 44.484375 32.71875 
Q 44.484375 40.625 41.703125 44.40625 
Q 38.921875 48.1875 33.109375 48.1875 
Q 26.21875 48.1875 22.15625 43.53125 
Q 18.109375 38.875 18.109375 30.90625 
L 18.109375 0 
L 9.078125 0 
L 9.078125 54.6875 
L 18.109375 54.6875 
L 18.109375 46.1875 
Q 21.1875 51.21875 25.484375 53.609375 
Q 29.78125 56 35.6875 56 
Q 41.65625 56 45.828125 52.96875 
Q 50 49.953125 52 44.1875 
z
" id="DejaVuSans-109"/>
       <path d="M 56.203125 29.59375 
L 56.203125 25.203125 
L 14.890625 25.203125 
Q 15.484375 15.921875 20.484375 11.0625 
Q 25.484375 6.203125 34.421875 6.203125 
Q 39.59375 6.203125 44.453125 7.46875 
Q 49.3125 8.734375 54.109375 11.28125 
L 54.109375 2.78125 
Q 49.265625 0.734375 44.1875 -0.34375 
Q 39.109375 -1.421875 33.890625 -1.421875 
Q 20.796875 -1.421875 13.15625 6.1875 
Q 5.515625 13.8125 5.515625 26.8125 
Q 5.515625 40.234375 12.765625 48.109375 
Q 20.015625 56 32.328125 56 
Q 43.359375 56 49.78125 48.890625 
Q 56.203125 41.796875 56.203125 29.59375 
z
M 47.21875 32.234375 
Q 47.125 39.59375 43.09375 43.984375 
Q 39.0625 48.390625 32.421875 48.390625 
Q 24.90625 48.390625 20.390625 44.140625 
Q 15.875 39.890625 15.1875 32.171875 
z
" id="DejaVuSans-101"/>
       <path id="DejaVuSans-32"/>
       <path d="M 31 75.875 
Q 24.46875 64.65625 21.28125 53.65625 
Q 18.109375 42.671875 18.109375 31.390625 
Q 18.109375 20.125 21.3125 9.0625 
Q 24.515625 -2 31 -13.1875 
L 23.1875 -13.1875 
Q 15.875 -1.703125 12.234375 9.375 
Q 8.59375 20.453125 8.59375 31.390625 
Q 8.59375 42.28125 12.203125 53.3125 
Q 15.828125 64.359375 23.1875 75.875 
z
" id="DejaVuSans-40"/>
       <path d="M 44.28125 53.078125 
L 44.28125 44.578125 
Q 40.484375 46.53125 36.375 47.5 
Q 32.28125 48.484375 27.875 48.484375 
Q 21.1875 48.484375 17.84375 46.4375 
Q 14.5 44.390625 14.5 40.28125 
Q 14.5 37.15625 16.890625 35.375 
Q 19.28125 33.59375 26.515625 31.984375 
L 29.59375 31.296875 
Q 39.15625 29.25 43.1875 25.515625 
Q 47.21875 21.78125 47.21875 15.09375 
Q 47.21875 7.46875 41.1875 3.015625 
Q 35.15625 -1.421875 24.609375 -1.421875 
Q 20.21875 -1.421875 15.453125 -0.5625 
Q 10.6875 0.296875 5.421875 2 
L 5.421875 11.28125 
Q 10.40625 8.6875 15.234375 7.390625 
Q 20.0625 6.109375 24.8125 6.109375 
Q 31.15625 6.109375 34.5625 8.28125 
Q 37.984375 10.453125 37.984375 14.40625 
Q 37.984375 18.0625 35.515625 20.015625 
Q 33.0625 21.96875 24.703125 23.78125 
L 21.578125 24.515625 
Q 13.234375 26.265625 9.515625 29.90625 
Q 5.8125 33.546875 5.8125 39.890625 
Q 5.8125 47.609375 11.28125 51.796875 
Q 16.75 56 26.8125 56 
Q 31.78125 56 36.171875 55.265625 
Q 40.578125 54.546875 44.28125 53.078125 
z
" id="DejaVuSans-115"/>
       <path d="M 8.015625 75.875 
L 15.828125 75.875 
Q 23.140625 64.359375 26.78125 53.3125 
Q 30.421875 42.28125 30.421875 31.390625 
Q 30.421875 20.453125 26.78125 9.375 
Q 23.140625 -1.703125 15.828125 -13.1875 
L 8.015625 -13.1875 
Q 14.5 -2 17.703125 9.0625 
Q 20.90625 20.125 20.90625 31.390625 
Q 20.90625 42.671875 17.703125 53.65625 
Q 14.5 64.65625 8.015625 75.875 
z
" id="DejaVuSans-41"/>
      </defs>
      <use xlink:href="#DejaVuSans-84"/>
      <use x="57.958984" xlink:href="#DejaVuSans-105"/>
      <use x="85.742188" xlink:href="#DejaVuSans-109"/>
      <use x="183.154297" xlink:href="#DejaVuSans-101"/>
      <use x="244.677734" xlink:href="#DejaVuSans-32"/>
      <use x="276.464844" xlink:href="#DejaVuSans-40"/>
      <use x="315.478516" xlink:href="#DejaVuSans-115"/>
      <use x="367.578125" xlink:href="#DejaVuSans-41"/>
     </g>
    </g>
   </g>
   <g id="matplotlib.axis_2">
    <g id="ytick_1">
     <g id="line2d_7">
      <defs>
       <path d="M 0 0 
L 2.5 0 
" id="m28075717e1" style="stroke:#000000;stroke-width:0.5;"/>
      </defs>
      <g>
       <use style="stroke:#000000;stroke-width:0.5;" x="70.743821" xlink:href="#m28075717e1" y="256.055447"/>
      </g>
     </g>
     <g id="text_7">
      <!-- $\mathregular{-4.0×10^{-5}}$ -->
      <g transform="translate(22.363821 259.094822)scale(0.08 -0.08)">
       <defs>
        <path d="M 10.59375 35.5 
L 73.1875 35.5 
L 73.1875 27.203125 
L 10.59375 27.203125 
z
" id="DejaVuSans-8722"/>
        <path d="M 70.125 53.71875 
L 47.796875 31.296875 
L 70.125 8.984375 
L 64.3125 3.078125 
L 41.890625 25.484375 
L 19.484375 3.078125 
L 13.71875 8.984375 
L 35.984375 31.296875 
L 13.71875 53.71875 
L 19.484375 59.625 
L 41.890625 37.203125 
L 64.3125 59.625 
z
" id="DejaVuSans-215"/>
        <path d="M 10.796875 72.90625 
L 49.515625 72.90625 
L 49.515625 64.59375 
L 19.828125 64.59375 
L 19.828125 46.734375 
Q 21.96875 47.46875 24.109375 47.828125 
Q 26.265625 48.1875 28.421875 48.1875 
Q 40.625 48.1875 47.75 41.5 
Q 54.890625 34.8125 54.890625 23.390625 
Q 54.890625 11.625 47.5625 5.09375 
Q 40.234375 -1.421875 26.90625 -1.421875 
Q 22.3125 -1.421875 17.546875 -0.640625 
Q 12.796875 0.140625 7.71875 1.703125 
L 7.71875 11.625 
Q 12.109375 9.234375 16.796875 8.0625 
Q 21.484375 6.890625 26.703125 6.890625 
Q 35.15625 6.890625 40.078125 11.328125 
Q 45.015625 15.765625 45.015625 23.390625 
Q 45.015625 31 40.078125 35.4375 
Q 35.15625 39.890625 26.703125 39.890625 
Q 22.75 39.890625 18.8125 39.015625 
Q 14.890625 38.140625 10.796875 36.28125 
z
" id="DejaVuSans-53"/>
       </defs>
       <use transform="translate(0 0.684375)" xlink:href="#DejaVuSans-8722"/>
       <use transform="translate(83.789062 0.684375)" xlink:href="#DejaVuSans-52"/>
       <use transform="translate(147.412109 0.684375)" xlink:href="#DejaVuSans-46"/>
       <use transform="translate(179.199219 0.684375)" xlink:href="#DejaVuSans-48"/>
       <use transform="translate(242.822266 0.684375)" xlink:href="#DejaVuSans-215"/>
       <use transform="translate(326.611328 0.684375)" xlink:href="#DejaVuSans-49"/>
       <use transform="translate(390.234375 0.684375)" xlink:href="#DejaVuSans-48"/>
       <use transform="translate(454.814453 38.965625)scale(0.7)" xlink:href="#DejaVuSans-8722"/>
       <use transform="translate(513.466797 38.965625)scale(0.7)" xlink:href="#DejaVuSans-53"/>
      </g>
     </g>
    </g>
    <g id="ytick_2">
     <g id="line2d_8">
      <g>
       <use style="stroke:#000000;stroke-width:0.5;" x="70.743821" xlink:href="#m28075717e1" y="185.678652"/>
      </g>
     </g>
     <g id="text_8">
      <!-- $\mathregular{-2.0×10^{-5}}$ -->
      <g transform="translate(22.363821 188.718027)scale(0.08 -0.08)">
       <use transform="translate(0 0.684375)" xlink:href="#DejaVuSans-8722"/>
       <use transform="translate(83.789062 0.684375)" xlink:href="#DejaVuSans-50"/>
       <use transform="translate(147.412109 0.684375)" xlink:href="#DejaVuSans-46"/>
       <use transform="translate(179.199219 0.684375)" xlink:href="#DejaVuSans-48"/>
       <use transform="translate(242.822266 0.684375)" xlink:href="#DejaVuSans-215"/>
       <use transform="translate(326.611328 0.684375)" xlink:href="#DejaVuSans-49"/>
       <use transform="translate(390.234375 0.684375)" xlink:href="#DejaVuSans-48"/>
       <use transform="translate(454.814453 38.965625)scale(0.7)" xlink:href="#DejaVuSans-8722"/>
       <use transform="translate(513.466797 38.965625)scale(0.7)" xlink:href="#DejaVuSans-53"/>
      </g>
     </g>
    </g>
    <g id="ytick_3">
     <g id="line2d_9">
      <g>
       <use style="stroke:#000000;stroke-width:0.5;" x="70.743821" xlink:href="#m28075717e1" y="115.301857"/>
      </g>
     </g>
     <g id="text_9">
      <!-- $\mathregular{0}$ -->
      <g transform="translate(62.123821 118.341232)scale(0.08 -0.08)">
       <use transform="translate(0 0.78125)" xlink:href="#DejaVuSans-48"/>
      </g>
     </g>
    </g>
    <g id="ytick_4">
     <g id="line2d_10">
      <g>
       <use style="stroke:#000000;stroke-width:0.5;" x="70.743821" xlink:href="#m28075717e1" y="44.925062"/>
      </g>
     </g>
     <g id="text_10">
      <!-- $\mathregular{2.0×10^{-5}}$ -->
      <g transform="translate(29.083821 47.964437)scale(0.08 -0.08)">
       <use transform="translate(0 0.684375)" xlink:href="#DejaVuSans-50"/>
       <use transform="translate(63.623047 0.684375)" xlink:href="#DejaVuSans-46"/>
       <use transform="translate(95.410156 0.684375)" xlink:href="#DejaVuSans-48"/>
       <use transform="translate(159.033203 0.684375)" xlink:href="#DejaVuSans-215"/>
       <use transform="translate(242.822266 0.684375)" xlink:href="#DejaVuSans-49"/>
       <use transform="translate(306.445312 0.684375)" xlink:href="#DejaVuSans-48"/>
       <use transform="translate(371.025391 38.965625)scale(0.7)" xlink:href="#DejaVuSans-8722"/>
       <use transform="translate(429.677734 38.965625)scale(0.7)" xlink:href="#DejaVuSans-53"/>
      </g>
     </g>
    </g>
    <g id="text_11">
     <!-- $u_y$ ($m$) -->
     <g transform="translate(14.953821 147.855)rotate(-90)scale(0.11 -0.11)">
      <defs>
       <path d="M 6.6875 21.6875 
L 13.09375 54.6875 
L 22.125 54.6875 
L 15.71875 22.015625 
Q 15.234375 19.625 15.015625 17.921875 
Q 14.796875 16.21875 14.796875 15.09375 
Q 14.796875 10.9375 17.328125 8.65625 
Q 19.875 6.390625 24.515625 6.390625 
Q 31.734375 6.390625 37 11.265625 
Q 42.28125 16.15625 43.890625 24.421875 
L 49.90625 54.6875 
L 58.890625 54.6875 
L 48.296875 0 
L 39.3125 0 
L 41.109375 8.59375 
Q 37.3125 3.8125 32.0625 1.1875 
Q 26.8125 -1.421875 20.90625 -1.421875 
Q 13.71875 -1.421875 9.71875 2.515625 
Q 5.71875 6.453125 5.71875 13.484375 
Q 5.71875 14.9375 5.953125 17.140625 
Q 6.203125 19.34375 6.6875 21.6875 
z
" id="DejaVuSans-Oblique-117"/>
       <path d="M 24.8125 -5.078125 
Q 18.5625 -15.578125 14.625 -18.1875 
Q 10.6875 -20.796875 4.59375 -20.796875 
L -2.484375 -20.796875 
L -0.984375 -13.28125 
L 4.203125 -13.28125 
Q 7.953125 -13.28125 10.59375 -11.234375 
Q 13.234375 -9.1875 16.5 -3.21875 
L 19.28125 2 
L 7.171875 54.6875 
L 16.703125 54.6875 
L 25.78125 12.796875 
L 50.875 54.6875 
L 60.296875 54.6875 
z
" id="DejaVuSans-Oblique-121"/>
       <path d="M 89.796875 33.015625 
L 83.40625 0 
L 74.421875 0 
L 80.71875 32.71875 
Q 81.109375 34.8125 81.296875 36.328125 
Q 81.5 37.84375 81.5 38.921875 
Q 81.5 43.3125 79.046875 45.75 
Q 76.609375 48.1875 72.21875 48.1875 
Q 65.671875 48.1875 60.546875 43.28125 
Q 55.421875 38.375 53.90625 30.515625 
L 47.90625 0 
L 38.921875 0 
L 45.3125 32.71875 
Q 45.703125 34.515625 45.890625 36.046875 
Q 46.09375 37.59375 46.09375 38.8125 
Q 46.09375 43.265625 43.65625 45.71875 
Q 41.21875 48.1875 36.921875 48.1875 
Q 30.28125 48.1875 25.140625 43.28125 
Q 20.015625 38.375 18.5 30.515625 
L 12.5 0 
L 3.515625 0 
L 14.203125 54.6875 
L 23.1875 54.6875 
L 21.484375 46.1875 
Q 25.140625 50.984375 30.046875 53.484375 
Q 34.96875 56 40.578125 56 
Q 46.53125 56 50.359375 52.875 
Q 54.203125 49.75 54.984375 44.1875 
Q 59.078125 49.953125 64.46875 52.96875 
Q 69.875 56 75.875 56 
Q 82.90625 56 86.734375 51.953125 
Q 90.578125 47.90625 90.578125 40.484375 
Q 90.578125 38.875 90.375 36.9375 
Q 90.1875 35.015625 89.796875 33.015625 
z
" id="DejaVuSans-Oblique-109"/>
      </defs>
      <use transform="translate(0 0.125)" xlink:href="#DejaVuSans-Oblique-117"/>
      <use transform="translate(63.378906 -16.28125)scale(0.7)" xlink:href="#DejaVuSans-Oblique-121"/>
      <use transform="translate(107.539062 0.125)" xlink:href="#DejaVuSans-32"/>
      <use transform="translate(139.326172 0.125)" xlink:href="#DejaVuSans-40"/>
      <use transform="translate(178.339844 0.125)" xlink:href="#DejaVuSans-Oblique-109"/>
      <use transform="translate(275.751953 0.125)" xlink:href="#DejaVuSans-41"/>
     </g>
    </g>
   </g>
   <g id="patch_3">
    <path d="M 70.743821 258.225354 
L 70.743821 2.834646 
" style="fill:none;stroke:#000000;stroke-linecap:square;stroke-linejoin:miter;"/>
   </g>
   <g id="patch_4">
    <path d="M 70.743821 258.225354 
L 419.805777 258.225354 
" style="fill:none;stroke:#000000;stroke-linecap:square;stroke-linejoin:miter;"/>
   </g>
  </g>
 </g>
 <defs>
  <clipPath id="p253a05f0e0">
   <rect height="255.390709" width="349.061956" x="70.743821" y="2.834646"/>
  </clipPath>
 </defs>
</svg>
