<?xml version="1.0" encoding="utf-8" standalone="no"?>
<!DOCTYPE svg PUBLIC "-//W3C//DTD SVG 1.1//EN"
  "http://www.w3.org/Graphics/SVG/1.1/DTD/svg11.dtd">
<!-- Created with matplotlib (https://matplotlib.org/) -->
<svg height="288pt" version="1.1" viewBox="0 0 432 288" width="432pt" xmlns="http://www.w3.org/2000/svg" xmlns:xlink="http://www.w3.org/1999/xlink">
 <metadata>
  <rdf:RDF xmlns:cc="http://creativecommons.org/ns#" xmlns:dc="http://purl.org/dc/elements/1.1/" xmlns:rdf="http://www.w3.org/1999/02/22-rdf-syntax-ns#">
   <cc:Work>
    <dc:type rdf:resource="http://purl.org/dc/dcmitype/StillImage"/>
    <dc:date>2021-07-12T15:34:18.562927</dc:date>
    <dc:format>image/svg+xml</dc:format>
    <dc:creator>
     <cc:Agent>
      <dc:title>Matplotlib v3.3.4, https://matplotlib.org/</dc:title>
     </cc:Agent>
    </dc:creator>
   </cc:Work>
  </rdf:RDF>
 </metadata>
 <defs>
  <style type="text/css">*{stroke-linecap:butt;stroke-linejoin:round;}</style>
 </defs>
 <g id="figure_1">
  <g id="patch_1">
   <path d="M 0 288 
L 432 288 
L 432 0 
L 0 0 
z
" style="fill:#ffffff;"/>
  </g>
  <g id="axes_1">
   <g id="patch_2">
    <path d="M 64.557544 258.225354 
L 422.361999 258.225354 
L 422.361999 2.834646 
L 64.557544 2.834646 
z
" style="fill:#ffffff;"/>
   </g>
   <g id="line2d_1">
    <path clip-path="url(#pc47dc582e2)" d="M 64.557544 118.646051 
L 64.736446 118.483505 
L 64.915348 118.533257 
L 65.452055 119.182679 
L 65.809859 118.647144 
L 66.167664 118.251867 
L 66.525468 118.412643 
L 66.70437 118.298656 
L 67.241077 117.652858 
L 67.598882 118.231078 
L 67.956686 118.690403 
L 68.314491 118.750906 
L 68.672295 119.463102 
L 69.030099 120.206918 
L 69.209002 120.199443 
L 69.566806 119.861359 
L 69.745708 119.862059 
L 70.103513 120.033899 
L 70.282415 119.875262 
L 70.819122 118.764004 
L 70.998024 118.714267 
L 71.355828 118.842401 
L 71.713633 118.383597 
L 71.892535 118.134915 
L 72.071437 118.104697 
L 72.608144 118.501876 
L 72.965948 117.815846 
L 73.323753 117.335193 
L 73.681557 117.262164 
L 74.039362 116.482937 
L 74.397166 115.698398 
L 74.576069 115.67527 
L 74.933873 115.8805 
L 75.47058 115.725662 
L 75.649482 115.977651 
L 76.186189 117.313488 
L 76.901797 118.013602 
L 77.259602 118.759975 
L 77.438504 118.910332 
L 77.975211 118.660037 
L 78.333015 119.118399 
L 78.69082 119.54771 
L 79.048624 119.575106 
L 79.227526 119.762495 
L 79.943135 121.235942 
L 80.479842 121.389477 
L 80.837646 121.869286 
L 81.016549 121.920497 
L 81.374353 121.404892 
L 81.732158 121.005839 
L 82.268864 121.152896 
L 82.805571 120.767093 
L 82.984473 120.905193 
L 83.700082 122.023825 
L 84.057887 122.09214 
L 84.415691 122.540982 
L 84.594593 122.772561 
L 84.773495 122.820702 
L 85.1313 122.342467 
L 85.489104 121.992677 
L 85.846909 122.020054 
L 86.025811 121.897796 
L 86.562518 121.081881 
L 86.74142 121.019531 
L 87.278127 121.253688 
L 87.457029 121.089358 
L 87.993736 120.235828 
L 88.530442 119.682503 
L 89.067149 117.788118 
L 89.424953 116.824668 
L 89.782758 116.079231 
L 90.498367 114.113368 
L 90.856171 114.040815 
L 91.035073 114.005174 
L 91.392878 113.593459 
L 91.750682 113.250389 
L 92.287389 113.391139 
L 92.466291 113.229723 
L 93.1819 112.113375 
L 93.718607 112.146651 
L 94.255314 111.668088 
L 94.613118 112.194295 
L 94.970922 112.67563 
L 95.507629 112.680027 
L 96.044336 113.215776 
L 96.223238 113.100314 
L 96.938847 112.132931 
L 97.296651 112.032503 
L 97.654456 111.606723 
L 98.01226 111.296139 
L 98.191163 111.435293 
L 98.727869 112.185404 
L 99.085674 112.281014 
L 99.264576 112.459396 
L 99.801283 113.447369 
L 99.980185 113.474281 
L 100.337989 113.261573 
L 100.516892 113.377044 
L 101.053598 114.024428 
L 101.411403 113.868802 
L 101.590305 113.970268 
L 101.948109 114.78931 
L 102.305914 115.654028 
L 103.021523 116.698574 
L 103.379327 117.583076 
L 103.558229 117.797933 
L 103.737132 117.779186 
L 104.094936 117.565324 
L 104.452741 117.759651 
L 104.631643 117.840884 
L 104.810545 117.733554 
L 105.168349 117.279462 
L 105.347252 117.259072 
L 106.241763 118.283327 
L 106.420665 118.45217 
L 107.494078 120.474573 
L 107.851883 120.91776 
L 108.567492 122.137783 
L 108.925296 122.572551 
L 109.283101 123.632753 
L 109.819807 125.509757 
L 110.177612 126.534598 
L 111.072123 129.939657 
L 111.429927 130.492317 
L 111.966634 131.697351 
L 112.324439 131.906167 
L 112.682243 131.896672 
L 113.040047 132.302598 
L 113.397852 132.935886 
L 113.755656 133.13309 
L 113.934559 133.180646 
L 114.292363 133.766881 
L 114.650168 134.363079 
L 114.82907 134.331509 
L 115.186874 134.007625 
L 115.544679 134.072735 
L 115.723581 134.132559 
L 115.902483 134.045483 
L 116.618092 133.267024 
L 116.975896 133.582522 
L 117.333701 133.947967 
L 117.870408 134.057011 
L 118.586017 135.107825 
L 119.838332 133.956898 
L 120.375039 132.649852 
L 120.732843 132.290438 
L 121.090648 131.968043 
L 121.806257 130.776247 
L 122.164061 130.659297 
L 122.342963 130.396817 
L 124.310888 125.176163 
L 125.384301 124.329238 
L 126.09991 124.733606 
L 126.815519 124.005808 
L 126.994421 123.980522 
L 127.173323 123.827797 
L 127.531128 122.948501 
L 127.888932 122.166672 
L 128.425639 121.884509 
L 129.141248 120.735746 
L 129.499052 120.695023 
L 129.677955 120.467582 
L 130.93027 116.944136 
L 131.645879 113.877286 
L 132.003684 112.973225 
L 132.719293 110.669024 
L 133.255999 109.889865 
L 134.687217 105.859586 
L 135.223924 103.918868 
L 136.476239 100.816565 
L 136.834044 100.627984 
L 137.191848 99.878047 
L 137.549653 99.157153 
L 137.907457 98.793955 
L 138.265262 98.030103 
L 138.801968 96.733403 
L 139.159773 96.206488 
L 140.054284 95.678236 
L 140.233186 95.86145 
L 140.948795 97.179199 
L 141.306599 97.577478 
L 142.201111 99.018347 
L 142.558915 99.248791 
L 142.91672 99.387943 
L 143.274524 100.000269 
L 143.632328 100.490492 
L 143.990133 100.797375 
L 145.063546 102.45426 
L 145.242448 102.529378 
L 145.779155 102.261017 
L 146.13696 102.066552 
L 146.494764 101.365468 
L 147.031471 100.317451 
L 147.925982 99.445639 
L 148.462689 99.079868 
L 148.999395 99.37916 
L 149.3572 99.013134 
L 149.715004 98.689996 
L 150.072809 98.567772 
L 150.96732 97.80175 
L 151.146222 97.649641 
L 151.325124 97.678429 
L 151.861831 98.270453 
L 152.398538 98.275989 
L 152.935244 98.82035 
L 153.114146 98.763044 
L 153.650853 98.054651 
L 154.724267 96.366039 
L 155.082071 95.60415 
L 155.260973 95.484415 
L 155.79768 95.653309 
L 156.334387 95.407598 
L 156.692191 95.969471 
L 157.049996 96.477668 
L 157.586702 96.684306 
L 157.944507 97.426538 
L 159.01792 100.555853 
L 160.449138 109.582612 
L 160.985845 112.665495 
L 164.384987 130.22223 
L 165.637302 134.535952 
L 165.995107 135.081783 
L 166.352911 136.215811 
L 167.06852 138.885353 
L 167.784129 141.425336 
L 168.320836 143.104567 
L 168.67864 143.428194 
L 169.394249 143.83276 
L 169.573151 143.724439 
L 170.467663 142.609915 
L 170.825467 142.507334 
L 171.183271 142.095476 
L 171.541076 141.584897 
L 172.256685 141.148852 
L 173.330098 139.229518 
L 173.866805 138.929448 
L 174.224609 138.618728 
L 174.403512 138.770098 
L 175.655827 141.737034 
L 176.550338 144.032848 
L 176.908143 144.385686 
L 177.087045 144.481585 
L 177.444849 145.07717 
L 177.802654 145.47788 
L 178.160458 145.48704 
L 179.05497 146.291525 
L 179.591676 146.264326 
L 180.486187 145.302093 
L 181.380698 143.419407 
L 182.27521 142.561219 
L 182.990819 143.06386 
L 183.88533 144.339871 
L 184.422036 144.889813 
L 184.958743 145.221074 
L 185.316547 145.604887 
L 185.674352 145.653607 
L 186.032156 145.720107 
L 186.568863 146.149309 
L 186.926668 145.784741 
L 187.642276 144.622134 
L 188.000081 143.275031 
L 191.399223 126.980057 
L 193.903854 115.676829 
L 195.15617 110.174801 
L 196.945192 100.879245 
L 197.481899 99.587817 
L 197.839703 99.196409 
L 198.018606 99.16377 
L 198.555312 99.539608 
L 199.092019 100.344736 
L 200.165432 102.129848 
L 200.881041 103.06005 
L 201.59665 103.813627 
L 201.954455 103.827577 
L 202.312259 103.595028 
L 202.670064 102.959679 
L 203.027868 101.812861 
L 203.743477 98.202686 
L 204.459086 93.757124 
L 204.995793 90.591598 
L 205.711401 87.836778 
L 206.248108 86.546233 
L 206.605913 86.36745 
L 206.963717 86.508477 
L 207.500424 86.92047 
L 207.858228 87.695776 
L 208.752739 91.148675 
L 209.64725 96.463254 
L 210.720664 102.820421 
L 211.078468 104.126524 
L 211.436273 104.668858 
L 211.794077 104.72722 
L 211.972979 104.552449 
L 212.330784 103.371523 
L 214.656513 91.609566 
L 215.729926 87.26376 
L 216.266633 86.204614 
L 216.445535 85.973796 
L 216.624437 85.967314 
L 216.80334 86.291167 
L 217.161144 87.801127 
L 217.697851 91.166443 
L 218.234557 96.853551 
L 219.307971 107.742715 
L 219.665775 110.742696 
L 222.886015 127.579502 
L 223.780526 131.44557 
L 224.317233 135.063163 
L 225.032842 143.419027 
L 225.748451 155.002657 
L 226.821864 170.589395 
L 227.358571 175.057677 
L 227.716375 176.949064 
L 228.07418 177.795541 
L 228.431984 178.144828 
L 228.610887 177.987915 
L 228.968691 176.898332 
L 229.505398 174.670097 
L 230.042104 170.416718 
L 230.578811 164.489649 
L 232.725638 135.904939 
L 233.262345 132.945077 
L 233.620149 131.373474 
L 233.799051 131.126499 
L 234.693562 131.804397 
L 235.230269 132.500587 
L 235.588073 132.6546 
L 235.945878 133.690855 
L 236.661487 136.278181 
L 238.450509 148.637057 
L 238.808314 149.625845 
L 238.987216 149.717453 
L 239.166118 149.402629 
L 239.881727 147.132693 
L 240.597336 143.902527 
L 241.134043 142.541945 
L 241.491847 141.791048 
L 241.849651 141.490556 
L 242.207456 140.540223 
L 242.744163 138.478148 
L 243.817576 132.926148 
L 243.996478 132.530938 
L 244.17538 132.444703 
L 244.354283 132.760865 
L 244.712087 134.615274 
L 245.248794 139.822258 
L 246.501109 155.101278 
L 247.037816 158.124242 
L 247.216718 158.553294 
L 247.395621 158.583147 
L 247.753425 157.858697 
L 248.290132 156.139015 
L 248.826838 153.195935 
L 249.363545 148.905977 
L 249.721349 144.29419 
L 250.258056 134.126403 
L 251.33147 106.345065 
L 252.047078 90.276046 
L 252.583785 83.812405 
L 252.94159 81.672249 
L 253.120492 81.395442 
L 254.015003 81.891791 
L 254.372807 82.090905 
L 254.730612 81.718466 
L 255.088416 81.368013 
L 255.267319 81.338094 
L 255.446221 81.458111 
L 255.625123 81.816076 
L 255.982927 83.602509 
L 256.877439 90.376946 
L 257.414145 93.831105 
L 257.593047 94.268229 
L 257.77195 94.37972 
L 257.950852 94.220815 
L 258.308656 92.992287 
L 259.38207 87.568975 
L 259.560972 87.172198 
L 259.739874 87.05351 
L 259.918776 87.301812 
L 260.276581 88.804825 
L 261.171092 95.231343 
L 261.528896 97.658587 
L 261.886701 98.881077 
L 262.244505 99.346088 
L 262.423408 99.206743 
L 263.675723 96.021241 
L 263.854625 95.890929 
L 264.033528 96.208124 
L 264.749137 98.191205 
L 265.106941 99.038076 
L 265.285843 99.094295 
L 265.464746 98.755127 
L 265.82255 96.868285 
L 266.180354 94.40646 
L 267.253768 84.568088 
L 267.611572 83.228156 
L 267.790474 83.271155 
L 268.148279 85.303853 
L 268.684986 90.582129 
L 269.579497 100.670052 
L 269.937301 102.527243 
L 270.116203 102.876492 
L 270.295106 102.56795 
L 270.65291 100.886011 
L 271.368519 95.526489 
L 271.905226 91.593051 
L 272.26303 90.440228 
L 272.620835 89.899403 
L 272.799737 89.91428 
L 273.336444 90.228369 
L 273.694248 89.502917 
L 274.052052 88.386391 
L 274.409857 86.333671 
L 275.841075 73.20018 
L 276.019977 72.832054 
L 276.198879 72.828899 
L 276.556684 73.862558 
L 276.735586 74.879601 
L 277.09339 78.936605 
L 278.882413 104.68773 
L 279.419119 108.60595 
L 280.134728 111.788047 
L 281.387044 120.790738 
L 281.744848 122.424289 
L 281.92375 122.64582 
L 282.281555 122.603581 
L 282.639359 122.162901 
L 282.997164 121.556132 
L 283.176066 121.736273 
L 283.354968 122.504227 
L 283.712773 125.885876 
L 284.070577 131.318996 
L 284.607284 143.490652 
L 285.680697 170.482806 
L 286.217404 180.199326 
L 286.754111 185.967944 
L 287.290817 189.467079 
L 287.648622 190.7145 
L 287.827524 190.886035 
L 288.006426 190.588734 
L 288.364231 188.39391 
L 288.900937 182.475853 
L 289.258742 175.653291 
L 290.332155 147.001854 
L 291.226666 125.364139 
L 291.763373 118.142686 
L 292.121177 115.303008 
L 292.30008 114.442962 
L 292.478982 114.16888 
L 292.836786 114.776227 
L 293.373493 116.018799 
L 293.731297 117.751668 
L 294.268004 121.920993 
L 294.804711 128.106991 
L 295.341418 138.105165 
L 297.309342 181.067591 
L 297.846049 185.872194 
L 298.024951 186.332071 
L 298.203853 185.920261 
L 298.561658 183.176001 
L 298.919462 179.350542 
L 299.456169 170.089666 
L 301.602996 128.064978 
L 302.318604 120.000312 
L 302.497507 119.133108 
L 302.676409 119.036145 
L 303.034213 119.80857 
L 303.213116 120.708321 
L 303.57092 124.641791 
L 304.286529 136.915983 
L 306.433356 187.680532 
L 307.148965 206.3757 
L 307.506769 212.28578 
L 307.685671 213.654726 
L 307.864573 213.74223 
L 308.043476 212.429723 
L 308.40128 205.779484 
L 308.759085 192.861195 
L 309.653596 147.756036 
L 310.369205 112.664746 
L 311.084814 88.844582 
L 311.442618 82.394025 
L 311.979325 77.199043 
L 312.337129 75.842737 
L 312.694934 75.3472 
L 312.873836 75.494626 
L 313.23164 76.871281 
L 313.768347 80.145897 
L 314.126151 84.88518 
L 315.557369 109.298507 
L 315.736272 109.717595 
L 315.915174 108.901392 
L 316.272978 103.301364 
L 316.809685 86.571919 
L 318.062 40.246277 
L 318.419805 34.611714 
L 318.598707 33.49741 
L 318.777609 33.760282 
L 319.135414 36.704237 
L 319.851023 42.666955 
L 320.208827 43.90069 
L 320.566632 45.331537 
L 320.924436 48.43566 
L 321.282241 54.223085 
L 321.640045 65.946979 
L 322.176752 94.13106 
L 323.250165 155.301383 
L 323.60797 163.888703 
L 323.786872 165.07037 
L 323.965774 164.550744 
L 324.323578 160.196253 
L 324.681383 152.248053 
L 325.933698 118.069597 
L 326.649307 105.633166 
L 327.901623 85.763549 
L 328.259427 76.445631 
L 328.975036 47.008179 
L 329.690645 21.654545 
L 329.869547 19.049044 
L 330.04845 18.560598 
L 330.227352 20.069678 
L 330.406254 23.208349 
L 330.764059 35.975871 
L 332.374179 118.663921 
L 332.731983 127.230117 
L 333.089788 131.103368 
L 333.26869 130.931507 
L 333.626494 127.209231 
L 334.521005 115.801395 
L 334.699908 116.041003 
L 335.057712 119.134439 
L 336.131125 131.230818 
L 336.310028 131.439639 
L 336.48893 130.164697 
L 336.846734 122.343811 
L 337.562343 94.945498 
L 338.635757 51.129876 
L 338.993561 43.18001 
L 339.530268 37.726622 
L 339.888072 34.895885 
L 340.066974 34.852481 
L 340.424779 37.425599 
L 341.31929 45.248714 
L 341.855997 54.566709 
L 342.213801 63.667812 
L 343.108312 90.498909 
L 343.466117 96.572559 
L 343.823921 99.237417 
L 344.002823 98.702386 
L 344.360628 94.443769 
L 344.897335 88.05599 
L 345.255139 86.40344 
L 345.434041 87.105778 
L 345.612944 89.172121 
L 345.970748 97.710319 
L 346.686357 116.438215 
L 347.044161 122.764715 
L 347.223064 124.210381 
L 347.401966 124.360673 
L 347.580868 123.309318 
L 347.938672 118.816484 
L 348.475379 110.704838 
L 348.654281 111.020929 
L 348.833184 113.752482 
L 349.36989 129.376445 
L 350.801108 177.259694 
L 350.98001 179.525955 
L 351.158913 180.375118 
L 351.337815 179.91151 
L 351.695619 175.526211 
L 352.59013 160.272223 
L 352.769033 161.759576 
L 353.484642 173.811166 
L 354.379153 189.921249 
L 354.558055 190.848962 
L 354.736957 190.138028 
L 354.915859 186.947147 
L 355.273664 174.101903 
L 356.168175 135.942721 
L 356.347077 132.750948 
L 356.525979 132.012788 
L 356.704882 133.157989 
L 357.062686 138.567194 
L 357.420491 147.819358 
L 358.493904 184.730423 
L 358.672806 185.238913 
L 358.851708 182.577866 
L 359.209513 167.88498 
L 360.104024 117.378528 
L 360.282926 113.506774 
L 360.461828 113.009237 
L 360.640731 114.84472 
L 360.998535 123.298142 
L 361.35634 137.477935 
L 362.608655 195.347997 
L 362.787557 194.060233 
L 362.96646 187.786189 
L 363.324264 163.861119 
L 364.039873 109.702177 
L 364.397677 101.163783 
L 364.57658 100.818483 
L 364.755482 102.132008 
L 364.934384 105.3406 
L 365.292189 119.587285 
L 365.828895 156.533253 
L 366.365602 197.33016 
L 366.544504 205.003447 
L 366.723406 206.770267 
L 366.902309 201.895235 
L 367.260113 175.505777 
L 367.975722 114.747013 
L 368.333526 101.660628 
L 368.512429 98.992112 
L 368.691331 99.136115 
L 368.870233 102.844044 
L 369.228038 120.051725 
L 369.943647 175.436686 
L 370.301451 199.918651 
L 370.480353 206.880343 
L 370.659255 209.211824 
L 370.838158 206.480912 
L 371.195962 186.15046 
L 371.911571 133.790313 
L 372.269375 120.191755 
L 372.448278 118.274614 
L 372.62718 120.788091 
L 372.984984 138.395075 
L 374.058398 213.208573 
L 374.2373 218.491868 
L 374.416202 218.417801 
L 374.595104 212.543094 
L 374.952909 184.886752 
L 376.026322 77.8524 
L 376.205224 71.704746 
L 376.384127 71.193716 
L 376.563029 75.315484 
L 377.099736 101.193014 
L 377.636442 131.09704 
L 377.815345 134.513121 
L 377.994247 131.391311 
L 378.352051 111.334938 
L 379.783269 16.387872 
L 379.962171 14.095449 
L 380.141073 17.923875 
L 380.498878 42.035728 
L 381.393389 120.490443 
L 381.751194 136.915762 
L 381.930096 138.539961 
L 382.108998 136.209132 
L 382.645705 120.840013 
L 383.003509 103.242341 
L 383.540216 70.57382 
L 383.89802 62.037528 
L 384.076922 63.601147 
L 384.255825 69.855064 
L 385.329238 133.678767 
L 385.50814 135.916432 
L 385.687043 134.864596 
L 386.223749 125.629602 
L 386.402651 124.342796 
L 386.581554 121.99203 
L 386.760456 115.675038 
L 387.11826 87.51065 
L 387.654967 38.955084 
L 387.833869 30.86296 
L 388.012772 29.868882 
L 388.191674 36.304315 
L 389.265087 105.638314 
L 389.443989 106.246527 
L 389.801794 102.553641 
L 389.980696 103.708245 
L 390.517403 119.374204 
L 390.696305 119.272424 
L 390.875207 113.788809 
L 391.769718 62.845837 
L 391.948621 65.527463 
L 392.306425 88.346692 
L 392.843132 123.649669 
L 393.022034 128.113339 
L 393.200936 128.02385 
L 393.558741 122.39276 
L 393.737643 123.234745 
L 394.095447 137.037573 
L 394.274349 144.383104 
L 394.453252 146.861769 
L 394.632154 142.587576 
L 394.989958 118.091842 
L 395.526665 74.914753 
L 395.705567 68.705684 
L 395.88447 67.764119 
L 396.242274 73.124332 
L 396.600078 77.662561 
L 396.778981 78.80611 
L 396.957883 79.099231 
L 397.136785 78.429121 
L 397.49459 76.506033 
L 397.673492 77.335475 
L 397.852394 78.706875 
L 398.031296 78.354655 
L 398.210198 74.721641 
L 398.568003 59.28407 
L 399.462514 12.79483 
L 399.641416 11.581396 
L 399.820319 15.460445 
L 400.178123 34.692746 
L 400.893732 79.758394 
L 401.430439 93.326243 
L 401.967145 119.594208 
L 402.146047 120.016841 
L 402.32495 113.331081 
L 403.040559 69.843135 
L 403.219461 70.216346 
L 404.113972 92.411852 
L 404.471776 123.004849 
L 404.829581 157.386492 
L 405.008483 162.962869 
L 405.187385 160.262424 
L 405.54519 148.913939 
L 405.902994 142.617139 
L 406.081897 133.417371 
L 406.439701 91.286101 
L 406.797505 52.015715 
L 406.976408 48.04312 
L 407.513114 59.209829 
L 407.692017 57.566868 
L 407.870919 60.248181 
L 408.049821 74.287569 
L 408.586528 148.945905 
L 408.76543 158.937624 
L 408.944332 160.355479 
L 409.123234 160.077538 
L 409.302137 162.687333 
L 409.659941 169.730248 
L 409.838843 166.169217 
L 410.37555 138.921966 
L 410.554452 139.198521 
L 410.912257 156.842639 
L 411.270061 173.22492 
L 411.627866 185.182574 
L 411.98567 214.206242 
L 412.343474 245.969703 
L 412.522377 250.997315 
L 412.701279 248.159003 
L 413.059083 233.051899 
L 413.416888 209.036777 
L 414.132497 139.420516 
L 415.20591 89.691542 
L 415.384812 91.902863 
L 415.742617 116.414723 
L 416.100421 140.392311 
L 416.279323 141.963641 
L 416.81603 126.245989 
L 416.994932 126.413721 
L 417.173835 128.326006 
L 417.352737 127.584199 
L 417.531639 120.113532 
L 418.247248 61.079444 
L 418.42615 62.295402 
L 418.605052 66.276455 
L 418.783955 67.681805 
L 418.962857 66.262955 
L 419.141759 66.422142 
L 419.320661 73.565824 
L 419.678466 111.203446 
L 420.215172 172.050451 
L 420.930781 232.204346 
L 421.109684 240.450103 
L 421.288586 241.720541 
L 421.467488 235.117685 
L 422.004195 202.975265 
L 422.361999 195.494565 
L 422.361999 195.494565 
" style="fill:none;stroke:#009afa;"/>
   </g>
   <g id="matplotlib.axis_1">
    <g id="xtick_1">
     <g id="line2d_2">
      <defs>
       <path d="M 0 0 
L 0 -2.5 
" id="m0fda31be63" style="stroke:#000000;stroke-width:0.5;"/>
      </defs>
      <g>
       <use style="stroke:#000000;stroke-width:0.5;" x="64.557544" xlink:href="#m0fda31be63" y="258.225354"/>
      </g>
     </g>
     <g id="text_1">
      <!-- $\mathregular{0.0}$ -->
      <g transform="translate(58.157544 267.804104)scale(0.08 -0.08)">
       <defs>
        <path d="M 31.78125 66.40625 
Q 24.171875 66.40625 20.328125 58.90625 
Q 16.5 51.421875 16.5 36.375 
Q 16.5 21.390625 20.328125 13.890625 
Q 24.171875 6.390625 31.78125 6.390625 
Q 39.453125 6.390625 43.28125 13.890625 
Q 47.125 21.390625 47.125 36.375 
Q 47.125 51.421875 43.28125 58.90625 
Q 39.453125 66.40625 31.78125 66.40625 
z
M 31.78125 74.21875 
Q 44.046875 74.21875 50.515625 64.515625 
Q 56.984375 54.828125 56.984375 36.375 
Q 56.984375 17.96875 50.515625 8.265625 
Q 44.046875 -1.421875 31.78125 -1.421875 
Q 19.53125 -1.421875 13.0625 8.265625 
Q 6.59375 17.96875 6.59375 36.375 
Q 6.59375 54.828125 13.0625 64.515625 
Q 19.53125 74.21875 31.78125 74.21875 
z
" id="DejaVuSans-48"/>
        <path d="M 10.6875 12.40625 
L 21 12.40625 
L 21 0 
L 10.6875 0 
z
" id="DejaVuSans-46"/>
       </defs>
       <use transform="translate(0 0.78125)" xlink:href="#DejaVuSans-48"/>
       <use transform="translate(63.623047 0.78125)" xlink:href="#DejaVuSans-46"/>
       <use transform="translate(95.410156 0.78125)" xlink:href="#DejaVuSans-48"/>
      </g>
     </g>
    </g>
    <g id="xtick_2">
     <g id="line2d_3">
      <g>
       <use style="stroke:#000000;stroke-width:0.5;" x="154.008658" xlink:href="#m0fda31be63" y="258.225354"/>
      </g>
     </g>
     <g id="text_2">
      <!-- $\mathregular{0.5}$ -->
      <g transform="translate(147.608658 267.804104)scale(0.08 -0.08)">
       <defs>
        <path d="M 10.796875 72.90625 
L 49.515625 72.90625 
L 49.515625 64.59375 
L 19.828125 64.59375 
L 19.828125 46.734375 
Q 21.96875 47.46875 24.109375 47.828125 
Q 26.265625 48.1875 28.421875 48.1875 
Q 40.625 48.1875 47.75 41.5 
Q 54.890625 34.8125 54.890625 23.390625 
Q 54.890625 11.625 47.5625 5.09375 
Q 40.234375 -1.421875 26.90625 -1.421875 
Q 22.3125 -1.421875 17.546875 -0.640625 
Q 12.796875 0.140625 7.71875 1.703125 
L 7.71875 11.625 
Q 12.109375 9.234375 16.796875 8.0625 
Q 21.484375 6.890625 26.703125 6.890625 
Q 35.15625 6.890625 40.078125 11.328125 
Q 45.015625 15.765625 45.015625 23.390625 
Q 45.015625 31 40.078125 35.4375 
Q 35.15625 39.890625 26.703125 39.890625 
Q 22.75 39.890625 18.8125 39.015625 
Q 14.890625 38.140625 10.796875 36.28125 
z
" id="DejaVuSans-53"/>
       </defs>
       <use transform="translate(0 0.78125)" xlink:href="#DejaVuSans-48"/>
       <use transform="translate(63.623047 0.78125)" xlink:href="#DejaVuSans-46"/>
       <use transform="translate(95.410156 0.78125)" xlink:href="#DejaVuSans-53"/>
      </g>
     </g>
    </g>
    <g id="xtick_3">
     <g id="line2d_4">
      <g>
       <use style="stroke:#000000;stroke-width:0.5;" x="243.459771" xlink:href="#m0fda31be63" y="258.225354"/>
      </g>
     </g>
     <g id="text_3">
      <!-- $\mathregular{1.0}$ -->
      <g transform="translate(237.059771 267.804104)scale(0.08 -0.08)">
       <defs>
        <path d="M 12.40625 8.296875 
L 28.515625 8.296875 
L 28.515625 63.921875 
L 10.984375 60.40625 
L 10.984375 69.390625 
L 28.421875 72.90625 
L 38.28125 72.90625 
L 38.28125 8.296875 
L 54.390625 8.296875 
L 54.390625 0 
L 12.40625 0 
z
" id="DejaVuSans-49"/>
       </defs>
       <use transform="translate(0 0.78125)" xlink:href="#DejaVuSans-49"/>
       <use transform="translate(63.623047 0.78125)" xlink:href="#DejaVuSans-46"/>
       <use transform="translate(95.410156 0.78125)" xlink:href="#DejaVuSans-48"/>
      </g>
     </g>
    </g>
    <g id="xtick_4">
     <g id="line2d_5">
      <g>
       <use style="stroke:#000000;stroke-width:0.5;" x="332.910885" xlink:href="#m0fda31be63" y="258.225354"/>
      </g>
     </g>
     <g id="text_4">
      <!-- $\mathregular{1.5}$ -->
      <g transform="translate(326.510885 267.804104)scale(0.08 -0.08)">
       <use transform="translate(0 0.09375)" xlink:href="#DejaVuSans-49"/>
       <use transform="translate(63.623047 0.09375)" xlink:href="#DejaVuSans-46"/>
       <use transform="translate(95.410156 0.09375)" xlink:href="#DejaVuSans-53"/>
      </g>
     </g>
    </g>
    <g id="xtick_5">
     <g id="line2d_6">
      <g>
       <use style="stroke:#000000;stroke-width:0.5;" x="422.361999" xlink:href="#m0fda31be63" y="258.225354"/>
      </g>
     </g>
     <g id="text_5">
      <!-- $\mathregular{2.0}$ -->
      <g transform="translate(415.961999 267.804104)scale(0.08 -0.08)">
       <defs>
        <path d="M 19.1875 8.296875 
L 53.609375 8.296875 
L 53.609375 0 
L 7.328125 0 
L 7.328125 8.296875 
Q 12.9375 14.109375 22.625 23.890625 
Q 32.328125 33.6875 34.8125 36.53125 
Q 39.546875 41.84375 41.421875 45.53125 
Q 43.3125 49.21875 43.3125 52.78125 
Q 43.3125 58.59375 39.234375 62.25 
Q 35.15625 65.921875 28.609375 65.921875 
Q 23.96875 65.921875 18.8125 64.3125 
Q 13.671875 62.703125 7.8125 59.421875 
L 7.8125 69.390625 
Q 13.765625 71.78125 18.9375 73 
Q 24.125 74.21875 28.421875 74.21875 
Q 39.75 74.21875 46.484375 68.546875 
Q 53.21875 62.890625 53.21875 53.421875 
Q 53.21875 48.921875 51.53125 44.890625 
Q 49.859375 40.875 45.40625 35.40625 
Q 44.1875 33.984375 37.640625 27.21875 
Q 31.109375 20.453125 19.1875 8.296875 
z
" id="DejaVuSans-50"/>
       </defs>
       <use transform="translate(0 0.78125)" xlink:href="#DejaVuSans-50"/>
       <use transform="translate(63.623047 0.78125)" xlink:href="#DejaVuSans-46"/>
       <use transform="translate(95.410156 0.78125)" xlink:href="#DejaVuSans-48"/>
      </g>
     </g>
    </g>
    <g id="text_6">
     <!-- Time (s) -->
     <g transform="translate(221.097975 281.826136)scale(0.11 -0.11)">
      <defs>
       <path d="M -0.296875 72.90625 
L 61.375 72.90625 
L 61.375 64.59375 
L 35.5 64.59375 
L 35.5 0 
L 25.59375 0 
L 25.59375 64.59375 
L -0.296875 64.59375 
z
" id="DejaVuSans-84"/>
       <path d="M 9.421875 54.6875 
L 18.40625 54.6875 
L 18.40625 0 
L 9.421875 0 
z
M 9.421875 75.984375 
L 18.40625 75.984375 
L 18.40625 64.59375 
L 9.421875 64.59375 
z
" id="DejaVuSans-105"/>
       <path d="M 52 44.1875 
Q 55.375 50.25 60.0625 53.125 
Q 64.75 56 71.09375 56 
Q 79.640625 56 84.28125 50.015625 
Q 88.921875 44.046875 88.921875 33.015625 
L 88.921875 0 
L 79.890625 0 
L 79.890625 32.71875 
Q 79.890625 40.578125 77.09375 44.375 
Q 74.3125 48.1875 68.609375 48.1875 
Q 61.625 48.1875 57.5625 43.546875 
Q 53.515625 38.921875 53.515625 30.90625 
L 53.515625 0 
L 44.484375 0 
L 44.484375 32.71875 
Q 44.484375 40.625 41.703125 44.40625 
Q 38.921875 48.1875 33.109375 48.1875 
Q 26.21875 48.1875 22.15625 43.53125 
Q 18.109375 38.875 18.109375 30.90625 
L 18.109375 0 
L 9.078125 0 
L 9.078125 54.6875 
L 18.109375 54.6875 
L 18.109375 46.1875 
Q 21.1875 51.21875 25.484375 53.609375 
Q 29.78125 56 35.6875 56 
Q 41.65625 56 45.828125 52.96875 
Q 50 49.953125 52 44.1875 
z
" id="DejaVuSans-109"/>
       <path d="M 56.203125 29.59375 
L 56.203125 25.203125 
L 14.890625 25.203125 
Q 15.484375 15.921875 20.484375 11.0625 
Q 25.484375 6.203125 34.421875 6.203125 
Q 39.59375 6.203125 44.453125 7.46875 
Q 49.3125 8.734375 54.109375 11.28125 
L 54.109375 2.78125 
Q 49.265625 0.734375 44.1875 -0.34375 
Q 39.109375 -1.421875 33.890625 -1.421875 
Q 20.796875 -1.421875 13.15625 6.1875 
Q 5.515625 13.8125 5.515625 26.8125 
Q 5.515625 40.234375 12.765625 48.109375 
Q 20.015625 56 32.328125 56 
Q 43.359375 56 49.78125 48.890625 
Q 56.203125 41.796875 56.203125 29.59375 
z
M 47.21875 32.234375 
Q 47.125 39.59375 43.09375 43.984375 
Q 39.0625 48.390625 32.421875 48.390625 
Q 24.90625 48.390625 20.390625 44.140625 
Q 15.875 39.890625 15.1875 32.171875 
z
" id="DejaVuSans-101"/>
       <path id="DejaVuSans-32"/>
       <path d="M 31 75.875 
Q 24.46875 64.65625 21.28125 53.65625 
Q 18.109375 42.671875 18.109375 31.390625 
Q 18.109375 20.125 21.3125 9.0625 
Q 24.515625 -2 31 -13.1875 
L 23.1875 -13.1875 
Q 15.875 -1.703125 12.234375 9.375 
Q 8.59375 20.453125 8.59375 31.390625 
Q 8.59375 42.28125 12.203125 53.3125 
Q 15.828125 64.359375 23.1875 75.875 
z
" id="DejaVuSans-40"/>
       <path d="M 44.28125 53.078125 
L 44.28125 44.578125 
Q 40.484375 46.53125 36.375 47.5 
Q 32.28125 48.484375 27.875 48.484375 
Q 21.1875 48.484375 17.84375 46.4375 
Q 14.5 44.390625 14.5 40.28125 
Q 14.5 37.15625 16.890625 35.375 
Q 19.28125 33.59375 26.515625 31.984375 
L 29.59375 31.296875 
Q 39.15625 29.25 43.1875 25.515625 
Q 47.21875 21.78125 47.21875 15.09375 
Q 47.21875 7.46875 41.1875 3.015625 
Q 35.15625 -1.421875 24.609375 -1.421875 
Q 20.21875 -1.421875 15.453125 -0.5625 
Q 10.6875 0.296875 5.421875 2 
L 5.421875 11.28125 
Q 10.40625 8.6875 15.234375 7.390625 
Q 20.0625 6.109375 24.8125 6.109375 
Q 31.15625 6.109375 34.5625 8.28125 
Q 37.984375 10.453125 37.984375 14.40625 
Q 37.984375 18.0625 35.515625 20.015625 
Q 33.0625 21.96875 24.703125 23.78125 
L 21.578125 24.515625 
Q 13.234375 26.265625 9.515625 29.90625 
Q 5.8125 33.546875 5.8125 39.890625 
Q 5.8125 47.609375 11.28125 51.796875 
Q 16.75 56 26.8125 56 
Q 31.78125 56 36.171875 55.265625 
Q 40.578125 54.546875 44.28125 53.078125 
z
" id="DejaVuSans-115"/>
       <path d="M 8.015625 75.875 
L 15.828125 75.875 
Q 23.140625 64.359375 26.78125 53.3125 
Q 30.421875 42.28125 30.421875 31.390625 
Q 30.421875 20.453125 26.78125 9.375 
Q 23.140625 -1.703125 15.828125 -13.1875 
L 8.015625 -13.1875 
Q 14.5 -2 17.703125 9.0625 
Q 20.90625 20.125 20.90625 31.390625 
Q 20.90625 42.671875 17.703125 53.65625 
Q 14.5 64.65625 8.015625 75.875 
z
" id="DejaVuSans-41"/>
      </defs>
      <use xlink:href="#DejaVuSans-84"/>
      <use x="57.958984" xlink:href="#DejaVuSans-105"/>
      <use x="85.742188" xlink:href="#DejaVuSans-109"/>
      <use x="183.154297" xlink:href="#DejaVuSans-101"/>
      <use x="244.677734" xlink:href="#DejaVuSans-32"/>
      <use x="276.464844" xlink:href="#DejaVuSans-40"/>
      <use x="315.478516" xlink:href="#DejaVuSans-115"/>
      <use x="367.578125" xlink:href="#DejaVuSans-41"/>
     </g>
    </g>
   </g>
   <g id="matplotlib.axis_2">
    <g id="ytick_1">
     <g id="line2d_7">
      <defs>
       <path d="M 0 0 
L 2.5 0 
" id="m1f4156354c" style="stroke:#000000;stroke-width:0.5;"/>
      </defs>
      <g>
       <use style="stroke:#000000;stroke-width:0.5;" x="64.557544" xlink:href="#m1f4156354c" y="244.876574"/>
      </g>
     </g>
     <g id="text_7">
      <!-- $\mathregular{-1.0×10^{6}}$ -->
      <g transform="translate(20.817544 247.915949)scale(0.08 -0.08)">
       <defs>
        <path d="M 10.59375 35.5 
L 73.1875 35.5 
L 73.1875 27.203125 
L 10.59375 27.203125 
z
" id="DejaVuSans-8722"/>
        <path d="M 70.125 53.71875 
L 47.796875 31.296875 
L 70.125 8.984375 
L 64.3125 3.078125 
L 41.890625 25.484375 
L 19.484375 3.078125 
L 13.71875 8.984375 
L 35.984375 31.296875 
L 13.71875 53.71875 
L 19.484375 59.625 
L 41.890625 37.203125 
L 64.3125 59.625 
z
" id="DejaVuSans-215"/>
        <path d="M 33.015625 40.375 
Q 26.375 40.375 22.484375 35.828125 
Q 18.609375 31.296875 18.609375 23.390625 
Q 18.609375 15.53125 22.484375 10.953125 
Q 26.375 6.390625 33.015625 6.390625 
Q 39.65625 6.390625 43.53125 10.953125 
Q 47.40625 15.53125 47.40625 23.390625 
Q 47.40625 31.296875 43.53125 35.828125 
Q 39.65625 40.375 33.015625 40.375 
z
M 52.59375 71.296875 
L 52.59375 62.3125 
Q 48.875 64.0625 45.09375 64.984375 
Q 41.3125 65.921875 37.59375 65.921875 
Q 27.828125 65.921875 22.671875 59.328125 
Q 17.53125 52.734375 16.796875 39.40625 
Q 19.671875 43.65625 24.015625 45.921875 
Q 28.375 48.1875 33.59375 48.1875 
Q 44.578125 48.1875 50.953125 41.515625 
Q 57.328125 34.859375 57.328125 23.390625 
Q 57.328125 12.15625 50.6875 5.359375 
Q 44.046875 -1.421875 33.015625 -1.421875 
Q 20.359375 -1.421875 13.671875 8.265625 
Q 6.984375 17.96875 6.984375 36.375 
Q 6.984375 53.65625 15.1875 63.9375 
Q 23.390625 74.21875 37.203125 74.21875 
Q 40.921875 74.21875 44.703125 73.484375 
Q 48.484375 72.75 52.59375 71.296875 
z
" id="DejaVuSans-54"/>
       </defs>
       <use transform="translate(0 0.765625)" xlink:href="#DejaVuSans-8722"/>
       <use transform="translate(83.789062 0.765625)" xlink:href="#DejaVuSans-49"/>
       <use transform="translate(147.412109 0.765625)" xlink:href="#DejaVuSans-46"/>
       <use transform="translate(179.199219 0.765625)" xlink:href="#DejaVuSans-48"/>
       <use transform="translate(242.822266 0.765625)" xlink:href="#DejaVuSans-215"/>
       <use transform="translate(326.611328 0.765625)" xlink:href="#DejaVuSans-49"/>
       <use transform="translate(390.234375 0.765625)" xlink:href="#DejaVuSans-48"/>
       <use transform="translate(454.814453 39.046875)scale(0.7)" xlink:href="#DejaVuSans-54"/>
      </g>
     </g>
    </g>
    <g id="ytick_2">
     <g id="line2d_8">
      <g>
       <use style="stroke:#000000;stroke-width:0.5;" x="64.557544" xlink:href="#m1f4156354c" y="181.761313"/>
      </g>
     </g>
     <g id="text_8">
      <!-- $\mathregular{-5.0×10^{5}}$ -->
      <g transform="translate(20.817544 184.800688)scale(0.08 -0.08)">
       <use transform="translate(0 0.684375)" xlink:href="#DejaVuSans-8722"/>
       <use transform="translate(83.789062 0.684375)" xlink:href="#DejaVuSans-53"/>
       <use transform="translate(147.412109 0.684375)" xlink:href="#DejaVuSans-46"/>
       <use transform="translate(179.199219 0.684375)" xlink:href="#DejaVuSans-48"/>
       <use transform="translate(242.822266 0.684375)" xlink:href="#DejaVuSans-215"/>
       <use transform="translate(326.611328 0.684375)" xlink:href="#DejaVuSans-49"/>
       <use transform="translate(390.234375 0.684375)" xlink:href="#DejaVuSans-48"/>
       <use transform="translate(454.814453 38.965625)scale(0.7)" xlink:href="#DejaVuSans-53"/>
      </g>
     </g>
    </g>
    <g id="ytick_3">
     <g id="line2d_9">
      <g>
       <use style="stroke:#000000;stroke-width:0.5;" x="64.557544" xlink:href="#m1f4156354c" y="118.646051"/>
      </g>
     </g>
     <g id="text_9">
      <!-- $\mathregular{0}$ -->
      <g transform="translate(55.937544 121.685426)scale(0.08 -0.08)">
       <use transform="translate(0 0.78125)" xlink:href="#DejaVuSans-48"/>
      </g>
     </g>
    </g>
    <g id="ytick_4">
     <g id="line2d_10">
      <g>
       <use style="stroke:#000000;stroke-width:0.5;" x="64.557544" xlink:href="#m1f4156354c" y="55.530789"/>
      </g>
     </g>
     <g id="text_10">
      <!-- $\mathregular{5.0×10^{5}}$ -->
      <g transform="translate(27.537544 58.570164)scale(0.08 -0.08)">
       <use transform="translate(0 0.684375)" xlink:href="#DejaVuSans-53"/>
       <use transform="translate(63.623047 0.684375)" xlink:href="#DejaVuSans-46"/>
       <use transform="translate(95.410156 0.684375)" xlink:href="#DejaVuSans-48"/>
       <use transform="translate(159.033203 0.684375)" xlink:href="#DejaVuSans-215"/>
       <use transform="translate(242.822266 0.684375)" xlink:href="#DejaVuSans-49"/>
       <use transform="translate(306.445312 0.684375)" xlink:href="#DejaVuSans-48"/>
       <use transform="translate(371.025391 38.965625)scale(0.7)" xlink:href="#DejaVuSans-53"/>
      </g>
     </g>
    </g>
    <g id="text_11">
     <!-- $F_z$ ($N$) -->
     <g transform="translate(14.529888 146.04)rotate(-90)scale(0.11 -0.11)">
      <defs>
       <path d="M 16.890625 72.90625 
L 58.6875 72.90625 
L 57.078125 64.59375 
L 25.09375 64.59375 
L 20.90625 43.109375 
L 49.8125 43.109375 
L 48.1875 34.8125 
L 19.28125 34.8125 
L 12.5 0 
L 2.6875 0 
z
" id="DejaVuSans-Oblique-70"/>
       <path d="M 11.625 54.6875 
L 54.296875 54.6875 
L 52.6875 46.484375 
L 11.53125 7.171875 
L 45.515625 7.171875 
L 44.09375 0 
L -0.296875 0 
L 1.3125 8.203125 
L 42.484375 47.515625 
L 10.203125 47.515625 
z
" id="DejaVuSans-Oblique-122"/>
       <path d="M 16.890625 72.90625 
L 30.171875 72.90625 
L 50.296875 10.40625 
L 62.5 72.90625 
L 72.125 72.90625 
L 57.90625 0 
L 44.578125 0 
L 24.515625 62.890625 
L 12.3125 0 
L 2.6875 0 
z
" id="DejaVuSans-Oblique-78"/>
      </defs>
      <use transform="translate(0 0.125)" xlink:href="#DejaVuSans-Oblique-70"/>
      <use transform="translate(57.519531 -16.28125)scale(0.7)" xlink:href="#DejaVuSans-Oblique-122"/>
      <use transform="translate(96.99707 0.125)" xlink:href="#DejaVuSans-32"/>
      <use transform="translate(128.78418 0.125)" xlink:href="#DejaVuSans-40"/>
      <use transform="translate(167.797852 0.125)" xlink:href="#DejaVuSans-Oblique-78"/>
      <use transform="translate(242.602539 0.125)" xlink:href="#DejaVuSans-41"/>
     </g>
    </g>
   </g>
   <g id="line2d_11">
    <path clip-path="url(#pc47dc582e2)" d="M 64.557544 118.646051 
L 64.796423 118.471821 
L 64.952366 118.592752 
L 65.386765 119.183129 
L 65.550216 119.022043 
L 66.019703 118.351072 
L 66.556526 118.375861 
L 67.055883 117.651838 
L 67.257 117.881932 
L 67.599495 118.389556 
L 67.827883 118.375598 
L 68.056271 118.38757 
L 68.222736 118.651046 
L 68.817827 119.937214 
L 69.310158 119.858389 
L 69.77227 120.306037 
L 69.965892 120.026957 
L 70.428903 119.198548 
L 70.887133 119.218913 
L 71.532768 118.274295 
L 72.028856 118.683533 
L 72.282021 118.297561 
L 72.535699 117.998742 
L 72.799323 118.109239 
L 72.982363 118.157079 
L 73.167402 117.92856 
L 73.727595 116.679384 
L 74.222874 116.341877 
L 74.723014 115.403665 
L 74.929082 115.531723 
L 75.387986 116.140883 
L 75.803959 116.241081 
L 76.042441 116.788858 
L 76.450869 117.838502 
L 76.689082 117.928276 
L 76.935711 117.999506 
L 77.190546 118.421898 
L 77.461686 118.868587 
L 77.651552 118.861806 
L 78.047742 118.61332 
L 78.255386 118.865538 
L 78.730388 119.598179 
L 79.152973 119.708266 
L 79.375432 120.163513 
L 79.792913 121.191921 
L 79.998406 121.290699 
L 80.316107 121.301021 
L 80.955362 121.826873 
L 81.644571 121.055866 
L 82.072955 121.131835 
L 82.618809 120.683409 
L 82.83977 120.977529 
L 83.297816 121.74836 
L 83.787693 121.901394 
L 84.427209 122.783377 
L 84.683016 122.518868 
L 84.938823 122.250467 
L 85.578339 122.174731 
L 86.09864 121.351046 
L 86.363134 121.4136 
L 86.705572 121.549959 
L 86.935107 121.348163 
L 87.283566 120.919931 
L 87.521415 120.917132 
L 87.766755 120.97964 
L 88.019586 120.63696 
L 88.904494 118.441411 
L 89.157325 117.725303 
L 89.792417 115.549482 
L 90.579318 114.260772 
L 90.85431 113.832597 
L 91.134763 113.86672 
L 91.415217 113.989422 
L 91.703614 113.685312 
L 92.145282 113.007459 
L 92.613269 113.009707 
L 92.926056 112.428711 
L 93.241902 111.854809 
L 93.400956 111.828772 
L 93.878118 112.086837 
L 94.381645 111.925252 
L 94.726118 112.464334 
L 95.070591 112.966198 
L 95.415064 112.85226 
L 95.5873 112.803901 
L 96.142444 113.097202 
L 96.424119 112.65577 
L 96.851596 111.884756 
L 97.300683 111.892889 
L 97.946462 111.342074 
L 98.609867 112.212485 
L 98.962412 112.27703 
L 99.380347 113.020275 
L 99.663702 113.320353 
L 100.133846 113.009906 
L 100.312059 113.143679 
L 100.668487 113.677988 
L 100.846701 113.703123 
L 101.207612 113.532946 
L 101.389337 113.765548 
L 101.942905 115.124581 
L 102.318048 115.515248 
L 103.113256 117.298978 
L 103.529235 117.314405 
L 104.17994 117.701867 
L 104.636355 117.124092 
L 104.868451 117.176004 
L 105.332643 117.631816 
L 105.575634 117.575499 
L 105.818624 117.728501 
L 106.547596 119.184094 
L 106.790587 119.319882 
L 107.276568 120.263683 
L 107.519559 120.65955 
L 108.00554 120.793708 
L 108.248531 121.157631 
L 108.734512 122.446709 
L 109.220493 123.323205 
L 110.758491 129.151926 
L 111.105027 130.124228 
L 112.448255 131.737777 
L 112.654254 131.711605 
L 112.860253 131.931614 
L 113.478251 133.192831 
L 113.890249 133.43224 
L 114.515246 134.274341 
L 114.73507 134.280371 
L 115.174907 133.823466 
L 115.865923 133.713635 
L 116.345553 133.15521 
L 117.651067 134.288369 
L 118.23735 135.134303 
L 118.829251 134.620379 
L 119.13939 134.57945 
L 119.44953 134.230353 
L 119.767577 133.471967 
L 120.085624 133.004985 
L 120.415333 132.838113 
L 121.074752 131.848547 
L 121.763829 131.439336 
L 122.482565 129.674138 
L 122.873157 128.845446 
L 123.502066 126.67118 
L 124.428573 125.089727 
L 124.74435 124.879544 
L 125.060127 125.161384 
L 125.375905 125.078091 
L 125.656677 124.710025 
L 125.937449 124.679732 
L 126.220544 124.791743 
L 126.503639 124.407561 
L 126.804903 123.628936 
L 127.106166 123.2392 
L 127.407429 123.098638 
L 128.017319 121.99313 
L 128.634572 121.946045 
L 129.265303 120.977457 
L 129.580668 120.752542 
L 129.896033 119.940327 
L 130.561754 117.6325 
L 130.894615 116.525523 
L 131.613394 113.83368 
L 131.912425 113.224925 
L 132.511924 111.497399 
L 133.112861 110.636595 
L 133.759728 108.444341 
L 134.083162 107.758746 
L 135.053464 104.296181 
L 136.023765 101.990362 
L 136.675892 101.159017 
L 137.333276 99.711195 
L 137.661968 99.119507 
L 138.319353 97.229705 
L 138.976737 96.195215 
L 139.305429 95.883959 
L 139.634122 95.873933 
L 140.746745 97.050205 
L 141.250552 97.859541 
L 142.006262 98.328786 
L 143.296765 99.944216 
L 143.814638 101.183942 
L 144.33251 101.948695 
L 145.115292 102.609412 
L 145.381439 102.368246 
L 146.461998 100.937324 
L 147.06568 100.040686 
L 147.380306 99.944499 
L 147.7196 99.959496 
L 148.410927 99.544609 
L 149.145731 99.19975 
L 149.521033 98.558331 
L 149.954449 98.08334 
L 150.82128 97.822136 
L 151.254696 98.032517 
L 151.701231 98.65355 
L 152.610474 98.806168 
L 153.07318 98.617751 
L 153.998593 97.084191 
L 154.924007 95.827404 
L 155.386713 95.988075 
L 156.210758 95.758629 
L 156.52305 95.997128 
L 156.835343 96.07178 
L 157.147635 95.958321 
L 157.459927 96.130631 
L 158.396804 98.170224 
L 159.333681 102.83269 
L 161.43514 114.780407 
L 161.907813 117.154556 
L 163.370157 125.58556 
L 163.849821 127.720493 
L 165.104172 132.008345 
L 165.676549 133.928345 
L 167.809297 141.896077 
L 168.359885 142.93823 
L 168.744763 143.061653 
L 169.975904 143.110858 
L 170.920854 142.867142 
L 171.42216 142.193553 
L 172.082269 140.940911 
L 172.835777 139.328387 
L 173.131162 138.87968 
L 173.432639 138.745271 
L 173.737876 138.798459 
L 174.056614 138.996796 
L 174.393951 139.522554 
L 175.421376 141.580251 
L 176.480488 143.38016 
L 176.849487 143.732204 
L 177.956485 145.737231 
L 178.694483 146.622768 
L 179.063482 146.742085 
L 180.177452 145.174487 
L 180.856702 143.685624 
L 181.2296 143.284152 
L 181.856963 142.995359 
L 182.189717 142.980353 
L 182.555449 143.361494 
L 182.921181 143.558061 
L 183.221742 143.572558 
L 184.940942 144.994895 
L 185.553994 145.805862 
L 186.167045 146.497694 
L 186.371395 146.523865 
L 186.780096 146.129215 
L 187.188797 145.502007 
L 187.597497 144.094546 
L 190.993719 128.717121 
L 191.948226 124.059176 
L 192.703756 120.854178 
L 194.081806 115.575395 
L 195.04762 110.257896 
L 196.124901 104.051955 
L 196.79436 101.580143 
L 197.248184 100.417135 
L 197.704015 99.920934 
L 198.159845 99.675758 
L 198.855745 99.801903 
L 199.338606 100.31136 
L 199.843504 101.209988 
L 201.426767 104.509939 
L 201.696394 104.592096 
L 201.966022 104.432225 
L 202.235649 104.036049 
L 202.505277 103.378288 
L 203.067988 100.88254 
L 204.193848 94.780342 
L 205.039231 90.786073 
L 205.89546 87.738351 
L 206.480739 86.567835 
L 206.826196 86.149146 
L 207.195916 86.155648 
L 207.565636 86.754679 
L 207.935356 87.680068 
L 208.313518 89.229493 
L 209.448005 96.141145 
L 210.320915 101.394659 
L 211.134438 104.265878 
L 211.264282 104.29466 
L 211.394126 104.443974 
L 211.913502 103.694681 
L 212.338997 102.778419 
L 212.642981 101.794232 
L 213.781263 96.233537 
L 215.514487 87.046355 
L 215.99375 85.979566 
L 216.315101 85.627223 
L 216.475777 85.627368 
L 216.636453 85.923294 
L 216.957804 87.380907 
L 217.619717 91.516746 
L 218.538428 100.128481 
L 219.949151 111.535901 
L 220.868606 117.473924 
L 222.025692 123.19005 
L 223.49363 129.090029 
L 224.133454 133.933718 
L 224.562528 138.285106 
L 225.900744 157.969033 
L 226.587967 167.616505 
L 227.301279 174.750959 
L 227.793992 177.592457 
L 228.293093 178.732187 
L 228.542721 178.859592 
L 228.792348 178.540518 
L 229.041976 177.603102 
L 229.541232 174.530613 
L 230.149836 169.204569 
L 231.112129 156.478595 
L 232.481883 138.676659 
L 233.020409 134.290828 
L 233.569789 131.864427 
L 234.119169 131.00408 
L 234.393859 130.97226 
L 235.496478 132.086156 
L 236.049115 133.723816 
L 236.603081 136.337623 
L 237.183535 140.366809 
L 238.078959 146.696974 
L 238.385077 148.236312 
L 238.704368 149.040854 
L 239.029727 149.130444 
L 239.362203 148.63956 
L 239.70695 147.696401 
L 240.423202 145.074248 
L 241.891802 141.851362 
L 242.258952 140.586979 
L 243.935047 132.230999 
L 244.194484 132.433302 
L 244.554656 134.05782 
L 244.93054 137.135584 
L 245.584881 145.169414 
L 246.274907 152.940035 
L 246.73651 156.36996 
L 246.967311 157.38214 
L 247.198112 157.862956 
L 247.428914 157.941334 
L 247.890516 157.57945 
L 248.121317 157.277264 
L 248.352119 156.701745 
L 248.813721 154.568228 
L 249.275324 151.102069 
L 249.736926 144.307982 
L 250.360244 130.728457 
L 252.004974 90.151199 
L 252.39369 85.388226 
L 252.818747 82.694458 
L 253.128099 81.673119 
L 253.455727 81.38873 
L 253.799997 81.247759 
L 254.345535 80.561831 
L 254.7264 80.142314 
L 254.916832 80.251976 
L 255.307031 80.972191 
L 255.503936 81.594457 
L 255.897746 84.148032 
L 257.115764 93.614635 
L 257.419165 94.582748 
L 257.554644 94.72888 
L 257.690122 94.621799 
L 257.96108 93.706722 
L 259.318199 87.792133 
L 259.457795 87.649114 
L 259.597391 87.670728 
L 259.886435 88.484239 
L 260.658982 93.031632 
L 261.341642 96.850971 
L 261.701523 97.990833 
L 261.887146 98.166895 
L 262.072769 98.097856 
L 262.444015 97.512513 
L 263.000883 96.528949 
L 263.372129 96.446707 
L 263.557752 96.580944 
L 263.928997 97.440848 
L 264.878826 99.990462 
L 265.073127 99.829007 
L 265.465204 98.385209 
L 265.874388 95.388583 
L 267.13761 84.27401 
L 267.354703 83.687602 
L 267.571796 83.661952 
L 267.788889 84.402924 
L 268.225271 87.79691 
L 269.440218 99.603326 
L 269.693066 100.923887 
L 269.950331 101.373353 
L 270.210085 100.877353 
L 270.741337 98.304896 
L 271.615626 93.204957 
L 271.93221 91.951649 
L 272.276254 91.254689 
L 272.970094 91.040097 
L 273.317013 90.394947 
L 273.663933 89.05764 
L 274.357903 84.376947 
L 275.49031 74.798902 
L 275.729286 73.955964 
L 275.968262 73.704193 
L 276.207238 74.142597 
L 276.633122 76.466804 
L 277.006938 80.35634 
L 278.689111 101.992239 
L 279.421088 108.258689 
L 280.182967 114.701111 
L 280.767143 118.99615 
L 281.224508 121.031396 
L 281.466991 121.49756 
L 281.590714 121.468719 
L 281.844719 120.944108 
L 282.723407 118.600918 
L 282.833251 118.665196 
L 283.05294 119.395341 
L 283.411043 122.075359 
L 283.783359 127.042866 
L 284.535327 143.257214 
L 285.78731 170.592923 
L 286.811822 185.616733 
L 287.438272 191.452849 
L 287.648401 192.24714 
L 287.85853 192.438134 
L 288.068659 192.111953 
L 288.297664 190.74539 
L 288.779383 183.789838 
L 289.269678 173.295511 
L 291.051781 128.825679 
L 291.579762 121.247095 
L 292.118433 116.729267 
L 292.672345 114.052042 
L 292.956922 113.858912 
L 293.526076 114.951031 
L 293.810653 116.405806 
L 294.380241 122.731137 
L 294.955909 132.651044 
L 296.118538 159.2006 
L 296.929217 175.850627 
L 297.51932 183.023213 
L 297.846583 185.196188 
L 298.017501 185.702354 
L 298.188418 185.592127 
L 298.367475 184.879075 
L 298.72908 182.136459 
L 299.090685 177.790272 
L 299.643096 167.339894 
L 300.757923 141.173396 
L 301.458045 127.423614 
L 301.955021 120.635543 
L 302.287882 118.27708 
L 302.454313 117.94186 
L 302.620743 118.067324 
L 302.962711 119.265727 
L 303.340584 122.658751 
L 303.976716 132.738388 
L 305.291159 157.756169 
L 305.927265 174.06787 
L 307.315613 214.960207 
L 307.542344 217.743985 
L 307.65571 218.215897 
L 307.769076 218.030844 
L 308.012519 215.350476 
L 308.390346 205.608537 
L 308.906587 182.862741 
L 310.168027 118.429132 
L 310.814494 97.096968 
L 311.475165 84.211766 
L 311.917219 79.314779 
L 312.580299 75.211486 
L 312.801325 74.78925 
L 313.022352 75.228556 
L 313.435589 77.4076 
L 313.820009 81.740736 
L 314.58885 97.17788 
L 315.16548 108.418398 
L 315.35769 110.616669 
L 315.5499 111.391911 
L 315.74211 110.603801 
L 315.93432 108.271393 
L 316.320534 99.277105 
L 316.921214 76.320309 
L 317.554797 50.690415 
L 318.034466 38.215504 
L 318.284222 35.112381 
L 318.534613 34.550077 
L 318.785005 35.829531 
L 319.285788 39.414862 
L 319.78657 41.209381 
L 320.037468 41.46471 
L 320.260845 41.418163 
L 320.484223 41.542599 
L 320.640473 42.100472 
L 320.92009 44.834265 
L 321.199706 50.944364 
L 321.623135 67.598817 
L 322.214628 104.574084 
L 322.986104 151.37508 
L 323.306964 161.432214 
L 323.628788 165.625269 
L 323.7897 165.681307 
L 323.950612 164.319708 
L 324.272436 158.180934 
L 326.174678 112.799783 
L 327.63247 93.478731 
L 328.158928 76.867245 
L 329.640188 19.358809 
L 329.843282 17.658076 
L 330.046376 18.483528 
L 330.249471 21.921744 
L 330.694804 38.986159 
L 332.10678 112.503974 
L 332.567983 124.838877 
L 332.785772 127.973705 
L 333.003561 129.037934 
L 333.221351 128.357236 
L 333.43914 126.16284 
L 334.098253 115.056217 
L 334.321787 113.985996 
L 334.545322 115.020811 
L 334.900487 119.191799 
L 335.872993 134.684578 
L 336.006928 135.63257 
L 336.140864 135.519329 
L 336.289321 134.205984 
L 336.598146 127.370028 
L 337.225318 104.547017 
L 338.365003 57.425262 
L 339.03384 42.224114 
L 339.465341 35.884961 
L 339.603867 34.99765 
L 339.742393 34.862667 
L 340.002728 35.892683 
L 340.368156 37.594554 
L 340.807779 38.921088 
L 341.126487 41.108941 
L 341.446981 45.6797 
L 341.874307 56.051014 
L 343.306866 95.662523 
L 343.567697 97.501055 
L 343.705332 97.390125 
L 343.984702 95.732025 
L 344.418962 91.171865 
L 344.876439 86.451069 
L 345.029782 86.661729 
L 345.34948 90.293697 
L 346.014696 104.066057 
L 346.679912 120.979037 
L 346.846216 122.741361 
L 347.01252 122.82131 
L 347.290967 120.02555 
L 348.087284 110.250072 
L 348.230504 109.410015 
L 348.373723 109.372398 
L 348.516942 110.404582 
L 348.811789 116.347325 
L 349.760036 148.470155 
L 350.490873 173.488393 
L 350.676785 176.565708 
L 350.862696 177.370435 
L 351.061252 176.246186 
L 351.860384 168.60203 
L 352.268552 166.243539 
L 352.475709 165.77086 
L 352.682866 166.301622 
L 352.895273 168.227524 
L 353.320088 176.204971 
L 353.964636 190.549061 
L 354.179485 192.383784 
L 354.394335 191.624985 
L 354.579473 188.745609 
L 354.950347 177.881449 
L 356.240363 131.927974 
L 356.470094 130.807539 
L 356.699824 133.006662 
L 356.929554 138.430711 
L 357.424615 158.461303 
L 357.920433 180.113251 
L 358.168342 185.096112 
L 358.416251 184.502361 
L 358.66416 178.050546 
L 359.128873 153.07183 
L 359.704714 120.781994 
L 360.085278 110.964189 
L 360.27556 110.51715 
L 360.467159 112.668463 
L 360.658758 117.563911 
L 361.049283 136.491702 
L 362.064155 194.365001 
L 362.270279 198.542388 
L 362.476403 197.641415 
L 362.682527 191.270141 
L 363.094775 162.788411 
L 363.848993 104.253853 
L 364.040121 96.451806 
L 364.231249 93.843978 
L 364.422378 95.95326 
L 364.804634 109.40081 
L 365.247451 137.289986 
L 366.184591 203.908569 
L 366.307442 206.467148 
L 366.444034 205.9996 
L 366.583427 202.079365 
L 366.871877 184.15875 
L 367.816684 104.142746 
L 368.066123 94.807415 
L 368.198535 92.503185 
L 368.330947 92.219747 
L 368.463359 93.907118 
L 368.741973 103.059958 
L 369.044624 122.182363 
L 370.158584 209.389874 
L 370.344172 212.839399 
L 370.52976 209.664775 
L 370.902307 187.665346 
L 371.623311 131.568735 
L 371.959927 121.140385 
L 372.128234 119.273185 
L 372.278298 119.993151 
L 372.428361 123.83814 
L 372.731157 141.317574 
L 373.901213 226.645182 
L 374.07168 227.411635 
L 374.242146 222.715073 
L 374.58308 195.8583 
L 375.637892 84.697137 
L 375.819029 75.269138 
L 376.000166 72.138503 
L 376.181303 75.028963 
L 376.543577 92.855273 
L 377.316429 139.666464 
L 377.513369 141.700353 
L 377.710774 137.06024 
L 378.112307 113.26134 
L 378.714606 62.455771 
L 379.292579 14.901399 
L 379.46902 10.062685 
L 379.625438 10.918612 
L 379.938274 24.752284 
L 380.407527 66.256786 
L 381.040548 122.170638 
L 381.30787 131.795495 
L 381.466688 133.98142 
L 381.625505 134.528914 
L 381.785197 133.658747 
L 381.944889 131.235678 
L 382.264273 120.001483 
L 382.743787 84.630621 
L 383.064047 63.558929 
L 383.224177 58.014436 
L 383.384307 56.574039 
L 383.544437 58.864015 
L 383.864696 73.150857 
L 384.753122 126.585939 
L 385.038569 132.330591 
L 385.754266 139.562436 
L 385.920108 136.98502 
L 386.251793 119.110815 
L 387.246847 39.645486 
L 387.412689 38.433715 
L 387.648562 44.262825 
L 388.065595 69.842871 
L 388.42994 87.714096 
L 389.070114 102.56996 
L 389.659339 122.667484 
L 389.821913 122.590311 
L 389.997048 117.781954 
L 390.94943 64.025724 
L 391.145792 61.612321 
L 391.342154 65.902549 
L 392.127601 100.973449 
L 392.522073 109.648563 
L 392.916544 125.735406 
L 393.311016 145.441247 
L 393.508252 148.34609 
L 393.705487 145.339153 
L 394.099959 131.768472 
L 395.115583 84.247227 
L 395.539501 78.635184 
L 395.974249 76.612938 
L 396.197038 77.240526 
L 396.419827 82.254676 
L 396.865406 96.783631 
L 397.088195 96.300338 
L 397.533774 87.044874 
L 397.887221 71.206046 
L 398.770839 17.969438 
L 398.947563 15.992909 
L 399.735585 27.764824 
L 400.043285 42.77496 
L 400.972027 106.244736 
L 401.126817 107.311097 
L 401.436398 101.482793 
L 401.937917 87.043332 
L 402.375321 72.21461 
L 402.951707 64.687075 
L 403.061672 65.244155 
L 403.285746 73.576974 
L 403.766833 114.387456 
L 404.28725 153.934501 
L 404.680161 168.065695 
L 404.945566 171.61922 
L 405.078268 168.896973 
L 405.3512 148.127002 
L 405.903866 95.937989 
L 406.326127 67.696208 
L 406.607633 45.661417 
L 406.748387 40.986 
L 406.88914 42.807904 
L 407.170647 61.398006 
L 407.733661 99.859279 
L 408.015168 120.95024 
L 408.439119 160.377417 
L 408.589738 163.863605 
L 408.742577 159.567752 
L 409.206358 140.233063 
L 409.378908 138.601396 
L 409.551457 135.305141 
L 410.085717 115.414594 
L 410.266572 119.811756 
L 410.628282 150.026048 
L 411.182515 196.926053 
L 411.561204 213.291921 
L 412.129795 248.585674 
L 412.319418 247.165944 
L 412.704993 231.860894 
L 413.040049 203.895011 
L 413.538464 149.776068 
L 413.829368 136.910034 
L 414.142714 131.03177 
L 414.419859 127.29894 
L 414.737858 120.902233 
L 414.897485 120.720403 
L 415.057112 124.794344 
L 415.576083 148.008362 
L 415.750718 149.997164 
L 415.925404 148.101705 
L 416.449462 132.991129 
L 416.628569 126.576791 
L 416.98874 98.691167 
L 417.362163 67.023883 
L 417.55351 61.917392 
L 417.744857 61.33158 
L 418.036924 63.102146 
L 418.194293 64.261999 
L 418.352365 64.572276 
L 418.510437 64.127662 
L 418.668508 65.03058 
L 418.82658 71.043298 
L 419.168297 106.237681 
L 420.193447 216.039641 
L 420.368563 219.149623 
L 421.070467 197.642945 
L 421.422139 196.833982 
L 421.597975 194.304048 
L 421.949647 176.74484 
L 422.301319 164.107849 
L 422.361999 164.180279 
L 422.361999 164.180279 
" style="fill:none;stroke:#e36f47;"/>
   </g>
   <g id="patch_3">
    <path d="M 64.557544 258.225354 
L 64.557544 2.834646 
" style="fill:none;stroke:#000000;stroke-linecap:square;stroke-linejoin:miter;"/>
   </g>
   <g id="patch_4">
    <path d="M 64.557544 258.225354 
L 422.361999 258.225354 
" style="fill:none;stroke:#000000;stroke-linecap:square;stroke-linejoin:miter;"/>
   </g>
   <g id="legend_1">
    <g id="patch_5">
     <path d="M 299.041999 39.119646 
L 418.361999 39.119646 
L 418.361999 6.834646 
L 299.041999 6.834646 
z
" style="fill:#ffffff;stroke:#000000;stroke-linejoin:miter;"/>
    </g>
    <g id="line2d_12">
     <path d="M 305.441999 16.513396 
L 321.441999 16.513396 
" style="fill:none;stroke:#009afa;stroke-linejoin:miter;"/>
    </g>
    <g id="line2d_13"/>
    <g id="text_12">
     <!-- GXBeam -->
     <g transform="translate(327.841999 19.313396)scale(0.08 -0.08)">
      <defs>
       <path d="M 59.515625 10.40625 
L 59.515625 29.984375 
L 43.40625 29.984375 
L 43.40625 38.09375 
L 69.28125 38.09375 
L 69.28125 6.78125 
Q 63.578125 2.734375 56.6875 0.65625 
Q 49.8125 -1.421875 42 -1.421875 
Q 24.90625 -1.421875 15.25 8.5625 
Q 5.609375 18.5625 5.609375 36.375 
Q 5.609375 54.25 15.25 64.234375 
Q 24.90625 74.21875 42 74.21875 
Q 49.125 74.21875 55.546875 72.453125 
Q 61.96875 70.703125 67.390625 67.28125 
L 67.390625 56.78125 
Q 61.921875 61.421875 55.765625 63.765625 
Q 49.609375 66.109375 42.828125 66.109375 
Q 29.4375 66.109375 22.71875 58.640625 
Q 16.015625 51.171875 16.015625 36.375 
Q 16.015625 21.625 22.71875 14.15625 
Q 29.4375 6.6875 42.828125 6.6875 
Q 48.046875 6.6875 52.140625 7.59375 
Q 56.25 8.5 59.515625 10.40625 
z
" id="DejaVuSans-71"/>
       <path d="M 6.296875 72.90625 
L 16.890625 72.90625 
L 35.015625 45.796875 
L 53.21875 72.90625 
L 63.8125 72.90625 
L 40.375 37.890625 
L 65.375 0 
L 54.78125 0 
L 34.28125 31 
L 13.625 0 
L 2.984375 0 
L 29 38.921875 
z
" id="DejaVuSans-88"/>
       <path d="M 19.671875 34.8125 
L 19.671875 8.109375 
L 35.5 8.109375 
Q 43.453125 8.109375 47.28125 11.40625 
Q 51.125 14.703125 51.125 21.484375 
Q 51.125 28.328125 47.28125 31.5625 
Q 43.453125 34.8125 35.5 34.8125 
z
M 19.671875 64.796875 
L 19.671875 42.828125 
L 34.28125 42.828125 
Q 41.5 42.828125 45.03125 45.53125 
Q 48.578125 48.25 48.578125 53.8125 
Q 48.578125 59.328125 45.03125 62.0625 
Q 41.5 64.796875 34.28125 64.796875 
z
M 9.8125 72.90625 
L 35.015625 72.90625 
Q 46.296875 72.90625 52.390625 68.21875 
Q 58.5 63.53125 58.5 54.890625 
Q 58.5 48.1875 55.375 44.234375 
Q 52.25 40.28125 46.1875 39.3125 
Q 53.46875 37.75 57.5 32.78125 
Q 61.53125 27.828125 61.53125 20.40625 
Q 61.53125 10.640625 54.890625 5.3125 
Q 48.25 0 35.984375 0 
L 9.8125 0 
z
" id="DejaVuSans-66"/>
       <path d="M 34.28125 27.484375 
Q 23.390625 27.484375 19.1875 25 
Q 14.984375 22.515625 14.984375 16.5 
Q 14.984375 11.71875 18.140625 8.90625 
Q 21.296875 6.109375 26.703125 6.109375 
Q 34.1875 6.109375 38.703125 11.40625 
Q 43.21875 16.703125 43.21875 25.484375 
L 43.21875 27.484375 
z
M 52.203125 31.203125 
L 52.203125 0 
L 43.21875 0 
L 43.21875 8.296875 
Q 40.140625 3.328125 35.546875 0.953125 
Q 30.953125 -1.421875 24.3125 -1.421875 
Q 15.921875 -1.421875 10.953125 3.296875 
Q 6 8.015625 6 15.921875 
Q 6 25.140625 12.171875 29.828125 
Q 18.359375 34.515625 30.609375 34.515625 
L 43.21875 34.515625 
L 43.21875 35.40625 
Q 43.21875 41.609375 39.140625 45 
Q 35.0625 48.390625 27.6875 48.390625 
Q 23 48.390625 18.546875 47.265625 
Q 14.109375 46.140625 10.015625 43.890625 
L 10.015625 52.203125 
Q 14.9375 54.109375 19.578125 55.046875 
Q 24.21875 56 28.609375 56 
Q 40.484375 56 46.34375 49.84375 
Q 52.203125 43.703125 52.203125 31.203125 
z
" id="DejaVuSans-97"/>
      </defs>
      <use xlink:href="#DejaVuSans-71"/>
      <use x="77.490234" xlink:href="#DejaVuSans-88"/>
      <use x="145.996094" xlink:href="#DejaVuSans-66"/>
      <use x="214.599609" xlink:href="#DejaVuSans-101"/>
      <use x="276.123047" xlink:href="#DejaVuSans-97"/>
      <use x="337.402344" xlink:href="#DejaVuSans-109"/>
     </g>
    </g>
    <g id="line2d_14">
     <path d="M 305.441999 28.255896 
L 321.441999 28.255896 
" style="fill:none;stroke:#e36f47;stroke-linejoin:miter;"/>
    </g>
    <g id="line2d_15"/>
    <g id="text_13">
     <!-- DifferentialEquations -->
     <g transform="translate(327.841999 31.055896)scale(0.08 -0.08)">
      <defs>
       <path d="M 19.671875 64.796875 
L 19.671875 8.109375 
L 31.59375 8.109375 
Q 46.6875 8.109375 53.6875 14.9375 
Q 60.6875 21.78125 60.6875 36.53125 
Q 60.6875 51.171875 53.6875 57.984375 
Q 46.6875 64.796875 31.59375 64.796875 
z
M 9.8125 72.90625 
L 30.078125 72.90625 
Q 51.265625 72.90625 61.171875 64.09375 
Q 71.09375 55.28125 71.09375 36.53125 
Q 71.09375 17.671875 61.125 8.828125 
Q 51.171875 0 30.078125 0 
L 9.8125 0 
z
" id="DejaVuSans-68"/>
       <path d="M 37.109375 75.984375 
L 37.109375 68.5 
L 28.515625 68.5 
Q 23.6875 68.5 21.796875 66.546875 
Q 19.921875 64.59375 19.921875 59.515625 
L 19.921875 54.6875 
L 34.71875 54.6875 
L 34.71875 47.703125 
L 19.921875 47.703125 
L 19.921875 0 
L 10.890625 0 
L 10.890625 47.703125 
L 2.296875 47.703125 
L 2.296875 54.6875 
L 10.890625 54.6875 
L 10.890625 58.5 
Q 10.890625 67.625 15.140625 71.796875 
Q 19.390625 75.984375 28.609375 75.984375 
z
" id="DejaVuSans-102"/>
       <path d="M 41.109375 46.296875 
Q 39.59375 47.171875 37.8125 47.578125 
Q 36.03125 48 33.890625 48 
Q 26.265625 48 22.1875 43.046875 
Q 18.109375 38.09375 18.109375 28.8125 
L 18.109375 0 
L 9.078125 0 
L 9.078125 54.6875 
L 18.109375 54.6875 
L 18.109375 46.1875 
Q 20.953125 51.171875 25.484375 53.578125 
Q 30.03125 56 36.53125 56 
Q 37.453125 56 38.578125 55.875 
Q 39.703125 55.765625 41.0625 55.515625 
z
" id="DejaVuSans-114"/>
       <path d="M 54.890625 33.015625 
L 54.890625 0 
L 45.90625 0 
L 45.90625 32.71875 
Q 45.90625 40.484375 42.875 44.328125 
Q 39.84375 48.1875 33.796875 48.1875 
Q 26.515625 48.1875 22.3125 43.546875 
Q 18.109375 38.921875 18.109375 30.90625 
L 18.109375 0 
L 9.078125 0 
L 9.078125 54.6875 
L 18.109375 54.6875 
L 18.109375 46.1875 
Q 21.34375 51.125 25.703125 53.5625 
Q 30.078125 56 35.796875 56 
Q 45.21875 56 50.046875 50.171875 
Q 54.890625 44.34375 54.890625 33.015625 
z
" id="DejaVuSans-110"/>
       <path d="M 18.3125 70.21875 
L 18.3125 54.6875 
L 36.8125 54.6875 
L 36.8125 47.703125 
L 18.3125 47.703125 
L 18.3125 18.015625 
Q 18.3125 11.328125 20.140625 9.421875 
Q 21.96875 7.515625 27.59375 7.515625 
L 36.8125 7.515625 
L 36.8125 0 
L 27.59375 0 
Q 17.1875 0 13.234375 3.875 
Q 9.28125 7.765625 9.28125 18.015625 
L 9.28125 47.703125 
L 2.6875 47.703125 
L 2.6875 54.6875 
L 9.28125 54.6875 
L 9.28125 70.21875 
z
" id="DejaVuSans-116"/>
       <path d="M 9.421875 75.984375 
L 18.40625 75.984375 
L 18.40625 0 
L 9.421875 0 
z
" id="DejaVuSans-108"/>
       <path d="M 9.8125 72.90625 
L 55.90625 72.90625 
L 55.90625 64.59375 
L 19.671875 64.59375 
L 19.671875 43.015625 
L 54.390625 43.015625 
L 54.390625 34.71875 
L 19.671875 34.71875 
L 19.671875 8.296875 
L 56.78125 8.296875 
L 56.78125 0 
L 9.8125 0 
z
" id="DejaVuSans-69"/>
       <path d="M 14.796875 27.296875 
Q 14.796875 17.390625 18.875 11.75 
Q 22.953125 6.109375 30.078125 6.109375 
Q 37.203125 6.109375 41.296875 11.75 
Q 45.40625 17.390625 45.40625 27.296875 
Q 45.40625 37.203125 41.296875 42.84375 
Q 37.203125 48.484375 30.078125 48.484375 
Q 22.953125 48.484375 18.875 42.84375 
Q 14.796875 37.203125 14.796875 27.296875 
z
M 45.40625 8.203125 
Q 42.578125 3.328125 38.25 0.953125 
Q 33.9375 -1.421875 27.875 -1.421875 
Q 17.96875 -1.421875 11.734375 6.484375 
Q 5.515625 14.40625 5.515625 27.296875 
Q 5.515625 40.1875 11.734375 48.09375 
Q 17.96875 56 27.875 56 
Q 33.9375 56 38.25 53.625 
Q 42.578125 51.265625 45.40625 46.390625 
L 45.40625 54.6875 
L 54.390625 54.6875 
L 54.390625 -20.796875 
L 45.40625 -20.796875 
z
" id="DejaVuSans-113"/>
       <path d="M 8.5 21.578125 
L 8.5 54.6875 
L 17.484375 54.6875 
L 17.484375 21.921875 
Q 17.484375 14.15625 20.5 10.265625 
Q 23.53125 6.390625 29.59375 6.390625 
Q 36.859375 6.390625 41.078125 11.03125 
Q 45.3125 15.671875 45.3125 23.6875 
L 45.3125 54.6875 
L 54.296875 54.6875 
L 54.296875 0 
L 45.3125 0 
L 45.3125 8.40625 
Q 42.046875 3.421875 37.71875 1 
Q 33.40625 -1.421875 27.6875 -1.421875 
Q 18.265625 -1.421875 13.375 4.4375 
Q 8.5 10.296875 8.5 21.578125 
z
M 31.109375 56 
z
" id="DejaVuSans-117"/>
       <path d="M 30.609375 48.390625 
Q 23.390625 48.390625 19.1875 42.75 
Q 14.984375 37.109375 14.984375 27.296875 
Q 14.984375 17.484375 19.15625 11.84375 
Q 23.34375 6.203125 30.609375 6.203125 
Q 37.796875 6.203125 41.984375 11.859375 
Q 46.1875 17.53125 46.1875 27.296875 
Q 46.1875 37.015625 41.984375 42.703125 
Q 37.796875 48.390625 30.609375 48.390625 
z
M 30.609375 56 
Q 42.328125 56 49.015625 48.375 
Q 55.71875 40.765625 55.71875 27.296875 
Q 55.71875 13.875 49.015625 6.21875 
Q 42.328125 -1.421875 30.609375 -1.421875 
Q 18.84375 -1.421875 12.171875 6.21875 
Q 5.515625 13.875 5.515625 27.296875 
Q 5.515625 40.765625 12.171875 48.375 
Q 18.84375 56 30.609375 56 
z
" id="DejaVuSans-111"/>
      </defs>
      <use xlink:href="#DejaVuSans-68"/>
      <use x="77.001953" xlink:href="#DejaVuSans-105"/>
      <use x="104.785156" xlink:href="#DejaVuSans-102"/>
      <use x="139.990234" xlink:href="#DejaVuSans-102"/>
      <use x="175.195312" xlink:href="#DejaVuSans-101"/>
      <use x="236.71875" xlink:href="#DejaVuSans-114"/>
      <use x="275.582031" xlink:href="#DejaVuSans-101"/>
      <use x="337.105469" xlink:href="#DejaVuSans-110"/>
      <use x="400.484375" xlink:href="#DejaVuSans-116"/>
      <use x="439.693359" xlink:href="#DejaVuSans-105"/>
      <use x="467.476562" xlink:href="#DejaVuSans-97"/>
      <use x="528.755859" xlink:href="#DejaVuSans-108"/>
      <use x="556.539062" xlink:href="#DejaVuSans-69"/>
      <use x="619.722656" xlink:href="#DejaVuSans-113"/>
      <use x="683.199219" xlink:href="#DejaVuSans-117"/>
      <use x="746.578125" xlink:href="#DejaVuSans-97"/>
      <use x="807.857422" xlink:href="#DejaVuSans-116"/>
      <use x="847.066406" xlink:href="#DejaVuSans-105"/>
      <use x="874.849609" xlink:href="#DejaVuSans-111"/>
      <use x="936.03125" xlink:href="#DejaVuSans-110"/>
      <use x="999.410156" xlink:href="#DejaVuSans-115"/>
     </g>
    </g>
   </g>
  </g>
 </g>
 <defs>
  <clipPath id="pc47dc582e2">
   <rect height="255.390709" width="357.804455" x="64.557544" y="2.834646"/>
  </clipPath>
 </defs>
</svg>
