<?xml version="1.0" encoding="utf-8" standalone="no"?>
<!DOCTYPE svg PUBLIC "-//W3C//DTD SVG 1.1//EN"
  "http://www.w3.org/Graphics/SVG/1.1/DTD/svg11.dtd">
<!-- Created with matplotlib (https://matplotlib.org/) -->
<svg height="288pt" version="1.1" viewBox="0 0 432 288" width="432pt" xmlns="http://www.w3.org/2000/svg" xmlns:xlink="http://www.w3.org/1999/xlink">
 <metadata>
  <rdf:RDF xmlns:cc="http://creativecommons.org/ns#" xmlns:dc="http://purl.org/dc/elements/1.1/" xmlns:rdf="http://www.w3.org/1999/02/22-rdf-syntax-ns#">
   <cc:Work>
    <dc:type rdf:resource="http://purl.org/dc/dcmitype/StillImage"/>
    <dc:date>2021-07-12T15:34:14.518020</dc:date>
    <dc:format>image/svg+xml</dc:format>
    <dc:creator>
     <cc:Agent>
      <dc:title>Matplotlib v3.3.4, https://matplotlib.org/</dc:title>
     </cc:Agent>
    </dc:creator>
   </cc:Work>
  </rdf:RDF>
 </metadata>
 <defs>
  <style type="text/css">*{stroke-linecap:butt;stroke-linejoin:round;}</style>
 </defs>
 <g id="figure_1">
  <g id="patch_1">
   <path d="M 0 288 
L 432 288 
L 432 0 
L 0 0 
z
" style="fill:#ffffff;"/>
  </g>
  <g id="axes_1">
   <g id="patch_2">
    <path d="M 29.556396 258.225354 
L 422.361999 258.225354 
L 422.361999 2.834646 
L 29.556396 2.834646 
z
" style="fill:#ffffff;"/>
   </g>
   <g id="line2d_1">
    <path clip-path="url(#p39dde02f83)" d="M 29.556396 250.997315 
L 31.127618 250.90336 
L 32.502438 250.572125 
L 33.680855 250.066925 
L 34.859271 249.301181 
L 36.037688 248.237669 
L 37.412508 246.678812 
L 38.590925 245.062018 
L 39.769341 243.112593 
L 41.144161 240.438326 
L 42.715383 236.93789 
L 44.483009 232.45814 
L 47.232648 224.832376 
L 49.982287 216.45048 
L 53.71394 204.270198 
L 56.46358 195.737239 
L 58.427608 190.293737 
L 60.195233 186.026945 
L 61.766455 182.764126 
L 63.141275 180.46074 
L 64.516094 178.650257 
L 65.694511 177.43708 
L 66.872928 176.536179 
L 68.247748 175.799123 
L 69.622567 175.315262 
L 70.800984 175.163628 
L 71.782998 175.254669 
L 72.961415 175.594871 
L 73.943429 176.074272 
L 75.121846 176.930561 
L 76.496665 178.284613 
L 78.067888 180.200547 
L 79.442707 182.255091 
L 81.210333 185.381437 
L 83.174361 189.293751 
L 86.906014 196.894567 
L 89.066445 200.669457 
L 90.637667 202.998148 
L 92.405292 205.251136 
L 93.583709 206.448399 
L 94.565723 207.18083 
L 95.547737 207.669512 
L 96.529751 207.909412 
L 97.315362 207.891862 
L 98.100973 207.670086 
L 99.082987 207.124376 
L 100.065002 206.295133 
L 101.047016 205.166573 
L 102.02903 203.690511 
L 103.207446 201.431151 
L 104.582266 198.192628 
L 105.957086 194.351445 
L 107.921114 188.05874 
L 112.634781 171.941124 
L 116.170031 160.389259 
L 118.134059 154.717672 
L 120.098087 149.750712 
L 121.66931 146.353176 
L 123.240532 143.442086 
L 124.418949 141.630774 
L 125.400963 140.47075 
L 126.186574 139.822766 
L 126.972185 139.427354 
L 127.757797 139.300105 
L 128.347005 139.391465 
L 129.132616 139.780519 
L 129.918227 140.463883 
L 130.900241 141.693077 
L 132.078658 143.623632 
L 133.257075 145.991226 
L 134.631895 149.255909 
L 136.595923 154.509418 
L 142.095201 169.639852 
L 144.059229 174.21363 
L 146.612466 179.509238 
L 148.380091 182.756445 
L 149.951313 185.18447 
L 151.522536 187.20931 
L 152.897355 188.608964 
L 154.075772 189.520845 
L 155.057786 190.063679 
L 155.843397 190.300839 
L 156.629008 190.29319 
L 157.41462 189.991426 
L 158.200231 189.36231 
L 158.985842 188.386155 
L 159.771453 187.044721 
L 160.753467 184.83339 
L 161.735481 182.058261 
L 163.110301 177.421463 
L 164.681523 171.327022 
L 166.645551 162.779166 
L 169.591593 148.814395 
L 172.14483 136.973561 
L 174.305261 128.100406 
L 178.822525 111.006922 
L 180.982956 103.304633 
L 182.357775 99.231135 
L 183.339789 96.93476 
L 184.321803 95.230632 
L 185.107415 94.284913 
L 185.893026 93.658424 
L 186.678637 93.311363 
L 187.464248 93.213045 
L 188.24986 93.355717 
L 189.035471 93.731596 
L 189.821082 94.334712 
L 190.803096 95.407851 
L 191.78511 96.875351 
L 192.767124 98.824476 
L 193.749138 101.294814 
L 195.123958 105.420199 
L 197.677194 113.943279 
L 199.444819 120.488025 
L 200.819639 126.459794 
L 201.998056 132.576708 
L 203.765681 143.152812 
L 207.300931 164.544415 
L 209.068556 173.790012 
L 211.228987 183.843802 
L 212.80021 190.155705 
L 214.567835 196.2707 
L 215.746252 199.67205 
L 216.728266 201.79381 
L 217.513877 202.972392 
L 218.299488 203.78627 
L 219.477905 204.642402 
L 221.834739 206.199619 
L 223.405961 207.640161 
L 224.191572 208.254499 
L 224.780781 208.46267 
L 225.173586 208.421297 
L 225.566392 208.210437 
L 226.1556 207.552605 
L 226.744809 206.483326 
L 227.53042 204.436583 
L 228.316031 201.669824 
L 229.101642 198.137032 
L 230.083656 192.680197 
L 231.654879 182.444319 
L 234.011712 165.803507 
L 236.368546 147.377293 
L 238.528977 128.842444 
L 240.689408 110.484281 
L 242.653436 95.758869 
L 244.617464 82.650751 
L 247.563506 64.621542 
L 248.741922 58.820708 
L 249.723936 55.043368 
L 251.098756 50.743394 
L 255.616021 37.269772 
L 256.794437 33.854257 
L 257.383646 32.661767 
L 257.972854 31.951912 
L 258.36566 31.76274 
L 258.758465 31.785563 
L 259.151271 31.99981 
L 259.740479 32.612045 
L 260.329688 33.523965 
L 261.115299 35.163469 
L 262.097313 37.873663 
L 263.27573 41.952494 
L 265.043355 48.937869 
L 266.418175 55.235395 
L 267.989397 63.773199 
L 271.72105 84.39305 
L 272.899467 89.621207 
L 278.00594 110.417742 
L 279.773565 117.795329 
L 280.755579 121.010149 
L 281.54119 122.897975 
L 282.523204 124.595839 
L 284.683635 127.96135 
L 285.469246 129.681669 
L 286.45126 132.469643 
L 287.629677 136.628454 
L 289.2009 142.163927 
L 289.790108 143.649084 
L 290.379316 144.577595 
L 290.772122 144.847771 
L 291.164928 144.820175 
L 291.557733 144.483045 
L 291.950539 143.823313 
L 292.539747 142.222729 
L 293.128956 139.883567 
L 293.914567 135.73643 
L 295.485789 125.617011 
L 296.860609 117.354563 
L 298.235429 110.457243 
L 301.181471 96.576531 
L 302.163485 90.271824 
L 305.109527 69.907721 
L 306.287943 64.04886 
L 307.269957 60.204246 
L 309.430388 52.579996 
L 310.019597 49.12018 
L 311.001611 41.650536 
L 312.965639 26.330561 
L 314.340458 17.546955 
L 315.126069 13.582895 
L 315.715278 11.493599 
L 316.108083 10.651543 
L 316.500889 10.291108 
L 316.697292 10.290187 
L 317.090097 10.620534 
L 317.679306 11.749127 
L 319.054125 14.932125 
L 319.643334 15.744802 
L 320.232542 16.12877 
L 320.821751 16.206639 
L 321.607362 16.024163 
L 322.589376 15.559543 
L 323.178584 15.074467 
L 323.767793 14.302997 
L 324.749807 12.843276 
L 325.142612 12.566277 
L 325.535418 12.641403 
L 325.928224 13.154026 
L 326.321029 14.135729 
L 326.910238 16.452823 
L 327.695849 20.764869 
L 329.070668 29.995065 
L 332.213113 51.161843 
L 333.587933 58.393228 
L 334.962752 65.901984 
L 336.92678 78.238491 
L 338.105197 86.619171 
L 340.265628 102.900665 
L 341.444045 109.306888 
L 343.800879 120.52008 
L 344.979295 124.719052 
L 345.961309 128.413802 
L 346.746921 132.364516 
L 348.318143 140.758982 
L 349.103754 143.574186 
L 350.282171 146.646308 
L 351.264185 148.883231 
L 351.656991 149.422097 
L 352.049796 149.626 
L 352.442602 149.429264 
L 352.835407 148.816837 
L 353.424616 147.307257 
L 354.40663 144.6561 
L 354.799435 144.022633 
L 355.192241 143.762611 
L 355.585047 143.813617 
L 356.370658 144.037535 
L 356.763463 143.847331 
L 357.352672 143.15449 
L 358.138283 141.765036 
L 358.923894 140.463574 
L 359.3167 140.235211 
L 359.905908 140.336583 
L 360.298714 140.372471 
L 360.691519 140.119061 
L 361.084325 139.474023 
L 361.477131 138.426899 
L 362.066339 136.124688 
L 363.441159 129.959213 
L 364.030367 128.419812 
L 365.208784 125.896331 
L 365.797992 123.543939 
L 366.583604 118.93387 
L 367.565618 113.261091 
L 368.154826 111.029664 
L 369.333243 107.232043 
L 369.922451 103.883056 
L 370.904465 96.19823 
L 371.886479 89.158552 
L 372.868493 84.222289 
L 373.457702 80.953122 
L 374.04691 76.659041 
L 376.207341 58.890579 
L 376.796549 56.286646 
L 379.742591 46.087632 
L 380.135397 45.692416 
L 380.528202 45.730391 
L 380.921008 46.104655 
L 382.295828 48.042172 
L 382.688633 48.024852 
L 383.081439 47.621205 
L 383.670647 46.872924 
L 384.063453 46.651602 
L 384.652661 46.718405 
L 385.24187 46.975949 
L 385.634675 47.377362 
L 387.009495 49.406535 
L 387.795106 49.700185 
L 388.187912 50.142463 
L 388.77712 51.205116 
L 389.366329 52.662472 
L 389.955537 54.904882 
L 391.133954 60.143491 
L 392.705176 65.578928 
L 393.490787 69.251611 
L 394.276399 74.413959 
L 396.044024 87.049182 
L 397.418843 96.562403 
L 398.793663 108.491145 
L 399.579274 114.902811 
L 400.561288 120.473482 
L 401.739705 127.098321 
L 402.525316 133.519674 
L 404.096539 146.669227 
L 406.453372 162.407044 
L 407.631789 171.422963 
L 408.220998 174.845428 
L 410.381428 185.062365 
L 412.149054 197.235403 
L 412.934665 200.977278 
L 416.07711 212.432072 
L 416.469915 212.804122 
L 416.862721 212.602612 
L 417.451929 211.876775 
L 418.630346 210.123047 
L 419.023152 210.001998 
L 419.808763 210.067072 
L 420.201568 209.744381 
L 420.594374 209.0504 
L 421.183582 207.385047 
L 421.969194 204.16402 
L 422.361999 202.489543 
L 422.361999 202.489543 
" style="fill:none;stroke:#009afa;"/>
   </g>
   <g id="matplotlib.axis_1">
    <g id="xtick_1">
     <g id="line2d_2">
      <defs>
       <path d="M 0 0 
L 0 -2.5 
" id="mb869857be4" style="stroke:#000000;stroke-width:0.5;"/>
      </defs>
      <g>
       <use style="stroke:#000000;stroke-width:0.5;" x="29.556396" xlink:href="#mb869857be4" y="258.225354"/>
      </g>
     </g>
     <g id="text_1">
      <!-- $\mathregular{0.0}$ -->
      <g transform="translate(23.156396 267.804104)scale(0.08 -0.08)">
       <defs>
        <path d="M 31.78125 66.40625 
Q 24.171875 66.40625 20.328125 58.90625 
Q 16.5 51.421875 16.5 36.375 
Q 16.5 21.390625 20.328125 13.890625 
Q 24.171875 6.390625 31.78125 6.390625 
Q 39.453125 6.390625 43.28125 13.890625 
Q 47.125 21.390625 47.125 36.375 
Q 47.125 51.421875 43.28125 58.90625 
Q 39.453125 66.40625 31.78125 66.40625 
z
M 31.78125 74.21875 
Q 44.046875 74.21875 50.515625 64.515625 
Q 56.984375 54.828125 56.984375 36.375 
Q 56.984375 17.96875 50.515625 8.265625 
Q 44.046875 -1.421875 31.78125 -1.421875 
Q 19.53125 -1.421875 13.0625 8.265625 
Q 6.59375 17.96875 6.59375 36.375 
Q 6.59375 54.828125 13.0625 64.515625 
Q 19.53125 74.21875 31.78125 74.21875 
z
" id="DejaVuSans-48"/>
        <path d="M 10.6875 12.40625 
L 21 12.40625 
L 21 0 
L 10.6875 0 
z
" id="DejaVuSans-46"/>
       </defs>
       <use transform="translate(0 0.78125)" xlink:href="#DejaVuSans-48"/>
       <use transform="translate(63.623047 0.78125)" xlink:href="#DejaVuSans-46"/>
       <use transform="translate(95.410156 0.78125)" xlink:href="#DejaVuSans-48"/>
      </g>
     </g>
    </g>
    <g id="xtick_2">
     <g id="line2d_3">
      <g>
       <use style="stroke:#000000;stroke-width:0.5;" x="127.757797" xlink:href="#mb869857be4" y="258.225354"/>
      </g>
     </g>
     <g id="text_2">
      <!-- $\mathregular{0.5}$ -->
      <g transform="translate(121.357797 267.804104)scale(0.08 -0.08)">
       <defs>
        <path d="M 10.796875 72.90625 
L 49.515625 72.90625 
L 49.515625 64.59375 
L 19.828125 64.59375 
L 19.828125 46.734375 
Q 21.96875 47.46875 24.109375 47.828125 
Q 26.265625 48.1875 28.421875 48.1875 
Q 40.625 48.1875 47.75 41.5 
Q 54.890625 34.8125 54.890625 23.390625 
Q 54.890625 11.625 47.5625 5.09375 
Q 40.234375 -1.421875 26.90625 -1.421875 
Q 22.3125 -1.421875 17.546875 -0.640625 
Q 12.796875 0.140625 7.71875 1.703125 
L 7.71875 11.625 
Q 12.109375 9.234375 16.796875 8.0625 
Q 21.484375 6.890625 26.703125 6.890625 
Q 35.15625 6.890625 40.078125 11.328125 
Q 45.015625 15.765625 45.015625 23.390625 
Q 45.015625 31 40.078125 35.4375 
Q 35.15625 39.890625 26.703125 39.890625 
Q 22.75 39.890625 18.8125 39.015625 
Q 14.890625 38.140625 10.796875 36.28125 
z
" id="DejaVuSans-53"/>
       </defs>
       <use transform="translate(0 0.78125)" xlink:href="#DejaVuSans-48"/>
       <use transform="translate(63.623047 0.78125)" xlink:href="#DejaVuSans-46"/>
       <use transform="translate(95.410156 0.78125)" xlink:href="#DejaVuSans-53"/>
      </g>
     </g>
    </g>
    <g id="xtick_3">
     <g id="line2d_4">
      <g>
       <use style="stroke:#000000;stroke-width:0.5;" x="225.959197" xlink:href="#mb869857be4" y="258.225354"/>
      </g>
     </g>
     <g id="text_3">
      <!-- $\mathregular{1.0}$ -->
      <g transform="translate(219.559197 267.804104)scale(0.08 -0.08)">
       <defs>
        <path d="M 12.40625 8.296875 
L 28.515625 8.296875 
L 28.515625 63.921875 
L 10.984375 60.40625 
L 10.984375 69.390625 
L 28.421875 72.90625 
L 38.28125 72.90625 
L 38.28125 8.296875 
L 54.390625 8.296875 
L 54.390625 0 
L 12.40625 0 
z
" id="DejaVuSans-49"/>
       </defs>
       <use transform="translate(0 0.78125)" xlink:href="#DejaVuSans-49"/>
       <use transform="translate(63.623047 0.78125)" xlink:href="#DejaVuSans-46"/>
       <use transform="translate(95.410156 0.78125)" xlink:href="#DejaVuSans-48"/>
      </g>
     </g>
    </g>
    <g id="xtick_4">
     <g id="line2d_5">
      <g>
       <use style="stroke:#000000;stroke-width:0.5;" x="324.160598" xlink:href="#mb869857be4" y="258.225354"/>
      </g>
     </g>
     <g id="text_4">
      <!-- $\mathregular{1.5}$ -->
      <g transform="translate(317.760598 267.804104)scale(0.08 -0.08)">
       <use transform="translate(0 0.09375)" xlink:href="#DejaVuSans-49"/>
       <use transform="translate(63.623047 0.09375)" xlink:href="#DejaVuSans-46"/>
       <use transform="translate(95.410156 0.09375)" xlink:href="#DejaVuSans-53"/>
      </g>
     </g>
    </g>
    <g id="xtick_5">
     <g id="line2d_6">
      <g>
       <use style="stroke:#000000;stroke-width:0.5;" x="422.361999" xlink:href="#mb869857be4" y="258.225354"/>
      </g>
     </g>
     <g id="text_5">
      <!-- $\mathregular{2.0}$ -->
      <g transform="translate(415.961999 267.804104)scale(0.08 -0.08)">
       <defs>
        <path d="M 19.1875 8.296875 
L 53.609375 8.296875 
L 53.609375 0 
L 7.328125 0 
L 7.328125 8.296875 
Q 12.9375 14.109375 22.625 23.890625 
Q 32.328125 33.6875 34.8125 36.53125 
Q 39.546875 41.84375 41.421875 45.53125 
Q 43.3125 49.21875 43.3125 52.78125 
Q 43.3125 58.59375 39.234375 62.25 
Q 35.15625 65.921875 28.609375 65.921875 
Q 23.96875 65.921875 18.8125 64.3125 
Q 13.671875 62.703125 7.8125 59.421875 
L 7.8125 69.390625 
Q 13.765625 71.78125 18.9375 73 
Q 24.125 74.21875 28.421875 74.21875 
Q 39.75 74.21875 46.484375 68.546875 
Q 53.21875 62.890625 53.21875 53.421875 
Q 53.21875 48.921875 51.53125 44.890625 
Q 49.859375 40.875 45.40625 35.40625 
Q 44.1875 33.984375 37.640625 27.21875 
Q 31.109375 20.453125 19.1875 8.296875 
z
" id="DejaVuSans-50"/>
       </defs>
       <use transform="translate(0 0.78125)" xlink:href="#DejaVuSans-50"/>
       <use transform="translate(63.623047 0.78125)" xlink:href="#DejaVuSans-46"/>
       <use transform="translate(95.410156 0.78125)" xlink:href="#DejaVuSans-48"/>
      </g>
     </g>
    </g>
    <g id="text_6">
     <!-- Time (s) -->
     <g transform="translate(203.597401 281.826136)scale(0.11 -0.11)">
      <defs>
       <path d="M -0.296875 72.90625 
L 61.375 72.90625 
L 61.375 64.59375 
L 35.5 64.59375 
L 35.5 0 
L 25.59375 0 
L 25.59375 64.59375 
L -0.296875 64.59375 
z
" id="DejaVuSans-84"/>
       <path d="M 9.421875 54.6875 
L 18.40625 54.6875 
L 18.40625 0 
L 9.421875 0 
z
M 9.421875 75.984375 
L 18.40625 75.984375 
L 18.40625 64.59375 
L 9.421875 64.59375 
z
" id="DejaVuSans-105"/>
       <path d="M 52 44.1875 
Q 55.375 50.25 60.0625 53.125 
Q 64.75 56 71.09375 56 
Q 79.640625 56 84.28125 50.015625 
Q 88.921875 44.046875 88.921875 33.015625 
L 88.921875 0 
L 79.890625 0 
L 79.890625 32.71875 
Q 79.890625 40.578125 77.09375 44.375 
Q 74.3125 48.1875 68.609375 48.1875 
Q 61.625 48.1875 57.5625 43.546875 
Q 53.515625 38.921875 53.515625 30.90625 
L 53.515625 0 
L 44.484375 0 
L 44.484375 32.71875 
Q 44.484375 40.625 41.703125 44.40625 
Q 38.921875 48.1875 33.109375 48.1875 
Q 26.21875 48.1875 22.15625 43.53125 
Q 18.109375 38.875 18.109375 30.90625 
L 18.109375 0 
L 9.078125 0 
L 9.078125 54.6875 
L 18.109375 54.6875 
L 18.109375 46.1875 
Q 21.1875 51.21875 25.484375 53.609375 
Q 29.78125 56 35.6875 56 
Q 41.65625 56 45.828125 52.96875 
Q 50 49.953125 52 44.1875 
z
" id="DejaVuSans-109"/>
       <path d="M 56.203125 29.59375 
L 56.203125 25.203125 
L 14.890625 25.203125 
Q 15.484375 15.921875 20.484375 11.0625 
Q 25.484375 6.203125 34.421875 6.203125 
Q 39.59375 6.203125 44.453125 7.46875 
Q 49.3125 8.734375 54.109375 11.28125 
L 54.109375 2.78125 
Q 49.265625 0.734375 44.1875 -0.34375 
Q 39.109375 -1.421875 33.890625 -1.421875 
Q 20.796875 -1.421875 13.15625 6.1875 
Q 5.515625 13.8125 5.515625 26.8125 
Q 5.515625 40.234375 12.765625 48.109375 
Q 20.015625 56 32.328125 56 
Q 43.359375 56 49.78125 48.890625 
Q 56.203125 41.796875 56.203125 29.59375 
z
M 47.21875 32.234375 
Q 47.125 39.59375 43.09375 43.984375 
Q 39.0625 48.390625 32.421875 48.390625 
Q 24.90625 48.390625 20.390625 44.140625 
Q 15.875 39.890625 15.1875 32.171875 
z
" id="DejaVuSans-101"/>
       <path id="DejaVuSans-32"/>
       <path d="M 31 75.875 
Q 24.46875 64.65625 21.28125 53.65625 
Q 18.109375 42.671875 18.109375 31.390625 
Q 18.109375 20.125 21.3125 9.0625 
Q 24.515625 -2 31 -13.1875 
L 23.1875 -13.1875 
Q 15.875 -1.703125 12.234375 9.375 
Q 8.59375 20.453125 8.59375 31.390625 
Q 8.59375 42.28125 12.203125 53.3125 
Q 15.828125 64.359375 23.1875 75.875 
z
" id="DejaVuSans-40"/>
       <path d="M 44.28125 53.078125 
L 44.28125 44.578125 
Q 40.484375 46.53125 36.375 47.5 
Q 32.28125 48.484375 27.875 48.484375 
Q 21.1875 48.484375 17.84375 46.4375 
Q 14.5 44.390625 14.5 40.28125 
Q 14.5 37.15625 16.890625 35.375 
Q 19.28125 33.59375 26.515625 31.984375 
L 29.59375 31.296875 
Q 39.15625 29.25 43.1875 25.515625 
Q 47.21875 21.78125 47.21875 15.09375 
Q 47.21875 7.46875 41.1875 3.015625 
Q 35.15625 -1.421875 24.609375 -1.421875 
Q 20.21875 -1.421875 15.453125 -0.5625 
Q 10.6875 0.296875 5.421875 2 
L 5.421875 11.28125 
Q 10.40625 8.6875 15.234375 7.390625 
Q 20.0625 6.109375 24.8125 6.109375 
Q 31.15625 6.109375 34.5625 8.28125 
Q 37.984375 10.453125 37.984375 14.40625 
Q 37.984375 18.0625 35.515625 20.015625 
Q 33.0625 21.96875 24.703125 23.78125 
L 21.578125 24.515625 
Q 13.234375 26.265625 9.515625 29.90625 
Q 5.8125 33.546875 5.8125 39.890625 
Q 5.8125 47.609375 11.28125 51.796875 
Q 16.75 56 26.8125 56 
Q 31.78125 56 36.171875 55.265625 
Q 40.578125 54.546875 44.28125 53.078125 
z
" id="DejaVuSans-115"/>
       <path d="M 8.015625 75.875 
L 15.828125 75.875 
Q 23.140625 64.359375 26.78125 53.3125 
Q 30.421875 42.28125 30.421875 31.390625 
Q 30.421875 20.453125 26.78125 9.375 
Q 23.140625 -1.703125 15.828125 -13.1875 
L 8.015625 -13.1875 
Q 14.5 -2 17.703125 9.0625 
Q 20.90625 20.125 20.90625 31.390625 
Q 20.90625 42.671875 17.703125 53.65625 
Q 14.5 64.65625 8.015625 75.875 
z
" id="DejaVuSans-41"/>
      </defs>
      <use xlink:href="#DejaVuSans-84"/>
      <use x="57.958984" xlink:href="#DejaVuSans-105"/>
      <use x="85.742188" xlink:href="#DejaVuSans-109"/>
      <use x="183.154297" xlink:href="#DejaVuSans-101"/>
      <use x="244.677734" xlink:href="#DejaVuSans-32"/>
      <use x="276.464844" xlink:href="#DejaVuSans-40"/>
      <use x="315.478516" xlink:href="#DejaVuSans-115"/>
      <use x="367.578125" xlink:href="#DejaVuSans-41"/>
     </g>
    </g>
   </g>
   <g id="matplotlib.axis_2">
    <g id="ytick_1">
     <g id="line2d_7">
      <defs>
       <path d="M 0 0 
L 2.5 0 
" id="m165eb472d5" style="stroke:#000000;stroke-width:0.5;"/>
      </defs>
      <g>
       <use style="stroke:#000000;stroke-width:0.5;" x="29.556396" xlink:href="#m165eb472d5" y="250.997315"/>
      </g>
     </g>
     <g id="text_7">
      <!-- $\mathregular{0}$ -->
      <g transform="translate(20.936396 254.03669)scale(0.08 -0.08)">
       <use transform="translate(0 0.78125)" xlink:href="#DejaVuSans-48"/>
      </g>
     </g>
    </g>
    <g id="ytick_2">
     <g id="line2d_8">
      <g>
       <use style="stroke:#000000;stroke-width:0.5;" x="29.556396" xlink:href="#m165eb472d5" y="188.794586"/>
      </g>
     </g>
     <g id="text_8">
      <!-- $\mathregular{1}$ -->
      <g transform="translate(20.936396 191.833961)scale(0.08 -0.08)">
       <use transform="translate(0 0.09375)" xlink:href="#DejaVuSans-49"/>
      </g>
     </g>
    </g>
    <g id="ytick_3">
     <g id="line2d_9">
      <g>
       <use style="stroke:#000000;stroke-width:0.5;" x="29.556396" xlink:href="#m165eb472d5" y="126.591856"/>
      </g>
     </g>
     <g id="text_9">
      <!-- $\mathregular{2}$ -->
      <g transform="translate(20.936396 129.631231)scale(0.08 -0.08)">
       <use transform="translate(0 0.78125)" xlink:href="#DejaVuSans-50"/>
      </g>
     </g>
    </g>
    <g id="ytick_4">
     <g id="line2d_10">
      <g>
       <use style="stroke:#000000;stroke-width:0.5;" x="29.556396" xlink:href="#m165eb472d5" y="64.389126"/>
      </g>
     </g>
     <g id="text_10">
      <!-- $\mathregular{3}$ -->
      <g transform="translate(20.936396 67.428501)scale(0.08 -0.08)">
       <defs>
        <path d="M 40.578125 39.3125 
Q 47.65625 37.796875 51.625 33 
Q 55.609375 28.21875 55.609375 21.1875 
Q 55.609375 10.40625 48.1875 4.484375 
Q 40.765625 -1.421875 27.09375 -1.421875 
Q 22.515625 -1.421875 17.65625 -0.515625 
Q 12.796875 0.390625 7.625 2.203125 
L 7.625 11.71875 
Q 11.71875 9.328125 16.59375 8.109375 
Q 21.484375 6.890625 26.8125 6.890625 
Q 36.078125 6.890625 40.9375 10.546875 
Q 45.796875 14.203125 45.796875 21.1875 
Q 45.796875 27.640625 41.28125 31.265625 
Q 36.765625 34.90625 28.71875 34.90625 
L 20.21875 34.90625 
L 20.21875 43.015625 
L 29.109375 43.015625 
Q 36.375 43.015625 40.234375 45.921875 
Q 44.09375 48.828125 44.09375 54.296875 
Q 44.09375 59.90625 40.109375 62.90625 
Q 36.140625 65.921875 28.71875 65.921875 
Q 24.65625 65.921875 20.015625 65.03125 
Q 15.375 64.15625 9.8125 62.3125 
L 9.8125 71.09375 
Q 15.4375 72.65625 20.34375 73.4375 
Q 25.25 74.21875 29.59375 74.21875 
Q 40.828125 74.21875 47.359375 69.109375 
Q 53.90625 64.015625 53.90625 55.328125 
Q 53.90625 49.265625 50.4375 45.09375 
Q 46.96875 40.921875 40.578125 39.3125 
z
" id="DejaVuSans-51"/>
       </defs>
       <use transform="translate(0 0.78125)" xlink:href="#DejaVuSans-51"/>
      </g>
     </g>
    </g>
    <g id="text_11">
     <!-- $u_z$ ($m$) -->
     <g transform="translate(14.648739 147.635)rotate(-90)scale(0.11 -0.11)">
      <defs>
       <path d="M 6.6875 21.6875 
L 13.09375 54.6875 
L 22.125 54.6875 
L 15.71875 22.015625 
Q 15.234375 19.625 15.015625 17.921875 
Q 14.796875 16.21875 14.796875 15.09375 
Q 14.796875 10.9375 17.328125 8.65625 
Q 19.875 6.390625 24.515625 6.390625 
Q 31.734375 6.390625 37 11.265625 
Q 42.28125 16.15625 43.890625 24.421875 
L 49.90625 54.6875 
L 58.890625 54.6875 
L 48.296875 0 
L 39.3125 0 
L 41.109375 8.59375 
Q 37.3125 3.8125 32.0625 1.1875 
Q 26.8125 -1.421875 20.90625 -1.421875 
Q 13.71875 -1.421875 9.71875 2.515625 
Q 5.71875 6.453125 5.71875 13.484375 
Q 5.71875 14.9375 5.953125 17.140625 
Q 6.203125 19.34375 6.6875 21.6875 
z
" id="DejaVuSans-Oblique-117"/>
       <path d="M 11.625 54.6875 
L 54.296875 54.6875 
L 52.6875 46.484375 
L 11.53125 7.171875 
L 45.515625 7.171875 
L 44.09375 0 
L -0.296875 0 
L 1.3125 8.203125 
L 42.484375 47.515625 
L 10.203125 47.515625 
z
" id="DejaVuSans-Oblique-122"/>
       <path d="M 89.796875 33.015625 
L 83.40625 0 
L 74.421875 0 
L 80.71875 32.71875 
Q 81.109375 34.8125 81.296875 36.328125 
Q 81.5 37.84375 81.5 38.921875 
Q 81.5 43.3125 79.046875 45.75 
Q 76.609375 48.1875 72.21875 48.1875 
Q 65.671875 48.1875 60.546875 43.28125 
Q 55.421875 38.375 53.90625 30.515625 
L 47.90625 0 
L 38.921875 0 
L 45.3125 32.71875 
Q 45.703125 34.515625 45.890625 36.046875 
Q 46.09375 37.59375 46.09375 38.8125 
Q 46.09375 43.265625 43.65625 45.71875 
Q 41.21875 48.1875 36.921875 48.1875 
Q 30.28125 48.1875 25.140625 43.28125 
Q 20.015625 38.375 18.5 30.515625 
L 12.5 0 
L 3.515625 0 
L 14.203125 54.6875 
L 23.1875 54.6875 
L 21.484375 46.1875 
Q 25.140625 50.984375 30.046875 53.484375 
Q 34.96875 56 40.578125 56 
Q 46.53125 56 50.359375 52.875 
Q 54.203125 49.75 54.984375 44.1875 
Q 59.078125 49.953125 64.46875 52.96875 
Q 69.875 56 75.875 56 
Q 82.90625 56 86.734375 51.953125 
Q 90.578125 47.90625 90.578125 40.484375 
Q 90.578125 38.875 90.375 36.9375 
Q 90.1875 35.015625 89.796875 33.015625 
z
" id="DejaVuSans-Oblique-109"/>
      </defs>
      <use transform="translate(0 0.125)" xlink:href="#DejaVuSans-Oblique-117"/>
      <use transform="translate(63.378906 -16.28125)scale(0.7)" xlink:href="#DejaVuSans-Oblique-122"/>
      <use transform="translate(102.856445 0.125)" xlink:href="#DejaVuSans-32"/>
      <use transform="translate(134.643555 0.125)" xlink:href="#DejaVuSans-40"/>
      <use transform="translate(173.657227 0.125)" xlink:href="#DejaVuSans-Oblique-109"/>
      <use transform="translate(271.069336 0.125)" xlink:href="#DejaVuSans-41"/>
     </g>
    </g>
   </g>
   <g id="line2d_11">
    <path clip-path="url(#p39dde02f83)" d="M 29.556396 250.997315 
L 31.226411 250.887892 
L 32.519918 250.564892 
L 33.766783 250.019844 
L 34.921208 249.252646 
L 36.168716 248.102189 
L 37.57328 246.475156 
L 38.906917 244.573333 
L 40.167208 242.378193 
L 41.727004 239.195689 
L 43.328462 235.441318 
L 45.579579 229.496029 
L 48.052537 222.406026 
L 51.088922 212.91052 
L 56.423795 195.847132 
L 58.425565 190.304308 
L 60.356588 185.658004 
L 61.745168 182.800422 
L 63.05429 180.593291 
L 64.385609 178.800613 
L 65.675062 177.453456 
L 66.939785 176.500539 
L 68.43181 175.715107 
L 69.791647 175.271769 
L 70.804787 175.164084 
L 71.883705 175.271259 
L 73.054734 175.619669 
L 74.065397 176.142445 
L 75.120478 176.935711 
L 76.45428 178.235072 
L 77.788083 179.818088 
L 79.139351 181.770254 
L 80.837084 184.682211 
L 82.810324 188.544747 
L 87.259777 197.548846 
L 89.137069 200.772798 
L 90.878306 203.322558 
L 92.358714 205.203682 
L 93.576559 206.432857 
L 94.590795 207.185467 
L 95.630796 207.701309 
L 96.632368 207.91579 
L 97.562182 207.82565 
L 98.554383 207.433931 
L 99.56275 206.748848 
L 100.593997 205.733537 
L 101.651848 204.293837 
L 102.777238 202.297477 
L 104.15821 199.253501 
L 105.528076 195.59524 
L 107.303441 190.081009 
L 110.533732 179.153241 
L 114.863275 164.564328 
L 117.135109 157.582729 
L 119.166888 152.080569 
L 120.853531 148.146512 
L 122.419168 144.986768 
L 123.78281 142.63116 
L 124.734436 141.312949 
L 125.71487 140.289324 
L 126.730809 139.622153 
L 127.746748 139.405221 
L 128.254717 139.482297 
L 128.762687 139.690863 
L 129.722983 140.419951 
L 130.860994 141.781916 
L 131.889518 143.418661 
L 132.918042 145.421466 
L 134.289407 148.572724 
L 136.255539 153.726906 
L 142.527482 170.876693 
L 144.569209 175.482613 
L 147.102464 180.667276 
L 148.750903 183.554957 
L 150.507976 186.153932 
L 152.022771 187.934366 
L 153.238057 189.068006 
L 154.453343 189.948939 
L 155.263534 190.332486 
L 156.077552 190.493131 
L 156.827154 190.392475 
L 157.641546 189.986908 
L 158.330278 189.375231 
L 159.097092 188.369949 
L 159.828564 187.06876 
L 160.829634 184.749214 
L 161.94028 181.542277 
L 163.286322 176.936522 
L 164.856704 170.750978 
L 167.100108 160.865777 
L 173.750681 130.42773 
L 176.732806 119.046839 
L 180.702449 104.395983 
L 181.925087 100.579122 
L 182.852203 98.189975 
L 183.780283 96.314598 
L 184.720269 94.935339 
L 185.362802 94.263622 
L 186.147939 93.715669 
L 186.959712 93.443799 
L 187.790022 93.454579 
L 188.620332 93.729089 
L 189.578632 94.351884 
L 190.471735 95.222721 
L 191.327009 96.364663 
L 192.300287 98.096589 
L 193.377478 100.59745 
L 194.711122 104.415683 
L 196.864755 111.487507 
L 199.033314 119.251112 
L 200.346113 124.691263 
L 201.564122 130.686094 
L 203.103377 139.52793 
L 207.693756 166.982028 
L 209.582931 176.518985 
L 211.556029 185.331151 
L 213.085345 191.235434 
L 214.800196 196.977485 
L 216.006439 200.217963 
L 216.914299 201.997928 
L 217.823616 203.210816 
L 218.750389 204.024674 
L 220.388086 205.023836 
L 221.839268 206.028134 
L 224.237846 208.147487 
L 224.958135 208.314053 
L 225.592582 208.033689 
L 226.19615 207.343745 
L 226.963483 205.859494 
L 227.57384 204.190756 
L 228.29219 201.639538 
L 229.049715 198.226867 
L 230.06323 192.573684 
L 231.836881 180.988832 
L 234.067291 165.102048 
L 236.5733 145.487122 
L 238.751195 126.584254 
L 240.784506 109.612644 
L 242.771441 94.930116 
L 244.840869 81.438651 
L 247.615641 64.503681 
L 248.634545 59.501361 
L 249.686814 55.368185 
L 251.027369 51.074638 
L 256.869314 33.937045 
L 257.594566 32.68965 
L 257.975422 32.324201 
L 258.356278 32.160712 
L 258.737134 32.188912 
L 259.11799 32.390197 
L 259.879846 33.239269 
L 260.598322 34.532441 
L 261.38538 36.439864 
L 262.377631 39.483505 
L 264.019166 45.473075 
L 265.597583 52.045493 
L 266.916051 58.612366 
L 269.30486 72.00485 
L 271.607347 84.672434 
L 272.877193 90.27167 
L 278.206752 112.010709 
L 279.673428 118.00125 
L 280.610673 120.996392 
L 281.547918 123.207393 
L 282.49279 124.823854 
L 284.969602 128.606102 
L 285.853873 130.703019 
L 286.833549 133.769663 
L 289.450654 142.625741 
L 289.993858 143.759324 
L 290.541991 144.431819 
L 290.907414 144.57643 
L 291.282834 144.451602 
L 291.697671 143.964448 
L 292.154902 142.972801 
L 292.637158 141.402979 
L 293.382603 137.988775 
L 294.331375 132.337604 
L 296.96408 116.025591 
L 298.344661 109.189433 
L 300.870641 97.688143 
L 301.841233 91.689182 
L 305.312339 68.184313 
L 306.383557 63.009722 
L 307.302347 59.566646 
L 308.927781 54.376635 
L 309.477551 51.728004 
L 310.273106 46.459823 
L 313.793855 20.156098 
L 314.83034 14.293786 
L 315.558142 11.430884 
L 316.065185 10.330335 
L 316.414928 10.062685 
L 316.765442 10.180953 
L 317.124173 10.642001 
L 317.838471 12.180305 
L 318.943795 14.626482 
L 319.521752 15.402351 
L 320.134225 15.8004 
L 320.792916 15.896517 
L 321.975067 15.709598 
L 322.476161 15.507671 
L 323.01061 15.072075 
L 323.545058 14.352128 
L 324.740528 12.530463 
L 325.218716 12.332919 
L 325.464117 12.447759 
L 325.709518 12.725995 
L 326.149873 13.667375 
L 326.71253 15.691798 
L 327.412466 19.269437 
L 328.550762 26.552409 
L 332.829982 54.806317 
L 335.186003 67.676079 
L 337.296647 81.131589 
L 338.54625 90.814406 
L 339.947369 101.418996 
L 340.978812 107.423979 
L 343.052099 117.786792 
L 344.08647 122.052842 
L 345.866713 128.51356 
L 346.802137 133.520925 
L 347.948851 139.749426 
L 348.786768 142.994727 
L 350.276618 147.415816 
L 351.07231 149.400222 
L 351.61663 150.175141 
L 351.88879 150.273437 
L 352.16095 150.153313 
L 352.43311 149.818728 
L 352.943282 148.693992 
L 354.202141 145.216019 
L 354.622823 144.640819 
L 355.05155 144.479042 
L 356.165699 144.625091 
L 356.618274 144.252543 
L 357.297136 143.089295 
L 358.334958 141.175635 
L 358.754608 140.775751 
L 359.174257 140.717316 
L 360.311582 141.001371 
L 360.689204 140.591151 
L 361.127055 139.615811 
L 361.60736 137.902029 
L 363.336252 130.517082 
L 363.960706 129.344605 
L 364.644456 128.196212 
L 365.051941 127.006493 
L 365.663169 124.13256 
L 367.543753 113.656627 
L 368.233624 111.720558 
L 368.786397 110.160082 
L 369.347824 107.602873 
L 369.90925 103.808305 
L 371.464958 91.987303 
L 372.268459 88.059907 
L 372.909981 84.883424 
L 373.563308 80.360151 
L 375.960019 60.829203 
L 376.646895 57.96085 
L 377.815893 53.287645 
L 378.868254 48.750468 
L 379.395637 47.447878 
L 379.747225 47.084538 
L 380.098813 47.093079 
L 380.450401 47.413551 
L 381.701457 49.016252 
L 382.015968 49.017768 
L 382.355289 48.762901 
L 383.629747 47.432713 
L 384.14964 47.267043 
L 384.474038 47.330703 
L 384.832378 47.642314 
L 385.391476 48.573213 
L 385.967529 49.394263 
L 386.460299 49.612231 
L 387.02331 49.733343 
L 387.661019 50.139019 
L 388.09216 50.591893 
L 388.523301 51.354098 
L 388.954442 52.654476 
L 390.90225 59.88917 
L 392.450284 64.406896 
L 393.148363 67.878522 
L 394.126695 74.373003 
L 395.68706 84.629149 
L 396.657116 91.161615 
L 397.522224 98.591994 
L 398.879617 110.78084 
L 399.756337 116.529213 
L 401.173675 124.534396 
L 402.090648 131.921536 
L 403.387539 142.902839 
L 404.293899 148.748709 
L 405.06651 153.696147 
L 405.993643 161.197095 
L 407.077155 170.114856 
L 407.74973 174.251302 
L 408.68628 178.194675 
L 409.480466 181.973091 
L 410.088915 185.895386 
L 411.337033 194.396742 
L 412.324559 199.517288 
L 413.99205 207.504781 
L 414.912271 211.877053 
L 415.487537 213.703743 
L 415.871085 214.245248 
L 416.265415 214.314276 
L 416.663003 214.076499 
L 417.960135 212.792545 
L 418.307203 212.87851 
L 419.043454 213.357695 
L 419.418599 213.275765 
L 419.793743 212.755696 
L 420.365807 211.401257 
L 420.944127 209.327204 
L 421.90931 205.276387 
L 422.361999 204.194582 
L 422.361999 204.194582 
" style="fill:none;stroke:#e36f47;"/>
   </g>
   <g id="patch_3">
    <path d="M 29.556396 258.225354 
L 29.556396 2.834646 
" style="fill:none;stroke:#000000;stroke-linecap:square;stroke-linejoin:miter;"/>
   </g>
   <g id="patch_4">
    <path d="M 29.556396 258.225354 
L 422.361999 258.225354 
" style="fill:none;stroke:#000000;stroke-linecap:square;stroke-linejoin:miter;"/>
   </g>
   <g id="legend_1">
    <g id="patch_5">
     <path d="M 299.041999 39.119646 
L 418.361999 39.119646 
L 418.361999 6.834646 
L 299.041999 6.834646 
z
" style="fill:#ffffff;stroke:#000000;stroke-linejoin:miter;"/>
    </g>
    <g id="line2d_12">
     <path d="M 305.441999 16.513396 
L 321.441999 16.513396 
" style="fill:none;stroke:#009afa;stroke-linejoin:miter;"/>
    </g>
    <g id="line2d_13"/>
    <g id="text_12">
     <!-- GXBeam -->
     <g transform="translate(327.841999 19.313396)scale(0.08 -0.08)">
      <defs>
       <path d="M 59.515625 10.40625 
L 59.515625 29.984375 
L 43.40625 29.984375 
L 43.40625 38.09375 
L 69.28125 38.09375 
L 69.28125 6.78125 
Q 63.578125 2.734375 56.6875 0.65625 
Q 49.8125 -1.421875 42 -1.421875 
Q 24.90625 -1.421875 15.25 8.5625 
Q 5.609375 18.5625 5.609375 36.375 
Q 5.609375 54.25 15.25 64.234375 
Q 24.90625 74.21875 42 74.21875 
Q 49.125 74.21875 55.546875 72.453125 
Q 61.96875 70.703125 67.390625 67.28125 
L 67.390625 56.78125 
Q 61.921875 61.421875 55.765625 63.765625 
Q 49.609375 66.109375 42.828125 66.109375 
Q 29.4375 66.109375 22.71875 58.640625 
Q 16.015625 51.171875 16.015625 36.375 
Q 16.015625 21.625 22.71875 14.15625 
Q 29.4375 6.6875 42.828125 6.6875 
Q 48.046875 6.6875 52.140625 7.59375 
Q 56.25 8.5 59.515625 10.40625 
z
" id="DejaVuSans-71"/>
       <path d="M 6.296875 72.90625 
L 16.890625 72.90625 
L 35.015625 45.796875 
L 53.21875 72.90625 
L 63.8125 72.90625 
L 40.375 37.890625 
L 65.375 0 
L 54.78125 0 
L 34.28125 31 
L 13.625 0 
L 2.984375 0 
L 29 38.921875 
z
" id="DejaVuSans-88"/>
       <path d="M 19.671875 34.8125 
L 19.671875 8.109375 
L 35.5 8.109375 
Q 43.453125 8.109375 47.28125 11.40625 
Q 51.125 14.703125 51.125 21.484375 
Q 51.125 28.328125 47.28125 31.5625 
Q 43.453125 34.8125 35.5 34.8125 
z
M 19.671875 64.796875 
L 19.671875 42.828125 
L 34.28125 42.828125 
Q 41.5 42.828125 45.03125 45.53125 
Q 48.578125 48.25 48.578125 53.8125 
Q 48.578125 59.328125 45.03125 62.0625 
Q 41.5 64.796875 34.28125 64.796875 
z
M 9.8125 72.90625 
L 35.015625 72.90625 
Q 46.296875 72.90625 52.390625 68.21875 
Q 58.5 63.53125 58.5 54.890625 
Q 58.5 48.1875 55.375 44.234375 
Q 52.25 40.28125 46.1875 39.3125 
Q 53.46875 37.75 57.5 32.78125 
Q 61.53125 27.828125 61.53125 20.40625 
Q 61.53125 10.640625 54.890625 5.3125 
Q 48.25 0 35.984375 0 
L 9.8125 0 
z
" id="DejaVuSans-66"/>
       <path d="M 34.28125 27.484375 
Q 23.390625 27.484375 19.1875 25 
Q 14.984375 22.515625 14.984375 16.5 
Q 14.984375 11.71875 18.140625 8.90625 
Q 21.296875 6.109375 26.703125 6.109375 
Q 34.1875 6.109375 38.703125 11.40625 
Q 43.21875 16.703125 43.21875 25.484375 
L 43.21875 27.484375 
z
M 52.203125 31.203125 
L 52.203125 0 
L 43.21875 0 
L 43.21875 8.296875 
Q 40.140625 3.328125 35.546875 0.953125 
Q 30.953125 -1.421875 24.3125 -1.421875 
Q 15.921875 -1.421875 10.953125 3.296875 
Q 6 8.015625 6 15.921875 
Q 6 25.140625 12.171875 29.828125 
Q 18.359375 34.515625 30.609375 34.515625 
L 43.21875 34.515625 
L 43.21875 35.40625 
Q 43.21875 41.609375 39.140625 45 
Q 35.0625 48.390625 27.6875 48.390625 
Q 23 48.390625 18.546875 47.265625 
Q 14.109375 46.140625 10.015625 43.890625 
L 10.015625 52.203125 
Q 14.9375 54.109375 19.578125 55.046875 
Q 24.21875 56 28.609375 56 
Q 40.484375 56 46.34375 49.84375 
Q 52.203125 43.703125 52.203125 31.203125 
z
" id="DejaVuSans-97"/>
      </defs>
      <use xlink:href="#DejaVuSans-71"/>
      <use x="77.490234" xlink:href="#DejaVuSans-88"/>
      <use x="145.996094" xlink:href="#DejaVuSans-66"/>
      <use x="214.599609" xlink:href="#DejaVuSans-101"/>
      <use x="276.123047" xlink:href="#DejaVuSans-97"/>
      <use x="337.402344" xlink:href="#DejaVuSans-109"/>
     </g>
    </g>
    <g id="line2d_14">
     <path d="M 305.441999 28.255896 
L 321.441999 28.255896 
" style="fill:none;stroke:#e36f47;stroke-linejoin:miter;"/>
    </g>
    <g id="line2d_15"/>
    <g id="text_13">
     <!-- DifferentialEquations -->
     <g transform="translate(327.841999 31.055896)scale(0.08 -0.08)">
      <defs>
       <path d="M 19.671875 64.796875 
L 19.671875 8.109375 
L 31.59375 8.109375 
Q 46.6875 8.109375 53.6875 14.9375 
Q 60.6875 21.78125 60.6875 36.53125 
Q 60.6875 51.171875 53.6875 57.984375 
Q 46.6875 64.796875 31.59375 64.796875 
z
M 9.8125 72.90625 
L 30.078125 72.90625 
Q 51.265625 72.90625 61.171875 64.09375 
Q 71.09375 55.28125 71.09375 36.53125 
Q 71.09375 17.671875 61.125 8.828125 
Q 51.171875 0 30.078125 0 
L 9.8125 0 
z
" id="DejaVuSans-68"/>
       <path d="M 37.109375 75.984375 
L 37.109375 68.5 
L 28.515625 68.5 
Q 23.6875 68.5 21.796875 66.546875 
Q 19.921875 64.59375 19.921875 59.515625 
L 19.921875 54.6875 
L 34.71875 54.6875 
L 34.71875 47.703125 
L 19.921875 47.703125 
L 19.921875 0 
L 10.890625 0 
L 10.890625 47.703125 
L 2.296875 47.703125 
L 2.296875 54.6875 
L 10.890625 54.6875 
L 10.890625 58.5 
Q 10.890625 67.625 15.140625 71.796875 
Q 19.390625 75.984375 28.609375 75.984375 
z
" id="DejaVuSans-102"/>
       <path d="M 41.109375 46.296875 
Q 39.59375 47.171875 37.8125 47.578125 
Q 36.03125 48 33.890625 48 
Q 26.265625 48 22.1875 43.046875 
Q 18.109375 38.09375 18.109375 28.8125 
L 18.109375 0 
L 9.078125 0 
L 9.078125 54.6875 
L 18.109375 54.6875 
L 18.109375 46.1875 
Q 20.953125 51.171875 25.484375 53.578125 
Q 30.03125 56 36.53125 56 
Q 37.453125 56 38.578125 55.875 
Q 39.703125 55.765625 41.0625 55.515625 
z
" id="DejaVuSans-114"/>
       <path d="M 54.890625 33.015625 
L 54.890625 0 
L 45.90625 0 
L 45.90625 32.71875 
Q 45.90625 40.484375 42.875 44.328125 
Q 39.84375 48.1875 33.796875 48.1875 
Q 26.515625 48.1875 22.3125 43.546875 
Q 18.109375 38.921875 18.109375 30.90625 
L 18.109375 0 
L 9.078125 0 
L 9.078125 54.6875 
L 18.109375 54.6875 
L 18.109375 46.1875 
Q 21.34375 51.125 25.703125 53.5625 
Q 30.078125 56 35.796875 56 
Q 45.21875 56 50.046875 50.171875 
Q 54.890625 44.34375 54.890625 33.015625 
z
" id="DejaVuSans-110"/>
       <path d="M 18.3125 70.21875 
L 18.3125 54.6875 
L 36.8125 54.6875 
L 36.8125 47.703125 
L 18.3125 47.703125 
L 18.3125 18.015625 
Q 18.3125 11.328125 20.140625 9.421875 
Q 21.96875 7.515625 27.59375 7.515625 
L 36.8125 7.515625 
L 36.8125 0 
L 27.59375 0 
Q 17.1875 0 13.234375 3.875 
Q 9.28125 7.765625 9.28125 18.015625 
L 9.28125 47.703125 
L 2.6875 47.703125 
L 2.6875 54.6875 
L 9.28125 54.6875 
L 9.28125 70.21875 
z
" id="DejaVuSans-116"/>
       <path d="M 9.421875 75.984375 
L 18.40625 75.984375 
L 18.40625 0 
L 9.421875 0 
z
" id="DejaVuSans-108"/>
       <path d="M 9.8125 72.90625 
L 55.90625 72.90625 
L 55.90625 64.59375 
L 19.671875 64.59375 
L 19.671875 43.015625 
L 54.390625 43.015625 
L 54.390625 34.71875 
L 19.671875 34.71875 
L 19.671875 8.296875 
L 56.78125 8.296875 
L 56.78125 0 
L 9.8125 0 
z
" id="DejaVuSans-69"/>
       <path d="M 14.796875 27.296875 
Q 14.796875 17.390625 18.875 11.75 
Q 22.953125 6.109375 30.078125 6.109375 
Q 37.203125 6.109375 41.296875 11.75 
Q 45.40625 17.390625 45.40625 27.296875 
Q 45.40625 37.203125 41.296875 42.84375 
Q 37.203125 48.484375 30.078125 48.484375 
Q 22.953125 48.484375 18.875 42.84375 
Q 14.796875 37.203125 14.796875 27.296875 
z
M 45.40625 8.203125 
Q 42.578125 3.328125 38.25 0.953125 
Q 33.9375 -1.421875 27.875 -1.421875 
Q 17.96875 -1.421875 11.734375 6.484375 
Q 5.515625 14.40625 5.515625 27.296875 
Q 5.515625 40.1875 11.734375 48.09375 
Q 17.96875 56 27.875 56 
Q 33.9375 56 38.25 53.625 
Q 42.578125 51.265625 45.40625 46.390625 
L 45.40625 54.6875 
L 54.390625 54.6875 
L 54.390625 -20.796875 
L 45.40625 -20.796875 
z
" id="DejaVuSans-113"/>
       <path d="M 8.5 21.578125 
L 8.5 54.6875 
L 17.484375 54.6875 
L 17.484375 21.921875 
Q 17.484375 14.15625 20.5 10.265625 
Q 23.53125 6.390625 29.59375 6.390625 
Q 36.859375 6.390625 41.078125 11.03125 
Q 45.3125 15.671875 45.3125 23.6875 
L 45.3125 54.6875 
L 54.296875 54.6875 
L 54.296875 0 
L 45.3125 0 
L 45.3125 8.40625 
Q 42.046875 3.421875 37.71875 1 
Q 33.40625 -1.421875 27.6875 -1.421875 
Q 18.265625 -1.421875 13.375 4.4375 
Q 8.5 10.296875 8.5 21.578125 
z
M 31.109375 56 
z
" id="DejaVuSans-117"/>
       <path d="M 30.609375 48.390625 
Q 23.390625 48.390625 19.1875 42.75 
Q 14.984375 37.109375 14.984375 27.296875 
Q 14.984375 17.484375 19.15625 11.84375 
Q 23.34375 6.203125 30.609375 6.203125 
Q 37.796875 6.203125 41.984375 11.859375 
Q 46.1875 17.53125 46.1875 27.296875 
Q 46.1875 37.015625 41.984375 42.703125 
Q 37.796875 48.390625 30.609375 48.390625 
z
M 30.609375 56 
Q 42.328125 56 49.015625 48.375 
Q 55.71875 40.765625 55.71875 27.296875 
Q 55.71875 13.875 49.015625 6.21875 
Q 42.328125 -1.421875 30.609375 -1.421875 
Q 18.84375 -1.421875 12.171875 6.21875 
Q 5.515625 13.875 5.515625 27.296875 
Q 5.515625 40.765625 12.171875 48.375 
Q 18.84375 56 30.609375 56 
z
" id="DejaVuSans-111"/>
      </defs>
      <use xlink:href="#DejaVuSans-68"/>
      <use x="77.001953" xlink:href="#DejaVuSans-105"/>
      <use x="104.785156" xlink:href="#DejaVuSans-102"/>
      <use x="139.990234" xlink:href="#DejaVuSans-102"/>
      <use x="175.195312" xlink:href="#DejaVuSans-101"/>
      <use x="236.71875" xlink:href="#DejaVuSans-114"/>
      <use x="275.582031" xlink:href="#DejaVuSans-101"/>
      <use x="337.105469" xlink:href="#DejaVuSans-110"/>
      <use x="400.484375" xlink:href="#DejaVuSans-116"/>
      <use x="439.693359" xlink:href="#DejaVuSans-105"/>
      <use x="467.476562" xlink:href="#DejaVuSans-97"/>
      <use x="528.755859" xlink:href="#DejaVuSans-108"/>
      <use x="556.539062" xlink:href="#DejaVuSans-69"/>
      <use x="619.722656" xlink:href="#DejaVuSans-113"/>
      <use x="683.199219" xlink:href="#DejaVuSans-117"/>
      <use x="746.578125" xlink:href="#DejaVuSans-97"/>
      <use x="807.857422" xlink:href="#DejaVuSans-116"/>
      <use x="847.066406" xlink:href="#DejaVuSans-105"/>
      <use x="874.849609" xlink:href="#DejaVuSans-111"/>
      <use x="936.03125" xlink:href="#DejaVuSans-110"/>
      <use x="999.410156" xlink:href="#DejaVuSans-115"/>
     </g>
    </g>
   </g>
  </g>
 </g>
 <defs>
  <clipPath id="p39dde02f83">
   <rect height="255.390709" width="392.805604" x="29.556396" y="2.834646"/>
  </clipPath>
 </defs>
</svg>
