<?xml version="1.0" encoding="utf-8" standalone="no"?>
<!DOCTYPE svg PUBLIC "-//W3C//DTD SVG 1.1//EN"
  "http://www.w3.org/Graphics/SVG/1.1/DTD/svg11.dtd">
<!-- Created with matplotlib (https://matplotlib.org/) -->
<svg height="288pt" version="1.1" viewBox="0 0 432 288" width="432pt" xmlns="http://www.w3.org/2000/svg" xmlns:xlink="http://www.w3.org/1999/xlink">
 <metadata>
  <rdf:RDF xmlns:cc="http://creativecommons.org/ns#" xmlns:dc="http://purl.org/dc/elements/1.1/" xmlns:rdf="http://www.w3.org/1999/02/22-rdf-syntax-ns#">
   <cc:Work>
    <dc:type rdf:resource="http://purl.org/dc/dcmitype/StillImage"/>
    <dc:date>2021-07-12T15:34:16.050671</dc:date>
    <dc:format>image/svg+xml</dc:format>
    <dc:creator>
     <cc:Agent>
      <dc:title>Matplotlib v3.3.4, https://matplotlib.org/</dc:title>
     </cc:Agent>
    </dc:creator>
   </cc:Work>
  </rdf:RDF>
 </metadata>
 <defs>
  <style type="text/css">*{stroke-linecap:butt;stroke-linejoin:round;}</style>
 </defs>
 <g id="figure_1">
  <g id="patch_1">
   <path d="M 0 288 
L 432 288 
L 432 0 
L 0 0 
z
" style="fill:#ffffff;"/>
  </g>
  <g id="axes_1">
   <g id="patch_2">
    <path d="M 42.933593 258.225354 
L 422.361999 258.225354 
L 422.361999 2.834646 
L 42.933593 2.834646 
z
" style="fill:#ffffff;"/>
   </g>
   <g id="line2d_1">
    <path clip-path="url(#p59ae97db63)" d="M 42.933593 106.862696 
L 43.69245 106.951833 
L 44.641021 107.253384 
L 45.96902 108.132003 
L 47.297019 109.371568 
L 48.435305 110.860207 
L 50.901589 114.952073 
L 52.419303 117.870553 
L 54.506159 122.775179 
L 56.78273 128.626967 
L 58.679872 133.361169 
L 61.905013 140.416182 
L 67.027297 151.0251 
L 68.355296 152.832532 
L 69.493581 154.036666 
L 70.252438 154.573137 
L 71.201009 154.944741 
L 72.529008 155.067281 
L 73.667294 154.874233 
L 74.236436 154.558978 
L 74.995293 153.906482 
L 75.943864 152.718359 
L 77.271863 150.732884 
L 78.410149 148.752155 
L 81.445576 143.332633 
L 83.342718 140.20879 
L 87.137002 133.264509 
L 89.223858 129.098248 
L 91.121 125.324588 
L 94.535856 117.607063 
L 96.812426 112.292792 
L 98.140426 109.999392 
L 99.658139 107.929373 
L 100.796425 106.808026 
L 102.314138 105.809014 
L 104.590709 104.555324 
L 105.159851 104.467755 
L 106.108422 104.563813 
L 107.246708 104.983866 
L 108.005564 105.486076 
L 108.764421 106.218742 
L 109.902706 107.804568 
L 111.42042 110.383292 
L 112.558705 112.766408 
L 113.696991 115.842669 
L 115.02499 120.152377 
L 116.352989 125.119764 
L 118.439846 134.115204 
L 120.716416 143.345485 
L 122.423844 149.584655 
L 123.941557 154.222604 
L 125.8387 159.148345 
L 126.787271 161.130373 
L 127.735842 162.583709 
L 128.684413 163.624643 
L 129.822698 164.557779 
L 130.771269 165.049266 
L 131.71984 165.253043 
L 133.806696 165.441204 
L 134.565553 165.341875 
L 135.32441 164.987876 
L 135.893552 164.450506 
L 136.652409 163.430993 
L 137.411266 162.018532 
L 138.170123 160.229147 
L 139.118694 157.290149 
L 140.067265 153.653741 
L 141.964407 145.268451 
L 144.051263 135.207768 
L 148.035261 115.800614 
L 149.552975 109.242945 
L 150.880974 104.604259 
L 152.398688 100.210994 
L 153.726687 97.12923 
L 156.192972 92.367399 
L 157.331257 90.53346 
L 158.090114 89.633688 
L 159.038685 88.892141 
L 159.797542 88.524742 
L 160.746113 88.314805 
L 161.50497 88.400974 
L 162.643255 88.807638 
L 165.299254 90.139601 
L 166.058111 90.969048 
L 166.816967 92.167686 
L 167.575824 93.785935 
L 168.524395 96.436931 
L 169.472966 99.910133 
L 170.611251 105.1028 
L 172.887822 117.064826 
L 175.354107 131.192055 
L 177.820391 146.525194 
L 180.666104 164.527311 
L 182.563246 174.696225 
L 184.270674 182.736522 
L 186.736959 193.195208 
L 187.875244 197.353301 
L 188.823815 200.049278 
L 189.582672 201.601738 
L 190.151814 202.406796 
L 190.720957 202.892873 
L 191.2901 203.044877 
L 191.859242 202.878909 
L 192.428385 202.451739 
L 193.376956 201.329819 
L 195.843241 197.907598 
L 196.602097 196.488382 
L 197.550668 194.143504 
L 198.499239 191.047484 
L 199.44781 187.158382 
L 200.396381 182.229058 
L 201.534667 174.909447 
L 204.570094 154.423278 
L 206.846664 141.494268 
L 208.364378 132.639404 
L 209.502663 124.487893 
L 213.296947 95.720295 
L 214.814661 86.164724 
L 219.936944 57.42889 
L 220.885515 54.042173 
L 221.644372 52.024346 
L 222.213515 50.918868 
L 222.782657 50.301552 
L 223.162086 50.203458 
L 223.541514 50.351092 
L 223.920943 50.712813 
L 224.490085 51.594604 
L 226.007799 54.221589 
L 226.766656 55.063729 
L 227.335798 55.425709 
L 227.904941 55.580422 
L 228.284369 55.530604 
L 228.663798 55.331906 
L 229.23294 54.683886 
L 229.802083 53.609927 
L 231.699225 49.384145 
L 232.078653 49.089811 
L 232.458082 49.118072 
L 232.83751 49.468919 
L 233.406653 50.531204 
L 233.975795 52.149127 
L 234.734652 55.170945 
L 235.493509 59.45812 
L 236.252366 65.153819 
L 241.184935 107.884777 
L 243.65122 132.719269 
L 246.117504 159.050508 
L 247.066075 166.206633 
L 248.773503 176.814413 
L 250.291217 185.320117 
L 251.80893 193.760743 
L 254.275215 209.131648 
L 254.844358 211.179878 
L 255.603215 212.940442 
L 256.931214 215.556207 
L 260.156355 223.135155 
L 260.915212 225.815761 
L 262.243212 230.811572 
L 262.62264 231.543971 
L 263.002068 231.731144 
L 263.191783 231.596245 
L 263.571211 230.853039 
L 264.140354 228.706757 
L 265.088925 223.504996 
L 271.539208 185.840962 
L 272.487779 177.679606 
L 274.574635 158.822904 
L 276.282063 145.690834 
L 277.04092 141.170866 
L 277.799776 137.906486 
L 279.507204 131.773357 
L 280.266061 127.876235 
L 284.060345 106.592331 
L 284.629488 104.532568 
L 285.008916 103.66507 
L 285.388344 103.236445 
L 285.578059 103.201777 
L 285.957487 103.506626 
L 286.336915 104.238064 
L 286.906058 105.89163 
L 288.8032 112.034214 
L 289.372343 113.091157 
L 289.751771 113.408471 
L 290.1312 113.379248 
L 290.510628 112.924267 
L 290.890056 111.978754 
L 291.459199 109.669034 
L 292.028342 106.171271 
L 292.787198 99.926666 
L 294.68434 83.170011 
L 295.253483 80.013602 
L 295.632911 78.741757 
L 296.01234 78.205002 
L 296.202054 78.241071 
L 296.391768 78.485989 
L 296.771197 79.604777 
L 297.150625 81.586558 
L 297.719768 86.160917 
L 298.478624 94.580847 
L 299.996338 112.237404 
L 300.755195 118.325786 
L 301.514052 122.517142 
L 302.272909 125.494307 
L 303.031765 127.686404 
L 304.170051 130.587343 
L 304.739193 132.954627 
L 305.308336 136.699317 
L 305.877478 141.967658 
L 306.636335 151.190324 
L 308.154049 170.491757 
L 308.912906 176.956279 
L 309.482048 180.064147 
L 310.051191 182.114113 
L 310.620334 183.43341 
L 310.999762 183.820106 
L 311.37919 183.762447 
L 311.758619 183.335119 
L 312.327761 182.484718 
L 312.517476 182.387386 
L 312.70719 182.500124 
L 312.896904 182.885402 
L 313.276332 184.648422 
L 313.655761 187.89415 
L 314.224903 195.336154 
L 316.31176 226.649997 
L 317.260331 236.212134 
L 318.398616 245.639087 
L 318.967758 249.109262 
L 319.347187 250.286681 
L 319.536901 250.399218 
L 319.726615 250.154473 
L 320.106044 248.55154 
L 320.485472 245.571519 
L 321.434043 234.931151 
L 322.1929 227.705861 
L 322.572328 225.542193 
L 322.951757 224.375625 
L 323.331185 224.057275 
L 323.710614 224.280691 
L 324.279756 225.054709 
L 325.038613 226.122766 
L 325.607756 226.57804 
L 326.176898 226.887759 
L 326.556327 227.573902 
L 326.935755 228.994912 
L 327.504898 232.472852 
L 328.263754 237.34858 
L 328.643183 238.658962 
L 328.832897 238.864498 
L 329.022611 238.723693 
L 329.212325 238.240304 
L 329.591754 236.269756 
L 330.160896 231.176984 
L 331.299182 217.322168 
L 332.627181 201.199672 
L 335.662608 168.265388 
L 336.421465 163.939295 
L 337.55975 158.048544 
L 340.405463 140.815477 
L 340.974606 135.581895 
L 342.871748 116.241227 
L 343.440891 113.318429 
L 344.76889 107.536685 
L 346.855746 95.664361 
L 347.994032 92.275579 
L 348.37346 90.401728 
L 348.752888 87.720944 
L 349.322031 81.92199 
L 350.270602 71.927142 
L 350.65003 69.641074 
L 351.029459 68.517579 
L 351.219173 68.348989 
L 351.408887 68.417088 
L 351.788316 69.087908 
L 352.357458 70.219904 
L 352.547172 70.312327 
L 352.736887 70.181491 
L 353.116315 69.229897 
L 354.064886 65.977301 
L 354.2546 65.749559 
L 354.444314 65.797182 
L 354.634029 66.156903 
L 355.013457 67.904053 
L 355.5826 72.67638 
L 356.531171 81.226403 
L 356.910599 82.949723 
L 357.100313 83.186749 
L 357.290028 82.966159 
L 357.669456 81.281525 
L 358.428313 76.255265 
L 358.618027 75.596189 
L 358.807741 75.376974 
L 358.997455 75.590418 
L 359.376884 77.129428 
L 359.946026 81.267994 
L 360.894597 88.927334 
L 361.084312 89.614682 
L 361.274026 89.73152 
L 361.46374 89.276842 
L 361.843168 87.00374 
L 362.602025 81.311406 
L 362.981454 79.991411 
L 363.171168 79.865086 
L 363.360882 80.073305 
L 363.550596 80.621088 
L 363.930025 82.771459 
L 364.499167 88.251592 
L 365.06831 93.415413 
L 365.258024 94.288672 
L 365.447738 94.621388 
L 365.637452 94.432187 
L 366.016881 92.80011 
L 366.965452 86.594748 
L 367.155166 86.027003 
L 367.34488 85.952538 
L 367.534594 86.445146 
L 367.914023 89.138795 
L 368.483165 96.388432 
L 369.242022 106.116179 
L 369.621451 108.590244 
L 369.811165 109.157474 
L 370.000879 109.334139 
L 370.190593 109.18636 
L 370.759736 108.259179 
L 370.94945 108.411427 
L 371.139164 109.045067 
L 371.518593 111.96369 
L 372.087735 120.145199 
L 373.226021 138.931562 
L 373.605449 142.239843 
L 373.984877 143.450758 
L 374.174592 143.457041 
L 374.55402 143.203938 
L 374.743734 143.362203 
L 374.933448 143.893428 
L 375.312877 146.287571 
L 375.692305 150.755911 
L 376.261448 161.345891 
L 377.020305 175.807615 
L 377.589447 182.490764 
L 377.968876 184.546152 
L 378.348304 185.15284 
L 378.727732 185.51192 
L 378.917447 186.013801 
L 379.296875 188.067035 
L 379.866018 193.500763 
L 381.194017 208.967198 
L 381.573446 210.421063 
L 381.76316 210.40429 
L 381.952874 209.96024 
L 382.332302 208.101018 
L 383.091159 202.372053 
L 383.660302 198.823162 
L 383.850016 198.529981 
L 384.03973 198.865489 
L 384.419159 201.127861 
L 384.988301 205.287559 
L 385.36773 206.437399 
L 385.557444 206.505076 
L 386.316301 206.070811 
L 386.506015 205.870812 
L 386.695729 205.438815 
L 387.075157 203.572312 
L 387.6443 199.809224 
L 387.834014 199.210896 
L 388.023728 199.259239 
L 388.213443 199.984753 
L 388.782585 204.459769 
L 389.351728 208.118518 
L 390.490013 212.628415 
L 390.679727 212.689372 
L 390.869441 212.21603 
L 391.24887 209.714311 
L 391.818013 205.18799 
L 392.007727 204.468237 
L 392.197441 204.260744 
L 392.387155 204.441622 
L 392.956298 205.364311 
L 393.146012 205.309102 
L 393.52544 204.504369 
L 394.094583 202.519629 
L 394.474011 200.156346 
L 394.85344 195.923385 
L 396.750582 169.66202 
L 397.319724 165.653839 
L 397.888867 162.34891 
L 398.647724 155.938269 
L 399.406581 147.757124 
L 400.165437 138.72278 
L 400.544866 137.159433 
L 400.73458 137.072421 
L 401.303723 137.10382 
L 401.683151 137.049105 
L 401.872865 137.071717 
L 402.062579 136.94431 
L 402.252294 136.396978 
L 402.442008 135.149695 
L 402.821436 130.328315 
L 404.528864 103.034844 
L 404.908293 100.574813 
L 405.477435 97.945739 
L 406.236292 93.725449 
L 406.61572 89.339384 
L 407.564291 74.820896 
L 408.323148 66.727132 
L 408.512862 65.98371 
L 408.702577 65.920767 
L 409.082005 66.860865 
L 409.840862 68.803438 
L 410.030576 69.064073 
L 410.22029 68.924931 
L 410.410004 68.146051 
L 410.789433 64.366412 
L 412.307146 43.46526 
L 412.876289 38.83451 
L 413.255717 37.321653 
L 413.82486 36.020351 
L 414.204288 33.840614 
L 414.963145 25.61284 
L 416.291145 11.24135 
L 416.480859 10.751376 
L 416.670573 11.118259 
L 417.050002 13.722581 
L 417.998573 22.876654 
L 418.567715 28.550443 
L 418.947144 30.249169 
L 419.136858 30.359427 
L 419.326572 30.109352 
L 419.895715 28.805442 
L 420.085429 28.695339 
L 420.275143 28.90049 
L 420.654571 30.220866 
L 421.034 32.523395 
L 421.603142 37.747643 
L 422.361999 47.405025 
L 422.361999 47.405025 
" style="fill:none;stroke:#009afa;"/>
   </g>
   <g id="matplotlib.axis_1">
    <g id="xtick_1">
     <g id="line2d_2">
      <defs>
       <path d="M 0 0 
L 0 -2.5 
" id="m1c47f6aae4" style="stroke:#000000;stroke-width:0.5;"/>
      </defs>
      <g>
       <use style="stroke:#000000;stroke-width:0.5;" x="42.933593" xlink:href="#m1c47f6aae4" y="258.225354"/>
      </g>
     </g>
     <g id="text_1">
      <!-- $\mathregular{0.0}$ -->
      <g transform="translate(36.533593 267.804104)scale(0.08 -0.08)">
       <defs>
        <path d="M 31.78125 66.40625 
Q 24.171875 66.40625 20.328125 58.90625 
Q 16.5 51.421875 16.5 36.375 
Q 16.5 21.390625 20.328125 13.890625 
Q 24.171875 6.390625 31.78125 6.390625 
Q 39.453125 6.390625 43.28125 13.890625 
Q 47.125 21.390625 47.125 36.375 
Q 47.125 51.421875 43.28125 58.90625 
Q 39.453125 66.40625 31.78125 66.40625 
z
M 31.78125 74.21875 
Q 44.046875 74.21875 50.515625 64.515625 
Q 56.984375 54.828125 56.984375 36.375 
Q 56.984375 17.96875 50.515625 8.265625 
Q 44.046875 -1.421875 31.78125 -1.421875 
Q 19.53125 -1.421875 13.0625 8.265625 
Q 6.59375 17.96875 6.59375 36.375 
Q 6.59375 54.828125 13.0625 64.515625 
Q 19.53125 74.21875 31.78125 74.21875 
z
" id="DejaVuSans-48"/>
        <path d="M 10.6875 12.40625 
L 21 12.40625 
L 21 0 
L 10.6875 0 
z
" id="DejaVuSans-46"/>
       </defs>
       <use transform="translate(0 0.78125)" xlink:href="#DejaVuSans-48"/>
       <use transform="translate(63.623047 0.78125)" xlink:href="#DejaVuSans-46"/>
       <use transform="translate(95.410156 0.78125)" xlink:href="#DejaVuSans-48"/>
      </g>
     </g>
    </g>
    <g id="xtick_2">
     <g id="line2d_3">
      <g>
       <use style="stroke:#000000;stroke-width:0.5;" x="137.790694" xlink:href="#m1c47f6aae4" y="258.225354"/>
      </g>
     </g>
     <g id="text_2">
      <!-- $\mathregular{0.5}$ -->
      <g transform="translate(131.390694 267.804104)scale(0.08 -0.08)">
       <defs>
        <path d="M 10.796875 72.90625 
L 49.515625 72.90625 
L 49.515625 64.59375 
L 19.828125 64.59375 
L 19.828125 46.734375 
Q 21.96875 47.46875 24.109375 47.828125 
Q 26.265625 48.1875 28.421875 48.1875 
Q 40.625 48.1875 47.75 41.5 
Q 54.890625 34.8125 54.890625 23.390625 
Q 54.890625 11.625 47.5625 5.09375 
Q 40.234375 -1.421875 26.90625 -1.421875 
Q 22.3125 -1.421875 17.546875 -0.640625 
Q 12.796875 0.140625 7.71875 1.703125 
L 7.71875 11.625 
Q 12.109375 9.234375 16.796875 8.0625 
Q 21.484375 6.890625 26.703125 6.890625 
Q 35.15625 6.890625 40.078125 11.328125 
Q 45.015625 15.765625 45.015625 23.390625 
Q 45.015625 31 40.078125 35.4375 
Q 35.15625 39.890625 26.703125 39.890625 
Q 22.75 39.890625 18.8125 39.015625 
Q 14.890625 38.140625 10.796875 36.28125 
z
" id="DejaVuSans-53"/>
       </defs>
       <use transform="translate(0 0.78125)" xlink:href="#DejaVuSans-48"/>
       <use transform="translate(63.623047 0.78125)" xlink:href="#DejaVuSans-46"/>
       <use transform="translate(95.410156 0.78125)" xlink:href="#DejaVuSans-53"/>
      </g>
     </g>
    </g>
    <g id="xtick_3">
     <g id="line2d_4">
      <g>
       <use style="stroke:#000000;stroke-width:0.5;" x="232.647796" xlink:href="#m1c47f6aae4" y="258.225354"/>
      </g>
     </g>
     <g id="text_3">
      <!-- $\mathregular{1.0}$ -->
      <g transform="translate(226.247796 267.804104)scale(0.08 -0.08)">
       <defs>
        <path d="M 12.40625 8.296875 
L 28.515625 8.296875 
L 28.515625 63.921875 
L 10.984375 60.40625 
L 10.984375 69.390625 
L 28.421875 72.90625 
L 38.28125 72.90625 
L 38.28125 8.296875 
L 54.390625 8.296875 
L 54.390625 0 
L 12.40625 0 
z
" id="DejaVuSans-49"/>
       </defs>
       <use transform="translate(0 0.78125)" xlink:href="#DejaVuSans-49"/>
       <use transform="translate(63.623047 0.78125)" xlink:href="#DejaVuSans-46"/>
       <use transform="translate(95.410156 0.78125)" xlink:href="#DejaVuSans-48"/>
      </g>
     </g>
    </g>
    <g id="xtick_4">
     <g id="line2d_5">
      <g>
       <use style="stroke:#000000;stroke-width:0.5;" x="327.504898" xlink:href="#m1c47f6aae4" y="258.225354"/>
      </g>
     </g>
     <g id="text_4">
      <!-- $\mathregular{1.5}$ -->
      <g transform="translate(321.104898 267.804104)scale(0.08 -0.08)">
       <use transform="translate(0 0.09375)" xlink:href="#DejaVuSans-49"/>
       <use transform="translate(63.623047 0.09375)" xlink:href="#DejaVuSans-46"/>
       <use transform="translate(95.410156 0.09375)" xlink:href="#DejaVuSans-53"/>
      </g>
     </g>
    </g>
    <g id="xtick_5">
     <g id="line2d_6">
      <g>
       <use style="stroke:#000000;stroke-width:0.5;" x="422.361999" xlink:href="#m1c47f6aae4" y="258.225354"/>
      </g>
     </g>
     <g id="text_5">
      <!-- $\mathregular{2.0}$ -->
      <g transform="translate(415.961999 267.804104)scale(0.08 -0.08)">
       <defs>
        <path d="M 19.1875 8.296875 
L 53.609375 8.296875 
L 53.609375 0 
L 7.328125 0 
L 7.328125 8.296875 
Q 12.9375 14.109375 22.625 23.890625 
Q 32.328125 33.6875 34.8125 36.53125 
Q 39.546875 41.84375 41.421875 45.53125 
Q 43.3125 49.21875 43.3125 52.78125 
Q 43.3125 58.59375 39.234375 62.25 
Q 35.15625 65.921875 28.609375 65.921875 
Q 23.96875 65.921875 18.8125 64.3125 
Q 13.671875 62.703125 7.8125 59.421875 
L 7.8125 69.390625 
Q 13.765625 71.78125 18.9375 73 
Q 24.125 74.21875 28.421875 74.21875 
Q 39.75 74.21875 46.484375 68.546875 
Q 53.21875 62.890625 53.21875 53.421875 
Q 53.21875 48.921875 51.53125 44.890625 
Q 49.859375 40.875 45.40625 35.40625 
Q 44.1875 33.984375 37.640625 27.21875 
Q 31.109375 20.453125 19.1875 8.296875 
z
" id="DejaVuSans-50"/>
       </defs>
       <use transform="translate(0 0.78125)" xlink:href="#DejaVuSans-50"/>
       <use transform="translate(63.623047 0.78125)" xlink:href="#DejaVuSans-46"/>
       <use transform="translate(95.410156 0.78125)" xlink:href="#DejaVuSans-48"/>
      </g>
     </g>
    </g>
    <g id="text_6">
     <!-- Time (s) -->
     <g transform="translate(210.285999 281.826136)scale(0.11 -0.11)">
      <defs>
       <path d="M -0.296875 72.90625 
L 61.375 72.90625 
L 61.375 64.59375 
L 35.5 64.59375 
L 35.5 0 
L 25.59375 0 
L 25.59375 64.59375 
L -0.296875 64.59375 
z
" id="DejaVuSans-84"/>
       <path d="M 9.421875 54.6875 
L 18.40625 54.6875 
L 18.40625 0 
L 9.421875 0 
z
M 9.421875 75.984375 
L 18.40625 75.984375 
L 18.40625 64.59375 
L 9.421875 64.59375 
z
" id="DejaVuSans-105"/>
       <path d="M 52 44.1875 
Q 55.375 50.25 60.0625 53.125 
Q 64.75 56 71.09375 56 
Q 79.640625 56 84.28125 50.015625 
Q 88.921875 44.046875 88.921875 33.015625 
L 88.921875 0 
L 79.890625 0 
L 79.890625 32.71875 
Q 79.890625 40.578125 77.09375 44.375 
Q 74.3125 48.1875 68.609375 48.1875 
Q 61.625 48.1875 57.5625 43.546875 
Q 53.515625 38.921875 53.515625 30.90625 
L 53.515625 0 
L 44.484375 0 
L 44.484375 32.71875 
Q 44.484375 40.625 41.703125 44.40625 
Q 38.921875 48.1875 33.109375 48.1875 
Q 26.21875 48.1875 22.15625 43.53125 
Q 18.109375 38.875 18.109375 30.90625 
L 18.109375 0 
L 9.078125 0 
L 9.078125 54.6875 
L 18.109375 54.6875 
L 18.109375 46.1875 
Q 21.1875 51.21875 25.484375 53.609375 
Q 29.78125 56 35.6875 56 
Q 41.65625 56 45.828125 52.96875 
Q 50 49.953125 52 44.1875 
z
" id="DejaVuSans-109"/>
       <path d="M 56.203125 29.59375 
L 56.203125 25.203125 
L 14.890625 25.203125 
Q 15.484375 15.921875 20.484375 11.0625 
Q 25.484375 6.203125 34.421875 6.203125 
Q 39.59375 6.203125 44.453125 7.46875 
Q 49.3125 8.734375 54.109375 11.28125 
L 54.109375 2.78125 
Q 49.265625 0.734375 44.1875 -0.34375 
Q 39.109375 -1.421875 33.890625 -1.421875 
Q 20.796875 -1.421875 13.15625 6.1875 
Q 5.515625 13.8125 5.515625 26.8125 
Q 5.515625 40.234375 12.765625 48.109375 
Q 20.015625 56 32.328125 56 
Q 43.359375 56 49.78125 48.890625 
Q 56.203125 41.796875 56.203125 29.59375 
z
M 47.21875 32.234375 
Q 47.125 39.59375 43.09375 43.984375 
Q 39.0625 48.390625 32.421875 48.390625 
Q 24.90625 48.390625 20.390625 44.140625 
Q 15.875 39.890625 15.1875 32.171875 
z
" id="DejaVuSans-101"/>
       <path id="DejaVuSans-32"/>
       <path d="M 31 75.875 
Q 24.46875 64.65625 21.28125 53.65625 
Q 18.109375 42.671875 18.109375 31.390625 
Q 18.109375 20.125 21.3125 9.0625 
Q 24.515625 -2 31 -13.1875 
L 23.1875 -13.1875 
Q 15.875 -1.703125 12.234375 9.375 
Q 8.59375 20.453125 8.59375 31.390625 
Q 8.59375 42.28125 12.203125 53.3125 
Q 15.828125 64.359375 23.1875 75.875 
z
" id="DejaVuSans-40"/>
       <path d="M 44.28125 53.078125 
L 44.28125 44.578125 
Q 40.484375 46.53125 36.375 47.5 
Q 32.28125 48.484375 27.875 48.484375 
Q 21.1875 48.484375 17.84375 46.4375 
Q 14.5 44.390625 14.5 40.28125 
Q 14.5 37.15625 16.890625 35.375 
Q 19.28125 33.59375 26.515625 31.984375 
L 29.59375 31.296875 
Q 39.15625 29.25 43.1875 25.515625 
Q 47.21875 21.78125 47.21875 15.09375 
Q 47.21875 7.46875 41.1875 3.015625 
Q 35.15625 -1.421875 24.609375 -1.421875 
Q 20.21875 -1.421875 15.453125 -0.5625 
Q 10.6875 0.296875 5.421875 2 
L 5.421875 11.28125 
Q 10.40625 8.6875 15.234375 7.390625 
Q 20.0625 6.109375 24.8125 6.109375 
Q 31.15625 6.109375 34.5625 8.28125 
Q 37.984375 10.453125 37.984375 14.40625 
Q 37.984375 18.0625 35.515625 20.015625 
Q 33.0625 21.96875 24.703125 23.78125 
L 21.578125 24.515625 
Q 13.234375 26.265625 9.515625 29.90625 
Q 5.8125 33.546875 5.8125 39.890625 
Q 5.8125 47.609375 11.28125 51.796875 
Q 16.75 56 26.8125 56 
Q 31.78125 56 36.171875 55.265625 
Q 40.578125 54.546875 44.28125 53.078125 
z
" id="DejaVuSans-115"/>
       <path d="M 8.015625 75.875 
L 15.828125 75.875 
Q 23.140625 64.359375 26.78125 53.3125 
Q 30.421875 42.28125 30.421875 31.390625 
Q 30.421875 20.453125 26.78125 9.375 
Q 23.140625 -1.703125 15.828125 -13.1875 
L 8.015625 -13.1875 
Q 14.5 -2 17.703125 9.0625 
Q 20.90625 20.125 20.90625 31.390625 
Q 20.90625 42.671875 17.703125 53.65625 
Q 14.5 64.65625 8.015625 75.875 
z
" id="DejaVuSans-41"/>
      </defs>
      <use xlink:href="#DejaVuSans-84"/>
      <use x="57.958984" xlink:href="#DejaVuSans-105"/>
      <use x="85.742188" xlink:href="#DejaVuSans-109"/>
      <use x="183.154297" xlink:href="#DejaVuSans-101"/>
      <use x="244.677734" xlink:href="#DejaVuSans-32"/>
      <use x="276.464844" xlink:href="#DejaVuSans-40"/>
      <use x="315.478516" xlink:href="#DejaVuSans-115"/>
      <use x="367.578125" xlink:href="#DejaVuSans-41"/>
     </g>
    </g>
   </g>
   <g id="matplotlib.axis_2">
    <g id="ytick_1">
     <g id="line2d_7">
      <defs>
       <path d="M 0 0 
L 2.5 0 
" id="m91952755c2" style="stroke:#000000;stroke-width:0.5;"/>
      </defs>
      <g>
       <use style="stroke:#000000;stroke-width:0.5;" x="42.933593" xlink:href="#m91952755c2" y="223.406006"/>
      </g>
     </g>
     <g id="text_7">
      <!-- $\mathregular{-20}$ -->
      <g transform="translate(22.473593 226.445381)scale(0.08 -0.08)">
       <defs>
        <path d="M 10.59375 35.5 
L 73.1875 35.5 
L 73.1875 27.203125 
L 10.59375 27.203125 
z
" id="DejaVuSans-8722"/>
       </defs>
       <use transform="translate(0 0.78125)" xlink:href="#DejaVuSans-8722"/>
       <use transform="translate(83.789062 0.78125)" xlink:href="#DejaVuSans-50"/>
       <use transform="translate(147.412109 0.78125)" xlink:href="#DejaVuSans-48"/>
      </g>
     </g>
    </g>
    <g id="ytick_2">
     <g id="line2d_8">
      <g>
       <use style="stroke:#000000;stroke-width:0.5;" x="42.933593" xlink:href="#m91952755c2" y="165.134351"/>
      </g>
     </g>
     <g id="text_8">
      <!-- $\mathregular{-10}$ -->
      <g transform="translate(22.473593 168.173726)scale(0.08 -0.08)">
       <use transform="translate(0 0.78125)" xlink:href="#DejaVuSans-8722"/>
       <use transform="translate(83.789062 0.78125)" xlink:href="#DejaVuSans-49"/>
       <use transform="translate(147.412109 0.78125)" xlink:href="#DejaVuSans-48"/>
      </g>
     </g>
    </g>
    <g id="ytick_3">
     <g id="line2d_9">
      <g>
       <use style="stroke:#000000;stroke-width:0.5;" x="42.933593" xlink:href="#m91952755c2" y="106.862696"/>
      </g>
     </g>
     <g id="text_9">
      <!-- $\mathregular{0}$ -->
      <g transform="translate(34.313593 109.902071)scale(0.08 -0.08)">
       <use transform="translate(0 0.78125)" xlink:href="#DejaVuSans-48"/>
      </g>
     </g>
    </g>
    <g id="ytick_4">
     <g id="line2d_10">
      <g>
       <use style="stroke:#000000;stroke-width:0.5;" x="42.933593" xlink:href="#m91952755c2" y="48.591042"/>
      </g>
     </g>
     <g id="text_10">
      <!-- $\mathregular{10}$ -->
      <g transform="translate(29.193593 51.630417)scale(0.08 -0.08)">
       <use transform="translate(0 0.78125)" xlink:href="#DejaVuSans-49"/>
       <use transform="translate(63.623047 0.78125)" xlink:href="#DejaVuSans-48"/>
      </g>
     </g>
    </g>
    <g id="text_11">
     <!-- Rodriguez Parameter $\theta_y$ (degree) -->
     <g transform="translate(15.063593 221.885)rotate(-90)scale(0.11 -0.11)">
      <defs>
       <path d="M 44.390625 34.1875 
Q 47.5625 33.109375 50.5625 29.59375 
Q 53.5625 26.078125 56.59375 19.921875 
L 66.609375 0 
L 56 0 
L 46.6875 18.703125 
Q 43.0625 26.03125 39.671875 28.421875 
Q 36.28125 30.8125 30.421875 30.8125 
L 19.671875 30.8125 
L 19.671875 0 
L 9.8125 0 
L 9.8125 72.90625 
L 32.078125 72.90625 
Q 44.578125 72.90625 50.734375 67.671875 
Q 56.890625 62.453125 56.890625 51.90625 
Q 56.890625 45.015625 53.6875 40.46875 
Q 50.484375 35.9375 44.390625 34.1875 
z
M 19.671875 64.796875 
L 19.671875 38.921875 
L 32.078125 38.921875 
Q 39.203125 38.921875 42.84375 42.21875 
Q 46.484375 45.515625 46.484375 51.90625 
Q 46.484375 58.296875 42.84375 61.546875 
Q 39.203125 64.796875 32.078125 64.796875 
z
" id="DejaVuSans-82"/>
       <path d="M 30.609375 48.390625 
Q 23.390625 48.390625 19.1875 42.75 
Q 14.984375 37.109375 14.984375 27.296875 
Q 14.984375 17.484375 19.15625 11.84375 
Q 23.34375 6.203125 30.609375 6.203125 
Q 37.796875 6.203125 41.984375 11.859375 
Q 46.1875 17.53125 46.1875 27.296875 
Q 46.1875 37.015625 41.984375 42.703125 
Q 37.796875 48.390625 30.609375 48.390625 
z
M 30.609375 56 
Q 42.328125 56 49.015625 48.375 
Q 55.71875 40.765625 55.71875 27.296875 
Q 55.71875 13.875 49.015625 6.21875 
Q 42.328125 -1.421875 30.609375 -1.421875 
Q 18.84375 -1.421875 12.171875 6.21875 
Q 5.515625 13.875 5.515625 27.296875 
Q 5.515625 40.765625 12.171875 48.375 
Q 18.84375 56 30.609375 56 
z
" id="DejaVuSans-111"/>
       <path d="M 45.40625 46.390625 
L 45.40625 75.984375 
L 54.390625 75.984375 
L 54.390625 0 
L 45.40625 0 
L 45.40625 8.203125 
Q 42.578125 3.328125 38.25 0.953125 
Q 33.9375 -1.421875 27.875 -1.421875 
Q 17.96875 -1.421875 11.734375 6.484375 
Q 5.515625 14.40625 5.515625 27.296875 
Q 5.515625 40.1875 11.734375 48.09375 
Q 17.96875 56 27.875 56 
Q 33.9375 56 38.25 53.625 
Q 42.578125 51.265625 45.40625 46.390625 
z
M 14.796875 27.296875 
Q 14.796875 17.390625 18.875 11.75 
Q 22.953125 6.109375 30.078125 6.109375 
Q 37.203125 6.109375 41.296875 11.75 
Q 45.40625 17.390625 45.40625 27.296875 
Q 45.40625 37.203125 41.296875 42.84375 
Q 37.203125 48.484375 30.078125 48.484375 
Q 22.953125 48.484375 18.875 42.84375 
Q 14.796875 37.203125 14.796875 27.296875 
z
" id="DejaVuSans-100"/>
       <path d="M 41.109375 46.296875 
Q 39.59375 47.171875 37.8125 47.578125 
Q 36.03125 48 33.890625 48 
Q 26.265625 48 22.1875 43.046875 
Q 18.109375 38.09375 18.109375 28.8125 
L 18.109375 0 
L 9.078125 0 
L 9.078125 54.6875 
L 18.109375 54.6875 
L 18.109375 46.1875 
Q 20.953125 51.171875 25.484375 53.578125 
Q 30.03125 56 36.53125 56 
Q 37.453125 56 38.578125 55.875 
Q 39.703125 55.765625 41.0625 55.515625 
z
" id="DejaVuSans-114"/>
       <path d="M 45.40625 27.984375 
Q 45.40625 37.75 41.375 43.109375 
Q 37.359375 48.484375 30.078125 48.484375 
Q 22.859375 48.484375 18.828125 43.109375 
Q 14.796875 37.75 14.796875 27.984375 
Q 14.796875 18.265625 18.828125 12.890625 
Q 22.859375 7.515625 30.078125 7.515625 
Q 37.359375 7.515625 41.375 12.890625 
Q 45.40625 18.265625 45.40625 27.984375 
z
M 54.390625 6.78125 
Q 54.390625 -7.171875 48.1875 -13.984375 
Q 42 -20.796875 29.203125 -20.796875 
Q 24.46875 -20.796875 20.265625 -20.09375 
Q 16.0625 -19.390625 12.109375 -17.921875 
L 12.109375 -9.1875 
Q 16.0625 -11.328125 19.921875 -12.34375 
Q 23.78125 -13.375 27.78125 -13.375 
Q 36.625 -13.375 41.015625 -8.765625 
Q 45.40625 -4.15625 45.40625 5.171875 
L 45.40625 9.625 
Q 42.625 4.78125 38.28125 2.390625 
Q 33.9375 0 27.875 0 
Q 17.828125 0 11.671875 7.65625 
Q 5.515625 15.328125 5.515625 27.984375 
Q 5.515625 40.671875 11.671875 48.328125 
Q 17.828125 56 27.875 56 
Q 33.9375 56 38.28125 53.609375 
Q 42.625 51.21875 45.40625 46.390625 
L 45.40625 54.6875 
L 54.390625 54.6875 
z
" id="DejaVuSans-103"/>
       <path d="M 8.5 21.578125 
L 8.5 54.6875 
L 17.484375 54.6875 
L 17.484375 21.921875 
Q 17.484375 14.15625 20.5 10.265625 
Q 23.53125 6.390625 29.59375 6.390625 
Q 36.859375 6.390625 41.078125 11.03125 
Q 45.3125 15.671875 45.3125 23.6875 
L 45.3125 54.6875 
L 54.296875 54.6875 
L 54.296875 0 
L 45.3125 0 
L 45.3125 8.40625 
Q 42.046875 3.421875 37.71875 1 
Q 33.40625 -1.421875 27.6875 -1.421875 
Q 18.265625 -1.421875 13.375 4.4375 
Q 8.5 10.296875 8.5 21.578125 
z
M 31.109375 56 
z
" id="DejaVuSans-117"/>
       <path d="M 5.515625 54.6875 
L 48.1875 54.6875 
L 48.1875 46.484375 
L 14.40625 7.171875 
L 48.1875 7.171875 
L 48.1875 0 
L 4.296875 0 
L 4.296875 8.203125 
L 38.09375 47.515625 
L 5.515625 47.515625 
z
" id="DejaVuSans-122"/>
       <path d="M 19.671875 64.796875 
L 19.671875 37.40625 
L 32.078125 37.40625 
Q 38.96875 37.40625 42.71875 40.96875 
Q 46.484375 44.53125 46.484375 51.125 
Q 46.484375 57.671875 42.71875 61.234375 
Q 38.96875 64.796875 32.078125 64.796875 
z
M 9.8125 72.90625 
L 32.078125 72.90625 
Q 44.34375 72.90625 50.609375 67.359375 
Q 56.890625 61.8125 56.890625 51.125 
Q 56.890625 40.328125 50.609375 34.8125 
Q 44.34375 29.296875 32.078125 29.296875 
L 19.671875 29.296875 
L 19.671875 0 
L 9.8125 0 
z
" id="DejaVuSans-80"/>
       <path d="M 34.28125 27.484375 
Q 23.390625 27.484375 19.1875 25 
Q 14.984375 22.515625 14.984375 16.5 
Q 14.984375 11.71875 18.140625 8.90625 
Q 21.296875 6.109375 26.703125 6.109375 
Q 34.1875 6.109375 38.703125 11.40625 
Q 43.21875 16.703125 43.21875 25.484375 
L 43.21875 27.484375 
z
M 52.203125 31.203125 
L 52.203125 0 
L 43.21875 0 
L 43.21875 8.296875 
Q 40.140625 3.328125 35.546875 0.953125 
Q 30.953125 -1.421875 24.3125 -1.421875 
Q 15.921875 -1.421875 10.953125 3.296875 
Q 6 8.015625 6 15.921875 
Q 6 25.140625 12.171875 29.828125 
Q 18.359375 34.515625 30.609375 34.515625 
L 43.21875 34.515625 
L 43.21875 35.40625 
Q 43.21875 41.609375 39.140625 45 
Q 35.0625 48.390625 27.6875 48.390625 
Q 23 48.390625 18.546875 47.265625 
Q 14.109375 46.140625 10.015625 43.890625 
L 10.015625 52.203125 
Q 14.9375 54.109375 19.578125 55.046875 
Q 24.21875 56 28.609375 56 
Q 40.484375 56 46.34375 49.84375 
Q 52.203125 43.703125 52.203125 31.203125 
z
" id="DejaVuSans-97"/>
       <path d="M 18.3125 70.21875 
L 18.3125 54.6875 
L 36.8125 54.6875 
L 36.8125 47.703125 
L 18.3125 47.703125 
L 18.3125 18.015625 
Q 18.3125 11.328125 20.140625 9.421875 
Q 21.96875 7.515625 27.59375 7.515625 
L 36.8125 7.515625 
L 36.8125 0 
L 27.59375 0 
Q 17.1875 0 13.234375 3.875 
Q 9.28125 7.765625 9.28125 18.015625 
L 9.28125 47.703125 
L 2.6875 47.703125 
L 2.6875 54.6875 
L 9.28125 54.6875 
L 9.28125 70.21875 
z
" id="DejaVuSans-116"/>
       <path d="M 45.515625 34.671875 
L 14.453125 34.671875 
Q 12.359375 20.0625 14.5 13.875 
Q 17.1875 6.25 24.46875 6.25 
Q 31.78125 6.25 37.359375 13.921875 
Q 42.234375 20.65625 45.515625 34.671875 
z
M 47.015625 42.96875 
Q 48.34375 56.84375 46.625 61.71875 
Q 43.953125 69.4375 36.765625 69.4375 
Q 29.296875 69.4375 23.828125 61.8125 
Q 19.53125 55.671875 16.15625 42.96875 
z
M 38.1875 76.765625 
Q 49.90625 76.765625 54.59375 66.40625 
Q 59.28125 56.109375 55.71875 37.84375 
Q 52.203125 19.625 43.453125 9.28125 
Q 34.765625 -1.125 23.046875 -1.125 
Q 11.28125 -1.125 6.640625 9.28125 
Q 2 19.625 5.515625 37.84375 
Q 9.078125 56.109375 17.71875 66.40625 
Q 26.421875 76.765625 38.1875 76.765625 
z
" id="DejaVuSans-Oblique-952"/>
       <path d="M 24.8125 -5.078125 
Q 18.5625 -15.578125 14.625 -18.1875 
Q 10.6875 -20.796875 4.59375 -20.796875 
L -2.484375 -20.796875 
L -0.984375 -13.28125 
L 4.203125 -13.28125 
Q 7.953125 -13.28125 10.59375 -11.234375 
Q 13.234375 -9.1875 16.5 -3.21875 
L 19.28125 2 
L 7.171875 54.6875 
L 16.703125 54.6875 
L 25.78125 12.796875 
L 50.875 54.6875 
L 60.296875 54.6875 
z
" id="DejaVuSans-Oblique-121"/>
      </defs>
      <use transform="translate(0 0.234375)" xlink:href="#DejaVuSans-82"/>
      <use transform="translate(69.482422 0.234375)" xlink:href="#DejaVuSans-111"/>
      <use transform="translate(130.664062 0.234375)" xlink:href="#DejaVuSans-100"/>
      <use transform="translate(194.140625 0.234375)" xlink:href="#DejaVuSans-114"/>
      <use transform="translate(235.253906 0.234375)" xlink:href="#DejaVuSans-105"/>
      <use transform="translate(263.037109 0.234375)" xlink:href="#DejaVuSans-103"/>
      <use transform="translate(326.513672 0.234375)" xlink:href="#DejaVuSans-117"/>
      <use transform="translate(389.892578 0.234375)" xlink:href="#DejaVuSans-101"/>
      <use transform="translate(451.416016 0.234375)" xlink:href="#DejaVuSans-122"/>
      <use transform="translate(503.90625 0.234375)" xlink:href="#DejaVuSans-32"/>
      <use transform="translate(535.693359 0.234375)" xlink:href="#DejaVuSans-80"/>
      <use transform="translate(595.996094 0.234375)" xlink:href="#DejaVuSans-97"/>
      <use transform="translate(657.275391 0.234375)" xlink:href="#DejaVuSans-114"/>
      <use transform="translate(698.388672 0.234375)" xlink:href="#DejaVuSans-97"/>
      <use transform="translate(759.667969 0.234375)" xlink:href="#DejaVuSans-109"/>
      <use transform="translate(857.080078 0.234375)" xlink:href="#DejaVuSans-101"/>
      <use transform="translate(918.603516 0.234375)" xlink:href="#DejaVuSans-116"/>
      <use transform="translate(957.8125 0.234375)" xlink:href="#DejaVuSans-101"/>
      <use transform="translate(1019.335938 0.234375)" xlink:href="#DejaVuSans-114"/>
      <use transform="translate(1060.449219 0.234375)" xlink:href="#DejaVuSans-32"/>
      <use transform="translate(1092.236328 0.234375)" xlink:href="#DejaVuSans-Oblique-952"/>
      <use transform="translate(1153.417969 -16.171875)scale(0.7)" xlink:href="#DejaVuSans-Oblique-121"/>
      <use transform="translate(1197.578125 0.234375)" xlink:href="#DejaVuSans-32"/>
      <use transform="translate(1229.365234 0.234375)" xlink:href="#DejaVuSans-40"/>
      <use transform="translate(1268.378906 0.234375)" xlink:href="#DejaVuSans-100"/>
      <use transform="translate(1331.855469 0.234375)" xlink:href="#DejaVuSans-101"/>
      <use transform="translate(1393.378906 0.234375)" xlink:href="#DejaVuSans-103"/>
      <use transform="translate(1456.855469 0.234375)" xlink:href="#DejaVuSans-114"/>
      <use transform="translate(1497.96875 0.234375)" xlink:href="#DejaVuSans-101"/>
      <use transform="translate(1559.492188 0.234375)" xlink:href="#DejaVuSans-101"/>
      <use transform="translate(1621.015625 0.234375)" xlink:href="#DejaVuSans-41"/>
     </g>
    </g>
   </g>
   <g id="line2d_11">
    <path clip-path="url(#p59ae97db63)" d="M 42.933593 106.862696 
L 43.759754 106.969161 
L 44.671971 107.277631 
L 45.938372 108.120101 
L 47.271046 109.354874 
L 48.25554 110.609301 
L 50.158629 113.693325 
L 51.867567 116.736084 
L 53.183048 119.615649 
L 55.545692 125.37266 
L 59.532226 135.204808 
L 66.906953 150.80557 
L 68.215732 152.646658 
L 69.424148 153.975581 
L 70.245462 154.580696 
L 71.11701 154.897624 
L 72.031022 155.037425 
L 73.016559 155.055019 
L 73.857493 154.803198 
L 74.560117 154.295752 
L 75.473345 153.324329 
L 77.028236 151.128365 
L 78.167656 149.187709 
L 81.03792 144.000649 
L 82.976157 140.826327 
L 86.430615 134.678513 
L 89.522725 128.564873 
L 91.101168 125.348777 
L 94.810828 116.878158 
L 96.376714 113.183277 
L 97.594948 110.900159 
L 98.953842 108.797427 
L 99.857544 107.702072 
L 100.814099 106.845134 
L 103.597146 104.952342 
L 104.359319 104.612826 
L 105.440433 104.49355 
L 106.757795 104.739323 
L 107.725258 105.240025 
L 108.623407 106.113697 
L 109.581818 107.38434 
L 111.217547 109.970803 
L 112.220821 111.99598 
L 113.279752 114.700764 
L 114.676177 118.960136 
L 115.975038 123.650438 
L 117.689941 130.914216 
L 120.107534 140.969993 
L 121.850318 147.61207 
L 123.461219 152.776525 
L 125.335302 157.994346 
L 126.431427 160.425103 
L 127.255183 161.827744 
L 128.359857 163.258839 
L 129.492353 164.311762 
L 130.428117 164.824208 
L 131.488111 165.100507 
L 133.951078 165.455903 
L 134.870296 165.17188 
L 135.343819 164.871657 
L 136.308011 163.843056 
L 137.289352 162.225524 
L 138.270692 159.864666 
L 139.252033 156.644089 
L 140.78821 150.439416 
L 142.775205 141.33533 
L 149.153233 110.706002 
L 150.603349 105.358288 
L 151.882187 101.397151 
L 153.00924 98.585926 
L 154.96094 94.469265 
L 156.476569 91.589825 
L 157.476114 90.158215 
L 158.388566 89.188311 
L 159.407975 88.428365 
L 160.131799 88.161399 
L 160.863403 88.137633 
L 162.403211 88.575953 
L 164.35971 89.297811 
L 165.146006 89.841048 
L 165.87008 90.615588 
L 166.656737 91.757408 
L 167.322015 93.031162 
L 168.062714 94.877605 
L 169.088001 98.321197 
L 170.342404 103.775835 
L 172.109277 112.690327 
L 174.276281 124.801307 
L 176.745415 139.547681 
L 181.309851 168.104018 
L 182.922592 176.429389 
L 185.34812 187.46211 
L 186.941002 194.079501 
L 188.074522 197.939475 
L 188.93229 200.266499 
L 189.81493 201.984107 
L 190.411649 202.680655 
L 191.008832 202.958725 
L 191.606482 202.856306 
L 192.204131 202.457135 
L 193.433931 201.145887 
L 194.976458 199.19702 
L 195.778491 197.945228 
L 196.580525 196.392698 
L 197.627777 193.773904 
L 198.506569 190.942853 
L 199.342735 187.49062 
L 200.308575 182.454674 
L 201.523428 174.654996 
L 204.717733 153.238313 
L 206.429608 143.565796 
L 208.103067 133.945851 
L 209.279596 125.699202 
L 213.546882 93.756204 
L 215.004393 85.006776 
L 217.888088 68.201577 
L 219.346191 60.167547 
L 220.212369 56.453668 
L 221.006458 53.774612 
L 221.86882 51.698771 
L 222.451402 50.839513 
L 222.742693 50.61026 
L 223.033984 50.523767 
L 223.326298 50.577275 
L 223.910926 51.047061 
L 224.495554 51.899313 
L 226.300022 54.83007 
L 226.941794 55.497962 
L 227.604999 55.892848 
L 227.950021 55.958777 
L 228.30259 55.895804 
L 228.668172 55.66259 
L 229.042557 55.229637 
L 229.81705 53.74693 
L 231.374405 50.003285 
L 231.987246 49.279202 
L 232.293666 49.199862 
L 232.601563 49.318479 
L 233.151795 49.991115 
L 233.80885 51.496578 
L 234.438196 53.681962 
L 235.144826 57.211658 
L 235.877814 62.241759 
L 237.101563 72.876002 
L 238.814812 87.434105 
L 240.479764 101.556491 
L 242.731433 123.188847 
L 244.191442 139.204617 
L 245.628656 154.835483 
L 246.646484 163.348711 
L 248.025492 172.460736 
L 249.612662 181.534095 
L 251.610359 192.294829 
L 254.157241 208.417628 
L 254.747764 210.599644 
L 255.567357 212.696407 
L 257.308622 216.733336 
L 258.447246 219.229948 
L 259.664574 221.788682 
L 260.466503 224.349696 
L 262.182116 230.741333 
L 262.505252 231.325336 
L 262.840969 231.502171 
L 263.205806 231.176495 
L 263.573692 230.328216 
L 264.309463 227.312872 
L 265.781284 219.034531 
L 270.006224 194.798003 
L 270.936276 189.196252 
L 271.92364 181.550609 
L 276.205757 145.071592 
L 276.919914 140.970197 
L 277.75069 137.592194 
L 279.061313 132.841878 
L 279.952626 128.60312 
L 281.486192 119.95362 
L 283.675923 107.295114 
L 284.247148 104.886078 
L 284.834536 103.336464 
L 285.136312 102.982801 
L 285.438087 102.923591 
L 285.739863 103.117473 
L 286.041638 103.54774 
L 286.645649 104.986663 
L 287.872555 109.087341 
L 288.797224 112.095712 
L 289.348673 113.341742 
L 289.808646 113.806718 
L 290.140233 113.76332 
L 290.502727 113.293328 
L 290.873853 112.299574 
L 291.44904 109.73728 
L 292.029532 105.985343 
L 293.0147 97.688616 
L 294.501723 84.767982 
L 295.207678 80.433826 
L 295.746802 78.613209 
L 295.938768 78.345887 
L 296.147512 78.319031 
L 296.356255 78.580557 
L 296.589172 79.222816 
L 297.055004 81.611775 
L 297.535036 85.505949 
L 298.403778 95.25767 
L 299.884998 112.249095 
L 300.603206 118.087666 
L 301.368514 122.635675 
L 302.049897 125.674946 
L 302.756938 127.810134 
L 303.387572 129.011169 
L 303.841279 129.877608 
L 304.304938 131.226316 
L 304.773707 133.398634 
L 305.242476 136.689759 
L 305.94563 143.753244 
L 307.260262 160.856054 
L 308.075568 170.394083 
L 308.687047 175.706394 
L 309.298526 179.461728 
L 309.911907 182.073941 
L 310.333262 183.320291 
L 310.764516 184.001736 
L 310.992639 184.074498 
L 311.220763 183.937516 
L 311.72942 183.000773 
L 312.259794 181.907388 
L 312.525318 181.790269 
L 312.790842 182.206182 
L 313.056366 183.301447 
L 313.321889 185.178425 
L 313.853474 191.251427 
L 314.937694 208.714065 
L 315.84572 221.926121 
L 316.810698 232.522789 
L 318.344383 246.318675 
L 318.898858 249.846309 
L 319.195402 250.817258 
L 319.354427 250.997315 
L 319.516576 250.903615 
L 319.685178 250.489171 
L 320.02301 248.684834 
L 320.530876 243.97226 
L 321.90748 229.06983 
L 322.465755 225.657229 
L 322.837938 224.605152 
L 323.210121 224.329545 
L 323.615645 224.564609 
L 324.918764 226.095905 
L 325.393795 226.14281 
L 325.877825 226.126226 
L 326.135949 226.367908 
L 326.394072 226.932702 
L 326.91032 229.237049 
L 328.296029 238.218601 
L 328.526981 238.828404 
L 328.764024 238.981082 
L 329.001068 238.644073 
L 329.426426 236.767624 
L 329.969922 232.290358 
L 330.78805 223.055297 
L 332.939031 197.612647 
L 335.412849 169.397151 
L 336.21701 164.272627 
L 338.279052 152.773993 
L 340.356201 140.657933 
L 341.047929 133.656724 
L 342.282411 120.024516 
L 342.890989 115.568916 
L 343.598484 112.110187 
L 344.688355 106.718439 
L 346.344481 97.015521 
L 346.962738 94.792735 
L 347.81277 92.635495 
L 348.252123 90.273373 
L 348.697044 86.466697 
L 350.286701 70.428607 
L 350.679357 68.728811 
L 350.876316 68.423099 
L 351.073275 68.40245 
L 351.524739 68.946699 
L 352.000681 69.497261 
L 352.244295 69.47434 
L 352.487909 69.15827 
L 352.975137 67.62629 
L 353.763009 64.443246 
L 354.0259 63.990171 
L 354.288791 64.131852 
L 354.551683 64.941851 
L 355.077465 68.523388 
L 356.52336 82.082082 
L 356.726538 82.56928 
L 356.929716 82.463148 
L 357.132894 81.816388 
L 357.55479 79.252654 
L 358.201467 75.210741 
L 358.420048 74.649513 
L 358.638629 74.699441 
L 358.85721 75.374252 
L 359.294372 78.255972 
L 360.515432 88.504692 
L 360.718111 89.308766 
L 360.92079 89.576821 
L 361.123469 89.248429 
L 361.505288 87.111093 
L 362.541984 79.205734 
L 362.789503 78.563597 
L 362.919779 78.487493 
L 363.064626 78.612456 
L 363.360259 79.598339 
L 363.676391 81.751686 
L 364.396132 89.562152 
L 364.784746 92.881191 
L 365.065575 93.847088 
L 365.205989 93.845487 
L 365.346404 93.549729 
L 365.656478 92.031976 
L 366.806861 84.105727 
L 367.003665 84.010871 
L 367.200469 84.586516 
L 367.594077 87.592823 
L 368.20372 95.55252 
L 368.913872 104.7696 
L 369.251484 106.982778 
L 369.569749 107.589828 
L 369.731712 107.475226 
L 370.076994 106.637157 
L 370.430436 105.779764 
L 370.610942 105.725554 
L 370.791711 106.113097 
L 371.153249 108.499259 
L 371.514787 113.011401 
L 372.237863 125.991405 
L 372.814115 135.425441 
L 373.198283 138.90747 
L 373.390367 139.743168 
L 373.582451 140.049894 
L 373.774536 139.954912 
L 374.17641 139.369131 
L 374.385253 139.401191 
L 374.594095 139.924742 
L 374.802938 141.041329 
L 375.225172 145.410904 
L 375.863871 157.175331 
L 376.689674 173.065615 
L 377.20852 178.972862 
L 377.540262 180.600569 
L 377.872004 181.123157 
L 378.203746 181.391235 
L 378.543282 182.138783 
L 378.826759 183.464494 
L 379.163591 186.20891 
L 379.67162 192.793261 
L 380.519263 204.238606 
L 380.858878 206.878287 
L 381.198493 207.8759 
L 381.3683 207.774854 
L 381.707915 206.513029 
L 382.177527 203.157891 
L 382.934273 197.654801 
L 383.238073 196.94742 
L 383.389973 197.111583 
L 383.717738 198.457603 
L 384.772928 204.463269 
L 385.300523 205.785739 
L 385.650321 206.081984 
L 385.87861 205.767654 
L 386.110469 204.829706 
L 386.514663 201.81668 
L 387.058116 198.135598 
L 387.206962 197.813978 
L 387.361727 197.865244 
L 387.68295 198.998071 
L 388.842779 205.837204 
L 389.675695 210.777228 
L 389.883924 211.023584 
L 390.092153 210.565914 
L 390.509538 208.198061 
L 390.927849 205.616408 
L 391.346161 204.369629 
L 391.555316 204.2325 
L 391.973628 204.351301 
L 392.391939 205.02941 
L 393.019406 206.601093 
L 393.244175 206.861084 
L 393.468943 206.606196 
L 393.693712 205.66973 
L 394.143248 201.837669 
L 394.852009 192.323637 
L 396.033277 176.366815 
L 396.595489 172.320873 
L 397.532509 166.010538 
L 398.043974 161.254894 
L 399.679321 141.335679 
L 400.007612 139.369946 
L 400.348971 138.566198 
L 400.526184 138.68338 
L 401.261816 140.046314 
L 401.451463 139.826532 
L 401.662681 138.982183 
L 402.011864 136.353426 
L 402.508798 130.560493 
L 403.332868 116.28971 
L 403.893002 109.188093 
L 404.467863 104.811529 
L 404.760897 103.60455 
L 405.207737 102.320065 
L 405.506257 100.143778 
L 406.103296 92.788577 
L 406.700336 82.240629 
L 407.297375 72.520976 
L 407.75741 68.30486 
L 408.083422 66.555138 
L 408.247359 66.347529 
L 408.411295 66.632817 
L 409.152014 69.264551 
L 409.343799 69.398439 
L 409.535583 69.295019 
L 409.727368 68.921727 
L 409.919153 68.15908 
L 410.30891 64.824677 
L 411.511411 49.193778 
L 412.121371 44.82073 
L 412.856102 41.349253 
L 413.313697 39.2659 
L 413.645981 36.523902 
L 414.277093 27.992856 
L 415.351164 13.563498 
L 415.721651 10.612004 
L 415.906894 10.062685 
L 416.092137 10.158813 
L 416.473037 11.815277 
L 417.059997 16.439479 
L 417.942418 24.274979 
L 418.277667 25.254144 
L 418.445292 25.101163 
L 418.7941 24.026402 
L 419.156469 22.833236 
L 419.337653 22.539822 
L 419.518838 22.64391 
L 419.700022 23.216719 
L 420.248089 26.514668 
L 420.619487 29.325678 
L 420.992413 33.678068 
L 421.924727 46.054964 
L 422.297652 47.630959 
L 422.361999 47.673676 
L 422.361999 47.673676 
" style="fill:none;stroke:#e36f47;"/>
   </g>
   <g id="patch_3">
    <path d="M 42.933593 258.225354 
L 42.933593 2.834646 
" style="fill:none;stroke:#000000;stroke-linecap:square;stroke-linejoin:miter;"/>
   </g>
   <g id="patch_4">
    <path d="M 42.933593 258.225354 
L 422.361999 258.225354 
" style="fill:none;stroke:#000000;stroke-linecap:square;stroke-linejoin:miter;"/>
   </g>
   <g id="legend_1">
    <g id="patch_5">
     <path d="M 299.041999 39.119646 
L 418.361999 39.119646 
L 418.361999 6.834646 
L 299.041999 6.834646 
z
" style="fill:#ffffff;stroke:#000000;stroke-linejoin:miter;"/>
    </g>
    <g id="line2d_12">
     <path d="M 305.441999 16.513396 
L 321.441999 16.513396 
" style="fill:none;stroke:#009afa;stroke-linejoin:miter;"/>
    </g>
    <g id="line2d_13"/>
    <g id="text_12">
     <!-- GXBeam -->
     <g transform="translate(327.841999 19.313396)scale(0.08 -0.08)">
      <defs>
       <path d="M 59.515625 10.40625 
L 59.515625 29.984375 
L 43.40625 29.984375 
L 43.40625 38.09375 
L 69.28125 38.09375 
L 69.28125 6.78125 
Q 63.578125 2.734375 56.6875 0.65625 
Q 49.8125 -1.421875 42 -1.421875 
Q 24.90625 -1.421875 15.25 8.5625 
Q 5.609375 18.5625 5.609375 36.375 
Q 5.609375 54.25 15.25 64.234375 
Q 24.90625 74.21875 42 74.21875 
Q 49.125 74.21875 55.546875 72.453125 
Q 61.96875 70.703125 67.390625 67.28125 
L 67.390625 56.78125 
Q 61.921875 61.421875 55.765625 63.765625 
Q 49.609375 66.109375 42.828125 66.109375 
Q 29.4375 66.109375 22.71875 58.640625 
Q 16.015625 51.171875 16.015625 36.375 
Q 16.015625 21.625 22.71875 14.15625 
Q 29.4375 6.6875 42.828125 6.6875 
Q 48.046875 6.6875 52.140625 7.59375 
Q 56.25 8.5 59.515625 10.40625 
z
" id="DejaVuSans-71"/>
       <path d="M 6.296875 72.90625 
L 16.890625 72.90625 
L 35.015625 45.796875 
L 53.21875 72.90625 
L 63.8125 72.90625 
L 40.375 37.890625 
L 65.375 0 
L 54.78125 0 
L 34.28125 31 
L 13.625 0 
L 2.984375 0 
L 29 38.921875 
z
" id="DejaVuSans-88"/>
       <path d="M 19.671875 34.8125 
L 19.671875 8.109375 
L 35.5 8.109375 
Q 43.453125 8.109375 47.28125 11.40625 
Q 51.125 14.703125 51.125 21.484375 
Q 51.125 28.328125 47.28125 31.5625 
Q 43.453125 34.8125 35.5 34.8125 
z
M 19.671875 64.796875 
L 19.671875 42.828125 
L 34.28125 42.828125 
Q 41.5 42.828125 45.03125 45.53125 
Q 48.578125 48.25 48.578125 53.8125 
Q 48.578125 59.328125 45.03125 62.0625 
Q 41.5 64.796875 34.28125 64.796875 
z
M 9.8125 72.90625 
L 35.015625 72.90625 
Q 46.296875 72.90625 52.390625 68.21875 
Q 58.5 63.53125 58.5 54.890625 
Q 58.5 48.1875 55.375 44.234375 
Q 52.25 40.28125 46.1875 39.3125 
Q 53.46875 37.75 57.5 32.78125 
Q 61.53125 27.828125 61.53125 20.40625 
Q 61.53125 10.640625 54.890625 5.3125 
Q 48.25 0 35.984375 0 
L 9.8125 0 
z
" id="DejaVuSans-66"/>
      </defs>
      <use xlink:href="#DejaVuSans-71"/>
      <use x="77.490234" xlink:href="#DejaVuSans-88"/>
      <use x="145.996094" xlink:href="#DejaVuSans-66"/>
      <use x="214.599609" xlink:href="#DejaVuSans-101"/>
      <use x="276.123047" xlink:href="#DejaVuSans-97"/>
      <use x="337.402344" xlink:href="#DejaVuSans-109"/>
     </g>
    </g>
    <g id="line2d_14">
     <path d="M 305.441999 28.255896 
L 321.441999 28.255896 
" style="fill:none;stroke:#e36f47;stroke-linejoin:miter;"/>
    </g>
    <g id="line2d_15"/>
    <g id="text_13">
     <!-- DifferentialEquations -->
     <g transform="translate(327.841999 31.055896)scale(0.08 -0.08)">
      <defs>
       <path d="M 19.671875 64.796875 
L 19.671875 8.109375 
L 31.59375 8.109375 
Q 46.6875 8.109375 53.6875 14.9375 
Q 60.6875 21.78125 60.6875 36.53125 
Q 60.6875 51.171875 53.6875 57.984375 
Q 46.6875 64.796875 31.59375 64.796875 
z
M 9.8125 72.90625 
L 30.078125 72.90625 
Q 51.265625 72.90625 61.171875 64.09375 
Q 71.09375 55.28125 71.09375 36.53125 
Q 71.09375 17.671875 61.125 8.828125 
Q 51.171875 0 30.078125 0 
L 9.8125 0 
z
" id="DejaVuSans-68"/>
       <path d="M 37.109375 75.984375 
L 37.109375 68.5 
L 28.515625 68.5 
Q 23.6875 68.5 21.796875 66.546875 
Q 19.921875 64.59375 19.921875 59.515625 
L 19.921875 54.6875 
L 34.71875 54.6875 
L 34.71875 47.703125 
L 19.921875 47.703125 
L 19.921875 0 
L 10.890625 0 
L 10.890625 47.703125 
L 2.296875 47.703125 
L 2.296875 54.6875 
L 10.890625 54.6875 
L 10.890625 58.5 
Q 10.890625 67.625 15.140625 71.796875 
Q 19.390625 75.984375 28.609375 75.984375 
z
" id="DejaVuSans-102"/>
       <path d="M 54.890625 33.015625 
L 54.890625 0 
L 45.90625 0 
L 45.90625 32.71875 
Q 45.90625 40.484375 42.875 44.328125 
Q 39.84375 48.1875 33.796875 48.1875 
Q 26.515625 48.1875 22.3125 43.546875 
Q 18.109375 38.921875 18.109375 30.90625 
L 18.109375 0 
L 9.078125 0 
L 9.078125 54.6875 
L 18.109375 54.6875 
L 18.109375 46.1875 
Q 21.34375 51.125 25.703125 53.5625 
Q 30.078125 56 35.796875 56 
Q 45.21875 56 50.046875 50.171875 
Q 54.890625 44.34375 54.890625 33.015625 
z
" id="DejaVuSans-110"/>
       <path d="M 9.421875 75.984375 
L 18.40625 75.984375 
L 18.40625 0 
L 9.421875 0 
z
" id="DejaVuSans-108"/>
       <path d="M 9.8125 72.90625 
L 55.90625 72.90625 
L 55.90625 64.59375 
L 19.671875 64.59375 
L 19.671875 43.015625 
L 54.390625 43.015625 
L 54.390625 34.71875 
L 19.671875 34.71875 
L 19.671875 8.296875 
L 56.78125 8.296875 
L 56.78125 0 
L 9.8125 0 
z
" id="DejaVuSans-69"/>
       <path d="M 14.796875 27.296875 
Q 14.796875 17.390625 18.875 11.75 
Q 22.953125 6.109375 30.078125 6.109375 
Q 37.203125 6.109375 41.296875 11.75 
Q 45.40625 17.390625 45.40625 27.296875 
Q 45.40625 37.203125 41.296875 42.84375 
Q 37.203125 48.484375 30.078125 48.484375 
Q 22.953125 48.484375 18.875 42.84375 
Q 14.796875 37.203125 14.796875 27.296875 
z
M 45.40625 8.203125 
Q 42.578125 3.328125 38.25 0.953125 
Q 33.9375 -1.421875 27.875 -1.421875 
Q 17.96875 -1.421875 11.734375 6.484375 
Q 5.515625 14.40625 5.515625 27.296875 
Q 5.515625 40.1875 11.734375 48.09375 
Q 17.96875 56 27.875 56 
Q 33.9375 56 38.25 53.625 
Q 42.578125 51.265625 45.40625 46.390625 
L 45.40625 54.6875 
L 54.390625 54.6875 
L 54.390625 -20.796875 
L 45.40625 -20.796875 
z
" id="DejaVuSans-113"/>
      </defs>
      <use xlink:href="#DejaVuSans-68"/>
      <use x="77.001953" xlink:href="#DejaVuSans-105"/>
      <use x="104.785156" xlink:href="#DejaVuSans-102"/>
      <use x="139.990234" xlink:href="#DejaVuSans-102"/>
      <use x="175.195312" xlink:href="#DejaVuSans-101"/>
      <use x="236.71875" xlink:href="#DejaVuSans-114"/>
      <use x="275.582031" xlink:href="#DejaVuSans-101"/>
      <use x="337.105469" xlink:href="#DejaVuSans-110"/>
      <use x="400.484375" xlink:href="#DejaVuSans-116"/>
      <use x="439.693359" xlink:href="#DejaVuSans-105"/>
      <use x="467.476562" xlink:href="#DejaVuSans-97"/>
      <use x="528.755859" xlink:href="#DejaVuSans-108"/>
      <use x="556.539062" xlink:href="#DejaVuSans-69"/>
      <use x="619.722656" xlink:href="#DejaVuSans-113"/>
      <use x="683.199219" xlink:href="#DejaVuSans-117"/>
      <use x="746.578125" xlink:href="#DejaVuSans-97"/>
      <use x="807.857422" xlink:href="#DejaVuSans-116"/>
      <use x="847.066406" xlink:href="#DejaVuSans-105"/>
      <use x="874.849609" xlink:href="#DejaVuSans-111"/>
      <use x="936.03125" xlink:href="#DejaVuSans-110"/>
      <use x="999.410156" xlink:href="#DejaVuSans-115"/>
     </g>
    </g>
   </g>
  </g>
 </g>
 <defs>
  <clipPath id="p59ae97db63">
   <rect height="255.390709" width="379.428407" x="42.933593" y="2.834646"/>
  </clipPath>
 </defs>
</svg>
