<?xml version="1.0" encoding="utf-8" standalone="no"?>
<!DOCTYPE svg PUBLIC "-//W3C//DTD SVG 1.1//EN"
  "http://www.w3.org/Graphics/SVG/1.1/DTD/svg11.dtd">
<!-- Created with matplotlib (https://matplotlib.org/) -->
<svg height="288pt" version="1.1" viewBox="0 0 432 288" width="432pt" xmlns="http://www.w3.org/2000/svg" xmlns:xlink="http://www.w3.org/1999/xlink">
 <metadata>
  <rdf:RDF xmlns:cc="http://creativecommons.org/ns#" xmlns:dc="http://purl.org/dc/elements/1.1/" xmlns:rdf="http://www.w3.org/1999/02/22-rdf-syntax-ns#">
   <cc:Work>
    <dc:type rdf:resource="http://purl.org/dc/dcmitype/StillImage"/>
    <dc:date>2021-07-12T15:34:19.211737</dc:date>
    <dc:format>image/svg+xml</dc:format>
    <dc:creator>
     <cc:Agent>
      <dc:title>Matplotlib v3.3.4, https://matplotlib.org/</dc:title>
     </cc:Agent>
    </dc:creator>
   </cc:Work>
  </rdf:RDF>
 </metadata>
 <defs>
  <style type="text/css">*{stroke-linecap:butt;stroke-linejoin:round;}</style>
 </defs>
 <g id="figure_1">
  <g id="patch_1">
   <path d="M 0 288 
L 432 288 
L 432 0 
L 0 0 
z
" style="fill:#ffffff;"/>
  </g>
  <g id="axes_1">
   <g id="patch_2">
    <path d="M 69.557488 258.225354 
L 422.361999 258.225354 
L 422.361999 2.834646 
L 69.557488 2.834646 
z
" style="fill:#ffffff;"/>
   </g>
   <g id="line2d_1">
    <path clip-path="url(#p3d695c9aa7)" d="M 69.557488 127.034984 
L 69.910292 126.919089 
L 70.263097 127.281037 
L 70.615901 127.219378 
L 70.968706 126.845349 
L 71.674315 127.025556 
L 72.203521 126.437263 
L 72.379924 126.506672 
L 72.90913 127.040062 
L 73.261935 127.063708 
L 73.614739 127.385305 
L 73.967544 127.7561 
L 74.673153 127.453827 
L 75.025958 127.664773 
L 75.378762 127.390937 
L 75.731567 127.059602 
L 76.437176 127.43792 
L 76.78998 127.07681 
L 77.142785 127.133859 
L 77.495589 127.275032 
L 78.3776 126.572243 
L 78.554003 126.508498 
L 79.436014 125.2355 
L 79.788818 125.370567 
L 80.318025 125.194676 
L 80.494427 125.349449 
L 81.200036 126.592885 
L 81.552841 126.778764 
L 82.434852 127.910747 
L 82.787657 128.241137 
L 83.84607 129.678646 
L 84.022473 129.901933 
L 84.904484 131.778792 
L 85.257288 132.207104 
L 85.786495 133.214391 
L 85.962897 133.351844 
L 86.315702 133.354748 
L 86.668506 133.607923 
L 87.021311 134.014791 
L 87.374115 134.1583 
L 87.72692 134.592731 
L 88.256127 135.663933 
L 88.608931 135.955385 
L 88.785333 136.076372 
L 89.490943 137.15651 
L 90.020149 137.187052 
L 90.372954 137.346283 
L 90.725758 137.58263 
L 91.60777 137.548055 
L 91.960574 137.75427 
L 92.313379 137.682682 
L 92.489781 137.639261 
L 93.018988 137.817781 
L 93.19539 137.755803 
L 94.077401 136.60723 
L 94.253803 136.602871 
L 94.78301 136.128599 
L 95.135815 135.739594 
L 95.841424 135.674642 
L 96.547033 134.807201 
L 96.899837 134.619821 
L 97.958251 133.041367 
L 98.487458 132.219347 
L 98.840262 131.736264 
L 99.193067 131.716697 
L 99.545871 131.791722 
L 100.25148 131.28284 
L 100.604285 131.310178 
L 100.957089 130.931479 
L 101.309894 130.283798 
L 102.721112 129.340512 
L 103.073916 129.392562 
L 103.779525 128.863962 
L 104.308732 128.942293 
L 104.661537 128.538499 
L 105.014341 128.0518 
L 105.543548 127.683212 
L 106.249157 126.828739 
L 106.601961 126.886636 
L 106.778364 126.918793 
L 107.131168 126.698629 
L 107.483973 126.687985 
L 107.836777 126.864632 
L 108.189582 126.415536 
L 108.542386 125.815303 
L 109.071593 125.48782 
L 109.424397 124.897822 
L 109.777202 124.27618 
L 111.012018 123.065672 
L 111.541224 122.921815 
L 112.246834 122.319935 
L 112.599638 122.187518 
L 112.952443 121.741809 
L 113.305247 121.211378 
L 113.658052 121.152875 
L 114.010856 121.248844 
L 114.716465 120.973252 
L 115.06927 121.080354 
L 115.422074 120.879567 
L 115.951281 120.318936 
L 116.480488 120.016894 
L 117.186097 119.25914 
L 117.715303 119.260435 
L 118.068108 119.016292 
L 118.420912 119.092726 
L 118.950119 119.736775 
L 119.302924 119.839435 
L 119.479326 119.806439 
L 120.008533 120.15396 
L 120.361337 120.43719 
L 120.714142 120.607188 
L 121.066946 121.020464 
L 121.596153 122.066583 
L 122.830969 124.178171 
L 123.360176 124.383988 
L 123.71298 124.784086 
L 123.889382 124.992663 
L 124.242187 124.924747 
L 124.594991 124.732834 
L 126.535416 125.654975 
L 127.064623 125.245005 
L 128.123037 123.954583 
L 128.299439 123.67113 
L 129.18145 123.205146 
L 129.534255 122.792721 
L 129.887059 122.775651 
L 130.063461 122.831866 
L 130.416266 122.513725 
L 130.945473 122.042702 
L 131.298277 121.837923 
L 132.180288 120.654891 
L 132.533093 120.455143 
L 133.238702 119.858822 
L 133.767909 120.158345 
L 134.473518 119.518104 
L 134.826322 119.588737 
L 135.531931 119.100102 
L 136.590345 119.7133 
L 136.943149 120.393545 
L 137.472356 121.462477 
L 137.825161 121.992492 
L 138.707172 124.110771 
L 139.059976 124.635729 
L 139.765585 126.260182 
L 140.294792 127.558639 
L 141.000401 129.691782 
L 142.235217 132.123721 
L 142.764424 132.644369 
L 143.117228 133.366505 
L 143.646435 134.469415 
L 143.99924 135.014633 
L 145.763262 139.336003 
L 146.292469 139.942539 
L 147.17448 140.588021 
L 147.527285 140.862505 
L 147.880089 140.993885 
L 148.585698 141.302012 
L 148.938503 141.017538 
L 149.996916 139.069288 
L 150.702525 136.728083 
L 152.466548 131.01534 
L 153.172157 128.990988 
L 154.054168 126.410208 
L 154.759777 124.780442 
L 155.112582 124.356054 
L 156.170995 123.752987 
L 156.5238 123.982027 
L 156.876604 124.234389 
L 157.758616 124.233151 
L 158.11142 124.224733 
L 158.287822 124.181887 
L 159.169834 123.465202 
L 159.522638 123.515349 
L 160.228247 123.154598 
L 160.581052 123.176403 
L 160.933856 122.843671 
L 161.286661 122.327052 
L 161.99227 122.204034 
L 162.345074 121.880456 
L 162.697879 121.999377 
L 163.227085 122.671381 
L 163.756292 123.163415 
L 164.461901 124.458028 
L 164.991108 125.040334 
L 165.343913 125.44147 
L 165.520315 125.505631 
L 165.873119 125.410235 
L 166.225924 125.759961 
L 166.578728 126.20528 
L 167.813544 126.592539 
L 168.166349 126.193934 
L 169.04836 124.174585 
L 169.401164 123.068228 
L 172.576405 110.487172 
L 173.634819 106.452292 
L 173.987623 105.863139 
L 174.340428 105.686503 
L 174.693232 105.539213 
L 175.046037 105.787693 
L 175.398841 106.343008 
L 175.751646 107.162818 
L 176.810059 111.170421 
L 178.397679 120.807013 
L 179.632495 130.280724 
L 181.043713 140.367319 
L 182.102127 146.562598 
L 183.16054 151.351935 
L 184.042552 153.880754 
L 184.395356 154.289746 
L 184.924563 154.629524 
L 185.277367 154.49073 
L 185.630172 154.297384 
L 185.806574 154.295698 
L 186.159379 154.005081 
L 186.688585 152.934906 
L 187.217792 151.432682 
L 187.923401 148.589486 
L 190.040228 137.224855 
L 190.745837 133.498864 
L 191.275044 130.828897 
L 191.804251 128.269409 
L 192.50986 126.126261 
L 192.862664 125.659082 
L 193.215469 125.800884 
L 193.568273 126.308759 
L 193.921078 127.201518 
L 194.979491 131.405585 
L 195.861503 136.306426 
L 198.331134 150.438558 
L 199.036743 152.129112 
L 199.389548 152.553739 
L 200.271559 152.46803 
L 200.977168 151.937426 
L 201.329973 151.458385 
L 202.035582 149.869129 
L 202.388386 149.100819 
L 203.976007 143.052472 
L 204.328811 141.459652 
L 205.563627 133.335602 
L 206.62204 122.860908 
L 209.268074 92.917508 
L 209.797281 89.356973 
L 210.150085 88.251442 
L 210.50289 87.874481 
L 210.679292 87.93971 
L 210.855695 88.211111 
L 211.208499 89.621321 
L 211.561304 91.82054 
L 212.09051 96.833006 
L 213.325326 112.771495 
L 214.207337 123.754083 
L 214.912946 130.553713 
L 215.442153 133.705116 
L 215.97136 135.629427 
L 216.324164 136.161812 
L 216.676969 136.30117 
L 216.853371 136.306767 
L 217.029773 136.163463 
L 217.55898 135.152872 
L 217.911785 134.106782 
L 219.85221 126.241655 
L 220.205014 125.318946 
L 220.557819 124.308235 
L 220.910623 123.889993 
L 221.087025 123.774763 
L 221.616232 123.10909 
L 221.969037 123.071523 
L 222.145439 123.079967 
L 222.674646 122.393073 
L 223.02745 122.040346 
L 224.438668 122.115498 
L 224.791473 122.507812 
L 225.144277 122.150235 
L 225.849886 120.888567 
L 226.731898 117.71623 
L 227.437507 115.765232 
L 227.613909 115.728097 
L 227.966713 116.374084 
L 228.319518 117.654418 
L 228.848725 121.345881 
L 229.554334 127.396651 
L 230.259943 133.786285 
L 231.847563 145.48093 
L 232.200367 147.012674 
L 232.729574 148.22724 
L 232.905976 148.287579 
L 233.082379 148.143389 
L 233.435183 147.163887 
L 233.787988 145.569501 
L 234.669999 139.358792 
L 235.375608 134.562413 
L 235.904815 132.210416 
L 236.081217 131.828022 
L 236.610424 131.736188 
L 236.963228 132.048809 
L 237.668837 134.13952 
L 238.021642 135.589823 
L 240.491273 149.661438 
L 241.02048 151.788456 
L 241.549687 152.936128 
L 241.726089 152.921183 
L 241.902492 152.752583 
L 242.608101 150.64704 
L 242.960905 148.857875 
L 243.666514 143.309324 
L 244.372123 134.867537 
L 244.90133 126.788336 
L 247.018157 89.683573 
L 247.547364 85.100413 
L 247.900168 83.722626 
L 248.07657 83.805425 
L 248.429375 84.716716 
L 248.78218 86.10383 
L 249.311386 90.169909 
L 250.722604 102.653829 
L 251.604616 110.664777 
L 252.310225 114.268435 
L 252.486627 114.388693 
L 252.839431 113.462339 
L 253.192236 111.846205 
L 254.250649 105.148565 
L 254.427052 104.749774 
L 254.603454 104.660658 
L 254.779856 104.92003 
L 255.132661 106.840518 
L 255.661867 111.815808 
L 256.543879 121.007126 
L 257.602292 129.094869 
L 258.131499 133.280485 
L 259.01351 141.777513 
L 259.719119 148.906404 
L 260.424728 154.285202 
L 261.30674 158.906453 
L 261.835946 162.238251 
L 263.599969 179.399035 
L 264.129176 181.086978 
L 264.305578 181.259 
L 264.48198 180.977064 
L 265.011187 178.937716 
L 265.363992 177.826421 
L 266.951612 169.688824 
L 267.304416 168.953645 
L 267.657221 167.030287 
L 268.010025 164.832271 
L 268.36283 163.523268 
L 269.068439 159.844969 
L 269.244841 159.640739 
L 269.421243 159.188802 
L 270.126852 156.163515 
L 270.303255 155.773041 
L 270.656059 153.582025 
L 271.185266 149.621049 
L 271.538071 146.831609 
L 272.420082 136.237998 
L 273.125691 121.742673 
L 273.8313 104.84996 
L 274.713311 84.76857 
L 275.771725 64.18549 
L 276.653736 49.008342 
L 277.182943 41.68987 
L 277.535747 39.041737 
L 277.712149 38.411829 
L 277.888552 38.50946 
L 278.064954 39.368319 
L 278.241356 40.950679 
L 278.594161 47.039496 
L 279.123368 60.810254 
L 280.005379 91.382541 
L 281.592999 143.292338 
L 282.298608 162.117152 
L 282.827815 172.164515 
L 283.357022 177.948482 
L 283.709826 179.723689 
L 283.886228 179.911551 
L 284.062631 179.546514 
L 284.415435 177.559633 
L 285.650251 169.494717 
L 286.003055 169.182696 
L 286.179458 169.246397 
L 286.35586 169.523116 
L 286.532262 170.070752 
L 287.061469 172.740776 
L 287.237871 172.981039 
L 287.94348 172.705126 
L 288.119883 172.371759 
L 288.472687 170.824832 
L 289.178296 166.550056 
L 289.883905 159.100597 
L 290.413112 150.726835 
L 291.295123 134.03158 
L 294.117559 74.862568 
L 294.470364 70.527217 
L 295.175973 65.656164 
L 295.352375 65.211944 
L 295.528777 65.491218 
L 295.881582 66.812003 
L 296.234386 69.323702 
L 296.763593 77.071252 
L 297.2928 87.991118 
L 298.174811 115.311316 
L 299.586029 165.058305 
L 300.115236 177.499161 
L 300.644443 186.712837 
L 300.997247 189.887816 
L 301.350052 191.460082 
L 301.526454 191.477527 
L 301.702856 191.017619 
L 302.055661 188.374492 
L 302.408465 184.698846 
L 303.114074 174.216113 
L 304.525292 153.949838 
L 305.054499 150.330106 
L 305.760108 148.0655 
L 306.289315 147.430258 
L 306.818522 146.049862 
L 306.994924 146.036594 
L 307.876935 147.174388 
L 308.582544 149.836837 
L 308.935349 149.228162 
L 309.111751 148.455969 
L 309.288153 147.052476 
L 309.640958 141.145131 
L 310.170165 124.807082 
L 310.699371 99.965455 
L 311.934187 37.467738 
L 312.286992 27.620722 
L 312.639796 22.822526 
L 312.816198 22.359912 
L 312.992601 23.592447 
L 313.345405 30.012096 
L 314.051014 50.701572 
L 315.991439 117.010769 
L 316.520646 128.426805 
L 316.87345 133.641267 
L 317.226255 136.527169 
L 317.402657 137.021548 
L 317.579059 136.840749 
L 317.755462 136.028712 
L 318.284668 130.301863 
L 318.990277 118.701642 
L 319.519484 111.445671 
L 320.048691 106.880635 
L 320.401495 105.538867 
L 320.577898 105.048044 
L 320.930702 102.876774 
L 321.812713 95.048952 
L 322.165518 93.871232 
L 322.34192 94.078568 
L 322.694725 95.659973 
L 323.047529 98.522438 
L 323.400334 103.54932 
L 324.105943 118.725575 
L 324.987954 138.716287 
L 325.517161 145.738268 
L 326.399172 154.957827 
L 327.104781 165.175885 
L 327.281183 166.648175 
L 327.457586 166.961828 
L 327.633988 165.639246 
L 327.986792 157.803842 
L 328.515999 136.623938 
L 330.809228 16.551425 
L 330.985631 12.839288 
L 331.162033 11.721601 
L 331.338435 13.232255 
L 331.69124 21.780125 
L 332.044044 36.637109 
L 333.455262 108.005468 
L 334.337274 141.636994 
L 334.690078 150.231805 
L 334.86648 152.106206 
L 335.042883 152.794053 
L 335.219285 152.227934 
L 335.395687 150.625408 
L 336.630503 131.442218 
L 337.15971 116.472325 
L 337.688916 93.446843 
L 338.74733 37.219397 
L 339.100134 25.060998 
L 339.452939 20.577576 
L 339.629341 20.729934 
L 339.805744 22.296498 
L 340.158548 30.557865 
L 341.040559 64.291044 
L 341.746168 93.970049 
L 342.275375 105.727028 
L 342.980984 119.729492 
L 343.333789 132.87027 
L 343.862995 162.41678 
L 344.921409 227.043031 
L 345.274213 236.244184 
L 345.450616 237.780463 
L 345.627018 237.241154 
L 345.979822 233.025647 
L 346.332627 225.363548 
L 346.861834 206.959974 
L 349.331465 117.221897 
L 349.68427 113.239578 
L 349.860672 112.743026 
L 350.037074 113.503346 
L 350.389879 117.798409 
L 350.742683 125.923247 
L 351.27189 147.733157 
L 351.801097 165.36089 
L 352.153901 170.431653 
L 352.330304 171.478445 
L 352.506706 171.601781 
L 352.85951 170.309648 
L 353.035913 169.596612 
L 353.212315 169.683903 
L 353.388717 171.203623 
L 353.741522 177.883621 
L 354.270728 189.068356 
L 354.447131 191.153035 
L 354.623533 191.793871 
L 354.799935 191.33009 
L 354.976338 189.43127 
L 355.329142 181.592239 
L 355.681947 169.689941 
L 356.034751 151.743589 
L 356.916762 97.834575 
L 357.269567 86.510291 
L 357.445969 85.482091 
L 357.622371 87.024246 
L 358.151578 98.465474 
L 359.386394 131.666341 
L 359.562796 132.956537 
L 359.739198 132.650224 
L 359.915601 130.781753 
L 360.797612 113.82062 
L 360.974014 114.840138 
L 361.150416 118.184876 
L 361.503221 130.67942 
L 362.20883 166.263642 
L 363.090841 210.132719 
L 363.443646 220.306523 
L 363.620048 221.619947 
L 363.79645 220.60276 
L 363.972853 217.408368 
L 364.325657 203.018839 
L 365.384071 143.082347 
L 365.736875 134.325947 
L 365.913277 133.82851 
L 366.08968 135.808943 
L 366.618886 147.58933 
L 367.148093 165.300558 
L 367.500898 176.846592 
L 367.6773 179.700616 
L 367.853702 179.576702 
L 368.030104 176.898477 
L 368.559311 159.640509 
L 369.088518 145.44208 
L 369.26492 143.534662 
L 369.441322 143.896618 
L 369.617725 147.06845 
L 369.970529 161.077831 
L 370.499736 197.641745 
L 371.028943 234.861 
L 371.381747 246.564957 
L 371.55815 247.57501 
L 371.734552 245.653671 
L 372.087356 234.346537 
L 372.969368 195.602184 
L 373.498574 172.256267 
L 373.674977 169.282067 
L 373.851379 168.420375 
L 374.027781 168.890304 
L 374.380586 173.214963 
L 374.73339 178.877929 
L 374.909792 179.633958 
L 375.086195 177.855847 
L 375.438999 167.06505 
L 375.968206 139.156909 
L 376.497413 109.612472 
L 376.673815 104.547414 
L 376.850217 103.044581 
L 377.026619 104.905611 
L 377.379424 116.059352 
L 378.261435 151.780548 
L 378.437838 153.848301 
L 378.61424 152.607285 
L 378.967044 141.887777 
L 379.496251 125.351624 
L 380.20186 112.996013 
L 380.378262 112.672343 
L 380.554665 115.076457 
L 380.907469 124.841049 
L 381.965883 159.048076 
L 382.142285 158.541552 
L 382.318687 154.447202 
L 382.671492 137.041591 
L 384.259112 22.436461 
L 384.435514 18.449476 
L 384.611916 19.440709 
L 384.964721 31.752042 
L 385.67033 64.817815 
L 385.846732 66.282632 
L 386.023135 63.957166 
L 386.375939 57.039079 
L 386.552341 56.401171 
L 386.728744 58.050097 
L 387.25795 65.352725 
L 387.434353 64.590702 
L 387.787157 56.609363 
L 388.139962 50.340648 
L 388.316364 52.42519 
L 388.669168 68.373175 
L 389.903984 152.398339 
L 390.080386 156.248538 
L 390.256789 157.521825 
L 390.433191 156.699369 
L 390.785995 151.148274 
L 391.1388 142.36574 
L 391.491604 125.49672 
L 392.197213 84.644956 
L 392.550018 72.307492 
L 392.72642 69.830583 
L 392.902823 70.896048 
L 393.432029 80.724747 
L 393.784834 81.226443 
L 393.961236 83.808067 
L 394.843247 109.492638 
L 395.01965 109.806435 
L 395.196052 105.480604 
L 396.078063 65.224232 
L 396.254465 66.012543 
L 396.60727 71.671251 
L 396.960074 84.264425 
L 397.665683 109.99023 
L 398.371292 137.419769 
L 398.547695 139.542377 
L 398.900499 140.643905 
L 399.076901 140.079447 
L 399.253304 137.714167 
L 400.311717 111.248147 
L 400.48812 110.064337 
L 400.664522 109.917021 
L 400.840924 110.738423 
L 401.017326 110.822838 
L 401.193729 108.981732 
L 401.722935 100.288123 
L 402.07574 102.862691 
L 402.252142 102.281406 
L 402.428544 97.815515 
L 403.134153 62.562958 
L 403.310556 60.716389 
L 403.66336 66.398809 
L 403.839762 68.641103 
L 404.016165 67.60364 
L 404.368969 61.028375 
L 404.545371 61.889765 
L 404.898176 75.075913 
L 405.074578 81.343782 
L 405.25098 83.181752 
L 405.427383 80.976485 
L 405.780187 75.058799 
L 405.956589 76.391891 
L 406.309394 81.47835 
L 406.485796 79.966889 
L 406.838601 70.488878 
L 407.015003 70.013038 
L 407.191405 75.068984 
L 407.720612 96.352877 
L 407.897014 99.063459 
L 408.073417 103.996182 
L 408.426221 129.364792 
L 408.779026 153.61971 
L 408.955428 155.364084 
L 409.484635 145.440677 
L 409.661037 144.679861 
L 409.837439 142.561822 
L 410.190244 128.409328 
L 410.543048 114.045998 
L 410.71945 113.14947 
L 410.895853 116.220981 
L 411.777864 143.725194 
L 412.307071 171.637727 
L 412.659875 187.761365 
L 412.836277 191.322511 
L 413.01268 191.951473 
L 413.189082 190.518123 
L 413.365484 187.013653 
L 413.718289 168.969909 
L 414.423898 119.819319 
L 415.305909 100.188717 
L 415.482311 102.831408 
L 415.835116 121.413546 
L 416.364323 151.893665 
L 416.540725 155.581373 
L 416.717127 156.34848 
L 416.893529 155.946067 
L 417.069932 156.248586 
L 417.246334 157.22244 
L 417.422736 156.439999 
L 417.599138 152.003809 
L 419.010356 86.851863 
L 419.186759 83.127188 
L 419.363161 84.01666 
L 419.715965 96.474202 
L 420.245172 115.377504 
L 420.774379 128.592871 
L 421.303586 144.753219 
L 421.479988 141.684844 
L 422.185597 109.837683 
L 422.361999 107.905821 
L 422.361999 107.905821 
" style="fill:none;stroke:#009afa;"/>
   </g>
   <g id="matplotlib.axis_1">
    <g id="xtick_1">
     <g id="line2d_2">
      <defs>
       <path d="M 0 0 
L 0 -2.5 
" id="mfb24b31a01" style="stroke:#000000;stroke-width:0.5;"/>
      </defs>
      <g>
       <use style="stroke:#000000;stroke-width:0.5;" x="69.557488" xlink:href="#mfb24b31a01" y="258.225354"/>
      </g>
     </g>
     <g id="text_1">
      <!-- $\mathregular{0.0}$ -->
      <g transform="translate(63.157488 267.804104)scale(0.08 -0.08)">
       <defs>
        <path d="M 31.78125 66.40625 
Q 24.171875 66.40625 20.328125 58.90625 
Q 16.5 51.421875 16.5 36.375 
Q 16.5 21.390625 20.328125 13.890625 
Q 24.171875 6.390625 31.78125 6.390625 
Q 39.453125 6.390625 43.28125 13.890625 
Q 47.125 21.390625 47.125 36.375 
Q 47.125 51.421875 43.28125 58.90625 
Q 39.453125 66.40625 31.78125 66.40625 
z
M 31.78125 74.21875 
Q 44.046875 74.21875 50.515625 64.515625 
Q 56.984375 54.828125 56.984375 36.375 
Q 56.984375 17.96875 50.515625 8.265625 
Q 44.046875 -1.421875 31.78125 -1.421875 
Q 19.53125 -1.421875 13.0625 8.265625 
Q 6.59375 17.96875 6.59375 36.375 
Q 6.59375 54.828125 13.0625 64.515625 
Q 19.53125 74.21875 31.78125 74.21875 
z
" id="DejaVuSans-48"/>
        <path d="M 10.6875 12.40625 
L 21 12.40625 
L 21 0 
L 10.6875 0 
z
" id="DejaVuSans-46"/>
       </defs>
       <use transform="translate(0 0.78125)" xlink:href="#DejaVuSans-48"/>
       <use transform="translate(63.623047 0.78125)" xlink:href="#DejaVuSans-46"/>
       <use transform="translate(95.410156 0.78125)" xlink:href="#DejaVuSans-48"/>
      </g>
     </g>
    </g>
    <g id="xtick_2">
     <g id="line2d_3">
      <g>
       <use style="stroke:#000000;stroke-width:0.5;" x="157.758616" xlink:href="#mfb24b31a01" y="258.225354"/>
      </g>
     </g>
     <g id="text_2">
      <!-- $\mathregular{0.5}$ -->
      <g transform="translate(151.358616 267.804104)scale(0.08 -0.08)">
       <defs>
        <path d="M 10.796875 72.90625 
L 49.515625 72.90625 
L 49.515625 64.59375 
L 19.828125 64.59375 
L 19.828125 46.734375 
Q 21.96875 47.46875 24.109375 47.828125 
Q 26.265625 48.1875 28.421875 48.1875 
Q 40.625 48.1875 47.75 41.5 
Q 54.890625 34.8125 54.890625 23.390625 
Q 54.890625 11.625 47.5625 5.09375 
Q 40.234375 -1.421875 26.90625 -1.421875 
Q 22.3125 -1.421875 17.546875 -0.640625 
Q 12.796875 0.140625 7.71875 1.703125 
L 7.71875 11.625 
Q 12.109375 9.234375 16.796875 8.0625 
Q 21.484375 6.890625 26.703125 6.890625 
Q 35.15625 6.890625 40.078125 11.328125 
Q 45.015625 15.765625 45.015625 23.390625 
Q 45.015625 31 40.078125 35.4375 
Q 35.15625 39.890625 26.703125 39.890625 
Q 22.75 39.890625 18.8125 39.015625 
Q 14.890625 38.140625 10.796875 36.28125 
z
" id="DejaVuSans-53"/>
       </defs>
       <use transform="translate(0 0.78125)" xlink:href="#DejaVuSans-48"/>
       <use transform="translate(63.623047 0.78125)" xlink:href="#DejaVuSans-46"/>
       <use transform="translate(95.410156 0.78125)" xlink:href="#DejaVuSans-53"/>
      </g>
     </g>
    </g>
    <g id="xtick_3">
     <g id="line2d_4">
      <g>
       <use style="stroke:#000000;stroke-width:0.5;" x="245.959743" xlink:href="#mfb24b31a01" y="258.225354"/>
      </g>
     </g>
     <g id="text_3">
      <!-- $\mathregular{1.0}$ -->
      <g transform="translate(239.559743 267.804104)scale(0.08 -0.08)">
       <defs>
        <path d="M 12.40625 8.296875 
L 28.515625 8.296875 
L 28.515625 63.921875 
L 10.984375 60.40625 
L 10.984375 69.390625 
L 28.421875 72.90625 
L 38.28125 72.90625 
L 38.28125 8.296875 
L 54.390625 8.296875 
L 54.390625 0 
L 12.40625 0 
z
" id="DejaVuSans-49"/>
       </defs>
       <use transform="translate(0 0.78125)" xlink:href="#DejaVuSans-49"/>
       <use transform="translate(63.623047 0.78125)" xlink:href="#DejaVuSans-46"/>
       <use transform="translate(95.410156 0.78125)" xlink:href="#DejaVuSans-48"/>
      </g>
     </g>
    </g>
    <g id="xtick_4">
     <g id="line2d_5">
      <g>
       <use style="stroke:#000000;stroke-width:0.5;" x="334.160871" xlink:href="#mfb24b31a01" y="258.225354"/>
      </g>
     </g>
     <g id="text_4">
      <!-- $\mathregular{1.5}$ -->
      <g transform="translate(327.760871 267.804104)scale(0.08 -0.08)">
       <use transform="translate(0 0.09375)" xlink:href="#DejaVuSans-49"/>
       <use transform="translate(63.623047 0.09375)" xlink:href="#DejaVuSans-46"/>
       <use transform="translate(95.410156 0.09375)" xlink:href="#DejaVuSans-53"/>
      </g>
     </g>
    </g>
    <g id="xtick_5">
     <g id="line2d_6">
      <g>
       <use style="stroke:#000000;stroke-width:0.5;" x="422.361999" xlink:href="#mfb24b31a01" y="258.225354"/>
      </g>
     </g>
     <g id="text_5">
      <!-- $\mathregular{2.0}$ -->
      <g transform="translate(415.961999 267.804104)scale(0.08 -0.08)">
       <defs>
        <path d="M 19.1875 8.296875 
L 53.609375 8.296875 
L 53.609375 0 
L 7.328125 0 
L 7.328125 8.296875 
Q 12.9375 14.109375 22.625 23.890625 
Q 32.328125 33.6875 34.8125 36.53125 
Q 39.546875 41.84375 41.421875 45.53125 
Q 43.3125 49.21875 43.3125 52.78125 
Q 43.3125 58.59375 39.234375 62.25 
Q 35.15625 65.921875 28.609375 65.921875 
Q 23.96875 65.921875 18.8125 64.3125 
Q 13.671875 62.703125 7.8125 59.421875 
L 7.8125 69.390625 
Q 13.765625 71.78125 18.9375 73 
Q 24.125 74.21875 28.421875 74.21875 
Q 39.75 74.21875 46.484375 68.546875 
Q 53.21875 62.890625 53.21875 53.421875 
Q 53.21875 48.921875 51.53125 44.890625 
Q 49.859375 40.875 45.40625 35.40625 
Q 44.1875 33.984375 37.640625 27.21875 
Q 31.109375 20.453125 19.1875 8.296875 
z
" id="DejaVuSans-50"/>
       </defs>
       <use transform="translate(0 0.78125)" xlink:href="#DejaVuSans-50"/>
       <use transform="translate(63.623047 0.78125)" xlink:href="#DejaVuSans-46"/>
       <use transform="translate(95.410156 0.78125)" xlink:href="#DejaVuSans-48"/>
      </g>
     </g>
    </g>
    <g id="text_6">
     <!-- Time (s) -->
     <g transform="translate(223.597947 281.826136)scale(0.11 -0.11)">
      <defs>
       <path d="M -0.296875 72.90625 
L 61.375 72.90625 
L 61.375 64.59375 
L 35.5 64.59375 
L 35.5 0 
L 25.59375 0 
L 25.59375 64.59375 
L -0.296875 64.59375 
z
" id="DejaVuSans-84"/>
       <path d="M 9.421875 54.6875 
L 18.40625 54.6875 
L 18.40625 0 
L 9.421875 0 
z
M 9.421875 75.984375 
L 18.40625 75.984375 
L 18.40625 64.59375 
L 9.421875 64.59375 
z
" id="DejaVuSans-105"/>
       <path d="M 52 44.1875 
Q 55.375 50.25 60.0625 53.125 
Q 64.75 56 71.09375 56 
Q 79.640625 56 84.28125 50.015625 
Q 88.921875 44.046875 88.921875 33.015625 
L 88.921875 0 
L 79.890625 0 
L 79.890625 32.71875 
Q 79.890625 40.578125 77.09375 44.375 
Q 74.3125 48.1875 68.609375 48.1875 
Q 61.625 48.1875 57.5625 43.546875 
Q 53.515625 38.921875 53.515625 30.90625 
L 53.515625 0 
L 44.484375 0 
L 44.484375 32.71875 
Q 44.484375 40.625 41.703125 44.40625 
Q 38.921875 48.1875 33.109375 48.1875 
Q 26.21875 48.1875 22.15625 43.53125 
Q 18.109375 38.875 18.109375 30.90625 
L 18.109375 0 
L 9.078125 0 
L 9.078125 54.6875 
L 18.109375 54.6875 
L 18.109375 46.1875 
Q 21.1875 51.21875 25.484375 53.609375 
Q 29.78125 56 35.6875 56 
Q 41.65625 56 45.828125 52.96875 
Q 50 49.953125 52 44.1875 
z
" id="DejaVuSans-109"/>
       <path d="M 56.203125 29.59375 
L 56.203125 25.203125 
L 14.890625 25.203125 
Q 15.484375 15.921875 20.484375 11.0625 
Q 25.484375 6.203125 34.421875 6.203125 
Q 39.59375 6.203125 44.453125 7.46875 
Q 49.3125 8.734375 54.109375 11.28125 
L 54.109375 2.78125 
Q 49.265625 0.734375 44.1875 -0.34375 
Q 39.109375 -1.421875 33.890625 -1.421875 
Q 20.796875 -1.421875 13.15625 6.1875 
Q 5.515625 13.8125 5.515625 26.8125 
Q 5.515625 40.234375 12.765625 48.109375 
Q 20.015625 56 32.328125 56 
Q 43.359375 56 49.78125 48.890625 
Q 56.203125 41.796875 56.203125 29.59375 
z
M 47.21875 32.234375 
Q 47.125 39.59375 43.09375 43.984375 
Q 39.0625 48.390625 32.421875 48.390625 
Q 24.90625 48.390625 20.390625 44.140625 
Q 15.875 39.890625 15.1875 32.171875 
z
" id="DejaVuSans-101"/>
       <path id="DejaVuSans-32"/>
       <path d="M 31 75.875 
Q 24.46875 64.65625 21.28125 53.65625 
Q 18.109375 42.671875 18.109375 31.390625 
Q 18.109375 20.125 21.3125 9.0625 
Q 24.515625 -2 31 -13.1875 
L 23.1875 -13.1875 
Q 15.875 -1.703125 12.234375 9.375 
Q 8.59375 20.453125 8.59375 31.390625 
Q 8.59375 42.28125 12.203125 53.3125 
Q 15.828125 64.359375 23.1875 75.875 
z
" id="DejaVuSans-40"/>
       <path d="M 44.28125 53.078125 
L 44.28125 44.578125 
Q 40.484375 46.53125 36.375 47.5 
Q 32.28125 48.484375 27.875 48.484375 
Q 21.1875 48.484375 17.84375 46.4375 
Q 14.5 44.390625 14.5 40.28125 
Q 14.5 37.15625 16.890625 35.375 
Q 19.28125 33.59375 26.515625 31.984375 
L 29.59375 31.296875 
Q 39.15625 29.25 43.1875 25.515625 
Q 47.21875 21.78125 47.21875 15.09375 
Q 47.21875 7.46875 41.1875 3.015625 
Q 35.15625 -1.421875 24.609375 -1.421875 
Q 20.21875 -1.421875 15.453125 -0.5625 
Q 10.6875 0.296875 5.421875 2 
L 5.421875 11.28125 
Q 10.40625 8.6875 15.234375 7.390625 
Q 20.0625 6.109375 24.8125 6.109375 
Q 31.15625 6.109375 34.5625 8.28125 
Q 37.984375 10.453125 37.984375 14.40625 
Q 37.984375 18.0625 35.515625 20.015625 
Q 33.0625 21.96875 24.703125 23.78125 
L 21.578125 24.515625 
Q 13.234375 26.265625 9.515625 29.90625 
Q 5.8125 33.546875 5.8125 39.890625 
Q 5.8125 47.609375 11.28125 51.796875 
Q 16.75 56 26.8125 56 
Q 31.78125 56 36.171875 55.265625 
Q 40.578125 54.546875 44.28125 53.078125 
z
" id="DejaVuSans-115"/>
       <path d="M 8.015625 75.875 
L 15.828125 75.875 
Q 23.140625 64.359375 26.78125 53.3125 
Q 30.421875 42.28125 30.421875 31.390625 
Q 30.421875 20.453125 26.78125 9.375 
Q 23.140625 -1.703125 15.828125 -13.1875 
L 8.015625 -13.1875 
Q 14.5 -2 17.703125 9.0625 
Q 20.90625 20.125 20.90625 31.390625 
Q 20.90625 42.671875 17.703125 53.65625 
Q 14.5 64.65625 8.015625 75.875 
z
" id="DejaVuSans-41"/>
      </defs>
      <use xlink:href="#DejaVuSans-84"/>
      <use x="57.958984" xlink:href="#DejaVuSans-105"/>
      <use x="85.742188" xlink:href="#DejaVuSans-109"/>
      <use x="183.154297" xlink:href="#DejaVuSans-101"/>
      <use x="244.677734" xlink:href="#DejaVuSans-32"/>
      <use x="276.464844" xlink:href="#DejaVuSans-40"/>
      <use x="315.478516" xlink:href="#DejaVuSans-115"/>
      <use x="367.578125" xlink:href="#DejaVuSans-41"/>
     </g>
    </g>
   </g>
   <g id="matplotlib.axis_2">
    <g id="ytick_1">
     <g id="line2d_7">
      <defs>
       <path d="M 0 0 
L 2.5 0 
" id="m4a6a42a58c" style="stroke:#000000;stroke-width:0.5;"/>
      </defs>
      <g>
       <use style="stroke:#000000;stroke-width:0.5;" x="69.557488" xlink:href="#m4a6a42a58c" y="225.162485"/>
      </g>
     </g>
     <g id="text_7">
      <!-- $\mathregular{-5.00×10^{5}}$ -->
      <g transform="translate(20.777488 228.20186)scale(0.08 -0.08)">
       <defs>
        <path d="M 10.59375 35.5 
L 73.1875 35.5 
L 73.1875 27.203125 
L 10.59375 27.203125 
z
" id="DejaVuSans-8722"/>
        <path d="M 70.125 53.71875 
L 47.796875 31.296875 
L 70.125 8.984375 
L 64.3125 3.078125 
L 41.890625 25.484375 
L 19.484375 3.078125 
L 13.71875 8.984375 
L 35.984375 31.296875 
L 13.71875 53.71875 
L 19.484375 59.625 
L 41.890625 37.203125 
L 64.3125 59.625 
z
" id="DejaVuSans-215"/>
       </defs>
       <use transform="translate(0 0.684375)" xlink:href="#DejaVuSans-8722"/>
       <use transform="translate(83.789062 0.684375)" xlink:href="#DejaVuSans-53"/>
       <use transform="translate(147.412109 0.684375)" xlink:href="#DejaVuSans-46"/>
       <use transform="translate(179.199219 0.684375)" xlink:href="#DejaVuSans-48"/>
       <use transform="translate(242.822266 0.684375)" xlink:href="#DejaVuSans-48"/>
       <use transform="translate(306.445312 0.684375)" xlink:href="#DejaVuSans-215"/>
       <use transform="translate(390.234375 0.684375)" xlink:href="#DejaVuSans-49"/>
       <use transform="translate(453.857422 0.684375)" xlink:href="#DejaVuSans-48"/>
       <use transform="translate(518.4375 38.965625)scale(0.7)" xlink:href="#DejaVuSans-53"/>
      </g>
     </g>
    </g>
    <g id="ytick_2">
     <g id="line2d_8">
      <g>
       <use style="stroke:#000000;stroke-width:0.5;" x="69.557488" xlink:href="#m4a6a42a58c" y="176.098735"/>
      </g>
     </g>
     <g id="text_8">
      <!-- $\mathregular{-2.50×10^{5}}$ -->
      <g transform="translate(20.777488 179.13811)scale(0.08 -0.08)">
       <use transform="translate(0 0.684375)" xlink:href="#DejaVuSans-8722"/>
       <use transform="translate(83.789062 0.684375)" xlink:href="#DejaVuSans-50"/>
       <use transform="translate(147.412109 0.684375)" xlink:href="#DejaVuSans-46"/>
       <use transform="translate(179.199219 0.684375)" xlink:href="#DejaVuSans-53"/>
       <use transform="translate(242.822266 0.684375)" xlink:href="#DejaVuSans-48"/>
       <use transform="translate(306.445312 0.684375)" xlink:href="#DejaVuSans-215"/>
       <use transform="translate(390.234375 0.684375)" xlink:href="#DejaVuSans-49"/>
       <use transform="translate(453.857422 0.684375)" xlink:href="#DejaVuSans-48"/>
       <use transform="translate(518.4375 38.965625)scale(0.7)" xlink:href="#DejaVuSans-53"/>
      </g>
     </g>
    </g>
    <g id="ytick_3">
     <g id="line2d_9">
      <g>
       <use style="stroke:#000000;stroke-width:0.5;" x="69.557488" xlink:href="#m4a6a42a58c" y="127.034984"/>
      </g>
     </g>
     <g id="text_9">
      <!-- $\mathregular{0}$ -->
      <g transform="translate(60.937488 130.074359)scale(0.08 -0.08)">
       <use transform="translate(0 0.78125)" xlink:href="#DejaVuSans-48"/>
      </g>
     </g>
    </g>
    <g id="ytick_4">
     <g id="line2d_10">
      <g>
       <use style="stroke:#000000;stroke-width:0.5;" x="69.557488" xlink:href="#m4a6a42a58c" y="77.971234"/>
      </g>
     </g>
     <g id="text_10">
      <!-- $\mathregular{2.50×10^{5}}$ -->
      <g transform="translate(27.497488 81.010609)scale(0.08 -0.08)">
       <use transform="translate(0 0.684375)" xlink:href="#DejaVuSans-50"/>
       <use transform="translate(63.623047 0.684375)" xlink:href="#DejaVuSans-46"/>
       <use transform="translate(95.410156 0.684375)" xlink:href="#DejaVuSans-53"/>
       <use transform="translate(159.033203 0.684375)" xlink:href="#DejaVuSans-48"/>
       <use transform="translate(222.65625 0.684375)" xlink:href="#DejaVuSans-215"/>
       <use transform="translate(306.445312 0.684375)" xlink:href="#DejaVuSans-49"/>
       <use transform="translate(370.068359 0.684375)" xlink:href="#DejaVuSans-48"/>
       <use transform="translate(434.648438 38.965625)scale(0.7)" xlink:href="#DejaVuSans-53"/>
      </g>
     </g>
    </g>
    <g id="ytick_5">
     <g id="line2d_11">
      <g>
       <use style="stroke:#000000;stroke-width:0.5;" x="69.557488" xlink:href="#m4a6a42a58c" y="28.907484"/>
      </g>
     </g>
     <g id="text_11">
      <!-- $\mathregular{5.00×10^{5}}$ -->
      <g transform="translate(27.497488 31.946859)scale(0.08 -0.08)">
       <use transform="translate(0 0.684375)" xlink:href="#DejaVuSans-53"/>
       <use transform="translate(63.623047 0.684375)" xlink:href="#DejaVuSans-46"/>
       <use transform="translate(95.410156 0.684375)" xlink:href="#DejaVuSans-48"/>
       <use transform="translate(159.033203 0.684375)" xlink:href="#DejaVuSans-48"/>
       <use transform="translate(222.65625 0.684375)" xlink:href="#DejaVuSans-215"/>
       <use transform="translate(306.445312 0.684375)" xlink:href="#DejaVuSans-49"/>
       <use transform="translate(370.068359 0.684375)" xlink:href="#DejaVuSans-48"/>
       <use transform="translate(434.648438 38.965625)scale(0.7)" xlink:href="#DejaVuSans-53"/>
      </g>
     </g>
    </g>
    <g id="text_12">
     <!-- $M_x$ ($Nm$) -->
     <g transform="translate(14.489831 153.245)rotate(-90)scale(0.11 -0.11)">
      <defs>
       <path d="M 16.890625 72.90625 
L 31.6875 72.90625 
L 40.1875 23.78125 
L 68.40625 72.90625 
L 83.59375 72.90625 
L 69.390625 0 
L 59.8125 0 
L 72.21875 63.921875 
L 43.609375 14.015625 
L 33.984375 14.015625 
L 24.703125 64.109375 
L 12.3125 0 
L 2.6875 0 
z
" id="DejaVuSans-Oblique-77"/>
       <path d="M 60.015625 54.6875 
L 34.90625 27.875 
L 50.296875 0 
L 39.984375 0 
L 28.421875 21.6875 
L 8.296875 0 
L -2.59375 0 
L 24.3125 28.8125 
L 10.015625 54.6875 
L 20.3125 54.6875 
L 30.8125 34.90625 
L 49.125 54.6875 
z
" id="DejaVuSans-Oblique-120"/>
       <path d="M 16.890625 72.90625 
L 30.171875 72.90625 
L 50.296875 10.40625 
L 62.5 72.90625 
L 72.125 72.90625 
L 57.90625 0 
L 44.578125 0 
L 24.515625 62.890625 
L 12.3125 0 
L 2.6875 0 
z
" id="DejaVuSans-Oblique-78"/>
       <path d="M 89.796875 33.015625 
L 83.40625 0 
L 74.421875 0 
L 80.71875 32.71875 
Q 81.109375 34.8125 81.296875 36.328125 
Q 81.5 37.84375 81.5 38.921875 
Q 81.5 43.3125 79.046875 45.75 
Q 76.609375 48.1875 72.21875 48.1875 
Q 65.671875 48.1875 60.546875 43.28125 
Q 55.421875 38.375 53.90625 30.515625 
L 47.90625 0 
L 38.921875 0 
L 45.3125 32.71875 
Q 45.703125 34.515625 45.890625 36.046875 
Q 46.09375 37.59375 46.09375 38.8125 
Q 46.09375 43.265625 43.65625 45.71875 
Q 41.21875 48.1875 36.921875 48.1875 
Q 30.28125 48.1875 25.140625 43.28125 
Q 20.015625 38.375 18.5 30.515625 
L 12.5 0 
L 3.515625 0 
L 14.203125 54.6875 
L 23.1875 54.6875 
L 21.484375 46.1875 
Q 25.140625 50.984375 30.046875 53.484375 
Q 34.96875 56 40.578125 56 
Q 46.53125 56 50.359375 52.875 
Q 54.203125 49.75 54.984375 44.1875 
Q 59.078125 49.953125 64.46875 52.96875 
Q 69.875 56 75.875 56 
Q 82.90625 56 86.734375 51.953125 
Q 90.578125 47.90625 90.578125 40.484375 
Q 90.578125 38.875 90.375 36.9375 
Q 90.1875 35.015625 89.796875 33.015625 
z
" id="DejaVuSans-Oblique-109"/>
      </defs>
      <use transform="translate(0 0.125)" xlink:href="#DejaVuSans-Oblique-77"/>
      <use transform="translate(86.279297 -16.28125)scale(0.7)" xlink:href="#DejaVuSans-Oblique-120"/>
      <use transform="translate(130.439453 0.125)" xlink:href="#DejaVuSans-32"/>
      <use transform="translate(162.226562 0.125)" xlink:href="#DejaVuSans-40"/>
      <use transform="translate(201.240234 0.125)" xlink:href="#DejaVuSans-Oblique-78"/>
      <use transform="translate(276.044922 0.125)" xlink:href="#DejaVuSans-Oblique-109"/>
      <use transform="translate(373.457031 0.125)" xlink:href="#DejaVuSans-41"/>
     </g>
    </g>
   </g>
   <g id="line2d_12">
    <path clip-path="url(#p3d695c9aa7)" d="M 69.557488 127.034984 
L 69.698332 126.947642 
L 69.828967 126.910378 
L 70.375121 127.299248 
L 70.594022 127.167399 
L 70.882766 126.907308 
L 71.057438 126.909296 
L 71.409005 127.1252 
L 71.528536 127.080918 
L 72.087017 126.473398 
L 72.351426 126.683936 
L 72.556931 126.837592 
L 72.857193 126.822251 
L 73.007324 126.853052 
L 73.339113 127.293845 
L 73.674413 127.658352 
L 74.178748 127.425803 
L 74.699344 127.775141 
L 75.017901 127.406087 
L 75.215241 127.20647 
L 75.421624 127.200844 
L 75.798628 127.476204 
L 75.956182 127.387705 
L 76.355397 127.108557 
L 76.924396 127.353701 
L 77.593855 127.026687 
L 77.864579 127.156134 
L 78.047032 127.021236 
L 78.695631 126.014191 
L 79.087755 125.775465 
L 79.580906 125.073845 
L 79.784094 125.077299 
L 80.236586 125.477948 
L 80.48871 125.534305 
L 80.72074 125.747205 
L 81.362667 126.775447 
L 81.927085 127.174545 
L 82.46852 128.135357 
L 82.859175 128.268489 
L 83.245272 128.958364 
L 83.532281 129.414269 
L 84.058636 130.069912 
L 84.78258 131.569027 
L 85.200262 132.199273 
L 85.61888 133.057028 
L 85.942892 133.171509 
L 86.170087 133.142085 
L 86.405741 133.272734 
L 86.933847 133.88814 
L 87.475302 134.328783 
L 88.156642 135.441237 
L 88.398157 135.64982 
L 88.645031 136.029989 
L 89.023379 136.729089 
L 89.401728 136.853977 
L 89.65396 136.938336 
L 90.410656 137.479495 
L 90.927969 137.288647 
L 91.848675 137.646597 
L 92.0832 137.722381 
L 92.442374 137.989262 
L 92.691672 137.873606 
L 93.439566 137.28231 
L 93.688864 137.148999 
L 94.063999 136.590739 
L 94.314486 136.261226 
L 94.564973 136.204438 
L 94.821571 136.265939 
L 95.08428 136.126614 
L 95.486784 135.628525 
L 96.32422 135.18633 
L 96.759716 134.588696 
L 97.221163 134.133957 
L 98.154675 132.576453 
L 98.468338 132.367919 
L 98.964828 131.750979 
L 99.134658 131.728944 
L 99.644147 131.938767 
L 101.119262 130.480174 
L 101.400264 130.196417 
L 101.843076 130.022462 
L 102.479831 129.324557 
L 103.133965 129.402283 
L 103.481584 129.047725 
L 103.781597 129.07383 
L 104.005761 129.152649 
L 104.173074 129.075889 
L 104.988095 128.111741 
L 105.339541 127.668573 
L 105.695409 127.108582 
L 105.874595 127.03584 
L 106.236843 127.182643 
L 106.420427 127.146268 
L 106.790328 126.826377 
L 106.978743 126.802651 
L 107.369341 127.01006 
L 107.574424 126.923852 
L 108.193235 126.283891 
L 108.401881 126.184854 
L 108.850523 125.557437 
L 109.305092 124.941785 
L 109.762797 124.391237 
L 110.241988 123.618708 
L 110.960773 123.455087 
L 111.439963 122.912956 
L 111.919153 122.746569 
L 112.637938 121.793016 
L 113.117129 121.570273 
L 113.596319 121.235767 
L 114.091197 121.433592 
L 114.34522 121.353262 
L 114.853267 120.966807 
L 115.454518 120.952498 
L 116.982097 119.279406 
L 117.185217 119.176223 
L 117.794579 119.291992 
L 118.20082 119.283518 
L 118.817083 119.800476 
L 119.684463 119.779224 
L 120.383342 120.383046 
L 120.621813 120.547598 
L 121.909084 122.718494 
L 122.487175 123.773789 
L 123.070804 124.259579 
L 123.37661 124.605825 
L 123.682416 124.695374 
L 123.996018 124.537535 
L 124.309621 124.589237 
L 124.959825 125.168442 
L 125.284927 125.280315 
L 125.964375 125.725109 
L 127.058201 125.238082 
L 127.678322 124.35551 
L 127.969153 124.265653 
L 128.280517 124.042517 
L 128.591882 123.525228 
L 128.903246 123.292445 
L 129.214611 123.367024 
L 129.525975 123.258681 
L 130.079673 122.891134 
L 130.358812 122.803261 
L 130.637951 122.493055 
L 131.232058 121.61548 
L 131.529112 121.440866 
L 132.130479 120.591655 
L 132.739106 120.657793 
L 133.361023 120.079583 
L 133.671981 120.072826 
L 133.98294 119.927846 
L 134.311149 119.578951 
L 134.967567 119.413534 
L 135.321935 118.998697 
L 135.676303 119.077365 
L 135.971155 119.440269 
L 136.562277 119.809462 
L 137.154815 121.191965 
L 137.792644 122.141157 
L 138.430472 123.274103 
L 138.749387 123.74003 
L 140.992156 129.569497 
L 141.964453 131.339618 
L 142.612651 132.270346 
L 143.26085 133.281049 
L 145.178791 138.072317 
L 145.92394 138.978121 
L 146.941093 140.269076 
L 147.707046 141.063431 
L 148.473 141.205891 
L 148.728318 141.16776 
L 148.989525 140.955944 
L 149.514381 139.781912 
L 150.609627 136.779302 
L 153.333701 128.261601 
L 154.188419 125.934839 
L 154.615778 124.963627 
L 155.043137 124.419029 
L 155.923729 124.138269 
L 156.836211 124.361176 
L 157.292451 124.010704 
L 158.204933 124.019802 
L 158.661173 123.823231 
L 159.117414 123.831687 
L 159.523679 123.713624 
L 162.085442 121.836093 
L 162.393371 122.055357 
L 163.625084 123.629096 
L 164.19866 124.002981 
L 164.478317 124.281867 
L 164.926949 124.742373 
L 165.236159 124.778369 
L 165.390996 124.893623 
L 166.132331 125.995875 
L 166.831643 126.581739 
L 167.146951 126.779369 
L 167.462259 126.750144 
L 167.783262 126.54575 
L 168.136254 126.122018 
L 168.511472 125.296331 
L 170.86133 118.390024 
L 173.282635 107.855815 
L 173.954049 106.365228 
L 174.434482 106.045239 
L 174.681032 106.001218 
L 174.928782 106.104475 
L 175.3565 106.773439 
L 175.802835 107.58424 
L 176.322645 109.123971 
L 176.911167 111.787852 
L 178.192046 119.677707 
L 181.735639 144.459779 
L 182.463325 148.428594 
L 183.194448 151.220598 
L 183.867715 152.924767 
L 184.889665 154.37085 
L 185.217769 154.40473 
L 185.906495 154.162278 
L 186.267116 153.742331 
L 186.85984 152.355705 
L 187.462605 150.08311 
L 188.863138 143.743803 
L 190.072107 137.125833 
L 191.281076 130.385534 
L 192.087055 127.157895 
L 192.490045 126.481624 
L 192.893034 126.3652 
L 193.094529 126.379037 
L 193.296024 126.522042 
L 193.737459 127.382372 
L 194.612657 129.955937 
L 195.311383 133.117783 
L 195.91299 136.835406 
L 197.452207 146.347999 
L 198.224101 149.597047 
L 198.63088 150.815723 
L 199.286328 151.885735 
L 199.723679 152.227567 
L 200.393915 152.315925 
L 200.618645 152.231748 
L 201.068106 151.688757 
L 201.746288 150.17415 
L 202.702864 147.518492 
L 203.716527 144.057528 
L 204.514106 140.240473 
L 205.311685 135.269069 
L 206.132393 127.980207 
L 207.242521 115.847509 
L 208.920354 96.693175 
L 209.497454 91.846915 
L 209.838084 89.872997 
L 210.202638 88.657032 
L 210.567191 88.259147 
L 210.931744 88.900248 
L 211.304622 90.695439 
L 212.050378 97.270649 
L 213.170912 111.324527 
L 214.726271 128.834131 
L 215.573585 134.298665 
L 216.050964 135.718143 
L 216.373462 136.149458 
L 216.534712 136.270124 
L 216.85721 136.082258 
L 217.893794 133.450387 
L 218.56067 130.723367 
L 219.194392 128.378814 
L 219.669683 126.753835 
L 221.009266 123.691074 
L 221.386649 123.189601 
L 221.775839 122.603388 
L 221.970434 122.412321 
L 222.123104 122.432316 
L 223.137279 121.886769 
L 223.684266 122.047936 
L 224.429229 122.699648 
L 225.43143 121.582977 
L 226.062313 119.467753 
L 226.903491 116.90228 
L 227.113785 116.403391 
L 227.326569 116.19418 
L 227.539352 116.276629 
L 227.752136 116.583066 
L 228.199111 117.867701 
L 228.646085 120.458541 
L 230.027049 131.569751 
L 231.251143 141.890234 
L 231.743422 145.196607 
L 232.235701 147.174146 
L 232.65882 147.821126 
L 232.8358 147.786083 
L 233.023312 147.481646 
L 233.398336 146.223575 
L 233.981305 143.118947 
L 235.395409 133.756247 
L 235.937112 131.597959 
L 236.207963 131.07221 
L 236.478814 130.902658 
L 236.749666 130.974005 
L 237.020517 131.368946 
L 237.564123 133.341326 
L 238.379531 137.685375 
L 240.352282 149.286181 
L 240.955963 151.990931 
L 241.270792 152.872921 
L 241.591604 153.213231 
L 241.919434 153.069817 
L 242.259364 152.462545 
L 242.607478 151.317847 
L 242.965606 149.434917 
L 243.689646 143.643387 
L 244.413685 134.863882 
L 245.345543 118.943449 
L 246.684189 94.63134 
L 247.224644 88.564281 
L 247.624514 86.051606 
L 247.839068 85.426509 
L 248.055157 85.236508 
L 248.281561 85.50692 
L 248.735541 87.251949 
L 249.418269 92.003736 
L 250.328573 100.24761 
L 251.238877 109.000724 
L 251.694029 112.567428 
L 251.921606 113.705618 
L 252.149182 114.24126 
L 252.376758 114.184053 
L 252.763789 113.075444 
L 253.242155 110.068075 
L 253.880766 106.130487 
L 254.258433 104.811343 
L 254.385535 104.672853 
L 254.512925 104.747894 
L 254.76882 105.666424 
L 255.187937 108.54367 
L 255.816016 114.432561 
L 256.881161 124.361961 
L 258.029757 133.543657 
L 259.857655 150.716256 
L 260.525582 154.137187 
L 261.059924 156.774109 
L 261.734211 161.791147 
L 262.760428 172.499773 
L 263.247747 176.741078 
L 263.76916 178.993917 
L 264.129615 179.517587 
L 264.312644 179.350433 
L 264.678702 178.541163 
L 265.04476 177.348088 
L 265.959904 173.894638 
L 267.462661 167.544185 
L 268.061139 163.978492 
L 268.890158 159.525029 
L 269.306708 157.879235 
L 269.734827 156.242307 
L 270.609712 152.068288 
L 271.328698 146.976957 
L 272.080125 138.744451 
L 272.592374 130.547062 
L 273.722149 106.956027 
L 275.399761 72.36899 
L 276.768307 47.108426 
L 277.307052 40.962014 
L 277.542689 39.649846 
L 277.778325 39.581762 
L 278.013962 40.942039 
L 278.485234 47.512115 
L 279.038123 60.893326 
L 279.959605 90.310602 
L 281.860265 152.43778 
L 282.479663 167.145834 
L 283.07961 175.892076 
L 283.435852 178.410167 
L 283.683073 178.884501 
L 283.808301 178.750008 
L 284.060141 177.817834 
L 284.78302 173.363753 
L 285.352738 170.347377 
L 285.719851 169.307019 
L 285.854106 169.219641 
L 285.998743 169.299695 
L 286.793334 170.494269 
L 287.125356 170.633945 
L 287.498918 170.516724 
L 287.897838 169.963586 
L 288.301916 168.965305 
L 288.705994 167.323239 
L 289.116497 164.940342 
L 289.738075 159.081036 
L 290.171073 153.2454 
L 291.129504 135.287881 
L 293.672879 81.85885 
L 294.484622 70.265108 
L 295.045823 65.979787 
L 295.326423 64.793747 
L 295.607024 64.780831 
L 295.887624 66.137915 
L 296.168652 68.433285 
L 296.736276 76.780227 
L 297.309467 90.460433 
L 298.169254 117.920346 
L 299.586556 165.649384 
L 300.278445 182.317092 
L 300.813273 190.471215 
L 301.174757 192.447911 
L 301.357965 192.637082 
L 301.541173 192.460676 
L 301.724381 191.743078 
L 302.090797 188.702206 
L 302.640421 181.606763 
L 303.965792 161.1517 
L 304.809687 152.734664 
L 305.414453 149.190424 
L 306.070765 146.306338 
L 306.517132 145.335537 
L 306.927102 145.132481 
L 307.190057 145.290625 
L 307.461803 145.944555 
L 307.946898 148.091452 
L 308.588505 151.161131 
L 308.811484 151.313682 
L 309.035048 150.464264 
L 309.258611 148.431682 
L 309.610434 142.104981 
L 310.107525 126.639364 
L 310.645168 101.376304 
L 311.735821 46.047154 
L 312.157692 32.448528 
L 312.373254 28.67243 
L 312.588817 26.916841 
L 312.806755 27.113202 
L 313.024693 29.07514 
L 313.460569 37.481356 
L 314.114383 56.38884 
L 316.284391 128.169386 
L 316.663439 134.739226 
L 317.042488 137.899492 
L 317.232012 138.046207 
L 317.421536 137.457958 
L 317.802353 134.590375 
L 318.194143 129.080666 
L 319.019369 116.128496 
L 319.492334 111.913413 
L 319.985493 109.917497 
L 320.232385 109.318471 
L 320.479278 108.3425 
L 320.973063 103.974441 
L 321.687602 97.459475 
L 322.061925 95.903477 
L 322.19978 95.986878 
L 322.475489 96.870558 
L 322.751198 98.540135 
L 323.172658 103.170418 
L 323.614083 110.658133 
L 325.008482 138.679638 
L 325.484472 143.189321 
L 326.027939 148.577589 
L 326.43444 154.360558 
L 327.04662 163.315491 
L 327.203976 163.941955 
L 327.361386 163.8818 
L 327.518796 162.741351 
L 327.676206 160.538637 
L 328.005785 151.497988 
L 328.629742 125.502997 
L 329.648351 67.684379 
L 330.355987 26.925848 
L 330.738615 12.739058 
L 330.935878 10.062685 
L 331.136134 10.87882 
L 331.536647 20.113358 
L 331.975758 39.164503 
L 333.368003 107.781582 
L 334.252252 143.462778 
L 334.681744 150.099948 
L 334.89649 149.997742 
L 335.772468 142.513558 
L 336.12267 139.464209 
L 336.452928 134.241633 
L 336.833506 124.509654 
L 337.345714 104.368065 
L 339.053371 26.860195 
L 339.37403 22.632067 
L 339.538773 22.437094 
L 339.703517 23.866388 
L 340.039854 30.930413 
L 340.489922 47.723806 
L 341.634041 95.581026 
L 342.051872 102.448764 
L 342.577684 109.339876 
L 342.8937 117.24503 
L 343.315054 135.583021 
L 343.844588 169.40162 
L 344.540172 213.20365 
L 345.079943 233.255785 
L 345.359452 238.09613 
L 345.508135 238.879642 
L 345.656818 238.131805 
L 345.959219 232.712738 
L 346.42565 218.911829 
L 347.57351 173.864458 
L 349.125196 119.31459 
L 349.54885 109.131314 
L 349.690068 107.770213 
L 349.839576 108.018507 
L 349.989084 109.858811 
L 350.292355 117.178223 
L 350.774573 134.876533 
L 351.495197 161.952521 
L 351.861825 167.164361 
L 352.057605 167.336804 
L 352.253386 166.907587 
L 352.449167 167.181775 
L 352.647369 168.272988 
L 353.043772 172.961604 
L 354.496724 194.143414 
L 354.708571 194.058754 
L 354.920418 192.092034 
L 355.132265 187.347522 
L 355.526663 170.225079 
L 356.937824 91.570047 
L 357.164344 88.022136 
L 357.390864 88.088291 
L 357.617384 90.832207 
L 358.087603 102.419276 
L 358.820937 126.884863 
L 359.065381 130.557225 
L 359.309826 130.354326 
L 359.554271 126.540157 
L 360.226264 112.236531 
L 360.420673 110.203263 
L 360.580284 110.320334 
L 360.767907 112.723525 
L 361.143154 123.126304 
L 361.709918 149.324696 
L 362.906754 208.383584 
L 363.313241 220.216514 
L 363.516485 221.079343 
L 363.719729 217.540289 
L 364.126216 200.129073 
L 365.232023 140.65249 
L 365.608938 132.80692 
L 365.775508 132.282685 
L 365.94784 133.640375 
L 366.20516 138.741021 
L 366.544447 151.307775 
L 367.090746 173.155519 
L 367.362874 177.806367 
L 367.500319 177.733044 
L 367.647293 175.576126 
L 367.961566 164.778796 
L 368.578898 142.224634 
L 368.824851 138.34683 
L 368.955413 137.99806 
L 369.085975 138.798163 
L 369.347099 143.620254 
L 369.635416 153.572844 
L 370.052559 177.39669 
L 371.071067 247.024918 
L 371.254061 250.997315 
L 371.437056 250.396357 
L 371.621402 245.788736 
L 372.166376 218.221831 
L 372.978165 181.057154 
L 373.274098 174.935058 
L 373.424697 174.970479 
L 373.745751 179.936246 
L 374.242232 190.052243 
L 374.410317 191.244831 
L 374.578402 190.308052 
L 374.746486 187.050616 
L 375.082656 173.954964 
L 376.290812 111.473457 
L 376.469418 108.221201 
L 376.648024 108.489337 
L 376.82663 112.228995 
L 377.945894 153.686323 
L 378.140082 155.776321 
L 378.334729 153.819735 
L 378.73065 142.050017 
L 379.720454 104.890999 
L 379.89443 104.22702 
L 380.068405 106.364007 
L 380.376869 116.022874 
L 381.468547 165.35611 
L 381.617972 166.972628 
L 381.736687 165.7835 
L 382.038157 153.874684 
L 382.824597 102.733651 
L 383.771087 32.064057 
L 384.086871 23.908872 
L 384.244764 25.234899 
L 384.560548 35.059431 
L 385.278667 59.972795 
L 385.560125 62.082813 
L 385.700854 62.673776 
L 385.983337 65.527877 
L 386.265821 68.409678 
L 386.429345 67.465057 
L 386.756395 58.634986 
L 387.24697 39.619598 
L 387.410494 36.975231 
L 387.574019 37.434647 
L 387.737544 40.96486 
L 388.133646 59.504937 
L 389.817641 161.617118 
L 390.116325 167.848046 
L 390.276627 166.305686 
L 390.622002 152.402825 
L 391.775624 85.61718 
L 392.16286 81.777468 
L 392.550096 79.385976 
L 392.744575 79.040108 
L 392.939055 79.248909 
L 393.133534 81.240762 
L 393.522493 95.070838 
L 393.911453 108.06836 
L 394.105932 108.906682 
L 394.300412 107.388844 
L 394.494891 103.297197 
L 395.496323 68.733307 
L 395.70532 66.519656 
L 395.914317 66.592445 
L 396.123314 68.304564 
L 396.34299 71.190604 
L 396.562666 76.763215 
L 397.880722 132.206312 
L 398.229231 137.114822 
L 398.403485 137.191309 
L 398.577739 135.85387 
L 399.274755 124.66421 
L 399.449009 125.332508 
L 399.599671 125.152248 
L 399.750332 123.064774 
L 400.202538 112.186603 
L 400.355165 110.781583 
L 400.507793 110.420403 
L 400.66042 110.428799 
L 400.813047 110.794927 
L 401.118302 112.054498 
L 401.270929 111.13054 
L 401.576184 103.530685 
L 402.223322 85.873538 
L 402.830151 70.568705 
L 403.331373 64.115363 
L 403.439801 64.233702 
L 403.666469 67.865554 
L 404.154967 78.215101 
L 404.283253 78.343784 
L 404.668112 75.789794 
L 404.796399 76.000911 
L 405.31979 81.629122 
L 405.454349 80.427316 
L 405.995939 69.559179 
L 406.133851 70.505458 
L 406.550211 77.124638 
L 406.827784 78.243486 
L 406.966571 80.400502 
L 407.244144 93.506255 
L 407.660504 119.28868 
L 408.354436 146.916407 
L 408.633677 156.252642 
L 408.782191 154.437966 
L 410.257265 96.978293 
L 410.435593 97.872503 
L 410.61392 104.571138 
L 411.525435 155.375187 
L 412.459753 193.070077 
L 412.649846 193.203767 
L 412.83994 190.127022 
L 412.993913 185.002051 
L 413.346715 159.792454 
L 413.800413 120.154365 
L 414.096792 110.419936 
L 414.530842 104.052204 
L 414.687002 103.264093 
L 414.844398 104.106297 
L 415.15919 111.131201 
L 415.499344 129.593495 
L 415.843104 152.12007 
L 416.187593 162.02728 
L 416.359838 163.77395 
L 416.532083 162.828199 
L 416.708687 157.583072 
L 417.620703 111.803855 
L 417.95337 106.886003 
L 418.097363 105.476458 
L 418.408395 98.141715 
L 418.720121 89.795309 
L 418.875983 89.889413 
L 419.212925 100.765819 
L 420.396419 144.335825 
L 420.569088 142.334686 
L 421.088515 130.970558 
L 421.435273 123.070167 
L 422.302167 92.103034 
L 422.361999 90.860545 
L 422.361999 90.860545 
" style="fill:none;stroke:#e36f47;"/>
   </g>
   <g id="patch_3">
    <path d="M 69.557488 258.225354 
L 69.557488 2.834646 
" style="fill:none;stroke:#000000;stroke-linecap:square;stroke-linejoin:miter;"/>
   </g>
   <g id="patch_4">
    <path d="M 69.557488 258.225354 
L 422.361999 258.225354 
" style="fill:none;stroke:#000000;stroke-linecap:square;stroke-linejoin:miter;"/>
   </g>
   <g id="legend_1">
    <g id="patch_5">
     <path d="M 299.041999 39.119646 
L 418.361999 39.119646 
L 418.361999 6.834646 
L 299.041999 6.834646 
z
" style="fill:#ffffff;stroke:#000000;stroke-linejoin:miter;"/>
    </g>
    <g id="line2d_13">
     <path d="M 305.441999 16.513396 
L 321.441999 16.513396 
" style="fill:none;stroke:#009afa;stroke-linejoin:miter;"/>
    </g>
    <g id="line2d_14"/>
    <g id="text_13">
     <!-- GXBeam -->
     <g transform="translate(327.841999 19.313396)scale(0.08 -0.08)">
      <defs>
       <path d="M 59.515625 10.40625 
L 59.515625 29.984375 
L 43.40625 29.984375 
L 43.40625 38.09375 
L 69.28125 38.09375 
L 69.28125 6.78125 
Q 63.578125 2.734375 56.6875 0.65625 
Q 49.8125 -1.421875 42 -1.421875 
Q 24.90625 -1.421875 15.25 8.5625 
Q 5.609375 18.5625 5.609375 36.375 
Q 5.609375 54.25 15.25 64.234375 
Q 24.90625 74.21875 42 74.21875 
Q 49.125 74.21875 55.546875 72.453125 
Q 61.96875 70.703125 67.390625 67.28125 
L 67.390625 56.78125 
Q 61.921875 61.421875 55.765625 63.765625 
Q 49.609375 66.109375 42.828125 66.109375 
Q 29.4375 66.109375 22.71875 58.640625 
Q 16.015625 51.171875 16.015625 36.375 
Q 16.015625 21.625 22.71875 14.15625 
Q 29.4375 6.6875 42.828125 6.6875 
Q 48.046875 6.6875 52.140625 7.59375 
Q 56.25 8.5 59.515625 10.40625 
z
" id="DejaVuSans-71"/>
       <path d="M 6.296875 72.90625 
L 16.890625 72.90625 
L 35.015625 45.796875 
L 53.21875 72.90625 
L 63.8125 72.90625 
L 40.375 37.890625 
L 65.375 0 
L 54.78125 0 
L 34.28125 31 
L 13.625 0 
L 2.984375 0 
L 29 38.921875 
z
" id="DejaVuSans-88"/>
       <path d="M 19.671875 34.8125 
L 19.671875 8.109375 
L 35.5 8.109375 
Q 43.453125 8.109375 47.28125 11.40625 
Q 51.125 14.703125 51.125 21.484375 
Q 51.125 28.328125 47.28125 31.5625 
Q 43.453125 34.8125 35.5 34.8125 
z
M 19.671875 64.796875 
L 19.671875 42.828125 
L 34.28125 42.828125 
Q 41.5 42.828125 45.03125 45.53125 
Q 48.578125 48.25 48.578125 53.8125 
Q 48.578125 59.328125 45.03125 62.0625 
Q 41.5 64.796875 34.28125 64.796875 
z
M 9.8125 72.90625 
L 35.015625 72.90625 
Q 46.296875 72.90625 52.390625 68.21875 
Q 58.5 63.53125 58.5 54.890625 
Q 58.5 48.1875 55.375 44.234375 
Q 52.25 40.28125 46.1875 39.3125 
Q 53.46875 37.75 57.5 32.78125 
Q 61.53125 27.828125 61.53125 20.40625 
Q 61.53125 10.640625 54.890625 5.3125 
Q 48.25 0 35.984375 0 
L 9.8125 0 
z
" id="DejaVuSans-66"/>
       <path d="M 34.28125 27.484375 
Q 23.390625 27.484375 19.1875 25 
Q 14.984375 22.515625 14.984375 16.5 
Q 14.984375 11.71875 18.140625 8.90625 
Q 21.296875 6.109375 26.703125 6.109375 
Q 34.1875 6.109375 38.703125 11.40625 
Q 43.21875 16.703125 43.21875 25.484375 
L 43.21875 27.484375 
z
M 52.203125 31.203125 
L 52.203125 0 
L 43.21875 0 
L 43.21875 8.296875 
Q 40.140625 3.328125 35.546875 0.953125 
Q 30.953125 -1.421875 24.3125 -1.421875 
Q 15.921875 -1.421875 10.953125 3.296875 
Q 6 8.015625 6 15.921875 
Q 6 25.140625 12.171875 29.828125 
Q 18.359375 34.515625 30.609375 34.515625 
L 43.21875 34.515625 
L 43.21875 35.40625 
Q 43.21875 41.609375 39.140625 45 
Q 35.0625 48.390625 27.6875 48.390625 
Q 23 48.390625 18.546875 47.265625 
Q 14.109375 46.140625 10.015625 43.890625 
L 10.015625 52.203125 
Q 14.9375 54.109375 19.578125 55.046875 
Q 24.21875 56 28.609375 56 
Q 40.484375 56 46.34375 49.84375 
Q 52.203125 43.703125 52.203125 31.203125 
z
" id="DejaVuSans-97"/>
      </defs>
      <use xlink:href="#DejaVuSans-71"/>
      <use x="77.490234" xlink:href="#DejaVuSans-88"/>
      <use x="145.996094" xlink:href="#DejaVuSans-66"/>
      <use x="214.599609" xlink:href="#DejaVuSans-101"/>
      <use x="276.123047" xlink:href="#DejaVuSans-97"/>
      <use x="337.402344" xlink:href="#DejaVuSans-109"/>
     </g>
    </g>
    <g id="line2d_15">
     <path d="M 305.441999 28.255896 
L 321.441999 28.255896 
" style="fill:none;stroke:#e36f47;stroke-linejoin:miter;"/>
    </g>
    <g id="line2d_16"/>
    <g id="text_14">
     <!-- DifferentialEquations -->
     <g transform="translate(327.841999 31.055896)scale(0.08 -0.08)">
      <defs>
       <path d="M 19.671875 64.796875 
L 19.671875 8.109375 
L 31.59375 8.109375 
Q 46.6875 8.109375 53.6875 14.9375 
Q 60.6875 21.78125 60.6875 36.53125 
Q 60.6875 51.171875 53.6875 57.984375 
Q 46.6875 64.796875 31.59375 64.796875 
z
M 9.8125 72.90625 
L 30.078125 72.90625 
Q 51.265625 72.90625 61.171875 64.09375 
Q 71.09375 55.28125 71.09375 36.53125 
Q 71.09375 17.671875 61.125 8.828125 
Q 51.171875 0 30.078125 0 
L 9.8125 0 
z
" id="DejaVuSans-68"/>
       <path d="M 37.109375 75.984375 
L 37.109375 68.5 
L 28.515625 68.5 
Q 23.6875 68.5 21.796875 66.546875 
Q 19.921875 64.59375 19.921875 59.515625 
L 19.921875 54.6875 
L 34.71875 54.6875 
L 34.71875 47.703125 
L 19.921875 47.703125 
L 19.921875 0 
L 10.890625 0 
L 10.890625 47.703125 
L 2.296875 47.703125 
L 2.296875 54.6875 
L 10.890625 54.6875 
L 10.890625 58.5 
Q 10.890625 67.625 15.140625 71.796875 
Q 19.390625 75.984375 28.609375 75.984375 
z
" id="DejaVuSans-102"/>
       <path d="M 41.109375 46.296875 
Q 39.59375 47.171875 37.8125 47.578125 
Q 36.03125 48 33.890625 48 
Q 26.265625 48 22.1875 43.046875 
Q 18.109375 38.09375 18.109375 28.8125 
L 18.109375 0 
L 9.078125 0 
L 9.078125 54.6875 
L 18.109375 54.6875 
L 18.109375 46.1875 
Q 20.953125 51.171875 25.484375 53.578125 
Q 30.03125 56 36.53125 56 
Q 37.453125 56 38.578125 55.875 
Q 39.703125 55.765625 41.0625 55.515625 
z
" id="DejaVuSans-114"/>
       <path d="M 54.890625 33.015625 
L 54.890625 0 
L 45.90625 0 
L 45.90625 32.71875 
Q 45.90625 40.484375 42.875 44.328125 
Q 39.84375 48.1875 33.796875 48.1875 
Q 26.515625 48.1875 22.3125 43.546875 
Q 18.109375 38.921875 18.109375 30.90625 
L 18.109375 0 
L 9.078125 0 
L 9.078125 54.6875 
L 18.109375 54.6875 
L 18.109375 46.1875 
Q 21.34375 51.125 25.703125 53.5625 
Q 30.078125 56 35.796875 56 
Q 45.21875 56 50.046875 50.171875 
Q 54.890625 44.34375 54.890625 33.015625 
z
" id="DejaVuSans-110"/>
       <path d="M 18.3125 70.21875 
L 18.3125 54.6875 
L 36.8125 54.6875 
L 36.8125 47.703125 
L 18.3125 47.703125 
L 18.3125 18.015625 
Q 18.3125 11.328125 20.140625 9.421875 
Q 21.96875 7.515625 27.59375 7.515625 
L 36.8125 7.515625 
L 36.8125 0 
L 27.59375 0 
Q 17.1875 0 13.234375 3.875 
Q 9.28125 7.765625 9.28125 18.015625 
L 9.28125 47.703125 
L 2.6875 47.703125 
L 2.6875 54.6875 
L 9.28125 54.6875 
L 9.28125 70.21875 
z
" id="DejaVuSans-116"/>
       <path d="M 9.421875 75.984375 
L 18.40625 75.984375 
L 18.40625 0 
L 9.421875 0 
z
" id="DejaVuSans-108"/>
       <path d="M 9.8125 72.90625 
L 55.90625 72.90625 
L 55.90625 64.59375 
L 19.671875 64.59375 
L 19.671875 43.015625 
L 54.390625 43.015625 
L 54.390625 34.71875 
L 19.671875 34.71875 
L 19.671875 8.296875 
L 56.78125 8.296875 
L 56.78125 0 
L 9.8125 0 
z
" id="DejaVuSans-69"/>
       <path d="M 14.796875 27.296875 
Q 14.796875 17.390625 18.875 11.75 
Q 22.953125 6.109375 30.078125 6.109375 
Q 37.203125 6.109375 41.296875 11.75 
Q 45.40625 17.390625 45.40625 27.296875 
Q 45.40625 37.203125 41.296875 42.84375 
Q 37.203125 48.484375 30.078125 48.484375 
Q 22.953125 48.484375 18.875 42.84375 
Q 14.796875 37.203125 14.796875 27.296875 
z
M 45.40625 8.203125 
Q 42.578125 3.328125 38.25 0.953125 
Q 33.9375 -1.421875 27.875 -1.421875 
Q 17.96875 -1.421875 11.734375 6.484375 
Q 5.515625 14.40625 5.515625 27.296875 
Q 5.515625 40.1875 11.734375 48.09375 
Q 17.96875 56 27.875 56 
Q 33.9375 56 38.25 53.625 
Q 42.578125 51.265625 45.40625 46.390625 
L 45.40625 54.6875 
L 54.390625 54.6875 
L 54.390625 -20.796875 
L 45.40625 -20.796875 
z
" id="DejaVuSans-113"/>
       <path d="M 8.5 21.578125 
L 8.5 54.6875 
L 17.484375 54.6875 
L 17.484375 21.921875 
Q 17.484375 14.15625 20.5 10.265625 
Q 23.53125 6.390625 29.59375 6.390625 
Q 36.859375 6.390625 41.078125 11.03125 
Q 45.3125 15.671875 45.3125 23.6875 
L 45.3125 54.6875 
L 54.296875 54.6875 
L 54.296875 0 
L 45.3125 0 
L 45.3125 8.40625 
Q 42.046875 3.421875 37.71875 1 
Q 33.40625 -1.421875 27.6875 -1.421875 
Q 18.265625 -1.421875 13.375 4.4375 
Q 8.5 10.296875 8.5 21.578125 
z
M 31.109375 56 
z
" id="DejaVuSans-117"/>
       <path d="M 30.609375 48.390625 
Q 23.390625 48.390625 19.1875 42.75 
Q 14.984375 37.109375 14.984375 27.296875 
Q 14.984375 17.484375 19.15625 11.84375 
Q 23.34375 6.203125 30.609375 6.203125 
Q 37.796875 6.203125 41.984375 11.859375 
Q 46.1875 17.53125 46.1875 27.296875 
Q 46.1875 37.015625 41.984375 42.703125 
Q 37.796875 48.390625 30.609375 48.390625 
z
M 30.609375 56 
Q 42.328125 56 49.015625 48.375 
Q 55.71875 40.765625 55.71875 27.296875 
Q 55.71875 13.875 49.015625 6.21875 
Q 42.328125 -1.421875 30.609375 -1.421875 
Q 18.84375 -1.421875 12.171875 6.21875 
Q 5.515625 13.875 5.515625 27.296875 
Q 5.515625 40.765625 12.171875 48.375 
Q 18.84375 56 30.609375 56 
z
" id="DejaVuSans-111"/>
      </defs>
      <use xlink:href="#DejaVuSans-68"/>
      <use x="77.001953" xlink:href="#DejaVuSans-105"/>
      <use x="104.785156" xlink:href="#DejaVuSans-102"/>
      <use x="139.990234" xlink:href="#DejaVuSans-102"/>
      <use x="175.195312" xlink:href="#DejaVuSans-101"/>
      <use x="236.71875" xlink:href="#DejaVuSans-114"/>
      <use x="275.582031" xlink:href="#DejaVuSans-101"/>
      <use x="337.105469" xlink:href="#DejaVuSans-110"/>
      <use x="400.484375" xlink:href="#DejaVuSans-116"/>
      <use x="439.693359" xlink:href="#DejaVuSans-105"/>
      <use x="467.476562" xlink:href="#DejaVuSans-97"/>
      <use x="528.755859" xlink:href="#DejaVuSans-108"/>
      <use x="556.539062" xlink:href="#DejaVuSans-69"/>
      <use x="619.722656" xlink:href="#DejaVuSans-113"/>
      <use x="683.199219" xlink:href="#DejaVuSans-117"/>
      <use x="746.578125" xlink:href="#DejaVuSans-97"/>
      <use x="807.857422" xlink:href="#DejaVuSans-116"/>
      <use x="847.066406" xlink:href="#DejaVuSans-105"/>
      <use x="874.849609" xlink:href="#DejaVuSans-111"/>
      <use x="936.03125" xlink:href="#DejaVuSans-110"/>
      <use x="999.410156" xlink:href="#DejaVuSans-115"/>
     </g>
    </g>
   </g>
  </g>
 </g>
 <defs>
  <clipPath id="p3d695c9aa7">
   <rect height="255.390709" width="352.804512" x="69.557488" y="2.834646"/>
  </clipPath>
 </defs>
</svg>
