<?xml version="1.0" encoding="utf-8" standalone="no"?>
<!DOCTYPE svg PUBLIC "-//W3C//DTD SVG 1.1//EN"
  "http://www.w3.org/Graphics/SVG/1.1/DTD/svg11.dtd">
<!-- Created with matplotlib (https://matplotlib.org/) -->
<svg height="288pt" version="1.1" viewBox="0 0 432 288" width="432pt" xmlns="http://www.w3.org/2000/svg" xmlns:xlink="http://www.w3.org/1999/xlink">
 <metadata>
  <rdf:RDF xmlns:cc="http://creativecommons.org/ns#" xmlns:dc="http://purl.org/dc/elements/1.1/" xmlns:rdf="http://www.w3.org/1999/02/22-rdf-syntax-ns#">
   <cc:Work>
    <dc:type rdf:resource="http://purl.org/dc/dcmitype/StillImage"/>
    <dc:date>2021-07-12T15:34:20.574052</dc:date>
    <dc:format>image/svg+xml</dc:format>
    <dc:creator>
     <cc:Agent>
      <dc:title>Matplotlib v3.3.4, https://matplotlib.org/</dc:title>
     </cc:Agent>
    </dc:creator>
   </cc:Work>
  </rdf:RDF>
 </metadata>
 <defs>
  <style type="text/css">*{stroke-linecap:butt;stroke-linejoin:round;}</style>
 </defs>
 <g id="figure_1">
  <g id="patch_1">
   <path d="M 0 288 
L 432 288 
L 432 0 
L 0 0 
z
" style="fill:#ffffff;"/>
  </g>
  <g id="axes_1">
   <g id="patch_2">
    <path d="M 64.557544 258.225354 
L 422.361999 258.225354 
L 422.361999 2.834646 
L 64.557544 2.834646 
z
" style="fill:#ffffff;"/>
   </g>
   <g id="line2d_1">
    <path clip-path="url(#pd97af3c922)" d="M 64.557544 148.866734 
L 71.713633 148.987229 
L 72.965948 149.011066 
L 74.754971 149.068009 
L 76.365091 148.947139 
L 80.479842 148.713347 
L 84.057887 148.583003 
L 86.74142 148.682613 
L 88.530442 148.655665 
L 89.782758 148.97983 
L 91.392878 149.733365 
L 92.824096 150.954535 
L 95.328727 153.067981 
L 96.759945 153.957795 
L 97.475554 154.073999 
L 98.01226 154.103882 
L 98.548967 153.864533 
L 99.264576 153.409153 
L 100.159087 152.369893 
L 100.695794 151.515449 
L 101.948109 148.909084 
L 103.379327 144.981632 
L 106.77847 135.751539 
L 107.672981 133.732556 
L 108.746394 131.714657 
L 109.99871 129.79091 
L 111.251025 128.452063 
L 111.966634 128.11967 
L 112.503341 128.145264 
L 113.21895 128.513694 
L 113.755656 129.134599 
L 114.471265 130.30418 
L 115.186874 131.986263 
L 115.902483 134.298002 
L 116.796994 137.949614 
L 117.691505 142.349183 
L 118.943821 149.795001 
L 120.732843 162.021005 
L 122.342963 172.309317 
L 123.416377 177.728289 
L 124.131986 180.369414 
L 124.668692 181.730677 
L 125.205399 182.497363 
L 125.563203 182.771546 
L 125.921008 182.793073 
L 126.278812 182.609925 
L 126.636617 182.235553 
L 127.173323 181.260524 
L 127.888932 179.466862 
L 128.783444 176.408064 
L 132.719293 161.004874 
L 133.613804 158.539692 
L 134.508315 156.685107 
L 136.476239 152.643775 
L 137.549653 149.831635 
L 138.444164 147.059544 
L 139.875382 141.505378 
L 142.022208 133.392432 
L 142.91672 130.87302 
L 143.632328 129.451553 
L 144.169035 128.899994 
L 144.52684 128.801009 
L 144.884644 128.905868 
L 145.242448 129.24354 
L 145.779155 130.220071 
L 146.494764 132.245555 
L 147.389275 135.606227 
L 149.3572 142.970508 
L 150.251711 145.367986 
L 150.788418 146.236112 
L 151.325124 146.734441 
L 151.682929 146.829371 
L 152.398538 146.806785 
L 152.935244 146.521091 
L 154.008658 145.644397 
L 155.082071 144.49219 
L 156.334387 143.220851 
L 157.4078 142.601381 
L 158.839018 142.040758 
L 160.270236 140.966279 
L 160.806942 140.201035 
L 161.522551 138.675501 
L 162.23816 136.537161 
L 162.953769 133.792847 
L 166.531814 118.34619 
L 167.247422 116.684636 
L 167.605227 116.264376 
L 167.963031 116.078148 
L 168.320836 116.235159 
L 168.67864 116.807853 
L 169.215347 118.230873 
L 169.752054 120.662829 
L 170.467663 125.133857 
L 171.362174 132.549686 
L 172.793392 147.168516 
L 174.403512 162.982551 
L 175.476925 171.336244 
L 176.729241 179.400449 
L 178.697165 190.269159 
L 180.486187 199.126501 
L 181.201796 201.649035 
L 181.738503 202.99242 
L 182.27521 203.635595 
L 182.633014 203.812889 
L 182.990819 203.61444 
L 183.527525 202.833866 
L 184.064232 201.347114 
L 184.600939 199.293864 
L 185.316547 195.367461 
L 186.211059 189.280493 
L 188.894592 170.729418 
L 189.789103 165.852421 
L 190.504712 162.725078 
L 191.220321 160.54541 
L 192.293734 158.397685 
L 193.009343 157.107416 
L 193.903854 154.765263 
L 194.619463 151.750393 
L 195.15617 148.54181 
L 195.871779 142.719597 
L 196.945192 130.857929 
L 198.37641 114.050578 
L 199.092019 108.128987 
L 199.628726 105.495272 
L 199.98653 104.770975 
L 200.165432 104.74232 
L 200.344335 104.990169 
L 200.702139 106.337975 
L 201.059944 108.698288 
L 201.59665 114.164778 
L 202.312259 125.014181 
L 203.20677 142.742221 
L 204.637988 171.641558 
L 205.174695 179.337007 
L 205.711401 184.180839 
L 206.069206 185.596977 
L 206.248108 185.775239 
L 206.42701 185.612274 
L 206.605913 185.064417 
L 206.963717 182.911432 
L 207.500424 177.679274 
L 208.216033 167.63953 
L 210.005055 142.143346 
L 210.541762 137.188818 
L 211.257371 132.631684 
L 212.151882 128.973022 
L 213.404197 125.344998 
L 215.908828 119.719516 
L 216.624437 116.914415 
L 217.340046 113.075854 
L 218.055655 108.416936 
L 220.202482 92.436367 
L 220.560286 90.975186 
L 220.918091 90.452369 
L 221.096993 90.56052 
L 221.275895 90.886638 
L 221.6337 92.338414 
L 221.991504 94.950967 
L 222.528211 100.755078 
L 223.422722 113.766392 
L 224.85394 134.895286 
L 225.569549 142.103333 
L 226.106255 145.149062 
L 226.46406 145.938213 
L 226.642962 146.016322 
L 226.821864 145.872614 
L 227.179669 144.982745 
L 227.895278 142.058351 
L 228.431984 139.868685 
L 228.789789 139.20984 
L 228.968691 139.16716 
L 229.147593 139.316219 
L 229.326496 139.680955 
L 229.6843 141.221177 
L 230.221007 145.334695 
L 230.757713 151.331833 
L 231.652224 164.416794 
L 235.766976 231.645767 
L 236.482585 238.931105 
L 236.840389 241.004527 
L 237.198194 241.818954 
L 237.377096 241.685223 
L 237.555998 241.161533 
L 237.913802 238.938627 
L 238.271607 235.143576 
L 238.808314 226.737912 
L 239.702825 207.587544 
L 240.95514 180.827686 
L 241.491847 173.400699 
L 241.849651 170.550207 
L 242.207456 169.123873 
L 242.386358 168.907083 
L 242.56526 169.073488 
L 242.923065 170.329386 
L 243.459771 173.410096 
L 244.354283 179.36052 
L 244.712087 180.855602 
L 245.069892 181.481913 
L 245.248794 181.337696 
L 245.606598 180.321704 
L 245.964403 178.573221 
L 246.501109 174.508608 
L 247.753425 164.640605 
L 248.111229 163.149471 
L 248.290132 162.813077 
L 248.469034 162.811888 
L 248.647936 163.227181 
L 249.005741 165.271908 
L 249.363545 168.905566 
L 249.900252 176.888493 
L 251.33147 199.810285 
L 251.868176 204.688263 
L 252.225981 206.365472 
L 252.583785 207.163143 
L 252.762687 207.24061 
L 252.94159 207.062665 
L 253.299394 206.087588 
L 253.657198 204.268861 
L 254.015003 201.055217 
L 254.55171 193.438908 
L 255.088416 182.065705 
L 255.982927 157.14168 
L 257.414145 108.874389 
L 259.739874 27.100663 
L 260.276581 16.219583 
L 260.634385 11.987467 
L 260.99219 10.15563 
L 261.171092 10.062685 
L 261.349994 10.601376 
L 261.707799 13.608767 
L 262.244505 21.788251 
L 262.781212 33.899674 
L 264.928039 88.253372 
L 265.285843 92.499742 
L 265.643648 94.526281 
L 265.82255 94.708708 
L 266.001452 94.344507 
L 266.359257 92.186382 
L 267.074866 85.165384 
L 267.611572 80.487118 
L 267.969377 78.950299 
L 268.148279 78.761487 
L 268.327181 78.983445 
L 268.684986 80.731581 
L 269.04279 84.06004 
L 269.579497 92.244614 
L 270.116203 104.112627 
L 270.831812 126.135039 
L 271.726323 161.76456 
L 273.336444 226.310293 
L 273.87315 240.808512 
L 274.409857 249.016586 
L 274.767661 250.997315 
L 274.946564 250.805899 
L 275.304368 248.413729 
L 275.662172 243.758192 
L 276.198879 232.1031 
L 276.914488 210.903155 
L 278.70351 151.955036 
L 279.598021 130.218164 
L 280.31363 118.015367 
L 280.850337 111.843642 
L 281.565946 105.522518 
L 282.281555 101.460669 
L 282.639359 100.387589 
L 282.818262 100.405775 
L 282.997164 100.752253 
L 283.354968 102.509924 
L 283.712773 106.161657 
L 284.249479 114.671532 
L 286.396306 154.002435 
L 286.933013 158.569489 
L 287.111915 159.342651 
L 287.290817 159.590223 
L 287.46972 159.371167 
L 287.827524 157.718663 
L 288.185328 154.109914 
L 288.722035 145.000031 
L 289.437644 128.201806 
L 290.868862 93.101245 
L 291.763373 77.061069 
L 292.30008 71.377671 
L 292.657884 69.705859 
L 292.836786 69.70181 
L 293.015689 70.250984 
L 293.373493 72.968733 
L 293.731297 78.279584 
L 294.268004 91.04686 
L 294.983613 116.247353 
L 297.309342 208.527484 
L 297.846049 219.014544 
L 298.203853 222.110337 
L 298.382755 222.59204 
L 298.561658 222.417935 
L 298.74056 221.603838 
L 299.098364 218.359964 
L 299.813973 208.632679 
L 300.708484 196.410178 
L 301.245191 192.014128 
L 301.424093 191.466575 
L 301.602996 191.462555 
L 301.781898 191.854463 
L 302.139702 193.642987 
L 302.497507 197.297594 
L 303.213116 209.064897 
L 304.107627 224.923476 
L 304.465431 228.597384 
L 304.644333 229.585361 
L 304.823236 229.897219 
L 305.002138 229.457972 
L 305.359942 226.728306 
L 305.896649 219.021112 
L 306.970062 201.438637 
L 307.327867 198.828573 
L 307.506769 198.44462 
L 307.685671 198.625004 
L 308.043476 200.334821 
L 308.937987 206.976849 
L 309.116889 207.544823 
L 309.295791 207.666625 
L 309.474694 207.205011 
L 309.832498 204.251196 
L 310.190302 198.833469 
L 310.727009 186.885648 
L 312.516031 142.361674 
L 313.052738 132.441261 
L 313.410543 129.100193 
L 313.589445 128.799909 
L 313.768347 129.503687 
L 313.947249 131.364495 
L 314.305054 139.279719 
L 314.84176 161.254204 
L 315.736272 214.324369 
L 316.272978 239.874471 
L 316.630783 248.249706 
L 316.809685 249.106399 
L 316.988587 247.732903 
L 317.346392 239.493768 
L 317.883098 217.71988 
L 319.314316 151.967942 
L 320.208827 121.211308 
L 320.924436 103.326796 
L 321.640045 90.970385 
L 322.355654 82.618114 
L 322.713458 80.095001 
L 323.071263 78.956001 
L 323.250165 79.044096 
L 323.429067 79.727074 
L 323.786872 82.660002 
L 324.323578 89.344925 
L 325.039187 101.374171 
L 325.575894 112.706188 
L 326.470405 137.94893 
L 327.543819 170.553891 
L 328.080525 180.647617 
L 328.617232 185.913285 
L 328.975036 188.262049 
L 329.511743 190.255715 
L 329.690645 190.439138 
L 329.869547 190.049951 
L 330.227352 187.231003 
L 330.585156 182.006117 
L 331.121863 169.386933 
L 332.731983 127.538217 
L 333.089788 123.071067 
L 333.26869 122.779718 
L 333.447592 123.91125 
L 333.805397 130.311265 
L 335.236614 167.146257 
L 335.773321 173.000993 
L 337.204539 183.632065 
L 337.920148 187.901644 
L 338.09905 188.271403 
L 338.277952 187.987327 
L 338.456854 186.94999 
L 338.814659 182.287838 
L 339.351366 170.059694 
L 340.603681 139.643541 
L 340.961486 134.702096 
L 341.140388 133.698284 
L 341.31929 133.860205 
L 341.498192 135.417449 
L 341.855997 142.740155 
L 343.108312 178.537384 
L 343.466117 182.936043 
L 343.645019 183.807205 
L 343.823921 183.826819 
L 344.002823 182.974021 
L 344.360628 178.317932 
L 344.897335 165.16745 
L 345.970748 136.568403 
L 347.044161 118.234543 
L 347.401966 114.666448 
L 347.580868 114.396392 
L 347.75977 115.400815 
L 348.117575 121.210069 
L 348.654281 136.176972 
L 349.548793 164.563775 
L 350.085499 174.409672 
L 350.264401 175.625658 
L 350.443304 175.820615 
L 350.622206 175.15677 
L 350.801108 173.579792 
L 351.158913 166.903555 
L 351.874522 143.269657 
L 352.947935 101.181231 
L 353.842446 66.274848 
L 354.379153 54.879819 
L 354.736957 51.347002 
L 354.915859 50.750254 
L 355.094762 50.896828 
L 355.273664 51.67077 
L 355.631468 55.141816 
L 355.989273 61.168578 
L 356.883784 79.940734 
L 357.241588 82.873239 
L 357.420491 83.017025 
L 357.599393 82.486811 
L 358.136099 80.005594 
L 358.315002 80.461445 
L 358.672806 84.003207 
L 359.209513 91.829154 
L 359.74622 102.740758 
L 360.282926 118.422561 
L 361.35634 157.04081 
L 361.714144 163.498582 
L 361.893046 164.641631 
L 362.071948 164.653298 
L 362.429753 163.068143 
L 363.145362 159.504387 
L 363.503166 155.316862 
L 363.860971 146.417814 
L 364.934384 110.862365 
L 365.292189 106.511229 
L 365.471091 105.87515 
L 365.649993 106.104526 
L 365.828895 107.210669 
L 366.1867 111.686293 
L 366.723406 122.536623 
L 367.260113 142.121383 
L 368.333526 195.430083 
L 369.049135 226.271846 
L 369.40694 236.354059 
L 369.764744 240.803324 
L 369.943647 241.302657 
L 370.122549 240.781096 
L 370.480353 237.174628 
L 371.195962 224.619887 
L 371.732669 210.598603 
L 372.269375 188.949328 
L 373.342789 137.483601 
L 373.879496 124.993551 
L 374.952909 105.845827 
L 375.131811 104.102452 
L 375.310713 103.587342 
L 375.489616 104.545429 
L 375.84742 110.06167 
L 376.384127 117.974185 
L 377.278638 124.643452 
L 378.173149 138.037926 
L 378.352051 138.038536 
L 378.888758 134.967476 
L 379.06766 135.818078 
L 379.246562 138.766984 
L 379.604367 150.842063 
L 380.319976 179.263288 
L 380.67778 184.187527 
L 380.856682 184.541454 
L 381.214487 183.748544 
L 381.751194 181.74988 
L 382.108998 177.99412 
L 383.003509 162.767003 
L 383.182411 163.802156 
L 384.076922 176.399152 
L 384.255825 176.062211 
L 384.613629 172.040875 
L 384.971434 167.550557 
L 385.329238 165.701553 
L 385.687043 164.084252 
L 386.044847 160.06762 
L 387.11826 142.446861 
L 387.297163 143.319234 
L 387.654967 148.131837 
L 388.907283 169.667915 
L 389.265087 174.511404 
L 390.159598 189.139161 
L 390.3385 189.963111 
L 390.517403 189.478722 
L 390.696305 187.443265 
L 391.054109 178.511566 
L 392.485327 133.043407 
L 393.379838 115.074876 
L 393.916545 107.403525 
L 394.453252 94.439084 
L 395.168861 74.456525 
L 395.526665 70.251579 
L 395.705567 70.148887 
L 395.88447 71.062073 
L 396.242274 75.417487 
L 396.600078 82.750089 
L 396.957883 94.597489 
L 398.210198 146.389959 
L 398.568003 150.353839 
L 398.746905 150.431825 
L 398.925807 149.530663 
L 399.10471 147.542292 
L 399.462514 139.590533 
L 399.820319 130.220694 
L 399.999221 127.907875 
L 400.178123 127.751355 
L 400.535927 131.20306 
L 401.251536 139.381093 
L 401.788243 140.872101 
L 402.146047 142.926081 
L 402.32495 142.568916 
L 402.861656 137.817121 
L 403.219461 137.214338 
L 403.398363 136.192243 
L 404.113972 128.725538 
L 404.292874 128.970417 
L 404.471776 130.545474 
L 405.008483 137.459868 
L 405.187385 136.72236 
L 405.724092 130.336162 
L 405.902994 131.549421 
L 406.976408 148.093906 
L 407.334212 150.044823 
L 407.513114 150.202044 
L 407.692017 150.943377 
L 407.870919 153.027524 
L 408.228723 161.914708 
L 408.76543 185.203889 
L 409.481039 217.438073 
L 410.554452 246.984325 
L 410.733354 248.594603 
L 410.912257 247.938501 
L 411.091159 245.051726 
L 412.343474 213.688173 
L 413.237986 194.12021 
L 413.59579 178.321836 
L 414.311399 136.452699 
L 415.20591 102.169359 
L 415.563715 96.136302 
L 415.742617 95.41235 
L 415.921519 95.95916 
L 416.279323 100.332119 
L 416.81603 111.650115 
L 417.531639 129.118668 
L 417.710541 129.129773 
L 418.068346 127.15185 
L 418.247248 128.181858 
L 418.783955 134.596998 
L 418.962857 134.798409 
L 419.141759 134.591467 
L 419.320661 134.869592 
L 419.678466 136.296656 
L 419.857368 135.79878 
L 420.394075 131.855844 
L 420.572977 131.877198 
L 421.109684 133.90313 
L 421.288586 133.919322 
L 421.467488 133.154528 
L 421.64639 131.405696 
L 422.004195 124.654215 
L 422.361999 116.51436 
L 422.361999 116.51436 
" style="fill:none;stroke:#009afa;"/>
   </g>
   <g id="matplotlib.axis_1">
    <g id="xtick_1">
     <g id="line2d_2">
      <defs>
       <path d="M 0 0 
L 0 -2.5 
" id="m090809b9c2" style="stroke:#000000;stroke-width:0.5;"/>
      </defs>
      <g>
       <use style="stroke:#000000;stroke-width:0.5;" x="64.557544" xlink:href="#m090809b9c2" y="258.225354"/>
      </g>
     </g>
     <g id="text_1">
      <!-- $\mathregular{0.0}$ -->
      <g transform="translate(58.157544 267.804104)scale(0.08 -0.08)">
       <defs>
        <path d="M 31.78125 66.40625 
Q 24.171875 66.40625 20.328125 58.90625 
Q 16.5 51.421875 16.5 36.375 
Q 16.5 21.390625 20.328125 13.890625 
Q 24.171875 6.390625 31.78125 6.390625 
Q 39.453125 6.390625 43.28125 13.890625 
Q 47.125 21.390625 47.125 36.375 
Q 47.125 51.421875 43.28125 58.90625 
Q 39.453125 66.40625 31.78125 66.40625 
z
M 31.78125 74.21875 
Q 44.046875 74.21875 50.515625 64.515625 
Q 56.984375 54.828125 56.984375 36.375 
Q 56.984375 17.96875 50.515625 8.265625 
Q 44.046875 -1.421875 31.78125 -1.421875 
Q 19.53125 -1.421875 13.0625 8.265625 
Q 6.59375 17.96875 6.59375 36.375 
Q 6.59375 54.828125 13.0625 64.515625 
Q 19.53125 74.21875 31.78125 74.21875 
z
" id="DejaVuSans-48"/>
        <path d="M 10.6875 12.40625 
L 21 12.40625 
L 21 0 
L 10.6875 0 
z
" id="DejaVuSans-46"/>
       </defs>
       <use transform="translate(0 0.78125)" xlink:href="#DejaVuSans-48"/>
       <use transform="translate(63.623047 0.78125)" xlink:href="#DejaVuSans-46"/>
       <use transform="translate(95.410156 0.78125)" xlink:href="#DejaVuSans-48"/>
      </g>
     </g>
    </g>
    <g id="xtick_2">
     <g id="line2d_3">
      <g>
       <use style="stroke:#000000;stroke-width:0.5;" x="154.008658" xlink:href="#m090809b9c2" y="258.225354"/>
      </g>
     </g>
     <g id="text_2">
      <!-- $\mathregular{0.5}$ -->
      <g transform="translate(147.608658 267.804104)scale(0.08 -0.08)">
       <defs>
        <path d="M 10.796875 72.90625 
L 49.515625 72.90625 
L 49.515625 64.59375 
L 19.828125 64.59375 
L 19.828125 46.734375 
Q 21.96875 47.46875 24.109375 47.828125 
Q 26.265625 48.1875 28.421875 48.1875 
Q 40.625 48.1875 47.75 41.5 
Q 54.890625 34.8125 54.890625 23.390625 
Q 54.890625 11.625 47.5625 5.09375 
Q 40.234375 -1.421875 26.90625 -1.421875 
Q 22.3125 -1.421875 17.546875 -0.640625 
Q 12.796875 0.140625 7.71875 1.703125 
L 7.71875 11.625 
Q 12.109375 9.234375 16.796875 8.0625 
Q 21.484375 6.890625 26.703125 6.890625 
Q 35.15625 6.890625 40.078125 11.328125 
Q 45.015625 15.765625 45.015625 23.390625 
Q 45.015625 31 40.078125 35.4375 
Q 35.15625 39.890625 26.703125 39.890625 
Q 22.75 39.890625 18.8125 39.015625 
Q 14.890625 38.140625 10.796875 36.28125 
z
" id="DejaVuSans-53"/>
       </defs>
       <use transform="translate(0 0.78125)" xlink:href="#DejaVuSans-48"/>
       <use transform="translate(63.623047 0.78125)" xlink:href="#DejaVuSans-46"/>
       <use transform="translate(95.410156 0.78125)" xlink:href="#DejaVuSans-53"/>
      </g>
     </g>
    </g>
    <g id="xtick_3">
     <g id="line2d_4">
      <g>
       <use style="stroke:#000000;stroke-width:0.5;" x="243.459771" xlink:href="#m090809b9c2" y="258.225354"/>
      </g>
     </g>
     <g id="text_3">
      <!-- $\mathregular{1.0}$ -->
      <g transform="translate(237.059771 267.804104)scale(0.08 -0.08)">
       <defs>
        <path d="M 12.40625 8.296875 
L 28.515625 8.296875 
L 28.515625 63.921875 
L 10.984375 60.40625 
L 10.984375 69.390625 
L 28.421875 72.90625 
L 38.28125 72.90625 
L 38.28125 8.296875 
L 54.390625 8.296875 
L 54.390625 0 
L 12.40625 0 
z
" id="DejaVuSans-49"/>
       </defs>
       <use transform="translate(0 0.78125)" xlink:href="#DejaVuSans-49"/>
       <use transform="translate(63.623047 0.78125)" xlink:href="#DejaVuSans-46"/>
       <use transform="translate(95.410156 0.78125)" xlink:href="#DejaVuSans-48"/>
      </g>
     </g>
    </g>
    <g id="xtick_4">
     <g id="line2d_5">
      <g>
       <use style="stroke:#000000;stroke-width:0.5;" x="332.910885" xlink:href="#m090809b9c2" y="258.225354"/>
      </g>
     </g>
     <g id="text_4">
      <!-- $\mathregular{1.5}$ -->
      <g transform="translate(326.510885 267.804104)scale(0.08 -0.08)">
       <use transform="translate(0 0.09375)" xlink:href="#DejaVuSans-49"/>
       <use transform="translate(63.623047 0.09375)" xlink:href="#DejaVuSans-46"/>
       <use transform="translate(95.410156 0.09375)" xlink:href="#DejaVuSans-53"/>
      </g>
     </g>
    </g>
    <g id="xtick_5">
     <g id="line2d_6">
      <g>
       <use style="stroke:#000000;stroke-width:0.5;" x="422.361999" xlink:href="#m090809b9c2" y="258.225354"/>
      </g>
     </g>
     <g id="text_5">
      <!-- $\mathregular{2.0}$ -->
      <g transform="translate(415.961999 267.804104)scale(0.08 -0.08)">
       <defs>
        <path d="M 19.1875 8.296875 
L 53.609375 8.296875 
L 53.609375 0 
L 7.328125 0 
L 7.328125 8.296875 
Q 12.9375 14.109375 22.625 23.890625 
Q 32.328125 33.6875 34.8125 36.53125 
Q 39.546875 41.84375 41.421875 45.53125 
Q 43.3125 49.21875 43.3125 52.78125 
Q 43.3125 58.59375 39.234375 62.25 
Q 35.15625 65.921875 28.609375 65.921875 
Q 23.96875 65.921875 18.8125 64.3125 
Q 13.671875 62.703125 7.8125 59.421875 
L 7.8125 69.390625 
Q 13.765625 71.78125 18.9375 73 
Q 24.125 74.21875 28.421875 74.21875 
Q 39.75 74.21875 46.484375 68.546875 
Q 53.21875 62.890625 53.21875 53.421875 
Q 53.21875 48.921875 51.53125 44.890625 
Q 49.859375 40.875 45.40625 35.40625 
Q 44.1875 33.984375 37.640625 27.21875 
Q 31.109375 20.453125 19.1875 8.296875 
z
" id="DejaVuSans-50"/>
       </defs>
       <use transform="translate(0 0.78125)" xlink:href="#DejaVuSans-50"/>
       <use transform="translate(63.623047 0.78125)" xlink:href="#DejaVuSans-46"/>
       <use transform="translate(95.410156 0.78125)" xlink:href="#DejaVuSans-48"/>
      </g>
     </g>
    </g>
    <g id="text_6">
     <!-- Time (s) -->
     <g transform="translate(221.097975 281.826136)scale(0.11 -0.11)">
      <defs>
       <path d="M -0.296875 72.90625 
L 61.375 72.90625 
L 61.375 64.59375 
L 35.5 64.59375 
L 35.5 0 
L 25.59375 0 
L 25.59375 64.59375 
L -0.296875 64.59375 
z
" id="DejaVuSans-84"/>
       <path d="M 9.421875 54.6875 
L 18.40625 54.6875 
L 18.40625 0 
L 9.421875 0 
z
M 9.421875 75.984375 
L 18.40625 75.984375 
L 18.40625 64.59375 
L 9.421875 64.59375 
z
" id="DejaVuSans-105"/>
       <path d="M 52 44.1875 
Q 55.375 50.25 60.0625 53.125 
Q 64.75 56 71.09375 56 
Q 79.640625 56 84.28125 50.015625 
Q 88.921875 44.046875 88.921875 33.015625 
L 88.921875 0 
L 79.890625 0 
L 79.890625 32.71875 
Q 79.890625 40.578125 77.09375 44.375 
Q 74.3125 48.1875 68.609375 48.1875 
Q 61.625 48.1875 57.5625 43.546875 
Q 53.515625 38.921875 53.515625 30.90625 
L 53.515625 0 
L 44.484375 0 
L 44.484375 32.71875 
Q 44.484375 40.625 41.703125 44.40625 
Q 38.921875 48.1875 33.109375 48.1875 
Q 26.21875 48.1875 22.15625 43.53125 
Q 18.109375 38.875 18.109375 30.90625 
L 18.109375 0 
L 9.078125 0 
L 9.078125 54.6875 
L 18.109375 54.6875 
L 18.109375 46.1875 
Q 21.1875 51.21875 25.484375 53.609375 
Q 29.78125 56 35.6875 56 
Q 41.65625 56 45.828125 52.96875 
Q 50 49.953125 52 44.1875 
z
" id="DejaVuSans-109"/>
       <path d="M 56.203125 29.59375 
L 56.203125 25.203125 
L 14.890625 25.203125 
Q 15.484375 15.921875 20.484375 11.0625 
Q 25.484375 6.203125 34.421875 6.203125 
Q 39.59375 6.203125 44.453125 7.46875 
Q 49.3125 8.734375 54.109375 11.28125 
L 54.109375 2.78125 
Q 49.265625 0.734375 44.1875 -0.34375 
Q 39.109375 -1.421875 33.890625 -1.421875 
Q 20.796875 -1.421875 13.15625 6.1875 
Q 5.515625 13.8125 5.515625 26.8125 
Q 5.515625 40.234375 12.765625 48.109375 
Q 20.015625 56 32.328125 56 
Q 43.359375 56 49.78125 48.890625 
Q 56.203125 41.796875 56.203125 29.59375 
z
M 47.21875 32.234375 
Q 47.125 39.59375 43.09375 43.984375 
Q 39.0625 48.390625 32.421875 48.390625 
Q 24.90625 48.390625 20.390625 44.140625 
Q 15.875 39.890625 15.1875 32.171875 
z
" id="DejaVuSans-101"/>
       <path id="DejaVuSans-32"/>
       <path d="M 31 75.875 
Q 24.46875 64.65625 21.28125 53.65625 
Q 18.109375 42.671875 18.109375 31.390625 
Q 18.109375 20.125 21.3125 9.0625 
Q 24.515625 -2 31 -13.1875 
L 23.1875 -13.1875 
Q 15.875 -1.703125 12.234375 9.375 
Q 8.59375 20.453125 8.59375 31.390625 
Q 8.59375 42.28125 12.203125 53.3125 
Q 15.828125 64.359375 23.1875 75.875 
z
" id="DejaVuSans-40"/>
       <path d="M 44.28125 53.078125 
L 44.28125 44.578125 
Q 40.484375 46.53125 36.375 47.5 
Q 32.28125 48.484375 27.875 48.484375 
Q 21.1875 48.484375 17.84375 46.4375 
Q 14.5 44.390625 14.5 40.28125 
Q 14.5 37.15625 16.890625 35.375 
Q 19.28125 33.59375 26.515625 31.984375 
L 29.59375 31.296875 
Q 39.15625 29.25 43.1875 25.515625 
Q 47.21875 21.78125 47.21875 15.09375 
Q 47.21875 7.46875 41.1875 3.015625 
Q 35.15625 -1.421875 24.609375 -1.421875 
Q 20.21875 -1.421875 15.453125 -0.5625 
Q 10.6875 0.296875 5.421875 2 
L 5.421875 11.28125 
Q 10.40625 8.6875 15.234375 7.390625 
Q 20.0625 6.109375 24.8125 6.109375 
Q 31.15625 6.109375 34.5625 8.28125 
Q 37.984375 10.453125 37.984375 14.40625 
Q 37.984375 18.0625 35.515625 20.015625 
Q 33.0625 21.96875 24.703125 23.78125 
L 21.578125 24.515625 
Q 13.234375 26.265625 9.515625 29.90625 
Q 5.8125 33.546875 5.8125 39.890625 
Q 5.8125 47.609375 11.28125 51.796875 
Q 16.75 56 26.8125 56 
Q 31.78125 56 36.171875 55.265625 
Q 40.578125 54.546875 44.28125 53.078125 
z
" id="DejaVuSans-115"/>
       <path d="M 8.015625 75.875 
L 15.828125 75.875 
Q 23.140625 64.359375 26.78125 53.3125 
Q 30.421875 42.28125 30.421875 31.390625 
Q 30.421875 20.453125 26.78125 9.375 
Q 23.140625 -1.703125 15.828125 -13.1875 
L 8.015625 -13.1875 
Q 14.5 -2 17.703125 9.0625 
Q 20.90625 20.125 20.90625 31.390625 
Q 20.90625 42.671875 17.703125 53.65625 
Q 14.5 64.65625 8.015625 75.875 
z
" id="DejaVuSans-41"/>
      </defs>
      <use xlink:href="#DejaVuSans-84"/>
      <use x="57.958984" xlink:href="#DejaVuSans-105"/>
      <use x="85.742188" xlink:href="#DejaVuSans-109"/>
      <use x="183.154297" xlink:href="#DejaVuSans-101"/>
      <use x="244.677734" xlink:href="#DejaVuSans-32"/>
      <use x="276.464844" xlink:href="#DejaVuSans-40"/>
      <use x="315.478516" xlink:href="#DejaVuSans-115"/>
      <use x="367.578125" xlink:href="#DejaVuSans-41"/>
     </g>
    </g>
   </g>
   <g id="matplotlib.axis_2">
    <g id="ytick_1">
     <g id="line2d_7">
      <defs>
       <path d="M 0 0 
L 2.5 0 
" id="m45812d9ab9" style="stroke:#000000;stroke-width:0.5;"/>
      </defs>
      <g>
       <use style="stroke:#000000;stroke-width:0.5;" x="64.557544" xlink:href="#m45812d9ab9" y="225.55321"/>
      </g>
     </g>
     <g id="text_7">
      <!-- $\mathregular{-2.0×10^{6}}$ -->
      <g transform="translate(20.817544 228.592585)scale(0.08 -0.08)">
       <defs>
        <path d="M 10.59375 35.5 
L 73.1875 35.5 
L 73.1875 27.203125 
L 10.59375 27.203125 
z
" id="DejaVuSans-8722"/>
        <path d="M 70.125 53.71875 
L 47.796875 31.296875 
L 70.125 8.984375 
L 64.3125 3.078125 
L 41.890625 25.484375 
L 19.484375 3.078125 
L 13.71875 8.984375 
L 35.984375 31.296875 
L 13.71875 53.71875 
L 19.484375 59.625 
L 41.890625 37.203125 
L 64.3125 59.625 
z
" id="DejaVuSans-215"/>
        <path d="M 33.015625 40.375 
Q 26.375 40.375 22.484375 35.828125 
Q 18.609375 31.296875 18.609375 23.390625 
Q 18.609375 15.53125 22.484375 10.953125 
Q 26.375 6.390625 33.015625 6.390625 
Q 39.65625 6.390625 43.53125 10.953125 
Q 47.40625 15.53125 47.40625 23.390625 
Q 47.40625 31.296875 43.53125 35.828125 
Q 39.65625 40.375 33.015625 40.375 
z
M 52.59375 71.296875 
L 52.59375 62.3125 
Q 48.875 64.0625 45.09375 64.984375 
Q 41.3125 65.921875 37.59375 65.921875 
Q 27.828125 65.921875 22.671875 59.328125 
Q 17.53125 52.734375 16.796875 39.40625 
Q 19.671875 43.65625 24.015625 45.921875 
Q 28.375 48.1875 33.59375 48.1875 
Q 44.578125 48.1875 50.953125 41.515625 
Q 57.328125 34.859375 57.328125 23.390625 
Q 57.328125 12.15625 50.6875 5.359375 
Q 44.046875 -1.421875 33.015625 -1.421875 
Q 20.359375 -1.421875 13.671875 8.265625 
Q 6.984375 17.96875 6.984375 36.375 
Q 6.984375 53.65625 15.1875 63.9375 
Q 23.390625 74.21875 37.203125 74.21875 
Q 40.921875 74.21875 44.703125 73.484375 
Q 48.484375 72.75 52.59375 71.296875 
z
" id="DejaVuSans-54"/>
       </defs>
       <use transform="translate(0 0.765625)" xlink:href="#DejaVuSans-8722"/>
       <use transform="translate(83.789062 0.765625)" xlink:href="#DejaVuSans-50"/>
       <use transform="translate(147.412109 0.765625)" xlink:href="#DejaVuSans-46"/>
       <use transform="translate(179.199219 0.765625)" xlink:href="#DejaVuSans-48"/>
       <use transform="translate(242.822266 0.765625)" xlink:href="#DejaVuSans-215"/>
       <use transform="translate(326.611328 0.765625)" xlink:href="#DejaVuSans-49"/>
       <use transform="translate(390.234375 0.765625)" xlink:href="#DejaVuSans-48"/>
       <use transform="translate(454.814453 39.046875)scale(0.7)" xlink:href="#DejaVuSans-54"/>
      </g>
     </g>
    </g>
    <g id="ytick_2">
     <g id="line2d_8">
      <g>
       <use style="stroke:#000000;stroke-width:0.5;" x="64.557544" xlink:href="#m45812d9ab9" y="187.209972"/>
      </g>
     </g>
     <g id="text_8">
      <!-- $\mathregular{-1.0×10^{6}}$ -->
      <g transform="translate(20.817544 190.249347)scale(0.08 -0.08)">
       <use transform="translate(0 0.765625)" xlink:href="#DejaVuSans-8722"/>
       <use transform="translate(83.789062 0.765625)" xlink:href="#DejaVuSans-49"/>
       <use transform="translate(147.412109 0.765625)" xlink:href="#DejaVuSans-46"/>
       <use transform="translate(179.199219 0.765625)" xlink:href="#DejaVuSans-48"/>
       <use transform="translate(242.822266 0.765625)" xlink:href="#DejaVuSans-215"/>
       <use transform="translate(326.611328 0.765625)" xlink:href="#DejaVuSans-49"/>
       <use transform="translate(390.234375 0.765625)" xlink:href="#DejaVuSans-48"/>
       <use transform="translate(454.814453 39.046875)scale(0.7)" xlink:href="#DejaVuSans-54"/>
      </g>
     </g>
    </g>
    <g id="ytick_3">
     <g id="line2d_9">
      <g>
       <use style="stroke:#000000;stroke-width:0.5;" x="64.557544" xlink:href="#m45812d9ab9" y="148.866734"/>
      </g>
     </g>
     <g id="text_9">
      <!-- $\mathregular{0}$ -->
      <g transform="translate(55.937544 151.906109)scale(0.08 -0.08)">
       <use transform="translate(0 0.78125)" xlink:href="#DejaVuSans-48"/>
      </g>
     </g>
    </g>
    <g id="ytick_4">
     <g id="line2d_10">
      <g>
       <use style="stroke:#000000;stroke-width:0.5;" x="64.557544" xlink:href="#m45812d9ab9" y="110.523495"/>
      </g>
     </g>
     <g id="text_10">
      <!-- $\mathregular{1.0×10^{6}}$ -->
      <g transform="translate(27.537544 113.56287)scale(0.08 -0.08)">
       <use transform="translate(0 0.765625)" xlink:href="#DejaVuSans-49"/>
       <use transform="translate(63.623047 0.765625)" xlink:href="#DejaVuSans-46"/>
       <use transform="translate(95.410156 0.765625)" xlink:href="#DejaVuSans-48"/>
       <use transform="translate(159.033203 0.765625)" xlink:href="#DejaVuSans-215"/>
       <use transform="translate(242.822266 0.765625)" xlink:href="#DejaVuSans-49"/>
       <use transform="translate(306.445312 0.765625)" xlink:href="#DejaVuSans-48"/>
       <use transform="translate(371.025391 39.046875)scale(0.7)" xlink:href="#DejaVuSans-54"/>
      </g>
     </g>
    </g>
    <g id="ytick_5">
     <g id="line2d_11">
      <g>
       <use style="stroke:#000000;stroke-width:0.5;" x="64.557544" xlink:href="#m45812d9ab9" y="72.180257"/>
      </g>
     </g>
     <g id="text_11">
      <!-- $\mathregular{2.0×10^{6}}$ -->
      <g transform="translate(27.537544 75.219632)scale(0.08 -0.08)">
       <use transform="translate(0 0.765625)" xlink:href="#DejaVuSans-50"/>
       <use transform="translate(63.623047 0.765625)" xlink:href="#DejaVuSans-46"/>
       <use transform="translate(95.410156 0.765625)" xlink:href="#DejaVuSans-48"/>
       <use transform="translate(159.033203 0.765625)" xlink:href="#DejaVuSans-215"/>
       <use transform="translate(242.822266 0.765625)" xlink:href="#DejaVuSans-49"/>
       <use transform="translate(306.445312 0.765625)" xlink:href="#DejaVuSans-48"/>
       <use transform="translate(371.025391 39.046875)scale(0.7)" xlink:href="#DejaVuSans-54"/>
      </g>
     </g>
    </g>
    <g id="ytick_6">
     <g id="line2d_12">
      <g>
       <use style="stroke:#000000;stroke-width:0.5;" x="64.557544" xlink:href="#m45812d9ab9" y="33.837019"/>
      </g>
     </g>
     <g id="text_12">
      <!-- $\mathregular{3.0×10^{6}}$ -->
      <g transform="translate(27.537544 36.876394)scale(0.08 -0.08)">
       <defs>
        <path d="M 40.578125 39.3125 
Q 47.65625 37.796875 51.625 33 
Q 55.609375 28.21875 55.609375 21.1875 
Q 55.609375 10.40625 48.1875 4.484375 
Q 40.765625 -1.421875 27.09375 -1.421875 
Q 22.515625 -1.421875 17.65625 -0.515625 
Q 12.796875 0.390625 7.625 2.203125 
L 7.625 11.71875 
Q 11.71875 9.328125 16.59375 8.109375 
Q 21.484375 6.890625 26.8125 6.890625 
Q 36.078125 6.890625 40.9375 10.546875 
Q 45.796875 14.203125 45.796875 21.1875 
Q 45.796875 27.640625 41.28125 31.265625 
Q 36.765625 34.90625 28.71875 34.90625 
L 20.21875 34.90625 
L 20.21875 43.015625 
L 29.109375 43.015625 
Q 36.375 43.015625 40.234375 45.921875 
Q 44.09375 48.828125 44.09375 54.296875 
Q 44.09375 59.90625 40.109375 62.90625 
Q 36.140625 65.921875 28.71875 65.921875 
Q 24.65625 65.921875 20.015625 65.03125 
Q 15.375 64.15625 9.8125 62.3125 
L 9.8125 71.09375 
Q 15.4375 72.65625 20.34375 73.4375 
Q 25.25 74.21875 29.59375 74.21875 
Q 40.828125 74.21875 47.359375 69.109375 
Q 53.90625 64.015625 53.90625 55.328125 
Q 53.90625 49.265625 50.4375 45.09375 
Q 46.96875 40.921875 40.578125 39.3125 
z
" id="DejaVuSans-51"/>
       </defs>
       <use transform="translate(0 0.765625)" xlink:href="#DejaVuSans-51"/>
       <use transform="translate(63.623047 0.765625)" xlink:href="#DejaVuSans-46"/>
       <use transform="translate(95.410156 0.765625)" xlink:href="#DejaVuSans-48"/>
       <use transform="translate(159.033203 0.765625)" xlink:href="#DejaVuSans-215"/>
       <use transform="translate(242.822266 0.765625)" xlink:href="#DejaVuSans-49"/>
       <use transform="translate(306.445312 0.765625)" xlink:href="#DejaVuSans-48"/>
       <use transform="translate(371.025391 39.046875)scale(0.7)" xlink:href="#DejaVuSans-54"/>
      </g>
     </g>
    </g>
    <g id="text_13">
     <!-- $M_z$ ($N$) -->
     <g transform="translate(14.529888 147.635)rotate(-90)scale(0.11 -0.11)">
      <defs>
       <path d="M 16.890625 72.90625 
L 31.6875 72.90625 
L 40.1875 23.78125 
L 68.40625 72.90625 
L 83.59375 72.90625 
L 69.390625 0 
L 59.8125 0 
L 72.21875 63.921875 
L 43.609375 14.015625 
L 33.984375 14.015625 
L 24.703125 64.109375 
L 12.3125 0 
L 2.6875 0 
z
" id="DejaVuSans-Oblique-77"/>
       <path d="M 11.625 54.6875 
L 54.296875 54.6875 
L 52.6875 46.484375 
L 11.53125 7.171875 
L 45.515625 7.171875 
L 44.09375 0 
L -0.296875 0 
L 1.3125 8.203125 
L 42.484375 47.515625 
L 10.203125 47.515625 
z
" id="DejaVuSans-Oblique-122"/>
       <path d="M 16.890625 72.90625 
L 30.171875 72.90625 
L 50.296875 10.40625 
L 62.5 72.90625 
L 72.125 72.90625 
L 57.90625 0 
L 44.578125 0 
L 24.515625 62.890625 
L 12.3125 0 
L 2.6875 0 
z
" id="DejaVuSans-Oblique-78"/>
      </defs>
      <use transform="translate(0 0.125)" xlink:href="#DejaVuSans-Oblique-77"/>
      <use transform="translate(86.279297 -16.28125)scale(0.7)" xlink:href="#DejaVuSans-Oblique-122"/>
      <use transform="translate(125.756836 0.125)" xlink:href="#DejaVuSans-32"/>
      <use transform="translate(157.543945 0.125)" xlink:href="#DejaVuSans-40"/>
      <use transform="translate(196.557617 0.125)" xlink:href="#DejaVuSans-Oblique-78"/>
      <use transform="translate(271.362305 0.125)" xlink:href="#DejaVuSans-41"/>
     </g>
    </g>
   </g>
   <g id="line2d_13">
    <path clip-path="url(#pd97af3c922)" d="M 64.557544 148.866734 
L 71.451793 148.972353 
L 72.890843 149.008406 
L 73.444959 149.041406 
L 75.015932 149.03785 
L 80.210207 148.727845 
L 81.175162 148.690701 
L 82.508328 148.612354 
L 83.665224 148.580362 
L 87.283566 148.632052 
L 88.904494 148.73181 
L 90.85431 149.39789 
L 92.457273 150.5683 
L 95.931773 153.474686 
L 97.300683 154.050013 
L 97.946462 154.091909 
L 98.962412 153.651397 
L 99.494018 153.146148 
L 100.490273 151.858453 
L 101.571061 149.790438 
L 103.529235 144.650583 
L 105.575634 138.860545 
L 107.519559 134.067373 
L 108.977502 131.371918 
L 110.237631 129.502871 
L 111.26884 128.472445 
L 112.040649 128.116921 
L 112.448255 128.169632 
L 113.272252 128.620244 
L 113.890249 129.313087 
L 114.515246 130.369493 
L 115.174907 132.020998 
L 115.865923 134.157306 
L 116.85332 138.177023 
L 117.944209 143.686459 
L 119.13939 151.011639 
L 122.482565 173.019797 
L 123.502066 177.998675 
L 124.428573 181.079047 
L 125.060127 182.252704 
L 125.656677 182.676675 
L 125.937449 182.660895 
L 126.503639 182.307702 
L 127.106166 181.407778 
L 127.708693 179.925793 
L 128.634572 176.861607 
L 130.561754 169.105197 
L 132.211456 162.69612 
L 133.112861 159.892121 
L 134.083162 157.63847 
L 136.347199 152.999063 
L 137.333276 150.573454 
L 138.319353 147.552354 
L 139.305429 143.917706 
L 141.754358 134.535665 
L 142.778893 131.420997 
L 143.296765 130.210846 
L 143.814638 129.417012 
L 144.33251 129.017021 
L 144.591447 128.979003 
L 144.850383 129.064628 
L 145.381439 129.627337 
L 145.913733 130.755429 
L 146.758353 133.377061 
L 148.065264 138.366513 
L 149.145731 142.362462 
L 149.954449 144.669685 
L 150.387864 145.552174 
L 150.82128 146.168903 
L 151.254696 146.53665 
L 151.701231 146.733399 
L 152.147767 146.737239 
L 152.610474 146.617543 
L 153.535887 146.030614 
L 154.4613 145.045507 
L 155.386713 143.929026 
L 156.835343 142.750888 
L 157.77222 142.302197 
L 158.709097 141.991433 
L 159.958266 141.386106 
L 160.695841 140.572677 
L 161.278581 139.478303 
L 162.066421 137.357089 
L 163.063033 133.630751 
L 164.723636 125.999518 
L 166.091108 120.215846 
L 166.985686 117.505899 
L 167.462282 116.759229 
L 167.809297 116.458208 
L 168.172403 116.461423 
L 168.552324 116.85927 
L 168.937203 117.659627 
L 169.532576 119.81226 
L 170.200356 123.529485 
L 170.920854 128.795598 
L 172.082269 139.822157 
L 174.393951 162.865043 
L 175.766432 173.279761 
L 177.218486 181.88067 
L 180.177452 197.282857 
L 180.856702 199.916353 
L 181.524208 201.81046 
L 182.189717 202.963553 
L 182.555449 203.213776 
L 182.921181 203.161652 
L 183.221742 202.898836 
L 183.522304 202.45631 
L 183.827958 201.751411 
L 184.439266 199.538974 
L 185.145293 195.98356 
L 186.167045 189.412602 
L 189.2323 168.674371 
L 190.049702 164.691691 
L 190.867567 161.814075 
L 191.662108 159.944813 
L 193.900084 155.086252 
L 194.452836 153.004707 
L 195.04762 149.646832 
L 195.681743 144.622403 
L 196.56845 135.214111 
L 198.619724 112.084507 
L 199.338606 106.957048 
L 199.843504 105.08305 
L 200.097809 104.830176 
L 200.357847 105.12746 
L 200.617885 105.990273 
L 200.887512 107.484061 
L 201.426767 112.351943 
L 201.966022 119.593491 
L 202.786632 134.291802 
L 204.757437 173.30489 
L 205.321026 180.71853 
L 205.89546 184.867568 
L 206.188099 185.474415 
L 206.480739 185.097115 
L 206.826196 183.438011 
L 207.195916 180.296971 
L 207.935356 170.885378 
L 209.826168 143.875161 
L 210.550231 137.078851 
L 211.264282 132.488241 
L 212.052795 129.255294 
L 212.642981 127.538815 
L 213.944797 124.877382 
L 214.996072 122.792601 
L 215.833074 120.537256 
L 216.797129 116.858955 
L 217.452423 113.354837 
L 218.155696 108.38365 
L 220.128954 92.885892 
L 220.49878 91.355194 
L 220.683693 90.950072 
L 220.868606 90.829078 
L 221.053519 90.969601 
L 221.423345 92.015221 
L 221.824909 94.407638 
L 222.427256 100.368231 
L 223.280355 112.146247 
L 224.994126 137.390842 
L 225.67409 143.613041 
L 226.127399 145.707455 
L 226.354053 146.135157 
L 226.587967 146.196209 
L 226.821881 145.873268 
L 227.301279 144.262561 
L 228.293093 139.978354 
L 228.792348 138.974633 
L 229.041976 138.975417 
L 229.291604 139.395166 
L 229.541232 140.260698 
L 229.970348 142.737265 
L 230.530175 147.843728 
L 231.112129 155.156643 
L 231.976581 168.825903 
L 234.945168 218.883187 
L 236.049115 234.393792 
L 236.603081 239.741724 
L 236.893308 241.338609 
L 237.183535 241.954695 
L 237.473762 241.49189 
L 237.772841 239.807348 
L 238.078959 236.886963 
L 238.704368 227.564886 
L 239.70695 206.210027 
L 240.790352 183.023492 
L 241.524652 172.605541 
L 241.891802 169.789644 
L 242.258952 168.630174 
L 242.54791 168.823437 
L 242.836867 169.849736 
L 243.416173 173.597292 
L 244.37457 180.362395 
L 244.742598 181.768467 
L 244.93054 182.034545 
L 245.148135 181.962633 
L 245.36573 181.511325 
L 245.814494 179.405527 
L 246.505708 173.996715 
L 247.659715 164.454384 
L 248.121317 162.361298 
L 248.352119 162.079361 
L 248.58292 162.403931 
L 248.813721 163.373167 
L 249.275324 167.25246 
L 249.967728 177.185444 
L 251.245942 197.344369 
L 251.747167 201.993831 
L 252.134169 204.02819 
L 252.530896 204.960926 
L 252.66876 205.039644 
L 252.818747 204.983363 
L 253.128099 204.38708 
L 253.455727 202.955147 
L 253.799997 200.427132 
L 254.162792 196.419831 
L 254.7264 187.222474 
L 255.503936 169.219743 
L 256.488461 140.344515 
L 257.690122 97.734646 
L 259.318199 38.315897 
L 260.03495 20.448746 
L 260.498555 13.527079 
L 260.825881 11.053393 
L 260.99278 10.552426 
L 261.167131 10.593915 
L 261.341642 11.219688 
L 261.701523 14.236552 
L 262.072769 19.664644 
L 262.629638 31.709887 
L 263.743375 63.28766 
L 264.492745 82.94382 
L 265.073127 92.908969 
L 265.465204 96.027401 
L 265.668722 96.48002 
L 265.874388 96.21552 
L 266.083768 95.29404 
L 266.504693 91.915994 
L 267.571796 81.824897 
L 268.005982 80.072519 
L 268.225271 80.043116 
L 268.459079 80.701397 
L 268.692888 82.017066 
L 269.188254 87.053079 
L 269.693066 95.483037 
L 270.210085 107.831212 
L 271.015903 134.249426 
L 273.663933 235.116518 
L 274.010852 242.451801 
L 274.357903 247.167875 
L 274.704954 249.280061 
L 275.012358 249.015006 
L 275.251334 247.386131 
L 275.729286 240.694109 
L 276.207238 229.946439 
L 277.006938 205.287256 
L 278.689111 149.267585 
L 279.566158 128.182118 
L 280.182967 118.086111 
L 280.879893 110.265758 
L 281.590714 104.558484 
L 282.228487 101.045106 
L 282.485204 100.387896 
L 282.613563 100.300078 
L 282.723407 100.376814 
L 282.943096 100.952648 
L 283.172308 102.209594 
L 283.53125 105.560405 
L 284.066203 113.491979 
L 286.402017 154.266493 
L 286.811822 157.790578 
L 287.018014 158.754502 
L 287.228143 159.102309 
L 287.438272 158.762241 
L 287.648401 157.722346 
L 288.068659 153.629932 
L 288.538523 146.006984 
L 289.269678 129.619514 
L 291.051781 87.409466 
L 291.849097 74.402698 
L 292.387768 69.716623 
L 292.672345 68.88515 
L 292.956922 69.411859 
L 293.241499 71.470833 
L 293.526076 75.052061 
L 294.09523 87.35184 
L 294.665252 105.885835 
L 295.827881 155.918832 
L 296.929217 200.377002 
L 297.51932 215.208757 
L 297.846583 219.802203 
L 298.188418 222.123978 
L 298.367475 222.39309 
L 298.548278 222.0036 
L 298.909882 219.592107 
L 299.271487 215.510028 
L 300.943727 192.825171 
L 301.293788 190.736908 
L 301.458045 190.329071 
L 301.622302 190.318961 
L 301.78859 190.758646 
L 302.121451 193.158347 
L 302.620743 200.36754 
L 304.196358 228.031343 
L 304.422686 229.7524 
L 304.649032 230.404635 
L 304.875379 230.002014 
L 305.176302 227.851738 
L 305.557841 222.647649 
L 306.976107 199.948773 
L 307.315613 197.885945 
L 307.542344 197.673102 
L 307.769076 198.344026 
L 308.137727 200.799838 
L 308.906587 206.989467 
L 309.217248 207.752973 
L 309.395291 207.290545 
L 309.573333 206.115361 
L 309.958795 201.26044 
L 310.595877 188.320097 
L 313.243379 125.82134 
L 313.435589 124.449385 
L 313.627799 124.384323 
L 313.820009 125.874901 
L 314.204429 134.135984 
L 314.58885 149.676474 
L 315.35769 196.029198 
L 315.93432 229.510584 
L 316.320534 243.366246 
L 316.514538 246.79244 
L 316.717876 247.722635 
L 316.921214 246.006377 
L 317.339675 235.375945 
L 318.034466 205.671408 
L 319.536179 138.944696 
L 320.260845 113.150946 
L 320.92009 97.867373 
L 321.479323 90.12934 
L 322.214628 82.958436 
L 322.66962 80.216636 
L 322.986104 79.551506 
L 323.146052 79.740794 
L 323.467876 81.061539 
L 323.7897 83.359082 
L 324.272436 88.870069 
L 324.930124 99.671003 
L 325.695811 118.007961 
L 326.668569 148.434419 
L 327.466919 171.714085 
L 327.983442 180.69712 
L 328.685386 187.558716 
L 329.052078 189.982772 
L 329.440128 191.217462 
L 329.640188 191.009334 
L 329.843282 189.999324 
L 330.249471 185.477192 
L 330.694804 176.822743 
L 331.376541 158.638075 
L 332.567983 122.27772 
L 332.785772 118.911091 
L 333.003561 117.988014 
L 333.221351 119.607319 
L 333.65693 129.729926 
L 334.545322 156.977648 
L 335.083248 166.000188 
L 335.747162 172.191691 
L 336.909861 180.485293 
L 337.872721 188.931626 
L 338.035323 188.920832 
L 338.197924 188.097447 
L 338.532081 183.86175 
L 339.165131 169.415271 
L 340.701841 128.556995 
L 340.913717 127.091058 
L 341.019655 127.212459 
L 341.233318 129.216523 
L 341.553812 135.977821 
L 343.071011 175.691346 
L 343.437281 180.308357 
L 343.705332 181.183379 
L 343.842967 180.665958 
L 344.126437 177.585524 
L 344.569753 168.671832 
L 345.848392 139.778489 
L 346.846216 119.362061 
L 347.161825 116.22551 
L 347.290967 115.791295 
L 347.42011 115.888181 
L 347.549253 116.559661 
L 347.811739 119.809398 
L 348.230504 129.779078 
L 349.115042 159.52582 
L 349.760036 178.161854 
L 349.939543 180.78377 
L 350.119049 181.767276 
L 350.304961 181.089065 
L 350.676785 175.897697 
L 351.259807 161.737814 
L 351.860384 142.619825 
L 352.895273 100.858558 
L 353.749787 67.841895 
L 354.179485 57.187479 
L 354.579473 51.21989 
L 354.764612 49.983535 
L 354.950347 50.013328 
L 355.136081 51.458541 
L 355.561815 59.58153 
L 356.240363 76.422752 
L 356.699824 82.821088 
L 356.929554 84.07764 
L 357.176706 84.401524 
L 357.424615 84.206766 
L 358.168342 82.987459 
L 358.416251 83.122748 
L 358.66416 83.697526 
L 358.912069 85.019755 
L 359.128873 87.457575 
L 359.542841 96.775388 
L 360.085278 117.773281 
L 360.850357 146.751914 
L 361.248208 154.52397 
L 361.652583 158.527148 
L 362.064155 160.90746 
L 362.476403 162.076088 
L 362.682527 161.925741 
L 362.888651 160.694589 
L 363.300899 154.402897 
L 363.848993 138.758563 
L 364.613506 115.65567 
L 365.058029 107.410478 
L 365.409306 104.579129 
L 365.530479 104.304069 
L 365.598332 104.359643 
L 365.7534 105.036739 
L 365.951178 107.181633 
L 366.307442 114.030177 
L 366.722819 126.876867 
L 367.360273 153.39052 
L 368.888175 226.200363 
L 369.31123 232.881375 
L 369.622642 234.934893 
L 369.972996 235.973678 
L 370.158584 236.10217 
L 370.344172 235.532622 
L 370.715348 232.325321 
L 371.089266 225.888703 
L 371.623311 207.806861 
L 373.560279 129.344595 
L 374.242146 118.594924 
L 374.753547 113.228217 
L 375.09448 111.792664 
L 375.275617 112.14713 
L 375.637892 114.462927 
L 377.316429 129.014531 
L 377.710774 130.554477 
L 377.911541 130.812734 
L 378.112307 130.811873 
L 378.313073 131.075476 
L 378.51384 132.442081 
L 378.714606 135.611363 
L 379.116139 147.258057 
L 379.938274 174.918523 
L 380.251109 180.962493 
L 380.563945 184.009056 
L 380.720363 184.6466 
L 380.889005 184.707926 
L 381.040548 184.147378 
L 381.30787 181.526875 
L 381.785197 172.144083 
L 382.264273 162.926418 
L 382.423965 162.001011 
L 382.583657 162.332454 
L 382.903917 165.372141 
L 383.384307 170.133581 
L 383.704566 171.256117 
L 384.024826 171.294368 
L 384.326315 170.910967 
L 384.610398 170.107101 
L 384.895845 168.619213 
L 385.181293 165.628825 
L 386.08595 152.661223 
L 386.417635 151.583228 
L 386.583477 151.595109 
L 386.74932 151.78992 
L 386.915162 151.812198 
L 387.412689 151.210198 
L 387.648562 152.144544 
L 388.065595 155.627015 
L 388.42994 161.426258 
L 389.210478 176.223581 
L 389.659339 182.22616 
L 389.821913 182.977888 
L 389.997048 183.001122 
L 390.172183 182.254207 
L 390.360344 180.137408 
L 390.753068 170.641839 
L 391.734878 142.929876 
L 392.324837 133.124667 
L 393.11378 120.618426 
L 395.539501 64.553051 
L 395.751459 64.371195 
L 395.974249 68.345389 
L 396.642617 95.264974 
L 397.533774 131.006524 
L 398.063945 144.783963 
L 398.240668 145.99813 
L 398.417392 145.414715 
L 398.770839 141.388442 
L 399.42988 130.520834 
L 399.735585 129.532453 
L 400.043285 129.043287 
L 400.198075 129.64367 
L 400.817236 134.815529 
L 401.281607 135.889499 
L 401.436398 135.658099 
L 401.770626 134.470975 
L 401.937917 134.799512 
L 402.225704 135.882273 
L 402.375321 135.297715 
L 402.643172 131.996746 
L 403.171636 125.747519 
L 403.401516 124.591082 
L 403.517286 124.688897 
L 404.027041 126.826452 
L 404.157146 126.842155 
L 404.28725 127.18787 
L 404.547459 130.497005 
L 404.945566 137.923012 
L 405.214734 139.717189 
L 405.487666 139.991501 
L 405.624131 140.075722 
L 405.763999 140.316964 
L 405.903866 140.94016 
L 406.607633 146.36632 
L 406.88914 146.143748 
L 407.029894 146.773016 
L 407.592908 152.434797 
L 407.874414 157.304343 
L 408.296675 173.434782 
L 409.206358 213.14342 
L 410.266572 239.225876 
L 410.447427 240.746958 
L 410.628282 240.036658 
L 410.809137 237.005762 
L 411.561204 217.424806 
L 411.750549 215.709349 
L 412.319418 213.972987 
L 412.512206 212.174461 
L 412.861148 204.548577 
L 413.21895 186.174692 
L 413.979658 140.711794 
L 415.057112 92.149027 
L 415.2296 88.143247 
L 415.402087 86.992648 
L 415.576083 88.171453 
L 415.925404 93.412614 
L 416.274776 101.653582 
L 416.628569 110.761718 
L 416.808654 112.652826 
L 417.170815 113.211991 
L 417.362163 114.6234 
L 417.744857 121.48227 
L 418.352365 133.731041 
L 418.668508 136.054851 
L 419.680872 139.211408 
L 420.368563 145.261004 
L 420.543679 144.617449 
L 420.894631 140.66167 
L 421.246303 131.678107 
L 421.773811 115.28889 
L 422.125483 109.97897 
L 422.301319 109.398562 
L 422.361999 109.479722 
" style="fill:none;stroke:#e36f47;"/>
   </g>
   <g id="patch_3">
    <path d="M 64.557544 258.225354 
L 64.557544 2.834646 
" style="fill:none;stroke:#000000;stroke-linecap:square;stroke-linejoin:miter;"/>
   </g>
   <g id="patch_4">
    <path d="M 64.557544 258.225354 
L 422.361999 258.225354 
" style="fill:none;stroke:#000000;stroke-linecap:square;stroke-linejoin:miter;"/>
   </g>
   <g id="legend_1">
    <g id="patch_5">
     <path d="M 299.041999 39.119646 
L 418.361999 39.119646 
L 418.361999 6.834646 
L 299.041999 6.834646 
z
" style="fill:#ffffff;stroke:#000000;stroke-linejoin:miter;"/>
    </g>
    <g id="line2d_14">
     <path d="M 305.441999 16.513396 
L 321.441999 16.513396 
" style="fill:none;stroke:#009afa;stroke-linejoin:miter;"/>
    </g>
    <g id="line2d_15"/>
    <g id="text_14">
     <!-- GXBeam -->
     <g transform="translate(327.841999 19.313396)scale(0.08 -0.08)">
      <defs>
       <path d="M 59.515625 10.40625 
L 59.515625 29.984375 
L 43.40625 29.984375 
L 43.40625 38.09375 
L 69.28125 38.09375 
L 69.28125 6.78125 
Q 63.578125 2.734375 56.6875 0.65625 
Q 49.8125 -1.421875 42 -1.421875 
Q 24.90625 -1.421875 15.25 8.5625 
Q 5.609375 18.5625 5.609375 36.375 
Q 5.609375 54.25 15.25 64.234375 
Q 24.90625 74.21875 42 74.21875 
Q 49.125 74.21875 55.546875 72.453125 
Q 61.96875 70.703125 67.390625 67.28125 
L 67.390625 56.78125 
Q 61.921875 61.421875 55.765625 63.765625 
Q 49.609375 66.109375 42.828125 66.109375 
Q 29.4375 66.109375 22.71875 58.640625 
Q 16.015625 51.171875 16.015625 36.375 
Q 16.015625 21.625 22.71875 14.15625 
Q 29.4375 6.6875 42.828125 6.6875 
Q 48.046875 6.6875 52.140625 7.59375 
Q 56.25 8.5 59.515625 10.40625 
z
" id="DejaVuSans-71"/>
       <path d="M 6.296875 72.90625 
L 16.890625 72.90625 
L 35.015625 45.796875 
L 53.21875 72.90625 
L 63.8125 72.90625 
L 40.375 37.890625 
L 65.375 0 
L 54.78125 0 
L 34.28125 31 
L 13.625 0 
L 2.984375 0 
L 29 38.921875 
z
" id="DejaVuSans-88"/>
       <path d="M 19.671875 34.8125 
L 19.671875 8.109375 
L 35.5 8.109375 
Q 43.453125 8.109375 47.28125 11.40625 
Q 51.125 14.703125 51.125 21.484375 
Q 51.125 28.328125 47.28125 31.5625 
Q 43.453125 34.8125 35.5 34.8125 
z
M 19.671875 64.796875 
L 19.671875 42.828125 
L 34.28125 42.828125 
Q 41.5 42.828125 45.03125 45.53125 
Q 48.578125 48.25 48.578125 53.8125 
Q 48.578125 59.328125 45.03125 62.0625 
Q 41.5 64.796875 34.28125 64.796875 
z
M 9.8125 72.90625 
L 35.015625 72.90625 
Q 46.296875 72.90625 52.390625 68.21875 
Q 58.5 63.53125 58.5 54.890625 
Q 58.5 48.1875 55.375 44.234375 
Q 52.25 40.28125 46.1875 39.3125 
Q 53.46875 37.75 57.5 32.78125 
Q 61.53125 27.828125 61.53125 20.40625 
Q 61.53125 10.640625 54.890625 5.3125 
Q 48.25 0 35.984375 0 
L 9.8125 0 
z
" id="DejaVuSans-66"/>
       <path d="M 34.28125 27.484375 
Q 23.390625 27.484375 19.1875 25 
Q 14.984375 22.515625 14.984375 16.5 
Q 14.984375 11.71875 18.140625 8.90625 
Q 21.296875 6.109375 26.703125 6.109375 
Q 34.1875 6.109375 38.703125 11.40625 
Q 43.21875 16.703125 43.21875 25.484375 
L 43.21875 27.484375 
z
M 52.203125 31.203125 
L 52.203125 0 
L 43.21875 0 
L 43.21875 8.296875 
Q 40.140625 3.328125 35.546875 0.953125 
Q 30.953125 -1.421875 24.3125 -1.421875 
Q 15.921875 -1.421875 10.953125 3.296875 
Q 6 8.015625 6 15.921875 
Q 6 25.140625 12.171875 29.828125 
Q 18.359375 34.515625 30.609375 34.515625 
L 43.21875 34.515625 
L 43.21875 35.40625 
Q 43.21875 41.609375 39.140625 45 
Q 35.0625 48.390625 27.6875 48.390625 
Q 23 48.390625 18.546875 47.265625 
Q 14.109375 46.140625 10.015625 43.890625 
L 10.015625 52.203125 
Q 14.9375 54.109375 19.578125 55.046875 
Q 24.21875 56 28.609375 56 
Q 40.484375 56 46.34375 49.84375 
Q 52.203125 43.703125 52.203125 31.203125 
z
" id="DejaVuSans-97"/>
      </defs>
      <use xlink:href="#DejaVuSans-71"/>
      <use x="77.490234" xlink:href="#DejaVuSans-88"/>
      <use x="145.996094" xlink:href="#DejaVuSans-66"/>
      <use x="214.599609" xlink:href="#DejaVuSans-101"/>
      <use x="276.123047" xlink:href="#DejaVuSans-97"/>
      <use x="337.402344" xlink:href="#DejaVuSans-109"/>
     </g>
    </g>
    <g id="line2d_16">
     <path d="M 305.441999 28.255896 
L 321.441999 28.255896 
" style="fill:none;stroke:#e36f47;stroke-linejoin:miter;"/>
    </g>
    <g id="line2d_17"/>
    <g id="text_15">
     <!-- DifferentialEquations -->
     <g transform="translate(327.841999 31.055896)scale(0.08 -0.08)">
      <defs>
       <path d="M 19.671875 64.796875 
L 19.671875 8.109375 
L 31.59375 8.109375 
Q 46.6875 8.109375 53.6875 14.9375 
Q 60.6875 21.78125 60.6875 36.53125 
Q 60.6875 51.171875 53.6875 57.984375 
Q 46.6875 64.796875 31.59375 64.796875 
z
M 9.8125 72.90625 
L 30.078125 72.90625 
Q 51.265625 72.90625 61.171875 64.09375 
Q 71.09375 55.28125 71.09375 36.53125 
Q 71.09375 17.671875 61.125 8.828125 
Q 51.171875 0 30.078125 0 
L 9.8125 0 
z
" id="DejaVuSans-68"/>
       <path d="M 37.109375 75.984375 
L 37.109375 68.5 
L 28.515625 68.5 
Q 23.6875 68.5 21.796875 66.546875 
Q 19.921875 64.59375 19.921875 59.515625 
L 19.921875 54.6875 
L 34.71875 54.6875 
L 34.71875 47.703125 
L 19.921875 47.703125 
L 19.921875 0 
L 10.890625 0 
L 10.890625 47.703125 
L 2.296875 47.703125 
L 2.296875 54.6875 
L 10.890625 54.6875 
L 10.890625 58.5 
Q 10.890625 67.625 15.140625 71.796875 
Q 19.390625 75.984375 28.609375 75.984375 
z
" id="DejaVuSans-102"/>
       <path d="M 41.109375 46.296875 
Q 39.59375 47.171875 37.8125 47.578125 
Q 36.03125 48 33.890625 48 
Q 26.265625 48 22.1875 43.046875 
Q 18.109375 38.09375 18.109375 28.8125 
L 18.109375 0 
L 9.078125 0 
L 9.078125 54.6875 
L 18.109375 54.6875 
L 18.109375 46.1875 
Q 20.953125 51.171875 25.484375 53.578125 
Q 30.03125 56 36.53125 56 
Q 37.453125 56 38.578125 55.875 
Q 39.703125 55.765625 41.0625 55.515625 
z
" id="DejaVuSans-114"/>
       <path d="M 54.890625 33.015625 
L 54.890625 0 
L 45.90625 0 
L 45.90625 32.71875 
Q 45.90625 40.484375 42.875 44.328125 
Q 39.84375 48.1875 33.796875 48.1875 
Q 26.515625 48.1875 22.3125 43.546875 
Q 18.109375 38.921875 18.109375 30.90625 
L 18.109375 0 
L 9.078125 0 
L 9.078125 54.6875 
L 18.109375 54.6875 
L 18.109375 46.1875 
Q 21.34375 51.125 25.703125 53.5625 
Q 30.078125 56 35.796875 56 
Q 45.21875 56 50.046875 50.171875 
Q 54.890625 44.34375 54.890625 33.015625 
z
" id="DejaVuSans-110"/>
       <path d="M 18.3125 70.21875 
L 18.3125 54.6875 
L 36.8125 54.6875 
L 36.8125 47.703125 
L 18.3125 47.703125 
L 18.3125 18.015625 
Q 18.3125 11.328125 20.140625 9.421875 
Q 21.96875 7.515625 27.59375 7.515625 
L 36.8125 7.515625 
L 36.8125 0 
L 27.59375 0 
Q 17.1875 0 13.234375 3.875 
Q 9.28125 7.765625 9.28125 18.015625 
L 9.28125 47.703125 
L 2.6875 47.703125 
L 2.6875 54.6875 
L 9.28125 54.6875 
L 9.28125 70.21875 
z
" id="DejaVuSans-116"/>
       <path d="M 9.421875 75.984375 
L 18.40625 75.984375 
L 18.40625 0 
L 9.421875 0 
z
" id="DejaVuSans-108"/>
       <path d="M 9.8125 72.90625 
L 55.90625 72.90625 
L 55.90625 64.59375 
L 19.671875 64.59375 
L 19.671875 43.015625 
L 54.390625 43.015625 
L 54.390625 34.71875 
L 19.671875 34.71875 
L 19.671875 8.296875 
L 56.78125 8.296875 
L 56.78125 0 
L 9.8125 0 
z
" id="DejaVuSans-69"/>
       <path d="M 14.796875 27.296875 
Q 14.796875 17.390625 18.875 11.75 
Q 22.953125 6.109375 30.078125 6.109375 
Q 37.203125 6.109375 41.296875 11.75 
Q 45.40625 17.390625 45.40625 27.296875 
Q 45.40625 37.203125 41.296875 42.84375 
Q 37.203125 48.484375 30.078125 48.484375 
Q 22.953125 48.484375 18.875 42.84375 
Q 14.796875 37.203125 14.796875 27.296875 
z
M 45.40625 8.203125 
Q 42.578125 3.328125 38.25 0.953125 
Q 33.9375 -1.421875 27.875 -1.421875 
Q 17.96875 -1.421875 11.734375 6.484375 
Q 5.515625 14.40625 5.515625 27.296875 
Q 5.515625 40.1875 11.734375 48.09375 
Q 17.96875 56 27.875 56 
Q 33.9375 56 38.25 53.625 
Q 42.578125 51.265625 45.40625 46.390625 
L 45.40625 54.6875 
L 54.390625 54.6875 
L 54.390625 -20.796875 
L 45.40625 -20.796875 
z
" id="DejaVuSans-113"/>
       <path d="M 8.5 21.578125 
L 8.5 54.6875 
L 17.484375 54.6875 
L 17.484375 21.921875 
Q 17.484375 14.15625 20.5 10.265625 
Q 23.53125 6.390625 29.59375 6.390625 
Q 36.859375 6.390625 41.078125 11.03125 
Q 45.3125 15.671875 45.3125 23.6875 
L 45.3125 54.6875 
L 54.296875 54.6875 
L 54.296875 0 
L 45.3125 0 
L 45.3125 8.40625 
Q 42.046875 3.421875 37.71875 1 
Q 33.40625 -1.421875 27.6875 -1.421875 
Q 18.265625 -1.421875 13.375 4.4375 
Q 8.5 10.296875 8.5 21.578125 
z
M 31.109375 56 
z
" id="DejaVuSans-117"/>
       <path d="M 30.609375 48.390625 
Q 23.390625 48.390625 19.1875 42.75 
Q 14.984375 37.109375 14.984375 27.296875 
Q 14.984375 17.484375 19.15625 11.84375 
Q 23.34375 6.203125 30.609375 6.203125 
Q 37.796875 6.203125 41.984375 11.859375 
Q 46.1875 17.53125 46.1875 27.296875 
Q 46.1875 37.015625 41.984375 42.703125 
Q 37.796875 48.390625 30.609375 48.390625 
z
M 30.609375 56 
Q 42.328125 56 49.015625 48.375 
Q 55.71875 40.765625 55.71875 27.296875 
Q 55.71875 13.875 49.015625 6.21875 
Q 42.328125 -1.421875 30.609375 -1.421875 
Q 18.84375 -1.421875 12.171875 6.21875 
Q 5.515625 13.875 5.515625 27.296875 
Q 5.515625 40.765625 12.171875 48.375 
Q 18.84375 56 30.609375 56 
z
" id="DejaVuSans-111"/>
      </defs>
      <use xlink:href="#DejaVuSans-68"/>
      <use x="77.001953" xlink:href="#DejaVuSans-105"/>
      <use x="104.785156" xlink:href="#DejaVuSans-102"/>
      <use x="139.990234" xlink:href="#DejaVuSans-102"/>
      <use x="175.195312" xlink:href="#DejaVuSans-101"/>
      <use x="236.71875" xlink:href="#DejaVuSans-114"/>
      <use x="275.582031" xlink:href="#DejaVuSans-101"/>
      <use x="337.105469" xlink:href="#DejaVuSans-110"/>
      <use x="400.484375" xlink:href="#DejaVuSans-116"/>
      <use x="439.693359" xlink:href="#DejaVuSans-105"/>
      <use x="467.476562" xlink:href="#DejaVuSans-97"/>
      <use x="528.755859" xlink:href="#DejaVuSans-108"/>
      <use x="556.539062" xlink:href="#DejaVuSans-69"/>
      <use x="619.722656" xlink:href="#DejaVuSans-113"/>
      <use x="683.199219" xlink:href="#DejaVuSans-117"/>
      <use x="746.578125" xlink:href="#DejaVuSans-97"/>
      <use x="807.857422" xlink:href="#DejaVuSans-116"/>
      <use x="847.066406" xlink:href="#DejaVuSans-105"/>
      <use x="874.849609" xlink:href="#DejaVuSans-111"/>
      <use x="936.03125" xlink:href="#DejaVuSans-110"/>
      <use x="999.410156" xlink:href="#DejaVuSans-115"/>
     </g>
    </g>
   </g>
  </g>
 </g>
 <defs>
  <clipPath id="pd97af3c922">
   <rect height="255.390709" width="357.804455" x="64.557544" y="2.834646"/>
  </clipPath>
 </defs>
</svg>
