<?xml version="1.0" encoding="utf-8" standalone="no"?>
<!DOCTYPE svg PUBLIC "-//W3C//DTD SVG 1.1//EN"
  "http://www.w3.org/Graphics/SVG/1.1/DTD/svg11.dtd">
<svg height="288pt" version="1.1" viewBox="0 0 432 288" width="432pt" xmlns="http://www.w3.org/2000/svg" xmlns:xlink="http://www.w3.org/1999/xlink">
 <metadata>
  <rdf:RDF xmlns:cc="http://creativecommons.org/ns#" xmlns:dc="http://purl.org/dc/elements/1.1/" xmlns:rdf="http://www.w3.org/1999/02/22-rdf-syntax-ns#">
   <cc:Work>
    <dc:type rdf:resource="http://purl.org/dc/dcmitype/StillImage"/>
    <dc:date>2021-09-29T22:43:35.232131</dc:date>
    <dc:format>image/svg+xml</dc:format>
    <dc:creator>
     <cc:Agent>
      <dc:title>Matplotlib v3.4.2, https://matplotlib.org/</dc:title>
     </cc:Agent>
    </dc:creator>
   </cc:Work>
  </rdf:RDF>
 </metadata>
 <defs>
  <style type="text/css">*{stroke-linecap:butt;stroke-linejoin:round;}</style>
 </defs>
 <g id="figure_1">
  <g id="patch_1">
   <path d="M 0 288 
L 432 288 
L 432 0 
L 0 0 
z
" style="fill:#ffffff;"/>
  </g>
  <g id="axes_1">
   <g id="patch_2">
    <path d="M 71.231488 258.225354 
L 422.361999 258.225354 
L 422.361999 2.834646 
L 71.231488 2.834646 
z
" style="fill:#ffffff;"/>
   </g>
   <g id="line2d_1">
    <path clip-path="url(#p4bacd785ac)" d="M 71.231488 129.820225 
L 72.63601 129.898065 
L 73.689401 130.034477 
L 74.216097 129.888051 
L 76.147315 129.096393 
L 76.849576 129.30261 
L 81.238707 131.861348 
L 81.765403 131.739358 
L 82.292099 131.339398 
L 86.505665 127.027137 
L 87.207926 126.596701 
L 87.734622 126.52139 
L 88.963578 126.481308 
L 89.665839 126.277449 
L 90.3681 126.0986 
L 90.894796 126.10711 
L 91.421492 126.370514 
L 92.299318 127.139517 
L 93.70384 128.863646 
L 94.581667 130.536387 
L 95.459493 132.784371 
L 96.68845 135.831776 
L 97.566276 137.298549 
L 98.444102 138.371887 
L 99.497494 139.452869 
L 100.199755 139.829404 
L 100.726451 139.868622 
L 102.306538 139.718325 
L 103.535495 139.836872 
L 104.06219 139.693672 
L 104.588886 139.238642 
L 105.466712 138.129731 
L 107.39793 135.047775 
L 108.275757 133.058119 
L 109.855844 129.512458 
L 111.787062 125.860256 
L 112.664888 123.562145 
L 114.596106 117.66558 
L 115.649497 113.619767 
L 117.40515 106.883069 
L 118.282976 104.530473 
L 119.511933 101.961115 
L 120.389759 100.623335 
L 120.916455 100.194503 
L 121.443151 99.972753 
L 122.145412 99.994067 
L 123.549934 100.228008 
L 124.07663 100.51197 
L 124.603325 101.158322 
L 125.305586 102.543067 
L 126.358978 105.450175 
L 127.7635 109.949517 
L 129.168022 115.324029 
L 130.221414 119.138676 
L 131.45037 122.617359 
L 132.679327 126.323954 
L 134.78611 133.850831 
L 135.839502 138.433131 
L 137.419589 146.622569 
L 140.930894 164.0797 
L 142.335416 170.249292 
L 143.915504 176.263396 
L 144.79333 178.820898 
L 145.320026 179.839362 
L 145.846721 180.397226 
L 146.548982 180.719681 
L 147.251243 180.698631 
L 148.12907 180.47861 
L 149.006896 179.90547 
L 150.235853 179.032313 
L 150.762548 178.973127 
L 151.289244 179.161007 
L 153.396027 180.437101 
L 154.449419 180.468906 
L 155.15168 180.41083 
L 155.853941 180.179409 
L 156.380637 179.784341 
L 157.258463 178.637244 
L 160.067507 174.33996 
L 160.769768 172.404149 
L 161.472029 169.855618 
L 162.525421 164.850834 
L 163.403247 159.493211 
L 164.281073 152.775694 
L 166.036726 136.894282 
L 169.1969 109.077555 
L 171.128118 94.127755 
L 172.883771 81.525693 
L 173.761597 76.645734 
L 174.639423 73.043675 
L 175.692815 69.830695 
L 176.570641 67.865027 
L 177.272902 66.796595 
L 178.677424 65.04669 
L 179.20412 64.113539 
L 181.310903 59.791277 
L 182.013164 59.057383 
L 182.53986 58.767252 
L 183.066556 58.705268 
L 183.593251 58.878027 
L 184.119947 59.407102 
L 184.646643 60.295966 
L 185.524469 62.399685 
L 186.753426 65.325041 
L 187.806817 67.257383 
L 188.684644 68.94482 
L 189.56247 71.186244 
L 190.440296 74.174755 
L 191.142557 77.246491 
L 191.844818 81.252634 
L 192.722645 87.618143 
L 199.56969 141.974512 
L 200.974212 151.683875 
L 201.852038 156.187865 
L 202.554299 158.705347 
L 203.432125 160.969243 
L 205.714474 166.147462 
L 206.416735 168.496268 
L 207.118996 171.572742 
L 209.401344 182.629992 
L 209.92804 184.054123 
L 210.454735 184.922742 
L 210.981431 185.25558 
L 211.332562 185.259259 
L 211.683692 185.050621 
L 212.034823 184.593271 
L 212.561519 183.476948 
L 213.088214 181.827303 
L 213.966041 178.221986 
L 214.843867 174.745484 
L 215.370563 173.335162 
L 215.897258 172.611851 
L 216.248389 172.509504 
L 216.775085 172.728014 
L 218.179607 173.417948 
L 218.530737 173.282871 
L 218.881868 172.972193 
L 219.232998 172.439937 
L 219.759694 171.094229 
L 220.28639 168.86093 
L 220.813086 165.545482 
L 221.515347 159.283807 
L 222.568738 147.20419 
L 224.324391 127.665057 
L 226.606739 105.641264 
L 227.660131 95.026364 
L 228.537957 83.698667 
L 230.118044 58.924532 
L 230.99587 46.948726 
L 231.698131 39.659703 
L 232.400392 34.637146 
L 232.927088 32.545314 
L 233.278219 31.988591 
L 233.453784 31.998464 
L 233.629349 32.195912 
L 233.98048 33.120015 
L 234.507176 35.697427 
L 235.385002 41.821986 
L 236.262828 47.814001 
L 236.965089 51.281909 
L 237.66735 53.733124 
L 239.598568 59.195732 
L 239.949698 59.67188 
L 240.300829 59.832578 
L 240.651959 59.695557 
L 241.880916 58.724837 
L 242.232047 58.840543 
L 242.758743 59.424776 
L 245.216656 63.341398 
L 245.743352 64.855418 
L 246.445613 67.799798 
L 247.147874 70.757256 
L 247.499004 71.690667 
L 247.850135 72.106906 
L 248.201265 72.035874 
L 249.254657 70.942317 
L 249.430222 71.00696 
L 249.605788 71.247996 
L 249.956918 72.309829 
L 250.308049 74.149764 
L 250.834744 78.304114 
L 251.537005 85.901378 
L 252.414832 98.160656 
L 253.292658 114.221939 
L 255.750571 163.76968 
L 256.452832 172.069419 
L 257.330659 179.466264 
L 258.208485 184.92412 
L 258.735181 187.047671 
L 259.086311 187.861305 
L 259.613007 188.405174 
L 260.490833 189.006 
L 260.841964 189.711567 
L 261.36866 191.312621 
L 262.246486 194.206113 
L 262.597616 194.707309 
L 262.773182 194.743293 
L 262.948747 194.598485 
L 263.299877 193.789999 
L 264.002138 191.024529 
L 264.7044 188.466878 
L 265.05553 187.903077 
L 265.231095 187.812244 
L 265.406661 187.858382 
L 265.757791 188.363799 
L 266.460052 190.220397 
L 268.215705 196.109137 
L 268.7424 198.922426 
L 270.146922 207.288406 
L 270.498053 208.031822 
L 270.673618 208.048786 
L 270.849183 207.826726 
L 271.200314 206.683797 
L 271.72701 203.617474 
L 272.604836 198.24083 
L 272.955967 197.005814 
L 273.307097 196.458408 
L 273.658228 196.402421 
L 274.184923 196.84613 
L 274.536054 197.033921 
L 274.887184 196.902342 
L 275.238315 196.383639 
L 275.765011 194.96176 
L 276.642837 192.53977 
L 276.993967 191.954176 
L 277.345098 191.710954 
L 278.222924 191.591096 
L 278.574055 191.072203 
L 278.925185 189.921873 
L 279.276316 188.032855 
L 279.803012 183.500397 
L 280.505273 174.59915 
L 283.314317 135.384384 
L 284.543273 121.244701 
L 286.298926 103.692691 
L 287.001187 93.265534 
L 289.810231 47.348984 
L 290.512492 38.952152 
L 291.039188 34.631198 
L 291.390318 33.175672 
L 291.565884 32.949855 
L 291.741449 33.057593 
L 291.917014 33.498822 
L 292.268145 35.310214 
L 292.79484 39.708207 
L 294.199362 52.509385 
L 294.726058 55.37712 
L 295.252754 57.091091 
L 295.603885 57.744822 
L 295.955015 58.001468 
L 296.13058 57.95671 
L 296.306146 57.766191 
L 296.657276 56.849013 
L 297.008407 55.147783 
L 297.359537 52.48939 
L 297.886233 46.673606 
L 299.641885 25.04739 
L 299.993016 22.832213 
L 300.344146 21.663479 
L 300.519712 21.447744 
L 300.695277 21.4797 
L 300.870842 21.739837 
L 301.221973 22.855157 
L 301.573103 24.713166 
L 302.099799 28.86851 
L 302.80206 36.247494 
L 304.733278 59.3184 
L 305.084408 61.432692 
L 305.435539 62.220752 
L 305.611104 62.088668 
L 305.786669 61.598131 
L 306.1378 59.598298 
L 306.664496 54.490163 
L 308.595713 32.256887 
L 308.946844 30.457281 
L 309.122409 30.172871 
L 309.297974 30.393961 
L 309.47354 31.168083 
L 309.82467 34.513378 
L 310.175801 40.246167 
L 310.702497 53.08698 
L 311.580323 82.140768 
L 313.335975 142.771002 
L 314.038236 158.739787 
L 314.564932 166.4775 
L 315.091628 171.14676 
L 315.442758 172.71408 
L 315.793889 173.380783 
L 315.969454 173.434385 
L 316.671715 173.064248 
L 316.84728 173.231751 
L 317.022846 173.663613 
L 317.373976 175.636536 
L 317.725107 179.477265 
L 318.251803 188.451841 
L 320.18302 226.613135 
L 320.709716 232.232038 
L 321.236412 235.386508 
L 321.763108 237.003686 
L 322.114238 237.370441 
L 322.289803 237.231119 
L 322.465369 236.806182 
L 322.816499 234.832467 
L 323.16763 231.012541 
L 323.694325 221.07905 
L 324.572152 196.563022 
L 325.098848 183.468533 
L 325.449978 178.083536 
L 325.801109 176.041569 
L 325.976674 176.218206 
L 326.152239 177.106163 
L 326.50337 180.75776 
L 327.030065 189.515286 
L 328.785718 221.149024 
L 330.19024 240.316274 
L 330.892501 247.865401 
L 331.243631 250.11188 
L 331.594762 250.997315 
L 331.770327 250.863183 
L 331.945892 250.263058 
L 332.297023 247.525457 
L 332.648154 242.665007 
L 333.350415 228.117226 
L 334.228241 210.298067 
L 334.579371 206.057078 
L 334.930502 204.091156 
L 335.106067 203.868257 
L 335.281632 204.05432 
L 335.632763 205.204879 
L 336.159459 207.014308 
L 336.510589 207.396216 
L 336.686154 207.378214 
L 337.037285 207.020508 
L 337.388415 206.601715 
L 337.563981 206.568069 
L 337.739546 206.753958 
L 337.915111 207.220165 
L 338.266242 209.227323 
L 338.792937 214.787306 
L 340.021894 229.301894 
L 340.373025 231.720977 
L 340.724155 232.785691 
L 340.899721 232.817844 
L 341.075286 232.547524 
L 341.426416 231.238679 
L 341.777547 228.886868 
L 342.304243 223.235101 
L 343.006504 212.046057 
L 344.411026 186.486361 
L 344.937721 180.514796 
L 345.639982 175.465656 
L 346.166678 171.122358 
L 346.693374 164.213014 
L 347.395635 150.95042 
L 348.624592 126.415923 
L 349.151288 120.23439 
L 349.853549 113.529092 
L 350.204679 107.668552 
L 350.731375 94.609959 
L 352.135897 56.300328 
L 352.662593 48.254535 
L 353.013723 45.067866 
L 353.891549 39.547803 
L 354.24268 35.065687 
L 355.647202 11.812392 
L 355.822767 10.951016 
L 355.998333 11.055646 
L 356.173898 12.151613 
L 356.525028 16.988761 
L 357.57842 35.772796 
L 357.753985 37.045554 
L 357.92955 37.401501 
L 358.105116 36.809751 
L 358.456246 32.932525 
L 359.685203 12.61779 
L 359.860768 12.511534 
L 360.036333 13.500933 
L 360.387464 18.364005 
L 361.616421 42.548967 
L 361.791986 43.850632 
L 361.967551 44.275389 
L 362.143116 43.854362 
L 362.494247 40.828381 
L 363.547639 25.943726 
L 363.723204 25.733094 
L 363.898769 26.979 
L 364.2499 33.822568 
L 365.127726 56.275392 
L 365.478856 58.877481 
L 365.654422 58.555793 
L 365.829987 57.3327 
L 366.181117 52.481866 
L 366.707813 39.881252 
L 367.234509 26.338535 
L 367.585639 22.199494 
L 367.761205 22.748009 
L 367.93677 25.22733 
L 368.2879 34.856663 
L 369.165727 63.209515 
L 369.516857 68.855705 
L 369.692422 69.855406 
L 369.867988 69.654897 
L 370.043553 68.335784 
L 370.394684 63.002164 
L 371.096945 50.452094 
L 371.27251 48.955378 
L 371.448075 48.671326 
L 371.62364 49.703914 
L 371.974771 55.753623 
L 373.028162 81.704658 
L 373.203728 83.083054 
L 373.379293 83.030758 
L 373.554858 81.655658 
L 373.905989 76.014936 
L 374.60825 64.056958 
L 374.783815 62.85936 
L 374.95938 62.881532 
L 375.134945 64.305793 
L 375.486076 71.768573 
L 376.012772 92.794576 
L 376.890598 131.25727 
L 377.241728 139.538028 
L 377.592859 143.021875 
L 377.768424 143.58868 
L 378.29512 144.248407 
L 378.470685 145.247195 
L 378.821816 150.065476 
L 379.348512 164.11521 
L 380.577468 203.246425 
L 380.753034 205.373886 
L 380.928599 205.817465 
L 381.104164 204.590687 
L 381.455295 198.212185 
L 382.508686 174.719145 
L 382.684251 173.282253 
L 382.859817 173.021877 
L 383.035382 173.81221 
L 383.386512 178.185596 
L 384.439904 196.075129 
L 384.615469 196.516766 
L 384.791034 195.892215 
L 385.142165 191.584292 
L 386.019991 176.055226 
L 386.195557 174.565331 
L 386.371122 174.106031 
L 386.546687 174.712619 
L 386.897818 178.757928 
L 387.248948 185.846577 
L 388.477905 216.317635 
L 388.65347 216.77386 
L 388.829035 215.610759 
L 389.180166 209.837046 
L 389.706862 200.518683 
L 390.057992 198.023221 
L 390.233557 197.807918 
L 390.760253 198.008216 
L 390.935818 198.252713 
L 391.111384 199.013803 
L 391.462514 202.846265 
L 392.164775 214.277748 
L 392.34034 215.026587 
L 392.515906 214.114688 
L 392.867036 208.149236 
L 393.569297 194.404981 
L 393.920428 190.892565 
L 394.447124 188.141992 
L 394.622689 187.829555 
L 394.798254 188.347729 
L 394.973819 190.088653 
L 395.32495 197.476293 
L 396.027211 216.373941 
L 396.378341 220.923705 
L 396.553907 221.583465 
L 396.729472 221.537409 
L 397.080602 220.413217 
L 397.782863 217.046121 
L 397.958429 216.814661 
L 398.133994 217.174561 
L 398.309559 218.219902 
L 398.66069 222.319064 
L 399.714081 238.857808 
L 399.889646 239.759476 
L 400.065212 239.557392 
L 400.240777 238.100813 
L 400.591908 231.289393 
L 402.34756 183.988734 
L 402.523125 182.30813 
L 402.698691 181.698136 
L 402.874256 181.949679 
L 403.225386 183.178449 
L 403.400952 183.076944 
L 403.576517 182.077208 
L 403.927647 177.371901 
L 404.278778 169.398504 
L 405.507735 135.006742 
L 405.6833 134.497393 
L 405.858865 135.085224 
L 406.209996 138.983666 
L 406.736691 151.160214 
L 407.087822 158.197055 
L 407.263387 159.562343 
L 407.438952 159.39981 
L 407.614518 157.975691 
L 407.965648 152.089602 
L 408.316779 141.547701 
L 409.194605 109.923038 
L 409.721301 99.422033 
L 410.072431 94.971221 
L 410.774692 88.911632 
L 411.125823 81.825237 
L 412.003649 56.405282 
L 412.70591 35.605918 
L 413.057041 31.676038 
L 413.232606 31.952829 
L 413.408171 33.576667 
L 413.759302 39.563688 
L 415.163824 67.147826 
L 415.339389 67.524494 
L 415.514954 66.555061 
L 416.392781 55.907011 
L 416.568346 55.954416 
L 416.919476 57.928972 
L 417.270607 62.056793 
L 417.621737 69.188181 
L 418.323998 85.602234 
L 418.499564 87.221488 
L 418.675129 87.278686 
L 418.850694 85.920304 
L 419.201825 79.646833 
L 419.552955 68.609159 
L 420.781912 21.835011 
L 421.133042 17.744144 
L 421.308608 18.00949 
L 421.659738 20.934257 
L 422.361999 27.670464 
L 422.361999 27.670464 
" style="fill:none;stroke:#009afa;"/>
   </g>
   <g id="matplotlib.axis_1">
    <g id="xtick_1">
     <g id="line2d_2">
      <defs>
       <path d="M 0 0 
L 0 -2.5 
" id="m41f9f63eb4" style="stroke:#000000;stroke-width:0.5;"/>
      </defs>
      <g>
       <use style="stroke:#000000;stroke-width:0.5;" x="71.231488" xlink:href="#m41f9f63eb4" y="258.225354"/>
      </g>
     </g>
     <g id="text_1">
      <!-- $0.0$ -->
      <g transform="translate(64.831488 267.804104)scale(0.08 -0.08)">
       <defs>
        <path d="M 2034 4250 
Q 1547 4250 1301 3770 
Q 1056 3291 1056 2328 
Q 1056 1369 1301 889 
Q 1547 409 2034 409 
Q 2525 409 2770 889 
Q 3016 1369 3016 2328 
Q 3016 3291 2770 3770 
Q 2525 4250 2034 4250 
z
M 2034 4750 
Q 2819 4750 3233 4129 
Q 3647 3509 3647 2328 
Q 3647 1150 3233 529 
Q 2819 -91 2034 -91 
Q 1250 -91 836 529 
Q 422 1150 422 2328 
Q 422 3509 836 4129 
Q 1250 4750 2034 4750 
z
" id="DejaVuSans-30" transform="scale(0.015625)"/>
        <path d="M 684 794 
L 1344 794 
L 1344 0 
L 684 0 
L 684 794 
z
" id="DejaVuSans-2e" transform="scale(0.015625)"/>
       </defs>
       <use transform="translate(0 0.78125)" xlink:href="#DejaVuSans-30"/>
       <use transform="translate(63.623047 0.78125)" xlink:href="#DejaVuSans-2e"/>
       <use transform="translate(95.410156 0.78125)" xlink:href="#DejaVuSans-30"/>
      </g>
     </g>
    </g>
    <g id="xtick_2">
     <g id="line2d_3">
      <g>
       <use style="stroke:#000000;stroke-width:0.5;" x="159.014116" xlink:href="#m41f9f63eb4" y="258.225354"/>
      </g>
     </g>
     <g id="text_2">
      <!-- $0.5$ -->
      <g transform="translate(152.614116 267.804104)scale(0.08 -0.08)">
       <defs>
        <path d="M 691 4666 
L 3169 4666 
L 3169 4134 
L 1269 4134 
L 1269 2991 
Q 1406 3038 1543 3061 
Q 1681 3084 1819 3084 
Q 2600 3084 3056 2656 
Q 3513 2228 3513 1497 
Q 3513 744 3044 326 
Q 2575 -91 1722 -91 
Q 1428 -91 1123 -41 
Q 819 9 494 109 
L 494 744 
Q 775 591 1075 516 
Q 1375 441 1709 441 
Q 2250 441 2565 725 
Q 2881 1009 2881 1497 
Q 2881 1984 2565 2268 
Q 2250 2553 1709 2553 
Q 1456 2553 1204 2497 
Q 953 2441 691 2322 
L 691 4666 
z
" id="DejaVuSans-35" transform="scale(0.015625)"/>
       </defs>
       <use transform="translate(0 0.78125)" xlink:href="#DejaVuSans-30"/>
       <use transform="translate(63.623047 0.78125)" xlink:href="#DejaVuSans-2e"/>
       <use transform="translate(95.410156 0.78125)" xlink:href="#DejaVuSans-35"/>
      </g>
     </g>
    </g>
    <g id="xtick_3">
     <g id="line2d_4">
      <g>
       <use style="stroke:#000000;stroke-width:0.5;" x="246.796743" xlink:href="#m41f9f63eb4" y="258.225354"/>
      </g>
     </g>
     <g id="text_3">
      <!-- $1.0$ -->
      <g transform="translate(240.396743 267.804104)scale(0.08 -0.08)">
       <defs>
        <path d="M 794 531 
L 1825 531 
L 1825 4091 
L 703 3866 
L 703 4441 
L 1819 4666 
L 2450 4666 
L 2450 531 
L 3481 531 
L 3481 0 
L 794 0 
L 794 531 
z
" id="DejaVuSans-31" transform="scale(0.015625)"/>
       </defs>
       <use transform="translate(0 0.78125)" xlink:href="#DejaVuSans-31"/>
       <use transform="translate(63.623047 0.78125)" xlink:href="#DejaVuSans-2e"/>
       <use transform="translate(95.410156 0.78125)" xlink:href="#DejaVuSans-30"/>
      </g>
     </g>
    </g>
    <g id="xtick_4">
     <g id="line2d_5">
      <g>
       <use style="stroke:#000000;stroke-width:0.5;" x="334.579371" xlink:href="#m41f9f63eb4" y="258.225354"/>
      </g>
     </g>
     <g id="text_4">
      <!-- $1.5$ -->
      <g transform="translate(328.179371 267.804104)scale(0.08 -0.08)">
       <use transform="translate(0 0.09375)" xlink:href="#DejaVuSans-31"/>
       <use transform="translate(63.623047 0.09375)" xlink:href="#DejaVuSans-2e"/>
       <use transform="translate(95.410156 0.09375)" xlink:href="#DejaVuSans-35"/>
      </g>
     </g>
    </g>
    <g id="xtick_5">
     <g id="line2d_6">
      <g>
       <use style="stroke:#000000;stroke-width:0.5;" x="422.361999" xlink:href="#m41f9f63eb4" y="258.225354"/>
      </g>
     </g>
     <g id="text_5">
      <!-- $2.0$ -->
      <g transform="translate(415.961999 267.804104)scale(0.08 -0.08)">
       <defs>
        <path d="M 1228 531 
L 3431 531 
L 3431 0 
L 469 0 
L 469 531 
Q 828 903 1448 1529 
Q 2069 2156 2228 2338 
Q 2531 2678 2651 2914 
Q 2772 3150 2772 3378 
Q 2772 3750 2511 3984 
Q 2250 4219 1831 4219 
Q 1534 4219 1204 4116 
Q 875 4013 500 3803 
L 500 4441 
Q 881 4594 1212 4672 
Q 1544 4750 1819 4750 
Q 2544 4750 2975 4387 
Q 3406 4025 3406 3419 
Q 3406 3131 3298 2873 
Q 3191 2616 2906 2266 
Q 2828 2175 2409 1742 
Q 1991 1309 1228 531 
z
" id="DejaVuSans-32" transform="scale(0.015625)"/>
       </defs>
       <use transform="translate(0 0.78125)" xlink:href="#DejaVuSans-32"/>
       <use transform="translate(63.623047 0.78125)" xlink:href="#DejaVuSans-2e"/>
       <use transform="translate(95.410156 0.78125)" xlink:href="#DejaVuSans-30"/>
      </g>
     </g>
    </g>
    <g id="text_6">
     <!-- Time (s) -->
     <g transform="translate(224.434947 281.826136)scale(0.11 -0.11)">
      <defs>
       <path d="M -19 4666 
L 3928 4666 
L 3928 4134 
L 2272 4134 
L 2272 0 
L 1638 0 
L 1638 4134 
L -19 4134 
L -19 4666 
z
" id="DejaVuSans-54" transform="scale(0.015625)"/>
       <path d="M 603 3500 
L 1178 3500 
L 1178 0 
L 603 0 
L 603 3500 
z
M 603 4863 
L 1178 4863 
L 1178 4134 
L 603 4134 
L 603 4863 
z
" id="DejaVuSans-69" transform="scale(0.015625)"/>
       <path d="M 3328 2828 
Q 3544 3216 3844 3400 
Q 4144 3584 4550 3584 
Q 5097 3584 5394 3201 
Q 5691 2819 5691 2113 
L 5691 0 
L 5113 0 
L 5113 2094 
Q 5113 2597 4934 2840 
Q 4756 3084 4391 3084 
Q 3944 3084 3684 2787 
Q 3425 2491 3425 1978 
L 3425 0 
L 2847 0 
L 2847 2094 
Q 2847 2600 2669 2842 
Q 2491 3084 2119 3084 
Q 1678 3084 1418 2786 
Q 1159 2488 1159 1978 
L 1159 0 
L 581 0 
L 581 3500 
L 1159 3500 
L 1159 2956 
Q 1356 3278 1631 3431 
Q 1906 3584 2284 3584 
Q 2666 3584 2933 3390 
Q 3200 3197 3328 2828 
z
" id="DejaVuSans-6d" transform="scale(0.015625)"/>
       <path d="M 3597 1894 
L 3597 1613 
L 953 1613 
Q 991 1019 1311 708 
Q 1631 397 2203 397 
Q 2534 397 2845 478 
Q 3156 559 3463 722 
L 3463 178 
Q 3153 47 2828 -22 
Q 2503 -91 2169 -91 
Q 1331 -91 842 396 
Q 353 884 353 1716 
Q 353 2575 817 3079 
Q 1281 3584 2069 3584 
Q 2775 3584 3186 3129 
Q 3597 2675 3597 1894 
z
M 3022 2063 
Q 3016 2534 2758 2815 
Q 2500 3097 2075 3097 
Q 1594 3097 1305 2825 
Q 1016 2553 972 2059 
L 3022 2063 
z
" id="DejaVuSans-65" transform="scale(0.015625)"/>
       <path id="DejaVuSans-20" transform="scale(0.015625)"/>
       <path d="M 1984 4856 
Q 1566 4138 1362 3434 
Q 1159 2731 1159 2009 
Q 1159 1288 1364 580 
Q 1569 -128 1984 -844 
L 1484 -844 
Q 1016 -109 783 600 
Q 550 1309 550 2009 
Q 550 2706 781 3412 
Q 1013 4119 1484 4856 
L 1984 4856 
z
" id="DejaVuSans-28" transform="scale(0.015625)"/>
       <path d="M 2834 3397 
L 2834 2853 
Q 2591 2978 2328 3040 
Q 2066 3103 1784 3103 
Q 1356 3103 1142 2972 
Q 928 2841 928 2578 
Q 928 2378 1081 2264 
Q 1234 2150 1697 2047 
L 1894 2003 
Q 2506 1872 2764 1633 
Q 3022 1394 3022 966 
Q 3022 478 2636 193 
Q 2250 -91 1575 -91 
Q 1294 -91 989 -36 
Q 684 19 347 128 
L 347 722 
Q 666 556 975 473 
Q 1284 391 1588 391 
Q 1994 391 2212 530 
Q 2431 669 2431 922 
Q 2431 1156 2273 1281 
Q 2116 1406 1581 1522 
L 1381 1569 
Q 847 1681 609 1914 
Q 372 2147 372 2553 
Q 372 3047 722 3315 
Q 1072 3584 1716 3584 
Q 2034 3584 2315 3537 
Q 2597 3491 2834 3397 
z
" id="DejaVuSans-73" transform="scale(0.015625)"/>
       <path d="M 513 4856 
L 1013 4856 
Q 1481 4119 1714 3412 
Q 1947 2706 1947 2009 
Q 1947 1309 1714 600 
Q 1481 -109 1013 -844 
L 513 -844 
Q 928 -128 1133 580 
Q 1338 1288 1338 2009 
Q 1338 2731 1133 3434 
Q 928 4138 513 4856 
z
" id="DejaVuSans-29" transform="scale(0.015625)"/>
      </defs>
      <use xlink:href="#DejaVuSans-54"/>
      <use x="57.958984" xlink:href="#DejaVuSans-69"/>
      <use x="85.742188" xlink:href="#DejaVuSans-6d"/>
      <use x="183.154297" xlink:href="#DejaVuSans-65"/>
      <use x="244.677734" xlink:href="#DejaVuSans-20"/>
      <use x="276.464844" xlink:href="#DejaVuSans-28"/>
      <use x="315.478516" xlink:href="#DejaVuSans-73"/>
      <use x="367.578125" xlink:href="#DejaVuSans-29"/>
     </g>
    </g>
   </g>
   <g id="matplotlib.axis_2">
    <g id="ytick_1">
     <g id="line2d_7">
      <defs>
       <path d="M 0 0 
L 2.5 0 
" id="m300da4c855" style="stroke:#000000;stroke-width:0.5;"/>
      </defs>
      <g>
       <use style="stroke:#000000;stroke-width:0.5;" x="71.231488" xlink:href="#m300da4c855" y="240.968439"/>
      </g>
     </g>
     <g id="text_7">
      <!-- $-1.50×10^{6}$ -->
      <g transform="translate(22.451488 244.007814)scale(0.08 -0.08)">
       <defs>
        <path d="M 678 2272 
L 4684 2272 
L 4684 1741 
L 678 1741 
L 678 2272 
z
" id="DejaVuSans-2212" transform="scale(0.015625)"/>
        <path d="M 4488 3438 
L 3059 2003 
L 4488 575 
L 4116 197 
L 2681 1631 
L 1247 197 
L 878 575 
L 2303 2003 
L 878 3438 
L 1247 3816 
L 2681 2381 
L 4116 3816 
L 4488 3438 
z
" id="DejaVuSans-d7" transform="scale(0.015625)"/>
        <path d="M 2113 2584 
Q 1688 2584 1439 2293 
Q 1191 2003 1191 1497 
Q 1191 994 1439 701 
Q 1688 409 2113 409 
Q 2538 409 2786 701 
Q 3034 994 3034 1497 
Q 3034 2003 2786 2293 
Q 2538 2584 2113 2584 
z
M 3366 4563 
L 3366 3988 
Q 3128 4100 2886 4159 
Q 2644 4219 2406 4219 
Q 1781 4219 1451 3797 
Q 1122 3375 1075 2522 
Q 1259 2794 1537 2939 
Q 1816 3084 2150 3084 
Q 2853 3084 3261 2657 
Q 3669 2231 3669 1497 
Q 3669 778 3244 343 
Q 2819 -91 2113 -91 
Q 1303 -91 875 529 
Q 447 1150 447 2328 
Q 447 3434 972 4092 
Q 1497 4750 2381 4750 
Q 2619 4750 2861 4703 
Q 3103 4656 3366 4563 
z
" id="DejaVuSans-36" transform="scale(0.015625)"/>
       </defs>
       <use transform="translate(0 0.765625)" xlink:href="#DejaVuSans-2212"/>
       <use transform="translate(83.789062 0.765625)" xlink:href="#DejaVuSans-31"/>
       <use transform="translate(147.412109 0.765625)" xlink:href="#DejaVuSans-2e"/>
       <use transform="translate(179.199219 0.765625)" xlink:href="#DejaVuSans-35"/>
       <use transform="translate(242.822266 0.765625)" xlink:href="#DejaVuSans-30"/>
       <use transform="translate(306.445312 0.765625)" xlink:href="#DejaVuSans-d7"/>
       <use transform="translate(390.234375 0.765625)" xlink:href="#DejaVuSans-31"/>
       <use transform="translate(453.857422 0.765625)" xlink:href="#DejaVuSans-30"/>
       <use transform="translate(518.4375 39.046875)scale(0.7)" xlink:href="#DejaVuSans-36"/>
      </g>
     </g>
    </g>
    <g id="ytick_2">
     <g id="line2d_8">
      <g>
       <use style="stroke:#000000;stroke-width:0.5;" x="71.231488" xlink:href="#m300da4c855" y="203.919035"/>
      </g>
     </g>
     <g id="text_8">
      <!-- $-1.00×10^{6}$ -->
      <g transform="translate(22.451488 206.95841)scale(0.08 -0.08)">
       <use transform="translate(0 0.765625)" xlink:href="#DejaVuSans-2212"/>
       <use transform="translate(83.789062 0.765625)" xlink:href="#DejaVuSans-31"/>
       <use transform="translate(147.412109 0.765625)" xlink:href="#DejaVuSans-2e"/>
       <use transform="translate(179.199219 0.765625)" xlink:href="#DejaVuSans-30"/>
       <use transform="translate(242.822266 0.765625)" xlink:href="#DejaVuSans-30"/>
       <use transform="translate(306.445312 0.765625)" xlink:href="#DejaVuSans-d7"/>
       <use transform="translate(390.234375 0.765625)" xlink:href="#DejaVuSans-31"/>
       <use transform="translate(453.857422 0.765625)" xlink:href="#DejaVuSans-30"/>
       <use transform="translate(518.4375 39.046875)scale(0.7)" xlink:href="#DejaVuSans-36"/>
      </g>
     </g>
    </g>
    <g id="ytick_3">
     <g id="line2d_9">
      <g>
       <use style="stroke:#000000;stroke-width:0.5;" x="71.231488" xlink:href="#m300da4c855" y="166.86963"/>
      </g>
     </g>
     <g id="text_9">
      <!-- $-5.00×10^{5}$ -->
      <g transform="translate(22.451488 169.909005)scale(0.08 -0.08)">
       <use transform="translate(0 0.684375)" xlink:href="#DejaVuSans-2212"/>
       <use transform="translate(83.789062 0.684375)" xlink:href="#DejaVuSans-35"/>
       <use transform="translate(147.412109 0.684375)" xlink:href="#DejaVuSans-2e"/>
       <use transform="translate(179.199219 0.684375)" xlink:href="#DejaVuSans-30"/>
       <use transform="translate(242.822266 0.684375)" xlink:href="#DejaVuSans-30"/>
       <use transform="translate(306.445312 0.684375)" xlink:href="#DejaVuSans-d7"/>
       <use transform="translate(390.234375 0.684375)" xlink:href="#DejaVuSans-31"/>
       <use transform="translate(453.857422 0.684375)" xlink:href="#DejaVuSans-30"/>
       <use transform="translate(518.4375 38.965625)scale(0.7)" xlink:href="#DejaVuSans-35"/>
      </g>
     </g>
    </g>
    <g id="ytick_4">
     <g id="line2d_10">
      <g>
       <use style="stroke:#000000;stroke-width:0.5;" x="71.231488" xlink:href="#m300da4c855" y="129.820225"/>
      </g>
     </g>
     <g id="text_10">
      <!-- $0$ -->
      <g transform="translate(62.611488 132.8596)scale(0.08 -0.08)">
       <use transform="translate(0 0.78125)" xlink:href="#DejaVuSans-30"/>
      </g>
     </g>
    </g>
    <g id="ytick_5">
     <g id="line2d_11">
      <g>
       <use style="stroke:#000000;stroke-width:0.5;" x="71.231488" xlink:href="#m300da4c855" y="92.770821"/>
      </g>
     </g>
     <g id="text_11">
      <!-- $5.00×10^{5}$ -->
      <g transform="translate(29.171488 95.810196)scale(0.08 -0.08)">
       <use transform="translate(0 0.684375)" xlink:href="#DejaVuSans-35"/>
       <use transform="translate(63.623047 0.684375)" xlink:href="#DejaVuSans-2e"/>
       <use transform="translate(95.410156 0.684375)" xlink:href="#DejaVuSans-30"/>
       <use transform="translate(159.033203 0.684375)" xlink:href="#DejaVuSans-30"/>
       <use transform="translate(222.65625 0.684375)" xlink:href="#DejaVuSans-d7"/>
       <use transform="translate(306.445312 0.684375)" xlink:href="#DejaVuSans-31"/>
       <use transform="translate(370.068359 0.684375)" xlink:href="#DejaVuSans-30"/>
       <use transform="translate(434.648438 38.965625)scale(0.7)" xlink:href="#DejaVuSans-35"/>
      </g>
     </g>
    </g>
    <g id="ytick_6">
     <g id="line2d_12">
      <g>
       <use style="stroke:#000000;stroke-width:0.5;" x="71.231488" xlink:href="#m300da4c855" y="55.721416"/>
      </g>
     </g>
     <g id="text_12">
      <!-- $1.00×10^{6}$ -->
      <g transform="translate(29.171488 58.760791)scale(0.08 -0.08)">
       <use transform="translate(0 0.765625)" xlink:href="#DejaVuSans-31"/>
       <use transform="translate(63.623047 0.765625)" xlink:href="#DejaVuSans-2e"/>
       <use transform="translate(95.410156 0.765625)" xlink:href="#DejaVuSans-30"/>
       <use transform="translate(159.033203 0.765625)" xlink:href="#DejaVuSans-30"/>
       <use transform="translate(222.65625 0.765625)" xlink:href="#DejaVuSans-d7"/>
       <use transform="translate(306.445312 0.765625)" xlink:href="#DejaVuSans-31"/>
       <use transform="translate(370.068359 0.765625)" xlink:href="#DejaVuSans-30"/>
       <use transform="translate(434.648438 39.046875)scale(0.7)" xlink:href="#DejaVuSans-36"/>
      </g>
     </g>
    </g>
    <g id="ytick_7">
     <g id="line2d_13">
      <g>
       <use style="stroke:#000000;stroke-width:0.5;" x="71.231488" xlink:href="#m300da4c855" y="18.672011"/>
      </g>
     </g>
     <g id="text_13">
      <!-- $1.50×10^{6}$ -->
      <g transform="translate(29.171488 21.711386)scale(0.08 -0.08)">
       <use transform="translate(0 0.765625)" xlink:href="#DejaVuSans-31"/>
       <use transform="translate(63.623047 0.765625)" xlink:href="#DejaVuSans-2e"/>
       <use transform="translate(95.410156 0.765625)" xlink:href="#DejaVuSans-35"/>
       <use transform="translate(159.033203 0.765625)" xlink:href="#DejaVuSans-30"/>
       <use transform="translate(222.65625 0.765625)" xlink:href="#DejaVuSans-d7"/>
       <use transform="translate(306.445312 0.765625)" xlink:href="#DejaVuSans-31"/>
       <use transform="translate(370.068359 0.765625)" xlink:href="#DejaVuSans-30"/>
       <use transform="translate(434.648438 39.046875)scale(0.7)" xlink:href="#DejaVuSans-36"/>
      </g>
     </g>
    </g>
    <g id="text_14">
     <!-- $M_y$ ($Nm$) -->
     <g transform="translate(15.041488 153.245)rotate(-90)scale(0.11 -0.11)">
      <defs>
       <path d="M 1081 4666 
L 2028 4666 
L 2572 1522 
L 4378 4666 
L 5350 4666 
L 4441 0 
L 3828 0 
L 4622 4091 
L 2791 897 
L 2175 897 
L 1581 4103 
L 788 0 
L 172 0 
L 1081 4666 
z
" id="DejaVuSans-Oblique-4d" transform="scale(0.015625)"/>
       <path d="M 1588 -325 
Q 1188 -997 936 -1164 
Q 684 -1331 294 -1331 
L -159 -1331 
L -63 -850 
L 269 -850 
Q 509 -850 678 -719 
Q 847 -588 1056 -206 
L 1234 128 
L 459 3500 
L 1069 3500 
L 1650 819 
L 3256 3500 
L 3859 3500 
L 1588 -325 
z
" id="DejaVuSans-Oblique-79" transform="scale(0.015625)"/>
       <path d="M 1081 4666 
L 1931 4666 
L 3219 666 
L 4000 4666 
L 4616 4666 
L 3706 0 
L 2853 0 
L 1569 4025 
L 788 0 
L 172 0 
L 1081 4666 
z
" id="DejaVuSans-Oblique-4e" transform="scale(0.015625)"/>
       <path d="M 5747 2113 
L 5338 0 
L 4763 0 
L 5166 2094 
Q 5191 2228 5203 2325 
Q 5216 2422 5216 2491 
Q 5216 2772 5059 2928 
Q 4903 3084 4622 3084 
Q 4203 3084 3875 2770 
Q 3547 2456 3450 1953 
L 3066 0 
L 2491 0 
L 2900 2094 
Q 2925 2209 2937 2307 
Q 2950 2406 2950 2484 
Q 2950 2769 2794 2926 
Q 2638 3084 2363 3084 
Q 1938 3084 1609 2770 
Q 1281 2456 1184 1953 
L 800 0 
L 225 0 
L 909 3500 
L 1484 3500 
L 1375 2956 
Q 1609 3263 1923 3423 
Q 2238 3584 2597 3584 
Q 2978 3584 3223 3384 
Q 3469 3184 3519 2828 
Q 3781 3197 4126 3390 
Q 4472 3584 4856 3584 
Q 5306 3584 5551 3325 
Q 5797 3066 5797 2591 
Q 5797 2488 5784 2364 
Q 5772 2241 5747 2113 
z
" id="DejaVuSans-Oblique-6d" transform="scale(0.015625)"/>
      </defs>
      <use transform="translate(0 0.125)" xlink:href="#DejaVuSans-Oblique-4d"/>
      <use transform="translate(86.279297 -16.28125)scale(0.7)" xlink:href="#DejaVuSans-Oblique-79"/>
      <use transform="translate(130.439453 0.125)" xlink:href="#DejaVuSans-20"/>
      <use transform="translate(162.226562 0.125)" xlink:href="#DejaVuSans-28"/>
      <use transform="translate(201.240234 0.125)" xlink:href="#DejaVuSans-Oblique-4e"/>
      <use transform="translate(276.044922 0.125)" xlink:href="#DejaVuSans-Oblique-6d"/>
      <use transform="translate(373.457031 0.125)" xlink:href="#DejaVuSans-29"/>
     </g>
    </g>
   </g>
   <g id="line2d_14">
    <path clip-path="url(#p4bacd785ac)" d="M 71.231488 129.820225 
L 72.782269 129.928627 
L 73.814804 130.015602 
L 74.664955 129.680646 
L 75.830821 129.111597 
L 76.413969 129.130796 
L 77.067799 129.451588 
L 79.68075 130.990912 
L 80.814698 131.774987 
L 81.306192 131.879806 
L 81.765207 131.708381 
L 82.341772 131.279432 
L 86.696115 126.874984 
L 87.323446 126.590731 
L 88.420193 126.536869 
L 89.172704 126.422116 
L 90.228464 126.086472 
L 90.730535 126.062297 
L 91.358123 126.355649 
L 91.985711 126.860916 
L 93.416907 128.438152 
L 94.255904 129.83209 
L 95.124307 131.935456 
L 96.63716 135.70621 
L 97.312976 136.879262 
L 98.763903 138.762519 
L 99.536899 139.518085 
L 100.161248 139.780474 
L 100.668319 139.815448 
L 102.020509 139.714009 
L 102.643506 139.851724 
L 103.210873 139.928129 
L 103.837783 139.806104 
L 104.317293 139.451513 
L 105.167604 138.501811 
L 106.843761 136.074415 
L 107.554611 134.694555 
L 109.89157 129.508104 
L 111.484488 126.556915 
L 112.676779 123.507504 
L 114.345987 118.556494 
L 115.307627 114.939213 
L 116.910744 108.509157 
L 117.828914 105.731984 
L 119.037545 102.833936 
L 119.846172 101.332505 
L 120.473078 100.546772 
L 121.120619 100.171508 
L 121.816181 100.051876 
L 123.334684 100.009635 
L 123.910032 100.277192 
L 124.490892 101.016287 
L 125.099602 102.172382 
L 126.37095 105.475984 
L 127.370733 108.556594 
L 128.787096 113.981659 
L 129.985773 118.32383 
L 133.81045 130.203181 
L 135.041769 134.800806 
L 136.331207 141.069645 
L 138.825478 153.471505 
L 141.682087 167.412265 
L 143.940016 176.523135 
L 144.585139 178.370785 
L 145.230262 179.59901 
L 145.753337 180.207335 
L 146.49398 180.639724 
L 147.235594 180.79395 
L 147.739707 180.681888 
L 148.24792 180.421937 
L 150.026666 179.056774 
L 150.547816 179.045652 
L 151.334668 179.433838 
L 152.509399 180.092409 
L 154.241894 180.512887 
L 155.035528 180.610952 
L 155.460859 180.460686 
L 155.88619 180.183176 
L 156.749729 179.152959 
L 158.096087 177.441211 
L 159.004239 176.363782 
L 159.912391 174.729235 
L 160.770804 172.323849 
L 161.788076 168.526069 
L 162.707478 163.975548 
L 163.62688 157.830389 
L 164.852749 147.564695 
L 169.715952 105.121793 
L 172.731343 82.461486 
L 173.664206 77.334432 
L 174.683533 72.958242 
L 175.610858 69.929661 
L 176.306392 68.408187 
L 176.972718 67.43054 
L 178.075791 66.016605 
L 178.688127 64.935638 
L 180.704674 60.838359 
L 181.791023 59.333414 
L 182.515256 58.673005 
L 182.877372 58.549368 
L 183.239489 58.569413 
L 183.601605 58.80376 
L 184.329259 59.912471 
L 185.361377 62.23355 
L 186.669528 64.979865 
L 188.277212 68.152715 
L 189.369436 70.715297 
L 190.171591 73.068926 
L 190.773207 75.424896 
L 191.575362 79.689075 
L 192.578056 86.800838 
L 194.702845 104.166284 
L 197.31925 125.029251 
L 201.001758 151.824663 
L 201.894445 156.142683 
L 202.793074 159.309391 
L 203.498548 161.16321 
L 204.498777 163.087838 
L 205.283161 164.599769 
L 205.812357 166.038376 
L 206.606152 169.149461 
L 207.986689 176.372303 
L 208.816304 180.304674 
L 209.645918 183.135088 
L 210.220281 184.40122 
L 210.846476 185.169859 
L 211.209299 185.28561 
L 211.572123 185.113909 
L 211.934946 184.656481 
L 212.306055 183.875528 
L 213.048272 181.469769 
L 214.843962 174.535615 
L 215.329202 173.420793 
L 215.83889 172.817365 
L 216.256449 172.6246 
L 216.708908 172.688088 
L 218.504919 173.400586 
L 218.863962 173.220162 
L 219.217743 172.765918 
L 219.685352 171.595575 
L 220.158389 169.625955 
L 220.631425 166.731873 
L 221.274497 161.322338 
L 222.146573 152.072699 
L 224.989887 120.863519 
L 228.040206 90.050346 
L 229.120382 74.122354 
L 230.698742 50.356561 
L 231.42317 41.782002 
L 232.157933 35.511196 
L 232.647876 32.953424 
L 233.137819 31.815492 
L 233.382791 31.75984 
L 233.558931 31.9364 
L 233.921693 32.86377 
L 234.487177 35.546115 
L 235.288755 40.817834 
L 236.282535 47.432606 
L 237.091234 51.409554 
L 238.170446 55.276034 
L 239.252498 58.523468 
L 239.796131 59.427989 
L 240.067947 59.635362 
L 240.352761 59.678273 
L 240.922388 59.344806 
L 241.516297 58.927852 
L 241.816705 58.853216 
L 242.13004 58.918331 
L 242.775605 59.458943 
L 244.897719 62.118365 
L 245.258021 62.982999 
L 245.90189 65.35072 
L 247.008556 70.332949 
L 247.517751 71.597455 
L 247.871206 71.841662 
L 248.240079 71.633919 
L 249.107544 70.739081 
L 249.332874 70.831021 
L 249.55937 71.176672 
L 250.012362 72.718423 
L 250.465355 75.45148 
L 251.144844 81.440788 
L 251.824332 89.300984 
L 252.503821 99.378268 
L 253.409806 117.130994 
L 255.309341 157.530425 
L 255.98115 167.219968 
L 256.775173 175.529639 
L 257.666341 182.395808 
L 258.231562 185.35477 
L 258.616254 186.631556 
L 259.002719 187.322824 
L 259.389183 187.594681 
L 260.049147 187.905534 
L 260.346889 188.286623 
L 260.761663 189.235442 
L 261.559373 192.071336 
L 262.091179 193.695243 
L 262.359372 194.110968 
L 262.633356 194.168504 
L 262.917009 193.812272 
L 263.360276 192.565407 
L 264.521657 188.630879 
L 264.880402 188.079479 
L 265.244723 188.019711 
L 265.609044 188.37934 
L 266.155525 189.349544 
L 267.066328 191.512863 
L 267.626348 193.28853 
L 268.197633 195.987923 
L 268.998746 201.312038 
L 269.824894 206.5425 
L 270.245975 207.918414 
L 270.459018 208.098144 
L 270.672062 207.915161 
L 271.100304 206.600983 
L 271.798601 202.796362 
L 272.540722 198.978557 
L 273.048097 197.686815 
L 273.303006 197.437235 
L 273.838885 197.366444 
L 274.427421 197.289906 
L 274.7381 197.024982 
L 275.075727 196.478396 
L 276.437522 193.503875 
L 277.118548 192.815347 
L 277.760796 192.512488 
L 277.995314 192.290164 
L 278.464351 191.293719 
L 278.933388 189.344427 
L 279.53475 185.04329 
L 280.085015 179.19052 
L 281.185546 164.259308 
L 283.40824 133.222354 
L 284.216449 124.786228 
L 286.002825 108.296287 
L 286.792427 97.122563 
L 290.573564 37.689626 
L 291.034664 34.370691 
L 291.271031 33.580991 
L 291.511606 33.412434 
L 291.752181 33.851046 
L 292.238515 36.30772 
L 292.989409 42.40511 
L 294.019176 50.782312 
L 294.812111 55.495759 
L 295.370649 57.775855 
L 295.649918 58.464066 
L 295.929187 58.779747 
L 296.208455 58.622294 
L 296.487724 57.880695 
L 296.767419 56.485573 
L 297.33235 51.737603 
L 298.188057 41.120147 
L 299.26885 28.112277 
L 299.847947 23.729006 
L 300.336835 21.722481 
L 300.680282 21.337268 
L 300.857712 21.459071 
L 301.212572 22.308151 
L 301.567432 23.989947 
L 302.114448 28.235379 
L 302.661464 34.510619 
L 304.527563 58.826651 
L 305.021491 61.845697 
L 305.189805 62.267658 
L 305.367454 62.362921 
L 305.56063 62.057838 
L 305.753805 61.340364 
L 306.184896 58.487866 
L 306.844672 51.907023 
L 308.910405 28.831506 
L 309.128342 28.230958 
L 309.239012 28.258389 
L 309.461514 29.086228 
L 309.684017 31.039093 
L 310.025794 36.272129 
L 310.516201 48.031421 
L 311.327679 74.841716 
L 313.109673 136.212981 
L 313.760385 152.671074 
L 314.411097 164.169534 
L 314.844905 169.048238 
L 315.278713 171.68301 
L 315.655963 172.422708 
L 315.844587 172.364387 
L 316.599087 171.484945 
L 316.787712 171.682488 
L 316.976337 172.272068 
L 317.353587 174.982282 
L 317.730837 179.95027 
L 318.298472 190.91471 
L 319.735337 221.37898 
L 320.225532 228.333252 
L 320.716974 232.84852 
L 321.208416 235.687236 
L 321.699858 237.580815 
L 321.946075 238.114393 
L 322.165286 238.221724 
L 322.384497 237.852788 
L 322.675033 236.371668 
L 322.949434 233.643404 
L 323.361036 226.757922 
L 323.936183 211.874041 
L 324.996676 182.460779 
L 325.312498 177.741131 
L 325.628319 175.777853 
L 325.78623 175.824056 
L 325.94414 176.50691 
L 326.239015 179.263329 
L 326.747471 187.002967 
L 328.617498 218.404716 
L 330.432688 244.173353 
L 330.98018 248.896047 
L 331.36968 250.441883 
L 331.568986 250.533977 
L 331.768293 250.040122 
L 331.967599 248.885616 
L 332.404626 243.937613 
L 333.073646 231.048627 
L 334.029138 212.29874 
L 334.456592 207.290456 
L 334.884046 205.166645 
L 335.097773 205.13257 
L 335.525227 206.33656 
L 335.963957 207.630118 
L 336.183321 207.848851 
L 336.357592 207.767588 
L 336.711214 207.042139 
L 337.362745 205.306014 
L 337.486229 205.221259 
L 337.617666 205.320557 
L 337.894791 206.362282 
L 338.197855 208.781127 
L 338.813329 216.292868 
L 339.767794 227.947435 
L 340.263089 231.268385 
L 340.71696 232.585333 
L 340.878391 232.706292 
L 341.01157 232.630101 
L 341.283454 231.999041 
L 341.658471 230.017479 
L 342.121044 225.818489 
L 342.641731 218.493843 
L 343.480442 202.053238 
L 344.324806 186.697421 
L 344.781441 181.375217 
L 345.446633 176.750563 
L 346.020772 171.869305 
L 346.472221 166.081435 
L 347.112359 154.972531 
L 348.417975 129.118096 
L 348.944697 124.030856 
L 349.472693 119.124388 
L 349.894337 112.754457 
L 350.48128 99.010301 
L 352.196336 55.145382 
L 352.780892 48.14839 
L 353.779262 39.754844 
L 354.191001 33.524837 
L 355.451259 10.849643 
L 355.662101 10.062685 
L 355.843786 10.548401 
L 356.025472 12.115897 
L 356.390012 18.060146 
L 357.248251 35.600868 
L 357.473696 37.864892 
L 357.699142 38.44606 
L 357.924587 37.338113 
L 358.392574 30.651642 
L 359.122429 16.970397 
L 359.365714 14.295459 
L 359.608998 13.541918 
L 359.852283 14.906941 
L 360.308328 22.598844 
L 361.246894 42.956827 
L 361.433627 44.929043 
L 361.621652 45.669508 
L 361.809677 45.102702 
L 361.997702 43.255765 
L 362.388133 36.24224 
L 362.98658 24.627303 
L 363.18886 22.702073 
L 363.391139 22.534877 
L 363.593418 24.302325 
L 363.997977 32.909397 
L 364.940406 57.912231 
L 365.127969 59.974458 
L 365.315533 60.523475 
L 365.503096 59.564871 
L 365.878222 53.733728 
L 366.386419 40.394281 
L 367.00338 24.343408 
L 367.232439 21.609773 
L 367.352999 21.357017 
L 367.487044 22.132411 
L 367.760629 27.068705 
L 368.219688 42.25463 
L 368.948934 66.099837 
L 369.338761 71.719537 
L 369.468703 71.960073 
L 369.598646 71.314737 
L 369.885595 67.010095 
L 370.950181 44.866378 
L 371.132308 44.737511 
L 371.314434 46.199348 
L 371.678687 53.411974 
L 372.569714 76.884008 
L 372.900051 80.237492 
L 373.065219 80.27037 
L 373.212483 79.384892 
L 373.507012 75.266695 
L 374.470553 57.216704 
L 374.63784 56.728832 
L 374.805127 57.657653 
L 375.139701 64.1829 
L 375.641563 84.447629 
L 376.509412 124.674303 
L 376.864929 134.179696 
L 377.220446 138.237989 
L 377.398205 138.733642 
L 377.583182 138.627692 
L 377.770107 138.338427 
L 377.963374 138.391512 
L 378.156641 139.311776 
L 378.349908 141.46454 
L 378.740652 150.070491 
L 379.331717 171.430564 
L 380.095931 198.859549 
L 380.422581 203.863309 
L 380.576082 204.294799 
L 380.729582 203.569595 
L 381.036582 199.063058 
L 382.229487 174.157296 
L 382.385342 173.539239 
L 382.542055 173.901269 
L 382.855482 177.490346 
L 383.325622 188.025186 
L 383.797051 197.881825 
L 384.111338 199.997992 
L 384.268481 199.455345 
L 384.582767 195.56482 
L 385.734744 174.802138 
L 385.874806 174.081597 
L 386.015377 173.948729 
L 386.155948 174.388634 
L 386.437091 177.007427 
L 386.762589 183.204451 
L 388.064581 214.893593 
L 388.203817 214.728099 
L 388.38829 213.123103 
L 388.938489 203.971223 
L 389.43963 197.94281 
L 389.828836 195.324705 
L 389.972059 194.892754 
L 390.115282 194.904606 
L 390.269325 195.530359 
L 390.600735 199.424108 
L 391.535353 217.197298 
L 391.728052 217.906816 
L 391.920751 217.064056 
L 392.30615 212.004677 
L 393.852889 187.438648 
L 394.046446 187.230066 
L 394.240003 188.46735 
L 394.627116 194.54832 
L 395.831802 218.659516 
L 396.039807 220.247435 
L 396.247812 220.592131 
L 396.466446 219.594063 
L 397.340981 211.20382 
L 397.559615 211.245277 
L 397.778248 212.794892 
L 398.170309 218.821714 
L 399.210873 241.670098 
L 399.3843 243.001913 
L 399.557728 242.96545 
L 399.707674 241.916458 
L 400.007567 237.455279 
L 400.459584 225.781827 
L 401.371003 198.51102 
L 401.674809 193.909128 
L 401.990709 191.90825 
L 402.154707 191.636823 
L 402.601296 191.682604 
L 402.835474 191.184483 
L 403.099129 189.494126 
L 403.313758 186.700325 
L 403.641565 178.890917 
L 404.241356 155.842154 
L 404.752067 138.383613 
L 405.009972 133.496386 
L 405.270426 132.127564 
L 405.400653 132.927357 
L 405.668494 137.382068 
L 406.763364 161.504628 
L 406.901492 162.613598 
L 407.03962 162.655589 
L 407.177748 161.55824 
L 407.454004 156.39113 
L 408.006516 139.539555 
L 408.698815 117.923377 
L 408.996613 113.057491 
L 410.3147 101.156709 
L 410.669663 93.299838 
L 411.39104 68.09267 
L 412.134565 43.427142 
L 412.506738 37.498223 
L 412.695929 37.055178 
L 412.88512 38.137006 
L 413.213927 42.503866 
L 414.136009 55.928777 
L 414.426305 58.338238 
L 414.568 58.865992 
L 414.723418 58.920907 
L 414.880068 58.318253 
L 415.193366 55.044499 
L 415.531907 50.979637 
L 415.702657 50.047593 
L 415.874035 50.061403 
L 416.045462 50.944825 
L 416.388318 55.299759 
L 416.912238 66.602449 
L 417.830978 88.746944 
L 418.117598 90.464756 
L 418.272032 89.89203 
L 418.582278 85.483936 
L 418.892524 76.85004 
L 420.233896 26.924724 
L 420.405746 25.171175 
L 420.577595 24.962637 
L 420.922001 27.090147 
L 421.267113 29.311795 
L 421.784782 31.674764 
L 422.129895 33.655214 
L 422.302451 33.949216 
L 422.361999 33.864117 
" style="fill:none;stroke:#e36f47;"/>
   </g>
   <g id="patch_3">
    <path d="M 71.231488 258.225354 
L 71.231488 2.834646 
" style="fill:none;stroke:#000000;stroke-linecap:square;stroke-linejoin:miter;"/>
   </g>
   <g id="patch_4">
    <path d="M 71.231488 258.225354 
L 422.361999 258.225354 
" style="fill:none;stroke:#000000;stroke-linecap:square;stroke-linejoin:miter;"/>
   </g>
   <g id="legend_1">
    <g id="patch_5">
     <path d="M 299.041999 39.119646 
L 418.361999 39.119646 
L 418.361999 6.834646 
L 299.041999 6.834646 
z
" style="fill:#ffffff;stroke:#000000;stroke-linejoin:miter;"/>
    </g>
    <g id="line2d_15">
     <path d="M 305.441999 16.513396 
L 321.441999 16.513396 
" style="fill:none;stroke:#009afa;stroke-linejoin:miter;"/>
    </g>
    <g id="line2d_16"/>
    <g id="text_15">
     <!-- GXBeam -->
     <g transform="translate(327.841999 19.313396)scale(0.08 -0.08)">
      <defs>
       <path d="M 3809 666 
L 3809 1919 
L 2778 1919 
L 2778 2438 
L 4434 2438 
L 4434 434 
Q 4069 175 3628 42 
Q 3188 -91 2688 -91 
Q 1594 -91 976 548 
Q 359 1188 359 2328 
Q 359 3472 976 4111 
Q 1594 4750 2688 4750 
Q 3144 4750 3555 4637 
Q 3966 4525 4313 4306 
L 4313 3634 
Q 3963 3931 3569 4081 
Q 3175 4231 2741 4231 
Q 1884 4231 1454 3753 
Q 1025 3275 1025 2328 
Q 1025 1384 1454 906 
Q 1884 428 2741 428 
Q 3075 428 3337 486 
Q 3600 544 3809 666 
z
" id="DejaVuSans-47" transform="scale(0.015625)"/>
       <path d="M 403 4666 
L 1081 4666 
L 2241 2931 
L 3406 4666 
L 4084 4666 
L 2584 2425 
L 4184 0 
L 3506 0 
L 2194 1984 
L 872 0 
L 191 0 
L 1856 2491 
L 403 4666 
z
" id="DejaVuSans-58" transform="scale(0.015625)"/>
       <path d="M 1259 2228 
L 1259 519 
L 2272 519 
Q 2781 519 3026 730 
Q 3272 941 3272 1375 
Q 3272 1813 3026 2020 
Q 2781 2228 2272 2228 
L 1259 2228 
z
M 1259 4147 
L 1259 2741 
L 2194 2741 
Q 2656 2741 2882 2914 
Q 3109 3088 3109 3444 
Q 3109 3797 2882 3972 
Q 2656 4147 2194 4147 
L 1259 4147 
z
M 628 4666 
L 2241 4666 
Q 2963 4666 3353 4366 
Q 3744 4066 3744 3513 
Q 3744 3084 3544 2831 
Q 3344 2578 2956 2516 
Q 3422 2416 3680 2098 
Q 3938 1781 3938 1306 
Q 3938 681 3513 340 
Q 3088 0 2303 0 
L 628 0 
L 628 4666 
z
" id="DejaVuSans-42" transform="scale(0.015625)"/>
       <path d="M 2194 1759 
Q 1497 1759 1228 1600 
Q 959 1441 959 1056 
Q 959 750 1161 570 
Q 1363 391 1709 391 
Q 2188 391 2477 730 
Q 2766 1069 2766 1631 
L 2766 1759 
L 2194 1759 
z
M 3341 1997 
L 3341 0 
L 2766 0 
L 2766 531 
Q 2569 213 2275 61 
Q 1981 -91 1556 -91 
Q 1019 -91 701 211 
Q 384 513 384 1019 
Q 384 1609 779 1909 
Q 1175 2209 1959 2209 
L 2766 2209 
L 2766 2266 
Q 2766 2663 2505 2880 
Q 2244 3097 1772 3097 
Q 1472 3097 1187 3025 
Q 903 2953 641 2809 
L 641 3341 
Q 956 3463 1253 3523 
Q 1550 3584 1831 3584 
Q 2591 3584 2966 3190 
Q 3341 2797 3341 1997 
z
" id="DejaVuSans-61" transform="scale(0.015625)"/>
      </defs>
      <use xlink:href="#DejaVuSans-47"/>
      <use x="77.490234" xlink:href="#DejaVuSans-58"/>
      <use x="145.996094" xlink:href="#DejaVuSans-42"/>
      <use x="214.599609" xlink:href="#DejaVuSans-65"/>
      <use x="276.123047" xlink:href="#DejaVuSans-61"/>
      <use x="337.402344" xlink:href="#DejaVuSans-6d"/>
     </g>
    </g>
    <g id="line2d_17">
     <path d="M 305.441999 28.255896 
L 321.441999 28.255896 
" style="fill:none;stroke:#e36f47;stroke-linejoin:miter;"/>
    </g>
    <g id="line2d_18"/>
    <g id="text_16">
     <!-- DifferentialEquations -->
     <g transform="translate(327.841999 31.055896)scale(0.08 -0.08)">
      <defs>
       <path d="M 1259 4147 
L 1259 519 
L 2022 519 
Q 2988 519 3436 956 
Q 3884 1394 3884 2338 
Q 3884 3275 3436 3711 
Q 2988 4147 2022 4147 
L 1259 4147 
z
M 628 4666 
L 1925 4666 
Q 3281 4666 3915 4102 
Q 4550 3538 4550 2338 
Q 4550 1131 3912 565 
Q 3275 0 1925 0 
L 628 0 
L 628 4666 
z
" id="DejaVuSans-44" transform="scale(0.015625)"/>
       <path d="M 2375 4863 
L 2375 4384 
L 1825 4384 
Q 1516 4384 1395 4259 
Q 1275 4134 1275 3809 
L 1275 3500 
L 2222 3500 
L 2222 3053 
L 1275 3053 
L 1275 0 
L 697 0 
L 697 3053 
L 147 3053 
L 147 3500 
L 697 3500 
L 697 3744 
Q 697 4328 969 4595 
Q 1241 4863 1831 4863 
L 2375 4863 
z
" id="DejaVuSans-66" transform="scale(0.015625)"/>
       <path d="M 2631 2963 
Q 2534 3019 2420 3045 
Q 2306 3072 2169 3072 
Q 1681 3072 1420 2755 
Q 1159 2438 1159 1844 
L 1159 0 
L 581 0 
L 581 3500 
L 1159 3500 
L 1159 2956 
Q 1341 3275 1631 3429 
Q 1922 3584 2338 3584 
Q 2397 3584 2469 3576 
Q 2541 3569 2628 3553 
L 2631 2963 
z
" id="DejaVuSans-72" transform="scale(0.015625)"/>
       <path d="M 3513 2113 
L 3513 0 
L 2938 0 
L 2938 2094 
Q 2938 2591 2744 2837 
Q 2550 3084 2163 3084 
Q 1697 3084 1428 2787 
Q 1159 2491 1159 1978 
L 1159 0 
L 581 0 
L 581 3500 
L 1159 3500 
L 1159 2956 
Q 1366 3272 1645 3428 
Q 1925 3584 2291 3584 
Q 2894 3584 3203 3211 
Q 3513 2838 3513 2113 
z
" id="DejaVuSans-6e" transform="scale(0.015625)"/>
       <path d="M 1172 4494 
L 1172 3500 
L 2356 3500 
L 2356 3053 
L 1172 3053 
L 1172 1153 
Q 1172 725 1289 603 
Q 1406 481 1766 481 
L 2356 481 
L 2356 0 
L 1766 0 
Q 1100 0 847 248 
Q 594 497 594 1153 
L 594 3053 
L 172 3053 
L 172 3500 
L 594 3500 
L 594 4494 
L 1172 4494 
z
" id="DejaVuSans-74" transform="scale(0.015625)"/>
       <path d="M 603 4863 
L 1178 4863 
L 1178 0 
L 603 0 
L 603 4863 
z
" id="DejaVuSans-6c" transform="scale(0.015625)"/>
       <path d="M 628 4666 
L 3578 4666 
L 3578 4134 
L 1259 4134 
L 1259 2753 
L 3481 2753 
L 3481 2222 
L 1259 2222 
L 1259 531 
L 3634 531 
L 3634 0 
L 628 0 
L 628 4666 
z
" id="DejaVuSans-45" transform="scale(0.015625)"/>
       <path d="M 947 1747 
Q 947 1113 1208 752 
Q 1469 391 1925 391 
Q 2381 391 2643 752 
Q 2906 1113 2906 1747 
Q 2906 2381 2643 2742 
Q 2381 3103 1925 3103 
Q 1469 3103 1208 2742 
Q 947 2381 947 1747 
z
M 2906 525 
Q 2725 213 2448 61 
Q 2172 -91 1784 -91 
Q 1150 -91 751 415 
Q 353 922 353 1747 
Q 353 2572 751 3078 
Q 1150 3584 1784 3584 
Q 2172 3584 2448 3432 
Q 2725 3281 2906 2969 
L 2906 3500 
L 3481 3500 
L 3481 -1331 
L 2906 -1331 
L 2906 525 
z
" id="DejaVuSans-71" transform="scale(0.015625)"/>
       <path d="M 544 1381 
L 544 3500 
L 1119 3500 
L 1119 1403 
Q 1119 906 1312 657 
Q 1506 409 1894 409 
Q 2359 409 2629 706 
Q 2900 1003 2900 1516 
L 2900 3500 
L 3475 3500 
L 3475 0 
L 2900 0 
L 2900 538 
Q 2691 219 2414 64 
Q 2138 -91 1772 -91 
Q 1169 -91 856 284 
Q 544 659 544 1381 
z
M 1991 3584 
L 1991 3584 
z
" id="DejaVuSans-75" transform="scale(0.015625)"/>
       <path d="M 1959 3097 
Q 1497 3097 1228 2736 
Q 959 2375 959 1747 
Q 959 1119 1226 758 
Q 1494 397 1959 397 
Q 2419 397 2687 759 
Q 2956 1122 2956 1747 
Q 2956 2369 2687 2733 
Q 2419 3097 1959 3097 
z
M 1959 3584 
Q 2709 3584 3137 3096 
Q 3566 2609 3566 1747 
Q 3566 888 3137 398 
Q 2709 -91 1959 -91 
Q 1206 -91 779 398 
Q 353 888 353 1747 
Q 353 2609 779 3096 
Q 1206 3584 1959 3584 
z
" id="DejaVuSans-6f" transform="scale(0.015625)"/>
      </defs>
      <use xlink:href="#DejaVuSans-44"/>
      <use x="77.001953" xlink:href="#DejaVuSans-69"/>
      <use x="104.785156" xlink:href="#DejaVuSans-66"/>
      <use x="139.990234" xlink:href="#DejaVuSans-66"/>
      <use x="175.195312" xlink:href="#DejaVuSans-65"/>
      <use x="236.71875" xlink:href="#DejaVuSans-72"/>
      <use x="275.582031" xlink:href="#DejaVuSans-65"/>
      <use x="337.105469" xlink:href="#DejaVuSans-6e"/>
      <use x="400.484375" xlink:href="#DejaVuSans-74"/>
      <use x="439.693359" xlink:href="#DejaVuSans-69"/>
      <use x="467.476562" xlink:href="#DejaVuSans-61"/>
      <use x="528.755859" xlink:href="#DejaVuSans-6c"/>
      <use x="556.539062" xlink:href="#DejaVuSans-45"/>
      <use x="619.722656" xlink:href="#DejaVuSans-71"/>
      <use x="683.199219" xlink:href="#DejaVuSans-75"/>
      <use x="746.578125" xlink:href="#DejaVuSans-61"/>
      <use x="807.857422" xlink:href="#DejaVuSans-74"/>
      <use x="847.066406" xlink:href="#DejaVuSans-69"/>
      <use x="874.849609" xlink:href="#DejaVuSans-6f"/>
      <use x="936.03125" xlink:href="#DejaVuSans-6e"/>
      <use x="999.410156" xlink:href="#DejaVuSans-73"/>
     </g>
    </g>
   </g>
  </g>
 </g>
 <defs>
  <clipPath id="p4bacd785ac">
   <rect height="255.390709" width="351.130512" x="71.231488" y="2.834646"/>
  </clipPath>
 </defs>
</svg>
