<?xml version="1.0" encoding="utf-8" standalone="no"?>
<!DOCTYPE svg PUBLIC "-//W3C//DTD SVG 1.1//EN"
  "http://www.w3.org/Graphics/SVG/1.1/DTD/svg11.dtd">
<svg height="288pt" version="1.1" viewBox="0 0 432 288" width="432pt" xmlns="http://www.w3.org/2000/svg" xmlns:xlink="http://www.w3.org/1999/xlink">
 <metadata>
  <rdf:RDF xmlns:cc="http://creativecommons.org/ns#" xmlns:dc="http://purl.org/dc/elements/1.1/" xmlns:rdf="http://www.w3.org/1999/02/22-rdf-syntax-ns#">
   <cc:Work>
    <dc:type rdf:resource="http://purl.org/dc/dcmitype/StillImage"/>
    <dc:date>2021-09-29T22:45:21.250673</dc:date>
    <dc:format>image/svg+xml</dc:format>
    <dc:creator>
     <cc:Agent>
      <dc:title>Matplotlib v3.4.2, https://matplotlib.org/</dc:title>
     </cc:Agent>
    </dc:creator>
   </cc:Work>
  </rdf:RDF>
 </metadata>
 <defs>
  <style type="text/css">*{stroke-linecap:butt;stroke-linejoin:round;}</style>
 </defs>
 <g id="figure_1">
  <g id="patch_1">
   <path d="M 0 288 
L 432 288 
L 432 0 
L 0 0 
z
" style="fill:#ffffff;"/>
  </g>
  <g id="axes_1">
   <g id="patch_2">
    <path d="M 29.556396 258.225354 
L 422.361999 258.225354 
L 422.361999 2.834646 
L 29.556396 2.834646 
z
" style="fill:#ffffff;"/>
   </g>
   <g id="line2d_1">
    <path clip-path="url(#p34ca68a586)" d="M 29.556396 250.997315 
L 31.127618 250.903271 
L 32.502438 250.571723 
L 33.680855 250.066045 
L 34.859271 249.299578 
L 36.037688 248.235061 
L 37.412508 246.674731 
L 38.590925 245.056408 
L 39.769341 243.10514 
L 41.144161 240.428347 
L 42.715383 236.924602 
L 44.483009 232.440617 
L 47.232648 224.807647 
L 49.982287 216.417829 
L 53.71394 204.226034 
L 56.46358 195.68501 
L 58.427608 190.236364 
L 60.195233 185.965539 
L 61.766455 182.699636 
L 63.141275 180.394073 
L 64.516094 178.581879 
L 65.694511 177.367556 
L 66.872928 176.465803 
L 68.247748 175.72805 
L 69.622567 175.243731 
L 70.800984 175.091954 
L 71.782998 175.183082 
L 72.961415 175.523605 
L 73.943429 176.00346 
L 75.121846 176.860557 
L 76.496665 178.215889 
L 78.067888 180.133634 
L 79.442707 182.19012 
L 81.210333 185.319421 
L 83.174361 189.235433 
L 86.906014 196.843432 
L 89.066445 200.62189 
L 90.637667 202.952782 
L 92.405292 205.2079 
L 93.583709 206.406294 
L 94.565723 207.139417 
L 95.547737 207.628561 
L 96.529751 207.868688 
L 97.315362 207.851121 
L 98.100973 207.629136 
L 99.082987 207.08291 
L 100.065002 206.252883 
L 101.047016 205.123256 
L 102.02903 203.645799 
L 103.207446 201.384304 
L 104.582266 198.14272 
L 105.957086 194.297907 
L 107.921114 187.999254 
L 112.634781 171.866405 
L 116.170031 160.303622 
L 118.134059 154.626674 
L 120.098087 149.655019 
L 121.66931 146.254272 
L 123.240532 143.340431 
L 124.418949 141.527408 
L 125.400963 140.366287 
L 126.186574 139.717691 
L 126.972185 139.321905 
L 127.757797 139.194536 
L 128.347005 139.285982 
L 129.132616 139.675403 
L 129.918227 140.359413 
L 130.900241 141.589769 
L 132.078658 143.522149 
L 133.257075 145.89198 
L 134.631895 149.159749 
L 136.595923 154.418224 
L 142.095201 169.562958 
L 144.059229 174.141059 
L 146.612466 179.441671 
L 148.380091 182.691948 
L 149.951313 185.122267 
L 151.522536 187.149021 
L 152.897355 188.549998 
L 154.075772 189.462741 
L 155.057786 190.006089 
L 155.843397 190.243472 
L 156.629008 190.235816 
L 157.41462 189.933767 
L 158.200231 189.304057 
L 158.985842 188.326979 
L 159.771453 186.984276 
L 160.753467 184.770856 
L 161.735481 181.993103 
L 163.110301 177.351923 
L 164.681523 171.251722 
L 166.645551 162.695788 
L 169.591593 148.717818 
L 172.14483 136.865793 
L 174.305261 127.984252 
L 178.822525 110.874611 
L 180.982956 103.165043 
L 182.357775 99.087695 
L 183.339789 96.78915 
L 184.321803 95.08341 
L 185.107415 94.136798 
L 185.893026 93.509717 
L 186.678637 93.162327 
L 187.464248 93.063916 
L 188.24986 93.206723 
L 189.035471 93.582958 
L 189.821082 94.186644 
L 190.803096 95.260797 
L 191.78511 96.729684 
L 192.767124 98.680651 
L 193.749138 101.153324 
L 195.123958 105.282608 
L 197.677194 113.813744 
L 199.444819 120.364675 
L 200.819639 126.342088 
L 201.998056 132.464784 
L 203.765681 143.050884 
L 207.300931 164.462705 
L 209.068556 173.717041 
L 211.228987 183.780333 
L 212.80021 190.098201 
L 214.567835 196.218975 
L 215.746252 199.62354 
L 216.728266 201.747306 
L 217.513877 202.927002 
L 218.299488 203.741649 
L 219.477905 204.59859 
L 221.834739 206.157279 
L 223.405961 207.599183 
L 224.191572 208.214101 
L 224.780781 208.422468 
L 225.173586 208.381057 
L 225.566392 208.169997 
L 226.1556 207.511544 
L 226.744809 206.441254 
L 227.53042 204.392577 
L 228.316031 201.623203 
L 229.101642 198.087072 
L 230.083656 192.625079 
L 231.654879 182.379527 
L 234.011712 165.722987 
L 236.368546 147.279357 
L 238.528977 128.72699 
L 240.689408 110.351477 
L 242.653436 95.612147 
L 244.617464 82.49164 
L 247.563506 64.44539 
L 248.741922 58.639074 
L 249.723936 54.858164 
L 251.098756 50.554126 
L 255.616021 37.067769 
L 256.794437 33.649027 
L 257.383646 32.455409 
L 257.972854 31.744883 
L 258.36566 31.555533 
L 258.758465 31.578377 
L 259.151271 31.792827 
L 259.740479 32.405641 
L 260.329688 33.318422 
L 261.115299 34.959476 
L 262.097313 37.672231 
L 263.27573 41.754917 
L 265.043355 48.746894 
L 266.418175 55.050372 
L 267.989397 63.596246 
L 271.72105 84.235586 
L 272.899467 89.468684 
L 278.00594 110.284874 
L 279.773565 117.669435 
L 280.755579 120.887293 
L 281.54119 122.776903 
L 282.523204 124.476372 
L 284.683635 127.845063 
L 285.469246 129.567009 
L 286.45126 132.357618 
L 287.629677 136.520359 
L 289.2009 142.061064 
L 289.790108 143.547625 
L 290.379316 144.477013 
L 290.772122 144.747445 
L 291.164928 144.719823 
L 291.557733 144.382374 
L 291.950539 143.722019 
L 292.539747 142.119922 
L 293.128956 139.778549 
L 293.914567 135.627492 
L 295.485789 125.49851 
L 296.860609 117.228252 
L 298.235429 110.324413 
L 301.181471 96.430582 
L 302.163485 90.119916 
L 305.109527 69.736566 
L 306.287943 63.872167 
L 307.269957 60.02392 
L 309.430388 52.392464 
L 310.019597 48.929378 
L 311.001611 41.452674 
L 312.965639 26.118219 
L 314.340458 17.326312 
L 315.126069 13.358505 
L 315.715278 11.267234 
L 316.108083 10.424382 
L 316.500889 10.063607 
L 316.697292 10.062685 
L 317.090097 10.393344 
L 317.679306 11.523004 
L 319.054125 14.70901 
L 319.643334 15.522455 
L 320.232542 15.906786 
L 320.821751 15.984729 
L 321.607362 15.802081 
L 322.589376 15.337022 
L 323.178584 14.851487 
L 323.767793 14.079288 
L 324.749807 12.618187 
L 325.142612 12.340926 
L 325.535418 12.416123 
L 325.928224 12.929231 
L 326.321029 13.911861 
L 326.910238 16.231146 
L 327.695849 20.547267 
L 329.070668 29.786187 
L 332.213113 50.97297 
L 333.587933 58.21119 
L 334.962752 65.727043 
L 336.92678 78.07521 
L 338.105197 86.463811 
L 340.265628 102.760693 
L 341.444045 109.172971 
L 343.800879 120.396761 
L 344.979295 124.599702 
L 345.961309 128.297944 
L 346.746921 132.252392 
L 348.318143 140.654792 
L 349.103754 143.472657 
L 350.282171 146.547682 
L 351.264185 148.786719 
L 351.656991 149.326094 
L 352.049796 149.53019 
L 352.442602 149.333268 
L 352.835407 148.720262 
L 353.424616 147.209256 
L 354.40663 144.555593 
L 354.799435 143.921527 
L 355.192241 143.661259 
L 355.585047 143.712314 
L 356.370658 143.936443 
L 356.763463 143.746059 
L 357.352672 143.052564 
L 358.138283 141.661797 
L 358.923894 140.359104 
L 359.3167 140.130525 
L 359.905908 140.231993 
L 360.298714 140.267915 
L 360.691519 140.014265 
L 361.084325 139.368618 
L 361.477131 138.320505 
L 362.066339 136.016117 
L 363.441159 129.844815 
L 364.030367 128.303959 
L 365.208784 125.778093 
L 365.797992 123.423478 
L 366.583604 118.809052 
L 367.565618 113.130911 
L 368.154826 110.897375 
L 369.333243 107.096165 
L 369.922451 103.744012 
L 370.904465 96.051923 
L 371.886479 89.005591 
L 372.868493 84.064664 
L 373.457702 80.792407 
L 374.04691 76.494267 
L 376.207341 58.709011 
L 376.796549 56.102617 
L 379.742591 45.893964 
L 380.135397 45.498374 
L 380.528202 45.536385 
L 380.921008 45.911002 
L 382.295828 47.850351 
L 382.688633 47.833015 
L 383.081439 47.428986 
L 383.670647 46.679998 
L 384.063453 46.458467 
L 384.652661 46.525333 
L 385.24187 46.78312 
L 385.634675 47.184912 
L 387.009495 49.216004 
L 387.795106 49.509931 
L 388.187912 49.952627 
L 388.77712 51.016284 
L 389.366329 52.475018 
L 389.955537 54.719548 
L 391.133954 59.963107 
L 392.705176 65.403682 
L 393.490787 69.079836 
L 394.276399 74.247063 
L 396.044024 86.894228 
L 397.418843 96.41644 
L 398.793663 108.356456 
L 399.579274 114.774182 
L 400.561288 120.350119 
L 401.739705 126.981219 
L 402.525316 133.408641 
L 404.096539 146.570622 
L 406.453372 162.323314 
L 407.631789 171.347754 
L 408.220998 174.773453 
L 410.381428 185.000047 
L 412.149054 197.184591 
L 412.934665 200.930002 
L 416.07711 212.395622 
L 416.469915 212.768024 
L 416.862721 212.566323 
L 417.451929 211.8398 
L 418.630346 210.084415 
L 419.023152 209.963252 
L 419.808763 210.028387 
L 420.201568 209.705391 
L 420.594374 209.010754 
L 421.183582 207.343828 
L 421.969194 204.119756 
L 422.361999 202.443697 
L 422.361999 202.443697 
" style="fill:none;stroke:#009afa;"/>
   </g>
   <g id="matplotlib.axis_1">
    <g id="xtick_1">
     <g id="line2d_2">
      <defs>
       <path d="M 0 0 
L 0 -2.5 
" id="mfd591dc9d9" style="stroke:#000000;stroke-width:0.5;"/>
      </defs>
      <g>
       <use style="stroke:#000000;stroke-width:0.5;" x="29.556396" xlink:href="#mfd591dc9d9" y="258.225354"/>
      </g>
     </g>
     <g id="text_1">
      <!-- $0.0$ -->
      <g transform="translate(23.156396 267.804104)scale(0.08 -0.08)">
       <defs>
        <path d="M 2034 4250 
Q 1547 4250 1301 3770 
Q 1056 3291 1056 2328 
Q 1056 1369 1301 889 
Q 1547 409 2034 409 
Q 2525 409 2770 889 
Q 3016 1369 3016 2328 
Q 3016 3291 2770 3770 
Q 2525 4250 2034 4250 
z
M 2034 4750 
Q 2819 4750 3233 4129 
Q 3647 3509 3647 2328 
Q 3647 1150 3233 529 
Q 2819 -91 2034 -91 
Q 1250 -91 836 529 
Q 422 1150 422 2328 
Q 422 3509 836 4129 
Q 1250 4750 2034 4750 
z
" id="DejaVuSans-30" transform="scale(0.015625)"/>
        <path d="M 684 794 
L 1344 794 
L 1344 0 
L 684 0 
L 684 794 
z
" id="DejaVuSans-2e" transform="scale(0.015625)"/>
       </defs>
       <use transform="translate(0 0.78125)" xlink:href="#DejaVuSans-30"/>
       <use transform="translate(63.623047 0.78125)" xlink:href="#DejaVuSans-2e"/>
       <use transform="translate(95.410156 0.78125)" xlink:href="#DejaVuSans-30"/>
      </g>
     </g>
    </g>
    <g id="xtick_2">
     <g id="line2d_3">
      <g>
       <use style="stroke:#000000;stroke-width:0.5;" x="127.757797" xlink:href="#mfd591dc9d9" y="258.225354"/>
      </g>
     </g>
     <g id="text_2">
      <!-- $0.5$ -->
      <g transform="translate(121.357797 267.804104)scale(0.08 -0.08)">
       <defs>
        <path d="M 691 4666 
L 3169 4666 
L 3169 4134 
L 1269 4134 
L 1269 2991 
Q 1406 3038 1543 3061 
Q 1681 3084 1819 3084 
Q 2600 3084 3056 2656 
Q 3513 2228 3513 1497 
Q 3513 744 3044 326 
Q 2575 -91 1722 -91 
Q 1428 -91 1123 -41 
Q 819 9 494 109 
L 494 744 
Q 775 591 1075 516 
Q 1375 441 1709 441 
Q 2250 441 2565 725 
Q 2881 1009 2881 1497 
Q 2881 1984 2565 2268 
Q 2250 2553 1709 2553 
Q 1456 2553 1204 2497 
Q 953 2441 691 2322 
L 691 4666 
z
" id="DejaVuSans-35" transform="scale(0.015625)"/>
       </defs>
       <use transform="translate(0 0.78125)" xlink:href="#DejaVuSans-30"/>
       <use transform="translate(63.623047 0.78125)" xlink:href="#DejaVuSans-2e"/>
       <use transform="translate(95.410156 0.78125)" xlink:href="#DejaVuSans-35"/>
      </g>
     </g>
    </g>
    <g id="xtick_3">
     <g id="line2d_4">
      <g>
       <use style="stroke:#000000;stroke-width:0.5;" x="225.959197" xlink:href="#mfd591dc9d9" y="258.225354"/>
      </g>
     </g>
     <g id="text_3">
      <!-- $1.0$ -->
      <g transform="translate(219.559197 267.804104)scale(0.08 -0.08)">
       <defs>
        <path d="M 794 531 
L 1825 531 
L 1825 4091 
L 703 3866 
L 703 4441 
L 1819 4666 
L 2450 4666 
L 2450 531 
L 3481 531 
L 3481 0 
L 794 0 
L 794 531 
z
" id="DejaVuSans-31" transform="scale(0.015625)"/>
       </defs>
       <use transform="translate(0 0.78125)" xlink:href="#DejaVuSans-31"/>
       <use transform="translate(63.623047 0.78125)" xlink:href="#DejaVuSans-2e"/>
       <use transform="translate(95.410156 0.78125)" xlink:href="#DejaVuSans-30"/>
      </g>
     </g>
    </g>
    <g id="xtick_4">
     <g id="line2d_5">
      <g>
       <use style="stroke:#000000;stroke-width:0.5;" x="324.160598" xlink:href="#mfd591dc9d9" y="258.225354"/>
      </g>
     </g>
     <g id="text_4">
      <!-- $1.5$ -->
      <g transform="translate(317.760598 267.804104)scale(0.08 -0.08)">
       <use transform="translate(0 0.09375)" xlink:href="#DejaVuSans-31"/>
       <use transform="translate(63.623047 0.09375)" xlink:href="#DejaVuSans-2e"/>
       <use transform="translate(95.410156 0.09375)" xlink:href="#DejaVuSans-35"/>
      </g>
     </g>
    </g>
    <g id="xtick_5">
     <g id="line2d_6">
      <g>
       <use style="stroke:#000000;stroke-width:0.5;" x="422.361999" xlink:href="#mfd591dc9d9" y="258.225354"/>
      </g>
     </g>
     <g id="text_5">
      <!-- $2.0$ -->
      <g transform="translate(415.961999 267.804104)scale(0.08 -0.08)">
       <defs>
        <path d="M 1228 531 
L 3431 531 
L 3431 0 
L 469 0 
L 469 531 
Q 828 903 1448 1529 
Q 2069 2156 2228 2338 
Q 2531 2678 2651 2914 
Q 2772 3150 2772 3378 
Q 2772 3750 2511 3984 
Q 2250 4219 1831 4219 
Q 1534 4219 1204 4116 
Q 875 4013 500 3803 
L 500 4441 
Q 881 4594 1212 4672 
Q 1544 4750 1819 4750 
Q 2544 4750 2975 4387 
Q 3406 4025 3406 3419 
Q 3406 3131 3298 2873 
Q 3191 2616 2906 2266 
Q 2828 2175 2409 1742 
Q 1991 1309 1228 531 
z
" id="DejaVuSans-32" transform="scale(0.015625)"/>
       </defs>
       <use transform="translate(0 0.78125)" xlink:href="#DejaVuSans-32"/>
       <use transform="translate(63.623047 0.78125)" xlink:href="#DejaVuSans-2e"/>
       <use transform="translate(95.410156 0.78125)" xlink:href="#DejaVuSans-30"/>
      </g>
     </g>
    </g>
    <g id="text_6">
     <!-- Time (s) -->
     <g transform="translate(203.597401 281.826136)scale(0.11 -0.11)">
      <defs>
       <path d="M -19 4666 
L 3928 4666 
L 3928 4134 
L 2272 4134 
L 2272 0 
L 1638 0 
L 1638 4134 
L -19 4134 
L -19 4666 
z
" id="DejaVuSans-54" transform="scale(0.015625)"/>
       <path d="M 603 3500 
L 1178 3500 
L 1178 0 
L 603 0 
L 603 3500 
z
M 603 4863 
L 1178 4863 
L 1178 4134 
L 603 4134 
L 603 4863 
z
" id="DejaVuSans-69" transform="scale(0.015625)"/>
       <path d="M 3328 2828 
Q 3544 3216 3844 3400 
Q 4144 3584 4550 3584 
Q 5097 3584 5394 3201 
Q 5691 2819 5691 2113 
L 5691 0 
L 5113 0 
L 5113 2094 
Q 5113 2597 4934 2840 
Q 4756 3084 4391 3084 
Q 3944 3084 3684 2787 
Q 3425 2491 3425 1978 
L 3425 0 
L 2847 0 
L 2847 2094 
Q 2847 2600 2669 2842 
Q 2491 3084 2119 3084 
Q 1678 3084 1418 2786 
Q 1159 2488 1159 1978 
L 1159 0 
L 581 0 
L 581 3500 
L 1159 3500 
L 1159 2956 
Q 1356 3278 1631 3431 
Q 1906 3584 2284 3584 
Q 2666 3584 2933 3390 
Q 3200 3197 3328 2828 
z
" id="DejaVuSans-6d" transform="scale(0.015625)"/>
       <path d="M 3597 1894 
L 3597 1613 
L 953 1613 
Q 991 1019 1311 708 
Q 1631 397 2203 397 
Q 2534 397 2845 478 
Q 3156 559 3463 722 
L 3463 178 
Q 3153 47 2828 -22 
Q 2503 -91 2169 -91 
Q 1331 -91 842 396 
Q 353 884 353 1716 
Q 353 2575 817 3079 
Q 1281 3584 2069 3584 
Q 2775 3584 3186 3129 
Q 3597 2675 3597 1894 
z
M 3022 2063 
Q 3016 2534 2758 2815 
Q 2500 3097 2075 3097 
Q 1594 3097 1305 2825 
Q 1016 2553 972 2059 
L 3022 2063 
z
" id="DejaVuSans-65" transform="scale(0.015625)"/>
       <path id="DejaVuSans-20" transform="scale(0.015625)"/>
       <path d="M 1984 4856 
Q 1566 4138 1362 3434 
Q 1159 2731 1159 2009 
Q 1159 1288 1364 580 
Q 1569 -128 1984 -844 
L 1484 -844 
Q 1016 -109 783 600 
Q 550 1309 550 2009 
Q 550 2706 781 3412 
Q 1013 4119 1484 4856 
L 1984 4856 
z
" id="DejaVuSans-28" transform="scale(0.015625)"/>
       <path d="M 2834 3397 
L 2834 2853 
Q 2591 2978 2328 3040 
Q 2066 3103 1784 3103 
Q 1356 3103 1142 2972 
Q 928 2841 928 2578 
Q 928 2378 1081 2264 
Q 1234 2150 1697 2047 
L 1894 2003 
Q 2506 1872 2764 1633 
Q 3022 1394 3022 966 
Q 3022 478 2636 193 
Q 2250 -91 1575 -91 
Q 1294 -91 989 -36 
Q 684 19 347 128 
L 347 722 
Q 666 556 975 473 
Q 1284 391 1588 391 
Q 1994 391 2212 530 
Q 2431 669 2431 922 
Q 2431 1156 2273 1281 
Q 2116 1406 1581 1522 
L 1381 1569 
Q 847 1681 609 1914 
Q 372 2147 372 2553 
Q 372 3047 722 3315 
Q 1072 3584 1716 3584 
Q 2034 3584 2315 3537 
Q 2597 3491 2834 3397 
z
" id="DejaVuSans-73" transform="scale(0.015625)"/>
       <path d="M 513 4856 
L 1013 4856 
Q 1481 4119 1714 3412 
Q 1947 2706 1947 2009 
Q 1947 1309 1714 600 
Q 1481 -109 1013 -844 
L 513 -844 
Q 928 -128 1133 580 
Q 1338 1288 1338 2009 
Q 1338 2731 1133 3434 
Q 928 4138 513 4856 
z
" id="DejaVuSans-29" transform="scale(0.015625)"/>
      </defs>
      <use xlink:href="#DejaVuSans-54"/>
      <use x="57.958984" xlink:href="#DejaVuSans-69"/>
      <use x="85.742188" xlink:href="#DejaVuSans-6d"/>
      <use x="183.154297" xlink:href="#DejaVuSans-65"/>
      <use x="244.677734" xlink:href="#DejaVuSans-20"/>
      <use x="276.464844" xlink:href="#DejaVuSans-28"/>
      <use x="315.478516" xlink:href="#DejaVuSans-73"/>
      <use x="367.578125" xlink:href="#DejaVuSans-29"/>
     </g>
    </g>
   </g>
   <g id="matplotlib.axis_2">
    <g id="ytick_1">
     <g id="line2d_7">
      <defs>
       <path d="M 0 0 
L 2.5 0 
" id="m051b9ae65e" style="stroke:#000000;stroke-width:0.5;"/>
      </defs>
      <g>
       <use style="stroke:#000000;stroke-width:0.5;" x="29.556396" xlink:href="#m051b9ae65e" y="250.997315"/>
      </g>
     </g>
     <g id="text_7">
      <!-- $0$ -->
      <g transform="translate(20.936396 254.03669)scale(0.08 -0.08)">
       <use transform="translate(0 0.78125)" xlink:href="#DejaVuSans-30"/>
      </g>
     </g>
    </g>
    <g id="ytick_2">
     <g id="line2d_8">
      <g>
       <use style="stroke:#000000;stroke-width:0.5;" x="29.556396" xlink:href="#m051b9ae65e" y="188.735795"/>
      </g>
     </g>
     <g id="text_8">
      <!-- $1$ -->
      <g transform="translate(20.936396 191.77517)scale(0.08 -0.08)">
       <use transform="translate(0 0.09375)" xlink:href="#DejaVuSans-31"/>
      </g>
     </g>
    </g>
    <g id="ytick_3">
     <g id="line2d_9">
      <g>
       <use style="stroke:#000000;stroke-width:0.5;" x="29.556396" xlink:href="#m051b9ae65e" y="126.474275"/>
      </g>
     </g>
     <g id="text_9">
      <!-- $2$ -->
      <g transform="translate(20.936396 129.51365)scale(0.08 -0.08)">
       <use transform="translate(0 0.78125)" xlink:href="#DejaVuSans-32"/>
      </g>
     </g>
    </g>
    <g id="ytick_4">
     <g id="line2d_10">
      <g>
       <use style="stroke:#000000;stroke-width:0.5;" x="29.556396" xlink:href="#m051b9ae65e" y="64.212755"/>
      </g>
     </g>
     <g id="text_10">
      <!-- $3$ -->
      <g transform="translate(20.936396 67.25213)scale(0.08 -0.08)">
       <defs>
        <path d="M 2597 2516 
Q 3050 2419 3304 2112 
Q 3559 1806 3559 1356 
Q 3559 666 3084 287 
Q 2609 -91 1734 -91 
Q 1441 -91 1130 -33 
Q 819 25 488 141 
L 488 750 
Q 750 597 1062 519 
Q 1375 441 1716 441 
Q 2309 441 2620 675 
Q 2931 909 2931 1356 
Q 2931 1769 2642 2001 
Q 2353 2234 1838 2234 
L 1294 2234 
L 1294 2753 
L 1863 2753 
Q 2328 2753 2575 2939 
Q 2822 3125 2822 3475 
Q 2822 3834 2567 4026 
Q 2313 4219 1838 4219 
Q 1578 4219 1281 4162 
Q 984 4106 628 3988 
L 628 4550 
Q 988 4650 1302 4700 
Q 1616 4750 1894 4750 
Q 2613 4750 3031 4423 
Q 3450 4097 3450 3541 
Q 3450 3153 3228 2886 
Q 3006 2619 2597 2516 
z
" id="DejaVuSans-33" transform="scale(0.015625)"/>
       </defs>
       <use transform="translate(0 0.78125)" xlink:href="#DejaVuSans-33"/>
      </g>
     </g>
    </g>
    <g id="text_11">
     <!-- $u_z$ ($m$) -->
     <g transform="translate(14.648739 147.635)rotate(-90)scale(0.11 -0.11)">
      <defs>
       <path d="M 428 1388 
L 838 3500 
L 1416 3500 
L 1006 1409 
Q 975 1256 961 1147 
Q 947 1038 947 966 
Q 947 700 1109 554 
Q 1272 409 1569 409 
Q 2031 409 2368 721 
Q 2706 1034 2809 1563 
L 3194 3500 
L 3769 3500 
L 3091 0 
L 2516 0 
L 2631 550 
Q 2388 244 2052 76 
Q 1716 -91 1338 -91 
Q 878 -91 622 161 
Q 366 413 366 863 
Q 366 956 381 1097 
Q 397 1238 428 1388 
z
" id="DejaVuSans-Oblique-75" transform="scale(0.015625)"/>
       <path d="M 744 3500 
L 3475 3500 
L 3372 2975 
L 738 459 
L 2913 459 
L 2822 0 
L -19 0 
L 84 525 
L 2719 3041 
L 653 3041 
L 744 3500 
z
" id="DejaVuSans-Oblique-7a" transform="scale(0.015625)"/>
       <path d="M 5747 2113 
L 5338 0 
L 4763 0 
L 5166 2094 
Q 5191 2228 5203 2325 
Q 5216 2422 5216 2491 
Q 5216 2772 5059 2928 
Q 4903 3084 4622 3084 
Q 4203 3084 3875 2770 
Q 3547 2456 3450 1953 
L 3066 0 
L 2491 0 
L 2900 2094 
Q 2925 2209 2937 2307 
Q 2950 2406 2950 2484 
Q 2950 2769 2794 2926 
Q 2638 3084 2363 3084 
Q 1938 3084 1609 2770 
Q 1281 2456 1184 1953 
L 800 0 
L 225 0 
L 909 3500 
L 1484 3500 
L 1375 2956 
Q 1609 3263 1923 3423 
Q 2238 3584 2597 3584 
Q 2978 3584 3223 3384 
Q 3469 3184 3519 2828 
Q 3781 3197 4126 3390 
Q 4472 3584 4856 3584 
Q 5306 3584 5551 3325 
Q 5797 3066 5797 2591 
Q 5797 2488 5784 2364 
Q 5772 2241 5747 2113 
z
" id="DejaVuSans-Oblique-6d" transform="scale(0.015625)"/>
      </defs>
      <use transform="translate(0 0.125)" xlink:href="#DejaVuSans-Oblique-75"/>
      <use transform="translate(63.378906 -16.28125)scale(0.7)" xlink:href="#DejaVuSans-Oblique-7a"/>
      <use transform="translate(102.856445 0.125)" xlink:href="#DejaVuSans-20"/>
      <use transform="translate(134.643555 0.125)" xlink:href="#DejaVuSans-28"/>
      <use transform="translate(173.657227 0.125)" xlink:href="#DejaVuSans-Oblique-6d"/>
      <use transform="translate(271.069336 0.125)" xlink:href="#DejaVuSans-29"/>
     </g>
    </g>
   </g>
   <g id="patch_3">
    <path d="M 29.556396 258.225354 
L 29.556396 2.834646 
" style="fill:none;stroke:#000000;stroke-linecap:square;stroke-linejoin:miter;"/>
   </g>
   <g id="patch_4">
    <path d="M 29.556396 258.225354 
L 422.361999 258.225354 
" style="fill:none;stroke:#000000;stroke-linecap:square;stroke-linejoin:miter;"/>
   </g>
  </g>
 </g>
 <defs>
  <clipPath id="p34ca68a586">
   <rect height="255.390709" width="392.805604" x="29.556396" y="2.834646"/>
  </clipPath>
 </defs>
</svg>
