<?xml version="1.0" encoding="utf-8" standalone="no"?>
<!DOCTYPE svg PUBLIC "-//W3C//DTD SVG 1.1//EN"
  "http://www.w3.org/Graphics/SVG/1.1/DTD/svg11.dtd">
<svg height="288pt" version="1.1" viewBox="0 0 432 288" width="432pt" xmlns="http://www.w3.org/2000/svg" xmlns:xlink="http://www.w3.org/1999/xlink">
 <metadata>
  <rdf:RDF xmlns:cc="http://creativecommons.org/ns#" xmlns:dc="http://purl.org/dc/elements/1.1/" xmlns:rdf="http://www.w3.org/1999/02/22-rdf-syntax-ns#">
   <cc:Work>
    <dc:type rdf:resource="http://purl.org/dc/dcmitype/StillImage"/>
    <dc:date>2021-09-29T22:43:30.653036</dc:date>
    <dc:format>image/svg+xml</dc:format>
    <dc:creator>
     <cc:Agent>
      <dc:title>Matplotlib v3.4.2, https://matplotlib.org/</dc:title>
     </cc:Agent>
    </dc:creator>
   </cc:Work>
  </rdf:RDF>
 </metadata>
 <defs>
  <style type="text/css">*{stroke-linecap:butt;stroke-linejoin:round;}</style>
 </defs>
 <g id="figure_1">
  <g id="patch_1">
   <path d="M 0 288 
L 432 288 
L 432 0 
L 0 0 
z
" style="fill:#ffffff;"/>
  </g>
  <g id="axes_1">
   <g id="patch_2">
    <path d="M 29.556396 258.225354 
L 422.361999 258.225354 
L 422.361999 2.834646 
L 29.556396 2.834646 
z
" style="fill:#ffffff;"/>
   </g>
   <g id="line2d_1">
    <path clip-path="url(#pf484972715)" d="M 29.556396 250.997315 
L 31.127618 250.90336 
L 32.502438 250.572125 
L 33.680855 250.066925 
L 34.859271 249.301181 
L 36.037688 248.237669 
L 37.412508 246.678812 
L 38.590925 245.062018 
L 39.769341 243.112593 
L 41.144161 240.438326 
L 42.715383 236.93789 
L 44.483009 232.45814 
L 47.232648 224.832376 
L 49.982287 216.45048 
L 53.71394 204.270198 
L 56.46358 195.737239 
L 58.427608 190.293737 
L 60.195233 186.026945 
L 61.766455 182.764126 
L 63.141275 180.46074 
L 64.516094 178.650257 
L 65.694511 177.43708 
L 66.872928 176.536179 
L 68.247748 175.799123 
L 69.622567 175.315262 
L 70.800984 175.163628 
L 71.782998 175.254669 
L 72.961415 175.594871 
L 73.943429 176.074272 
L 75.121846 176.930561 
L 76.496665 178.284613 
L 78.067888 180.200547 
L 79.442707 182.255091 
L 81.210333 185.381437 
L 83.174361 189.293751 
L 86.906014 196.894567 
L 89.066445 200.669457 
L 90.637667 202.998148 
L 92.405292 205.251136 
L 93.583709 206.448399 
L 94.565723 207.18083 
L 95.547737 207.669512 
L 96.529751 207.909412 
L 97.315362 207.891862 
L 98.100973 207.670086 
L 99.082987 207.124376 
L 100.065002 206.295133 
L 101.047016 205.166573 
L 102.02903 203.690511 
L 103.207446 201.431151 
L 104.582266 198.192628 
L 105.957086 194.351445 
L 107.921114 188.05874 
L 112.634781 171.941124 
L 116.170031 160.389259 
L 118.134059 154.717672 
L 120.098087 149.750712 
L 121.66931 146.353176 
L 123.240532 143.442086 
L 124.418949 141.630774 
L 125.400963 140.47075 
L 126.186574 139.822766 
L 126.972185 139.427354 
L 127.757797 139.300105 
L 128.347005 139.391465 
L 129.132616 139.780519 
L 129.918227 140.463883 
L 130.900241 141.693077 
L 132.078658 143.623632 
L 133.257075 145.991226 
L 134.631895 149.255909 
L 136.595923 154.509418 
L 142.095201 169.639852 
L 144.059229 174.21363 
L 146.612466 179.509238 
L 148.380091 182.756445 
L 149.951313 185.18447 
L 151.522536 187.20931 
L 152.897355 188.608964 
L 154.075772 189.520845 
L 155.057786 190.063679 
L 155.843397 190.300839 
L 156.629008 190.29319 
L 157.41462 189.991426 
L 158.200231 189.36231 
L 158.985842 188.386155 
L 159.771453 187.044721 
L 160.753467 184.83339 
L 161.735481 182.058261 
L 163.110301 177.421463 
L 164.681523 171.327022 
L 166.645551 162.779166 
L 169.591593 148.814395 
L 172.14483 136.973561 
L 174.305261 128.100406 
L 178.822525 111.006922 
L 180.982956 103.304633 
L 182.357775 99.231135 
L 183.339789 96.93476 
L 184.321803 95.230632 
L 185.107415 94.284913 
L 185.893026 93.658424 
L 186.678637 93.311363 
L 187.464248 93.213045 
L 188.24986 93.355717 
L 189.035471 93.731596 
L 189.821082 94.334712 
L 190.803096 95.407851 
L 191.78511 96.875351 
L 192.767124 98.824476 
L 193.749138 101.294814 
L 195.123958 105.420199 
L 197.677194 113.943279 
L 199.444819 120.488025 
L 200.819639 126.459794 
L 201.998056 132.576708 
L 203.765681 143.152812 
L 207.300931 164.544415 
L 209.068556 173.790012 
L 211.228987 183.843802 
L 212.80021 190.155705 
L 214.567835 196.2707 
L 215.746252 199.67205 
L 216.728266 201.79381 
L 217.513877 202.972392 
L 218.299488 203.78627 
L 219.477905 204.642402 
L 221.834739 206.199619 
L 223.405961 207.640161 
L 224.191572 208.254499 
L 224.780781 208.46267 
L 225.173586 208.421297 
L 225.566392 208.210437 
L 226.1556 207.552605 
L 226.744809 206.483326 
L 227.53042 204.436583 
L 228.316031 201.669824 
L 229.101642 198.137032 
L 230.083656 192.680197 
L 231.654879 182.444319 
L 234.011712 165.803507 
L 236.368546 147.377293 
L 238.528977 128.842444 
L 240.689408 110.484281 
L 242.653436 95.758869 
L 244.617464 82.650751 
L 247.563506 64.621542 
L 248.741922 58.820708 
L 249.723936 55.043368 
L 251.098756 50.743394 
L 255.616021 37.269772 
L 256.794437 33.854257 
L 257.383646 32.661767 
L 257.972854 31.951912 
L 258.36566 31.76274 
L 258.758465 31.785563 
L 259.151271 31.99981 
L 259.740479 32.612045 
L 260.329688 33.523965 
L 261.115299 35.163469 
L 262.097313 37.873663 
L 263.27573 41.952494 
L 265.043355 48.937869 
L 266.418175 55.235395 
L 267.989397 63.773199 
L 271.72105 84.39305 
L 272.899467 89.621207 
L 278.00594 110.417742 
L 279.773565 117.795329 
L 280.755579 121.010149 
L 281.54119 122.897975 
L 282.523204 124.595839 
L 284.683635 127.96135 
L 285.469246 129.681669 
L 286.45126 132.469643 
L 287.629677 136.628454 
L 289.2009 142.163927 
L 289.790108 143.649084 
L 290.379316 144.577595 
L 290.772122 144.847771 
L 291.164928 144.820175 
L 291.557733 144.483045 
L 291.950539 143.823313 
L 292.539747 142.222729 
L 293.128956 139.883567 
L 293.914567 135.73643 
L 295.485789 125.617011 
L 296.860609 117.354563 
L 298.235429 110.457243 
L 301.181471 96.576531 
L 302.163485 90.271824 
L 305.109527 69.907721 
L 306.287943 64.04886 
L 307.269957 60.204246 
L 309.430388 52.579996 
L 310.019597 49.12018 
L 311.001611 41.650536 
L 312.965639 26.330561 
L 314.340458 17.546955 
L 315.126069 13.582895 
L 315.715278 11.493599 
L 316.108083 10.651543 
L 316.500889 10.291108 
L 316.697292 10.290187 
L 317.090097 10.620534 
L 317.679306 11.749127 
L 319.054125 14.932125 
L 319.643334 15.744802 
L 320.232542 16.12877 
L 320.821751 16.206639 
L 321.607362 16.024163 
L 322.589376 15.559543 
L 323.178584 15.074467 
L 323.767793 14.302997 
L 324.749807 12.843276 
L 325.142612 12.566277 
L 325.535418 12.641403 
L 325.928224 13.154026 
L 326.321029 14.135729 
L 326.910238 16.452823 
L 327.695849 20.764869 
L 329.070668 29.995065 
L 332.213113 51.161843 
L 333.587933 58.393228 
L 334.962752 65.901984 
L 336.92678 78.238491 
L 338.105197 86.619171 
L 340.265628 102.900665 
L 341.444045 109.306888 
L 343.800879 120.52008 
L 344.979295 124.719052 
L 345.961309 128.413802 
L 346.746921 132.364516 
L 348.318143 140.758982 
L 349.103754 143.574186 
L 350.282171 146.646308 
L 351.264185 148.883231 
L 351.656991 149.422097 
L 352.049796 149.626 
L 352.442602 149.429264 
L 352.835407 148.816837 
L 353.424616 147.307257 
L 354.40663 144.6561 
L 354.799435 144.022633 
L 355.192241 143.762611 
L 355.585047 143.813617 
L 356.370658 144.037535 
L 356.763463 143.847331 
L 357.352672 143.15449 
L 358.138283 141.765036 
L 358.923894 140.463574 
L 359.3167 140.235211 
L 359.905908 140.336583 
L 360.298714 140.372471 
L 360.691519 140.119061 
L 361.084325 139.474023 
L 361.477131 138.426899 
L 362.066339 136.124688 
L 363.441159 129.959213 
L 364.030367 128.419812 
L 365.208784 125.896331 
L 365.797992 123.543939 
L 366.583604 118.93387 
L 367.565618 113.261091 
L 368.154826 111.029664 
L 369.333243 107.232043 
L 369.922451 103.883056 
L 370.904465 96.19823 
L 371.886479 89.158552 
L 372.868493 84.222289 
L 373.457702 80.953122 
L 374.04691 76.659041 
L 376.207341 58.890579 
L 376.796549 56.286646 
L 379.742591 46.087632 
L 380.135397 45.692416 
L 380.528202 45.730391 
L 380.921008 46.104655 
L 382.295828 48.042172 
L 382.688633 48.024852 
L 383.081439 47.621205 
L 383.670647 46.872924 
L 384.063453 46.651602 
L 384.652661 46.718405 
L 385.24187 46.975949 
L 385.634675 47.377362 
L 387.009495 49.406535 
L 387.795106 49.700185 
L 388.187912 50.142463 
L 388.77712 51.205116 
L 389.366329 52.662472 
L 389.955537 54.904882 
L 391.133954 60.143491 
L 392.705176 65.578928 
L 393.490787 69.251611 
L 394.276399 74.413959 
L 396.044024 87.049182 
L 397.418843 96.562403 
L 398.793663 108.491145 
L 399.579274 114.902811 
L 400.561288 120.473482 
L 401.739705 127.098321 
L 402.525316 133.519674 
L 404.096539 146.669227 
L 406.453372 162.407044 
L 407.631789 171.422963 
L 408.220998 174.845428 
L 410.381428 185.062365 
L 412.149054 197.235403 
L 412.934665 200.977278 
L 416.07711 212.432072 
L 416.469915 212.804122 
L 416.862721 212.602612 
L 417.451929 211.876775 
L 418.630346 210.123047 
L 419.023152 210.001998 
L 419.808763 210.067072 
L 420.201568 209.744381 
L 420.594374 209.0504 
L 421.183582 207.385047 
L 421.969194 204.16402 
L 422.361999 202.489543 
L 422.361999 202.489543 
" style="fill:none;stroke:#009afa;"/>
   </g>
   <g id="matplotlib.axis_1">
    <g id="xtick_1">
     <g id="line2d_2">
      <defs>
       <path d="M 0 0 
L 0 -2.5 
" id="mb8f758e1d3" style="stroke:#000000;stroke-width:0.5;"/>
      </defs>
      <g>
       <use style="stroke:#000000;stroke-width:0.5;" x="29.556396" xlink:href="#mb8f758e1d3" y="258.225354"/>
      </g>
     </g>
     <g id="text_1">
      <!-- $0.0$ -->
      <g transform="translate(23.156396 267.804104)scale(0.08 -0.08)">
       <defs>
        <path d="M 2034 4250 
Q 1547 4250 1301 3770 
Q 1056 3291 1056 2328 
Q 1056 1369 1301 889 
Q 1547 409 2034 409 
Q 2525 409 2770 889 
Q 3016 1369 3016 2328 
Q 3016 3291 2770 3770 
Q 2525 4250 2034 4250 
z
M 2034 4750 
Q 2819 4750 3233 4129 
Q 3647 3509 3647 2328 
Q 3647 1150 3233 529 
Q 2819 -91 2034 -91 
Q 1250 -91 836 529 
Q 422 1150 422 2328 
Q 422 3509 836 4129 
Q 1250 4750 2034 4750 
z
" id="DejaVuSans-30" transform="scale(0.015625)"/>
        <path d="M 684 794 
L 1344 794 
L 1344 0 
L 684 0 
L 684 794 
z
" id="DejaVuSans-2e" transform="scale(0.015625)"/>
       </defs>
       <use transform="translate(0 0.78125)" xlink:href="#DejaVuSans-30"/>
       <use transform="translate(63.623047 0.78125)" xlink:href="#DejaVuSans-2e"/>
       <use transform="translate(95.410156 0.78125)" xlink:href="#DejaVuSans-30"/>
      </g>
     </g>
    </g>
    <g id="xtick_2">
     <g id="line2d_3">
      <g>
       <use style="stroke:#000000;stroke-width:0.5;" x="127.757797" xlink:href="#mb8f758e1d3" y="258.225354"/>
      </g>
     </g>
     <g id="text_2">
      <!-- $0.5$ -->
      <g transform="translate(121.357797 267.804104)scale(0.08 -0.08)">
       <defs>
        <path d="M 691 4666 
L 3169 4666 
L 3169 4134 
L 1269 4134 
L 1269 2991 
Q 1406 3038 1543 3061 
Q 1681 3084 1819 3084 
Q 2600 3084 3056 2656 
Q 3513 2228 3513 1497 
Q 3513 744 3044 326 
Q 2575 -91 1722 -91 
Q 1428 -91 1123 -41 
Q 819 9 494 109 
L 494 744 
Q 775 591 1075 516 
Q 1375 441 1709 441 
Q 2250 441 2565 725 
Q 2881 1009 2881 1497 
Q 2881 1984 2565 2268 
Q 2250 2553 1709 2553 
Q 1456 2553 1204 2497 
Q 953 2441 691 2322 
L 691 4666 
z
" id="DejaVuSans-35" transform="scale(0.015625)"/>
       </defs>
       <use transform="translate(0 0.78125)" xlink:href="#DejaVuSans-30"/>
       <use transform="translate(63.623047 0.78125)" xlink:href="#DejaVuSans-2e"/>
       <use transform="translate(95.410156 0.78125)" xlink:href="#DejaVuSans-35"/>
      </g>
     </g>
    </g>
    <g id="xtick_3">
     <g id="line2d_4">
      <g>
       <use style="stroke:#000000;stroke-width:0.5;" x="225.959197" xlink:href="#mb8f758e1d3" y="258.225354"/>
      </g>
     </g>
     <g id="text_3">
      <!-- $1.0$ -->
      <g transform="translate(219.559197 267.804104)scale(0.08 -0.08)">
       <defs>
        <path d="M 794 531 
L 1825 531 
L 1825 4091 
L 703 3866 
L 703 4441 
L 1819 4666 
L 2450 4666 
L 2450 531 
L 3481 531 
L 3481 0 
L 794 0 
L 794 531 
z
" id="DejaVuSans-31" transform="scale(0.015625)"/>
       </defs>
       <use transform="translate(0 0.78125)" xlink:href="#DejaVuSans-31"/>
       <use transform="translate(63.623047 0.78125)" xlink:href="#DejaVuSans-2e"/>
       <use transform="translate(95.410156 0.78125)" xlink:href="#DejaVuSans-30"/>
      </g>
     </g>
    </g>
    <g id="xtick_4">
     <g id="line2d_5">
      <g>
       <use style="stroke:#000000;stroke-width:0.5;" x="324.160598" xlink:href="#mb8f758e1d3" y="258.225354"/>
      </g>
     </g>
     <g id="text_4">
      <!-- $1.5$ -->
      <g transform="translate(317.760598 267.804104)scale(0.08 -0.08)">
       <use transform="translate(0 0.09375)" xlink:href="#DejaVuSans-31"/>
       <use transform="translate(63.623047 0.09375)" xlink:href="#DejaVuSans-2e"/>
       <use transform="translate(95.410156 0.09375)" xlink:href="#DejaVuSans-35"/>
      </g>
     </g>
    </g>
    <g id="xtick_5">
     <g id="line2d_6">
      <g>
       <use style="stroke:#000000;stroke-width:0.5;" x="422.361999" xlink:href="#mb8f758e1d3" y="258.225354"/>
      </g>
     </g>
     <g id="text_5">
      <!-- $2.0$ -->
      <g transform="translate(415.961999 267.804104)scale(0.08 -0.08)">
       <defs>
        <path d="M 1228 531 
L 3431 531 
L 3431 0 
L 469 0 
L 469 531 
Q 828 903 1448 1529 
Q 2069 2156 2228 2338 
Q 2531 2678 2651 2914 
Q 2772 3150 2772 3378 
Q 2772 3750 2511 3984 
Q 2250 4219 1831 4219 
Q 1534 4219 1204 4116 
Q 875 4013 500 3803 
L 500 4441 
Q 881 4594 1212 4672 
Q 1544 4750 1819 4750 
Q 2544 4750 2975 4387 
Q 3406 4025 3406 3419 
Q 3406 3131 3298 2873 
Q 3191 2616 2906 2266 
Q 2828 2175 2409 1742 
Q 1991 1309 1228 531 
z
" id="DejaVuSans-32" transform="scale(0.015625)"/>
       </defs>
       <use transform="translate(0 0.78125)" xlink:href="#DejaVuSans-32"/>
       <use transform="translate(63.623047 0.78125)" xlink:href="#DejaVuSans-2e"/>
       <use transform="translate(95.410156 0.78125)" xlink:href="#DejaVuSans-30"/>
      </g>
     </g>
    </g>
    <g id="text_6">
     <!-- Time (s) -->
     <g transform="translate(203.597401 281.826136)scale(0.11 -0.11)">
      <defs>
       <path d="M -19 4666 
L 3928 4666 
L 3928 4134 
L 2272 4134 
L 2272 0 
L 1638 0 
L 1638 4134 
L -19 4134 
L -19 4666 
z
" id="DejaVuSans-54" transform="scale(0.015625)"/>
       <path d="M 603 3500 
L 1178 3500 
L 1178 0 
L 603 0 
L 603 3500 
z
M 603 4863 
L 1178 4863 
L 1178 4134 
L 603 4134 
L 603 4863 
z
" id="DejaVuSans-69" transform="scale(0.015625)"/>
       <path d="M 3328 2828 
Q 3544 3216 3844 3400 
Q 4144 3584 4550 3584 
Q 5097 3584 5394 3201 
Q 5691 2819 5691 2113 
L 5691 0 
L 5113 0 
L 5113 2094 
Q 5113 2597 4934 2840 
Q 4756 3084 4391 3084 
Q 3944 3084 3684 2787 
Q 3425 2491 3425 1978 
L 3425 0 
L 2847 0 
L 2847 2094 
Q 2847 2600 2669 2842 
Q 2491 3084 2119 3084 
Q 1678 3084 1418 2786 
Q 1159 2488 1159 1978 
L 1159 0 
L 581 0 
L 581 3500 
L 1159 3500 
L 1159 2956 
Q 1356 3278 1631 3431 
Q 1906 3584 2284 3584 
Q 2666 3584 2933 3390 
Q 3200 3197 3328 2828 
z
" id="DejaVuSans-6d" transform="scale(0.015625)"/>
       <path d="M 3597 1894 
L 3597 1613 
L 953 1613 
Q 991 1019 1311 708 
Q 1631 397 2203 397 
Q 2534 397 2845 478 
Q 3156 559 3463 722 
L 3463 178 
Q 3153 47 2828 -22 
Q 2503 -91 2169 -91 
Q 1331 -91 842 396 
Q 353 884 353 1716 
Q 353 2575 817 3079 
Q 1281 3584 2069 3584 
Q 2775 3584 3186 3129 
Q 3597 2675 3597 1894 
z
M 3022 2063 
Q 3016 2534 2758 2815 
Q 2500 3097 2075 3097 
Q 1594 3097 1305 2825 
Q 1016 2553 972 2059 
L 3022 2063 
z
" id="DejaVuSans-65" transform="scale(0.015625)"/>
       <path id="DejaVuSans-20" transform="scale(0.015625)"/>
       <path d="M 1984 4856 
Q 1566 4138 1362 3434 
Q 1159 2731 1159 2009 
Q 1159 1288 1364 580 
Q 1569 -128 1984 -844 
L 1484 -844 
Q 1016 -109 783 600 
Q 550 1309 550 2009 
Q 550 2706 781 3412 
Q 1013 4119 1484 4856 
L 1984 4856 
z
" id="DejaVuSans-28" transform="scale(0.015625)"/>
       <path d="M 2834 3397 
L 2834 2853 
Q 2591 2978 2328 3040 
Q 2066 3103 1784 3103 
Q 1356 3103 1142 2972 
Q 928 2841 928 2578 
Q 928 2378 1081 2264 
Q 1234 2150 1697 2047 
L 1894 2003 
Q 2506 1872 2764 1633 
Q 3022 1394 3022 966 
Q 3022 478 2636 193 
Q 2250 -91 1575 -91 
Q 1294 -91 989 -36 
Q 684 19 347 128 
L 347 722 
Q 666 556 975 473 
Q 1284 391 1588 391 
Q 1994 391 2212 530 
Q 2431 669 2431 922 
Q 2431 1156 2273 1281 
Q 2116 1406 1581 1522 
L 1381 1569 
Q 847 1681 609 1914 
Q 372 2147 372 2553 
Q 372 3047 722 3315 
Q 1072 3584 1716 3584 
Q 2034 3584 2315 3537 
Q 2597 3491 2834 3397 
z
" id="DejaVuSans-73" transform="scale(0.015625)"/>
       <path d="M 513 4856 
L 1013 4856 
Q 1481 4119 1714 3412 
Q 1947 2706 1947 2009 
Q 1947 1309 1714 600 
Q 1481 -109 1013 -844 
L 513 -844 
Q 928 -128 1133 580 
Q 1338 1288 1338 2009 
Q 1338 2731 1133 3434 
Q 928 4138 513 4856 
z
" id="DejaVuSans-29" transform="scale(0.015625)"/>
      </defs>
      <use xlink:href="#DejaVuSans-54"/>
      <use x="57.958984" xlink:href="#DejaVuSans-69"/>
      <use x="85.742188" xlink:href="#DejaVuSans-6d"/>
      <use x="183.154297" xlink:href="#DejaVuSans-65"/>
      <use x="244.677734" xlink:href="#DejaVuSans-20"/>
      <use x="276.464844" xlink:href="#DejaVuSans-28"/>
      <use x="315.478516" xlink:href="#DejaVuSans-73"/>
      <use x="367.578125" xlink:href="#DejaVuSans-29"/>
     </g>
    </g>
   </g>
   <g id="matplotlib.axis_2">
    <g id="ytick_1">
     <g id="line2d_7">
      <defs>
       <path d="M 0 0 
L 2.5 0 
" id="mb61ffecb7e" style="stroke:#000000;stroke-width:0.5;"/>
      </defs>
      <g>
       <use style="stroke:#000000;stroke-width:0.5;" x="29.556396" xlink:href="#mb61ffecb7e" y="250.997315"/>
      </g>
     </g>
     <g id="text_7">
      <!-- $0$ -->
      <g transform="translate(20.936396 254.03669)scale(0.08 -0.08)">
       <use transform="translate(0 0.78125)" xlink:href="#DejaVuSans-30"/>
      </g>
     </g>
    </g>
    <g id="ytick_2">
     <g id="line2d_8">
      <g>
       <use style="stroke:#000000;stroke-width:0.5;" x="29.556396" xlink:href="#mb61ffecb7e" y="188.794586"/>
      </g>
     </g>
     <g id="text_8">
      <!-- $1$ -->
      <g transform="translate(20.936396 191.833961)scale(0.08 -0.08)">
       <use transform="translate(0 0.09375)" xlink:href="#DejaVuSans-31"/>
      </g>
     </g>
    </g>
    <g id="ytick_3">
     <g id="line2d_9">
      <g>
       <use style="stroke:#000000;stroke-width:0.5;" x="29.556396" xlink:href="#mb61ffecb7e" y="126.591856"/>
      </g>
     </g>
     <g id="text_9">
      <!-- $2$ -->
      <g transform="translate(20.936396 129.631231)scale(0.08 -0.08)">
       <use transform="translate(0 0.78125)" xlink:href="#DejaVuSans-32"/>
      </g>
     </g>
    </g>
    <g id="ytick_4">
     <g id="line2d_10">
      <g>
       <use style="stroke:#000000;stroke-width:0.5;" x="29.556396" xlink:href="#mb61ffecb7e" y="64.389126"/>
      </g>
     </g>
     <g id="text_10">
      <!-- $3$ -->
      <g transform="translate(20.936396 67.428501)scale(0.08 -0.08)">
       <defs>
        <path d="M 2597 2516 
Q 3050 2419 3304 2112 
Q 3559 1806 3559 1356 
Q 3559 666 3084 287 
Q 2609 -91 1734 -91 
Q 1441 -91 1130 -33 
Q 819 25 488 141 
L 488 750 
Q 750 597 1062 519 
Q 1375 441 1716 441 
Q 2309 441 2620 675 
Q 2931 909 2931 1356 
Q 2931 1769 2642 2001 
Q 2353 2234 1838 2234 
L 1294 2234 
L 1294 2753 
L 1863 2753 
Q 2328 2753 2575 2939 
Q 2822 3125 2822 3475 
Q 2822 3834 2567 4026 
Q 2313 4219 1838 4219 
Q 1578 4219 1281 4162 
Q 984 4106 628 3988 
L 628 4550 
Q 988 4650 1302 4700 
Q 1616 4750 1894 4750 
Q 2613 4750 3031 4423 
Q 3450 4097 3450 3541 
Q 3450 3153 3228 2886 
Q 3006 2619 2597 2516 
z
" id="DejaVuSans-33" transform="scale(0.015625)"/>
       </defs>
       <use transform="translate(0 0.78125)" xlink:href="#DejaVuSans-33"/>
      </g>
     </g>
    </g>
    <g id="text_11">
     <!-- $u_z$ ($m$) -->
     <g transform="translate(14.648739 147.635)rotate(-90)scale(0.11 -0.11)">
      <defs>
       <path d="M 428 1388 
L 838 3500 
L 1416 3500 
L 1006 1409 
Q 975 1256 961 1147 
Q 947 1038 947 966 
Q 947 700 1109 554 
Q 1272 409 1569 409 
Q 2031 409 2368 721 
Q 2706 1034 2809 1563 
L 3194 3500 
L 3769 3500 
L 3091 0 
L 2516 0 
L 2631 550 
Q 2388 244 2052 76 
Q 1716 -91 1338 -91 
Q 878 -91 622 161 
Q 366 413 366 863 
Q 366 956 381 1097 
Q 397 1238 428 1388 
z
" id="DejaVuSans-Oblique-75" transform="scale(0.015625)"/>
       <path d="M 744 3500 
L 3475 3500 
L 3372 2975 
L 738 459 
L 2913 459 
L 2822 0 
L -19 0 
L 84 525 
L 2719 3041 
L 653 3041 
L 744 3500 
z
" id="DejaVuSans-Oblique-7a" transform="scale(0.015625)"/>
       <path d="M 5747 2113 
L 5338 0 
L 4763 0 
L 5166 2094 
Q 5191 2228 5203 2325 
Q 5216 2422 5216 2491 
Q 5216 2772 5059 2928 
Q 4903 3084 4622 3084 
Q 4203 3084 3875 2770 
Q 3547 2456 3450 1953 
L 3066 0 
L 2491 0 
L 2900 2094 
Q 2925 2209 2937 2307 
Q 2950 2406 2950 2484 
Q 2950 2769 2794 2926 
Q 2638 3084 2363 3084 
Q 1938 3084 1609 2770 
Q 1281 2456 1184 1953 
L 800 0 
L 225 0 
L 909 3500 
L 1484 3500 
L 1375 2956 
Q 1609 3263 1923 3423 
Q 2238 3584 2597 3584 
Q 2978 3584 3223 3384 
Q 3469 3184 3519 2828 
Q 3781 3197 4126 3390 
Q 4472 3584 4856 3584 
Q 5306 3584 5551 3325 
Q 5797 3066 5797 2591 
Q 5797 2488 5784 2364 
Q 5772 2241 5747 2113 
z
" id="DejaVuSans-Oblique-6d" transform="scale(0.015625)"/>
      </defs>
      <use transform="translate(0 0.125)" xlink:href="#DejaVuSans-Oblique-75"/>
      <use transform="translate(63.378906 -16.28125)scale(0.7)" xlink:href="#DejaVuSans-Oblique-7a"/>
      <use transform="translate(102.856445 0.125)" xlink:href="#DejaVuSans-20"/>
      <use transform="translate(134.643555 0.125)" xlink:href="#DejaVuSans-28"/>
      <use transform="translate(173.657227 0.125)" xlink:href="#DejaVuSans-Oblique-6d"/>
      <use transform="translate(271.069336 0.125)" xlink:href="#DejaVuSans-29"/>
     </g>
    </g>
   </g>
   <g id="line2d_11">
    <path clip-path="url(#pf484972715)" d="M 29.556396 250.997315 
L 31.226411 250.887892 
L 32.519918 250.564892 
L 33.766783 250.019844 
L 34.921208 249.252646 
L 36.168716 248.102189 
L 37.57328 246.475156 
L 38.906917 244.573333 
L 40.167208 242.378193 
L 41.727004 239.195689 
L 43.328462 235.441318 
L 45.579579 229.496029 
L 48.052537 222.406026 
L 51.088922 212.91052 
L 56.423795 195.847132 
L 58.425565 190.304308 
L 60.356588 185.658004 
L 61.745168 182.800422 
L 63.05429 180.593291 
L 64.385609 178.800613 
L 65.675062 177.453456 
L 66.939785 176.500539 
L 68.43181 175.715107 
L 69.791647 175.271769 
L 70.804787 175.164084 
L 71.883705 175.271259 
L 73.054734 175.619669 
L 74.065397 176.142445 
L 75.120478 176.935711 
L 76.45428 178.235072 
L 77.788083 179.818088 
L 79.139351 181.770254 
L 80.837084 184.682211 
L 82.810324 188.544747 
L 87.259777 197.548846 
L 89.137069 200.772798 
L 90.878306 203.322558 
L 92.358714 205.203682 
L 93.576559 206.432857 
L 94.590795 207.185467 
L 95.630796 207.701309 
L 96.632368 207.91579 
L 97.562182 207.82565 
L 98.554383 207.433931 
L 99.56275 206.748848 
L 100.593997 205.733537 
L 101.651848 204.293837 
L 102.777238 202.297477 
L 104.15821 199.253501 
L 105.528076 195.59524 
L 107.303441 190.081009 
L 110.533732 179.153241 
L 114.863275 164.564328 
L 117.135109 157.582729 
L 119.166888 152.080569 
L 120.853531 148.146512 
L 122.419168 144.986768 
L 123.78281 142.63116 
L 124.734436 141.312949 
L 125.71487 140.289324 
L 126.730809 139.622153 
L 127.746748 139.405221 
L 128.254717 139.482297 
L 128.762687 139.690863 
L 129.722983 140.419951 
L 130.860994 141.781916 
L 131.889518 143.418661 
L 132.918042 145.421466 
L 134.289407 148.572724 
L 136.255539 153.726906 
L 142.527482 170.876693 
L 144.569209 175.482613 
L 147.102464 180.667276 
L 148.750903 183.554957 
L 150.507976 186.153932 
L 152.022771 187.934366 
L 153.238057 189.068006 
L 154.453343 189.948939 
L 155.263534 190.332486 
L 156.077552 190.493131 
L 156.827154 190.392475 
L 157.641546 189.986908 
L 158.330278 189.375231 
L 159.097092 188.369949 
L 159.828564 187.06876 
L 160.829634 184.749214 
L 161.94028 181.542277 
L 163.286322 176.936522 
L 164.856704 170.750978 
L 167.100108 160.865777 
L 173.750681 130.42773 
L 176.732806 119.046839 
L 180.702449 104.395983 
L 181.925087 100.579122 
L 182.852203 98.189975 
L 183.780283 96.314598 
L 184.720269 94.935339 
L 185.362802 94.263622 
L 186.147939 93.715669 
L 186.959712 93.443799 
L 187.790022 93.454579 
L 188.620332 93.729089 
L 189.578632 94.351884 
L 190.471735 95.222721 
L 191.327009 96.364663 
L 192.300287 98.096589 
L 193.377478 100.59745 
L 194.711122 104.415683 
L 196.864755 111.487507 
L 199.033314 119.251112 
L 200.346113 124.691263 
L 201.564122 130.686094 
L 203.103377 139.52793 
L 207.693756 166.982028 
L 209.582931 176.518985 
L 211.556029 185.331151 
L 213.085345 191.235434 
L 214.800196 196.977485 
L 216.006439 200.217963 
L 216.914299 201.997928 
L 217.823616 203.210816 
L 218.750389 204.024674 
L 220.388086 205.023836 
L 221.839268 206.028134 
L 224.237846 208.147487 
L 224.958135 208.314053 
L 225.592582 208.033689 
L 226.19615 207.343745 
L 226.963483 205.859494 
L 227.57384 204.190756 
L 228.29219 201.639538 
L 229.049715 198.226867 
L 230.06323 192.573684 
L 231.836881 180.988832 
L 234.067291 165.102048 
L 236.5733 145.487122 
L 238.751195 126.584254 
L 240.784506 109.612644 
L 242.771441 94.930116 
L 244.840869 81.438651 
L 247.615641 64.503681 
L 248.634545 59.501361 
L 249.686814 55.368185 
L 251.027369 51.074638 
L 256.869314 33.937045 
L 257.594566 32.68965 
L 257.975422 32.324201 
L 258.356278 32.160712 
L 258.737134 32.188912 
L 259.11799 32.390197 
L 259.879846 33.239269 
L 260.598322 34.532441 
L 261.38538 36.439864 
L 262.377631 39.483505 
L 264.019166 45.473075 
L 265.597583 52.045493 
L 266.916051 58.612366 
L 269.30486 72.00485 
L 271.607347 84.672434 
L 272.877193 90.27167 
L 278.206752 112.010709 
L 279.673428 118.00125 
L 280.610673 120.996392 
L 281.547918 123.207393 
L 282.49279 124.823854 
L 284.969602 128.606102 
L 285.853873 130.703019 
L 286.833549 133.769663 
L 289.450654 142.625741 
L 289.993858 143.759324 
L 290.541991 144.431819 
L 290.907414 144.57643 
L 291.282834 144.451602 
L 291.697671 143.964448 
L 292.154902 142.972801 
L 292.637158 141.402979 
L 293.382603 137.988775 
L 294.331375 132.337604 
L 296.96408 116.025591 
L 298.344661 109.189433 
L 300.870641 97.688143 
L 301.841233 91.689182 
L 305.312339 68.184313 
L 306.383557 63.009722 
L 307.302347 59.566646 
L 308.927781 54.376635 
L 309.477551 51.728004 
L 310.273106 46.459823 
L 313.793855 20.156098 
L 314.83034 14.293786 
L 315.558142 11.430884 
L 316.065185 10.330335 
L 316.414928 10.062685 
L 316.765442 10.180953 
L 317.124173 10.642001 
L 317.838471 12.180305 
L 318.943795 14.626482 
L 319.521752 15.402351 
L 320.134225 15.8004 
L 320.792916 15.896517 
L 321.975067 15.709598 
L 322.476161 15.507671 
L 323.01061 15.072075 
L 323.545058 14.352128 
L 324.740528 12.530463 
L 325.218716 12.332919 
L 325.464117 12.447759 
L 325.709518 12.725995 
L 326.149873 13.667375 
L 326.71253 15.691798 
L 327.412466 19.269437 
L 328.550762 26.552409 
L 332.829982 54.806317 
L 335.186003 67.676079 
L 337.296647 81.131589 
L 338.54625 90.814406 
L 339.947369 101.418996 
L 340.978812 107.423979 
L 343.052099 117.786792 
L 344.08647 122.052842 
L 345.866713 128.51356 
L 346.802137 133.520925 
L 347.948851 139.749426 
L 348.786768 142.994727 
L 350.276618 147.415816 
L 351.07231 149.400222 
L 351.61663 150.175141 
L 351.88879 150.273437 
L 352.16095 150.153313 
L 352.43311 149.818728 
L 352.943282 148.693992 
L 354.202141 145.216019 
L 354.622823 144.640819 
L 355.05155 144.479042 
L 356.165699 144.625091 
L 356.618274 144.252543 
L 357.297136 143.089295 
L 358.334958 141.175635 
L 358.754608 140.775751 
L 359.174257 140.717316 
L 360.311582 141.001371 
L 360.689204 140.591151 
L 361.127055 139.615811 
L 361.60736 137.902029 
L 363.336252 130.517082 
L 363.960706 129.344605 
L 364.644456 128.196212 
L 365.051941 127.006493 
L 365.663169 124.13256 
L 367.543753 113.656627 
L 368.233624 111.720558 
L 368.786397 110.160082 
L 369.347824 107.602873 
L 369.90925 103.808305 
L 371.464958 91.987303 
L 372.268459 88.059907 
L 372.909981 84.883424 
L 373.563308 80.360151 
L 375.960019 60.829203 
L 376.646895 57.96085 
L 377.815893 53.287645 
L 378.868254 48.750468 
L 379.395637 47.447878 
L 379.747225 47.084538 
L 380.098813 47.093079 
L 380.450401 47.413551 
L 381.701457 49.016252 
L 382.015968 49.017768 
L 382.355289 48.762901 
L 383.629747 47.432713 
L 384.14964 47.267043 
L 384.474038 47.330703 
L 384.832378 47.642314 
L 385.391476 48.573213 
L 385.967529 49.394263 
L 386.460299 49.612231 
L 387.02331 49.733343 
L 387.661019 50.139019 
L 388.09216 50.591893 
L 388.523301 51.354098 
L 388.954442 52.654476 
L 390.90225 59.88917 
L 392.450284 64.406896 
L 393.148363 67.878522 
L 394.126695 74.373003 
L 395.68706 84.629149 
L 396.657116 91.161615 
L 397.522224 98.591994 
L 398.879617 110.78084 
L 399.756337 116.529213 
L 401.173675 124.534396 
L 402.090648 131.921536 
L 403.387539 142.902839 
L 404.293899 148.748709 
L 405.06651 153.696147 
L 405.993643 161.197095 
L 407.077155 170.114856 
L 407.74973 174.251302 
L 408.68628 178.194675 
L 409.480466 181.973091 
L 410.088915 185.895386 
L 411.337033 194.396742 
L 412.324559 199.517288 
L 413.99205 207.504781 
L 414.912271 211.877053 
L 415.487537 213.703743 
L 415.871085 214.245248 
L 416.265415 214.314276 
L 416.663003 214.076499 
L 417.960135 212.792545 
L 418.307203 212.87851 
L 419.043454 213.357695 
L 419.418599 213.275765 
L 419.793743 212.755696 
L 420.365807 211.401257 
L 420.944127 209.327204 
L 421.90931 205.276387 
L 422.361999 204.194582 
L 422.361999 204.194582 
" style="fill:none;stroke:#e36f47;"/>
   </g>
   <g id="patch_3">
    <path d="M 29.556396 258.225354 
L 29.556396 2.834646 
" style="fill:none;stroke:#000000;stroke-linecap:square;stroke-linejoin:miter;"/>
   </g>
   <g id="patch_4">
    <path d="M 29.556396 258.225354 
L 422.361999 258.225354 
" style="fill:none;stroke:#000000;stroke-linecap:square;stroke-linejoin:miter;"/>
   </g>
   <g id="legend_1">
    <g id="patch_5">
     <path d="M 299.041999 39.119646 
L 418.361999 39.119646 
L 418.361999 6.834646 
L 299.041999 6.834646 
z
" style="fill:#ffffff;stroke:#000000;stroke-linejoin:miter;"/>
    </g>
    <g id="line2d_12">
     <path d="M 305.441999 16.513396 
L 321.441999 16.513396 
" style="fill:none;stroke:#009afa;stroke-linejoin:miter;"/>
    </g>
    <g id="line2d_13"/>
    <g id="text_12">
     <!-- GXBeam -->
     <g transform="translate(327.841999 19.313396)scale(0.08 -0.08)">
      <defs>
       <path d="M 3809 666 
L 3809 1919 
L 2778 1919 
L 2778 2438 
L 4434 2438 
L 4434 434 
Q 4069 175 3628 42 
Q 3188 -91 2688 -91 
Q 1594 -91 976 548 
Q 359 1188 359 2328 
Q 359 3472 976 4111 
Q 1594 4750 2688 4750 
Q 3144 4750 3555 4637 
Q 3966 4525 4313 4306 
L 4313 3634 
Q 3963 3931 3569 4081 
Q 3175 4231 2741 4231 
Q 1884 4231 1454 3753 
Q 1025 3275 1025 2328 
Q 1025 1384 1454 906 
Q 1884 428 2741 428 
Q 3075 428 3337 486 
Q 3600 544 3809 666 
z
" id="DejaVuSans-47" transform="scale(0.015625)"/>
       <path d="M 403 4666 
L 1081 4666 
L 2241 2931 
L 3406 4666 
L 4084 4666 
L 2584 2425 
L 4184 0 
L 3506 0 
L 2194 1984 
L 872 0 
L 191 0 
L 1856 2491 
L 403 4666 
z
" id="DejaVuSans-58" transform="scale(0.015625)"/>
       <path d="M 1259 2228 
L 1259 519 
L 2272 519 
Q 2781 519 3026 730 
Q 3272 941 3272 1375 
Q 3272 1813 3026 2020 
Q 2781 2228 2272 2228 
L 1259 2228 
z
M 1259 4147 
L 1259 2741 
L 2194 2741 
Q 2656 2741 2882 2914 
Q 3109 3088 3109 3444 
Q 3109 3797 2882 3972 
Q 2656 4147 2194 4147 
L 1259 4147 
z
M 628 4666 
L 2241 4666 
Q 2963 4666 3353 4366 
Q 3744 4066 3744 3513 
Q 3744 3084 3544 2831 
Q 3344 2578 2956 2516 
Q 3422 2416 3680 2098 
Q 3938 1781 3938 1306 
Q 3938 681 3513 340 
Q 3088 0 2303 0 
L 628 0 
L 628 4666 
z
" id="DejaVuSans-42" transform="scale(0.015625)"/>
       <path d="M 2194 1759 
Q 1497 1759 1228 1600 
Q 959 1441 959 1056 
Q 959 750 1161 570 
Q 1363 391 1709 391 
Q 2188 391 2477 730 
Q 2766 1069 2766 1631 
L 2766 1759 
L 2194 1759 
z
M 3341 1997 
L 3341 0 
L 2766 0 
L 2766 531 
Q 2569 213 2275 61 
Q 1981 -91 1556 -91 
Q 1019 -91 701 211 
Q 384 513 384 1019 
Q 384 1609 779 1909 
Q 1175 2209 1959 2209 
L 2766 2209 
L 2766 2266 
Q 2766 2663 2505 2880 
Q 2244 3097 1772 3097 
Q 1472 3097 1187 3025 
Q 903 2953 641 2809 
L 641 3341 
Q 956 3463 1253 3523 
Q 1550 3584 1831 3584 
Q 2591 3584 2966 3190 
Q 3341 2797 3341 1997 
z
" id="DejaVuSans-61" transform="scale(0.015625)"/>
      </defs>
      <use xlink:href="#DejaVuSans-47"/>
      <use x="77.490234" xlink:href="#DejaVuSans-58"/>
      <use x="145.996094" xlink:href="#DejaVuSans-42"/>
      <use x="214.599609" xlink:href="#DejaVuSans-65"/>
      <use x="276.123047" xlink:href="#DejaVuSans-61"/>
      <use x="337.402344" xlink:href="#DejaVuSans-6d"/>
     </g>
    </g>
    <g id="line2d_14">
     <path d="M 305.441999 28.255896 
L 321.441999 28.255896 
" style="fill:none;stroke:#e36f47;stroke-linejoin:miter;"/>
    </g>
    <g id="line2d_15"/>
    <g id="text_13">
     <!-- DifferentialEquations -->
     <g transform="translate(327.841999 31.055896)scale(0.08 -0.08)">
      <defs>
       <path d="M 1259 4147 
L 1259 519 
L 2022 519 
Q 2988 519 3436 956 
Q 3884 1394 3884 2338 
Q 3884 3275 3436 3711 
Q 2988 4147 2022 4147 
L 1259 4147 
z
M 628 4666 
L 1925 4666 
Q 3281 4666 3915 4102 
Q 4550 3538 4550 2338 
Q 4550 1131 3912 565 
Q 3275 0 1925 0 
L 628 0 
L 628 4666 
z
" id="DejaVuSans-44" transform="scale(0.015625)"/>
       <path d="M 2375 4863 
L 2375 4384 
L 1825 4384 
Q 1516 4384 1395 4259 
Q 1275 4134 1275 3809 
L 1275 3500 
L 2222 3500 
L 2222 3053 
L 1275 3053 
L 1275 0 
L 697 0 
L 697 3053 
L 147 3053 
L 147 3500 
L 697 3500 
L 697 3744 
Q 697 4328 969 4595 
Q 1241 4863 1831 4863 
L 2375 4863 
z
" id="DejaVuSans-66" transform="scale(0.015625)"/>
       <path d="M 2631 2963 
Q 2534 3019 2420 3045 
Q 2306 3072 2169 3072 
Q 1681 3072 1420 2755 
Q 1159 2438 1159 1844 
L 1159 0 
L 581 0 
L 581 3500 
L 1159 3500 
L 1159 2956 
Q 1341 3275 1631 3429 
Q 1922 3584 2338 3584 
Q 2397 3584 2469 3576 
Q 2541 3569 2628 3553 
L 2631 2963 
z
" id="DejaVuSans-72" transform="scale(0.015625)"/>
       <path d="M 3513 2113 
L 3513 0 
L 2938 0 
L 2938 2094 
Q 2938 2591 2744 2837 
Q 2550 3084 2163 3084 
Q 1697 3084 1428 2787 
Q 1159 2491 1159 1978 
L 1159 0 
L 581 0 
L 581 3500 
L 1159 3500 
L 1159 2956 
Q 1366 3272 1645 3428 
Q 1925 3584 2291 3584 
Q 2894 3584 3203 3211 
Q 3513 2838 3513 2113 
z
" id="DejaVuSans-6e" transform="scale(0.015625)"/>
       <path d="M 1172 4494 
L 1172 3500 
L 2356 3500 
L 2356 3053 
L 1172 3053 
L 1172 1153 
Q 1172 725 1289 603 
Q 1406 481 1766 481 
L 2356 481 
L 2356 0 
L 1766 0 
Q 1100 0 847 248 
Q 594 497 594 1153 
L 594 3053 
L 172 3053 
L 172 3500 
L 594 3500 
L 594 4494 
L 1172 4494 
z
" id="DejaVuSans-74" transform="scale(0.015625)"/>
       <path d="M 603 4863 
L 1178 4863 
L 1178 0 
L 603 0 
L 603 4863 
z
" id="DejaVuSans-6c" transform="scale(0.015625)"/>
       <path d="M 628 4666 
L 3578 4666 
L 3578 4134 
L 1259 4134 
L 1259 2753 
L 3481 2753 
L 3481 2222 
L 1259 2222 
L 1259 531 
L 3634 531 
L 3634 0 
L 628 0 
L 628 4666 
z
" id="DejaVuSans-45" transform="scale(0.015625)"/>
       <path d="M 947 1747 
Q 947 1113 1208 752 
Q 1469 391 1925 391 
Q 2381 391 2643 752 
Q 2906 1113 2906 1747 
Q 2906 2381 2643 2742 
Q 2381 3103 1925 3103 
Q 1469 3103 1208 2742 
Q 947 2381 947 1747 
z
M 2906 525 
Q 2725 213 2448 61 
Q 2172 -91 1784 -91 
Q 1150 -91 751 415 
Q 353 922 353 1747 
Q 353 2572 751 3078 
Q 1150 3584 1784 3584 
Q 2172 3584 2448 3432 
Q 2725 3281 2906 2969 
L 2906 3500 
L 3481 3500 
L 3481 -1331 
L 2906 -1331 
L 2906 525 
z
" id="DejaVuSans-71" transform="scale(0.015625)"/>
       <path d="M 544 1381 
L 544 3500 
L 1119 3500 
L 1119 1403 
Q 1119 906 1312 657 
Q 1506 409 1894 409 
Q 2359 409 2629 706 
Q 2900 1003 2900 1516 
L 2900 3500 
L 3475 3500 
L 3475 0 
L 2900 0 
L 2900 538 
Q 2691 219 2414 64 
Q 2138 -91 1772 -91 
Q 1169 -91 856 284 
Q 544 659 544 1381 
z
M 1991 3584 
L 1991 3584 
z
" id="DejaVuSans-75" transform="scale(0.015625)"/>
       <path d="M 1959 3097 
Q 1497 3097 1228 2736 
Q 959 2375 959 1747 
Q 959 1119 1226 758 
Q 1494 397 1959 397 
Q 2419 397 2687 759 
Q 2956 1122 2956 1747 
Q 2956 2369 2687 2733 
Q 2419 3097 1959 3097 
z
M 1959 3584 
Q 2709 3584 3137 3096 
Q 3566 2609 3566 1747 
Q 3566 888 3137 398 
Q 2709 -91 1959 -91 
Q 1206 -91 779 398 
Q 353 888 353 1747 
Q 353 2609 779 3096 
Q 1206 3584 1959 3584 
z
" id="DejaVuSans-6f" transform="scale(0.015625)"/>
      </defs>
      <use xlink:href="#DejaVuSans-44"/>
      <use x="77.001953" xlink:href="#DejaVuSans-69"/>
      <use x="104.785156" xlink:href="#DejaVuSans-66"/>
      <use x="139.990234" xlink:href="#DejaVuSans-66"/>
      <use x="175.195312" xlink:href="#DejaVuSans-65"/>
      <use x="236.71875" xlink:href="#DejaVuSans-72"/>
      <use x="275.582031" xlink:href="#DejaVuSans-65"/>
      <use x="337.105469" xlink:href="#DejaVuSans-6e"/>
      <use x="400.484375" xlink:href="#DejaVuSans-74"/>
      <use x="439.693359" xlink:href="#DejaVuSans-69"/>
      <use x="467.476562" xlink:href="#DejaVuSans-61"/>
      <use x="528.755859" xlink:href="#DejaVuSans-6c"/>
      <use x="556.539062" xlink:href="#DejaVuSans-45"/>
      <use x="619.722656" xlink:href="#DejaVuSans-71"/>
      <use x="683.199219" xlink:href="#DejaVuSans-75"/>
      <use x="746.578125" xlink:href="#DejaVuSans-61"/>
      <use x="807.857422" xlink:href="#DejaVuSans-74"/>
      <use x="847.066406" xlink:href="#DejaVuSans-69"/>
      <use x="874.849609" xlink:href="#DejaVuSans-6f"/>
      <use x="936.03125" xlink:href="#DejaVuSans-6e"/>
      <use x="999.410156" xlink:href="#DejaVuSans-73"/>
     </g>
    </g>
   </g>
  </g>
 </g>
 <defs>
  <clipPath id="pf484972715">
   <rect height="255.390709" width="392.805604" x="29.556396" y="2.834646"/>
  </clipPath>
 </defs>
</svg>
