<?xml version="1.0" encoding="utf-8" standalone="no"?>
<!DOCTYPE svg PUBLIC "-//W3C//DTD SVG 1.1//EN"
  "http://www.w3.org/Graphics/SVG/1.1/DTD/svg11.dtd">
<svg height="288pt" version="1.1" viewBox="0 0 432 288" width="432pt" xmlns="http://www.w3.org/2000/svg" xmlns:xlink="http://www.w3.org/1999/xlink">
 <metadata>
  <rdf:RDF xmlns:cc="http://creativecommons.org/ns#" xmlns:dc="http://purl.org/dc/elements/1.1/" xmlns:rdf="http://www.w3.org/1999/02/22-rdf-syntax-ns#">
   <cc:Work>
    <dc:type rdf:resource="http://purl.org/dc/dcmitype/StillImage"/>
    <dc:date>2021-09-29T22:45:23.293707</dc:date>
    <dc:format>image/svg+xml</dc:format>
    <dc:creator>
     <cc:Agent>
      <dc:title>Matplotlib v3.4.2, https://matplotlib.org/</dc:title>
     </cc:Agent>
    </dc:creator>
   </cc:Work>
  </rdf:RDF>
 </metadata>
 <defs>
  <style type="text/css">*{stroke-linecap:butt;stroke-linejoin:round;}</style>
 </defs>
 <g id="figure_1">
  <g id="patch_1">
   <path d="M 0 288 
L 432 288 
L 432 0 
L 0 0 
z
" style="fill:#ffffff;"/>
  </g>
  <g id="axes_1">
   <g id="patch_2">
    <path d="M 66.051544 258.225354 
L 422.361999 258.225354 
L 422.361999 2.834646 
L 66.051544 2.834646 
z
" style="fill:#ffffff;"/>
   </g>
   <g id="line2d_1">
    <path clip-path="url(#p603577b929)" d="M 66.051544 121.522442 
L 68.011251 121.490519 
L 68.367562 121.383411 
L 68.723872 121.618024 
L 69.080183 121.609416 
L 69.436493 121.465118 
L 69.614648 121.623347 
L 70.149114 121.525082 
L 70.327269 121.282242 
L 70.505424 121.267255 
L 71.03989 121.60664 
L 71.218045 121.621274 
L 71.574356 121.49463 
L 72.286977 121.616803 
L 72.643287 121.4374 
L 73.177753 121.630092 
L 73.355908 121.737136 
L 74.602995 121.550329 
L 74.959305 121.555962 
L 75.315616 121.47357 
L 75.850081 121.734912 
L 76.028237 121.735593 
L 76.384547 121.447274 
L 76.740857 121.455002 
L 77.097168 121.628664 
L 77.453478 121.350219 
L 77.809789 121.290467 
L 78.166099 121.543504 
L 78.52241 121.374454 
L 78.87872 121.309773 
L 79.235031 121.65563 
L 80.125807 121.476233 
L 80.838428 121.472352 
L 81.016583 121.380024 
L 81.194738 121.464985 
L 81.551049 121.415371 
L 81.729204 121.558179 
L 82.441825 121.204144 
L 82.798135 121.39201 
L 83.332601 121.576702 
L 83.688911 121.377759 
L 84.223377 121.447345 
L 84.401532 121.356152 
L 84.757843 121.0467 
L 85.114153 121.180219 
L 85.470464 121.453473 
L 86.183084 121.42639 
L 87.252016 121.582876 
L 87.786482 121.568083 
L 88.142792 121.666359 
L 88.677258 121.313807 
L 88.855413 121.236427 
L 89.211723 121.454024 
L 89.924344 121.050504 
L 90.280655 121.305621 
L 91.349586 121.347322 
L 92.774828 121.603667 
L 93.487449 122.210739 
L 93.665604 122.243634 
L 94.55638 123.024994 
L 94.734535 123.072557 
L 95.090846 123.439903 
L 95.625312 124.190769 
L 96.516088 124.645288 
L 97.406864 125.403491 
L 98.29764 126.363368 
L 98.832106 126.514166 
L 99.366571 127.001478 
L 99.722882 127.001768 
L 99.901037 126.898406 
L 100.613658 127.073504 
L 101.504434 126.618498 
L 101.682589 126.596238 
L 102.573365 125.455993 
L 102.751521 125.322172 
L 103.820452 123.263861 
L 105.245694 119.80206 
L 105.602004 118.971878 
L 106.849091 115.57196 
L 107.383557 114.335501 
L 107.561712 114.080646 
L 108.808798 111.082319 
L 109.87773 109.286381 
L 111.481127 107.172273 
L 111.659282 107.066352 
L 112.193748 106.404375 
L 112.550058 106.144212 
L 112.906369 105.972963 
L 113.262679 105.879911 
L 113.61899 105.864161 
L 114.33161 106.06052 
L 114.509766 106.106174 
L 115.578697 107.355205 
L 116.291318 108.461181 
L 116.825784 109.476465 
L 118.429181 114.238497 
L 118.963646 116.120091 
L 122.526751 132.95817 
L 123.417527 137.211844 
L 124.308303 140.838724 
L 125.377235 144.08472 
L 125.9117 145.052631 
L 126.980632 145.466324 
L 127.515097 145.016072 
L 127.693253 144.957331 
L 128.049563 144.384254 
L 128.584029 143.103688 
L 129.118494 141.84365 
L 133.572375 124.894342 
L 133.928686 124.047663 
L 134.284996 122.941082 
L 134.641306 122.275085 
L 134.819462 122.237717 
L 135.532083 121.429874 
L 137.313635 121.120153 
L 137.49179 121.079782 
L 138.026256 120.696303 
L 138.560721 120.464471 
L 139.273342 120.085487 
L 139.985963 119.363177 
L 140.342274 118.652787 
L 141.054895 117.215351 
L 141.411205 116.557368 
L 142.301981 114.451753 
L 143.014602 112.554476 
L 143.727223 111.281734 
L 144.617999 109.382078 
L 145.152465 108.515927 
L 145.508775 108.289018 
L 145.865086 107.927192 
L 146.043241 107.8965 
L 146.755862 108.714283 
L 147.112172 109.411497 
L 148.002949 112.371341 
L 149.784501 119.883712 
L 151.744208 126.065171 
L 152.278674 126.583837 
L 152.991295 126.373766 
L 153.16945 126.315856 
L 153.347605 126.376112 
L 153.703916 126.150768 
L 153.882071 125.916566 
L 154.238381 125.207024 
L 154.772847 124.721092 
L 156.554399 121.458097 
L 157.26702 119.851517 
L 157.623331 119.513542 
L 158.157797 118.449424 
L 158.335952 118.31874 
L 158.692262 118.336965 
L 159.226728 117.539518 
L 159.404883 117.410774 
L 159.583038 117.527952 
L 159.761194 117.47637 
L 160.295659 116.66176 
L 160.473814 116.526761 
L 160.65197 116.63852 
L 161.00828 116.362345 
L 161.720901 115.807097 
L 162.255367 114.792387 
L 162.611677 113.990583 
L 162.789832 113.709086 
L 164.036919 109.597957 
L 167.421868 95.887295 
L 168.134489 94.329583 
L 168.4908 93.774032 
L 169.025265 93.635526 
L 169.203421 93.42874 
L 169.381576 93.535517 
L 170.272352 95.146387 
L 170.628662 96.689855 
L 171.519439 101.566959 
L 173.479146 117.959633 
L 174.369922 125.840883 
L 175.260698 132.323958 
L 175.795164 135.422984 
L 177.042251 140.011326 
L 177.933027 142.930239 
L 178.289337 143.964077 
L 180.07089 150.022657 
L 181.674287 157.136112 
L 182.743218 159.999 
L 183.099528 160.184748 
L 183.633994 160.903588 
L 183.812149 160.855634 
L 184.16846 160.363418 
L 184.346615 160.301751 
L 184.702925 159.766748 
L 185.771857 155.62704 
L 187.018943 146.373565 
L 188.978651 130.471193 
L 190.047582 123.47137 
L 190.938358 118.771243 
L 191.294669 117.29914 
L 191.829135 116.413187 
L 192.185445 115.739441 
L 192.3636 115.794365 
L 192.719911 116.360835 
L 193.076221 116.241315 
L 193.432532 116.794585 
L 193.788842 117.704412 
L 193.966997 117.736804 
L 194.145153 117.887938 
L 194.501463 118.569758 
L 194.857773 119.217635 
L 195.035929 119.120285 
L 195.392239 119.383266 
L 195.74855 119.712106 
L 195.926705 119.417571 
L 196.817481 116.579644 
L 197.886412 108.154553 
L 198.777188 98.87995 
L 199.667965 91.041759 
L 200.558741 86.001869 
L 201.093206 84.9848 
L 201.271362 84.932616 
L 201.449517 85.244397 
L 201.805827 86.710902 
L 202.340293 90.34064 
L 202.874759 96.467824 
L 203.409224 104.732062 
L 204.3 123.103376 
L 205.725242 152.326854 
L 206.437863 161.207951 
L 206.794174 163.275865 
L 207.150484 163.993594 
L 207.328639 163.961489 
L 207.506795 163.259065 
L 207.863105 160.516712 
L 208.575726 152.61739 
L 210.535433 124.101526 
L 211.069899 119.294989 
L 211.42621 118.041483 
L 211.960675 117.011434 
L 212.138831 116.872016 
L 212.495141 117.085353 
L 212.673296 117.003417 
L 213.207762 116.357476 
L 213.564072 116.269994 
L 213.920383 115.323223 
L 214.276693 114.146089 
L 214.633004 113.376908 
L 216.592711 107.059849 
L 216.949022 105.358099 
L 218.730574 94.116032 
L 219.443195 87.368192 
L 220.155816 79.589691 
L 220.868437 72.189505 
L 221.581058 66.561576 
L 221.759213 66.035485 
L 222.115523 66.022256 
L 222.293678 66.196419 
L 222.471834 66.769818 
L 222.828144 69.276507 
L 223.540765 78.432276 
L 225.856783 113.338467 
L 226.391249 117.426114 
L 226.747559 118.891605 
L 226.925714 119.12356 
L 227.10387 118.98602 
L 227.282025 118.704627 
L 227.638335 117.47893 
L 227.816491 116.628621 
L 229.419888 104.046183 
L 229.598043 103.771294 
L 229.954353 103.842926 
L 230.132509 103.780255 
L 230.310664 104.422772 
L 231.20144 112.138515 
L 232.270371 126.746811 
L 234.230079 157.702939 
L 235.477165 174.242832 
L 236.724252 188.741758 
L 237.436873 195.002346 
L 237.971339 196.55796 
L 238.149494 196.822213 
L 238.327649 196.445355 
L 238.683959 193.220526 
L 239.218425 186.33777 
L 239.752891 174.317888 
L 240.643667 150.296164 
L 241.534443 128.498056 
L 242.068909 120.810247 
L 242.425219 118.443912 
L 242.603374 118.346596 
L 242.959685 119.279065 
L 243.13784 119.928497 
L 243.315995 121.112861 
L 244.384927 133.927289 
L 244.919392 141.172989 
L 245.632013 146.149838 
L 245.810169 146.685366 
L 245.988324 146.218243 
L 246.522789 142.839593 
L 246.8791 139.199249 
L 249.016963 105.751719 
L 249.195118 104.395467 
L 249.373273 103.92979 
L 249.551428 104.059646 
L 249.729584 104.781131 
L 250.085894 108.580286 
L 250.62036 119.741666 
L 252.223757 157.394646 
L 252.580067 161.875576 
L 253.648999 167.855838 
L 253.827154 168.163808 
L 254.183464 169.823272 
L 254.539775 171.14435 
L 254.71793 170.739427 
L 255.252396 168.123923 
L 255.608706 163.850443 
L 256.855793 137.832867 
L 258.102879 106.560283 
L 258.637345 90.294769 
L 260.062587 40.650741 
L 260.953363 18.286287 
L 261.309673 13.502165 
L 261.665984 10.889779 
L 261.844139 10.062685 
L 262.022294 10.138943 
L 262.378605 13.704606 
L 262.91307 22.681316 
L 263.447536 37.7198 
L 264.338312 69.371793 
L 265.229088 100.29795 
L 265.763554 112.130097 
L 266.119865 114.946732 
L 266.29802 115.391031 
L 266.476175 115.049764 
L 266.65433 113.758217 
L 267.010641 108.447211 
L 268.614038 76.795629 
L 268.970348 74.258022 
L 269.148503 73.50575 
L 269.326659 73.241341 
L 269.682969 73.832542 
L 270.03928 75.742399 
L 270.39559 78.218904 
L 270.7519 82.709702 
L 271.286366 94.737588 
L 271.820832 111.523984 
L 274.49316 219.688663 
L 275.027626 229.283834 
L 275.205781 231.329236 
L 275.383936 231.88536 
L 275.562092 231.373644 
L 275.918402 228.887197 
L 276.274712 224.070072 
L 276.809178 208.882475 
L 277.521799 181.846492 
L 278.59073 135.979871 
L 279.303351 113.58382 
L 280.372283 90.787126 
L 281.263059 79.390474 
L 281.619369 76.882146 
L 282.33199 69.249243 
L 282.688301 65.543224 
L 283.222766 59.217125 
L 283.579077 57.800402 
L 283.757232 57.24513 
L 283.935387 57.291328 
L 284.113543 58.479366 
L 284.469853 64.347361 
L 285.182474 80.879218 
L 286.07325 106.060302 
L 286.964026 125.964244 
L 287.854802 140.27007 
L 288.567423 144.986356 
L 288.745578 144.400649 
L 289.280044 138.140011 
L 289.636355 132.702992 
L 291.596062 86.536859 
L 292.486838 67.90247 
L 293.377614 53.472018 
L 293.91208 49.19537 
L 294.090235 48.623507 
L 294.26839 49.198755 
L 294.624701 52.567878 
L 294.981011 58.200192 
L 295.337322 68.478541 
L 296.049943 97.544161 
L 297.831495 180.076674 
L 298.187805 190.174939 
L 298.544116 194.979268 
L 298.722271 195.864487 
L 298.900426 196.111179 
L 299.078582 195.933445 
L 299.256737 194.493738 
L 300.147513 178.819617 
L 301.3946 151.206151 
L 301.75091 144.523954 
L 302.285376 139.670636 
L 302.641686 138.000037 
L 302.819841 138.361275 
L 303.176152 142.159252 
L 303.532462 149.19858 
L 304.066928 164.384035 
L 304.779549 185.197851 
L 305.135859 190.451433 
L 305.314015 191.759252 
L 305.49217 191.992236 
L 305.670325 190.639507 
L 306.026636 184.209994 
L 306.561101 170.223655 
L 307.451877 142.669391 
L 307.808188 136.312464 
L 307.986343 134.896323 
L 308.164498 134.481791 
L 308.342653 135.297213 
L 308.698964 138.815662 
L 309.946051 157.153632 
L 310.124206 157.921828 
L 310.302361 157.839042 
L 310.480516 156.708486 
L 310.836827 151.675167 
L 311.371292 135.825682 
L 313.865466 50.665602 
L 314.221776 48.587934 
L 314.399931 49.917182 
L 314.578086 53.682551 
L 314.934397 70.603714 
L 315.468863 111.075462 
L 316.715949 225.441974 
L 317.07226 237.176351 
L 317.250415 236.296462 
L 317.606725 222.89525 
L 318.141191 189.997208 
L 319.031967 130.74649 
L 319.744588 100.770197 
L 320.813519 75.968085 
L 321.704296 61.279132 
L 321.882451 60.307635 
L 322.060606 60.537876 
L 322.595072 63.325455 
L 323.485848 71.598972 
L 323.664003 72.07894 
L 323.842158 72.910274 
L 325.445555 87.331872 
L 325.801866 88.785289 
L 326.158176 92.742945 
L 326.692642 101.176052 
L 327.048952 113.309639 
L 328.296039 166.344174 
L 328.652349 171.156033 
L 328.830505 171.542597 
L 329.00866 171.425489 
L 329.186815 170.507504 
L 329.899436 163.551231 
L 330.077591 163.160621 
L 330.255746 162.141955 
L 330.612057 157.873773 
L 331.146523 147.910916 
L 331.859144 126.273067 
L 332.571764 101.846366 
L 333.284385 76.823067 
L 333.640696 71.712317 
L 333.818851 73.283705 
L 334.175162 84.646542 
L 335.422248 142.505368 
L 337.2038 179.053406 
L 337.738266 185.658673 
L 338.094577 187.380241 
L 338.272732 186.9448 
L 338.629042 183.926345 
L 338.985353 174.818558 
L 339.341663 156.562576 
L 340.410594 91.273976 
L 340.94506 69.572051 
L 341.301371 61.975362 
L 341.479526 61.184274 
L 341.657681 62.823392 
L 342.013992 72.422294 
L 342.370302 90.652286 
L 342.904768 120.695778 
L 343.439233 136.549209 
L 343.795544 141.506238 
L 343.973699 142.314813 
L 344.151854 142.304645 
L 344.330009 142.773046 
L 344.508165 142.47486 
L 344.68632 140.875025 
L 344.864475 137.653641 
L 346.111562 101.364901 
L 346.289717 100.905852 
L 346.467872 101.611447 
L 346.646027 101.353116 
L 346.824183 99.921649 
L 347.002338 97.027159 
L 347.536804 78.508133 
L 347.893114 67.047828 
L 348.071269 65.825877 
L 348.249424 67.672146 
L 348.605735 78.94583 
L 348.962045 99.248866 
L 349.852822 159.722896 
L 350.387287 189.379408 
L 350.743598 197.134256 
L 350.921753 198.753381 
L 351.099908 198.419048 
L 351.278063 196.214889 
L 351.456219 190.078003 
L 353.772237 59.136771 
L 354.128547 47.868392 
L 354.306702 46.74065 
L 354.484857 47.078438 
L 354.841168 48.347934 
L 355.197478 49.089971 
L 355.375634 48.771379 
L 355.553789 48.127235 
L 356.088255 44.71544 
L 356.26641 45.981186 
L 356.444565 49.397547 
L 357.513496 79.789205 
L 357.869807 83.787587 
L 358.047962 82.472168 
L 358.404272 78.295158 
L 358.582428 78.584473 
L 360.36398 100.572677 
L 360.72029 113.716375 
L 361.789222 171.305457 
L 361.967377 175.58979 
L 362.145532 176.563839 
L 362.323687 175.46054 
L 362.501843 173.309 
L 362.679998 172.552882 
L 362.858153 173.171583 
L 363.214464 175.744246 
L 363.392619 174.801951 
L 363.570774 171.430534 
L 363.927085 153.945579 
L 364.46155 105.080562 
L 364.996016 62.114024 
L 365.352326 53.792575 
L 365.530482 53.610486 
L 365.708637 54.881307 
L 366.064947 61.098524 
L 366.421258 70.1198 
L 366.955723 77.244351 
L 367.312034 93.382124 
L 368.737276 181.98876 
L 369.093586 199.668324 
L 369.806207 243.765744 
L 370.162518 250.997315 
L 370.340673 250.876554 
L 370.518828 247.417181 
L 371.765915 206.027101 
L 372.122225 183.164442 
L 373.191156 92.918927 
L 373.547467 84.141319 
L 373.903777 85.095634 
L 374.081933 83.087761 
L 374.260088 77.840702 
L 375.329019 28.639622 
L 375.507174 28.261811 
L 375.863485 38.466938 
L 376.219795 49.022912 
L 376.576106 52.362102 
L 376.932416 56.61407 
L 377.288727 64.350327 
L 377.645037 78.057107 
L 378.001348 93.540535 
L 378.179503 97.150708 
L 378.357658 97.504117 
L 379.070279 87.488913 
L 379.248434 87.904395 
L 379.426589 91.091569 
L 379.7829 109.459435 
L 380.317365 145.898703 
L 380.673676 158.751064 
L 381.029986 165.079303 
L 381.208142 165.656497 
L 381.386297 164.241066 
L 382.811539 140.585337 
L 382.989694 140.766039 
L 383.167849 143.183986 
L 383.52416 154.898334 
L 384.058625 177.742089 
L 384.23678 180.079604 
L 384.414936 178.954471 
L 384.593091 173.910037 
L 385.483867 128.905269 
L 385.662022 126.709488 
L 385.840178 126.382843 
L 386.018333 126.422727 
L 386.374643 127.330244 
L 386.552798 125.495692 
L 386.909109 113.194768 
L 387.265419 103.037877 
L 387.443575 104.803357 
L 388.334351 125.641908 
L 388.512506 127.238363 
L 388.690661 125.432249 
L 389.225127 114.108174 
L 389.403282 117.688708 
L 389.937748 143.356656 
L 390.828524 182.71951 
L 391.006679 180.550002 
L 391.897455 157.662922 
L 392.253766 144.61031 
L 392.966387 127.338541 
L 393.500852 104.217138 
L 394.035318 88.594545 
L 394.391628 83.390486 
L 394.747939 80.109816 
L 395.104249 72.977007 
L 395.81687 57.175532 
L 395.995026 56.22859 
L 396.707646 60.9651 
L 397.063957 67.394803 
L 397.598423 86.862654 
L 398.489199 137.035445 
L 398.667354 136.541247 
L 399.023664 128.58272 
L 399.379975 114.698791 
L 399.736285 97.380456 
L 399.914441 94.65529 
L 400.092596 98.480051 
L 400.448906 110.207287 
L 400.627061 113.232844 
L 401.161527 116.709307 
L 401.339682 114.74068 
L 401.695993 108.270267 
L 401.874148 110.55963 
L 402.230458 125.645254 
L 402.408614 127.463463 
L 402.943079 118.086681 
L 403.29939 123.894606 
L 403.477545 122.733224 
L 403.833856 114.903769 
L 404.012011 115.473989 
L 404.368321 120.670906 
L 404.724632 121.809707 
L 405.080942 124.470833 
L 405.259097 120.675837 
L 405.793563 91.631429 
L 405.971718 91.034273 
L 406.328029 98.183731 
L 406.506184 98.186003 
L 406.684339 96.817708 
L 406.862494 96.42439 
L 407.04065 97.63612 
L 407.218805 97.701698 
L 407.39696 94.26066 
L 407.753271 83.840466 
L 407.931426 82.860774 
L 408.109581 86.135045 
L 408.465891 103.674086 
L 409.534823 177.598027 
L 410.069289 196.616237 
L 410.781909 203.890878 
L 410.960065 205.598631 
L 411.13822 202.273623 
L 411.49453 180.039409 
L 411.850841 158.318285 
L 412.028996 155.406293 
L 412.207151 157.116428 
L 412.563462 168.810178 
L 413.097927 190.143806 
L 413.276083 192.900618 
L 413.454238 188.400493 
L 413.810548 156.286649 
L 414.345014 105.739835 
L 415.23579 50.091166 
L 415.413945 51.191079 
L 415.948411 70.32906 
L 416.304721 89.363666 
L 417.017342 139.545149 
L 417.373653 168.785891 
L 417.551808 171.04811 
L 417.729963 162.487402 
L 418.086274 134.706828 
L 418.264429 129.610522 
L 418.442584 131.123042 
L 418.798895 140.051681 
L 418.97705 140.870617 
L 419.155205 140.322212 
L 419.33336 139.256558 
L 419.511516 139.041283 
L 419.689671 137.367862 
L 419.867826 132.308338 
L 420.402292 108.879153 
L 420.580447 108.023524 
L 420.936757 112.303859 
L 421.114913 109.604866 
L 421.649378 93.779343 
L 421.827534 91.734205 
L 422.005689 87.214802 
L 422.361999 68.703739 
L 422.361999 68.703739 
" style="fill:none;stroke:#009afa;"/>
   </g>
   <g id="matplotlib.axis_1">
    <g id="xtick_1">
     <g id="line2d_2">
      <defs>
       <path d="M 0 0 
L 0 -2.5 
" id="mab72e7d597" style="stroke:#000000;stroke-width:0.5;"/>
      </defs>
      <g>
       <use style="stroke:#000000;stroke-width:0.5;" x="66.051544" xlink:href="#mab72e7d597" y="258.225354"/>
      </g>
     </g>
     <g id="text_1">
      <!-- $0.0$ -->
      <g transform="translate(59.651544 267.804104)scale(0.08 -0.08)">
       <defs>
        <path d="M 2034 4250 
Q 1547 4250 1301 3770 
Q 1056 3291 1056 2328 
Q 1056 1369 1301 889 
Q 1547 409 2034 409 
Q 2525 409 2770 889 
Q 3016 1369 3016 2328 
Q 3016 3291 2770 3770 
Q 2525 4250 2034 4250 
z
M 2034 4750 
Q 2819 4750 3233 4129 
Q 3647 3509 3647 2328 
Q 3647 1150 3233 529 
Q 2819 -91 2034 -91 
Q 1250 -91 836 529 
Q 422 1150 422 2328 
Q 422 3509 836 4129 
Q 1250 4750 2034 4750 
z
" id="DejaVuSans-30" transform="scale(0.015625)"/>
        <path d="M 684 794 
L 1344 794 
L 1344 0 
L 684 0 
L 684 794 
z
" id="DejaVuSans-2e" transform="scale(0.015625)"/>
       </defs>
       <use transform="translate(0 0.78125)" xlink:href="#DejaVuSans-30"/>
       <use transform="translate(63.623047 0.78125)" xlink:href="#DejaVuSans-2e"/>
       <use transform="translate(95.410156 0.78125)" xlink:href="#DejaVuSans-30"/>
      </g>
     </g>
    </g>
    <g id="xtick_2">
     <g id="line2d_3">
      <g>
       <use style="stroke:#000000;stroke-width:0.5;" x="155.129158" xlink:href="#mab72e7d597" y="258.225354"/>
      </g>
     </g>
     <g id="text_2">
      <!-- $0.5$ -->
      <g transform="translate(148.729158 267.804104)scale(0.08 -0.08)">
       <defs>
        <path d="M 691 4666 
L 3169 4666 
L 3169 4134 
L 1269 4134 
L 1269 2991 
Q 1406 3038 1543 3061 
Q 1681 3084 1819 3084 
Q 2600 3084 3056 2656 
Q 3513 2228 3513 1497 
Q 3513 744 3044 326 
Q 2575 -91 1722 -91 
Q 1428 -91 1123 -41 
Q 819 9 494 109 
L 494 744 
Q 775 591 1075 516 
Q 1375 441 1709 441 
Q 2250 441 2565 725 
Q 2881 1009 2881 1497 
Q 2881 1984 2565 2268 
Q 2250 2553 1709 2553 
Q 1456 2553 1204 2497 
Q 953 2441 691 2322 
L 691 4666 
z
" id="DejaVuSans-35" transform="scale(0.015625)"/>
       </defs>
       <use transform="translate(0 0.78125)" xlink:href="#DejaVuSans-30"/>
       <use transform="translate(63.623047 0.78125)" xlink:href="#DejaVuSans-2e"/>
       <use transform="translate(95.410156 0.78125)" xlink:href="#DejaVuSans-35"/>
      </g>
     </g>
    </g>
    <g id="xtick_3">
     <g id="line2d_4">
      <g>
       <use style="stroke:#000000;stroke-width:0.5;" x="244.206771" xlink:href="#mab72e7d597" y="258.225354"/>
      </g>
     </g>
     <g id="text_3">
      <!-- $1.0$ -->
      <g transform="translate(237.806771 267.804104)scale(0.08 -0.08)">
       <defs>
        <path d="M 794 531 
L 1825 531 
L 1825 4091 
L 703 3866 
L 703 4441 
L 1819 4666 
L 2450 4666 
L 2450 531 
L 3481 531 
L 3481 0 
L 794 0 
L 794 531 
z
" id="DejaVuSans-31" transform="scale(0.015625)"/>
       </defs>
       <use transform="translate(0 0.78125)" xlink:href="#DejaVuSans-31"/>
       <use transform="translate(63.623047 0.78125)" xlink:href="#DejaVuSans-2e"/>
       <use transform="translate(95.410156 0.78125)" xlink:href="#DejaVuSans-30"/>
      </g>
     </g>
    </g>
    <g id="xtick_4">
     <g id="line2d_5">
      <g>
       <use style="stroke:#000000;stroke-width:0.5;" x="333.284385" xlink:href="#mab72e7d597" y="258.225354"/>
      </g>
     </g>
     <g id="text_4">
      <!-- $1.5$ -->
      <g transform="translate(326.884385 267.804104)scale(0.08 -0.08)">
       <use transform="translate(0 0.09375)" xlink:href="#DejaVuSans-31"/>
       <use transform="translate(63.623047 0.09375)" xlink:href="#DejaVuSans-2e"/>
       <use transform="translate(95.410156 0.09375)" xlink:href="#DejaVuSans-35"/>
      </g>
     </g>
    </g>
    <g id="xtick_5">
     <g id="line2d_6">
      <g>
       <use style="stroke:#000000;stroke-width:0.5;" x="422.361999" xlink:href="#mab72e7d597" y="258.225354"/>
      </g>
     </g>
     <g id="text_5">
      <!-- $2.0$ -->
      <g transform="translate(415.961999 267.804104)scale(0.08 -0.08)">
       <defs>
        <path d="M 1228 531 
L 3431 531 
L 3431 0 
L 469 0 
L 469 531 
Q 828 903 1448 1529 
Q 2069 2156 2228 2338 
Q 2531 2678 2651 2914 
Q 2772 3150 2772 3378 
Q 2772 3750 2511 3984 
Q 2250 4219 1831 4219 
Q 1534 4219 1204 4116 
Q 875 4013 500 3803 
L 500 4441 
Q 881 4594 1212 4672 
Q 1544 4750 1819 4750 
Q 2544 4750 2975 4387 
Q 3406 4025 3406 3419 
Q 3406 3131 3298 2873 
Q 3191 2616 2906 2266 
Q 2828 2175 2409 1742 
Q 1991 1309 1228 531 
z
" id="DejaVuSans-32" transform="scale(0.015625)"/>
       </defs>
       <use transform="translate(0 0.78125)" xlink:href="#DejaVuSans-32"/>
       <use transform="translate(63.623047 0.78125)" xlink:href="#DejaVuSans-2e"/>
       <use transform="translate(95.410156 0.78125)" xlink:href="#DejaVuSans-30"/>
      </g>
     </g>
    </g>
    <g id="text_6">
     <!-- Time (s) -->
     <g transform="translate(221.844975 281.826136)scale(0.11 -0.11)">
      <defs>
       <path d="M -19 4666 
L 3928 4666 
L 3928 4134 
L 2272 4134 
L 2272 0 
L 1638 0 
L 1638 4134 
L -19 4134 
L -19 4666 
z
" id="DejaVuSans-54" transform="scale(0.015625)"/>
       <path d="M 603 3500 
L 1178 3500 
L 1178 0 
L 603 0 
L 603 3500 
z
M 603 4863 
L 1178 4863 
L 1178 4134 
L 603 4134 
L 603 4863 
z
" id="DejaVuSans-69" transform="scale(0.015625)"/>
       <path d="M 3328 2828 
Q 3544 3216 3844 3400 
Q 4144 3584 4550 3584 
Q 5097 3584 5394 3201 
Q 5691 2819 5691 2113 
L 5691 0 
L 5113 0 
L 5113 2094 
Q 5113 2597 4934 2840 
Q 4756 3084 4391 3084 
Q 3944 3084 3684 2787 
Q 3425 2491 3425 1978 
L 3425 0 
L 2847 0 
L 2847 2094 
Q 2847 2600 2669 2842 
Q 2491 3084 2119 3084 
Q 1678 3084 1418 2786 
Q 1159 2488 1159 1978 
L 1159 0 
L 581 0 
L 581 3500 
L 1159 3500 
L 1159 2956 
Q 1356 3278 1631 3431 
Q 1906 3584 2284 3584 
Q 2666 3584 2933 3390 
Q 3200 3197 3328 2828 
z
" id="DejaVuSans-6d" transform="scale(0.015625)"/>
       <path d="M 3597 1894 
L 3597 1613 
L 953 1613 
Q 991 1019 1311 708 
Q 1631 397 2203 397 
Q 2534 397 2845 478 
Q 3156 559 3463 722 
L 3463 178 
Q 3153 47 2828 -22 
Q 2503 -91 2169 -91 
Q 1331 -91 842 396 
Q 353 884 353 1716 
Q 353 2575 817 3079 
Q 1281 3584 2069 3584 
Q 2775 3584 3186 3129 
Q 3597 2675 3597 1894 
z
M 3022 2063 
Q 3016 2534 2758 2815 
Q 2500 3097 2075 3097 
Q 1594 3097 1305 2825 
Q 1016 2553 972 2059 
L 3022 2063 
z
" id="DejaVuSans-65" transform="scale(0.015625)"/>
       <path id="DejaVuSans-20" transform="scale(0.015625)"/>
       <path d="M 1984 4856 
Q 1566 4138 1362 3434 
Q 1159 2731 1159 2009 
Q 1159 1288 1364 580 
Q 1569 -128 1984 -844 
L 1484 -844 
Q 1016 -109 783 600 
Q 550 1309 550 2009 
Q 550 2706 781 3412 
Q 1013 4119 1484 4856 
L 1984 4856 
z
" id="DejaVuSans-28" transform="scale(0.015625)"/>
       <path d="M 2834 3397 
L 2834 2853 
Q 2591 2978 2328 3040 
Q 2066 3103 1784 3103 
Q 1356 3103 1142 2972 
Q 928 2841 928 2578 
Q 928 2378 1081 2264 
Q 1234 2150 1697 2047 
L 1894 2003 
Q 2506 1872 2764 1633 
Q 3022 1394 3022 966 
Q 3022 478 2636 193 
Q 2250 -91 1575 -91 
Q 1294 -91 989 -36 
Q 684 19 347 128 
L 347 722 
Q 666 556 975 473 
Q 1284 391 1588 391 
Q 1994 391 2212 530 
Q 2431 669 2431 922 
Q 2431 1156 2273 1281 
Q 2116 1406 1581 1522 
L 1381 1569 
Q 847 1681 609 1914 
Q 372 2147 372 2553 
Q 372 3047 722 3315 
Q 1072 3584 1716 3584 
Q 2034 3584 2315 3537 
Q 2597 3491 2834 3397 
z
" id="DejaVuSans-73" transform="scale(0.015625)"/>
       <path d="M 513 4856 
L 1013 4856 
Q 1481 4119 1714 3412 
Q 1947 2706 1947 2009 
Q 1947 1309 1714 600 
Q 1481 -109 1013 -844 
L 513 -844 
Q 928 -128 1133 580 
Q 1338 1288 1338 2009 
Q 1338 2731 1133 3434 
Q 928 4138 513 4856 
z
" id="DejaVuSans-29" transform="scale(0.015625)"/>
      </defs>
      <use xlink:href="#DejaVuSans-54"/>
      <use x="57.958984" xlink:href="#DejaVuSans-69"/>
      <use x="85.742188" xlink:href="#DejaVuSans-6d"/>
      <use x="183.154297" xlink:href="#DejaVuSans-65"/>
      <use x="244.677734" xlink:href="#DejaVuSans-20"/>
      <use x="276.464844" xlink:href="#DejaVuSans-28"/>
      <use x="315.478516" xlink:href="#DejaVuSans-73"/>
      <use x="367.578125" xlink:href="#DejaVuSans-29"/>
     </g>
    </g>
   </g>
   <g id="matplotlib.axis_2">
    <g id="ytick_1">
     <g id="line2d_7">
      <defs>
       <path d="M 0 0 
L 2.5 0 
" id="m8a44726efb" style="stroke:#000000;stroke-width:0.5;"/>
      </defs>
      <g>
       <use style="stroke:#000000;stroke-width:0.5;" x="66.051544" xlink:href="#m8a44726efb" y="215.028471"/>
      </g>
     </g>
     <g id="text_7">
      <!-- $-6.0×10^{5}$ -->
      <g transform="translate(22.311544 218.067846)scale(0.08 -0.08)">
       <defs>
        <path d="M 678 2272 
L 4684 2272 
L 4684 1741 
L 678 1741 
L 678 2272 
z
" id="DejaVuSans-2212" transform="scale(0.015625)"/>
        <path d="M 2113 2584 
Q 1688 2584 1439 2293 
Q 1191 2003 1191 1497 
Q 1191 994 1439 701 
Q 1688 409 2113 409 
Q 2538 409 2786 701 
Q 3034 994 3034 1497 
Q 3034 2003 2786 2293 
Q 2538 2584 2113 2584 
z
M 3366 4563 
L 3366 3988 
Q 3128 4100 2886 4159 
Q 2644 4219 2406 4219 
Q 1781 4219 1451 3797 
Q 1122 3375 1075 2522 
Q 1259 2794 1537 2939 
Q 1816 3084 2150 3084 
Q 2853 3084 3261 2657 
Q 3669 2231 3669 1497 
Q 3669 778 3244 343 
Q 2819 -91 2113 -91 
Q 1303 -91 875 529 
Q 447 1150 447 2328 
Q 447 3434 972 4092 
Q 1497 4750 2381 4750 
Q 2619 4750 2861 4703 
Q 3103 4656 3366 4563 
z
" id="DejaVuSans-36" transform="scale(0.015625)"/>
        <path d="M 4488 3438 
L 3059 2003 
L 4488 575 
L 4116 197 
L 2681 1631 
L 1247 197 
L 878 575 
L 2303 2003 
L 878 3438 
L 1247 3816 
L 2681 2381 
L 4116 3816 
L 4488 3438 
z
" id="DejaVuSans-d7" transform="scale(0.015625)"/>
       </defs>
       <use transform="translate(0 0.684375)" xlink:href="#DejaVuSans-2212"/>
       <use transform="translate(83.789062 0.684375)" xlink:href="#DejaVuSans-36"/>
       <use transform="translate(147.412109 0.684375)" xlink:href="#DejaVuSans-2e"/>
       <use transform="translate(179.199219 0.684375)" xlink:href="#DejaVuSans-30"/>
       <use transform="translate(242.822266 0.684375)" xlink:href="#DejaVuSans-d7"/>
       <use transform="translate(326.611328 0.684375)" xlink:href="#DejaVuSans-31"/>
       <use transform="translate(390.234375 0.684375)" xlink:href="#DejaVuSans-30"/>
       <use transform="translate(454.814453 38.965625)scale(0.7)" xlink:href="#DejaVuSans-35"/>
      </g>
     </g>
    </g>
    <g id="ytick_2">
     <g id="line2d_8">
      <g>
       <use style="stroke:#000000;stroke-width:0.5;" x="66.051544" xlink:href="#m8a44726efb" y="168.275456"/>
      </g>
     </g>
     <g id="text_8">
      <!-- $-3.0×10^{5}$ -->
      <g transform="translate(22.311544 171.314831)scale(0.08 -0.08)">
       <defs>
        <path d="M 2597 2516 
Q 3050 2419 3304 2112 
Q 3559 1806 3559 1356 
Q 3559 666 3084 287 
Q 2609 -91 1734 -91 
Q 1441 -91 1130 -33 
Q 819 25 488 141 
L 488 750 
Q 750 597 1062 519 
Q 1375 441 1716 441 
Q 2309 441 2620 675 
Q 2931 909 2931 1356 
Q 2931 1769 2642 2001 
Q 2353 2234 1838 2234 
L 1294 2234 
L 1294 2753 
L 1863 2753 
Q 2328 2753 2575 2939 
Q 2822 3125 2822 3475 
Q 2822 3834 2567 4026 
Q 2313 4219 1838 4219 
Q 1578 4219 1281 4162 
Q 984 4106 628 3988 
L 628 4550 
Q 988 4650 1302 4700 
Q 1616 4750 1894 4750 
Q 2613 4750 3031 4423 
Q 3450 4097 3450 3541 
Q 3450 3153 3228 2886 
Q 3006 2619 2597 2516 
z
" id="DejaVuSans-33" transform="scale(0.015625)"/>
       </defs>
       <use transform="translate(0 0.684375)" xlink:href="#DejaVuSans-2212"/>
       <use transform="translate(83.789062 0.684375)" xlink:href="#DejaVuSans-33"/>
       <use transform="translate(147.412109 0.684375)" xlink:href="#DejaVuSans-2e"/>
       <use transform="translate(179.199219 0.684375)" xlink:href="#DejaVuSans-30"/>
       <use transform="translate(242.822266 0.684375)" xlink:href="#DejaVuSans-d7"/>
       <use transform="translate(326.611328 0.684375)" xlink:href="#DejaVuSans-31"/>
       <use transform="translate(390.234375 0.684375)" xlink:href="#DejaVuSans-30"/>
       <use transform="translate(454.814453 38.965625)scale(0.7)" xlink:href="#DejaVuSans-35"/>
      </g>
     </g>
    </g>
    <g id="ytick_3">
     <g id="line2d_9">
      <g>
       <use style="stroke:#000000;stroke-width:0.5;" x="66.051544" xlink:href="#m8a44726efb" y="121.522442"/>
      </g>
     </g>
     <g id="text_9">
      <!-- $0$ -->
      <g transform="translate(57.431544 124.561817)scale(0.08 -0.08)">
       <use transform="translate(0 0.78125)" xlink:href="#DejaVuSans-30"/>
      </g>
     </g>
    </g>
    <g id="ytick_4">
     <g id="line2d_10">
      <g>
       <use style="stroke:#000000;stroke-width:0.5;" x="66.051544" xlink:href="#m8a44726efb" y="74.769428"/>
      </g>
     </g>
     <g id="text_10">
      <!-- $3.0×10^{5}$ -->
      <g transform="translate(29.031544 77.808803)scale(0.08 -0.08)">
       <use transform="translate(0 0.684375)" xlink:href="#DejaVuSans-33"/>
       <use transform="translate(63.623047 0.684375)" xlink:href="#DejaVuSans-2e"/>
       <use transform="translate(95.410156 0.684375)" xlink:href="#DejaVuSans-30"/>
       <use transform="translate(159.033203 0.684375)" xlink:href="#DejaVuSans-d7"/>
       <use transform="translate(242.822266 0.684375)" xlink:href="#DejaVuSans-31"/>
       <use transform="translate(306.445312 0.684375)" xlink:href="#DejaVuSans-30"/>
       <use transform="translate(371.025391 38.965625)scale(0.7)" xlink:href="#DejaVuSans-35"/>
      </g>
     </g>
    </g>
    <g id="ytick_5">
     <g id="line2d_11">
      <g>
       <use style="stroke:#000000;stroke-width:0.5;" x="66.051544" xlink:href="#m8a44726efb" y="28.016413"/>
      </g>
     </g>
     <g id="text_11">
      <!-- $6.0×10^{5}$ -->
      <g transform="translate(29.031544 31.055788)scale(0.08 -0.08)">
       <use transform="translate(0 0.684375)" xlink:href="#DejaVuSans-36"/>
       <use transform="translate(63.623047 0.684375)" xlink:href="#DejaVuSans-2e"/>
       <use transform="translate(95.410156 0.684375)" xlink:href="#DejaVuSans-30"/>
       <use transform="translate(159.033203 0.684375)" xlink:href="#DejaVuSans-d7"/>
       <use transform="translate(242.822266 0.684375)" xlink:href="#DejaVuSans-31"/>
       <use transform="translate(306.445312 0.684375)" xlink:href="#DejaVuSans-30"/>
       <use transform="translate(371.025391 38.965625)scale(0.7)" xlink:href="#DejaVuSans-35"/>
      </g>
     </g>
    </g>
    <g id="text_12">
     <!-- $F_y$ ($N$) -->
     <g transform="translate(14.901544 146.315)rotate(-90)scale(0.11 -0.11)">
      <defs>
       <path d="M 1081 4666 
L 3756 4666 
L 3653 4134 
L 1606 4134 
L 1338 2759 
L 3188 2759 
L 3084 2228 
L 1234 2228 
L 800 0 
L 172 0 
L 1081 4666 
z
" id="DejaVuSans-Oblique-46" transform="scale(0.015625)"/>
       <path d="M 1588 -325 
Q 1188 -997 936 -1164 
Q 684 -1331 294 -1331 
L -159 -1331 
L -63 -850 
L 269 -850 
Q 509 -850 678 -719 
Q 847 -588 1056 -206 
L 1234 128 
L 459 3500 
L 1069 3500 
L 1650 819 
L 3256 3500 
L 3859 3500 
L 1588 -325 
z
" id="DejaVuSans-Oblique-79" transform="scale(0.015625)"/>
       <path d="M 1081 4666 
L 1931 4666 
L 3219 666 
L 4000 4666 
L 4616 4666 
L 3706 0 
L 2853 0 
L 1569 4025 
L 788 0 
L 172 0 
L 1081 4666 
z
" id="DejaVuSans-Oblique-4e" transform="scale(0.015625)"/>
      </defs>
      <use transform="translate(0 0.125)" xlink:href="#DejaVuSans-Oblique-46"/>
      <use transform="translate(57.519531 -16.28125)scale(0.7)" xlink:href="#DejaVuSans-Oblique-79"/>
      <use transform="translate(101.679688 0.125)" xlink:href="#DejaVuSans-20"/>
      <use transform="translate(133.466797 0.125)" xlink:href="#DejaVuSans-28"/>
      <use transform="translate(172.480469 0.125)" xlink:href="#DejaVuSans-Oblique-4e"/>
      <use transform="translate(247.285156 0.125)" xlink:href="#DejaVuSans-29"/>
     </g>
    </g>
   </g>
   <g id="patch_3">
    <path d="M 66.051544 258.225354 
L 66.051544 2.834646 
" style="fill:none;stroke:#000000;stroke-linecap:square;stroke-linejoin:miter;"/>
   </g>
   <g id="patch_4">
    <path d="M 66.051544 258.225354 
L 422.361999 258.225354 
" style="fill:none;stroke:#000000;stroke-linecap:square;stroke-linejoin:miter;"/>
   </g>
  </g>
 </g>
 <defs>
  <clipPath id="p603577b929">
   <rect height="255.390709" width="356.310455" x="66.051544" y="2.834646"/>
  </clipPath>
 </defs>
</svg>
