<?xml version="1.0" encoding="utf-8" standalone="no"?>
<!DOCTYPE svg PUBLIC "-//W3C//DTD SVG 1.1//EN"
  "http://www.w3.org/Graphics/SVG/1.1/DTD/svg11.dtd">
<svg height="288pt" version="1.1" viewBox="0 0 432 288" width="432pt" xmlns="http://www.w3.org/2000/svg" xmlns:xlink="http://www.w3.org/1999/xlink">
 <metadata>
  <rdf:RDF xmlns:cc="http://creativecommons.org/ns#" xmlns:dc="http://purl.org/dc/elements/1.1/" xmlns:rdf="http://www.w3.org/1999/02/22-rdf-syntax-ns#">
   <cc:Work>
    <dc:type rdf:resource="http://purl.org/dc/dcmitype/StillImage"/>
    <dc:date>2021-09-29T22:45:30.788969</dc:date>
    <dc:format>image/svg+xml</dc:format>
    <dc:creator>
     <cc:Agent>
      <dc:title>Matplotlib v3.4.2, https://matplotlib.org/</dc:title>
     </cc:Agent>
    </dc:creator>
   </cc:Work>
  </rdf:RDF>
 </metadata>
 <defs>
  <style type="text/css">*{stroke-linecap:butt;stroke-linejoin:round;}</style>
 </defs>
 <g id="figure_1">
  <g id="patch_1">
   <path d="M 0 288 
L 432 288 
L 432 0 
L 0 0 
z
" style="fill:#ffffff;"/>
  </g>
  <g id="axes_1">
   <g id="patch_2">
    <path d="M 32.19834 258.225354 
L 426.240354 258.225354 
L 426.240354 6.434646 
L 32.19834 6.434646 
z
" style="fill:#ffffff;"/>
   </g>
   <g id="line2d_1">
    <path clip-path="url(#pa5f5f2d813)" d="M 32.19834 258.225354 
L 253.035328 6.434646 
L 253.035328 6.434646 
" style="fill:none;stroke:#009afa;"/>
   </g>
   <g id="matplotlib.axis_1">
    <g id="xtick_1">
     <g id="line2d_2">
      <defs>
       <path d="M 0 0 
L 0 -2.5 
" id="mffcae14c74" style="stroke:#000000;stroke-width:0.5;"/>
      </defs>
      <g>
       <use style="stroke:#000000;stroke-width:0.5;" x="32.19834" xlink:href="#mffcae14c74" y="258.225354"/>
      </g>
     </g>
     <g id="text_1">
      <!-- $0$ -->
      <g transform="translate(29.63834 267.804104)scale(0.08 -0.08)">
       <defs>
        <path d="M 2034 4250 
Q 1547 4250 1301 3770 
Q 1056 3291 1056 2328 
Q 1056 1369 1301 889 
Q 1547 409 2034 409 
Q 2525 409 2770 889 
Q 3016 1369 3016 2328 
Q 3016 3291 2770 3770 
Q 2525 4250 2034 4250 
z
M 2034 4750 
Q 2819 4750 3233 4129 
Q 3647 3509 3647 2328 
Q 3647 1150 3233 529 
Q 2819 -91 2034 -91 
Q 1250 -91 836 529 
Q 422 1150 422 2328 
Q 422 3509 836 4129 
Q 1250 4750 2034 4750 
z
" id="DejaVuSans-30" transform="scale(0.015625)"/>
       </defs>
       <use transform="translate(0 0.78125)" xlink:href="#DejaVuSans-30"/>
      </g>
     </g>
    </g>
    <g id="xtick_2">
     <g id="line2d_3">
      <g>
       <use style="stroke:#000000;stroke-width:0.5;" x="88.490056" xlink:href="#mffcae14c74" y="258.225354"/>
      </g>
     </g>
     <g id="text_2">
      <!-- $1$ -->
      <g transform="translate(85.930056 267.804104)scale(0.08 -0.08)">
       <defs>
        <path d="M 794 531 
L 1825 531 
L 1825 4091 
L 703 3866 
L 703 4441 
L 1819 4666 
L 2450 4666 
L 2450 531 
L 3481 531 
L 3481 0 
L 794 0 
L 794 531 
z
" id="DejaVuSans-31" transform="scale(0.015625)"/>
       </defs>
       <use transform="translate(0 0.09375)" xlink:href="#DejaVuSans-31"/>
      </g>
     </g>
    </g>
    <g id="xtick_3">
     <g id="line2d_4">
      <g>
       <use style="stroke:#000000;stroke-width:0.5;" x="144.781772" xlink:href="#mffcae14c74" y="258.225354"/>
      </g>
     </g>
     <g id="text_3">
      <!-- $2$ -->
      <g transform="translate(142.221772 267.804104)scale(0.08 -0.08)">
       <defs>
        <path d="M 1228 531 
L 3431 531 
L 3431 0 
L 469 0 
L 469 531 
Q 828 903 1448 1529 
Q 2069 2156 2228 2338 
Q 2531 2678 2651 2914 
Q 2772 3150 2772 3378 
Q 2772 3750 2511 3984 
Q 2250 4219 1831 4219 
Q 1534 4219 1204 4116 
Q 875 4013 500 3803 
L 500 4441 
Q 881 4594 1212 4672 
Q 1544 4750 1819 4750 
Q 2544 4750 2975 4387 
Q 3406 4025 3406 3419 
Q 3406 3131 3298 2873 
Q 3191 2616 2906 2266 
Q 2828 2175 2409 1742 
Q 1991 1309 1228 531 
z
" id="DejaVuSans-32" transform="scale(0.015625)"/>
       </defs>
       <use transform="translate(0 0.78125)" xlink:href="#DejaVuSans-32"/>
      </g>
     </g>
    </g>
    <g id="xtick_4">
     <g id="line2d_5">
      <g>
       <use style="stroke:#000000;stroke-width:0.5;" x="201.073489" xlink:href="#mffcae14c74" y="258.225354"/>
      </g>
     </g>
     <g id="text_4">
      <!-- $3$ -->
      <g transform="translate(198.513489 267.804104)scale(0.08 -0.08)">
       <defs>
        <path d="M 2597 2516 
Q 3050 2419 3304 2112 
Q 3559 1806 3559 1356 
Q 3559 666 3084 287 
Q 2609 -91 1734 -91 
Q 1441 -91 1130 -33 
Q 819 25 488 141 
L 488 750 
Q 750 597 1062 519 
Q 1375 441 1716 441 
Q 2309 441 2620 675 
Q 2931 909 2931 1356 
Q 2931 1769 2642 2001 
Q 2353 2234 1838 2234 
L 1294 2234 
L 1294 2753 
L 1863 2753 
Q 2328 2753 2575 2939 
Q 2822 3125 2822 3475 
Q 2822 3834 2567 4026 
Q 2313 4219 1838 4219 
Q 1578 4219 1281 4162 
Q 984 4106 628 3988 
L 628 4550 
Q 988 4650 1302 4700 
Q 1616 4750 1894 4750 
Q 2613 4750 3031 4423 
Q 3450 4097 3450 3541 
Q 3450 3153 3228 2886 
Q 3006 2619 2597 2516 
z
" id="DejaVuSans-33" transform="scale(0.015625)"/>
       </defs>
       <use transform="translate(0 0.78125)" xlink:href="#DejaVuSans-33"/>
      </g>
     </g>
    </g>
    <g id="xtick_5">
     <g id="line2d_6">
      <g>
       <use style="stroke:#000000;stroke-width:0.5;" x="257.365205" xlink:href="#mffcae14c74" y="258.225354"/>
      </g>
     </g>
     <g id="text_5">
      <!-- $4$ -->
      <g transform="translate(254.805205 267.804104)scale(0.08 -0.08)">
       <defs>
        <path d="M 2419 4116 
L 825 1625 
L 2419 1625 
L 2419 4116 
z
M 2253 4666 
L 3047 4666 
L 3047 1625 
L 3713 1625 
L 3713 1100 
L 3047 1100 
L 3047 0 
L 2419 0 
L 2419 1100 
L 313 1100 
L 313 1709 
L 2253 4666 
z
" id="DejaVuSans-34" transform="scale(0.015625)"/>
       </defs>
       <use transform="translate(0 0.09375)" xlink:href="#DejaVuSans-34"/>
      </g>
     </g>
    </g>
    <g id="xtick_6">
     <g id="line2d_7">
      <g>
       <use style="stroke:#000000;stroke-width:0.5;" x="313.656922" xlink:href="#mffcae14c74" y="258.225354"/>
      </g>
     </g>
     <g id="text_6">
      <!-- $5$ -->
      <g transform="translate(311.096922 267.804104)scale(0.08 -0.08)">
       <defs>
        <path d="M 691 4666 
L 3169 4666 
L 3169 4134 
L 1269 4134 
L 1269 2991 
Q 1406 3038 1543 3061 
Q 1681 3084 1819 3084 
Q 2600 3084 3056 2656 
Q 3513 2228 3513 1497 
Q 3513 744 3044 326 
Q 2575 -91 1722 -91 
Q 1428 -91 1123 -41 
Q 819 9 494 109 
L 494 744 
Q 775 591 1075 516 
Q 1375 441 1709 441 
Q 2250 441 2565 725 
Q 2881 1009 2881 1497 
Q 2881 1984 2565 2268 
Q 2250 2553 1709 2553 
Q 1456 2553 1204 2497 
Q 953 2441 691 2322 
L 691 4666 
z
" id="DejaVuSans-35" transform="scale(0.015625)"/>
       </defs>
       <use transform="translate(0 0.09375)" xlink:href="#DejaVuSans-35"/>
      </g>
     </g>
    </g>
    <g id="xtick_7">
     <g id="line2d_8">
      <g>
       <use style="stroke:#000000;stroke-width:0.5;" x="369.948638" xlink:href="#mffcae14c74" y="258.225354"/>
      </g>
     </g>
     <g id="text_7">
      <!-- $6$ -->
      <g transform="translate(367.388638 267.804104)scale(0.08 -0.08)">
       <defs>
        <path d="M 2113 2584 
Q 1688 2584 1439 2293 
Q 1191 2003 1191 1497 
Q 1191 994 1439 701 
Q 1688 409 2113 409 
Q 2538 409 2786 701 
Q 3034 994 3034 1497 
Q 3034 2003 2786 2293 
Q 2538 2584 2113 2584 
z
M 3366 4563 
L 3366 3988 
Q 3128 4100 2886 4159 
Q 2644 4219 2406 4219 
Q 1781 4219 1451 3797 
Q 1122 3375 1075 2522 
Q 1259 2794 1537 2939 
Q 1816 3084 2150 3084 
Q 2853 3084 3261 2657 
Q 3669 2231 3669 1497 
Q 3669 778 3244 343 
Q 2819 -91 2113 -91 
Q 1303 -91 875 529 
Q 447 1150 447 2328 
Q 447 3434 972 4092 
Q 1497 4750 2381 4750 
Q 2619 4750 2861 4703 
Q 3103 4656 3366 4563 
z
" id="DejaVuSans-36" transform="scale(0.015625)"/>
       </defs>
       <use transform="translate(0 0.78125)" xlink:href="#DejaVuSans-36"/>
      </g>
     </g>
    </g>
    <g id="xtick_8">
     <g id="line2d_9">
      <g>
       <use style="stroke:#000000;stroke-width:0.5;" x="426.240354" xlink:href="#mffcae14c74" y="258.225354"/>
      </g>
     </g>
     <g id="text_8">
      <!-- $7$ -->
      <g transform="translate(423.680354 267.804104)scale(0.08 -0.08)">
       <defs>
        <path d="M 525 4666 
L 3525 4666 
L 3525 4397 
L 1831 0 
L 1172 0 
L 2766 4134 
L 525 4134 
L 525 4666 
z
" id="DejaVuSans-37" transform="scale(0.015625)"/>
       </defs>
       <use transform="translate(0 0.09375)" xlink:href="#DejaVuSans-37"/>
      </g>
     </g>
    </g>
    <g id="text_9">
     <!-- Vertical Displacement at the Joint (m) -->
     <g transform="translate(125.722238 281.826136)scale(0.11 -0.11)">
      <defs>
       <path d="M 1831 0 
L 50 4666 
L 709 4666 
L 2188 738 
L 3669 4666 
L 4325 4666 
L 2547 0 
L 1831 0 
z
" id="DejaVuSans-56" transform="scale(0.015625)"/>
       <path d="M 3597 1894 
L 3597 1613 
L 953 1613 
Q 991 1019 1311 708 
Q 1631 397 2203 397 
Q 2534 397 2845 478 
Q 3156 559 3463 722 
L 3463 178 
Q 3153 47 2828 -22 
Q 2503 -91 2169 -91 
Q 1331 -91 842 396 
Q 353 884 353 1716 
Q 353 2575 817 3079 
Q 1281 3584 2069 3584 
Q 2775 3584 3186 3129 
Q 3597 2675 3597 1894 
z
M 3022 2063 
Q 3016 2534 2758 2815 
Q 2500 3097 2075 3097 
Q 1594 3097 1305 2825 
Q 1016 2553 972 2059 
L 3022 2063 
z
" id="DejaVuSans-65" transform="scale(0.015625)"/>
       <path d="M 2631 2963 
Q 2534 3019 2420 3045 
Q 2306 3072 2169 3072 
Q 1681 3072 1420 2755 
Q 1159 2438 1159 1844 
L 1159 0 
L 581 0 
L 581 3500 
L 1159 3500 
L 1159 2956 
Q 1341 3275 1631 3429 
Q 1922 3584 2338 3584 
Q 2397 3584 2469 3576 
Q 2541 3569 2628 3553 
L 2631 2963 
z
" id="DejaVuSans-72" transform="scale(0.015625)"/>
       <path d="M 1172 4494 
L 1172 3500 
L 2356 3500 
L 2356 3053 
L 1172 3053 
L 1172 1153 
Q 1172 725 1289 603 
Q 1406 481 1766 481 
L 2356 481 
L 2356 0 
L 1766 0 
Q 1100 0 847 248 
Q 594 497 594 1153 
L 594 3053 
L 172 3053 
L 172 3500 
L 594 3500 
L 594 4494 
L 1172 4494 
z
" id="DejaVuSans-74" transform="scale(0.015625)"/>
       <path d="M 603 3500 
L 1178 3500 
L 1178 0 
L 603 0 
L 603 3500 
z
M 603 4863 
L 1178 4863 
L 1178 4134 
L 603 4134 
L 603 4863 
z
" id="DejaVuSans-69" transform="scale(0.015625)"/>
       <path d="M 3122 3366 
L 3122 2828 
Q 2878 2963 2633 3030 
Q 2388 3097 2138 3097 
Q 1578 3097 1268 2742 
Q 959 2388 959 1747 
Q 959 1106 1268 751 
Q 1578 397 2138 397 
Q 2388 397 2633 464 
Q 2878 531 3122 666 
L 3122 134 
Q 2881 22 2623 -34 
Q 2366 -91 2075 -91 
Q 1284 -91 818 406 
Q 353 903 353 1747 
Q 353 2603 823 3093 
Q 1294 3584 2113 3584 
Q 2378 3584 2631 3529 
Q 2884 3475 3122 3366 
z
" id="DejaVuSans-63" transform="scale(0.015625)"/>
       <path d="M 2194 1759 
Q 1497 1759 1228 1600 
Q 959 1441 959 1056 
Q 959 750 1161 570 
Q 1363 391 1709 391 
Q 2188 391 2477 730 
Q 2766 1069 2766 1631 
L 2766 1759 
L 2194 1759 
z
M 3341 1997 
L 3341 0 
L 2766 0 
L 2766 531 
Q 2569 213 2275 61 
Q 1981 -91 1556 -91 
Q 1019 -91 701 211 
Q 384 513 384 1019 
Q 384 1609 779 1909 
Q 1175 2209 1959 2209 
L 2766 2209 
L 2766 2266 
Q 2766 2663 2505 2880 
Q 2244 3097 1772 3097 
Q 1472 3097 1187 3025 
Q 903 2953 641 2809 
L 641 3341 
Q 956 3463 1253 3523 
Q 1550 3584 1831 3584 
Q 2591 3584 2966 3190 
Q 3341 2797 3341 1997 
z
" id="DejaVuSans-61" transform="scale(0.015625)"/>
       <path d="M 603 4863 
L 1178 4863 
L 1178 0 
L 603 0 
L 603 4863 
z
" id="DejaVuSans-6c" transform="scale(0.015625)"/>
       <path id="DejaVuSans-20" transform="scale(0.015625)"/>
       <path d="M 1259 4147 
L 1259 519 
L 2022 519 
Q 2988 519 3436 956 
Q 3884 1394 3884 2338 
Q 3884 3275 3436 3711 
Q 2988 4147 2022 4147 
L 1259 4147 
z
M 628 4666 
L 1925 4666 
Q 3281 4666 3915 4102 
Q 4550 3538 4550 2338 
Q 4550 1131 3912 565 
Q 3275 0 1925 0 
L 628 0 
L 628 4666 
z
" id="DejaVuSans-44" transform="scale(0.015625)"/>
       <path d="M 2834 3397 
L 2834 2853 
Q 2591 2978 2328 3040 
Q 2066 3103 1784 3103 
Q 1356 3103 1142 2972 
Q 928 2841 928 2578 
Q 928 2378 1081 2264 
Q 1234 2150 1697 2047 
L 1894 2003 
Q 2506 1872 2764 1633 
Q 3022 1394 3022 966 
Q 3022 478 2636 193 
Q 2250 -91 1575 -91 
Q 1294 -91 989 -36 
Q 684 19 347 128 
L 347 722 
Q 666 556 975 473 
Q 1284 391 1588 391 
Q 1994 391 2212 530 
Q 2431 669 2431 922 
Q 2431 1156 2273 1281 
Q 2116 1406 1581 1522 
L 1381 1569 
Q 847 1681 609 1914 
Q 372 2147 372 2553 
Q 372 3047 722 3315 
Q 1072 3584 1716 3584 
Q 2034 3584 2315 3537 
Q 2597 3491 2834 3397 
z
" id="DejaVuSans-73" transform="scale(0.015625)"/>
       <path d="M 1159 525 
L 1159 -1331 
L 581 -1331 
L 581 3500 
L 1159 3500 
L 1159 2969 
Q 1341 3281 1617 3432 
Q 1894 3584 2278 3584 
Q 2916 3584 3314 3078 
Q 3713 2572 3713 1747 
Q 3713 922 3314 415 
Q 2916 -91 2278 -91 
Q 1894 -91 1617 61 
Q 1341 213 1159 525 
z
M 3116 1747 
Q 3116 2381 2855 2742 
Q 2594 3103 2138 3103 
Q 1681 3103 1420 2742 
Q 1159 2381 1159 1747 
Q 1159 1113 1420 752 
Q 1681 391 2138 391 
Q 2594 391 2855 752 
Q 3116 1113 3116 1747 
z
" id="DejaVuSans-70" transform="scale(0.015625)"/>
       <path d="M 3328 2828 
Q 3544 3216 3844 3400 
Q 4144 3584 4550 3584 
Q 5097 3584 5394 3201 
Q 5691 2819 5691 2113 
L 5691 0 
L 5113 0 
L 5113 2094 
Q 5113 2597 4934 2840 
Q 4756 3084 4391 3084 
Q 3944 3084 3684 2787 
Q 3425 2491 3425 1978 
L 3425 0 
L 2847 0 
L 2847 2094 
Q 2847 2600 2669 2842 
Q 2491 3084 2119 3084 
Q 1678 3084 1418 2786 
Q 1159 2488 1159 1978 
L 1159 0 
L 581 0 
L 581 3500 
L 1159 3500 
L 1159 2956 
Q 1356 3278 1631 3431 
Q 1906 3584 2284 3584 
Q 2666 3584 2933 3390 
Q 3200 3197 3328 2828 
z
" id="DejaVuSans-6d" transform="scale(0.015625)"/>
       <path d="M 3513 2113 
L 3513 0 
L 2938 0 
L 2938 2094 
Q 2938 2591 2744 2837 
Q 2550 3084 2163 3084 
Q 1697 3084 1428 2787 
Q 1159 2491 1159 1978 
L 1159 0 
L 581 0 
L 581 3500 
L 1159 3500 
L 1159 2956 
Q 1366 3272 1645 3428 
Q 1925 3584 2291 3584 
Q 2894 3584 3203 3211 
Q 3513 2838 3513 2113 
z
" id="DejaVuSans-6e" transform="scale(0.015625)"/>
       <path d="M 3513 2113 
L 3513 0 
L 2938 0 
L 2938 2094 
Q 2938 2591 2744 2837 
Q 2550 3084 2163 3084 
Q 1697 3084 1428 2787 
Q 1159 2491 1159 1978 
L 1159 0 
L 581 0 
L 581 4863 
L 1159 4863 
L 1159 2956 
Q 1366 3272 1645 3428 
Q 1925 3584 2291 3584 
Q 2894 3584 3203 3211 
Q 3513 2838 3513 2113 
z
" id="DejaVuSans-68" transform="scale(0.015625)"/>
       <path d="M 628 4666 
L 1259 4666 
L 1259 325 
Q 1259 -519 939 -900 
Q 619 -1281 -91 -1281 
L -331 -1281 
L -331 -750 
L -134 -750 
Q 284 -750 456 -515 
Q 628 -281 628 325 
L 628 4666 
z
" id="DejaVuSans-4a" transform="scale(0.015625)"/>
       <path d="M 1959 3097 
Q 1497 3097 1228 2736 
Q 959 2375 959 1747 
Q 959 1119 1226 758 
Q 1494 397 1959 397 
Q 2419 397 2687 759 
Q 2956 1122 2956 1747 
Q 2956 2369 2687 2733 
Q 2419 3097 1959 3097 
z
M 1959 3584 
Q 2709 3584 3137 3096 
Q 3566 2609 3566 1747 
Q 3566 888 3137 398 
Q 2709 -91 1959 -91 
Q 1206 -91 779 398 
Q 353 888 353 1747 
Q 353 2609 779 3096 
Q 1206 3584 1959 3584 
z
" id="DejaVuSans-6f" transform="scale(0.015625)"/>
       <path d="M 1984 4856 
Q 1566 4138 1362 3434 
Q 1159 2731 1159 2009 
Q 1159 1288 1364 580 
Q 1569 -128 1984 -844 
L 1484 -844 
Q 1016 -109 783 600 
Q 550 1309 550 2009 
Q 550 2706 781 3412 
Q 1013 4119 1484 4856 
L 1984 4856 
z
" id="DejaVuSans-28" transform="scale(0.015625)"/>
       <path d="M 513 4856 
L 1013 4856 
Q 1481 4119 1714 3412 
Q 1947 2706 1947 2009 
Q 1947 1309 1714 600 
Q 1481 -109 1013 -844 
L 513 -844 
Q 928 -128 1133 580 
Q 1338 1288 1338 2009 
Q 1338 2731 1133 3434 
Q 928 4138 513 4856 
z
" id="DejaVuSans-29" transform="scale(0.015625)"/>
      </defs>
      <use xlink:href="#DejaVuSans-56"/>
      <use x="60.658203" xlink:href="#DejaVuSans-65"/>
      <use x="122.181641" xlink:href="#DejaVuSans-72"/>
      <use x="163.294922" xlink:href="#DejaVuSans-74"/>
      <use x="202.503906" xlink:href="#DejaVuSans-69"/>
      <use x="230.287109" xlink:href="#DejaVuSans-63"/>
      <use x="285.267578" xlink:href="#DejaVuSans-61"/>
      <use x="346.546875" xlink:href="#DejaVuSans-6c"/>
      <use x="374.330078" xlink:href="#DejaVuSans-20"/>
      <use x="406.117188" xlink:href="#DejaVuSans-44"/>
      <use x="483.119141" xlink:href="#DejaVuSans-69"/>
      <use x="510.902344" xlink:href="#DejaVuSans-73"/>
      <use x="563.001953" xlink:href="#DejaVuSans-70"/>
      <use x="626.478516" xlink:href="#DejaVuSans-6c"/>
      <use x="654.261719" xlink:href="#DejaVuSans-61"/>
      <use x="715.541016" xlink:href="#DejaVuSans-63"/>
      <use x="770.521484" xlink:href="#DejaVuSans-65"/>
      <use x="832.044922" xlink:href="#DejaVuSans-6d"/>
      <use x="929.457031" xlink:href="#DejaVuSans-65"/>
      <use x="990.980469" xlink:href="#DejaVuSans-6e"/>
      <use x="1054.359375" xlink:href="#DejaVuSans-74"/>
      <use x="1093.568359" xlink:href="#DejaVuSans-20"/>
      <use x="1125.355469" xlink:href="#DejaVuSans-61"/>
      <use x="1186.634766" xlink:href="#DejaVuSans-74"/>
      <use x="1225.84375" xlink:href="#DejaVuSans-20"/>
      <use x="1257.630859" xlink:href="#DejaVuSans-74"/>
      <use x="1296.839844" xlink:href="#DejaVuSans-68"/>
      <use x="1360.21875" xlink:href="#DejaVuSans-65"/>
      <use x="1421.742188" xlink:href="#DejaVuSans-20"/>
      <use x="1453.529297" xlink:href="#DejaVuSans-4a"/>
      <use x="1483.021484" xlink:href="#DejaVuSans-6f"/>
      <use x="1544.203125" xlink:href="#DejaVuSans-69"/>
      <use x="1571.986328" xlink:href="#DejaVuSans-6e"/>
      <use x="1635.365234" xlink:href="#DejaVuSans-74"/>
      <use x="1674.574219" xlink:href="#DejaVuSans-20"/>
      <use x="1706.361328" xlink:href="#DejaVuSans-28"/>
      <use x="1745.375" xlink:href="#DejaVuSans-6d"/>
      <use x="1842.787109" xlink:href="#DejaVuSans-29"/>
     </g>
    </g>
   </g>
   <g id="matplotlib.axis_2">
    <g id="ytick_1">
     <g id="line2d_10">
      <defs>
       <path d="M 0 0 
L 2.5 0 
" id="m039bfad3ff" style="stroke:#000000;stroke-width:0.5;"/>
      </defs>
      <g>
       <use style="stroke:#000000;stroke-width:0.5;" x="32.19834" xlink:href="#m039bfad3ff" y="258.225354"/>
      </g>
     </g>
     <g id="text_10">
      <!-- $0$ -->
      <g transform="translate(23.57834 261.264729)scale(0.08 -0.08)">
       <use transform="translate(0 0.78125)" xlink:href="#DejaVuSans-30"/>
      </g>
     </g>
    </g>
    <g id="ytick_2">
     <g id="line2d_11">
      <g>
       <use style="stroke:#000000;stroke-width:0.5;" x="32.19834" xlink:href="#m039bfad3ff" y="222.255253"/>
      </g>
     </g>
     <g id="text_11">
      <!-- $10$ -->
      <g transform="translate(18.45834 225.294628)scale(0.08 -0.08)">
       <use transform="translate(0 0.78125)" xlink:href="#DejaVuSans-31"/>
       <use transform="translate(63.623047 0.78125)" xlink:href="#DejaVuSans-30"/>
      </g>
     </g>
    </g>
    <g id="ytick_3">
     <g id="line2d_12">
      <g>
       <use style="stroke:#000000;stroke-width:0.5;" x="32.19834" xlink:href="#m039bfad3ff" y="186.285152"/>
      </g>
     </g>
     <g id="text_12">
      <!-- $20$ -->
      <g transform="translate(18.45834 189.324527)scale(0.08 -0.08)">
       <use transform="translate(0 0.78125)" xlink:href="#DejaVuSans-32"/>
       <use transform="translate(63.623047 0.78125)" xlink:href="#DejaVuSans-30"/>
      </g>
     </g>
    </g>
    <g id="ytick_4">
     <g id="line2d_13">
      <g>
       <use style="stroke:#000000;stroke-width:0.5;" x="32.19834" xlink:href="#m039bfad3ff" y="150.315051"/>
      </g>
     </g>
     <g id="text_13">
      <!-- $30$ -->
      <g transform="translate(18.45834 153.354426)scale(0.08 -0.08)">
       <use transform="translate(0 0.78125)" xlink:href="#DejaVuSans-33"/>
       <use transform="translate(63.623047 0.78125)" xlink:href="#DejaVuSans-30"/>
      </g>
     </g>
    </g>
    <g id="ytick_5">
     <g id="line2d_14">
      <g>
       <use style="stroke:#000000;stroke-width:0.5;" x="32.19834" xlink:href="#m039bfad3ff" y="114.344949"/>
      </g>
     </g>
     <g id="text_14">
      <!-- $40$ -->
      <g transform="translate(18.45834 117.384324)scale(0.08 -0.08)">
       <use transform="translate(0 0.78125)" xlink:href="#DejaVuSans-34"/>
       <use transform="translate(63.623047 0.78125)" xlink:href="#DejaVuSans-30"/>
      </g>
     </g>
    </g>
    <g id="ytick_6">
     <g id="line2d_15">
      <g>
       <use style="stroke:#000000;stroke-width:0.5;" x="32.19834" xlink:href="#m039bfad3ff" y="78.374848"/>
      </g>
     </g>
     <g id="text_15">
      <!-- $50$ -->
      <g transform="translate(18.45834 81.414223)scale(0.08 -0.08)">
       <use transform="translate(0 0.78125)" xlink:href="#DejaVuSans-35"/>
       <use transform="translate(63.623047 0.78125)" xlink:href="#DejaVuSans-30"/>
      </g>
     </g>
    </g>
    <g id="ytick_7">
     <g id="line2d_16">
      <g>
       <use style="stroke:#000000;stroke-width:0.5;" x="32.19834" xlink:href="#m039bfad3ff" y="42.404747"/>
      </g>
     </g>
     <g id="text_16">
      <!-- $60$ -->
      <g transform="translate(18.45834 45.444122)scale(0.08 -0.08)">
       <use transform="translate(0 0.78125)" xlink:href="#DejaVuSans-36"/>
       <use transform="translate(63.623047 0.78125)" xlink:href="#DejaVuSans-30"/>
      </g>
     </g>
    </g>
    <g id="ytick_8">
     <g id="line2d_17">
      <g>
       <use style="stroke:#000000;stroke-width:0.5;" x="32.19834" xlink:href="#m039bfad3ff" y="6.434646"/>
      </g>
     </g>
     <g id="text_17">
      <!-- $70$ -->
      <g transform="translate(18.45834 9.474021)scale(0.08 -0.08)">
       <use transform="translate(0 0.78125)" xlink:href="#DejaVuSans-37"/>
       <use transform="translate(63.623047 0.78125)" xlink:href="#DejaVuSans-30"/>
      </g>
     </g>
    </g>
    <g id="text_18">
     <!-- Load (kN) -->
     <g transform="translate(12.170683 158.864922)rotate(-90)scale(0.11 -0.11)">
      <defs>
       <path d="M 628 4666 
L 1259 4666 
L 1259 531 
L 3531 531 
L 3531 0 
L 628 0 
L 628 4666 
z
" id="DejaVuSans-4c" transform="scale(0.015625)"/>
       <path d="M 2906 2969 
L 2906 4863 
L 3481 4863 
L 3481 0 
L 2906 0 
L 2906 525 
Q 2725 213 2448 61 
Q 2172 -91 1784 -91 
Q 1150 -91 751 415 
Q 353 922 353 1747 
Q 353 2572 751 3078 
Q 1150 3584 1784 3584 
Q 2172 3584 2448 3432 
Q 2725 3281 2906 2969 
z
M 947 1747 
Q 947 1113 1208 752 
Q 1469 391 1925 391 
Q 2381 391 2643 752 
Q 2906 1113 2906 1747 
Q 2906 2381 2643 2742 
Q 2381 3103 1925 3103 
Q 1469 3103 1208 2742 
Q 947 2381 947 1747 
z
" id="DejaVuSans-64" transform="scale(0.015625)"/>
       <path d="M 581 4863 
L 1159 4863 
L 1159 1991 
L 2875 3500 
L 3609 3500 
L 1753 1863 
L 3688 0 
L 2938 0 
L 1159 1709 
L 1159 0 
L 581 0 
L 581 4863 
z
" id="DejaVuSans-6b" transform="scale(0.015625)"/>
       <path d="M 628 4666 
L 1478 4666 
L 3547 763 
L 3547 4666 
L 4159 4666 
L 4159 0 
L 3309 0 
L 1241 3903 
L 1241 0 
L 628 0 
L 628 4666 
z
" id="DejaVuSans-4e" transform="scale(0.015625)"/>
      </defs>
      <use xlink:href="#DejaVuSans-4c"/>
      <use x="53.962891" xlink:href="#DejaVuSans-6f"/>
      <use x="115.144531" xlink:href="#DejaVuSans-61"/>
      <use x="176.423828" xlink:href="#DejaVuSans-64"/>
      <use x="239.900391" xlink:href="#DejaVuSans-20"/>
      <use x="271.6875" xlink:href="#DejaVuSans-28"/>
      <use x="310.701172" xlink:href="#DejaVuSans-6b"/>
      <use x="368.611328" xlink:href="#DejaVuSans-4e"/>
      <use x="443.416016" xlink:href="#DejaVuSans-29"/>
     </g>
    </g>
   </g>
   <g id="line2d_18">
    <path clip-path="url(#pa5f5f2d813)" d="M 32.19834 258.225354 
L 38.659483 251.031334 
L 40.670593 249.232829 
L 45.462911 247.434324 
L 78.536379 238.441799 
L 104.875494 231.247778 
L 123.886826 225.852263 
L 141.914399 220.456748 
L 153.308364 216.859738 
L 164.18522 213.262728 
L 174.549787 209.665718 
L 184.418023 206.068708 
L 193.812398 202.471697 
L 202.758615 198.874687 
L 211.283432 195.277677 
L 219.413318 191.680667 
L 230.922844 186.285152 
L 241.680051 180.889637 
L 251.756158 175.494121 
L 261.21435 170.098606 
L 270.110491 164.703091 
L 278.493973 159.307576 
L 286.408561 153.912061 
L 293.893146 148.516546 
L 300.982406 143.12103 
L 307.70737 137.725515 
L 314.095896 132.33 
L 320.173076 126.934485 
L 325.961578 121.53897 
L 331.48194 116.143454 
L 336.752814 110.747939 
L 343.421692 103.553919 
L 349.713281 96.359899 
L 355.659754 89.165879 
L 361.289781 81.971858 
L 366.628988 74.777838 
L 371.700347 67.583818 
L 376.524501 60.389798 
L 381.120048 53.195777 
L 386.568434 44.203252 
L 391.715095 35.210727 
L 396.58602 26.218201 
L 401.2043 17.225676 
L 405.590507 8.233151 
L 406.441553 6.434646 
L 406.441553 6.434646 
" style="fill:none;stroke:#e36f47;"/>
   </g>
   <g id="patch_3">
    <path d="M 32.19834 258.225354 
L 32.19834 6.434646 
" style="fill:none;stroke:#000000;stroke-linecap:square;stroke-linejoin:miter;"/>
   </g>
   <g id="patch_4">
    <path d="M 32.19834 258.225354 
L 426.240354 258.225354 
" style="fill:none;stroke:#000000;stroke-linecap:square;stroke-linejoin:miter;"/>
   </g>
   <g id="line2d_19">
    <path clip-path="url(#pa5f5f2d813)" d="M 32.19834 258.225354 
L 37.000016 252.829839 
L 38.683894 251.031334 
L 40.738036 249.232829 
L 45.825101 247.434324 
L 66.713633 242.038809 
L 88.582967 236.643294 
L 162.601719 218.658243 
L 183.314456 213.262728 
L 202.900814 207.867213 
L 221.316684 202.471697 
L 232.947773 198.874687 
L 244.072353 195.277677 
L 254.701463 191.680667 
L 264.846411 188.083657 
L 274.518035 184.486647 
L 283.726386 180.889637 
L 292.480629 177.292627 
L 300.789103 173.695616 
L 308.659448 170.098606 
L 316.098771 166.501596 
L 323.113831 162.904586 
L 329.711221 159.307576 
L 335.897538 155.710566 
L 341.679538 152.113556 
L 347.06426 148.516546 
L 352.059125 144.919535 
L 356.67201 141.322525 
L 360.911281 137.725515 
L 364.785811 134.128505 
L 368.30496 130.531495 
L 371.478545 126.934485 
L 374.316789 123.337475 
L 376.830254 119.740465 
L 379.029774 116.143454 
L 380.926383 112.546444 
L 382.531234 108.949434 
L 383.855534 105.352424 
L 384.910475 101.755414 
L 385.70717 98.158404 
L 386.256602 94.561394 
L 386.569575 90.964384 
L 386.65667 87.367373 
L 386.528213 83.770363 
L 386.194244 80.173353 
L 385.664495 76.576343 
L 384.948373 72.979333 
L 384.05494 69.382323 
L 382.992908 65.785313 
L 381.101909 60.389798 
L 378.876927 54.994282 
L 376.342772 49.598767 
L 373.522424 44.203252 
L 370.437073 38.807737 
L 367.106167 33.412222 
L 363.547483 28.016706 
L 359.777211 22.621191 
L 354.446228 15.427171 
L 348.796034 8.233151 
L 347.336856 6.434646 
L 347.336856 6.434646 
" style="fill:none;stroke:#3ea44e;"/>
   </g>
   <g id="legend_1">
    <g id="patch_5">
     <path d="M 268.926604 54.462146 
L 422.240354 54.462146 
L 422.240354 10.434646 
L 268.926604 10.434646 
z
" style="fill:#ffffff;stroke:#000000;stroke-linejoin:miter;"/>
    </g>
    <g id="line2d_20">
     <path d="M 275.326604 20.113396 
L 291.326604 20.113396 
" style="fill:none;stroke:#009afa;stroke-linejoin:miter;"/>
    </g>
    <g id="line2d_21"/>
    <g id="text_19">
     <!-- Linear -->
     <g transform="translate(297.726604 22.913396)scale(0.08 -0.08)">
      <use xlink:href="#DejaVuSans-4c"/>
      <use x="55.712891" xlink:href="#DejaVuSans-69"/>
      <use x="83.496094" xlink:href="#DejaVuSans-6e"/>
      <use x="146.875" xlink:href="#DejaVuSans-65"/>
      <use x="208.398438" xlink:href="#DejaVuSans-61"/>
      <use x="269.677734" xlink:href="#DejaVuSans-72"/>
     </g>
    </g>
    <g id="line2d_22">
     <path d="M 275.326604 31.855896 
L 291.326604 31.855896 
" style="fill:none;stroke:#e36f47;stroke-linejoin:miter;"/>
    </g>
    <g id="line2d_23"/>
    <g id="text_20">
     <!-- Nonlinear with Dead Force -->
     <g transform="translate(297.726604 34.655896)scale(0.08 -0.08)">
      <defs>
       <path d="M 269 3500 
L 844 3500 
L 1563 769 
L 2278 3500 
L 2956 3500 
L 3675 769 
L 4391 3500 
L 4966 3500 
L 4050 0 
L 3372 0 
L 2619 2869 
L 1863 0 
L 1184 0 
L 269 3500 
z
" id="DejaVuSans-77" transform="scale(0.015625)"/>
       <path d="M 628 4666 
L 3309 4666 
L 3309 4134 
L 1259 4134 
L 1259 2759 
L 3109 2759 
L 3109 2228 
L 1259 2228 
L 1259 0 
L 628 0 
L 628 4666 
z
" id="DejaVuSans-46" transform="scale(0.015625)"/>
      </defs>
      <use xlink:href="#DejaVuSans-4e"/>
      <use x="74.804688" xlink:href="#DejaVuSans-6f"/>
      <use x="135.986328" xlink:href="#DejaVuSans-6e"/>
      <use x="199.365234" xlink:href="#DejaVuSans-6c"/>
      <use x="227.148438" xlink:href="#DejaVuSans-69"/>
      <use x="254.931641" xlink:href="#DejaVuSans-6e"/>
      <use x="318.310547" xlink:href="#DejaVuSans-65"/>
      <use x="379.833984" xlink:href="#DejaVuSans-61"/>
      <use x="441.113281" xlink:href="#DejaVuSans-72"/>
      <use x="482.226562" xlink:href="#DejaVuSans-20"/>
      <use x="514.013672" xlink:href="#DejaVuSans-77"/>
      <use x="595.800781" xlink:href="#DejaVuSans-69"/>
      <use x="623.583984" xlink:href="#DejaVuSans-74"/>
      <use x="662.792969" xlink:href="#DejaVuSans-68"/>
      <use x="726.171875" xlink:href="#DejaVuSans-20"/>
      <use x="757.958984" xlink:href="#DejaVuSans-44"/>
      <use x="834.960938" xlink:href="#DejaVuSans-65"/>
      <use x="896.484375" xlink:href="#DejaVuSans-61"/>
      <use x="957.763672" xlink:href="#DejaVuSans-64"/>
      <use x="1021.240234" xlink:href="#DejaVuSans-20"/>
      <use x="1053.027344" xlink:href="#DejaVuSans-46"/>
      <use x="1106.921875" xlink:href="#DejaVuSans-6f"/>
      <use x="1168.103516" xlink:href="#DejaVuSans-72"/>
      <use x="1206.966797" xlink:href="#DejaVuSans-63"/>
      <use x="1261.947266" xlink:href="#DejaVuSans-65"/>
     </g>
    </g>
    <g id="line2d_24">
     <path d="M 275.326604 43.598396 
L 291.326604 43.598396 
" style="fill:none;stroke:#3ea44e;stroke-linejoin:miter;"/>
    </g>
    <g id="line2d_25"/>
    <g id="text_21">
     <!-- Nonlinear with Follower Force -->
     <g transform="translate(297.726604 46.398396)scale(0.08 -0.08)">
      <use xlink:href="#DejaVuSans-4e"/>
      <use x="74.804688" xlink:href="#DejaVuSans-6f"/>
      <use x="135.986328" xlink:href="#DejaVuSans-6e"/>
      <use x="199.365234" xlink:href="#DejaVuSans-6c"/>
      <use x="227.148438" xlink:href="#DejaVuSans-69"/>
      <use x="254.931641" xlink:href="#DejaVuSans-6e"/>
      <use x="318.310547" xlink:href="#DejaVuSans-65"/>
      <use x="379.833984" xlink:href="#DejaVuSans-61"/>
      <use x="441.113281" xlink:href="#DejaVuSans-72"/>
      <use x="482.226562" xlink:href="#DejaVuSans-20"/>
      <use x="514.013672" xlink:href="#DejaVuSans-77"/>
      <use x="595.800781" xlink:href="#DejaVuSans-69"/>
      <use x="623.583984" xlink:href="#DejaVuSans-74"/>
      <use x="662.792969" xlink:href="#DejaVuSans-68"/>
      <use x="726.171875" xlink:href="#DejaVuSans-20"/>
      <use x="757.958984" xlink:href="#DejaVuSans-46"/>
      <use x="811.853516" xlink:href="#DejaVuSans-6f"/>
      <use x="873.035156" xlink:href="#DejaVuSans-6c"/>
      <use x="900.818359" xlink:href="#DejaVuSans-6c"/>
      <use x="928.601562" xlink:href="#DejaVuSans-6f"/>
      <use x="989.783203" xlink:href="#DejaVuSans-77"/>
      <use x="1071.570312" xlink:href="#DejaVuSans-65"/>
      <use x="1133.09375" xlink:href="#DejaVuSans-72"/>
      <use x="1174.207031" xlink:href="#DejaVuSans-20"/>
      <use x="1205.994141" xlink:href="#DejaVuSans-46"/>
      <use x="1259.888672" xlink:href="#DejaVuSans-6f"/>
      <use x="1321.070312" xlink:href="#DejaVuSans-72"/>
      <use x="1359.933594" xlink:href="#DejaVuSans-63"/>
      <use x="1414.914062" xlink:href="#DejaVuSans-65"/>
     </g>
    </g>
   </g>
  </g>
 </g>
 <defs>
  <clipPath id="pa5f5f2d813">
   <rect height="251.790709" width="394.042015" x="32.19834" y="6.434646"/>
  </clipPath>
 </defs>
</svg>
