<?xml version="1.0" encoding="utf-8" standalone="no"?>
<!DOCTYPE svg PUBLIC "-//W3C//DTD SVG 1.1//EN"
  "http://www.w3.org/Graphics/SVG/1.1/DTD/svg11.dtd">
<svg height="288pt" version="1.1" viewBox="0 0 432 288" width="432pt" xmlns="http://www.w3.org/2000/svg" xmlns:xlink="http://www.w3.org/1999/xlink">
 <metadata>
  <rdf:RDF xmlns:cc="http://creativecommons.org/ns#" xmlns:dc="http://purl.org/dc/elements/1.1/" xmlns:rdf="http://www.w3.org/1999/02/22-rdf-syntax-ns#">
   <cc:Work>
    <dc:type rdf:resource="http://purl.org/dc/dcmitype/StillImage"/>
    <dc:date>2021-09-30T17:43:07.240421</dc:date>
    <dc:format>image/svg+xml</dc:format>
    <dc:creator>
     <cc:Agent>
      <dc:title>Matplotlib v3.4.2, https://matplotlib.org/</dc:title>
     </cc:Agent>
    </dc:creator>
   </cc:Work>
  </rdf:RDF>
 </metadata>
 <defs>
  <style type="text/css">*{stroke-linecap:butt;stroke-linejoin:round;}</style>
 </defs>
 <g id="figure_1">
  <g id="patch_1">
   <path d="M 0 288 
L 432 288 
L 432 0 
L 0 0 
z
" style="fill:#ffffff;"/>
  </g>
  <g id="axes_1">
   <g id="patch_2">
    <path d="M 43.915109 258.225354 
L 422.361999 258.225354 
L 422.361999 2.834646 
L 43.915109 2.834646 
z
" style="fill:#ffffff;"/>
   </g>
   <g id="line2d_1">
    <path clip-path="url(#p36e0309c87)" d="M 43.915109 10.062685 
L 49.213366 10.163466 
L 51.67327 10.412705 
L 53.565505 10.812307 
L 55.079292 11.360129 
L 56.59308 12.147666 
L 57.917644 13.068614 
L 59.620655 14.536774 
L 61.323666 16.313889 
L 62.837454 18.213378 
L 64.540465 20.687741 
L 66.432699 23.869606 
L 70.406391 30.649533 
L 72.109402 33.134192 
L 74.001637 35.461849 
L 75.326201 36.789016 
L 76.650765 37.801509 
L 77.975329 38.553776 
L 79.299893 39.065347 
L 80.435234 39.296024 
L 81.759798 39.347215 
L 82.895139 39.169947 
L 84.030479 38.744645 
L 85.355044 37.959146 
L 87.058055 36.632295 
L 90.464077 33.854612 
L 91.788641 33.1245 
L 92.923981 32.723063 
L 94.059322 32.542806 
L 95.57311 32.56255 
L 99.736025 32.820712 
L 100.871366 32.607049 
L 102.19593 32.130086 
L 103.709718 31.313208 
L 105.791176 29.90299 
L 111.657102 25.789746 
L 112.981667 25.099051 
L 113.927784 24.812738 
L 114.684678 24.774969 
L 115.441571 24.954907 
L 116.198465 25.393583 
L 116.955359 26.139454 
L 117.712253 27.224673 
L 118.469146 28.667744 
L 119.415264 30.964115 
L 120.550604 34.371314 
L 121.875168 39.067469 
L 127.173425 58.845653 
L 128.308766 61.999882 
L 129.444106 64.501765 
L 130.390223 66.098806 
L 131.336341 67.245818 
L 132.093234 67.836704 
L 132.850128 68.135809 
L 133.417799 68.171568 
L 133.985469 68.030643 
L 134.553139 67.714223 
L 135.12081 67.194123 
L 135.877703 66.160093 
L 136.634597 64.705493 
L 137.580714 62.294408 
L 138.526832 59.254708 
L 139.662172 54.887008 
L 141.74363 45.741015 
L 143.446641 38.584211 
L 144.581982 34.626045 
L 145.528099 32.093454 
L 146.284993 30.65959 
L 146.852663 29.959539 
L 147.420334 29.579482 
L 147.988004 29.524618 
L 148.555674 29.788747 
L 149.123345 30.358021 
L 149.691015 31.222487 
L 150.447909 32.796533 
L 151.394026 35.356641 
L 152.529367 39.10347 
L 154.421601 46.279387 
L 156.692282 54.696472 
L 157.827623 58.180119 
L 158.77374 60.517959 
L 159.719857 62.255286 
L 160.476751 63.190669 
L 161.233645 63.727273 
L 161.801315 63.867073 
L 162.368986 63.789643 
L 162.936656 63.499972 
L 163.69355 62.784522 
L 164.450444 61.711145 
L 165.396561 59.876441 
L 166.342678 57.531437 
L 167.478019 54.085284 
L 168.802583 49.277905 
L 170.884041 40.634777 
L 172.965499 32.23171 
L 174.100839 28.585665 
L 174.857733 26.829116 
L 175.425403 25.965901 
L 175.993074 25.551711 
L 176.371521 25.548155 
L 176.749968 25.78028 
L 177.128414 26.260978 
L 177.696085 27.461483 
L 178.263755 29.267932 
L 179.020649 32.616817 
L 179.777543 36.994825 
L 180.72366 43.776446 
L 181.859001 53.545305 
L 183.372788 68.622722 
L 188.292598 119.689856 
L 189.427938 128.74315 
L 190.374056 134.864258 
L 191.320173 139.644457 
L 192.077067 142.511593 
L 192.83396 144.574189 
L 193.401631 145.613851 
L 193.969301 146.255641 
L 194.536971 146.516166 
L 194.915418 146.47236 
L 195.293865 146.251436 
L 195.861535 145.57857 
L 196.429206 144.452638 
L 196.996876 142.834571 
L 197.75377 139.846899 
L 198.510664 135.849954 
L 199.456781 129.378292 
L 200.402898 121.301197 
L 201.727462 107.693749 
L 206.079601 60.210044 
L 207.214942 50.749389 
L 208.350283 43.192661 
L 209.2964 38.368022 
L 210.053294 35.500996 
L 210.620964 33.965377 
L 211.188635 33.006503 
L 211.567081 32.708399 
L 211.945528 32.690872 
L 212.323975 32.967086 
L 212.702422 33.538992 
L 213.270092 34.954583 
L 213.837763 37.045975 
L 214.594657 40.860369 
L 215.540774 47.158809 
L 216.676114 56.622284 
L 218.189902 71.641409 
L 221.028254 100.615619 
L 222.163594 109.825881 
L 223.109712 115.821381 
L 223.866605 119.384082 
L 224.623499 121.840281 
L 225.191169 123.008056 
L 225.75884 123.687026 
L 226.32651 123.952442 
L 226.89418 123.89419 
L 227.461851 123.583853 
L 228.218745 122.883161 
L 228.975638 121.880994 
L 229.732532 120.526888 
L 230.489426 118.698425 
L 231.24632 116.278427 
L 232.003213 113.08771 
L 232.760107 108.901335 
L 233.517001 103.546025 
L 234.463118 95.202564 
L 235.598459 83.143802 
L 239.193704 42.880208 
L 240.139822 35.439962 
L 240.896715 31.268216 
L 241.464386 29.373111 
L 241.842833 28.750291 
L 242.032056 28.638167 
L 242.22128 28.660882 
L 242.599726 29.115663 
L 242.978173 30.118719 
L 243.545844 32.631536 
L 244.113514 36.3214 
L 244.870408 42.959149 
L 245.816525 53.671169 
L 247.141089 71.777217 
L 253.196239 158.607318 
L 254.710027 177.187799 
L 255.845368 188.748116 
L 256.980708 198.112041 
L 257.926825 204.37939 
L 258.872943 209.210889 
L 259.629836 212.012079 
L 260.38673 213.950243 
L 260.954401 214.903997 
L 261.522071 215.412628 
L 261.900518 215.447687 
L 262.278965 215.182882 
L 262.657412 214.538709 
L 263.035858 213.422495 
L 263.603529 210.764241 
L 264.171199 206.865796 
L 264.928093 199.938189 
L 266.063434 187.068321 
L 267.577221 167.304162 
L 269.847902 134.245278 
L 272.497031 96.294768 
L 273.821595 79.88188 
L 274.767712 70.700164 
L 275.524606 65.427254 
L 276.092276 62.940101 
L 276.470723 62.033915 
L 276.84917 61.761895 
L 277.038393 61.864468 
L 277.41684 62.524191 
L 277.795287 63.762435 
L 278.362958 66.591933 
L 279.119851 71.82773 
L 280.255192 81.681233 
L 283.093544 107.33795 
L 284.039661 113.721817 
L 284.796555 117.617675 
L 285.553448 120.559199 
L 286.499566 123.290656 
L 287.82413 126.224199 
L 289.716364 130.417064 
L 290.662481 132.321769 
L 291.230152 132.985692 
L 291.608599 133.116056 
L 291.987046 132.950208 
L 292.365492 132.511197 
L 292.933163 131.424003 
L 293.87928 128.927997 
L 295.014621 125.30375 
L 295.771514 122.107747 
L 296.528408 117.766676 
L 297.285302 112.036434 
L 298.609866 99.678002 
L 299.93443 87.788556 
L 303.718899 57.739234 
L 304.475793 53.488127 
L 305.043463 51.585893 
L 305.42191 50.969211 
L 305.800357 50.830374 
L 306.178804 51.106784 
L 306.557251 51.729311 
L 307.124921 53.214676 
L 307.692592 55.332826 
L 308.449485 59.241385 
L 309.206379 64.530937 
L 310.152496 73.179053 
L 311.47706 88.197963 
L 312.801625 105.637172 
L 313.558518 118.391221 
L 314.504636 138.393072 
L 318.478328 229.350515 
L 319.235222 241.859032 
L 319.802892 248.212126 
L 320.181339 250.4534 
L 320.370562 250.931431 
L 320.559786 250.997315 
L 320.749009 250.685547 
L 321.127456 249.147337 
L 321.88435 244.221383 
L 322.830467 238.497459 
L 323.587361 235.483352 
L 324.344255 233.477578 
L 325.668819 230.339442 
L 326.993383 226.352063 
L 327.37183 225.974958 
L 327.750277 226.029164 
L 328.128724 226.20264 
L 328.317947 226.188178 
L 328.50717 226.021912 
L 328.696394 225.643503 
L 329.074841 224.030981 
L 329.453288 221.005324 
L 330.020958 213.566932 
L 330.777852 198.965127 
L 331.913192 171.454186 
L 333.805427 126.249183 
L 335.886885 81.401417 
L 336.833002 65.441404 
L 337.589896 55.860542 
L 338.34679 49.083169 
L 338.91446 45.657532 
L 339.48213 43.277788 
L 340.239024 41.133403 
L 340.617471 40.482284 
L 340.995918 40.215785 
L 341.185141 40.260104 
L 341.563588 40.761778 
L 341.942035 41.854471 
L 342.320482 43.595465 
L 342.888152 47.415628 
L 343.83427 55.771655 
L 346.861845 86.038046 
L 349.132526 110.954125 
L 350.078643 117.997878 
L 353.863112 142.133001 
L 354.430782 144.618201 
L 354.998453 146.154697 
L 355.566123 146.958512 
L 356.51224 147.873112 
L 356.890687 147.927176 
L 357.269134 147.494471 
L 357.647581 146.514039 
L 358.215251 144.207927 
L 358.972145 140.012002 
L 359.918262 133.07026 
L 361.43205 121.966376 
L 363.135061 109.470248 
L 364.270402 99.930125 
L 365.594966 86.071349 
L 370.514775 31.079302 
L 371.082446 26.236108 
L 371.650116 23.069353 
L 372.028563 21.778526 
L 372.40701 21.220412 
L 372.596233 21.265629 
L 372.785457 21.540057 
L 373.163904 22.700839 
L 374.110021 27.101889 
L 374.677691 30.261129 
L 375.245361 35.272077 
L 375.813032 42.659944 
L 376.569926 56.026299 
L 379.219054 109.101341 
L 381.111288 141.519031 
L 381.868182 151.806116 
L 382.435852 156.785423 
L 383.38197 162.74839 
L 384.51731 169.111443 
L 386.031098 179.147219 
L 387.355662 187.201433 
L 387.923332 189.009804 
L 389.058673 191.74838 
L 389.626343 192.273176 
L 390.194014 192.640591 
L 390.383237 192.592055 
L 390.57246 192.353756 
L 390.950907 191.136357 
L 391.518578 187.586915 
L 392.653918 178.28161 
L 393.410812 169.540366 
L 394.546153 153.596361 
L 399.276739 79.297003 
L 400.222856 68.579696 
L 403.061208 40.556498 
L 403.818102 35.032759 
L 404.574995 31.085829 
L 405.521113 27.343258 
L 406.845677 23.652122 
L 407.224124 23.364 
L 407.602571 23.634947 
L 407.981017 24.395845 
L 408.359464 25.725104 
L 408.927135 28.731818 
L 409.494805 33.675664 
L 410.440922 44.846367 
L 411.387039 59.524084 
L 412.711604 84.434104 
L 415.928402 145.417703 
L 416.496072 151.976682 
L 416.874519 153.970799 
L 417.252966 154.801209 
L 417.631413 155.163743 
L 417.820637 155.153502 
L 418.199083 154.677816 
L 418.57753 154.064648 
L 418.955977 153.87699 
L 419.334424 153.829527 
L 419.712871 153.494303 
L 420.091318 152.885736 
L 420.469765 151.881355 
L 421.983552 145.947171 
L 422.361999 144.274185 
L 422.361999 144.274185 
" style="fill:none;stroke:#009afa;"/>
   </g>
   <g id="matplotlib.axis_1">
    <g id="xtick_1">
     <g id="line2d_2">
      <defs>
       <path d="M 0 0 
L 0 -2.5 
" id="m1bf559b8e0" style="stroke:#000000;stroke-width:0.5;"/>
      </defs>
      <g>
       <use style="stroke:#000000;stroke-width:0.5;" x="43.915109" xlink:href="#m1bf559b8e0" y="258.225354"/>
      </g>
     </g>
     <g id="text_1">
      <!-- $0.0$ -->
      <g transform="translate(37.515109 267.804104)scale(0.08 -0.08)">
       <defs>
        <path d="M 2034 4250 
Q 1547 4250 1301 3770 
Q 1056 3291 1056 2328 
Q 1056 1369 1301 889 
Q 1547 409 2034 409 
Q 2525 409 2770 889 
Q 3016 1369 3016 2328 
Q 3016 3291 2770 3770 
Q 2525 4250 2034 4250 
z
M 2034 4750 
Q 2819 4750 3233 4129 
Q 3647 3509 3647 2328 
Q 3647 1150 3233 529 
Q 2819 -91 2034 -91 
Q 1250 -91 836 529 
Q 422 1150 422 2328 
Q 422 3509 836 4129 
Q 1250 4750 2034 4750 
z
" id="DejaVuSans-30" transform="scale(0.015625)"/>
        <path d="M 684 794 
L 1344 794 
L 1344 0 
L 684 0 
L 684 794 
z
" id="DejaVuSans-2e" transform="scale(0.015625)"/>
       </defs>
       <use transform="translate(0 0.78125)" xlink:href="#DejaVuSans-30"/>
       <use transform="translate(63.623047 0.78125)" xlink:href="#DejaVuSans-2e"/>
       <use transform="translate(95.410156 0.78125)" xlink:href="#DejaVuSans-30"/>
      </g>
     </g>
    </g>
    <g id="xtick_2">
     <g id="line2d_3">
      <g>
       <use style="stroke:#000000;stroke-width:0.5;" x="138.526832" xlink:href="#m1bf559b8e0" y="258.225354"/>
      </g>
     </g>
     <g id="text_2">
      <!-- $0.5$ -->
      <g transform="translate(132.126832 267.804104)scale(0.08 -0.08)">
       <defs>
        <path d="M 691 4666 
L 3169 4666 
L 3169 4134 
L 1269 4134 
L 1269 2991 
Q 1406 3038 1543 3061 
Q 1681 3084 1819 3084 
Q 2600 3084 3056 2656 
Q 3513 2228 3513 1497 
Q 3513 744 3044 326 
Q 2575 -91 1722 -91 
Q 1428 -91 1123 -41 
Q 819 9 494 109 
L 494 744 
Q 775 591 1075 516 
Q 1375 441 1709 441 
Q 2250 441 2565 725 
Q 2881 1009 2881 1497 
Q 2881 1984 2565 2268 
Q 2250 2553 1709 2553 
Q 1456 2553 1204 2497 
Q 953 2441 691 2322 
L 691 4666 
z
" id="DejaVuSans-35" transform="scale(0.015625)"/>
       </defs>
       <use transform="translate(0 0.78125)" xlink:href="#DejaVuSans-30"/>
       <use transform="translate(63.623047 0.78125)" xlink:href="#DejaVuSans-2e"/>
       <use transform="translate(95.410156 0.78125)" xlink:href="#DejaVuSans-35"/>
      </g>
     </g>
    </g>
    <g id="xtick_3">
     <g id="line2d_4">
      <g>
       <use style="stroke:#000000;stroke-width:0.5;" x="233.138554" xlink:href="#m1bf559b8e0" y="258.225354"/>
      </g>
     </g>
     <g id="text_3">
      <!-- $1.0$ -->
      <g transform="translate(226.738554 267.804104)scale(0.08 -0.08)">
       <defs>
        <path d="M 794 531 
L 1825 531 
L 1825 4091 
L 703 3866 
L 703 4441 
L 1819 4666 
L 2450 4666 
L 2450 531 
L 3481 531 
L 3481 0 
L 794 0 
L 794 531 
z
" id="DejaVuSans-31" transform="scale(0.015625)"/>
       </defs>
       <use transform="translate(0 0.78125)" xlink:href="#DejaVuSans-31"/>
       <use transform="translate(63.623047 0.78125)" xlink:href="#DejaVuSans-2e"/>
       <use transform="translate(95.410156 0.78125)" xlink:href="#DejaVuSans-30"/>
      </g>
     </g>
    </g>
    <g id="xtick_4">
     <g id="line2d_5">
      <g>
       <use style="stroke:#000000;stroke-width:0.5;" x="327.750277" xlink:href="#m1bf559b8e0" y="258.225354"/>
      </g>
     </g>
     <g id="text_4">
      <!-- $1.5$ -->
      <g transform="translate(321.350277 267.804104)scale(0.08 -0.08)">
       <use transform="translate(0 0.09375)" xlink:href="#DejaVuSans-31"/>
       <use transform="translate(63.623047 0.09375)" xlink:href="#DejaVuSans-2e"/>
       <use transform="translate(95.410156 0.09375)" xlink:href="#DejaVuSans-35"/>
      </g>
     </g>
    </g>
    <g id="xtick_5">
     <g id="line2d_6">
      <g>
       <use style="stroke:#000000;stroke-width:0.5;" x="422.361999" xlink:href="#m1bf559b8e0" y="258.225354"/>
      </g>
     </g>
     <g id="text_5">
      <!-- $2.0$ -->
      <g transform="translate(415.961999 267.804104)scale(0.08 -0.08)">
       <defs>
        <path d="M 1228 531 
L 3431 531 
L 3431 0 
L 469 0 
L 469 531 
Q 828 903 1448 1529 
Q 2069 2156 2228 2338 
Q 2531 2678 2651 2914 
Q 2772 3150 2772 3378 
Q 2772 3750 2511 3984 
Q 2250 4219 1831 4219 
Q 1534 4219 1204 4116 
Q 875 4013 500 3803 
L 500 4441 
Q 881 4594 1212 4672 
Q 1544 4750 1819 4750 
Q 2544 4750 2975 4387 
Q 3406 4025 3406 3419 
Q 3406 3131 3298 2873 
Q 3191 2616 2906 2266 
Q 2828 2175 2409 1742 
Q 1991 1309 1228 531 
z
" id="DejaVuSans-32" transform="scale(0.015625)"/>
       </defs>
       <use transform="translate(0 0.78125)" xlink:href="#DejaVuSans-32"/>
       <use transform="translate(63.623047 0.78125)" xlink:href="#DejaVuSans-2e"/>
       <use transform="translate(95.410156 0.78125)" xlink:href="#DejaVuSans-30"/>
      </g>
     </g>
    </g>
    <g id="text_6">
     <!-- Time (s) -->
     <g transform="translate(210.776757 281.826136)scale(0.11 -0.11)">
      <defs>
       <path d="M -19 4666 
L 3928 4666 
L 3928 4134 
L 2272 4134 
L 2272 0 
L 1638 0 
L 1638 4134 
L -19 4134 
L -19 4666 
z
" id="DejaVuSans-54" transform="scale(0.015625)"/>
       <path d="M 603 3500 
L 1178 3500 
L 1178 0 
L 603 0 
L 603 3500 
z
M 603 4863 
L 1178 4863 
L 1178 4134 
L 603 4134 
L 603 4863 
z
" id="DejaVuSans-69" transform="scale(0.015625)"/>
       <path d="M 3328 2828 
Q 3544 3216 3844 3400 
Q 4144 3584 4550 3584 
Q 5097 3584 5394 3201 
Q 5691 2819 5691 2113 
L 5691 0 
L 5113 0 
L 5113 2094 
Q 5113 2597 4934 2840 
Q 4756 3084 4391 3084 
Q 3944 3084 3684 2787 
Q 3425 2491 3425 1978 
L 3425 0 
L 2847 0 
L 2847 2094 
Q 2847 2600 2669 2842 
Q 2491 3084 2119 3084 
Q 1678 3084 1418 2786 
Q 1159 2488 1159 1978 
L 1159 0 
L 581 0 
L 581 3500 
L 1159 3500 
L 1159 2956 
Q 1356 3278 1631 3431 
Q 1906 3584 2284 3584 
Q 2666 3584 2933 3390 
Q 3200 3197 3328 2828 
z
" id="DejaVuSans-6d" transform="scale(0.015625)"/>
       <path d="M 3597 1894 
L 3597 1613 
L 953 1613 
Q 991 1019 1311 708 
Q 1631 397 2203 397 
Q 2534 397 2845 478 
Q 3156 559 3463 722 
L 3463 178 
Q 3153 47 2828 -22 
Q 2503 -91 2169 -91 
Q 1331 -91 842 396 
Q 353 884 353 1716 
Q 353 2575 817 3079 
Q 1281 3584 2069 3584 
Q 2775 3584 3186 3129 
Q 3597 2675 3597 1894 
z
M 3022 2063 
Q 3016 2534 2758 2815 
Q 2500 3097 2075 3097 
Q 1594 3097 1305 2825 
Q 1016 2553 972 2059 
L 3022 2063 
z
" id="DejaVuSans-65" transform="scale(0.015625)"/>
       <path id="DejaVuSans-20" transform="scale(0.015625)"/>
       <path d="M 1984 4856 
Q 1566 4138 1362 3434 
Q 1159 2731 1159 2009 
Q 1159 1288 1364 580 
Q 1569 -128 1984 -844 
L 1484 -844 
Q 1016 -109 783 600 
Q 550 1309 550 2009 
Q 550 2706 781 3412 
Q 1013 4119 1484 4856 
L 1984 4856 
z
" id="DejaVuSans-28" transform="scale(0.015625)"/>
       <path d="M 2834 3397 
L 2834 2853 
Q 2591 2978 2328 3040 
Q 2066 3103 1784 3103 
Q 1356 3103 1142 2972 
Q 928 2841 928 2578 
Q 928 2378 1081 2264 
Q 1234 2150 1697 2047 
L 1894 2003 
Q 2506 1872 2764 1633 
Q 3022 1394 3022 966 
Q 3022 478 2636 193 
Q 2250 -91 1575 -91 
Q 1294 -91 989 -36 
Q 684 19 347 128 
L 347 722 
Q 666 556 975 473 
Q 1284 391 1588 391 
Q 1994 391 2212 530 
Q 2431 669 2431 922 
Q 2431 1156 2273 1281 
Q 2116 1406 1581 1522 
L 1381 1569 
Q 847 1681 609 1914 
Q 372 2147 372 2553 
Q 372 3047 722 3315 
Q 1072 3584 1716 3584 
Q 2034 3584 2315 3537 
Q 2597 3491 2834 3397 
z
" id="DejaVuSans-73" transform="scale(0.015625)"/>
       <path d="M 513 4856 
L 1013 4856 
Q 1481 4119 1714 3412 
Q 1947 2706 1947 2009 
Q 1947 1309 1714 600 
Q 1481 -109 1013 -844 
L 513 -844 
Q 928 -128 1133 580 
Q 1338 1288 1338 2009 
Q 1338 2731 1133 3434 
Q 928 4138 513 4856 
z
" id="DejaVuSans-29" transform="scale(0.015625)"/>
      </defs>
      <use xlink:href="#DejaVuSans-54"/>
      <use x="57.958984" xlink:href="#DejaVuSans-69"/>
      <use x="85.742188" xlink:href="#DejaVuSans-6d"/>
      <use x="183.154297" xlink:href="#DejaVuSans-65"/>
      <use x="244.677734" xlink:href="#DejaVuSans-20"/>
      <use x="276.464844" xlink:href="#DejaVuSans-28"/>
      <use x="315.478516" xlink:href="#DejaVuSans-73"/>
      <use x="367.578125" xlink:href="#DejaVuSans-29"/>
     </g>
    </g>
   </g>
   <g id="matplotlib.axis_2">
    <g id="ytick_1">
     <g id="line2d_7">
      <defs>
       <path d="M 0 0 
L 2.5 0 
" id="m95437fdb3e" style="stroke:#000000;stroke-width:0.5;"/>
      </defs>
      <g>
       <use style="stroke:#000000;stroke-width:0.5;" x="43.915109" xlink:href="#m95437fdb3e" y="214.660032"/>
      </g>
     </g>
     <g id="text_7">
      <!-- $-0.6$ -->
      <g transform="translate(20.975109 217.699407)scale(0.08 -0.08)">
       <defs>
        <path d="M 678 2272 
L 4684 2272 
L 4684 1741 
L 678 1741 
L 678 2272 
z
" id="DejaVuSans-2212" transform="scale(0.015625)"/>
        <path d="M 2113 2584 
Q 1688 2584 1439 2293 
Q 1191 2003 1191 1497 
Q 1191 994 1439 701 
Q 1688 409 2113 409 
Q 2538 409 2786 701 
Q 3034 994 3034 1497 
Q 3034 2003 2786 2293 
Q 2538 2584 2113 2584 
z
M 3366 4563 
L 3366 3988 
Q 3128 4100 2886 4159 
Q 2644 4219 2406 4219 
Q 1781 4219 1451 3797 
Q 1122 3375 1075 2522 
Q 1259 2794 1537 2939 
Q 1816 3084 2150 3084 
Q 2853 3084 3261 2657 
Q 3669 2231 3669 1497 
Q 3669 778 3244 343 
Q 2819 -91 2113 -91 
Q 1303 -91 875 529 
Q 447 1150 447 2328 
Q 447 3434 972 4092 
Q 1497 4750 2381 4750 
Q 2619 4750 2861 4703 
Q 3103 4656 3366 4563 
z
" id="DejaVuSans-36" transform="scale(0.015625)"/>
       </defs>
       <use transform="translate(0 0.78125)" xlink:href="#DejaVuSans-2212"/>
       <use transform="translate(83.789062 0.78125)" xlink:href="#DejaVuSans-30"/>
       <use transform="translate(147.412109 0.78125)" xlink:href="#DejaVuSans-2e"/>
       <use transform="translate(179.199219 0.78125)" xlink:href="#DejaVuSans-36"/>
      </g>
     </g>
    </g>
    <g id="ytick_2">
     <g id="line2d_8">
      <g>
       <use style="stroke:#000000;stroke-width:0.5;" x="43.915109" xlink:href="#m95437fdb3e" y="146.460916"/>
      </g>
     </g>
     <g id="text_8">
      <!-- $-0.4$ -->
      <g transform="translate(20.975109 149.500291)scale(0.08 -0.08)">
       <defs>
        <path d="M 2419 4116 
L 825 1625 
L 2419 1625 
L 2419 4116 
z
M 2253 4666 
L 3047 4666 
L 3047 1625 
L 3713 1625 
L 3713 1100 
L 3047 1100 
L 3047 0 
L 2419 0 
L 2419 1100 
L 313 1100 
L 313 1709 
L 2253 4666 
z
" id="DejaVuSans-34" transform="scale(0.015625)"/>
       </defs>
       <use transform="translate(0 0.78125)" xlink:href="#DejaVuSans-2212"/>
       <use transform="translate(83.789062 0.78125)" xlink:href="#DejaVuSans-30"/>
       <use transform="translate(147.412109 0.78125)" xlink:href="#DejaVuSans-2e"/>
       <use transform="translate(179.199219 0.78125)" xlink:href="#DejaVuSans-34"/>
      </g>
     </g>
    </g>
    <g id="ytick_3">
     <g id="line2d_9">
      <g>
       <use style="stroke:#000000;stroke-width:0.5;" x="43.915109" xlink:href="#m95437fdb3e" y="78.2618"/>
      </g>
     </g>
     <g id="text_9">
      <!-- $-0.2$ -->
      <g transform="translate(21.375109 81.301175)scale(0.08 -0.08)">
       <use transform="translate(0 0.78125)" xlink:href="#DejaVuSans-2212"/>
       <use transform="translate(83.789062 0.78125)" xlink:href="#DejaVuSans-30"/>
       <use transform="translate(147.412109 0.78125)" xlink:href="#DejaVuSans-2e"/>
       <use transform="translate(173.699219 0.78125)" xlink:href="#DejaVuSans-32"/>
      </g>
     </g>
    </g>
    <g id="ytick_4">
     <g id="line2d_10">
      <g>
       <use style="stroke:#000000;stroke-width:0.5;" x="43.915109" xlink:href="#m95437fdb3e" y="10.062685"/>
      </g>
     </g>
     <g id="text_10">
      <!-- $0.0$ -->
      <g transform="translate(27.615109 13.10206)scale(0.08 -0.08)">
       <use transform="translate(0 0.78125)" xlink:href="#DejaVuSans-30"/>
       <use transform="translate(63.623047 0.78125)" xlink:href="#DejaVuSans-2e"/>
       <use transform="translate(95.410156 0.78125)" xlink:href="#DejaVuSans-30"/>
      </g>
     </g>
    </g>
    <g id="text_11">
     <!-- $u_x$ ($m$) -->
     <g transform="translate(14.687453 147.855)rotate(-90)scale(0.11 -0.11)">
      <defs>
       <path d="M 428 1388 
L 838 3500 
L 1416 3500 
L 1006 1409 
Q 975 1256 961 1147 
Q 947 1038 947 966 
Q 947 700 1109 554 
Q 1272 409 1569 409 
Q 2031 409 2368 721 
Q 2706 1034 2809 1563 
L 3194 3500 
L 3769 3500 
L 3091 0 
L 2516 0 
L 2631 550 
Q 2388 244 2052 76 
Q 1716 -91 1338 -91 
Q 878 -91 622 161 
Q 366 413 366 863 
Q 366 956 381 1097 
Q 397 1238 428 1388 
z
" id="DejaVuSans-Oblique-75" transform="scale(0.015625)"/>
       <path d="M 3841 3500 
L 2234 1784 
L 3219 0 
L 2559 0 
L 1819 1388 
L 531 0 
L -166 0 
L 1556 1844 
L 641 3500 
L 1300 3500 
L 1972 2234 
L 3144 3500 
L 3841 3500 
z
" id="DejaVuSans-Oblique-78" transform="scale(0.015625)"/>
       <path d="M 5747 2113 
L 5338 0 
L 4763 0 
L 5166 2094 
Q 5191 2228 5203 2325 
Q 5216 2422 5216 2491 
Q 5216 2772 5059 2928 
Q 4903 3084 4622 3084 
Q 4203 3084 3875 2770 
Q 3547 2456 3450 1953 
L 3066 0 
L 2491 0 
L 2900 2094 
Q 2925 2209 2937 2307 
Q 2950 2406 2950 2484 
Q 2950 2769 2794 2926 
Q 2638 3084 2363 3084 
Q 1938 3084 1609 2770 
Q 1281 2456 1184 1953 
L 800 0 
L 225 0 
L 909 3500 
L 1484 3500 
L 1375 2956 
Q 1609 3263 1923 3423 
Q 2238 3584 2597 3584 
Q 2978 3584 3223 3384 
Q 3469 3184 3519 2828 
Q 3781 3197 4126 3390 
Q 4472 3584 4856 3584 
Q 5306 3584 5551 3325 
Q 5797 3066 5797 2591 
Q 5797 2488 5784 2364 
Q 5772 2241 5747 2113 
z
" id="DejaVuSans-Oblique-6d" transform="scale(0.015625)"/>
      </defs>
      <use transform="translate(0 0.125)" xlink:href="#DejaVuSans-Oblique-75"/>
      <use transform="translate(63.378906 -16.28125)scale(0.7)" xlink:href="#DejaVuSans-Oblique-78"/>
      <use transform="translate(107.539062 0.125)" xlink:href="#DejaVuSans-20"/>
      <use transform="translate(139.326172 0.125)" xlink:href="#DejaVuSans-28"/>
      <use transform="translate(178.339844 0.125)" xlink:href="#DejaVuSans-Oblique-6d"/>
      <use transform="translate(275.751953 0.125)" xlink:href="#DejaVuSans-29"/>
     </g>
    </g>
   </g>
   <g id="patch_3">
    <path d="M 43.915109 258.225354 
L 43.915109 2.834646 
" style="fill:none;stroke:#000000;stroke-linecap:square;stroke-linejoin:miter;"/>
   </g>
   <g id="patch_4">
    <path d="M 43.915109 258.225354 
L 422.361999 258.225354 
" style="fill:none;stroke:#000000;stroke-linecap:square;stroke-linejoin:miter;"/>
   </g>
  </g>
 </g>
 <defs>
  <clipPath id="p36e0309c87">
   <rect height="255.390709" width="378.44689" x="43.915109" y="2.834646"/>
  </clipPath>
 </defs>
</svg>
