<?xml version="1.0" encoding="utf-8" standalone="no"?>
<!DOCTYPE svg PUBLIC "-//W3C//DTD SVG 1.1//EN"
  "http://www.w3.org/Graphics/SVG/1.1/DTD/svg11.dtd">
<svg height="288pt" version="1.1" viewBox="0 0 432 288" width="432pt" xmlns="http://www.w3.org/2000/svg" xmlns:xlink="http://www.w3.org/1999/xlink">
 <metadata>
  <rdf:RDF xmlns:cc="http://creativecommons.org/ns#" xmlns:dc="http://purl.org/dc/elements/1.1/" xmlns:rdf="http://www.w3.org/1999/02/22-rdf-syntax-ns#">
   <cc:Work>
    <dc:type rdf:resource="http://purl.org/dc/dcmitype/StillImage"/>
    <dc:date>2021-09-30T17:43:07.612643</dc:date>
    <dc:format>image/svg+xml</dc:format>
    <dc:creator>
     <cc:Agent>
      <dc:title>Matplotlib v3.4.2, https://matplotlib.org/</dc:title>
     </cc:Agent>
    </dc:creator>
   </cc:Work>
  </rdf:RDF>
 </metadata>
 <defs>
  <style type="text/css">*{stroke-linecap:butt;stroke-linejoin:round;}</style>
 </defs>
 <g id="figure_1">
  <g id="patch_1">
   <path d="M 0 288 
L 432 288 
L 432 0 
L 0 0 
z
" style="fill:#ffffff;"/>
  </g>
  <g id="axes_1">
   <g id="patch_2">
    <path d="M 44.790359 258.225354 
L 422.361999 258.225354 
L 422.361999 2.834646 
L 44.790359 2.834646 
z
" style="fill:#ffffff;"/>
   </g>
   <g id="line2d_1">
    <path clip-path="url(#pe35f96a423)" d="M 44.790359 183.870912 
L 51.586649 183.770757 
L 54.22965 183.470114 
L 55.928722 183.063329 
L 57.439009 182.505101 
L 58.949296 181.728654 
L 60.837154 180.495164 
L 62.725012 179.012681 
L 64.61287 177.190948 
L 66.311943 175.24997 
L 72.919446 167.260663 
L 74.429733 166.030567 
L 75.562448 165.367126 
L 76.695163 164.984794 
L 77.827878 164.876079 
L 78.960592 164.967826 
L 80.470879 165.325984 
L 82.169951 165.981943 
L 83.680238 166.798813 
L 85.190525 167.884746 
L 86.889597 169.398203 
L 89.532598 172.132903 
L 91.798028 174.378315 
L 93.119529 175.386536 
L 94.252244 175.943608 
L 95.196173 176.175483 
L 96.140102 176.192486 
L 97.272817 175.974226 
L 99.915819 175.346466 
L 101.048533 175.364008 
L 101.992463 175.62688 
L 102.936392 176.17909 
L 103.880321 177.029056 
L 104.82425 178.188271 
L 105.768179 179.676036 
L 106.900894 181.899819 
L 108.222395 185.026345 
L 109.921467 189.679719 
L 112.753254 198.2877 
L 114.829898 204.393091 
L 115.962613 207.151847 
L 116.906542 208.89025 
L 117.661686 209.810965 
L 118.228043 210.169568 
L 118.794401 210.210327 
L 119.171972 210.049263 
L 119.73833 209.509085 
L 120.304687 208.610621 
L 121.05983 206.850696 
L 121.814974 204.447471 
L 122.758903 200.533028 
L 123.891618 194.622515 
L 125.213118 186.432483 
L 130.310336 153.309353 
L 131.631836 146.835976 
L 132.764551 142.278101 
L 133.897266 138.568414 
L 135.029981 135.592334 
L 135.97391 133.666253 
L 136.729053 132.530824 
L 137.484197 131.80456 
L 138.050554 131.541764 
L 138.616912 131.547076 
L 139.183269 131.821565 
L 139.749627 132.3826 
L 140.315984 133.245756 
L 141.071127 134.853306 
L 142.015056 137.532701 
L 143.147771 141.497453 
L 145.601987 151.239035 
L 146.923488 155.957888 
L 147.867417 158.62093 
L 148.62256 160.1952 
L 149.377703 161.221171 
L 149.944061 161.624627 
L 150.510418 161.741682 
L 151.076776 161.612456 
L 151.643133 161.281507 
L 152.587062 160.401765 
L 155.41885 157.399266 
L 156.362779 156.789277 
L 157.306708 156.445987 
L 158.250637 156.369303 
L 159.00578 156.507974 
L 159.949709 156.928433 
L 160.893638 157.601821 
L 161.837568 158.601379 
L 162.592711 159.703375 
L 163.347854 161.138627 
L 164.291783 163.489507 
L 165.235712 166.544654 
L 166.179641 170.409761 
L 167.312356 176.132441 
L 168.822643 185.121744 
L 171.65443 202.355059 
L 172.787145 207.88553 
L 173.731074 211.52131 
L 174.675003 214.246663 
L 175.430147 215.740131 
L 175.996504 216.436233 
L 176.562861 216.759125 
L 176.940433 216.760168 
L 177.318005 216.577045 
L 177.695576 216.208061 
L 178.261934 215.266323 
L 178.828291 213.824572 
L 179.394649 211.824094 
L 180.149792 208.221414 
L 180.904935 203.500826 
L 181.848864 196.007714 
L 182.792794 186.750836 
L 183.925508 173.468649 
L 185.624581 150.550895 
L 187.890011 120.306815 
L 189.211511 105.683046 
L 190.344226 95.554707 
L 191.476941 87.462762 
L 192.609656 81.02623 
L 193.742371 75.852133 
L 195.063872 70.856629 
L 196.196587 67.244131 
L 196.95173 65.424757 
L 197.518088 64.591899 
L 197.895659 64.378958 
L 198.273231 64.476713 
L 198.650802 64.920054 
L 199.028374 65.731149 
L 199.594732 67.657951 
L 200.161089 70.451603 
L 200.916232 75.458416 
L 201.860161 83.513511 
L 203.370448 98.873934 
L 205.447092 119.638572 
L 211.677024 177.367557 
L 212.432167 181.702188 
L 212.998525 183.93523 
L 213.564882 185.282604 
L 213.942454 185.700807 
L 214.320025 185.753292 
L 214.697597 185.455079 
L 215.075169 184.826472 
L 215.641526 183.297541 
L 216.39667 180.290513 
L 217.340599 175.337661 
L 219.9836 160.437628 
L 220.738743 157.684591 
L 221.305101 156.37796 
L 221.871458 155.713387 
L 222.24903 155.594184 
L 222.626602 155.685729 
L 223.192959 156.10374 
L 225.080817 157.952259 
L 225.647175 158.132803 
L 226.213532 158.002118 
L 226.77989 157.543856 
L 227.535033 156.566843 
L 228.856534 154.768694 
L 229.422891 154.325261 
L 229.989249 154.207 
L 230.36682 154.329141 
L 230.933178 154.817076 
L 231.499535 155.666787 
L 232.065893 156.909992 
L 232.821036 159.232515 
L 233.576179 162.361251 
L 234.520108 167.351062 
L 235.652823 174.646721 
L 237.918253 189.739994 
L 238.673396 193.026764 
L 239.239754 194.587277 
L 239.806111 195.470122 
L 240.372469 195.838536 
L 240.938826 195.834377 
L 241.505184 195.56553 
L 242.260327 194.926701 
L 243.581828 193.499354 
L 244.148185 192.624579 
L 244.714543 191.245701 
L 245.2809 189.0453 
L 245.847257 185.800409 
L 246.602401 179.779397 
L 247.54633 169.828714 
L 248.679045 155.031457 
L 251.510832 115.701379 
L 252.454761 106.19668 
L 253.39869 98.603512 
L 254.342619 92.602235 
L 255.475334 87.049687 
L 256.419263 82.43807 
L 257.174407 77.526206 
L 257.92955 71.10398 
L 260.761337 44.97393 
L 261.516481 40.581099 
L 262.082838 38.373208 
L 262.46041 37.451951 
L 262.837981 37.003705 
L 263.026767 36.969882 
L 263.215553 37.067045 
L 263.593125 37.664533 
L 263.970696 38.824554 
L 264.537054 41.584542 
L 265.292197 46.789003 
L 267.746413 65.364867 
L 269.256699 74.382255 
L 270.766986 83.240234 
L 271.522129 89.124508 
L 272.277272 96.937483 
L 273.032416 106.924699 
L 273.976345 122.318363 
L 275.297845 148.022891 
L 277.752061 196.773269 
L 278.69599 210.821426 
L 279.451133 219.06864 
L 280.017491 223.294976 
L 280.395063 225.096578 
L 280.772634 226.032706 
L 280.96142 226.162682 
L 281.150206 226.07055 
L 281.527777 225.24185 
L 281.905349 223.579069 
L 282.471707 219.716213 
L 283.22685 212.649305 
L 286.058637 183.526129 
L 286.81378 178.233496 
L 287.380138 175.514285 
L 287.75771 174.3722 
L 288.135281 173.759102 
L 288.512853 173.632062 
L 288.890424 173.916106 
L 289.456782 174.79057 
L 290.023139 175.682036 
L 290.400711 175.963631 
L 290.589497 175.946382 
L 290.778283 175.795874 
L 291.155854 175.013793 
L 291.533426 173.500245 
L 291.910998 171.182557 
L 292.477355 166.125819 
L 293.232498 156.74938 
L 295.8755 119.995563 
L 296.441857 115.897649 
L 296.819429 114.428179 
L 297.008215 114.08268 
L 297.197001 113.994221 
L 297.385786 114.155018 
L 297.763358 115.178132 
L 298.14093 117.034192 
L 298.896073 122.479854 
L 300.217574 132.468007 
L 300.783931 134.929199 
L 301.161503 135.638891 
L 301.350289 135.720664 
L 301.539074 135.631993 
L 301.916646 135.005486 
L 302.483003 133.248316 
L 303.615718 129.419699 
L 303.99329 128.97412 
L 304.182076 129.045091 
L 304.370862 129.336394 
L 304.748433 130.613705 
L 305.126005 132.825927 
L 305.692362 137.682981 
L 306.636292 148.524824 
L 308.335364 171.35439 
L 310.412008 199.531027 
L 311.355937 209.071903 
L 312.11108 214.322396 
L 312.677438 216.875357 
L 313.055009 217.921541 
L 313.432581 218.408226 
L 313.621367 218.436036 
L 313.810153 218.315887 
L 314.187724 217.618074 
L 314.565296 216.333192 
L 315.131653 213.48622 
L 317.019512 202.304354 
L 317.585869 200.698545 
L 317.963441 200.243831 
L 318.341012 200.163677 
L 318.90737 200.412338 
L 319.473727 200.6704 
L 319.851299 200.620751 
L 320.228871 200.325957 
L 320.606442 199.770649 
L 321.1728 198.422934 
L 321.739157 196.333877 
L 322.305515 193.091727 
L 322.871872 188.265832 
L 323.627015 179.165207 
L 325.703659 151.300564 
L 326.458803 144.668163 
L 327.213946 139.672755 
L 328.913018 130.219959 
L 329.668162 123.704577 
L 331.178448 110.071368 
L 331.744806 107.072503 
L 332.122377 106.02584 
L 332.499949 105.675921 
L 332.688735 105.715791 
L 333.066306 106.116271 
L 333.632664 107.288457 
L 334.387807 109.548814 
L 335.331736 112.391324 
L 335.898094 113.407378 
L 336.275665 113.738097 
L 336.653237 113.8386 
L 337.030809 113.713636 
L 337.597166 113.210005 
L 338.352309 112.574002 
L 338.729881 112.539912 
L 339.107453 112.788714 
L 339.485024 113.43628 
L 339.862596 114.743164 
L 340.240167 116.975267 
L 340.806525 122.419069 
L 341.561668 133.333925 
L 344.582241 182.40588 
L 347.225243 220.678721 
L 347.980386 227.408047 
L 348.546744 230.785458 
L 349.113101 232.957096 
L 349.490673 233.869918 
L 349.868244 234.264577 
L 350.05703 234.226326 
L 350.245816 234.009403 
L 350.623388 233.01413 
L 351.189745 230.380535 
L 352.32246 224.57796 
L 352.700032 223.865102 
L 352.888817 223.990491 
L 353.077603 224.487652 
L 353.455175 226.636728 
L 354.021532 232.184331 
L 355.154247 244.564989 
L 355.720605 248.595168 
L 356.098176 250.253337 
L 356.475748 250.997315 
L 356.664534 250.980289 
L 356.85332 250.687831 
L 357.230891 249.265161 
L 357.608463 246.7986 
L 358.17482 241.626006 
L 358.929964 232.410197 
L 360.062679 214.43164 
L 360.817822 203.594558 
L 361.384179 198.210613 
L 361.761751 196.548167 
L 361.950537 196.307582 
L 362.139323 196.411552 
L 362.516894 197.436417 
L 363.838395 202.546399 
L 364.027181 202.759515 
L 364.215967 202.76784 
L 364.593538 202.245061 
L 365.726253 199.86233 
L 366.292611 198.737091 
L 366.670182 197.586918 
L 367.23654 194.947685 
L 367.802897 190.751458 
L 368.558041 182.427764 
L 370.257113 162.117092 
L 372.522543 138.527469 
L 373.0889 133.822124 
L 373.466472 132.011038 
L 373.655258 131.583601 
L 373.844043 131.462934 
L 374.032829 131.614752 
L 374.410401 132.520738 
L 375.165544 135.372429 
L 375.920687 139.154708 
L 376.675831 144.51073 
L 377.61976 153.411204 
L 378.941261 166.322778 
L 379.88519 172.972112 
L 380.640333 177.06735 
L 381.395476 179.94018 
L 381.961834 181.345916 
L 382.528191 182.181119 
L 383.47212 183.255646 
L 383.849692 184.10238 
L 384.227264 185.760375 
L 384.604835 188.567735 
L 385.359978 196.60948 
L 387.625408 220.759848 
L 389.513267 236.17419 
L 389.890838 237.374395 
L 390.26841 237.898767 
L 390.457196 237.920392 
L 390.645981 237.780081 
L 391.023553 237.006716 
L 391.967482 234.131901 
L 392.345054 233.641427 
L 392.911411 233.39209 
L 393.666555 233.05681 
L 394.421698 232.523013 
L 394.799269 231.965133 
L 396.309556 228.716291 
L 397.253485 226.55689 
L 397.631057 225.409722 
L 398.008628 223.516484 
L 398.3862 220.442665 
L 398.952558 213.648977 
L 399.707701 201.069679 
L 401.595559 162.570446 
L 404.616132 100.530964 
L 405.371275 92.126781 
L 407.636705 68.328573 
L 408.76942 56.311738 
L 409.713349 47.539785 
L 411.978779 24.024144 
L 412.545137 20.231832 
L 413.111494 17.668418 
L 414.432995 12.298124 
L 414.810566 10.862282 
L 415.188138 10.161879 
L 415.376924 10.062685 
L 415.56571 10.097677 
L 415.943281 10.544949 
L 416.320853 11.535278 
L 416.698425 13.268797 
L 417.264782 17.270174 
L 419.15264 33.14458 
L 419.907784 41.855991 
L 421.040498 55.702888 
L 421.606856 60.535539 
L 421.984428 62.591607 
L 422.361999 63.405735 
L 422.361999 63.405735 
" style="fill:none;stroke:#009afa;"/>
   </g>
   <g id="matplotlib.axis_1">
    <g id="xtick_1">
     <g id="line2d_2">
      <defs>
       <path d="M 0 0 
L 0 -2.5 
" id="m42efc3902f" style="stroke:#000000;stroke-width:0.5;"/>
      </defs>
      <g>
       <use style="stroke:#000000;stroke-width:0.5;" x="44.790359" xlink:href="#m42efc3902f" y="258.225354"/>
      </g>
     </g>
     <g id="text_1">
      <!-- $0.0$ -->
      <g transform="translate(38.390359 267.804104)scale(0.08 -0.08)">
       <defs>
        <path d="M 2034 4250 
Q 1547 4250 1301 3770 
Q 1056 3291 1056 2328 
Q 1056 1369 1301 889 
Q 1547 409 2034 409 
Q 2525 409 2770 889 
Q 3016 1369 3016 2328 
Q 3016 3291 2770 3770 
Q 2525 4250 2034 4250 
z
M 2034 4750 
Q 2819 4750 3233 4129 
Q 3647 3509 3647 2328 
Q 3647 1150 3233 529 
Q 2819 -91 2034 -91 
Q 1250 -91 836 529 
Q 422 1150 422 2328 
Q 422 3509 836 4129 
Q 1250 4750 2034 4750 
z
" id="DejaVuSans-30" transform="scale(0.015625)"/>
        <path d="M 684 794 
L 1344 794 
L 1344 0 
L 684 0 
L 684 794 
z
" id="DejaVuSans-2e" transform="scale(0.015625)"/>
       </defs>
       <use transform="translate(0 0.78125)" xlink:href="#DejaVuSans-30"/>
       <use transform="translate(63.623047 0.78125)" xlink:href="#DejaVuSans-2e"/>
       <use transform="translate(95.410156 0.78125)" xlink:href="#DejaVuSans-30"/>
      </g>
     </g>
    </g>
    <g id="xtick_2">
     <g id="line2d_3">
      <g>
       <use style="stroke:#000000;stroke-width:0.5;" x="139.183269" xlink:href="#m42efc3902f" y="258.225354"/>
      </g>
     </g>
     <g id="text_2">
      <!-- $0.5$ -->
      <g transform="translate(132.783269 267.804104)scale(0.08 -0.08)">
       <defs>
        <path d="M 691 4666 
L 3169 4666 
L 3169 4134 
L 1269 4134 
L 1269 2991 
Q 1406 3038 1543 3061 
Q 1681 3084 1819 3084 
Q 2600 3084 3056 2656 
Q 3513 2228 3513 1497 
Q 3513 744 3044 326 
Q 2575 -91 1722 -91 
Q 1428 -91 1123 -41 
Q 819 9 494 109 
L 494 744 
Q 775 591 1075 516 
Q 1375 441 1709 441 
Q 2250 441 2565 725 
Q 2881 1009 2881 1497 
Q 2881 1984 2565 2268 
Q 2250 2553 1709 2553 
Q 1456 2553 1204 2497 
Q 953 2441 691 2322 
L 691 4666 
z
" id="DejaVuSans-35" transform="scale(0.015625)"/>
       </defs>
       <use transform="translate(0 0.78125)" xlink:href="#DejaVuSans-30"/>
       <use transform="translate(63.623047 0.78125)" xlink:href="#DejaVuSans-2e"/>
       <use transform="translate(95.410156 0.78125)" xlink:href="#DejaVuSans-35"/>
      </g>
     </g>
    </g>
    <g id="xtick_3">
     <g id="line2d_4">
      <g>
       <use style="stroke:#000000;stroke-width:0.5;" x="233.576179" xlink:href="#m42efc3902f" y="258.225354"/>
      </g>
     </g>
     <g id="text_3">
      <!-- $1.0$ -->
      <g transform="translate(227.176179 267.804104)scale(0.08 -0.08)">
       <defs>
        <path d="M 794 531 
L 1825 531 
L 1825 4091 
L 703 3866 
L 703 4441 
L 1819 4666 
L 2450 4666 
L 2450 531 
L 3481 531 
L 3481 0 
L 794 0 
L 794 531 
z
" id="DejaVuSans-31" transform="scale(0.015625)"/>
       </defs>
       <use transform="translate(0 0.78125)" xlink:href="#DejaVuSans-31"/>
       <use transform="translate(63.623047 0.78125)" xlink:href="#DejaVuSans-2e"/>
       <use transform="translate(95.410156 0.78125)" xlink:href="#DejaVuSans-30"/>
      </g>
     </g>
    </g>
    <g id="xtick_4">
     <g id="line2d_5">
      <g>
       <use style="stroke:#000000;stroke-width:0.5;" x="327.969089" xlink:href="#m42efc3902f" y="258.225354"/>
      </g>
     </g>
     <g id="text_4">
      <!-- $1.5$ -->
      <g transform="translate(321.569089 267.804104)scale(0.08 -0.08)">
       <use transform="translate(0 0.09375)" xlink:href="#DejaVuSans-31"/>
       <use transform="translate(63.623047 0.09375)" xlink:href="#DejaVuSans-2e"/>
       <use transform="translate(95.410156 0.09375)" xlink:href="#DejaVuSans-35"/>
      </g>
     </g>
    </g>
    <g id="xtick_5">
     <g id="line2d_6">
      <g>
       <use style="stroke:#000000;stroke-width:0.5;" x="422.361999" xlink:href="#m42efc3902f" y="258.225354"/>
      </g>
     </g>
     <g id="text_5">
      <!-- $2.0$ -->
      <g transform="translate(415.961999 267.804104)scale(0.08 -0.08)">
       <defs>
        <path d="M 1228 531 
L 3431 531 
L 3431 0 
L 469 0 
L 469 531 
Q 828 903 1448 1529 
Q 2069 2156 2228 2338 
Q 2531 2678 2651 2914 
Q 2772 3150 2772 3378 
Q 2772 3750 2511 3984 
Q 2250 4219 1831 4219 
Q 1534 4219 1204 4116 
Q 875 4013 500 3803 
L 500 4441 
Q 881 4594 1212 4672 
Q 1544 4750 1819 4750 
Q 2544 4750 2975 4387 
Q 3406 4025 3406 3419 
Q 3406 3131 3298 2873 
Q 3191 2616 2906 2266 
Q 2828 2175 2409 1742 
Q 1991 1309 1228 531 
z
" id="DejaVuSans-32" transform="scale(0.015625)"/>
       </defs>
       <use transform="translate(0 0.78125)" xlink:href="#DejaVuSans-32"/>
       <use transform="translate(63.623047 0.78125)" xlink:href="#DejaVuSans-2e"/>
       <use transform="translate(95.410156 0.78125)" xlink:href="#DejaVuSans-30"/>
      </g>
     </g>
    </g>
    <g id="text_6">
     <!-- Time (s) -->
     <g transform="translate(211.214382 281.826136)scale(0.11 -0.11)">
      <defs>
       <path d="M -19 4666 
L 3928 4666 
L 3928 4134 
L 2272 4134 
L 2272 0 
L 1638 0 
L 1638 4134 
L -19 4134 
L -19 4666 
z
" id="DejaVuSans-54" transform="scale(0.015625)"/>
       <path d="M 603 3500 
L 1178 3500 
L 1178 0 
L 603 0 
L 603 3500 
z
M 603 4863 
L 1178 4863 
L 1178 4134 
L 603 4134 
L 603 4863 
z
" id="DejaVuSans-69" transform="scale(0.015625)"/>
       <path d="M 3328 2828 
Q 3544 3216 3844 3400 
Q 4144 3584 4550 3584 
Q 5097 3584 5394 3201 
Q 5691 2819 5691 2113 
L 5691 0 
L 5113 0 
L 5113 2094 
Q 5113 2597 4934 2840 
Q 4756 3084 4391 3084 
Q 3944 3084 3684 2787 
Q 3425 2491 3425 1978 
L 3425 0 
L 2847 0 
L 2847 2094 
Q 2847 2600 2669 2842 
Q 2491 3084 2119 3084 
Q 1678 3084 1418 2786 
Q 1159 2488 1159 1978 
L 1159 0 
L 581 0 
L 581 3500 
L 1159 3500 
L 1159 2956 
Q 1356 3278 1631 3431 
Q 1906 3584 2284 3584 
Q 2666 3584 2933 3390 
Q 3200 3197 3328 2828 
z
" id="DejaVuSans-6d" transform="scale(0.015625)"/>
       <path d="M 3597 1894 
L 3597 1613 
L 953 1613 
Q 991 1019 1311 708 
Q 1631 397 2203 397 
Q 2534 397 2845 478 
Q 3156 559 3463 722 
L 3463 178 
Q 3153 47 2828 -22 
Q 2503 -91 2169 -91 
Q 1331 -91 842 396 
Q 353 884 353 1716 
Q 353 2575 817 3079 
Q 1281 3584 2069 3584 
Q 2775 3584 3186 3129 
Q 3597 2675 3597 1894 
z
M 3022 2063 
Q 3016 2534 2758 2815 
Q 2500 3097 2075 3097 
Q 1594 3097 1305 2825 
Q 1016 2553 972 2059 
L 3022 2063 
z
" id="DejaVuSans-65" transform="scale(0.015625)"/>
       <path id="DejaVuSans-20" transform="scale(0.015625)"/>
       <path d="M 1984 4856 
Q 1566 4138 1362 3434 
Q 1159 2731 1159 2009 
Q 1159 1288 1364 580 
Q 1569 -128 1984 -844 
L 1484 -844 
Q 1016 -109 783 600 
Q 550 1309 550 2009 
Q 550 2706 781 3412 
Q 1013 4119 1484 4856 
L 1984 4856 
z
" id="DejaVuSans-28" transform="scale(0.015625)"/>
       <path d="M 2834 3397 
L 2834 2853 
Q 2591 2978 2328 3040 
Q 2066 3103 1784 3103 
Q 1356 3103 1142 2972 
Q 928 2841 928 2578 
Q 928 2378 1081 2264 
Q 1234 2150 1697 2047 
L 1894 2003 
Q 2506 1872 2764 1633 
Q 3022 1394 3022 966 
Q 3022 478 2636 193 
Q 2250 -91 1575 -91 
Q 1294 -91 989 -36 
Q 684 19 347 128 
L 347 722 
Q 666 556 975 473 
Q 1284 391 1588 391 
Q 1994 391 2212 530 
Q 2431 669 2431 922 
Q 2431 1156 2273 1281 
Q 2116 1406 1581 1522 
L 1381 1569 
Q 847 1681 609 1914 
Q 372 2147 372 2553 
Q 372 3047 722 3315 
Q 1072 3584 1716 3584 
Q 2034 3584 2315 3537 
Q 2597 3491 2834 3397 
z
" id="DejaVuSans-73" transform="scale(0.015625)"/>
       <path d="M 513 4856 
L 1013 4856 
Q 1481 4119 1714 3412 
Q 1947 2706 1947 2009 
Q 1947 1309 1714 600 
Q 1481 -109 1013 -844 
L 513 -844 
Q 928 -128 1133 580 
Q 1338 1288 1338 2009 
Q 1338 2731 1133 3434 
Q 928 4138 513 4856 
z
" id="DejaVuSans-29" transform="scale(0.015625)"/>
      </defs>
      <use xlink:href="#DejaVuSans-54"/>
      <use x="57.958984" xlink:href="#DejaVuSans-69"/>
      <use x="85.742188" xlink:href="#DejaVuSans-6d"/>
      <use x="183.154297" xlink:href="#DejaVuSans-65"/>
      <use x="244.677734" xlink:href="#DejaVuSans-20"/>
      <use x="276.464844" xlink:href="#DejaVuSans-28"/>
      <use x="315.478516" xlink:href="#DejaVuSans-73"/>
      <use x="367.578125" xlink:href="#DejaVuSans-29"/>
     </g>
    </g>
   </g>
   <g id="matplotlib.axis_2">
    <g id="ytick_1">
     <g id="line2d_7">
      <defs>
       <path d="M 0 0 
L 2.5 0 
" id="mc90c5679fc" style="stroke:#000000;stroke-width:0.5;"/>
      </defs>
      <g>
       <use style="stroke:#000000;stroke-width:0.5;" x="44.790359" xlink:href="#mc90c5679fc" y="244.700765"/>
      </g>
     </g>
     <g id="text_7">
      <!-- $-0.2$ -->
      <g transform="translate(22.250359 247.74014)scale(0.08 -0.08)">
       <defs>
        <path d="M 678 2272 
L 4684 2272 
L 4684 1741 
L 678 1741 
L 678 2272 
z
" id="DejaVuSans-2212" transform="scale(0.015625)"/>
       </defs>
       <use transform="translate(0 0.78125)" xlink:href="#DejaVuSans-2212"/>
       <use transform="translate(83.789062 0.78125)" xlink:href="#DejaVuSans-30"/>
       <use transform="translate(147.412109 0.78125)" xlink:href="#DejaVuSans-2e"/>
       <use transform="translate(173.699219 0.78125)" xlink:href="#DejaVuSans-32"/>
      </g>
     </g>
    </g>
    <g id="ytick_2">
     <g id="line2d_8">
      <g>
       <use style="stroke:#000000;stroke-width:0.5;" x="44.790359" xlink:href="#mc90c5679fc" y="183.870912"/>
      </g>
     </g>
     <g id="text_8">
      <!-- $0.0$ -->
      <g transform="translate(28.490359 186.910287)scale(0.08 -0.08)">
       <use transform="translate(0 0.78125)" xlink:href="#DejaVuSans-30"/>
       <use transform="translate(63.623047 0.78125)" xlink:href="#DejaVuSans-2e"/>
       <use transform="translate(95.410156 0.78125)" xlink:href="#DejaVuSans-30"/>
      </g>
     </g>
    </g>
    <g id="ytick_3">
     <g id="line2d_9">
      <g>
       <use style="stroke:#000000;stroke-width:0.5;" x="44.790359" xlink:href="#mc90c5679fc" y="123.041058"/>
      </g>
     </g>
     <g id="text_9">
      <!-- $0.2$ -->
      <g transform="translate(28.970359 126.080433)scale(0.08 -0.08)">
       <use transform="translate(0 0.78125)" xlink:href="#DejaVuSans-30"/>
       <use transform="translate(63.623047 0.78125)" xlink:href="#DejaVuSans-2e"/>
       <use transform="translate(89.910156 0.78125)" xlink:href="#DejaVuSans-32"/>
      </g>
     </g>
    </g>
    <g id="ytick_4">
     <g id="line2d_10">
      <g>
       <use style="stroke:#000000;stroke-width:0.5;" x="44.790359" xlink:href="#mc90c5679fc" y="62.211205"/>
      </g>
     </g>
     <g id="text_10">
      <!-- $0.4$ -->
      <g transform="translate(28.490359 65.25058)scale(0.08 -0.08)">
       <defs>
        <path d="M 2419 4116 
L 825 1625 
L 2419 1625 
L 2419 4116 
z
M 2253 4666 
L 3047 4666 
L 3047 1625 
L 3713 1625 
L 3713 1100 
L 3047 1100 
L 3047 0 
L 2419 0 
L 2419 1100 
L 313 1100 
L 313 1709 
L 2253 4666 
z
" id="DejaVuSans-34" transform="scale(0.015625)"/>
       </defs>
       <use transform="translate(0 0.78125)" xlink:href="#DejaVuSans-30"/>
       <use transform="translate(63.623047 0.78125)" xlink:href="#DejaVuSans-2e"/>
       <use transform="translate(95.410156 0.78125)" xlink:href="#DejaVuSans-34"/>
      </g>
     </g>
    </g>
    <g id="text_11">
     <!-- $u_y$ ($m$) -->
     <g transform="translate(14.840359 147.855)rotate(-90)scale(0.11 -0.11)">
      <defs>
       <path d="M 428 1388 
L 838 3500 
L 1416 3500 
L 1006 1409 
Q 975 1256 961 1147 
Q 947 1038 947 966 
Q 947 700 1109 554 
Q 1272 409 1569 409 
Q 2031 409 2368 721 
Q 2706 1034 2809 1563 
L 3194 3500 
L 3769 3500 
L 3091 0 
L 2516 0 
L 2631 550 
Q 2388 244 2052 76 
Q 1716 -91 1338 -91 
Q 878 -91 622 161 
Q 366 413 366 863 
Q 366 956 381 1097 
Q 397 1238 428 1388 
z
" id="DejaVuSans-Oblique-75" transform="scale(0.015625)"/>
       <path d="M 1588 -325 
Q 1188 -997 936 -1164 
Q 684 -1331 294 -1331 
L -159 -1331 
L -63 -850 
L 269 -850 
Q 509 -850 678 -719 
Q 847 -588 1056 -206 
L 1234 128 
L 459 3500 
L 1069 3500 
L 1650 819 
L 3256 3500 
L 3859 3500 
L 1588 -325 
z
" id="DejaVuSans-Oblique-79" transform="scale(0.015625)"/>
       <path d="M 5747 2113 
L 5338 0 
L 4763 0 
L 5166 2094 
Q 5191 2228 5203 2325 
Q 5216 2422 5216 2491 
Q 5216 2772 5059 2928 
Q 4903 3084 4622 3084 
Q 4203 3084 3875 2770 
Q 3547 2456 3450 1953 
L 3066 0 
L 2491 0 
L 2900 2094 
Q 2925 2209 2937 2307 
Q 2950 2406 2950 2484 
Q 2950 2769 2794 2926 
Q 2638 3084 2363 3084 
Q 1938 3084 1609 2770 
Q 1281 2456 1184 1953 
L 800 0 
L 225 0 
L 909 3500 
L 1484 3500 
L 1375 2956 
Q 1609 3263 1923 3423 
Q 2238 3584 2597 3584 
Q 2978 3584 3223 3384 
Q 3469 3184 3519 2828 
Q 3781 3197 4126 3390 
Q 4472 3584 4856 3584 
Q 5306 3584 5551 3325 
Q 5797 3066 5797 2591 
Q 5797 2488 5784 2364 
Q 5772 2241 5747 2113 
z
" id="DejaVuSans-Oblique-6d" transform="scale(0.015625)"/>
      </defs>
      <use transform="translate(0 0.125)" xlink:href="#DejaVuSans-Oblique-75"/>
      <use transform="translate(63.378906 -16.28125)scale(0.7)" xlink:href="#DejaVuSans-Oblique-79"/>
      <use transform="translate(107.539062 0.125)" xlink:href="#DejaVuSans-20"/>
      <use transform="translate(139.326172 0.125)" xlink:href="#DejaVuSans-28"/>
      <use transform="translate(178.339844 0.125)" xlink:href="#DejaVuSans-Oblique-6d"/>
      <use transform="translate(275.751953 0.125)" xlink:href="#DejaVuSans-29"/>
     </g>
    </g>
   </g>
   <g id="patch_3">
    <path d="M 44.790359 258.225354 
L 44.790359 2.834646 
" style="fill:none;stroke:#000000;stroke-linecap:square;stroke-linejoin:miter;"/>
   </g>
   <g id="patch_4">
    <path d="M 44.790359 258.225354 
L 422.361999 258.225354 
" style="fill:none;stroke:#000000;stroke-linecap:square;stroke-linejoin:miter;"/>
   </g>
  </g>
 </g>
 <defs>
  <clipPath id="pe35f96a423">
   <rect height="255.390709" width="377.57164" x="44.790359" y="2.834646"/>
  </clipPath>
 </defs>
</svg>
