<?xml version="1.0" encoding="utf-8" standalone="no"?>
<!DOCTYPE svg PUBLIC "-//W3C//DTD SVG 1.1//EN"
  "http://www.w3.org/Graphics/SVG/1.1/DTD/svg11.dtd">
<svg height="288pt" version="1.1" viewBox="0 0 432 288" width="432pt" xmlns="http://www.w3.org/2000/svg" xmlns:xlink="http://www.w3.org/1999/xlink">
 <metadata>
  <rdf:RDF xmlns:cc="http://creativecommons.org/ns#" xmlns:dc="http://purl.org/dc/elements/1.1/" xmlns:rdf="http://www.w3.org/1999/02/22-rdf-syntax-ns#">
   <cc:Work>
    <dc:type rdf:resource="http://purl.org/dc/dcmitype/StillImage"/>
    <dc:date>2021-09-30T17:43:11.821822</dc:date>
    <dc:format>image/svg+xml</dc:format>
    <dc:creator>
     <cc:Agent>
      <dc:title>Matplotlib v3.4.2, https://matplotlib.org/</dc:title>
     </cc:Agent>
    </dc:creator>
   </cc:Work>
  </rdf:RDF>
 </metadata>
 <defs>
  <style type="text/css">*{stroke-linecap:butt;stroke-linejoin:round;}</style>
 </defs>
 <g id="figure_1">
  <g id="patch_1">
   <path d="M 0 288 
L 432 288 
L 432 0 
L 0 0 
z
" style="fill:#ffffff;"/>
  </g>
  <g id="axes_1">
   <g id="patch_2">
    <path d="M 64.557544 258.225354 
L 422.361999 258.225354 
L 422.361999 2.834646 
L 64.557544 2.834646 
z
" style="fill:#ffffff;"/>
   </g>
   <g id="line2d_1">
    <path clip-path="url(#pd2421fda43)" d="M 64.557544 148.866734 
L 71.713633 148.987229 
L 72.965948 149.011066 
L 74.754971 149.068009 
L 76.365091 148.947139 
L 80.479842 148.713347 
L 84.057887 148.583003 
L 86.74142 148.682613 
L 88.530442 148.655665 
L 89.782758 148.97983 
L 91.392878 149.733365 
L 92.824096 150.954535 
L 95.328727 153.067981 
L 96.759945 153.957795 
L 97.475554 154.073999 
L 98.01226 154.103882 
L 98.548967 153.864533 
L 99.264576 153.409153 
L 100.159087 152.369893 
L 100.695794 151.515449 
L 101.948109 148.909084 
L 103.379327 144.981632 
L 106.77847 135.751539 
L 107.672981 133.732556 
L 108.746394 131.714657 
L 109.99871 129.79091 
L 111.251025 128.452063 
L 111.966634 128.11967 
L 112.503341 128.145264 
L 113.21895 128.513694 
L 113.755656 129.134599 
L 114.471265 130.30418 
L 115.186874 131.986263 
L 115.902483 134.298002 
L 116.796994 137.949614 
L 117.691505 142.349183 
L 118.943821 149.795001 
L 120.732843 162.021005 
L 122.342963 172.309317 
L 123.416377 177.728289 
L 124.131986 180.369414 
L 124.668692 181.730677 
L 125.205399 182.497363 
L 125.563203 182.771546 
L 125.921008 182.793073 
L 126.278812 182.609925 
L 126.636617 182.235553 
L 127.173323 181.260524 
L 127.888932 179.466862 
L 128.783444 176.408064 
L 132.719293 161.004874 
L 133.613804 158.539692 
L 134.508315 156.685107 
L 136.476239 152.643775 
L 137.549653 149.831635 
L 138.444164 147.059544 
L 139.875382 141.505378 
L 142.022208 133.392432 
L 142.91672 130.87302 
L 143.632328 129.451553 
L 144.169035 128.899994 
L 144.52684 128.801009 
L 144.884644 128.905868 
L 145.242448 129.24354 
L 145.779155 130.220071 
L 146.494764 132.245555 
L 147.389275 135.606227 
L 149.3572 142.970508 
L 150.251711 145.367986 
L 150.788418 146.236112 
L 151.325124 146.734441 
L 151.682929 146.829371 
L 152.398538 146.806785 
L 152.935244 146.521091 
L 154.008658 145.644397 
L 155.082071 144.49219 
L 156.334387 143.220851 
L 157.4078 142.601381 
L 158.839018 142.040758 
L 160.270236 140.966279 
L 160.806942 140.201035 
L 161.522551 138.675501 
L 162.23816 136.537161 
L 162.953769 133.792847 
L 166.531814 118.34619 
L 167.247422 116.684636 
L 167.605227 116.264376 
L 167.963031 116.078148 
L 168.320836 116.235159 
L 168.67864 116.807853 
L 169.215347 118.230873 
L 169.752054 120.662829 
L 170.467663 125.133857 
L 171.362174 132.549686 
L 172.793392 147.168516 
L 174.403512 162.982551 
L 175.476925 171.336244 
L 176.729241 179.400449 
L 178.697165 190.269159 
L 180.486187 199.126501 
L 181.201796 201.649035 
L 181.738503 202.99242 
L 182.27521 203.635595 
L 182.633014 203.812889 
L 182.990819 203.61444 
L 183.527525 202.833866 
L 184.064232 201.347114 
L 184.600939 199.293864 
L 185.316547 195.367461 
L 186.211059 189.280493 
L 188.894592 170.729418 
L 189.789103 165.852421 
L 190.504712 162.725078 
L 191.220321 160.54541 
L 192.293734 158.397685 
L 193.009343 157.107416 
L 193.903854 154.765263 
L 194.619463 151.750393 
L 195.15617 148.54181 
L 195.871779 142.719597 
L 196.945192 130.857929 
L 198.37641 114.050578 
L 199.092019 108.128987 
L 199.628726 105.495272 
L 199.98653 104.770975 
L 200.165432 104.74232 
L 200.344335 104.990169 
L 200.702139 106.337975 
L 201.059944 108.698288 
L 201.59665 114.164778 
L 202.312259 125.014181 
L 203.20677 142.742221 
L 204.637988 171.641558 
L 205.174695 179.337007 
L 205.711401 184.180839 
L 206.069206 185.596977 
L 206.248108 185.775239 
L 206.42701 185.612274 
L 206.605913 185.064417 
L 206.963717 182.911432 
L 207.500424 177.679274 
L 208.216033 167.63953 
L 210.005055 142.143346 
L 210.541762 137.188818 
L 211.257371 132.631684 
L 212.151882 128.973022 
L 213.404197 125.344998 
L 215.908828 119.719516 
L 216.624437 116.914415 
L 217.340046 113.075854 
L 218.055655 108.416936 
L 220.202482 92.436367 
L 220.560286 90.975186 
L 220.918091 90.452369 
L 221.096993 90.56052 
L 221.275895 90.886638 
L 221.6337 92.338414 
L 221.991504 94.950967 
L 222.528211 100.755078 
L 223.422722 113.766392 
L 224.85394 134.895286 
L 225.569549 142.103333 
L 226.106255 145.149062 
L 226.46406 145.938213 
L 226.642962 146.016322 
L 226.821864 145.872614 
L 227.179669 144.982745 
L 227.895278 142.058351 
L 228.431984 139.868685 
L 228.789789 139.20984 
L 228.968691 139.16716 
L 229.147593 139.316219 
L 229.326496 139.680955 
L 229.6843 141.221177 
L 230.221007 145.334695 
L 230.757713 151.331833 
L 231.652224 164.416794 
L 235.766976 231.645767 
L 236.482585 238.931105 
L 236.840389 241.004527 
L 237.198194 241.818954 
L 237.377096 241.685223 
L 237.555998 241.161533 
L 237.913802 238.938627 
L 238.271607 235.143576 
L 238.808314 226.737912 
L 239.702825 207.587544 
L 240.95514 180.827686 
L 241.491847 173.400699 
L 241.849651 170.550207 
L 242.207456 169.123873 
L 242.386358 168.907083 
L 242.56526 169.073488 
L 242.923065 170.329386 
L 243.459771 173.410096 
L 244.354283 179.36052 
L 244.712087 180.855602 
L 245.069892 181.481913 
L 245.248794 181.337696 
L 245.606598 180.321704 
L 245.964403 178.573221 
L 246.501109 174.508608 
L 247.753425 164.640605 
L 248.111229 163.149471 
L 248.290132 162.813077 
L 248.469034 162.811888 
L 248.647936 163.227181 
L 249.005741 165.271908 
L 249.363545 168.905566 
L 249.900252 176.888493 
L 251.33147 199.810285 
L 251.868176 204.688263 
L 252.225981 206.365472 
L 252.583785 207.163143 
L 252.762687 207.24061 
L 252.94159 207.062665 
L 253.299394 206.087588 
L 253.657198 204.268861 
L 254.015003 201.055217 
L 254.55171 193.438908 
L 255.088416 182.065705 
L 255.982927 157.14168 
L 257.414145 108.874389 
L 259.739874 27.100663 
L 260.276581 16.219583 
L 260.634385 11.987467 
L 260.99219 10.15563 
L 261.171092 10.062685 
L 261.349994 10.601376 
L 261.707799 13.608767 
L 262.244505 21.788251 
L 262.781212 33.899674 
L 264.928039 88.253372 
L 265.285843 92.499742 
L 265.643648 94.526281 
L 265.82255 94.708708 
L 266.001452 94.344507 
L 266.359257 92.186382 
L 267.074866 85.165384 
L 267.611572 80.487118 
L 267.969377 78.950299 
L 268.148279 78.761487 
L 268.327181 78.983445 
L 268.684986 80.731581 
L 269.04279 84.06004 
L 269.579497 92.244614 
L 270.116203 104.112627 
L 270.831812 126.135039 
L 271.726323 161.76456 
L 273.336444 226.310293 
L 273.87315 240.808512 
L 274.409857 249.016586 
L 274.767661 250.997315 
L 274.946564 250.805899 
L 275.304368 248.413729 
L 275.662172 243.758192 
L 276.198879 232.1031 
L 276.914488 210.903155 
L 278.70351 151.955036 
L 279.598021 130.218164 
L 280.31363 118.015367 
L 280.850337 111.843642 
L 281.565946 105.522518 
L 282.281555 101.460669 
L 282.639359 100.387589 
L 282.818262 100.405775 
L 282.997164 100.752253 
L 283.354968 102.509924 
L 283.712773 106.161657 
L 284.249479 114.671532 
L 286.396306 154.002435 
L 286.933013 158.569489 
L 287.111915 159.342651 
L 287.290817 159.590223 
L 287.46972 159.371167 
L 287.827524 157.718663 
L 288.185328 154.109914 
L 288.722035 145.000031 
L 289.437644 128.201806 
L 290.868862 93.101245 
L 291.763373 77.061069 
L 292.30008 71.377671 
L 292.657884 69.705859 
L 292.836786 69.70181 
L 293.015689 70.250984 
L 293.373493 72.968733 
L 293.731297 78.279584 
L 294.268004 91.04686 
L 294.983613 116.247353 
L 297.309342 208.527484 
L 297.846049 219.014544 
L 298.203853 222.110337 
L 298.382755 222.59204 
L 298.561658 222.417935 
L 298.74056 221.603838 
L 299.098364 218.359964 
L 299.813973 208.632679 
L 300.708484 196.410178 
L 301.245191 192.014128 
L 301.424093 191.466575 
L 301.602996 191.462555 
L 301.781898 191.854463 
L 302.139702 193.642987 
L 302.497507 197.297594 
L 303.213116 209.064897 
L 304.107627 224.923476 
L 304.465431 228.597384 
L 304.644333 229.585361 
L 304.823236 229.897219 
L 305.002138 229.457972 
L 305.359942 226.728306 
L 305.896649 219.021112 
L 306.970062 201.438637 
L 307.327867 198.828573 
L 307.506769 198.44462 
L 307.685671 198.625004 
L 308.043476 200.334821 
L 308.937987 206.976849 
L 309.116889 207.544823 
L 309.295791 207.666625 
L 309.474694 207.205011 
L 309.832498 204.251196 
L 310.190302 198.833469 
L 310.727009 186.885648 
L 312.516031 142.361674 
L 313.052738 132.441261 
L 313.410543 129.100193 
L 313.589445 128.799909 
L 313.768347 129.503687 
L 313.947249 131.364495 
L 314.305054 139.279719 
L 314.84176 161.254204 
L 315.736272 214.324369 
L 316.272978 239.874471 
L 316.630783 248.249706 
L 316.809685 249.106399 
L 316.988587 247.732903 
L 317.346392 239.493768 
L 317.883098 217.71988 
L 319.314316 151.967942 
L 320.208827 121.211308 
L 320.924436 103.326796 
L 321.640045 90.970385 
L 322.355654 82.618114 
L 322.713458 80.095001 
L 323.071263 78.956001 
L 323.250165 79.044096 
L 323.429067 79.727074 
L 323.786872 82.660002 
L 324.323578 89.344925 
L 325.039187 101.374171 
L 325.575894 112.706188 
L 326.470405 137.94893 
L 327.543819 170.553891 
L 328.080525 180.647617 
L 328.617232 185.913285 
L 328.975036 188.262049 
L 329.511743 190.255715 
L 329.690645 190.439138 
L 329.869547 190.049951 
L 330.227352 187.231003 
L 330.585156 182.006117 
L 331.121863 169.386933 
L 332.731983 127.538217 
L 333.089788 123.071067 
L 333.26869 122.779718 
L 333.447592 123.91125 
L 333.805397 130.311265 
L 335.236614 167.146257 
L 335.773321 173.000993 
L 337.204539 183.632065 
L 337.920148 187.901644 
L 338.09905 188.271403 
L 338.277952 187.987327 
L 338.456854 186.94999 
L 338.814659 182.287838 
L 339.351366 170.059694 
L 340.603681 139.643541 
L 340.961486 134.702096 
L 341.140388 133.698284 
L 341.31929 133.860205 
L 341.498192 135.417449 
L 341.855997 142.740155 
L 343.108312 178.537384 
L 343.466117 182.936043 
L 343.645019 183.807205 
L 343.823921 183.826819 
L 344.002823 182.974021 
L 344.360628 178.317932 
L 344.897335 165.16745 
L 345.970748 136.568403 
L 347.044161 118.234543 
L 347.401966 114.666448 
L 347.580868 114.396392 
L 347.75977 115.400815 
L 348.117575 121.210069 
L 348.654281 136.176972 
L 349.548793 164.563775 
L 350.085499 174.409672 
L 350.264401 175.625658 
L 350.443304 175.820615 
L 350.622206 175.15677 
L 350.801108 173.579792 
L 351.158913 166.903555 
L 351.874522 143.269657 
L 352.947935 101.181231 
L 353.842446 66.274848 
L 354.379153 54.879819 
L 354.736957 51.347002 
L 354.915859 50.750254 
L 355.094762 50.896828 
L 355.273664 51.67077 
L 355.631468 55.141816 
L 355.989273 61.168578 
L 356.883784 79.940734 
L 357.241588 82.873239 
L 357.420491 83.017025 
L 357.599393 82.486811 
L 358.136099 80.005594 
L 358.315002 80.461445 
L 358.672806 84.003207 
L 359.209513 91.829154 
L 359.74622 102.740758 
L 360.282926 118.422561 
L 361.35634 157.04081 
L 361.714144 163.498582 
L 361.893046 164.641631 
L 362.071948 164.653298 
L 362.429753 163.068143 
L 363.145362 159.504387 
L 363.503166 155.316862 
L 363.860971 146.417814 
L 364.934384 110.862365 
L 365.292189 106.511229 
L 365.471091 105.87515 
L 365.649993 106.104526 
L 365.828895 107.210669 
L 366.1867 111.686293 
L 366.723406 122.536623 
L 367.260113 142.121383 
L 368.333526 195.430083 
L 369.049135 226.271846 
L 369.40694 236.354059 
L 369.764744 240.803324 
L 369.943647 241.302657 
L 370.122549 240.781096 
L 370.480353 237.174628 
L 371.195962 224.619887 
L 371.732669 210.598603 
L 372.269375 188.949328 
L 373.342789 137.483601 
L 373.879496 124.993551 
L 374.952909 105.845827 
L 375.131811 104.102452 
L 375.310713 103.587342 
L 375.489616 104.545429 
L 375.84742 110.06167 
L 376.384127 117.974185 
L 377.278638 124.643452 
L 378.173149 138.037926 
L 378.352051 138.038536 
L 378.888758 134.967476 
L 379.06766 135.818078 
L 379.246562 138.766984 
L 379.604367 150.842063 
L 380.319976 179.263288 
L 380.67778 184.187527 
L 380.856682 184.541454 
L 381.214487 183.748544 
L 381.751194 181.74988 
L 382.108998 177.99412 
L 383.003509 162.767003 
L 383.182411 163.802156 
L 384.076922 176.399152 
L 384.255825 176.062211 
L 384.613629 172.040875 
L 384.971434 167.550557 
L 385.329238 165.701553 
L 385.687043 164.084252 
L 386.044847 160.06762 
L 387.11826 142.446861 
L 387.297163 143.319234 
L 387.654967 148.131837 
L 388.907283 169.667915 
L 389.265087 174.511404 
L 390.159598 189.139161 
L 390.3385 189.963111 
L 390.517403 189.478722 
L 390.696305 187.443265 
L 391.054109 178.511566 
L 392.485327 133.043407 
L 393.379838 115.074876 
L 393.916545 107.403525 
L 394.453252 94.439084 
L 395.168861 74.456525 
L 395.526665 70.251579 
L 395.705567 70.148887 
L 395.88447 71.062073 
L 396.242274 75.417487 
L 396.600078 82.750089 
L 396.957883 94.597489 
L 398.210198 146.389959 
L 398.568003 150.353839 
L 398.746905 150.431825 
L 398.925807 149.530663 
L 399.10471 147.542292 
L 399.462514 139.590533 
L 399.820319 130.220694 
L 399.999221 127.907875 
L 400.178123 127.751355 
L 400.535927 131.20306 
L 401.251536 139.381093 
L 401.788243 140.872101 
L 402.146047 142.926081 
L 402.32495 142.568916 
L 402.861656 137.817121 
L 403.219461 137.214338 
L 403.398363 136.192243 
L 404.113972 128.725538 
L 404.292874 128.970417 
L 404.471776 130.545474 
L 405.008483 137.459868 
L 405.187385 136.72236 
L 405.724092 130.336162 
L 405.902994 131.549421 
L 406.976408 148.093906 
L 407.334212 150.044823 
L 407.513114 150.202044 
L 407.692017 150.943377 
L 407.870919 153.027524 
L 408.228723 161.914708 
L 408.76543 185.203889 
L 409.481039 217.438073 
L 410.554452 246.984325 
L 410.733354 248.594603 
L 410.912257 247.938501 
L 411.091159 245.051726 
L 412.343474 213.688173 
L 413.237986 194.12021 
L 413.59579 178.321836 
L 414.311399 136.452699 
L 415.20591 102.169359 
L 415.563715 96.136302 
L 415.742617 95.41235 
L 415.921519 95.95916 
L 416.279323 100.332119 
L 416.81603 111.650115 
L 417.531639 129.118668 
L 417.710541 129.129773 
L 418.068346 127.15185 
L 418.247248 128.181858 
L 418.783955 134.596998 
L 418.962857 134.798409 
L 419.141759 134.591467 
L 419.320661 134.869592 
L 419.678466 136.296656 
L 419.857368 135.79878 
L 420.394075 131.855844 
L 420.572977 131.877198 
L 421.109684 133.90313 
L 421.288586 133.919322 
L 421.467488 133.154528 
L 421.64639 131.405696 
L 422.004195 124.654215 
L 422.361999 116.51436 
L 422.361999 116.51436 
" style="fill:none;stroke:#009afa;"/>
   </g>
   <g id="matplotlib.axis_1">
    <g id="xtick_1">
     <g id="line2d_2">
      <defs>
       <path d="M 0 0 
L 0 -2.5 
" id="m91c6ca5735" style="stroke:#000000;stroke-width:0.5;"/>
      </defs>
      <g>
       <use style="stroke:#000000;stroke-width:0.5;" x="64.557544" xlink:href="#m91c6ca5735" y="258.225354"/>
      </g>
     </g>
     <g id="text_1">
      <!-- $0.0$ -->
      <g transform="translate(58.157544 267.804104)scale(0.08 -0.08)">
       <defs>
        <path d="M 2034 4250 
Q 1547 4250 1301 3770 
Q 1056 3291 1056 2328 
Q 1056 1369 1301 889 
Q 1547 409 2034 409 
Q 2525 409 2770 889 
Q 3016 1369 3016 2328 
Q 3016 3291 2770 3770 
Q 2525 4250 2034 4250 
z
M 2034 4750 
Q 2819 4750 3233 4129 
Q 3647 3509 3647 2328 
Q 3647 1150 3233 529 
Q 2819 -91 2034 -91 
Q 1250 -91 836 529 
Q 422 1150 422 2328 
Q 422 3509 836 4129 
Q 1250 4750 2034 4750 
z
" id="DejaVuSans-30" transform="scale(0.015625)"/>
        <path d="M 684 794 
L 1344 794 
L 1344 0 
L 684 0 
L 684 794 
z
" id="DejaVuSans-2e" transform="scale(0.015625)"/>
       </defs>
       <use transform="translate(0 0.78125)" xlink:href="#DejaVuSans-30"/>
       <use transform="translate(63.623047 0.78125)" xlink:href="#DejaVuSans-2e"/>
       <use transform="translate(95.410156 0.78125)" xlink:href="#DejaVuSans-30"/>
      </g>
     </g>
    </g>
    <g id="xtick_2">
     <g id="line2d_3">
      <g>
       <use style="stroke:#000000;stroke-width:0.5;" x="154.008658" xlink:href="#m91c6ca5735" y="258.225354"/>
      </g>
     </g>
     <g id="text_2">
      <!-- $0.5$ -->
      <g transform="translate(147.608658 267.804104)scale(0.08 -0.08)">
       <defs>
        <path d="M 691 4666 
L 3169 4666 
L 3169 4134 
L 1269 4134 
L 1269 2991 
Q 1406 3038 1543 3061 
Q 1681 3084 1819 3084 
Q 2600 3084 3056 2656 
Q 3513 2228 3513 1497 
Q 3513 744 3044 326 
Q 2575 -91 1722 -91 
Q 1428 -91 1123 -41 
Q 819 9 494 109 
L 494 744 
Q 775 591 1075 516 
Q 1375 441 1709 441 
Q 2250 441 2565 725 
Q 2881 1009 2881 1497 
Q 2881 1984 2565 2268 
Q 2250 2553 1709 2553 
Q 1456 2553 1204 2497 
Q 953 2441 691 2322 
L 691 4666 
z
" id="DejaVuSans-35" transform="scale(0.015625)"/>
       </defs>
       <use transform="translate(0 0.78125)" xlink:href="#DejaVuSans-30"/>
       <use transform="translate(63.623047 0.78125)" xlink:href="#DejaVuSans-2e"/>
       <use transform="translate(95.410156 0.78125)" xlink:href="#DejaVuSans-35"/>
      </g>
     </g>
    </g>
    <g id="xtick_3">
     <g id="line2d_4">
      <g>
       <use style="stroke:#000000;stroke-width:0.5;" x="243.459771" xlink:href="#m91c6ca5735" y="258.225354"/>
      </g>
     </g>
     <g id="text_3">
      <!-- $1.0$ -->
      <g transform="translate(237.059771 267.804104)scale(0.08 -0.08)">
       <defs>
        <path d="M 794 531 
L 1825 531 
L 1825 4091 
L 703 3866 
L 703 4441 
L 1819 4666 
L 2450 4666 
L 2450 531 
L 3481 531 
L 3481 0 
L 794 0 
L 794 531 
z
" id="DejaVuSans-31" transform="scale(0.015625)"/>
       </defs>
       <use transform="translate(0 0.78125)" xlink:href="#DejaVuSans-31"/>
       <use transform="translate(63.623047 0.78125)" xlink:href="#DejaVuSans-2e"/>
       <use transform="translate(95.410156 0.78125)" xlink:href="#DejaVuSans-30"/>
      </g>
     </g>
    </g>
    <g id="xtick_4">
     <g id="line2d_5">
      <g>
       <use style="stroke:#000000;stroke-width:0.5;" x="332.910885" xlink:href="#m91c6ca5735" y="258.225354"/>
      </g>
     </g>
     <g id="text_4">
      <!-- $1.5$ -->
      <g transform="translate(326.510885 267.804104)scale(0.08 -0.08)">
       <use transform="translate(0 0.09375)" xlink:href="#DejaVuSans-31"/>
       <use transform="translate(63.623047 0.09375)" xlink:href="#DejaVuSans-2e"/>
       <use transform="translate(95.410156 0.09375)" xlink:href="#DejaVuSans-35"/>
      </g>
     </g>
    </g>
    <g id="xtick_5">
     <g id="line2d_6">
      <g>
       <use style="stroke:#000000;stroke-width:0.5;" x="422.361999" xlink:href="#m91c6ca5735" y="258.225354"/>
      </g>
     </g>
     <g id="text_5">
      <!-- $2.0$ -->
      <g transform="translate(415.961999 267.804104)scale(0.08 -0.08)">
       <defs>
        <path d="M 1228 531 
L 3431 531 
L 3431 0 
L 469 0 
L 469 531 
Q 828 903 1448 1529 
Q 2069 2156 2228 2338 
Q 2531 2678 2651 2914 
Q 2772 3150 2772 3378 
Q 2772 3750 2511 3984 
Q 2250 4219 1831 4219 
Q 1534 4219 1204 4116 
Q 875 4013 500 3803 
L 500 4441 
Q 881 4594 1212 4672 
Q 1544 4750 1819 4750 
Q 2544 4750 2975 4387 
Q 3406 4025 3406 3419 
Q 3406 3131 3298 2873 
Q 3191 2616 2906 2266 
Q 2828 2175 2409 1742 
Q 1991 1309 1228 531 
z
" id="DejaVuSans-32" transform="scale(0.015625)"/>
       </defs>
       <use transform="translate(0 0.78125)" xlink:href="#DejaVuSans-32"/>
       <use transform="translate(63.623047 0.78125)" xlink:href="#DejaVuSans-2e"/>
       <use transform="translate(95.410156 0.78125)" xlink:href="#DejaVuSans-30"/>
      </g>
     </g>
    </g>
    <g id="text_6">
     <!-- Time (s) -->
     <g transform="translate(221.097975 281.826136)scale(0.11 -0.11)">
      <defs>
       <path d="M -19 4666 
L 3928 4666 
L 3928 4134 
L 2272 4134 
L 2272 0 
L 1638 0 
L 1638 4134 
L -19 4134 
L -19 4666 
z
" id="DejaVuSans-54" transform="scale(0.015625)"/>
       <path d="M 603 3500 
L 1178 3500 
L 1178 0 
L 603 0 
L 603 3500 
z
M 603 4863 
L 1178 4863 
L 1178 4134 
L 603 4134 
L 603 4863 
z
" id="DejaVuSans-69" transform="scale(0.015625)"/>
       <path d="M 3328 2828 
Q 3544 3216 3844 3400 
Q 4144 3584 4550 3584 
Q 5097 3584 5394 3201 
Q 5691 2819 5691 2113 
L 5691 0 
L 5113 0 
L 5113 2094 
Q 5113 2597 4934 2840 
Q 4756 3084 4391 3084 
Q 3944 3084 3684 2787 
Q 3425 2491 3425 1978 
L 3425 0 
L 2847 0 
L 2847 2094 
Q 2847 2600 2669 2842 
Q 2491 3084 2119 3084 
Q 1678 3084 1418 2786 
Q 1159 2488 1159 1978 
L 1159 0 
L 581 0 
L 581 3500 
L 1159 3500 
L 1159 2956 
Q 1356 3278 1631 3431 
Q 1906 3584 2284 3584 
Q 2666 3584 2933 3390 
Q 3200 3197 3328 2828 
z
" id="DejaVuSans-6d" transform="scale(0.015625)"/>
       <path d="M 3597 1894 
L 3597 1613 
L 953 1613 
Q 991 1019 1311 708 
Q 1631 397 2203 397 
Q 2534 397 2845 478 
Q 3156 559 3463 722 
L 3463 178 
Q 3153 47 2828 -22 
Q 2503 -91 2169 -91 
Q 1331 -91 842 396 
Q 353 884 353 1716 
Q 353 2575 817 3079 
Q 1281 3584 2069 3584 
Q 2775 3584 3186 3129 
Q 3597 2675 3597 1894 
z
M 3022 2063 
Q 3016 2534 2758 2815 
Q 2500 3097 2075 3097 
Q 1594 3097 1305 2825 
Q 1016 2553 972 2059 
L 3022 2063 
z
" id="DejaVuSans-65" transform="scale(0.015625)"/>
       <path id="DejaVuSans-20" transform="scale(0.015625)"/>
       <path d="M 1984 4856 
Q 1566 4138 1362 3434 
Q 1159 2731 1159 2009 
Q 1159 1288 1364 580 
Q 1569 -128 1984 -844 
L 1484 -844 
Q 1016 -109 783 600 
Q 550 1309 550 2009 
Q 550 2706 781 3412 
Q 1013 4119 1484 4856 
L 1984 4856 
z
" id="DejaVuSans-28" transform="scale(0.015625)"/>
       <path d="M 2834 3397 
L 2834 2853 
Q 2591 2978 2328 3040 
Q 2066 3103 1784 3103 
Q 1356 3103 1142 2972 
Q 928 2841 928 2578 
Q 928 2378 1081 2264 
Q 1234 2150 1697 2047 
L 1894 2003 
Q 2506 1872 2764 1633 
Q 3022 1394 3022 966 
Q 3022 478 2636 193 
Q 2250 -91 1575 -91 
Q 1294 -91 989 -36 
Q 684 19 347 128 
L 347 722 
Q 666 556 975 473 
Q 1284 391 1588 391 
Q 1994 391 2212 530 
Q 2431 669 2431 922 
Q 2431 1156 2273 1281 
Q 2116 1406 1581 1522 
L 1381 1569 
Q 847 1681 609 1914 
Q 372 2147 372 2553 
Q 372 3047 722 3315 
Q 1072 3584 1716 3584 
Q 2034 3584 2315 3537 
Q 2597 3491 2834 3397 
z
" id="DejaVuSans-73" transform="scale(0.015625)"/>
       <path d="M 513 4856 
L 1013 4856 
Q 1481 4119 1714 3412 
Q 1947 2706 1947 2009 
Q 1947 1309 1714 600 
Q 1481 -109 1013 -844 
L 513 -844 
Q 928 -128 1133 580 
Q 1338 1288 1338 2009 
Q 1338 2731 1133 3434 
Q 928 4138 513 4856 
z
" id="DejaVuSans-29" transform="scale(0.015625)"/>
      </defs>
      <use xlink:href="#DejaVuSans-54"/>
      <use x="57.958984" xlink:href="#DejaVuSans-69"/>
      <use x="85.742188" xlink:href="#DejaVuSans-6d"/>
      <use x="183.154297" xlink:href="#DejaVuSans-65"/>
      <use x="244.677734" xlink:href="#DejaVuSans-20"/>
      <use x="276.464844" xlink:href="#DejaVuSans-28"/>
      <use x="315.478516" xlink:href="#DejaVuSans-73"/>
      <use x="367.578125" xlink:href="#DejaVuSans-29"/>
     </g>
    </g>
   </g>
   <g id="matplotlib.axis_2">
    <g id="ytick_1">
     <g id="line2d_7">
      <defs>
       <path d="M 0 0 
L 2.5 0 
" id="m58f409e544" style="stroke:#000000;stroke-width:0.5;"/>
      </defs>
      <g>
       <use style="stroke:#000000;stroke-width:0.5;" x="64.557544" xlink:href="#m58f409e544" y="225.55321"/>
      </g>
     </g>
     <g id="text_7">
      <!-- $-2.0×10^{6}$ -->
      <g transform="translate(20.817544 228.592585)scale(0.08 -0.08)">
       <defs>
        <path d="M 678 2272 
L 4684 2272 
L 4684 1741 
L 678 1741 
L 678 2272 
z
" id="DejaVuSans-2212" transform="scale(0.015625)"/>
        <path d="M 4488 3438 
L 3059 2003 
L 4488 575 
L 4116 197 
L 2681 1631 
L 1247 197 
L 878 575 
L 2303 2003 
L 878 3438 
L 1247 3816 
L 2681 2381 
L 4116 3816 
L 4488 3438 
z
" id="DejaVuSans-d7" transform="scale(0.015625)"/>
        <path d="M 2113 2584 
Q 1688 2584 1439 2293 
Q 1191 2003 1191 1497 
Q 1191 994 1439 701 
Q 1688 409 2113 409 
Q 2538 409 2786 701 
Q 3034 994 3034 1497 
Q 3034 2003 2786 2293 
Q 2538 2584 2113 2584 
z
M 3366 4563 
L 3366 3988 
Q 3128 4100 2886 4159 
Q 2644 4219 2406 4219 
Q 1781 4219 1451 3797 
Q 1122 3375 1075 2522 
Q 1259 2794 1537 2939 
Q 1816 3084 2150 3084 
Q 2853 3084 3261 2657 
Q 3669 2231 3669 1497 
Q 3669 778 3244 343 
Q 2819 -91 2113 -91 
Q 1303 -91 875 529 
Q 447 1150 447 2328 
Q 447 3434 972 4092 
Q 1497 4750 2381 4750 
Q 2619 4750 2861 4703 
Q 3103 4656 3366 4563 
z
" id="DejaVuSans-36" transform="scale(0.015625)"/>
       </defs>
       <use transform="translate(0 0.765625)" xlink:href="#DejaVuSans-2212"/>
       <use transform="translate(83.789062 0.765625)" xlink:href="#DejaVuSans-32"/>
       <use transform="translate(147.412109 0.765625)" xlink:href="#DejaVuSans-2e"/>
       <use transform="translate(179.199219 0.765625)" xlink:href="#DejaVuSans-30"/>
       <use transform="translate(242.822266 0.765625)" xlink:href="#DejaVuSans-d7"/>
       <use transform="translate(326.611328 0.765625)" xlink:href="#DejaVuSans-31"/>
       <use transform="translate(390.234375 0.765625)" xlink:href="#DejaVuSans-30"/>
       <use transform="translate(454.814453 39.046875)scale(0.7)" xlink:href="#DejaVuSans-36"/>
      </g>
     </g>
    </g>
    <g id="ytick_2">
     <g id="line2d_8">
      <g>
       <use style="stroke:#000000;stroke-width:0.5;" x="64.557544" xlink:href="#m58f409e544" y="187.209972"/>
      </g>
     </g>
     <g id="text_8">
      <!-- $-1.0×10^{6}$ -->
      <g transform="translate(20.817544 190.249347)scale(0.08 -0.08)">
       <use transform="translate(0 0.765625)" xlink:href="#DejaVuSans-2212"/>
       <use transform="translate(83.789062 0.765625)" xlink:href="#DejaVuSans-31"/>
       <use transform="translate(147.412109 0.765625)" xlink:href="#DejaVuSans-2e"/>
       <use transform="translate(179.199219 0.765625)" xlink:href="#DejaVuSans-30"/>
       <use transform="translate(242.822266 0.765625)" xlink:href="#DejaVuSans-d7"/>
       <use transform="translate(326.611328 0.765625)" xlink:href="#DejaVuSans-31"/>
       <use transform="translate(390.234375 0.765625)" xlink:href="#DejaVuSans-30"/>
       <use transform="translate(454.814453 39.046875)scale(0.7)" xlink:href="#DejaVuSans-36"/>
      </g>
     </g>
    </g>
    <g id="ytick_3">
     <g id="line2d_9">
      <g>
       <use style="stroke:#000000;stroke-width:0.5;" x="64.557544" xlink:href="#m58f409e544" y="148.866734"/>
      </g>
     </g>
     <g id="text_9">
      <!-- $0$ -->
      <g transform="translate(55.937544 151.906109)scale(0.08 -0.08)">
       <use transform="translate(0 0.78125)" xlink:href="#DejaVuSans-30"/>
      </g>
     </g>
    </g>
    <g id="ytick_4">
     <g id="line2d_10">
      <g>
       <use style="stroke:#000000;stroke-width:0.5;" x="64.557544" xlink:href="#m58f409e544" y="110.523495"/>
      </g>
     </g>
     <g id="text_10">
      <!-- $1.0×10^{6}$ -->
      <g transform="translate(27.537544 113.56287)scale(0.08 -0.08)">
       <use transform="translate(0 0.765625)" xlink:href="#DejaVuSans-31"/>
       <use transform="translate(63.623047 0.765625)" xlink:href="#DejaVuSans-2e"/>
       <use transform="translate(95.410156 0.765625)" xlink:href="#DejaVuSans-30"/>
       <use transform="translate(159.033203 0.765625)" xlink:href="#DejaVuSans-d7"/>
       <use transform="translate(242.822266 0.765625)" xlink:href="#DejaVuSans-31"/>
       <use transform="translate(306.445312 0.765625)" xlink:href="#DejaVuSans-30"/>
       <use transform="translate(371.025391 39.046875)scale(0.7)" xlink:href="#DejaVuSans-36"/>
      </g>
     </g>
    </g>
    <g id="ytick_5">
     <g id="line2d_11">
      <g>
       <use style="stroke:#000000;stroke-width:0.5;" x="64.557544" xlink:href="#m58f409e544" y="72.180257"/>
      </g>
     </g>
     <g id="text_11">
      <!-- $2.0×10^{6}$ -->
      <g transform="translate(27.537544 75.219632)scale(0.08 -0.08)">
       <use transform="translate(0 0.765625)" xlink:href="#DejaVuSans-32"/>
       <use transform="translate(63.623047 0.765625)" xlink:href="#DejaVuSans-2e"/>
       <use transform="translate(95.410156 0.765625)" xlink:href="#DejaVuSans-30"/>
       <use transform="translate(159.033203 0.765625)" xlink:href="#DejaVuSans-d7"/>
       <use transform="translate(242.822266 0.765625)" xlink:href="#DejaVuSans-31"/>
       <use transform="translate(306.445312 0.765625)" xlink:href="#DejaVuSans-30"/>
       <use transform="translate(371.025391 39.046875)scale(0.7)" xlink:href="#DejaVuSans-36"/>
      </g>
     </g>
    </g>
    <g id="ytick_6">
     <g id="line2d_12">
      <g>
       <use style="stroke:#000000;stroke-width:0.5;" x="64.557544" xlink:href="#m58f409e544" y="33.837019"/>
      </g>
     </g>
     <g id="text_12">
      <!-- $3.0×10^{6}$ -->
      <g transform="translate(27.537544 36.876394)scale(0.08 -0.08)">
       <defs>
        <path d="M 2597 2516 
Q 3050 2419 3304 2112 
Q 3559 1806 3559 1356 
Q 3559 666 3084 287 
Q 2609 -91 1734 -91 
Q 1441 -91 1130 -33 
Q 819 25 488 141 
L 488 750 
Q 750 597 1062 519 
Q 1375 441 1716 441 
Q 2309 441 2620 675 
Q 2931 909 2931 1356 
Q 2931 1769 2642 2001 
Q 2353 2234 1838 2234 
L 1294 2234 
L 1294 2753 
L 1863 2753 
Q 2328 2753 2575 2939 
Q 2822 3125 2822 3475 
Q 2822 3834 2567 4026 
Q 2313 4219 1838 4219 
Q 1578 4219 1281 4162 
Q 984 4106 628 3988 
L 628 4550 
Q 988 4650 1302 4700 
Q 1616 4750 1894 4750 
Q 2613 4750 3031 4423 
Q 3450 4097 3450 3541 
Q 3450 3153 3228 2886 
Q 3006 2619 2597 2516 
z
" id="DejaVuSans-33" transform="scale(0.015625)"/>
       </defs>
       <use transform="translate(0 0.765625)" xlink:href="#DejaVuSans-33"/>
       <use transform="translate(63.623047 0.765625)" xlink:href="#DejaVuSans-2e"/>
       <use transform="translate(95.410156 0.765625)" xlink:href="#DejaVuSans-30"/>
       <use transform="translate(159.033203 0.765625)" xlink:href="#DejaVuSans-d7"/>
       <use transform="translate(242.822266 0.765625)" xlink:href="#DejaVuSans-31"/>
       <use transform="translate(306.445312 0.765625)" xlink:href="#DejaVuSans-30"/>
       <use transform="translate(371.025391 39.046875)scale(0.7)" xlink:href="#DejaVuSans-36"/>
      </g>
     </g>
    </g>
    <g id="text_13">
     <!-- $M_z$ ($N$) -->
     <g transform="translate(14.529888 147.635)rotate(-90)scale(0.11 -0.11)">
      <defs>
       <path d="M 1081 4666 
L 2028 4666 
L 2572 1522 
L 4378 4666 
L 5350 4666 
L 4441 0 
L 3828 0 
L 4622 4091 
L 2791 897 
L 2175 897 
L 1581 4103 
L 788 0 
L 172 0 
L 1081 4666 
z
" id="DejaVuSans-Oblique-4d" transform="scale(0.015625)"/>
       <path d="M 744 3500 
L 3475 3500 
L 3372 2975 
L 738 459 
L 2913 459 
L 2822 0 
L -19 0 
L 84 525 
L 2719 3041 
L 653 3041 
L 744 3500 
z
" id="DejaVuSans-Oblique-7a" transform="scale(0.015625)"/>
       <path d="M 1081 4666 
L 1931 4666 
L 3219 666 
L 4000 4666 
L 4616 4666 
L 3706 0 
L 2853 0 
L 1569 4025 
L 788 0 
L 172 0 
L 1081 4666 
z
" id="DejaVuSans-Oblique-4e" transform="scale(0.015625)"/>
      </defs>
      <use transform="translate(0 0.125)" xlink:href="#DejaVuSans-Oblique-4d"/>
      <use transform="translate(86.279297 -16.28125)scale(0.7)" xlink:href="#DejaVuSans-Oblique-7a"/>
      <use transform="translate(125.756836 0.125)" xlink:href="#DejaVuSans-20"/>
      <use transform="translate(157.543945 0.125)" xlink:href="#DejaVuSans-28"/>
      <use transform="translate(196.557617 0.125)" xlink:href="#DejaVuSans-Oblique-4e"/>
      <use transform="translate(271.362305 0.125)" xlink:href="#DejaVuSans-29"/>
     </g>
    </g>
   </g>
   <g id="patch_3">
    <path d="M 64.557544 258.225354 
L 64.557544 2.834646 
" style="fill:none;stroke:#000000;stroke-linecap:square;stroke-linejoin:miter;"/>
   </g>
   <g id="patch_4">
    <path d="M 64.557544 258.225354 
L 422.361999 258.225354 
" style="fill:none;stroke:#000000;stroke-linecap:square;stroke-linejoin:miter;"/>
   </g>
  </g>
 </g>
 <defs>
  <clipPath id="pd2421fda43">
   <rect height="255.390709" width="357.804455" x="64.557544" y="2.834646"/>
  </clipPath>
 </defs>
</svg>
