<?xml version="1.0" encoding="utf-8" standalone="no"?>
<!DOCTYPE svg PUBLIC "-//W3C//DTD SVG 1.1//EN"
  "http://www.w3.org/Graphics/SVG/1.1/DTD/svg11.dtd">
<svg height="288pt" version="1.1" viewBox="0 0 432 288" width="432pt" xmlns="http://www.w3.org/2000/svg" xmlns:xlink="http://www.w3.org/1999/xlink">
 <metadata>
  <rdf:RDF xmlns:cc="http://creativecommons.org/ns#" xmlns:dc="http://purl.org/dc/elements/1.1/" xmlns:rdf="http://www.w3.org/1999/02/22-rdf-syntax-ns#">
   <cc:Work>
    <dc:type rdf:resource="http://purl.org/dc/dcmitype/StillImage"/>
    <dc:date>2021-09-30T17:43:11.369237</dc:date>
    <dc:format>image/svg+xml</dc:format>
    <dc:creator>
     <cc:Agent>
      <dc:title>Matplotlib v3.4.2, https://matplotlib.org/</dc:title>
     </cc:Agent>
    </dc:creator>
   </cc:Work>
  </rdf:RDF>
 </metadata>
 <defs>
  <style type="text/css">*{stroke-linecap:butt;stroke-linejoin:round;}</style>
 </defs>
 <g id="figure_1">
  <g id="patch_1">
   <path d="M 0 288 
L 432 288 
L 432 0 
L 0 0 
z
" style="fill:#ffffff;"/>
  </g>
  <g id="axes_1">
   <g id="patch_2">
    <path d="M 71.231488 258.225354 
L 422.361999 258.225354 
L 422.361999 2.834646 
L 71.231488 2.834646 
z
" style="fill:#ffffff;"/>
   </g>
   <g id="line2d_1">
    <path clip-path="url(#p12a2636253)" d="M 71.231488 129.371789 
L 72.63601 129.449917 
L 73.689401 129.586834 
L 74.216097 129.439866 
L 76.147315 128.645278 
L 76.849576 128.852258 
L 81.238707 131.420465 
L 81.765403 131.298024 
L 82.292099 130.896583 
L 86.505665 126.568365 
L 87.207926 126.136336 
L 87.734622 126.060746 
L 88.963578 126.020516 
L 89.665839 125.815903 
L 90.3681 125.636391 
L 90.894796 125.644933 
L 91.421492 125.909312 
L 92.299318 126.68116 
L 93.70384 128.41167 
L 94.581667 130.090601 
L 95.459493 132.346904 
L 96.68845 135.405587 
L 97.566276 136.877788 
L 98.444102 137.955098 
L 99.497494 139.04008 
L 100.199755 139.418009 
L 100.726451 139.457372 
L 102.306538 139.306518 
L 103.535495 139.425504 
L 104.06219 139.281774 
L 104.588886 138.82506 
L 105.466712 137.712045 
L 107.39793 134.618685 
L 108.275757 132.621665 
L 109.855844 129.062883 
L 111.787062 125.397165 
L 112.664888 123.090549 
L 114.596106 117.172164 
L 115.649497 113.111379 
L 117.40515 106.34975 
L 118.282976 103.988448 
L 119.511933 101.409581 
L 120.389759 100.066851 
L 120.916455 99.636432 
L 121.443151 99.413861 
L 122.145412 99.435254 
L 123.549934 99.670061 
L 124.07663 99.955074 
L 124.603325 100.603817 
L 125.305586 101.993687 
L 126.358978 104.911554 
L 127.7635 109.427547 
L 129.168022 114.821948 
L 130.221414 118.650711 
L 131.45037 122.142268 
L 132.679327 125.86258 
L 134.78611 133.417311 
L 135.839502 138.016569 
L 137.419589 146.236313 
L 140.930894 163.758047 
L 142.335416 169.950471 
L 143.915504 175.98683 
L 144.79333 178.553797 
L 145.320026 179.57603 
L 145.846721 180.135958 
L 146.548982 180.459607 
L 147.251243 180.438479 
L 148.12907 180.217643 
L 149.006896 179.642383 
L 150.235853 178.765995 
L 150.762548 178.706589 
L 151.289244 178.895165 
L 153.396027 180.175982 
L 154.449419 180.207904 
L 155.15168 180.149613 
L 155.853941 179.917335 
L 156.380637 179.520805 
L 157.258463 178.369463 
L 160.067507 174.056276 
L 160.769768 172.113301 
L 161.472029 169.555339 
L 162.525421 164.532034 
L 163.403247 159.154585 
L 164.281073 152.412208 
L 166.036726 136.472025 
L 169.1969 108.552357 
L 171.128118 93.547233 
L 172.883771 80.898534 
L 173.761597 76.000517 
L 174.639423 72.385127 
L 175.692815 69.160258 
L 176.570641 67.187316 
L 177.272902 66.11493 
L 178.677424 64.358548 
L 179.20412 63.421944 
L 181.310903 59.083687 
L 182.013164 58.347077 
L 182.53986 58.055873 
L 183.066556 57.993659 
L 183.593251 58.167058 
L 184.119947 58.69809 
L 184.646643 59.590243 
L 185.524469 61.701748 
L 186.753426 64.63793 
L 187.806817 66.577423 
L 188.684644 68.271105 
L 189.56247 70.520823 
L 190.440296 73.520393 
L 191.142557 76.603497 
L 191.844818 80.624466 
L 192.722645 87.013531 
L 199.56969 141.571054 
L 200.974212 151.316349 
L 201.852038 155.837006 
L 202.554299 158.363805 
L 203.432125 160.636079 
L 205.714474 165.833461 
L 206.416735 168.190959 
L 207.118996 171.278818 
L 209.401344 182.376988 
L 209.92804 183.806388 
L 210.454735 184.678222 
L 210.981431 185.012292 
L 211.332562 185.015984 
L 211.683692 184.806575 
L 212.034823 184.347532 
L 212.561519 183.227077 
L 213.088214 181.571328 
L 213.966041 177.952669 
L 214.843867 174.463301 
L 215.370563 173.04776 
L 215.897258 172.321773 
L 216.248389 172.219047 
L 216.775085 172.438365 
L 218.179607 173.130852 
L 218.530737 172.995275 
L 218.881868 172.683448 
L 219.232998 172.149222 
L 219.759694 170.798534 
L 220.28639 168.556971 
L 220.813086 165.229254 
L 221.515347 158.944406 
L 222.568738 146.820086 
L 224.324391 127.208645 
L 226.606739 105.10335 
L 227.660131 94.449168 
L 228.537957 83.07955 
L 230.118044 58.213735 
L 230.99587 46.19361 
L 231.698131 38.877613 
L 232.400392 33.836469 
L 232.927088 31.736896 
L 233.278219 31.178113 
L 233.453784 31.188022 
L 233.629349 31.386201 
L 233.98048 32.313724 
L 234.507176 34.900674 
L 235.385002 41.047898 
L 236.262828 47.062088 
L 236.965089 50.542828 
L 237.66735 53.003115 
L 239.598568 58.485938 
L 239.949698 58.963848 
L 240.300829 59.125141 
L 240.651959 58.987613 
L 241.880916 58.013301 
L 242.232047 58.129435 
L 242.758743 58.71583 
L 245.216656 62.646946 
L 245.743352 64.166568 
L 246.445613 67.121845 
L 247.147874 70.090247 
L 247.499004 71.027113 
L 247.850135 71.444892 
L 248.201265 71.373597 
L 249.254657 70.275993 
L 249.430222 70.340875 
L 249.605788 70.582804 
L 249.956918 71.648566 
L 250.308049 73.49531 
L 250.834744 77.665034 
L 251.537005 85.290413 
L 252.414832 97.595059 
L 253.292658 113.715778 
L 255.750571 163.44688 
L 256.452832 171.777333 
L 257.330659 179.201552 
L 258.208485 184.679605 
L 258.735181 186.811015 
L 259.086311 187.62766 
L 259.613007 188.173541 
L 260.490833 188.776591 
L 260.841964 189.484769 
L 261.36866 191.091747 
L 262.246486 193.995947 
L 262.597616 194.498998 
L 262.773182 194.535116 
L 262.948747 194.389772 
L 263.299877 193.578294 
L 264.002138 190.802589 
L 264.7044 188.235473 
L 265.05553 187.669586 
L 265.231095 187.578417 
L 265.406661 187.624725 
L 265.757791 188.132014 
L 266.460052 189.995482 
L 268.215705 195.906014 
L 268.7424 198.729715 
L 270.146922 207.126654 
L 270.498053 207.872821 
L 270.673618 207.889848 
L 270.849183 207.666966 
L 271.200314 206.519807 
L 271.72701 203.442137 
L 272.604836 198.045596 
L 272.955967 196.806009 
L 273.307097 196.256578 
L 273.658228 196.200384 
L 274.184923 196.645734 
L 274.536054 196.834221 
L 274.887184 196.702155 
L 275.238315 196.181532 
L 275.765011 194.754391 
L 276.642837 192.323438 
L 276.993967 191.735677 
L 277.345098 191.491555 
L 278.222924 191.371254 
L 278.574055 190.85044 
L 278.925185 189.695853 
L 279.276316 187.799845 
L 279.803012 183.250614 
L 280.505273 174.316426 
L 283.314317 134.956539 
L 284.543273 120.764529 
L 286.298926 103.147566 
L 287.001187 92.681821 
L 289.810231 46.59535 
L 290.512492 38.167444 
L 291.039188 33.830499 
L 291.390318 32.369587 
L 291.565884 32.142934 
L 291.741449 32.251071 
L 291.917014 32.693933 
L 292.268145 34.512028 
L 292.79484 38.926296 
L 294.199362 51.774847 
L 294.726058 54.653194 
L 295.252754 56.373508 
L 295.603885 57.029659 
L 295.955015 57.287255 
L 296.13058 57.242331 
L 296.306146 57.051107 
L 296.657276 56.130534 
L 297.008407 54.423009 
L 297.359537 51.754779 
L 297.886233 45.917472 
L 299.641885 24.211225 
L 299.993016 21.98785 
L 300.344146 20.81479 
L 300.519712 20.598257 
L 300.695277 20.630331 
L 300.870842 20.891431 
L 301.221973 22.010879 
L 301.573103 23.875764 
L 302.099799 28.046485 
L 302.80206 35.452777 
L 304.733278 58.60906 
L 305.084408 60.731177 
L 305.435539 61.522153 
L 305.611104 61.38958 
L 305.786669 60.897227 
L 306.1378 58.889994 
L 306.664496 53.762956 
L 308.595713 31.447402 
L 308.946844 29.641136 
L 309.122409 29.355673 
L 309.297974 29.577582 
L 309.47354 30.354568 
L 309.82467 33.712243 
L 310.175801 39.466247 
L 310.702497 52.354579 
L 311.580323 81.515886 
L 313.335975 142.370493 
L 314.038236 158.398372 
L 314.564932 166.16472 
L 315.091628 170.85126 
L 315.442758 172.42438 
L 315.793889 173.09355 
L 315.969454 173.14735 
L 316.671715 172.775844 
L 316.84728 172.943967 
L 317.022846 173.377427 
L 317.373976 175.35765 
L 317.725107 179.212594 
L 318.251803 188.220381 
L 320.18302 226.522898 
L 320.709716 232.162594 
L 321.236412 235.328737 
L 321.763108 236.9519 
L 322.114238 237.320013 
L 322.289803 237.180175 
L 322.465369 236.753666 
L 322.816499 234.772646 
L 323.16763 230.938584 
L 323.694325 220.968333 
L 324.572152 196.361578 
L 325.098848 183.218631 
L 325.449978 177.813707 
L 325.801109 175.764183 
L 325.976674 175.941473 
L 326.152239 176.832717 
L 326.50337 180.497827 
L 327.030065 189.287762 
L 328.785718 221.038565 
L 330.19024 240.276747 
L 330.892501 247.853811 
L 331.243631 250.108603 
L 331.594762 250.997315 
L 331.770327 250.862687 
L 331.945892 250.260341 
L 332.297023 247.512609 
L 332.648154 242.634172 
L 333.350415 228.032554 
L 334.228241 210.147452 
L 334.579371 205.890769 
L 334.930502 203.917572 
L 335.106067 203.693848 
L 335.281632 203.880599 
L 335.632763 205.035416 
L 336.159459 206.851541 
L 336.510589 207.234862 
L 336.686154 207.216794 
L 337.037285 206.857764 
L 337.388415 206.437422 
L 337.563981 206.403651 
L 337.739546 206.590228 
L 337.915111 207.058161 
L 338.266242 209.072747 
L 338.792937 214.653304 
L 340.021894 229.221606 
L 340.373025 231.649641 
L 340.724155 232.718296 
L 340.899721 232.750568 
L 341.075286 232.479247 
L 341.426416 231.165559 
L 341.777547 228.805045 
L 342.304243 223.132362 
L 343.006504 211.901911 
L 344.411026 186.247628 
L 344.937721 180.253964 
L 345.639982 175.186138 
L 346.166678 170.826768 
L 346.693374 163.891854 
L 347.395635 150.58018 
L 348.624592 125.954889 
L 349.151288 119.75048 
L 349.853549 113.020368 
L 350.204679 107.13814 
L 350.731375 94.031222 
L 352.135897 55.579819 
L 352.662593 47.504251 
L 353.013723 44.305789 
L 353.891549 38.765299 
L 354.24268 34.266596 
L 355.647202 10.927248 
L 355.822767 10.062685 
L 355.998333 10.167702 
L 356.173898 11.267725 
L 356.525028 16.122773 
L 357.57842 34.976321 
L 357.753985 36.25379 
L 357.92955 36.611054 
L 358.105116 36.017115 
L 358.456246 32.12554 
L 359.685203 11.735627 
L 359.860768 11.628977 
L 360.036333 12.622038 
L 360.387464 17.503107 
L 361.616421 41.777569 
L 361.791986 43.084052 
L 361.967551 43.51038 
L 362.143116 43.087795 
L 362.494247 40.050616 
L 363.547639 25.110878 
L 363.723204 24.899467 
L 363.898769 26.149983 
L 364.2499 33.018876 
L 365.127726 55.554791 
L 365.478856 58.166509 
L 365.654422 57.843631 
L 365.829987 56.616012 
L 366.181117 51.747227 
L 366.707813 39.099982 
L 367.234509 25.507148 
L 367.585639 21.352789 
L 367.761205 21.903335 
L 367.93677 24.39183 
L 368.2879 34.056798 
L 369.165727 62.514575 
L 369.516857 68.181659 
L 369.692422 69.18506 
L 369.867988 68.983809 
L 370.043553 67.659814 
L 370.394684 62.306457 
L 371.096945 49.709943 
L 371.27251 48.207688 
L 371.448075 47.922585 
L 371.62364 48.958994 
L 371.974771 55.031091 
L 373.028162 81.078162 
L 373.203728 82.461659 
L 373.379293 82.40917 
L 373.554858 81.028981 
L 373.905989 75.367384 
L 374.60825 63.365154 
L 374.783815 62.163125 
L 374.95938 62.185378 
L 375.134945 63.61491 
L 375.486076 71.105307 
L 376.012772 92.20912 
L 376.890598 130.814152 
L 377.241728 139.125554 
L 377.592859 142.622294 
L 377.768424 143.191197 
L 378.29512 143.853365 
L 378.470685 144.855849 
L 378.821816 149.69196 
L 379.348512 163.793689 
L 380.577468 203.069715 
L 380.753034 205.205049 
L 380.928599 205.650269 
L 381.104164 204.418951 
L 381.455295 198.016845 
L 382.508686 174.436865 
L 382.684251 172.994655 
L 382.859817 172.733316 
L 383.035382 173.526573 
L 383.386512 177.916144 
L 384.439904 195.87188 
L 384.615469 196.315151 
L 384.791034 195.68829 
L 385.142165 191.364424 
L 386.019991 175.77789 
L 386.195557 174.282482 
L 386.371122 173.821482 
L 386.546687 174.430314 
L 386.897818 178.490594 
L 387.248948 185.605476 
L 388.477905 216.189297 
L 388.65347 216.64721 
L 388.829035 215.479805 
L 389.180166 209.684726 
L 389.706862 200.331879 
L 390.057992 197.827182 
L 390.233557 197.611082 
L 390.760253 197.812121 
L 390.935818 198.057523 
L 391.111384 198.82143 
L 391.462514 202.668074 
L 392.164775 214.141861 
L 392.34034 214.893472 
L 392.515906 213.978197 
L 392.867036 207.990669 
L 393.569297 194.195552 
L 393.920428 190.670137 
L 394.447124 187.909385 
L 394.622689 187.595793 
L 394.798254 188.115884 
L 394.973819 189.86325 
L 395.32495 197.27823 
L 396.027211 216.245812 
L 396.378341 220.812413 
L 396.553907 221.474614 
L 396.729472 221.428388 
L 397.080602 220.300036 
L 397.782863 216.920479 
L 397.958429 216.688163 
L 398.133994 217.049394 
L 398.309559 218.098603 
L 398.66069 222.212935 
L 399.714081 238.812884 
L 399.889646 239.717889 
L 400.065212 239.515057 
L 400.240777 238.053088 
L 400.591908 231.216461 
L 402.34756 183.740758 
L 402.523125 182.053934 
L 402.698691 181.441683 
L 402.874256 181.694157 
L 403.225386 182.927474 
L 403.400952 182.825593 
L 403.576517 181.822157 
L 403.927647 177.099438 
L 404.278778 169.096534 
L 405.507735 134.5775 
L 405.6833 134.066265 
L 405.858865 134.656272 
L 406.209996 138.56914 
L 406.736691 150.79075 
L 407.087822 157.853632 
L 407.263387 159.223973 
L 407.438952 159.060838 
L 407.614518 157.631449 
L 407.965648 151.723578 
L 408.316779 141.142664 
L 409.194605 109.400969 
L 409.721301 98.861104 
L 410.072431 94.39382 
L 410.774692 88.311807 
L 411.125823 81.199187 
L 412.003649 55.685162 
L 412.70591 34.808826 
L 413.057041 30.864403 
L 413.232606 31.142219 
L 413.408171 32.772065 
L 413.759302 38.781243 
L 415.163824 66.467461 
L 415.339389 66.845522 
L 415.514954 65.872502 
L 416.392781 55.185047 
L 416.568346 55.232627 
L 416.919476 57.21449 
L 417.270607 61.357587 
L 417.621737 68.515366 
L 418.323998 84.990162 
L 418.499564 86.615408 
L 418.675129 86.672818 
L 418.850694 85.309408 
L 419.201825 79.012722 
L 419.552955 67.934201 
L 420.781912 20.986957 
L 421.133042 16.880952 
L 421.308608 17.147279 
L 421.659738 20.08287 
L 422.361999 26.844006 
L 422.361999 26.844006 
" style="fill:none;stroke:#009afa;"/>
   </g>
   <g id="matplotlib.axis_1">
    <g id="xtick_1">
     <g id="line2d_2">
      <defs>
       <path d="M 0 0 
L 0 -2.5 
" id="m6d059aed47" style="stroke:#000000;stroke-width:0.5;"/>
      </defs>
      <g>
       <use style="stroke:#000000;stroke-width:0.5;" x="71.231488" xlink:href="#m6d059aed47" y="258.225354"/>
      </g>
     </g>
     <g id="text_1">
      <!-- $0.0$ -->
      <g transform="translate(64.831488 267.804104)scale(0.08 -0.08)">
       <defs>
        <path d="M 2034 4250 
Q 1547 4250 1301 3770 
Q 1056 3291 1056 2328 
Q 1056 1369 1301 889 
Q 1547 409 2034 409 
Q 2525 409 2770 889 
Q 3016 1369 3016 2328 
Q 3016 3291 2770 3770 
Q 2525 4250 2034 4250 
z
M 2034 4750 
Q 2819 4750 3233 4129 
Q 3647 3509 3647 2328 
Q 3647 1150 3233 529 
Q 2819 -91 2034 -91 
Q 1250 -91 836 529 
Q 422 1150 422 2328 
Q 422 3509 836 4129 
Q 1250 4750 2034 4750 
z
" id="DejaVuSans-30" transform="scale(0.015625)"/>
        <path d="M 684 794 
L 1344 794 
L 1344 0 
L 684 0 
L 684 794 
z
" id="DejaVuSans-2e" transform="scale(0.015625)"/>
       </defs>
       <use transform="translate(0 0.78125)" xlink:href="#DejaVuSans-30"/>
       <use transform="translate(63.623047 0.78125)" xlink:href="#DejaVuSans-2e"/>
       <use transform="translate(95.410156 0.78125)" xlink:href="#DejaVuSans-30"/>
      </g>
     </g>
    </g>
    <g id="xtick_2">
     <g id="line2d_3">
      <g>
       <use style="stroke:#000000;stroke-width:0.5;" x="159.014116" xlink:href="#m6d059aed47" y="258.225354"/>
      </g>
     </g>
     <g id="text_2">
      <!-- $0.5$ -->
      <g transform="translate(152.614116 267.804104)scale(0.08 -0.08)">
       <defs>
        <path d="M 691 4666 
L 3169 4666 
L 3169 4134 
L 1269 4134 
L 1269 2991 
Q 1406 3038 1543 3061 
Q 1681 3084 1819 3084 
Q 2600 3084 3056 2656 
Q 3513 2228 3513 1497 
Q 3513 744 3044 326 
Q 2575 -91 1722 -91 
Q 1428 -91 1123 -41 
Q 819 9 494 109 
L 494 744 
Q 775 591 1075 516 
Q 1375 441 1709 441 
Q 2250 441 2565 725 
Q 2881 1009 2881 1497 
Q 2881 1984 2565 2268 
Q 2250 2553 1709 2553 
Q 1456 2553 1204 2497 
Q 953 2441 691 2322 
L 691 4666 
z
" id="DejaVuSans-35" transform="scale(0.015625)"/>
       </defs>
       <use transform="translate(0 0.78125)" xlink:href="#DejaVuSans-30"/>
       <use transform="translate(63.623047 0.78125)" xlink:href="#DejaVuSans-2e"/>
       <use transform="translate(95.410156 0.78125)" xlink:href="#DejaVuSans-35"/>
      </g>
     </g>
    </g>
    <g id="xtick_3">
     <g id="line2d_4">
      <g>
       <use style="stroke:#000000;stroke-width:0.5;" x="246.796743" xlink:href="#m6d059aed47" y="258.225354"/>
      </g>
     </g>
     <g id="text_3">
      <!-- $1.0$ -->
      <g transform="translate(240.396743 267.804104)scale(0.08 -0.08)">
       <defs>
        <path d="M 794 531 
L 1825 531 
L 1825 4091 
L 703 3866 
L 703 4441 
L 1819 4666 
L 2450 4666 
L 2450 531 
L 3481 531 
L 3481 0 
L 794 0 
L 794 531 
z
" id="DejaVuSans-31" transform="scale(0.015625)"/>
       </defs>
       <use transform="translate(0 0.78125)" xlink:href="#DejaVuSans-31"/>
       <use transform="translate(63.623047 0.78125)" xlink:href="#DejaVuSans-2e"/>
       <use transform="translate(95.410156 0.78125)" xlink:href="#DejaVuSans-30"/>
      </g>
     </g>
    </g>
    <g id="xtick_4">
     <g id="line2d_5">
      <g>
       <use style="stroke:#000000;stroke-width:0.5;" x="334.579371" xlink:href="#m6d059aed47" y="258.225354"/>
      </g>
     </g>
     <g id="text_4">
      <!-- $1.5$ -->
      <g transform="translate(328.179371 267.804104)scale(0.08 -0.08)">
       <use transform="translate(0 0.09375)" xlink:href="#DejaVuSans-31"/>
       <use transform="translate(63.623047 0.09375)" xlink:href="#DejaVuSans-2e"/>
       <use transform="translate(95.410156 0.09375)" xlink:href="#DejaVuSans-35"/>
      </g>
     </g>
    </g>
    <g id="xtick_5">
     <g id="line2d_6">
      <g>
       <use style="stroke:#000000;stroke-width:0.5;" x="422.361999" xlink:href="#m6d059aed47" y="258.225354"/>
      </g>
     </g>
     <g id="text_5">
      <!-- $2.0$ -->
      <g transform="translate(415.961999 267.804104)scale(0.08 -0.08)">
       <defs>
        <path d="M 1228 531 
L 3431 531 
L 3431 0 
L 469 0 
L 469 531 
Q 828 903 1448 1529 
Q 2069 2156 2228 2338 
Q 2531 2678 2651 2914 
Q 2772 3150 2772 3378 
Q 2772 3750 2511 3984 
Q 2250 4219 1831 4219 
Q 1534 4219 1204 4116 
Q 875 4013 500 3803 
L 500 4441 
Q 881 4594 1212 4672 
Q 1544 4750 1819 4750 
Q 2544 4750 2975 4387 
Q 3406 4025 3406 3419 
Q 3406 3131 3298 2873 
Q 3191 2616 2906 2266 
Q 2828 2175 2409 1742 
Q 1991 1309 1228 531 
z
" id="DejaVuSans-32" transform="scale(0.015625)"/>
       </defs>
       <use transform="translate(0 0.78125)" xlink:href="#DejaVuSans-32"/>
       <use transform="translate(63.623047 0.78125)" xlink:href="#DejaVuSans-2e"/>
       <use transform="translate(95.410156 0.78125)" xlink:href="#DejaVuSans-30"/>
      </g>
     </g>
    </g>
    <g id="text_6">
     <!-- Time (s) -->
     <g transform="translate(224.434947 281.826136)scale(0.11 -0.11)">
      <defs>
       <path d="M -19 4666 
L 3928 4666 
L 3928 4134 
L 2272 4134 
L 2272 0 
L 1638 0 
L 1638 4134 
L -19 4134 
L -19 4666 
z
" id="DejaVuSans-54" transform="scale(0.015625)"/>
       <path d="M 603 3500 
L 1178 3500 
L 1178 0 
L 603 0 
L 603 3500 
z
M 603 4863 
L 1178 4863 
L 1178 4134 
L 603 4134 
L 603 4863 
z
" id="DejaVuSans-69" transform="scale(0.015625)"/>
       <path d="M 3328 2828 
Q 3544 3216 3844 3400 
Q 4144 3584 4550 3584 
Q 5097 3584 5394 3201 
Q 5691 2819 5691 2113 
L 5691 0 
L 5113 0 
L 5113 2094 
Q 5113 2597 4934 2840 
Q 4756 3084 4391 3084 
Q 3944 3084 3684 2787 
Q 3425 2491 3425 1978 
L 3425 0 
L 2847 0 
L 2847 2094 
Q 2847 2600 2669 2842 
Q 2491 3084 2119 3084 
Q 1678 3084 1418 2786 
Q 1159 2488 1159 1978 
L 1159 0 
L 581 0 
L 581 3500 
L 1159 3500 
L 1159 2956 
Q 1356 3278 1631 3431 
Q 1906 3584 2284 3584 
Q 2666 3584 2933 3390 
Q 3200 3197 3328 2828 
z
" id="DejaVuSans-6d" transform="scale(0.015625)"/>
       <path d="M 3597 1894 
L 3597 1613 
L 953 1613 
Q 991 1019 1311 708 
Q 1631 397 2203 397 
Q 2534 397 2845 478 
Q 3156 559 3463 722 
L 3463 178 
Q 3153 47 2828 -22 
Q 2503 -91 2169 -91 
Q 1331 -91 842 396 
Q 353 884 353 1716 
Q 353 2575 817 3079 
Q 1281 3584 2069 3584 
Q 2775 3584 3186 3129 
Q 3597 2675 3597 1894 
z
M 3022 2063 
Q 3016 2534 2758 2815 
Q 2500 3097 2075 3097 
Q 1594 3097 1305 2825 
Q 1016 2553 972 2059 
L 3022 2063 
z
" id="DejaVuSans-65" transform="scale(0.015625)"/>
       <path id="DejaVuSans-20" transform="scale(0.015625)"/>
       <path d="M 1984 4856 
Q 1566 4138 1362 3434 
Q 1159 2731 1159 2009 
Q 1159 1288 1364 580 
Q 1569 -128 1984 -844 
L 1484 -844 
Q 1016 -109 783 600 
Q 550 1309 550 2009 
Q 550 2706 781 3412 
Q 1013 4119 1484 4856 
L 1984 4856 
z
" id="DejaVuSans-28" transform="scale(0.015625)"/>
       <path d="M 2834 3397 
L 2834 2853 
Q 2591 2978 2328 3040 
Q 2066 3103 1784 3103 
Q 1356 3103 1142 2972 
Q 928 2841 928 2578 
Q 928 2378 1081 2264 
Q 1234 2150 1697 2047 
L 1894 2003 
Q 2506 1872 2764 1633 
Q 3022 1394 3022 966 
Q 3022 478 2636 193 
Q 2250 -91 1575 -91 
Q 1294 -91 989 -36 
Q 684 19 347 128 
L 347 722 
Q 666 556 975 473 
Q 1284 391 1588 391 
Q 1994 391 2212 530 
Q 2431 669 2431 922 
Q 2431 1156 2273 1281 
Q 2116 1406 1581 1522 
L 1381 1569 
Q 847 1681 609 1914 
Q 372 2147 372 2553 
Q 372 3047 722 3315 
Q 1072 3584 1716 3584 
Q 2034 3584 2315 3537 
Q 2597 3491 2834 3397 
z
" id="DejaVuSans-73" transform="scale(0.015625)"/>
       <path d="M 513 4856 
L 1013 4856 
Q 1481 4119 1714 3412 
Q 1947 2706 1947 2009 
Q 1947 1309 1714 600 
Q 1481 -109 1013 -844 
L 513 -844 
Q 928 -128 1133 580 
Q 1338 1288 1338 2009 
Q 1338 2731 1133 3434 
Q 928 4138 513 4856 
z
" id="DejaVuSans-29" transform="scale(0.015625)"/>
      </defs>
      <use xlink:href="#DejaVuSans-54"/>
      <use x="57.958984" xlink:href="#DejaVuSans-69"/>
      <use x="85.742188" xlink:href="#DejaVuSans-6d"/>
      <use x="183.154297" xlink:href="#DejaVuSans-65"/>
      <use x="244.677734" xlink:href="#DejaVuSans-20"/>
      <use x="276.464844" xlink:href="#DejaVuSans-28"/>
      <use x="315.478516" xlink:href="#DejaVuSans-73"/>
      <use x="367.578125" xlink:href="#DejaVuSans-29"/>
     </g>
    </g>
   </g>
   <g id="matplotlib.axis_2">
    <g id="ytick_1">
     <g id="line2d_7">
      <defs>
       <path d="M 0 0 
L 2.5 0 
" id="m153546b85f" style="stroke:#000000;stroke-width:0.5;"/>
      </defs>
      <g>
       <use style="stroke:#000000;stroke-width:0.5;" x="71.231488" xlink:href="#m153546b85f" y="240.931326"/>
      </g>
     </g>
     <g id="text_7">
      <!-- $-1.50×10^{6}$ -->
      <g transform="translate(22.451488 243.970701)scale(0.08 -0.08)">
       <defs>
        <path d="M 678 2272 
L 4684 2272 
L 4684 1741 
L 678 1741 
L 678 2272 
z
" id="DejaVuSans-2212" transform="scale(0.015625)"/>
        <path d="M 4488 3438 
L 3059 2003 
L 4488 575 
L 4116 197 
L 2681 1631 
L 1247 197 
L 878 575 
L 2303 2003 
L 878 3438 
L 1247 3816 
L 2681 2381 
L 4116 3816 
L 4488 3438 
z
" id="DejaVuSans-d7" transform="scale(0.015625)"/>
        <path d="M 2113 2584 
Q 1688 2584 1439 2293 
Q 1191 2003 1191 1497 
Q 1191 994 1439 701 
Q 1688 409 2113 409 
Q 2538 409 2786 701 
Q 3034 994 3034 1497 
Q 3034 2003 2786 2293 
Q 2538 2584 2113 2584 
z
M 3366 4563 
L 3366 3988 
Q 3128 4100 2886 4159 
Q 2644 4219 2406 4219 
Q 1781 4219 1451 3797 
Q 1122 3375 1075 2522 
Q 1259 2794 1537 2939 
Q 1816 3084 2150 3084 
Q 2853 3084 3261 2657 
Q 3669 2231 3669 1497 
Q 3669 778 3244 343 
Q 2819 -91 2113 -91 
Q 1303 -91 875 529 
Q 447 1150 447 2328 
Q 447 3434 972 4092 
Q 1497 4750 2381 4750 
Q 2619 4750 2861 4703 
Q 3103 4656 3366 4563 
z
" id="DejaVuSans-36" transform="scale(0.015625)"/>
       </defs>
       <use transform="translate(0 0.765625)" xlink:href="#DejaVuSans-2212"/>
       <use transform="translate(83.789062 0.765625)" xlink:href="#DejaVuSans-31"/>
       <use transform="translate(147.412109 0.765625)" xlink:href="#DejaVuSans-2e"/>
       <use transform="translate(179.199219 0.765625)" xlink:href="#DejaVuSans-35"/>
       <use transform="translate(242.822266 0.765625)" xlink:href="#DejaVuSans-30"/>
       <use transform="translate(306.445312 0.765625)" xlink:href="#DejaVuSans-d7"/>
       <use transform="translate(390.234375 0.765625)" xlink:href="#DejaVuSans-31"/>
       <use transform="translate(453.857422 0.765625)" xlink:href="#DejaVuSans-30"/>
       <use transform="translate(518.4375 39.046875)scale(0.7)" xlink:href="#DejaVuSans-36"/>
      </g>
     </g>
    </g>
    <g id="ytick_2">
     <g id="line2d_8">
      <g>
       <use style="stroke:#000000;stroke-width:0.5;" x="71.231488" xlink:href="#m153546b85f" y="203.744813"/>
      </g>
     </g>
     <g id="text_8">
      <!-- $-1.00×10^{6}$ -->
      <g transform="translate(22.451488 206.784188)scale(0.08 -0.08)">
       <use transform="translate(0 0.765625)" xlink:href="#DejaVuSans-2212"/>
       <use transform="translate(83.789062 0.765625)" xlink:href="#DejaVuSans-31"/>
       <use transform="translate(147.412109 0.765625)" xlink:href="#DejaVuSans-2e"/>
       <use transform="translate(179.199219 0.765625)" xlink:href="#DejaVuSans-30"/>
       <use transform="translate(242.822266 0.765625)" xlink:href="#DejaVuSans-30"/>
       <use transform="translate(306.445312 0.765625)" xlink:href="#DejaVuSans-d7"/>
       <use transform="translate(390.234375 0.765625)" xlink:href="#DejaVuSans-31"/>
       <use transform="translate(453.857422 0.765625)" xlink:href="#DejaVuSans-30"/>
       <use transform="translate(518.4375 39.046875)scale(0.7)" xlink:href="#DejaVuSans-36"/>
      </g>
     </g>
    </g>
    <g id="ytick_3">
     <g id="line2d_9">
      <g>
       <use style="stroke:#000000;stroke-width:0.5;" x="71.231488" xlink:href="#m153546b85f" y="166.558301"/>
      </g>
     </g>
     <g id="text_9">
      <!-- $-5.00×10^{5}$ -->
      <g transform="translate(22.451488 169.597676)scale(0.08 -0.08)">
       <use transform="translate(0 0.684375)" xlink:href="#DejaVuSans-2212"/>
       <use transform="translate(83.789062 0.684375)" xlink:href="#DejaVuSans-35"/>
       <use transform="translate(147.412109 0.684375)" xlink:href="#DejaVuSans-2e"/>
       <use transform="translate(179.199219 0.684375)" xlink:href="#DejaVuSans-30"/>
       <use transform="translate(242.822266 0.684375)" xlink:href="#DejaVuSans-30"/>
       <use transform="translate(306.445312 0.684375)" xlink:href="#DejaVuSans-d7"/>
       <use transform="translate(390.234375 0.684375)" xlink:href="#DejaVuSans-31"/>
       <use transform="translate(453.857422 0.684375)" xlink:href="#DejaVuSans-30"/>
       <use transform="translate(518.4375 38.965625)scale(0.7)" xlink:href="#DejaVuSans-35"/>
      </g>
     </g>
    </g>
    <g id="ytick_4">
     <g id="line2d_10">
      <g>
       <use style="stroke:#000000;stroke-width:0.5;" x="71.231488" xlink:href="#m153546b85f" y="129.371789"/>
      </g>
     </g>
     <g id="text_10">
      <!-- $0$ -->
      <g transform="translate(62.611488 132.411164)scale(0.08 -0.08)">
       <use transform="translate(0 0.78125)" xlink:href="#DejaVuSans-30"/>
      </g>
     </g>
    </g>
    <g id="ytick_5">
     <g id="line2d_11">
      <g>
       <use style="stroke:#000000;stroke-width:0.5;" x="71.231488" xlink:href="#m153546b85f" y="92.185277"/>
      </g>
     </g>
     <g id="text_11">
      <!-- $5.00×10^{5}$ -->
      <g transform="translate(29.171488 95.224652)scale(0.08 -0.08)">
       <use transform="translate(0 0.684375)" xlink:href="#DejaVuSans-35"/>
       <use transform="translate(63.623047 0.684375)" xlink:href="#DejaVuSans-2e"/>
       <use transform="translate(95.410156 0.684375)" xlink:href="#DejaVuSans-30"/>
       <use transform="translate(159.033203 0.684375)" xlink:href="#DejaVuSans-30"/>
       <use transform="translate(222.65625 0.684375)" xlink:href="#DejaVuSans-d7"/>
       <use transform="translate(306.445312 0.684375)" xlink:href="#DejaVuSans-31"/>
       <use transform="translate(370.068359 0.684375)" xlink:href="#DejaVuSans-30"/>
       <use transform="translate(434.648438 38.965625)scale(0.7)" xlink:href="#DejaVuSans-35"/>
      </g>
     </g>
    </g>
    <g id="ytick_6">
     <g id="line2d_12">
      <g>
       <use style="stroke:#000000;stroke-width:0.5;" x="71.231488" xlink:href="#m153546b85f" y="54.998765"/>
      </g>
     </g>
     <g id="text_12">
      <!-- $1.00×10^{6}$ -->
      <g transform="translate(29.171488 58.03814)scale(0.08 -0.08)">
       <use transform="translate(0 0.765625)" xlink:href="#DejaVuSans-31"/>
       <use transform="translate(63.623047 0.765625)" xlink:href="#DejaVuSans-2e"/>
       <use transform="translate(95.410156 0.765625)" xlink:href="#DejaVuSans-30"/>
       <use transform="translate(159.033203 0.765625)" xlink:href="#DejaVuSans-30"/>
       <use transform="translate(222.65625 0.765625)" xlink:href="#DejaVuSans-d7"/>
       <use transform="translate(306.445312 0.765625)" xlink:href="#DejaVuSans-31"/>
       <use transform="translate(370.068359 0.765625)" xlink:href="#DejaVuSans-30"/>
       <use transform="translate(434.648438 39.046875)scale(0.7)" xlink:href="#DejaVuSans-36"/>
      </g>
     </g>
    </g>
    <g id="ytick_7">
     <g id="line2d_13">
      <g>
       <use style="stroke:#000000;stroke-width:0.5;" x="71.231488" xlink:href="#m153546b85f" y="17.812253"/>
      </g>
     </g>
     <g id="text_13">
      <!-- $1.50×10^{6}$ -->
      <g transform="translate(29.171488 20.851628)scale(0.08 -0.08)">
       <use transform="translate(0 0.765625)" xlink:href="#DejaVuSans-31"/>
       <use transform="translate(63.623047 0.765625)" xlink:href="#DejaVuSans-2e"/>
       <use transform="translate(95.410156 0.765625)" xlink:href="#DejaVuSans-35"/>
       <use transform="translate(159.033203 0.765625)" xlink:href="#DejaVuSans-30"/>
       <use transform="translate(222.65625 0.765625)" xlink:href="#DejaVuSans-d7"/>
       <use transform="translate(306.445312 0.765625)" xlink:href="#DejaVuSans-31"/>
       <use transform="translate(370.068359 0.765625)" xlink:href="#DejaVuSans-30"/>
       <use transform="translate(434.648438 39.046875)scale(0.7)" xlink:href="#DejaVuSans-36"/>
      </g>
     </g>
    </g>
    <g id="text_14">
     <!-- $M_y$ ($Nm$) -->
     <g transform="translate(15.041488 153.245)rotate(-90)scale(0.11 -0.11)">
      <defs>
       <path d="M 1081 4666 
L 2028 4666 
L 2572 1522 
L 4378 4666 
L 5350 4666 
L 4441 0 
L 3828 0 
L 4622 4091 
L 2791 897 
L 2175 897 
L 1581 4103 
L 788 0 
L 172 0 
L 1081 4666 
z
" id="DejaVuSans-Oblique-4d" transform="scale(0.015625)"/>
       <path d="M 1588 -325 
Q 1188 -997 936 -1164 
Q 684 -1331 294 -1331 
L -159 -1331 
L -63 -850 
L 269 -850 
Q 509 -850 678 -719 
Q 847 -588 1056 -206 
L 1234 128 
L 459 3500 
L 1069 3500 
L 1650 819 
L 3256 3500 
L 3859 3500 
L 1588 -325 
z
" id="DejaVuSans-Oblique-79" transform="scale(0.015625)"/>
       <path d="M 1081 4666 
L 1931 4666 
L 3219 666 
L 4000 4666 
L 4616 4666 
L 3706 0 
L 2853 0 
L 1569 4025 
L 788 0 
L 172 0 
L 1081 4666 
z
" id="DejaVuSans-Oblique-4e" transform="scale(0.015625)"/>
       <path d="M 5747 2113 
L 5338 0 
L 4763 0 
L 5166 2094 
Q 5191 2228 5203 2325 
Q 5216 2422 5216 2491 
Q 5216 2772 5059 2928 
Q 4903 3084 4622 3084 
Q 4203 3084 3875 2770 
Q 3547 2456 3450 1953 
L 3066 0 
L 2491 0 
L 2900 2094 
Q 2925 2209 2937 2307 
Q 2950 2406 2950 2484 
Q 2950 2769 2794 2926 
Q 2638 3084 2363 3084 
Q 1938 3084 1609 2770 
Q 1281 2456 1184 1953 
L 800 0 
L 225 0 
L 909 3500 
L 1484 3500 
L 1375 2956 
Q 1609 3263 1923 3423 
Q 2238 3584 2597 3584 
Q 2978 3584 3223 3384 
Q 3469 3184 3519 2828 
Q 3781 3197 4126 3390 
Q 4472 3584 4856 3584 
Q 5306 3584 5551 3325 
Q 5797 3066 5797 2591 
Q 5797 2488 5784 2364 
Q 5772 2241 5747 2113 
z
" id="DejaVuSans-Oblique-6d" transform="scale(0.015625)"/>
      </defs>
      <use transform="translate(0 0.125)" xlink:href="#DejaVuSans-Oblique-4d"/>
      <use transform="translate(86.279297 -16.28125)scale(0.7)" xlink:href="#DejaVuSans-Oblique-79"/>
      <use transform="translate(130.439453 0.125)" xlink:href="#DejaVuSans-20"/>
      <use transform="translate(162.226562 0.125)" xlink:href="#DejaVuSans-28"/>
      <use transform="translate(201.240234 0.125)" xlink:href="#DejaVuSans-Oblique-4e"/>
      <use transform="translate(276.044922 0.125)" xlink:href="#DejaVuSans-Oblique-6d"/>
      <use transform="translate(373.457031 0.125)" xlink:href="#DejaVuSans-29"/>
     </g>
    </g>
   </g>
   <g id="patch_3">
    <path d="M 71.231488 258.225354 
L 71.231488 2.834646 
" style="fill:none;stroke:#000000;stroke-linecap:square;stroke-linejoin:miter;"/>
   </g>
   <g id="patch_4">
    <path d="M 71.231488 258.225354 
L 422.361999 258.225354 
" style="fill:none;stroke:#000000;stroke-linecap:square;stroke-linejoin:miter;"/>
   </g>
  </g>
 </g>
 <defs>
  <clipPath id="p12a2636253">
   <rect height="255.390709" width="351.130512" x="71.231488" y="2.834646"/>
  </clipPath>
 </defs>
</svg>
