<?xml version="1.0" encoding="utf-8" standalone="no"?>
<!DOCTYPE svg PUBLIC "-//W3C//DTD SVG 1.1//EN"
  "http://www.w3.org/Graphics/SVG/1.1/DTD/svg11.dtd">
<!-- Created with matplotlib (https://matplotlib.org/) -->
<svg height="288pt" version="1.1" viewBox="0 0 432 288" width="432pt" xmlns="http://www.w3.org/2000/svg" xmlns:xlink="http://www.w3.org/1999/xlink">
 <metadata>
  <rdf:RDF xmlns:cc="http://creativecommons.org/ns#" xmlns:dc="http://purl.org/dc/elements/1.1/" xmlns:rdf="http://www.w3.org/1999/02/22-rdf-syntax-ns#">
   <cc:Work>
    <dc:type rdf:resource="http://purl.org/dc/dcmitype/StillImage"/>
    <dc:date>2021-04-27T19:05:22.076352</dc:date>
    <dc:format>image/svg+xml</dc:format>
    <dc:creator>
     <cc:Agent>
      <dc:title>Matplotlib v3.3.4, https://matplotlib.org/</dc:title>
     </cc:Agent>
    </dc:creator>
   </cc:Work>
  </rdf:RDF>
 </metadata>
 <defs>
  <style type="text/css">*{stroke-linecap:butt;stroke-linejoin:round;}</style>
 </defs>
 <g id="figure_1">
  <g id="patch_1">
   <path d="M 0 288 
L 432 288 
L 432 0 
L 0 0 
z
" style="fill:#ffffff;"/>
  </g>
  <g id="axes_1">
   <g id="patch_2">
    <path d="M 41.781593 258.225354 
L 422.361999 258.225354 
L 422.361999 2.834646 
L 41.781593 2.834646 
z
" style="fill:#ffffff;"/>
   </g>
   <g id="line2d_1">
    <path clip-path="url(#p116c85a91a)" d="M 41.781593 125.96134 
L 42.923334 126.072499 
L 44.065075 126.418006 
L 45.206816 127.009337 
L 46.348558 127.827422 
L 47.680589 129.035705 
L 49.393201 131.02377 
L 51.105813 133.364561 
L 53.579585 137.276846 
L 60.810613 149.202918 
L 62.332935 150.946702 
L 65.758158 154.346222 
L 66.8999 155.179254 
L 67.851351 155.626864 
L 68.612511 155.743872 
L 69.373672 155.624504 
L 70.134833 155.196398 
L 71.086284 154.294662 
L 72.037735 153.039742 
L 72.989186 151.402878 
L 74.130927 148.928733 
L 75.272668 145.972394 
L 76.98528 140.80761 
L 79.078473 133.709455 
L 84.787179 113.740623 
L 86.880371 107.969616 
L 89.925014 100.543814 
L 91.637626 96.885272 
L 92.589077 95.343451 
L 93.540528 94.145226 
L 94.301689 93.446593 
L 95.06285 93.010185 
L 95.63372 92.888309 
L 96.204591 92.931167 
L 96.775461 93.146657 
L 97.346332 93.553241 
L 98.107493 94.356841 
L 99.058944 95.722864 
L 100.010395 97.515254 
L 101.152136 100.147711 
L 102.484168 103.740671 
L 104.38707 109.708636 
L 109.144325 125.326651 
L 111.237517 131.02642 
L 114.09187 138.115942 
L 117.707384 146.056052 
L 120.561737 152.381236 
L 122.464639 157.357783 
L 123.986961 162.003329 
L 127.792765 174.190544 
L 128.553925 175.892757 
L 129.315086 177.098639 
L 129.885957 177.621128 
L 130.456827 177.82879 
L 131.027698 177.76016 
L 131.598569 177.404953 
L 132.169439 176.751598 
L 132.9306 175.45385 
L 133.691761 173.702493 
L 134.643212 170.908528 
L 135.784953 166.711309 
L 137.116985 160.866504 
L 138.449016 153.93748 
L 139.971338 144.673969 
L 141.87424 131.509758 
L 145.489753 106.097671 
L 147.012075 97.376623 
L 148.344107 91.091192 
L 149.485848 86.840119 
L 150.437299 84.096806 
L 151.19846 82.456039 
L 151.95962 81.371294 
L 152.530491 80.927498 
L 153.101362 80.744607 
L 153.672232 80.832892 
L 154.243103 81.183498 
L 155.004264 81.995226 
L 155.955715 83.413889 
L 157.858617 86.375102 
L 158.619777 87.103251 
L 159.190648 87.401093 
L 159.761519 87.481923 
L 160.332389 87.319912 
L 161.09355 86.831555 
L 162.806162 85.52267 
L 163.377033 85.34928 
L 163.757613 85.374368 
L 164.138193 85.567676 
L 164.518774 85.951767 
L 165.089644 86.903023 
L 165.660515 88.323827 
L 166.421676 90.988158 
L 167.182837 94.471367 
L 168.134288 99.861122 
L 169.276029 107.57693 
L 171.178931 122.427423 
L 173.842994 142.932208 
L 175.175025 151.522969 
L 176.126476 156.497167 
L 177.077927 160.306089 
L 177.839088 162.384878 
L 178.409959 163.309101 
L 178.790539 163.600186 
L 179.171119 163.635504 
L 179.5517 163.420921 
L 180.12257 162.6841 
L 180.693441 161.510125 
L 181.454602 159.349039 
L 183.547794 152.936026 
L 184.118665 152.07801 
L 184.499245 151.934525 
L 184.879826 152.209062 
L 185.260406 152.92063 
L 185.640986 154.112827 
L 186.211857 156.789984 
L 186.782728 160.466128 
L 187.543888 166.815893 
L 188.87592 180.300794 
L 190.207951 193.171126 
L 190.969112 198.599304 
L 191.539983 201.283408 
L 191.920563 202.288085 
L 192.301143 202.682743 
L 192.491434 202.651654 
L 192.872014 202.120122 
L 193.252594 200.995247 
L 193.823465 198.291586 
L 194.584626 193.160526 
L 195.916657 181.960948 
L 197.248689 171.381949 
L 198.00985 166.733322 
L 198.77101 163.222962 
L 199.532171 160.570339 
L 200.673912 157.492422 
L 202.005944 154.555395 
L 202.767105 153.281707 
L 203.337975 152.725718 
L 203.718556 152.579656 
L 204.099136 152.608383 
L 204.670007 152.929558 
L 206.192328 154.282833 
L 206.572909 154.295674 
L 206.953489 154.013276 
L 207.33407 153.360351 
L 207.71465 152.263299 
L 208.285521 149.773876 
L 208.856391 146.173015 
L 209.617552 139.678253 
L 210.569003 129.397 
L 213.613646 94.351625 
L 214.374807 88.391074 
L 214.945678 85.34265 
L 215.326258 84.061302 
L 215.706838 83.443031 
L 215.897129 83.363189 
L 216.087419 83.427357 
L 216.467999 83.996459 
L 216.84858 85.113711 
L 217.41945 87.564134 
L 219.322352 96.721538 
L 219.702933 97.466218 
L 219.893223 97.578237 
L 220.083513 97.515752 
L 220.464094 96.882356 
L 220.844674 95.591503 
L 221.415545 92.635516 
L 223.508737 80.259741 
L 224.079607 78.718907 
L 224.460188 78.315188 
L 224.840768 78.367023 
L 225.221349 78.76247 
L 225.792219 79.793995 
L 226.55338 81.231611 
L 226.93396 81.613282 
L 227.314541 81.617637 
L 227.695121 81.164291 
L 228.075702 80.195714 
L 228.646572 77.87031 
L 229.407733 73.517298 
L 231.120345 63.338961 
L 231.691216 61.472305 
L 232.071796 60.922414 
L 232.262086 60.869847 
L 232.452376 60.971838 
L 232.832957 61.626499 
L 233.213537 62.847173 
L 233.784408 65.605685 
L 234.545569 70.742103 
L 235.49702 78.86423 
L 237.019341 94.384691 
L 238.351373 107.052675 
L 239.112533 112.306661 
L 239.683404 115.047984 
L 240.254275 116.818148 
L 240.825145 117.71488 
L 241.205726 117.977046 
L 242.347467 118.439222 
L 242.728047 118.95216 
L 243.108628 119.931801 
L 243.489208 121.482887 
L 244.060079 125.070223 
L 244.630949 130.207122 
L 245.39211 139.275494 
L 246.533851 156.289675 
L 248.627044 188.900934 
L 249.388204 197.688263 
L 250.149365 204.204136 
L 250.910526 208.722352 
L 251.481397 210.848081 
L 251.861977 211.713665 
L 252.242558 212.031328 
L 252.432848 211.97915 
L 252.813428 211.447375 
L 253.194009 210.254487 
L 253.764879 207.322876 
L 254.33575 203.166984 
L 255.096911 195.939816 
L 256.238652 182.541601 
L 257.380393 169.675741 
L 257.951264 165.320814 
L 258.331844 163.640515 
L 258.712424 162.981081 
L 258.902715 163.054718 
L 259.093005 163.419311 
L 259.473585 164.9895 
L 259.854166 167.526384 
L 260.425036 173.033328 
L 261.376487 185.439685 
L 262.898809 206.568102 
L 263.469679 212.144786 
L 264.04055 215.555353 
L 264.421131 216.558556 
L 264.611421 216.70313 
L 264.801711 216.61532 
L 264.992001 216.296785 
L 265.372582 214.968397 
L 265.753162 212.753448 
L 266.324033 207.899846 
L 267.085193 198.823791 
L 268.417225 179.07721 
L 269.939546 157.319761 
L 270.890997 146.71753 
L 271.842448 138.636304 
L 272.793899 132.489334 
L 274.696801 122.490491 
L 275.457962 119.621711 
L 275.838543 118.771106 
L 276.219123 118.481803 
L 276.409413 118.562431 
L 276.789994 119.197658 
L 277.170574 120.56752 
L 277.741445 124.034012 
L 278.312315 129.231072 
L 279.073476 138.48842 
L 281.927829 177.085686 
L 282.4987 181.572427 
L 283.06957 184.254606 
L 283.450151 185.037026 
L 283.640441 185.126294 
L 283.830731 185.00231 
L 284.211312 184.122674 
L 284.591892 182.474552 
L 285.162763 178.701182 
L 285.923923 171.93133 
L 286.875375 161.302729 
L 288.017116 145.887002 
L 289.349147 124.416642 
L 290.871469 95.529752 
L 292.774371 58.978548 
L 293.535532 49.240412 
L 294.106402 45.040466 
L 294.486983 43.724482 
L 294.677273 43.484849 
L 294.867563 43.49559 
L 295.057853 43.745034 
L 295.438434 44.931623 
L 296.009304 48.178102 
L 296.770465 54.598542 
L 297.721916 65.127059 
L 299.053948 83.168029 
L 300.385979 101.004995 
L 300.95685 106.407014 
L 301.33743 108.731094 
L 301.71801 109.84889 
L 301.908301 109.917703 
L 302.098591 109.67188 
L 302.479171 108.315649 
L 302.859752 105.872782 
L 303.430622 100.528595 
L 304.382073 88.963814 
L 305.904395 70.223195 
L 306.665556 63.073954 
L 307.426716 57.869195 
L 307.997587 55.40692 
L 308.378167 54.494385 
L 308.758748 54.07097 
L 309.329618 53.969699 
L 309.710199 53.822742 
L 310.090779 53.273965 
L 310.47136 52.12903 
L 311.04223 49.182398 
L 311.803391 43.428149 
L 313.325713 30.92095 
L 313.706293 29.319759 
L 313.896583 28.921912 
L 314.086874 28.811814 
L 314.277164 29.010717 
L 314.467454 29.537318 
L 314.848034 31.593196 
L 315.228615 34.983379 
L 315.799485 42.741303 
L 316.370356 53.711875 
L 317.512097 81.780278 
L 318.463548 103.489142 
L 319.034419 112.883922 
L 319.414999 116.844668 
L 319.79558 118.624239 
L 319.98587 118.615479 
L 320.17616 117.986815 
L 320.55674 114.983936 
L 321.127611 106.929731 
L 322.079062 88.258285 
L 323.411094 61.654756 
L 323.981964 54.470025 
L 324.362545 52.283074 
L 324.552835 52.041778 
L 324.743125 52.376566 
L 325.123705 54.728067 
L 325.504286 59.037341 
L 326.075156 68.58023 
L 326.646027 81.814357 
L 327.407188 104.559983 
L 328.929509 151.907242 
L 329.50038 163.342208 
L 329.88096 167.846565 
L 330.261541 169.775345 
L 330.451831 169.829685 
L 330.642121 169.298443 
L 331.022702 166.582641 
L 331.783862 157.597153 
L 332.545023 149.675113 
L 332.925604 147.371515 
L 333.306184 146.226778 
L 333.496474 146.137578 
L 333.686765 146.392576 
L 334.067345 147.901375 
L 334.447925 150.64174 
L 335.018796 157.01021 
L 335.970247 171.526685 
L 337.111988 188.651264 
L 337.873149 197.359184 
L 338.44402 201.323474 
L 338.8246 202.58166 
L 339.01489 202.840704 
L 339.20518 202.859563 
L 339.395471 202.62221 
L 339.776051 201.336754 
L 340.156631 199.008057 
L 340.727502 193.715338 
L 341.488663 183.869163 
L 342.440114 171.62408 
L 342.820694 169.138933 
L 343.010984 168.575441 
L 343.201275 168.440829 
L 343.391565 168.68713 
L 343.772145 170.048916 
L 344.343016 173.481829 
L 345.294467 181.210234 
L 346.055628 188.907311 
L 347.007079 201.059473 
L 348.909981 227.58722 
L 349.290561 229.809709 
L 349.480851 230.331035 
L 349.671142 230.477061 
L 349.861432 230.280247 
L 350.242012 228.954464 
L 350.622593 226.522718 
L 351.193463 221.036055 
L 351.954624 210.800645 
L 353.096365 194.316767 
L 353.667236 188.968102 
L 354.238106 185.975816 
L 354.618687 185.302475 
L 354.808977 185.44753 
L 354.999267 185.91977 
L 355.379848 187.770929 
L 355.950718 192.478544 
L 356.711879 201.361509 
L 358.424491 223.202722 
L 358.805071 225.282123 
L 358.995362 225.505006 
L 359.185652 225.149031 
L 359.566232 222.755639 
L 360.137103 216.041163 
L 361.469134 199.445503 
L 362.230295 192.117448 
L 362.801166 188.217003 
L 363.181746 186.678735 
L 363.372036 186.284886 
L 363.562326 186.166861 
L 363.752617 186.319613 
L 364.133197 187.278554 
L 365.465228 192.062403 
L 366.60697 197.404906 
L 366.98755 198.25062 
L 367.36813 198.684109 
L 367.748711 198.800649 
L 367.939001 198.646428 
L 368.129291 198.273359 
L 368.509872 196.670619 
L 368.890452 193.574917 
L 369.271033 188.577696 
L 369.841903 177.542931 
L 371.554515 140.094996 
L 372.125386 132.55601 
L 372.886546 125.802892 
L 373.647707 121.206191 
L 374.028288 119.642029 
L 374.408868 118.861439 
L 374.599158 118.789236 
L 374.789448 118.981778 
L 374.979739 119.501928 
L 375.360319 121.702119 
L 375.740899 125.535871 
L 376.31177 134.049781 
L 377.263221 148.218247 
L 377.643801 151.3434 
L 377.834092 152.049185 
L 378.024382 152.20874 
L 378.214672 151.880259 
L 378.595252 149.926074 
L 378.975833 146.399322 
L 379.546703 138.760431 
L 380.117574 127.428666 
L 382.781637 65.41003 
L 383.352508 57.442612 
L 383.923378 52.240243 
L 384.303959 50.266541 
L 384.494249 49.921646 
L 384.684539 50.04406 
L 385.065119 51.343528 
L 385.63599 54.812553 
L 386.206861 60.42413 
L 387.348602 74.473329 
L 387.729182 76.425428 
L 387.919472 76.717082 
L 388.109763 76.570177 
L 388.300053 76.005415 
L 388.680633 73.61123 
L 389.251504 67.086592 
L 390.393245 50.454959 
L 391.344696 35.770275 
L 391.725277 32.263628 
L 392.296147 29.172377 
L 392.676728 27.859696 
L 392.867018 27.617116 
L 393.057308 27.663058 
L 393.247598 27.966885 
L 393.628179 29.420931 
L 394.199049 33.522748 
L 394.76992 38.887506 
L 397.053402 63.964611 
L 397.243692 64.843597 
L 397.433983 65.159214 
L 397.624273 64.840509 
L 397.814563 63.878027 
L 398.195143 60.119668 
L 398.766014 50.688765 
L 400.098045 26.949241 
L 400.668916 20.63375 
L 401.049496 18.667075 
L 401.430077 18.068249 
L 401.810657 18.002937 
L 402.191238 18.202613 
L 402.571818 19.072323 
L 403.142689 21.614639 
L 403.713559 25.162922 
L 404.09414 28.877039 
L 404.66501 36.957467 
L 405.616461 54.412999 
L 406.758203 75.185193 
L 407.329073 81.598337 
L 407.709654 83.645338 
L 407.899944 84.010293 
L 408.090234 83.927561 
L 408.280524 83.396161 
L 408.661105 81.153775 
L 409.612556 74.387394 
L 410.373716 70.121747 
L 411.134877 64.599366 
L 412.086328 55.253523 
L 412.847489 48.040878 
L 413.228069 45.968966 
L 413.60865 44.947361 
L 413.79894 44.951291 
L 413.98923 45.380206 
L 414.369811 47.52208 
L 414.750391 51.229733 
L 417.224164 80.625026 
L 417.604744 81.914386 
L 417.795034 82.11547 
L 417.985325 82.092654 
L 418.175615 81.854919 
L 418.556195 80.809809 
L 419.317356 77.983485 
L 419.507646 77.739832 
L 419.697936 78.02399 
L 420.078517 80.296541 
L 420.649387 86.276656 
L 421.220258 94.44573 
L 422.361999 115.336407 
L 422.361999 115.336407 
" style="fill:none;stroke:#009afa;"/>
   </g>
   <g id="matplotlib.axis_1">
    <g id="xtick_1">
     <g id="line2d_2">
      <defs>
       <path d="M 0 0 
L 0 -2.5 
" id="m3ef9812001" style="stroke:#000000;stroke-width:0.5;"/>
      </defs>
      <g>
       <use style="stroke:#000000;stroke-width:0.5;" x="41.781593" xlink:href="#m3ef9812001" y="258.225354"/>
      </g>
     </g>
     <g id="text_1">
      <!-- $\mathregular{0.0}$ -->
      <g transform="translate(35.381593 267.804104)scale(0.08 -0.08)">
       <defs>
        <path d="M 31.78125 66.40625 
Q 24.171875 66.40625 20.328125 58.90625 
Q 16.5 51.421875 16.5 36.375 
Q 16.5 21.390625 20.328125 13.890625 
Q 24.171875 6.390625 31.78125 6.390625 
Q 39.453125 6.390625 43.28125 13.890625 
Q 47.125 21.390625 47.125 36.375 
Q 47.125 51.421875 43.28125 58.90625 
Q 39.453125 66.40625 31.78125 66.40625 
z
M 31.78125 74.21875 
Q 44.046875 74.21875 50.515625 64.515625 
Q 56.984375 54.828125 56.984375 36.375 
Q 56.984375 17.96875 50.515625 8.265625 
Q 44.046875 -1.421875 31.78125 -1.421875 
Q 19.53125 -1.421875 13.0625 8.265625 
Q 6.59375 17.96875 6.59375 36.375 
Q 6.59375 54.828125 13.0625 64.515625 
Q 19.53125 74.21875 31.78125 74.21875 
z
" id="DejaVuSans-48"/>
        <path d="M 10.6875 12.40625 
L 21 12.40625 
L 21 0 
L 10.6875 0 
z
" id="DejaVuSans-46"/>
       </defs>
       <use transform="translate(0 0.78125)" xlink:href="#DejaVuSans-48"/>
       <use transform="translate(63.623047 0.78125)" xlink:href="#DejaVuSans-46"/>
       <use transform="translate(95.410156 0.78125)" xlink:href="#DejaVuSans-48"/>
      </g>
     </g>
    </g>
    <g id="xtick_2">
     <g id="line2d_3">
      <g>
       <use style="stroke:#000000;stroke-width:0.5;" x="136.926694" xlink:href="#m3ef9812001" y="258.225354"/>
      </g>
     </g>
     <g id="text_2">
      <!-- $\mathregular{0.5}$ -->
      <g transform="translate(130.526694 267.804104)scale(0.08 -0.08)">
       <defs>
        <path d="M 10.796875 72.90625 
L 49.515625 72.90625 
L 49.515625 64.59375 
L 19.828125 64.59375 
L 19.828125 46.734375 
Q 21.96875 47.46875 24.109375 47.828125 
Q 26.265625 48.1875 28.421875 48.1875 
Q 40.625 48.1875 47.75 41.5 
Q 54.890625 34.8125 54.890625 23.390625 
Q 54.890625 11.625 47.5625 5.09375 
Q 40.234375 -1.421875 26.90625 -1.421875 
Q 22.3125 -1.421875 17.546875 -0.640625 
Q 12.796875 0.140625 7.71875 1.703125 
L 7.71875 11.625 
Q 12.109375 9.234375 16.796875 8.0625 
Q 21.484375 6.890625 26.703125 6.890625 
Q 35.15625 6.890625 40.078125 11.328125 
Q 45.015625 15.765625 45.015625 23.390625 
Q 45.015625 31 40.078125 35.4375 
Q 35.15625 39.890625 26.703125 39.890625 
Q 22.75 39.890625 18.8125 39.015625 
Q 14.890625 38.140625 10.796875 36.28125 
z
" id="DejaVuSans-53"/>
       </defs>
       <use transform="translate(0 0.78125)" xlink:href="#DejaVuSans-48"/>
       <use transform="translate(63.623047 0.78125)" xlink:href="#DejaVuSans-46"/>
       <use transform="translate(95.410156 0.78125)" xlink:href="#DejaVuSans-53"/>
      </g>
     </g>
    </g>
    <g id="xtick_3">
     <g id="line2d_4">
      <g>
       <use style="stroke:#000000;stroke-width:0.5;" x="232.071796" xlink:href="#m3ef9812001" y="258.225354"/>
      </g>
     </g>
     <g id="text_3">
      <!-- $\mathregular{1.0}$ -->
      <g transform="translate(225.671796 267.804104)scale(0.08 -0.08)">
       <defs>
        <path d="M 12.40625 8.296875 
L 28.515625 8.296875 
L 28.515625 63.921875 
L 10.984375 60.40625 
L 10.984375 69.390625 
L 28.421875 72.90625 
L 38.28125 72.90625 
L 38.28125 8.296875 
L 54.390625 8.296875 
L 54.390625 0 
L 12.40625 0 
z
" id="DejaVuSans-49"/>
       </defs>
       <use transform="translate(0 0.78125)" xlink:href="#DejaVuSans-49"/>
       <use transform="translate(63.623047 0.78125)" xlink:href="#DejaVuSans-46"/>
       <use transform="translate(95.410156 0.78125)" xlink:href="#DejaVuSans-48"/>
      </g>
     </g>
    </g>
    <g id="xtick_4">
     <g id="line2d_5">
      <g>
       <use style="stroke:#000000;stroke-width:0.5;" x="327.216898" xlink:href="#m3ef9812001" y="258.225354"/>
      </g>
     </g>
     <g id="text_4">
      <!-- $\mathregular{1.5}$ -->
      <g transform="translate(320.816898 267.804104)scale(0.08 -0.08)">
       <use transform="translate(0 0.09375)" xlink:href="#DejaVuSans-49"/>
       <use transform="translate(63.623047 0.09375)" xlink:href="#DejaVuSans-46"/>
       <use transform="translate(95.410156 0.09375)" xlink:href="#DejaVuSans-53"/>
      </g>
     </g>
    </g>
    <g id="xtick_5">
     <g id="line2d_6">
      <g>
       <use style="stroke:#000000;stroke-width:0.5;" x="422.361999" xlink:href="#m3ef9812001" y="258.225354"/>
      </g>
     </g>
     <g id="text_5">
      <!-- $\mathregular{2.0}$ -->
      <g transform="translate(415.961999 267.804104)scale(0.08 -0.08)">
       <defs>
        <path d="M 19.1875 8.296875 
L 53.609375 8.296875 
L 53.609375 0 
L 7.328125 0 
L 7.328125 8.296875 
Q 12.9375 14.109375 22.625 23.890625 
Q 32.328125 33.6875 34.8125 36.53125 
Q 39.546875 41.84375 41.421875 45.53125 
Q 43.3125 49.21875 43.3125 52.78125 
Q 43.3125 58.59375 39.234375 62.25 
Q 35.15625 65.921875 28.609375 65.921875 
Q 23.96875 65.921875 18.8125 64.3125 
Q 13.671875 62.703125 7.8125 59.421875 
L 7.8125 69.390625 
Q 13.765625 71.78125 18.9375 73 
Q 24.125 74.21875 28.421875 74.21875 
Q 39.75 74.21875 46.484375 68.546875 
Q 53.21875 62.890625 53.21875 53.421875 
Q 53.21875 48.921875 51.53125 44.890625 
Q 49.859375 40.875 45.40625 35.40625 
Q 44.1875 33.984375 37.640625 27.21875 
Q 31.109375 20.453125 19.1875 8.296875 
z
" id="DejaVuSans-50"/>
       </defs>
       <use transform="translate(0 0.78125)" xlink:href="#DejaVuSans-50"/>
       <use transform="translate(63.623047 0.78125)" xlink:href="#DejaVuSans-46"/>
       <use transform="translate(95.410156 0.78125)" xlink:href="#DejaVuSans-48"/>
      </g>
     </g>
    </g>
    <g id="text_6">
     <!-- Time (s) -->
     <g transform="translate(209.709999 281.826136)scale(0.11 -0.11)">
      <defs>
       <path d="M -0.296875 72.90625 
L 61.375 72.90625 
L 61.375 64.59375 
L 35.5 64.59375 
L 35.5 0 
L 25.59375 0 
L 25.59375 64.59375 
L -0.296875 64.59375 
z
" id="DejaVuSans-84"/>
       <path d="M 9.421875 54.6875 
L 18.40625 54.6875 
L 18.40625 0 
L 9.421875 0 
z
M 9.421875 75.984375 
L 18.40625 75.984375 
L 18.40625 64.59375 
L 9.421875 64.59375 
z
" id="DejaVuSans-105"/>
       <path d="M 52 44.1875 
Q 55.375 50.25 60.0625 53.125 
Q 64.75 56 71.09375 56 
Q 79.640625 56 84.28125 50.015625 
Q 88.921875 44.046875 88.921875 33.015625 
L 88.921875 0 
L 79.890625 0 
L 79.890625 32.71875 
Q 79.890625 40.578125 77.09375 44.375 
Q 74.3125 48.1875 68.609375 48.1875 
Q 61.625 48.1875 57.5625 43.546875 
Q 53.515625 38.921875 53.515625 30.90625 
L 53.515625 0 
L 44.484375 0 
L 44.484375 32.71875 
Q 44.484375 40.625 41.703125 44.40625 
Q 38.921875 48.1875 33.109375 48.1875 
Q 26.21875 48.1875 22.15625 43.53125 
Q 18.109375 38.875 18.109375 30.90625 
L 18.109375 0 
L 9.078125 0 
L 9.078125 54.6875 
L 18.109375 54.6875 
L 18.109375 46.1875 
Q 21.1875 51.21875 25.484375 53.609375 
Q 29.78125 56 35.6875 56 
Q 41.65625 56 45.828125 52.96875 
Q 50 49.953125 52 44.1875 
z
" id="DejaVuSans-109"/>
       <path d="M 56.203125 29.59375 
L 56.203125 25.203125 
L 14.890625 25.203125 
Q 15.484375 15.921875 20.484375 11.0625 
Q 25.484375 6.203125 34.421875 6.203125 
Q 39.59375 6.203125 44.453125 7.46875 
Q 49.3125 8.734375 54.109375 11.28125 
L 54.109375 2.78125 
Q 49.265625 0.734375 44.1875 -0.34375 
Q 39.109375 -1.421875 33.890625 -1.421875 
Q 20.796875 -1.421875 13.15625 6.1875 
Q 5.515625 13.8125 5.515625 26.8125 
Q 5.515625 40.234375 12.765625 48.109375 
Q 20.015625 56 32.328125 56 
Q 43.359375 56 49.78125 48.890625 
Q 56.203125 41.796875 56.203125 29.59375 
z
M 47.21875 32.234375 
Q 47.125 39.59375 43.09375 43.984375 
Q 39.0625 48.390625 32.421875 48.390625 
Q 24.90625 48.390625 20.390625 44.140625 
Q 15.875 39.890625 15.1875 32.171875 
z
" id="DejaVuSans-101"/>
       <path id="DejaVuSans-32"/>
       <path d="M 31 75.875 
Q 24.46875 64.65625 21.28125 53.65625 
Q 18.109375 42.671875 18.109375 31.390625 
Q 18.109375 20.125 21.3125 9.0625 
Q 24.515625 -2 31 -13.1875 
L 23.1875 -13.1875 
Q 15.875 -1.703125 12.234375 9.375 
Q 8.59375 20.453125 8.59375 31.390625 
Q 8.59375 42.28125 12.203125 53.3125 
Q 15.828125 64.359375 23.1875 75.875 
z
" id="DejaVuSans-40"/>
       <path d="M 44.28125 53.078125 
L 44.28125 44.578125 
Q 40.484375 46.53125 36.375 47.5 
Q 32.28125 48.484375 27.875 48.484375 
Q 21.1875 48.484375 17.84375 46.4375 
Q 14.5 44.390625 14.5 40.28125 
Q 14.5 37.15625 16.890625 35.375 
Q 19.28125 33.59375 26.515625 31.984375 
L 29.59375 31.296875 
Q 39.15625 29.25 43.1875 25.515625 
Q 47.21875 21.78125 47.21875 15.09375 
Q 47.21875 7.46875 41.1875 3.015625 
Q 35.15625 -1.421875 24.609375 -1.421875 
Q 20.21875 -1.421875 15.453125 -0.5625 
Q 10.6875 0.296875 5.421875 2 
L 5.421875 11.28125 
Q 10.40625 8.6875 15.234375 7.390625 
Q 20.0625 6.109375 24.8125 6.109375 
Q 31.15625 6.109375 34.5625 8.28125 
Q 37.984375 10.453125 37.984375 14.40625 
Q 37.984375 18.0625 35.515625 20.015625 
Q 33.0625 21.96875 24.703125 23.78125 
L 21.578125 24.515625 
Q 13.234375 26.265625 9.515625 29.90625 
Q 5.8125 33.546875 5.8125 39.890625 
Q 5.8125 47.609375 11.28125 51.796875 
Q 16.75 56 26.8125 56 
Q 31.78125 56 36.171875 55.265625 
Q 40.578125 54.546875 44.28125 53.078125 
z
" id="DejaVuSans-115"/>
       <path d="M 8.015625 75.875 
L 15.828125 75.875 
Q 23.140625 64.359375 26.78125 53.3125 
Q 30.421875 42.28125 30.421875 31.390625 
Q 30.421875 20.453125 26.78125 9.375 
Q 23.140625 -1.703125 15.828125 -13.1875 
L 8.015625 -13.1875 
Q 14.5 -2 17.703125 9.0625 
Q 20.90625 20.125 20.90625 31.390625 
Q 20.90625 42.671875 17.703125 53.65625 
Q 14.5 64.65625 8.015625 75.875 
z
" id="DejaVuSans-41"/>
      </defs>
      <use xlink:href="#DejaVuSans-84"/>
      <use x="57.958984" xlink:href="#DejaVuSans-105"/>
      <use x="85.742188" xlink:href="#DejaVuSans-109"/>
      <use x="183.154297" xlink:href="#DejaVuSans-101"/>
      <use x="244.677734" xlink:href="#DejaVuSans-32"/>
      <use x="276.464844" xlink:href="#DejaVuSans-40"/>
      <use x="315.478516" xlink:href="#DejaVuSans-115"/>
      <use x="367.578125" xlink:href="#DejaVuSans-41"/>
     </g>
    </g>
   </g>
   <g id="matplotlib.axis_2">
    <g id="ytick_1">
     <g id="line2d_7">
      <defs>
       <path d="M 0 0 
L 2.5 0 
" id="m4433aa0536" style="stroke:#000000;stroke-width:0.5;"/>
      </defs>
      <g>
       <use style="stroke:#000000;stroke-width:0.5;" x="41.781593" xlink:href="#m4433aa0536" y="225.982634"/>
      </g>
     </g>
     <g id="text_7">
      <!-- $\mathregular{-20}$ -->
      <g transform="translate(21.321593 229.022009)scale(0.08 -0.08)">
       <defs>
        <path d="M 10.59375 35.5 
L 73.1875 35.5 
L 73.1875 27.203125 
L 10.59375 27.203125 
z
" id="DejaVuSans-8722"/>
       </defs>
       <use transform="translate(0 0.78125)" xlink:href="#DejaVuSans-8722"/>
       <use transform="translate(83.789062 0.78125)" xlink:href="#DejaVuSans-50"/>
       <use transform="translate(147.412109 0.78125)" xlink:href="#DejaVuSans-48"/>
      </g>
     </g>
    </g>
    <g id="ytick_2">
     <g id="line2d_8">
      <g>
       <use style="stroke:#000000;stroke-width:0.5;" x="41.781593" xlink:href="#m4433aa0536" y="175.971987"/>
      </g>
     </g>
     <g id="text_8">
      <!-- $\mathregular{-10}$ -->
      <g transform="translate(21.321593 179.011362)scale(0.08 -0.08)">
       <use transform="translate(0 0.78125)" xlink:href="#DejaVuSans-8722"/>
       <use transform="translate(83.789062 0.78125)" xlink:href="#DejaVuSans-49"/>
       <use transform="translate(147.412109 0.78125)" xlink:href="#DejaVuSans-48"/>
      </g>
     </g>
    </g>
    <g id="ytick_3">
     <g id="line2d_9">
      <g>
       <use style="stroke:#000000;stroke-width:0.5;" x="41.781593" xlink:href="#m4433aa0536" y="125.96134"/>
      </g>
     </g>
     <g id="text_9">
      <!-- $\mathregular{0}$ -->
      <g transform="translate(33.161593 129.000715)scale(0.08 -0.08)">
       <use transform="translate(0 0.78125)" xlink:href="#DejaVuSans-48"/>
      </g>
     </g>
    </g>
    <g id="ytick_4">
     <g id="line2d_10">
      <g>
       <use style="stroke:#000000;stroke-width:0.5;" x="41.781593" xlink:href="#m4433aa0536" y="75.950693"/>
      </g>
     </g>
     <g id="text_10">
      <!-- $\mathregular{10}$ -->
      <g transform="translate(28.041593 78.990068)scale(0.08 -0.08)">
       <use transform="translate(0 0.78125)" xlink:href="#DejaVuSans-49"/>
       <use transform="translate(63.623047 0.78125)" xlink:href="#DejaVuSans-48"/>
      </g>
     </g>
    </g>
    <g id="ytick_5">
     <g id="line2d_11">
      <g>
       <use style="stroke:#000000;stroke-width:0.5;" x="41.781593" xlink:href="#m4433aa0536" y="25.940046"/>
      </g>
     </g>
     <g id="text_11">
      <!-- $\mathregular{20}$ -->
      <g transform="translate(28.041593 28.979421)scale(0.08 -0.08)">
       <use transform="translate(0 0.78125)" xlink:href="#DejaVuSans-50"/>
       <use transform="translate(63.623047 0.78125)" xlink:href="#DejaVuSans-48"/>
      </g>
     </g>
    </g>
    <g id="text_12">
     <!-- Rodriguez Parameter $\theta_x$ (degree) -->
     <g transform="translate(15.011593 221.885)rotate(-90)scale(0.11 -0.11)">
      <defs>
       <path d="M 44.390625 34.1875 
Q 47.5625 33.109375 50.5625 29.59375 
Q 53.5625 26.078125 56.59375 19.921875 
L 66.609375 0 
L 56 0 
L 46.6875 18.703125 
Q 43.0625 26.03125 39.671875 28.421875 
Q 36.28125 30.8125 30.421875 30.8125 
L 19.671875 30.8125 
L 19.671875 0 
L 9.8125 0 
L 9.8125 72.90625 
L 32.078125 72.90625 
Q 44.578125 72.90625 50.734375 67.671875 
Q 56.890625 62.453125 56.890625 51.90625 
Q 56.890625 45.015625 53.6875 40.46875 
Q 50.484375 35.9375 44.390625 34.1875 
z
M 19.671875 64.796875 
L 19.671875 38.921875 
L 32.078125 38.921875 
Q 39.203125 38.921875 42.84375 42.21875 
Q 46.484375 45.515625 46.484375 51.90625 
Q 46.484375 58.296875 42.84375 61.546875 
Q 39.203125 64.796875 32.078125 64.796875 
z
" id="DejaVuSans-82"/>
       <path d="M 30.609375 48.390625 
Q 23.390625 48.390625 19.1875 42.75 
Q 14.984375 37.109375 14.984375 27.296875 
Q 14.984375 17.484375 19.15625 11.84375 
Q 23.34375 6.203125 30.609375 6.203125 
Q 37.796875 6.203125 41.984375 11.859375 
Q 46.1875 17.53125 46.1875 27.296875 
Q 46.1875 37.015625 41.984375 42.703125 
Q 37.796875 48.390625 30.609375 48.390625 
z
M 30.609375 56 
Q 42.328125 56 49.015625 48.375 
Q 55.71875 40.765625 55.71875 27.296875 
Q 55.71875 13.875 49.015625 6.21875 
Q 42.328125 -1.421875 30.609375 -1.421875 
Q 18.84375 -1.421875 12.171875 6.21875 
Q 5.515625 13.875 5.515625 27.296875 
Q 5.515625 40.765625 12.171875 48.375 
Q 18.84375 56 30.609375 56 
z
" id="DejaVuSans-111"/>
       <path d="M 45.40625 46.390625 
L 45.40625 75.984375 
L 54.390625 75.984375 
L 54.390625 0 
L 45.40625 0 
L 45.40625 8.203125 
Q 42.578125 3.328125 38.25 0.953125 
Q 33.9375 -1.421875 27.875 -1.421875 
Q 17.96875 -1.421875 11.734375 6.484375 
Q 5.515625 14.40625 5.515625 27.296875 
Q 5.515625 40.1875 11.734375 48.09375 
Q 17.96875 56 27.875 56 
Q 33.9375 56 38.25 53.625 
Q 42.578125 51.265625 45.40625 46.390625 
z
M 14.796875 27.296875 
Q 14.796875 17.390625 18.875 11.75 
Q 22.953125 6.109375 30.078125 6.109375 
Q 37.203125 6.109375 41.296875 11.75 
Q 45.40625 17.390625 45.40625 27.296875 
Q 45.40625 37.203125 41.296875 42.84375 
Q 37.203125 48.484375 30.078125 48.484375 
Q 22.953125 48.484375 18.875 42.84375 
Q 14.796875 37.203125 14.796875 27.296875 
z
" id="DejaVuSans-100"/>
       <path d="M 41.109375 46.296875 
Q 39.59375 47.171875 37.8125 47.578125 
Q 36.03125 48 33.890625 48 
Q 26.265625 48 22.1875 43.046875 
Q 18.109375 38.09375 18.109375 28.8125 
L 18.109375 0 
L 9.078125 0 
L 9.078125 54.6875 
L 18.109375 54.6875 
L 18.109375 46.1875 
Q 20.953125 51.171875 25.484375 53.578125 
Q 30.03125 56 36.53125 56 
Q 37.453125 56 38.578125 55.875 
Q 39.703125 55.765625 41.0625 55.515625 
z
" id="DejaVuSans-114"/>
       <path d="M 45.40625 27.984375 
Q 45.40625 37.75 41.375 43.109375 
Q 37.359375 48.484375 30.078125 48.484375 
Q 22.859375 48.484375 18.828125 43.109375 
Q 14.796875 37.75 14.796875 27.984375 
Q 14.796875 18.265625 18.828125 12.890625 
Q 22.859375 7.515625 30.078125 7.515625 
Q 37.359375 7.515625 41.375 12.890625 
Q 45.40625 18.265625 45.40625 27.984375 
z
M 54.390625 6.78125 
Q 54.390625 -7.171875 48.1875 -13.984375 
Q 42 -20.796875 29.203125 -20.796875 
Q 24.46875 -20.796875 20.265625 -20.09375 
Q 16.0625 -19.390625 12.109375 -17.921875 
L 12.109375 -9.1875 
Q 16.0625 -11.328125 19.921875 -12.34375 
Q 23.78125 -13.375 27.78125 -13.375 
Q 36.625 -13.375 41.015625 -8.765625 
Q 45.40625 -4.15625 45.40625 5.171875 
L 45.40625 9.625 
Q 42.625 4.78125 38.28125 2.390625 
Q 33.9375 0 27.875 0 
Q 17.828125 0 11.671875 7.65625 
Q 5.515625 15.328125 5.515625 27.984375 
Q 5.515625 40.671875 11.671875 48.328125 
Q 17.828125 56 27.875 56 
Q 33.9375 56 38.28125 53.609375 
Q 42.625 51.21875 45.40625 46.390625 
L 45.40625 54.6875 
L 54.390625 54.6875 
z
" id="DejaVuSans-103"/>
       <path d="M 8.5 21.578125 
L 8.5 54.6875 
L 17.484375 54.6875 
L 17.484375 21.921875 
Q 17.484375 14.15625 20.5 10.265625 
Q 23.53125 6.390625 29.59375 6.390625 
Q 36.859375 6.390625 41.078125 11.03125 
Q 45.3125 15.671875 45.3125 23.6875 
L 45.3125 54.6875 
L 54.296875 54.6875 
L 54.296875 0 
L 45.3125 0 
L 45.3125 8.40625 
Q 42.046875 3.421875 37.71875 1 
Q 33.40625 -1.421875 27.6875 -1.421875 
Q 18.265625 -1.421875 13.375 4.4375 
Q 8.5 10.296875 8.5 21.578125 
z
M 31.109375 56 
z
" id="DejaVuSans-117"/>
       <path d="M 5.515625 54.6875 
L 48.1875 54.6875 
L 48.1875 46.484375 
L 14.40625 7.171875 
L 48.1875 7.171875 
L 48.1875 0 
L 4.296875 0 
L 4.296875 8.203125 
L 38.09375 47.515625 
L 5.515625 47.515625 
z
" id="DejaVuSans-122"/>
       <path d="M 19.671875 64.796875 
L 19.671875 37.40625 
L 32.078125 37.40625 
Q 38.96875 37.40625 42.71875 40.96875 
Q 46.484375 44.53125 46.484375 51.125 
Q 46.484375 57.671875 42.71875 61.234375 
Q 38.96875 64.796875 32.078125 64.796875 
z
M 9.8125 72.90625 
L 32.078125 72.90625 
Q 44.34375 72.90625 50.609375 67.359375 
Q 56.890625 61.8125 56.890625 51.125 
Q 56.890625 40.328125 50.609375 34.8125 
Q 44.34375 29.296875 32.078125 29.296875 
L 19.671875 29.296875 
L 19.671875 0 
L 9.8125 0 
z
" id="DejaVuSans-80"/>
       <path d="M 34.28125 27.484375 
Q 23.390625 27.484375 19.1875 25 
Q 14.984375 22.515625 14.984375 16.5 
Q 14.984375 11.71875 18.140625 8.90625 
Q 21.296875 6.109375 26.703125 6.109375 
Q 34.1875 6.109375 38.703125 11.40625 
Q 43.21875 16.703125 43.21875 25.484375 
L 43.21875 27.484375 
z
M 52.203125 31.203125 
L 52.203125 0 
L 43.21875 0 
L 43.21875 8.296875 
Q 40.140625 3.328125 35.546875 0.953125 
Q 30.953125 -1.421875 24.3125 -1.421875 
Q 15.921875 -1.421875 10.953125 3.296875 
Q 6 8.015625 6 15.921875 
Q 6 25.140625 12.171875 29.828125 
Q 18.359375 34.515625 30.609375 34.515625 
L 43.21875 34.515625 
L 43.21875 35.40625 
Q 43.21875 41.609375 39.140625 45 
Q 35.0625 48.390625 27.6875 48.390625 
Q 23 48.390625 18.546875 47.265625 
Q 14.109375 46.140625 10.015625 43.890625 
L 10.015625 52.203125 
Q 14.9375 54.109375 19.578125 55.046875 
Q 24.21875 56 28.609375 56 
Q 40.484375 56 46.34375 49.84375 
Q 52.203125 43.703125 52.203125 31.203125 
z
" id="DejaVuSans-97"/>
       <path d="M 18.3125 70.21875 
L 18.3125 54.6875 
L 36.8125 54.6875 
L 36.8125 47.703125 
L 18.3125 47.703125 
L 18.3125 18.015625 
Q 18.3125 11.328125 20.140625 9.421875 
Q 21.96875 7.515625 27.59375 7.515625 
L 36.8125 7.515625 
L 36.8125 0 
L 27.59375 0 
Q 17.1875 0 13.234375 3.875 
Q 9.28125 7.765625 9.28125 18.015625 
L 9.28125 47.703125 
L 2.6875 47.703125 
L 2.6875 54.6875 
L 9.28125 54.6875 
L 9.28125 70.21875 
z
" id="DejaVuSans-116"/>
       <path d="M 45.515625 34.671875 
L 14.453125 34.671875 
Q 12.359375 20.0625 14.5 13.875 
Q 17.1875 6.25 24.46875 6.25 
Q 31.78125 6.25 37.359375 13.921875 
Q 42.234375 20.65625 45.515625 34.671875 
z
M 47.015625 42.96875 
Q 48.34375 56.84375 46.625 61.71875 
Q 43.953125 69.4375 36.765625 69.4375 
Q 29.296875 69.4375 23.828125 61.8125 
Q 19.53125 55.671875 16.15625 42.96875 
z
M 38.1875 76.765625 
Q 49.90625 76.765625 54.59375 66.40625 
Q 59.28125 56.109375 55.71875 37.84375 
Q 52.203125 19.625 43.453125 9.28125 
Q 34.765625 -1.125 23.046875 -1.125 
Q 11.28125 -1.125 6.640625 9.28125 
Q 2 19.625 5.515625 37.84375 
Q 9.078125 56.109375 17.71875 66.40625 
Q 26.421875 76.765625 38.1875 76.765625 
z
" id="DejaVuSans-Oblique-952"/>
       <path d="M 60.015625 54.6875 
L 34.90625 27.875 
L 50.296875 0 
L 39.984375 0 
L 28.421875 21.6875 
L 8.296875 0 
L -2.59375 0 
L 24.3125 28.8125 
L 10.015625 54.6875 
L 20.3125 54.6875 
L 30.8125 34.90625 
L 49.125 54.6875 
z
" id="DejaVuSans-Oblique-120"/>
      </defs>
      <use transform="translate(0 0.234375)" xlink:href="#DejaVuSans-82"/>
      <use transform="translate(69.482422 0.234375)" xlink:href="#DejaVuSans-111"/>
      <use transform="translate(130.664062 0.234375)" xlink:href="#DejaVuSans-100"/>
      <use transform="translate(194.140625 0.234375)" xlink:href="#DejaVuSans-114"/>
      <use transform="translate(235.253906 0.234375)" xlink:href="#DejaVuSans-105"/>
      <use transform="translate(263.037109 0.234375)" xlink:href="#DejaVuSans-103"/>
      <use transform="translate(326.513672 0.234375)" xlink:href="#DejaVuSans-117"/>
      <use transform="translate(389.892578 0.234375)" xlink:href="#DejaVuSans-101"/>
      <use transform="translate(451.416016 0.234375)" xlink:href="#DejaVuSans-122"/>
      <use transform="translate(503.90625 0.234375)" xlink:href="#DejaVuSans-32"/>
      <use transform="translate(535.693359 0.234375)" xlink:href="#DejaVuSans-80"/>
      <use transform="translate(595.996094 0.234375)" xlink:href="#DejaVuSans-97"/>
      <use transform="translate(657.275391 0.234375)" xlink:href="#DejaVuSans-114"/>
      <use transform="translate(698.388672 0.234375)" xlink:href="#DejaVuSans-97"/>
      <use transform="translate(759.667969 0.234375)" xlink:href="#DejaVuSans-109"/>
      <use transform="translate(857.080078 0.234375)" xlink:href="#DejaVuSans-101"/>
      <use transform="translate(918.603516 0.234375)" xlink:href="#DejaVuSans-116"/>
      <use transform="translate(957.8125 0.234375)" xlink:href="#DejaVuSans-101"/>
      <use transform="translate(1019.335938 0.234375)" xlink:href="#DejaVuSans-114"/>
      <use transform="translate(1060.449219 0.234375)" xlink:href="#DejaVuSans-32"/>
      <use transform="translate(1092.236328 0.234375)" xlink:href="#DejaVuSans-Oblique-952"/>
      <use transform="translate(1153.417969 -16.171875)scale(0.7)" xlink:href="#DejaVuSans-Oblique-120"/>
      <use transform="translate(1197.578125 0.234375)" xlink:href="#DejaVuSans-32"/>
      <use transform="translate(1229.365234 0.234375)" xlink:href="#DejaVuSans-40"/>
      <use transform="translate(1268.378906 0.234375)" xlink:href="#DejaVuSans-100"/>
      <use transform="translate(1331.855469 0.234375)" xlink:href="#DejaVuSans-101"/>
      <use transform="translate(1393.378906 0.234375)" xlink:href="#DejaVuSans-103"/>
      <use transform="translate(1456.855469 0.234375)" xlink:href="#DejaVuSans-114"/>
      <use transform="translate(1497.96875 0.234375)" xlink:href="#DejaVuSans-101"/>
      <use transform="translate(1559.492188 0.234375)" xlink:href="#DejaVuSans-101"/>
      <use transform="translate(1621.015625 0.234375)" xlink:href="#DejaVuSans-41"/>
     </g>
    </g>
   </g>
   <g id="line2d_12">
    <path clip-path="url(#p116c85a91a)" d="M 41.781593 125.96134 
L 42.909678 126.069822 
L 44.042932 126.409042 
L 45.194855 127.000598 
L 46.308996 127.796284 
L 47.616674 128.969136 
L 49.202091 130.782523 
L 50.878378 133.027384 
L 53.245398 136.717825 
L 57.577154 144.089642 
L 60.194294 148.456193 
L 61.610317 150.323852 
L 64.505725 153.588869 
L 66.260963 155.320696 
L 67.38544 156.156482 
L 68.267896 156.547893 
L 68.96172 156.653628 
L 69.637112 156.515538 
L 70.395314 156.108027 
L 71.245696 155.368577 
L 72.097647 154.342902 
L 73.032719 152.839516 
L 74.107177 150.683154 
L 75.259174 147.843199 
L 76.796942 143.416996 
L 78.555032 137.652179 
L 80.583068 130.289885 
L 84.175315 117.099154 
L 86.217058 110.704841 
L 88.940514 103.038774 
L 91.14133 97.244963 
L 92.337829 94.628525 
L 93.54341 92.579944 
L 94.419418 91.453397 
L 95.275719 90.695294 
L 96.10027 90.332773 
L 96.604695 90.298649 
L 97.15235 90.425273 
L 97.949908 90.910364 
L 98.696278 91.670086 
L 99.444142 92.707832 
L 100.240216 94.10849 
L 101.448407 96.784168 
L 102.697142 100.155894 
L 104.236628 105.047678 
L 106.649679 113.690988 
L 109.169888 122.550942 
L 111.089713 128.498701 
L 114.61045 138.483992 
L 122.641839 160.74369 
L 127.233139 174.430698 
L 128.089155 176.361038 
L 129.015791 177.886085 
L 129.659074 178.541772 
L 130.326725 178.847667 
L 131.038336 178.748377 
L 131.742906 178.228425 
L 132.457658 177.292371 
L 133.161398 175.987239 
L 133.946864 174.09437 
L 135.023205 170.761432 
L 136.179172 166.240912 
L 137.292707 160.994664 
L 138.804468 152.537981 
L 140.448522 141.697623 
L 142.574083 125.730871 
L 145.623339 102.613394 
L 147.107773 93.004832 
L 148.355705 86.322849 
L 149.381337 81.893754 
L 150.369745 78.570094 
L 151.141745 76.647911 
L 151.944927 75.301983 
L 152.60155 74.704952 
L 153.112582 74.54909 
L 153.755561 74.715659 
L 154.36702 75.212523 
L 154.951627 75.947723 
L 155.992468 77.693977 
L 157.978866 81.196436 
L 158.657117 82.022995 
L 159.314627 82.514361 
L 159.941785 82.673776 
L 160.537301 82.557321 
L 161.127049 82.22898 
L 163.207476 80.681225 
L 163.772544 80.611399 
L 164.358984 80.912155 
L 164.691423 81.289488 
L 165.322489 82.478347 
L 165.947739 84.320416 
L 166.581591 86.891985 
L 167.498895 91.830094 
L 168.627651 99.60335 
L 170.271756 113.067529 
L 173.260572 138.087852 
L 174.579086 147.524183 
L 175.70767 154.315502 
L 176.803836 159.574618 
L 177.63555 162.59794 
L 178.22414 164.20399 
L 178.851915 165.417133 
L 179.477726 166.117163 
L 180.036489 166.333125 
L 180.519542 166.237997 
L 181.069883 165.863322 
L 181.905624 164.925107 
L 183.297818 163.285272 
L 183.72254 163.024064 
L 184.1225 162.982583 
L 184.524858 163.193693 
L 184.931722 163.714865 
L 185.409949 164.779277 
L 185.887732 166.376323 
L 186.609866 169.84713 
L 187.510465 175.854984 
L 188.818409 186.823208 
L 190.38558 199.644464 
L 191.184721 204.285389 
L 191.749855 206.335818 
L 192.179607 207.124513 
L 192.492234 207.26644 
L 192.802256 207.049248 
L 193.09378 206.527383 
L 193.467385 205.430393 
L 194.03622 202.922486 
L 194.873358 197.781482 
L 197.808195 177.627731 
L 198.654416 173.976398 
L 199.382335 171.799455 
L 200.180722 170.121068 
L 201.420546 168.147548 
L 205.304652 162.070717 
L 205.975604 160.579281 
L 206.572167 158.803854 
L 207.204006 156.278055 
L 207.85778 152.798911 
L 208.535664 148.144268 
L 209.324536 141.365629 
L 210.380227 130.33562 
L 213.783761 92.556507 
L 214.61208 86.346543 
L 215.181652 83.360396 
L 215.751596 81.514777 
L 216.137012 80.915899 
L 216.344122 80.801251 
L 216.551189 80.822987 
L 216.956882 81.224679 
L 217.519534 82.413076 
L 219.230637 86.747157 
L 219.644056 86.965694 
L 219.864201 86.831482 
L 220.086036 86.501975 
L 220.548813 85.160517 
L 221.010935 82.95832 
L 221.619495 78.94244 
L 224.12025 60.499161 
L 224.67661 58.256235 
L 225.198426 57.015168 
L 225.558054 56.576811 
L 225.892112 56.408348 
L 226.432948 56.453522 
L 227.464361 56.7159 
L 227.797572 56.626018 
L 228.177354 56.336098 
L 228.5654 55.811815 
L 229.158736 54.583622 
L 230.255971 51.473219 
L 231.274147 48.819609 
L 231.786742 48.013456 
L 232.12371 47.773513 
L 232.490074 47.813392 
L 232.877072 48.219066 
L 233.355796 49.245432 
L 233.817899 50.763191 
L 234.488313 53.776269 
L 235.500658 59.711926 
L 237.148072 71.25659 
L 238.613355 81.135873 
L 239.564753 85.987378 
L 240.280897 88.591455 
L 241.218814 91.123153 
L 242.086894 93.59523 
L 242.611317 95.688356 
L 243.159025 98.722584 
L 243.77315 103.473517 
L 244.396879 109.971039 
L 245.281719 122.047056 
L 246.551554 143.705577 
L 248.871218 184.422045 
L 249.848958 197.466475 
L 250.598828 204.886065 
L 251.245807 209.493337 
L 251.797424 212.206994 
L 252.376396 213.920055 
L 252.722597 214.392066 
L 253.019947 214.459963 
L 253.29296 214.24143 
L 253.697756 213.41555 
L 254.145757 211.811043 
L 254.763523 208.497093 
L 255.513671 203.092453 
L 258.124478 182.706583 
L 258.66034 180.650077 
L 259.001167 180.069706 
L 259.239438 180.026862 
L 259.477885 180.290367 
L 259.763199 181.008906 
L 260.251163 183.226798 
L 260.80695 187.146862 
L 261.64529 195.280845 
L 263.865857 219.181965 
L 264.44665 223.069166 
L 264.948558 224.956198 
L 265.233728 225.371967 
L 265.486888 225.332091 
L 265.742099 224.900793 
L 266.010445 224.02555 
L 266.429997 221.803549 
L 266.930678 217.838914 
L 267.634913 210.090072 
L 268.650561 195.724512 
L 270.85149 163.357754 
L 271.905412 151.366566 
L 272.775244 143.782943 
L 273.647286 138.126426 
L 274.304323 135.08458 
L 274.900421 133.317364 
L 275.284412 132.75533 
L 275.583108 132.668196 
L 275.920418 132.96362 
L 276.273861 133.737233 
L 276.714909 135.368346 
L 277.319495 138.725571 
L 278.086668 144.491921 
L 279.472293 157.202561 
L 281.14738 172.445321 
L 281.952806 178.08194 
L 282.560035 181.035263 
L 283.019538 182.395697 
L 283.335111 182.854941 
L 283.652351 182.901259 
L 284.012057 182.420413 
L 284.407224 181.204422 
L 284.911354 178.572488 
L 285.496286 174.018564 
L 286.294283 165.486919 
L 287.282789 152.051613 
L 288.597411 130.759133 
L 291.553234 80.943648 
L 292.351218 71.750181 
L 292.951595 67.482936 
L 293.277754 66.327596 
L 293.56246 66.041423 
L 293.691242 66.137268 
L 293.954754 66.767682 
L 294.328411 68.620804 
L 294.873094 73.052617 
L 295.905446 84.403732 
L 296.787852 93.112159 
L 297.443066 97.378435 
L 297.931054 99.301749 
L 298.34509 100.253938 
L 298.775976 100.722136 
L 299.062587 100.786148 
L 299.424672 100.610491 
L 299.784312 100.150087 
L 300.198651 99.216404 
L 300.623003 97.696036 
L 301.050101 95.414766 
L 301.560524 91.455547 
L 302.212504 84.219401 
L 302.974449 73.012811 
L 305.695569 29.959185 
L 306.262509 25.01727 
L 306.667129 22.944382 
L 306.960932 22.168796 
L 307.248396 21.956528 
L 307.491016 22.162325 
L 307.751477 22.741998 
L 308.128637 24.185348 
L 308.672991 27.436497 
L 309.349535 33.266531 
L 310.200599 42.876346 
L 313.256031 79.624172 
L 313.932728 84.143259 
L 314.337493 85.832042 
L 314.765108 86.688432 
L 314.937638 86.735922 
L 315.132233 86.565945 
L 315.342751 86.101409 
L 315.721574 84.505597 
L 316.23283 80.865799 
L 316.968557 73.48809 
L 318.131511 62.006416 
L 318.699636 58.592796 
L 319.068454 57.489296 
L 319.275593 57.276753 
L 319.449668 57.3234 
L 319.681743 57.694556 
L 319.990778 58.691604 
L 320.467699 61.104924 
L 322.140544 70.421998 
L 323.511733 76.250933 
L 324.021301 79.869251 
L 324.598274 85.686601 
L 325.321393 95.543402 
L 326.401955 113.962281 
L 328.031754 141.502527 
L 328.814042 150.995305 
L 329.307018 154.619944 
L 329.668427 155.943957 
L 329.940283 156.247593 
L 330.100599 156.183212 
L 330.346173 155.792842 
L 330.71628 154.710562 
L 331.771694 150.548752 
L 332.594108 146.871304 
L 334.530234 137.264497 
L 335.701389 132.382645 
L 335.98724 131.845507 
L 336.180777 131.786527 
L 336.377353 132.037701 
L 336.632592 132.920359 
L 336.917622 134.779764 
L 337.274834 138.57911 
L 337.784562 146.820088 
L 338.494908 162.59957 
L 340.501236 209.848555 
L 341.060474 217.314425 
L 341.562277 221.387827 
L 342.029689 223.491679 
L 342.369218 224.258938 
L 342.707187 224.525348 
L 343.012992 224.443127 
L 344.189833 223.742694 
L 344.944415 223.833464 
L 345.196021 223.619704 
L 345.482947 223.060488 
L 345.794852 221.986977 
L 346.212641 219.732941 
L 346.919112 214.312859 
L 348.040295 205.815463 
L 348.746493 202.078788 
L 349.174048 200.899708 
L 349.424054 200.75613 
L 349.589846 200.913928 
L 349.853533 201.602861 
L 350.181077 203.226356 
L 350.57106 206.252413 
L 351.246462 213.728479 
L 352.467869 227.823641 
L 352.921037 230.863507 
L 353.218132 231.667552 
L 353.333079 231.694602 
L 353.5538 231.299519 
L 353.802344 230.194157 
L 354.27833 226.541068 
L 355.844945 212.635478 
L 356.211684 211.406421 
L 356.372716 211.318748 
L 356.51638 211.503314 
L 356.744988 212.348365 
L 357.073824 214.821774 
L 357.533095 220.68601 
L 358.359436 235.405967 
L 359.081825 246.55545 
L 359.452275 249.846819 
L 359.731306 250.921064 
L 359.90204 250.957439 
L 360.073259 250.526027 
L 360.346104 248.912374 
L 360.703301 245.231428 
L 361.233827 237.059929 
L 362.085445 219.777173 
L 364.06229 178.484041 
L 364.579434 171.75461 
L 365.081149 167.908461 
L 365.444417 166.488517 
L 365.824697 165.789374 
L 366.432974 165.261925 
L 366.990677 164.947464 
L 367.334583 165.006495 
L 367.761587 165.409338 
L 368.871096 166.67975 
L 369.291451 166.866197 
L 369.624721 166.782041 
L 370.002661 166.379852 
L 370.672056 165.16289 
L 371.316521 163.629869 
L 371.64481 162.326397 
L 372.049976 159.690236 
L 372.428229 155.818187 
L 372.914653 148.328491 
L 373.49893 135.394076 
L 375.980377 74.155853 
L 376.550314 66.805981 
L 377.038874 62.974023 
L 377.559871 60.648116 
L 378.30121 58.581716 
L 378.803755 57.589781 
L 379.056413 57.46324 
L 379.200863 57.574445 
L 379.455195 58.159107 
L 379.768882 59.596486 
L 380.229865 62.956058 
L 381.025623 70.770659 
L 382.819015 89.062154 
L 383.395052 92.606952 
L 384.006305 95.18479 
L 384.791129 97.61576 
L 385.2235 98.411904 
L 385.486719 98.51291 
L 385.743472 98.269544 
L 386.106376 97.413422 
L 386.809483 95.567684 
L 387.021418 95.422569 
L 387.165681 95.499435 
L 387.408764 95.958864 
L 387.78391 97.343643 
L 388.690122 101.063208 
L 388.957818 101.385473 
L 389.096476 101.317273 
L 389.307993 100.87223 
L 389.605528 99.496771 
L 389.965141 96.570935 
L 390.455558 90.234489 
L 391.1413 77.749904 
L 394.55738 11.443518 
L 394.805904 10.123752 
L 394.929032 10.109117 
L 395.082803 10.687573 
L 395.34495 13.103458 
L 395.706521 18.894677 
L 396.249045 31.393807 
L 397.031179 55.245011 
L 398.287371 94.34644 
L 398.818927 104.773556 
L 399.206297 109.021368 
L 399.575694 110.968785 
L 399.829654 111.504439 
L 400.010092 111.551808 
L 400.161493 111.349738 
L 400.360162 110.672081 
L 400.632153 108.833062 
L 401.039629 104.145296 
L 402.302562 88.089108 
L 403.549662 75.678911 
L 404.697297 62.494813 
L 404.955922 61.506372 
L 405.101803 61.436446 
L 405.245846 61.657098 
L 405.56655 62.792679 
L 406.02154 64.320853 
L 406.235369 64.469973 
L 406.405914 64.27707 
L 406.685036 63.506487 
L 407.811139 59.921789 
L 408.311609 59.478943 
L 408.695014 59.33476 
L 409.000234 59.479977 
L 409.383483 59.938267 
L 409.623166 60.562102 
L 409.915709 62.028868 
L 411.078937 69.051791 
L 412.012264 72.503171 
L 412.31254 75.81144 
L 412.770849 83.692629 
L 413.722966 100.402692 
L 414.074155 102.708093 
L 414.875579 106.037716 
L 415.151314 109.254781 
L 415.587538 117.44042 
L 417.627967 164.200734 
L 418.738909 189.435103 
L 419.111477 193.930205 
L 419.381497 195.171895 
L 419.502865 195.241333 
L 419.652273 194.974441 
L 419.913468 193.768592 
L 420.33468 190.518094 
L 420.765198 185.30759 
L 421.216651 176.700009 
L 422.010256 156.296943 
L 422.361999 147.427775 
L 422.361999 147.427775 
" style="fill:none;stroke:#e36f47;"/>
   </g>
   <g id="patch_3">
    <path d="M 41.781593 258.225354 
L 41.781593 2.834646 
" style="fill:none;stroke:#000000;stroke-linecap:square;stroke-linejoin:miter;"/>
   </g>
   <g id="patch_4">
    <path d="M 41.781593 258.225354 
L 422.361999 258.225354 
" style="fill:none;stroke:#000000;stroke-linecap:square;stroke-linejoin:miter;"/>
   </g>
   <g id="legend_1">
    <g id="patch_5">
     <path d="M 299.041999 39.119646 
L 418.361999 39.119646 
L 418.361999 6.834646 
L 299.041999 6.834646 
z
" style="fill:#ffffff;stroke:#000000;stroke-linejoin:miter;"/>
    </g>
    <g id="line2d_13">
     <path d="M 305.441999 16.513396 
L 321.441999 16.513396 
" style="fill:none;stroke:#009afa;stroke-linejoin:miter;"/>
    </g>
    <g id="line2d_14"/>
    <g id="text_13">
     <!-- GXBeam -->
     <g transform="translate(327.841999 19.313396)scale(0.08 -0.08)">
      <defs>
       <path d="M 59.515625 10.40625 
L 59.515625 29.984375 
L 43.40625 29.984375 
L 43.40625 38.09375 
L 69.28125 38.09375 
L 69.28125 6.78125 
Q 63.578125 2.734375 56.6875 0.65625 
Q 49.8125 -1.421875 42 -1.421875 
Q 24.90625 -1.421875 15.25 8.5625 
Q 5.609375 18.5625 5.609375 36.375 
Q 5.609375 54.25 15.25 64.234375 
Q 24.90625 74.21875 42 74.21875 
Q 49.125 74.21875 55.546875 72.453125 
Q 61.96875 70.703125 67.390625 67.28125 
L 67.390625 56.78125 
Q 61.921875 61.421875 55.765625 63.765625 
Q 49.609375 66.109375 42.828125 66.109375 
Q 29.4375 66.109375 22.71875 58.640625 
Q 16.015625 51.171875 16.015625 36.375 
Q 16.015625 21.625 22.71875 14.15625 
Q 29.4375 6.6875 42.828125 6.6875 
Q 48.046875 6.6875 52.140625 7.59375 
Q 56.25 8.5 59.515625 10.40625 
z
" id="DejaVuSans-71"/>
       <path d="M 6.296875 72.90625 
L 16.890625 72.90625 
L 35.015625 45.796875 
L 53.21875 72.90625 
L 63.8125 72.90625 
L 40.375 37.890625 
L 65.375 0 
L 54.78125 0 
L 34.28125 31 
L 13.625 0 
L 2.984375 0 
L 29 38.921875 
z
" id="DejaVuSans-88"/>
       <path d="M 19.671875 34.8125 
L 19.671875 8.109375 
L 35.5 8.109375 
Q 43.453125 8.109375 47.28125 11.40625 
Q 51.125 14.703125 51.125 21.484375 
Q 51.125 28.328125 47.28125 31.5625 
Q 43.453125 34.8125 35.5 34.8125 
z
M 19.671875 64.796875 
L 19.671875 42.828125 
L 34.28125 42.828125 
Q 41.5 42.828125 45.03125 45.53125 
Q 48.578125 48.25 48.578125 53.8125 
Q 48.578125 59.328125 45.03125 62.0625 
Q 41.5 64.796875 34.28125 64.796875 
z
M 9.8125 72.90625 
L 35.015625 72.90625 
Q 46.296875 72.90625 52.390625 68.21875 
Q 58.5 63.53125 58.5 54.890625 
Q 58.5 48.1875 55.375 44.234375 
Q 52.25 40.28125 46.1875 39.3125 
Q 53.46875 37.75 57.5 32.78125 
Q 61.53125 27.828125 61.53125 20.40625 
Q 61.53125 10.640625 54.890625 5.3125 
Q 48.25 0 35.984375 0 
L 9.8125 0 
z
" id="DejaVuSans-66"/>
      </defs>
      <use xlink:href="#DejaVuSans-71"/>
      <use x="77.490234" xlink:href="#DejaVuSans-88"/>
      <use x="145.996094" xlink:href="#DejaVuSans-66"/>
      <use x="214.599609" xlink:href="#DejaVuSans-101"/>
      <use x="276.123047" xlink:href="#DejaVuSans-97"/>
      <use x="337.402344" xlink:href="#DejaVuSans-109"/>
     </g>
    </g>
    <g id="line2d_15">
     <path d="M 305.441999 28.255896 
L 321.441999 28.255896 
" style="fill:none;stroke:#e36f47;stroke-linejoin:miter;"/>
    </g>
    <g id="line2d_16"/>
    <g id="text_14">
     <!-- DifferentialEquations -->
     <g transform="translate(327.841999 31.055896)scale(0.08 -0.08)">
      <defs>
       <path d="M 19.671875 64.796875 
L 19.671875 8.109375 
L 31.59375 8.109375 
Q 46.6875 8.109375 53.6875 14.9375 
Q 60.6875 21.78125 60.6875 36.53125 
Q 60.6875 51.171875 53.6875 57.984375 
Q 46.6875 64.796875 31.59375 64.796875 
z
M 9.8125 72.90625 
L 30.078125 72.90625 
Q 51.265625 72.90625 61.171875 64.09375 
Q 71.09375 55.28125 71.09375 36.53125 
Q 71.09375 17.671875 61.125 8.828125 
Q 51.171875 0 30.078125 0 
L 9.8125 0 
z
" id="DejaVuSans-68"/>
       <path d="M 37.109375 75.984375 
L 37.109375 68.5 
L 28.515625 68.5 
Q 23.6875 68.5 21.796875 66.546875 
Q 19.921875 64.59375 19.921875 59.515625 
L 19.921875 54.6875 
L 34.71875 54.6875 
L 34.71875 47.703125 
L 19.921875 47.703125 
L 19.921875 0 
L 10.890625 0 
L 10.890625 47.703125 
L 2.296875 47.703125 
L 2.296875 54.6875 
L 10.890625 54.6875 
L 10.890625 58.5 
Q 10.890625 67.625 15.140625 71.796875 
Q 19.390625 75.984375 28.609375 75.984375 
z
" id="DejaVuSans-102"/>
       <path d="M 54.890625 33.015625 
L 54.890625 0 
L 45.90625 0 
L 45.90625 32.71875 
Q 45.90625 40.484375 42.875 44.328125 
Q 39.84375 48.1875 33.796875 48.1875 
Q 26.515625 48.1875 22.3125 43.546875 
Q 18.109375 38.921875 18.109375 30.90625 
L 18.109375 0 
L 9.078125 0 
L 9.078125 54.6875 
L 18.109375 54.6875 
L 18.109375 46.1875 
Q 21.34375 51.125 25.703125 53.5625 
Q 30.078125 56 35.796875 56 
Q 45.21875 56 50.046875 50.171875 
Q 54.890625 44.34375 54.890625 33.015625 
z
" id="DejaVuSans-110"/>
       <path d="M 9.421875 75.984375 
L 18.40625 75.984375 
L 18.40625 0 
L 9.421875 0 
z
" id="DejaVuSans-108"/>
       <path d="M 9.8125 72.90625 
L 55.90625 72.90625 
L 55.90625 64.59375 
L 19.671875 64.59375 
L 19.671875 43.015625 
L 54.390625 43.015625 
L 54.390625 34.71875 
L 19.671875 34.71875 
L 19.671875 8.296875 
L 56.78125 8.296875 
L 56.78125 0 
L 9.8125 0 
z
" id="DejaVuSans-69"/>
       <path d="M 14.796875 27.296875 
Q 14.796875 17.390625 18.875 11.75 
Q 22.953125 6.109375 30.078125 6.109375 
Q 37.203125 6.109375 41.296875 11.75 
Q 45.40625 17.390625 45.40625 27.296875 
Q 45.40625 37.203125 41.296875 42.84375 
Q 37.203125 48.484375 30.078125 48.484375 
Q 22.953125 48.484375 18.875 42.84375 
Q 14.796875 37.203125 14.796875 27.296875 
z
M 45.40625 8.203125 
Q 42.578125 3.328125 38.25 0.953125 
Q 33.9375 -1.421875 27.875 -1.421875 
Q 17.96875 -1.421875 11.734375 6.484375 
Q 5.515625 14.40625 5.515625 27.296875 
Q 5.515625 40.1875 11.734375 48.09375 
Q 17.96875 56 27.875 56 
Q 33.9375 56 38.25 53.625 
Q 42.578125 51.265625 45.40625 46.390625 
L 45.40625 54.6875 
L 54.390625 54.6875 
L 54.390625 -20.796875 
L 45.40625 -20.796875 
z
" id="DejaVuSans-113"/>
      </defs>
      <use xlink:href="#DejaVuSans-68"/>
      <use x="77.001953" xlink:href="#DejaVuSans-105"/>
      <use x="104.785156" xlink:href="#DejaVuSans-102"/>
      <use x="139.990234" xlink:href="#DejaVuSans-102"/>
      <use x="175.195312" xlink:href="#DejaVuSans-101"/>
      <use x="236.71875" xlink:href="#DejaVuSans-114"/>
      <use x="275.582031" xlink:href="#DejaVuSans-101"/>
      <use x="337.105469" xlink:href="#DejaVuSans-110"/>
      <use x="400.484375" xlink:href="#DejaVuSans-116"/>
      <use x="439.693359" xlink:href="#DejaVuSans-105"/>
      <use x="467.476562" xlink:href="#DejaVuSans-97"/>
      <use x="528.755859" xlink:href="#DejaVuSans-108"/>
      <use x="556.539062" xlink:href="#DejaVuSans-69"/>
      <use x="619.722656" xlink:href="#DejaVuSans-113"/>
      <use x="683.199219" xlink:href="#DejaVuSans-117"/>
      <use x="746.578125" xlink:href="#DejaVuSans-97"/>
      <use x="807.857422" xlink:href="#DejaVuSans-116"/>
      <use x="847.066406" xlink:href="#DejaVuSans-105"/>
      <use x="874.849609" xlink:href="#DejaVuSans-111"/>
      <use x="936.03125" xlink:href="#DejaVuSans-110"/>
      <use x="999.410156" xlink:href="#DejaVuSans-115"/>
     </g>
    </g>
   </g>
  </g>
 </g>
 <defs>
  <clipPath id="p116c85a91a">
   <rect height="255.390709" width="380.580407" x="41.781593" y="2.834646"/>
  </clipPath>
 </defs>
</svg>
