<?xml version="1.0" encoding="utf-8" standalone="no"?>
<!DOCTYPE svg PUBLIC "-//W3C//DTD SVG 1.1//EN"
  "http://www.w3.org/Graphics/SVG/1.1/DTD/svg11.dtd">
<!-- Created with matplotlib (https://matplotlib.org/) -->
<svg height="288pt" version="1.1" viewBox="0 0 432 288" width="432pt" xmlns="http://www.w3.org/2000/svg" xmlns:xlink="http://www.w3.org/1999/xlink">
 <metadata>
  <rdf:RDF xmlns:cc="http://creativecommons.org/ns#" xmlns:dc="http://purl.org/dc/elements/1.1/" xmlns:rdf="http://www.w3.org/1999/02/22-rdf-syntax-ns#">
   <cc:Work>
    <dc:type rdf:resource="http://purl.org/dc/dcmitype/StillImage"/>
    <dc:date>2021-04-27T19:06:54.295262</dc:date>
    <dc:format>image/svg+xml</dc:format>
    <dc:creator>
     <cc:Agent>
      <dc:title>Matplotlib v3.3.4, https://matplotlib.org/</dc:title>
     </cc:Agent>
    </dc:creator>
   </cc:Work>
  </rdf:RDF>
 </metadata>
 <defs>
  <style type="text/css">*{stroke-linecap:butt;stroke-linejoin:round;}</style>
 </defs>
 <g id="figure_1">
  <g id="patch_1">
   <path d="M 0 288 
L 432 288 
L 432 0 
L 0 0 
z
" style="fill:#ffffff;"/>
  </g>
  <g id="axes_1">
   <g id="patch_2">
    <path d="M 43.915109 258.225354 
L 422.361999 258.225354 
L 422.361999 2.834646 
L 43.915109 2.834646 
z
" style="fill:#ffffff;"/>
   </g>
   <g id="line2d_1">
    <path clip-path="url(#p8bbf2b2a00)" d="M 43.915109 10.062685 
L 49.213366 10.163466 
L 51.67327 10.412705 
L 53.565505 10.812307 
L 55.079292 11.360129 
L 56.59308 12.147666 
L 57.917644 13.068614 
L 59.620655 14.536774 
L 61.323666 16.313889 
L 62.837454 18.213378 
L 64.540465 20.687741 
L 66.432699 23.869606 
L 70.406391 30.649533 
L 72.109402 33.134192 
L 74.001637 35.461849 
L 75.326201 36.789016 
L 76.650765 37.801509 
L 77.975329 38.553776 
L 79.299893 39.065347 
L 80.435234 39.296024 
L 81.759798 39.347215 
L 82.895139 39.169947 
L 84.030479 38.744645 
L 85.355044 37.959146 
L 87.058055 36.632295 
L 90.464077 33.854612 
L 91.788641 33.1245 
L 92.923981 32.723063 
L 94.059322 32.542806 
L 95.57311 32.56255 
L 99.736025 32.820712 
L 100.871366 32.607049 
L 102.19593 32.130086 
L 103.709718 31.313208 
L 105.791176 29.90299 
L 111.657102 25.789746 
L 112.981667 25.099051 
L 113.927784 24.812738 
L 114.684678 24.774969 
L 115.441571 24.954907 
L 116.198465 25.393583 
L 116.955359 26.139454 
L 117.712253 27.224673 
L 118.469146 28.667744 
L 119.415264 30.964115 
L 120.550604 34.371314 
L 121.875168 39.067469 
L 127.173425 58.845653 
L 128.308766 61.999882 
L 129.444106 64.501765 
L 130.390223 66.098806 
L 131.336341 67.245818 
L 132.093234 67.836704 
L 132.850128 68.135809 
L 133.417799 68.171568 
L 133.985469 68.030643 
L 134.553139 67.714223 
L 135.12081 67.194123 
L 135.877703 66.160093 
L 136.634597 64.705493 
L 137.580714 62.294408 
L 138.526832 59.254708 
L 139.662172 54.887008 
L 141.74363 45.741015 
L 143.446641 38.584211 
L 144.581982 34.626045 
L 145.528099 32.093454 
L 146.284993 30.65959 
L 146.852663 29.959539 
L 147.420334 29.579482 
L 147.988004 29.524618 
L 148.555674 29.788747 
L 149.123345 30.358021 
L 149.691015 31.222487 
L 150.447909 32.796533 
L 151.394026 35.356641 
L 152.529367 39.10347 
L 154.421601 46.279387 
L 156.692282 54.696472 
L 157.827623 58.180119 
L 158.77374 60.517959 
L 159.719857 62.255286 
L 160.476751 63.190669 
L 161.233645 63.727273 
L 161.801315 63.867073 
L 162.368986 63.789643 
L 162.936656 63.499972 
L 163.69355 62.784522 
L 164.450444 61.711145 
L 165.396561 59.876441 
L 166.342678 57.531437 
L 167.478019 54.085284 
L 168.802583 49.277905 
L 170.884041 40.634777 
L 172.965499 32.23171 
L 174.100839 28.585665 
L 174.857733 26.829116 
L 175.425403 25.965901 
L 175.993074 25.551711 
L 176.371521 25.548155 
L 176.749968 25.78028 
L 177.128414 26.260978 
L 177.696085 27.461483 
L 178.263755 29.267932 
L 179.020649 32.616817 
L 179.777543 36.994825 
L 180.72366 43.776446 
L 181.859001 53.545305 
L 183.372788 68.622722 
L 188.292598 119.689856 
L 189.427938 128.74315 
L 190.374056 134.864258 
L 191.320173 139.644457 
L 192.077067 142.511593 
L 192.83396 144.574188 
L 193.401631 145.613851 
L 193.969301 146.255641 
L 194.536971 146.516166 
L 194.915418 146.47236 
L 195.293865 146.251436 
L 195.861535 145.578569 
L 196.429206 144.452638 
L 196.996876 142.834571 
L 197.75377 139.846899 
L 198.510664 135.849954 
L 199.456781 129.378292 
L 200.402898 121.301197 
L 201.727462 107.693749 
L 206.079601 60.210044 
L 207.214942 50.749389 
L 208.350283 43.192661 
L 209.2964 38.368022 
L 210.053294 35.500996 
L 210.620964 33.965377 
L 211.188635 33.006503 
L 211.567081 32.708399 
L 211.945528 32.690872 
L 212.323975 32.967086 
L 212.702422 33.538992 
L 213.270092 34.954583 
L 213.837763 37.045975 
L 214.594657 40.860369 
L 215.540774 47.158809 
L 216.676114 56.622284 
L 218.189902 71.641409 
L 221.028254 100.615619 
L 222.163594 109.825881 
L 223.109712 115.821381 
L 223.866605 119.384082 
L 224.623499 121.840281 
L 225.191169 123.008056 
L 225.75884 123.687026 
L 226.32651 123.952442 
L 226.89418 123.89419 
L 227.461851 123.583853 
L 228.218745 122.883161 
L 228.975638 121.880994 
L 229.732532 120.526887 
L 230.489426 118.698425 
L 231.24632 116.278427 
L 232.003213 113.08771 
L 232.760107 108.901335 
L 233.517001 103.546025 
L 234.463118 95.202564 
L 235.598459 83.143802 
L 239.193704 42.880208 
L 240.139822 35.439962 
L 240.896715 31.268216 
L 241.464386 29.373111 
L 241.842833 28.750291 
L 242.032056 28.638167 
L 242.22128 28.660882 
L 242.599726 29.115663 
L 242.978173 30.118719 
L 243.545844 32.631536 
L 244.113514 36.3214 
L 244.870408 42.959149 
L 245.816525 53.671169 
L 247.141089 71.777217 
L 253.196239 158.607318 
L 254.710027 177.187799 
L 255.845368 188.748116 
L 256.980708 198.112041 
L 257.926825 204.37939 
L 258.872943 209.210889 
L 259.629836 212.012079 
L 260.38673 213.950243 
L 260.954401 214.903997 
L 261.522071 215.412628 
L 261.900518 215.447687 
L 262.278965 215.182882 
L 262.657412 214.538709 
L 263.035858 213.422495 
L 263.603529 210.764241 
L 264.171199 206.865796 
L 264.928093 199.938189 
L 266.063434 187.068321 
L 267.577221 167.304162 
L 269.847902 134.245278 
L 272.497031 96.294768 
L 273.821595 79.88188 
L 274.767712 70.700164 
L 275.524606 65.427254 
L 276.092276 62.940101 
L 276.470723 62.033915 
L 276.84917 61.761895 
L 277.038393 61.864468 
L 277.41684 62.524191 
L 277.795287 63.762435 
L 278.362958 66.591933 
L 279.119851 71.82773 
L 280.255192 81.681233 
L 283.093544 107.33795 
L 284.039661 113.721817 
L 284.796555 117.617675 
L 285.553448 120.559199 
L 286.499566 123.290656 
L 287.82413 126.224199 
L 289.716364 130.417064 
L 290.662481 132.321769 
L 291.230152 132.985692 
L 291.608599 133.116056 
L 291.987046 132.950207 
L 292.365492 132.511197 
L 292.933163 131.424003 
L 293.87928 128.927997 
L 295.014621 125.30375 
L 295.771514 122.107747 
L 296.528408 117.766676 
L 297.285302 112.036434 
L 298.609866 99.678002 
L 299.93443 87.788556 
L 303.718899 57.739234 
L 304.475793 53.488127 
L 305.043463 51.585893 
L 305.42191 50.969211 
L 305.800357 50.830374 
L 306.178804 51.106784 
L 306.557251 51.729311 
L 307.124921 53.214676 
L 307.692592 55.332826 
L 308.449485 59.241385 
L 309.206379 64.530937 
L 310.152496 73.179053 
L 311.47706 88.197963 
L 312.801625 105.637172 
L 313.558518 118.391221 
L 314.504636 138.393072 
L 318.478328 229.350515 
L 319.235222 241.859032 
L 319.802892 248.212126 
L 320.181339 250.4534 
L 320.370562 250.931431 
L 320.559786 250.997315 
L 320.749009 250.685547 
L 321.127456 249.147337 
L 321.88435 244.221383 
L 322.830467 238.497459 
L 323.587361 235.483352 
L 324.344255 233.477578 
L 325.668819 230.339442 
L 326.993383 226.352063 
L 327.37183 225.974958 
L 327.750277 226.029164 
L 328.128724 226.20264 
L 328.317947 226.188178 
L 328.50717 226.021912 
L 328.696394 225.643503 
L 329.074841 224.030981 
L 329.453288 221.005324 
L 330.020958 213.566932 
L 330.777852 198.965127 
L 331.913192 171.454186 
L 333.805427 126.249183 
L 335.886885 81.401417 
L 336.833002 65.441404 
L 337.589896 55.860542 
L 338.34679 49.083169 
L 338.91446 45.657532 
L 339.48213 43.277788 
L 340.239024 41.133403 
L 340.617471 40.482284 
L 340.995918 40.215785 
L 341.185141 40.260104 
L 341.563588 40.761778 
L 341.942035 41.854471 
L 342.320482 43.595465 
L 342.888152 47.415628 
L 343.83427 55.771655 
L 346.861845 86.038046 
L 349.132526 110.954125 
L 350.078643 117.997878 
L 353.863112 142.133001 
L 354.430782 144.618201 
L 354.998453 146.154697 
L 355.566123 146.958512 
L 356.51224 147.873112 
L 356.890687 147.927176 
L 357.269134 147.494471 
L 357.647581 146.514039 
L 358.215251 144.207927 
L 358.972145 140.012002 
L 359.918262 133.07026 
L 361.43205 121.966376 
L 363.135061 109.470248 
L 364.270402 99.930125 
L 365.594966 86.071349 
L 370.514775 31.079302 
L 371.082446 26.236108 
L 371.650116 23.069353 
L 372.028563 21.778526 
L 372.40701 21.220412 
L 372.596233 21.265629 
L 372.785457 21.540057 
L 373.163904 22.700839 
L 374.110021 27.101889 
L 374.677691 30.261129 
L 375.245361 35.272077 
L 375.813032 42.659944 
L 376.569926 56.026299 
L 379.219054 109.101341 
L 381.111288 141.519031 
L 381.868182 151.806116 
L 382.435852 156.785423 
L 383.38197 162.74839 
L 384.51731 169.111443 
L 386.031098 179.147219 
L 387.355662 187.201433 
L 387.923332 189.009804 
L 389.058673 191.74838 
L 389.626343 192.273176 
L 390.194014 192.64059 
L 390.383237 192.592055 
L 390.57246 192.353756 
L 390.950907 191.136357 
L 391.518578 187.586915 
L 392.653918 178.28161 
L 393.410812 169.540366 
L 394.546153 153.596361 
L 399.276739 79.297003 
L 400.222856 68.579696 
L 403.061208 40.556498 
L 403.818102 35.032759 
L 404.574995 31.085829 
L 405.521113 27.343258 
L 406.845677 23.652122 
L 407.224124 23.364 
L 407.602571 23.634947 
L 407.981017 24.395845 
L 408.359464 25.725104 
L 408.927135 28.731818 
L 409.494805 33.675664 
L 410.440922 44.846367 
L 411.387039 59.524084 
L 412.711604 84.434104 
L 415.928402 145.417703 
L 416.496072 151.976682 
L 416.874519 153.970799 
L 417.252966 154.801209 
L 417.631413 155.163743 
L 417.820637 155.153502 
L 418.199083 154.677816 
L 418.57753 154.064648 
L 418.955977 153.87699 
L 419.334424 153.829527 
L 419.712871 153.494303 
L 420.091318 152.885736 
L 420.469765 151.881355 
L 421.983552 145.947171 
L 422.361999 144.274185 
L 422.361999 144.274185 
" style="fill:none;stroke:#009afa;"/>
   </g>
   <g id="matplotlib.axis_1">
    <g id="xtick_1">
     <g id="line2d_2">
      <defs>
       <path d="M 0 0 
L 0 -2.5 
" id="m81f8114d86" style="stroke:#000000;stroke-width:0.5;"/>
      </defs>
      <g>
       <use style="stroke:#000000;stroke-width:0.5;" x="43.915109" xlink:href="#m81f8114d86" y="258.225354"/>
      </g>
     </g>
     <g id="text_1">
      <!-- $\mathregular{0.0}$ -->
      <g transform="translate(37.515109 267.804104)scale(0.08 -0.08)">
       <defs>
        <path d="M 31.78125 66.40625 
Q 24.171875 66.40625 20.328125 58.90625 
Q 16.5 51.421875 16.5 36.375 
Q 16.5 21.390625 20.328125 13.890625 
Q 24.171875 6.390625 31.78125 6.390625 
Q 39.453125 6.390625 43.28125 13.890625 
Q 47.125 21.390625 47.125 36.375 
Q 47.125 51.421875 43.28125 58.90625 
Q 39.453125 66.40625 31.78125 66.40625 
z
M 31.78125 74.21875 
Q 44.046875 74.21875 50.515625 64.515625 
Q 56.984375 54.828125 56.984375 36.375 
Q 56.984375 17.96875 50.515625 8.265625 
Q 44.046875 -1.421875 31.78125 -1.421875 
Q 19.53125 -1.421875 13.0625 8.265625 
Q 6.59375 17.96875 6.59375 36.375 
Q 6.59375 54.828125 13.0625 64.515625 
Q 19.53125 74.21875 31.78125 74.21875 
z
" id="DejaVuSans-48"/>
        <path d="M 10.6875 12.40625 
L 21 12.40625 
L 21 0 
L 10.6875 0 
z
" id="DejaVuSans-46"/>
       </defs>
       <use transform="translate(0 0.78125)" xlink:href="#DejaVuSans-48"/>
       <use transform="translate(63.623047 0.78125)" xlink:href="#DejaVuSans-46"/>
       <use transform="translate(95.410156 0.78125)" xlink:href="#DejaVuSans-48"/>
      </g>
     </g>
    </g>
    <g id="xtick_2">
     <g id="line2d_3">
      <g>
       <use style="stroke:#000000;stroke-width:0.5;" x="138.526832" xlink:href="#m81f8114d86" y="258.225354"/>
      </g>
     </g>
     <g id="text_2">
      <!-- $\mathregular{0.5}$ -->
      <g transform="translate(132.126832 267.804104)scale(0.08 -0.08)">
       <defs>
        <path d="M 10.796875 72.90625 
L 49.515625 72.90625 
L 49.515625 64.59375 
L 19.828125 64.59375 
L 19.828125 46.734375 
Q 21.96875 47.46875 24.109375 47.828125 
Q 26.265625 48.1875 28.421875 48.1875 
Q 40.625 48.1875 47.75 41.5 
Q 54.890625 34.8125 54.890625 23.390625 
Q 54.890625 11.625 47.5625 5.09375 
Q 40.234375 -1.421875 26.90625 -1.421875 
Q 22.3125 -1.421875 17.546875 -0.640625 
Q 12.796875 0.140625 7.71875 1.703125 
L 7.71875 11.625 
Q 12.109375 9.234375 16.796875 8.0625 
Q 21.484375 6.890625 26.703125 6.890625 
Q 35.15625 6.890625 40.078125 11.328125 
Q 45.015625 15.765625 45.015625 23.390625 
Q 45.015625 31 40.078125 35.4375 
Q 35.15625 39.890625 26.703125 39.890625 
Q 22.75 39.890625 18.8125 39.015625 
Q 14.890625 38.140625 10.796875 36.28125 
z
" id="DejaVuSans-53"/>
       </defs>
       <use transform="translate(0 0.78125)" xlink:href="#DejaVuSans-48"/>
       <use transform="translate(63.623047 0.78125)" xlink:href="#DejaVuSans-46"/>
       <use transform="translate(95.410156 0.78125)" xlink:href="#DejaVuSans-53"/>
      </g>
     </g>
    </g>
    <g id="xtick_3">
     <g id="line2d_4">
      <g>
       <use style="stroke:#000000;stroke-width:0.5;" x="233.138554" xlink:href="#m81f8114d86" y="258.225354"/>
      </g>
     </g>
     <g id="text_3">
      <!-- $\mathregular{1.0}$ -->
      <g transform="translate(226.738554 267.804104)scale(0.08 -0.08)">
       <defs>
        <path d="M 12.40625 8.296875 
L 28.515625 8.296875 
L 28.515625 63.921875 
L 10.984375 60.40625 
L 10.984375 69.390625 
L 28.421875 72.90625 
L 38.28125 72.90625 
L 38.28125 8.296875 
L 54.390625 8.296875 
L 54.390625 0 
L 12.40625 0 
z
" id="DejaVuSans-49"/>
       </defs>
       <use transform="translate(0 0.78125)" xlink:href="#DejaVuSans-49"/>
       <use transform="translate(63.623047 0.78125)" xlink:href="#DejaVuSans-46"/>
       <use transform="translate(95.410156 0.78125)" xlink:href="#DejaVuSans-48"/>
      </g>
     </g>
    </g>
    <g id="xtick_4">
     <g id="line2d_5">
      <g>
       <use style="stroke:#000000;stroke-width:0.5;" x="327.750277" xlink:href="#m81f8114d86" y="258.225354"/>
      </g>
     </g>
     <g id="text_4">
      <!-- $\mathregular{1.5}$ -->
      <g transform="translate(321.350277 267.804104)scale(0.08 -0.08)">
       <use transform="translate(0 0.09375)" xlink:href="#DejaVuSans-49"/>
       <use transform="translate(63.623047 0.09375)" xlink:href="#DejaVuSans-46"/>
       <use transform="translate(95.410156 0.09375)" xlink:href="#DejaVuSans-53"/>
      </g>
     </g>
    </g>
    <g id="xtick_5">
     <g id="line2d_6">
      <g>
       <use style="stroke:#000000;stroke-width:0.5;" x="422.361999" xlink:href="#m81f8114d86" y="258.225354"/>
      </g>
     </g>
     <g id="text_5">
      <!-- $\mathregular{2.0}$ -->
      <g transform="translate(415.961999 267.804104)scale(0.08 -0.08)">
       <defs>
        <path d="M 19.1875 8.296875 
L 53.609375 8.296875 
L 53.609375 0 
L 7.328125 0 
L 7.328125 8.296875 
Q 12.9375 14.109375 22.625 23.890625 
Q 32.328125 33.6875 34.8125 36.53125 
Q 39.546875 41.84375 41.421875 45.53125 
Q 43.3125 49.21875 43.3125 52.78125 
Q 43.3125 58.59375 39.234375 62.25 
Q 35.15625 65.921875 28.609375 65.921875 
Q 23.96875 65.921875 18.8125 64.3125 
Q 13.671875 62.703125 7.8125 59.421875 
L 7.8125 69.390625 
Q 13.765625 71.78125 18.9375 73 
Q 24.125 74.21875 28.421875 74.21875 
Q 39.75 74.21875 46.484375 68.546875 
Q 53.21875 62.890625 53.21875 53.421875 
Q 53.21875 48.921875 51.53125 44.890625 
Q 49.859375 40.875 45.40625 35.40625 
Q 44.1875 33.984375 37.640625 27.21875 
Q 31.109375 20.453125 19.1875 8.296875 
z
" id="DejaVuSans-50"/>
       </defs>
       <use transform="translate(0 0.78125)" xlink:href="#DejaVuSans-50"/>
       <use transform="translate(63.623047 0.78125)" xlink:href="#DejaVuSans-46"/>
       <use transform="translate(95.410156 0.78125)" xlink:href="#DejaVuSans-48"/>
      </g>
     </g>
    </g>
    <g id="text_6">
     <!-- Time (s) -->
     <g transform="translate(210.776757 281.826136)scale(0.11 -0.11)">
      <defs>
       <path d="M -0.296875 72.90625 
L 61.375 72.90625 
L 61.375 64.59375 
L 35.5 64.59375 
L 35.5 0 
L 25.59375 0 
L 25.59375 64.59375 
L -0.296875 64.59375 
z
" id="DejaVuSans-84"/>
       <path d="M 9.421875 54.6875 
L 18.40625 54.6875 
L 18.40625 0 
L 9.421875 0 
z
M 9.421875 75.984375 
L 18.40625 75.984375 
L 18.40625 64.59375 
L 9.421875 64.59375 
z
" id="DejaVuSans-105"/>
       <path d="M 52 44.1875 
Q 55.375 50.25 60.0625 53.125 
Q 64.75 56 71.09375 56 
Q 79.640625 56 84.28125 50.015625 
Q 88.921875 44.046875 88.921875 33.015625 
L 88.921875 0 
L 79.890625 0 
L 79.890625 32.71875 
Q 79.890625 40.578125 77.09375 44.375 
Q 74.3125 48.1875 68.609375 48.1875 
Q 61.625 48.1875 57.5625 43.546875 
Q 53.515625 38.921875 53.515625 30.90625 
L 53.515625 0 
L 44.484375 0 
L 44.484375 32.71875 
Q 44.484375 40.625 41.703125 44.40625 
Q 38.921875 48.1875 33.109375 48.1875 
Q 26.21875 48.1875 22.15625 43.53125 
Q 18.109375 38.875 18.109375 30.90625 
L 18.109375 0 
L 9.078125 0 
L 9.078125 54.6875 
L 18.109375 54.6875 
L 18.109375 46.1875 
Q 21.1875 51.21875 25.484375 53.609375 
Q 29.78125 56 35.6875 56 
Q 41.65625 56 45.828125 52.96875 
Q 50 49.953125 52 44.1875 
z
" id="DejaVuSans-109"/>
       <path d="M 56.203125 29.59375 
L 56.203125 25.203125 
L 14.890625 25.203125 
Q 15.484375 15.921875 20.484375 11.0625 
Q 25.484375 6.203125 34.421875 6.203125 
Q 39.59375 6.203125 44.453125 7.46875 
Q 49.3125 8.734375 54.109375 11.28125 
L 54.109375 2.78125 
Q 49.265625 0.734375 44.1875 -0.34375 
Q 39.109375 -1.421875 33.890625 -1.421875 
Q 20.796875 -1.421875 13.15625 6.1875 
Q 5.515625 13.8125 5.515625 26.8125 
Q 5.515625 40.234375 12.765625 48.109375 
Q 20.015625 56 32.328125 56 
Q 43.359375 56 49.78125 48.890625 
Q 56.203125 41.796875 56.203125 29.59375 
z
M 47.21875 32.234375 
Q 47.125 39.59375 43.09375 43.984375 
Q 39.0625 48.390625 32.421875 48.390625 
Q 24.90625 48.390625 20.390625 44.140625 
Q 15.875 39.890625 15.1875 32.171875 
z
" id="DejaVuSans-101"/>
       <path id="DejaVuSans-32"/>
       <path d="M 31 75.875 
Q 24.46875 64.65625 21.28125 53.65625 
Q 18.109375 42.671875 18.109375 31.390625 
Q 18.109375 20.125 21.3125 9.0625 
Q 24.515625 -2 31 -13.1875 
L 23.1875 -13.1875 
Q 15.875 -1.703125 12.234375 9.375 
Q 8.59375 20.453125 8.59375 31.390625 
Q 8.59375 42.28125 12.203125 53.3125 
Q 15.828125 64.359375 23.1875 75.875 
z
" id="DejaVuSans-40"/>
       <path d="M 44.28125 53.078125 
L 44.28125 44.578125 
Q 40.484375 46.53125 36.375 47.5 
Q 32.28125 48.484375 27.875 48.484375 
Q 21.1875 48.484375 17.84375 46.4375 
Q 14.5 44.390625 14.5 40.28125 
Q 14.5 37.15625 16.890625 35.375 
Q 19.28125 33.59375 26.515625 31.984375 
L 29.59375 31.296875 
Q 39.15625 29.25 43.1875 25.515625 
Q 47.21875 21.78125 47.21875 15.09375 
Q 47.21875 7.46875 41.1875 3.015625 
Q 35.15625 -1.421875 24.609375 -1.421875 
Q 20.21875 -1.421875 15.453125 -0.5625 
Q 10.6875 0.296875 5.421875 2 
L 5.421875 11.28125 
Q 10.40625 8.6875 15.234375 7.390625 
Q 20.0625 6.109375 24.8125 6.109375 
Q 31.15625 6.109375 34.5625 8.28125 
Q 37.984375 10.453125 37.984375 14.40625 
Q 37.984375 18.0625 35.515625 20.015625 
Q 33.0625 21.96875 24.703125 23.78125 
L 21.578125 24.515625 
Q 13.234375 26.265625 9.515625 29.90625 
Q 5.8125 33.546875 5.8125 39.890625 
Q 5.8125 47.609375 11.28125 51.796875 
Q 16.75 56 26.8125 56 
Q 31.78125 56 36.171875 55.265625 
Q 40.578125 54.546875 44.28125 53.078125 
z
" id="DejaVuSans-115"/>
       <path d="M 8.015625 75.875 
L 15.828125 75.875 
Q 23.140625 64.359375 26.78125 53.3125 
Q 30.421875 42.28125 30.421875 31.390625 
Q 30.421875 20.453125 26.78125 9.375 
Q 23.140625 -1.703125 15.828125 -13.1875 
L 8.015625 -13.1875 
Q 14.5 -2 17.703125 9.0625 
Q 20.90625 20.125 20.90625 31.390625 
Q 20.90625 42.671875 17.703125 53.65625 
Q 14.5 64.65625 8.015625 75.875 
z
" id="DejaVuSans-41"/>
      </defs>
      <use xlink:href="#DejaVuSans-84"/>
      <use x="57.958984" xlink:href="#DejaVuSans-105"/>
      <use x="85.742188" xlink:href="#DejaVuSans-109"/>
      <use x="183.154297" xlink:href="#DejaVuSans-101"/>
      <use x="244.677734" xlink:href="#DejaVuSans-32"/>
      <use x="276.464844" xlink:href="#DejaVuSans-40"/>
      <use x="315.478516" xlink:href="#DejaVuSans-115"/>
      <use x="367.578125" xlink:href="#DejaVuSans-41"/>
     </g>
    </g>
   </g>
   <g id="matplotlib.axis_2">
    <g id="ytick_1">
     <g id="line2d_7">
      <defs>
       <path d="M 0 0 
L 2.5 0 
" id="m03eecb695d" style="stroke:#000000;stroke-width:0.5;"/>
      </defs>
      <g>
       <use style="stroke:#000000;stroke-width:0.5;" x="43.915109" xlink:href="#m03eecb695d" y="214.660031"/>
      </g>
     </g>
     <g id="text_7">
      <!-- $\mathregular{-0.6}$ -->
      <g transform="translate(20.975109 217.699406)scale(0.08 -0.08)">
       <defs>
        <path d="M 10.59375 35.5 
L 73.1875 35.5 
L 73.1875 27.203125 
L 10.59375 27.203125 
z
" id="DejaVuSans-8722"/>
        <path d="M 33.015625 40.375 
Q 26.375 40.375 22.484375 35.828125 
Q 18.609375 31.296875 18.609375 23.390625 
Q 18.609375 15.53125 22.484375 10.953125 
Q 26.375 6.390625 33.015625 6.390625 
Q 39.65625 6.390625 43.53125 10.953125 
Q 47.40625 15.53125 47.40625 23.390625 
Q 47.40625 31.296875 43.53125 35.828125 
Q 39.65625 40.375 33.015625 40.375 
z
M 52.59375 71.296875 
L 52.59375 62.3125 
Q 48.875 64.0625 45.09375 64.984375 
Q 41.3125 65.921875 37.59375 65.921875 
Q 27.828125 65.921875 22.671875 59.328125 
Q 17.53125 52.734375 16.796875 39.40625 
Q 19.671875 43.65625 24.015625 45.921875 
Q 28.375 48.1875 33.59375 48.1875 
Q 44.578125 48.1875 50.953125 41.515625 
Q 57.328125 34.859375 57.328125 23.390625 
Q 57.328125 12.15625 50.6875 5.359375 
Q 44.046875 -1.421875 33.015625 -1.421875 
Q 20.359375 -1.421875 13.671875 8.265625 
Q 6.984375 17.96875 6.984375 36.375 
Q 6.984375 53.65625 15.1875 63.9375 
Q 23.390625 74.21875 37.203125 74.21875 
Q 40.921875 74.21875 44.703125 73.484375 
Q 48.484375 72.75 52.59375 71.296875 
z
" id="DejaVuSans-54"/>
       </defs>
       <use transform="translate(0 0.78125)" xlink:href="#DejaVuSans-8722"/>
       <use transform="translate(83.789062 0.78125)" xlink:href="#DejaVuSans-48"/>
       <use transform="translate(147.412109 0.78125)" xlink:href="#DejaVuSans-46"/>
       <use transform="translate(179.199219 0.78125)" xlink:href="#DejaVuSans-54"/>
      </g>
     </g>
    </g>
    <g id="ytick_2">
     <g id="line2d_8">
      <g>
       <use style="stroke:#000000;stroke-width:0.5;" x="43.915109" xlink:href="#m03eecb695d" y="146.460916"/>
      </g>
     </g>
     <g id="text_8">
      <!-- $\mathregular{-0.4}$ -->
      <g transform="translate(20.975109 149.500291)scale(0.08 -0.08)">
       <defs>
        <path d="M 37.796875 64.3125 
L 12.890625 25.390625 
L 37.796875 25.390625 
z
M 35.203125 72.90625 
L 47.609375 72.90625 
L 47.609375 25.390625 
L 58.015625 25.390625 
L 58.015625 17.1875 
L 47.609375 17.1875 
L 47.609375 0 
L 37.796875 0 
L 37.796875 17.1875 
L 4.890625 17.1875 
L 4.890625 26.703125 
z
" id="DejaVuSans-52"/>
       </defs>
       <use transform="translate(0 0.78125)" xlink:href="#DejaVuSans-8722"/>
       <use transform="translate(83.789062 0.78125)" xlink:href="#DejaVuSans-48"/>
       <use transform="translate(147.412109 0.78125)" xlink:href="#DejaVuSans-46"/>
       <use transform="translate(179.199219 0.78125)" xlink:href="#DejaVuSans-52"/>
      </g>
     </g>
    </g>
    <g id="ytick_3">
     <g id="line2d_9">
      <g>
       <use style="stroke:#000000;stroke-width:0.5;" x="43.915109" xlink:href="#m03eecb695d" y="78.2618"/>
      </g>
     </g>
     <g id="text_9">
      <!-- $\mathregular{-0.2}$ -->
      <g transform="translate(21.375109 81.301175)scale(0.08 -0.08)">
       <use transform="translate(0 0.78125)" xlink:href="#DejaVuSans-8722"/>
       <use transform="translate(83.789062 0.78125)" xlink:href="#DejaVuSans-48"/>
       <use transform="translate(147.412109 0.78125)" xlink:href="#DejaVuSans-46"/>
       <use transform="translate(173.699219 0.78125)" xlink:href="#DejaVuSans-50"/>
      </g>
     </g>
    </g>
    <g id="ytick_4">
     <g id="line2d_10">
      <g>
       <use style="stroke:#000000;stroke-width:0.5;" x="43.915109" xlink:href="#m03eecb695d" y="10.062685"/>
      </g>
     </g>
     <g id="text_10">
      <!-- $\mathregular{0.0}$ -->
      <g transform="translate(27.615109 13.10206)scale(0.08 -0.08)">
       <use transform="translate(0 0.78125)" xlink:href="#DejaVuSans-48"/>
       <use transform="translate(63.623047 0.78125)" xlink:href="#DejaVuSans-46"/>
       <use transform="translate(95.410156 0.78125)" xlink:href="#DejaVuSans-48"/>
      </g>
     </g>
    </g>
    <g id="text_11">
     <!-- $u_x$ ($m$) -->
     <g transform="translate(14.687453 147.855)rotate(-90)scale(0.11 -0.11)">
      <defs>
       <path d="M 6.6875 21.6875 
L 13.09375 54.6875 
L 22.125 54.6875 
L 15.71875 22.015625 
Q 15.234375 19.625 15.015625 17.921875 
Q 14.796875 16.21875 14.796875 15.09375 
Q 14.796875 10.9375 17.328125 8.65625 
Q 19.875 6.390625 24.515625 6.390625 
Q 31.734375 6.390625 37 11.265625 
Q 42.28125 16.15625 43.890625 24.421875 
L 49.90625 54.6875 
L 58.890625 54.6875 
L 48.296875 0 
L 39.3125 0 
L 41.109375 8.59375 
Q 37.3125 3.8125 32.0625 1.1875 
Q 26.8125 -1.421875 20.90625 -1.421875 
Q 13.71875 -1.421875 9.71875 2.515625 
Q 5.71875 6.453125 5.71875 13.484375 
Q 5.71875 14.9375 5.953125 17.140625 
Q 6.203125 19.34375 6.6875 21.6875 
z
" id="DejaVuSans-Oblique-117"/>
       <path d="M 60.015625 54.6875 
L 34.90625 27.875 
L 50.296875 0 
L 39.984375 0 
L 28.421875 21.6875 
L 8.296875 0 
L -2.59375 0 
L 24.3125 28.8125 
L 10.015625 54.6875 
L 20.3125 54.6875 
L 30.8125 34.90625 
L 49.125 54.6875 
z
" id="DejaVuSans-Oblique-120"/>
       <path d="M 89.796875 33.015625 
L 83.40625 0 
L 74.421875 0 
L 80.71875 32.71875 
Q 81.109375 34.8125 81.296875 36.328125 
Q 81.5 37.84375 81.5 38.921875 
Q 81.5 43.3125 79.046875 45.75 
Q 76.609375 48.1875 72.21875 48.1875 
Q 65.671875 48.1875 60.546875 43.28125 
Q 55.421875 38.375 53.90625 30.515625 
L 47.90625 0 
L 38.921875 0 
L 45.3125 32.71875 
Q 45.703125 34.515625 45.890625 36.046875 
Q 46.09375 37.59375 46.09375 38.8125 
Q 46.09375 43.265625 43.65625 45.71875 
Q 41.21875 48.1875 36.921875 48.1875 
Q 30.28125 48.1875 25.140625 43.28125 
Q 20.015625 38.375 18.5 30.515625 
L 12.5 0 
L 3.515625 0 
L 14.203125 54.6875 
L 23.1875 54.6875 
L 21.484375 46.1875 
Q 25.140625 50.984375 30.046875 53.484375 
Q 34.96875 56 40.578125 56 
Q 46.53125 56 50.359375 52.875 
Q 54.203125 49.75 54.984375 44.1875 
Q 59.078125 49.953125 64.46875 52.96875 
Q 69.875 56 75.875 56 
Q 82.90625 56 86.734375 51.953125 
Q 90.578125 47.90625 90.578125 40.484375 
Q 90.578125 38.875 90.375 36.9375 
Q 90.1875 35.015625 89.796875 33.015625 
z
" id="DejaVuSans-Oblique-109"/>
      </defs>
      <use transform="translate(0 0.125)" xlink:href="#DejaVuSans-Oblique-117"/>
      <use transform="translate(63.378906 -16.28125)scale(0.7)" xlink:href="#DejaVuSans-Oblique-120"/>
      <use transform="translate(107.539062 0.125)" xlink:href="#DejaVuSans-32"/>
      <use transform="translate(139.326172 0.125)" xlink:href="#DejaVuSans-40"/>
      <use transform="translate(178.339844 0.125)" xlink:href="#DejaVuSans-Oblique-109"/>
      <use transform="translate(275.751953 0.125)" xlink:href="#DejaVuSans-41"/>
     </g>
    </g>
   </g>
   <g id="patch_3">
    <path d="M 43.915109 258.225354 
L 43.915109 2.834646 
" style="fill:none;stroke:#000000;stroke-linecap:square;stroke-linejoin:miter;"/>
   </g>
   <g id="patch_4">
    <path d="M 43.915109 258.225354 
L 422.361999 258.225354 
" style="fill:none;stroke:#000000;stroke-linecap:square;stroke-linejoin:miter;"/>
   </g>
  </g>
 </g>
 <defs>
  <clipPath id="p8bbf2b2a00">
   <rect height="255.390709" width="378.44689" x="43.915109" y="2.834646"/>
  </clipPath>
 </defs>
</svg>
