<?xml version="1.0" encoding="utf-8" standalone="no"?>
<!DOCTYPE svg PUBLIC "-//W3C//DTD SVG 1.1//EN"
  "http://www.w3.org/Graphics/SVG/1.1/DTD/svg11.dtd">
<!-- Created with matplotlib (https://matplotlib.org/) -->
<svg height="288pt" version="1.1" viewBox="0 0 432 288" width="432pt" xmlns="http://www.w3.org/2000/svg" xmlns:xlink="http://www.w3.org/1999/xlink">
 <metadata>
  <rdf:RDF xmlns:cc="http://creativecommons.org/ns#" xmlns:dc="http://purl.org/dc/elements/1.1/" xmlns:rdf="http://www.w3.org/1999/02/22-rdf-syntax-ns#">
   <cc:Work>
    <dc:type rdf:resource="http://purl.org/dc/dcmitype/StillImage"/>
    <dc:date>2021-04-27T19:05:21.370221</dc:date>
    <dc:format>image/svg+xml</dc:format>
    <dc:creator>
     <cc:Agent>
      <dc:title>Matplotlib v3.3.4, https://matplotlib.org/</dc:title>
     </cc:Agent>
    </dc:creator>
   </cc:Work>
  </rdf:RDF>
 </metadata>
 <defs>
  <style type="text/css">*{stroke-linecap:butt;stroke-linejoin:round;}</style>
 </defs>
 <g id="figure_1">
  <g id="patch_1">
   <path d="M 0 288 
L 432 288 
L 432 0 
L 0 0 
z
" style="fill:#ffffff;"/>
  </g>
  <g id="axes_1">
   <g id="patch_2">
    <path d="M 29.556396 258.225354 
L 422.361999 258.225354 
L 422.361999 2.834646 
L 29.556396 2.834646 
z
" style="fill:#ffffff;"/>
   </g>
   <g id="line2d_1">
    <path clip-path="url(#p2b2883de5c)" d="M 29.556396 250.997315 
L 31.127618 250.903271 
L 32.502438 250.571723 
L 33.680855 250.066045 
L 34.859271 249.299578 
L 36.037688 248.235061 
L 37.412508 246.674731 
L 38.590925 245.056408 
L 39.769341 243.10514 
L 41.144161 240.428347 
L 42.715383 236.924602 
L 44.483009 232.440617 
L 47.232648 224.807647 
L 49.982287 216.417829 
L 53.71394 204.226034 
L 56.46358 195.68501 
L 58.427608 190.236364 
L 60.195233 185.965539 
L 61.766455 182.699636 
L 63.141275 180.394073 
L 64.516094 178.581879 
L 65.694511 177.367556 
L 66.872928 176.465803 
L 68.247748 175.72805 
L 69.622567 175.243731 
L 70.800984 175.091954 
L 71.782998 175.183082 
L 72.961415 175.523605 
L 73.943429 176.00346 
L 75.121846 176.860557 
L 76.496665 178.215889 
L 78.067888 180.133634 
L 79.442707 182.19012 
L 81.210333 185.319421 
L 83.174361 189.235433 
L 86.906014 196.843432 
L 89.066445 200.62189 
L 90.637667 202.952782 
L 92.405292 205.2079 
L 93.583709 206.406294 
L 94.565723 207.139417 
L 95.547737 207.628561 
L 96.529751 207.868688 
L 97.315362 207.851121 
L 98.100973 207.629136 
L 99.082987 207.08291 
L 100.065002 206.252883 
L 101.047016 205.123256 
L 102.02903 203.645799 
L 103.207446 201.384304 
L 104.582266 198.14272 
L 105.957086 194.297907 
L 107.921114 187.999254 
L 112.634781 171.866405 
L 116.170031 160.303622 
L 118.134059 154.626674 
L 120.098087 149.655019 
L 121.66931 146.254272 
L 123.240532 143.340431 
L 124.418949 141.527408 
L 125.400963 140.366287 
L 126.186574 139.717691 
L 126.972185 139.321905 
L 127.757797 139.194536 
L 128.347005 139.285982 
L 129.132616 139.675403 
L 129.918227 140.359413 
L 130.900241 141.589769 
L 132.078658 143.522149 
L 133.257075 145.89198 
L 134.631895 149.159749 
L 136.595923 154.418224 
L 142.095201 169.562958 
L 144.059229 174.141059 
L 146.612466 179.441671 
L 148.380091 182.691948 
L 149.951313 185.122267 
L 151.522536 187.149021 
L 152.897355 188.549998 
L 154.075772 189.462741 
L 155.057786 190.006089 
L 155.843397 190.243472 
L 156.629008 190.235816 
L 157.41462 189.933767 
L 158.200231 189.304057 
L 158.985842 188.326979 
L 159.771453 186.984276 
L 160.753467 184.770856 
L 161.735481 181.993103 
L 163.110301 177.351923 
L 164.681523 171.251722 
L 166.645551 162.695788 
L 169.591593 148.717818 
L 172.14483 136.865793 
L 174.305261 127.984252 
L 178.822525 110.874611 
L 180.982956 103.165043 
L 182.357775 99.087695 
L 183.339789 96.78915 
L 184.321803 95.08341 
L 185.107415 94.136798 
L 185.893026 93.509717 
L 186.678637 93.162327 
L 187.464248 93.063916 
L 188.24986 93.206723 
L 189.035471 93.582958 
L 189.821082 94.186644 
L 190.803096 95.260797 
L 191.78511 96.729684 
L 192.767124 98.680651 
L 193.749138 101.153324 
L 195.123958 105.282608 
L 197.677194 113.813744 
L 199.444819 120.364675 
L 200.819639 126.342088 
L 201.998056 132.464784 
L 203.765681 143.050884 
L 207.300931 164.462705 
L 209.068556 173.717041 
L 211.228987 183.780333 
L 212.80021 190.098201 
L 214.567835 196.218975 
L 215.746252 199.62354 
L 216.728266 201.747306 
L 217.513877 202.927002 
L 218.299488 203.741649 
L 219.477905 204.59859 
L 221.834739 206.157279 
L 223.405961 207.599183 
L 224.191572 208.214101 
L 224.780781 208.422468 
L 225.173586 208.381057 
L 225.566392 208.169997 
L 226.1556 207.511544 
L 226.744809 206.441254 
L 227.53042 204.392577 
L 228.316031 201.623203 
L 229.101642 198.087072 
L 230.083656 192.625079 
L 231.654879 182.379527 
L 234.011712 165.722987 
L 236.368546 147.279357 
L 238.528977 128.72699 
L 240.689408 110.351477 
L 242.653436 95.612147 
L 244.617464 82.49164 
L 247.563506 64.44539 
L 248.741922 58.639074 
L 249.723936 54.858164 
L 251.098756 50.554126 
L 255.616021 37.067769 
L 256.794437 33.649027 
L 257.383646 32.455409 
L 257.972854 31.744883 
L 258.36566 31.555533 
L 258.758465 31.578377 
L 259.151271 31.792827 
L 259.740479 32.405641 
L 260.329688 33.318422 
L 261.115299 34.959476 
L 262.097313 37.672231 
L 263.27573 41.754917 
L 265.043355 48.746894 
L 266.418175 55.050372 
L 267.989397 63.596246 
L 271.72105 84.235586 
L 272.899467 89.468684 
L 278.00594 110.284874 
L 279.773565 117.669435 
L 280.755579 120.887293 
L 281.54119 122.776903 
L 282.523204 124.476372 
L 284.683635 127.845063 
L 285.469246 129.567009 
L 286.45126 132.357618 
L 287.629677 136.520359 
L 289.2009 142.061064 
L 289.790108 143.547625 
L 290.379316 144.477013 
L 290.772122 144.747445 
L 291.164928 144.719823 
L 291.557733 144.382374 
L 291.950539 143.722019 
L 292.539747 142.119922 
L 293.128956 139.778549 
L 293.914567 135.627492 
L 295.485789 125.49851 
L 296.860609 117.228252 
L 298.235429 110.324413 
L 301.181471 96.430582 
L 302.163485 90.119916 
L 305.109527 69.736566 
L 306.287943 63.872167 
L 307.269957 60.02392 
L 309.430388 52.392464 
L 310.019597 48.929378 
L 311.001611 41.452674 
L 312.965639 26.118219 
L 314.340458 17.326312 
L 315.126069 13.358505 
L 315.715278 11.267234 
L 316.108083 10.424382 
L 316.500889 10.063607 
L 316.697292 10.062685 
L 317.090097 10.393344 
L 317.679306 11.523004 
L 319.054125 14.70901 
L 319.643334 15.522455 
L 320.232542 15.906786 
L 320.821751 15.984729 
L 321.607362 15.802081 
L 322.589376 15.337022 
L 323.178584 14.851487 
L 323.767793 14.079288 
L 324.749807 12.618187 
L 325.142612 12.340926 
L 325.535418 12.416123 
L 325.928224 12.929231 
L 326.321029 13.911861 
L 326.910238 16.231146 
L 327.695849 20.547267 
L 329.070668 29.786187 
L 332.213113 50.97297 
L 333.587933 58.21119 
L 334.962752 65.727043 
L 336.92678 78.07521 
L 338.105197 86.463811 
L 340.265628 102.760693 
L 341.444045 109.17297 
L 343.800879 120.396761 
L 344.979295 124.599702 
L 345.961309 128.297944 
L 346.746921 132.252392 
L 348.318143 140.654792 
L 349.103754 143.472657 
L 350.282171 146.547682 
L 351.264185 148.786719 
L 351.656991 149.326094 
L 352.049796 149.53019 
L 352.442602 149.333268 
L 352.835407 148.720262 
L 353.424616 147.209256 
L 354.40663 144.555593 
L 354.799435 143.921527 
L 355.192241 143.661259 
L 355.585047 143.712314 
L 356.370658 143.936443 
L 356.763463 143.746059 
L 357.352672 143.052564 
L 358.138283 141.661797 
L 358.923894 140.359104 
L 359.3167 140.130525 
L 359.905908 140.231993 
L 360.298714 140.267915 
L 360.691519 140.014265 
L 361.084325 139.368618 
L 361.477131 138.320505 
L 362.066339 136.016117 
L 363.441159 129.844815 
L 364.030367 128.303959 
L 365.208784 125.778093 
L 365.797992 123.423478 
L 366.583604 118.809051 
L 367.565618 113.130911 
L 368.154826 110.897375 
L 369.333243 107.096165 
L 369.922451 103.744012 
L 370.904465 96.051923 
L 371.886479 89.005591 
L 372.868493 84.064664 
L 373.457702 80.792407 
L 374.04691 76.494267 
L 376.207341 58.709011 
L 376.796549 56.102617 
L 379.742591 45.893964 
L 380.135397 45.498374 
L 380.528202 45.536385 
L 380.921008 45.911002 
L 382.295828 47.850351 
L 382.688633 47.833015 
L 383.081439 47.428986 
L 383.670647 46.679998 
L 384.063453 46.458467 
L 384.652661 46.525333 
L 385.24187 46.78312 
L 385.634675 47.184912 
L 387.009495 49.216004 
L 387.795106 49.509931 
L 388.187912 49.952627 
L 388.77712 51.016284 
L 389.366329 52.475018 
L 389.955537 54.719548 
L 391.133954 59.963107 
L 392.705176 65.403682 
L 393.490787 69.079836 
L 394.276399 74.247063 
L 396.044024 86.894228 
L 397.418843 96.41644 
L 398.793663 108.356456 
L 399.579274 114.774182 
L 400.561288 120.350119 
L 401.739705 126.981219 
L 402.525316 133.408641 
L 404.096539 146.570622 
L 406.453372 162.323314 
L 407.631789 171.347754 
L 408.220998 174.773453 
L 410.381428 185.000047 
L 412.149054 197.184591 
L 412.934665 200.930002 
L 416.07711 212.395622 
L 416.469915 212.768024 
L 416.862721 212.566323 
L 417.451929 211.8398 
L 418.630346 210.084415 
L 419.023152 209.963252 
L 419.808763 210.028387 
L 420.201568 209.705391 
L 420.594374 209.010754 
L 421.183582 207.343828 
L 421.969194 204.119756 
L 422.361999 202.443697 
L 422.361999 202.443697 
" style="fill:none;stroke:#009afa;"/>
   </g>
   <g id="matplotlib.axis_1">
    <g id="xtick_1">
     <g id="line2d_2">
      <defs>
       <path d="M 0 0 
L 0 -2.5 
" id="mf8d353d8ba" style="stroke:#000000;stroke-width:0.5;"/>
      </defs>
      <g>
       <use style="stroke:#000000;stroke-width:0.5;" x="29.556396" xlink:href="#mf8d353d8ba" y="258.225354"/>
      </g>
     </g>
     <g id="text_1">
      <!-- $\mathregular{0.0}$ -->
      <g transform="translate(23.156396 267.804104)scale(0.08 -0.08)">
       <defs>
        <path d="M 31.78125 66.40625 
Q 24.171875 66.40625 20.328125 58.90625 
Q 16.5 51.421875 16.5 36.375 
Q 16.5 21.390625 20.328125 13.890625 
Q 24.171875 6.390625 31.78125 6.390625 
Q 39.453125 6.390625 43.28125 13.890625 
Q 47.125 21.390625 47.125 36.375 
Q 47.125 51.421875 43.28125 58.90625 
Q 39.453125 66.40625 31.78125 66.40625 
z
M 31.78125 74.21875 
Q 44.046875 74.21875 50.515625 64.515625 
Q 56.984375 54.828125 56.984375 36.375 
Q 56.984375 17.96875 50.515625 8.265625 
Q 44.046875 -1.421875 31.78125 -1.421875 
Q 19.53125 -1.421875 13.0625 8.265625 
Q 6.59375 17.96875 6.59375 36.375 
Q 6.59375 54.828125 13.0625 64.515625 
Q 19.53125 74.21875 31.78125 74.21875 
z
" id="DejaVuSans-48"/>
        <path d="M 10.6875 12.40625 
L 21 12.40625 
L 21 0 
L 10.6875 0 
z
" id="DejaVuSans-46"/>
       </defs>
       <use transform="translate(0 0.78125)" xlink:href="#DejaVuSans-48"/>
       <use transform="translate(63.623047 0.78125)" xlink:href="#DejaVuSans-46"/>
       <use transform="translate(95.410156 0.78125)" xlink:href="#DejaVuSans-48"/>
      </g>
     </g>
    </g>
    <g id="xtick_2">
     <g id="line2d_3">
      <g>
       <use style="stroke:#000000;stroke-width:0.5;" x="127.757797" xlink:href="#mf8d353d8ba" y="258.225354"/>
      </g>
     </g>
     <g id="text_2">
      <!-- $\mathregular{0.5}$ -->
      <g transform="translate(121.357797 267.804104)scale(0.08 -0.08)">
       <defs>
        <path d="M 10.796875 72.90625 
L 49.515625 72.90625 
L 49.515625 64.59375 
L 19.828125 64.59375 
L 19.828125 46.734375 
Q 21.96875 47.46875 24.109375 47.828125 
Q 26.265625 48.1875 28.421875 48.1875 
Q 40.625 48.1875 47.75 41.5 
Q 54.890625 34.8125 54.890625 23.390625 
Q 54.890625 11.625 47.5625 5.09375 
Q 40.234375 -1.421875 26.90625 -1.421875 
Q 22.3125 -1.421875 17.546875 -0.640625 
Q 12.796875 0.140625 7.71875 1.703125 
L 7.71875 11.625 
Q 12.109375 9.234375 16.796875 8.0625 
Q 21.484375 6.890625 26.703125 6.890625 
Q 35.15625 6.890625 40.078125 11.328125 
Q 45.015625 15.765625 45.015625 23.390625 
Q 45.015625 31 40.078125 35.4375 
Q 35.15625 39.890625 26.703125 39.890625 
Q 22.75 39.890625 18.8125 39.015625 
Q 14.890625 38.140625 10.796875 36.28125 
z
" id="DejaVuSans-53"/>
       </defs>
       <use transform="translate(0 0.78125)" xlink:href="#DejaVuSans-48"/>
       <use transform="translate(63.623047 0.78125)" xlink:href="#DejaVuSans-46"/>
       <use transform="translate(95.410156 0.78125)" xlink:href="#DejaVuSans-53"/>
      </g>
     </g>
    </g>
    <g id="xtick_3">
     <g id="line2d_4">
      <g>
       <use style="stroke:#000000;stroke-width:0.5;" x="225.959197" xlink:href="#mf8d353d8ba" y="258.225354"/>
      </g>
     </g>
     <g id="text_3">
      <!-- $\mathregular{1.0}$ -->
      <g transform="translate(219.559197 267.804104)scale(0.08 -0.08)">
       <defs>
        <path d="M 12.40625 8.296875 
L 28.515625 8.296875 
L 28.515625 63.921875 
L 10.984375 60.40625 
L 10.984375 69.390625 
L 28.421875 72.90625 
L 38.28125 72.90625 
L 38.28125 8.296875 
L 54.390625 8.296875 
L 54.390625 0 
L 12.40625 0 
z
" id="DejaVuSans-49"/>
       </defs>
       <use transform="translate(0 0.78125)" xlink:href="#DejaVuSans-49"/>
       <use transform="translate(63.623047 0.78125)" xlink:href="#DejaVuSans-46"/>
       <use transform="translate(95.410156 0.78125)" xlink:href="#DejaVuSans-48"/>
      </g>
     </g>
    </g>
    <g id="xtick_4">
     <g id="line2d_5">
      <g>
       <use style="stroke:#000000;stroke-width:0.5;" x="324.160598" xlink:href="#mf8d353d8ba" y="258.225354"/>
      </g>
     </g>
     <g id="text_4">
      <!-- $\mathregular{1.5}$ -->
      <g transform="translate(317.760598 267.804104)scale(0.08 -0.08)">
       <use transform="translate(0 0.09375)" xlink:href="#DejaVuSans-49"/>
       <use transform="translate(63.623047 0.09375)" xlink:href="#DejaVuSans-46"/>
       <use transform="translate(95.410156 0.09375)" xlink:href="#DejaVuSans-53"/>
      </g>
     </g>
    </g>
    <g id="xtick_5">
     <g id="line2d_6">
      <g>
       <use style="stroke:#000000;stroke-width:0.5;" x="422.361999" xlink:href="#mf8d353d8ba" y="258.225354"/>
      </g>
     </g>
     <g id="text_5">
      <!-- $\mathregular{2.0}$ -->
      <g transform="translate(415.961999 267.804104)scale(0.08 -0.08)">
       <defs>
        <path d="M 19.1875 8.296875 
L 53.609375 8.296875 
L 53.609375 0 
L 7.328125 0 
L 7.328125 8.296875 
Q 12.9375 14.109375 22.625 23.890625 
Q 32.328125 33.6875 34.8125 36.53125 
Q 39.546875 41.84375 41.421875 45.53125 
Q 43.3125 49.21875 43.3125 52.78125 
Q 43.3125 58.59375 39.234375 62.25 
Q 35.15625 65.921875 28.609375 65.921875 
Q 23.96875 65.921875 18.8125 64.3125 
Q 13.671875 62.703125 7.8125 59.421875 
L 7.8125 69.390625 
Q 13.765625 71.78125 18.9375 73 
Q 24.125 74.21875 28.421875 74.21875 
Q 39.75 74.21875 46.484375 68.546875 
Q 53.21875 62.890625 53.21875 53.421875 
Q 53.21875 48.921875 51.53125 44.890625 
Q 49.859375 40.875 45.40625 35.40625 
Q 44.1875 33.984375 37.640625 27.21875 
Q 31.109375 20.453125 19.1875 8.296875 
z
" id="DejaVuSans-50"/>
       </defs>
       <use transform="translate(0 0.78125)" xlink:href="#DejaVuSans-50"/>
       <use transform="translate(63.623047 0.78125)" xlink:href="#DejaVuSans-46"/>
       <use transform="translate(95.410156 0.78125)" xlink:href="#DejaVuSans-48"/>
      </g>
     </g>
    </g>
    <g id="text_6">
     <!-- Time (s) -->
     <g transform="translate(203.597401 281.826136)scale(0.11 -0.11)">
      <defs>
       <path d="M -0.296875 72.90625 
L 61.375 72.90625 
L 61.375 64.59375 
L 35.5 64.59375 
L 35.5 0 
L 25.59375 0 
L 25.59375 64.59375 
L -0.296875 64.59375 
z
" id="DejaVuSans-84"/>
       <path d="M 9.421875 54.6875 
L 18.40625 54.6875 
L 18.40625 0 
L 9.421875 0 
z
M 9.421875 75.984375 
L 18.40625 75.984375 
L 18.40625 64.59375 
L 9.421875 64.59375 
z
" id="DejaVuSans-105"/>
       <path d="M 52 44.1875 
Q 55.375 50.25 60.0625 53.125 
Q 64.75 56 71.09375 56 
Q 79.640625 56 84.28125 50.015625 
Q 88.921875 44.046875 88.921875 33.015625 
L 88.921875 0 
L 79.890625 0 
L 79.890625 32.71875 
Q 79.890625 40.578125 77.09375 44.375 
Q 74.3125 48.1875 68.609375 48.1875 
Q 61.625 48.1875 57.5625 43.546875 
Q 53.515625 38.921875 53.515625 30.90625 
L 53.515625 0 
L 44.484375 0 
L 44.484375 32.71875 
Q 44.484375 40.625 41.703125 44.40625 
Q 38.921875 48.1875 33.109375 48.1875 
Q 26.21875 48.1875 22.15625 43.53125 
Q 18.109375 38.875 18.109375 30.90625 
L 18.109375 0 
L 9.078125 0 
L 9.078125 54.6875 
L 18.109375 54.6875 
L 18.109375 46.1875 
Q 21.1875 51.21875 25.484375 53.609375 
Q 29.78125 56 35.6875 56 
Q 41.65625 56 45.828125 52.96875 
Q 50 49.953125 52 44.1875 
z
" id="DejaVuSans-109"/>
       <path d="M 56.203125 29.59375 
L 56.203125 25.203125 
L 14.890625 25.203125 
Q 15.484375 15.921875 20.484375 11.0625 
Q 25.484375 6.203125 34.421875 6.203125 
Q 39.59375 6.203125 44.453125 7.46875 
Q 49.3125 8.734375 54.109375 11.28125 
L 54.109375 2.78125 
Q 49.265625 0.734375 44.1875 -0.34375 
Q 39.109375 -1.421875 33.890625 -1.421875 
Q 20.796875 -1.421875 13.15625 6.1875 
Q 5.515625 13.8125 5.515625 26.8125 
Q 5.515625 40.234375 12.765625 48.109375 
Q 20.015625 56 32.328125 56 
Q 43.359375 56 49.78125 48.890625 
Q 56.203125 41.796875 56.203125 29.59375 
z
M 47.21875 32.234375 
Q 47.125 39.59375 43.09375 43.984375 
Q 39.0625 48.390625 32.421875 48.390625 
Q 24.90625 48.390625 20.390625 44.140625 
Q 15.875 39.890625 15.1875 32.171875 
z
" id="DejaVuSans-101"/>
       <path id="DejaVuSans-32"/>
       <path d="M 31 75.875 
Q 24.46875 64.65625 21.28125 53.65625 
Q 18.109375 42.671875 18.109375 31.390625 
Q 18.109375 20.125 21.3125 9.0625 
Q 24.515625 -2 31 -13.1875 
L 23.1875 -13.1875 
Q 15.875 -1.703125 12.234375 9.375 
Q 8.59375 20.453125 8.59375 31.390625 
Q 8.59375 42.28125 12.203125 53.3125 
Q 15.828125 64.359375 23.1875 75.875 
z
" id="DejaVuSans-40"/>
       <path d="M 44.28125 53.078125 
L 44.28125 44.578125 
Q 40.484375 46.53125 36.375 47.5 
Q 32.28125 48.484375 27.875 48.484375 
Q 21.1875 48.484375 17.84375 46.4375 
Q 14.5 44.390625 14.5 40.28125 
Q 14.5 37.15625 16.890625 35.375 
Q 19.28125 33.59375 26.515625 31.984375 
L 29.59375 31.296875 
Q 39.15625 29.25 43.1875 25.515625 
Q 47.21875 21.78125 47.21875 15.09375 
Q 47.21875 7.46875 41.1875 3.015625 
Q 35.15625 -1.421875 24.609375 -1.421875 
Q 20.21875 -1.421875 15.453125 -0.5625 
Q 10.6875 0.296875 5.421875 2 
L 5.421875 11.28125 
Q 10.40625 8.6875 15.234375 7.390625 
Q 20.0625 6.109375 24.8125 6.109375 
Q 31.15625 6.109375 34.5625 8.28125 
Q 37.984375 10.453125 37.984375 14.40625 
Q 37.984375 18.0625 35.515625 20.015625 
Q 33.0625 21.96875 24.703125 23.78125 
L 21.578125 24.515625 
Q 13.234375 26.265625 9.515625 29.90625 
Q 5.8125 33.546875 5.8125 39.890625 
Q 5.8125 47.609375 11.28125 51.796875 
Q 16.75 56 26.8125 56 
Q 31.78125 56 36.171875 55.265625 
Q 40.578125 54.546875 44.28125 53.078125 
z
" id="DejaVuSans-115"/>
       <path d="M 8.015625 75.875 
L 15.828125 75.875 
Q 23.140625 64.359375 26.78125 53.3125 
Q 30.421875 42.28125 30.421875 31.390625 
Q 30.421875 20.453125 26.78125 9.375 
Q 23.140625 -1.703125 15.828125 -13.1875 
L 8.015625 -13.1875 
Q 14.5 -2 17.703125 9.0625 
Q 20.90625 20.125 20.90625 31.390625 
Q 20.90625 42.671875 17.703125 53.65625 
Q 14.5 64.65625 8.015625 75.875 
z
" id="DejaVuSans-41"/>
      </defs>
      <use xlink:href="#DejaVuSans-84"/>
      <use x="57.958984" xlink:href="#DejaVuSans-105"/>
      <use x="85.742188" xlink:href="#DejaVuSans-109"/>
      <use x="183.154297" xlink:href="#DejaVuSans-101"/>
      <use x="244.677734" xlink:href="#DejaVuSans-32"/>
      <use x="276.464844" xlink:href="#DejaVuSans-40"/>
      <use x="315.478516" xlink:href="#DejaVuSans-115"/>
      <use x="367.578125" xlink:href="#DejaVuSans-41"/>
     </g>
    </g>
   </g>
   <g id="matplotlib.axis_2">
    <g id="ytick_1">
     <g id="line2d_7">
      <defs>
       <path d="M 0 0 
L 2.5 0 
" id="me1f26e90ae" style="stroke:#000000;stroke-width:0.5;"/>
      </defs>
      <g>
       <use style="stroke:#000000;stroke-width:0.5;" x="29.556396" xlink:href="#me1f26e90ae" y="250.997315"/>
      </g>
     </g>
     <g id="text_7">
      <!-- $\mathregular{0}$ -->
      <g transform="translate(20.936396 254.03669)scale(0.08 -0.08)">
       <use transform="translate(0 0.78125)" xlink:href="#DejaVuSans-48"/>
      </g>
     </g>
    </g>
    <g id="ytick_2">
     <g id="line2d_8">
      <g>
       <use style="stroke:#000000;stroke-width:0.5;" x="29.556396" xlink:href="#me1f26e90ae" y="188.735795"/>
      </g>
     </g>
     <g id="text_8">
      <!-- $\mathregular{1}$ -->
      <g transform="translate(20.936396 191.77517)scale(0.08 -0.08)">
       <use transform="translate(0 0.09375)" xlink:href="#DejaVuSans-49"/>
      </g>
     </g>
    </g>
    <g id="ytick_3">
     <g id="line2d_9">
      <g>
       <use style="stroke:#000000;stroke-width:0.5;" x="29.556396" xlink:href="#me1f26e90ae" y="126.474275"/>
      </g>
     </g>
     <g id="text_9">
      <!-- $\mathregular{2}$ -->
      <g transform="translate(20.936396 129.51365)scale(0.08 -0.08)">
       <use transform="translate(0 0.78125)" xlink:href="#DejaVuSans-50"/>
      </g>
     </g>
    </g>
    <g id="ytick_4">
     <g id="line2d_10">
      <g>
       <use style="stroke:#000000;stroke-width:0.5;" x="29.556396" xlink:href="#me1f26e90ae" y="64.212755"/>
      </g>
     </g>
     <g id="text_10">
      <!-- $\mathregular{3}$ -->
      <g transform="translate(20.936396 67.25213)scale(0.08 -0.08)">
       <defs>
        <path d="M 40.578125 39.3125 
Q 47.65625 37.796875 51.625 33 
Q 55.609375 28.21875 55.609375 21.1875 
Q 55.609375 10.40625 48.1875 4.484375 
Q 40.765625 -1.421875 27.09375 -1.421875 
Q 22.515625 -1.421875 17.65625 -0.515625 
Q 12.796875 0.390625 7.625 2.203125 
L 7.625 11.71875 
Q 11.71875 9.328125 16.59375 8.109375 
Q 21.484375 6.890625 26.8125 6.890625 
Q 36.078125 6.890625 40.9375 10.546875 
Q 45.796875 14.203125 45.796875 21.1875 
Q 45.796875 27.640625 41.28125 31.265625 
Q 36.765625 34.90625 28.71875 34.90625 
L 20.21875 34.90625 
L 20.21875 43.015625 
L 29.109375 43.015625 
Q 36.375 43.015625 40.234375 45.921875 
Q 44.09375 48.828125 44.09375 54.296875 
Q 44.09375 59.90625 40.109375 62.90625 
Q 36.140625 65.921875 28.71875 65.921875 
Q 24.65625 65.921875 20.015625 65.03125 
Q 15.375 64.15625 9.8125 62.3125 
L 9.8125 71.09375 
Q 15.4375 72.65625 20.34375 73.4375 
Q 25.25 74.21875 29.59375 74.21875 
Q 40.828125 74.21875 47.359375 69.109375 
Q 53.90625 64.015625 53.90625 55.328125 
Q 53.90625 49.265625 50.4375 45.09375 
Q 46.96875 40.921875 40.578125 39.3125 
z
" id="DejaVuSans-51"/>
       </defs>
       <use transform="translate(0 0.78125)" xlink:href="#DejaVuSans-51"/>
      </g>
     </g>
    </g>
    <g id="text_11">
     <!-- $u_z$ ($m$) -->
     <g transform="translate(14.648739 147.635)rotate(-90)scale(0.11 -0.11)">
      <defs>
       <path d="M 6.6875 21.6875 
L 13.09375 54.6875 
L 22.125 54.6875 
L 15.71875 22.015625 
Q 15.234375 19.625 15.015625 17.921875 
Q 14.796875 16.21875 14.796875 15.09375 
Q 14.796875 10.9375 17.328125 8.65625 
Q 19.875 6.390625 24.515625 6.390625 
Q 31.734375 6.390625 37 11.265625 
Q 42.28125 16.15625 43.890625 24.421875 
L 49.90625 54.6875 
L 58.890625 54.6875 
L 48.296875 0 
L 39.3125 0 
L 41.109375 8.59375 
Q 37.3125 3.8125 32.0625 1.1875 
Q 26.8125 -1.421875 20.90625 -1.421875 
Q 13.71875 -1.421875 9.71875 2.515625 
Q 5.71875 6.453125 5.71875 13.484375 
Q 5.71875 14.9375 5.953125 17.140625 
Q 6.203125 19.34375 6.6875 21.6875 
z
" id="DejaVuSans-Oblique-117"/>
       <path d="M 11.625 54.6875 
L 54.296875 54.6875 
L 52.6875 46.484375 
L 11.53125 7.171875 
L 45.515625 7.171875 
L 44.09375 0 
L -0.296875 0 
L 1.3125 8.203125 
L 42.484375 47.515625 
L 10.203125 47.515625 
z
" id="DejaVuSans-Oblique-122"/>
       <path d="M 89.796875 33.015625 
L 83.40625 0 
L 74.421875 0 
L 80.71875 32.71875 
Q 81.109375 34.8125 81.296875 36.328125 
Q 81.5 37.84375 81.5 38.921875 
Q 81.5 43.3125 79.046875 45.75 
Q 76.609375 48.1875 72.21875 48.1875 
Q 65.671875 48.1875 60.546875 43.28125 
Q 55.421875 38.375 53.90625 30.515625 
L 47.90625 0 
L 38.921875 0 
L 45.3125 32.71875 
Q 45.703125 34.515625 45.890625 36.046875 
Q 46.09375 37.59375 46.09375 38.8125 
Q 46.09375 43.265625 43.65625 45.71875 
Q 41.21875 48.1875 36.921875 48.1875 
Q 30.28125 48.1875 25.140625 43.28125 
Q 20.015625 38.375 18.5 30.515625 
L 12.5 0 
L 3.515625 0 
L 14.203125 54.6875 
L 23.1875 54.6875 
L 21.484375 46.1875 
Q 25.140625 50.984375 30.046875 53.484375 
Q 34.96875 56 40.578125 56 
Q 46.53125 56 50.359375 52.875 
Q 54.203125 49.75 54.984375 44.1875 
Q 59.078125 49.953125 64.46875 52.96875 
Q 69.875 56 75.875 56 
Q 82.90625 56 86.734375 51.953125 
Q 90.578125 47.90625 90.578125 40.484375 
Q 90.578125 38.875 90.375 36.9375 
Q 90.1875 35.015625 89.796875 33.015625 
z
" id="DejaVuSans-Oblique-109"/>
      </defs>
      <use transform="translate(0 0.125)" xlink:href="#DejaVuSans-Oblique-117"/>
      <use transform="translate(63.378906 -16.28125)scale(0.7)" xlink:href="#DejaVuSans-Oblique-122"/>
      <use transform="translate(102.856445 0.125)" xlink:href="#DejaVuSans-32"/>
      <use transform="translate(134.643555 0.125)" xlink:href="#DejaVuSans-40"/>
      <use transform="translate(173.657227 0.125)" xlink:href="#DejaVuSans-Oblique-109"/>
      <use transform="translate(271.069336 0.125)" xlink:href="#DejaVuSans-41"/>
     </g>
    </g>
   </g>
   <g id="line2d_11">
    <path clip-path="url(#p2b2883de5c)" d="M 29.556396 250.997315 
L 31.219626 250.888935 
L 32.534657 250.55942 
L 33.798867 250.001125 
L 34.945982 249.231456 
L 36.172848 248.095801 
L 37.62157 246.409335 
L 38.945392 244.506967 
L 40.267549 242.181039 
L 41.805223 239.013838 
L 43.418988 235.202678 
L 45.646636 229.293466 
L 48.089402 222.269982 
L 51.05919 212.973214 
L 56.712506 194.940094 
L 58.569751 189.855622 
L 60.400073 185.476056 
L 61.925451 182.365528 
L 63.234094 180.209316 
L 64.567356 178.461658 
L 65.804423 177.205874 
L 66.936272 176.363671 
L 68.298543 175.645119 
L 69.604271 175.203383 
L 70.677039 175.074302 
L 71.729909 175.180227 
L 72.738971 175.478875 
L 73.911463 176.073027 
L 75.012024 176.914232 
L 76.330188 178.254317 
L 77.74534 180.013148 
L 79.239731 182.275237 
L 80.784918 185.055453 
L 82.980932 189.535094 
L 87.266314 198.552529 
L 89.07121 201.788218 
L 90.83369 204.487324 
L 92.428705 206.539011 
L 93.68924 207.838689 
L 94.637506 208.5557 
L 95.521067 208.996664 
L 96.508208 209.225827 
L 97.310946 209.200228 
L 98.174363 208.94434 
L 99.109372 208.387596 
L 100.104347 207.47976 
L 101.090866 206.262748 
L 102.215991 204.461702 
L 103.413925 202.011552 
L 104.724698 198.715868 
L 106.139788 194.54555 
L 108.045174 188.174625 
L 115.093826 163.765163 
L 117.224631 157.345774 
L 118.930343 152.844868 
L 120.59183 149.073178 
L 122.038146 146.240925 
L 123.528812 143.78058 
L 124.682247 142.250618 
L 125.793163 141.157575 
L 126.597229 140.652229 
L 127.3841 140.428753 
L 128.135567 140.488482 
L 128.876087 140.818301 
L 129.695889 141.496092 
L 130.753678 142.839451 
L 131.705463 144.472138 
L 132.793282 146.777841 
L 134.342045 150.724283 
L 136.069059 155.810388 
L 142.42947 175.464836 
L 144.195934 179.86186 
L 146.08052 183.990746 
L 147.969853 187.65872 
L 149.837603 190.783041 
L 151.512189 193.091566 
L 152.735527 194.457716 
L 153.990767 195.564381 
L 155.160197 196.277396 
L 156.07128 196.549259 
L 156.764643 196.538889 
L 157.378786 196.341043 
L 158.046131 195.894944 
L 158.674569 195.230496 
L 159.573627 193.831324 
L 160.477067 191.868482 
L 161.352042 189.442184 
L 162.427699 185.815939 
L 163.960787 179.66801 
L 165.964152 170.466902 
L 168.915892 155.575242 
L 172.252386 138.739998 
L 174.181563 130.145446 
L 176.46965 121.056229 
L 179.746474 109.034276 
L 181.316403 103.957504 
L 182.528116 100.724658 
L 183.548603 98.618633 
L 184.342015 97.401969 
L 185.108241 96.563555 
L 185.922802 95.999838 
L 186.701824 95.736354 
L 187.565853 95.719028 
L 188.254824 95.894559 
L 189.138438 96.359102 
L 189.981959 97.065949 
L 190.80697 98.036494 
L 191.713042 99.474715 
L 192.49673 101.081499 
L 193.587224 103.92248 
L 194.872314 108.096873 
L 196.784954 115.339188 
L 199.02473 124.700888 
L 200.530037 131.909716 
L 201.934424 139.796729 
L 203.570841 150.400689 
L 207.296059 175.110704 
L 209.306175 186.676619 
L 211.706532 199.049241 
L 213.359464 206.633425 
L 214.7669 212.184882 
L 215.971372 216.083774 
L 216.872233 218.34879 
L 217.752228 219.990034 
L 218.675363 221.218435 
L 220.139216 222.676271 
L 221.74424 224.344779 
L 224.517888 227.456808 
L 225.135926 227.755011 
L 225.664987 227.737923 
L 226.180927 227.429238 
L 226.79034 226.652286 
L 227.521314 225.102707 
L 228.241084 222.91457 
L 229.083917 219.538359 
L 230.016353 214.862708 
L 231.198536 207.832225 
L 233.140851 194.796093 
L 234.887356 181.736921 
L 236.62982 167.022595 
L 241.77706 121.81942 
L 243.483083 110.008009 
L 245.564089 97.284153 
L 247.438907 87.065887 
L 248.586168 81.819802 
L 249.575788 78.16554 
L 250.729964 74.739514 
L 253.753608 66.942276 
L 256.146779 61.035757 
L 257.054087 59.404469 
L 257.657895 58.741873 
L 258.060413 58.528621 
L 258.597798 58.543479 
L 258.958228 58.741168 
L 259.570539 59.390084 
L 260.32856 60.651672 
L 261.143439 62.447169 
L 262.10535 65.065503 
L 263.220887 68.775926 
L 264.592116 74.247905 
L 265.984593 80.766102 
L 267.231803 87.76568 
L 268.688972 97.401697 
L 270.868202 111.740988 
L 272.660366 121.871737 
L 275.855053 139.51814 
L 278.696795 156.167299 
L 279.975771 162.188728 
L 281.099816 166.442928 
L 282.090964 169.279283 
L 282.943706 171.075449 
L 284.649816 173.917648 
L 285.635282 175.841445 
L 286.637975 178.36196 
L 287.774829 181.94246 
L 290.473203 191.044029 
L 291.060862 192.243235 
L 291.537931 192.787196 
L 291.843345 192.909448 
L 292.167245 192.835865 
L 292.61573 192.379248 
L 293.040161 191.562901 
L 293.542844 190.114709 
L 294.218559 187.386703 
L 295.101901 182.735513 
L 297.362124 170.220135 
L 298.225695 166.791335 
L 299.852198 161.542931 
L 300.787537 158.060493 
L 301.57515 154.204296 
L 302.29151 149.636653 
L 303.15413 142.648651 
L 304.459175 129.893719 
L 305.893063 116.492693 
L 306.854057 109.532469 
L 308.011679 102.863732 
L 310.449708 89.315113 
L 311.585813 81.050409 
L 313.700594 65.099016 
L 314.535548 60.59064 
L 315.265687 57.759267 
L 316.061327 55.60745 
L 316.822962 54.183439 
L 317.34139 53.574264 
L 317.780564 53.361364 
L 318.170813 53.442991 
L 318.577917 53.78946 
L 319.229165 54.708248 
L 320.051266 55.782712 
L 320.468409 55.986525 
L 320.774978 55.917195 
L 321.141108 55.575531 
L 321.609362 54.771376 
L 322.452429 52.743574 
L 323.478105 50.458976 
L 324.17066 49.473386 
L 324.775459 48.988432 
L 325.391723 48.770144 
L 325.884567 48.825083 
L 326.22604 49.063442 
L 326.612085 49.632587 
L 327.0589 50.795443 
L 327.583235 52.906938 
L 328.274391 56.773697 
L 329.400301 64.629612 
L 334.886313 103.782406 
L 336.204989 109.958144 
L 337.29189 115.523183 
L 339.124769 126.428312 
L 340.606295 136.359811 
L 342.717256 150.778827 
L 343.955446 157.431465 
L 346.129597 168.896595 
L 347.862445 178.297889 
L 348.773224 182.028307 
L 349.490336 184.175731 
L 350.222695 185.681532 
L 350.997058 186.75405 
L 352.091312 187.861526 
L 352.716613 188.210529 
L 353.110031 188.209667 
L 353.547904 187.950856 
L 354.010583 187.371488 
L 354.637205 186.170596 
L 357.049107 181.063652 
L 358.916364 178.273551 
L 359.435478 177.904552 
L 359.862397 177.901948 
L 360.240634 178.122218 
L 360.844922 178.791365 
L 361.534904 179.524706 
L 361.853795 179.606766 
L 362.099463 179.488791 
L 362.446246 179.017861 
L 362.822107 178.099769 
L 363.3314 176.229766 
L 364.11227 172.281126 
L 365.74233 162.446758 
L 368.403902 145.98572 
L 369.107241 143.425523 
L 370.824231 138.033809 
L 371.712487 133.950495 
L 372.985996 126.907972 
L 373.885174 120.573846 
L 374.884815 111.664603 
L 376.318393 99.092943 
L 377.183376 93.67103 
L 378.58873 86.771001 
L 380.001061 80.49902 
L 382.611618 69.80643 
L 384.030518 63.095381 
L 384.567193 61.649033 
L 384.941755 61.152166 
L 385.271428 61.00985 
L 385.667447 61.11511 
L 386.204311 61.54622 
L 387.493151 62.929799 
L 387.962418 63.809657 
L 388.392259 65.075637 
L 388.924473 67.353094 
L 389.812622 72.400912 
L 390.712671 77.135408 
L 391.27246 78.943809 
L 391.70157 79.638456 
L 392.111609 79.915255 
L 392.780653 80.318694 
L 393.202279 80.907116 
L 393.857946 82.316765 
L 395.616119 86.357464 
L 396.018187 86.657991 
L 396.750489 87.051294 
L 397.056812 87.585431 
L 397.404643 88.662551 
L 397.838851 90.837228 
L 398.331856 94.541589 
L 399.448357 105.488132 
L 400.391673 113.325542 
L 401.389109 119.364271 
L 402.150548 124.934145 
L 402.98797 132.651963 
L 404.085486 142.664563 
L 405.221389 150.604988 
L 405.848771 155.806155 
L 406.710718 165.243406 
L 407.930416 178.844528 
L 408.622011 184.129659 
L 409.427844 188.219403 
L 410.502521 193.886776 
L 411.867564 201.724573 
L 412.295227 202.720864 
L 412.658599 203.010652 
L 413.171432 203.251342 
L 413.474172 203.74091 
L 413.807929 204.742236 
L 414.181428 206.599721 
L 414.76142 210.84492 
L 415.580211 216.485544 
L 416.094344 218.637538 
L 416.506808 219.580368 
L 416.869541 219.934066 
L 417.22968 219.984178 
L 417.573436 219.777457 
L 418.174315 219.337104 
L 418.461516 219.418732 
L 418.813343 219.810644 
L 420.183852 221.715337 
L 420.554341 221.752071 
L 421.051605 221.522454 
L 422.047659 221.027008 
L 422.319903 221.239356 
L 422.361999 221.293169 
L 422.361999 221.293169 
" style="fill:none;stroke:#e36f47;"/>
   </g>
   <g id="patch_3">
    <path d="M 29.556396 258.225354 
L 29.556396 2.834646 
" style="fill:none;stroke:#000000;stroke-linecap:square;stroke-linejoin:miter;"/>
   </g>
   <g id="patch_4">
    <path d="M 29.556396 258.225354 
L 422.361999 258.225354 
" style="fill:none;stroke:#000000;stroke-linecap:square;stroke-linejoin:miter;"/>
   </g>
   <g id="legend_1">
    <g id="patch_5">
     <path d="M 299.041999 39.119646 
L 418.361999 39.119646 
L 418.361999 6.834646 
L 299.041999 6.834646 
z
" style="fill:#ffffff;stroke:#000000;stroke-linejoin:miter;"/>
    </g>
    <g id="line2d_12">
     <path d="M 305.441999 16.513396 
L 321.441999 16.513396 
" style="fill:none;stroke:#009afa;stroke-linejoin:miter;"/>
    </g>
    <g id="line2d_13"/>
    <g id="text_12">
     <!-- GXBeam -->
     <g transform="translate(327.841999 19.313396)scale(0.08 -0.08)">
      <defs>
       <path d="M 59.515625 10.40625 
L 59.515625 29.984375 
L 43.40625 29.984375 
L 43.40625 38.09375 
L 69.28125 38.09375 
L 69.28125 6.78125 
Q 63.578125 2.734375 56.6875 0.65625 
Q 49.8125 -1.421875 42 -1.421875 
Q 24.90625 -1.421875 15.25 8.5625 
Q 5.609375 18.5625 5.609375 36.375 
Q 5.609375 54.25 15.25 64.234375 
Q 24.90625 74.21875 42 74.21875 
Q 49.125 74.21875 55.546875 72.453125 
Q 61.96875 70.703125 67.390625 67.28125 
L 67.390625 56.78125 
Q 61.921875 61.421875 55.765625 63.765625 
Q 49.609375 66.109375 42.828125 66.109375 
Q 29.4375 66.109375 22.71875 58.640625 
Q 16.015625 51.171875 16.015625 36.375 
Q 16.015625 21.625 22.71875 14.15625 
Q 29.4375 6.6875 42.828125 6.6875 
Q 48.046875 6.6875 52.140625 7.59375 
Q 56.25 8.5 59.515625 10.40625 
z
" id="DejaVuSans-71"/>
       <path d="M 6.296875 72.90625 
L 16.890625 72.90625 
L 35.015625 45.796875 
L 53.21875 72.90625 
L 63.8125 72.90625 
L 40.375 37.890625 
L 65.375 0 
L 54.78125 0 
L 34.28125 31 
L 13.625 0 
L 2.984375 0 
L 29 38.921875 
z
" id="DejaVuSans-88"/>
       <path d="M 19.671875 34.8125 
L 19.671875 8.109375 
L 35.5 8.109375 
Q 43.453125 8.109375 47.28125 11.40625 
Q 51.125 14.703125 51.125 21.484375 
Q 51.125 28.328125 47.28125 31.5625 
Q 43.453125 34.8125 35.5 34.8125 
z
M 19.671875 64.796875 
L 19.671875 42.828125 
L 34.28125 42.828125 
Q 41.5 42.828125 45.03125 45.53125 
Q 48.578125 48.25 48.578125 53.8125 
Q 48.578125 59.328125 45.03125 62.0625 
Q 41.5 64.796875 34.28125 64.796875 
z
M 9.8125 72.90625 
L 35.015625 72.90625 
Q 46.296875 72.90625 52.390625 68.21875 
Q 58.5 63.53125 58.5 54.890625 
Q 58.5 48.1875 55.375 44.234375 
Q 52.25 40.28125 46.1875 39.3125 
Q 53.46875 37.75 57.5 32.78125 
Q 61.53125 27.828125 61.53125 20.40625 
Q 61.53125 10.640625 54.890625 5.3125 
Q 48.25 0 35.984375 0 
L 9.8125 0 
z
" id="DejaVuSans-66"/>
       <path d="M 34.28125 27.484375 
Q 23.390625 27.484375 19.1875 25 
Q 14.984375 22.515625 14.984375 16.5 
Q 14.984375 11.71875 18.140625 8.90625 
Q 21.296875 6.109375 26.703125 6.109375 
Q 34.1875 6.109375 38.703125 11.40625 
Q 43.21875 16.703125 43.21875 25.484375 
L 43.21875 27.484375 
z
M 52.203125 31.203125 
L 52.203125 0 
L 43.21875 0 
L 43.21875 8.296875 
Q 40.140625 3.328125 35.546875 0.953125 
Q 30.953125 -1.421875 24.3125 -1.421875 
Q 15.921875 -1.421875 10.953125 3.296875 
Q 6 8.015625 6 15.921875 
Q 6 25.140625 12.171875 29.828125 
Q 18.359375 34.515625 30.609375 34.515625 
L 43.21875 34.515625 
L 43.21875 35.40625 
Q 43.21875 41.609375 39.140625 45 
Q 35.0625 48.390625 27.6875 48.390625 
Q 23 48.390625 18.546875 47.265625 
Q 14.109375 46.140625 10.015625 43.890625 
L 10.015625 52.203125 
Q 14.9375 54.109375 19.578125 55.046875 
Q 24.21875 56 28.609375 56 
Q 40.484375 56 46.34375 49.84375 
Q 52.203125 43.703125 52.203125 31.203125 
z
" id="DejaVuSans-97"/>
      </defs>
      <use xlink:href="#DejaVuSans-71"/>
      <use x="77.490234" xlink:href="#DejaVuSans-88"/>
      <use x="145.996094" xlink:href="#DejaVuSans-66"/>
      <use x="214.599609" xlink:href="#DejaVuSans-101"/>
      <use x="276.123047" xlink:href="#DejaVuSans-97"/>
      <use x="337.402344" xlink:href="#DejaVuSans-109"/>
     </g>
    </g>
    <g id="line2d_14">
     <path d="M 305.441999 28.255896 
L 321.441999 28.255896 
" style="fill:none;stroke:#e36f47;stroke-linejoin:miter;"/>
    </g>
    <g id="line2d_15"/>
    <g id="text_13">
     <!-- DifferentialEquations -->
     <g transform="translate(327.841999 31.055896)scale(0.08 -0.08)">
      <defs>
       <path d="M 19.671875 64.796875 
L 19.671875 8.109375 
L 31.59375 8.109375 
Q 46.6875 8.109375 53.6875 14.9375 
Q 60.6875 21.78125 60.6875 36.53125 
Q 60.6875 51.171875 53.6875 57.984375 
Q 46.6875 64.796875 31.59375 64.796875 
z
M 9.8125 72.90625 
L 30.078125 72.90625 
Q 51.265625 72.90625 61.171875 64.09375 
Q 71.09375 55.28125 71.09375 36.53125 
Q 71.09375 17.671875 61.125 8.828125 
Q 51.171875 0 30.078125 0 
L 9.8125 0 
z
" id="DejaVuSans-68"/>
       <path d="M 37.109375 75.984375 
L 37.109375 68.5 
L 28.515625 68.5 
Q 23.6875 68.5 21.796875 66.546875 
Q 19.921875 64.59375 19.921875 59.515625 
L 19.921875 54.6875 
L 34.71875 54.6875 
L 34.71875 47.703125 
L 19.921875 47.703125 
L 19.921875 0 
L 10.890625 0 
L 10.890625 47.703125 
L 2.296875 47.703125 
L 2.296875 54.6875 
L 10.890625 54.6875 
L 10.890625 58.5 
Q 10.890625 67.625 15.140625 71.796875 
Q 19.390625 75.984375 28.609375 75.984375 
z
" id="DejaVuSans-102"/>
       <path d="M 41.109375 46.296875 
Q 39.59375 47.171875 37.8125 47.578125 
Q 36.03125 48 33.890625 48 
Q 26.265625 48 22.1875 43.046875 
Q 18.109375 38.09375 18.109375 28.8125 
L 18.109375 0 
L 9.078125 0 
L 9.078125 54.6875 
L 18.109375 54.6875 
L 18.109375 46.1875 
Q 20.953125 51.171875 25.484375 53.578125 
Q 30.03125 56 36.53125 56 
Q 37.453125 56 38.578125 55.875 
Q 39.703125 55.765625 41.0625 55.515625 
z
" id="DejaVuSans-114"/>
       <path d="M 54.890625 33.015625 
L 54.890625 0 
L 45.90625 0 
L 45.90625 32.71875 
Q 45.90625 40.484375 42.875 44.328125 
Q 39.84375 48.1875 33.796875 48.1875 
Q 26.515625 48.1875 22.3125 43.546875 
Q 18.109375 38.921875 18.109375 30.90625 
L 18.109375 0 
L 9.078125 0 
L 9.078125 54.6875 
L 18.109375 54.6875 
L 18.109375 46.1875 
Q 21.34375 51.125 25.703125 53.5625 
Q 30.078125 56 35.796875 56 
Q 45.21875 56 50.046875 50.171875 
Q 54.890625 44.34375 54.890625 33.015625 
z
" id="DejaVuSans-110"/>
       <path d="M 18.3125 70.21875 
L 18.3125 54.6875 
L 36.8125 54.6875 
L 36.8125 47.703125 
L 18.3125 47.703125 
L 18.3125 18.015625 
Q 18.3125 11.328125 20.140625 9.421875 
Q 21.96875 7.515625 27.59375 7.515625 
L 36.8125 7.515625 
L 36.8125 0 
L 27.59375 0 
Q 17.1875 0 13.234375 3.875 
Q 9.28125 7.765625 9.28125 18.015625 
L 9.28125 47.703125 
L 2.6875 47.703125 
L 2.6875 54.6875 
L 9.28125 54.6875 
L 9.28125 70.21875 
z
" id="DejaVuSans-116"/>
       <path d="M 9.421875 75.984375 
L 18.40625 75.984375 
L 18.40625 0 
L 9.421875 0 
z
" id="DejaVuSans-108"/>
       <path d="M 9.8125 72.90625 
L 55.90625 72.90625 
L 55.90625 64.59375 
L 19.671875 64.59375 
L 19.671875 43.015625 
L 54.390625 43.015625 
L 54.390625 34.71875 
L 19.671875 34.71875 
L 19.671875 8.296875 
L 56.78125 8.296875 
L 56.78125 0 
L 9.8125 0 
z
" id="DejaVuSans-69"/>
       <path d="M 14.796875 27.296875 
Q 14.796875 17.390625 18.875 11.75 
Q 22.953125 6.109375 30.078125 6.109375 
Q 37.203125 6.109375 41.296875 11.75 
Q 45.40625 17.390625 45.40625 27.296875 
Q 45.40625 37.203125 41.296875 42.84375 
Q 37.203125 48.484375 30.078125 48.484375 
Q 22.953125 48.484375 18.875 42.84375 
Q 14.796875 37.203125 14.796875 27.296875 
z
M 45.40625 8.203125 
Q 42.578125 3.328125 38.25 0.953125 
Q 33.9375 -1.421875 27.875 -1.421875 
Q 17.96875 -1.421875 11.734375 6.484375 
Q 5.515625 14.40625 5.515625 27.296875 
Q 5.515625 40.1875 11.734375 48.09375 
Q 17.96875 56 27.875 56 
Q 33.9375 56 38.25 53.625 
Q 42.578125 51.265625 45.40625 46.390625 
L 45.40625 54.6875 
L 54.390625 54.6875 
L 54.390625 -20.796875 
L 45.40625 -20.796875 
z
" id="DejaVuSans-113"/>
       <path d="M 8.5 21.578125 
L 8.5 54.6875 
L 17.484375 54.6875 
L 17.484375 21.921875 
Q 17.484375 14.15625 20.5 10.265625 
Q 23.53125 6.390625 29.59375 6.390625 
Q 36.859375 6.390625 41.078125 11.03125 
Q 45.3125 15.671875 45.3125 23.6875 
L 45.3125 54.6875 
L 54.296875 54.6875 
L 54.296875 0 
L 45.3125 0 
L 45.3125 8.40625 
Q 42.046875 3.421875 37.71875 1 
Q 33.40625 -1.421875 27.6875 -1.421875 
Q 18.265625 -1.421875 13.375 4.4375 
Q 8.5 10.296875 8.5 21.578125 
z
M 31.109375 56 
z
" id="DejaVuSans-117"/>
       <path d="M 30.609375 48.390625 
Q 23.390625 48.390625 19.1875 42.75 
Q 14.984375 37.109375 14.984375 27.296875 
Q 14.984375 17.484375 19.15625 11.84375 
Q 23.34375 6.203125 30.609375 6.203125 
Q 37.796875 6.203125 41.984375 11.859375 
Q 46.1875 17.53125 46.1875 27.296875 
Q 46.1875 37.015625 41.984375 42.703125 
Q 37.796875 48.390625 30.609375 48.390625 
z
M 30.609375 56 
Q 42.328125 56 49.015625 48.375 
Q 55.71875 40.765625 55.71875 27.296875 
Q 55.71875 13.875 49.015625 6.21875 
Q 42.328125 -1.421875 30.609375 -1.421875 
Q 18.84375 -1.421875 12.171875 6.21875 
Q 5.515625 13.875 5.515625 27.296875 
Q 5.515625 40.765625 12.171875 48.375 
Q 18.84375 56 30.609375 56 
z
" id="DejaVuSans-111"/>
      </defs>
      <use xlink:href="#DejaVuSans-68"/>
      <use x="77.001953" xlink:href="#DejaVuSans-105"/>
      <use x="104.785156" xlink:href="#DejaVuSans-102"/>
      <use x="139.990234" xlink:href="#DejaVuSans-102"/>
      <use x="175.195312" xlink:href="#DejaVuSans-101"/>
      <use x="236.71875" xlink:href="#DejaVuSans-114"/>
      <use x="275.582031" xlink:href="#DejaVuSans-101"/>
      <use x="337.105469" xlink:href="#DejaVuSans-110"/>
      <use x="400.484375" xlink:href="#DejaVuSans-116"/>
      <use x="439.693359" xlink:href="#DejaVuSans-105"/>
      <use x="467.476562" xlink:href="#DejaVuSans-97"/>
      <use x="528.755859" xlink:href="#DejaVuSans-108"/>
      <use x="556.539062" xlink:href="#DejaVuSans-69"/>
      <use x="619.722656" xlink:href="#DejaVuSans-113"/>
      <use x="683.199219" xlink:href="#DejaVuSans-117"/>
      <use x="746.578125" xlink:href="#DejaVuSans-97"/>
      <use x="807.857422" xlink:href="#DejaVuSans-116"/>
      <use x="847.066406" xlink:href="#DejaVuSans-105"/>
      <use x="874.849609" xlink:href="#DejaVuSans-111"/>
      <use x="936.03125" xlink:href="#DejaVuSans-110"/>
      <use x="999.410156" xlink:href="#DejaVuSans-115"/>
     </g>
    </g>
   </g>
  </g>
 </g>
 <defs>
  <clipPath id="p2b2883de5c">
   <rect height="255.390709" width="392.805604" x="29.556396" y="2.834646"/>
  </clipPath>
 </defs>
</svg>
