<?xml version="1.0" encoding="utf-8" standalone="no"?>
<!DOCTYPE svg PUBLIC "-//W3C//DTD SVG 1.1//EN"
  "http://www.w3.org/Graphics/SVG/1.1/DTD/svg11.dtd">
<!-- Created with matplotlib (https://matplotlib.org/) -->
<svg height="288pt" version="1.1" viewBox="0 0 432 288" width="432pt" xmlns="http://www.w3.org/2000/svg" xmlns:xlink="http://www.w3.org/1999/xlink">
 <metadata>
  <rdf:RDF xmlns:cc="http://creativecommons.org/ns#" xmlns:dc="http://purl.org/dc/elements/1.1/" xmlns:rdf="http://www.w3.org/1999/02/22-rdf-syntax-ns#">
   <cc:Work>
    <dc:type rdf:resource="http://purl.org/dc/dcmitype/StillImage"/>
    <dc:date>2021-04-27T19:05:22.619493</dc:date>
    <dc:format>image/svg+xml</dc:format>
    <dc:creator>
     <cc:Agent>
      <dc:title>Matplotlib v3.3.4, https://matplotlib.org/</dc:title>
     </cc:Agent>
    </dc:creator>
   </cc:Work>
  </rdf:RDF>
 </metadata>
 <defs>
  <style type="text/css">*{stroke-linecap:butt;stroke-linejoin:round;}</style>
 </defs>
 <g id="figure_1">
  <g id="patch_1">
   <path d="M 0 288 
L 432 288 
L 432 0 
L 0 0 
z
" style="fill:#ffffff;"/>
  </g>
  <g id="axes_1">
   <g id="patch_2">
    <path d="M 42.933593 258.225354 
L 422.361999 258.225354 
L 422.361999 2.834646 
L 42.933593 2.834646 
z
" style="fill:#ffffff;"/>
   </g>
   <g id="line2d_1">
    <path clip-path="url(#pe09a640f4b)" d="M 42.933593 106.690075 
L 43.69245 106.77969 
L 44.641021 107.08286 
L 45.96902 107.966197 
L 47.297019 109.212418 
L 48.435305 110.70905 
L 50.901589 114.822888 
L 52.419303 117.757038 
L 54.506159 122.688 
L 56.78273 128.571208 
L 58.679872 133.330831 
L 61.905013 140.423726 
L 67.027297 151.089608 
L 68.355296 152.906745 
L 69.493581 154.117345 
L 70.252438 154.656697 
L 71.201009 155.030296 
L 72.529008 155.153494 
L 73.667294 154.959409 
L 74.236436 154.642462 
L 74.995293 153.986462 
L 75.943864 152.79196 
L 77.082149 151.095107 
L 78.410149 148.804458 
L 81.445576 143.355837 
L 83.342718 140.215221 
L 87.137002 133.233652 
L 89.223858 129.04502 
L 91.121 125.251098 
L 94.535856 117.492133 
L 96.812426 112.149327 
L 98.140426 109.843613 
L 99.658139 107.762479 
L 100.796425 106.635111 
L 102.314138 105.630735 
L 104.590709 104.370313 
L 105.159851 104.282274 
L 106.108422 104.378848 
L 107.246708 104.801156 
L 108.005564 105.306063 
L 108.764421 106.042663 
L 109.902706 107.637004 
L 111.42042 110.229575 
L 112.558705 112.625487 
L 113.696991 115.718265 
L 115.02499 120.051114 
L 116.352989 125.045174 
L 118.439846 134.088915 
L 120.716416 143.368758 
L 122.423844 149.641429 
L 123.941557 154.304281 
L 125.8387 159.256471 
L 126.787271 161.249141 
L 127.735842 162.710281 
L 128.684413 163.756804 
L 129.822698 164.694951 
L 130.771269 165.189077 
L 131.71984 165.393948 
L 133.806696 165.583119 
L 134.565553 165.483257 
L 135.32441 165.127358 
L 135.893552 164.587102 
L 136.652409 163.562115 
L 137.411266 162.14207 
L 138.170123 160.343076 
L 139.118694 157.388297 
L 140.067265 153.732364 
L 141.964407 145.302049 
L 144.051263 135.187346 
L 148.035261 115.675985 
L 149.552975 109.083104 
L 150.880974 104.419511 
L 152.398688 100.002657 
L 153.726687 96.904344 
L 156.192972 92.116945 
L 157.331257 90.273158 
L 158.090114 89.368556 
L 159.038685 88.623027 
L 159.797542 88.253655 
L 160.746113 88.04259 
L 161.50497 88.129222 
L 162.643255 88.53807 
L 165.299254 89.877185 
L 166.058111 90.711086 
L 166.816967 91.91616 
L 167.575824 93.543098 
L 168.524395 96.208328 
L 169.472966 99.700179 
L 170.611251 104.920729 
L 172.887822 116.946985 
L 175.354107 131.15007 
L 177.820391 146.56554 
L 180.666104 164.664319 
L 182.563246 174.887835 
L 184.270674 182.971305 
L 186.736959 193.486149 
L 187.875244 197.666568 
L 188.823815 200.377022 
L 189.582672 201.937818 
L 190.151814 202.747198 
L 190.720957 203.235885 
L 191.2901 203.388705 
L 191.859242 203.221846 
L 192.428385 202.792383 
L 193.376956 201.664439 
L 195.843241 198.223841 
L 196.602097 196.797005 
L 197.550668 194.439537 
L 198.499239 191.326893 
L 199.44781 187.416908 
L 200.396381 182.461116 
L 201.534667 175.102202 
L 204.570094 154.506033 
L 206.846664 141.507601 
L 208.364378 132.60519 
L 209.502663 124.40991 
L 213.296947 95.487844 
L 214.814661 85.880965 
L 219.936944 56.990834 
L 220.885515 53.585932 
L 221.644372 51.55727 
L 222.213515 50.445856 
L 222.782657 49.825226 
L 223.162086 49.726604 
L 223.541514 49.875031 
L 223.920943 50.238695 
L 224.490085 51.125221 
L 226.007799 53.766311 
L 226.766656 54.612973 
L 227.335798 54.976897 
L 227.904941 55.13244 
L 228.284369 55.082355 
L 228.663798 54.88259 
L 229.23294 54.23109 
L 229.802083 53.151365 
L 231.699225 48.902893 
L 232.078653 48.606978 
L 232.458082 48.635391 
L 232.83751 48.988121 
L 233.406653 50.056111 
L 233.975795 51.682721 
L 234.734652 54.720764 
L 235.493509 59.030959 
L 236.252366 64.757242 
L 241.184935 107.717644 
L 243.65122 132.685484 
L 246.117504 159.158108 
L 247.066075 166.352658 
L 248.773503 177.017397 
L 250.291217 185.568772 
L 251.80893 194.05472 
L 254.275215 209.50816 
L 254.844358 211.567387 
L 255.603215 213.337404 
L 256.931214 215.967215 
L 260.156355 223.586858 
L 260.915212 226.281858 
L 262.243212 231.304493 
L 262.62264 232.040825 
L 263.002068 232.229003 
L 263.191783 232.09338 
L 263.571211 231.346184 
L 264.140354 229.188376 
L 265.088925 223.958685 
L 271.539208 186.092414 
L 272.487779 177.887236 
L 274.574635 158.929283 
L 276.282063 145.7267 
L 277.04092 141.182462 
L 277.799776 137.900554 
L 279.507204 131.734493 
L 280.266061 127.816446 
L 284.060345 106.418258 
L 284.629488 104.347435 
L 285.008916 103.475279 
L 285.388344 103.044352 
L 285.578059 103.009498 
L 285.957487 103.315984 
L 286.336915 104.051349 
L 286.906058 105.713795 
L 288.8032 111.889361 
L 289.372343 112.95198 
L 289.751771 113.270997 
L 290.1312 113.241617 
L 290.510628 112.784193 
L 290.890056 111.833603 
L 291.459199 109.511481 
L 292.028342 105.994937 
L 292.787198 99.716801 
L 294.68434 82.870172 
L 295.253483 79.696814 
L 295.632911 78.41814 
L 296.01234 77.878503 
L 296.202054 77.914766 
L 296.391768 78.160999 
L 296.771197 79.285794 
L 297.150625 81.278216 
L 297.719768 85.877137 
L 298.478624 94.342278 
L 299.996338 112.093642 
L 300.755195 118.214716 
L 301.514052 122.428577 
L 302.272909 125.421728 
L 303.031765 127.625595 
L 304.170051 130.542111 
L 304.739193 132.922106 
L 305.308336 136.686903 
L 305.877478 141.983532 
L 306.636335 151.255719 
L 308.154049 170.660791 
L 308.912906 177.160025 
L 309.482048 180.28458 
L 310.051191 182.345554 
L 310.620334 183.671934 
L 310.999762 184.060707 
L 311.37919 184.002739 
L 311.758619 183.573116 
L 312.327761 182.718149 
L 312.517476 182.620294 
L 312.70719 182.733637 
L 312.896904 183.120984 
L 313.276332 184.893471 
L 313.655761 188.156627 
L 314.224903 195.63859 
L 316.31176 227.120573 
L 317.260331 236.734054 
L 318.398616 246.211624 
L 318.967758 249.700433 
L 319.347187 250.884174 
L 319.536901 250.997315 
L 319.726615 250.751256 
L 320.106044 249.139716 
L 320.485472 246.143694 
L 321.434043 235.446192 
L 322.1929 228.182107 
L 322.572328 226.00682 
L 322.951757 224.833989 
L 323.331185 224.513929 
L 323.710614 224.738545 
L 324.279756 225.516719 
L 325.038613 226.590511 
L 325.607756 227.04823 
L 326.176898 227.359611 
L 326.556327 228.049439 
L 326.935755 229.478079 
L 327.504898 232.974694 
L 328.263754 237.876602 
L 328.643183 239.19402 
L 328.832897 239.400659 
L 329.022611 239.259099 
L 329.212325 238.773114 
L 329.591754 236.791985 
L 330.160896 231.671867 
L 331.299182 217.742658 
L 332.627181 201.533593 
L 335.662608 168.422468 
L 336.421465 164.073146 
L 337.55975 158.150765 
L 340.405463 140.825165 
L 340.974606 135.563482 
L 342.871748 116.118963 
L 343.440891 113.180472 
L 344.76889 107.367682 
L 346.855746 95.43161 
L 347.994032 92.024632 
L 348.37346 90.140719 
L 348.752888 87.445541 
L 349.322031 81.61545 
L 350.270602 71.566934 
L 350.65003 69.268591 
L 351.029459 68.139063 
L 351.219173 67.969568 
L 351.408887 68.038033 
L 351.788316 68.712455 
L 352.357458 69.850529 
L 352.547172 69.943448 
L 352.736887 69.811909 
L 353.116315 68.855206 
L 354.064886 65.585146 
L 354.2546 65.356181 
L 354.444314 65.40406 
L 354.634029 65.765712 
L 355.013457 67.522244 
L 355.5826 72.320195 
L 356.531171 80.916127 
L 356.910599 82.648701 
L 357.100313 82.887 
L 357.290028 82.665225 
L 357.669456 80.971545 
L 358.428313 75.918297 
L 358.618027 75.255682 
L 358.807741 75.03529 
L 358.997455 75.249881 
L 359.376884 76.797153 
L 359.946026 80.957942 
L 360.894597 88.658408 
L 361.084312 89.349447 
L 361.274026 89.466913 
L 361.46374 89.009793 
L 361.843168 86.724486 
L 362.602025 81.001587 
L 362.981454 79.674504 
L 363.171168 79.547501 
L 363.360882 79.756838 
L 363.550596 80.307562 
L 363.930025 82.46948 
L 364.499167 87.979038 
L 365.06831 93.170587 
L 365.258024 94.048534 
L 365.447738 94.383037 
L 365.637452 94.192819 
L 366.016881 92.551979 
L 366.965452 86.313298 
L 367.155166 85.742504 
L 367.34488 85.667639 
L 367.534594 86.162893 
L 367.914023 88.871005 
L 368.483165 96.159569 
L 369.242022 105.939549 
L 369.621451 108.426898 
L 369.811165 108.997174 
L 370.000879 109.174788 
L 370.190593 109.026215 
L 370.759736 108.094056 
L 370.94945 108.247121 
L 371.139164 108.884164 
L 371.518593 111.818458 
L 372.087735 120.043898 
L 373.226021 138.931135 
L 373.605449 142.257179 
L 373.984877 143.474596 
L 374.174592 143.480913 
L 374.55402 143.22645 
L 374.743734 143.385565 
L 374.933448 143.919643 
L 375.312877 146.326641 
L 375.692305 150.818974 
L 376.261448 161.465816 
L 377.020305 176.005193 
L 377.589447 182.724228 
L 377.968876 184.790652 
L 378.348304 185.400597 
L 378.727732 185.761605 
L 378.917447 186.266181 
L 379.296875 188.33044 
L 379.866018 193.793345 
L 381.194017 209.342826 
L 381.573446 210.804498 
L 381.76316 210.787635 
L 381.952874 210.3412 
L 382.332302 208.471995 
L 383.091159 202.712269 
L 383.660302 199.144322 
L 383.850016 198.849567 
L 384.03973 199.186876 
L 384.419159 201.461396 
L 384.988301 205.643429 
L 385.36773 206.799444 
L 385.557444 206.867484 
L 386.316301 206.430887 
L 386.506015 206.229814 
L 386.695729 205.795497 
L 387.075157 203.918972 
L 387.6443 200.135678 
L 387.834014 199.534138 
L 388.023728 199.58274 
L 388.213443 200.31215 
L 388.782585 204.811195 
L 389.351728 208.489589 
L 390.490013 213.023702 
L 390.679727 213.084986 
L 390.869441 212.609103 
L 391.24887 210.093951 
L 391.818013 205.543326 
L 392.007727 204.819708 
L 392.197441 204.611101 
L 392.387155 204.79295 
L 392.956298 205.720593 
L 393.146012 205.665088 
L 393.52544 204.856034 
L 394.094583 202.860637 
L 394.474011 200.484664 
L 394.85344 196.228974 
L 396.750582 169.826599 
L 397.319724 165.796896 
L 397.888867 162.474221 
L 398.647724 156.029159 
L 399.406581 147.804085 
L 400.165437 138.721232 
L 400.544866 137.149489 
L 400.73458 137.06201 
L 401.303723 137.093578 
L 401.683151 137.038569 
L 401.872865 137.061302 
L 402.062579 136.933211 
L 402.252294 136.382941 
L 402.442008 135.12896 
L 402.821436 130.281692 
L 404.528864 102.841669 
L 404.908293 100.368428 
L 405.477435 97.725238 
L 406.236292 93.482287 
L 406.61572 89.072671 
L 407.564291 74.476226 
L 408.323148 66.339003 
L 408.512862 65.591589 
L 408.702577 65.528308 
L 409.082005 66.473454 
L 409.840862 68.426457 
L 410.030576 68.688491 
L 410.22029 68.548603 
L 410.410004 67.765541 
L 410.789433 63.965607 
L 412.307146 42.952226 
L 412.876289 38.296611 
L 413.255717 36.775631 
L 413.82486 35.467342 
L 414.204288 33.275901 
L 414.963145 25.003948 
L 416.291145 10.55529 
L 416.480859 10.062685 
L 416.670573 10.431539 
L 417.050002 13.049844 
L 417.998573 22.253069 
L 418.567715 27.957324 
L 418.947144 29.665171 
L 419.136858 29.776022 
L 419.326572 29.524604 
L 419.895715 28.213693 
L 420.085429 28.102998 
L 420.275143 28.309251 
L 420.654571 29.636716 
L 421.034 31.951609 
L 421.603142 37.203909 
L 422.361999 46.913146 
L 422.361999 46.913146 
" style="fill:none;stroke:#009afa;"/>
   </g>
   <g id="matplotlib.axis_1">
    <g id="xtick_1">
     <g id="line2d_2">
      <defs>
       <path d="M 0 0 
L 0 -2.5 
" id="m608beb75b9" style="stroke:#000000;stroke-width:0.5;"/>
      </defs>
      <g>
       <use style="stroke:#000000;stroke-width:0.5;" x="42.933593" xlink:href="#m608beb75b9" y="258.225354"/>
      </g>
     </g>
     <g id="text_1">
      <!-- $\mathregular{0.0}$ -->
      <g transform="translate(36.533593 267.804104)scale(0.08 -0.08)">
       <defs>
        <path d="M 31.78125 66.40625 
Q 24.171875 66.40625 20.328125 58.90625 
Q 16.5 51.421875 16.5 36.375 
Q 16.5 21.390625 20.328125 13.890625 
Q 24.171875 6.390625 31.78125 6.390625 
Q 39.453125 6.390625 43.28125 13.890625 
Q 47.125 21.390625 47.125 36.375 
Q 47.125 51.421875 43.28125 58.90625 
Q 39.453125 66.40625 31.78125 66.40625 
z
M 31.78125 74.21875 
Q 44.046875 74.21875 50.515625 64.515625 
Q 56.984375 54.828125 56.984375 36.375 
Q 56.984375 17.96875 50.515625 8.265625 
Q 44.046875 -1.421875 31.78125 -1.421875 
Q 19.53125 -1.421875 13.0625 8.265625 
Q 6.59375 17.96875 6.59375 36.375 
Q 6.59375 54.828125 13.0625 64.515625 
Q 19.53125 74.21875 31.78125 74.21875 
z
" id="DejaVuSans-48"/>
        <path d="M 10.6875 12.40625 
L 21 12.40625 
L 21 0 
L 10.6875 0 
z
" id="DejaVuSans-46"/>
       </defs>
       <use transform="translate(0 0.78125)" xlink:href="#DejaVuSans-48"/>
       <use transform="translate(63.623047 0.78125)" xlink:href="#DejaVuSans-46"/>
       <use transform="translate(95.410156 0.78125)" xlink:href="#DejaVuSans-48"/>
      </g>
     </g>
    </g>
    <g id="xtick_2">
     <g id="line2d_3">
      <g>
       <use style="stroke:#000000;stroke-width:0.5;" x="137.790694" xlink:href="#m608beb75b9" y="258.225354"/>
      </g>
     </g>
     <g id="text_2">
      <!-- $\mathregular{0.5}$ -->
      <g transform="translate(131.390694 267.804104)scale(0.08 -0.08)">
       <defs>
        <path d="M 10.796875 72.90625 
L 49.515625 72.90625 
L 49.515625 64.59375 
L 19.828125 64.59375 
L 19.828125 46.734375 
Q 21.96875 47.46875 24.109375 47.828125 
Q 26.265625 48.1875 28.421875 48.1875 
Q 40.625 48.1875 47.75 41.5 
Q 54.890625 34.8125 54.890625 23.390625 
Q 54.890625 11.625 47.5625 5.09375 
Q 40.234375 -1.421875 26.90625 -1.421875 
Q 22.3125 -1.421875 17.546875 -0.640625 
Q 12.796875 0.140625 7.71875 1.703125 
L 7.71875 11.625 
Q 12.109375 9.234375 16.796875 8.0625 
Q 21.484375 6.890625 26.703125 6.890625 
Q 35.15625 6.890625 40.078125 11.328125 
Q 45.015625 15.765625 45.015625 23.390625 
Q 45.015625 31 40.078125 35.4375 
Q 35.15625 39.890625 26.703125 39.890625 
Q 22.75 39.890625 18.8125 39.015625 
Q 14.890625 38.140625 10.796875 36.28125 
z
" id="DejaVuSans-53"/>
       </defs>
       <use transform="translate(0 0.78125)" xlink:href="#DejaVuSans-48"/>
       <use transform="translate(63.623047 0.78125)" xlink:href="#DejaVuSans-46"/>
       <use transform="translate(95.410156 0.78125)" xlink:href="#DejaVuSans-53"/>
      </g>
     </g>
    </g>
    <g id="xtick_3">
     <g id="line2d_4">
      <g>
       <use style="stroke:#000000;stroke-width:0.5;" x="232.647796" xlink:href="#m608beb75b9" y="258.225354"/>
      </g>
     </g>
     <g id="text_3">
      <!-- $\mathregular{1.0}$ -->
      <g transform="translate(226.247796 267.804104)scale(0.08 -0.08)">
       <defs>
        <path d="M 12.40625 8.296875 
L 28.515625 8.296875 
L 28.515625 63.921875 
L 10.984375 60.40625 
L 10.984375 69.390625 
L 28.421875 72.90625 
L 38.28125 72.90625 
L 38.28125 8.296875 
L 54.390625 8.296875 
L 54.390625 0 
L 12.40625 0 
z
" id="DejaVuSans-49"/>
       </defs>
       <use transform="translate(0 0.78125)" xlink:href="#DejaVuSans-49"/>
       <use transform="translate(63.623047 0.78125)" xlink:href="#DejaVuSans-46"/>
       <use transform="translate(95.410156 0.78125)" xlink:href="#DejaVuSans-48"/>
      </g>
     </g>
    </g>
    <g id="xtick_4">
     <g id="line2d_5">
      <g>
       <use style="stroke:#000000;stroke-width:0.5;" x="327.504898" xlink:href="#m608beb75b9" y="258.225354"/>
      </g>
     </g>
     <g id="text_4">
      <!-- $\mathregular{1.5}$ -->
      <g transform="translate(321.104898 267.804104)scale(0.08 -0.08)">
       <use transform="translate(0 0.09375)" xlink:href="#DejaVuSans-49"/>
       <use transform="translate(63.623047 0.09375)" xlink:href="#DejaVuSans-46"/>
       <use transform="translate(95.410156 0.09375)" xlink:href="#DejaVuSans-53"/>
      </g>
     </g>
    </g>
    <g id="xtick_5">
     <g id="line2d_6">
      <g>
       <use style="stroke:#000000;stroke-width:0.5;" x="422.361999" xlink:href="#m608beb75b9" y="258.225354"/>
      </g>
     </g>
     <g id="text_5">
      <!-- $\mathregular{2.0}$ -->
      <g transform="translate(415.961999 267.804104)scale(0.08 -0.08)">
       <defs>
        <path d="M 19.1875 8.296875 
L 53.609375 8.296875 
L 53.609375 0 
L 7.328125 0 
L 7.328125 8.296875 
Q 12.9375 14.109375 22.625 23.890625 
Q 32.328125 33.6875 34.8125 36.53125 
Q 39.546875 41.84375 41.421875 45.53125 
Q 43.3125 49.21875 43.3125 52.78125 
Q 43.3125 58.59375 39.234375 62.25 
Q 35.15625 65.921875 28.609375 65.921875 
Q 23.96875 65.921875 18.8125 64.3125 
Q 13.671875 62.703125 7.8125 59.421875 
L 7.8125 69.390625 
Q 13.765625 71.78125 18.9375 73 
Q 24.125 74.21875 28.421875 74.21875 
Q 39.75 74.21875 46.484375 68.546875 
Q 53.21875 62.890625 53.21875 53.421875 
Q 53.21875 48.921875 51.53125 44.890625 
Q 49.859375 40.875 45.40625 35.40625 
Q 44.1875 33.984375 37.640625 27.21875 
Q 31.109375 20.453125 19.1875 8.296875 
z
" id="DejaVuSans-50"/>
       </defs>
       <use transform="translate(0 0.78125)" xlink:href="#DejaVuSans-50"/>
       <use transform="translate(63.623047 0.78125)" xlink:href="#DejaVuSans-46"/>
       <use transform="translate(95.410156 0.78125)" xlink:href="#DejaVuSans-48"/>
      </g>
     </g>
    </g>
    <g id="text_6">
     <!-- Time (s) -->
     <g transform="translate(210.285999 281.826136)scale(0.11 -0.11)">
      <defs>
       <path d="M -0.296875 72.90625 
L 61.375 72.90625 
L 61.375 64.59375 
L 35.5 64.59375 
L 35.5 0 
L 25.59375 0 
L 25.59375 64.59375 
L -0.296875 64.59375 
z
" id="DejaVuSans-84"/>
       <path d="M 9.421875 54.6875 
L 18.40625 54.6875 
L 18.40625 0 
L 9.421875 0 
z
M 9.421875 75.984375 
L 18.40625 75.984375 
L 18.40625 64.59375 
L 9.421875 64.59375 
z
" id="DejaVuSans-105"/>
       <path d="M 52 44.1875 
Q 55.375 50.25 60.0625 53.125 
Q 64.75 56 71.09375 56 
Q 79.640625 56 84.28125 50.015625 
Q 88.921875 44.046875 88.921875 33.015625 
L 88.921875 0 
L 79.890625 0 
L 79.890625 32.71875 
Q 79.890625 40.578125 77.09375 44.375 
Q 74.3125 48.1875 68.609375 48.1875 
Q 61.625 48.1875 57.5625 43.546875 
Q 53.515625 38.921875 53.515625 30.90625 
L 53.515625 0 
L 44.484375 0 
L 44.484375 32.71875 
Q 44.484375 40.625 41.703125 44.40625 
Q 38.921875 48.1875 33.109375 48.1875 
Q 26.21875 48.1875 22.15625 43.53125 
Q 18.109375 38.875 18.109375 30.90625 
L 18.109375 0 
L 9.078125 0 
L 9.078125 54.6875 
L 18.109375 54.6875 
L 18.109375 46.1875 
Q 21.1875 51.21875 25.484375 53.609375 
Q 29.78125 56 35.6875 56 
Q 41.65625 56 45.828125 52.96875 
Q 50 49.953125 52 44.1875 
z
" id="DejaVuSans-109"/>
       <path d="M 56.203125 29.59375 
L 56.203125 25.203125 
L 14.890625 25.203125 
Q 15.484375 15.921875 20.484375 11.0625 
Q 25.484375 6.203125 34.421875 6.203125 
Q 39.59375 6.203125 44.453125 7.46875 
Q 49.3125 8.734375 54.109375 11.28125 
L 54.109375 2.78125 
Q 49.265625 0.734375 44.1875 -0.34375 
Q 39.109375 -1.421875 33.890625 -1.421875 
Q 20.796875 -1.421875 13.15625 6.1875 
Q 5.515625 13.8125 5.515625 26.8125 
Q 5.515625 40.234375 12.765625 48.109375 
Q 20.015625 56 32.328125 56 
Q 43.359375 56 49.78125 48.890625 
Q 56.203125 41.796875 56.203125 29.59375 
z
M 47.21875 32.234375 
Q 47.125 39.59375 43.09375 43.984375 
Q 39.0625 48.390625 32.421875 48.390625 
Q 24.90625 48.390625 20.390625 44.140625 
Q 15.875 39.890625 15.1875 32.171875 
z
" id="DejaVuSans-101"/>
       <path id="DejaVuSans-32"/>
       <path d="M 31 75.875 
Q 24.46875 64.65625 21.28125 53.65625 
Q 18.109375 42.671875 18.109375 31.390625 
Q 18.109375 20.125 21.3125 9.0625 
Q 24.515625 -2 31 -13.1875 
L 23.1875 -13.1875 
Q 15.875 -1.703125 12.234375 9.375 
Q 8.59375 20.453125 8.59375 31.390625 
Q 8.59375 42.28125 12.203125 53.3125 
Q 15.828125 64.359375 23.1875 75.875 
z
" id="DejaVuSans-40"/>
       <path d="M 44.28125 53.078125 
L 44.28125 44.578125 
Q 40.484375 46.53125 36.375 47.5 
Q 32.28125 48.484375 27.875 48.484375 
Q 21.1875 48.484375 17.84375 46.4375 
Q 14.5 44.390625 14.5 40.28125 
Q 14.5 37.15625 16.890625 35.375 
Q 19.28125 33.59375 26.515625 31.984375 
L 29.59375 31.296875 
Q 39.15625 29.25 43.1875 25.515625 
Q 47.21875 21.78125 47.21875 15.09375 
Q 47.21875 7.46875 41.1875 3.015625 
Q 35.15625 -1.421875 24.609375 -1.421875 
Q 20.21875 -1.421875 15.453125 -0.5625 
Q 10.6875 0.296875 5.421875 2 
L 5.421875 11.28125 
Q 10.40625 8.6875 15.234375 7.390625 
Q 20.0625 6.109375 24.8125 6.109375 
Q 31.15625 6.109375 34.5625 8.28125 
Q 37.984375 10.453125 37.984375 14.40625 
Q 37.984375 18.0625 35.515625 20.015625 
Q 33.0625 21.96875 24.703125 23.78125 
L 21.578125 24.515625 
Q 13.234375 26.265625 9.515625 29.90625 
Q 5.8125 33.546875 5.8125 39.890625 
Q 5.8125 47.609375 11.28125 51.796875 
Q 16.75 56 26.8125 56 
Q 31.78125 56 36.171875 55.265625 
Q 40.578125 54.546875 44.28125 53.078125 
z
" id="DejaVuSans-115"/>
       <path d="M 8.015625 75.875 
L 15.828125 75.875 
Q 23.140625 64.359375 26.78125 53.3125 
Q 30.421875 42.28125 30.421875 31.390625 
Q 30.421875 20.453125 26.78125 9.375 
Q 23.140625 -1.703125 15.828125 -13.1875 
L 8.015625 -13.1875 
Q 14.5 -2 17.703125 9.0625 
Q 20.90625 20.125 20.90625 31.390625 
Q 20.90625 42.671875 17.703125 53.65625 
Q 14.5 64.65625 8.015625 75.875 
z
" id="DejaVuSans-41"/>
      </defs>
      <use xlink:href="#DejaVuSans-84"/>
      <use x="57.958984" xlink:href="#DejaVuSans-105"/>
      <use x="85.742188" xlink:href="#DejaVuSans-109"/>
      <use x="183.154297" xlink:href="#DejaVuSans-101"/>
      <use x="244.677734" xlink:href="#DejaVuSans-32"/>
      <use x="276.464844" xlink:href="#DejaVuSans-40"/>
      <use x="315.478516" xlink:href="#DejaVuSans-115"/>
      <use x="367.578125" xlink:href="#DejaVuSans-41"/>
     </g>
    </g>
   </g>
   <g id="matplotlib.axis_2">
    <g id="ytick_1">
     <g id="line2d_7">
      <defs>
       <path d="M 0 0 
L 2.5 0 
" id="m756e2466a0" style="stroke:#000000;stroke-width:0.5;"/>
      </defs>
      <g>
       <use style="stroke:#000000;stroke-width:0.5;" x="42.933593" xlink:href="#m756e2466a0" y="223.859163"/>
      </g>
     </g>
     <g id="text_7">
      <!-- $\mathregular{-20}$ -->
      <g transform="translate(22.473593 226.898538)scale(0.08 -0.08)">
       <defs>
        <path d="M 10.59375 35.5 
L 73.1875 35.5 
L 73.1875 27.203125 
L 10.59375 27.203125 
z
" id="DejaVuSans-8722"/>
       </defs>
       <use transform="translate(0 0.78125)" xlink:href="#DejaVuSans-8722"/>
       <use transform="translate(83.789062 0.78125)" xlink:href="#DejaVuSans-50"/>
       <use transform="translate(147.412109 0.78125)" xlink:href="#DejaVuSans-48"/>
      </g>
     </g>
    </g>
    <g id="ytick_2">
     <g id="line2d_8">
      <g>
       <use style="stroke:#000000;stroke-width:0.5;" x="42.933593" xlink:href="#m756e2466a0" y="165.274619"/>
      </g>
     </g>
     <g id="text_8">
      <!-- $\mathregular{-10}$ -->
      <g transform="translate(22.473593 168.313994)scale(0.08 -0.08)">
       <use transform="translate(0 0.78125)" xlink:href="#DejaVuSans-8722"/>
       <use transform="translate(83.789062 0.78125)" xlink:href="#DejaVuSans-49"/>
       <use transform="translate(147.412109 0.78125)" xlink:href="#DejaVuSans-48"/>
      </g>
     </g>
    </g>
    <g id="ytick_3">
     <g id="line2d_9">
      <g>
       <use style="stroke:#000000;stroke-width:0.5;" x="42.933593" xlink:href="#m756e2466a0" y="106.690075"/>
      </g>
     </g>
     <g id="text_9">
      <!-- $\mathregular{0}$ -->
      <g transform="translate(34.313593 109.72945)scale(0.08 -0.08)">
       <use transform="translate(0 0.78125)" xlink:href="#DejaVuSans-48"/>
      </g>
     </g>
    </g>
    <g id="ytick_4">
     <g id="line2d_10">
      <g>
       <use style="stroke:#000000;stroke-width:0.5;" x="42.933593" xlink:href="#m756e2466a0" y="48.105531"/>
      </g>
     </g>
     <g id="text_10">
      <!-- $\mathregular{10}$ -->
      <g transform="translate(29.193593 51.144906)scale(0.08 -0.08)">
       <use transform="translate(0 0.78125)" xlink:href="#DejaVuSans-49"/>
       <use transform="translate(63.623047 0.78125)" xlink:href="#DejaVuSans-48"/>
      </g>
     </g>
    </g>
    <g id="text_11">
     <!-- Rodriguez Parameter $\theta_y$ (degree) -->
     <g transform="translate(15.063593 221.885)rotate(-90)scale(0.11 -0.11)">
      <defs>
       <path d="M 44.390625 34.1875 
Q 47.5625 33.109375 50.5625 29.59375 
Q 53.5625 26.078125 56.59375 19.921875 
L 66.609375 0 
L 56 0 
L 46.6875 18.703125 
Q 43.0625 26.03125 39.671875 28.421875 
Q 36.28125 30.8125 30.421875 30.8125 
L 19.671875 30.8125 
L 19.671875 0 
L 9.8125 0 
L 9.8125 72.90625 
L 32.078125 72.90625 
Q 44.578125 72.90625 50.734375 67.671875 
Q 56.890625 62.453125 56.890625 51.90625 
Q 56.890625 45.015625 53.6875 40.46875 
Q 50.484375 35.9375 44.390625 34.1875 
z
M 19.671875 64.796875 
L 19.671875 38.921875 
L 32.078125 38.921875 
Q 39.203125 38.921875 42.84375 42.21875 
Q 46.484375 45.515625 46.484375 51.90625 
Q 46.484375 58.296875 42.84375 61.546875 
Q 39.203125 64.796875 32.078125 64.796875 
z
" id="DejaVuSans-82"/>
       <path d="M 30.609375 48.390625 
Q 23.390625 48.390625 19.1875 42.75 
Q 14.984375 37.109375 14.984375 27.296875 
Q 14.984375 17.484375 19.15625 11.84375 
Q 23.34375 6.203125 30.609375 6.203125 
Q 37.796875 6.203125 41.984375 11.859375 
Q 46.1875 17.53125 46.1875 27.296875 
Q 46.1875 37.015625 41.984375 42.703125 
Q 37.796875 48.390625 30.609375 48.390625 
z
M 30.609375 56 
Q 42.328125 56 49.015625 48.375 
Q 55.71875 40.765625 55.71875 27.296875 
Q 55.71875 13.875 49.015625 6.21875 
Q 42.328125 -1.421875 30.609375 -1.421875 
Q 18.84375 -1.421875 12.171875 6.21875 
Q 5.515625 13.875 5.515625 27.296875 
Q 5.515625 40.765625 12.171875 48.375 
Q 18.84375 56 30.609375 56 
z
" id="DejaVuSans-111"/>
       <path d="M 45.40625 46.390625 
L 45.40625 75.984375 
L 54.390625 75.984375 
L 54.390625 0 
L 45.40625 0 
L 45.40625 8.203125 
Q 42.578125 3.328125 38.25 0.953125 
Q 33.9375 -1.421875 27.875 -1.421875 
Q 17.96875 -1.421875 11.734375 6.484375 
Q 5.515625 14.40625 5.515625 27.296875 
Q 5.515625 40.1875 11.734375 48.09375 
Q 17.96875 56 27.875 56 
Q 33.9375 56 38.25 53.625 
Q 42.578125 51.265625 45.40625 46.390625 
z
M 14.796875 27.296875 
Q 14.796875 17.390625 18.875 11.75 
Q 22.953125 6.109375 30.078125 6.109375 
Q 37.203125 6.109375 41.296875 11.75 
Q 45.40625 17.390625 45.40625 27.296875 
Q 45.40625 37.203125 41.296875 42.84375 
Q 37.203125 48.484375 30.078125 48.484375 
Q 22.953125 48.484375 18.875 42.84375 
Q 14.796875 37.203125 14.796875 27.296875 
z
" id="DejaVuSans-100"/>
       <path d="M 41.109375 46.296875 
Q 39.59375 47.171875 37.8125 47.578125 
Q 36.03125 48 33.890625 48 
Q 26.265625 48 22.1875 43.046875 
Q 18.109375 38.09375 18.109375 28.8125 
L 18.109375 0 
L 9.078125 0 
L 9.078125 54.6875 
L 18.109375 54.6875 
L 18.109375 46.1875 
Q 20.953125 51.171875 25.484375 53.578125 
Q 30.03125 56 36.53125 56 
Q 37.453125 56 38.578125 55.875 
Q 39.703125 55.765625 41.0625 55.515625 
z
" id="DejaVuSans-114"/>
       <path d="M 45.40625 27.984375 
Q 45.40625 37.75 41.375 43.109375 
Q 37.359375 48.484375 30.078125 48.484375 
Q 22.859375 48.484375 18.828125 43.109375 
Q 14.796875 37.75 14.796875 27.984375 
Q 14.796875 18.265625 18.828125 12.890625 
Q 22.859375 7.515625 30.078125 7.515625 
Q 37.359375 7.515625 41.375 12.890625 
Q 45.40625 18.265625 45.40625 27.984375 
z
M 54.390625 6.78125 
Q 54.390625 -7.171875 48.1875 -13.984375 
Q 42 -20.796875 29.203125 -20.796875 
Q 24.46875 -20.796875 20.265625 -20.09375 
Q 16.0625 -19.390625 12.109375 -17.921875 
L 12.109375 -9.1875 
Q 16.0625 -11.328125 19.921875 -12.34375 
Q 23.78125 -13.375 27.78125 -13.375 
Q 36.625 -13.375 41.015625 -8.765625 
Q 45.40625 -4.15625 45.40625 5.171875 
L 45.40625 9.625 
Q 42.625 4.78125 38.28125 2.390625 
Q 33.9375 0 27.875 0 
Q 17.828125 0 11.671875 7.65625 
Q 5.515625 15.328125 5.515625 27.984375 
Q 5.515625 40.671875 11.671875 48.328125 
Q 17.828125 56 27.875 56 
Q 33.9375 56 38.28125 53.609375 
Q 42.625 51.21875 45.40625 46.390625 
L 45.40625 54.6875 
L 54.390625 54.6875 
z
" id="DejaVuSans-103"/>
       <path d="M 8.5 21.578125 
L 8.5 54.6875 
L 17.484375 54.6875 
L 17.484375 21.921875 
Q 17.484375 14.15625 20.5 10.265625 
Q 23.53125 6.390625 29.59375 6.390625 
Q 36.859375 6.390625 41.078125 11.03125 
Q 45.3125 15.671875 45.3125 23.6875 
L 45.3125 54.6875 
L 54.296875 54.6875 
L 54.296875 0 
L 45.3125 0 
L 45.3125 8.40625 
Q 42.046875 3.421875 37.71875 1 
Q 33.40625 -1.421875 27.6875 -1.421875 
Q 18.265625 -1.421875 13.375 4.4375 
Q 8.5 10.296875 8.5 21.578125 
z
M 31.109375 56 
z
" id="DejaVuSans-117"/>
       <path d="M 5.515625 54.6875 
L 48.1875 54.6875 
L 48.1875 46.484375 
L 14.40625 7.171875 
L 48.1875 7.171875 
L 48.1875 0 
L 4.296875 0 
L 4.296875 8.203125 
L 38.09375 47.515625 
L 5.515625 47.515625 
z
" id="DejaVuSans-122"/>
       <path d="M 19.671875 64.796875 
L 19.671875 37.40625 
L 32.078125 37.40625 
Q 38.96875 37.40625 42.71875 40.96875 
Q 46.484375 44.53125 46.484375 51.125 
Q 46.484375 57.671875 42.71875 61.234375 
Q 38.96875 64.796875 32.078125 64.796875 
z
M 9.8125 72.90625 
L 32.078125 72.90625 
Q 44.34375 72.90625 50.609375 67.359375 
Q 56.890625 61.8125 56.890625 51.125 
Q 56.890625 40.328125 50.609375 34.8125 
Q 44.34375 29.296875 32.078125 29.296875 
L 19.671875 29.296875 
L 19.671875 0 
L 9.8125 0 
z
" id="DejaVuSans-80"/>
       <path d="M 34.28125 27.484375 
Q 23.390625 27.484375 19.1875 25 
Q 14.984375 22.515625 14.984375 16.5 
Q 14.984375 11.71875 18.140625 8.90625 
Q 21.296875 6.109375 26.703125 6.109375 
Q 34.1875 6.109375 38.703125 11.40625 
Q 43.21875 16.703125 43.21875 25.484375 
L 43.21875 27.484375 
z
M 52.203125 31.203125 
L 52.203125 0 
L 43.21875 0 
L 43.21875 8.296875 
Q 40.140625 3.328125 35.546875 0.953125 
Q 30.953125 -1.421875 24.3125 -1.421875 
Q 15.921875 -1.421875 10.953125 3.296875 
Q 6 8.015625 6 15.921875 
Q 6 25.140625 12.171875 29.828125 
Q 18.359375 34.515625 30.609375 34.515625 
L 43.21875 34.515625 
L 43.21875 35.40625 
Q 43.21875 41.609375 39.140625 45 
Q 35.0625 48.390625 27.6875 48.390625 
Q 23 48.390625 18.546875 47.265625 
Q 14.109375 46.140625 10.015625 43.890625 
L 10.015625 52.203125 
Q 14.9375 54.109375 19.578125 55.046875 
Q 24.21875 56 28.609375 56 
Q 40.484375 56 46.34375 49.84375 
Q 52.203125 43.703125 52.203125 31.203125 
z
" id="DejaVuSans-97"/>
       <path d="M 18.3125 70.21875 
L 18.3125 54.6875 
L 36.8125 54.6875 
L 36.8125 47.703125 
L 18.3125 47.703125 
L 18.3125 18.015625 
Q 18.3125 11.328125 20.140625 9.421875 
Q 21.96875 7.515625 27.59375 7.515625 
L 36.8125 7.515625 
L 36.8125 0 
L 27.59375 0 
Q 17.1875 0 13.234375 3.875 
Q 9.28125 7.765625 9.28125 18.015625 
L 9.28125 47.703125 
L 2.6875 47.703125 
L 2.6875 54.6875 
L 9.28125 54.6875 
L 9.28125 70.21875 
z
" id="DejaVuSans-116"/>
       <path d="M 45.515625 34.671875 
L 14.453125 34.671875 
Q 12.359375 20.0625 14.5 13.875 
Q 17.1875 6.25 24.46875 6.25 
Q 31.78125 6.25 37.359375 13.921875 
Q 42.234375 20.65625 45.515625 34.671875 
z
M 47.015625 42.96875 
Q 48.34375 56.84375 46.625 61.71875 
Q 43.953125 69.4375 36.765625 69.4375 
Q 29.296875 69.4375 23.828125 61.8125 
Q 19.53125 55.671875 16.15625 42.96875 
z
M 38.1875 76.765625 
Q 49.90625 76.765625 54.59375 66.40625 
Q 59.28125 56.109375 55.71875 37.84375 
Q 52.203125 19.625 43.453125 9.28125 
Q 34.765625 -1.125 23.046875 -1.125 
Q 11.28125 -1.125 6.640625 9.28125 
Q 2 19.625 5.515625 37.84375 
Q 9.078125 56.109375 17.71875 66.40625 
Q 26.421875 76.765625 38.1875 76.765625 
z
" id="DejaVuSans-Oblique-952"/>
       <path d="M 24.8125 -5.078125 
Q 18.5625 -15.578125 14.625 -18.1875 
Q 10.6875 -20.796875 4.59375 -20.796875 
L -2.484375 -20.796875 
L -0.984375 -13.28125 
L 4.203125 -13.28125 
Q 7.953125 -13.28125 10.59375 -11.234375 
Q 13.234375 -9.1875 16.5 -3.21875 
L 19.28125 2 
L 7.171875 54.6875 
L 16.703125 54.6875 
L 25.78125 12.796875 
L 50.875 54.6875 
L 60.296875 54.6875 
z
" id="DejaVuSans-Oblique-121"/>
      </defs>
      <use transform="translate(0 0.234375)" xlink:href="#DejaVuSans-82"/>
      <use transform="translate(69.482422 0.234375)" xlink:href="#DejaVuSans-111"/>
      <use transform="translate(130.664062 0.234375)" xlink:href="#DejaVuSans-100"/>
      <use transform="translate(194.140625 0.234375)" xlink:href="#DejaVuSans-114"/>
      <use transform="translate(235.253906 0.234375)" xlink:href="#DejaVuSans-105"/>
      <use transform="translate(263.037109 0.234375)" xlink:href="#DejaVuSans-103"/>
      <use transform="translate(326.513672 0.234375)" xlink:href="#DejaVuSans-117"/>
      <use transform="translate(389.892578 0.234375)" xlink:href="#DejaVuSans-101"/>
      <use transform="translate(451.416016 0.234375)" xlink:href="#DejaVuSans-122"/>
      <use transform="translate(503.90625 0.234375)" xlink:href="#DejaVuSans-32"/>
      <use transform="translate(535.693359 0.234375)" xlink:href="#DejaVuSans-80"/>
      <use transform="translate(595.996094 0.234375)" xlink:href="#DejaVuSans-97"/>
      <use transform="translate(657.275391 0.234375)" xlink:href="#DejaVuSans-114"/>
      <use transform="translate(698.388672 0.234375)" xlink:href="#DejaVuSans-97"/>
      <use transform="translate(759.667969 0.234375)" xlink:href="#DejaVuSans-109"/>
      <use transform="translate(857.080078 0.234375)" xlink:href="#DejaVuSans-101"/>
      <use transform="translate(918.603516 0.234375)" xlink:href="#DejaVuSans-116"/>
      <use transform="translate(957.8125 0.234375)" xlink:href="#DejaVuSans-101"/>
      <use transform="translate(1019.335938 0.234375)" xlink:href="#DejaVuSans-114"/>
      <use transform="translate(1060.449219 0.234375)" xlink:href="#DejaVuSans-32"/>
      <use transform="translate(1092.236328 0.234375)" xlink:href="#DejaVuSans-Oblique-952"/>
      <use transform="translate(1153.417969 -16.171875)scale(0.7)" xlink:href="#DejaVuSans-Oblique-121"/>
      <use transform="translate(1197.578125 0.234375)" xlink:href="#DejaVuSans-32"/>
      <use transform="translate(1229.365234 0.234375)" xlink:href="#DejaVuSans-40"/>
      <use transform="translate(1268.378906 0.234375)" xlink:href="#DejaVuSans-100"/>
      <use transform="translate(1331.855469 0.234375)" xlink:href="#DejaVuSans-101"/>
      <use transform="translate(1393.378906 0.234375)" xlink:href="#DejaVuSans-103"/>
      <use transform="translate(1456.855469 0.234375)" xlink:href="#DejaVuSans-114"/>
      <use transform="translate(1497.96875 0.234375)" xlink:href="#DejaVuSans-101"/>
      <use transform="translate(1559.492188 0.234375)" xlink:href="#DejaVuSans-101"/>
      <use transform="translate(1621.015625 0.234375)" xlink:href="#DejaVuSans-41"/>
     </g>
    </g>
   </g>
   <g id="line2d_11">
    <path clip-path="url(#pe09a640f4b)" d="M 42.933593 106.690075 
L 43.769201 106.799035 
L 44.714225 107.131225 
L 45.964439 107.975728 
L 47.35407 109.28883 
L 48.29946 110.521929 
L 50.283723 113.768422 
L 52.002842 116.890892 
L 53.359179 119.929189 
L 55.724961 125.771284 
L 59.311799 134.753092 
L 66.874908 150.933283 
L 68.065988 152.649146 
L 69.164887 153.926853 
L 69.946112 154.597404 
L 70.798668 155.034022 
L 71.734492 155.234767 
L 72.808126 155.286804 
L 73.608971 155.138699 
L 74.318158 154.738452 
L 75.069464 154.046793 
L 76.139204 152.683224 
L 77.549379 150.516405 
L 78.973551 147.872855 
L 80.703002 144.686293 
L 84.645563 137.984809 
L 86.487225 134.553346 
L 92.417502 122.138195 
L 95.161274 115.613829 
L 96.823655 111.74072 
L 97.864596 109.819507 
L 99.187716 107.877836 
L 100.4216 106.454251 
L 101.51607 105.547993 
L 103.348138 104.442808 
L 104.572231 103.85878 
L 105.489695 103.690136 
L 106.383683 103.830724 
L 107.375278 104.29678 
L 108.380727 105.068076 
L 109.21474 105.984623 
L 110.117907 107.296153 
L 111.403153 109.632738 
L 112.602239 112.238727 
L 113.717955 115.205418 
L 114.89276 119.045843 
L 116.225312 124.138551 
L 118.16361 132.473997 
L 120.691538 143.399511 
L 122.512365 150.147543 
L 124.035708 155.017137 
L 125.231116 158.219486 
L 126.520715 161.044998 
L 127.616241 162.918521 
L 128.420005 163.935094 
L 129.263864 164.662037 
L 130.201527 165.130242 
L 131.210703 165.374907 
L 132.622597 165.438758 
L 133.70573 165.264609 
L 134.819884 164.815442 
L 135.515392 164.337373 
L 136.294721 163.532962 
L 137.045435 162.396503 
L 137.794137 160.834148 
L 138.515294 158.894705 
L 139.662784 154.975634 
L 140.94118 149.602732 
L 142.654693 141.243393 
L 149.878241 104.550775 
L 151.193054 99.532276 
L 152.367299 95.915739 
L 153.669023 92.752339 
L 155.178229 89.809656 
L 156.798757 87.191602 
L 157.888526 85.788835 
L 158.779142 84.919285 
L 159.78144 84.289328 
L 160.736119 84.052298 
L 161.639646 84.121394 
L 162.857375 84.521101 
L 164.259892 85.222384 
L 165.139948 85.826165 
L 166.100536 86.7844 
L 166.723894 87.663272 
L 167.65458 89.492559 
L 168.52302 91.884034 
L 169.395694 95.038144 
L 170.513894 100.159289 
L 171.8693 107.631765 
L 174.355224 122.920554 
L 177.83858 145.583683 
L 181.251588 168.07285 
L 182.633475 175.757126 
L 184.22577 183.379158 
L 185.891096 190.331732 
L 187.548526 196.370216 
L 188.635867 199.603492 
L 189.525335 201.587203 
L 190.123471 202.509014 
L 190.695782 203.053616 
L 191.281886 203.270325 
L 191.791616 203.196894 
L 192.291753 202.92027 
L 193.023092 202.238178 
L 194.160239 200.800233 
L 195.751483 198.440875 
L 196.87751 196.336876 
L 197.70493 194.308807 
L 198.48791 191.843566 
L 199.331569 188.433953 
L 200.32491 183.234532 
L 201.378267 176.301757 
L 203.532182 159.814152 
L 205.156609 148.436723 
L 207.225353 135.882712 
L 208.735918 126.193756 
L 209.969391 116.83392 
L 213.255771 90.73663 
L 214.802657 80.805593 
L 218.687488 56.987358 
L 220.060609 48.690315 
L 220.92676 44.625835 
L 221.620415 42.205173 
L 222.227133 40.724016 
L 222.80141 39.890962 
L 223.180574 39.654204 
L 223.512366 39.652119 
L 223.870293 39.856235 
L 224.355265 40.437714 
L 225.114687 41.840698 
L 226.486817 44.462966 
L 227.026017 45.059592 
L 227.538985 45.274488 
L 227.871308 45.217729 
L 228.38651 44.822227 
L 228.95631 43.961033 
L 229.539495 42.658784 
L 230.595621 39.565218 
L 231.655105 36.588549 
L 232.201081 35.64214 
L 232.54042 35.378397 
L 232.861974 35.394253 
L 233.25347 35.784346 
L 233.692343 36.712719 
L 234.156713 38.248343 
L 234.851972 41.557172 
L 235.666102 46.84567 
L 236.742236 55.700822 
L 239.953534 83.556524 
L 241.433053 96.928677 
L 242.80935 111.681307 
L 246.462061 152.666526 
L 247.41904 159.776363 
L 248.461835 165.827957 
L 252.124305 185.698861 
L 254.07713 197.192007 
L 254.811219 200.344964 
L 255.460111 202.345676 
L 256.220513 204.020965 
L 257.91104 207.456324 
L 259.26882 211.04187 
L 261.981404 218.44915 
L 262.491692 219.1237 
L 262.87642 219.190538 
L 263.054865 219.069218 
L 263.47435 218.372552 
L 263.858314 217.226027 
L 264.523028 214.22336 
L 265.709349 207.121505 
L 267.054066 199.445936 
L 271.181308 177.701743 
L 272.041132 171.642003 
L 272.875142 164.128004 
L 275.587509 137.395277 
L 276.539229 131.141998 
L 277.920261 123.794662 
L 279.466487 115.516686 
L 280.227555 110.160384 
L 281.223095 101.413318 
L 282.983209 85.766856 
L 283.755939 80.73498 
L 284.430836 77.508778 
L 285.000601 75.631892 
L 285.467045 74.706866 
L 285.744748 74.440672 
L 286.065751 74.417219 
L 286.376073 74.694748 
L 286.706154 75.313704 
L 287.218019 76.881844 
L 287.986589 80.239773 
L 289.462434 86.985181 
L 290.059149 88.790806 
L 290.42726 89.447105 
L 290.684796 89.663025 
L 290.94163 89.660078 
L 291.260126 89.331689 
L 291.590864 88.584754 
L 291.949186 87.281564 
L 292.492644 84.278779 
L 293.055079 79.854172 
L 293.818925 71.969496 
L 295.677015 51.552248 
L 296.288225 47.598389 
L 296.601094 46.49028 
L 296.886617 46.060057 
L 297.034306 46.058786 
L 297.304227 46.448083 
L 297.58718 47.397077 
L 297.929846 49.272417 
L 298.440965 53.453125 
L 299.150065 61.461654 
L 301.077945 84.688509 
L 301.619059 88.489395 
L 302.033255 90.253463 
L 302.453221 91.178304 
L 302.776876 91.442445 
L 303.08442 91.445746 
L 303.687815 91.12343 
L 304.143949 90.938166 
L 304.505514 91.051539 
L 304.826479 91.470758 
L 305.208719 92.492282 
L 305.621155 94.382559 
L 306.048713 97.363563 
L 306.613937 103.089125 
L 307.310246 112.946402 
L 308.474416 133.790536 
L 309.433275 149.15138 
L 310.055351 155.632308 
L 310.540106 158.515092 
L 310.978531 159.810993 
L 311.382802 160.277564 
L 311.810748 160.359781 
L 312.878866 160.301674 
L 313.169923 160.535764 
L 313.446842 161.008781 
L 313.854469 162.356215 
L 314.260938 164.734461 
L 314.664478 168.319623 
L 315.262807 175.939623 
L 316.176428 191.444958 
L 317.401114 211.833056 
L 318.088214 219.663216 
L 318.570546 223.161085 
L 319.013417 225.047362 
L 319.381119 225.860014 
L 319.761179 226.197469 
L 320.098999 226.170963 
L 320.359777 225.941002 
L 320.642107 225.43152 
L 320.994199 224.283609 
L 321.430015 221.834804 
L 321.91266 217.663096 
L 323.810948 199.104426 
L 324.15364 198.094494 
L 324.318974 198.024492 
L 324.498546 198.252489 
L 324.746656 199.053972 
L 325.121021 201.146298 
L 325.929815 207.415936 
L 326.767174 213.235471 
L 327.441612 216.345319 
L 328.769807 221.589563 
L 329.782541 226.346524 
L 330.030033 226.671452 
L 330.220039 226.493477 
L 330.46388 225.667168 
L 330.810975 223.334716 
L 331.25825 218.573187 
L 331.974181 208.169519 
L 333.165329 190.785435 
L 333.906426 183.441204 
L 335.182834 171.852245 
L 336.066053 160.732648 
L 336.972267 149.943618 
L 337.471743 146.348166 
L 337.865343 144.753067 
L 338.398102 143.576348 
L 338.965671 142.373102 
L 339.325228 141.032296 
L 339.707578 138.799044 
L 340.355049 133.363253 
L 341.806854 120.730811 
L 343.195119 110.060014 
L 344.426457 97.478951 
L 345.267477 90.208264 
L 345.922496 86.387119 
L 346.625622 83.717554 
L 347.369129 80.974603 
L 347.941324 77.826837 
L 348.602144 72.688206 
L 351.564696 46.695816 
L 352.186866 43.524715 
L 352.775045 41.614496 
L 353.231953 40.763588 
L 353.647172 40.369121 
L 354.128709 40.225425 
L 354.484416 40.337886 
L 354.782283 40.659716 
L 355.088423 41.31338 
L 355.468442 42.701757 
L 355.968441 45.539534 
L 356.943608 52.92352 
L 357.655103 57.377838 
L 358.163168 59.216385 
L 358.553169 59.900046 
L 358.853617 60.068112 
L 359.176099 59.997541 
L 359.830112 59.755546 
L 360.091103 59.898833 
L 360.450116 60.429341 
L 361.418859 62.182236 
L 361.653449 62.230182 
L 361.901011 62.006328 
L 362.178124 61.385469 
L 362.524502 60.031411 
L 363.0934 56.6707 
L 363.77525 52.809231 
L 364.066137 52.036613 
L 364.238761 51.931934 
L 364.403435 52.083972 
L 364.65795 52.784253 
L 365.059978 54.930963 
L 365.616704 59.645497 
L 369.880585 101.643676 
L 370.241473 103.108701 
L 370.43784 103.406214 
L 370.637267 103.358653 
L 370.920859 102.763662 
L 371.471033 100.634236 
L 371.996533 98.97774 
L 372.308118 98.686881 
L 372.484665 98.799107 
L 372.683859 99.175398 
L 373.064328 100.61097 
L 373.545858 103.496993 
L 374.410264 110.130586 
L 375.081345 117.088528 
L 375.694327 125.991169 
L 376.56679 143.041087 
L 377.507803 160.309392 
L 378.036491 166.436457 
L 378.506795 169.594404 
L 378.935604 171.062124 
L 379.80863 173.30841 
L 380.445073 176.139729 
L 381.443684 180.514394 
L 382.348552 183.301921 
L 382.795648 185.103013 
L 383.212985 187.859425 
L 383.655477 192.268039 
L 384.293093 200.941445 
L 385.335916 215.258101 
L 385.765676 218.428504 
L 386.088044 219.494629 
L 386.299123 219.693204 
L 386.45685 219.633712 
L 386.694183 219.272086 
L 387.128392 218.034741 
L 387.888577 215.829036 
L 388.284653 215.350592 
L 388.792045 214.91012 
L 389.058931 214.300644 
L 389.332071 213.123036 
L 389.704681 210.368775 
L 390.196674 204.706111 
L 391.715082 185.464635 
L 392.00632 184.087874 
L 392.204563 183.902392 
L 392.33123 184.124926 
L 392.57445 185.295168 
L 392.955243 188.808574 
L 394.050704 200.069572 
L 394.423741 201.630891 
L 394.766042 202.283084 
L 395.107978 202.498589 
L 395.380293 202.385727 
L 395.734666 201.904808 
L 396.090007 201.491728 
L 396.265227 201.568055 
L 396.462749 202.031288 
L 396.718279 203.294523 
L 397.32815 208.062635 
L 397.728615 210.306669 
L 397.918593 210.643383 
L 398.030383 210.582941 
L 398.20707 210.072137 
L 398.426273 208.676358 
L 398.760573 204.696133 
L 399.150215 196.960172 
L 400.617 164.006537 
L 400.988794 160.431217 
L 401.238105 159.697034 
L 401.336652 159.781486 
L 401.543517 160.465151 
L 402.045877 162.300866 
L 402.158441 162.2977 
L 402.32928 161.911449 
L 402.588664 160.622564 
L 403.001564 157.392266 
L 403.419924 152.20224 
L 404.346989 139.430806 
L 404.884945 136.279277 
L 405.400739 134.096601 
L 405.93075 132.535667 
L 406.202575 130.144601 
L 406.619593 123.819838 
L 407.135161 112.696809 
L 408.318819 84.524597 
L 408.770249 79.24742 
L 409.040679 78.078432 
L 409.143271 78.057864 
L 409.309883 78.374901 
L 409.953383 79.925204 
L 410.156771 79.915915 
L 410.382764 79.594777 
L 410.624925 78.763503 
L 410.906401 76.864941 
L 411.31238 72.251161 
L 411.905297 65.789433 
L 412.181273 64.7517 
L 412.300285 64.724778 
L 412.427811 64.960632 
L 412.638056 65.957694 
L 412.989054 69.218966 
L 413.719556 76.385784 
L 413.978064 77.27239 
L 414.068224 77.261367 
L 414.203117 76.8311 
L 414.382674 75.335881 
L 414.682964 70.352046 
L 416.21919 39.078086 
L 416.610587 36.297959 
L 416.929549 35.394799 
L 417.208297 35.169976 
L 417.404464 35.286034 
L 417.593469 35.714195 
L 418.367487 38.203524 
L 418.421426 38.16019 
L 418.594349 37.752671 
L 418.882368 36.342089 
L 420.136207 29.081997 
L 420.340816 28.901283 
L 420.474504 29.075811 
L 420.691954 29.908686 
L 421.029501 32.393473 
L 421.526118 37.964498 
L 422.099516 43.94798 
L 422.321336 44.549047 
L 422.361999 44.530012 
L 422.361999 44.530012 
" style="fill:none;stroke:#e36f47;"/>
   </g>
   <g id="patch_3">
    <path d="M 42.933593 258.225354 
L 42.933593 2.834646 
" style="fill:none;stroke:#000000;stroke-linecap:square;stroke-linejoin:miter;"/>
   </g>
   <g id="patch_4">
    <path d="M 42.933593 258.225354 
L 422.361999 258.225354 
" style="fill:none;stroke:#000000;stroke-linecap:square;stroke-linejoin:miter;"/>
   </g>
   <g id="legend_1">
    <g id="patch_5">
     <path d="M 299.041999 39.119646 
L 418.361999 39.119646 
L 418.361999 6.834646 
L 299.041999 6.834646 
z
" style="fill:#ffffff;stroke:#000000;stroke-linejoin:miter;"/>
    </g>
    <g id="line2d_12">
     <path d="M 305.441999 16.513396 
L 321.441999 16.513396 
" style="fill:none;stroke:#009afa;stroke-linejoin:miter;"/>
    </g>
    <g id="line2d_13"/>
    <g id="text_12">
     <!-- GXBeam -->
     <g transform="translate(327.841999 19.313396)scale(0.08 -0.08)">
      <defs>
       <path d="M 59.515625 10.40625 
L 59.515625 29.984375 
L 43.40625 29.984375 
L 43.40625 38.09375 
L 69.28125 38.09375 
L 69.28125 6.78125 
Q 63.578125 2.734375 56.6875 0.65625 
Q 49.8125 -1.421875 42 -1.421875 
Q 24.90625 -1.421875 15.25 8.5625 
Q 5.609375 18.5625 5.609375 36.375 
Q 5.609375 54.25 15.25 64.234375 
Q 24.90625 74.21875 42 74.21875 
Q 49.125 74.21875 55.546875 72.453125 
Q 61.96875 70.703125 67.390625 67.28125 
L 67.390625 56.78125 
Q 61.921875 61.421875 55.765625 63.765625 
Q 49.609375 66.109375 42.828125 66.109375 
Q 29.4375 66.109375 22.71875 58.640625 
Q 16.015625 51.171875 16.015625 36.375 
Q 16.015625 21.625 22.71875 14.15625 
Q 29.4375 6.6875 42.828125 6.6875 
Q 48.046875 6.6875 52.140625 7.59375 
Q 56.25 8.5 59.515625 10.40625 
z
" id="DejaVuSans-71"/>
       <path d="M 6.296875 72.90625 
L 16.890625 72.90625 
L 35.015625 45.796875 
L 53.21875 72.90625 
L 63.8125 72.90625 
L 40.375 37.890625 
L 65.375 0 
L 54.78125 0 
L 34.28125 31 
L 13.625 0 
L 2.984375 0 
L 29 38.921875 
z
" id="DejaVuSans-88"/>
       <path d="M 19.671875 34.8125 
L 19.671875 8.109375 
L 35.5 8.109375 
Q 43.453125 8.109375 47.28125 11.40625 
Q 51.125 14.703125 51.125 21.484375 
Q 51.125 28.328125 47.28125 31.5625 
Q 43.453125 34.8125 35.5 34.8125 
z
M 19.671875 64.796875 
L 19.671875 42.828125 
L 34.28125 42.828125 
Q 41.5 42.828125 45.03125 45.53125 
Q 48.578125 48.25 48.578125 53.8125 
Q 48.578125 59.328125 45.03125 62.0625 
Q 41.5 64.796875 34.28125 64.796875 
z
M 9.8125 72.90625 
L 35.015625 72.90625 
Q 46.296875 72.90625 52.390625 68.21875 
Q 58.5 63.53125 58.5 54.890625 
Q 58.5 48.1875 55.375 44.234375 
Q 52.25 40.28125 46.1875 39.3125 
Q 53.46875 37.75 57.5 32.78125 
Q 61.53125 27.828125 61.53125 20.40625 
Q 61.53125 10.640625 54.890625 5.3125 
Q 48.25 0 35.984375 0 
L 9.8125 0 
z
" id="DejaVuSans-66"/>
      </defs>
      <use xlink:href="#DejaVuSans-71"/>
      <use x="77.490234" xlink:href="#DejaVuSans-88"/>
      <use x="145.996094" xlink:href="#DejaVuSans-66"/>
      <use x="214.599609" xlink:href="#DejaVuSans-101"/>
      <use x="276.123047" xlink:href="#DejaVuSans-97"/>
      <use x="337.402344" xlink:href="#DejaVuSans-109"/>
     </g>
    </g>
    <g id="line2d_14">
     <path d="M 305.441999 28.255896 
L 321.441999 28.255896 
" style="fill:none;stroke:#e36f47;stroke-linejoin:miter;"/>
    </g>
    <g id="line2d_15"/>
    <g id="text_13">
     <!-- DifferentialEquations -->
     <g transform="translate(327.841999 31.055896)scale(0.08 -0.08)">
      <defs>
       <path d="M 19.671875 64.796875 
L 19.671875 8.109375 
L 31.59375 8.109375 
Q 46.6875 8.109375 53.6875 14.9375 
Q 60.6875 21.78125 60.6875 36.53125 
Q 60.6875 51.171875 53.6875 57.984375 
Q 46.6875 64.796875 31.59375 64.796875 
z
M 9.8125 72.90625 
L 30.078125 72.90625 
Q 51.265625 72.90625 61.171875 64.09375 
Q 71.09375 55.28125 71.09375 36.53125 
Q 71.09375 17.671875 61.125 8.828125 
Q 51.171875 0 30.078125 0 
L 9.8125 0 
z
" id="DejaVuSans-68"/>
       <path d="M 37.109375 75.984375 
L 37.109375 68.5 
L 28.515625 68.5 
Q 23.6875 68.5 21.796875 66.546875 
Q 19.921875 64.59375 19.921875 59.515625 
L 19.921875 54.6875 
L 34.71875 54.6875 
L 34.71875 47.703125 
L 19.921875 47.703125 
L 19.921875 0 
L 10.890625 0 
L 10.890625 47.703125 
L 2.296875 47.703125 
L 2.296875 54.6875 
L 10.890625 54.6875 
L 10.890625 58.5 
Q 10.890625 67.625 15.140625 71.796875 
Q 19.390625 75.984375 28.609375 75.984375 
z
" id="DejaVuSans-102"/>
       <path d="M 54.890625 33.015625 
L 54.890625 0 
L 45.90625 0 
L 45.90625 32.71875 
Q 45.90625 40.484375 42.875 44.328125 
Q 39.84375 48.1875 33.796875 48.1875 
Q 26.515625 48.1875 22.3125 43.546875 
Q 18.109375 38.921875 18.109375 30.90625 
L 18.109375 0 
L 9.078125 0 
L 9.078125 54.6875 
L 18.109375 54.6875 
L 18.109375 46.1875 
Q 21.34375 51.125 25.703125 53.5625 
Q 30.078125 56 35.796875 56 
Q 45.21875 56 50.046875 50.171875 
Q 54.890625 44.34375 54.890625 33.015625 
z
" id="DejaVuSans-110"/>
       <path d="M 9.421875 75.984375 
L 18.40625 75.984375 
L 18.40625 0 
L 9.421875 0 
z
" id="DejaVuSans-108"/>
       <path d="M 9.8125 72.90625 
L 55.90625 72.90625 
L 55.90625 64.59375 
L 19.671875 64.59375 
L 19.671875 43.015625 
L 54.390625 43.015625 
L 54.390625 34.71875 
L 19.671875 34.71875 
L 19.671875 8.296875 
L 56.78125 8.296875 
L 56.78125 0 
L 9.8125 0 
z
" id="DejaVuSans-69"/>
       <path d="M 14.796875 27.296875 
Q 14.796875 17.390625 18.875 11.75 
Q 22.953125 6.109375 30.078125 6.109375 
Q 37.203125 6.109375 41.296875 11.75 
Q 45.40625 17.390625 45.40625 27.296875 
Q 45.40625 37.203125 41.296875 42.84375 
Q 37.203125 48.484375 30.078125 48.484375 
Q 22.953125 48.484375 18.875 42.84375 
Q 14.796875 37.203125 14.796875 27.296875 
z
M 45.40625 8.203125 
Q 42.578125 3.328125 38.25 0.953125 
Q 33.9375 -1.421875 27.875 -1.421875 
Q 17.96875 -1.421875 11.734375 6.484375 
Q 5.515625 14.40625 5.515625 27.296875 
Q 5.515625 40.1875 11.734375 48.09375 
Q 17.96875 56 27.875 56 
Q 33.9375 56 38.25 53.625 
Q 42.578125 51.265625 45.40625 46.390625 
L 45.40625 54.6875 
L 54.390625 54.6875 
L 54.390625 -20.796875 
L 45.40625 -20.796875 
z
" id="DejaVuSans-113"/>
      </defs>
      <use xlink:href="#DejaVuSans-68"/>
      <use x="77.001953" xlink:href="#DejaVuSans-105"/>
      <use x="104.785156" xlink:href="#DejaVuSans-102"/>
      <use x="139.990234" xlink:href="#DejaVuSans-102"/>
      <use x="175.195312" xlink:href="#DejaVuSans-101"/>
      <use x="236.71875" xlink:href="#DejaVuSans-114"/>
      <use x="275.582031" xlink:href="#DejaVuSans-101"/>
      <use x="337.105469" xlink:href="#DejaVuSans-110"/>
      <use x="400.484375" xlink:href="#DejaVuSans-116"/>
      <use x="439.693359" xlink:href="#DejaVuSans-105"/>
      <use x="467.476562" xlink:href="#DejaVuSans-97"/>
      <use x="528.755859" xlink:href="#DejaVuSans-108"/>
      <use x="556.539062" xlink:href="#DejaVuSans-69"/>
      <use x="619.722656" xlink:href="#DejaVuSans-113"/>
      <use x="683.199219" xlink:href="#DejaVuSans-117"/>
      <use x="746.578125" xlink:href="#DejaVuSans-97"/>
      <use x="807.857422" xlink:href="#DejaVuSans-116"/>
      <use x="847.066406" xlink:href="#DejaVuSans-105"/>
      <use x="874.849609" xlink:href="#DejaVuSans-111"/>
      <use x="936.03125" xlink:href="#DejaVuSans-110"/>
      <use x="999.410156" xlink:href="#DejaVuSans-115"/>
     </g>
    </g>
   </g>
  </g>
 </g>
 <defs>
  <clipPath id="pe09a640f4b">
   <rect height="255.390709" width="379.428407" x="42.933593" y="2.834646"/>
  </clipPath>
 </defs>
</svg>
