<?xml version="1.0" encoding="utf-8" standalone="no"?>
<!DOCTYPE svg PUBLIC "-//W3C//DTD SVG 1.1//EN"
  "http://www.w3.org/Graphics/SVG/1.1/DTD/svg11.dtd">
<!-- Created with matplotlib (https://matplotlib.org/) -->
<svg height="288pt" version="1.1" viewBox="0 0 432 288" width="432pt" xmlns="http://www.w3.org/2000/svg" xmlns:xlink="http://www.w3.org/1999/xlink">
 <metadata>
  <rdf:RDF xmlns:cc="http://creativecommons.org/ns#" xmlns:dc="http://purl.org/dc/elements/1.1/" xmlns:rdf="http://www.w3.org/1999/02/22-rdf-syntax-ns#">
   <cc:Work>
    <dc:type rdf:resource="http://purl.org/dc/dcmitype/StillImage"/>
    <dc:date>2021-04-27T19:05:20.821230</dc:date>
    <dc:format>image/svg+xml</dc:format>
    <dc:creator>
     <cc:Agent>
      <dc:title>Matplotlib v3.3.4, https://matplotlib.org/</dc:title>
     </cc:Agent>
    </dc:creator>
   </cc:Work>
  </rdf:RDF>
 </metadata>
 <defs>
  <style type="text/css">*{stroke-linecap:butt;stroke-linejoin:round;}</style>
 </defs>
 <g id="figure_1">
  <g id="patch_1">
   <path d="M 0 288 
L 432 288 
L 432 0 
L 0 0 
z
" style="fill:#ffffff;"/>
  </g>
  <g id="axes_1">
   <g id="patch_2">
    <path d="M 50.566553 258.225354 
L 422.361999 258.225354 
L 422.361999 2.834646 
L 50.566553 2.834646 
z
" style="fill:#ffffff;"/>
   </g>
   <g id="line2d_1">
    <path clip-path="url(#p7201540630)" d="M 50.566553 102.424109 
L 58.374257 102.318808 
L 61.162723 102.053018 
L 63.393496 101.606475 
L 65.624268 100.90902 
L 68.040939 99.929202 
L 70.271712 98.767756 
L 72.316587 97.465298 
L 77.335825 94.098684 
L 79.194802 93.166231 
L 80.681984 92.640374 
L 81.983268 92.388055 
L 83.47045 92.335163 
L 85.329427 92.510847 
L 87.374302 92.917938 
L 89.419177 93.550525 
L 91.464052 94.44855 
L 94.06662 95.869174 
L 97.226881 97.551394 
L 98.714063 98.084113 
L 100.015347 98.319413 
L 101.316631 98.33266 
L 103.361506 98.057409 
L 105.220484 97.882847 
L 106.521768 97.969927 
L 107.637154 98.265039 
L 108.75254 98.788357 
L 109.867927 99.548241 
L 110.983313 100.561018 
L 112.284597 102.054951 
L 113.957676 104.373137 
L 116.002551 107.615443 
L 119.906404 113.854586 
L 121.02179 115.20287 
L 121.951279 115.99419 
L 122.694869 116.3541 
L 123.43846 116.420834 
L 123.996154 116.260801 
L 124.553847 115.910118 
L 125.297438 115.145893 
L 126.041029 114.040522 
L 126.970517 112.172105 
L 127.900006 109.789955 
L 129.20129 105.723475 
L 131.060267 99.00791 
L 133.662835 89.635866 
L 135.150017 85.13264 
L 136.451301 81.88343 
L 137.566687 79.6186 
L 138.682074 77.783275 
L 139.79746 76.325207 
L 140.726949 75.418447 
L 141.656437 74.831429 
L 142.400028 74.616481 
L 143.143619 74.652055 
L 143.88721 74.946063 
L 144.630801 75.521979 
L 145.374392 76.376229 
L 146.30388 77.800055 
L 147.605164 80.28746 
L 151.509017 88.20302 
L 152.438505 89.459743 
L 153.182096 90.152489 
L 153.925687 90.549041 
L 154.669278 90.66467 
L 155.412869 90.548629 
L 156.342357 90.158174 
L 158.201335 89.031832 
L 159.502619 88.357117 
L 160.803903 87.944611 
L 161.919289 87.809105 
L 163.034675 87.883486 
L 164.150062 88.166922 
L 165.265448 88.653695 
L 166.194937 89.268449 
L 167.124425 90.135689 
L 168.053914 91.315564 
L 168.983403 92.859463 
L 169.912891 94.823882 
L 171.028278 97.765467 
L 172.515459 102.463505 
L 175.675721 112.779566 
L 176.791107 115.609911 
L 177.720596 117.445435 
L 178.650084 118.795235 
L 179.393675 119.505123 
L 180.137266 119.865373 
L 180.694959 119.901409 
L 181.252652 119.718819 
L 181.810345 119.303384 
L 182.368039 118.627618 
L 182.925732 117.667809 
L 183.669323 115.897552 
L 184.412914 113.538117 
L 185.342402 109.744963 
L 186.271891 105.012287 
L 187.387277 98.151004 
L 189.060357 86.116811 
L 191.477027 68.646246 
L 192.778311 60.875197 
L 193.893697 55.493014 
L 195.009084 51.192967 
L 196.12447 47.772603 
L 197.239856 45.023096 
L 198.541141 42.368493 
L 199.842425 40.175469 
L 200.586015 39.301818 
L 201.143709 38.963137 
L 201.515504 38.930503 
L 201.8873 39.072054 
L 202.259095 39.40457 
L 202.816788 40.275973 
L 203.374481 41.608371 
L 204.118072 44.078357 
L 205.047561 48.165805 
L 206.348845 55.150675 
L 208.765515 68.291142 
L 214.90014 98.968236 
L 215.643731 101.271653 
L 216.201424 102.458287 
L 216.759117 103.17428 
L 217.130913 103.396512 
L 217.502708 103.424403 
L 217.874504 103.265933 
L 218.432197 102.701515 
L 218.98989 101.771583 
L 219.733481 100.042033 
L 220.848867 96.709436 
L 222.893742 90.425445 
L 223.637333 88.819866 
L 224.195026 88.005837 
L 224.75272 87.543268 
L 225.310413 87.397899 
L 225.868106 87.503524 
L 226.797594 87.991774 
L 227.912981 88.587048 
L 228.656572 88.746918 
L 229.214265 88.677472 
L 229.957856 88.320719 
L 232.560424 86.681983 
L 233.118117 86.682435 
L 233.67581 86.876981 
L 234.419401 87.43648 
L 235.162992 88.366119 
L 235.906583 89.708097 
L 236.836072 91.983256 
L 237.951458 95.504138 
L 241.111719 106.508774 
L 241.669412 107.610124 
L 242.227105 108.311104 
L 242.784799 108.679645 
L 243.342492 108.801155 
L 244.086083 108.700154 
L 245.015571 108.299138 
L 246.502753 107.404435 
L 247.060446 106.871027 
L 247.618139 106.008126 
L 248.175833 104.66506 
L 248.733526 102.743412 
L 249.477117 99.297485 
L 250.406605 93.756388 
L 251.521992 85.661447 
L 253.938662 67.354799 
L 254.868151 62.068987 
L 255.797639 57.850436 
L 256.727128 54.499872 
L 257.656617 51.892132 
L 259.143798 47.941585 
L 259.887389 45.132047 
L 260.816878 40.561644 
L 262.861753 30.087344 
L 263.605344 27.342511 
L 264.348935 25.440319 
L 264.906628 24.617299 
L 265.278423 24.379101 
L 265.650219 24.41276 
L 266.022014 24.730265 
L 266.393809 25.346698 
L 266.951503 26.813351 
L 267.695094 29.578994 
L 270.297662 40.092979 
L 271.970741 45.357372 
L 273.086128 48.949122 
L 273.829718 52.076016 
L 274.573309 56.227819 
L 275.3169 61.53501 
L 276.246389 69.715179 
L 277.547673 83.374526 
L 279.964343 109.280402 
L 280.893832 116.745571 
L 281.637423 121.128128 
L 282.195116 123.373996 
L 282.752809 124.639569 
L 283.124605 124.897891 
L 283.4964 124.685208 
L 283.868195 124.020554 
L 284.425889 122.241843 
L 285.16948 118.738169 
L 286.842559 108.955707 
L 287.957945 103.079167 
L 288.701536 100.041953 
L 289.259229 98.396 
L 289.816923 97.376508 
L 290.188718 97.050709 
L 290.560514 96.9832 
L 290.932309 97.134141 
L 292.605388 98.213026 
L 292.977184 97.971009 
L 293.348979 97.366334 
L 293.720775 96.352995 
L 294.278468 93.999141 
L 295.022059 89.386871 
L 296.137445 80.432259 
L 297.252832 71.746647 
L 297.996422 67.625704 
L 298.554116 65.84391 
L 298.925911 65.33875 
L 299.111809 65.291743 
L 299.297706 65.377191 
L 299.669502 65.920871 
L 300.041297 66.907179 
L 300.784888 69.800995 
L 302.086172 75.108685 
L 302.643866 76.416558 
L 303.015661 76.793687 
L 303.387456 76.790022 
L 303.759252 76.457097 
L 304.316945 75.523339 
L 305.432331 73.488818 
L 305.804127 73.252038 
L 305.990025 73.289752 
L 306.36182 73.721505 
L 306.733615 74.650389 
L 307.291309 76.924895 
L 308.034899 81.183144 
L 309.522081 91.591484 
L 312.496445 112.976241 
L 313.240036 116.620078 
L 313.983627 119.126353 
L 314.54132 120.276871 
L 314.913115 120.685727 
L 315.284911 120.791963 
L 315.656706 120.583259 
L 316.028502 120.052787 
L 316.586195 118.722485 
L 317.515683 115.593246 
L 318.445172 112.6462 
L 319.002865 111.581205 
L 319.374661 111.216006 
L 319.746456 111.083383 
L 320.304149 111.156815 
L 321.233638 111.353873 
L 321.791331 111.168295 
L 322.349024 110.671141 
L 322.906717 109.839787 
L 323.464411 108.552357 
L 324.022104 106.573133 
L 324.579797 103.692982 
L 325.323388 98.514947 
L 326.996467 86.169536 
L 327.740058 82.383466 
L 328.483649 79.527558 
L 329.413138 76.896371 
L 330.156729 74.624521 
L 330.900319 71.395223 
L 332.573399 63.207145 
L 333.131092 61.613553 
L 333.502888 61.057358 
L 333.874683 60.871411 
L 334.246478 60.97445 
L 334.804172 61.487 
L 335.547763 62.605722 
L 336.849047 64.660087 
L 337.40674 65.084008 
L 337.964433 65.209046 
L 338.522126 65.06929 
L 339.82341 64.510656 
L 340.195206 64.564637 
L 340.567001 64.789138 
L 340.938796 65.288738 
L 341.310592 66.21454 
L 341.682387 67.68504 
L 342.240081 71.037398 
L 342.983671 77.255206 
L 345.214444 97.250179 
L 347.073421 112.647913 
L 348.00291 119.675157 
L 348.746501 123.942131 
L 349.490092 126.838434 
L 350.047785 128.180706 
L 350.605478 128.993504 
L 350.977274 129.203225 
L 351.349069 129.067626 
L 351.720864 128.53874 
L 352.278558 127.139251 
L 353.393944 124.055772 
L 353.765739 123.67696 
L 353.951637 123.743592 
L 354.137535 124.007783 
L 354.50933 125.149798 
L 355.067023 128.097786 
L 356.18241 134.676848 
L 356.740103 136.818479 
L 357.111898 137.699628 
L 357.483694 138.094977 
L 357.669592 138.085929 
L 357.855489 137.930517 
L 358.227285 137.174512 
L 358.784978 135.036789 
L 359.528569 130.854647 
L 360.27216 125.211933 
L 361.759341 112.905224 
L 362.317035 110.044204 
L 362.68883 109.160783 
L 362.874728 109.032937 
L 363.060626 109.088186 
L 363.432421 109.632797 
L 364.733705 112.348234 
L 365.1055 112.465907 
L 365.477296 112.188104 
L 366.77858 110.747399 
L 367.336273 110.04674 
L 367.893966 108.853112 
L 368.45166 106.93428 
L 369.009353 104.045106 
L 372.913205 80.341642 
L 373.842693 75.82826 
L 374.214489 74.865852 
L 374.586284 74.57459 
L 374.95808 74.853426 
L 375.515773 75.844121 
L 376.259364 77.573512 
L 377.002955 79.968298 
L 377.746546 83.263584 
L 380.163216 95.333589 
L 381.092705 98.321654 
L 381.836296 100.014773 
L 382.579886 101.08233 
L 383.13758 101.526156 
L 384.067068 102.097158 
L 384.438864 102.547111 
L 384.810659 103.428167 
L 385.182455 104.919994 
L 385.926045 109.193364 
L 388.156818 122.026833 
L 390.015795 130.217991 
L 390.387591 130.855778 
L 390.759386 131.134428 
L 391.131182 131.071359 
L 391.502977 130.660394 
L 392.618364 128.973849 
L 393.176057 128.76974 
L 394.291443 128.501934 
L 395.035034 128.149248 
L 395.778625 127.337637 
L 398.009397 124.497769 
L 398.381193 123.491705 
L 398.752988 121.858282 
L 399.310682 118.248127 
L 400.054272 111.563507 
L 401.91325 91.105074 
L 404.887613 58.137389 
L 405.631204 53.671419 
L 407.861977 41.025088 
L 408.977363 34.639361 
L 409.906852 29.977958 
L 412.323522 16.737467 
L 412.881215 14.952338 
L 413.810704 12.986764 
L 415.111988 10.251598 
L 415.483783 10.062685 
L 415.855579 10.16664 
L 416.227374 10.541828 
L 416.59917 11.24784 
L 417.156863 13.119638 
L 418.829942 20.530877 
L 419.573533 24.485815 
L 421.432511 36.134963 
L 421.990204 37.976473 
L 422.361999 38.409099 
L 422.361999 38.409099 
" style="fill:none;stroke:#009afa;"/>
   </g>
   <g id="matplotlib.axis_1">
    <g id="xtick_1">
     <g id="line2d_2">
      <defs>
       <path d="M 0 0 
L 0 -2.5 
" id="m3102fb6828" style="stroke:#000000;stroke-width:0.5;"/>
      </defs>
      <g>
       <use style="stroke:#000000;stroke-width:0.5;" x="50.566553" xlink:href="#m3102fb6828" y="258.225354"/>
      </g>
     </g>
     <g id="text_1">
      <!-- $\mathregular{0.0}$ -->
      <g transform="translate(44.166553 267.804104)scale(0.08 -0.08)">
       <defs>
        <path d="M 31.78125 66.40625 
Q 24.171875 66.40625 20.328125 58.90625 
Q 16.5 51.421875 16.5 36.375 
Q 16.5 21.390625 20.328125 13.890625 
Q 24.171875 6.390625 31.78125 6.390625 
Q 39.453125 6.390625 43.28125 13.890625 
Q 47.125 21.390625 47.125 36.375 
Q 47.125 51.421875 43.28125 58.90625 
Q 39.453125 66.40625 31.78125 66.40625 
z
M 31.78125 74.21875 
Q 44.046875 74.21875 50.515625 64.515625 
Q 56.984375 54.828125 56.984375 36.375 
Q 56.984375 17.96875 50.515625 8.265625 
Q 44.046875 -1.421875 31.78125 -1.421875 
Q 19.53125 -1.421875 13.0625 8.265625 
Q 6.59375 17.96875 6.59375 36.375 
Q 6.59375 54.828125 13.0625 64.515625 
Q 19.53125 74.21875 31.78125 74.21875 
z
" id="DejaVuSans-48"/>
        <path d="M 10.6875 12.40625 
L 21 12.40625 
L 21 0 
L 10.6875 0 
z
" id="DejaVuSans-46"/>
       </defs>
       <use transform="translate(0 0.78125)" xlink:href="#DejaVuSans-48"/>
       <use transform="translate(63.623047 0.78125)" xlink:href="#DejaVuSans-46"/>
       <use transform="translate(95.410156 0.78125)" xlink:href="#DejaVuSans-48"/>
      </g>
     </g>
    </g>
    <g id="xtick_2">
     <g id="line2d_3">
      <g>
       <use style="stroke:#000000;stroke-width:0.5;" x="143.515414" xlink:href="#m3102fb6828" y="258.225354"/>
      </g>
     </g>
     <g id="text_2">
      <!-- $\mathregular{0.5}$ -->
      <g transform="translate(137.115414 267.804104)scale(0.08 -0.08)">
       <defs>
        <path d="M 10.796875 72.90625 
L 49.515625 72.90625 
L 49.515625 64.59375 
L 19.828125 64.59375 
L 19.828125 46.734375 
Q 21.96875 47.46875 24.109375 47.828125 
Q 26.265625 48.1875 28.421875 48.1875 
Q 40.625 48.1875 47.75 41.5 
Q 54.890625 34.8125 54.890625 23.390625 
Q 54.890625 11.625 47.5625 5.09375 
Q 40.234375 -1.421875 26.90625 -1.421875 
Q 22.3125 -1.421875 17.546875 -0.640625 
Q 12.796875 0.140625 7.71875 1.703125 
L 7.71875 11.625 
Q 12.109375 9.234375 16.796875 8.0625 
Q 21.484375 6.890625 26.703125 6.890625 
Q 35.15625 6.890625 40.078125 11.328125 
Q 45.015625 15.765625 45.015625 23.390625 
Q 45.015625 31 40.078125 35.4375 
Q 35.15625 39.890625 26.703125 39.890625 
Q 22.75 39.890625 18.8125 39.015625 
Q 14.890625 38.140625 10.796875 36.28125 
z
" id="DejaVuSans-53"/>
       </defs>
       <use transform="translate(0 0.78125)" xlink:href="#DejaVuSans-48"/>
       <use transform="translate(63.623047 0.78125)" xlink:href="#DejaVuSans-46"/>
       <use transform="translate(95.410156 0.78125)" xlink:href="#DejaVuSans-53"/>
      </g>
     </g>
    </g>
    <g id="xtick_3">
     <g id="line2d_4">
      <g>
       <use style="stroke:#000000;stroke-width:0.5;" x="236.464276" xlink:href="#m3102fb6828" y="258.225354"/>
      </g>
     </g>
     <g id="text_3">
      <!-- $\mathregular{1.0}$ -->
      <g transform="translate(230.064276 267.804104)scale(0.08 -0.08)">
       <defs>
        <path d="M 12.40625 8.296875 
L 28.515625 8.296875 
L 28.515625 63.921875 
L 10.984375 60.40625 
L 10.984375 69.390625 
L 28.421875 72.90625 
L 38.28125 72.90625 
L 38.28125 8.296875 
L 54.390625 8.296875 
L 54.390625 0 
L 12.40625 0 
z
" id="DejaVuSans-49"/>
       </defs>
       <use transform="translate(0 0.78125)" xlink:href="#DejaVuSans-49"/>
       <use transform="translate(63.623047 0.78125)" xlink:href="#DejaVuSans-46"/>
       <use transform="translate(95.410156 0.78125)" xlink:href="#DejaVuSans-48"/>
      </g>
     </g>
    </g>
    <g id="xtick_4">
     <g id="line2d_5">
      <g>
       <use style="stroke:#000000;stroke-width:0.5;" x="329.413138" xlink:href="#m3102fb6828" y="258.225354"/>
      </g>
     </g>
     <g id="text_4">
      <!-- $\mathregular{1.5}$ -->
      <g transform="translate(323.013138 267.804104)scale(0.08 -0.08)">
       <use transform="translate(0 0.09375)" xlink:href="#DejaVuSans-49"/>
       <use transform="translate(63.623047 0.09375)" xlink:href="#DejaVuSans-46"/>
       <use transform="translate(95.410156 0.09375)" xlink:href="#DejaVuSans-53"/>
      </g>
     </g>
    </g>
    <g id="xtick_5">
     <g id="line2d_6">
      <g>
       <use style="stroke:#000000;stroke-width:0.5;" x="422.361999" xlink:href="#m3102fb6828" y="258.225354"/>
      </g>
     </g>
     <g id="text_5">
      <!-- $\mathregular{2.0}$ -->
      <g transform="translate(415.961999 267.804104)scale(0.08 -0.08)">
       <defs>
        <path d="M 19.1875 8.296875 
L 53.609375 8.296875 
L 53.609375 0 
L 7.328125 0 
L 7.328125 8.296875 
Q 12.9375 14.109375 22.625 23.890625 
Q 32.328125 33.6875 34.8125 36.53125 
Q 39.546875 41.84375 41.421875 45.53125 
Q 43.3125 49.21875 43.3125 52.78125 
Q 43.3125 58.59375 39.234375 62.25 
Q 35.15625 65.921875 28.609375 65.921875 
Q 23.96875 65.921875 18.8125 64.3125 
Q 13.671875 62.703125 7.8125 59.421875 
L 7.8125 69.390625 
Q 13.765625 71.78125 18.9375 73 
Q 24.125 74.21875 28.421875 74.21875 
Q 39.75 74.21875 46.484375 68.546875 
Q 53.21875 62.890625 53.21875 53.421875 
Q 53.21875 48.921875 51.53125 44.890625 
Q 49.859375 40.875 45.40625 35.40625 
Q 44.1875 33.984375 37.640625 27.21875 
Q 31.109375 20.453125 19.1875 8.296875 
z
" id="DejaVuSans-50"/>
       </defs>
       <use transform="translate(0 0.78125)" xlink:href="#DejaVuSans-50"/>
       <use transform="translate(63.623047 0.78125)" xlink:href="#DejaVuSans-46"/>
       <use transform="translate(95.410156 0.78125)" xlink:href="#DejaVuSans-48"/>
      </g>
     </g>
    </g>
    <g id="text_6">
     <!-- Time (s) -->
     <g transform="translate(214.102479 281.826136)scale(0.11 -0.11)">
      <defs>
       <path d="M -0.296875 72.90625 
L 61.375 72.90625 
L 61.375 64.59375 
L 35.5 64.59375 
L 35.5 0 
L 25.59375 0 
L 25.59375 64.59375 
L -0.296875 64.59375 
z
" id="DejaVuSans-84"/>
       <path d="M 9.421875 54.6875 
L 18.40625 54.6875 
L 18.40625 0 
L 9.421875 0 
z
M 9.421875 75.984375 
L 18.40625 75.984375 
L 18.40625 64.59375 
L 9.421875 64.59375 
z
" id="DejaVuSans-105"/>
       <path d="M 52 44.1875 
Q 55.375 50.25 60.0625 53.125 
Q 64.75 56 71.09375 56 
Q 79.640625 56 84.28125 50.015625 
Q 88.921875 44.046875 88.921875 33.015625 
L 88.921875 0 
L 79.890625 0 
L 79.890625 32.71875 
Q 79.890625 40.578125 77.09375 44.375 
Q 74.3125 48.1875 68.609375 48.1875 
Q 61.625 48.1875 57.5625 43.546875 
Q 53.515625 38.921875 53.515625 30.90625 
L 53.515625 0 
L 44.484375 0 
L 44.484375 32.71875 
Q 44.484375 40.625 41.703125 44.40625 
Q 38.921875 48.1875 33.109375 48.1875 
Q 26.21875 48.1875 22.15625 43.53125 
Q 18.109375 38.875 18.109375 30.90625 
L 18.109375 0 
L 9.078125 0 
L 9.078125 54.6875 
L 18.109375 54.6875 
L 18.109375 46.1875 
Q 21.1875 51.21875 25.484375 53.609375 
Q 29.78125 56 35.6875 56 
Q 41.65625 56 45.828125 52.96875 
Q 50 49.953125 52 44.1875 
z
" id="DejaVuSans-109"/>
       <path d="M 56.203125 29.59375 
L 56.203125 25.203125 
L 14.890625 25.203125 
Q 15.484375 15.921875 20.484375 11.0625 
Q 25.484375 6.203125 34.421875 6.203125 
Q 39.59375 6.203125 44.453125 7.46875 
Q 49.3125 8.734375 54.109375 11.28125 
L 54.109375 2.78125 
Q 49.265625 0.734375 44.1875 -0.34375 
Q 39.109375 -1.421875 33.890625 -1.421875 
Q 20.796875 -1.421875 13.15625 6.1875 
Q 5.515625 13.8125 5.515625 26.8125 
Q 5.515625 40.234375 12.765625 48.109375 
Q 20.015625 56 32.328125 56 
Q 43.359375 56 49.78125 48.890625 
Q 56.203125 41.796875 56.203125 29.59375 
z
M 47.21875 32.234375 
Q 47.125 39.59375 43.09375 43.984375 
Q 39.0625 48.390625 32.421875 48.390625 
Q 24.90625 48.390625 20.390625 44.140625 
Q 15.875 39.890625 15.1875 32.171875 
z
" id="DejaVuSans-101"/>
       <path id="DejaVuSans-32"/>
       <path d="M 31 75.875 
Q 24.46875 64.65625 21.28125 53.65625 
Q 18.109375 42.671875 18.109375 31.390625 
Q 18.109375 20.125 21.3125 9.0625 
Q 24.515625 -2 31 -13.1875 
L 23.1875 -13.1875 
Q 15.875 -1.703125 12.234375 9.375 
Q 8.59375 20.453125 8.59375 31.390625 
Q 8.59375 42.28125 12.203125 53.3125 
Q 15.828125 64.359375 23.1875 75.875 
z
" id="DejaVuSans-40"/>
       <path d="M 44.28125 53.078125 
L 44.28125 44.578125 
Q 40.484375 46.53125 36.375 47.5 
Q 32.28125 48.484375 27.875 48.484375 
Q 21.1875 48.484375 17.84375 46.4375 
Q 14.5 44.390625 14.5 40.28125 
Q 14.5 37.15625 16.890625 35.375 
Q 19.28125 33.59375 26.515625 31.984375 
L 29.59375 31.296875 
Q 39.15625 29.25 43.1875 25.515625 
Q 47.21875 21.78125 47.21875 15.09375 
Q 47.21875 7.46875 41.1875 3.015625 
Q 35.15625 -1.421875 24.609375 -1.421875 
Q 20.21875 -1.421875 15.453125 -0.5625 
Q 10.6875 0.296875 5.421875 2 
L 5.421875 11.28125 
Q 10.40625 8.6875 15.234375 7.390625 
Q 20.0625 6.109375 24.8125 6.109375 
Q 31.15625 6.109375 34.5625 8.28125 
Q 37.984375 10.453125 37.984375 14.40625 
Q 37.984375 18.0625 35.515625 20.015625 
Q 33.0625 21.96875 24.703125 23.78125 
L 21.578125 24.515625 
Q 13.234375 26.265625 9.515625 29.90625 
Q 5.8125 33.546875 5.8125 39.890625 
Q 5.8125 47.609375 11.28125 51.796875 
Q 16.75 56 26.8125 56 
Q 31.78125 56 36.171875 55.265625 
Q 40.578125 54.546875 44.28125 53.078125 
z
" id="DejaVuSans-115"/>
       <path d="M 8.015625 75.875 
L 15.828125 75.875 
Q 23.140625 64.359375 26.78125 53.3125 
Q 30.421875 42.28125 30.421875 31.390625 
Q 30.421875 20.453125 26.78125 9.375 
Q 23.140625 -1.703125 15.828125 -13.1875 
L 8.015625 -13.1875 
Q 14.5 -2 17.703125 9.0625 
Q 20.90625 20.125 20.90625 31.390625 
Q 20.90625 42.671875 17.703125 53.65625 
Q 14.5 64.65625 8.015625 75.875 
z
" id="DejaVuSans-41"/>
      </defs>
      <use xlink:href="#DejaVuSans-84"/>
      <use x="57.958984" xlink:href="#DejaVuSans-105"/>
      <use x="85.742188" xlink:href="#DejaVuSans-109"/>
      <use x="183.154297" xlink:href="#DejaVuSans-101"/>
      <use x="244.677734" xlink:href="#DejaVuSans-32"/>
      <use x="276.464844" xlink:href="#DejaVuSans-40"/>
      <use x="315.478516" xlink:href="#DejaVuSans-115"/>
      <use x="367.578125" xlink:href="#DejaVuSans-41"/>
     </g>
    </g>
   </g>
   <g id="matplotlib.axis_2">
    <g id="ytick_1">
     <g id="line2d_7">
      <defs>
       <path d="M 0 0 
L 2.5 0 
" id="mb87eab7b59" style="stroke:#000000;stroke-width:0.5;"/>
      </defs>
      <g>
       <use style="stroke:#000000;stroke-width:0.5;" x="50.566553" xlink:href="#mb87eab7b59" y="223.642449"/>
      </g>
     </g>
     <g id="text_7">
      <!-- $\mathregular{-0.75}$ -->
      <g transform="translate(23.146553 226.681824)scale(0.08 -0.08)">
       <defs>
        <path d="M 10.59375 35.5 
L 73.1875 35.5 
L 73.1875 27.203125 
L 10.59375 27.203125 
z
" id="DejaVuSans-8722"/>
        <path d="M 8.203125 72.90625 
L 55.078125 72.90625 
L 55.078125 68.703125 
L 28.609375 0 
L 18.3125 0 
L 43.21875 64.59375 
L 8.203125 64.59375 
z
" id="DejaVuSans-55"/>
       </defs>
       <use transform="translate(0 0.78125)" xlink:href="#DejaVuSans-8722"/>
       <use transform="translate(83.789062 0.78125)" xlink:href="#DejaVuSans-48"/>
       <use transform="translate(147.412109 0.78125)" xlink:href="#DejaVuSans-46"/>
       <use transform="translate(171.449219 0.78125)" xlink:href="#DejaVuSans-55"/>
       <use transform="translate(235.072266 0.78125)" xlink:href="#DejaVuSans-53"/>
      </g>
     </g>
    </g>
    <g id="ytick_2">
     <g id="line2d_8">
      <g>
       <use style="stroke:#000000;stroke-width:0.5;" x="50.566553" xlink:href="#mb87eab7b59" y="183.236335"/>
      </g>
     </g>
     <g id="text_8">
      <!-- $\mathregular{-0.50}$ -->
      <g transform="translate(22.506553 186.27571)scale(0.08 -0.08)">
       <use transform="translate(0 0.78125)" xlink:href="#DejaVuSans-8722"/>
       <use transform="translate(83.789062 0.78125)" xlink:href="#DejaVuSans-48"/>
       <use transform="translate(147.412109 0.78125)" xlink:href="#DejaVuSans-46"/>
       <use transform="translate(179.199219 0.78125)" xlink:href="#DejaVuSans-53"/>
       <use transform="translate(242.822266 0.78125)" xlink:href="#DejaVuSans-48"/>
      </g>
     </g>
    </g>
    <g id="ytick_3">
     <g id="line2d_9">
      <g>
       <use style="stroke:#000000;stroke-width:0.5;" x="50.566553" xlink:href="#mb87eab7b59" y="142.830222"/>
      </g>
     </g>
     <g id="text_9">
      <!-- $\mathregular{-0.25}$ -->
      <g transform="translate(22.986553 145.869597)scale(0.08 -0.08)">
       <use transform="translate(0 0.78125)" xlink:href="#DejaVuSans-8722"/>
       <use transform="translate(83.789062 0.78125)" xlink:href="#DejaVuSans-48"/>
       <use transform="translate(147.412109 0.78125)" xlink:href="#DejaVuSans-46"/>
       <use transform="translate(173.699219 0.78125)" xlink:href="#DejaVuSans-50"/>
       <use transform="translate(237.322266 0.78125)" xlink:href="#DejaVuSans-53"/>
      </g>
     </g>
    </g>
    <g id="ytick_4">
     <g id="line2d_10">
      <g>
       <use style="stroke:#000000;stroke-width:0.5;" x="50.566553" xlink:href="#mb87eab7b59" y="102.424109"/>
      </g>
     </g>
     <g id="text_10">
      <!-- $\mathregular{0.00}$ -->
      <g transform="translate(29.226553 105.463484)scale(0.08 -0.08)">
       <use transform="translate(0 0.78125)" xlink:href="#DejaVuSans-48"/>
       <use transform="translate(63.623047 0.78125)" xlink:href="#DejaVuSans-46"/>
       <use transform="translate(95.410156 0.78125)" xlink:href="#DejaVuSans-48"/>
       <use transform="translate(159.033203 0.78125)" xlink:href="#DejaVuSans-48"/>
      </g>
     </g>
    </g>
    <g id="ytick_5">
     <g id="line2d_11">
      <g>
       <use style="stroke:#000000;stroke-width:0.5;" x="50.566553" xlink:href="#mb87eab7b59" y="62.017996"/>
      </g>
     </g>
     <g id="text_11">
      <!-- $\mathregular{0.25}$ -->
      <g transform="translate(29.626553 65.057371)scale(0.08 -0.08)">
       <use transform="translate(0 0.78125)" xlink:href="#DejaVuSans-48"/>
       <use transform="translate(63.623047 0.78125)" xlink:href="#DejaVuSans-46"/>
       <use transform="translate(89.910156 0.78125)" xlink:href="#DejaVuSans-50"/>
       <use transform="translate(153.533203 0.78125)" xlink:href="#DejaVuSans-53"/>
      </g>
     </g>
    </g>
    <g id="ytick_6">
     <g id="line2d_12">
      <g>
       <use style="stroke:#000000;stroke-width:0.5;" x="50.566553" xlink:href="#mb87eab7b59" y="21.611883"/>
      </g>
     </g>
     <g id="text_12">
      <!-- $\mathregular{0.50}$ -->
      <g transform="translate(29.226553 24.651258)scale(0.08 -0.08)">
       <use transform="translate(0 0.78125)" xlink:href="#DejaVuSans-48"/>
       <use transform="translate(63.623047 0.78125)" xlink:href="#DejaVuSans-46"/>
       <use transform="translate(95.410156 0.78125)" xlink:href="#DejaVuSans-53"/>
       <use transform="translate(159.033203 0.78125)" xlink:href="#DejaVuSans-48"/>
      </g>
     </g>
    </g>
    <g id="text_13">
     <!-- $u_y$ ($m$) -->
     <g transform="translate(15.096553 147.855)rotate(-90)scale(0.11 -0.11)">
      <defs>
       <path d="M 6.6875 21.6875 
L 13.09375 54.6875 
L 22.125 54.6875 
L 15.71875 22.015625 
Q 15.234375 19.625 15.015625 17.921875 
Q 14.796875 16.21875 14.796875 15.09375 
Q 14.796875 10.9375 17.328125 8.65625 
Q 19.875 6.390625 24.515625 6.390625 
Q 31.734375 6.390625 37 11.265625 
Q 42.28125 16.15625 43.890625 24.421875 
L 49.90625 54.6875 
L 58.890625 54.6875 
L 48.296875 0 
L 39.3125 0 
L 41.109375 8.59375 
Q 37.3125 3.8125 32.0625 1.1875 
Q 26.8125 -1.421875 20.90625 -1.421875 
Q 13.71875 -1.421875 9.71875 2.515625 
Q 5.71875 6.453125 5.71875 13.484375 
Q 5.71875 14.9375 5.953125 17.140625 
Q 6.203125 19.34375 6.6875 21.6875 
z
" id="DejaVuSans-Oblique-117"/>
       <path d="M 24.8125 -5.078125 
Q 18.5625 -15.578125 14.625 -18.1875 
Q 10.6875 -20.796875 4.59375 -20.796875 
L -2.484375 -20.796875 
L -0.984375 -13.28125 
L 4.203125 -13.28125 
Q 7.953125 -13.28125 10.59375 -11.234375 
Q 13.234375 -9.1875 16.5 -3.21875 
L 19.28125 2 
L 7.171875 54.6875 
L 16.703125 54.6875 
L 25.78125 12.796875 
L 50.875 54.6875 
L 60.296875 54.6875 
z
" id="DejaVuSans-Oblique-121"/>
       <path d="M 89.796875 33.015625 
L 83.40625 0 
L 74.421875 0 
L 80.71875 32.71875 
Q 81.109375 34.8125 81.296875 36.328125 
Q 81.5 37.84375 81.5 38.921875 
Q 81.5 43.3125 79.046875 45.75 
Q 76.609375 48.1875 72.21875 48.1875 
Q 65.671875 48.1875 60.546875 43.28125 
Q 55.421875 38.375 53.90625 30.515625 
L 47.90625 0 
L 38.921875 0 
L 45.3125 32.71875 
Q 45.703125 34.515625 45.890625 36.046875 
Q 46.09375 37.59375 46.09375 38.8125 
Q 46.09375 43.265625 43.65625 45.71875 
Q 41.21875 48.1875 36.921875 48.1875 
Q 30.28125 48.1875 25.140625 43.28125 
Q 20.015625 38.375 18.5 30.515625 
L 12.5 0 
L 3.515625 0 
L 14.203125 54.6875 
L 23.1875 54.6875 
L 21.484375 46.1875 
Q 25.140625 50.984375 30.046875 53.484375 
Q 34.96875 56 40.578125 56 
Q 46.53125 56 50.359375 52.875 
Q 54.203125 49.75 54.984375 44.1875 
Q 59.078125 49.953125 64.46875 52.96875 
Q 69.875 56 75.875 56 
Q 82.90625 56 86.734375 51.953125 
Q 90.578125 47.90625 90.578125 40.484375 
Q 90.578125 38.875 90.375 36.9375 
Q 90.1875 35.015625 89.796875 33.015625 
z
" id="DejaVuSans-Oblique-109"/>
      </defs>
      <use transform="translate(0 0.125)" xlink:href="#DejaVuSans-Oblique-117"/>
      <use transform="translate(63.378906 -16.28125)scale(0.7)" xlink:href="#DejaVuSans-Oblique-121"/>
      <use transform="translate(107.539062 0.125)" xlink:href="#DejaVuSans-32"/>
      <use transform="translate(139.326172 0.125)" xlink:href="#DejaVuSans-40"/>
      <use transform="translate(178.339844 0.125)" xlink:href="#DejaVuSans-Oblique-109"/>
      <use transform="translate(275.751953 0.125)" xlink:href="#DejaVuSans-41"/>
     </g>
    </g>
   </g>
   <g id="line2d_13">
    <path clip-path="url(#p7201540630)" d="M 50.566553 102.424109 
L 57.947317 102.314747 
L 60.588454 102.028572 
L 62.578352 101.578935 
L 64.354815 100.948568 
L 66.296102 100.018208 
L 68.247764 98.846421 
L 70.216125 97.38991 
L 72.223191 95.6196 
L 78.289583 89.965931 
L 79.8401 88.951627 
L 81.096307 88.37928 
L 82.246545 88.10676 
L 83.454118 88.061838 
L 84.773641 88.252144 
L 86.202329 88.695551 
L 87.74467 89.403031 
L 89.229978 90.311729 
L 90.797509 91.52399 
L 92.731367 93.300338 
L 98.516841 98.858006 
L 99.955797 99.848232 
L 101.519018 100.638106 
L 105.932545 102.56175 
L 107.148975 103.42971 
L 108.273786 104.458806 
L 109.450526 105.782433 
L 110.965206 107.868733 
L 112.460025 110.34667 
L 114.431897 114.091067 
L 119.926946 124.861826 
L 121.078118 126.536605 
L 122.053063 127.551118 
L 122.72267 127.986808 
L 123.37725 128.181921 
L 124.000158 128.139111 
L 124.574967 127.891763 
L 125.128682 127.460211 
L 125.717593 126.79324 
L 126.409641 125.74178 
L 127.432222 123.683447 
L 128.54444 120.815891 
L 129.787641 116.965548 
L 131.85153 109.720887 
L 134.613969 100.154221 
L 136.078918 95.801294 
L 137.417075 92.426706 
L 138.791999 89.609152 
L 139.837032 87.950746 
L 140.604368 87.023727 
L 141.285884 86.423786 
L 142.049536 86.021223 
L 142.785147 85.921694 
L 143.518788 86.116724 
L 144.225438 86.584164 
L 144.954739 87.343813 
L 146.043065 88.949163 
L 147.25193 91.261134 
L 151.701473 100.559312 
L 152.881668 102.213123 
L 153.786882 103.084311 
L 154.680608 103.614919 
L 155.682566 103.882095 
L 156.648159 103.9114 
L 159.645295 103.818685 
L 160.858103 104.105663 
L 161.909888 104.597835 
L 162.919211 105.291116 
L 164.081638 106.358169 
L 165.386565 107.924152 
L 166.581017 109.757478 
L 167.792178 112.084368 
L 168.920238 114.744582 
L 170.02699 117.862547 
L 171.255747 121.906925 
L 173.084391 128.795585 
L 175.808462 139.125135 
L 176.908461 142.521072 
L 177.782 144.687775 
L 178.683937 146.379469 
L 179.344375 147.253384 
L 179.988453 147.802139 
L 180.591353 148.037388 
L 181.114797 148.015252 
L 181.684074 147.739661 
L 182.211398 147.236255 
L 182.757657 146.446133 
L 183.557662 144.761493 
L 184.472872 142.023129 
L 185.361406 138.526278 
L 186.361515 133.651286 
L 187.748987 125.495731 
L 190.014867 110.287706 
L 192.051747 97.122334 
L 193.54893 88.779908 
L 194.992166 82.010674 
L 196.322115 76.887992 
L 197.492921 73.191766 
L 198.750973 69.9371 
L 199.709906 67.968187 
L 200.537199 66.756264 
L 201.212675 66.228146 
L 201.612964 66.157001 
L 202.031359 66.302575 
L 202.411367 66.645482 
L 202.991584 67.580262 
L 203.600272 69.111252 
L 204.278767 71.470443 
L 205.053401 74.929699 
L 206.269809 81.625897 
L 214.242093 128.993288 
L 215.273415 133.217051 
L 215.954635 135.160752 
L 216.570515 136.271717 
L 217.001673 136.678518 
L 217.462361 136.782565 
L 217.91451 136.565231 
L 218.378246 136.032069 
L 218.978128 134.91327 
L 219.780401 132.760972 
L 220.701981 129.581244 
L 223.919531 117.793279 
L 224.755184 115.810392 
L 225.658733 114.330281 
L 226.449736 113.460149 
L 227.346146 112.780272 
L 228.514825 112.182137 
L 230.427238 111.271186 
L 231.963195 110.170646 
L 233.228463 109.349222 
L 234.028557 109.080809 
L 234.690366 109.128962 
L 235.299107 109.489166 
L 235.862496 110.170944 
L 236.514992 111.45156 
L 237.250963 113.566054 
L 238.170074 117.128327 
L 239.421863 123.130778 
L 241.063102 131.023725 
L 241.908618 134.13072 
L 242.625582 136.056946 
L 243.452547 137.611581 
L 244.362439 138.810381 
L 245.400153 139.841127 
L 246.248195 140.443853 
L 246.942083 140.664507 
L 247.479394 140.563234 
L 247.895527 140.262488 
L 248.287118 139.76575 
L 248.92631 138.443799 
L 249.582282 136.376052 
L 250.401313 132.795224 
L 251.436082 126.876385 
L 252.684359 118.210848 
L 256.300183 92.024041 
L 257.730848 83.562835 
L 259.365041 75.369595 
L 262.05431 62.951765 
L 262.888209 60.110984 
L 263.516477 58.600529 
L 263.993177 57.848471 
L 264.536134 57.407292 
L 265.037202 57.383579 
L 265.52606 57.708475 
L 266.084791 58.503984 
L 266.670693 59.834423 
L 267.357122 62.021923 
L 268.277833 65.798264 
L 272.377202 84.651217 
L 273.564298 91.67621 
L 274.628083 99.400592 
L 275.702347 108.795334 
L 279.646022 145.45562 
L 280.825995 153.710995 
L 281.940614 159.917361 
L 282.770625 163.451995 
L 283.507485 165.800364 
L 284.231542 167.380491 
L 284.865474 168.176602 
L 285.338819 168.436859 
L 285.787092 168.455691 
L 286.381076 168.216461 
L 287.205597 167.573483 
L 288.493077 166.224691 
L 289.593699 164.760699 
L 291.273146 162.479013 
L 292.135974 161.771771 
L 293.206907 160.965225 
L 293.692015 160.27551 
L 294.221586 159.026179 
L 294.706812 157.279938 
L 295.352265 153.944031 
L 296.100526 148.685133 
L 297.401398 137.404358 
L 298.535373 128.204067 
L 299.279006 123.69755 
L 299.957252 120.898832 
L 300.562031 119.388062 
L 301.072621 118.688143 
L 301.62872 118.334457 
L 303.343512 117.658781 
L 303.850351 116.961154 
L 304.453908 115.6743 
L 306.075183 111.764954 
L 306.404931 111.43011 
L 306.634261 111.371712 
L 306.876433 111.476923 
L 307.190941 111.872568 
L 307.656283 112.968204 
L 308.181333 114.839853 
L 308.94244 118.469206 
L 310.079938 125.202917 
L 312.122685 137.590129 
L 313.312274 143.039867 
L 315.637888 153.007807 
L 316.037315 153.910429 
L 316.435607 154.281185 
L 316.710789 154.206467 
L 316.977665 153.876366 
L 317.417321 152.815262 
L 317.93732 150.866272 
L 318.980875 145.778358 
L 320.185889 140.201138 
L 321.356911 135.9334 
L 323.033414 130.025752 
L 323.933399 125.736719 
L 325.918434 115.686312 
L 326.631123 113.413006 
L 327.297004 111.99114 
L 328.115517 110.80946 
L 329.001512 109.510537 
L 329.573077 108.238069 
L 330.209184 106.200269 
L 330.973415 102.816744 
L 332.602813 95.209887 
L 333.090984 93.888541 
L 333.44323 93.394281 
L 333.735483 93.323427 
L 334.010575 93.552536 
L 334.372583 94.259943 
L 334.959698 96.077167 
L 336.151788 99.893563 
L 337.103453 102.08867 
L 338.967218 106.156815 
L 339.654074 108.327273 
L 340.204246 110.976606 
L 340.718918 114.705574 
L 341.370336 121.370165 
L 342.603813 137.270319 
L 343.884005 152.638985 
L 346.08313 174.804522 
L 347.660067 191.696254 
L 349.088403 209.59696 
L 350.328735 224.522372 
L 351.033207 230.266118 
L 351.608547 233.292289 
L 352.228214 235.322071 
L 353.898264 239.836069 
L 354.814184 243.614717 
L 356.237192 249.488847 
L 356.728653 250.650381 
L 357.076925 250.983053 
L 357.30408 250.963931 
L 357.604233 250.65563 
L 357.961547 249.891344 
L 358.425323 248.338191 
L 359.259052 244.565078 
L 360.053894 241.242304 
L 360.542525 240.053433 
L 360.904424 239.699323 
L 361.177014 239.700382 
L 361.511074 239.955137 
L 362.039822 240.740413 
L 363.033978 242.306032 
L 363.388843 242.479523 
L 363.649382 242.389798 
L 363.971374 242.007285 
L 364.356359 241.162254 
L 364.86402 239.442747 
L 365.487734 236.48241 
L 366.403366 230.897267 
L 367.815514 222.242228 
L 368.519433 219.380221 
L 370.03032 214.137264 
L 370.516482 211.220104 
L 371.124046 206.039653 
L 371.955701 196.560043 
L 373.315052 181.027586 
L 373.967019 175.967428 
L 374.527892 173.016339 
L 375.095308 171.078052 
L 375.626991 169.952282 
L 376.161634 169.319365 
L 376.558894 169.136403 
L 377.009368 169.197467 
L 377.947629 169.465393 
L 378.2167 169.276339 
L 378.5341 168.775938 
L 378.928187 167.742256 
L 380.282262 163.768461 
L 380.528206 163.720016 
L 380.752062 164.012414 
L 381.014872 164.779987 
L 381.465439 167.066576 
L 382.169885 172.254429 
L 383.49787 182.182828 
L 384.125373 185.336464 
L 384.591542 186.746575 
L 384.976674 187.292799 
L 385.243304 187.361238 
L 385.503412 187.200489 
L 385.823876 186.718744 
L 386.337914 185.427496 
L 387.329527 182.785001 
L 387.630144 182.492606 
L 387.837186 182.525022 
L 388.057639 182.787103 
L 388.393558 183.641173 
L 388.823483 185.45597 
L 389.728889 190.647134 
L 390.361648 193.720736 
L 390.780844 194.869954 
L 391.074585 195.1354 
L 391.300121 195.022026 
L 391.553604 194.578615 
L 391.914462 193.445334 
L 392.555297 190.510643 
L 393.601106 185.753558 
L 394.244092 183.780358 
L 394.761958 182.819272 
L 395.037916 182.663054 
L 395.259767 182.780608 
L 395.503315 183.183919 
L 395.874685 184.315232 
L 396.446368 186.895949 
L 397.739291 192.903053 
L 398.060488 193.41445 
L 398.262507 193.380506 
L 398.4912 193.017485 
L 398.788713 192.086152 
L 399.270567 189.702718 
L 400.620699 182.315588 
L 401.024348 181.519307 
L 401.383675 181.246634 
L 401.712621 181.244684 
L 403.391038 181.855043 
L 404.632735 182.734313 
L 404.884693 182.565396 
L 405.147731 182.056189 
L 405.463566 180.875928 
L 405.876961 178.327512 
L 406.398728 173.594951 
L 407.869205 159.216715 
L 408.289882 157.326991 
L 408.601326 156.817055 
L 408.824745 156.775902 
L 409.082223 156.97726 
L 409.409192 157.585041 
L 411.237773 161.753234 
L 412.038639 163.184244 
L 412.948365 165.10962 
L 413.243917 165.293647 
L 413.446279 165.176648 
L 413.706702 164.713161 
L 414.742242 162.359151 
L 414.918876 162.498051 
L 415.134297 163.131574 
L 415.452178 165.018506 
L 415.89801 169.310091 
L 416.854477 181.691427 
L 417.737243 191.571981 
L 418.398304 196.711437 
L 419.28464 201.66916 
L 420.870423 209.716135 
L 421.121695 210.002702 
L 421.318342 209.908505 
L 421.59042 209.384153 
L 422.361999 207.232422 
L 422.361999 207.232422 
" style="fill:none;stroke:#e36f47;"/>
   </g>
   <g id="patch_3">
    <path d="M 50.566553 258.225354 
L 50.566553 2.834646 
" style="fill:none;stroke:#000000;stroke-linecap:square;stroke-linejoin:miter;"/>
   </g>
   <g id="patch_4">
    <path d="M 50.566553 258.225354 
L 422.361999 258.225354 
" style="fill:none;stroke:#000000;stroke-linecap:square;stroke-linejoin:miter;"/>
   </g>
   <g id="legend_1">
    <g id="patch_5">
     <path d="M 299.041999 39.119646 
L 418.361999 39.119646 
L 418.361999 6.834646 
L 299.041999 6.834646 
z
" style="fill:#ffffff;stroke:#000000;stroke-linejoin:miter;"/>
    </g>
    <g id="line2d_14">
     <path d="M 305.441999 16.513396 
L 321.441999 16.513396 
" style="fill:none;stroke:#009afa;stroke-linejoin:miter;"/>
    </g>
    <g id="line2d_15"/>
    <g id="text_14">
     <!-- GXBeam -->
     <g transform="translate(327.841999 19.313396)scale(0.08 -0.08)">
      <defs>
       <path d="M 59.515625 10.40625 
L 59.515625 29.984375 
L 43.40625 29.984375 
L 43.40625 38.09375 
L 69.28125 38.09375 
L 69.28125 6.78125 
Q 63.578125 2.734375 56.6875 0.65625 
Q 49.8125 -1.421875 42 -1.421875 
Q 24.90625 -1.421875 15.25 8.5625 
Q 5.609375 18.5625 5.609375 36.375 
Q 5.609375 54.25 15.25 64.234375 
Q 24.90625 74.21875 42 74.21875 
Q 49.125 74.21875 55.546875 72.453125 
Q 61.96875 70.703125 67.390625 67.28125 
L 67.390625 56.78125 
Q 61.921875 61.421875 55.765625 63.765625 
Q 49.609375 66.109375 42.828125 66.109375 
Q 29.4375 66.109375 22.71875 58.640625 
Q 16.015625 51.171875 16.015625 36.375 
Q 16.015625 21.625 22.71875 14.15625 
Q 29.4375 6.6875 42.828125 6.6875 
Q 48.046875 6.6875 52.140625 7.59375 
Q 56.25 8.5 59.515625 10.40625 
z
" id="DejaVuSans-71"/>
       <path d="M 6.296875 72.90625 
L 16.890625 72.90625 
L 35.015625 45.796875 
L 53.21875 72.90625 
L 63.8125 72.90625 
L 40.375 37.890625 
L 65.375 0 
L 54.78125 0 
L 34.28125 31 
L 13.625 0 
L 2.984375 0 
L 29 38.921875 
z
" id="DejaVuSans-88"/>
       <path d="M 19.671875 34.8125 
L 19.671875 8.109375 
L 35.5 8.109375 
Q 43.453125 8.109375 47.28125 11.40625 
Q 51.125 14.703125 51.125 21.484375 
Q 51.125 28.328125 47.28125 31.5625 
Q 43.453125 34.8125 35.5 34.8125 
z
M 19.671875 64.796875 
L 19.671875 42.828125 
L 34.28125 42.828125 
Q 41.5 42.828125 45.03125 45.53125 
Q 48.578125 48.25 48.578125 53.8125 
Q 48.578125 59.328125 45.03125 62.0625 
Q 41.5 64.796875 34.28125 64.796875 
z
M 9.8125 72.90625 
L 35.015625 72.90625 
Q 46.296875 72.90625 52.390625 68.21875 
Q 58.5 63.53125 58.5 54.890625 
Q 58.5 48.1875 55.375 44.234375 
Q 52.25 40.28125 46.1875 39.3125 
Q 53.46875 37.75 57.5 32.78125 
Q 61.53125 27.828125 61.53125 20.40625 
Q 61.53125 10.640625 54.890625 5.3125 
Q 48.25 0 35.984375 0 
L 9.8125 0 
z
" id="DejaVuSans-66"/>
       <path d="M 34.28125 27.484375 
Q 23.390625 27.484375 19.1875 25 
Q 14.984375 22.515625 14.984375 16.5 
Q 14.984375 11.71875 18.140625 8.90625 
Q 21.296875 6.109375 26.703125 6.109375 
Q 34.1875 6.109375 38.703125 11.40625 
Q 43.21875 16.703125 43.21875 25.484375 
L 43.21875 27.484375 
z
M 52.203125 31.203125 
L 52.203125 0 
L 43.21875 0 
L 43.21875 8.296875 
Q 40.140625 3.328125 35.546875 0.953125 
Q 30.953125 -1.421875 24.3125 -1.421875 
Q 15.921875 -1.421875 10.953125 3.296875 
Q 6 8.015625 6 15.921875 
Q 6 25.140625 12.171875 29.828125 
Q 18.359375 34.515625 30.609375 34.515625 
L 43.21875 34.515625 
L 43.21875 35.40625 
Q 43.21875 41.609375 39.140625 45 
Q 35.0625 48.390625 27.6875 48.390625 
Q 23 48.390625 18.546875 47.265625 
Q 14.109375 46.140625 10.015625 43.890625 
L 10.015625 52.203125 
Q 14.9375 54.109375 19.578125 55.046875 
Q 24.21875 56 28.609375 56 
Q 40.484375 56 46.34375 49.84375 
Q 52.203125 43.703125 52.203125 31.203125 
z
" id="DejaVuSans-97"/>
      </defs>
      <use xlink:href="#DejaVuSans-71"/>
      <use x="77.490234" xlink:href="#DejaVuSans-88"/>
      <use x="145.996094" xlink:href="#DejaVuSans-66"/>
      <use x="214.599609" xlink:href="#DejaVuSans-101"/>
      <use x="276.123047" xlink:href="#DejaVuSans-97"/>
      <use x="337.402344" xlink:href="#DejaVuSans-109"/>
     </g>
    </g>
    <g id="line2d_16">
     <path d="M 305.441999 28.255896 
L 321.441999 28.255896 
" style="fill:none;stroke:#e36f47;stroke-linejoin:miter;"/>
    </g>
    <g id="line2d_17"/>
    <g id="text_15">
     <!-- DifferentialEquations -->
     <g transform="translate(327.841999 31.055896)scale(0.08 -0.08)">
      <defs>
       <path d="M 19.671875 64.796875 
L 19.671875 8.109375 
L 31.59375 8.109375 
Q 46.6875 8.109375 53.6875 14.9375 
Q 60.6875 21.78125 60.6875 36.53125 
Q 60.6875 51.171875 53.6875 57.984375 
Q 46.6875 64.796875 31.59375 64.796875 
z
M 9.8125 72.90625 
L 30.078125 72.90625 
Q 51.265625 72.90625 61.171875 64.09375 
Q 71.09375 55.28125 71.09375 36.53125 
Q 71.09375 17.671875 61.125 8.828125 
Q 51.171875 0 30.078125 0 
L 9.8125 0 
z
" id="DejaVuSans-68"/>
       <path d="M 37.109375 75.984375 
L 37.109375 68.5 
L 28.515625 68.5 
Q 23.6875 68.5 21.796875 66.546875 
Q 19.921875 64.59375 19.921875 59.515625 
L 19.921875 54.6875 
L 34.71875 54.6875 
L 34.71875 47.703125 
L 19.921875 47.703125 
L 19.921875 0 
L 10.890625 0 
L 10.890625 47.703125 
L 2.296875 47.703125 
L 2.296875 54.6875 
L 10.890625 54.6875 
L 10.890625 58.5 
Q 10.890625 67.625 15.140625 71.796875 
Q 19.390625 75.984375 28.609375 75.984375 
z
" id="DejaVuSans-102"/>
       <path d="M 41.109375 46.296875 
Q 39.59375 47.171875 37.8125 47.578125 
Q 36.03125 48 33.890625 48 
Q 26.265625 48 22.1875 43.046875 
Q 18.109375 38.09375 18.109375 28.8125 
L 18.109375 0 
L 9.078125 0 
L 9.078125 54.6875 
L 18.109375 54.6875 
L 18.109375 46.1875 
Q 20.953125 51.171875 25.484375 53.578125 
Q 30.03125 56 36.53125 56 
Q 37.453125 56 38.578125 55.875 
Q 39.703125 55.765625 41.0625 55.515625 
z
" id="DejaVuSans-114"/>
       <path d="M 54.890625 33.015625 
L 54.890625 0 
L 45.90625 0 
L 45.90625 32.71875 
Q 45.90625 40.484375 42.875 44.328125 
Q 39.84375 48.1875 33.796875 48.1875 
Q 26.515625 48.1875 22.3125 43.546875 
Q 18.109375 38.921875 18.109375 30.90625 
L 18.109375 0 
L 9.078125 0 
L 9.078125 54.6875 
L 18.109375 54.6875 
L 18.109375 46.1875 
Q 21.34375 51.125 25.703125 53.5625 
Q 30.078125 56 35.796875 56 
Q 45.21875 56 50.046875 50.171875 
Q 54.890625 44.34375 54.890625 33.015625 
z
" id="DejaVuSans-110"/>
       <path d="M 18.3125 70.21875 
L 18.3125 54.6875 
L 36.8125 54.6875 
L 36.8125 47.703125 
L 18.3125 47.703125 
L 18.3125 18.015625 
Q 18.3125 11.328125 20.140625 9.421875 
Q 21.96875 7.515625 27.59375 7.515625 
L 36.8125 7.515625 
L 36.8125 0 
L 27.59375 0 
Q 17.1875 0 13.234375 3.875 
Q 9.28125 7.765625 9.28125 18.015625 
L 9.28125 47.703125 
L 2.6875 47.703125 
L 2.6875 54.6875 
L 9.28125 54.6875 
L 9.28125 70.21875 
z
" id="DejaVuSans-116"/>
       <path d="M 9.421875 75.984375 
L 18.40625 75.984375 
L 18.40625 0 
L 9.421875 0 
z
" id="DejaVuSans-108"/>
       <path d="M 9.8125 72.90625 
L 55.90625 72.90625 
L 55.90625 64.59375 
L 19.671875 64.59375 
L 19.671875 43.015625 
L 54.390625 43.015625 
L 54.390625 34.71875 
L 19.671875 34.71875 
L 19.671875 8.296875 
L 56.78125 8.296875 
L 56.78125 0 
L 9.8125 0 
z
" id="DejaVuSans-69"/>
       <path d="M 14.796875 27.296875 
Q 14.796875 17.390625 18.875 11.75 
Q 22.953125 6.109375 30.078125 6.109375 
Q 37.203125 6.109375 41.296875 11.75 
Q 45.40625 17.390625 45.40625 27.296875 
Q 45.40625 37.203125 41.296875 42.84375 
Q 37.203125 48.484375 30.078125 48.484375 
Q 22.953125 48.484375 18.875 42.84375 
Q 14.796875 37.203125 14.796875 27.296875 
z
M 45.40625 8.203125 
Q 42.578125 3.328125 38.25 0.953125 
Q 33.9375 -1.421875 27.875 -1.421875 
Q 17.96875 -1.421875 11.734375 6.484375 
Q 5.515625 14.40625 5.515625 27.296875 
Q 5.515625 40.1875 11.734375 48.09375 
Q 17.96875 56 27.875 56 
Q 33.9375 56 38.25 53.625 
Q 42.578125 51.265625 45.40625 46.390625 
L 45.40625 54.6875 
L 54.390625 54.6875 
L 54.390625 -20.796875 
L 45.40625 -20.796875 
z
" id="DejaVuSans-113"/>
       <path d="M 8.5 21.578125 
L 8.5 54.6875 
L 17.484375 54.6875 
L 17.484375 21.921875 
Q 17.484375 14.15625 20.5 10.265625 
Q 23.53125 6.390625 29.59375 6.390625 
Q 36.859375 6.390625 41.078125 11.03125 
Q 45.3125 15.671875 45.3125 23.6875 
L 45.3125 54.6875 
L 54.296875 54.6875 
L 54.296875 0 
L 45.3125 0 
L 45.3125 8.40625 
Q 42.046875 3.421875 37.71875 1 
Q 33.40625 -1.421875 27.6875 -1.421875 
Q 18.265625 -1.421875 13.375 4.4375 
Q 8.5 10.296875 8.5 21.578125 
z
M 31.109375 56 
z
" id="DejaVuSans-117"/>
       <path d="M 30.609375 48.390625 
Q 23.390625 48.390625 19.1875 42.75 
Q 14.984375 37.109375 14.984375 27.296875 
Q 14.984375 17.484375 19.15625 11.84375 
Q 23.34375 6.203125 30.609375 6.203125 
Q 37.796875 6.203125 41.984375 11.859375 
Q 46.1875 17.53125 46.1875 27.296875 
Q 46.1875 37.015625 41.984375 42.703125 
Q 37.796875 48.390625 30.609375 48.390625 
z
M 30.609375 56 
Q 42.328125 56 49.015625 48.375 
Q 55.71875 40.765625 55.71875 27.296875 
Q 55.71875 13.875 49.015625 6.21875 
Q 42.328125 -1.421875 30.609375 -1.421875 
Q 18.84375 -1.421875 12.171875 6.21875 
Q 5.515625 13.875 5.515625 27.296875 
Q 5.515625 40.765625 12.171875 48.375 
Q 18.84375 56 30.609375 56 
z
" id="DejaVuSans-111"/>
      </defs>
      <use xlink:href="#DejaVuSans-68"/>
      <use x="77.001953" xlink:href="#DejaVuSans-105"/>
      <use x="104.785156" xlink:href="#DejaVuSans-102"/>
      <use x="139.990234" xlink:href="#DejaVuSans-102"/>
      <use x="175.195312" xlink:href="#DejaVuSans-101"/>
      <use x="236.71875" xlink:href="#DejaVuSans-114"/>
      <use x="275.582031" xlink:href="#DejaVuSans-101"/>
      <use x="337.105469" xlink:href="#DejaVuSans-110"/>
      <use x="400.484375" xlink:href="#DejaVuSans-116"/>
      <use x="439.693359" xlink:href="#DejaVuSans-105"/>
      <use x="467.476562" xlink:href="#DejaVuSans-97"/>
      <use x="528.755859" xlink:href="#DejaVuSans-108"/>
      <use x="556.539062" xlink:href="#DejaVuSans-69"/>
      <use x="619.722656" xlink:href="#DejaVuSans-113"/>
      <use x="683.199219" xlink:href="#DejaVuSans-117"/>
      <use x="746.578125" xlink:href="#DejaVuSans-97"/>
      <use x="807.857422" xlink:href="#DejaVuSans-116"/>
      <use x="847.066406" xlink:href="#DejaVuSans-105"/>
      <use x="874.849609" xlink:href="#DejaVuSans-111"/>
      <use x="936.03125" xlink:href="#DejaVuSans-110"/>
      <use x="999.410156" xlink:href="#DejaVuSans-115"/>
     </g>
    </g>
   </g>
  </g>
 </g>
 <defs>
  <clipPath id="p7201540630">
   <rect height="255.390709" width="371.795446" x="50.566553" y="2.834646"/>
  </clipPath>
 </defs>
</svg>
