<?xml version="1.0" encoding="utf-8" standalone="no"?>
<!DOCTYPE svg PUBLIC "-//W3C//DTD SVG 1.1//EN"
  "http://www.w3.org/Graphics/SVG/1.1/DTD/svg11.dtd">
<svg xmlns:xlink="http://www.w3.org/1999/xlink" width="432pt" height="288pt" viewBox="0 0 432 288" xmlns="http://www.w3.org/2000/svg" version="1.1">
 <metadata>
  <rdf:RDF xmlns:dc="http://purl.org/dc/elements/1.1/" xmlns:cc="http://creativecommons.org/ns#" xmlns:rdf="http://www.w3.org/1999/02/22-rdf-syntax-ns#">
   <cc:Work>
    <dc:type rdf:resource="http://purl.org/dc/dcmitype/StillImage"/>
    <dc:date>2022-08-23T20:36:01.981108</dc:date>
    <dc:format>image/svg+xml</dc:format>
    <dc:creator>
     <cc:Agent>
      <dc:title>Matplotlib v3.5.3, https://matplotlib.org/</dc:title>
     </cc:Agent>
    </dc:creator>
   </cc:Work>
  </rdf:RDF>
 </metadata>
 <defs>
  <style type="text/css">*{stroke-linejoin: round; stroke-linecap: butt}</style>
 </defs>
 <g id="figure_1">
  <g id="patch_1">
   <path d="M 0 288 
L 432 288 
L 432 0 
L 0 0 
z
" style="fill: #ffffff"/>
  </g>
  <g id="axes_1">
   <g id="patch_2">
    <path d="M 64.557544 258.225354 
L 422.361999 258.225354 
L 422.361999 2.834646 
L 64.557544 2.834646 
z
" style="fill: #ffffff"/>
   </g>
   <g id="line2d_1">
    <path d="M 64.557544 149.140225 
L 71.713633 149.260328 
L 72.965948 149.284173 
L 74.754971 149.341029 
L 76.365091 149.22003 
L 80.479842 148.987668 
L 83.878984 148.847257 
L 86.920322 148.946225 
L 87.814833 148.897662 
L 89.067149 149.049161 
L 90.140562 149.388648 
L 91.213976 149.876081 
L 92.466291 150.885854 
L 94.970922 153.055162 
L 96.223238 153.907759 
L 96.938847 154.271264 
L 98.01226 154.360634 
L 98.548967 154.122128 
L 99.264576 153.670645 
L 100.159087 152.627711 
L 100.695794 151.779398 
L 101.948109 149.182997 
L 103.558229 144.764416 
L 107.494078 134.415862 
L 108.925296 131.748412 
L 109.99871 130.122433 
L 111.072123 128.909096 
L 111.787732 128.523058 
L 112.324439 128.446806 
L 112.861145 128.626917 
L 113.397852 129.019018 
L 113.934559 129.727473 
L 114.650168 131.000912 
L 115.365776 132.826042 
L 116.260288 135.976905 
L 117.333701 140.774591 
L 118.407114 146.722909 
L 119.838332 156.013644 
L 121.985159 170.407822 
L 123.058572 176.270418 
L 123.953083 179.971019 
L 124.668692 181.904685 
L 125.205399 182.671353 
L 125.563203 182.936042 
L 125.921008 182.960779 
L 126.278812 182.782202 
L 126.636617 182.404907 
L 127.173323 181.436627 
L 127.888932 179.646521 
L 128.783444 176.58894 
L 132.898195 160.677369 
L 133.792706 158.36432 
L 134.866119 156.24447 
L 136.655142 152.484553 
L 137.728555 149.595653 
L 138.623066 146.702698 
L 140.412088 139.687045 
L 142.022208 133.720237 
L 142.91672 131.196243 
L 143.632328 129.786654 
L 144.169035 129.226097 
L 144.52684 129.125561 
L 144.884644 129.242924 
L 145.242448 129.571289 
L 145.600253 130.155279 
L 146.13696 131.484233 
L 146.852569 133.816077 
L 149.536102 143.796736 
L 150.251711 145.652318 
L 150.788418 146.513908 
L 151.325124 147.000882 
L 151.861831 147.108709 
L 152.398538 147.059815 
L 152.935244 146.791122 
L 153.829755 146.07006 
L 154.724267 145.17151 
L 156.334387 143.506679 
L 157.228898 142.954713 
L 159.196822 142.124989 
L 160.091333 141.491309 
L 160.62804 140.803936 
L 161.343649 139.443124 
L 162.059258 137.425838 
L 162.774867 134.89129 
L 164.563889 126.711846 
L 165.995107 120.447848 
L 166.710716 118.228798 
L 167.247422 117.046596 
L 167.784129 116.516431 
L 168.141934 116.469373 
L 168.499738 116.856325 
L 169.036445 118.031386 
L 169.394249 119.300291 
L 170.109858 123.06438 
L 170.825467 128.262068 
L 171.719978 136.340334 
L 174.940218 167.607151 
L 176.192534 176.238892 
L 177.623752 184.606489 
L 180.486187 199.262008 
L 181.201796 201.78026 
L 181.738503 203.117161 
L 182.27521 203.783324 
L 182.633014 203.927241 
L 182.990819 203.731435 
L 183.348623 203.304828 
L 183.706427 202.531417 
L 184.422036 200.190738 
L 184.958743 197.565655 
L 185.853254 191.998274 
L 188.894592 170.948522 
L 189.789103 166.065928 
L 190.504712 162.994872 
L 191.220321 160.79928 
L 192.472637 158.407683 
L 193.009343 157.410004 
L 193.903854 155.051224 
L 194.619463 152.074068 
L 195.15617 148.827009 
L 195.871779 143.040207 
L 196.945192 131.189922 
L 198.37641 114.425596 
L 199.092019 108.483978 
L 199.628726 105.887841 
L 199.98653 105.158231 
L 200.165432 105.128153 
L 200.344335 105.373734 
L 200.702139 106.702797 
L 201.059944 109.066103 
L 201.59665 114.555465 
L 202.133357 122.294868 
L 203.027868 139.233343 
L 204.637988 171.862769 
L 205.353597 181.499527 
L 205.711401 184.335679 
L 206.069206 185.711445 
L 206.248108 185.904384 
L 206.42701 185.75209 
L 206.605913 185.206025 
L 206.963717 183.013614 
L 207.500424 177.77624 
L 208.216033 167.779673 
L 209.826153 144.409282 
L 210.541762 137.485272 
L 211.257371 133.02691 
L 212.151882 129.441811 
L 213.225295 126.278103 
L 214.119806 124.174744 
L 215.551024 121.122721 
L 216.266633 118.727223 
L 216.982242 115.440017 
L 217.876753 109.997653 
L 218.950166 101.722325 
L 220.02358 93.774018 
L 220.560286 91.422654 
L 220.918091 90.839992 
L 221.096993 90.933341 
L 221.275895 91.303842 
L 221.6337 92.818597 
L 221.991504 95.360467 
L 222.528211 101.221044 
L 223.422722 114.257319 
L 224.85394 135.396198 
L 225.569549 142.620646 
L 225.927353 144.838433 
L 226.285158 146.049952 
L 226.46406 146.344227 
L 226.642962 146.411606 
L 226.821864 146.246376 
L 227.179669 145.276815 
L 227.895278 142.271594 
L 228.431984 140.052848 
L 228.789789 139.353975 
L 228.968691 139.283083 
L 229.147593 139.407226 
L 229.326496 139.778458 
L 229.6843 141.354547 
L 230.221007 145.4237 
L 230.757713 151.500202 
L 231.652224 164.664348 
L 235.588073 229.341386 
L 236.303682 237.330152 
L 236.661487 239.957303 
L 237.019291 241.341239 
L 237.198194 241.593544 
L 237.377096 241.491212 
L 237.555998 240.986523 
L 237.913802 238.695462 
L 238.450509 232.558504 
L 238.987216 223.165063 
L 240.060629 199.192148 
L 240.95514 180.86559 
L 241.491847 173.560718 
L 241.849651 170.698679 
L 242.207456 169.385603 
L 242.386358 169.231961 
L 242.56526 169.401678 
L 242.923065 170.66239 
L 243.459771 173.905218 
L 244.354283 179.874063 
L 244.712087 181.293544 
L 245.069892 181.911652 
L 245.248794 181.795377 
L 245.606598 180.740322 
L 246.143305 177.714478 
L 247.037816 170.172767 
L 247.753425 164.81121 
L 248.111229 163.288834 
L 248.290132 162.956482 
L 248.469034 162.961208 
L 248.647936 163.334997 
L 249.005741 165.308624 
L 249.363545 168.953297 
L 249.900252 176.939494 
L 251.33147 200.017744 
L 251.868176 204.919923 
L 252.225981 206.59288 
L 252.583785 207.392951 
L 252.762687 207.458676 
L 252.94159 207.278123 
L 253.299394 206.276539 
L 253.657198 204.496894 
L 254.015003 201.334912 
L 254.55171 193.72172 
L 255.088416 182.425554 
L 255.982927 157.457444 
L 257.414145 109.266968 
L 259.739874 27.55378 
L 260.276581 16.726051 
L 260.634385 12.459186 
L 260.99219 10.636977 
L 261.171092 10.606215 
L 261.349994 11.184679 
L 261.707799 14.209022 
L 262.244505 22.533629 
L 262.960114 39.307855 
L 264.749137 85.901061 
L 265.285843 93.160842 
L 265.643648 95.092675 
L 265.82255 95.1895 
L 266.001452 94.738151 
L 266.359257 92.568405 
L 267.074866 85.394839 
L 267.611572 80.697061 
L 267.969377 79.0505 
L 268.148279 78.849993 
L 268.327181 79.122546 
L 268.684986 80.924006 
L 269.04279 84.258181 
L 269.579497 92.550277 
L 270.116203 104.393789 
L 270.831812 126.489415 
L 271.726323 162.081843 
L 273.336444 226.493158 
L 273.87315 240.886552 
L 274.409857 249.112886 
L 274.767661 250.997315 
L 274.946564 250.777721 
L 275.125466 249.879879 
L 275.48327 246.254262 
L 275.841075 240.257732 
L 276.377781 227.271466 
L 277.272293 198.431037 
L 278.70351 151.885986 
L 279.598021 130.415446 
L 280.31363 118.391736 
L 280.850337 112.181449 
L 281.565946 106.280855 
L 282.102653 103.04957 
L 282.460457 101.650419 
L 282.639359 101.266619 
L 282.818262 101.189136 
L 282.997164 101.470986 
L 283.354968 103.252529 
L 283.712773 106.790012 
L 284.249479 115.235977 
L 286.396306 154.270252 
L 286.754111 157.567312 
L 287.111915 159.281653 
L 287.290817 159.537643 
L 287.46972 159.372933 
L 287.648622 158.730433 
L 288.006426 155.962528 
L 288.364231 151.34016 
L 288.900937 141.120011 
L 290.153253 109.896497 
L 291.047764 89.859929 
L 291.763373 77.949869 
L 292.30008 72.504917 
L 292.657884 70.947371 
L 292.836786 70.953869 
L 293.015689 71.516465 
L 293.373493 74.246577 
L 293.731297 79.464082 
L 294.268004 92.188907 
L 294.804711 110.066155 
L 296.057026 163.243775 
L 296.951538 197.986597 
L 297.488244 212.568267 
L 297.846049 218.836593 
L 298.203853 221.959076 
L 298.382755 222.422713 
L 298.561658 222.266922 
L 298.74056 221.518481 
L 299.098364 218.439153 
L 299.813973 208.666043 
L 300.708484 196.48304 
L 301.245191 192.255199 
L 301.424093 191.657322 
L 301.602996 191.531802 
L 301.781898 191.823659 
L 301.9608 192.523662 
L 302.318604 195.309313 
L 302.855311 202.709377 
L 304.465431 228.700087 
L 304.644333 229.724679 
L 304.823236 230.011403 
L 305.002138 229.557659 
L 305.359942 226.834203 
L 305.717747 222.04441 
L 306.970062 201.066958 
L 307.327867 198.278105 
L 307.506769 197.862303 
L 307.685671 198.013103 
L 307.864573 198.628879 
L 308.222378 200.976963 
L 308.937987 206.185363 
L 309.116889 206.762079 
L 309.295791 206.897945 
L 309.474694 206.465944 
L 309.832498 203.590971 
L 310.190302 198.236475 
L 310.727009 186.625987 
L 312.694934 139.065035 
L 313.23164 130.93759 
L 313.410543 129.72374 
L 313.589445 129.432198 
L 313.768347 130.181471 
L 313.947249 132.1027 
L 314.305054 139.997395 
L 314.662858 153.399715 
L 315.199565 182.044307 
L 316.094076 233.556552 
L 316.45188 245.812418 
L 316.630783 248.87142 
L 316.809685 249.725094 
L 316.988587 248.457808 
L 317.346392 240.296383 
L 317.883098 218.260095 
L 319.493218 145.282902 
L 320.387729 116.213228 
L 321.103338 99.757535 
L 321.818947 88.56959 
L 322.355654 82.643564 
L 322.713458 80.275437 
L 323.071263 79.299059 
L 323.250165 79.532938 
L 323.429067 80.334831 
L 323.786872 83.443148 
L 324.323578 90.554011 
L 325.21809 106.398213 
L 325.933698 123.621012 
L 327.007112 156.180262 
L 327.722721 174.8641 
L 328.259427 182.460487 
L 328.796134 186.507722 
L 329.332841 188.866396 
L 329.511743 189.252007 
L 329.690645 189.246054 
L 329.869547 188.70953 
L 330.227352 185.953348 
L 330.585156 180.809535 
L 331.121863 168.691147 
L 332.731983 128.174663 
L 333.089788 123.794848 
L 333.26869 123.476935 
L 333.447592 124.597959 
L 333.805397 131.031975 
L 335.236614 167.758889 
L 335.773321 173.344561 
L 337.025637 183.31403 
L 337.741246 187.991101 
L 337.920148 188.635043 
L 338.09905 188.813928 
L 338.277952 188.353786 
L 338.456854 187.097148 
L 338.814659 181.911282 
L 339.530268 165.213767 
L 340.603681 139.672664 
L 340.961486 134.382996 
L 341.140388 133.375773 
L 341.31929 133.718982 
L 341.498192 135.493674 
L 341.855997 143.159159 
L 343.108312 178.477904 
L 343.466117 182.864064 
L 343.645019 183.919122 
L 343.823921 184.208931 
L 344.002823 183.6213 
L 344.181726 182.105454 
L 344.53953 176.158182 
L 345.255139 156.414466 
L 345.970748 137.804369 
L 346.865259 121.604183 
L 347.223064 117.024356 
L 347.401966 115.85469 
L 347.580868 115.710878 
L 347.75977 116.750275 
L 348.117575 122.304739 
L 348.654281 137.239777 
L 349.727695 169.656817 
L 350.085499 175.250099 
L 350.264401 176.411993 
L 350.443304 176.465699 
L 350.622206 175.40961 
L 350.98001 169.97177 
L 351.516717 154.448168 
L 352.947935 100.651216 
L 353.842446 66.083104 
L 354.20025 57.981315 
L 354.558055 53.522887 
L 354.915859 51.957947 
L 355.094762 52.107218 
L 355.273664 52.86902 
L 355.631468 56.45072 
L 356.168175 66.857198 
L 356.883784 81.351101 
L 357.241588 83.920918 
L 357.420491 83.799612 
L 357.778295 81.839202 
L 358.136099 80.216664 
L 358.315002 80.437438 
L 358.493904 81.483319 
L 358.851708 85.584769 
L 359.388415 94.611744 
L 359.925122 106.906435 
L 360.461828 125.605057 
L 361.177437 152.70078 
L 361.535242 161.038096 
L 361.893046 164.144396 
L 362.071948 164.131655 
L 362.429753 162.712634 
L 363.145362 159.348541 
L 363.503166 155.263325 
L 363.860971 146.541653 
L 364.934384 111.160266 
L 365.292189 106.560932 
L 365.471091 106.00155 
L 365.649993 106.417567 
L 366.007797 109.497705 
L 366.365602 115.071984 
L 366.723406 123.793974 
L 367.260113 143.884342 
L 369.228038 232.87376 
L 369.585842 239.0414 
L 369.764744 240.130237 
L 369.943647 240.150084 
L 370.122549 239.313399 
L 370.480353 235.564608 
L 371.01706 226.628189 
L 371.553767 214.081274 
L 372.090473 195.050699 
L 373.521691 131.781663 
L 374.2373 119.142572 
L 374.952909 107.718681 
L 375.131811 106.117968 
L 375.310713 105.705608 
L 375.489616 106.61749 
L 375.84742 111.723261 
L 376.384127 119.62143 
L 376.741931 121.550071 
L 377.099736 123.552303 
L 377.45754 127.989466 
L 378.173149 138.029207 
L 378.352051 138.45379 
L 378.888758 136.657574 
L 379.06766 137.76853 
L 379.246562 140.837171 
L 379.604367 152.362382 
L 380.319976 178.681575 
L 380.67778 183.424435 
L 380.856682 183.791555 
L 381.393389 183.054668 
L 381.572291 182.7309 
L 381.751194 182.056772 
L 381.930096 180.753108 
L 382.2879 175.452789 
L 382.824607 165.008019 
L 383.003509 163.858674 
L 383.182411 164.674003 
L 384.076922 175.439132 
L 384.255825 174.74549 
L 384.613629 170.341646 
L 384.971434 165.678869 
L 385.329238 163.950255 
L 385.50814 163.568326 
L 385.687043 162.820558 
L 386.044847 159.308262 
L 386.939358 144.977467 
L 387.11826 144.984558 
L 387.297163 146.297448 
L 387.654967 151.281972 
L 388.72838 169.105326 
L 389.265087 174.957241 
L 390.159598 187.666715 
L 390.3385 188.116355 
L 390.517403 187.008698 
L 390.875207 180.332933 
L 391.411914 162.636897 
L 392.127523 139.641747 
L 392.843132 123.117328 
L 393.379838 114.527683 
L 394.095447 104.86441 
L 395.526665 75.193723 
L 395.705567 75.027363 
L 396.063372 77.280717 
L 396.421176 81.431997 
L 396.778981 89.670971 
L 397.315687 111.915583 
L 398.031296 142.255023 
L 398.389101 148.358274 
L 398.568003 149.454966 
L 398.746905 149.287633 
L 398.925807 147.924433 
L 399.283612 141.642551 
L 399.999221 127.564112 
L 400.178123 127.007264 
L 400.357025 128.224797 
L 401.251536 138.900936 
L 401.967145 141.867629 
L 402.146047 142.32908 
L 402.32495 142.34107 
L 402.503852 141.91822 
L 403.219461 138.113663 
L 403.577265 134.629359 
L 404.113972 128.068093 
L 404.292874 128.526722 
L 405.008483 137.173191 
L 405.187385 136.71195 
L 405.724092 132.688948 
L 405.902994 133.645622 
L 406.260799 139.957521 
L 406.797505 148.88375 
L 407.15531 151.82135 
L 407.513114 153.000748 
L 407.692017 154.050122 
L 407.870919 156.257638 
L 408.228723 165.841164 
L 408.944332 196.998017 
L 409.481039 218.784704 
L 410.554452 246.66941 
L 410.733354 248.14002 
L 410.912257 247.236929 
L 411.270061 239.662504 
L 411.98567 218.283113 
L 413.059083 194.160027 
L 413.416888 183.178259 
L 415.027008 108.062706 
L 415.384812 98.952049 
L 415.563715 97.074748 
L 415.742617 96.661174 
L 415.921519 97.190118 
L 416.279323 101.186871 
L 416.81603 112.873189 
L 417.531639 129.304351 
L 417.710541 129.729097 
L 418.068346 128.800226 
L 418.247248 129.929023 
L 418.783955 136.112166 
L 418.962857 136.248189 
L 419.141759 136.116865 
L 419.320661 136.658237 
L 419.678466 137.926528 
L 419.857368 136.822415 
L 420.394075 131.358173 
L 420.572977 131.104934 
L 421.109684 132.114786 
L 421.288586 132.041986 
L 421.467488 131.482593 
L 421.64639 129.958167 
L 422.004195 123.761346 
L 422.361999 116.763551 
L 422.361999 116.763551 
" clip-path="url(#pf019085382)" style="fill: none; stroke: #009afa"/>
   </g>
   <g id="matplotlib.axis_1">
    <g id="xtick_1">
     <g id="line2d_2">
      <defs>
       <path id="mac5b6c2dff" d="M 0 0 
L 0 -2.5 
" style="stroke: #000000; stroke-width: 0.5"/>
      </defs>
      <g>
       <use xlink:href="#mac5b6c2dff" x="64.557544" y="258.225354" style="stroke: #000000; stroke-width: 0.5"/>
      </g>
     </g>
     <g id="text_1">
      <!-- $0.0$ -->
      <g transform="translate(58.157544 267.804104)scale(0.08 -0.08)">
       <defs>
        <path id="DejaVuSans-30" d="M 2034 4250 
Q 1547 4250 1301 3770 
Q 1056 3291 1056 2328 
Q 1056 1369 1301 889 
Q 1547 409 2034 409 
Q 2525 409 2770 889 
Q 3016 1369 3016 2328 
Q 3016 3291 2770 3770 
Q 2525 4250 2034 4250 
z
M 2034 4750 
Q 2819 4750 3233 4129 
Q 3647 3509 3647 2328 
Q 3647 1150 3233 529 
Q 2819 -91 2034 -91 
Q 1250 -91 836 529 
Q 422 1150 422 2328 
Q 422 3509 836 4129 
Q 1250 4750 2034 4750 
z
" transform="scale(0.015625)"/>
        <path id="DejaVuSans-2e" d="M 684 794 
L 1344 794 
L 1344 0 
L 684 0 
L 684 794 
z
" transform="scale(0.015625)"/>
       </defs>
       <use xlink:href="#DejaVuSans-30" transform="translate(0 0.78125)"/>
       <use xlink:href="#DejaVuSans-2e" transform="translate(63.623047 0.78125)"/>
       <use xlink:href="#DejaVuSans-30" transform="translate(95.410156 0.78125)"/>
      </g>
     </g>
    </g>
    <g id="xtick_2">
     <g id="line2d_3">
      <g>
       <use xlink:href="#mac5b6c2dff" x="154.008658" y="258.225354" style="stroke: #000000; stroke-width: 0.5"/>
      </g>
     </g>
     <g id="text_2">
      <!-- $0.5$ -->
      <g transform="translate(147.608658 267.804104)scale(0.08 -0.08)">
       <defs>
        <path id="DejaVuSans-35" d="M 691 4666 
L 3169 4666 
L 3169 4134 
L 1269 4134 
L 1269 2991 
Q 1406 3038 1543 3061 
Q 1681 3084 1819 3084 
Q 2600 3084 3056 2656 
Q 3513 2228 3513 1497 
Q 3513 744 3044 326 
Q 2575 -91 1722 -91 
Q 1428 -91 1123 -41 
Q 819 9 494 109 
L 494 744 
Q 775 591 1075 516 
Q 1375 441 1709 441 
Q 2250 441 2565 725 
Q 2881 1009 2881 1497 
Q 2881 1984 2565 2268 
Q 2250 2553 1709 2553 
Q 1456 2553 1204 2497 
Q 953 2441 691 2322 
L 691 4666 
z
" transform="scale(0.015625)"/>
       </defs>
       <use xlink:href="#DejaVuSans-30" transform="translate(0 0.78125)"/>
       <use xlink:href="#DejaVuSans-2e" transform="translate(63.623047 0.78125)"/>
       <use xlink:href="#DejaVuSans-35" transform="translate(95.410156 0.78125)"/>
      </g>
     </g>
    </g>
    <g id="xtick_3">
     <g id="line2d_4">
      <g>
       <use xlink:href="#mac5b6c2dff" x="243.459771" y="258.225354" style="stroke: #000000; stroke-width: 0.5"/>
      </g>
     </g>
     <g id="text_3">
      <!-- $1.0$ -->
      <g transform="translate(237.059771 267.804104)scale(0.08 -0.08)">
       <defs>
        <path id="DejaVuSans-31" d="M 794 531 
L 1825 531 
L 1825 4091 
L 703 3866 
L 703 4441 
L 1819 4666 
L 2450 4666 
L 2450 531 
L 3481 531 
L 3481 0 
L 794 0 
L 794 531 
z
" transform="scale(0.015625)"/>
       </defs>
       <use xlink:href="#DejaVuSans-31" transform="translate(0 0.78125)"/>
       <use xlink:href="#DejaVuSans-2e" transform="translate(63.623047 0.78125)"/>
       <use xlink:href="#DejaVuSans-30" transform="translate(95.410156 0.78125)"/>
      </g>
     </g>
    </g>
    <g id="xtick_4">
     <g id="line2d_5">
      <g>
       <use xlink:href="#mac5b6c2dff" x="332.910885" y="258.225354" style="stroke: #000000; stroke-width: 0.5"/>
      </g>
     </g>
     <g id="text_4">
      <!-- $1.5$ -->
      <g transform="translate(326.510885 267.804104)scale(0.08 -0.08)">
       <use xlink:href="#DejaVuSans-31" transform="translate(0 0.09375)"/>
       <use xlink:href="#DejaVuSans-2e" transform="translate(63.623047 0.09375)"/>
       <use xlink:href="#DejaVuSans-35" transform="translate(95.410156 0.09375)"/>
      </g>
     </g>
    </g>
    <g id="xtick_5">
     <g id="line2d_6">
      <g>
       <use xlink:href="#mac5b6c2dff" x="422.361999" y="258.225354" style="stroke: #000000; stroke-width: 0.5"/>
      </g>
     </g>
     <g id="text_5">
      <!-- $2.0$ -->
      <g transform="translate(415.961999 267.804104)scale(0.08 -0.08)">
       <defs>
        <path id="DejaVuSans-32" d="M 1228 531 
L 3431 531 
L 3431 0 
L 469 0 
L 469 531 
Q 828 903 1448 1529 
Q 2069 2156 2228 2338 
Q 2531 2678 2651 2914 
Q 2772 3150 2772 3378 
Q 2772 3750 2511 3984 
Q 2250 4219 1831 4219 
Q 1534 4219 1204 4116 
Q 875 4013 500 3803 
L 500 4441 
Q 881 4594 1212 4672 
Q 1544 4750 1819 4750 
Q 2544 4750 2975 4387 
Q 3406 4025 3406 3419 
Q 3406 3131 3298 2873 
Q 3191 2616 2906 2266 
Q 2828 2175 2409 1742 
Q 1991 1309 1228 531 
z
" transform="scale(0.015625)"/>
       </defs>
       <use xlink:href="#DejaVuSans-32" transform="translate(0 0.78125)"/>
       <use xlink:href="#DejaVuSans-2e" transform="translate(63.623047 0.78125)"/>
       <use xlink:href="#DejaVuSans-30" transform="translate(95.410156 0.78125)"/>
      </g>
     </g>
    </g>
    <g id="text_6">
     <!-- Time (s) -->
     <g transform="translate(221.097975 281.826136)scale(0.11 -0.11)">
      <defs>
       <path id="DejaVuSans-54" d="M -19 4666 
L 3928 4666 
L 3928 4134 
L 2272 4134 
L 2272 0 
L 1638 0 
L 1638 4134 
L -19 4134 
L -19 4666 
z
" transform="scale(0.015625)"/>
       <path id="DejaVuSans-69" d="M 603 3500 
L 1178 3500 
L 1178 0 
L 603 0 
L 603 3500 
z
M 603 4863 
L 1178 4863 
L 1178 4134 
L 603 4134 
L 603 4863 
z
" transform="scale(0.015625)"/>
       <path id="DejaVuSans-6d" d="M 3328 2828 
Q 3544 3216 3844 3400 
Q 4144 3584 4550 3584 
Q 5097 3584 5394 3201 
Q 5691 2819 5691 2113 
L 5691 0 
L 5113 0 
L 5113 2094 
Q 5113 2597 4934 2840 
Q 4756 3084 4391 3084 
Q 3944 3084 3684 2787 
Q 3425 2491 3425 1978 
L 3425 0 
L 2847 0 
L 2847 2094 
Q 2847 2600 2669 2842 
Q 2491 3084 2119 3084 
Q 1678 3084 1418 2786 
Q 1159 2488 1159 1978 
L 1159 0 
L 581 0 
L 581 3500 
L 1159 3500 
L 1159 2956 
Q 1356 3278 1631 3431 
Q 1906 3584 2284 3584 
Q 2666 3584 2933 3390 
Q 3200 3197 3328 2828 
z
" transform="scale(0.015625)"/>
       <path id="DejaVuSans-65" d="M 3597 1894 
L 3597 1613 
L 953 1613 
Q 991 1019 1311 708 
Q 1631 397 2203 397 
Q 2534 397 2845 478 
Q 3156 559 3463 722 
L 3463 178 
Q 3153 47 2828 -22 
Q 2503 -91 2169 -91 
Q 1331 -91 842 396 
Q 353 884 353 1716 
Q 353 2575 817 3079 
Q 1281 3584 2069 3584 
Q 2775 3584 3186 3129 
Q 3597 2675 3597 1894 
z
M 3022 2063 
Q 3016 2534 2758 2815 
Q 2500 3097 2075 3097 
Q 1594 3097 1305 2825 
Q 1016 2553 972 2059 
L 3022 2063 
z
" transform="scale(0.015625)"/>
       <path id="DejaVuSans-20" transform="scale(0.015625)"/>
       <path id="DejaVuSans-28" d="M 1984 4856 
Q 1566 4138 1362 3434 
Q 1159 2731 1159 2009 
Q 1159 1288 1364 580 
Q 1569 -128 1984 -844 
L 1484 -844 
Q 1016 -109 783 600 
Q 550 1309 550 2009 
Q 550 2706 781 3412 
Q 1013 4119 1484 4856 
L 1984 4856 
z
" transform="scale(0.015625)"/>
       <path id="DejaVuSans-73" d="M 2834 3397 
L 2834 2853 
Q 2591 2978 2328 3040 
Q 2066 3103 1784 3103 
Q 1356 3103 1142 2972 
Q 928 2841 928 2578 
Q 928 2378 1081 2264 
Q 1234 2150 1697 2047 
L 1894 2003 
Q 2506 1872 2764 1633 
Q 3022 1394 3022 966 
Q 3022 478 2636 193 
Q 2250 -91 1575 -91 
Q 1294 -91 989 -36 
Q 684 19 347 128 
L 347 722 
Q 666 556 975 473 
Q 1284 391 1588 391 
Q 1994 391 2212 530 
Q 2431 669 2431 922 
Q 2431 1156 2273 1281 
Q 2116 1406 1581 1522 
L 1381 1569 
Q 847 1681 609 1914 
Q 372 2147 372 2553 
Q 372 3047 722 3315 
Q 1072 3584 1716 3584 
Q 2034 3584 2315 3537 
Q 2597 3491 2834 3397 
z
" transform="scale(0.015625)"/>
       <path id="DejaVuSans-29" d="M 513 4856 
L 1013 4856 
Q 1481 4119 1714 3412 
Q 1947 2706 1947 2009 
Q 1947 1309 1714 600 
Q 1481 -109 1013 -844 
L 513 -844 
Q 928 -128 1133 580 
Q 1338 1288 1338 2009 
Q 1338 2731 1133 3434 
Q 928 4138 513 4856 
z
" transform="scale(0.015625)"/>
      </defs>
      <use xlink:href="#DejaVuSans-54"/>
      <use xlink:href="#DejaVuSans-69" x="57.958984"/>
      <use xlink:href="#DejaVuSans-6d" x="85.742188"/>
      <use xlink:href="#DejaVuSans-65" x="183.154297"/>
      <use xlink:href="#DejaVuSans-20" x="244.677734"/>
      <use xlink:href="#DejaVuSans-28" x="276.464844"/>
      <use xlink:href="#DejaVuSans-73" x="315.478516"/>
      <use xlink:href="#DejaVuSans-29" x="367.578125"/>
     </g>
    </g>
   </g>
   <g id="matplotlib.axis_2">
    <g id="ytick_1">
     <g id="line2d_7">
      <defs>
       <path id="mc5c48af36b" d="M 0 0 
L 2.5 0 
" style="stroke: #000000; stroke-width: 0.5"/>
      </defs>
      <g>
       <use xlink:href="#mc5c48af36b" x="64.557544" y="225.604645" style="stroke: #000000; stroke-width: 0.5"/>
      </g>
     </g>
     <g id="text_7">
      <!-- $-2.0×10^{6}$ -->
      <g transform="translate(20.817544 228.64402)scale(0.08 -0.08)">
       <defs>
        <path id="DejaVuSans-2212" d="M 678 2272 
L 4684 2272 
L 4684 1741 
L 678 1741 
L 678 2272 
z
" transform="scale(0.015625)"/>
        <path id="DejaVuSans-d7" d="M 4488 3438 
L 3059 2003 
L 4488 575 
L 4116 197 
L 2681 1631 
L 1247 197 
L 878 575 
L 2303 2003 
L 878 3438 
L 1247 3816 
L 2681 2381 
L 4116 3816 
L 4488 3438 
z
" transform="scale(0.015625)"/>
        <path id="DejaVuSans-36" d="M 2113 2584 
Q 1688 2584 1439 2293 
Q 1191 2003 1191 1497 
Q 1191 994 1439 701 
Q 1688 409 2113 409 
Q 2538 409 2786 701 
Q 3034 994 3034 1497 
Q 3034 2003 2786 2293 
Q 2538 2584 2113 2584 
z
M 3366 4563 
L 3366 3988 
Q 3128 4100 2886 4159 
Q 2644 4219 2406 4219 
Q 1781 4219 1451 3797 
Q 1122 3375 1075 2522 
Q 1259 2794 1537 2939 
Q 1816 3084 2150 3084 
Q 2853 3084 3261 2657 
Q 3669 2231 3669 1497 
Q 3669 778 3244 343 
Q 2819 -91 2113 -91 
Q 1303 -91 875 529 
Q 447 1150 447 2328 
Q 447 3434 972 4092 
Q 1497 4750 2381 4750 
Q 2619 4750 2861 4703 
Q 3103 4656 3366 4563 
z
" transform="scale(0.015625)"/>
       </defs>
       <use xlink:href="#DejaVuSans-2212" transform="translate(0 0.765625)"/>
       <use xlink:href="#DejaVuSans-32" transform="translate(83.789062 0.765625)"/>
       <use xlink:href="#DejaVuSans-2e" transform="translate(147.412109 0.765625)"/>
       <use xlink:href="#DejaVuSans-30" transform="translate(179.199219 0.765625)"/>
       <use xlink:href="#DejaVuSans-d7" transform="translate(242.822266 0.765625)"/>
       <use xlink:href="#DejaVuSans-31" transform="translate(326.611328 0.765625)"/>
       <use xlink:href="#DejaVuSans-30" transform="translate(390.234375 0.765625)"/>
       <use xlink:href="#DejaVuSans-36" transform="translate(454.814453 39.046875)scale(0.7)"/>
      </g>
     </g>
    </g>
    <g id="ytick_2">
     <g id="line2d_8">
      <g>
       <use xlink:href="#mc5c48af36b" x="64.557544" y="187.372435" style="stroke: #000000; stroke-width: 0.5"/>
      </g>
     </g>
     <g id="text_8">
      <!-- $-1.0×10^{6}$ -->
      <g transform="translate(20.817544 190.41181)scale(0.08 -0.08)">
       <use xlink:href="#DejaVuSans-2212" transform="translate(0 0.765625)"/>
       <use xlink:href="#DejaVuSans-31" transform="translate(83.789062 0.765625)"/>
       <use xlink:href="#DejaVuSans-2e" transform="translate(147.412109 0.765625)"/>
       <use xlink:href="#DejaVuSans-30" transform="translate(179.199219 0.765625)"/>
       <use xlink:href="#DejaVuSans-d7" transform="translate(242.822266 0.765625)"/>
       <use xlink:href="#DejaVuSans-31" transform="translate(326.611328 0.765625)"/>
       <use xlink:href="#DejaVuSans-30" transform="translate(390.234375 0.765625)"/>
       <use xlink:href="#DejaVuSans-36" transform="translate(454.814453 39.046875)scale(0.7)"/>
      </g>
     </g>
    </g>
    <g id="ytick_3">
     <g id="line2d_9">
      <g>
       <use xlink:href="#mc5c48af36b" x="64.557544" y="149.140225" style="stroke: #000000; stroke-width: 0.5"/>
      </g>
     </g>
     <g id="text_9">
      <!-- $0$ -->
      <g transform="translate(55.937544 152.1796)scale(0.08 -0.08)">
       <use xlink:href="#DejaVuSans-30" transform="translate(0 0.78125)"/>
      </g>
     </g>
    </g>
    <g id="ytick_4">
     <g id="line2d_10">
      <g>
       <use xlink:href="#mc5c48af36b" x="64.557544" y="110.908014" style="stroke: #000000; stroke-width: 0.5"/>
      </g>
     </g>
     <g id="text_10">
      <!-- $1.0×10^{6}$ -->
      <g transform="translate(27.537544 113.947389)scale(0.08 -0.08)">
       <use xlink:href="#DejaVuSans-31" transform="translate(0 0.765625)"/>
       <use xlink:href="#DejaVuSans-2e" transform="translate(63.623047 0.765625)"/>
       <use xlink:href="#DejaVuSans-30" transform="translate(95.410156 0.765625)"/>
       <use xlink:href="#DejaVuSans-d7" transform="translate(159.033203 0.765625)"/>
       <use xlink:href="#DejaVuSans-31" transform="translate(242.822266 0.765625)"/>
       <use xlink:href="#DejaVuSans-30" transform="translate(306.445312 0.765625)"/>
       <use xlink:href="#DejaVuSans-36" transform="translate(371.025391 39.046875)scale(0.7)"/>
      </g>
     </g>
    </g>
    <g id="ytick_5">
     <g id="line2d_11">
      <g>
       <use xlink:href="#mc5c48af36b" x="64.557544" y="72.675804" style="stroke: #000000; stroke-width: 0.5"/>
      </g>
     </g>
     <g id="text_11">
      <!-- $2.0×10^{6}$ -->
      <g transform="translate(27.537544 75.715179)scale(0.08 -0.08)">
       <use xlink:href="#DejaVuSans-32" transform="translate(0 0.765625)"/>
       <use xlink:href="#DejaVuSans-2e" transform="translate(63.623047 0.765625)"/>
       <use xlink:href="#DejaVuSans-30" transform="translate(95.410156 0.765625)"/>
       <use xlink:href="#DejaVuSans-d7" transform="translate(159.033203 0.765625)"/>
       <use xlink:href="#DejaVuSans-31" transform="translate(242.822266 0.765625)"/>
       <use xlink:href="#DejaVuSans-30" transform="translate(306.445312 0.765625)"/>
       <use xlink:href="#DejaVuSans-36" transform="translate(371.025391 39.046875)scale(0.7)"/>
      </g>
     </g>
    </g>
    <g id="ytick_6">
     <g id="line2d_12">
      <g>
       <use xlink:href="#mc5c48af36b" x="64.557544" y="34.443594" style="stroke: #000000; stroke-width: 0.5"/>
      </g>
     </g>
     <g id="text_12">
      <!-- $3.0×10^{6}$ -->
      <g transform="translate(27.537544 37.482969)scale(0.08 -0.08)">
       <defs>
        <path id="DejaVuSans-33" d="M 2597 2516 
Q 3050 2419 3304 2112 
Q 3559 1806 3559 1356 
Q 3559 666 3084 287 
Q 2609 -91 1734 -91 
Q 1441 -91 1130 -33 
Q 819 25 488 141 
L 488 750 
Q 750 597 1062 519 
Q 1375 441 1716 441 
Q 2309 441 2620 675 
Q 2931 909 2931 1356 
Q 2931 1769 2642 2001 
Q 2353 2234 1838 2234 
L 1294 2234 
L 1294 2753 
L 1863 2753 
Q 2328 2753 2575 2939 
Q 2822 3125 2822 3475 
Q 2822 3834 2567 4026 
Q 2313 4219 1838 4219 
Q 1578 4219 1281 4162 
Q 984 4106 628 3988 
L 628 4550 
Q 988 4650 1302 4700 
Q 1616 4750 1894 4750 
Q 2613 4750 3031 4423 
Q 3450 4097 3450 3541 
Q 3450 3153 3228 2886 
Q 3006 2619 2597 2516 
z
" transform="scale(0.015625)"/>
       </defs>
       <use xlink:href="#DejaVuSans-33" transform="translate(0 0.765625)"/>
       <use xlink:href="#DejaVuSans-2e" transform="translate(63.623047 0.765625)"/>
       <use xlink:href="#DejaVuSans-30" transform="translate(95.410156 0.765625)"/>
       <use xlink:href="#DejaVuSans-d7" transform="translate(159.033203 0.765625)"/>
       <use xlink:href="#DejaVuSans-31" transform="translate(242.822266 0.765625)"/>
       <use xlink:href="#DejaVuSans-30" transform="translate(306.445312 0.765625)"/>
       <use xlink:href="#DejaVuSans-36" transform="translate(371.025391 39.046875)scale(0.7)"/>
      </g>
     </g>
    </g>
    <g id="text_13">
     <!-- $M_z$ ($N$) -->
     <g transform="translate(14.529888 147.635)rotate(-90)scale(0.11 -0.11)">
      <defs>
       <path id="DejaVuSans-Oblique-4d" d="M 1081 4666 
L 2028 4666 
L 2572 1522 
L 4378 4666 
L 5350 4666 
L 4441 0 
L 3828 0 
L 4622 4091 
L 2791 897 
L 2175 897 
L 1581 4103 
L 788 0 
L 172 0 
L 1081 4666 
z
" transform="scale(0.015625)"/>
       <path id="DejaVuSans-Oblique-7a" d="M 744 3500 
L 3475 3500 
L 3372 2975 
L 738 459 
L 2913 459 
L 2822 0 
L -19 0 
L 84 525 
L 2719 3041 
L 653 3041 
L 744 3500 
z
" transform="scale(0.015625)"/>
       <path id="DejaVuSans-Oblique-4e" d="M 1081 4666 
L 1931 4666 
L 3219 666 
L 4000 4666 
L 4616 4666 
L 3706 0 
L 2853 0 
L 1569 4025 
L 788 0 
L 172 0 
L 1081 4666 
z
" transform="scale(0.015625)"/>
      </defs>
      <use xlink:href="#DejaVuSans-Oblique-4d" transform="translate(0 0.125)"/>
      <use xlink:href="#DejaVuSans-Oblique-7a" transform="translate(86.279297 -16.28125)scale(0.7)"/>
      <use xlink:href="#DejaVuSans-20" transform="translate(125.756836 0.125)"/>
      <use xlink:href="#DejaVuSans-28" transform="translate(157.543945 0.125)"/>
      <use xlink:href="#DejaVuSans-Oblique-4e" transform="translate(196.557617 0.125)"/>
      <use xlink:href="#DejaVuSans-29" transform="translate(271.362305 0.125)"/>
     </g>
    </g>
   </g>
   <g id="line2d_13">
    <path d="M 64.557544 149.140225 
L 71.457545 149.245463 
L 72.902128 149.278578 
L 73.452259 149.314197 
L 74.905379 149.323724 
L 76.783854 149.195999 
L 78.209396 149.185887 
L 81.110072 148.962223 
L 82.440287 148.892682 
L 83.779501 148.860955 
L 85.00813 148.93151 
L 86.387143 148.968225 
L 88.423977 148.936973 
L 89.401953 149.164651 
L 90.673033 149.567071 
L 91.827755 150.363248 
L 96.082079 153.825113 
L 97.183684 154.309718 
L 98.079434 154.316683 
L 99.132972 153.787444 
L 100.061091 152.757188 
L 100.781947 151.621881 
L 101.42078 150.413807 
L 103.106362 146.069704 
L 104.36691 142.454554 
L 107.152843 135.180367 
L 108.14911 133.117197 
L 109.162321 131.360343 
L 110.203295 129.830603 
L 111.154057 128.842309 
L 111.960789 128.425027 
L 112.370593 128.440368 
L 113.193536 128.859624 
L 113.740719 129.421396 
L 114.287903 130.236648 
L 114.854357 131.481249 
L 115.652211 133.765387 
L 116.483903 136.898709 
L 117.385194 141.068185 
L 118.591038 147.849594 
L 120.15936 158.333108 
L 121.836865 169.492063 
L 122.979458 175.965447 
L 123.841378 179.564435 
L 124.415991 181.322023 
L 124.990604 182.423928 
L 125.535916 182.894959 
L 126.051925 182.864402 
L 126.516469 182.535375 
L 126.929546 181.967356 
L 127.587324 180.475979 
L 128.25951 178.428831 
L 129.612107 173.19934 
L 132.177685 163.00143 
L 133.158074 159.968313 
L 134.138462 157.73414 
L 136.344336 153.186437 
L 137.50386 150.271476 
L 138.467029 147.209124 
L 139.448686 143.479538 
L 142.042121 133.702026 
L 143.050858 130.858844 
L 143.688588 129.703212 
L 144.271879 129.173783 
L 144.601268 129.131584 
L 144.932466 129.281653 
L 145.300203 129.661677 
L 145.718107 130.465722 
L 146.409123 132.420029 
L 147.43497 136.11095 
L 149.294564 143.111087 
L 150.137641 145.365424 
L 150.73351 146.347665 
L 151.376908 146.928153 
L 152.020307 147.080514 
L 152.663705 146.917268 
L 153.307103 146.569474 
L 154.2722 145.660039 
L 155.653566 144.094372 
L 157.314617 142.885019 
L 159.936114 141.638194 
L 160.562999 140.980167 
L 161.204564 139.763773 
L 161.751569 138.358788 
L 162.574879 135.566549 
L 163.838439 130.090052 
L 165.856852 121.013328 
L 166.825295 117.857577 
L 167.430732 116.763885 
L 167.734224 116.504086 
L 168.039419 116.45906 
L 168.344795 116.64257 
L 168.65017 117.108164 
L 169.111513 118.284127 
L 169.610345 120.355204 
L 170.338819 124.602033 
L 171.16879 131.210589 
L 172.254769 141.895799 
L 174.180375 161.233884 
L 175.278605 170.14686 
L 176.400706 177.571923 
L 178.019229 186.700125 
L 180.292329 198.528033 
L 180.965309 201.040588 
L 181.642949 202.851873 
L 182.320589 203.824692 
L 182.659409 203.90535 
L 182.998229 203.760636 
L 183.337049 203.406456 
L 183.87298 202.147972 
L 184.408911 200.174469 
L 185.144018 196.378547 
L 186.224274 189.29212 
L 189.166922 169.056827 
L 189.978543 165.025198 
L 190.70167 162.322507 
L 191.4096 160.537384 
L 194.131763 154.422601 
L 194.692589 151.894506 
L 195.256945 148.305175 
L 195.911071 142.472652 
L 196.849205 131.979899 
L 198.481798 113.446347 
L 199.196112 107.89044 
L 199.654395 105.723413 
L 199.981971 105.053365 
L 200.127721 105.021128 
L 200.278845 105.173147 
L 200.512939 105.780418 
L 200.828986 107.308882 
L 201.224045 110.455013 
L 201.798657 117.375999 
L 202.39524 127.10356 
L 203.530348 150.2748 
L 204.723434 173.312777 
L 205.407414 182.244543 
L 205.777231 184.965298 
L 205.96214 185.751577 
L 206.175648 186.152113 
L 206.389157 186.003602 
L 206.624114 185.248032 
L 206.859071 183.897251 
L 207.403662 178.645293 
L 208.298266 165.994456 
L 209.522456 148.044262 
L 210.134551 141.176676 
L 210.746646 136.067473 
L 211.35874 132.454388 
L 212.065025 129.451882 
L 212.870561 127.173555 
L 215.846364 120.069448 
L 216.661216 117.047583 
L 217.361143 113.536183 
L 218.035406 109.011543 
L 219.193648 99.288562 
L 219.988202 93.399983 
L 220.447367 91.28089 
L 220.771444 90.697948 
L 220.962345 90.682145 
L 221.164528 90.959601 
L 221.434775 91.876765 
L 221.772482 93.906574 
L 222.249579 98.225424 
L 222.909171 106.587658 
L 225.519204 142.624536 
L 225.98694 145.34531 
L 226.311194 146.18493 
L 226.557636 146.287059 
L 226.728073 146.120358 
L 226.988393 145.521364 
L 227.454123 143.738759 
L 228.312863 140.279882 
L 228.702176 139.56646 
L 228.97992 139.535133 
L 229.259101 140.019848 
L 229.661144 141.679002 
L 230.152593 145.143155 
L 230.766903 151.727655 
L 231.523138 162.595737 
L 232.932815 187.079246 
L 234.647211 215.198322 
L 235.911738 233.557333 
L 236.592513 240.388857 
L 237.06194 242.414105 
L 237.308358 242.424789 
L 237.554776 241.627764 
L 237.801193 240.004791 
L 238.314775 234.226268 
L 238.86332 224.848544 
L 240.015395 199.459957 
L 240.922762 181.152814 
L 241.527673 173.036785 
L 241.830129 170.640583 
L 242.132585 169.384266 
L 242.43504 169.219062 
L 242.737496 170.046702 
L 243.342407 173.685457 
L 244.249774 180.19545 
L 244.55223 181.593449 
L 244.854686 182.268177 
L 245.157142 182.181808 
L 245.459597 181.368426 
L 246.064509 177.698973 
L 247.941595 163.380528 
L 248.229281 162.714051 
L 248.387473 162.705279 
L 248.545666 162.969221 
L 248.782955 163.955516 
L 249.139531 166.825618 
L 249.627402 173.104028 
L 250.541262 188.92063 
L 251.270926 199.834743 
L 251.781094 204.56591 
L 252.184057 206.635493 
L 252.484292 207.355344 
L 252.705009 207.481904 
L 252.882592 207.359833 
L 253.136343 206.832999 
L 253.396748 205.782739 
L 253.75821 203.269305 
L 254.219078 198.074188 
L 254.746645 189.126327 
L 255.38066 174.463956 
L 256.3209 147.19349 
L 257.457598 107.465442 
L 259.531233 32.050109 
L 260.142628 18.133942 
L 260.621547 11.936434 
L 260.883316 10.372288 
L 261.070679 10.062685 
L 261.166208 10.167126 
L 261.366033 10.945068 
L 261.66577 13.444657 
L 262.076212 19.392401 
L 262.636983 31.529862 
L 263.583664 58.047318 
L 264.529146 82.713494 
L 264.981475 90.495788 
L 265.3073 93.725497 
L 265.52498 94.740852 
L 265.650022 94.930078 
L 265.775065 94.8461 
L 266.029961 93.906508 
L 266.423788 90.895209 
L 267.690569 79.594227 
L 267.973979 78.703571 
L 268.120375 78.639927 
L 268.269793 78.866316 
L 268.58982 80.284475 
L 268.917673 83.047442 
L 269.423033 90.062108 
L 269.928393 100.434656 
L 270.602207 119.837036 
L 271.516638 154.728113 
L 273.360907 227.83553 
L 274.000262 243.327791 
L 274.427229 248.969169 
L 274.747454 250.692892 
L 274.854195 250.762677 
L 274.960937 250.574325 
L 275.17442 249.459723 
L 275.494645 246.085267 
L 275.921612 238.552591 
L 276.51428 223.185913 
L 277.460989 191.431471 
L 278.786872 148.44615 
L 279.583864 129.61823 
L 280.235758 118.979345 
L 280.917475 111.320411 
L 281.637526 105.456765 
L 282.222089 102.130139 
L 282.556125 101.341474 
L 282.727994 101.365003 
L 282.913725 101.765031 
L 283.179072 103.084299 
L 283.516439 106.094591 
L 283.961813 112.189188 
L 284.795478 127.469535 
L 285.970157 148.08102 
L 286.604768 155.702476 
L 286.9822 158.215286 
L 287.276663 158.882649 
L 287.375239 158.820289 
L 287.572391 158.242255 
L 287.871135 156.252149 
L 288.269459 151.553485 
L 288.777459 142.522012 
L 289.746566 120.0412 
L 291.137268 88.344274 
L 291.860287 76.260327 
L 292.293458 71.801526 
L 292.607225 70.102282 
L 292.767467 69.887111 
L 292.937009 70.173116 
L 293.276762 72.25494 
L 293.618698 76.696562 
L 294.13387 88.136029 
L 294.820767 111.252344 
L 295.866136 156.699816 
L 296.876214 197.72119 
L 297.433448 212.701942 
L 297.853721 219.153983 
L 298.134686 221.224353 
L 298.275168 221.609634 
L 298.421759 221.60702 
L 298.570733 221.234679 
L 298.868681 219.4722 
L 299.256007 215.341601 
L 301.075284 192.530755 
L 301.375319 191.193306 
L 301.560414 191.004049 
L 301.694394 191.203006 
L 301.904403 192.129137 
L 302.213927 194.897348 
L 302.672467 201.679037 
L 304.15493 227.390683 
L 304.513355 229.729345 
L 304.63283 229.977 
L 304.752305 229.936834 
L 304.991255 228.950506 
L 305.349681 225.34649 
L 305.939929 215.961343 
L 306.789928 202.525667 
L 307.179921 199.174419 
L 307.386315 198.485152 
L 307.532209 198.453307 
L 307.682194 198.767587 
L 307.920321 199.869635 
L 308.348107 203.134666 
L 308.918311 207.377036 
L 309.142608 208.013958 
L 309.22104 208.013736 
L 309.382598 207.603216 
L 309.629558 205.879657 
L 309.97104 201.484063 
L 310.504121 190.901869 
L 311.957739 154.609147 
L 312.878422 133.30579 
L 313.303386 127.477914 
L 313.509844 126.491621 
L 313.613073 126.569883 
L 313.819531 128.032314 
L 314.113458 133.504899 
L 314.468395 145.797663 
L 315.01313 175.064748 
L 316.051623 235.598107 
L 316.363235 245.296292 
L 316.589094 248.400812 
L 316.702024 248.681427 
L 316.826618 248.052054 
L 317.096356 243.646636 
L 317.546716 229.064691 
L 320.439964 112.618263 
L 321.041322 100.208938 
L 321.630922 92.526518 
L 322.437279 85.087952 
L 322.840648 83.009702 
L 323.091988 82.542043 
L 323.274597 82.615869 
L 323.4685 83.1115 
L 323.767372 84.692611 
L 324.212633 88.518738 
L 324.686772 94.830169 
L 325.262294 105.832888 
L 326.001934 125.508159 
L 327.754907 175.669791 
L 328.257694 182.390505 
L 329.118711 190.422723 
L 329.453425 192.150834 
L 329.677277 192.354097 
L 329.901129 191.610213 
L 330.124982 189.768212 
L 330.476987 184.602638 
L 330.997245 172.918171 
L 331.790107 148.861217 
L 332.60972 124.090908 
L 332.888643 120.30855 
L 333.012273 119.918674 
L 333.135903 120.400831 
L 333.321348 122.734098 
L 333.630423 130.173592 
L 334.77949 162.224739 
L 335.260464 168.160168 
L 335.856251 172.339311 
L 336.877886 179.127071 
L 337.603754 187.311715 
L 337.9626 189.923742 
L 338.071197 190.035291 
L 338.101351 189.998105 
L 338.246193 189.400275 
L 338.499286 186.800282 
L 338.869194 180.229952 
L 339.486204 164.571577 
L 340.632332 134.703229 
L 340.915399 132.476753 
L 340.987754 132.53425 
L 341.133149 133.477094 
L 341.353082 136.918024 
L 341.775118 148.222481 
L 342.675595 172.577606 
L 343.18086 181.260155 
L 343.450062 183.532143 
L 343.598263 183.837666 
L 343.6793 183.704454 
L 343.844135 182.78524 
L 344.108179 179.603586 
L 344.5806 169.702 
L 345.854927 140.217824 
L 347.122943 114.354875 
L 347.334279 113.229985 
L 347.404725 113.20184 
L 347.550877 113.733275 
L 347.790084 116.395289 
L 348.140854 124.095964 
L 348.813714 146.097309 
L 349.712763 174.809892 
L 350.018084 179.188148 
L 350.119858 179.583593 
L 350.19592 179.528839 
L 350.337574 178.684748 
L 350.609134 174.893117 
L 351.106887 163.593663 
L 351.834305 141.889457 
L 352.750501 107.228238 
L 353.848867 66.280875 
L 354.427121 53.412883 
L 354.749699 49.604372 
L 354.95524 49.036865 
L 355.102913 49.673646 
L 355.344905 52.659442 
L 355.774992 62.569076 
L 356.379888 76.415762 
L 356.752003 80.805808 
L 357.041781 81.897151 
L 357.241785 81.860721 
L 357.541791 81.234061 
L 358.261833 79.35251 
L 358.481029 79.258744 
L 358.601166 79.40135 
L 358.843583 80.37263 
L 359.086 82.754149 
L 359.328417 87.183957 
L 359.692043 98.628639 
L 361.156419 154.947277 
L 361.541202 159.540239 
L 361.966086 161.976955 
L 362.346984 163.176974 
L 362.545844 163.368232 
L 362.645274 163.245492 
L 362.844134 162.399899 
L 363.143449 159.196986 
L 363.542537 150.668846 
L 365.161578 107.213039 
L 365.521668 103.802098 
L 365.641698 103.538168 
L 365.76191 103.735441 
L 366.010368 105.647648 
L 366.258826 109.782252 
L 366.64095 120.275944 
L 367.277825 145.55635 
L 368.021028 185.729564 
L 368.693386 220.374113 
L 369.05836 230.277699 
L 369.431101 234.443123 
L 369.747856 235.776667 
L 369.956009 235.966979 
L 370.096174 235.792659 
L 370.319667 235.075586 
L 370.634054 233.046749 
L 370.893593 229.870289 
L 371.259137 222.150921 
L 371.718935 206.803316 
L 372.790737 159.904686 
L 373.476084 133.214342 
L 374.006989 120.90353 
L 374.543264 112.605108 
L 374.869233 109.94967 
L 375.086546 109.447392 
L 375.195203 109.620669 
L 375.412516 110.833344 
L 375.955798 116.726176 
L 376.505246 121.838032 
L 376.964537 124.326362 
L 377.423828 125.445327 
L 377.768295 125.885303 
L 378.160537 125.884074 
L 378.315901 126.389076 
L 378.52874 128.462598 
L 378.808927 134.387126 
L 379.27034 150.739845 
L 380.067104 178.645729 
L 380.464964 185.524868 
L 380.717506 187.311904 
L 380.865241 187.524363 
L 381.028254 187.13057 
L 381.286149 185.11756 
L 381.544045 181.000306 
L 382.32173 165.878823 
L 382.482765 165.333321 
L 382.630905 165.832275 
L 382.853115 167.945542 
L 383.445675 174.444074 
L 383.741955 175.426959 
L 383.964165 175.588201 
L 384.112306 175.481806 
L 384.334516 174.844985 
L 384.704866 172.630005 
L 385.045523 169.054953 
L 385.426398 161.696106 
L 385.938035 152.198545 
L 386.283488 149.55409 
L 386.456215 149.333387 
L 386.688054 149.633822 
L 386.997172 149.920554 
L 387.229011 149.995619 
L 387.383571 150.277424 
L 387.623374 151.333172 
L 387.950639 154.057513 
L 388.277904 158.738585 
L 389.777642 184.045114 
L 389.998557 185.27736 
L 390.109684 185.331388 
L 390.22373 184.943703 
L 390.457286 182.687408 
L 390.815815 175.69011 
L 392.249928 141.801624 
L 393.086494 125.646134 
L 395.643016 65.486912 
L 395.78833 65.543619 
L 395.933644 67.125152 
L 396.224271 74.91411 
L 397.319882 121.250665 
L 397.999738 144.726543 
L 398.339665 150.135723 
L 398.452974 150.202523 
L 398.679593 148.385246 
L 399.82494 135.108318 
L 400.132197 134.585664 
L 400.209011 134.604128 
L 400.362639 135.033139 
L 400.669896 137.351724 
L 400.977228 138.863254 
L 401.132314 138.794047 
L 401.453484 138.424059 
L 401.725087 138.499888 
L 401.91422 138.776062 
L 402.304051 139.815452 
L 402.401508 139.621124 
L 402.596423 137.895063 
L 403.302827 128.811688 
L 403.518019 128.351019 
L 403.951494 128.099093 
L 404.143744 128.03797 
L 404.23987 128.1214 
L 404.43212 129.006011 
L 404.689553 132.550572 
L 405.149818 139.892077 
L 405.382534 140.674636 
L 405.563545 141.010637 
L 405.748507 142.183343 
L 406.192963 147.743584 
L 406.522787 150.715235 
L 406.720907 151.27281 
L 407.029464 151.576837 
L 407.246127 152.500416 
L 407.743238 156.164909 
L 407.959802 159.798925 
L 408.256321 169.652267 
L 409.601608 223.194692 
L 410.391413 242.953084 
L 410.49821 243.301989 
L 410.610652 242.796093 
L 410.829492 239.464891 
L 411.764893 217.945559 
L 412.188121 216.926852 
L 412.487172 215.784642 
L 412.638098 214.556022 
L 412.866402 209.970217 
L 413.171478 196.140863 
L 414.526967 120.871212 
L 415.144357 93.748798 
L 415.414961 89.546884 
L 415.505277 89.568426 
L 415.685909 91.002277 
L 416.053258 96.863189 
L 416.911972 115.109265 
L 417.117148 115.393436 
L 417.332283 117.021136 
L 417.655795 122.901793 
L 418.410658 137.923603 
L 418.736315 140.03166 
L 419.089997 140.693885 
L 419.589272 141.301981 
L 419.790914 142.699605 
L 420.28768 147.13261 
L 420.355976 147.139677 
L 420.504907 146.507552 
L 420.736078 144.233143 
L 421.049134 138.48079 
L 422.261089 106.915204 
L 422.361999 106.302101 
L 422.361999 106.302101 
" clip-path="url(#pf019085382)" style="fill: none; stroke: #e36f47"/>
   </g>
   <g id="patch_3">
    <path d="M 64.557544 258.225354 
L 64.557544 2.834646 
" style="fill: none; stroke: #000000; stroke-linejoin: miter; stroke-linecap: square"/>
   </g>
   <g id="patch_4">
    <path d="M 64.557544 258.225354 
L 422.361999 258.225354 
" style="fill: none; stroke: #000000; stroke-linejoin: miter; stroke-linecap: square"/>
   </g>
   <g id="line2d_14">
    <path d="M 64.557544 149.140225 
L 71.492537 149.249963 
L 72.713537 149.296127 
L 73.687862 149.334904 
L 75.186983 149.303609 
L 84.034746 148.859912 
L 86.706286 148.946573 
L 88.205488 148.903763 
L 89.16406 149.079908 
L 90.818664 149.64334 
L 91.660251 150.234064 
L 93.258768 151.622389 
L 94.637625 152.815982 
L 96.803806 154.211173 
L 97.599926 154.365182 
L 98.285215 154.256589 
L 98.946362 153.896048 
L 99.600458 153.3184 
L 100.388046 152.277979 
L 101.17513 150.889357 
L 102.183224 148.593045 
L 103.909214 143.803638 
L 106.554981 136.609587 
L 107.928693 133.527079 
L 108.996054 131.615403 
L 110.308456 129.746776 
L 111.14524 128.906702 
L 111.70912 128.56908 
L 112.26652 128.461183 
L 112.796699 128.592436 
L 113.291401 128.932647 
L 113.899963 129.650007 
L 114.636857 130.984723 
L 115.414652 132.992256 
L 116.266454 135.949834 
L 117.160623 139.905129 
L 118.17062 145.289006 
L 119.463983 153.368358 
L 122.576862 173.709359 
L 123.525431 178.275398 
L 124.291779 180.951499 
L 124.906689 182.343793 
L 125.3033 182.861937 
L 125.708635 183.083069 
L 126.116162 183.003391 
L 126.53925 182.623808 
L 126.966606 181.963337 
L 127.662656 180.369502 
L 128.459096 177.886617 
L 129.689185 173.074735 
L 131.93691 163.947381 
L 133.04162 160.325434 
L 133.916374 158.013458 
L 135.085165 155.616703 
L 136.611034 152.658528 
L 137.445682 150.544492 
L 138.510118 147.172244 
L 139.868658 142.00069 
L 141.999731 133.780797 
L 142.898275 131.183775 
L 143.511575 129.945452 
L 143.980466 129.351737 
L 144.439881 129.101307 
L 144.866663 129.181333 
L 145.310774 129.593392 
L 145.796757 130.42376 
L 146.303976 131.687029 
L 147.110707 134.393562 
L 149.717301 144.335058 
L 150.304685 145.797664 
L 150.879965 146.780425 
L 151.495944 147.359522 
L 152.069731 147.506576 
L 152.679172 147.319553 
L 153.21507 146.932015 
L 154.266334 145.834976 
L 155.898354 144.085698 
L 157.169963 143.070118 
L 158.588439 142.298173 
L 159.5158 141.75866 
L 160.125174 141.210088 
L 160.904841 140.099185 
L 161.579314 138.664699 
L 162.262191 136.722463 
L 163.257342 133.045767 
L 164.909314 125.557641 
L 166.222165 120.071702 
L 166.782229 118.349229 
L 167.383256 117.121377 
L 167.676874 116.794901 
L 167.968829 116.667202 
L 168.259226 116.747606 
L 168.494315 116.971279 
L 168.988341 117.930017 
L 169.516885 119.722228 
L 170.00912 122.122839 
L 170.818805 127.569284 
L 171.82887 136.584472 
L 175.212179 169.604886 
L 176.271277 177.058753 
L 177.659999 185.015292 
L 179.594727 194.817227 
L 180.576271 199.033473 
L 181.335763 201.54303 
L 181.836009 202.70925 
L 182.301184 203.381313 
L 182.783072 203.603931 
L 183.048259 203.50292 
L 183.457494 203.018354 
L 183.977833 201.80661 
L 184.630822 199.357197 
L 185.369593 195.47451 
L 186.413868 188.572489 
L 188.814461 172.001138 
L 189.848797 166.463021 
L 190.709447 162.94523 
L 191.661246 160.034428 
L 194.208049 153.196683 
L 194.74652 150.74348 
L 195.408265 146.555859 
L 196.205992 139.583452 
L 197.374341 126.502372 
L 198.563 113.424383 
L 199.115301 108.903005 
L 199.522592 106.626337 
L 199.927137 105.445656 
L 200.106471 105.303124 
L 200.29535 105.421624 
L 200.490192 105.842091 
L 200.862206 107.510372 
L 201.233777 110.328766 
L 201.761017 116.268737 
L 202.347326 125.293682 
L 203.457366 147.031851 
L 204.680347 170.878588 
L 205.339009 180.040244 
L 205.803625 183.966763 
L 206.068843 185.148125 
L 206.365124 185.533497 
L 206.50719 185.37256 
L 206.787832 184.419401 
L 207.136167 182.14411 
L 207.717337 176.09795 
L 208.618641 163.311017 
L 209.933258 144.768276 
L 210.708027 137.028148 
L 211.415367 132.372962 
L 212.084427 129.492665 
L 212.824883 127.224137 
L 214.216563 123.860174 
L 215.672907 120.367213 
L 216.406672 117.963225 
L 217.110851 114.878022 
L 217.896901 110.327838 
L 218.983066 102.374765 
L 220.079688 94.790101 
L 220.575738 92.708787 
L 220.931615 92.088865 
L 221.117503 92.105165 
L 221.294092 92.353091 
L 221.663489 93.636205 
L 222.026931 95.922281 
L 222.635256 101.884097 
L 223.431064 112.719078 
L 225.126116 136.756093 
L 225.805685 142.868089 
L 226.22973 144.998271 
L 226.590953 145.782976 
L 226.831554 145.822099 
L 227.124052 145.42256 
L 227.462603 144.488065 
L 228.720879 140.289504 
L 229.036927 140.024354 
L 229.200524 140.127632 
L 229.533998 140.911889 
L 229.850008 142.410971 
L 230.350265 146.311227 
L 230.98017 153.681128 
L 231.83602 167.051504 
L 235.256705 224.770687 
L 236.042273 234.422618 
L 236.590356 239.001274 
L 236.973335 240.680817 
L 237.120306 240.938006 
L 237.268866 240.965809 
L 237.416259 240.75653 
L 237.71049 239.619083 
L 238.151857 236.116904 
L 238.593422 230.569115 
L 239.31942 217.788839 
L 241.509118 175.173737 
L 241.976653 170.581585 
L 242.396339 168.646444 
L 242.552804 168.4318 
L 242.69781 168.458805 
L 242.958983 169.002764 
L 243.308909 170.546649 
L 244.096613 175.659559 
L 244.643065 178.698921 
L 245.036916 179.832207 
L 245.232753 179.971209 
L 245.428326 179.815117 
L 245.712741 179.086972 
L 246.151494 176.973172 
L 246.991651 171.118774 
L 247.724929 166.476388 
L 248.126017 164.989235 
L 248.428567 164.637403 
L 248.582456 164.765608 
L 248.897649 165.763575 
L 249.311733 168.690601 
L 249.840312 174.996223 
L 250.812559 190.730566 
L 251.60688 201.639444 
L 252.041624 205.285675 
L 252.47661 207.145858 
L 252.798395 207.488458 
L 252.95383 207.368181 
L 253.268458 206.578493 
L 253.589755 204.991981 
L 253.932009 202.321437 
L 254.456702 195.867559 
L 254.958023 186.58847 
L 255.601069 170.266634 
L 256.600338 137.915808 
L 259.583347 35.459189 
L 260.196602 21.976314 
L 260.727202 15.01258 
L 261.020503 13.268914 
L 261.171784 12.982425 
L 261.333013 13.140228 
L 261.628981 14.662528 
L 261.898916 17.39731 
L 262.347101 24.504419 
L 263.06288 40.902078 
L 264.758055 82.950901 
L 265.264681 90.349572 
L 265.669188 93.415943 
L 265.899945 94.035108 
L 266.011928 94.058366 
L 266.2332 93.621024 
L 266.48348 92.455372 
L 266.955168 88.970236 
L 267.795718 82.465555 
L 268.093978 81.229749 
L 268.247925 80.957881 
L 268.390919 80.955143 
L 268.642671 81.57585 
L 268.892191 83.019973 
L 269.281398 86.984981 
L 269.660802 92.907228 
L 270.284481 107.144144 
L 270.91285 126.99584 
L 271.932515 167.765108 
L 273.366658 224.461623 
L 273.989681 241.315701 
L 274.475512 248.898713 
L 274.717565 250.605519 
L 274.83343 250.919014 
L 274.951213 250.903452 
L 275.19129 249.842018 
L 275.539633 245.948896 
L 276.043139 235.980901 
L 276.746513 215.794421 
L 278.965076 147.380827 
L 279.793147 130.192594 
L 280.565599 117.901812 
L 281.209203 110.359662 
L 281.835991 105.240884 
L 282.427857 102.18219 
L 282.798782 101.284456 
L 282.988794 101.240319 
L 283.185246 101.560085 
L 283.42414 102.527659 
L 283.703886 104.575298 
L 284.175087 110.422466 
L 284.800279 122.331051 
L 286.361911 154.753841 
L 286.871946 160.094356 
L 287.213454 161.47046 
L 287.392508 161.470377 
L 287.550806 161.058104 
L 287.88774 158.91776 
L 288.286348 154.259765 
L 288.84826 144.257615 
L 289.703267 123.7978 
L 291.108324 89.438248 
L 291.705161 79.008523 
L 292.156403 73.89556 
L 292.490964 71.907765 
L 292.64814 71.54819 
L 292.824707 71.603076 
L 292.999462 72.1499 
L 293.323235 74.501202 
L 293.75955 80.511603 
L 294.198891 89.916006 
L 294.814983 108.500927 
L 295.74332 145.236963 
L 297.06433 197.303318 
L 297.680369 213.622661 
L 298.132722 220.537381 
L 298.38078 222.390595 
L 298.647366 222.907221 
L 298.768793 222.666806 
L 299.041369 221.148402 
L 299.451184 216.78232 
L 300.310531 203.682419 
L 300.918397 195.58914 
L 301.288415 192.585077 
L 301.555303 191.586996 
L 301.693882 191.474628 
L 301.833643 191.641492 
L 302.111405 192.786258 
L 302.513609 196.217521 
L 303.09617 204.189401 
L 304.551949 226.171826 
L 304.895356 228.109933 
L 305.006836 228.269414 
L 305.119493 228.187418 
L 305.375531 227.10296 
L 305.720525 223.810267 
L 306.313786 214.715942 
L 307.129151 202.666936 
L 307.467679 200.290098 
L 307.630053 199.895923 
L 307.716193 199.877559 
L 307.893978 200.221032 
L 308.192887 201.72587 
L 309.097968 207.333363 
L 309.259341 207.539319 
L 309.356508 207.454705 
L 309.551408 206.769832 
L 309.876268 204.040537 
L 310.2286 198.930363 
L 310.8851 184.955083 
L 312.926653 137.049736 
L 313.263981 132.648573 
L 313.50794 131.266968 
L 313.604835 131.224995 
L 313.710659 131.542573 
L 313.93129 133.51201 
L 314.264398 140.030303 
L 314.648388 152.837231 
L 315.271503 183.279818 
L 316.31161 235.017533 
L 316.707642 244.027404 
L 316.897896 245.136686 
L 317.006584 244.819723 
L 317.202225 242.577093 
L 317.479873 236.064628 
L 317.984161 216.808934 
L 320.046688 127.440053 
L 320.803199 107.511141 
L 321.561232 93.387455 
L 322.38154 82.165588 
L 322.833705 78.268246 
L 323.161759 77.18057 
L 323.256605 77.202311 
L 323.452942 77.76346 
L 323.667678 79.172355 
L 324.003496 82.892508 
L 324.537147 91.59696 
L 325.420599 109.97838 
L 326.30431 132.854074 
L 327.833034 173.969959 
L 328.357022 181.654752 
L 328.776148 185.09107 
L 329.191627 187.00415 
L 329.513522 187.629935 
L 329.670608 187.60093 
L 329.829958 187.28963 
L 330.05124 186.296805 
L 330.318892 184.06926 
L 330.650943 179.551852 
L 331.188355 168.316657 
L 332.860579 128.987404 
L 333.12316 126.832676 
L 333.228886 126.623544 
L 333.300249 126.713217 
L 333.452456 127.537342 
L 333.680825 130.335099 
L 334.124192 139.860744 
L 335.075741 161.369899 
L 335.618732 168.358676 
L 337.560884 188.143478 
L 337.925653 190.07555 
L 338.059089 190.245328 
L 338.202307 189.996572 
L 338.430371 188.543576 
L 338.695871 185.133033 
L 339.167834 175.333657 
L 340.674997 140.172197 
L 340.99021 136.55218 
L 341.1867 135.806119 
L 341.272718 135.900013 
L 341.442947 136.887954 
L 341.718995 140.744009 
L 342.140996 150.909467 
L 343.109819 175.32504 
L 343.575659 181.363098 
L 343.818774 182.485076 
L 343.925294 182.461995 
L 344.072725 181.879996 
L 344.301348 179.701838 
L 344.692425 172.660347 
L 345.408642 153.475254 
L 346.257973 133.034096 
L 347.093886 118.181916 
L 347.457172 115.158419 
L 347.537184 115.002214 
L 347.61817 115.055836 
L 347.764373 115.705307 
L 347.990648 118.118947 
L 348.330553 124.709648 
L 348.913279 141.64888 
L 349.767249 166.158484 
L 350.162334 172.488242 
L 350.400255 173.979578 
L 350.484115 174.051311 
L 350.569718 173.875208 
L 350.751326 172.671223 
L 351.041918 168.526393 
L 351.530968 156.873274 
L 352.294279 132.401085 
L 353.209991 94.697738 
L 353.991073 65.733103 
L 354.457573 55.9966 
L 354.772689 52.962429 
L 354.983171 52.331681 
L 355.123165 52.474859 
L 355.319282 53.39602 
L 355.572236 55.804112 
L 355.940455 61.588591 
L 357.030949 80.471697 
L 357.31415 81.768982 
L 357.481331 81.832343 
L 358.012933 81.341906 
L 358.177558 81.70838 
L 358.411632 83.047679 
L 358.746381 86.662973 
L 359.227359 94.626595 
L 359.793122 107.88073 
L 360.467216 130.066955 
L 361.254277 154.938442 
L 361.661978 161.353321 
L 361.963239 162.96781 
L 362.147629 163.108314 
L 362.353588 162.921085 
L 362.848211 162.128833 
L 363.067073 161.261743 
L 363.262137 159.657512 
L 363.574445 154.639396 
L 364.018177 142.198379 
L 364.953986 113.941329 
L 365.280292 109.190242 
L 365.556346 107.797329 
L 365.633717 107.806341 
L 365.785032 108.289253 
L 366.059097 110.625138 
L 366.423459 116.596568 
L 366.818225 127.127335 
L 367.412215 150.216528 
L 369.360102 232.295257 
L 369.723229 237.386441 
L 369.93052 238.344606 
L 370.058964 238.42468 
L 370.185792 238.198725 
L 370.398106 237.256398 
L 370.705946 234.733335 
L 371.039976 230.206845 
L 371.475728 220.665957 
L 371.9239 205.367501 
L 372.59384 172.891373 
L 373.287646 142.139131 
L 373.811915 127.563426 
L 374.539523 113.724138 
L 375.015083 108.05071 
L 375.247643 107.177815 
L 375.331035 107.217102 
L 375.484736 107.703599 
L 375.832047 109.933288 
L 377.026201 119.144189 
L 377.461368 126.396527 
L 377.998433 134.873909 
L 378.320501 136.805617 
L 378.734052 137.923758 
L 378.945183 139.816173 
L 379.236502 145.324615 
L 379.774297 162.291077 
L 380.311013 176.858234 
L 380.693265 181.62415 
L 381.008949 183.061963 
L 381.204971 183.3169 
L 381.31182 183.25993 
L 381.464943 182.84956 
L 381.672564 181.427269 
L 381.976701 177.163731 
L 382.711636 165.247254 
L 382.863548 164.885721 
L 382.969454 165.246747 
L 383.189106 167.296923 
L 383.798746 174.011409 
L 383.960414 174.247993 
L 384.11132 173.74994 
L 384.392325 171.592165 
L 384.876244 167.98052 
L 385.108353 167.426436 
L 385.399462 166.958545 
L 385.610642 165.753407 
L 385.881461 162.41701 
L 386.86605 147.813869 
L 387.0631 147.434557 
L 387.189013 147.668471 
L 387.408835 148.716581 
L 387.895561 152.515524 
L 388.615263 159.644324 
L 389.033544 166.682147 
L 390.140313 187.464253 
L 390.295117 188.103795 
L 390.346738 188.092001 
L 390.4545 187.691431 
L 390.661397 185.508902 
L 390.970812 179.21351 
L 391.654307 158.909509 
L 392.635131 130.973083 
L 393.15784 122.207729 
L 393.688867 113.672129 
L 394.127118 102.564819 
L 395.264167 71.188926 
L 395.620112 67.211215 
L 395.83715 66.507057 
L 395.951358 66.80525 
L 396.124815 68.3336 
L 396.350253 72.531353 
L 396.698957 83.991418 
L 397.424555 118.348483 
L 398.066137 143.719439 
L 398.378876 149.804539 
L 398.572617 150.882083 
L 398.669887 150.64482 
L 398.81471 149.411845 
L 399.131215 144.049455 
L 399.736423 133.754594 
L 400.001691 132.376421 
L 400.101677 132.336194 
L 400.248866 132.609612 
L 400.549608 133.942916 
L 400.96526 136.957807 
L 401.718362 142.928662 
L 401.903375 143.309856 
L 402.019852 143.242164 
L 402.228432 142.627269 
L 402.562619 140.647794 
L 402.990747 136.335399 
L 403.560633 130.515365 
L 403.67638 130.326857 
L 403.708407 130.361884 
L 403.822351 130.767848 
L 404.177685 133.527457 
L 404.438968 134.767185 
L 404.559247 134.754345 
L 404.85214 133.941523 
L 405.009113 133.756549 
L 405.118826 133.965389 
L 405.30046 134.989298 
L 406.101274 140.723492 
L 406.340651 141.000018 
L 406.679029 141.036345 
L 407.01259 141.031577 
L 407.189636 141.383911 
L 407.390238 142.607423 
L 407.607087 145.439926 
L 407.937799 153.007694 
L 408.528326 173.030475 
L 409.273449 206.475279 
L 409.925902 233.161551 
L 410.313133 241.102174 
L 410.644055 243.867801 
L 410.788546 244.107742 
L 410.912364 243.799187 
L 411.107215 242.276878 
L 411.398409 237.772196 
L 413.004935 204.471911 
L 413.498669 183.659823 
L 415.164552 102.053135 
L 415.496106 95.669454 
L 415.667042 94.550845 
L 415.728042 94.565207 
L 415.8446 95.210293 
L 416.068617 98.536553 
L 417.290588 122.268555 
L 417.633807 124.781846 
L 418.089985 127.420354 
L 419.046526 134.888657 
L 419.209611 134.857519 
L 419.575847 134.604332 
L 419.765677 135.020177 
L 420.365099 136.962182 
L 420.500864 136.744473 
L 420.742547 135.586605 
L 421.144407 132.138368 
L 421.878636 123.565353 
L 422.361999 116.329781 
L 422.361999 116.329781 
" clip-path="url(#pf019085382)" style="fill: none; stroke: #3ea44e"/>
   </g>
   <g id="legend_1">
    <g id="patch_5">
     <path d="M 332.945749 50.862146 
L 418.361999 50.862146 
L 418.361999 6.834646 
L 332.945749 6.834646 
z
" style="fill: #ffffff; stroke: #000000; stroke-linejoin: miter"/>
    </g>
    <g id="line2d_15">
     <path d="M 339.345749 16.513396 
L 347.345749 16.513396 
L 355.345749 16.513396 
" style="fill: none; stroke: #009afa; stroke-linejoin: miter"/>
    </g>
    <g id="text_14">
     <!-- GXBeam -->
     <g transform="translate(361.745749 19.313396)scale(0.08 -0.08)">
      <defs>
       <path id="DejaVuSans-47" d="M 3809 666 
L 3809 1919 
L 2778 1919 
L 2778 2438 
L 4434 2438 
L 4434 434 
Q 4069 175 3628 42 
Q 3188 -91 2688 -91 
Q 1594 -91 976 548 
Q 359 1188 359 2328 
Q 359 3472 976 4111 
Q 1594 4750 2688 4750 
Q 3144 4750 3555 4637 
Q 3966 4525 4313 4306 
L 4313 3634 
Q 3963 3931 3569 4081 
Q 3175 4231 2741 4231 
Q 1884 4231 1454 3753 
Q 1025 3275 1025 2328 
Q 1025 1384 1454 906 
Q 1884 428 2741 428 
Q 3075 428 3337 486 
Q 3600 544 3809 666 
z
" transform="scale(0.015625)"/>
       <path id="DejaVuSans-58" d="M 403 4666 
L 1081 4666 
L 2241 2931 
L 3406 4666 
L 4084 4666 
L 2584 2425 
L 4184 0 
L 3506 0 
L 2194 1984 
L 872 0 
L 191 0 
L 1856 2491 
L 403 4666 
z
" transform="scale(0.015625)"/>
       <path id="DejaVuSans-42" d="M 1259 2228 
L 1259 519 
L 2272 519 
Q 2781 519 3026 730 
Q 3272 941 3272 1375 
Q 3272 1813 3026 2020 
Q 2781 2228 2272 2228 
L 1259 2228 
z
M 1259 4147 
L 1259 2741 
L 2194 2741 
Q 2656 2741 2882 2914 
Q 3109 3088 3109 3444 
Q 3109 3797 2882 3972 
Q 2656 4147 2194 4147 
L 1259 4147 
z
M 628 4666 
L 2241 4666 
Q 2963 4666 3353 4366 
Q 3744 4066 3744 3513 
Q 3744 3084 3544 2831 
Q 3344 2578 2956 2516 
Q 3422 2416 3680 2098 
Q 3938 1781 3938 1306 
Q 3938 681 3513 340 
Q 3088 0 2303 0 
L 628 0 
L 628 4666 
z
" transform="scale(0.015625)"/>
       <path id="DejaVuSans-61" d="M 2194 1759 
Q 1497 1759 1228 1600 
Q 959 1441 959 1056 
Q 959 750 1161 570 
Q 1363 391 1709 391 
Q 2188 391 2477 730 
Q 2766 1069 2766 1631 
L 2766 1759 
L 2194 1759 
z
M 3341 1997 
L 3341 0 
L 2766 0 
L 2766 531 
Q 2569 213 2275 61 
Q 1981 -91 1556 -91 
Q 1019 -91 701 211 
Q 384 513 384 1019 
Q 384 1609 779 1909 
Q 1175 2209 1959 2209 
L 2766 2209 
L 2766 2266 
Q 2766 2663 2505 2880 
Q 2244 3097 1772 3097 
Q 1472 3097 1187 3025 
Q 903 2953 641 2809 
L 641 3341 
Q 956 3463 1253 3523 
Q 1550 3584 1831 3584 
Q 2591 3584 2966 3190 
Q 3341 2797 3341 1997 
z
" transform="scale(0.015625)"/>
      </defs>
      <use xlink:href="#DejaVuSans-47"/>
      <use xlink:href="#DejaVuSans-58" x="77.490234"/>
      <use xlink:href="#DejaVuSans-42" x="145.996094"/>
      <use xlink:href="#DejaVuSans-65" x="214.599609"/>
      <use xlink:href="#DejaVuSans-61" x="276.123047"/>
      <use xlink:href="#DejaVuSans-6d" x="337.402344"/>
     </g>
    </g>
    <g id="line2d_16">
     <path d="M 339.345749 28.255896 
L 347.345749 28.255896 
L 355.345749 28.255896 
" style="fill: none; stroke: #e36f47; stroke-linejoin: miter"/>
    </g>
    <g id="text_15">
     <!-- ODEProblem -->
     <g transform="translate(361.745749 31.055896)scale(0.08 -0.08)">
      <defs>
       <path id="DejaVuSans-4f" d="M 2522 4238 
Q 1834 4238 1429 3725 
Q 1025 3213 1025 2328 
Q 1025 1447 1429 934 
Q 1834 422 2522 422 
Q 3209 422 3611 934 
Q 4013 1447 4013 2328 
Q 4013 3213 3611 3725 
Q 3209 4238 2522 4238 
z
M 2522 4750 
Q 3503 4750 4090 4092 
Q 4678 3434 4678 2328 
Q 4678 1225 4090 567 
Q 3503 -91 2522 -91 
Q 1538 -91 948 565 
Q 359 1222 359 2328 
Q 359 3434 948 4092 
Q 1538 4750 2522 4750 
z
" transform="scale(0.015625)"/>
       <path id="DejaVuSans-44" d="M 1259 4147 
L 1259 519 
L 2022 519 
Q 2988 519 3436 956 
Q 3884 1394 3884 2338 
Q 3884 3275 3436 3711 
Q 2988 4147 2022 4147 
L 1259 4147 
z
M 628 4666 
L 1925 4666 
Q 3281 4666 3915 4102 
Q 4550 3538 4550 2338 
Q 4550 1131 3912 565 
Q 3275 0 1925 0 
L 628 0 
L 628 4666 
z
" transform="scale(0.015625)"/>
       <path id="DejaVuSans-45" d="M 628 4666 
L 3578 4666 
L 3578 4134 
L 1259 4134 
L 1259 2753 
L 3481 2753 
L 3481 2222 
L 1259 2222 
L 1259 531 
L 3634 531 
L 3634 0 
L 628 0 
L 628 4666 
z
" transform="scale(0.015625)"/>
       <path id="DejaVuSans-50" d="M 1259 4147 
L 1259 2394 
L 2053 2394 
Q 2494 2394 2734 2622 
Q 2975 2850 2975 3272 
Q 2975 3691 2734 3919 
Q 2494 4147 2053 4147 
L 1259 4147 
z
M 628 4666 
L 2053 4666 
Q 2838 4666 3239 4311 
Q 3641 3956 3641 3272 
Q 3641 2581 3239 2228 
Q 2838 1875 2053 1875 
L 1259 1875 
L 1259 0 
L 628 0 
L 628 4666 
z
" transform="scale(0.015625)"/>
       <path id="DejaVuSans-72" d="M 2631 2963 
Q 2534 3019 2420 3045 
Q 2306 3072 2169 3072 
Q 1681 3072 1420 2755 
Q 1159 2438 1159 1844 
L 1159 0 
L 581 0 
L 581 3500 
L 1159 3500 
L 1159 2956 
Q 1341 3275 1631 3429 
Q 1922 3584 2338 3584 
Q 2397 3584 2469 3576 
Q 2541 3569 2628 3553 
L 2631 2963 
z
" transform="scale(0.015625)"/>
       <path id="DejaVuSans-6f" d="M 1959 3097 
Q 1497 3097 1228 2736 
Q 959 2375 959 1747 
Q 959 1119 1226 758 
Q 1494 397 1959 397 
Q 2419 397 2687 759 
Q 2956 1122 2956 1747 
Q 2956 2369 2687 2733 
Q 2419 3097 1959 3097 
z
M 1959 3584 
Q 2709 3584 3137 3096 
Q 3566 2609 3566 1747 
Q 3566 888 3137 398 
Q 2709 -91 1959 -91 
Q 1206 -91 779 398 
Q 353 888 353 1747 
Q 353 2609 779 3096 
Q 1206 3584 1959 3584 
z
" transform="scale(0.015625)"/>
       <path id="DejaVuSans-62" d="M 3116 1747 
Q 3116 2381 2855 2742 
Q 2594 3103 2138 3103 
Q 1681 3103 1420 2742 
Q 1159 2381 1159 1747 
Q 1159 1113 1420 752 
Q 1681 391 2138 391 
Q 2594 391 2855 752 
Q 3116 1113 3116 1747 
z
M 1159 2969 
Q 1341 3281 1617 3432 
Q 1894 3584 2278 3584 
Q 2916 3584 3314 3078 
Q 3713 2572 3713 1747 
Q 3713 922 3314 415 
Q 2916 -91 2278 -91 
Q 1894 -91 1617 61 
Q 1341 213 1159 525 
L 1159 0 
L 581 0 
L 581 4863 
L 1159 4863 
L 1159 2969 
z
" transform="scale(0.015625)"/>
       <path id="DejaVuSans-6c" d="M 603 4863 
L 1178 4863 
L 1178 0 
L 603 0 
L 603 4863 
z
" transform="scale(0.015625)"/>
      </defs>
      <use xlink:href="#DejaVuSans-4f"/>
      <use xlink:href="#DejaVuSans-44" x="78.710938"/>
      <use xlink:href="#DejaVuSans-45" x="155.712891"/>
      <use xlink:href="#DejaVuSans-50" x="218.896484"/>
      <use xlink:href="#DejaVuSans-72" x="277.449219"/>
      <use xlink:href="#DejaVuSans-6f" x="316.3125"/>
      <use xlink:href="#DejaVuSans-62" x="377.494141"/>
      <use xlink:href="#DejaVuSans-6c" x="440.970703"/>
      <use xlink:href="#DejaVuSans-65" x="468.753906"/>
      <use xlink:href="#DejaVuSans-6d" x="530.277344"/>
     </g>
    </g>
    <g id="line2d_17">
     <path d="M 339.345749 39.998396 
L 347.345749 39.998396 
L 355.345749 39.998396 
" style="fill: none; stroke: #3ea44e; stroke-linejoin: miter"/>
    </g>
    <g id="text_16">
     <!-- DAEProblem -->
     <g transform="translate(361.745749 42.798396)scale(0.08 -0.08)">
      <defs>
       <path id="DejaVuSans-41" d="M 2188 4044 
L 1331 1722 
L 3047 1722 
L 2188 4044 
z
M 1831 4666 
L 2547 4666 
L 4325 0 
L 3669 0 
L 3244 1197 
L 1141 1197 
L 716 0 
L 50 0 
L 1831 4666 
z
" transform="scale(0.015625)"/>
      </defs>
      <use xlink:href="#DejaVuSans-44"/>
      <use xlink:href="#DejaVuSans-41" x="75.251953"/>
      <use xlink:href="#DejaVuSans-45" x="143.660156"/>
      <use xlink:href="#DejaVuSans-50" x="206.84375"/>
      <use xlink:href="#DejaVuSans-72" x="265.396484"/>
      <use xlink:href="#DejaVuSans-6f" x="304.259766"/>
      <use xlink:href="#DejaVuSans-62" x="365.441406"/>
      <use xlink:href="#DejaVuSans-6c" x="428.917969"/>
      <use xlink:href="#DejaVuSans-65" x="456.701172"/>
      <use xlink:href="#DejaVuSans-6d" x="518.224609"/>
     </g>
    </g>
   </g>
  </g>
 </g>
 <defs>
  <clipPath id="pf019085382">
   <rect x="64.557544" y="2.834646" width="357.804455" height="255.390709"/>
  </clipPath>
 </defs>
</svg>
