<?xml version="1.0" encoding="utf-8" standalone="no"?>
<!DOCTYPE svg PUBLIC "-//W3C//DTD SVG 1.1//EN"
  "http://www.w3.org/Graphics/SVG/1.1/DTD/svg11.dtd">
<svg xmlns:xlink="http://www.w3.org/1999/xlink" width="432pt" height="288pt" viewBox="0 0 432 288" xmlns="http://www.w3.org/2000/svg" version="1.1">
 <metadata>
  <rdf:RDF xmlns:dc="http://purl.org/dc/elements/1.1/" xmlns:cc="http://creativecommons.org/ns#" xmlns:rdf="http://www.w3.org/1999/02/22-rdf-syntax-ns#">
   <cc:Work>
    <dc:type rdf:resource="http://purl.org/dc/dcmitype/StillImage"/>
    <dc:date>2022-08-23T20:36:01.533352</dc:date>
    <dc:format>image/svg+xml</dc:format>
    <dc:creator>
     <cc:Agent>
      <dc:title>Matplotlib v3.5.3, https://matplotlib.org/</dc:title>
     </cc:Agent>
    </dc:creator>
   </cc:Work>
  </rdf:RDF>
 </metadata>
 <defs>
  <style type="text/css">*{stroke-linejoin: round; stroke-linecap: butt}</style>
 </defs>
 <g id="figure_1">
  <g id="patch_1">
   <path d="M 0 288 
L 432 288 
L 432 0 
L 0 0 
z
" style="fill: #ffffff"/>
  </g>
  <g id="axes_1">
   <g id="patch_2">
    <path d="M 71.231488 258.225354 
L 422.361999 258.225354 
L 422.361999 2.834646 
L 71.231488 2.834646 
z
" style="fill: #ffffff"/>
   </g>
   <g id="line2d_1">
    <path d="M 71.231488 129.399859 
L 72.63601 129.477364 
L 73.689401 129.61319 
L 74.216097 129.467393 
L 76.147315 128.679136 
L 76.849576 128.884481 
L 81.238707 131.432203 
L 81.765403 131.310753 
L 82.292099 130.912538 
L 86.505665 126.618802 
L 87.207926 126.190205 
L 87.734622 126.114967 
L 88.963578 126.075183 
L 89.665839 125.872485 
L 90.3681 125.694184 
L 90.894796 125.70288 
L 91.421492 125.964618 
L 92.299318 126.730826 
L 93.70384 128.447961 
L 94.581667 130.112726 
L 95.459493 132.350716 
L 96.68845 135.38549 
L 97.566276 136.845649 
L 98.444102 137.914684 
L 99.497494 138.990848 
L 100.199755 139.365902 
L 100.726451 139.406616 
L 102.306538 139.254452 
L 103.535495 139.373097 
L 104.06219 139.232023 
L 104.588886 138.779135 
L 105.466712 137.67377 
L 107.39793 134.602507 
L 108.275757 132.622355 
L 109.855844 129.092792 
L 111.787062 125.456314 
L 112.664888 123.168523 
L 114.596106 117.297315 
L 115.649497 113.270422 
L 117.40515 106.564884 
L 118.282976 104.218324 
L 119.511933 101.663493 
L 120.389759 100.332346 
L 120.916455 99.903599 
L 121.443151 99.685082 
L 121.969847 99.679527 
L 123.725499 100.013024 
L 124.252195 100.389668 
L 124.778891 101.159509 
L 125.481152 102.676443 
L 126.710108 106.187033 
L 128.11463 110.888473 
L 130.396979 119.303737 
L 133.732719 129.563871 
L 135.137241 134.811861 
L 136.190632 139.695033 
L 140.755329 162.671482 
L 142.159851 168.951946 
L 143.915504 175.640323 
L 144.617765 177.762761 
L 145.320026 179.204889 
L 145.846721 179.763719 
L 146.548982 180.078149 
L 147.251243 180.058161 
L 148.12907 179.837856 
L 148.831331 179.394505 
L 150.411418 178.346451 
L 150.938114 178.372835 
L 151.46481 178.634264 
L 153.044897 179.690651 
L 153.747158 179.831039 
L 155.50281 179.680822 
L 156.205071 179.318621 
L 156.731767 178.744158 
L 159.189681 175.258499 
L 159.891942 174.091173 
L 160.418638 172.847974 
L 161.296464 169.967503 
L 162.17429 166.061281 
L 163.052116 161.220088 
L 163.929943 155.113316 
L 165.158899 144.505208 
L 168.319074 116.246488 
L 170.250292 100.383655 
L 172.883771 81.32676 
L 173.761597 76.467571 
L 174.639423 72.870241 
L 175.692815 69.680385 
L 176.570641 67.728537 
L 177.272902 66.637725 
L 178.677424 64.891501 
L 179.379685 63.609037 
L 180.959772 60.208811 
L 181.662034 59.231088 
L 182.364295 58.708724 
L 182.89099 58.573766 
L 183.417686 58.672604 
L 183.944382 59.06439 
L 184.471078 59.830939 
L 185.173339 61.35867 
L 186.928991 65.531618 
L 189.21134 70.052529 
L 189.913601 72.103654 
L 190.791427 75.425856 
L 191.493688 78.931804 
L 192.371514 84.676821 
L 193.600471 94.686193 
L 196.058384 114.937834 
L 199.042994 137.612111 
L 200.974212 151.16122 
L 201.852038 155.661959 
L 202.554299 158.176204 
L 203.432125 160.412074 
L 205.714474 165.556223 
L 206.416735 167.891793 
L 207.118996 170.939265 
L 209.401344 182.008744 
L 209.92804 183.441297 
L 210.454735 184.318028 
L 210.805866 184.601623 
L 211.156996 184.679819 
L 211.508127 184.584154 
L 211.859258 184.266852 
L 212.385953 183.318318 
L 212.912649 181.848179 
L 213.790475 178.401858 
L 214.843867 174.108743 
L 215.370563 172.684106 
L 215.897258 171.943497 
L 216.248389 171.819503 
L 216.599519 171.936535 
L 218.179607 172.780624 
L 218.530737 172.654618 
L 218.881868 172.350631 
L 219.232998 171.833418 
L 219.759694 170.497393 
L 220.28639 168.314125 
L 220.813086 165.018486 
L 221.515347 158.805907 
L 222.568738 146.734931 
L 224.148825 129.021812 
L 226.255608 108.576813 
L 227.660131 94.771185 
L 228.537957 83.534851 
L 229.942479 61.556456 
L 230.99587 46.876534 
L 231.698131 39.618168 
L 232.400392 34.593754 
L 232.927088 32.516272 
L 233.278219 31.972126 
L 233.453784 31.973832 
L 233.629349 32.158967 
L 233.98048 33.069885 
L 234.507176 35.654746 
L 235.385002 41.780459 
L 236.438393 48.776964 
L 237.140654 51.907887 
L 238.018481 54.671637 
L 239.598568 59.007 
L 239.949698 59.476727 
L 240.300829 59.63271 
L 240.651959 59.496602 
L 241.880916 58.501484 
L 242.232047 58.611284 
L 242.583177 58.974762 
L 243.285438 60.095835 
L 244.163265 61.537517 
L 245.041091 62.855031 
L 245.567787 64.161379 
L 246.094482 66.083736 
L 247.323439 71.170017 
L 247.67457 71.86507 
L 248.0257 72.033818 
L 248.376831 71.770888 
L 249.079092 70.934261 
L 249.254657 70.867834 
L 249.430222 70.930997 
L 249.605788 71.158511 
L 249.956918 72.20405 
L 250.308049 74.036847 
L 250.834744 78.168858 
L 251.537005 85.754335 
L 252.414832 97.967243 
L 253.292658 113.898811 
L 255.750571 163.231081 
L 256.452832 171.497211 
L 257.330659 178.838965 
L 258.208485 184.226756 
L 258.735181 186.351363 
L 259.086311 187.17714 
L 259.437442 187.589686 
L 260.490833 188.318289 
L 260.841964 188.984717 
L 261.36866 190.575216 
L 262.246486 193.484748 
L 262.597616 194.002485 
L 262.773182 194.037768 
L 262.948747 193.904124 
L 263.299877 193.131722 
L 263.826573 191.11116 
L 264.7044 187.764252 
L 265.05553 187.172579 
L 265.231095 187.080116 
L 265.406661 187.128482 
L 265.757791 187.624211 
L 266.284487 188.995506 
L 268.040139 194.671726 
L 268.566835 197.192363 
L 270.322488 207.089804 
L 270.498053 207.369172 
L 270.673618 207.391549 
L 270.849183 207.161494 
L 271.200314 206.004817 
L 271.72701 202.917711 
L 272.604836 197.451486 
L 272.955967 196.122184 
L 273.307097 195.527212 
L 273.658228 195.472952 
L 274.711619 196.042398 
L 275.06275 195.726845 
L 275.41388 195.042419 
L 276.993967 191.177878 
L 277.345098 190.962006 
L 278.398489 190.906888 
L 278.74962 190.223941 
L 279.10075 188.778186 
L 279.451881 186.493618 
L 279.978577 181.353811 
L 280.680838 171.82432 
L 282.612056 144.100943 
L 284.192143 124.269757 
L 285.245534 114.212885 
L 286.123361 105.527451 
L 286.825622 95.959065 
L 288.054579 74.571464 
L 289.283535 54.489628 
L 290.336927 40.574277 
L 290.863623 35.550506 
L 291.214753 33.454969 
L 291.565884 32.633391 
L 291.741449 32.721991 
L 291.917014 33.140551 
L 292.268145 34.925896 
L 292.79484 39.353908 
L 294.199362 52.426616 
L 294.726058 55.423517 
L 295.252754 57.212325 
L 295.603885 57.865799 
L 295.955015 58.123675 
L 296.13058 58.082777 
L 296.306146 57.900552 
L 296.657276 57.006564 
L 297.008407 55.289314 
L 297.535102 50.932703 
L 298.237363 42.187538 
L 299.290755 28.324732 
L 299.817451 23.697942 
L 300.168581 21.920443 
L 300.519712 21.162562 
L 300.695277 21.162471 
L 300.870842 21.402323 
L 301.221973 22.523672 
L 301.573103 24.392771 
L 302.099799 28.54592 
L 302.80206 35.996547 
L 304.908843 60.390468 
L 305.259974 61.957516 
L 305.435539 62.235223 
L 305.611104 62.164479 
L 305.786669 61.736054 
L 306.1378 59.811881 
L 306.664496 54.779057 
L 308.595713 32.346207 
L 308.946844 30.564133 
L 309.122409 30.277156 
L 309.297974 30.487416 
L 309.47354 31.236404 
L 309.82467 34.532715 
L 310.175801 40.261942 
L 310.702497 52.977738 
L 311.580323 81.841277 
L 313.335975 142.444985 
L 314.038236 158.425277 
L 314.564932 166.069353 
L 315.091628 170.598501 
L 315.442758 172.089015 
L 315.793889 172.657979 
L 315.969454 172.677238 
L 316.671715 172.221704 
L 316.84728 172.36389 
L 317.022846 172.777625 
L 317.373976 174.711665 
L 317.725107 178.428651 
L 318.251803 187.28302 
L 320.18302 225.484479 
L 320.709716 231.214519 
L 321.236412 234.48991 
L 321.763108 236.163741 
L 322.114238 236.529718 
L 322.289803 236.394283 
L 322.465369 235.971741 
L 322.816499 234.026604 
L 323.16763 230.265202 
L 323.694325 220.562738 
L 324.396586 201.360931 
L 325.098848 183.165351 
L 325.449978 177.703288 
L 325.801109 175.511049 
L 325.976674 175.61725 
L 326.152239 176.467386 
L 326.50337 180.085512 
L 327.030065 188.794422 
L 328.785718 220.579925 
L 330.365805 241.866895 
L 331.068066 248.803734 
L 331.419197 250.621562 
L 331.594762 250.997315 
L 331.770327 250.944933 
L 331.945892 250.40532 
L 332.297023 247.728552 
L 332.648154 242.840351 
L 333.350415 227.960628 
L 334.228241 209.573742 
L 334.579371 205.220281 
L 334.930502 203.163626 
L 335.106067 202.904858 
L 335.281632 203.037537 
L 335.632763 204.07928 
L 336.159459 205.675346 
L 336.335024 205.880165 
L 336.510589 205.894789 
L 336.86172 205.433701 
L 337.388415 204.551564 
L 337.563981 204.527493 
L 337.739546 204.732719 
L 337.915111 205.2372 
L 338.266242 207.334519 
L 338.792937 213.098107 
L 340.021894 228.659013 
L 340.373025 231.287296 
L 340.724155 232.426369 
L 340.899721 232.448682 
L 341.075286 232.162291 
L 341.426416 230.798278 
L 341.777547 228.470511 
L 342.304243 223.038068 
L 342.830938 215.104406 
L 344.762156 181.211533 
L 345.288852 176.70482 
L 346.166678 170.456081 
L 346.693374 163.819939 
L 347.395635 151.015436 
L 348.624592 126.654871 
L 349.151288 120.439504 
L 349.853549 113.700203 
L 350.204679 107.844395 
L 350.731375 94.635578 
L 352.135897 55.419768 
L 352.662593 46.622644 
L 353.013723 43.159861 
L 354.067115 36.15333 
L 354.59381 28.163927 
L 355.471637 13.296423 
L 355.822767 10.948509 
L 355.998333 11.146919 
L 356.173898 12.302167 
L 356.525028 17.153601 
L 357.57842 36.571687 
L 357.753985 38.010362 
L 357.92955 38.526475 
L 358.105116 38.083596 
L 358.456246 34.481242 
L 359.158507 21.041522 
L 359.509638 15.545546 
L 359.685203 14.056617 
L 359.860768 13.607114 
L 360.036333 14.217709 
L 360.387464 18.370615 
L 361.791986 43.218513 
L 361.967551 43.809151 
L 362.143116 43.564532 
L 362.318682 42.533656 
L 362.669812 38.422011 
L 363.547639 25.749102 
L 363.723204 25.5322 
L 363.898769 26.780504 
L 364.2499 33.489611 
L 365.127726 55.650984 
L 365.478856 58.590915 
L 365.654422 58.513513 
L 365.829987 57.535958 
L 366.181117 53.141107 
L 366.707813 41.308394 
L 367.410074 25.090919 
L 367.585639 23.63835 
L 367.761205 23.964597 
L 367.93677 26.142305 
L 368.2879 35.184015 
L 369.165727 62.965264 
L 369.516857 68.493094 
L 369.692422 69.482305 
L 369.867988 69.286711 
L 370.043553 67.96993 
L 370.394684 62.604103 
L 371.096945 49.556318 
L 371.27251 47.897625 
L 371.448075 47.428683 
L 371.62364 48.296305 
L 371.974771 53.942835 
L 373.028162 79.68285 
L 373.203728 81.23804 
L 373.379293 81.429962 
L 373.554858 80.348449 
L 373.905989 75.435885 
L 374.60825 64.247132 
L 374.783815 63.081485 
L 374.95938 63.107913 
L 375.134945 64.514864 
L 375.486076 71.766492 
L 376.012772 92.101189 
L 376.890598 130.306852 
L 377.241728 138.776037 
L 377.592859 142.392788 
L 377.768424 142.952848 
L 378.29512 143.331238 
L 378.470685 144.170409 
L 378.821816 148.578644 
L 379.172946 156.746287 
L 379.875207 180.222745 
L 380.401903 197.704139 
L 380.753034 203.962054 
L 380.928599 204.62962 
L 381.104164 203.664577 
L 381.455295 197.80844 
L 382.508686 174.334857 
L 382.684251 172.766568 
L 382.859817 172.343364 
L 383.035382 173.033876 
L 383.386512 177.349941 
L 384.439904 195.396627 
L 384.615469 196.092404 
L 384.791034 195.725599 
L 384.9666 194.316844 
L 385.31773 188.924086 
L 386.019991 176.165837 
L 386.371122 173.770642 
L 386.546687 174.099255 
L 386.722252 175.36435 
L 387.073383 180.386546 
L 387.600079 193.409922 
L 388.30234 212.646576 
L 388.477905 215.106165 
L 388.65347 215.945116 
L 388.829035 215.167034 
L 389.180166 209.960374 
L 389.706862 200.774432 
L 390.057992 197.979198 
L 390.409123 197.140171 
L 390.935818 196.418939 
L 391.111384 196.86256 
L 391.286949 198.141313 
L 391.638079 203.445032 
L 392.164775 212.549039 
L 392.34034 213.623268 
L 392.515906 213.15293 
L 392.867036 208.162162 
L 393.569297 195.248189 
L 394.095993 190.293477 
L 394.447124 188.136337 
L 394.622689 187.640832 
L 394.798254 187.981447 
L 394.973819 189.490506 
L 395.32495 196.247976 
L 396.202776 218.1831 
L 396.553907 221.483502 
L 396.729472 221.934971 
L 396.905037 221.827113 
L 397.256168 220.711538 
L 397.782863 218.449233 
L 397.958429 218.041563 
L 398.133994 218.070744 
L 398.309559 218.604903 
L 398.66069 221.547052 
L 399.187385 229.460695 
L 399.714081 236.684393 
L 399.889646 237.772656 
L 400.065212 237.783467 
L 400.240777 236.536687 
L 400.591908 230.365079 
L 402.523125 182.500254 
L 402.698691 181.528961 
L 402.874256 181.43432 
L 403.225386 182.039515 
L 403.400952 181.805365 
L 403.576517 180.89127 
L 403.927647 176.938089 
L 404.278778 170.166937 
L 404.805474 154.343292 
L 405.332169 140.169244 
L 405.6833 137.125004 
L 405.858865 137.267578 
L 406.03443 138.291861 
L 406.385561 143.181122 
L 407.087822 157.239851 
L 407.263387 158.486901 
L 407.438952 158.494876 
L 407.614518 157.404247 
L 407.965648 152.300367 
L 408.316779 142.526279 
L 409.37017 107.952274 
L 409.896866 97.761017 
L 410.423562 91.946166 
L 410.774692 88.153392 
L 411.301388 77.946573 
L 412.003649 58.056041 
L 412.70591 37.67591 
L 413.057041 33.154438 
L 413.232606 33.035004 
L 413.408171 34.271289 
L 413.759302 39.638976 
L 415.163824 66.615053 
L 415.339389 67.152508 
L 415.514954 66.402659 
L 416.392781 57.262241 
L 416.568346 57.147109 
L 416.743911 57.714821 
L 417.095042 60.077727 
L 417.446172 64.733454 
L 418.499564 84.95456 
L 418.675129 85.360665 
L 418.850694 84.42651 
L 419.201825 78.645053 
L 419.552955 68.118723 
L 420.781912 22.801517 
L 421.133042 18.341103 
L 421.308608 18.211505 
L 421.659738 20.256388 
L 422.186434 25.137024 
L 422.361999 27.336521 
L 422.361999 27.336521 
" clip-path="url(#p9f4d0437fb)" style="fill: none; stroke: #009afa"/>
   </g>
   <g id="matplotlib.axis_1">
    <g id="xtick_1">
     <g id="line2d_2">
      <defs>
       <path id="mf45998f6ae" d="M 0 0 
L 0 -2.5 
" style="stroke: #000000; stroke-width: 0.5"/>
      </defs>
      <g>
       <use xlink:href="#mf45998f6ae" x="71.231488" y="258.225354" style="stroke: #000000; stroke-width: 0.5"/>
      </g>
     </g>
     <g id="text_1">
      <!-- $0.0$ -->
      <g transform="translate(64.831488 267.804104)scale(0.08 -0.08)">
       <defs>
        <path id="DejaVuSans-30" d="M 2034 4250 
Q 1547 4250 1301 3770 
Q 1056 3291 1056 2328 
Q 1056 1369 1301 889 
Q 1547 409 2034 409 
Q 2525 409 2770 889 
Q 3016 1369 3016 2328 
Q 3016 3291 2770 3770 
Q 2525 4250 2034 4250 
z
M 2034 4750 
Q 2819 4750 3233 4129 
Q 3647 3509 3647 2328 
Q 3647 1150 3233 529 
Q 2819 -91 2034 -91 
Q 1250 -91 836 529 
Q 422 1150 422 2328 
Q 422 3509 836 4129 
Q 1250 4750 2034 4750 
z
" transform="scale(0.015625)"/>
        <path id="DejaVuSans-2e" d="M 684 794 
L 1344 794 
L 1344 0 
L 684 0 
L 684 794 
z
" transform="scale(0.015625)"/>
       </defs>
       <use xlink:href="#DejaVuSans-30" transform="translate(0 0.78125)"/>
       <use xlink:href="#DejaVuSans-2e" transform="translate(63.623047 0.78125)"/>
       <use xlink:href="#DejaVuSans-30" transform="translate(95.410156 0.78125)"/>
      </g>
     </g>
    </g>
    <g id="xtick_2">
     <g id="line2d_3">
      <g>
       <use xlink:href="#mf45998f6ae" x="159.014116" y="258.225354" style="stroke: #000000; stroke-width: 0.5"/>
      </g>
     </g>
     <g id="text_2">
      <!-- $0.5$ -->
      <g transform="translate(152.614116 267.804104)scale(0.08 -0.08)">
       <defs>
        <path id="DejaVuSans-35" d="M 691 4666 
L 3169 4666 
L 3169 4134 
L 1269 4134 
L 1269 2991 
Q 1406 3038 1543 3061 
Q 1681 3084 1819 3084 
Q 2600 3084 3056 2656 
Q 3513 2228 3513 1497 
Q 3513 744 3044 326 
Q 2575 -91 1722 -91 
Q 1428 -91 1123 -41 
Q 819 9 494 109 
L 494 744 
Q 775 591 1075 516 
Q 1375 441 1709 441 
Q 2250 441 2565 725 
Q 2881 1009 2881 1497 
Q 2881 1984 2565 2268 
Q 2250 2553 1709 2553 
Q 1456 2553 1204 2497 
Q 953 2441 691 2322 
L 691 4666 
z
" transform="scale(0.015625)"/>
       </defs>
       <use xlink:href="#DejaVuSans-30" transform="translate(0 0.78125)"/>
       <use xlink:href="#DejaVuSans-2e" transform="translate(63.623047 0.78125)"/>
       <use xlink:href="#DejaVuSans-35" transform="translate(95.410156 0.78125)"/>
      </g>
     </g>
    </g>
    <g id="xtick_3">
     <g id="line2d_4">
      <g>
       <use xlink:href="#mf45998f6ae" x="246.796743" y="258.225354" style="stroke: #000000; stroke-width: 0.5"/>
      </g>
     </g>
     <g id="text_3">
      <!-- $1.0$ -->
      <g transform="translate(240.396743 267.804104)scale(0.08 -0.08)">
       <defs>
        <path id="DejaVuSans-31" d="M 794 531 
L 1825 531 
L 1825 4091 
L 703 3866 
L 703 4441 
L 1819 4666 
L 2450 4666 
L 2450 531 
L 3481 531 
L 3481 0 
L 794 0 
L 794 531 
z
" transform="scale(0.015625)"/>
       </defs>
       <use xlink:href="#DejaVuSans-31" transform="translate(0 0.78125)"/>
       <use xlink:href="#DejaVuSans-2e" transform="translate(63.623047 0.78125)"/>
       <use xlink:href="#DejaVuSans-30" transform="translate(95.410156 0.78125)"/>
      </g>
     </g>
    </g>
    <g id="xtick_4">
     <g id="line2d_5">
      <g>
       <use xlink:href="#mf45998f6ae" x="334.579371" y="258.225354" style="stroke: #000000; stroke-width: 0.5"/>
      </g>
     </g>
     <g id="text_4">
      <!-- $1.5$ -->
      <g transform="translate(328.179371 267.804104)scale(0.08 -0.08)">
       <use xlink:href="#DejaVuSans-31" transform="translate(0 0.09375)"/>
       <use xlink:href="#DejaVuSans-2e" transform="translate(63.623047 0.09375)"/>
       <use xlink:href="#DejaVuSans-35" transform="translate(95.410156 0.09375)"/>
      </g>
     </g>
    </g>
    <g id="xtick_5">
     <g id="line2d_6">
      <g>
       <use xlink:href="#mf45998f6ae" x="422.361999" y="258.225354" style="stroke: #000000; stroke-width: 0.5"/>
      </g>
     </g>
     <g id="text_5">
      <!-- $2.0$ -->
      <g transform="translate(415.961999 267.804104)scale(0.08 -0.08)">
       <defs>
        <path id="DejaVuSans-32" d="M 1228 531 
L 3431 531 
L 3431 0 
L 469 0 
L 469 531 
Q 828 903 1448 1529 
Q 2069 2156 2228 2338 
Q 2531 2678 2651 2914 
Q 2772 3150 2772 3378 
Q 2772 3750 2511 3984 
Q 2250 4219 1831 4219 
Q 1534 4219 1204 4116 
Q 875 4013 500 3803 
L 500 4441 
Q 881 4594 1212 4672 
Q 1544 4750 1819 4750 
Q 2544 4750 2975 4387 
Q 3406 4025 3406 3419 
Q 3406 3131 3298 2873 
Q 3191 2616 2906 2266 
Q 2828 2175 2409 1742 
Q 1991 1309 1228 531 
z
" transform="scale(0.015625)"/>
       </defs>
       <use xlink:href="#DejaVuSans-32" transform="translate(0 0.78125)"/>
       <use xlink:href="#DejaVuSans-2e" transform="translate(63.623047 0.78125)"/>
       <use xlink:href="#DejaVuSans-30" transform="translate(95.410156 0.78125)"/>
      </g>
     </g>
    </g>
    <g id="text_6">
     <!-- Time (s) -->
     <g transform="translate(224.434947 281.826136)scale(0.11 -0.11)">
      <defs>
       <path id="DejaVuSans-54" d="M -19 4666 
L 3928 4666 
L 3928 4134 
L 2272 4134 
L 2272 0 
L 1638 0 
L 1638 4134 
L -19 4134 
L -19 4666 
z
" transform="scale(0.015625)"/>
       <path id="DejaVuSans-69" d="M 603 3500 
L 1178 3500 
L 1178 0 
L 603 0 
L 603 3500 
z
M 603 4863 
L 1178 4863 
L 1178 4134 
L 603 4134 
L 603 4863 
z
" transform="scale(0.015625)"/>
       <path id="DejaVuSans-6d" d="M 3328 2828 
Q 3544 3216 3844 3400 
Q 4144 3584 4550 3584 
Q 5097 3584 5394 3201 
Q 5691 2819 5691 2113 
L 5691 0 
L 5113 0 
L 5113 2094 
Q 5113 2597 4934 2840 
Q 4756 3084 4391 3084 
Q 3944 3084 3684 2787 
Q 3425 2491 3425 1978 
L 3425 0 
L 2847 0 
L 2847 2094 
Q 2847 2600 2669 2842 
Q 2491 3084 2119 3084 
Q 1678 3084 1418 2786 
Q 1159 2488 1159 1978 
L 1159 0 
L 581 0 
L 581 3500 
L 1159 3500 
L 1159 2956 
Q 1356 3278 1631 3431 
Q 1906 3584 2284 3584 
Q 2666 3584 2933 3390 
Q 3200 3197 3328 2828 
z
" transform="scale(0.015625)"/>
       <path id="DejaVuSans-65" d="M 3597 1894 
L 3597 1613 
L 953 1613 
Q 991 1019 1311 708 
Q 1631 397 2203 397 
Q 2534 397 2845 478 
Q 3156 559 3463 722 
L 3463 178 
Q 3153 47 2828 -22 
Q 2503 -91 2169 -91 
Q 1331 -91 842 396 
Q 353 884 353 1716 
Q 353 2575 817 3079 
Q 1281 3584 2069 3584 
Q 2775 3584 3186 3129 
Q 3597 2675 3597 1894 
z
M 3022 2063 
Q 3016 2534 2758 2815 
Q 2500 3097 2075 3097 
Q 1594 3097 1305 2825 
Q 1016 2553 972 2059 
L 3022 2063 
z
" transform="scale(0.015625)"/>
       <path id="DejaVuSans-20" transform="scale(0.015625)"/>
       <path id="DejaVuSans-28" d="M 1984 4856 
Q 1566 4138 1362 3434 
Q 1159 2731 1159 2009 
Q 1159 1288 1364 580 
Q 1569 -128 1984 -844 
L 1484 -844 
Q 1016 -109 783 600 
Q 550 1309 550 2009 
Q 550 2706 781 3412 
Q 1013 4119 1484 4856 
L 1984 4856 
z
" transform="scale(0.015625)"/>
       <path id="DejaVuSans-73" d="M 2834 3397 
L 2834 2853 
Q 2591 2978 2328 3040 
Q 2066 3103 1784 3103 
Q 1356 3103 1142 2972 
Q 928 2841 928 2578 
Q 928 2378 1081 2264 
Q 1234 2150 1697 2047 
L 1894 2003 
Q 2506 1872 2764 1633 
Q 3022 1394 3022 966 
Q 3022 478 2636 193 
Q 2250 -91 1575 -91 
Q 1294 -91 989 -36 
Q 684 19 347 128 
L 347 722 
Q 666 556 975 473 
Q 1284 391 1588 391 
Q 1994 391 2212 530 
Q 2431 669 2431 922 
Q 2431 1156 2273 1281 
Q 2116 1406 1581 1522 
L 1381 1569 
Q 847 1681 609 1914 
Q 372 2147 372 2553 
Q 372 3047 722 3315 
Q 1072 3584 1716 3584 
Q 2034 3584 2315 3537 
Q 2597 3491 2834 3397 
z
" transform="scale(0.015625)"/>
       <path id="DejaVuSans-29" d="M 513 4856 
L 1013 4856 
Q 1481 4119 1714 3412 
Q 1947 2706 1947 2009 
Q 1947 1309 1714 600 
Q 1481 -109 1013 -844 
L 513 -844 
Q 928 -128 1133 580 
Q 1338 1288 1338 2009 
Q 1338 2731 1133 3434 
Q 928 4138 513 4856 
z
" transform="scale(0.015625)"/>
      </defs>
      <use xlink:href="#DejaVuSans-54"/>
      <use xlink:href="#DejaVuSans-69" x="57.958984"/>
      <use xlink:href="#DejaVuSans-6d" x="85.742188"/>
      <use xlink:href="#DejaVuSans-65" x="183.154297"/>
      <use xlink:href="#DejaVuSans-20" x="244.677734"/>
      <use xlink:href="#DejaVuSans-28" x="276.464844"/>
      <use xlink:href="#DejaVuSans-73" x="315.478516"/>
      <use xlink:href="#DejaVuSans-29" x="367.578125"/>
     </g>
    </g>
   </g>
   <g id="matplotlib.axis_2">
    <g id="ytick_1">
     <g id="line2d_7">
      <defs>
       <path id="mccec4aa265" d="M 0 0 
L 2.5 0 
" style="stroke: #000000; stroke-width: 0.5"/>
      </defs>
      <g>
       <use xlink:href="#mccec4aa265" x="71.231488" y="240.070493" style="stroke: #000000; stroke-width: 0.5"/>
      </g>
     </g>
     <g id="text_7">
      <!-- $-1.50×10^{6}$ -->
      <g transform="translate(22.451488 243.109868)scale(0.08 -0.08)">
       <defs>
        <path id="DejaVuSans-2212" d="M 678 2272 
L 4684 2272 
L 4684 1741 
L 678 1741 
L 678 2272 
z
" transform="scale(0.015625)"/>
        <path id="DejaVuSans-d7" d="M 4488 3438 
L 3059 2003 
L 4488 575 
L 4116 197 
L 2681 1631 
L 1247 197 
L 878 575 
L 2303 2003 
L 878 3438 
L 1247 3816 
L 2681 2381 
L 4116 3816 
L 4488 3438 
z
" transform="scale(0.015625)"/>
        <path id="DejaVuSans-36" d="M 2113 2584 
Q 1688 2584 1439 2293 
Q 1191 2003 1191 1497 
Q 1191 994 1439 701 
Q 1688 409 2113 409 
Q 2538 409 2786 701 
Q 3034 994 3034 1497 
Q 3034 2003 2786 2293 
Q 2538 2584 2113 2584 
z
M 3366 4563 
L 3366 3988 
Q 3128 4100 2886 4159 
Q 2644 4219 2406 4219 
Q 1781 4219 1451 3797 
Q 1122 3375 1075 2522 
Q 1259 2794 1537 2939 
Q 1816 3084 2150 3084 
Q 2853 3084 3261 2657 
Q 3669 2231 3669 1497 
Q 3669 778 3244 343 
Q 2819 -91 2113 -91 
Q 1303 -91 875 529 
Q 447 1150 447 2328 
Q 447 3434 972 4092 
Q 1497 4750 2381 4750 
Q 2619 4750 2861 4703 
Q 3103 4656 3366 4563 
z
" transform="scale(0.015625)"/>
       </defs>
       <use xlink:href="#DejaVuSans-2212" transform="translate(0 0.765625)"/>
       <use xlink:href="#DejaVuSans-31" transform="translate(83.789062 0.765625)"/>
       <use xlink:href="#DejaVuSans-2e" transform="translate(147.412109 0.765625)"/>
       <use xlink:href="#DejaVuSans-35" transform="translate(179.199219 0.765625)"/>
       <use xlink:href="#DejaVuSans-30" transform="translate(242.822266 0.765625)"/>
       <use xlink:href="#DejaVuSans-d7" transform="translate(306.445312 0.765625)"/>
       <use xlink:href="#DejaVuSans-31" transform="translate(390.234375 0.765625)"/>
       <use xlink:href="#DejaVuSans-30" transform="translate(453.857422 0.765625)"/>
       <use xlink:href="#DejaVuSans-36" transform="translate(518.4375 39.046875)scale(0.7)"/>
      </g>
     </g>
    </g>
    <g id="ytick_2">
     <g id="line2d_8">
      <g>
       <use xlink:href="#mccec4aa265" x="71.231488" y="203.180281" style="stroke: #000000; stroke-width: 0.5"/>
      </g>
     </g>
     <g id="text_8">
      <!-- $-1.00×10^{6}$ -->
      <g transform="translate(22.451488 206.219656)scale(0.08 -0.08)">
       <use xlink:href="#DejaVuSans-2212" transform="translate(0 0.765625)"/>
       <use xlink:href="#DejaVuSans-31" transform="translate(83.789062 0.765625)"/>
       <use xlink:href="#DejaVuSans-2e" transform="translate(147.412109 0.765625)"/>
       <use xlink:href="#DejaVuSans-30" transform="translate(179.199219 0.765625)"/>
       <use xlink:href="#DejaVuSans-30" transform="translate(242.822266 0.765625)"/>
       <use xlink:href="#DejaVuSans-d7" transform="translate(306.445312 0.765625)"/>
       <use xlink:href="#DejaVuSans-31" transform="translate(390.234375 0.765625)"/>
       <use xlink:href="#DejaVuSans-30" transform="translate(453.857422 0.765625)"/>
       <use xlink:href="#DejaVuSans-36" transform="translate(518.4375 39.046875)scale(0.7)"/>
      </g>
     </g>
    </g>
    <g id="ytick_3">
     <g id="line2d_9">
      <g>
       <use xlink:href="#mccec4aa265" x="71.231488" y="166.29007" style="stroke: #000000; stroke-width: 0.5"/>
      </g>
     </g>
     <g id="text_9">
      <!-- $-5.00×10^{5}$ -->
      <g transform="translate(22.451488 169.329445)scale(0.08 -0.08)">
       <use xlink:href="#DejaVuSans-2212" transform="translate(0 0.684375)"/>
       <use xlink:href="#DejaVuSans-35" transform="translate(83.789062 0.684375)"/>
       <use xlink:href="#DejaVuSans-2e" transform="translate(147.412109 0.684375)"/>
       <use xlink:href="#DejaVuSans-30" transform="translate(179.199219 0.684375)"/>
       <use xlink:href="#DejaVuSans-30" transform="translate(242.822266 0.684375)"/>
       <use xlink:href="#DejaVuSans-d7" transform="translate(306.445312 0.684375)"/>
       <use xlink:href="#DejaVuSans-31" transform="translate(390.234375 0.684375)"/>
       <use xlink:href="#DejaVuSans-30" transform="translate(453.857422 0.684375)"/>
       <use xlink:href="#DejaVuSans-35" transform="translate(518.4375 38.965625)scale(0.7)"/>
      </g>
     </g>
    </g>
    <g id="ytick_4">
     <g id="line2d_10">
      <g>
       <use xlink:href="#mccec4aa265" x="71.231488" y="129.399859" style="stroke: #000000; stroke-width: 0.5"/>
      </g>
     </g>
     <g id="text_10">
      <!-- $0$ -->
      <g transform="translate(62.611488 132.439234)scale(0.08 -0.08)">
       <use xlink:href="#DejaVuSans-30" transform="translate(0 0.78125)"/>
      </g>
     </g>
    </g>
    <g id="ytick_5">
     <g id="line2d_11">
      <g>
       <use xlink:href="#mccec4aa265" x="71.231488" y="92.509648" style="stroke: #000000; stroke-width: 0.5"/>
      </g>
     </g>
     <g id="text_11">
      <!-- $5.00×10^{5}$ -->
      <g transform="translate(29.171488 95.549023)scale(0.08 -0.08)">
       <use xlink:href="#DejaVuSans-35" transform="translate(0 0.684375)"/>
       <use xlink:href="#DejaVuSans-2e" transform="translate(63.623047 0.684375)"/>
       <use xlink:href="#DejaVuSans-30" transform="translate(95.410156 0.684375)"/>
       <use xlink:href="#DejaVuSans-30" transform="translate(159.033203 0.684375)"/>
       <use xlink:href="#DejaVuSans-d7" transform="translate(222.65625 0.684375)"/>
       <use xlink:href="#DejaVuSans-31" transform="translate(306.445312 0.684375)"/>
       <use xlink:href="#DejaVuSans-30" transform="translate(370.068359 0.684375)"/>
       <use xlink:href="#DejaVuSans-35" transform="translate(434.648438 38.965625)scale(0.7)"/>
      </g>
     </g>
    </g>
    <g id="ytick_6">
     <g id="line2d_12">
      <g>
       <use xlink:href="#mccec4aa265" x="71.231488" y="55.619436" style="stroke: #000000; stroke-width: 0.5"/>
      </g>
     </g>
     <g id="text_12">
      <!-- $1.00×10^{6}$ -->
      <g transform="translate(29.171488 58.658811)scale(0.08 -0.08)">
       <use xlink:href="#DejaVuSans-31" transform="translate(0 0.765625)"/>
       <use xlink:href="#DejaVuSans-2e" transform="translate(63.623047 0.765625)"/>
       <use xlink:href="#DejaVuSans-30" transform="translate(95.410156 0.765625)"/>
       <use xlink:href="#DejaVuSans-30" transform="translate(159.033203 0.765625)"/>
       <use xlink:href="#DejaVuSans-d7" transform="translate(222.65625 0.765625)"/>
       <use xlink:href="#DejaVuSans-31" transform="translate(306.445312 0.765625)"/>
       <use xlink:href="#DejaVuSans-30" transform="translate(370.068359 0.765625)"/>
       <use xlink:href="#DejaVuSans-36" transform="translate(434.648438 39.046875)scale(0.7)"/>
      </g>
     </g>
    </g>
    <g id="ytick_7">
     <g id="line2d_13">
      <g>
       <use xlink:href="#mccec4aa265" x="71.231488" y="18.729225" style="stroke: #000000; stroke-width: 0.5"/>
      </g>
     </g>
     <g id="text_13">
      <!-- $1.50×10^{6}$ -->
      <g transform="translate(29.171488 21.7686)scale(0.08 -0.08)">
       <use xlink:href="#DejaVuSans-31" transform="translate(0 0.765625)"/>
       <use xlink:href="#DejaVuSans-2e" transform="translate(63.623047 0.765625)"/>
       <use xlink:href="#DejaVuSans-35" transform="translate(95.410156 0.765625)"/>
       <use xlink:href="#DejaVuSans-30" transform="translate(159.033203 0.765625)"/>
       <use xlink:href="#DejaVuSans-d7" transform="translate(222.65625 0.765625)"/>
       <use xlink:href="#DejaVuSans-31" transform="translate(306.445312 0.765625)"/>
       <use xlink:href="#DejaVuSans-30" transform="translate(370.068359 0.765625)"/>
       <use xlink:href="#DejaVuSans-36" transform="translate(434.648438 39.046875)scale(0.7)"/>
      </g>
     </g>
    </g>
    <g id="text_14">
     <!-- $M_y$ ($Nm$) -->
     <g transform="translate(15.041488 153.245)rotate(-90)scale(0.11 -0.11)">
      <defs>
       <path id="DejaVuSans-Oblique-4d" d="M 1081 4666 
L 2028 4666 
L 2572 1522 
L 4378 4666 
L 5350 4666 
L 4441 0 
L 3828 0 
L 4622 4091 
L 2791 897 
L 2175 897 
L 1581 4103 
L 788 0 
L 172 0 
L 1081 4666 
z
" transform="scale(0.015625)"/>
       <path id="DejaVuSans-Oblique-79" d="M 1588 -325 
Q 1188 -997 936 -1164 
Q 684 -1331 294 -1331 
L -159 -1331 
L -63 -850 
L 269 -850 
Q 509 -850 678 -719 
Q 847 -588 1056 -206 
L 1234 128 
L 459 3500 
L 1069 3500 
L 1650 819 
L 3256 3500 
L 3859 3500 
L 1588 -325 
z
" transform="scale(0.015625)"/>
       <path id="DejaVuSans-Oblique-4e" d="M 1081 4666 
L 1931 4666 
L 3219 666 
L 4000 4666 
L 4616 4666 
L 3706 0 
L 2853 0 
L 1569 4025 
L 788 0 
L 172 0 
L 1081 4666 
z
" transform="scale(0.015625)"/>
       <path id="DejaVuSans-Oblique-6d" d="M 5747 2113 
L 5338 0 
L 4763 0 
L 5166 2094 
Q 5191 2228 5203 2325 
Q 5216 2422 5216 2491 
Q 5216 2772 5059 2928 
Q 4903 3084 4622 3084 
Q 4203 3084 3875 2770 
Q 3547 2456 3450 1953 
L 3066 0 
L 2491 0 
L 2900 2094 
Q 2925 2209 2937 2307 
Q 2950 2406 2950 2484 
Q 2950 2769 2794 2926 
Q 2638 3084 2363 3084 
Q 1938 3084 1609 2770 
Q 1281 2456 1184 1953 
L 800 0 
L 225 0 
L 909 3500 
L 1484 3500 
L 1375 2956 
Q 1609 3263 1923 3423 
Q 2238 3584 2597 3584 
Q 2978 3584 3223 3384 
Q 3469 3184 3519 2828 
Q 3781 3197 4126 3390 
Q 4472 3584 4856 3584 
Q 5306 3584 5551 3325 
Q 5797 3066 5797 2591 
Q 5797 2488 5784 2364 
Q 5772 2241 5747 2113 
z
" transform="scale(0.015625)"/>
      </defs>
      <use xlink:href="#DejaVuSans-Oblique-4d" transform="translate(0 0.125)"/>
      <use xlink:href="#DejaVuSans-Oblique-79" transform="translate(86.279297 -16.28125)scale(0.7)"/>
      <use xlink:href="#DejaVuSans-20" transform="translate(130.439453 0.125)"/>
      <use xlink:href="#DejaVuSans-28" transform="translate(162.226562 0.125)"/>
      <use xlink:href="#DejaVuSans-Oblique-4e" transform="translate(201.240234 0.125)"/>
      <use xlink:href="#DejaVuSans-Oblique-6d" transform="translate(276.044922 0.125)"/>
      <use xlink:href="#DejaVuSans-29" transform="translate(373.457031 0.125)"/>
     </g>
    </g>
   </g>
   <g id="line2d_14">
    <path d="M 71.231488 129.399859 
L 72.783886 129.508061 
L 73.833646 129.58976 
L 74.688988 129.247767 
L 75.797061 128.699804 
L 76.355632 128.696777 
L 76.96603 128.979711 
L 79.420425 130.378165 
L 81.182593 131.454971 
L 81.590027 131.36634 
L 82.201176 130.982239 
L 82.885499 130.239446 
L 84.06786 129.054081 
L 85.119432 128.038135 
L 86.861768 126.367002 
L 87.396585 126.173405 
L 89.654591 125.827397 
L 90.54347 125.640062 
L 91.036677 125.770418 
L 91.770145 126.252102 
L 93.091377 127.587825 
L 93.963522 128.857769 
L 94.574805 130.136632 
L 97.232689 136.312653 
L 98.620854 138.147941 
L 99.641495 139.118142 
L 100.327189 139.351111 
L 100.899517 139.316961 
L 101.821152 139.254106 
L 102.52322 139.348553 
L 103.128095 139.466701 
L 103.745856 139.380018 
L 104.236326 139.06338 
L 105.048147 138.198558 
L 106.67691 135.902957 
L 107.517524 134.334287 
L 109.969285 128.948802 
L 111.285388 126.574773 
L 112.107953 124.608649 
L 113.84581 119.79498 
L 114.836318 116.433844 
L 116.201358 110.856409 
L 117.156 107.379296 
L 118.152705 104.582219 
L 119.497274 101.615067 
L 120.218078 100.507878 
L 120.785883 100.035047 
L 121.373113 99.79506 
L 122.843561 99.662489 
L 123.536914 99.773373 
L 124.015898 100.089204 
L 124.498347 100.737057 
L 125.265767 102.264248 
L 126.336589 105.071567 
L 127.442407 108.487873 
L 129.127583 114.975242 
L 130.255374 118.781557 
L 132.440097 125.239295 
L 134.630166 132.719467 
L 135.515077 136.52403 
L 139.755074 157.697319 
L 141.198226 164.738145 
L 143.445333 174.134976 
L 144.312861 177.034662 
L 144.93475 178.475128 
L 145.595326 179.416065 
L 146.130538 179.819836 
L 146.933936 180.125444 
L 147.441593 180.111431 
L 148.146197 179.840985 
L 148.757856 179.317743 
L 149.620468 178.600175 
L 150.107218 178.382202 
L 150.664386 178.436095 
L 151.556331 178.922312 
L 152.309785 179.359924 
L 153.576078 179.730753 
L 155.215303 179.91279 
L 155.800058 179.615874 
L 156.431455 178.940787 
L 158.325646 176.573259 
L 159.272742 175.339317 
L 159.904139 174.121652 
L 160.628342 172.158861 
L 161.390494 169.52237 
L 162.258411 165.78484 
L 163.126328 160.815417 
L 164.133601 153.254482 
L 166.005175 136.784369 
L 169.890319 103.388851 
L 172.633329 82.799062 
L 173.532367 77.733701 
L 174.503514 73.429445 
L 175.443645 70.184772 
L 176.063474 68.666679 
L 176.697062 67.586579 
L 178.28242 65.496921 
L 179.07316 63.92212 
L 180.437911 61.126189 
L 181.263789 59.873463 
L 181.920309 59.032931 
L 182.57683 58.529421 
L 182.90509 58.412511 
L 183.23335 58.441626 
L 183.52512 58.630053 
L 184.147104 59.459958 
L 184.807531 60.816917 
L 186.465458 64.481258 
L 188.321394 68.103569 
L 189.568724 71.069163 
L 190.357859 73.538242 
L 190.990385 76.22265 
L 191.719094 80.371535 
L 192.748445 87.848178 
L 195.560296 110.944863 
L 197.524552 126.158434 
L 201.160587 152.239592 
L 202.015085 156.171447 
L 202.871933 159.087889 
L 203.689898 161.119942 
L 204.961128 163.464734 
L 205.582321 164.900535 
L 206.189651 166.903396 
L 206.846404 169.853639 
L 209.109336 180.949462 
L 209.817076 183.054922 
L 210.417588 184.190556 
L 210.878737 184.669648 
L 211.145953 184.762048 
L 211.41317 184.708579 
L 211.69041 184.492905 
L 211.990749 184.065365 
L 212.591426 182.604592 
L 213.192104 180.456679 
L 214.693799 174.529841 
L 215.294477 173.038727 
L 215.791201 172.387632 
L 216.183973 172.15662 
L 216.576744 172.16951 
L 217.382159 172.541841 
L 218.187573 172.865897 
L 218.59028 172.825374 
L 218.966383 172.547859 
L 219.40884 171.749934 
L 219.85299 170.371622 
L 220.331673 168.041935 
L 220.926656 163.794039 
L 221.701445 156.389471 
L 226.041015 110.769452 
L 227.463912 96.977128 
L 228.307789 86.344047 
L 229.649824 65.840087 
L 230.897983 48.01745 
L 231.699416 39.441124 
L 232.314414 34.926001 
L 232.723964 33.104807 
L 233.134924 32.215802 
L 233.376065 32.154311 
L 233.617206 32.441142 
L 233.978917 33.484051 
L 234.461199 35.757782 
L 235.214302 40.619877 
L 236.466141 48.635654 
L 237.199295 51.949217 
L 238.342175 55.849929 
L 239.176106 58.307191 
L 239.602892 59.157055 
L 240.057576 59.620769 
L 240.518248 59.598685 
L 241.747714 58.878958 
L 242.012547 58.906903 
L 242.559507 59.28846 
L 244.900684 62.155793 
L 245.494312 63.734779 
L 246.08794 66.217675 
L 246.978383 70.205631 
L 247.275197 71.100898 
L 247.572011 71.632938 
L 247.868825 71.806884 
L 248.165639 71.673858 
L 249.056082 70.770538 
L 249.352896 70.8905 
L 249.800725 71.900311 
L 250.168948 73.58501 
L 250.666431 77.01417 
L 251.327867 83.259852 
L 252.098258 92.724361 
L 252.849332 105.077137 
L 253.746147 123.943202 
L 255.176789 154.179077 
L 255.92623 165.448698 
L 256.68402 173.693994 
L 257.510078 180.503297 
L 258.201392 184.481403 
L 258.686024 186.117283 
L 259.081158 186.791276 
L 259.485344 187.080797 
L 260.066092 187.466852 
L 260.453101 188.094271 
L 260.867274 189.236449 
L 262.335055 193.847198 
L 262.568432 193.938409 
L 262.755832 193.80793 
L 263.027075 193.316448 
L 263.477107 191.924163 
L 264.565106 188.312481 
L 264.957048 187.811953 
L 265.243582 187.79461 
L 265.553044 188.036664 
L 266.013983 188.736295 
L 267.023462 190.863545 
L 267.552975 192.36309 
L 268.023482 194.315357 
L 268.695801 198.296658 
L 269.882648 205.812353 
L 270.297453 206.958422 
L 270.436515 207.048383 
L 270.575576 206.988836 
L 270.853699 206.456706 
L 271.299687 204.62861 
L 272.606348 197.775124 
L 272.936971 196.917734 
L 273.267594 196.504064 
L 273.598216 196.399152 
L 274.417464 196.353048 
L 274.773999 196.018262 
L 275.239481 195.131153 
L 276.453326 192.481266 
L 276.977079 191.908527 
L 278.129336 191.121115 
L 278.443588 190.458286 
L 278.851917 188.999179 
L 279.289455 186.452463 
L 279.786902 182.151181 
L 280.533124 173.337969 
L 281.985859 152.698221 
L 283.62846 130.570738 
L 284.508242 121.848389 
L 285.883222 108.832484 
L 286.609491 98.905014 
L 287.832288 78.389712 
L 289.699603 48.172763 
L 290.477448 38.256982 
L 290.967781 34.447803 
L 291.269143 33.383238 
L 291.476712 33.224662 
L 291.685936 33.522559 
L 292.005788 34.772892 
L 292.435711 37.6032 
L 294.571275 53.751716 
L 295.184728 56.577062 
L 295.684523 58.002935 
L 296.020081 58.328908 
L 296.188602 58.225848 
L 296.525644 57.371523 
L 296.862686 55.585994 
L 297.370707 51.185625 
L 298.225598 40.638289 
L 299.216836 28.867812 
L 299.763676 24.605305 
L 300.17611 22.646862 
L 300.451834 21.986476 
L 300.733553 21.835082 
L 301.025943 22.213599 
L 301.318333 23.123517 
L 301.669194 24.920682 
L 302.137008 28.585769 
L 302.773924 35.79817 
L 304.714373 59.767971 
L 305.122709 61.726211 
L 305.340443 62.013689 
L 305.44931 61.95164 
L 305.671325 61.416237 
L 306.012147 59.64931 
L 306.477033 55.853077 
L 307.297759 46.924571 
L 308.683893 31.538319 
L 309.009032 29.764464 
L 309.199222 29.487761 
L 309.328353 29.688966 
L 309.530898 30.703932 
L 309.821258 33.742322 
L 310.218607 40.922074 
L 310.731861 54.686148 
L 311.732298 89.445071 
L 313.060512 134.287076 
L 313.793798 152.812956 
L 314.468059 164.725449 
L 314.920563 169.761863 
L 315.3376 172.27691 
L 315.641511 172.912858 
L 315.844119 172.885379 
L 316.132563 172.436659 
L 316.658984 171.568794 
L 316.837089 171.662205 
L 317.015453 172.124283 
L 317.283371 173.686749 
L 317.648332 177.694955 
L 318.131225 185.936977 
L 320.131676 224.657534 
L 320.76203 230.796753 
L 321.445864 234.87311 
L 322.023309 237.039717 
L 322.235145 237.287358 
L 322.341063 237.229977 
L 322.5529 236.659115 
L 322.764736 235.366221 
L 323.114085 231.384479 
L 323.509807 223.875006 
L 324.130815 206.671346 
L 324.987165 183.368679 
L 325.406752 177.412266 
L 325.658288 176.123854 
L 325.762572 176.085293 
L 325.930648 176.594013 
L 326.156079 178.25875 
L 326.570469 183.581963 
L 330.640344 245.507161 
L 331.076563 248.839549 
L 331.406078 250.00247 
L 331.515916 250.084749 
L 331.625755 250.000219 
L 331.845432 249.291925 
L 332.067756 247.775554 
L 332.443348 243.26419 
L 332.965287 233.706951 
L 334.094419 211.827562 
L 334.557544 206.605509 
L 334.921516 204.73067 
L 335.103502 204.481338 
L 335.285487 204.588713 
L 335.610956 205.272838 
L 336.045178 206.050759 
L 336.224061 206.081781 
L 336.413122 205.910475 
L 336.718576 205.285323 
L 337.38625 203.751802 
L 337.553346 203.786398 
L 337.720443 204.153208 
L 337.971088 205.421014 
L 338.305281 208.410947 
L 339.03729 217.771757 
L 339.815162 226.979944 
L 340.320228 230.612682 
L 340.753035 232.290006 
L 341.032043 232.658222 
L 341.206766 232.530257 
L 341.44758 231.842977 
L 341.757267 230.058693 
L 342.156794 226.25847 
L 342.64827 219.073986 
L 343.505699 201.78903 
L 344.347344 186.341113 
L 344.853253 180.446126 
L 345.659374 174.459286 
L 346.124923 169.961692 
L 346.716658 161.702033 
L 347.420237 148.371382 
L 348.388076 129.782846 
L 348.871996 124.934081 
L 349.525263 118.844136 
L 349.898995 112.972502 
L 350.476257 99.304102 
L 352.222844 53.608715 
L 352.6587 47.85268 
L 353.235765 43.130361 
L 353.768421 38.494295 
L 354.236637 31.710133 
L 355.481766 10.643495 
L 355.694275 10.062685 
L 355.815515 10.385952 
L 356.010837 11.908502 
L 356.357462 17.304168 
L 357.440886 37.724336 
L 357.610618 38.565484 
L 357.701703 38.603471 
L 357.883871 37.834196 
L 358.16394 34.691845 
L 358.652712 25.573268 
L 359.251837 15.139543 
L 359.561665 13.098569 
L 359.672568 13.162751 
L 359.909412 14.745495 
L 360.266255 20.393519 
L 361.455732 43.605386 
L 361.693628 44.382089 
L 361.812575 43.986171 
L 362.050471 41.687116 
L 362.423924 34.999774 
L 363.092621 23.0269 
L 363.277393 21.909509 
L 363.371903 21.910712 
L 363.563989 23.18847 
L 363.856715 28.292708 
L 364.443844 45.459732 
L 364.933399 57.803196 
L 365.229606 61.082907 
L 365.328342 61.321251 
L 365.427077 61.134089 
L 365.649441 59.232846 
L 365.992926 52.830709 
L 367.305289 21.773971 
L 367.430288 21.822273 
L 367.555288 22.840748 
L 367.805286 27.612697 
L 368.305282 44.311603 
L 369.034622 67.265784 
L 369.351091 71.620714 
L 369.433589 71.95275 
L 369.518588 71.924119 
L 369.694439 70.675418 
L 369.96207 66.030272 
L 370.933511 44.923115 
L 371.071062 44.296729 
L 371.141372 44.339415 
L 371.290386 45.252761 
L 371.520613 48.761117 
L 371.943288 60.02905 
L 372.571059 76.986058 
L 372.852716 80.81898 
L 373.044416 81.61801 
L 373.140266 81.44815 
L 373.331965 79.983394 
L 373.619515 75.299605 
L 374.490486 58.206225 
L 374.699241 57.414211 
L 374.803926 57.862864 
L 375.014185 60.635542 
L 375.329948 69.502709 
L 375.861721 93.419126 
L 376.60813 125.717218 
L 377.034649 134.769548 
L 377.247908 136.445754 
L 377.47327 136.760435 
L 378.036674 135.866859 
L 378.149355 136.253442 
L 378.374717 138.328369 
L 378.713538 145.101626 
L 379.236582 162.646591 
L 380.248556 198.506805 
L 380.537664 201.942218 
L 380.643704 202.102636 
L 380.749744 201.701048 
L 380.964135 199.344108 
L 381.303723 192.395526 
L 382.136678 174.511554 
L 382.389763 172.643155 
L 382.474125 172.541444 
L 382.558487 172.721343 
L 382.72721 173.950082 
L 382.983238 177.899751 
L 384.026185 198.270286 
L 384.171562 198.618024 
L 384.316938 198.079402 
L 384.535004 195.813716 
L 384.971134 187.672045 
L 385.604747 176.456586 
L 385.884237 174.402425 
L 386.036753 174.189953 
L 386.194574 174.657534 
L 386.447928 176.867611 
L 386.786937 182.76445 
L 387.353462 198.777082 
L 387.884329 211.687273 
L 388.113534 213.583293 
L 388.191062 213.590408 
L 388.351626 212.67729 
L 388.672786 208.228343 
L 389.315108 198.604439 
L 389.811767 194.536758 
L 390.081723 193.461874 
L 390.180799 193.465328 
L 390.281426 193.769026 
L 390.493818 195.527966 
L 390.823189 201.055098 
L 391.52151 214.160096 
L 391.75607 215.143322 
L 391.873351 214.781489 
L 392.107911 212.677108 
L 392.694313 203.529772 
L 393.749835 187.158442 
L 393.984396 186.157732 
L 394.101676 186.398813 
L 394.336237 188.34966 
L 394.72401 195.022649 
L 395.856185 217.436689 
L 396.141392 219.363058 
L 396.283995 219.442898 
L 396.426598 218.924678 
L 396.711805 216.37488 
L 397.342198 210.01709 
L 397.453393 209.696922 
L 397.564589 209.760608 
L 397.78698 211.077076 
L 398.120567 215.744321 
L 398.56535 225.888506 
L 399.121328 238.786951 
L 399.34372 241.412329 
L 399.456448 241.934228 
L 399.570116 241.888438 
L 399.797452 240.160585 
L 400.169931 233.494441 
L 400.697601 218.412246 
L 401.376107 199.37101 
L 401.684382 195.069284 
L 401.929542 193.747818 
L 402.110017 193.614642 
L 402.295622 193.904611 
L 402.678181 194.634579 
L 402.773821 194.639861 
L 402.9651 194.229093 
L 403.15638 193.039645 
L 403.447151 188.977086 
L 403.763917 180.520126 
L 405.075558 137.482525 
L 405.301035 136.154069 
L 405.413774 136.595619 
L 405.585055 138.586959 
L 405.997743 147.449164 
L 406.688612 161.712828 
L 406.947844 164.138745 
L 407.012652 164.195881 
L 407.133934 163.605338 
L 407.315454 161.074531 
L 407.701383 151.123372 
L 409.039597 111.858343 
L 409.469429 108.342139 
L 410.319144 101.275329 
L 410.614694 95.697095 
L 411.146032 79.222567 
L 412.294823 42.249216 
L 412.597306 38.6526 
L 412.671362 38.458933 
L 412.745417 38.512146 
L 412.893826 39.264316 
L 413.193212 42.622571 
L 414.320775 57.355881 
L 414.595612 58.635905 
L 414.67311 58.623435 
L 414.839015 58.009396 
L 415.102397 55.492618 
L 415.721803 48.415551 
L 415.810435 48.217801 
L 415.900156 48.275044 
L 416.079599 49.075674 
L 416.355794 52.0198 
L 416.72622 59.178522 
L 417.320273 75.712181 
L 417.849404 88.127281 
L 418.166882 90.710754 
L 418.272708 90.662414 
L 418.48436 88.968152 
L 418.803943 82.317181 
L 419.268802 65.363096 
L 420.153414 31.505621 
L 420.393394 27.820111 
L 420.539547 27.136895 
L 420.615015 27.143883 
L 420.766406 27.648176 
L 422.181958 34.792704 
L 422.354316 34.907453 
L 422.361999 34.894169 
" clip-path="url(#p9f4d0437fb)" style="fill: none; stroke: #e36f47"/>
   </g>
   <g id="patch_3">
    <path d="M 71.231488 258.225354 
L 71.231488 2.834646 
" style="fill: none; stroke: #000000; stroke-linejoin: miter; stroke-linecap: square"/>
   </g>
   <g id="patch_4">
    <path d="M 71.231488 258.225354 
L 422.361999 258.225354 
" style="fill: none; stroke: #000000; stroke-linejoin: miter; stroke-linecap: square"/>
   </g>
   <g id="line2d_15">
    <path d="M 71.231488 129.399859 
L 72.797221 129.510803 
L 73.892574 129.573551 
L 74.773292 129.197247 
L 75.764912 128.704498 
L 76.370829 128.699006 
L 76.935064 128.962503 
L 79.618066 130.516495 
L 80.969479 131.404846 
L 81.404527 131.436226 
L 81.877807 131.21442 
L 82.522576 130.666121 
L 84.264278 128.879891 
L 85.182929 127.971703 
L 86.724787 126.440487 
L 87.428535 126.162418 
L 88.219668 126.143513 
L 89.241696 126.004001 
L 90.602635 125.666995 
L 91.134203 125.798436 
L 91.707665 126.203372 
L 92.788243 127.267474 
L 93.674072 128.39429 
L 94.438339 129.811215 
L 95.212554 131.723665 
L 96.581393 135.156637 
L 97.311155 136.44406 
L 98.383696 137.861312 
L 99.397363 138.925376 
L 100.07096 139.311064 
L 100.650782 139.385539 
L 102.607255 139.327192 
L 103.534326 139.404433 
L 104.005524 139.244856 
L 104.548782 138.808266 
L 105.468947 137.667045 
L 106.967085 135.392821 
L 107.951827 133.393777 
L 110.07424 128.692783 
L 111.779142 125.476966 
L 112.868328 122.617867 
L 114.582381 117.309485 
L 115.868408 112.451607 
L 117.226379 107.195019 
L 118.050572 104.713521 
L 119.056337 102.496714 
L 120.122395 100.761513 
L 120.889334 99.933911 
L 121.582144 99.591354 
L 122.197185 99.579387 
L 123.081502 99.844647 
L 123.844547 100.257485 
L 124.353561 100.702565 
L 124.865691 101.379812 
L 125.554058 102.745999 
L 126.287353 104.744802 
L 127.675402 109.35464 
L 131.641884 123.042434 
L 133.159533 127.482445 
L 134.404015 131.97952 
L 135.864709 138.108277 
L 137.354061 145.488827 
L 139.874004 158.308419 
L 142.50835 170.452981 
L 143.544014 174.296082 
L 144.485598 177.093656 
L 145.37527 179.073156 
L 146.119673 180.091225 
L 146.665893 180.418756 
L 147.229185 180.418353 
L 147.82666 180.147109 
L 150.270724 178.672858 
L 150.955387 178.524856 
L 151.717892 178.58161 
L 152.515405 178.917662 
L 154.29325 179.880179 
L 154.802803 179.906543 
L 155.379231 179.72814 
L 156.246771 179.118657 
L 157.417786 177.877697 
L 158.529048 176.290207 
L 159.521994 174.4459 
L 160.586743 171.936135 
L 161.393947 169.442288 
L 162.116455 166.504311 
L 162.933931 162.138173 
L 163.818037 156.145088 
L 165.016544 146.348269 
L 167.603752 122.366445 
L 169.418918 106.838947 
L 171.549428 90.621799 
L 172.998875 81.097777 
L 173.967707 75.882352 
L 174.990653 71.611399 
L 175.746201 69.344023 
L 176.501936 67.765244 
L 177.458373 66.413962 
L 179.139761 64.21686 
L 180.474658 61.935505 
L 181.987815 59.411501 
L 182.729234 58.662388 
L 183.201811 58.496608 
L 183.658632 58.611975 
L 184.122941 59.016006 
L 184.597561 59.704331 
L 185.313137 61.146389 
L 189.541794 71.159652 
L 190.301738 73.452424 
L 191.08546 76.641228 
L 191.872015 80.962949 
L 192.916263 88.445764 
L 194.686088 103.724575 
L 196.678603 120.420905 
L 198.823985 136.102448 
L 200.799046 149.338576 
L 201.892706 155.131517 
L 202.737409 158.45241 
L 203.48082 160.623799 
L 204.628654 163.200823 
L 205.700365 165.755565 
L 206.451147 168.176714 
L 207.377194 172.055379 
L 209.387028 181.003734 
L 210.103249 183.11077 
L 210.666864 184.159072 
L 211.150665 184.616356 
L 211.52325 184.678654 
L 211.912505 184.458373 
L 212.263921 183.995534 
L 212.781384 182.848037 
L 213.426259 180.710411 
L 215.52049 172.844984 
L 216.006627 171.943667 
L 216.364286 171.594761 
L 216.733272 171.465756 
L 217.312713 171.568461 
L 218.098993 171.816078 
L 218.530416 171.775149 
L 218.937062 171.506096 
L 219.338012 170.940857 
L 219.862582 169.612682 
L 220.427245 167.227129 
L 221.051248 163.199377 
L 221.710684 157.287783 
L 222.776589 145.16045 
L 224.50889 125.276402 
L 226.229309 108.548449 
L 227.858398 92.401335 
L 228.805057 80.33219 
L 231.699341 40.011552 
L 232.332768 35.07425 
L 232.803466 32.811405 
L 233.130721 31.968911 
L 233.440836 31.729396 
L 233.603418 31.819658 
L 233.931762 32.44281 
L 234.39509 34.257742 
L 234.892256 37.212194 
L 237.167089 52.432903 
L 237.788829 54.638003 
L 238.610272 56.650859 
L 239.5176 58.369692 
L 240.055459 58.964366 
L 240.431295 59.079685 
L 240.865957 58.920311 
L 242.021164 58.202449 
L 242.312422 58.282535 
L 242.73362 58.711682 
L 243.282175 59.748235 
L 245.341288 64.706754 
L 246.182589 67.281571 
L 247.421707 71.239871 
L 247.8179 71.816049 
L 248.080156 71.913131 
L 248.447418 71.724072 
L 249.291138 70.961289 
L 249.551737 71.057916 
L 249.867286 71.626031 
L 250.219056 72.981286 
L 250.604555 75.424928 
L 251.094218 79.905705 
L 251.823878 88.942804 
L 252.672495 102.381502 
L 253.68895 122.440822 
L 255.487662 158.831861 
L 256.261492 169.192441 
L 256.90744 175.228362 
L 257.797257 181.31136 
L 258.579535 185.285267 
L 259.135007 187.180085 
L 259.692205 188.301381 
L 260.968252 190.170999 
L 261.582775 191.779809 
L 262.329164 193.779143 
L 262.619574 194.211696 
L 262.921378 194.294819 
L 263.221391 193.955684 
L 263.613166 192.902493 
L 264.336604 189.864977 
L 264.891952 187.72013 
L 265.331777 186.796931 
L 265.633317 186.685711 
L 265.896425 186.935 
L 266.316368 187.907156 
L 266.99138 190.420778 
L 268.472522 197.073344 
L 270.393429 206.679004 
L 270.678764 207.084405 
L 270.826672 207.072998 
L 271.122536 206.574649 
L 271.50992 205.014552 
L 272.136732 201.018235 
L 272.851896 196.473396 
L 273.346843 194.619256 
L 273.737753 194.080617 
L 274.033919 194.096537 
L 275.177556 194.737739 
L 275.539817 194.4035 
L 276.025538 193.454907 
L 277.1222 191.012628 
L 277.585205 190.564005 
L 278.051025 190.490356 
L 278.522414 190.405907 
L 278.77235 190.135804 
L 279.091038 189.346109 
L 279.462604 187.541623 
L 279.848361 184.441814 
L 280.402075 177.782896 
L 281.419986 161.463664 
L 282.452411 145.891612 
L 283.842054 128.917899 
L 285.588451 110.030996 
L 286.591268 98.613943 
L 287.366147 87.112166 
L 290.065371 43.258939 
L 290.787193 36.502636 
L 291.19215 34.181457 
L 291.490387 33.268508 
L 291.749009 33.077329 
L 291.893102 33.222893 
L 292.177682 34.041919 
L 292.492436 35.731169 
L 292.962087 39.535218 
L 294.913382 57.538802 
L 295.2409 58.893583 
L 295.573758 59.551657 
L 295.73013 59.620509 
L 296.024683 59.36056 
L 296.290127 58.720522 
L 296.731735 56.874334 
L 297.194053 53.937161 
L 297.867976 47.812196 
L 298.790753 36.595575 
L 299.656241 26.420498 
L 300.218442 22.23791 
L 300.574074 21.03584 
L 300.829076 20.90475 
L 301.074114 21.34219 
L 301.341606 22.41729 
L 301.743777 25.091074 
L 302.328411 30.779989 
L 304.749079 57.403129 
L 305.21909 59.825052 
L 305.444666 60.382452 
L 305.691427 60.488465 
L 305.95275 59.992729 
L 306.311186 58.266885 
L 306.688984 55.17185 
L 307.195802 49.309797 
L 308.662824 31.086267 
L 308.998726 29.439244 
L 309.198944 29.362377 
L 309.363072 29.867189 
L 309.610744 31.655678 
L 309.93765 35.921995 
L 310.422466 45.881864 
L 311.126428 65.88713 
L 312.549306 114.302109 
L 313.578694 146.986684 
L 314.263686 161.921192 
L 314.726742 167.986249 
L 315.085674 170.621365 
L 315.420563 171.759364 
L 315.633427 171.990515 
L 315.847011 171.96839 
L 316.527431 171.595915 
L 316.784421 171.906752 
L 317.042985 172.766814 
L 317.380515 174.958461 
L 317.802947 179.65203 
L 318.389834 189.460396 
L 320.473474 228.310291 
L 320.984708 233.374736 
L 321.475908 236.145645 
L 321.858404 237.064099 
L 322.054393 237.105946 
L 322.252304 236.815106 
L 322.517796 235.819721 
L 322.863645 233.283032 
L 323.239333 228.650094 
L 323.769288 218.51258 
L 325.508573 179.261101 
L 325.838127 177.14049 
L 325.951428 176.999268 
L 326.059554 177.131786 
L 326.253214 177.982043 
L 326.550162 180.626547 
L 327.058192 187.934667 
L 328.096025 207.601219 
L 329.327991 229.656371 
L 330.180069 240.83288 
L 330.86286 247.213559 
L 331.320802 249.741717 
L 331.629946 250.364858 
L 331.773065 250.293026 
L 331.964242 249.789385 
L 332.196046 248.484913 
L 332.528142 245.17 
L 332.959248 238.352014 
L 333.841429 219.380144 
L 334.465898 208.008774 
L 334.89144 203.753905 
L 335.184512 202.689268 
L 335.334949 202.646215 
L 335.500555 202.897805 
L 335.92216 204.27369 
L 336.390349 205.606305 
L 336.703847 205.92889 
L 336.997136 205.918195 
L 337.387747 205.890817 
L 337.634977 206.160942 
L 337.902424 206.943217 
L 338.260961 209.021591 
L 338.755107 213.668281 
L 340.256452 228.98994 
L 340.618309 230.702814 
L 340.825983 231.094034 
L 341.018744 231.070042 
L 341.189456 230.744478 
L 341.463414 229.639273 
L 341.840709 226.960535 
L 342.301418 221.930207 
L 342.952289 211.765827 
L 344.680257 182.131994 
L 345.217861 177.705601 
L 346.20868 171.364566 
L 346.662929 165.945215 
L 347.217749 156.536559 
L 349.08373 121.662233 
L 350.078267 109.567906 
L 350.612146 98.257653 
L 352.604207 49.363128 
L 353.013587 45.247204 
L 353.524037 42.632966 
L 353.891641 40.449434 
L 354.261529 36.591316 
L 354.757725 28.594707 
L 355.569841 15.351231 
L 355.846175 13.444446 
L 355.980636 13.280074 
L 356.102319 13.581726 
L 356.308745 15.037083 
L 356.626344 19.225792 
L 357.756764 36.164421 
L 357.952278 36.782182 
L 358.06002 36.658478 
L 358.249536 35.640043 
L 358.527455 32.480319 
L 359.805164 14.69322 
L 359.868427 14.631842 
L 359.932971 14.70035 
L 360.060252 15.224644 
L 360.295426 17.498974 
L 360.646625 23.467799 
L 361.621707 41.82556 
L 361.922114 44.031503 
L 362.085902 44.233856 
L 362.213903 43.912533 
L 362.452397 42.285513 
L 362.869551 37.079655 
L 363.402347 30.412732 
L 363.604606 29.541677 
L 363.673757 29.585504 
L 363.784451 30.052576 
L 364.007703 32.486903 
L 364.364497 39.684584 
L 365.106434 55.340479 
L 365.432753 58.062458 
L 365.56289 58.221042 
L 365.700263 57.827993 
L 365.909263 56.170996 
L 366.210343 51.7065 
L 366.691841 40.669492 
L 367.336732 26.135976 
L 367.582712 24.034529 
L 367.632478 23.978089 
L 367.683212 24.056923 
L 367.854255 25.342745 
L 368.105075 29.871916 
L 368.619118 45.183053 
L 369.216447 61.459041 
L 369.577945 66.180548 
L 369.757996 66.780479 
L 369.874612 66.558735 
L 370.050664 65.376263 
L 370.34872 61.4609 
L 371.159009 49.290056 
L 371.316789 48.711347 
L 371.367362 48.733567 
L 371.511631 49.372921 
L 371.715628 51.69781 
L 372.057664 58.66749 
L 372.996322 79.518376 
L 373.251811 80.96904 
L 373.317134 80.93379 
L 373.454248 80.361338 
L 373.729496 77.49954 
L 374.857222 62.640695 
L 374.988347 63.010784 
L 375.176755 64.96608 
L 375.431531 70.318989 
L 375.849424 84.95377 
L 377.154162 135.77756 
L 377.504417 140.79544 
L 377.825536 142.593281 
L 378.298877 144.34435 
L 378.559347 146.846054 
L 378.894566 152.717282 
L 379.342197 165.022912 
L 380.63325 204.185317 
L 380.828368 205.461583 
L 380.876052 205.491158 
L 380.928606 205.399269 
L 381.095368 204.283957 
L 381.38175 199.827341 
L 381.972652 185.33617 
L 382.476335 175.359895 
L 382.729987 173.202135 
L 382.846061 172.993837 
L 382.97333 173.331851 
L 383.173356 174.98607 
L 383.503026 180.027172 
L 384.319126 193.138987 
L 384.570954 194.19394 
L 384.676699 194.02532 
L 384.876672 192.723938 
L 385.207378 188.168239 
L 386.088906 174.167953 
L 386.335831 173.019397 
L 386.415435 173.036238 
L 386.561914 173.576546 
L 386.809629 176.00767 
L 387.134986 182.045768 
L 387.721513 198.606942 
L 388.245346 211.158499 
L 388.49608 213.420728 
L 388.581431 213.522825 
L 388.622513 213.457848 
L 388.745967 212.85717 
L 389.000871 210.161153 
L 389.88891 199.44564 
L 390.376794 196.444678 
L 390.588939 195.974036 
L 390.696224 196.056166 
L 390.840817 196.583971 
L 391.100452 198.822625 
L 391.556336 205.581548 
L 392.000754 210.996017 
L 392.227082 211.670557 
L 392.323518 211.456868 
L 392.53536 210.069771 
L 392.92513 205.384041 
L 394.280783 187.928319 
L 394.434416 187.435379 
L 394.550952 187.569173 
L 394.709552 188.507876 
L 394.94062 191.411713 
L 395.365484 200.343319 
L 396.167977 217.438075 
L 396.556751 221.272123 
L 396.778114 221.932877 
L 396.892362 221.879504 
L 397.082319 221.283332 
L 397.46366 218.954647 
L 397.845406 217.15489 
L 397.996662 217.094229 
L 398.112944 217.381829 
L 398.362298 218.995386 
L 398.736224 223.553656 
L 399.623026 235.529918 
L 399.806801 236.175173 
L 399.867367 236.148351 
L 400.037256 235.413516 
L 400.263972 232.955032 
L 400.615934 226.212341 
L 401.156322 210.896865 
L 401.9882 187.728674 
L 402.343512 182.974293 
L 402.646422 181.226725 
L 403.066189 180.237816 
L 403.352069 179.264693 
L 403.591754 177.501907 
L 403.88786 173.274845 
L 404.262902 164.044215 
L 405.332787 135.022741 
L 405.6187 132.800622 
L 405.676002 132.785889 
L 405.784647 133.157472 
L 405.986273 135.144046 
L 406.371959 142.084621 
L 407.014138 153.187619 
L 407.298895 155.079216 
L 407.352432 155.090862 
L 407.472638 154.650215 
L 407.669499 152.467583 
L 407.994442 145.28006 
L 408.84463 118.398288 
L 409.412284 104.421679 
L 409.819443 99.326466 
L 410.633822 90.57963 
L 411.058352 83.345272 
L 411.548497 70.580387 
L 412.616948 40.900972 
L 412.977735 36.081752 
L 413.179468 35.274244 
L 413.301198 35.53166 
L 413.489606 37.04788 
L 413.830996 42.658538 
L 414.682876 58.115582 
L 415.008071 60.550531 
L 415.250475 61.06262 
L 415.343641 60.993983 
L 415.508303 60.533045 
L 415.79192 58.880735 
L 416.297593 55.801114 
L 416.428913 55.687607 
L 416.573531 56.09276 
L 416.785362 57.698792 
L 417.176705 63.172869 
L 418.515286 84.484346 
L 418.600956 84.389729 
L 418.745801 83.412964 
L 418.989241 79.526937 
L 419.385593 68.346437 
L 420.902843 19.657206 
L 421.110872 18.493455 
L 421.186943 18.609104 
L 421.341641 19.591503 
L 421.740002 24.460027 
L 422.177123 28.624712 
L 422.361999 29.52224 
L 422.361999 29.52224 
" clip-path="url(#p9f4d0437fb)" style="fill: none; stroke: #3ea44e"/>
   </g>
   <g id="legend_1">
    <g id="patch_5">
     <path d="M 332.945749 50.862146 
L 418.361999 50.862146 
L 418.361999 6.834646 
L 332.945749 6.834646 
z
" style="fill: #ffffff; stroke: #000000; stroke-linejoin: miter"/>
    </g>
    <g id="line2d_16">
     <path d="M 339.345749 16.513396 
L 347.345749 16.513396 
L 355.345749 16.513396 
" style="fill: none; stroke: #009afa; stroke-linejoin: miter"/>
    </g>
    <g id="text_15">
     <!-- GXBeam -->
     <g transform="translate(361.745749 19.313396)scale(0.08 -0.08)">
      <defs>
       <path id="DejaVuSans-47" d="M 3809 666 
L 3809 1919 
L 2778 1919 
L 2778 2438 
L 4434 2438 
L 4434 434 
Q 4069 175 3628 42 
Q 3188 -91 2688 -91 
Q 1594 -91 976 548 
Q 359 1188 359 2328 
Q 359 3472 976 4111 
Q 1594 4750 2688 4750 
Q 3144 4750 3555 4637 
Q 3966 4525 4313 4306 
L 4313 3634 
Q 3963 3931 3569 4081 
Q 3175 4231 2741 4231 
Q 1884 4231 1454 3753 
Q 1025 3275 1025 2328 
Q 1025 1384 1454 906 
Q 1884 428 2741 428 
Q 3075 428 3337 486 
Q 3600 544 3809 666 
z
" transform="scale(0.015625)"/>
       <path id="DejaVuSans-58" d="M 403 4666 
L 1081 4666 
L 2241 2931 
L 3406 4666 
L 4084 4666 
L 2584 2425 
L 4184 0 
L 3506 0 
L 2194 1984 
L 872 0 
L 191 0 
L 1856 2491 
L 403 4666 
z
" transform="scale(0.015625)"/>
       <path id="DejaVuSans-42" d="M 1259 2228 
L 1259 519 
L 2272 519 
Q 2781 519 3026 730 
Q 3272 941 3272 1375 
Q 3272 1813 3026 2020 
Q 2781 2228 2272 2228 
L 1259 2228 
z
M 1259 4147 
L 1259 2741 
L 2194 2741 
Q 2656 2741 2882 2914 
Q 3109 3088 3109 3444 
Q 3109 3797 2882 3972 
Q 2656 4147 2194 4147 
L 1259 4147 
z
M 628 4666 
L 2241 4666 
Q 2963 4666 3353 4366 
Q 3744 4066 3744 3513 
Q 3744 3084 3544 2831 
Q 3344 2578 2956 2516 
Q 3422 2416 3680 2098 
Q 3938 1781 3938 1306 
Q 3938 681 3513 340 
Q 3088 0 2303 0 
L 628 0 
L 628 4666 
z
" transform="scale(0.015625)"/>
       <path id="DejaVuSans-61" d="M 2194 1759 
Q 1497 1759 1228 1600 
Q 959 1441 959 1056 
Q 959 750 1161 570 
Q 1363 391 1709 391 
Q 2188 391 2477 730 
Q 2766 1069 2766 1631 
L 2766 1759 
L 2194 1759 
z
M 3341 1997 
L 3341 0 
L 2766 0 
L 2766 531 
Q 2569 213 2275 61 
Q 1981 -91 1556 -91 
Q 1019 -91 701 211 
Q 384 513 384 1019 
Q 384 1609 779 1909 
Q 1175 2209 1959 2209 
L 2766 2209 
L 2766 2266 
Q 2766 2663 2505 2880 
Q 2244 3097 1772 3097 
Q 1472 3097 1187 3025 
Q 903 2953 641 2809 
L 641 3341 
Q 956 3463 1253 3523 
Q 1550 3584 1831 3584 
Q 2591 3584 2966 3190 
Q 3341 2797 3341 1997 
z
" transform="scale(0.015625)"/>
      </defs>
      <use xlink:href="#DejaVuSans-47"/>
      <use xlink:href="#DejaVuSans-58" x="77.490234"/>
      <use xlink:href="#DejaVuSans-42" x="145.996094"/>
      <use xlink:href="#DejaVuSans-65" x="214.599609"/>
      <use xlink:href="#DejaVuSans-61" x="276.123047"/>
      <use xlink:href="#DejaVuSans-6d" x="337.402344"/>
     </g>
    </g>
    <g id="line2d_17">
     <path d="M 339.345749 28.255896 
L 347.345749 28.255896 
L 355.345749 28.255896 
" style="fill: none; stroke: #e36f47; stroke-linejoin: miter"/>
    </g>
    <g id="text_16">
     <!-- ODEProblem -->
     <g transform="translate(361.745749 31.055896)scale(0.08 -0.08)">
      <defs>
       <path id="DejaVuSans-4f" d="M 2522 4238 
Q 1834 4238 1429 3725 
Q 1025 3213 1025 2328 
Q 1025 1447 1429 934 
Q 1834 422 2522 422 
Q 3209 422 3611 934 
Q 4013 1447 4013 2328 
Q 4013 3213 3611 3725 
Q 3209 4238 2522 4238 
z
M 2522 4750 
Q 3503 4750 4090 4092 
Q 4678 3434 4678 2328 
Q 4678 1225 4090 567 
Q 3503 -91 2522 -91 
Q 1538 -91 948 565 
Q 359 1222 359 2328 
Q 359 3434 948 4092 
Q 1538 4750 2522 4750 
z
" transform="scale(0.015625)"/>
       <path id="DejaVuSans-44" d="M 1259 4147 
L 1259 519 
L 2022 519 
Q 2988 519 3436 956 
Q 3884 1394 3884 2338 
Q 3884 3275 3436 3711 
Q 2988 4147 2022 4147 
L 1259 4147 
z
M 628 4666 
L 1925 4666 
Q 3281 4666 3915 4102 
Q 4550 3538 4550 2338 
Q 4550 1131 3912 565 
Q 3275 0 1925 0 
L 628 0 
L 628 4666 
z
" transform="scale(0.015625)"/>
       <path id="DejaVuSans-45" d="M 628 4666 
L 3578 4666 
L 3578 4134 
L 1259 4134 
L 1259 2753 
L 3481 2753 
L 3481 2222 
L 1259 2222 
L 1259 531 
L 3634 531 
L 3634 0 
L 628 0 
L 628 4666 
z
" transform="scale(0.015625)"/>
       <path id="DejaVuSans-50" d="M 1259 4147 
L 1259 2394 
L 2053 2394 
Q 2494 2394 2734 2622 
Q 2975 2850 2975 3272 
Q 2975 3691 2734 3919 
Q 2494 4147 2053 4147 
L 1259 4147 
z
M 628 4666 
L 2053 4666 
Q 2838 4666 3239 4311 
Q 3641 3956 3641 3272 
Q 3641 2581 3239 2228 
Q 2838 1875 2053 1875 
L 1259 1875 
L 1259 0 
L 628 0 
L 628 4666 
z
" transform="scale(0.015625)"/>
       <path id="DejaVuSans-72" d="M 2631 2963 
Q 2534 3019 2420 3045 
Q 2306 3072 2169 3072 
Q 1681 3072 1420 2755 
Q 1159 2438 1159 1844 
L 1159 0 
L 581 0 
L 581 3500 
L 1159 3500 
L 1159 2956 
Q 1341 3275 1631 3429 
Q 1922 3584 2338 3584 
Q 2397 3584 2469 3576 
Q 2541 3569 2628 3553 
L 2631 2963 
z
" transform="scale(0.015625)"/>
       <path id="DejaVuSans-6f" d="M 1959 3097 
Q 1497 3097 1228 2736 
Q 959 2375 959 1747 
Q 959 1119 1226 758 
Q 1494 397 1959 397 
Q 2419 397 2687 759 
Q 2956 1122 2956 1747 
Q 2956 2369 2687 2733 
Q 2419 3097 1959 3097 
z
M 1959 3584 
Q 2709 3584 3137 3096 
Q 3566 2609 3566 1747 
Q 3566 888 3137 398 
Q 2709 -91 1959 -91 
Q 1206 -91 779 398 
Q 353 888 353 1747 
Q 353 2609 779 3096 
Q 1206 3584 1959 3584 
z
" transform="scale(0.015625)"/>
       <path id="DejaVuSans-62" d="M 3116 1747 
Q 3116 2381 2855 2742 
Q 2594 3103 2138 3103 
Q 1681 3103 1420 2742 
Q 1159 2381 1159 1747 
Q 1159 1113 1420 752 
Q 1681 391 2138 391 
Q 2594 391 2855 752 
Q 3116 1113 3116 1747 
z
M 1159 2969 
Q 1341 3281 1617 3432 
Q 1894 3584 2278 3584 
Q 2916 3584 3314 3078 
Q 3713 2572 3713 1747 
Q 3713 922 3314 415 
Q 2916 -91 2278 -91 
Q 1894 -91 1617 61 
Q 1341 213 1159 525 
L 1159 0 
L 581 0 
L 581 4863 
L 1159 4863 
L 1159 2969 
z
" transform="scale(0.015625)"/>
       <path id="DejaVuSans-6c" d="M 603 4863 
L 1178 4863 
L 1178 0 
L 603 0 
L 603 4863 
z
" transform="scale(0.015625)"/>
      </defs>
      <use xlink:href="#DejaVuSans-4f"/>
      <use xlink:href="#DejaVuSans-44" x="78.710938"/>
      <use xlink:href="#DejaVuSans-45" x="155.712891"/>
      <use xlink:href="#DejaVuSans-50" x="218.896484"/>
      <use xlink:href="#DejaVuSans-72" x="277.449219"/>
      <use xlink:href="#DejaVuSans-6f" x="316.3125"/>
      <use xlink:href="#DejaVuSans-62" x="377.494141"/>
      <use xlink:href="#DejaVuSans-6c" x="440.970703"/>
      <use xlink:href="#DejaVuSans-65" x="468.753906"/>
      <use xlink:href="#DejaVuSans-6d" x="530.277344"/>
     </g>
    </g>
    <g id="line2d_18">
     <path d="M 339.345749 39.998396 
L 347.345749 39.998396 
L 355.345749 39.998396 
" style="fill: none; stroke: #3ea44e; stroke-linejoin: miter"/>
    </g>
    <g id="text_17">
     <!-- DAEProblem -->
     <g transform="translate(361.745749 42.798396)scale(0.08 -0.08)">
      <defs>
       <path id="DejaVuSans-41" d="M 2188 4044 
L 1331 1722 
L 3047 1722 
L 2188 4044 
z
M 1831 4666 
L 2547 4666 
L 4325 0 
L 3669 0 
L 3244 1197 
L 1141 1197 
L 716 0 
L 50 0 
L 1831 4666 
z
" transform="scale(0.015625)"/>
      </defs>
      <use xlink:href="#DejaVuSans-44"/>
      <use xlink:href="#DejaVuSans-41" x="75.251953"/>
      <use xlink:href="#DejaVuSans-45" x="143.660156"/>
      <use xlink:href="#DejaVuSans-50" x="206.84375"/>
      <use xlink:href="#DejaVuSans-72" x="265.396484"/>
      <use xlink:href="#DejaVuSans-6f" x="304.259766"/>
      <use xlink:href="#DejaVuSans-62" x="365.441406"/>
      <use xlink:href="#DejaVuSans-6c" x="428.917969"/>
      <use xlink:href="#DejaVuSans-65" x="456.701172"/>
      <use xlink:href="#DejaVuSans-6d" x="518.224609"/>
     </g>
    </g>
   </g>
  </g>
 </g>
 <defs>
  <clipPath id="p9f4d0437fb">
   <rect x="71.231488" y="2.834646" width="351.130512" height="255.390709"/>
  </clipPath>
 </defs>
</svg>
