<?xml version="1.0" encoding="utf-8" standalone="no"?>
<!DOCTYPE svg PUBLIC "-//W3C//DTD SVG 1.1//EN"
  "http://www.w3.org/Graphics/SVG/1.1/DTD/svg11.dtd">
<svg xmlns:xlink="http://www.w3.org/1999/xlink" width="432pt" height="288pt" viewBox="0 0 432 288" xmlns="http://www.w3.org/2000/svg" version="1.1">
 <metadata>
  <rdf:RDF xmlns:dc="http://purl.org/dc/elements/1.1/" xmlns:cc="http://creativecommons.org/ns#" xmlns:rdf="http://www.w3.org/1999/02/22-rdf-syntax-ns#">
   <cc:Work>
    <dc:type rdf:resource="http://purl.org/dc/dcmitype/StillImage"/>
    <dc:date>2022-08-23T20:36:00.494035</dc:date>
    <dc:format>image/svg+xml</dc:format>
    <dc:creator>
     <cc:Agent>
      <dc:title>Matplotlib v3.5.3, https://matplotlib.org/</dc:title>
     </cc:Agent>
    </dc:creator>
   </cc:Work>
  </rdf:RDF>
 </metadata>
 <defs>
  <style type="text/css">*{stroke-linejoin: round; stroke-linecap: butt}</style>
 </defs>
 <g id="figure_1">
  <g id="patch_1">
   <path d="M 0 288 
L 432 288 
L 432 0 
L 0 0 
z
" style="fill: #ffffff"/>
  </g>
  <g id="axes_1">
   <g id="patch_2">
    <path d="M 66.051544 258.225354 
L 422.361999 258.225354 
L 422.361999 2.834646 
L 66.051544 2.834646 
z
" style="fill: #ffffff"/>
   </g>
   <g id="line2d_1">
    <path d="M 66.051544 122.892321 
L 68.011251 122.860322 
L 68.367562 122.75281 
L 68.723872 122.988099 
L 69.080183 122.979766 
L 69.436493 122.835002 
L 69.614648 122.993404 
L 70.149114 122.895022 
L 70.327269 122.650662 
L 70.505424 122.636796 
L 71.03989 122.977749 
L 71.218045 122.991373 
L 71.574356 122.864914 
L 72.286977 122.988058 
L 72.643287 122.807871 
L 73.177753 123.001264 
L 73.355908 123.108118 
L 74.602995 122.917074 
L 74.959305 122.926572 
L 75.315616 122.846287 
L 75.850081 123.11119 
L 76.028237 123.107077 
L 76.384547 122.819571 
L 76.740857 122.820636 
L 77.097168 123.000559 
L 77.453478 122.723291 
L 77.809789 122.651501 
L 78.166099 122.912223 
L 78.52241 122.753369 
L 78.87872 122.674101 
L 79.235031 123.021062 
L 80.125807 122.857602 
L 80.838428 122.835259 
L 81.016583 122.74838 
L 81.194738 122.843867 
L 81.551049 122.782479 
L 81.729204 122.940314 
L 82.085514 122.795113 
L 82.263669 122.765123 
L 82.441825 122.558792 
L 82.97629 122.826565 
L 83.154446 122.96189 
L 83.332601 122.952819 
L 83.510756 122.77469 
L 84.045222 122.774722 
L 84.223377 122.822172 
L 84.401532 122.725862 
L 84.757843 122.428146 
L 85.114153 122.53231 
L 85.470464 122.818338 
L 86.183084 122.778303 
L 87.073861 123.01183 
L 87.430171 122.946927 
L 88.142792 123.022853 
L 88.677258 122.670675 
L 88.855413 122.611825 
L 89.211723 122.805004 
L 89.924344 122.429879 
L 90.280655 122.643562 
L 90.81512 122.631778 
L 90.993276 122.589342 
L 91.705897 122.827368 
L 92.596673 122.768867 
L 93.309294 123.555165 
L 93.665604 123.636362 
L 95.269001 125.135628 
L 95.625312 125.54182 
L 95.981622 125.712121 
L 96.159777 125.695006 
L 97.763174 127.200719 
L 98.119485 127.672802 
L 99.010261 128.1381 
L 99.366571 128.401198 
L 99.722882 128.353937 
L 100.079192 128.384495 
L 100.435503 128.484895 
L 100.613658 128.464238 
L 101.148124 128.126857 
L 101.682589 127.974651 
L 102.39521 126.985951 
L 102.751521 126.67381 
L 103.464142 125.369742 
L 103.998607 124.186605 
L 105.78016 119.811195 
L 106.49278 117.867257 
L 108.986954 112.063939 
L 109.521419 111.146782 
L 110.055885 110.347761 
L 111.124816 108.852478 
L 112.550058 107.445466 
L 113.440834 107.150098 
L 114.153455 107.317892 
L 114.509766 107.421044 
L 115.044231 108.048188 
L 116.647628 110.386309 
L 117.538405 112.767371 
L 118.963646 117.461886 
L 121.992285 131.74843 
L 123.417527 138.697133 
L 124.486458 142.909913 
L 125.377235 145.541282 
L 125.9117 146.499219 
L 126.980632 146.912002 
L 128.049563 145.815519 
L 128.762184 144.178379 
L 129.118494 143.249709 
L 130.187426 139.376296 
L 132.325288 130.622654 
L 133.037909 127.997281 
L 133.39422 126.769607 
L 134.641306 123.634119 
L 134.997617 123.389348 
L 135.532083 122.837296 
L 135.888393 122.7938 
L 136.244703 122.772772 
L 137.669945 122.304674 
L 138.560721 121.799068 
L 138.917032 121.667579 
L 139.629653 121.173474 
L 139.985963 120.759669 
L 140.342274 120.059633 
L 140.876739 118.89776 
L 141.767516 117.110653 
L 143.192757 113.599237 
L 144.439844 111.101635 
L 144.97431 110.068309 
L 145.33062 109.768913 
L 146.043241 109.243381 
L 146.399551 109.637614 
L 146.934017 110.350133 
L 147.646638 112.37557 
L 148.002949 113.750686 
L 150.140811 122.607838 
L 151.566053 127.022973 
L 152.100519 127.902208 
L 152.278674 128.008511 
L 152.991295 127.718314 
L 153.347605 127.727628 
L 153.882071 127.26813 
L 154.416537 126.373865 
L 155.307313 125.153583 
L 155.663623 124.484798 
L 156.019934 123.84671 
L 156.554399 122.752893 
L 157.26702 121.286205 
L 157.623331 120.791257 
L 157.979641 120.118163 
L 158.157797 119.798148 
L 158.870417 119.455706 
L 159.226728 118.943104 
L 159.939349 118.598196 
L 160.295659 118.095564 
L 160.830125 117.844267 
L 161.186435 117.601916 
L 161.720901 117.044648 
L 162.077212 116.526903 
L 162.967988 114.494372 
L 163.502453 112.991939 
L 164.393229 109.448062 
L 167.421868 97.169961 
L 167.956334 96.122522 
L 168.312644 95.208352 
L 168.668955 95.031347 
L 168.84711 95.015334 
L 169.203421 94.698134 
L 169.381576 94.840635 
L 170.272352 96.423086 
L 170.628662 98.003706 
L 171.519439 102.90791 
L 173.479146 119.363145 
L 174.369922 127.215888 
L 175.082543 132.534923 
L 175.795164 136.783272 
L 176.68594 140.273826 
L 178.467492 145.959079 
L 179.001958 147.426202 
L 180.249045 152.366088 
L 181.852442 159.086393 
L 182.565063 161.192558 
L 183.455839 162.3301 
L 183.633994 162.390733 
L 183.812149 162.299852 
L 184.16846 161.937001 
L 184.346615 161.863407 
L 184.52477 161.64329 
L 184.881081 160.603177 
L 185.771857 157.054914 
L 186.840788 149.41214 
L 188.26603 137.605774 
L 190.225737 123.847991 
L 191.472824 118.423041 
L 192.185445 117.115468 
L 192.898066 117.669085 
L 193.076221 117.649913 
L 193.254376 117.884092 
L 193.788842 119.016558 
L 194.323308 119.636956 
L 194.679618 120.340284 
L 194.857773 120.601679 
L 195.214084 120.584528 
L 195.570394 120.989886 
L 195.74855 121.01635 
L 195.926705 120.82104 
L 196.817481 117.837466 
L 197.530102 112.601017 
L 198.064568 107.453463 
L 198.955344 98.306951 
L 199.489809 93.488305 
L 200.380585 87.922536 
L 200.736896 86.815134 
L 201.093206 86.16529 
L 201.271362 86.170409 
L 201.627672 87.112832 
L 201.983983 88.888424 
L 202.340293 91.677378 
L 202.874759 97.735124 
L 203.409224 106.244102 
L 204.121845 120.376361 
L 205.368932 147.608988 
L 205.903398 156.39037 
L 206.437863 162.967282 
L 206.794174 164.61468 
L 207.150484 165.430556 
L 207.328639 165.441717 
L 207.506795 164.864986 
L 208.04126 160.249625 
L 208.575726 153.939732 
L 210.357278 127.197526 
L 210.891744 121.979986 
L 211.248054 119.840613 
L 211.604365 118.783842 
L 211.960675 118.485827 
L 212.316986 118.369301 
L 212.673296 118.431532 
L 212.851451 118.41248 
L 213.029607 118.251673 
L 213.385917 117.784887 
L 213.742228 117.358494 
L 213.920383 117.037834 
L 214.633004 114.725768 
L 214.989314 113.725411 
L 215.52378 111.903996 
L 216.058246 110.387044 
L 217.127177 105.706056 
L 218.196108 99.0673 
L 219.086884 92.06828 
L 220.155816 80.910293 
L 220.868437 72.957113 
L 221.581058 67.717233 
L 221.759213 66.992985 
L 221.937368 66.754143 
L 222.115523 66.995863 
L 222.471834 68.052415 
L 222.828144 70.304258 
L 223.36261 77.191623 
L 224.075231 88.651938 
L 224.966007 103.394769 
L 225.678628 113.024694 
L 226.213093 117.954286 
L 226.569404 119.934091 
L 226.925714 120.606131 
L 227.10387 120.52414 
L 227.282025 120.26428 
L 227.638335 118.981741 
L 227.994646 116.579068 
L 229.241732 106.006285 
L 229.598043 104.964027 
L 229.954353 104.85344 
L 230.132509 104.912884 
L 230.310664 105.598729 
L 231.20144 113.401092 
L 232.270371 128.176998 
L 234.230079 159.34249 
L 235.120855 171.569014 
L 236.546097 188.61424 
L 237.615028 197.170907 
L 238.149494 198.228339 
L 238.327649 197.838917 
L 238.683959 194.597002 
L 239.218425 187.710755 
L 239.752891 175.632599 
L 240.643667 151.645806 
L 241.534443 129.672968 
L 242.068909 122.146224 
L 242.425219 119.688014 
L 242.603374 119.536351 
L 242.78153 119.947992 
L 243.315995 122.699066 
L 243.850461 129.324717 
L 245.275703 145.583999 
L 245.810169 148.326729 
L 245.988324 148.08251 
L 246.344634 145.798821 
L 246.700945 142.82976 
L 247.057255 138.096557 
L 248.838807 108.809611 
L 249.195118 105.586406 
L 249.373273 104.96586 
L 249.551428 104.977968 
L 249.729584 105.706198 
L 250.085894 109.567692 
L 250.62036 120.821583 
L 252.223757 158.985291 
L 252.580067 163.548886 
L 253.470843 168.942147 
L 254.539775 172.72797 
L 254.71793 172.510693 
L 255.252396 169.74925 
L 255.608706 165.612607 
L 256.499482 147.97143 
L 257.924724 113.183652 
L 258.993655 78.437091 
L 260.240742 36.575198 
L 261.131518 16.164586 
L 261.487829 12.476134 
L 261.844139 10.662527 
L 262.022294 10.969066 
L 262.378605 14.445832 
L 262.91307 23.766722 
L 263.447536 38.873172 
L 264.338312 70.907889 
L 265.229088 102.305096 
L 265.763554 113.739045 
L 266.119865 116.896259 
L 266.29802 117.000963 
L 266.476175 116.258206 
L 266.832485 112.711841 
L 267.188796 106.243698 
L 268.435882 79.819253 
L 268.792193 75.884329 
L 269.148503 74.274968 
L 269.504814 74.164509 
L 269.682969 74.568313 
L 270.03928 76.542956 
L 270.573745 81.455273 
L 270.930056 87.189272 
L 271.464521 101.192188 
L 271.998987 120.300434 
L 274.315005 216.860932 
L 274.849471 228.613889 
L 275.205781 233.166801 
L 275.383936 233.85408 
L 275.562092 233.426284 
L 275.918402 230.623839 
L 276.274712 225.15285 
L 276.809178 210.861958 
L 277.521799 182.832798 
L 278.947041 124.512948 
L 279.659662 105.636076 
L 280.550438 88.845645 
L 281.441214 79.044714 
L 281.97568 74.912444 
L 283.400922 59.735828 
L 283.579077 58.853675 
L 283.757232 58.77862 
L 283.935387 59.361338 
L 284.113543 60.411998 
L 284.469853 65.116804 
L 285.004319 77.918152 
L 286.964026 127.94793 
L 287.676647 138.988478 
L 288.032958 143.128255 
L 288.389268 144.985204 
L 288.567423 145.127947 
L 288.745578 144.716504 
L 288.923734 143.698667 
L 289.280044 139.480758 
L 289.81451 128.860914 
L 292.308683 72.429251 
L 293.199459 57.472931 
L 293.91208 51.036386 
L 294.090235 50.496657 
L 294.26839 51.066473 
L 294.624701 54.507004 
L 294.981011 60.053163 
L 295.337322 70.180058 
L 296.049943 98.741349 
L 297.831495 181.426021 
L 298.365961 194.544275 
L 298.722271 197.686257 
L 298.900426 197.739063 
L 299.078582 197.018508 
L 299.434892 193.613122 
L 300.147513 179.884594 
L 301.75091 146.33443 
L 302.285376 140.51778 
L 302.641686 138.955804 
L 302.819841 139.638171 
L 303.176152 143.492765 
L 303.532462 150.154528 
L 304.066928 165.995253 
L 304.957704 190.499094 
L 305.314015 193.930779 
L 305.49217 193.763737 
L 305.84848 190.009958 
L 306.204791 182.403001 
L 307.095567 153.910449 
L 307.630033 139.90115 
L 307.986343 135.822748 
L 308.164498 135.363701 
L 308.342653 135.908511 
L 308.698964 139.496752 
L 309.946051 157.938652 
L 310.124206 158.68732 
L 310.302361 158.384648 
L 310.480516 157.244926 
L 310.836827 152.210389 
L 311.193137 142.877406 
L 312.618379 92.74654 
L 313.68731 55.453652 
L 314.043621 50.021445 
L 314.221776 49.838907 
L 314.399931 51.382394 
L 314.578086 55.532276 
L 314.934397 71.969621 
L 315.468863 113.187243 
L 316.715949 228.538731 
L 317.07226 239.021729 
L 317.250415 238.112538 
L 317.606725 226.215392 
L 318.141191 192.241678 
L 319.031967 132.331358 
L 319.566433 107.557585 
L 320.279054 88.544596 
L 320.991675 73.475669 
L 321.704296 61.795502 
L 321.882451 60.975985 
L 322.060606 60.887271 
L 322.416916 62.205579 
L 322.773227 65.819002 
L 323.307693 71.727908 
L 323.664003 73.377838 
L 324.732934 81.977791 
L 325.2674 88.42872 
L 325.980021 93.895202 
L 326.514487 100.315128 
L 326.870797 109.168421 
L 327.583418 138.325293 
L 328.296039 167.36848 
L 328.652349 172.182848 
L 328.830505 172.651407 
L 329.00866 172.027822 
L 329.36497 168.434341 
L 329.721281 164.664967 
L 330.433902 160.364514 
L 330.790212 155.74476 
L 331.324678 143.453882 
L 333.462541 75.095778 
L 333.640696 73.814561 
L 333.818851 75.077855 
L 333.997006 79.181236 
L 334.353317 94.72355 
L 335.244093 139.901503 
L 335.600403 148.859554 
L 336.669335 169.407825 
L 337.2038 180.072652 
L 337.738266 187.866661 
L 338.094577 189.993982 
L 338.272732 189.841991 
L 338.450887 188.911446 
L 338.629042 186.787135 
L 338.985353 175.913859 
L 339.519818 145.427698 
L 340.410594 92.503946 
L 341.123215 65.28309 
L 341.301371 62.054838 
L 341.479526 61.238314 
L 341.657681 62.802801 
L 341.835836 66.52947 
L 342.192147 81.487326 
L 343.082923 128.383977 
L 343.439233 136.892996 
L 343.795544 142.102343 
L 344.330009 145.900267 
L 344.508165 145.98832 
L 344.68632 144.856114 
L 344.864475 141.686485 
L 345.398941 121.841738 
L 345.755251 109.089189 
L 346.111562 102.778892 
L 346.289717 102.484075 
L 346.467872 102.885094 
L 346.646027 102.795148 
L 346.824183 101.425865 
L 347.180493 92.440819 
L 347.893114 69.24839 
L 348.071269 67.701602 
L 348.249424 69.306586 
L 348.605735 81.35409 
L 349.140201 114.73583 
L 350.209132 183.268987 
L 350.565442 196.190073 
L 350.743598 199.088973 
L 350.921753 199.948609 
L 351.099908 198.457324 
L 351.456219 187.954564 
L 352.88146 110.47389 
L 353.950392 52.459546 
L 354.128547 48.762219 
L 354.306702 47.549739 
L 354.484857 47.984447 
L 355.019323 51.226989 
L 355.197478 51.28395 
L 355.375634 50.568088 
L 355.910099 46.09256 
L 356.088255 46.602622 
L 356.26641 48.938808 
L 356.800875 64.037197 
L 357.335341 79.584085 
L 357.691652 84.500048 
L 357.869807 84.166678 
L 358.582428 78.269815 
L 358.760583 79.469799 
L 359.295049 87.463358 
L 359.829514 94.958136 
L 360.185825 98.749273 
L 360.36398 102.084481 
L 360.72029 115.555915 
L 361.789222 172.745165 
L 361.967377 175.992161 
L 362.145532 176.709842 
L 362.501843 174.49583 
L 362.679998 174.280931 
L 362.858153 174.663013 
L 363.214464 176.303695 
L 363.392619 175.483327 
L 363.570774 172.460645 
L 363.748929 166.205448 
L 364.10524 141.509654 
L 364.996016 63.893701 
L 365.352326 52.980144 
L 365.530482 52.292899 
L 365.708637 53.793176 
L 366.777568 75.278423 
L 367.133879 88.272383 
L 367.668344 122.248048 
L 368.380965 168.531754 
L 369.449897 226.831888 
L 369.806207 244.183191 
L 370.162518 250.997315 
L 370.340673 250.034544 
L 370.696983 240.743074 
L 371.231449 223.047044 
L 371.587759 213.191075 
L 371.94407 195.8748 
L 372.478535 151.231199 
L 373.013001 101.363816 
L 373.369312 85.277044 
L 373.547467 83.593566 
L 373.903777 83.334947 
L 374.081933 81.654366 
L 374.438243 69.993669 
L 375.150864 35.619807 
L 375.329019 32.836785 
L 375.507174 33.694134 
L 375.863485 42.466314 
L 376.39795 54.969208 
L 376.754261 57.719983 
L 376.932416 59.066789 
L 377.110571 61.799652 
L 377.466882 73.227775 
L 378.001348 92.820945 
L 378.179503 96.005649 
L 378.357658 96.923614 
L 378.535813 96.026728 
L 379.070279 89.664621 
L 379.248434 90.773701 
L 379.426589 95.182149 
L 379.7829 113.100249 
L 380.495521 153.185854 
L 380.851831 162.984522 
L 381.208142 166.335734 
L 381.386297 166.12756 
L 381.564452 164.649632 
L 381.920763 157.990489 
L 382.455228 147.091901 
L 382.811539 142.90288 
L 382.989694 142.905454 
L 383.167849 144.975107 
L 383.52416 157.372706 
L 384.058625 177.522687 
L 384.23678 179.333365 
L 384.414936 177.505933 
L 384.593091 171.718929 
L 385.483867 126.874958 
L 385.662022 124.943546 
L 385.840178 125.07852 
L 386.374643 128.804914 
L 386.552798 126.68131 
L 387.265419 108.18985 
L 387.443575 109.666061 
L 387.97804 124.589981 
L 388.334351 133.307146 
L 388.512506 133.792353 
L 388.690661 130.472784 
L 389.046972 121.30426 
L 389.225127 120.05885 
L 389.403282 122.175861 
L 389.759593 134.101558 
L 390.650369 175.873697 
L 390.828524 177.720523 
L 391.006679 177.260749 
L 391.36299 170.217559 
L 393.322697 111.948251 
L 393.857163 94.200837 
L 394.391628 86.878463 
L 395.104249 78.624161 
L 395.638715 65.847371 
L 395.81687 63.742009 
L 396.173181 65.099688 
L 396.351336 64.561463 
L 396.707646 65.000079 
L 396.885802 66.531285 
L 397.242112 72.742318 
L 397.420267 77.840628 
L 397.776578 98.052725 
L 398.311043 132.805498 
L 398.489199 137.011617 
L 398.667354 137.288382 
L 398.845509 133.823471 
L 399.20182 119.75915 
L 399.736285 98.73632 
L 399.914441 97.411125 
L 400.092596 99.13188 
L 400.805217 117.816981 
L 400.983372 117.826804 
L 401.161527 116.14089 
L 401.517838 111.30836 
L 401.695993 112.426579 
L 401.874148 115.12393 
L 402.408614 126.991796 
L 402.586769 127.597646 
L 402.764924 126.147748 
L 402.943079 123.62586 
L 403.29939 123.279801 
L 403.477545 122.214869 
L 403.6557 120.443807 
L 404.012011 113.900761 
L 404.190166 114.599687 
L 404.902787 125.84588 
L 405.080942 123.160643 
L 405.437253 111.181756 
L 405.793563 97.076716 
L 405.971718 93.773454 
L 406.149874 94.817595 
L 406.506184 100.892978 
L 406.684339 101.830818 
L 407.04065 99.493821 
L 407.218805 99.484235 
L 407.39696 98.409773 
L 407.575115 95.837758 
L 407.931426 88.813049 
L 408.109581 91.118852 
L 408.465891 111.05791 
L 409.534823 182.932509 
L 409.891133 192.621901 
L 410.781909 205.388393 
L 410.960065 205.198688 
L 411.13822 202.971576 
L 411.316375 195.985541 
L 411.850841 158.517749 
L 412.028996 154.482745 
L 412.385306 159.941342 
L 412.919772 176.121867 
L 413.097927 184.938704 
L 413.276083 187.945238 
L 413.454238 182.783939 
L 413.810548 149.495469 
L 414.345014 106.912054 
L 415.23579 55.176326 
L 415.413945 53.566324 
L 415.592101 57.500407 
L 416.482877 100.144178 
L 417.373653 165.865423 
L 417.551808 170.044971 
L 417.729963 164.417678 
L 418.264429 134.603056 
L 418.442584 137.166492 
L 418.798895 146.937583 
L 418.97705 145.69249 
L 419.33336 140.341893 
L 419.511516 140.564189 
L 419.689671 138.863328 
L 420.402292 110.673335 
L 420.758602 113.258107 
L 420.936757 111.624843 
L 421.649378 94.854623 
L 422.005689 85.421978 
L 422.361999 70.751744 
L 422.361999 70.751744 
" clip-path="url(#p419ea17653)" style="fill: none; stroke: #009afa"/>
   </g>
   <g id="matplotlib.axis_1">
    <g id="xtick_1">
     <g id="line2d_2">
      <defs>
       <path id="m48f4aeea23" d="M 0 0 
L 0 -2.5 
" style="stroke: #000000; stroke-width: 0.5"/>
      </defs>
      <g>
       <use xlink:href="#m48f4aeea23" x="66.051544" y="258.225354" style="stroke: #000000; stroke-width: 0.5"/>
      </g>
     </g>
     <g id="text_1">
      <!-- $0.0$ -->
      <g transform="translate(59.651544 267.804104)scale(0.08 -0.08)">
       <defs>
        <path id="DejaVuSans-30" d="M 2034 4250 
Q 1547 4250 1301 3770 
Q 1056 3291 1056 2328 
Q 1056 1369 1301 889 
Q 1547 409 2034 409 
Q 2525 409 2770 889 
Q 3016 1369 3016 2328 
Q 3016 3291 2770 3770 
Q 2525 4250 2034 4250 
z
M 2034 4750 
Q 2819 4750 3233 4129 
Q 3647 3509 3647 2328 
Q 3647 1150 3233 529 
Q 2819 -91 2034 -91 
Q 1250 -91 836 529 
Q 422 1150 422 2328 
Q 422 3509 836 4129 
Q 1250 4750 2034 4750 
z
" transform="scale(0.015625)"/>
        <path id="DejaVuSans-2e" d="M 684 794 
L 1344 794 
L 1344 0 
L 684 0 
L 684 794 
z
" transform="scale(0.015625)"/>
       </defs>
       <use xlink:href="#DejaVuSans-30" transform="translate(0 0.78125)"/>
       <use xlink:href="#DejaVuSans-2e" transform="translate(63.623047 0.78125)"/>
       <use xlink:href="#DejaVuSans-30" transform="translate(95.410156 0.78125)"/>
      </g>
     </g>
    </g>
    <g id="xtick_2">
     <g id="line2d_3">
      <g>
       <use xlink:href="#m48f4aeea23" x="155.129158" y="258.225354" style="stroke: #000000; stroke-width: 0.5"/>
      </g>
     </g>
     <g id="text_2">
      <!-- $0.5$ -->
      <g transform="translate(148.729158 267.804104)scale(0.08 -0.08)">
       <defs>
        <path id="DejaVuSans-35" d="M 691 4666 
L 3169 4666 
L 3169 4134 
L 1269 4134 
L 1269 2991 
Q 1406 3038 1543 3061 
Q 1681 3084 1819 3084 
Q 2600 3084 3056 2656 
Q 3513 2228 3513 1497 
Q 3513 744 3044 326 
Q 2575 -91 1722 -91 
Q 1428 -91 1123 -41 
Q 819 9 494 109 
L 494 744 
Q 775 591 1075 516 
Q 1375 441 1709 441 
Q 2250 441 2565 725 
Q 2881 1009 2881 1497 
Q 2881 1984 2565 2268 
Q 2250 2553 1709 2553 
Q 1456 2553 1204 2497 
Q 953 2441 691 2322 
L 691 4666 
z
" transform="scale(0.015625)"/>
       </defs>
       <use xlink:href="#DejaVuSans-30" transform="translate(0 0.78125)"/>
       <use xlink:href="#DejaVuSans-2e" transform="translate(63.623047 0.78125)"/>
       <use xlink:href="#DejaVuSans-35" transform="translate(95.410156 0.78125)"/>
      </g>
     </g>
    </g>
    <g id="xtick_3">
     <g id="line2d_4">
      <g>
       <use xlink:href="#m48f4aeea23" x="244.206771" y="258.225354" style="stroke: #000000; stroke-width: 0.5"/>
      </g>
     </g>
     <g id="text_3">
      <!-- $1.0$ -->
      <g transform="translate(237.806771 267.804104)scale(0.08 -0.08)">
       <defs>
        <path id="DejaVuSans-31" d="M 794 531 
L 1825 531 
L 1825 4091 
L 703 3866 
L 703 4441 
L 1819 4666 
L 2450 4666 
L 2450 531 
L 3481 531 
L 3481 0 
L 794 0 
L 794 531 
z
" transform="scale(0.015625)"/>
       </defs>
       <use xlink:href="#DejaVuSans-31" transform="translate(0 0.78125)"/>
       <use xlink:href="#DejaVuSans-2e" transform="translate(63.623047 0.78125)"/>
       <use xlink:href="#DejaVuSans-30" transform="translate(95.410156 0.78125)"/>
      </g>
     </g>
    </g>
    <g id="xtick_4">
     <g id="line2d_5">
      <g>
       <use xlink:href="#m48f4aeea23" x="333.284385" y="258.225354" style="stroke: #000000; stroke-width: 0.5"/>
      </g>
     </g>
     <g id="text_4">
      <!-- $1.5$ -->
      <g transform="translate(326.884385 267.804104)scale(0.08 -0.08)">
       <use xlink:href="#DejaVuSans-31" transform="translate(0 0.09375)"/>
       <use xlink:href="#DejaVuSans-2e" transform="translate(63.623047 0.09375)"/>
       <use xlink:href="#DejaVuSans-35" transform="translate(95.410156 0.09375)"/>
      </g>
     </g>
    </g>
    <g id="xtick_5">
     <g id="line2d_6">
      <g>
       <use xlink:href="#m48f4aeea23" x="422.361999" y="258.225354" style="stroke: #000000; stroke-width: 0.5"/>
      </g>
     </g>
     <g id="text_5">
      <!-- $2.0$ -->
      <g transform="translate(415.961999 267.804104)scale(0.08 -0.08)">
       <defs>
        <path id="DejaVuSans-32" d="M 1228 531 
L 3431 531 
L 3431 0 
L 469 0 
L 469 531 
Q 828 903 1448 1529 
Q 2069 2156 2228 2338 
Q 2531 2678 2651 2914 
Q 2772 3150 2772 3378 
Q 2772 3750 2511 3984 
Q 2250 4219 1831 4219 
Q 1534 4219 1204 4116 
Q 875 4013 500 3803 
L 500 4441 
Q 881 4594 1212 4672 
Q 1544 4750 1819 4750 
Q 2544 4750 2975 4387 
Q 3406 4025 3406 3419 
Q 3406 3131 3298 2873 
Q 3191 2616 2906 2266 
Q 2828 2175 2409 1742 
Q 1991 1309 1228 531 
z
" transform="scale(0.015625)"/>
       </defs>
       <use xlink:href="#DejaVuSans-32" transform="translate(0 0.78125)"/>
       <use xlink:href="#DejaVuSans-2e" transform="translate(63.623047 0.78125)"/>
       <use xlink:href="#DejaVuSans-30" transform="translate(95.410156 0.78125)"/>
      </g>
     </g>
    </g>
    <g id="text_6">
     <!-- Time (s) -->
     <g transform="translate(221.844975 281.826136)scale(0.11 -0.11)">
      <defs>
       <path id="DejaVuSans-54" d="M -19 4666 
L 3928 4666 
L 3928 4134 
L 2272 4134 
L 2272 0 
L 1638 0 
L 1638 4134 
L -19 4134 
L -19 4666 
z
" transform="scale(0.015625)"/>
       <path id="DejaVuSans-69" d="M 603 3500 
L 1178 3500 
L 1178 0 
L 603 0 
L 603 3500 
z
M 603 4863 
L 1178 4863 
L 1178 4134 
L 603 4134 
L 603 4863 
z
" transform="scale(0.015625)"/>
       <path id="DejaVuSans-6d" d="M 3328 2828 
Q 3544 3216 3844 3400 
Q 4144 3584 4550 3584 
Q 5097 3584 5394 3201 
Q 5691 2819 5691 2113 
L 5691 0 
L 5113 0 
L 5113 2094 
Q 5113 2597 4934 2840 
Q 4756 3084 4391 3084 
Q 3944 3084 3684 2787 
Q 3425 2491 3425 1978 
L 3425 0 
L 2847 0 
L 2847 2094 
Q 2847 2600 2669 2842 
Q 2491 3084 2119 3084 
Q 1678 3084 1418 2786 
Q 1159 2488 1159 1978 
L 1159 0 
L 581 0 
L 581 3500 
L 1159 3500 
L 1159 2956 
Q 1356 3278 1631 3431 
Q 1906 3584 2284 3584 
Q 2666 3584 2933 3390 
Q 3200 3197 3328 2828 
z
" transform="scale(0.015625)"/>
       <path id="DejaVuSans-65" d="M 3597 1894 
L 3597 1613 
L 953 1613 
Q 991 1019 1311 708 
Q 1631 397 2203 397 
Q 2534 397 2845 478 
Q 3156 559 3463 722 
L 3463 178 
Q 3153 47 2828 -22 
Q 2503 -91 2169 -91 
Q 1331 -91 842 396 
Q 353 884 353 1716 
Q 353 2575 817 3079 
Q 1281 3584 2069 3584 
Q 2775 3584 3186 3129 
Q 3597 2675 3597 1894 
z
M 3022 2063 
Q 3016 2534 2758 2815 
Q 2500 3097 2075 3097 
Q 1594 3097 1305 2825 
Q 1016 2553 972 2059 
L 3022 2063 
z
" transform="scale(0.015625)"/>
       <path id="DejaVuSans-20" transform="scale(0.015625)"/>
       <path id="DejaVuSans-28" d="M 1984 4856 
Q 1566 4138 1362 3434 
Q 1159 2731 1159 2009 
Q 1159 1288 1364 580 
Q 1569 -128 1984 -844 
L 1484 -844 
Q 1016 -109 783 600 
Q 550 1309 550 2009 
Q 550 2706 781 3412 
Q 1013 4119 1484 4856 
L 1984 4856 
z
" transform="scale(0.015625)"/>
       <path id="DejaVuSans-73" d="M 2834 3397 
L 2834 2853 
Q 2591 2978 2328 3040 
Q 2066 3103 1784 3103 
Q 1356 3103 1142 2972 
Q 928 2841 928 2578 
Q 928 2378 1081 2264 
Q 1234 2150 1697 2047 
L 1894 2003 
Q 2506 1872 2764 1633 
Q 3022 1394 3022 966 
Q 3022 478 2636 193 
Q 2250 -91 1575 -91 
Q 1294 -91 989 -36 
Q 684 19 347 128 
L 347 722 
Q 666 556 975 473 
Q 1284 391 1588 391 
Q 1994 391 2212 530 
Q 2431 669 2431 922 
Q 2431 1156 2273 1281 
Q 2116 1406 1581 1522 
L 1381 1569 
Q 847 1681 609 1914 
Q 372 2147 372 2553 
Q 372 3047 722 3315 
Q 1072 3584 1716 3584 
Q 2034 3584 2315 3537 
Q 2597 3491 2834 3397 
z
" transform="scale(0.015625)"/>
       <path id="DejaVuSans-29" d="M 513 4856 
L 1013 4856 
Q 1481 4119 1714 3412 
Q 1947 2706 1947 2009 
Q 1947 1309 1714 600 
Q 1481 -109 1013 -844 
L 513 -844 
Q 928 -128 1133 580 
Q 1338 1288 1338 2009 
Q 1338 2731 1133 3434 
Q 928 4138 513 4856 
z
" transform="scale(0.015625)"/>
      </defs>
      <use xlink:href="#DejaVuSans-54"/>
      <use xlink:href="#DejaVuSans-69" x="57.958984"/>
      <use xlink:href="#DejaVuSans-6d" x="85.742188"/>
      <use xlink:href="#DejaVuSans-65" x="183.154297"/>
      <use xlink:href="#DejaVuSans-20" x="244.677734"/>
      <use xlink:href="#DejaVuSans-28" x="276.464844"/>
      <use xlink:href="#DejaVuSans-73" x="315.478516"/>
      <use xlink:href="#DejaVuSans-29" x="367.578125"/>
     </g>
    </g>
   </g>
   <g id="matplotlib.axis_2">
    <g id="ytick_1">
     <g id="line2d_7">
      <defs>
       <path id="md7e31cd1b0" d="M 0 0 
L 2.5 0 
" style="stroke: #000000; stroke-width: 0.5"/>
      </defs>
      <g>
       <use xlink:href="#md7e31cd1b0" x="66.051544" y="216.736962" style="stroke: #000000; stroke-width: 0.5"/>
      </g>
     </g>
     <g id="text_7">
      <!-- $-6.0×10^{5}$ -->
      <g transform="translate(22.311544 219.776337)scale(0.08 -0.08)">
       <defs>
        <path id="DejaVuSans-2212" d="M 678 2272 
L 4684 2272 
L 4684 1741 
L 678 1741 
L 678 2272 
z
" transform="scale(0.015625)"/>
        <path id="DejaVuSans-36" d="M 2113 2584 
Q 1688 2584 1439 2293 
Q 1191 2003 1191 1497 
Q 1191 994 1439 701 
Q 1688 409 2113 409 
Q 2538 409 2786 701 
Q 3034 994 3034 1497 
Q 3034 2003 2786 2293 
Q 2538 2584 2113 2584 
z
M 3366 4563 
L 3366 3988 
Q 3128 4100 2886 4159 
Q 2644 4219 2406 4219 
Q 1781 4219 1451 3797 
Q 1122 3375 1075 2522 
Q 1259 2794 1537 2939 
Q 1816 3084 2150 3084 
Q 2853 3084 3261 2657 
Q 3669 2231 3669 1497 
Q 3669 778 3244 343 
Q 2819 -91 2113 -91 
Q 1303 -91 875 529 
Q 447 1150 447 2328 
Q 447 3434 972 4092 
Q 1497 4750 2381 4750 
Q 2619 4750 2861 4703 
Q 3103 4656 3366 4563 
z
" transform="scale(0.015625)"/>
        <path id="DejaVuSans-d7" d="M 4488 3438 
L 3059 2003 
L 4488 575 
L 4116 197 
L 2681 1631 
L 1247 197 
L 878 575 
L 2303 2003 
L 878 3438 
L 1247 3816 
L 2681 2381 
L 4116 3816 
L 4488 3438 
z
" transform="scale(0.015625)"/>
       </defs>
       <use xlink:href="#DejaVuSans-2212" transform="translate(0 0.684375)"/>
       <use xlink:href="#DejaVuSans-36" transform="translate(83.789062 0.684375)"/>
       <use xlink:href="#DejaVuSans-2e" transform="translate(147.412109 0.684375)"/>
       <use xlink:href="#DejaVuSans-30" transform="translate(179.199219 0.684375)"/>
       <use xlink:href="#DejaVuSans-d7" transform="translate(242.822266 0.684375)"/>
       <use xlink:href="#DejaVuSans-31" transform="translate(326.611328 0.684375)"/>
       <use xlink:href="#DejaVuSans-30" transform="translate(390.234375 0.684375)"/>
       <use xlink:href="#DejaVuSans-35" transform="translate(454.814453 38.965625)scale(0.7)"/>
      </g>
     </g>
    </g>
    <g id="ytick_2">
     <g id="line2d_8">
      <g>
       <use xlink:href="#md7e31cd1b0" x="66.051544" y="169.814641" style="stroke: #000000; stroke-width: 0.5"/>
      </g>
     </g>
     <g id="text_8">
      <!-- $-3.0×10^{5}$ -->
      <g transform="translate(22.311544 172.854016)scale(0.08 -0.08)">
       <defs>
        <path id="DejaVuSans-33" d="M 2597 2516 
Q 3050 2419 3304 2112 
Q 3559 1806 3559 1356 
Q 3559 666 3084 287 
Q 2609 -91 1734 -91 
Q 1441 -91 1130 -33 
Q 819 25 488 141 
L 488 750 
Q 750 597 1062 519 
Q 1375 441 1716 441 
Q 2309 441 2620 675 
Q 2931 909 2931 1356 
Q 2931 1769 2642 2001 
Q 2353 2234 1838 2234 
L 1294 2234 
L 1294 2753 
L 1863 2753 
Q 2328 2753 2575 2939 
Q 2822 3125 2822 3475 
Q 2822 3834 2567 4026 
Q 2313 4219 1838 4219 
Q 1578 4219 1281 4162 
Q 984 4106 628 3988 
L 628 4550 
Q 988 4650 1302 4700 
Q 1616 4750 1894 4750 
Q 2613 4750 3031 4423 
Q 3450 4097 3450 3541 
Q 3450 3153 3228 2886 
Q 3006 2619 2597 2516 
z
" transform="scale(0.015625)"/>
       </defs>
       <use xlink:href="#DejaVuSans-2212" transform="translate(0 0.684375)"/>
       <use xlink:href="#DejaVuSans-33" transform="translate(83.789062 0.684375)"/>
       <use xlink:href="#DejaVuSans-2e" transform="translate(147.412109 0.684375)"/>
       <use xlink:href="#DejaVuSans-30" transform="translate(179.199219 0.684375)"/>
       <use xlink:href="#DejaVuSans-d7" transform="translate(242.822266 0.684375)"/>
       <use xlink:href="#DejaVuSans-31" transform="translate(326.611328 0.684375)"/>
       <use xlink:href="#DejaVuSans-30" transform="translate(390.234375 0.684375)"/>
       <use xlink:href="#DejaVuSans-35" transform="translate(454.814453 38.965625)scale(0.7)"/>
      </g>
     </g>
    </g>
    <g id="ytick_3">
     <g id="line2d_9">
      <g>
       <use xlink:href="#md7e31cd1b0" x="66.051544" y="122.892321" style="stroke: #000000; stroke-width: 0.5"/>
      </g>
     </g>
     <g id="text_9">
      <!-- $0$ -->
      <g transform="translate(57.431544 125.931696)scale(0.08 -0.08)">
       <use xlink:href="#DejaVuSans-30" transform="translate(0 0.78125)"/>
      </g>
     </g>
    </g>
    <g id="ytick_4">
     <g id="line2d_10">
      <g>
       <use xlink:href="#md7e31cd1b0" x="66.051544" y="75.97" style="stroke: #000000; stroke-width: 0.5"/>
      </g>
     </g>
     <g id="text_10">
      <!-- $3.0×10^{5}$ -->
      <g transform="translate(29.031544 79.009375)scale(0.08 -0.08)">
       <use xlink:href="#DejaVuSans-33" transform="translate(0 0.684375)"/>
       <use xlink:href="#DejaVuSans-2e" transform="translate(63.623047 0.684375)"/>
       <use xlink:href="#DejaVuSans-30" transform="translate(95.410156 0.684375)"/>
       <use xlink:href="#DejaVuSans-d7" transform="translate(159.033203 0.684375)"/>
       <use xlink:href="#DejaVuSans-31" transform="translate(242.822266 0.684375)"/>
       <use xlink:href="#DejaVuSans-30" transform="translate(306.445312 0.684375)"/>
       <use xlink:href="#DejaVuSans-35" transform="translate(371.025391 38.965625)scale(0.7)"/>
      </g>
     </g>
    </g>
    <g id="ytick_5">
     <g id="line2d_11">
      <g>
       <use xlink:href="#md7e31cd1b0" x="66.051544" y="29.047679" style="stroke: #000000; stroke-width: 0.5"/>
      </g>
     </g>
     <g id="text_11">
      <!-- $6.0×10^{5}$ -->
      <g transform="translate(29.031544 32.087054)scale(0.08 -0.08)">
       <use xlink:href="#DejaVuSans-36" transform="translate(0 0.684375)"/>
       <use xlink:href="#DejaVuSans-2e" transform="translate(63.623047 0.684375)"/>
       <use xlink:href="#DejaVuSans-30" transform="translate(95.410156 0.684375)"/>
       <use xlink:href="#DejaVuSans-d7" transform="translate(159.033203 0.684375)"/>
       <use xlink:href="#DejaVuSans-31" transform="translate(242.822266 0.684375)"/>
       <use xlink:href="#DejaVuSans-30" transform="translate(306.445312 0.684375)"/>
       <use xlink:href="#DejaVuSans-35" transform="translate(371.025391 38.965625)scale(0.7)"/>
      </g>
     </g>
    </g>
    <g id="text_12">
     <!-- $F_y$ ($N$) -->
     <g transform="translate(14.901544 146.315)rotate(-90)scale(0.11 -0.11)">
      <defs>
       <path id="DejaVuSans-Oblique-46" d="M 1081 4666 
L 3756 4666 
L 3653 4134 
L 1606 4134 
L 1338 2759 
L 3188 2759 
L 3084 2228 
L 1234 2228 
L 800 0 
L 172 0 
L 1081 4666 
z
" transform="scale(0.015625)"/>
       <path id="DejaVuSans-Oblique-79" d="M 1588 -325 
Q 1188 -997 936 -1164 
Q 684 -1331 294 -1331 
L -159 -1331 
L -63 -850 
L 269 -850 
Q 509 -850 678 -719 
Q 847 -588 1056 -206 
L 1234 128 
L 459 3500 
L 1069 3500 
L 1650 819 
L 3256 3500 
L 3859 3500 
L 1588 -325 
z
" transform="scale(0.015625)"/>
       <path id="DejaVuSans-Oblique-4e" d="M 1081 4666 
L 1931 4666 
L 3219 666 
L 4000 4666 
L 4616 4666 
L 3706 0 
L 2853 0 
L 1569 4025 
L 788 0 
L 172 0 
L 1081 4666 
z
" transform="scale(0.015625)"/>
      </defs>
      <use xlink:href="#DejaVuSans-Oblique-46" transform="translate(0 0.125)"/>
      <use xlink:href="#DejaVuSans-Oblique-79" transform="translate(57.519531 -16.28125)scale(0.7)"/>
      <use xlink:href="#DejaVuSans-20" transform="translate(101.679688 0.125)"/>
      <use xlink:href="#DejaVuSans-28" transform="translate(133.466797 0.125)"/>
      <use xlink:href="#DejaVuSans-Oblique-4e" transform="translate(172.480469 0.125)"/>
      <use xlink:href="#DejaVuSans-29" transform="translate(247.285156 0.125)"/>
     </g>
    </g>
   </g>
   <g id="line2d_12">
    <path d="M 66.051544 122.892321 
L 67.436352 122.986033 
L 67.57922 123.023077 
L 68.015323 122.713077 
L 68.376409 122.876054 
L 68.586863 122.994102 
L 68.797317 122.967111 
L 69.226108 122.877411 
L 69.337422 122.98223 
L 69.448736 123.088875 
L 69.504393 123.048611 
L 69.850104 122.841837 
L 70.219014 122.672502 
L 70.684469 122.917095 
L 71.015257 122.852333 
L 71.189944 122.823208 
L 71.435291 122.929127 
L 72.00219 122.935812 
L 72.19945 122.834325 
L 72.791228 122.916524 
L 72.922735 123.072183 
L 73.054241 122.999388 
L 73.253827 123.035309 
L 73.390514 122.955575 
L 73.577298 122.951072 
L 74.230319 122.965323 
L 74.495676 122.784984 
L 74.702398 122.79478 
L 75.046934 123.081522 
L 75.184748 123.05969 
L 75.598192 122.831802 
L 75.942728 123.007103 
L 76.14945 123.040618 
L 76.425079 122.914794 
L 76.631801 122.804342 
L 77.598016 122.734586 
L 77.947342 122.681453 
L 78.935003 122.810138 
L 79.077281 122.783777 
L 79.290698 122.883871 
L 79.575254 122.998925 
L 80.215505 122.722058 
L 80.716548 122.979128 
L 80.864967 122.891571 
L 81.124956 122.756618 
L 81.307418 122.774201 
L 81.5682 122.870173 
L 81.772262 122.834557 
L 82.135727 122.594299 
L 82.455111 122.691717 
L 82.926802 122.960981 
L 83.303089 122.91489 
L 83.538359 122.785993 
L 83.940989 122.72195 
L 84.349441 122.59098 
L 84.594513 122.490178 
L 84.746429 122.47637 
L 85.126545 122.833684 
L 85.415231 122.759803 
L 85.730045 122.64655 
L 85.974922 122.77473 
L 86.235894 122.927075 
L 86.416739 122.940232 
L 86.797542 122.915798 
L 87.275789 123.001276 
L 87.444323 123.031592 
L 88.414056 122.768542 
L 88.723663 122.858793 
L 88.959117 122.752151 
L 89.351208 122.510692 
L 89.739226 122.663716 
L 89.897421 122.706078 
L 90.292907 122.523389 
L 90.707828 122.730223 
L 90.967955 122.780654 
L 91.231563 122.696965 
L 91.775398 122.540061 
L 91.963406 122.626742 
L 92.625486 123.032305 
L 92.91152 123.116365 
L 93.737011 123.629508 
L 93.952915 123.726008 
L 94.184852 124.013288 
L 94.648724 124.663755 
L 95.112597 124.968659 
L 95.460502 125.247654 
L 96.04104 125.633062 
L 96.389642 125.7847 
L 97.092472 126.722655 
L 97.44445 126.83785 
L 97.684749 127.09862 
L 98.295936 127.729871 
L 98.664215 127.875049 
L 99.174868 128.293191 
L 99.640522 128.310585 
L 99.838038 128.31735 
L 100.257574 128.521502 
L 100.713665 128.375442 
L 101.291317 128.066539 
L 101.610123 127.955782 
L 102.334352 127.28293 
L 102.54401 127.169155 
L 102.872879 126.465841 
L 103.356404 125.469987 
L 103.750459 124.676206 
L 104.297277 123.449313 
L 104.732106 122.52919 
L 105.861628 119.408192 
L 106.362447 118.295545 
L 107.030207 116.635372 
L 108.794797 112.432294 
L 109.461095 111.245184 
L 110.299641 110.043344 
L 111.328587 108.573324 
L 112.054992 107.917325 
L 112.853592 107.286852 
L 113.460075 107.021159 
L 114.484458 107.549147 
L 115.574255 108.52955 
L 116.932867 111.180012 
L 117.545928 112.748791 
L 119.371615 119.037493 
L 121.151467 127.314852 
L 122.528213 134.553012 
L 124.515626 143.135023 
L 125.373947 145.399976 
L 125.946161 146.545742 
L 126.518375 146.856887 
L 126.775303 146.893318 
L 127.546085 146.43269 
L 127.957438 145.982027 
L 128.381458 145.257474 
L 129.263033 142.745675 
L 130.385491 138.546495 
L 131.283457 134.846118 
L 133.633414 126.163852 
L 134.365635 124.188717 
L 135.341929 123.161125 
L 135.830077 123.101698 
L 136.318224 122.690284 
L 136.806372 122.367757 
L 137.294519 122.274339 
L 137.538593 122.158789 
L 138.237971 122.135872 
L 139.931725 120.715861 
L 140.770949 119.166935 
L 141.587666 117.439503 
L 143.385915 113.435578 
L 144.721596 110.297321 
L 145.130615 109.92358 
L 145.761048 109.340919 
L 146.269443 109.29343 
L 146.457064 109.462853 
L 147.317649 111.501455 
L 148.839913 117.09257 
L 150.7146 124.847545 
L 151.570995 127.022574 
L 152.188041 127.717917 
L 152.508397 127.829378 
L 152.828753 127.672879 
L 153.149109 127.772035 
L 153.469465 127.615236 
L 153.78982 127.062973 
L 154.430532 126.680857 
L 155.071244 125.755602 
L 156.767198 122.195579 
L 157.01216 121.941555 
L 157.716737 120.606342 
L 158.069025 120.178855 
L 158.597457 119.455218 
L 159.654322 118.706886 
L 160.190681 118.17013 
L 160.671155 118.000682 
L 161.107254 117.631963 
L 161.49575 117.541049 
L 161.817494 116.904392 
L 162.14218 116.389032 
L 162.41427 116.044342 
L 162.715976 115.155594 
L 163.165975 113.966607 
L 163.440737 113.15348 
L 167.464293 97.158872 
L 167.89228 96.095641 
L 168.646301 94.902469 
L 168.949284 94.91169 
L 169.253385 94.8756 
L 169.405435 94.820967 
L 169.557485 94.893414 
L 169.861586 95.548066 
L 170.493339 97.314409 
L 171.391133 101.978586 
L 172.430032 109.882187 
L 174.449113 128.013819 
L 175.216648 133.390721 
L 176.030939 137.709798 
L 176.869001 141.150915 
L 178.373268 145.406453 
L 179.372576 148.735847 
L 181.638167 158.334126 
L 182.985468 161.628656 
L 183.322873 162.279298 
L 183.660279 162.364422 
L 184.335089 162.141893 
L 184.601936 161.623406 
L 185.135629 159.885859 
L 185.825215 156.303002 
L 186.75378 149.957142 
L 190.14062 123.896567 
L 190.747148 120.832656 
L 191.51844 118.279933 
L 191.82284 117.942753 
L 192.533392 117.677347 
L 193.171227 117.840267 
L 193.410415 117.948319 
L 193.888791 118.625785 
L 194.287437 119.420495 
L 194.925272 120.836904 
L 195.483648 121.535297 
L 195.643215 121.509262 
L 195.964145 121.053819 
L 196.285571 120.287667 
L 196.611878 118.771422 
L 197.293375 114.010353 
L 198.438824 103.265313 
L 199.525288 93.507273 
L 200.346686 88.21191 
L 200.84199 86.395821 
L 201.130118 85.851291 
L 201.282932 85.941852 
L 201.517944 86.486827 
L 201.832671 87.670655 
L 202.147399 89.86446 
L 202.810351 96.887422 
L 203.313704 104.848115 
L 204.050649 119.480321 
L 205.632176 152.03628 
L 206.3133 161.794749 
L 206.681573 164.739696 
L 207.078327 166.053081 
L 207.290944 165.792503 
L 207.758896 163.241448 
L 208.301213 157.290354 
L 209.192082 143.38566 
L 210.10639 129.907151 
L 210.715929 123.653188 
L 211.020699 121.623837 
L 211.630238 119.315477 
L 211.935008 118.715343 
L 212.239777 118.487515 
L 212.74383 117.859193 
L 213.142396 117.554109 
L 213.540961 117.082126 
L 213.949609 116.771918 
L 214.971229 114.148718 
L 215.584201 112.06798 
L 215.965852 110.626301 
L 217.955044 100.975733 
L 218.566547 97.104364 
L 219.425969 88.904375 
L 221.387382 68.371483 
L 221.803282 66.997701 
L 222.004621 66.81894 
L 222.164313 67.076296 
L 222.3833 68.00707 
L 222.786595 70.898508 
L 223.264269 76.179207 
L 224.131687 89.566292 
L 225.814563 115.37004 
L 226.264365 119.125822 
L 226.651636 120.77561 
L 226.88595 120.952775 
L 227.047994 120.749006 
L 227.293406 120.027872 
L 227.631018 118.216354 
L 228.267954 112.979497 
L 229.002011 107.277064 
L 229.376061 105.818909 
L 229.649088 105.408108 
L 229.787381 105.369655 
L 229.926388 105.483906 
L 230.204403 106.341612 
L 230.710458 109.362754 
L 231.077505 112.545039 
L 231.933949 123.135074 
L 233.219067 144.147992 
L 234.275361 160.465789 
L 236.690254 190.258679 
L 237.368187 197.616918 
L 237.835654 199.794036 
L 238.081043 199.816258 
L 238.326432 198.651717 
L 238.817209 193.437778 
L 239.351998 183.774658 
L 240.187838 163.010784 
L 241.379162 132.88535 
L 241.981548 123.218572 
L 242.282741 120.590129 
L 242.583933 119.377703 
L 242.885126 119.822646 
L 243.186319 121.577998 
L 243.788705 128.451547 
L 244.993476 144.996004 
L 245.294669 147.67142 
L 245.595861 148.958427 
L 245.897054 148.734393 
L 246.198247 147.294864 
L 246.800633 140.385176 
L 247.738399 125.013634 
L 248.73731 109.018263 
L 249.113898 105.704068 
L 249.350196 104.826521 
L 249.428962 104.794914 
L 249.586495 105.274255 
L 249.862816 107.585405 
L 250.224789 113.047719 
L 250.797378 126.509281 
L 251.985311 155.721887 
L 252.493348 162.542222 
L 252.98984 166.24576 
L 253.77856 170.222891 
L 254.167185 171.649366 
L 254.387085 171.971988 
L 254.537334 171.955919 
L 254.690374 171.753288 
L 254.921153 170.867162 
L 255.236669 168.375256 
L 255.665951 163.199675 
L 256.142103 155.039881 
L 257.300684 130.449685 
L 257.983987 112.026321 
L 259.013046 76.907074 
L 260.401292 30.839386 
L 260.97581 17.719842 
L 261.466113 11.413467 
L 261.744146 10.095107 
L 261.839275 10.062685 
L 262.038266 10.699807 
L 262.237256 12.19872 
L 262.542686 16.279605 
L 262.986542 25.968522 
L 263.638777 46.517747 
L 265.445133 109.15623 
L 265.85469 115.726064 
L 266.071462 117.003943 
L 266.179848 117.111102 
L 266.304368 116.825826 
L 266.555804 114.93826 
L 266.942269 109.00733 
L 268.61862 77.159711 
L 268.913199 75.183215 
L 269.23189 74.126222 
L 269.392594 73.943824 
L 269.558374 74.163658 
L 269.893874 75.502642 
L 270.229375 77.657609 
L 270.564875 81.716915 
L 271.068125 91.64837 
L 271.571375 106.570123 
L 272.413738 139.925431 
L 273.983056 206.158558 
L 274.619742 224.158082 
L 275.044925 230.82675 
L 275.363813 233.463562 
L 275.470109 233.729669 
L 275.576405 233.638269 
L 275.788997 232.396879 
L 276.107885 228.454634 
L 276.426772 221.834631 
L 277.001276 203.605001 
L 277.857784 167.454392 
L 278.90325 125.793474 
L 279.609902 105.290981 
L 280.250895 92.237504 
L 280.892709 83.935378 
L 282.474597 68.067058 
L 283.056719 61.899993 
L 283.446363 59.780577 
L 283.597396 59.606989 
L 283.705483 59.816866 
L 283.924679 61.194166 
L 284.280798 65.615404 
L 284.742978 74.651336 
L 287.263899 132.276683 
L 287.840707 141.341836 
L 288.234366 144.524535 
L 288.432697 144.921131 
L 288.531862 144.803996 
L 288.730193 143.959953 
L 289.029429 141.219524 
L 289.439712 134.686891 
L 290.741566 106.700683 
L 293.308585 54.893568 
L 293.815753 49.501115 
L 293.985254 48.464428 
L 294.156261 48.242234 
L 294.327268 48.945111 
L 294.669282 52.620458 
L 295.011297 59.782554 
L 295.526811 77.372763 
L 296.220814 110.094227 
L 297.538902 174.443863 
L 297.955082 186.693801 
L 298.373601 193.679464 
L 298.653392 195.727243 
L 298.793288 195.774469 
L 299.087619 194.471717 
L 299.384323 192.059557 
L 299.770032 186.159095 
L 300.872727 162.604594 
L 301.880495 142.444096 
L 302.265844 137.919971 
L 302.480419 137.384171 
L 302.632944 137.983873 
L 302.888575 140.667992 
L 303.172227 146.120024 
L 303.83536 164.972363 
L 304.648499 187.131147 
L 305.005428 191.865577 
L 305.24338 192.948613 
L 305.362357 192.680378 
L 305.600309 190.492088 
L 305.957238 183.863155 
L 306.571257 166.372949 
L 307.336827 145.309832 
L 307.795456 137.831987 
L 308.011676 136.534356 
L 308.085459 136.458557 
L 308.236726 136.779894 
L 308.481207 138.40383 
L 308.824168 142.799635 
L 309.854339 159.356827 
L 310.017072 159.916187 
L 310.100268 159.866756 
L 310.269117 159.069994 
L 310.52675 156.11109 
L 310.879508 149.132708 
L 311.547926 130.370392 
L 312.418728 100.744404 
L 313.861554 47.168734 
L 314.06715 44.799904 
L 314.169949 44.635111 
L 314.272747 45.228433 
L 314.478343 49.109178 
L 314.739652 59.884183 
L 315.099633 85.323922 
L 315.733231 150.921322 
L 316.397442 215.360587 
L 316.805829 235.231531 
L 317.030746 237.536524 
L 317.143204 236.314148 
L 317.398983 228.629093 
L 317.826931 205.73693 
L 319.103294 128.084357 
L 319.782894 102.789321 
L 320.758055 72.8546 
L 321.187977 63.781204 
L 321.525827 60.953027 
L 321.713963 60.686224 
L 321.84669 61.081588 
L 322.051521 62.776644 
L 323.379611 78.163379 
L 323.550673 78.401768 
L 324.026191 78.409336 
L 324.451222 79.238106 
L 324.679642 80.128045 
L 325.094612 83.37516 
L 326.224548 93.027786 
L 326.497372 98.295331 
L 326.871331 110.740118 
L 327.65369 147.54641 
L 328.149936 165.149269 
L 328.447683 169.438879 
L 328.650623 170.276111 
L 328.754412 170.158559 
L 329.397647 168.008633 
L 329.729903 168.066727 
L 329.95282 167.515399 
L 330.175738 166.230926 
L 330.398655 163.887102 
L 330.86065 155.299974 
L 331.64649 135.816694 
L 332.168287 116.211707 
L 333.200679 68.960112 
L 333.38535 66.986008 
L 333.446907 67.204319 
L 333.57002 68.971222 
L 333.816248 77.249253 
L 334.331188 105.905627 
L 334.890835 132.702783 
L 335.370645 144.62586 
L 336.217452 159.44246 
L 338.200967 192.507346 
L 338.315007 193.065507 
L 338.367014 193.002235 
L 338.485094 191.982439 
L 338.646579 188.44845 
L 338.95289 175.650028 
L 339.549124 137.534285 
L 340.50314 79.629743 
L 340.904625 64.11271 
L 341.11442 60.755988 
L 341.184835 60.493222 
L 341.255476 60.710001 
L 341.399746 62.664991 
L 341.618033 69.453606 
L 342.168576 97.348542 
L 342.701834 119.26696 
L 343.196457 129.677129 
L 344.08991 146.017423 
L 344.171984 145.902939 
L 344.343906 144.174981 
L 344.621722 137.231089 
L 345.297376 115.951566 
L 345.499608 113.758097 
L 345.600723 113.535942 
L 345.775457 114.106401 
L 346.104228 115.698118 
L 346.174379 115.605077 
L 346.314682 114.466997 
L 346.525135 109.920921 
L 346.875891 95.422805 
L 347.577404 64.547528 
L 347.787857 61.081628 
L 347.863248 60.812988 
L 347.94083 61.078532 
L 348.101457 63.378647 
L 348.362321 71.776016 
L 348.733072 91.550118 
L 349.316681 135.708672 
L 350.117456 194.348986 
L 350.421503 203.217786 
L 350.497247 203.621802 
L 350.572992 203.368639 
L 350.771997 200.142096 
L 351.188138 186.951475 
L 351.958597 155.449098 
L 352.571692 121.075741 
L 353.422116 75.198923 
L 353.816797 64.298845 
L 354.179792 60.420143 
L 354.495136 56.545303 
L 354.965246 46.712407 
L 355.383751 38.82307 
L 355.541996 37.993574 
L 355.624732 38.297832 
L 355.794943 40.652499 
L 356.13905 50.935348 
L 356.932678 76.251359 
L 357.216878 80.768562 
L 357.513692 82.434334 
L 357.812445 82.80563 
L 358.011614 82.866302 
L 358.217346 82.699045 
L 358.424302 82.180506 
L 358.635222 81.186766 
L 358.9881 78.10363 
L 359.350207 74.441234 
L 359.470909 74.150636 
L 359.591612 74.887938 
L 359.833017 80.296681 
L 360.195124 97.80706 
L 361.28439 159.299552 
L 361.795157 169.622412 
L 362.50167 179.214586 
L 362.795604 181.569317 
L 362.894619 181.66734 
L 362.993634 181.195415 
L 363.192004 178.045662 
L 363.49007 166.802669 
L 363.986846 133.868348 
L 364.812806 78.739986 
L 365.400416 57.04819 
L 365.639474 52.525386 
L 365.759003 51.730085 
L 365.878532 51.944374 
L 366.121952 55.135804 
L 366.493082 66.129697 
L 367.380984 104.933822 
L 368.001218 141.647779 
L 369.46467 237.646158 
L 369.775503 242.642257 
L 369.901776 243.06861 
L 370.035248 242.634504 
L 370.314409 239.879206 
L 371.108497 229.949715 
L 371.381511 219.517125 
L 371.745529 196.537955 
L 372.705929 128.64051 
L 374.10234 69.553551 
L 374.529315 55.891305 
L 374.959335 49.272674 
L 375.824957 39.968712 
L 375.93316 40.031666 
L 376.041363 40.802269 
L 376.257768 44.944028 
L 376.582376 57.444601 
L 377.154092 79.059861 
L 377.382779 81.178659 
L 377.497122 80.695707 
L 377.725808 77.557914 
L 378.069628 72.177554 
L 378.18476 71.556817 
L 378.345098 72.198409 
L 378.550101 75.489375 
L 378.879021 85.195813 
L 379.407997 109.179856 
L 380.698024 171.335204 
L 380.822832 172.094234 
L 380.891391 171.822355 
L 381.038509 169.830322 
L 381.372054 159.792368 
L 381.971298 139.861065 
L 382.14251 137.84265 
L 382.229112 137.667153 
L 382.315714 138.047936 
L 382.488917 140.454092 
L 382.796801 149.343596 
L 383.534408 173.191951 
L 383.75569 175.814513 
L 383.829451 176.044472 
L 383.903212 175.975847 
L 384.050734 175.065135 
L 384.272016 171.795371 
L 384.567059 162.647492 
L 385.500876 125.913684 
L 385.832114 118.969916 
L 385.918117 118.479486 
L 386.004119 118.51234 
L 386.262127 120.099674 
L 386.683095 123.748116 
L 387.144837 130.136144 
L 387.221794 130.224551 
L 387.375708 129.183708 
L 387.686966 124.283432 
L 388.501695 110.276415 
L 388.664645 111.541454 
L 389.079587 118.645358 
L 389.417344 127.13223 
L 389.913696 146.61683 
L 390.709514 177.355429 
L 390.828524 178.594899 
L 390.947534 178.218661 
L 391.185555 173.826624 
L 392.137639 150.933664 
L 392.49467 141.804467 
L 393.208733 114.672782 
L 393.684775 97.764125 
L 394.04573 93.102782 
L 394.886709 83.909768 
L 396.188701 44.615105 
L 396.333408 46.008376 
L 396.717224 57.24903 
L 397.085937 73.061484 
L 398.214297 132.306058 
L 398.439969 138.421002 
L 398.552806 138.553708 
L 398.891314 133.822693 
L 399.233886 126.620687 
L 399.84255 106.868439 
L 399.995537 106.147542 
L 400.07203 106.208459 
L 400.225017 106.790969 
L 400.378004 108.430128 
L 400.683977 115.759469 
L 400.913457 119.317734 
L 400.989951 118.990202 
L 401.220958 114.454606 
L 401.540787 109.427628 
L 401.628119 109.231297 
L 401.718722 109.342452 
L 401.903789 110.148031 
L 402.09665 112.776463 
L 402.678954 127.478075 
L 402.776004 126.782288 
L 403.596701 114.697723 
L 403.812534 113.534305 
L 403.92045 113.946428 
L 404.315538 116.477899 
L 404.698433 114.817404 
L 404.992148 115.918385 
L 405.049348 115.660095 
L 405.221686 112.572585 
L 405.633687 103.019393 
L 405.695011 103.252874 
L 405.879418 106.696668 
L 406.391631 117.947538 
L 406.523159 118.775541 
L 406.588923 118.559797 
L 406.720452 116.383304 
L 406.995569 104.742661 
L 407.36628 90.550434 
L 407.609552 87.688482 
L 407.766049 87.099568 
L 407.842507 87.505267 
L 407.969446 90.099423 
L 408.186631 102.02287 
L 408.92884 152.224789 
L 409.560447 179.437035 
L 410.240612 198.612839 
L 410.441395 195.600375 
L 410.877646 184.068687 
L 411.189156 166.341009 
L 411.399501 155.106208 
L 411.504673 153.555712 
L 411.609846 155.350927 
L 412.14631 182.338834 
L 412.75415 210.666907 
L 412.8301 210.437847 
L 412.982001 205.222842 
L 413.367854 175.511183 
L 414.816111 53.690081 
L 415.084898 46.423836 
L 415.264089 45.12597 
L 415.354029 46.126206 
L 415.533907 52.749616 
L 416.267189 101.065543 
L 416.739691 147.760275 
L 416.8365 149.887944 
L 416.934729 148.888483 
L 417.460671 135.239207 
L 417.782833 130.886005 
L 417.89022 131.242652 
L 418.104995 136.543192 
L 418.641931 152.233702 
L 418.865749 155.525287 
L 418.984148 154.996778 
L 419.223171 147.524192 
L 419.570387 137.343395 
L 419.60085 137.29958 
L 419.635578 137.420361 
L 419.80165 139.668154 
L 420.176285 144.399897 
L 420.364353 145.104113 
L 420.436079 144.980611 
L 420.589243 143.006709 
L 420.819679 133.307389 
L 422.014886 60.710144 
L 422.179302 59.516629 
L 422.354203 59.440094 
L 422.361999 59.448451 
" clip-path="url(#p419ea17653)" style="fill: none; stroke: #e36f47"/>
   </g>
   <g id="patch_3">
    <path d="M 66.051544 258.225354 
L 66.051544 2.834646 
" style="fill: none; stroke: #000000; stroke-linejoin: miter; stroke-linecap: square"/>
   </g>
   <g id="patch_4">
    <path d="M 66.051544 258.225354 
L 422.361999 258.225354 
" style="fill: none; stroke: #000000; stroke-linejoin: miter; stroke-linecap: square"/>
   </g>
   <g id="line2d_13">
    <path d="M 66.051544 122.892321 
L 67.46211 122.999679 
L 67.640375 122.977896 
L 67.986729 122.754144 
L 68.134708 122.75763 
L 68.551537 123.021848 
L 68.709676 122.930396 
L 69.141719 122.890544 
L 69.504217 123.106451 
L 69.81382 122.937765 
L 70.104328 122.711334 
L 70.374946 122.766417 
L 70.651846 122.860816 
L 70.92793 122.823234 
L 71.205493 122.842624 
L 71.384599 122.925155 
L 71.674383 122.999168 
L 71.889009 122.961333 
L 72.354531 122.795984 
L 73.530629 122.968191 
L 73.775693 123.014956 
L 74.098995 123.053338 
L 74.404499 122.839286 
L 74.677729 122.763984 
L 75.439484 122.971126 
L 75.778385 122.875383 
L 76.374657 122.987602 
L 76.85492 122.784888 
L 77.468162 122.85008 
L 77.996351 122.66101 
L 79.830237 122.944132 
L 80.432569 122.758169 
L 80.988085 122.938826 
L 81.56291 122.749387 
L 82.028824 122.784529 
L 82.550246 122.670292 
L 83.355326 122.93336 
L 84.39196 122.610034 
L 85.254007 122.663838 
L 85.792685 122.806318 
L 86.330715 122.798146 
L 86.983272 123.021026 
L 90.300316 122.60409 
L 90.892843 122.702245 
L 92.203012 122.702559 
L 92.615245 122.923076 
L 93.49255 123.562536 
L 94.041124 123.910142 
L 96.114844 125.696376 
L 96.621023 126.088348 
L 98.418118 127.777862 
L 99.453781 128.345567 
L 100.009529 128.411521 
L 100.79408 128.34109 
L 101.40565 128.039009 
L 102.091569 127.448373 
L 102.899946 126.421837 
L 103.520119 125.281036 
L 105.023324 121.681098 
L 106.741365 117.235185 
L 108.302618 113.569798 
L 109.241599 111.620676 
L 110.304502 109.964249 
L 111.611425 108.336227 
L 112.444715 107.590952 
L 113.00624 107.280245 
L 113.561312 107.168825 
L 114.089278 107.269396 
L 114.784421 107.710078 
L 115.420663 108.403958 
L 116.17621 109.583058 
L 116.91633 111.117859 
L 117.769096 113.404191 
L 118.666459 116.419466 
L 119.957284 121.620527 
L 121.387483 128.461333 
L 123.828604 140.359423 
L 124.773213 143.793872 
L 125.536361 145.7755 
L 126.148704 146.739914 
L 126.543658 147.025706 
L 126.947301 147.038072 
L 127.353126 146.779478 
L 127.774448 146.253463 
L 128.421644 145.015115 
L 129.149224 143.097669 
L 130.156004 139.618552 
L 133.432189 126.838842 
L 134.249667 124.681855 
L 134.824445 123.541465 
L 135.409825 122.761982 
L 136.011867 122.373335 
L 136.529741 122.304878 
L 137.804177 122.37228 
L 138.379896 122.184711 
L 138.893748 121.841153 
L 139.695332 120.992268 
L 140.601416 119.597139 
L 141.548045 117.664597 
L 144.675905 110.563323 
L 145.368006 109.745323 
L 145.830781 109.532191 
L 146.256782 109.618423 
L 146.69928 110.027527 
L 147.203016 110.914763 
L 147.725299 112.310902 
L 148.534577 115.323745 
L 150.855719 125.151554 
L 151.440651 126.719751 
L 152.013529 127.711779 
L 152.626936 128.209779 
L 153.198327 128.197596 
L 153.805224 127.741308 
L 154.338884 127.028015 
L 155.385758 125.110489 
L 157.010964 122.025537 
L 158.277263 120.089977 
L 159.37601 118.829578 
L 161.786476 116.558234 
L 162.410953 115.508277 
L 163.139177 113.823057 
L 163.84551 111.698 
L 164.879601 107.772414 
L 167.291667 98.044732 
L 167.849393 96.52902 
L 168.447911 95.457848 
L 168.740303 95.171865 
L 169.031038 95.058012 
L 169.320223 95.125713 
L 169.554331 95.320214 
L 170.046293 96.164483 
L 170.572631 97.759777 
L 171.06281 99.915417 
L 171.869115 104.836397 
L 172.874962 112.953346 
L 175.091066 131.989297 
L 175.969115 137.478462 
L 176.733146 140.96095 
L 177.514491 143.585149 
L 179.673674 150.16797 
L 182.34216 159.83467 
L 183.073935 161.423945 
L 183.547978 161.958026 
L 183.783425 162.04722 
L 184.047506 161.990948 
L 184.455032 161.555143 
L 184.768026 160.910065 
L 185.179439 159.629549 
L 185.85796 156.478449 
L 186.615196 151.608889 
L 187.940052 141.059478 
L 189.531436 128.716037 
L 190.517317 122.979727 
L 191.128401 120.458802 
L 191.676704 118.895373 
L 192.1672 118.013861 
L 192.624529 117.577685 
L 193.08975 117.478398 
L 193.607815 117.738277 
L 194.127596 118.310134 
L 195.432906 119.942151 
L 195.69692 119.987287 
L 195.923284 119.848853 
L 196.193136 119.443086 
L 196.566249 118.377066 
L 196.971457 116.507785 
L 197.530508 112.736323 
L 198.468076 104.209678 
L 199.848974 91.700365 
L 200.45305 88.073417 
L 200.855906 86.729737 
L 201.034491 86.457204 
L 201.222581 86.402193 
L 201.41661 86.60636 
L 201.787071 87.771846 
L 202.15709 90.004108 
L 202.682128 95.085454 
L 203.265989 103.322274 
L 204.205697 121.093992 
L 205.919011 154.843291 
L 206.552656 162.276563 
L 206.971968 164.625798 
L 207.107753 164.919869 
L 207.267012 164.973583 
L 207.408484 164.762313 
L 207.687954 163.656981 
L 208.034835 161.111427 
L 208.613579 154.530111 
L 210.972839 123.111081 
L 211.428301 120.122748 
L 211.948009 118.271367 
L 212.296167 117.709545 
L 212.787466 117.399297 
L 213.325369 117.141551 
L 213.699798 116.771165 
L 214.103772 116.096347 
L 214.704697 114.583007 
L 215.730477 111.160739 
L 216.875272 106.533259 
L 217.798233 101.843392 
L 218.603065 96.615999 
L 219.394126 89.87773 
L 221.590123 69.614013 
L 221.957793 68.435625 
L 222.133644 68.312577 
L 222.317831 68.511561 
L 222.680299 69.91193 
L 223.037629 72.592616 
L 223.607363 79.265518 
L 224.612937 95.256642 
L 225.578841 109.792843 
L 226.255573 116.657186 
L 226.626399 118.785403 
L 226.956298 119.62766 
L 227.157541 119.682272 
L 227.408388 119.292172 
L 227.764663 117.952171 
L 228.276398 114.830085 
L 229.370255 107.46813 
L 229.676905 106.354069 
L 229.844149 106.068676 
L 230.007063 106.032211 
L 230.172103 106.246071 
L 230.496568 107.407213 
L 230.975372 110.808752 
L 231.622167 118.04576 
L 232.467771 130.63541 
L 234.907079 169.251442 
L 236.278042 185.436812 
L 237.082286 193.197767 
L 237.604031 196.255198 
L 237.893776 196.880856 
L 238.041716 196.846645 
L 238.188493 196.55926 
L 238.481496 195.193085 
L 238.92102 191.099885 
L 239.360741 184.605328 
L 240.083708 169.590968 
L 241.935948 127.070248 
L 242.418029 121.435291 
L 242.729845 119.843779 
L 242.877988 119.649125 
L 243.011394 119.769679 
L 243.303591 120.935002 
L 243.708074 124.264006 
L 244.437052 133.237507 
L 245.242993 142.587687 
L 245.647447 145.102886 
L 245.881797 145.575425 
L 245.97235 145.551148 
L 246.167106 145.103742 
L 246.450334 143.548905 
L 246.887254 139.338958 
L 247.640137 128.894646 
L 248.853533 112.29025 
L 249.308067 108.808933 
L 249.46555 108.280179 
L 249.621944 108.178504 
L 249.773918 108.51903 
L 250.034299 110.177048 
L 250.423483 115.24165 
L 250.936373 126.001433 
L 252.319862 158.603832 
L 252.87198 165.692636 
L 253.343569 168.855617 
L 253.811146 170.629107 
L 254.294458 171.806087 
L 254.466623 172.016463 
L 254.635283 172.045832 
L 254.804513 171.845119 
L 255.157784 170.487547 
L 255.527162 167.187508 
L 255.925009 161.442473 
L 256.434134 151.04224 
L 257.451109 124.466847 
L 259.210929 71.712778 
L 260.419234 36.954991 
L 261.136735 21.832922 
L 261.545937 16.341825 
L 261.844828 14.287835 
L 262.005384 13.972384 
L 262.163652 14.236385 
L 262.417879 15.894489 
L 262.724339 19.917175 
L 263.173071 29.542296 
L 263.875015 51.211865 
L 265.416124 101.934501 
L 265.920636 111.296786 
L 266.202315 113.857523 
L 266.446103 114.4839 
L 266.553247 114.304822 
L 266.780997 113.058809 
L 267.134345 109.079312 
L 267.73995 98.423855 
L 268.738119 80.586652 
L 269.157124 76.309832 
L 269.532999 74.662793 
L 269.666702 74.5555 
L 269.80038 74.68794 
L 270.038339 75.506868 
L 270.2984 77.26167 
L 270.646294 81.15091 
L 271.148543 90.465113 
L 271.691386 106.141895 
L 272.408965 134.6541 
L 274.235743 211.848591 
L 274.863458 228.23681 
L 275.208413 233.121978 
L 275.44943 234.532166 
L 275.566722 234.595139 
L 275.693524 234.193208 
L 275.922122 232.233339 
L 276.27648 226.105771 
L 276.773844 211.804867 
L 277.539282 180.939368 
L 278.721853 132.325949 
L 279.340782 114.745789 
L 279.953201 102.946864 
L 281.157665 85.264346 
L 282.118615 74.065247 
L 283.570742 59.982052 
L 283.880699 58.619539 
L 284.00427 58.516064 
L 284.137275 58.745149 
L 284.428848 60.646263 
L 284.752082 65.191396 
L 285.213815 76.017187 
L 286.067918 104.442541 
L 286.929774 130.408373 
L 287.43768 140.055179 
L 287.777762 144.030559 
L 288.113706 146.138792 
L 288.280657 146.53737 
L 288.449233 146.50801 
L 288.700379 145.658433 
L 288.986921 143.508059 
L 289.405742 138.191798 
L 289.9684 127.522605 
L 291.053155 100.911242 
L 292.250714 72.931392 
L 293.033236 59.406488 
L 293.539611 54.069012 
L 293.862032 52.536297 
L 294.01978 52.393596 
L 294.160931 52.633284 
L 294.430291 54.120076 
L 294.734032 57.549891 
L 295.186256 66.409153 
L 295.775208 84.834446 
L 296.519117 116.976984 
L 297.846063 176.026827 
L 298.416557 192.347233 
L 298.777435 197.849787 
L 299.036199 199.327626 
L 299.163932 199.308446 
L 299.284852 198.852587 
L 299.55629 196.34475 
L 299.964394 189.298663 
L 300.681691 171.143346 
L 301.553491 149.619969 
L 302.059727 142.118975 
L 302.336905 140.104791 
L 302.613508 139.571261 
L 302.74894 139.839865 
L 303.014031 141.375015 
L 303.371549 145.550499 
L 303.848847 154.75467 
L 305.385834 189.746634 
L 305.609035 191.099154 
L 305.739686 191.099 
L 305.864004 190.523609 
L 306.10541 187.831219 
L 306.411142 181.646127 
L 306.985512 164.320519 
L 307.69609 143.81982 
L 308.024782 138.874662 
L 308.279145 137.712551 
L 308.371935 137.841714 
L 308.566273 138.949585 
L 308.86837 142.408648 
L 309.921481 156.38981 
L 310.125749 157.157297 
L 310.234311 157.15345 
L 310.449607 156.256025 
L 310.696809 153.711374 
L 311.148386 145.214456 
L 311.761447 127.922164 
L 312.669 94.967711 
L 313.719516 56.264127 
L 314.058947 51.151646 
L 314.164329 50.951472 
L 314.275682 51.54187 
L 314.482679 54.94786 
L 314.838914 68.027044 
L 315.226921 92.139024 
L 315.944974 155.259374 
L 316.67767 214.86442 
L 317.047177 229.292295 
L 317.239341 231.168916 
L 317.338257 230.630146 
L 317.545776 226.38661 
L 317.917804 210.067612 
L 318.751982 155.73767 
L 319.489171 114.905153 
L 320.089801 93.902487 
L 320.67987 81.091814 
L 321.395826 70.151339 
L 321.875358 65.337784 
L 322.203203 64.025452 
L 322.31483 63.956022 
L 322.442313 64.066542 
L 322.799005 65.074821 
L 323.774409 69.046297 
L 324.079773 71.398222 
L 324.529161 76.849032 
L 325.555807 90.513675 
L 326.418227 99.811321 
L 326.796276 107.47972 
L 327.316126 124.137981 
L 328.466258 165.468967 
L 328.820184 170.271137 
L 329.032837 170.778642 
L 329.166912 170.385232 
L 329.445675 168.458228 
L 330.784367 155.96532 
L 331.202896 148.384001 
L 331.717539 134.421422 
L 333.546534 79.486775 
L 333.672123 79.218968 
L 333.823695 80.377132 
L 334.05111 85.131431 
L 334.427967 99.283738 
L 335.314279 134.959334 
L 335.899408 147.931258 
L 336.65646 164.657016 
L 337.641196 187.414092 
L 338.043106 192.0141 
L 338.217081 192.636518 
L 338.278214 192.60861 
L 338.411093 192.026354 
L 338.621704 189.344378 
L 338.862728 183.028042 
L 339.213179 167.187339 
L 340.850519 77.529814 
L 341.22451 68.069749 
L 341.431009 66.081728 
L 341.525645 66.056575 
L 341.700491 67.545558 
L 341.970389 73.741171 
L 342.39694 91.30239 
L 343.169949 124.725315 
L 343.636893 136.422045 
L 344.146728 144.041238 
L 344.399619 145.272371 
L 344.468632 145.160641 
L 344.627287 144.080615 
L 344.87291 140.010648 
L 345.296162 127.284151 
L 345.864578 110.367489 
L 346.200386 105.566076 
L 346.797374 99.407158 
L 347.114028 91.969037 
L 347.93026 69.496916 
L 348.075853 68.719505 
L 348.155919 69.004337 
L 348.301183 70.880966 
L 348.568282 78.751815 
L 349.011923 101.727068 
L 350.463801 186.889817 
L 350.784238 194.532568 
L 350.96381 195.637218 
L 351.050333 195.308052 
L 351.233941 192.806626 
L 351.498313 185.398377 
L 352.070044 161.412538 
L 352.881553 119.178417 
L 353.943274 60.199358 
L 354.276553 51.791312 
L 354.58451 48.938895 
L 354.864921 48.383092 
L 355.054906 48.080765 
L 355.334315 46.98613 
L 355.778549 44.93885 
L 355.851114 44.918113 
L 355.99347 45.38665 
L 356.217796 47.711533 
L 356.520011 53.802791 
L 357.511039 76.803214 
L 357.752238 78.498343 
L 357.932848 78.857015 
L 358.28162 78.991624 
L 358.445558 79.466517 
L 358.678655 81.13983 
L 359.012006 85.589622 
L 360.287364 107.507575 
L 360.66779 120.564241 
L 361.835492 168.354574 
L 362.14815 171.482916 
L 362.737806 174.12126 
L 363.263876 177.740411 
L 363.379045 177.010597 
L 363.508906 174.771994 
L 363.744591 166.126042 
L 364.1108 141.231813 
L 365.076461 66.525555 
L 365.381983 57.061194 
L 365.583276 55.063185 
L 365.649874 55.008556 
L 365.793536 55.705377 
L 366.097018 59.744708 
L 366.589161 70.507332 
L 366.996295 84.920722 
L 367.524572 113.34642 
L 368.556145 168.983848 
L 369.202722 206.956579 
L 369.758893 236.637534 
L 370.076056 243.539798 
L 370.216499 244.174747 
L 370.33998 243.781324 
L 370.563761 241.538432 
L 371.190864 231.774303 
L 371.517754 223.450589 
L 371.826486 209.198351 
L 372.204088 180.546614 
L 373.145553 101.93807 
L 373.492554 91.623085 
L 374.087647 79.989981 
L 374.547743 61.152237 
L 375.053082 42.819997 
L 375.305021 39.773142 
L 375.402 39.662942 
L 375.527411 40.098574 
L 376.095156 43.093014 
L 376.487248 43.569747 
L 376.661041 44.930002 
L 376.902523 49.617812 
L 377.258485 62.891246 
L 377.913162 88.163951 
L 378.183672 91.775741 
L 378.320476 92.069883 
L 378.445791 91.793066 
L 378.707561 91.046642 
L 378.78113 91.14918 
L 378.916219 92.034797 
L 379.126468 95.64373 
L 379.488669 107.972202 
L 380.73776 157.047553 
L 381.116613 163.745044 
L 381.315049 164.643928 
L 381.435604 164.204848 
L 381.635707 161.857283 
L 381.984151 154.106409 
L 382.540827 141.629239 
L 382.737393 140.505682 
L 382.828289 140.964801 
L 382.982743 143.309024 
L 383.245772 151.382669 
L 383.959765 175.858831 
L 384.066876 176.418336 
L 384.173166 175.8027 
L 384.382223 171.572028 
L 384.827484 154.667856 
L 385.263905 140.384555 
L 385.553798 136.902194 
L 386.033784 134.069775 
L 386.334941 129.361701 
L 387.014262 116.809317 
L 387.121394 116.624993 
L 387.254308 117.343054 
L 387.862966 123.060687 
L 387.906126 122.940767 
L 388.039474 121.785149 
L 388.301824 116.393116 
L 388.806081 105.62986 
L 388.858351 105.439294 
L 388.901907 105.479395 
L 388.99533 106.18763 
L 389.172706 109.80373 
L 389.47104 121.487519 
L 390.639275 175.163146 
L 390.883629 178.362263 
L 390.994289 178.679968 
L 391.043216 178.592076 
L 391.213278 177.218123 
L 391.461248 172.606132 
L 392.095352 154.593076 
L 393.866523 103.873999 
L 394.410992 89.624787 
L 395.44005 59.173718 
L 395.839717 54.174829 
L 396.234368 51.738856 
L 396.400695 51.400928 
L 396.516629 51.624314 
L 396.647336 52.608442 
L 396.855384 56.497846 
L 397.096355 65.623025 
L 397.528681 92.791685 
L 398.113931 128.368135 
L 398.387692 135.325881 
L 398.479017 135.921646 
L 398.529443 135.900287 
L 398.624401 135.220293 
L 398.811442 131.734842 
L 399.287576 116.406323 
L 399.660189 108.08849 
L 399.885626 106.650752 
L 400.044034 106.626411 
L 400.544647 107.336012 
L 400.751838 108.364963 
L 401.000291 111.171843 
L 401.867359 122.796659 
L 402.048195 123.271915 
L 402.154122 123.245678 
L 402.355574 122.810341 
L 402.714628 121.34774 
L 403.071631 118.607832 
L 403.515416 115.297371 
L 403.5899 115.327737 
L 403.701995 115.916004 
L 403.899762 118.551028 
L 404.454879 127.530448 
L 404.513805 127.664099 
L 404.573349 127.557268 
L 404.752387 125.879392 
L 405.190824 117.428355 
L 405.677616 110.325289 
L 406.540472 100.132411 
L 406.877254 93.359812 
L 407.577729 77.256603 
L 407.620098 77.318529 
L 407.726017 78.328923 
L 407.94542 84.035272 
L 408.350223 103.153983 
L 410.21324 203.079965 
L 410.409154 205.61184 
L 410.460806 205.572341 
L 410.599984 204.054231 
L 410.83687 197.760701 
L 411.611187 174.450056 
L 411.754665 173.461789 
L 411.811145 173.570248 
L 411.924288 174.649384 
L 412.173308 180.460026 
L 412.735325 195.187621 
L 412.884866 196.231342 
L 412.932484 196.209108 
L 413.044005 195.418253 
L 413.223358 191.714536 
L 413.485748 179.768985 
L 413.874666 147.732478 
L 414.711878 74.774641 
L 415.194605 50.123405 
L 415.407196 47.263551 
L 415.524774 48.799925 
L 415.694997 55.225153 
L 416.033196 80.463086 
L 416.65756 129.178683 
L 417.10021 144.830269 
L 417.444936 152.475337 
L 417.597451 153.191918 
L 417.708395 152.380152 
L 417.966892 147.108558 
L 418.503377 135.351326 
L 418.692454 134.285673 
L 418.770073 134.368491 
L 418.939486 135.28421 
L 419.341684 137.60728 
L 419.435308 137.42425 
L 419.58748 136.313996 
L 419.908382 131.547366 
L 421.116273 108.542371 
L 422.311045 68.774493 
L 422.361999 68.11818 
L 422.361999 68.11818 
" clip-path="url(#p419ea17653)" style="fill: none; stroke: #3ea44e"/>
   </g>
   <g id="legend_1">
    <g id="patch_5">
     <path d="M 332.945749 50.862146 
L 418.361999 50.862146 
L 418.361999 6.834646 
L 332.945749 6.834646 
z
" style="fill: #ffffff; stroke: #000000; stroke-linejoin: miter"/>
    </g>
    <g id="line2d_14">
     <path d="M 339.345749 16.513396 
L 347.345749 16.513396 
L 355.345749 16.513396 
" style="fill: none; stroke: #009afa; stroke-linejoin: miter"/>
    </g>
    <g id="text_13">
     <!-- GXBeam -->
     <g transform="translate(361.745749 19.313396)scale(0.08 -0.08)">
      <defs>
       <path id="DejaVuSans-47" d="M 3809 666 
L 3809 1919 
L 2778 1919 
L 2778 2438 
L 4434 2438 
L 4434 434 
Q 4069 175 3628 42 
Q 3188 -91 2688 -91 
Q 1594 -91 976 548 
Q 359 1188 359 2328 
Q 359 3472 976 4111 
Q 1594 4750 2688 4750 
Q 3144 4750 3555 4637 
Q 3966 4525 4313 4306 
L 4313 3634 
Q 3963 3931 3569 4081 
Q 3175 4231 2741 4231 
Q 1884 4231 1454 3753 
Q 1025 3275 1025 2328 
Q 1025 1384 1454 906 
Q 1884 428 2741 428 
Q 3075 428 3337 486 
Q 3600 544 3809 666 
z
" transform="scale(0.015625)"/>
       <path id="DejaVuSans-58" d="M 403 4666 
L 1081 4666 
L 2241 2931 
L 3406 4666 
L 4084 4666 
L 2584 2425 
L 4184 0 
L 3506 0 
L 2194 1984 
L 872 0 
L 191 0 
L 1856 2491 
L 403 4666 
z
" transform="scale(0.015625)"/>
       <path id="DejaVuSans-42" d="M 1259 2228 
L 1259 519 
L 2272 519 
Q 2781 519 3026 730 
Q 3272 941 3272 1375 
Q 3272 1813 3026 2020 
Q 2781 2228 2272 2228 
L 1259 2228 
z
M 1259 4147 
L 1259 2741 
L 2194 2741 
Q 2656 2741 2882 2914 
Q 3109 3088 3109 3444 
Q 3109 3797 2882 3972 
Q 2656 4147 2194 4147 
L 1259 4147 
z
M 628 4666 
L 2241 4666 
Q 2963 4666 3353 4366 
Q 3744 4066 3744 3513 
Q 3744 3084 3544 2831 
Q 3344 2578 2956 2516 
Q 3422 2416 3680 2098 
Q 3938 1781 3938 1306 
Q 3938 681 3513 340 
Q 3088 0 2303 0 
L 628 0 
L 628 4666 
z
" transform="scale(0.015625)"/>
       <path id="DejaVuSans-61" d="M 2194 1759 
Q 1497 1759 1228 1600 
Q 959 1441 959 1056 
Q 959 750 1161 570 
Q 1363 391 1709 391 
Q 2188 391 2477 730 
Q 2766 1069 2766 1631 
L 2766 1759 
L 2194 1759 
z
M 3341 1997 
L 3341 0 
L 2766 0 
L 2766 531 
Q 2569 213 2275 61 
Q 1981 -91 1556 -91 
Q 1019 -91 701 211 
Q 384 513 384 1019 
Q 384 1609 779 1909 
Q 1175 2209 1959 2209 
L 2766 2209 
L 2766 2266 
Q 2766 2663 2505 2880 
Q 2244 3097 1772 3097 
Q 1472 3097 1187 3025 
Q 903 2953 641 2809 
L 641 3341 
Q 956 3463 1253 3523 
Q 1550 3584 1831 3584 
Q 2591 3584 2966 3190 
Q 3341 2797 3341 1997 
z
" transform="scale(0.015625)"/>
      </defs>
      <use xlink:href="#DejaVuSans-47"/>
      <use xlink:href="#DejaVuSans-58" x="77.490234"/>
      <use xlink:href="#DejaVuSans-42" x="145.996094"/>
      <use xlink:href="#DejaVuSans-65" x="214.599609"/>
      <use xlink:href="#DejaVuSans-61" x="276.123047"/>
      <use xlink:href="#DejaVuSans-6d" x="337.402344"/>
     </g>
    </g>
    <g id="line2d_15">
     <path d="M 339.345749 28.255896 
L 347.345749 28.255896 
L 355.345749 28.255896 
" style="fill: none; stroke: #e36f47; stroke-linejoin: miter"/>
    </g>
    <g id="text_14">
     <!-- ODEProblem -->
     <g transform="translate(361.745749 31.055896)scale(0.08 -0.08)">
      <defs>
       <path id="DejaVuSans-4f" d="M 2522 4238 
Q 1834 4238 1429 3725 
Q 1025 3213 1025 2328 
Q 1025 1447 1429 934 
Q 1834 422 2522 422 
Q 3209 422 3611 934 
Q 4013 1447 4013 2328 
Q 4013 3213 3611 3725 
Q 3209 4238 2522 4238 
z
M 2522 4750 
Q 3503 4750 4090 4092 
Q 4678 3434 4678 2328 
Q 4678 1225 4090 567 
Q 3503 -91 2522 -91 
Q 1538 -91 948 565 
Q 359 1222 359 2328 
Q 359 3434 948 4092 
Q 1538 4750 2522 4750 
z
" transform="scale(0.015625)"/>
       <path id="DejaVuSans-44" d="M 1259 4147 
L 1259 519 
L 2022 519 
Q 2988 519 3436 956 
Q 3884 1394 3884 2338 
Q 3884 3275 3436 3711 
Q 2988 4147 2022 4147 
L 1259 4147 
z
M 628 4666 
L 1925 4666 
Q 3281 4666 3915 4102 
Q 4550 3538 4550 2338 
Q 4550 1131 3912 565 
Q 3275 0 1925 0 
L 628 0 
L 628 4666 
z
" transform="scale(0.015625)"/>
       <path id="DejaVuSans-45" d="M 628 4666 
L 3578 4666 
L 3578 4134 
L 1259 4134 
L 1259 2753 
L 3481 2753 
L 3481 2222 
L 1259 2222 
L 1259 531 
L 3634 531 
L 3634 0 
L 628 0 
L 628 4666 
z
" transform="scale(0.015625)"/>
       <path id="DejaVuSans-50" d="M 1259 4147 
L 1259 2394 
L 2053 2394 
Q 2494 2394 2734 2622 
Q 2975 2850 2975 3272 
Q 2975 3691 2734 3919 
Q 2494 4147 2053 4147 
L 1259 4147 
z
M 628 4666 
L 2053 4666 
Q 2838 4666 3239 4311 
Q 3641 3956 3641 3272 
Q 3641 2581 3239 2228 
Q 2838 1875 2053 1875 
L 1259 1875 
L 1259 0 
L 628 0 
L 628 4666 
z
" transform="scale(0.015625)"/>
       <path id="DejaVuSans-72" d="M 2631 2963 
Q 2534 3019 2420 3045 
Q 2306 3072 2169 3072 
Q 1681 3072 1420 2755 
Q 1159 2438 1159 1844 
L 1159 0 
L 581 0 
L 581 3500 
L 1159 3500 
L 1159 2956 
Q 1341 3275 1631 3429 
Q 1922 3584 2338 3584 
Q 2397 3584 2469 3576 
Q 2541 3569 2628 3553 
L 2631 2963 
z
" transform="scale(0.015625)"/>
       <path id="DejaVuSans-6f" d="M 1959 3097 
Q 1497 3097 1228 2736 
Q 959 2375 959 1747 
Q 959 1119 1226 758 
Q 1494 397 1959 397 
Q 2419 397 2687 759 
Q 2956 1122 2956 1747 
Q 2956 2369 2687 2733 
Q 2419 3097 1959 3097 
z
M 1959 3584 
Q 2709 3584 3137 3096 
Q 3566 2609 3566 1747 
Q 3566 888 3137 398 
Q 2709 -91 1959 -91 
Q 1206 -91 779 398 
Q 353 888 353 1747 
Q 353 2609 779 3096 
Q 1206 3584 1959 3584 
z
" transform="scale(0.015625)"/>
       <path id="DejaVuSans-62" d="M 3116 1747 
Q 3116 2381 2855 2742 
Q 2594 3103 2138 3103 
Q 1681 3103 1420 2742 
Q 1159 2381 1159 1747 
Q 1159 1113 1420 752 
Q 1681 391 2138 391 
Q 2594 391 2855 752 
Q 3116 1113 3116 1747 
z
M 1159 2969 
Q 1341 3281 1617 3432 
Q 1894 3584 2278 3584 
Q 2916 3584 3314 3078 
Q 3713 2572 3713 1747 
Q 3713 922 3314 415 
Q 2916 -91 2278 -91 
Q 1894 -91 1617 61 
Q 1341 213 1159 525 
L 1159 0 
L 581 0 
L 581 4863 
L 1159 4863 
L 1159 2969 
z
" transform="scale(0.015625)"/>
       <path id="DejaVuSans-6c" d="M 603 4863 
L 1178 4863 
L 1178 0 
L 603 0 
L 603 4863 
z
" transform="scale(0.015625)"/>
      </defs>
      <use xlink:href="#DejaVuSans-4f"/>
      <use xlink:href="#DejaVuSans-44" x="78.710938"/>
      <use xlink:href="#DejaVuSans-45" x="155.712891"/>
      <use xlink:href="#DejaVuSans-50" x="218.896484"/>
      <use xlink:href="#DejaVuSans-72" x="277.449219"/>
      <use xlink:href="#DejaVuSans-6f" x="316.3125"/>
      <use xlink:href="#DejaVuSans-62" x="377.494141"/>
      <use xlink:href="#DejaVuSans-6c" x="440.970703"/>
      <use xlink:href="#DejaVuSans-65" x="468.753906"/>
      <use xlink:href="#DejaVuSans-6d" x="530.277344"/>
     </g>
    </g>
    <g id="line2d_16">
     <path d="M 339.345749 39.998396 
L 347.345749 39.998396 
L 355.345749 39.998396 
" style="fill: none; stroke: #3ea44e; stroke-linejoin: miter"/>
    </g>
    <g id="text_15">
     <!-- DAEProblem -->
     <g transform="translate(361.745749 42.798396)scale(0.08 -0.08)">
      <defs>
       <path id="DejaVuSans-41" d="M 2188 4044 
L 1331 1722 
L 3047 1722 
L 2188 4044 
z
M 1831 4666 
L 2547 4666 
L 4325 0 
L 3669 0 
L 3244 1197 
L 1141 1197 
L 716 0 
L 50 0 
L 1831 4666 
z
" transform="scale(0.015625)"/>
      </defs>
      <use xlink:href="#DejaVuSans-44"/>
      <use xlink:href="#DejaVuSans-41" x="75.251953"/>
      <use xlink:href="#DejaVuSans-45" x="143.660156"/>
      <use xlink:href="#DejaVuSans-50" x="206.84375"/>
      <use xlink:href="#DejaVuSans-72" x="265.396484"/>
      <use xlink:href="#DejaVuSans-6f" x="304.259766"/>
      <use xlink:href="#DejaVuSans-62" x="365.441406"/>
      <use xlink:href="#DejaVuSans-6c" x="428.917969"/>
      <use xlink:href="#DejaVuSans-65" x="456.701172"/>
      <use xlink:href="#DejaVuSans-6d" x="518.224609"/>
     </g>
    </g>
   </g>
  </g>
 </g>
 <defs>
  <clipPath id="p419ea17653">
   <rect x="66.051544" y="2.834646" width="356.310455" height="255.390709"/>
  </clipPath>
 </defs>
</svg>
