<?xml version="1.0" encoding="utf-8" standalone="no"?>
<!DOCTYPE svg PUBLIC "-//W3C//DTD SVG 1.1//EN"
  "http://www.w3.org/Graphics/SVG/1.1/DTD/svg11.dtd">
<svg xmlns:xlink="http://www.w3.org/1999/xlink" width="432pt" height="288pt" viewBox="0 0 432 288" xmlns="http://www.w3.org/2000/svg" version="1.1">
 <metadata>
  <rdf:RDF xmlns:dc="http://purl.org/dc/elements/1.1/" xmlns:cc="http://creativecommons.org/ns#" xmlns:rdf="http://www.w3.org/1999/02/22-rdf-syntax-ns#">
   <cc:Work>
    <dc:type rdf:resource="http://purl.org/dc/dcmitype/StillImage"/>
    <dc:date>2022-08-23T20:36:00.187790</dc:date>
    <dc:format>image/svg+xml</dc:format>
    <dc:creator>
     <cc:Agent>
      <dc:title>Matplotlib v3.5.3, https://matplotlib.org/</dc:title>
     </cc:Agent>
    </dc:creator>
   </cc:Work>
  </rdf:RDF>
 </metadata>
 <defs>
  <style type="text/css">*{stroke-linejoin: round; stroke-linecap: butt}</style>
 </defs>
 <g id="figure_1">
  <g id="patch_1">
   <path d="M 0 288 
L 432 288 
L 432 0 
L 0 0 
z
" style="fill: #ffffff"/>
  </g>
  <g id="axes_1">
   <g id="patch_2">
    <path d="M 64.557544 258.225354 
L 422.361999 258.225354 
L 422.361999 2.834646 
L 64.557544 2.834646 
z
" style="fill: #ffffff"/>
   </g>
   <g id="line2d_1">
    <path d="M 64.557544 133.142509 
L 70.819122 133.036644 
L 71.713633 132.959187 
L 72.429242 132.890574 
L 73.144851 132.852214 
L 75.649482 132.713885 
L 76.543993 132.64553 
L 77.259602 132.579824 
L 77.796309 132.638628 
L 78.333015 132.609299 
L 78.869722 132.630987 
L 79.406429 132.64394 
L 79.943135 132.59437 
L 80.658744 132.617892 
L 81.195451 132.588799 
L 81.732158 132.619034 
L 83.52118 132.551266 
L 89.424953 133.168547 
L 91.57178 132.947748 
L 92.645194 132.748002 
L 94.613118 132.611369 
L 95.865434 132.795609 
L 96.938847 133.187463 
L 97.833358 133.686261 
L 98.370065 134.01858 
L 98.906771 134.350828 
L 99.443478 134.573095 
L 100.159087 134.968053 
L 100.874696 135.230076 
L 101.2325 135.316229 
L 102.484816 135.184462 
L 103.200425 134.855101 
L 103.558229 134.606991 
L 105.883958 132.034688 
L 107.494078 129.955993 
L 107.851883 129.538009 
L 109.283101 128.812654 
L 110.535416 129.269905 
L 111.60883 130.444918 
L 112.682243 132.178431 
L 113.934559 134.587657 
L 115.186874 136.85914 
L 116.260288 138.210749 
L 117.333701 138.902033 
L 118.04931 138.926776 
L 118.586017 138.707715 
L 119.122723 138.258686 
L 120.017234 137.199165 
L 122.164061 134.136704 
L 123.416377 132.800525 
L 124.131986 132.352099 
L 125.026497 132.038699 
L 127.71003 131.77944 
L 128.246737 131.526701 
L 129.32015 130.596697 
L 130.393564 129.142478 
L 132.003684 126.271901 
L 133.434901 123.904576 
L 134.508315 122.998228 
L 134.866119 123.070792 
L 135.76063 123.54233 
L 136.476239 124.768244 
L 137.012946 125.893017 
L 137.907457 128.67514 
L 138.623066 131.391254 
L 140.412088 138.258795 
L 141.485502 141.508614 
L 142.201111 142.878043 
L 142.737817 143.73575 
L 143.274524 143.972687 
L 143.811231 144.035356 
L 144.169035 143.901441 
L 144.705742 143.32816 
L 146.673666 141.260674 
L 147.74708 140.387694 
L 148.999395 140.177998 
L 150.251711 140.865159 
L 151.325124 141.568183 
L 152.219635 141.626192 
L 152.756342 141.300379 
L 153.650853 140.264226 
L 154.18756 139.215707 
L 155.082071 137.051736 
L 155.976582 133.960548 
L 157.4078 128.005626 
L 159.733529 118.574468 
L 160.62804 115.828422 
L 161.522551 113.798358 
L 162.059258 113.241533 
L 162.595965 112.791111 
L 162.774867 112.792738 
L 163.669378 113.401517 
L 164.027182 113.999445 
L 164.742791 115.510788 
L 165.4584 117.673629 
L 166.352911 121.079756 
L 167.605227 127.034724 
L 169.752054 138.077187 
L 171.004369 143.327568 
L 171.719978 145.508348 
L 172.435587 147.027901 
L 172.972294 147.612647 
L 173.509 147.989287 
L 174.045707 148.073632 
L 174.403512 148.017627 
L 174.940218 147.862619 
L 175.298023 147.822915 
L 177.981556 146.255642 
L 178.339361 146.183552 
L 178.697165 145.998325 
L 179.949481 145.950308 
L 180.66509 145.573431 
L 181.022894 145.468478 
L 182.27521 144.136922 
L 182.990819 142.983656 
L 184.064232 140.345935 
L 185.316547 135.155825 
L 186.568863 128.263323 
L 188.178983 117.861256 
L 189.431299 109.711408 
L 190.504712 103.711057 
L 191.399223 100.090983 
L 191.757028 99.14888 
L 192.293734 98.43683 
L 192.651539 98.200498 
L 192.830441 98.272472 
L 193.188246 98.872972 
L 193.724952 100.403999 
L 194.261659 102.987921 
L 194.798366 106.66471 
L 195.692877 114.793126 
L 197.124095 131.646005 
L 198.37641 146.046319 
L 199.270921 154.036555 
L 199.98653 157.973636 
L 200.344335 159.101786 
L 200.702139 159.427652 
L 200.881041 159.376458 
L 201.238846 158.820379 
L 201.59665 157.68495 
L 201.954455 156.029795 
L 202.848966 150.011786 
L 204.81689 135.892178 
L 205.353597 133.824472 
L 205.711401 133.187912 
L 205.890304 133.108126 
L 206.069206 133.19719 
L 206.42701 133.876632 
L 206.784815 135.305893 
L 207.321521 138.558324 
L 207.858228 142.858735 
L 209.64725 158.64275 
L 210.183957 161.926855 
L 210.720664 163.984572 
L 211.078468 164.814866 
L 211.257371 164.9012 
L 211.615175 164.605837 
L 211.972979 163.991241 
L 212.330784 162.619482 
L 213.046393 158.324638 
L 213.762002 151.931405 
L 214.835415 140.158826 
L 216.266633 125.00221 
L 216.982242 119.156918 
L 217.697851 114.792852 
L 218.41346 111.991412 
L 218.950166 110.659454 
L 219.665775 109.384524 
L 220.739189 108.273783 
L 221.454797 107.47512 
L 222.349309 105.822061 
L 223.601624 102.280662 
L 224.138331 100.684523 
L 225.032842 98.772848 
L 225.390646 98.669356 
L 225.569549 98.784495 
L 225.927353 99.464041 
L 226.46406 101.599629 
L 227.000767 105.066382 
L 227.895278 113.283356 
L 228.968691 126.690511 
L 231.115518 154.680239 
L 232.010029 163.550077 
L 232.725638 168.6508 
L 233.262345 171.091341 
L 233.620149 171.839217 
L 233.799051 171.960249 
L 233.977953 171.815212 
L 234.335758 170.827527 
L 234.693562 168.993444 
L 235.230269 164.57622 
L 237.377096 144.299723 
L 238.092705 140.441277 
L 238.629411 138.739795 
L 238.987216 138.357609 
L 239.166118 138.467032 
L 239.523922 139.243609 
L 239.881727 140.62514 
L 240.418434 144.055531 
L 241.312945 151.931717 
L 242.207456 159.004467 
L 242.56526 160.639231 
L 242.923065 161.413334 
L 243.101967 161.429232 
L 243.280869 161.140516 
L 243.638674 159.89839 
L 244.17538 157.027085 
L 245.069892 150.215448 
L 245.7855 143.211711 
L 246.501109 133.877974 
L 247.395621 119.478112 
L 249.005741 93.182432 
L 249.721349 84.756073 
L 250.258056 80.530344 
L 250.794763 78.013257 
L 251.152567 77.093695 
L 251.510372 76.673077 
L 251.689274 76.664573 
L 252.047078 76.97777 
L 252.404883 77.765771 
L 252.762687 79.183191 
L 253.299394 82.568016 
L 253.836101 87.485246 
L 254.55171 96.831158 
L 255.625123 114.515558 
L 257.235243 140.461399 
L 258.666461 159.191364 
L 259.203168 163.721723 
L 259.560972 165.260309 
L 259.739874 165.524986 
L 259.918776 165.405399 
L 260.276581 164.121195 
L 260.634385 161.774044 
L 261.349994 155.068843 
L 262.423408 145.083706 
L 262.960114 141.792333 
L 263.317919 140.640107 
L 263.675723 139.937869 
L 263.854625 139.833455 
L 264.033528 139.993695 
L 264.391332 140.83481 
L 264.749137 142.065904 
L 265.106941 144.256458 
L 265.643648 148.867696 
L 266.359257 157.694316 
L 267.43267 170.084819 
L 267.969377 173.586641 
L 268.327181 174.519088 
L 268.506083 174.466422 
L 268.863888 173.759457 
L 269.221692 172.094644 
L 269.937301 165.987862 
L 271.189617 152.493975 
L 272.978639 132.537021 
L 273.515346 128.612439 
L 273.87315 127.423926 
L 274.052052 127.272105 
L 274.230955 127.292525 
L 274.588759 127.770556 
L 274.946564 128.844239 
L 275.662172 131.035795 
L 276.198879 132.103132 
L 276.556684 132.226134 
L 277.451195 132.070309 
L 277.987901 131.667487 
L 278.345706 131.293923 
L 278.882413 130.164824 
L 279.240217 128.991752 
L 279.598021 126.910465 
L 280.134728 122.559777 
L 280.671435 116.144708 
L 283.533871 76.914146 
L 284.428382 67.79993 
L 284.965088 63.761325 
L 285.322893 62.284509 
L 285.501795 61.935663 
L 285.680697 61.891605 
L 285.859599 62.229121 
L 286.217404 64.258836 
L 286.575208 67.991125 
L 286.933013 73.786737 
L 287.46972 86.391583 
L 288.185328 108.522953 
L 289.974351 165.693461 
L 290.68996 181.724364 
L 291.226666 190.104052 
L 291.763373 194.984532 
L 291.942275 195.684729 
L 292.121177 195.868994 
L 292.30008 195.59672 
L 292.478982 194.908799 
L 292.836786 192.036826 
L 293.373493 183.563931 
L 294.089102 167.068367 
L 295.162515 141.500358 
L 295.699222 133.283894 
L 296.057026 129.947711 
L 296.414831 128.332011 
L 296.772635 127.73662 
L 296.951538 127.830069 
L 297.13044 128.31086 
L 297.488244 130.213133 
L 297.846049 133.212085 
L 298.382755 140.370775 
L 299.098364 153.671867 
L 300.35068 178.849744 
L 300.887387 184.921679 
L 301.245191 186.327913 
L 301.424093 186.012008 
L 301.781898 183.406973 
L 302.318604 176.899637 
L 303.392018 162.361771 
L 303.749822 159.319234 
L 304.107627 157.831122 
L 305.359942 154.079665 
L 305.896649 149.846709 
L 306.254453 145.468892 
L 306.970062 131.894926 
L 308.40128 101.919126 
L 308.759085 98.596864 
L 308.937987 98.065886 
L 309.116889 98.12547 
L 309.295791 98.540683 
L 309.653596 100.462023 
L 310.369205 105.241579 
L 310.548107 105.68463 
L 310.727009 105.813026 
L 310.905911 105.58205 
L 311.084814 105.001633 
L 311.442618 102.732714 
L 312.873836 92.324741 
L 313.052738 92.128724 
L 313.23164 92.233394 
L 313.410543 92.563552 
L 313.768347 94.110473 
L 314.483956 98.283613 
L 314.662858 98.699322 
L 314.84176 98.631318 
L 315.020663 98.049938 
L 315.378467 95.009314 
L 315.915174 86.167391 
L 316.630783 73.671178 
L 316.988587 70.448135 
L 317.167489 70.115177 
L 317.346392 70.502744 
L 317.704196 73.223978 
L 318.240903 80.958871 
L 319.135414 98.638764 
L 320.387729 125.158533 
L 321.461143 144.153648 
L 321.997849 160.936548 
L 322.892361 192.702998 
L 323.250165 199.504449 
L 323.429067 200.997085 
L 323.60797 201.297947 
L 323.786872 200.618199 
L 324.323578 196.176884 
L 325.21809 187.732427 
L 325.754796 179.725142 
L 326.82821 162.132528 
L 327.186014 158.723959 
L 328.080525 152.918858 
L 328.43833 145.918045 
L 328.975036 126.426182 
L 329.511743 106.040095 
L 329.869547 99.458069 
L 330.04845 98.9082 
L 330.227352 100.045693 
L 330.585156 106.878465 
L 331.121863 125.085154 
L 331.837472 149.42332 
L 332.553081 166.262487 
L 333.089788 176.461886 
L 333.447592 180.315859 
L 333.626494 181.046264 
L 333.805397 181.045352 
L 333.984299 180.453607 
L 334.521005 177.936178 
L 334.699908 178.036435 
L 334.87881 179.058875 
L 335.236614 183.34822 
L 336.310028 199.232146 
L 336.48893 200.252063 
L 336.667832 200.333914 
L 336.846734 199.302174 
L 337.204539 193.313718 
L 337.562343 181.879757 
L 338.456854 140.961594 
L 339.530268 93.753781 
L 339.888072 82.762356 
L 340.245877 77.250846 
L 340.424779 76.337152 
L 340.603681 76.289703 
L 341.31929 78.175405 
L 341.498192 77.505806 
L 341.855997 73.584889 
L 342.392703 62.721159 
L 343.108312 48.941734 
L 343.466117 45.466776 
L 343.645019 44.842157 
L 343.823921 45.179176 
L 344.002823 46.671299 
L 344.360628 52.639266 
L 345.255139 74.041978 
L 346.686357 110.778375 
L 346.865259 112.090234 
L 347.044161 112.352664 
L 347.223064 111.740071 
L 348.117575 105.682016 
L 348.296477 106.152677 
L 348.654281 109.512532 
L 349.190988 118.976788 
L 350.622206 150.494652 
L 350.98001 152.684173 
L 351.158913 152.873661 
L 351.337815 152.562611 
L 351.695619 150.40831 
L 352.053424 146.487647 
L 352.947935 133.256426 
L 353.126837 132.643848 
L 353.305739 133.484813 
L 353.663544 139.058506 
L 354.736957 164.506084 
L 354.915859 166.302034 
L 355.094762 166.773285 
L 355.273664 165.89685 
L 355.631468 160.875256 
L 356.525979 143.275293 
L 356.704882 141.711716 
L 356.883784 141.804148 
L 357.062686 143.699558 
L 357.420491 151.712098 
L 358.136099 170.383237 
L 358.672806 177.479664 
L 359.209513 182.036762 
L 359.388415 182.834674 
L 359.567317 182.912676 
L 359.74622 181.887635 
L 360.104024 175.93204 
L 360.819633 159.151169 
L 361.177437 155.081955 
L 361.35634 154.267562 
L 361.535242 154.114664 
L 361.714144 154.614451 
L 362.071948 157.015167 
L 362.787557 163.315337 
L 362.96646 163.254934 
L 363.145362 162.168806 
L 363.503166 157.776795 
L 364.218775 148.671148 
L 364.397677 147.736008 
L 364.57658 147.501636 
L 364.755482 147.870155 
L 365.113286 149.906925 
L 366.365602 159.604113 
L 366.723406 160.274184 
L 366.902309 160.934517 
L 367.260113 163.93487 
L 367.617918 167.417237 
L 367.79682 168.045199 
L 367.975722 167.274588 
L 368.333526 161.873012 
L 368.870233 152.915911 
L 369.049135 152.527252 
L 369.228038 153.726974 
L 369.764744 159.220203 
L 369.943647 158.701891 
L 370.122549 156.086227 
L 370.659255 140.089855 
L 371.195962 125.871672 
L 371.732669 112.019477 
L 372.448278 91.542381 
L 372.62718 90.180526 
L 372.806082 90.869583 
L 373.342789 97.133923 
L 373.521691 97.345857 
L 373.700593 95.490778 
L 374.058398 86.036846 
L 374.774007 62.657963 
L 375.131811 59.111861 
L 375.310713 58.256198 
L 375.489616 56.585616 
L 375.84742 48.662929 
L 376.205224 39.63497 
L 376.384127 37.840888 
L 376.563029 38.7458 
L 376.920833 46.666813 
L 377.45754 60.603609 
L 377.815345 64.112754 
L 377.994247 65.187717 
L 378.173149 67.353641 
L 378.530953 78.302127 
L 379.06766 101.257221 
L 379.246562 105.396123 
L 379.425465 106.893279 
L 379.604367 106.257397 
L 380.141073 100.804993 
L 380.319976 101.915196 
L 380.67778 112.601893 
L 381.214487 132.063704 
L 381.572291 135.805601 
L 381.751194 136.556345 
L 381.930096 138.513899 
L 382.108998 143.026669 
L 382.466802 161.196074 
L 383.003509 189.362081 
L 383.182411 191.633577 
L 383.361314 190.340007 
L 384.076922 179.242365 
L 384.434727 176.805308 
L 384.613629 174.502685 
L 384.971434 164.119612 
L 385.50814 142.377887 
L 385.687043 139.257695 
L 385.865945 139.476799 
L 386.044847 142.784745 
L 386.581554 158.643214 
L 386.760456 160.574975 
L 386.939358 159.378805 
L 387.833869 140.511746 
L 388.370576 125.223211 
L 388.907283 109.834528 
L 389.086185 107.192207 
L 389.265087 106.289844 
L 389.443989 106.908076 
L 389.801794 111.342019 
L 390.159598 120.273962 
L 390.517403 136.08329 
L 391.590816 194.247736 
L 391.948621 200.098227 
L 392.127523 200.027528 
L 392.485327 198.302942 
L 392.664229 196.825665 
L 393.022034 190.289349 
L 393.916545 166.142321 
L 394.095447 167.971561 
L 394.453252 179.191406 
L 394.811056 190.747608 
L 394.989958 194.023239 
L 395.168861 195.156439 
L 395.347763 193.86904 
L 395.705567 185.798338 
L 396.778981 154.410058 
L 397.852394 97.268526 
L 398.031296 97.885902 
L 398.568003 104.908816 
L 398.925807 106.697181 
L 399.10471 108.694332 
L 399.462514 118.01674 
L 400.178123 142.322439 
L 400.357025 142.061959 
L 400.71483 132.587607 
L 401.251536 116.870685 
L 401.430439 115.048177 
L 401.609341 115.452901 
L 401.967145 121.214006 
L 402.503852 130.630658 
L 403.219461 141.109983 
L 403.577265 150.039145 
L 404.113972 167.641473 
L 404.292874 168.895159 
L 404.471776 165.965227 
L 405.187385 142.352425 
L 405.54519 138.37782 
L 405.724092 134.765233 
L 406.081897 119.975019 
L 406.618603 93.192005 
L 406.976408 84.697962 
L 407.15531 83.871305 
L 407.513114 85.117696 
L 407.692017 84.589105 
L 408.049821 79.898833 
L 408.586528 70.071618 
L 409.481039 51.674462 
L 409.659941 51.160645 
L 409.838843 49.162913 
L 410.017746 44.118361 
L 410.554452 20.105561 
L 410.733354 17.49072 
L 410.912257 19.005699 
L 411.98567 44.312107 
L 412.343474 60.416091 
L 413.416888 128.779359 
L 414.132497 161.476529 
L 414.311399 164.083892 
L 414.490301 164.872127 
L 414.669203 166.545746 
L 415.027008 176.333591 
L 416.100421 212.889838 
L 417.173835 241.182249 
L 417.352737 240.661433 
L 417.710541 236.741973 
L 417.889444 232.942455 
L 418.247248 218.433085 
L 418.605052 203.405187 
L 419.141759 190.220188 
L 421.109684 96.134496 
L 421.467488 77.374634 
L 421.64639 72.897678 
L 421.825293 72.512379 
L 422.361999 78.527199 
L 422.361999 78.527199 
" clip-path="url(#p6e0c4b5b2a)" style="fill: none; stroke: #009afa"/>
   </g>
   <g id="matplotlib.axis_1">
    <g id="xtick_1">
     <g id="line2d_2">
      <defs>
       <path id="m584b23a150" d="M 0 0 
L 0 -2.5 
" style="stroke: #000000; stroke-width: 0.5"/>
      </defs>
      <g>
       <use xlink:href="#m584b23a150" x="64.557544" y="258.225354" style="stroke: #000000; stroke-width: 0.5"/>
      </g>
     </g>
     <g id="text_1">
      <!-- $0.0$ -->
      <g transform="translate(58.157544 267.804104)scale(0.08 -0.08)">
       <defs>
        <path id="DejaVuSans-30" d="M 2034 4250 
Q 1547 4250 1301 3770 
Q 1056 3291 1056 2328 
Q 1056 1369 1301 889 
Q 1547 409 2034 409 
Q 2525 409 2770 889 
Q 3016 1369 3016 2328 
Q 3016 3291 2770 3770 
Q 2525 4250 2034 4250 
z
M 2034 4750 
Q 2819 4750 3233 4129 
Q 3647 3509 3647 2328 
Q 3647 1150 3233 529 
Q 2819 -91 2034 -91 
Q 1250 -91 836 529 
Q 422 1150 422 2328 
Q 422 3509 836 4129 
Q 1250 4750 2034 4750 
z
" transform="scale(0.015625)"/>
        <path id="DejaVuSans-2e" d="M 684 794 
L 1344 794 
L 1344 0 
L 684 0 
L 684 794 
z
" transform="scale(0.015625)"/>
       </defs>
       <use xlink:href="#DejaVuSans-30" transform="translate(0 0.78125)"/>
       <use xlink:href="#DejaVuSans-2e" transform="translate(63.623047 0.78125)"/>
       <use xlink:href="#DejaVuSans-30" transform="translate(95.410156 0.78125)"/>
      </g>
     </g>
    </g>
    <g id="xtick_2">
     <g id="line2d_3">
      <g>
       <use xlink:href="#m584b23a150" x="154.008658" y="258.225354" style="stroke: #000000; stroke-width: 0.5"/>
      </g>
     </g>
     <g id="text_2">
      <!-- $0.5$ -->
      <g transform="translate(147.608658 267.804104)scale(0.08 -0.08)">
       <defs>
        <path id="DejaVuSans-35" d="M 691 4666 
L 3169 4666 
L 3169 4134 
L 1269 4134 
L 1269 2991 
Q 1406 3038 1543 3061 
Q 1681 3084 1819 3084 
Q 2600 3084 3056 2656 
Q 3513 2228 3513 1497 
Q 3513 744 3044 326 
Q 2575 -91 1722 -91 
Q 1428 -91 1123 -41 
Q 819 9 494 109 
L 494 744 
Q 775 591 1075 516 
Q 1375 441 1709 441 
Q 2250 441 2565 725 
Q 2881 1009 2881 1497 
Q 2881 1984 2565 2268 
Q 2250 2553 1709 2553 
Q 1456 2553 1204 2497 
Q 953 2441 691 2322 
L 691 4666 
z
" transform="scale(0.015625)"/>
       </defs>
       <use xlink:href="#DejaVuSans-30" transform="translate(0 0.78125)"/>
       <use xlink:href="#DejaVuSans-2e" transform="translate(63.623047 0.78125)"/>
       <use xlink:href="#DejaVuSans-35" transform="translate(95.410156 0.78125)"/>
      </g>
     </g>
    </g>
    <g id="xtick_3">
     <g id="line2d_4">
      <g>
       <use xlink:href="#m584b23a150" x="243.459771" y="258.225354" style="stroke: #000000; stroke-width: 0.5"/>
      </g>
     </g>
     <g id="text_3">
      <!-- $1.0$ -->
      <g transform="translate(237.059771 267.804104)scale(0.08 -0.08)">
       <defs>
        <path id="DejaVuSans-31" d="M 794 531 
L 1825 531 
L 1825 4091 
L 703 3866 
L 703 4441 
L 1819 4666 
L 2450 4666 
L 2450 531 
L 3481 531 
L 3481 0 
L 794 0 
L 794 531 
z
" transform="scale(0.015625)"/>
       </defs>
       <use xlink:href="#DejaVuSans-31" transform="translate(0 0.78125)"/>
       <use xlink:href="#DejaVuSans-2e" transform="translate(63.623047 0.78125)"/>
       <use xlink:href="#DejaVuSans-30" transform="translate(95.410156 0.78125)"/>
      </g>
     </g>
    </g>
    <g id="xtick_4">
     <g id="line2d_5">
      <g>
       <use xlink:href="#m584b23a150" x="332.910885" y="258.225354" style="stroke: #000000; stroke-width: 0.5"/>
      </g>
     </g>
     <g id="text_4">
      <!-- $1.5$ -->
      <g transform="translate(326.510885 267.804104)scale(0.08 -0.08)">
       <use xlink:href="#DejaVuSans-31" transform="translate(0 0.09375)"/>
       <use xlink:href="#DejaVuSans-2e" transform="translate(63.623047 0.09375)"/>
       <use xlink:href="#DejaVuSans-35" transform="translate(95.410156 0.09375)"/>
      </g>
     </g>
    </g>
    <g id="xtick_5">
     <g id="line2d_6">
      <g>
       <use xlink:href="#m584b23a150" x="422.361999" y="258.225354" style="stroke: #000000; stroke-width: 0.5"/>
      </g>
     </g>
     <g id="text_5">
      <!-- $2.0$ -->
      <g transform="translate(415.961999 267.804104)scale(0.08 -0.08)">
       <defs>
        <path id="DejaVuSans-32" d="M 1228 531 
L 3431 531 
L 3431 0 
L 469 0 
L 469 531 
Q 828 903 1448 1529 
Q 2069 2156 2228 2338 
Q 2531 2678 2651 2914 
Q 2772 3150 2772 3378 
Q 2772 3750 2511 3984 
Q 2250 4219 1831 4219 
Q 1534 4219 1204 4116 
Q 875 4013 500 3803 
L 500 4441 
Q 881 4594 1212 4672 
Q 1544 4750 1819 4750 
Q 2544 4750 2975 4387 
Q 3406 4025 3406 3419 
Q 3406 3131 3298 2873 
Q 3191 2616 2906 2266 
Q 2828 2175 2409 1742 
Q 1991 1309 1228 531 
z
" transform="scale(0.015625)"/>
       </defs>
       <use xlink:href="#DejaVuSans-32" transform="translate(0 0.78125)"/>
       <use xlink:href="#DejaVuSans-2e" transform="translate(63.623047 0.78125)"/>
       <use xlink:href="#DejaVuSans-30" transform="translate(95.410156 0.78125)"/>
      </g>
     </g>
    </g>
    <g id="text_6">
     <!-- Time (s) -->
     <g transform="translate(221.097975 281.826136)scale(0.11 -0.11)">
      <defs>
       <path id="DejaVuSans-54" d="M -19 4666 
L 3928 4666 
L 3928 4134 
L 2272 4134 
L 2272 0 
L 1638 0 
L 1638 4134 
L -19 4134 
L -19 4666 
z
" transform="scale(0.015625)"/>
       <path id="DejaVuSans-69" d="M 603 3500 
L 1178 3500 
L 1178 0 
L 603 0 
L 603 3500 
z
M 603 4863 
L 1178 4863 
L 1178 4134 
L 603 4134 
L 603 4863 
z
" transform="scale(0.015625)"/>
       <path id="DejaVuSans-6d" d="M 3328 2828 
Q 3544 3216 3844 3400 
Q 4144 3584 4550 3584 
Q 5097 3584 5394 3201 
Q 5691 2819 5691 2113 
L 5691 0 
L 5113 0 
L 5113 2094 
Q 5113 2597 4934 2840 
Q 4756 3084 4391 3084 
Q 3944 3084 3684 2787 
Q 3425 2491 3425 1978 
L 3425 0 
L 2847 0 
L 2847 2094 
Q 2847 2600 2669 2842 
Q 2491 3084 2119 3084 
Q 1678 3084 1418 2786 
Q 1159 2488 1159 1978 
L 1159 0 
L 581 0 
L 581 3500 
L 1159 3500 
L 1159 2956 
Q 1356 3278 1631 3431 
Q 1906 3584 2284 3584 
Q 2666 3584 2933 3390 
Q 3200 3197 3328 2828 
z
" transform="scale(0.015625)"/>
       <path id="DejaVuSans-65" d="M 3597 1894 
L 3597 1613 
L 953 1613 
Q 991 1019 1311 708 
Q 1631 397 2203 397 
Q 2534 397 2845 478 
Q 3156 559 3463 722 
L 3463 178 
Q 3153 47 2828 -22 
Q 2503 -91 2169 -91 
Q 1331 -91 842 396 
Q 353 884 353 1716 
Q 353 2575 817 3079 
Q 1281 3584 2069 3584 
Q 2775 3584 3186 3129 
Q 3597 2675 3597 1894 
z
M 3022 2063 
Q 3016 2534 2758 2815 
Q 2500 3097 2075 3097 
Q 1594 3097 1305 2825 
Q 1016 2553 972 2059 
L 3022 2063 
z
" transform="scale(0.015625)"/>
       <path id="DejaVuSans-20" transform="scale(0.015625)"/>
       <path id="DejaVuSans-28" d="M 1984 4856 
Q 1566 4138 1362 3434 
Q 1159 2731 1159 2009 
Q 1159 1288 1364 580 
Q 1569 -128 1984 -844 
L 1484 -844 
Q 1016 -109 783 600 
Q 550 1309 550 2009 
Q 550 2706 781 3412 
Q 1013 4119 1484 4856 
L 1984 4856 
z
" transform="scale(0.015625)"/>
       <path id="DejaVuSans-73" d="M 2834 3397 
L 2834 2853 
Q 2591 2978 2328 3040 
Q 2066 3103 1784 3103 
Q 1356 3103 1142 2972 
Q 928 2841 928 2578 
Q 928 2378 1081 2264 
Q 1234 2150 1697 2047 
L 1894 2003 
Q 2506 1872 2764 1633 
Q 3022 1394 3022 966 
Q 3022 478 2636 193 
Q 2250 -91 1575 -91 
Q 1294 -91 989 -36 
Q 684 19 347 128 
L 347 722 
Q 666 556 975 473 
Q 1284 391 1588 391 
Q 1994 391 2212 530 
Q 2431 669 2431 922 
Q 2431 1156 2273 1281 
Q 2116 1406 1581 1522 
L 1381 1569 
Q 847 1681 609 1914 
Q 372 2147 372 2553 
Q 372 3047 722 3315 
Q 1072 3584 1716 3584 
Q 2034 3584 2315 3537 
Q 2597 3491 2834 3397 
z
" transform="scale(0.015625)"/>
       <path id="DejaVuSans-29" d="M 513 4856 
L 1013 4856 
Q 1481 4119 1714 3412 
Q 1947 2706 1947 2009 
Q 1947 1309 1714 600 
Q 1481 -109 1013 -844 
L 513 -844 
Q 928 -128 1133 580 
Q 1338 1288 1338 2009 
Q 1338 2731 1133 3434 
Q 928 4138 513 4856 
z
" transform="scale(0.015625)"/>
      </defs>
      <use xlink:href="#DejaVuSans-54"/>
      <use xlink:href="#DejaVuSans-69" x="57.958984"/>
      <use xlink:href="#DejaVuSans-6d" x="85.742188"/>
      <use xlink:href="#DejaVuSans-65" x="183.154297"/>
      <use xlink:href="#DejaVuSans-20" x="244.677734"/>
      <use xlink:href="#DejaVuSans-28" x="276.464844"/>
      <use xlink:href="#DejaVuSans-73" x="315.478516"/>
      <use xlink:href="#DejaVuSans-29" x="367.578125"/>
     </g>
    </g>
   </g>
   <g id="matplotlib.axis_2">
    <g id="ytick_1">
     <g id="line2d_7">
      <defs>
       <path id="m2ae21c5bcc" d="M 0 0 
L 2.5 0 
" style="stroke: #000000; stroke-width: 0.5"/>
      </defs>
      <g>
       <use xlink:href="#m2ae21c5bcc" x="64.557544" y="231.715972" style="stroke: #000000; stroke-width: 0.5"/>
      </g>
     </g>
     <g id="text_7">
      <!-- $-4.0×10^{6}$ -->
      <g transform="translate(20.817544 234.755347)scale(0.08 -0.08)">
       <defs>
        <path id="DejaVuSans-2212" d="M 678 2272 
L 4684 2272 
L 4684 1741 
L 678 1741 
L 678 2272 
z
" transform="scale(0.015625)"/>
        <path id="DejaVuSans-34" d="M 2419 4116 
L 825 1625 
L 2419 1625 
L 2419 4116 
z
M 2253 4666 
L 3047 4666 
L 3047 1625 
L 3713 1625 
L 3713 1100 
L 3047 1100 
L 3047 0 
L 2419 0 
L 2419 1100 
L 313 1100 
L 313 1709 
L 2253 4666 
z
" transform="scale(0.015625)"/>
        <path id="DejaVuSans-d7" d="M 4488 3438 
L 3059 2003 
L 4488 575 
L 4116 197 
L 2681 1631 
L 1247 197 
L 878 575 
L 2303 2003 
L 878 3438 
L 1247 3816 
L 2681 2381 
L 4116 3816 
L 4488 3438 
z
" transform="scale(0.015625)"/>
        <path id="DejaVuSans-36" d="M 2113 2584 
Q 1688 2584 1439 2293 
Q 1191 2003 1191 1497 
Q 1191 994 1439 701 
Q 1688 409 2113 409 
Q 2538 409 2786 701 
Q 3034 994 3034 1497 
Q 3034 2003 2786 2293 
Q 2538 2584 2113 2584 
z
M 3366 4563 
L 3366 3988 
Q 3128 4100 2886 4159 
Q 2644 4219 2406 4219 
Q 1781 4219 1451 3797 
Q 1122 3375 1075 2522 
Q 1259 2794 1537 2939 
Q 1816 3084 2150 3084 
Q 2853 3084 3261 2657 
Q 3669 2231 3669 1497 
Q 3669 778 3244 343 
Q 2819 -91 2113 -91 
Q 1303 -91 875 529 
Q 447 1150 447 2328 
Q 447 3434 972 4092 
Q 1497 4750 2381 4750 
Q 2619 4750 2861 4703 
Q 3103 4656 3366 4563 
z
" transform="scale(0.015625)"/>
       </defs>
       <use xlink:href="#DejaVuSans-2212" transform="translate(0 0.765625)"/>
       <use xlink:href="#DejaVuSans-34" transform="translate(83.789062 0.765625)"/>
       <use xlink:href="#DejaVuSans-2e" transform="translate(147.412109 0.765625)"/>
       <use xlink:href="#DejaVuSans-30" transform="translate(179.199219 0.765625)"/>
       <use xlink:href="#DejaVuSans-d7" transform="translate(242.822266 0.765625)"/>
       <use xlink:href="#DejaVuSans-31" transform="translate(326.611328 0.765625)"/>
       <use xlink:href="#DejaVuSans-30" transform="translate(390.234375 0.765625)"/>
       <use xlink:href="#DejaVuSans-36" transform="translate(454.814453 39.046875)scale(0.7)"/>
      </g>
     </g>
    </g>
    <g id="ytick_2">
     <g id="line2d_8">
      <g>
       <use xlink:href="#m2ae21c5bcc" x="64.557544" y="182.429241" style="stroke: #000000; stroke-width: 0.5"/>
      </g>
     </g>
     <g id="text_8">
      <!-- $-2.0×10^{6}$ -->
      <g transform="translate(20.817544 185.468616)scale(0.08 -0.08)">
       <use xlink:href="#DejaVuSans-2212" transform="translate(0 0.765625)"/>
       <use xlink:href="#DejaVuSans-32" transform="translate(83.789062 0.765625)"/>
       <use xlink:href="#DejaVuSans-2e" transform="translate(147.412109 0.765625)"/>
       <use xlink:href="#DejaVuSans-30" transform="translate(179.199219 0.765625)"/>
       <use xlink:href="#DejaVuSans-d7" transform="translate(242.822266 0.765625)"/>
       <use xlink:href="#DejaVuSans-31" transform="translate(326.611328 0.765625)"/>
       <use xlink:href="#DejaVuSans-30" transform="translate(390.234375 0.765625)"/>
       <use xlink:href="#DejaVuSans-36" transform="translate(454.814453 39.046875)scale(0.7)"/>
      </g>
     </g>
    </g>
    <g id="ytick_3">
     <g id="line2d_9">
      <g>
       <use xlink:href="#m2ae21c5bcc" x="64.557544" y="133.142509" style="stroke: #000000; stroke-width: 0.5"/>
      </g>
     </g>
     <g id="text_9">
      <!-- $0$ -->
      <g transform="translate(55.937544 136.181884)scale(0.08 -0.08)">
       <use xlink:href="#DejaVuSans-30" transform="translate(0 0.78125)"/>
      </g>
     </g>
    </g>
    <g id="ytick_4">
     <g id="line2d_10">
      <g>
       <use xlink:href="#m2ae21c5bcc" x="64.557544" y="83.855777" style="stroke: #000000; stroke-width: 0.5"/>
      </g>
     </g>
     <g id="text_10">
      <!-- $2.0×10^{6}$ -->
      <g transform="translate(27.537544 86.895152)scale(0.08 -0.08)">
       <use xlink:href="#DejaVuSans-32" transform="translate(0 0.765625)"/>
       <use xlink:href="#DejaVuSans-2e" transform="translate(63.623047 0.765625)"/>
       <use xlink:href="#DejaVuSans-30" transform="translate(95.410156 0.765625)"/>
       <use xlink:href="#DejaVuSans-d7" transform="translate(159.033203 0.765625)"/>
       <use xlink:href="#DejaVuSans-31" transform="translate(242.822266 0.765625)"/>
       <use xlink:href="#DejaVuSans-30" transform="translate(306.445312 0.765625)"/>
       <use xlink:href="#DejaVuSans-36" transform="translate(371.025391 39.046875)scale(0.7)"/>
      </g>
     </g>
    </g>
    <g id="ytick_5">
     <g id="line2d_11">
      <g>
       <use xlink:href="#m2ae21c5bcc" x="64.557544" y="34.569045" style="stroke: #000000; stroke-width: 0.5"/>
      </g>
     </g>
     <g id="text_11">
      <!-- $4.0×10^{6}$ -->
      <g transform="translate(27.537544 37.60842)scale(0.08 -0.08)">
       <use xlink:href="#DejaVuSans-34" transform="translate(0 0.765625)"/>
       <use xlink:href="#DejaVuSans-2e" transform="translate(63.623047 0.765625)"/>
       <use xlink:href="#DejaVuSans-30" transform="translate(95.410156 0.765625)"/>
       <use xlink:href="#DejaVuSans-d7" transform="translate(159.033203 0.765625)"/>
       <use xlink:href="#DejaVuSans-31" transform="translate(242.822266 0.765625)"/>
       <use xlink:href="#DejaVuSans-30" transform="translate(306.445312 0.765625)"/>
       <use xlink:href="#DejaVuSans-36" transform="translate(371.025391 39.046875)scale(0.7)"/>
      </g>
     </g>
    </g>
    <g id="text_12">
     <!-- $F_x$ ($N$) -->
     <g transform="translate(14.529888 146.315)rotate(-90)scale(0.11 -0.11)">
      <defs>
       <path id="DejaVuSans-Oblique-46" d="M 1081 4666 
L 3756 4666 
L 3653 4134 
L 1606 4134 
L 1338 2759 
L 3188 2759 
L 3084 2228 
L 1234 2228 
L 800 0 
L 172 0 
L 1081 4666 
z
" transform="scale(0.015625)"/>
       <path id="DejaVuSans-Oblique-78" d="M 3841 3500 
L 2234 1784 
L 3219 0 
L 2559 0 
L 1819 1388 
L 531 0 
L -166 0 
L 1556 1844 
L 641 3500 
L 1300 3500 
L 1972 2234 
L 3144 3500 
L 3841 3500 
z
" transform="scale(0.015625)"/>
       <path id="DejaVuSans-Oblique-4e" d="M 1081 4666 
L 1931 4666 
L 3219 666 
L 4000 4666 
L 4616 4666 
L 3706 0 
L 2853 0 
L 1569 4025 
L 788 0 
L 172 0 
L 1081 4666 
z
" transform="scale(0.015625)"/>
      </defs>
      <use xlink:href="#DejaVuSans-Oblique-46" transform="translate(0 0.125)"/>
      <use xlink:href="#DejaVuSans-Oblique-78" transform="translate(57.519531 -16.28125)scale(0.7)"/>
      <use xlink:href="#DejaVuSans-20" transform="translate(101.679688 0.125)"/>
      <use xlink:href="#DejaVuSans-28" transform="translate(133.466797 0.125)"/>
      <use xlink:href="#DejaVuSans-Oblique-4e" transform="translate(172.480469 0.125)"/>
      <use xlink:href="#DejaVuSans-29" transform="translate(247.285156 0.125)"/>
     </g>
    </g>
   </g>
   <g id="line2d_12">
    <path d="M 64.557544 133.142509 
L 70.467112 133.032181 
L 71.127401 133.001046 
L 72.704855 132.891888 
L 73.383063 132.826939 
L 74.974575 132.755285 
L 75.458949 132.675967 
L 75.943322 132.694938 
L 76.57338 132.612076 
L 77.209597 132.611764 
L 77.995084 132.644588 
L 79.284038 132.665307 
L 80.071644 132.6196 
L 80.484909 132.647345 
L 81.110072 132.590663 
L 81.575524 132.642994 
L 82.117681 132.550742 
L 83.09623 132.535201 
L 83.629227 132.617503 
L 87.177894 133.061515 
L 87.641407 133.064312 
L 88.423977 133.155427 
L 90.023829 133.121656 
L 90.578054 133.06932 
L 90.957971 133.050525 
L 91.827755 132.895793 
L 94.206268 132.574252 
L 95.610808 132.684926 
L 96.813862 133.113908 
L 100.163155 134.951306 
L 101.308291 135.264082 
L 102.148616 135.264059 
L 102.684493 135.093226 
L 102.963641 135.018 
L 104.199271 134.047676 
L 104.86983 133.233539 
L 105.372749 132.67036 
L 106.210949 131.553834 
L 108.316383 129.208756 
L 109.33347 128.804787 
L 110.203295 129.039956 
L 110.568021 129.301934 
L 111.75672 130.685682 
L 113.740719 134.244249 
L 115.652211 137.522917 
L 116.267843 138.196663 
L 117.150609 138.867456 
L 117.85714 138.943995 
L 118.345229 138.845718 
L 118.836847 138.489816 
L 119.618854 137.676186 
L 122.692151 133.487358 
L 123.266765 132.915106 
L 124.415991 132.211439 
L 125.535916 132.008755 
L 127.368065 131.902975 
L 128.034077 131.626885 
L 128.935809 131.010484 
L 129.386674 130.514554 
L 130.970432 128.144014 
L 131.687491 126.871943 
L 132.66788 125.077249 
L 133.403171 123.950189 
L 134.138462 123.211715 
L 134.628656 123.099388 
L 135.11885 123.075617 
L 135.363947 123.209983 
L 136.344336 124.389314 
L 137.229532 126.558041 
L 137.778189 128.249195 
L 140.959871 139.983708 
L 142.128866 142.845912 
L 142.817487 143.741471 
L 143.174166 143.996982 
L 143.557457 143.94444 
L 144.271879 143.730453 
L 145.718107 142.318145 
L 146.409123 141.476152 
L 147.693042 140.334445 
L 148.741404 140.145631 
L 149.294564 140.392816 
L 150.73351 141.390277 
L 151.376908 141.581686 
L 152.020307 141.6355 
L 152.342006 141.538302 
L 153.307103 140.788524 
L 153.950501 139.776409 
L 154.593899 138.414355 
L 155.407577 135.91389 
L 156.430204 132.104475 
L 159.716756 118.554882 
L 160.888061 115.092865 
L 161.81371 113.43976 
L 162.426347 112.968062 
L 162.730879 112.896716 
L 163.211768 113.097491 
L 163.651851 113.445914 
L 164.119528 114.230146 
L 164.852114 115.772298 
L 165.463416 117.735011 
L 166.395514 121.334617 
L 168.955546 134.091867 
L 169.974582 139.006159 
L 170.958572 143.145219 
L 171.808641 145.781463 
L 172.254769 146.631019 
L 173.176047 147.816301 
L 173.911785 148.070747 
L 174.717554 148.151704 
L 175.278605 147.790193 
L 175.839655 147.545216 
L 177.01573 146.683125 
L 178.353728 146.18852 
L 178.985544 146.095134 
L 179.61935 145.864098 
L 180.292329 145.623936 
L 181.642949 144.881947 
L 182.659409 143.745049 
L 183.337049 142.312037 
L 184.140945 140.014069 
L 185.290766 135.268963 
L 186.040193 131.340416 
L 187.14859 124.649044 
L 189.978543 106.391611 
L 190.933459 101.901175 
L 191.649791 99.428386 
L 192.210236 98.452038 
L 192.53049 98.105121 
L 192.770681 98.169558 
L 193.090936 98.618792 
L 193.491254 99.537577 
L 193.971636 101.39643 
L 194.452235 104.231222 
L 195.256945 110.608198 
L 196.16779 120.280401 
L 199.142524 153.110921 
L 199.781672 157.242401 
L 200.202498 158.70552 
L 200.591951 159.338335 
L 200.828986 159.372498 
L 201.066021 159.119736 
L 201.382521 158.297346 
L 201.889777 156.057654 
L 202.39524 153.090707 
L 205.056039 134.619285 
L 205.407414 133.480878 
L 205.777231 133.053815 
L 205.96214 133.068722 
L 206.175648 133.335364 
L 206.624114 134.636088 
L 207.131366 137.510794 
L 207.992218 144.375302 
L 209.522456 157.902305 
L 210.134551 161.845422 
L 210.746646 164.349841 
L 211.052693 164.973608 
L 211.35874 165.073054 
L 211.664788 164.756011 
L 212.065025 163.771862 
L 212.465262 161.865126 
L 213.075742 157.743359 
L 213.896465 150.107458 
L 216.661216 121.305897 
L 217.361143 116.479038 
L 218.035406 113.239738 
L 218.703456 111.24087 
L 219.269398 110.304441 
L 219.907248 109.492349 
L 220.499788 108.967835 
L 221.83136 107.004358 
L 222.909171 104.499058 
L 224.990445 98.82012 
L 225.289376 98.573354 
L 225.519204 98.686466 
L 225.831028 99.125271 
L 226.147322 99.934394 
L 226.557636 101.783582 
L 227.076566 105.255597 
L 227.76064 111.588365 
L 228.702176 123.032126 
L 231.523138 159.291155 
L 232.425996 167.344005 
L 232.932815 170.483498 
L 233.301141 171.803475 
L 233.679904 172.354031 
L 233.873089 172.273162 
L 234.066274 171.906173 
L 234.453335 170.294284 
L 235.046894 165.891948 
L 235.911738 157.302784 
L 237.06194 146.359499 
L 237.801193 141.3689 
L 238.314775 139.097032 
L 238.584642 138.456105 
L 238.86332 138.199314 
L 239.141998 138.228665 
L 239.423986 138.760718 
L 240.015395 141.551614 
L 240.620306 146.154989 
L 242.132585 158.822737 
L 242.43504 160.289404 
L 242.737496 161.029073 
L 243.039952 161.187956 
L 243.342407 160.759401 
L 243.644863 159.743336 
L 244.249774 156.580751 
L 244.854686 152.328601 
L 245.459597 146.759017 
L 246.064509 139.777195 
L 247.124029 123.535424 
L 249.079888 92.198122 
L 249.817898 84.140828 
L 250.408776 79.753586 
L 250.872927 77.6845 
L 251.270926 76.706532 
L 251.536258 76.453684 
L 251.781094 76.456655 
L 251.999097 76.642968 
L 252.279667 77.200276 
L 252.64862 78.603786 
L 253.136343 81.510759 
L 253.682771 86.312102 
L 254.376734 94.943343 
L 255.38066 110.610357 
L 257.885132 150.024716 
L 258.682762 159.881324 
L 259.174514 163.697576 
L 259.47178 164.806206 
L 259.658541 165.013456 
L 259.790322 164.954878 
L 259.998593 164.544156 
L 260.299122 163.2866 
L 260.791481 159.756916 
L 262.835218 142.908384 
L 263.318474 140.818516 
L 263.756957 139.926609 
L 264.004362 139.804279 
L 264.214001 140.017146 
L 264.529146 140.84227 
L 264.88433 142.574639 
L 265.3073 146.002875 
L 265.902513 152.615344 
L 267.265455 168.866989 
L 267.832274 172.748962 
L 268.120375 173.809257 
L 268.269793 174.0595 
L 268.428443 174.104102 
L 268.58982 173.948498 
L 268.917673 173.102832 
L 269.25458 171.330318 
L 269.928393 165.960902 
L 270.77066 157.071671 
L 273.046901 131.157737 
L 273.467284 128.958054 
L 273.786779 128.114008 
L 274.000262 127.97056 
L 274.213746 128.077642 
L 274.53397 128.552198 
L 274.960937 129.694717 
L 275.494645 131.02268 
L 276.124218 131.876595 
L 276.626395 132.185156 
L 278.004665 132.693159 
L 278.258654 132.548919 
L 278.628524 132.016127 
L 278.954746 131.112003 
L 279.317728 129.262022 
L 279.801373 125.527289 
L 280.363306 119.137859 
L 281.307143 105.760511 
L 282.472616 89.737271 
L 284.234298 68.933947 
L 284.952889 62.716372 
L 285.357126 60.845783 
L 285.528522 60.56794 
L 285.704221 60.683016 
L 285.881253 61.255434 
L 286.147964 62.99158 
L 286.5121 67.024954 
L 286.9822 75.49449 
L 287.572391 90.725014 
L 288.882373 132.72601 
L 290.077943 167.966 
L 290.813465 184.371464 
L 291.362587 192.936211 
L 291.729045 196.328633 
L 291.999185 197.359085 
L 292.142354 197.374144 
L 292.293458 197.016929 
L 292.607225 194.962387 
L 292.937009 190.738761 
L 293.446974 181.100888 
L 295.343451 138.422801 
L 295.866136 131.927546 
L 296.31898 128.446871 
L 296.597597 127.347168 
L 296.876214 126.926734 
L 297.015522 126.987549 
L 297.294139 127.838243 
L 297.572756 129.656954 
L 297.994203 134.083557 
L 298.570733 143.304989 
L 299.375184 160.940787 
L 300.282633 179.856504 
L 300.701663 185.006095 
L 300.960253 186.442071 
L 301.133062 186.642678 
L 301.251922 186.447834 
L 301.437018 185.641851 
L 301.762284 183.029224 
L 302.2997 176.616623 
L 303.338382 163.937542 
L 303.917476 159.568992 
L 304.513355 156.860411 
L 305.349681 152.978252 
L 305.785752 149.395655 
L 306.304481 142.642089 
L 306.983734 129.788535 
L 308.348107 102.368181 
L 308.697438 99.141283 
L 308.991641 98.191534 
L 309.142608 98.281296 
L 309.382598 99.193436 
L 310.596177 105.984732 
L 310.789597 106.032638 
L 310.983017 105.649737 
L 311.295169 104.253191 
L 311.730241 101.028916 
L 312.417317 95.897011 
L 312.878422 93.962461 
L 313.096927 93.738395 
L 313.303386 94.044847 
L 313.613073 95.308553 
L 314.468395 99.437827 
L 314.649885 99.594989 
L 314.831376 99.228393 
L 315.104133 97.465425 
L 315.469358 92.743079 
L 316.826618 71.268358 
L 317.096356 70.139748 
L 317.2364 70.180989 
L 317.388619 70.68429 
L 317.706832 73.048272 
L 318.188583 79.104998 
L 318.830917 91.028552 
L 320.439964 124.888056 
L 321.227678 137.243736 
L 321.630922 148.696587 
L 323.136359 198.339846 
L 323.423026 200.404917 
L 323.563922 200.618175 
L 323.767372 200.252896 
L 324.270063 198.004591 
L 324.686772 195.222913 
L 325.065759 191.1151 
L 325.477836 183.98953 
L 326.565164 164.269623 
L 326.957585 161.253921 
L 327.156915 160.749722 
L 327.356246 160.705953 
L 327.555577 160.647244 
L 327.754907 159.833056 
L 327.954238 157.571075 
L 328.257694 150.58941 
L 328.681967 134.204571 
L 329.453425 103.136177 
L 329.789203 96.865765 
L 330.013056 96.096957 
L 330.124982 96.784739 
L 330.351532 100.252769 
L 330.734262 111.136531 
L 332.416715 168.054243 
L 332.950458 178.317608 
L 333.259533 180.662943 
L 333.321348 180.730925 
L 333.383163 180.672789 
L 333.568608 179.871912 
L 334.34921 174.814266 
L 334.404553 174.871778 
L 334.524071 175.357736 
L 334.77949 177.984067 
L 335.260464 186.46314 
L 336.11166 201.414755 
L 336.452205 204.023494 
L 336.537341 204.129696 
L 336.622477 203.942289 
L 336.79275 202.549715 
L 337.048159 197.677176 
L 337.453536 183.763934 
L 338.396383 140.04078 
L 339.486204 89.932598 
L 339.848091 82.616709 
L 340.095543 80.730966 
L 340.225211 80.565221 
L 340.356591 80.836194 
L 340.987754 83.213368 
L 341.133149 82.799461 
L 341.353082 80.758129 
L 341.711311 74.132647 
L 343.18086 43.069561 
L 343.380043 42.520657 
L 343.522624 43.109296 
L 343.761718 45.483335 
L 344.295759 53.711452 
L 344.771167 64.373368 
L 345.573145 90.68071 
L 346.207153 107.830225 
L 346.488935 110.715993 
L 346.55938 110.863556 
L 346.629826 110.806462 
L 346.770716 110.164397 
L 347.122943 106.839844 
L 347.550877 103.286018 
L 347.875603 102.204292 
L 347.96328 102.151594 
L 348.052042 102.237332 
L 348.229666 102.991217 
L 348.424348 105.03108 
L 348.716373 110.769503 
L 350.119858 143.980088 
L 350.609134 150.193336 
L 350.889708 151.722473 
L 351.03297 151.842398 
L 351.180805 151.45601 
L 351.416098 149.688292 
L 351.746729 144.90952 
L 352.750501 128.24091 
L 352.846139 128.400088 
L 353.037415 130.223672 
L 353.386778 138.016054 
L 354.488055 167.48216 
L 354.749699 169.670895 
L 354.816746 169.692117 
L 354.95524 169.00753 
L 355.18011 165.913216 
L 355.602217 155.497554 
L 356.120542 143.968389 
L 356.379888 142.164367 
L 356.472703 142.230856 
L 356.658335 143.37319 
L 356.943726 147.252022 
L 357.741795 162.813759 
L 358.722374 182.884641 
L 358.964792 185.316594 
L 359.086 185.732403 
L 359.207209 185.586944 
L 359.449626 183.563019 
L 359.813251 176.112552 
L 360.661711 155.421287 
L 360.904128 153.646133 
L 361.028293 153.728138 
L 361.28468 155.436556 
L 362.058064 162.195388 
L 362.250677 162.35274 
L 362.446414 161.717082 
L 362.844134 159.065166 
L 363.74208 152.042794 
L 364.043077 151.047485 
L 364.244302 150.825941 
L 364.802177 150.943301 
L 364.921518 151.032058 
L 365.161578 151.688013 
L 365.521668 153.938528 
L 366.768325 164.047321 
L 367.277825 166.080328 
L 367.4052 166.255997 
L 367.532575 166.066496 
L 367.773285 164.161131 
L 368.514192 153.834903 
L 368.603152 154.21656 
L 368.78362 156.59176 
L 369.492742 168.980921 
L 369.617568 167.929626 
L 369.815844 163.522945 
L 370.397868 142.243781 
L 371.076365 121.465896 
L 372.107036 96.202631 
L 372.302379 94.317312 
L 372.400051 94.266562 
L 372.595394 95.885661 
L 373.083752 102.260408 
L 373.181835 102.295051 
L 373.378001 100.222012 
L 373.68664 92.186668 
L 374.221499 77.469887 
L 375.086546 62.229248 
L 376.064454 32.121852 
L 376.173111 32.749931 
L 376.390424 37.054164 
L 377.309005 61.715129 
L 377.768295 66.29326 
L 377.999526 72.168523 
L 378.808927 97.964176 
L 378.946391 98.507476 
L 378.980806 98.460954 
L 379.106871 97.805242 
L 379.58426 93.71693 
L 379.63647 93.741098 
L 379.742708 94.36496 
L 379.958819 98.048886 
L 380.790362 115.755033 
L 381.028254 116.807529 
L 381.200184 117.491987 
L 381.372115 119.707719 
L 381.63001 128.975702 
L 382.147801 164.129043 
L 382.556835 184.013761 
L 382.779045 187.90416 
L 382.853115 188.227325 
L 382.927185 188.167569 
L 383.149395 186.622964 
L 383.964165 178.830415 
L 384.334516 168.480066 
L 385.115994 142.415734 
L 385.190903 142.273545 
L 385.346319 143.926208 
L 385.678945 152.792402 
L 386.110762 162.347265 
L 386.283488 162.906583 
L 386.456215 161.78056 
L 386.919893 158.091673 
L 387.151732 156.683698 
L 387.383571 153.41733 
L 387.70519 144.631792 
L 388.277904 120.408104 
L 388.771335 102.730415 
L 389.024385 98.653829 
L 389.108735 98.229703 
L 389.193084 98.300188 
L 389.371377 100.026643 
L 389.67167 107.123206 
L 389.998557 120.906119 
L 391.293852 189.21772 
L 391.652381 193.679133 
L 391.8914 194.553111 
L 392.010909 193.930398 
L 392.249928 190.172682 
L 393.086494 171.879167 
L 393.206003 171.20477 
L 393.325513 171.389212 
L 393.564532 174.096508 
L 394.060458 184.876895 
L 394.481621 192.620729 
L 395.352389 199.836939 
L 395.497702 199.265426 
L 395.643016 196.3586 
L 395.933644 183.092742 
L 396.979955 118.360891 
L 397.433192 106.116497 
L 397.773119 102.573454 
L 397.886428 102.395848 
L 397.999738 102.739796 
L 398.226356 105.601394 
L 398.566283 116.130215 
L 399.021082 131.108928 
L 399.252739 134.290966 
L 399.368567 134.384437 
L 399.584526 132.12052 
L 400.055383 125.938178 
L 400.516268 124.174697 
L 401.291362 116.693754 
L 401.453484 116.380522 
L 401.541182 116.523786 
L 401.725087 117.68313 
L 402.011678 121.363291 
L 402.304051 127.519282 
L 402.596423 138.831209 
L 403.087636 158.671008 
L 403.302827 161.184129 
L 403.734757 162.27129 
L 404.23987 165.994837 
L 404.335995 165.410647 
L 404.528245 160.950964 
L 404.919316 140.418507 
L 405.324355 123.151319 
L 405.625126 118.399567 
L 406.062324 112.486247 
L 406.887816 96.789837 
L 407.484777 82.349717 
L 407.610615 81.784219 
L 407.66646 81.854657 
L 407.909099 83.099598 
L 408.012029 83.350356 
L 408.068341 83.259634 
L 408.190204 82.350937 
L 408.395404 78.407134 
L 408.786377 64.003038 
L 409.224379 49.537849 
L 409.794514 41.26377 
L 410.610652 10.062685 
L 410.726134 10.932549 
L 410.93285 15.761261 
L 411.353535 34.133374 
L 412.188121 73.467708 
L 412.713864 92.085317 
L 413.01894 103.576002 
L 413.818357 145.920512 
L 414.167935 148.677711 
L 414.372983 150.74591 
L 414.610469 156.660533 
L 414.964414 176.162882 
L 415.414961 198.767934 
L 416.524734 232.416241 
L 417.012552 249.901924 
L 417.117148 250.997315 
L 417.224445 250.212608 
L 417.44012 242.725866 
L 418.194983 204.398109 
L 418.410658 200.656986 
L 418.851089 197.484958 
L 419.089997 190.035889 
L 420.111436 137.839458 
L 420.96974 92.554327 
L 421.207921 84.255886 
L 421.366708 82.701338 
L 421.44618 82.606504 
L 421.525652 82.676266 
L 421.767706 83.161671 
L 421.930878 84.118144 
L 422.261089 86.5763 
L 422.361999 86.423715 
L 422.361999 86.423715 
" clip-path="url(#p6e0c4b5b2a)" style="fill: none; stroke: #e36f47"/>
   </g>
   <g id="patch_3">
    <path d="M 64.557544 258.225354 
L 64.557544 2.834646 
" style="fill: none; stroke: #000000; stroke-linejoin: miter; stroke-linecap: square"/>
   </g>
   <g id="patch_4">
    <path d="M 64.557544 258.225354 
L 422.361999 258.225354 
" style="fill: none; stroke: #000000; stroke-linejoin: miter; stroke-linecap: square"/>
   </g>
   <g id="line2d_13">
    <path d="M 64.557544 133.142509 
L 70.419485 133.033808 
L 71.916323 132.929678 
L 73.727543 132.8355 
L 80.266543 132.615108 
L 80.9299 132.604651 
L 81.512486 132.609983 
L 82.070676 132.579732 
L 82.659428 132.568292 
L 83.343528 132.562069 
L 83.933944 132.623314 
L 84.83855 132.674977 
L 89.085495 133.163774 
L 90.555936 133.0819 
L 95.128298 132.621628 
L 96.02701 132.819217 
L 97.059831 133.267231 
L 100.566139 135.1186 
L 101.560451 135.31054 
L 102.380992 135.203513 
L 103.130398 134.87791 
L 103.909214 134.28729 
L 105.001892 133.11511 
L 108.201237 129.326097 
L 108.996054 128.899823 
L 109.535504 128.835889 
L 110.042879 128.96098 
L 110.584648 129.296901 
L 111.426661 130.195661 
L 112.26652 131.447917 
L 113.684086 134.048668 
L 115.159238 136.769993 
L 116.077607 138.024834 
L 116.685963 138.569999 
L 117.393072 138.90622 
L 117.914912 138.947848 
L 118.440268 138.805462 
L 118.944798 138.490151 
L 119.701074 137.71265 
L 120.915106 135.981175 
L 122.320647 133.984225 
L 123.35445 132.893074 
L 124.291779 132.267699 
L 125.106258 131.984665 
L 126.325648 131.854213 
L 127.662656 131.676166 
L 128.459096 131.314537 
L 129.192583 130.712382 
L 129.928598 129.829184 
L 131.148798 127.895283 
L 133.320716 124.290629 
L 133.916374 123.605111 
L 134.50475 123.207196 
L 135.085165 123.159476 
L 135.581297 123.429161 
L 136.079926 124.007633 
L 136.611034 124.961489 
L 137.445682 127.099623 
L 138.510118 130.707428 
L 141.14675 140.46384 
L 141.999731 142.560393 
L 142.608562 143.515029 
L 143.167348 143.996228 
L 143.74063 144.123688 
L 144.206577 143.985887 
L 144.866663 143.486514 
L 145.796757 142.406144 
L 147.110707 140.892252 
L 147.918003 140.3442 
L 148.679935 140.195142 
L 149.446294 140.360797 
L 150.576465 140.935642 
L 151.495944 141.364765 
L 152.069731 141.449816 
L 152.679172 141.275706 
L 153.21507 140.836976 
L 153.793421 140.027246 
L 154.52619 138.496802 
L 155.331134 136.232171 
L 156.433722 132.347815 
L 158.002977 125.796573 
L 159.5158 119.524308 
L 160.408355 116.504242 
L 161.320985 114.25561 
L 162.052263 113.15591 
L 162.511088 112.810514 
L 163.005097 112.749101 
L 163.531803 113.048379 
L 164.032398 113.687374 
L 164.611224 114.855949 
L 165.415216 117.213012 
L 166.222165 120.338549 
L 167.383256 125.815039 
L 170.818805 142.840722 
L 171.574076 145.322044 
L 172.296688 146.922064 
L 172.803486 147.610056 
L 173.303877 147.985285 
L 173.818436 148.114148 
L 174.516832 147.984705 
L 175.545302 147.434609 
L 177.172275 146.492356 
L 178.17453 146.195883 
L 180.807545 145.739742 
L 181.582117 145.189824 
L 182.301184 144.299271 
L 183.048259 142.888114 
L 183.771801 140.987293 
L 184.630822 137.991785 
L 185.626716 133.49071 
L 186.689583 127.51989 
L 189.019397 112.35917 
L 190.158845 105.711044 
L 190.979533 101.901532 
L 191.661246 99.640406 
L 192.128417 98.697473 
L 192.389035 98.422018 
L 192.648655 98.344557 
L 192.908605 98.477566 
L 193.170615 98.837337 
L 193.699455 100.295279 
L 194.173027 102.460808 
L 194.74652 106.19459 
L 195.408265 111.899671 
L 196.372246 122.250578 
L 198.915983 150.877535 
L 199.522592 155.458725 
L 200.106471 158.319064 
L 200.490192 159.280866 
L 200.686752 159.482148 
L 200.862206 159.495082 
L 201.034184 159.356779 
L 201.408215 158.557354 
L 201.761017 157.219609 
L 202.347326 153.949816 
L 203.290974 146.969043 
L 204.499741 138.033222 
L 205.185428 134.587491 
L 205.647773 133.404703 
L 205.94269 133.214432 
L 206.205198 133.434259 
L 206.50719 134.143297 
L 206.959917 136.084099 
L 207.515834 139.720703 
L 208.452854 147.839714 
L 209.634103 158.078837 
L 210.231973 161.824077 
L 210.708027 163.739536 
L 211.065749 164.495711 
L 211.415367 164.656221 
L 211.738287 164.299351 
L 212.084427 163.389403 
L 212.448884 161.861502 
L 213.031166 158.28693 
L 213.833996 151.406286 
L 215.07056 138.177773 
L 216.406672 124.36105 
L 217.224931 117.909858 
L 217.896901 114.144882 
L 218.543087 111.743713 
L 219.126995 110.34281 
L 219.907269 109.090348 
L 221.663489 106.554375 
L 222.501412 104.831829 
L 223.59939 101.980128 
L 224.560442 99.629891 
L 224.933437 99.039247 
L 225.326755 98.795808 
L 225.59868 98.927101 
L 225.906018 99.451322 
L 226.22973 100.483127 
L 226.708032 102.95706 
L 227.324624 107.772934 
L 228.075413 115.726126 
L 229.200524 130.348153 
L 230.98017 153.448682 
L 231.83602 161.887194 
L 232.575781 167.154877 
L 233.171013 169.782399 
L 233.501543 170.520549 
L 233.795669 170.687362 
L 233.957622 170.566495 
L 234.280643 169.847356 
L 234.713815 167.863482 
L 235.256705 163.85892 
L 236.305413 153.549829 
L 237.120306 146.372306 
L 237.71049 142.7475 
L 238.301769 140.516046 
L 238.749618 139.732655 
L 239.039385 139.663253 
L 239.31942 139.947039 
L 239.60151 140.599935 
L 239.999635 142.157892 
L 240.57347 145.610305 
L 242.69781 160.371441 
L 242.958983 160.916999 
L 243.203141 160.977936 
L 243.434051 160.634847 
L 243.805129 159.319346 
L 244.244445 156.737727 
L 244.906488 151.409919 
L 245.832779 142.102364 
L 246.665224 131.452705 
L 247.724929 114.528935 
L 249.187762 91.468999 
L 249.931609 83.108804 
L 250.482979 79.187549 
L 250.935571 77.434971 
L 251.327553 76.826511 
L 251.60688 76.807902 
L 251.896579 77.090458 
L 252.315878 77.984609 
L 252.798395 79.771296 
L 253.268458 82.489307 
L 253.762643 86.599097 
L 254.48674 95.101861 
L 255.227143 106.544214 
L 257.752227 147.871887 
L 258.68443 158.715426 
L 259.287417 163.488084 
L 259.583347 164.812008 
L 259.890887 165.304053 
L 260.043329 165.197101 
L 260.331564 164.36889 
L 260.727202 162.01786 
L 261.333013 156.455948 
L 262.654372 143.524285 
L 263.210483 140.379788 
L 263.585724 139.386704 
L 263.79165 139.233576 
L 264.038248 139.408582 
L 264.313282 140.048956 
L 264.758055 142.0208 
L 265.264681 145.533951 
L 266.011928 152.811635 
L 267.795718 172.034879 
L 268.247925 174.262503 
L 268.51474 174.707773 
L 268.642671 174.685774 
L 268.892191 174.208135 
L 269.281398 172.373756 
L 269.807824 168.106365 
L 270.657738 158.725177 
L 272.498196 138.249975 
L 273.366658 130.888439 
L 273.864936 128.279518 
L 274.245001 127.377206 
L 274.475512 127.301291 
L 274.717565 127.56263 
L 275.078547 128.439186 
L 276.277164 131.829788 
L 276.648093 132.234818 
L 277.036588 132.307958 
L 277.450748 132.090627 
L 277.972288 131.467784 
L 278.51988 130.364772 
L 278.965076 128.980695 
L 279.507362 126.400579 
L 280.117617 121.961442 
L 280.716746 115.768548 
L 281.530579 104.677408 
L 283.185246 81.122978 
L 284.175087 70.481936 
L 284.800279 65.509672 
L 285.198435 63.566059 
L 285.496441 62.993571 
L 285.629145 63.022206 
L 285.763921 63.245351 
L 286.065269 64.504973 
L 286.361911 66.841113 
L 286.871946 73.572826 
L 287.392508 84.084004 
L 288.13994 105.028675 
L 290.353993 174.440706 
L 290.962428 186.210611 
L 291.406291 191.701129 
L 291.705161 193.830519 
L 291.994077 194.657925 
L 292.156403 194.592507 
L 292.314849 194.166392 
L 292.64814 192.135633 
L 292.999462 188.427737 
L 293.623388 178.414392 
L 294.490839 159.627119 
L 295.501716 138.313127 
L 295.991461 131.440184 
L 296.442032 128.039748 
L 296.675915 127.383351 
L 296.791368 127.32212 
L 296.927216 127.459175 
L 297.190763 128.327884 
L 297.568738 130.829111 
L 298.008555 135.415825 
L 298.647366 144.953136 
L 300.800362 181.334882 
L 301.167801 183.459039 
L 301.413936 183.753103 
L 301.555303 183.514654 
L 301.833643 182.224288 
L 302.247406 178.567006 
L 303.09617 167.600151 
L 303.855716 159.049288 
L 304.336658 156.01199 
L 304.691098 154.92148 
L 305.504752 153.256488 
L 305.828606 151.554006 
L 306.21976 147.840839 
L 306.616448 141.885951 
L 307.293173 127.430718 
L 308.392494 103.519084 
L 308.822085 98.600533 
L 309.097968 97.385456 
L 309.259341 97.34844 
L 309.450021 97.857849 
L 309.764163 99.654975 
L 310.579584 104.9844 
L 310.781845 105.498816 
L 310.8851 105.561866 
L 311.086171 105.278185 
L 311.297702 104.41794 
L 311.628284 102.081898 
L 312.926653 91.020066 
L 313.157265 90.378529 
L 313.263981 90.29726 
L 313.387925 90.369882 
L 313.604835 90.903077 
L 314.030344 93.052159 
L 314.648388 96.324815 
L 314.909377 96.720107 
L 315.041185 96.541996 
L 315.271503 95.53212 
L 315.609096 92.400904 
L 316.160225 84.072024 
L 316.897896 73.292618 
L 317.202225 71.252167 
L 317.395711 71.023783 
L 317.575417 71.58875 
L 317.879902 74.182621 
L 318.317548 80.941475 
L 319.057828 97.093407 
L 320.349518 125.565772 
L 321.672354 150.852027 
L 322.38154 173.59315 
L 323.05731 193.119491 
L 323.452942 198.82036 
L 323.667678 199.907203 
L 323.778578 199.991719 
L 323.89205 199.790106 
L 324.118951 198.674608 
L 324.537147 194.974179 
L 325.246751 186.227438 
L 327.207072 159.694056 
L 327.998552 153.054132 
L 328.357022 146.925731 
L 328.776148 135.256057 
L 329.749996 105.146312 
L 330.05124 102.183298 
L 330.122332 102.167004 
L 330.24605 102.759937 
L 330.48226 105.955889 
L 330.820668 114.439308 
L 332.549828 165.429092 
L 333.12316 173.783925 
L 333.527528 177.062113 
L 333.764173 177.858048 
L 333.998608 177.994052 
L 334.41612 177.824946 
L 334.55598 178.041578 
L 334.756284 178.866383 
L 335.009542 180.940417 
L 335.458093 186.921838 
L 336.20819 196.874784 
L 336.480707 198.502879 
L 336.570674 198.651154 
L 336.662451 198.567031 
L 336.841075 197.637474 
L 337.103433 194.166531 
L 337.419818 186.336387 
L 337.925653 166.840848 
L 339.738042 91.109846 
L 340.112253 83.153044 
L 340.508743 79.116026 
L 340.779705 78.10369 
L 341.272718 77.115389 
L 341.537347 75.671509 
L 341.805839 72.837651 
L 342.322046 63.977511 
L 343.109819 50.473188 
L 343.491308 47.01572 
L 343.661251 46.5514 
L 343.709874 46.564698 
L 343.818774 46.844364 
L 343.994618 48.022135 
L 344.301348 51.989931 
L 344.833156 62.587525 
L 345.626101 83.241913 
L 346.410295 102.458428 
L 346.798515 107.733469 
L 347.093886 109.20901 
L 347.247195 109.214727 
L 347.457172 108.671885 
L 347.919534 107.393054 
L 348.053274 107.483006 
L 348.258867 108.26074 
L 348.55681 110.780979 
L 348.970901 116.710916 
L 349.538252 128.612588 
L 350.400255 146.902558 
L 350.829783 151.84614 
L 351.125301 153.182106 
L 351.27832 153.206005 
L 351.453711 152.675162 
L 351.695481 151.013693 
L 352.082941 146.402444 
L 352.898552 135.901925 
L 353.124497 135.30859 
L 353.298195 136.026032 
L 353.563307 139.083405 
L 354.062292 149.32257 
L 354.650214 160.635888 
L 354.910008 162.771002 
L 355.05327 163.002364 
L 355.191196 162.624061 
L 355.439831 160.620726 
L 355.78847 155.571363 
L 356.597233 142.846549 
L 356.774765 142.23256 
L 356.900991 142.642133 
L 357.092547 144.628229 
L 357.397513 150.585085 
L 358.478122 174.53184 
L 359.003553 180.726158 
L 359.280643 182.334311 
L 359.409515 182.430004 
L 359.537578 182.011974 
L 359.730963 180.341679 
L 360.027087 175.596635 
L 361.006275 158.063396 
L 361.313694 156.189181 
L 361.451288 156.008649 
L 361.506291 156.043762 
L 361.661978 156.450067 
L 361.963239 158.305223 
L 362.671067 163.340863 
L 362.793542 163.516711 
L 362.848211 163.488626 
L 363.016079 162.993478 
L 363.262137 161.274703 
L 363.866554 154.562307 
L 364.447711 149.166198 
L 364.731721 148.120842 
L 364.836264 148.103711 
L 364.953986 148.329608 
L 365.143067 149.210699 
L 365.556346 152.661959 
L 366.240532 158.335406 
L 366.880857 161.486377 
L 367.710966 165.125045 
L 367.825014 164.96862 
L 368.00953 163.945207 
L 368.270933 160.934266 
L 368.876983 153.533917 
L 369.01383 153.285844 
L 369.107245 153.514981 
L 369.360102 155.210972 
L 369.657842 156.94557 
L 369.723229 156.965143 
L 369.856822 156.386854 
L 370.058964 153.808126 
L 370.451714 144.323612 
L 371.263773 124.684246 
L 371.783316 111.376444 
L 372.384938 96.043911 
L 372.664461 93.716851 
L 372.732933 93.709321 
L 372.867884 94.195977 
L 373.354438 97.120299 
L 373.419385 97.106935 
L 373.543381 96.541628 
L 373.740557 93.997006 
L 374.087916 85.044361 
L 374.79186 65.473812 
L 375.832047 46.082053 
L 376.177101 40.585063 
L 376.294896 40.023373 
L 376.356314 40.047612 
L 376.469418 40.667525 
L 376.651809 43.128413 
L 377.656023 61.044343 
L 377.926659 62.792459 
L 378.135811 65.837289 
L 378.451482 74.913617 
L 379.236502 100.739977 
L 379.437902 102.378833 
L 379.505962 102.426731 
L 379.554357 102.343988 
L 379.945789 101.046876 
L 379.997409 101.163133 
L 380.141081 102.222574 
L 380.368375 106.310912 
L 381.464943 131.67002 
L 381.718227 135.601049 
L 381.976701 143.608969 
L 382.521372 171.098995 
L 382.920245 185.381315 
L 383.137937 187.73282 
L 383.189106 187.801446 
L 383.231851 187.746957 
L 383.377527 187.000718 
L 384.50118 177.917193 
L 384.767922 171.206903 
L 385.610642 146.32671 
L 385.651081 146.225248 
L 385.68786 146.256652 
L 385.781635 146.828771 
L 385.992313 150.058806 
L 386.520727 158.373578 
L 386.63057 158.602927 
L 386.74465 158.211895 
L 386.973631 156.003456 
L 387.453366 148.568475 
L 387.85239 138.767622 
L 389.033544 104.908789 
L 389.214006 104.130316 
L 389.333129 104.427709 
L 389.509589 105.925405 
L 389.815766 111.207671 
L 390.18891 122.436502 
L 390.611 142.67584 
L 391.475936 186.049306 
L 391.916984 196.071879 
L 392.240697 199.377259 
L 392.303269 199.500421 
L 392.365623 199.413164 
L 392.491072 198.545898 
L 392.720488 194.546427 
L 393.626907 173.557835 
L 393.688867 173.440918 
L 393.747043 173.552642 
L 393.903596 174.854072 
L 394.183962 180.026157 
L 394.788808 192.172707 
L 395.032141 193.411375 
L 395.144391 193.21278 
L 395.381366 191.824791 
L 395.72851 188.402525 
L 396.01047 183.044538 
L 396.29184 172.780603 
L 396.806057 143.055836 
L 397.327094 117.648732 
L 397.785795 105.975384 
L 398.187615 100.335909 
L 398.429513 99.278841 
L 398.52487 99.583432 
L 398.712696 101.644051 
L 398.970406 107.673718 
L 399.791383 130.529577 
L 399.902063 131.030309 
L 399.950455 130.986255 
L 400.101677 129.970028 
L 400.453168 124.886604 
L 400.910722 119.467574 
L 401.38944 116.542217 
L 401.600954 116.048317 
L 401.718362 116.198633 
L 401.903375 117.222984 
L 402.181428 120.568499 
L 402.632247 129.494731 
L 403.13172 144.558738 
L 403.648744 159.090378 
L 403.87122 160.780313 
L 403.973223 160.656634 
L 404.438968 158.969029 
L 404.498762 159.007649 
L 404.67855 159.176948 
L 404.796175 158.871958 
L 404.95717 157.12717 
L 405.178053 151.223962 
L 405.641122 129.301649 
L 406.101274 111.643951 
L 406.596303 101.625404 
L 407.937799 79.833053 
L 408.414401 74.900811 
L 408.754298 71.203593 
L 409.012102 65.554174 
L 409.418069 50.599199 
L 409.856252 36.856258 
L 410.1623 33.538774 
L 410.410904 30.997854 
L 410.732668 24.573575 
L 411.046404 19.481858 
L 411.107215 19.284515 
L 411.161438 19.404892 
L 411.28142 20.737232 
L 411.512303 27.391621 
L 411.941164 49.500939 
L 413.44853 130.590723 
L 414.337439 165.669229 
L 414.679801 171.436059 
L 415.025943 176.342868 
L 415.323945 185.207877 
L 416.541571 230.96928 
L 417.290588 239.536355 
L 417.525057 240.692523 
L 417.633807 240.295431 
L 417.795537 237.94848 
L 418.042391 229.411149 
L 419.046526 184.394449 
L 419.467339 175.939265 
L 419.765677 162.937402 
L 420.788712 109.549769 
L 421.920071 71.792196 
L 421.999908 71.565323 
L 422.045195 71.691517 
L 422.173609 72.915898 
L 422.361999 76.173519 
L 422.361999 76.173519 
" clip-path="url(#p6e0c4b5b2a)" style="fill: none; stroke: #3ea44e"/>
   </g>
   <g id="legend_1">
    <g id="patch_5">
     <path d="M 332.945749 50.862146 
L 418.361999 50.862146 
L 418.361999 6.834646 
L 332.945749 6.834646 
z
" style="fill: #ffffff; stroke: #000000; stroke-linejoin: miter"/>
    </g>
    <g id="line2d_14">
     <path d="M 339.345749 16.513396 
L 347.345749 16.513396 
L 355.345749 16.513396 
" style="fill: none; stroke: #009afa; stroke-linejoin: miter"/>
    </g>
    <g id="text_13">
     <!-- GXBeam -->
     <g transform="translate(361.745749 19.313396)scale(0.08 -0.08)">
      <defs>
       <path id="DejaVuSans-47" d="M 3809 666 
L 3809 1919 
L 2778 1919 
L 2778 2438 
L 4434 2438 
L 4434 434 
Q 4069 175 3628 42 
Q 3188 -91 2688 -91 
Q 1594 -91 976 548 
Q 359 1188 359 2328 
Q 359 3472 976 4111 
Q 1594 4750 2688 4750 
Q 3144 4750 3555 4637 
Q 3966 4525 4313 4306 
L 4313 3634 
Q 3963 3931 3569 4081 
Q 3175 4231 2741 4231 
Q 1884 4231 1454 3753 
Q 1025 3275 1025 2328 
Q 1025 1384 1454 906 
Q 1884 428 2741 428 
Q 3075 428 3337 486 
Q 3600 544 3809 666 
z
" transform="scale(0.015625)"/>
       <path id="DejaVuSans-58" d="M 403 4666 
L 1081 4666 
L 2241 2931 
L 3406 4666 
L 4084 4666 
L 2584 2425 
L 4184 0 
L 3506 0 
L 2194 1984 
L 872 0 
L 191 0 
L 1856 2491 
L 403 4666 
z
" transform="scale(0.015625)"/>
       <path id="DejaVuSans-42" d="M 1259 2228 
L 1259 519 
L 2272 519 
Q 2781 519 3026 730 
Q 3272 941 3272 1375 
Q 3272 1813 3026 2020 
Q 2781 2228 2272 2228 
L 1259 2228 
z
M 1259 4147 
L 1259 2741 
L 2194 2741 
Q 2656 2741 2882 2914 
Q 3109 3088 3109 3444 
Q 3109 3797 2882 3972 
Q 2656 4147 2194 4147 
L 1259 4147 
z
M 628 4666 
L 2241 4666 
Q 2963 4666 3353 4366 
Q 3744 4066 3744 3513 
Q 3744 3084 3544 2831 
Q 3344 2578 2956 2516 
Q 3422 2416 3680 2098 
Q 3938 1781 3938 1306 
Q 3938 681 3513 340 
Q 3088 0 2303 0 
L 628 0 
L 628 4666 
z
" transform="scale(0.015625)"/>
       <path id="DejaVuSans-61" d="M 2194 1759 
Q 1497 1759 1228 1600 
Q 959 1441 959 1056 
Q 959 750 1161 570 
Q 1363 391 1709 391 
Q 2188 391 2477 730 
Q 2766 1069 2766 1631 
L 2766 1759 
L 2194 1759 
z
M 3341 1997 
L 3341 0 
L 2766 0 
L 2766 531 
Q 2569 213 2275 61 
Q 1981 -91 1556 -91 
Q 1019 -91 701 211 
Q 384 513 384 1019 
Q 384 1609 779 1909 
Q 1175 2209 1959 2209 
L 2766 2209 
L 2766 2266 
Q 2766 2663 2505 2880 
Q 2244 3097 1772 3097 
Q 1472 3097 1187 3025 
Q 903 2953 641 2809 
L 641 3341 
Q 956 3463 1253 3523 
Q 1550 3584 1831 3584 
Q 2591 3584 2966 3190 
Q 3341 2797 3341 1997 
z
" transform="scale(0.015625)"/>
      </defs>
      <use xlink:href="#DejaVuSans-47"/>
      <use xlink:href="#DejaVuSans-58" x="77.490234"/>
      <use xlink:href="#DejaVuSans-42" x="145.996094"/>
      <use xlink:href="#DejaVuSans-65" x="214.599609"/>
      <use xlink:href="#DejaVuSans-61" x="276.123047"/>
      <use xlink:href="#DejaVuSans-6d" x="337.402344"/>
     </g>
    </g>
    <g id="line2d_15">
     <path d="M 339.345749 28.255896 
L 347.345749 28.255896 
L 355.345749 28.255896 
" style="fill: none; stroke: #e36f47; stroke-linejoin: miter"/>
    </g>
    <g id="text_14">
     <!-- ODEProblem -->
     <g transform="translate(361.745749 31.055896)scale(0.08 -0.08)">
      <defs>
       <path id="DejaVuSans-4f" d="M 2522 4238 
Q 1834 4238 1429 3725 
Q 1025 3213 1025 2328 
Q 1025 1447 1429 934 
Q 1834 422 2522 422 
Q 3209 422 3611 934 
Q 4013 1447 4013 2328 
Q 4013 3213 3611 3725 
Q 3209 4238 2522 4238 
z
M 2522 4750 
Q 3503 4750 4090 4092 
Q 4678 3434 4678 2328 
Q 4678 1225 4090 567 
Q 3503 -91 2522 -91 
Q 1538 -91 948 565 
Q 359 1222 359 2328 
Q 359 3434 948 4092 
Q 1538 4750 2522 4750 
z
" transform="scale(0.015625)"/>
       <path id="DejaVuSans-44" d="M 1259 4147 
L 1259 519 
L 2022 519 
Q 2988 519 3436 956 
Q 3884 1394 3884 2338 
Q 3884 3275 3436 3711 
Q 2988 4147 2022 4147 
L 1259 4147 
z
M 628 4666 
L 1925 4666 
Q 3281 4666 3915 4102 
Q 4550 3538 4550 2338 
Q 4550 1131 3912 565 
Q 3275 0 1925 0 
L 628 0 
L 628 4666 
z
" transform="scale(0.015625)"/>
       <path id="DejaVuSans-45" d="M 628 4666 
L 3578 4666 
L 3578 4134 
L 1259 4134 
L 1259 2753 
L 3481 2753 
L 3481 2222 
L 1259 2222 
L 1259 531 
L 3634 531 
L 3634 0 
L 628 0 
L 628 4666 
z
" transform="scale(0.015625)"/>
       <path id="DejaVuSans-50" d="M 1259 4147 
L 1259 2394 
L 2053 2394 
Q 2494 2394 2734 2622 
Q 2975 2850 2975 3272 
Q 2975 3691 2734 3919 
Q 2494 4147 2053 4147 
L 1259 4147 
z
M 628 4666 
L 2053 4666 
Q 2838 4666 3239 4311 
Q 3641 3956 3641 3272 
Q 3641 2581 3239 2228 
Q 2838 1875 2053 1875 
L 1259 1875 
L 1259 0 
L 628 0 
L 628 4666 
z
" transform="scale(0.015625)"/>
       <path id="DejaVuSans-72" d="M 2631 2963 
Q 2534 3019 2420 3045 
Q 2306 3072 2169 3072 
Q 1681 3072 1420 2755 
Q 1159 2438 1159 1844 
L 1159 0 
L 581 0 
L 581 3500 
L 1159 3500 
L 1159 2956 
Q 1341 3275 1631 3429 
Q 1922 3584 2338 3584 
Q 2397 3584 2469 3576 
Q 2541 3569 2628 3553 
L 2631 2963 
z
" transform="scale(0.015625)"/>
       <path id="DejaVuSans-6f" d="M 1959 3097 
Q 1497 3097 1228 2736 
Q 959 2375 959 1747 
Q 959 1119 1226 758 
Q 1494 397 1959 397 
Q 2419 397 2687 759 
Q 2956 1122 2956 1747 
Q 2956 2369 2687 2733 
Q 2419 3097 1959 3097 
z
M 1959 3584 
Q 2709 3584 3137 3096 
Q 3566 2609 3566 1747 
Q 3566 888 3137 398 
Q 2709 -91 1959 -91 
Q 1206 -91 779 398 
Q 353 888 353 1747 
Q 353 2609 779 3096 
Q 1206 3584 1959 3584 
z
" transform="scale(0.015625)"/>
       <path id="DejaVuSans-62" d="M 3116 1747 
Q 3116 2381 2855 2742 
Q 2594 3103 2138 3103 
Q 1681 3103 1420 2742 
Q 1159 2381 1159 1747 
Q 1159 1113 1420 752 
Q 1681 391 2138 391 
Q 2594 391 2855 752 
Q 3116 1113 3116 1747 
z
M 1159 2969 
Q 1341 3281 1617 3432 
Q 1894 3584 2278 3584 
Q 2916 3584 3314 3078 
Q 3713 2572 3713 1747 
Q 3713 922 3314 415 
Q 2916 -91 2278 -91 
Q 1894 -91 1617 61 
Q 1341 213 1159 525 
L 1159 0 
L 581 0 
L 581 4863 
L 1159 4863 
L 1159 2969 
z
" transform="scale(0.015625)"/>
       <path id="DejaVuSans-6c" d="M 603 4863 
L 1178 4863 
L 1178 0 
L 603 0 
L 603 4863 
z
" transform="scale(0.015625)"/>
      </defs>
      <use xlink:href="#DejaVuSans-4f"/>
      <use xlink:href="#DejaVuSans-44" x="78.710938"/>
      <use xlink:href="#DejaVuSans-45" x="155.712891"/>
      <use xlink:href="#DejaVuSans-50" x="218.896484"/>
      <use xlink:href="#DejaVuSans-72" x="277.449219"/>
      <use xlink:href="#DejaVuSans-6f" x="316.3125"/>
      <use xlink:href="#DejaVuSans-62" x="377.494141"/>
      <use xlink:href="#DejaVuSans-6c" x="440.970703"/>
      <use xlink:href="#DejaVuSans-65" x="468.753906"/>
      <use xlink:href="#DejaVuSans-6d" x="530.277344"/>
     </g>
    </g>
    <g id="line2d_16">
     <path d="M 339.345749 39.998396 
L 347.345749 39.998396 
L 355.345749 39.998396 
" style="fill: none; stroke: #3ea44e; stroke-linejoin: miter"/>
    </g>
    <g id="text_15">
     <!-- DAEProblem -->
     <g transform="translate(361.745749 42.798396)scale(0.08 -0.08)">
      <defs>
       <path id="DejaVuSans-41" d="M 2188 4044 
L 1331 1722 
L 3047 1722 
L 2188 4044 
z
M 1831 4666 
L 2547 4666 
L 4325 0 
L 3669 0 
L 3244 1197 
L 1141 1197 
L 716 0 
L 50 0 
L 1831 4666 
z
" transform="scale(0.015625)"/>
      </defs>
      <use xlink:href="#DejaVuSans-44"/>
      <use xlink:href="#DejaVuSans-41" x="75.251953"/>
      <use xlink:href="#DejaVuSans-45" x="143.660156"/>
      <use xlink:href="#DejaVuSans-50" x="206.84375"/>
      <use xlink:href="#DejaVuSans-72" x="265.396484"/>
      <use xlink:href="#DejaVuSans-6f" x="304.259766"/>
      <use xlink:href="#DejaVuSans-62" x="365.441406"/>
      <use xlink:href="#DejaVuSans-6c" x="428.917969"/>
      <use xlink:href="#DejaVuSans-65" x="456.701172"/>
      <use xlink:href="#DejaVuSans-6d" x="518.224609"/>
     </g>
    </g>
   </g>
  </g>
 </g>
 <defs>
  <clipPath id="p6e0c4b5b2a">
   <rect x="64.557544" y="2.834646" width="357.804455" height="255.390709"/>
  </clipPath>
 </defs>
</svg>
